<?xml version="1.0" encoding="utf-8"?>
<!-- Generator: Adobe Illustrator 27.2.0, SVG Export Plug-In . SVG Version: 6.00 Build 0)  -->
<svg version="1.1" id="圖層_1" xmlns="http://www.w3.org/2000/svg" xmlns:xlink="http://www.w3.org/1999/xlink" x="0px" y="0px"
	 viewBox="0 0 110 110" style="enable-background:new 0 0 110 110;" xml:space="preserve">
<style type="text/css">
	.st0{opacity:0.5;fill:#686868;}
	.st1{opacity:0.9;fill:#686868;}
	.st2{fill:#FFFFFF;}
</style>
<g>
	<circle class="st0" cx="55" cy="55" r="54.1"/>
	<circle class="st1" cx="55" cy="55" r="49.2"/>
	<g>
		<path class="st2" d="M25.7,34.8c-0.4-0.1-0.7-0.4-0.8-0.8c-0.2-0.4-0.2-0.8,0-1.1c0.1-0.4,0.4-0.6,0.8-0.8c0.4-0.2,0.8-0.2,1.1,0
			l15.4,5.9c0.4,0.1,0.7,0.4,0.8,0.8c0.2,0.4,0.2,0.8,0,1.1l-3.4,9c-0.1,0.4-0.4,0.7-0.8,0.8s-0.8,0.2-1.1,0l-0.5-0.2
			c-0.4-0.1-0.6-0.4-0.8-0.7c-0.1-0.3-0.2-0.7,0-1.1c0-0.1,0-0.2-0.1-0.3l-10.7-4.1c-0.1,0-0.2,0-0.3,0.2L23,49.3
			c-0.3,0.8-0.4,1.2-0.3,1.5c0.1,0.2,0.4,0.5,1.1,0.8c1.3,0.6,2.6,1.1,3.8,1.6c1,0.4,2.4,0.9,4.1,1.4c0.6,0.2,0.9,0.3,1.2,0.4
			c0.2,0.1,0.5,0.1,0.8,0.2c0.3,0,0.6,0,0.7-0.1c0.1-0.1,0.3-0.2,0.6-0.4c0.2-0.2,0.4-0.4,0.6-0.7c0.2-0.3,0.4-0.7,0.7-1.2
			c0.2-0.4,0.5-0.6,0.9-0.7c0.4-0.1,0.8-0.1,1.1,0.1l0.5,0.2c0.4,0.2,0.6,0.5,0.8,0.9c0.1,0.4,0.1,0.8-0.1,1.1
			c-0.4,0.8-0.8,1.5-1.1,2c-0.3,0.5-0.7,1-1,1.3c-0.4,0.4-0.7,0.6-1,0.7c-0.3,0.1-0.7,0.2-1.3,0.2c-0.5,0-1.1-0.1-1.6-0.2
			c-0.5-0.1-1.2-0.3-2-0.6c-1.8-0.6-3.5-1.2-5-1.8c-1.3-0.5-2.8-1.1-4.3-1.8c-0.7-0.3-1.3-0.6-1.6-0.8c-0.4-0.2-0.7-0.4-1-0.7
			c-0.3-0.3-0.5-0.5-0.6-0.7c-0.1-0.2-0.1-0.5-0.1-0.9c0-0.4,0.1-0.8,0.2-1.2c0.1-0.4,0.3-0.9,0.6-1.7l4.2-10.9
			c0.1-0.4,0.4-0.6,0.8-0.8c0.4-0.2,0.8-0.2,1.1,0l0.5,0.2c0.4,0.1,0.7,0.4,0.8,0.8c0.2,0.4,0.2,0.7,0,1.1l-0.6,1.7
			c0,0.1,0,0.2,0.1,0.3l10.7,4.1c0.1,0.1,0.2,0,0.3-0.1l1.7-4.3c0-0.1,0-0.2-0.2-0.3L25.7,34.8z"/>
		<path class="st2" d="M42.5,53.8l0.1-0.4c0.1-0.4,0.3-0.8,0.6-1c0.3-0.3,0.7-0.4,1.1-0.4c1.2,0,2.1-0.1,2.9-0.2
			c0.1,0,0.1,0,0.1-0.1s0-0.1,0-0.2c-0.2-0.5-0.5-1-0.7-1.5c0-0.1-0.1-0.2-0.3-0.1l-0.5,0.2c-0.3,0.1-0.6,0.1-0.9-0.1
			c-0.3-0.2-0.5-0.5-0.5-0.8c-0.1-0.9,0.3-1.5,1.2-1.9c0.7-0.3,1.2-0.6,1.7-0.9c0,0,0.1-0.1,0-0.1c0-0.1,0-0.1-0.1-0.1l-0.1,0
			c-0.4-0.1-0.7-0.4-0.8-0.8s-0.2-0.7,0-1.1l0.8-2c0.1-0.4,0.4-0.6,0.8-0.8c0.4-0.2,0.8-0.2,1.1,0l2.5,0.9c0.1,0,0.2,0,0.3-0.1
			l0.1-0.3c0.1-0.4,0.4-0.7,0.8-0.8c0.4-0.2,0.8-0.2,1.1,0l0.4,0.2c0.4,0.1,0.7,0.4,0.8,0.8c0.2,0.4,0.2,0.8,0,1.1l-0.1,0.3
			c-0.1,0.1,0,0.2,0.1,0.3l2.4,0.9c0.3,0.1,0.6,0.3,0.7,0.6c0,0,0.1,0.1,0.1,0.1c0,0,0.1,0,0.1,0c0.1-0.4,0.4-0.6,0.7-0.8
			s0.7-0.2,1.1,0l9.2,3.5c0.4,0.1,0.6,0.4,0.8,0.7c0.2,0.4,0.2,0.7,0,1.1c-0.1,0.4-0.4,0.6-0.7,0.8c-0.4,0.2-0.7,0.2-1.1,0l-2.9-1.1
			c-0.1-0.1-0.3,0-0.3,0.1l-0.6,0.9c-0.1,0.1-0.1,0.2,0.1,0.3l2.5,1c0.4,0.1,0.7,0.4,0.8,0.8c0.2,0.4,0.2,0.7,0.1,1.1l-3.8,10
			c-0.1,0.4-0.4,0.7-0.8,0.8c-0.4,0.2-0.8,0.2-1.1,0l-1.7-0.6c0,0-0.1,0-0.1,0c0,0,0,0,0,0.1c0.9,1.1,1.7,2,2.4,3
			c0.2,0.3,0.3,0.7,0.2,1.1s-0.3,0.7-0.6,1c-0.3,0.2-0.6,0.3-1,0.3c-0.4-0.1-0.7-0.2-0.9-0.6c-0.7-0.9-1.3-1.8-1.9-2.5
			c-0.3-0.3-0.4-0.6-0.3-1c0-0.4,0.2-0.7,0.5-1l0.7-0.5c0,0,0.1-0.1,0.1-0.1s0-0.1-0.1-0.1l-2.5-1c-0.1,0-0.2,0-0.1,0.1l0.2,0.7
			c0.1,0.4,0.1,0.8-0.1,1.2s-0.5,0.6-0.9,0.7c-0.9,0.3-2,0.5-3.2,0.6c-0.4,0-0.8-0.1-1.1-0.3c-0.3-0.3-0.5-0.6-0.6-1
			c-0.1-0.4,0-0.7,0.3-1c0.2-0.3,0.5-0.5,0.9-0.6c1.4-0.1,2.6-0.3,3.6-0.6c0,0,0.1,0,0.1-0.1c0,0,0-0.1-0.1-0.1l-1.1-0.4
			c-0.4-0.1-0.7-0.4-0.8-0.8s-0.2-0.8,0-1.1l3.8-10c0.1-0.4,0.4-0.6,0.8-0.8c0.4-0.2,0.8-0.2,1.1,0l1.4,0.5c0.1,0.1,0.3,0,0.3-0.1
			c0.1-0.1,0.2-0.2,0.3-0.4c0.1-0.2,0.2-0.3,0.3-0.4c0.1-0.1,0.1-0.2-0.1-0.3L59,47c-0.3-0.1-0.5-0.3-0.7-0.6c0-0.1-0.1-0.1-0.2,0
			l-1,2.7c-0.1,0.2-0.2,0.3-0.4,0.4c-0.2,0.1-0.4,0.1-0.6,0c-0.1,0-0.1,0-0.2,0.1l0,0c-0.2,0.6-0.6,1.1-1.1,1.5
			c-1,0.8-2.1,1.5-3.1,1.9c-0.1,0.1-0.1,0.1,0,0.3c0.5,0.6,1.3,1.3,2.1,2.2c0.3,0.3,0.5,0.6,0.5,1s0,0.8-0.3,1.1L54,58.1
			c-0.1,0.2-0.3,0.3-0.6,0.3c-0.3,0-0.5,0-0.7-0.2c-0.1-0.1-0.1-0.1-0.2,0l-1.8,4.6c-0.1,0.4-0.4,0.7-0.8,0.8
			c-0.4,0.2-0.7,0.2-1.1,0l-4.6-1.8c-0.1,0-0.2,0-0.2,0.1c-0.1,0.2-0.2,0.4-0.5,0.5c-0.2,0.1-0.5,0.1-0.7,0l-0.8-0.3
			c-0.4-0.1-0.7-0.4-0.8-0.8c-0.2-0.4-0.2-0.7,0-1.1l2.1-5.4c0-0.1,0-0.1-0.1-0.2c-0.3,0-0.5-0.1-0.7-0.3
			C42.5,54.3,42.4,54.1,42.5,53.8z M48.5,60.7l0.8-2c0.1-0.1,0-0.2-0.1-0.3l-3-1.1c-0.1-0.1-0.2,0-0.3,0.1l-0.8,2
			c0,0.1,0,0.2,0.1,0.3l3,1.1C48.4,60.9,48.5,60.8,48.5,60.7z M50.7,56.2c-0.8-0.8-1.3-1.5-1.6-1.9c-0.1-0.1-0.2-0.2-0.4-0.1
			c-0.8,0.2-1.5,0.3-2.2,0.4c0,0,0,0,0,0c0,0,0,0,0,0.1L50.7,56.2C50.6,56.3,50.6,56.3,50.7,56.2C50.7,56.3,50.7,56.2,50.7,56.2z
			 M49.1,48.3c-0.1,0.1-0.1,0.2-0.1,0.3c0.3,0.8,0.6,1.5,0.9,2.2c0.1,0.1,0.2,0.1,0.3,0.1c0.8-0.3,1.6-0.8,2.3-1.4
			c0.1-0.1,0.1-0.1-0.1-0.2l-3-1.1C49.4,48.2,49.3,48.2,49.1,48.3L49.1,48.3z M49.2,44.9c0.2-0.2,0.5-0.3,0.8-0.1l1.5,0.8
			c0.2,0.1,0.2,0.2,0.3,0.4c0,0.2,0,0.3-0.1,0.4c0,0,0,0.1,0,0.1l2.8,1.1c0.1,0.1,0.2,0,0.3-0.1l0.3-0.8c0.1-0.1,0-0.2-0.1-0.3
			l-5.3-2c-0.1-0.1-0.2,0-0.3,0.2L49.2,44.9C49.1,44.9,49.1,44.9,49.2,44.9C49.2,44.9,49.2,44.9,49.2,44.9z M61.5,61.2l0.4-0.9
			c0.1-0.1,0-0.2-0.1-0.3l-4-1.5c-0.1-0.1-0.2,0-0.3,0.1l-0.4,0.9c-0.1,0.1,0,0.2,0.2,0.3l4,1.5C61.4,61.3,61.5,61.3,61.5,61.2z
			 M62.8,57.8l0.3-0.9c0-0.1,0-0.2-0.1-0.3l-4-1.5c-0.1-0.1-0.2,0-0.3,0.1l-0.3,0.9c0,0.1,0,0.2,0.2,0.3l4,1.5
			C62.6,58,62.7,57.9,62.8,57.8z M64.3,53.3l-4-1.5c-0.1-0.1-0.2,0-0.3,0.1l-0.3,0.9c-0.1,0.1,0,0.3,0.1,0.3l4,1.5
			c0.1,0,0.2,0,0.3-0.2l0.3-0.9C64.4,53.5,64.4,53.4,64.3,53.3z"/>
		<path class="st2" d="M67.7,70.5c-0.3,0.2-0.7,0.3-1.1,0.3c-0.4-0.1-0.7-0.3-1-0.6L65.5,70c-0.2-0.3-0.3-0.7-0.3-1.1
			c0.1-0.4,0.2-0.7,0.6-1c1.6-1.3,3.1-2.7,4.4-4.2c0.3-0.3,0.6-0.5,1-0.5c0.4,0,0.8,0.1,1.1,0.4l0.1,0.1c0.3,0.3,0.5,0.6,0.5,1
			c0,0.4-0.1,0.8-0.4,1.1C70.9,67.6,69.3,69.2,67.7,70.5z M69.8,57.2c-0.2-0.3-0.3-0.7-0.2-1.1c0.1-0.4,0.3-0.7,0.7-0.9l0.1,0
			c0.3-0.2,0.7-0.2,1.1-0.2c0.4,0.1,0.7,0.3,0.9,0.7c0.5,0.8,1,1.7,1.7,2.9c0.2,0.4,0.2,0.7,0.1,1.1c-0.1,0.4-0.4,0.7-0.7,0.9
			l-0.1,0c-0.3,0.2-0.7,0.2-1.1,0.1c-0.4-0.1-0.7-0.4-0.9-0.7C71.1,59.5,70.6,58.6,69.8,57.2z M78.1,55.1c-0.3-0.1-0.6-0.4-0.7-0.7
			c-0.1-0.3-0.2-0.7,0-1c0.1-0.3,0.4-0.6,0.7-0.7c0.3-0.1,0.7-0.1,1,0l0.5,0.2c0.1,0,0.2,0,0.3-0.1l0,0c0.1-0.4,0.4-0.7,0.8-0.8
			s0.8-0.2,1.1,0l0.4,0.2c0.4,0.1,0.7,0.4,0.8,0.8c0.2,0.4,0.2,0.8,0,1.1l0,0c0,0.1,0,0.2,0.1,0.3l5.7,2.2c0.1,0,0.2,0,0.3-0.1l0,0
			c0.1-0.4,0.4-0.7,0.8-0.8c0.4-0.2,0.8-0.2,1.1,0l0.4,0.2c0.4,0.1,0.7,0.4,0.8,0.8c0.2,0.4,0.2,0.8,0,1.1l0,0c0,0.1,0,0.2,0.1,0.3
			l0.8,0.3c0.3,0.1,0.6,0.4,0.8,0.7c0.2,0.3,0.2,0.7,0,1s-0.4,0.6-0.7,0.7c-0.4,0.2-0.7,0.2-1,0l-0.8-0.3c-0.1-0.1-0.2,0-0.3,0.1
			L90.5,62c-0.1,0.4-0.4,0.7-0.8,0.8c-0.4,0.2-0.7,0.2-1.1,0l-3-1.2c-0.1-0.1-0.2,0-0.3,0.2l-0.2,0.5c0,0.1,0,0.2,0.1,0.3l5,1.9
			c0.4,0.1,0.7,0.4,0.8,0.8s0.2,0.8,0,1.1l-3.3,8.7c-0.3,0.9-0.6,1.5-0.8,1.9c-0.2,0.4-0.5,0.7-0.8,0.9c-0.3,0.2-0.6,0.3-0.9,0.2
			c-0.3,0-0.7-0.2-1.3-0.4c-0.5-0.2-0.9-0.4-1.3-0.5c-0.4-0.2-0.6-0.4-0.8-0.8c-0.1-0.4-0.2-0.7,0-1.1c0.1-0.4,0.3-0.6,0.7-0.7
			c0.3-0.1,0.7-0.1,1,0c0.1,0,0.1,0.1,0.2,0.1c0.1,0,0.2,0.1,0.2,0.1c0.2,0.1,0.4,0.1,0.5,0c0.1-0.1,0.2-0.4,0.4-0.9l0.4-1
			c0-0.1,0-0.1,0,0l0,0l0,0c-0.2,0.2-0.5,0.3-0.8,0.2c-0.3-0.1-0.5-0.3-0.5-0.6c0-0.3-0.1-0.6-0.1-0.8c0,0,0-0.1-0.1-0.1
			c0,0-0.1,0-0.1,0c-0.3,0.2-0.5,0.4-0.8,0.5c-0.3,0.2-0.5,0.2-0.8,0c-0.3-0.2-0.4-0.4-0.5-0.7c0,0,0,0,0,0s0,0,0,0
			c0-0.1,0-0.1-0.1,0l-1.1,2.9c-0.1,0.4-0.4,0.6-0.7,0.8c-0.3,0.1-0.7,0.2-1.1,0s-0.6-0.4-0.8-0.7c-0.2-0.3-0.2-0.7,0-1.1l1.1-2.9
			c0,0,0-0.1,0-0.1s0,0-0.1,0l0,0l0,0c-0.2,0.2-0.5,0.3-0.8,0.2c-0.3-0.1-0.5-0.3-0.5-0.6c0-0.3-0.1-0.6-0.1-0.8c0,0,0-0.1-0.1-0.1
			c0,0-0.1,0-0.1,0c-0.4,0.3-0.7,0.5-0.8,0.5c-0.3,0.2-0.5,0.2-0.8,0c-0.3-0.2-0.4-0.4-0.5-0.7c0,0,0,0,0,0c0,0,0,0,0,0c0,0,0,0,0,0
			c0,0,0,0,0,0l-1.2,3.3c-0.1,0.4-0.4,0.7-0.8,0.8c-0.4,0.2-0.8,0.2-1.1,0l-0.1,0c-0.4-0.1-0.7-0.4-0.8-0.8c-0.2-0.4-0.2-0.8,0-1.1
			l4.2-10.9c0.1-0.4,0.4-0.7,0.8-0.8c0.4-0.2,0.8-0.2,1.1,0l5,1.9c0.1,0.1,0.2,0,0.3-0.1l0.2-0.5c0.1-0.1,0-0.2-0.1-0.3L79,59.1
			c-0.4-0.1-0.7-0.4-0.8-0.8c-0.2-0.4-0.2-0.7,0-1.1l0.6-1.7c0-0.1,0-0.2-0.1-0.3L78.1,55.1z M75.5,50.7c0.4,0.6,0.9,1.4,1.3,2.3
			c0.2,0.4,0.3,0.7,0.2,1.1c-0.1,0.4-0.3,0.7-0.7,0.9l-0.1,0.1c-0.3,0.2-0.7,0.2-1.1,0.1c-0.4-0.1-0.7-0.3-0.9-0.7
			c-0.5-0.9-0.9-1.6-1.4-2.3c-0.2-0.3-0.3-0.7-0.2-1.1c0.1-0.4,0.3-0.7,0.7-0.9l0,0c0.4-0.2,0.7-0.3,1.1-0.2
			C74.9,50.2,75.2,50.4,75.5,50.7z M79.3,68.3c0,0.4,0,0.6,0,0.6c0,0,0,0,0.1,0l1.9-5c0-0.1,0-0.2-0.2-0.3l-3.5-1.4
			c-0.1,0-0.2,0-0.3,0.1l-2,5.3c0,0,0,0.1,0.1,0c0.1-0.2,0.3-0.3,0.6-0.5c0.7-0.4,1.2-1,1.5-1.8c0-0.1,0-0.1-0.1-0.1
			c-0.2-0.1-0.3-0.2-0.4-0.4c-0.1-0.2-0.1-0.4,0-0.6L77,64c0.1-0.3,0.3-0.4,0.5-0.6c0.3-0.1,0.5-0.1,0.8,0l0.6,0.2
			c0.4,0.1,0.7,0.4,0.8,0.8c0.2,0.4,0.2,0.8,0,1.2C79.4,66.7,79.2,67.6,79.3,68.3z M81.9,56.7l-0.3,0.7c0,0.1,0,0.2,0.1,0.3l5.7,2.2
			c0.1,0,0.2,0,0.3-0.1l0.3-0.7c0-0.1,0-0.2-0.1-0.3l-5.7-2.2C82.1,56.6,82,56.6,81.9,56.7z M87.7,66.1l-3.6-1.4
			c-0.1,0-0.2,0-0.3,0.1l-2,5.3c0,0,0,0,0,0c0.1-0.2,0.3-0.3,0.6-0.5c0.7-0.4,1.2-1,1.5-1.8c0-0.1,0-0.1-0.1-0.1
			c-0.2-0.1-0.3-0.2-0.4-0.4c-0.1-0.2-0.1-0.4,0-0.6l0.1-0.3c0.1-0.3,0.3-0.4,0.5-0.6c0.3-0.1,0.5-0.1,0.8,0l0.6,0.2
			c0.4,0.1,0.6,0.4,0.8,0.8c0.2,0.4,0.2,0.8,0,1.2c-0.4,1.1-0.6,2-0.5,2.7c0,0.2,0,0.5,0,0.6c0,0,0,0,0.1,0l1.9-5
			C87.9,66.3,87.8,66.2,87.7,66.1z"/>
	</g>
</g>
</svg>
