<?xml version="1.0" encoding="utf-8"?>
<!-- Generator: Adobe Illustrator 27.2.0, SVG Export Plug-In . SVG Version: 6.00 Build 0)  -->
<svg version="1.1" id="圖層_1" xmlns="http://www.w3.org/2000/svg" xmlns:xlink="http://www.w3.org/1999/xlink" x="0px" y="0px"
	 viewBox="0 0 145 184" style="enable-background:new 0 0 145 184;" xml:space="preserve">
<style type="text/css">
	.st0{fill:#C52226;}
	.st1{fill:#D3373B;}
	.st2{opacity:0.5;fill:#C52226;enable-background:new    ;}
	.st3{fill:#FFD86C;}
	.st4{fill:#FFF9EE;}
	.st5{fill:#EBAF55;}
	.st6{fill:#D65050;}
	.st7{fill:#FFFFFF;}
	.st8{fill:none;stroke:#D3373B;stroke-width:5;stroke-linecap:round;stroke-linejoin:round;}
</style>
<g>
	<g>
		<path class="st0" d="M139.5,26.7c4.5,10-8.5,15.9-16.5,16.8c-11.4,1.9-22.9-1.1-33.6-4.9c-7.7-3.1-15.2-6.7-22.3-10.9
			c-5.3-2.9-10.9-5.3-16.2-8.3c-2.1-1.3-4.3-2.6-5.6-4.7c-0.7-1.3-0.9-2.8-0.4-4.2c0.2-4.1,4.3-7.2,7.9-8.5
			c4.8-1.6,9.9-1.1,14.8-0.5c3.7,0.6,7.4,0.9,10.9,2c3.5,1.2,7,2.8,10.1,4.8c3.4,2.4,6.8,4.9,10.7,6.4c6.6,2.5,13.8,1.1,20.6,2.2
			c3.7,0.6,7.4,1.7,10.8,3.4C134,22,137.7,23.4,139.5,26.7z"/>
		<path class="st1" d="M140.2,94.5c2.3,13.6,1.3,28.6-6.5,40.3c-7.2,10.3-18.6,17.5-30.7,20.3c-6,1.5-12.1,1.7-18.2,1.9
			c-12.4,0.3-24.9-1.6-36.5-6c-9.3-3.6-18.6-7.7-26.7-13.6c-5.7-4.3-10.5-9.9-14.1-16c-8-13.2-7.4-30.2-1.4-44.1
			C12.6,63.4,24,53.8,37.3,46.8c4.7-3.1,12.9-6,12.5-12.8c0-4.3-4.1-6.7-6.6-9.5c-2-2.2-3.9-4.7-4.8-7.6c-1.2-4.1-0.1-9.1,3.7-11.4
			c2.8-1.9,6.5-1.3,9.2,0.5c3.5,2.4,5.8,6.5,10.1,7.9c9.2,2.9,15.4-6.2,30.3,2.8c5.3,3.6,7.5,10.8,14.1,12.8c5,1.8,10.5,2,15.6,0.4
			c5.4-1.8,11-4.4,16.9-3.3c3,0.5,5.6,3,5.6,6.1c-0.2,7.4-10,12-14.5,17.1c-3.3,3.2-4.8,6.9-3.4,11.5c1.2,3.9,3.5,7.4,5.5,10.9
			C135.3,79.3,138.7,86.8,140.2,94.5z"/>
		<path class="st0" d="M103,155.1c-6,1.5-12.1,1.7-18.2,1.9c-12.4,0.3-24.9-1.6-36.5-6c-9.3-3.6-18.6-7.7-26.7-13.6
			c-5.7-4.3-10.5-9.9-14.1-16c-8-13.2-7.4-30.2-1.4-44.1C12.6,63.4,24,53.8,37.3,46.8c0,0-38.3,26-18.5,65.4S103,155.1,103,155.1z"
			/>
	</g>
	<path class="st2" d="M64.6,44.5c0,0-15.6-35-4.2-27.3C71.7,25,79,45.9,80.6,39.9s7.6-18.3,10.2-15.1S87.4,47.3,93.5,45
		c6.1-2.3,22.5-18.1,20.9-12.1s-9.4,14.7-7.5,14s19.9-13.7,18-6.4s-17.9,8.1-14.8,16.1s17.3,19.5,11.5,18s-19.4-17-22.6-15.8
		s-18,8.5-17.2,5.3c0.8-3.2,3.2-11.2-0.8-9.7S64.7,67,66.4,60.7c1.7-6.3,5.5-11.7,2.9-10.7c-2.7,1-27.6,9.3-22.5,3.2
		C52,46.9,64.6,44.5,64.6,44.5z"/>
	<g>
		<path class="st3" d="M72.3,46.5c-0.8,0.2-1.7,0.5-2.6,0.6c-7.1,3.9-18.5,8.6-20.2,9.3l-0.6-1.3c5.1-2.1,11.8-5.1,17-7.7
			c-0.6,0-1.3-0.1-1.8-0.2c-4-0.7-6-3.5-5.8-7.8c-7-1.1-11.3-1.9-12.1-3.7c-0.2-0.4-0.3-1,0.2-1.7c1.2-1.8,6.9-0.9,13,0.8
			c0.8-1.4,1.9-2,2.8-2.2c3.9-1.1,9.2,2.9,11.6,6c0.2,0.3,0.4,0.5,0.6,0.8c3.1-0.6,8-0.2,10.6,0.5c2.7,0.7,4.9,2.4,6,4.5
			c6.9,1.6,11.8,3.1,13,5.2c0.6,1,0,1.6-0.2,1.7c-1.2,1-6.3,0.1-12.1-1.4c-0.3,1.5-1,3.2-2.4,5.1c-1.4,2-2.9,2.9-4.4,2.8
			c-2.9-0.2-5.1-4.3-7.2-8.2c-0.6-1.1-1.1-2-1.6-2.9c-0.3-0.4-0.5-0.8-0.6-1.2c-0.4,0.2-0.9,0.4-1.3,0.6L72.3,46.5z M77,45.5
			c0.1,0.1,0.1,0.2,0.2,0.4c0.5,0.9,1.1,1.9,1.6,3c1.8,3.4,3.8,7.2,6,7.4c1,0.1,2-0.7,3.1-2.2c1.1-1.6,1.9-3.1,2.2-4.6
			c-4.3-1.2-8.9-2.6-12.4-3.9C77.6,45.5,77.3,45.5,77,45.5z M59.7,39.7c-0.1,3.2,1.2,5.2,3.8,6c1.7,0.5,3.7,0.4,5.6,0.1
			c1.6-0.9,2.9-1.7,3.7-2.3c-0.3-0.2-0.5-0.3-0.7-0.4c-0.4-0.3-0.7-0.7-0.8-1c-1.3-0.3-2.5-0.5-3.4-0.8
			C65.8,40.6,62.7,40.1,59.7,39.7z M79.4,44.7c3.2,1.1,7.2,2.3,10.9,3.3c0-0.8-0.1-1.6-0.4-2.3c0,0,0-0.1-0.1-0.1
			c-3.5-0.8-7.1-1.5-10.4-2c0.1,0.3,0.1,0.5,0,0.7C79.5,44.4,79.5,44.5,79.4,44.7z M91.6,45.9c0.2,0.7,0.3,1.5,0.2,2.5
			c5.2,1.3,9.7,2.2,10.8,1.8C101.7,48.7,97,47.2,91.6,45.9z M77.6,44c0.1,0,0.2,0.1,0.2,0.1c0.2,0,0.2-0.1,0.3-0.1
			c0-0.1-0.1-0.2-0.2-0.3C77.8,43.8,77.7,43.9,77.6,44z M58.4,36c-2.7-0.7-5.3-1.3-7.5-1.5c-2.9-0.3-3.3,0.3-3.4,0.3
			c-0.1,0.2-0.1,0.3-0.1,0.3c0.5,1.2,6.3,2.1,10.9,2.8c0.1-0.7,0.3-1.3,0.4-1.9C58.7,36.1,58.6,36.1,58.4,36z M76.2,42.9
			c0,0.1,0,0.2,0,0.4c0.2-0.1,0.3-0.2,0.4-0.3C76.5,43,76.3,42.9,76.2,42.9z M60.3,36.5c-0.2,0.5-0.3,1.1-0.4,1.7
			c3.1,0.5,6.2,1,8.6,1.6c0.9,0.2,2,0.5,3.2,0.7l0,0C68.4,39.2,64.2,37.7,60.3,36.5z M77,40.9c0.1,0,0.3,0.1,0.4,0.2
			c0.3,0.2,0.5,0.4,0.7,0.7c0.1,0,0.3,0,0.4,0.1c3.8,0.7,7.3,1.4,10.4,2c-1-1.2-2.5-2.2-4.3-2.6c-2.8-0.8-6.6-0.9-9-0.6
			c0.2,0.1,0.4,0.2,0.6,0.3C76.4,40.9,76.7,40.9,77,40.9z M60.9,35.3c4.3,1.3,8.7,2.8,11.6,4c-2.5-3.1-7.1-6-9.8-5.3
			C61.9,34.2,61.3,34.6,60.9,35.3z"/>
	</g>
	<g>
		<path class="st3" d="M90.6,52.9c-0.6,0-1.2-0.1-1.8-0.2c-3.9-0.7-5.9-3.5-5.7-7.7c-6.8-1-11.1-1.8-11.9-3.7
			c-0.2-0.4-0.3-1,0.2-1.7c1.2-1.8,6.8-0.9,12.8,0.8c0.8-1.4,1.8-2,2.7-2.2C90.8,37,96,41,98.3,44c0.2,0.3,0.4,0.5,0.5,0.8
			c3.1-0.6,7.9-0.3,10.4,0.4c2.6,0.7,4.8,2.3,5.9,4.5c6.8,1.5,11.6,3.1,12.7,5.1c0.6,1,0,1.6-0.2,1.7c-1.2,1-6.2,0.1-11.9-1.3
			c-0.3,1.5-1,3.2-2.4,5.1c-1.4,2-2.9,2.9-4.4,2.8c-2.9-0.2-5-4.2-7-8.1c-0.5-1.1-1.1-2-1.6-2.9c-0.2-0.4-0.4-0.8-0.6-1.2
			c-0.4,0.2-0.8,0.4-1.3,0.6C98.1,52.1,98,53,98,54.3c0.1,3.1,1.5,4.3,3,5.7c2,1.8,4.2,3.7,3.6,9.5l-1.4-0.1c0.5-5-1.3-6.6-3.1-8.3
			c-1.6-1.4-3.4-3-3.5-6.7c0-0.9,0-1.6,0.1-2.3c-0.8,0.2-1.7,0.5-2.6,0.6L90.6,52.9z M101.5,50.9c0.1,0.1,0.1,0.2,0.2,0.4
			c0.5,0.9,1.1,1.9,1.6,3c1.8,3.4,3.7,7.2,5.8,7.4c0.9,0.1,2-0.7,3.1-2.2c1.1-1.6,1.9-3.1,2.2-4.6c-4.3-1.1-8.7-2.6-12.1-3.9
			C102,50.9,101.8,50.9,101.5,50.9z M84.5,45.1c-0.1,3.2,1.1,5.2,3.7,5.9c1.7,0.5,3.6,0.4,5.5,0.1c1.6-0.9,2.9-1.7,3.7-2.3
			c-0.3-0.2-0.5-0.3-0.6-0.4c-0.4-0.3-0.6-0.7-0.8-1c-1.3-0.3-2.4-0.5-3.4-0.8C90.5,46.1,87.5,45.6,84.5,45.1z M103.9,50.1
			c3.1,1.1,7,2.3,10.7,3.3c0-0.8-0.1-1.6-0.4-2.3c0,0,0-0.1-0.1-0.1c-3.4-0.7-7-1.4-10.2-2c0.1,0.3,0.1,0.5,0,0.7
			C104,49.8,103.9,49.9,103.9,50.1z M115.8,51.3c0.2,0.7,0.3,1.5,0.2,2.5c5.1,1.3,9.5,2.1,10.6,1.7
			C125.7,53.9,121.2,52.5,115.8,51.3z M102.1,49.4c0.1,0,0.1,0.1,0.2,0.1c0.2,0,0.2-0.1,0.3-0.1c0-0.1-0.1-0.2-0.2-0.3
			C102.3,49.2,102.2,49.3,102.1,49.4z M83.3,41.5c-2.7-0.7-5.2-1.2-7.3-1.5c-2.9-0.3-3.3,0.3-3.3,0.3c-0.1,0.2-0.1,0.3-0.1,0.3
			c0.5,1.2,6.2,2.1,10.7,2.8c0.1-0.7,0.3-1.3,0.4-1.9C83.5,41.6,83.4,41.6,83.3,41.5z M100.7,48.3c0,0.1,0,0.2,0,0.4
			c0.2-0.1,0.3-0.2,0.4-0.3C101,48.4,100.8,48.3,100.7,48.3z M85.1,42c-0.2,0.5-0.3,1.1-0.4,1.7c3,0.5,6.1,0.9,8.4,1.6
			c0.9,0.2,1.9,0.5,3.1,0.7l0,0C93.1,44.6,89,43.1,85.1,42z M101.5,46.3c0.1,0,0.3,0.1,0.4,0.2c0.3,0.2,0.5,0.4,0.6,0.7
			c0.1,0,0.3,0,0.4,0.1c3.7,0.7,7.2,1.3,10.3,2c-1-1.2-2.5-2.2-4.2-2.6c-2.8-0.7-6.4-0.8-8.9-0.5c0.2,0.1,0.4,0.2,0.6,0.3
			C100.9,46.3,101.2,46.3,101.5,46.3z M85.7,40.7c4.2,1.2,8.5,2.8,11.4,4c-2.5-3.1-7-6-9.7-5.2C86.7,39.7,86.1,40.1,85.7,40.7z"/>
	</g>
	<g>
		<ellipse class="st4" cx="84.3" cy="46" rx="14.9" ry="14.9"/>
		<g>
			<g>
				<path class="st5" d="M81,59.4c-7.4-1.8-11.9-9.3-10.1-16.6c1.8-7.4,9.3-11.9,16.6-10.1c7.4,1.8,11.9,9.3,10.1,16.6
					C95.8,56.7,88.4,61.2,81,59.4z M87.4,33.4c-6.9-1.7-14,2.6-15.7,9.5s2.6,14,9.5,15.7s14-2.6,15.7-9.5S94.3,35.1,87.4,33.4z"/>
			</g>
		</g>
		<g>
			<g>
				<g>
					<path class="st6" d="M83.2,39.8l-5.8-1.4c-0.4-0.1-0.7-0.5-0.6-1c0.1-0.4,0.5-0.7,1-0.6l5.8,1.4c0.4,0.1,0.7,0.5,0.6,1
						S83.6,39.9,83.2,39.8z"/>
				</g>
				<g>
					<path class="st6" d="M93.7,42.4l-8.3-2c-0.4-0.1-0.7-0.5-0.6-1c0.1-0.4,0.5-0.7,1-0.6l8.3,2c0.4,0.1,0.7,0.5,0.6,1
						S94.2,42.5,93.7,42.4z"/>
				</g>
				<g>
					<path class="st6" d="M76.6,41.2c-0.4-0.1-0.7-0.5-0.6-0.9s0.5-0.7,1-0.6l6.4,1.3c0.4,0.1,0.7,0.5,0.6,1c-0.1,0.4-0.5,0.7-1,0.6
						L76.6,41.2L76.6,41.2z"/>
				</g>
				<g>
					<path class="st6" d="M77.3,53.2c-0.4-0.1-0.7-0.5-0.6-1l2.7-11.1c0.1-0.4,0.5-0.7,1-0.6c0.4,0.1,0.7,0.5,0.6,1l-2.7,11.1
						C78.2,53,77.7,53.3,77.3,53.2z"/>
				</g>
				<g>
					<path class="st6" d="M74.6,48c-0.2,0-0.3-0.1-0.4-0.2c-0.3-0.3-0.3-0.8,0.1-1.1c1.2-1.1,2-2.8,2-2.8c0.2-0.4,0.7-0.6,1.1-0.4
						c0.4,0.2,0.6,0.7,0.4,1.1c0,0.1-0.9,2.1-2.4,3.4C75.1,48,74.9,48.1,74.6,48z"/>
				</g>
				<g>
					<path class="st6" d="M81.3,49.4c-0.3-0.1-0.6-0.3-0.6-0.7c-0.2-1.2-0.2-3.5-0.2-3.6c0-0.4,0.4-0.8,0.8-0.8s0.8,0.4,0.8,0.8
						c0,0,0,2.3,0.2,3.3c0.1,0.4-0.2,0.9-0.7,0.9C81.5,49.4,81.4,49.4,81.3,49.4z"/>
				</g>
				<g>
					<path class="st6" d="M88.2,46.8c-0.5-0.1-3-0.7-3.6-1.2C84.4,45.4,84,45,84,44.3c0-0.8,0.6-1.8,1.1-2.2
						c0.2-0.1,0.7-0.4,3.5,0.1l2.7,0.7l0,0c0.5,0.1,1.3,0.7,1,2l-0.1,0.2c-0.2,0.9-0.5,2-2,2C89.8,47.1,88.9,46.9,88.2,46.8z
						 M85.6,44.3c0.4,0.2,1.5,0.5,2.9,0.9c1,0.2,1.6,0.3,1.7,0.3s0.1,0,0.1,0c0.1-0.1,0.1-0.5,0.2-0.7l0.1-0.2c0-0.1,0-0.1,0-0.1
						l-2.5-0.6c-0.9-0.2-2-0.3-2.3-0.3C85.8,43.7,85.7,44.1,85.6,44.3z"/>
				</g>
				<g>
					<path class="st6" d="M87.5,54.9l-4.2-1c-0.1,0-0.1,0-0.2-0.1c-0.5-0.2-1.2-1-0.9-2.2l0.9-3.7c0.3-1.1,1.4-1.4,2.1-1.2l4.7,1.2
						c0.1,0,0.2,0.1,0.3,0.1c0.4,0.3,1.1,1.1,0.9,2.1l-1,3.9c0,0.3-0.2,0.6-0.5,0.8C89.1,55.1,88.5,55.1,87.5,54.9z M83.8,52.3
						l4.1,1c0.3,0.1,0.5,0.1,0.6,0.1l0.9-3.8c0-0.1-0.1-0.2-0.2-0.3l-4.5-1.1c0,0-0.1,0-0.2,0L83.6,52
						C83.7,52.1,83.7,52.2,83.8,52.3z"/>
				</g>
				<g>
					<path class="st6" d="M85.7,54.5c-0.4-0.1-0.7-0.5-0.6-1l1.4-5.8c0.1-0.4,0.5-0.7,1-0.6c0.4,0.1,0.7,0.5,0.6,1l-1.4,5.8
						C86.6,54.3,86.1,54.6,85.7,54.5z"/>
				</g>
				<g>
					<path class="st6" d="M89.7,52l-6.4-1.6c-0.4-0.1-0.7-0.5-0.6-1s0.5-0.7,0.9-0.3l6.4,1.6c0.5-0.2,0.8,0.2,0.7,0.7
						C90.6,51.9,90.1,52.1,89.7,52z"/>
				</g>
			</g>
		</g>
	</g>
</g>
<g>
	<path class="st7" d="M47.9,80.4c0.1,0,0.1,0,0.2,0c0.1,0,0.3,0,0.4,0.1c0.2,0.1,0.3,0.3,0.3,0.5v0.1c0,0.2-0.1,0.4-0.2,0.5
		c-0.1,0.2-0.3,0.3-0.5,0.4c-0.3,0.1-0.6,0.2-0.9,0.2c-0.1,0-0.1,0.1-0.1,0.1v3.5c0,0.4,0,0.8-0.1,1s-0.3,0.4-0.5,0.6
		c-0.3,0.2-0.8,0.3-1.4,0.3l0,0c-0.2,0-0.4-0.1-0.6-0.2c-0.2-0.2-0.3-0.4-0.4-0.6c0-0.1,0-0.1,0-0.2s0-0.2,0.1-0.3
		c0.1-0.2,0.3-0.2,0.5-0.2l0,0c0.2,0,0.3,0,0.5,0c0.1,0,0.2,0,0.2-0.1s0.1-0.1,0.1-0.2v-3.1c0,0,0,0,0-0.1s0,0-0.1,0l-0.7,0.2
		c-0.1,0-0.1,0-0.2,0c-0.1,0-0.3,0-0.4-0.1c-0.2-0.1-0.3-0.3-0.4-0.5l0,0c0-0.1,0-0.1,0-0.2c0-0.2,0-0.3,0.1-0.4
		c0.1-0.2,0.3-0.3,0.5-0.4c0.4-0.1,0.8-0.2,1.1-0.3c0.1,0,0.1-0.1,0.1-0.1v-2.5c0-0.1,0-0.1-0.1-0.1h-0.9c-0.2,0-0.4-0.1-0.6-0.2
		s-0.2-0.4-0.2-0.6s0.1-0.4,0.2-0.6s0.4-0.2,0.6-0.2h0.9c0.1,0,0.1,0,0.1-0.1v-1.8c0-0.2,0.1-0.4,0.2-0.6s0.4-0.2,0.6-0.2l0,0
		c0.2,0,0.4,0.1,0.6,0.2s0.3,0.4,0.3,0.6v1.8c0,0.1,0,0.1,0.1,0.1h0.6c0.2,0,0.4,0.1,0.6,0.2s0.2,0.4,0.2,0.6s-0.1,0.4-0.2,0.6
		s-0.4,0.2-0.6,0.2h-0.6c-0.1,0-0.1,0-0.1,0.1v2v0.1c0,0,0,0,0.1,0C47.5,80.4,47.7,80.4,47.9,80.4z M50.2,87.8
		c-0.2,0-0.4-0.1-0.6-0.2s-0.2-0.4-0.2-0.6v-5.1c0-0.2,0.1-0.4,0.3-0.6S50,81,50.2,81h5.6c0.2,0,0.4,0.1,0.6,0.3s0.3,0.4,0.3,0.6V87
		c0,0.2-0.1,0.4-0.3,0.6s-0.4,0.3-0.6,0.3h-0.4c-0.1,0-0.3-0.1-0.4-0.2s-0.2-0.2-0.2-0.4c0,0,0-0.1-0.1-0.1H51c0,0-0.1,0-0.1,0.1
		c0,0.2-0.1,0.3-0.2,0.4S50.5,87.9,50.2,87.8L50.2,87.8L50.2,87.8z M52.2,78.5h2.6c0.3,0,0.5-0.1,0.6-0.2s0.2-0.3,0.3-0.7
		c0-0.2,0.1-0.3,0.3-0.4c0.1,0,0.2-0.1,0.3-0.1s0.2,0,0.2,0l0,0c0.2,0.1,0.4,0.2,0.6,0.4c0.1,0.2,0.2,0.3,0.2,0.5c0,0.1,0,0.1,0,0.2
		c-0.1,0.7-0.4,1.2-0.7,1.4S55.7,80,55,80h-2.9c-1,0-1.7-0.2-2.1-0.5s-0.5-0.9-0.5-1.8v-3.2c0-0.2,0.1-0.4,0.3-0.6s0.4-0.2,0.6-0.2
		h0.1c0.2,0,0.4,0.1,0.6,0.2s0.2,0.4,0.2,0.6v1v0.1c0,0,0,0,0.1,0c1.2-0.3,2.2-0.6,3.1-1c0.2-0.1,0.3-0.1,0.5-0.1c0.1,0,0.2,0,0.3,0
		c0.3,0,0.5,0.2,0.7,0.3l0.1,0.1c0.1,0.1,0.2,0.2,0.2,0.4v0.1c0,0.2-0.2,0.3-0.3,0.4c-1.2,0.4-2.7,0.8-4.4,1.2
		c-0.1,0-0.1,0.1-0.1,0.1v0.5c0,0.3,0.1,0.5,0.2,0.5S51.8,78.5,52.2,78.5z M54.9,82.6C54.9,82.5,54.9,82.5,54.9,82.6l-3.7-0.1
		c-0.1,0-0.1,0-0.1,0.1v0.7c0,0.1,0,0.1,0.1,0.1h3.6c0.1,0,0.1,0,0.1-0.1V82.6z M51.1,85.7C51.1,85.8,51.1,85.8,51.1,85.7l3.7,0.1
		c0.1,0,0.1,0,0.1-0.1v-0.8c0-0.1,0-0.1-0.1-0.1h-3.6c-0.1,0-0.1,0-0.1,0.1V85.7z"/>
	<path class="st7" d="M67.2,83.6C67.1,83.6,67.1,83.6,67.2,83.6l-0.1,2.1c0,0.1,0,0.1,0.1,0.1c0.5,0,1,0.1,1.6,0.1
		c1.5,0,2.6,0,3.4,0l0,0c0.2,0,0.3,0.1,0.4,0.2s0.1,0.2,0.1,0.3c0,0.1,0,0.1,0,0.2s0,0.1-0.1,0.2c-0.1,0.2-0.2,0.4-0.4,0.6
		s-0.4,0.2-0.7,0.2h-2.9c-1.5,0-2.7-0.2-3.7-0.5s-1.8-1-2.4-2c0,0,0,0-0.1,0s0,0-0.1,0c-0.4,0.8-0.8,1.5-1.3,2.1
		c-0.2,0.2-0.4,0.3-0.6,0.3s-0.5-0.1-0.7-0.2l-0.1-0.1c-0.2-0.1-0.3-0.3-0.3-0.6c0-0.2,0.1-0.4,0.2-0.5c0.9-1,1.6-2.5,1.9-4.4
		c0-0.2,0.2-0.4,0.3-0.6C62,81,62.2,81,62.4,81h0.1h0.1c0.2,0,0.4,0.1,0.6,0.3c0.1,0.1,0.2,0.3,0.2,0.5v0.1
		c-0.1,0.3-0.1,0.6-0.2,0.9c0,0.1,0,0.1,0,0.2c0.4,1,1,1.8,1.9,2.2c0,0,0,0,0.1,0s0,0,0-0.1V80c0-0.1,0-0.1-0.1-0.1h-2.2
		c-0.2,0-0.4-0.1-0.6-0.2S62,79.4,62,79.2s0.1-0.4,0.2-0.6s0.4-0.2,0.6-0.2h6.6c0.2,0,0.4,0.1,0.6,0.2s0.2,0.4,0.2,0.6
		s-0.1,0.4-0.2,0.6S69.7,80,69.4,80h-2.3C67,80,67,80,67,80.1v1.7c0,0.1,0,0.1,0.1,0.1h3.2c0.2,0,0.4,0.1,0.6,0.2s0.2,0.4,0.2,0.6
		s-0.1,0.4-0.2,0.6s-0.4,0.2-0.6,0.2h-3.1V83.6z M61.6,77C61.5,77,61.5,77,61.6,77l-0.1,1.2c0,0.2-0.1,0.4-0.3,0.6S60.8,79,60.6,79
		l0,0c-0.2,0-0.4-0.1-0.6-0.2s-0.2-0.4-0.2-0.6v-2c0-0.2,0.1-0.4,0.2-0.6s0.4-0.3,0.6-0.3h4.5c0.1,0,0.1,0,0.1-0.1v-0.5
		c0-0.2,0.1-0.4,0.3-0.6s0.4-0.2,0.6-0.2h0.2c0.2,0,0.4,0.1,0.6,0.2s0.2,0.4,0.2,0.6v0.5c0,0.1,0,0.1,0.1,0.1h4.5
		c0.2,0,0.4,0.1,0.6,0.3s0.2,0.4,0.2,0.6v2c0,0.2-0.1,0.4-0.2,0.6S71.9,79,71.7,79h-0.1c-0.2,0-0.4-0.1-0.6-0.2s-0.3-0.4-0.3-0.6
		v-1.1c0-0.1,0-0.1-0.1-0.1H61.6z"/>
	<path class="st7" d="M88.7,81.1c0.1,0.1,0.2,0.3,0.2,0.5s-0.1,0.4-0.2,0.5s-0.3,0.2-0.5,0.2h-1.9l0,0l0,0c0.6,0.5,1.3,1,2.1,1.3
		c0.2,0.1,0.3,0.2,0.3,0.4v0.1c0,0.1,0,0.3-0.1,0.4c0,0-0.1,0-0.1,0.1c-0.2,0.2-0.4,0.3-0.6,0.4c-0.1,0-0.2,0-0.2,0
		c-0.2,0-0.3,0-0.4-0.1c-0.5-0.3-1-0.7-1.5-1.1l0,0l0,0v0.1c0,0.2-0.1,0.4-0.3,0.6S84.9,85,84.7,85h-1.8c-0.1,0-0.1,0-0.1,0.1v0.8
		c0,0.1,0,0.1,0.1,0.1h4c0.2,0,0.4,0.1,0.5,0.2s0.2,0.3,0.2,0.5s-0.1,0.4-0.2,0.5s-0.3,0.2-0.5,0.2H77c-0.2,0-0.4-0.1-0.5-0.2
		s-0.2-0.3-0.2-0.5s0.1-0.4,0.2-0.5S76.8,86,77,86h3.9c0.1,0,0.1,0,0.1-0.1v-0.8c0-0.1,0-0.1-0.1-0.1h-1.7c-0.2,0-0.4-0.1-0.6-0.2
		s-0.2-0.4-0.2-0.6l0,0l0,0c-0.5,0.4-1,0.8-1.5,1.1c-0.1,0.1-0.3,0.1-0.4,0.1s-0.2,0-0.2,0c-0.2-0.1-0.4-0.2-0.6-0.4l0,0
		c-0.1-0.1-0.1-0.2-0.1-0.4v-0.1c0-0.2,0.2-0.3,0.3-0.4c0.8-0.4,1.5-0.9,2.2-1.5l0,0l0,0H76c-0.2,0-0.4-0.1-0.5-0.2
		s-0.2-0.3-0.2-0.5s0.1-0.4,0.2-0.5s0.3-0.2,0.5-0.2h2c0.1,0,0.1,0,0.1-0.1v-4.2c0-0.1,0-0.1-0.1-0.1h-1.2c-0.2,0-0.4-0.1-0.5-0.2
		s-0.2-0.3-0.2-0.5s0.1-0.4,0.2-0.5s0.3-0.2,0.5-0.2H78c0.1,0,0.1,0,0.1-0.1v-0.1c0-0.2,0.1-0.4,0.3-0.6s0.4-0.2,0.6-0.2h0.1
		c0.2,0,0.4,0.1,0.6,0.2s0.2,0.4,0.2,0.6v0.1c0,0.1,0,0.1,0.1,0.1h4.5c0.1,0,0.1,0,0.1-0.1v-0.1c0-0.2,0.1-0.4,0.2-0.6
		s0.4-0.2,0.6-0.2h0.1c0.2,0,0.4,0.1,0.6,0.2s0.3,0.4,0.3,0.6v0.1c0,0.1,0,0.1,0.1,0.1h1.2c0.2,0,0.4,0.1,0.5,0.2s0.2,0.3,0.2,0.5
		s-0.1,0.4-0.2,0.5s-0.3,0.2-0.5,0.2h-1.2c-0.1,0-0.1,0-0.1,0.1v4.2c0,0.1,0,0.1,0.1,0.1h1.9C88.4,80.9,88.5,80.9,88.7,81.1z
		 M82.8,83.5C82.8,83.6,82.8,83.6,82.8,83.5l2.3,0.1l0,0c0,0,0,0,0-0.1c-0.3-0.3-0.7-0.7-0.9-1.1c0-0.1-0.1-0.1-0.2-0.1h-4
		c-0.1,0-0.1,0-0.2,0.1c-0.2,0.3-0.5,0.7-0.9,1.1l0,0c0,0,0,0,0.1,0h1.9c0.1,0,0.1,0,0.1-0.1c0-0.2,0.1-0.4,0.2-0.6s0.4-0.2,0.6-0.2
		H82c0.2,0,0.4,0.1,0.6,0.2S82.8,83.2,82.8,83.5z M84.3,76.5C84.3,76.4,84.3,76.4,84.3,76.5l-4.6-0.1c-0.1,0-0.1,0-0.1,0.1V77
		c0,0.1,0,0.1,0.1,0.1h4.5c0.1,0,0.1,0,0.1-0.1V76.5z M79.7,78.3C79.6,78.3,79.6,78.3,79.7,78.3l-0.1,0.5c0,0.1,0,0.1,0.1,0.1h4.5
		c0.1,0,0.1,0,0.1-0.1v-0.4c0-0.1,0-0.1-0.1-0.1H79.7z M79.7,80.2C79.6,80.2,79.6,80.2,79.7,80.2l-0.1,0.6c0,0.1,0,0.1,0.1,0.1h4.5
		c0.1,0,0.1,0,0.1-0.1v-0.5c0-0.1,0-0.1-0.1-0.1H79.7z"/>
	<path class="st7" d="M100.2,83.3c0.1-0.2,0.3-0.4,0.5-0.5c0.1-0.1,0.2-0.1,0.4-0.1c0.1,0,0.2,0,0.3,0.1h0.1
		c0.2,0.1,0.3,0.2,0.4,0.4c0,0.1,0,0.1,0,0.2s0,0.2-0.1,0.4l0,0l0,0c-0.2,0.4-0.4,0.7-0.6,0.9c-0.1,0.2-0.3,0.4-0.4,0.6
		c0,0,0,0,0,0.1s0,0,0,0h2.5c0.2,0,0.4,0.1,0.5,0.2s0.2,0.3,0.2,0.5s-0.1,0.4-0.2,0.5s-0.3,0.2-0.5,0.2H92.1c-0.2,0-0.4-0.1-0.5-0.2
		s-0.2-0.3-0.2-0.5s0.1-0.4,0.2-0.5s0.3-0.2,0.5-0.2h2.1h0.1c0,0,0,0,0-0.1c-0.2-0.5-0.4-1.1-0.7-1.6c-0.1-0.1-0.1-0.2-0.1-0.4
		c0-0.1,0-0.2,0-0.2c0.1-0.2,0.2-0.4,0.4-0.5l0.5-0.2l0,0l0,0H93c-0.2,0-0.4-0.1-0.5-0.2s-0.2-0.3-0.2-0.5s0.1-0.4,0.2-0.5
		S92.8,81,93,81h3.7c0.1,0,0.1,0,0.1-0.1v-1.3c0-0.1,0-0.1-0.1-0.1h-2c-0.2,0-0.3-0.1-0.5-0.2S94,79,94,78.8l0,0c0,0,0,0-0.1,0
		c-0.4,0.3-0.9,0.6-1.4,0.9c-0.1,0.1-0.3,0.1-0.4,0.1s-0.1,0-0.2,0c-0.2-0.1-0.4-0.2-0.6-0.4c0,0,0,0-0.1-0.1
		C91,79.2,91,79.1,91,78.9v-0.1c0-0.2,0.1-0.4,0.3-0.5c1-0.5,1.9-1.2,2.8-2c0.8-0.7,1.5-1.5,2.1-2.2c0.4-0.5,0.8-0.7,1.3-0.7h0.1
		c0.6,0,1,0.2,1.4,0.7c0.7,0.8,1.5,1.6,2.4,2.3c0.9,0.7,1.8,1.3,2.7,1.7c0.2,0.1,0.3,0.2,0.4,0.5c0,0,0,0.1,0,0.2s0,0.3-0.1,0.4
		c0,0.1-0.1,0.1-0.1,0.2c-0.1,0.2-0.3,0.3-0.6,0.4c-0.1,0-0.2,0-0.2,0c-0.1,0-0.3,0-0.4-0.1c-0.5-0.3-1-0.6-1.5-0.9c0,0,0,0-0.1,0
		s0,0,0,0c0,0.2-0.1,0.3-0.2,0.5s-0.3,0.2-0.5,0.2h-2.1c-0.1,0-0.1,0-0.1,0.1v1.3c0,0.1,0,0.1,0.1,0.1h3.8c0.2,0,0.4,0.1,0.5,0.2
		s0.2,0.3,0.2,0.5s-0.1,0.4-0.2,0.5s-0.3,0.2-0.5,0.2h-3.8c-0.1,0-0.1,0-0.1,0.1v2.8c0,0.1,0,0.1,0.1,0.1h1.4l0,0l0,0H100
		c-0.2-0.1-0.3-0.2-0.4-0.5c0-0.1,0-0.2,0-0.2c0-0.1,0-0.3,0.1-0.4C99.9,84.1,100.1,83.7,100.2,83.3z M96.6,82.6
		C96.6,82.5,96.6,82.5,96.6,82.6l-2-0.1c0,0,0,0-0.1,0s0,0,0,0.1c0.4,0.6,0.8,1.1,1,1.6c0,0.1,0.1,0.2,0.1,0.4c0,0.1,0,0.2-0.1,0.3
		c-0.1,0.2-0.3,0.4-0.5,0.5l-0.3,0.1l0,0l0,0h1.8c0.1,0,0.1,0,0.1-0.1V82.6z M95,77.9L95,77.9C95,78,95,78,95,77.9l5.2,0.1l0,0l0,0
		c-1.1-0.9-1.9-1.7-2.6-2.6c0-0.1-0.1-0.1-0.1,0C96.9,76.2,96,77.1,95,77.9z"/>
	<path class="st7" d="M37.1,103.6C37,103.6,37,103.6,37.1,103.6l-0.1,2.1c0,0.1,0,0.1,0.1,0.1c0.5,0,1,0.1,1.6,0.1
		c1.5,0,2.6,0,3.4,0l0,0c0.2,0,0.3,0.1,0.4,0.2c0.1,0.1,0.1,0.2,0.1,0.3c0,0.1,0,0.1,0,0.2s0,0.1-0.1,0.2c-0.1,0.2-0.2,0.4-0.4,0.6
		s-0.4,0.2-0.7,0.2h-2.9c-1.5,0-2.7-0.2-3.7-0.5s-1.8-1-2.4-2c0,0,0,0-0.1,0s0,0-0.1,0c-0.4,0.8-0.8,1.5-1.3,2.1
		c-0.2,0.2-0.4,0.3-0.6,0.3s-0.5-0.1-0.7-0.2l-0.1-0.1c-0.2-0.1-0.3-0.3-0.3-0.6c0-0.2,0.1-0.4,0.2-0.5c0.9-1,1.6-2.5,1.9-4.4
		c0-0.2,0.2-0.4,0.3-0.6c0.2-0.1,0.3-0.2,0.5-0.2h0.1h0.1c0.2,0,0.4,0.1,0.6,0.3c0.1,0.1,0.2,0.3,0.2,0.5v0.1
		c-0.1,0.3-0.1,0.6-0.2,0.9c0,0.1,0,0.1,0,0.2c0.4,1,1,1.8,1.9,2.2c0,0,0,0,0.1,0s0,0,0-0.1v-5.1c0-0.1,0-0.1-0.1-0.1h-2.2
		c-0.2,0-0.4-0.1-0.6-0.2s0-0.2,0-0.4s0.1-0.4,0.2-0.6s0.4-0.2,0.6-0.2h6.6c0.2,0,0.4,0.1,0.6,0.2s0.2,0.4,0.2,0.6s-0.1,0.4-0.2,0.6
		s-0.4,0.2-0.6,0.2h-2.3c-0.1,0-0.1,0-0.1,0.1v1.7c0,0.1,0,0.1,0.1,0.1h3.2c0.2,0,0.4,0.1,0.6,0.2s0.2,0.4,0.2,0.6s-0.1,0.4-0.2,0.6
		s-0.4,0.2-0.6,0.2h-3.2V103.6z M31.6,97c-0.1,0-0.1,0-0.1,0.1v1.1c0,0.2-0.1,0.4-0.3,0.6S30.8,99,30.6,99l0,0
		c-0.2,0-0.4-0.1-0.6-0.2s-0.2-0.4-0.2-0.6v-2c0-0.2,0.1-0.4,0.2-0.6s0.4-0.3,0.6-0.3H35c0.1,0,0.1,0,0.1-0.1v-0.5
		c0-0.2,0.1-0.4,0.3-0.6s0.4-0.2,0.6-0.2h0.2c0.2,0,0.4,0.1,0.6,0.2s0.2,0.4,0.2,0.6v0.5c0,0.1,0,0.1,0.1,0.1h4.5
		c0.2,0,0.4,0.1,0.6,0.3s0.2,0.4,0.2,0.6v2c0,0.2-0.1,0.4-0.2,0.6S41.8,99,41.6,99h-0.1c-0.2,0-0.4-0.1-0.6-0.2s-0.3-0.4-0.3-0.6
		v-1.1c0-0.1,0-0.1-0.1-0.1H31.6z"/>
	<path class="st7" d="M51.4,102.7c0.2,0,0.4,0.1,0.6,0.2s0.2,0.3,0.2,0.5s-0.1,0.4-0.2,0.5s-0.3,0.2-0.6,0.2h-5.8
		c-0.2,0-0.4-0.1-0.5-0.2s-0.2-0.3-0.2-0.5s0.1-0.4,0.2-0.5s0.3-0.2,0.5-0.2h0.5c0.1,0,0.1,0,0.1-0.1v-5.3c0-0.1,0-0.1-0.1-0.1h-0.3
		c-0.2,0-0.4-0.1-0.5-0.2S45,96.6,45,96.4s0.1-0.4,0.2-0.5s0.3-0.2,0.5-0.2H46c0.1,0,0.1,0,0.1-0.1v-0.7c0-0.2,0.1-0.4,0.2-0.6
		S46.8,94,47,94s0.4,0.1,0.6,0.2s0.2,0.3,0.2,0.6v0.7c0,0.1,0,0.1,0.1,0.1h1.6c0.1,0,0.1,0,0.1-0.1v-0.7c0-0.2,0.1-0.4,0.2-0.6
		s0.4-0.2,0.6-0.2s0.4,0.1,0.6,0.2s0.2,0.4,0.2,0.6v0.7c0,0.1,0,0.1,0.1,0.1h0.1c0.2,0,0.4,0.1,0.6,0.2s0.2,0.3,0.2,0.5
		s-0.1,0.4-0.2,0.5S51.7,97,51.4,97h-0.1c-0.1,0-0.1,0-0.1,0.1v5.3C51.3,102.7,51.3,102.7,51.4,102.7L51.4,102.7z M46.3,105.1
		c0.1-0.2,0.3-0.4,0.6-0.5c0.1-0.1,0.3-0.1,0.4-0.1c0.1,0,0.2,0,0.3,0l0,0c0.2,0.1,0.4,0.2,0.5,0.4c0,0.1,0.1,0.2,0.1,0.3
		c0,0.1,0,0.2-0.1,0.3c-0.4,0.6-0.8,1.1-1.2,1.6c-0.2,0.2-0.4,0.3-0.6,0.3l0,0c-0.2,0-0.4-0.1-0.6-0.2l0,0c-0.2-0.1-0.3-0.3-0.3-0.6
		c0-0.2,0.1-0.4,0.2-0.5C45.7,105.9,46,105.5,46.3,105.1z M49.7,97.3C49.7,97.2,49.7,97.2,49.7,97.3L48,97.2c-0.1,0-0.1,0-0.1,0.1
		v0.6c0,0.1,0,0.1,0.1,0.1h1.6c0.1,0,0.1,0,0.1-0.1V97.3z M47.9,99.4C47.8,99.4,47.8,99.4,47.9,99.4l-0.1,0.8c0,0.1,0,0.1,0.1,0.1
		h1.6c0.1,0,0.1,0,0.1-0.1v-0.7c0-0.1,0-0.1-0.1-0.1H47.9z M47.9,101.7C47.8,101.7,47.8,101.7,47.9,101.7l-0.1,0.9
		c0,0.1,0,0.1,0.1,0.1h1.6c0.1,0,0.1,0,0.1-0.1v-0.8c0-0.1,0-0.1-0.1-0.1H47.9z M57.5,94.5c0.2,0,0.4,0.1,0.6,0.2s0.2,0.4,0.2,0.6
		v10.5c0,0.4,0,0.8-0.1,1s-0.3,0.4-0.5,0.6c-0.3,0.2-0.8,0.3-1.5,0.3l0,0c-0.2,0-0.4-0.1-0.6-0.2c-0.2-0.2-0.3-0.4-0.4-0.6
		c0,0,0,0,0-0.1s0-0.1,0-0.2s0-0.2,0.1-0.3c0.1-0.2,0.3-0.2,0.5-0.2l0,0c0.1,0,0.2,0,0.3,0s0.2,0,0.2,0s0.1,0,0.2,0
		c0.1,0,0.2,0,0.2-0.1s0.1-0.1,0.1-0.2V103c0-0.1,0-0.1-0.1-0.1h-2.1c-0.1,0-0.1,0-0.1,0.1c-0.2,1.7-0.5,3-0.9,4.1
		c-0.1,0.2-0.2,0.3-0.5,0.4H53c-0.2,0-0.3-0.1-0.5-0.2s-0.4-0.2-0.5-0.3c-0.1,0-0.1-0.1-0.1-0.1s0-0.1,0-0.2l0,0l-0.5,0.3
		c-0.1,0.1-0.3,0.1-0.4,0.1c-0.1,0-0.1,0-0.2,0c-0.2-0.1-0.4-0.2-0.5-0.4c-0.2-0.3-0.4-0.6-0.7-0.9c-0.1-0.1-0.1-0.2-0.1-0.4v-0.1
		c0-0.2,0.1-0.3,0.3-0.4c0.1-0.1,0.3-0.1,0.5-0.1c0.1,0,0.1,0,0.2,0c0.2,0,0.4,0.1,0.6,0.3c0.5,0.5,0.8,1,1.1,1.4c0,0,0,0,0.1,0
		s0,0,0.1,0c0.4-0.8,0.6-1.8,0.7-2.8s0.2-2.2,0.2-3.4v-4.6c0-0.2,0.1-0.4,0.2-0.6s0.4-0.2,0.6-0.2h3.4V94.5z M54.5,101.2
		C54.5,101.3,54.5,101.3,54.5,101.2l2,0.1c0.1,0,0.1,0,0.1-0.1v-1.6c0-0.1,0-0.1-0.1-0.1h-1.9c-0.1,0-0.1,0-0.1,0.1v0.5
		C54.5,100.5,54.5,100.9,54.5,101.2z M56.7,96.2C56.7,96.1,56.7,96.1,56.7,96.2l-2-0.1c-0.1,0-0.1,0-0.1,0.1v1.5
		c0,0.1,0,0.1,0.1,0.1h1.9c0.1,0,0.1,0,0.1-0.1V96.2z"/>
	<path class="st7" d="M64.7,108.3c0,0.1,0.1,0.2,0.1,0.3c0,0.1,0,0.2,0,0.2c-0.1,0.2-0.2,0.3-0.4,0.4c-0.1,0-0.2,0.1-0.3,0.1
		c-0.1,0-0.2,0-0.3,0c-0.2-0.1-0.4-0.2-0.5-0.4c-1.2-2.2-1.9-4.6-1.9-7.1s0.6-4.9,1.9-7.1c0.1-0.2,0.3-0.3,0.5-0.4
		c0.1,0,0.2,0,0.3,0s0.2,0,0.3,0.1c0.2,0.1,0.3,0.2,0.4,0.4c0,0.1,0,0.2,0,0.2c0,0.1,0,0.2-0.1,0.3c-1,2-1.5,4.1-1.5,6.5
		C63.2,104.2,63.7,106.4,64.7,108.3z"/>
	<path class="st7" d="M75,99.5L75,99.5C75.1,99.6,75.1,99.5,75,99.5l0.4-0.3c0.2-0.2,0.4-0.2,0.7-0.2l0,0c0.2,0,0.4,0.1,0.6,0.2
		c1.6,1.2,2.9,2.2,3.7,2.9c0.2,0.2,0.2,0.3,0.2,0.6c0,0.2-0.1,0.4-0.3,0.6l-0.2,0.2c-0.2,0.1-0.4,0.2-0.6,0.2c0,0,0,0-0.1,0
		c-0.2,0-0.4-0.1-0.6-0.3c-0.9-1-2.3-2.1-3.9-3.4l0,0l0,0v6.8c0,0.2-0.1,0.4-0.3,0.6s-0.4,0.3-0.6,0.3h-0.2c-0.2,0-0.4-0.1-0.6-0.3
		s-0.3-0.4-0.3-0.6v-6.3l0,0c0,0,0,0-0.1,0c-1.2,1.3-2.5,2.4-3.9,3.2c-0.1,0.1-0.3,0.1-0.4,0.1s-0.1,0-0.2,0
		c-0.2-0.1-0.4-0.2-0.6-0.4c-0.1-0.1-0.1-0.2-0.2-0.2c-0.1-0.1-0.1-0.3-0.1-0.4c0,0,0-0.1,0-0.2c0-0.2,0.2-0.4,0.3-0.5
		c1.1-0.6,2.2-1.4,3.2-2.4s1.8-2,2.5-3c0,0,0,0,0-0.1s0,0-0.1,0h-5c-0.2,0-0.4-0.1-0.6-0.2s-0.2-0.4-0.2-0.6v-0.1
		c0-0.2,0.1-0.4,0.2-0.6s0.4-0.3,0.6-0.3h11.3c0.2,0,0.4,0.1,0.6,0.3s0.2,0.4,0.2,0.6v0.1c0,0.2-0.1,0.4-0.2,0.6s-0.4,0.2-0.6,0.2
		H76c-0.1,0-0.1,0-0.2,0.1c-0.2,0.4-0.5,0.8-0.7,1.2c0,0.1-0.1,0.1-0.1,0.2C75,98.1,75,99.5,75,99.5z"/>
	<path class="st7" d="M84.8,108.9c-0.1,0.2-0.3,0.3-0.5,0.4c-0.1,0-0.2,0-0.3,0c-0.1,0-0.2,0-0.3-0.1c-0.2-0.1-0.3-0.2-0.4-0.4
		c0-0.1,0-0.2,0-0.2c0-0.1,0-0.2,0.1-0.3c1-2,1.5-4.2,1.5-6.5c0-2.4-0.5-4.5-1.5-6.5c0-0.1-0.1-0.2-0.1-0.3c0-0.1,0-0.2,0-0.2
		c0.1-0.2,0.2-0.3,0.4-0.4c0.1,0,0.2-0.1,0.3-0.1c0.1,0,0.2,0,0.3,0c0.2,0.1,0.4,0.2,0.5,0.4c1.2,2.2,1.9,4.6,1.9,7.1
		S86.1,106.7,84.8,108.9z"/>
	<path class="st7" d="M97.2,103.6C97.1,103.6,97.1,103.6,97.2,103.6l-0.1,2.1c0,0.1,0,0.1,0.1,0.1c0.5,0,1,0.1,1.6,0.1
		c1.5,0,2.6,0,3.4,0l0,0c0.2,0,0.3,0.1,0.4,0.2s0.1,0.2,0.1,0.3c0,0.1,0,0.1,0,0.2s0,0.1-0.1,0.2c-0.1,0.2-0.2,0.4-0.4,0.6
		s-0.4,0.2-0.7,0.2h-2.9c-1.5,0-2.7-0.2-3.7-0.5s-1.8-1-2.4-2c0,0,0,0-0.1,0s0,0-0.1,0c-0.4,0.8-0.8,1.5-1.3,2.1
		c-0.2,0.2-0.4,0.3-0.6,0.3s-0.5-0.1-0.7-0.2l-0.1-0.1c-0.2-0.1-0.3-0.3-0.3-0.6c0-0.2,0.1-0.4,0.2-0.5c0.9-1,1.6-2.5,1.9-4.4
		c0-0.2,0.2-0.4,0.3-0.6c0.2-0.1,0.3-0.2,0.5-0.2h0.1h0.1c0.2,0,0.4,0.1,0.6,0.3c0.1,0.1,0.2,0.3,0.2,0.5v0.1
		c-0.1,0.3-0.1,0.6-0.2,0.9c0,0.1,0,0.1,0,0.2c0.4,1,1,1.8,1.9,2.2c0,0,0,0,0.1,0s0,0,0-0.1v-5.1c0-0.1,0-0.1-0.1-0.1h-2.2
		c-0.2,0-0.4-0.1-0.6-0.2s-0.2-0.4-0.2-0.6s0.1-0.4,0.2-0.6s0.4-0.2,0.6-0.2h6.6c0.2,0,0.4,0.1,0.6,0.2s0.2,0.4,0.2,0.6
		s-0.1,0.4-0.2,0.6s-0.4,0.2-0.6,0.2H97c-0.1,0-0.1,0-0.1,0.1v1.7c0,0.1,0,0.1,0.1,0.1h3.2c0.2,0,0.4,0.1,0.6,0.2s0.2,0.4,0.2,0.6
		s-0.1,0.4-0.2,0.6s-0.4,0.2-0.6,0.2h-3V103.6z M91.7,97C91.6,97,91.6,97,91.7,97l-0.1,1.2c0,0.2-0.1,0.4-0.3,0.6S90.9,99,90.7,99
		l0,0c-0.2,0-0.4-0.1-0.6-0.2s-0.2-0.4-0.2-0.6v-2c0-0.2,0.1-0.4,0.2-0.6s0.4-0.3,0.6-0.3h4.5c0.1,0,0.1,0,0.1-0.1v-0.5
		c0-0.2,0.1-0.4,0.3-0.6s0.4-0.2,0.6-0.2h0.2c0.2,0,0.4,0.1,0.6,0.2s0.2,0.4,0.2,0.6v0.5c0,0.1,0,0.1,0.1,0.1h4.5
		c0.2,0,0.4,0.1,0.6,0.3s0.2,0.4,0.2,0.6v2c0,0.2-0.1,0.4-0.2,0.6S102,99,101.8,99h-0.1c-0.2,0-0.4-0.1-0.6-0.2s-0.3-0.4-0.3-0.6
		v-1.1c0-0.1,0-0.1-0.1-0.1H91.7z"/>
	<path class="st7" d="M106.7,96.5C106.6,96.5,106.6,96.5,106.7,96.5l-0.1,0.3c0,0.2-0.1,0.4-0.2,0.5s-0.3,0.2-0.5,0.2
		s-0.4-0.1-0.5-0.2s-0.2-0.3-0.2-0.5V96c0-0.2,0.1-0.4,0.3-0.6s0.4-0.2,0.6-0.2h1.4c0.1,0,0.1,0,0.1-0.1v-0.3c0-0.2,0.1-0.4,0.2-0.6
		s0.4-0.2,0.6-0.2s0.4,0.1,0.6,0.2s0.2,0.4,0.2,0.6V95c0,0.1,0,0.1,0.1,0.1h1.5c0.2,0,0.4,0.1,0.6,0.2s0.3,0.4,0.3,0.6v0.8
		c0,0.2-0.1,0.4-0.2,0.5s-0.3,0.2-0.5,0.2s-0.4-0.1-0.5-0.2s-0.2-0.3-0.2-0.5v-0.2c0-0.1,0-0.1-0.1-0.1L106.7,96.5L106.7,96.5z
		 M110.8,103.5v3c0,0,0,0,0,0.1s0,0,0.1,0c0.6-0.3,1.3-0.6,1.8-1.1c0.2-0.2,0.4-0.2,0.7-0.3h0.1c0.2,0,0.4,0.1,0.6,0.2
		s0.3,0.3,0.3,0.6c0,0.2-0.1,0.3-0.2,0.4c-0.5,0.4-1.1,0.8-1.8,1.1c-0.2,0.1-0.3,0.1-0.5,0.1c-0.1,0-0.2,0-0.2,0
		c-0.3-0.1-0.5-0.2-0.7-0.4c0,0-0.1-0.1-0.2-0.1s-0.1-0.1-0.2-0.1h-3.2c0,0-0.1,0-0.1,0.1s-0.1,0.3-0.2,0.4s-0.2,0.2-0.4,0.2h-0.2
		c-0.2,0-0.4-0.1-0.5-0.2s-0.2-0.3-0.2-0.5v-3.1l0,0c-0.1,0-0.2,0-0.2,0s-0.1-0.1-0.2-0.2s-0.2-0.3-0.2-0.4
		c-0.1-0.1-0.1-0.2-0.1-0.4c0,0,0-0.1,0-0.2c0-0.2,0.2-0.3,0.3-0.4c0.7-0.3,1.4-0.7,1.9-1.2c0.1,0,0.1-0.1,0-0.1l-0.8-0.6
		c-0.1,0-0.1,0-0.2,0c-0.1,0.1-0.3,0.2-0.5,0.2c0,0,0,0-0.1,0c-0.2,0-0.4-0.1-0.5-0.2l0,0c-0.1-0.1-0.2-0.3-0.2-0.4
		c0-0.2,0.1-0.4,0.2-0.5c0.7-0.6,1.3-1.2,1.8-2c0.1-0.2,0.3-0.3,0.5-0.4c0.1-0.1,0.3-0.1,0.4-0.1s0.1,0,0.2,0h0.1
		c0.2,0,0.3,0.2,0.4,0.3c0,0.1,0,0.2,0,0.2s0,0.2-0.1,0.2l0,0l0,0h1.3c0,0,0,0,0.1,0s0.1,0,0.2,0s0.2,0,0.3,0.1l0.3,0.1
		c0.1,0.1,0.2,0.2,0.3,0.3s0.1,0.3,0,0.4c-0.3,0.7-0.7,1.4-1.2,2.1c0,0.1,0,0.1,0,0.1c0.5,0.3,0.9,0.6,1.3,0.9
		c0.2,0.1,0.3,0.3,0.3,0.5v0.1c0,0.2-0.1,0.4-0.2,0.5L110.8,103.5L110.8,103.5z M109.2,105.6C109.3,105.6,109.3,105.6,109.2,105.6
		l0.1-1.3c0-0.1,0-0.1-0.1-0.1h-1.6c-0.1,0-0.1,0-0.1,0.1v1.2c0,0.1,0,0.1,0.1,0.1H109.2z M109.2,98.9
		C109.3,98.9,109.3,98.9,109.2,98.9C109.2,98.9,109.2,98.8,109.2,98.9l-1.3-0.1c-0.1,0-0.1,0-0.2,0.1c0,0,0,0.1-0.1,0.1
		s-0.1,0.1-0.1,0.1c0,0.1,0,0.1,0,0.1l0.8,0.6c0.1,0,0.1,0,0.2,0C108.8,99.6,109,99.3,109.2,98.9z M107.6,102.8L107.6,102.8
		L107.6,102.8l2.3,0.1l0,0c0,0,0,0,0-0.1c-0.1-0.1-0.2-0.2-0.3-0.2s-0.3-0.2-0.4-0.3s-0.3-0.2-0.4-0.3c-0.1,0-0.1,0-0.2,0
		C108.3,102.2,108,102.5,107.6,102.8z M112.1,97.8c0-0.2,0.1-0.4,0.3-0.6s0.4-0.2,0.6-0.2h0.9c0.1,0,0.1,0,0.1-0.1s0-0.2,0.1-0.4
		s0.1-0.3,0.1-0.4s0-0.1-0.1-0.1h-1.7c-0.2,0-0.4-0.1-0.5-0.2s-0.2-0.3-0.2-0.5s0.1-0.4,0.2-0.5s0.3-0.2,0.5-0.2h5.5
		c0.2,0,0.4,0.1,0.5,0.2s0.2,0.3,0.2,0.5s-0.1,0.4-0.2,0.5s-0.3,0.2-0.5,0.2h-1.7c-0.1,0-0.1,0-0.1,0.1c-0.1,0.3-0.2,0.6-0.3,0.8
		c0,0,0,0,0,0.1s0,0,0.1,0h1.7c0.2,0,0.4,0.1,0.6,0.2s0.2,0.4,0.2,0.6v6.2c0,0.2-0.1,0.4-0.2,0.6s-0.4,0.2-0.6,0.2H113
		c-0.2,0-0.4-0.1-0.6-0.2s-0.3-0.4-0.3-0.6V97.8z M116.6,99.2C116.7,99.2,116.7,99.2,116.6,99.2l0.1-0.8c0-0.1,0-0.1-0.1-0.1h-2.8
		c-0.1,0-0.1,0-0.1,0.1v0.7c0,0.1,0,0.1,0.1,0.1H116.6z M116.6,101.3C116.7,101.3,116.7,101.3,116.6,101.3l0.1-0.8
		c0-0.1,0-0.1-0.1-0.1h-2.8c-0.1,0-0.1,0-0.1,0.1v0.7c0,0.1,0,0.1,0.1,0.1H116.6z M116.6,103.5C116.7,103.5,116.7,103.5,116.6,103.5
		l0.1-0.8c0-0.1,0-0.1-0.1-0.1h-2.8c-0.1,0-0.1,0-0.1,0.1v0.7c0,0.1,0,0.1,0.1,0.1H116.6z M116.1,106.3c-0.1-0.1-0.2-0.3-0.2-0.4
		c0-0.2,0.1-0.3,0.2-0.5c0.2-0.1,0.4-0.2,0.6-0.2l0,0c0.2,0,0.4,0.1,0.6,0.2c0.5,0.3,0.9,0.7,1.2,0.9c0.1,0.1,0.2,0.3,0.2,0.5
		s-0.1,0.4-0.3,0.6c-0.2,0.1-0.3,0.2-0.5,0.2h-0.1c-0.2,0-0.4-0.1-0.6-0.3C116.9,106.9,116.5,106.6,116.1,106.3z"/>
	<path class="st3" d="M30.3,127.5c-0.9,1.2-2,1.8-3.5,1.8s-2.6-0.6-3.5-1.8s-1.3-2.9-1.3-5.2s0.4-4,1.3-5.1s2-1.7,3.5-1.7
		s2.6,0.6,3.5,1.8s1.3,2.9,1.3,5.1C31.6,124.6,31.2,126.3,30.3,127.5z M26.2,126.7c0.2,0.1,0.4,0.2,0.7,0.2s0.5-0.1,0.7-0.2
		s0.4-0.4,0.5-0.7s0.3-0.8,0.4-1.4s0.1-1.4,0.1-2.2c0-0.9,0-1.6-0.1-2.2s-0.2-1.1-0.4-1.4s-0.4-0.5-0.5-0.6s-0.4-0.2-0.7-0.2
		s-0.5,0.1-0.7,0.2s-0.4,0.3-0.5,0.6s-0.3,0.8-0.4,1.4s-0.1,1.3-0.1,2.2c0,0.9,0,1.6,0.1,2.2s0.2,1.1,0.4,1.4S26,126.5,26.2,126.7z"
		/>
	<path class="st3" d="M49.6,122.6c0.3,0,0.5,0.1,0.7,0.3s0.3,0.4,0.3,0.7v0.5c0,0.3-0.1,0.5-0.3,0.7s-0.4,0.3-0.7,0.3h-5.8
		c-0.1,0-0.1,0-0.1,0.1v2.2c0,0.7-0.1,1.3-0.3,1.7s-0.5,0.7-1,0.9c-0.6,0.3-1.6,0.4-3.1,0.4l0,0c-0.3,0-0.5-0.1-0.8-0.3
		c-0.2-0.2-0.4-0.4-0.5-0.7c-0.1-0.2-0.2-0.5-0.3-0.7c0-0.1-0.1-0.2-0.1-0.3s0-0.2,0.1-0.3c0.1-0.2,0.3-0.3,0.5-0.3l0,0
		c0.6,0,1.4,0,2.2,0c0.4,0,0.6-0.2,0.6-0.5v-2.1c0-0.1,0-0.1-0.1-0.1h-5.8c-0.3,0-0.5-0.1-0.7-0.3s-0.3-0.4-0.3-0.7v-0.5
		c0-0.3,0.1-0.5,0.3-0.7s0.4-0.3,0.7-0.3h5.8c0.1,0,0.1,0,0.1-0.1V121c0-0.1,0-0.1-0.1-0.1h-4.6c-0.3,0-0.5-0.1-0.7-0.3
		s-0.3-0.4-0.3-0.7v-0.4c0-0.3,0.1-0.5,0.3-0.7s0.4-0.3,0.7-0.3h4.6c0.1,0,0.1,0,0.1-0.1v-1.5c0-0.1,0-0.1-0.1-0.1
		c-1.3,0.1-2.7,0.2-4.2,0.2c0,0,0,0-0.1,0c-0.3,0-0.5-0.1-0.7-0.3c-0.2-0.2-0.4-0.4-0.5-0.7c0-0.1-0.1-0.2-0.1-0.3
		c0-0.1-0.1-0.2-0.1-0.2c0-0.2,0-0.3,0.1-0.4c0.1-0.2,0.3-0.3,0.6-0.3c4.1-0.2,7.5-0.6,10.2-1.1c0.1,0,0.3,0,0.4,0
		c0.2,0,0.4,0,0.5,0.1c0.3,0.1,0.6,0.3,0.8,0.5l0.5,0.6c0.1,0.1,0.2,0.3,0.2,0.4s0,0.1,0,0.2c-0.1,0.2-0.2,0.4-0.4,0.4
		c-1.3,0.3-2.8,0.5-4.3,0.7c-0.1,0-0.1,0.1-0.1,0.2v1.7c0,0.1,0,0.1,0.1,0.1h4.7c0.3,0,0.5,0.1,0.7,0.3s0.3,0.4,0.3,0.7v0.4
		c0,0.3-0.1,0.5-0.3,0.7s-0.4,0.3-0.7,0.3h-4.7c-0.1,0-0.1,0-0.1,0.1v1.4c0,0.1,0,0.1,0.1,0.1L49.6,122.6L49.6,122.6z"/>
	<path class="st3" d="M59.2,126.3c0,0.1,0,0.2,0,0.3c0,0.2,0,0.3-0.1,0.5s-0.3,0.4-0.6,0.5c-0.1,0-0.2,0.1-0.3,0.1s-0.3,0-0.4-0.1
		c-0.2-0.1-0.3-0.3-0.4-0.5c-0.1-0.4-0.2-0.8-0.3-1.2l0,0l0,0v4c0,0.3-0.1,0.5-0.3,0.7s-0.4,0.3-0.7,0.3H56c-0.3,0-0.5-0.1-0.7-0.3
		s-0.3-0.4-0.3-0.7V126l0,0c-0.1,1-0.3,1.9-0.5,2.6c-0.1,0.3-0.2,0.4-0.5,0.5c-0.1,0-0.2,0.1-0.3,0.1s-0.3,0-0.4-0.1
		c-0.2-0.1-0.4-0.3-0.5-0.6c-0.1-0.2-0.1-0.3-0.1-0.5c0-0.1,0-0.2,0.1-0.3c0.2-0.6,0.3-1.3,0.4-2.2c0-0.3,0.2-0.5,0.4-0.7
		c0.2-0.1,0.4-0.2,0.6-0.2c0,0,0.1,0,0.2,0l0.7,0.1c0.1,0,0.1,0,0.1-0.1v-0.8c0-0.1,0-0.1-0.1-0.1l-1,0.1H54c-0.3,0-0.5-0.1-0.7-0.2
		c-0.2-0.2-0.4-0.4-0.4-0.7v-0.1v-0.1c0-0.2,0.1-0.4,0.2-0.6c0.2-0.2,0.4-0.3,0.7-0.4c0,0,0,0,0.1,0s0.1,0,0.2-0.1
		c0.2-0.3,0.4-0.5,0.5-0.8c0-0.1,0-0.1,0-0.2c-0.3-0.4-0.7-1-1.2-1.6c-0.2-0.2-0.3-0.5-0.3-0.9c0-0.3,0.1-0.5,0.2-0.7l0.5-0.7
		c0-0.1,0.1-0.1,0.2-0.1s0.2,0,0.2,0.1l0,0c0.3-0.6,0.6-1.3,0.8-1.9c0.1-0.3,0.3-0.5,0.5-0.6s0.3-0.1,0.5-0.1c0.1,0,0.2,0,0.3,0.1
		l0.3,0.1c0.3,0.1,0.4,0.2,0.5,0.5c0,0.1,0.1,0.2,0.1,0.3c0,0.1,0,0.3-0.1,0.4c-0.6,1.2-1.1,2-1.5,2.6c0,0.1,0,0.1,0,0.2
		c0,0,0,0,0.1,0.1s0.1,0.1,0.1,0.1s0,0,0.1,0s0,0,0.1-0.1c0.3-0.5,0.6-1.1,0.8-1.5c0.1-0.3,0.3-0.4,0.6-0.5c0.1-0.1,0.3-0.1,0.4-0.1
		c0.1,0,0.3,0,0.4,0.1l0.2,0.1c0.2,0.1,0.4,0.3,0.5,0.5c0,0.1,0.1,0.2,0.1,0.3c0,0.2,0,0.3-0.1,0.5c-0.5,0.7-0.9,1.5-1.4,2.2l0,0
		c0,0,0,0,0.1,0h0.1c0.1,0,0.3-0.1,0.4-0.1c0.2,0,0.3,0,0.4,0.1c0.3,0.1,0.5,0.3,0.6,0.6c0.3,0.7,0.5,1.4,0.7,2.1c0,0.1,0,0.2,0,0.2
		c0,0.2-0.1,0.4-0.2,0.5c-0.1,0.2-0.3,0.4-0.6,0.5l-0.3,0.1c-0.2,0-0.3,0-0.4-0.1s-0.2-0.2-0.3-0.4c0,0,0-0.1-0.1-0.1h-0.2
		c-0.1,0-0.1,0.1-0.1,0.1v1v0.1h0.1l0.3-0.1c0.1,0,0.2,0,0.3,0c0.2,0,0.3,0,0.5,0.1c0.3,0.1,0.4,0.3,0.5,0.6
		C59,125.7,59.1,126,59.2,126.3z M56,121.4C56,121.5,56,121.5,56,121.4C56,121.5,56,121.5,56,121.4h0.9c0.1,0,0.1,0,0.1-0.1
		s-0.1-0.2-0.1-0.4s-0.1-0.3-0.1-0.4c0,0,0-0.1-0.1-0.1s0,0-0.1,0C56.3,121.1,56.1,121.3,56,121.4z M68.6,127.2
		c0,0.3-0.1,0.5-0.3,0.7s-0.4,0.3-0.7,0.3h-0.1l0,0l0,0c0.8,0.4,1.3,0.6,1.5,0.7c0.2,0.1,0.3,0.3,0.3,0.5s-0.1,0.4-0.3,0.5l-0.4,0.2
		c-0.3,0.2-0.6,0.2-0.9,0.2l0,0c-0.3,0-0.6-0.1-0.9-0.2c-0.5-0.3-0.9-0.5-1.4-0.8c-0.2-0.1-0.4-0.3-0.4-0.6c0-0.2,0.1-0.4,0.2-0.5
		l0,0c0,0,0,0,0-0.1s0,0,0,0h-2.4l0,0l0,0l0.1,0.1c0.2,0.1,0.3,0.3,0.3,0.5c0,0.3-0.1,0.5-0.3,0.6c-0.7,0.4-1.5,0.7-2.2,0.9
		c-0.2,0.1-0.3,0.1-0.5,0.1c-0.1,0-0.3,0-0.4-0.1c-0.3-0.1-0.6-0.2-0.8-0.4c0,0,0,0-0.1-0.1s-0.2-0.3-0.2-0.4v-0.1
		c0-0.2,0.2-0.4,0.4-0.4c0.6-0.2,1.2-0.5,1.7-0.7l0,0l0,0c-0.2,0-0.5-0.1-0.6-0.3s-0.3-0.4-0.3-0.6v-3.7c0-0.3,0.1-0.5,0.3-0.7
		s0.4-0.3,0.7-0.3h6.6c0.3,0,0.5,0.1,0.7,0.3s0.3,0.4,0.3,0.7v3.7H68.6z M62.7,116.5C62.8,116.5,62.8,116.5,62.7,116.5l0.1-0.3
		c0-0.1,0-0.1-0.1-0.1h-3c-0.2,0-0.4-0.1-0.5-0.2s-0.2-0.3-0.2-0.5s0.1-0.4,0.2-0.5s0.3-0.2,0.5-0.2h3c0.1,0,0.1,0,0.1-0.1
		c0-0.2,0.1-0.4,0.2-0.5s0.3-0.2,0.5-0.2h1c0.2,0,0.4,0.1,0.5,0.2s0.2,0.3,0.2,0.5c0,0.1,0,0.1,0.1,0.1h3.2c0.2,0,0.4,0.1,0.5,0.2
		s0.2,0.3,0.2,0.5s-0.1,0.4-0.2,0.5s-0.3,0.2-0.5,0.2h-3.2c-0.1,0-0.1,0-0.1,0.1v0.2c0,0.1,0,0.1,0.1,0.1H68c0.2,0,0.4,0.1,0.5,0.2
		s0.2,0.3,0.2,0.5s-0.1,0.4-0.2,0.5S68.2,118,68,118h-7.4c-0.2,0-0.4-0.1-0.5-0.2s-0.2-0.3-0.2-0.5s0.1-0.4,0.2-0.5s0.3-0.2,0.5-0.2
		h2.1V116.5z M60.3,122.2c-0.3,0-0.5-0.1-0.7-0.3s-0.3-0.4-0.3-0.7v-1.8c0-0.3,0.1-0.5,0.3-0.7s0.4-0.3,0.7-0.3h7.9
		c0.3,0,0.5,0.1,0.7,0.3s0.3,0.4,0.3,0.7v1.8c0,0.3-0.1,0.5-0.3,0.7s-0.4,0.3-0.7,0.3H60.3z M62.3,119.7L62.3,119.7
		C62.3,119.6,62.3,119.6,62.3,119.7l-1-0.1c-0.1,0-0.1,0-0.1,0.1v0.3c0,0.1,0,0.1,0.1,0.1C61.8,120,62.1,119.9,62.3,119.7z
		 M61.3,120.3L61.3,120.3C61.2,120.3,61.2,120.3,61.3,120.3l-0.1,0.6c0,0.1,0,0.1,0.1,0.1h0.4c0,0,0,0,0.1,0s0,0,0-0.1
		C61.7,120.7,61.5,120.5,61.3,120.3z M62.3,123.8C62.2,123.8,62.2,123.8,62.3,123.8l-0.1,0.3c0,0.1,0,0.1,0.1,0.1H66
		c0.1,0,0.1,0,0.1-0.1v-0.2c0-0.1,0-0.1-0.1-0.1H62.3z M62.3,125.2C62.2,125.2,62.2,125.2,62.3,125.2l-0.1,0.3c0,0.1,0,0.1,0.1,0.1
		H66c0.1,0,0.1,0,0.1-0.1v-0.2c0-0.1,0-0.1-0.1-0.1H62.3z M62.3,126.7C62.2,126.7,62.2,126.7,62.3,126.7l-0.1,0.3
		c0,0.1,0,0.1,0.1,0.1H66c0.1,0,0.1,0,0.1-0.1v-0.2c0-0.1,0-0.1-0.1-0.1H62.3z M62.2,121L62.2,121L62.2,121H67c0.1,0,0.1,0,0.1-0.1
		l0,0c0-0.1,0-0.1-0.1-0.1h-0.8c-0.6,0-1.1-0.1-1.3-0.2s-0.4-0.4-0.4-0.8c0-0.1-0.1-0.1-0.1-0.1h-0.3c-0.1,0-0.1,0-0.2,0.1
		c-0.1,0.3-0.3,0.6-0.6,0.8S62.7,120.9,62.2,121z M67,119.9C67.1,119.9,67.1,119.9,67,119.9L67,119.9c0.1-0.2,0.1-0.2,0-0.2h-0.7
		c-0.1,0-0.1,0-0.1,0.1s0.1,0.2,0.2,0.2L67,119.9L67,119.9z"/>
	<path class="st3" d="M86.3,127c0,0.3-0.1,0.5-0.3,0.7s-0.4,0.3-0.7,0.3h-0.9l0,0l0,0c1.1,0.4,2.2,0.8,3.1,1.2
		c0.2,0.1,0.3,0.2,0.3,0.4s-0.1,0.3-0.3,0.4l-1,0.4c-0.3,0.1-0.6,0.2-0.8,0.2c-0.4,0-0.7-0.1-1-0.3c-0.8-0.4-1.7-0.8-2.7-1.2
		c-0.2-0.1-0.3-0.2-0.3-0.4s0.1-0.4,0.2-0.5l0.4-0.2l0,0l0,0h-4l0,0l0,0l0.3,0.1c0.2,0.1,0.3,0.3,0.3,0.5s-0.1,0.3-0.3,0.4
		c-1.1,0.5-2.3,1-3.8,1.5c-0.1,0-0.3,0.1-0.4,0.1c-0.2,0-0.3,0-0.5-0.1c-0.3-0.1-0.6-0.2-0.8-0.5c-0.1-0.2-0.3-0.3-0.4-0.4
		c-0.2-0.1-0.2-0.3-0.1-0.5s0.2-0.3,0.4-0.4c1.1-0.2,2.2-0.5,3.1-0.8l0,0l0,0h-0.7c-0.3,0-0.5-0.1-0.7-0.3S74,127.3,74,127v-4
		c0-0.1,0-0.1-0.1-0.1l0,0c-0.1,0-0.2,0-0.2,0c-0.2,0-0.4-0.1-0.6-0.2c-0.3-0.1-0.5-0.4-0.7-0.6c0-0.1-0.1-0.2-0.2-0.2
		c-0.1-0.1-0.1-0.2-0.1-0.3c0-0.1,0-0.2,0.1-0.3c0.1-0.2,0.2-0.3,0.5-0.4c1.4-0.2,2.4-0.5,3.1-0.9l0,0l0,0h-0.9l0,0
		c0,0.1-0.1,0.1-0.2,0.1l-1.2-0.1c-0.3,0-0.5-0.1-0.6-0.3c-0.1-0.1-0.1-0.3-0.1-0.4s0-0.2,0.1-0.3c0.2-0.5,0.4-1,0.5-1.5
		c0.1-0.3,0.2-0.5,0.5-0.7s0.5-0.3,0.8-0.3h2.2c0.1,0,0.1,0,0.1-0.1V116c0-0.1,0-0.1-0.1-0.1h-3.1c-0.2,0-0.4-0.1-0.5-0.2
		s-0.2-0.3-0.2-0.5s0.1-0.4,0.2-0.5s0.3-0.2,0.5-0.2h3.1c0.1,0,0.1,0,0.1-0.1c0-0.2,0.1-0.3,0.2-0.4s0.3-0.2,0.4-0.2h1.1
		c0.2,0,0.3,0.1,0.4,0.2s0.2,0.3,0.2,0.4c0,0,0,0.1,0.1,0.1h1.4c0,0,0.1,0,0.1-0.1c0-0.2,0.1-0.3,0.2-0.4s0.3-0.2,0.4-0.2h1.2
		c0.2,0,0.3,0.1,0.4,0.2s0.2,0.3,0.2,0.4c0,0,0,0.1,0.1,0.1H86c0.3,0,0.5,0.1,0.7,0.3s0.3,0.4,0.3,0.7v1.4c0,0.3-0.1,0.5-0.3,0.7
		s-0.4,0.3-0.7,0.3h-2.5c-0.1,0-0.1,0-0.1,0.1v0.3c0,0.1,0,0.1,0.1,0.1h3.7c0.3,0,0.5,0.1,0.7,0.3c0.2,0.2,0.3,0.4,0.3,0.7
		c0,0.9-0.2,1.6-0.5,2c-0.3,0.3-0.6,0.4-1.1,0.5h-0.1c-0.1,0-0.1,0-0.1,0.1L86.3,127L86.3,127z M75.6,117.9c-0.1,0-0.1,0-0.2,0.1
		l-0.1,0.3c0,0,0,0,0,0.1s0,0,0.1,0h1.2c0.1,0,0.1,0,0.2-0.1c0-0.1,0-0.2,0-0.3c0-0.1,0-0.1-0.1-0.1H75.6z M83.6,122.6
		C83.6,122.5,83.6,122.5,83.6,122.6l-6.9-0.1c-0.1,0-0.1,0-0.1,0.1v0.2c0,0.1,0,0.1,0.1,0.1h6.8c0.1,0,0.1,0,0.1-0.1V122.6z
		 M83.6,124.4C83.6,124.3,83.6,124.3,83.6,124.4l-6.9-0.1c-0.1,0-0.1,0-0.1,0.1v0.2c0,0.1,0,0.1,0.1,0.1h6.8c0.1,0,0.1,0,0.1-0.1
		V124.4z M83.6,126.2C83.6,126.1,83.6,126.1,83.6,126.2l-6.9-0.1c-0.1,0-0.1,0-0.1,0.1v0.3c0,0.1,0,0.1,0.1,0.1h6.8
		c0.1,0,0.1,0,0.1-0.1V126.2z M80.8,120C80.8,119.9,80.8,119.9,80.8,120l-1.8-0.1c-0.1,0-0.1,0-0.2,0.1c-0.1,0.3-0.3,0.6-0.5,0.9
		c0,0,0,0,0,0.1s0,0,0.1,0h2.4c0.1,0,0.1,0,0.1-0.1L80.8,120L80.8,120z M80.7,118.4C80.8,118.4,80.8,118.4,80.7,118.4l0.1-0.4
		c0-0.1,0-0.1-0.1-0.1h-1.3c-0.1,0-0.1,0-0.1,0.1v0.1v0.1c0,0.1,0,0.1,0.1,0.1h1.3V118.4z M79.3,115.9
		C79.2,115.9,79.2,115.9,79.3,115.9l-0.1,0.4c0,0.1,0,0.1,0.1,0.1h1.3c0.1,0,0.1,0,0.1-0.1V116c0-0.1,0-0.1-0.1-0.1H79.3z M84.6,116
		C84.6,115.9,84.6,115.9,84.6,116l-1.2-0.1c-0.1,0-0.1,0-0.1,0.1v0.3c0,0.1,0,0.1,0.1,0.1h1.1c0.1,0,0.1,0,0.1-0.1V116z M85.6,120
		L85.6,120C85.6,119.9,85.5,119.9,85.6,120l-2.2-0.1c-0.1,0-0.1,0-0.1,0.1v0.8c0,0.1,0,0.1,0.1,0.1h1.1c0,0,0.1,0,0.1-0.1
		s0-0.2,0.1-0.4s0.2-0.2,0.3-0.1c0.1,0,0.2,0,0.2,0c0.1,0,0.2,0,0.3,0c0.1,0,0.1-0.1,0.1-0.2C85.6,120.1,85.6,120.1,85.6,120z"/>
	<path class="st3" d="M93.2,114.7c0.1-0.3,0.3-0.5,0.5-0.6s0.3-0.1,0.5-0.1c0.1,0,0.2,0,0.3,0l0.4,0.1c0.3,0.1,0.5,0.2,0.6,0.5
		c0.1,0.1,0.1,0.3,0.1,0.4s0,0.2-0.1,0.3c-0.3,0.8-0.6,1.6-1,2.4c0,0.1-0.1,0.2-0.1,0.3v11.7c0,0.3-0.1,0.5-0.3,0.7
		s-0.4,0.3-0.7,0.3H93c-0.3,0-0.5-0.1-0.7-0.3S92,130,92,129.7v-7.2l0,0c0,0,0,0-0.1,0c0,0,0,0,0,0.1c-0.1,0.2-0.2,0.2-0.4,0.2h-0.1
		c-0.2,0-0.4-0.2-0.5-0.4c-0.1-0.3-0.3-0.7-0.4-1c-0.1-0.2-0.2-0.5-0.2-0.7c0-0.1,0-0.1,0-0.2c0-0.3,0.1-0.6,0.3-0.8
		C91.7,118.2,92.5,116.6,93.2,114.7z M104.4,125.7c0.1,0,0.1,0,0.2,0c0.2,0,0.3,0,0.5,0.1l0.4,0.2c0.2,0.1,0.3,0.3,0.4,0.5
		c0,0.1,0,0.1,0,0.2c0,0.2-0.1,0.3-0.2,0.5c-0.4,0.4-0.9,0.9-1.5,1.3c0,0,0,0,0,0.1s0,0,0,0c0.7,0.1,1.4,0.2,2.3,0.2
		c0.2,0,0.4,0.1,0.4,0.3c0,0.1,0.1,0.2,0.1,0.2c0,0.1,0,0.2-0.1,0.3s-0.1,0.2-0.2,0.3c-0.2,0.3-0.4,0.5-0.7,0.6
		c-0.2,0.1-0.5,0.2-0.7,0.2c-0.1,0-0.1,0-0.2,0c-1.5-0.2-2.8-0.5-3.9-0.9c-0.1,0-0.2,0-0.2,0c-1.1,0.4-2.3,0.7-3.8,0.9
		c-0.1,0-0.1,0-0.2,0c-0.2,0-0.4-0.1-0.6-0.2c-0.3-0.1-0.5-0.3-0.7-0.6c0,0,0-0.1-0.1-0.1c-0.1-0.1-0.1-0.2-0.1-0.3s0-0.2,0.1-0.3
		c0.1-0.2,0.3-0.3,0.5-0.3c0.9-0.1,1.7-0.2,2.4-0.4c0,0,0,0,0-0.1s0,0,0-0.1c-0.3-0.2-0.5-0.4-0.7-0.5c-0.1-0.1-0.1-0.1-0.2,0
		c-0.1,0-0.2,0.1-0.3,0.1c-0.2,0.1-0.3,0.1-0.5,0.1c-0.1,0-0.3,0-0.4-0.1c-0.3-0.1-0.5-0.3-0.7-0.5l0,0c-0.1-0.1-0.2-0.3-0.2-0.4
		c0,0,0-0.1,0-0.2c0.1-0.2,0.2-0.4,0.4-0.4c1.3-0.4,2.3-0.9,3.1-1.5c0.1,0,0.1-0.1,0-0.2c-0.2-0.1-0.3-0.3-0.3-0.6V124
		c0,0,0,0-0.1,0c-0.2,0.3-0.5,0.6-0.7,0.8c-0.2,0.2-0.4,0.3-0.7,0.3l0,0c-0.3,0-0.5-0.1-0.8-0.3l0,0c-0.2-0.1-0.2-0.3-0.2-0.5
		s0.1-0.5,0.3-0.6c0,0,0,0,0-0.1s0,0,0,0h-0.1c-0.3,0-0.5-0.1-0.7-0.3s-0.3-0.4-0.3-0.7V122c0-0.3,0.1-0.5,0.3-0.7s0.4-0.3,0.7-0.3
		h0.4c0.1,0,0.1,0,0.1-0.1v-3.3c0-0.3,0.1-0.5,0.3-0.7s0.4-0.3,0.7-0.3h1.7c0.1,0,0.1,0,0.2-0.1l0.1-0.2c0-0.1,0-0.1-0.1-0.1H97
		c-0.3,0-0.5-0.1-0.7-0.3s-0.3-0.4-0.3-0.6s0.1-0.5,0.3-0.7s0.4-0.3,0.7-0.3h9.2c0.2,0,0.5,0.1,0.6,0.3s0.3,0.4,0.3,0.7
		s-0.1,0.5-0.3,0.6s-0.4,0.3-0.6,0.3h-3.4c-0.1,0-0.1,0-0.2,0.1l-0.1,0.2c0,0,0,0,0,0.1s0,0,0.1,0h2.5c0.3,0,0.5,0.1,0.7,0.3
		s0.3,0.4,0.3,0.7v3.3c0,0.1,0,0.1,0.1,0.1h0.3c0.3,0,0.5,0.1,0.7,0.3s0.3,0.4,0.3,0.7v0.6c0,0.3-0.1,0.5-0.3,0.7s-0.4,0.3-0.7,0.3
		l0,0c0,0,0,0,0,0.1s0,0,0,0c0.1,0.1,0.2,0.3,0.2,0.5c0,0.1,0,0.1,0,0.2c-0.1,0.2-0.2,0.4-0.4,0.5c-0.2,0.1-0.3,0.1-0.5,0.1
		c-0.1,0-0.2,0-0.3,0c-0.2-0.1-0.5-0.2-0.6-0.4c-0.1-0.1-0.2-0.3-0.3-0.4c0,0,0,0-0.1,0s0,0-0.1,0.1c-0.1,0.3-0.3,0.5-0.6,0.7
		s-0.6,0.2-1.1,0.2h-1c-0.1,0-0.2,0-0.2,0.1c-0.1,0.1-0.1,0.2-0.2,0.2c0,0,0,0,0,0.1s0,0,0.1,0h3
		C104.4,125.7,104.4,125.7,104.4,125.7z M97.5,122.8C97.5,122.8,97.6,122.7,97.5,122.8l1.1,0.5h0.1c0-0.2,0.1-0.3,0.2-0.4
		s0.2-0.2,0.4-0.2h1.2l0,0l0,0c-0.1-0.1-0.1-0.1-0.2-0.1h-2.7C97.5,122.6,97.5,122.6,97.5,122.8L97.5,122.8z M103.6,118
		C103.6,117.9,103.6,117.9,103.6,118l-4.3-0.1c-0.1,0-0.1,0-0.1,0.1v0.1c0,0.1,0,0.1,0.1,0.1h4.2C103.6,118.2,103.6,118.2,103.6,118
		L103.6,118z M103.5,119.7C103.6,119.7,103.6,119.7,103.5,119.7l0.1-0.3c0-0.1,0-0.1-0.1-0.1h-4.2c-0.1,0-0.1,0-0.1,0.1v0.2
		c0,0.1,0,0.1,0.1,0.1H103.5z M99.3,120.7C99.2,120.7,99.2,120.7,99.3,120.7l-0.1,0.3c0,0.1,0,0.1,0.1,0.1h4.2c0.1,0,0.1,0,0.1-0.1
		v-0.2c0-0.1,0-0.1-0.1-0.1H99.3z M102.7,127.1L102.7,127.1L102.7,127.1l-2.6-0.1l0,0l0,0c0.4,0.2,0.8,0.4,1.2,0.6
		c0.1,0,0.2,0,0.2,0C102,127.5,102.4,127.3,102.7,127.1z M100.9,123C100.8,123,100.8,123,100.9,123C100.8,123,100.8,123,100.9,123
		l-0.1,0.5c0,0.2,0,0.3,0.1,0.4s0.2,0.1,0.4,0.1h0.2h0.1c0,0,0,0,0-0.1C101.4,123.6,101.2,123.3,100.9,123z M101.9,123.9
		L101.9,123.9L101.9,123.9l0.6,0.1c0.2,0,0.3,0,0.3-0.1c0.1-0.2,0.3-0.2,0.4-0.2h0.1c0.2,0.1,0.4,0.1,0.7,0.2l0,0l0,0
		c-0.1-0.1-0.1-0.2-0.1-0.3s0.1-0.2,0.2-0.3l1-0.5l0.1-0.1c0,0,0-0.1-0.1-0.1h-2.2l0,0l0,0c0.1,0.1,0.2,0.3,0.1,0.5
		s-0.1,0.3-0.3,0.4L101.9,123.9z"/>
	<path class="st3" d="M112.1,129.5c-0.1,0.2-0.4,0.4-0.6,0.5c-0.1,0-0.2,0-0.3,0c-0.2,0-0.4-0.1-0.5-0.2l-0.5-0.3
		c-0.2-0.1-0.4-0.3-0.4-0.6c0-0.1,0-0.2,0-0.2c0-0.2,0.1-0.4,0.2-0.5c0.3-0.4,0.5-0.9,0.7-1.4c0.1-0.3,0.3-0.4,0.6-0.6
		c0.1-0.1,0.3-0.1,0.4-0.1s0.3,0,0.4,0.1l0.4,0.1c0.3,0.1,0.5,0.3,0.6,0.6c0.1,0.1,0.1,0.3,0.1,0.4s0,0.3-0.1,0.4
		C112.6,128.4,112.4,129,112.1,129.5z M116.1,117C116.2,117,116.2,117,116.1,117l0.1-0.4c0-0.1,0-0.1-0.1-0.1h-5.2
		c-0.3,0-0.5-0.1-0.7-0.3s-0.3-0.4-0.3-0.7s0.1-0.5,0.3-0.7s0.4-0.3,0.7-0.3h5.3c0.1,0,0.1,0,0.1-0.1c0-0.2,0.1-0.3,0.2-0.5
		s0.3-0.2,0.4-0.2h1.4c0.2,0,0.3,0.1,0.5,0.2s0.2,0.3,0.2,0.5c0,0,0,0.1,0.1,0.1h5.6c0.3,0,0.5,0.1,0.7,0.3s0.3,0.4,0.3,0.7
		s-0.1,0.5-0.3,0.7s-0.4,0.3-0.7,0.3h-5.5c-0.1,0-0.1,0-0.1,0.1v0.3c0,0.1,0,0.1,0.1,0.1h4.2c0.3,0,0.5,0.1,0.7,0.3s0.3,0.4,0.3,0.7
		v3.5c0,0.3-0.1,0.5-0.3,0.7s-0.4,0.3-0.7,0.3h-0.2l0,0l0,0c0.6,0.4,1.2,0.8,1.8,1.3c0.2,0.2,0.3,0.4,0.3,0.6c0,0.3-0.1,0.5-0.4,0.7
		l-0.3,0.2c-0.2,0.1-0.3,0.2-0.5,0.2H124c-0.2,0-0.4-0.1-0.6-0.3c-0.1,0-0.1-0.1-0.2-0.1c-1.8,0-3.2,0.1-4.2,0.1l0,0c0,0,0,0,0,0.1
		c0.3,0.2,0.6,0.5,0.8,0.7c0.2,0.2,0.3,0.4,0.3,0.6c0,0.3-0.1,0.6-0.4,0.8l-0.2,0.2c-0.2,0.2-0.4,0.2-0.7,0.2h-0.1
		c-0.3,0-0.5-0.1-0.7-0.4c-0.3-0.3-0.7-0.6-1.1-1c-0.2-0.2-0.3-0.3-0.3-0.6s0.1-0.4,0.3-0.6v-0.1c-1.3,0-3.2,0-5.7,0.1l0,0
		c-0.3,0-0.5-0.1-0.7-0.3s-0.3-0.4-0.3-0.7v-0.1c0-0.3,0.1-0.5,0.3-0.7s0.4-0.3,0.7-0.3c0,0,0.7,0,2.1,0c1.3,0,2.3,0,3.1,0
		c0.1,0,0.1,0,0.1-0.1v-0.5c0-0.1,0-0.1-0.1-0.1h-4.2c-0.3,0-0.5-0.1-0.7-0.3s-0.3-0.4-0.3-0.7v-3.5c0-0.3,0.1-0.5,0.3-0.7
		s0.4-0.3,0.7-0.3h3.9V117z M113.5,118.5C113.4,118.5,113.4,118.5,113.5,118.5l-0.1,0.4c0,0.1,0,0.1,0.1,0.1h2.7
		c0.1,0,0.1,0,0.1-0.1v-0.3c0-0.1,0-0.1-0.1-0.1H113.5z M113.3,121C113.3,121.1,113.3,121.1,113.3,121l2.8,0.1c0.1,0,0.1,0,0.1-0.1
		v-0.3c0-0.1,0-0.1-0.1-0.1h-2.7c-0.1,0-0.1,0-0.1,0.1V121z M125.9,128.6c0,0.1,0.1,0.2,0.1,0.3c0,0.2,0,0.3-0.1,0.5
		c-0.1,0.3-0.4,0.4-0.6,0.5l-0.5,0.1c-0.1,0-0.2,0.1-0.3,0.1c-0.2,0-0.3,0-0.5-0.1s-0.4-0.3-0.5-0.6s-0.3-0.7-0.4-1l0,0l0,0
		c-0.2,0.8-0.5,1.4-0.9,1.7s-1.1,0.4-2,0.4H117c-1.4,0-2.3-0.2-2.8-0.6s-0.7-1.1-0.7-2.1v-0.7c0-0.3,0.1-0.5,0.3-0.7
		s0.4-0.3,0.7-0.3h0.5c0.3,0,0.5,0.1,0.7,0.3s0.3,0.4,0.3,0.7v0.7c0,0.3,0.1,0.4,0.2,0.5s0.5,0.1,1,0.1h2.7c0.2,0,0.4,0,0.5-0.1
		s0.2-0.2,0.3-0.3c0.1-0.2,0.2-0.4,0.5-0.5c0.1-0.1,0.3-0.1,0.4-0.1s0.2,0,0.3,0.1c0.3,0.1,0.6,0.2,0.8,0.3c0,0,0,0,0.1,0s0,0,0-0.1
		c-0.1-0.1-0.1-0.3-0.1-0.4s0-0.2,0.1-0.3c0.1-0.2,0.3-0.4,0.5-0.5l0.3-0.1c0.2,0,0.3-0.1,0.4-0.1c0.2,0,0.3,0,0.5,0.1
		c0.3,0.1,0.5,0.3,0.7,0.5C125.3,127.5,125.6,128.1,125.9,128.6z M121.8,118.6C121.8,118.5,121.8,118.5,121.8,118.6l-2.6-0.1
		c-0.1,0-0.1,0-0.1,0.1v0.3c0,0.1,0,0.1,0.1,0.1h2.5c0.1,0,0.1,0,0.1-0.1V118.6z M121.7,121.1C121.8,121.1,121.8,121.1,121.7,121.1
		l0.1-0.4c0-0.1,0-0.1-0.1-0.1h-2.5c-0.1,0-0.1,0-0.1,0.1v0.3c0,0.1,0,0.1,0.1,0.1H121.7z M119,123.2C119,123.3,119,123.3,119,123.2
		l1.5,0.1l0,0c-0.1-0.1-0.1-0.1-0.1-0.3s0-0.2,0.1-0.3l0.3-0.2l0,0l0,0h-1.7c-0.1,0-0.1,0-0.1,0.1C119,122.6,119,123.2,119,123.2z"
		/>
</g>
<g>
	<g>
		<g>
			<path class="st7" d="M40.1,157.1c0.1,0,0.1,0,0.2,0c0.1,0,0.2,0.1,0.3,0.2l0.4,0.4c0.2,0.2,0.3,0.3,0.3,0.6c0,0.1,0,0.2,0,0.3
				c0,0.1-0.1,0.2-0.1,0.3c-1,1.5-1.7,2.6-2.1,3.2c0,0.1,0,0.1,0,0.2c0.5,1.1,0.6,2.3,0.3,3.4c0,0,0,0.1,0,0.1
				c-0.2,1-0.7,1.6-1.2,1.8c-0.2,0.1-0.6,0.2-1,0.1c-0.1,0-0.1,0-0.2,0c0,0,0,0-0.1,0c-0.2-0.1-0.4-0.2-0.5-0.4
				c-0.1-0.2-0.2-0.5-0.2-0.7c0-0.1,0-0.1,0-0.2c0-0.1,0.1-0.2,0.2-0.3c0.2-0.1,0.3-0.2,0.5-0.2c0.1,0,0.2,0,0.4-0.1
				c0.2-0.1,0.4-0.4,0.5-0.8c0.2-0.7,0.1-1.4-0.1-2.2c-0.1-0.4-0.1-0.8-0.1-1.2c0-0.2,0.1-0.3,0.2-0.5c0.3-0.5,0.8-1.3,1.3-2.4
				c0,0,0,0,0-0.1c0,0,0,0-0.1-0.1l-1.2-0.3c-0.1,0-0.1,0-0.2,0.1l-2.9,11.3c-0.1,0.2-0.2,0.4-0.4,0.6c-0.2,0.1-0.4,0.2-0.7,0.1
				c-0.2-0.1-0.4-0.2-0.5-0.4c-0.1-0.2-0.2-0.4-0.1-0.7l3.1-12.2c0.1-0.3,0.2-0.4,0.4-0.6c0.2-0.1,0.5-0.2,0.7-0.1L40.1,157.1
				C40,157.1,40.1,157.1,40.1,157.1z M46,167.3c0.2-0.1,0.5-0.2,0.7-0.2c0.1,0,0.1,0,0.1,0c0.2,0,0.4,0.2,0.5,0.3
				c0.2,0.2,0.2,0.4,0.2,0.7c-0.1,0.2-0.2,0.4-0.4,0.5c-0.6,0.3-1.2,0.6-1.7,0.8c-0.1,0-0.1,0.1-0.1,0.2c0.3,0.7,0.7,1.4,1.2,1.9
				c0.2,0.2,0.2,0.4,0.2,0.6c0,0,0,0.1,0,0.1c0,0.2-0.1,0.3-0.3,0.4c-0.1,0-0.1,0.1-0.2,0.1c-0.2,0.2-0.4,0.3-0.7,0.3
				c-0.1,0-0.1,0-0.2,0c-0.2,0-0.3-0.1-0.4-0.3c-1.3-1.6-1.9-3.9-1.9-6.9c0-0.1,0-0.1-0.1-0.1l-0.9-0.2c-0.1,0-0.1,0-0.2,0.1l-1,3.8
				c0,0.1,0,0.1,0.1,0.1c0.4,0,0.9,0.1,1.4,0.1c0.1,0,0.1,0,0.2,0c0.2,0,0.3,0.1,0.4,0.3c0.1,0.2,0.2,0.4,0.2,0.6c0,0,0,0.1,0,0.1
				c-0.1,0.2-0.2,0.4-0.3,0.5c-0.2,0.2-0.4,0.2-0.6,0.2c-0.3,0-1.5-0.1-3.7-0.1c-0.1,0-0.2,0-0.2,0c-0.2,0-0.3-0.1-0.5-0.3
				c-0.2-0.2-0.3-0.4-0.3-0.7l0-0.1c0-0.1,0-0.2,0-0.3c0-0.1,0.1-0.3,0.2-0.4c0.2-0.2,0.4-0.2,0.6-0.2c0.3,0,0.6,0.1,0.7,0.1
				c0.1,0,0.1,0,0.2-0.1l2.7-10.6c0.1-0.3,0.2-0.4,0.4-0.6c0.2-0.1,0.5-0.2,0.7-0.1l5.5,1.4c0.2,0.1,0.4,0.2,0.6,0.4
				c0.1,0.2,0.2,0.5,0.1,0.7l-1.4,5.5c-0.1,0.2-0.2,0.4-0.4,0.6c-0.2,0.1-0.5,0.2-0.7,0.1l-1.7-0.4c0,0-0.1,0-0.1,0c0,0,0,0,0,0.1
				c0,0.5,0,1.1,0.1,1.6c0,0.1,0.1,0.1,0.1,0.1C45.4,167.7,45.7,167.5,46,167.3z M42.8,162.5c-0.1,0-0.1,0-0.2,0.1l-0.3,1.1
				c0,0.1,0,0.1,0.1,0.1l3.4,0.9c0.1,0,0.1,0,0.2-0.1l0.3-1.1c0-0.1,0-0.1-0.1-0.2L42.8,162.5z M47,160.8c0-0.1,0-0.1-0.1-0.2
				l-3.4-0.9c-0.1,0-0.1,0-0.2,0.1l-0.3,1c0,0.1,0,0.1,0.1,0.1l3.4,0.9c0.1,0,0.1,0,0.2-0.1L47,160.8z"/>
			<path class="st7" d="M56.2,161c0.3,0,0.5,0.2,0.6,0.4c0.1,0.2,0.2,0.4,0.2,0.7l-1.5,9c0,0.3-0.2,0.5-0.4,0.6
				c-0.2,0.1-0.4,0.2-0.7,0.2l-2.2-0.4c-0.1,0-0.1,0-0.1,0.1l-0.1,0.4c0,0.2-0.2,0.4-0.4,0.6c-0.2,0.1-0.4,0.2-0.7,0.2
				c-0.2,0-0.4-0.2-0.6-0.4c-0.1-0.2-0.2-0.4-0.2-0.7l1.7-10.5c0-0.3,0.2-0.5,0.4-0.6c0.2-0.2,0.4-0.2,0.7-0.2L56.2,161z
				 M52.4,169.7c0,0.1,0,0.1,0.1,0.1l1.2,0.2c0.1,0,0.1,0,0.1-0.1l0.5-2.8c0-0.1,0-0.1-0.1-0.1l-1.2-0.2c-0.1,0-0.1,0-0.1,0.1
				L52.4,169.7z M55.1,162.7c0-0.1,0-0.1-0.1-0.1l-1.2-0.2c-0.1,0-0.1,0-0.1,0.1l-0.4,2.6c0,0.1,0,0.1,0.1,0.1l1.2,0.2
				c0.1,0,0.1,0,0.1-0.1L55.1,162.7z M65.7,166.7c0.1,0.2,0.2,0.4,0.1,0.6c0,0.2-0.2,0.4-0.3,0.5c-0.2,0.1-0.4,0.2-0.6,0.1l-0.7-0.1
				c-0.1,0-0.1,0-0.1,0.1l-0.2,1.1c0,0.1,0,0.1,0.1,0.1l0.6,0.1c0.2,0,0.4,0.2,0.5,0.3c0.1,0.2,0.2,0.4,0.1,0.6
				c0,0.2-0.2,0.4-0.3,0.5c-0.2,0.1-0.4,0.2-0.6,0.1l-0.6-0.1c-0.1,0-0.1,0-0.1,0.1l-0.6,3.4c-0.1,0.5-0.2,0.8-0.3,1.1
				c-0.2,0.2-0.4,0.4-0.7,0.5c-0.4,0.1-1,0.1-1.8,0c0,0,0,0,0,0c-0.2,0-0.4-0.2-0.6-0.3c-0.2-0.2-0.3-0.4-0.3-0.7c0,0,0,0,0,0
				c0-0.1,0-0.2,0-0.2c0-0.1,0.1-0.2,0.2-0.3c0.1-0.2,0.3-0.2,0.5-0.2l0,0c0.3,0,0.6,0.1,1,0.2c0.1,0,0.2,0,0.3,0
				c0.1,0,0.1-0.1,0.1-0.2l0.5-3.3c0-0.1,0-0.1-0.1-0.1l-4.7-0.8c-0.2,0-0.4-0.1-0.5-0.3c-0.1-0.2-0.2-0.4-0.1-0.6
				c0-0.2,0.1-0.4,0.3-0.5c0.2-0.1,0.4-0.2,0.6-0.1l4.7,0.8c0.1,0,0.1,0,0.1-0.1l0.2-1.1c0-0.1,0-0.1-0.1-0.1l-4.7-0.8
				c-0.2,0-0.4-0.2-0.6-0.3c-0.1-0.2-0.2-0.4-0.2-0.6c0-0.2,0.2-0.4,0.3-0.5c0.2-0.1,0.4-0.2,0.6-0.1l2.7,0.4c0.1,0,0.1,0,0.1-0.1
				l0.2-1.2c0-0.1,0-0.1-0.1-0.1l-2.1-0.3c-0.2,0-0.4-0.2-0.6-0.3c-0.1-0.2-0.2-0.4-0.1-0.6c0-0.2,0.2-0.4,0.3-0.5
				c0.2-0.1,0.4-0.2,0.6-0.1l2.1,0.3c0.1,0,0.1,0,0.1-0.1l0.1-0.6c0-0.3,0.2-0.5,0.4-0.6c0.2-0.1,0.4-0.2,0.7-0.2l0,0
				c0.3,0,0.5,0.2,0.6,0.4c0.2,0.2,0.2,0.4,0.2,0.7l-0.1,0.6c0,0.1,0,0.1,0.1,0.1l2.3,0.4c0.2,0,0.4,0.2,0.6,0.3
				c0.1,0.2,0.2,0.4,0.2,0.6c0,0.2-0.2,0.4-0.3,0.6c-0.2,0.1-0.4,0.2-0.6,0.2l-2.3-0.4c-0.1,0-0.1,0-0.1,0.1l-0.2,1.2
				c0,0.1,0,0.1,0.1,0.1l2.7,0.4C65.4,166.4,65.5,166.5,65.7,166.7z M57,171.7c-0.1-0.2-0.1-0.3-0.1-0.5c0,0,0-0.1,0-0.1
				c0.1-0.2,0.2-0.4,0.4-0.5c0.2-0.1,0.4-0.1,0.6-0.1c0.1,0,0.1,0,0.2,0c0.2,0.1,0.4,0.2,0.6,0.4c0.3,0.5,0.5,0.9,0.7,1.3
				c0.1,0.2,0.1,0.3,0.1,0.5c0,0.1,0,0.1-0.1,0.2c-0.1,0.2-0.3,0.4-0.5,0.5l0,0c-0.1,0.1-0.3,0.1-0.4,0c-0.1,0-0.2,0-0.3-0.1
				c-0.2-0.1-0.4-0.3-0.5-0.5C57.5,172.6,57.3,172.1,57,171.7z"/>
			<path class="st7" d="M70.6,163c0.1-0.2,0.3-0.4,0.5-0.5c0.1-0.1,0.3-0.1,0.4-0.1c0.1,0,0.2,0,0.3,0.1c0.2,0.1,0.4,0.3,0.5,0.5
				c0.1,0.1,0.1,0.3,0.1,0.4c0,0.1,0,0.2-0.1,0.3c-0.3,0.7-0.7,1.4-1.1,2.1c0,0.1-0.1,0.1-0.1,0.2l-0.9,10.4c0,0.3-0.1,0.5-0.3,0.6
				c-0.2,0.2-0.4,0.2-0.7,0.2c-0.3,0-0.5-0.1-0.6-0.3c-0.2-0.2-0.2-0.4-0.2-0.7l0.6-7c0,0,0,0,0,0c0,0,0,0,0,0
				c-0.1,0.2-0.3,0.3-0.4,0.5c-0.1,0.1-0.3,0.2-0.4,0.2c0,0-0.1,0-0.1,0c-0.2,0-0.3-0.2-0.4-0.4c0-0.1-0.1-0.3-0.1-0.4
				c-0.1-0.2-0.1-0.4-0.1-0.7c0-0.1,0-0.1,0-0.2c0-0.3,0.2-0.5,0.3-0.7C69,166.2,69.9,164.8,70.6,163z M79.7,173.6
				c0.1,0,0.1,0,0.2,0c0.1,0,0.2,0.1,0.4,0.1l0.3,0.2c0.1,0.1,0.2,0.2,0.3,0.4c0,0.2,0,0.3-0.2,0.5c-0.5,0.5-1.1,0.9-1.8,1.2
				c0,0,0,0,0,0c0,0,0,0,0,0.1c0.8,0.2,1.6,0.4,2.5,0.5c0.2,0,0.3,0.1,0.4,0.3c0,0.1,0,0.2,0,0.2c0,0.1,0,0.2-0.1,0.3
				c-0.2,0.2-0.4,0.4-0.6,0.5c-0.2,0.1-0.4,0.1-0.6,0.1c-0.1,0-0.1,0-0.2,0c-1.4-0.3-2.6-0.7-3.6-1.2c-0.1,0-0.1,0-0.2,0
				c-1.1,0.3-2.3,0.5-3.7,0.6c-0.1,0-0.1,0-0.2,0c-0.2,0-0.3-0.1-0.5-0.2c-0.2-0.1-0.4-0.3-0.5-0.5c-0.1-0.2-0.1-0.3,0-0.5
				c0.1-0.2,0.2-0.2,0.4-0.3c0.9,0,1.8-0.1,2.7-0.2c0,0,0,0,0,0c0,0,0,0,0-0.1c-0.3-0.2-0.6-0.5-0.9-0.8c0-0.1-0.1-0.1-0.2,0
				c-0.2,0.1-0.4,0.2-0.7,0.2c-0.1,0-0.3,0.1-0.4,0c-0.1,0-0.2,0-0.3-0.1c-0.2-0.1-0.4-0.2-0.5-0.4c-0.1-0.1-0.1-0.3-0.1-0.5
				c0.1-0.2,0.2-0.3,0.3-0.3c1.3-0.3,2.3-0.7,3.1-1.3c0.1,0,0.1-0.1,0-0.1c-0.2-0.2-0.3-0.5-0.3-0.9c0,0,0,0,0,0c0,0,0,0-0.1,0
				c-0.3,0.4-0.7,0.7-1,0.9c-0.2,0.1-0.4,0.2-0.6,0.2c-0.2,0-0.4-0.1-0.5-0.3c-0.1-0.1-0.2-0.3-0.2-0.4c0-0.2,0.1-0.3,0.2-0.4
				c0.1,0,0.1-0.1,0.2-0.1c0,0,0,0,0,0c0,0,0,0,0,0l-0.2,0c-0.3,0-0.5-0.1-0.6-0.3c-0.2-0.2-0.2-0.4-0.2-0.7l0-0.5
				c0-0.3,0.1-0.5,0.3-0.6c0.2-0.2,0.4-0.2,0.7-0.2l0.4,0c0.1,0,0.1,0,0.1-0.1l0.3-2.9c0-0.3,0.1-0.5,0.3-0.6
				c0.2-0.2,0.4-0.2,0.7-0.2l1.6,0.1c0.1,0,0.1,0,0.2-0.1c0,0,0-0.1,0.1-0.2s0-0.1,0.1-0.2c0-0.1,0-0.1-0.1-0.1l-2.9-0.3
				c-0.2,0-0.3-0.1-0.5-0.2c-0.1-0.1-0.2-0.3-0.2-0.5c0-0.2,0.1-0.3,0.2-0.5c0.1-0.1,0.3-0.2,0.5-0.2l8.5,0.7c0.2,0,0.3,0.1,0.5,0.2
				c0.1,0.1,0.2,0.3,0.2,0.5c0,0.2-0.1,0.3-0.2,0.5c-0.1,0.1-0.3,0.2-0.5,0.2l-3.4-0.3c-0.1,0-0.1,0-0.2,0.1l-0.2,0.4c0,0,0,0,0,0.1
				c0,0,0,0,0.1,0l2.4,0.2c0.3,0,0.5,0.1,0.6,0.3c0.2,0.2,0.2,0.4,0.2,0.7l-0.3,2.9c0,0.1,0,0.1,0.1,0.1l0.3,0
				c0.3,0,0.5,0.1,0.6,0.3c0.2,0.2,0.2,0.4,0.2,0.7l0,0.5c0,0.2-0.1,0.4-0.3,0.6c-0.2,0.2-0.4,0.2-0.7,0.2c0,0,0,0-0.1,0
				c0,0,0,0,0,0c0.1,0.1,0.1,0.1,0.1,0.2c0.1,0.1,0.1,0.2,0.1,0.4c0,0.1,0,0.1,0,0.1c-0.1,0.2-0.2,0.3-0.4,0.4
				c-0.1,0.1-0.2,0.1-0.4,0.1c-0.1,0-0.1,0-0.2,0c-0.2-0.1-0.3-0.2-0.4-0.4c-0.1-0.2-0.3-0.4-0.5-0.7c0,0,0,0-0.1,0c0,0,0,0,0,0.1
				c-0.1,0.4-0.3,0.6-0.5,0.7c-0.2,0.1-0.6,0.2-1,0.1l-1.2-0.1c-0.1,0-0.2,0-0.2,0.1c-0.1,0.1-0.2,0.2-0.3,0.3c0,0,0,0,0,0
				c0,0,0,0,0,0L79.7,173.6C79.6,173.6,79.6,173.6,79.7,173.6z M74.7,171c0-0.1,0.1-0.3,0.2-0.3c0.1-0.1,0.2-0.1,0.4-0.1l0.3,0
				c0.2,0,0.4,0.1,0.5,0.3c0.1,0.2,0.2,0.3,0.2,0.6l0,0.1c0,0.2,0,0.3,0.1,0.3c0.1,0.1,0.2,0.1,0.4,0.1l1.4,0.1c0.2,0,0.3,0,0.3-0.1
				c0.2-0.2,0.3-0.3,0.5-0.2c0,0,0.1,0,0.1,0c0.2,0.1,0.4,0.1,0.6,0.2c0,0,0,0,0,0c0,0,0,0,0,0c-0.1-0.1-0.1-0.2-0.1-0.4
				c0-0.1,0.1-0.2,0.2-0.3l0.3-0.1c0.1,0,0.2-0.1,0.3-0.1c0.1,0,0.3,0.1,0.3,0.2c0,0,0,0,0,0l0-0.3c0-0.1,0-0.1-0.1-0.1l-2.6-0.2
				c0,0,0,0,0,0c0,0,0,0,0,0c0,0,0.1,0.1,0.1,0.1c0.1,0.1,0.2,0.3,0.1,0.5c0,0.2-0.1,0.3-0.3,0.4c-0.1,0.1-0.3,0.1-0.4,0.1
				c-0.1,0-0.1,0-0.2,0c-0.2-0.1-0.3-0.2-0.5-0.3c-0.2-0.3-0.5-0.5-0.8-0.8c-0.1-0.1-0.1-0.1-0.2-0.1l-2.5-0.2c-0.1,0-0.1,0-0.1,0.1
				l-0.1,0.6c0,0,0,0,0,0c0,0,0,0,0,0c0.1-0.1,0.3-0.2,0.4-0.2c0.2,0,0.3,0,0.5,0.1L74.7,171C74.7,171,74.7,171,74.7,171z
				 M75.2,168.6c-0.1,0-0.1,0-0.1,0.1l0,0.3c0,0.1,0,0.1,0.1,0.1l4.2,0.4c0.1,0,0.1,0,0.1-0.1l0-0.3c0-0.1,0-0.1-0.1-0.1L75.2,168.6
				z M79.5,168.2c0.1,0,0.1,0,0.1-0.1l0-0.3c0-0.1,0-0.1-0.1-0.1l-4.2-0.4c-0.1,0-0.1,0-0.1,0.1l0,0.3c0,0.1,0,0.1,0.1,0.1
				L79.5,168.2z M79.7,166.6c0-0.1,0-0.1-0.1-0.1l-4.2-0.4c-0.1,0-0.1,0-0.1,0.1l0,0.3c0,0.1,0,0.1,0.1,0.1l4.2,0.4
				c0.1,0,0.1,0,0.1-0.1L79.7,166.6z M78.3,174.6C78.3,174.6,78.3,174.6,78.3,174.6C78.3,174.6,78.3,174.6,78.3,174.6l-3-0.3
				c0,0,0,0,0,0c0,0,0,0,0,0.1c0.4,0.3,0.8,0.6,1.3,0.9c0.1,0,0.1,0,0.2,0C77.4,175.1,77.9,174.9,78.3,174.6z"/>
			<path class="st7" d="M86.6,177.2c-0.1,0.2-0.3,0.4-0.6,0.4c-0.1,0-0.2,0-0.2,0c-0.2,0-0.3-0.1-0.5-0.2l0,0
				c-0.2-0.1-0.3-0.3-0.4-0.5c0-0.1,0-0.1,0-0.2c0-0.2,0.1-0.3,0.2-0.5c0.2-0.4,0.5-0.8,0.7-1.3c0.1-0.2,0.3-0.4,0.5-0.5
				c0.1-0.1,0.2-0.1,0.4-0.1c0.1,0,0.2,0,0.3,0.1c0.2,0.1,0.4,0.3,0.5,0.5c0,0.1,0.1,0.2,0.1,0.4c0,0.1,0,0.2-0.1,0.3
				C87,176.3,86.8,176.8,86.6,177.2z M90.9,166.4c0.1,0,0.1,0,0.1-0.1l0-0.5c0-0.1,0-0.1-0.1-0.1l-5-0.1c-0.2,0-0.4-0.1-0.5-0.2
				c-0.1-0.2-0.2-0.3-0.2-0.5c0-0.2,0.1-0.4,0.2-0.5c0.1-0.1,0.3-0.2,0.5-0.2l5.1,0.1c0.1,0,0.1,0,0.1-0.1c0-0.2,0.1-0.3,0.2-0.5
				c0.1-0.1,0.3-0.2,0.5-0.2l0.6,0c0.2,0,0.3,0.1,0.5,0.2c0.1,0.1,0.2,0.3,0.2,0.5c0,0.1,0,0.1,0.1,0.1l5.2,0.1
				c0.2,0,0.4,0.1,0.5,0.2c0.1,0.2,0.2,0.3,0.2,0.5c0,0.2-0.1,0.4-0.2,0.5c-0.2,0.1-0.3,0.2-0.5,0.2l-5.2-0.1c-0.1,0-0.1,0-0.1,0.1
				l0,0.5c0,0.1,0,0.1,0.1,0.1l3.9,0.1c0.3,0,0.5,0.1,0.7,0.3c0.2,0.2,0.3,0.4,0.3,0.7l-0.1,2.9c0,0.3-0.1,0.5-0.3,0.7
				c-0.2,0.2-0.4,0.3-0.7,0.3l-0.6,0c0,0,0,0,0,0c0,0,0,0,0,0c0.7,0.4,1.4,0.9,2.1,1.4c0.2,0.1,0.2,0.3,0.2,0.5
				c0,0.2-0.1,0.4-0.3,0.5c-0.2,0.1-0.4,0.2-0.6,0.2c0,0,0,0-0.1,0c-0.2,0-0.5-0.1-0.6-0.3c0,0,0,0-0.1,0c-0.1-0.1-0.1-0.1-0.2-0.1
				c-0.4,0-1.1,0-2.1,0c-1,0-1.8,0-2.3,0c0,0,0,0,0,0c0,0,0,0,0,0c0.5,0.3,0.9,0.6,1.2,0.9c0.2,0.1,0.2,0.3,0.2,0.5
				c0,0.3-0.1,0.5-0.3,0.6c-0.2,0.1-0.4,0.2-0.6,0.2c0,0,0,0,0,0c-0.2,0-0.5-0.1-0.6-0.3c-0.3-0.3-0.6-0.6-1-0.9
				c-0.2-0.1-0.3-0.3-0.3-0.6c0-0.2,0.1-0.4,0.3-0.5l0,0c0,0,0,0,0,0c0,0,0,0,0,0c-3,0-4.7,0-5.3,0l0,0c-0.2,0-0.4-0.1-0.6-0.2
				c-0.2-0.2-0.3-0.4-0.3-0.6c0-0.2,0.1-0.4,0.2-0.5c0.2-0.2,0.3-0.2,0.6-0.2l1.9,0c0.9,0,2,0,3,0.1c0.1,0,0.1,0,0.1-0.1l0-0.7
				c0-0.1,0-0.1-0.1-0.1l-3.9-0.1c-0.3,0-0.5-0.1-0.7-0.3s-0.3-0.4-0.3-0.7l0.1-2.9c0-0.3,0.1-0.5,0.3-0.7c0.2-0.2,0.4-0.3,0.7-0.3
				L90.9,166.4z M87.8,169.9c0,0.1,0,0.1,0.1,0.1l2.9,0.1c0.1,0,0.1,0,0.1-0.1l0-0.5c0-0.1,0-0.1-0.1-0.1l-2.9-0.1
				c-0.1,0-0.1,0-0.1,0.1L87.8,169.9z M88,167.5c-0.1,0-0.1,0-0.1,0.1l0,0.5c0,0.1,0,0.1,0.1,0.1l2.9,0.1c0.1,0,0.1,0,0.1-0.1l0-0.5
				c0-0.1,0-0.1-0.1-0.1L88,167.5z M91,176.7l2.8,0.1c0.3,0,0.4,0,0.6-0.1c0.1-0.1,0.2-0.2,0.3-0.4c0.1-0.2,0.2-0.4,0.4-0.4
				c0.1-0.1,0.2-0.1,0.3-0.1c0.1,0,0.2,0,0.2,0c0.2,0.1,0.4,0.2,0.6,0.5c0.1,0.2,0.2,0.3,0.1,0.5c0,0.1,0,0.1,0,0.2
				c-0.2,0.6-0.4,0.9-0.7,1.1c-0.3,0.2-0.9,0.3-1.6,0.3l-3.2-0.1c-1.1,0-1.9-0.2-2.3-0.5c-0.4-0.3-0.6-0.8-0.5-1.6l0-0.9
				c0-0.3,0.1-0.5,0.3-0.7c0.2-0.2,0.4-0.3,0.7-0.3l0,0c0.3,0,0.5,0.1,0.7,0.3c0.2,0.2,0.3,0.4,0.3,0.7l0,0.9c0,0.2,0.1,0.3,0.2,0.4
				C90.2,176.7,90.5,176.7,91,176.7z M92.9,172c0,0.1,0,0.1,0.1,0.1l1.8,0c0,0,0,0,0,0c0,0,0,0,0,0c-0.1-0.1-0.2-0.2-0.2-0.4
				c0-0.2,0.1-0.3,0.2-0.4l0,0c0,0,0,0,0,0c0,0,0,0,0,0l-1.8,0c-0.1,0-0.1,0-0.1,0.1L92.9,172z M93,169.4c-0.1,0-0.1,0-0.1,0.1
				l0,0.5c0,0.1,0,0.1,0.1,0.1l2.8,0.1c0.1,0,0.1,0,0.1-0.1l0-0.5c0-0.1,0-0.1-0.1-0.1L93,169.4z M96,167.7c0-0.1,0-0.1-0.1-0.1
				l-2.8-0.1c-0.1,0-0.1,0-0.1,0.1l0,0.5c0,0.1,0,0.1,0.1,0.1l2.8,0.1c0.1,0,0.1,0,0.1-0.1L96,167.7z M96.3,175.7
				c-0.1-0.1-0.1-0.2-0.1-0.4c0-0.1,0-0.2,0.1-0.2c0.1-0.2,0.2-0.3,0.4-0.4c0.1,0,0.2-0.1,0.4-0.1c0.1,0,0.3,0,0.4,0.1
				c0.3,0.1,0.4,0.2,0.6,0.5c0.3,0.5,0.6,1.1,0.8,1.6c0.1,0.1,0.1,0.2,0.1,0.3c0,0.1,0,0.2-0.1,0.4c-0.1,0.2-0.3,0.4-0.6,0.4l0,0
				c-0.1,0-0.2,0-0.3,0c-0.1,0-0.3,0-0.4-0.1c-0.2-0.1-0.4-0.3-0.5-0.5C96.9,176.8,96.6,176.3,96.3,175.7z"/>
		</g>
		<g>
			<path class="st8" d="M40.1,157.1c0.1,0,0.1,0,0.2,0c0.1,0,0.2,0.1,0.3,0.2l0.4,0.4c0.2,0.2,0.3,0.3,0.3,0.6c0,0.1,0,0.2,0,0.3
				c0,0.1-0.1,0.2-0.1,0.3c-1,1.5-1.7,2.6-2.1,3.2c0,0.1,0,0.1,0,0.2c0.5,1.1,0.6,2.3,0.3,3.4c0,0,0,0.1,0,0.1
				c-0.2,1-0.7,1.6-1.2,1.8c-0.2,0.1-0.6,0.2-1,0.1c-0.1,0-0.1,0-0.2,0c0,0,0,0-0.1,0c-0.2-0.1-0.4-0.2-0.5-0.4
				c-0.1-0.2-0.2-0.5-0.2-0.7c0-0.1,0-0.1,0-0.2c0-0.1,0.1-0.2,0.2-0.3c0.2-0.1,0.3-0.2,0.5-0.2c0.1,0,0.2,0,0.4-0.1
				c0.2-0.1,0.4-0.4,0.5-0.8c0.2-0.7,0.1-1.4-0.1-2.2c-0.1-0.4-0.1-0.8-0.1-1.2c0-0.2,0.1-0.3,0.2-0.5c0.3-0.5,0.8-1.3,1.3-2.4
				c0,0,0,0,0-0.1c0,0,0,0-0.1-0.1l-1.2-0.3c-0.1,0-0.1,0-0.2,0.1l-2.9,11.3c-0.1,0.2-0.2,0.4-0.4,0.6c-0.2,0.1-0.4,0.2-0.7,0.1
				c-0.2-0.1-0.4-0.2-0.5-0.4c-0.1-0.2-0.2-0.4-0.1-0.7l3.1-12.2c0.1-0.3,0.2-0.4,0.4-0.6c0.2-0.1,0.5-0.2,0.7-0.1L40.1,157.1
				C40,157.1,40.1,157.1,40.1,157.1z M46,167.3c0.2-0.1,0.5-0.2,0.7-0.2c0.1,0,0.1,0,0.1,0c0.2,0,0.4,0.2,0.5,0.3
				c0.2,0.2,0.2,0.4,0.2,0.7c-0.1,0.2-0.2,0.4-0.4,0.5c-0.6,0.3-1.2,0.6-1.7,0.8c-0.1,0-0.1,0.1-0.1,0.2c0.3,0.7,0.7,1.4,1.2,1.9
				c0.2,0.2,0.2,0.4,0.2,0.6c0,0,0,0.1,0,0.1c0,0.2-0.1,0.3-0.3,0.4c-0.1,0-0.1,0.1-0.2,0.1c-0.2,0.2-0.4,0.3-0.7,0.3
				c-0.1,0-0.1,0-0.2,0c-0.2,0-0.3-0.1-0.4-0.3c-1.3-1.6-1.9-3.9-1.9-6.9c0-0.1,0-0.1-0.1-0.1l-0.9-0.2c-0.1,0-0.1,0-0.2,0.1l-1,3.8
				c0,0.1,0,0.1,0.1,0.1c0.4,0,0.9,0.1,1.4,0.1c0.1,0,0.1,0,0.2,0c0.2,0,0.3,0.1,0.4,0.3c0.1,0.2,0.2,0.4,0.2,0.6c0,0,0,0.1,0,0.1
				c-0.1,0.2-0.2,0.4-0.3,0.5c-0.2,0.2-0.4,0.2-0.6,0.2c-0.3,0-1.5-0.1-3.7-0.1c-0.1,0-0.2,0-0.2,0c-0.2,0-0.3-0.1-0.5-0.3
				c-0.2-0.2-0.3-0.4-0.3-0.7l0-0.1c0-0.1,0-0.2,0-0.3c0-0.1,0.1-0.3,0.2-0.4c0.2-0.2,0.4-0.2,0.6-0.2c0.3,0,0.6,0.1,0.7,0.1
				c0.1,0,0.1,0,0.2-0.1l2.7-10.6c0.1-0.3,0.2-0.4,0.4-0.6c0.2-0.1,0.5-0.2,0.7-0.1l5.5,1.4c0.2,0.1,0.4,0.2,0.6,0.4
				c0.1,0.2,0.2,0.5,0.1,0.7l-1.4,5.5c-0.1,0.2-0.2,0.4-0.4,0.6c-0.2,0.1-0.5,0.2-0.7,0.1l-1.7-0.4c0,0-0.1,0-0.1,0c0,0,0,0,0,0.1
				c0,0.5,0,1.1,0.1,1.6c0,0.1,0.1,0.1,0.1,0.1C45.4,167.7,45.7,167.5,46,167.3z M42.8,162.5c-0.1,0-0.1,0-0.2,0.1l-0.3,1.1
				c0,0.1,0,0.1,0.1,0.1l3.4,0.9c0.1,0,0.1,0,0.2-0.1l0.3-1.1c0-0.1,0-0.1-0.1-0.2L42.8,162.5z M47,160.8c0-0.1,0-0.1-0.1-0.2
				l-3.4-0.9c-0.1,0-0.1,0-0.2,0.1l-0.3,1c0,0.1,0,0.1,0.1,0.1l3.4,0.9c0.1,0,0.1,0,0.2-0.1L47,160.8z"/>
			<path class="st8" d="M56.2,161c0.3,0,0.5,0.2,0.6,0.4c0.1,0.2,0.2,0.4,0.2,0.7l-1.5,9c0,0.3-0.2,0.5-0.4,0.6
				c-0.2,0.1-0.4,0.2-0.7,0.2l-2.2-0.4c-0.1,0-0.1,0-0.1,0.1l-0.1,0.4c0,0.2-0.2,0.4-0.4,0.6c-0.2,0.1-0.4,0.2-0.7,0.2
				c-0.2,0-0.4-0.2-0.6-0.4c-0.1-0.2-0.2-0.4-0.2-0.7l1.7-10.5c0-0.3,0.2-0.5,0.4-0.6c0.2-0.2,0.4-0.2,0.7-0.2L56.2,161z
				 M52.4,169.7c0,0.1,0,0.1,0.1,0.1l1.2,0.2c0.1,0,0.1,0,0.1-0.1l0.5-2.8c0-0.1,0-0.1-0.1-0.1l-1.2-0.2c-0.1,0-0.1,0-0.1,0.1
				L52.4,169.7z M55.1,162.7c0-0.1,0-0.1-0.1-0.1l-1.2-0.2c-0.1,0-0.1,0-0.1,0.1l-0.4,2.6c0,0.1,0,0.1,0.1,0.1l1.2,0.2
				c0.1,0,0.1,0,0.1-0.1L55.1,162.7z M65.7,166.7c0.1,0.2,0.2,0.4,0.1,0.6c0,0.2-0.2,0.4-0.3,0.5c-0.2,0.1-0.4,0.2-0.6,0.1l-0.7-0.1
				c-0.1,0-0.1,0-0.1,0.1l-0.2,1.1c0,0.1,0,0.1,0.1,0.1l0.6,0.1c0.2,0,0.4,0.2,0.5,0.3c0.1,0.2,0.2,0.4,0.1,0.6
				c0,0.2-0.2,0.4-0.3,0.5c-0.2,0.1-0.4,0.2-0.6,0.1l-0.6-0.1c-0.1,0-0.1,0-0.1,0.1l-0.6,3.4c-0.1,0.5-0.2,0.8-0.3,1.1
				c-0.2,0.2-0.4,0.4-0.7,0.5c-0.4,0.1-1,0.1-1.8,0c0,0,0,0,0,0c-0.2,0-0.4-0.2-0.6-0.3c-0.2-0.2-0.3-0.4-0.3-0.7c0,0,0,0,0,0
				c0-0.1,0-0.2,0-0.2c0-0.1,0.1-0.2,0.2-0.3c0.1-0.2,0.3-0.2,0.5-0.2l0,0c0.3,0,0.6,0.1,1,0.2c0.1,0,0.2,0,0.3,0
				c0.1,0,0.1-0.1,0.1-0.2l0.5-3.3c0-0.1,0-0.1-0.1-0.1l-4.7-0.8c-0.2,0-0.4-0.1-0.5-0.3c-0.1-0.2-0.2-0.4-0.1-0.6
				c0-0.2,0.1-0.4,0.3-0.5c0.2-0.1,0.4-0.2,0.6-0.1l4.7,0.8c0.1,0,0.1,0,0.1-0.1l0.2-1.1c0-0.1,0-0.1-0.1-0.1l-4.7-0.8
				c-0.2,0-0.4-0.2-0.6-0.3c-0.1-0.2-0.2-0.4-0.2-0.6c0-0.2,0.2-0.4,0.3-0.5c0.2-0.1,0.4-0.2,0.6-0.1l2.7,0.4c0.1,0,0.1,0,0.1-0.1
				l0.2-1.2c0-0.1,0-0.1-0.1-0.1l-2.1-0.3c-0.2,0-0.4-0.2-0.6-0.3c-0.1-0.2-0.2-0.4-0.1-0.6c0-0.2,0.2-0.4,0.3-0.5
				c0.2-0.1,0.4-0.2,0.6-0.1l2.1,0.3c0.1,0,0.1,0,0.1-0.1l0.1-0.6c0-0.3,0.2-0.5,0.4-0.6c0.2-0.1,0.4-0.2,0.7-0.2l0,0
				c0.3,0,0.5,0.2,0.6,0.4c0.2,0.2,0.2,0.4,0.2,0.7l-0.1,0.6c0,0.1,0,0.1,0.1,0.1l2.3,0.4c0.2,0,0.4,0.2,0.6,0.3
				c0.1,0.2,0.2,0.4,0.2,0.6c0,0.2-0.2,0.4-0.3,0.6c-0.2,0.1-0.4,0.2-0.6,0.2l-2.3-0.4c-0.1,0-0.1,0-0.1,0.1l-0.2,1.2
				c0,0.1,0,0.1,0.1,0.1l2.7,0.4C65.4,166.4,65.5,166.5,65.7,166.7z M57,171.7c-0.1-0.2-0.1-0.3-0.1-0.5c0,0,0-0.1,0-0.1
				c0.1-0.2,0.2-0.4,0.4-0.5c0.2-0.1,0.4-0.1,0.6-0.1c0.1,0,0.1,0,0.2,0c0.2,0.1,0.4,0.2,0.6,0.4c0.3,0.5,0.5,0.9,0.7,1.3
				c0.1,0.2,0.1,0.3,0.1,0.5c0,0.1,0,0.1-0.1,0.2c-0.1,0.2-0.3,0.4-0.5,0.5l0,0c-0.1,0.1-0.3,0.1-0.4,0c-0.1,0-0.2,0-0.3-0.1
				c-0.2-0.1-0.4-0.3-0.5-0.5C57.5,172.6,57.3,172.1,57,171.7z"/>
			<path class="st8" d="M70.6,163c0.1-0.2,0.3-0.4,0.5-0.5c0.1-0.1,0.3-0.1,0.4-0.1c0.1,0,0.2,0,0.3,0.1c0.2,0.1,0.4,0.3,0.5,0.5
				c0.1,0.1,0.1,0.3,0.1,0.4c0,0.1,0,0.2-0.1,0.3c-0.3,0.7-0.7,1.4-1.1,2.1c0,0.1-0.1,0.1-0.1,0.2l-0.9,10.4c0,0.3-0.1,0.5-0.3,0.6
				c-0.2,0.2-0.4,0.2-0.7,0.2c-0.3,0-0.5-0.1-0.6-0.3c-0.2-0.2-0.2-0.4-0.2-0.7l0.6-7c0,0,0,0,0,0c0,0,0,0,0,0
				c-0.1,0.2-0.3,0.3-0.4,0.5c-0.1,0.1-0.3,0.2-0.4,0.2c0,0-0.1,0-0.1,0c-0.2,0-0.3-0.2-0.4-0.4c0-0.1-0.1-0.3-0.1-0.4
				c-0.1-0.2-0.1-0.4-0.1-0.7c0-0.1,0-0.1,0-0.2c0-0.3,0.2-0.5,0.3-0.7C69,166.2,69.9,164.8,70.6,163z M79.7,173.6
				c0.1,0,0.1,0,0.2,0c0.1,0,0.2,0.1,0.4,0.1l0.3,0.2c0.1,0.1,0.2,0.2,0.3,0.4c0,0.2,0,0.3-0.2,0.5c-0.5,0.5-1.1,0.9-1.8,1.2
				c0,0,0,0,0,0c0,0,0,0,0,0.1c0.8,0.2,1.6,0.4,2.5,0.5c0.2,0,0.3,0.1,0.4,0.3c0,0.1,0,0.2,0,0.2c0,0.1,0,0.2-0.1,0.3
				c-0.2,0.2-0.4,0.4-0.6,0.5c-0.2,0.1-0.4,0.1-0.6,0.1c-0.1,0-0.1,0-0.2,0c-1.4-0.3-2.6-0.7-3.6-1.2c-0.1,0-0.1,0-0.2,0
				c-1.1,0.3-2.3,0.5-3.7,0.6c-0.1,0-0.1,0-0.2,0c-0.2,0-0.3-0.1-0.5-0.2c-0.2-0.1-0.4-0.3-0.5-0.5c-0.1-0.2-0.1-0.3,0-0.5
				c0.1-0.2,0.2-0.2,0.4-0.3c0.9,0,1.8-0.1,2.7-0.2c0,0,0,0,0,0c0,0,0,0,0-0.1c-0.3-0.2-0.6-0.5-0.9-0.8c0-0.1-0.1-0.1-0.2,0
				c-0.2,0.1-0.4,0.2-0.7,0.2c-0.1,0-0.3,0.1-0.4,0c-0.1,0-0.2,0-0.3-0.1c-0.2-0.1-0.4-0.2-0.5-0.4c-0.1-0.1-0.1-0.3-0.1-0.5
				c0.1-0.2,0.2-0.3,0.3-0.3c1.3-0.3,2.3-0.7,3.1-1.3c0.1,0,0.1-0.1,0-0.1c-0.2-0.2-0.3-0.5-0.3-0.9c0,0,0,0,0,0c0,0,0,0-0.1,0
				c-0.3,0.4-0.7,0.7-1,0.9c-0.2,0.1-0.4,0.2-0.6,0.2c-0.2,0-0.4-0.1-0.5-0.3c-0.1-0.1-0.2-0.3-0.2-0.4c0-0.2,0.1-0.3,0.2-0.4
				c0.1,0,0.1-0.1,0.2-0.1c0,0,0,0,0,0c0,0,0,0,0,0l-0.2,0c-0.3,0-0.5-0.1-0.6-0.3c-0.2-0.2-0.2-0.4-0.2-0.7l0-0.5
				c0-0.3,0.1-0.5,0.3-0.6c0.2-0.2,0.4-0.2,0.7-0.2l0.4,0c0.1,0,0.1,0,0.1-0.1l0.3-2.9c0-0.3,0.1-0.5,0.3-0.6
				c0.2-0.2,0.4-0.2,0.7-0.2l1.6,0.1c0.1,0,0.1,0,0.2-0.1c0,0,0-0.1,0.1-0.2s0-0.1,0.1-0.2c0-0.1,0-0.1-0.1-0.1l-2.9-0.3
				c-0.2,0-0.3-0.1-0.5-0.2c-0.1-0.1-0.2-0.3-0.2-0.5c0-0.2,0.1-0.3,0.2-0.5c0.1-0.1,0.3-0.2,0.5-0.2l8.5,0.7c0.2,0,0.3,0.1,0.5,0.2
				c0.1,0.1,0.2,0.3,0.2,0.5c0,0.2-0.1,0.3-0.2,0.5c-0.1,0.1-0.3,0.2-0.5,0.2l-3.4-0.3c-0.1,0-0.1,0-0.2,0.1l-0.2,0.4c0,0,0,0,0,0.1
				c0,0,0,0,0.1,0l2.4,0.2c0.3,0,0.5,0.1,0.6,0.3c0.2,0.2,0.2,0.4,0.2,0.7l-0.3,2.9c0,0.1,0,0.1,0.1,0.1l0.3,0
				c0.3,0,0.5,0.1,0.6,0.3c0.2,0.2,0.2,0.4,0.2,0.7l0,0.5c0,0.2-0.1,0.4-0.3,0.6c-0.2,0.2-0.4,0.2-0.7,0.2c0,0,0,0-0.1,0
				c0,0,0,0,0,0c0.1,0.1,0.1,0.1,0.1,0.2c0.1,0.1,0.1,0.2,0.1,0.4c0,0.1,0,0.1,0,0.1c-0.1,0.2-0.2,0.3-0.4,0.4
				c-0.1,0.1-0.2,0.1-0.4,0.1c-0.1,0-0.1,0-0.2,0c-0.2-0.1-0.3-0.2-0.4-0.4c-0.1-0.2-0.3-0.4-0.5-0.7c0,0,0,0-0.1,0c0,0,0,0,0,0.1
				c-0.1,0.4-0.3,0.6-0.5,0.7c-0.2,0.1-0.6,0.2-1,0.1l-1.2-0.1c-0.1,0-0.2,0-0.2,0.1c-0.1,0.1-0.2,0.2-0.3,0.3c0,0,0,0,0,0
				c0,0,0,0,0,0L79.7,173.6C79.6,173.6,79.6,173.6,79.7,173.6z M74.7,171c0-0.1,0.1-0.3,0.2-0.3c0.1-0.1,0.2-0.1,0.4-0.1l0.3,0
				c0.2,0,0.4,0.1,0.5,0.3c0.1,0.2,0.2,0.3,0.2,0.6l0,0.1c0,0.2,0,0.3,0.1,0.3c0.1,0.1,0.2,0.1,0.4,0.1l1.4,0.1c0.2,0,0.3,0,0.3-0.1
				c0.2-0.2,0.3-0.3,0.5-0.2c0,0,0.1,0,0.1,0c0.2,0.1,0.4,0.1,0.6,0.2c0,0,0,0,0,0c0,0,0,0,0,0c-0.1-0.1-0.1-0.2-0.1-0.4
				c0-0.1,0.1-0.2,0.2-0.3l0.3-0.1c0.1,0,0.2-0.1,0.3-0.1c0.1,0,0.3,0.1,0.3,0.2c0,0,0,0,0,0l0-0.3c0-0.1,0-0.1-0.1-0.1l-2.6-0.2
				c0,0,0,0,0,0c0,0,0,0,0,0c0,0,0.1,0.1,0.1,0.1c0.1,0.1,0.2,0.3,0.1,0.5c0,0.2-0.1,0.3-0.3,0.4c-0.1,0.1-0.3,0.1-0.4,0.1
				c-0.1,0-0.1,0-0.2,0c-0.2-0.1-0.3-0.2-0.5-0.3c-0.2-0.3-0.5-0.5-0.8-0.8c-0.1-0.1-0.1-0.1-0.2-0.1l-2.5-0.2c-0.1,0-0.1,0-0.1,0.1
				l-0.1,0.6c0,0,0,0,0,0c0,0,0,0,0,0c0.1-0.1,0.3-0.2,0.4-0.2c0.2,0,0.3,0,0.5,0.1L74.7,171C74.7,171,74.7,171,74.7,171z
				 M75.2,168.6c-0.1,0-0.1,0-0.1,0.1l0,0.3c0,0.1,0,0.1,0.1,0.1l4.2,0.4c0.1,0,0.1,0,0.1-0.1l0-0.3c0-0.1,0-0.1-0.1-0.1L75.2,168.6
				z M79.5,168.2c0.1,0,0.1,0,0.1-0.1l0-0.3c0-0.1,0-0.1-0.1-0.1l-4.2-0.4c-0.1,0-0.1,0-0.1,0.1l0,0.3c0,0.1,0,0.1,0.1,0.1
				L79.5,168.2z M79.7,166.6c0-0.1,0-0.1-0.1-0.1l-4.2-0.4c-0.1,0-0.1,0-0.1,0.1l0,0.3c0,0.1,0,0.1,0.1,0.1l4.2,0.4
				c0.1,0,0.1,0,0.1-0.1L79.7,166.6z M78.3,174.6C78.3,174.6,78.3,174.6,78.3,174.6C78.3,174.6,78.3,174.6,78.3,174.6l-3-0.3
				c0,0,0,0,0,0c0,0,0,0,0,0.1c0.4,0.3,0.8,0.6,1.3,0.9c0.1,0,0.1,0,0.2,0C77.4,175.1,77.9,174.9,78.3,174.6z"/>
			<path class="st8" d="M86.6,177.2c-0.1,0.2-0.3,0.4-0.6,0.4c-0.1,0-0.2,0-0.2,0c-0.2,0-0.3-0.1-0.5-0.2l0,0
				c-0.2-0.1-0.3-0.3-0.4-0.5c0-0.1,0-0.1,0-0.2c0-0.2,0.1-0.3,0.2-0.5c0.2-0.4,0.5-0.8,0.7-1.3c0.1-0.2,0.3-0.4,0.5-0.5
				c0.1-0.1,0.2-0.1,0.4-0.1c0.1,0,0.2,0,0.3,0.1c0.2,0.1,0.4,0.3,0.5,0.5c0,0.1,0.1,0.2,0.1,0.4c0,0.1,0,0.2-0.1,0.3
				C87,176.3,86.8,176.8,86.6,177.2z M90.9,166.4c0.1,0,0.1,0,0.1-0.1l0-0.5c0-0.1,0-0.1-0.1-0.1l-5-0.1c-0.2,0-0.4-0.1-0.5-0.2
				c-0.1-0.2-0.2-0.3-0.2-0.5c0-0.2,0.1-0.4,0.2-0.5c0.1-0.1,0.3-0.2,0.5-0.2l5.1,0.1c0.1,0,0.1,0,0.1-0.1c0-0.2,0.1-0.3,0.2-0.5
				c0.1-0.1,0.3-0.2,0.5-0.2l0.6,0c0.2,0,0.3,0.1,0.5,0.2c0.1,0.1,0.2,0.3,0.2,0.5c0,0.1,0,0.1,0.1,0.1l5.2,0.1
				c0.2,0,0.4,0.1,0.5,0.2c0.1,0.2,0.2,0.3,0.2,0.5c0,0.2-0.1,0.4-0.2,0.5c-0.2,0.1-0.3,0.2-0.5,0.2l-5.2-0.1c-0.1,0-0.1,0-0.1,0.1
				l0,0.5c0,0.1,0,0.1,0.1,0.1l3.9,0.1c0.3,0,0.5,0.1,0.7,0.3c0.2,0.2,0.3,0.4,0.3,0.7l-0.1,2.9c0,0.3-0.1,0.5-0.3,0.7
				c-0.2,0.2-0.4,0.3-0.7,0.3l-0.6,0c0,0,0,0,0,0c0,0,0,0,0,0c0.7,0.4,1.4,0.9,2.1,1.4c0.2,0.1,0.2,0.3,0.2,0.5
				c0,0.2-0.1,0.4-0.3,0.5c-0.2,0.1-0.4,0.2-0.6,0.2c0,0,0,0-0.1,0c-0.2,0-0.5-0.1-0.6-0.3c0,0,0,0-0.1,0c-0.1-0.1-0.1-0.1-0.2-0.1
				c-0.4,0-1.1,0-2.1,0c-1,0-1.8,0-2.3,0c0,0,0,0,0,0c0,0,0,0,0,0c0.5,0.3,0.9,0.6,1.2,0.9c0.2,0.1,0.2,0.3,0.2,0.5
				c0,0.3-0.1,0.5-0.3,0.6c-0.2,0.1-0.4,0.2-0.6,0.2c0,0,0,0,0,0c-0.2,0-0.5-0.1-0.6-0.3c-0.3-0.3-0.6-0.6-1-0.9
				c-0.2-0.1-0.3-0.3-0.3-0.6c0-0.2,0.1-0.4,0.3-0.5l0,0c0,0,0,0,0,0c0,0,0,0,0,0c-3,0-4.7,0-5.3,0l0,0c-0.2,0-0.4-0.1-0.6-0.2
				c-0.2-0.2-0.3-0.4-0.3-0.6c0-0.2,0.1-0.4,0.2-0.5c0.2-0.2,0.3-0.2,0.6-0.2l1.9,0c0.9,0,2,0,3,0.1c0.1,0,0.1,0,0.1-0.1l0-0.7
				c0-0.1,0-0.1-0.1-0.1l-3.9-0.1c-0.3,0-0.5-0.1-0.7-0.3s-0.3-0.4-0.3-0.7l0.1-2.9c0-0.3,0.1-0.5,0.3-0.7c0.2-0.2,0.4-0.3,0.7-0.3
				L90.9,166.4z M87.8,169.9c0,0.1,0,0.1,0.1,0.1l2.9,0.1c0.1,0,0.1,0,0.1-0.1l0-0.5c0-0.1,0-0.1-0.1-0.1l-2.9-0.1
				c-0.1,0-0.1,0-0.1,0.1L87.8,169.9z M88,167.5c-0.1,0-0.1,0-0.1,0.1l0,0.5c0,0.1,0,0.1,0.1,0.1l2.9,0.1c0.1,0,0.1,0,0.1-0.1l0-0.5
				c0-0.1,0-0.1-0.1-0.1L88,167.5z M91,176.7l2.8,0.1c0.3,0,0.4,0,0.6-0.1c0.1-0.1,0.2-0.2,0.3-0.4c0.1-0.2,0.2-0.4,0.4-0.4
				c0.1-0.1,0.2-0.1,0.3-0.1c0.1,0,0.2,0,0.2,0c0.2,0.1,0.4,0.2,0.6,0.5c0.1,0.2,0.2,0.3,0.1,0.5c0,0.1,0,0.1,0,0.2
				c-0.2,0.6-0.4,0.9-0.7,1.1c-0.3,0.2-0.9,0.3-1.6,0.3l-3.2-0.1c-1.1,0-1.9-0.2-2.3-0.5c-0.4-0.3-0.6-0.8-0.5-1.6l0-0.9
				c0-0.3,0.1-0.5,0.3-0.7c0.2-0.2,0.4-0.3,0.7-0.3l0,0c0.3,0,0.5,0.1,0.7,0.3c0.2,0.2,0.3,0.4,0.3,0.7l0,0.9c0,0.2,0.1,0.3,0.2,0.4
				C90.2,176.7,90.5,176.7,91,176.7z M92.9,172c0,0.1,0,0.1,0.1,0.1l1.8,0c0,0,0,0,0,0c0,0,0,0,0,0c-0.1-0.1-0.2-0.2-0.2-0.4
				c0-0.2,0.1-0.3,0.2-0.4l0,0c0,0,0,0,0,0c0,0,0,0,0,0l-1.8,0c-0.1,0-0.1,0-0.1,0.1L92.9,172z M93,169.4c-0.1,0-0.1,0-0.1,0.1
				l0,0.5c0,0.1,0,0.1,0.1,0.1l2.8,0.1c0.1,0,0.1,0,0.1-0.1l0-0.5c0-0.1,0-0.1-0.1-0.1L93,169.4z M96,167.7c0-0.1,0-0.1-0.1-0.1
				l-2.8-0.1c-0.1,0-0.1,0-0.1,0.1l0,0.5c0,0.1,0,0.1,0.1,0.1l2.8,0.1c0.1,0,0.1,0,0.1-0.1L96,167.7z M96.3,175.7
				c-0.1-0.1-0.1-0.2-0.1-0.4c0-0.1,0-0.2,0.1-0.2c0.1-0.2,0.2-0.3,0.4-0.4c0.1,0,0.2-0.1,0.4-0.1c0.1,0,0.3,0,0.4,0.1
				c0.3,0.1,0.4,0.2,0.6,0.5c0.3,0.5,0.6,1.1,0.8,1.6c0.1,0.1,0.1,0.2,0.1,0.3c0,0.1,0,0.2-0.1,0.4c-0.1,0.2-0.3,0.4-0.6,0.4l0,0
				c-0.1,0-0.2,0-0.3,0c-0.1,0-0.3,0-0.4-0.1c-0.2-0.1-0.4-0.3-0.5-0.5C96.9,176.8,96.6,176.3,96.3,175.7z"/>
		</g>
		<g>
			<path class="st7" d="M40.1,157.1c0.1,0,0.1,0,0.2,0c0.1,0,0.2,0.1,0.3,0.2l0.4,0.4c0.2,0.2,0.3,0.3,0.3,0.6c0,0.1,0,0.2,0,0.3
				c0,0.1-0.1,0.2-0.1,0.3c-1,1.5-1.7,2.6-2.1,3.2c0,0.1,0,0.1,0,0.2c0.5,1.1,0.6,2.3,0.3,3.4c0,0,0,0.1,0,0.1
				c-0.2,1-0.7,1.6-1.2,1.8c-0.2,0.1-0.6,0.2-1,0.1c-0.1,0-0.1,0-0.2,0c0,0,0,0-0.1,0c-0.2-0.1-0.4-0.2-0.5-0.4
				c-0.1-0.2-0.2-0.5-0.2-0.7c0-0.1,0-0.1,0-0.2c0-0.1,0.1-0.2,0.2-0.3c0.2-0.1,0.3-0.2,0.5-0.2c0.1,0,0.2,0,0.4-0.1
				c0.2-0.1,0.4-0.4,0.5-0.8c0.2-0.7,0.1-1.4-0.1-2.2c-0.1-0.4-0.1-0.8-0.1-1.2c0-0.2,0.1-0.3,0.2-0.5c0.3-0.5,0.8-1.3,1.3-2.4
				c0,0,0,0,0-0.1c0,0,0,0-0.1-0.1l-1.2-0.3c-0.1,0-0.1,0-0.2,0.1l-2.9,11.3c-0.1,0.2-0.2,0.4-0.4,0.6c-0.2,0.1-0.4,0.2-0.7,0.1
				c-0.2-0.1-0.4-0.2-0.5-0.4c-0.1-0.2-0.2-0.4-0.1-0.7l3.1-12.2c0.1-0.3,0.2-0.4,0.4-0.6c0.2-0.1,0.5-0.2,0.7-0.1L40.1,157.1
				C40,157.1,40.1,157.1,40.1,157.1z M46,167.3c0.2-0.1,0.5-0.2,0.7-0.2c0.1,0,0.1,0,0.1,0c0.2,0,0.4,0.2,0.5,0.3
				c0.2,0.2,0.2,0.4,0.2,0.7c-0.1,0.2-0.2,0.4-0.4,0.5c-0.6,0.3-1.2,0.6-1.7,0.8c-0.1,0-0.1,0.1-0.1,0.2c0.3,0.7,0.7,1.4,1.2,1.9
				c0.2,0.2,0.2,0.4,0.2,0.6c0,0,0,0.1,0,0.1c0,0.2-0.1,0.3-0.3,0.4c-0.1,0-0.1,0.1-0.2,0.1c-0.2,0.2-0.4,0.3-0.7,0.3
				c-0.1,0-0.1,0-0.2,0c-0.2,0-0.3-0.1-0.4-0.3c-1.3-1.6-1.9-3.9-1.9-6.9c0-0.1,0-0.1-0.1-0.1l-0.9-0.2c-0.1,0-0.1,0-0.2,0.1l-1,3.8
				c0,0.1,0,0.1,0.1,0.1c0.4,0,0.9,0.1,1.4,0.1c0.1,0,0.1,0,0.2,0c0.2,0,0.3,0.1,0.4,0.3c0.1,0.2,0.2,0.4,0.2,0.6c0,0,0,0.1,0,0.1
				c-0.1,0.2-0.2,0.4-0.3,0.5c-0.2,0.2-0.4,0.2-0.6,0.2c-0.3,0-1.5-0.1-3.7-0.1c-0.1,0-0.2,0-0.2,0c-0.2,0-0.3-0.1-0.5-0.3
				c-0.2-0.2-0.3-0.4-0.3-0.7l0-0.1c0-0.1,0-0.2,0-0.3c0-0.1,0.1-0.3,0.2-0.4c0.2-0.2,0.4-0.2,0.6-0.2c0.3,0,0.6,0.1,0.7,0.1
				c0.1,0,0.1,0,0.2-0.1l2.7-10.6c0.1-0.3,0.2-0.4,0.4-0.6c0.2-0.1,0.5-0.2,0.7-0.1l5.5,1.4c0.2,0.1,0.4,0.2,0.6,0.4
				c0.1,0.2,0.2,0.5,0.1,0.7l-1.4,5.5c-0.1,0.2-0.2,0.4-0.4,0.6c-0.2,0.1-0.5,0.2-0.7,0.1l-1.7-0.4c0,0-0.1,0-0.1,0c0,0,0,0,0,0.1
				c0,0.5,0,1.1,0.1,1.6c0,0.1,0.1,0.1,0.1,0.1C45.4,167.7,45.7,167.5,46,167.3z M42.8,162.5c-0.1,0-0.1,0-0.2,0.1l-0.3,1.1
				c0,0.1,0,0.1,0.1,0.1l3.4,0.9c0.1,0,0.1,0,0.2-0.1l0.3-1.1c0-0.1,0-0.1-0.1-0.2L42.8,162.5z M47,160.8c0-0.1,0-0.1-0.1-0.2
				l-3.4-0.9c-0.1,0-0.1,0-0.2,0.1l-0.3,1c0,0.1,0,0.1,0.1,0.1l3.4,0.9c0.1,0,0.1,0,0.2-0.1L47,160.8z"/>
			<path class="st7" d="M56.2,161c0.3,0,0.5,0.2,0.6,0.4c0.1,0.2,0.2,0.4,0.2,0.7l-1.5,9c0,0.3-0.2,0.5-0.4,0.6
				c-0.2,0.1-0.4,0.2-0.7,0.2l-2.2-0.4c-0.1,0-0.1,0-0.1,0.1l-0.1,0.4c0,0.2-0.2,0.4-0.4,0.6c-0.2,0.1-0.4,0.2-0.7,0.2
				c-0.2,0-0.4-0.2-0.6-0.4c-0.1-0.2-0.2-0.4-0.2-0.7l1.7-10.5c0-0.3,0.2-0.5,0.4-0.6c0.2-0.2,0.4-0.2,0.7-0.2L56.2,161z
				 M52.4,169.7c0,0.1,0,0.1,0.1,0.1l1.2,0.2c0.1,0,0.1,0,0.1-0.1l0.5-2.8c0-0.1,0-0.1-0.1-0.1l-1.2-0.2c-0.1,0-0.1,0-0.1,0.1
				L52.4,169.7z M55.1,162.7c0-0.1,0-0.1-0.1-0.1l-1.2-0.2c-0.1,0-0.1,0-0.1,0.1l-0.4,2.6c0,0.1,0,0.1,0.1,0.1l1.2,0.2
				c0.1,0,0.1,0,0.1-0.1L55.1,162.7z M65.7,166.7c0.1,0.2,0.2,0.4,0.1,0.6c0,0.2-0.2,0.4-0.3,0.5c-0.2,0.1-0.4,0.2-0.6,0.1l-0.7-0.1
				c-0.1,0-0.1,0-0.1,0.1l-0.2,1.1c0,0.1,0,0.1,0.1,0.1l0.6,0.1c0.2,0,0.4,0.2,0.5,0.3c0.1,0.2,0.2,0.4,0.1,0.6
				c0,0.2-0.2,0.4-0.3,0.5c-0.2,0.1-0.4,0.2-0.6,0.1l-0.6-0.1c-0.1,0-0.1,0-0.1,0.1l-0.6,3.4c-0.1,0.5-0.2,0.8-0.3,1.1
				c-0.2,0.2-0.4,0.4-0.7,0.5c-0.4,0.1-1,0.1-1.8,0c0,0,0,0,0,0c-0.2,0-0.4-0.2-0.6-0.3c-0.2-0.2-0.3-0.4-0.3-0.7c0,0,0,0,0,0
				c0-0.1,0-0.2,0-0.2c0-0.1,0.1-0.2,0.2-0.3c0.1-0.2,0.3-0.2,0.5-0.2l0,0c0.3,0,0.6,0.1,1,0.2c0.1,0,0.2,0,0.3,0
				c0.1,0,0.1-0.1,0.1-0.2l0.5-3.3c0-0.1,0-0.1-0.1-0.1l-4.7-0.8c-0.2,0-0.4-0.1-0.5-0.3c-0.1-0.2-0.2-0.4-0.1-0.6
				c0-0.2,0.1-0.4,0.3-0.5c0.2-0.1,0.4-0.2,0.6-0.1l4.7,0.8c0.1,0,0.1,0,0.1-0.1l0.2-1.1c0-0.1,0-0.1-0.1-0.1l-4.7-0.8
				c-0.2,0-0.4-0.2-0.6-0.3c-0.1-0.2-0.2-0.4-0.2-0.6c0-0.2,0.2-0.4,0.3-0.5c0.2-0.1,0.4-0.2,0.6-0.1l2.7,0.4c0.1,0,0.1,0,0.1-0.1
				l0.2-1.2c0-0.1,0-0.1-0.1-0.1l-2.1-0.3c-0.2,0-0.4-0.2-0.6-0.3c-0.1-0.2-0.2-0.4-0.1-0.6c0-0.2,0.2-0.4,0.3-0.5
				c0.2-0.1,0.4-0.2,0.6-0.1l2.1,0.3c0.1,0,0.1,0,0.1-0.1l0.1-0.6c0-0.3,0.2-0.5,0.4-0.6c0.2-0.1,0.4-0.2,0.7-0.2l0,0
				c0.3,0,0.5,0.2,0.6,0.4c0.2,0.2,0.2,0.4,0.2,0.7l-0.1,0.6c0,0.1,0,0.1,0.1,0.1l2.3,0.4c0.2,0,0.4,0.2,0.6,0.3
				c0.1,0.2,0.2,0.4,0.2,0.6c0,0.2-0.2,0.4-0.3,0.6c-0.2,0.1-0.4,0.2-0.6,0.2l-2.3-0.4c-0.1,0-0.1,0-0.1,0.1l-0.2,1.2
				c0,0.1,0,0.1,0.1,0.1l2.7,0.4C65.4,166.4,65.5,166.5,65.7,166.7z M57,171.7c-0.1-0.2-0.1-0.3-0.1-0.5c0,0,0-0.1,0-0.1
				c0.1-0.2,0.2-0.4,0.4-0.5c0.2-0.1,0.4-0.1,0.6-0.1c0.1,0,0.1,0,0.2,0c0.2,0.1,0.4,0.2,0.6,0.4c0.3,0.5,0.5,0.9,0.7,1.3
				c0.1,0.2,0.1,0.3,0.1,0.5c0,0.1,0,0.1-0.1,0.2c-0.1,0.2-0.3,0.4-0.5,0.5l0,0c-0.1,0.1-0.3,0.1-0.4,0c-0.1,0-0.2,0-0.3-0.1
				c-0.2-0.1-0.4-0.3-0.5-0.5C57.5,172.6,57.3,172.1,57,171.7z"/>
			<path class="st7" d="M70.6,163c0.1-0.2,0.3-0.4,0.5-0.5c0.1-0.1,0.3-0.1,0.4-0.1c0.1,0,0.2,0,0.3,0.1c0.2,0.1,0.4,0.3,0.5,0.5
				c0.1,0.1,0.1,0.3,0.1,0.4c0,0.1,0,0.2-0.1,0.3c-0.3,0.7-0.7,1.4-1.1,2.1c0,0.1-0.1,0.1-0.1,0.2l-0.9,10.4c0,0.3-0.1,0.5-0.3,0.6
				c-0.2,0.2-0.4,0.2-0.7,0.2c-0.3,0-0.5-0.1-0.6-0.3c-0.2-0.2-0.2-0.4-0.2-0.7l0.6-7c0,0,0,0,0,0c0,0,0,0,0,0
				c-0.1,0.2-0.3,0.3-0.4,0.5c-0.1,0.1-0.3,0.2-0.4,0.2c0,0-0.1,0-0.1,0c-0.2,0-0.3-0.2-0.4-0.4c0-0.1-0.1-0.3-0.1-0.4
				c-0.1-0.2-0.1-0.4-0.1-0.7c0-0.1,0-0.1,0-0.2c0-0.3,0.2-0.5,0.3-0.7C69,166.2,69.9,164.8,70.6,163z M79.7,173.6
				c0.1,0,0.1,0,0.2,0c0.1,0,0.2,0.1,0.4,0.1l0.3,0.2c0.1,0.1,0.2,0.2,0.3,0.4c0,0.2,0,0.3-0.2,0.5c-0.5,0.5-1.1,0.9-1.8,1.2
				c0,0,0,0,0,0c0,0,0,0,0,0.1c0.8,0.2,1.6,0.4,2.5,0.5c0.2,0,0.3,0.1,0.4,0.3c0,0.1,0,0.2,0,0.2c0,0.1,0,0.2-0.1,0.3
				c-0.2,0.2-0.4,0.4-0.6,0.5c-0.2,0.1-0.4,0.1-0.6,0.1c-0.1,0-0.1,0-0.2,0c-1.4-0.3-2.6-0.7-3.6-1.2c-0.1,0-0.1,0-0.2,0
				c-1.1,0.3-2.3,0.5-3.7,0.6c-0.1,0-0.1,0-0.2,0c-0.2,0-0.3-0.1-0.5-0.2c-0.2-0.1-0.4-0.3-0.5-0.5c-0.1-0.2-0.1-0.3,0-0.5
				c0.1-0.2,0.2-0.2,0.4-0.3c0.9,0,1.8-0.1,2.7-0.2c0,0,0,0,0,0c0,0,0,0,0-0.1c-0.3-0.2-0.6-0.5-0.9-0.8c0-0.1-0.1-0.1-0.2,0
				c-0.2,0.1-0.4,0.2-0.7,0.2c-0.1,0-0.3,0.1-0.4,0c-0.1,0-0.2,0-0.3-0.1c-0.2-0.1-0.4-0.2-0.5-0.4c-0.1-0.1-0.1-0.3-0.1-0.5
				c0.1-0.2,0.2-0.3,0.3-0.3c1.3-0.3,2.3-0.7,3.1-1.3c0.1,0,0.1-0.1,0-0.1c-0.2-0.2-0.3-0.5-0.3-0.9c0,0,0,0,0,0c0,0,0,0-0.1,0
				c-0.3,0.4-0.7,0.7-1,0.9c-0.2,0.1-0.4,0.2-0.6,0.2c-0.2,0-0.4-0.1-0.5-0.3c-0.1-0.1-0.2-0.3-0.2-0.4c0-0.2,0.1-0.3,0.2-0.4
				c0.1,0,0.1-0.1,0.2-0.1c0,0,0,0,0,0c0,0,0,0,0,0l-0.2,0c-0.3,0-0.5-0.1-0.6-0.3c-0.2-0.2-0.2-0.4-0.2-0.7l0-0.5
				c0-0.3,0.1-0.5,0.3-0.6c0.2-0.2,0.4-0.2,0.7-0.2l0.4,0c0.1,0,0.1,0,0.1-0.1l0.3-2.9c0-0.3,0.1-0.5,0.3-0.6
				c0.2-0.2,0.4-0.2,0.7-0.2l1.6,0.1c0.1,0,0.1,0,0.2-0.1c0,0,0-0.1,0.1-0.2s0-0.1,0.1-0.2c0-0.1,0-0.1-0.1-0.1l-2.9-0.3
				c-0.2,0-0.3-0.1-0.5-0.2c-0.1-0.1-0.2-0.3-0.2-0.5c0-0.2,0.1-0.3,0.2-0.5c0.1-0.1,0.3-0.2,0.5-0.2l8.5,0.7c0.2,0,0.3,0.1,0.5,0.2
				c0.1,0.1,0.2,0.3,0.2,0.5c0,0.2-0.1,0.3-0.2,0.5c-0.1,0.1-0.3,0.2-0.5,0.2l-3.4-0.3c-0.1,0-0.1,0-0.2,0.1l-0.2,0.4c0,0,0,0,0,0.1
				c0,0,0,0,0.1,0l2.4,0.2c0.3,0,0.5,0.1,0.6,0.3c0.2,0.2,0.2,0.4,0.2,0.7l-0.3,2.9c0,0.1,0,0.1,0.1,0.1l0.3,0
				c0.3,0,0.5,0.1,0.6,0.3c0.2,0.2,0.2,0.4,0.2,0.7l0,0.5c0,0.2-0.1,0.4-0.3,0.6c-0.2,0.2-0.4,0.2-0.7,0.2c0,0,0,0-0.1,0
				c0,0,0,0,0,0c0.1,0.1,0.1,0.1,0.1,0.2c0.1,0.1,0.1,0.2,0.1,0.4c0,0.1,0,0.1,0,0.1c-0.1,0.2-0.2,0.3-0.4,0.4
				c-0.1,0.1-0.2,0.1-0.4,0.1c-0.1,0-0.1,0-0.2,0c-0.2-0.1-0.3-0.2-0.4-0.4c-0.1-0.2-0.3-0.4-0.5-0.7c0,0,0,0-0.1,0c0,0,0,0,0,0.1
				c-0.1,0.4-0.3,0.6-0.5,0.7c-0.2,0.1-0.6,0.2-1,0.1l-1.2-0.1c-0.1,0-0.2,0-0.2,0.1c-0.1,0.1-0.2,0.2-0.3,0.3c0,0,0,0,0,0
				c0,0,0,0,0,0L79.7,173.6C79.6,173.6,79.6,173.6,79.7,173.6z M74.7,171c0-0.1,0.1-0.3,0.2-0.3c0.1-0.1,0.2-0.1,0.4-0.1l0.3,0
				c0.2,0,0.4,0.1,0.5,0.3c0.1,0.2,0.2,0.3,0.2,0.6l0,0.1c0,0.2,0,0.3,0.1,0.3c0.1,0.1,0.2,0.1,0.4,0.1l1.4,0.1c0.2,0,0.3,0,0.3-0.1
				c0.2-0.2,0.3-0.3,0.5-0.2c0,0,0.1,0,0.1,0c0.2,0.1,0.4,0.1,0.6,0.2c0,0,0,0,0,0c0,0,0,0,0,0c-0.1-0.1-0.1-0.2-0.1-0.4
				c0-0.1,0.1-0.2,0.2-0.3l0.3-0.1c0.1,0,0.2-0.1,0.3-0.1c0.1,0,0.3,0.1,0.3,0.2c0,0,0,0,0,0l0-0.3c0-0.1,0-0.1-0.1-0.1l-2.6-0.2
				c0,0,0,0,0,0c0,0,0,0,0,0c0,0,0.1,0.1,0.1,0.1c0.1,0.1,0.2,0.3,0.1,0.5c0,0.2-0.1,0.3-0.3,0.4c-0.1,0.1-0.3,0.1-0.4,0.1
				c-0.1,0-0.1,0-0.2,0c-0.2-0.1-0.3-0.2-0.5-0.3c-0.2-0.3-0.5-0.5-0.8-0.8c-0.1-0.1-0.1-0.1-0.2-0.1l-2.5-0.2c-0.1,0-0.1,0-0.1,0.1
				l-0.1,0.6c0,0,0,0,0,0c0,0,0,0,0,0c0.1-0.1,0.3-0.2,0.4-0.2c0.2,0,0.3,0,0.5,0.1L74.7,171C74.7,171,74.7,171,74.7,171z
				 M75.2,168.6c-0.1,0-0.1,0-0.1,0.1l0,0.3c0,0.1,0,0.1,0.1,0.1l4.2,0.4c0.1,0,0.1,0,0.1-0.1l0-0.3c0-0.1,0-0.1-0.1-0.1L75.2,168.6
				z M79.5,168.2c0.1,0,0.1,0,0.1-0.1l0-0.3c0-0.1,0-0.1-0.1-0.1l-4.2-0.4c-0.1,0-0.1,0-0.1,0.1l0,0.3c0,0.1,0,0.1,0.1,0.1
				L79.5,168.2z M79.7,166.6c0-0.1,0-0.1-0.1-0.1l-4.2-0.4c-0.1,0-0.1,0-0.1,0.1l0,0.3c0,0.1,0,0.1,0.1,0.1l4.2,0.4
				c0.1,0,0.1,0,0.1-0.1L79.7,166.6z M78.3,174.6C78.3,174.6,78.3,174.6,78.3,174.6C78.3,174.6,78.3,174.6,78.3,174.6l-3-0.3
				c0,0,0,0,0,0c0,0,0,0,0,0.1c0.4,0.3,0.8,0.6,1.3,0.9c0.1,0,0.1,0,0.2,0C77.4,175.1,77.9,174.9,78.3,174.6z"/>
			<path class="st7" d="M86.6,177.2c-0.1,0.2-0.3,0.4-0.6,0.4c-0.1,0-0.2,0-0.2,0c-0.2,0-0.3-0.1-0.5-0.2l0,0
				c-0.2-0.1-0.3-0.3-0.4-0.5c0-0.1,0-0.1,0-0.2c0-0.2,0.1-0.3,0.2-0.5c0.2-0.4,0.5-0.8,0.7-1.3c0.1-0.2,0.3-0.4,0.5-0.5
				c0.1-0.1,0.2-0.1,0.4-0.1c0.1,0,0.2,0,0.3,0.1c0.2,0.1,0.4,0.3,0.5,0.5c0,0.1,0.1,0.2,0.1,0.4c0,0.1,0,0.2-0.1,0.3
				C87,176.3,86.8,176.8,86.6,177.2z M90.9,166.4c0.1,0,0.1,0,0.1-0.1l0-0.5c0-0.1,0-0.1-0.1-0.1l-5-0.1c-0.2,0-0.4-0.1-0.5-0.2
				c-0.1-0.2-0.2-0.3-0.2-0.5c0-0.2,0.1-0.4,0.2-0.5c0.1-0.1,0.3-0.2,0.5-0.2l5.1,0.1c0.1,0,0.1,0,0.1-0.1c0-0.2,0.1-0.3,0.2-0.5
				c0.1-0.1,0.3-0.2,0.5-0.2l0.6,0c0.2,0,0.3,0.1,0.5,0.2c0.1,0.1,0.2,0.3,0.2,0.5c0,0.1,0,0.1,0.1,0.1l5.2,0.1
				c0.2,0,0.4,0.1,0.5,0.2c0.1,0.2,0.2,0.3,0.2,0.5c0,0.2-0.1,0.4-0.2,0.5c-0.2,0.1-0.3,0.2-0.5,0.2l-5.2-0.1c-0.1,0-0.1,0-0.1,0.1
				l0,0.5c0,0.1,0,0.1,0.1,0.1l3.9,0.1c0.3,0,0.5,0.1,0.7,0.3c0.2,0.2,0.3,0.4,0.3,0.7l-0.1,2.9c0,0.3-0.1,0.5-0.3,0.7
				c-0.2,0.2-0.4,0.3-0.7,0.3l-0.6,0c0,0,0,0,0,0c0,0,0,0,0,0c0.7,0.4,1.4,0.9,2.1,1.4c0.2,0.1,0.2,0.3,0.2,0.5
				c0,0.2-0.1,0.4-0.3,0.5c-0.2,0.1-0.4,0.2-0.6,0.2c0,0,0,0-0.1,0c-0.2,0-0.5-0.1-0.6-0.3c0,0,0,0-0.1,0c-0.1-0.1-0.1-0.1-0.2-0.1
				c-0.4,0-1.1,0-2.1,0c-1,0-1.8,0-2.3,0c0,0,0,0,0,0c0,0,0,0,0,0c0.5,0.3,0.9,0.6,1.2,0.9c0.2,0.1,0.2,0.3,0.2,0.5
				c0,0.3-0.1,0.5-0.3,0.6c-0.2,0.1-0.4,0.2-0.6,0.2c0,0,0,0,0,0c-0.2,0-0.5-0.1-0.6-0.3c-0.3-0.3-0.6-0.6-1-0.9
				c-0.2-0.1-0.3-0.3-0.3-0.6c0-0.2,0.1-0.4,0.3-0.5l0,0c0,0,0,0,0,0c0,0,0,0,0,0c-3,0-4.7,0-5.3,0l0,0c-0.2,0-0.4-0.1-0.6-0.2
				c-0.2-0.2-0.3-0.4-0.3-0.6c0-0.2,0.1-0.4,0.2-0.5c0.2-0.2,0.3-0.2,0.6-0.2l1.9,0c0.9,0,2,0,3,0.1c0.1,0,0.1,0,0.1-0.1l0-0.7
				c0-0.1,0-0.1-0.1-0.1l-3.9-0.1c-0.3,0-0.5-0.1-0.7-0.3s-0.3-0.4-0.3-0.7l0.1-2.9c0-0.3,0.1-0.5,0.3-0.7c0.2-0.2,0.4-0.3,0.7-0.3
				L90.9,166.4z M87.8,169.9c0,0.1,0,0.1,0.1,0.1l2.9,0.1c0.1,0,0.1,0,0.1-0.1l0-0.5c0-0.1,0-0.1-0.1-0.1l-2.9-0.1
				c-0.1,0-0.1,0-0.1,0.1L87.8,169.9z M88,167.5c-0.1,0-0.1,0-0.1,0.1l0,0.5c0,0.1,0,0.1,0.1,0.1l2.9,0.1c0.1,0,0.1,0,0.1-0.1l0-0.5
				c0-0.1,0-0.1-0.1-0.1L88,167.5z M91,176.7l2.8,0.1c0.3,0,0.4,0,0.6-0.1c0.1-0.1,0.2-0.2,0.3-0.4c0.1-0.2,0.2-0.4,0.4-0.4
				c0.1-0.1,0.2-0.1,0.3-0.1c0.1,0,0.2,0,0.2,0c0.2,0.1,0.4,0.2,0.6,0.5c0.1,0.2,0.2,0.3,0.1,0.5c0,0.1,0,0.1,0,0.2
				c-0.2,0.6-0.4,0.9-0.7,1.1c-0.3,0.2-0.9,0.3-1.6,0.3l-3.2-0.1c-1.1,0-1.9-0.2-2.3-0.5c-0.4-0.3-0.6-0.8-0.5-1.6l0-0.9
				c0-0.3,0.1-0.5,0.3-0.7c0.2-0.2,0.4-0.3,0.7-0.3l0,0c0.3,0,0.5,0.1,0.7,0.3c0.2,0.2,0.3,0.4,0.3,0.7l0,0.9c0,0.2,0.1,0.3,0.2,0.4
				C90.2,176.7,90.5,176.7,91,176.7z M92.9,172c0,0.1,0,0.1,0.1,0.1l1.8,0c0,0,0,0,0,0c0,0,0,0,0,0c-0.1-0.1-0.2-0.2-0.2-0.4
				c0-0.2,0.1-0.3,0.2-0.4l0,0c0,0,0,0,0,0c0,0,0,0,0,0l-1.8,0c-0.1,0-0.1,0-0.1,0.1L92.9,172z M93,169.4c-0.1,0-0.1,0-0.1,0.1
				l0,0.5c0,0.1,0,0.1,0.1,0.1l2.8,0.1c0.1,0,0.1,0,0.1-0.1l0-0.5c0-0.1,0-0.1-0.1-0.1L93,169.4z M96,167.7c0-0.1,0-0.1-0.1-0.1
				l-2.8-0.1c-0.1,0-0.1,0-0.1,0.1l0,0.5c0,0.1,0,0.1,0.1,0.1l2.8,0.1c0.1,0,0.1,0,0.1-0.1L96,167.7z M96.3,175.7
				c-0.1-0.1-0.1-0.2-0.1-0.4c0-0.1,0-0.2,0.1-0.2c0.1-0.2,0.2-0.3,0.4-0.4c0.1,0,0.2-0.1,0.4-0.1c0.1,0,0.3,0,0.4,0.1
				c0.3,0.1,0.4,0.2,0.6,0.5c0.3,0.5,0.6,1.1,0.8,1.6c0.1,0.1,0.1,0.2,0.1,0.3c0,0.1,0,0.2-0.1,0.4c-0.1,0.2-0.3,0.4-0.6,0.4l0,0
				c-0.1,0-0.2,0-0.3,0c-0.1,0-0.3,0-0.4-0.1c-0.2-0.1-0.4-0.3-0.5-0.5C96.9,176.8,96.6,176.3,96.3,175.7z"/>
		</g>
	</g>
</g>
</svg>
