<svg xmlns="http://www.w3.org/2000/svg" viewBox="0 0 318.35 214.48"><path d="M274.02 110.13a8.66 8.66 0 00-1.75-.46 3.84 3.84 0 00-1.31 1.2c-.11.17.47.51.73.77zm17.53 20.88c.18 0 .52-.14.8-.23-.86-.77-1.55-1.41-2.32-2-.09-.08-.59 0-.9 0a6.47 6.47 0 00.84 1.63 4 4 0 001.58.6z" fill="none"/><path d="M110.49 86.61a.19.19 0 000 .15 14.52 14.52 0 011.07 1.69 1.51 1.51 0 01.15.39 1.28 1.28 0 01-.1.76 1.53 1.53 0 01-.77.89l5.77-1.22h-.1a1.4 1.4 0 01-1.17-.55 1.46 1.46 0 01-.37-.69 1.79 1.79 0 010-.57c.09-.62.14-1.16.17-1.64a.35.35 0 00-.08-.16.15.15 0 00-.16 0l-4.29.9a.15.15 0 00-.12.05z" fill="#375787"/><rect x="2523.09" y="-34.24" width="3.32" height="2.19" rx=".25" transform="rotate(-11.95 2159.695 11520.653)" fill="#375787"/><path d="M89.62 141.41a.11.11 0 00.08-.08 34.14 34.14 0 00.28-7.72c0-.15-.09-.2-.25-.17l-3.81.81a.14.14 0 00-.13.13.4.4 0 000 .2 38.47 38.47 0 003.68 6.79.12.12 0 00.15.04zm25.7-11.63l6.56-1.39a.22.22 0 00.2-.29l-.38-1.78c0-.17-.13-.23-.3-.19l-6.56 1.38a.21.21 0 00-.16.29l.37 1.78c.04.17.13.23.27.2zm9.31 5.53l-2.76.59a.22.22 0 00-.2.29l.35 1.63c0 .14.13.19.29.16l2.76-.58c.16 0 .23-.13.2-.27l-.34-1.63a.23.23 0 00-.3-.19zm22.13-45.82l13.58-2.88c.16 0 .23-.12.2-.26l-.88-4.14c0-.15-.12-.2-.29-.16L146 84.88a.19.19 0 00-.17.26c.29 1.34.52 2.74.7 4.17.03.15.1.21.23.18z" fill="#375787"/><path d="M39.62 102.34c0 .64-.17 1.15-.53 1.31a1.44 1.44 0 01.13.85c-.22.73.24 1.23.65 1.74-.06.17-.11.35-.16.53a1.31 1.31 0 01-.82.85h-.18a69.14 69.14 0 001.46 13.7 68 68 0 0029.59 43.26 68.08 68.08 0 0051.52 9.75h.15a68.1 68.1 0 0043.13-29.56 68.08 68.08 0 009.75-51.52 68 68 0 00-29.55-43.32 68.08 68.08 0 00-51.52-9.75h-.16a68.56 68.56 0 00-51.19 46.51.88.88 0 01.29.09 3.46 3.46 0 01.66.42 2.37 2.37 0 01.57.64 1.06 1.06 0 01-.09 1c-.23 1.31-.54-.72-.8-.25-.45-.63-.81-.66-1.08-.1l-.06-.15a68.7 68.7 0 00-2.36 12.33l.12.16a3.52 3.52 0 01.48 1.51zm12 37.71a1.59 1.59 0 01-.34-1.35c.27-.63-.28-1.67.2-2.19l1.82.93a4.7 4.7 0 01.51 1.63 1.33 1.33 0 01-.11.61c-.63.46-1.23.9-2.11.37zm5 8.94v.05l-1.49.54c-.07-.16-.13-.33-.2-.49a1.4 1.4 0 01.35-1 .8.8 0 01.88-.19 1.31 1.31 0 01.41.48 1.19 1.19 0 01-.03.61zm21.14 19.45c-.29 0-.59.08-.69-.55.47-1.42 1.11-1.37 1.92.32-.17.84-.89-.18-1.23.23zm.93-2c-.32.14-.54-.27-.72-.6-.08-.14-.07-.54 0-.57.33-.15.49.37.78.66.01.19.01.5.01.53zm51.78-22.55a1.77 1.77 0 01-.27 1.4 1.79 1.79 0 01-1.16.79l-.77.16a1 1 0 01-.8-.15 1.06 1.06 0 01-.47-.7q0-.12-.18-.09l-9.38 2a.14.14 0 00-.12.18 1.09 1.09 0 01-.15.82 1 1 0 01-.7.48l-.61.13a1.68 1.68 0 01-1.32-.25 1.66 1.66 0 01-.76-1.1l-2.02-9.65a.08.08 0 00-.07-.07h-.09l-.17.42a1.31 1.31 0 01-1 .78 1.39 1.39 0 01-1.21-.28c-.44-.36-.9-.71-1.38-1.06a.1.1 0 00-.09 0 .08.08 0 000 .09l2.23 10.51a1.75 1.75 0 01-.27 1.41 1.82 1.82 0 01-1.16.79h-.06a1.82 1.82 0 01-1.38-.25 1.76 1.76 0 01-.81-1.18l-1.77-8.37s0-.06-.08-.08a.1.1 0 00-.1 0c-.4.6-.83 1.17-1.27 1.71a1.28 1.28 0 01-.74.45 1.79 1.79 0 01-.41 0 1.39 1.39 0 01-1.09-.63 1.42 1.42 0 01-.22-.28 2 2 0 01-.41-.87 1.67 1.67 0 010-.5 2 2 0 01.48-1.33 23.09 23.09 0 004.78-8.92.13.13 0 000-.12.12.12 0 00-.13 0l-4.91 1a1.66 1.66 0 01-1.3-.24 1.66 1.66 0 01-.74-1.09 1.66 1.66 0 01.24-1.3 1.63 1.63 0 011.09-.74l1.84-.39a.2.2 0 00.17-.26l-.8-3.74a1.8 1.8 0 01.27-1.41 1.82 1.82 0 011.16-.79h.06a1.85 1.85 0 011.39.25 1.76 1.76 0 01.8 1.18l.8 3.74a.19.19 0 00.26.17l1-.21h.15a.93.93 0 01.36-.14 1.36 1.36 0 01.78.09l.59.19a1.76 1.76 0 01.78.67 2.3 2.3 0 01.17.48 1.9 1.9 0 010 .54 33.46 33.46 0 01-1.56 5.68.25.25 0 00.11.33c.92.45 2 1 3.32 1.76h.06v-.06a.85.85 0 01.12-.65.88.88 0 01.56-.39l14-3a1.81 1.81 0 011.39.27 1.82 1.82 0 01.81 1.16zm-18.49-12.4l-.89-4.23a1.77 1.77 0 01.26-1.39 1.77 1.77 0 011.16-.8l10.25-2.14a1.82 1.82 0 011.39.27 1.82 1.82 0 01.81 1.16l.89 4.23a1.77 1.77 0 01-.26 1.4 1.77 1.77 0 01-1.17.79l-10.18 2.16a1.82 1.82 0 01-1.38-.25 1.81 1.81 0 01-.86-1.18zm28.16 20.6c-.54-.57-1 1.1-1.61-.49 0-.67.17-1.08.77-.84s1.28.19.86 1.35zm9.17-19.1a1.75 1.75 0 01-.79-1.16l-3-13.92a1.76 1.76 0 01.25-1.4 1.77 1.77 0 011.17-.79 1.76 1.76 0 011.4.25 1.78 1.78 0 01.8 1.17l2.94 13.93a1.78 1.78 0 01-.25 1.38 1.76 1.76 0 01-1.17.81 1.73 1.73 0 01-1.33-.25zm12.75 11.89c-.73.77-1.71.16-2.61-.08l-1.3-1.6.43-.78h.23c.54.23 1 0 1.58.24a7.08 7.08 0 001.37 1.32 1.58 1.58 0 01.32.92zm-1.3-10.13a6.48 6.48 0 01.14 2.56 2.73 2.73 0 01-1.06 1.6 11.56 11.56 0 01-4.29 1.65h-.06a2 2 0 01-1.43-.21 2.59 2.59 0 01-1.12-1.08l-.23-.41a1.58 1.58 0 01-.18-.43 1.32 1.32 0 01.08-.72 1.09 1.09 0 01.81-.69c.89-.17 1.86-.36 2.92-.59a1.05 1.05 0 00.61-.33.79.79 0 00.06-.61l-4.73-22.36a1.74 1.74 0 01.26-1.38 1.84 1.84 0 011.16-.81h.1a1.74 1.74 0 011.4.27 1.82 1.82 0 01.79 1.16zm10-46c.14.11.35.21.38.34a2 2 0 01-.07.68c-.18-.21-.35-.35-.38-.48a1.44 1.44 0 01.07-.6zm-.88 8.2l.33.94-.93.35c-.1-.71.08-1.17.55-1.32zm-.08 5.24c0-.25.1-.3.27-.11a.63.63 0 00.75.27c.28.63.14 1-.24 1.14-.22-.53-1.18-.25-.82-1.33zm-28-2.18a16.56 16.56 0 001-3.69 18.83 18.83 0 00.2-3.9c-.06-1.31-.17-2.47-.32-3.49s-.35-2.12-.61-3.33l-1.55-7.33a1.32 1.32 0 01.32-1.22 1.27 1.27 0 01.73-.47 1.37 1.37 0 01.41 0h.59a1 1 0 00.43-.06 93.06 93.06 0 0012.77-5.36 3.72 3.72 0 01.9-.32 2.77 2.77 0 01.72-.06 3.27 3.27 0 011.6.43l.4.24a1.1 1.1 0 01.5.66 2.48 2.48 0 010 .29 1 1 0 01-.58.89 106.49 106.49 0 01-14.41 5.9.24.24 0 00-.16.32l.37 1.75a.2.2 0 00.26.17l15.58-3.3a1.73 1.73 0 011.4.27 1.79 1.79 0 01.79 1.16l2 9.47a1.81 1.81 0 01-.26 1.39 1.76 1.76 0 01-1.17.81l-.55.11a1.36 1.36 0 01-1.09-.2 1.39 1.39 0 01-.62-.91.17.17 0 00-.23-.14l-14.13 3a.24.24 0 00-.23.27 22.37 22.37 0 01-1.49 8.58 1.41 1.41 0 01-1 .83 1.66 1.66 0 01-1.3-.24l-.32-.15a1.68 1.68 0 01-.88-1 3.18 3.18 0 01-.11-.33 1.94 1.94 0 010-1.07zm.23 14.55a1.27 1.27 0 01.48.74 2.9 2.9 0 010 .34 1.15 1.15 0 01-.59 1c-.93.54-2 1.09-3.17 1.66a.29.29 0 00-.18.36l.88 4.2a.23.23 0 00.3.2l3.47-.74a1.68 1.68 0 011.31.24 1.62 1.62 0 01.76 1.1 1.66 1.66 0 01-.24 1.32 1.73 1.73 0 01-1.11.75l-3.47.73a.22.22 0 00-.19.3l.26 1.23a.42.42 0 00.26.33c.73.33 2.27 1.13 4.61 2.38a2.07 2.07 0 011 1.08 1.73 1.73 0 01.1.33 1.83 1.83 0 01-.11 1.15l-.1.24a1.32 1.32 0 01-.92.81h-.09a1.45 1.45 0 01-1.14-.24c-.69-.52-1.51-1.09-2.45-1.73a.19.19 0 00-.13 0 .07.07 0 000 .09l1.86 8.8a1.76 1.76 0 01-.25 1.4 1.74 1.74 0 01-1.16.79 1.76 1.76 0 01-1.38-.25 1.77 1.77 0 01-.8-1.18l-1.95-9.2h-.05a.05.05 0 00-.07 0 34.27 34.27 0 01-2.3 6.54 1 1 0 01-.72.57h-.18a1.24 1.24 0 01-1.06-.48l-.34-.38a2.46 2.46 0 01-.56-1.13 1.2 1.2 0 010-.28 2.65 2.65 0 01.32-1.54 31.28 31.28 0 003-8.5.15.15 0 000-.13.14.14 0 00-.12-.06l-3.31.71a1.71 1.71 0 01-1.32-.24 1.65 1.65 0 01-.76-1.1 1.66 1.66 0 01.25-1.32 1.73 1.73 0 011.11-.75l4-.85a.22.22 0 00.2-.3l-.73-3.43c0-.14-.12-.19-.28-.13-1.1.46-2.23.91-3.38 1.32a.62.62 0 01-.24.08 1.6 1.6 0 01-1-.1 2.18 2.18 0 01-1-.81 3.52 3.52 0 01-.16-.45 1.44 1.44 0 010-.65 1.14 1.14 0 01.7-.79 55.32 55.32 0 008.92-4.29 2.4 2.4 0 01.92-.38 2.86 2.86 0 01.62-.07 2.54 2.54 0 011.48.48zm-12.31-37.59a3.18 3.18 0 01.43-.06 2.62 2.62 0 011.56.37l.39.21a1.11 1.11 0 01.55.75 2 2 0 010 .25 1 1 0 01-.53 1 55.48 55.48 0 01-7.27 3.81.25.25 0 00-.16.32l.83 3.93c0 .16.13.23.27.2l7.85-1.67a1.76 1.76 0 011.32.25 1.7 1.7 0 01.76 1.11 1.68 1.68 0 01-.25 1.32 1.66 1.66 0 01-1.1.76l-1 .22c-.15 0-.2.13-.17.29l2.82 13.31a1.82 1.82 0 01-.27 1.39 1.74 1.74 0 01-1.16.8 1.71 1.71 0 01-1.38-.27 1.76 1.76 0 01-.81-1.15l-2.82-13.31c0-.17-.12-.23-.26-.2l-2.76.58c-.15 0-.2.13-.17.29q1.81 9.13-.71 14.76a1.38 1.38 0 01-1 .75h-.06a1.74 1.74 0 01-1.31-.27h-.07a2 2 0 01-.87-1.07 1.55 1.55 0 01-.08-.23 2 2 0 01.11-1.15 13.11 13.11 0 00.92-3.16 17.36 17.36 0 00.2-3.39c-.06-1.14-.14-2.17-.27-3.08s-.32-1.93-.55-3.06l-1.93-9.07a1.31 1.31 0 01.32-1.22 1.32 1.32 0 01.74-.45 1.79 1.79 0 01.41 0h.23a.86.86 0 00.46-.09 40.57 40.57 0 005.69-3.23 2.87 2.87 0 011.02-.57zm-16.59-16.68a1.28 1.28 0 01.1-.79.94.94 0 01.6-.52h.13a1.15 1.15 0 01.68.06 4 4 0 002.36.25 2.66 2.66 0 001.58-.84 1.68 1.68 0 00.33-1.52 1.92 1.92 0 00-.91-1.35 3.83 3.83 0 00-2.29-.2 1.15 1.15 0 01-.77-.18 1 1 0 01-.43-.62 1.05 1.05 0 01.14-.75 1.13 1.13 0 01.62-.48c1.52-.5 2.17-1.34 1.92-2.51a1.69 1.69 0 00-.74-1.16 2 2 0 00-1.44-.16 3.33 3.33 0 00-1.62.92 1.14 1.14 0 01-.62.35.3.3 0 01-.13 0 1 1 0 01-.79-.21 1 1 0 01-.39-.61v-.11a.9.9 0 01.27-.76 5.76 5.76 0 013-1.7 5.1 5.1 0 013.41.28 3.26 3.26 0 011.75 2.42 3.16 3.16 0 01-.18 2 3.73 3.73 0 01-1.39 1.56.06.06 0 000 .08l.06.05a4 4 0 012.19.78 3.25 3.25 0 011.18 2 3.54 3.54 0 01-.78 3.17 5.51 5.51 0 01-3.16 1.77 6.18 6.18 0 01-4-.37 1 1 0 01-.55-.65zm1.24 22.3l3.44-.73a1.52 1.52 0 011.18.21 1.51 1.51 0 01.67 1 1.51 1.51 0 01-.21 1.17 1.57 1.57 0 01-1 .68l-1.5.31v.06a1.38 1.38 0 011.1.48 1.56 1.56 0 01.28.58 1.28 1.28 0 010 .55c-.16.86-.29 1.53-.38 2a.12.12 0 000 .12.15.15 0 00.12 0l1.41-.3a1.48 1.48 0 011.19.23 1.53 1.53 0 01.67 1 1.56 1.56 0 01-.21 1.19 1.54 1.54 0 01-1 .69l-3.68.77c-.17 0-.23.13-.2.27l.41 2a.23.23 0 00.3.2l3.37-.72a1.55 1.55 0 011.2.23 1.52 1.52 0 01.7 1 1.55 1.55 0 01-.23 1.2 1.54 1.54 0 01-1 .69l-3.49.74a.12.12 0 00-.1.15.2.2 0 00.13.16c.69.31 1.85.86 3.5 1.67a1.56 1.56 0 01.88 1 1 1 0 01.08.2 1.6 1.6 0 01-.18 1.13 1.32 1.32 0 01-1 .75 1.45 1.45 0 01-1.21-.26c-.4-.28-.81-.54-1.22-.8a.12.12 0 00-.1 0s-.05 0 0 .09l1 4.66a1.77 1.77 0 01-.25 1.4 1.77 1.77 0 01-1.16.79 1.86 1.86 0 01-1.4-.25 1.78 1.78 0 01-.81-1.18l-.9-4.26a.09.09 0 00-.06-.07.07.07 0 00-.07 0 25.39 25.39 0 01-1.88 3.56 1.53 1.53 0 01-1 .69.61.61 0 01-.19 0 1.8 1.8 0 01-1.33-.36 1.59 1.59 0 01-.66-1 1.63 1.63 0 01.29-1.35 20.65 20.65 0 003.1-5.65.12.12 0 000-.12.12.12 0 00-.13 0l-3 .63a1.51 1.51 0 01-1.2-.23 1.52 1.52 0 01-.69-1 1.54 1.54 0 01.22-1.2 1.52 1.52 0 011-.7l3.74-.79c.14 0 .2-.13.16-.29l-.41-2a.19.19 0 00-.26-.17l-3.87.82a1.5 1.5 0 01-1.18-.23 1.59 1.59 0 01-.68-1 1.54 1.54 0 01.22-1.18 1.48 1.48 0 011-.69l1.13-.24c.15 0 .19-.12.14-.25a10.82 10.82 0 00-.67-1.53 1.62 1.62 0 01-.16-.45 1.6 1.6 0 010-.84 1.43 1.43 0 01.82-1v-.06l-1.78.37a1.52 1.52 0 01-1.18-.21 1.48 1.48 0 01-.67-1 1.51 1.51 0 01.21-1.17 1.53 1.53 0 011-.67l3.53-.75a.19.19 0 00.16-.26l-.17-.83a1.77 1.77 0 01.26-1.4 1.83 1.83 0 011.18-.79 1.72 1.72 0 011.38.25 1.75 1.75 0 01.8 1.18l.17.82c-.01.24.09.29.25.26zm-10.93-30a2 2 0 00-1.63-.27 2.82 2.82 0 00-1.6 1 1.36 1.36 0 01-.71.43 1.07 1.07 0 01-.78-.14 1.06 1.06 0 01-.48-.69.92.92 0 01.19-.78 5.46 5.46 0 013.29-2.08 4.36 4.36 0 013.33.5 4.13 4.13 0 011.81 2.79q.64 3.08-2.85 8.35v.06h.06c.83-.26 1.51-.45 2-.56l1.9-.4a1.06 1.06 0 01.81.16 1.06 1.06 0 01.47.68v.16a1.05 1.05 0 01-.15.81 1.08 1.08 0 01-.68.47l-7.26 1.52a.8.8 0 01-.6-.11.77.77 0 01-.35-.52 1.7 1.7 0 01.3-1.41 32.17 32.17 0 003.1-5 5.74 5.74 0 00.65-3.48 2.3 2.3 0 00-.9-1.56zm20.12 65.57a1.55 1.55 0 011.2.23 1.5 1.5 0 01.7 1 1.58 1.58 0 01-.23 1.21 1.54 1.54 0 01-1 .69l-13.86 2.93a1.54 1.54 0 01-1.2-.22 1.54 1.54 0 01-.69-1 1.54 1.54 0 01.22-1.2 1.56 1.56 0 011-.69zM86.15 55.22a4 4 0 013-2.47 4 4 0 013.73 1.07 9.38 9.38 0 012.31 5 9.59 9.59 0 01-.13 5.53 4 4 0 01-3 2.53 4 4 0 01-3.75-1.13 9.54 9.54 0 01-2.34-5 9.3 9.3 0 01.1-5.6zm-8.72 2.81a2 2 0 00-1.67-.34 2.92 2.92 0 00-1.6 1 1.26 1.26 0 01-.71.43 1 1 0 01-.78-.14 1.06 1.06 0 01-.48-.68.94.94 0 01.19-.79 5.42 5.42 0 013.29-2.07 4.31 4.31 0 013.33.5 4.14 4.14 0 011.81 2.78q.64 3.08-2.85 8.36h.06c.83-.26 1.51-.45 2-.56l1.9-.39a1.05 1.05 0 01.81.15 1.08 1.08 0 01.47.68v.16a1.05 1.05 0 01-.15.81 1 1 0 01-.68.47l-7.26 1.52a.76.76 0 01-.6-.11.75.75 0 01-.35-.51 1.69 1.69 0 01.3-1.41 33.12 33.12 0 003.1-5 5.77 5.77 0 00.65-3.49 2.32 2.32 0 00-.86-1.44zm-2.12 39.56a1.79 1.79 0 01.27-1.38 1.75 1.75 0 011.16-.81l9.41-2a.23.23 0 00.2-.27c-.15-1.31-.51-3.45-1.09-6.4a1.89 1.89 0 01.29-1.41 1.82 1.82 0 011.16-.79l.49-.1a1.75 1.75 0 011.37.25 1.74 1.74 0 01.78 1.12q.63 3 1 6.48c0 .15.09.21.23.18l10.34-2.19a1.71 1.71 0 011.38.27 1.8 1.8 0 01.81 1.15l.05.25a1.82 1.82 0 01-.27 1.39 1.77 1.77 0 01-1.16.8l-9 1.91a.16.16 0 00-.13.09.29.29 0 000 .16q4.93 8.19 12.66 10.33a1.33 1.33 0 01.91.8 1.07 1.07 0 01.09.27 1.45 1.45 0 01-.13.93 3.35 3.35 0 01-.21.36c0 .14-.12.29-.19.46a2.32 2.32 0 01-1 1.08 2.78 2.78 0 01-.51.17 2 2 0 01-.9 0q-7.44-2.43-12.69-10.13a.09.09 0 00-.1 0c-.05 0-.06 0-.05.07a22 22 0 01-7.49 14.43 2 2 0 01-.84.41 2.85 2.85 0 01-.51 0 2.47 2.47 0 01-1.4-.57c-.18-.13-.35-.26-.52-.37a1.27 1.27 0 01-.56-.81.61.61 0 010-.19 1.18 1.18 0 01.42-1 19.17 19.17 0 007-14.88c0-.15-.06-.21-.2-.18l-8.8 1.86a1.76 1.76 0 01-1.39-.26 1.79 1.79 0 01-.8-1.16zm5 35.17a1.69 1.69 0 01-.25 1.33 1.69 1.69 0 01-1.13.77l-5.25 1.11c-.16 0-.23.13-.2.27l.56 2.64c0 .14.13.19.29.16l4.39-.93a1.51 1.51 0 011.2.24 1.56 1.56 0 01.7 1h.06a.09.09 0 00.07 0q1.84-4.45 1.6-12a1.87 1.87 0 01.48-1.35 1.78 1.78 0 011-.6h.56a1.63 1.63 0 011.32.46 1.63 1.63 0 01.54.91 1.67 1.67 0 010 .34v3.31c0 .15.06.21.22.17l7.21-1.52a1.68 1.68 0 011.32.25 1.73 1.73 0 01.77 1.12 1.73 1.73 0 01-.25 1.33 1.7 1.7 0 01-1.11.76l-.39.09c-.17 0-.24.12-.23.27a36 36 0 01-1 11.88.41.41 0 00.12.39 16.38 16.38 0 005.36 3.22 1.3 1.3 0 01.88.84 2.13 2.13 0 01.09.27 1.35 1.35 0 01-.15 1 4.91 4.91 0 01-.22.46 2.27 2.27 0 01-1.06 1.06 1.56 1.56 0 01-.41.15 1.65 1.65 0 01-1-.08 17.2 17.2 0 01-5-3.07.18.18 0 00-.31.06 19.3 19.3 0 01-4.1 5.29 1.69 1.69 0 01-.81.43 1.67 1.67 0 01-.5 0 2.09 2.09 0 01-1.32-.62 1.45 1.45 0 00-.16-.18 1.69 1.69 0 01-.47-.84 1.34 1.34 0 010-.41 1.49 1.49 0 01.55-1.17 16.63 16.63 0 004.11-5.42.32.32 0 00-.06-.4 36.69 36.69 0 01-3.43-5.46.11.11 0 00-.1-.06s-.07 0-.09.07l-.12.34a1.42 1.42 0 01-.95.94h-.18a1.71 1.71 0 01-1.19-.17c-.31-.14-.69-.33-1.15-.56a.14.14 0 00-.12 0 .1.1 0 000 .11q1.35 7 1.71 9.74a8.15 8.15 0 01-.05 3.68 3.23 3.23 0 01-1.8 1.79 7.81 7.81 0 01-1.54.46h-.06a2 2 0 01-1.36-.19 2.75 2.75 0 01-1.07-1.12 1.78 1.78 0 01-.14-.36 1.21 1.21 0 01.1-.76 1.09 1.09 0 01.82-.68l.61-.13a.11.11 0 00.1 0 1 1 0 00.72-.66 9.19 9.19 0 00-.14-2.87c-.22-1.57-.67-4.17-1.38-7.8a.2.2 0 00-.26-.17l-2.18.46c-.16 0-.23.13-.2.27a33 33 0 01.72 7.15 16.46 16.46 0 01-1.46 6.43 1.36 1.36 0 01-1 .82h-.06a1.86 1.86 0 01-1.33-.2v-.06a1.86 1.86 0 01-.9-1.06 1.71 1.71 0 01-.09-.27 1.94 1.94 0 01.11-1.14 14.3 14.3 0 001.1-5.55 29.89 29.89 0 00-.69-6l-1.24-5.86a.19.19 0 00-.26-.16l-1.14.24a1.72 1.72 0 01-1.32-.25 1.74 1.74 0 01-.76-1.12 1.75 1.75 0 01.24-1.34 1.7 1.7 0 011.11-.76l3-.63c.17 0 .23-.12.2-.27l-.57-2.72a1.79 1.79 0 01.24-1.4 1.83 1.83 0 01.98-.78h.09a1.81 1.81 0 011.39.26 1.76 1.76 0 01.81 1.17l.57 2.73a.2.2 0 00.26.17l3.22-.68a1.69 1.69 0 011.35.24 1.71 1.71 0 01.73 1.11zm-34.55-36a1.77 1.77 0 011.16-.8l18.7-4a1.76 1.76 0 011.39.26 1.86 1.86 0 01.81 1.18 1.69 1.69 0 01-.27 1.38 1.75 1.75 0 01-1.16.79l-18.71 4a1.78 1.78 0 01-1.38-.25 1.74 1.74 0 01-.81-1.16 1.83 1.83 0 01.14-1.47zm-1.29 10.48a1.77 1.77 0 01.26-1.4 1.81 1.81 0 011.16-.79l24.41-5.17a1.84 1.84 0 011.39.25 1.78 1.78 0 01.81 1.18 1.74 1.74 0 01-.26 1.38 1.77 1.77 0 01-1.16.81l-6.26 1.32c-.16 0-.23.13-.2.27l2 9.38a1.81 1.81 0 00.47 1.09 1.45 1.45 0 001 0l2.82-.59a1 1 0 00.79-.88 12 12 0 00-.22-2.93 1.06 1.06 0 01.36-1 1.49 1.49 0 01.56-.25 1.59 1.59 0 01.54 0 .49.49 0 00.17.06 2.53 2.53 0 011.41.73 2 2 0 01.64 1.08.71.71 0 010 .25 8.86 8.86 0 01-.37 4.57 3.82 3.82 0 01-2.82 1.81l-3.78.8c-1.76.37-3 .28-3.77-.29s-1.34-1.78-1.74-3.64l-2-9.38a.2.2 0 00-.26-.17l-4.26.9a.22.22 0 00-.2.27c.15 1.33.24 2.51.28 3.54a20.8 20.8 0 01-.15 3.29 13 13 0 01-.77 3.17 13 13 0 01-1.63 2.89 15.41 15.41 0 01-2.63 2.75 1.92 1.92 0 01-.78.36 2 2 0 01-.61 0 2.56 2.56 0 01-1.38-.63c-.06 0-.11-.11-.16-.16a1.25 1.25 0 01-.48-.76 1.17 1.17 0 010-.32 1.36 1.36 0 01.51-1.07 11.06 11.06 0 002.15-2.18 9.94 9.94 0 001.28-2.27 10 10 0 00.57-2.48 17.06 17.06 0 00.07-2.54c-.05-.78-.14-1.7-.28-2.76 0-.15-.1-.21-.26-.17l-5.06 1.07a1.81 1.81 0 01-1.39-.27 1.82 1.82 0 01-.81-1.16z" fill="#375787"/><path d="M91.57 64.69q2.05-.42 1-5.42c-.68-3.27-1.7-4.75-3.07-4.47a1.52 1.52 0 00-.77.41 2 2 0 00-.48.91 4.87 4.87 0 00-.12 1.62 15.57 15.57 0 00.34 2.38q1.05 4.98 3.1 4.57zm97.45 37.13c1.81-.62 3.69-1.14 5.63-1.6-1.93.46-3.82 1-5.62 1.62zm-2.26.87h-.06c-.87.34-1.73.7-2.57 1.09.82-.4 1.73-.72 2.63-1.09zm12.3-3.39c2.16-.36 4.38-.63 6.64-.81q-3.39.26-6.65.81z" fill="#375787"/><path d="M193.26 133.54h-.05c-.34-.15-.7-.29-1.08-.44a7.84 7.84 0 01-2.4-1.75 73.81 73.81 0 0112.8-2.31c0-.15.05-.31.08-.49.14-.82 1.21-1.58 0-2.93a1.33 1.33 0 01.3-.11c0-.22.15-.3.33-.25a2.57 2.57 0 01.82 1.41c.12.26.27.51.4.76a95.86 95.86 0 001.76-12.3c-1.2.07-2.38.16-3.56.29l-1-2.94c1.57-.19 3.17-.31 4.78-.4a98.18 98.18 0 00-.29-13.6h-.4c-2.26.18-4.48.45-6.64.81a4.55 4.55 0 00-.49-.3 1.1 1.1 0 00.35-.76 3.27 3.27 0 00-1.84-.59l-1 .14-.54-.23-.32.35-3.14.53c.31.19.59.5.94.54l1.63.16a1.56 1.56 0 000 1.06c-1.94.46-3.82 1-5.63 1.6 0-.22-1.3-.76-1.48-.72a4.31 4.31 0 00-1.85.88c-.09.09.36.34 1 .7h.06c-.88.35-1.79.67-2.63 1.06a1.49 1.49 0 01-2-.75 1.49 1.49 0 01.72-2 67.39 67.39 0 0122.87-5.51c-.16-1.3-.33-2.6-.54-3.9a1 1 0 01-.14-.79c-.22-1.28-.45-2.56-.72-3.83a98.59 98.59 0 00-17.77-39.24.3.3 0 01-.21 0 1.29 1.29 0 01-.73-1.26c-.81-1-1.63-2-2.47-3a1.31 1.31 0 01-.28.09c-.35 0-.63-.23-.67-.8-.09-.23-.18-.46-.26-.7a100.27 100.27 0 00-15.33-14.17c.2.5.46.9 1 .8.38 1-.46 1-.46 1.73-.44.16 0 1.81-1 .94a3.15 3.15 0 00-1.85-3c.1-.06.22-.12.32-.19l1.26-.79a99.59 99.59 0 00-34.94-16.36.32.32 0 01.09.08 1.41 1.41 0 01-.13.74c-.41.89-.78-.63-1.19-.71a.88.88 0 01-.22.1.24.24 0 01.22-.1 4.29 4.29 0 01.51-.28 98.58 98.58 0 00-43.32-.61h-.22q-2.46.51-4.88 1.16c-.06.81-.51.59-1 .27A98.54 98.54 0 0024.23 53a98.54 98.54 0 00-15.85 62.87s.15.06.35.42c.63 1.2.81.17 1.19.2.07-.31.44-.43.47-.27.47 2 .94.26 1.39.52a1.82 1.82 0 01.45.43 4.55 4.55 0 01.8 1.89c.09.64.19 1.29.28 1.93l-2-.85c-.71-.72-1.37-1-1.9-.27-.12-.3-.24-.6-.35-.9a2.56 2.56 0 00-.53-1.74c0 .39.08.78.13 1.16a.73.73 0 01.13.53c.11.31.23.62.34.92a.85.85 0 01-.25.43q.49 3.68 1.26 7.35a98.56 98.56 0 0042.85 62.69 98.59 98.59 0 0074.62 14.11 98.59 98.59 0 0057.46-35.58c-1.46.51-2.87 1.07-4.22 1.69-.55-.21-1.09-.42-1.65-.62a3.4 3.4 0 00-.57-.15 1.49 1.49 0 01.3-1.56h.05a1.07 1.07 0 01.16-.14 1 1 0 01.25-.15c1.05-.48 2.17-.9 3.28-1.32l.65.44c.23.15.41.33.56.44a8.84 8.84 0 001.81-1c.1-.09-.3-.44-.7-.69 1-.34 2.09-.67 3.17-1 .73-1 1.44-2.07 2.14-3.13 1.5-2.29 2.88-4.63 4.18-7-.54-.24-1.11-.42-1.14-1.49l.6-1.33c.06.15.11.31.17.46.45.36.08 1 .52 1.38a3.45 3.45 0 01.11.4q1.24-2.31 2.35-4.67c-1.57.25-3.11.56-4.62.91a.54.54 0 01-.62.14c-1.45.35-2.87.74-4.25 1.18l1 .64a1.14 1.14 0 01.52.77 1.16 1.16 0 01-.17.91l-.4.62a2.16 2.16 0 01-.81.72 2.09 2.09 0 01-1.07.2l-8.27-.69-3.62-.49a.07.07 0 00-.08 0v.06c.19.09.56.29 1.12.59l1.29.69 1.13.62c.45.26.85.5 1.2.73l4.23 2.76a1.16 1.16 0 01.52.77 1.16 1.16 0 01-.16.91l-.3.45a1.14 1.14 0 01-.77.52 1.16 1.16 0 01-.91-.16l-11.06-7.22a1.2 1.2 0 01-.52-.77 1.16 1.16 0 01.17-.91l.42-.64a2 2 0 01.81-.72 2.07 2.07 0 011.07-.2l8.24.65 3.63.52a.09.09 0 00.09 0 .05.05 0 000-.08c-2.27-1.15-3.86-2-4.77-2.62l-4.2-2.74a1.16 1.16 0 01-.52-.77 1.19 1.19 0 01.17-.92l.29-.44a1.16 1.16 0 01.77-.52 1.16 1.16 0 01.91.16l9.35 6.1-2.14-1.77c.76-.27 1.54-.53 2.33-.78l2.07.74.83-.29c-.67-.25-1.32-.52-2-.72.46-.14.9-.29 1.37-.42.32.22.65.44.94.68.66-.49 1.25-.91 1.77-1.33 1.58-.36 3.19-.67 4.84-.93h.2a1.16 1.16 0 00.48.32l.68.16a98.8 98.8 0 005.14-14.88 74 74 0 00-10.15 1.63zm8.11-33.15l.37-.12.15.51c-.61.59-.78 2.43-2.21.75.29-.93.8-1.42 1.69-1.14zm-2.06 17.45v.07a.77.77 0 01-.3.48l-2.39 1.74a2.72 2.72 0 01-2 .53 2.74 2.74 0 01-1.83-1l-1.88-2.21a.7.7 0 01-.19-.56v-.06a.74.74 0 01.24-.47.79.79 0 01.56-.23.87.87 0 01.57.21l2.64 2.47a.17.17 0 00.24 0l1.73-1a1.44 1.44 0 01.06-.12.69.69 0 01.19.1l1.2-.67a.72.72 0 01.57-.08.79.79 0 01.48.34.74.74 0 01.11.46zm3.29 9.79c-.07.26-.28.51-.51.26-.54-.58-.45-1.25-.44-2.35.53.91 1.2 1.27.95 2.09zm-7.15-13.06l3.2-1.81a.77.77 0 01.47-.09h.1a.84.84 0 01.48.35.83.83 0 01.11.51v.08a.83.83 0 01-.31.51l-2.38 1.72a2.73 2.73 0 01-2 .53 2.74 2.74 0 01-1.83-1l-1.89-2.21a.77.77 0 01-.18-.56.07.07 0 010-.06.79.79 0 01.24-.5.83.83 0 01.57-.22h.1a.8.8 0 01.45.22l2.64 2.47a.19.19 0 00.23.06zm-6.89-8.88a1 1 0 01.35-.65c.53-.19 1 .3 1.57.64a.65.65 0 00.81.27l.09 1-.69.34c-.28.62-.69.19-1.09-.13l-.81-.29a1.37 1.37 0 01-.23-1.18zm.59 2.11l.31-.07a4.69 4.69 0 00.39 2c-.06.2-.17.23-.34.1.07-.76-1.16-1.45-.36-2.08zm-1.3 8c-.24-1.19.61-1.12.93-1.67a1.41 1.41 0 011.5.73 2.55 2.55 0 01.38 1.42c-.06.24-.2.31-.41.2-.44-.23-1.16-1.17-.92.37l-1.09.91c-.24-.79.07-1.45-.39-2.07zm-8.34-35.84l-.65.25a1.62 1.62 0 01-.49-1.39c.22-.49-.05-1-.24-1.53s-.25-.77 0-1.06c.22 1.24 1.52 2.16 1.38 3.64zm-1.84-11.33a1.26 1.26 0 01-.64 0l-.16.06h-.15c-.51-.38-.38-1-.58-1.51a2 2 0 010-.94c.94-.64 1.35.76 1.94 1.46a1.09 1.09 0 01-.41.84zm12.07-6.14a1.75 1.75 0 01.4-.66c1-.11.1-1.3.23-1.91.18-.36.5-.3.83-.2a1.92 1.92 0 01.83.76 4 4 0 00.89 1c.27.24.51.5.76.76a3.2 3.2 0 01.67 1 12.62 12.62 0 01.55 1.49c-.08 1.14-1 .28-1.41.69-.51.17-.42-1.19-1-.92-.95-1.79-1.38.32-2.17-.26a1.21 1.21 0 01-.6-.77 1.81 1.81 0 01.04-1.07zm3.66 19.81c.15-.38.46-.27.76-.21s.65 0 1 .1l.18.47c.32 1.92-1.48 1-1.66 2.22zm-4.82 3.87a.57.57 0 01.61 0 4 4 0 011.08-.41 4.06 4.06 0 014.81 3.15 4.07 4.07 0 01-3.15 4.82 4.07 4.07 0 01-4.81-3.15 4 4 0 011.45-4c0-.2 0-.35.01-.5zm-5-18.92c1.72 1.36 0 1.85.17 2.82a.78.78 0 01-.25.69.46.46 0 01-.42-.11l-.18-.47c-.38-1.49-.49-2.73.7-3.02zm-.1 5.37a.78.78 0 01-.45.75c-.74-.88 0-1.13.08-1.65.14.21.26.51.39.81zm-6.92-25l.3-.15 1.11.1c.1 1-.34 1.27-.93 1.39a1.37 1.37 0 01-.46-1.46zm4.61 22.71l.27-1.18c.06-.25.05-.68.19-.73s.41.37.41.62a2.14 2.14 0 00.55 1.28l-.73.84a.77.77 0 01-.67-.95zm2.57 11.7c.58.13.79.9 1.19 1.34 1.07.58 1.39 1.89 1.84 3.06-.16.51-.48.63-.93.38-.06-.17-.12-.33-.17-.5-.66-.41-.32.41-.43.66l-.34.17c-.27-.37-.59-.72-.42-1.21.41-1.24-.32-1.3-.94-1.48a1.3 1.3 0 01-.26-.8c0-.46-.29-1-.13-1.4a.55.55 0 01.61-.34zm-4.79-15.54l.41.2a2.59 2.59 0 01.67.9 1.66 1.66 0 01.07 1.09 1 1 0 00-.27.17c-.72-.13-1.07-.84-1.34-1.66.06-.5.2-.74.48-.82zm-7.13-20.93c-.37-.53-1-.81-.94-1.7l.94-.35a1.73 1.73 0 001.13 1.19.82.82 0 01.35 1.06c-.26.39-.64.32-1.06.18h-.08a1.38 1.38 0 01.26 1.08c0 .91-.57.39-.94.39.11-.6.23-1.2.34-1.8zm16 117.61c.06.47.86.9.36 1.38s-1 .14-1.45-.47c-.17-.46-.33-.93-.49-1.39zm6.28-28c-.14.23-.28.46-.43.69l-.52-1.38c.43-.3.74-.06.97.55zM164.22 31.08l.63-.24c.58-.82.72.11 1 .7.09.73-.18 1-.65 1.12s-.69-.34-.85-.89a1.21 1.21 0 01-.11-.83zm1 4.29a3.32 3.32 0 00-.58-2.53l1.18.26c.2.21.36.51.57.71.1.91.19 1.82.29 2.74a.79.79 0 01-.94.58c-.81-.59-.29-1.32-.51-1.9zm4 17.16a4.27 4.27 0 00.44.3v.06a6.92 6.92 0 01.73 2.85.47.47 0 01-.36.48.9.9 0 01-.43-.12 4.61 4.61 0 01-.78-.7 4.39 4.39 0 01-.86-1.07.94.94 0 010-.52c.12-.54-.41-.83-.49-1.3a1.49 1.49 0 010-.91c.57.09 1.11.85 1.74.79zm-5.87-17.55l.67.79c-.16.25-.33.49-.49.73l-.72-.15c-.15-.89.08-1.3.53-1.51zm-4.9 5.86l.92-.17a.74.74 0 00.9.3 1.23 1.23 0 01.4 1 .44.44 0 01-.66.24l-1.13-.18c-1.12-1.15-1.12-1.19-.44-1.34zm1.3 8.43c.84.43 1.85.16 2.42 1.74-.13 1.25-.79 1.47-1.7 1.21l-.49-.4-.54-1.39c1.39.46 0-1.07.32-1.3zm-1.55.41c-.86-1.9.77-.7.89-1.37l.36 1zm-3.54-9.16c1.29.75.38-1.6 1.21-1.51l1.28.58a.91.91 0 01.3.47c.1.62.56 1.09.64 1.72a.6.6 0 01-.25.46c-1 .21-1.91 1-3.14-.17-.32-.75-.71-1.38-.05-1.69zm1.51 6.89a1.43 1.43 0 01-1.86.68c.14-1.63.97-1.3 1.85-.82zm-24.49-28.7a1.73 1.73 0 01.82-.64 1.71 1.71 0 011.05 0l1.2.37a1.59 1.59 0 01.85.59 1.64 1.64 0 01.35 1l.24 14.14a.92.92 0 010 .29.74.74 0 01-.33.43.82.82 0 01-.78.15l-.82-.25a1.5 1.5 0 01-.84-.6 1.56 1.56 0 01-.31-1l.08-2.8a.19.19 0 00-.15-.22l-4.6-1.4c-.1 0-.17 0-.23.11l-1.5 2.37a1.62 1.62 0 01-.8.66 1.52 1.52 0 01-1 0l-.71-.21a.85.85 0 01-.59-.57.81.81 0 010-.53 1.11 1.11 0 01.13-.27zm-20.36-3.17v-.17a1.23 1.23 0 01.45-.82 1.18 1.18 0 01.91-.26l9.55 1a1.19 1.19 0 01.83.46 1.23 1.23 0 01.26.9v.17a1.21 1.21 0 01-.45.83 1.17 1.17 0 01-.91.25l-3.07-.34a.15.15 0 00-.18.15l-1.29 11.71a1.23 1.23 0 01-.45.82 1.19 1.19 0 01-.91.26l-.68-.07a1.19 1.19 0 01-.84-.46 1.22 1.22 0 01-.25-.9l1.29-11.7a.15.15 0 00-.15-.19l-3-.33a1.19 1.19 0 01-.83-.45 1.19 1.19 0 01-.29-1zm-5.77 1.91c.22.45.83.74.52 1.39-.5-.17-.65-.75-.85-1.27zm-13.27-.93a1.2 1.2 0 01.28-.9 1.18 1.18 0 01.83-.44l.76-.08a2 2 0 011.08.19 2 2 0 01.83.71l4.71 6.91 1.88 3.18a.09.09 0 00.08.06s.05 0 .05-.07a54.27 54.27 0 01-1-5.41l-.5-5a1.19 1.19 0 01.27-.9 1.25 1.25 0 01.83-.45h.54a1.2 1.2 0 01.9.28 1.18 1.18 0 01.44.82l1.32 13.28a1.17 1.17 0 01-.28.89 1.18 1.18 0 01-.83.45l-.74.08a2.1 2.1 0 01-1.08-.19 2.14 2.14 0 01-.84-.71l-4.68-7-1.91-3.16a.06.06 0 00-.07 0c0 .21.13.63.25 1.26s.21 1.11.27 1.45.13.76.22 1.28.15 1 .19 1.41l.5 5.08a1.16 1.16 0 01-.28.9 1.21 1.21 0 01-.82.45h-.54a1.2 1.2 0 01-.9-.28 1.18 1.18 0 01-.44-.82zm-15 18l.05-14.13a1.66 1.66 0 01.33-1 1.59 1.59 0 01.85-.61l1.2-.38a1.68 1.68 0 011 0 1.64 1.64 0 01.84.62l8.19 11.53a1 1 0 01.13.27.81.81 0 010 .53.84.84 0 01-.56.57l-.82.26a1.58 1.58 0 01-1 0 1.64 1.64 0 01-.82-.64l-1.51-2.37a.21.21 0 00-.25-.09l-4.59 1.45c-.09 0-.13.1-.13.22l.11 2.81a1.62 1.62 0 01-.29 1 1.54 1.54 0 01-.83.61l-.71.23a.85.85 0 01-.81-.14.8.8 0 01-.31-.42 1 1 0 01-.05-.45zM56.67 29.4a1.16 1.16 0 01.57-.74l.62-.35a1.16 1.16 0 01.93-.11 1.18 1.18 0 01.75.57l3.8 6.74a5.67 5.67 0 002.33 2.57 2.6 2.6 0 002.43-.21 2.69 2.69 0 001.48-2 5.63 5.63 0 00-1-3.32l-3.8-6.74a1.2 1.2 0 01-.11-.93 1.17 1.17 0 01.58-.74l.51-.29a1.2 1.2 0 01.93-.11 1.17 1.17 0 01.74.58l3.67 6.49c1.26 2.23 1.72 4.12 1.4 5.66a5.72 5.72 0 01-3.08 3.79q-5.35 3-9-3.42l-3.67-6.5a1.16 1.16 0 01-.06-1.07zm-2.47 5.7a1.85 1.85 0 01.77 1.77c.06.51.12 1 .19 1.53l-.33.1a1.18 1.18 0 01-.42-.33 20.67 20.67 0 01-1.12-1.74c-.28-1.35.47-1.24.93-1.46zm-11.65 5.13l.67-.59a1.81 1.81 0 011-.42 1.75 1.75 0 011.06.18l2.62 1.32c1.32.71 2.41 1.29 3.28 1.74h.06a.05.05 0 000-.05c-.76-2.19-1.16-3.37-1.21-3.53l-.94-2.77a1.81 1.81 0 010-1.08 1.81 1.81 0 01.58-.91l.61-.53a.73.73 0 01.75-.15.69.69 0 01.35.21.79.79 0 01.17.33l2.58 9.34a.54.54 0 00.15.26l2.87 3.33a1.15 1.15 0 01.29.89 1.15 1.15 0 01-.41.84l-.54.47a1.19 1.19 0 01-.89.29 1.22 1.22 0 01-.84-.42l-2.88-3.32a.51.51 0 00-.24-.18l-8.86-3.91a.68.68 0 01-.3-.21.69.69 0 01-.16-.38.73.73 0 01.25-.88zm-6.72.53a1 1 0 00.28-.14c.26-.15.49 1.14.79.3 0-.08.26.19.24.44l.36.94a1.37 1.37 0 01-.05.86 4.05 4.05 0 01-.48.9c-.57.5-.86.08-1-.82-.3-.55-.59-1.1-.88-1.65a1.14 1.14 0 00.76-.96zm-1.21 12.8c.3-.49-.41-1.64.34-1.84.21-.28.41-.06.61.24a12.86 12.86 0 01.57 2 2 2 0 01-.12 1.24c-.27.28-.59.16-.93-.11a2 2 0 01-.5-.89 1.32 1.32 0 01.05-.77zm-1.07 14.13a.65.65 0 010 .84.74.74 0 01-.69.13 1.2 1.2 0 01-.69-1l-.41-.97zm-10.18-5.17l.39-.11c.53.84 1 .73 1.45.36.45-.06 1.05.28 1.28-.43a.66.66 0 00.84.29 1 1 0 011.6.2 2 2 0 010 1.57 2.28 2.28 0 01-.3.38 3.49 3.49 0 00-.61.7c-.4.51-.8 1-1.54.66a1.66 1.66 0 01-.36-.53c-.2-.44-.29-1.06-.81-.94a1.66 1.66 0 01-.34.25 1.38 1.38 0 01-1.4-.44 2.6 2.6 0 01-.2-2.01zm-.89 1.4l.31-.12a1.6 1.6 0 01.89.79 3.89 3.89 0 011.92 2.2c.13.71.11 1.24-.58 1l-.84-.2a2.27 2.27 0 00-1-.75c-.27-.42-.54-.84-.82-1.26.74-.33-.03-1.22.12-1.71zm6.71 53.91a1.3 1.3 0 01.28-1.38c.39 0 .63.3.81.78a1.54 1.54 0 010 .64c0 .22-.09.44-.13.66a.67.67 0 01-.93.31c0-.38-.01-.72-.03-1.06zm1.37 2.45c0 .57 0 1.14-.07 1.71a1.15 1.15 0 01-.64-.78 2.35 2.35 0 01-1.91-1.8.59.59 0 01.18-.49 3 3 0 011.63.28 2 2 0 01.67.5.83.83 0 01.14.53zm-5.69-18a2.7 2.7 0 01.58.87 4 4 0 01.21.67c0 1 .41 2 .44 2.93-.11.65-.68.08-.93.35a6.37 6.37 0 01-1.8-3.53 3.07 3.07 0 01-.08-1.08.69.69 0 01.54-.54 1.55 1.55 0 011.04.24zm3 18.67c-.11.52-.24 1-.78.85l-.29.11-.64.23c-.24.36-.56.15-.88-.1a4.52 4.52 0 01-.57-.77c-.33-.64-1-1-1.07-1.86.66-.69 1.56-1.08 1.7-2.44a.49.49 0 01.63-.17c.64 1.19.42 2.9 1.72 3.71zM19.46 94.6a.93.93 0 01.32-.38c.41-.18.81 0 1.21.46.15.15.25.14.33 0 .44.53.89 1.06 1.33 1.6-.62.06-.92.51-.91 1.37l-.31.1a.75.75 0 00-.83-.24 1.17 1.17 0 01-.34-.49c-.2-.92-.87-1.63-.79-2.51zm-4.41-9.89l.45-.69c.44.56 1.07.79 1.33 1.62a.65.65 0 01-.72.61c-.47 0-.83-.48-1.18-1zm-1.94-1.28l.37-.1a2.12 2.12 0 01.76.92 10.14 10.14 0 01.22 1.88 3.24 3.24 0 010 .62c-.07.41-.21.71-.53.8a1.4 1.4 0 01-1.07-.9 2.18 2.18 0 00-.7-1.82c.03-.95.04-1.8.96-1.49zm2.47 45.22l-.34-.84c-.06-.22-.11-.45-.17-.67a1.5 1.5 0 011.08-.78.87.87 0 01.32.86 2.43 2.43 0 00.52 1.54zm-2.34-19.61c-.2.39-.39.82-.91.6-.25-.81-.62-1.45-1.29-1.63-.4-.06-.68-.34-.78-.91s.31-.92.74-1a3.18 3.18 0 011.49.11 2.33 2.33 0 011 1.33 3.69 3.69 0 01-.24 1.41zm.72-2.65l-1.09-.11c-.35-1-1.16.08-1.48-1l.15-.6.28-.1c.13-.31.37-.21.6-.12a5.79 5.79 0 011 .46 1.52 1.52 0 01.55 1.38zm-2.62-14.5a3.35 3.35 0 011.21-2.54c.34 0 .76-.06.69.71-.15 1.59.49.84.9.79.73.06 1.21 1 1.82 1.47a2.34 2.34 0 01.5 1.29.84.84 0 01-.2.52 2 2 0 01-.89.27c-1 .55-2.27-1.27-3.18-.32a.81.81 0 01-.67-.41c-.35-.74-.01-1.26-.17-1.87zm7.22 34a4.07 4.07 0 013-4.78c-.27-.26-.54-.52-.81-.8a3 3 0 01-.45-1 3.39 3.39 0 011-2.76.93.93 0 01.7-.28 1.28 1.28 0 01.91.87 2.65 2.65 0 01.16.66 1.4 1.4 0 00.54 1.69c.16.39 0 .56-.12.81-.47.06-1 0-.7.68a4.07 4.07 0 013.74 3.21 4.06 4.06 0 01-3.15 4.81 4.07 4.07 0 01-4.81-3.18zm6.57 24.52v-.07a.83.83 0 01-.11-.51.84.84 0 01.3-.51h.09a.75.75 0 01.46-.11l3.66.37a.16.16 0 00.21-.12l1.43-3.33a.88.88 0 01.33-.38l.09-.05a.8.8 0 01.61 0 .8.8 0 01.42.35.35.35 0 010 .06.86.86 0 01.06.59l-.85 2.77a2.76 2.76 0 01-1.29 1.61 2.79 2.79 0 01-2 .33l-2.87-.61a.71.71 0 01-.53-.46zm2.35 7.25c-.17-.52-.3-1.08-.8-1.26a1.29 1.29 0 010-1.05c.25-.39.5-.6.79.23-.38.5.44 1.46.02 2.01zm3.18-2.58l-2.88-.63a.71.71 0 01-.47-.32v-.07a.71.71 0 01-.09-.49.71.71 0 01.3-.51s0-.05.08-.07a.64.64 0 01.47-.09l3.65.35a.19.19 0 00.21-.12l1.43-3.32a.78.78 0 01.32-.39h.1a.81.81 0 01.61 0 .68.68 0 01.41.33v.07a.69.69 0 01.05.58l-.83 2.79a2.83 2.83 0 01-1.26 1.5 2.8 2.8 0 01-2.09.32zm6.21 14.58c0 .2 0 .4-.07.6s-.11.27-.28.2l-.23-.53c0-.22.05-.44.08-.67l.1.13zm1.62 4.24l-2.19.81c-.12-.31-.24-.62-.35-.94l.81.23c0-.25.12-.29.29-.12l1.26-.45c.24-.25.4-.11.48.34zm8 3.78a1.17 1.17 0 01-.85.37 1.16 1.16 0 01-.88-.36l-.53-.52a1.93 1.93 0 01-.56-.93 2 2 0 010-1.08l2.22-8 1.15-3.47a.07.07 0 000-.08h-.06c-.01 0-.39.5-.79 1l-.89 1.08-.83 1c-.34.4-.65.75-.94 1l-3.5 3.64a1.16 1.16 0 01-.85.37 1.16 1.16 0 01-.87-.33l-.38-.37a1.19 1.19 0 01-.37-.86 1.12 1.12 0 01.33-.86l9.15-9.53a1.16 1.16 0 01.85-.37 1.21 1.21 0 01.87.34l.55.53a2 2 0 01.55.93 2 2 0 010 1.08l-2.17 8-1.19 3.47a.09.09 0 000 .1.05.05 0 00.08 0q2.34-3 3.46-4.2l3.47-3.62a1.19 1.19 0 01.86-.37 1.17 1.17 0 01.86.34l.39.37a1.17 1.17 0 01.37.85 1.2 1.2 0 01-.33.87zm7.32.66c-.08.13-.16.31-.17.3a2.94 2.94 0 01-.56-.61c-.16-.26 0-.43.15-.31a3.86 3.86 0 01.61.55zm9.39 16c0 .2-.14.26-.3.18a.73.73 0 00-.8-.27c-.26-1.43 1-.78 1.2-1.48.34.62-.04.99-.07 1.51zm1-12.92l-.1.16a1.16 1.16 0 01-.76.54 1.23 1.23 0 01-.92-.16l-3.46-2.27q-.12-.07-.21.06l-2.08 3.28a.13.13 0 00.05.2l4.5 2.84a1.18 1.18 0 01.54.77 1.2 1.2 0 01-.17.91l-.1.16a1.2 1.2 0 01-1.67.38l-6.24-3.95a1.21 1.21 0 01-.54-.76 1.18 1.18 0 01.16-.92l7.06-11.16a1.2 1.2 0 01.76-.53 1.19 1.19 0 01.92.16l6.05 3.82a1.13 1.13 0 01.53.77 1.16 1.16 0 01-.16.91l-.08.14a1.19 1.19 0 01-1.68.38l-3.69-2.33c-.23.25-.36.63-.68.74l-.47-.54-1.43 2.26a.13.13 0 000 .2l1.97 1.21h.05c.25-.2.42-.08.49.37l1 .63a1.22 1.22 0 01.53.77 1.16 1.16 0 01-.15.9zm-7.93-20.58c.61-.12.36-1.3.94-1.46.27-.17.49.06.68.42.28.95.27 1.7-.39 2-.37.11-.7-.2-1-.55a3.55 3.55 0 00-.21-.47zm32.59 23.78a.66.66 0 01-.09.19l-6.75 11.66a1.43 1.43 0 01-.76.63 1.38 1.38 0 01-1 0l-1.36-.49a1.5 1.5 0 01-.79-.63 1.38 1.38 0 01-.21-1l.79-6.66c.19-1.38.37-2.58.56-3.59v-.05h-.05c-.84 1.46-1.45 2.5-1.84 3.14l-3.6 5.71a1.5 1.5 0 01-.79.64 1.46 1.46 0 01-1 0l-1.3-.46a1.38 1.38 0 01-.77-.63 1.47 1.47 0 01-.19-1l2-13.33a.8.8 0 01.05-.21 1 1 0 01.42-.5.93.93 0 01.84-.1l.72.26a1.36 1.36 0 01.76.63 1.49 1.49 0 01.18 1l-1.19 6.41c0 .16-.06.36-.1.57.27-.08.5.38.74.71a4.48 4.48 0 01.27.65l.81-1.32 3.59-5.55a1.57 1.57 0 01.8-.64 1.55 1.55 0 011 0l.21.08a1.47 1.47 0 01.78.63 1.5 1.5 0 01.22 1l-.7 6.58q-.13 1-.42 2.85c-.19 1.26-.29 2-.32 2.12a.08.08 0 000 .08.05.05 0 00.07 0l2.31-4.41 3.13-5.72a1.46 1.46 0 011.73-.66l.5.18a.92.92 0 01.61.62.89.89 0 01.14.61zm-13.35-3.93c.06.14.11.29.16.44-.21.65-.16 1.58-.93 1.77-.39-.93.38-1.25.16-2l.06-.23c.16-.13.33-.15.55.02zm8.94.79l1.33-1c0 .53-.05 1.06-.07 1.59l-.62.23a1.13 1.13 0 01-.64-.8zm10.18 5.1c.32-.45.56-.8.8-1.15a3.66 3.66 0 00.18.46c-.06.61-.36.8-.98.71zm2.3 4.63c.12.29.23.58.34.86l-.44.71c-.21-.62-.59-1.33.1-1.55zm14 8.9a.79.79 0 01-.2.49.83.83 0 01-.71.35h-.85a1.59 1.59 0 01-1-.35 1.56 1.56 0 01-.55-.87l-.65-2.7a.2.2 0 00-.2-.17l-4.76-.13a.18.18 0 00-.19.16l-.82 2.66a1.6 1.6 0 01-.59.83 1.53 1.53 0 01-1 .3h-.74a.84.84 0 01-.71-.39.77.77 0 01-.15-.5 1 1 0 010-.29l4.65-13.2a1.63 1.63 0 01.62-.82 1.66 1.66 0 011-.29h1.24a1.64 1.64 0 011.55 1.2l3.91 13.44a.92.92 0 01.15.3zm9.4-4.13a3.53 3.53 0 003.18 1 3.89 3.89 0 002.16-1.11 1.37 1.37 0 01.75-.37h.09a1.05 1.05 0 01.85.26l.1.07a1.27 1.27 0 01.47.8 1.12 1.12 0 01-.26 1 6.27 6.27 0 01-3.84 2.1 7.2 7.2 0 01-2.82-.07 6.55 6.55 0 01-2.49-1.13 7.29 7.29 0 01-1.94-2.25 9.78 9.78 0 01-1.12-3.32 9.67 9.67 0 010-3.48 7.27 7.27 0 011.13-2.82 7.1 7.1 0 014.71-3 6.1 6.1 0 013.8.61 1 1 0 01.59.82 1.2 1.2 0 01-.17.86l-.06.12a1.11 1.11 0 01-.75.54h-.12a1.32 1.32 0 01-.81-.1 3.73 3.73 0 00-4.69 1.69 6.1 6.1 0 00-.51 4.07 6.49 6.49 0 001.75 3.73zm23.89-3.84a6.17 6.17 0 01-3.38 2.76 7.35 7.35 0 01-2.78.46 6.82 6.82 0 01-2.66-.66 6.91 6.91 0 01-2.32-1.86 9.86 9.86 0 01-1.72-3.05 10.13 10.13 0 01-.63-3.42 7.44 7.44 0 01.6-3 7.07 7.07 0 014.09-3.68 6 6 0 013.84-.11 1 1 0 01.74.7 1.27 1.27 0 010 .88v.12a1.11 1.11 0 01-.64.67h-.11a1.44 1.44 0 01-.82.05 3.69 3.69 0 00-4.29 2.52 6.11 6.11 0 00.24 4.09 6.39 6.39 0 002.38 3.38 3.52 3.52 0 003.29.35 4 4 0 001.92-1.49 1.36 1.36 0 01.67-.5h.08a1.06 1.06 0 01.89.09h.11a1.25 1.25 0 01.6.7 1.09 1.09 0 01-.1 1.02zm-11.1-12.45c-.19.11-.22.66-.62.23l-.18-.51c-.06-.74-.73-1.06-.88-1.74a1.15 1.15 0 01.14-1.15c.46-.24.86.45 1.29.61l.18 1.45a1.5 1.5 0 00.07 1.11zm24.16 10.72c-.26.27-.4.1-.47-.36.15-1-1.31-.66-1-1.79q.09-.22.3-.06a4.46 4.46 0 001.93 1.39c.02.7-.41.72-.76.86zm2.62-7.9a6.44 6.44 0 01-3.14 4.58 6.41 6.41 0 01-5.47.77 8.72 8.72 0 01-4.76-4.07 8.54 8.54 0 01-1.46-6 6.47 6.47 0 013.2-4.48 6.43 6.43 0 015.44-.83 8.47 8.47 0 014.73 4 8.76 8.76 0 011.46 6.07zm2.49 4.4a1 1 0 01-.59-.87c0-.12.07-.3.14-.3.47 0 .53.61.78 1zm14.85-21c.16-.47 0-1.23.48-1.4a14 14 0 011.54.79 2 2 0 011 .89c.09.37-.1.52-.19.75-.53 1.29-1.82 0-2.57.5l-.27-.57c.02-.27.01-.59.01-.91zm-4.14-6.52l.54.37c.17.49.73.59.76 1.21s-.41.69-.74.85c-.9-.72-1.2-1.52-.56-2.38zm2.26 10.3a5.62 5.62 0 01-2 4.4q-4.35 4.26-9.47-1l-5.13-5.26a1.14 1.14 0 01-.35-.86 1.23 1.23 0 01.36-.86l.51-.49a1.17 1.17 0 01.86-.34 1.15 1.15 0 01.86.36l5.35 5.47a5.62 5.62 0 002.88 1.87 2.58 2.58 0 002.27-.82 2.67 2.67 0 00.91-2.3 5.57 5.57 0 00-1.79-2.93l-5.35-5.47a1.21 1.21 0 01-.34-.87 1.2 1.2 0 01.36-.85l.42-.41a1.17 1.17 0 01.86-.34 1.23 1.23 0 01.86.36l5.16 5.28q2.65 2.72 2.77 5.06zm-8.28-23.31a71 71 0 01-45 30.85h-.16q-3 .62-6 1c-.13.75-.18 1.36.59 1.81l-1.12 1.53c-.5-.2-.64-.78-.84-1.29a1.53 1.53 0 01-.12-1.9 71 71 0 01-46.29-11.32 71.07 71.07 0 01-30.89-45.19 71.45 71.45 0 01-1.4-18.62l-.35-.26a1.24 1.24 0 01.06-.86l.15-.24a1.29 1.29 0 01-.6-.26c-.77-.74-1.86-1-2.13-2.53a1.21 1.21 0 01.09-.61c.32-.37.73-.24 1.17 0 .63.43 1.23 1.56 1.91.79l.12-1a2.7 2.7 0 01-.56-.12.37.37 0 01-.2-.28v-.19c-.2-.51-.54-1-.83-.66-1.58 1.79-2.29-.25-3.07-2.11.56.14.56.14.11-1.08a1.6 1.6 0 01.29-1.37c.45.12 1 .43 1.12-.34.56.34.89 1.41 1.58 1.29a1.19 1.19 0 01.66.38 7.53 7.53 0 001.22 1.18c0 .06.08.13.13.19a71.63 71.63 0 0155.68-58h.16a71 71 0 0153.78 10.17 71 71 0 0130.89 45.18 73.34 73.34 0 011.36 9.93 5.11 5.11 0 001.06.55 1.31 1.31 0 01.26 1.18c-.41.36 0 .88.13 1.35-.32.39.35.73.24 1.1a1.24 1.24 0 000 1c-.49-.21-.6-.88-.9-1.31a3.23 3.23 0 00-.62-.63 71 71 0 01-11.68 40.69zm17.4-21l-.93.29a.75.75 0 01-.05-1l.31-.16c.55-.17.64.32.67.89zm10.8 15.06l-.25.63a1.15 1.15 0 01-.65.68 1.2 1.2 0 01-.93 0l-10.84-4.28a.14.14 0 00-.21.09l-1.11 2.8a1.16 1.16 0 01-.64.68 1.18 1.18 0 01-.94 0l-.15-.06a1.2 1.2 0 01-.67-.64 1.18 1.18 0 010-.94l3.5-8.85a1.13 1.13 0 01.65-.67 1.18 1.18 0 01.92 0l.16.06a1.22 1.22 0 01.68.64 1.18 1.18 0 010 .94l-1.12 2.84a.14.14 0 00.1.21l10.84 4.28a1.15 1.15 0 01.66.64 1.14 1.14 0 010 .97z" fill="#375787"/><path d="M193.21 133.52h.05a74 74 0 0110.12-1.6 71.4 71.4 0 00-10.17 1.6zm17.76-19.51l-.68.77a1.35 1.35 0 010 .18h-1a102.27 102.27 0 01-2 13.73h1.26a1.59 1.59 0 01.11-.94c.6-.28 1.22-1.18 1.74.72a1.36 1.36 0 010 .2h1.78c.05.2.09.4.13.6a106.52 106.52 0 002-14.24c-.82 0-1.63-.06-2.45-.06-.38-.28-.62-.65-.89-.96z" fill="#375787"/><path d="M209.22 114.99h1a1.35 1.35 0 000-.18l.68-.77c.27.31.51.64.81 1 .82 0 1.63 0 2.45.06.07-1 .13-2 .17-3.06-1.68-.05-3.34-.06-5 0 .03.92-.03 1.94-.11 2.95zm-3.12-16.53h-.34zm-73.06-70.98a.17.17 0 00.12 0 .14.14 0 000-.11v-1.62q0-1 .09-2.88t.09-2.43a.08.08 0 00-.08 0q-1.31 2.27-2.76 4.52l-.85 1.38a.11.11 0 000 .11.1.1 0 00.07.08zM72.56 191.13a.06.06 0 00.07 0l.81-1.36a3.51 3.51 0 00-.66.14c-.08.5-.16.9-.22 1.22zm32.71-1.2c-.28-1.23-.47-2-.55-2.34a.08.08 0 00-.07 0q-.66 2.49-1.46 5l-.45 1.54a.11.11 0 000 .11s0 .05.1.06l3.4.09a.11.11 0 00.1-.05.11.11 0 000-.11l-.39-1.56c-.19-.59-.4-1.52-.68-2.74zm87.2-39.69c1.51-.35 3.05-.66 4.62-.91-1.56.24-3.09.54-4.59.88zm.63 16.37c1.27-.27 2.58-.49 3.89-.68v-.06c-1.35.2-2.67.43-4 .71zM80.24 27.87l3.28-1a.14.14 0 00.09-.08.13.13 0 000-.12l-.89-1.35c-.36-.55-.88-1.35-1.55-2.43s-1.11-1.76-1.31-2a.07.07 0 000 .06c.12 1.74.21 3.5.27 5.29l.07 1.62a.16.16 0 00.05.11.12.12 0 00-.01-.1zm123.52 120.66l.39-.35.32.08a1.6 1.6 0 001.07-.26c.53-.81-1.71-1.68-1-2.5 1-.06 1.92-.12 2.89-.14a105.87 105.87 0 004.33-13.67h-3.21c-.51-.46-1.05-.91-1.63-1.39-.05.25-.11.49-.16.74l1 .69-1.19.07a101.21 101.21 0 01-5.42 15.89l2.12.91h.06c-.91.07-1.82.16-2.72.26a104 104 0 01-7.85 14.32l-.3.44q3.22-.64 6.6-1c.32-.52.64-1.05.95-1.58-.24-.71-.56-1.11-1.08-.82-.21-.61-.25-1.07.33-1l-.26-.14c-.38-.44-.86-.85-.5-1.5.79-.42 1.37-.06 1.69 1.28l-.93.36c.39.53 1 1 .77 1.78a108.12 108.12 0 006.22-12.53c-.85 0-1.7.08-2.54.14zm-22.94 21.97c1.35-.62 2.76-1.18 4.22-1.69-1.47.52-2.88 1.09-4.24 1.71zm-28.06 4.82a3.29 3.29 0 00-3.13.24 3.25 3.25 0 00-1.61 2.68 6.67 6.67 0 001.19 3.88 6.83 6.83 0 003 2.85 3.33 3.33 0 004.73-2.91 6.79 6.79 0 00-1.18-3.93 6.66 6.66 0 00-3-2.81z" fill="#375787"/><rect x="2516.65" y="-32.86" width="3.2" height="2.19" rx=".25" transform="rotate(-11.5 2231.013 11350.858)" fill="#375787"/><path d="M118.07 136.69l-2.64.56a.21.21 0 00-.19.29l.34 1.63c0 .14.13.2.29.16l2.64-.56c.16 0 .23-.12.2-.26l-.35-1.63a.22.22 0 00-.29-.19z" fill="#375787"/><path d="M193.06 166.58l-.23-.19a2.82 2.82 0 00-1.54-.27 1.24 1.24 0 00-.9.68 1.94 1.94 0 00-.06.4l-.4.1a101.37 101.37 0 01-60.53 39.75c0 .08.05.16.07.24l-.38-.17-.66.15h-.24a103.19 103.19 0 01-14.63 2 2.15 2.15 0 01.24 1.23.61.61 0 01-1 .21c-1-1.66-1.37.84-2.27-.21-.05-.36-.11-.72-.16-1.07h-3.93a1.27 1.27 0 01.07.48c0 .13.08.27.11.4l-.69.3a.82.82 0 01-.31 0c-.69-.38-1.88.29-2-1.26a101.66 101.66 0 01-52.31-16.67 103 103 0 01-21-18.14l-.12.56c-.58-.29-.83.3-1.25.46-.1-.3-.21-.6-.32-.9.34-.92.95-.72 1.64-.17-.76-.86-1.49-1.74-2.21-2.62l-.06.06c-.43 0-.67-.43-.86-.93l-.8-1.24c-.74-1-1.46-1.9-2.16-2.87 0 .48 0 1-.08 1.46a3.56 3.56 0 01-.99-1.66l.24-.94A101.41 101.41 0 019.5 137.29c-.21.27-.19.9-.68.73a4.67 4.67 0 01-.38-1.95c0-.19.07-.37.11-.55a3.15 3.15 0 01.28-.55c-.63-2.22-1.18-4.46-1.66-6.74a101.58 101.58 0 0114.59-76.9 101.59 101.59 0 0164.35-44.1h.24a102.36 102.36 0 01120.82 78.46 3.23 3.23 0 01.32 1 2.63 2.63 0 010 .41q.83 4.14 1.32 8.28c1.66-.07 3.33-.08 5 0-.39-3.32-.91-6.63-1.61-9.94a106.48 106.48 0 00-46.27-67.77 106.93 106.93 0 00-38.76-15.68.76.76 0 01.25.95 1.88 1.88 0 00-1.76 0 1.33 1.33 0 01.06-1.23 107.13 107.13 0 00-40.43.72h-.25a106.47 106.47 0 00-52.76 28.2 4.91 4.91 0 00-.21.86.69.69 0 01-.38-.27 108.16 108.16 0 00-14.18 17.43A106.57 106.57 0 00.02 104.69l.41-.3a.84.84 0 01.33.48 13.75 13.75 0 01-.1 1.46c-.14.48-.38.52-.66.41a107.81 107.81 0 001.29 17 .69.69 0 01.4 0 1.79 1.79 0 01.79 1.39c.86 1.34-.16 1.19-.45 1a2.12 2.12 0 00-.36-.19c.19 1.1.4 2.19.63 3.28a107.34 107.34 0 00125.09 83.34 2.28 2.28 0 010-.87l-.15-.5a1.91 1.91 0 011.11 1.19l.89-.18h.25a106.67 106.67 0 0044.55-20.93 4 4 0 01-.47-1c-.05-.15-.1-.3-.16-.45.12-.37.62 0 .69-.48a1.08 1.08 0 011.28.69v.14a107.22 107.22 0 008.67-8 8.9 8.9 0 00.19-1.22.24.24 0 01.36-.14 1 1 0 00.42.34 107.78 107.78 0 0012-15.17c-1.31.19-2.62.41-3.89.68zm16.48-79.23a.6.6 0 01-.77-.2 1.31 1.31 0 00-.05-1.09c0-.73.17-1.19.86-.69a3.31 3.31 0 00-.04 1.98zm1-4.08l-.75.82c-1-.32-1.26-1.13-1.19-2.22-.26-.46-.12-.63.16-.69.7.45 1.64.56 1.74 2.09zm-5.6-16.07a.68.68 0 011-.38c.81.43.63 1.58 1.16 2.2a.62.62 0 01-.45.7l-.66.22a1.34 1.34 0 01-.37-.41 3.61 3.61 0 01-.24-.57c-.06-.19-.11-.39-.16-.59a4.43 4.43 0 01-.32-1.17zm2.55 14.55a.68.68 0 01.81.29c-.12.75-.44 1.1-1.1.87zm-19.52-42.8a.78.78 0 01-.13.74c-.31.05-.58.29-.93.2l-.57-1.51c.5-.29 1.04-1.18 1.59.57zM.97 97.5c.71-.25 1.14.66 1.67 1.19a2.23 2.23 0 011.62 2.1c.1.94 0 1.85-1 1.59-.41-.42-.5-1.11-.87-1.55a4.55 4.55 0 01-1-1.49l-.78-1.16a.57.57 0 01.33-.68zm1.91 16.35a4.53 4.53 0 01-.42-1.55c0-1.13.29-1.72 1.23-1.41 1.48 1.07.84 2.8 1.44 4.14.08.52.53 1.31-.27 1.2a8.19 8.19 0 01-1.13-1.27zm77.06 95.43a1.61 1.61 0 01-.75-2c.44-.33 1 0 1.49.15a1.57 1.57 0 01.3-.05c.06.14.12.28.17.42zm100-25.71c-.38-1-1.33-2.15-.38-3l.62.73c-.99.28.52 1.87-.25 2.27zm2.44-2l-.36-1 1.33.63c-.07.9-.59.39-.98.39zm6.2-11.88c.58-.88.72.17 1 .69-.43.14-.76-.08-1-.69z" fill="#375787"/><path d="M36.43 97.23l.06-.47c-.1.05-.13.18-.06.47zm151.13 54.31c1.38-.44 2.8-.83 4.25-1.18h-.06c-1.4.33-2.81.74-4.19 1.18zm16.2-3.01h-.05c.84-.06 1.69-.1 2.54-.14-.8.04-1.64.08-2.49.14zm6-18.49a4.67 4.67 0 01-.15.71.93.93 0 00.37.16 2.85 2.85 0 00.31-.12c-.13-.28-.24-.59-.37-.86zm-1.25 1.65h3.21a24.56 24.56 0 00-3.21 0zm-18.18 35.52l-.38.09zm10.28-18.35c.9-.1 1.81-.19 2.72-.26h-.06c-.89.07-1.77.15-2.64.25zm5.92-17.17h1.23c-.39 0-.78 0-1.17.06zm2.57-33.4c1.65-.07 3.32-.06 5 0h-5z" fill="#375787"/><path d="M209.41 111.94h5a104.61 104.61 0 00-.3-13.7h-5a102.12 102.12 0 01.3 13.7zm.79-5.28c0-.17.13-.3.18-.42.21 0 .41 0 .4.32a.56.56 0 01-.23.44c-.15.09-.35-.06-.35-.31zm1.69 1.88c.25.94-.44.94-.67 2.05-.44-1.55-.44-2.17.18-2.3a.61.61 0 01.49.25zm-1.49 21.03h.01-.01zm-7.76-14.17c1.18-.13 2.36-.22 3.56-.29.08-1 .15-2 .19-3.05-1.61.09-3.21.21-4.78.4z" fill="#375787"/><path d="M46.54 108.63l5.06-1.07c.16 0 .25 0 .26.17a43 43 0 01.28 2.76 17.06 17.06 0 01-.07 2.54 10 10 0 01-.57 2.48 9.94 9.94 0 01-1.28 2.27 11.06 11.06 0 01-2.15 2.18 1.36 1.36 0 00-.51 1.07 1.17 1.17 0 000 .32 1.25 1.25 0 00.48.76s.1.11.16.16a2.56 2.56 0 001.38.63 2 2 0 00.61 0 1.92 1.92 0 00.78-.36 15.41 15.41 0 002.63-2.75 13 13 0 001.63-2.89 13 13 0 00.77-3.17 20.8 20.8 0 00.15-3.29c0-1-.13-2.21-.28-3.54a.22.22 0 01.2-.27l4.26-.9a.2.2 0 01.26.17l2 9.38c.4 1.86 1 3.08 1.74 3.64s2 .66 3.77.29l3.78-.8a3.82 3.82 0 002.82-1.81 8.86 8.86 0 00.37-4.57.71.71 0 000-.25 2 2 0 00-.64-1.08 2.53 2.53 0 00-1.41-.73.49.49 0 01-.17-.06 1.59 1.59 0 00-.54 0 1.49 1.49 0 00-.56.25 1.06 1.06 0 00-.36 1 12 12 0 01.22 2.93 1 1 0 01-.79.88l-2.82.59a1.45 1.45 0 01-1 0 1.81 1.81 0 01-.47-1.09l-2-9.38c0-.14 0-.23.2-.27l6.26-1.32a1.77 1.77 0 001.16-.81 1.74 1.74 0 00.26-1.38 1.78 1.78 0 00-.81-1.18 1.84 1.84 0 00-1.39-.25l-24.45 5.1a1.81 1.81 0 00-1.16.79 1.77 1.77 0 00-.26 1.4 1.82 1.82 0 00.81 1.16 1.81 1.81 0 001.39.3zm1.01-9.13l18.71-4a1.75 1.75 0 001.16-.79 1.69 1.69 0 00.27-1.38 1.86 1.86 0 00-.81-1.18 1.76 1.76 0 00-1.39-.26l-18.7 4a1.77 1.77 0 00-1.16.8 1.83 1.83 0 00-.27 1.4 1.74 1.74 0 00.81 1.16 1.78 1.78 0 001.38.25zm29.93-.31l8.8-1.86c.14 0 .21 0 .2.18a19.17 19.17 0 01-7 14.88 1.18 1.18 0 00-.42 1 .61.61 0 000 .19 1.27 1.27 0 00.56.81c.17.11.34.24.52.37a2.47 2.47 0 001.4.57 2.85 2.85 0 00.51 0 2 2 0 00.84-.41 22 22 0 007.49-14.43s0-.07.05-.07a.09.09 0 01.1 0q5.25 7.69 12.69 10.13a2 2 0 00.9 0 2.78 2.78 0 00.51-.17 2.32 2.32 0 001-1.08c.07-.17.14-.32.19-.46a3.35 3.35 0 00.21-.36 1.45 1.45 0 00.13-.93 1.07 1.07 0 00-.09-.27 1.33 1.33 0 00-.91-.8q-7.73-2.15-12.66-10.33a.29.29 0 010-.16.16.16 0 01.13-.09l9-1.91a1.77 1.77 0 001.16-.8 1.82 1.82 0 00.27-1.39l-.05-.25a1.8 1.8 0 00-.81-1.15 1.71 1.71 0 00-1.38-.27l-10.34 2.19c-.14 0-.22 0-.23-.18q-.39-3.51-1-6.48a1.74 1.74 0 00-.78-1.12 1.75 1.75 0 00-1.37-.25l-.49.1a1.82 1.82 0 00-1.16.79 1.89 1.89 0 00-.29 1.41c.58 3 .94 5.09 1.09 6.4a.23.23 0 01-.2.27l-9.41 2a1.75 1.75 0 00-1.16.81 1.79 1.79 0 00-.27 1.38l.06.25a1.79 1.79 0 00.8 1.16 1.76 1.76 0 001.41.33zm35.55-18.8a1.72 1.72 0 00-1.38-.25 1.83 1.83 0 00-1.18.79 1.77 1.77 0 00-.26 1.4l.17.83a.19.19 0 01-.16.26l-3.53.75a1.53 1.53 0 00-1 .67 1.51 1.51 0 00-.21 1.17 1.48 1.48 0 00.67 1 1.52 1.52 0 001.18.21l1.78-.37v.06a1.43 1.43 0 00-.82 1 1.6 1.6 0 000 .84 1.62 1.62 0 00.16.45 10.82 10.82 0 01.67 1.53c.05.13 0 .22-.14.25l-1.13.24a1.48 1.48 0 00-1 .69 1.54 1.54 0 00-.22 1.18 1.59 1.59 0 00.68 1 1.5 1.5 0 001.18.23l3.87-.82a.19.19 0 01.26.17l.41 2c0 .16 0 .26-.16.29l-3.74.79a1.52 1.52 0 00-1 .7 1.54 1.54 0 00-.22 1.2 1.52 1.52 0 00.69 1 1.51 1.51 0 001.2.23l3-.63a.12.12 0 01.13 0 .12.12 0 010 .12 20.65 20.65 0 01-3.1 5.65 1.63 1.63 0 00-.29 1.35 1.59 1.59 0 00.66 1 1.8 1.8 0 001.33.36.61.61 0 00.19 0 1.53 1.53 0 001-.69 25.39 25.39 0 001.88-3.56.07.07 0 01.07 0 .09.09 0 01.06.07l.9 4.26a1.78 1.78 0 00.81 1.18 1.86 1.86 0 001.4.25 1.77 1.77 0 001.16-.79 1.77 1.77 0 00.25-1.4l-1-4.66v-.09a.12.12 0 01.1 0c.41.26.82.52 1.22.8a1.45 1.45 0 001.21.26 1.32 1.32 0 001-.75 1.6 1.6 0 00.18-1.13 1 1 0 00-.08-.2 1.56 1.56 0 00-.88-1c-1.65-.81-2.81-1.36-3.5-1.67a.2.2 0 01-.13-.16.12.12 0 01.1-.15l3.49-.74a1.54 1.54 0 001-.69 1.55 1.55 0 00.23-1.2 1.52 1.52 0 00-.7-1 1.55 1.55 0 00-1.2-.23l-3.37.72a.23.23 0 01-.3-.2l-.41-2c0-.14 0-.23.2-.27l3.68-.77a1.54 1.54 0 001-.69 1.56 1.56 0 00.21-1.19 1.53 1.53 0 00-.67-1 1.48 1.48 0 00-1.19-.23l-1.41.3a.15.15 0 01-.12 0 .12.12 0 010-.12c.09-.47.22-1.14.38-2a1.28 1.28 0 000-.55 1.56 1.56 0 00-.28-.58 1.38 1.38 0 00-1.1-.48v-.06l1.5-.31a1.57 1.57 0 001-.68 1.51 1.51 0 00.21-1.17 1.51 1.51 0 00-.67-1 1.52 1.52 0 00-1.18-.21l-3.44.73c-.16 0-.26 0-.29-.17l-.17-.82a1.75 1.75 0 00-.84-1.3zm1.84 5.22a.15.15 0 01.16 0 .35.35 0 01.08.16c0 .48-.08 1-.17 1.64a1.79 1.79 0 000 .57 1.46 1.46 0 00.37.69 1.4 1.4 0 001.17.55h.1l-5.77 1.22a1.53 1.53 0 00.77-.89 1.28 1.28 0 00.1-.76 1.51 1.51 0 00-.15-.39 14.52 14.52 0 00-1.07-1.69.19.19 0 010-.15.15.15 0 01.09-.1z" fill="#fcd583"/><path d="M122.4 80.74h-.23a1.79 1.79 0 00-.41 0 1.32 1.32 0 00-.74.45 1.31 1.31 0 00-.32 1.22l1.93 9.07c.23 1.13.42 2.15.55 3.06s.21 1.94.27 3.08a17.36 17.36 0 01-.2 3.39 13.11 13.11 0 01-.92 3.16 2 2 0 00-.11 1.15 1.55 1.55 0 00.08.23 2 2 0 00.87 1.07h.07a1.74 1.74 0 001.31.27h.06a1.38 1.38 0 001-.75q2.52-5.62.71-14.76c0-.16 0-.26.17-.29l2.76-.58c.14 0 .23 0 .26.2l2.82 13.31a1.76 1.76 0 00.81 1.15 1.71 1.71 0 001.38.27 1.74 1.74 0 001.16-.8 1.82 1.82 0 00.27-1.39l-2.82-13.31c0-.16 0-.26.17-.29l1-.22a1.66 1.66 0 001.1-.76 1.68 1.68 0 00.25-1.32 1.7 1.7 0 00-.76-1.11 1.76 1.76 0 00-1.32-.25l-7.81 1.7c-.14 0-.23 0-.27-.2l-.83-3.93a.25.25 0 01.16-.32 55.48 55.48 0 007.27-3.81 1 1 0 00.53-1 2 2 0 000-.25 1.11 1.11 0 00-.55-.75l-.39-.21a2.62 2.62 0 00-1.56-.37 3.18 3.18 0 00-.43.06 2.87 2.87 0 00-1.09.48 40.57 40.57 0 01-5.74 3.3.86.86 0 01-.46.05zm20.24 21.61l.32.15a1.66 1.66 0 001.3.24 1.41 1.41 0 001-.83 22.37 22.37 0 001.49-8.58.24.24 0 01.23-.27l14.13-3a.17.17 0 01.23.14 1.39 1.39 0 00.62.91 1.36 1.36 0 001.09.2l.55-.11a1.76 1.76 0 001.17-.81 1.81 1.81 0 00.26-1.39l-2-9.47a1.79 1.79 0 00-.79-1.16 1.73 1.73 0 00-1.4-.27l-15.58 3.3a.2.2 0 01-.26-.17l-.37-1.75a.24.24 0 01.16-.32 106.49 106.49 0 0014.41-5.9 1 1 0 00.58-.89 2.48 2.48 0 000-.29 1.1 1.1 0 00-.5-.66l-.4-.24a3.27 3.27 0 00-1.6-.43 2.77 2.77 0 00-.72.06 3.72 3.72 0 00-.9.32 93.06 93.06 0 01-12.77 5.36 1 1 0 01-.43.06h-.59a1.37 1.37 0 00-.41 0 1.27 1.27 0 00-.73.47 1.32 1.32 0 00-.32 1.22l1.55 7.33c.26 1.21.46 2.32.61 3.33s.26 2.18.32 3.49a18.83 18.83 0 01-.2 3.9 16.56 16.56 0 01-1 3.69 1.94 1.94 0 00-.07 1 3.18 3.18 0 00.11.33 1.68 1.68 0 00.91 1.04zm3.21-17.21a.19.19 0 01.17-.26l13.37-2.83c.17 0 .26 0 .29.16l.88 4.14c0 .14 0 .23-.2.26l-13.6 2.88c-.15 0-.22 0-.23-.18-.16-1.43-.39-2.83-.68-4.17zm-71.01 46.87a.2.2 0 01-.26-.17l-.57-2.73a1.76 1.76 0 00-.81-1.17 1.81 1.81 0 00-1.39-.26h-.09a1.83 1.83 0 00-1.18.8 1.79 1.79 0 00-.24 1.4l.57 2.72c0 .15 0 .24-.2.27l-3 .63a1.7 1.7 0 00-1.11.76 1.75 1.75 0 00-.24 1.34 1.74 1.74 0 00.76 1.12 1.72 1.72 0 001.32.25l1.14-.24a.19.19 0 01.26.16l1.24 5.86a29.89 29.89 0 01.69 6 14.3 14.3 0 01-1.1 5.55 1.94 1.94 0 00-.11 1.14 1.71 1.71 0 00.09.27 1.86 1.86 0 00.9 1.06v.06a1.86 1.86 0 001.33.2h.06a1.36 1.36 0 001-.82 16.46 16.46 0 001.46-6.43 33 33 0 00-.6-7.09c0-.14 0-.23.2-.27l2.18-.46a.2.2 0 01.26.17c.71 3.63 1.16 6.23 1.38 7.8a9.19 9.19 0 01.14 2.87 1 1 0 01-.72.66.11.11 0 01-.1 0l-.61.13a1.09 1.09 0 00-.82.68 1.21 1.21 0 00-.1.76 1.78 1.78 0 00.14.36 2.75 2.75 0 001.07 1.12 2 2 0 001.36.19h.06a7.81 7.81 0 001.54-.46 3.23 3.23 0 001.8-1.79 8.15 8.15 0 00.05-3.68q-.36-2.76-1.71-9.74a.1.1 0 010-.11.14.14 0 01.12 0c.46.23.84.42 1.15.56a1.71 1.71 0 001.19.17h.18a1.42 1.42 0 00.95-.94l.12-.34s0-.07.09-.07a.11.11 0 01.1.06 36.69 36.69 0 003.43 5.46.32.32 0 01.06.4 16.63 16.63 0 01-4.11 5.42 1.49 1.49 0 00-.55 1.17 1.34 1.34 0 000 .41 1.69 1.69 0 00.47.84 1.45 1.45 0 01.16.18 2.09 2.09 0 001.32.62 1.67 1.67 0 00.5 0 1.69 1.69 0 00.81-.43 19.3 19.3 0 004.1-5.29.18.18 0 01.31-.06 17.2 17.2 0 005 3.07 1.65 1.65 0 001 .08 1.56 1.56 0 00.41-.15 2.27 2.27 0 001.06-1.06 4.91 4.91 0 00.22-.46 1.35 1.35 0 00.15-1 2.13 2.13 0 00-.09-.27 1.3 1.3 0 00-.88-.84 16.38 16.38 0 01-5.36-3.22.41.41 0 01-.12-.39 36 36 0 001-11.88c0-.15.06-.24.23-.27l.39-.09a1.7 1.7 0 001.11-.76 1.73 1.73 0 00.25-1.33 1.73 1.73 0 00-.77-1.12 1.68 1.68 0 00-1.32-.25l-7.21 1.52c-.16 0-.24 0-.22-.17v-3.31a1.67 1.67 0 000-.34 1.63 1.63 0 00-.54-.91 1.63 1.63 0 00-1.32-.46h-.56a1.78 1.78 0 00-1 .6 1.87 1.87 0 00-.48 1.35q.24 7.51-1.6 12a.09.09 0 01-.07 0h-.06a1.56 1.56 0 00-.7-1 1.51 1.51 0 00-1.2-.24l-4.39.93c-.16 0-.26 0-.29-.16l-.56-2.64c0-.14 0-.23.2-.27l5.2-1.25a1.69 1.69 0 001.13-.77 1.69 1.69 0 00.25-1.33 1.71 1.71 0 00-.77-1.12 1.69 1.69 0 00-1.35-.24zm11 2.37a.14.14 0 01.13-.13l3.81-.81c.16 0 .24 0 .25.17a34.14 34.14 0 01-.28 7.72.11.11 0 01-.08.08.12.12 0 01-.11 0 38.47 38.47 0 01-3.68-6.79.4.4 0 01-.12-.24zm38.53-3.6a1.77 1.77 0 001.17-.79 1.77 1.77 0 00.26-1.4l-.89-4.23a1.82 1.82 0 00-.81-1.16 1.82 1.82 0 00-1.39-.27l-10.18 2.16a1.77 1.77 0 00-1.16.8 1.77 1.77 0 00-.26 1.39l.89 4.23a1.81 1.81 0 00.81 1.18 1.82 1.82 0 001.38.25zm-9.69-3a.21.21 0 01.16-.29l6.56-1.38c.17 0 .27 0 .3.19l.38 1.78a.22.22 0 01-.2.29l-6.56 1.39c-.14 0-.23 0-.27-.2zm-6.29-4.86a1.54 1.54 0 00.69 1 1.54 1.54 0 001.2.22l13.86-2.93a1.54 1.54 0 001-.69 1.58 1.58 0 00.23-1.21 1.5 1.5 0 00-.7-1 1.55 1.55 0 00-1.2-.23l-13.86 2.94a1.56 1.56 0 00-1 .69 1.54 1.54 0 00-.22 1.21z" fill="#fcd583"/><path d="M126.05 131.9l-14 3a.88.88 0 00-.56.39.85.85 0 00-.12.65v.06h-.06a63.01 63.01 0 00-3.32-1.76.25.25 0 01-.11-.33 33.46 33.46 0 001.56-5.68 1.9 1.9 0 000-.54 2.3 2.3 0 00-.17-.48 1.76 1.76 0 00-.78-.67l-.59-.19a1.36 1.36 0 00-.78-.09.93.93 0 00-.36.14h-.15l-1 .21a.19.19 0 01-.26-.17l-.8-3.74a1.76 1.76 0 00-.8-1.18 1.85 1.85 0 00-1.39-.25h-.06a1.82 1.82 0 00-1.16.79 1.8 1.8 0 00-.27 1.41l.8 3.74a.2.2 0 01-.17.26l-1.84.39a1.63 1.63 0 00-1.09.74 1.66 1.66 0 00-.24 1.3 1.66 1.66 0 00.74 1.09 1.66 1.66 0 001.3.24l4.91-1a.12.12 0 01.13 0 .13.13 0 010 .12 23.09 23.09 0 01-4.78 8.92 2 2 0 00-.48 1.33 1.67 1.67 0 000 .5 2 2 0 00.41.87 1.42 1.42 0 00.22.28 1.39 1.39 0 001.09.63 1.79 1.79 0 00.41 0 1.28 1.28 0 00.74-.45c.44-.54.87-1.11 1.27-1.71a.1.1 0 01.1 0s.07 0 .08.08l1.77 8.37a1.76 1.76 0 00.81 1.18 1.82 1.82 0 001.38.25h.06a1.82 1.82 0 001.16-.79 1.75 1.75 0 00.27-1.41l-2.23-10.51a.08.08 0 010-.09.1.1 0 01.09 0c.48.35.94.7 1.38 1.06a1.39 1.39 0 001.21.28 1.31 1.31 0 001-.78l.17-.42h.09a.08.08 0 01.07.07l2.05 9.66a1.66 1.66 0 00.76 1.1 1.68 1.68 0 001.32.25l.61-.13a1 1 0 00.7-.48 1.09 1.09 0 00.15-.82.14.14 0 01.12-.18l9.38-2q.16 0 .18.09a1.06 1.06 0 00.47.7 1 1 0 00.8.15l.77-.16a1.79 1.79 0 001.16-.79 1.77 1.77 0 00.27-1.4l-2.24-10.58a1.82 1.82 0 00-.81-1.16 1.81 1.81 0 00-1.34-.36zm-6.29 11.52a.22.22 0 01-.2.3l-2.63.56a.22.22 0 01-.3-.19l-.35-1.66a.22.22 0 01.19-.3l2.64-.55a.22.22 0 01.3.19zm-1-4.9c0 .14 0 .23-.2.26l-2.64.56c-.16 0-.26 0-.29-.16l-.34-1.63a.21.21 0 01.19-.29l2.64-.56a.22.22 0 01.29.19zm7.6 3.52a.22.22 0 01-.19.29l-2.77.59a.22.22 0 01-.29-.2l-.35-1.65a.22.22 0 01.19-.3l2.76-.58a.22.22 0 01.3.19zm-1-4.91c0 .14 0 .23-.2.27l-2.76.58c-.16 0-.26 0-.29-.16l-.35-1.63a.22.22 0 01.2-.29l2.76-.59a.23.23 0 01.3.19zm28.46-26.2h-.1a1.84 1.84 0 00-1.16.81 1.74 1.74 0 00-.26 1.38l4.73 22.36a.79.79 0 01-.06.61 1.05 1.05 0 01-.61.33c-1.06.23-2 .42-2.92.59a1.09 1.09 0 00-.81.69 1.32 1.32 0 00-.08.72 1.58 1.58 0 00.18.43l.23.41a2.59 2.59 0 001.12 1.08 2 2 0 001.43.21h.06a11.56 11.56 0 004.29-1.65 2.73 2.73 0 001.06-1.6 6.48 6.48 0 00-.14-2.56l-4.74-22.39a1.82 1.82 0 00-.79-1.16 1.74 1.74 0 00-1.43-.26zm-14.23 3.02a2.4 2.4 0 00-.92.38 55.32 55.32 0 01-8.92 4.29 1.14 1.14 0 00-.7.79 1.44 1.44 0 000 .65 3.52 3.52 0 00.16.45 2.18 2.18 0 001 .81 1.6 1.6 0 001 .1.62.62 0 00.24-.08c1.15-.41 2.28-.86 3.38-1.32.16-.06.25 0 .28.13l.73 3.43a.22.22 0 01-.2.3l-4 .85a1.73 1.73 0 00-1.11.75 1.66 1.66 0 00-.25 1.32 1.65 1.65 0 00.76 1.1 1.71 1.71 0 001.32.24l3.31-.71a.14.14 0 01.12.06.15.15 0 010 .13 31.28 31.28 0 01-3 8.5 2.65 2.65 0 00-.32 1.54 1.2 1.2 0 000 .28 2.46 2.46 0 00.56 1.13l.34.38a1.24 1.24 0 001.06.48h.18a1 1 0 00.72-.57 34.27 34.27 0 002.3-6.54.05.05 0 01.07 0h.05l1.95 9.2a1.77 1.77 0 00.8 1.18 1.76 1.76 0 001.38.25 1.74 1.74 0 001.16-.79 1.76 1.76 0 00.25-1.4l-1.86-8.8a.07.07 0 010-.09.19.19 0 01.13 0c.94.64 1.76 1.21 2.45 1.73a1.45 1.45 0 001.14.24h.09a1.32 1.32 0 00.92-.81l.1-.24a1.83 1.83 0 00.11-1.15 1.73 1.73 0 00-.1-.33 2.07 2.07 0 00-1-1.08c-2.34-1.25-3.88-2-4.61-2.38a.42.42 0 01-.26-.33l-.26-1.23a.22.22 0 01.19-.3l3.47-.73a1.73 1.73 0 001.11-.75 1.66 1.66 0 00.24-1.32 1.62 1.62 0 00-.76-1.1 1.68 1.68 0 00-1.31-.24l-3.47.74a.23.23 0 01-.3-.2l-.88-4.2a.29.29 0 01.18-.36c1.18-.57 2.24-1.12 3.17-1.66a1.15 1.15 0 00.59-1 2.9 2.9 0 000-.34 1.27 1.27 0 00-.48-.74l-.26-.17a2.54 2.54 0 00-1.48-.48 2.86 2.86 0 00-.56.01zm12.56 17.14l-2.94-13.93a1.78 1.78 0 00-.8-1.17 1.76 1.76 0 00-1.4-.25 1.77 1.77 0 00-1.17.79 1.76 1.76 0 00-.25 1.4l3 13.92a1.75 1.75 0 00.79 1.16 1.73 1.73 0 001.4.27 1.76 1.76 0 001.17-.81 1.78 1.78 0 00.2-1.38z" fill="#fcd583"/><path d="M212.76 148.38c-.05-.13.06-.24.53-.31s2.31-.32 2.84.5l1.77.15c.53-.4.27-1.12-.2-1.49a2.5 2.5 0 01-.77-.83 6 6 0 01-.81-.59 10.74 10.74 0 00-1.22 1.4c.06-.56.13-1.13.17-1.69l-.95-.07c.37.44 0 .7-1.35.76h-.24c-.27.71-.55 1.43-.83 2.14zm67.23-20.86c-1-.14-2-.28-3-.44l-.78-.14c-.76-.13-1.52-.26-2.28-.41l-1.29-.25-1.82-.37-1.32-.29c-.89-.19-1.77-.4-2.66-.61h-.08c.74 1.15 1.48 2.31 2.25 3.46.05.07.12.14.16.21l2 .42.84.17 2.74.52 1.54.26 1.37.22 2.14.31.89.11c.92.12 1.84.21 2.76.3l.84.08c1 .09 2 .16 3.06.22 0 0 2.79.1 3.86.11s2.05 0 3.09-.05h1l2.06-.13 1.23-.1 2.13-.23 1-.12c0-.14.13-.31.48-.52 1.59-.94 1.49-2 0-2.62a69.78 69.78 0 01-8.86.73h-2.91c-.97 0-2.07 0-3.11-.1s-2.1-.14-3.14-.23l-1-.09-2.28-.26zm10 1.24c.77.61 1.46 1.25 2.32 2-.28.09-.62.28-.8.23a4 4 0 01-1.58-.59 6.47 6.47 0 01-.84-1.63c.35 0 .85-.08.94-.01zm-70.75-30.25l1 .09c.8.07 1.61.16 2.42.25l1 .12c1.1.14 2.2.3 3.31.48 1.23.34 2.46.68 3.7 1l2.32.68.58.17c2 .6 4 1.22 6 1.84l-.1-.26 1.64-.18c.08.34.23.68.3 1l2.84.89 1.27.4 1.63.51 2.88.89a3.75 3.75 0 00.73-.43c.09-.07.39 0 .59 0a7.91 7.91 0 00-.06.84l.29.09 1.87.57c1.09.34 2.17.67 3.26 1s2 .59 2.92.86l2.8.76c.59-.24 1.13-.13 1.36.36 1.4.36 2.8.71 4.21 1l.58.13q2.19.51 4.38 1a3.79 3.79 0 00.45-.2c1.13-.73 1.08-.74 2 .2a4.12 4.12 0 00.71.59h.36c.47-.08 1.05-.3 1.13-.54.31-.87.74-1.54-1.44-2.29a5.82 5.82 0 01-1.12-.53q-1.87-.34-3.75-.75h-.08c-1.19-.25-2.37-.52-3.56-.81l-.3-.07c-1.09-.26-2.19-.54-3.28-.82l-.5-.13q-1.82-.48-3.63-1c-1-.28-13.32-4-14.83-4.51-5.71-1.79-11.61-3.66-17.59-5.27-2.91-.49-5.82-.84-8.71-1 .11 1 .21 2 .29 3zm51.72 12.36a3.84 3.84 0 011.31-1.2 8.66 8.66 0 011.75.46l-2.33 1.56c-.26-.31-.84-.65-.73-.82zm45.1 29.4a62.57 62.57 0 01-7.84 2.6c-.83.22-1.67.42-2.5.6l-1.18.24-1.23.23c-.52.1-1.05.19-1.57.27l-.7.1c-.62.09-1.25.18-1.87.25l.87 1.13a5.43 5.43 0 01-1.15.53 9.42 9.42 0 01-2.46-1.39c-.91.08-1.83.14-2.72.16-10.35.4-20.63-1.4-30.8-4-1.12-.3-5.89-1.61-7.16-2l-1.42-.42-3.24-1-.49.55a4.4 4.4 0 01-1.1-.62 7.07 7.07 0 00-.78-.67l-4.22-1.32h-.58a3.91 3.91 0 01-3.12-1.12h-.13c-.25.53-.52 1-.78 1.57-.35-.15-1-.36-1-.44a13.25 13.25 0 01.73-1.46c-3-.94-6.08-1.85-9.17-2.75-.78.09-1.55.57-2.38.76l1.13 1.11a9.48 9.48 0 01-1.17.25q-1.89-1.7-3.65-3.44s.16-.08.39-.17c-1-.15-2-.28-3-.4.25.6-.32 1.34-1.37 1.93-.13.29-.28.58-.41.86 1.72.19 3.45.42 5.18.71 1.93.52 3.86 1.08 5.8 1.65.06-.22.36-.43.56-.64.24.12.66.24.7.37a1.31 1.31 0 01-.07.63l3.9 1.19c7.53 2.27 22.53 6.79 24.89 7.49l.31.09a1.59 1.59 0 01-.23-.39c-.09-.2.94-.58 2.15-1.27.51 1 1 1.53 1 2 0 .08-.15.19-.34.29l.2.05a118.19 118.19 0 0022.45 3.63 75.25 75.25 0 009-.05c.49 0 1-.08 1.45-.12l-.07-.06c-.21-.2-.35-.41-.53-.61a8.12 8.12 0 011.56-.14 14.94 14.94 0 012.7.41c1.24-.16 2.48-.35 3.72-.58l-1.23-.89 1.18-.75c.56.43 1.13.86 1.63 1.31a65.31 65.31 0 0010.59-3.15c-.63-.41-1-.86-.05-1.56a2.43 2.43 0 00.86-1.14 1 1 0 00-.21-.81c-.33.13-.69.27-1.03.4zm-97.3-8.26l.09-.08-.29.07zm97.5 24.53a66.75 66.75 0 01-6.7 2.43c-.86.26-1.7.48-2.55.69.15.08.3.17.46.24l-2.74.31a75.31 75.31 0 01-26.12.76 5.06 5.06 0 01-.67.55c-.53-.26-1.42-.5-1.49-.78a.19.19 0 010-.07q-2.59-.39-5.18-.9c-1.33-.26-2.66-.54-4-.85s-2.89-.66-4.34-1q-2.71-.67-5.43-1.43l-2.37-.71a5.35 5.35 0 01.54 1.3c.06.23-.37.49-.58.74-.31-.14-.79-.25-.9-.43a8 8 0 01-1-2 .21.21 0 01.05-.19c-2.5-.75-5-1.51-7.48-2.29-.54.56-1.17 1.1-1.79 1.63a11.68 11.68 0 003.08.75c2.84.33 3 1.3 3.38 2.22 2.94.9 5.89 1.77 8.85 2.57 1.88.5 3.75 1 5.65 1.43 1.47.35 3 .69 4.45 1s2.74.56 4.12.78a100.93 100.93 0 0012.11 1.4l1.53.06a9.63 9.63 0 01-.56-2.36c0-.21 1.14-.53 1.81-.61.38 0 1.27.33 1.26.48a24.34 24.34 0 01-.44 2.53q3.38 0 6.76-.23h.71l1.59-.17 1.17-.13 1.4-.2 1.42-.23 1.23-.22c.57-.1 1.14-.22 1.71-.35l1-.21c.91-.21 1.82-.44 2.72-.7 1.2-.32 2.41-.68 3.63-1.11q2.44-.8 4.9-1.86a1.47 1.47 0 00.78-2 1.5 1.5 0 00-1.97-.84zm-95.77-26.4c0-.17 0-.36-.07-.52s-.28-.34-.42-.51l-.82-.07c-.3.23-.59.46-.48.59.67.86.86 1.61.12 2.3a7.66 7.66 0 001.58-.65l.47-1.07zm94.89 43.11a66.71 66.71 0 01-28.91 5.15c-1.55 0-3.11-.14-4.66-.29a81.68 81.68 0 01-5.17-.57c-2.21-.33-4.41-.7-6.6-1.13-9.57-1.91-19-4.88-28.38-7.83-5-1.59-10.2-3.18-15.44-4.65.16.1.33.19.46.29s-.91.69-1.35.66a17.42 17.42 0 01-3-.85c.82-.29 1.41-.55 1.82-.69h-.09a92.85 92.85 0 00-11.64-1.21 3.66 3.66 0 011.07.83c.17.26-.13.61-.23.93a6.77 6.77 0 01-1.4-.9c-.17-.21-.05-.49 0-.9h-.9c-1.19.32-2.09.9-2.2 0-1.23 0-2.45 0-3.67.07-.57 1-1.17 2.05-1.78 3.06a84.23 84.23 0 0110.66 0s-.06-.05-.06-.08.32-.47.57-.49a1.26 1.26 0 01.87.38c0 .07 0 .17-.13.27q3 .23 6 .66c.72.09 1.44.2 2.16.32 5.79 1.59 11.65 3.43 17.34 5.22l3.43 1.08 1.14.35 2.59.81 1.26.38 3.14.94.66.2 3.38 1 1.28.35 2.42.65 1.35.35q1.48.38 3 .72l.7.17 2.79-1.36c.68 1 1.22 1.4 1.21 1.81v.43c1.36.28 2.73.53 4.1.76 2.24.37 4.51.71 6.76.93 1.59.17 3.18.3 4.78.38h.53c1.58.06 3.17.1 4.76.08a68.81 68.81 0 0026.53-5.47 1.49 1.49 0 00.79-2 1.49 1.49 0 00-1.94-.81z" fill="#375787"/><path d="M227.1 131.04a.83.83 0 01.17-.15l.66-.38-2-.57zm88.57-6.96c.28.38.58.75.89 1.12a1.28 1.28 0 00.74 0c.19-.07.36-.29.3-.42-.2-.41-.43-.82-.67-1.22zm-88.11 23.61a1.4 1.4 0 01-.17-.09c-.94-.35-2.19-1-2.92-.83a2.94 2.94 0 01-2.63-.56l-2.19-.3a6.52 6.52 0 01.1 2.28 4.25 4.25 0 01-.24.74c1.59.18 3.19.39 4.79.66 2 .53 4 1.11 6 1.69l.28.09q2.91.86 5.79 1.76c-.46-.19-.92-.37-1.33-.56s-1-.42-1.57-.63c.49-.07 1-.18 1.49-.21 1.3-.07 2.61-.1 5.18-.19a1.79 1.79 0 011 .59 3.92 3.92 0 001.23 1.49l1.14-1.42c-.32-.1-8.76-2.72-12.74-3.89l-2 1.21c-.82-.77-1.69-1.32-1.54-1.5s.21-.25.33-.33zm83.73-38.24c0 1.49-2.44 2.22-3.29 3.4a.36.36 0 000 .21 66 66 0 008.12-2.3c.55-.59-.09-1-.84-1.55l-.28-.2-.5-.09c-1.08.16-3.22.31-3.21.53zm6.73.31l.31.13a2.88 2.88 0 00-.31-.13zm-18.52 4.59c2.15-.2 4.3-.49 6.45-.9a2.39 2.39 0 00-1.44-1.57c.6-.49.47-.88.12-1.25-2.2.38-4.39.64-6.57.8.37.89.76 1.78 1.18 2.66a.9.9 0 00.26.26zm8.48-4.39l-.29.07.19.15c.03-.08.07-.15.1-.22zm7.62-2.27c-.54.2-1.09.39-1.64.57l1 .72a11.77 11.77 0 012.8.71l.23.1c-.15-.07-.26-.13-.44-.2a4.39 4.39 0 01-1.95-1.9zm-84 7.54c.23 0 .36-.23.45-.48-1.78-.52-3.56-1.06-5.36-1.54l-.65 2.93 4 1.13 2.69.8 1 .31q3.67 1.11 7.3 2.25a1.32 1.32 0 01.51-.21 7.07 7.07 0 011.67.86h.11l.62.2c1.58.49 5.09 1.55 8.42 2.55l.14-.06.19.16 7 2.11.57-.62 1.84 1.27c1.6.42 3.2.83 4.8 1.21q-1.17-1.85-2.31-3.7c-1.71-.43-3.43-.88-5.14-1.36-1-.29-13.78-4.18-15.29-4.64l-2.64-.83-2.49-.77a1.55 1.55 0 01-.37.51 2.35 2.35 0 01-2.83.5c-1.21-.46-2.76-.59-4-1.06-.61-.22-4.66-.65-.23-1.52zm55.05-.76h.71l1.85.11h3a18.2 18.2 0 01-4.33-2.52c-.79-.76-1-.06-1.24.28s-.36.5-.23.67c.44.59.44 1 .22 1.37zm-5.48-3.63h-.08.05zm-91.22 56.45l.38-.09a1.94 1.94 0 01.06-.4 1.24 1.24 0 01.9-.68 2.82 2.82 0 011.54.27l.23.19c1.3-.28 2.62-.51 4-.71.7-1.08 1.39-2.18 2.05-3.29q-3.37.39-6.6 1-1.26 1.92-2.56 3.71zm13.32-18.72l-2.12-.91c-.17.39-.35.77-.52 1.16.87-.13 1.75-.13 2.64-.25zm-6.19-2.23h-.2c-1.65.26-3.26.57-4.84.93-.52.42-1.11.84-1.77 1.33-.29-.24-.62-.46-.94-.68-.47.13-.91.28-1.37.42.69.2 1.34.47 2 .72l-.83.29-2.07-.74c-.79.25-1.57.51-2.33.78l2.12 1.72.7.46c1.38-.44 2.79-.83 4.23-1.18l-.08-.05c.27-1.22.64-2.25 2-1.33l.18.6c-.7-.51-1 .2-1.35.6 1.5-.34 3-.64 4.59-.88.39-.83.76-1.65 1.13-2.48l-.68-.16a1.16 1.16 0 01-.49-.35zm12.82-16.6l-.06.05zm-2.14 1.95l-1-.69c-.06.25-.13.5-.19.75.36-.06.75-.06 1.19-.06zm-2.2 16.31a1.6 1.6 0 01-1.07.26l-.32-.08-.39.35c.83-.06 1.67-.1 2.5-.13.43-1 .83-2 1.22-3-1 0-1.93.08-2.89.14-.76.78 1.48 1.65.95 2.46zm4.28-18.21a.93.93 0 00-.1.25l.16-.11zm-.74-31.51c1.65-.06 3.32-.07 5 0-.08-1-.19-2-.3-3h-5c.1 1 .21 2 .3 3zm-26.25 2.75a1.49 1.49 0 00-.72 2 1.49 1.49 0 002 .75c.84-.39 1.7-.75 2.57-1.09-.63-.36-1.08-.61-1-.7a4.31 4.31 0 011.85-.88c.18 0 1.49.5 1.48.72 1.8-.62 3.69-1.16 5.62-1.62a1.56 1.56 0 010-1.06l-1.63-.16c-.35 0-.63-.35-.94-.54l3.14-.53.32-.35.54.23 1-.14a3.27 3.27 0 011.84.59 1.1 1.1 0 01-.35.76 4.55 4.55 0 01.49.3q3.26-.56 6.65-.81h.4c-.09-1-.2-2-.32-3a67.39 67.39 0 00-22.94 5.53z" fill="#375787"/><path d="M210.33 128.69a2 2 0 01-.28 1 .59.59 0 01.35 0 1 1 0 01.38.12 1.63 1.63 0 01.66 1.51c-.62.51-.93.13-1.17-.42a2.85 2.85 0 01-.31.12.93.93 0 01-.37-.16.44.44 0 01-.34.3c-.11-.3-.22-.6-.34-.9a10.45 10.45 0 01-.41-1.47h-1.26c-.11.5-.23 1-.35 1.51.58.48 1.12.93 1.63 1.39h3.2c.19-.78.36-1.57.53-2.37 0-.2-.08-.4-.13-.6zm-7.8.33a73.81 73.81 0 00-12.8 2.31 7.84 7.84 0 002.4 1.75c.38.15.74.29 1.08.44a71.4 71.4 0 0110.18-1.59c.2-.78.39-1.56.57-2.33a2.24 2.24 0 00-.4.46c-.98.22-1.15-.07-1.03-1.04zm-16.87 37.31a8.84 8.84 0 01-1.81 1c-.15-.11-.33-.29-.56-.44l-.65-.44c-1.11.42-2.23.84-3.28 1.32a1 1 0 00-.25.15 1.07 1.07 0 00-.16.14h-.05a1.49 1.49 0 00-.3 1.56 3.4 3.4 0 01.57.15c.56.2 1.1.41 1.65.62 1.36-.62 2.77-1.19 4.24-1.71 1-1.34 2.07-2.7 3.07-4.11-1.08.3-2.13.63-3.17 1 .4.32.8.67.7.76zm16.49-4.03q-.29.51-.6 1c-.3.51-.6 1-.91 1.53l-.39.61c1-.11 2.06-.2 3.1-.27.61-1 1.21-2 1.78-3.06-1 .06-1.99.12-2.98.19zm14.46-63.96h.05l2.48.16c-.08-1-.18-2-.29-3-.84-.06-1.69-.11-2.53-.15.11.97.21 1.98.29 2.99zm-7 48.44c-.2.52-.4 1-.61 1.55h2.7c.28-.71.56-1.43.83-2.14a10.36 10.36 0 00-2.29.19 1.62 1.62 0 00-.63.4z" fill="#375787"/><path d="M197.03 165.87c1.06-.16 2.13-.3 3.22-.41l.39-.61a2.13 2.13 0 01-.16-.25 1.4 1.4 0 01-.08-.66 1 1 0 011-.65h.2q.32-.51.6-1c-1 .08-2 .17-3.07.28-.71 1.12-1.37 2.22-2.1 3.3zm17.07-67.62q.93 0 1.86.06h.65c-.08-1-.18-2-.29-3-.85 0-1.69-.06-2.52-.07.11 1 .22 2 .3 3.01zm-.87 33.44a2.1 2.1 0 01-.86-1.58c0-.26-.08-.54-.13-.82-.17.8-.34 1.59-.53 2.37zm-4.91 15.35a2.36 2.36 0 00-.64-1.69h-.18c-.39 1-.79 2-1.22 3 .9 0 1.81-.06 2.72-.07.21-.51.41-1 .61-1.55-.25.2-.5.47-.85.74-.18-.14-.45-.3-.44-.43zm-10.08-.22c-.37.83-.74 1.65-1.13 2.48 1.16-.19 2.33-.35 3.52-.48.17-.39.35-.77.52-1.16l-.89-.38zM190 164.63a6.23 6.23 0 01-1.09.58c-.11-.26-.22-.48-.31-.67l-.47.13c-1 1.41-2 2.77-3.07 4.11 1.57-.55 3.21-1 4.89-1.49q1.3-1.8 2.53-3.67c-1 .2-1.93.41-2.88.65a4.81 4.81 0 01.4.36zm14.69-35.78a1.09 1.09 0 01-.09.23 8.06 8.06 0 00-.64.52c-.18.77-.37 1.55-.57 2.33l.54-.05h.08c.84-.06 1.68-.11 2.53-.15.06-.25.13-.5.19-.75-.25-.17-.49-.34-.72-.52-.05 0 .25-.23.55-.5l.33.28c.12-.5.24-1 .35-1.51-.86.02-1.7.06-2.55.12zm1.41-30.4c1-.07 2-.13 3-.17-.09-1-.2-2-.32-3-1 0-2 .1-3 .17.12 1 .23 2 .32 3zm-18.54 53.09l-.7-.46.6.49z" fill="#375787"/><path d="M200.4 163.94a1.4 1.4 0 00.08.66 2.13 2.13 0 00.16.25c.31-.51.61-1 .91-1.53h-.2a1 1 0 00-.95.62zm-6.53-14.36l-.18-.6c-1.34-.92-1.71.11-2 1.33l.08.05.73-.18c.4-.4.67-1.11 1.37-.6zm15.38-18.53a.44.44 0 00.34-.3c-.2-.12-.39-.25-.37-.28s.34-.29.52-.43a.93.93 0 01.1-.25l.06-.05a.87.87 0 01.15-.13 2 2 0 00.28-1h-1.83a10.45 10.45 0 00.41 1.47c.12.37.23.67.34.97z" fill="#375787"/><path d="M209.9 129.74l-.06.05.06.14.5-.35a.59.59 0 00-.35 0zm-.06.05v-.01.02-.01z" fill="#375787"/><path d="M210.27 130.79c.24.55.55.93 1.17.42a1.63 1.63 0 00-.68-1.52 1 1 0 00-.38-.12l.63.84c-.25.13-.47.28-.74.38zm-.23-1.1a.87.87 0 00-.15.13zm-7.51-.67c-.12 1 .05 1.26 1 1a2.24 2.24 0 01.4-.46c.06-.24.11-.48.16-.71zm1.43.58a8.06 8.06 0 01.64-.52 1.09 1.09 0 00.09-.23h-.57c-.05.27-.1.51-.16.75z" fill="#375787"/></svg>