<svg width="103" height="93" viewBox="0 0 103 93" fill="none" xmlns="http://www.w3.org/2000/svg">
<path d="M72.74 90.3C42.37 88.36 15.39 70.08 2.34 42.59C1.52 40.86 1.72 38.24 2.71 36.78C10.23 25.68 17.76 14.58 25.28 3.47C26.27 2.01 27.68 2.27 28.5 3.99C41.55 31.48 68.53 49.76 98.9 51.7C100.81 51.82 101.57 53.03 100.58 54.49C93.06 65.59 85.53 76.69 78.01 87.8C77.02 89.26 74.66 90.42 72.75 90.3H72.74Z" fill="#A2BEFF"/>
<path d="M18.47 68.16C11.21 61.14 5.14999 52.78 0.679991 43.37C-0.400009 41.1 -0.180009 37.75 1.18999 35.75L23.76 2.44C24.58 1.24 25.75 0.600003 26.97 0.690003C28.28 0.790003 29.43 1.7 30.15 3.2C42.92 30.09 69.31 47.97 99.02 49.87C100.67 49.98 101.95 50.71 102.53 51.89C103.07 52.99 102.91 54.32 102.1 55.52L79.53 88.83C78.17 90.84 75.14 92.29 72.63 92.13C51.99 90.81 32.88 82.11 18.48 68.17L18.47 68.16ZM26.73 4.58L4.21999 37.8C3.57999 38.75 3.45999 40.69 3.98999 41.8C8.26999 50.81 14.07 58.81 21.02 65.53C34.81 78.88 53.1 87.21 72.86 88.47C74.08 88.55 75.85 87.72 76.49 86.77L99 53.55C98.94 53.54 98.86 53.53 98.78 53.53C67.75 51.55 40.18 32.87 26.84 4.78C26.8 4.7 26.77 4.64 26.74 4.58H26.73Z" fill="#272525"/>
<path d="M86.84 61.48C82.95 67.22 79.06 72.95 75.18 78.69C74.88 78.62 74.56 78.56 74.21 78.53C70.81 78.19 66.68 79.79 64.9 82.41C64.72 82.68 64.57 82.94 64.46 83.21C42.76 79.28 23.67 66.35 11.99 47.65C12.19 47.44 12.39 47.21 12.57 46.94C14.35 44.32 14.31 39.89 12.73 36.86C12.57 36.55 12.4 36.27 12.22 36.02C16.11 30.28 20 24.55 23.88 18.81C24 19.15 24.14 19.48 24.3 19.78C25.88 22.81 28.8 22.99 30.57 20.37C30.75 20.1 30.91 19.82 31.05 19.51C42.74 38.21 61.83 51.14 83.52 55.07C83.29 55.31 83.08 55.57 82.9 55.84C81.12 58.46 82.37 61.11 85.77 61.45C86.11 61.48 86.47 61.49 86.83 61.48H86.84Z" fill="#EBF3FF"/>
<path d="M53.23 62.1C50.11 66.71 43.29 68.38 38.46 65.09C33.62 61.82 32.64 54.87 35.76 50.26C38.89 45.63 44.94 45.1 49.78 48.37C54.61 51.66 56.36 57.47 53.22 62.09L53.23 62.1Z" fill="#A2BEFF"/>
<path d="M28.56 43.64C26.94 46.03 23.96 46.15 22.07 43.74C20.18 41.34 20.1 37.33 21.72 34.94C23.34 32.55 26.04 32.68 27.93 35.09C29.82 37.5 30.17 41.25 28.55 43.65L28.56 43.64Z" fill="#A2BEFF"/>
<path d="M62.05 66.33C60.43 68.72 61.43 71.53 64.36 72.39C67.29 73.26 71.05 71.84 72.67 69.45C74.29 67.06 73.16 64.6 70.23 63.73C67.3 62.87 63.67 63.93 62.05 66.33Z" fill="#A2BEFF"/>
</svg>
