<svg width="88" height="98" viewBox="0 0 88 98" fill="none" xmlns="http://www.w3.org/2000/svg">
<path d="M84.55 34.57C85.01 37.59 85.27 40.44 85.35 43.1C85.41 44.71 85.41 46.26 85.35 47.74C85.24 51 84.87 53.98 84.31 56.68C82.6 65.02 79.12 70.79 75.89 74.57C73.62 76.75 71.23 78.78 68.76 80.65H68.75C56.31 90.03 41.4 95.45 25.75 95.88C23.91 95.93 21.78 94.81 20.99 93.47C15.03 83.29 9.05006 73.12 3.09006 62.93C2.30006 61.59 3.09005 60.41 4.83005 60.19C32.55 56.78 57.72 35.98 68.95 4.44C69.66 2.45 70.95 2.14999 71.92 3.80999C74.96 8.99999 78.02 14.2 81.06 19.39C81.06 19.39 81.06 19.39 81.07 19.41C81.14 19.59 81.59 20.77 81.9601 22.49C83.1501 26.8 84 30.82 84.55 34.56V34.57Z" fill="#A2BEFF"/>
<path d="M34.33 96.97C31.51 97.37 28.66 97.61 25.79 97.69C23.31 97.76 20.58 96.34 19.43 94.39L12.24 82.12C8.66997 76.03 5.10001 69.94 1.53001 63.85C0.880009 62.75 0.799978 61.53 1.30998 60.5C1.86998 59.37 3.05997 58.61 4.60997 58.41C32.49 54.98 56.49 34.07 67.26 3.84C68.1 1.49 69.52 1.02 70.3 0.949997C70.88 0.899997 72.36 0.979994 73.49 2.89999L82.63 18.48C82.63 18.48 82.67 18.54 82.68 18.58C83.09 19.37 82.87 20.36 82.12 20.89C81.31 21.46 80.18 21.26 79.61 20.45C79.57 20.39 79.53 20.33 79.5 20.27L70.63 5.14C59.55 36.15 35.02 57.74 6.36998 61.81C5.92998 61.87 5.49998 61.93 5.05998 61.98C4.89998 62 4.76997 62.03 4.67997 62.07C8.23997 68.15 11.8 74.22 15.36 80.29L22.55 92.56C22.97 93.27 24.47 94.11 25.71 94.08C40.81 93.66 55.33 88.52 67.68 79.21C67.69 79.21 67.7 79.19 67.71 79.19C70.16 77.34 72.4999 75.35 74.66 73.26C75.38 72.57 76.52 72.59 77.21 73.31C77.9 74.03 77.88 75.17 77.16 75.86C74.89 78.04 72.43 80.14 69.86 82.08C69.86 82.08 69.84 82.1 69.83 82.1C59.22 90.09 47.09 95.15 34.34 96.96L34.33 96.97Z" fill="#272525"/>
<path d="M82.26 37.48C82.68 40.23 82.91 42.81 82.99 45.24C82.78 46.64 82.77 48.1 82.99 49.46C82.89 52.43 82.55 55.13 82.05 57.59C70.88 74.49 53.88 85.7 35.06 88.83C34.98 88.58 34.86 88.34 34.72 88.1C33.3 85.67 29.65 84.21 26.51 84.51C26.19 84.54 25.89 84.59 25.6 84.66C22.56 79.47 19.51 74.28 16.47 69.09C16.8 69.09 17.11 69.08 17.42 69.03C20.49 68.61 21.78 66.05 20.36 63.63C20.22 63.39 20.05 63.15 19.86 62.93C39.33 58.1 56.69 43.87 66.87 23.2C67 23.53 67.15 23.84 67.32 24.12C68.96 26.93 71.63 26.71 73.01 23.4C73.15 23.06 73.27 22.71 73.37 22.34C76.33 27.39 79.29 32.44 82.25 37.49L82.26 37.48Z" fill="#EBF3FF"/>
<path d="M62.59 55.66C65.44 60.51 64.36 67.83 59.69 71.24C55.03 74.66 48.72 73.06 46.03 68.47C43.33 63.86 45.14 57.79 49.64 54.1C54.16 50.43 59.73 50.78 62.59 55.66Z" fill="#A2BEFF"/>
<path d="M37.66 72.99C39.03 75.33 37.95 78.14 35.15 79.03C32.36 79.92 28.96 78.61 27.63 76.34C26.3 74.06 27.5 71.63 30.25 70.67C33 69.71 36.29 70.64 37.66 72.99Z" fill="#A2BEFF"/>
<path d="M69.4 48.45C70.9 51 73.7 51.13 75.5 48.54C77.3 45.96 77.37 41.59 75.83 38.96C74.29 36.33 71.76 36.5 70 39.15C68.24 41.81 67.9 45.89 69.4 48.45Z" fill="#A2BEFF"/>
<path d="M82.2101 24.29C81.3201 24.42 80.46 23.86 80.22 22.98C79.97 22.05 79.68 21.06 79.35 19.95C79.07 19.02 79.57 18.04 80.49 17.72C81.4 17.4 82.41 17.87 82.76 18.77C82.89 19.11 83.35 20.36 83.73 22.12C83.93 23.07 83.34 24.02 82.39 24.25C82.33 24.26 82.27 24.28 82.22 24.28L82.2101 24.29Z" fill="#272525"/>
<path d="M75.89 74.57C72.3 78.77 69.01 80.52 68.76 80.65H68.75C81.2 63 70 39.14 70 39.14C83.32 37.47 83.05 27.62 81.96 22.49C89.93 51.22 82.42 66.92 75.89 74.56V74.57Z" fill="#A2BEFF"/>
<path d="M69 82.44C68.29 82.54 67.58 82.21 67.21 81.6C66.84 80.99 66.86 80.21 67.28 79.62C78.96 63.06 68.48 40.14 68.37 39.91C68.13 39.39 68.15 38.78 68.42 38.28C68.7 37.78 69.22 37.43 69.77 37.36C74.08 36.82 77.15 35.32 78.87 32.9C81.06 29.82 80.8 25.75 80.19 22.87C79.99 21.92 80.58 20.98 81.52 20.75C82.47 20.52 83.42 21.08 83.68 22.02C91.67 50.85 84.59 67.14 77.25 75.74C73.63 79.98 70.24 81.89 69.64 82.21C69.44 82.33 69.22 82.4 68.99 82.44H69ZM72.53 40.54C74.6 45.88 79.08 60.1 74.4 73.54C74.44 73.49 74.48 73.44 74.52 73.39C80.35 66.56 85.98 54.37 82.6 33.7C82.37 34.14 82.1 34.56 81.8 34.98C79.82 37.76 76.7 39.62 72.52 40.53L72.53 40.54Z" fill="#272525"/>
</svg>
