<svg width="163" height="54" viewBox="0 0 163 54" fill="none" xmlns="http://www.w3.org/2000/svg">
<g clip-path="url(#clip0_26188_5613)">
<path d="M25 0C11.22 0 0 11.22 0 25C0 36.59 7.94 46.34 18.66 49.16C19.54 51.84 22.03 53.78 25 53.78C25.92 53.78 26.79 53.59 27.58 53.26C29.37 52.51 30.73 51.01 31.34 49.16C31.56 48.5 31.7 47.81 31.7 47.07C31.7 46.33 31.55 45.59 31.31 44.9C30.41 42.26 27.93 40.36 24.99 40.36C24.8 40.36 24.62 40.4 24.44 40.42C21.74 40.64 19.52 42.44 18.67 44.91C10.23 42.22 4.1 34.32 4.1 25C4.12 13.49 13.49 4.12 25 4.12C36.51 4.12 45.89 13.49 45.89 25.01C45.89 25.19 45.87 25.35 45.86 25.53H49.98C49.98 25.36 50.01 25.19 50.01 25.01C50.01 11.22 38.79 0 25 0Z" fill="#232020"/>
<path d="M81.3001 0C67.5101 0 56.3 11.22 56.3 25C56.3 36.59 64.24 46.34 74.96 49.16C75.84 51.84 78.3301 53.78 81.3001 53.78C82.2201 53.78 83.09 53.59 83.88 53.26C85.67 52.51 87.03 51.01 87.64 49.16C87.86 48.5 88 47.81 88 47.07C88 46.33 87.85 45.59 87.6101 44.9C86.7101 42.26 84.2301 40.36 81.2901 40.36C81.1 40.36 80.92 40.4 80.74 40.42C78.04 40.64 75.8201 42.44 74.9701 44.91C66.5301 42.22 60.4001 34.32 60.4001 25C60.4001 13.48 69.7701 4.11 81.2901 4.11C92.8101 4.11 102.18 13.48 102.18 25C102.18 25.18 102.16 25.34 102.15 25.52H106.27C106.27 25.35 106.3 25.18 106.3 25C106.3 11.21 95.0801 0 81.3001 0Z" fill="#232020"/>
<path d="M137.59 0C123.8 0 112.59 11.22 112.59 25C112.59 36.59 120.53 46.34 131.25 49.16C132.13 51.84 134.62 53.78 137.59 53.78C138.51 53.78 139.38 53.59 140.17 53.26C141.96 52.51 143.32 51.01 143.93 49.16C144.15 48.5 144.29 47.81 144.29 47.07C144.29 46.33 144.14 45.59 143.9 44.9C143 42.26 140.52 40.36 137.58 40.36C137.39 40.36 137.21 40.4 137.03 40.42C134.33 40.64 132.11 42.44 131.26 44.91C122.82 42.22 116.69 34.32 116.69 25C116.69 13.48 126.06 4.11 137.58 4.11C149.1 4.11 158.47 13.48 158.47 25C158.47 25.18 158.45 25.34 158.44 25.52H162.56C162.56 25.35 162.59 25.18 162.59 25C162.59 11.21 151.37 0 137.59 0Z" fill="#232020"/>
</g>
<defs>
<clipPath id="clip0_26188_5613">
<rect width="162.6" height="53.79" fill="white"/>
</clipPath>
</defs>
</svg>
