<svg width="504" height="75" viewBox="0 0 504 75" fill="none" xmlns="http://www.w3.org/2000/svg">
<g clip-path="url(#clip0_26188_15737)">
<path d="M466.01 0H37.42C16.7535 0 0 16.7513 0 37.415C0 58.0787 16.7535 74.83 37.42 74.83H466.01C486.677 74.83 503.43 58.0787 503.43 37.415C503.43 16.7513 486.677 0 466.01 0Z" fill="#0073CA"/>
<path d="M45.5404 50.5865C47.7723 49.3957 50.1932 48.1764 52.528 46.8245C54.3152 45.7909 55.895 45.6276 57.8002 46.7539C60.4642 48.3336 63.3286 49.5719 66.1311 50.9296C66.7452 51.2243 67.4767 51.3749 67.9432 50.7058C68.2758 50.2368 68.0712 49.6494 67.8215 49.1668C66.7636 47.1275 65.8117 45.0194 64.585 43.0861C63.5824 41.4974 64.035 40.6562 65.5049 39.9119C66.4728 39.4222 67.4062 38.8795 68.3223 38.3104C69.1252 37.8223 70.0253 37.3503 69.7638 36.1474C69.5535 35.2205 68.7884 34.8617 67.9984 34.685C65.8909 34.2107 63.7873 33.6321 61.6557 33.4224C59.8227 33.2486 58.7095 32.5051 57.9055 30.8854C56.7602 28.5899 55.5038 26.344 54.1703 24.1595C53.1156 22.4501 52.214 22.5195 51.4172 24.3803C50.5584 26.3606 49.7753 28.3935 49.211 30.4727C48.6985 32.3938 47.5459 33.0866 45.7049 33.0802C44.4945 33.075 43.2774 33.1232 42.0577 33.1618C41.1145 33.1904 40.051 33.0746 39.6054 34.1413C39.1244 35.3102 40.1482 35.829 40.8378 36.4141C41.6595 37.1095 42.4631 37.9336 43.4276 38.3438C45.8146 39.3757 45.6868 40.9486 44.8331 42.9482C44.0956 44.6799 43.536 46.4996 42.952 48.305C42.7094 49.0399 42.3026 49.8588 43.0637 50.5596C43.8076 51.2339 44.5819 50.7947 45.5256 50.5696L45.5404 50.5865Z" fill="#FFD100"/>
<path d="M457.262 51.0492C455.093 49.7469 452.737 48.4066 450.473 46.9383C448.741 45.8156 447.171 45.5725 445.211 46.6009C442.471 48.0438 439.547 49.1355 436.68 50.3495C436.052 50.6129 435.313 50.7262 434.881 50.0343C434.573 49.5492 434.807 48.9729 435.081 48.5035C436.241 46.5204 437.298 44.4631 438.621 42.5944C439.703 41.0585 439.293 40.1955 437.863 39.3777C436.921 38.8397 436.016 38.2504 435.13 37.6356C434.353 37.1075 433.478 36.5906 433.8 35.4024C434.057 34.4873 434.839 34.1677 435.637 34.0313C437.766 33.6643 439.896 33.1929 442.036 33.0913C443.875 33.0105 445.024 32.3243 445.909 30.7475C447.17 28.5129 448.538 26.3335 449.98 24.2192C451.12 22.5654 452.017 22.6804 452.719 24.5791C453.476 26.6003 454.155 28.6702 454.614 30.7754C455.028 32.72 456.144 33.4702 457.983 33.5571C459.192 33.6131 460.406 33.7229 461.622 33.8231C462.562 33.8994 463.63 33.8376 464.021 34.9255C464.442 36.1172 463.394 36.5835 462.675 37.133C461.82 37.7859 460.975 38.5683 459.991 38.9292C457.555 39.8389 457.603 41.4163 458.355 43.4565C459.003 45.2233 459.47 47.069 459.962 48.9016C460.167 49.6478 460.532 50.4863 459.736 51.1477C458.959 51.7835 458.208 51.3056 457.277 51.0331L457.262 51.0492Z" fill="#FFD100"/>
<path d="M84.74 30.83C84.47 30.83 84.22 30.73 84.01 30.54C83.8 30.35 83.69 30.1 83.69 29.78V28.8C83.69 28.51 83.79 28.26 83.99 28.07C84.19 27.88 84.44 27.79 84.73 27.79C84.84 27.79 84.89 27.74 84.89 27.63V26.37C84.89 25.86 85.07 25.43 85.43 25.07C85.79 24.71 86.22 24.53 86.73 24.53H89.64C89.77 24.53 89.83 24.46 89.83 24.31C89.83 23.93 89.97 23.6 90.26 23.33C90.55 23.06 90.88 22.92 91.26 22.92H92.65C93.03 22.92 93.36 23.06 93.63 23.33C93.9 23.6 94.04 23.93 94.04 24.31C94.04 24.46 94.12 24.53 94.29 24.53H97.2C97.7 24.53 98.14 24.71 98.49 25.07C98.84 25.43 99.03 25.86 99.03 26.37V27.6C99.03 27.73 99.08 27.79 99.19 27.79C99.48 27.79 99.75 27.9 99.98 28.11C100.21 28.32 100.33 28.58 100.33 28.9V29.69C100.33 29.98 100.22 30.25 100 30.48C99.78 30.71 99.51 30.83 99.19 30.83C99.08 30.83 99.03 30.88 99.03 30.99V32.03C99.03 32.54 98.84 32.97 98.48 33.33C98.11 33.69 97.69 33.87 97.2 33.87H94.36C94.17 33.87 94.07 33.95 94.04 34.12V34.47C94.04 34.66 94.15 34.75 94.36 34.75H97.68C98.04 34.75 98.34 34.82 98.6 34.97C98.77 35.05 98.89 35.02 98.98 34.88C100.31 32.16 101.47 28.76 102.46 24.67C102.56 24.16 102.83 23.76 103.27 23.45C103.7 23.15 104.17 23.02 104.68 23.09L104.81 23.12C105.32 23.18 105.72 23.42 106.03 23.83C106.34 24.24 106.44 24.69 106.33 25.17C106.1 26.2 105.92 26.89 105.79 27.22C105.75 27.39 105.82 27.48 106.01 27.51H112.49C113 27.51 113.43 27.69 113.79 28.05C114.15 28.41 114.33 28.84 114.33 29.35V29.73C114.33 30.13 114.19 30.47 113.92 30.76C113.65 31.04 113.3 31.19 112.88 31.19C112.73 31.19 112.66 31.25 112.66 31.38C112.18 37.09 111.06 41.51 109.31 44.65C109.23 44.78 109.25 44.93 109.37 45.12C110.23 46.15 111.38 47.15 112.81 48.12C113.23 48.41 113.52 48.81 113.66 49.3C113.8 49.79 113.77 50.27 113.53 50.74V50.8C113.3 51.22 112.94 51.51 112.46 51.67C111.98 51.83 111.51 51.76 111.07 51.46C109.45 50.43 108.11 49.32 107.06 48.14C106.93 47.99 106.81 47.98 106.68 48.11C105.42 49.42 103.92 50.55 102.19 51.52C101.73 51.77 101.25 51.83 100.77 51.69C100.29 51.55 99.91 51.27 99.63 50.85L99.47 50.66C99.22 50.24 99.15 49.78 99.28 49.3C99.41 48.82 99.69 48.46 100.13 48.23C101.84 47.24 103.26 46.1 104.4 44.82C104.5 44.67 104.53 44.53 104.46 44.38C103.47 42.44 102.69 40.17 102.12 37.55C102.1 37.51 102.07 37.49 102.03 37.49C101.99 37.49 101.96 37.51 101.94 37.55C101.9 37.63 101.83 37.77 101.73 37.94C101.64 38.12 101.57 38.26 101.52 38.37C101.35 38.69 101.1 38.89 100.76 38.99C100.42 39.09 100.11 39.07 99.81 38.94C99.62 38.88 99.53 38.91 99.53 39.03C99.49 39.51 99.29 39.91 98.95 40.21C98.6 40.52 98.19 40.67 97.7 40.67H92.96C92.79 40.67 92.66 40.75 92.58 40.92C92.5 41.13 92.43 41.29 92.39 41.39C92.33 41.54 92.38 41.61 92.55 41.61H98.87C99.27 41.61 99.62 41.76 99.93 42.07C100.23 42.38 100.39 42.73 100.39 43.13C100.39 43.55 100.24 43.92 99.93 44.22C99.62 44.52 99.27 44.68 98.87 44.68H98.46C98.29 44.68 98.16 44.75 98.08 44.9C97.74 45.68 97.29 46.44 96.72 47.18C96.68 47.22 96.67 47.28 96.69 47.35C96.71 47.42 96.76 47.47 96.85 47.49C96.98 47.53 97.17 47.61 97.42 47.71C97.67 47.81 97.86 47.89 97.99 47.93C98.41 48.1 98.71 48.4 98.87 48.83C99.04 49.26 99.01 49.68 98.78 50.08C98.53 50.5 98.15 50.8 97.66 50.96C97.16 51.13 96.67 51.12 96.19 50.93C94.82 50.36 94.06 50.05 93.91 49.98C93.76 49.92 93.61 49.94 93.47 50.04C91.66 51.16 89.4 51.95 86.71 52.41C86.23 52.49 85.78 52.41 85.38 52.16C84.98 51.91 84.68 51.54 84.5 51.05C84.35 50.65 84.4 50.26 84.64 49.88C84.88 49.5 85.21 49.28 85.64 49.22C86.95 49.01 88.04 48.76 88.93 48.46C88.97 48.44 88.99 48.41 88.99 48.38C88.99 48.35 88.97 48.32 88.93 48.3C88.85 48.28 88.52 48.19 87.97 48.05C87.42 47.91 86.99 47.79 86.69 47.7C86.27 47.59 85.97 47.33 85.79 46.91C85.61 46.49 85.64 46.09 85.87 45.71C85.93 45.63 86.02 45.49 86.14 45.32C86.26 45.14 86.34 45 86.38 44.89C86.4 44.85 86.4 44.8 86.36 44.75C86.33 44.7 86.28 44.67 86.22 44.67H85.56C85.16 44.67 84.81 44.52 84.5 44.23C84.19 43.94 84.04 43.57 84.04 43.12C84.04 42.72 84.19 42.37 84.5 42.06C84.8 41.75 85.16 41.6 85.56 41.6H87.74C87.93 41.6 88.06 41.52 88.12 41.35C88.14 41.31 88.17 41.24 88.2 41.14C88.23 41.04 88.26 40.97 88.28 40.9C88.36 40.73 88.31 40.65 88.12 40.65H86.32C85.82 40.65 85.38 40.48 85.01 40.13C84.64 39.78 84.46 39.36 84.46 38.85V36.51C84.46 36 84.64 35.58 85.01 35.23C85.38 34.88 85.82 34.71 86.32 34.71H89.64C89.81 34.71 89.89 34.62 89.89 34.43V34.08C89.89 33.91 89.81 33.83 89.64 33.83H86.8C86.29 33.83 85.86 33.65 85.5 33.28C85.14 32.91 84.96 32.49 84.96 32V30.96C84.96 30.86 84.91 30.8 84.8 30.8L84.74 30.83ZM88.38 38.32H90.15C90.32 38.32 90.4 38.22 90.4 38V37.43C90.4 37.24 90.32 37.15 90.15 37.15H88.38C88.19 37.15 88.09 37.24 88.09 37.43V38C88.09 38.21 88.18 38.32 88.38 38.32ZM88.41 27.42V27.93C88.41 28.12 88.52 28.21 88.73 28.21H90.15C90.32 28.21 90.4 28.12 90.4 27.93V27.42C90.4 27.25 90.32 27.17 90.15 27.17H88.73C88.52 27.17 88.41 27.25 88.41 27.42ZM88.41 30.67V31.14C88.41 31.33 88.52 31.42 88.73 31.42H90.15C90.32 31.42 90.4 31.33 90.4 31.14V30.67C90.4 30.5 90.32 30.42 90.15 30.42H88.73C88.52 30.42 88.41 30.5 88.41 30.67ZM90.97 44.7C90.8 44.7 90.66 44.76 90.56 44.89L90.27 45.39C90.19 45.56 90.23 45.66 90.4 45.71C91.28 45.9 92 46.07 92.55 46.22C92.74 46.26 92.9 46.23 93.02 46.13C93.34 45.84 93.66 45.43 94 44.93C94.04 44.89 94.05 44.84 94.02 44.79C93.99 44.74 93.94 44.71 93.88 44.71H90.97V44.7ZM93.62 27.42V27.93C93.62 28.12 93.7 28.21 93.87 28.21H95.29C95.48 28.21 95.58 28.12 95.61 27.93V27.42C95.61 27.25 95.5 27.17 95.29 27.17H93.87C93.7 27.17 93.62 27.25 93.62 27.42ZM93.62 30.67V31.14C93.62 31.33 93.7 31.42 93.87 31.42H95.29C95.48 31.42 95.58 31.33 95.61 31.14V30.67C95.61 30.5 95.5 30.42 95.29 30.42H93.87C93.7 30.42 93.62 30.5 93.62 30.67ZM93.62 37.44V38.01C93.62 38.2 93.7 38.3 93.87 38.33H95.64C95.83 38.33 95.92 38.23 95.92 38.01V37.44C95.92 37.25 95.83 37.16 95.64 37.16H93.87C93.7 37.16 93.62 37.25 93.62 37.44ZM104.49 31.43C104.41 31.66 104.28 32 104.13 32.44C103.98 32.88 103.86 33.18 103.8 33.32C103.78 33.34 103.78 33.36 103.82 33.38C103.85 33.4 103.89 33.41 103.93 33.41C104.25 33.35 104.54 33.41 104.81 33.62C105.08 33.82 105.24 34.09 105.28 34.43C105.66 36.83 106.15 38.88 106.77 40.56C106.79 40.6 106.82 40.63 106.86 40.64C106.9 40.65 106.93 40.64 106.95 40.59C107.88 38.23 108.5 35.18 108.82 31.42C108.82 31.25 108.74 31.17 108.57 31.17H104.84C104.67 31.17 104.56 31.25 104.49 31.42V31.43Z" fill="white"/>
<path d="M117.87 40.03L117.52 38.89C117.16 37.77 117.33 36.71 118.03 35.7C120.11 32.75 121.67 29.21 122.71 25.08C122.82 24.57 123.08 24.18 123.52 23.89C123.96 23.6 124.41 23.51 124.9 23.59L125.18 23.62C125.69 23.7 126.09 23.96 126.38 24.38C126.67 24.8 126.77 25.25 126.66 25.74C126.26 27.72 125.66 29.75 124.86 31.84C124.8 31.99 124.77 32.17 124.77 32.38V50.93C124.77 51.44 124.59 51.86 124.22 52.21C123.85 52.56 123.43 52.73 122.94 52.73H122.43C121.92 52.73 121.49 52.55 121.13 52.19C120.77 51.83 120.59 51.41 120.59 50.93V38.92C120.59 38.92 120.57 38.85 120.54 38.84C120.51 38.84 120.48 38.84 120.46 38.86C120.21 39.32 119.89 39.81 119.51 40.31C119.28 40.63 118.97 40.75 118.59 40.67C118.21 40.6 117.97 40.38 117.86 40.02L117.87 40.03ZM146.06 48.12C146.56 48.12 147 48.3 147.35 48.67C147.71 49.04 147.89 49.46 147.89 49.95V50.04C147.89 50.54 147.7 50.98 147.34 51.35C146.97 51.72 146.55 51.9 146.06 51.9H127.98C127.47 51.9 127.04 51.72 126.68 51.35C126.32 50.98 126.14 50.54 126.14 50.04V49.95C126.14 49.44 126.32 49.01 126.69 48.65C127.06 48.29 127.48 48.11 127.97 48.11H136.85C137.02 48.11 137.14 48.04 137.2 47.89C139.01 43.76 140.48 39.03 141.59 33.7C141.67 33.2 141.93 32.8 142.36 32.52C142.79 32.24 143.25 32.15 143.74 32.25L144.37 32.34C144.88 32.42 145.27 32.68 145.56 33.1C145.84 33.52 145.93 33.98 145.83 34.49C144.84 39.27 143.46 43.73 141.69 47.86C141.61 48.03 141.66 48.11 141.85 48.11H146.05L146.06 48.12ZM137.46 22.87C137.97 22.87 138.4 23.05 138.77 23.42C139.14 23.79 139.32 24.21 139.32 24.7V26.53C139.32 26.72 139.4 26.82 139.57 26.82H145.67C146.18 26.82 146.61 27 146.97 27.36C147.33 27.72 147.51 28.15 147.51 28.64C147.51 29.13 147.33 29.57 146.96 29.94C146.59 30.31 146.16 30.49 145.68 30.49H128.65C128.14 30.49 127.71 30.31 127.35 29.94C126.99 29.57 126.81 29.14 126.81 28.64C126.81 28.14 126.99 27.72 127.35 27.36C127.71 27 128.14 26.82 128.65 26.82H134.72C134.89 26.82 134.98 26.72 135 26.53V24.7C135 24.2 135.18 23.76 135.54 23.4C135.9 23.04 136.33 22.86 136.84 22.86H137.47L137.46 22.87ZM130.13 32.41C130.64 32.3 131.1 32.38 131.54 32.65C131.97 32.91 132.25 33.29 132.38 33.77C133.16 36.87 133.9 40.29 134.59 44.04C134.7 44.55 134.61 45 134.32 45.4C134.04 45.8 133.64 46.04 133.14 46.13L132.67 46.19C132.16 46.27 131.7 46.17 131.28 45.89C130.86 45.61 130.61 45.21 130.52 44.7C129.89 41.5 129.15 38.17 128.31 34.71C128.18 34.23 128.25 33.76 128.5 33.32C128.75 32.88 129.13 32.6 129.64 32.5L130.15 32.41H130.13Z" fill="white"/>
<path d="M152.1 41.2L151.85 40.38C151.7 39.87 151.71 39.36 151.88 38.85C152.05 38.33 152.35 37.93 152.8 37.63C153.62 37.04 154.43 36.4 155.23 35.7C155.36 35.57 155.43 35.42 155.45 35.23V34.44C155.45 33.93 155.63 33.5 155.99 33.13C156.35 32.76 156.78 32.58 157.28 32.58H157.98C158.17 32.58 158.32 32.52 158.42 32.39C159.28 31.32 160.01 30.27 160.6 29.26C160.62 29.22 160.62 29.17 160.58 29.12C160.55 29.07 160.5 29.04 160.44 29.04H154.25C153.74 29.04 153.31 28.86 152.95 28.49C152.59 28.12 152.41 27.69 152.41 27.19C152.41 26.69 152.59 26.27 152.95 25.91C153.31 25.55 153.74 25.37 154.25 25.37H162.25C162.4 25.37 162.51 25.28 162.6 25.09C162.73 24.75 162.82 24.48 162.89 24.27C163.06 23.74 163.36 23.33 163.81 23.04C164.25 22.75 164.74 22.62 165.26 22.66L165.86 22.72C166.34 22.74 166.72 22.95 167 23.35C167.27 23.75 167.34 24.17 167.19 24.61C167.17 24.65 167.15 24.74 167.13 24.88C167.11 25.02 167.09 25.11 167.07 25.15C167.03 25.3 167.09 25.37 167.26 25.37H179.3C179.81 25.37 180.24 25.55 180.6 25.91C180.96 26.27 181.14 26.7 181.14 27.19C181.14 27.68 180.96 28.12 180.6 28.49C180.24 28.86 179.81 29.04 179.3 29.04H165.74C165.53 29.04 165.39 29.12 165.33 29.29C163.86 32.18 162.06 34.78 159.96 37.1C159.83 37.23 159.77 37.37 159.77 37.54V50.81C159.77 51.32 159.59 51.75 159.23 52.11C158.87 52.47 158.44 52.65 157.93 52.65H157.3C156.8 52.65 156.36 52.47 156.01 52.1C155.65 51.73 155.47 51.3 155.47 50.82V40.96C155.47 40.96 155.45 40.88 155.41 40.85C155.37 40.82 155.32 40.82 155.25 40.87C154.72 41.36 154.37 41.68 154.18 41.85C153.82 42.12 153.43 42.19 152.99 42.06C152.55 41.93 152.27 41.64 152.12 41.22L152.1 41.2ZM169.14 48.65C169.69 48.65 170.01 48.59 170.12 48.46C170.23 48.33 170.28 48 170.28 47.45V44.45C170.28 44.26 170.19 44.16 170 44.16H162.89C162.38 44.16 161.95 43.98 161.59 43.62C161.23 43.26 161.05 42.84 161.05 42.36V42.27C161.05 41.76 161.23 41.33 161.6 40.97C161.97 40.61 162.39 40.43 162.88 40.43H169.99C170.16 40.43 170.25 40.35 170.27 40.18V38.88C170.27 38.52 170.4 38.21 170.65 37.95C170.9 37.69 171.22 37.56 171.6 37.56C171.75 37.56 171.86 37.53 171.95 37.47C172.96 36.8 173.93 36.09 174.86 35.35C174.94 35.27 174.92 35.22 174.8 35.22H165.38C164.87 35.22 164.44 35.04 164.08 34.67C163.72 34.3 163.54 33.87 163.54 33.39V33.33C163.54 32.82 163.72 32.39 164.08 32.03C164.44 31.67 164.87 31.49 165.38 31.49H178.65C179.16 31.49 179.58 31.67 179.93 32.03C180.28 32.39 180.45 32.82 180.45 33.33V33.39C180.45 34.63 180 35.64 179.09 36.42C177.68 37.62 176.26 38.71 174.82 39.67C174.67 39.75 174.6 39.89 174.6 40.08V40.17C174.6 40.34 174.68 40.42 174.85 40.42H179.62C180.13 40.42 180.55 40.6 180.9 40.97C181.25 41.34 181.42 41.77 181.42 42.25V42.34C181.42 42.84 181.24 43.27 180.88 43.62C180.52 43.97 180.1 44.14 179.62 44.14H174.85C174.68 44.14 174.6 44.23 174.6 44.43V48.57C174.6 49.22 174.59 49.73 174.57 50.09C174.55 50.45 174.46 50.79 174.32 51.1C174.17 51.42 174.01 51.65 173.85 51.8C173.69 51.95 173.39 52.07 172.97 52.16C172.55 52.25 172.11 52.31 171.64 52.33C171.18 52.35 170.52 52.36 169.68 52.36C169.51 52.36 169.2 52.34 168.73 52.31C168.27 52.28 167.91 52.26 167.65 52.26C167.12 52.22 166.67 52.02 166.29 51.66C165.91 51.3 165.71 50.86 165.69 50.33V50.27C165.67 49.78 165.83 49.37 166.18 49.04C166.53 48.7 166.93 48.55 167.4 48.57C168.5 48.61 169.08 48.63 169.14 48.63V48.65Z" fill="white"/>
<path d="M187.35 42.3701C186.89 42.3701 186.5 42.2001 186.18 41.8601C185.86 41.5201 185.71 41.1301 185.71 40.6701C185.71 40.2101 185.87 39.8301 186.2 39.5001C186.53 39.1701 186.91 39.0101 187.35 39.0101H199.55C200.01 39.0101 200.41 39.1701 200.74 39.5001C201.07 39.8301 201.23 40.2201 201.23 40.6701C201.23 41.1201 201.07 41.5201 200.74 41.8601C200.41 42.2001 200.02 42.3701 199.55 42.3701H195.73C195.54 42.3701 195.44 42.4501 195.44 42.6201V49.3201C195.44 50.7901 195.3 51.7201 195.01 52.0901C194.73 52.4601 194.05 52.6401 192.97 52.6401C192.4 52.6401 191.91 52.6301 191.48 52.6101C190.95 52.5901 190.52 52.3801 190.17 51.9901C189.82 51.6001 189.63 51.1501 189.59 50.6501L189.53 49.6701C189.53 49.6701 189.52 49.6101 189.5 49.6101C189.48 49.6101 189.46 49.6201 189.44 49.6401C189.44 49.6801 189.42 49.7501 189.38 49.8301C189.34 49.9101 189.3 49.9801 189.25 50.0201C189.08 50.4401 188.78 50.7501 188.35 50.9401C187.92 51.1301 187.49 51.1301 187.05 50.9401C186.61 50.7501 186.31 50.4301 186.12 49.9901C185.93 49.5501 185.92 49.0901 186.09 48.6301C186.62 47.1301 187.02 45.8101 187.29 44.6501C187.4 44.1901 187.64 43.8301 188.03 43.5901C188.42 43.3501 188.85 43.2701 189.31 43.3501C189.79 43.4301 190.16 43.6801 190.42 44.0801C190.67 44.4801 190.74 44.9101 190.61 45.3801C190.42 46.3501 190.12 47.4601 189.73 48.7001C189.69 48.8501 189.75 48.9401 189.92 48.9801C190.55 49.0401 190.99 49.0901 191.25 49.1101C191.46 49.1101 191.59 49.0801 191.63 49.0301C191.67 48.9801 191.69 48.8201 191.69 48.5701V42.6301C191.69 42.4601 191.6 42.3801 191.41 42.3801H187.37L187.35 42.3701ZM191.2 30.0401C191.37 30.0401 191.45 29.9601 191.45 29.7901V28.7501C191.45 28.5601 191.37 28.4601 191.2 28.4601H187.63C187.17 28.4601 186.78 28.3101 186.48 28.0201C186.17 27.7301 186.02 27.3501 186.02 26.9001C186.02 26.4501 186.18 26.0601 186.49 25.7501C186.8 25.4401 187.19 25.2801 187.63 25.2801H191.23C191.38 25.2801 191.45 25.2001 191.45 25.0301C191.45 24.6101 191.61 24.2401 191.94 23.9101C192.27 23.5801 192.64 23.4201 193.06 23.4201H193.85C194.27 23.4201 194.64 23.5801 194.96 23.8901C195.28 24.2101 195.43 24.5901 195.43 25.0301C195.43 25.2001 195.51 25.2801 195.68 25.2801H199.28C199.74 25.2801 200.13 25.4401 200.43 25.7501C200.73 26.0701 200.89 26.4501 200.89 26.9001C200.89 27.3501 200.73 27.7301 200.42 28.0201C200.1 28.3201 199.72 28.4601 199.28 28.4601H195.71C195.52 28.4601 195.42 28.5501 195.42 28.7501V29.7901C195.42 29.9601 195.51 30.0401 195.71 30.0401H198.81C199.23 30.0401 199.59 30.1901 199.9 30.5001C200.21 30.8101 200.36 31.1701 200.36 31.6101C200.36 32.0501 200.21 32.4101 199.9 32.7201C199.59 33.0301 199.23 33.1801 198.81 33.1801H188.06C187.64 33.1801 187.27 33.0301 186.95 32.7201C186.63 32.4201 186.48 32.0501 186.48 31.6101C186.48 31.1701 186.63 30.8101 186.94 30.5001C187.25 30.1901 187.62 30.0401 188.06 30.0401H191.19H191.2ZM188.45 37.6901C187.99 37.6901 187.6 37.5401 187.3 37.2301C187 36.9201 186.84 36.5501 186.84 36.0901C186.84 35.6301 186.99 35.2601 187.3 34.9501C187.61 34.6401 187.99 34.4901 188.45 34.4901H198.22C198.68 34.4901 199.06 34.6401 199.36 34.9501C199.66 35.2601 199.8 35.6301 199.8 36.0901C199.8 36.5501 199.65 36.9201 199.36 37.2301C199.07 37.5401 198.69 37.6901 198.22 37.6901H188.45ZM207.41 43.9801C205.89 47.3301 203.97 49.8301 201.63 51.4701C201.25 51.7201 200.84 51.7601 200.38 51.6001C199.92 51.4401 199.62 51.1301 199.45 50.6801L199.26 50.0801V50.0501L199.23 49.9901C199.21 49.8401 199.09 49.7701 198.88 49.7701C198.52 49.7701 198.19 49.6601 197.9 49.4401C197.6 49.2201 197.4 48.9301 197.3 48.5701C197.11 47.9001 196.76 46.8301 196.26 45.3801C196.11 44.9801 196.13 44.5701 196.31 44.1601C196.49 43.7501 196.79 43.4701 197.21 43.3201C197.67 43.1701 198.12 43.2001 198.55 43.4101C198.98 43.6201 199.28 43.9401 199.45 44.3601C199.74 45.1401 200.05 46.0001 200.37 46.9501C200.39 47.0101 200.44 47.0601 200.51 47.0901C200.58 47.1201 200.64 47.1201 200.68 47.0701C203.73 44.7701 205.26 40.9901 205.26 35.7201V34.0801C205.26 33.5701 205.44 33.1401 205.81 32.7801C206.18 32.4201 206.62 32.2401 207.12 32.2401H207.44C207.95 32.2401 208.37 32.4201 208.72 32.7901C209.07 33.1601 209.24 33.5901 209.24 34.0701V35.7101C209.24 40.8501 211.16 44.7401 214.99 47.3701C215.45 47.6901 215.77 48.0901 215.94 48.5901C216.11 49.0901 216.12 49.5801 215.97 50.0601L215.81 50.6601C215.66 51.1201 215.37 51.4401 214.93 51.6101C214.49 51.7801 214.08 51.7301 213.7 51.4501C211.3 49.7401 209.28 47.2601 207.63 43.9901C207.52 43.8401 207.45 43.8301 207.41 43.9601V43.9801ZM214.24 26.8201C214.74 26.8201 215.17 27.0001 215.52 27.3601C215.87 27.7201 216.04 28.1401 216.04 28.6201V30.4901C215.72 32.9101 215.2 35.3501 214.46 37.7901C214.31 38.2801 214.02 38.6201 213.58 38.8201C213.14 39.0201 212.67 39.0401 212.19 38.8701L211.94 38.7801C211.46 38.5901 211.12 38.2601 210.93 37.8001C210.74 37.3401 210.74 36.8501 210.93 36.3501C211.58 34.4101 212.06 32.5501 212.35 30.7601C212.39 30.5901 212.31 30.5101 212.1 30.5101H205.75C205.58 30.5101 205.46 30.5901 205.37 30.7601C204.65 32.8301 203.9 34.6501 203.09 36.2301C202.88 36.6501 202.53 36.9101 202.05 37.0201C201.56 37.1301 201.13 37.0201 200.75 36.7001L200.5 36.4801C200.1 36.1601 199.84 35.7501 199.73 35.2301C199.62 34.7101 199.67 34.2101 199.9 33.7301C201.21 31.1001 202.24 28.1501 203 24.8801C203.1 24.3701 203.36 23.9601 203.77 23.6501C204.18 23.3301 204.64 23.2001 205.14 23.2401L205.33 23.2701C205.83 23.3101 206.24 23.5301 206.55 23.9301C206.85 24.3301 206.97 24.7701 206.88 25.2601C206.86 25.4101 206.81 25.6201 206.74 25.9101C206.67 26.1901 206.61 26.4101 206.57 26.5601C206.53 26.7501 206.59 26.8501 206.76 26.8501H214.25L214.24 26.8201Z" fill="white"/>
<path d="M222.51 46.87C222.2 47.2 221.84 47.36 221.4 47.36C220.96 47.36 220.59 47.2 220.26 46.89C219.93 46.57 219.77 46.19 219.77 45.75V29.35C219.77 28.84 219.95 28.41 220.32 28.05C220.69 27.69 221.11 27.51 221.6 27.51H223.65C223.84 27.51 223.93 27.41 223.93 27.22V25.23C223.93 24.73 224.11 24.29 224.47 23.94C224.83 23.59 225.25 23.4 225.73 23.4H225.86C226.37 23.4 226.8 23.58 227.16 23.94C227.52 24.3 227.7 24.73 227.7 25.23V27.22C227.7 27.39 227.79 27.48 227.98 27.51H229.91C230.41 27.51 230.85 27.69 231.2 28.05C231.55 28.41 231.74 28.84 231.74 29.35V37.85C231.74 37.91 231.77 37.96 231.82 37.99C231.87 38.02 231.92 38.03 231.96 38.01C232.13 37.9 232.32 37.85 232.53 37.85C232.68 37.85 232.76 37.79 232.78 37.66V25.87C232.78 25.36 232.95 24.94 233.3 24.59C233.65 24.24 234.07 24.07 234.58 24.07H247.22C247.73 24.07 248.15 24.24 248.5 24.59C248.85 24.94 249.02 25.34 249.02 25.81C249.02 26.32 248.85 26.74 248.5 27.09C248.15 27.44 247.73 27.61 247.22 27.61H237.3C237.13 27.61 237.05 27.69 237.05 27.86V28.78C237.05 28.97 237.13 29.07 237.3 29.1H246.84C247.22 29.1 247.55 29.23 247.82 29.49C248.09 29.75 248.23 30.08 248.23 30.47C248.23 30.86 248.09 31.2 247.82 31.48C247.55 31.76 247.22 31.91 246.84 31.91H237.3C237.13 31.91 237.05 32 237.05 32.19V33.17C237.05 33.36 237.13 33.46 237.3 33.46H246.84C247.22 33.46 247.55 33.6 247.82 33.87C248.09 34.14 248.23 34.47 248.23 34.85C248.23 35.23 248.09 35.56 247.82 35.85C247.55 36.13 247.22 36.28 246.84 36.28H237.3C237.13 36.28 237.05 36.37 237.05 36.56V37.6C237.05 37.77 237.13 37.85 237.3 37.85H248.2C248.71 37.85 249.13 38.03 249.46 38.39C249.8 38.75 249.96 39.16 249.96 39.64C249.96 40.12 249.79 40.52 249.46 40.87C249.12 41.22 248.7 41.39 248.2 41.39H247.38C247.38 41.39 247.32 41.41 247.32 41.44C247.32 41.47 247.33 41.5 247.35 41.52L248.11 41.93C248.57 42.16 248.87 42.53 249.01 43.04C249.15 43.55 249.08 44.01 248.8 44.43C248.25 45.31 247.64 46.2 246.97 47.09C246.86 47.22 246.9 47.34 247.06 47.47C247.4 47.7 247.93 48.02 248.67 48.42C249.13 48.65 249.44 49 249.6 49.48C249.76 49.95 249.74 50.42 249.55 50.89L249.52 50.98C249.29 51.46 248.93 51.8 248.45 51.98C247.96 52.16 247.49 52.13 247.03 51.9C245.13 50.91 243.42 49.6 241.88 47.98C241.8 47.9 241.75 47.92 241.75 48.04L241.78 48.58C241.84 49.11 241.73 49.59 241.43 50.02C241.13 50.45 240.73 50.72 240.23 50.83C237.49 51.48 234.69 51.98 231.82 52.32C231.33 52.36 230.9 52.24 230.52 51.94C230.14 51.65 229.93 51.26 229.89 50.79C229.85 50.32 229.97 49.89 230.27 49.51C230.57 49.13 230.95 48.92 231.44 48.88C231.55 48.86 231.71 48.84 231.95 48.82C232.18 48.8 232.35 48.78 232.46 48.76C232.65 48.72 232.75 48.62 232.78 48.48V41.65C232.78 41.5 232.7 41.43 232.53 41.43C232.3 41.43 232.11 41.39 231.96 41.3C231.92 41.26 231.87 41.25 231.82 41.28C231.77 41.31 231.74 41.36 231.74 41.42V44.49C231.74 45.25 231.63 45.81 231.41 46.18C231.19 46.55 230.8 46.8 230.26 46.92C229.75 47.05 229.29 46.94 228.87 46.59C228.45 46.24 228.17 45.8 228.05 45.28L227.77 44.14C227.77 44.14 227.76 44.11 227.74 44.11C227.72 44.11 227.71 44.12 227.71 44.14V50.97C227.71 51.48 227.53 51.9 227.17 52.25C226.81 52.6 226.38 52.77 225.87 52.77H225.74C225.23 52.77 224.81 52.59 224.46 52.23C224.11 51.87 223.94 51.45 223.94 50.97V31.47C223.94 31.3 223.85 31.22 223.66 31.22H223.28C223.09 31.22 222.98 31.3 222.96 31.47V45.79C222.96 46.21 222.81 46.59 222.5 46.91L222.51 46.87ZM227.71 31.43V42.87C227.71 43.06 227.79 43.16 227.96 43.16C228.3 43.16 228.5 43.07 228.58 42.89C228.66 42.71 228.69 42.16 228.69 41.23V31.43C228.69 31.26 228.58 31.18 228.37 31.18H227.99C227.8 31.18 227.71 31.26 227.71 31.43ZM237.07 41.67V47.77C237.07 47.96 237.15 48.03 237.32 47.99C238.44 47.78 239.66 47.52 240.99 47.2C241.12 47.16 241.13 47.06 241.02 46.92C239.73 45.34 238.68 43.58 237.86 41.64C237.8 41.47 237.67 41.39 237.48 41.39H237.32C237.15 41.39 237.07 41.49 237.07 41.68V41.67ZM241.96 41.39C241.9 41.39 241.85 41.42 241.82 41.49C241.79 41.55 241.79 41.61 241.84 41.65C242.45 42.81 243.2 43.87 244.08 44.84C244.21 44.97 244.31 44.97 244.4 44.84C245.01 44.02 245.7 42.95 246.45 41.65C246.49 41.61 246.5 41.56 246.47 41.49C246.44 41.43 246.39 41.39 246.33 41.39H241.97H241.96Z" fill="white"/>
<path d="M254.99 50.93C254.63 50.61 254.41 50.21 254.33 49.73C254.31 49.62 254.3 49.52 254.3 49.41C254.3 49.07 254.41 48.75 254.62 48.43C255.93 46.55 256.8 44.45 257.24 42.13C257.68 39.81 257.9 37.22 257.9 34.37V26.66C257.9 26.18 258.09 25.8 258.47 25.52C258.72 25.33 259 25.23 259.29 25.23C259.44 25.23 259.57 25.24 259.7 25.26L260.77 25.58C260.92 25.62 261.06 25.63 261.21 25.61C266.63 24.85 271.03 23.96 274.42 22.92C274.74 22.84 275.06 22.79 275.4 22.79C275.63 22.79 275.86 22.81 276.1 22.85C276.67 22.98 277.15 23.23 277.55 23.61L278.18 24.21C278.43 24.42 278.56 24.67 278.56 24.97C278.56 25.05 278.55 25.15 278.53 25.25C278.42 25.65 278.17 25.9 277.77 26.01C273.6 27.21 268.47 28.2 262.38 28.98C262.23 29 262.16 29.1 262.16 29.26V30.52C262.16 30.69 262.23 30.77 262.38 30.77H278.15C278.68 30.77 279.12 30.95 279.48 31.31C279.84 31.67 280.02 32.11 280.02 32.64V42.69C280.02 43.22 279.84 43.66 279.48 44.02C279.12 44.38 278.68 44.56 278.15 44.56H277.36C276.94 44.56 276.58 44.41 276.29 44.12C276 43.83 275.85 43.47 275.85 43.05C275.85 42.92 275.79 42.86 275.66 42.86H261.63C261.46 42.86 261.37 42.93 261.35 43.08C260.63 46.37 259.47 49.12 257.87 51.33C257.6 51.69 257.24 51.87 256.8 51.87H256.74C256.28 51.85 255.86 51.67 255.51 51.33C255.34 51.18 255.17 51.05 255 50.92L254.99 50.93ZM275.63 38.98C275.78 38.98 275.85 38.9 275.85 38.73V34.91C275.85 34.76 275.78 34.69 275.63 34.69H262.39C262.24 34.69 262.17 34.76 262.17 34.91L261.98 38.77C261.98 38.92 262.05 38.99 262.2 38.99H275.63V38.98Z" fill="white"/>
<path d="M288.43 49.7L288.34 49.54C288.07 49.12 287.96 48.64 288.02 48.12C288.08 47.59 288.3 47.15 288.68 46.79C289.97 45.57 291.07 44.18 292 42.62C292.02 42.58 292.02 42.53 291.98 42.48C291.94 42.43 291.9 42.4 291.84 42.4H289.79C289.3 42.4 288.89 42.23 288.56 41.89C288.22 41.55 288.05 41.15 288.05 40.67C288.05 40.19 288.22 39.79 288.57 39.45C288.92 39.11 289.32 38.95 289.79 38.95H292.98C293.15 38.95 293.23 38.85 293.23 38.66V37.49C293.23 37.3 293.15 37.21 292.98 37.21H289.73C289.25 37.21 288.85 37.05 288.53 36.74C288.21 36.43 288.06 36.03 288.06 35.56C288.06 35.09 288.22 34.69 288.55 34.36C288.88 34.03 289.27 33.87 289.73 33.87H290.84C290.99 33.87 291.04 33.79 291 33.62C290.96 33.54 290.94 33.47 290.94 33.43C290.45 31.64 290.2 30.68 290.18 30.55C290.12 30.32 290.11 30.06 290.15 29.76C290.19 29.59 290.12 29.51 289.93 29.51C289.45 29.49 289.04 29.32 288.71 28.99C288.38 28.66 288.22 28.26 288.22 27.79C288.22 27.32 288.39 26.9 288.74 26.56C289.09 26.21 289.5 26.04 289.99 26.04H292.99C293.16 26.04 293.24 25.96 293.24 25.79V24.75C293.24 24.24 293.42 23.82 293.79 23.47C294.16 23.12 294.58 22.95 295.07 22.95H295.58C296.09 22.95 296.52 23.13 296.88 23.49C297.24 23.85 297.42 24.27 297.42 24.75V25.79C297.42 25.96 297.5 26.04 297.67 26.04H301.56C302.04 26.04 302.45 26.21 302.78 26.56C303.11 26.91 303.27 27.32 303.27 27.81C303.27 28.23 303.13 28.61 302.86 28.95C302.59 29.29 302.23 29.48 301.79 29.52C301.64 29.54 301.57 29.64 301.57 29.81C301.57 30.04 301.55 30.22 301.51 30.35C301.19 31.49 300.81 32.58 300.37 33.64C300.35 33.7 300.36 33.76 300.4 33.81C300.44 33.86 300.49 33.89 300.56 33.89H301.51C301.99 33.89 302.39 34.05 302.71 34.38C303.03 34.71 303.18 35.11 303.18 35.58C303.18 36.05 303.02 36.45 302.71 36.76C302.4 37.07 301.99 37.23 301.51 37.23H297.69C297.52 37.23 297.44 37.32 297.44 37.51V38.68C297.44 38.87 297.52 38.97 297.69 38.97H301.1C301.58 38.97 301.99 39.14 302.32 39.47C302.65 39.81 302.81 40.21 302.81 40.69C302.81 41.17 302.64 41.57 302.3 41.91C301.96 42.25 301.56 42.42 301.1 42.42H297.94C297.94 42.42 297.87 42.45 297.85 42.5C297.83 42.55 297.84 42.59 297.88 42.61C298.49 43.12 299.31 43.82 300.34 44.73C300.7 45.05 300.9 45.45 300.94 45.95C300.98 46.45 300.85 46.88 300.53 47.26C300.23 47.62 299.86 47.81 299.41 47.83C298.96 47.85 298.57 47.68 298.26 47.32L297.63 46.72C297.63 46.72 297.57 46.67 297.52 46.69C297.47 46.71 297.44 46.74 297.44 46.78V51.05C297.44 51.56 297.26 51.99 296.89 52.35C296.52 52.71 296.09 52.89 295.61 52.89H295.1C294.6 52.89 294.16 52.71 293.81 52.35C293.45 51.99 293.27 51.56 293.27 51.05V46.75C293.27 46.75 293.25 46.69 293.22 46.69C293.19 46.69 293.16 46.7 293.14 46.72C292.4 47.9 291.61 48.96 290.77 49.91C290.47 50.25 290.08 50.39 289.6 50.35C289.12 50.31 288.74 50.1 288.46 49.72L288.43 49.7ZM294.41 32.63C294.47 32.88 294.45 33.21 294.35 33.61C294.31 33.78 294.36 33.86 294.51 33.86H296.25C296.42 33.86 296.53 33.79 296.6 33.64C297.06 32.61 297.51 31.32 297.93 29.78L297.96 29.75V29.72C298 29.57 297.94 29.5 297.77 29.5H293.82C293.65 29.5 293.59 29.57 293.63 29.72C294.05 31.26 294.31 32.23 294.42 32.63H294.41ZM312.96 52.57C312.45 52.57 312.02 52.38 311.65 52.02C311.28 51.65 311.1 51.23 311.1 50.74V37.21C311.1 37.02 311.02 36.92 310.85 36.89H308.45C308.24 36.89 308.13 37 308.13 37.21C307.83 40.48 307.35 43.18 306.68 45.32C306.01 47.46 305.09 49.39 303.93 51.12C303.66 51.52 303.28 51.74 302.79 51.78C302.3 51.82 301.88 51.66 301.53 51.31L301.18 50.96C300.82 50.6 300.61 50.15 300.55 49.62C300.49 49.09 300.6 48.6 300.9 48.18C302.29 46.03 303.25 43.52 303.78 40.64C304.31 37.76 304.59 33.37 304.63 27.45C304.63 26.92 304.8 26.47 305.15 26.07C305.5 25.68 305.93 25.46 306.46 25.42C309.51 25.1 312.24 24.6 314.64 23.9C315.15 23.75 315.61 23.8 316.05 24.03C316.48 24.26 316.77 24.62 316.92 25.1L316.98 25.32C317.13 25.82 317.07 26.3 316.81 26.74C316.55 27.18 316.17 27.48 315.69 27.62C313.65 28.19 311.36 28.63 308.83 28.95C308.66 28.99 308.57 29.09 308.55 29.23C308.51 30.87 308.47 32.1 308.42 32.9C308.42 33.07 308.5 33.15 308.67 33.15H315.97C316.47 33.15 316.91 33.33 317.26 33.69C317.62 34.05 317.8 34.47 317.8 34.95V35.04C317.8 35.55 317.61 35.98 317.25 36.34C316.89 36.7 316.46 36.88 315.97 36.88H315.43C315.24 36.88 315.15 36.99 315.15 37.2V50.73C315.15 51.23 314.97 51.67 314.6 52.02C314.23 52.38 313.8 52.56 313.32 52.56H312.97L312.96 52.57Z" fill="white"/>
<path d="M322.95 50.93C322.59 50.61 322.37 50.21 322.29 49.73C322.27 49.62 322.26 49.52 322.26 49.41C322.26 49.07 322.37 48.75 322.58 48.43C323.89 46.55 324.76 44.45 325.2 42.13C325.64 39.81 325.86 37.22 325.86 34.37V26.66C325.86 26.18 326.05 25.8 326.43 25.52C326.68 25.33 326.96 25.23 327.25 25.23C327.4 25.23 327.53 25.24 327.66 25.26L328.73 25.58C328.88 25.62 329.02 25.63 329.17 25.61C334.59 24.85 338.99 23.96 342.38 22.92C342.7 22.84 343.02 22.79 343.36 22.79C343.59 22.79 343.82 22.81 344.06 22.85C344.63 22.98 345.11 23.23 345.51 23.61L346.14 24.21C346.39 24.42 346.52 24.67 346.52 24.97C346.52 25.05 346.51 25.15 346.49 25.25C346.38 25.65 346.13 25.9 345.73 26.01C341.56 27.21 336.43 28.2 330.34 28.98C330.19 29 330.12 29.1 330.12 29.26V30.52C330.12 30.69 330.19 30.77 330.34 30.77H346.11C346.64 30.77 347.08 30.95 347.44 31.31C347.8 31.67 347.98 32.11 347.98 32.64V42.69C347.98 43.22 347.8 43.66 347.44 44.02C347.08 44.38 346.64 44.56 346.11 44.56H345.32C344.9 44.56 344.54 44.41 344.25 44.12C343.96 43.83 343.81 43.47 343.81 43.05C343.81 42.92 343.75 42.86 343.62 42.86H329.59C329.42 42.86 329.33 42.93 329.31 43.08C328.59 46.37 327.43 49.12 325.83 51.33C325.56 51.69 325.2 51.87 324.76 51.87H324.7C324.24 51.85 323.82 51.67 323.47 51.33C323.3 51.18 323.13 51.05 322.96 50.92L322.95 50.93ZM343.59 38.98C343.74 38.98 343.81 38.9 343.81 38.73V34.91C343.81 34.76 343.74 34.69 343.59 34.69H330.35C330.2 34.69 330.13 34.76 330.13 34.91L329.94 38.77C329.94 38.92 330.01 38.99 330.16 38.99H343.59V38.98Z" fill="white"/>
<path d="M355.57 42.74V42.71C355.38 42.2 355.36 41.7 355.51 41.21C355.66 40.72 355.94 40.31 356.36 39.99C357.62 39.06 358.81 37.98 359.93 36.73C360.06 36.6 360.1 36.45 360.06 36.26C359.93 35.38 359.72 34.33 359.43 33.13C359.39 32.94 359.28 32.9 359.11 33C358.58 33.38 358.19 33.65 357.94 33.82C357.54 34.09 357.1 34.16 356.63 34.03C356.16 33.89 355.82 33.6 355.63 33.16L355.57 33.03C355.38 32.52 355.36 32.03 355.51 31.54C355.66 31.05 355.95 30.67 356.39 30.37C356.9 30.03 357.41 29.65 357.94 29.23C358.07 29.15 358.09 29 358 28.79C357.92 28.58 357.63 27.98 357.15 26.99C356.94 26.53 356.91 26.07 357.07 25.61C357.23 25.15 357.53 24.8 357.97 24.55L358.26 24.39C358.72 24.16 359.2 24.12 359.68 24.26C360.16 24.41 360.52 24.71 360.75 25.18C360.79 25.26 360.86 25.4 360.94 25.58C361.02 25.76 361.09 25.89 361.13 25.97C361.21 26.12 361.32 26.13 361.45 26C361.96 25.45 362.43 24.92 362.87 24.39C363.19 24.01 363.59 23.78 364.09 23.71C364.59 23.64 365.03 23.74 365.43 24.01C365.45 24.01 365.47 24.02 365.49 24.04C365.51 24.06 365.53 24.08 365.55 24.1C365.68 24.21 365.82 24.22 365.99 24.13C366.28 23.96 366.59 23.88 366.91 23.88H383.15C383.66 23.88 384.09 24.06 384.45 24.42C384.81 24.78 384.99 25.2 384.99 25.68V30.01C384.99 30.52 384.81 30.95 384.45 31.32C384.09 31.69 383.66 31.87 383.15 31.87H371.58C371.39 31.87 371.26 31.96 371.2 32.15C371.18 32.28 371.09 32.56 370.95 33C370.91 33.17 370.96 33.25 371.11 33.25H383.85C384.36 33.25 384.79 33.43 385.15 33.79C385.51 34.15 385.68 34.57 385.66 35.05C385.53 40.34 385.31 44.24 385 46.74C384.68 49.25 384.3 50.84 383.86 51.51C383.42 52.18 382.73 52.52 381.81 52.52C380.71 52.52 379.42 52.49 377.92 52.42C377.39 52.4 376.95 52.2 376.58 51.82C376.21 51.44 376.02 51 376 50.49V50.27C376 50.08 375.91 50.01 375.71 50.05C372.72 50.66 369.72 51.1 366.7 51.38C366.22 51.42 365.8 51.28 365.45 50.97C365.1 50.65 364.91 50.25 364.87 49.77C364.85 49.29 364.99 48.87 365.28 48.54C365.57 48.21 365.96 48.01 366.45 47.97C368.16 47.87 369.68 47.72 371.03 47.53C371.2 47.49 371.28 47.39 371.28 47.25V45.48C371.28 45.31 371.19 45.23 371 45.23H369.23C369.15 45.23 369.1 45.27 369.1 45.36C369.1 45.66 369 45.9 368.8 46.1C368.6 46.3 368.35 46.4 368.06 46.4H367.52C367.1 46.4 366.73 46.25 366.43 45.94C366.12 45.64 365.97 45.26 365.97 44.82V41.41C365.97 41.41 365.95 41.37 365.92 41.36C365.89 41.35 365.86 41.36 365.84 41.38C365.65 41.57 365.42 41.64 365.16 41.6C364.9 41.56 364.69 41.42 364.54 41.19L364.41 41C364.41 41 364.36 40.97 364.33 40.97C364.3 40.97 364.28 40.99 364.28 41.03C364.28 41.18 364.28 41.4 364.3 41.69C364.31 41.99 364.32 42.23 364.32 42.42C364.32 45.16 364.16 47.27 363.85 48.74C363.53 50.21 363.08 51.21 362.49 51.73C361.9 52.25 361.08 52.5 360.03 52.5C359.48 52.5 358.86 52.44 358.17 52.31C357.64 52.23 357.21 51.98 356.87 51.57C356.53 51.16 356.35 50.69 356.33 50.16C356.31 49.74 356.47 49.38 356.82 49.09C357.17 48.8 357.56 48.69 358.01 48.77C358.56 48.88 358.94 48.93 359.15 48.93C360.06 48.93 360.51 46.76 360.51 42.42C360.51 42.31 360.51 42.16 360.49 41.95C360.48 41.74 360.47 41.58 360.47 41.48C360.47 41.44 360.45 41.41 360.41 41.39C360.37 41.37 360.33 41.37 360.28 41.39C359.48 42.17 358.66 42.84 357.82 43.41C357.42 43.68 356.99 43.75 356.54 43.62C356.09 43.48 355.77 43.18 355.58 42.72L355.57 42.74ZM362.87 29.79C362.7 29.96 362.65 30.12 362.71 30.26C363.38 32.43 363.85 34.83 364.1 37.47C364.1 37.58 364.15 37.58 364.26 37.47L364.32 37.41C364.32 37.41 364.35 37.37 364.35 37.35C365.78 35.64 366.87 33.91 367.6 32.14C367.64 31.99 367.59 31.92 367.44 31.92H366.9C366.39 31.92 365.96 31.74 365.6 31.37C365.24 31 365.06 30.56 365.06 30.06V27.69C365.06 27.69 365.04 27.62 365 27.6C364.96 27.58 364.93 27.6 364.91 27.63C364.36 28.26 363.68 28.99 362.86 29.81L362.87 29.79ZM368.5 37.97C368.5 37.97 368.45 38.06 368.48 38.11C368.51 38.16 368.57 38.19 368.65 38.19H370.99C371.18 38.19 371.27 38.11 371.27 37.94V36.9C371.27 36.71 371.18 36.62 370.99 36.62H369.6C369.43 36.62 369.29 36.7 369.19 36.87C369.13 36.98 369.02 37.16 368.86 37.42C368.7 37.68 368.58 37.87 368.5 37.97ZM368.47 27.13V28.87C368.47 29.04 368.57 29.12 368.79 29.12H370.59C370.78 29.12 370.87 29.04 370.87 28.87V27.13C370.87 26.94 370.78 26.85 370.59 26.85H368.79C368.58 26.85 368.47 26.94 368.47 27.13ZM371.28 42.49V41.13C371.28 40.94 371.19 40.84 371 40.81H369.36C369.19 40.81 369.11 40.92 369.11 41.13V42.49C369.11 42.66 369.19 42.74 369.36 42.74H371C371.19 42.74 371.28 42.66 371.28 42.49ZM373.71 27.13V28.87C373.71 29.04 373.8 29.12 373.99 29.12H375.82C375.99 29.12 376.07 29.04 376.07 28.87V27.13C376.07 26.94 375.99 26.85 375.82 26.85H373.99C373.8 26.85 373.71 26.94 373.71 27.13ZM374.6 45.53V46.86C374.6 47.05 374.68 47.12 374.85 47.08C374.98 47.06 375.18 47.03 375.47 46.99C375.76 46.95 375.96 46.92 376.09 46.89C376.15 46.87 376.21 46.83 376.25 46.76C376.29 46.7 376.3 46.63 376.28 46.57C376.07 46.09 375.92 45.73 375.84 45.49C375.78 45.34 375.65 45.27 375.46 45.27H374.86C374.69 45.27 374.61 45.35 374.61 45.52L374.6 45.53ZM374.91 36.9V37.94C374.91 38.11 374.99 38.19 375.16 38.19H378.32C378.82 38.19 379.25 38.37 379.6 38.74C379.95 39.11 380.12 39.55 380.12 40.05V44.29C380.12 44.56 380.03 44.8 379.85 44.99C379.67 45.18 379.43 45.27 379.14 45.27C379.03 45.27 379 45.3 379.05 45.36L380.41 48.74C380.49 48.93 380.6 48.96 380.73 48.83C381 48.54 381.23 47.55 381.41 45.87C381.59 44.2 381.77 41.19 381.96 36.85C381.96 36.68 381.88 36.6 381.71 36.6H375.17C375 36.6 374.92 36.69 374.92 36.88L374.91 36.9ZM374.91 41.13V42.49C374.91 42.66 374.99 42.74 375.16 42.74H376.87C377.04 42.74 377.12 42.66 377.12 42.49V41.13C377.12 40.94 377.04 40.84 376.87 40.81H375.16C374.99 40.83 374.91 40.94 374.91 41.13ZM379.05 27.13V28.87C379.05 29.04 379.14 29.12 379.33 29.12H381.16C381.33 29.12 381.41 29.04 381.41 28.87V27.13C381.41 26.94 381.33 26.85 381.16 26.85H379.33C379.14 26.85 379.05 26.94 379.05 27.13Z" fill="white"/>
<path d="M391.32 46.98C390.84 46.98 390.44 46.81 390.12 46.47C389.8 46.13 389.65 45.73 389.65 45.25C389.65 44.77 389.81 44.38 390.14 44.05C390.47 43.72 390.86 43.56 391.32 43.56H402.7C402.81 43.56 402.86 43.51 402.86 43.4C402.86 43.11 402.97 42.84 403.19 42.61C403.41 42.38 403.68 42.26 404 42.26H405.01C405.16 42.26 405.35 42.24 405.58 42.2C407.08 41.82 408.35 41.46 409.4 41.13C409.42 41.13 409.43 41.11 409.43 41.08C409.43 41.05 409.42 41.03 409.4 41.03H393.44C392.98 41.03 392.58 40.87 392.26 40.56C391.93 40.24 391.77 39.86 391.77 39.41C391.77 38.96 391.93 38.57 392.26 38.24C392.59 37.91 392.98 37.75 393.44 37.75H415.82C416.28 37.75 416.68 37.91 417 38.24C417.32 38.57 417.49 38.95 417.49 39.39C417.49 39.89 417.35 40.35 417.08 40.76C416.81 41.17 416.44 41.46 415.97 41.63C414.3 42.3 412.62 42.92 410.91 43.46C410.89 43.46 410.88 43.48 410.88 43.51C410.88 43.54 410.89 43.56 410.91 43.56H417.93C418.41 43.56 418.81 43.72 419.13 44.05C419.45 44.38 419.6 44.78 419.6 45.25C419.6 45.72 419.44 46.13 419.11 46.47C418.78 46.81 418.39 46.98 417.92 46.98H407.52C407.35 46.98 407.27 47.06 407.27 47.23V48.27C407.27 49.03 407.25 49.63 407.22 50.07C407.19 50.51 407.1 50.92 406.97 51.3C406.83 51.68 406.66 51.95 406.46 52.12C406.26 52.29 405.94 52.44 405.51 52.56C405.08 52.69 404.61 52.77 404.12 52.8C403.62 52.83 402.96 52.85 402.11 52.85C401.23 52.85 399.87 52.82 398.03 52.76C397.55 52.74 397.14 52.56 396.81 52.22C396.48 51.88 396.3 51.47 396.26 50.99C396.24 50.53 396.38 50.14 396.69 49.82C396.99 49.5 397.38 49.36 397.84 49.38C399.53 49.44 400.71 49.47 401.38 49.47C402.05 49.47 402.49 49.41 402.63 49.28C402.77 49.15 402.84 48.76 402.84 48.11V47.22C402.84 47.05 402.73 46.97 402.52 46.97H391.3L391.32 46.98ZM418.82 25.41C419.14 25.74 419.29 26.14 419.29 26.61C419.29 27.08 419.13 27.49 418.8 27.81C418.47 28.13 418.08 28.3 417.61 28.3H391.63C391.14 28.3 390.75 28.14 390.43 27.81C390.11 27.48 389.96 27.08 389.96 26.61C389.96 26.14 390.12 25.74 390.45 25.41C390.78 25.08 391.17 24.92 391.64 24.92H402.13C402.32 24.92 402.41 24.83 402.41 24.64V24.58C402.41 24.07 402.59 23.65 402.95 23.3C403.31 22.95 403.74 22.78 404.25 22.78H405.01C405.52 22.78 405.95 22.96 406.31 23.32C406.67 23.68 406.85 24.1 406.85 24.58V24.64C406.85 24.81 406.94 24.9 407.13 24.92H417.62C418.1 24.92 418.5 25.08 418.82 25.41ZM394.83 29.41H414.42C414.93 29.41 415.36 29.59 415.73 29.96C416.1 30.33 416.28 30.75 416.28 31.24V34.84C416.28 35.34 416.1 35.77 415.73 36.12C415.36 36.47 414.92 36.64 414.42 36.64H394.83C394.33 36.64 393.89 36.47 393.52 36.12C393.15 35.77 392.97 35.35 392.97 34.84V31.24C392.97 30.73 393.15 30.3 393.52 29.94C393.89 29.58 394.33 29.4 394.83 29.4V29.41ZM411.96 33.67V32.41C411.96 32.22 411.86 32.12 411.67 32.12H397.58C397.39 32.12 397.3 32.21 397.3 32.41V33.67C397.3 33.84 397.39 33.92 397.58 33.92H411.67C411.86 33.92 411.96 33.84 411.96 33.67Z" fill="white"/>
</g>
<defs>
<clipPath id="clip0_26188_15737">
<rect width="503.43" height="74.83" fill="white"/>
</clipPath>
</defs>
</svg>
