<svg width="97" height="97" viewBox="0 0 97 97" fill="none" xmlns="http://www.w3.org/2000/svg">
<path d="M48.86 96.61C75.3034 96.61 96.74 75.1734 96.74 48.73C96.74 22.2866 75.3034 0.850006 48.86 0.850006C22.4166 0.850006 0.97998 22.2866 0.97998 48.73C0.97998 75.1734 22.4166 96.61 48.86 96.61Z" fill="black"/>
<path d="M47.78 25.02C36.62 25.97 29.65 36.64 32.55 46.85L40.67 75.43L49.05 73.05L44.96 58.66C47.84 59.43 50.68 59.55 53.76 58.68C63.97 55.78 69.38 44.24 64.32 34.25C61.24 28.17 54.58 24.45 47.78 25.03V25.02ZM51.5 50.72C46.87 52.04 42.04 49.35 40.73 44.71C39.42 40.07 42.1 35.25 46.74 33.94C51.38 32.63 56.2 35.31 57.51 39.95C58.83 44.58 56.14 49.41 51.5 50.72Z" fill="#FFD100"/>
</svg>
