<svg width="300" height="300" viewBox="0 0 300 300" fill="none" xmlns="http://www.w3.org/2000/svg">
<path d="M270.27 61H29.8569C22.204 61 16 67.204 16 74.8569V224.321C16 231.974 22.204 238.178 29.8569 238.178H270.27C277.923 238.178 284.127 231.974 284.127 224.321V74.8569C284.127 67.204 277.923 61 270.27 61Z" fill="#B7DAF7"/>
<mask id="mask0_26188_15868" style="mask-type:luminance" maskUnits="userSpaceOnUse" x="16" y="61" width="269" height="178">
<path d="M270.27 61H29.8569C22.204 61 16 67.204 16 74.8569V224.321C16 231.974 22.204 238.178 29.8569 238.178H270.27C277.923 238.178 284.127 231.974 284.127 224.321V74.8569C284.127 67.204 277.923 61 270.27 61Z" fill="white"/>
</mask>
<g mask="url(#mask0_26188_15868)">
<path d="M301.799 36.1896H0.595032V97.6086H301.799V36.1896Z" fill="#005BAC"/>
</g>
<path d="M253.156 167.386L156.057 167.267C154.167 167.265 152.633 168.793 152.631 170.681C152.629 172.569 154.159 174.101 156.049 174.104L253.148 174.222C255.038 174.225 256.572 172.696 256.575 170.808C256.577 168.92 255.047 167.388 253.156 167.386Z" fill="white"/>
<path d="M253.135 143.463L156.036 143.344C154.146 143.342 152.612 144.87 152.61 146.758C152.607 148.646 154.138 150.178 156.028 150.18L253.127 150.299C255.017 150.301 256.551 148.773 256.553 146.885C256.556 144.997 255.025 143.465 253.135 143.463Z" fill="white"/>
<path d="M214.945 191.263L156.045 191.191C154.155 191.188 152.621 192.717 152.618 194.605C152.616 196.492 154.146 198.025 156.037 198.027L214.937 198.099C216.827 198.101 218.361 196.573 218.363 194.685C218.366 192.797 216.835 191.265 214.945 191.263Z" fill="white"/>
<path fill-rule="evenodd" clip-rule="evenodd" d="M89.7698 117.449C61.6626 117.449 38.8773 140.251 38.8857 168.358C38.8857 196.465 61.6877 219.25 89.7949 219.242C117.902 219.242 140.687 196.448 140.679 168.333C140.679 140.226 117.885 117.44 89.7698 117.449Z" fill="white"/>
<path d="M87.9205 153.79C87.9205 153.79 87.9038 153.781 87.8954 153.773C87.8787 153.756 87.8619 153.748 87.8452 153.731C87.8368 153.723 87.8201 153.714 87.8117 153.706C87.795 153.698 87.7783 153.681 87.7615 153.672C87.7448 153.672 87.7364 153.656 87.7197 153.647C87.703 153.639 87.6862 153.631 87.6695 153.622C87.6527 153.622 87.636 153.606 87.6193 153.606C87.6025 153.606 87.5858 153.589 87.5691 153.589C87.5523 153.589 87.5356 153.58 87.5189 153.572C87.5021 153.564 87.4854 153.564 87.4687 153.555C87.4519 153.555 87.4352 153.555 87.4184 153.547C87.4017 153.547 87.385 153.547 87.3682 153.539C87.3515 153.539 87.3348 153.539 87.318 153.539C87.3013 153.539 87.2846 153.539 87.2595 153.539C87.2427 153.539 87.226 153.539 87.2176 153.539C87.2009 153.539 87.1758 153.539 87.1591 153.539C87.1423 153.539 87.1339 153.539 87.1172 153.539C87.0921 153.539 87.0754 153.539 87.0503 153.539C87.0335 153.539 87.0252 153.539 87.0084 153.539C86.9833 153.539 86.9666 153.547 86.9415 153.555C86.9248 153.555 86.9164 153.555 86.8997 153.564C86.8829 153.564 86.8578 153.572 86.8411 153.58C86.8243 153.58 86.816 153.589 86.7992 153.597C86.7825 153.597 86.7658 153.614 86.7407 153.622C86.7239 153.622 86.7156 153.639 86.6988 153.647C86.6821 153.656 86.6654 153.664 86.6486 153.672C86.6319 153.681 86.6152 153.689 86.5984 153.706C86.5817 153.714 86.5733 153.723 86.5566 153.731C86.5398 153.739 86.5231 153.756 86.5064 153.765C86.5064 153.765 86.4896 153.773 86.4813 153.781L74.1138 164.525L68.1058 156.835C67.7376 156.367 67.0514 156.283 66.5828 156.651C66.1142 157.02 66.0306 157.706 66.3988 158.174L73.1097 166.76C73.1097 166.76 73.118 166.768 73.1264 166.776C73.1264 166.785 73.1431 166.793 73.1431 166.801C73.1515 166.81 73.1599 166.818 73.1682 166.827C73.185 166.843 73.1933 166.852 73.2101 166.868C73.2268 166.885 73.2435 166.902 73.2603 166.91C73.277 166.919 73.2854 166.935 73.3021 166.944C73.3189 166.96 73.3356 166.969 73.3523 166.986C73.3691 166.994 73.3858 167.002 73.3942 167.019C73.4109 167.027 73.436 167.044 73.4527 167.052C73.4695 167.052 73.4862 167.069 73.4946 167.078C73.5197 167.086 73.5364 167.094 73.5615 167.103C73.5782 167.103 73.5866 167.111 73.6033 167.119C73.6285 167.119 73.6536 167.136 73.6703 167.136C73.687 167.136 73.6954 167.136 73.7121 167.144C73.7372 167.144 73.7623 167.153 73.7874 167.161C73.8042 167.161 73.8125 167.161 73.8293 167.161C73.8628 167.161 73.8962 167.161 73.9297 167.161C73.9297 167.161 73.9381 167.161 73.9464 167.161C73.9715 167.161 73.9966 167.161 74.0217 167.161C74.0468 167.161 74.0636 167.161 74.0887 167.161H100.255C100.255 167.161 100.296 167.161 100.321 167.161C100.347 167.161 100.372 167.161 100.397 167.161C100.397 167.161 100.472 167.161 100.506 167.161C100.514 167.161 100.531 167.161 100.539 167.161C100.564 167.161 100.589 167.161 100.623 167.144C100.631 167.144 100.648 167.144 100.656 167.136C100.681 167.136 100.706 167.128 100.731 167.119C100.748 167.119 100.757 167.111 100.773 167.103C100.798 167.103 100.815 167.086 100.84 167.078C100.857 167.078 100.865 167.061 100.882 167.061C100.899 167.052 100.924 167.044 100.941 167.027C100.957 167.027 100.966 167.011 100.983 167.002C100.999 166.994 101.016 166.977 101.041 166.969C101.058 166.96 101.066 166.944 101.083 166.935C101.1 166.919 101.116 166.91 101.133 166.893C101.15 166.885 101.158 166.868 101.175 166.852C101.192 166.835 101.2 166.827 101.217 166.81L116.229 150.133C116.63 149.689 116.597 149.003 116.145 148.602C115.701 148.2 115.015 148.233 114.614 148.685L100.321 164.576L87.8954 153.781L87.9205 153.79ZM87.2093 156.041L97.535 165.011H76.8835L87.2093 156.041Z" fill="#005BAC"/>
<path d="M121.835 165.471L116.136 157.413C115.793 156.928 115.116 156.811 114.622 157.154C114.137 157.497 114.019 158.174 114.363 158.668L119.55 165.998L90.9998 195.963L101.309 173.889C101.56 173.345 101.326 172.701 100.782 172.45C100.238 172.199 99.5935 172.433 99.3425 172.977L87.2176 198.95L75.0928 172.977C74.8418 172.433 74.1975 172.199 73.6536 172.45C73.1097 172.701 72.8754 173.345 73.1264 173.889L83.4354 195.963L54.8848 165.998L65.5704 150.903H106.689C107.292 150.903 107.777 150.418 107.777 149.815C107.777 149.213 107.292 148.727 106.689 148.727H65.0097C64.6583 148.727 64.3236 148.895 64.1227 149.188L52.6004 165.471C52.2992 165.898 52.341 166.467 52.7008 166.843L86.4394 202.256C86.4394 202.256 86.4562 202.264 86.4562 202.272C86.4896 202.306 86.5231 202.331 86.5566 202.364C86.565 202.373 86.5817 202.381 86.5901 202.389C86.5984 202.389 86.6068 202.406 86.6152 202.406C86.657 202.431 86.6988 202.456 86.7407 202.481C86.7407 202.481 86.749 202.482 86.7574 202.49C86.7574 202.49 86.7574 202.49 86.7658 202.49C86.7658 202.49 86.7741 202.49 86.7825 202.49C86.7825 202.49 86.7993 202.49 86.8076 202.49C86.8411 202.507 86.8662 202.515 86.8997 202.523C86.9164 202.523 86.9248 202.523 86.9415 202.532C86.9582 202.532 86.975 202.54 86.9917 202.548C86.9917 202.548 86.9917 202.548 87.0001 202.548C87.0168 202.548 87.0252 202.548 87.0419 202.548C87.0503 202.548 87.067 202.548 87.0754 202.548C87.1172 202.548 87.1674 202.557 87.2093 202.557C87.2511 202.557 87.3013 202.557 87.3432 202.548C87.3515 202.548 87.3683 202.548 87.3766 202.548C87.3934 202.548 87.4017 202.548 87.4185 202.548C87.4185 202.548 87.4185 202.548 87.4268 202.548C87.4436 202.548 87.4603 202.54 87.4854 202.532C87.5021 202.532 87.5105 202.532 87.5272 202.523C87.5607 202.515 87.5858 202.498 87.6193 202.49C87.6193 202.49 87.636 202.49 87.6444 202.481C87.6444 202.481 87.6528 202.481 87.6611 202.481C87.6611 202.481 87.6611 202.481 87.6695 202.481C87.6695 202.481 87.6862 202.482 87.6862 202.473C87.7281 202.448 87.7699 202.431 87.8117 202.406C87.8201 202.406 87.8285 202.389 87.8368 202.389C87.8452 202.381 87.8619 202.373 87.8703 202.364C87.9038 202.339 87.9373 202.306 87.9707 202.272C87.9707 202.272 87.9875 202.264 87.9875 202.256L121.726 166.843C122.086 166.467 122.128 165.889 121.826 165.471H121.835Z" fill="#005BAC"/>
<path d="M103.677 166.098C103.677 166.701 104.162 167.186 104.765 167.186H113.701C114.304 167.186 114.789 166.701 114.789 166.098C114.789 165.496 114.304 165.011 113.701 165.011H104.765C104.162 165.011 103.677 165.496 103.677 166.098Z" fill="#005BAC"/>
<path d="M60.7254 165.019C60.123 165.019 59.6376 165.504 59.6376 166.107C59.6376 166.709 60.123 167.195 60.7254 167.195H69.6622C70.2646 167.195 70.75 166.709 70.75 166.107C70.75 165.504 70.2646 165.019 69.6622 165.019H60.7254Z" fill="#005BAC"/>
<path d="M117.551 156.2C117.132 156.2 116.764 155.915 116.655 155.513L115.383 150.802C115.275 150.392 115.082 150.016 114.814 149.689C114.488 149.288 114.555 148.702 114.948 148.384C115.35 148.058 115.936 148.125 116.254 148.518C116.689 149.053 116.998 149.656 117.174 150.325L117.542 151.698L117.91 150.325C118.362 148.652 119.676 147.338 121.35 146.886L122.722 146.518L121.35 146.15C119.676 145.698 118.362 144.384 117.91 142.711L117.542 141.338L117.174 142.711C116.722 144.384 115.408 145.698 113.735 146.15L112.229 146.552C112.522 146.769 112.672 147.162 112.572 147.539C112.438 148.033 111.927 148.325 111.434 148.192L108.539 147.413C108.129 147.305 107.852 146.936 107.852 146.518C107.852 146.1 108.137 145.731 108.539 145.623L113.25 144.351C114.287 144.075 115.099 143.255 115.375 142.225L116.647 137.514C116.756 137.104 117.124 136.828 117.542 136.828C117.961 136.828 118.329 137.113 118.438 137.514L119.709 142.225C119.986 143.263 120.806 144.075 121.835 144.351L126.546 145.623C126.956 145.731 127.232 146.1 127.232 146.518C127.232 146.936 126.948 147.305 126.546 147.413L121.835 148.685C120.797 148.961 119.986 149.781 119.709 150.811L118.438 155.522C118.329 155.932 117.961 156.208 117.542 156.208L117.551 156.2Z" fill="#EB6100"/>
</svg>
