<svg width="300" height="300" viewBox="0 0 300 300" fill="none" xmlns="http://www.w3.org/2000/svg">
<path d="M91.1531 86.0153C88.3081 86.0153 86.007 88.3164 86.007 91.1614V111.746C86.007 114.591 88.3081 116.892 91.1531 116.892H111.738C114.583 116.892 116.884 114.591 116.884 111.746V91.1614C116.884 88.3164 114.583 86.0153 111.738 86.0153H91.1531Z" fill="#B7DAF7"/>
<path d="M187.892 86.0153C185.047 86.0153 182.746 88.3164 182.746 91.1614V111.746C182.746 114.591 185.047 116.892 187.892 116.892H208.477C211.322 116.892 213.623 114.591 213.623 111.746V91.1614C213.623 88.3164 211.322 86.0153 208.477 86.0153H187.892Z" fill="#B7DAF7"/>
<path d="M91.1531 182.746C88.3081 182.746 86.007 185.047 86.007 187.892V208.477C86.007 211.322 88.3081 213.623 91.1531 213.623H111.738C114.583 213.623 116.884 211.322 116.884 208.477V187.892C116.884 185.047 114.583 182.746 111.738 182.746H91.1531Z" fill="#B7DAF7"/>
<path d="M232.484 158.731C229.639 158.731 227.338 161.032 227.338 163.877V187.892C227.338 190.737 229.639 193.038 232.484 193.038C235.329 193.038 237.63 190.737 237.63 187.892V163.877C237.63 161.032 235.329 158.731 232.484 158.731Z" fill="#B7DAF7"/>
<path d="M187.892 158.731H163.877C161.032 158.731 158.731 161.032 158.731 163.877V187.892C158.731 190.737 161.032 193.038 163.877 193.038C166.722 193.038 169.023 190.737 169.023 187.892V169.023H187.892C190.737 169.023 193.038 166.722 193.038 163.877C193.038 161.032 190.737 158.731 187.892 158.731Z" fill="#B7DAF7"/>
<path d="M163.877 206.979C161.032 206.979 158.731 209.28 158.731 212.125V232.492C158.731 235.337 161.032 237.638 163.877 237.638C166.722 237.638 169.023 235.337 169.023 232.492V212.125C169.023 209.28 166.722 206.979 163.877 206.979Z" fill="#B7DAF7"/>
<path d="M135.753 62H67.1462C64.3011 62 62 64.3011 62 67.1461V135.753C62 138.598 64.3011 140.899 67.1462 140.899H135.753C138.598 140.899 140.899 138.598 140.899 135.753V67.1461C140.899 64.3011 138.598 62 135.753 62ZM130.607 130.607H72.2923V72.2923H130.607V130.607Z" fill="#B7DAF7"/>
<path d="M232.484 62H163.877C161.032 62 158.731 64.3011 158.731 67.1461V135.753C158.731 138.598 161.032 140.899 163.877 140.899H232.484C235.329 140.899 237.63 138.598 237.63 135.753V67.1461C237.63 64.3011 235.329 62 232.484 62ZM227.338 130.607H169.023V72.2923H227.338V130.607Z" fill="#B7DAF7"/>
<path d="M135.753 158.731H67.1462C64.3011 158.731 62 161.032 62 163.877V232.484C62 235.329 64.3011 237.63 67.1462 237.63H135.753C138.598 237.63 140.899 235.329 140.899 232.484V163.877C140.899 161.032 138.598 158.731 135.753 158.731ZM130.607 227.338H72.2923V169.023H130.607V227.338Z" fill="#B7DAF7"/>
<path d="M232.484 206.979H203.322V187.892C203.322 185.047 201.021 182.746 198.176 182.746C195.331 182.746 193.03 185.047 193.03 187.892V212.125C193.03 214.97 195.331 217.271 198.176 217.271H227.338V227.346H198.176C195.331 227.346 193.03 229.647 193.03 232.492C193.03 235.337 195.331 237.638 198.176 237.638H232.476C235.321 237.638 237.622 235.337 237.622 232.492V212.125C237.622 209.28 235.321 206.979 232.476 206.979H232.484Z" fill="#B7DAF7"/>
<path d="M151.208 212.267C185.004 212.267 212.401 184.87 212.401 151.074C212.401 117.278 185.004 89.8812 151.208 89.8812C117.412 89.8812 90.0151 117.278 90.0151 151.074C90.0151 184.87 117.412 212.267 151.208 212.267Z" fill="#FFD100"/>
<path d="M169.14 165.71H172.772V148.003H169.14V165.71ZM190.336 138.146H186.704V142.799H175.567V146.43H186.704V161.149C186.704 161.584 186.344 161.944 185.909 161.944H183.148V165.701H185.909C188.353 165.701 190.344 163.71 190.344 161.266V146.422H192.72V142.79H190.344V138.138L190.336 138.146ZM172.747 137.619C172.747 141.293 169.81 144.23 166.195 144.23V147.861C171.81 147.861 176.387 143.292 176.387 137.611H172.755L172.747 137.619ZM156.028 160.664C159.877 158.053 162.128 152.555 162.128 149.485C162.128 148.355 161.442 147.61 160.312 147.61H153.744V144.506H163.182V141.05H153.744V137.602H150.154V141.05H140.715V144.506H150.154V147.61H143.585C142.456 147.61 141.769 148.355 141.769 149.485C141.769 152.547 143.995 158.053 147.869 160.664C146.74 161.291 143.594 162.195 139.912 162.078V165.71C144.606 165.894 149.685 164.237 151.945 162.597C154.321 164.245 159.275 165.894 163.977 165.71V162.078C160.304 162.203 157.158 161.258 156.02 160.664H156.028ZM151.953 159.45C147.786 157.007 145.911 153.426 145.719 151.258H158.187C157.994 153.317 156.12 157.007 151.953 159.45ZM179.725 149.401C177.073 149.401 174.914 151.56 174.914 154.212C174.914 156.865 177.073 159.024 179.725 159.024C182.378 159.024 184.537 156.865 184.537 154.212C184.537 151.56 182.378 149.401 179.725 149.401ZM179.725 155.877C178.813 155.877 178.069 155.133 178.069 154.221C178.069 153.309 178.813 152.564 179.725 152.564C180.637 152.564 181.382 153.309 181.382 154.221C181.382 155.133 180.637 155.877 179.725 155.877ZM123.252 136.891L109.704 148.522L112.089 151.233L116.156 147.685V151.258H122.658V154.848H117.478V158.48H122.658V162.07H114.173V165.701H134.791V162.07H126.306V158.48H131.486V154.848H126.306V151.258H132.808V147.685L136.874 151.233L139.259 148.522L125.712 136.891C124.992 136.264 123.996 136.264 123.252 136.891ZM116.231 147.619L124.482 140.548L132.732 147.619H116.231Z" fill="black"/>
</svg>
