<svg width="89" height="18" viewBox="0 0 89 18" fill="none" xmlns="http://www.w3.org/2000/svg">
<path d="M7.88541 17.9325C6.28541 17.9325 4.95741 17.7085 3.90141 17.2605C2.84541 16.7965 2.04541 16.1965 1.50141 15.4605C0.957406 14.7245 0.669406 13.9405 0.637406 13.1085C0.637406 12.9805 0.685406 12.8685 0.781406 12.7725C0.893406 12.6605 1.02141 12.6045 1.16541 12.6045H4.18941C4.41341 12.6045 4.58141 12.6445 4.69341 12.7245C4.82141 12.8045 4.93341 12.9085 5.02941 13.0365C5.15741 13.2765 5.33341 13.5085 5.55741 13.7325C5.79741 13.9565 6.10141 14.1405 6.46941 14.2845C6.85341 14.4125 7.32541 14.4765 7.88541 14.4765C8.81341 14.4765 9.50941 14.3325 9.97341 14.0445C10.4534 13.7565 10.6934 13.3645 10.6934 12.8685C10.6934 12.5165 10.5654 12.2285 10.3094 12.0045C10.0534 11.7645 9.63741 11.5565 9.06141 11.3805C8.50141 11.1885 7.74941 10.9965 6.80541 10.8045C5.58941 10.5485 4.54941 10.2205 3.68541 9.8205C2.83741 9.4045 2.18941 8.8685 1.74141 8.2125C1.29341 7.5405 1.06941 6.7085 1.06941 5.7165C1.06941 4.7405 1.34141 3.8685 1.88541 3.1005C2.44541 2.3325 3.22141 1.7325 4.21341 1.3005C5.20541 0.868504 6.38141 0.652504 7.74141 0.652504C8.84541 0.652504 9.81341 0.796504 10.6454 1.0845C11.4934 1.3725 12.2054 1.7565 12.7814 2.2365C13.3574 2.7165 13.7894 3.2285 14.0774 3.7725C14.3814 4.3005 14.5414 4.8205 14.5574 5.3325C14.5574 5.4605 14.5094 5.5805 14.4134 5.6925C14.3174 5.7885 14.1974 5.8365 14.0534 5.8365H10.8854C10.7094 5.8365 10.5574 5.8045 10.4294 5.7405C10.3014 5.6765 10.1894 5.5725 10.0934 5.4285C9.99741 5.0765 9.74141 4.7725 9.32541 4.5165C8.92541 4.2445 8.39741 4.1085 7.74141 4.1085C7.03741 4.1085 6.48541 4.2365 6.08541 4.4925C5.70141 4.7325 5.50941 5.1085 5.50941 5.6205C5.50941 5.9405 5.61341 6.2205 5.82141 6.4605C6.04541 6.7005 6.40541 6.9085 6.90141 7.0845C7.41341 7.2605 8.10941 7.4445 8.98941 7.6365C10.4454 7.9085 11.6214 8.2525 12.5174 8.6685C13.4134 9.0685 14.0694 9.5965 14.4854 10.2525C14.9014 10.8925 15.1094 11.7005 15.1094 12.6765C15.1094 13.7645 14.7974 14.7085 14.1734 15.5085C13.5654 16.2925 12.7174 16.8925 11.6294 17.3085C10.5414 17.7245 9.29341 17.9325 7.88541 17.9325ZM24.044 17.6925C23.868 17.6925 23.724 17.6365 23.612 17.5245C23.5 17.4125 23.444 17.2685 23.444 17.0925V4.6605H19.172C18.996 4.6605 18.852 4.6045 18.74 4.4925C18.628 4.3645 18.572 4.2205 18.572 4.0605V1.4925C18.572 1.3165 18.628 1.1725 18.74 1.0605C18.852 0.948504 18.996 0.892504 19.172 0.892504H32.084C32.26 0.892504 32.404 0.948504 32.516 1.0605C32.628 1.1725 32.684 1.3165 32.684 1.4925V4.0605C32.684 4.2205 32.628 4.3645 32.516 4.4925C32.404 4.6045 32.26 4.6605 32.084 4.6605H27.812V17.0925C27.812 17.2685 27.756 17.4125 27.644 17.5245C27.532 17.6365 27.388 17.6925 27.212 17.6925H24.044ZM37.8652 17.6925C37.6892 17.6925 37.5452 17.6365 37.4332 17.5245C37.3212 17.4125 37.2652 17.2685 37.2652 17.0925V1.4925C37.2652 1.3165 37.3212 1.1725 37.4332 1.0605C37.5452 0.948504 37.6892 0.892504 37.8652 0.892504H49.0732C49.2492 0.892504 49.3932 0.948504 49.5052 1.0605C49.6172 1.1725 49.6732 1.3165 49.6732 1.4925V3.7485C49.6732 3.9245 49.6172 4.0685 49.5052 4.1805C49.3932 4.2925 49.2492 4.3485 49.0732 4.3485H41.4172V7.5885H48.5452C48.7212 7.5885 48.8652 7.6525 48.9772 7.7805C49.0892 7.8925 49.1452 8.0365 49.1452 8.2125V10.3005C49.1452 10.4605 49.0892 10.6045 48.9772 10.7325C48.8652 10.8445 48.7212 10.9005 48.5452 10.9005H41.4172V14.2365H49.2652C49.4412 14.2365 49.5852 14.2925 49.6972 14.4045C49.8092 14.5165 49.8652 14.6605 49.8652 14.8365V17.0925C49.8652 17.2685 49.8092 17.4125 49.6972 17.5245C49.5852 17.6365 49.4412 17.6925 49.2652 17.6925H37.8652ZM55.5933 17.6925C55.4173 17.6925 55.2733 17.6365 55.1613 17.5245C55.0493 17.4125 54.9933 17.2685 54.9933 17.0925V1.4925C54.9933 1.3165 55.0493 1.1725 55.1613 1.0605C55.2733 0.948504 55.4173 0.892504 55.5933 0.892504H62.3133C63.6413 0.892504 64.7933 1.1005 65.7693 1.5165C66.7613 1.9165 67.5293 2.5245 68.0733 3.3405C68.6333 4.1565 68.9133 5.1885 68.9133 6.4365C68.9133 7.6685 68.6333 8.6845 68.0733 9.4845C67.5293 10.2845 66.7613 10.8765 65.7693 11.2605C64.7933 11.6445 63.6413 11.8365 62.3133 11.8365H59.4573V17.0925C59.4573 17.2685 59.3933 17.4125 59.2653 17.5245C59.1533 17.6365 59.0093 17.6925 58.8333 17.6925H55.5933ZM59.3853 8.5245H62.1933C62.8813 8.5245 63.4253 8.3485 63.8253 7.9965C64.2413 7.6445 64.4493 7.1085 64.4493 6.3885C64.4493 5.7805 64.2733 5.2685 63.9213 4.8525C63.5693 4.4365 62.9933 4.2285 62.1933 4.2285H59.3853V8.5245ZM72.3749 17.6925C72.1989 17.6925 72.0549 17.6365 71.9429 17.5245C71.8309 17.4125 71.7749 17.2685 71.7749 17.0925V14.0445C71.7749 13.8845 71.8309 13.7485 71.9429 13.6365C72.0549 13.5085 72.1989 13.4445 72.3749 13.4445H75.3989C75.5749 13.4445 75.7189 13.5085 75.8309 13.6365C75.9589 13.7485 76.0229 13.8845 76.0229 14.0445V17.0925C76.0229 17.2685 75.9589 17.4125 75.8309 17.5245C75.7189 17.6365 75.5749 17.6925 75.3989 17.6925H72.3749ZM84.7769 17.6925C84.6169 17.6925 84.4729 17.6365 84.3449 17.5245C84.2329 17.4125 84.1769 17.2685 84.1769 17.0925V5.6685L80.8889 8.1885C80.7449 8.3005 80.5929 8.3405 80.4329 8.3085C80.2889 8.2765 80.1609 8.1885 80.0489 8.0445L78.6329 6.1965C78.5369 6.0525 78.4969 5.9005 78.5129 5.7405C78.5449 5.5645 78.6409 5.4285 78.8009 5.3325L84.3209 1.0605C84.4169 0.996504 84.5049 0.956504 84.5849 0.940505C84.6809 0.908504 84.7849 0.892504 84.8969 0.892504H87.8969C88.0569 0.892504 88.1929 0.948504 88.3049 1.0605C88.4329 1.1725 88.4969 1.3165 88.4969 1.4925V17.0925C88.4969 17.2685 88.4329 17.4125 88.3049 17.5245C88.1929 17.6365 88.0569 17.6925 87.8969 17.6925H84.7769Z" fill="#0073CA"/>
</svg>
