<svg width="94" height="18" viewBox="0 0 94 18" fill="none" xmlns="http://www.w3.org/2000/svg">
<path d="M7.26041 17.9325C5.66041 17.9325 4.33241 17.7085 3.27641 17.2605C2.22041 16.7965 1.42041 16.1965 0.876406 15.4605C0.332406 14.7245 0.0444063 13.9405 0.0124063 13.1085C0.0124063 12.9805 0.0604063 12.8685 0.156406 12.7725C0.268406 12.6605 0.396406 12.6045 0.540406 12.6045H3.56441C3.78841 12.6045 3.95641 12.6445 4.06841 12.7245C4.19641 12.8045 4.30841 12.9085 4.40441 13.0365C4.53241 13.2765 4.70841 13.5085 4.93241 13.7325C5.17241 13.9565 5.47641 14.1405 5.84441 14.2845C6.22841 14.4125 6.70041 14.4765 7.26041 14.4765C8.18841 14.4765 8.88441 14.3325 9.34841 14.0445C9.82841 13.7565 10.0684 13.3645 10.0684 12.8685C10.0684 12.5165 9.94041 12.2285 9.68441 12.0045C9.42841 11.7645 9.01241 11.5565 8.43641 11.3805C7.87641 11.1885 7.12441 10.9965 6.18041 10.8045C4.96441 10.5485 3.92441 10.2205 3.06041 9.8205C2.21241 9.4045 1.56441 8.8685 1.11641 8.2125C0.668406 7.5405 0.444406 6.7085 0.444406 5.7165C0.444406 4.7405 0.716406 3.8685 1.26041 3.1005C1.82041 2.3325 2.59641 1.7325 3.58841 1.3005C4.58041 0.868504 5.75641 0.652504 7.11641 0.652504C8.22041 0.652504 9.18841 0.796504 10.0204 1.0845C10.8684 1.3725 11.5804 1.7565 12.1564 2.2365C12.7324 2.7165 13.1644 3.2285 13.4524 3.7725C13.7564 4.3005 13.9164 4.8205 13.9324 5.3325C13.9324 5.4605 13.8844 5.5805 13.7884 5.6925C13.6924 5.7885 13.5724 5.8365 13.4284 5.8365H10.2604C10.0844 5.8365 9.93241 5.8045 9.80441 5.7405C9.67641 5.6765 9.56441 5.5725 9.46841 5.4285C9.37241 5.0765 9.11641 4.7725 8.70041 4.5165C8.30041 4.2445 7.77241 4.1085 7.11641 4.1085C6.41241 4.1085 5.86041 4.2365 5.46041 4.4925C5.07641 4.7325 4.88441 5.1085 4.88441 5.6205C4.88441 5.9405 4.98841 6.2205 5.19641 6.4605C5.42041 6.7005 5.78041 6.9085 6.27641 7.0845C6.78841 7.2605 7.48441 7.4445 8.36441 7.6365C9.82041 7.9085 10.9964 8.2525 11.8924 8.6685C12.7884 9.0685 13.4444 9.5965 13.8604 10.2525C14.2764 10.8925 14.4844 11.7005 14.4844 12.6765C14.4844 13.7645 14.1724 14.7085 13.5484 15.5085C12.9404 16.2925 12.0924 16.8925 11.0044 17.3085C9.91641 17.7245 8.66841 17.9325 7.26041 17.9325ZM23.419 17.6925C23.243 17.6925 23.099 17.6365 22.987 17.5245C22.875 17.4125 22.819 17.2685 22.819 17.0925V4.6605H18.547C18.371 4.6605 18.227 4.6045 18.115 4.4925C18.003 4.3645 17.947 4.2205 17.947 4.0605V1.4925C17.947 1.3165 18.003 1.1725 18.115 1.0605C18.227 0.948504 18.371 0.892504 18.547 0.892504H31.459C31.635 0.892504 31.779 0.948504 31.891 1.0605C32.003 1.1725 32.059 1.3165 32.059 1.4925V4.0605C32.059 4.2205 32.003 4.3645 31.891 4.4925C31.779 4.6045 31.635 4.6605 31.459 4.6605H27.187V17.0925C27.187 17.2685 27.131 17.4125 27.019 17.5245C26.907 17.6365 26.763 17.6925 26.587 17.6925H23.419ZM37.2402 17.6925C37.0642 17.6925 36.9202 17.6365 36.8082 17.5245C36.6962 17.4125 36.6402 17.2685 36.6402 17.0925V1.4925C36.6402 1.3165 36.6962 1.1725 36.8082 1.0605C36.9202 0.948504 37.0642 0.892504 37.2402 0.892504H48.4482C48.6242 0.892504 48.7682 0.948504 48.8802 1.0605C48.9922 1.1725 49.0482 1.3165 49.0482 1.4925V3.7485C49.0482 3.9245 48.9922 4.0685 48.8802 4.1805C48.7682 4.2925 48.6242 4.3485 48.4482 4.3485H40.7922V7.5885H47.9202C48.0962 7.5885 48.2402 7.6525 48.3522 7.7805C48.4642 7.8925 48.5202 8.0365 48.5202 8.2125V10.3005C48.5202 10.4605 48.4642 10.6045 48.3522 10.7325C48.2402 10.8445 48.0962 10.9005 47.9202 10.9005H40.7922V14.2365H48.6402C48.8162 14.2365 48.9602 14.2925 49.0722 14.4045C49.1842 14.5165 49.2402 14.6605 49.2402 14.8365V17.0925C49.2402 17.2685 49.1842 17.4125 49.0722 17.5245C48.9602 17.6365 48.8162 17.6925 48.6402 17.6925H37.2402ZM54.9683 17.6925C54.7923 17.6925 54.6483 17.6365 54.5363 17.5245C54.4243 17.4125 54.3683 17.2685 54.3683 17.0925V1.4925C54.3683 1.3165 54.4243 1.1725 54.5363 1.0605C54.6483 0.948504 54.7923 0.892504 54.9683 0.892504H61.6883C63.0163 0.892504 64.1683 1.1005 65.1443 1.5165C66.1363 1.9165 66.9043 2.5245 67.4483 3.3405C68.0083 4.1565 68.2883 5.1885 68.2883 6.4365C68.2883 7.6685 68.0083 8.6845 67.4483 9.4845C66.9043 10.2845 66.1363 10.8765 65.1443 11.2605C64.1683 11.6445 63.0163 11.8365 61.6883 11.8365H58.8323V17.0925C58.8323 17.2685 58.7683 17.4125 58.6403 17.5245C58.5283 17.6365 58.3843 17.6925 58.2083 17.6925H54.9683ZM58.7603 8.5245H61.5683C62.2563 8.5245 62.8003 8.3485 63.2003 7.9965C63.6163 7.6445 63.8243 7.1085 63.8243 6.3885C63.8243 5.7805 63.6483 5.2685 63.2963 4.8525C62.9443 4.4365 62.3683 4.2285 61.5683 4.2285H58.7603V8.5245ZM71.7499 17.6925C71.5739 17.6925 71.4299 17.6365 71.3179 17.5245C71.2059 17.4125 71.1499 17.2685 71.1499 17.0925V14.0445C71.1499 13.8845 71.2059 13.7485 71.3179 13.6365C71.4299 13.5085 71.5739 13.4445 71.7499 13.4445H74.7739C74.9499 13.4445 75.0939 13.5085 75.2059 13.6365C75.3339 13.7485 75.3979 13.8845 75.3979 14.0445V17.0925C75.3979 17.2685 75.3339 17.4125 75.2059 17.5245C75.0939 17.6365 74.9499 17.6925 74.7739 17.6925H71.7499ZM80.6822 17.6925C80.5062 17.6925 80.3542 17.6365 80.2262 17.5245C80.1142 17.4125 80.0582 17.2685 80.0582 17.0925V15.3885C80.0582 15.2765 80.0902 15.1085 80.1542 14.8845C80.2182 14.6445 80.3862 14.4205 80.6582 14.2125L83.1542 11.7645C84.4342 10.7885 85.4822 9.9645 86.2982 9.2925C87.1302 8.6045 87.7462 7.9965 88.1462 7.4685C88.5462 6.9405 88.7462 6.4445 88.7462 5.9805C88.7462 5.4365 88.6022 4.9885 88.3142 4.6365C88.0422 4.2685 87.5622 4.0845 86.8742 4.0845C86.4102 4.0845 86.0182 4.1885 85.6982 4.3965C85.3942 4.5885 85.1622 4.8445 85.0022 5.1645C84.8422 5.4845 84.7302 5.8125 84.6662 6.1485C84.6022 6.3565 84.4902 6.5005 84.3302 6.5805C84.1862 6.6605 84.0262 6.7005 83.8502 6.7005H80.8502C80.7062 6.7005 80.5862 6.6525 80.4902 6.5565C80.3942 6.4605 80.3462 6.3405 80.3462 6.1965C80.3622 5.4285 80.5222 4.7085 80.8262 4.0365C81.1462 3.3645 81.5862 2.7725 82.1462 2.2605C82.7222 1.7325 83.4022 1.3245 84.1862 1.0365C84.9862 0.748505 85.8822 0.604505 86.8742 0.604505C88.2342 0.604505 89.3862 0.820504 90.3302 1.2525C91.2902 1.6845 92.0182 2.2925 92.5142 3.0765C93.0102 3.8445 93.2582 4.7485 93.2582 5.7885C93.2582 6.5725 93.0822 7.3085 92.7302 7.9965C92.3942 8.6685 91.9062 9.3165 91.2662 9.9405C90.6422 10.5485 89.8982 11.1805 89.0342 11.8365L86.8262 14.0685H92.9942C93.1702 14.0685 93.3142 14.1245 93.4262 14.2365C93.5542 14.3485 93.6182 14.4925 93.6182 14.6685V17.0925C93.6182 17.2685 93.5542 17.4125 93.4262 17.5245C93.3142 17.6365 93.1702 17.6925 92.9942 17.6925H80.6822Z" fill="#0073CA"/>
</svg>
