<svg xmlns="http://www.w3.org/2000/svg" width="115" height="115"><path fill-rule="evenodd" fill="#23416D" d="M109.799 65.413l-2.485 1.642 1.649 2.436c4.018 5.935.657 14.045-6.381 15.398l-2.89.555.595 2.913c1.434 7.014-4.764 13.212-11.778 11.778l-2.913-.595-.555 2.889c-1.353 7.038-9.463 10.399-15.399 6.381l-2.434-1.648-1.642 2.484c-3.946 5.971-12.709 5.971-16.655 0l-1.642-2.484-2.435 1.648c-5.935 4.018-14.045.657-15.398-6.381l-.555-2.89-2.913.595c-7.014 1.434-13.213-4.764-11.779-11.778l.596-2.913-2.889-.555c-7.039-1.353-10.4-9.463-6.381-15.398l1.648-2.435-2.485-1.642c-5.971-3.946-5.971-12.708 0-16.654l2.485-1.643-1.649-2.435c-4.018-5.935-.657-14.045 6.382-15.398l2.89-.555-.596-2.913c-1.434-7.014 4.765-13.212 11.779-11.778l2.912.595.556-2.889c1.353-7.039 9.463-10.4 15.398-6.381l2.434 1.648 1.642-2.484c3.946-5.971 12.709-5.971 16.655-.001l1.642 2.485 2.435-1.648c5.936-4.019 14.045-.658 15.398 6.381l.556 2.89 2.913-.596c7.014-1.434 13.212 4.765 11.778 11.779l-.596 2.913 2.889.555c7.039 1.353 10.4 9.463 6.382 15.398l-1.649 2.435 2.485 1.642c5.971 3.946 5.971 12.708 0 16.654z"/></svg>