<svg width="238" height="299" viewBox="0 0 238 299" fill="none" xmlns="http://www.w3.org/2000/svg"><path d="M217.47 34.34c0-7.01-5.67-12.7-12.68-12.7h-15.05c-.83 5.73-5.77 10.14-11.74 10.13-5.97 0-10.9-4.42-11.72-10.16h-15.47c-.83 5.73-5.77 10.14-11.73 10.13-5.97 0-10.9-4.42-11.72-10.16h-15.47c-.83 5.73-5.77 10.14-11.73 10.13-5.97 0-10.9-4.42-11.72-10.16H72.97c-.83 5.73-5.77 10.14-11.73 10.13-5.97 0-10.9-4.42-11.72-10.16H34.47c-7.01-.02-12.7 5.66-12.7 12.67l-.26 233.82c0 7.01 5.67 12.7 12.68 12.7h15.05c-.08-.54-.12-1.11-.12-1.68 0-6.54 5.31-11.84 11.86-11.84 6.54 0 11.84 5.31 11.84 11.86 0 .57-.04 1.14-.12 1.69h15.47c-.08-.54-.12-1.11-.12-1.68 0-6.54 5.31-11.84 11.86-11.84 6.54 0 11.84 5.31 11.84 11.86 0 .57-.04 1.14-.12 1.69h15.47c-.08-.54-.12-1.11-.12-1.68 0-6.54 5.31-11.84 11.86-11.84 6.54 0 11.84 5.31 11.84 11.86 0 .57-.04 1.14-.12 1.69h15.47c-.08-.54-.12-1.1-.12-1.68 0-6.54 5.31-11.84 11.86-11.84 6.54 0 11.84 5.31 11.84 11.86 0 .57-.04 1.14-.12 1.69h15.05c7.01.02 12.7-5.66 12.7-12.67l.26-233.82h-.03z" fill="#F9BA55"/><path d="M204.52 282.34h-16.8l.25-1.72c.07-.49.11-.99.11-1.48 0-5.7-4.63-10.35-10.34-10.35-2.76 0-5.36 1.07-7.31 3.02a10.29 10.29 0 00-3.04 7.31c0 .5.03 1 .1 1.47l.25 1.72-18.94-.02.25-1.71a10.312 10.312 0 00-2.91-8.8 10.29 10.29 0 00-7.31-3.04h-.01c-2.76 0-5.35 1.07-7.31 3.02a10.29 10.29 0 00-3.04 7.31c0 .49.03.99.1 1.48l.24 1.71-18.93-.02.25-1.71c.07-.48.1-.98.11-1.48 0-5.7-4.63-10.35-10.34-10.35-2.76 0-5.35 1.07-7.31 3.02a10.29 10.29 0 00-3.04 7.31c0 .49.03.99.1 1.48l.24 1.71-18.94-.02.25-1.72c.07-.48.11-.98.11-1.48 0-5.7-4.63-10.35-10.34-10.35-5.7 0-10.34 4.64-10.35 10.34 0 .49.03.99.1 1.48l.24 1.71H34.18c-7.83-.02-14.19-6.39-14.18-14.21l.26-233.82c0-3.79 1.48-7.35 4.16-10.03 2.68-2.68 6.24-4.15 10.03-4.15h16.36l.18 1.3c.72 5.06 5.12 8.87 10.24 8.88 5.11 0 9.51-3.81 10.24-8.86l.19-1.29h18.07l.18 1.3c.72 5.06 5.12 8.87 10.23 8.87s9.51-3.81 10.24-8.86l.19-1.29h18.07l.18 1.3c.72 5.06 5.12 8.87 10.23 8.87s9.51-3.81 10.24-8.86l.19-1.29h18.07l.18 1.3c.72 5.06 5.12 8.87 10.23 8.88 5.11 0 9.51-3.81 10.24-8.86l.19-1.29h16.35c7.83.02 14.19 6.39 14.18 14.21l-.26 233.82c0 3.79-1.48 7.35-4.17 10.03a14.119 14.119 0 01-10.02 4.15l.05.06zm-13.45-3.01h13.44c2.99 0 5.79-1.16 7.91-3.27 2.12-2.11 3.28-4.92 3.28-7.91l.26-233.82c0-6.17-5.01-11.2-11.19-11.2h-13.82c-1.45 5.86-6.81 10.13-12.96 10.13h-.01c-6.16 0-11.51-4.29-12.95-10.16h-13c-1.45 5.86-6.81 10.13-12.96 10.13h-.01c-6.16 0-11.51-4.29-12.95-10.16h-13c-1.45 5.86-6.81 10.13-12.96 10.13h-.01c-6.16 0-11.51-4.29-12.95-10.16h-13c-1.45 5.86-6.81 10.13-12.96 10.13h-.01c-6.16 0-11.51-4.29-12.95-10.16H34.45c-2.99 0-5.79 1.16-7.91 3.27a11.079 11.079 0 00-3.28 7.91L23 268.01c0 6.17 5.01 11.2 11.18 11.2h13.43v-.18c0-7.36 6-13.34 13.35-13.34 7.36 0 13.34 6 13.34 13.36v.19h12.23v-.18c0-7.36 5.99-13.34 13.35-13.34h.01c7.36 0 13.34 6 13.33 13.36v.19h12.23v-.18c0-3.56 1.39-6.92 3.92-9.43 2.52-2.52 5.87-3.9 9.43-3.9h.01c3.57 0 6.92 1.39 9.44 3.92 2.52 2.52 3.9 5.88 3.9 9.44v.19h12.23v-.18c0-3.57 1.39-6.92 3.92-9.44 2.52-2.52 5.87-3.9 9.43-3.9h.01c7.36 0 13.34 6 13.34 13.36v.19l-.01-.01z" fill="#58393E"/><path d="M191.56 43.85H47.41c-7.002 0-12.68 5.677-12.68 12.68V245.8c0 7.003 5.678 12.68 12.68 12.68h144.15c7.003 0 12.68-5.677 12.68-12.68V56.53c0-7.003-5.677-12.68-12.68-12.68z" fill="#FEF7E0"/><path d="M101.37 81.69h28.9c6.19 0 9.46 3.61 9.46 7.83 0 2.67-1.46 5.33-4.04 8.08l-8.86 8.94h1.12c7.4 0 13.76 6.62 13.76 15.65 0 10.66-8.6 18.58-20.9 18.58-9.72 0-17.37-4.21-21.41-12.73l10.84-5.76c1.89 4.73 5.93 7.14 10.75 7.14s8.43-3.01 8.43-7.4c0-4.13-3.35-6.71-8.17-6.71h-3.1c-3.87 0-6.19-2.58-6.28-5.42 0-2.06 1.12-3.96 2.92-5.85l10.06-9.98c.26-.17.43-.26.43-.6 0-.17-.17-.17-.34-.17h-23.56V81.68l-.01.01zm54.781 60.239c6.682 0 12.1-5.417 12.1-12.1 0-6.682-5.418-12.1-12.1-12.1-6.683 0-12.1 5.418-12.1 12.1 0 6.683 5.417 12.1 12.1 12.1z" fill="#D93636"/><path d="M156.151 142.929c-7.22 0-13.1-5.87-13.1-13.1 0-7.23 5.87-13.1 13.1-13.1 7.23 0 13.1 5.87 13.1 13.1 0 7.23-5.87 13.1-13.1 13.1zm0-24.19c-6.12 0-11.1 4.98-11.1 11.1 0 6.12 4.98 11.1 11.1 11.1 6.12 0 11.1-4.98 11.1-11.1 0-6.12-4.98-11.1-11.1-11.1z" fill="#FEF7E0"/><path d="M149.461 127.689c0-2.14 1.14-3.39 2.7-3.39 1.56 0 2.73 1.25 2.73 3.39s-1.15 3.43-2.73 3.43-2.7-1.28-2.7-3.43zm3.65 0c0-1.5-.44-1.97-.94-1.97-.5 0-.94.47-.94 1.97s.44 2.02.94 2.02c.5 0 .94-.52.94-2.02zm-.28 7.18l5.39-10.37c.06-.12.2-.2.33-.2h.62c.38 0 .5.23.33.56l-5.4 10.37c-.06.12-.2.2-.33.2h-.61c-.38 0-.5-.23-.33-.56zm4.62-2.87c0-2.14 1.15-3.4 2.72-3.4 1.57 0 2.7 1.26 2.7 3.4 0 2.14-1.15 3.43-2.7 3.43-1.55 0-2.72-1.28-2.72-3.43zm3.63 0c0-1.52-.41-1.97-.91-1.97s-.96.46-.96 1.97.44 2 .96 2 .91-.5.91-2z" fill="#FEF7E0"/><path d="M67.45 123.53l1.68.53c-.33.67-.75 1.33-1.26 1.98-.51.65-1.02 1.19-1.54 1.62-.09-.12-.21-.26-.36-.42-.15-.17-.31-.33-.48-.5-.17-.17-.31-.3-.44-.41.48-.34.94-.76 1.37-1.26.43-.5.78-1.01 1.03-1.54zm-2.18 6.52h14.61v1.38H65.27v-1.38zm.32 5.88h14v1.44h-14v-1.44zm.99-1.99h11.97v1.41H66.58v-1.41zm.61-5.77h11.02v5.22H67.03v-1.33h9.22v-2.56h-9.06v-1.33zm.18-3.64h5.01v1.44h-5.01v-1.44zm1 2l1.22-.91c.25.22.51.48.78.77.28.29.49.54.62.75l-1.28 1.04a6.88 6.88 0 00-.58-.81c-.26-.31-.51-.59-.76-.84zm3.17.88h1.95v11.3h-1.95v-11.3zm2.47-3.88l1.76.46c-.29.68-.66 1.34-1.11 1.97-.45.63-.91 1.15-1.38 1.57-.11-.11-.25-.23-.42-.37-.18-.14-.35-.28-.54-.42-.18-.14-.34-.26-.46-.34.46-.34.88-.77 1.26-1.28s.68-1.04.9-1.58l-.01-.01zm-.07 1h6.03v1.44h-6.03v-1.44zm1.41 1.94l1.33-.88c.25.21.51.47.78.76.27.29.49.55.64.76l-1.39.98a6.36 6.36 0 00-.59-.8c-.27-.31-.52-.58-.77-.82zm8.1-2.94l1.68.53c-.33.67-.75 1.33-1.26 1.98-.51.65-1.02 1.19-1.54 1.62-.09-.12-.21-.26-.36-.42-.15-.17-.31-.33-.48-.5-.17-.17-.31-.3-.44-.41.48-.34.94-.76 1.37-1.26.43-.5.78-1.01 1.03-1.54zm-2.18 6.52h14.61v1.38H81.27v-1.38zm.32 5.88h14v1.44h-14v-1.44zm.99-1.99h11.97v1.41H82.58v-1.41zm.61-5.77h11.02v5.22H83.03v-1.33h9.22v-2.56h-9.06v-1.33zm.18-3.64h5.01v1.44h-5.01v-1.44zm1 2l1.22-.91c.25.22.51.48.78.77.28.29.49.54.62.75l-1.28 1.04a6.88 6.88 0 00-.58-.81c-.26-.31-.51-.59-.76-.84zm3.17.88h1.95v11.3h-1.95v-11.3zm2.47-3.88l1.76.46c-.29.68-.66 1.34-1.11 1.97-.45.63-.91 1.15-1.38 1.57-.11-.11-.25-.23-.42-.37-.18-.14-.35-.28-.54-.42-.18-.14-.34-.26-.46-.34.46-.34.88-.77 1.26-1.28s.68-1.04.9-1.58l-.01-.01zm-.07 1h6.03v1.44h-6.03v-1.44zm1.41 1.94l1.33-.88c.25.21.51.47.78.76.27.29.49.55.64.76l-1.39.98a6.36 6.36 0 00-.59-.8c-.27-.31-.52-.58-.77-.82zm-27.2 35.469l1.82-2.49c.54.22 1.14.5 1.81.84.66.34 1.31.67 1.95.99.63.33 1.15.62 1.54.88l-1.88 2.8c-.37-.28-.86-.6-1.47-.95s-1.25-.72-1.92-1.09c-.67-.37-1.29-.7-1.85-.98zm.98 13.16c.5-.71 1.06-1.54 1.68-2.51.62-.96 1.24-1.99 1.88-3.08.63-1.09 1.22-2.18 1.76-3.26l2.46 2.24c-.49.97-1 1.97-1.55 3s-1.11 2.04-1.68 3.02c-.57.99-1.13 1.94-1.69 2.86l-2.86-2.27zm.68-20.91l1.96-2.38c.54.28 1.13.6 1.76.97.63.37 1.26.72 1.86 1.08.61.35 1.11.67 1.5.95l-2.04 2.66c-.37-.3-.85-.64-1.44-1.02s-1.2-.77-1.83-1.18c-.63-.4-1.22-.76-1.76-1.08h-.01zm8.03 5.07h3.11v8.68c0 1.05-.04 2.18-.13 3.4-.09 1.22-.25 2.41-.5 3.56s-.64 2.15-1.16 3.01c-.19-.19-.44-.4-.77-.64s-.66-.48-.99-.7c-.33-.22-.63-.39-.9-.5.43-.75.74-1.58.92-2.51.18-.93.3-1.88.35-2.86.05-.98.07-1.91.07-2.79v-8.65zm-.75-5.77l2.86-1.26c.37.52.74 1.08 1.11 1.68.36.6.69 1.19.98 1.76.29.57.51 1.11.66 1.6l-3.05 1.43c-.11-.47-.3-1-.57-1.61-.27-.61-.57-1.22-.91-1.85-.34-.62-.69-1.21-1.06-1.75h-.02zm2.32 5.77h11.51v3.02H75.41v-3.02zm1.51 10.24c.82-.17 1.75-.36 2.79-.59 1.04-.22 2.14-.47 3.3-.73 1.17-.26 2.33-.53 3.49-.81l.34 2.6c-1.53.41-3.08.82-4.63 1.22-1.56.4-2.98.75-4.27 1.05l-1.01-2.74h-.01zm.39-4.2l1.37-2.04c.71.17 1.46.38 2.24.63.78.25 1.54.52 2.25.81.72.29 1.32.57 1.81.83l-1.46 2.27c-.45-.28-1.03-.58-1.74-.9-.71-.32-1.46-.62-2.24-.9-.78-.28-1.53-.51-2.24-.7h.01zm2.61-13.94h3.39v9.94h-3.39v-9.94zm6.07 7.9h3.28v14.84c0 .78-.09 1.41-.28 1.89-.19.48-.55.84-1.09 1.11-.52.24-1.17.4-1.93.46-.77.07-1.68.1-2.74.1-.06-.45-.18-.98-.38-1.6-.2-.62-.41-1.14-.63-1.57.65.04 1.3.06 1.93.07.63 0 1.05 0 1.26-.01.39-.02.59-.19.59-.5v-14.78l-.01-.01zm1.04-7.23l3.25 1.18c-.45.97-.92 1.93-1.41 2.87-.49.94-.96 1.75-1.39 2.42l-2.91-1.09c.28-.49.57-1.04.88-1.65.31-.61.6-1.25.88-1.9.28-.65.51-1.26.7-1.82v-.01zm13.801-.639h3.05v5.8c0 .99-.12 1.92-.36 2.79-.24.87-.7 1.66-1.37 2.37-.67.71-1.64 1.33-2.91 1.85-1.27.52-2.94.94-5.01 1.26a5.49 5.49 0 00-.42-.85c-.19-.33-.38-.65-.59-.97-.21-.32-.4-.58-.59-.78 1.79-.22 3.23-.52 4.31-.9 1.08-.37 1.9-.8 2.46-1.29s.94-1.02 1.13-1.61c.2-.59.29-1.23.29-1.92v-5.74l.01-.01zm.06 21.61l3 1.37c-.77.45-1.65.89-2.66 1.32-1.01.43-2.04.82-3.09 1.18-1.05.36-2.07.65-3.04.9-.17-.22-.4-.49-.7-.8-.3-.31-.6-.61-.9-.91-.3-.3-.58-.54-.84-.73 1.01-.15 2.02-.34 3.04-.59 1.02-.24 1.97-.51 2.87-.81.9-.3 1.67-.61 2.32-.92V173zm-4.45-17.27h16.69v-1.12h-18.7v-1.96h21.73v5.04h-19.71v-1.96h-.01zm-.95 0h2.94c-.11.88-.24 1.78-.39 2.72-.15.93-.3 1.75-.45 2.44h-2.94c.17-.71.33-1.54.48-2.48.15-.94.27-1.83.36-2.67v-.01zm.42 3.16h19.99v1.99h-20.58l.59-1.99zm.39 3.73h18.79v10.81h-18.79v-10.81zm3.27 1.9v1.12h12.1v-1.12h-12.1zm0 2.91v1.12h12.1v-1.12h-12.1zm0 2.91v1.18h12.1v-1.18h-12.1zm7.45-18.95h3.16v11.31h-3.16v-11.31zm.62 23.1l1.88-1.9c1.03.32 2.07.66 3.12 1.04 1.05.37 2.05.74 3 1.09.94.35 1.76.69 2.45 1.01l-2.44 2.02c-.62-.32-1.36-.66-2.23-1.04-.87-.38-1.8-.76-2.79-1.15-.99-.39-1.99-.75-3-1.06l.01-.01zm7.17-15.6h3.14c-.02.43-.03.73-.03.9-.06.88-.14 1.57-.24 2.09-.1.51-.28.9-.52 1.16a2.2 2.2 0 01-.74.48c-.29.11-.58.18-.88.2-.28.02-.66.03-1.13.03-.47 0-.98 0-1.53-.03-.02-.3-.08-.64-.2-1.02-.11-.38-.24-.7-.39-.97.35.02.67.04.94.06.27.02.48.03.63.03.13 0 .24 0 .34-.03.09-.02.18-.07.25-.17.09-.13.17-.37.22-.73.05-.36.1-.91.14-1.65v-.35zm6.66-6.551h24.05v25.34h-3.67v-21.9h-16.88v21.9h-3.5v-25.34zm1.99 20.69h20.47v3.14h-20.47v-3.14zm4.2-13.97h11.48v10.72h-11.48v-10.72zm3.16 2.94v4.87h4.93v-4.87h-4.93zm22.91-10.979l2.63.95c-.52.97-1.15 1.93-1.89 2.87a22.215 22.215 0 01-5.06 4.72c-.06-.22-.16-.53-.32-.91s-.33-.77-.5-1.18c-.18-.4-.34-.71-.49-.94 1.08-.63 2.14-1.44 3.18-2.42s1.85-2.01 2.45-3.09zm-3.92 26.6c-.06-.26-.14-.56-.25-.91a15 15 0 00-.36-1.01c-.13-.33-.28-.6-.45-.83.26-.13.51-.32.76-.56.25-.24.36-.62.36-1.15v-13.27h2.86v15.6c-.58.26-1.06.5-1.46.71-.39.21-.73.45-1.02.7-.29.25-.43.49-.43.71l-.01.01zm0 0l-.34-2.55 1.12-.95 6.36-2.13c.04.39.11.83.21 1.32.1.49.19.88.27 1.18l-3.64 1.37c-.93.35-1.67.64-2.2.85-.53.21-.92.39-1.18.53-.25.14-.45.27-.6.38zm1.87-13.86h5.43v2.32h-5.43v-2.32zm.31-3.86h6.52v10.08h-6.58v-2.41h3.67v-5.26h-3.61v-2.41zm.25-3.22h4.96v2.21h-4.96v-2.21zm1.29-2.02l1.32-2.35c.5.22 1.05.48 1.65.76.6.28 1.18.56 1.75.84.57.28 1.03.52 1.39.73l-1.37 2.6c-.35-.22-.81-.49-1.36-.8-.55-.31-1.12-.62-1.72-.94-.6-.32-1.15-.6-1.65-.84h-.01zm.98 16.52l2.27-.98c.32.58.65 1.21.99 1.89.35.68.67 1.33.97 1.96.3.62.54 1.17.73 1.64l-2.44 1.2c-.15-.49-.37-1.06-.66-1.72-.29-.66-.6-1.34-.92-2.04-.33-.7-.64-1.35-.94-1.95zm4.79-12.23h15.32v2.38h-15.32v-2.38zm4.11 13.89l2.97.92c-.56.78-1.28 1.53-2.16 2.24-.88.71-1.76 1.29-2.66 1.74-.15-.21-.36-.45-.63-.73-.27-.28-.55-.56-.84-.84-.29-.28-.55-.5-.77-.67.8-.34 1.57-.73 2.31-1.19.74-.46 1.33-.95 1.78-1.47zm-3.02-19.88h13.16v5.1h-13.16v-5.1zm.11 9.24h12.77v10.67h-12.77V162.2zm2.63-7.34v1.26h7.5v-1.26h-7.5zm.37 9.24v1.06h6.64v-1.06h-6.64zm0 2.86v1.09h6.64v-1.09h-6.64zm0 2.91v1.09h6.64v-1.09h-6.64zm1.93-18.48h3.05v8.99h-3.05v-8.99zm2.24 22.62l1.99-1.65c.63.37 1.27.78 1.92 1.22.64.44 1.25.87 1.83 1.29.58.42 1.06.8 1.46 1.13l-2.52 1.68c-.34-.34-.77-.72-1.3-1.15-.53-.43-1.09-.86-1.67-1.3-.58-.44-1.15-.84-1.71-1.22z" fill="#D93636"/><path d="M234.268 36.025a8.457 8.457 0 010-7.711c1.28-2.5.47-5.55-1.9-7.081a8.487 8.487 0 01-3.86-6.681 5.446 5.446 0 00-5.179-5.181 8.485 8.485 0 01-6.68-3.86 5.458 5.458 0 00-7.08-1.9 8.454 8.454 0 01-7.71 0 5.438 5.438 0 00-7.08 1.89 8.485 8.485 0 01-6.68 3.86 5.446 5.446 0 00-5.179 5.18 8.487 8.487 0 01-3.86 6.682 5.46 5.46 0 00-1.9 7.08 8.457 8.457 0 010 7.712 5.437 5.437 0 001.9 7.071 8.488 8.488 0 013.86 6.681 5.446 5.446 0 005.179 5.181c2.71.14 5.21 1.58 6.68 3.86a5.448 5.448 0 007.07 1.901 8.454 8.454 0 017.71 0c2.51 1.29 5.55.47 7.08-1.9a8.485 8.485 0 016.68-3.86 5.446 5.446 0 005.179-5.182 8.488 8.488 0 013.86-6.68 5.46 5.46 0 001.9-7.082l.01.02z" fill="#8290E2"/><path d="M236.938 29.674a8.428 8.428 0 00-2.94-10.962 5.478 5.478 0 01-2.49-4.31 8.44 8.44 0 00-8.029-8.031 5.476 5.476 0 01-4.31-2.49A8.435 8.435 0 00208.209.94c-1.56.8-3.42.8-4.98 0a8.423 8.423 0 00-10.959 2.94 5.476 5.476 0 01-4.31 2.49 8.44 8.44 0 00-8.03 8.032 5.478 5.478 0 01-2.49 4.31 8.438 8.438 0 00-2.94 10.962c.8 1.56.8 3.42 0 4.98a8.427 8.427 0 002.94 10.963c1.47.95 2.4 2.56 2.49 4.31a8.424 8.424 0 008.03 8.022c1.75.09 3.36 1.02 4.31 2.49a8.44 8.44 0 007.089 3.88c1.31 0 2.63-.3 3.87-.94 1.56-.8 3.42-.8 4.98 0 3.88 1.99 8.6.73 10.96-2.94.95-1.47 2.56-2.4 4.31-2.49a8.438 8.438 0 008.029-8.022 5.478 5.478 0 012.49-4.31 8.438 8.438 0 002.94-10.962c-.8-1.56-.8-3.42 0-4.98zm-4.56 13.422a8.49 8.49 0 00-3.859 6.681 5.446 5.446 0 01-5.18 5.181 8.485 8.485 0 00-6.68 3.86 5.448 5.448 0 01-7.08 1.901 8.454 8.454 0 00-7.71 0 5.433 5.433 0 01-7.07-1.9 8.482 8.482 0 00-6.679-3.86 5.446 5.446 0 01-5.18-5.182 8.488 8.488 0 00-3.86-6.68 5.45 5.45 0 01-1.9-7.072 8.457 8.457 0 000-7.711 5.45 5.45 0 011.9-7.081 8.487 8.487 0 003.86-6.681 5.446 5.446 0 015.18-5.181 8.482 8.482 0 006.679-3.86 5.438 5.438 0 017.08-1.89 8.454 8.454 0 007.71 0 5.45 5.45 0 017.08 1.9 8.485 8.485 0 006.68 3.86c2.81.14 5.04 2.37 5.18 5.18a8.489 8.489 0 003.859 6.682 5.46 5.46 0 011.9 7.08 8.457 8.457 0 000 7.712 5.45 5.45 0 01-1.9 7.081l-.01-.02z" fill="#58393E"/><mask id="mask0_1231_931" style="mask-type:luminance" maskUnits="userSpaceOnUse" x="176" y="3" width="59" height="59"><path d="M234.268 36.025a8.457 8.457 0 010-7.711c1.28-2.5.47-5.55-1.9-7.081a8.487 8.487 0 01-3.86-6.681 5.446 5.446 0 00-5.179-5.181 8.485 8.485 0 01-6.68-3.86 5.458 5.458 0 00-7.08-1.9 8.454 8.454 0 01-7.71 0 5.438 5.438 0 00-7.08 1.89 8.485 8.485 0 01-6.68 3.86 5.446 5.446 0 00-5.179 5.18 8.487 8.487 0 01-3.86 6.682 5.46 5.46 0 00-1.9 7.08 8.457 8.457 0 010 7.712 5.437 5.437 0 001.9 7.071 8.488 8.488 0 013.86 6.681 5.446 5.446 0 005.179 5.181c2.71.14 5.21 1.58 6.68 3.86a5.448 5.448 0 007.07 1.901 8.454 8.454 0 017.71 0c2.51 1.29 5.55.47 7.08-1.9a8.485 8.485 0 016.68-3.86 5.446 5.446 0 005.179-5.182 8.488 8.488 0 013.86-6.68 5.46 5.46 0 001.9-7.082l.01.02z" fill="#fff"/></mask><g mask="url(#mask0_1231_931)"><path d="M219.519 86.723c20.401 0 36.939-16.541 36.939-36.946 0-20.404-16.538-36.946-36.939-36.946S182.58 29.373 182.58 49.777c0 20.405 16.538 36.946 36.939 36.946z" fill="#5975CE" opacity=".5"/></g><path d="M218.189 29.464h-6.4c-2.12 0-3.84 1.72-3.84 3.84v8.962c0 2.12 1.72 3.84 3.84 3.84h6.4c2.12 0 3.84-1.72 3.84-3.84v-8.961c0-2.12-1.72-3.841-3.84-3.841zm-1.28 12.142h-3.84c-.71 0-1.28-.57-1.28-1.28 0-.71.57-1.28 1.28-1.28h3.84c.71 0 1.28.57 1.28 1.28 0 .71-.57 1.28-1.28 1.28zm0-5.12h-3.84c-.71 0-1.28-.571-1.28-1.281s.57-1.28 1.28-1.28h3.84c.71 0 1.28.57 1.28 1.28 0 .71-.57 1.28-1.28 1.28zm-22.71-13.423c0-4.24 3.45-7.681 7.68-7.681 4.23 0 7.68 3.45 7.68 7.681 0 4.23-3.45 7.681-7.68 7.681-4.23 0-7.68-3.45-7.68-7.681zm11.56 23.054h-14.12c-.71 0-1.28-.59-1.28-1.3.01-6.342 5.18-11.502 11.52-11.502.88 0 1.74.11 2.56.3v8.661c0 1.45.5 2.77 1.31 3.84h.01z" fill="#fff"/></svg>