<svg width="238" height="299" viewBox="0 0 238 299" fill="none" xmlns="http://www.w3.org/2000/svg"><path d="M216.91 34.34c0-7.01-5.67-12.7-12.68-12.7h-15.05c-.83 5.73-5.77 10.14-11.74 10.13-5.97 0-10.9-4.42-11.72-10.16h-15.47c-.83 5.73-5.77 10.14-11.73 10.13-5.97 0-10.9-4.42-11.72-10.16h-15.47c-.83 5.73-5.77 10.14-11.73 10.13-5.97 0-10.9-4.42-11.72-10.16H72.41c-.83 5.73-5.77 10.14-11.73 10.13-5.97 0-10.9-4.42-11.72-10.16H33.91c-7.01-.02-12.7 5.66-12.7 12.67l-.26 233.82c0 7.01 5.67 12.7 12.68 12.7h15.05c-.08-.54-.12-1.11-.12-1.68 0-6.54 5.31-11.84 11.86-11.84 6.54 0 11.84 5.31 11.84 11.86 0 .57-.04 1.14-.12 1.69h15.47c-.08-.54-.12-1.11-.12-1.68 0-6.54 5.31-11.84 11.86-11.84 6.54 0 11.84 5.31 11.84 11.86 0 .57-.04 1.14-.12 1.69h15.47c-.08-.54-.12-1.11-.12-1.68 0-6.54 5.31-11.84 11.86-11.84 6.54 0 11.84 5.31 11.84 11.86 0 .57-.04 1.14-.12 1.69h15.47c-.08-.54-.12-1.1-.12-1.68 0-6.54 5.31-11.84 11.86-11.84 6.54 0 11.84 5.31 11.84 11.86 0 .57-.04 1.14-.12 1.69h15.05c7.01.02 12.7-5.66 12.7-12.67l.26-233.82h-.03z" fill="#F9BA55"/><path d="M203.96 282.34h-16.8l.25-1.72c.07-.49.11-.99.11-1.48 0-5.7-4.63-10.35-10.34-10.35-2.76 0-5.36 1.07-7.31 3.02a10.29 10.29 0 00-3.04 7.31c0 .5.03 1 .1 1.47l.25 1.72-18.94-.02.25-1.71c.07-.49.11-.99.11-1.48 0-5.71-4.63-10.35-10.34-10.36-2.76 0-5.35 1.07-7.31 3.02a10.29 10.29 0 00-3.04 7.31c0 .49.03.99.1 1.48l.24 1.71h-18.93l.25-1.73c.07-.48.1-.98.11-1.48 0-5.7-4.63-10.35-10.34-10.35-2.76 0-5.35 1.07-7.31 3.02a10.29 10.29 0 00-3.04 7.31c0 .49.03.99.1 1.48l.24 1.71-18.94-.02.25-1.72a10.312 10.312 0 00-2.91-8.8 10.29 10.29 0 00-7.31-3.04c-5.7 0-10.34 4.64-10.35 10.34 0 .49.03.99.1 1.48l.24 1.71H33.63c-7.83-.02-14.19-6.39-14.18-14.21l.26-233.82c0-3.79 1.48-7.35 4.16-10.03 2.68-2.68 6.24-4.15 10.03-4.15h16.36l.18 1.3c.72 5.06 5.12 8.87 10.24 8.88 5.11 0 9.51-3.81 10.24-8.86l.19-1.29h18.07l.18 1.3c.72 5.06 5.12 8.87 10.23 8.87s9.51-3.81 10.24-8.86l.19-1.29h18.07l.18 1.3c.72 5.06 5.12 8.87 10.23 8.87s9.51-3.81 10.24-8.86l.19-1.29H167l.18 1.3c.72 5.06 5.12 8.87 10.23 8.88 5.11 0 9.51-3.81 10.24-8.86l.19-1.29h16.35c7.83.02 14.19 6.39 14.18 14.21l-.26 233.82c0 3.79-1.48 7.35-4.17 10.03a14.077 14.077 0 01-10.02 4.15l.04.07zm-13.45-3.01h13.44c2.99 0 5.79-1.16 7.91-3.27 2.12-2.11 3.28-4.92 3.28-7.91l.26-233.82c0-6.17-5.01-11.2-11.18-11.2H190.4c-1.45 5.86-6.81 10.13-12.96 10.13h-.01c-6.16 0-11.51-4.29-12.95-10.16h-13c-1.45 5.86-6.81 10.13-12.96 10.13h-.01c-6.16 0-11.51-4.29-12.95-10.16h-13c-1.45 5.86-6.81 10.13-12.96 10.13h-.01c-6.16 0-11.51-4.29-12.95-10.16h-13c-1.45 5.86-6.81 10.13-12.96 10.13h-.01c-6.16 0-11.51-4.29-12.95-10.17H33.9c-2.99 0-5.79 1.16-7.91 3.27a11.079 11.079 0 00-3.28 7.91L22.45 268c0 6.17 5.01 11.2 11.18 11.2h13.43v-.18c0-7.36 6-13.34 13.35-13.34 3.56 0 6.92 1.39 9.43 3.92 2.52 2.52 3.9 5.88 3.9 9.44v.19h12.23v-.18c0-7.36 5.99-13.34 13.35-13.34h.01c7.36 0 13.34 6 13.33 13.36v.19h12.23v-.18c0-3.56 1.39-6.92 3.92-9.43 2.52-2.52 5.87-3.9 9.43-3.9h.01c7.36 0 13.34 6 13.34 13.36v.19h12.23v-.18c0-7.36 5.99-13.34 13.35-13.34h.01c7.36 0 13.34 6 13.34 13.36v.19h-.01z" fill="#58393E"/><path d="M191 43.85H46.85c-7.003 0-12.68 5.677-12.68 12.68V245.8c0 7.003 5.677 12.68 12.68 12.68H191c7.003 0 12.68-5.677 12.68-12.68V56.53c0-7.003-5.677-12.68-12.68-12.68z" fill="#FEF7E0"/><path d="M98.84 120.82c0-5.93 2.15-10.83 6.02-17.54l12.3-21.59h14.02l-10.66 18.92c.43-.09.95-.09 1.46-.09 11.44 0 20.38 7.31 20.38 19.09 0 11.78-8.94 21.16-21.76 21.16-12.82 0-21.76-9.03-21.76-19.95zm31.3-.69c0-5.16-4.04-9.55-9.63-9.55-5.93 0-9.72 4.99-9.72 9.72 0 5.5 4.13 9.63 9.72 9.63 5.59 0 9.63-4.39 9.63-9.8zm25.449 21.8c6.683 0 12.1-5.417 12.1-12.1s-5.417-12.1-12.1-12.1c-6.682 0-12.1 5.417-12.1 12.1s5.418 12.1 12.1 12.1z" fill="#D93636"/><path d="M155.589 142.93c-7.22 0-13.1-5.87-13.1-13.1 0-7.23 5.87-13.1 13.1-13.1 7.23 0 13.1 5.87 13.1 13.1 0 7.23-5.87 13.1-13.1 13.1zm0-24.19c-6.12 0-11.1 4.98-11.1 11.1 0 6.12 4.98 11.1 11.1 11.1 6.12 0 11.1-4.98 11.1-11.1 0-6.12-4.98-11.1-11.1-11.1z" fill="#FEF7E0"/><path d="M148.899 127.69c0-2.14 1.14-3.39 2.7-3.39 1.56 0 2.73 1.25 2.73 3.39s-1.15 3.43-2.73 3.43-2.7-1.28-2.7-3.43zm3.65 0c0-1.5-.44-1.97-.94-1.97-.5 0-.94.47-.94 1.97s.44 2.02.94 2.02c.5 0 .94-.52.94-2.02zm-.28 7.18l5.39-10.37c.06-.12.2-.2.33-.2h.62c.38 0 .5.23.33.56l-5.4 10.37c-.06.12-.2.2-.33.2h-.61c-.38 0-.5-.23-.33-.56zm4.62-2.87c0-2.14 1.15-3.4 2.72-3.4 1.57 0 2.7 1.26 2.7 3.4 0 2.14-1.15 3.43-2.7 3.43-1.55 0-2.72-1.28-2.72-3.43zm3.63 0c0-1.52-.41-1.97-.91-1.97s-.96.46-.96 1.97.44 2 .96 2 .91-.5.91-2z" fill="#FEF7E0"/><path d="M64.65 136.26c.53-.04 1.14-.09 1.83-.14.69-.05 1.42-.11 2.18-.18.77-.07 1.54-.13 2.3-.18l.03 1.47c-1.1.12-2.19.23-3.27.34-1.08.11-2.05.21-2.9.3l-.18-1.62.01.01zm.17-6.54h14.35v1.52H64.82v-1.52zm1.25.53h1.76v6.51h-1.76v-6.51zm.33-6.1h11.25v5.18H75.7v-3.82h-7.44v3.82H66.4v-5.18zm.87 7.71h3.65v1.33h-3.65v-1.33zm0 2h3.65v1.33h-3.65v-1.33zm1.52-7.74h6.4v1.14h-6.4v-1.14zm0 1.76h6.35v1.18h-6.35v-1.18zm1.13 2.33h1.84v8.5h-1.84v-8.5zm7.01 1.62h.35l.32-.05 1.17.45c-.32 1.12-.78 2.1-1.38 2.93-.6.83-1.3 1.54-2.1 2.11-.8.58-1.69 1.04-2.66 1.39-.11-.22-.26-.49-.46-.78a4.6 4.6 0 00-.56-.7c.83-.26 1.61-.62 2.33-1.1.72-.47 1.34-1.05 1.86-1.72.52-.67.89-1.42 1.13-2.24v-.29zm-4.83 0h5.26v1.47H72.1v-1.47zm2.02 1.33c.45.98 1.13 1.82 2.06 2.53.92.7 2.02 1.21 3.3 1.5-.13.12-.26.26-.41.44-.14.18-.28.36-.41.55-.13.19-.23.36-.32.51-1.38-.42-2.54-1.06-3.5-1.92-.96-.86-1.71-1.92-2.26-3.18l1.54-.43zm6.76-7.99h14.19v1.62H80.88v-1.62zm.44 6.31h12.83v1.57H83.19v5.65h-1.87v-7.22zm1.69-4.08h10.16v3.44H83.01v-3.44zm1.39 6.24h1.78v4.24H84.4v-4.24zm.53-4.96v.88h6.22v-.88h-6.22zm.51 4.96h5.95v3.58h-5.95v-1.33h4.27v-.93h-4.27v-1.33.01zm1.24-9.6l1.98-.48c.14.34.29.72.46 1.13.17.41.29.75.36 1.03l-2.1.56c-.06-.28-.17-.63-.3-1.06-.13-.43-.27-.82-.4-1.18zm6.09 7.44h1.94v5.47c0 .42-.06.73-.18.93-.12.2-.33.37-.64.5-.29.1-.65.16-1.07.18-.43.02-.93.03-1.5.03-.04-.22-.12-.46-.23-.72-.11-.26-.22-.48-.33-.67.21 0 .44 0 .68.02.24.01.46.01.65 0h.37c.21 0 .32-.09.32-.27v-5.46l-.01-.01zm-24 19.96l3.11.92c-.52 1.62-1.14 3.27-1.86 4.93-.72 1.66-1.5 3.23-2.35 4.72-.85 1.48-1.75 2.79-2.7 3.91-.07-.26-.21-.63-.39-1.09-.19-.47-.39-.93-.62-1.4-.22-.47-.43-.85-.62-1.15.75-.88 1.46-1.89 2.14-3.05.68-1.16 1.3-2.4 1.86-3.74a35.45 35.45 0 001.43-4.05zm-2.01 7.7l3.08-3.11.11.06v21.59h-3.19v-18.54zm18.06 10.76h.62l.53-.11 2.02 1.12c-1.19 1.85-3.14 3.33-5.84 4.45-2.7 1.12-6.01 1.93-9.93 2.44-.17-.35-.4-.76-.7-1.22-.3-.46-.6-.85-.9-1.19 3.71-.35 6.8-.97 9.25-1.83 2.45-.87 4.1-1.92 4.94-3.15v-.5l.01-.01zm-7-1.63l2.86.56c-.91 1.14-2.01 2.19-3.28 3.15s-2.76 1.84-4.48 2.65c-.19-.32-.46-.67-.83-1.05-.36-.38-.7-.68-.99-.88 1.59-.6 2.94-1.29 4.06-2.07 1.12-.78 2.01-1.57 2.66-2.35v-.01zm-6.61-5.37h18.87v3.98h-3.02v-2.1H74.07v2.1h-2.86v-3.98zm.84-10.36h17.44v2.38H72.05v-2.38zm2.8 17.1c.88 1.12 2.06 2.06 3.54 2.83s3.21 1.37 5.19 1.82c1.98.45 4.12.76 6.44.92-.28.32-.57.72-.88 1.2-.31.48-.56.9-.74 1.26-2.41-.24-4.62-.66-6.65-1.25-2.03-.59-3.83-1.37-5.4-2.34-1.57-.97-2.9-2.17-3.96-3.61l2.46-.84v.01zm.36-4.39l1.93 1.04c-.34.54-.74 1.1-1.2 1.67-.47.57-.99 1.06-1.57 1.47l-1.88-1.46c.52-.32 1.03-.73 1.53-1.23.49-.5.89-1 1.19-1.48v-.01zm-1.45-9.33h13.92v7.76h-3.11v-6.13h-7.78v6.13h-3.02v-7.76h-.01zm3.52 13.98h8.32v2.02H75.3l1.99-2.02h-.01zm-1.82-11.51h10.56v1.34H75.46v-1.34zm0 2.24h10.56V162H75.46v-1.37zm1.07 4.73h2.63v1.26c0 .28.06.46.18.53.12.08.37.11.74.11h2.46c.28 0 .47-.06.57-.17.1-.11.17-.37.21-.78.24.13.57.26.99.39.42.13.79.22 1.11.28-.09.8-.33 1.35-.7 1.64-.37.29-.98.43-1.82.43h-3.22c-.84 0-1.49-.07-1.96-.21-.47-.14-.78-.39-.95-.74-.17-.35-.25-.85-.25-1.48v-1.26h.01zm2.29-11.73l3.64.42c-.24.6-.48 1.16-.71 1.68-.23.52-.43.98-.6 1.37l-2.91-.5c.13-.47.25-.97.36-1.51.11-.54.19-1.03.22-1.46zm.37 11.59l1.82-.98c.37.28.77.6 1.19.97.42.36.76.69 1.02.97l-1.9 1.06c-.22-.28-.54-.62-.95-1.01-.41-.39-.8-.73-1.18-1.01zm4.87.98l1.74-1.04c.5.47 1.04 1 1.61 1.61.57.61 1 1.13 1.3 1.58l-1.82 1.15c-.28-.45-.7-.99-1.25-1.62-.55-.63-1.08-1.19-1.58-1.68zm10.44 4l2.88 1.2c-.21.62-.44 1.25-.7 1.9-.26.65-.55 1.29-.85 1.92-.3.63-.66 1.18-1.05 1.67l-2.88-1.65c.35-.43.7-.92 1.02-1.48.33-.56.62-1.15.9-1.76.27-.62.5-1.21.69-1.79l-.01-.01zm-1.76-17.47h24.189v2.63h-24.19v-2.63zm.11 13.78c1.31 0 2.78 0 4.42.01h5.259c1.87 0 3.77-.01 5.73-.01 1.96 0 3.89-.02 5.81-.06l-.17 2.55c-2.5.06-5.03.11-7.57.17-2.55.06-4.97.09-7.25.11-2.29.02-4.32.04-6.09.06l-.14-2.83zm1.54-9.91h20.609v8.34h-20.61v-8.34zm3.17 1.96v1.26h14.139v-1.26h-14.14zm0 3.13v1.26h14.139v-1.26h-14.14zm.5 8.79h3.329v3.16c0 .39.12.64.35.74.23.1.75.15 1.55.15h4.87c.43 0 .75-.06.97-.17.21-.11.37-.35.48-.7.11-.35.17-.89.21-1.6.35.24.82.46 1.39.66s1.08.34 1.53.43c-.13 1.08-.34 1.92-.63 2.52-.29.6-.72 1.01-1.29 1.23-.57.22-1.35.34-2.34.34h-5.52c-1.31 0-2.31-.11-3.02-.32-.71-.21-1.2-.58-1.47-1.11-.27-.53-.41-1.23-.41-2.13v-3.22.02zm4.229-.11l2.18-1.76c.52.28 1.05.61 1.6.99.54.38 1.05.77 1.54 1.16.49.39.88.77 1.18 1.12l-2.32 1.96c-.26-.35-.63-.74-1.09-1.15-.47-.41-.97-.82-1.5-1.23-.53-.41-1.06-.77-1.58-1.09h-.01zm.64-18.95h3.47v16.16h-3.47v-16.16zm5.69 14.39l2.3-1.54c.77.35 1.54.77 2.32 1.26.78.49 1.52.98 2.21 1.48s1.26.99 1.71 1.46l-2.35 1.76c-.45-.49-1.01-1-1.68-1.54-.67-.54-1.4-1.07-2.2-1.58-.79-.51-1.56-.95-2.31-1.3zm3.13 5.49l2.88-.92c.45.56.87 1.16 1.27 1.81.4.64.75 1.29 1.05 1.93.3.64.5 1.24.62 1.78l-3.08.98c-.11-.5-.31-1.07-.59-1.71-.28-.63-.61-1.29-.98-1.97-.37-.68-.77-1.31-1.18-1.89l.01-.01zm13.721-10.11l2.27 1.01a40.15 40.15 0 01-1.25 3.23c-.48 1.11-.99 2.2-1.55 3.28-.56 1.07-1.15 2.08-1.78 3.02-.63.94-1.27 1.76-1.95 2.45-.11-.34-.27-.7-.48-1.09-.21-.39-.42-.78-.63-1.18-.21-.39-.42-.74-.6-1.04.6-.58 1.19-1.25 1.78-2.02.59-.76 1.15-1.58 1.68-2.45.53-.87 1.01-1.75 1.44-2.65.43-.9.78-1.75 1.06-2.58l.01.02zm5.66-9.69l2.38 2.58c-1.18.47-2.48.89-3.92 1.26s-2.91.7-4.41.98-2.96.52-4.38.73c-.06-.39-.19-.84-.39-1.36-.21-.51-.4-.94-.59-1.27 1.01-.17 2.03-.35 3.08-.56 1.04-.21 2.07-.43 3.07-.67 1-.24 1.94-.5 2.81-.78.87-.28 1.66-.58 2.35-.9v-.01zm-10.98 8.23h13.41v3.11h-13.41v-3.11zm5.35-5.57h3.28v23.49h-3.28v-23.49zm2.8 9.86c.26.19.64.48 1.15.88.5.4 1.05.84 1.62 1.3.58.47 1.11.9 1.58 1.3s.82.69 1.02.85l-1.93 2.91c-.3-.39-.67-.83-1.12-1.33-.45-.49-.92-1-1.41-1.53-.49-.52-.98-1.01-1.44-1.47-.47-.46-.88-.84-1.23-1.16l1.76-1.76v.01zm6.64-9.22h3.25v15.74h-3.25V154.8zm6.63-2.88h3.33v21.67c0 .99-.12 1.74-.35 2.25-.23.51-.64.91-1.22 1.19-.58.26-1.33.43-2.27.52-.93.08-2.04.13-3.33.13-.04-.32-.12-.69-.25-1.11-.13-.42-.28-.84-.43-1.26-.15-.42-.32-.79-.49-1.11.91.04 1.78.06 2.6.07.82 0 1.37.01 1.65.01.26-.02.45-.08.57-.18.12-.1.18-.28.18-.55v-21.64l.01.01zm6.47 13.36c.9-.34 1.96-.76 3.21-1.26 1.24-.5 2.51-1.03 3.79-1.57l.64 2.44c-1.01.54-2.04 1.08-3.09 1.61-1.05.53-2.03 1.02-2.93 1.47l-1.62-2.69zm.09 4.14h25.62v3.11h-25.62v-3.11zm.69-10.33l2.24-1.79c.49.26 1 .57 1.54.92.54.35 1.06.71 1.55 1.06.49.36.9.69 1.22 1.01l-2.38 1.99c-.28-.32-.65-.66-1.12-1.04-.47-.37-.97-.75-1.5-1.13-.53-.38-1.05-.72-1.55-1.02zm.03-5.46h24.5v3.05h-24.5v-3.05zm7.2 14.22c-.06-.19-.14-.44-.24-.77-.1-.33-.21-.67-.32-1.02a7.88 7.88 0 00-.34-.92c.35-.06.72-.21 1.09-.45.37-.24.81-.56 1.32-.95a36 36 0 001.15-.98c.5-.45 1.07-.99 1.71-1.62.63-.63 1.28-1.32 1.93-2.06.65-.74 1.26-1.49 1.82-2.25l2.52 1.51a47.3 47.3 0 01-4.3 4.45c-1.56 1.42-3.1 2.64-4.63 3.67v.08c-.35.19-.64.35-.87.48-.22.13-.42.27-.59.42-.17.15-.25.29-.25.42v-.01zm.53-5.63c-.06-.19-.14-.44-.24-.77-.1-.33-.21-.66-.34-.99-.12-.34-.24-.63-.35-.87.22-.04.44-.14.66-.32.21-.18.43-.39.66-.63.15-.17.38-.46.7-.88.32-.42.66-.92 1.04-1.5.37-.58.7-1.18.98-1.79l2.74 1.12c-.56.95-1.23 1.89-2 2.83-.77.93-1.53 1.73-2.25 2.38v.06c-.32.19-.58.35-.78.49-.21.14-.39.29-.56.45-.17.16-.25.3-.25.43l-.01-.01zm-.53 5.63l-.08-2.18 1.43-.9 8.4-.62c-.07.37-.14.8-.18 1.27-.05.48-.07.87-.07 1.19-1.9.17-3.44.31-4.59.43s-2.06.22-2.72.31c-.65.08-1.13.16-1.44.24-.31.08-.56.16-.74.25l-.01.01zm.53-5.63l-.03-2.16 1.4-.84 5.18-.17c-.11.37-.21.81-.31 1.32-.09.5-.16.91-.2 1.23-1.14.06-2.07.11-2.8.17-.73.06-1.3.11-1.72.15-.42.04-.75.1-.98.15-.23.06-.42.1-.55.14l.01.01zm1.79-10.19l3.42-.78c.34.45.68.95 1.02 1.5.35.55.61 1.03.8 1.44l-3.53 1.01c-.15-.43-.39-.94-.73-1.54-.34-.6-.66-1.14-.98-1.62v-.01zm.76 15.51h3.58v10.11h-3.58v-10.11zm3.16-4.62l2.44-.87c.39.5.78 1.06 1.18 1.67.4.61.75 1.2 1.08 1.78.33.58.56 1.11.71 1.6l-2.6.98c-.15-.47-.37-1-.66-1.6-.29-.6-.62-1.21-.99-1.83-.37-.62-.76-1.2-1.15-1.72l-.01-.01zm3.36 1.32l2.3-1.82c.6.32 1.25.69 1.96 1.12.71.43 1.39.86 2.03 1.3.64.44 1.18.83 1.61 1.19l-2.46 1.99c-.37-.35-.87-.76-1.48-1.2a47.484 47.484 0 00-3.94-2.58h-.02zm4.15-7.06l2.8 1.62c-.63.63-1.3 1.26-2 1.86-.7.61-1.35 1.12-1.95 1.55l-2.46-1.51a30.335 30.335 0 002.54-2.33c.42-.43.78-.83 1.08-1.2l-.01.01z" fill="#D93636"/><path d="M233.708 36.025a8.457 8.457 0 010-7.711c1.28-2.5.47-5.55-1.9-7.081a8.487 8.487 0 01-3.86-6.681 5.446 5.446 0 00-5.18-5.181 8.485 8.485 0 01-6.68-3.86 5.458 5.458 0 00-7.08-1.9 8.452 8.452 0 01-7.709 0 5.438 5.438 0 00-7.08 1.89 8.485 8.485 0 01-6.68 3.86 5.446 5.446 0 00-5.18 5.18 8.487 8.487 0 01-3.86 6.682 5.46 5.46 0 00-1.9 7.08 8.457 8.457 0 010 7.712 5.437 5.437 0 001.9 7.071 8.488 8.488 0 013.86 6.681 5.446 5.446 0 005.18 5.181c2.71.14 5.21 1.58 6.68 3.86a5.448 5.448 0 007.07 1.901 8.452 8.452 0 017.709 0c2.51 1.29 5.55.47 7.08-1.9a8.485 8.485 0 016.68-3.86 5.446 5.446 0 005.18-5.182 8.488 8.488 0 013.86-6.68 5.46 5.46 0 001.9-7.082l.01.02z" fill="#8290E2"/><path d="M236.378 29.674a8.428 8.428 0 00-2.94-10.962 5.478 5.478 0 01-2.49-4.31 8.44 8.44 0 00-8.03-8.031 5.476 5.476 0 01-4.31-2.49A8.434 8.434 0 00207.649.94c-1.56.8-3.42.8-4.98 0a8.425 8.425 0 00-10.96 2.94 5.476 5.476 0 01-4.31 2.49 8.44 8.44 0 00-8.03 8.032 5.478 5.478 0 01-2.49 4.31 8.439 8.439 0 00-2.939 10.962 5.475 5.475 0 010 4.98 8.428 8.428 0 002.939 10.963c1.47.95 2.4 2.56 2.49 4.31a8.424 8.424 0 008.03 8.022c1.75.09 3.36 1.02 4.31 2.49a8.442 8.442 0 007.09 3.88c1.31 0 2.63-.3 3.87-.94 1.56-.8 3.42-.8 4.98 0a8.421 8.421 0 0010.959-2.94c.95-1.47 2.56-2.4 4.31-2.49a8.439 8.439 0 008.03-8.022 5.478 5.478 0 012.49-4.31 8.438 8.438 0 002.94-10.962c-.8-1.56-.8-3.42 0-4.98zm-4.57 13.422a8.488 8.488 0 00-3.86 6.681 5.446 5.446 0 01-5.18 5.181 8.485 8.485 0 00-6.68 3.86 5.447 5.447 0 01-7.079 1.901 8.454 8.454 0 00-7.71 0 5.433 5.433 0 01-7.07-1.9 8.485 8.485 0 00-6.68-3.86 5.446 5.446 0 01-5.18-5.182 8.488 8.488 0 00-3.86-6.68 5.45 5.45 0 01-1.9-7.072 8.457 8.457 0 000-7.711 5.45 5.45 0 011.9-7.081 8.487 8.487 0 003.86-6.681 5.446 5.446 0 015.18-5.181 8.485 8.485 0 006.68-3.86 5.438 5.438 0 017.08-1.89 8.454 8.454 0 007.71 0 5.45 5.45 0 017.079 1.9 8.485 8.485 0 006.68 3.86c2.81.14 5.04 2.37 5.18 5.18a8.487 8.487 0 003.86 6.682 5.46 5.46 0 011.9 7.08 8.457 8.457 0 000 7.712 5.45 5.45 0 01-1.9 7.081l-.01-.02z" fill="#58393E"/><mask id="mask0_1231_1036" style="mask-type:luminance" maskUnits="userSpaceOnUse" x="175" y="3" width="60" height="59"><path d="M233.708 36.025a8.457 8.457 0 010-7.711c1.28-2.5.47-5.55-1.9-7.081a8.487 8.487 0 01-3.86-6.681 5.446 5.446 0 00-5.18-5.181 8.485 8.485 0 01-6.68-3.86 5.458 5.458 0 00-7.08-1.9 8.452 8.452 0 01-7.709 0 5.438 5.438 0 00-7.08 1.89 8.485 8.485 0 01-6.68 3.86 5.446 5.446 0 00-5.18 5.18 8.487 8.487 0 01-3.86 6.682 5.46 5.46 0 00-1.9 7.08 8.457 8.457 0 010 7.712 5.437 5.437 0 001.9 7.071 8.488 8.488 0 013.86 6.681 5.446 5.446 0 005.18 5.181c2.71.14 5.21 1.58 6.68 3.86a5.448 5.448 0 007.07 1.901 8.452 8.452 0 017.709 0c2.51 1.29 5.55.47 7.08-1.9a8.485 8.485 0 016.68-3.86 5.446 5.446 0 005.18-5.182 8.488 8.488 0 013.86-6.68 5.46 5.46 0 001.9-7.082l.01.02z" fill="#fff"/></mask><g mask="url(#mask0_1231_1036)"><path d="M218.959 86.723c20.4 0 36.939-16.541 36.939-36.946 0-20.404-16.539-36.946-36.939-36.946-20.401 0-36.939 16.542-36.939 36.946 0 20.405 16.538 36.946 36.939 36.946z" fill="#5975CE" opacity=".5"/></g><path d="M201.649 23.994c0-.43.02-.85.07-1.26-1.3.17-2.23-.37-3.14-.9-.08-.05-.16-.09-.24-.14-1.12-.64-2.4-1.111-3.51-1.291-.41-.07-.84.09-1.1.41-.27.32-.35.77-.21 1.16.41 1.17.56 2.36.44 3.47a7.18 7.18 0 00-3.73 5.392h-.88c-.89 0-1.62.73-1.62 1.62v3.53c0 .89.73 1.62 1.63 1.62h.87c.62 1.96 1.82 3.761 3.46 5.231l.23.21c1.38 1.25 1.54 2.7 1.55 3.131v.78c0 1.45 1.18 2.63 2.63 2.63h1.42c1.45 0 2.63-1.18 2.63-2.63v-.53a15.666 15.666 0 003.42-.05v.58c0 1.45 1.18 2.63 2.63 2.63h1.41c1.44 0 2.61-1.16 2.63-2.6.04-.76.28-2.64 1.74-4.14.89-.91 1.67-2.09 2.32-3.511.02-.03.03-.06.04-.09.38-.75.67-1.53.87-2.32l.03-.13v-.04l.01-.01c.14-.61.23-1.23.26-1.83-1.29.49-2.69.76-4.15.76-6.45 0-11.67-5.242-11.67-11.703l-.04.02zm-3.12 8.39c-.57 0-1.04-.46-1.04-1.04 0-.48-.39-.88-.88-.88s-.88.39-.88.88c0 .57-.46 1.04-1.04 1.04-.58 0-1.04-.46-1.04-1.04a2.95 2.95 0 115.9 0c0 .57-.46 1.04-1.04 1.04h.02z" fill="#fff"/><path d="M213.489 14.732c-5.03 0-9.11 4.08-9.11 9.111 0 5.031 4.08 9.112 9.11 9.112 5.03 0 9.109-4.08 9.109-9.112 0-5.03-4.079-9.101-9.109-9.111zm-.51 8.041h1.05a2.659 2.659 0 01.55 5.261v.02c0 .6-.47 1.09-1.06 1.1-.6 0-1.09-.47-1.1-1.06h-1.01c-.6 0-1.08-.48-1.08-1.08 0-.6.48-1.08 1.08-1.08h2.62c.27 0 .5-.22.5-.5s-.22-.5-.5-.5h-1.05c-1.47 0-2.65-1.19-2.66-2.65 0-1.251.87-2.331 2.09-2.601v-.03c0-.6.47-1.09 1.06-1.1.6 0 1.09.47 1.1 1.06h1.03c.6 0 1.08.48 1.08 1.08 0 .6-.48 1.08-1.08 1.08h-2.62a.5.5 0 00-.5.49c0 .27.21.49.48.5h.02v.01z" fill="#fff"/></svg>