<svg width="238" height="299" viewBox="0 0 238 299" fill="none" xmlns="http://www.w3.org/2000/svg"><path d="M217.47 34.388c0-7.01-5.67-12.7-12.68-12.7h-15.05c-.83 5.73-5.77 10.14-11.74 10.13-5.97 0-10.9-4.42-11.72-10.16h-15.47c-.83 5.73-5.77 10.14-11.73 10.13-5.97 0-10.9-4.42-11.72-10.16h-15.47c-.83 5.73-5.77 10.14-11.73 10.13-5.97 0-10.9-4.42-11.72-10.16H72.97c-.83 5.73-5.77 10.14-11.73 10.13-5.97 0-10.9-4.42-11.72-10.16H34.47c-7.01-.02-12.7 5.66-12.7 12.67l-.26 233.82c0 7.01 5.67 12.7 12.68 12.7h15.05c-.08-.54-.12-1.11-.12-1.68 0-6.54 5.31-11.84 11.86-11.84 6.54 0 11.84 5.31 11.84 11.86 0 .57-.04 1.14-.12 1.69h15.47c-.08-.54-.12-1.11-.12-1.68 0-6.54 5.31-11.84 11.86-11.84 6.54 0 11.84 5.31 11.84 11.86 0 .57-.04 1.14-.12 1.69h15.47c-.08-.54-.12-1.11-.12-1.68 0-6.54 5.31-11.84 11.86-11.84 6.54 0 11.84 5.31 11.84 11.86 0 .57-.04 1.14-.12 1.69h15.47c-.08-.54-.12-1.1-.12-1.68 0-6.54 5.31-11.84 11.86-11.84 6.54 0 11.84 5.31 11.84 11.86 0 .57-.04 1.14-.12 1.69h15.05c7.01.02 12.7-5.66 12.7-12.67l.26-233.82h-.03z" fill="#F9BA55"/><path d="M204.52 282.388h-16.8l.25-1.72c.07-.49.11-.99.11-1.48 0-5.7-4.63-10.35-10.34-10.35-2.76 0-5.36 1.07-7.31 3.02a10.29 10.29 0 00-3.04 7.31c0 .5.03 1 .1 1.47l.25 1.72-18.94-.02.25-1.71a10.312 10.312 0 00-2.91-8.8 10.29 10.29 0 00-7.31-3.04h-.01c-2.76 0-5.35 1.07-7.31 3.02a10.29 10.29 0 00-3.04 7.31c0 .49.03.99.1 1.48l.24 1.71-18.93-.02.25-1.71c.07-.48.1-.98.11-1.48 0-5.7-4.63-10.35-10.34-10.35-2.76 0-5.35 1.07-7.31 3.02a10.29 10.29 0 00-3.04 7.31c0 .49.03.99.1 1.48l.24 1.71-18.94-.02.25-1.72c.07-.48.11-.98.11-1.48 0-5.7-4.63-10.35-10.34-10.35-5.7 0-10.34 4.64-10.35 10.34 0 .49.03.99.1 1.48l.24 1.71H34.18c-7.82-.02-14.19-6.39-14.18-14.21l.26-233.82c0-3.79 1.48-7.35 4.16-10.03 2.68-2.65 6.29-4.1 10.04-4.12h16.35l.18 1.3c.72 5.06 5.12 8.87 10.24 8.88 5.11 0 9.51-3.81 10.24-8.86l.19-1.29h18.07l.18 1.3c.72 5.06 5.12 8.87 10.23 8.87s9.51-3.81 10.24-8.86l.19-1.29h18.07l.18 1.3c.72 5.06 5.12 8.87 10.23 8.87s9.51-3.81 10.24-8.86l.19-1.29h18.07l.18 1.3c.72 5.06 5.12 8.87 10.23 8.88 5.11 0 9.51-3.81 10.24-8.86l.19-1.29h16.35c7.83.02 14.19 6.39 14.18 14.21l-.26 233.82c0 3.79-1.48 7.35-4.17 10.03a14.119 14.119 0 01-10.02 4.15l.05.03zm-13.45-3.01h13.44c2.99 0 5.79-1.16 7.91-3.27 2.12-2.11 3.28-4.92 3.28-7.91l.26-233.82c0-6.17-5.01-11.2-11.19-11.2h-13.82c-1.45 5.86-6.81 10.13-12.96 10.13h-.01c-6.16 0-11.51-4.29-12.95-10.16h-13c-1.45 5.86-6.81 10.13-12.96 10.13h-.01c-6.16 0-11.51-4.29-12.95-10.16h-13c-1.45 5.86-6.81 10.13-12.96 10.13h-.01c-6.16 0-11.51-4.29-12.95-10.16h-13c-1.45 5.86-6.81 10.13-12.96 10.13h-.01c-6.16 0-11.51-4.29-12.95-10.16H34.45c-2.99 0-5.79 1.16-7.91 3.27a11.079 11.079 0 00-3.28 7.91L23 268.058c0 6.17 5.01 11.2 11.18 11.2h13.43v-.18c0-7.36 6-13.34 13.35-13.34 7.36 0 13.34 6 13.34 13.36v.19h12.23v-.18c0-7.36 5.99-13.34 13.35-13.34h.01c7.36 0 13.34 6 13.33 13.36v.19h12.23v-.18c0-3.56 1.39-6.92 3.92-9.43 2.52-2.52 5.87-3.9 9.43-3.9h.01c3.57 0 6.92 1.39 9.44 3.92 2.52 2.52 3.9 5.88 3.9 9.44v.19h12.23v-.18c0-3.57 1.39-6.92 3.92-9.44 2.52-2.52 5.87-3.9 9.43-3.9h.01c7.36 0 13.34 6 13.34 13.36v.19l-.01-.01z" fill="#58393E"/><path d="M191.56 43.898H47.41c-7.002 0-12.68 5.676-12.68 12.68v189.269c0 7.003 5.678 12.68 12.68 12.68h144.15c7.003 0 12.68-5.677 12.68-12.68V56.577c0-7.002-5.677-12.68-12.68-12.68z" fill="#FEF7E0"/><path d="M106.92 139.618l20.42-46.18v-.09h-27.01v-11.61h29.66c7.51 0 11.44 3.35 11.44 8.6 0 1.89-.55 4.13-1.56 6.54l-18.4 42.74h-14.56.01zm49.23 2.36c6.682 0 12.1-5.417 12.1-12.1 0-6.682-5.418-12.1-12.1-12.1-6.683 0-12.1 5.418-12.1 12.1 0 6.683 5.417 12.1 12.1 12.1z" fill="#D93636"/><path d="M156.15 142.978c-7.22 0-13.1-5.87-13.1-13.1 0-7.23 5.87-13.1 13.1-13.1 7.23 0 13.1 5.87 13.1 13.1 0 7.23-5.87 13.1-13.1 13.1zm0-24.19c-6.12 0-11.1 4.98-11.1 11.1 0 6.12 4.98 11.1 11.1 11.1 6.12 0 11.1-4.98 11.1-11.1 0-6.12-4.98-11.1-11.1-11.1z" fill="#FEF7E0"/><path d="M152.8 129.788l.76 1.17c.09.14.09.32-.02.44-.82 1-1.78 2.05-2.64 2.93-.18.2-.41.18-.56-.03l-.88-1.21a.358.358 0 01.03-.49c.71-.71 1.73-1.76 2.7-2.85.2-.21.44-.2.61.05v-.01zm.66-3.72l-1.05 1.14c-.2.2-.43.18-.61-.01-.47-.5-1.18-1.09-1.81-1.58-.21-.15-.23-.38-.05-.58l.96-1c.12-.14.32-.17.47-.06.7.47 1.53 1.08 2.06 1.59.15.14.15.35.02.5h.01zm5.38 1.79v.9c0 1.67.85 4.25 3.86 5.77.27.14.33.36.15.61-.3.39-.62.85-.88 1.24-.11.17-.3.21-.49.12-1.52-.79-2.63-2.11-3.25-3.25-.38-.71-.65-.71-1.09-.03a9.301 9.301 0 01-3.66 3.28c-.2.09-.39.01-.52-.17-.2-.32-.47-.71-.71-1.03-.21-.26-.15-.5.15-.65 3.22-1.5 4.19-4.19 4.19-5.88v-.91c0-.23-.15-.38-.38-.38h-.17c-.14 0-.29.09-.35.23-.33.74-.71 1.41-1.12 1.97-.12.17-.33.2-.52.09-.35-.23-.8-.49-1.2-.68-.29-.15-.33-.39-.14-.65 1-1.24 1.73-3.1 2.11-5.04.05-.23.23-.35.46-.32l1.41.26c.24.04.36.23.3.46l-.27 1.11c-.08.29.06.49.36.49h4.02l.2-.06h.03c.09-.03.2-.01.27.03l1.15.68c.15.09.23.26.18.44-.4 1.25-.96 2.47-1.46 3.43-.11.2-.32.26-.52.17-.32-.17-.71-.36-1.06-.52-.23-.11-.3-.32-.2-.55.14-.3.29-.65.44-1.03.11-.3-.03-.5-.35-.5h-.59c-.23 0-.38.15-.38.38l.03-.01z" fill="#FEF7E0"/><path d="M65.21 136.308c.53-.04 1.14-.09 1.83-.14.69-.05 1.42-.11 2.18-.18.77-.07 1.54-.13 2.3-.18l.03 1.47c-1.1.12-2.19.23-3.27.34-1.08.11-2.05.21-2.9.3l-.18-1.62.01.01zm.17-6.54h14.35v1.52H65.38v-1.52zm1.25.53h1.76v6.51h-1.76v-6.51zm.33-6.1h11.25v5.18h-1.95v-3.82h-7.44v3.82h-1.86v-5.18zm.87 7.71h3.65v1.33h-3.65v-1.33zm0 2h3.65v1.33h-3.65v-1.33zm1.52-7.74h6.4v1.14h-6.4v-1.14zm0 1.76h6.35v1.18h-6.35v-1.18zm1.14 2.33h1.84v8.5h-1.84v-8.5zm7 1.62h.35l.32-.05 1.17.45c-.32 1.12-.78 2.1-1.38 2.93-.6.83-1.3 1.54-2.1 2.11-.8.57-1.69 1.04-2.66 1.39-.11-.22-.26-.49-.46-.78a4.6 4.6 0 00-.56-.7c.83-.26 1.61-.62 2.33-1.1.72-.47 1.34-1.05 1.86-1.72.52-.67.89-1.42 1.13-2.24v-.29zm-4.83 0h5.26v1.47h-5.26v-1.47zm2.02 1.33c.45.98 1.13 1.82 2.06 2.53.92.7 2.02 1.21 3.3 1.5-.13.12-.26.26-.41.44-.14.18-.28.36-.41.55-.13.19-.23.36-.32.51-1.38-.42-2.54-1.06-3.5-1.92-.96-.86-1.71-1.92-2.26-3.18l1.54-.43zm6.77-7.99h14.19v1.62H81.45v-1.62zm.43 6.31h12.83v1.57H83.75v5.65h-1.87v-7.22zm1.69-4.08h10.16v3.44H83.57v-3.44zm1.39 6.24h1.78v4.24h-1.78v-4.24zm.53-4.96v.88h6.22v-.88h-6.22zm.51 4.96h5.95v3.58H86v-1.33h4.27v-.93H86v-1.33.01zm1.24-9.6l1.98-.48c.14.34.29.72.46 1.13.17.41.29.75.36 1.03l-2.1.56c-.06-.28-.17-.63-.3-1.06-.13-.43-.27-.82-.4-1.18zm6.09 7.44h1.94v5.47c0 .42-.06.73-.18.93-.12.2-.33.37-.64.5-.29.1-.65.16-1.07.18-.43.02-.93.03-1.5.03-.04-.22-.12-.46-.23-.72-.11-.26-.22-.48-.33-.67.21 0 .44 0 .68.02.24.01.46.01.65 0h.37c.21 0 .32-.09.32-.27v-5.46l-.01-.01zm4 19.96l3.11.92c-.52 1.62-1.14 3.27-1.86 4.93-.72 1.66-1.5 3.23-2.35 4.72-.85 1.48-1.75 2.79-2.7 3.91-.07-.26-.21-.63-.39-1.09-.19-.47-.39-.93-.62-1.4-.22-.47-.43-.85-.62-1.15.75-.88 1.46-1.89 2.14-3.05.68-1.16 1.3-2.4 1.86-3.74a35.45 35.45 0 001.43-4.05zm-2.01 7.7l3.08-3.11.11.06v21.59h-3.19v-18.54zm18.06 10.76h.62l.53-.11 2.02 1.12c-1.19 1.85-3.14 3.33-5.84 4.45-2.7 1.12-6.01 1.93-9.93 2.44-.17-.35-.4-.76-.7-1.22-.3-.46-.6-.85-.9-1.19 3.71-.35 6.8-.97 9.25-1.83 2.45-.87 4.1-1.92 4.94-3.15v-.5l.01-.01zm-7-1.63l2.86.56c-.91 1.14-2.01 2.19-3.28 3.15s-2.76 1.84-4.48 2.65c-.19-.32-.46-.67-.83-1.05-.36-.38-.7-.68-.99-.88 1.59-.6 2.94-1.29 4.06-2.07 1.12-.78 2.01-1.57 2.66-2.35v-.01zm-6.61-5.37h18.87v3.98h-3.02v-2.1h-12.99v2.1h-2.86v-3.98zm.84-10.37h17.44v2.38h-17.44v-2.38zm2.8 17.11c.88 1.12 2.06 2.06 3.54 2.83s3.21 1.37 5.19 1.82c1.98.45 4.12.76 6.44.92-.28.32-.57.72-.88 1.2-.31.48-.56.9-.74 1.26-2.41-.24-4.62-.66-6.65-1.25-2.03-.59-3.83-1.37-5.4-2.34-1.57-.97-2.9-2.17-3.96-3.61l2.46-.84v.01zm.36-4.39l1.93 1.04c-.34.54-.74 1.1-1.2 1.67-.47.57-.99 1.06-1.57 1.47l-1.88-1.46c.52-.32 1.03-.73 1.53-1.23.49-.5.89-1 1.19-1.48v-.01zm-1.45-9.33h13.92v7.76h-3.11v-6.13h-7.78v6.13h-3.02v-7.76h-.01zm3.53 13.98h8.32v2.02h-10.3l1.99-2.02h-.01zm-1.82-11.51h10.56v1.34h-10.56v-1.34zm0 2.24h10.56v1.37h-10.56v-1.37zm1.06 4.73h2.63v1.26c0 .28.06.46.18.53.12.08.37.11.74.11h2.46c.28 0 .47-.06.57-.17.1-.11.17-.37.21-.78.24.13.57.26.99.39.42.13.79.22 1.11.28-.09.8-.33 1.35-.7 1.64-.37.29-.98.43-1.82.43h-3.22c-.84 0-1.49-.07-1.96-.21-.47-.14-.78-.39-.95-.74-.17-.35-.25-.85-.25-1.48v-1.26h.01zm2.3-11.73l3.64.42c-.24.6-.48 1.16-.71 1.68-.23.52-.43.98-.6 1.37l-2.91-.5c.13-.47.25-.97.36-1.51.11-.54.19-1.03.22-1.46zm.36 11.59l1.82-.98c.37.28.77.6 1.19.97.42.36.76.69 1.02.97l-1.9 1.06c-.22-.28-.54-.62-.95-1.01-.41-.39-.8-.73-1.18-1.01zm4.87.98l1.74-1.04c.5.47 1.04 1 1.61 1.61.57.61 1 1.13 1.3 1.58l-1.82 1.15c-.28-.45-.7-.99-1.25-1.62-.55-.63-1.08-1.19-1.58-1.68zm10.451 4l2.88 1.2c-.21.62-.44 1.25-.7 1.9-.26.65-.55 1.29-.85 1.92-.3.63-.66 1.18-1.05 1.67l-2.88-1.65c.35-.43.7-.92 1.02-1.48.33-.56.62-1.15.9-1.76.27-.62.5-1.21.69-1.79l-.01-.01zm-1.77-17.47h24.19v2.63h-24.19v-2.63zm.11 13.78c1.31 0 2.78 0 4.42.01h5.26c1.87 0 3.77-.01 5.73-.01 1.96 0 3.89-.02 5.81-.06l-.17 2.55c-2.5.06-5.03.11-7.57.17-2.55.06-4.97.09-7.25.11-2.29.02-4.32.04-6.09.06l-.14-2.83zm1.54-9.91h20.61v8.34h-20.61v-8.34zm3.17 1.96v1.26h14.14v-1.26h-14.14zm0 3.13v1.26h14.14v-1.26h-14.14zm.5 8.79h3.33v3.16c0 .39.12.64.35.74.23.1.75.15 1.55.15h4.87c.43 0 .75-.06.97-.17.21-.11.37-.35.48-.7.11-.35.17-.89.21-1.6.35.24.82.46 1.39.66s1.08.34 1.53.43c-.13 1.08-.34 1.92-.63 2.52-.29.6-.72 1.01-1.29 1.23-.57.22-1.35.34-2.34.34h-5.52c-1.31 0-2.31-.11-3.02-.32-.71-.21-1.2-.58-1.47-1.11-.27-.53-.41-1.23-.41-2.13v-3.22.02zm4.23-.11l2.18-1.76c.52.28 1.05.61 1.6.99.54.38 1.05.77 1.54 1.16.49.39.88.77 1.18 1.12l-2.32 1.96c-.26-.35-.63-.74-1.09-1.15-.47-.41-.97-.82-1.5-1.23-.53-.41-1.06-.77-1.58-1.09h-.01zm.64-18.96h3.47v16.16h-3.47v-16.16zm5.69 14.4l2.3-1.54c.77.35 1.54.77 2.32 1.26.78.49 1.52.98 2.21 1.48s1.26.99 1.71 1.46l-2.35 1.76c-.45-.49-1.01-1-1.68-1.54-.67-.54-1.4-1.07-2.2-1.58-.79-.51-1.56-.95-2.31-1.3zm3.13 5.49l2.88-.92c.45.56.87 1.16 1.27 1.81.4.64.75 1.29 1.05 1.93.3.64.5 1.24.62 1.78l-3.08.98c-.11-.5-.31-1.07-.59-1.71-.28-.63-.61-1.29-.98-1.97-.37-.68-.77-1.31-1.18-1.89l.01-.01z" fill="#D93636"/><path d="M234.268 36.073a8.457 8.457 0 010-7.711c1.28-2.5.47-5.551-1.9-7.081a8.487 8.487 0 01-3.86-6.681 5.446 5.446 0 00-5.179-5.181 8.485 8.485 0 01-6.68-3.86 5.458 5.458 0 00-7.08-1.901 8.454 8.454 0 01-7.71 0 5.438 5.438 0 00-7.08 1.89 8.485 8.485 0 01-6.68 3.86 5.446 5.446 0 00-5.179 5.182 8.487 8.487 0 01-3.86 6.68 5.46 5.46 0 00-1.9 7.082 8.457 8.457 0 010 7.711 5.437 5.437 0 001.9 7.071 8.487 8.487 0 013.86 6.681 5.446 5.446 0 005.179 5.18 8.487 8.487 0 016.68 3.861 5.448 5.448 0 007.07 1.9 8.454 8.454 0 017.71 0 5.437 5.437 0 007.08-1.9 8.486 8.486 0 016.68-3.86 5.446 5.446 0 005.179-5.18 8.487 8.487 0 013.86-6.682 5.46 5.46 0 001.9-7.081l.01.02z" fill="#8290E2"/><path d="M236.938 29.722a8.428 8.428 0 00-2.94-10.962 5.477 5.477 0 01-2.489-4.31 8.44 8.44 0 00-8.03-8.032 5.476 5.476 0 01-4.31-2.49 8.435 8.435 0 00-10.96-2.94c-1.56.8-3.42.8-4.98 0a8.423 8.423 0 00-10.959 2.94 5.476 5.476 0 01-4.31 2.49 8.44 8.44 0 00-8.03 8.032 5.478 5.478 0 01-2.49 4.31 8.438 8.438 0 00-2.94 10.962c.8 1.56.8 3.42 0 4.98a8.428 8.428 0 002.94 10.962c1.47.95 2.4 2.56 2.49 4.311a8.424 8.424 0 008.03 8.021c1.75.09 3.36 1.02 4.31 2.49a8.44 8.44 0 007.089 3.881c1.31 0 2.63-.3 3.87-.94 1.56-.8 3.42-.8 4.98 0 3.88 1.99 8.6.73 10.96-2.94.95-1.47 2.56-2.4 4.31-2.49a8.439 8.439 0 008.03-8.022 5.476 5.476 0 012.489-4.31 8.438 8.438 0 002.94-10.962c-.8-1.56-.8-3.42 0-4.981zm-4.56 13.422a8.489 8.489 0 00-3.859 6.681 5.446 5.446 0 01-5.18 5.18 8.486 8.486 0 00-6.68 3.861 5.448 5.448 0 01-7.08 1.9 8.454 8.454 0 00-7.71 0 5.432 5.432 0 01-7.07-1.9 8.482 8.482 0 00-6.679-3.86 5.446 5.446 0 01-5.18-5.18 8.487 8.487 0 00-3.86-6.682 5.45 5.45 0 01-1.9-7.071 8.457 8.457 0 000-7.711 5.45 5.45 0 011.9-7.081 8.487 8.487 0 003.86-6.681 5.446 5.446 0 015.18-5.181 8.482 8.482 0 006.679-3.86 5.438 5.438 0 017.08-1.891 8.454 8.454 0 007.71 0 5.45 5.45 0 017.08 1.9 8.485 8.485 0 006.68 3.86 5.446 5.446 0 015.18 5.182 8.489 8.489 0 003.859 6.68 5.46 5.46 0 011.9 7.082 8.457 8.457 0 000 7.711 5.45 5.45 0 01-1.9 7.081l-.01-.02z" fill="#58393E"/><mask id="mask0_1231_932" style="mask-type:luminance" maskUnits="userSpaceOnUse" x="176" y="3" width="59" height="59"><path d="M234.268 36.073a8.457 8.457 0 010-7.711c1.28-2.5.47-5.551-1.9-7.081a8.487 8.487 0 01-3.86-6.681 5.446 5.446 0 00-5.179-5.181 8.485 8.485 0 01-6.68-3.86 5.458 5.458 0 00-7.08-1.901 8.454 8.454 0 01-7.71 0 5.438 5.438 0 00-7.08 1.89 8.485 8.485 0 01-6.68 3.86 5.446 5.446 0 00-5.179 5.182 8.487 8.487 0 01-3.86 6.68 5.46 5.46 0 00-1.9 7.082 8.457 8.457 0 010 7.711 5.437 5.437 0 001.9 7.071 8.487 8.487 0 013.86 6.681 5.446 5.446 0 005.179 5.18 8.487 8.487 0 016.68 3.861 5.448 5.448 0 007.07 1.9 8.454 8.454 0 017.71 0 5.437 5.437 0 007.08-1.9 8.486 8.486 0 016.68-3.86 5.446 5.446 0 005.179-5.18 8.487 8.487 0 013.86-6.682 5.46 5.46 0 001.9-7.081l.01.02z" fill="#fff"/></mask><g mask="url(#mask0_1231_932)"><path d="M219.519 86.77c20.401 0 36.939-16.54 36.939-36.945 0-20.404-16.538-36.946-36.939-36.946S182.58 29.421 182.58 49.825c0 20.405 16.538 36.946 36.939 36.946z" fill="#5975CE" opacity=".5"/></g><path d="M205.73 15.15c-9.41 0-17.07 7.661-17.07 17.073 0 9.411 7.66 17.072 17.07 17.072 9.409 0 17.069-7.661 17.069-17.072 0-9.412-7.66-17.073-17.069-17.073zm6.44 13.902h-8.21a.48.48 0 00-.48.48v2.13c0 .34-.25.48-.33.51-.08.03-.35.13-.6-.1l-4.83-4.37a.565.565 0 01-.19-.41c0-.15.07-.31.19-.41l4.83-4.371c.13-.11.26-.15.37-.15.11 0 .2.03.24.05.08.03.33.17.33.51v2.13c0 .27.22.48.48.48h8.21c.969 0 1.759.79 1.759 1.76s-.79 1.761-1.759 1.761h-.01zm-14.64 8.081c0-.97.79-1.76 1.76-1.76h8.21a.476.476 0 00.48-.48v-2.13c0-.34.25-.48.33-.51.08-.03.35-.13.6.1l4.829 4.37c.12.11.19.26.19.41 0 .15-.07.31-.19.41l-4.829 4.371c-.25.23-.52.13-.6.1a.535.535 0 01-.33-.51v-2.13a.48.48 0 00-.48-.48h-8.21c-.97 0-1.76-.79-1.76-1.76z" fill="#fff"/></svg>