<?xml version="1.0" encoding="UTF-8"?>
<svg xmlns="http://www.w3.org/2000/svg" version="1.1" xmlns:xlink="http://www.w3.org/1999/xlink" viewBox="0 0 238 299">
  <!-- Generator: Adobe Illustrator 29.1.0, SVG Export Plug-In . SVG Version: 2.1.0 Build 142)  -->
  <defs>
    <style>
      .st0 {
        fill: #f9ba55;
      }

      .st1 {
        fill: #5975ce;
        mix-blend-mode: multiply;
        opacity: .5;
      }

      .st2 {
        fill: #fef7e0;
      }

      .st3 {
        fill: #fff;
      }

      .st4 {
        fill: none;
      }

      .st5 {
        fill: #d93636;
      }

      .st6 {
        isolation: isolate;
      }

      .st7 {
        fill: #58393e;
      }

      .st8 {
        fill: #8290e2;
      }

      .st9 {
        clip-path: url(#clippath);
      }
    </style>
    <clipPath id="clippath">
      <path class="st4" d="M233.7,36c-1.2-2.4-1.2-5.3,0-7.7,1.3-2.5.5-5.5-1.9-7.1-2.3-1.5-3.7-4-3.9-6.7-.1-2.8-2.4-5-5.2-5.2-2.7-.1-5.2-1.6-6.7-3.9-1.5-2.4-4.6-3.2-7.1-1.9-2.4,1.2-5.3,1.2-7.7,0-.8-.4-1.7-.6-2.5-.6-1.8,0-3.5.9-4.6,2.5-1.5,2.3-4,3.7-6.7,3.9-2.8.1-5,2.4-5.2,5.2-.1,2.7-1.6,5.2-3.9,6.7-2.4,1.5-3.2,4.6-1.9,7.1,1.2,2.4,1.2,5.3,0,7.7-1.3,2.5-.5,5.5,1.9,7.1,2.3,1.5,3.7,4,3.9,6.7.1,2.8,2.4,5,5.2,5.2,2.7.1,5.2,1.6,6.7,3.9,1.5,2.4,4.6,3.2,7.1,1.9,2.4-1.2,5.3-1.2,7.7,0,2.5,1.3,5.5.5,7.1-1.9,1.5-2.3,4-3.7,6.7-3.9,2.8-.1,5-2.4,5.2-5.2.1-2.7,1.6-5.2,3.9-6.7,2.4-1.5,3.2-4.6,1.9-7.1Z"/>
    </clipPath>
  </defs>
  <g class="st6">
    <g id="_圖層_1" data-name="圖層_1">
      <g>
        <path class="st0" d="M216.9,34.3c0-7-5.7-12.7-12.7-12.7h-15.1c-.8,5.7-5.8,10.1-11.7,10.1-6,0-10.9-4.4-11.7-10.2h-15.5c-.8,5.7-5.8,10.1-11.7,10.1-6,0-10.9-4.4-11.7-10.2h-15.5c-.8,5.7-5.8,10.1-11.7,10.1-6,0-10.9-4.4-11.7-10.2h-15.5c-.8,5.7-5.8,10.1-11.7,10.1-6,0-10.9-4.4-11.7-10.2h-15.1c-7,0-12.7,5.7-12.7,12.7l-.3,233.8c0,7,5.7,12.7,12.7,12.7h15c0-.5-.1-1.1-.1-1.7,0-6.5,5.3-11.8,11.9-11.8s11.8,5.3,11.8,11.9,0,1.1-.1,1.7h15.5c0-.5-.1-1.1-.1-1.7,0-6.5,5.3-11.8,11.9-11.8s11.8,5.3,11.8,11.9,0,1.1-.1,1.7h15.5c0-.5-.1-1.1-.1-1.7,0-6.5,5.3-11.8,11.9-11.8s11.8,5.3,11.8,11.9,0,1.1-.1,1.7h15.5c0-.5-.1-1.1-.1-1.7,0-6.5,5.3-11.8,11.9-11.8s11.8,5.3,11.8,11.9,0,1.1-.1,1.7h15.1c7,0,12.7-5.7,12.7-12.7l.3-233.8h0,0Z"/>
        <path class="st7" d="M204,282.3h-16.8l.2-1.7c0-.5.1-1,.1-1.5,0-5.7-4.6-10.4-10.3-10.4s-5.4,1.1-7.3,3c-1.9,1.9-3,4.6-3,7.3,0,.5,0,1,.1,1.5l.2,1.7h-18.9s.2-1.7.2-1.7c0-.5.1-1,.1-1.5,0-5.7-4.6-10.4-10.3-10.4-2.8,0-5.4,1.1-7.3,3-1.9,1.9-3,4.6-3,7.3,0,.5,0,1,0,1.5l.2,1.7h-18.9l.2-1.7c0-.5,0-1,.1-1.5,0-5.7-4.6-10.4-10.3-10.4s-5.3,1.1-7.3,3c-1.9,1.9-3,4.6-3,7.3,0,.5,0,1,0,1.5l.2,1.7h-18.9s.2-1.7.2-1.7c.5-3.2-.6-6.5-2.9-8.8-1.9-1.9-4.6-3-7.3-3-5.7,0-10.3,4.6-10.4,10.3,0,.5,0,1,0,1.5l.2,1.7h-16.8c-7.8,0-14.2-6.4-14.2-14.2l.3-233.8c0-3.8,1.5-7.4,4.2-10,2.7-2.7,6.2-4.1,10-4.1h16.4l.2,1.3c.7,5.1,5.1,8.9,10.2,8.9,5.1,0,9.5-3.8,10.2-8.9l.2-1.3h18.1l.2,1.3c.7,5.1,5.1,8.9,10.2,8.9s9.5-3.8,10.2-8.9l.2-1.3h18.1l.2,1.3c.7,5.1,5.1,8.9,10.2,8.9s9.5-3.8,10.2-8.9l.2-1.3h18.1l.2,1.3c.7,5.1,5.1,8.9,10.2,8.9,5.1,0,9.5-3.8,10.2-8.9l.2-1.3h16.4c7.8,0,14.2,6.4,14.2,14.2l-.3,233.8c0,3.8-1.5,7.4-4.2,10-2.7,2.7-6.3,4.2-10,4.1h0q0,0,0,0ZM190.5,279.3h13.4c3,0,5.8-1.2,7.9-3.3,2.1-2.1,3.3-4.9,3.3-7.9l.3-233.8c0-6.2-5-11.2-11.2-11.2h-13.8c-1.4,5.9-6.8,10.1-13,10.1h0c-6.2,0-11.5-4.3-12.9-10.2h-13c-1.4,5.9-6.8,10.1-13,10.1h0c-6.2,0-11.5-4.3-12.9-10.2h-13c-1.4,5.9-6.8,10.1-13,10.1h0c-6.2,0-11.5-4.3-12.9-10.2h-13c-1.4,5.9-6.8,10.1-13,10.1h0c-6.2,0-11.5-4.3-13-10.2h-13.8c-3,0-5.8,1.2-7.9,3.3-2.1,2.1-3.3,4.9-3.3,7.9l-.3,233.8c0,6.2,5,11.2,11.2,11.2h13.4v-.2c0-7.4,6-13.3,13.4-13.3s6.9,1.4,9.4,3.9c2.5,2.5,3.9,5.9,3.9,9.4v.2h12.2v-.2c0-7.4,6-13.3,13.3-13.3h0c7.4,0,13.3,6,13.3,13.4v.2h12.2v-.2c0-3.6,1.4-6.9,3.9-9.4,2.5-2.5,5.9-3.9,9.4-3.9h0c7.4,0,13.3,6,13.3,13.4v.2h12.2v-.2c0-7.4,6-13.3,13.4-13.3h0c7.4,0,13.3,6,13.3,13.4v.2h0,0Z"/>
        <path class="st2" d="M191,43.8H46.8c-7,0-12.7,5.7-12.7,12.7v189.3c0,7,5.7,12.7,12.7,12.7h144.2c7,0,12.7-5.7,12.7-12.7V56.5c0-7-5.7-12.7-12.7-12.7Z"/>
        <path class="st5" d="M98.8,120.8c0-5.9,2.2-10.8,6-17.5l12.3-21.6h14l-10.7,18.9c.4,0,.9,0,1.5,0,11.4,0,20.4,7.3,20.4,19.1s-8.9,21.2-21.8,21.2-21.8-9-21.8-19.9h0ZM130.1,120.1c0-5.2-4-9.6-9.6-9.6s-9.7,5-9.7,9.7,4.1,9.6,9.7,9.6,9.6-4.4,9.6-9.8ZM155.6,141.9c6.7,0,12.1-5.4,12.1-12.1s-5.4-12.1-12.1-12.1-12.1,5.4-12.1,12.1,5.4,12.1,12.1,12.1Z"/>
        <path class="st2" d="M155.6,142.9c-7.2,0-13.1-5.9-13.1-13.1s5.9-13.1,13.1-13.1,13.1,5.9,13.1,13.1-5.9,13.1-13.1,13.1ZM155.6,118.7c-6.1,0-11.1,5-11.1,11.1s5,11.1,11.1,11.1,11.1-5,11.1-11.1-5-11.1-11.1-11.1Z"/>
        <path class="st2" d="M148.9,127.7c0-2.1,1.1-3.4,2.7-3.4s2.7,1.2,2.7,3.4-1.1,3.4-2.7,3.4-2.7-1.3-2.7-3.4ZM152.5,127.7c0-1.5-.4-2-.9-2s-.9.5-.9,2,.4,2,.9,2,.9-.5.9-2ZM152.3,134.9l5.4-10.4c0-.1.2-.2.3-.2h.6c.4,0,.5.2.3.6l-5.4,10.4c0,.1-.2.2-.3.2h-.6c-.4,0-.5-.2-.3-.6ZM156.9,132c0-2.1,1.1-3.4,2.7-3.4s2.7,1.3,2.7,3.4-1.1,3.4-2.7,3.4-2.7-1.3-2.7-3.4ZM160.5,132c0-1.5-.4-2-.9-2s-1,.5-1,2,.4,2,1,2,.9-.5.9-2Z"/>
        <path class="st5" d="M64.7,136.3c.5,0,1.1,0,1.8-.1s1.4-.1,2.2-.2c.8,0,1.5-.1,2.3-.2v1.5c-1.1.1-2.2.2-3.2.3-1.1.1-2.1.2-2.9.3l-.2-1.6h0s0,0,0,0ZM64.8,129.7h14.3v1.5h-14.3v-1.5ZM66.1,130.2h1.8v6.5h-1.8v-6.5ZM66.4,124.2h11.2v5.2h-2v-3.8h-7.4v3.8h-1.9v-5.2ZM67.3,131.9h3.7v1.3h-3.7v-1.3ZM67.3,133.9h3.7v1.3h-3.7v-1.3ZM68.8,126.1h6.4v1.1h-6.4v-1.1ZM68.8,127.9h6.3v1.2h-6.3s0-1.2,0-1.2ZM69.9,130.2h1.8v8.5h-1.8v-8.5ZM76.9,131.8h.7c0,0,1.2.4,1.2.4-.3,1.1-.8,2.1-1.4,2.9-.6.8-1.3,1.5-2.1,2.1-.8.6-1.7,1-2.7,1.4-.1-.2-.3-.5-.5-.8-.2-.3-.4-.5-.6-.7.8-.3,1.6-.6,2.3-1.1.7-.5,1.3-1.1,1.9-1.7.5-.7.9-1.4,1.1-2.2v-.3h0ZM72.1,131.8h5.3v1.5h-5.3v-1.5ZM74.1,133.2c.4,1,1.1,1.8,2.1,2.5.9.7,2,1.2,3.3,1.5-.1.1-.3.3-.4.4-.1.2-.3.4-.4.6-.1.2-.2.4-.3.5-1.4-.4-2.5-1.1-3.5-1.9s-1.7-1.9-2.3-3.2l1.5-.4h0ZM80.9,125.2h14.2v1.6h-14.2v-1.6ZM81.3,131.5h12.8v1.6h-11v5.6h-1.9v-7.2ZM83,127.4h10.2v3.4h-10.2v-3.4ZM84.4,133.6h1.8v4.2h-1.8v-4.2ZM84.9,128.7v.9h6.2v-.9h-6.2ZM85.4,133.6h5.9v3.6h-5.9v-1.3h4.3v-.9h-4.3v-1.3h0ZM86.7,124l2-.5c.1.3.3.7.5,1.1.2.4.3.8.4,1l-2.1.6c0-.3-.2-.6-.3-1.1-.1-.4-.3-.8-.4-1.2ZM92.8,131.5h1.9v5.5c0,.4,0,.7-.2.9s-.3.4-.6.5c-.3.1-.7.2-1.1.2-.4,0-.9,0-1.5,0,0-.2-.1-.5-.2-.7s-.2-.5-.3-.7c.2,0,.4,0,.7,0,.2,0,.5,0,.7,0h.4c.2,0,.3,0,.3-.3v-5.5h0s0,0,0,0ZM68.8,151.4l3.1.9c-.5,1.6-1.1,3.3-1.9,4.9-.7,1.7-1.5,3.2-2.3,4.7-.8,1.5-1.8,2.8-2.7,3.9,0-.3-.2-.6-.4-1.1-.2-.5-.4-.9-.6-1.4-.2-.5-.4-.9-.6-1.1.8-.9,1.5-1.9,2.1-3.1s1.3-2.4,1.9-3.7c.6-1.3,1-2.7,1.4-4.1ZM66.8,159.1l3.1-3.1h.1v21.6h-3.2v-18.5h0ZM84.8,169.9h1.2c0-.1,2,1,2,1-1.2,1.9-3.1,3.3-5.8,4.4-2.7,1.1-6,1.9-9.9,2.4-.2-.4-.4-.8-.7-1.2-.3-.5-.6-.9-.9-1.2,3.7-.4,6.8-1,9.2-1.8,2.4-.9,4.1-1.9,4.9-3.1v-.5h0ZM77.8,168.3l2.9.6c-.9,1.1-2,2.2-3.3,3.1s-2.8,1.8-4.5,2.6c-.2-.3-.5-.7-.8-1.1-.4-.4-.7-.7-1-.9,1.6-.6,2.9-1.3,4.1-2.1,1.1-.8,2-1.6,2.7-2.4h0s0,0,0,0ZM71.2,162.9h18.9v4h-3v-2.1h-13v2.1h-2.9v-4ZM72,152.5h17.4v2.4h-17.4s0-2.4,0-2.4ZM74.8,169.6c.9,1.1,2.1,2.1,3.5,2.8s3.2,1.4,5.2,1.8c2,.4,4.1.8,6.4.9-.3.3-.6.7-.9,1.2s-.6.9-.7,1.3c-2.4-.2-4.6-.7-6.7-1.2s-3.8-1.4-5.4-2.3-2.9-2.2-4-3.6l2.5-.8s0,0,0,0ZM75.2,165.2l1.9,1c-.3.5-.7,1.1-1.2,1.7-.5.6-1,1.1-1.6,1.5l-1.9-1.5c.5-.3,1-.7,1.5-1.2.5-.5.9-1,1.2-1.5,0,0,0,0,0,0ZM73.8,155.9h13.9v7.8h-3.1v-6.1h-7.8v6.1h-3v-7.8h0ZM77.3,169.9h8.3v2h-10.3l2-2h0ZM75.5,158.4h10.6v1.3h-10.6v-1.3ZM75.5,160.6h10.6v1.4h-10.6v-1.4ZM76.5,165.4h2.6v1.3c0,.3,0,.5.2.5.1,0,.4.1.7.1h2.5c.3,0,.5,0,.6-.2s.2-.4.2-.8c.2.1.6.3,1,.4s.8.2,1.1.3c0,.8-.3,1.4-.7,1.6-.4.3-1,.4-1.8.4h-3.2c-.8,0-1.5,0-2-.2s-.8-.4-.9-.7-.2-.9-.2-1.5v-1.3h0ZM78.8,153.6l3.6.4c-.2.6-.5,1.2-.7,1.7-.2.5-.4,1-.6,1.4l-2.9-.5c.1-.5.2-1,.4-1.5s.2-1,.2-1.5h0ZM79.2,165.2l1.8-1c.4.3.8.6,1.2,1,.4.4.8.7,1,1l-1.9,1.1c-.2-.3-.5-.6-.9-1-.4-.4-.8-.7-1.2-1h0ZM84.1,166.2l1.7-1c.5.5,1,1,1.6,1.6s1,1.1,1.3,1.6l-1.8,1.1c-.3-.4-.7-1-1.2-1.6-.6-.6-1.1-1.2-1.6-1.7h0ZM94.5,170.2l2.9,1.2c-.2.6-.4,1.2-.7,1.9-.3.6-.6,1.3-.8,1.9-.3.6-.7,1.2-1.1,1.7l-2.9-1.6c.3-.4.7-.9,1-1.5.3-.6.6-1.1.9-1.8.3-.6.5-1.2.7-1.8h0ZM92.7,152.7h24.2v2.6h-24.2v-2.6h0ZM92.9,166.5c1.3,0,2.8,0,4.4,0h5.3c1.9,0,3.8,0,5.7,0s3.9,0,5.8,0l-.2,2.6c-2.5,0-5,.1-7.6.2-2.6,0-5,0-7.2.1-2.3,0-4.3,0-6.1,0v-2.8c-.1,0-.1,0-.1,0ZM94.4,156.6h20.6v8.3h-20.6v-8.3h0ZM97.6,158.6v1.3h14.1v-1.3h-14.1,0ZM97.6,161.7v1.3h14.1v-1.3h-14.1,0ZM98.1,170.5h3.3v3.2c0,.4.1.6.3.7.2.1.8.1,1.6.1h4.9c.4,0,.8,0,1-.2.2-.1.4-.4.5-.7.1-.4.2-.9.2-1.6.3.2.8.5,1.4.7s1.1.3,1.5.4c-.1,1.1-.3,1.9-.6,2.5s-.7,1-1.3,1.2-1.3.3-2.3.3h-5.5c-1.3,0-2.3-.1-3-.3s-1.2-.6-1.5-1.1c-.3-.5-.4-1.2-.4-2.1v-3.2h0s0,0,0,0ZM102.3,170.4l2.2-1.8c.5.3,1.1.6,1.6,1,.5.4,1.1.8,1.5,1.2s.9.8,1.2,1.1l-2.3,2c-.3-.4-.6-.7-1.1-1.1-.5-.4-1-.8-1.5-1.2-.5-.4-1.1-.8-1.6-1.1h0ZM102.9,151.4h3.5v16.2h-3.5v-16.2ZM108.6,165.8l2.3-1.5c.8.4,1.5.8,2.3,1.3.8.5,1.5,1,2.2,1.5s1.3,1,1.7,1.5l-2.3,1.8c-.4-.5-1-1-1.7-1.5s-1.4-1.1-2.2-1.6c-.8-.5-1.6-.9-2.3-1.3ZM111.7,171.3l2.9-.9c.4.6.9,1.2,1.3,1.8.4.6.8,1.3,1.1,1.9s.5,1.2.6,1.8l-3.1,1c-.1-.5-.3-1.1-.6-1.7-.3-.6-.6-1.3-1-2-.4-.7-.8-1.3-1.2-1.9h0s0,0,0,0ZM125.5,161.2l2.3,1c-.4,1.1-.8,2.2-1.2,3.2-.5,1.1-1,2.2-1.6,3.3-.6,1.1-1.2,2.1-1.8,3s-1.3,1.8-1.9,2.4c-.1-.3-.3-.7-.5-1.1-.2-.4-.4-.8-.6-1.2-.2-.4-.4-.7-.6-1,.6-.6,1.2-1.2,1.8-2,.6-.8,1.2-1.6,1.7-2.4s1-1.8,1.4-2.6.8-1.8,1.1-2.6h0s0,0,0,0ZM131.1,151.5l2.4,2.6c-1.2.5-2.5.9-3.9,1.3s-2.9.7-4.4,1-3,.5-4.4.7c0-.4-.2-.8-.4-1.4-.2-.5-.4-.9-.6-1.3,1-.2,2-.4,3.1-.6,1-.2,2.1-.4,3.1-.7s1.9-.5,2.8-.8,1.7-.6,2.4-.9h0s0,0,0,0ZM120.2,159.7h13.4v3.1h-13.4v-3.1ZM125.5,154.2h3.3v23.5h-3.3s0-23.5,0-23.5ZM128.3,164c.3.2.6.5,1.1.9.5.4,1.1.8,1.6,1.3.6.5,1.1.9,1.6,1.3s.8.7,1,.9l-1.9,2.9c-.3-.4-.7-.8-1.1-1.3-.4-.5-.9-1-1.4-1.5-.5-.5-1-1-1.4-1.5-.5-.5-.9-.8-1.2-1.2l1.8-1.8h0s0,0,0,0ZM134.9,154.8h3.2v15.7h-3.2v-15.7h0ZM141.6,151.9h3.3v21.7c0,1-.1,1.7-.4,2.2-.2.5-.6.9-1.2,1.2-.6.3-1.3.4-2.3.5-.9,0-2,.1-3.3.1,0-.3-.1-.7-.2-1.1s-.3-.8-.4-1.3-.3-.8-.5-1.1c.9,0,1.8,0,2.6,0,.8,0,1.4,0,1.6,0,.3,0,.4,0,.6-.2.1-.1.2-.3.2-.6v-21.6h0s0,0,0,0ZM148,165.3c.9-.3,2-.8,3.2-1.3,1.2-.5,2.5-1,3.8-1.6l.6,2.4c-1,.5-2,1.1-3.1,1.6s-2,1-2.9,1.5l-1.6-2.7h0ZM148.1,169.4h25.6v3.1h-25.6v-3.1ZM148.8,159.1l2.2-1.8c.5.3,1,.6,1.5.9.5.4,1.1.7,1.6,1.1.5.4.9.7,1.2,1l-2.4,2c-.3-.3-.6-.7-1.1-1-.5-.4-1-.8-1.5-1.1s-1.1-.7-1.6-1ZM148.9,153.6h24.5v3.1h-24.5v-3.1ZM156.1,167.8c0-.2-.1-.4-.2-.8s-.2-.7-.3-1c0-.3-.2-.6-.3-.9.4,0,.7-.2,1.1-.4.4-.2.8-.6,1.3-.9.4-.3.8-.6,1.1-1,.5-.4,1.1-1,1.7-1.6.6-.6,1.3-1.3,1.9-2.1.6-.7,1.3-1.5,1.8-2.2l2.5,1.5c-1.3,1.6-2.8,3.1-4.3,4.4-1.6,1.4-3.1,2.6-4.6,3.7h0c-.4.3-.6.4-.9.6-.2.1-.4.3-.6.4s-.2.3-.2.4h0ZM156.6,162.2c0-.2-.1-.4-.2-.8s-.2-.7-.3-1c-.1-.3-.2-.6-.4-.9.2,0,.4-.1.7-.3.2-.2.4-.4.7-.6.1-.2.4-.5.7-.9.3-.4.7-.9,1-1.5.4-.6.7-1.2,1-1.8l2.7,1.1c-.6.9-1.2,1.9-2,2.8-.8.9-1.5,1.7-2.2,2.4h0c-.3.2-.6.4-.8.6-.2.1-.4.3-.6.4s-.2.3-.2.4h0s0,0,0,0ZM156.1,167.8v-2.2c0,0,1.3-.9,1.3-.9l8.4-.6c0,.4-.1.8-.2,1.3,0,.5,0,.9,0,1.2-1.9.2-3.4.3-4.6.4s-2.1.2-2.7.3c-.6,0-1.1.2-1.4.2s-.6.2-.7.2h0s0,0,0,0ZM156.6,162.2v-2.2s1.4-.8,1.4-.8l5.2-.2c-.1.4-.2.8-.3,1.3,0,.5-.2.9-.2,1.2-1.1,0-2.1.1-2.8.2s-1.3.1-1.7.1-.8.1-1,.1c-.2,0-.4.1-.6.1h0s0,0,0,0ZM158.4,152l3.4-.8c.3.4.7.9,1,1.5.4.6.6,1,.8,1.4l-3.5,1c-.1-.4-.4-.9-.7-1.5-.3-.6-.7-1.1-1-1.6h0s0,0,0,0ZM159.1,167.5h3.6v10.1h-3.6v-10.1ZM162.3,162.9l2.4-.9c.4.5.8,1.1,1.2,1.7s.8,1.2,1.1,1.8.6,1.1.7,1.6l-2.6,1c-.1-.5-.4-1-.7-1.6-.3-.6-.6-1.2-1-1.8-.4-.6-.8-1.2-1.1-1.7h0ZM165.6,164.2l2.3-1.8c.6.3,1.2.7,2,1.1s1.4.9,2,1.3,1.2.8,1.6,1.2l-2.5,2c-.4-.4-.9-.8-1.5-1.2-1.3-.9-2.6-1.8-3.9-2.6h0ZM169.8,157.2l2.8,1.6c-.6.6-1.3,1.3-2,1.9-.7.6-1.4,1.1-1.9,1.6l-2.5-1.5c.9-.7,1.7-1.5,2.5-2.3.4-.4.8-.8,1.1-1.2h0Z"/>
      </g>
      <path class="st3" d="M201.6,24c0-.4,0-.9,0-1.3-1.3.2-2.2-.4-3.1-.9,0,0-.2,0-.2-.1-1.1-.6-2.4-1.1-3.5-1.3-.4,0-.8,0-1.1.4-.3.3-.4.8-.2,1.2.4,1.2.6,2.4.4,3.5-2,1.1-3.4,3.1-3.7,5.4h-.9c-.9,0-1.6.7-1.6,1.6v3.5c0,.9.7,1.6,1.6,1.6h.9c.6,2,1.8,3.8,3.5,5.2l.2.2c1.4,1.2,1.5,2.7,1.6,3.1v.8c0,1.5,1.2,2.6,2.6,2.6h1.4c1.4,0,2.6-1.2,2.6-2.6v-.5c1.1.1,2.3,0,3.4,0v.6c0,1.5,1.2,2.6,2.6,2.6h1.4c1.4,0,2.6-1.2,2.6-2.6,0-.8.3-2.6,1.7-4.1.9-.9,1.7-2.1,2.3-3.5,0,0,0,0,0,0,.4-.8.7-1.5.9-2.3h0v-.2h0c.1-.6.2-1.2.3-1.8-1.3.5-2.7.8-4.1.8-6.4,0-11.7-5.2-11.7-11.7h0s0,0,0,0ZM198.5,32.4c-.6,0-1-.5-1-1s-.4-.9-.9-.9-.9.4-.9.9-.5,1-1,1-1-.5-1-1c0-1.6,1.3-3,2.9-3,1.6,0,3,1.3,3,2.9h0c0,.6-.5,1-1,1h0,0ZM0,0"/>
      <g>
        <g>
          <path class="st0" d="M216.9,34.3c0-7-5.7-12.7-12.7-12.7h-15.1c-.8,5.7-5.8,10.1-11.7,10.1-6,0-10.9-4.4-11.7-10.2h-15.5c-.8,5.7-5.8,10.1-11.7,10.1-6,0-10.9-4.4-11.7-10.2h-15.5c-.8,5.7-5.8,10.1-11.7,10.1-6,0-10.9-4.4-11.7-10.2h-15.5c-.8,5.7-5.8,10.1-11.7,10.1-6,0-10.9-4.4-11.7-10.2h-15.1c-7,0-12.7,5.7-12.7,12.7l-.3,233.8c0,7,5.7,12.7,12.7,12.7h15.1c0-.5-.1-1.1-.1-1.7,0-6.5,5.3-11.8,11.9-11.8,6.5,0,11.8,5.3,11.8,11.9,0,.6,0,1.1-.1,1.7h15.5c0-.5-.1-1.1-.1-1.7,0-6.5,5.3-11.8,11.9-11.8,6.5,0,11.8,5.3,11.8,11.9,0,.6,0,1.1-.1,1.7h15.5c0-.5-.1-1.1-.1-1.7,0-6.5,5.3-11.8,11.9-11.8,6.5,0,11.8,5.3,11.8,11.9,0,.6,0,1.1-.1,1.7h15.5c0-.5-.1-1.1-.1-1.7,0-6.5,5.3-11.8,11.9-11.8,6.5,0,11.8,5.3,11.8,11.9,0,.6,0,1.1-.1,1.7h15.1c7,0,12.7-5.7,12.7-12.7l.3-233.8Z"/>
          <path class="st7" d="M204,282.3h-16.8s.2-1.7.2-1.7c0-.5.1-1,.1-1.5,0-5.7-4.6-10.4-10.3-10.4h0c-5.7,0-10.3,4.6-10.3,10.3,0,.5,0,1,.1,1.5l.2,1.7h-18.9s.2-1.7.2-1.7c0-.5.1-1,.1-1.5,0-2.8-1.1-5.4-3-7.3-2-2-4.5-3-7.3-3h0c-5.7,0-10.3,4.6-10.3,10.3,0,.5,0,1,.1,1.5l.2,1.7h-18.9s.2-1.7.2-1.7c0-.5.1-1,.1-1.5,0-5.7-4.6-10.4-10.3-10.4h0c-5.7,0-10.3,4.6-10.3,10.3,0,.5,0,1,.1,1.5l.2,1.7h-18.9s.3-1.7.3-1.7c0-.5.1-1,.1-1.5,0-5.7-4.6-10.4-10.3-10.4h0c-5.7,0-10.3,4.6-10.3,10.3,0,.5,0,1,.1,1.5l.2,1.7h-16.8c-7.8,0-14.2-6.4-14.2-14.2l.3-233.8c0-3.8,1.5-7.4,4.2-10,2.7-2.7,6.2-4.1,10-4.1h16.4s.2,1.3.2,1.3c.7,5.1,5.1,8.9,10.2,8.9h0c5.1,0,9.5-3.8,10.2-8.9l.2-1.3h18.1s.2,1.3.2,1.3c.7,5.1,5.1,8.9,10.2,8.9h0c5.1,0,9.5-3.8,10.2-8.9l.2-1.3h18.1s.2,1.3.2,1.3c.7,5.1,5.1,8.9,10.2,8.9h0c5.1,0,9.5-3.8,10.2-8.9l.2-1.3h18.1s.2,1.3.2,1.3c.7,5.1,5.1,8.9,10.2,8.9h0c5.1,0,9.5-3.8,10.2-8.9l.2-1.3h16.4c7.8,0,14.2,6.4,14.2,14.2h0s-.3,233.8-.3,233.8c0,7.8-6.4,14.2-14.2,14.2ZM190.5,279.3h13.4s0,0,0,0c6.2,0,11.2-5,11.2-11.2l.3-233.8c0-6.2-5-11.2-11.2-11.2h-13.8c-1.5,5.9-6.8,10.1-13,10.1h0c-6.2,0-11.5-4.3-13-10.2h-13c-1.5,5.9-6.8,10.1-13,10.1h0c-6.2,0-11.5-4.3-13-10.2h-13c-1.5,5.9-6.8,10.1-13,10.1h0c-6.2,0-11.5-4.3-13-10.2h-13c-1.5,5.9-6.8,10.1-13,10.1h0c-6.2,0-11.5-4.3-13-10.2h-13.8s0,0,0,0c-3,0-5.8,1.2-7.9,3.3-2.1,2.1-3.3,4.9-3.3,7.9l-.3,233.8c0,6.2,5,11.2,11.2,11.2h13.4c0,0,0-.1,0-.2,0-7.4,6-13.3,13.3-13.3h0c7.4,0,13.3,6,13.3,13.4,0,0,0,.1,0,.2h12.2c0,0,0-.1,0-.2,0-7.4,6-13.3,13.3-13.3h0c7.4,0,13.3,6,13.3,13.4,0,0,0,.1,0,.2h12.2c0,0,0-.1,0-.2,0-7.4,6-13.3,13.3-13.3h0c3.6,0,6.9,1.4,9.4,3.9,2.5,2.5,3.9,5.9,3.9,9.4,0,0,0,.1,0,.2h12.2c0,0,0-.1,0-.2,0-7.4,6-13.3,13.3-13.3h0c7.4,0,13.3,6,13.3,13.4,0,0,0,.1,0,.2Z"/>
        </g>
        <rect class="st2" x="34.2" y="43.8" width="169.5" height="214.6" rx="12.7" ry="12.7"/>
        <g>
          <g>
            <path class="st5" d="M55.8,139.5c-6,0-9-3.4-9-7.6s1.4-5.9,4.2-8.3l15.6-13.6c4.3-3.9,6.6-6.6,6.6-10.8s-3.2-7-8-7-8.9,3.4-11,7.9l-9.6-5.4c3.7-8.2,11.4-14.3,21.7-14.3s19.5,8,19.5,17.6-2.9,12.6-8.3,17.2l-14.3,12.6h24.1v11.6h-31.5Z"/>
            <path class="st5" d="M86.7,110.6c0-17.5,9.9-30.1,24.6-30.1s24.6,12.6,24.6,30.1-9.8,30.1-24.6,30.1-24.6-13.2-24.6-30.1ZM123,110.6c0-10.1-5.2-17.3-11.7-17.3s-11.7,7.1-11.7,17.3,5.2,17.3,11.7,17.3,11.7-7.7,11.7-17.3Z"/>
            <path class="st5" d="M138.3,110.5c0-17.9,10.2-30.4,25.9-30.4s25.9,12.5,25.9,30.4-10.2,30.4-25.9,30.4-25.9-13.2-25.9-30.4ZM173.8,110.5c0-8.6-4.5-14-9.5-14s-9.5,5.4-9.5,14,4.5,14,9.5,14,9.5-6.2,9.5-14Z"/>
          </g>
          <g>
            <g>
              <circle class="st5" cx="184.7" cy="129.8" r="12.1"/>
              <path class="st2" d="M184.7,142.9c-7.2,0-13.1-5.9-13.1-13.1s5.9-13.1,13.1-13.1,13.1,5.9,13.1,13.1-5.9,13.1-13.1,13.1ZM184.7,118.7c-6.1,0-11.1,5-11.1,11.1s5,11.1,11.1,11.1,11.1-5,11.1-11.1-5-11.1-11.1-11.1Z"/>
            </g>
            <path class="st2" d="M180.1,133.6c0,0,0-.1.1-.2h.7c.2-.1.4,0,.4.2,0,.6.2,1.3.2,1.9,0,.2-.1.3-.3.4h-.5c-.3,0-.4,0-.4-.3,0-.2,0-.4,0-.6,0-.6-.2-.6-.3,0-.2.5-.3,1-.6,1.4-.1.1-.3.2-.4.1l-.7-.3c-.3-.1-.3-.4-.2-.6.3-.5.5-1.1.7-1.7,0-.3.2-.4.5-.3l.8.2c0,0,.1,0,.1,0h0ZM191.2,127.7h-1.9c-.2,0-.4.2-.4.4v1.2c0,.2.2.4.4.4h1.4c.2,0,.4.2.4.4v6.1c0,.2-.2.4-.4.4h-1.4c-.1,0-.2,0-.2-.2s0-.2-.2-.2h-1.7c-.2,0-.2,0-.2.2s0,.2-.2.2h-1.3c-.2,0-.4-.2-.4-.4v-.4c0-.3-.2-.5-.5-.3h-.3c-.2.2-.5,0-.5-.2-.2-.5-.4-1-.6-1.6s0-.5.2-.5h.2c.3-.2.3-.3,0-.2-1.8,0-3.6.2-5,.2-.2,0-.4-.1-.4-.4v-1c0-.2.1-.4.3-.4h1.9c.1,0,.2-.1.2-.3s0-.2-.2-.2h-1.5c-.2,0-.4-.2-.4-.4v-.8c0-.2.2-.4.4-.4h1.5c.1,0,.2,0,.2-.2s0-.2-.2-.2h-1.6c-.2,0-.4-.2-.4-.4v-5c0-.2.2-.4.4-.4h5.6c.2,0,.4.2.4.4v5c0,.2-.2.4-.4.4h-1.7c-.1,0-.2,0-.2.2s0,.2.2.2h1.6c.2,0,.4.2.4.4v.8c0,.2-.2.4-.4.4h-1.6c-.1,0-.2,0-.2.2s0,.2.2.2h1.9c.2,0,.4.1.4.3v.9c0,.2-.2.4-.4.4-.2,0-.3.2-.2.3.1.2.2.4.3.6.3.6.4.5.4,0v-3.7c0-.2.2-.4.4-.4h1.1c.2,0,.4-.2.4-.4v-6c0-.2.2-.4.4-.4h1.3c.2,0,.4.2.4.4v2.1c0,.2.2.4.4.4h1.9c.2,0,.4.2.4.4v1.2c0,.2-.2.4-.4.4ZM180.7,124.6h-.5c-.1,0-.2,0-.2.2h0c0,.2,0,.3.2.2h.2c.1,0,.2,0,.3,0,0,.1,0,.3.1.4.1.4.2.4.2,0v-.7c0-.1,0-.2-.2-.2ZM179.9,126.5v.8c0,.1,0,.2.2.2h.5c.1,0,.2,0,.2-.2h0c0-.3-.1-.3-.3-.3h-.2c-.2.1-.3,0-.3-.1,0-.1,0-.3,0-.4,0-.4-.1-.4-.1,0ZM181.9,133.3h.5c.2-.1.4,0,.4.2.2.6.3,1.2.4,1.8,0,.2,0,.4-.3.4h-.5c-.3.2-.4,0-.5-.3,0-.5-.2-1.1-.3-1.6,0-.2,0-.4.3-.5ZM183.2,124.9h0c0-.2,0-.3-.2-.3h-.6c-.1,0-.2,0-.2.2v.8c0,.5,0,.5.2,0,0-.2,0-.3.1-.5,0-.2.2-.2.3-.2h.1c.2.1.3,0,.3-.1ZM182.4,127.6h.6c.1,0,.2,0,.2-.2v-.6c0-.3,0-.4-.2,0,0,.1-.1.2-.2.4,0,.1-.2.2-.3.1h0c-.2-.1-.3,0-.3.1h0c0,.2,0,.3.2.3ZM189.1,134v-2.2c0-.1,0-.2-.2-.2h-1.7c-.1,0-.2,0-.2.2v2.2c0,.1,0,.2.2.2h1.7c.1,0,.2,0,.2-.2Z"/>
          </g>
        </g>
        <g>
          <path class="st5" d="M103.6,152.2l2.5,1.7c-.7,1-1.5,1.9-2.5,2.9s-2,1.9-3.1,2.8c-1.1.9-2.2,1.7-3.4,2.5-1.2.8-2.3,1.4-3.4,2-.2-.4-.6-.9-.9-1.4-.4-.5-.8-1-1.1-1.3,1.1-.4,2.2-1,3.4-1.7,1.2-.7,2.3-1.4,3.4-2.3,1.1-.8,2.1-1.7,3-2.6.9-.9,1.7-1.8,2.3-2.7ZM93.1,174h23.9v3h-23.9v-3ZM95.8,167.7h18.1v2.9h-18.1v-2.9ZM97.1,152.2h9.4v3.1h-9.4v-3.1ZM97.2,161.5h15.4v3h-15.4v-3ZM103,152.2h3.7c.6.9,1.3,1.8,2.2,2.6.8.9,1.8,1.7,2.8,2.5,1,.8,2.1,1.5,3.2,2.1,1.1.6,2.3,1.2,3.5,1.6-.2.2-.5.5-.8.9-.3.4-.6.7-.8,1.1-.3.4-.5.7-.7,1-1.6-.8-3.2-1.7-4.7-2.8s-2.9-2.3-4.2-3.5c-1.3-1.3-2.4-2.5-3.3-3.8h-.9v-1.8ZM103.1,162.8h3.5v12.9h-3.5v-12.9Z"/>
          <path class="st5" d="M121.4,171.2l2.2.8c-.2.9-.4,1.8-.7,2.7-.3,1-.6,1.8-1,2.5l-2.3-1c.3-.4.5-.9.7-1.5.2-.6.4-1.2.6-1.8.2-.6.3-1.2.4-1.8ZM120.3,168h12.7v2.5h-12.7v-2.5ZM120.8,152.2h11.9v10.6h-11.9v-10.6ZM120.8,164h11.8v2.5h-11.8v-2.5ZM123.2,155.7l1.4-.4c.2.6.4,1.3.6,2.1.2.7.3,1.4.3,1.9l-1.5.5c0-.5-.1-1.2-.3-2-.1-.8-.3-1.5-.6-2.1ZM123.3,154.5v6.1h6.8v-6.1h-6.8ZM124.1,172l2.1-.2c.1.8.2,1.6.3,2.5,0,.9,0,1.7,0,2.4l-2.2.3c0-.7,0-1.5,0-2.4,0-.9-.1-1.8-.3-2.5ZM125.6,153.4h2v8.4h.5v7.3h-3v-7.3h.5v-8.4ZM126.9,172l2-.4c.3.7.5,1.5.7,2.4.2.8.4,1.6.4,2.3l-2.1.4c0-.6-.2-1.4-.4-2.3-.2-.9-.4-1.7-.7-2.4ZM128.7,155.2l1.7.6c-.3.7-.5,1.4-.8,2.1-.3.7-.5,1.4-.7,1.9l-1.3-.5c.1-.4.3-.8.4-1.3s.3-1,.4-1.5c.1-.5.2-.9.3-1.3ZM129.7,171.9l2-.7c.4.7.8,1.5,1.2,2.3.4.8.6,1.6.8,2.2l-2.1.8c-.1-.6-.4-1.4-.7-2.2-.3-.8-.7-1.6-1.1-2.3ZM133.7,164.6h11.5v12.9h-3.2v-9.9h-5.2v10h-3v-13ZM135.3,173.5h8.1v3.1h-8.1v-3.1ZM137.4,151.4h3.2v14h-3.2v-14ZM139.3,157.2h6.7v3.1h-6.7v-3.1Z"/>
        </g>
      </g>
      <g>
        <g>
          <g>
            <path class="st8" d="M233.7,36c-1.2-2.4-1.2-5.3,0-7.7,1.3-2.5.5-5.5-1.9-7.1-2.3-1.5-3.7-4-3.9-6.7-.1-2.8-2.4-5-5.2-5.2-2.7-.1-5.2-1.6-6.7-3.9-1.5-2.4-4.6-3.2-7.1-1.9-2.4,1.2-5.3,1.2-7.7,0-.8-.4-1.7-.6-2.5-.6-1.8,0-3.5.9-4.6,2.5-1.5,2.3-4,3.7-6.7,3.9-2.8.1-5,2.4-5.2,5.2-.1,2.7-1.6,5.2-3.9,6.7-2.4,1.5-3.2,4.6-1.9,7.1,1.2,2.4,1.2,5.3,0,7.7-1.3,2.5-.5,5.5,1.9,7.1,2.3,1.5,3.7,4,3.9,6.7.1,2.8,2.4,5,5.2,5.2,2.7.1,5.2,1.6,6.7,3.9,1.5,2.4,4.6,3.2,7.1,1.9,2.4-1.2,5.3-1.2,7.7,0,2.5,1.3,5.5.5,7.1-1.9,1.5-2.3,4-3.7,6.7-3.9,2.8-.1,5-2.4,5.2-5.2.1-2.7,1.6-5.2,3.9-6.7,2.4-1.5,3.2-4.6,1.9-7.1Z"/>
            <path class="st7" d="M236.4,29.7c2-3.9.7-8.6-2.9-11-1.5-1-2.4-2.6-2.5-4.3-.2-4.4-3.7-7.8-8-8-1.7,0-3.4-1-4.3-2.5-2.4-3.7-7.1-4.9-11-2.9-1.6.8-3.4.8-5,0-3.9-2-8.6-.7-11,2.9-1,1.5-2.6,2.4-4.3,2.5-4.4.2-7.8,3.7-8,8,0,1.7-1,3.4-2.5,4.3-3.7,2.4-4.9,7.1-2.9,11,.8,1.6.8,3.4,0,5-2,3.9-.7,8.6,2.9,11,1.5,1,2.4,2.6,2.5,4.3.2,4.4,3.7,7.8,8,8,1.7,0,3.4,1,4.3,2.5,1.6,2.5,4.3,3.9,7.1,3.9s2.6-.3,3.9-.9c1.6-.8,3.4-.8,5,0,3.9,2,8.6.7,11-2.9,1-1.5,2.6-2.4,4.3-2.5,4.4-.2,7.8-3.7,8-8,0-1.7,1-3.4,2.5-4.3,3.7-2.4,4.9-7.1,2.9-11-.8-1.6-.8-3.4,0-5ZM231.8,43.1c-2.3,1.5-3.7,4-3.9,6.7-.1,2.8-2.4,5-5.2,5.2-2.7.1-5.2,1.6-6.7,3.9-1.5,2.4-4.6,3.2-7.1,1.9-2.4-1.2-5.3-1.2-7.7,0-2.5,1.3-5.5.5-7.1-1.9-1.5-2.3-4-3.7-6.7-3.9-2.8-.1-5-2.4-5.2-5.2-.1-2.7-1.6-5.2-3.9-6.7-2.4-1.5-3.2-4.6-1.9-7.1,1.2-2.4,1.2-5.3,0-7.7-1.3-2.5-.5-5.5,1.9-7.1,2.3-1.5,3.7-4,3.9-6.7.1-2.8,2.4-5,5.2-5.2,2.7-.1,5.2-1.6,6.7-3.9,1-1.6,2.8-2.5,4.6-2.5s1.7.2,2.5.6c2.4,1.2,5.3,1.2,7.7,0,2.5-1.3,5.5-.5,7.1,1.9,1.5,2.3,4,3.7,6.7,3.9,2.8.1,5,2.4,5.2,5.2.1,2.7,1.6,5.2,3.9,6.7,2.4,1.5,3.2,4.6,1.9,7.1-1.2,2.4-1.2,5.3,0,7.7,1.3,2.5.5,5.5-1.9,7.1Z"/>
          </g>
          <g class="st9">
            <circle class="st1" cx="218.9" cy="49.8" r="36.9"/>
          </g>
        </g>
        <g id="layer1">
          <path id="path26403" class="st3" d="M190.4,21.1c-2,0-3.7,1.7-3.7,3.7v14.7c0,2,1.7,3.7,3.7,3.7h29.4c2,0,3.7-1.7,3.7-3.7v-14.7c0-2-1.7-3.7-3.7-3.7h-29.4ZM193.5,26.9h3.7c1.7,0,3.2,1.4,3.2,3.2s-1.6,3.2-3.3,3.2h-2.4v2.9c0,.5-.4,1.2-1.2,1.2-.8,0-1.2-.7-1.2-1.2v-8.1c0-.6.5-1.2,1.2-1.2ZM205.6,26.9c2,0,3.6,1.6,3.6,3.6v5.6c0,.6-.5,1.2-1.2,1.2-.6,0-1.2-.5-1.2-1.2v-1.9h-2.6v1.9c0,.6-.5,1.2-1.2,1.2-.6,0-1.2-.5-1.2-1.2v-5.6c0-2,1.6-3.6,3.6-3.6ZM217.3,27c.3,0,.6,0,.9.2.5.4.6,1.1.2,1.6l-2.6,3.4v4c0,.6-.5,1.2-1.2,1.2-.6,0-1.2-.5-1.2-1.2v-4l-2.6-3.4c-.4-.5-.3-1.2.2-1.6.6-.5,1.3-.2,1.6.2l2,2.5,2-2.5c.2-.2.5-.4.8-.4h0ZM205.6,29.3c-.7,0-1.3.6-1.3,1.3v1.4h2.6v-1.4c0-.7-.6-1.3-1.3-1.3ZM194.6,29.3v1.7h2.5c.5,0,.9-.4.9-.9s-.4-.9-.9-.9h-2.5Z" vector-effect="none"/>
        </g>
      </g>
    </g>
  </g>
</svg>