<svg width="238" height="299" viewBox="0 0 238 299" fill="none" xmlns="http://www.w3.org/2000/svg"><path d="M217.47 34.34c0-7.01-5.67-12.7-12.68-12.7h-15.05c-.83 5.73-5.77 10.14-11.74 10.13-5.97 0-10.9-4.42-11.72-10.16h-15.47c-.83 5.73-5.77 10.14-11.73 10.13-5.97 0-10.9-4.42-11.72-10.16h-15.47c-.83 5.73-5.77 10.14-11.73 10.13-5.97 0-10.9-4.42-11.72-10.16H72.97c-.83 5.73-5.77 10.14-11.73 10.13-5.97 0-10.9-4.42-11.72-10.16H34.47c-7.01-.02-12.7 5.66-12.7 12.67l-.26 233.82c0 7.01 5.67 12.7 12.68 12.7h15.05c-.08-.54-.12-1.11-.12-1.68 0-6.54 5.31-11.84 11.86-11.84 6.54 0 11.84 5.31 11.84 11.86 0 .57-.04 1.14-.12 1.69h15.47c-.08-.54-.12-1.11-.12-1.68 0-6.54 5.31-11.84 11.86-11.84 6.54 0 11.84 5.31 11.84 11.86 0 .57-.04 1.14-.12 1.69h15.47c-.08-.54-.12-1.11-.12-1.68 0-6.54 5.31-11.84 11.86-11.84 6.54 0 11.84 5.31 11.84 11.86 0 .57-.04 1.14-.12 1.69h15.47c-.08-.54-.12-1.1-.12-1.68 0-6.54 5.31-11.84 11.86-11.84 6.54 0 11.84 5.31 11.84 11.86 0 .57-.04 1.14-.12 1.69h15.05c7.01.02 12.7-5.66 12.7-12.67l.26-233.82h-.03z" fill="#F9BA55"/><path d="M204.52 282.34h-16.8l.25-1.72c.07-.49.11-.99.11-1.48 0-5.7-4.63-10.35-10.34-10.35-2.76 0-5.36 1.07-7.31 3.02a10.29 10.29 0 00-3.04 7.31c0 .5.03 1 .1 1.47l.25 1.72-18.94-.02.25-1.71a10.312 10.312 0 00-2.91-8.8 10.29 10.29 0 00-7.31-3.04h-.01c-2.76 0-5.35 1.07-7.31 3.02a10.29 10.29 0 00-3.04 7.31c0 .49.03.99.1 1.48l.24 1.71-18.93-.02.25-1.71c.07-.48.1-.98.11-1.48 0-5.7-4.63-10.35-10.34-10.35-2.76 0-5.35 1.07-7.31 3.02a10.29 10.29 0 00-3.04 7.31c0 .49.03.99.1 1.48l.24 1.71-18.94-.02.25-1.72c.07-.48.11-.98.11-1.48 0-5.7-4.63-10.35-10.34-10.35-5.7 0-10.34 4.64-10.35 10.34 0 .49.03.99.1 1.48l.24 1.71H34.18c-7.82-.02-14.19-6.39-14.18-14.21l.26-233.82c0-3.79 1.48-7.35 4.16-10.03 2.68-2.65 6.22-4.1 10.04-4.12h16.35l.18 1.3c.72 5.06 5.12 8.87 10.24 8.88 5.11 0 9.51-3.81 10.24-8.86l.19-1.29h18.07l.18 1.3c.72 5.06 5.12 8.87 10.23 8.87s9.51-3.81 10.24-8.86l.19-1.29h18.07l.18 1.3c.72 5.06 5.12 8.87 10.23 8.87s9.51-3.81 10.24-8.86l.19-1.29h18.07l.18 1.3c.72 5.06 5.12 8.87 10.23 8.88 5.11 0 9.51-3.81 10.24-8.86l.19-1.29h16.35c7.83.02 14.19 6.39 14.18 14.21l-.26 233.82c0 3.79-1.48 7.35-4.17 10.03a14.119 14.119 0 01-10.02 4.15l.05.03zm-13.45-3.01h13.44c2.99 0 5.79-1.16 7.91-3.27 2.12-2.11 3.28-4.92 3.28-7.91l.26-233.82c0-6.17-5.01-11.2-11.19-11.2h-13.82c-1.45 5.86-6.81 10.13-12.96 10.13h-.01c-6.16 0-11.51-4.29-12.95-10.16h-13c-1.45 5.86-6.81 10.13-12.96 10.13h-.01c-6.16 0-11.51-4.29-12.95-10.16h-13c-1.45 5.86-6.81 10.13-12.96 10.13h-.01c-6.16 0-11.51-4.29-12.95-10.16h-13c-1.45 5.86-6.81 10.13-12.96 10.13h-.01c-6.16 0-11.51-4.29-12.95-10.16H34.45c-2.99 0-5.79 1.16-7.91 3.27a11.079 11.079 0 00-3.28 7.91L23 268.01c0 6.17 5.01 11.2 11.18 11.2h13.43v-.18c0-7.36 6-13.34 13.35-13.34 7.36 0 13.34 6 13.34 13.36v.19h12.23v-.18c0-7.36 5.99-13.34 13.35-13.34h.01c7.36 0 13.34 6 13.33 13.36v.19h12.23v-.18c0-3.56 1.39-6.92 3.92-9.43 2.52-2.52 5.87-3.9 9.43-3.9h.01c3.57 0 6.92 1.39 9.44 3.92 2.52 2.52 3.9 5.88 3.9 9.44v.19h12.23v-.18c0-3.57 1.39-6.92 3.92-9.44 2.52-2.52 5.87-3.9 9.43-3.9h.01c7.36 0 13.34 6 13.34 13.36v.19l-.01-.01z" fill="#58393E"/><path d="M191.56 43.85H47.41c-7.002 0-12.68 5.677-12.68 12.68V245.8c0 7.003 5.678 12.68 12.68 12.68h144.15c7.003 0 12.68-5.677 12.68-12.68V56.53c0-7.003-5.677-12.68-12.68-12.68z" fill="#FEF7E0"/><path d="M56.391 139.571c-6.02 0-9.03-3.44-9.03-7.57 0-3.27 1.38-5.93 4.21-8.34l15.57-13.59c4.3-3.87 6.62-6.62 6.62-10.75 0-3.78-3.18-6.97-8-6.97s-8.94 3.44-11.01 7.91l-9.63-5.42c3.7-8.17 11.44-14.28 21.67-14.28 11.52 0 19.52 8 19.52 17.63 0 7.31-2.92 12.56-8.26 17.2l-14.28 12.56h24.08v11.61h-31.48l.02.01z" fill="#D93636"/><path d="M87.272 110.67c0-17.46 9.89-30.1 24.599-30.1 14.71 0 24.6 12.64 24.6 30.1s-9.8 30.1-24.6 30.1-24.6-13.24-24.6-30.1zm36.289 0c0-10.15-5.16-17.29-11.7-17.29-6.54 0-11.7 7.14-11.7 17.29 0 9.55 5.25 17.29 11.7 17.29 6.45 0 11.7-7.74 11.7-17.29zm15.3-.08c0-17.89 10.23-30.36 25.89-30.36s25.89 12.47 25.89 30.36-10.23 30.36-25.89 30.36-25.89-13.24-25.89-30.36zm35.44 0c0-8.6-4.47-14.02-9.55-14.02-5.08 0-9.55 5.42-9.55 14.02 0 7.83 4.47 14.02 9.55 14.02 5.08 0 9.55-6.19 9.55-14.02z" fill="#D93636"/><path d="M185.291 141.93c6.683 0 12.1-5.417 12.1-12.1 0-6.682-5.417-12.1-12.1-12.1-6.682 0-12.1 5.418-12.1 12.1 0 6.683 5.418 12.1 12.1 12.1z" fill="#D93636"/><path d="M185.291 142.93c-7.22 0-13.1-5.87-13.1-13.1 0-7.23 5.87-13.1 13.1-13.1 7.23 0 13.1 5.87 13.1 13.1 0 7.23-5.87 13.1-13.1 13.1zm0-24.19c-6.12 0-11.1 4.98-11.1 11.1 0 6.12 4.98 11.1 11.1 11.1 6.12 0 11.1-4.98 11.1-11.1 0-6.12-4.98-11.1-11.1-11.1z" fill="#FEF7E0"/><path d="M181.831 128.97h2.17c-.06.84-.16 1.63-.3 2.38-.14.75-.36 1.44-.68 2.09-.31.65-.77 1.24-1.36 1.78-.59.54-1.37 1-2.35 1.38-.11-.25-.29-.54-.52-.87-.24-.32-.47-.58-.71-.77.83-.3 1.49-.67 1.97-1.09.48-.42.84-.88 1.09-1.39.24-.51.41-1.05.49-1.65.09-.59.15-1.21.19-1.86h.01zm-3.36-1.55h13.68v1.96h-13.68v-1.96zm1.4-4.09h10.86v1.94h-10.86v-1.94zm6.24 5.39h2.1v5.09c0 .3.03.49.09.57.06.08.21.11.44.11h1.21c.16 0 .28-.06.36-.19.08-.13.14-.37.18-.73.04-.36.07-.9.09-1.62.15.11.34.22.56.33.22.11.45.21.69.3.24.09.44.15.61.21-.07.92-.18 1.64-.33 2.16-.15.52-.38.89-.7 1.1-.31.21-.74.32-1.28.32h-1.75c-.6 0-1.06-.08-1.4-.24a1.3 1.3 0 01-.7-.8c-.13-.38-.2-.88-.2-1.52v-5.1l.03.01z" fill="#FEF7E0"/><path d="M79.47 152.34h24.051v25.34h-3.67v-21.9H82.97v21.9h-3.5v-25.34zm1.99 20.69h20.471v3.14h-20.47v-3.14zm4.2-13.97h11.48v10.72H85.66v-10.72zm3.16 2.94v4.87h4.93V162h-4.93zm22.911-10.98l2.63.95c-.52.97-1.15 1.93-1.89 2.87a22.215 22.215 0 01-5.06 4.72c-.06-.22-.16-.53-.32-.91s-.33-.77-.5-1.18c-.18-.4-.34-.71-.49-.94 1.08-.63 2.14-1.44 3.18-2.42s1.85-2.01 2.45-3.09zm-3.92 26.6c-.06-.26-.14-.56-.25-.91a15 15 0 00-.36-1.01c-.13-.33-.28-.6-.45-.83.26-.13.51-.32.76-.56.25-.24.36-.62.36-1.15v-13.27h2.86v15.6c-.58.26-1.06.5-1.46.71-.39.21-.73.45-1.02.7-.29.25-.43.49-.43.71l-.01.01zm0 0l-.34-2.55 1.12-.95 6.36-2.13c.04.39.11.83.21 1.32.1.49.19.88.27 1.18l-3.64 1.37c-.93.35-1.67.64-2.2.85-.53.21-.92.39-1.18.53-.25.14-.45.27-.6.38zm1.87-13.86h5.43v2.32h-5.43v-2.32zm.31-3.86h6.52v10.08h-6.58v-2.41h3.67v-5.26h-3.61v-2.41zm.25-3.22h4.96v2.21h-4.96v-2.21zm1.29-2.02l1.32-2.35c.5.22 1.05.48 1.65.76.6.28 1.18.56 1.75.84.57.28 1.03.52 1.39.73l-1.37 2.6c-.35-.22-.81-.49-1.36-.8-.55-.31-1.12-.62-1.72-.94-.6-.32-1.15-.6-1.65-.84h-.01zm.98 16.52l2.27-.98c.32.58.65 1.21.99 1.89.35.68.67 1.33.97 1.96.3.62.54 1.17.73 1.64l-2.44 1.2c-.15-.49-.37-1.06-.66-1.72-.29-.66-.6-1.34-.92-2.04-.33-.7-.64-1.35-.94-1.95zm4.79-12.23h15.32v2.38h-15.32v-2.38zm4.11 13.89l2.97.92c-.56.78-1.28 1.53-2.16 2.24-.88.71-1.76 1.29-2.66 1.74-.15-.21-.36-.45-.63-.73-.27-.28-.55-.56-.84-.84-.29-.28-.55-.5-.77-.67.8-.34 1.57-.73 2.31-1.19.74-.46 1.33-.95 1.78-1.47zm-3.02-19.89h13.16v5.1h-13.16v-5.1zm.11 9.25h12.77v10.67h-12.77V162.2zm2.63-7.34v1.26h7.5v-1.26h-7.5zm.37 9.24v1.06h6.64v-1.06h-6.64zm0 2.85v1.09h6.64v-1.09h-6.64zm0 2.92v1.09h6.64v-1.09h-6.64zm1.93-18.48h3.05v8.99h-3.05v-8.99zm2.24 22.62l1.99-1.65c.63.37 1.27.78 1.92 1.22.64.44 1.25.87 1.83 1.29.58.42 1.06.8 1.46 1.13l-2.52 1.68c-.34-.34-.77-.72-1.3-1.15-.53-.43-1.09-.86-1.67-1.3-.58-.44-1.15-.84-1.71-1.22zm21.42-22.931l3.19 1.43a21.203 21.203 0 01-3.78 4.4 27.179 27.179 0 01-4.77 3.37 35.78 35.78 0 01-5.42 2.45c-.24-.49-.57-1.02-.98-1.6-.41-.58-.84-1.08-1.29-1.51 1.77-.52 3.49-1.18 5.15-1.97a23.02 23.02 0 004.54-2.84c1.36-1.1 2.48-2.34 3.36-3.72v-.01zm-11.76 22.93h24.36v3.08h-24.36v-3.08zm1.34-8.51h21.56v3.02h-21.56v-3.02zm1.85 3.98l2.72-1.15c.35.49.7 1.01 1.04 1.57.34.56.65 1.11.94 1.64.29.53.5 1.02.63 1.47l-2.88 1.26c-.13-.43-.33-.92-.59-1.48-.26-.56-.55-1.13-.87-1.71-.32-.58-.64-1.11-.98-1.6h-.01zm1.4-9.97h14.98v3.08h-14.98v-3.08zm5.71 1.45h3.61v14.5h-3.61v-14.5zm3.08-8.09c.65.69 1.44 1.37 2.37 2.04.92.67 1.94 1.31 3.04 1.9 1.1.6 2.24 1.14 3.42 1.62 1.18.49 2.34.89 3.5 1.2-.24.22-.51.51-.81.87-.3.35-.58.71-.85 1.08-.27.36-.49.69-.66.97-1.16-.39-2.32-.88-3.5-1.47-1.18-.59-2.33-1.25-3.46-1.97a33.3 33.3 0 01-3.18-2.32 22.04 22.04 0 01-2.63-2.55l2.77-1.37h-.01zm4.68 15.51l3.22 1.15c-.54.88-1.09 1.74-1.65 2.59-.56.85-1.07 1.57-1.54 2.17l-2.52-1.06c.3-.45.6-.95.91-1.5.31-.55.6-1.12.88-1.71.28-.59.51-1.13.7-1.64z" fill="#D93636"/><path d="M234.268 36.025a8.457 8.457 0 010-7.711c1.28-2.5.47-5.55-1.9-7.081a8.487 8.487 0 01-3.86-6.681 5.446 5.446 0 00-5.179-5.181 8.485 8.485 0 01-6.68-3.86 5.458 5.458 0 00-7.08-1.9 8.454 8.454 0 01-7.71 0 5.438 5.438 0 00-7.08 1.89 8.485 8.485 0 01-6.68 3.86 5.446 5.446 0 00-5.179 5.18 8.487 8.487 0 01-3.86 6.682 5.46 5.46 0 00-1.9 7.08 8.457 8.457 0 010 7.712 5.437 5.437 0 001.9 7.071 8.488 8.488 0 013.86 6.681 5.446 5.446 0 005.179 5.181c2.71.14 5.21 1.58 6.68 3.86a5.448 5.448 0 007.07 1.901 8.454 8.454 0 017.71 0c2.51 1.29 5.55.47 7.08-1.9a8.485 8.485 0 016.68-3.86 5.446 5.446 0 005.179-5.182 8.488 8.488 0 013.86-6.68 5.46 5.46 0 001.9-7.082l.01.02z" fill="#8290E2"/><path d="M236.938 29.674a8.428 8.428 0 00-2.94-10.962 5.478 5.478 0 01-2.49-4.31 8.44 8.44 0 00-8.029-8.031 5.476 5.476 0 01-4.31-2.49A8.435 8.435 0 00208.209.94c-1.56.8-3.42.8-4.98 0a8.423 8.423 0 00-10.959 2.94 5.476 5.476 0 01-4.31 2.49 8.44 8.44 0 00-8.03 8.032 5.478 5.478 0 01-2.49 4.31 8.438 8.438 0 00-2.94 10.962c.8 1.56.8 3.42 0 4.98a8.427 8.427 0 002.94 10.963c1.47.95 2.4 2.56 2.49 4.31a8.424 8.424 0 008.03 8.022c1.75.09 3.36 1.02 4.31 2.49a8.44 8.44 0 007.089 3.88c1.31 0 2.63-.3 3.87-.94 1.56-.8 3.42-.8 4.98 0 3.88 1.99 8.6.73 10.96-2.94.95-1.47 2.56-2.4 4.31-2.49a8.438 8.438 0 008.029-8.022 5.478 5.478 0 012.49-4.31 8.438 8.438 0 002.94-10.962c-.8-1.56-.8-3.42 0-4.98zm-4.57 13.422a8.49 8.49 0 00-3.859 6.681 5.446 5.446 0 01-5.18 5.181 8.485 8.485 0 00-6.68 3.86 5.448 5.448 0 01-7.08 1.901 8.454 8.454 0 00-7.71 0 5.433 5.433 0 01-7.07-1.9 8.482 8.482 0 00-6.679-3.86 5.446 5.446 0 01-5.18-5.182 8.488 8.488 0 00-3.86-6.68 5.45 5.45 0 01-1.9-7.072 8.457 8.457 0 000-7.711 5.45 5.45 0 011.9-7.081 8.487 8.487 0 003.86-6.681 5.446 5.446 0 015.18-5.181 8.482 8.482 0 006.679-3.86 5.438 5.438 0 017.08-1.89 8.454 8.454 0 007.71 0 5.45 5.45 0 017.08 1.9 8.485 8.485 0 006.68 3.86c2.81.14 5.04 2.37 5.18 5.18a8.489 8.489 0 003.859 6.682 5.46 5.46 0 011.9 7.08 8.457 8.457 0 000 7.712 5.45 5.45 0 01-1.9 7.081l-.01-.02z" fill="#58393E"/><mask id="mask0_1231_930" style="mask-type:luminance" maskUnits="userSpaceOnUse" x="176" y="3" width="59" height="59"><path d="M234.268 36.025a8.457 8.457 0 010-7.711c1.28-2.5.47-5.55-1.9-7.081a8.487 8.487 0 01-3.86-6.681 5.446 5.446 0 00-5.179-5.181 8.485 8.485 0 01-6.68-3.86 5.458 5.458 0 00-7.08-1.9 8.454 8.454 0 01-7.71 0 5.438 5.438 0 00-7.08 1.89 8.485 8.485 0 01-6.68 3.86 5.446 5.446 0 00-5.179 5.18 8.487 8.487 0 01-3.86 6.682 5.46 5.46 0 00-1.9 7.08 8.457 8.457 0 010 7.712 5.437 5.437 0 001.9 7.071 8.488 8.488 0 013.86 6.681 5.446 5.446 0 005.179 5.181c2.71.14 5.21 1.58 6.68 3.86a5.448 5.448 0 007.07 1.901 8.454 8.454 0 017.71 0c2.51 1.29 5.55.47 7.08-1.9a8.485 8.485 0 016.68-3.86 5.446 5.446 0 005.179-5.182 8.488 8.488 0 013.86-6.68 5.46 5.46 0 001.9-7.082l.01.02z" fill="#fff"/></mask><g mask="url(#mask0_1231_930)"><path d="M219.519 86.723c20.401 0 36.939-16.541 36.939-36.946 0-20.404-16.538-36.946-36.939-36.946S182.58 29.373 182.58 49.777c0 20.405 16.538 36.946 36.939 36.946z" fill="#5975CE" opacity=".5"/></g><path d="M205.719 15.132c-10.13 0-18.369 6.69-18.369 14.912 0 7.371 6.539 13.542 15.359 14.712.6.13 1.41.39 1.62.91.19.46.12 1.19.06 1.66 0 0-.22 1.301-.26 1.571-.08.46-.37 1.82 1.59.99 1.96-.82 10.58-6.23 14.43-10.671 2.66-2.92 3.94-5.891 3.94-9.172 0-8.221-8.24-14.912-18.37-14.912zm-6.48 19.313c0 .19-.15.34-.34.34h-5.17c-.19 0-.34-.15-.34-.34v-8.011c0-.19.15-.34.34-.34h1.31c.19 0 .34.15.34.34v6.37h3.51c.19 0 .34.15.34.34v1.3h.01zm3.11-.01c0 .19-.16.35-.35.35h-1.3c-.19 0-.35-.16-.35-.35v-8.021c0-.19.16-.35.35-.35h1.3c.19 0 .35.16.35.35v8.02zm8.86-.02c0 .19-.15.34-.34.34h-1.29s-.06 0-.09-.01h-.1s-.07-.07-.09-.1l-3.67-4.96v4.81c0 .19-.15.34-.34.34h-1.3c-.19 0-.34-.15-.34-.34v-8.021c0-.19.15-.34.34-.34h1.48l.01.01h.02l.01.01.02.02.02.02s.02.02.03.04l3.67 4.95v-4.76c0-.19.15-.34.34-.34h1.3c.19 0 .34.16.34.35v8l-.02-.02zm7.12-6.681c0 .19-.15.34-.34.34h-3.51v1.35h3.51c.19 0 .34.15.34.34v1.32c0 .19-.15.34-.34.34h-3.51v1.35h3.51c.19 0 .34.15.34.34v1.3c0 .19-.14.35-.33.36h-5.18c-.19 0-.34-.15-.34-.34v-8.02c0-.19.15-.34.34-.34h5.17c.19 0 .34.15.34.34v1.32z" fill="#fff"/></svg>