<svg width="236" height="140" viewBox="0 0 236 140" fill="none" xmlns="http://www.w3.org/2000/svg"><g clip-path="url(#clip0_1226_916)"><path d="M117.92 53.086c-84.22 0-111.55-33.11-116.13-47.58-.18.65-.29 1.33-.29 2.04v122.94a7.47 7.47 0 007.47 7.47h217.91a7.47 7.47 0 007.47-7.47V7.546c0-.71-.1-1.39-.29-2.04-4.58 14.47-31.91 47.58-116.13 47.58h-.01z" fill="#D93636"/><path d="M226.88 139.446H8.97c-4.94 0-8.97-4.02-8.97-8.97V7.536c0-.81.12-1.64.34-2.44L1.7.286l1.51 4.77c2.4 7.58 10.89 19.01 27.51 28.36 21.44 12.06 50.77 18.17 87.2 18.17s65.76-6.11 87.2-18.17c16.62-9.35 25.1-20.78 27.51-28.36l1.51-4.77 1.36 4.81c.23.81.34 1.63.34 2.44v122.94c0 4.94-4.02 8.97-8.97 8.97h.01zM3 11.956v118.53a5.98 5.98 0 005.97 5.97h217.91a5.98 5.98 0 005.97-5.97V11.956c-10.11 18.09-42.67 42.63-114.92 42.63S13.11 30.056 3 11.956z" fill="#58393E"/><path d="M211.58 122.036c0 3.53 2.86 6.39 6.39 6.39s6.39-2.86 6.39-6.39h-12.78zm-15.96 0c0 3.53 2.86 6.39 6.39 6.39s6.39-2.86 6.39-6.39h-12.78zm7.981-8.38c0 3.53 2.86 6.39 6.39 6.39s6.39-2.86 6.39-6.39h-12.78zM27.45 52.346c0 3.53 2.86 6.39 6.39 6.39s6.39-2.86 6.39-6.39H27.45zm-15.96 0c0 3.53 2.86 6.39 6.39 6.39s6.39-2.86 6.39-6.39H11.49zm7.98-8.38c0 3.53 2.86 6.39 6.39 6.39s6.39-2.86 6.39-6.39H19.47z" fill="#FBD5A2"/></g><defs><clipPath id="clip0_1226_916"><path fill="#fff" d="M0 0h236v140H0z"/></clipPath></defs></svg>