<svg width="236" height="199" viewBox="0 0 236 199" fill="none" xmlns="http://www.w3.org/2000/svg"><g clip-path="url(#clip0_1226_849)"><path d="M234.05 64.695c0 29.64-51.99 53.67-116.13 53.67-64.14 0-116.12-24.03-116.12-53.67s51.99-63.67 116.13-63.67c64.14 0 116.13 34.03 116.13 63.67h-.01z" fill="#AA1D1D"/><path d="M117.92 119.865c-31.23 0-60.62-5.63-82.74-15.86C12.68 93.615.3 79.645.3 64.695c0-14.95 12.99-31.6 34.76-44.25C58.28 6.955 87.71-.475 117.93-.475c30.22 0 59.65 7.43 82.87 20.92 21.76 12.65 34.76 29.19 34.76 44.25 0 15.06-12.39 28.92-34.88 39.31-22.13 10.23-51.51 15.86-82.74 15.86h-.02zm0-117.34c-29.7 0-58.59 7.29-81.36 20.52-20.83 12.1-33.26 27.67-33.26 41.65 0 28.77 51.42 52.17 114.63 52.17 63.21 0 114.63-23.4 114.63-52.17 0-13.98-12.44-29.55-33.27-41.65-22.77-13.23-51.66-20.52-81.36-20.52h-.01z" fill="#58393E"/></g><defs><clipPath id="clip0_1226_849"><path fill="#fff" d="M0 0h236v199H0z"/></clipPath></defs></svg>