<svg width="238" height="299" viewBox="0 0 238 299" fill="none" xmlns="http://www.w3.org/2000/svg"><path d="M217.46 34.292c0-7.01-5.67-12.7-12.68-12.7h-15.05c-.83 5.73-5.77 10.14-11.74 10.13-5.97 0-10.9-4.42-11.72-10.16H150.8c-.83 5.73-5.77 10.14-11.73 10.13-5.97 0-10.9-4.42-11.72-10.16h-15.47c-.83 5.73-5.77 10.14-11.73 10.13-5.97 0-10.9-4.42-11.72-10.16H72.96c-.83 5.73-5.77 10.14-11.73 10.13-5.97 0-10.9-4.42-11.72-10.16H34.46c-7.01-.02-12.7 5.66-12.7 12.67l-.26 233.82c0 7.01 5.67 12.7 12.68 12.7h15.05c-.08-.54-.12-1.11-.12-1.68 0-6.54 5.31-11.84 11.86-11.84 6.54 0 11.84 5.31 11.84 11.86 0 .57-.04 1.14-.12 1.69h15.47c-.08-.54-.12-1.11-.12-1.68 0-6.54 5.31-11.84 11.86-11.84 6.54 0 11.84 5.31 11.84 11.86 0 .57-.04 1.14-.12 1.69h15.47c-.08-.54-.12-1.11-.12-1.68 0-6.54 5.31-11.84 11.86-11.84 6.54 0 11.84 5.31 11.84 11.86 0 .57-.04 1.14-.12 1.69h15.47c-.08-.54-.12-1.1-.12-1.68 0-6.54 5.31-11.84 11.86-11.84 6.54 0 11.84 5.31 11.84 11.86 0 .57-.04 1.14-.12 1.69h15.05c7.01.02 12.7-5.66 12.7-12.67l.26-233.82h-.03z" fill="#FF8D45"/><path d="M204.51 282.292h-16.8l.25-1.72c.07-.49.11-.99.11-1.48 0-5.7-4.63-10.35-10.34-10.35-2.76 0-5.36 1.07-7.31 3.02a10.29 10.29 0 00-3.04 7.31c0 .5.03 1 .1 1.47l.25 1.72-18.94-.02.25-1.71a10.312 10.312 0 00-2.91-8.8 10.29 10.29 0 00-7.31-3.04h-.01c-2.76 0-5.35 1.07-7.31 3.02a10.29 10.29 0 00-3.04 7.31c0 .49.04.99.1 1.48l.24 1.71-18.93-.02.25-1.71c.07-.48.1-.98.11-1.48 0-5.7-4.63-10.35-10.34-10.35-2.76 0-5.35 1.07-7.31 3.02a10.29 10.29 0 00-3.04 7.31c0 .49.03.99.1 1.48l.24 1.71-18.93-.02.25-1.72c.07-.48.11-.98.11-1.48 0-5.7-4.63-10.35-10.34-10.35-5.7 0-10.34 4.64-10.35 10.34 0 .49.03.99.1 1.48l.24 1.71H34.18c-7.82-.02-14.19-6.39-14.18-14.21l.26-233.82c0-3.79 1.48-7.35 4.16-10.03 2.68-2.68 6.24-4.15 10.03-4.15h16.36l.18 1.3c.72 5.06 5.12 8.87 10.24 8.88 5.11 0 9.51-3.81 10.24-8.86l.19-1.29h18.07l.18 1.3c.72 5.06 5.12 8.87 10.23 8.87s9.51-3.81 10.24-8.86l.19-1.29h18.07l.18 1.3c.72 5.06 5.12 8.87 10.23 8.87s9.51-3.81 10.24-8.86l.19-1.29h18.07l.18 1.3c.72 5.06 5.12 8.87 10.23 8.88 5.11 0 9.51-3.81 10.24-8.86l.19-1.29h16.35c7.83.02 14.19 6.39 14.18 14.21l-.26 233.82c0 7.82-6.37 14.18-14.19 14.18l.04.06zm-13.45-3.01h13.44c6.17 0 11.18-5.01 11.19-11.18l.26-233.82c0-6.17-5.01-11.2-11.19-11.2h-13.81c-1.45 5.86-6.81 10.13-12.96 10.13h-.01c-6.16 0-11.51-4.29-12.95-10.16h-13c-1.45 5.86-6.81 10.13-12.96 10.13h-.01c-6.16 0-11.51-4.29-12.95-10.16h-13c-1.45 5.86-6.81 10.13-12.96 10.13h-.01c-6.16 0-11.51-4.29-12.95-10.16h-13c-1.45 5.86-6.81 10.13-12.96 10.13h-.01c-6.16 0-11.51-4.29-12.95-10.16H34.45c-2.99 0-5.79 1.16-7.91 3.27a11.079 11.079 0 00-3.28 7.91L23 267.962c0 6.17 5.01 11.2 11.18 11.2h13.43v-.18c0-7.36 6-13.34 13.35-13.34 7.36 0 13.34 6 13.34 13.36v.19h12.23v-.18c0-7.36 5.99-13.34 13.35-13.34h.01c7.36 0 13.34 6 13.33 13.36v.19h12.23v-.18c0-3.57 1.39-6.92 3.92-9.44 2.52-2.52 5.87-3.9 9.43-3.9h.01c3.57 0 6.92 1.39 9.44 3.92 2.52 2.52 3.9 5.88 3.9 9.44v.19h12.23v-.18c0-3.57 1.39-6.92 3.92-9.44 2.52-2.52 5.87-3.9 9.43-3.9h.01c7.36 0 13.34 6 13.34 13.36v.19h-.02z" fill="#58393E"/><path d="M191.55 43.802H47.4c-7.003 0-12.68 5.677-12.68 12.68v189.27c0 7.003 5.677 12.68 12.68 12.68h144.15c7.003 0 12.68-5.677 12.68-12.68V56.482c0-7.003-5.677-12.68-12.68-12.68z" fill="#FEF7E0"/><path d="M70.58 128.943l12.9-8.08c1.63 3.78 4.47 6.19 8.51 6.19 3.53 0 5.93-2.32 5.93-5.33 0-4.13-2.49-5.76-7.05-5.76h-7.83c-6.62 0-10.58-3.87-10.58-10.41v-24.17h37.579v13.76h-23.82v7.48h7.31c12.47 0 20.04 5.68 20.04 18.06 0 12.38-8.69 20.12-21.59 20.12-9.98 0-17.63-4.47-21.41-11.87l.01.01zm47.73-18.4c0-17.89 10.23-30.36 25.89-30.36s25.89 12.47 25.89 30.36-10.23 30.36-25.89 30.36-25.89-13.24-25.89-30.36zm35.43 0c0-8.6-4.47-14.02-9.55-14.02-5.08 0-9.55 5.42-9.55 14.02 0 7.83 4.47 14.02 9.55 14.02 5.08 0 9.55-6.19 9.55-14.02z" fill="#D93636"/><path d="M171.669 141.883c6.683 0 12.1-5.418 12.1-12.1 0-6.683-5.417-12.1-12.1-12.1-6.682 0-12.1 5.417-12.1 12.1 0 6.682 5.418 12.1 12.1 12.1z" fill="#D93636"/><path d="M171.669 142.883c-7.22 0-13.1-5.87-13.1-13.1 0-7.23 5.87-13.1 13.1-13.1 7.23 0 13.1 5.87 13.1 13.1 0 7.23-5.87 13.1-13.1 13.1zm0-24.19c-6.12 0-11.1 4.98-11.1 11.1 0 6.12 4.98 11.1 11.1 11.1 6.12 0 11.1-4.98 11.1-11.1 0-6.12-4.98-11.1-11.1-11.1z" fill="#FEF7E0"/><path d="M168.209 128.923h2.17c-.06.84-.16 1.63-.3 2.38-.14.75-.36 1.44-.68 2.09-.31.65-.77 1.24-1.36 1.78-.59.54-1.37 1-2.35 1.38-.11-.25-.29-.54-.52-.87-.24-.32-.47-.58-.71-.77.83-.3 1.49-.67 1.97-1.09.48-.42.84-.88 1.09-1.39.24-.51.41-1.05.49-1.65.09-.59.15-1.21.19-1.86h.01zm-3.35-1.55h13.68v1.96h-13.68v-1.96zm1.39-4.09h10.86v1.94h-10.86v-1.94zm6.24 5.39h2.1v5.09c0 .3.03.49.09.57.06.08.21.11.44.11h1.21c.16 0 .28-.06.36-.19.08-.13.14-.37.18-.73.04-.36.07-.9.09-1.62.15.11.34.22.56.33.22.11.45.21.69.3.24.09.44.15.61.21-.07.92-.18 1.64-.33 2.16-.15.52-.38.89-.7 1.1-.31.21-.74.32-1.28.32h-1.75c-.6 0-1.06-.08-1.4-.24a1.3 1.3 0 01-.7-.8c-.13-.38-.2-.88-.2-1.52v-5.1l.03.01z" fill="#FEF7E0"/><path d="M79.46 152.292h24.05v25.34h-3.67v-21.9H82.96v21.9h-3.5v-25.34zm1.99 20.69h20.47v3.14H81.45v-3.14zm4.2-13.97h11.48v10.72H85.65v-10.72zm3.16 2.94v4.87h4.93v-4.87h-4.93zm22.91-10.98l2.63.95c-.52.97-1.15 1.93-1.89 2.87a22.215 22.215 0 01-5.06 4.72c-.06-.22-.16-.53-.32-.91s-.33-.77-.5-1.18c-.18-.4-.34-.71-.49-.94 1.08-.63 2.14-1.44 3.18-2.42s1.85-2.01 2.45-3.09zm-3.92 26.6c-.06-.26-.14-.56-.25-.91a15 15 0 00-.36-1.01c-.13-.33-.28-.6-.45-.83.26-.13.51-.32.76-.56.25-.24.36-.62.36-1.15v-13.27h2.86v15.6c-.58.26-1.06.5-1.46.71-.39.21-.73.45-1.02.7-.29.25-.43.49-.43.71l-.01.01zm0 0l-.34-2.55 1.12-.95 6.36-2.13c.04.39.11.83.21 1.32.1.49.19.88.27 1.18l-3.64 1.37c-.93.35-1.67.64-2.2.85-.53.21-.92.39-1.18.53-.25.14-.45.27-.6.38zm1.87-13.86h5.43v2.32h-5.43v-2.32zm.31-3.86h6.52v10.08h-6.58v-2.41h3.67v-5.26h-3.61v-2.41zm.25-3.22h4.96v2.21h-4.96v-2.21zm1.29-2.02l1.32-2.35c.5.22 1.05.48 1.65.76.6.28 1.18.56 1.75.84.57.28 1.03.52 1.39.73l-1.37 2.6c-.35-.22-.81-.49-1.36-.8-.55-.31-1.12-.62-1.72-.94-.6-.32-1.15-.6-1.65-.84h-.01zm.98 16.52l2.27-.98c.32.58.65 1.21.99 1.89.35.68.67 1.33.97 1.96.3.62.54 1.17.73 1.64l-2.44 1.2c-.15-.49-.37-1.06-.66-1.72-.29-.66-.6-1.34-.92-2.04-.33-.7-.64-1.35-.94-1.95zm4.79-12.23h15.32v2.38h-15.32v-2.38zm4.11 13.89l2.97.92c-.56.78-1.28 1.53-2.16 2.24-.88.71-1.76 1.29-2.66 1.74-.15-.21-.36-.45-.63-.73-.27-.28-.55-.56-.84-.84-.29-.28-.55-.5-.77-.67.8-.34 1.57-.73 2.31-1.19.74-.46 1.33-.95 1.78-1.47zm-3.02-19.88h13.16v5.1h-13.16v-5.1zm.11 9.24h12.77v10.67h-12.77v-10.67zm2.63-7.34v1.26h7.5v-1.26h-7.5zm.37 9.24v1.06h6.64v-1.06h-6.64zm0 2.86v1.09h6.64v-1.09h-6.64zm0 2.91v1.09h6.64v-1.09h-6.64zm1.93-18.48h3.05v8.99h-3.05v-8.99zm2.24 22.62l1.99-1.65c.63.37 1.27.78 1.92 1.22.64.44 1.25.87 1.83 1.29.58.42 1.06.8 1.46 1.13l-2.52 1.68c-.34-.34-.77-.72-1.3-1.15-.53-.43-1.09-.86-1.67-1.3-.58-.44-1.15-.84-1.71-1.22zm21.42-22.93l3.19 1.43a21.203 21.203 0 01-3.78 4.4 27.179 27.179 0 01-4.77 3.37 35.78 35.78 0 01-5.42 2.45c-.24-.49-.57-1.02-.98-1.6-.41-.58-.84-1.08-1.29-1.51 1.77-.52 3.49-1.18 5.15-1.97a23.02 23.02 0 004.54-2.84c1.36-1.1 2.48-2.34 3.36-3.72v-.01zm-11.76 22.93h24.36v3.08h-24.36v-3.08zm1.34-8.51h21.56v3.02h-21.56v-3.02zm1.85 3.98l2.72-1.15c.35.49.7 1.01 1.04 1.57.34.56.65 1.11.94 1.64.29.53.5 1.02.63 1.47l-2.88 1.26c-.13-.43-.33-.92-.59-1.48-.26-.56-.55-1.13-.87-1.71-.32-.58-.64-1.11-.98-1.6h-.01zm1.4-9.97h14.98v3.08h-14.98v-3.08zm5.71 1.45h3.61v14.5h-3.61v-14.5zm3.08-8.09c.65.69 1.44 1.37 2.37 2.04.92.67 1.94 1.31 3.04 1.9 1.1.6 2.24 1.14 3.42 1.62 1.18.49 2.34.89 3.5 1.2-.24.22-.51.51-.81.87-.3.35-.58.71-.85 1.08-.27.36-.49.69-.66.97-1.16-.39-2.32-.88-3.5-1.47-1.18-.59-2.33-1.25-3.46-1.97a33.3 33.3 0 01-3.18-2.32 22.04 22.04 0 01-2.63-2.55l2.77-1.37h-.01zm4.68 15.51l3.22 1.15c-.54.88-1.09 1.74-1.65 2.59-.56.85-1.07 1.57-1.54 2.17l-2.52-1.06c.3-.45.6-.95.91-1.5.31-.55.6-1.12.88-1.71.28-.59.51-1.13.7-1.64z" fill="#D93636"/><path d="M234.249 36.02a8.455 8.455 0 010-7.71 5.45 5.45 0 00-1.9-7.08 8.486 8.486 0 01-3.86-6.68 5.445 5.445 0 00-5.18-5.18 8.486 8.486 0 01-6.68-3.86 5.459 5.459 0 00-7.08-1.9 8.455 8.455 0 01-7.71 0 5.439 5.439 0 00-7.08 1.89 8.486 8.486 0 01-6.68 3.86 5.445 5.445 0 00-5.18 5.18 8.486 8.486 0 01-3.86 6.68 5.459 5.459 0 00-1.9 7.08 8.455 8.455 0 010 7.71 5.436 5.436 0 001.9 7.07 8.486 8.486 0 013.86 6.68 5.445 5.445 0 005.18 5.18c2.71.14 5.21 1.58 6.68 3.86a5.449 5.449 0 007.07 1.9 8.455 8.455 0 017.71 0c2.51 1.29 5.55.47 7.08-1.9a8.486 8.486 0 016.68-3.86 5.445 5.445 0 005.18-5.18 8.486 8.486 0 013.86-6.68 5.459 5.459 0 001.9-7.08l.01.02z" fill="#52BDE2"/><path d="M236.92 29.67c1.99-3.88.73-8.59-2.94-10.96a5.477 5.477 0 01-2.49-4.31 8.44 8.44 0 00-8.03-8.03 5.477 5.477 0 01-4.31-2.49A8.436 8.436 0 00208.19.94c-1.56.8-3.42.8-4.98 0a8.425 8.425 0 00-10.96 2.94 5.477 5.477 0 01-4.31 2.49 8.44 8.44 0 00-8.03 8.03 5.477 5.477 0 01-2.49 4.31 8.442 8.442 0 00-2.93 10.97c.8 1.56.8 3.42 0 4.98a8.425 8.425 0 002.94 10.96c1.47.95 2.4 2.56 2.49 4.31a8.423 8.423 0 008.03 8.02c1.75.09 3.36 1.02 4.31 2.49a8.443 8.443 0 007.09 3.88c1.31 0 2.63-.3 3.87-.94 1.56-.8 3.42-.8 4.98 0 3.88 1.99 8.6.73 10.96-2.94.95-1.47 2.56-2.4 4.31-2.49a8.438 8.438 0 008.03-8.02 5.477 5.477 0 012.49-4.31 8.436 8.436 0 002.94-10.96c-.8-1.56-.8-3.42 0-4.98l-.01-.01zm-4.57 13.43a8.486 8.486 0 00-3.86 6.68 5.445 5.445 0 01-5.18 5.18 8.486 8.486 0 00-6.68 3.86 5.448 5.448 0 01-7.08 1.9 8.455 8.455 0 00-7.71 0 5.433 5.433 0 01-7.07-1.9 8.486 8.486 0 00-6.68-3.86 5.445 5.445 0 01-5.18-5.18 8.486 8.486 0 00-3.86-6.68 5.449 5.449 0 01-1.9-7.07 8.455 8.455 0 000-7.71 5.448 5.448 0 011.9-7.08 8.486 8.486 0 003.86-6.68 5.445 5.445 0 015.18-5.18 8.486 8.486 0 006.68-3.86 5.439 5.439 0 017.08-1.89 8.455 8.455 0 007.71 0 5.45 5.45 0 017.08 1.9 8.486 8.486 0 006.68 3.86c2.81.14 5.04 2.37 5.18 5.18a8.486 8.486 0 003.86 6.68 5.459 5.459 0 011.9 7.08 8.455 8.455 0 000 7.71c1.28 2.51.47 5.55-1.9 7.08l-.01-.02z" fill="#58393E"/><mask id="mask0_1231_927" style="mask-type:luminance" maskUnits="userSpaceOnUse" x="176" y="2" width="59" height="60"><path d="M234.249 36.02a8.455 8.455 0 010-7.71 5.45 5.45 0 00-1.9-7.08 8.486 8.486 0 01-3.86-6.68 5.445 5.445 0 00-5.18-5.18 8.486 8.486 0 01-6.68-3.86 5.459 5.459 0 00-7.08-1.9 8.455 8.455 0 01-7.71 0 5.439 5.439 0 00-7.08 1.89 8.486 8.486 0 01-6.68 3.86 5.445 5.445 0 00-5.18 5.18 8.486 8.486 0 01-3.86 6.68 5.459 5.459 0 00-1.9 7.08 8.455 8.455 0 010 7.71 5.436 5.436 0 001.9 7.07 8.486 8.486 0 013.86 6.68 5.445 5.445 0 005.18 5.18c2.71.14 5.21 1.58 6.68 3.86a5.449 5.449 0 007.07 1.9 8.455 8.455 0 017.71 0c2.51 1.29 5.55.47 7.08-1.9a8.486 8.486 0 016.68-3.86 5.445 5.445 0 005.18-5.18 8.486 8.486 0 013.86-6.68 5.459 5.459 0 001.9-7.08l.01.02z" fill="#fff"/></mask><g mask="url(#mask0_1231_927)"><path d="M219.5 86.71c20.401 0 36.94-16.539 36.94-36.94 0-20.402-16.539-36.94-36.94-36.94-20.402 0-36.94 16.538-36.94 36.94 0 20.401 16.538 36.94 36.94 36.94z" fill="#18ABD3"/></g><path d="M192.16 28.1c-.81 0-1.35-.54-1.35-1.35v-5.42c0-2.3 1.76-4.06 4.06-4.06h5.42c.81 0 1.35.54 1.35 1.35s-.54 1.35-1.35 1.35h-5.42c-.81 0-1.35.54-1.35 1.35v5.42c0 .81-.54 1.35-1.35 1.35l-.01.01zm27.09 0c-.81 0-1.35-.54-1.35-1.35v-5.42c0-.81-.54-1.35-1.35-1.35h-5.42c-.81 0-1.35-.54-1.35-1.35s.54-1.35 1.35-1.35h5.42c2.3 0 4.06 1.76 4.06 4.06v5.42c0 .81-.54 1.35-1.35 1.35l-.01-.01zm-18.97 18.97h-5.42c-2.3 0-4.06-1.76-4.06-4.06v-5.42c0-.81.54-1.35 1.35-1.35s1.35.54 1.35 1.35v5.42c0 .81.54 1.35 1.35 1.35h5.42c.81 0 1.35.54 1.35 1.35s-.54 1.35-1.35 1.35l.01.01zm16.26 0h-5.42c-.81 0-1.35-.54-1.35-1.35s.54-1.35 1.35-1.35h5.42c.81 0 1.35-.54 1.35-1.35V37.6c0-.81.54-1.35 1.35-1.35s1.35.54 1.35 1.35v5.42c0 2.3-1.76 4.06-4.06 4.06l.01-.01z" fill="#fff"/><path d="M202.99 30.81h-5.42c-.81 0-1.35-.54-1.35-1.35v-5.42c0-.81.54-1.35 1.35-1.35h5.42c.81 0 1.35.54 1.35 1.35v5.42c0 .81-.54 1.35-1.35 1.35zm-4.06-2.71h2.71v-2.71h-2.71v2.71zm4.06 13.55h-5.42c-.81 0-1.35-.54-1.35-1.35v-5.42c0-.81.54-1.35 1.35-1.35h5.42c.81 0 1.35.54 1.35 1.35v5.42c0 .81-.54 1.35-1.35 1.35zm-4.06-2.71h2.71v-2.71h-2.71v2.71zm14.9-8.13h-5.42c-.81 0-1.35-.54-1.35-1.35v-5.42c0-.81.54-1.35 1.35-1.35h5.42c.81 0 1.35.54 1.35 1.35v5.42c0 .81-.54 1.35-1.35 1.35zm-4.06-2.71h2.71v-2.71h-2.71v2.71zm-1.36 9.48c-.81 0-1.35-.54-1.35-1.35v-1.35c0-.81.54-1.35 1.35-1.35s1.35.54 1.35 1.35v1.35c0 .81-.54 1.35-1.35 1.35zm5.42-1.35h-1.35c-.81 0-1.35-.54-1.35-1.35s.54-1.35 1.35-1.35h1.35c.81 0 1.35.54 1.35 1.35s-.54 1.35-1.35 1.35zm0 5.42h-4.06c-.81 0-1.35-.54-1.35-1.35s.54-1.35 1.35-1.35h4.06c.81 0 1.35.54 1.35 1.35s-.54 1.35-1.35 1.35z" fill="#fff"/></svg>