<?xml version="1.0" encoding="UTF-8"?>
<svg id="_圖層_1" xmlns="http://www.w3.org/2000/svg" version="1.1" viewBox="0 0 551.1 108.7">
  <!-- Generator: Adobe Illustrator 29.7.1, SVG Export Plug-In . SVG Version: 2.1.1 Build 8)  -->
  <defs>
    <style>
      .st0 {
        fill: #003b8f;
      }

      .st1 {
        fill: #c5d8ef;
      }

      .st2 {
        fill: #0154b7;
      }
    </style>
  </defs>
  <g>
    <g>
      <g>
        <g>
          <polygon class="st1" points="527.3 71.7 534 105.7 468.3 91.5 481.7 29.4 547.4 43.6 527.3 71.7"/>
          <path class="st0" d="M534,108.2c-.2,0-.4,0-.5,0l-65.7-14.1c-1.3-.3-2.2-1.6-1.9-3l13.4-62.1c.3-1.4,1.6-2.2,3-1.9l65.7,14.2c.8.2,1.5.8,1.8,1.5.3.8.2,1.7-.3,2.4l-19.5,27.3,6.5,32.9c.2.8-.1,1.7-.7,2.3-.5.5-1.1.7-1.8.7ZM471.3,89.6l59.5,12.8-6-30.2c-.1-.7,0-1.4.4-1.9l17.9-25.1-59.5-12.8-12.3,57.2Z"/>
        </g>
        <g>
          <polygon class="st0" points="491.9 79.2 468.3 91.5 473.2 75.9 491.9 79.2"/>
          <path class="st0" d="M468.3,94c-.6,0-1.1-.2-1.6-.6-.8-.6-1.1-1.7-.8-2.7l4.9-15.6c.4-1.2,1.6-1.9,2.8-1.7l18.7,3.3c1.1.2,1.9,1,2,2.1s-.4,2.1-1.3,2.6l-23.7,12.3c-.4.2-.8.3-1.2.3ZM474.9,78.8l-2.4,7.7,11.8-6.1-9.3-1.6Z"/>
        </g>
      </g>
      <g>
        <g>
          <polygon class="st1" points="23.8 71.7 17.1 105.7 82.8 91.5 69.4 29.4 3.7 43.6 23.8 71.7"/>
          <path class="st0" d="M17.1,108.2c-.6,0-1.3-.3-1.8-.7-.6-.6-.9-1.4-.7-2.3l6.5-32.9L1.7,45c-.5-.7-.6-1.6-.3-2.4.3-.8,1-1.4,1.8-1.5l65.7-14.2c.6-.1,1.3,0,1.9.3.6.4.9.9,1.1,1.6l13.4,62.1c.3,1.3-.6,2.7-1.9,3l-65.7,14.1c-.2,0-.4,0-.5,0ZM8,45.2l17.9,25.1c.4.6.6,1.3.4,1.9l-6,30.2,59.5-12.8-12.3-57.2L8,45.2Z"/>
        </g>
        <g>
          <polygon class="st0" points="59.2 79.2 82.8 91.5 77.9 75.9 59.2 79.2"/>
          <path class="st0" d="M82.8,94c-.4,0-.8,0-1.2-.3l-23.7-12.3c-1-.5-1.5-1.5-1.3-2.6s1-1.9,2-2.1l18.8-3.3c1.2-.2,2.4.5,2.8,1.7l4.9,15.6c.3,1,0,2-.8,2.7-.5.4-1,.6-1.6.6ZM66.9,80.4l11.8,6.1-2.4-7.7-9.3,1.6Z"/>
        </g>
      </g>
      <g>
        <path class="st1" d="M497.1,17.1l-5.1,62.1c-45.3-6-93.5-13.5-215.9-13.5s-171.6,7.5-216.9,13.5l-4.1-62.1S146.7,3.1,276.1,3.1s221,14,221,14Z"/>
        <path class="st0" d="M59.2,81.7c-.6,0-1.1-.2-1.6-.6-.5-.4-.9-1.1-.9-1.8l-4.1-62.1c0-1.3.8-2.4,2.1-2.6.9-.1,93.3-14.1,221.4-14.1s220.5,13.9,221.4,14.1c1.3.2,2.2,1.4,2.1,2.7l-5.1,62.1c0,.7-.4,1.3-.9,1.7-.5.4-1.2.6-1.9.5-2.7-.4-5.4-.7-8.2-1.1-43.4-5.8-92.5-12.4-207.4-12.4s-165.4,6.6-209.3,12.5l-7.3,1c-.1,0-.2,0-.3,0ZM276.1,63.2c115.2,0,164.5,6.6,208,12.4,1.9.2,3.7.5,5.6.7l4.7-57.2c-15-2.1-101.8-13.7-218.3-13.7S72.7,17.1,57.7,19.2l3.8,57.1,4.7-.6c44-5.9,94-12.6,209.9-12.6Z"/>
      </g>
    </g>
    <g>
      <path class="st2" d="M109.3,25.6c.6.4.9,1,1,1.7v1.2c.1,0,4-.3,4-.3.7,0,1.3,0,1.6.4.4.2.7.8.7,1.8,0,.8,0,1.3-.2,1.6-.3.5-.9.8-1.7.9h-.3s-.3,4.4-.3,4.4h1.3c.7-.2,1.2,0,1.6.2.4.2.7.8.7,1.7,0,.8,0,1.3-.2,1.6-.3.5-.9.8-1.7.9l-4.5.4.2,2.7,3.6-.3c.7,0,1.3,0,1.7.3.4.2.7.8.7,1.8,0,.9,0,1.4-.2,1.7-.3.6-1,.9-1.8,1l-3.6.3v1.4c.2,0,.2,0,.2,0,.4-.3.8-.4,1.2-.5.5,0,1,0,1.4.4.5.4,1.1,1.1,1.9,2.1.7.9,1.1,1.6,1.3,1.9,1.1-3.1,1.5-6.3,1.2-9.6l-1.1-13.2c-.2-2.1.2-3.5,1.2-4.2.5-.5,1.5-.9,2.9-1.1,3.6-.9,6-1.7,7.4-2.6.2,0,.4-.2.6-.2.7,0,1.2.2,1.6.6.6.4.9,1,1,2,.1,1.4-.4,2.4-1.6,2.9-1.4.7-3.8,1.4-7.1,2-.8.2-1.2.6-1.1,1.3l.3,3.6,8.9-.8c.9,0,1.6,0,1.9.4.3.4.6,1.1.7,2,0,.9,0,1.6-.2,2-.4.5-1,.8-1.9.9h-1c0,0,1.4,16.6,1.4,16.6,0,.9-.1,1.5-.5,1.9-.4.4-.9.7-1.8.8s-1.4-.1-1.9-.5c-.4-.3-.7-.9-.7-1.8l-1.4-16.5-3,.3.3,3.1c.5,5.9-.2,10.8-2.1,14.6-.4,1.1-1.5,1.7-3,1.8-.8,0-1.4-.4-1.6-.8-.4-.6-.6-1.2-.7-1.8,0-.4.2-.9.6-1.7,0,0,0,0,0,0-.4.2-.7.3-1.1.4-.6,0-1-.1-1.3-.5-.8-1.1-1.6-2.2-2.6-3.3l.5,6.1c0,.9-.1,1.5-.5,1.9-.4.4-.9.7-1.7.8-.8,0-1.4-.1-1.9-.5-.5-.3-.7-.9-.8-1.8l-.5-5.7c-1.1,2.6-2.2,4.5-3.3,5.8-.3.3-.7.5-1.2.6-.7,0-1.3-.2-1.7-.7-.4-.3-.6-.9-.7-1.8,0-.3,0-.8.3-1.4.9-1.2,2-2.7,3.1-4.5.4-.6.7-1.3,1.1-2l-2.4.2c-.7,0-1.3,0-1.7-.5-.5-.3-.7-.9-.8-1.9,0-.9,0-1.6.5-2,.3-.3.8-.5,1.6-.5l4.4-.4-.2-2.7-5,.4c-.7,0-1.2,0-1.5-.4-.5-.3-.7-.9-.8-1.7,0-.9,0-1.5.5-1.8.2-.3.7-.5,1.5-.5l2-.2-1.2-4.3h-.4c-.7,0-1.2,0-1.6-.4-.4-.3-.7-.9-.7-1.7,0-.9,0-1.6.4-2,.3-.3.8-.5,1.5-.6l3.9-.3v-1.2c-.2-.6,0-1.3.5-1.9.4-.4,1-.6,1.9-.6.9,0,1.5,0,1.9.4ZM110,37.7l.3-4.4-4.4.4,1.2,4.3,2.9-.3Z"/>
      <path class="st2" d="M151.8,23.1c2.2-.1,3.4.9,3.5,3.2l1.8,27.1c.1,1.8,0,2.9-.2,3.5-.3.7-.9,1.1-1.7,1.2-2.2.1-3.7,0-4.7-.4-.9-.3-1.3-1-1.4-2.1s0-1.8.3-2.3c.2-.3.5-.5,1-.5h1.9c0-.1.1-.3.1-.8l-.4-5.9-4.8.3c-.2,4.4-.6,7.9-1.4,10.6-.3,1.1-1.1,1.8-2.3,1.9-1.5,0-2.4-.6-2.5-1.9,0-1,.1-2.4.7-4.2.9-5.4,1.2-11.3.8-17.9l-.5-7.6c-.2-2.4.8-3.7,3.1-3.8l6.8-.5ZM151.2,32l-.2-3.4c0-.4-.2-.6-.5-.6l-3.5.2c-.3,0-.5.2-.4.5l.2,3.6,4.4-.3ZM151.8,41.4l-.3-4.7-4.4.3c0,1.7.1,3.2.2,4.7l4.5-.3ZM169.1,21.9c2.2-.1,3.4.9,3.5,3.2l1.8,27.1c.1,1.8,0,2.9-.2,3.5-.3.7-.9,1.1-1.7,1.2-2.3.2-4,0-5-.4-1-.4-1.4-1.1-1.5-2.2,0-1,0-1.8.4-2.4.2-.3.5-.5,1-.6l2.3-.2c0,0,.1-.2,0-.6l-.4-5.7-5.6.4c-.1,4.4-.6,7.9-1.3,10.6-.3,1.1-1,1.8-2.3,1.9-1.5,0-2.4-.6-2.6-1.9,0-1,.1-2.4.7-4.2.8-5.3,1-11.3.6-17.8l-.5-7.6c-.2-2.4.8-3.7,3.1-3.8l7.6-.5ZM168.5,30.9l-.2-3.4c0-.4-.2-.6-.5-.6l-4.2.3c-.3,0-.4.2-.4.5l.2,3.6,5.1-.3ZM169.1,40.3l-.3-4.7-5.1.3c0,1.7.1,3.2.2,4.7l5.3-.4Z"/>
      <path class="st2" d="M189.7,23.6c.2-.8.3-1.7.5-2.7.3-1.1.8-1.6,1.6-1.6.8,0,1.6,0,2.3.3.7.4,1.1,1,1.2,1.9,0,.6,0,1.2,0,1.9l17.5-.8c.9,0,1.6.1,2,.5.4.3.6,1,.7,1.9,0,.8,0,1.4-.4,1.8-.4.6-1.2.9-2.1,1l-18.6.9c-.3,1.3-.5,2.5-.8,3.6l16.4-.7c2.6-.1,4,1,4.1,3.4s-1.5,6.2-4.9,10c-.6.6-1.3,1.1-1.9,1.6,2.4,1.2,5.1,2.3,8.2,3.5.8.4,1.2,1.1,1.3,1.9,0,.9-.2,1.6-.7,2.1-.4.5-1,.8-1.9.8-1.4,0-3.3-.4-5.6-1.2-2.2-.9-4.4-2-6.5-3.2-2.1,1.4-4.2,2.6-6.5,3.7-2.3,1.1-3.9,1.7-4.7,1.8-.9,0-1.6-.3-2.3-1.1-.4-.5-.6-1.1-.6-1.6,0-1,.2-1.6.8-2,3-1.5,5.8-2.9,8.1-4.3-.8-.6-1.5-1.2-2.2-1.8-1.5-1.3-2.8-2.7-3.9-4.2-1.6,4.3-3.3,7.8-5,10.5-.4.7-1,1.1-1.9,1.2-.9,0-1.6-.2-2-.7-.5-.4-.8-1-.8-1.8,0-1,.2-1.9.7-2.9,2.6-5.1,4.3-9.1,5.2-12.1.5-1.7,1.1-3.7,1.7-6.1l-5.4.2c-.9,0-1.6-.1-2-.5-.4-.3-.7-1-.7-2,0-1,.1-1.6.5-2,.4-.4,1-.6,1.9-.6l6.7-.3ZM199.6,42.3c.6.5,1.4.9,2.2,1.4.7-.5,1.3-.9,1.8-1.4,2.8-2.2,4.1-3.9,4.1-5.1,0-.4-.3-.6-1-.6l-12.2.6c1.7,2.2,3.4,3.9,5.1,5.1Z"/>
      <path class="st2" d="M251.6,18.7c2.7,0,4.1,1.3,4.2,4.1l.6,26c0,2.8-1.3,4.2-4,4.3l-25.3.6c-2.7,0-4.1-1.3-4.2-4.1l-.6-26c0-2.8,1.3-4.2,4-4.3l25.3-.6ZM250.8,47.2l-.5-22.5c0-.7-.4-1.1-1.1-1.1l-20.4.5c-.7,0-1.1.4-1.1,1.1l.5,22.5c0,.7.4,1.1,1.1,1.1l20.4-.5c.7,0,1-.4,1-1.1ZM243.9,27.4c2,0,3,1,3.1,3l.3,11.6c0,2.1-.9,3.1-2.9,3.2l-9.2.2c-2,0-3-1-3.1-3l-.3-11.6c0-2.1.9-3.1,2.9-3.2l9.2-.2ZM242.7,39.7l-.2-6.9c0-.5-.3-.8-.8-.7h-4.7c-.5.1-.8.4-.8.9l.2,6.9c0,.6.3.8.8.8h4.7c.5-.1.7-.4.7-.9Z"/>
      <path class="st2" d="M273.7,18.9c1.4,1,2.5,2.2,3.5,3.6.9,1.3,1.4,2.5,1.4,3.6,0,.6-.2,1.1-.5,1.5-.4.5-.9.7-1.6.7-.7,0-1.2-.2-1.6-.8,0,0,0,0,0,0,0,.5-.1.8-.3,1-.3.4-.8.6-1.4.6h-5.5c-.5,0-.9-.1-1.2-.5-.1,0-.2-.2-.3-.4-.6.6-1.2.8-1.7.8-.9,0-1.6-.2-2-.8-.5-.5-.7-1-.7-1.7,0-.6.3-1.1.9-1.4,1.7-1.9,3.5-3.9,5.4-6,.9-1,1.9-1.5,2.9-1.5.9,0,1.7.4,2.7,1.2ZM274.7,30.5c1.7,0,2.6.8,2.5,2.5v9.1c0,1.4-.5,2.2-1.5,2.5.4.6.8,1.7,1.5,3.2.5,1.3.8,2.3.9,2.8.2-.2.4-.3.7-.4,2.1-.8,3.5-1.4,4.5-1.9h-1.5c-1.9,0-2.7-.9-2.7-2.8v-9.7c0-1.8.9-2.8,2.8-2.8h12.1c1.8,0,2.7,1,2.7,2.8v9.7c0,1.9-1,2.8-2.7,2.8h-1.3c1.2.6,2.4,1.1,3.7,1.4.2,0,.5.1.8.2.8.1,1.2.5,1.2,1.2,0,.5-.1.9-.3,1.3-.2.4-.5.7-.9,1-.4.2-1,.4-1.9.4-.4,0-1-.2-1.9-.5-1.3-.6-2.5-1.3-3.4-2-.3-.2-.5-.5-.6-.8-.1-.3-.2-.6-.2-1,0-.3.2-.7.6-1.2h-4.1c0,0,.2.1.2.2.3.3.5.7.5,1,0,.5-.2.8-.5,1.1-.3.3-.7.7-1.4,1.1-.7.5-1.6,1.1-2.8,1.8-.5.3-1,.4-1.5.4-.7,0-1.3-.3-1.8-.9-.2-.2-.3-.4-.3-.7h0c-.6.7-1.4,1.1-2.2,1.1-.7,0-1.2-.3-1.5-.8-.2-.5-.3-1-.4-1.4-2.6,1-5.5,1.6-8.9,1.9-.9,0-1.4-.2-1.8-.6-.4-.4-.6-1-.6-1.9,0-.7.2-1.2.5-1.6.2-.3.5-.4,1-.5v-15.5c0-1.6,1.1-2.5,3.1-2.5h7.9ZM272.1,46.8c-.1-.3-.2-.6-.2-.9,0-.6.2-1,.5-1.2h-4.1s0,3.4,0,3.4c1.4-.2,2.7-.4,4-.6,0-.2-.2-.4-.2-.7ZM272,40.9c.4,0,.6-.1.6-.4v-1.6s-4.4,0-4.4,0v2s3.7,0,3.7,0ZM272.7,36.1v-1.4c0-.3-.2-.5-.6-.5h-3.2c-.4,0-.6.2-.6.5v1.4s4.4,0,4.4,0ZM273.2,25.3c-.4-.6-.7-1.2-1.1-1.8-.3-.6-.7-.9-1.1-.9-.4,0-.7.3-1,.8-.5.7-1,1.3-1.4,1.8h4.6ZM285.6,19.2c0-.5.2-1,.6-1.4.3-.3.8-.4,1.5-.4.7,0,1.3.2,1.6.4.4.4.7.8.7,1.4h4.3c1.6,0,2.4.9,2.4,2.5v3c0,1.7-.8,2.5-2.4,2.5h-4.3s0,1.2,0,1.2h6.3c.6,0,1,.1,1.3.4.2.2.3.7.3,1.4,0,.5-.1.9-.3,1.2-.3.4-.8.6-1.4.6h-17.1c-.5,0-1-.2-1.3-.5-.3-.2-.4-.6-.4-1.3,0-.6.1-1.1.4-1.4.3-.2.7-.4,1.3-.4h6.3s0-1.2,0-1.2h-4.2c-1.6,0-2.4-.9-2.4-2.5v-3c0-1.7.8-2.5,2.5-2.5h4.2ZM285.6,22.1h-2c-.3,0-.4.2-.4.4v1.4c0,.3.1.4.4.4h2s0-2.3,0-2.3ZM291.8,44.5v-.8s-8.5,0-8.5,0v.8c0,.6.2.8.8.8h7c.5,0,.7-.2.7-.8ZM291.9,41.3v-1.4s-8.5,0-8.5,0v1.4s8.5,0,8.5,0ZM291.9,37.3v-.6c0-.5-.3-.8-.7-.8h-7c-.5,0-.8.3-.8.8v.6s8.5,0,8.5,0ZM292.4,24v-1.4c0-.3-.1-.4-.5-.4h-2s0,2.3,0,2.3h2c.3,0,.5-.1.5-.4Z"/>
      <path class="st2" d="M341.3,54.9c-8.5-.4-12.4-5.9-12-16.4.3-6.7,1.8-11.7,4.5-14.9,2.7-3.2,6.4-4.7,11.2-4.5,1.4,0,2.8.3,4.3.6.7.2,1.3.6,1.8,1.2.4.7.6,1.4.6,2.2,0,.7-.3,1.2-.8,1.6-.5.4-1.1.4-1.8.2-1.3-.4-2.7-.6-4.2-.7-2.3-.1-4.2.6-5.8,2.1-1.5,1.5-2.5,3.8-3,6.7h0c0,0,0,0,0,0,1.8-1.5,4.3-2.2,7.4-2.1,3.6.2,6.3,1.3,8.2,3.4,1.9,2.1,2.8,5,2.6,8.6-.2,3.9-1.5,6.9-3.8,9s-5.5,3.1-9.4,2.9ZM342.2,35.7c-1.9,0-3.4.5-4.6,1.6-1.2,1.2-1.9,2.8-2,4.9-.1,2.2.4,4,1.5,5.4,1.1,1.3,2.6,2.1,4.4,2.2,2,0,3.6-.5,4.8-1.6,1.2-1.2,1.8-3,1.9-5.3,0-2.2-.4-3.9-1.5-5.1s-2.6-1.9-4.6-2Z"/>
      <path class="st2" d="M380.7,52.7c-2.3,2.7-5.7,3.9-10,3.7-4.4-.3-7.5-1.9-9.5-4.9-2-3-2.8-7.6-2.4-13.9s1.7-10.8,4-13.5c2.3-2.7,5.7-4,10-3.7,4.4.3,7.5,1.9,9.5,4.9,2,3,2.8,7.6,2.4,13.9-.4,6.3-1.7,10.8-4,13.5ZM377.2,28.8c-.9-2-2.5-3-4.6-3.2-2.2-.1-3.8.7-5,2.6-1.2,1.9-1.9,5.1-2.2,9.8-.3,4.7,0,8,1,10,.9,2,2.5,3,4.6,3.2,2.2.1,3.8-.7,5-2.6,1.2-1.9,1.9-5.1,2.2-9.8.3-4.7,0-8-1-10Z"/>
      <path class="st2" d="M410.2,54.7c-2.4,2.7-5.7,3.9-10.1,3.5-4.4-.3-7.5-2-9.4-5-1.9-3-2.7-7.6-2.2-13.9.5-6.3,1.9-10.8,4.2-13.5,2.4-2.7,5.7-3.9,10.1-3.6,4.4.3,7.5,2,9.4,5,1.9,3,2.7,7.7,2.2,13.9-.5,6.3-1.9,10.8-4.2,13.4ZM407.1,30.8c-.9-2-2.4-3.1-4.6-3.2-2.2-.2-3.8.7-5,2.5-1.2,1.8-2,5.1-2.3,9.7-.3,4.7,0,8,.9,10,.9,2,2.4,3.1,4.6,3.2,2.2.2,3.8-.7,5-2.5,1.2-1.8,2-5.1,2.3-9.7.3-4.7,0-8-.9-10Z"/>
      <path class="st2" d="M450.8,40c.9,0,1.6.3,2,.7.4.4.5,1,.4,2,0,.8-.3,1.4-.6,1.8-.5.5-1.3.7-2.2.7l-8-.7-.8,9.8c0,1.2.4,1.8,1.5,1.9l2.3.2c.2,0,.4-.2.8-.7.4-.7.7-2.2.9-4.6.1-.6.4-.9.8-1.2.3-.3.8-.4,1.4-.4.8,0,1.4.4,1.9.8.6.5.9,1.3.8,2.4-.2,2.9-.7,5-1.4,6.3-1,1.8-2.2,2.7-3.6,2.8l-7.6-.6c-2.3-.2-3.3-1.8-3.1-5l1-12.2-4.3-.4c-.6,3-1.6,5.8-3.1,8.3-1.9,3.2-4.6,5.6-8,7.3-.6.4-1.4.6-2.3.5-1,0-1.6-.4-1.9-.8-.5-.6-.7-1.1-.6-1.6,0-.8.3-1.3.8-1.8,3.3-1.6,5.9-3.6,7.7-6,1.1-1.5,1.9-3.7,2.4-6.3l-6.6-.6c-.9,0-1.5-.3-1.9-.8-.4-.4-.5-1.1-.4-2,0-1,.3-1.6.8-1.9.4-.3,1.1-.5,2-.4l29.2,2.5ZM449.7,28.6c.9,0,1.6.3,1.9.7.4.4.5,1,.4,2,0,.8-.3,1.4-.6,1.8-.5.6-1.2.8-2.2.7l-24.7-2.1c-.8,0-1.5-.3-1.9-.8-.4-.4-.5-1.1-.4-2.1,0-1,.3-1.6.7-1.9.4-.3,1.1-.5,2-.4l24.7,2.1Z"/>
    </g>
  </g>
  <g>
    <path class="st2" d="M320.8,24.7c.3,0,.5,0,.7.2.1.1.2.4.2.7,0,.3,0,.5-.2.6-.2.2-.4.3-.7.3h-6.9c0-.1-.1,7.1-.1,7.1,0,.4,0,.6-.3.8-.2.2-.5.3-.8.3-.3,0-.6,0-.8-.3-.2-.1-.3-.4-.2-.8v-.3c-2.2.4-3.9.5-5.2.5-.3,0-.5,0-.7-.3-.1-.1-.2-.4-.2-.7s0-.6.2-.7c.1-.1.3-.2.6-.2.2,0,.3,0,.5,0v-5.5c0,0-.3,0-.3,0-.3,0-.5,0-.7-.2-.1-.1-.2-.4-.2-.7,0-.4,0-.6.2-.7.1-.1.3-.2.7-.2l14.1.2ZM319.2,18.8c.8,0,1.3.5,1.3,1.3v2.7c0,.9-.5,1.3-1.3,1.3l-10.5-.2c-.9,0-1.3-.5-1.3-1.3v-2.7c0-.9.5-1.3,1.3-1.3l10.5.2ZM311.7,30.8h-2.8s0,.9,0,.9c.9,0,1.9-.2,2.8-.3v-.6ZM311.7,29.4v-.8s-2.8,0-2.8,0v.8s2.8,0,2.8,0ZM311.8,26.4h-2.8s0,.7,0,.7h2.8s0-.7,0-.7ZM318.1,22.2v-.3s-8.5-.1-8.5-.1v.3c0,.3,0,.4.3.4h7.8c.2.1.3,0,.4-.2ZM318.1,20.7v-.2c0-.2-.1-.4-.3-.4h-7.8c-.2-.1-.3,0-.4.2v.2s8.5.1,8.5.1ZM319.7,27.3c.6,0,.9.1,1.1.3.3.3.4.7.4,1.2,0,.5-.3,1.2-.9,1.9-.3.4-.7.8-1,1.1.5.4,1.1.7,1.7,1,.4.2.5.4.5.8,0,.3,0,.6-.3.7-.1.3-.5.4-.9.4-.2,0-.5,0-.9-.2-.4-.2-.8-.4-1.2-.7-.2-.2-.4-.3-.7-.5-.2.2-.4.3-.6.5-.9.5-1.4.8-1.7.9-.4,0-.6-.1-.8-.3-.2-.2-.3-.5-.3-.7,0-.3.1-.6.3-.8.5-.3,1-.6,1.5-.9-.3-.3-.6-.7-1-1-.2-.2-.4-.4-.4-.6-.1-.2-.1-.4-.1-.6,0-.2,0-.4.3-.6s0,0,.1,0c-.3-.1-.4-.4-.4-.8,0-.5.3-.8.8-.8h4.3ZM317.7,30.5c.2-.1.3-.3.5-.5.5-.4.7-.7.7-1,0,0,0-.1-.1-.1h-2.8c.5.5,1.1,1,1.7,1.6Z"/>
    <path class="st2" d="M314.6,37.7c.3.2.4.5.4.9h5.4c.4,0,.6.2.8.3.1.1.2.4.2.8,0,.3,0,.6-.2.7-.2.2-.5.3-.8.3l-13.6-.2c-.3,0-.6,0-.8-.2-.2-.1-.2-.4-.2-.8,0-.4,0-.6.3-.8.2-.1.4-.2.8-.2h5.4c0-.2.1-.6.4-.8.2-.2.5-.2,1-.2.5,0,.8.1,1,.3ZM320.8,47.5v4.8c0,.6-.2,1-.5,1.2-.3.2-.7.3-1.3.3h-1c-.3,0-.6,0-1-.1-.4,0-.7-.2-.9-.4-.2-.3-.3-.5-.3-.8h-5.2c-.7,0-1.1-.5-1.1-1.2v-1.7c0-.8.4-1.1,1.1-1.1h5.4c.7.1,1.1.5,1.1,1.2v1.6c0,0,.2,0,.3,0h.8c.1,0,.2,0,.2-.1v-3.2c0,0,0,0,0,0l-9.7-.2c-.1,0-.1,0-.1.1v4.8c-.1.6-.5.9-1.2,1-.7,0-1.1-.4-1.1-1v-5.5c.1-.8.6-1.2,1.6-1.2l11.6.2c1,0,1.5.5,1.5,1.3ZM318.6,41.4c.7,0,1.1.4,1.1,1.1v1.9c0,.8-.4,1.1-1.1,1.1l-9.8-.2c-.7,0-1.1-.4-1.1-1.1v-1.9c0-.8.4-1.1,1.1-1.1l9.8.2ZM317.3,43.6v-.3c0-.2,0-.3-.2-.3h-6.7c-.2-.1-.3,0-.3.2v.3c0,.2,0,.3.3.3h6.7c.2.1.3,0,.3-.2ZM315.1,51v-.7c0,0,0-.1-.1-.1h-3.2c-.1,0-.1,0-.1,0v.7c0,.1,0,.1.1.1h3.2c0,0,.1,0,.1,0Z"/>
  </g>
</svg>