<?xml version="1.0" encoding="UTF-8"?>
<svg id="_圖層_1" data-name="圖層 1" xmlns="http://www.w3.org/2000/svg" viewBox="0 0 300 96.37">
  <defs>
    <style>
      .cls-1 {
        fill: #ef6d3a;
      }

      .cls-2 {
        fill: #ffcf57;
      }

      .cls-3 {
        fill: #0154b7;
      }
    </style>
  </defs>
  <g>
    <path class="cls-1" d="M76.98,95.61c-.31.39-.75.58-1.24.58-1.27,0-2.02-.61-2.21-1.8l-3.89-22.29c-.06-.22-.06-.48-.06-.8,0-.58.25-1.06.75-1.38.4-.26.9-.42,1.49-.42.93,0,1.49.48,1.68,1.45l3.92,22.64c.03.22.06.45.06.64,0,.51-.19,1-.5,1.38Z"/>
    <path class="cls-1" d="M94.69,71.16c.33.26.49.62.49,1.08v.74h2.35c.42,0,.74.12.93.31.23.14.35.53.35,1.1,0,.48-.07.79-.21.96-.21.31-.56.46-1.07.46h-.21l-.4,2.62h.79c.42,0,.74.1.93.26.23.14.35.5.35,1.06,0,.48-.07.79-.21.96-.23.29-.58.43-1.07.43h-2.72v1.61h2.18c.44,0,.77.1,1,.29.23.17.35.53.35,1.1,0,.53-.07.86-.21,1.03-.23.34-.63.48-1.14.48h-2.18v.82s.05-.05.05-.05c.23-.14.49-.22.77-.22.33,0,.6.1.81.29.26.24.6.7,1.04,1.34.37.6.58,1.01.65,1.22.79-1.8,1.21-3.7,1.21-5.66v-7.97c0-1.25.3-2.09.95-2.47.33-.29.93-.48,1.79-.53,2.18-.34,3.69-.72,4.53-1.15.14-.05.26-.07.37-.07.42,0,.72.17.95.46.33.26.49.67.49,1.25,0,.84-.37,1.39-1.09,1.68-.88.34-2.35.62-4.34.84-.51.07-.74.31-.74.74v2.16h5.36c.56,0,.93.12,1.14.34.19.24.3.67.3,1.25s-.09.94-.23,1.18c-.26.29-.65.43-1.21.43h-.63v9.94c0,.53-.14.89-.37,1.1-.23.24-.6.38-1.09.38s-.86-.14-1.09-.38c-.23-.22-.35-.58-.35-1.1v-9.94h-1.83v1.87c0,3.58-.67,6.46-2,8.62-.33.62-.98.94-1.9.94-.46-.1-.79-.29-.93-.55-.23-.38-.32-.74-.32-1.13,0-.22.14-.53.44-.96,0,0,.02-.02.02-.05-.23.12-.44.17-.65.17-.37,0-.6-.12-.72-.38-.42-.72-.86-1.42-1.37-2.14v3.65c0,.53-.14.89-.37,1.1-.23.24-.6.38-1.07.38-.49,0-.86-.14-1.09-.38-.26-.22-.37-.58-.37-1.1v-3.41c-.77,1.49-1.53,2.57-2.28,3.31-.19.19-.42.29-.72.29-.42,0-.74-.19-.98-.53-.21-.19-.3-.55-.3-1.08,0-.19.09-.48.28-.84.63-.67,1.32-1.51,2.07-2.52.26-.36.51-.74.74-1.13h-1.44c-.42,0-.74-.12-.98-.36-.28-.19-.4-.58-.4-1.15s.12-.94.4-1.15c.19-.14.51-.24.98-.24h2.62v-1.61h-3c-.4,0-.7-.1-.91-.31-.26-.19-.37-.55-.37-1.08s.12-.89.37-1.08c.16-.14.46-.24.91-.24h1.21l-.49-2.62h-.26c-.4,0-.7-.1-.93-.34-.23-.19-.35-.55-.35-1.08s.12-.94.35-1.15c.19-.17.49-.26.93-.26h2.35v-.74c0-.38.14-.77.46-1.1.23-.19.63-.29,1.18-.29s.91.12,1.14.31ZM94.48,78.43l.4-2.62h-2.62l.49,2.62h1.74Z"/>
    <path class="cls-1" d="M118.89,71.88c.05-.19.14-.36.23-.48.21-.31.63-.48,1.25-.48s1.02.12,1.25.36c.12.14.19.36.23.6h5.46c.05-.24.12-.43.26-.58.19-.29.6-.46,1.23-.46s1.02.12,1.25.34c.14.14.21.38.26.7h3.48c.37,0,.65.07.84.22.16.14.26.41.26.82,0,.34-.07.6-.21.74-.19.24-.49.36-.88.36h-3.46c-.05.43-.14.72-.33.91-.28.29-.67.41-1.21.41s-.95-.12-1.21-.41c-.21-.17-.33-.48-.33-.91h-5.39c-.05.38-.14.65-.33.84-.26.26-.65.38-1.18.38-.37,0-.67-.05-.86-.17.02.1.05.19.05.26,0,.19-.07.34-.16.48h4.97c.09-.19.16-.38.26-.58.23-.53.72-.82,1.46-.84.42,0,.74.07.98.22.28.19.44.46.46.82,0,.07-.05.19-.14.38h6.69c.28,0,.46.07.56.17.09.14.16.36.16.67,0,.29-.05.48-.14.6-.12.17-.3.24-.58.24h-6.8v.74h6.25c.28,0,.46.07.58.17.09.12.14.31.14.58,0,.29-.05.5-.12.62-.14.17-.33.24-.6.24h-6.25v.74h6.25c.28,0,.46.07.58.17.09.1.14.29.14.58s-.05.5-.12.6c-.14.17-.33.24-.6.24h-6.25v.74h6.71c.6,0,.91.34.91.96s-.3.94-.91.94h-17.07c-.91,0-1.35-.46-1.35-1.42v-2.86c-.14.05-.26.05-.37.05-.42,0-.79-.17-1.07-.55-.26-.29-.37-.58-.37-.86,0-.24.07-.46.26-.65,1.39-1.37,2.48-2.69,3.27-3.94.28-.24.53-.38.81-.38.3,0,.56.07.79.19-.05-.12-.05-.24-.05-.38h-3.65c-.37,0-.65-.07-.84-.26-.19-.14-.26-.43-.26-.84,0-.38.07-.67.26-.82.19-.14.46-.22.84-.22h3.69ZM124.02,85.39c.16.14.26.38.26.72,0,.43-.16.72-.46.84-.65.14-2.23.29-4.71.38-.49.02-.72.14-.72.38v.46h4.81c.28,0,.46.07.56.17.09.12.16.31.16.58,0,.29-.05.5-.12.62-.14.17-.33.24-.6.24h-4.81v.55c0,.19.09.29.28.29h12.05c.19,0,.28-.1.28-.29v-.55h-5.27c-.23,0-.42-.07-.53-.22-.14-.1-.19-.31-.19-.65,0-.26.07-.46.21-.6.12-.1.28-.14.51-.14h5.27v-.65c0-.19-.09-.29-.28-.29h-5.09c-.3,0-.51-.05-.63-.19-.14-.1-.19-.31-.19-.65,0-.29.05-.5.19-.62.12-.14.33-.22.63-.22h6.71c.65,0,1.11.14,1.37.41.23.29.37.74.37,1.37v3.65c0,.94-.46,1.42-1.37,1.42h-16.05c-.93,0-1.37-.48-1.37-1.42v-3.55c0-1.2.72-1.82,2.18-1.87,1.83-.1,3.62-.22,5.39-.36.23,0,.44-.02.6-.02.23,0,.42.07.56.22ZM124.37,77.49h-5.81v.74h5.81v-.74ZM124.37,79.84h-5.81v.74h5.81v-.74ZM124.37,82.17h-5.81v.48c0,.19.14.26.44.26h5.36v-.74Z"/>
    <path class="cls-1" d="M144.06,88.1c-.4,1.68-.88,3.05-1.49,4.1-.35.43-.81.67-1.37.67-.46,0-.84-.12-1.09-.34-.28-.24-.44-.6-.44-1.08,0-.38.14-.91.42-1.58.98-2.69,1.49-5.38,1.49-8.06v-7.13c0-.94.23-1.61.74-2.04.42-.34,1-.5,1.79-.5,5.95-.24,10.45-.58,13.52-.96.42-.05.84-.07,1.28-.07.37,0,.7.17.93.46.21.34.33.65.33.96,0,.79-.3,1.25-.91,1.39-1.28.24-3.02.41-5.25.5-2.83.24-5.69.36-8.62.36-.46,0-.72.19-.72.55v.74h13.14c1.51,0,2.28.7,2.28,2.06v4.61c0,1.32-.7,1.97-2.09,1.97h-13.45c-.09,1.25-.26,2.38-.49,3.38ZM144.67,81.72h11.52c.42,0,.63-.19.63-.58v-1.3c0-.43-.21-.7-.63-.77h-11.52v2.64Z"/>
    <path class="cls-1" d="M184.1,72.14c1.49,0,2.25.98,2.25,2.9v15.29c0,.91-.26,1.54-.74,1.82-.56.34-1.35.53-2.42.53-1.16-.05-2.32-.19-3.46-.48-.6-.29-.91-.77-.91-1.39.02-.62.16-1.06.44-1.32h-5.43c-1.28,0-1.9-.65-1.9-1.97v-4.42c0-1.3.63-1.97,1.9-1.97h5.81c1.25,0,1.9.67,1.9,1.97v4.42c0,.82-.26,1.39-.72,1.68.6.19,1.3.29,2.09.29.28,0,.44-.26.44-.84v-13.03c0-.38-.12-.58-.35-.58h-12.26c-.37,0-.53.19-.53.58v15.55c0,.53-.14.91-.42,1.13-.23.19-.6.29-1.11.29-.56,0-.93-.12-1.11-.36-.23-.29-.35-.62-.35-1.06v-16.13c0-1.92.65-2.9,2-2.9h14.89ZM180.92,76.75c.46,0,.79.1.98.29.19.17.3.5.3,1.01,0,.41-.09.7-.26.89-.23.29-.56.43-1.02.43h-8.34c-.44,0-.77-.1-.98-.31-.21-.17-.3-.5-.3-1.01s.09-.84.3-1.03c.19-.17.51-.26.98-.26h8.34ZM178.64,86.59v-2.54c0-.29-.16-.46-.44-.46h-2.9c-.33,0-.46.17-.46.46v2.54c0,.31.14.46.46.46h2.9c.28,0,.44-.14.44-.46Z"/>
    <path class="cls-1" d="M203.91,71.13c.3.29.49.62.53,1.01h7.2c.49,0,.84.12,1.07.31.19.19.3.58.3,1.1,0,.43-.09.77-.26.96-.26.29-.63.43-1.11.43h-18.32c-.46,0-.79-.1-1.02-.31-.23-.19-.35-.55-.35-1.08s.12-.91.35-1.1c.19-.19.53-.31,1.02-.31h7.27c.05-.36.23-.7.51-1.03.28-.24.74-.36,1.39-.36s1.11.14,1.42.38ZM208.93,81.98c.77,0,1.37.14,1.79.41.42.34.65.82.65,1.39,0,.36-.14.7-.39,1.03-.33.38-.77.74-1.28,1.1h1.95c.46,0,.79.1,1,.29.19.14.28.46.28.94,0,.41-.09.7-.26.89-.23.29-.56.43-1.02.43h-6.25c.05.29.07.58.07.84-.02,1.1-.35,1.94-.95,2.57-.65.58-1.37.86-2.21.91-1.74-.02-2.97-.14-3.72-.38-.67-.19-1-.67-1-1.42,0-.43.12-.77.3-1.01.19-.24.49-.36.95-.38.16,0,.6.07,1.35.19.7.12,1.28.17,1.74.17.3,0,.46-.34.46-1.03,0-.1-.05-.26-.09-.46h-8.99c-.42,0-.74-.1-.98-.31-.21-.17-.3-.5-.3-1.01,0-.46.09-.77.3-.94.19-.19.51-.29.98-.29h8.27c.05-.29.21-.5.46-.65.32-.19.7-.29,1.16-.29.65.02,1.07.22,1.25.58.05.12.09.22.14.29.81-.29,1.44-.6,1.9-.89.32-.24.51-.38.51-.43s-.07-.1-.19-.1h-12.8c-.4,0-.7-.1-.93-.34-.19-.17-.26-.46-.26-.89,0-.41.09-.72.33-.96.19-.17.46-.26.86-.26h14.89ZM209.92,75.91c1.21,0,1.81.62,1.81,1.87v1.49c0,1.25-.6,1.87-1.81,1.87h-14.89c-1.21,0-1.81-.62-1.81-1.87v-1.49c0-1.25.6-1.87,1.81-1.87h14.89ZM208.37,78.62v-.19c0-.24-.12-.38-.35-.38h-11.08c-.23,0-.35.14-.35.38v.19c0,.24.12.36.35.36h11.08c.23,0,.35-.12.35-.36Z"/>
    <path class="cls-1" d="M230.36,72.09l-3.89,22.29c-.22,1.19-.96,1.8-2.21,1.8-.53,0-.93-.19-1.24-.58-.34-.39-.5-.87-.5-1.38,0-.19,0-.42.06-.64l3.92-22.64c.16-.96.71-1.45,1.68-1.45.56,0,1.06.16,1.49.42.5.32.75.8.75,1.38,0,.32-.03.58-.06.8Z"/>
  </g>
  <g>
    <g>
      <g>
        <g>
          <path class="cls-2" d="M29.23,57.07c-14.93,0-27.07-12.14-27.07-27.07S14.3,2.93,29.23,2.93s27.07,12.14,27.07,27.07-12.14,27.07-27.07,27.07Z"/>
          <path class="cls-3" d="M29.23,4.59c14.03,0,25.41,11.37,25.41,25.41s-11.37,25.41-25.41,25.41S3.83,44.03,3.83,30,15.2,4.59,29.23,4.59M29.23,1.27C13.39,1.27.5,14.16.5,30s12.89,28.73,28.73,28.73,28.73-12.89,28.73-28.73S45.07,1.27,29.23,1.27h0Z"/>
        </g>
        <g>
          <path class="cls-2" d="M29.23,53.49c-12.95,0-23.49-10.54-23.49-23.49S16.28,6.51,29.23,6.51s23.49,10.54,23.49,23.49-10.54,23.49-23.49,23.49Z"/>
          <path class="cls-3" d="M29.23,7.07c12.67,0,22.93,10.27,22.93,22.93s-10.27,22.93-22.93,22.93S6.3,42.67,6.3,30,16.56,7.07,29.23,7.07M29.23,5.96c-13.26,0-24.04,10.78-24.04,24.04s10.78,24.04,24.04,24.04,24.04-10.78,24.04-24.04S42.49,5.96,29.23,5.96h0Z"/>
        </g>
      </g>
      <path class="cls-3" d="M30.63,15.32c.44.35.65.83.65,1.45v2.15h10.07c.75,0,1.27.16,1.62.45.31.26.47.77.47,1.54,0,.64-.16,1.12-.4,1.45-.37.48-.93.71-1.68.71h-10.07v3.24h7.02c1.06,0,1.86.16,2.42.45.81.58,1.24,1.32,1.24,2.18,0,1.06-.59,2.18-1.74,3.41-1.74,1.8-4.01,3.57-6.81,5.36l-.03.03c2.8,1.03,5.87,1.86,9.17,2.51.71.19,1.09.83,1.09,1.86,0,.58-.22,1.06-.65,1.48-.34.45-.9.67-1.65.67-1.06,0-2.42-.22-4.17-.61-2.86-.71-5.72-1.77-8.52-3.24-1.62.8-3.29,1.51-5,2.18-3.08,1.19-5.16,1.83-6.22,1.93-.81,0-1.43-.26-1.8-.77-.37-.39-.53-.74-.53-1.12,0-.96.28-1.61.87-2.02,2.95-1.03,5.59-2.06,7.96-3.08-1.99-1.41-3.64-2.96-4.97-4.62-.56-.58-.81-1.12-.81-1.7,0-.32.03-.61.16-.87h-.03c-.65,0-1.15-.16-1.49-.51-.31-.26-.47-.74-.47-1.48s.19-1.25.56-1.64c.25-.26.71-.39,1.4-.39h8.61v-3.24h-9.57c-.71,0-1.24-.16-1.59-.51-.34-.29-.5-.83-.5-1.64s.16-1.29.5-1.57c.31-.26.84-.42,1.59-.42h9.57v-2.15c0-.51.19-1.03.62-1.48.31-.26.84-.39,1.58-.39s1.21.16,1.52.42ZM28.36,35.43c1.03-.51,1.96-1.06,2.8-1.57,2.83-1.57,4.26-2.63,4.26-3.15,0-.26-.22-.38-.62-.38h-12.87c1.99,2.02,4.13,3.73,6.43,5.11Z"/>
    </g>
    <g>
      <g>
        <g>
          <path class="cls-2" d="M89.61,57.07c-14.93,0-27.07-12.14-27.07-27.07S74.69,2.93,89.61,2.93s27.07,12.14,27.07,27.07-12.14,27.07-27.07,27.07Z"/>
          <path class="cls-3" d="M89.62,4.59c14.03,0,25.41,11.37,25.41,25.41s-11.37,25.41-25.41,25.41-25.41-11.37-25.41-25.41,11.37-25.41,25.41-25.41M89.62,1.27c-15.84,0-28.73,12.89-28.73,28.73s12.89,28.73,28.73,28.73,28.73-12.89,28.73-28.73S105.46,1.27,89.62,1.27h0Z"/>
        </g>
        <g>
          <path class="cls-2" d="M89.61,53.49c-12.95,0-23.49-10.54-23.49-23.49s10.54-23.49,23.49-23.49,23.49,10.54,23.49,23.49-10.54,23.49-23.49,23.49Z"/>
          <path class="cls-3" d="M89.62,7.07c12.67,0,22.93,10.27,22.93,22.93s-10.27,22.93-22.93,22.93-22.93-10.27-22.93-22.93,10.27-22.93,22.93-22.93M89.62,5.96c-13.26,0-24.04,10.78-24.04,24.04s10.78,24.04,24.04,24.04,24.04-10.78,24.04-24.04-10.78-24.04-24.04-24.04h0Z"/>
        </g>
      </g>
      <path class="cls-3" d="M84.08,15.9c.5.19.78.71.78,1.51,0,.45-.09.9-.22,1.28-.28,1.22-.62,2.38-.99,3.5v20.04c0,.77-.19,1.32-.56,1.64-.31.32-.81.51-1.49.51s-1.18-.19-1.49-.51c-.4-.32-.59-.87-.59-1.64v-11.59c-.06.06-.09.13-.12.19-.28.42-.75.61-1.43.61-.81,0-1.43-.19-1.8-.64-.44-.32-.65-.83-.65-1.48,0-.39.16-.87.47-1.41,2.05-3.08,3.73-6.84,5-11.27.22-.83.65-1.25,1.34-1.25s1.27.19,1.77.51ZM95.68,20.78v-3.5c0-1.09.68-1.7,2.05-1.77,1.34,0,2.02.61,2.08,1.77v3.5h2.05c.62,0,1.12.16,1.43.45.34.26.53.83.53,1.7,0,.71-.12,1.22-.31,1.48-.34.45-.9.64-1.65.64h-2.05v15.93c0,.96-.34,1.77-.96,2.38-.68.67-1.58,1.03-2.7,1.03-1.8,0-3.51-.22-5.1-.64-.75-.42-1.09-1.09-1.09-1.99,0-1.35.53-2.12,1.59-2.28.16,0,.34.03.56.1.93.26,1.83.39,2.7.42.56,0,.87-.29.87-.87v-14.07h-8.86c-.62,0-1.09-.16-1.4-.51-.37-.26-.56-.8-.56-1.61s.19-1.41.56-1.73c.25-.26.71-.42,1.4-.42h8.86ZM89.37,27.69c.68.67,1.46,1.99,2.39,3.98.56,1.32.87,2.38.87,3.18,0,.51-.16.9-.44,1.12-.31.39-.78.61-1.37.61-.56,0-.96-.1-1.21-.29-.22-.13-.34-.32-.37-.58-.71-1.67-1.74-3.82-3.08-6.42-.06-.16-.09-.35-.09-.61,0-.16.03-.38.16-.67.12-.32.4-.58.84-.77.28-.1.56-.16.84-.16.65,0,1.15.22,1.46.61Z"/>
    </g>
    <g>
      <g>
        <g>
          <path class="cls-2" d="M150,57.07c-14.93,0-27.07-12.14-27.07-27.07s12.14-27.07,27.07-27.07,27.07,12.14,27.07,27.07-12.14,27.07-27.07,27.07Z"/>
          <path class="cls-3" d="M150,4.59c14.03,0,25.41,11.37,25.41,25.41s-11.37,25.41-25.41,25.41-25.41-11.37-25.41-25.41,11.37-25.41,25.41-25.41M150,1.27c-15.84,0-28.73,12.89-28.73,28.73s12.89,28.73,28.73,28.73,28.73-12.89,28.73-28.73S165.84,1.27,150,1.27h0Z"/>
        </g>
        <g>
          <path class="cls-2" d="M150,53.49c-12.95,0-23.49-10.54-23.49-23.49s10.54-23.49,23.49-23.49,23.49,10.54,23.49,23.49-10.54,23.49-23.49,23.49Z"/>
          <path class="cls-3" d="M150,7.07c12.67,0,22.93,10.27,22.93,22.93s-10.27,22.93-22.93,22.93-22.93-10.27-22.93-22.93,10.27-22.93,22.93-22.93M150,5.96c-13.26,0-24.04,10.78-24.04,24.04s10.78,24.04,24.04,24.04,24.04-10.78,24.04-24.04-10.78-24.04-24.04-24.04h0Z"/>
        </g>
      </g>
      <path class="cls-3" d="M144.96,15.45c.44.35.65.84.65,1.45v1h3.14c.56,0,.99.16,1.24.42.31.19.47.71.47,1.48,0,.64-.09,1.06-.28,1.28-.28.42-.75.61-1.43.61h-.28l-.53,3.5h1.06c.56,0,.99.13,1.24.35.31.19.47.67.47,1.41,0,.64-.09,1.06-.28,1.29-.31.39-.78.58-1.43.58h-3.64v2.15h2.92c.59,0,1.03.13,1.34.38.31.22.47.71.47,1.48,0,.71-.09,1.16-.28,1.38-.31.45-.84.64-1.52.64h-2.92v1.09l.06-.06c.31-.19.65-.29,1.03-.29.44,0,.81.13,1.09.38.34.32.81.93,1.4,1.8.5.8.78,1.35.87,1.64,1.06-2.41,1.62-4.95,1.62-7.58v-10.66c0-1.67.4-2.79,1.27-3.31.44-.39,1.24-.64,2.39-.71,2.92-.45,4.94-.96,6.06-1.54.19-.06.34-.1.5-.1.56,0,.96.22,1.27.61.44.35.65.9.65,1.67,0,1.12-.5,1.86-1.46,2.25-1.18.45-3.14.83-5.81,1.12-.68.1-.99.42-.99,1v2.89h7.18c.75,0,1.24.16,1.52.45.25.32.4.9.4,1.67s-.12,1.25-.31,1.57c-.34.39-.87.58-1.62.58h-.84v13.3c0,.71-.19,1.19-.5,1.48-.31.32-.81.51-1.46.51s-1.15-.19-1.46-.51c-.31-.29-.47-.77-.47-1.48v-13.3h-2.46v2.51c0,4.79-.9,8.64-2.67,11.53-.44.83-1.31,1.25-2.55,1.25-.62-.13-1.06-.39-1.24-.74-.31-.51-.44-1-.44-1.51,0-.29.19-.71.59-1.29,0,0,.03-.03.03-.06-.31.16-.59.23-.87.23-.5,0-.81-.16-.96-.51-.56-.96-1.15-1.89-1.83-2.86v4.88c0,.71-.19,1.19-.5,1.48-.31.32-.81.51-1.43.51-.65,0-1.15-.19-1.46-.51-.34-.29-.5-.77-.5-1.48v-4.56c-1.03,1.99-2.05,3.44-3.05,4.43-.25.26-.56.39-.96.39-.56,0-.99-.26-1.31-.71-.28-.26-.4-.74-.4-1.45,0-.26.12-.64.37-1.12.84-.9,1.77-2.02,2.77-3.37.34-.48.68-1,.99-1.51h-1.93c-.56,0-.99-.16-1.31-.48-.37-.26-.53-.77-.53-1.54s.16-1.25.53-1.54c.25-.19.68-.32,1.31-.32h3.51v-2.15h-4.01c-.53,0-.93-.13-1.21-.42-.34-.26-.5-.74-.5-1.45s.16-1.19.5-1.45c.22-.19.62-.32,1.21-.32h1.62l-.65-3.5h-.34c-.53,0-.93-.13-1.24-.45-.31-.26-.47-.74-.47-1.45s.16-1.25.47-1.54c.25-.22.65-.35,1.24-.35h3.14v-1c0-.51.19-1.03.62-1.48.31-.26.84-.38,1.59-.38s1.21.16,1.52.42ZM144.68,25.18l.53-3.5h-3.51l.65,3.5h2.33Z"/>
    </g>
    <g>
      <g>
        <g>
          <path class="cls-2" d="M210.38,57.07c-14.93,0-27.07-12.14-27.07-27.07s12.14-27.07,27.07-27.07,27.07,12.14,27.07,27.07-12.14,27.07-27.07,27.07Z"/>
          <path class="cls-3" d="M210.38,4.59c14.03,0,25.41,11.37,25.41,25.41s-11.37,25.41-25.41,25.41-25.41-11.37-25.41-25.41,11.37-25.41,25.41-25.41M210.38,1.27c-15.84,0-28.73,12.89-28.73,28.73s12.89,28.73,28.73,28.73,28.73-12.89,28.73-28.73S226.23,1.27,210.38,1.27h0Z"/>
        </g>
        <g>
          <path class="cls-2" d="M210.38,53.49c-12.95,0-23.49-10.54-23.49-23.49s10.54-23.49,23.49-23.49,23.49,10.54,23.49,23.49-10.54,23.49-23.49,23.49Z"/>
          <path class="cls-3" d="M210.38,7.07c12.67,0,22.93,10.27,22.93,22.93s-10.27,22.93-22.93,22.93-22.93-10.27-22.93-22.93,10.27-22.93,22.93-22.93M210.38,5.96c-13.26,0-24.04,10.78-24.04,24.04s10.78,24.04,24.04,24.04,24.04-10.78,24.04-24.04-10.78-24.04-24.04-24.04h0Z"/>
        </g>
      </g>
      <path class="cls-3" d="M206.5,16.16c1.74,0,2.64.93,2.64,2.76v21.81c0,1.41-.12,2.34-.34,2.79-.31.58-.81.87-1.46.87-1.74,0-2.98-.19-3.73-.55-.68-.32-.99-.9-.99-1.73s.12-1.45.4-1.86c.16-.26.44-.39.81-.39h1.55c.06,0,.12-.16.12-.51v-4.75h-3.89c-.37,3.5-.93,6.3-1.68,8.42-.31.9-.96,1.38-1.96,1.38-1.21-.1-1.86-.64-1.93-1.64,0-.83.25-1.93.75-3.31,1.03-4.24,1.55-8.99,1.55-14.26v-6.13c0-1.93.87-2.89,2.67-2.89h5.47ZM205.5,30.84v-3.76h-3.51c-.03,1.35-.06,2.6-.12,3.76h3.64ZM205.5,23.29v-2.76c0-.32-.12-.48-.34-.48h-2.8c-.25,0-.37.13-.37.38v2.86h3.51ZM220.45,16.16c1.77,0,2.67.93,2.67,2.76v21.81c0,1.41-.12,2.34-.37,2.79-.31.58-.81.87-1.46.87-1.86,0-3.2-.19-4.01-.58-.75-.35-1.09-.96-1.09-1.83s.16-1.45.47-1.86c.16-.26.44-.38.87-.38h1.83c.06,0,.09-.16.09-.51v-4.62h-4.48c-.34,3.5-.87,6.3-1.58,8.42-.31.9-.93,1.38-1.93,1.38-1.21-.1-1.86-.64-1.96-1.64,0-.83.25-1.93.75-3.31.93-4.24,1.43-8.99,1.43-14.26v-6.13c0-1.93.87-2.89,2.67-2.89h6.09ZM219.46,30.84v-3.76h-4.1c-.03,1.35-.06,2.6-.12,3.76h4.23ZM219.46,23.29v-2.76c0-.32-.12-.48-.34-.48h-3.42c-.25,0-.34.13-.34.38v2.86h4.1Z"/>
    </g>
    <g>
      <g>
        <g>
          <path class="cls-2" d="M270.77,57.07c-14.93,0-27.07-12.14-27.07-27.07s12.14-27.07,27.07-27.07,27.07,12.14,27.07,27.07-12.14,27.07-27.07,27.07Z"/>
          <path class="cls-3" d="M270.77,4.59c14.03,0,25.41,11.37,25.41,25.41s-11.37,25.41-25.41,25.41-25.41-11.37-25.41-25.41,11.37-25.41,25.41-25.41M270.77,1.27c-15.84,0-28.73,12.89-28.73,28.73s12.89,28.73,28.73,28.73,28.73-12.89,28.73-28.73-12.89-28.73-28.73-28.73h0Z"/>
        </g>
        <g>
          <path class="cls-2" d="M270.77,53.49c-12.95,0-23.49-10.54-23.49-23.49s10.54-23.49,23.49-23.49,23.49,10.54,23.49,23.49-10.54,23.49-23.49,23.49Z"/>
          <path class="cls-3" d="M270.77,7.07c12.67,0,22.93,10.27,22.93,22.93s-10.27,22.93-22.93,22.93-22.93-10.27-22.93-22.93,10.27-22.93,22.93-22.93M270.77,5.96c-13.26,0-24.04,10.78-24.04,24.04s10.78,24.04,24.04,24.04,24.04-10.78,24.04-24.04-10.78-24.04-24.04-24.04h0Z"/>
        </g>
      </g>
      <path class="cls-3" d="M264.21,18.41c.16-.67.31-1.38.47-2.12.25-.84.72-1.25,1.34-1.25.65,0,1.24.13,1.8.32.56.32.87.83.87,1.54,0,.51-.06,1-.12,1.51h14.08c.75,0,1.27.16,1.62.45.31.26.47.8.47,1.57,0,.64-.12,1.12-.37,1.41-.37.48-.96.71-1.71.71h-14.95c-.25,1-.5,1.96-.75,2.89h13.15c2.11,0,3.17.96,3.17,2.89,0,2.31-1.46,4.91-4.32,7.84-.53.45-1.06.87-1.55,1.25,1.9,1.03,4.04,2.06,6.46,3.08.62.39.93.9,1,1.61,0,.74-.22,1.28-.65,1.67-.31.39-.81.61-1.55.61-1.12,0-2.61-.42-4.44-1.19-1.74-.8-3.45-1.73-5.07-2.83-1.71,1.03-3.48,1.93-5.35,2.76-1.93.83-3.2,1.25-3.82,1.25-.71,0-1.3-.32-1.77-.96-.31-.42-.43-.87-.43-1.32,0-.77.25-1.29.75-1.61,2.49-1.09,4.72-2.15,6.65-3.18-.59-.48-1.15-1-1.71-1.54-1.15-1.09-2.14-2.28-2.95-3.53-1.46,3.41-2.92,6.17-4.41,8.25-.34.58-.87.87-1.58.87s-1.24-.22-1.59-.67c-.4-.32-.59-.83-.59-1.48,0-.77.22-1.54.68-2.31,2.27-3.98,3.82-7.16,4.63-9.51.5-1.35,1.03-2.96,1.55-4.85h-4.32c-.71,0-1.24-.16-1.59-.51-.34-.29-.5-.83-.5-1.61s.16-1.32.5-1.57c.31-.29.84-.45,1.59-.45h5.35ZM271.51,33.76c.5.42,1.06.8,1.68,1.19.56-.35,1.06-.71,1.52-1.06,2.3-1.64,3.45-2.96,3.45-3.95,0-.32-.25-.48-.75-.48h-9.82c1.27,1.83,2.58,3.28,3.92,4.3Z"/>
    </g>
  </g>
</svg>