<?xml version="1.0" encoding="UTF-8"?>
<svg id="_圖層_1" data-name="圖層 1" xmlns="http://www.w3.org/2000/svg" viewBox="0 0 300 96.37">
  <defs>
    <style>
      .cls-1 {
        fill: #ef6d3a;
      }

      .cls-2 {
        fill: #ffcf57;
      }

      .cls-3 {
        fill: #0154b7;
      }
    </style>
  </defs>
  <g>
    <g>
      <g>
        <g>
          <path class="cls-2" d="M29.23,57.07c-14.93,0-27.07-12.14-27.07-27.07S14.3,2.93,29.23,2.93s27.07,12.14,27.07,27.07-12.14,27.07-27.07,27.07Z"/>
          <path class="cls-3" d="M29.23,4.59c14.03,0,25.41,11.37,25.41,25.41s-11.37,25.41-25.41,25.41S3.83,44.03,3.83,30,15.2,4.59,29.23,4.59M29.23,1.27C13.39,1.27.5,14.16.5,30s12.89,28.73,28.73,28.73,28.73-12.89,28.73-28.73S45.07,1.27,29.23,1.27h0Z"/>
        </g>
        <g>
          <path class="cls-2" d="M29.23,53.49c-12.95,0-23.49-10.54-23.49-23.49S16.28,6.51,29.23,6.51s23.49,10.54,23.49,23.49-10.54,23.49-23.49,23.49Z"/>
          <path class="cls-3" d="M29.23,7.07c12.67,0,22.93,10.27,22.93,22.93s-10.27,22.93-22.93,22.93S6.3,42.67,6.3,30,16.56,7.07,29.23,7.07M29.23,5.96c-13.26,0-24.04,10.78-24.04,24.04s10.78,24.04,24.04,24.04,24.04-10.78,24.04-24.04S42.49,5.96,29.23,5.96h0Z"/>
        </g>
      </g>
      <path class="cls-3" d="M27.89,18.15v7.68c0,1.67-.71,2.51-2.08,2.51h-5.69v14.55c-.09,1.03-.78,1.57-2.08,1.64-1.31-.06-1.99-.61-2.05-1.64v-24.6c0-1.41.62-2.12,1.93-2.12h7.77c1.46,0,2.21.67,2.21,1.99ZM23.88,21.04v-1.64h-3.76v1.64h3.76ZM23.88,25.06v-1.64h-3.76v1.64h3.76ZM35.29,29.33c.5,0,.87.13,1.12.32.22.19.34.61.34,1.19,0,.45-.09.8-.28,1-.25.35-.65.51-1.18.51h-1.46v2.5h1.83c.5,0,.87.13,1.12.32.19.19.31.61.31,1.19,0,.45-.09.8-.25,1-.28.35-.68.51-1.18.51h-1.83v4.01c0,.58-.16,1.03-.44,1.29-.28.29-.71.45-1.27.45s-.99-.16-1.27-.45c-.28-.26-.4-.71-.4-1.29v-4.01h-3.05c-.5,2.06-1.18,3.63-2.05,4.75-.37.58-.9.87-1.58.87s-1.24-.22-1.55-.64c-.28-.35-.4-.71-.4-1.09,0-.32.06-.64.25-1.03.75-.8,1.37-1.77,1.8-2.86h-1.09c-.5,0-.84-.13-1.09-.39-.25-.19-.34-.55-.34-1.12s.09-1,.34-1.19c.22-.19.59-.32,1.09-.32h1.74c.06-.74.09-1.57.09-2.5h-1.46c-.5,0-.84-.13-1.09-.39-.25-.19-.37-.55-.37-1.12s.12-1,.37-1.19c.22-.19.59-.32,1.09-.32h12.15ZM30.44,32.35h-2.46c0,.87-.03,1.64-.06,2.34v.16h2.52v-2.5ZM42.56,18.15v22.97c0,2.09-1.15,3.15-3.39,3.15-1.15,0-2.05-.19-2.7-.55-.75-.32-1.12-.87-1.18-1.61,0-.93.09-1.61.31-1.99.25-.22.53-.35.78-.38.06,0,.12.03.25.1.47.16.84.26,1.09.29.37,0,.59-.16.59-.51v-11.4h-6.06c-1.15,0-1.71-.67-1.71-2.02v-8.16c0-1.32.68-1.99,2.08-1.99h7.27c1.77,0,2.67.71,2.67,2.12ZM38.31,20.91v-1.64h-3.76v1.64h3.76ZM38.31,23.29h-3.76v1.64h3.76v-1.64Z"/>
    </g>
    <g>
      <g>
        <g>
          <path class="cls-2" d="M89.61,57.07c-14.93,0-27.07-12.14-27.07-27.07S74.69,2.93,89.61,2.93s27.07,12.14,27.07,27.07-12.14,27.07-27.07,27.07Z"/>
          <path class="cls-3" d="M89.62,4.59c14.03,0,25.41,11.37,25.41,25.41s-11.37,25.41-25.41,25.41-25.41-11.37-25.41-25.41,11.37-25.41,25.41-25.41M89.62,1.27c-15.84,0-28.73,12.89-28.73,28.73s12.89,28.73,28.73,28.73,28.73-12.89,28.73-28.73S105.46,1.27,89.62,1.27h0Z"/>
        </g>
        <g>
          <path class="cls-2" d="M89.61,53.49c-12.95,0-23.49-10.54-23.49-23.49s10.54-23.49,23.49-23.49,23.49,10.54,23.49,23.49-10.54,23.49-23.49,23.49Z"/>
          <path class="cls-3" d="M89.62,7.07c12.67,0,22.93,10.27,22.93,22.93s-10.27,22.93-22.93,22.93-22.93-10.27-22.93-22.93,10.27-22.93,22.93-22.93M89.62,5.96c-13.26,0-24.04,10.78-24.04,24.04s10.78,24.04,24.04,24.04,24.04-10.78,24.04-24.04-10.78-24.04-24.04-24.04h0Z"/>
        </g>
      </g>
      <path class="cls-3" d="M81.04,38.13c-.53,2.25-1.18,4.08-1.99,5.49-.47.58-1.09.9-1.83.9-.62,0-1.12-.16-1.46-.45-.37-.32-.59-.8-.59-1.45,0-.51.19-1.22.56-2.12,1.31-3.6,1.99-7.19,1.99-10.79v-9.54c0-1.25.31-2.15.99-2.73.56-.45,1.34-.67,2.39-.67,7.96-.32,13.99-.77,18.09-1.29.56-.06,1.12-.1,1.71-.1.5,0,.93.22,1.24.61.28.45.44.87.44,1.28,0,1.06-.4,1.67-1.21,1.86-1.71.32-4.04.55-7.02.67-3.79.32-7.62.48-11.53.48-.62,0-.96.26-.96.74v1h17.59c2.02,0,3.05.93,3.05,2.76v6.17c0,1.77-.93,2.63-2.8,2.63h-18c-.12,1.67-.34,3.18-.65,4.53ZM81.84,29.58h15.42c.56,0,.84-.26.84-.77v-1.73c0-.58-.28-.93-.84-1.03h-15.42v3.53Z"/>
    </g>
    <g>
      <g>
        <g>
          <path class="cls-2" d="M150,57.07c-14.93,0-27.07-12.14-27.07-27.07s12.14-27.07,27.07-27.07,27.07,12.14,27.07,27.07-12.14,27.07-27.07,27.07Z"/>
          <path class="cls-3" d="M150,4.59c14.03,0,25.41,11.37,25.41,25.41s-11.37,25.41-25.41,25.41-25.41-11.37-25.41-25.41,11.37-25.41,25.41-25.41M150,1.27c-15.84,0-28.73,12.89-28.73,28.73s12.89,28.73,28.73,28.73,28.73-12.89,28.73-28.73S165.84,1.27,150,1.27h0Z"/>
        </g>
        <g>
          <path class="cls-2" d="M150,53.49c-12.95,0-23.49-10.54-23.49-23.49s10.54-23.49,23.49-23.49,23.49,10.54,23.49,23.49-10.54,23.49-23.49,23.49Z"/>
          <path class="cls-3" d="M150,7.07c12.67,0,22.93,10.27,22.93,22.93s-10.27,22.93-22.93,22.93-22.93-10.27-22.93-22.93,10.27-22.93,22.93-22.93M150,5.96c-13.26,0-24.04,10.78-24.04,24.04s10.78,24.04,24.04,24.04,24.04-10.78,24.04-24.04-10.78-24.04-24.04-24.04h0Z"/>
        </g>
      </g>
      <path class="cls-3" d="M144.96,15.45c.44.35.65.84.65,1.45v1h3.14c.56,0,.99.16,1.24.42.31.19.47.71.47,1.48,0,.64-.09,1.06-.28,1.28-.28.42-.75.61-1.43.61h-.28l-.53,3.5h1.06c.56,0,.99.13,1.24.35.31.19.47.67.47,1.41,0,.64-.09,1.06-.28,1.29-.31.39-.78.58-1.43.58h-3.64v2.15h2.92c.59,0,1.03.13,1.34.38.31.22.47.71.47,1.48,0,.71-.09,1.16-.28,1.38-.31.45-.84.64-1.52.64h-2.92v1.09l.06-.06c.31-.19.65-.29,1.03-.29.44,0,.81.13,1.09.38.34.32.81.93,1.4,1.8.5.8.78,1.35.87,1.64,1.06-2.41,1.62-4.95,1.62-7.58v-10.66c0-1.67.4-2.79,1.27-3.31.44-.39,1.24-.64,2.39-.71,2.92-.45,4.94-.96,6.06-1.54.19-.06.34-.1.5-.1.56,0,.96.22,1.27.61.44.35.65.9.65,1.67,0,1.12-.5,1.86-1.46,2.25-1.18.45-3.14.83-5.81,1.12-.68.1-.99.42-.99,1v2.89h7.18c.75,0,1.24.16,1.52.45.25.32.4.9.4,1.67s-.12,1.25-.31,1.57c-.34.39-.87.58-1.62.58h-.84v13.3c0,.71-.19,1.19-.5,1.48-.31.32-.81.51-1.46.51s-1.15-.19-1.46-.51c-.31-.29-.47-.77-.47-1.48v-13.3h-2.46v2.51c0,4.79-.9,8.64-2.67,11.53-.44.83-1.31,1.25-2.55,1.25-.62-.13-1.06-.39-1.24-.74-.31-.51-.44-1-.44-1.51,0-.29.19-.71.59-1.29,0,0,.03-.03.03-.06-.31.16-.59.23-.87.23-.5,0-.81-.16-.96-.51-.56-.96-1.15-1.89-1.83-2.86v4.88c0,.71-.19,1.19-.5,1.48-.31.32-.81.51-1.43.51-.65,0-1.15-.19-1.46-.51-.34-.29-.5-.77-.5-1.48v-4.56c-1.03,1.99-2.05,3.44-3.05,4.43-.25.26-.56.39-.96.39-.56,0-.99-.26-1.31-.71-.28-.26-.4-.74-.4-1.45,0-.26.12-.64.37-1.12.84-.9,1.77-2.02,2.77-3.37.34-.48.68-1,.99-1.51h-1.93c-.56,0-.99-.16-1.31-.48-.37-.26-.53-.77-.53-1.54s.16-1.25.53-1.54c.25-.19.68-.32,1.31-.32h3.51v-2.15h-4.01c-.53,0-.93-.13-1.21-.42-.34-.26-.5-.74-.5-1.45s.16-1.19.5-1.45c.22-.19.62-.32,1.21-.32h1.62l-.65-3.5h-.34c-.53,0-.93-.13-1.24-.45-.31-.26-.47-.74-.47-1.45s.16-1.25.47-1.54c.25-.22.65-.35,1.24-.35h3.14v-1c0-.51.19-1.03.62-1.48.31-.26.84-.38,1.59-.38s1.21.16,1.52.42ZM144.68,25.18l.53-3.5h-3.51l.65,3.5h2.33Z"/>
    </g>
    <g>
      <g>
        <g>
          <path class="cls-2" d="M210.38,57.07c-14.93,0-27.07-12.14-27.07-27.07s12.14-27.07,27.07-27.07,27.07,12.14,27.07,27.07-12.14,27.07-27.07,27.07Z"/>
          <path class="cls-3" d="M210.38,4.59c14.03,0,25.41,11.37,25.41,25.41s-11.37,25.41-25.41,25.41-25.41-11.37-25.41-25.41,11.37-25.41,25.41-25.41M210.38,1.27c-15.84,0-28.73,12.89-28.73,28.73s12.89,28.73,28.73,28.73,28.73-12.89,28.73-28.73S226.23,1.27,210.38,1.27h0Z"/>
        </g>
        <g>
          <path class="cls-2" d="M210.38,53.49c-12.95,0-23.49-10.54-23.49-23.49s10.54-23.49,23.49-23.49,23.49,10.54,23.49,23.49-10.54,23.49-23.49,23.49Z"/>
          <path class="cls-3" d="M210.38,7.07c12.67,0,22.93,10.27,22.93,22.93s-10.27,22.93-22.93,22.93-22.93-10.27-22.93-22.93,10.27-22.93,22.93-22.93M210.38,5.96c-13.26,0-24.04,10.78-24.04,24.04s10.78,24.04,24.04,24.04,24.04-10.78,24.04-24.04-10.78-24.04-24.04-24.04h0Z"/>
        </g>
      </g>
      <path class="cls-3" d="M206.5,16.16c1.74,0,2.64.93,2.64,2.76v21.81c0,1.41-.12,2.34-.34,2.79-.31.58-.81.87-1.46.87-1.74,0-2.98-.19-3.73-.55-.68-.32-.99-.9-.99-1.73s.12-1.45.4-1.86c.16-.26.44-.39.81-.39h1.55c.06,0,.12-.16.12-.51v-4.75h-3.89c-.37,3.5-.93,6.3-1.68,8.42-.31.9-.96,1.38-1.96,1.38-1.21-.1-1.86-.64-1.93-1.64,0-.83.25-1.93.75-3.31,1.03-4.24,1.55-8.99,1.55-14.26v-6.13c0-1.93.87-2.89,2.67-2.89h5.47ZM205.5,30.84v-3.76h-3.51c-.03,1.35-.06,2.6-.12,3.76h3.64ZM205.5,23.29v-2.76c0-.32-.12-.48-.34-.48h-2.8c-.25,0-.37.13-.37.38v2.86h3.51ZM220.45,16.16c1.77,0,2.67.93,2.67,2.76v21.81c0,1.41-.12,2.34-.37,2.79-.31.58-.81.87-1.46.87-1.86,0-3.2-.19-4.01-.58-.75-.35-1.09-.96-1.09-1.83s.16-1.45.47-1.86c.16-.26.44-.38.87-.38h1.83c.06,0,.09-.16.09-.51v-4.62h-4.48c-.34,3.5-.87,6.3-1.58,8.42-.31.9-.93,1.38-1.93,1.38-1.21-.1-1.86-.64-1.96-1.64,0-.83.25-1.93.75-3.31.93-4.24,1.43-8.99,1.43-14.26v-6.13c0-1.93.87-2.89,2.67-2.89h6.09ZM219.46,30.84v-3.76h-4.1c-.03,1.35-.06,2.6-.12,3.76h4.23ZM219.46,23.29v-2.76c0-.32-.12-.48-.34-.48h-3.42c-.25,0-.34.13-.34.38v2.86h4.1Z"/>
    </g>
    <g>
      <g>
        <g>
          <path class="cls-2" d="M270.77,57.07c-14.93,0-27.07-12.14-27.07-27.07s12.14-27.07,27.07-27.07,27.07,12.14,27.07,27.07-12.14,27.07-27.07,27.07Z"/>
          <path class="cls-3" d="M270.77,4.59c14.03,0,25.41,11.37,25.41,25.41s-11.37,25.41-25.41,25.41-25.41-11.37-25.41-25.41,11.37-25.41,25.41-25.41M270.77,1.27c-15.84,0-28.73,12.89-28.73,28.73s12.89,28.73,28.73,28.73,28.73-12.89,28.73-28.73-12.89-28.73-28.73-28.73h0Z"/>
        </g>
        <g>
          <path class="cls-2" d="M270.77,53.49c-12.95,0-23.49-10.54-23.49-23.49s10.54-23.49,23.49-23.49,23.49,10.54,23.49,23.49-10.54,23.49-23.49,23.49Z"/>
          <path class="cls-3" d="M270.77,7.07c12.67,0,22.93,10.27,22.93,22.93s-10.27,22.93-22.93,22.93-22.93-10.27-22.93-22.93,10.27-22.93,22.93-22.93M270.77,5.96c-13.26,0-24.04,10.78-24.04,24.04s10.78,24.04,24.04,24.04,24.04-10.78,24.04-24.04-10.78-24.04-24.04-24.04h0Z"/>
        </g>
      </g>
      <path class="cls-3" d="M264.21,18.41c.16-.67.31-1.38.47-2.12.25-.84.72-1.25,1.34-1.25.65,0,1.24.13,1.8.32.56.32.87.83.87,1.54,0,.51-.06,1-.12,1.51h14.08c.75,0,1.27.16,1.62.45.31.26.47.8.47,1.57,0,.64-.12,1.12-.37,1.41-.37.48-.96.71-1.71.71h-14.95c-.25,1-.5,1.96-.75,2.89h13.15c2.11,0,3.17.96,3.17,2.89,0,2.31-1.46,4.91-4.32,7.84-.53.45-1.06.87-1.55,1.25,1.9,1.03,4.04,2.06,6.46,3.08.62.39.93.9,1,1.61,0,.74-.22,1.28-.65,1.67-.31.39-.81.61-1.55.61-1.12,0-2.61-.42-4.44-1.19-1.74-.8-3.45-1.73-5.07-2.83-1.71,1.03-3.48,1.93-5.35,2.76-1.93.83-3.2,1.25-3.82,1.25-.71,0-1.3-.32-1.77-.96-.31-.42-.43-.87-.43-1.32,0-.77.25-1.29.75-1.61,2.49-1.09,4.72-2.15,6.65-3.18-.59-.48-1.15-1-1.71-1.54-1.15-1.09-2.14-2.28-2.95-3.53-1.46,3.41-2.92,6.17-4.41,8.25-.34.58-.87.87-1.58.87s-1.24-.22-1.59-.67c-.4-.32-.59-.83-.59-1.48,0-.77.22-1.54.68-2.31,2.27-3.98,3.82-7.16,4.63-9.51.5-1.35,1.03-2.96,1.55-4.85h-4.32c-.71,0-1.24-.16-1.59-.51-.34-.29-.5-.83-.5-1.61s.16-1.32.5-1.57c.31-.29.84-.45,1.59-.45h5.35ZM271.51,33.76c.5.42,1.06.8,1.68,1.19.56-.35,1.06-.71,1.52-1.06,2.3-1.64,3.45-2.96,3.45-3.95,0-.32-.25-.48-.75-.48h-9.82c1.27,1.83,2.58,3.28,3.92,4.3Z"/>
    </g>
  </g>
  <g>
    <path class="cls-1" d="M63.97,95.61c-.31.39-.75.58-1.24.58-1.27,0-2.02-.61-2.21-1.8l-3.89-22.29c-.06-.22-.06-.48-.06-.8,0-.58.25-1.06.75-1.38.4-.26.9-.42,1.49-.42.93,0,1.49.48,1.68,1.45l3.92,22.64c.03.22.06.45.06.64,0,.51-.19,1-.5,1.38Z"/>
    <path class="cls-1" d="M80.18,72.04v-.1c0-.34.12-.65.39-.96.19-.14.51-.24.98-.24s.77.1.95.26c.26.24.39.55.39.94v.1h2.81c1.02,0,1.56.55,1.56,1.61v.94h.44c.37,0,.63.07.79.22.05.05.09.12.14.22.33-1.15.63-2.28.88-3.34.12-.53.44-.79,1-.84.46,0,.86.1,1.21.29.37.24.58.55.6.91,0,.48-.12,1.1-.3,1.92-.05.14-.07.24-.09.34h2.86c.56,0,.93.12,1.14.34.19.24.3.67.3,1.27,0,.53-.09.91-.23,1.15-.14.19-.35.31-.6.36-.05.84-.14,1.82-.28,2.98-.37,2.74-.98,4.99-1.83,6.79-.02.05-.05.1-.05.12.63.96,1.49,2.02,2.55,3.12.28.24.44.6.44,1.03,0,.29-.12.55-.35.79-.28.34-.67.53-1.18.53-.44,0-.81-.14-1.09-.38-.7-.67-1.35-1.44-1.93-2.3-.56.77-1.21,1.46-1.93,2.14-.49.43-.95.65-1.39.65-.53,0-.95-.17-1.25-.5-.14-.14-.26-.29-.3-.43-.09.1-.16.19-.26.29-.19.26-.51.41-.93.46-.3,0-.58-.05-.81-.14-1.16-.5-2.3-.96-3.41-1.39-1.16.62-2.37,1.08-3.65,1.42-.65.19-1.18.31-1.56.31-.46,0-.81-.14-1.04-.43-.23-.29-.33-.58-.33-.89,0-.34.19-.62.56-.84,1.04-.22,2-.48,2.86-.77-.37-.12-.72-.24-1.04-.36-.42-.07-.7-.19-.86-.38-.09-.17-.14-.38-.14-.65,0-.19.05-.41.14-.65.19-.29.35-.58.51-.86h-1.09c-.37,0-.65-.07-.84-.26-.19-.14-.26-.43-.26-.86s.07-.72.26-.86c.16-.14.44-.24.84-.24h2.32c.14-.26.26-.53.4-.77.05-.1.09-.19.14-.26h-2.04c-.67,0-1-.53-1-1.61v-1.22c0-.67.42-1.03,1.25-1.03h3.37v-.74h-2.81c-1.05,0-1.56-.53-1.56-1.58v-1.03h-.16c-.35,0-.6-.07-.77-.24-.16-.14-.23-.41-.23-.79,0-.36.07-.6.23-.74.14-.12.4-.19.77-.19h.16v-.94c0-1.06.51-1.61,1.56-1.61h2.81ZM80.18,81.43h-1.9c-.14,0-.19.07-.19.19,0,.43.05.65.19.65h1.9v-.84ZM80.18,74.59v-.94h-1.46c-.12,0-.16.07-.16.19v.74h1.63ZM80.18,76.56h-1.63v.84c0,.14.05.19.16.19h1.46v-1.03ZM79.59,87.05s-.05.07-.07.12c-.19.29-.26.55-.26.74,0,.1.16.19.51.29.56.14,1.07.29,1.58.41.79-.48,1.39-1.01,1.81-1.56h-3.58ZM87.26,90.24c1.14-.89,2.09-1.9,2.83-3.02-.05-.05-.07-.1-.07-.14-.67-1.39-1.25-3.02-1.74-4.92-.05-.29-.09-.58-.12-.91,0-.22.05-.41.16-.58-.3-.07-.58-.24-.86-.5-.28-.24-.39-.6-.39-1.08,0-.05.05-.17.19-.36.33-.67.65-1.42.93-2.23-.16.05-.33.07-.49.07h-.44v1.03c0,1.06-.53,1.58-1.56,1.58h-2.81v.74h3.09c.84,0,1.28.36,1.28,1.03v1.13c0,1.15-.37,1.7-1.09,1.7h-5.09c.05.14.09.31.09.46,0,.1-.09.29-.23.58h6.13c.37,0,.65.1.84.24.16.14.26.43.26.86,0,.36-.07.62-.21.77-.19.24-.49.36-.88.36h-1.32c-.4.82-.98,1.58-1.77,2.3.77.24,1.44.48,2,.7.42.14.7.34.84.62.09-.17.26-.31.44-.43ZM82.89,74.59h1.63v-.74c0-.12-.07-.19-.16-.19h-1.46v.94ZM84.52,77.4v-.84h-1.63v1.03h1.46c.09,0,.16-.05.16-.19ZM84.7,81.62c0-.12-.07-.19-.19-.19h-1.63v.84h1.63c.12,0,.19-.22.19-.65ZM90.42,80.78c.39,1.25.79,2.35,1.18,3.31.58-1.78.95-3.98,1.14-6.6h-1.83c-.39,1.06-.79,1.9-1.18,2.57.37.1.6.34.7.72Z"/>
    <path class="cls-1" d="M107.37,73.08c.09-.34.16-.67.26-1.03.16-.74.63-1.13,1.37-1.13.51,0,.93.14,1.28.41.28.24.44.58.44,1.01,0,.26-.02.5-.07.74h10.06c.51,0,.91.12,1.14.34.19.19.3.6.3,1.18,0,.48-.09.82-.26,1.01-.26.34-.65.48-1.18.48h-10.94c-.46,1.18-1,2.35-1.63,3.53-.44.7-.88,1.34-1.35,1.92,0,.07.02.14.02.19v9.55c0,.41-.12.74-.3,1.03-.26.38-.67.58-1.23.58s-.93-.19-1.21-.55c-.23-.29-.35-.65-.35-1.06v-6.72s-.05.02-.05.02c-.46.34-.91.5-1.3.5-.51,0-.95-.22-1.32-.67-.28-.31-.39-.65-.39-1.01,0-.55.16-.96.53-1.22,1.58-1.08,2.9-2.38,3.95-3.91.42-.65.81-1.37,1.18-2.18h-4.04c-.49,0-.86-.1-1.09-.34-.26-.22-.37-.6-.37-1.15s.12-.96.37-1.18c.21-.22.58-.34,1.09-.34h5.09ZM118.33,78.04c.84,0,1.46.14,1.83.41.46.34.72.84.72,1.56,0,.31-.09.62-.28.94-.56.91-1.32,1.82-2.3,2.74h2.39c.51,0,.91.12,1.14.34.19.19.3.58.3,1.15,0,.48-.09.82-.26,1.03-.26.34-.65.48-1.18.48h-3.04c.14.65.23,1.25.23,1.78,0,1.56-.3,2.69-.88,3.41-.6.7-1.49,1.06-2.65,1.08-1.39,0-2.69-.31-3.9-.94-.49-.26-.74-.62-.74-1.1s.09-.91.33-1.27c.19-.29.44-.43.77-.43.26,0,.49.07.7.17,1,.34,1.7.5,2.11.5.49,0,.84-.12,1.07-.36.14-.26.21-.77.21-1.54,0-.24-.12-.67-.35-1.3h-5.27c-.49,0-.86-.12-1.11-.36-.23-.19-.35-.58-.35-1.15s.12-.96.35-1.18c.23-.19.6-.31,1.11-.31h3.92c-.09-.22-.12-.38-.12-.48,0-.34.21-.67.63-.96.3-.22.67-.34,1.09-.34.37,0,.72.14,1,.43.56-.53.86-.96.91-1.3,0-.1-.07-.17-.19-.17h-5.99c-.46,0-.79-.12-1.02-.36-.23-.17-.33-.53-.33-1.06s.12-.89.37-1.1c.14-.19.46-.31.98-.31h7.8Z"/>
    <path class="cls-1" d="M133.7,71.16c.33.26.49.62.49,1.08v.74h2.35c.42,0,.74.12.93.31.23.14.35.53.35,1.1,0,.48-.07.79-.21.96-.21.31-.56.46-1.07.46h-.21l-.4,2.62h.79c.42,0,.74.1.93.26.23.14.35.5.35,1.06,0,.48-.07.79-.21.96-.23.29-.58.43-1.07.43h-2.72v1.61h2.18c.44,0,.77.1,1,.29.23.17.35.53.35,1.1,0,.53-.07.86-.21,1.03-.23.34-.63.48-1.14.48h-2.18v.82s.05-.05.05-.05c.23-.14.49-.22.77-.22.33,0,.6.1.81.29.26.24.6.7,1.04,1.34.37.6.58,1.01.65,1.22.79-1.8,1.21-3.7,1.21-5.66v-7.97c0-1.25.3-2.09.95-2.47.33-.29.93-.48,1.79-.53,2.18-.34,3.69-.72,4.53-1.15.14-.05.26-.07.37-.07.42,0,.72.17.95.46.33.26.49.67.49,1.25,0,.84-.37,1.39-1.09,1.68-.88.34-2.35.62-4.34.84-.51.07-.74.31-.74.74v2.16h5.36c.56,0,.93.12,1.14.34.19.24.3.67.3,1.25s-.09.94-.23,1.18c-.26.29-.65.43-1.21.43h-.63v9.94c0,.53-.14.89-.37,1.1-.23.24-.6.38-1.09.38s-.86-.14-1.09-.38c-.23-.22-.35-.58-.35-1.1v-9.94h-1.83v1.87c0,3.58-.67,6.46-2,8.62-.33.62-.98.94-1.9.94-.46-.1-.79-.29-.93-.55-.23-.38-.32-.74-.32-1.13,0-.22.14-.53.44-.96,0,0,.02-.02.02-.05-.23.12-.44.17-.65.17-.37,0-.6-.12-.72-.38-.42-.72-.86-1.42-1.37-2.14v3.65c0,.53-.14.89-.37,1.1-.23.24-.6.38-1.07.38-.49,0-.86-.14-1.09-.38-.26-.22-.37-.58-.37-1.1v-3.41c-.77,1.49-1.53,2.57-2.28,3.31-.19.19-.42.29-.72.29-.42,0-.74-.19-.98-.53-.21-.19-.3-.55-.3-1.08,0-.19.09-.48.28-.84.63-.67,1.32-1.51,2.07-2.52.26-.36.51-.74.74-1.13h-1.44c-.42,0-.74-.12-.98-.36-.28-.19-.4-.58-.4-1.15s.12-.94.4-1.15c.19-.14.51-.24.98-.24h2.62v-1.61h-3c-.4,0-.7-.1-.91-.31-.26-.19-.37-.55-.37-1.08s.12-.89.37-1.08c.16-.14.46-.24.91-.24h1.21l-.49-2.62h-.26c-.4,0-.7-.1-.93-.34-.23-.19-.35-.55-.35-1.08s.12-.94.35-1.15c.19-.17.49-.26.93-.26h2.35v-.74c0-.38.14-.77.46-1.1.23-.19.63-.29,1.18-.29s.91.12,1.14.31ZM133.5,78.43l.4-2.62h-2.62l.49,2.62h1.74Z"/>
    <path class="cls-1" d="M157.07,88.1c-.4,1.68-.88,3.05-1.49,4.1-.35.43-.81.67-1.37.67-.46,0-.84-.12-1.09-.34-.28-.24-.44-.6-.44-1.08,0-.38.14-.91.42-1.58.98-2.69,1.49-5.38,1.49-8.06v-7.13c0-.94.23-1.61.74-2.04.42-.34,1-.5,1.79-.5,5.95-.24,10.45-.58,13.52-.96.42-.05.84-.07,1.28-.07.37,0,.7.17.93.46.21.34.33.65.33.96,0,.79-.3,1.25-.91,1.39-1.28.24-3.02.41-5.25.5-2.83.24-5.69.36-8.62.36-.46,0-.72.19-.72.55v.74h13.14c1.51,0,2.28.7,2.28,2.06v4.61c0,1.32-.7,1.97-2.09,1.97h-13.45c-.09,1.25-.26,2.38-.49,3.38ZM157.67,81.72h11.52c.42,0,.63-.19.63-.58v-1.3c0-.43-.21-.7-.63-.77h-11.52v2.64Z"/>
    <path class="cls-1" d="M187.77,71.95c.05-.38.14-.65.32-.84.21-.24.6-.36,1.21-.36s1.02.12,1.23.36c.19.19.32.48.37.84h7.83c.33,0,.56.07.72.22.19.14.28.41.28.82,0,.38-.07.65-.16.79-.19.24-.46.34-.84.34h-7.8v.77h6.18c1.02,0,1.53.53,1.53,1.58v4.03c0,.62-.19,1.08-.53,1.32.26.29.53.65.84,1.06.58.82.88,1.37.88,1.66,0,.34-.07.53-.19.62-.33.41-.72.6-1.18.6-.42,0-.67-.14-.81-.48-.14-.19-.26-.36-.37-.55l-1.83.02c.19.22.3.48.3.82v.36h3.27c.35,0,.6.1.79.24.19.14.3.43.3.89,0,.43-.07.7-.19.84-.19.26-.49.38-.91.38h-3.27v1.97c0,.77-.26,1.37-.74,1.8-.58.55-1.37.84-2.35.84-.84,0-1.56-.1-2.18-.29-.65-.24-.98-.82-.98-1.68,0-.77.35-1.18,1.07-1.22h.35c.37.07.79.1,1.21.1.35,0,.53-.14.53-.48v-1.03h-7.29c1.07.65,1.79,1.2,2.21,1.68.23.24.37.58.37.96,0,.34-.14.7-.42,1.06-.32.41-.74.62-1.21.62-.23,0-.42-.07-.53-.19-1.07-.86-2-1.63-2.81-2.26-.09-.05-.16-.1-.21-.19-.19-.14-.26-.41-.26-.74,0-.31.14-.62.44-.94h-3c-.33,0-.58-.1-.77-.29-.23-.14-.32-.46-.32-.94,0-.43.09-.72.32-.91.14-.14.4-.22.77-.22h12.7v-.36c0-.34.12-.58.3-.77l-12.45.19c-.37,0-.63-.1-.77-.29-.14-.14-.23-.38-.23-.74s.09-.62.28-.79c.14-.14.35-.22.63-.24l7.34-.07v-.77h-6.06c-1.04,0-1.56-.53-1.56-1.58v-4.03c0-1.06.51-1.58,1.56-1.58h6.06v-.77h-7.52c-.3,0-.53-.07-.72-.26-.19-.14-.28-.43-.28-.86,0-.38.09-.67.28-.84.14-.12.37-.19.72-.19h7.55ZM187.75,77.59v-.84h-4.06c-.33,0-.46.17-.46.46v.38h4.53ZM187.75,79.27h-4.53v.48c0,.31.14.46.46.46h4.06v-.94ZM190.93,77.59h4.62v-.38c0-.29-.16-.46-.44-.46h-4.18v.84ZM195.55,79.75v-.48h-4.62v.94h4.18c.28,0,.44-.14.44-.46ZM195.55,82.58c-.14-.14-.19-.26-.19-.41v-.1h-4.44v.74l4.78-.05c-.07-.07-.12-.14-.16-.19Z"/>
    <path class="cls-1" d="M209.32,75.91v2.62c0,4.46-.21,7.63-.6,9.55-.19,1.73-.53,3.07-1.02,4.03-.26.43-.63.67-1.09.67-.65,0-1.05-.12-1.23-.34-.28-.19-.42-.48-.42-.89,0-.38.05-.77.16-1.13.42-1.34.74-3.05.98-5.09.21-1.92.33-4.2.33-6.82v-6.1c0-.74.63-1.13,1.9-1.13h15.42c1.02,0,1.53.38,1.53,1.13v2.16c0,.89-.56,1.32-1.63,1.32h-5.27c.14.05.23.12.33.17.14.19.23.5.23.94v1.8c0,.41-.09.7-.28.89-.12.12-.23.19-.37.22h5.83c.77,0,1.16.41,1.16,1.22v1.22c0,.82-.4,1.22-1.16,1.22h-9.57c-.14.19-.26.38-.39.55h9.41c.79,0,1.35.14,1.67.38.39.38.6.96.6,1.78,0,2.3-.21,3.98-.6,5.04-.49,1.1-1.44,1.66-2.86,1.7-.74,0-1.37-.1-1.9-.26-.07-.05-.12-.07-.14-.1-.28,0-.46-.07-.58-.17-.09-.1-.16-.19-.19-.31-.05-.1-.09-.17-.12-.22-.07,0-.12.02-.14.02-3.69.38-6.57.58-8.64.58-.3,0-.51-.1-.63-.24-.12-.14-.19-.38-.19-.7s.07-.53.23-.67c.09-.12.28-.17.58-.17,1.35-.07,2.67-.14,3.99-.22v-.82h-3c-.79,0-1.16-.41-1.16-1.22v-.94c0-.22.02-.41.09-.58h-.09c-.39,0-.67-.12-.86-.34-.23-.17-.33-.46-.33-.86,0-.19.09-.41.33-.65.95-.58,1.7-1.1,2.21-1.61h-.19c-.79,0-1.16-.41-1.16-1.22v-1.22c0-.82.37-1.22,1.16-1.22h5.36c-.14-.05-.26-.12-.35-.22-.19-.14-.28-.46-.28-.89v-1.8c0-.38.07-.65.23-.84.09-.1.21-.19.37-.26h-7.69ZM222.02,74.01c.23,0,.35-.07.35-.26v-.29c0-.19-.09-.29-.26-.29h-12.52c-.19,0-.28.1-.28.29v.55h12.7ZM215.22,76.56c.19,0,.3.05.4.12s.14.22.14.43c0,.24-.05.38-.09.46-.09.14-.26.22-.44.22h-4.62c-.19,0-.33-.05-.42-.17-.09-.1-.14-.26-.14-.5,0-.22.05-.36.14-.46.07-.05.21-.1.42-.1h4.62ZM215.13,78.24c.19,0,.3.05.4.12.09.07.14.22.14.46,0,.22-.05.36-.09.43-.09.14-.23.22-.44.22h-4.53c-.19,0-.33-.05-.42-.14-.09-.1-.14-.26-.14-.5s.05-.38.14-.46c.07-.07.21-.12.42-.12h4.53ZM212.78,85.75c-.28.26-.51.48-.74.65h2.62v-.65h-1.88ZM214.94,81.24h-1.53c-.19,0-.28.1-.28.29v.46c0,.19.09.29.28.29h1.53v-1.03ZM214.66,87.62h-1.25c-.19,0-.28.1-.28.29v.36c0,.19.09.29.28.29h1.25v-.94ZM218.75,81.24h-1.81v1.03h1.81v-1.03ZM221.84,90.98c.42,0,.72-.43.86-1.32.14-1.27.23-2.45.23-3.55,0-.24-.16-.36-.46-.36h-5.06v.65h2.97c.79,0,1.18.41,1.18,1.22v.94c0,.82-.4,1.22-1.18,1.22h-.05c.21.24.44.6.72,1.06,0,.02.02.05.02.05.28.05.53.1.77.1ZM218.93,88.27v-.36c0-.19-.09-.29-.28-.29h-1.25v.94h1.25c.19,0,.28-.1.28-.29ZM218.42,90.33s-.02-.12-.02-.19c0-.1,0-.22.05-.36h-1.05v.67c.37,0,.72-.02,1.07-.07-.05-.02-.05-.05-.05-.05ZM224.56,76.56c.19,0,.3.05.39.12s.16.22.16.43c0,.24-.05.38-.09.46-.09.14-.26.22-.46.22h-4.34c-.19,0-.3-.05-.39-.17-.12-.1-.16-.26-.16-.5,0-.22.05-.36.16-.46.05-.05.19-.1.39-.1h4.34ZM224.56,78.24c.19,0,.3.05.39.12.09.07.16.22.16.46,0,.22-.05.36-.09.43-.09.14-.26.22-.46.22h-4.34c-.19,0-.3-.05-.39-.14-.12-.1-.16-.26-.16-.5s.05-.38.16-.46c.05-.07.19-.12.39-.12h4.34ZM222.65,81.98v-.46c0-.19-.09-.29-.28-.29h-1.63v1.03h1.63c.19,0,.28-.1.28-.29Z"/>
    <path class="cls-1" d="M243.36,72.09l-3.89,22.29c-.22,1.19-.96,1.8-2.21,1.8-.53,0-.93-.19-1.24-.58-.34-.39-.5-.87-.5-1.38,0-.19,0-.42.06-.64l3.92-22.64c.16-.96.71-1.45,1.68-1.45.56,0,1.06.16,1.49.42.5.32.75.8.75,1.38,0,.32-.03.58-.06.8Z"/>
  </g>
</svg>