<?xml version="1.0" encoding="UTF-8"?>
<svg id="_圖層_1" data-name="圖層 1" xmlns="http://www.w3.org/2000/svg" xmlns:xlink="http://www.w3.org/1999/xlink" viewBox="0 0 200 200">
  <defs>
    <style>
      .cls-1 {
        fill: url(#_未命名漸層_38-2);
      }

      .cls-2 {
        fill: url(#_未命名漸層_38-3);
      }

      .cls-3 {
        fill: #fff;
      }

      .cls-4 {
        fill: url(#_未命名漸層_46-5);
      }

      .cls-5 {
        fill: url(#_未命名漸層_2);
      }

      .cls-6 {
        fill: url(#_未命名漸層_3);
      }

      .cls-7 {
        fill: url(#_未命名漸層_46-2);
      }

      .cls-8 {
        fill: url(#_未命名漸層_66);
      }

      .cls-9 {
        fill: url(#_未命名漸層_38);
      }

      .cls-10 {
        fill: url(#_未命名漸層_38-4);
      }

      .cls-11 {
        fill: url(#_未命名漸層_38-5);
      }

      .cls-12 {
        fill: url(#_未命名漸層_46-4);
      }

      .cls-13 {
        fill: url(#_未命名漸層_58);
      }

      .cls-14 {
        fill: #e74e95;
      }

      .cls-15 {
        fill: url(#_未命名漸層_2-2);
      }

      .cls-16 {
        fill: url(#_未命名漸層_46);
      }

      .cls-17 {
        fill: url(#_未命名漸層_46-3);
      }
    </style>
    <radialGradient id="_未命名漸層_66" data-name="未命名漸層 66" cx="185.16" cy="79.85" fx="185.16" fy="79.85" r="22.09" gradientTransform="translate(320.83 39.09) rotate(148.54) scale(.97 .76)" gradientUnits="userSpaceOnUse">
      <stop offset=".03" stop-color="#a30000"/>
      <stop offset=".3" stop-color="#b30004"/>
      <stop offset=".54" stop-color="#be0008"/>
      <stop offset=".85" stop-color="#e06650"/>
      <stop offset="1" stop-color="#f19975"/>
    </radialGradient>
    <radialGradient id="_未命名漸層_58" data-name="未命名漸層 58" cx="139.32" cy="92.25" fx="139.32" fy="92.25" r="32.29" gradientTransform="translate(202.48 188.1) rotate(-161.72) scale(.97 .61)" gradientUnits="userSpaceOnUse">
      <stop offset="0" stop-color="#00388a"/>
      <stop offset=".16" stop-color="#004193"/>
      <stop offset=".41" stop-color="#004da0"/>
      <stop offset=".52" stop-color="#1a5fab"/>
      <stop offset=".85" stop-color="#6894cc"/>
      <stop offset="1" stop-color="#87aad9"/>
    </radialGradient>
    <linearGradient id="_未命名漸層_2" data-name="未命名漸層 2" x1="83.45" y1="40" x2="104.85" y2="106.39" gradientUnits="userSpaceOnUse">
      <stop offset="0" stop-color="#7b5430"/>
      <stop offset="0" stop-color="#7c5531"/>
      <stop offset=".04" stop-color="#977042"/>
      <stop offset=".08" stop-color="#ac8450"/>
      <stop offset=".13" stop-color="#bb935a"/>
      <stop offset=".18" stop-color="#c49c60"/>
      <stop offset=".27" stop-color="#c79f62"/>
      <stop offset=".4" stop-color="#c29a5f"/>
      <stop offset=".55" stop-color="#b48d57"/>
      <stop offset=".71" stop-color="#9d7749"/>
      <stop offset=".88" stop-color="#7d5936"/>
      <stop offset="1" stop-color="#624027"/>
    </linearGradient>
    <linearGradient id="_未命名漸層_3" data-name="未命名漸層 3" x1="90.72" y1="28.99" x2="114.7" y2="103.57" gradientUnits="userSpaceOnUse">
      <stop offset=".01" stop-color="#c79f62"/>
      <stop offset=".02" stop-color="#c8a166"/>
      <stop offset=".14" stop-color="#dbc29c"/>
      <stop offset=".24" stop-color="#ebdcc7"/>
      <stop offset=".34" stop-color="#f5efe5"/>
      <stop offset=".42" stop-color="#fcfaf8"/>
      <stop offset=".47" stop-color="#fff"/>
      <stop offset=".54" stop-color="#fcfbf8"/>
      <stop offset=".62" stop-color="#f6f0e6"/>
      <stop offset=".72" stop-color="#ebddc8"/>
      <stop offset=".83" stop-color="#dcc49f"/>
      <stop offset=".95" stop-color="#caa46b"/>
      <stop offset=".97" stop-color="#c79f62"/>
    </linearGradient>
    <linearGradient id="_未命名漸層_2-2" data-name="未命名漸層 2" x1="104.05" y1="60.95" x2="110.58" y2="80.81" xlink:href="#_未命名漸層_2"/>
    <radialGradient id="_未命名漸層_38" data-name="未命名漸層 38" cx="189.66" cy="77.6" fx="189.66" fy="77.6" r="37" gradientTransform="translate(-42.8 3.57) scale(.97)" gradientUnits="userSpaceOnUse">
      <stop offset="0" stop-color="#ffe9b3"/>
      <stop offset=".36" stop-color="#f9bf2c"/>
      <stop offset=".48" stop-color="#f0b126"/>
      <stop offset=".72" stop-color="#da8e16"/>
      <stop offset="1" stop-color="#bb5d00"/>
    </radialGradient>
    <radialGradient id="_未命名漸層_38-2" data-name="未命名漸層 38" cx="189.67" cy="77.6" fx="189.67" fy="77.6" r="37.01" xlink:href="#_未命名漸層_38"/>
    <radialGradient id="_未命名漸層_38-3" data-name="未命名漸層 38" cx="189.66" cy="77.6" fx="189.66" fy="77.6" r="36.99" xlink:href="#_未命名漸層_38"/>
    <radialGradient id="_未命名漸層_38-4" data-name="未命名漸層 38" cx="189.66" cy="77.6" fx="189.66" fy="77.6" r="36.99" xlink:href="#_未命名漸層_38"/>
    <radialGradient id="_未命名漸層_38-5" data-name="未命名漸層 38" cx="189.66" cy="77.6" fx="189.66" fy="77.6" r="37" xlink:href="#_未命名漸層_38"/>
    <radialGradient id="_未命名漸層_46" data-name="未命名漸層 46" cx="143.82" cy="64.94" fx="143.82" fy="64.94" r="37.72" gradientTransform="translate(-42.8 3.57) scale(.97)" gradientUnits="userSpaceOnUse">
      <stop offset="0" stop-color="#b3d796"/>
      <stop offset=".59" stop-color="#40b15d"/>
      <stop offset=".68" stop-color="#3aab59"/>
      <stop offset=".8" stop-color="#2a9d4f"/>
      <stop offset=".93" stop-color="#10863d"/>
      <stop offset="1" stop-color="#073"/>
    </radialGradient>
    <radialGradient id="_未命名漸層_46-2" data-name="未命名漸層 46" cx="143.87" cy="64.94" fx="143.87" fy="64.94" r="37.76" xlink:href="#_未命名漸層_46"/>
    <radialGradient id="_未命名漸層_46-3" data-name="未命名漸層 46" cx="143.82" cy="64.94" fx="143.82" fy="64.94" r="37.72" xlink:href="#_未命名漸層_46"/>
    <radialGradient id="_未命名漸層_46-4" data-name="未命名漸層 46" cx="143.82" cy="64.94" fx="143.82" fy="64.94" r="37.72" xlink:href="#_未命名漸層_46"/>
    <radialGradient id="_未命名漸層_46-5" data-name="未命名漸層 46" cx="143.83" cy="64.94" fx="143.83" fy="64.94" r="37.73" xlink:href="#_未命名漸層_46"/>
  </defs>
  <circle class="cls-3" cx="100" cy="100" r="100"/>
  <g>
    <g>
      <path class="cls-14" d="m143.02,152.34c-.38-.13-.54-.51-.54-1.11v-11.12c0-3.01.02-6.87-5.23-7.64-6.82-1.01-10.06,3.36-10.68,4.25l4.2,2.92c.17-1.19.64-2.8,1.5-3.77.68-.77,3.14-1.92,4.5-.43.58.63.65,1.6.65,2.71v2.1c-1.93.16-6.52.04-10.29,3.23-1.16.98-1.91,2.26-2.22,3.97-.34,2.18.37,4.14,1.69,5.55,1.45,1.58,3.69,2.52,6.08,2.56,2.18,0,4.45-.68,6.08-1.96.56,1.02,1.54,1.59,2.68,1.63.72.03,1.44-.12,2.11-1.11.37-.56-.07-.87,2.46-1.57v-.53s-2.62.45-3,.32Zm-5.6-.71c-1.01.68-1.63,1.24-2.83,1.37-1.19.17-2.23-.17-3.04-1.11-1.15-1.28-1.31-3.63-.79-5.25.34-1.19,1.12-2.05,2.06-2.6,1.15-.67,2.95-1.12,4.6-1.41v9Z"/>
      <path class="cls-14" d="m164.23,132.34c-1.66,3.74-5.06,10.74-7.58,15.61-2.31-4.82-4.65-11.27-5.98-15.59l-5.75,3.04c2.72,5.83,7.08,12.46,10.44,14.79,0,0-5.59,11.84-6.78,13.86h3.92l15.36-30.66-3.64-1.05Z"/>
      <path class="cls-14" d="m70.33,138.01c-1.06,4.14-2.87,8.21-5.5,11.58l4.86,4.11c1.33-3.67,2.04-9.29,1.2-15.65l-.57-.04Z"/>
      <path class="cls-14" d="m65.76,129.61l-.42.35c1.45,1.29,1.43,1.96,1.92,4.79.14.83,1.1,1.24,1.88,1.24,1.06,0,2.51-.75,2.42-2.11-.23-3.3-3.93-3.65-5.79-4.27Z"/>
      <path class="cls-14" d="m77.02,145.83h18.41v-1.52h-22.17l-.6,4.55h19.03c-.23,2.4-.39,3.22-2.16,3.2-1.46-.02-7.52-.02-9.06-.07l-.11.53c2.92.33,4.7.67,6.68,1.08,1.25.26,1.52,1.07,3.17,1.19,1.34.1,4.27.03,5.06-2.28.42-1.22.5-3.64.71-5.16h-19.13l.15-1.52Z"/>
      <path class="cls-14" d="m66.04,122.77l-.36.35c.83.77,1.75,1.64,2.38,3.58.28,1.45.67,2.06,2.27,2.06,1.24,0,2.03-.96,2.06-2.16.11-2.65-4.72-3.44-6.35-3.83Z"/>
      <path class="cls-14" d="m125.32,134.02c-.08-2.45-.76-4.74-2.36-6.34-1.48-1.43-4.15-2.59-6.55-2.59h-13.89v14.17h5.56v-12.14h5.66c2.66,0,4.04,2.24,4.69,3.76.67,1.56.89,4.94.08,6.79-.71,1.73-2.49,3.23-4.52,3.23h-41.33v1.9h29.85v11.64h5.56v-11.64h8.71c2.96,0,5.5-.91,6.98-2.81,1.18-1.48,1.64-3.69,1.56-5.97Z"/>
      <path class="cls-14" d="m89.36,126.1h-2.69c.43-.34.69-.54.69-1.08.03-3.13-4.77-3.12-6.75-2.61l.06.4c.4.27,1.12.84,1.4,1.23.45.7.51,1.51,1.07,2.06h-3.4v1.52h9.61v-1.52Z"/>
      <rect class="cls-14" x="81.26" y="131.52" width="6.58" height="1.52"/>
      <rect class="cls-14" x="81.26" y="128.85" width="6.58" height="1.52"/>
      <path class="cls-14" d="m89.52,132.77c.94-.17,1.62-.37,2.22-.56-.49,1.01-1.63,3.19-1.92,3.5-.24.26-.56.32-.72.35l.38,3.41c1.88-.35,4.15-1.52,5.26-2.82,0,0,.28,1.73,1.03,1.63.49-.07,1.09-.19,1.13-1.21.08-2.14-3-3.55-3-3.55.21.74.34,1.04.55,1.87-1.56.4-2.81.69-3.57.69,2.6-1.83,3.97-4.6,5.26-7.43h-2.96c-.1.51-.24.77-.4,1.19-.68.02-.47,0-1.21,0,1.38-.96,2.93-4.36,3.42-5.42l-3.72-.11c-.35,3.12-1,4.45-1.27,4.97-.21.42-.37.46-.76.55l.27,2.95Z"/>
      <path class="cls-14" d="m73.25,136.06l.37,3.41c1.88-.35,4.15-1.52,5.26-2.82,0,0,.28,1.73,1.03,1.63.29-.04.61-.1.84-.36v1.34h7.59v-5.06h-7.59v1.66c-.75-1.45-2.7-2.35-2.7-2.35.21.74.34,1.04.55,1.87-1.56.4-2.81.69-3.57.69,2.6-1.83,3.97-4.6,5.26-7.43h-2.95c-.1.51-.24.77-.41,1.19-.68.02-.47,0-1.21,0,1.38-.96,2.94-4.36,3.42-5.42l-3.72-.11c-.35,3.12-1,4.45-1.27,4.97-.21.42-.37.46-.76.55l.27,2.95c.94-.17,1.62-.37,2.22-.56-.49,1.01-1.64,3.19-1.92,3.5-.24.26-.56.32-.72.35Zm10.03-.34h2.53v2.02h-2.53v-2.02Z"/>
      <path class="cls-14" d="m50.97,126.04l-.39.29c2.45,1.67,3.27,2.54,4.72,5.13-4.57.19-16.98.53-19.38.42,4.49-1.79,9.52-4.09,12.81-8.34h-7.52c-3.23,4.65-5.98,7.08-7.19,7.77-.61.36-1.43.44-1.9.47l.78,4.5c8.15-.58,16.59-1.65,22.82-4,.81,1.43,1.3,3.33,3.62,3.65,1.41.19,2.79-.75,2.64-2.54-.39-4.81-5.7-6.04-11.02-7.34Z"/>
      <path class="cls-14" d="m35.27,154.43h22.6v-15.72h-22.6v15.72Zm5.16-14h12.28v12.28h-12.28v-12.28Z"/>
    </g>
    <g>
      <path class="cls-8" d="m141.44,87.49c0-3.91-4.37-7.44-11.44-10.02-6.62,3.57-15.62,5.9-25.62,6.26v15.31c20.7-.41,37.07-5.42,37.07-11.55Z"/>
      <path class="cls-13" d="m73.27,77.47c-7.07,2.58-11.45,6.12-11.45,10.02,0,8.15,25.86,12.16,42.55,11.55v-15.31c-12.47.41-23.88-2.36-31.1-6.26Z"/>
      <path class="cls-5" d="m112.02,104.22c-7.88,0-17.89-15.28-22.36-34.13-4.16-17.58-2.03-32.04,4.66-33.92,0,0,0,0,0,0l-7.69,2.2c-6.63,1.97-8.73,16.4-4.58,33.91,4.46,18.85,14.48,34.13,22.36,34.13.56,0,1.09-.08,1.6-.23,1.61-.47,7.59-2.17,7.59-2.17,0,0,0,0,0-.01-.5.15-1.03.23-1.58.23Z"/>
      <path class="cls-6" d="m118.21,70.09c-4.46-18.85-14.47-34.14-22.36-34.14s-10.66,15.28-6.19,34.14c4.46,18.85,14.47,34.13,22.36,34.13s10.66-15.28,6.2-34.13Z"/>
      <polygon class="cls-15" points="104.38 60.69 104.36 72.86 110.57 80.55 110.57 69.82 104.38 60.69"/>
      <g>
        <path class="cls-9" d="m116.95,58.66v15.65c1.5.22,2.95.48,4.35.77v-15.65c-1.4-.29-2.85-.54-4.35-.77Z"/>
        <path class="cls-1" d="m113.76,58.24v15.65c.53.06,1.05.12,1.57.19v-15.65c-.52-.07-1.04-.13-1.57-.19Z"/>
        <path class="cls-2" d="m138.72,66.66v15.64c1.75,1.61,2.71,3.36,2.71,5.19v-15.65c0-1.83-.97-3.58-2.71-5.19Z"/>
        <path class="cls-10" d="m130.56,62.04v15.64c2.59.98,4.79,2.1,6.53,3.32v-15.65c-1.74-1.22-3.94-2.33-6.53-3.32Z"/>
        <path class="cls-11" d="m122.94,59.79v15.65c2.14.49,4.15,1.05,5.99,1.67v-15.65c-1.84-.62-3.84-1.18-5.99-1.67Z"/>
      </g>
      <g>
        <path class="cls-16" d="m64.72,66.5v15.65c.63-.56,1.36-1.1,2.18-1.62v-15.64c-.81.52-1.55,1.06-2.18,1.62Z"/>
        <path class="cls-7" d="m61.83,71.85v15.65c0-1.23.44-2.42,1.26-3.56v-15.65c-.82,1.14-1.26,2.33-1.26,3.56Z"/>
        <path class="cls-17" d="m98.84,64.83l-12.24-8.85c-.5-.36-1.2,0-1.2.61v2.22c-.92.15-1.83.31-2.72.48v15.64c.88-.17,1.8-.33,2.72-.48v1.71c0,.65.77,1,1.25.57l12.25-10.72c.37-.32.34-.9-.06-1.18Z"/>
        <path class="cls-12" d="m73.97,61.58v15.65c2.14-.74,4.51-1.4,7.07-1.96v-15.65c-2.56.56-4.94,1.21-7.07,1.96Z"/>
        <path class="cls-4" d="m68.52,63.92v15.64c1.15-.62,2.42-1.19,3.81-1.74v-15.65c-1.39.54-2.66,1.12-3.81,1.74Z"/>
      </g>
    </g>
  </g>
</svg>