<?xml version="1.0" encoding="UTF-8"?>
<svg id="_圖層_1" data-name="圖層 1" xmlns="http://www.w3.org/2000/svg" viewBox="0 0 200 200">
  <defs>
    <style>
      .cls-1 {
        fill: #fff;
      }

      .cls-2 {
        fill: #1677ff;
      }

      .cls-3 {
        fill: #3e3a39;
      }
    </style>
  </defs>
  <circle class="cls-1" cx="100" cy="100" r="100"/>
  <g>
    <g>
      <path class="cls-2" d="m108.34,90.49c-6.93,8.47-15.85,13.6-25.11,13.59-15.66-.03-20.95-13.7-13.52-22.68,1.62-1.96,4.37-3.83,8.64-4.87,6.68-1.62,17.3,1.05,27.25,4.34,1.8-3.29,3.31-6.91,4.44-10.76l-30.69-.05v-3.1s15.83.03,15.83.03v-5.56s-19.16-.03-19.16-.03v-3.1s19.17.03,19.17.03v-7.93s.02-1.34,1.37-1.33h7.73s-.01,9.27-.01,9.27l18.95.03v3.1s-18.95-.03-18.95-.03v5.56s15.46.02,15.46.02c-1.49,6.04-3.75,11.6-6.58,16.49,4.69,1.7,8.9,3.31,12.04,4.36,10.36,3.48,13.42,3.94,13.86,4v-.03l.07-40.54c.01-6.93-5.6-12.55-12.55-12.56l-53.34-.09c-6.95-.01-12.58,5.59-12.59,12.52l-.09,53.18c-.01,6.92,5.6,12.54,12.55,12.55l53.34.09c6.94.01,12.58-5.59,12.59-12.51v-.51c-.74-.31-20.59-8.61-30.7-13.48Z"/>
      <path class="cls-2" d="m79.67,81.17c-1.96.19-5.64,1.05-7.66,2.82-6.04,5.24-2.45,14.83,9.76,14.85,7.1.01,14.2-4.5,19.78-11.74-7.92-3.87-14.63-6.64-21.88-5.94Z"/>
    </g>
    <g>
      <path class="cls-3" d="m125.63,133.8l17,.03v3.37s6.07,0,6.07,0v-3.37s0-.62,0-.62c0,0,0-.01,0-.02,0-.9-.7-1.62-1.57-1.64l-9.83-.02v-3.14s-6.35-.01-6.35-.01v3.14s-11.39-.02-11.39-.02v1.14s0,1.14,0,1.14v3.37s6.07,0,6.07,0v-3.37Z"/>
      <polygon class="cls-3" points="88.86 128.61 82.61 143.33 87.38 143.33 87.35 160.85 92.58 160.86 92.61 137.62 90.72 137.62 94.67 128.62 88.86 128.61"/>
      <path class="cls-3" d="m147.46,153.7c-.13-.41-.5-.71-.94-.71h-5.06s1.46,4.94,1.46,4.94h-5.94s.02-9.6.02-9.6l11.67.02v-2.28s-11.67-.02-11.67-.02v-4.51s11.68.02,11.68.02v-2.28s-11.67-.02-11.67-.02h-5.79s-11.67-.03-11.67-.03v2.28s11.67.02,11.67.02v4.51s-11.68-.02-11.68-.02v2.28s11.67.02,11.67.02l-.02,9.59-11.67-.02v2.28s29.84.05,29.84.05l-1.9-6.53Z"/>
      <path class="cls-3" d="m101.12,140.01h-4.52s3.5,11.09,3.5,11.09h5.35s-3.26-10.4-3.26-10.4c-.2-.41-.6-.68-1.07-.69Z"/>
      <path class="cls-3" d="m113.66,128.36h-5.43s-.01,6.22-.01,6.22l-13.38-.02v2.28s13.37.02,13.37.02l-.03,20.39c-.05.47-.42.83-.88.85h-2.76s0,2.36,0,2.36h7.03c1.11-.03,2-.95,2.03-2.1v-.25s.03-21.24.03-21.24h2.2s0-2.28,0-2.28h-2.2s.01-6.23.01-6.23Z"/>
      <path class="cls-3" d="m81.76,158.71c-4.95-1.81-8.87-3.8-11.95-5.72,4.47-3.3,8.39-7.79,9.97-13.79l-10.43-.02v-3.74s12.1.02,12.1.02v-2.33s-12.09-.02-12.09-.02v-4.73s-5.38,0-5.38,0h0c-.59,0-1.07.49-1.07,1.1h0s0,3.63,0,3.63l-12-.02v2.33s12,.02,12,.02v3.74s-10.14-.02-10.14-.02v2.33s20.18.03,20.18.03c0,0-1.13,4.36-6.67,9.05-4.95-3.76-6.61-6.75-6.61-6.75h-5.41c2.18,3.79,5.29,6.83,8.63,9.25-3.08,2-7.07,3.92-12.24,5.46v2.79s7.96-1.49,15.67-6.01c7.7,4.51,15.44,6.06,15.44,6.06v-2.64Z"/>
    </g>
  </g>
</svg>