<svg width="112" height="67" viewBox="0 0 112 67" fill="none" xmlns="http://www.w3.org/2000/svg">
<path d="M19.1097 66.501C12.3797 66.501 4.8897 64.841 1.3397 59.921C-0.7003 57.121 -0.400298 53.041 2.1697 50.771C4.2897 48.881 7.30971 48.881 9.57971 49.481C11.0197 49.861 12.1497 50.991 12.9797 51.521C14.7197 52.581 16.5397 52.731 18.7997 52.731C22.5797 52.731 25.6097 49.781 25.6097 45.701C25.6097 41.311 21.5297 38.891 16.5297 38.891H12.8997C10.7097 38.891 8.5897 37.001 8.0597 34.881C7.3797 32.161 7.9797 29.891 10.5597 27.541L22.2097 17.101H7.3097C2.8497 17.101 1.1097 13.771 1.1097 10.821C1.1097 7.87098 2.9297 4.47098 7.3097 4.47098H30.8297C38.9997 4.47098 42.0997 14.001 36.9597 19.141L26.3697 29.651C33.3297 30.411 40.4397 36.681 40.4397 46.141C40.4397 59.001 30.6797 66.491 19.1097 66.491V66.501Z" fill="#0276CF"/>
<path d="M45.8097 20.971V13.481C45.8097 4.71099 51.7897 0.0209861 59.7297 0.0209861C67.6697 0.0209861 73.5697 4.71099 73.5697 13.481V20.971C73.5697 29.821 67.6697 34.431 59.7297 34.431C51.7897 34.431 45.8097 29.821 45.8097 20.971ZM62.8997 21.041V13.401C62.8997 10.901 61.0097 10.001 59.7197 10.001C58.4297 10.001 56.4697 10.911 56.4697 13.401V21.041C56.4697 23.611 58.4397 24.441 59.7197 24.441C60.9997 24.441 62.8997 23.611 62.8997 21.041ZM70.6197 61.431C68.5797 65.671 65.2497 67.031 62.5997 66.271C60.0297 65.511 58.2897 63.321 60.3297 59.081L87.1797 5.07099C89.2197 0.760989 92.4697 -0.599007 95.1197 0.230993C97.6197 0.990993 99.2797 3.11099 97.2397 7.34099L70.6197 61.421V61.431ZM83.9297 53.041V45.551C83.9297 36.781 89.8997 32.091 97.8497 32.091C105.8 32.091 111.69 36.781 111.69 45.551V53.041C111.69 61.891 105.79 66.501 97.8497 66.501C89.9097 66.501 83.9297 61.891 83.9297 53.041ZM101.02 53.111V45.471C101.02 42.971 99.1297 42.071 97.8397 42.071C96.5497 42.071 94.5897 42.981 94.5897 45.471V53.111C94.5897 55.681 96.5597 56.511 97.8397 56.511C99.1197 56.511 101.02 55.681 101.02 53.111Z" fill="#0276CF"/>
</svg>
