<svg width="170" height="68" viewBox="0 0 170 68" fill="none" xmlns="http://www.w3.org/2000/svg">
<path d="M163.193 60.13H165.133C165.503 60.13 165.753 59.94 165.893 59.55C166.033 59.16 166.143 58.35 166.213 57.11C166.233 56.74 166.393 56.47 166.713 56.3C166.883 56.21 167.043 56.16 167.213 56.16C167.363 56.16 167.523 56.21 167.683 56.3C167.943 56.41 168.223 56.53 168.513 56.66C168.973 56.83 169.333 57.11 169.593 57.52C169.813 57.83 169.923 58.18 169.923 58.55V58.8C169.663 60.76 169.213 62.12 168.573 62.87C167.933 63.62 166.923 63.99 165.533 63.99H162.453C160.673 63.99 159.473 63.62 158.853 62.89C158.233 62.16 157.923 60.82 157.923 58.88V51.13C157.923 51 157.853 50.94 157.733 50.94H154.453C154.303 50.94 154.223 51.01 154.203 51.13C154.113 52.32 153.983 53.35 153.823 54.23C153.663 55.11 153.413 56.03 153.073 57.01C152.733 57.98 152.313 58.84 151.813 59.59C151.313 60.34 150.653 61.08 149.843 61.8C149.023 62.52 148.063 63.16 146.953 63.72C146.733 63.83 146.503 63.89 146.263 63.89C146.073 63.89 145.893 63.85 145.703 63.78C145.273 63.63 144.923 63.36 144.653 62.97C144.463 62.71 144.273 62.45 144.073 62.19C143.893 61.97 143.793 61.72 143.793 61.44C143.793 61.37 143.793 61.28 143.823 61.19C143.893 60.8 144.113 60.52 144.463 60.36C145.313 59.95 146.053 59.48 146.673 58.94C147.293 58.4 147.783 57.87 148.143 57.33C148.503 56.79 148.803 56.16 149.033 55.43C149.263 54.7 149.423 54.02 149.523 53.4C149.613 52.78 149.703 52.03 149.773 51.14C149.773 51.01 149.713 50.95 149.583 50.95H145.393C144.953 50.95 144.563 50.79 144.243 50.46C143.923 50.14 143.753 49.75 143.753 49.31V48.56C143.753 48.11 143.913 47.73 144.243 47.41C144.573 47.09 144.953 46.92 145.393 46.92H167.863C168.303 46.92 168.693 47.08 169.013 47.41C169.333 47.73 169.503 48.12 169.503 48.56V49.31C169.503 49.75 169.343 50.14 169.013 50.46C168.683 50.78 168.303 50.95 167.863 50.95H162.443C162.313 50.95 162.253 51.02 162.253 51.14V58.86C162.253 59.42 162.303 59.77 162.403 59.92C162.503 60.07 162.773 60.14 163.193 60.14V60.13ZM165.143 39.33C165.583 39.33 165.973 39.49 166.293 39.82C166.613 40.14 166.783 40.53 166.783 40.97V41.66C166.783 42.12 166.623 42.51 166.293 42.83C165.973 43.15 165.583 43.3 165.143 43.3H148.033C147.593 43.3 147.203 43.14 146.883 42.83C146.563 42.52 146.393 42.13 146.393 41.66V40.97C146.393 40.53 146.553 40.14 146.883 39.82C147.213 39.5 147.593 39.33 148.033 39.33H165.143Z" fill="#0276CF"/>
<path d="M19.3729 25.01C31.7029 25.01 40.7829 30.76 40.7829 44.75C40.7829 58.74 30.8729 65.55 19.0729 65.55C12.8729 65.55 4.93293 63.51 1.37293 58.82C-0.747067 56.02 -0.367065 51.94 2.20293 49.67C4.32293 47.78 7.34294 47.78 9.61294 48.38C11.0529 48.76 12.1829 49.89 13.0129 50.42C14.7529 51.48 16.4129 51.78 18.6829 51.78C22.1629 51.78 25.9429 48.83 25.9429 44.75C25.9429 40.67 22.5429 37.79 17.7729 37.79H12.4029C3.47293 37.79 0.752937 34.99 1.28294 26.44L1.96294 14.94C2.49294 6.39 4.08294 3.59 13.0029 3.59H32.8929C37.2029 3.59 38.8729 7.15 38.8729 10.17C38.8729 13.19 37.2829 16.52 32.8929 16.52H17.9929C16.6329 16.52 16.1729 16.67 16.1029 18.11L15.8029 23.4C15.7229 24.84 16.2529 24.99 17.6129 24.99H19.3529L19.3729 25.01Z" fill="#0276CF"/>
<path d="M47.1329 45.43V23.27C47.1329 9.96 56.3629 3 68.3129 3C80.2629 3 89.4929 9.96 89.4929 23.27V45.43C89.4929 58.82 80.2629 65.7 68.3129 65.7C56.3629 65.7 47.1329 58.82 47.1329 45.43ZM74.2929 46.49V22.21C74.2929 17.52 70.9629 15.86 68.3129 15.86C65.6629 15.86 62.3329 17.52 62.3329 22.21V46.49C62.3329 51.33 65.6629 52.84 68.3129 52.84C70.9629 52.84 74.2929 51.33 74.2929 46.49Z" fill="#0276CF"/>
<path d="M96.3029 45.43V23.27C96.3029 9.96 105.533 3 117.483 3C129.433 3 138.663 9.96 138.663 23.27V45.43C138.663 58.82 129.433 65.7 117.483 65.7C105.533 65.7 96.3029 58.82 96.3029 45.43ZM123.453 46.49V22.21C123.453 17.52 120.123 15.86 117.473 15.86C114.823 15.86 111.493 17.52 111.493 22.21V46.49C111.493 51.33 114.823 52.84 117.473 52.84C120.123 52.84 123.453 51.33 123.453 46.49Z" fill="#0276CF"/>
</svg>
