<svg width="170" height="68" viewBox="0 0 170 68" fill="none" xmlns="http://www.w3.org/2000/svg">
<path d="M124 51.29C124.26 51.01 124.57 50.87 124.94 50.87H125.05C125.46 50.91 125.78 51.09 126.02 51.43L126.55 52.26C126.81 52.63 126.94 53.04 126.94 53.48C126.94 54.02 126.76 54.49 126.41 54.9C125.23 56.31 123.91 57.77 122.47 59.29C122.19 59.57 121.87 59.71 121.5 59.71H121.39C120.96 59.67 120.62 59.48 120.36 59.13L119.67 58.19C119.41 57.86 119.28 57.49 119.28 57.08V56.94C119.32 56.46 119.5 56.05 119.84 55.72C121.19 54.35 122.58 52.88 124.01 51.3L124 51.29ZM126.22 41.91C126.59 42.21 126.78 42.6 126.78 43.08C126.78 43.52 126.62 43.91 126.31 44.25L125.39 45.25C125.09 45.55 124.74 45.69 124.33 45.69H124.3C123.87 45.69 123.5 45.54 123.19 45.25C122.52 44.6 121.71 43.9 120.75 43.14C120.36 42.84 120.17 42.45 120.17 41.95C120.17 41.58 120.31 41.26 120.59 40.98L121.26 40.29C121.59 39.94 121.99 39.73 122.45 39.68H122.67C123.06 39.68 123.41 39.79 123.73 40.01C124.73 40.7 125.56 41.33 126.23 41.93L126.22 41.91ZM137.77 46.32C137.62 46.32 137.55 46.39 137.55 46.54V48.82C137.55 49.69 137.67 50.58 137.91 51.5C138.15 52.42 138.52 53.38 139.02 54.39C139.52 55.4 140.25 56.39 141.21 57.36C142.17 58.33 143.3 59.18 144.6 59.9C144.97 60.1 145.2 60.41 145.29 60.82C145.31 60.93 145.32 61.04 145.32 61.15C145.32 61.43 145.24 61.69 145.07 61.93C144.81 62.3 144.55 62.67 144.29 63.04C144.01 63.43 143.65 63.69 143.21 63.82C143.06 63.86 142.91 63.88 142.77 63.88C142.49 63.88 142.21 63.8 141.94 63.63C140.27 62.61 138.86 61.32 137.7 59.76C136.54 58.2 135.78 56.76 135.41 55.47C135.41 55.43 135.4 55.41 135.37 55.41C135.34 55.41 135.32 55.43 135.3 55.47C134.86 56.77 133.98 58.19 132.66 59.75C131.35 61.3 129.73 62.62 127.83 63.69C127.57 63.82 127.31 63.88 127.05 63.88C126.88 63.88 126.72 63.85 126.55 63.8C126.12 63.67 125.77 63.41 125.49 63.02C125.3 62.74 125.1 62.46 124.88 62.19C124.71 61.95 124.63 61.69 124.63 61.41C124.63 61.32 124.63 61.22 124.66 61.1C124.75 60.71 124.98 60.42 125.35 60.24C126.76 59.52 127.99 58.66 129.06 57.67C130.13 56.68 130.94 55.66 131.5 54.62C132.06 53.58 132.48 52.57 132.75 51.62C133.02 50.67 133.15 49.74 133.15 48.86V46.56C133.15 46.41 133.08 46.34 132.93 46.34H131.79C131.64 46.34 131.54 46.41 131.48 46.53C130.92 47.77 130.32 48.9 129.67 49.92C129.43 50.29 129.08 50.52 128.62 50.61C128.51 50.63 128.39 50.64 128.26 50.64C127.94 50.64 127.64 50.55 127.34 50.36C127.01 50.16 126.66 49.96 126.29 49.78C125.92 49.58 125.7 49.28 125.62 48.89C125.6 48.78 125.59 48.68 125.59 48.58C125.59 48.28 125.67 48.02 125.84 47.77C127.43 45.57 128.64 42.69 129.48 39.13C129.59 38.69 129.83 38.34 130.2 38.1C130.48 37.9 130.78 37.79 131.12 37.79C131.21 37.79 131.31 37.79 131.43 37.82L132.49 38.01C132.93 38.08 133.29 38.31 133.55 38.68C133.72 38.94 133.8 39.22 133.8 39.51C133.8 39.64 133.78 39.77 133.74 39.9C133.57 40.58 133.39 41.28 133.18 41.98C133.16 42.03 133.17 42.09 133.19 42.13C133.22 42.18 133.26 42.2 133.31 42.2H141.86C141.91 42.2 141.97 42.2 142.03 42.17C142.2 42.11 142.36 42.09 142.53 42.09C142.83 42.09 143.11 42.17 143.39 42.34L144.42 42.95C144.83 43.19 145.12 43.53 145.31 43.98C145.4 44.22 145.45 44.46 145.45 44.7C145.45 44.92 145.41 45.13 145.34 45.34C144.77 46.97 144.05 48.63 143.2 50.31C143 50.72 142.68 50.99 142.26 51.11C142.07 51.17 141.9 51.19 141.73 51.19C141.47 51.19 141.22 51.13 140.98 51.02C140.8 50.93 140.62 50.84 140.45 50.74C140.04 50.55 139.76 50.25 139.59 49.82C139.52 49.64 139.48 49.44 139.48 49.24C139.48 49.02 139.53 48.81 139.62 48.6C139.92 47.9 140.19 47.19 140.45 46.49C140.45 46.43 140.44 46.39 140.41 46.35C140.38 46.31 140.34 46.29 140.29 46.29H137.76L137.77 46.32Z" fill="#0276CF"/>
<path d="M66.62 22.37V46.42C66.62 58.83 57.17 65.48 45.59 65.48C39.24 65.48 33.41 64.19 29.93 61.17C27.51 59.13 26.98 54.89 29.17 52.24C30.99 50.05 33.63 49.67 36.05 50.2C37.56 50.5 38.55 51.03 39.83 51.41C41.11 51.79 42.78 52.09 45.2 52.09C48.68 52.09 52.23 49.75 52.23 45.81V42.25C49.96 44.14 45.27 45.05 41.64 45.05C32.41 45.05 25 39.76 25 25.99V22.36C25 8.44 35.74 3 45.8 3C55.86 3 66.6 8.45 66.6 22.36L66.62 22.37ZM52.25 22.68C52.25 17.69 49 15.72 45.9 15.72C42.8 15.72 39.55 17.69 39.55 22.68V25.71C39.55 30.7 42.8 32.67 45.9 32.67C49 32.67 52.25 30.7 52.25 26.69V22.68Z" fill="#0276CF"/>
<path d="M114.42 22.37V46.42C114.42 58.83 104.97 65.48 93.39 65.48C87.04 65.48 81.21 64.19 77.73 61.17C75.31 59.13 74.78 54.89 76.97 52.24C78.79 50.05 81.43 49.67 83.85 50.2C85.36 50.5 86.35 51.03 87.63 51.41C88.92 51.79 90.58 52.09 93 52.09C96.48 52.09 100.03 49.75 100.03 45.81V42.25C97.76 44.14 93.07 45.05 89.44 45.05C80.21 45.05 72.8 39.76 72.8 25.99V22.36C72.8 8.44 83.54 3 93.6 3C103.66 3 114.4 8.45 114.4 22.36L114.42 22.37ZM100.05 22.68C100.05 17.69 96.8 15.72 93.7 15.72C90.6 15.72 87.35 17.69 87.35 22.68V25.71C87.35 30.7 90.6 32.67 93.7 32.67C96.8 32.67 100.05 30.7 100.05 26.69V22.68Z" fill="#0276CF"/>
</svg>
