<svg width="270" height="68" viewBox="0 0 270 68" fill="none" xmlns="http://www.w3.org/2000/svg">
<path d="M23.47 5.021C27.86 5.021 31.03 7.67098 31.03 12.661V66.211H15.9V28.471H8.79C4.55 28.471 1 26.281 1 22.121C1 18.641 3.42 16.371 6.45 15.991C11.29 15.381 15.38 13.721 16.81 9.711C17.94 6.611 20.29 5.021 23.47 5.021Z" fill="#0276CF"/>
<path d="M52.07 52.071C57.14 52.071 60.16 55.101 60.16 59.711C60.16 64.321 57.13 67.351 52.07 67.351C47.01 67.351 43.98 64.401 43.98 59.711C43.98 55.021 47.01 52.071 52.07 52.071Z" fill="#0276CF"/>
<path d="M88.67 5.021C93.06 5.021 96.23 7.67098 96.23 12.661V66.211H81.1V28.471H73.99C69.75 28.471 66.2 26.281 66.2 22.121C66.2 18.641 68.62 16.371 71.65 15.991C76.49 15.381 80.58 13.721 82.01 9.711C83.14 6.611 85.49 5.021 88.67 5.021Z" fill="#0276CF"/>
<path d="M119.38 66.211C113.71 66.211 110 62.961 110 57.281V56.451C110 46.321 112.27 41.401 119.38 36.631L131.26 28.761C133.68 27.171 134.36 25.131 134.36 23.311C134.36 20.811 132.24 18.771 128.84 18.771C126.57 18.771 124.91 19.831 123.17 21.271C122.34 21.951 121.2 22.931 119.77 23.311C117.5 23.911 114.48 23.911 112.28 22.101C109.56 19.911 109.56 15.821 111.45 13.021C115.16 7.421 122.87 5.00098 129.22 5.00098C140.64 5.00098 149.79 10.981 149.79 21.411C149.79 29.581 147.07 34.571 140.79 38.661L131.41 44.641C127.55 47.141 125.96 48.651 125.96 51.451V51.981C125.96 52.741 126.26 53.111 127.09 53.111H150.39V66.201H119.38V66.211Z" fill="#0276CF"/>
<path d="M177.17 26.951C189.5 26.951 198.58 32.701 198.58 46.691C198.58 60.681 188.67 67.491 176.87 67.491C170.67 67.491 162.73 65.451 159.17 60.761C157.05 57.961 157.43 53.881 160 51.611C162.12 49.721 165.14 49.721 167.41 50.321C168.85 50.701 169.98 51.831 170.81 52.361C172.55 53.421 174.21 53.721 176.48 53.721C179.96 53.721 183.74 50.771 183.74 46.691C183.74 42.611 180.34 39.731 175.57 39.731H170.2C161.27 39.731 158.55 36.931 159.08 28.381L159.76 16.881C160.29 8.33098 161.88 5.53098 170.8 5.53098H190.69C195 5.53098 196.67 9.09099 196.67 12.111C196.67 15.131 195.08 18.461 190.69 18.461H175.79C174.43 18.461 173.97 18.611 173.9 20.051L173.6 25.341C173.52 26.781 174.05 26.931 175.41 26.931H177.15L177.17 26.951Z" fill="#0276CF"/>
<path d="M203.34 21.961V14.471C203.34 5.70098 209.31 1.01099 217.26 1.01099C225.21 1.01099 231.1 5.70098 231.1 14.471V21.961C231.1 30.811 225.2 35.421 217.26 35.421C209.32 35.421 203.34 30.811 203.34 21.961ZM220.43 22.041V14.401C220.43 11.901 218.54 11.001 217.25 11.001C215.96 11.001 214 11.911 214 14.401V22.041C214 24.611 215.97 25.441 217.25 25.441C218.53 25.441 220.43 24.611 220.43 22.041ZM228.15 62.431C226.11 66.671 222.78 68.031 220.13 67.271C217.56 66.511 215.82 64.321 217.86 60.081L244.71 6.07099C246.75 1.76099 250 0.400993 252.65 1.23099C255.15 1.99099 256.81 4.11101 254.77 8.34101L228.15 62.421V62.431ZM241.46 54.031V46.541C241.46 37.771 247.44 33.081 255.38 33.081C263.32 33.081 269.22 37.771 269.22 46.541V54.031C269.22 62.881 263.32 67.491 255.38 67.491C247.44 67.491 241.46 62.881 241.46 54.031ZM258.56 54.111V46.471C258.56 43.971 256.67 43.071 255.38 43.071C254.09 43.071 252.13 43.981 252.13 46.471V54.111C252.13 56.681 254.1 57.511 255.38 57.511C256.66 57.511 258.56 56.681 258.56 54.111Z" fill="#0276CF"/>
</svg>
