<svg width="160" height="160" viewBox="0 0 160 160" fill="none" xmlns="http://www.w3.org/2000/svg"><g clip-path="url(#clip0_781_1339)"><rect width="160" height="160" rx="80" fill="#fff"/><path fill="#D4E9FF" d="M-1 80h162v80H-1z"/><path d="M71.62 124.794H38.918v-86.79H71.62l16.35 36.042-16.35 50.748z" fill="#1E8BFA"/><path d="M104.321 115.036l-32.702 9.754V38h32.702v77.036z" fill="#1E8BFA"/><path d="M71.622 68.066H44.47V44.728h27.153L85.2 58.294l-13.577 9.772z" fill="#fff"/><path d="M71.62 44.728h27.153v23.338H71.619V44.728z" fill="#fff"/><path d="M44.467 78.514h24.187v3.59H44.467v-3.59z" fill="#39326C"/><path d="M56.56 84.315c1.912 0 3.462-1.797 3.462-4.014 0-2.217-1.55-4.014-3.462-4.014-1.912 0-3.462 1.797-3.462 4.014 0 2.217 1.55 4.014 3.462 4.014z" fill="#39326C"/><path d="M44.846 88.473h5.856v4.599h-5.856v-4.6zm8.976 0h5.856v4.599h-5.856v-4.6zm8.975 0h5.856v4.599h-5.856v-4.6zm-17.951 7.48h5.856v4.599h-5.856v-4.599zm8.976 0h5.856v4.599h-5.856v-4.599zm8.975 0h5.856v4.599h-5.856v-4.599zm-17.951 7.488h5.856v4.6h-5.856v-4.6zm8.976 0h5.856v4.6h-5.856v-4.6zm8.975 0h5.856v4.6h-5.856v-4.6z" fill="#F3F1F4"/><path d="M98.77 82.1H74.581v-3.59h2.456l9.638 2.613 9.637-2.613h2.456v3.59z" fill="#514899"/><path d="M95.96 98.666H77.258V78.133h1.514l7.837 2.434 7.837-2.434h1.514v20.533z" fill="#54C255"/><path d="M81.599 96.8h10.02c.472-1.498 1.56-2.68 2.938-3.194V78.133h-3.032l-4.916 2.41-4.916-2.41H78.66v15.473c1.378.513 2.466 1.696 2.939 3.193z" fill="#00A402"/><path d="M81.246 78.133a5.9 5.9 0 00-.25 1.706c0 3.181 2.512 5.76 5.61 5.76 3.1 0 5.611-2.579 5.611-5.76a5.9 5.9 0 00-.25-1.706h-10.72z" fill="#54C255"/><path d="M38.918 119.562h65.625V128H38.918v-8.438z" fill="#076ED7"/><path d="M55.81 63.002l-2.31-.88 4.562-11.977 2.132-.002 4.523 11.984-2.312.872-3.282-8.697-3.313 8.7z" fill="#1E8BFA"/><path d="M61.954 60.145h-5.668a1.236 1.236 0 010-2.471h5.668a1.236 1.236 0 010 2.471zM65.625 50v2.471h2.797v10.171h2.472v-10.17l.835-1.146L70.894 50h-5.269z" fill="#1E8BFA"/><path d="M70.894 50h2.82v2.471h-2.82V50zm15.693 12.858l-1.364-6.974-1.869 6.682h-2.297l-1.968-6.67-1.25 6.947-2.433-.438 2.19-12.167h2.4l2.177 7.378 2.062-7.373 2.402-.009 2.376 12.15-2.426.474z" fill="#1E8BFA"/><g clip-path="url(#clip1_781_1339)"><path d="M86.379 127.996a7.662 7.662 0 01-6.663-3.803 7.632 7.632 0 01-.096-7.66l14.437-25.948a7.737 7.737 0 0113.518 0l14.437 25.949a7.633 7.633 0 01-.095 7.66 7.664 7.664 0 01-6.663 3.803H86.379v-.001z" fill="#FF2424"/><path d="M83.286 118.565l14.438-25.948c1.347-2.422 4.836-2.422 6.183 0l14.437 25.948c1.31 2.353-.395 5.244-3.091 5.244H86.378c-2.697 0-4.401-2.891-3.092-5.244z" fill="#fff"/><path d="M98.501 113.206l-.927-10.238v-.193c0-.491.399-.888.89-.888h4.7c.491 0 .89.397.89.888v.193l-.947 10.24a.85.85 0 01-.847.77h-2.912a.85.85 0 01-.847-.772zm-.147 4.828v-2.184c0-.377.306-.682.683-.682h3.532c.377 0 .683.305.683.682v2.184a.683.683 0 01-.683.682h-3.532a.683.683 0 01-.683-.682z" fill="#000"/></g></g><defs><clipPath id="clip0_781_1339"><rect width="160" height="160" rx="80" fill="#fff"/></clipPath><clipPath id="clip1_781_1339"><path fill="#fff" transform="translate(78.64 86.615)" d="M0 0h44.359v41.381H0z"/></clipPath></defs></svg>