<svg width="160" height="160" viewBox="0 0 160 160" fill="none" xmlns="http://www.w3.org/2000/svg"><g clip-path="url(#clip0_781_1191)"><rect width="160" height="160" rx="80" fill="#fff"/><path fill="#D4E9FF" d="M-1 80h162v80H-1z"/><g clip-path="url(#clip1_781_1191)"><path fill-rule="evenodd" clip-rule="evenodd" d="M86.62 48.55V35.458a3.393 3.393 0 012.748-3.41 3.31 3.31 0 013.873 3.213v13.29" fill="#BDC3C7"/><path fill-rule="evenodd" clip-rule="evenodd" d="M73.395 68.413h34.742c6.399 0 11.587-5.188 11.587-11.587 0-6.398-5.188-11.586-11.587-11.586H51.862c-6.4 0-11.587 5.188-11.587 11.586 0 6.4 5.188 11.587 11.587 11.587h21.533z" fill="#1E8BFA"/><path fill-rule="evenodd" clip-rule="evenodd" d="M104.489 124H55.507a3.526 3.526 0 01-3.079-1.81 3.429 3.429 0 01.13-3.533L74.827 80a12.386 12.386 0 006.07 1.102A12.021 12.021 0 0085.168 80l22.271 38.657a3.423 3.423 0 01.133 3.535 3.519 3.519 0 01-3.083 1.808z" fill="#fff"/><path fill-rule="evenodd" clip-rule="evenodd" d="M104.493 128.999H55.491a8.524 8.524 0 01-7.44-4.394 8.428 8.428 0 01.227-8.537l24.497-42.52 4.146 1.91a7.386 7.386 0 003.619.656h.016a7.021 7.021 0 002.493-.644l4.159-1.945 24.508 42.539a8.424 8.424 0 01.234 8.544 8.521 8.521 0 01-7.457 4.391zm2.946-10.343L85.167 79.999a12.023 12.023 0 01-4.269 1.103c-2.085.15-4.175-.23-6.07-1.103l-22.27 38.657a3.429 3.429 0 00-.13 3.533 3.526 3.526 0 003.079 1.81h48.982a3.519 3.519 0 003.083-1.808 3.423 3.423 0 00-.133-3.535z" fill="#E53838"/><path d="M77.287 108.471L76 94.478v-.264c0-.67.553-1.214 1.236-1.214h6.528c.683 0 1.236.544 1.236 1.214v.264l-1.316 13.995a1.172 1.172 0 01-1.175 1.052h-4.046c-.61 0-1.12-.457-1.176-1.055v.001zm-.204 6.597v-2.984a.94.94 0 01.95-.932h4.904a.94.94 0 01.95.932v2.984a.94.94 0 01-.95.932h-4.905a.94.94 0 01-.948-.932z" fill="#000"/><path fill-rule="evenodd" clip-rule="evenodd" d="M93.224 68.413a13.763 13.763 0 01-7.763 12.016 12.676 12.676 0 01-4.551 1.192 13.049 13.049 0 01-6.472-1.192 13.253 13.253 0 01-7.68-12.016V55.17c0-.177.016-.355.05-.53a2.786 2.786 0 014.717-1.323l5.644 5.644a1.655 1.655 0 01-1.159 2.83h-2.632v6.34a1.64 1.64 0 00.017.28A6.773 6.773 0 0079.354 75a6.62 6.62 0 007.266-6.587h6.604z" fill="#BDC3C7"/><path fill-rule="evenodd" clip-rule="evenodd" d="M59.248 53.515a1.655 1.655 0 00-2.26-.602l-1.821 1.048v-2.1a1.655 1.655 0 10-3.31 0v2.098l-1.821-1.048a1.655 1.655 0 00-1.656 2.864l1.826 1.05-1.82 1.052a1.655 1.655 0 00.827 3.087c.29 0 .576-.077.828-.224l1.82-1.047v2.098a1.655 1.655 0 003.31 0v-2.097l1.821 1.048a1.655 1.655 0 001.654-2.867l-1.82-1.05 1.821-1.05a1.655 1.655 0 00.601-2.26zm52.366 4.364l-1.82-1.053 1.82-1.051a1.654 1.654 0 10-1.655-2.864l-1.821 1.048V51.86a1.655 1.655 0 10-3.31 0v2.099l-1.821-1.048a1.655 1.655 0 00-1.655 2.864l1.821 1.05-1.821 1.052a1.655 1.655 0 001.655 2.863l1.821-1.047v2.098a1.655 1.655 0 103.31 0v-2.097l1.821 1.048a1.655 1.655 0 001.655-2.863zm-15.952-4.364a1.655 1.655 0 00-2.26-.602L91.58 53.96v-2.1a1.655 1.655 0 10-3.31 0v2.098l-1.821-1.048a1.655 1.655 0 00-1.656 2.864l1.826 1.05-1.82 1.052a1.655 1.655 0 00.827 3.087c.29 0 .577-.077.828-.224l1.82-1.047v2.098a1.655 1.655 0 103.31 0v-2.097l1.821 1.048a1.655 1.655 0 001.654-2.867l-1.82-1.05 1.822-1.05a1.655 1.655 0 00.6-2.26z" fill="#fff"/></g></g><defs><clipPath id="clip0_781_1191"><rect width="160" height="160" rx="80" fill="#fff"/></clipPath><clipPath id="clip1_781_1191"><path fill="#fff" transform="translate(32 32)" d="M0 0h96v96H0z"/></clipPath></defs></svg>