<svg width="160" height="160" viewBox="0 0 160 160" fill="none" xmlns="http://www.w3.org/2000/svg"><g clip-path="url(#clip0_781_1454)"><rect width="160" height="160" rx="80" fill="#fff"/><path fill="#D4E9FF" d="M-1 80h162v80H-1z"/><path d="M48 39.896A7.896 7.896 0 0155.896 32H96.38a7.897 7.897 0 017.897 7.896v80.208A7.897 7.897 0 0196.379 128H55.896A7.896 7.896 0 0148 120.104V39.896z" fill="#fff"/><path fill-rule="evenodd" clip-rule="evenodd" d="M96.38 35H55.895A4.896 4.896 0 0051 39.896v80.208A4.896 4.896 0 0055.896 125H96.38a4.896 4.896 0 004.897-4.896V39.896A4.896 4.896 0 0096.379 35zm-40.484-3A7.896 7.896 0 0048 39.896v80.208A7.896 7.896 0 0055.896 128H96.38a7.897 7.897 0 007.897-7.896V39.896A7.897 7.897 0 0096.379 32H55.896z" fill="#022446"/><path d="M91.034 91.969H61.965a.975.975 0 01-.965-.984c0-.544.432-.985.965-.985h29.07c.533 0 .965.44.965.984a.975.975 0 01-.966.985z" fill="#CEE5FD"/><path fill-rule="evenodd" clip-rule="evenodd" d="M91.035 92.17H61.966a1.175 1.175 0 01-1.165-1.185c0-.65.518-1.184 1.165-1.184h29.07c.647 0 1.165.534 1.165 1.184 0 .65-.518 1.185-1.166 1.185zm-29.069-.2h29.07a.976.976 0 00.965-.985.975.975 0 00-.966-.984H61.966a.975.975 0 00-.965.984c0 .544.432.985.965.985z" fill="#CEE5FD"/><path d="M91.034 96.89H61.965a.975.975 0 01-.965-.984c0-.543.432-.984.965-.984h29.07c.533 0 .965.44.965.984a.975.975 0 01-.966.985z" fill="#CEE5FD"/><path fill-rule="evenodd" clip-rule="evenodd" d="M91.035 97.092H61.966a1.175 1.175 0 01-1.165-1.185c0-.65.518-1.184 1.165-1.184h29.07c.647 0 1.165.534 1.165 1.184 0 .65-.518 1.185-1.166 1.185zm-29.069-.2h29.07a.976.976 0 00.965-.985.975.975 0 00-.966-.984H61.966a.975.975 0 00-.965.984c0 .544.432.985.965.985z" fill="#CEE5FD"/><path d="M91.034 102H61.965a.975.975 0 01-.965-.984c0-.544.432-.985.965-.985h29.07c.533 0 .965.441.965.985a.975.975 0 01-.966.984z" fill="#CEE5FD"/><path fill-rule="evenodd" clip-rule="evenodd" d="M91.035 102.201H61.966a1.175 1.175 0 01-1.165-1.185c0-.65.518-1.184 1.165-1.184h29.07c.647 0 1.165.534 1.165 1.184 0 .651-.518 1.185-1.166 1.185zm-29.069-.2h29.07a.975.975 0 00.965-.985.975.975 0 00-.966-.984H61.966a.975.975 0 00-.965.984c0 .544.432.985.965.985z" fill="#CEE5FD"/><g clip-path="url(#clip1_781_1454)"><path d="M91.822 53.462H65.599l-.9-3.521c-.15-.75-.823-1.199-1.498-1.199h-4.42c-.675 0-1.199.525-1.199 1.199s.524 1.199 1.199 1.199h3.746l5.919 22.776c.225.75.899 1.274 1.648 1.274h17.682c.674 0 1.199-.525 1.199-1.199s-.525-1.199-1.2-1.199H70.694l-.599-2.397h18.581c.75 0 1.498-.525 1.648-1.274l3.222-13.486c.225-1.124-.6-2.173-1.723-2.173zm-19.705 14.46h-2.622l-1.274-4.795h3.896v4.795zm0-7.192h-4.57l-1.274-4.795h5.77v4.795h.074zm5.62 7.192H73.69v-4.795h4.046v4.795zm0-7.192H73.69v-4.795h4.046v4.795zm5.693 7.192h-4.046v-4.795h4.046v4.795zm0-7.192h-4.046v-4.795h4.046v4.795zm4.646 7.192h-2.997v-4.795h4.12l-1.123 4.795zm-2.997-7.192v-4.795h5.844l-1.124 4.795h-4.72z" fill="#FEAE2A"/><path d="M73.84 73.916a3.677 3.677 0 00-3.672 3.671 3.677 3.677 0 003.671 3.671 3.677 3.677 0 003.671-3.67 3.677 3.677 0 00-3.67-3.672zm10.189 0a3.677 3.677 0 00-3.672 3.671 3.677 3.677 0 003.672 3.671 3.677 3.677 0 003.67-3.67 3.677 3.677 0 00-3.67-3.672z" fill="#40596B"/><path d="M84.03 79.385a1.798 1.798 0 100-3.596 1.798 1.798 0 000 3.596zm-10.189 0a1.798 1.798 0 100-3.596 1.798 1.798 0 000 3.596z" fill="#fff"/></g><g clip-path="url(#clip2_781_1454)"><path d="M98.06 87.642l1.144-.024a.4.4 0 00.238-.715l-3.44-2.692a.6.6 0 00-.97.486l.064 3.008c.093 4.424 3.738 7.938 8.139 7.846l-.063-2.982c-2.758.058-5.053-2.154-5.111-4.927z" fill="#FEBE55"/><path d="M103.039 86.304l-21.39 22.432c-.572.601-.552 1.55.045 2.107l1.293 1.246 3.967 1.759 1.954 3.968 1.273 1.227 8.505 8.199a1.465 1.465 0 002.097-.044l3.05-3.199.603-20.74-1.397-16.955z" fill="#1E8BFA"/><path d="M103.136 90.975l-20.151 21.132 5.94 5.727 14.457-15.162.911-6.098-1.157-5.6z" fill="#00317E"/><path d="M118.728 86.563l-3.649-1.899-2.291-3.808-1.293-1.246a1.465 1.465 0 00-2.096.044l-6.36 6.67.794 37.695 24.699-25.902a1.485 1.485 0 00-.044-2.108l-9.76-9.408v-.038z" fill="#1E8BFA"/><path d="M109.926 103.771l10.482-10.993 1.447 1.395-10.483 10.993-1.446-1.395zm2.797 2.676l10.482-10.993 1.447 1.395-10.483 10.992-1.446-1.394z" fill="#00215A"/><path d="M103.383 102.652l15.344-16.092-5.94-5.727-9.651 10.12.247 11.699z" fill="#00317E"/><path d="M102.951 71.976l1.039-1.5-1.039-1.501c-2.059 0-3.74 1.69-3.74 3.76a3.79 3.79 0 002.248 3.457v6.25h1.492l1.039-5.11-1.039-3.818a.78.78 0 01-.774-.778c0-.437.34-.78.774-.78v.02z" fill="#FEBE55"/><path d="M104.444 79.612v-3.4a3.79 3.79 0 002.248-3.457c0-2.07-1.682-3.76-3.741-3.76v2.981a.78.78 0 01.775.779c0 .437-.34.779-.775.779v8.927c2.758 0 5.006 2.26 5.006 5.034a5.037 5.037 0 01-4.231 4.976l1.058 2.83a8.015 8.015 0 006.158-7.806c0-3.8-2.796-7.18-6.498-7.883z" fill="#FEBE55"/><path d="M103.553 110.666a2.03 2.03 0 00-.297.273l-6.415 6.727a2.854 2.854 0 00.084 4.007 2.816 2.816 0 003.985-.084l2.811-2.947.703-4.289-.871-3.687z" fill="#A7EAF9"/><path d="M103.553 110.668l.168 7.976 3.605-3.781a2.854 2.854 0 00-.085-4.007 2.81 2.81 0 00-3.688-.188z" fill="#A7EAF9"/></g></g><defs><clipPath id="clip0_781_1454"><rect width="160" height="160" rx="80" fill="#fff"/></clipPath><clipPath id="clip1_781_1454"><path fill="#fff" transform="translate(57.582 47)" d="M0 0h36v36H0z"/></clipPath><clipPath id="clip2_781_1454"><path fill="#fff" transform="rotate(-1.206 3341.322 -3782.924)" d="M0 0h47.984v58.54H0z"/></clipPath></defs></svg>