<svg width="160" height="160" viewBox="0 0 160 160" fill="none" xmlns="http://www.w3.org/2000/svg"><g clip-path="url(#clip0_781_52)"><rect width="160" height="160" rx="80" fill="#fff"/><path fill="#D4E9FF" d="M-1 80h162v80H-1z"/><path d="M52 39.896A7.896 7.896 0 0159.896 32h40.483a7.897 7.897 0 017.897 7.896v80.208a7.897 7.897 0 01-7.897 7.896H59.896A7.896 7.896 0 0152 120.104V39.896z" fill="#fff"/><path fill-rule="evenodd" clip-rule="evenodd" d="M100.379 35H59.896A4.896 4.896 0 0055 39.896v80.208A4.896 4.896 0 0059.896 125h40.483a4.897 4.897 0 004.897-4.896V39.896A4.897 4.897 0 00100.379 35zm-40.483-3A7.896 7.896 0 0052 39.896v80.208A7.896 7.896 0 0059.896 128h40.483a7.897 7.897 0 007.897-7.896V39.896A7.897 7.897 0 00100.379 32H59.896z" fill="#022446"/><path d="M73 104.666v7l-8.334-7h-24A4.667 4.667 0 0136 100V87.666A4.666 4.666 0 0140.666 83h27.668A4.666 4.666 0 0173 87.666v17z" fill="#1E8BFA"/><path d="M56 89.666H41a1 1 0 010-2h15a1 1 0 010 2zm12 5H41a1 1 0 010-2h27a1 1 0 010 2zm0 5H41a1 1 0 010-2h27a1 1 0 010 2z" fill="#E4F0FD"/><path d="M136.6 52.46v10.05a5.46 5.46 0 01-5.459 5.46h-51.39L70 76.16v-23.7A5.46 5.46 0 0175.46 47h55.681a5.46 5.46 0 015.459 5.46z" fill="#FEAE2A"/><path d="M127.757 55.846l.786 1.446.809-1.446h1.349l-1.345 2.324 1.407 2.43h-1.354l-.857-1.529-.857 1.53h-1.353l1.406-2.43-1.345-2.325h1.354zm-4.58 0l.786 1.446.809-1.446h1.349l-1.345 2.324 1.407 2.43h-1.354l-.857-1.529-.857 1.53h-1.353l1.406-2.43-1.345-2.325h1.354zm-3.568 4.144c0-.188.065-.345.194-.471a.726.726 0 01.523-.189c.216 0 .389.063.518.189a.624.624 0 01.198.47.623.623 0 01-.198.47.71.71 0 01-.518.19.726.726 0 01-.523-.19.631.631 0 01-.194-.47zm-4.769-.62l.989-3.524h.804l-.259 1.384-.989 3.37h-.673l.128-1.23zm-.501-3.524l.707 3.52.066 1.235h-.791l-1.204-4.755h1.222zm3.199 3.463l.69-3.463h1.226L118.25 60.6h-.787l.075-1.292zm-.795-3.463l.984 3.498.136 1.257h-.676l-.989-3.367-.251-1.388h.796zm-8.513 3.524l.989-3.524h.804l-.259 1.384-.989 3.37h-.672l.127-1.23zm-.501-3.524l.708 3.52.066 1.235h-.791l-1.204-4.755h1.221zm3.2 3.463l.69-3.463h1.226l-1.204 4.755h-.787l.075-1.292zm-.796-3.463l.985 3.498.136 1.257h-.677l-.989-3.367-.25-1.388h.795zm-8.512 3.524l.989-3.524h.804l-.259 1.384-.989 3.37h-.672l.127-1.23zm-.501-3.524l.708 3.52.066 1.235h-.791l-1.205-4.755h1.222zm3.199 3.463l.69-3.463h1.226l-1.204 4.755h-.786l.074-1.292zm-.795-3.463l.984 3.498.137 1.257h-.677l-.989-3.367-.25-1.388h.795zm-3.866-1.645l-2.347 6.948h-.94l2.347-6.948h.94zm-2.285 0l-2.347 6.948h-.94l2.347-6.948h.94zm-5.225 5.789a.63.63 0 01.194-.47.726.726 0 01.523-.19c.217 0 .39.064.518.19a.624.624 0 01.198.47.624.624 0 01-.198.47c-.129.126-.301.189-.518.189a.726.726 0 01-.523-.189.631.631 0 01-.194-.47zm0-3.626c0-.187.065-.344.194-.47a.726.726 0 01.523-.189c.217 0 .39.063.518.189a.624.624 0 01.198.47.624.624 0 01-.198.47.709.709 0 01-.518.19.726.726 0 01-.523-.19.63.63 0 01-.194-.47zm-3.845.396v5.669h-1.266v-6.583h1.173l.093.914zm3.01 1.41v.093c0 .345-.041.666-.123.962a2.4 2.4 0 01-.352.773 1.67 1.67 0 01-.58.51c-.228.12-.492.18-.79.18a1.55 1.55 0 01-.757-.175 1.576 1.576 0 01-.54-.492 2.848 2.848 0 01-.347-.743 5.864 5.864 0 01-.202-.905v-.242c.046-.346.114-.662.202-.95.088-.29.203-.54.347-.75.146-.215.325-.38.536-.497a1.54 1.54 0 01.752-.176c.301 0 .566.057.795.171.231.114.425.279.58.492.158.214.277.47.356.765.082.296.123.624.123.984zm-1.27.093v-.093c0-.202-.018-.388-.053-.558a1.445 1.445 0 00-.158-.452.77.77 0 00-.699-.409c-.173 0-.32.028-.444.084a.74.74 0 00-.294.241 1.119 1.119 0 00-.171.378 2.441 2.441 0 00-.07.497v.61c.014.217.055.412.122.585a.88.88 0 00.312.404c.141.1.326.15.554.15a.766.766 0 00.422-.11.843.843 0 00.277-.312c.073-.132.124-.284.154-.457a3.04 3.04 0 00.048-.558zm-3.728-2.418v.897h-2.768v-.897h2.768zm-2.083-1.173h1.266v4.495c0 .138.018.244.053.317a.317.317 0 00.167.154c.073.026.165.04.277.04.079 0 .149-.004.21-.01a2.02 2.02 0 00.163-.026l.005.932a2.371 2.371 0 01-.77.114c-.278 0-.521-.045-.729-.136a1.005 1.005 0 01-.475-.449c-.11-.205-.167-.474-.167-.808v-4.623zm-.967 1.173v.897h-2.769v-.897h2.769zm-2.083-1.173h1.265v4.495c0 .138.018.244.053.317a.317.317 0 00.167.154c.073.026.165.04.277.04.079 0 .15-.004.21-.01a2.02 2.02 0 00.163-.026l.005.932a2.371 2.371 0 01-.77.114 1.81 1.81 0 01-.729-.136 1.006 1.006 0 01-.474-.449c-.112-.205-.167-.474-.167-.808v-4.623zm-4.055-.822v6.75h-1.266v-6.75h1.266zm-.18 4.205H76.6c.003-.33.047-.636.131-.914.085-.281.207-.524.365-.73.158-.207.347-.369.567-.483.223-.114.469-.171.738-.171a1.9 1.9 0 01.638.1c.193.065.358.17.496.317.14.144.25.333.325.567.076.235.115.519.115.853V60.6H78.7v-3.015c0-.211-.03-.377-.092-.497a.508.508 0 00-.26-.259.962.962 0 00-.412-.079.994.994 0 00-.466.101.8.8 0 00-.303.281 1.248 1.248 0 00-.168.413 2.35 2.35 0 00-.052.51z" fill="#fff"/><g clip-path="url(#clip1_781_52)"><path d="M102 84l-3.307 18.837L102 121.705l18-20.761L102 84z" fill="#033363"/><path d="M102 84l-18 16.944 18 20.761V84z" fill="#033363"/><path d="M84 127.999v-27.056l18 14.159-18 12.897z" fill="#E9F3FF"/><path d="M102 104.147h-1.732l1.732-3.401.567 2.355-.567 1.046z" fill="#00317E"/><path d="M94.717 99.19c0-3.94 3.265-7.131 7.296-7.131l3.521 6.457-3.521 6.146-7.296-2.843v-2.642.012z" fill="#00CDF4"/><path d="M96.899 97.48v9.984h1.454v-2.069h1.454v2.069h1.454v-2.069h.727l1.914-3.752-1.914-4.176h-5.115l.026.012z" fill="#00CDF4"/><path d="M102 92.068c4.031 0 7.296 3.192 7.296 7.13v2.644L102 104.684V92.068z" fill="#00CDF4"/><path d="M104.195 107.466v-2.07h1.454v2.07h1.454v-9.985h-5.115v7.928h.727v2.069h1.455l.025-.012z" fill="#00CDF4"/><path d="M101.298 98.215c0 1.296-1.071 2.343-2.398 2.343-1.327 0-2.398-1.047-2.398-2.343V95.87l4.809 2.344h-.013zm1.402 0c0 1.296 1.072 2.343 2.398 2.343 1.327 0 2.398-1.047 2.398-2.343V95.87l-4.808 2.344h.012z" fill="#033363"/><path d="M103.575 103.708h-1.559v-3.062l1.559 3.062z" fill="#00317E"/><path d="M120 128.001l-18-12.913 18-14.158v27.071z" fill="#E9F3FF"/><path d="M102.002 113.256h2.33l15.67 14.743h-18l-3.701-5.278 3.701-9.465z" fill="#fff"/><path d="M102 113.256v14.743H84l15.67-14.743H102z" fill="#fff"/></g></g><defs><clipPath id="clip0_781_52"><rect width="160" height="160" rx="80" fill="#fff"/></clipPath><clipPath id="clip1_781_52"><path fill="#fff" transform="translate(84 84)" d="M0 0h36v44H0z"/></clipPath></defs></svg>