<svg width="160" height="160" viewBox="0 0 160 160" fill="none" xmlns="http://www.w3.org/2000/svg"><g clip-path="url(#clip0_781_682)"><rect width="160" height="160" rx="80" fill="#fff"/><path fill="#D4E9FF" d="M-1 80h162v80H-1z"/><path d="M43 117.66v10.341l8.93-10.341h56.924c4.313 0 7.812-3.088 7.812-6.893V54.135c0-3.808-3.499-6.893-7.812-6.893H50.811C46.5 47.242 43 50.327 43 54.135v63.525z" fill="#1E8BFA"/><path d="M49.697 56.363a2.39 2.39 0 012.39-2.39h53.818a2.39 2.39 0 012.39 2.39v50.741a2.39 2.39 0 01-2.39 2.39H52.087a2.39 2.39 0 01-2.39-2.39V56.363z" fill="#fff"/><path fill-rule="evenodd" clip-rule="evenodd" d="M93.222 74.162c0-.465.376-.842.84-.842h5.86a.842.842 0 01.754 1.216l-2.512 5.048a.841.841 0 11-1.506-.75l1.195-2.4-19.218 11.903a.841.841 0 01-1.08-.166l-3.15-3.652-15.045 9.698a.841.841 0 11-.912-1.414L74.11 82.708a.841.841 0 011.093.158l3.158 3.662 18.607-11.525h-2.904a.841.841 0 01-.841-.841z" fill="#E53838"/><path d="M58.066 97.717h5.048v6.73h-5.048v-6.73zm9.368-1.682h5.047v8.413h-5.047v-8.413zM76.8 92.67h5.048v11.777h-5.047V92.67zm9.368-3.365h5.047v15.142h-5.047V89.305zm9.367-3.365h5.048v18.507h-5.048V85.939z" fill="#CEE5FD"/><g clip-path="url(#clip1_781_682)"><rect x="58.902" y="32" width="40.379" height="40.578" rx="20.19" fill="#FEAE2A"/><g clip-path="url(#clip2_781_682)"><path d="M91.085 60.156a2.259 2.259 0 01-1.567-2.441c.212-1.66.523-3.393.523-4.724 0-6.743-4.843-14.968-10.818-14.968s-10.819 8.225-10.819 14.968c0 1.632.467 3.739.72 5.646a2.253 2.253 0 01-1.373 2.374l-11.853 4.964.375 18.64h45.095l1.122-20.876-11.405-3.581v-.002z" fill="#36395C"/><path d="M89.78 52.66s-4.725 9.011-10.554 9.011c-5.829 0-10.554-9.012-10.554-9.012s4.725-7.307 10.554-7.307c5.829 0 10.555 7.307 10.555 7.307z" fill="#1E1E3D"/><mask id="mask0_781_682" style="mask-type:luminance" maskUnits="userSpaceOnUse" x="70" y="45" width="18" height="17"><path d="M84.335 47.103c3.933 2.622 4.436 8.14 1.065 11.45-1.737 1.708-3.87 3.118-6.178 3.118-2.307 0-4.532-1.471-6.288-3.228-3.252-3.25-2.753-8.664 1.047-11.255 1.544-1.053 3.335-1.836 5.242-1.836 1.906 0 3.599.74 5.112 1.749v.002z" fill="#fff"/></mask><g mask="url(#mask0_781_682)"><path d="M73.85 56.34h10.74l-2.107 7.686h-6.526L73.85 56.34z" fill="#FCAD6D"/><path d="M81.904 60.333a4.453 4.453 0 01-4.737.101s-4.45-1.991-4.45-4.815V42.24h13.08v13.488c0 2.17-3.89 4.609-3.89 4.609l-.003-.003z" fill="#F9BA8F"/><path d="M85.796 48.748c-1.919.061-6.449.846-6.449.846s-5.058-1.194-6.632-1.15v3.092c0 .652.403 1.254 1.025 1.453a.912.912 0 00.168.04c2.609.363 5.02-1.29 5.321-2.005.302.712 3.23 2.062 5.322 2.005a.847.847 0 00.215-.035c.617-.17 1.032-.748 1.032-1.387v-2.86h-.002z" fill="#36395C"/><path d="M73.322 49.965l4.431.512s-1.515 2.892-4.43-.512zm11.953 0l-4.431.512s1.515 2.892 4.43-.512z" fill="#FF2424"/><path d="M80.882 54.845l-5.48-1.056s.54 3.783 3.387 3.238c.983-.188 1.865-1.087 2.093-2.182z" fill="#fff"/></g><path d="M79.226 50.642c4.236 0 8.014.087 10.503 2.116.035-.064.052-.099.052-.099s-4.726-7.307-10.555-7.307-10.554 7.307-10.554 7.307l.052.099c2.486-2.032 6.267-2.116 10.502-2.116z" fill="#451077" opacity=".4"/><path fill-rule="evenodd" clip-rule="evenodd" d="M77.926 63.105a.3.3 0 01.3.301c0 .769-.227 1.17-.434 1.532l-.002.003c-.187.328-.353.619-.353 1.23s.166.902.353 1.23l.002.004c.207.363.435.763.435 1.534 0 .77-.228 1.17-.435 1.532l-.002.004c-.187.327-.353.617-.353 1.229 0 .611.166.903.353 1.231l.002.003c.207.363.435.764.435 1.533 0 .769-.228 1.17-.435 1.532l-.002.004c-.187.328-.353.62-.353 1.231a.3.3 0 01-.601 0c0-.769.227-1.17.434-1.532l.002-.004c.187-.328.353-.62.353-1.231 0-.612-.166-.903-.353-1.232l-.002-.003c-.207-.363-.434-.764-.434-1.532 0-.77.228-1.17.434-1.531l.002-.003c.187-.328.353-.619.353-1.231 0-.613-.166-.905-.353-1.233l-.002-.003c-.207-.362-.434-.763-.434-1.532s.227-1.17.434-1.532l.002-.003c.187-.328.353-.618.353-1.23a.3.3 0 01.301-.3zm4.029 0a.3.3 0 01.3.301c0 .611.166.902.354 1.23l.002.004c.207.362.434.763.434 1.533 0 .77-.227 1.17-.434 1.533l-.002.004c-.187.327-.353.618-.353 1.23 0 .614.166.904.353 1.232l.002.004c.207.362.434.762.434 1.532s-.227 1.171-.434 1.534l-.002.004c-.188.327-.353.618-.353 1.23 0 .611.166.903.353 1.231l.002.004c.207.362.434.763.434 1.532a.3.3 0 11-.601 0c0-.612-.166-.903-.354-1.231l-.002-.004c-.206-.362-.434-.763-.434-1.532 0-.77.228-1.17.435-1.532l.001-.003c.188-.328.354-.62.354-1.233 0-.612-.166-.903-.353-1.23l-.002-.004c-.207-.363-.435-.763-.435-1.533 0-.77.228-1.17.435-1.533l.002-.003c.187-.328.353-.619.353-1.232s-.166-.904-.354-1.232l-.001-.003c-.207-.363-.435-.763-.435-1.532a.3.3 0 01.3-.3z" fill="#fff"/></g></g></g><defs><clipPath id="clip0_781_682"><rect width="160" height="160" rx="80" fill="#fff"/></clipPath><clipPath id="clip1_781_682"><rect x="58.902" y="32" width="40.379" height="40.578" rx="20.19" fill="#fff"/></clipPath><clipPath id="clip2_781_682"><path fill="#fff" transform="translate(55.897 38.014)" d="M0 0h46.59v46.59H0z"/></clipPath></defs></svg>