<?xml version="1.0" encoding="UTF-8"?>
<svg id="_圖層_1" data-name="圖層 1" xmlns="http://www.w3.org/2000/svg" xmlns:xlink="http://www.w3.org/1999/xlink" viewBox="0 0 160 160">
  <defs>
    <style>
      .cls-1 {
        fill: #d4e9ff;
      }

      .cls-2 {
        fill: #febe55;
      }

      .cls-3 {
        fill: #fff;
      }

      .cls-4 {
        fill: #033363;
      }

      .cls-5 {
        fill: #ff2424;
      }

      .cls-6 {
        fill: none;
      }

      .cls-7 {
        fill: #cee5fd;
      }

      .cls-8 {
        fill: #076ed7;
      }

      .cls-8, .cls-9 {
        fill-rule: evenodd;
      }

      .cls-10 {
        fill: #00cdf4;
      }

      .cls-11 {
        fill: #00317e;
      }

      .cls-9 {
        fill: #022446;
      }

      .cls-12 {
        clip-path: url(#clippath);
      }
    </style>
    <clipPath id="clippath">
      <path class="cls-6" d="M80,0h0c44.18,0,80,35.82,80,80s-35.82,80-80,80S0,124.18,0,80,35.82,0,80,0Z"/>
    </clipPath>
  </defs>
  <g class="cls-12">
    <g>
      <path class="cls-3" d="M80,0h0c44.18,0,80,35.82,80,80h0c0,44.18-35.82,80-80,80h0C35.82,160,0,124.18,0,80h0C0,35.82,35.82,0,80,0Z"/>
      <rect class="cls-1" x="-1" y="80" width="162" height="80"/>
    </g>
  </g>
  <g>
    <g>
      <g>
        <path class="cls-3" d="M51.93,39.9c0-4.36,3.54-7.9,7.9-7.9h40.48c4.36,0,7.9,3.54,7.9,7.9v80.21c0,4.36-3.54,7.9-7.9,7.9h-40.48c-4.36,0-7.9-3.54-7.9-7.9V39.9Z"/>
        <path class="cls-9" d="M100.17,35h-40.48c-2.7,0-4.9,2.19-4.9,4.9v80.21c0,2.7,2.19,4.9,4.9,4.9h40.48c2.7,0,4.9-2.19,4.9-4.9V39.9c0-2.7-2.19-4.9-4.9-4.9ZM59.69,32c-4.36,0-7.9,3.54-7.9,7.9v80.21c0,4.36,3.54,7.9,7.9,7.9h40.48c4.36,0,7.9-3.54,7.9-7.9V39.9c0-4.36-3.54-7.9-7.9-7.9h-40.48Z"/>
      </g>
      <path class="cls-8" d="M65.24,58.23c0,.82-.66,1.48-1.48,1.48s-1.48-.66-1.48-1.48v-5.9c0-1.17.47-2.3,1.3-3.13s1.96-1.3,3.13-1.3h5.9c.82,0,1.48.66,1.48,1.48s-.66,1.48-1.48,1.48h-5.9c-.39,0-.77.16-1.04.43s-.43.65-.43,1.04v5.9ZM93.29,83.33h-5.9c-.82,0-1.48-.66-1.48-1.48s.66-1.48,1.48-1.48h5.9c.39,0,.77-.16,1.04-.43s.43-.65.43-1.04v-5.9c0-.82.66-1.48,1.48-1.48s1.48.66,1.48,1.48v5.9c0,1.17-.47,2.3-1.3,3.13-.83.83-1.96,1.3-3.13,1.3ZM72.62,83.33c.82,0,1.48-.66,1.48-1.48s-.66-1.48-1.48-1.48h-5.9c-.39,0-.77-.16-1.04-.43-.28-.28-.43-.65-.43-1.04v-5.9c0-.82-.66-1.48-1.48-1.48s-1.48.66-1.48,1.48v5.9c0,1.17.47,2.3,1.3,3.13.83.83,1.96,1.3,3.13,1.3h5.9ZM97.71,58.23c0,.82-.66,1.48-1.48,1.48s-1.48-.66-1.48-1.48v-5.9c0-.39-.16-.77-.43-1.04-.28-.28-.65-.43-1.04-.43h-5.9c-.82,0-1.48-.66-1.48-1.48s.66-1.48,1.48-1.48h5.9c1.17,0,2.3.47,3.13,1.3.83.83,1.3,1.96,1.3,3.13v5.9ZM70.89,54.99h6.07c.4,0,.79.16,1.07.44.28.28.44.67.44,1.07v6.07c0,.4-.16.79-.44,1.07-.28.28-.67.44-1.07.44h-6.07c-.4,0-.79-.16-1.07-.44-.28-.28-.44-.67-.44-1.07v-6.07c0-.4.16-.79.44-1.07s.67-.44,1.07-.44ZM72.41,61.06h3.04v-3.04h-3.04v3.04ZM89.11,64.1h-6.07c-.4,0-.79-.16-1.07-.44-.28-.28-.44-.67-.44-1.07v-6.07c0-.4.16-.79.44-1.07.28-.28.67-.44,1.07-.44h6.07c.4,0,.79.16,1.07.44.28.28.44.67.44,1.07v6.07c0,.4-.16.79-.44,1.07-.28.28-.67.44-1.07.44ZM87.59,58.02h-3.04v3.04h3.04v-3.04ZM70.89,67.13h6.07c.4,0,.79.16,1.07.44.28.28.44.67.44,1.07v6.07c0,.4-.16.79-.44,1.07-.28.28-.67.44-1.07.44h-6.07c-.4,0-.79-.16-1.07-.44-.28-.28-.44-.67-.44-1.07v-6.07c0-.4.16-.79.44-1.07.28-.28.67-.44,1.07-.44ZM72.41,73.21h3.04v-3.04h-3.04v3.04ZM84.11,71.24c-.28.28-.67.44-1.07.44s-.79-.16-1.07-.44c-.28-.28-.44-.67-.44-1.07v-1.52c0-.4.16-.79.44-1.07.28-.28.67-.44,1.07-.44h1.52c.4,0,.79.16,1.07.44.28.28.44.67.44,1.07s-.16.79-.44,1.07c-.28.28-.67.44-1.07.44,0,.4-.16.79-.44,1.07ZM88.04,67.58c.28-.28.67-.44,1.07-.44s.79.16,1.07.44c.28.28.44.67.44,1.07v6.07c0,.4-.16.79-.44,1.07-.28.28-.67.44-1.07.44h-1.52c-.4,0-.79-.16-1.07-.44-.28-.28-.44-.67-.44-1.07s.16-.79.44-1.07c.28-.28.67-.44,1.07-.44v-4.56c0-.4.16-.79.44-1.07ZM82.19,73.46c.25-.17.54-.26.84-.26.4,0,.79.16,1.07.44.28.28.44.67.44,1.07,0,.3-.09.59-.26.84-.17.25-.4.44-.68.56-.28.11-.58.14-.88.09-.29-.06-.56-.2-.78-.42-.21-.21-.36-.48-.42-.78-.06-.29-.03-.6.09-.88.12-.28.31-.51.56-.68Z"/>
      <g>
        <path class="cls-7" d="M94.53,98.57h-29.07c-.53,0-.97-.44-.97-.98s.43-.98.97-.98h29.07c.53,0,.97.44.97.98s-.43.98-.97.98Z"/>
        <path class="cls-7" d="M94.53,103.58h-29.07c-.53,0-.97-.44-.97-.98s.43-.98.97-.98h29.07c.53,0,.97.44.97.98s-.43.98-.97.98Z"/>
        <path class="cls-7" d="M94.53,108.6h-29.07c-.53,0-.97-.44-.97-.98s.43-.99.97-.99h29.07c.53,0,.97.44.97.99s-.43.98-.97.98Z"/>
      </g>
    </g>
    <g>
      <g>
        <circle class="cls-4" cx="110.67" cy="108.85" r="19.98"/>
        <path class="cls-5" d="M110.67,130.33c-11.85,0-21.48-9.64-21.48-21.48s9.64-21.48,21.48-21.48,21.48,9.64,21.48,21.48-9.64,21.48-21.48,21.48ZM110.67,90.36c-10.19,0-18.48,8.29-18.48,18.48s8.29,18.48,18.48,18.48,18.48-8.29,18.48-18.48-8.29-18.48-18.48-18.48Z"/>
      </g>
      <g>
        <path class="cls-10" d="M101.41,107.96c0-5.05,4.19-9.15,9.36-9.15l4.52,8.29-4.52,7.89-9.36-3.65v-3.39.02Z"/>
        <path class="cls-10" d="M104.21,105.77v12.81h1.87v-2.66h1.87v2.66h1.87v-2.66h.93l2.46-4.81-2.46-5.36h-6.56l.03.02Z"/>
        <path class="cls-10" d="M110.76,98.82c5.17,0,9.36,4.1,9.36,9.15v3.39l-9.36,3.65v-16.19Z"/>
        <path class="cls-10" d="M113.58,118.58v-2.66h1.87v2.66h1.87v-12.81h-6.56v10.17h.93v2.66h1.87l.03-.02Z"/>
        <path class="cls-4" d="M109.86,106.71c0,1.66-1.37,3.01-3.08,3.01s-3.08-1.34-3.08-3.01v-3.01l6.17,3.01h-.02Z"/>
        <path class="cls-4" d="M111.66,106.71c0,1.66,1.38,3.01,3.08,3.01s3.08-1.34,3.08-3.01v-3.01l-6.17,3.01h.02Z"/>
        <path class="cls-11" d="M112.78,113.76h-2v-3.93l2,3.93Z"/>
      </g>
    </g>
    <g>
      <circle class="cls-2" cx="47.49" cy="89.06" r="13.6"/>
      <g>
        <path class="cls-3" d="M52.61,89.64h-4.1v6.91h4.1c.3,0,.54-.24.54-.54v-5.82c0-.3-.24-.54-.54-.54Z"/>
        <path class="cls-3" d="M41.83,90.18v5.82c0,.3.24.54.54.54h4.1v-6.91h-4.1c-.3,0-.54.24-.54.54Z"/>
        <path class="cls-3" d="M41.09,86.75v1.7c0,.3.24.54.54.54h4.84v-2.78s-4.84,0-4.84,0c-.3,0-.54.24-.54.54Z"/>
        <path class="cls-3" d="M53.35,86.2h-4.85v2.78h4.85c.3,0,.54-.24.54-.54v-1.7c0-.3-.24-.54-.54-.54Z"/>
        <path class="cls-3" d="M43.34,85.59c.06.04.16.09.45.09h7.33c.32,0,.44-.06.51-.1.48-.29.79-.89.79-1.65,0-.57-.18-1.14-.49-1.56-.39-.52-.96-.8-1.61-.8-.05,0-.11,0-.16,0-1.71.12-2.4,1.74-2.68,2.79-.27-1.05-.97-2.67-2.68-2.79-.06,0-.11,0-.16,0-.65,0-1.22.28-1.61.8-.31.42-.49.99-.49,1.56,0,.77.31,1.38.8,1.66ZM50.22,82.55s.06,0,.1,0c.35,0,.62.14.83.41.19.26.3.61.3.97,0,.3-.1.86-.5.86h-2.57c.18-.78.65-2.16,1.84-2.24ZM43.81,82.96c.2-.27.48-.41.83-.41.03,0,.06,0,.1,0,1.19.08,1.66,1.46,1.84,2.24h-2.57c-.39,0-.5-.56-.5-.86,0-.36.11-.72.3-.97Z"/>
      </g>
    </g>
  </g>
</svg>