<svg width="160" height="160" viewBox="0 0 160 160" fill="none" xmlns="http://www.w3.org/2000/svg"><g clip-path="url(#clip0_781_1112)"><rect width="160" height="160" rx="80" fill="#fff"/><path fill="#D4E9FF" d="M-1 80h162v80H-1z"/><path d="M101.846 53.014l31.192 20.903-33.847 50.886L68 103.9l33.847-50.886z" fill="#9FBD28"/><path d="M93.823 116.626l-15.998-10.688c.84-2.894.362-5.943-1.29-8.233l16.479-24.701 4.841 3.234 15.698 10.489 4.842 3.234-16.48 24.701c-2.747-.649-5.744.079-8.092 1.964z" fill="#8BA42D"/><path d="M123.684 71.867L107.686 61.18c-2.349 1.886-5.346 2.613-8.093 1.964l-16.48 24.7 4.842 3.235 15.698 10.488 4.841 3.235 16.48-24.701c-1.653-2.29-2.13-5.34-1.29-8.233z" fill="#8BA42D"/><path d="M108.688 94.384c-3.024 4.546-9.133 5.781-13.645 2.757-4.512-3.024-5.718-9.16-2.694-13.706 3.024-4.546 9.133-5.78 13.645-2.757 4.511 3.023 5.718 9.16 2.694 13.706z" fill="#C2DB4B"/><path d="M102.846 51.012l31.192 20.903-33.847 50.886-31.192-20.903 33.847-50.886z" fill="#009502"/><path d="M97.46 52.945l32.44 18.913-30.6 52.902-32.437-18.912L97.46 52.945z" fill="#54C255"/><path d="M93.429 116.934l-16.635-9.668c.658-2.94-.01-5.953-1.802-8.136l14.902-25.683 5.035 2.926 16.323 9.486 5.034 2.926-14.903 25.683c-2.782-.476-5.728.437-7.954 2.466z" fill="#00A402"/><path d="M120.434 70.396l-16.635-9.668c-2.226 2.03-5.172 2.943-7.955 2.466L80.941 88.877l5.034 2.926 16.324 9.486 5.034 2.925 14.903-25.683c-1.792-2.182-2.46-5.195-1.802-8.135z" fill="#00A402"/><path d="M106.875 93.808c-2.734 4.726-8.753 6.34-13.445 3.604-4.692-2.735-6.28-8.784-3.546-13.51 2.734-4.727 8.754-6.34 13.446-3.605 4.692 2.736 6.279 8.785 3.545 13.511z" fill="#54C255"/><path d="M44 42.896A7.896 7.896 0 0151.896 35h39.855a7.896 7.896 0 017.896 7.896v80.208A7.896 7.896 0 0191.751 131H51.896A7.896 7.896 0 0144 123.104V42.896z" fill="#fff"/><path fill-rule="evenodd" clip-rule="evenodd" d="M91.751 38H51.896A4.896 4.896 0 0047 42.896v80.208A4.896 4.896 0 0051.896 128h39.855a4.896 4.896 0 004.896-4.896V42.896A4.896 4.896 0 0091.751 38zm-39.855-3A7.896 7.896 0 0044 42.896v80.208A7.896 7.896 0 0051.896 131h39.855a7.896 7.896 0 007.896-7.896V42.896A7.896 7.896 0 0091.751 35H51.896z" fill="#022446"/><g clip-path="url(#clip1_781_1112)"><rect x="54" y="47" width="36" height="36" rx="18" fill="#FEAE2A"/><g clip-path="url(#clip2_781_1112)"><path d="M82.553 71.97a2.004 2.004 0 01-1.39-2.166c.188-1.473.464-3.01.464-4.19 0-5.983-4.297-13.28-9.598-13.28-5.301 0-9.598 7.297-9.598 13.28 0 1.447.414 3.316.638 5.008a1.998 1.998 0 01-1.217 2.106l-10.516 4.404.332 16.537h40.008l.995-18.52-10.118-3.178v-.002z" fill="#36395C"/><path d="M81.391 65.321s-4.192 7.996-9.363 7.996c-5.171 0-9.364-7.996-9.364-7.996s4.193-6.483 9.364-6.483c5.17 0 9.363 6.483 9.363 6.483z" fill="#1E1E3D"/><mask id="mask0_781_1112" style="mask-type:luminance" maskUnits="userSpaceOnUse" x="64" y="58" width="16" height="16"><path d="M76.565 60.388c3.49 2.326 3.936 7.222.945 10.159-1.54 1.514-3.433 2.766-5.48 2.766-2.047 0-4.021-1.306-5.579-2.864-2.885-2.883-2.442-7.687.928-9.986 1.37-.934 2.96-1.629 4.65-1.629 1.693 0 3.194.657 4.536 1.552v.002z" fill="#fff"/></mask><g mask="url(#mask0_781_1112)"><path d="M67.266 68.582h9.528l-1.869 6.819h-5.79l-1.87-6.819z" fill="#FCAD6D"/><path d="M74.41 72.126a3.95 3.95 0 01-4.202.09s-3.948-1.767-3.948-4.272V56.072h11.605V68.04c0 1.926-3.452 4.089-3.452 4.089l-.002-.002z" fill="#F9BA8F"/><path d="M77.863 61.846c-1.702.055-5.721.751-5.721.751s-4.487-1.06-5.884-1.02v2.743c0 .578.357 1.112.91 1.29.05.016.1.029.148.035 2.315.321 4.454-1.145 4.721-1.78.268.633 2.865 1.83 4.722 1.78a.75.75 0 00.19-.031c.548-.15.916-.664.916-1.231v-2.537h-.002z" fill="#36395C"/><path d="M66.797 62.922l3.931.455s-1.344 2.565-3.931-.455zm10.603 0l-3.931.455s1.344 2.565 3.93-.455z" fill="#FF2424"/><path d="M73.502 67.255l-4.861-.937s.478 3.357 3.004 2.873c.872-.167 1.654-.964 1.857-1.936z" fill="#fff"/></g><path d="M72.028 63.531c3.757 0 7.11.078 9.317 1.878.032-.057.046-.088.046-.088s-4.192-6.483-9.363-6.483c-5.171 0-9.364 6.483-9.364 6.483l.046.088c2.206-1.803 5.56-1.878 9.318-1.878z" fill="#451077" opacity=".4"/><path fill-rule="evenodd" clip-rule="evenodd" d="M70.877 74.59c.148 0 .267.12.267.266 0 .683-.202 1.038-.385 1.36l-.002.002c-.166.291-.314.55-.314 1.092s.148.8.314 1.09l.002.004c.183.322.385.678.385 1.36 0 .684-.202 1.04-.385 1.36l-.002.004c-.166.29-.314.548-.314 1.09s.148.801.314 1.092l.002.003c.183.322.385.678.385 1.36s-.202 1.038-.385 1.36l-.002.003c-.166.291-.314.55-.314 1.092a.267.267 0 11-.533 0c0-.682.202-1.038.385-1.36l.002-.002c.166-.292.314-.55.314-1.093 0-.543-.148-.801-.314-1.093l-.002-.002c-.183-.322-.385-.678-.385-1.36s.202-1.037.386-1.358l.001-.003c.166-.29.314-.549.314-1.092 0-.544-.148-.803-.314-1.094l-.001-.002c-.184-.322-.386-.677-.386-1.36 0-.682.202-1.037.386-1.358l.001-.003c.166-.29.314-.549.314-1.091 0-.148.119-.267.266-.267zm3.575 0c.148 0 .267.12.267.266 0 .543.147.8.313 1.092l.002.003c.184.322.385.678.385 1.36 0 .684-.201 1.04-.385 1.36l-.002.004c-.166.29-.313.548-.313 1.092 0 .543.147.802.313 1.092l.002.003c.184.322.385.677.385 1.36s-.201 1.039-.385 1.36l-.002.004c-.166.29-.313.549-.313 1.091 0 .543.147.801.313 1.093l.002.003c.184.322.385.677.385 1.36a.267.267 0 11-.533 0c0-.543-.147-.802-.313-1.093l-.002-.003c-.184-.322-.385-.678-.385-1.36s.201-1.037.385-1.359l.001-.002c.166-.291.314-.55.314-1.094 0-.543-.147-.802-.313-1.092l-.002-.003c-.184-.322-.385-.677-.385-1.36s.201-1.038.385-1.36l.002-.003c.166-.29.313-.549.313-1.092 0-.544-.148-.803-.314-1.094l-.001-.002c-.184-.322-.385-.677-.385-1.36 0-.147.119-.266.266-.266z" fill="#fff"/></g></g><path d="M61.824 119a8 8 0 100-16 8 8 0 000 16z" fill="#1E8BFA"/><path d="M63.239 110.999l1.293-1.293a.999.999 0 00-1.414-1.414l-1.293 1.293-1.293-1.293a.997.997 0 00-1.402.013.999.999 0 00-.012 1.401l1.293 1.293-1.293 1.293a1.01 1.01 0 00-.306.711.999.999 0 001.01 1.009 1.004 1.004 0 00.71-.306l1.293-1.293 1.293 1.293a.998.998 0 001.402-.012.999.999 0 00.012-1.402l-1.293-1.293z" fill="#fff"/><path d="M81.824 119a8 8 0 100-16 8 8 0 000 16z" fill="#E53838"/><path d="M84.797 111.079l-2.853 2.871a.156.156 0 01-.055.037.159.159 0 01-.064.013.158.158 0 01-.065-.013.157.157 0 01-.054-.037l-2.854-2.871a1.81 1.81 0 01-.528-1.283 1.823 1.823 0 01.528-1.282 1.84 1.84 0 012.548 0l.424.427.425-.427a1.84 1.84 0 012.548 0 1.81 1.81 0 01.527 1.282 1.827 1.827 0 01-.527 1.283z" fill="#fff"/><path d="M84.742 91h-26.83a.997.997 0 01-.994-1c0-.552.445-1 .994-1h26.83c.548 0 .993.448.993 1s-.445 1-.993 1zm0 5h-26.83a.997.997 0 01-.994-1c0-.552.445-1 .994-1h26.83c.548 0 .993.448.993 1s-.445 1-.993 1z" fill="#CEE5FD"/></g><defs><clipPath id="clip0_781_1112"><rect width="160" height="160" rx="80" fill="#fff"/></clipPath><clipPath id="clip1_781_1112"><rect x="54" y="47" width="36" height="36" rx="18" fill="#fff"/></clipPath><clipPath id="clip2_781_1112"><path fill="#fff" transform="translate(51.334 52.334)" d="M0 0h41.333v41.333H0z"/></clipPath></defs></svg>