<svg width="221" height="220" viewBox="0 0 221 220" fill="none" xmlns="http://www.w3.org/2000/svg"><path d="M157.213 66.385v147.231c0 1.214-.347 2.35-.959 3.317-1.157 1.841-3.243 3.067-5.624 3.067H69.402c-3.637 0-6.584-2.858-6.584-6.384V66.384c0-3.526 2.947-6.384 6.584-6.384h81.228c3.636 0 6.583 2.858 6.583 6.385z" fill="#0664C4"/><path d="M152.102 211.537V67.165c0-.926-.774-1.677-1.729-1.677H69.661c-.955 0-1.73.751-1.73 1.677v144.372c0 .926.775 1.676 1.73 1.676h80.712c.955 0 1.729-.75 1.729-1.676z" fill="#fff"/><path d="M112.81 137.015c-7.497 0-13.949-5.685-14.736-13.303l-1.534-14.869c-.404-3.925.75-7.784 3.253-10.865a14.72 14.72 0 019.969-5.405c3.925-.404 7.784.75 10.865 3.253a14.72 14.72 0 015.405 9.969l.208 2.005-5.36.555-.208-2.005c-.256-2.493-1.48-4.745-3.442-6.343-1.963-1.595-4.42-2.336-6.913-2.074-2.493.256-4.745 1.48-6.343 3.443a9.36 9.36 0 00-2.074 6.913l1.534 14.868c.534 5.176 5.18 8.947 10.356 8.417 2.493-.257 4.745-1.48 6.343-3.443 1.594-1.963 2.333-4.416 2.074-6.913l5.36-.554c.404 3.925-.751 7.784-3.253 10.865a14.724 14.724 0 01-11.504 5.483v.003z" fill="#0664C4"/><path d="M93.395 114.959h35.959a3.71 3.71 0 013.708 3.708v14.579c0 11.32-9.191 20.512-20.511 20.512h-2.352c-11.32 0-20.511-9.192-20.511-20.512v-14.579a3.71 3.71 0 013.707-3.708z" fill="#CEE5FD"/><path d="M115.743 131.42a4.37 4.37 0 00-4.372-4.371 4.37 4.37 0 00-1.715 8.39v2.556a1.716 1.716 0 003.431 0v-2.556a4.372 4.372 0 002.656-4.019z" fill="#054C94"/><path d="M166.635 166H56.365c-3.24 0-5.865 1.797-5.865 4.014v20.972c0 2.217 2.626 4.014 5.864 4.014h110.271c3.239 0 5.865-1.797 5.865-4.014v-20.972c0-2.217-2.626-4.014-5.865-4.014z" fill="#0664C4"/><path d="M75.925 181.961a5.828 5.828 0 10-11.344-2.678 5.828 5.828 0 0011.344 2.678zm20.643-.387a5.827 5.827 0 00-4.819-6.686 5.827 5.827 0 10-1.867 11.505 5.829 5.829 0 006.686-4.819zm18.926 3.178a5.828 5.828 0 10-8.242-8.242 5.828 5.828 0 008.242 8.242zm20.56 0a5.828 5.828 0 10-8.242-8.242 5.828 5.828 0 008.242 8.242zm22.107-2.791a5.828 5.828 0 10-11.344-2.678 5.828 5.828 0 0011.344 2.678z" fill="#fff"/><path d="M54.887 32.604c7.925 0 14.35-6.425 14.35-14.35s-6.425-14.35-14.35-14.35-14.35 6.425-14.35 14.35 6.425 14.35 14.35 14.35z" fill="#54C255"/><path d="M51.094 25.157l-5.154-5.155 1.865-1.862 3.29 3.289 10.077-10.077 1.865 1.865-11.943 11.94z" fill="#fff"/><path d="M24.668 80.644a8.322 8.322 0 100-16.644 8.322 8.322 0 000 16.644z" fill="#054C94"/><path d="M39.289 70.739l-.29 2.76 93.209 13.261.291-2.76-93.21-13.261z" fill="#54C255"/><path d="M150.043 38.928l-2.525 1.152 6.456 13.073L156.499 52l-6.456-13.072z" fill="#D9E3E8"/><path d="M135.088 65.049c-.303 0-.601-.08-.862-.224l-.221-.125a1.764 1.764 0 01-.902-1.545 1.771 1.771 0 012.631-1.54l.222.125a1.772 1.772 0 01.677 2.404 1.771 1.771 0 01-1.542.902l-.003.003zm-9.025-5.064c-.301 0-.602-.08-.862-.224l-.219-.125a1.774 1.774 0 01-.904-1.545 1.764 1.764 0 012.631-1.54l.221.125a1.767 1.767 0 01-.865 3.309h-.002zm-9.029-5.062c-.3 0-.601-.079-.862-.227l-.218-.124a1.773 1.773 0 01-.905-1.546 1.77 1.77 0 011.77-1.767c.3 0 .598.08.862.228l.218.124c.411.23.709.61.836 1.064a1.767 1.767 0 01-1.701 2.248zm-9.025-5.061c-.301 0-.599-.08-.862-.227l-.219-.125a1.771 1.771 0 01-.904-1.545 1.768 1.768 0 011.769-1.767c.301 0 .598.08.862.227l.219.125a1.762 1.762 0 01.677 2.407 1.765 1.765 0 01-1.542.905zm-9.026-5.064c-.3 0-.598-.08-.862-.227l-.221-.125a1.765 1.765 0 01-.902-1.545c0-.3.08-.599.224-.862a1.764 1.764 0 012.405-.678l.218.125a1.768 1.768 0 01-.865 3.309l.003.003zm-18.05-10.126a1.77 1.77 0 01-.863-.227l-.218-.124a1.77 1.77 0 01-.678-2.408 1.772 1.772 0 012.405-.678l.218.125c.411.233.709.61.837 1.064a1.766 1.766 0 01-1.702 2.248zm-9.026-5.064c-.3 0-.599-.08-.862-.227l-.219-.125a1.77 1.77 0 01-.677-2.407 1.772 1.772 0 012.404-.678l.219.125a1.768 1.768 0 01-.865 3.31v.002z" fill="#054C94"/><path d="M115.673 25.783l-78.144 34.66 1.126 2.538 78.143-34.66-1.125-2.538zm-1.923-7.873l-41.527.783.052 2.776 41.527-.783-.052-2.776z" fill="#D9E3E8"/><path d="M32.986 57.809c-.368 0-.723-.114-1.026-.332a1.76 1.76 0 01-.737-1.44c0-.369.113-.723.329-1.024l.147-.207c.332-.462.87-.737 1.438-.737a1.768 1.768 0 011.435 2.796l-.148.207a1.77 1.77 0 01-1.438.737zm6.023-8.416a1.74 1.74 0 01-1.026-.332 1.763 1.763 0 01-.738-1.443c0-.366.114-.72.33-1.02l.15-.208a1.771 1.771 0 012.464-.408c.794.567.978 1.673.408 2.467l-.148.204c-.331.465-.867.74-1.437.74h-.003zm6.023-8.416a1.766 1.766 0 01-1.764-1.775c0-.368.113-.723.329-1.023l.15-.205a1.759 1.759 0 012.464-.408c.383.275.638.68.715 1.148a1.75 1.75 0 01-.306 1.319l-.148.204c-.332.462-.867.74-1.438.74h-.002z" fill="#054C94"/><path d="M43.9 99.139a4.438 4.438 0 100-8.875 4.438 4.438 0 000 8.875z" fill="#D9E3E8"/><path d="M153.892 12.44l1.854-2.986-3.51-4.401-3.327 1.145c-1.548-.856-2.33-1.287-3.881-2.143l-.8-3.426L138.636 0l-1.542 3.162-4.262 1.227-2.986-1.854a10481.81 10481.81 0 01-4.401 3.507l1.146 3.327-2.144 3.879-3.425.8-.629 5.59 3.158 1.543 1.228 4.262-1.854 2.986a14229.4 14229.4 0 013.507 4.4l3.326-1.145c1.549.856 2.331 1.287 3.879 2.144l.8 3.425 5.592.63 1.542-3.162 4.262-1.228 2.986 1.854 4.4-3.51-1.145-3.326 2.146-3.879 3.426-.8.629-5.591-3.161-1.543-1.228-4.261.006.002zm-12.429 13.874a7.675 7.675 0 01-9.501-5.252 7.671 7.671 0 015.251-9.499 7.676 7.676 0 019.502 5.252 7.676 7.676 0 01-5.252 9.501v-.002z" fill="#0664C4"/><path d="M167.746 109c15.464 0 28-12.536 28-28s-12.536-28-28-28-28 12.536-28 28 12.536 28 28 28z" fill="#54C255"/><path d="M175.987 76.243a8.245 8.245 0 00-16.487 0 8.24 8.24 0 004.458 7.323L161.807 94h11.867l-2.151-10.434a8.24 8.24 0 004.458-7.323h.006z" fill="#fff"/></svg>