<svg width="220" height="220" viewBox="0 0 220 220" fill="none" xmlns="http://www.w3.org/2000/svg"><path d="M114.237 170.109h-9.661v14.982h9.661v-14.982z" fill="#033363"/><path d="M114.881 182.656h-10.945c-.991 0-1.793.803-1.793 1.794v32.661c0 .99.802 1.793 1.793 1.793h10.945c.99 0 1.793-.803 1.793-1.793V184.45c0-.991-.803-1.794-1.793-1.794z" fill="#0664C4"/><path d="M109.408 170.587c28.679 0 51.927-23.248 51.927-51.927s-23.248-51.928-51.927-51.928S57.48 89.982 57.48 118.66c0 28.679 23.25 51.927 51.928 51.927z" fill="#CEE5FD"/><path d="M164.795 113.366c-1.206-12.863-6.798-24.797-16.048-34.047-4.829-4.83-10.391-8.663-16.435-11.392-7.105-3.212-14.875-4.904-22.906-4.904-14.86 0-28.834 5.789-39.338 16.296a56.115 56.115 0 00-5.12 5.878c-7.252 9.592-11.178 21.225-11.178 33.46 0 14.859 5.788 28.834 16.295 39.338 9.36 9.363 21.47 14.975 34.509 16.09 1.597.137 3.208.205 4.832.205 1.623 0 3.235-.068 4.832-.205 13.039-1.115 25.149-6.73 34.509-16.09 10.51-10.507 16.295-24.479 16.295-39.338 0-1.779-.083-3.545-.247-5.294v.003zm-55.386 53.515c-26.588 0-48.222-21.633-48.222-48.221 0-12.885 5.077-24.598 13.337-33.258a47.166 47.166 0 013.021-2.905c8.502-7.504 19.662-12.059 31.864-12.059 7.57 0 14.734 1.752 21.112 4.874 14.335 7.004 24.702 20.919 26.743 37.378.241 1.957.369 3.947.369 5.97 0 26.588-21.633 48.221-48.221 48.221h-.003z" fill="#0664C4"/><path d="M149.274 133.081a42.505 42.505 0 01-11.189 16.787c-6.92.167-13.284-2.467-17.981-6.878 1.471-4.8 4.072-8.845 7.376-11.574 1.867-1.546 3.956-2.672 6.193-3.277-2.619-1.772-4.406-5.303-4.406-9.372 0-5.845 3.682-10.581 8.222-10.581 4.54 0 8.225 4.736 8.225 10.581 0 4.069-1.787 7.6-4.406 9.372 2.976.804 5.693 2.532 7.966 4.942zm-49.579 9.909a25.288 25.288 0 01-16.191 6.857c-.948.045-1.889.036-2.815-.021l-.298-.277a42.4 42.4 0 01-10.56-15.696c2.406-2.815 5.376-4.823 8.66-5.714-2.62-1.772-4.407-5.303-4.407-9.372 0-5.845 3.682-10.581 8.225-10.581 4.543 0 8.222 4.736 8.222 10.581 0 4.069-1.787 7.6-4.406 9.372 2.03.548 3.939 1.528 5.672 2.86 3.552 2.729 6.352 6.941 7.898 11.988v.003z" fill="#1F3549" opacity=".1"/><path d="M138.428 149.552a17 17 0 01-.342.315 42.202 42.202 0 01-26.681 11.13c-11.788.557-22.676-3.759-30.716-11.171a19.876 19.876 0 00-.298-.277c2.317-7.567 6.324-14.014 11.406-18.548 5.017-4.477 11.079-7.093 17.612-7.093 6.533 0 12.971 2.78 18.071 7.51 4.868 4.514 8.699 10.799 10.948 18.137v-.003z" fill="#fff"/><path d="M109.409 126.782c7.581 0 13.727-7.906 13.727-17.659 0-9.754-6.146-17.66-13.727-17.66s-13.727 7.906-13.727 17.66c0 9.753 6.146 17.659 13.727 17.659z" fill="#fff"/><path d="M121.036 104.051c-3.459.111-11.625 1.526-11.625 1.526s-9.118-1.606-11.956-1.525v5.026c0 1.174.727 2.259 1.848 2.62.102.033.204.059.302.072 4.703.652 9.05-2.327 9.594-3.616.543 1.284 5.82 3.717 9.593 3.616.115 0 .247-.026.387-.064 1.113-.305 1.861-1.348 1.861-2.501v-5.154h-.004z" fill="#36395C"/><path d="M98.55 106.244l7.988.924s-2.732 5.213-7.987-.924zm21.549 0l-7.988.924s2.732 5.213 7.988-.924z" fill="#fff"/><path d="M164.32 109c15.464 0 28-12.536 28-28s-12.536-28-28-28-28 12.536-28 28c.001 15.464 12.537 28 28 28z" fill="#FEAE2A"/><path d="M164.832 79.097c-2.596-1.011-3.571-2.156-3.636-2.234l-.011-.013a2.887 2.887 0 01-.611-1.753c0-1.81 1.758-3.281 3.921-3.281 2.164 0 3.922 1.473 3.922 3.28h3.571c0-3.215-2.435-5.92-5.708-6.653V66h-3.572v2.443c-3.27.734-5.708 3.438-5.708 6.654a6.42 6.42 0 001.335 3.908c.238.319 1.654 2.038 5.196 3.418 2.736 1.063 4.066 2.777 4.071 2.782l.081.102c.478.559.731 1.217.731 1.902 0 1.81-1.758 3.281-3.921 3.281s-3.922-1.473-3.922-3.281H157c0 3.216 2.435 5.92 5.708 6.654V96h3.572v-2.137c3.273-.734 5.708-3.438 5.708-6.654 0-1.513-.554-3-1.559-4.19-.324-.416-2.145-2.582-5.599-3.928l.002.006z" fill="#fff"/><path d="M77.625 28.209l-1.5 2.572 54.544 31.81 1.501-2.573-54.545-31.81z" fill="#D9E3E8"/><path d="M142.449 19.366a8.183 8.183 0 100-16.366 8.183 8.183 0 000 16.366z" fill="#0664C4"/><path d="M37.25 99.05a4.091 4.091 0 100-8.183 4.091 4.091 0 000 8.183z" fill="#D9E3E8"/><path d="M20.62 80.366a8.183 8.183 0 100-16.366 8.183 8.183 0 000 16.366z" fill="#054C94"/><path d="M42.5 36L26 60l2.42 1.735 16.5-23.999L42.5 36z" fill="#D9E3E8"/><path d="M37.253 74.716l-.312 2.962 92.275 9.698.311-2.962-92.274-9.698z" fill="#FEAE2A"/><path d="M101.528 36.77a1.74 1.74 0 01-1.618-1.846 1.741 1.741 0 011.008-1.464l.226-.105a1.734 1.734 0 012.303.852 1.74 1.74 0 01-.852 2.306l-.226.105c-.263.12-.554.172-.841.153zm9.246-4.255a1.737 1.737 0 01-.61-3.31l.223-.106a1.737 1.737 0 012.306.852c.4.87.018 1.903-.852 2.306l-.226.102a1.716 1.716 0 01-.841.156zm9.245-4.255a1.737 1.737 0 01-1.618-1.85 1.741 1.741 0 011.008-1.464l.223-.105a1.737 1.737 0 012.358 2.181 1.729 1.729 0 01-.903.977l-.226.105a1.76 1.76 0 01-.842.156zm9.246-4.26a1.734 1.734 0 01-1.462-1.008 1.735 1.735 0 01.852-2.303l.223-.105a1.737 1.737 0 012.306.852c.4.87.018 1.903-.852 2.306l-.226.102a1.715 1.715 0 01-.841.156zM32.816 68.411a1.737 1.737 0 01-1.618-1.846c.043-.64.43-1.201 1.008-1.468l.226-.102a1.741 1.741 0 012.306.852c.4.87.019 1.903-.851 2.303l-.227.105a1.72 1.72 0 01-.844.156zm9.249-4.258a1.74 1.74 0 01-1.621-1.847 1.741 1.741 0 011.008-1.465l.226-.104c.263-.12.555-.176.841-.157a1.741 1.741 0 011.516 2.338 1.722 1.722 0 01-.906.977l-.223.104c-.263.12-.555.173-.841.154zm9.242-4.256a1.737 1.737 0 01-.61-3.311l.226-.105a1.741 1.741 0 012.306.852c.4.87.019 1.903-.851 2.303l-.226.105a1.721 1.721 0 01-.845.156zm9.246-4.256a1.74 1.74 0 01-.61-3.314l.226-.105a1.749 1.749 0 012.306.852 1.74 1.74 0 01-.855 2.306l-.223.105c-.263.12-.554.176-.844.156zm9.246-4.258a1.737 1.737 0 01-.61-3.312l.226-.104a1.733 1.733 0 012.303.852 1.73 1.73 0 01-.852 2.306l-.223.102a1.72 1.72 0 01-.844.156zm9.245-4.256a1.736 1.736 0 01-1.618-1.85 1.741 1.741 0 011.008-1.464l.226-.102a1.74 1.74 0 012.303.849c.194.424.213.896.052 1.33a1.707 1.707 0 01-.903.976l-.226.105c-.26.12-.552.176-.842.156z" fill="#054C94"/><path d="M128.851 10.795l-46.886 4.209.266 2.966 46.887-4.21-.267-2.965z" fill="#D9E3E8"/><path d="M155.26 47.704a1.731 1.731 0 01-1.633-1.242l-.071-.238a1.735 1.735 0 011.167-2.161 1.732 1.732 0 012.162 1.167l.071.238a1.734 1.734 0 01-1.165 2.161 1.699 1.699 0 01-.531.075zm-2.915-9.752a1.737 1.737 0 01-1.636-1.241l-.071-.238a1.816 1.816 0 01-.071-.537 1.725 1.725 0 011.238-1.624 1.735 1.735 0 012.165 1.167l.07.238a1.732 1.732 0 01-1.167 2.162c-.171.05-.351.077-.528.073zm-2.918-9.754a1.728 1.728 0 01-1.633-1.238l-.071-.238a1.733 1.733 0 011.695-2.236 1.733 1.733 0 011.634 1.239l.07.237a1.738 1.738 0 01-1.695 2.236z" fill="#054C94"/><path d="M40.406 25.084L53.425 1.64c1.215-2.188 4.36-2.188 5.576 0l13.018 23.443c1.18 2.125-.356 4.737-2.788 4.737H43.194c-2.432 0-3.969-2.612-2.788-4.737z" fill="#FEAE2A"/><path d="M54.127 20.244l-.836-9.25v-.174c0-.443.36-.802.803-.802h4.237c.444 0 .803.359.803.802v.175l-.854 9.25a.766.766 0 01-.763.697H54.89a.767.767 0 01-.763-.698zm-.133 4.362v-1.973c0-.34.276-.616.617-.616h3.184c.34 0 .616.276.616.616v1.973c0 .34-.276.616-.616.616H54.61a.616.616 0 01-.617-.616z" fill="#fff"/></svg>