<svg width="420" height="320" viewBox="0 0 420 320" fill="none" xmlns="http://www.w3.org/2000/svg"><g clip-path="url(#clip0_770_27183)"><path d="M218.519 319.38c-110.167 0-199.475-5.834-199.475-13.031 0-7.196 89.308-13.031 199.475-13.031 110.167 0 199.475 5.835 199.475 13.031 0 7.197-89.308 13.031-199.475 13.031z" fill="#E6F4FF"/><path d="M419.293 217.432l-193.941 63.187-32.401-99.48 69.271-22.561 95.833-31.222 28.837-9.403 2.357 7.237 2.824 8.635 27.22 83.607z" fill="#4EAD4E"/><path d="M224.692 181.377l136.69-44.522c3.111 9.555 13.884 14.61 24.065 11.294l14.895 45.736c-10.179 3.316-15.907 13.749-12.795 23.302l-136.69 44.521c-3.111-9.554-13.886-14.612-24.065-11.296l-14.896-45.735c10.179-3.316 15.907-13.746 12.796-23.3z" fill="#94E086"/><path d="M253.945 225.843c5.089-1.657 7.953-6.873 6.398-11.649-1.556-4.775-6.942-7.304-12.031-5.646-5.089 1.657-7.953 6.873-6.398 11.648 1.556 4.776 6.942 7.305 12.031 5.647zm109.984-35.824c5.089-1.658 7.954-6.873 6.398-11.649-1.555-4.776-6.942-7.304-12.031-5.646-5.089 1.657-7.953 6.872-6.397 11.648 1.555 4.776 6.941 7.304 12.03 5.647zm-47.454 41.071c18.715-6.095 29.249-25.275 23.528-42.84-5.72-17.564-25.529-26.862-44.244-20.767-18.715 6.095-29.248 25.275-23.528 42.84 5.721 17.565 25.53 26.862 44.244 20.767z" fill="#4EAD4E"/><path d="M315.596 191.788c-1.716-.3-3.322-.087-4.82.633-1.261.6-2.625 1.439-4.094 2.523-.282.202-.57.421-.857.648a.553.553 0 00-.158.103l-.14.123c-.123.082-.24.168-.338.255a2.498 2.498 0 01-.313.241c-1.372 1.069-2.454 1.861-3.255 2.377a6.925 6.925 0 01-.644.367 4.678 4.678 0 01-1.683.522c-.749.083-1.418-.203-2.001-.86-.981-1.107-1.311-2.304-.991-3.577.082-.313.196-.635.357-.954.487-.995 1.333-2.032 2.559-3.119a13.846 13.846 0 012.482-1.748c.476-.266.971-.511 1.495-.732 1.529-.654 3.247-1.133 5.157-1.43l-.213-6.049c-1.592.155-3.115.47-4.569.935a21.923 21.923 0 00-4.217 1.873c-.527.302-1.052.638-1.56.994l-2.144-2.417a1.618 1.618 0 00-2.275-.136l-2.826 2.506a1.618 1.618 0 00-.136 2.275l2.235 2.52a13.849 13.849 0 00-1.69 2.608c-.888 1.804-1.175 3.585-.866 5.352.306 1.763 1.221 3.503 2.744 5.219 1.524 1.719 3.06 2.722 4.607 2.995 1.541.279 3.007.097 4.397-.535.962-.438 1.998-1.031 3.1-1.779a28.61 28.61 0 001.519-1.08c.063-.056.128-.115.202-.159.066-.05.134-.099.196-.155.137-.095.285-.199.431-.318.149-.113.283-.233.408-.343a57.754 57.754 0 012.92-2.098c.228-.148.438-.288.637-.407.886-.544 1.757-.845 2.617-.916.867-.067 1.643.29 2.338 1.071 1.037 1.169 1.34 2.471.917 3.892-.221.732-.633 1.494-1.246 2.297-.564.76-1.308 1.537-2.228 2.356a13.767 13.767 0 01-3.178 2.098c-.43.204-.872.393-1.332.561-1.74.656-3.709 1.061-5.91 1.219l.262 6.006a18.693 18.693 0 004.895-.567 19.498 19.498 0 004.649-1.868c.618-.335 1.1-.606 1.465-.809l2.156 2.433a1.619 1.619 0 002.276.136l2.825-2.505a1.62 1.62 0 00.136-2.276l-2.133-2.406c1.117-1.231 1.985-2.443 2.605-3.64.996-1.91 1.359-3.775 1.09-5.588-.268-1.816-1.18-3.593-2.733-5.342-1.708-1.926-3.409-3.032-5.121-3.327l-.006.002z" fill="#6ECB5F"/><path d="M392.074 133.827l-19.571 14.2-39.336 28.562-25.906 18.805-10.361 7.538-5.456 3.947h-29.221V158.58l95.833-31.223 31.194-2.166 2.824 8.636z" fill="#344551" opacity=".3"/><path d="M179.728 142.358l56.569 88.013 171.596-110.29-56.568-88.013-171.597 110.29z" fill="#4EAD4E"/><path d="M210.502 134.548l120.933-77.73c5.433 8.453 17.136 10.612 26.14 4.823l26.009 40.462c-9.007 5.788-11.9 17.334-6.467 25.785l-120.932 77.729c-5.433-8.452-17.136-10.614-26.143-4.824l-26.009-40.462c9.007-5.788 11.903-17.332 6.469-25.785v.002z" fill="#94E086"/><path d="M250.075 170.146c4.502-2.894 5.95-8.665 3.234-12.89-2.715-4.226-8.567-5.305-13.069-2.412-4.502 2.894-5.951 8.665-3.235 12.891 2.716 4.225 8.567 5.305 13.07 2.411zm97.302-62.547c4.503-2.894 5.951-8.665 3.235-12.89-2.716-4.226-8.567-5.305-13.069-2.411-4.503 2.893-5.951 8.664-3.235 12.89 2.716 4.225 8.567 5.305 13.069 2.411zm-35.484 51.76c16.557-10.642 21.883-31.866 11.895-47.406s-31.507-19.51-48.064-8.868c-16.558 10.642-21.883 31.866-11.895 47.406s31.507 19.51 48.064 8.868z" fill="#4EAD4E"/><path d="M303.71 124.054c-1.696-.401-3.311-.284-4.85.344-1.294.525-2.706 1.281-4.239 2.275-.292.186-.594.387-.895.597a.615.615 0 00-.164.094l-.146.116a3.321 3.321 0 00-.353.233c-.109.084-.216.16-.328.221-1.434.986-2.56 1.711-3.391 2.179a7.298 7.298 0 01-.665.329c-.588.259-1.156.398-1.71.419-.754.037-1.404-.288-1.946-.979-.915-1.164-1.172-2.377-.775-3.631.102-.309.233-.623.412-.93.543-.965 1.452-1.949 2.74-2.962a13.761 13.761 0 012.582-1.596c.492-.237 1-.451 1.534-.644 1.564-.561 3.31-.936 5.233-1.12l.146-6.051a21.803 21.803 0 00-4.617.662 21.996 21.996 0 00-4.323 1.618c-.545.27-1.089.573-1.616.9l-1.994-2.54a1.619 1.619 0 00-2.263-.272l-2.97 2.333a1.62 1.62 0 00-.271 2.264l2.081 2.649a13.962 13.962 0 00-1.844 2.503c-.994 1.748-1.388 3.507-1.184 5.291.2 1.776 1.009 3.569 2.428 5.376 1.419 1.805 2.893 2.899 4.421 3.265 1.522.37 2.996.277 4.422-.271.987-.378 2.054-.911 3.201-1.59.514-.299 1.04-.623 1.582-.988.065-.051.135-.107.209-.147.07-.045.14-.092.205-.143.144-.085.297-.182.45-.291.155-.105.297-.217.428-.317a59.534 59.534 0 013.037-1.92c.238-.135.455-.261.66-.368.916-.492 1.804-.739 2.668-.758.869-.014 1.623.387 2.267 1.209.966 1.229 1.192 2.546.684 3.939-.262.718-.723 1.455-1.381 2.219-.61.724-1.397 1.458-2.365 2.219a13.761 13.761 0 01-3.298 1.903c-.44.179-.893.342-1.362.482-1.775.549-3.767.837-5.97.862l-.098 6.013a18.6 18.6 0 004.92-.274 19.681 19.681 0 004.753-1.586c.636-.297 1.133-.538 1.509-.72l2.008 2.557a1.618 1.618 0 002.263.272l2.969-2.333a1.619 1.619 0 00.272-2.264l-1.987-2.529c1.19-1.163 2.127-2.321 2.818-3.479 1.108-1.846 1.582-3.688 1.421-5.513-.159-1.828-.964-3.658-2.407-5.498-1.588-2.023-3.222-3.23-4.914-3.624l.003-.005z" fill="#94E086"/><path d="M123.824 35.872h3.701a4.51 4.51 0 014.51 4.51v31.87a4.51 4.51 0 01-4.51 4.51h-3.701a4.51 4.51 0 01-4.51-4.51v-31.87a4.51 4.51 0 014.51-4.51zm0 45.459h3.701a4.51 4.51 0 014.51 4.51v31.869a4.51 4.51 0 01-4.51 4.51h-3.701a4.51 4.51 0 01-4.51-4.51V85.841a4.51 4.51 0 014.51-4.51z" fill="#20567A"/><path d="M275.978 10.837H146.285c-11.834 0-21.444 9.61-21.444 21.444V285.41c0 11.835 9.61 21.444 21.444 21.444h129.693c11.835 0 21.444-9.609 21.444-21.444V32.28c0-11.834-9.609-21.443-21.444-21.443z" fill="#022446"/><path d="M275.977 300c8.045 0 14.589-6.547 14.589-14.592V32.278c0-8.043-6.546-14.59-14.589-14.59H146.284c-8.046 0-14.59 6.547-14.59 14.59v253.13c0 8.048 6.546 14.592 14.59 14.592h129.693z" fill="#fff"/><path d="M211.133 45.677s-8.176 1.647-25.919 6.22c-16.763 4.321-22.636 6.048-22.636 6.048s-2.764 16.934 4.838 48.209c6.137 25.248 26.266 41.472 43.717 47.486 17.452-6.014 37.579-22.236 43.716-47.486 7.604-31.275 4.838-48.21 4.838-48.21s-5.875-1.728-22.636-6.047c-17.743-4.573-25.918-6.22-25.918-6.22z" fill="#CEE5FD"/><path d="M211.132 144.629c13.684-5.638 30.174-19.047 35.341-40.309 4.657-19.157 5.207-32.599 5.049-39.497-3.558-.965-8.945-2.399-16.622-4.378-12.771-3.291-20.558-5.055-23.768-5.757-3.208.7-10.997 2.463-23.768 5.757a1384.542 1384.542 0 00-16.624 4.378c-.158 6.88.389 20.327 5.051 39.497 5.167 21.262 21.659 34.671 35.341 40.309z" fill="#fff"/><path d="M210.671 114.836c-11.48 0-20.787-9.307-20.787-20.787 0-11.48 9.307-20.786 20.787-20.786 11.48 0 20.786 9.306 20.786 20.786 0 11.48-9.306 20.787-20.786 20.787z" fill="#54C255"/><path d="M206.894 105.807c-.477 0-.954-.174-1.33-.524l-8.372-7.802a1.952 1.952 0 012.661-2.854l6.995 6.52 15.509-15.509a1.954 1.954 0 012.76 0c.76.763.76 1.997 0 2.76l-16.842 16.841c-.38.381-.88.572-1.379.572l-.002-.004z" fill="#fff"/><path d="M183.33 221.311h54.678c6.291 0 11.39 5.099 11.39 11.389 0 6.29-5.099 11.389-11.39 11.389H183.33c-6.291 0-11.391-5.099-11.391-11.389 0-6.29 5.1-11.389 11.391-11.389z" fill="#9CCCFC"/><path d="M203.396 226.942c-.779-.834-2.004-1.252-3.644-1.252h-5.731v14.019h2.531v-5.564h3.506c1.306 0 2.392-.389 3.254-1.196.862-.778 1.28-1.807 1.28-3.087 0-1.141-.389-2.113-1.196-2.92zm-2.059 4.479c-.417.36-1.029.556-1.807.556h-2.978v-4.2h2.754c1.002 0 1.697.222 2.058.612.389.417.585.916.585 1.501 0 .64-.222 1.142-.612 1.531zm10.653-5.731h-3.115l-4.645 14.019h2.171l1.084-3.338h5.396l1.113 3.338h2.698l-4.702-14.019zm-3.867 8.651l2.031-6.258 2.059 6.258h-4.09zm16.773-8.651l-3.2 5.786-3.309-5.786h-3.059l4.756 8.095v5.924h2.698v-5.924l4.535-8.095h-2.421z" fill="#fff"/><path d="M168.346 172.123h85.567c7.952 0 14.388 6.465 14.388 14.416 0 7.952-6.436 14.388-14.388 14.388h-85.567c-7.951 0-14.387-6.465-14.387-14.388s6.436-14.416 14.387-14.416zm0 25.745h85.567c6.261 0 11.358-5.068 11.358-11.329 0-6.26-5.097-11.357-11.358-11.357h-85.567c-6.26 0-11.357 5.097-11.357 11.357 0 6.261 5.097 11.329 11.357 11.329z" fill="#CEE5FD"/><path d="M236.437 186.057l.774-2.382 4.101 1.328v-4.31h2.507v4.31l4.101-1.328.771 2.382-4.092 1.336 2.531 3.488-2.034 1.484-2.531-3.487-2.531 3.487-2.034-1.484 2.531-3.488-4.094-1.336zm-15.717 0l.772-2.382 4.101 1.328v-4.31h2.507v4.31l4.101-1.328.774 2.382-4.095 1.336 2.531 3.488-2.034 1.484-2.531-3.487-2.531 3.487-2.034-1.484 2.531-3.488-4.092-1.336zm-15.717 0l.772-2.382 4.101 1.328v-4.31h2.507v4.31l4.101-1.328.774 2.382-4.095 1.336 2.534 3.488-2.037 1.484-2.531-3.487-2.531 3.487-2.034-1.484 2.531-3.488-4.092-1.336zm-15.719 0l.772-2.382 4.101 1.328v-4.31h2.509v4.31l4.099-1.328.774 2.382-4.094 1.336 2.533 3.488-2.034 1.484-2.533-3.487-2.531 3.487-2.034-1.484 2.531-3.488-4.093-1.336zm-15.716 0l.771-2.382 4.101 1.328v-4.31h2.509v4.31l4.099-1.328.774 2.382-4.094 1.336 2.533 3.488-2.034 1.484-2.533-3.487-2.531 3.487-2.034-1.484 2.531-3.488-4.092-1.336z" fill="#CEE5FD"/><path d="M376.172 210.195h-139.04a6.047 6.047 0 00-6.044 6.045v85.065a6.047 6.047 0 006.044 6.045h139.04a6.048 6.048 0 006.045-6.045V216.24a6.048 6.048 0 00-6.045-6.045z" fill="#2B5F89" opacity=".19"/><path d="M242.675 210.004h138.9a6.04 6.04 0 016.038 6.038v84.978a6.041 6.041 0 01-6.038 6.039h-138.9a6.041 6.041 0 01-6.038-6.039v-84.978a6.04 6.04 0 016.038-6.038z" fill="#FEAE2A"/><path d="M275.836 275.484H248.65v6.795h27.186v-6.795zm19.661 12.582H248.65v9.185h46.847v-9.185zm13.591-12.582h-27.186v6.795h27.186v-6.795zm33.254 0h-27.186v6.795h27.186v-6.795zm33.256 0h-27.186v6.795h27.186v-6.795zm-98.259-49.566h-19.402a4.566 4.566 0 00-4.566 4.566v10.901a4.566 4.566 0 004.566 4.566h19.402a4.566 4.566 0 004.566-4.566v-10.901a4.566 4.566 0 00-4.566-4.566z" fill="#fff"/><g clip-path="url(#clip1_770_27183)"><path d="M91.08 62.632l-47.473-.317-40.831-.423-.177 6.202c14.191 5.486 25.33 7.144 39.465 8.198 14.318 4.759 33.276 7.906 47.943 8.937 12.894.613 13.967-21.982 1.072-22.597z" fill="#F7A594"/><path d="M70.033 61.283c5.7-.11 22.565-1.896 33.075-.657 9.511 3.91 7.151 20.514 2.795 23.126.013.468-18.45 5.626-37.132.14-2.81-3.297-1.86-19.322 1.264-22.608h-.002z" fill="#112E59"/><path d="M66.251 84.547c2.96 1.054 5.743 1.724 7.821.872 1.232.06 2.606-24.815 1.372-24.872l-7.772-.372c-2.466-.117-3.89 24.255-1.423 24.372h.002z" fill="#1D498C"/><path d="M7.494 62.008c-1.382-6.402-3.59-15.504-6.273-15.634-.578-.027-.662.347-.635 2.051C1.92 59.805-1.149 62.89.335 66.107c1.63 3.117 6.123 3.055 6.123 3.055 2.52-1.13 2.723-5.343 1.036-7.154z" fill="#F7A594"/><path d="M4.297 60.624L1.499 52.36s-1.825.32-1.442 2.505c.384 2.185.85 4.537.85 4.537S-1.28 64.131.46 66.09c1.74 1.959 4.74.045 3.833-5.465h.003z" fill="#F7A594"/><path d="M.076 65.745l.212-.068c-.954-2.985.7-6.187.717-6.219l.017-.035-.008-.04c-.004-.022-.47-2.374-.848-4.535-.152-.864.03-1.527.54-1.968.274-.237.572-.344.72-.387l2.765 8.168.211-.072-2.827-8.355-.095.018a2.08 2.08 0 00-.919.458c-.395.342-.821.995-.614 2.176.353 2.01.781 4.188.843 4.5-.181.366-1.64 3.456-.714 6.356v.003zm5.446-9.057l.216-.055c-.1-.394-2.454-9.646-4.478-10.364l-.075.212c1.912.678 4.312 10.112 4.337 10.21v-.003z" fill="#D97B69"/><path d="M150.205 307.594h-21.841c-.438-.257-.757-.548-.936-.877-.349-16.262-1.593-24.091-1.593-24.091l15.242-.62 2.865 12.097c4.928 3.486 10.646 10.967 6.265 13.491h-.002z" fill="#231F20"/><path d="M126.692 307.889h25.896c.657 0 .607-3.606-.048-3.606l-25.746.145c-.675 0-.774 3.458-.1 3.458l-.002.003z" fill="#231F20"/><path d="M129.374 136.979c1.546 12.037 8.155 41.771 7.443 74.468 7.157 41.672 7.946 50.85 8.812 76.552l-21.831.817c-3.495-17.948-10.666-46.279-13.912-73.92-7.055-21.781-11.68-52.823-13.95-77.469-2.29-21.242 27.71-29.831 33.441-.448h-.003z" fill="#112E59"/><path d="M134.957 289.015l.445-.005c-.039-2.963-8.911-103.182-17.922-143.81l-.436.097c9.006 40.606 17.873 140.757 17.913 143.72v-.002z" fill="#231F20"/><path d="M107.435 138.445c-3.076 41.46-12.142 76.676-12.142 76.676 1.775 28.286-3.236 55.447-6.8 74.025l-20.769-.187c-1.202-18.19 1.367-116.649 6.741-150.041 2.562-29.525 36.677-31.105 32.973-.473h-.003z" fill="#112E59"/><path d="M84.558 289.147c.929 6.7 1.576 11.928.762 17.99l-33.966.661s-3.2-3.275 1.255-8.186c4.458-4.911 12.342-2.07 17.945-10.652l14.002.187h.002z" fill="#231F20"/><path d="M49.81 307.888h36.053c.657 0 .657-3.606 0-3.606l-35.908.145c-.674 0-.821 3.458-.147 3.458l.003.003zm29.626-162.347l.445.022-7.12 143.177-.446-.023 7.12-143.176z" fill="#231F20"/><path d="M74.537 133.732l53.987 4.116c-.491-33.836 14.774-57.2 11.595-65.915-4.366-11.97-36.186-12.055-48.304-7.388-4.812 1.854-12.638 12.574-13.562 26.06-.258 6.273-.32 10.577.29 15.595.609 5.019-4.006 27.529-4.006 27.529v.003z" fill="#112E59"/><path d="M106.802 71.289c2.51-1.996 12.521-5.073 15.182-7.256l-.6-17.395-9.842-.96c-2.855.237-5.71.923-8.165 1.892l-2.215 11.455-.488 2.484c-1.115 2.444 1.093 5.392 6.131 9.78h-.003z" fill="#F7A594"/><path d="M118.074 50.574c-1.543 2.38-8.008 8.47-16.909 8.45l1.916-9.91 14.993 1.46z" fill="#E6836F"/><path d="M96.291 27.663c-.771 3.427-2.362 10.952-2.1 14.415.395 5.275 5.317 11.126 9.611 11.896 4.968.506 11.667-.974 15.306-4.102 2.024-2.374 5.942-8.008 7.744-12.94 3.761-10.285-3.5-19.303-12.71-21.386-9.21-2.083-15.443 1.435-17.848 12.117h-.002z" fill="#F7A594"/><path d="M123.764 43.725c1.922-3.383-.632-4.754-3.43-2.128.478-2.554 3.388-10.036.812-12.516-2.91-2.878-15.715-1.627-22.593-8.806 0 0 5.128-11.252 21.955-4.607 19.006 10.087 3.256 28.057 3.256 28.057z" fill="#4D261C"/><path d="M121.382 40.51c-1.453 1.772-1.516 4.122-.137 5.248 1.379 1.127 3.677.606 5.131-1.166 1.453-1.771 1.516-4.121.137-5.248-1.379-1.126-3.677-.605-5.131 1.167z" fill="#F7A594"/><path d="M98.396 20.742c2.138-.655 27.606 9.476 26.939 11.37 0 0-18.441.085-31.118-5.693-6.92-3.155 4.182-5.677 4.182-5.677h-.003z" fill="#112E59"/><path d="M129.173 33.74L98.237 20.686l1.058-4.385 32.773 13.535c-.649 1.508-1.769 3.142-2.895 3.902z" fill="#1D498C"/><path d="M132.959 30.811c3.385 1.291 5.198-.777 1.78-4.714-5.272-6.072-8.874-21.608-16.705-24.424-5.397-1.941-9.482 4.385-16.646 8.315-3.249 1.782-5.068 3.645-3.851 5.836 3.702 2.775 31.877 13.637 35.42 14.99l.002-.003z" fill="#112E59"/><path d="M111.479 7.526l.065-.174a8.368 8.368 0 002.287 0 6.632 6.632 0 002.007-.598s.002.005.005.007c.124.3.281.6.468.897.249.394.552.778.896 1.14.172.181.351.36.542.527.287.252.595.486.919.698l-.388 1.034c-.058.15-.12.322-.195.516-.037.097-.074.2-.117.309l-.438 1.166a5.062 5.062 0 01-1.282 1.926c-.393.369-.824.66-1.257.892a7.88 7.88 0 01-2.905.857 8.298 8.298 0 01-1.232-1.716 7.625 7.625 0 01-.204-.409c-.52-1.131-.844-2.614-.239-4.221l1.07-2.853-.002.002z" fill="#F7BD0C"/><path d="M111.647 10.883a2.467 2.467 0 001.463 3.167 2.47 2.47 0 003.174-1.453 2.466 2.466 0 00-1.464-3.167 2.469 2.469 0 00-3.173 1.453z" fill="#fff"/><path d="M107.031 66.475l-1.628 3.413-.249-3.625-2.193 5.828c.548-.967 2.407-1.817 2.407-1.817s2.026.932 3.007 3.145l-1.342-6.944h-.002z" fill="#231F20"/><path d="M121.87 59.847c-2.43 3.137-10.333 5.285-14.839 6.63l1.342 6.945c5.414-1.83 12.411-3.907 15.55-10.39.71-1.765-.137-2.744-2.053-3.185zm-20.738-1.098c.241 1.141.425 5.619 4.022 7.513l-2.193 5.828c-4.958-2.84-5.22-5.472-4.456-9.598.312-1.642.862-3.402 2.627-3.743z" fill="#1D498C"/><path d="M96.836 136.834a.225.225 0 00.222-.2c.555-5.155 1.005-11.305 1.48-17.816 1.297-17.736 2.769-37.842 7.035-48.457a.225.225 0 00-.124-.292.227.227 0 00-.292.125c-4.291 10.68-5.765 30.82-7.064 48.589-.475 6.506-.926 12.653-1.479 17.801a.226.226 0 00.2.247h.024l-.002.003z" fill="#231F20"/><path d="M128.511 132.31c-10.555 2.831-51.93 1.749-53.579.486-2.516-.566-3.084 8.495-1.623 10.677 2.233 3.337 55.386 2.806 57.069.404 1.683-2.4 1.113-12.367-1.867-11.567z" fill="#231F20"/><path d="M87.637 83.303c.013-.102.018-.154.02-.179a7.974 7.974 0 002.158-.538c.67-.272 1.275-.626 1.755-1.034a5.746 5.746 0 00.657.745c.326.314.705.605 1.113.867a7.602 7.602 0 001.668.817l-.125 1.07c-.017.154-.037.33-.062.532-.012.1-.025.207-.037.32l-.14 1.203a4.923 4.923 0 01-.761 2.118 5.76 5.76 0 01-.979 1.136c-.353.32-.721.58-1.067.79a7.82 7.82 0 01-1.16.583 4.666 4.666 0 01-.312.115 8.174 8.174 0 01-1.565-1.333 7.687 7.687 0 01-.287-.337c-.756-.947-1.409-2.27-1.214-3.93.216-1.866.306-2.636.343-2.945h-.005z" fill="#F7BD0C"/><path d="M85.042 93.499l10.403 1.014-.185 1.91-10.404-1.014.186-1.91z" fill="#1D498C"/><path d="M96.525 167.449h3.194l-.065-.274c-1.434-6.072-1.63-20.843-1.633-20.99l-.445.005c0 .147.194 14.536 1.58 20.813h-2.268c-.293-1.487-2.282-11.95-1.78-20.44l-.445-.027c-.543 9.175 1.8 20.622 1.825 20.736l.037.177z" fill="#231F20"/><path d="M148.672 98.898s4.201 23.804-.08 32.199c-4.426 8.676-45.292 10.562-45.292 10.562l-1.466-12.312 28.161-7.151-6.116-18.232 24.793-5.069v.003z" fill="#F7A594"/><path d="M138.077 68.284s11.871 14.5 12.349 35.268c-15.473 11.293-25.669 3.157-25.669 3.157s-7.846-20.759-6.107-30.86c1.74-10.102 15.912-11.233 19.427-7.565z" fill="#112E59"/><path d="M149.899 97.33c-2.096 2.551-26.142 7.532-26.64 4.729-.67 2.679-.525 5.288 1.63 7.724.613 3.893 26.685-.206 26.073-4.098 1.516-2.41 1.16-5.196-1.063-8.358v.003z" fill="#1D498C"/><path d="M123.26 102.283a.224.224 0 00.192-.337c-1.735-2.942-3.192-6.92-3.996-10.909a.222.222 0 00-.263-.174.223.223 0 00-.175.264c.812 4.037 2.288 8.066 4.048 11.049a.227.227 0 00.191.109l.003-.002z" fill="#231F20"/><path d="M77.5 81.197c9.972 9.342 25.832 16.955 42.765 20.138l.401 32.1c.427 34.092-36.062 50.964-41.728 53.553-5.523-2.214-42.723-18.631-43.147-52.722l-.401-32.1c16.85-3.515 32.374-11.434 42.112-20.969h-.003z" fill="#E9F3FF"/><path d="M77.573 87.678c9.852 7.752 23.466 13.813 38.41 17.072l.365 28.61c.166 13.091-5.727 24.968-17.518 35.304-7.746 6.79-15.916 11.021-20.06 12.926a32.99 32.99 0 01-.57-.253l-.71-93.595c.028-.022.058-.044.085-.068l-.002.004z" fill="#076ED7"/><path d="M77.875 87.674l.695 93.916c-4.25-1.938-11.98-5.952-19.399-12.329-11.797-10.141-17.863-21.942-18.025-35.078l-.358-28.708c14.505-3.549 27.644-9.864 37.087-17.799v-.002z" fill="#076ED7"/><path d="M95.676 127.614l.168 23.811c.017 2.65-34.357 2.863-34.377.212l-.167-23.81 34.376-.213zm-18.84 12.762l.048 6.749c.007.9.789 1.64 1.743 1.635.971-.007 1.74-.758 1.735-1.656l-.047-6.764c1.468-.633 2.494-2.041 2.482-3.657-.015-2.208-1.938-3.98-4.283-3.964-2.344.015-4.224 1.81-4.21 4.019.013 1.63 1.042 3.026 2.532 3.64v-.002zm-13.369-13.842l3.577-.022-.01-1.611c-.042-5.582 4.859-10.153 10.919-10.188 6.063-.036 11.025 4.473 11.066 10.055l.01 1.612 3.577-.022-.01-1.611c-.055-7.398-6.633-13.373-14.666-13.326-8.033.05-14.524 6.106-14.47 13.501l.012 1.612h-.005z" fill="#fff"/></g></g><defs><clipPath id="clip0_770_27183"><path fill="#fff" transform="matrix(-1 0 0 1 420 .62)" d="M0 0h420v318.759H0z"/></clipPath><clipPath id="clip1_770_27183"><path fill="#fff" transform="matrix(-1 0 0 1 153.057 1.313)" d="M0 0h153.288v306.576H0z"/></clipPath></defs></svg>