<svg width="300" height="300" viewBox="0 0 300 300" fill="none" xmlns="http://www.w3.org/2000/svg"><path d="M218 187c10.493 0 19-8.507 19-19s-8.507-19-19-19-19 8.507-19 19 8.507 19 19 19zM61.672 132c26.233 0 47.5-21.266 47.5-47.5 0-26.233-21.267-47.5-47.5-47.5-26.234 0-47.5 21.267-47.5 47.5 0 26.234 21.266 47.5 47.5 47.5z" fill="#E6EDFF"/><path d="M201.209 8.72H79.467c-11.109 0-20.13 9.02-20.13 20.13v237.611c0 11.109 9.021 20.129 20.13 20.129H201.21c11.109 0 20.129-9.02 20.129-20.129V28.85c0-11.11-9.02-20.13-20.129-20.13z" fill="#022446"/><path d="M201.209 280.156c7.552 0 13.695-6.145 13.695-13.698V28.848c0-7.55-6.145-13.696-13.695-13.696H79.467c-7.552 0-13.695 6.145-13.695 13.696v237.61c0 7.555 6.145 13.698 13.695 13.698H201.21z" fill="#fff"/><path d="M95.332 52.356c6.966-2.885 10.274-10.871 7.389-17.837-2.886-6.966-10.872-10.275-17.838-7.39-6.966 2.886-10.274 10.873-7.389 17.839 2.886 6.966 10.872 10.274 17.838 7.388z" fill="#FEBE55"/><path d="M90.998 39.585a2.995 2.995 0 002.116-2.852 3.004 3.004 0 00-3.005-3.005 3.004 3.004 0 00-3.006 3.005c0 1.344.895 2.471 2.116 2.852a6.544 6.544 0 00-5.541 5.324H96.54a6.527 6.527 0 00-5.542-5.324z" fill="#fff"/><path d="M184.129 33.134H114.15v5.862h69.979v-5.862zM204 45.424h-89.85v2.931H204v-2.931z" fill="#E9F3FF"/><path d="M189.208 61.412H92.705c-8.169 0-14.79 6.7-14.79 14.964v56.638c0 8.264 6.621 14.964 14.79 14.964h96.503c8.169 0 14.791-6.7 14.791-14.964V76.376c0-8.264-6.622-14.964-14.791-14.964z" fill="#54C255"/><path d="M167.941 114.823l-12.313-23.174c-3.09-5.815-8.148-5.815-11.237 0l-10.585 19.92-4.582-8.623c-2.056-3.867-5.419-3.867-7.475 0l-8.193 15.417c-2.056 3.867-.146 7.033 4.246 7.033h43.758c6.601 0 9.471-4.759 6.381-10.573z" fill="#fff"/><path d="M130.724 95.757c2.534 0 4.587-2.211 4.587-4.94 0-2.73-2.053-4.94-4.587-4.94s-4.587 2.21-4.587 4.94c0 2.729 2.053 4.94 4.587 4.94z" fill="#fff"/><path d="M198.91 159.997a2.403 2.403 0 012.397 2.397v21.542a2.402 2.402 0 01-2.397 2.397H89.14c-1.32 0-3.144.781-4.058 1.73l-5.64 5.883c-.914.954-1.66.652-1.66-.668v-30.884a2.403 2.403 0 012.397-2.397h118.736-.005z" fill="#E9F3FF"/><path d="M95.445 180.869a8.221 8.221 0 10-6.292-15.187 8.221 8.221 0 006.292 15.187z" fill="#1E8BFA"/><path d="M92.834 173.183a1.8 1.8 0 001.27-1.721 1.81 1.81 0 00-3.618 0c0 .811.539 1.488 1.27 1.721a3.94 3.94 0 00-3.336 3.208h7.746a3.94 3.94 0 00-3.337-3.208h.005z" fill="#fff"/><path d="M184.44 168.948h-79.77v3.332h79.77v-3.332zm10.588 6.987H104.67v1.665h90.358v-1.665z" fill="#9CCCFC"/><path d="M198.91 198.604a2.403 2.403 0 012.397 2.398v21.541a2.403 2.403 0 01-2.397 2.398H89.14c-1.32 0-3.144.781-4.058 1.73l-5.64 5.882c-.914.954-1.66.652-1.66-.667v-30.884a2.403 2.403 0 012.397-2.398h118.736-.005z" fill="#E9F3FF"/><path d="M95.445 219.472a8.22 8.22 0 10-6.292-15.19 8.22 8.22 0 006.292 15.19z" fill="#E95858"/><path d="M92.832 211.787a1.798 1.798 0 001.27-1.72 1.81 1.81 0 00-3.618 0 1.81 1.81 0 001.27 1.72 3.94 3.94 0 00-3.336 3.208h7.746a3.94 3.94 0 00-3.337-3.208h.005z" fill="#fff"/><path d="M184.44 207.56h-79.77v3.331h79.77v-3.331zm10.588 6.977H104.67v1.666h90.358v-1.666z" fill="#9CCCFC"/><path d="M198.91 237.213a2.402 2.402 0 012.397 2.397v21.542a2.402 2.402 0 01-2.397 2.397H89.14c-1.32 0-3.144.781-4.058 1.73l-5.64 5.882c-.914.954-1.66.653-1.66-.667V239.61a2.402 2.402 0 012.397-2.397h118.736-.005z" fill="#E9F3FF"/><path d="M95.447 258.083a8.22 8.22 0 10-6.292-15.187 8.22 8.22 0 006.291 15.187z" fill="#F29554"/><path d="M92.83 250.396a1.798 1.798 0 001.27-1.72 1.81 1.81 0 00-3.618 0 1.81 1.81 0 001.27 1.72 3.942 3.942 0 00-3.336 3.208h7.746a3.942 3.942 0 00-3.337-3.208h.005z" fill="#fff"/><path d="M184.44 246.166h-79.77v3.332h79.77v-3.332zm10.588 6.978H104.67v1.665h90.358v-1.665z" fill="#9CCCFC"/><path d="M227.01 194c9.949 9.32 25.772 16.914 42.664 20.09l.4 32.024c.426 34.01-35.976 50.842-41.628 53.424-5.511-2.208-42.621-18.586-43.044-52.596l-.401-32.023c16.81-3.506 32.297-11.407 42.012-20.919h-.003z" fill="#E9F3FF"/><path d="M227.083 200.465c9.829 7.734 23.41 13.78 38.319 17.031l.364 28.542c.166 13.06-5.713 24.909-17.476 35.22-7.728 6.774-15.878 10.995-20.013 12.895a29.392 29.392 0 01-.568-.252L227 200.529c.028-.022.058-.044.086-.068l-.003.004z" fill="#076ED7"/><path d="M227.384 200.461l.694 93.692c-4.24-1.933-11.952-5.937-19.353-12.299-11.769-10.117-17.82-21.89-17.983-34.995l-.356-28.64c14.47-3.539 27.578-9.84 36.998-17.756v-.002z" fill="#076ED7"/><path d="M245.142 240.307l.167 23.753c.017 2.645-34.275 2.857-34.295.212l-.167-23.753 34.295-.212zm-18.795 12.731l.047 6.733c.007.898.787 1.636 1.739 1.631.969-.007 1.736-.757 1.731-1.652l-.047-6.748c1.464-.631 2.488-2.036 2.476-3.648-.015-2.203-1.933-3.971-4.272-3.954-2.34.014-4.215 1.805-4.2 4.008.012 1.627 1.038 3.019 2.526 3.632v-.002zm-13.338-13.809l3.568-.021-.01-1.608c-.041-5.568 4.848-10.128 10.893-10.164 6.049-.035 10.999 4.463 11.04 10.032l.01 1.607 3.568-.021-.01-1.608c-.054-7.379-6.617-13.341-14.631-13.293-8.014.049-14.489 6.091-14.435 13.469l.012 1.607h-.005z" fill="#fff"/></svg>