<svg width="300" height="300" viewBox="0 0 300 300" fill="none" xmlns="http://www.w3.org/2000/svg"><g clip-path="url(#clip0_770_27324)"><path d="M103.529 225.693C46.355 225.693.006 179.199.006 121.846.006 64.494 46.355 18 103.53 18c57.173 0 103.522 46.494 103.522 103.846 0 57.353-46.349 103.847-103.522 103.847z" fill="#E9F3FF"/><path d="M43.72 113.143l223.188 17.423-11.731 151.207L31.989 264.35l11.73-151.207z" fill="#9CCCFC"/><path d="M45.35 92.104l223.189 17.423-1.632 21.037L43.718 113.14l1.632-21.036z" fill="#435E6D"/><path d="M253.451 116.191l3.177.248c.624.049 1.09.596 1.042 1.222l-.247 3.186a1.135 1.135 0 01-1.218 1.046l-3.177-.248a1.136 1.136 0 01-1.042-1.222l.247-3.186a1.135 1.135 0 011.218-1.046zm-11.65-.91l3.176.248a1.136 1.136 0 011.042 1.222l-.247 3.186a1.135 1.135 0 01-1.218 1.046l-3.176-.248a1.137 1.137 0 01-1.043-1.222l.248-3.187a1.134 1.134 0 011.218-1.045zm-11.654-.912l3.176.248a1.136 1.136 0 011.042 1.222l-.247 3.186a1.136 1.136 0 01-1.218 1.046l-3.177-.248a1.137 1.137 0 01-1.042-1.222l.247-3.187a1.135 1.135 0 011.219-1.045z" fill="#E9F3FF"/><path opacity=".3" d="M59.7 125.063l189.579 14.8-.403 5.201-189.579-14.8.404-5.201zm132.732 27.721l55.509 4.333-8.446 108.87-55.509-4.334 8.446-108.869zm-67.035-5.231l55.509 4.334-8.446 108.869-55.509-4.333 8.446-108.87zm-67.036-5.236l55.51 4.333-8.446 108.87-55.51-4.334 8.447-108.869z" fill="#E9F3FF"/><path d="M268.436 205.387c-17.434 0-31.567-14.177-31.567-31.666s14.133-31.666 31.567-31.666c17.435 0 31.568 14.177 31.568 31.666s-14.133 31.666-31.568 31.666z" fill="#1D366D" opacity=".2"/><path d="M243.545 192.143c-12.328-12.366-12.328-32.416 0-44.782 12.328-12.367 32.315-12.367 44.643-.001 12.328 12.367 12.328 32.417 0 44.783-12.328 12.367-32.315 12.367-44.643 0z" fill="#FEAE2A"/><path d="M258.421 183.317a1 1 0 01-1.414-.074l-8.888-9.899a1.001 1.001 0 01.074-1.411l2.908-2.627a1 1 0 011.415.073l4.928 5.488a1 1 0 001.414.074l20.38-18.413a1 1 0 011.414.074l2.621 2.919a1 1 0 01-.074 1.41l-24.778 22.386z" fill="#fff"/><path d="M74.151 67.036l137.408-11.89 15.57 181.07-137.408 11.89-15.57-181.07z" fill="#2A65BA" opacity=".25"/><path d="M63.859 64.247l136.973-16.165 21.169 180.497-136.973 16.166-21.17-180.498z" fill="#fff"/><path d="M110.31 149.461l63.099-7.443a2.27 2.27 0 001.985-2.522l-2.81-23.977a2.265 2.265 0 00-2.514-1.991l-63.099 7.442a2.27 2.27 0 00-1.985 2.522l2.81 23.977a2.267 2.267 0 002.514 1.992z" fill="#E9F3FF"/><path d="M101.186 178.434l87.557-10.333a2.563 2.563 0 012.843 2.252l2.878 24.539a2.567 2.567 0 01-2.245 2.853l-87.556 10.333a2.563 2.563 0 01-2.844-2.252l-2.878-24.539a2.569 2.569 0 012.245-2.853z" fill="#33B635"/><path d="M124.097 197.051l-2.644.31-.602-5.187c-.163-1.399-.754-2.04-1.772-1.92-.51.06-.907.304-1.193.733-.286.428-.393.953-.322 1.573l.603 5.187-2.653.311-1.565-13.478 2.653-.311.666 5.739.033-.004c.572-1.141 1.447-1.78 2.624-1.919 2.059-.241 3.233.884 3.522 3.376l.649 5.591.001-.001zm7.608-.997c-.374.266-.966.447-1.776.542-1.928.226-3.01-.676-3.246-2.707l-.499-4.298-1.495.175-.23-1.984 1.495-.176-.233-2.001 2.549-1.066.32 2.758 2.07-.243.231 1.984-2.07.243.445 3.837c.113.971.553 1.412 1.319 1.322.296-.035.592-.158.89-.371l.23 1.985zm6.961-.815c-.374.266-.966.447-1.776.542-1.928.227-3.01-.675-3.246-2.707l-.499-4.298-1.495.176-.23-1.985 1.495-.175-.233-2.001 2.549-1.067.32 2.758 2.07-.243.231 1.985-2.07.243.445 3.836c.113.971.553 1.413 1.319 1.323.296-.035.592-.159.89-.371l.23 1.984zm4.152-1.49l.613 5.285-2.652.312-1.544-13.298 2.652-.311.162 1.391.032-.004c.571-1.157 1.492-1.81 2.761-1.959 1.155-.136 2.106.163 2.852.897.746.732 1.199 1.797 1.361 3.19.176 1.521-.06 2.783-.709 3.789-.649 1.005-1.587 1.58-2.814 1.724-1.111.13-2.006-.21-2.682-1.021l-.033.004.001.001zm-.381-2.927c.075.648.311 1.157.71 1.528.398.37.877.523 1.435.457.663-.078 1.148-.396 1.458-.955.311-.559.41-1.311.3-2.255-.194-1.669-.939-2.427-2.237-2.275a1.838 1.838 0 00-1.394.865c-.327.505-.448 1.121-.364 1.846l.092.79v-.001zm8.529.605c.973.448 1.895.621 2.765.519 1.095-.129 1.609-.487 1.541-1.074-.048-.417-.54-.712-1.476-.886-1.169-.22-1.989-.519-2.461-.901-.472-.381-.75-.939-.835-1.675-.104-.895.175-1.639.839-2.231.664-.592 1.582-.957 2.753-1.095a7.843 7.843 0 012.45.089l.243 2.091a4.53 4.53 0 00-2.405-.352c-.422.049-.753.165-.993.346-.239.181-.345.395-.317.642.049.417.471.711 1.268.878.853.178 1.499.355 1.939.532.44.177.789.436 1.048.778s.416.755.472 1.238c.109.939-.181 1.711-.871 2.318s-1.662.983-2.916 1.131a7.838 7.838 0 01-2.79-.149l-.255-2.199h.001zm7.529-6.327c-.048-.407.069-.76.351-1.06.281-.3.638-.476 1.072-.527.433-.051.822.037 1.155.265.332.229.521.546.568.952.048.407-.061.783-.332 1.079-.271.296-.636.471-1.097.525-.46.054-.822-.04-1.151-.274a1.311 1.311 0 01-.565-.96h-.001zm.769 6.628a1.28 1.28 0 01.351-1.068 1.688 1.688 0 011.071-.526c.434-.051.824.039 1.157.273.332.234.522.55.568.952.049.423-.062.782-.332 1.078-.271.297-.636.472-1.097.526a1.607 1.607 0 01-1.143-.275 1.302 1.302 0 01-.574-.96h-.001zm10.789-12.989l-4.458 15.596-2.374.279 4.434-15.593 2.398-.282zm7.949-.929l-4.458 15.595-2.374.279 4.434-15.593 2.398-.281z" opacity=".8" fill="#fff"/><path d="M139.495 123.861c-7.534.864-14.363-4.582-15.224-12.139l-1.493-13.095c-.861-7.557 4.568-14.408 12.101-15.272 7.533-.863 14.363 4.582 15.224 12.139l1.492 13.095c.861 7.557-4.567 14.408-12.1 15.272zm-4.068-35.697c-4.89.56-8.414 5.008-7.855 9.913l1.493 13.096c.558 4.905 4.992 8.44 9.882 7.879 4.889-.561 8.413-5.008 7.854-9.913l-1.492-13.095c-.559-4.905-4.992-8.44-9.882-7.88z" fill="#435E6D"/><path d="M120.945 105.47l32.485-3.725a2.154 2.154 0 012.382 1.898l2.202 19.332c.497 4.359-2.627 8.301-6.972 8.8l-21.016 2.409c-4.345.498-8.276-2.635-8.772-6.994l-2.203-19.332a2.157 2.157 0 011.893-2.388h.001z" fill="#076ED7"/><path d="M141.679 116.406a3.014 3.014 0 00-3.335-2.659 3.018 3.018 0 00-2.65 3.345 3.015 3.015 0 002.24 2.579l.253 2.218a1.083 1.083 0 001.193.952 1.085 1.085 0 00.949-1.197l-.253-2.218a3.024 3.024 0 001.602-3.02h.001z" fill="#fff"/><path d="M284.5 230c-4.971 0-9 4.042-9 9.028 0 4.987 4.029 9.029 9 9.029s9-4.042 9-9.029c0-4.986-4.029-9.028-9-9.028z" fill="#E9F3FF"/></g><defs><clipPath id="clip0_770_27324"><path fill="#fff" transform="matrix(-1 0 0 1 300 0)" d="M0 0h300v300H0z"/></clipPath></defs></svg>