<?xml version="1.0" encoding="utf-8"?>
<!-- Generator: Adobe Illustrator 26.3.1, SVG Export Plug-In . SVG Version: 6.00 Build 0)  -->
<svg version="1.1" id="栝鍣_1" xmlns="http://www.w3.org/2000/svg" xmlns:xlink="http://www.w3.org/1999/xlink" x="0px" y="0px"
	 viewBox="0 0 325 663" style="enable-background:new 0 0 325 663;" xml:space="preserve">
<style type="text/css">
	.st0{fill:#E2E8ED;}
</style>
<g>
	<path class="st0" d="M170.4,260H165c-12,0-21.8-9.8-21.8-21.8s9.8-21.8,21.8-21.8h2.4c12,0,21.8,9.8,21.8,21.8c0,1.7,1.3,3,3,3
		c1.7,0,3-1.3,3-3c0-14.7-11.5-26.8-26-27.7v-13.8c0-1.7-1.3-3-3-3s-3,1.3-3,3v13.8c-14.5,0.9-26,13-26,27.7
		c0,15.3,12.5,27.8,27.8,27.8h5.4c13.7,0,24.8,11.1,24.8,24.8c0,13.7-11.1,24.8-24.8,24.8H162c-13.7,0-24.8-11.1-24.8-24.8
		c0-1.7-1.3-3-3-3c-1.7,0-3,1.3-3,3c0,17,13.8,30.8,30.8,30.8h1.2v13.7c0,1.7,1.3,3,3,3s3-1.3,3-3v-13.7h1.2
		c17,0,30.8-13.8,30.8-30.8C201.2,273.9,187.4,260,170.4,260z"/>
	<circle class="st0" cx="166.2" cy="132" r="3"/>
	<circle class="st0" cx="139.4" cy="132" r="3"/>
	<circle class="st0" cx="112.5" cy="132" r="3"/>
	<circle class="st0" cx="85.7" cy="132" r="3"/>
	<circle class="st0" cx="58.9" cy="132" r="3"/>
	<path class="st0" d="M32.1,135c0.8,0,1.6-0.3,2.1-0.9c0.6-0.6,0.9-1.3,0.9-2.1c0-0.8-0.3-1.6-0.9-2.1c-1.1-1.1-3.1-1.1-4.2,0
		c-0.6,0.6-0.9,1.3-0.9,2.1c0,0.8,0.3,1.6,0.9,2.1C30.6,134.7,31.3,135,32.1,135z"/>
	<path class="st0" d="M32.1,269.1c1.7,0,3-1.3,3-3c0-1.7-1.3-3-3-3c-1.7,0-3,1.3-3,3C29.1,267.7,30.5,269.1,32.1,269.1z"/>
	<circle class="st0" cx="32.1" cy="239.3" r="3"/>
	<circle class="st0" cx="32.1" cy="212.4" r="3"/>
	<circle class="st0" cx="32.1" cy="185.6" r="3"/>
	<circle class="st0" cx="32.1" cy="158.8" r="3"/>
	<circle class="st0" cx="273.4" cy="400.1" r="3"/>
	<circle class="st0" cx="246.6" cy="400.1" r="3"/>
	<circle class="st0" cx="219.8" cy="400.1" r="3"/>
	<circle class="st0" cx="193" cy="400.1" r="3"/>
	<circle class="st0" cx="166.2" cy="400.1" r="3"/>
	<path class="st0" d="M298.1,398c-0.6,0.5-0.9,1.3-0.9,2.1c0,0.8,0.3,1.6,0.9,2.1c0.6,0.6,1.3,0.9,2.1,0.9c0.2,0,0.4,0,0.6-0.1
		c0.2,0,0.4-0.1,0.6-0.2c0.2-0.1,0.4-0.2,0.5-0.3c0.2-0.1,0.3-0.2,0.5-0.4c0.5-0.6,0.9-1.3,0.9-2.1c0-0.8-0.3-1.6-0.9-2.1
		C301.2,396.9,299.2,396.9,298.1,398z"/>
	<circle class="st0" cx="300.2" cy="373.3" r="3"/>
	<circle class="st0" cx="300.2" cy="346.5" r="3"/>
	<circle class="st0" cx="300.2" cy="319.7" r="3"/>
	<circle class="st0" cx="300.2" cy="292.9" r="3"/>
	<path class="st0" d="M300.2,263.1c-1.7,0-3,1.3-3,3c0,1.7,1.3,3,3,3c1.6,0,3-1.3,3-3C303.2,264.4,301.9,263.1,300.2,263.1z"/>
	<rect x="276.4" y="44" class="st0" width="20" height="20"/>
	<rect x="276.4" class="st0" width="12" height="12"/>
	<rect x="0.1" y="457" class="st0" width="16" height="16"/>
	<rect x="7.1" y="507" class="st0" width="2" height="156"/>
	<polygon class="st0" points="33.6,288 54.6,310.4 56.8,308.4 32.1,282 7.5,308.4 9.7,310.4 30.6,288 30.6,401.6 148.6,401.6 
		148.6,398.6 33.6,398.6 	"/>
	<polygon class="st0" points="298.7,244.4 277.8,222 275.6,224.1 300.2,250.4 324.9,224.1 322.7,222 301.7,244.4 301.7,130.5 
		182.5,130.5 182.5,133.5 298.7,133.5 	"/>
</g>
</svg>
