<svg version="1.1" id="圖層_1" xmlns="http://www.w3.org/2000/svg" xmlns:xlink="http://www.w3.org/1999/xlink" x="0" y="0" viewBox="0 0 221.9 183.1" xml:space="preserve"><style>.st2{fill:#d3373b}.st3{fill:#fff}.st4{fill:#fcd583}.st6{fill:none;stroke:#fcd583;stroke-width:.4;stroke-miterlimit:10}.st7{fill:#fcd47d}.st9{fill:#375787}.st10{fill:#a3c8ef}</style><defs><path id="SVGID_1_" d="M12.4 7.3h197v168.5h-197z"/></defs><clipPath id="SVGID_2_"><use xlink:href="#SVGID_1_" overflow="visible"/></clipPath><g clip-path="url(#SVGID_2_)"><path d="M92.7 66.2c-2.3-1.3-4.7-2.1-7.3-2.6-1.3-.3-2.7-.5-4-.6l-1.8-.2-.9-.1-.4-.1h-.4c-3-.4-6-.9-9-1.3-2.7-.3-5.4-.5-8.1-.7-5.1-.6-10.2-.8-15.3-.6-4.8.3-9.9 1.3-14 4.1-2.2 1.5-4 3.6-5.2 6-1.2 2.6-2.1 5.3-2.5 8.2-.5 2.9-1 5.8-1.6 8.7-.7 3.5-1.5 7-2.2 10.5-.7 3.4-1.4 6.8-2 10.3-1.3 7.1-2.5 14.1-3.4 21.3l-.6 5.1c-.1.7-.1 1.4-.2 2.2v.3c0 .1 0 .2-.1.4 0 .4-.1.8-.2 1.2-.5 2.9-.8 5.9-1 8.9-.1 3 .4 6 1.5 8.8 1.1 2.4 2.8 4.5 4.9 6.1 3.9 3.1 8.7 4.8 13.4 6.1 5.2 1.4 10.5 2.6 15.8 3.4 5.7.9 11.5 1.5 17.3 1.8 2.6.1 5.2.2 7.8 0 2.1-.1 4.2-.6 6.1-1.5 3.6-1.8 6.6-4.6 8.6-8.1 2.3-3.9 4.1-8.1 5.3-12.5 1.3-4.7 2.4-9.4 3.2-14.2 2.4-13.1 4.1-26.2 5-39.5.7-10.7 1.7-25.4-8.7-31.4" fill="#14386c"/><path class="st2" d="M92.6 86.8c-.1-2-.7-3.9-1.7-5.7-1.8-3-5.4-4.2-8.7-5.1-4.2-1.1-8.6-2-12.9-2.6-4.5-.7-9-1.2-13.6-1.5-3.8-.3-7.6-.4-11.5-.5-2-.1-3.9.1-5.8.5-1.9.5-3.6 1.5-5 2.9-1.7 1.9-2.9 4.2-3.7 6.6-1 2.8-1.8 5.7-2.4 8.7-.6 3-1.1 6-1.6 9s-1.1 6-1.6 9c-1.2 6.5-2.3 13.1-3.1 19.7-.4 3.1-.7 6.1-1 9.2-.2 2.1-.2 4.2-.2 6.3 0 3.6.9 7.1 2.7 10.2 2 3 4.9 5.3 8.3 6.7 4.3 1.6 8.7 2.8 13.2 3.5 5.5 1.1 11 1.8 16.6 2 2.7.1 5.4-.1 8.1-.5 4.1-.5 7.9-2.4 10.8-5.3 2.6-2.8 4.4-6.1 5.5-9.7 1.1-3.8 1.9-7.6 2.3-11.5.2-1.9.4-3.7.7-5.6 0-.5.1-.9.2-1.4 0-.2.1-.4.1-.6v-.4l.6-4.3c.9-6.6 1.8-13.3 2.3-20 .2-2.4.3-4.8.6-7.2.2-2 .5-4 .6-6 .4-2.2.4-4.3.2-6.4"/><path class="st3" d="M57.4 68.8c3.1.1 6.2.4 9.3.8.6 0 1.2-.5 1.2-1.2 0-.6-.5-1.1-1.2-1.2-3.1-.4-6.2-.7-9.3-.8-.6-.1-1.2.4-1.3 1.1-.1.6.4 1.2 1.1 1.3h.2m13.4 1.6c.6 0 1.2-.5 1.2-1.2 0-.6-.5-1.2-1.2-1.2s-1.2.5-1.2 1.2c.1.7.6 1.3 1.2 1.2"/><path class="st4" d="M38.5 113.3l-.4-.1c-.7-.2-1.2-.7-1.5-1.4-.1-.7 0-1.4.1-2 .2-.7.5-1.4 1-2 .5-.7 1.1-1.3 1.7-1.9.9-.9 1.9-1.7 2.9-2.5l.9-.7c1-.7 1.8-1.7 2.4-2.8l.4-.8c.2-.4.3-.8.3-1.2.1-.3.1-.6.1-.8 0-.7 0-1.3-.1-2v-.2c-.1-.3-.1-.7-.2-1-.1-.5-.3-1.1-.6-1.6-.5-1-1.2-1.9-2-2.6-.4-.3-.8-.5-1.3-.6-.2-.1-.5-.1-.8-.1-.4.1-.8.2-1.1.4l-.3.1c-.4.3-.9.7-1.2 1.1-.3.4-.6.9-.8 1.3-.1.2-.1.4-.2.7v.5c0 .4-.3.7-.6.9h-.5c-.2 0-.4-.2-.6-.3-.4-.5-.5-1.2-.3-1.8.2-.8.5-1.6 1-2.3.5-.7 1.1-1.4 1.7-2 .9-.7 2.1-1.1 3.2-1.1h.1c.4 0 .8.1 1.2.2.2.1.5.1.7.2h.1c1.3.5 2.4 1.3 3.2 2.4 1 1.1 1.8 2.5 2.2 4 .5 1.8.6 3.7.3 5.6-.2.9-.6 1.7-1 2.5-.3.7-.7 1.3-1.2 1.8l-.1.1c-.2.3-.5.5-.8.8-.6.5-1.1.9-1.7 1.4l-.3.2c-1.5 1.1-2.9 2.4-4.2 3.8-.3.4-.6.8-.7 1.3l-.1.2.4.1c.3.1.6.1.9.1 1.2.2 2.4.2 3.6.2.5 0 1.1-.1 1.6-.2h.1c.3-.1.6-.1.9 0 .3.1.5.2.8.4.2.2.3.4.2.7-.1.2-.2.4-.4.6-.3.3-.7.5-1.1.5l-.6.1c-.9.2-1.9.2-2.8.2-1.4 0-2.7-.1-4.1-.3l-.4-.1z"/><path d="M38.5 113.3l-.4-.1c-.7-.2-1.2-.7-1.5-1.4-.1-.7 0-1.4.1-2 .2-.7.5-1.4 1-2 .5-.7 1.1-1.3 1.7-1.9.9-.9 1.9-1.7 2.9-2.5l.9-.7c1-.7 1.8-1.7 2.4-2.8l.4-.8c.2-.4.3-.8.3-1.2.1-.3.1-.6.1-.8 0-.7 0-1.3-.1-2v-.2c-.1-.3-.1-.7-.2-1-.1-.5-.3-1.1-.6-1.6-.5-1-1.2-1.9-2-2.6-.4-.3-.8-.5-1.3-.6-.2-.1-.5-.1-.8-.1-.4.1-.8.2-1.1.4l-.3.1c-.4.3-.9.7-1.2 1.1-.3.4-.6.9-.8 1.3-.1.2-.1.4-.2.7v.5c0 .4-.3.7-.6.9h-.5c-.2 0-.4-.2-.6-.3-.4-.5-.5-1.2-.3-1.8.2-.8.5-1.6 1-2.3.5-.7 1.1-1.4 1.7-2 .9-.7 2.1-1.1 3.2-1.1h.1c.4 0 .8.1 1.2.2.2.1.5.1.7.2h.1c1.3.5 2.4 1.3 3.2 2.4 1 1.1 1.8 2.5 2.2 4 .5 1.8.6 3.7.3 5.6-.2.9-.6 1.7-1 2.5-.3.7-.7 1.3-1.2 1.8l-.1.1c-.2.3-.5.5-.8.8-.6.5-1.1.9-1.7 1.4l-.3.2c-1.5 1.1-2.9 2.4-4.2 3.8-.3.4-.6.8-.7 1.3l-.1.2.4.1c.3.1.6.1.9.1 1.2.2 2.4.2 3.6.2.5 0 1.1-.1 1.6-.2h.1c.3-.1.6-.1.9 0 .3.1.5.2.8.4.2.2.3.4.2.7-.1.2-.2.4-.4.6-.3.3-.7.5-1.1.5h0l-.6.1c-.9.2-1.9.2-2.8.2-1.4 0-2.7-.1-4.1-.3l-.4-.1z" fill="none" stroke="#fcd583" stroke-miterlimit="10"/><path class="st4" d="M61.1 98c-.9-1.2-2.1-2.1-3.4-2.7-.9-.4-1.3-.8-1.2-1.2.1-.6.6-.8 1.7-.8 2.7 1 4 2.1 3.8 3.3v.9c-.2.3-.5.5-.9.5m-6 12.8c-.8-.2-1.1-.7-1.1-1.2.1-.4.4-.7.7-.8l.7.1 6.7-4.8h.5c.5.1.8.4.9 1-.1.6-1.4 1.6-3.9 3.3-2 1.8-3.5 2.6-4.5 2.4m11.2-10.7c-.4-.1-.6-.4-.7-1l.1-.6c0-.3.5-1.8 1.5-4.6l.1-.4c0-.1-.1-.2-.1-.3-.1-.1-.2-.1-.3-.1.4-.8.9-1.2 1.5-1.2.6.1 1 .9 1 2.4v.1c-1.1 3.9-2.2 5.8-3.1 5.7m13.1 16.7c-.9-.1-2.7-1.5-5.3-4.2-1.2-.8-2.2-1.8-3-2.9-.1-.1-.3-.2-.5-.3-.8 1.6-1.9 2.9-3.2 4-.5.4-1 .7-1.6.7-.7-.3-1-.7-.9-1.2.1-.4.4-.7 1.1-.9 2.5-2.5 4.1-5.8 4.6-9.3 0-.3.1-.6.1-.9 0-.4.2-.7.4-1 .2-.2.5-.3.8-.3.8.1 1 1.2.9 3.3v.2c-.3 1.5-.7 2.9-1.4 4.3.6.1 1.7.8 3.3 2.1 1.7 1.2 3.4 2.5 4.9 4 1.1.6 1.6 1.1 1.5 1.6s-.7.7-1.7.8m-1.3-13.9c-.4-.2-.6-.4-.5-.6v-.2c1.6-1.7 2.4-2.9 2.5-3.5l.1-.6-.1-.1-.7-.1c-.3 0-2.7 0-7.1.1-.9 0-1.5-.1-1.8-.1-.3-.1-.6-.4-.5-.6V97c0-.2.6-.4 1.7-.6 1.1-.2 2.6-.3 4.6-.4 1.3-.2 2.7-.2 4 0 1.2.1 2.2 1.1 2.3 2.3l-.1.5c-.3 1.4-1.1 2.6-2.2 3.5-.8.4-1.5.6-2.2.6"/><path class="st6" d="M61.1 98c-.9-1.2-2.1-2.1-3.4-2.7-.9-.4-1.3-.8-1.2-1.2.1-.6.6-.8 1.7-.8 2.7 1 4 2.1 3.8 3.3v.9c-.2.3-.6.5-.9.5zm-6 12.8c-.8-.2-1.1-.7-1.1-1.2.1-.4.4-.7.7-.8l.7.1 6.7-4.8h.5c.5.1.8.4.9 1-.1.6-1.4 1.6-3.9 3.3-2 1.7-3.5 2.6-4.5 2.4zm11.2-10.7c-.4-.1-.6-.4-.7-1l.1-.6c0-.3.5-1.8 1.5-4.6l.1-.4c0-.1-.1-.2-.1-.3-.1-.1-.2-.1-.3-.1.4-.8.9-1.2 1.5-1.2.6.1 1 .9 1 2.4v.1c-1.1 3.9-2.2 5.8-3.1 5.7zm13.1 16.7c-.9-.1-2.7-1.5-5.3-4.2-1.2-.8-2.2-1.8-3-2.9-.1-.1-.3-.2-.5-.3-.8 1.6-1.9 2.9-3.2 4-.5.4-1 .7-1.6.7-.7-.3-1-.7-.9-1.2.1-.4.4-.7 1.1-.9 2.5-2.5 4.1-5.8 4.6-9.3 0-.3.1-.6.1-.9 0-.4.2-.7.4-1 .2-.2.5-.3.8-.3.8.1 1 1.2.9 3.3v.2c-.3 1.5-.7 2.9-1.4 4.3.6.1 1.7.8 3.3 2.1 1.7 1.2 3.4 2.5 4.9 4 1.1.6 1.6 1.1 1.5 1.6s-.7.8-1.7.8zm-1.3-13.9c-.4-.2-.6-.4-.5-.6v-.2c1.6-1.7 2.4-2.9 2.5-3.5l.1-.6-.1-.1-.7-.1c-.3 0-2.7 0-7.1.1-.9 0-1.5-.1-1.8-.1-.3-.1-.6-.4-.5-.6V97c0-.2.6-.4 1.7-.6 1.1-.2 2.6-.3 4.6-.4 1.3-.2 2.7-.2 4 0 1.2.1 2.2 1.1 2.3 2.3l-.1.5c-.3 1.4-1.1 2.6-2.2 3.5-.7.3-1.5.5-2.2.6z"/><path class="st4" d="M31.8 127.4c-.2 0-.3-.1-.4-.3-.1-.2-.1-.4-.1-.5.6-1.4 1.4-2.7 2.3-3.8.2-.4.4-.8.5-1.2v-.6c.2-.2.5-.3.7-.2.5.1.8.5.8 1.3-.2 1.1-1.1 2.7-2.9 4.8-.2.1-.3.2-.5.3.7.1 1 1.5.9 4v7.4c-.2.4-.5.6-.9.6h-.1c-.6-.1-.9-.6-.8-1.5 0-2 0-5.4.1-10.1l.4-.2m4.6 5.5c-.5-.1-.7-.4-.7-1l.2-1.1c0-.2.1-.4.3-.5.1-.1.3-.2.5-.2.2.1.4.2.5.4.1.3.2.7.2 1 .1.3.1.6.1.9.1-.2.3-.4.5-.5h.1v-.1c.2.1.3.1.5.3.1.1.2.2.3.4-.4 1.4-.8 2-1.3 1.9h-.2c-.3-.1-.6-.3-.7-.6v-.1c.1-.3.3-.7.5-.9-.3 0-.5.1-.8.1m3.3-11.4c-.4-.1-.6-.3-.6-.6s.8-.5 2.3-.6c1.5-.2 3.5-.4 6.2-.6.5.2.8.5.7.9s-.9.6-2.5.7c.1.1.1.3.1.4-.1.7-.4 1.3-.9 1.7l.8-.1c.8-.1 1.5-.1 2.3 0 .6.1 1 .6 1.2 1.4.2 1.2.2 2.3 0 3.5 0 .4-.2.8-.4 1.2h.5c.7.1 1.2.6 1.5 1.7v.5c-.1.4-.2.7-.4 1-.1.2-.3.3-.5.3s-.6-.7-1-2l-6.8.2c-.9.2-1.8.2-2.7.2h-.2c-.2 0-.4-.2-.5-.4v-.2c0-.3.6-.5 1.6-.6h.1c-.3-.1-.5-.4-.7-.8-.1-.7-.1-1.3 0-2v-.5c0-.4.1-1 .2-1.7 0-.2.1-.4.3-.5.1-.1.3-.2.5-.2.5.1.7.8.6 2.2.1 1 .1 2 .1 3-.1.1-.3.3-.5.3 1-.1 2.3-.2 3.9-.3h2.4l-.4-.6v-.2l.5-.3c.2-1 .2-2 .3-3 0-.4 0-.6-.1-.6-1.7-.1-3.3-.1-5 0-.1 0-.3-.1-.4-.2-.1-.1-.1-.2-.1-.3v-.2c0-.3.7-.5 2-.6-.1-.1-.1-.1-.1-.2.1-.7.4-1.4.8-1.9H44c-1.5.2-3 .2-4.3 0m-.5 16.1c-.1 0-.2-.1-.3-.2-.1-.1-.1-.2-.1-.3 0-.3.9-1.2 2.5-2.6v-.2c-.3-.3-.4-.7-.4-1.1.1-.4.2-.7.4-1 .1-.2.3-.3.6-.3h.1c.2 0 .4.2.5.4.1.3.1.6.1.9 0 .1.1.1.2.1.9.1 1.7.1 2.6 0-.4-.1-.8-.3-1.2-.5-.3-.2-.5-.3-.4-.5.1-.3.4-.4.7-.4.5.2 1 .6 1.5.9v.2c0 .1-.1.2-.2.3.3-.1.7-.2 1.1-.2h.1c.3.1.6.4.7.7 0 .4-.5.6-1.2.8-1.1.2-2.2.3-3.3.3h-.6l-.1.1c-.5 1-1.2 1.9-2.1 2.5-.4.1-.9.2-1.2.1m3-10.9c-.2-.1-.4-.3-.4-.4v-.2c0-.2.4-.3 1-.5.9-.1 1.9-.2 2.8-.3.4.1.7.3.8.6v.3c0 .2-.4.3-1.1.3s-1.7.2-3.1.2m.9 2.2l-.6-.1c-.3-.1-.5-.2-.6-.5 0-.3.4-.5 1-.6.9-.1 1.8-.1 2.6-.1l.8.1c.1 0 .2.1.3.2.1.1.1.2.1.3v.1c-1 .7-2.3.8-3.6.6m3.1 14.1c-.9-.3-1.8-.7-2.6-1.3-.4.2-.8.3-1.2.2-.5-.1-1-.4-1.4-.8 0-.2.3-.4.9-.6-.5-.4-.9-.8-1.2-1.3v-.2c.1-.2.4-.3.6-.3.8.3 1.6.6 2.4 1.1.8-.4 1.4-1 1.8-1.7l-3.1-.3c-.1 0-.3-.1-.4-.2-.1-.1-.1-.2-.1-.3 0-.2.2-.4.5-.5.4-.1.7-.1 1.1 0 .9-.1 1.9-.1 3-.1.8.3 1.2.8 1.1 1.4-.4 1.1-1.2 2-2.1 2.6.3.2 1.1.5 2.3 1.1l.1.3v.2c-.4.4-.9.7-1.5.6m4-7.7c-.6-.2-1.1-.6-1.5-1.1-.2-.1-.4-.3-.4-.5v-.2c0-.2.3-.3.8-.4.9.2 1.6.7 2 1.5v.1c0 .4-.3.5-.9.6"/><path class="st6" d="M31.8 127.4c-.2 0-.3-.1-.4-.3-.1-.2-.1-.4-.1-.5.6-1.4 1.4-2.7 2.3-3.8.2-.4.4-.8.5-1.2v-.6c.2-.2.5-.3.7-.2.5.1.8.5.8 1.3-.2 1.1-1.1 2.7-2.9 4.8-.2.1-.3.2-.5.3.7.1 1 1.5.9 4v7.4c-.2.4-.5.6-.9.6h-.1c-.6-.1-.9-.6-.8-1.5 0-2 0-5.4.1-10.1l.4-.2zm4.7 5.5c-.4-.1-.7-.4-.7-1l.2-1.1c0-.2.1-.4.3-.5.1-.1.3-.2.5-.1s.4.2.5.4c.1.3.2.7.2 1 .1.3.1.6.1.9.1-.2.3-.4.5-.5H38v-.1c.2.1.3.1.5.3.1.1.2.2.3.4-.4 1.4-.8 2-1.3 1.9h-.1c-.3-.1-.6-.3-.7-.6v-.1c.1-.3.3-.7.5-.9h-.7zm3.2-11.3c-.4-.1-.6-.3-.6-.6s.8-.5 2.3-.6c1.4-.2 3.5-.4 6.2-.6.5.2.8.5.7.9s-.9.6-2.5.7c.1.1.1.3.1.4-.1.7-.4 1.3-.9 1.7l.8-.1c.8-.1 1.5-.1 2.3 0 .6.1 1 .6 1.2 1.4.2 1.2.2 2.3 0 3.5 0 .4-.2.8-.4 1.2h.5c.7.1 1.2.6 1.5 1.7v.5c-.1.4-.2.7-.4 1-.1.2-.3.3-.5.3s-.6-.7-1-2l-6.8.2c-.9.2-1.8.2-2.7.2h-.2c-.2 0-.4-.2-.5-.4v-.2c0-.3.6-.5 1.6-.7h.1c-.3-.1-.5-.3-.7-.8-.1-.7-.1-1.3 0-2v-.5c0-.4.1-1 .2-1.7 0-.2.1-.4.3-.5.1-.1.3-.2.5-.2.5.1.7.8.6 2.2.1 1 .1 2 .1 3-.1.1-.3.3-.5.3 1-.1 2.3-.2 3.9-.3h2.4l-.4-.6v-.2l.5-.3c.2-1 .2-2 .3-3 0-.4 0-.6-.1-.6-1.7-.1-3.3-.1-5 0-.1 0-.3-.1-.4-.2-.1-.1-.1-.2-.1-.3v-.2c0-.3.7-.5 2-.6-.1-.1-.1-.1-.1-.2.1-.7.4-1.4.8-1.9H44c-1.5.3-2.9.3-4.3.1zm-.5 16.1c-.1 0-.2-.1-.3-.2-.1-.1-.1-.2-.2-.3 0-.3.9-1.2 2.5-2.7v-.2c-.3-.3-.4-.7-.4-1.1.1-.4.2-.7.4-1 .1-.2.3-.3.6-.3.2 0 .4.2.5.4.1.3.1.6.1.9 0 .1.1.1.2.1.9.1 1.7.1 2.6 0-.4-.1-.8-.3-1.2-.5-.3-.2-.5-.4-.4-.5.1-.3.4-.4.7-.4.5.2 1 .6 1.5.9v.2c0 .1-.1.2-.2.3.3-.1.7-.1 1.1-.2h.3c.3.1.6.4.7.7 0 .4-.5.6-1.2.8-1.1.2-2.2.3-3.3.3h-.6l-.1.1c-.5 1-1.2 1.9-2.1 2.5-.3.2-.7.3-1.2.2zm3.1-10.9c-.2-.1-.4-.3-.4-.4v-.2c0-.2.4-.3 1-.5.9-.1 1.9-.2 2.8-.3.4.1.7.3.8.6v.3c0 .2-.4.3-1.1.3s-1.7.2-3.1.2zm.9 2.1l-.6-.1c-.3-.1-.5-.2-.6-.5 0-.3.4-.5 1-.6.9-.1 1.8-.1 2.6-.1l.8.1c.1 0 .2.1.3.2.1.1.1.2.1.3v.1c-1 .7-2.3.9-3.6.6zm3.1 14.2c-.9-.3-1.8-.7-2.6-1.3-.4.2-.8.3-1.2.2-.5-.1-1-.4-1.4-.8 0-.2.3-.5.9-.6-.5-.4-.9-.8-1.2-1.3v-.3c.1-.2.4-.3.6-.3.8.3 1.6.6 2.4 1.1.8-.4 1.4-1 1.8-1.7l-3.1-.3c-.1 0-.3-.1-.4-.2-.1-.1-.1-.2-.1-.3 0-.2.2-.4.5-.5.4-.1.7-.1 1.1 0 .9-.1 1.9-.1 3-.1.8.3 1.2.8 1.1 1.4-.4 1.1-1.2 2-2.1 2.6.3.2 1.1.5 2.3 1.1l.1.3v.2c-.5.6-1.1.9-1.7.8zm4.1-7.9c-.6-.2-1.1-.6-1.5-1.1-.2-.1-.4-.3-.4-.5v-.2c0-.2.3-.3.8-.4.9.2 1.6.7 2 1.5v.1c-.1.4-.4.5-.9.6z"/><path class="st4" d="M57.4 144.9c-.6-.1-.9-.7-.8-1.7.3-1.6.7-2.4 1.2-2.4h.1c.4.1.5.8.5 2.2.1.5.1 1 0 1.5-.3.3-.7.5-1 .4m5.1-6.9c-.5 0-1-.4-1.1-.9.1-.5.6-.7 1.6-.7.7-.2 1.2-.3 1.5-.4.2 0 .3-.1.5-.2v-.1c-.9.1-1.8.2-2.7.1-.4 0-.7-.3-.9-.7.3-.4.6-.6.9-.5.1 0 .2.1.3.1l1.2-.2c.5-.1 1-.2 1.5-.2 0-.2.1-.8.2-1.8-.9.1-1.8.2-2.6.1-.2 0-.3-.2-.5-.4.1-.5 1.2-1 3.3-1.4 0-.6.1-1 .1-1.1h-2.1c-.2 0-.5 0-.7.1 0 .1-.1.2-.3.3h-.3c-.1-.1-.2-.1-.2-.2v-.3c.1-.7 1.1-1.1 3.1-1.2h.1c.2 0 .4-.1.6-.1 0-.4.1-.8.1-1.2 0-.4.1-.5.1-.5-1.9.1-3.8.1-5.7-.1-.4-.2-.6-.4-.6-.7.1-.5 1.2-.7 3.3-.6l3-.2v-.3c0-.1 0-.4.1-.7 0-.3.1-.5.3-.7.1-.2.3-.2.5-.2s.4.2.5.6c.1.4.2.9.2 1.3.5 0 2.2-.1 5.3-.2H73c.3 0 .6.2.7.5v.2c0 .2-.6.4-1.6.6s-2.6.3-4.5.4l-.1 1.6c1.6-.2 3.3-.3 4.9-.2.5.2.8.5 1 1 .2.6.2 1.2.1 1.9-.1 1-.4 2-.9 2.9-.3.6-.9.9-1.5.8-.5 0-.9.1-1.3.3l-2.3.5c-.2.1-.4.1-.6.1v.1c-.1.1-.1.3-.1.5h.1c1.4 0 2.6 0 3.6.1.4.1.8.2 1.1.4.3.2.4.4.4.6 0 .2-.4.4-1.2.5-.8.1-1.8.1-3.2.2-1.8.1-3.4.2-5.1.2m-1.5-3.7c-.4-.1-.8-.4-.8-.8-.2-.6-.3-1.2-.3-1.9l.2-3.2c.2-.5.5-.7.8-.7s.4.4.4 1.3c.2 1.1.3 2.1.4 3.2.1 0 .2.5.2 1.5 0 .4-.3.6-.9.6m2.9 12.6c-1-.1-1.8-.7-2.2-1.6-.1-.4-.1-.7-.1-1.1l.1-1c0-.1 0-.2-.1-.3v-.2c0-.1.2-.2.4-.3.6.1.9.8 1.1 2.3.1.4.4.8.9.8 1.7.2 3.5.1 5.1-.4v-.2l-1-.5-.1-.2v-.2c0-.1.2-.2.4-.3 2.1.4 3.2.8 3.1 1.2 0 .1 0 .2.1.2-.1.6-.7 1-1.7 1.3-1.5.4-3 .6-4.6.6-.5 0-1.1 0-1.6-.1m2.4-2.7c-.7-.1-1.1-.7-1.2-1.8 0-.4.3-.7.6-.9h.3c.4.3.7.6 1 1 .3-.1.6-.1.9-.2.3.1.4.3.4.4v.1c-.7 1-1.4 1.4-2 1.4m.8-10.3c.9 0 1.7-.2 2.6-.5v-.5h.3v-.2l1 .6c.4-.9.7-1.8.7-2.8.1-.6.1-.9.1-1s0-.2-.1-.2-1.6.1-4.2.4l-.1.7v.3c.6-.1 1.3-.1 1.9-.1.8.3 1.1.6 1.1.9-.1.4-1.1.7-3.1.9l-.2 1.5zm6.5 6.3c-.8-.6-1.2-1.6-1.1-2.6 0-.2.2-.3.5-.4.5.1.9.6 1.2 1.5.1.4.1.7.1 1.1 0 .1-.1.2-.2.3-.1.1-.2.1-.4.1m.9 4.7c-.5-.1-1-.6-1.6-1.5-.3-.2-.7-.4-1.1-.5v-.3c.1-.2.4-.3.7-.3 1.1.2 2.1.6 3 1.3.1.2.2.4.2.6 0 .4-.4.7-1.2.7"/><path class="st6" d="M57.4 144.9c-.6-.1-.9-.7-.8-1.7.3-1.6.7-2.4 1.2-2.4h.1c.4.1.5.8.5 2.2.1.5.1 1 0 1.5-.3.3-.7.4-1 .4zm5.2-6.8c-.5 0-1-.4-1.1-.9.1-.5.6-.7 1.6-.7.7-.2 1.2-.3 1.5-.4.2 0 .3-.1.5-.2v-.1c-.9.1-1.8.2-2.7.1-.4 0-.7-.3-.9-.7.3-.4.6-.6.9-.5.1 0 .2.1.3.1l1.2-.2c.5-.1 1-.2 1.5-.2 0-.2.1-.8.2-1.8-.9.1-1.8.2-2.6.1-.2 0-.3-.2-.5-.4.1-.5 1.2-1 3.3-1.4 0-.6.1-1 .1-1.1h-2.1c-.2 0-.5 0-.7.1 0 .1-.1.2-.3.3h-.3c-.1-.1-.2-.1-.2-.2v-.3c.1-.7 1.1-1.1 3.1-1.2h.1c.2 0 .4-.1.6-.1 0-.4.1-.8.1-1.2 0-.4.1-.5.1-.5-1.9.1-3.8.1-5.7-.1-.4-.2-.6-.4-.6-.7.1-.5 1.2-.7 3.3-.6l3-.2v-.3c0-.1 0-.4.1-.7 0-.3.1-.5.3-.7.1-.2.3-.2.5-.2s.4.2.5.6c.1.4.2.9.2 1.3.5 0 2.2-.1 5.3-.2h.1c.3 0 .6.2.7.5v.2c0 .2-.6.4-1.6.6s-2.6.3-4.5.4l-.1 1.6c1.6-.2 3.3-.3 4.9-.2.5.2.8.5 1 1 .2.6.2 1.2.1 1.9-.1 1-.4 2-.9 2.9-.3.6-.9.9-1.5.8-.5 0-.9.1-1.3.3l-2.4.5c-.2.1-.4.1-.6.1v.1c-.1.1-.1.3-.1.5h.1c1.4 0 2.6 0 3.6.1.4.1.8.2 1.1.4.3.2.4.4.4.6 0 .2-.4.4-1.2.5-.8.1-1.8.1-3.2.2-1.9 0-3.6.1-5.2.2zm-1.6-3.8c-.4-.1-.8-.4-.8-.8-.2-.6-.3-1.2-.3-1.9l.2-3.2c.2-.5.5-.7.8-.7s.4.4.4 1.3c.2 1.1.3 2.1.4 3.2.1 0 .2.5.2 1.5 0 .4-.3.6-.9.6zm2.9 12.6c-1-.1-1.8-.7-2.2-1.6-.1-.4-.1-.7-.1-1.1l.1-1c0-.1 0-.2-.1-.3v-.2c0-.1.2-.2.4-.3.6.1.9.8 1.1 2.3.1.4.4.8.9.8 1.7.2 3.5.1 5.1-.4v-.2l-1-.5-.1-.2v-.2c0-.1.2-.2.4-.3 2.1.4 3.2.8 3.1 1.2 0 .1 0 .2.1.2-.1.6-.7 1-1.7 1.3-1.5.4-3 .6-4.6.6-.4 0-.9-.1-1.4-.1zm2.4-2.8c-.7-.1-1.1-.7-1.2-1.8 0-.4.3-.7.6-.9h.3c.4.3.7.6 1 1 .3-.1.6-.1.9-.2.3.1.4.3.4.4v.1c-.8 1.1-1.5 1.5-2 1.4zM67 134c.9 0 1.7-.2 2.6-.5v-.5h.3v-.2l1 .6c.4-.9.7-1.8.7-2.8.1-.6.1-.9.1-1s0-.2-.1-.2-1.6.1-4.2.4l-.1.7v.2c.6-.1 1.3-.1 1.9-.1.8.3 1.1.6 1.1.9-.1.4-1.1.7-3.1.9L67 134zm6.6 6.2h-.1c-.8-.6-1.2-1.6-1.1-2.6 0-.2.2-.3.5-.4.5.1.9.6 1.2 1.5.1.4.1.7.1 1.1 0 .1-.1.2-.2.3-.2.1-.3.1-.4.1zm.8 4.7c-.5-.1-1-.6-1.6-1.5-.3-.2-.7-.4-1.1-.5v-.3c.1-.2.4-.3.7-.3 1.1.2 2.1.6 3 1.3.1.2.2.4.2.6 0 .4-.4.6-1.2.7z"/><path class="st3" d="M99.6 44.6c0 .3.2.8-.2.9-.9.8-1.8 1.8-2.8 2.6-.4.4-.9.6-1.4.8-1.8-.1-3.6-.9-4.9-2.1-1.1-1-1.7-2.4-1.8-3.9-.1-1.1.3-2.2 1.1-2.9 1.7-2 4.5-2.7 7-1.9 1.3.6 2.3 1.6 2.7 3 .2 1 .3 2.3.3 3.5m11 115.3c-.5 0-1.1.1-1.6.1-1.2.1-2.5.1-3.7.3v.5c0 .2-.1.4-.3.5-.3.3-.7.5-1.1.7-.5.2-1 .5-1.5.7l-.6.3c-.2.1-.4.2-.7.3h-.1c-.8.4-1.5.9-2.3 1.2-.3.1-.5.3-.8.5l-.8.5c-.3.2-.7.4-1.1.6-.1.1-.2.3-.3.4-.4.6-.3 1.5.3 1.9.1 0 .1.1.2.1 1.4.5 2.8.7 4.2.7.7 0 1.4.1 2.2.1 2.1 0 4.3-.2 6.4-.4.9 0 1.9-.2 2.7-.5.7-.2.7-1.1.8-1.7.2-1.9.1-5-1.2-6.5.1-.3-.4-.4-.7-.3m81.6 11.8c-1.7-1.5-3.8-2.7-5.6-4.1l-1.2-.9c-1.1-.2-2.3-.3-3.4-.1-1.8.1-3.5.3-5.3.4-.7.1-1.7-.1-2 .7-.3.9-.5 1.8-.6 2.8-.1 1.4-.5 3 .3 4.2.9 1.1 3.3 1 4.7 1.1 2.9 0 5.8-.2 8.7-.2 1.6 0 3.2-.2 4.8-.6 1.6-.6.6-2.5-.4-3.3"/><path d="M185.7 149.8c.5 3.6.7 7.3.6 10.9-.1 1.8-.2 3.6-.3 5.5-.1.6-.1 1.5-.7 1.9-1.8.4-3.6.5-5.5.7s-3.4.5-5.1.6c-1.6 0-1.2-1.8-1.2-2.9.1-1.5.1-2.9 0-4.4-.2-2.5-.5-5-1.1-7.4-1.3-6-3.8-11.7-7.5-16.6-1.8-1.9-3.8-3.6-6-5.1-.9-.7-1.9-1.3-2.9-1.9-2.5-1.2-5.2-2.2-7.9-2.7-2.4-.6-4.9-.9-7.4-1-5.5-.1-11.1.8-15.8 3.7-2.1 1.3-4.1 3-5.8 4.8-1.9 1.9-3.3 4.1-4.3 6.5-1.4 3.3-2.3 6.9-2.5 10.5-.3 2.8-.3 5.6.1 8.3.2.6-.2 1.3-.8 1.4-.2.1-.5.1-.7 0-.6.1-1.3.1-1.9.1-1.5.1-2.9-.2-4.4-.2-.2 0-.4-.1-.6-.2-.1-.2-.3-.4-.5-.5-1.9-2.3-3.6-4.7-5.2-7.2-3.7-6.6-5.6-14.1-5.3-21.7.1-7 2.6-12.6 6.1-18.5 3.8-6.1 10-13.2 16.7-16.2 4-1.9 8.5-2 12.8-2.5 3.8-.3 7.6.4 11.3 1 1.9.3 3.9.6 5.8.9 4.8.8 9.8 1.5 14.2 3.9 7.9 4.1 12.5 12.2 16.6 19.7 1.7 3.3 3.3 6.7 4.8 10.1 1.1 2.7 1.9 5.4 2.6 8.2.7 3.4 1.4 6.8 1.8 10.3"/><path class="st2" d="M175.2 79.9c.5 3.4.2 6.9-.7 10.2-1.5 5.7-4.5 10.8-8.7 15-.8.8-1.7 1.5-2.6 2.1-.2.2-.5.4-.8.4-.3 0-.5-.1-.7-.3-1.6-1-3.2-2-4.6-3.2-.4-.3-.5-.7-.5-1.1-1.2.5-2.4 1-3.5 1.7-.7.4-2.4 1.3-2 2.3.3.1.5.5.3.8s-.5.5-.8.3c-1.6.2-3.2.3-4.9.2-4.7-.2-9.4-.9-14-2.1-2.4-.6-4.8-1.3-7.1-2.2-2.3-.9-4.4-2.1-6.4-3.4-.5-.3-1-.8-1.4-1.3-.3-1.3-.5-2.6-.5-3.9-.3-5.9.1-11.9 1.3-17.7.6-2.5 1-5.1 1.6-7.6-3.5-.7-6.8-1.8-10-3.3-3.7-1.7-7.1-4-9.9-6.9-1.8-1.8-3.4-3.8-4.6-6-.7-1.2-1-2.5-1.1-3.8h-.1c-.1-.2 0-.4.1-.5 1.7-1.6 3.6-3.1 5.5-4.6.3-.4.9-.6 1.3-.3 0 0 .1 0 .1.1.4.3.7.7 1 1.1 1.1 1.5 2.4 2.9 4 3.9 3.9 2.1 8.4 2.8 12.8 2.2 2.9-.5 5.7-1.1 8.5-2 3.2-.8 6.6-1.2 9.9-1.2 2.5 0 5 .2 7.5.4 1.6 0 3.2.2 4.8.5 3.9 1 7.7 2.8 11 5.2 2.6 2 4.9 4.3 6.8 7 2.6 3.2 4.7 6.8 6.2 10.7.9 2.4 1.7 4.9 2.2 7.3"/><path class="st7" d="M157.7 100.5c.1-.2.1-.4.2-.6s.4-2.2.4-2.2c-5.4.9-10.9 1.7-16.4 1.5-4.6-.2-9.2-.9-13.7-2-3.9-.9-7.6-2.2-11.3-3.8-.3-.1-.6-.3-.9-.5 0 .9 0 1.8.1 2.7 0 1.3.2 2.6.5 3.9.4.5.8.9 1.4 1.3 2 1.4 4.2 2.5 6.4 3.5 2.3.8 4.7 1.5 7.1 2.2 4.6 1.2 9.3 1.9 14 2.1 1.6 0 3.2 0 4.8-.2 2.4-.3 4.6-1.2 5.8-3.5.4-.9.7-1.8 1-2.7.2-.8.4-1.3.6-1.7"/><path d="M157.2 101.6c-.5-.2-.2-.7-.1-1.1.3-.7.5-1.4.7-2.1 1.1-4.5.9-9.1-.7-13.5-.7-1.8-1.5-3.4-2.5-5-.2-.3-.4-.7-.6-1-.1-.1 0-.3.1-.4.4-.1.7.4 1 .6 1.2 1.5 2.3 3.2 3.1 4.9 1.6 3.9 2 8.1 1.2 12.2-.1.8-1 6-2.2 5.4" fill="#bb171b"/><path class="st9" d="M135.1 100.4c-.3-1.2-.4-2.4-.6-3.7-.5-2.8-.8-5.7-1-8.5-.2-5.8.2-11.5 1.2-17.2.4-1.9.9-3.8 1.4-5.7.7-2.3 1.7-4.5 2.4-6.8.3-1.1.8-2.1 1.4-3.1.1-.3.5-.8.8-.3.1.4-.2.8-.4 1.2-.5 1.3-.9 2.6-1.3 3.9-1.2 3.3-2.1 6.6-2.9 10-.7 3.9-1.2 7.8-1.4 11.8 0 2.1-.2 4.2-.1 6.2.2 2.8.5 5.6.9 8.4.2 1.2.3 2.4.6 3.6 0 .3-.2.6-.5.6s-.5-.1-.5-.4"/><path d="M141.6 63.3c-2.9-.8-5.9-1.1-8.8-.6-.6 0-1.1.2-1.7.4-.2.1-.2.4-.1.6l.1.1c.2.1.4.1.6.1 1.7.1 3.4.1 5 .2 1.5.1 3 .4 4.5.7.4.1.7-.2.8-.6.1-.5-.1-.8-.4-.9m-1.3 8.7c-3.2-.4-6.4-.5-9.6-.3-.4 0-.8.1-1.1.3-.2.4.7.4.9.5 3.2.3 6.4.8 9.7 1 .4 0 .7-.3.7-.7 0-.5-.3-.8-.6-.8m-.5 9.3c-1.5-.4-3-.7-4.6-.9-1.2-.2-2.4-.3-3.6-.3-.9 0-1.7.1-2.6.2-.2 0-.5.1-.7.2-.5.8 1.4.6 1.8.7 3.1.3 6.3.8 9.4 1.6.4.1.8-.2.9-.6 0-.5-.2-.8-.6-.9"/><path class="st3" d="M131.4 61.6c-1.1 0-1.9.8-1.9 1.9s.8 1.9 1.9 1.9c1.1 0 1.9-.8 1.9-1.9 0-1-.8-1.9-1.9-1.9m-1.6 8c-1.1 0-1.9.8-1.9 1.9 0 1.1.8 1.9 1.9 1.9 1.1 0 1.9-.8 1.9-1.9 0-1-.9-1.9-1.9-1.9m-1 9.3c-1.1 0-1.9.8-1.9 1.9s.8 1.9 1.9 1.9c1.1 0 1.9-.8 1.9-1.9 0-1-.9-1.9-1.9-1.9m11.5 1.5c-1 0-1.9.9-1.9 1.9 0 1 .9 1.9 1.9 1.9 1 0 1.9-.9 1.9-1.9 0-1-.9-1.9-1.9-1.9m.4-9.6c-1.1 0-1.9.9-1.9 1.9 0 1.1.9 1.9 1.9 1.9s1.9-.9 1.9-1.9c0-1-.9-1.9-1.9-1.9m.8-8.7c-1.1 0-1.9.8-1.9 1.9 0 1.1.8 1.9 1.9 1.9 1.1 0 1.9-.8 1.9-1.9 0-1-.8-1.9-1.9-1.9m62.1-39.9c3.7 3.4 8 9.6 4.6 14.6-1.9 2.5-4.9 3.9-7.9 3.7-8-.7-14.2-6.4-21.2-9.7-3-1.4-6.1-2.5-9.2-3.4-.7-.2-1.3-.4-2-.5 1 1.7 1.6 3.5 2 5.4.5 3.1.4 6.2-.2 9.2-.9 3.5-2.5 6.7-4.7 9.5-1.8 1.9-4 3.6-6.3 4.8-4.5 2.6-9.6 3.9-14.8 3.7-6.1-.3-12.4-2.4-16.7-6.9-4.6-4.9-7.4-12.4-5.8-19.1.7-2.4 1.7-4.9 3.5-6.6 2.6-2.2 5.4-4.1 8-6.2 7-5.9 13-9.1 22.3-6.2l.7.2c.2-.1.3-.2.5-.3 7-3.4 14.5-5.7 22.2-6.6 4.5-.5 9-.5 13.5 0 2.2.2 4.3.6 6.4 1.2 3.4 1.1 9.5 3.4 9.8 7.5 0 2.4-2.1 4.3-4.1 5.2-.2.1-.4.2-.6.2v.3"/><path class="st7" d="M150.2 33.7c.8 1.9 1 3.9.5 5.9-.6 1.4-1.5 2.7-2.8 3.6-2.1 1.6-4.6 2.4-7.2 2.3-6.1-.2-9.7-7.9-6-12.7 2.8-3.3 7.4-4.6 11.5-3.2 1.9.6 3.3 2.1 4 4.1m48-3.7c.7 1.8-.2 3.5-2.3 3.3-1.4-.3-2.8-.8-4-1.6-1.9-1-3.7-2.2-5.6-3.2-2.6-1.4-5.3-2.7-8.1-3.7-2.6-1-5.3-1.9-8-2.5-2.6-.5-5.2-.7-7.8-.6-.8 0-1.7 0-2.5-.1-.5 0-.9-.2-1.3-.5-.9-1.4 1.8-1.5 2.5-1.9 3.3-.8 6.7-1.2 10.1-1.1 6.9.3 13.7 2.2 19.7 5.6 2.5 1.3 6.1 3.7 7.3 6.3"/><path d="M200.6 20.1c-2.6-1.4-5.4-2.5-8.2-3.2-5.3-1.5-10.8-2.3-16.4-2.4-5-.4-10.1 0-15 1.2-1.6.3-3.1.8-4.6 1.5-.1.2-.6.2-.5.5s.2.1.3 0c1.9-.6 3.9-1.1 5.9-1.4 4.5-.8 9-1 13.6-.7 4.2.1 8.4.7 12.5 1.7 4.1.8 8.1 2.1 11.9 3.8.3.1.5-.1.6-.3.2-.4.1-.6-.1-.7m-31.4 6.3c-1.6-.7-3.3-1.2-5.1-1.6-2.3-.6-4.7-.8-7.1-.9h-.3c-.1 0-.1.1-.1.2s.1.1.2.1c1.9.1 3.7.4 5.6.9 2.2.5 4.4 1.2 6.5 2 .2.1.4 0 .5-.2.1-.2 0-.4-.2-.5m-39.6-3.7c-2.1-.1-1.6 2.9.1 3.1.7.3 1.5-.1 1.8-.8.1-.2.1-.5.1-.8-.3-.9-1.1-1.5-2-1.5m11.4 1.6c-1 0-1.8-.7-1.8-1.6 0-.1-.1-.2-.1-.3-.2-.2-.5-.1-.6.1-.4.6-.4 1.4 0 2 .4.7 1.1 1.1 1.9 1.2.3 0 .6 0 .8-.1.3-.1.5-.5.3-.9-.1-.2-.3-.4-.5-.4"/><path class="st10" d="M112.9 14.3c1.5.3 2.6 1.7 2.5 3.2 0 .7-.1 1.4-.3 2v.1l-.2.6c0 .1-.1.2-.2.3-1.5 3.8-3.9 7.1-6.1 10.5-4.2 5.7-9 10.9-14.4 15.6-6.2 5.8-13.1 11.9-21.8 12.7-4.6-.2-4.5-4.7-3.2-8 1.2-3.1 2.8-6 4.8-8.6 2.6-3.8 5.6-7.4 8.9-10.6 3.8-3.7 7.8-7.1 12.1-10.2 3.6-2.6 7.4-5.2 11.6-6.8 1.8-.7 4.2-1.5 6-.9l.3.1"/><path class="st9" d="M74.3 52.8c-.2-.4-.1-.9.2-1.2.7-.5 1.4-.9 2.1-1.4s1.4-.9 2-1.3c2.3-1.6 4.5-3.3 6.8-5 8.1-6.2 15.9-13.1 21.7-21.5.6-.8 1.1-1.6 1.6-2.5.2-.3.3-.6.7-.8 1-.1-.4 2.4-.6 2.7-1.9 3.5-4.3 6.7-7.1 9.5-4.5 4.8-9.4 9.3-14.6 13.4-2.8 2.4-5.8 4.6-8.9 6.7-.9.6-1.9 1.2-2.8 1.7-.4.3-.9.1-1.1-.3"/><path class="st10" d="M161.5 115.8c2.5 4.7 6.8 17.8-2.4 17.1-3.3-.3-6.1-2.2-8.6-4.2-3.9-2.9-7.4-6.4-10.3-10.4-3.3-4.4-9-15.9-6.3-21.1 1.4-2.8 4.5-2.7 7.1-2 3.1.8 5.7 2.8 8.2 4.7 5.2 4.4 9.4 9.8 12.3 15.9"/><path class="st9" d="M156.6 117.4c-4-.4-7.9-6.2-9.1-9.7-.5-1.6-1.2-3.6-.2-5.1 1.3-1.4 3 .2 3.8 1.3.3.4.7.8.7 1.2-.1.3-.4.1-.5 0-.3-.3-.6-.6-1-.8-.4-.3-1.7-1.5-2-.6-.4 1.8.6 3.8 1.2 5.3 1.4 2.8 3.5 5.6 6.5 6.9.5.2 1 .3 1.6.2.2 0 .5.1.6.3.3.8-.9 1-1.6 1"/><path class="st3" d="M163.1 106.5c0 .9-.2 1.8-.6 2.7-1.1 2.9-4.1 5.1-7.3 4.7-3.7-.5-5.5-4.9-2.5-7.4-1.2-.1-2.7-1-1.7-2.3.6-.6 1.2-1 2-1.2.7-.3 1.4-.5 2.1-.6l2.1-.6c.1 0 .2-.1.3-.1.1 0 .3.1.4.1.4.2.9.4 1.3.6.4.3.7.6 1.1.9.8.6 1.5 1.3 2.2 2 .4.2.6.7.6 1.2"/></g></svg>