<svg xmlns="http://www.w3.org/2000/svg" viewBox="0 0 135.67 227.82"><defs><clipPath id="a" transform="translate(-102.69 -557.34)"><path d="M220.32 658.36l-2.94 3.58a.15.15 0 000 .15 5.59 5.59 0 002.17 1.26 5.48 5.48 0 002.5.18.17.17 0 00.12-.1v-.06l-.42-4.55a.84.84 0 00-1.45-.5m-4.27-1.81a.15.15 0 00-.19.1 5.5 5.5 0 00.36 3.88.15.15 0 00.25 0l2.41-2.93a.16.16 0 00-.11-.2zm7.52 2.31a.16.16 0 00-.19.1.13.13 0 000 .06l.35 3.77a.18.18 0 00.11.14.2.2 0 00.11 0 5.53 5.53 0 002.47-3 .16.16 0 00-.1-.2zm-1.71-6.22a5.54 5.54 0 00-5.15 2.25.15.15 0 00.1.19l3.22 1a.14.14 0 00.15-.05l.45-.54a7.45 7.45 0 001.3-2.44l.07-.24a.16.16 0 00-.1-.2m1.63.66l-.07.25a7.45 7.45 0 00-.3 2.74l.07.7a.13.13 0 00.08.12l3.22 1a.15.15 0 00.19-.1 5.53 5.53 0 00-3-4.75.15.15 0 00-.19.1" fill="#fff"/></clipPath></defs><path d="M111.44 93.5l.49-1.43 1.06-2.71c.19-.47.36-1 .54-1.45a19.56 19.56 0 012.07-4.46 4.29 4.29 0 011.78-1.58c1-.44 2.54-.08 3.89.23l1 .21c2.59.51 3.66.62 5.91 1.1.29.07.6.13.92.19 2.1.39 3.62.77 4.11 2.1a3.61 3.61 0 01-.23 2.47c-.06.19-.12.38-.17.58-.3 1-.7 2-1.09 3-.19.5-.38 1-.56 1.48s-.35 1-.53 1.46l-.08.22c-.6 1.64-1.19 3.29-1.78 4.93l-.48 1.32-.52 1.43c-.4 1.12-.79 2.23-1.19 3.34l-.06.18-1.32 3.7-.49 1.38q-.79 2.2-1.56 4.41c-.51 1.43-1 2.88-1.52 4.31-.12.34-.24.69-.35 1-.21.59-.41 1.19-.63 1.78l-.12.34a13.63 13.63 0 01-.76 1.86 2.23 2.23 0 01-.94 1 2.56 2.56 0 01-1.83-.1c-.84-.31-1.44-.48-2.28-.73l-.61-.18c-2.53-.75-4.08-1.17-6.63-1.84l-1.47-.41-1.79-.49c-1.24-.32-1.87-.74-2.18-1.43a3 3 0 010-1.94 5.87 5.87 0 01.4-1 9.16 9.16 0 00.46-1.09c.09-.29.15-.57.21-.82a4.72 4.72 0 01.19-.72c.54-1.43 1.12-2.92 1.72-4.43.72-1.82 1.49-3.68 2.29-5.56z" fill="#fff"/><path d="M105.69 106.22c-.58 1.39-1.16 2.79-1.72 4.2s-1.16 3-1.72 4.44c-.2.53-.25 1.07-.42 1.59-.24.73-.67 1.36-.88 2.11a4 4 0 00.11 2.65 3.91 3.91 0 002.87 2c1.08.28 2.17.6 3.26.89q3.83 1 7.62 2.14h.09c1 .29 2 .57 3 .93a3.52 3.52 0 002.63.08 3.22 3.22 0 001.43-1.42 18.33 18.33 0 001-2.35c.34-.94.65-1.88 1-2.82l1.53-4.34q.77-2.21 1.56-4.41l.29-.84c.51-1.41 1-2.82 1.52-4.24.41-1.17.83-2.34 1.25-3.51.17-.48.35-1 .52-1.43l.47-1.32c.6-1.64 1.19-3.29 1.79-4.93l.61-1.68c.56-1.52 1.21-3 1.67-4.6.36-1.27.87-2.37.37-3.71-.85-2.31-3.73-2.51-5.8-2.95-2.4-.52-4.79-1-7.2-1.49-1.64-.32-3.88-1.07-5.49-.38a5.48 5.48 0 00-2.24 1.95 29.54 29.54 0 00-2.73 6.13q-1.06 2.75-2.14 5.47z"/><path d="M111.31 93.58l.63-1.51 1.06-2.71c.19-.47.36-1 .54-1.45a19.56 19.56 0 012.07-4.46 4.29 4.29 0 011.78-1.58c1-.44 2.54-.08 3.89.23l1 .21c2.59.51 3.66.62 5.91 1.1.29.07.6.13.92.19 2.1.39 3.62.77 4.11 2.1a3.61 3.61 0 01-.23 2.47c-.06.19-.12.38-.17.58-.3 1-.7 2-1.09 3-.19.5-.38 1-.56 1.48s-.35 1-.53 1.46l-.08.22c-.6 1.64-1.19 3.29-1.78 4.93l-.48 1.32-.52 1.43c-.4 1.12-.79 2.23-1.19 3.34l-.06.18-1.32 3.7-.49 1.38q-.79 2.2-1.56 4.41c-.51 1.43-1 2.88-1.52 4.31-.12.34-.24.69-.35 1-.21.59-.41 1.19-.63 1.78l-.12.34a13.63 13.63 0 01-.76 1.86 2.23 2.23 0 01-.94 1 2.56 2.56 0 01-1.83-.1c-.84-.31-1.44-.48-2.28-.73l-.61-.18c-2.53-.75-4.08-1.17-6.63-1.84l-1.47-.41-1.79-.49c-1.24-.32-1.87-.74-2.18-1.43a3 3 0 010-1.94 5.87 5.87 0 01.4-1 9.16 9.16 0 00.46-1.09c.09-.29.15-.57.21-.82a4.72 4.72 0 01.19-.72c.54-1.43 1.12-2.92 1.72-4.43.72-1.82 1.49-3.68 2.29-5.56l3.99-11.59" fill="#a3c8ef"/><path d="M117.63 101.02l-2.94 3.58a.15.15 0 000 .15 5.59 5.59 0 002.17 1.26 5.48 5.48 0 002.5.18.17.17 0 00.12-.1v-.06l-.42-4.55a.84.84 0 00-1.45-.5m-4.27-1.81a.15.15 0 00-.19.1 5.5 5.5 0 00.36 3.88.15.15 0 00.25 0l2.41-2.93a.16.16 0 00-.11-.2zm7.52 2.31a.16.16 0 00-.19.1.13.13 0 000 .06l.35 3.77a.18.18 0 00.11.14.2.2 0 00.11 0 5.53 5.53 0 002.47-3 .16.16 0 00-.1-.2zm-1.71-6.22a5.54 5.54 0 00-5.15 2.25.15.15 0 00.1.19l3.22 1a.14.14 0 00.15-.05l.45-.54a7.45 7.45 0 001.3-2.44l.07-.24a.16.16 0 00-.1-.2m1.63.66l-.07.25a7.45 7.45 0 00-.3 2.74l.07.7a.13.13 0 00.08.12l3.22 1a.15.15 0 00.19-.1 5.53 5.53 0 00-3-4.75.15.15 0 00-.19.1" fill="#fff"/><g clip-path="url(#a)"><path fill="#fff" d="M111.59 104.497l3.22-10.487 10.563 3.244-3.22 10.487z"/></g><path d="M15.62 216.92c-1.52-.72-6.58-1.38-7.79-.12a14.71 14.71 0 00-2.48 1.59 16.19 16.19 0 00-4.59 4.21c-2.52 3.92 1.74 5.07 4.89 5.16 3.22.07 10.62.58 11.89-3.05a7.35 7.35 0 00.21-3.78c-.31-1.49-.57-3.34-2.13-4.01zm63.79 1.74c-1.26-1-2.84-1.74-4.23-2.63-.94-.59-1.87-1.21-2.85-1.72-1.85-.73-3.9-.48-5.84-.3-1.37.09-3 .29-2.73 2.1a8.77 8.77 0 00-.56 5.37c.72 2.86 4.25 2.89 6.65 2.9 3.18-.06 6.37 0 9.44-1 2.67-.97 1.85-3.34.12-4.72z" fill="#fff"/><path d="M75.31 189.79a77.45 77.45 0 01.2 15.6c-.22 2.1-.56 4.18-.94 6.25a13.36 13.36 0 01-.92 3.29c-.46 1.2-4 1.62-5.18 1.8a14.77 14.77 0 01-4.45.14c-.75-.2-.81-1.08-1-1.71-1.28-4.93-2.78-8.72-6.16-12.63-4.42-5-10.4-8.82-17.18-9.35-9.64-.87-17.18 7.47-20 15.93a62.33 62.33 0 00-2 8.2 2.48 2.48 0 01-2.45 2 16.19 16.19 0 01-4.23.08 22.47 22.47 0 01-3.15-.51 3 3 0 01-1.72-.86c-.93-1.08-1.12-2.56-1.48-3.89s-.63-2.75-.85-4.14a64.24 64.24 0 01.94-25.35c1.91-8.68 4.41-17.42 9.51-24.83.85-1.24 1.72-2.47 2.66-3.64a7 7 0 013.48-2.74 15.79 15.79 0 014.48-.57 59.75 59.75 0 019.36.61 72.23 72.23 0 0121.78 6.3c3.6 1.71 7.26 3.48 10 6.41a40.23 40.23 0 013.63 5.09.39.39 0 01.26.21 12.45 12.45 0 01.9 1.74 58.21 58.21 0 012.26 5.84 49.46 49.46 0 012.25 10.73z"/><path d="M105.84 123.42c.57 4 1.94 5.63-1.8 8.63-5.85 4.2-13 6.3-19.93 7.85l-1 .2c-.26 2.38-.54 4.76-.76 7.15-.95 7.79-1.91 15.73-5 23-1.31 3.35-4.89 4.81-8.23 5.24a59.93 59.93 0 01-14.83.9 56.92 56.92 0 01-17.26-4 59 59 0 01-9.22-4c-5.17-3.2-12.62-9.17-12.68-15.76.09-5 3.63-8.92 6.9-12.33 1.62-1.75 3.13-3.75 4.74-5.48a150.17 150.17 0 0011.06-13.21 56 56 0 003.55-6c.62-1.23 1.21-2.48 1.84-3.71a2.22 2.22 0 011.4-1.42c2.3-.49 4.7.28 7 .49a73.65 73.65 0 009.38.74 37.3 37.3 0 008.38-.66q3.09-.62 6.13-1.47c2.59-1 6-1.06 6.81 2.25.32.25.24.72.32 1.07.14 1 .34 2.16.52 3.13a38.13 38.13 0 01.73 6.81c.43-.06.86-.12 1.29-.2a37.66 37.66 0 009.39-3.22c1.85-.79 3.64-1.73 5.53-2.44 1.23-.4 2.63-1.11 3.86-.36s1.23 2.74 1.46 4.08c.05.87.25 1.79.42 2.72z" fill="#d3373b"/><path d="M114.88 115.37c4.21 1.41 4.85 7.24 2.07 10.27-2.39 2.76-6.31 2.84-9.69 3-2.84.23-4-2.16-4.6-4.52a14.57 14.57 0 01-.79-4.32c.33-1.73 2.24-2.43 3.4-3.52.89-.84 1.82-1.63 2.64-2.53 1.05-1.16 3-1.78 4.32-.68.58.55.64 1.47 1.33 1.92a11.28 11.28 0 001.32.38z" fill="#fff"/><path d="M82.38 139.39c-1.63.18-3.25.48-4.89.57a47.33 47.33 0 01-8.23-.39c-1.23-.22-2.47-.4-3.7-.61-.55-.09-1.1-.17-1.65-.28a.64.64 0 00-.89.37c-.16.92 1.06.8 1.65 1a33.42 33.42 0 008.15 1.11 48.63 48.63 0 009.71-.62.59.59 0 00-.15-1.15zm.43-16.79a85.71 85.71 0 01-13.31.06l-2.07-.14a13 13 0 00-1.54-.06c-.11 0-.33 0-.38.14a.18.18 0 00.11.23 17.44 17.44 0 002.26.47 54.41 54.41 0 008.27.71 40.56 40.56 0 006.78-.49.464.464 0 00-.12-.92z" fill="#a7191c"/><path d="M84.98 99.42c2.28 2.72 2.18 6.63 1.24 9.87a13.2 13.2 0 01-5.16 6.64 22.65 22.65 0 01-8.23 3.15 46.4 46.4 0 01-9.71.45c-2.79-.09-5.55-.51-8.33-.79-3.16-.37-6.62-.91-9-3.18-.43-.55-1-.91-1.42-1.5a8.27 8.27 0 01-1.25-5.57c.15-2.7 1.31-5.54 3.92-6.67 2.07-1 4.41-.44 6.61-.46 2.93 0 6-.07 8.89-.24a64.19 64.19 0 0012.35-2.39c2.33-.53 4.71-1.51 7.14-1.24a5.07 5.07 0 012.95 1.93z" fill="#fcd47d"/><path d="M90.13 95.91c-4.08 6.29-11.88 14.69-19.29 16.6-8.16 1.86-17-.54-23.72-5.34-3.25-2.42-6.57-5.08-8.45-8.74-.58-1.21-1-2.51-1.63-3.68-1.43-2.5-3.16-4.9-3.93-7.72-1.57-5.36-.55-11.17 1.95-16.09a25 25 0 018.37-8.78 36.17 36.17 0 0112.88-5.5l1.82-.41a14 14 0 00-1-1.47 28.11 28.11 0 00-2.78-3.09c-4.75-4.49-10.05-8.5-15-12.7q-3-2.23-5.9-4.48c-2.35-1.88-4.88-3.69-6.58-6.22a12.17 12.17 0 01-1.85-5.24 10.61 10.61 0 014.32-9.54 9.55 9.55 0 017.6-2 25.6 25.6 0 0111.45 5.67l.46.38a13.77 13.77 0 01-1.74-6.21 11.75 11.75 0 012.59-7.5 11 11 0 0114.06-2.27c4.64 2.46 5.83 8 6.64 12.76a102.56 102.56 0 011.48 11.85 156.74 156.74 0 01-1 19.62 69.59 69.59 0 01-2 10.14 23.93 23.93 0 0112.82 7.27c3.53 4.29 5.35 9.66 6.4 15.05.64 2.91 2.85 5.11 3.8 7.88 1.41 3.45.18 6.82-1.77 9.76z" fill="#fff"/><path d="M67.72 55.98a86.47 86.47 0 00-2-9.57 53.45 53.45 0 00-2.5-7.75c-2.29-5.39-5.74-10.25-9.18-15-1.66-2-3.47-4-5.21-5.95-.11-.12-.23-.24-.33-.37s-.17-.21-.1-.34c.45-.65 2.79 2.24 3.24 2.61a52.56 52.56 0 018.53 11.14 57.7 57.7 0 017.49 19.8c.33 1.75.71 3.49.94 5.26a.45.45 0 01-.88.17z"/><path d="M63.08 48.05c.68 1.28 3 8.07 1.23 8.63-.42.15-1.05.36-1.38 0-.23-.81-.22-1.71-.49-2.52a23.58 23.58 0 00-2.2-5 44.44 44.44 0 00-4.49-5.64 71.17 71.17 0 00-5.07-5.06c-2.62-2.35-5.44-4.45-8-6.81-1.93-1.82-4.08-3.47-5.62-5.64-1-1.44-.83-3.67 1.32-3.65a5.28 5.28 0 012 .39 20.06 20.06 0 014.6 2.49 39.34 39.34 0 016.39 6.18c1.16 1.24 2.3 2.52 3.41 3.81a54.55 54.55 0 018.3 12.82zm6.09 42.66c-1.42 2.49-3.16 5.12-5.91 6.23-4.1 1.76-9 .54-12.36-2.28-6.68-6-2.4-15.82 5.71-17.63a12.75 12.75 0 018.9 1.06 9.09 9.09 0 013.66 12.62z" fill="#fcd47d"/><path d="M77.48 74.88c-.27-.35-.37-.8-.71-1.08a1 1 0 00-1.49.44 4.31 4.31 0 00.16 1.59 3.23 3.23 0 001.09 1.71 1 1 0 001.48-.56 3.38 3.38 0 00-.53-2.1zm12.63 10.1c-.34-.64-1.1-.7-1.75-.72-1.26-.28-3.05.76-2.1 2.15.8.9 3.07 1 3.77-.12a1.2 1.2 0 00.08-1.31z"/></svg>