<svg xmlns="http://www.w3.org/2000/svg" viewBox="0 0 221.86 183.15"><defs><clipPath id="a"><path fill="none" d="M0 0h221.86v183.15H0z"/></clipPath></defs><g clip-path="url(#a)"><path d="M215.79 95.51c-1.65 23.61-3.37 48.79-5 72.41a2.18 2.18 0 01-.25 1.08 1.78 1.78 0 01-1.61.61c-15.57-.47-31.11-.88-46.69-1.74-5-.28-10.09-.39-15.06-.69-8.19-.5-17.42-.64-25.68-1.39.78-23.2 3.17-52.26 3.74-75.21l39.24 2.3 44.25 1.87z" fill="#d3373b"/><path d="M220.51 98.48q-44.52-3.33-89.19-4.6c-3.68-.11-9.22-.37-12.9-.47.37-7.77.7-14.63 1.07-22.4 0-.13-.09-1 0-1.1 33.87 1 68.51 2.58 102.34 4.52-.64 7.56-.78 16.51-1.35 24" fill="#14386c"/><path d="M174.44 71.72c3.15-4.84 7.73-9 13.56-10.18a11.9 11.9 0 014.49-.06 5.91 5.91 0 012.85 1c2 1.78 1.73 3.53-.65 5.89-1.6 2.28-6.58 3-9.11 3.34-3.32.46-8.62 1.36-11.05-1.74-1.39-1.78-2-4.9-3.13-6.93a29.92 29.92 0 00-9.64-10.63c-5-3.14-14.7-4.1-12.7 4.78.82 3.62 3.88 6.22 6.82 8.19 5 3.32 10.29 6.14 15.36 9.3 1.76 1.07 3.61-1.68 1.83-2.68-5.69-3.17-11.94-6.15-17.09-10.17a9.33 9.33 0 01-3.41-4c-1.17-3.39 1.21-5.21 4.27-4a21.49 21.49 0 018.71 6.64c2.42 3 3.83 6.16 5.49 9.54.84 1.71 1.55 3.39 3.33 4.3 3.86 2 11.26.66 15.24-.43 3.69-1 8.83-3.14 10.17-7.14 1.13-3.37-1.1-6.25-4.08-7.59-9.19-4.15-19.11 3.46-23.76 10.85-1.05 1.66 1.43 3.4 2.5 1.75" fill="#fff"/><path d="M173 70.93c-4.54.19-8.25 2-11.82 4.78-2.25 1.73-4.28 3.73-6.55 5.43-2.88 2.16-6.11 3.49-9.11 5.4a1.72 1.72 0 001.49 3.1c9.44-3.75 15.68-15.33 26.16-16 1.52-.09 1.38-2.77-.17-2.7" fill="#fff"/><path d="M172.37 73.34c1.36 4.54 2.38 9.74 5.31 13.59 2.35 3.09 6.82 6.63 10.78 6.94a1.51 1.51 0 001.24-2.45c-2.45-2.94-6.54-3.89-9.08-7-2.76-3.36-3.91-8-5.38-12-.58-1.6-3.37-.71-2.87 1" fill="#fff"/><path d="M151.36 125.75a10.18 10.18 0 01-2.47-.89 4.64 4.64 0 01-1.44-1.14 1.09 1.09 0 01-.14-.35 1.14 1.14 0 01-.06-.76 1 1 0 01.6-.69 1.42 1.42 0 01.68 0l.25.08a2.7 2.7 0 01.62.33 9.33 9.33 0 00.95.46 8 8 0 001.3.38 8.63 8.63 0 002.76.14 8.1 8.1 0 001.34-.35 8 8 0 001.12-.68 12.07 12.07 0 001.62-1.68 4.58 4.58 0 00.37-.69v-.05a4.7 4.7 0 00.27-.88 4.48 4.48 0 00.05-1.44 14.42 14.42 0 00-.45-1.59 6.27 6.27 0 00-.5-.88 4 4 0 00-2.14-1.37h-.26a20.24 20.24 0 00-3.13.1h-.51c-.38 0-.76.08-1.14.1h-.4a6.43 6.43 0 01-1.17-.11 2.47 2.47 0 01-1.63-1.18 3.17 3.17 0 01-.41-1.53 12.06 12.06 0 010-1.5c.05-.9.13-1.8.23-2.71.1-1.15.21-2.15.31-3q.06-.7.12-1a3.53 3.53 0 01.15-.46 1.52 1.52 0 01.58-.82 2.7 2.7 0 011.59-.52.85.85 0 00.23 0h.47c.94 0 1.88-.1 2.82-.12l3.63-.12a3.14 3.14 0 01.89 0 1 1 0 01.39.16 1.23 1.23 0 01.37.21 1.77 1.77 0 01.52.56.92.92 0 01.06.66 1.6 1.6 0 01-1.15 1.14 2.63 2.63 0 01-.86.16h-1.72l-4.67.17h-.56c0 .08 0 .16-.05.26-.05.45-.1.9-.13 1.34l-.1 1q-.11 1.2-.18 2.43v.07a14.55 14.55 0 000 2 8.43 8.43 0 002-.08l1.74-.11a11.38 11.38 0 012.55.16 6.12 6.12 0 011.94.8l.72.56a5.59 5.59 0 011.41 1.63 9.32 9.32 0 01.69 1.6 9.88 9.88 0 01.43 2.78 1.27 1.27 0 010 .34 4.49 4.49 0 01-.11.82 6.5 6.5 0 01-.29 1 1 1 0 00-.07.21.4.4 0 00-.09.21 6.72 6.72 0 01-1.09 1.75 9.13 9.13 0 01-3 2.51 5.56 5.56 0 01-1.46.53 9.9 9.9 0 01-4.3 0" fill="#fcd583"/><path d="M151.36 125.75a10.18 10.18 0 01-2.47-.89 4.64 4.64 0 01-1.44-1.14 1.09 1.09 0 01-.14-.35 1.14 1.14 0 01-.06-.76 1 1 0 01.6-.69 1.42 1.42 0 01.68 0l.25.08a2.7 2.7 0 01.62.33h0a9.33 9.33 0 00.95.46 8 8 0 001.3.38 8.63 8.63 0 002.76.14 8.1 8.1 0 001.34-.35 8 8 0 001.12-.68 12.07 12.07 0 001.62-1.68 4.58 4.58 0 00.37-.69v-.05a4.7 4.7 0 00.27-.88 4.48 4.48 0 00.05-1.44 14.42 14.42 0 00-.45-1.59 6.27 6.27 0 00-.5-.88 4 4 0 00-2.14-1.37h-.26a20.24 20.24 0 00-3.13.1h-.51c-.38 0-.76.08-1.14.1h-.4a6.43 6.43 0 01-1.17-.11 2.47 2.47 0 01-1.63-1.18 3.17 3.17 0 01-.41-1.53 12.06 12.06 0 010-1.5c.05-.9.13-1.8.23-2.71.1-1.15.21-2.15.31-3q.06-.7.12-1a3.53 3.53 0 01.15-.46 1.52 1.52 0 01.58-.82 2.7 2.7 0 011.59-.52.85.85 0 00.23 0h.47c.94 0 1.88-.1 2.82-.12h0l3.63-.12a3.14 3.14 0 01.89 0 1 1 0 01.39.16 1.23 1.23 0 01.37.21 1.77 1.77 0 01.52.56.92.92 0 01.06.66 1.6 1.6 0 01-1.15 1.14 2.63 2.63 0 01-.86.16h-1.72l-4.67.17h-.56c0 .08 0 .16-.05.26-.05.45-.1.9-.13 1.34l-.1 1q-.11 1.2-.18 2.43v.07a14.55 14.55 0 000 2 8.43 8.43 0 002-.08l1.74-.11a11.38 11.38 0 012.55.16 6.12 6.12 0 011.94.8l.72.56a5.59 5.59 0 011.41 1.63 9.32 9.32 0 01.69 1.6 9.88 9.88 0 01.43 2.78 1.27 1.27 0 010 .34 4.49 4.49 0 01-.11.82 6.5 6.5 0 01-.29 1 1 1 0 00-.07.21.4.4 0 00-.09.21 6.72 6.72 0 01-1.09 1.75 9.13 9.13 0 01-3 2.51 5.56 5.56 0 01-1.46.53 9.9 9.9 0 01-4.39.05z" fill="none" stroke="#fcd583" stroke-linecap="round" stroke-linejoin="round"/><path d="M174.08 111.91a7.79 7.79 0 00-3.33-2.81c-.85-.47-1.23-.89-1.15-1.26q.14-.84 1.68-.72c2.69 1.1 3.93 2.23 3.71 3.41a6.35 6.35 0 010 .94.76.76 0 01-.87.44m-6.52 12.59c-.78-.28-1.11-.7-1-1.28.05-.32.31-.58.75-.77l.64.12 6.88-4.5h.51a1.14 1.14 0 01.9 1c-.11.56-1.45 1.59-4 3.1q-3.18 2.58-4.64 2.31m11.61-10.24c-.39-.09-.59-.42-.62-1l.11-.62q.08-.43 1.66-4.52l.09-.45a.66.66 0 00-.13-.28.5.5 0 00-.27-.1c.47-.83 1-1.19 1.57-1.09s1 .92.95 2.41v.1q-1.92 5.8-3.32 5.56m12.49 17.21c-.94-.17-2.66-1.65-5.16-4.42a12.39 12.39 0 01-2.86-3 5.1 5.1 0 00-.44-.32 11.8 11.8 0 01-3.39 3.88 2.93 2.93 0 01-1.67.63c-.66-.32-.95-.74-.86-1.27.08-.37.44-.65 1.09-.86a16.94 16.94 0 005-9.09 4.88 4.88 0 00.09-.93 1.66 1.66 0 01.45-1 .93.93 0 01.82-.25c.74.14 1 1.24.71 3.29v.22a17.33 17.33 0 01-1.55 4.23c.61.11 1.67.85 3.18 2.24a34 34 0 014.71 4.24c1.06.61 1.54 1.16 1.45 1.63s-.59.79-1.51.76m-.83-13.93q-.57-.27-.51-.6v-.22c1.68-1.66 2.57-2.8 2.69-3.42l.1-.59-.09-.07-.66-.13q-.44-.08-7.06-.17a16.42 16.42 0 01-1.81-.19c-.38-.2-.55-.41-.51-.62v-.21c0-.24.6-.41 1.67-.52s2.61-.19 4.6-.21a16 16 0 014 .12 2.49 2.49 0 012.17 2.36l-.11.51a6.79 6.79 0 01-2.3 3.41 5 5 0 01-2.28.55" fill="#fcd583"/><path d="M174.08 111.91a7.79 7.79 0 00-3.33-2.81c-.85-.47-1.23-.89-1.15-1.26q.14-.84 1.68-.72c2.69 1.1 3.93 2.23 3.71 3.41a6.35 6.35 0 010 .94.76.76 0 01-.91.44zm-6.52 12.59c-.78-.28-1.11-.7-1-1.28.05-.32.31-.58.75-.77l.64.12 6.88-4.5h.51a1.14 1.14 0 01.9 1c-.11.56-1.45 1.59-4 3.1q-3.24 2.6-4.68 2.33zm11.61-10.24c-.39-.09-.59-.42-.62-1l.11-.62q.08-.43 1.66-4.52l.09-.45a.66.66 0 00-.13-.28.5.5 0 00-.27-.1c.47-.83 1-1.19 1.57-1.09s1 .92.95 2.41v.1q-1.96 5.8-3.36 5.55zm12.49 17.21c-.94-.17-2.66-1.65-5.16-4.42a12.39 12.39 0 01-2.86-3 5.1 5.1 0 00-.44-.32 11.8 11.8 0 01-3.39 3.88 2.93 2.93 0 01-1.67.63c-.66-.32-.95-.74-.86-1.27.08-.37.44-.65 1.09-.86a16.94 16.94 0 005-9.09 4.88 4.88 0 00.09-.93 1.66 1.66 0 01.45-1 .93.93 0 01.82-.25c.74.14 1 1.24.71 3.29v.22a17.33 17.33 0 01-1.55 4.23c.61.11 1.67.85 3.18 2.24a34 34 0 014.71 4.24c1.06.61 1.54 1.16 1.45 1.63s-.65.81-1.57.78zm-.83-13.93q-.57-.27-.51-.6v-.22c1.68-1.66 2.57-2.8 2.69-3.42l.1-.59-.09-.07-.66-.13q-.44-.08-7.06-.17a16.42 16.42 0 01-1.81-.19c-.38-.2-.55-.41-.51-.62v-.21c0-.24.6-.41 1.67-.52s2.61-.19 4.6-.21a16 16 0 014 .12 2.49 2.49 0 012.17 2.36l-.11.51a6.79 6.79 0 01-2.3 3.41 5 5 0 01-2.18.55z" fill="none" stroke="#fcd583" stroke-miterlimit="10" stroke-width=".4"/><path d="M142.68 140.16a.55.55 0 01-.39-.28.94.94 0 01-.09-.54 16.09 16.09 0 012.5-3.71 5.8 5.8 0 00.58-1.15v-.58a1.19 1.19 0 01.74-.21c.48.09.75.53.78 1.31q-.32 1.65-3.07 4.63a3.8 3.8 0 01-.55.33c.72.14 1 1.5.76 4.07-.19 4.36-.28 6.83-.28 7.43a.88.88 0 01-.9.53h-.06c-.57-.1-.83-.6-.77-1.51 0-2 .21-5.37.52-10.07a2.49 2.49 0 01.22-.23m4.41 5.7c-.45-.08-.68-.41-.68-1l.21-1.14a.89.89 0 01.29-.52.54.54 0 01.52-.12c.2 0 .34.19.44.46a2.63 2.63 0 01.12 1 1.92 1.92 0 010 .85 4.76 4.76 0 01.5-.51h.11v-.08a1.66 1.66 0 01.47.27 1.13 1.13 0 01.27.39c-.46 1.35-.92 2-1.39 1.89h-.15a.91.91 0 01-.68-.64v-.1a2.27 2.27 0 01.56-.9.93.93 0 01-.65.14m3.71-11.16q-.63-.24-.57-.63c.07-.35.84-.5 2.32-.48s3.52-.22 6.19-.29c.53.19.76.51.69.94s-.93.57-2.56.63a.49.49 0 01.08.39 2.5 2.5 0 01-1 1.7h.81a15.59 15.59 0 012.26.14c.61.11 1 .59 1.16 1.44A10.25 10.25 0 01160 142a2.55 2.55 0 01-.45 1.2h.51c.71.13 1.17.7 1.39 1.73a1.06 1.06 0 010 .47 2.67 2.67 0 01-.41.94.56.56 0 01-.56.28c-.24-.05-.54-.74-.91-2.07l-6.84-.13a9.81 9.81 0 01-2.67.06h-.16a.63.63 0 01-.49-.47v-.21c0-.26.61-.45 1.67-.57h.14c-.33-.09-.53-.38-.62-.86a5.86 5.86 0 01.09-2 1.64 1.64 0 010-.51c.06-.41.15-1 .28-1.66a.9.9 0 01.27-.52.61.61 0 01.53-.12c.45.08.61.83.48 2.26a20.26 20.26 0 01-.06 3 2.07 2.07 0 01-.48.33c1-.08 2.3-.13 3.91-.14 1 .07 1.81.12 2.38.13-.11-.15-.25-.33-.41-.56l.05-.24.49-.26a22.73 22.73 0 00.4-3v-.63a33.92 33.92 0 00-5-.21 1.27 1.27 0 01-.38-.22.28.28 0 01-.1-.29v-.16c0-.26.71-.44 2-.56a1 1 0 01-.12-.23 5.06 5.06 0 01.86-1.9h-.75a14.06 14.06 0 01-4.27-.18m-1.14 16.06a.56.56 0 01-.26-.18.59.59 0 01-.13-.3q.07-.43 2.64-2.55a.41.41 0 01.05-.09 1.4 1.4 0 01-.34-1.1 3.14 3.14 0 01.45-1 .63.63 0 01.59-.29.6.6 0 01.46.45 2.5 2.5 0 01.08.94.32.32 0 00.18.1 9 9 0 002.56.06 5.78 5.78 0 01-1.19-.57c-.3-.18-.44-.36-.42-.55a.69.69 0 01.73-.37 6.39 6.39 0 011.47 1v.17c0 .08-.11.17-.26.26q.51-.08 1.08-.21h.35a.91.91 0 01.63.73c-.06.37-.49.62-1.27.76a17.08 17.08 0 01-3.32.17l-.42-.07h-.19s-.06 0-.06.06a6.12 6.12 0 01-2.21 2.4 2 2 0 01-1.25.16M153.2 140c-.24-.14-.36-.3-.36-.46v-.18c0-.19.38-.32 1-.42a25.67 25.67 0 012.83-.16 1 1 0 01.76.68l-.06.26c0 .15-.41.24-1.13.28s-1.76 0-3.11 0m.81 2.17l-.63-.13a.76.76 0 01-.53-.51c.05-.28.39-.45 1-.51a15.9 15.9 0 012.63 0l.81.17a.73.73 0 01.33.16.3.3 0 01.11.28v.13a5.23 5.23 0 01-3.7.37m2.5 14.26a10.45 10.45 0 01-2.57-1.39 2.58 2.58 0 01-1.24.2 2.19 2.19 0 01-1.36-.84c0-.25.35-.44.91-.56a6.3 6.3 0 01-1.14-1.36v-.28a.67.67 0 01.63-.26 13.76 13.76 0 012.32 1.19 4.81 4.81 0 001.9-1.65l-3.16-.43a1 1 0 01-.37-.21.32.32 0 01-.11-.29.56.56 0 01.5-.43 2.64 2.64 0 011.08 0h2.94c.81.31 1.15.8 1 1.48a6 6 0 01-2.23 2.57c.27.18 1 .59 2.28 1.24l.12.3-.05.22a1.69 1.69 0 01-1.53.51m4.42-7.66a3.83 3.83 0 01-1.47-1.22.65.65 0 01-.4-.51v-.19c0-.21.3-.32.79-.32a2.8 2.8 0 012 1.59v.12c-.06.31-.35.48-.88.53" fill="#fcd583"/><path d="M142.68 140.16a.55.55 0 01-.39-.28.94.94 0 01-.09-.54 16.09 16.09 0 012.5-3.71 5.8 5.8 0 00.58-1.15v-.58a1.19 1.19 0 01.74-.21c.48.09.75.53.78 1.31q-.32 1.65-3.07 4.63a3.8 3.8 0 01-.55.33c.72.14 1 1.5.76 4.07-.19 4.36-.28 6.83-.28 7.43a.88.88 0 01-.9.53h-.06c-.57-.1-.83-.6-.77-1.51 0-2 .21-5.37.52-10.07a2.49 2.49 0 01.22-.23zm4.41 5.7c-.45-.08-.68-.41-.68-1l.21-1.14a.89.89 0 01.29-.52.54.54 0 01.52-.12c.2 0 .34.19.44.46a2.63 2.63 0 01.12 1 1.92 1.92 0 010 .85 4.76 4.76 0 01.5-.51h.11v-.08a1.66 1.66 0 01.47.27 1.13 1.13 0 01.27.39c-.46 1.35-.92 2-1.39 1.89h-.15a.91.91 0 01-.68-.64v-.1a2.27 2.27 0 01.56-.9.93.93 0 01-.59.15zm3.71-11.16q-.63-.24-.57-.63c.07-.35.84-.5 2.32-.48s3.52-.22 6.19-.29c.53.19.76.51.69.94s-.93.57-2.56.63a.49.49 0 01.08.39 2.5 2.5 0 01-1 1.7h.81a15.59 15.59 0 012.26.14c.61.11 1 .59 1.16 1.44A10.25 10.25 0 01160 142a2.55 2.55 0 01-.45 1.2h.51c.71.13 1.17.7 1.39 1.73a1.06 1.06 0 010 .47 2.67 2.67 0 01-.41.94.56.56 0 01-.56.28c-.24-.05-.54-.74-.91-2.07l-6.84-.13a9.81 9.81 0 01-2.67.06h-.16a.63.63 0 01-.49-.47v-.21c0-.26.61-.45 1.67-.57h.14c-.33-.09-.53-.38-.62-.86a5.86 5.86 0 01.09-2 1.64 1.64 0 010-.51c.06-.41.15-1 .28-1.66a.9.9 0 01.27-.52.61.61 0 01.53-.12c.45.08.61.83.48 2.26a20.26 20.26 0 01-.06 3 2.07 2.07 0 01-.48.33c1-.08 2.3-.13 3.91-.14 1 .07 1.81.12 2.38.13-.11-.15-.25-.33-.41-.56l.05-.24.49-.26a22.73 22.73 0 00.4-3v-.63a33.92 33.92 0 00-5-.21 1.27 1.27 0 01-.38-.22.28.28 0 01-.1-.29v-.16c0-.26.71-.44 2-.56a1 1 0 01-.12-.23 5.06 5.06 0 01.86-1.9h-.75a14.06 14.06 0 01-4.24-.18zm-1.14 16.06a.56.56 0 01-.26-.18.59.59 0 01-.13-.3q.07-.43 2.64-2.55h0a.41.41 0 01.05-.09 1.4 1.4 0 01-.34-1.1 3.14 3.14 0 01.45-1 .63.63 0 01.59-.29h0a.6.6 0 01.46.45 2.5 2.5 0 01.08.94.32.32 0 00.18.1 9 9 0 002.56.06 5.78 5.78 0 01-1.19-.57c-.3-.18-.44-.36-.42-.55a.69.69 0 01.73-.37 6.39 6.39 0 011.47 1v.17c0 .08-.11.17-.26.26q.51-.08 1.08-.21h.35a.91.91 0 01.63.73c-.06.37-.49.62-1.27.76a17.08 17.08 0 01-3.32.17l-.42-.07h-.19s-.06 0-.06.06a6.12 6.12 0 01-2.21 2.4 2 2 0 01-1.2.18zM153.2 140c-.24-.14-.36-.3-.36-.46v-.18c0-.19.38-.32 1-.42a25.67 25.67 0 012.83-.16 1 1 0 01.76.68l-.06.26c0 .15-.41.24-1.13.28s-1.69 0-3.04 0zm.81 2.17l-.63-.13a.76.76 0 01-.53-.51c.05-.28.39-.45 1-.51a15.9 15.9 0 012.63 0l.81.17a.73.73 0 01.33.16.3.3 0 01.11.28v.13a5.23 5.23 0 01-3.73.39zm2.5 14.26a10.45 10.45 0 01-2.57-1.39 2.58 2.58 0 01-1.24.2 2.19 2.19 0 01-1.36-.84c0-.25.35-.44.91-.56a6.3 6.3 0 01-1.14-1.36v-.28a.67.67 0 01.63-.26 13.76 13.76 0 012.32 1.19 4.81 4.81 0 001.9-1.65h0l-3.16-.43a1 1 0 01-.37-.21.32.32 0 01-.11-.29.56.56 0 01.5-.43 2.64 2.64 0 011.08 0h2.94c.81.31 1.15.8 1 1.48a6 6 0 01-2.23 2.57c.27.18 1 .59 2.28 1.24l.12.3-.05.22a1.69 1.69 0 01-1.45.48zm4.42-7.66a3.83 3.83 0 01-1.47-1.22.65.65 0 01-.4-.51v-.19c0-.21.3-.32.79-.32a2.8 2.8 0 012 1.59v.12c-.1.29-.39.46-.92.51z" fill="none" stroke="#fcd583" stroke-miterlimit="10" stroke-width=".4"/><path d="M167.46 158.75c-.61-.11-.85-.69-.75-1.74.39-1.63.82-2.4 1.32-2.31h.06q.57.1.39 2.19a4.45 4.45 0 010 1.44 1.07 1.07 0 01-1 .41m5.52-6.64a1.27 1.27 0 01-1.08-.91c.08-.45.64-.66 1.67-.64.67-.15 1.16-.28 1.46-.37a2.29 2.29 0 00.46-.16v-.12a11.41 11.41 0 01-2.73 0 1.12 1.12 0 01-.86-.68c.29-.38.59-.54.88-.48a1.23 1.23 0 00.3.1l1.16-.14a9 9 0 011.48-.17l.3-1.79a11.13 11.13 0 01-2.64 0c-.15 0-.3-.18-.44-.45q.14-.78 3.3-1.23c.07-.64.11-1 .12-1.07q-1.44-.07-2.13-.06a2.42 2.42 0 00-.74.06c0 .14-.15.23-.36.29l-.3-.05a.45.45 0 01-.21-.24.53.53 0 010-.33c.12-.68 1.17-1 3.14-1.05h.12a5.57 5.57 0 01.63 0c.06-.43.12-.83.18-1.21a2.3 2.3 0 01.12-.48 36 36 0 01-5.66-.3c-.41-.19-.6-.44-.55-.73.1-.5 1.22-.65 3.37-.46h3v-.32c0-.12.06-.36.12-.7a1.62 1.62 0 01.32-.71.51.51 0 01.48-.2c.24 0 .42.25.52.6a4.5 4.5 0 01.11 1.34h5.42a.79.79 0 01.64.54v.22c0 .22-.6.39-1.66.5s-2.57.18-4.51.22l-.16 1.62a28.53 28.53 0 014.89 0 1.59 1.59 0 01.92 1.05 4.07 4.07 0 010 1.86 7.72 7.72 0 01-1 2.83 1.48 1.48 0 01-1.56.74 2.65 2.65 0 00-1.31.27l-2.34.41-.6.1-.06.06c-.06.06-.07.33-.11.48h.08a34.51 34.51 0 013.56.23 3.27 3.27 0 011.1.43.61.61 0 01.32.6c0 .22-.43.35-1.18.41a31.4 31.4 0 01-3.19 0 38.25 38.25 0 01-4.9.14m-1.42-3.81a1 1 0 01-.82-.79 5.44 5.44 0 01-.21-1.91l.33-3.21q.28-.75.87-.63.38.06.39 1.29a23.5 23.5 0 01.25 3.21c.12 0 .16.53.13 1.53-.06.38-.38.55-.94.51m2.47 12.66a2.4 2.4 0 01-2.08-1.74 2.34 2.34 0 010-1.12l.19-1a.77.77 0 00-.11-.33v-.17c0-.14.18-.24.44-.29.56.11.88.88 1 2.32a1.07 1.07 0 00.84.84 12.67 12.67 0 005.12-.15.69.69 0 00.06-.18l-.93-.59-.06-.22v-.1c0-.14.18-.24.44-.29 2.1.52 3.11 1 3 1.36 0 .11 0 .17.08.18h.05c-.1.56-.7 1-1.78 1.22a23.5 23.5 0 01-4.62.46 12.65 12.65 0 01-1.59-.18m2.45-2.64c-.73-.15-1.1-.75-1.11-1.81a1.08 1.08 0 01.67-.85l.32.06a4.89 4.89 0 011 1.05 8.08 8.08 0 00.91-.19c.27.16.38.31.35.45v.12c-.86.88-1.56 1.26-2.11 1.17m1.21-10.12a10.09 10.09 0 002.58-.37v-.54h.23a.52.52 0 000-.16l1 .6a7.93 7.93 0 00.85-2.75q.15-.83.15-1c0-.15 0-.22-.05-.22s-1.55 0-4.23.17l-.09.72a.51.51 0 010 .14v.07a8.1 8.1 0 011.92 0c.76.32 1.11.63 1 .93v.05c-.08.44-1.12.69-3.12.74zm6.27 6.49h-.12a2.75 2.75 0 01-1-2.62c0-.17.21-.31.51-.4.47.09.85.6 1.15 1.55a4.75 4.75 0 010 1.08.55.55 0 01-.22.32.43.43 0 01-.38.08m.67 4.75c-.5-.09-1-.63-1.53-1.6 0-.11-.4-.28-1-.53L182 157a.62.62 0 01.64-.27 7.62 7.62 0 012.91 1.38 1.43 1.43 0 01.17.62c-.07.44-.48.68-1.21.71" fill="#fcd583"/><path d="M167.46 158.75c-.61-.11-.85-.69-.75-1.74.39-1.63.82-2.4 1.32-2.31h.06q.57.1.39 2.19a4.45 4.45 0 010 1.44 1.07 1.07 0 01-1.02.42zm5.54-6.65a1.27 1.27 0 01-1.08-.91c.08-.45.64-.66 1.67-.64.67-.15 1.16-.28 1.46-.37a2.29 2.29 0 00.46-.16v-.12a11.41 11.41 0 01-2.73 0 1.12 1.12 0 01-.86-.68c.29-.38.59-.54.88-.48a1.23 1.23 0 00.3.1l1.16-.14a9 9 0 011.48-.17h0l.3-1.79a11.13 11.13 0 01-2.64 0c-.15 0-.3-.18-.44-.45q.14-.78 3.3-1.23c.07-.64.11-1 .12-1.07q-1.44-.07-2.13-.06a2.42 2.42 0 00-.74.06c0 .14-.15.23-.36.29l-.3-.05a.45.45 0 01-.21-.24.53.53 0 010-.33c.12-.68 1.17-1 3.14-1.05h.12a5.57 5.57 0 01.63 0c.06-.43.12-.83.18-1.21a2.3 2.3 0 01.12-.48 36 36 0 01-5.66-.3c-.41-.19-.6-.44-.55-.73.1-.5 1.22-.65 3.37-.46h3v-.32c0-.12.06-.36.12-.7a1.62 1.62 0 01.32-.71.51.51 0 01.48-.2c.24 0 .42.25.52.6a4.5 4.5 0 01.11 1.34h5.42a.79.79 0 01.64.54v.22c0 .22-.6.39-1.66.5s-2.57.18-4.51.22l-.16 1.62a28.53 28.53 0 014.89 0 1.59 1.59 0 01.92 1.05 4.07 4.07 0 010 1.86 7.72 7.72 0 01-1 2.83 1.48 1.48 0 01-1.56.74 2.65 2.65 0 00-1.31.27l-2.34.41-.6.1-.06.06c-.06.06-.07.33-.11.48h.08a34.51 34.51 0 013.56.23 3.27 3.27 0 011.1.43.61.61 0 01.32.6c0 .22-.43.35-1.18.41a31.4 31.4 0 01-3.19 0 38.25 38.25 0 01-4.79.09zm-1.42-3.81a1 1 0 01-.82-.79 5.44 5.44 0 01-.21-1.91l.33-3.21q.28-.75.87-.63.38.06.39 1.29a23.5 23.5 0 01.25 3.21c.12 0 .16.53.13 1.53-.08.38-.4.55-.96.51zm2.36 12.71a2.4 2.4 0 01-2.08-1.74 2.34 2.34 0 010-1.12l.19-1a.77.77 0 00-.11-.33v-.17c0-.14.18-.24.44-.29.56.11.88.88 1 2.32a1.07 1.07 0 00.84.84 12.67 12.67 0 005.12-.15.69.69 0 00.06-.18h0l-.93-.59-.06-.22v-.1c0-.14.18-.24.44-.29 2.1.52 3.11 1 3 1.36v0c0 .11 0 .17.08.18h.05c-.1.56-.7 1-1.78 1.22a23.5 23.5 0 01-4.62.46 12.65 12.65 0 01-1.64-.2zm2.45-2.64c-.73-.15-1.1-.75-1.11-1.81a1.08 1.08 0 01.67-.85l.32.06a4.89 4.89 0 011 1.05 8.08 8.08 0 00.91-.19c.27.16.38.31.35.45v.12c-.89.81-1.59 1.23-2.14 1.14zm1.21-10.12a10.09 10.09 0 002.58-.37v-.54h.23a.52.52 0 000-.16l1 .6a7.93 7.93 0 00.85-2.75q.15-.83.15-1c0-.15 0-.22-.05-.22s-1.55 0-4.23.17l-.09.72a.51.51 0 010 .14v.07a8.1 8.1 0 011.92 0c.76.32 1.11.63 1 .93v.05c-.08.44-1.12.69-3.12.74zm6.27 6.49h-.12a2.75 2.75 0 01-1-2.62c0-.17.21-.31.51-.4.47.09.85.6 1.15 1.55a4.75 4.75 0 010 1.08.55.55 0 01-.22.32.43.43 0 01-.32.04zm.67 4.75c-.5-.09-1-.63-1.53-1.6 0-.11-.4-.28-1-.53L182 157a.62.62 0 01.64-.27 7.62 7.62 0 012.91 1.38 1.43 1.43 0 01.17.62c-.04.45-.45.69-1.18.72z" fill="none" stroke="#fcd583" stroke-miterlimit="10" stroke-width=".4"/><path d="M67.93 173.19a1.42 1.42 0 00-1.51-.95 26.05 26.05 0 00-3.9.84c-1.23.33-2.46.61-3.66 1-.39.16-.9.22-1.17.57a25.36 25.36 0 00-6 3.72c-1.52 1.36-3.31 4.4 0 4.75a32.78 32.78 0 008-.87c2.22-.4 4.56-.82 6.76-1.35 3-.83 3.18-1.61 2.59-4.56a19.63 19.63 0 00-1.12-3.14m58.36-3.63a17.69 17.69 0 01-2.4-1.71 4.73 4.73 0 00-1.66-1.26 14.71 14.71 0 00-3.57 0c-1.65.15-3.32.2-5 .48.07-.28-.19-.57-.43-.32a21.37 21.37 0 00-.83 4.58c-.07.91-.12 1.83-.11 2.73.32 2 6.72 2.31 8.42 2.35a47.9 47.9 0 005.36-.11c1.55-.21 5 .18 5.68-1.58.53-2.3-4-4.05-5.51-5.21" fill="#fff"/><path d="M126.16 138.32c1.09 8.67 2 17.74-.5 26.24-.27.83-.57 1.65-.92 2.45s-.9 1.75-1.93 1.72c-2.32.2-8 .68-10-.5-.53-.4-.46-1.12-.47-1.71s0-.93 0-1.39a28.5 28.5 0 00-.39-3.69 35 35 0 00-3.95-10.87 24.68 24.68 0 00-5.31-6.87c-4.6-4.38-11.41-5.5-17.46-4.3-4.93 1-10.23 2.68-14.12 5.89a18.49 18.49 0 00-5.89 19.36 38.61 38.61 0 002 5.73c.33 1 1.42 2.55.71 3.5a1.56 1.56 0 01-1.09.47c-.35.09-.69.21-1.05.32a35 35 0 01-6.02 1.33 5.52 5.52 0 01-2.49-.12 8.14 8.14 0 01-1.84-1.48 37.78 37.78 0 01-3.37-3.67 78.73 78.73 0 01-5.7-8.65A36.82 36.82 0 0142 149.79a41.72 41.72 0 011.54-18.44 44.85 44.85 0 018.81-15 1 1 0 01.88-1.12c.59-.06 1.14-.19 1.71-.27 2.38-.45 4.72-1.11 7.08-1.63 4.35-1 8.72-1.9 13.07-2.9 7-1.64 13.87-3.58 20.75-5.58 2.59-.7 5.15-1.54 7.78-2a5.55 5.55 0 012.33.5 25.17 25.17 0 014.3 2.18 25.8 25.8 0 0110.27 12.11c3.08 6.5 4.63 13.6 5.66 20.69M81.25 28.14c-.2-.82 4-1.82 4.8-2.13 3.4-1 6.89-1.68 10.29-2.68 3-.84 6.1-1.5 9.16-2.23.64-.15 1.27-.33 1.92-.43a.67.67 0 01.72.48.66.66 0 01-.46.81c-6 1.46-12.08 2.88-18.05 4.58-1.1.21-8.17 2.72-8.38 1.6"/><path d="M113.89 22a11.73 11.73 0 01-.32 4 2.46 2.46 0 01-1.25 1.93 15.78 15.78 0 01-2.7 1.18 4.68 4.68 0 01-2.31.42 1 1 0 01-.45-.43c-.47-.41-.85-.93-1.33-1.33a7.91 7.91 0 01-2.53-3.28 6 6 0 01.15-5 6.72 6.72 0 014.06-3c4.1-1.08 6.38 1.75 6.69 5.58" fill="#fff"/><path d="M116.77 32.84a38.79 38.79 0 01.14 8.88 56.59 56.59 0 01-3.45 13.48 46.84 46.84 0 01-14.34 18A31.58 31.58 0 0195.2 76a35.65 35.65 0 015.8 10.13 62.35 62.35 0 013.85 15c.14 1.17.24 2.35.3 3.53a1.5 1.5 0 01-.74 1.58 46.8 46.8 0 01-12.47 5.28 156.87 156.87 0 01-24.28 5.82c-3.63.47-7.28.8-10.94 1-1.15.06-2.29.12-3.44.2a5.84 5.84 0 01-1.77 0c-.83-.23-.9-1.14-.89-1.87v-3.66a87.33 87.33 0 00-1.19-11.62c-.18-1-.41-2-.61-3-3 4.12-4.62 8.67-3.81 14 .73 3.3 2.6 6.8 5.86 8.15.9.22 1 1.27.84 2-.22 1.81-.61 3.6-.74 5.41a5 5 0 01-.13 1.45c-.94 1.66-3.32 1.35-4.95 1.24-4.31-.56-8.14-3.55-11-6.64-5.12-5.82-6.44-14.09-5.78-21.6.82-8.93 5-17.16 10.87-23.92a.72.72 0 01.14-.24 29.09 29.09 0 013.17-3.58A39.12 39.12 0 0150.45 69a54.27 54.27 0 018.06-3.87c4.16-1.76 8.41-3.34 12.73-4.71 4.64-1.55 9.67-2.58 14.08-4.67a37.77 37.77 0 0014.29-12.06 40.13 40.13 0 003.62-6.46 24.39 24.39 0 001.77-4.67 14.73 14.73 0 00.31-1.84c.11-.91 0-2.09.85-2.64a22 22 0 012.41-.81c1.38-.39 2.77-.74 4.15-1.1s2.14-.71 2.67 1.07a23.9 23.9 0 011.38 5.6" fill="#d3373b"/><path d="M80.8 112.24c-.07-1.32-.39-2.52-.57-3.82a72.58 72.58 0 00-1.78-8.63 84.48 84.48 0 00-6.66-16.42c-1-1.74-2.05-3.42-3.17-5.07-1.43-2-3.07-3.89-4.47-5.94a17.2 17.2 0 00-2.3-2.57c-.23-.25-.76-.64-.88-.09.05.43.48.72.72 1.07a29.54 29.54 0 012.49 3.42 89.08 89.08 0 016 8.82 91.53 91.53 0 015.11 11.07c.67 2 1.51 4 2.06 6.09a82 82 0 011.77 8.49c.2 1.24.46 2.48.61 3.74a.56.56 0 001.11-.16" fill="#375787"/><path d="M63.36 79.19a43.28 43.28 0 014.16-2c1.61-.64 3.26-1.16 4.87-1.75.19-.07.47-.14.58-.33a.41.41 0 00-.2-.62 5.15 5.15 0 00-1.77.11 21.43 21.43 0 00-8.41 3.4.71.71 0 00.77 1.18m3.82 8.27c3.11-1.23 6.07-2.8 9.15-4.1.23-.16 1.12-.39.77-.75a2.91 2.91 0 00-1.2.11 55.89 55.89 0 00-9.27 3.38.74.74 0 00.55 1.36m3.75 8.87a77.82 77.82 0 018.59-4.48c.37-.23 2.26-.61 1.53-1.21a1.51 1.51 0 00-.73 0 23.74 23.74 0 00-2.61.66 25.25 25.25 0 00-3.41 1.41 30.31 30.31 0 00-4.23 2.3.79.79 0 00.86 1.3"/><path d="M70.76 75.64A2 2 0 1072 73.17a2 2 0 00-1.26 2.47M74.92 83a2 2 0 101.26-2.47A2 2 0 0074.92 83m3.94 8.76a2 2 0 101.26-2.47 2 2 0 00-1.26 2.47m-10.75 5.09a2 2 0 101.25-2.47 2 2 0 00-1.25 2.47m-3.41-9.27a2 2 0 101.3-2.47 2 2 0 00-1.26 2.47m-3.64-8.23a2 2 0 101.26-2.47 2 2 0 00-1.26 2.47M79.48 54.6c.75 9-5.58 16.13-13.23 20a35.45 35.45 0 01-5.88 2.5 36.57 36.57 0 01-9.31 1.25c-6.4-.14-12.66-3.69-15.27-9.67a27.9 27.9 0 01-2.92-11.88 34.64 34.64 0 011.69-10.54 12.24 12.24 0 011-2.29 35.89 35.89 0 00-12-4.94c-3.89-1-7.94-2.1-11.84-2.88a56.58 56.58 0 01-5.93-1.51 9.89 9.89 0 01-3-1.42c-4.06-3.1-3.26-8.6.75-11.34 9.47-6.18 24.16 3 31.27 9.64a69.12 69.12 0 016.14 6.32 13.69 13.69 0 011.75-1.39 21.65 21.65 0 014.82-2.68 44.1 44.1 0 00-9-11.78c-3.18-3-7.42-5.16-9.45-9.22a9.27 9.27 0 01-1-6.77 8.13 8.13 0 016-5.77c4-.9 8 1.39 10.51 4.37a32.18 32.18 0 013.71 5.6 40.27 40.27 0 013.77 9.34 46 46 0 011.5 6.55 45.44 45.44 0 01.71 6.26 25.6 25.6 0 0113 2.65 28.91 28.91 0 017.26 6.91 23.19 23.19 0 014.95 12.69" fill="#fff"/><path d="M79.49 54.6a23.53 23.53 0 00-4-11.48 6 6 0 00-.73.17c-2.52.87-4.32 3.52-5.39 5.85-2.21 5.1-.36 12.51 6 12.86a10.92 10.92 0 003.21-.4 17.07 17.07 0 00.9-7m-32.42 1.55A15 15 0 0035.92 61 8.68 8.68 0 0034 64.16a25.07 25.07 0 001.78 4.5A16.53 16.53 0 0047.94 78a13.07 13.07 0 005-3.89c1.94-2.3 3.49-5.2 3.27-8.28a9.78 9.78 0 00-9.18-9.66M29.91 31.92a49.37 49.37 0 00-7.54-3.64c-2.37-.88-4.85-2-7.44-1.59-1.65.06-3.79 1.73-2.5 3.42a4.52 4.52 0 001.71 1.11 30.85 30.85 0 005 1.54 40.48 40.48 0 017.39 2.29 81.49 81.49 0 019.78 5 25.33 25.33 0 012.59 2c.18.15.4.37.65.27.42.29.79-.2.87-.59.35-1-1.2-2.49-1.81-3.24a41.93 41.93 0 00-8.68-6.57m15.89-17.86C44.46 12.05 42.89 10 40.6 9c-3-1.27-4.11.89-3 3.54.88 2.27 2.86 3.84 4.49 5.57a40.18 40.18 0 013.84 4.78 34.33 34.33 0 013.61 7.06 37.76 37.76 0 011 3.78 4.21 4.21 0 00.32 1.1c.16.18.36 0 .36-.22.31 0 .43-.34.42-.62s.08-.83.09-1.25c.12-6.65-2.54-13.07-5.94-18.67" fill="#fcd47d"/><path d="M60.82 48.75c-1.06 0-2.49 1.27-2.26 2.41a.92.92 0 00.81.67 2.75 2.75 0 002.47-2 1 1 0 00-1-1.12m-7.31 1.42a.44.44 0 00-.52.25 2.23 2.23 0 01-3 1 .4.4 0 00-.38.39c0 .5.59.77 1 .87a2.84 2.84 0 002.54-.82c.35-.38 1.06-1.4.34-1.7m12.89-6.59c-.6-.15-.67.61-1 .93a1.06 1.06 0 01-1.16.31 4.23 4.23 0 00-.58-.25c-.64 0-.25.85.06 1.07a1.79 1.79 0 002.59-.35c.29-.46.85-1.42.09-1.71"/><path d="M116.27 106.16c.26 3.61-1.35 6.51-4 8.9-4.28 4.25-9.26 7.68-14.21 11.1-4.47 3.06-9 6.33-14 8.33a23.56 23.56 0 01-9.94 1.37 24.78 24.78 0 01-7.6-2.72A31.49 31.49 0 0155.87 122 26 26 0 0152 107.52a17 17 0 01.74-5.45 14.18 14.18 0 012.8-4.87 73.55 73.55 0 016.06-4.78 103.6 103.6 0 0116.17-8.87C83.31 81 90 77.81 96.12 79.19a21.67 21.67 0 0110.6 5.65 33.92 33.92 0 018.12 13.62 35.33 35.33 0 011.43 7.7" fill="#a3c8ef"/><path d="M77.52 119.21zm23-7.35c1.55-1.65 3.1-3.3 4.61-5a63.21 63.21 0 005.87-7.13c.93-1.44 1.81-2.91 2.7-4.37-.19-.45-.39-.89-.6-1.33-1.8.42-3.6.89-5.39 1.37-3.71 1-7.45 1.9-11.18 2.86 1.32-1.7 2.62-3.41 3.88-5.16 1.57-2.06 3.3-4 4.67-6.21a15.4 15.4 0 00.85-1.54l1-.25c-.08-.09-.15-.18-.23-.26-.23-.24-.48-.46-.73-.68-4.7 1.13-9.36 2.44-14.06 3.57-1.73.45-3.46.88-5.19 1.31 2.62-2.94 5.2-5.9 7.91-8.76.36-.39.73-.77 1.09-1.15a10.8 10.8 0 00-1.27-.19c-2.14 2.21-4.15 4.54-6.19 6.83C87.2 87 86.11 88.24 85 89.46c-4.31 1.05-8.62 2.08-12.92 3.16-3.26.85-6.53 1.67-9.77 2.6a36.08 36.08 0 01-4.11 1c-1.13.23-.86.8.1.76a24.74 24.74 0 006.37-1.1c3.28-.84 6.57-1.65 9.84-2.5 3-.72 6-1.46 9-2.22-3.39 3.7-6.86 7.32-10.26 11a93.793 93.793 0 00-4.18 4.9.77.77 0 00-.35.39.39.39 0 000 .62.39.39 0 00.61-.18l.08-.09c.29 0 .59-.15.87-.2 1.51-.41 3-1 4.47-1.43 3-1 5.9-1.94 8.83-3q4.78-1.5 9.67-2.78C90.13 104.27 87 108.05 84 112c-1.53 2-3 4-4.52 6a9.88 9.88 0 00-2.08.66.34.34 0 00.1.62 3.25 3.25 0 001 0c-.28.38-.58.75-.86 1.13-.53.7-1.07 1.39-1.54 2.13a.68.68 0 001.1.78c.39-.53.76-1.06 1.14-1.59l2.07-2.78c1.83-.36 3.64-.85 5.43-1.39 3.52-1 7-2 10.53-3.07-2.61 2.83-5.18 5.87-7.77 8.74q-3 3.42-5.93 6.91a22.38 22.38 0 00-1.89 2.44.6.6 0 00.2.83.62.62 0 00.79-.13c.85-1.08 1.69-2.17 2.59-3.21 4.29-5.11 8.71-10.07 13.19-15l1.2-1.28.41-.12c5.64-1.57 11.28-3.09 16.9-4.72a9.79 9.79 0 00.18-1.56q-7.91 2.27-15.79 4.58M80.29 103c-3 1-5.94 2-8.87 3a4.33 4.33 0 01-.68.25l.06-.06c1.77-2 3.62-4 5.46-6 2.9-3 5.73-6.07 8.6-9.18l.42-.47c6.42-1.64 12.84-3.32 19.26-5-1 1.36-2 2.81-3.09 4.1-2.21 2.6-4.12 5.43-6.25 8.09l-.72.9c-4.77 1.26-9.53 2.61-14.19 4.24m17.79 9.53l-11.18 3.48c-1.79.53-3.58 1.06-5.38 1.52 3.06-4.1 6.17-8.17 9.44-12.11q2.17-2.69 4.32-5.41c2.29-.59 4.59-1.17 6.87-1.72 3.48-.8 6.93-1.75 10.4-2.57-.78 1-1.48 2-2.23 3.11a103.29 103.29 0 01-7.48 8.72c-1.56 1.71-3.16 3.43-4.76 5.15" fill="#fff"/><path d="M69.33 101.43a17.13 17.13 0 00-7.14-4.37 11.19 11.19 0 00-6-.38l-.6.52a14.18 14.18 0 00-2.8 4.87 17 17 0 00-.74 5.45A26 26 0 0055.87 122a31.49 31.49 0 0010.69 11.19 24.78 24.78 0 007.6 2.72 20.28 20.28 0 005.71-.27 10.23 10.23 0 002.06-3.5c1.64-4.94.33-10.36-1.45-15.1-2.28-6.07-6.59-11-11.15-15.56" fill="#fcd47d"/><path d="M56.57 124c-.23-1.36 1.85-3.84 2.59-5 1.22-1.82 2.36-3.69 3.58-5.5s2.16-3.66 3.34-5.43a.69.69 0 011.17.69 16.27 16.27 0 01-1.1 1.77c-2 3.09-4.05 6.19-6.06 9.3-.66 1-1.28 1.88-1.91 2.87-.34.39-1 2.13-1.61 1.28"/><path d="M56.54 119c-2 .16-3.17 1.91-4.84 2.79a3.9 3.9 0 010 .77c-.22 1.8-.61 3.59-.74 5.4a9.4 9.4 0 01-.09 1.31 6.73 6.73 0 004.69 2.55c2.44 0 5.18-.65 6.58-2.82a6.94 6.94 0 001.09-4.25c-.4-3.26-3.23-6.15-6.65-5.75" fill="#fff"/><path d="M68.35 61.29a.54.54 0 00-.46-.41.53.53 0 00-.55.29 3.81 3.81 0 00-.24.64c0 .15-.08.29-.13.43a3.87 3.87 0 01-2.06 2.16 4.74 4.74 0 01-3.55 0 3.91 3.91 0 01-.93-.67s-.3-.3-.55-.23a.34.34 0 00-.25.28v.05a2.8 2.8 0 002.71 2.35 6 6 0 00.84.06 5.1 5.1 0 003.58-1.41c1.27-1.26 1.81-2.4 1.63-3.49" fill="#d3373b"/></g></svg>