<?xml version="1.0" encoding="UTF-8"?>
<svg id="_圖層_1" xmlns="http://www.w3.org/2000/svg" version="1.1" viewBox="0 0 22 22">
  <!-- Generator: Adobe Illustrator 29.0.1, SVG Export Plug-In . SVG Version: 2.1.0 Build 192)  -->
  <defs>
    <style>
      .st0 {
        fill: #fff;
      }
    </style>
  </defs>
  <g id="Layer_2">
    <path class="st0" d="M18.7,2.2h-1.8v-1c0-.5-.4-1-1-1s-1,.4-1,1v1h-2.9v-1c0-.5-.4-1-1-1s-1,.4-1,1v1h-2.9v-1c0-.5-.4-1-1-1s-1,.4-1,1v1h-1.8C1.6,2.2.2,3.6.2,5.3v2.8h21.6v-2.8c0-1.7-1.4-3.1-3.1-3.1Z"/>
    <path class="st0" d="M.2,18.7c0,1.7,1.4,3.1,3.1,3.1h15.5c1.7,0,3.1-1.4,3.1-3.1v-8.7H.2v8.7ZM6.8,14.7c.5-.5,1.2-.5,1.6,0l1.5,1.5,3.7-3.7c.5-.5,1.2-.5,1.6,0s.5,1.2,0,1.6l-4.5,4.5c-.5.5-1.2.5-1.6,0l-2.3-2.3c-.5-.5-.5-1.2,0-1.6h0Z"/>
  </g>
</svg>