<svg width="80" height="80" viewBox="0 0 80 80" fill="none" xmlns="http://www.w3.org/2000/svg">
    <path d="M40 80c22.091 0 40-17.909 40-40S62.091 0 40 0 0 17.909 0 40s17.909 40 40 40z" fill="#4CC764"/>
    <path d="M66.678 37.67c0-11.948-11.98-21.67-26.703-21.67-14.722 0-26.705 9.723-26.705 21.67 0 10.712 9.5 19.685 22.333 21.38.87.188 2.055.573 2.352 1.318.27.674.178 1.732.088 2.414l-.383 2.285c-.114.676-.534 2.64 2.316 1.44 2.85-1.2 15.377-9.055 20.98-15.5 3.867-4.247 5.722-8.554 5.722-13.337z" fill="#fff"/>
    <path d="M57.792 44.57a.5.5 0 0 0 .5-.5v-1.893a.5.5 0 0 0-.5-.5h-5.098V39.71h5.098a.5.5 0 0 0 .5-.5v-1.928a.5.5 0 0 0-.5-.5h-5.098v-1.967h5.098a.5.5 0 0 0 .5-.5v-1.908a.5.5 0 0 0-.5-.5h-7.5a.5.5 0 0 0-.5.5v11.635a.5.5 0 0 0 .5.5h7.5v.028zM30.042 44.57a.5.5 0 0 0 .5-.5v-1.892a.5.5 0 0 0-.5-.5h-5.097v-9.25a.5.5 0 0 0-.5-.5H22.55a.5.5 0 0 0-.5.5v11.645a.5.5 0 0 0 .5.5h7.5l-.008-.003zM34.558 31.898h-1.893a.51.51 0 0 0-.51.51V44.06c0 .282.229.51.51.51h1.893a.51.51 0 0 0 .51-.51V32.407a.51.51 0 0 0-.51-.51zM47.453 31.898h-1.895a.5.5 0 0 0-.5.5v6.92l-5.333-7.2-.04-.053-.032-.03-.028-.022a.024.024 0 0 0-.012 0l-.028-.02h-.015l-.027-.018h-.018l-.03-.013h-2.072a.5.5 0 0 0-.5.5v11.653a.5.5 0 0 0 .5.5h1.892a.5.5 0 0 0 .5-.5V37.14l5.34 7.21a.536.536 0 0 0 .163.15h.015l.022.013h.078c.043.01.088.016.132.017h1.885a.5.5 0 0 0 .5-.5V32.407a.5.5 0 0 0-.497-.51z" fill="#4CC764"/>
</svg>
