<svg width="80" height="80" viewBox="0 0 80 80" fill="none" xmlns="http://www.w3.org/2000/svg">
    <path d="M80 40C80 17.909 62.091 0 40 0S0 17.909 0 40c0 19.965 14.627 36.513 33.75 39.514V51.563H23.594V40H33.75v-8.813c0-10.024 5.972-15.562 15.109-15.562 4.375 0 8.953.781 8.953.781v9.844H52.77c-4.969 0-6.519 3.084-6.519 6.25V40h11.094L55.57 51.563h-9.32v27.951C65.373 76.514 80 59.964 80 40z" fill="#1877F2"/>
    <path d="M55.57 51.563 57.344 40H46.25v-7.5c0-3.163 1.55-6.25 6.519-6.25h5.044v-9.844s-4.578-.781-8.954-.781c-9.137 0-15.109 5.538-15.109 15.563V40H23.594v11.563H33.75v27.951c4.142.648 8.358.648 12.5 0V51.563h9.32z" fill="#fff"/>
</svg>
