<svg width="80" height="80" viewBox="0 0 80 80" fill="none" xmlns="http://www.w3.org/2000/svg">
    <path d="M40.013 0C23.313 0 18.43.017 17.48.096c-3.427.285-5.56.825-7.883 1.982-1.79.889-3.202 1.92-4.596 3.365C2.463 8.078.925 11.32.368 15.174c-.27 1.871-.35 2.253-.365 11.81-.006 3.185 0 7.377 0 13 0 16.69.018 21.571.098 22.52.277 3.335.8 5.433 1.908 7.729 2.116 4.394 6.158 7.693 10.92 8.924 1.65.425 3.47.658 5.809.77.99.042 11.087.073 21.19.073 10.102 0 20.205-.012 21.17-.061 2.708-.128 4.28-.339 6.018-.788a16.746 16.746 0 0 0 10.921-8.943c1.086-2.24 1.637-4.418 1.886-7.58.054-.69.077-11.68.077-22.654 0-10.977-.025-21.947-.079-22.636-.252-3.213-.803-5.373-1.924-7.656-.92-1.869-1.94-3.265-3.424-4.692C71.928 2.462 68.691.923 64.834.367 62.966.097 62.594.017 53.032 0H40.013z" fill="url(#fvqyzuvvaa)"/>
    <path d="M40.013 0C23.313 0 18.43.017 17.48.096c-3.427.285-5.56.825-7.883 1.982-1.79.889-3.202 1.92-4.596 3.365C2.463 8.078.925 11.32.368 15.174c-.27 1.871-.35 2.253-.365 11.81-.006 3.185 0 7.377 0 13 0 16.69.018 21.571.098 22.52.277 3.335.8 5.433 1.908 7.729 2.116 4.394 6.158 7.693 10.92 8.924 1.65.425 3.47.658 5.809.77.99.042 11.087.073 21.19.073 10.102 0 20.205-.012 21.17-.061 2.708-.128 4.28-.339 6.018-.788a16.746 16.746 0 0 0 10.921-8.943c1.086-2.24 1.637-4.418 1.886-7.58.054-.69.077-11.68.077-22.654 0-10.977-.025-21.947-.079-22.636-.252-3.213-.803-5.373-1.924-7.656-.92-1.869-1.94-3.265-3.424-4.692C71.928 2.462 68.691.923 64.834.367 62.966.097 62.594.017 53.032 0H40.013z" fill="url(#esihlw9skb)"/>
    <path d="M39.995 10.463c-8.02 0-9.027.035-12.178.178-3.144.144-5.29.642-7.168 1.373-1.942.754-3.59 1.764-5.231 3.406-1.643 1.642-2.652 3.29-3.409 5.233-.732 1.879-1.23 4.026-1.372 7.17-.14 3.15-.177 4.158-.177 12.18 0 8.024.036 9.028.178 12.178.145 3.145.643 5.292 1.372 7.17.755 1.943 1.764 3.591 3.407 5.233 1.64 1.644 3.288 2.655 5.23 3.41 1.878.73 4.025 1.228 7.169 1.372 3.15.144 4.156.179 12.176.179s9.024-.035 12.175-.179c3.144-.144 5.292-.642 7.171-1.372 1.942-.755 3.587-1.766 5.228-3.41 1.643-1.642 2.652-3.29 3.409-5.232.726-1.879 1.224-4.026 1.372-7.17.141-3.15.178-4.155.178-12.178s-.037-9.03-.178-12.18c-.148-3.146-.646-5.292-1.372-7.17-.757-1.944-1.766-3.592-3.409-5.234-1.643-1.643-3.285-2.652-5.23-3.406-1.882-.73-4.03-1.229-7.174-1.373-3.15-.143-4.153-.178-12.176-.178h.009zm-2.65 5.323h2.65c7.885 0 8.82.029 11.934.17 2.879.132 4.442.613 5.483 1.018 1.378.535 2.36 1.175 3.394 2.209 1.033 1.034 1.673 2.019 2.21 3.397.404 1.04.886 2.604 1.017 5.484.141 3.114.172 4.05.172 11.933 0 7.884-.03 8.82-.172 11.933-.132 2.88-.613 4.444-1.017 5.484-.536 1.378-1.177 2.36-2.21 3.393-1.034 1.034-2.015 1.674-3.394 2.21-1.04.406-2.604.886-5.483 1.018-3.114.141-4.049.172-11.934.172-7.886 0-8.82-.03-11.934-.172-2.88-.133-4.442-.614-5.484-1.019-1.378-.535-2.363-1.175-3.396-2.21-1.034-1.033-1.674-2.015-2.21-3.395-.404-1.04-.886-2.603-1.017-5.483-.142-3.114-.17-4.05-.17-11.938 0-7.889.028-8.82.17-11.934.131-2.88.613-4.443 1.017-5.484.535-1.379 1.176-2.364 2.21-3.398 1.033-1.034 2.018-1.674 3.396-2.21 1.041-.406 2.604-.886 5.484-1.019 2.724-.123 3.78-.16 9.284-.166v.007zm18.414 4.905a3.543 3.543 0 0 0-3.476 4.237 3.545 3.545 0 1 0 3.476-4.238v.001zm-15.764 4.142c-8.376 0-15.167 6.793-15.167 15.17 0 8.379 6.791 15.168 15.167 15.168 8.375 0 15.164-6.79 15.164-15.167 0-8.378-6.79-15.17-15.165-15.17zm0 5.324c5.436 0 9.844 4.408 9.844 9.847 0 5.438-4.408 9.847-9.844 9.847-5.437 0-9.845-4.41-9.845-9.847 0-5.439 4.408-9.847 9.845-9.847z" fill="#fff"/>
    <defs>
        <radialGradient id="fvqyzuvvaa" cx="0" cy="0" r="1" gradientUnits="userSpaceOnUse" gradientTransform="matrix(0 -79.2859 73.7421 0 21.25 86.162)">
            <stop stop-color="#FD5"/>
            <stop offset=".1" stop-color="#FD5"/>
            <stop offset=".5" stop-color="#FF543E"/>
            <stop offset="1" stop-color="#C837AB"/>
        </radialGradient>
        <radialGradient id="esihlw9skb" cx="0" cy="0" r="1" gradientUnits="userSpaceOnUse" gradientTransform="matrix(6.95631 34.7517 -143.2483 28.67428 -13.4 5.763)">
            <stop stop-color="#3771C8"/>
            <stop offset=".128" stop-color="#3771C8"/>
            <stop offset="1" stop-color="#60F" stop-opacity="0"/>
        </radialGradient>
    </defs>
</svg>
