<svg width="80" height="55" viewBox="0 0 80 55" fill="none" xmlns="http://www.w3.org/2000/svg">
    <path d="M78.329 8.588c-.92-3.38-3.631-6.042-7.074-6.946C65.017 0 40 0 40 0S14.983 0 8.745 1.642C5.302 2.546 2.59 5.208 1.67 8.588 0 14.716 0 27.5 0 27.5s0 12.784 1.671 18.912c.92 3.38 3.631 6.042 7.073 6.947C14.983 55 40 55 40 55s25.017 0 31.255-1.641c3.443-.904 6.153-3.567 7.073-6.947C80 40.284 80 27.5 80 27.5s0-12.784-1.672-18.911" fill="red"/>
    <path d="M31.818 39.107 52.728 27.5l-20.91-11.607v23.214z" fill="#fff"/>
</svg>
