<?xml version="1.0" encoding="utf-8"?>
<!-- Generator: Adobe Illustrator 27.0.0, SVG Export Plug-In . SVG Version: 6.00 Build 0)  -->
<svg version="1.0" id="圖層_1" xmlns="http://www.w3.org/2000/svg" xmlns:xlink="http://www.w3.org/1999/xlink" x="0px" y="0px"
	 viewBox="0 0 30 16" style="enable-background:new 0 0 30 16;" xml:space="preserve">
<style type="text/css">
	.st0{fill:#FF3B2B;}
	.st1{fill:#FFFFFF;}
</style>
<path class="st0" d="M2,0h26c1.1,0,2,1,2,2.1v11.7c0,1.2-0.9,2.1-2,2.1H2c-1.1,0-2-1-2-2.1V2.1C0,1,0.9,0,2,0z"/>
<g>
	<path class="st1" d="M9.7,11.3H8L5.7,7.3v3.9H4V4.7h1.8l2.2,3.9V4.7h1.7V11.3L9.7,11.3z"/>
	<path class="st1" d="M16.5,11.3h-5.2V4.7h5.2V6H13v1.3h2.8v1.3H13V10h3.5V11.3L16.5,11.3z"/>
	<path class="st1" d="M22.6,4.7l1.1,4.2l1-4.2h1.8l-1.8,6.6H23l-1.1-4.1l-1.1,4.1H19l-1.8-6.6h1.8l1,4.2l1.1-4.2
		C21.2,4.7,22.6,4.7,22.6,4.7z"/>
</g>
</svg>
