<svg width="80" height="80" viewBox="0 0 80 80" fill="none" xmlns="http://www.w3.org/2000/svg">
    <path d="M40 80c22.091 0 40-17.909 40-40S62.091 0 40 0 0 17.909 0 40s17.909 40 40 40z" fill="url(#597i7fxn0a)"/>
    <path d="m16.647 39.653 26.937-11.098c2.659-1.156 11.676-4.856 11.676-4.856s4.162-1.618 3.815 2.312c-.116 1.619-1.04 7.284-1.965 13.41l-2.89 18.151s-.232 2.659-2.197 3.121c-1.965.463-5.202-1.618-5.78-2.08-.463-.347-8.67-5.55-11.677-8.093-.809-.694-1.734-2.08.116-3.7 4.162-3.814 9.133-8.554 12.139-11.56 1.387-1.387 2.774-4.624-3.006-.694l-16.3 10.983s-1.85 1.156-5.319.116c-3.468-1.04-7.514-2.428-7.514-2.428s-2.774-1.734 1.965-3.584z" fill="#fff"/>
    <defs>
        <linearGradient id="597i7fxn0a" x1="53.336" y1="13.336" x2="33.336" y2="60" gradientUnits="userSpaceOnUse">
            <stop stop-color="#37AEE2"/>
            <stop offset="1" stop-color="#1E96C8"/>
        </linearGradient>
    </defs>
</svg>
