<svg width="220" height="482" viewBox="0 0 220 482" fill="none" xmlns="http://www.w3.org/2000/svg">
    <path fill-rule="evenodd" clip-rule="evenodd" d="M12 2C5.373 2 0 7.373 0 14v456c0 6.627 5.373 12 12 12h196c6.627 0 12-5.373 12-12V14c0-6.627-5.373-12-12-12H12zm3.5 5.581c-5.523 0-10 4.478-10 10V466.42c0 5.522 4.477 10 10 10h189c5.523 0 10-4.478 10-10V17.581c0-5.522-4.477-10-10-10h-189z" fill="url(#0193vly2va)"/>
    <g filter="url(#f2jg56ml2b)">
        <path d="M70.4 7.582h79.2l-3.499 8.137a5 5 0 0 1-4.593 3.025H78.493A5 5 0 0 1 73.9 15.72l-3.5-8.138z" fill="url(#ws23trbddc)"/>
    </g>
    <defs>
        <linearGradient id="0193vly2va" x1="135.259" y1="482" x2="135.259" y2="2" gradientUnits="userSpaceOnUse">
            <stop stop-color="#51A8FF"/>
            <stop offset="1" stop-color="#94C9FF"/>
        </linearGradient>
        <linearGradient id="ws23trbddc" x1="121.494" y1="18.744" x2="121.494" y2="7.582" gradientUnits="userSpaceOnUse">
            <stop stop-color="#51A8FF"/>
            <stop offset="1" stop-color="#94C9FF"/>
        </linearGradient>
        <filter id="f2jg56ml2b" x="63.4" y=".582" width="99.2" height="31.163" filterUnits="userSpaceOnUse" color-interpolation-filters="sRGB">
            <feFlood flood-opacity="0" result="BackgroundImageFix"/>
            <feColorMatrix in="SourceAlpha" values="0 0 0 0 0 0 0 0 0 0 0 0 0 0 0 0 0 0 127 0" result="hardAlpha"/>
            <feOffset dx="3" dy="3"/>
            <feGaussianBlur stdDeviation="5"/>
            <feComposite in2="hardAlpha" operator="out"/>
            <feColorMatrix values="0 0 0 0 0.7375 0 0 0 0 0.86875 0 0 0 0 1 0 0 0 0.35 0"/>
            <feBlend in2="BackgroundImageFix" result="effect1_dropShadow_94_1082"/>
            <feBlend in="SourceGraphic" in2="effect1_dropShadow_94_1082" result="shape"/>
        </filter>
    </defs>
</svg>
