<svg width="460" height="68" viewBox="0 0 460 68" fill="none" xmlns="http://www.w3.org/2000/svg">
    <path d="M54.151 34.854H37.849v3.77h9.569c.141-.427.425-.83.85-1.21.473-.38.992-.569 1.56-.569.755 0 1.393.261 1.913.783.567.521.85 1.114.85 1.778 0 .616-.283 1.162-.85 1.636-.52.427-1.11.64-1.772.64H37.85v3.628h9.569c.141-.57.496-.996 1.063-1.28.567-.285 1.134-.428 1.7-.428.71 0 1.277.261 1.702.783.472.474.709 1.02.709 1.636 0 .616-.284 1.138-.85 1.565a3.25 3.25 0 0 1-1.844.569H37.85v3.84h13.467c.945 0 1.63-.52 2.055-1.564.473-1.043.71-2.015.71-2.916v-3.059c.046-1.043.07-2.086.07-3.13v-6.472zm.07-18.85v-4.979h-2.48c-.236.427-.638.948-1.205 1.565a19.993 19.993 0 0 1-1.772 1.707c-.614.522-1.181.877-1.7 1.067.094.284.14.498.14.64h7.018zm-43.093 33.93c0 .378-.095.829-.284 1.35-.141.475-.472.712-.992.712-.33 0-.638-.095-.921-.285a8.646 8.646 0 0 0-.71-.64 59.096 59.096 0 0 1-3.189-4.125 56.722 56.722 0 0 0-3.118-4.197c.236-.142.709-.356 1.417-.64a28.4 28.4 0 0 1 2.41-.925 50.96 50.96 0 0 1 2.34-.853c.708-.238 1.157-.356 1.346-.356.283 0 .472.071.567.213.142.142.236.261.283.356v.142c.048.048.071.119.071.214.142.663.26 1.588.355 2.774.141 1.138.236 2.3.283 3.485.095 1.138.142 2.063.142 2.774zm17.507-7.54c0 .284-.33.805-.993 1.564a36.245 36.245 0 0 1-2.338 2.419 49.473 49.473 0 0 1-2.552 2.276c-.803.664-1.37 1.043-1.701 1.138a1.403 1.403 0 0 1-.638.142c-.142 0-.284-.071-.425-.213-.095-.19-.142-.332-.142-.427 0-.19.023-.356.07-.498a179.32 179.32 0 0 0 1.49-4.695 57.158 57.158 0 0 0 1.204-4.907c.473.19 1.087.45 1.843.782.803.332 1.56.664 2.268.996.709.332 1.229.616 1.56.853.236.095.354.285.354.57zm7.442-21.766c-.472 2.228-1.56 4.338-3.26 6.33-1.701 1.992-3.473 3.533-5.316 4.624.378.521.567 1.066.567 1.636 0 .758-.26 1.446-.78 2.062-.52.617-1.252.925-2.197.925h-5.387v17.356l4.607-1.21c1.04-.284 2.009-.545 2.906-.782.945-.285 1.465-.427 1.56-.427.567 0 .85.237.85.712 0 .19-.07.403-.212.64-.048.095-.166.237-.355.426-.472.522-1.276 1.139-2.41 1.85a48.853 48.853 0 0 1-3.615 2.134 346.36 346.36 0 0 1-3.756 1.991 53.808 53.808 0 0 1-2.694 1.28 48.442 48.442 0 0 1-5.882 2.206c-2.032.664-4.088 1.28-6.167 1.85L.638 57.543c1.985-.38 3.922-.735 5.812-1.067 1.937-.332 3.827-.688 5.67-1.067V36.205H2.693v-2.916h9.427V26.46H7.513v-.64c-.52.474-1.205 1.09-2.055 1.85a23.378 23.378 0 0 1-2.552 1.991c-.85.57-1.56.854-2.126.854-.52 0-.78-.214-.78-.64 0-.095.142-.404.425-.925.331-.522.685-1.09 1.063-1.707.378-.617.733-1.186 1.064-1.707.378-.57.614-.949.708-1.139 1.134-2.133 2.221-4.504 3.26-7.112a117.316 117.316 0 0 0 2.836-8.11c.85-2.75 1.512-5.358 1.985-7.824l8.718 3.557c-.19.711-.45 1.423-.78 2.134-.284.711-.59 1.399-.921 2.063.52-.332 1.157-.688 1.913-1.067A49.613 49.613 0 0 1 22.398 6.9c.708-.332 1.204-.498 1.488-.498 1.229 0 1.914.521 2.056 1.565.094.331.141.71.141 1.138 0 .379.024.758.071 1.138l.284 2.276c.094.711.212 1.446.354 2.205.095.616.26 1.47.496 2.56.236 1.091.354 1.897.354 2.419 0 .711-.354 1.067-1.063 1.067-.567 0-1.252-.332-2.055-.996a23.66 23.66 0 0 1-2.268-2.49 47.88 47.88 0 0 1-2.056-2.916c-.614-.948-1.063-1.683-1.346-2.205-.378.237-.85.57-1.418.996-.567.38-.945.688-1.134.925-.142.19-.284.403-.425.64a4.978 4.978 0 0 1-.355.711c-.33.522-.685 1.043-1.063 1.565-.33.474-.661.972-.992 1.494a48.16 48.16 0 0 1-3.757 5.05l10.703-.071a3.802 3.802 0 0 1 1.134-1.85c.567-.521 1.252-.782 2.055-.782.804 0 1.512.26 2.127.782.614.522.921 1.162.921 1.92 0 1.945-1.04 2.917-3.118 2.917h-3.828v6.829h2.197c.095-.712.402-1.352.922-1.92.567-.617 1.228-.925 1.984-.925.237 0 .497.047.78.142 1.229-1.565 2.197-3.414 2.906-5.548a40.383 40.383 0 0 0 1.56-6.26l6.024 1.85zm33.526 44.527c0 .853-.355 1.54-1.064 2.063-.661.521-1.44.782-2.339.782-1.323 0-2.646-.166-3.969-.498a25.911 25.911 0 0 1-3.827-1.28c-1.087-.474-2.316-1.115-3.686-1.92a42.897 42.897 0 0 1-3.97-2.49c-1.275-.901-2.362-1.755-3.26-2.561-.236-.237-.354-.45-.354-.64 0-.237.07-.38.213-.427l.425-.284c.142-.095.284-.166.425-.214.19-.095.355-.19.496-.284.142-.095.284-.166.426-.214l4.181-2.063H37.85l2.41 1.28c.992.523 1.89 1.091 2.693 1.708.425.237.638.522.638.854 0 .331-.165.616-.496.853l-.425.285c-.047.047-.166.118-.355.213-1.843 1.233-3.922 2.371-6.237 3.414a39.074 39.074 0 0 1-7.159 2.56c-2.457.665-4.843.997-7.158.997-.567 0-.85-.19-.85-.57 0-.236.046-.402.14-.497l.426-.285a55.517 55.517 0 0 0 7.513-4.694 30.036 30.036 0 0 0 6.38-6.117h-5.387V32.008h32.533v13.87c0 2.609-.496 4.672-1.489 6.189-.992 1.517-2.835 2.466-5.528 2.845a29.172 29.172 0 0 0 3.331 4.695 40.852 40.852 0 0 0 4.11 3.983 5.07 5.07 0 0 1 1.419-1.423c.566-.332 1.228-.498 1.984-.498.898 0 1.654.38 2.268 1.139.662.758.993 1.54.993 2.347zm.85-49.15c0 .758-.307 1.374-.921 1.849-.567.474-1.253.71-2.056.71H62.94v8.038c0 .38.094.83.283 1.352.19.522.52.782.993.782.567 0 1.063-.118 1.488-.355a7.478 7.478 0 0 1-.425-.64 1.909 1.909 0 0 1-.142-.712c0-.664.26-1.233.78-1.707.567-.521 1.205-.782 1.913-.782.804 0 1.418.284 1.843.853.473.522.71 1.115.71 1.779 0 1.043-.426 1.873-1.277 2.49-.803.616-1.748 1.066-2.835 1.35-1.087.238-2.055.356-2.906.356-1.228 0-2.41-.095-3.544-.284-1.134-.237-2.055-.712-2.764-1.423-.709-.759-1.063-1.897-1.063-3.414v-4.695c-.992 2.608-2.528 4.742-4.607 6.402-2.08 1.66-4.442 2.845-7.088 3.556-.142.048-.33.072-.567.072-.047 0-.213-.024-.496-.072-.236-.047-.355-.166-.355-.355 0-.237.071-.427.213-.57.094-.094.189-.142.283-.142a.823.823 0 0 0 .213-.142c1.654-1.233 3.048-2.94 4.182-5.121 1.181-2.229 1.914-4.41 2.197-6.544l6.025 1.778v-1.85h-8.86v-1.777c-.094.474-.307.853-.638 1.138a3.07 3.07 0 0 1-1.134.498l-.85.142h-2.198v5.406l1.063-.356c.473-.142.945-.308 1.418-.498a23.109 23.109 0 0 1 1.63-.569c.52-.142.804-.213.85-.213.426 0 .639.213.639.64a.547.547 0 0 1-.071.213v.214c-.095.095-.166.19-.213.284a22.046 22.046 0 0 1-5.032 4.552c-1.89 1.28-4.064 2.11-6.521 2.49V18.565h-8.434v-2.56h7.017v-4.98h-2.127c-.236.38-.661.948-1.276 1.707a26.486 26.486 0 0 1-1.772 2.134c-.614.617-1.134.925-1.559.925-.567 0-.85-.19-.85-.57v-.213c0-.474.118-1.398.354-2.774.283-1.375.567-2.916.85-4.623.331-1.707.544-3.272.638-4.695.993.237 1.938.475 2.835.712.898.237 1.82.474 2.765.71-.142.712-.284 1.4-.425 2.064-.142.664-.331 1.304-.568 1.92h1.135V2.205h6.733v6.117h.709c.142-.474.401-.877.78-1.209.425-.38.944-.57 1.559-.57.709 0 1.276.214 1.7.641.473.427.71.972.71 1.636 0 1.47-.757 2.205-2.269 2.205h-3.19v4.98h.497c.095-.617.378-1.163.85-1.637.473-.474 1.087-.711 1.843-.711.615 0 1.158.142 1.63.427.662-1.565 1.158-3.462 1.49-5.69.33-2.23.566-4.221.708-5.976 1.04.238 2.008.498 2.906.783.898.284 1.82.593 2.764.925l-.567 2.133a26.258 26.258 0 0 1-.638 2.063h1.347V2.205h6.946v6.117h1.843a5.28 5.28 0 0 1 .85-1.494c.426-.474.993-.71 1.701-.71.756 0 1.394.26 1.914.782.52.521.78 1.114.78 1.778 0 .616-.26 1.162-.78 1.636s-1.11.711-1.772.711h-4.536v4.98h3.048c.094-.665.401-1.305.921-1.921.52-.664 1.205-.996 2.056-.996.85 0 1.606.284 2.268.853.661.57.992 1.257.992 2.063z" fill="url(#5kvjm0cb0a)"/>
    <path d="M123.328 23.402a54.829 54.829 0 0 1-4.82-5.69 97.908 97.908 0 0 1-4.181-6.331c-.331.19-.709.38-1.134.569-.426.19-.851.427-1.276.711-.473.237-.922.498-1.347.783a5.19 5.19 0 0 0-.921.71 1.517 1.517 0 0 0-.355.285l-.283.427-.638.854a38.523 38.523 0 0 1-1.418 1.778 47.245 47.245 0 0 1-1.488 1.707 140.805 140.805 0 0 1-3.686 3.983 57.764 57.764 0 0 1-3.898 3.699h23.035c.142-1.517.945-2.68 2.41-3.485zm-18.924 35.422c0 .854-.496 1.28-1.489 1.28-.142 0-.378-.094-.709-.284a6.768 6.768 0 0 0-.567-.356 14.54 14.54 0 0 1-.992-.782 16.393 16.393 0 0 0-.921-.854 55.292 55.292 0 0 0-4.537-3.698 138.023 138.023 0 0 0-4.748-3.557c.425-.237 1.016-.616 1.772-1.138a53.349 53.349 0 0 1 2.41-1.707 44.225 44.225 0 0 1 2.338-1.423c.804-.474 1.394-.71 1.772-.71.237 0 .473.07.71.212.236.095.448.238.637.427.095.095.307.57.638 1.423.331.806.709 1.802 1.134 2.987a75.68 75.68 0 0 1 2.126 6.615c.284.854.426 1.376.426 1.565zm30.406-9.175c0 .331-.401.9-1.204 1.707-.804.806-1.843 1.683-3.119 2.631a63.396 63.396 0 0 1-3.898 2.774c-1.323.901-2.528 1.636-3.615 2.206-1.087.569-1.867.853-2.339.853-.662 0-.992-.284-.992-.853 0-.095.023-.214.07-.356.048-.142.095-.26.142-.356a114.97 114.97 0 0 0 3.119-6.473c.945-2.133 1.866-4.41 2.764-6.828.378.142 1.04.427 1.985.853.992.427 2.032.901 3.118 1.423 1.087.522 2.009 1.02 2.765 1.494.803.427 1.204.735 1.204.925zM148.136 30.3c0 .854-.402 1.66-1.205 2.419-.804.758-1.678 1.138-2.623 1.138-2.74 0-5.41-.474-8.009-1.423a30.379 30.379 0 0 1-7.088-3.912c-.472.522-1.063.996-1.772 1.423a3.85 3.85 0 0 1-2.126.64h-8.222v8.393h14.601c.047-1.09.496-2.039 1.347-2.845.85-.854 1.842-1.28 2.976-1.28 1.087 0 2.056.403 2.906 1.209.851.758 1.276 1.66 1.276 2.703 0 1.09-.354 1.991-1.063 2.703-.709.663-1.654.995-2.835.995h-19.208v19.277h16.302a5.478 5.478 0 0 1 1.417-3.343c.898-.949 2.056-1.423 3.474-1.423 1.228 0 2.362.427 3.402 1.28 1.039.854 1.559 1.897 1.559 3.13 0 1.328-.473 2.347-1.418 3.059-.945.758-2.079 1.138-3.402 1.138H83.14V61.74h24.808V42.464H85.905V38.98h22.043v-8.393H95.544v-1.423c-.803.664-1.89 1.447-3.26 2.348a69.197 69.197 0 0 1-4.324 2.702 47.544 47.544 0 0 1-4.394 2.205c-1.37.57-2.529.854-3.474.854-.189 0-.425-.047-.708-.142-.237-.143-.355-.309-.355-.498 0-.332.166-.64.496-.925l.213-.213a78.036 78.036 0 0 1 3.615-3.414 60.369 60.369 0 0 0 3.544-3.415c3.638-3.983 7.04-8.488 10.206-13.514 3.213-5.027 5.836-10.077 7.868-15.151l9.214 3.556.425.143c.142.047.26.118.355.213.283.142.425.403.425.783 0 .284-.284.877-.851 1.778a64.052 64.052 0 0 1-1.417 2.063c.709-.38 1.677-.83 2.906-1.352a56.78 56.78 0 0 1 3.473-1.351c1.134-.427 1.843-.64 2.126-.64.425 0 .756.118.992.355.237.237.449.57.638.996a113.625 113.625 0 0 0 7.23 12.448 40.831 40.831 0 0 0 9.852 10.313c.236-.806.685-1.517 1.347-2.133.708-.617 1.559-.925 2.551-.925 1.087 0 2.009.45 2.765 1.351.756.854 1.134 1.755 1.134 2.703z" fill="url(#aucpwxcf0b)"/>
    <path d="M203.846 44.1h-24.311v7.256h14.813c.142-.901.544-1.636 1.205-2.205.709-.57 1.536-.854 2.481-.854.945 0 1.772.356 2.481 1.067.756.664 1.134 1.423 1.134 2.276 0 .901-.378 1.684-1.134 2.347a3.664 3.664 0 0 1-2.481.925h-18.499v7.895h19.846c1.512 0 2.622-.545 3.331-1.636.756-1.09 1.134-2.394 1.134-3.912V44.1zm8.576-30.799h-8.718v18.636h4.678c1.276 0 2.268-.474 2.977-1.422.709-.996 1.063-2.158 1.063-3.486V13.301zm.638 42.963c0 2.513-.614 4.528-1.843 6.046-1.181 1.517-2.74 2.608-4.678 3.272-1.937.664-4.016.995-6.237.995h-29.273V40.473h42.031v15.79zm-18.499-18.992a.894.894 0 0 1-.425.782c-.237.19-.544.285-.922.285-.898 0-2.008-.26-3.331-.782a62.727 62.727 0 0 1-4.04-1.992 72.8 72.8 0 0 1-3.969-2.419 68.038 68.038 0 0 1-2.906-1.991 89.62 89.62 0 0 0 3.118-2.276 90.014 90.014 0 0 1 3.119-2.419 82.22 82.22 0 0 0 4.465 5.193 441.536 441.536 0 0 1 4.536 4.765c.237.238.355.522.355.854zm-1.347-16.218c0 1.044-.354 1.873-1.063 2.49-.709.569-1.607.854-2.693.854h-8.01a14.571 14.571 0 0 1-2.551 6.117c-1.276 1.802-2.835 3.414-4.678 4.837a31.899 31.899 0 0 1-5.883 3.556 43.802 43.802 0 0 1-6.096 2.276l-1.559.427c-.472.142-1.016.213-1.63.213-.284 0-.544-.095-.78-.284-.189-.19-.283-.38-.283-.57 0-.379.165-.64.496-.782.094-.095.236-.19.425-.284.095 0 .236-.048.425-.143 3.261-1.517 6.025-3.556 8.293-6.117 2.268-2.56 3.875-5.643 4.82-9.246h-14.105v-3.344h14.53a95.81 95.81 0 0 0 .213-3.77c.047-1.28.071-2.536.071-3.77h-3.119c-.662.57-1.654 1.305-2.977 2.206a34.194 34.194 0 0 1-3.969 2.418c-1.323.711-2.434 1.067-3.331 1.067-.189 0-.402-.071-.638-.213-.189-.143-.284-.309-.284-.498 0-.19.047-.38.142-.57l.425-.568c1.134-1.376 2.339-3.012 3.615-4.908a64.461 64.461 0 0 0 3.544-6.117c1.087-2.134 1.89-4.22 2.41-6.26 1.37.332 2.859.83 4.465 1.494 1.607.616 2.977 1.138 4.111 1.565.284.047.425.237.425.569 0 .19-.212.592-.638 1.209a19.844 19.844 0 0 1-1.488 2.063c-.567.758-1.11 1.47-1.63 2.134-.52.616-.922 1.066-1.205 1.351h9.923c.094-.996.567-1.873 1.417-2.632.898-.806 1.89-1.209 2.977-1.209.993 0 1.89.356 2.694 1.067.803.711 1.205 1.541 1.205 2.49 0 .948-.355 1.754-1.064 2.418a3.66 3.66 0 0 1-2.48.925h-5.245c-.048 1.233-.118 2.49-.213 3.77-.094 1.28-.189 2.537-.283 3.77h3.047a5.21 5.21 0 0 1 1.347-2.632c.756-.76 1.677-1.138 2.764-1.138 1.087 0 2.032.379 2.835 1.138.851.758 1.276 1.636 1.276 2.631zm28.21 4.553c0 2.797-.496 4.908-1.489 6.33-.992 1.423-2.41 2.371-4.252 2.845-1.796.475-3.946.712-6.45.712H195.27V9.958h26.154v15.649z" fill="url(#9joot2nbkc)"/>
    <path d="M253.248 52.494c0 .569-.378 1.446-1.134 2.632-.709 1.138-1.654 2.394-2.835 3.77a48.373 48.373 0 0 1-3.686 3.983c-1.276 1.28-2.504 2.323-3.685 3.13-1.182.805-2.15 1.209-2.906 1.209-.378 0-.686-.119-.922-.356a1.226 1.226 0 0 1-.283-.782v-.285c.047-.047.07-.095.07-.142.048-.048.071-.119.071-.214 0-.047.024-.094.071-.142a200.784 200.784 0 0 0 2.906-7.682 49.777 49.777 0 0 0 2.127-7.967c1.559.285 3.095.546 4.607.783s2.953.545 4.323.925c.331.047.615.166.851.355.283.143.425.403.425.783zm24.099-1.992c0 .38-.426 1.043-1.276 1.992-.803.948-1.819 1.944-3.048 2.987a38.267 38.267 0 0 1-3.402 2.703c-1.04.711-1.819 1.067-2.339 1.067-.614 0-.921-.26-.921-.782l.354-1.565.78-3.059c.283-1.185.567-2.3.85-3.343.284-1.09.449-1.873.496-2.347.331.047.922.142 1.772.284.851.143 1.725.285 2.623.427.945.142 1.795.285 2.551.427.756.142 1.158.237 1.205.284l-.071-.07c.284.236.426.568.426.995zm23.035 4.552c0 1.28-.378 2.466-1.134 3.557a12.794 12.794 0 0 1-2.764 2.774c-1.087.854-2.15 1.517-3.19 1.992-3.213 1.517-6.639 2.608-10.277 3.271a54.975 54.975 0 0 1-10.703 1.068c-1.795 0-3.662-.095-5.599-.285a20.184 20.184 0 0 1-5.387-1.138 10.002 10.002 0 0 1-4.182-2.916c-1.086-1.328-1.724-3.154-1.913-5.477a17.068 17.068 0 0 1-.071-1.565v-4.268c.047-.901.071-1.802.071-2.703l9.072.498c-.047 1.233-.094 2.442-.142 3.627v3.557c0 1.517.52 2.656 1.56 3.414 1.086.759 2.362 1.233 3.827 1.423 1.465.237 2.764.355 3.898.355 2.174 0 4.466-.07 6.876-.213a44.117 44.117 0 0 0 7.158-.996c2.316-.521 4.418-1.351 6.308-2.49-.661-.379-1.157-.877-1.488-1.493-.331-.664-.496-1.328-.496-1.992 0-.948.472-1.802 1.417-2.56.945-.806 1.891-1.21 2.836-1.21 1.086 0 2.079.356 2.976 1.068.898.71 1.347 1.612 1.347 2.702zM281.599 37.13c0 .853-.33 1.517-.992 1.991a3.382 3.382 0 0 1-2.126.712l-32.604.07v-3.129h29.343c.048-.759.426-1.351 1.134-1.778.756-.474 1.512-.712 2.268-.712.851 0 1.56.285 2.127.854.567.57.85 1.233.85 1.992zm8.151 13.514c0 .238-.165.546-.496.925-.283.38-.638.759-1.063 1.138-.756.664-1.725 1.375-2.906 2.134a84.004 84.004 0 0 1-3.473 2.063 48.779 48.779 0 0 1-3.26 1.565c-.945.379-1.654.569-2.127.569h-.354c-.614 0-.922-.214-.922-.64l.567-.996 1.418-2.49c.567-.996 1.134-2.015 1.701-3.058.614-1.091 1.134-2.04 1.559-2.846.473-.806.78-1.351.922-1.636l7.442 2.205c.662.143.992.498.992 1.067zm2.765-11.38c0 2.323-.567 4.007-1.701 5.05-1.134.996-2.576 1.636-4.324 1.92a37.953 37.953 0 0 1-5.245.356h-35.368v-3.272h31.541c2.22 0 3.756-.332 4.607-.996.897-.711 1.346-2.276 1.346-4.694v-4.695h-37.565v-3.272h46.709v9.603zm9.993-18.85c0 .759-.33 1.446-.992 2.063-.614.616-1.37.925-2.268.925h-12.9v4.765h-8.647v-4.765h-11.978v-3.059a41.986 41.986 0 0 1-3.899 1.707c-1.323.474-2.244.806-2.764.996l.213 4.41-7.939.356-.071-2.774a684.738 684.738 0 0 1-6.166 1.778 63.706 63.706 0 0 1-6.308 1.494l-2.552-6.33c2.552-.285 5.033-.546 7.443-.783a167.95 167.95 0 0 0 7.229-.854l-.213-3.84h-10.49V13.3h10.349l-.213-3.272H238.86V6.757h11.269l-.354-5.548 8.009-.355.284 5.903h2.339c.047-.711.354-1.327.921-1.849.614-.57 1.3-.854 2.056-.854.945 0 1.724.332 2.339.996.661.617.992 1.352.992 2.205 0 1.043-.307 1.778-.921 2.205-.615.38-1.324.57-2.127.57h-5.387l.142 3.271h1.276c.047-.616.378-1.138.992-1.565.662-.426 1.3-.64 1.914-.64.803 0 1.488.285 2.055.854.568.569.851 1.185.851 1.85 0 .9-.26 1.588-.78 2.062-.519.427-1.157.64-1.913.64h-4.253l.071 2.419a67.83 67.83 0 0 1 3.331-.57c1.323-.237 2.552-.45 3.686-.64l.709-.142c.283-.047.519-.095.708-.142.237-.048.449-.071.638-.071a2.08 2.08 0 0 1 .496-.072h.284c.142-.047.236-.023.283.072.142 0 .213.166.213.498 0 .284-.26.64-.78 1.067-.519.379-1.181.758-1.984 1.138h11.482V16.43h-8.293v-3.13h8.293V9.887h-9.71V6.544h9.71V.924h8.647v5.62h7.159c.047-.806.425-1.494 1.134-2.063.709-.569 1.465-.853 2.268-.853.945 0 1.748.332 2.41.995.661.617.992 1.352.992 2.205 0 .807-.331 1.518-.992 2.134-.614.617-1.37.925-2.268.925h-10.703v3.414h5.67c.142-.616.497-1.138 1.064-1.565.614-.474 1.275-.71 1.984-.71.756 0 1.418.284 1.985.853.614.521.921 1.114.921 1.778 0 .948-.307 1.66-.921 2.134-.567.427-1.323.64-2.268.64h-8.435v3.628h9.427c.095-.807.473-1.47 1.134-1.992a3.565 3.565 0 0 1 2.268-.782c.945 0 1.725.308 2.339.924.662.617.992 1.352.992 2.205z" fill="url(#njlswgm7md)"/>
    <path d="M352.619 36.987V26.531h-5.103v10.456h5.103zm0-13.941V10.812h-5.103v12.234h5.103zm14.956-12.234h-6.379v11.594c.33-.332.708-.593 1.134-.783a2.723 2.723 0 0 1 1.346-.355c.756 0 1.371.284 1.843.853.52.522.78 1.115.78 1.779 0 .758-.189 1.327-.567 1.707-.331.38-.78.64-1.347.782a5.386 5.386 0 0 1-1.559.213 19.602 19.602 0 0 0-1.63-.07v10.384h2.551c.993 0 1.772-.403 2.339-1.209s.945-1.754 1.134-2.845c.237-1.09.355-2.063.355-2.916V10.812zm-26.296 32.293c0 .284-.047.498-.142.64-.803 1.043-1.866 2.134-3.189 3.272-1.323 1.09-2.528 1.991-3.615 2.703a62.381 62.381 0 0 1-8.931 4.837 227.103 227.103 0 0 1-9.639 3.84l-3.969-7.895 4.961-1.138c1.654-.427 3.284-.877 4.891-1.351V31.297h-7.443v-3.272h7.443V13.301h-8.435V10.03h16.656c.048-1.233.426-2.252 1.135-3.058.756-.806 1.795-1.21 3.118-1.21 1.04 0 2.008.38 2.906 1.139.898.758 1.347 1.636 1.347 2.631 0 .949-.402 1.826-1.205 2.632-.756.759-1.654 1.138-2.693 1.138h-4.253v14.724h1.205c.094-.806.425-1.47.992-1.991.614-.522 1.347-.783 2.197-.783.804 0 1.536.308 2.198.925.708.616 1.063 1.304 1.063 2.063 0 .995-.331 1.754-.993 2.276-.614.521-1.417.782-2.409.782h-4.253v14.795c.52-.142 1.276-.38 2.268-.711l3.119-1.138a17.818 17.818 0 0 1 1.701-.57c.567-.189 1.063-.379 1.488-.568.473-.143.874-.261 1.205-.356.331-.095.52-.142.567-.142.473 0 .709.166.709.498zm41.038 18.067c0 1.185-.401 2.157-1.205 2.916-.756.806-1.795 1.21-3.118 1.21h-46.496v-3.842h21.051v-8.962h-12.688v-3.628h12.688v-8.18h-13.113V7.113h37.424v20.912c0 4.315-.993 7.516-2.977 9.603-1.937 2.039-5.127 3.058-9.569 3.058h-3.047v8.18h7.229c.047-1.043.544-1.968 1.489-2.774.992-.853 2.008-1.28 3.047-1.28 1.182 0 2.174.45 2.977 1.351.851.901 1.276 1.873 1.276 2.917 0 .948-.378 1.754-1.134 2.418a3.854 3.854 0 0 1-2.622.996h-12.262v8.962h11.269c.095-1.423.614-2.584 1.56-3.485.992-.901 2.22-1.352 3.685-1.352 1.323 0 2.41.45 3.261 1.352.85.9 1.275 1.968 1.275 3.2z" fill="url(#tc3qksmzme)"/>
    <path d="M413.079 9.39h-9.64V20.2h1.772c.095-.805.496-1.47 1.205-1.99.756-.522 1.512-.783 2.268-.783.851 0 1.559.332 2.126.996.568.664.851 1.351.851 2.062 0 .854-.26 1.589-.78 2.205-.519.57-1.252.854-2.197.854h-5.245v8.464h1.772c.095-.806.496-1.446 1.205-1.92.756-.474 1.512-.711 2.268-.711.803 0 1.489.332 2.056.995.614.617.921 1.28.921 1.992 0 .806-.26 1.518-.78 2.134-.519.616-1.252.925-2.197.925h-5.245v10.1h5.245c1.512 0 2.623-.498 3.331-1.494.756-1.043 1.134-2.323 1.134-3.84l-.07-30.8zm-5.6 44.384c0 .237-.047.45-.142.64-.897 1.47-2.055 2.988-3.473 4.553a39.895 39.895 0 0 1-4.607 4.338c-1.654 1.328-3.26 2.395-4.819 3.201-.331.19-.898.45-1.701.783-.757.332-1.347.498-1.772.498-.567 0-.851-.214-.851-.64 0-.238.071-.427.213-.57.094-.094.165-.19.212-.284a.853.853 0 0 1 .142-.214 63.268 63.268 0 0 0 4.607-7.468 37.716 37.716 0 0 0 3.261-8.393c1.417.474 2.835.972 4.252 1.493 1.465.474 2.883.972 4.253 1.494.283.047.425.237.425.57zm15.735 9.603a.877.877 0 0 1-.354.71c-.236.19-.52.285-.851.285-.756 0-1.701-.379-2.835-1.138-1.087-.711-2.244-1.612-3.473-2.703a49.32 49.32 0 0 1-3.473-3.556c-1.087-1.233-1.961-2.371-2.622-3.414l8.363-3.628c.756 2.608 1.536 4.813 2.339 6.615a825.674 825.674 0 0 0 2.694 5.975c.141.19.212.474.212.854zm-1.488-24.184c0 2.75-.591 4.86-1.772 6.33-1.182 1.423-2.741 2.395-4.678 2.916-1.938.474-4.087.712-6.45.712h-13.68V5.69h26.58v33.502zM460 18.778c0 1.375-.473 2.395-1.418 3.059-.897.664-2.008.996-3.331.996h-6.733c.047 5.31.118 10.598.212 15.862.142 5.216.213 10.48.213 15.79 0 1.47-.071 2.917-.213 4.34-.094 1.422-.401 2.702-.921 3.84a5.977 5.977 0 0 1-2.339 2.845c-1.087.712-2.599 1.067-4.536 1.067-1.56 0-3.19-.498-4.891-1.493a27.886 27.886 0 0 1-4.82-3.415c-1.512-1.327-2.764-2.513-3.756-3.556a1.1 1.1 0 0 0-.213-.285c-.094-.142-.142-.26-.142-.355 0-.142.071-.237.213-.285a1.14 1.14 0 0 1 .496-.142c.189 0 .426.071.709.213.284.095.591.19.921.285.993.284 2.292.569 3.899.854 1.606.237 2.929.355 3.969.355.945 0 1.607-.308 1.985-.925.378-.663.59-1.446.637-2.347.095-.9.142-1.754.142-2.56 0-2.988-.047-6.023-.142-9.105-.047-3.082-.094-5.714-.141-7.896-.993 1.802-2.292 3.628-3.899 5.477a43.41 43.41 0 0 1-5.103 5.122c-1.843 1.565-3.686 2.869-5.528 3.912l-1.56.782c-.708.332-1.441.64-2.197.925-.756.285-1.323.427-1.701.427-.094 0-.283-.024-.567-.071-.284-.048-.425-.166-.425-.356 0-.332.071-.569.212-.711l.284-.285.213-.213c2.22-2.087 4.323-4.505 6.308-7.255a60.372 60.372 0 0 0 5.245-8.75c1.512-3.082 2.693-6.116 3.544-9.104l5.245 2.347-.071-5.334h-15.097v-3.486h15.026l-.355-15.364h8.931l.142 15.364h3.048c.047-1.185.449-2.276 1.205-3.272.803-.995 1.866-1.493 3.189-1.493 1.181 0 2.15.403 2.906 1.209.803.758 1.205 1.754 1.205 2.987z" fill="url(#km11f9cz7f)"/>
    <defs>
        <linearGradient id="5kvjm0cb0a" x1="423.455" y1="81.281" x2="423.455" y2="-21.349" gradientUnits="userSpaceOnUse">
            <stop stop-color="#002D68"/>
            <stop offset="1" stop-color="#104C9C"/>
        </linearGradient>
        <linearGradient id="aucpwxcf0b" x1="423.455" y1="81.281" x2="423.455" y2="-21.349" gradientUnits="userSpaceOnUse">
            <stop stop-color="#002D68"/>
            <stop offset="1" stop-color="#104C9C"/>
        </linearGradient>
        <linearGradient id="9joot2nbkc" x1="423.455" y1="81.281" x2="423.455" y2="-21.349" gradientUnits="userSpaceOnUse">
            <stop stop-color="#002D68"/>
            <stop offset="1" stop-color="#104C9C"/>
        </linearGradient>
        <linearGradient id="njlswgm7md" x1="423.455" y1="81.281" x2="423.455" y2="-21.349" gradientUnits="userSpaceOnUse">
            <stop stop-color="#002D68"/>
            <stop offset="1" stop-color="#104C9C"/>
        </linearGradient>
        <linearGradient id="tc3qksmzme" x1="423.455" y1="81.281" x2="423.455" y2="-21.349" gradientUnits="userSpaceOnUse">
            <stop stop-color="#002D68"/>
            <stop offset="1" stop-color="#104C9C"/>
        </linearGradient>
        <linearGradient id="km11f9cz7f" x1="423.455" y1="81.281" x2="423.455" y2="-21.349" gradientUnits="userSpaceOnUse">
            <stop stop-color="#002D68"/>
            <stop offset="1" stop-color="#104C9C"/>
        </linearGradient>
    </defs>
</svg>
