<?xml version="1.0" encoding="UTF-8"?>
<svg id="_圖層_1" xmlns="http://www.w3.org/2000/svg" version="1.1" xmlns:xlink="http://www.w3.org/1999/xlink" viewBox="0 0 821 373">
  <!-- Generator: Adobe Illustrator 29.7.1, SVG Export Plug-In . SVG Version: 2.1.1 Build 8)  -->
  <defs>
    <style>
      .st0, .st1, .st2, .st3, .st4, .st5, .st6, .st7, .st8, .st9, .st10, .st11, .st12, .st13, .st14, .st15, .st16, .st17, .st18, .st19, .st20, .st21, .st22, .st23, .st24, .st25 {
        stroke-linecap: round;
      }

      .st0, .st1, .st3, .st7, .st11, .st20, .st21, .st24 {
        stroke: #0154b1;
      }

      .st0, .st2, .st3, .st4, .st5, .st26, .st7, .st8, .st12, .st13, .st14, .st15, .st16, .st17, .st18, .st19, .st21, .st22, .st23, .st24, .st25 {
        fill: none;
      }

      .st0, .st2, .st3, .st4, .st5, .st8, .st14, .st16, .st17, .st19, .st23 {
        stroke-width: .9px;
      }

      .st0, .st12, .st24 {
        stroke-miterlimit: 10;
      }

      .st27, .st1 {
        fill: #ffc4b6;
      }

      .st1, .st2, .st3, .st4, .st5, .st6, .st7, .st8, .st9, .st10, .st11, .st13, .st14, .st15, .st16, .st17, .st18, .st19, .st20, .st21, .st22, .st23, .st25 {
        stroke-linejoin: round;
      }

      .st1, .st6, .st9, .st11, .st20, .st21 {
        stroke-width: 1.5px;
      }

      .st28 {
        fill: #ffb5a1;
      }

      .st29 {
        fill: #f69c31;
      }

      .st30 {
        clip-path: url(#clippath-4);
      }

      .st31 {
        fill: #f99e32;
      }

      .st32 {
        fill: #003156;
      }

      .st2 {
        stroke: #003156;
      }

      .st33, .st34 {
        opacity: .6;
      }

      .st35 {
        fill: #f49a38;
      }

      .st4 {
        stroke: #9ef1a5;
      }

      .st36, .st34, .st6, .st37, .st10, .st11 {
        fill: #fff;
      }

      .st38 {
        fill: #002942;
      }

      .st34, .st37, .st10, .st39 {
        isolation: isolate;
      }

      .st40 {
        fill: #dd732c;
      }

      .st41 {
        fill: #ed8620;
      }

      .st5 {
        stroke: #df9039;
      }

      .st6, .st9 {
        stroke: #0154b7;
      }

      .st42 {
        fill: #f9e3ba;
      }

      .st7, .st10, .st22 {
        stroke-width: 2.7px;
      }

      .st37 {
        opacity: .4;
      }

      .st43 {
        fill: #f89a33;
      }

      .st44 {
        clip-path: url(#clippath-1);
      }

      .st45, .st20 {
        fill: #a2bdff;
      }

      .st46 {
        fill: #faad47;
      }

      .st47 {
        fill: #e3772d;
      }

      .st8 {
        stroke: #8e3723;
      }

      .st48 {
        fill: #8ed78f;
      }

      .st9, .st49 {
        fill: #f9b7b7;
      }

      .st50 {
        fill: #9fb78d;
      }

      .st10 {
        opacity: .7;
      }

      .st10, .st22 {
        stroke: #9fbfed;
      }

      .st51 {
        fill: #ffd44c;
      }

      .st52 {
        fill: #fdeebd;
      }

      .st53 {
        clip-path: url(#clippath-3);
      }

      .st54 {
        fill: #c65128;
      }

      .st55 {
        fill: #de5c28;
      }

      .st39 {
        fill: url(#_未命名漸層);
        opacity: .5;
      }

      .st56 {
        fill: #db7b3a;
      }

      .st12 {
        stroke: #fff;
        stroke-width: 2.8px;
      }

      .st57 {
        fill: #faa637;
      }

      .st13 {
        stroke-width: .9px;
      }

      .st13, .st15 {
        stroke: #5bbe5a;
      }

      .st58 {
        fill: #ffc54c;
      }

      .st14 {
        stroke: #728ee8;
      }

      .st59 {
        fill: #f9aa40;
      }

      .st15 {
        stroke-width: .9px;
      }

      .st16 {
        stroke: #576b40;
      }

      .st17 {
        stroke: #adeeab;
      }

      .st18 {
        stroke: #dd5c3e;
        stroke-width: 1.8px;
      }

      .st60 {
        fill: #91aa77;
      }

      .st61 {
        fill: #0154b1;
      }

      .st62 {
        fill: #83da8e;
      }

      .st63 {
        fill: #ffd652;
      }

      .st64 {
        fill: #0154b7;
      }

      .st19 {
        stroke: #f4d6a2;
      }

      .st65 {
        fill: #589c4b;
      }

      .st66 {
        fill: #f4982a;
      }

      .st67 {
        fill: #fcae47;
      }

      .st68 {
        fill: #4aa846;
      }

      .st69 {
        clip-path: url(#clippath-2);
      }

      .st70 {
        fill: #7eca78;
      }

      .st23 {
        stroke: #4b80e1;
      }

      .st24 {
        stroke-width: .7px;
      }

      .st71 {
        fill: #dd5c3e;
      }

      .st72 {
        fill: #6dcd71;
      }

      .st73 {
        fill: #00407f;
      }

      .st74 {
        fill: #70bb64;
      }

      .st75 {
        fill: #ffcf57;
      }

      .st76 {
        fill: #5bbe5a;
      }

      .st77 {
        clip-path: url(#clippath);
      }

      .st25 {
        stroke: #70bb64;
        stroke-width: .9px;
      }

      .st78 {
        fill: #dee6ef;
      }

      .st79 {
        fill: #e67428;
      }
    </style>
    <linearGradient id="_未命名漸層" data-name="未命名漸層" x1="-241.6" y1="-368.8" x2="357.4" y2="-227.9" gradientTransform="translate(476 -114.7) rotate(6.8) scale(1 -1)" gradientUnits="userSpaceOnUse">
      <stop offset=".3" stop-color="#fff" stop-opacity="0"/>
      <stop offset=".7" stop-color="#fff" stop-opacity=".8"/>
    </linearGradient>
    <clipPath id="clippath">
      <path class="st26" d="M487.5,115l-4.9,1.9,15.6,40,4.9-1.9c9.6-3.8,13.9-15.7,9.6-26.8-4.3-11-15.6-16.9-25.2-13.2Z"/>
    </clipPath>
    <clipPath id="clippath-1">
      <path class="st26" d="M235.1,145.5l7.9-6.6,44,47-7.9,6.6c-12.1,10.2-31.8,8-44-5-12.1-13-12.1-31.7,0-42Z"/>
    </clipPath>
    <clipPath id="clippath-2">
      <path class="st26" d="M236.6,297.5l-10.2-4.2-23.3,57,10.2,4.2c12,4.9,26.9-3.9,33.3-19.6,6.4-15.7,2-32.5-10-37.4Z"/>
    </clipPath>
    <clipPath id="clippath-3">
      <path class="st26" d="M226.2,86.3l-7.8-5-33.3,51.6,7.8,5c9.1,5.9,23.9-.9,33.1-15.2,9.2-14.2,9.3-30.6.1-36.4h0Z"/>
    </clipPath>
    <clipPath id="clippath-4">
      <path class="st26" d="M69.6,225.9l-4.1-4.4-36.3,33.7,4.1,4.4c8.1,8.7,22.8,8.3,32.8-1,10-9.3,11.6-23.9,3.5-32.6h0Z"/>
    </clipPath>
  </defs>
  <polygon class="st39" points="799.1 75.4 810.2 81.2 794.9 0 719.8 34.4 731.5 40.4 703.8 96.6 607.6 85 568.4 182 446.9 164.8 401.7 268 163.2 230 164.9 312.5 446.2 349.2 491.5 246.4 612.9 263.7 652.1 166.7 748.3 178.2 799.1 75.4"/>
  <g>
    <g>
      <g>
        <g>
          <g>
            <g>
              <path class="st49" d="M560.5,243.3l13,5.7s-5.8,21.4-5.8,21.6-14.6-6.3-14.6-6.3"/>
              <g>
                <path class="st36" d="M564.6,269.7l6-22.4,13.3,5.1-10.1,37.6c-9.3-4.6-4.6-14.8-9.2-20.4h0Z"/>
                <line class="st0" x1="581.5" y1="251.5" x2="571.5" y2="288.5"/>
                <path class="st0" d="M575.7,249.3s-1.3,6.1,3.4,11.1"/>
                <path class="st0" d="M567.7,280.2s2.4-2.8,6.7-2.2"/>
                <line class="st0" x1="566" y1="272.1" x2="569.7" y2="270.3"/>
                <line class="st0" x1="566.7" y1="274.7" x2="570.4" y2="273"/>
              </g>
            </g>
            <path class="st32" d="M507.3,189.5c0-.4-4.2,24.2-6.1,33.4-1.6,7.9.9,16.9,4,20.7,4.4,5.3,13.2,8.9,20.3,12.1,7.1,3.2,33.7,15.7,33.7,15.7l9.6-25.2-40-17.5,6.4-39.2"/>
            <path class="st0" d="M527.6,192.4c0,6.1-7.9,39.4-2,42.1,1.7.8,2.9,2.6,4.5,3.4,11.4,6,23.5,10.5,35.4,15.3.2,0,.4.2.6.2"/>
            <path class="st0" d="M531.1,188.8c0,6.1-5.8,35.8-5,41.7.5,3.2,3.4,4.6,6.3,5.8,11.5,5,23,9.8,34.6,14.7"/>
            <path class="st0" d="M529,229c-.5,2.3-.7,7.2-.7,7.2"/>
            <path class="st0" d="M521.7,249.2c4.2-.3,8.3-.6,12.5-.9"/>
            <path class="st0" d="M528.8,253c2.8.4,5.6.9,8.4,1.3"/>
          </g>
          <g>
            <path class="st49" d="M491.9,278.3l-3.4,14.1h-23.3c-.2,0,3.1-15.8,3.1-15.8"/>
            <g>
              <path class="st36" d="M465.6,289.1h24.2l1.9,13.6h-40.7c-.4-9.7,11.6-8,14.6-13.6Z"/>
              <line class="st0" x1="491.4" y1="300.1" x2="451.3" y2="300.1"/>
              <path class="st0" d="M490.5,294.2s-6.4.4-8.7,5.9"/>
              <path class="st0" d="M457.3,294.5s3.9,1.6,5.5,5.6"/>
              <line class="st0" x1="464" y1="290.9" x2="467.6" y2="293.9"/>
              <line class="st0" x1="461.9" y1="292.2" x2="465.4" y2="295.3"/>
            </g>
          </g>
          <path class="st32" d="M500.3,192.9l-1.8,6.3c.9-1.3-8.3,12.1-15.5,22.2-3.7,5.1-5.8,15.1-8.9,26.7-3.1,11.5-9.2,38.1-9.2,38.1h29.9s10.6-43.5,11.1-45.2,17.3-20.6,22.5-25.6c5.2-5.1,10.4-11.7,8.4-22.9"/>
          <path class="st0" d="M526.1,190.2s-.9,7.4-3.2,9.8c-2.3,2.4-14.9,16.3-18.6,21.4-3.7,5.1-7.4,15.1-10.5,26.6s-9.2,38.1-9.2,38.1"/>
          <path class="st0" d="M522.4,190.9s-.4,4.2-2.4,7.2-15.6,17.2-19.5,23.3c-3.3,5.4-7.4,15.1-10.5,26.6s-9.2,38.1-9.2,38.1"/>
          <path class="st0" d="M505,244.2c.4-1.8.7-3,.8-3.2.5-1.7,17.3-20.6,22.5-25.6.9-.8,1.7-1.4,2.6-2.2"/>
        </g>
        <g>
          <path class="st41" d="M496,136.5l-15.7,4.5s4.9,27.3,8.7,31.5c3.9,4.2,9,5.5,13.6,2.8,3.9-2.3,26-23.4,26-23.4l-10.6-12.2-17.6,12.5-4.4-15.7h0Z"/>
          <path class="st35" d="M522.5,137.1c-7.3,1.8-11.4,6.9-14.2,13.4-2.5,5.7-4.5,11.5-6.3,17.4-1.8,5.7-2.9,11.6-4.8,17.2-.5,1.6-.9,3.3-.6,4.9.3,1.6.6,3.3,2.2,4l-.9,4.5h40.5v-4.5c4.6-3.1,4.6-7.9,5.1-13.2,1.4-12.6-.2-25.6,3.7-37.7"/>
          <line class="st0" x1="498.6" y1="194" x2="529.6" y2="194"/>
          <line class="st0" x1="538.3" y1="193.9" x2="533.5" y2="193.9"/>
          <line class="st0" x1="500.4" y1="152.3" x2="496.6" y2="158.7"/>
        </g>
        <g>
          <path class="st35" d="M534.7,132.6c4.8-.5,9.8,0,13.9,2.2.8.4,1.6.9,2.3,1.5.5.4.9.9,1.3,1.4,1.2,1.7,1.7,3.8,1.2,5.7-.4,1.9-1.8,3.7-3.8,4.8-1.2.6-2.5.9-3.9,1.2-2.9.5-6,.5-8.9,0"/>
          <path class="st49" d="M516.9,125.7c.9-2.4,2.5-4.8,3.7-6.3,1.1-1.3,2.5-2.4,4.2-2.7,2.2-.5,5.3-.4,7.2.7,3.1,1.9,2.3,6.6,1.3,9.6-.8,2.3-1.9,4.5-4,5.9-3.3,2.3-9,3-11.8-.5-1.6-1.9-1.4-4.3-.6-6.6h0Z"/>
          <path class="st49" d="M538.3,126.3l-1.9,5.6-.3,6.2s-4.4,4.1-8.8,3.3c-5.4-.9-6.3-2.8-6.3-2.8l1.8-8.3"/>
          <g>
            <path class="st0" d="M528.2,126.2c-.8,1.4-2.5,1.8-3.9,1s-1.8-2.5-1-3.9,2.5-1.8,3.9-1,1.8,2.5,1,3.9Z"/>
            <path class="st0" d="M521.6,122.8c-.8,1.4-2.3,2-3.4,1.3s-1.3-2.2-.5-3.6,2.3-2,3.4-1.3c1.1.6,1.3,2.2.5,3.6Z"/>
            <line class="st0" x1="521.9" y1="122" x2="523.7" y2="122.9"/>
            <line class="st0" x1="528.6" y1="125.1" x2="533.5" y2="126.3"/>
          </g>
          <path class="st24" d="M522.5,123c-.5.6-1.1,1.1-1.7,1.5-.5.3-1,.6-1.4,1s-.2,1.1.3,1.6"/>
          <path class="st61" d="M524.5,123.4c-.2.4-.2.9,0,1.1s.8,0,1-.4.2-.9,0-1.1-.8,0-1,.4Z"/>
          <path class="st61" d="M519.4,120.7c-.2.4-.2.9,0,1.1s.8,0,1-.4.2-.9,0-1.1-.8,0-1,.4Z"/>
          <path class="st36" d="M519.8,128.2l2.7-.7s.6,2.2-.6,2.6c-1.7.5-2.1-2-2.1-2h0Z"/>
          <path class="st24" d="M526.9,120.4c.3,0,.7,0,1,.2.6.5,1,1.3,1.1,2.1"/>
          <path class="st24" d="M522.5,118.9c-.2-.3-.5-.5-.9-.6s-.8,0-1.2,0"/>
          <path class="st32" d="M521.1,111.5c.4-.3,1-.3,1.3-.7.2-.3.2-.8.4-1.2.4-1.3,2.2-2,3.4-1.5.8.3,1.2,1.1,1.8,1.7,1.2,1.1,2.7,1.3,4.2,1.6,1.5.3,3,.6,4.3,1.5,2.7,1.7,4.4,4.7,4.9,7.9,0,.4,0,.8,0,1.2,0,2.5-.8,4.3-2.2,6.3-.9,1.3-1.9,2.5-3,3.5l-2.9-5.3c-1.8-1.9-2.6-6-2-8.5-.6.4-2.9.9-3.2.9-2.7.2-6.7-.7-7.7-3.7,0-.4-.2-.9-.2-1.3,0-.7,0-1.8.7-2.3h.1Z"/>
          <g>
            <path class="st49" d="M531.6,126.9c.6-1.2,2.6-1.4,3.6-.6,2.3,2-.7,6.2-3.3,5.6-.8-.2-1.6-.8-1.6-1.7"/>
            <line class="st24" x1="534.5" y1="128.4" x2="531.4" y2="129.4"/>
            <path class="st24" d="M533.1,125.9c-.6,0-1.1.4-1.4.8"/>
            <path class="st24" d="M535.4,130.1c-.8,1.4-2.7,2.3-4.2,1.8-.6-.2-1-.7-1.1-1.4"/>
          </g>
          <path class="st35" d="M545.4,135.5c-3.6-1.2-7.8,0-11.3.8-4.6,1-9.2,3.4-11.9,7.4-1.1,1.6-1.8,3.5-3,5"/>
          <path class="st0" d="M522.8,142.5c4.6-4.8,11-7.3,17.6-7.3s2.7,0,4.1.1"/>
          <path class="st0" d="M541.5,147.7c1.4.9,3.1,1.4,4.8,1.3"/>
        </g>
        <g>
          <g>
            <path class="st46" d="M487.5,115l-4.9,1.9,15.6,40,4.9-1.9c9.6-3.8,13.9-15.7,9.6-26.8-4.3-11-15.6-16.9-25.2-13.2Z"/>
            <g class="st77">
              <path class="st29" d="M505.3,112.7l-20.2,7.9-.8-2,20.2-7.9.8,2ZM511.7,115l-20.2,7.9.8,2,20.2-7.9-.8-2ZM518.9,119.4l-20.2,7.9.8,2,20.2-7.9-.8-2ZM517.2,143.1l-20.2,7.9.8,2,20.2-7.9-.8-2ZM519.5,135l-20.2,7.9.8,2,20.2-7.9-.8-2ZM521.8,126.9l-20.2,7.9.8,2,20.2-7.9s-.8-2-.8-2Z"/>
            </g>
            <ellipse class="st63" cx="491" cy="136.9" rx="18.7" ry="21.4" transform="translate(-16.2 187.7) rotate(-21.3)"/>
            <path class="st0" d="M489.6,115.4c7.8.2,15.4,5.7,18.8,14.3,4.3,11,0,23-9.6,26.8"/>
            <ellipse class="st46" cx="490.2" cy="137.2" rx="13.7" ry="16.6" transform="translate(-16.3 187.4) rotate(-21.3)"/>
            <path class="st0" d="M489.9,152.9c-5.2-.9-10.1-5-12.5-11.1-3.3-8.6-.3-17.7,6.7-20.5"/>
            <path class="st40" d="M492.9,144.7c-1.2.4-2.3.7-3.5.8-1.2,0-2.2,0-3-.2v-3c.9.2,1.8.3,2.7.3s1.9-.2,2.7-.6c.7-.3,1.2-.5,1.5-.8s.6-.6.7-.9,0-.6,0-.9c-.2-.4-.4-.7-.8-.8s-.9-.2-1.4-.1-1.2.1-1.8.2c-.6,0-1.3.2-2,.2s-1.3,0-1.9-.1-1.2-.4-1.7-.8c-.5-.4-.9-1-1.2-1.8-.3-.9-.4-1.7-.3-2.6.2-.9.6-1.7,1.3-2.5.7-.8,1.8-1.4,3.1-2,.9-.4,1.8-.6,2.8-.7,1-.1,1.9,0,2.7,0v3c-.8-.1-1.6-.2-2.4,0-.8,0-1.5.2-2.1.5-.7.3-1.2.5-1.5.8s-.6.6-.6,1v1c.2.4.4.7.8.8s.9.2,1.4,0c.5,0,1.1-.1,1.8-.2.7,0,1.3-.2,2-.2s1.3,0,1.9.1,1.2.4,1.7.8c.5.4.9,1,1.2,1.8.3.8.4,1.7.2,2.6-.2.9-.6,1.7-1.4,2.5-.7.8-1.8,1.4-3.1,2l.2-.2ZM493,147.3l-7.8-20.1,2.1-.8,7.8,20.1-2.1.8Z"/>
            <path class="st0" d="M490,120.7c3.8.2,7.2,2.4,9.4,5"/>
          </g>
          <g>
            <path class="st49" d="M495.6,150.6c-2.2-1.7-4.6-2.6-6.9-4-1-.6-2.2-1.2-3.2-1.7-1.1-.5-.8.5-.5,1.1.5.9,1.1,1.7,2,2.4-.4.3-.9.2-1.3.1-1.5-.3-2.8-.9-4.2-1.4-1.4-.5-2.9-.9-4.4-.6-.2,0-.4.1-.5.3v.3h-.3c-.3,0-.4.4-.4.7s.2.5.4.7c.8,1.1,1.6,2.4,2.2,3.7.2.4.4.9.6,1.2.3.5.8,1,1.2,1.4,3.8,3.8,8.4,6.7,13.5,8.4"/>
            <path class="st24" d="M487,148.4c1.4.2,2.7.5,4.1.8"/>
            <path class="st24" d="M476.6,147.1c1,1.1,2.4,1.8,3.8,2.4.9.4,1.8.8,2.7,1.1"/>
            <path class="st24" d="M477,149.7c1.8,1.3,3.7,2.4,5.8,3.2"/>
            <path class="st24" d="M478.4,152.3c1,.8,2,1.5,3,2.3.3.2.6.4.9.4"/>
          </g>
          <path class="st35" d="M536.8,142.9c-4.4-2.1-8.4-.8-11.7,1.7s-11.8,13.1-11.8,13.1l-18.4-8-6.9,15.3s14,8.6,20.4,10.9c6.4,2.3,11.9,2.3,17.6-3.4,5.8-5.7,11.8-14.5,11.8-14.5"/>
          <path class="st0" d="M501,172.6c2.1,1,6,2.8,7.3,3.3,6.4,2.3,11.9,2.3,17.6-3.4,5.8-5.7,11.8-14.5,11.8-14.5"/>
          <path class="st0" d="M536.8,142.9c-4.4-2.1-8.4-.8-11.7,1.7s-11.8,13.1-11.8,13.1l-6.6-2.9"/>
          <path class="st0" d="M512.9,157.5c1.7.7,3.2,1.9,4.6,3.4"/>
        </g>
      </g>
      <g>
        <path class="st38" d="M219.2,341.2L256.4,30.2c1.1-9,8.8-15.9,17.9-15.9h132c7.6,0,14.4,4.8,17,12l2.5,7.1c.9,2.6,1.2,5.4.9,8.1l-36.8,308.6c-.8,6.4-6.2,11.3-12.7,11.3h-140.1c-10.8,0-19.2-9.4-17.9-20.2h0Z"/>
        <path class="st73" d="M209.6,345.2L247.4,30.3c1.1-9.1,8.9-16,18.1-16h135.4c10.9,0,19.4,9.5,18.1,20.4l-37.5,313.4c-.9,7.6-7.4,13.3-15,13.3h-142.4c-8.7,0-15.4-7.6-14.3-16.2h-.2Z"/>
        <path class="st78" d="M215.9,343.1L253.4,29.8c.7-5.7,5.6-10.1,11.4-10.1h135.7c6.9,0,12.1,6.4,11.3,13.2l-37.5,312.9c-.7,5.7-5.6,10.1-11.4,10.1h-135.7c-6.9,0-12.2-6-11.4-12.8h0Z"/>
        <path class="st61" d="M311,19.5l2.6,5.9c.9,2.1,3,3.4,5.2,3.4h23.3c1.7,0,3.3-.8,4.4-2.1l6-7.3h-41.5Z"/>
      </g>
      <g>
        <path class="st10" d="M223.5,147.7h66.5c26,0,47.2,21.1,47.2,47.2v142.5c0,9.9-8.1,18-18,18h-124.8c-9.9,0-18-8.1-18-18v-142.5c0-26,21.1-47.2,47.2-47.2h-.1Z"/>
        <g class="st33">
          <path class="st10" d="M298.4,132.5c0-2.8-2.6-5.1-5.8-5.1,3.2,0,5.8-2.3,5.8-5.1s-2.6-5.1-5.8-5.1h-71.9c-3.2,0-5.8,2.3-5.8,5.1s2.6,5.1,5.8,5.1c-3.2,0-5.8,2.3-5.8,5.1s2.6,5.1,5.8,5.1c-3.2,0-5.8,2.3-5.8,5.1s2.6,5.1,5.8,5.1h71.9c3.2,0,5.8-2.3,5.8-5.1s-2.6-5.1-5.8-5.1c3.2,0,5.8-2.3,5.8-5.1Z"/>
          <line class="st7" x1="216.9" y1="127.4" x2="276.4" y2="127.4"/>
          <line class="st7" x1="283.4" y1="127.4" x2="296.2" y2="127.4"/>
          <line class="st7" x1="296.2" y1="137.5" x2="216.9" y2="137.5"/>
        </g>
        <path class="st22" d="M223.5,147.7h66.5c26,0,47.2,21.1,47.2,47.2v142.5c0,9.9-8.1,18-18,18h-124.8c-9.9,0-18-8.1-18-18v-142.5c0-26,21.1-47.2,47.2-47.2h-.1Z"/>
        <g>
          <rect class="st42" x="211.7" y="247.1" width="59.8" height="79.9"/>
          <rect class="st52" x="206.8" y="234.8" width="59.8" height="12.2"/>
          <rect class="st42" x="213.1" y="222.8" width="59.8" height="12.2"/>
          <line class="st19" x1="266.6" y1="234.8" x2="213.1" y2="234.8"/>
          <line class="st19" x1="211.7" y1="247.1" x2="266.6" y2="247.1"/>
          <line class="st19" x1="211.7" y1="271.5" x2="271.3" y2="271.5"/>
          <line class="st19" x1="271.5" y1="258.7" x2="262.3" y2="258.7"/>
          <line class="st19" x1="256.4" y1="258.7" x2="217.4" y2="258.7"/>
        </g>
        <g>
          <path class="st62" d="M289.9,237.9l37.9,37.2c-18.6,25.1-42,46.6-68.5,62.9l-37.9-37.2c26.6-16.4,50-37.9,68.5-62.9Z"/>
          <path class="st16" d="M243.9,285.1c17.4-13.6,32.9-29.5,46-47.2"/>
          <path class="st16" d="M307.1,299.5c-14.3,14.7-30.4,27.7-47.8,38.5l-37.9-37.2"/>
          <path class="st16" d="M313.1,293.1c5.2-5.8,10.1-11.8,14.7-18l-11.1-10.9"/>
          <path class="st4" d="M262.3,331.8c22.1-14.4,42.4-33,58.7-53.7l1.1-1.3c.6-.7.5-1.7-.2-2.3l-30.2-29.5c-.7-.7-2-.7-2.6.2l-1.3,1.7c-15.9,20-35.6,38.1-56.8,52.4l-1.9,1.3c-.9.6-1,1.9-.3,2.7l30,29.4c.6.6,1.5.7,2.2.2l1.3-.8v-.3Z"/>
          <path class="st76" d="M260.3,328.7c21.9-14.2,41.7-32.4,57.8-52.9l-27.4-26.9c-16.2,20.4-35.9,38.6-57.6,53.1l27.2,26.7h0Z"/>
          <ellipse class="st62" cx="278.1" cy="288.5" rx="13.6" ry="15.2" transform="translate(-122.6 290.2) rotate(-46.3)"/>
          <ellipse class="st13" cx="278.1" cy="288.5" rx="11.2" ry="12.4" transform="translate(-122.6 290.2) rotate(-46.3)"/>
          <ellipse class="st62" cx="296.5" cy="270.2" rx="6.6" ry="7.4" transform="translate(-103.7 297.9) rotate(-46.3)"/>
          <path class="st72" d="M293.4,273.8c2.1,2,5.3,2.1,7.1.2,1.8-1.9,1.6-5-.5-7s-5.3-2.1-7.1-.2c-1.8,1.9-1.6,5,.5,7Z"/>
          <path class="st50" d="M253.1,312.3c3,2.8,7.4,3,9.9.3s2.2-7.1-.8-9.9-7.4-3-9.9-.3-2.2,7.1.8,9.9h0Z"/>
          <path class="st60" d="M254.4,310.9c2.1,2,5.3,2.1,7.1.2s1.6-5-.5-7-5.3-2.1-7.1-.2-1.6,5,.5,7Z"/>
          <path class="st68" d="M280.9,295.6c-1,.4-1.9.6-2.7.4-.8-.1-1.5-.5-2.1-1-.5-.5-.9-1.1-1-1.7s-.1-1.2,0-1.8c.1-.6.4-1.2.7-1.8.3-.6.6-1.2,1-1.7.4-.6.7-1.1.9-1.5.3-.5.4-.9.5-1.3,0-.4,0-.7-.3-1s-.5-.3-.8-.4c-.3,0-.7,0-1.1.3-.4.2-.8.6-1.3,1.1s-.9,1.1-1.3,1.7c-.4.7-.7,1.4-.9,2.1l-2.6-1c.2-.8.5-1.6,1-2.5.5-.8,1.1-1.6,1.7-2.3,1-1,2-1.8,2.9-2.2,1-.4,1.9-.5,2.7-.4.8.1,1.5.5,2.1,1.1.6.5.9,1.1,1.1,1.7s.2,1.2,0,1.8c-.1.6-.4,1.2-.7,1.8-.3.6-.6,1.2-1,1.7-.3.5-.6,1.1-.9,1.6s-.4.9-.5,1.3c0,.4,0,.7.3,1s.5.3.8.3.7,0,1.1-.3c.4-.2.8-.6,1.3-1.1.6-.7,1.2-1.4,1.6-2.3s.7-1.7.8-2.4l2.7.9c-.1.8-.4,1.8-1,2.8s-1.3,2-2.1,2.9c-1,1-2,1.8-3,2.2h0ZM284.5,296l-14.2-13.6,1.5-1.6,14.2,13.6-1.5,1.6Z"/>
        </g>
        <g>
          <path class="st48" d="M218.1,234.2l-43.6,32.9c15.9,27.7,37.2,52.3,62.5,72.1l43.6-32.9c-25.2-19.8-46.5-44.5-62.5-72.1h0Z"/>
          <path class="st3" d="M267.8,295.4c-5.8-5.4-11.5-11-17-16.6"/>
          <path class="st17" d="M234.7,332.6c-20.9-17.3-39.4-38.6-53.5-61.6l-.9-1.5c-.5-.8-.3-1.8.5-2.3l34.7-26.1c.9-.6,2.1-.4,2.6.5l1.1,1.8c13.8,22.2,31.7,43,51.7,60l1.8,1.6c.9.7.8,2.1,0,2.8l-34.5,26c-.7.5-1.6.5-2.3,0l-1.2-1v-.2Z"/>
          <path class="st74" d="M237.1,329.7c-20.7-17.1-38.7-37.9-52.7-60.7l31.5-23.8c14.1,22.7,32,43.5,52.5,60.9l-31.3,23.6h0Z"/>
          <ellipse class="st48" cx="223.9" cy="286.8" rx="15.6" ry="14" transform="translate(-120.3 168.8) rotate(-33.1)"/>
          <ellipse class="st25" cx="223.9" cy="286.8" rx="12.8" ry="11.4" transform="translate(-120.3 168.8) rotate(-33.1)"/>
          <path class="st48" d="M211.3,271.6c-3.4,2.5-8,2.1-10.2-.9-2.3-3-1.4-7.4,2-9.9s8-2.1,10.2.9c2.3,3,1.4,7.4-2,9.9Z"/>
          <path class="st70" d="M210.1,270c-2.4,1.8-5.7,1.5-7.3-.7-1.6-2.1-1-5.3,1.4-7.1,2.4-1.8,5.7-1.5,7.3.7,1.6,2.1,1,5.3-1.4,7.1Z"/>
          <path class="st48" d="M246.6,314c-3.4,2.5-8,2.1-10.2-.9-2.3-3-1.4-7.4,2-9.9s8-2.1,10.2.9c2.3,3,1.4,7.4-2,9.9Z"/>
          <path class="st70" d="M245.4,312.4c-2.4,1.8-5.7,1.5-7.3-.7s-1-5.3,1.4-7.1,5.7-1.5,7.3.7c1.6,2.1,1,5.3-1.4,7.1Z"/>
          <path class="st65" d="M217.4,291.1c-.8-1-1.4-2.1-1.8-3.2-.4-1.1-.7-2.1-.7-3l2.9-.6c0,.8.2,1.7.5,2.6s.8,1.8,1.3,2.5c.4.6.8,1,1.2,1.3s.7.4,1,.4.6,0,.9-.2c.3-.2.5-.6.5-1s-.1-.9-.3-1.4-.5-1.1-.7-1.7c-.3-.6-.5-1.2-.8-1.8-.2-.6-.4-1.3-.5-1.9,0-.6,0-1.2.2-1.8.2-.6.7-1.1,1.3-1.6.7-.5,1.5-.8,2.3-.8s1.8.2,2.7.7,1.9,1.4,2.7,2.6c.6.8,1.1,1.6,1.5,2.5s.6,1.8.7,2.6l-2.8.6c-.1-.8-.3-1.5-.6-2.3-.3-.7-.7-1.3-1.1-1.9-.4-.6-.8-1-1.2-1.2-.4-.3-.7-.4-1.1-.4s-.6,0-.9.3c-.3.2-.5.6-.5,1s.1.9.3,1.4.5,1.1.8,1.7.5,1.2.8,1.9c.2.6.4,1.3.5,1.9,0,.6,0,1.2-.2,1.8-.2.6-.6,1.1-1.3,1.6s-1.5.8-2.3.8-1.8-.2-2.7-.8c-.9-.5-1.9-1.4-2.8-2.6h.2ZM215,291.8l16.3-12,1.4,1.8-16.3,12-1.4-1.8Z"/>
        </g>
        <g>
          <g>
            <rect class="st59" x="260.1" y="293.7" width="58.8" height="12.3"/>
            <g>
              <rect class="st43" x="266.7" y="293.7" width="3.4" height="12.3"/>
              <rect class="st43" x="277.7" y="293.7" width="3.4" height="12.3"/>
              <rect class="st43" x="288.7" y="293.7" width="3.4" height="12.3"/>
              <rect class="st43" x="299.7" y="293.7" width="3.4" height="12.3"/>
              <rect class="st43" x="310.6" y="293.7" width="3.4" height="12.3"/>
            </g>
          </g>
          <g>
            <rect class="st59" x="263.9" y="306" width="58.8" height="12.3"/>
            <g>
              <rect class="st43" x="270.5" y="306" width="3.4" height="12.3"/>
              <rect class="st43" x="281.5" y="306" width="3.4" height="12.3"/>
              <rect class="st43" x="292.5" y="306" width="3.4" height="12.3"/>
              <rect class="st43" x="303.4" y="306" width="3.4" height="12.3"/>
              <rect class="st43" x="314.4" y="306" width="3.4" height="12.3"/>
            </g>
          </g>
          <g>
            <rect class="st59" x="261" y="318.3" width="58.8" height="12.3"/>
            <g>
              <rect class="st43" x="267.6" y="318.3" width="3.4" height="12.3"/>
              <rect class="st43" x="278.5" y="318.3" width="3.4" height="12.3"/>
              <rect class="st43" x="289.5" y="318.3" width="3.4" height="12.3"/>
              <rect class="st43" x="300.5" y="318.3" width="3.4" height="12.3"/>
              <rect class="st43" x="311.5" y="318.3" width="3.4" height="12.3"/>
            </g>
          </g>
          <g>
            <rect class="st59" x="265.5" y="330.6" width="58.8" height="12.3"/>
            <g>
              <rect class="st43" x="272" y="330.6" width="3.4" height="12.3"/>
              <rect class="st43" x="283" y="330.6" width="3.4" height="12.3"/>
              <rect class="st43" x="294" y="330.6" width="3.4" height="12.3"/>
              <rect class="st43" x="305" y="330.6" width="3.4" height="12.3"/>
              <rect class="st43" x="316" y="330.6" width="3.4" height="12.3"/>
            </g>
          </g>
          <g>
            <rect class="st59" x="258.2" y="342.7" width="58.8" height="12.3"/>
            <g>
              <rect class="st43" x="264.8" y="342.7" width="3.4" height="12.3"/>
              <rect class="st43" x="275.8" y="342.7" width="3.4" height="12.3"/>
              <rect class="st43" x="286.7" y="342.7" width="3.4" height="12.3"/>
              <rect class="st43" x="297.7" y="342.7" width="3.4" height="12.3"/>
              <rect class="st43" x="308.7" y="342.7" width="3.4" height="12.3"/>
            </g>
          </g>
          <g>
            <rect class="st59" x="255.3" y="281.4" width="58.8" height="12.3"/>
            <g>
              <rect class="st43" x="261.9" y="281.4" width="3.4" height="12.3"/>
              <rect class="st43" x="272.9" y="281.4" width="3.4" height="12.3"/>
              <rect class="st43" x="283.9" y="281.4" width="3.4" height="12.3"/>
              <rect class="st43" x="294.9" y="281.4" width="3.4" height="12.3"/>
              <rect class="st43" x="305.8" y="281.4" width="3.4" height="12.3"/>
            </g>
          </g>
          <line class="st5" x1="260.1" y1="293.7" x2="314.1" y2="293.7"/>
          <line class="st5" x1="265.7" y1="281.6" x2="297.4" y2="281.6"/>
          <line class="st5" x1="263.9" y1="306" x2="318.9" y2="306"/>
          <line class="st5" x1="319.8" y1="318.3" x2="263.9" y2="318.3"/>
          <line class="st5" x1="319.8" y1="330.6" x2="265.5" y2="330.6"/>
          <line class="st5" x1="265.5" y1="342.8" x2="317" y2="342.8"/>
        </g>
        <g>
          <path class="st59" d="M235.1,145.5l7.9-6.6,44,47-7.9,6.6c-12.1,10.2-31.8,8-44-5-12.1-13-12.1-31.7,0-42Z"/>
          <g class="st44">
            <path class="st66" d="M216.8,165.2l25.5-21.4,2.2,2.4-25.5,21.4-2.2-2.4ZM219.9,180l25.5-21.4-2.2-2.4-25.5,21.4,2.2,2.4ZM220.7,192.3l25.5-21.4-2.2-2.4-25.5,21.4,2.2,2.4ZM254.7,205.7l25.5-21.4-2.2-2.4-25.5,21.4,2.2,2.4ZM241.8,203.4l25.5-21.4-2.2-2.4-25.5,21.4,2.2,2.4h0ZM228.9,201.1l25.5-21.4-2.2-2.4-25.5,21.4,2.2,2.4Z"/>
          </g>
          <path class="st51" d="M240.8,182.7c12.1,13,31.8,15.2,44,5,12.1-10.2,12.1-29,0-42s-31.8-15.2-44-5c-12.1,10.2-12.1,29,0,42h0Z"/>
          <path class="st5" d="M235.2,147.3c-6.2,10.5-4.3,24.9,5.5,35.4,12.1,13,31.8,15.2,44,5"/>
          <path class="st59" d="M247.6,177c9.4,10.1,24.3,12.1,33.2,4.7,8.9-7.5,8.5-21.7-.9-31.8s-24.3-12.1-33.2-4.7c-8.9,7.5-8.5,21.7.9,31.8h0Z"/>
          <path class="st5" d="M286.2,173.7c2.5-7.4.3-16.6-6.4-23.8-9.4-10.1-24.3-12.1-33.2-4.7"/>
          <path class="st56" d="M272.4,172.4c-1.5,1.2-3,2.2-4.7,3s-3.2,1.2-4.6,1.3l-1.4-4.3c1.3-.1,2.6-.4,4-1s2.6-1.3,3.7-2.2c.8-.7,1.4-1.3,1.8-1.9.4-.6.5-1.1.5-1.6s-.2-.9-.5-1.3c-.4-.5-1-.7-1.6-.6-.6,0-1.4.2-2.2.6s-1.6.8-2.5,1.2c-.9.5-1.8.9-2.8,1.3-1,.4-1.9.7-2.9.8-1,.2-1.9,0-2.9-.2-.9-.3-1.8-.9-2.7-1.8-.9-1-1.5-2.2-1.7-3.4-.2-1.3,0-2.7.7-4.1.7-1.4,1.9-2.9,3.6-4.3,1.1-1,2.4-1.8,3.8-2.4,1.4-.7,2.7-1.1,4-1.3l1.5,4.2c-1.2.2-2.4.6-3.5,1.1s-2,1.1-2.8,1.8-1.4,1.3-1.8,1.9c-.3.6-.5,1.1-.4,1.6,0,.5.2.9.6,1.3.4.5,1,.7,1.6.6.6,0,1.4-.2,2.1-.6.8-.4,1.6-.8,2.5-1.3s1.8-.9,2.8-1.3c1-.4,1.9-.7,2.9-.8,1-.2,1.9-.1,2.9.2s1.9.9,2.7,1.8c.9,1,1.5,2.1,1.7,3.4.2,1.3,0,2.7-.7,4.1-.7,1.5-1.9,2.9-3.6,4.4v-.2ZM274,175.9l-22.1-23.6,2.6-2.2,22.1,23.6-2.6,2.2Z"/>
          <path class="st5" d="M241.5,152.5c-2.5,5.2-1.8,11.1,0,15.7"/>
        </g>
        <g>
          <path class="st22" d="M298.4,132.5c0-2.8-2.6-5.1-5.8-5.1,3.2,0,5.8-2.3,5.8-5.1s-2.6-5.1-5.8-5.1h-71.9c-3.2,0-5.8,2.3-5.8,5.1s2.6,5.1,5.8,5.1c-3.2,0-5.8,2.3-5.8,5.1s2.6,5.1,5.8,5.1c-3.2,0-5.8,2.3-5.8,5.1s2.6,5.1,5.8,5.1h71.9c3.2,0,5.8-2.3,5.8-5.1s-2.6-5.1-5.8-5.1c3.2,0,5.8-2.3,5.8-5.1Z"/>
          <line class="st7" x1="216.9" y1="127.4" x2="276.4" y2="127.4"/>
          <line class="st7" x1="283.4" y1="127.4" x2="296.2" y2="127.4"/>
          <line class="st7" x1="296.2" y1="137.5" x2="216.9" y2="137.5"/>
        </g>
        <g>
          <g>
            <rect class="st51" x="233.6" y="342.2" width="58.8" height="12.8"/>
            <g>
              <rect class="st57" x="240.2" y="342.2" width="3.4" height="12.8"/>
              <rect class="st57" x="251.2" y="342.2" width="3.4" height="12.8"/>
              <rect class="st57" x="262.1" y="342.2" width="3.4" height="12.8"/>
              <rect class="st57" x="273.1" y="342.2" width="3.4" height="12.8"/>
              <rect class="st57" x="284.1" y="342.2" width="3.4" height="12.8"/>
            </g>
          </g>
          <g>
            <rect class="st51" x="241.1" y="303.8" width="58.8" height="12.8"/>
            <g>
              <rect class="st57" x="247.6" y="303.8" width="3.4" height="12.8"/>
              <rect class="st57" x="258.6" y="303.8" width="3.4" height="12.8"/>
              <rect class="st57" x="269.6" y="303.8" width="3.4" height="12.8"/>
              <rect class="st57" x="280.6" y="303.8" width="3.4" height="12.8"/>
              <rect class="st57" x="291.6" y="303.8" width="3.4" height="12.8"/>
            </g>
          </g>
          <g>
            <rect class="st58" x="232.3" y="316.6" width="58.8" height="12.8"/>
            <g>
              <rect class="st57" x="238.8" y="316.6" width="3.4" height="12.8"/>
              <rect class="st57" x="249.8" y="316.6" width="3.4" height="12.8"/>
              <rect class="st57" x="260.8" y="316.6" width="3.4" height="12.8"/>
              <rect class="st57" x="271.8" y="316.6" width="3.4" height="12.8"/>
              <rect class="st57" x="282.8" y="316.6" width="3.4" height="12.8"/>
            </g>
          </g>
          <g>
            <rect class="st51" x="228.8" y="329.4" width="58.8" height="12.8"/>
            <g>
              <rect class="st57" x="235.4" y="329.4" width="3.4" height="12.8"/>
              <rect class="st57" x="246.4" y="329.4" width="3.4" height="12.8"/>
              <rect class="st57" x="257.3" y="329.4" width="3.4" height="12.8"/>
              <rect class="st57" x="268.3" y="329.4" width="3.4" height="12.8"/>
              <rect class="st57" x="279.3" y="329.4" width="3.4" height="12.8"/>
            </g>
          </g>
          <line class="st5" x1="233.6" y1="342.2" x2="287.6" y2="342.2"/>
          <line class="st5" x1="232.3" y1="328.8" x2="287.6" y2="328.8"/>
          <line class="st5" x1="240.6" y1="316.6" x2="291.1" y2="316.6"/>
          <g>
            <path class="st59" d="M236.6,297.5l-10.2-4.2-23.3,57,10.2,4.2c12,4.9,26.9-3.9,33.3-19.6,6.4-15.7,2-32.5-10-37.4Z"/>
            <g class="st69">
              <path class="st66" d="M254.4,311.6l-25.1-10.3,1.2-2.9,25.1,10.3-1.2,2.9ZM257.9,320.1l-25.1-10.3-1.2,2.9,25.1,10.3,1.2-2.9ZM260.2,331.4l-25.1-10.3-1.2,2.9,25.1,10.3,1.2-2.9ZM236.7,354.9l-25.1-10.3-1.2,2.9,25.1,10.3,1.2-2.9ZM246.2,348.5l-25.1-10.3-1.2,2.9,25.1,10.3,1.2-2.9ZM255.8,342l-25.1-10.3-1.2,2.9,25.1,10.3,1.2-2.9Z"/>
            </g>
            <ellipse class="st51" cx="215" cy="322" rx="30.8" ry="25.4" transform="translate(-164.5 398.7) rotate(-67.7)"/>
            <path class="st3" d="M226.6,293.4c13,5.3,18.3,22.4,11.9,38.1-6.4,15.7-22.2,24.2-35.2,18.8"/>
            <ellipse class="st59" cx="213.9" cy="321.6" rx="23.9" ry="18.7" transform="translate(-164.8 397.5) rotate(-67.7)"/>
            <path class="st3" d="M194.8,320.9c.4-2.2,1-4.3,1.9-6.5,5-12.2,16.8-18.9,26.3-15"/>
            <path class="st79" d="M208.9,332.3c-1.6-.6-3-1.5-4.2-2.5-1.3-1-2.2-2.1-2.7-3.2l3.1-3.1c.5,1,1.3,1.9,2.3,2.8s2.1,1.6,3.2,2c.9.4,1.7.6,2.3.6s1.1,0,1.5-.3c.4-.2.7-.6.9-1,.2-.6.2-1.1,0-1.6-.3-.5-.7-1-1.3-1.5s-1.2-1-2-1.5c-.7-.5-1.4-1.1-2.1-1.7-.7-.6-1.3-1.3-1.8-2s-.8-1.6-.9-2.5c0-.9,0-1.9.5-3,.5-1.2,1.3-2.2,2.3-3s2.2-1.2,3.7-1.3c1.5-.1,3.1.2,4.9,1,1.2.5,2.4,1.2,3.4,2,1.1.8,1.9,1.7,2.6,2.7l-2.9,3.1c-.6-.9-1.4-1.7-2.2-2.3-.8-.7-1.7-1.2-2.5-1.5-.9-.4-1.6-.6-2.3-.6s-1.1.1-1.5.4-.7.6-.9,1.1c-.2.6-.2,1.1,0,1.6.3.5.7,1,1.3,1.5s1.3,1,2,1.5,1.4,1.1,2.1,1.7c.7.6,1.3,1.3,1.8,2s.8,1.5.9,2.4c.1.9,0,1.9-.5,3-.5,1.2-1.2,2.2-2.3,2.9-1,.7-2.3,1.2-3.7,1.3-1.5.1-3.1-.2-5-1h0ZM206.5,335.2l11.7-28.6,2.8,1.2-11.7,28.6-2.8-1.2Z"/>
            <path class="st3" d="M229.3,304.3c3.6,3.9,4.7,9.5,4.4,14.3"/>
            <path class="st3" d="M233.8,351.2c5.3-3.7,9.9-9.3,12.8-16.4,4.7-11.4,3.6-23.3-1.8-30.8"/>
          </g>
        </g>
      </g>
      <g>
        <polygon class="st34" points="395.6 19.8 253.7 355.9 235.5 355.9 377.4 19.8 395.6 19.8"/>
        <path class="st37" d="M411.9,32.6l-37.5,313.3c-.7,5.7-5.6,10.1-11.3,10.1h-109.3L395.6,19.8h4.9c6.9,0,12.2,6,11.3,12.8h.1Z"/>
        <line class="st12" x1="338.2" y1="219.9" x2="286.3" y2="342.2"/>
      </g>
      <g>
        <g>
          <g>
            <path class="st27" d="M120.6,268.3l-.5,13.6h21.5c.2,0,0-14.5,0-14.5"/>
            <g>
              <path class="st54" d="M142.4,278.9h-22.9l-1.8,12.3h38.5c.4-8.9-11-7.2-13.8-12.3h0Z"/>
              <line class="st8" x1="118" y1="288.9" x2="156" y2="288.9"/>
              <path class="st8" d="M118.8,283.6s6,.3,8.3,5.4"/>
              <path class="st8" d="M150.3,283.8s-3.7,1.4-5.2,5.1"/>
              <line class="st8" x1="143.9" y1="280.5" x2="140.5" y2="283.3"/>
              <line class="st8" x1="146" y1="281.7" x2="142.6" y2="284.5"/>
            </g>
          </g>
          <g>
            <path class="st27" d="M133,262.4l-2.8,13.3s21,3.6,21.2,3.6,2.5-14.3,2.5-14.3"/>
            <g>
              <path class="st55" d="M152.7,276.5l-22.6-3.8-3.9,11.9,37.9,6.5c1.9-8.7-9.6-9-11.5-14.5h.1Z"/>
              <line class="st8" x1="127" y1="282.3" x2="164.4" y2="288.6"/>
              <path class="st8" d="M128.7,277.1s5.9,1.3,7.2,6.7"/>
              <path class="st8" d="M159.7,282.7s-3.8.8-6,4.2"/>
              <line class="st8" x1="153.9" y1="278.3" x2="150.1" y2="280.5"/>
              <line class="st8" x1="155.7" y1="279.9" x2="152" y2="282.1"/>
            </g>
          </g>
          <line class="st3" x1="120.4" y1="262.7" x2="149" y2="262.7"/>
          <path class="st11" d="M166.1,206.5c-2.5-7.7-8.4-27.9-8.4-27.9l-.3-9.2-14.6-1.5.2-5.8-26.5,1.7s-4.3,10.9-3.6,14.9c.7,4,1.8,11.4,1.8,11.4l7.1,42.2-1.8,41.4h27.6v-.5l10.8,2.5s6.6-30.3,9.1-41.4c2.6-11,1.1-20.4-1.4-28.1v.3Z"/>
          <path class="st3" d="M151.6,168.1l.3,9.2s5.9,20.2,8.4,27.9,4,17,1.4,28.1c-2.6,11-9.1,41.4-9.1,41.4"/>
          <line class="st3" x1="160.5" y1="266.1" x2="133.3" y2="260"/>
          <path class="st3" d="M131.1,269.5s10.4-46,10.4-46.9-9.9-31.7-11.1-33.1c-1.1-1.4-3.5-4.6-4.1-12.4"/>
          <path class="st3" d="M132.8,176l12,2.2v6.7s-5.1,2.2-6.6,2.1c-1.5,0-5.4-4.4-5.4-4.4v-6.7h0Z"/>
          <path class="st3" d="M113.2,174.9l7.8.5s.6,5.8,0,6.2-4.4,2.2-4.7,2.2-2.9-1.7-2.9-1.7"/>
          <line class="st3" x1="132.8" y1="178.1" x2="144.8" y2="180.5"/>
          <line class="st3" x1="112.9" y1="177.1" x2="121.2" y2="177.7"/>
        </g>
        <g>
          <g>
            <path class="st27" d="M157.9,156.8c-.2,0-.5-.2-.6-.4l-10-17.4c-.2-.3-.1-.7.2-1l21.8-17.8c1.8-2.1,3.1-4.9,4.5-7.9,1.6-3.5,3.3-7,5.8-9.5.6-.6,1.6-.7,2.3-.7s.2,0,.2,0c.2,0,.4,0,.6.3.1.2.2.4.1.6,0,0-.7,2.4-.9,3.6,0,.5,0,1.5.1,2.5.3-.4.8-.9,1.3-1.5.3-.3,1.3-1.5,2.5-1.5s.9.2,1.2.5c.6.7.3,1.5-.4,3-.7,1.6-1.9,4.4-2.6,8.6,0,.5-.2,1-.2,1.5-.3,2.3-.6,4.2-2.8,7.5l-22.6,29.1c-.1.2-.4.3-.6.3s0,0,0,0v.2Z"/>
            <path class="st61" d="M181.9,103h.2s-.8,2.5-.9,3.7c-.1,1.1.3,4.6.3,4.6,0,0,.4-.8,2.4-3,.5-.6,1.3-1.2,2-1.2s.5,0,.7.3c.7.7-1.9,3.6-3.2,11-.5,3.1-.3,4.9-2.9,8.7l-22.6,29-10-17.4,21.9-17.8c4.1-4.8,5.8-13,10.3-17.4.4-.4,1.4-.5,1.8-.5M181.9,101.5c-.9,0-2.1.2-2.8.9-2.6,2.6-4.3,6.2-6,9.7-1.4,2.9-2.6,5.6-4.3,7.7l-21.8,17.7c-.6.5-.7,1.3-.4,1.9l10,17.4c.2.4.7.7,1.2.7h.1c.5,0,.9-.2,1.2-.6l22.6-29h0c2.3-3.4,2.6-5.5,2.9-7.8,0-.5.1-1,.2-1.5.7-4.1,1.8-6.7,2.5-8.4.7-1.6,1.2-2.8.2-3.8s-1.1-.7-1.7-.7c-1.5,0-2.8,1.3-3.1,1.7h0v-.4c.1-.9.6-2.8.8-3.5.1-.4,0-.9-.2-1.3s-.7-.6-1.1-.6h-.3,0Z"/>
          </g>
          <path class="st3" d="M182.1,103.5c-.8,1.8-1.1,3.9-1,5.8,0,1,.4,1.9.5,2.9.1.9.1,1.8.2,2.7"/>
        </g>
        <g>
          <path class="st67" d="M226.2,86.3l-7.8-5-33.3,51.6,7.8,5c9.1,5.9,23.9-.9,33.1-15.2,9.2-14.2,9.3-30.6.1-36.4h0Z"/>
          <g class="st53">
            <path class="st31" d="M238.3,101.5l-19.1-12.3,1.7-2.6,19.1,12.3-1.7,2.6ZM239.3,109.9l-19.1-12.3-1.7,2.6,19.1,12.3,1.7-2.6ZM238.6,120.9l-19.1-12.3-1.7,2.6,19.1,12.3,1.7-2.6ZM213,140.8l-19.1-12.3-1.7,2.6,19.1,12.3,1.7-2.6ZM222.7,135.6l-19.1-12.3-1.7,2.6,19.1,12.3,1.7-2.6h0ZM232.4,130.5l-19.1-12.3-1.7,2.6,19.1,12.3,1.7-2.6h0Z"/>
          </g>
          <ellipse class="st63" cx="201.9" cy="107.2" rx="30.7" ry="19.6" transform="translate(2.5 218.9) rotate(-57.2)"/>
          <path class="st21" d="M218.6,81.4c9.1,5.9,9,22.2-.1,36.4-9.2,14.2-24,21-33.1,15.2"/>
          <ellipse class="st67" cx="201.3" cy="106.7" rx="23.8" ry="14.4" transform="translate(2.5 218.1) rotate(-57.2)"/>
          <path class="st3" d="M196.7,90.4c6.1-4.9,12.8-6.6,17.4-3.7"/>
          <path class="st47" d="M194.5,116.5c-1.1-.7-2-1.6-2.7-2.7s-1.2-2.1-1.4-3.2l3.2-2.7c.2,1,.6,1.9,1.1,2.8.6.9,1.3,1.6,2.1,2.1.6.4,1.2.6,1.7.7.5,0,.9,0,1.3-.2.4-.2.7-.5,1-.9.3-.5.5-1,.4-1.5,0-.5-.3-1-.7-1.5s-.7-1-1.2-1.6c-.4-.5-.9-1.1-1.3-1.7-.4-.6-.7-1.3-.9-2s-.2-1.5,0-2.4.6-1.8,1.2-2.8c.7-1.1,1.6-2,2.6-2.6s2.1-1,3.3-1,2.4.4,3.7,1.3c.9.6,1.6,1.2,2.3,2.1.6.8,1.1,1.7,1.4,2.7l-3.2,2.7c-.3-.9-.7-1.7-1.2-2.3-.5-.7-1-1.2-1.6-1.6s-1.2-.6-1.7-.7c-.5,0-.9,0-1.3.3-.4.2-.7.5-1,.9-.3.5-.5,1-.4,1.5,0,.5.3,1,.7,1.5s.8,1,1.2,1.5c.5.5.9,1.1,1.3,1.7.4.6.7,1.3.9,2s.2,1.5.1,2.3c-.1.9-.5,1.8-1.2,2.8-.7,1.1-1.6,1.9-2.6,2.6-1,.6-2.1.9-3.3.9s-2.5-.4-3.8-1.2v.2ZM191.9,119l16.7-25.9,2,1.3-16.7,25.9-2-1.3Z"/>
          <path class="st3" d="M218,91.8c1.9,3.9,1.3,9.2,0,13.6"/>
        </g>
        <g>
          <path class="st1" d="M212.2,128.3c-.2.1-.3.3-.6.3.6-1.1,1-2.7.6-3.9,0,0,0-.2-.1-.2h-.2c-.3.2-.7.4-.9.7.3-.8.6-1.7.5-2.6,0,0,0-.3-.1-.4-.3-.4-2.3.7-2.6,1,.2-.2.4-.5.3-.8,0-.3-.4-.5-.8-.5s-.6.2-.9.4c-1.2.8-2.3,1.7-3.5,2.5s-2.5,1.4-3.9,1.6c.3-.5.6-.9.7-1.5.1-.4,0-1.4-.4-1.4s-.3,0-.4.2c-1,.7-2,1.4-3,2.2-1.6,1.1-3,2.4-3.9,4.1-.5.9-1.1,1.8-1.8,2.5l-12,7-6.5-9-14.2,8.7s6.5,10,11.2,15.4,10,5.1,14.5,2.5c4.1-2.4,9.6-7.8,13.6-12h0c1-1.1,2.2-2.1,3.2-3.2.9-1,1.9-1.7,2.9-2.5,2.3-1.8,4.4-3.9,6.3-6.2.8-1,1.6-2,2.2-3.1.3-.5.5-1,.5-1.5s-.4-.5-.7-.3h0Z"/>
          <line class="st3" x1="179.1" y1="139.4" x2="173.7" y2="143.1"/>
          <path class="st3" d="M190.4,133.5c.5-.5,1-1,1.3-1.6"/>
          <path class="st3" d="M201.3,128.9c3.1-1.5,6-3.6,8.2-6.3"/>
          <path class="st3" d="M204.4,131.8c2.7-1.8,5-4.1,6.8-6.9"/>
          <path class="st3" d="M206.9,134.1c2.3-1.6,4.1-3.7,5.3-6.2"/>
        </g>
        <path class="st20" d="M177.8,137.3s-6.9-11.2-8.6-13.3c-1.7-2.1-3.6-4.2-5.9-5.6-.8-.5-1.8-.9-2.7-1.2l-5.4-6.2-1.6-2c-2.4.6-4.3,2.2-6.4,3.5-17.5,11.3-34.4,53.4-34.4,53.4l46.1,13.1s4.7-19.1,7.1-31.4l11.7-10.2h0Z"/>
        <g>
          <polyline class="st18" points="169.2 360.9 159.8 291.4 111.4 291.4 102 360.9"/>
          <line class="st18" x1="109.3" y1="306.5" x2="161.9" y2="306.5"/>
          <line class="st18" x1="106.7" y1="326.9" x2="164.5" y2="326.9"/>
          <line class="st18" x1="103.6" y1="347.3" x2="167.6" y2="347.3"/>
        </g>
        <g>
          <line class="st3" x1="114.8" y1="161.4" x2="160.1" y2="174.4"/>
          <path class="st3" d="M138.5,153.7c3,3.4,6.1,6.6,9.4,9.8"/>
          <path class="st3" d="M146.5,157.8c1.8,1.1,3.8,2,5.7,2.9"/>
          <g>
            <path class="st27" d="M162.9,119.4c-.4,0-10.7-1.4-14.5-7.3-.2-.2-.2-.5,0-.8l4.7-7.7c-.3-1.6-1.6-9.2,1.8-13.5,2.3-2.9,6-4.7,9.8-4.8h.4c3,0,6.2,1,8.4,2.8.3.2.6.5.9.8,1.6,1.6,2.5,4.1,2.7,7s0,5.9-.5,8.7c.2.9.3,2.5.2,3.3-.1.6-.6,1-1.3,1,0,.2-.1.3-.2.4-1.2,3.1-2.7,5.1-4.5,5.8-.6.3-1.4.4-2.1.4s-1.9-.2-2.7-.6l-2.3,4.2c-.1.2-.4.4-.7.4s0,0,0,0h0Z"/>
            <path class="st61" d="M165.1,86c2.8,0,5.8.9,8,2.6.3.2.5.4.8.7,1.6,1.7,2.4,4.2,2.5,6.5.1,2.8,0,5.8-.5,8.6.2,1,.3,2.5.2,3.2,0,.3-.4.4-.7.4h-.3c-.1.3-.2.6-.3,1-.8,2-2.1,4.5-4,5.4-.6.2-1.2.4-1.8.4-1.2,0-2.3-.4-3-.9l-2.7,4.9s-10.3-1.2-13.9-7l4.9-7.9s-2-8.7,1.6-13.2c2.2-2.8,5.7-4.4,9.3-4.5h.4M165.1,84.5h-.4c-4.1,0-7.9,2-10.4,5.1-3.4,4.3-2.4,11.6-2,13.8l-4.6,7.4c-.3.5-.3,1.1,0,1.6,4,6.3,14.6,7.6,15,7.7h.2c.5,0,1-.3,1.3-.8l2-3.7c.8.3,1.6.4,2.4.4s1.7-.2,2.4-.5c2-.8,3.6-2.9,4.9-6.2h0c.8-.2,1.3-.8,1.5-1.5.2-.9,0-2.5-.1-3.4.5-2.8.7-5.8.5-8.7-.2-3-1.2-5.7-2.9-7.4-.3-.3-.6-.6-.9-.8-2.4-1.8-5.7-2.9-8.9-2.9h0Z"/>
          </g>
          <g>
            <path class="st32" d="M167.8,99.8c0,0,2.4-.6,2.7-.7,1.1,0,2.2-.3,3.3-.7,3-1,4.8-3.3,4.7-6.4,0-1.2-.3-2.6-1.3-3.4s-1.2-.7-1.6-1.3c-.3-.5-.3-1.1-.4-1.7-.2-.9-.9-1.5-1.7-1.9s-1.7-.5-2.6-.5-2.1,0-3.1.4c-.5.2-.9.4-1.4.5-2,.6-4-.4-6-.3-1.7,0-3.5,1.1-4.3,2.7-.3.6-.5,1.3-1.1,1.8-.3.3-.7.4-1.1.6-1.7,1-2.2,3.2-2.3,5.2-.2,4.3.8,8.5.5,12.8,2.6,1.1,5.3,2.1,8,2.9.3,0,.6.2.9,0,.3,0,.5-.2.8-.3,1.4-.9,2.8-1.5,3.4-3.1-4.2-3.5-1.3-10.9,2.7-6.6h0Z"/>
            <path class="st3" d="M165.7,113.8s-.7-.5-1.2-1.6"/>
            <path class="st3" d="M166.3,101c.5,1.2.9,2.5,1.2,3.8"/>
            <path class="st3" d="M164.8,106.1c0,.2.2.4.4.5.6.4,1.6.3,2.1-.3"/>
            <path class="st3" d="M168,100c.4.5.6,1.2.7,1.9"/>
            <path class="st61" d="M175.6,102.7c-.1.6-.5,1-.9,1s-.6-.6-.5-1.2.5-1,.9-1,.6.6.5,1.2Z"/>
            <path class="st3" d="M173.5,99.4c.3-.2.7-.3,1-.4.4,0,.8,0,1.1.2s.4.5.7.7"/>
            <path class="st3" d="M173.2,108.2c-.4.3-.6,1.1-.3,1.5.1.2.3.3.5.3"/>
          </g>
        </g>
        <g>
          <line class="st3" x1="163" y1="150.3" x2="153.6" y2="136.6"/>
          <line class="st3" x1="159.4" y1="145" x2="174.7" y2="132.3"/>
        </g>
      </g>
      <g>
        <g>
          <path class="st62" d="M389.8,136.7l-44.8,12.9c3.9,27.1,13.1,53.5,26.8,77.2l44.8-12.9c-13.7-23.7-22.9-50.1-26.8-77.2Z"/>
          <path class="st21" d="M405.7,192.4c-7.8-17.7-13.1-36.5-15.9-55.7"/>
          <path class="st3" d="M350.8,177.2c4.9,17.3,11.9,34.1,21,49.7l44.8-12.9"/>
          <path class="st21" d="M348.9,169.7c-1.6-6.6-2.9-13.3-3.9-20.1l13.2-3.8"/>
          <path class="st4" d="M372.1,220.8c-11.1-20.3-19.1-43.2-23-66l-.3-1.5c-.1-.8.3-1.5,1.1-1.7l35.6-10.3c.9-.3,1.8.3,1.9,1.2l.3,1.8c4,22.1,11.6,44.3,22.1,64.2l1,1.8c.5.9,0,1.9-.9,2.2l-35.5,10.2c-.7.2-1.4-.1-1.8-.7l-.6-1.2h0Z"/>
          <path class="st76" d="M374.9,219.2c-11-20.1-18.8-42.4-22.7-65l32.4-9.3c4.1,22.6,11.7,44.8,22.5,65.1l-32.2,9.3h0Z"/>
          <ellipse class="st62" cx="377.9" cy="180.8" rx="13.3" ry="12" transform="translate(-34.4 106.8) rotate(-15.4)"/>
          <ellipse class="st15" cx="377.9" cy="180.8" rx="10.9" ry="9.8" transform="translate(-34.4 106.8) rotate(-15.4)"/>
          <path class="st62" d="M372.7,164.6c-3.5,1-7-.8-7.8-3.9-.9-3.1,1.3-6.4,4.7-7.4,3.5-1,7,.8,7.8,3.9.9,3.1-1.3,6.4-4.7,7.4Z"/>
          <path class="st72" d="M372.2,163c-2.5.7-4.9-.6-5.6-2.8-.6-2.2.9-4.5,3.3-5.2,2.5-.7,4.9.6,5.6,2.8.6,2.2-.9,4.5-3.3,5.2Z"/>
          <path class="st62" d="M387.3,209.5c-3.5,1-7-.8-7.8-3.9-.9-3.1,1.3-6.4,4.7-7.4,3.5-1,7,.8,7.8,3.9.9,3.1-1.3,6.4-4.7,7.4Z"/>
          <path class="st72" d="M386.9,207.9c-2.5.7-4.9-.6-5.6-2.8-.6-2.2.9-4.5,3.3-5.2,2.5-.7,4.9.6,5.6,2.8.6,2.2-.9,4.5-3.3,5.2Z"/>
          <path class="st68" d="M371.4,182.1c-.3-1-.4-2.1-.4-3.1s.1-1.9.4-2.6l2.4.4c-.2.6-.4,1.4-.4,2.2s0,1.6.3,2.4c.2.6.4,1.1.6,1.4.2.3.4.6.7.7.2.1.5.1.8,0,.3,0,.6-.3.7-.6s.2-.7.2-1.2v-3.3c0-.6,0-1.1.2-1.7.1-.5.4-1,.7-1.4.4-.4.9-.7,1.5-.8.7-.2,1.4-.2,2.1,0s1.3.7,1.9,1.4,1,1.7,1.4,2.9c.2.8.4,1.7.4,2.5s0,1.6-.2,2.3l-2.4-.4c.2-.7.2-1.3.2-2s0-1.3-.3-1.9c-.2-.6-.4-1.1-.6-1.4-.2-.3-.5-.5-.7-.7-.3-.1-.5-.1-.8,0-.3,0-.6.3-.7.6s-.2.7-.2,1.2v3.3c0,.6,0,1.1-.2,1.6-.1.5-.4,1-.7,1.4-.4.4-.8.7-1.5.9s-1.4.2-2.1,0-1.3-.7-1.9-1.4-1-1.7-1.4-2.9v.2ZM369.3,181.9l16.7-4.6.5,1.9-16.7,4.6-.5-1.9Z"/>
        </g>
        <g>
          <path class="st49" d="M403.8,187.2c-.2,0-.4,0-.6-.3-.1-.2-.2-.4-.2-.6l.7-5.5c-2.5-.9-3.7-2.7-3.7-5.3s.2-2.6.5-4.2c-.6-.5-1.2-1.1-.9-1.8.2-.4.5-.8.7-1,.3-.3.6-.6.9-.9l.2-.2c.3-.9.5-1.8.8-2.6,1-3.5,2.8-5.6,5.5-6.6.9-.4,1.9-.5,2.8-.5,3.1,0,6.1,1.8,7.6,4.6,1.3,2.4,1.5,5.4.8,8.5,0,.2,0,.4.1.6h.2c.1,0,.3,0,.4.1.2.1.3.3.3.6l.7,7.7,1.1,6.6c0,.2,0,.4-.2.6s-.4.3-.6.3h-17.2.1Z"/>
          <path class="st64" d="M410.5,158.4c2.8,0,5.5,1.7,6.9,4.2,1.3,2.4,1.4,5.4.6,8.1.2.5.2,1.1.1,1.6l1-.3.7,7.7,1.1,6.6h-17.2l.8-6.2c-2.7-.7-3.8-2.3-3.8-4.8s.2-3,.5-4.5c-.5-.4-1.1-.9-1-1.2s.4-.6.6-.8c.4-.4.8-.8,1.2-1.2.3-1,.6-2,.8-2.8.9-3,2.4-5.1,5-6.1.8-.3,1.7-.5,2.6-.5M410.5,156.9h0c-1.1,0-2.1.2-3.1.6-2.9,1.1-4.8,3.5-5.9,7.1-.2.7-.5,1.6-.7,2.4h0c-.3.4-.6.7-.9,1s-.6.7-.9,1.2c-.4,1,.2,1.8.8,2.4-.2,1.4-.4,2.7-.4,3.9,0,2.7,1.2,4.7,3.6,5.8l-.7,5c0,.4,0,.9.4,1.2s.7.5,1.1.5h17.2c.4,0,.9-.2,1.1-.5.3-.3.4-.8.3-1.2l-1.1-6.6-.7-7.7c0-.4-.3-.9-.7-1.1-.1,0-.2-.1-.4-.2.8-3.1.4-6.2-.9-8.8-1.6-3-4.8-5-8.2-5h.1Z"/>
        </g>
        <g>
          <path class="st3" d="M409.1,166.9c.3-1.5-1.4-2.8-2.4-3"/>
          <path class="st61" d="M405.4,167.3c-.2.5,0,1,.3,1.2s.8,0,1-.6c.2-.5,0-1-.3-1.2s-.8,0-1,.6Z"/>
          <path class="st32" d="M416.3,169.5l.5,8c0,.7.5,1.3,1,1.5l2,.8c.8-1,1.7-2.2,2.7-2.8.3-.2.7-.3,1-.6.8-.7,1.3-1.9,1.8-2.8,1.1-1.8,2.8-3.8,2.7-6.2,0-1-.4-1.9-.8-2.8-1.1-2.4-2.5-4.6-4.3-6.5-.8-.9-1.8-1.7-2.5-2.7s-1.2-2.2-2.2-3c-1.4-1.3-3.6-1.4-5.3-.8-1.3.5-2.7,1.5-4.1,1-.6-.2-1.1-.8-1.8-1.1-.7-.3-1.4-.4-2.2-.3-.9,0-1.9.2-2.6.9-.9.8-1.1,2.2-1,3.5.1,1.6.7,2.9,1.2,4.4,0,.2,1.2,2.6,1.3,2.4,0,0,2.5-3,5.1-2.2,2.6.9,1.7,7.4,7.2,9.3h.3Z"/>
          <path class="st3" d="M410.2,180.1s-3.2,1.3-5.6.5"/>
          <path class="st36" d="M402.7,173.5h2.8c0,.1,0,2.9-1.3,2.8-1.7,0-1.5-2.8-1.5-2.8Z"/>
          <g>
            <line class="st3" x1="416.6" y1="172.1" x2="413.2" y2="173.4"/>
            <path class="st3" d="M415.4,169.2c-.8.1-1.5.5-2.1,1"/>
            <path class="st3" d="M413.6,176.5c-.9-.2-1.5-1.2-1.5-2.2"/>
          </g>
        </g>
        <g>
          <g>
            <path class="st49" d="M402.5,342.4l-1.6,11h-18.7c-.2,0,1.6-12.4,1.6-12.4"/>
            <path class="st32" d="M382.4,349.7c0-.1,1.5,0,1.7,0,1.2,0,2.4-.2,3.5.2.3,0,.6.2.7.4.1.2.2.4.3.5.3.5.9.5,1.5.5h10.7c.5,0,.9-.2,1.1.3s.2,8.7.2,9.2h-7l-.3-1.9s-4.2-.2-4.8-.2-4,2.1-6.2,2.1h-13.5c.6-8,9.4-6.5,12.3-11.1h-.2Z"/>
            <line class="st2" x1="388.6" y1="358.9" x2="370.5" y2="359.2"/>
            <line class="st2" x1="394.6" y1="359" x2="401.9" y2="358.9"/>
          </g>
          <g>
            <path class="st49" d="M440.7,342.4l.9,11h-18.7c-.2,0-1-12.4-1-12.4"/>
            <path class="st32" d="M422.5,349.7c0-.1,1.5,0,1.7,0,1.2,0,2.4-.2,3.5.2.3,0,.6.2.7.4.1.2.2.4.3.5.3.5.9.5,1.5.5h10.7c.5,0,.9-.2,1.1.3s.2,8.7.2,9.2h-7l-.3-1.9s-4.2-.2-4.8-.2-4,2.1-6.2,2.1h-13.5c.6-8,9.4-6.5,12.3-11.1h-.2Z"/>
            <line class="st2" x1="428.6" y1="358.9" x2="410.5" y2="359.2"/>
            <line class="st2" x1="434.7" y1="359" x2="442" y2="358.9"/>
          </g>
          <path class="st45" d="M406.4,251.9l8.9,96.3h28.7l-9.4-82.4s2-7.6-2.1-15.9"/>
          <line class="st14" x1="420.9" y1="348.3" x2="411.5" y2="258.8"/>
          <path class="st45" d="M386.2,249.4l-6.4,98.8h28.5l4.5-80.3s6.6-14.3,5.4-21"/>
          <path class="st3" d="M411,302.3l1.7-32.4c0-1.3.4-2.6,1.1-3.7l1.4-2.4"/>
          <line class="st14" x1="386.7" y1="348.3" x2="393.8" y2="247.7"/>
          <path class="st3" d="M394.5,298.5c2.1,3.1,4.3,6.1,6.6,9"/>
          <path class="st3" d="M399.3,300.3c1.2,1,2.4,1.9,3.6,2.9"/>
          <path class="st3" d="M424.4,297.7c.2,1.2,1.1,2.1,2.1,2.9,1.6,1.3,3.3,2.6,5,3.7"/>
        </g>
        <g>
          <line class="st14" x1="388.8" y1="252.8" x2="392.3" y2="199.8"/>
          <path class="st14" d="M433.8,195.4c.6,4.3.9,8.2-1.1,12.3"/>
          <g>
            <path class="st9" d="M365.7,195.2c-.8-3.7-3.8-6.6-6.1-9.7-1.5-1.9-2.4-4.1-3.8-6.1-.6.2-.7.9-.8,1.5,0,1.5,0,2.9.3,4.4,0-.5-1.3-1.5-1.6-2-.4-.9-.7-1.9-.9-2.9-.4-1.6-1.1-4.3-2.5-5s-.2,1.2-.2,1.3v1.3c.1,1,0,2.1-.3,3.1-.2.9-.4,1.8-.6,2.7-.1.6-.2,1.1-.3,1.7-.4,2.6,0,5.3.9,7.8.6,1.8,1.5,3.6,2.4,5.2.9,1.6,2,3.5,3.6,4.4"/>
            <path class="st3" d="M354.6,184.6c1.1.7,2.2,1.3,3.3,2"/>
            <path class="st3" d="M350.2,180.5c.7,2.6,1.5,5.2,3.1,7.3"/>
            <path class="st3" d="M349.3,183.3c0,2.5.7,5.1,1.8,7.3"/>
            <path class="st3" d="M348.9,186.8c-.2.6,0,1.2.2,1.7.5,1.5.9,2.9,1.3,4.4"/>
          </g>
          <path class="st6" d="M443.8,214.7c-2.4-7.4-6.7-14-10.9-20.4-1.8-2.8-5.4-7.2-10.7-8.1l-.3-3h-19.2l-1.6,3.3h-5.6c-2,0-8.4,1.7-11.8,7.4-3.3,5.7-6.9,11-6.9,11l-11.1-13-13.3,8.9s10.8,18.2,14.1,22.4c2.9,3.7,10.4,11.9,18.2,7.1l-2.7,28.4s4.5-2.6,6.7-5.9c12.1,4.5,36.3,18.3,49.5,5.9,0-3.3-1-13.2-2.4-24.4,2-.4,3.5-.7,4.3-1.1,7.3-3.3,5.6-12.4,3.7-18.6h0Z"/>
          <path class="st3" d="M411.5,240.8c4-3.3,8-6.6,12-10"/>
          <path class="st3" d="M420.9,240.2c2.1-1.2,4.2-2.5,6.3-3.7"/>
          <path class="st14" d="M389.7,188.6c3.5.4,6.8,2.8,8.9,6.1,2.2,3.4,3.2,7.6,3.4,11.9"/>
          <path class="st3" d="M384.8,230.4c6.2-4,17.9-24.6,17.9-25.1"/>
          <line class="st3" x1="401.3" y1="186.1" x2="422.3" y2="186.1"/>
          <line class="st3" x1="435.9" y1="234.3" x2="431.9" y2="201.8"/>
          <line class="st3" x1="376.8" y1="205" x2="372.6" y2="211"/>
          <line class="st3" x1="355.7" y1="206.2" x2="369.8" y2="196.8"/>
        </g>
      </g>
      <g>
        <g>
          <path class="st28" d="M44.4,354.9s-4-3.6-4.3-4.9c-.2-1.3,2.6-31.7,2.6-31.7l-19.9-2.1s-3.9,35.4-3.6,35.6c.2.2,6.9,1.2,8.4,1.8,1.5.5,4.5,3.4,7,3.7,2.5.2,9.9-2.4,9.9-2.4h0Z"/>
          <path class="st32" d="M19.4,347.2c7.5.8,11.2,5.9,13.5,6.9,2.3,1,10.9,0,10.9,0h0c3.5,2.2,7.1,3.8,7.4,6.4h-16.5c-3.3,0-6-5.5-9.5-5.5l-1.1,5.5h-6.5s-.5-6,0-8.7,1.8-4.7,1.8-4.7h0Z"/>
        </g>
        <g>
          <path class="st28" d="M77.7,354.9s-4-3.6-4.3-4.9c-.2-1.3-1.1-31.7-1.1-31.7l-19.9-2.1s.5,35,.7,35.2,6.1,1.7,7.6,2.2,4.5,3.4,7,3.7c2.5.2,9.9-2.4,9.9-2.4h0Z"/>
          <path class="st32" d="M52.8,347.2c7.5.8,11.2,5.9,13.5,6.9s10.9,0,10.9,0h0c3.5,2.2,7.1,3.8,7.4,6.4h-16.5c-3.3,0-6-5.5-9.5-5.5l-1.1,5.5h-6.5s-.5-6,0-8.7,1.8-4.7,1.8-4.7h0Z"/>
        </g>
        <g>
          <path class="st28" d="M71.2,261.6c.9,3.1,1.4,6.3,1.5,9.5,0,1.9,0,3.9-1,5.6-.7,1.3-1.8,2.5-2.9,3.6-.3.3-.6.6-1.1.7-.6,0-1.1-.3-1.5-.7-.2-.2-.4-.4-.6-.6-.7-.6-1.3-1.2-1.9-1.9-.6-.8-1-1.7-1.3-2.6-.5-1.2-1-2.4-1.5-3.6-1.2-2.8-2.3-5.7-2.1-8.7"/>
          <path class="st36" d="M48.9,190.4s9.1,1.2,12.6,4.2,5.7,8.2,7.5,17.5,4.8,55.3,4.8,55.3h-15.9l-6-57"/>
          <line class="st3" x1="73.2" y1="259.4" x2="57.1" y2="259.4"/>
        </g>
        <g>
          <path class="st32" d="M74.5,329.7s1.3-16.8,0-33.9c-.6-8.1-14.4-57.8-14.4-57.8h-12.6v-10.5l-23.3,3.9s-5.7,24.1-5.7,31c0,10.4,3.4,35,3.4,35l-1.3,26.1,53.9,6.2h0Z"/>
          <path class="st23" d="M32.5,324.9l.9-28.3c-1.2-5.2-2.4-10.5-3.5-15.8-1.5-7.2-3.2-14.5-3.1-21.9,0-5.6,1.1-11.3,1.7-16.9"/>
          <path class="st3" d="M44.9,308.8c3.6-5.8,6.7-12,9-18.4"/>
          <path class="st3" d="M44.3,297.9c1.9-2.2,3.9-4.4,5.9-6.5"/>
        </g>
        <g>
          <path class="st36" d="M57.3,202c2.5,4.9,4.2,11.8,4.6,17.4.9,12.2,1,19.5,1.7,29.9H20.5l2.8-45.7,9.2-12.6s9.9-1.8,15.6-.7c5.7,1.1,9.2,11.8,9.2,11.8h0Z"/>
          <path class="st3" d="M57.3,202c2.5,4.9,4.2,11.8,4.6,17.4.9,12.2,1,19.5,1.7,29.9"/>
          <g>
            <path class="st46" d="M69.6,225.9l-4.1-4.4-36.3,33.7,4.1,4.4c8.1,8.7,22.8,8.3,32.8-1,10-9.3,11.6-23.9,3.5-32.6h0Z"/>
            <g class="st30">
              <path class="st29" d="M79.6,244.1l-17-18.3,1.8-1.7,17,18.3-1.8,1.7ZM79.8,252l-17-18.3-1.8,1.7,17,18.3,1.8-1.7ZM78.1,261.6l-17-18.3-1.8,1.7,17,18.3,1.8-1.7h0ZM52,269.7l-17-18.3-1.8,1.7,17,18.3,1.8-1.7h0ZM61.7,268.8l-17-18.3-1.8,1.7,17,18.3,1.8-1.7h0ZM71.4,267.9l-17-18.3-1.8,1.7,17,18.3,1.8-1.7h0Z"/>
            </g>
            <ellipse class="st63" cx="47.9" cy="238.7" rx="24.8" ry="21.6" transform="translate(-149.7 96.5) rotate(-42.9)"/>
            <path class="st3" d="M70,228.4c3.1,8.4.4,18.9-7.4,26.2-10,9.3-24.7,9.8-32.8,1"/>
            <ellipse class="st46" cx="47.4" cy="238.1" rx="19.2" ry="15.8" transform="translate(-149.4 95.9) rotate(-42.9)"/>
            <path class="st3" d="M29.9,244.7c-1.2-5.9,1.1-13,6.6-18.1,7.8-7.2,18.9-7.9,24.8-1.5"/>
            <path class="st40" d="M39.9,244.3c-1-1-1.8-2.2-2.4-3.4-.6-1.2-.9-2.4-1-3.4l3.3-1.2c0,.9.4,1.9.8,2.9.5,1,1,1.9,1.8,2.7.6.6,1.1,1,1.5,1.3.5.2.9.4,1.3.3s.7-.2,1-.4c.4-.3.5-.7.5-1.2s-.2-1-.5-1.6-.6-1.2-1-1.8-.7-1.3-1.1-2c-.3-.7-.6-1.4-.7-2.1,0-.7,0-1.4,0-2.1.2-.7.7-1.4,1.4-2,.8-.7,1.7-1.2,2.7-1.4s2.1,0,3.2.4c1.1.5,2.3,1.3,3.4,2.5.8.8,1.4,1.7,2,2.7.5,1,.9,2,1.1,2.9l-3.2,1.2c-.2-.9-.5-1.8-.9-2.5-.4-.8-.9-1.5-1.4-2-.6-.6-1.1-1-1.5-1.2-.5-.2-.9-.3-1.3-.3s-.7.2-1,.5c-.4.3-.5.7-.5,1.2s.2,1,.5,1.6.6,1.2,1,1.8c.4.7.7,1.3,1.1,2,.3.7.5,1.4.7,2.1,0,.7,0,1.4,0,2.1-.2.7-.7,1.4-1.4,2-.8.7-1.6,1.2-2.7,1.3-1,.2-2.1,0-3.2-.4-1.2-.5-2.3-1.3-3.4-2.5h0ZM37.2,245.6l18.2-16.9,1.8,1.9-18.2,16.9-1.8-1.9Z"/>
            <path class="st3" d="M64.5,231c1.4,4.2.4,8.7-1.3,12.2"/>
          </g>
          <g>
            <g>
              <path class="st28" d="M42.6,251c2.6,1.6,4.3,4.3,5.8,6.9.8,1.3,1.6,2.7,2.4,4,0,.1.2.3,0,.4,0,.2-.3.2-.5.2-1.3,0-2.5-.9-3.5-1.8.3,1.3.8,2.6,1.6,3.8.4.6,1,1.2,1.7,1.2,0,.7-.6,1.3-1.2,1.6-.7.2-1.4,0-2-.4-.8,1-2.5,1-3.4,0,0,.3,0,.6-.3.8-.2.2-.6.2-.9.2-.8,0-2.2-1-2.2-1,0,0,.4.6-1.3,1s-3.8-2.4-5.5-4.5-3-4.5-4.9-6.5"/>
              <path class="st3" d="M40.3,266.9c-1.3-.8-2.4-1.8-3.3-3"/>
              <path class="st3" d="M43.6,266.9c-1-1-1.8-2.1-2.4-3.4"/>
              <path class="st3" d="M46.9,266.9c-1.1-1.4-2.1-2.9-2.8-4.5"/>
              <path class="st3" d="M46.9,260.9c0-.7-.2-1.4-.3-2.1"/>
            </g>
            <path class="st36" d="M37.2,187.4l-4.5,2.9s-11.9-.1-15.4,9.7c-3.6,9.9-5.7,19.4-6.2,23.6-.7,6.4-1,11.8,4.1,19.2,4.1,6,15.9,20.1,15.9,20.1l15.1-9.2-15.4-25.7,2-22.5"/>
            <polyline class="st3" points="34 233.2 30.8 227.9 32.4 208.9"/>
            <line class="st3" x1="42.5" y1="247.3" x2="26.7" y2="257.5"/>
            <line class="st3" x1="34.3" y1="260.9" x2="26.4" y2="250.2"/>
            <path class="st45" d="M36,256.3c0,.6-.4,1-1,1s-1-.4-1-1,.4-1,1-1,1,.4,1,1Z"/>
            <path class="st3" d="M28.3,226.1c1,.4,1.9,1,2.4,1.8"/>
          </g>
          <path class="st3" d="M31,190.9c3.6,4.2,9.3,7.4,14.9,5.7,2.2-.7,4.1-2.4,4.6-4.6"/>
        </g>
        <g>
          <path class="st71" d="M49.1,167.2c2.5,2,4.2,4.8,5.7,7.6,1.7,3.1,3.5,6.1,5.2,9.2.7,1.2,1.2,2.5,1.5,3.9.4,1.4.6,2.7.6,4.1s.2,2.5.3,3.8c0-.1-.6-.5-.7-.6-.2-.2-.5-.4-.8-.6-.5-.4-1.1-.7-1.7-1-1.2-.6-2.4-1-3.6-1.3h-.3c-2.5-.6-5.1-1-7.5-2-1.1-.5-1.8-1.2-2.5-2.1-1.7-2-2.1-4.8-2.4-7.4-.3-2.4-.5-4.7-.8-7.1"/>
          <path class="st28" d="M33.4,178.2l.6,11.8s3.5,4.9,9,4c4.3-.7,5.1-3.8,5.1-3.8v-6.4"/>
          <path class="st28" d="M51.7,172.2c-.5-1.9-1.5-3.5-3.1-4.7-2-1.5-4.9-1.8-7.3-1.5-4,.6-5.8,4.8-6.1,8.4-.2,2.8,0,5,1.4,7.4,2.4,3.9,8,7.5,12.5,5.2,2.5-1.3,3.7-4,3.5-6.6s-.2-5.6-1-8.2h0Z"/>
          <path class="st3" d="M49.1,175.7c.2.6.5,1.2.9,1.7.3.4.6.8.8,1.2.2.5,0,1-.7,1.2"/>
          <path class="st61" d="M45.4,177.1c0,.5-.2,1-.6,1.1-.4,0-.8-.3-.9-.8,0-.5.2-1,.6-1.1.4,0,.8.3.9.8Z"/>
          <path class="st61" d="M51.8,174.9c0,.5-.2,1-.6,1.1-.4,0-.8-.3-.9-.8,0-.5.2-1,.6-1.1s.8.3.9.8Z"/>
          <path class="st3" d="M45.2,173.6c-.3-.2-.8-.2-1.2-.1-.9.2-1.5,1-1.9,1.8"/>
          <path class="st3" d="M49.6,172.7c.5-.7,1.4-.7,2.1,0"/>
          <path class="st3" d="M39.8,184.8c1.8,2.1,5.3,3.1,8.3,2.8"/>
          <path class="st3" d="M48.4,180.4c0,.5.2,1.2.6,1.5.7.6,1.6-.2,1.7-.9"/>
          <path class="st71" d="M52.7,167.4c-.5-1-1.2-1.9-2.1-2.6-1.4-1-3.3-1.4-4.9-2.2-4-2-8.7-1.5-12.6,1.1-3.1,2.2-4.8,4.6-5.7,8.3-.1.4-.2.9-.3,1.3-.2,1.2-.2,2.4-.4,3.6-.4,2.5-1.6,4.8-3.3,6.5-.8.8-1.8,1.5-2.5,2.4-2.5,2.9-3.2,6.8-1.2,10.1,2.2-2.1,5.6-2.2,8.5-3.1,2.9-.9,6-2.2,7.3-4.9.7-1.3.8-2.9,1-4.3,0-1.2.2-2.4.2-3.6s0-1.6.4-2.4c.4-1,1.4-1.3,2.1-2,.8-.7,1.5-1.6,2.2-2.4,1.8-2,3.4-4.1,4.7-6.4,3,.3,5.8,3.3,6.5,6.9,0,0,2.2-1.9.2-6.2h-.1Z"/>
          <g>
            <path class="st28" d="M39.4,177.7c-.2-1.4-2.4-2.2-3.6-1.6-2.9,1.5-1.1,6.7,1.9,6.8.8,0,2-.4,2.1-1.3"/>
            <line class="st3" x1="36" y1="178.5" x2="39" y2="180.5"/>
            <path class="st3" d="M38.2,176.3c.5.3,1,.7,1.3,1.3"/>
            <path class="st3" d="M36.7,182.6c.5.3,1.2.5,1.8.5s1.3-.4,1.4-1"/>
          </g>
        </g>
      </g>
    </g>
    <path class="st75" d="M86,130.8l-2.9-1c-.9-.4-1.5-1.1-2.1-2.4l-1.4-5.1c0-.3-.4-.6-.7-.6s-.6.2-.7.6l-1.4,5.1c-.5,1.4-1.1,2.1-2.1,2.4l-2.9,1c-.3.1-.5.4-.5.7s.2.6.5.7l2.9,1c.9.4,1.5,1.1,2.1,2.4l1.4,5.1c0,.3.4.6.7.6s.6-.2.7-.6l1.4-5.1c.5-1.4,1.1-2.1,2.1-2.4l2.9-1c.3-.1.5-.4.5-.7s-.2-.6-.5-.7Z"/>
    <path class="st75" d="M486.7,89.4l-2.9-1c-.9-.4-1.5-1.1-2.1-2.4l-1.4-5.1c0-.3-.4-.6-.7-.6s-.6.2-.7.6l-1.4,5.1c-.5,1.4-1.1,2.1-2.1,2.4l-2.9,1c-.3,0-.5.4-.5.7s.2.6.5.7l2.9,1c.9.4,1.5,1.1,2.1,2.4l1.4,5.1c0,.3.4.6.7.6s.6-.2.7-.6l1.4-5.1c.5-1.4,1.1-2.1,2.1-2.4l2.9-1c.3,0,.5-.4.5-.7s-.2-.6-.5-.7Z"/>
    <path class="st75" d="M573.3,160.7l-2.9-1c-.9-.4-1.5-1.1-2.1-2.4l-1.4-5.1c0-.3-.4-.6-.7-.6s-.6.2-.7.6l-1.4,5.1c-.5,1.4-1.1,2.1-2.1,2.4l-2.9,1c-.3.1-.5.4-.5.7s.2.6.5.7l2.9,1c.9.4,1.5,1.1,2.1,2.4l1.4,5.1c0,.3.4.6.7.6s.6-.2.7-.6l1.4-5.1c.5-1.4,1.1-2.1,2.1-2.4l2.9-1c.3-.1.5-.4.5-.7s-.2-.6-.5-.7Z"/>
    <path class="st75" d="M233.8,9l-2.9-1c-.9-.4-1.5-1.1-2.1-2.4l-1.4-5.1c0-.3-.4-.6-.7-.6s-.6.2-.7.6l-1.4,5.1c-.5,1.4-1.1,2.1-2.1,2.4l-2.9,1c-.3.1-.5.4-.5.7s.2.6.5.7l2.9,1c.9.4,1.5,1.1,2.1,2.4l1.4,5.1c0,.3.4.6.7.6s.6-.2.7-.6l1.4-5.1c.5-1.4,1.1-2.1,2.1-2.4l2.9-1c.3-.1.5-.4.5-.7s-.2-.6-.5-.7Z"/>
    <path class="st75" d="M53.1,102.5l-2.9-1c-.9-.4-1.5-1.1-2.1-2.4l-1.4-5.1c0-.3-.4-.6-.7-.6s-.6.2-.7.6l-1.4,5.1c-.5,1.4-1.1,2.1-2.1,2.4l-2.9,1c-.3,0-.5.4-.5.7s.2.6.5.7l2.9,1c.9.4,1.5,1.1,2.1,2.4l1.4,5.1c0,.3.4.6.7.6s.6-.2.7-.6l1.4-5.1c.5-1.4,1.1-2.1,2.1-2.4l2.9-1c.3,0,.5-.4.5-.7s-.2-.6-.5-.7Z"/>
  </g>
</svg>