<?xml version="1.0" encoding="UTF-8"?>
<svg id="_圖層_1" data-name="圖層_1" xmlns="http://www.w3.org/2000/svg" version="1.1" xmlns:xlink="http://www.w3.org/1999/xlink" viewBox="0 0 807 460">
  <!-- Generator: Adobe Illustrator 29.7.1, SVG Export Plug-In . SVG Version: 2.1.1 Build 8)  -->
  <defs>
    <style>
      .st0, .st1 {
        fill: #ffc4b6;
      }

      .st1, .st2, .st3, .st4, .st5, .st6, .st7, .st8, .st9, .st10, .st11, .st12, .st13, .st14, .st15, .st16, .st17, .st18, .st19, .st20, .st21, .st22, .st23, .st24, .st25, .st26 {
        stroke-linecap: round;
      }

      .st1, .st2, .st4, .st6, .st16, .st20, .st21, .st23, .st25 {
        stroke: #0154b1;
      }

      .st1, .st3, .st4, .st5, .st6, .st7, .st8, .st9, .st10, .st11, .st12, .st13, .st14, .st15, .st16, .st17, .st18, .st19, .st21, .st22, .st23, .st24, .st25 {
        stroke-linejoin: round;
      }

      .st1, .st7, .st11, .st16, .st21, .st23 {
        stroke-width: 1.5px;
      }

      .st2, .st3, .st4, .st5, .st27, .st8, .st9, .st10, .st13, .st14, .st15, .st17, .st18, .st19, .st20, .st22, .st23, .st24, .st25, .st26 {
        fill: none;
      }

      .st2, .st3, .st4, .st5, .st8, .st9, .st13, .st15, .st17, .st18, .st19, .st24 {
        stroke-width: .9px;
      }

      .st2, .st20, .st26 {
        stroke-miterlimit: 10;
      }

      .st3 {
        stroke: #8e3723;
      }

      .st28 {
        fill: #ffb5a1;
      }

      .st29 {
        fill: #f69c31;
      }

      .st30 {
        clip-path: url(#clippath-4);
      }

      .st31 {
        fill: #f99e32;
      }

      .st32 {
        fill: #003156;
      }

      .st5 {
        stroke: #576b40;
      }

      .st33 {
        fill: #f49a38;
      }

      .st34, .st35, .st6, .st7, .st12, .st16, .st36 {
        fill: #fff;
      }

      .st37 {
        fill: #002942;
      }

      .st35 {
        opacity: .4;
      }

      .st38 {
        fill: #dd732c;
      }

      .st6, .st12, .st22, .st25 {
        stroke-width: 2.7px;
      }

      .st39 {
        fill: #ed8620;
      }

      .st7, .st11 {
        stroke: #0154b7;
      }

      .st8 {
        stroke: #4b80e1;
      }

      .st40 {
        fill: url(#_未命名漸層_40);
        opacity: .5;
      }

      .st41 {
        fill: #f9e3ba;
      }

      .st9 {
        stroke: #f4d6a2;
      }

      .st10 {
        stroke: #003156;
        stroke-width: .9px;
      }

      .st42 {
        fill: #f89a33;
      }

      .st43 {
        clip-path: url(#clippath-1);
      }

      .st44, .st21 {
        fill: #a2bdff;
      }

      .st45 {
        fill: #faad47;
      }

      .st46 {
        fill: #e3772d;
      }

      .st47 {
        fill: #8ed78f;
      }

      .st11, .st48 {
        fill: #f9b7b7;
      }

      .st49 {
        fill: #9fb78d;
      }

      .st12 {
        opacity: .7;
      }

      .st12, .st22 {
        stroke: #9fbfed;
      }

      .st50 {
        fill: #ffd44c;
      }

      .st51 {
        fill: #fdeebd;
      }

      .st13 {
        stroke: #df9039;
      }

      .st52 {
        clip-path: url(#clippath-3);
      }

      .st53 {
        fill: #c65128;
      }

      .st14 {
        stroke: #dd5c3e;
        stroke-width: 1.8px;
      }

      .st54 {
        fill: #de5c28;
      }

      .st55 {
        fill: #db7b3a;
      }

      .st15 {
        stroke: #5bbe5a;
      }

      .st17 {
        stroke: #9ef1a5;
      }

      .st56 {
        fill: #faa637;
      }

      .st18 {
        stroke: #70bb64;
      }

      .st57 {
        fill: #ffc54c;
      }

      .st58 {
        fill: #f9aa40;
      }

      .st59 {
        fill: #91aa77;
      }

      .st60 {
        fill: #0154b1;
      }

      .st61 {
        fill: #83da8e;
      }

      .st62 {
        fill: #ffcf57;
      }

      .st63 {
        fill: #ffd652;
      }

      .st19 {
        stroke: #728ee8;
      }

      .st64 {
        fill: #0154b7;
      }

      .st20 {
        stroke-width: .7px;
      }

      .st36 {
        opacity: .6;
      }

      .st65 {
        opacity: .6;
      }

      .st66 {
        fill: #589c4b;
      }

      .st67 {
        fill: #f4982a;
      }

      .st68 {
        fill: #fcae47;
      }

      .st69 {
        fill: #4aa846;
      }

      .st70 {
        clip-path: url(#clippath-2);
      }

      .st71 {
        fill: #7eca78;
      }

      .st72 {
        fill: #dd5c3e;
      }

      .st24 {
        stroke: #adeeab;
      }

      .st73 {
        fill: #6dcd71;
      }

      .st74 {
        fill: #00407f;
      }

      .st75 {
        fill: #70bb64;
      }

      .st76 {
        fill: #5bbe5a;
      }

      .st77 {
        clip-path: url(#clippath);
      }

      .st78 {
        fill: #dee6ef;
      }

      .st79 {
        fill: #e67428;
      }

      .st26 {
        stroke: #fff;
        stroke-width: 2.8px;
      }
    </style>
    <linearGradient id="_未命名漸層_40" data-name="未命名漸層 40" x1="-145" y1="796.2" x2="371.2" y2="674.8" gradientTransform="translate(512.8 -448.8) rotate(6.8)" gradientUnits="userSpaceOnUse">
      <stop offset=".3" stop-color="#fff" stop-opacity="0"/>
      <stop offset=".7" stop-color="#fff" stop-opacity=".8"/>
    </linearGradient>
    <clipPath id="clippath">
      <path class="st27" d="M614.2,146.7l-6.2,2.4,19.8,50.7,6.2-2.4c12.2-4.8,17.6-20,12.2-34-5.5-14-19.8-21.5-32-16.7Z"/>
    </clipPath>
    <clipPath id="clippath-1">
      <path class="st27" d="M284.8,185.5l10-8.4,55.8,59.6-10,8.4c-15.4,12.9-40.4,10.1-55.8-6.3-15.4-16.5-15.4-40.3,0-53.2Z"/>
    </clipPath>
    <clipPath id="clippath-2">
      <path class="st27" d="M286.6,378.4l-13-5.3-29.6,72.3,13,5.3c15.2,6.2,34.1-4.9,42.3-24.9,8.2-20,2.5-41.2-12.7-47.4Z"/>
    </clipPath>
    <clipPath id="clippath-3">
      <path class="st27" d="M273.5,110.4l-9.9-6.4-42.2,65.5,9.9,6.4c11.6,7.5,30.4-1.2,42-19.2,11.7-18.1,11.7-38.8.2-46.2Z"/>
    </clipPath>
    <clipPath id="clippath-4">
      <path class="st27" d="M74.6,287.6l-5.2-5.6-46,42.7,5.2,5.6c10.3,11.1,28.9,10.5,41.6-1.3,12.7-11.8,14.7-30.3,4.4-41.4Z"/>
    </clipPath>
  </defs>
  <polygon class="st40" points="797.4 197.6 807 202.6 793.8 132.6 729.1 162.2 739.1 167.4 715.3 215.9 632.4 205.9 598.6 289.5 493.9 274.6 455 363.6 249.4 330.8 250.8 402 493.3 433.6 532.3 345 636.9 359.9 670.7 276.3 753.6 286.2 797.4 197.6"/>
  <g>
    <g>
      <g>
        <g>
          <g>
            <g>
              <path class="st48" d="M706.8,309.6l16.5,7.2s-7.3,27.2-7.4,27.4c0,.2-18.5-8-18.5-8"/>
              <g>
                <path class="st34" d="M712.1,343.1l7.7-28.4,16.9,6.5-12.9,47.8c-11.8-5.8-5.9-18.8-11.6-25.9Z"/>
                <line class="st2" x1="733.4" y1="320" x2="720.7" y2="367"/>
                <path class="st2" d="M726.1,317.2s-1.6,7.7,4.3,14.1"/>
                <path class="st2" d="M715.9,356.4s3.1-3.5,8.4-2.8"/>
                <line class="st2" x1="713.7" y1="346.1" x2="718.5" y2="343.9"/>
                <line class="st2" x1="714.6" y1="349.5" x2="719.4" y2="347.3"/>
              </g>
            </g>
            <path class="st32" d="M639.2,241.3c.1-.5-5.4,30.7-7.8,42.4-2,10,1.1,21.5,5.1,26.3,5.6,6.7,16.7,11.3,25.7,15.4,9,4,42.7,19.9,42.7,19.9l12.2-32-50.8-22.2,8.1-49.8"/>
            <path class="st2" d="M665,245c0,7.8-10,50-2.6,53.4,2.1,1,3.6,3.3,5.7,4.4,14.5,7.6,29.9,13.3,45,19.4.3.1.5.2.8.3"/>
            <path class="st2" d="M669.5,240.4c0,7.8-7.4,45.5-6.3,52.9.6,4.1,4.4,5.8,7.9,7.4,14.6,6.4,29.2,12.5,43.9,18.6"/>
            <path class="st2" d="M666.9,291.5c-.7,3-.9,9.2-.9,9.2"/>
            <path class="st2" d="M657.6,317c5.3-.4,10.6-.7,15.8-1.1"/>
            <path class="st2" d="M666.6,321.9c3.6.6,7.1,1.1,10.7,1.7"/>
          </g>
          <g>
            <path class="st48" d="M619.7,354l-4.3,17.9h-29.6c-.2,0,4-20,4-20"/>
            <g>
              <path class="st34" d="M586.4,367.7h30.7l2.4,17.2h-51.6c-.5-12.3,14.7-10.1,18.5-17.2Z"/>
              <line class="st2" x1="619.1" y1="381.7" x2="568.2" y2="381.7"/>
              <path class="st2" d="M618,374.2s-8.1.5-11.1,7.5"/>
              <path class="st2" d="M575.8,374.6s4.9,2,7,7.1"/>
              <line class="st2" x1="584.4" y1="370" x2="588.9" y2="373.9"/>
              <line class="st2" x1="581.6" y1="371.7" x2="586.1" y2="375.6"/>
            </g>
          </g>
          <path class="st32" d="M630.4,245.6l-2.3,8c1.2-1.7-10.6,15.4-19.7,28.1-4.7,6.5-7.4,19.2-11.3,33.9-4,14.7-11.7,48.4-11.7,48.4h37.9s13.4-55.2,14.1-57.4,21.9-26.1,28.6-32.5c6.7-6.4,13.2-14.9,10.7-29.1"/>
          <path class="st2" d="M663.1,242.2s-1.2,9.4-4,12.5c-2.9,3.1-18.9,20.6-23.6,27.1-4.7,6.5-9.4,19.1-13.3,33.8-4,14.7-11.7,48.4-11.7,48.4"/>
          <path class="st2" d="M658.5,243.1s-.5,5.4-3,9.2c-2.5,3.8-19.8,21.8-24.7,29.6-4.2,6.8-9.4,19.1-13.3,33.8-4,14.7-11.7,48.4-11.7,48.4"/>
          <path class="st2" d="M636.4,310.7c.6-2.3.9-3.8,1-4.1.6-2.2,21.9-26.1,28.6-32.5,1.1-1.1,2.2-1.8,3.3-2.8"/>
        </g>
        <g>
          <path class="st39" d="M624.9,174.1l-19.9,5.7s6.2,34.7,11.1,40c4.9,5.3,11.4,7,17.2,3.6,4.9-2.9,33-29.7,33-29.7l-13.4-15.5-22.3,15.8-5.6-20Z"/>
          <path class="st33" d="M658.6,174.8c-9.3,2.2-14.5,8.8-18.1,17-3.2,7.2-5.7,14.6-8.1,22.1-2.2,7.2-3.7,14.7-6.1,21.8-.7,2-1.1,4.2-.8,6.3.3,2.1.8,4.1,2.7,5.1l-1.1,5.6h51.4v-5.7c5.9-4,5.8-10,6.5-16.8,1.7-16-.3-32.6,4.7-47.9"/>
          <line class="st2" x1="628.3" y1="247.1" x2="667.6" y2="247.1"/>
          <line class="st2" x1="678.6" y1="247" x2="672.6" y2="247"/>
          <line class="st2" x1="630.5" y1="194.1" x2="625.7" y2="202.2"/>
        </g>
        <g>
          <path class="st33" d="M674.1,169.1c6-.7,12.4,0,17.7,2.7,1.1.5,2.1,1.2,3,1.9.6.6,1.2,1.2,1.6,1.8,1.5,2.2,2.1,4.8,1.6,7.2-.6,2.5-2.3,4.7-4.9,6-1.5.8-3.2,1.2-5,1.5-3.7.6-7.6.6-11.3,0"/>
          <path class="st48" d="M651.5,160.4c1.1-3.1,3.1-6,4.7-8,1.4-1.7,3.1-3,5.3-3.5,2.8-.6,6.8-.6,9.1.9,3.9,2.4,2.9,8.3,1.7,12.2-1,2.9-2.4,5.7-5,7.5-4.2,2.9-11.4,3.8-15-.6-2-2.4-1.8-5.5-.8-8.4Z"/>
          <path class="st48" d="M678.6,161.1l-2.4,7.1-.3,7.9s-5.5,5.2-11.2,4.2c-6.8-1.1-8-3.5-8-3.5l2.3-10.6"/>
          <g>
            <path class="st2" d="M665.8,161c-1,1.7-3.2,2.3-4.9,1.3-1.7-1-2.3-3.2-1.3-4.9,1-1.7,3.2-2.3,4.9-1.3,1.7,1,2.3,3.2,1.3,4.9Z"/>
            <path class="st2" d="M657.5,156.6c-1,1.7-2.9,2.5-4.3,1.7-1.4-.8-1.7-2.8-.7-4.5,1-1.7,2.9-2.5,4.3-1.7,1.4.8,1.7,2.8.7,4.5Z"/>
            <line class="st2" x1="657.9" y1="155.6" x2="660.1" y2="156.8"/>
            <line class="st2" x1="666.3" y1="159.6" x2="672.6" y2="161.1"/>
          </g>
          <path class="st20" d="M658.6,157c-.6.7-1.3,1.3-2.1,1.9-.6.4-1.2.8-1.7,1.3-.5.5-.3,1.4.4,2.1"/>
          <path class="st60" d="M661.1,157.4c-.3.5-.2,1.1.2,1.4.4.2,1,0,1.3-.5.3-.5.2-1.1-.2-1.4s-1,0-1.3.5Z"/>
          <path class="st60" d="M654.7,154c-.3.5-.2,1.1.2,1.4.4.2,1,0,1.3-.5.3-.5.2-1.1-.2-1.4-.4-.2-1,0-1.3.5Z"/>
          <path class="st34" d="M655.2,163.5l3.4-.8s.8,2.8-.8,3.3c-2.1.7-2.7-2.5-2.7-2.5Z"/>
          <path class="st20" d="M664.2,153.6c.4-.1.9,0,1.3.3.8.6,1.3,1.6,1.3,2.6"/>
          <path class="st20" d="M658.6,151.7c-.3-.3-.7-.6-1.2-.8-.5-.2-1-.2-1.5,0"/>
          <path class="st32" d="M656.8,142.4c.5-.4,1.3-.3,1.7-.9.3-.4.3-1,.4-1.5.5-1.7,2.7-2.5,4.3-2,1.1.4,1.5,1.4,2.3,2.2,1.5,1.3,3.5,1.7,5.4,2,2,.3,3.8.8,5.5,1.8,3.4,2.2,5.6,6,6.3,10,0,.5.1,1.1.2,1.6.2,3.2-1,5.5-2.8,8-1.1,1.6-2.4,3.2-3.9,4.5l-3.7-6.8c-2.3-2.4-3.3-7.6-2.5-10.8-.8.5-3.7,1.1-4.1,1.1-3.4.3-8.5-.8-9.8-4.7-.2-.6-.2-1.1-.2-1.7,0-.9.1-2.3.9-2.9Z"/>
          <g>
            <path class="st48" d="M670.2,161.8c.7-1.5,3.4-1.8,4.5-.7,2.9,2.6-.8,7.9-4.2,7.1-1-.2-2.1-1.1-2-2.2"/>
            <line class="st20" x1="673.8" y1="163.8" x2="669.8" y2="165.1"/>
            <path class="st20" d="M672,160.6c-.7.1-1.4.5-1.8,1"/>
            <path class="st20" d="M675,165.9c-1,1.8-3.4,3-5.4,2.2-.7-.3-1.3-.9-1.3-1.7"/>
          </g>
          <path class="st33" d="M687.6,172.7c-4.5-1.5-9.9,0-14.4,1-5.8,1.2-11.7,4.3-15.1,9.3-1.4,2.1-2.3,4.4-3.8,6.3"/>
          <path class="st2" d="M659,181.7c5.8-6.1,14-9.2,22.3-9.2,1.7,0,3.4,0,5.2.1"/>
          <path class="st2" d="M682.7,188.2c1.8,1.2,3.9,1.8,6.1,1.7"/>
        </g>
        <g>
          <g>
            <path class="st45" d="M614.2,146.7l-6.2,2.4,19.8,50.7,6.2-2.4c12.2-4.8,17.6-20,12.2-34-5.5-14-19.8-21.5-32-16.7Z"/>
            <g class="st77">
              <path class="st29" d="M636.8,143.8l-25.6,10-1-2.6,25.6-10,1,2.6ZM644.9,146.8l-25.6,10,1,2.6,25.6-10-1-2.6ZM654.1,152.4l-25.6,10,1,2.6,25.6-10-1-2.6ZM651.9,182.4l-25.6,10,1,2.6,25.6-10-1-2.6ZM654.8,172.1l-25.6,10,1,2.6,25.6-10-1-2.6ZM657.8,161.8l-25.6,10,1,2.6,25.6-10-1-2.6Z"/>
            </g>
            <ellipse class="st63" cx="618.6" cy="174.1" rx="23.7" ry="27.2" transform="translate(-20.9 237.1) rotate(-21.3)"/>
            <path class="st2" d="M616.9,147.3c9.8.2,19.5,7.2,23.8,18.2,5.5,14,0,29.2-12.2,34"/>
            <ellipse class="st45" cx="617.7" cy="174.5" rx="17.4" ry="21.1" transform="translate(-21.1 236.8) rotate(-21.3)"/>
            <path class="st2" d="M617.3,194.9c-6.6-1.2-12.8-6.4-15.8-14.1-4.2-10.9-.4-22.5,8.5-26"/>
            <path class="st38" d="M621,184.5c-1.5.6-2.9.9-4.5,1-1.5.1-2.8,0-3.9-.3v-3.9c1.1.3,2.2.4,3.5.3,1.2,0,2.4-.3,3.5-.7.8-.3,1.5-.7,1.9-1.1.4-.4.7-.8.9-1.2s.1-.8,0-1.2c-.2-.5-.5-.8-1-1-.5-.1-1.1-.2-1.8-.1s-1.5.1-2.3.3c-.8.1-1.6.2-2.5.3-.9,0-1.7,0-2.5-.2-.8-.2-1.5-.5-2.1-1-.6-.5-1.1-1.3-1.5-2.3-.4-1.1-.5-2.2-.3-3.3.2-1.1.8-2.2,1.7-3.1.9-1,2.3-1.8,4-2.5,1.1-.4,2.3-.7,3.6-.9,1.2-.1,2.4-.1,3.4,0v3.8c-1-.2-2-.2-3-.1-1,0-1.8.3-2.6.6-.8.3-1.5.7-1.9,1.1-.4.4-.7.8-.8,1.2-.1.4,0,.8,0,1.2.2.5.6.8,1.1,1,.5.2,1.1.2,1.8.1.7,0,1.5-.2,2.3-.3.8-.1,1.7-.2,2.5-.2.8,0,1.7,0,2.4.2.8.1,1.5.5,2.1,1,.7.5,1.2,1.2,1.5,2.2.4,1.1.5,2.2.3,3.3-.2,1.1-.8,2.2-1.7,3.1-.9,1-2.3,1.8-4,2.5ZM621.2,187.8l-10-25.5,2.6-1,10,25.5-2.6,1Z"/>
            <path class="st2" d="M617.3,153.9c4.9.3,9.1,3.1,12,6.3"/>
          </g>
          <g>
            <path class="st48" d="M624.5,192c-2.8-2.2-5.8-3.3-8.7-5.1-1.2-.8-2.7-1.6-4-2.2-1.3-.6-1.1.7-.7,1.4.6,1.2,1.4,2.2,2.5,3-.5.3-1.1.3-1.7.2-1.8-.4-3.6-1.2-5.4-1.8-1.8-.6-3.7-1.1-5.5-.7-.2,0-.5.1-.6.4,0,.1,0,.3,0,.4,0,0-.2,0-.4.1-.3,0-.5.5-.5.8,0,.3.3.6.5.9,1.1,1.4,2,3,2.7,4.6.2.5.5,1.1.8,1.6.4.7,1,1.2,1.5,1.8,4.8,4.8,10.7,8.5,17.1,10.7"/>
            <path class="st20" d="M613.5,189.1c1.7.3,3.5.6,5.2,1.1"/>
            <path class="st20" d="M600.4,187.5c1.3,1.4,3.1,2.3,4.8,3.1,1.1.5,2.3,1,3.4,1.4"/>
            <path class="st20" d="M600.8,190.8c2.2,1.7,4.7,3.1,7.3,4"/>
            <path class="st20" d="M602.6,194.1c1.2,1,2.5,2,3.8,2.9.3.2.7.5,1.1.5"/>
          </g>
          <path class="st33" d="M676.7,182.1c-5.6-2.7-10.7-1-14.8,2.2-4.1,3.2-15,16.7-15,16.7l-23.3-10.2-8.8,19.5s17.8,11,25.9,13.8c8.1,2.9,15,2.9,22.4-4.3,7.4-7.2,15-18.4,15-18.4"/>
          <path class="st2" d="M631.3,219.9c2.7,1.3,7.6,3.6,9.3,4.2,8.1,2.9,15,2.9,22.4-4.3,7.4-7.2,15-18.4,15-18.4"/>
          <path class="st2" d="M676.7,182.1c-5.6-2.7-10.7-1-14.8,2.2-4.1,3.2-15,16.7-15,16.7l-8.3-3.6"/>
          <path class="st2" d="M646.4,200.7c2.1.9,4.1,2.4,5.8,4.4"/>
        </g>
      </g>
      <g>
        <path class="st37" d="M264.6,433.9l47.2-394.8c1.4-11.5,11.1-20.1,22.7-20.1h167.6c9.7,0,18.3,6.1,21.5,15.2l3.2,9c1.2,3.3,1.6,6.8,1.1,10.3l-46.7,391.6c-1,8.2-7.9,14.3-16.1,14.3h-177.8c-13.7,0-24.3-12-22.7-25.6Z"/>
        <path class="st74" d="M252.4,438.9l47.9-399.6c1.4-11.6,11.2-20.3,22.9-20.3h171.9c13.9,0,24.6,12.1,22.9,25.9l-47.7,397.7c-1.2,9.7-9.4,16.9-19.1,16.9h-180.7c-11,0-19.5-9.6-18.2-20.5Z"/>
        <path class="st78" d="M260.4,436.3l47.6-397.6c.9-7.3,7.1-12.8,14.4-12.8h172.3c8.7,0,15.4,8.1,14.4,16.7l-47.6,397.1c-.9,7.3-7.1,12.8-14.4,12.8h-172.3c-8.7,0-15.4-7.6-14.4-16.2Z"/>
        <path class="st60" d="M381.1,25.5l3.3,7.5c1.1,2.7,3.8,4.4,6.7,4.4h29.5c2.2,0,4.2-1,5.6-2.6l7.6-9.2h-52.6Z"/>
      </g>
      <g>
        <path class="st12" d="M270,188.2h84.4c33,0,59.9,26.8,59.9,59.9v180.9c0,12.6-10.2,22.9-22.9,22.9h-158.4c-12.6,0-22.9-10.2-22.9-22.9v-180.9c0-33,26.8-59.9,59.9-59.9Z"/>
        <g class="st65">
          <path class="st12" d="M365.1,168.9c0-3.6-3.3-6.4-7.3-6.4,4,0,7.3-2.9,7.3-6.4s-3.3-6.4-7.3-6.4h-91.2c-4,0-7.3,2.9-7.3,6.4s3.3,6.4,7.3,6.4c-4,0-7.3,2.9-7.3,6.4s3.3,6.4,7.3,6.4c-4,0-7.3,2.9-7.3,6.4s3.3,6.4,7.3,6.4h91.2c4,0,7.3-2.9,7.3-6.4s-3.3-6.4-7.3-6.4c4,0,7.3-2.9,7.3-6.4Z"/>
          <line class="st6" x1="261.6" y1="162.5" x2="337.2" y2="162.5"/>
          <line class="st6" x1="346.1" y1="162.5" x2="362.3" y2="162.5"/>
          <line class="st6" x1="362.3" y1="175.4" x2="261.6" y2="175.4"/>
        </g>
        <path class="st22" d="M270,188.2h84.4c33,0,59.9,26.8,59.9,59.9v180.9c0,12.6-10.2,22.9-22.9,22.9h-158.4c-12.6,0-22.9-10.2-22.9-22.9v-180.9c0-33,26.8-59.9,59.9-59.9Z"/>
        <g>
          <rect class="st41" x="255.1" y="314.4" width="75.9" height="101.4"/>
          <rect class="st51" x="248.8" y="298.9" width="75.9" height="15.5"/>
          <rect class="st41" x="256.8" y="283.6" width="75.9" height="15.5"/>
          <line class="st9" x1="324.7" y1="298.9" x2="256.8" y2="298.9"/>
          <line class="st9" x1="255.1" y1="314.4" x2="324.7" y2="314.4"/>
          <line class="st9" x1="255.1" y1="345.3" x2="330.7" y2="345.3"/>
          <line class="st9" x1="330.9" y1="329.2" x2="319.3" y2="329.2"/>
          <line class="st9" x1="311.8" y1="329.2" x2="262.3" y2="329.2"/>
        </g>
        <g>
          <path class="st61" d="M354.3,302.8l48.2,47.2c-23.6,31.8-53.3,59.1-87,79.9l-48.2-47.2c33.7-20.8,63.4-48,87-79.9Z"/>
          <path class="st5" d="M295.9,362.7c22-17.3,41.7-37.5,58.4-59.9"/>
          <path class="st5" d="M376.2,381c-18.1,18.7-38.5,35.2-60.7,48.8l-48.2-47.2"/>
          <path class="st5" d="M383.8,372.8c6.6-7.3,12.8-15,18.7-22.9l-14.1-13.8"/>
          <path class="st17" d="M319.3,421.9c28.1-18.3,53.8-41.9,74.5-68.2l1.3-1.7c.7-.9.6-2.2-.2-3l-38.3-37.5c-.9-.9-2.5-.8-3.3.2l-1.7,2.1c-20.2,25.4-45.1,48.4-72.1,66.4l-2.5,1.7c-1.2.8-1.3,2.5-.3,3.4l38.1,37.3c.7.7,1.9.8,2.8.3l1.6-1.1Z"/>
          <path class="st76" d="M316.7,418c27.8-18.1,52.9-41.1,73.4-67.2l-34.8-34.1c-20.6,25.9-45.6,49-73.2,67.4l34.6,33.9Z"/>
          <ellipse class="st61" cx="339.4" cy="366.9" rx="17.3" ry="19.3" transform="translate(-160.4 358.7) rotate(-46.3)"/>
          <ellipse class="st15" cx="339.4" cy="366.9" rx="14.2" ry="15.8" transform="translate(-160.4 358.7) rotate(-46.3)"/>
          <ellipse class="st61" cx="362.8" cy="343.9" rx="8.4" ry="9.4" transform="translate(-136.5 368.5) rotate(-46.3)"/>
          <path class="st73" d="M358.7,348.3c2.7,2.5,6.7,2.7,9,.3,2.3-2.4,2-6.4-.7-8.9-2.7-2.5-6.7-2.7-9-.3-2.3,2.4-2,6.4.7,8.9Z"/>
          <path class="st49" d="M307.6,397.1c3.7,3.6,9.4,3.8,12.6.4,3.2-3.4,2.8-9-1-12.6-3.7-3.6-9.4-3.8-12.6-.4-3.2,3.4-2.8,9,1,12.6Z"/>
          <path class="st59" d="M309.2,395.4c2.7,2.5,6.7,2.7,9,.3,2.3-2.4,2-6.4-.7-8.9-2.7-2.5-6.7-2.7-9-.3-2.3,2.4-2,6.4.7,8.9Z"/>
          <path class="st69" d="M342.9,376c-1.2.5-2.4.7-3.4.5-1-.2-1.9-.6-2.7-1.3-.7-.7-1.1-1.4-1.3-2.1-.2-.7-.2-1.5,0-2.2.2-.7.5-1.5.8-2.2.4-.8.8-1.5,1.2-2.2.4-.7.8-1.4,1.2-2,.3-.6.5-1.2.6-1.7,0-.5,0-.9-.4-1.3-.3-.3-.6-.4-1-.5-.4,0-.9,0-1.4.3-.5.3-1.1.7-1.7,1.4-.6.6-1.1,1.3-1.6,2.2-.5.8-.8,1.7-1.1,2.7l-3.3-1.2c.2-1,.7-2.1,1.3-3.1.6-1.1,1.4-2,2.2-2.9,1.3-1.3,2.5-2.3,3.7-2.8,1.2-.5,2.4-.7,3.4-.5,1,.2,2,.6,2.7,1.4.7.7,1.2,1.4,1.3,2.1.2.7.2,1.5,0,2.3-.2.8-.5,1.5-.9,2.3-.4.8-.8,1.5-1.2,2.2-.4.7-.8,1.4-1.1,2-.3.6-.5,1.2-.6,1.7,0,.5,0,.9.4,1.3.3.3.6.4,1,.4.4,0,.8-.1,1.3-.4.5-.3,1.1-.7,1.7-1.4.8-.8,1.5-1.8,2-2.9.5-1.1.9-2.1,1-3.1l3.4,1.1c-.1,1.1-.6,2.3-1.3,3.6-.7,1.3-1.6,2.5-2.7,3.7-1.3,1.3-2.5,2.3-3.8,2.8ZM347.5,376.5l-18-17.2,1.9-2,18,17.2-1.9,2Z"/>
        </g>
        <g>
          <path class="st47" d="M263.2,298l-55.3,41.7c20.2,35.1,47.3,66.4,79.3,91.5l55.3-41.7c-32-25.2-59.1-56.4-79.3-91.5Z"/>
          <path class="st4" d="M326.3,375.8c-7.4-6.9-14.5-13.9-21.5-21.1"/>
          <path class="st24" d="M284.3,422.9c-26.5-21.9-50-49-67.9-78.2l-1.2-1.9c-.6-1-.4-2.3.6-3l44-33.2c1.1-.8,2.6-.5,3.4.6l1.4,2.3c17.5,28.2,40.2,54.5,65.7,76.1l2.3,2c1.1.9,1.1,2.6-.1,3.5l-43.8,33c-.9.6-2.1.6-2.9,0l-1.5-1.3Z"/>
          <path class="st75" d="M287.4,419.3c-26.2-21.7-49.2-48.1-66.9-77l40-30.2c17.9,28.8,40.7,55.2,66.6,77.2l-39.7,30Z"/>
          <ellipse class="st47" cx="270.5" cy="364.8" rx="19.8" ry="17.7" transform="translate(-155.3 207) rotate(-33.1)"/>
          <ellipse class="st18" cx="270.5" cy="364.8" rx="16.2" ry="14.5" transform="translate(-155.3 207) rotate(-33.1)"/>
          <path class="st47" d="M254.5,345.5c-4.3,3.2-10.1,2.6-13-1.2-2.9-3.8-1.7-9.4,2.6-12.6,4.3-3.2,10.1-2.6,13,1.2,2.9,3.8,1.7,9.4-2.6,12.6Z"/>
          <path class="st71" d="M253,343.5c-3.1,2.2-7.2,1.9-9.2-.8-2-2.7-1.2-6.7,1.8-9,3.1-2.2,7.2-1.9,9.2.8,2,2.7,1.2,6.7-1.8,9Z"/>
          <path class="st47" d="M299.4,399.3c-4.3,3.2-10.1,2.6-13-1.2-2.9-3.8-1.7-9.4,2.6-12.6,4.3-3.2,10.1-2.6,13,1.2,2.9,3.8,1.7,9.4-2.6,12.6Z"/>
          <path class="st71" d="M297.9,397.3c-3.1,2.2-7.2,1.9-9.2-.8s-1.2-6.7,1.8-9,7.2-1.9,9.2.8c2,2.7,1.2,6.7-1.8,9Z"/>
          <path class="st66" d="M262.2,370.2c-1-1.3-1.7-2.6-2.3-4-.6-1.4-.8-2.7-.9-3.8l3.6-.7c0,1,.3,2.1.7,3.3.4,1.2,1,2.2,1.7,3.2.6.7,1.1,1.3,1.6,1.6.5.3.9.5,1.3.6.4,0,.8,0,1.1-.3.4-.3.6-.7.6-1.2,0-.5-.2-1.1-.4-1.8-.3-.7-.6-1.4-.9-2.1-.4-.8-.7-1.5-1-2.3-.3-.8-.5-1.6-.6-2.4,0-.8,0-1.6.3-2.3.3-.7.8-1.4,1.6-2,.9-.6,1.9-1,3-1,1.1,0,2.2.3,3.4.9,1.2.7,2.3,1.8,3.5,3.3.8,1,1.4,2.1,1.9,3.2.5,1.2.8,2.3.9,3.3l-3.6.8c-.1-1-.4-2-.8-2.9-.4-.9-.8-1.7-1.4-2.4-.6-.7-1.1-1.3-1.6-1.6-.5-.3-.9-.5-1.4-.5-.4,0-.8.1-1.1.3-.4.3-.6.7-.6,1.2,0,.5.1,1.1.4,1.8.3.6.6,1.4,1,2.1.4.8.7,1.6,1,2.4.3.8.5,1.6.6,2.4,0,.8,0,1.5-.3,2.3-.3.7-.8,1.4-1.6,2-.9.6-1.8,1-2.9,1-1.1,0-2.2-.3-3.4-1-1.2-.7-2.4-1.8-3.5-3.3ZM259.2,371.1l20.7-15.2,1.7,2.3-20.7,15.2-1.7-2.3Z"/>
        </g>
        <g>
          <g>
            <rect class="st58" x="316.5" y="373.6" width="74.6" height="15.6"/>
            <g>
              <rect class="st42" x="324.9" y="373.6" width="4.3" height="15.6"/>
              <rect class="st42" x="338.8" y="373.6" width="4.3" height="15.6"/>
              <rect class="st42" x="352.8" y="373.6" width="4.3" height="15.6"/>
              <rect class="st42" x="366.7" y="373.6" width="4.3" height="15.6"/>
              <rect class="st42" x="380.6" y="373.6" width="4.3" height="15.6"/>
            </g>
          </g>
          <g>
            <rect class="st58" x="321.3" y="389.2" width="74.6" height="15.6"/>
            <g>
              <rect class="st42" x="329.7" y="389.2" width="4.3" height="15.6"/>
              <rect class="st42" x="343.6" y="389.2" width="4.3" height="15.6"/>
              <rect class="st42" x="357.6" y="389.2" width="4.3" height="15.6"/>
              <rect class="st42" x="371.5" y="389.2" width="4.3" height="15.6"/>
              <rect class="st42" x="385.4" y="389.2" width="4.3" height="15.6"/>
            </g>
          </g>
          <g>
            <rect class="st58" x="317.6" y="404.7" width="74.6" height="15.6"/>
            <g>
              <rect class="st42" x="326" y="404.7" width="4.3" height="15.6"/>
              <rect class="st42" x="339.9" y="404.7" width="4.3" height="15.6"/>
              <rect class="st42" x="353.8" y="404.7" width="4.3" height="15.6"/>
              <rect class="st42" x="367.8" y="404.7" width="4.3" height="15.6"/>
              <rect class="st42" x="381.7" y="404.7" width="4.3" height="15.6"/>
            </g>
          </g>
          <g>
            <rect class="st58" x="323.3" y="420.3" width="74.6" height="15.6"/>
            <g>
              <rect class="st42" x="331.6" y="420.3" width="4.3" height="15.6"/>
              <rect class="st42" x="345.6" y="420.3" width="4.3" height="15.6"/>
              <rect class="st42" x="359.5" y="420.3" width="4.3" height="15.6"/>
              <rect class="st42" x="373.4" y="420.3" width="4.3" height="15.6"/>
              <rect class="st42" x="387.4" y="420.3" width="4.3" height="15.6"/>
            </g>
          </g>
          <g>
            <rect class="st58" x="314.1" y="435.8" width="74.6" height="15.6"/>
            <g>
              <rect class="st42" x="322.4" y="435.8" width="4.3" height="15.6"/>
              <rect class="st42" x="336.4" y="435.8" width="4.3" height="15.6"/>
              <rect class="st42" x="350.3" y="435.8" width="4.3" height="15.6"/>
              <rect class="st42" x="364.2" y="435.8" width="4.3" height="15.6"/>
              <rect class="st42" x="378.2" y="435.8" width="4.3" height="15.6"/>
            </g>
          </g>
          <g>
            <rect class="st58" x="310.4" y="358" width="74.6" height="15.6"/>
            <g>
              <rect class="st42" x="318.8" y="358" width="4.3" height="15.6"/>
              <rect class="st42" x="332.7" y="358" width="4.3" height="15.6"/>
              <rect class="st42" x="346.7" y="358" width="4.3" height="15.6"/>
              <rect class="st42" x="360.6" y="358" width="4.3" height="15.6"/>
              <rect class="st42" x="374.5" y="358" width="4.3" height="15.6"/>
            </g>
          </g>
          <line class="st13" x1="316.5" y1="373.6" x2="385.1" y2="373.6"/>
          <line class="st13" x1="323.6" y1="358.2" x2="363.8" y2="358.2"/>
          <line class="st13" x1="321.3" y1="389.2" x2="391.2" y2="389.2"/>
          <line class="st13" x1="392.2" y1="404.7" x2="321.3" y2="404.7"/>
          <line class="st13" x1="392.2" y1="420.3" x2="323.3" y2="420.3"/>
          <line class="st13" x1="323.3" y1="435.9" x2="388.7" y2="435.9"/>
        </g>
        <g>
          <path class="st58" d="M284.8,185.5l10-8.4,55.8,59.6-10,8.4c-15.4,12.9-40.4,10.1-55.8-6.3-15.4-16.5-15.4-40.3,0-53.2Z"/>
          <g class="st43">
            <path class="st67" d="M261.6,210.5l32.3-27.2,2.8,3-32.3,27.2-2.8-3ZM265.5,229.2l32.3-27.2-2.8-3-32.3,27.2,2.8,3ZM266.6,244.9l32.3-27.2-2.8-3-32.3,27.2,2.8,3ZM309.6,261.8l32.3-27.2-2.8-3-32.3,27.2,2.8,3ZM293.3,258.9l32.3-27.2-2.8-3-32.3,27.2,2.8,3ZM277,256l32.3-27.2-2.8-3-32.3,27.2,2.8,3Z"/>
          </g>
          <path class="st50" d="M292,232.7c15.4,16.5,40.4,19.3,55.8,6.3,15.4-12.9,15.4-36.8,0-53.2-15.4-16.5-40.4-19.3-55.8-6.3-15.4,12.9-15.4,36.8,0,53.2Z"/>
          <path class="st13" d="M284.9,187.8c-7.8,13.3-5.5,31.6,7,44.9,15.4,16.5,40.4,19.3,55.8,6.3"/>
          <path class="st58" d="M300.6,225.5c12,12.8,30.8,15.4,42.1,5.9,11.3-9.5,10.8-27.6-1.2-40.3-12-12.8-30.8-15.4-42.1-5.9-11.3,9.5-10.8,27.6,1.2,40.3Z"/>
          <path class="st13" d="M349.6,221.2c3.1-9.4.4-21.1-8.1-30.2-12-12.8-30.8-15.4-42.1-5.9"/>
          <path class="st55" d="M332.1,219.6c-1.8,1.6-3.8,2.8-6,3.8-2.2,1-4.1,1.5-5.9,1.6l-1.8-5.4c1.6-.1,3.3-.6,5.1-1.3,1.8-.7,3.4-1.6,4.7-2.8,1.1-.9,1.8-1.7,2.3-2.5.4-.8.7-1.4.6-2,0-.6-.2-1.1-.7-1.6-.6-.6-1.2-.9-2.1-.8-.8,0-1.7.3-2.7.8-1,.5-2.1,1-3.2,1.6-1.1.6-2.3,1.1-3.5,1.7-1.2.5-2.5.9-3.7,1.1-1.2.2-2.5.1-3.7-.3-1.2-.4-2.3-1.1-3.4-2.3-1.2-1.3-1.9-2.7-2.2-4.4-.3-1.6,0-3.4.9-5.2.9-1.8,2.4-3.7,4.5-5.5,1.5-1.2,3-2.3,4.8-3.1,1.7-.9,3.4-1.4,5.1-1.7l2,5.3c-1.6.3-3,.8-4.4,1.4-1.4.6-2.6,1.4-3.6,2.2-1.1.9-1.8,1.7-2.2,2.5-.4.8-.6,1.5-.6,2.1,0,.6.3,1.2.7,1.6.6.6,1.2.9,2.1.8.8,0,1.7-.3,2.7-.8,1-.5,2-1,3.2-1.6,1.2-.6,2.3-1.2,3.6-1.7,1.2-.5,2.4-.8,3.7-1.1,1.2-.2,2.4-.1,3.7.2,1.2.4,2.4,1.1,3.4,2.3,1.2,1.3,1.9,2.7,2.1,4.3.3,1.6,0,3.4-.9,5.2-.9,1.9-2.4,3.7-4.6,5.5ZM334.1,224l-28-29.9,3.3-2.8,28,29.9-3.3,2.8Z"/>
          <path class="st13" d="M292.9,194.3c-3.2,6.6-2.3,14.1,0,19.9"/>
        </g>
        <g>
          <path class="st22" d="M365.1,168.9c0-3.6-3.3-6.4-7.3-6.4,4,0,7.3-2.9,7.3-6.4s-3.3-6.4-7.3-6.4h-91.2c-4,0-7.3,2.9-7.3,6.4s3.3,6.4,7.3,6.4c-4,0-7.3,2.9-7.3,6.4s3.3,6.4,7.3,6.4c-4,0-7.3,2.9-7.3,6.4s3.3,6.4,7.3,6.4h91.2c4,0,7.3-2.9,7.3-6.4s-3.3-6.4-7.3-6.4c4,0,7.3-2.9,7.3-6.4Z"/>
          <line class="st25" x1="261.6" y1="162.5" x2="337.2" y2="162.5"/>
          <line class="st25" x1="346.1" y1="162.5" x2="362.3" y2="162.5"/>
          <line class="st25" x1="362.3" y1="175.4" x2="261.6" y2="175.4"/>
        </g>
        <g>
          <g>
            <rect class="st50" x="282.9" y="435.1" width="74.6" height="16.3"/>
            <g>
              <rect class="st56" x="291.2" y="435.1" width="4.3" height="16.3"/>
              <rect class="st56" x="305.1" y="435.1" width="4.3" height="16.3"/>
              <rect class="st56" x="319.1" y="435.1" width="4.3" height="16.3"/>
              <rect class="st56" x="333" y="435.1" width="4.3" height="16.3"/>
              <rect class="st56" x="347" y="435.1" width="4.3" height="16.3"/>
            </g>
          </g>
          <g>
            <rect class="st50" x="292.3" y="386.4" width="74.6" height="16.3"/>
            <g>
              <rect class="st56" x="300.7" y="386.4" width="4.3" height="16.3"/>
              <rect class="st56" x="314.6" y="386.4" width="4.3" height="16.3"/>
              <rect class="st56" x="328.5" y="386.4" width="4.3" height="16.3"/>
              <rect class="st56" x="342.5" y="386.4" width="4.3" height="16.3"/>
              <rect class="st56" x="356.4" y="386.4" width="4.3" height="16.3"/>
            </g>
          </g>
          <g>
            <rect class="st57" x="281.2" y="402.7" width="74.6" height="16.3"/>
            <g>
              <rect class="st56" x="289.5" y="402.7" width="4.3" height="16.3"/>
              <rect class="st56" x="303.4" y="402.7" width="4.3" height="16.3"/>
              <rect class="st56" x="317.4" y="402.7" width="4.3" height="16.3"/>
              <rect class="st56" x="331.3" y="402.7" width="4.3" height="16.3"/>
              <rect class="st56" x="345.3" y="402.7" width="4.3" height="16.3"/>
            </g>
          </g>
          <g>
            <rect class="st50" x="276.8" y="418.8" width="74.6" height="16.3"/>
            <g>
              <rect class="st56" x="285.1" y="418.8" width="4.3" height="16.3"/>
              <rect class="st56" x="299.1" y="418.8" width="4.3" height="16.3"/>
              <rect class="st56" x="313" y="418.8" width="4.3" height="16.3"/>
              <rect class="st56" x="326.9" y="418.8" width="4.3" height="16.3"/>
              <rect class="st56" x="340.9" y="418.8" width="4.3" height="16.3"/>
            </g>
          </g>
          <line class="st13" x1="282.9" y1="435.1" x2="351.4" y2="435.1"/>
          <line class="st13" x1="281.2" y1="418.1" x2="351.4" y2="418.1"/>
          <line class="st13" x1="291.7" y1="402.7" x2="355.8" y2="402.7"/>
          <g>
            <path class="st58" d="M286.6,378.4l-13-5.3-29.6,72.3,13,5.3c15.2,6.2,34.1-4.9,42.3-24.9,8.2-20,2.5-41.2-12.7-47.4Z"/>
            <g class="st70">
              <path class="st67" d="M309.3,396.3l-31.9-13.1,1.5-3.6,31.9,13.1-1.5,3.6ZM313.7,407l-31.9-13.1-1.5,3.6,31.9,13.1,1.5-3.6ZM316.6,421.4l-31.9-13.1-1.5,3.6,31.9,13.1,1.5-3.6ZM286.8,451.3l-31.9-13.1-1.5,3.6,31.9,13.1,1.5-3.6ZM298.9,443.1l-31.9-13.1-1.5,3.6,31.9,13.1,1.5-3.6ZM311,434.9l-31.9-13.1-1.5,3.6,31.9,13.1,1.5-3.6Z"/>
            </g>
            <ellipse class="st50" cx="259.1" cy="409.4" rx="39.1" ry="32.3" transform="translate(-217.9 493.9) rotate(-67.7)"/>
            <path class="st4" d="M273.9,373.2c16.5,6.8,23.3,28.4,15.1,48.4-8.2,20-28.2,30.7-44.7,23.9"/>
            <ellipse class="st58" cx="257.9" cy="408.8" rx="30.3" ry="23.7" transform="translate(-218.2 492.4) rotate(-67.7)"/>
            <path class="st4" d="M233.6,408.1c.5-2.7,1.2-5.5,2.4-8.3,6.3-15.5,21.3-24,33.4-19.1"/>
            <path class="st79" d="M251.5,422.6c-2-.8-3.8-1.9-5.3-3.2-1.6-1.3-2.7-2.7-3.5-4.1l3.9-3.9c.7,1.2,1.7,2.4,2.9,3.6,1.2,1.1,2.6,2,4.1,2.6,1.1.5,2.1.7,2.9.7.8,0,1.4-.1,2-.4.5-.3.9-.7,1.1-1.3.3-.7.3-1.4,0-2-.3-.6-.9-1.3-1.6-1.9-.7-.6-1.6-1.3-2.5-1.9-.9-.7-1.8-1.4-2.7-2.1-.9-.8-1.6-1.6-2.3-2.5-.6-.9-1-2-1.1-3.1-.1-1.1.1-2.4.7-3.8.6-1.5,1.6-2.8,2.9-3.8,1.3-1,2.8-1.5,4.7-1.6,1.9-.1,3.9.3,6.3,1.2,1.6.6,3,1.5,4.4,2.5,1.3,1,2.4,2.2,3.2,3.4l-3.7,4c-.8-1.1-1.7-2.1-2.8-3-1-.8-2.1-1.5-3.2-1.9-1.1-.5-2.1-.7-2.9-.7-.8,0-1.4.2-2,.5-.5.3-.9.8-1.1,1.3-.3.7-.3,1.4,0,2.1.3.7.9,1.3,1.6,1.9.7.6,1.6,1.2,2.5,1.9.9.7,1.8,1.4,2.7,2.2.9.8,1.6,1.6,2.2,2.5.6.9,1,1.9,1.1,3.1.1,1.2,0,2.4-.6,3.8-.6,1.5-1.6,2.8-2.9,3.7-1.3.9-2.9,1.5-4.7,1.6-1.9.1-4-.3-6.3-1.2ZM248.5,426.2l14.9-36.3,3.6,1.5-14.9,36.3-3.6-1.5Z"/>
            <path class="st4" d="M277.3,387c4.5,5,5.9,12,5.6,18.1"/>
            <path class="st4" d="M283.1,446.6c6.7-4.6,12.5-11.8,16.2-20.8,5.9-14.4,4.6-29.5-2.3-39.1"/>
          </g>
        </g>
      </g>
      <g>
        <polygon class="st36" points="488.4 25.9 308.4 452.5 285.2 452.5 465.3 25.9 488.4 25.9"/>
        <path class="st35" d="M509.1,42.1l-47.6,397.6c-.9,7.3-7.1,12.8-14.4,12.8h-138.7L488.4,25.9h6.3c8.7,0,15.4,7.6,14.4,16.2Z"/>
        <line class="st26" x1="415.6" y1="279.9" x2="349.8" y2="435.2"/>
      </g>
      <g>
        <g>
          <g>
            <path class="st0" d="M139.5,341.4l-.7,17.3h27.3c.2,0,.1-18.5.1-18.5"/>
            <g>
              <path class="st53" d="M167.2,354.8h-29.1l-2.3,15.7h48.8c.5-11.2-14-9.2-17.5-15.7Z"/>
              <line class="st3" x1="136.2" y1="367.5" x2="184.3" y2="367.5"/>
              <path class="st3" d="M137.2,360.7s7.7.4,10.5,6.8"/>
              <path class="st3" d="M177.2,361s-4.6,1.8-6.6,6.5"/>
              <line class="st3" x1="169" y1="356.9" x2="164.8" y2="360.4"/>
              <line class="st3" x1="171.6" y1="358.4" x2="167.4" y2="361.9"/>
            </g>
          </g>
          <g>
            <path class="st0" d="M155.2,333.8l-3.6,16.9s26.7,4.5,26.9,4.6c.2,0,3.2-18.2,3.2-18.2"/>
            <g>
              <path class="st54" d="M180.2,351.7l-28.7-4.9-4.9,15.1,48.2,8.2c2.4-11-12.2-11.4-14.6-18.4Z"/>
              <line class="st3" x1="147.6" y1="359.1" x2="195" y2="367.1"/>
              <path class="st3" d="M149.7,352.5s7.5,1.7,9.2,8.5"/>
              <path class="st3" d="M189.1,359.6s-4.9,1-7.6,5.3"/>
              <line class="st3" x1="181.7" y1="354.1" x2="176.9" y2="356.8"/>
              <line class="st3" x1="184" y1="356" x2="179.3" y2="358.8"/>
            </g>
          </g>
          <line class="st4" x1="139.3" y1="334.2" x2="175.4" y2="334.2"/>
          <path class="st16" d="M197.1,262.9c-3.2-9.7-10.6-35.4-10.6-35.4l-.3-11.7-18.5-1.9.2-7.3-33.6,2.2s-5.4,13.8-4.6,18.9c.9,5.1,2.2,14.4,2.2,14.4l9.1,53.6-2.3,52.6h35s0-.2,0-.7l13.7,3.2s8.3-38.5,11.6-52.5c3.3-14,1.4-25.9-1.8-35.6Z"/>
          <path class="st4" d="M178.8,214.1l.3,11.7s7.4,25.6,10.6,35.4c3.2,9.7,5.1,21.6,1.8,35.6-3.3,14-11.6,52.5-11.6,52.5"/>
          <line class="st4" x1="190" y1="338.6" x2="155.5" y2="330.8"/>
          <path class="st4" d="M152.8,342.9s13.2-58.4,13.2-59.5-12.6-40.3-14.1-42.1c-1.4-1.8-4.4-5.9-5.2-15.8"/>
          <path class="st4" d="M155,224.2l15.2,2.8v8.5s-6.5,2.8-8.4,2.7c-1.9-.1-6.8-5.5-6.8-5.5v-8.5Z"/>
          <path class="st4" d="M130,222.8l10,.6s.7,7.4,0,7.8c-.7.5-5.5,2.7-6,2.7s-3.6-2.2-3.6-2.2"/>
          <line class="st4" x1="155" y1="226.8" x2="170.2" y2="229.9"/>
          <line class="st4" x1="129.7" y1="225.6" x2="140.2" y2="226.4"/>
        </g>
        <g>
          <g>
            <path class="st0" d="M186.8,199.7c-.2,0-.5-.2-.6-.4l-12.7-22.1c-.2-.3-.1-.7.2-1l27.7-22.6c2.3-2.7,4-6.4,5.7-10.1,2-4.4,4.2-8.9,7.4-12,.7-.7,2.1-.8,2.8-.8s.3,0,.3,0c.2,0,.4.1.6.3.1.2.2.4.1.6,0,0-.9,3.1-1.1,4.6,0,.7,0,2.3.2,3.7.5-.6,1.1-1.3,1.9-2.3.7-.9,1.9-1.8,3.1-1.8s1,.2,1.4.6c.7.7.3,1.7-.5,3.6-.9,2.1-2.4,5.6-3.3,11-.1.7-.2,1.3-.3,1.9-.4,3-.7,5.3-3.5,9.4l-28.7,36.9c-.1.2-.4.3-.6.3s0,0,0,0Z"/>
            <path class="st60" d="M217.2,131.5c.1,0,.2,0,.2,0,0,0-1,3.1-1.1,4.7-.2,1.4.4,5.8.4,5.8,0,0,.6-1,3-3.8.7-.8,1.7-1.5,2.5-1.5s.6.1.8.3c.9.9-2.5,4.5-4,13.9-.6,3.9-.4,6.2-3.6,11.1l-28.6,36.9-12.7-22.1,27.8-22.6c5.2-6.1,7.3-16.4,13.1-22,.6-.5,1.8-.6,2.3-.6M217.2,130c-1,0-2.4.2-3.3,1-3.3,3.2-5.4,7.8-7.5,12.2-1.7,3.7-3.4,7.2-5.6,9.8l-27.7,22.5c-.6.5-.7,1.3-.4,1.9l12.7,22.1c.2.4.7.7,1.2.7,0,0,0,0,.1,0,.5,0,.9-.2,1.2-.6l28.6-36.9s0,0,0,0c2.9-4.3,3.2-6.8,3.6-9.7,0-.6.2-1.2.3-1.9.9-5.3,2.4-8.8,3.2-10.8.8-1.9,1.4-3.3.4-4.4-.5-.5-1.2-.8-1.9-.8-1.7,0-3.2,1.6-3.6,2-.3.3-.5.6-.8.9,0-.7,0-1.4,0-1.7.1-1.2.8-3.6,1.1-4.5.1-.4,0-.9-.2-1.3s-.7-.6-1.1-.6c0,0-.1,0-.3,0h0Z"/>
          </g>
          <path class="st4" d="M217.5,132.2c-1,2.3-1.4,4.9-1.2,7.4,0,1.3.5,2.4.7,3.6.2,1.1.2,2.3.3,3.4"/>
        </g>
        <g>
          <path class="st68" d="M273.5,110.4l-9.9-6.4-42.2,65.5,9.9,6.4c11.6,7.5,30.4-1.2,42-19.2,11.7-18.1,11.7-38.8.2-46.2Z"/>
          <g class="st52">
            <path class="st31" d="M288.8,129.7l-24.3-15.6,2.1-3.3,24.3,15.6-2.1,3.3ZM290,140.3l-24.3-15.6-2.1,3.3,24.3,15.6,2.1-3.3ZM289.2,154.2l-24.3-15.6-2.1,3.3,24.3,15.6,2.1-3.3ZM256.7,179.5l-24.3-15.6-2.1,3.3,24.3,15.6,2.1-3.3ZM269,172.9l-24.3-15.6-2.1,3.3,24.3,15.6,2.1-3.3ZM281.3,166.4l-24.3-15.6-2.1,3.3,24.3,15.6,2.1-3.3Z"/>
          </g>
          <ellipse class="st63" cx="242.7" cy="136.9" rx="39" ry="24.9" transform="translate(-3.9 266.7) rotate(-57.2)"/>
          <path class="st23" d="M263.8,104.2c11.6,7.5,11.5,28.2-.2,46.2-11.7,18.1-30.5,26.7-42,19.2"/>
          <ellipse class="st68" cx="241.9" cy="136.3" rx="30.2" ry="18.3" transform="translate(-3.8 265.7) rotate(-57.2)"/>
          <path class="st4" d="M236.1,115.6c7.7-6.3,16.3-8.4,22.1-4.6"/>
          <path class="st46" d="M233.2,148.7c-1.4-.9-2.5-2-3.5-3.4-.9-1.3-1.5-2.7-1.8-4l4.1-3.4c.2,1.2.7,2.4,1.4,3.5.7,1.1,1.6,2,2.6,2.7.8.5,1.5.8,2.1.9.6,0,1.2,0,1.7-.2.5-.2.9-.6,1.2-1.1.4-.7.6-1.3.5-1.9-.1-.6-.4-1.2-.8-1.9s-.9-1.3-1.5-2c-.6-.7-1.1-1.4-1.6-2.2-.5-.8-.9-1.6-1.2-2.5-.3-.9-.3-1.9-.1-3,.2-1.1.7-2.3,1.5-3.5.9-1.4,2-2.5,3.3-3.3,1.3-.8,2.7-1.2,4.2-1.2,1.5,0,3.1.5,4.7,1.6,1.1.7,2,1.6,2.9,2.6.8,1.1,1.4,2.2,1.7,3.4l-4,3.5c-.4-1.1-.9-2.1-1.5-3-.6-.8-1.3-1.5-2.1-2-.8-.5-1.5-.8-2.1-.9-.6,0-1.2,0-1.7.3-.5.3-.9.7-1.2,1.2-.4.7-.6,1.3-.5,1.9.1.6.4,1.2.8,1.9.4.6,1,1.3,1.6,1.9.6.7,1.1,1.4,1.6,2.2.5.8.9,1.6,1.2,2.5.3.9.3,1.9.1,3-.2,1.1-.7,2.3-1.5,3.5-.9,1.4-2,2.5-3.2,3.3-1.3.8-2.7,1.2-4.2,1.2-1.5,0-3.1-.5-4.8-1.6ZM229.9,151.9l21.2-32.9,2.5,1.6-21.2,32.9-2.5-1.6Z"/>
          <path class="st4" d="M263.1,117.3c2.4,5,1.7,11.6-.1,17.3"/>
        </g>
        <g>
          <path class="st1" d="M255.7,163.7c-.2.2-.4.4-.7.4.7-1.4,1.3-3.5.8-5,0-.1,0-.2-.2-.2-.1,0-.2,0-.3,0-.4.2-.8.5-1.2.8.4-1,.7-2.2.6-3.3,0-.2,0-.4-.2-.5-.4-.6-2.9.9-3.3,1.3.3-.3.5-.7.4-1.1,0-.4-.6-.6-1-.6-.4,0-.8.3-1.1.5-1.5,1-2.9,2.2-4.4,3.1-1.5,1-3.2,1.8-5,2,.4-.6.7-1.2.9-1.9.2-.6,0-1.8-.5-1.8-.2,0-.3.1-.5.2-1.3.9-2.6,1.8-3.8,2.7-2,1.4-3.8,3.1-5,5.2-.6,1.1-1.4,2.3-2.3,3.1l-15.2,8.8-8.2-11.4-18,11s8.3,12.6,14.3,19.5c6,6.9,12.7,6.5,18.4,3.2,5.2-3.1,12.2-9.9,17.3-15.3h0c1.3-1.4,2.8-2.6,4.1-4.1,1.1-1.2,2.4-2.1,3.7-3.2,2.9-2.3,5.6-4.9,7.9-7.8,1-1.2,2-2.5,2.7-3.9.3-.6.6-1.2.7-1.9,0-.6-.5-.7-.9-.4Z"/>
          <line class="st4" x1="213.7" y1="177.8" x2="206.9" y2="182.4"/>
          <path class="st4" d="M228,170.2c.7-.6,1.2-1.3,1.7-2.1"/>
          <path class="st4" d="M241.8,164.4c4-1.9,7.6-4.6,10.5-7.9"/>
          <path class="st4" d="M245.8,168.1c3.4-2.3,6.4-5.3,8.7-8.7"/>
          <path class="st4" d="M249,171c2.9-2,5.2-4.8,6.8-7.9"/>
        </g>
        <path class="st21" d="M212,175.1s-8.8-14.2-10.9-16.9c-2.1-2.7-4.5-5.3-7.5-7.1-1.1-.7-2.2-1.2-3.4-1.6l-6.8-7.8-2.1-2.6c-3,.8-5.5,2.8-8.1,4.5-22.2,14.3-43.6,67.8-43.6,67.8l58.5,16.7s6-24.3,9-39.9l14.9-13Z"/>
        <g>
          <polyline class="st14" points="201.1 458.9 189.2 370.6 127.7 370.6 115.8 458.9"/>
          <line class="st14" x1="125.2" y1="389.8" x2="191.8" y2="389.8"/>
          <line class="st14" x1="121.8" y1="415.7" x2="195.2" y2="415.7"/>
          <line class="st14" x1="117.8" y1="441.5" x2="199.1" y2="441.5"/>
        </g>
        <g>
          <line class="st4" x1="132.1" y1="205.6" x2="189.6" y2="222.1"/>
          <path class="st4" d="M162.1,195.9c3.8,4.3,7.8,8.4,11.9,12.4"/>
          <path class="st4" d="M172.3,201c2.3,1.4,4.8,2.6,7.3,3.6"/>
          <g>
            <path class="st0" d="M193.1,152.1c-.5,0-13.5-1.7-18.2-9.2-.2-.2-.2-.5,0-.8l6-9.8c-.4-1.9-2.1-11.6,2.2-17,2.9-3.6,7.5-5.9,12.3-6,.2,0,.3,0,.5,0,3.8,0,7.7,1.3,10.6,3.4.4.3.7.6,1.1.9,2,2,3.2,5.1,3.3,8.7.2,3.7,0,7.5-.7,11,.2,1.3.4,3.2.2,4.1-.1.7-.7,1.1-1.6,1.2,0,.2-.2.5-.2.7-1,2.7-2.8,6.1-5.5,7.2-.8.3-1.7.5-2.6.5s-2.5-.3-3.6-.8l-3.1,5.5c-.1.2-.4.4-.7.4s0,0,0,0Z"/>
            <path class="st60" d="M196,110c3.5,0,7.3,1.2,10.1,3.3.3.3.7.6,1,.9,2.1,2.1,3,5.3,3.1,8.2.2,3.5,0,7.3-.7,10.9.2,1.3.4,3.2.2,4,0,.4-.5.6-.9.6s-.3,0-.4,0c-.1.4-.3.8-.4,1.2-1,2.5-2.6,5.8-5.1,6.8-.7.3-1.5.4-2.3.4-1.5,0-2.9-.5-3.9-1.1l-3.4,6.2s-13.1-1.6-17.7-8.9l6.2-10.1s-2.5-11.1,2-16.7c2.8-3.5,7.3-5.6,11.8-5.7.1,0,.3,0,.4,0M196,108.5c-.2,0-.3,0-.5,0-5,.1-9.8,2.5-12.9,6.3-4.3,5.4-2.9,14.9-2.4,17.4l-5.9,9.6c-.3.5-.3,1.1,0,1.6,4.9,7.8,18.2,9.5,18.8,9.6,0,0,.1,0,.2,0,.5,0,1-.3,1.3-.8l2.7-4.9c1,.4,2.1.6,3.2.6s2-.2,2.9-.6c2.4-1,4.4-3.6,6-7.7,0,0,0-.2,0-.3.9-.2,1.6-.8,1.8-1.7.2-1,0-3-.2-4.3.6-3.5.8-7.3.7-11-.2-3.8-1.5-7-3.6-9.2-.4-.4-.7-.7-1.1-1-3-2.3-7.1-3.6-11-3.6h0Z"/>
          </g>
          <g>
            <path class="st32" d="M199.4,127.5c0-.2,3-.8,3.4-.9,1.4-.2,2.8-.4,4.1-.9,3.8-1.2,6.1-4.1,6-8.2,0-1.6-.4-3.3-1.6-4.3-.7-.6-1.6-.9-2-1.6-.4-.6-.3-1.4-.5-2.1-.3-1.1-1.2-2-2.2-2.5-1-.5-2.2-.6-3.3-.7-1.3,0-2.7,0-3.9.5-.6.2-1.2.5-1.8.7-2.5.7-5.1-.5-7.6-.4-2.2,0-4.5,1.4-5.5,3.4-.4.8-.7,1.7-1.3,2.3-.4.4-.9.5-1.4.8-2.2,1.2-2.8,4.1-2.9,6.6-.2,5.4,1.1,10.8.6,16.2,3.3,1.5,6.7,2.7,10.1,3.7.4,0,.7.2,1.1.2.4,0,.7-.2,1-.4,1.8-1.1,3.6-1.9,4.3-3.9-5.3-4.5-1.7-13.8,3.4-8.4Z"/>
            <path class="st4" d="M196.7,145.2s-.9-.7-1.5-2"/>
            <path class="st4" d="M197.4,129c.7,1.5,1.2,3.2,1.5,4.8"/>
            <path class="st4" d="M195.6,135.5c0,.3.3.5.5.7.8.5,2,.4,2.7-.3"/>
            <path class="st4" d="M199.6,127.8c.5.7.8,1.5.9,2.4"/>
            <path class="st60" d="M209.2,131.2c-.1.8-.6,1.3-1.1,1.2-.5,0-.7-.8-.6-1.5.1-.8.6-1.3,1.1-1.2.5,0,.7.8.6,1.5Z"/>
            <path class="st4" d="M206.6,127c.4-.3.9-.4,1.3-.6.5-.1,1,0,1.4.3.3.2.6.6.8.9"/>
            <path class="st4" d="M206.3,138.1c-.5.4-.8,1.4-.4,1.9.2.2.4.3.7.4"/>
          </g>
        </g>
        <g>
          <line class="st4" x1="193.2" y1="191.6" x2="181.4" y2="174.2"/>
          <line class="st4" x1="188.6" y1="184.9" x2="208.1" y2="168.8"/>
        </g>
      </g>
      <g>
        <g>
          <path class="st61" d="M481.1,174.3l-56.9,16.4c5,34.4,16.6,67.9,34,98l56.9-16.4c-17.4-30.1-29-63.6-34-98Z"/>
          <path class="st23" d="M501.3,245c-9.9-22.5-16.7-46.4-20.2-70.7"/>
          <path class="st4" d="M431.7,225.7c6.2,22,15.1,43.3,26.6,63.1l56.9-16.4"/>
          <path class="st23" d="M429.2,216.2c-2-8.4-3.7-16.9-4.9-25.5l16.7-4.8"/>
          <path class="st17" d="M458.6,281c-14.1-25.8-24.2-54.8-29.2-83.8l-.3-1.9c-.2-1,.4-1.9,1.4-2.2l45.2-13c1.1-.3,2.3.4,2.5,1.5l.4,2.3c5,28.1,14.8,56.2,28.1,81.4l1.2,2.3c.6,1.1,0,2.4-1.2,2.8l-45,13c-.9.3-1.8-.1-2.3-.9l-.8-1.5Z"/>
          <path class="st76" d="M462.2,279.1c-14-25.6-23.8-53.8-28.8-82.5l41.1-11.9c5.1,28.7,14.9,56.9,28.5,82.6l-40.8,11.8Z"/>
          <ellipse class="st61" cx="466" cy="230.1" rx="16.9" ry="15.2" transform="translate(-44.4 132.1) rotate(-15.4)"/>
          <ellipse class="st15" cx="466" cy="230.1" rx="13.9" ry="12.5" transform="translate(-44.4 132.1) rotate(-15.4)"/>
          <path class="st61" d="M459.4,209.7c-4.4,1.2-8.8-1-9.9-5-1.1-3.9,1.6-8.1,6-9.3,4.4-1.2,8.8,1,9.9,5,1.1,3.9-1.6,8.1-6,9.3Z"/>
          <path class="st73" d="M458.8,207.6c-3.1.9-6.3-.7-7-3.5-.8-2.8,1.1-5.8,4.2-6.6,3.1-.9,6.3.7,7,3.5.8,2.8-1.1,5.8-4.2,6.6Z"/>
          <path class="st61" d="M478,266.7c-4.4,1.2-8.8-1-9.9-5-1.1-3.9,1.6-8.1,6-9.3,4.4-1.2,8.8,1,9.9,5,1.1,3.9-1.6,8.1-6,9.3Z"/>
          <path class="st73" d="M477.4,264.7c-3.1.9-6.3-.7-7-3.5-.8-2.8,1.1-5.8,4.2-6.6,3.1-.9,6.3.7,7,3.5.8,2.8-1.1,5.8-4.2,6.6Z"/>
          <path class="st69" d="M457.7,231.9c-.4-1.3-.5-2.6-.5-4,0-1.3.2-2.4.5-3.3l3.1.5c-.3.8-.5,1.8-.5,2.8,0,1.1,0,2.1.4,3.1.2.8.5,1.3.7,1.8.3.4.6.7.9.9.3.2.6.2,1,0,.4-.1.7-.4.9-.8.2-.4.2-.9.2-1.5,0-.6,0-1.3,0-2,0-.7,0-1.4,0-2.2,0-.7.1-1.4.3-2.1.2-.7.5-1.2.9-1.7.5-.5,1.1-.8,1.9-1.1.9-.2,1.8-.2,2.7,0,.9.3,1.7.9,2.4,1.8.7.9,1.3,2.1,1.7,3.7.3,1,.4,2.1.5,3.2,0,1.1,0,2.1-.3,2.9l-3.1-.4c.2-.9.3-1.7.3-2.5,0-.8-.1-1.6-.3-2.4-.2-.8-.5-1.3-.7-1.8-.3-.4-.6-.7-.9-.8-.3-.1-.7-.2-1,0-.4.1-.7.4-.9.8-.2.4-.2.9-.2,1.5,0,.6,0,1.3,0,2,0,.7,0,1.5,0,2.2,0,.7-.1,1.4-.3,2.1-.2.7-.5,1.2-.9,1.7-.4.5-1.1.9-1.9,1.1-.9.2-1.8.2-2.6-.1-.9-.3-1.7-.9-2.4-1.8-.7-.9-1.3-2.2-1.7-3.7ZM455,231.7l21.1-5.8.7,2.4-21.1,5.8-.7-2.4Z"/>
        </g>
        <g>
          <path class="st48" d="M498.8,238.2c-.2,0-.4,0-.6-.3-.1-.2-.2-.4-.2-.6l1-7.2c-3.2-1.1-4.7-3.3-4.7-6.6,0-1.6.2-3.4.6-5.4-.8-.6-1.5-1.3-1.1-2.1.2-.5.6-.9.9-1.2.4-.4.7-.8,1.1-1.2l.3-.3c.3-1.2.7-2.3,1-3.3,1.3-4.4,3.5-7,6.9-8.3,1.1-.4,2.3-.7,3.5-.7,3.9,0,7.6,2.3,9.4,5.7,1.6,3,1.9,6.8.9,10.7.1.3.2.7.2,1.1h.2c0,0,.1,0,.2,0,.1,0,.3,0,.4.1.2.1.3.3.3.6l.9,9.8,1.4,8.4c0,.2,0,.4-.2.6-.1.2-.4.3-.6.3h-21.8Z"/>
          <path class="st64" d="M507.4,201.9c3.6,0,7,2.1,8.8,5.3,1.6,3.1,1.8,6.9.8,10.3.2.7.3,1.4.2,2.1l1.2-.4.9,9.8,1.4,8.4h-21.8l1-7.8c-3.4-.9-4.8-3-4.8-6.1,0-1.9.3-3.8.7-5.7-.6-.5-1.4-1.1-1.3-1.5.2-.4.4-.7.7-1,.5-.5,1-1,1.5-1.6.4-1.3.7-2.5,1-3.5,1.1-3.8,3-6.5,6.4-7.8,1.1-.4,2.2-.6,3.2-.6M507.4,200.4v1.5s0-1.5,0-1.5c-1.3,0-2.6.2-3.8.7-3.6,1.4-5.9,4.2-7.3,8.8-.3.9-.6,2-.9,3.2l-.2.2c-.4.4-.8.8-1.1,1.2-.3.3-.8.8-1,1.5-.5,1.1.3,2.1,1,2.7-.3,1.9-.5,3.5-.5,5,0,3.4,1.5,5.8,4.6,7.1l-.9,6.6c0,.4,0,.9.4,1.2s.7.5,1.1.5h21.8c.4,0,.9-.2,1.1-.5.3-.3.4-.8.3-1.2l-1.4-8.4-.9-9.7c0-.4-.3-.9-.7-1.1-.2-.1-.4-.2-.6-.2,0,0,0-.2,0-.3,1-4,.6-7.8-1-11-2-3.7-5.9-6.1-10.1-6.1h0Z"/>
        </g>
        <g>
          <path class="st4" d="M505.6,212.7c.3-1.9-1.7-3.6-3.1-3.8"/>
          <path class="st60" d="M500.8,213.1c-.3.6-.1,1.3.3,1.5.4.2,1-.1,1.3-.7.3-.6.1-1.3-.3-1.5-.4-.2-1,.1-1.3.7Z"/>
          <path class="st32" d="M514.8,216l.6,10.2c0,.9.6,1.6,1.3,1.9l2.6,1c1-1.3,2.1-2.7,3.4-3.6.4-.3.9-.4,1.3-.7,1-.9,1.6-2.4,2.3-3.6,1.4-2.3,3.6-4.9,3.5-7.8,0-1.2-.5-2.4-1-3.5-1.4-3-3.2-5.8-5.4-8.2-1.1-1.2-2.3-2.1-3.2-3.4-.9-1.3-1.6-2.8-2.7-3.8-1.8-1.6-4.5-1.8-6.8-1-1.7.6-3.5,1.9-5.2,1.2-.8-.3-1.4-1-2.2-1.4-.8-.4-1.8-.5-2.8-.4-1.2,0-2.4.3-3.3,1.1-1.1,1.1-1.3,2.9-1.2,4.4.1,2.1.9,3.7,1.5,5.6.1.3,1.5,3.3,1.7,3,0,0,3.2-3.9,6.5-2.7,3.3,1.1,2.2,9.4,9.1,11.8Z"/>
          <path class="st4" d="M507,229.4s-4.1,1.7-7.1.6"/>
          <path class="st34" d="M497.5,221.1h3.6c0,.1,0,3.7-1.7,3.6-2.2-.1-1.9-3.6-1.9-3.6Z"/>
          <g>
            <line class="st4" x1="515.1" y1="219.3" x2="510.8" y2="220.8"/>
            <path class="st4" d="M513.6,215.6c-1,.1-1.9.6-2.6,1.3"/>
            <path class="st4" d="M511.3,224.8c-1.1-.3-1.9-1.5-1.8-2.8"/>
          </g>
        </g>
        <g>
          <g>
            <path class="st48" d="M497.2,435.3l-2,14s-23.5,0-23.7,0,2-15.7,2-15.7"/>
            <path class="st32" d="M471.8,444.7c.1-.2,2,0,2.2,0,1.5,0,3-.2,4.5.2.4.1.7.3.9.6.1.2.2.4.3.6.4.6,1.2.7,1.9.7,2.6,0,12.9,0,13.5,0,.7,0,1.1-.3,1.4.4.2.6.2,11.1.2,11.7h-8.9s-.4-2.4-.4-2.4c0,0-5.3-.3-6-.2-.8,0-5.1,2.6-7.9,2.7h-17.2c.8-10.1,11.9-8.3,15.6-14.1Z"/>
            <line class="st10" x1="479.5" y1="456.2" x2="456.5" y2="456.7"/>
            <line class="st10" x1="487.2" y1="456.5" x2="496.5" y2="456.3"/>
          </g>
          <g>
            <path class="st48" d="M545.6,435.3l1.2,14s-23.5,0-23.7,0-1.2-15.7-1.2-15.7"/>
            <path class="st32" d="M522.6,444.7c.1-.2,2,0,2.2,0,1.5,0,3-.2,4.5.2.4.1.7.3.9.6.1.2.2.4.3.6.4.6,1.2.7,1.9.7,2.6,0,12.9,0,13.5,0,.7,0,1.1-.3,1.4.4.2.6.2,11.1.2,11.7h-8.9s-.4-2.4-.4-2.4c0,0-5.3-.3-6-.2-.8,0-5.1,2.6-7.9,2.7h-17.2c.8-10.1,11.9-8.3,15.6-14.1Z"/>
            <line class="st10" x1="530.3" y1="456.2" x2="507.3" y2="456.7"/>
            <line class="st10" x1="538" y1="456.5" x2="547.3" y2="456.3"/>
          </g>
          <path class="st44" d="M502.1,320.6l11.3,122.3h36.4l-11.9-104.6s2.5-9.6-2.7-20.1"/>
          <line class="st19" x1="520.6" y1="442.8" x2="508.6" y2="329.2"/>
          <path class="st44" d="M476.5,317.4l-8.1,125.4h36.2l5.7-101.9s8.4-18.2,6.9-26.7"/>
          <path class="st4" d="M508,384.5l2.1-41.1c0-1.7.6-3.3,1.4-4.7l1.8-3.1"/>
          <line class="st19" x1="477.1" y1="442.8" x2="486.1" y2="315.2"/>
          <path class="st4" d="M487.1,379.7c2.7,3.9,5.5,7.7,8.4,11.4"/>
          <path class="st4" d="M493.2,381.9c1.5,1.2,3,2.4,4.5,3.6"/>
          <path class="st4" d="M525,378.6c.2,1.5,1.5,2.7,2.7,3.7,2,1.7,4.1,3.3,6.3,4.7"/>
        </g>
        <g>
          <line class="st19" x1="479.8" y1="321.7" x2="484.3" y2="254.4"/>
          <path class="st19" d="M536.9,248.8c.8,5.5,1.1,10.4-1.4,15.6"/>
          <g>
            <path class="st11" d="M450.5,248.6c-1-4.7-4.8-8.4-7.7-12.3-1.9-2.5-3-5.3-4.9-7.7-.7.2-.9,1.1-1,1.9,0,1.9,0,3.7.4,5.5-.1-.6-1.7-1.9-2-2.6-.6-1.2-.9-2.5-1.2-3.7-.5-2.1-1.3-5.5-3.2-6.4-.7-.4-.3,1.5-.3,1.7,0,.6,0,1.1,0,1.7.2,1.3-.1,2.7-.4,4-.2,1.2-.5,2.3-.7,3.5-.1.7-.3,1.4-.4,2.1-.4,3.3,0,6.7,1.2,9.8.8,2.3,1.8,4.5,3.1,6.7,1.2,2,2.5,4.5,4.6,5.6"/>
            <path class="st4" d="M436.4,235.1c1.4.8,2.8,1.7,4.2,2.5"/>
            <path class="st4" d="M430.8,229.9c.9,3.2,1.9,6.6,4,9.2"/>
            <path class="st4" d="M429.7,233.4c0,3.2.8,6.4,2.3,9.3"/>
            <path class="st4" d="M429.2,237.9c-.2.7,0,1.5.3,2.2.6,1.8,1.2,3.7,1.7,5.6"/>
          </g>
          <path class="st7" d="M549.7,273.3c-3-9.4-8.6-17.8-13.8-25.9-2.3-3.5-6.8-9.1-13.6-10.3l-.4-3.8h-24.4l-2,4.2h-7.2c-2.5,0-10.7,2.2-14.9,9.4-4.2,7.2-8.8,14-8.8,14l-14.1-16.5-16.8,11.3s13.7,23.1,17.9,28.4c3.7,4.6,13.2,15.1,23.1,9l-3.4,36s5.7-3.3,8.4-7.5c15.3,5.7,46.1,23.2,62.8,7.5,0-4.2-1.3-16.8-3.1-31,2.5-.5,4.5-.9,5.5-1.4,9.3-4.2,7.2-15.8,4.6-23.6Z"/>
          <path class="st4" d="M508.6,306.5c5.1-4.2,10.1-8.4,15.2-12.7"/>
          <path class="st4" d="M520.5,305.6c2.7-1.6,5.4-3.1,8-4.7"/>
          <path class="st19" d="M481,240.2c4.5.5,8.6,3.5,11.3,7.8,2.7,4.3,4.1,9.7,4.3,15.1"/>
          <path class="st4" d="M474.8,293.2c7.9-5.1,22.7-31.3,22.7-31.8"/>
          <line class="st4" x1="495.8" y1="237" x2="522.4" y2="237"/>
          <line class="st4" x1="539.5" y1="298.2" x2="534.5" y2="256.9"/>
          <line class="st4" x1="464.6" y1="260.9" x2="459.2" y2="268.6"/>
          <line class="st4" x1="437.8" y1="262.6" x2="455.7" y2="250.5"/>
        </g>
      </g>
      <g>
        <g>
          <path class="st28" d="M42.6,451.2s-5.1-4.6-5.4-6.3c-.3-1.7,3.2-40.2,3.2-40.2l-25.3-2.6s-4.9,45-4.6,45.2c.3.2,8.7,1.6,10.6,2.3,1.9.7,5.7,4.4,8.9,4.7,3.2.3,12.6-3,12.6-3Z"/>
          <path class="st32" d="M11,441.4c9.5,1.1,14.2,7.5,17.1,8.8,2.9,1.3,13.8,0,13.8,0h0c4.5,2.7,9,4.8,9.4,8.2h-20.9c-4.2,0-7.7-6.9-12-6.9l-1.4,6.9h-8.3s-.7-7.6,0-11c.7-3.4,2.2-6,2.2-6Z"/>
        </g>
        <g>
          <path class="st28" d="M85,451.2s-5.1-4.6-5.4-6.3c-.3-1.7-1.4-40.2-1.4-40.2l-25.3-2.6s.6,44.4.9,44.6c.3.2,7.8,2.1,9.7,2.8,1.9.7,5.7,4.4,8.9,4.7,3.2.3,12.6-3,12.6-3Z"/>
          <path class="st32" d="M53.3,441.4c9.5,1.1,14.2,7.5,17.1,8.8,2.9,1.3,13.8,0,13.8,0h0c4.5,2.7,9,4.8,9.4,8.2h-20.9c-4.2,0-7.7-6.9-12-6.9l-1.4,6.9h-8.3s-.7-7.6,0-11,2.2-6,2.2-6Z"/>
        </g>
        <g>
          <path class="st28" d="M76.6,332.8c1.2,3.9,1.8,8,1.9,12.1,0,2.4-.2,4.9-1.3,7.1-.9,1.7-2.3,3.1-3.7,4.5-.4.4-.8.8-1.3.8-.7,0-1.3-.4-1.8-.8-.3-.2-.5-.5-.8-.7-.9-.8-1.7-1.5-2.4-2.4-.8-1-1.2-2.1-1.7-3.3-.6-1.5-1.2-3-1.9-4.5-1.5-3.6-2.9-7.3-2.6-11"/>
          <path class="st34" d="M48.3,242.5s11.6,1.5,15.9,5.4c4.3,3.8,7.3,10.4,9.5,22.2,2.2,11.9,6.1,70.1,6.1,70.1h-20.1l-7.6-72.3"/>
          <line class="st4" x1="79.2" y1="330" x2="58.8" y2="330"/>
        </g>
        <g>
          <path class="st32" d="M80.9,419.2s1.7-21.3,0-43c-.8-10.3-18.2-73.3-18.2-73.3h-16v-13.3l-29.6,5s-7.3,30.5-7.3,39.3c0,13.2,4.3,44.4,4.3,44.4l-1.6,33.1,68.4,7.8Z"/>
          <path class="st8" d="M27.6,413.1l1.1-35.9c-1.6-6.7-3-13.3-4.4-20-1.9-9.1-4.1-18.3-4-27.7.1-7.1,1.4-14.4,2.2-21.4"/>
          <path class="st4" d="M43.3,392.8c4.6-7.4,8.4-15.2,11.4-23.4"/>
          <path class="st4" d="M42.6,378.9c2.4-2.9,4.9-5.6,7.5-8.3"/>
        </g>
        <g>
          <path class="st34" d="M59,257.2c3.2,6.2,5.4,15,5.9,22,1.1,15.4,1.3,24.7,2.2,37.9H12.4l3.6-58,11.6-15.9s12.5-2.3,19.8-.9c7.2,1.4,11.6,15,11.6,15Z"/>
          <path class="st4" d="M59,257.2c3.2,6.2,5.4,15,5.9,22,1.1,15.4,1.3,24.7,2.2,37.9"/>
          <g>
            <path class="st45" d="M74.6,287.6l-5.2-5.6-46,42.7,5.2,5.6c10.3,11.1,28.9,10.5,41.6-1.3,12.7-11.8,14.7-30.3,4.4-41.4Z"/>
            <g class="st30">
              <path class="st29" d="M87.3,310.7l-21.6-23.2,2.3-2.2,21.6,23.2-2.3,2.2ZM87.6,320.7l-21.6-23.2-2.3,2.2,21.6,23.2,2.3-2.2ZM85.5,332.8l-21.6-23.2-2.3,2.2,21.6,23.2,2.3-2.2ZM52.3,343.2l-21.6-23.2-2.3,2.2,21.6,23.2,2.3-2.2ZM64.6,342l-21.6-23.2-2.3,2.2,21.6,23.2,2.3-2.2ZM76.9,340.8l-21.6-23.2-2.3,2.2,21.6,23.2,2.3-2.2Z"/>
            </g>
            <ellipse class="st63" cx="47.1" cy="303.9" rx="31.4" ry="27.4" transform="translate(-194.2 113.3) rotate(-42.9)"/>
            <path class="st4" d="M75.1,290.7c3.9,10.7.5,24-9.4,33.2-12.7,11.8-31.4,12.4-41.6,1.3"/>
            <ellipse class="st45" cx="46.3" cy="303.1" rx="24.4" ry="20.1" transform="translate(-193.9 112.5) rotate(-42.9)"/>
            <path class="st4" d="M24.2,311.3c-1.5-7.5,1.4-16.5,8.4-22.9,9.9-9.2,24-10,31.5-1.9"/>
            <path class="st38" d="M37,310.9c-1.2-1.3-2.2-2.8-3-4.3-.8-1.6-1.2-3-1.3-4.3l4.2-1.5c.1,1.2.5,2.4,1,3.7.6,1.3,1.3,2.4,2.2,3.4.7.8,1.4,1.3,2,1.6.6.3,1.1.5,1.6.4s.9-.2,1.3-.5c.5-.4.7-.9.6-1.5,0-.6-.3-1.3-.6-2s-.8-1.5-1.3-2.3c-.5-.8-.9-1.7-1.3-2.6-.4-.9-.7-1.8-.9-2.7-.2-.9-.1-1.8.2-2.7.3-.9.9-1.8,1.8-2.6,1-.9,2.1-1.5,3.4-1.7,1.3-.2,2.6,0,4.1.5,1.4.6,2.9,1.7,4.3,3.2,1,1,1.8,2.2,2.5,3.5.7,1.3,1.1,2.5,1.3,3.7l-4.1,1.6c-.2-1.2-.6-2.2-1.1-3.2-.5-1-1.1-1.9-1.8-2.6-.7-.8-1.4-1.3-2-1.6-.6-.3-1.1-.4-1.6-.4-.5,0-.9.3-1.3.6-.5.4-.7.9-.6,1.6,0,.6.3,1.3.6,2,.4.7.8,1.5,1.3,2.3.5.8.9,1.7,1.3,2.6.4.9.7,1.8.9,2.7.2.9.1,1.8-.1,2.7-.3.9-.8,1.8-1.7,2.6-1,.9-2.1,1.5-3.4,1.7-1.3.2-2.6,0-4.1-.5-1.5-.6-2.9-1.7-4.4-3.2ZM33.6,312.5l23.1-21.5,2.2,2.4-23.1,21.5-2.2-2.4Z"/>
            <path class="st4" d="M68.2,294c1.8,5.3.5,11.1-1.7,15.5"/>
          </g>
          <g>
            <g>
              <path class="st28" d="M40.4,319.3c3.3,2,5.4,5.5,7.4,8.8,1,1.7,2,3.4,3,5.1,0,.2.2.3.1.5,0,.2-.4.3-.6.3-1.7,0-3.1-1.2-4.4-2.3.4,1.7,1.1,3.3,2,4.8.5.7,1.2,1.5,2.1,1.5,0,.9-.7,1.7-1.6,2-.8.3-1.8.1-2.5-.5-1,1.2-3.2,1.3-4.3,0,.1.4,0,.8-.4,1-.3.2-.7.3-1.1.3-1,0-2.8-1.3-2.8-1.3,0,0,.5.8-1.6,1.3-2.1.5-4.9-3-7-5.7-2.2-2.7-3.8-5.7-6.2-8.2"/>
              <path class="st4" d="M37.5,339.5c-1.6-1-3-2.3-4.1-3.9"/>
              <path class="st4" d="M41.6,339.5c-1.3-1.2-2.3-2.7-3.1-4.3"/>
              <path class="st4" d="M45.9,339.5c-1.4-1.7-2.6-3.6-3.6-5.7"/>
              <path class="st4" d="M45.9,331.9c-.1-.9-.3-1.8-.4-2.6"/>
            </g>
            <path class="st34" d="M33.6,238.7l-5.7,3.6s-15.1-.2-19.6,12.3c-4.5,12.5-7.3,24.7-7.8,30-.8,8.1-1.2,15,5.2,24.4,5.2,7.6,20.2,25.5,20.2,25.5l19.2-11.7-19.6-32.6,2.5-28.5"/>
            <polyline class="st4" points="29.5 296.8 25.4 290.1 27.5 266"/>
            <line class="st4" x1="40.3" y1="314.6" x2="20.2" y2="327.6"/>
            <line class="st4" x1="29.9" y1="331.9" x2="19.8" y2="318.3"/>
            <path class="st44" d="M32,326.1c0,.7-.6,1.3-1.3,1.3s-1.3-.6-1.3-1.3.6-1.3,1.3-1.3,1.3.6,1.3,1.3Z"/>
            <path class="st4" d="M22.3,287.8c1.3.5,2.4,1.3,3.1,2.3"/>
          </g>
          <path class="st4" d="M25.7,243.2c4.6,5.4,11.8,9.5,19,7.2,2.7-.9,5.2-3,5.8-5.8"/>
        </g>
        <g>
          <path class="st72" d="M48.6,213c3.2,2.5,5.3,6.1,7.2,9.7,2.1,4,4.5,7.7,6.6,11.6.8,1.6,1.5,3.2,2,4.9.5,1.7.7,3.5.8,5.3,0,1.6.2,3.2.4,4.8,0-.2-.7-.6-.9-.8-.3-.3-.6-.5-1-.7-.7-.5-1.4-.9-2.1-1.2-1.5-.7-3-1.3-4.6-1.7-.1,0-.3,0-.4-.1-3.2-.8-6.5-1.2-9.5-2.5-1.4-.6-2.2-1.6-3.2-2.7-2.2-2.5-2.6-6.1-3-9.4-.3-3-.7-6-1-9"/>
          <path class="st28" d="M28.7,227l.7,15s4.4,6.3,11.4,5.1c5.5-.9,6.5-4.9,6.5-4.9v-8.2"/>
          <path class="st28" d="M51.9,219.4c-.7-2.3-1.9-4.5-3.9-6-2.6-1.9-6.2-2.3-9.3-1.9-5.1.7-7.3,6.1-7.7,10.6-.3,3.5,0,6.4,1.8,9.4,3.1,4.9,10.2,9.5,15.9,6.6,3.2-1.6,4.7-5,4.5-8.4-.2-3.3-.3-7.1-1.3-10.5Z"/>
          <path class="st4" d="M48.7,223.8c.3.8.7,1.5,1.2,2.1.4.5.8,1,1,1.6.2.6-.2,1.2-1,1.6"/>
          <path class="st60" d="M44,225.6c.1.7-.2,1.3-.7,1.4-.5,0-1-.4-1.1-1.1-.1-.7.2-1.3.7-1.4.5,0,1,.4,1.1,1.1Z"/>
          <path class="st60" d="M52,222.7c.1.7-.2,1.3-.7,1.4-.5,0-1-.4-1.1-1.1-.1-.7.2-1.3.7-1.4s1,.4,1.1,1.1Z"/>
          <path class="st4" d="M43.6,221.1c-.4-.3-1-.3-1.5-.2-1.1.3-1.9,1.2-2.4,2.2"/>
          <path class="st4" d="M49.3,220c.6-.9,1.7-.9,2.7,0"/>
          <path class="st4" d="M36.9,235.3c2.2,2.7,6.7,3.9,10.5,3.6"/>
          <path class="st4" d="M47.8,229.8c0,.6.3,1.5.8,1.9.9.8,2-.2,2.2-1.1"/>
          <path class="st72" d="M53.2,213.3c-.6-1.3-1.5-2.5-2.6-3.3-1.8-1.3-4.2-1.8-6.2-2.8-5.1-2.6-11-2-15.9,1.4-4,2.7-6,5.9-7.3,10.5-.1.5-.3,1.1-.4,1.6-.3,1.5-.3,3-.6,4.5-.5,3.1-2,6.1-4.3,8.3-1,1.1-2.2,2-3.2,3.1-3.2,3.6-4.1,8.7-1.5,12.8,2.8-2.7,7.1-2.8,10.8-4,3.7-1.1,7.6-2.8,9.3-6.3.8-1.7,1.1-3.6,1.2-5.5.1-1.5.2-3.1.3-4.6,0-1,0-2.1.5-3,.5-1.2,1.8-1.7,2.7-2.5,1-.9,1.9-2,2.8-3,2.2-2.5,4.3-5.2,5.9-8.2,3.8.3,7.3,4.2,8.2,8.8,0,0,2.8-2.4.2-7.9Z"/>
          <g>
            <path class="st28" d="M36.4,226.4c-.3-1.8-3-2.8-4.6-2.1-3.7,1.9-1.4,8.5,2.4,8.7,1.1,0,2.5-.5,2.7-1.7"/>
            <line class="st4" x1="32" y1="227.4" x2="35.8" y2="229.9"/>
            <path class="st4" d="M34.8,224.5c.7.4,1.3.9,1.6,1.6"/>
            <path class="st4" d="M32.9,232.6c.7.4,1.5.7,2.3.6.8,0,1.6-.6,1.8-1.3"/>
          </g>
        </g>
      </g>
    </g>
    <path class="st62" d="M79.6,166.8l-3.6-1.2c-1.2-.5-1.9-1.3-2.6-3.1l-1.7-6.5c-.1-.4-.5-.7-.9-.7s-.8.3-.9.7l-1.7,6.5c-.7,1.7-1.4,2.6-2.6,3.1l-3.6,1.2c-.4.1-.6.5-.6.9s.3.8.6.9l3.6,1.2c1.2.5,1.9,1.3,2.6,3.1l1.7,6.5c.1.4.5.7.9.7s.8-.3.9-.7l1.7-6.5c.7-1.7,1.4-2.6,2.6-3.1l3.6-1.2c.4-.1.6-.5.6-.9s-.3-.8-.6-.9Z"/>
    <path class="st62" d="M611.2,114.3l-3.6-1.2c-1.2-.5-1.9-1.3-2.6-3.1l-1.7-6.5c-.1-.4-.5-.7-.9-.7s-.8.3-.9.7l-1.7,6.5c-.7,1.7-1.4,2.6-2.6,3.1l-3.6,1.2c-.4.1-.6.5-.6.9s.3.8.6.9l3.6,1.2c1.2.5,1.9,1.3,2.6,3.1l1.7,6.5c.1.4.5.7.9.7s.8-.3.9-.7l1.7-6.5c.7-1.7,1.4-2.6,2.6-3.1l3.6-1.2c.4-.1.6-.5.6-.9s-.3-.8-.6-.9Z"/>
    <path class="st62" d="M720.8,204.7l-3.6-1.2c-1.2-.5-1.9-1.3-2.6-3.1l-1.7-6.5c-.1-.4-.5-.7-.9-.7s-.8.3-.9.7l-1.7,6.5c-.7,1.7-1.4,2.6-2.6,3.1l-3.6,1.2c-.4.1-.6.5-.6.9s.3.8.6.9l3.6,1.2c1.2.5,1.9,1.3,2.6,3.1l1.7,6.5c.1.4.5.7.9.7s.8-.3.9-.7l1.7-6.5c.7-1.7,1.4-2.6,2.6-3.1l3.6-1.2c.4-.1.6-.5.6-.9s-.3-.8-.6-.9Z"/>
    <path class="st62" d="M268.3,11.5l-3.6-1.2c-1.2-.5-1.9-1.3-2.6-3.1l-1.7-6.5c-.1-.4-.5-.7-.9-.7s-.8.3-.9.7l-1.7,6.5c-.7,1.7-1.4,2.6-2.6,3.1l-3.6,1.2c-.4.1-.6.5-.6.9s.3.8.6.9l3.6,1.2c1.2.5,1.9,1.3,2.6,3.1l1.7,6.5c.1.4.5.7.9.7s.8-.3.9-.7l1.7-6.5c.7-1.7,1.4-2.6,2.6-3.1l3.6-1.2c.4-.1.6-.5.6-.9s-.3-.8-.6-.9Z"/>
    <path class="st62" d="M37.8,130.8l-3.6-1.2c-1.2-.5-1.9-1.3-2.6-3.1l-1.7-6.5c-.1-.4-.5-.7-.9-.7s-.8.3-.9.7l-1.7,6.5c-.7,1.7-1.4,2.6-2.6,3.1l-3.6,1.2c-.4.1-.6.5-.6.9s.3.8.6.9l3.6,1.2c1.2.5,1.9,1.3,2.6,3.1l1.7,6.5c.1.4.5.7.9.7s.8-.3.9-.7l1.7-6.5c.7-1.7,1.4-2.6,2.6-3.1l3.6-1.2c.4-.1.6-.5.6-.9s-.3-.8-.6-.9Z"/>
  </g>
</svg>