<?xml version="1.0" encoding="UTF-8"?>
<svg id="_圖層_1" data-name="圖層_1" xmlns="http://www.w3.org/2000/svg" version="1.1" viewBox="0 0 821 564">
  <!-- Generator: Adobe Illustrator 29.7.1, SVG Export Plug-In . SVG Version: 2.1.1 Build 8)  -->
  <defs>
    <style>
      .st0 {
        fill: #003b8f;
      }

      .st1 {
        fill: #fff;
      }

      .st2 {
        fill: none;
      }

      .st3 {
        fill: #0751b8;
      }

      .st4 {
        fill: #0061c1;
      }

      .st5 {
        fill: #ffcf57;
      }
    </style>
  </defs>
  <g>
    <path class="st2" d="M179.9,483.6c-.6-2.6-.8-4.8-.6-6.8h0c-.2,2,0,4.2.6,6.8.5,2,1.2,3.9,2.2,5.8h0c-.9-1.9-1.7-3.8-2.2-5.8Z"/>
    <path class="st2" d="M273.7,13.8c12.6-2.6,24.8,1.1,31.8,9.5.7.8,1.8.9,2.6.2.4-.3.6-.8.7-1.3,0,.5-.3.9-.7,1.3-.8.7-2,.5-2.6-.2-7-8.4-19.2-12.1-31.8-9.5-17.8,3.6-30.6,18.3-29.3,33.3-1.3-15,11.6-29.7,29.3-33.3Z"/>
    <path class="st2" d="M267,70.4h0c.9.2,1.5.9,1.6,1.8,0-.9-.7-1.6-1.6-1.8Z"/>
    <path class="st2" d="M246,61.4c-.2-.3-.3-.7-.3-1.1,0,.4,0,.7.3,1.1Z"/>
    <path class="st2" d="M278.3,27.7c1.1-1,2.5-1.6,4.2-2,1.9-.4,3.7-.2,5.4.5,1.7.7,3.2,2,4.5,4,.8,1.3,1.5,2.8,2,4.6l5.4-1.1.7,4.8h0s-.7-4.9-.7-4.9l-5.4,1.1c-.5-1.8-1.1-3.3-2-4.6-1.3-1.9-2.8-3.2-4.5-4-1.7-.7-3.5-.9-5.4-.5-1.7.3-3.1,1-4.2,2-1,.9-1.8,2-2.3,3.3.5-1.2,1.3-2.3,2.3-3.3Z"/>
    <path class="st2" d="M295.1,45.9c-.4,2.6-1,4.8-1.9,6.5h0c.9-1.7,1.6-3.9,2-6.5.3-2,.3-4.1,0-6.2h0c.2,2.1.2,4.1,0,6.2Z"/>
    <path class="st2" d="M259.8,41.8l-5.3,1.1h0s5.3-1,5.3-1c0,0,0,0,0,0Z"/>
    <path class="st2" d="M279.3,50.5c-.1.3-.3.6-.5.9.2-.3.3-.6.5-.9.6-1.3,1-2.7,1.2-4.2,0-.6.2-1.2.2-1.9,0,.6-.2,1.2-.2,1.9-.2,1.5-.6,2.9-1.2,4.2Z"/>
    <path class="st2" d="M243,50.6c0,0-.2,0-.3,0-.9,0-1.7-.7-1.8-1.6-.2-1.1-.2-2.2-.3-3.3,0,1.1.1,2.2.3,3.3.1.9.9,1.6,1.8,1.6s.2,0,.3,0c.9-.1,1.6-.9,1.6-1.8,0,.9-.7,1.6-1.6,1.7Z"/>
    <path class="st2" d="M266.2,37.8c-.1.9-.1,1.8-.1,2.7l8.2-1.6s0,0,0,0l-8.2,1.6c0-.9,0-1.8.1-2.7.2-1.7.6-3.4,1.3-5.1l-6.2-1.3s0,0,0,0l6.2,1.3c-.7,1.7-1.1,3.4-1.3,5Z"/>
    <path class="st2" d="M192.7,491.7c.7.1,1.3,0,1.9-.4-.6.4-1.2.5-1.9.4Z"/>
    <path class="st2" d="M190.5,490.6c-.1-.1-.3-.3-.5-.5l5.6-3.6s0,0,0,0l-5.6,3.6c.1.2.3.4.4.5h0Z"/>
    <path class="st2" d="M179.9,496.6l4.6-3c1.1,1.5,2.3,2.7,3.5,3.6,1.9,1.3,3.8,2,5.6,2.1,1.4,0,2.7-.2,4-.8-1.3.6-2.6.9-4,.8-1.9,0-3.8-.7-5.6-2-1.2-.9-2.4-2.1-3.5-3.6l-4.6,3-2.4-4.3h0s2.4,4.3,2.4,4.3Z"/>
    <path class="st2" d="M280.7,44.4c0-.6.1-1.2.2-1.9h0c0,.6-.1,1.2-.2,1.9Z"/>
    <path class="st2" d="M211.5,505.7c15.7-10.1,22.2-29.4,14.5-43-.5-.9-.2-2,.7-2.6.3-.2.7-.3,1.1-.2-.4,0-.7,0-1.1.2-.9.5-1.2,1.7-.7,2.6,7.7,13.6,1.2,32.9-14.5,43-9.5,6.1-20.4,7.7-29.4,4.4,9,3.2,19.9,1.7,29.4-4.4Z"/>
    <path class="st2" d="M206.3,473.9s0,0,0,0l-5.9,3.8c-.2-.8-.3-1.5-.3-2.2,0,.7,0,1.4.3,2.2l5.9-3.8Z"/>
    <path class="st2" d="M247.1,78.8c3.2,2.3,6.8,4,10.5,5.4-3.8-1.3-7.3-3.1-10.5-5.4Z"/>
    <path class="st2" d="M261.6,91.5l-1-6.4s0,0,0,0l1,6.4c3.7,1.2,7.6,1.9,11.6,2.1h0c-4-.2-7.9-.9-11.6-2.1Z"/>
    <path class="st2" d="M234.7,52.3h0c-3.1-21.4,13.8-42.8,37.7-47.6,3.2-.6,6.4-1,9.6-1,0,0,0,0,0,0-3.2,0-6.4.3-9.6,1-23.9,4.8-40.8,26.1-37.7,47.6,1.4,9.5,6.6,17.8,14.6,23.5,2.5,1.8,5.3,3.2,8.2,4.4-2.9-1.2-5.6-2.6-8.1-4.4-8-5.7-13.2-14-14.6-23.5Z"/>
    <path class="st2" d="M242.1,77.5c-1.7-2.4-3-4.9-4-7.6,1,2.7,2.4,5.2,4,7.6Z"/>
    <path class="st2" d="M211.7,439.1c-3.1-.8-6.2-1.1-9.4-1.1s0,0,0,0c3.2,0,6.4.4,9.4,1.1,9.5,2.3,17.4,8.2,22.2,16.5,10.7,18.8,2.8,44.9-17.8,58-7.9,5.1-16.9,7.7-25.6,7.5,8.7.2,17.7-2.4,25.6-7.5,20.5-13.2,28.5-39.2,17.8-58-4.7-8.3-12.6-14.2-22.2-16.5Z"/>
    <path class="st2" d="M175.9,509.2c.2-.5.7-.8,1.1-.9-.5.1-.9.4-1.1.9-.5.9-.2,2,.7,2.5,4.6,2.5,9.8,3.8,15.2,3.8h0c-5.4,0-10.6-1.3-15.2-3.8-.9-.5-1.2-1.6-.7-2.5Z"/>
    <path class="st2" d="M246.6,58.9c.3-.2.7-.3,1.1-.3-.4,0-.7,0-1.1.3Z"/>
    <path class="st2" d="M551.9,489.5c-.8.7-2,.5-2.6-.2,0,0,0,0,0,0,.7.8,1.8.9,2.6.2.8-.7.9-1.8.2-2.6h0c-.5-.6-1-1.2-1.6-1.7.5.5,1,1.1,1.5,1.7.7.8.5,2-.2,2.6Z"/>
    <path class="st2" d="M529.4,547.8c22.7-5.6,38.5-26.3,35.5-47.1,3,20.8-12.8,41.4-35.5,47.1Z"/>
    <path class="st2" d="M267,45.3l6.8-1.4s0,0,0,0l-6.8,1.4s0,0,0,0Z"/>
    <path class="st2" d="M505.3,557.5l-1-6.4s0,0,0,0l1,6.4c3.7,1.2,7.6,1.9,11.6,2.1h0c-4-.2-7.9-.9-11.6-2.1Z"/>
    <path class="st2" d="M516.1,470.7c3.2-.6,6.4-1,9.6-1-3.2,0-6.4.3-9.6,1Z"/>
    <path class="st2" d="M489.7,527.4c-.2-.3-.3-.7-.3-1.1,0,.4,0,.7.3,1.1Z"/>
    <path class="st2" d="M510.7,536.4h0c.9.2,1.5.9,1.6,1.8,0-.9-.7-1.6-1.6-1.8Z"/>
    <path class="st2" d="M532.6,508c0,1.1,0,2.2-.3,3.3-.4,2.1-1,4-1.8,5.6h0c.8-1.6,1.4-3.5,1.8-5.6.2-1.1.3-2.2.3-3.3Z"/>
    <path class="st2" d="M517.4,479.8c11.8-2.4,23.3.7,30.5,8-7.2-7.3-18.6-10.4-30.5-8-18.3,3.7-31.4,19.3-29.2,34.7.2,1-.6,2-1.6,2.1,0,0-.2,0-.3,0-.7,0-1.3-.4-1.6-1,.3.6.9,1,1.6,1s.2,0,.3,0c1-.2,1.7-1.1,1.6-2.1-2.2-15.5,10.8-31.1,29.1-34.7Z"/>
    <path class="st2" d="M490.9,544.8c-.7-.5-1.4-1.1-2.1-1.6h0c.7.6,1.4,1.1,2.1,1.6,3.2,2.3,6.8,4,10.5,5.4l1,6.3s0,0,0,0l-1-6.3c-3.8-1.3-7.3-3.1-10.5-5.4Z"/>
    <path class="st2" d="M490.3,524.9c.3-.2.7-.3,1.1-.3-.4,0-.7,0-1.1.3Z"/>
    <path class="st2" d="M513.9,471.2c-20.5,5.1-35.4,22.5-35.8,41.1.5-18.6,15.3-36,35.8-41.1Z"/>
    <path class="st2" d="M288,36.1h0c0,0,0-.2-.1-.3,0,.1,0,.2.1.3Z"/>
    <path class="st2" d="M290.4,91.3c-1.7.5-3.4,1-5.2,1.4,1.8-.4,3.5-.8,5.2-1.4Z"/>
    <path class="st2" d="M281.5,37.4h0c0-.1,0-.3,0-.4,0,.1,0,.3,0,.4Z"/>
    <path class="st2" d="M284.2,85.9c1.9-.4,3.7-.9,5.5-1.4h0c-1.8.6-3.6,1.1-5.5,1.4-2.9.6-5.7.8-8.6.9h0l1,6.8s0,0,0,0l-1-6.8c2.8,0,5.7-.4,8.6-.9Z"/>
    <path class="st2" d="M284.2,33.4c.7-.1,1.3,0,1.9.3.6.3,1.1,1,1.6,1.8,0,0,0,.2.1.3,0-.1,0-.2-.1-.3-.5-.9-1-1.5-1.6-1.8-.6-.3-1.2-.4-1.9-.3-.9.2-1.6.7-2,1.5-.2.3-.3.7-.5,1.2.1-.4.3-.8.5-1.2.4-.8,1.1-1.3,2-1.5Z"/>
    <path class="st2" d="M481.8,536s0,0,0,0c1,2.7,2.4,5.2,4,7.6h0c-1.6-2.4-3-4.9-4-7.5Z"/>
    <path class="st2" d="M322.9,53.1c-.3,3.7-1.1,7.2-2.5,10.7,1.3-3.4,2.2-7,2.5-10.7Z"/>
    <path class="st2" d="M291.8,83.8c4.1-1.5,7.9-3.4,11.4-5.7-3.5,2.3-7.3,4.2-11.4,5.7Z"/>
    <path class="st2" d="M322.9,53.1c-1.2,3.5-2.8,6.8-4.8,9.9,2-3.1,3.6-6.5,4.8-9.9Z"/>
    <path class="st2" d="M292.9,90.5l-1.1-6.7h0s1.1,6.7,1.1,6.7c4.1-1.6,7.9-3.6,11.4-6.1h0c-3.4,2.5-7.3,4.5-11.4,6.1Z"/>
    <path class="st2" d="M305.4,76.5h0c4-2.9,7.5-6.4,10.4-10.2l.8,5.1s0,0,0,0l-.8-5.1c-2.9,3.8-6.4,7.3-10.4,10.2Z"/>
    <path class="st2" d="M193.4,477.8c-.3-1.5-.5-2.9-.4-4.3,0-1.4.4-2.8,1-4,.6-1.2,1.7-2.3,3.2-3.3,0,0,0,0,0,0-1.5,1-2.6,2.1-3.3,3.3-.7,1.2-1,2.6-1,4,0,1.4.1,2.9.4,4.3.3,1.3.6,2.5,1,3.7h0c-.4-1.2-.7-2.4-1-3.7Z"/>
    <path class="st2" d="M538.9,506.1c0-.2,0-.3,0-.5h0c0,.2,0,.3,0,.5Z"/>
    <path class="st2" d="M186.3,437.1c.5-.2,1.1-.4,1.6-.5-.5.2-1.1.3-1.6.5h0Z"/>
    <path class="st2" d="M153.1,472.1c1.3-4.6,3.3-9.1,6-13.3-2.7,4.2-4.7,8.7-6,13.3Z"/>
    <path class="st2" d="M155.9,453.4h0c-2.6,4.5-4.4,9.4-5.4,14.3l2.6,4.4s0,0,0,0l-2.6-4.4c1-4.9,2.8-9.8,5.4-14.3Z"/>
    <path class="st2" d="M165.7,441.3h0c-1.5,1.3-2.8,2.7-4.1,4.2,1.3-1.4,2.6-2.8,4.1-4.2Z"/>
    <path class="st2" d="M149.9,472.1h0s0,0,0,0l2.3,3.8h0c-.7,3.6-1,7.3-.8,10.9,0,0,0,0,0,0-.2-3.6.1-7.3.8-11l-2.3-3.9Z"/>
    <path class="st2" d="M202.8,449.9c5.6-.1,10.8,1.4,14.9,4.3.3.2.7.4,1.1.4s0,0,0,0c-.4,0-.8-.1-1.1-.4-4-2.9-9.3-4.4-14.9-4.3Z"/>
    <path class="st2" d="M209.7,480.6c-.2-.9-.5-1.8-.9-2.5l-7,4.5s0,0,0,0l7-4.5c.3.8.6,1.6.9,2.5.4,1.7.7,3.4.7,5.2l6.3-1.1s0,0,0,0l-6.2,1.1c0-1.8-.2-3.5-.7-5.2Z"/>
    <polygon class="st2" points="214.2 474.6 218.8 471.7 218.8 471.7 214.2 474.6 214.2 474.6"/>
    <path class="st2" d="M196.8,450.6c-.9,0-1.6-.6-1.8-1.5-.2-1,.4-2,1.5-2.2,2.2-.5,4.4-.7,6.5-.7-2.1,0-4.3.3-6.5.7h0c-1,.2-1.7,1.2-1.5,2.2.2.9,1,1.5,1.9,1.5Z"/>
    <path class="st2" d="M198.9,497.8s0,0,0,0c-.3.2-.6.4-1,.5.3-.2.6-.3,1-.5Z"/>
    <path class="st2" d="M195.3,434.8c.8-.1,1.6-.2,2.4-.3h0s-3.3-5.6-3.3-5.6c0,0,0,0,0,0l3.3,5.6c-.8,0-1.6.2-2.4.3Z"/>
    <path class="st2" d="M206.4,429.9c2.2.5,4.3,1.3,6.2,2.2l2.4,4.2h0s0,0,0,0l-2.4-4.2c-2-.9-4.1-1.6-6.2-2.2-2.9-.7-5.8-1-8.8-1.1h0c3,0,5.9.4,8.8,1.1Z"/>
    <path class="st2" d="M224.2,440.4s0,0,0,0c-1.9-2.1-4.1-4-6.5-5.6h0c2.4,1.6,4.5,3.4,6.4,5.5Z"/>
    <path class="st2" d="M666.7,64.7c2.2-1.7,4.6-3.3,7-4.6h0c-2.4,1.3-4.8,2.8-7,4.6-1.6,1.2-3,2.6-4.5,4h0c1.4-1.4,2.9-2.7,4.5-4Z"/>
    <path class="st2" d="M698.9,123.5c1.4-1.1,2.3-2.3,2.9-3.6-.5,1.3-1.5,2.5-2.9,3.6Z"/>
    <path class="st2" d="M698.9,123.5c-1.5,1.2-3.2,1.8-5.1,2,1.9-.1,3.6-.8,5.1-2Z"/>
    <path class="st2" d="M693.1,125.5c-1.6,0-3.3-.5-5.1-1.5,1.7,1,3.4,1.5,5.1,1.5Z"/>
    <path class="st2" d="M701.6,111.5c.4,1.4.7,2.8.8,4.2-.1-1.4-.4-2.8-.8-4.2Z"/>
    <path class="st2" d="M698.5,103.3c-.3-1-.5-2-.5-2.8,0-.9.4-1.7,1.1-2.2.6-.4,1.2-.7,1.9-.7,0,0,0,0,0,0-.7,0-1.3.2-1.9.7-.7.6-1.1,1.3-1.1,2.2h0c0,.8.2,1.8.5,2.8h0Z"/>
    <path class="st2" d="M692.1,118s0,0,0,0c0,0,0,0,0,0h0Z"/>
    <path class="st2" d="M694,117.4s0,0,0,0c0,0,0,0,0,0,.7-.6,1.1-1.3,1.1-2.2,0-.8-.2-1.7-.5-2.7h0c.3,1,.5,1.9.4,2.7,0,.9-.4,1.7-1.1,2.2Z"/>
    <path class="st2" d="M692,118c-.5,0-1.1-.3-1.7-.6.6.4,1.1.6,1.7.6Z"/>
    <path class="st2" d="M708,105.4c-.3-.9-.7-1.7-1.1-2.5.4.8.8,1.6,1.1,2.5Z"/>
    <path class="st2" d="M691.4,95.8c-.5,1.3-.8,2.7-.7,4.1,0-1.4.1-2.8.7-4.1Z"/>
    <polygon class="st2" points="664.6 75.8 660.6 70.3 660.6 70.3 664.6 75.8 664.6 75.8"/>
    <path class="st2" d="M680.8,64.2h0c3.6-1.7,7.4-2.9,11.1-3.6h0l-3.8-5.3s0,0,0,0l3.8,5.3c-3.8.7-7.5,2-11.1,3.6Z"/>
    <path class="st2" d="M648,98c.5-5,1.9-10,4.1-14.7h0c-2.2,4.7-3.6,9.7-4.1,14.7l3,4.2s0,0,0,0l-3-4.2Z"/>
    <path class="st2" d="M683.7,102.9c0,1.8.3,3.8.9,5.8-.6-2.1-.9-4-.9-5.8Z"/>
    <path class="st2" d="M678.7,111.2c-.9-2.5-1.2-4.8-1.2-6.7,0,2,.3,4.2,1.2,6.7Z"/>
    <path class="st2" d="M650.9,102.1c.2-.9.4-1.9.6-2.8-.2.9-.4,1.9-.6,2.8h0Z"/>
    <path class="st2" d="M692.9,107.7c-.5-1.2-.9-2.3-1.3-3.6.4,1.2.8,2.4,1.3,3.6Z"/>
    <path class="st2" d="M691.7,73.1c8.5-2.6,17.2-1.8,23.9,2.1.7.4,1,1.1.9,1.9.1-.7-.2-1.5-.9-1.9-6.6-4-15.3-4.7-23.9-2.1-.7.2-1.2.9-1.3,1.6,0-.7.6-1.4,1.3-1.6Z"/>
    <path class="st2" d="M706.7,60.2c.9.1,1.7.3,2.6.5h0c-.9-.2-1.7-.4-2.6-.5-3.9-.6-7.8-.5-11.8,0h0s0,0,0,0c0,0,0,0,0,0l-3.7-5.2s0,0,0,0l3.7,5.2c3.9-.5,7.9-.5,11.8,0Z"/>
    <path class="st2" d="M729.8,78.3c-5.5-7.9-13.9-13-23.6-14.4-8.6-1.3-17.8.4-26,4.7,8.2-4.3,17.4-6,26-4.7,9.7,1.5,18.1,6.6,23.6,14.4h0c12.4,17.8,6.9,44.4-12.3,59.4-8,6.3-17.6,9.8-27,9.9,9.4-.2,19-3.6,27-9.9,19.2-15,24.8-41.7,12.3-59.4Z"/>
    <path class="st2" d="M727.4,86.7c-.5-1-1.1-1.9-1.7-2.8h0c.6.9,1.2,1.8,1.7,2.8Z"/>
    <path class="st2" d="M677,136.9c.4-1,1.5-1.4,2.4-1,10.1,4.4,22.6,2.2,32.7-5.8,14.7-11.5,19.4-31.3,10.5-44.1-.6-.8-.4-2,.5-2.6.7-.5,1.7-.4,2.4.2-.6-.6-1.6-.7-2.4-.2-.8.6-1,1.8-.5,2.6,9,12.8,4.2,32.6-10.5,44.1-10.2,7.9-22.7,10.2-32.7,5.8-.9-.4-2,0-2.5,1-.4.8,0,1.8.6,2.3-.7-.5-1-1.4-.6-2.3Z"/>
    <path class="st2" d="M505,497.5l6.2,1.3s0,0,0,0l-6.2-1.3c-.7,1.7-1.2,3.7-1.4,5.9,0,.7-.1,1.5-.1,2.2,0-.7,0-1.5.1-2.2.2-2.2.7-4.1,1.4-5.8Z"/>
    <path class="st2" d="M528.7,558.8c-2.8.6-5.6.8-8.3.9l-1-6.8s0,0,0,0h0s1,6.8,1,6.8c2.8,0,5.5-.4,8.3-.9,2-.4,3.9-.9,5.8-1.6h0c-1.9.6-3.8,1.1-5.8,1.5Z"/>
    <path class="st2" d="M525.2,503.4h0c0-.1,0-.3,0-.4,0,.1,0,.3,0,.4Z"/>
    <path class="st2" d="M535.5,549.8c4.1-1.5,7.9-3.4,11.4-5.7-3.5,2.3-7.3,4.2-11.4,5.7Z"/>
    <path class="st2" d="M718.8,64s0,0,0,0c-2.1-1.9-4.5-3.6-7-5h0c2.5,1.4,4.8,3,6.9,4.9Z"/>
    <path class="st2" d="M503.5,507.8s0,0,0,0l-5.3,1.1h0s.7,4.8.7,4.8h0s-.7-4.8-.7-4.8l5.3-1.1Z"/>
    <path class="st2" d="M562.5,533.5h0c2.2-4.5,3.7-9.4,4.1-14.3,0,0,0,0,0,0-.4,5-1.8,9.8-4.1,14.3Z"/>
    <path class="st2" d="M510.7,511.3l6.8-1.4s0,0,0,0l-6.8,1.4s0,0,0,0Z"/>
    <path class="st2" d="M518,504.9c.1-1.2.2-2.4.4-3.6.2-1.5.6-2.8,1.2-4.1.5-1.3,1.3-2.4,2.4-3.4,1.1-1,2.5-1.6,4.2-2,1.9-.4,3.7-.2,5.4.5,1.7.7,3.2,2,4.5,4,.8,1.3,1.5,2.8,2,4.6l5.4-1.1.7,4.8h0s-.7-4.9-.7-4.9l-5.4,1.1c-.5-1.8-1.1-3.3-2-4.6-1.3-1.9-2.8-3.2-4.5-4-1.7-.7-3.5-.9-5.4-.5-1.7.4-3.1,1-4.2,2-1.1,1-1.9,2.1-2.4,3.4-.5,1.3-.9,2.7-1.2,4.1-.2,1.2-.3,2.4-.4,3.7l-8.2,1.6s0,0,0,0l8.2-1.7Z"/>
    <path class="st2" d="M536.6,556.5l-1.1-6.7h0s1.1,6.7,1.1,6.7c4.1-1.6,7.9-3.6,11.4-6.1h0c-3.4,2.5-7.3,4.5-11.4,6.1Z"/>
    <path class="st2" d="M529.9,499.7c-.6-.3-1.2-.4-2-.3-.9.2-1.6.7-2,1.5-.2.3-.3.7-.5,1.2.1-.4.3-.8.5-1.2.4-.8,1.1-1.3,2-1.5.7-.1,1.4,0,2,.3.6.3,1.1.9,1.6,1.8,0,.2.2.4.2.6h0c0-.2-.2-.5-.2-.6-.5-.9-1-1.5-1.6-1.8Z"/>
    <path class="st2" d="M559.5,532.3h0c-2.9,3.8-6.4,7.3-10.4,10.2l1,6.2s0,0,0,0l-1-6.2c4-2.9,7.5-6.4,10.4-10.2Z"/>
    <path class="st4" d="M664.6,75.8l-4-5.5c-3,3.2-5.5,6.8-7.4,10.5l3.8,5.2c2.1-3.7,4.7-7.1,7.7-10.3Z"/>
    <path class="st4" d="M670.4,70.4c2.3-1.8,4.7-3.3,7.2-4.7h0l-4-5.6c-2.4,1.3-4.8,2.8-7,4.6-1.6,1.2-3,2.6-4.5,4h0l4,5.5c1.3-1.3,2.8-2.6,4.3-3.7Z"/>
    <path class="st4" d="M655.7,88.3l-3.6-5.1c-2.2,4.7-3.6,9.7-4.1,14.7l3,4.2c.2-.9.4-1.9.6-2.8.9-3.8,2.3-7.5,4.1-11h0Z"/>
    <polygon class="st4" points="650.9 102.1 650.9 102.1 650.9 102.1 650.9 102.1 650.9 102.1"/>
    <path class="st4" d="M650.3,106.1l-2.6-3.6c0,5.1.9,10,2.8,14.7-.5-3.6-.6-7.3-.2-11Z"/>
    <path class="st4" d="M691.9,60.6l-3.8-5.3c-3.8.6-7.6,1.7-11.3,3.3l4,5.6c3.6-1.7,7.3-2.9,11.1-3.6Z"/>
    <path class="st4" d="M706.7,60.2c.9.1,1.7.3,2.6.5l-2.8-3.9c-2-.7-4.2-1.2-6.4-1.6h0c-1.9-.3-3.8-.4-5.8-.4s-2.1,0-3.1.1l3.7,5.2c3.9-.5,7.9-.5,11.8,0Z"/>
    <polygon class="st4" points="695 60.1 695 60.1 695 60.1 695 60.1"/>
    <path class="st4" d="M713.9,61.9h0c1.7.6,3.3,1.3,4.9,2.1-2.1-1.9-4.4-3.6-6.9-4.9l2,2.8Z"/>
    <path class="st3" d="M735.5,80.7c0-.4,0-.8-.3-1.1h0l-2.4-3.4s0,0,0,0c0,0,0,0,0,0l-6.1-8.7c-6.1-8.7-15.3-14.4-26.1-16-12.4-1.9-25.6,1.9-36.3,10.2-20.7,16.2-26.6,45.2-13.1,64.5l8.5,12.1c.2.3.6.5,1,.7,5.9,6.4,13.8,10.6,22.8,11.9,2.1.3,4.2.5,6.3.5,10.4,0,21.1-3.8,30-10.7,19.2-15,25.6-40.9,15.8-60ZM718.8,64s0,0,0,0c-1.6-.8-3.2-1.5-4.9-2.1h0s-2-2.8-2-2.8h0c2.5,1.3,4.9,3,7,4.9ZM691.2,54.9c1,0,2.1-.1,3.1-.1,1.9,0,3.9.1,5.8.4h0c2.2.3,4.3.9,6.4,1.6l2.8,3.9h0c-.9-.2-1.7-.4-2.6-.5-3.9-.6-7.8-.6-11.8,0l-3.7-5.2s0,0,0,0ZM688.1,55.3s0,0,0,0l3.8,5.3h0c-3.8.7-7.5,2-11.1,3.6h0s-4-5.6-4-5.6c3.7-1.6,7.5-2.7,11.3-3.3ZM666.7,64.7c2.2-1.8,4.6-3.3,7-4.6h0s4,5.6,4,5.6h0c-2.5,1.4-4.9,2.9-7.2,4.7-1.5,1.2-2.9,2.4-4.3,3.7l-4-5.5c1.4-1.4,2.9-2.7,4.5-4ZM660.6,70.3s0,0,0,0l4,5.5h0c-3,3.1-5.6,6.6-7.7,10.2l-3.8-5.2c2-3.7,4.5-7.3,7.4-10.5ZM647.7,102.4l2.6,3.6c-.4,3.7-.3,7.4.2,11-1.9-4.6-2.8-9.6-2.8-14.7ZM650.9,102.1s0,0,0,0h0s-3-4.2-3-4.2c.5-5,1.9-10,4.1-14.7h0s3.6,5.1,3.6,5.1h0c-1.8,3.5-3.2,7.2-4.1,11-.2.9-.4,1.9-.6,2.8ZM717.4,137.7c-8.1,6.3-17.6,9.8-27,9.9-2.2,0-4.3-.1-6.5-.4-9.7-1.5-18.1-6.6-23.6-14.4-12.4-17.8-6.9-44.4,12.4-59.4,2.4-1.8,4.9-3.4,7.4-4.8,8.2-4.3,17.4-6,26-4.7,9.7,1.5,18.1,6.6,23.6,14.4,12.4,17.8,6.8,44.4-12.3,59.4Z"/>
    <path class="st4" d="M729.8,78.3h0c-5.5-7.9-13.9-13-23.6-14.4-8.6-1.3-17.8.4-26,4.7-2.6,1.3-5.1,2.9-7.4,4.8-19.2,15-24.8,41.7-12.4,59.4,5.5,7.9,13.9,13,23.6,14.4,2.1.3,4.3.5,6.5.4,9.4-.2,18.9-3.6,27-9.9,19.2-15,24.8-41.7,12.3-59.4ZM690.4,74.7c0-.7.6-1.4,1.3-1.6,8.5-2.6,17.2-1.8,23.9,2.1.7.4,1,1.1.9,1.9,0,.2-.1.5-.2.7-.3.6-1,.9-1.6.9s-.6,0-1-.3c-5.7-3.4-13.3-4.1-20.8-1.8-1,.3-2-.3-2.3-1.2,0-.2,0-.5,0-.7ZM678.7,111.2c-.9-2.5-1.2-4.8-1.2-6.7l6.2-1.5c0,1.8.3,3.8.9,5.8.4,1.4,1.1,2.8,1.8,4l6.5-5c-.5-1.2-.9-2.3-1.3-3.6-.5-1.4-.7-2.8-.8-4.3-.1-1.4.1-2.8.7-4.1.5-1.3,1.5-2.5,2.9-3.6,1.5-1.2,3.3-1.9,5.1-2,.2,0,.5,0,.7,0,1.6,0,3.3.5,5.1,1.5,1.3.8,2.6,1.9,3.9,3.4l4.3-3.4,2.8,4-4.3,3.3c.8,1.3,1.4,2.6,2,4,.8,2,1.2,4,1.3,5.9l-6.1,1.7c-.2-1.8-.5-3.5-1.1-5.1-.3-.9-.7-1.7-1.1-2.5l-6.6,5.2c.5,1.1.9,2.3,1.2,3.5.4,1.4.7,2.8.8,4.2s0,2.8-.6,4.1c-.5,1.3-1.5,2.5-2.9,3.6-1.5,1.2-3.2,1.9-5.1,2-.2,0-.5,0-.7,0-1.7,0-3.3-.5-5.1-1.5-1.3-.8-2.6-1.8-3.8-3.2l-4.3,3.4-2.8-4,4.3-3.3c-1.1-1.8-2-3.6-2.7-5.6ZM690.3,141.9c-4.3,0-8.5-.8-12.4-2.5-.1,0-.2-.1-.3-.2-.7-.5-1-1.4-.6-2.3.4-1,1.5-1.4,2.5-1,10,4.4,22.6,2.2,32.7-5.8,14.7-11.5,19.4-31.3,10.5-44.1-.6-.8-.4-2,.5-2.6.7-.5,1.7-.4,2.4.2,0,0,.2.2.2.3h0c.6.9,1.2,1.8,1.7,2.8,7.7,14.4,2.3,34.5-12.9,46.4-7.4,5.8-15.9,8.8-24.1,8.8Z"/>
    <path class="st4" d="M698,100.5c0,.8.1,1.8.5,2.8l5.5-4.3c-.2-.2-.4-.4-.7-.6-.8-.6-1.6-.8-2.3-.8-.7,0-1.4.2-1.9.7-.7.6-1.1,1.3-1.1,2.2Z"/>
    <path class="st4" d="M690.3,117.4c.6.4,1.2.6,1.7.6,0,0,0,0,.1,0,0,0,0,0,0,0,.7,0,1.2-.2,1.8-.6,0,0,0,0,0,0,.7-.6,1.1-1.3,1.1-2.2,0-.8-.2-1.7-.4-2.7l-5.3,4.1c.2.1.3.3.5.4.1.1.3.2.4.3Z"/>
    <path class="st3" d="M727.4,86.7c-.5-1-1.1-1.9-1.7-2.8h0c0-.1-.2-.2-.2-.3-.6-.6-1.6-.7-2.4-.2-.8.6-1,1.8-.5,2.6,9,12.8,4.2,32.6-10.5,44.1-10.2,7.9-22.7,10.1-32.7,5.8-.9-.4-2,0-2.4,1-.4.8,0,1.8.6,2.3.1,0,.2.1.3.2,3.9,1.7,8.1,2.5,12.4,2.5,8.2,0,16.8-3,24.1-8.8,15.2-11.9,20.6-32.1,12.9-46.4Z"/>
    <path class="st3" d="M679.9,124.1l4.3-3.4c1.2,1.4,2.5,2.5,3.8,3.2,1.7,1,3.4,1.5,5.1,1.5.2,0,.5,0,.7,0,1.9-.1,3.6-.8,5.1-2,1.4-1.1,2.3-2.3,2.9-3.6.5-1.3.7-2.7.6-4.1s-.4-2.8-.8-4.2c-.4-1.2-.8-2.3-1.2-3.5l6.6-5.2c.4.8.8,1.6,1.1,2.5.6,1.6,1,3.3,1.1,5.1l6.1-1.7c-.1-1.9-.6-3.8-1.3-5.9-.5-1.4-1.2-2.7-2-4l4.3-3.3-2.8-4-4.3,3.4c-1.3-1.5-2.6-2.6-3.9-3.4-1.7-1-3.4-1.5-5.1-1.5-.2,0-.5,0-.7,0-1.9.2-3.6.8-5.1,2-1.4,1.1-2.4,2.3-2.9,3.6s-.8,2.7-.7,4.1c0,1.4.4,2.9.8,4.3.4,1.2.8,2.4,1.3,3.6l-6.5,5c-.7-1.3-1.3-2.6-1.8-4-.6-2.1-.9-4-.9-5.8l-6.2,1.5c0,2,.3,4.2,1.2,6.7.7,2,1.6,3.8,2.7,5.6l-4.3,3.3,2.8,4ZM698,100.5c0-.9.4-1.7,1.1-2.2.6-.4,1.2-.7,1.9-.7s0,0,0,0c.7,0,1.5.3,2.3.8.2.1.4.4.7.6l-5.5,4.3h0c-.3-1-.5-2-.5-2.8h0ZM694.6,112.5h0c.3,1,.5,1.9.5,2.7,0,.9-.4,1.7-1.1,2.2,0,0,0,0,0,0-.5.4-1.1.6-1.8.6,0,0,0,0,0,0h0s0,0-.1,0c-.5,0-1.1-.3-1.7-.6-.1,0-.3-.2-.4-.3-.2-.1-.3-.3-.5-.4l5.3-4.1Z"/>
    <path class="st3" d="M692.8,76.6c7.5-2.3,15.1-1.7,20.8,1.8.3.2.6.3,1,.3.6,0,1.3-.3,1.6-.9.1-.2.2-.5.2-.7,0-.7-.2-1.5-.9-1.9-6.6-4-15.3-4.7-23.9-2.1-.7.2-1.2.9-1.3,1.6,0,.2,0,.5,0,.7.3,1,1.3,1.5,2.3,1.2Z"/>
    <path class="st4" d="M528.7,558.8c2-.4,3.9-.9,5.8-1.6l-1.1-6.7c-1.8.6-3.6,1.1-5.5,1.4-2.9.6-5.7.8-8.6.9l1,6.8c2.8,0,5.5-.4,8.3-.9Z"/>
    <path class="st4" d="M490.8,544.8c-.7-.5-1.4-1.1-2.1-1.6l.7,4.8c1.5,1.5,3.2,3,5,4.3,2.4,1.7,5.1,3.1,7.8,4.2l-1-6.3c-3.8-1.3-7.3-3.1-10.5-5.4Z"/>
    <path class="st4" d="M516.9,559.6l-1-6.7c-4-.1-7.9-.7-11.6-1.8l1,6.4c3.7,1.2,7.6,1.9,11.6,2.1Z"/>
    <path class="st4" d="M485.3,540h0c-1.3-1.3-2.4-2.6-3.5-4.1,1,2.7,2.4,5.2,4,7.5l-.5-3.5Z"/>
    <path class="st4" d="M548,550.4l-1-6.4c-3.5,2.3-7.3,4.3-11.4,5.7l1.1,6.7c4.1-1.6,7.9-3.6,11.4-6.1Z"/>
    <path class="st4" d="M561.8,529.1h0l.7,4.4c2.2-4.5,3.7-9.3,4.1-14.3-1.2,3.4-2.8,6.8-4.8,9.9Z"/>
    <path class="st4" d="M549.1,542.6l1,6.2c4.1-3.3,7.5-7.1,10.2-11.3l-.8-5.1c-2.9,3.8-6.4,7.3-10.4,10.2Z"/>
    <path class="st3" d="M567.9,496h0c0-.4-.3-.8-.6-1-2.4-8.4-7.6-15.7-15-20.9-10.2-7.2-23.7-9.8-37-7.1-23.9,4.8-41.2,25-41,46.5-.2.3-.3.7-.2,1.1l.6,4.1h0s1.5,10.5,1.5,10.5c1.5,10.5,7.3,19.7,16.1,26,7.6,5.4,17,8.2,26.8,8.2s6.9-.3,10.3-1c25.8-5.2,44-28.4,40.6-51.8l-2.1-14.6ZM481.8,535.9s0,0,0,0c1.1,1.4,2.2,2.8,3.5,4.1h0s.5,3.4.5,3.4h0c-1.6-2.3-3-4.9-4-7.5ZM502.3,556.5c-2.8-1.1-5.4-2.5-7.8-4.2-1.8-1.3-3.5-2.7-5-4.3l-.7-4.8h0c.7.5,1.4,1.1,2.1,1.6,3.2,2.3,6.8,4,10.5,5.4l1,6.3s0,0,0,0ZM505.3,557.6l-1-6.4s0,0,0,0c3.7,1,7.6,1.6,11.6,1.8l1,6.7h0c-4-.2-7.9-.9-11.6-2.1ZM493,541.8c-8-5.7-13.2-14-14.6-23.5-.3-2-.4-4-.4-6,.5-18.6,15.3-36,35.8-41.1.7-.2,1.5-.3,2.2-.5,3.2-.6,6.4-1,9.6-1,9,0,17.6,2.6,24.6,7.5,8,5.7,13.2,14,14.6,23.5,3,20.8-12.8,41.4-35.5,47.1-.7.2-1.5.3-2.2.5-12.3,2.5-24.8.1-34.2-6.5ZM528.7,558.8c-2.8.6-5.6.8-8.3.9l-1-6.8h0s0,0,0,0c2.8,0,5.7-.4,8.6-.9,1.9-.4,3.7-.9,5.5-1.4l1.1,6.7h0c-1.9.6-3.8,1.2-5.8,1.6ZM536.6,556.5l-1.1-6.7h0c4.1-1.5,7.9-3.4,11.4-5.7l1,6.4h0c-3.4,2.5-7.3,4.5-11.4,6.1ZM550.1,548.7s0,0,0,0l-1-6.2c4-3,7.5-6.4,10.4-10.2h0s.8,5.1.8,5.1c-2.7,4.2-6.2,8.1-10.2,11.3ZM562.5,533.5h0s-.7-4.4-.7-4.4h0c2-3.1,3.6-6.4,4.8-9.9,0,0,0,0,0,0-.4,5-1.8,9.8-4.1,14.3Z"/>
    <path class="st4" d="M529.4,547.8c22.7-5.6,38.5-26.3,35.5-47.1-1.4-9.5-6.6-17.8-14.6-23.5-7-4.9-15.6-7.5-24.6-7.5s-6.4.3-9.6,1c-.7.2-1.5.3-2.2.5-20.5,5.1-35.4,22.5-35.8,41.1,0,2,0,4,.4,6,1.4,9.5,6.6,17.8,14.6,23.5,9.4,6.6,21.8,9,34.2,6.5.7-.2,1.5-.3,2.2-.5ZM488.3,514.5c.2,1-.6,2-1.6,2.1,0,0-.2,0-.3,0-.7,0-1.3-.4-1.6-1-.1-.2-.2-.4-.2-.6h0c-2.5-17.4,11.9-34.9,32.1-38.9,13.1-2.6,25.9.8,33.9,9.1.5.6,1.1,1.1,1.6,1.7h0c.7.8.5,2-.2,2.6-.8.7-2,.6-2.6-.2,0,0,0,0,0,0,0,0,0,0,0,0-.4-.5-.9-1-1.4-1.5-7.2-7.3-18.6-10.4-30.5-8-18.3,3.7-31.4,19.3-29.1,34.7ZM512.2,538.5c0,.1,0,.2,0,.3,0,0,0,0,0,0-.3.7-1,1.2-1.8,1.2s-.2,0-.3,0c-8.8-1.5-16.2-6.1-20.4-12.6-.2-.3-.3-.7-.3-1.1,0-.6.3-1.2.9-1.5.3-.2.7-.3,1.1-.3.6,0,1.2.3,1.5.9,3.6,5.6,10.1,9.6,17.9,10.9.9.1,1.5.9,1.6,1.8,0,.1,0,.3,0,.4ZM524.2,512.3c-.2,1.5-.6,2.9-1.2,4.2-.5,1.3-1.4,2.4-2.4,3.3-1.1.9-2.5,1.6-4.3,1.9-1.9.4-3.8.2-5.5-.5-1.7-.7-3.2-2-4.5-3.9-.8-1.3-1.5-2.9-2-4.8l-5.4,1.1h0s0,0,0,0h0s0,0,0,0h0s-.7-4.8-.7-4.8h0s5.3-1,5.3-1c0-.7,0-1.5,0-2.2,0-.7,0-1.5.1-2.2.2-2.2.7-4.1,1.4-5.9l6.2,1.3s0,0,0,0h0c-.6,1.7-1.1,3.4-1.3,5.1-.1.9-.1,1.8-.1,2.7l8.2-1.6c.1-1.2.2-2.4.4-3.7.2-1.5.6-2.8,1.2-4.1.5-1.3,1.3-2.4,2.4-3.4,1.1-1,2.5-1.6,4.2-2,1.9-.4,3.7-.2,5.4.5,1.7.7,3.2,2,4.5,4,.8,1.3,1.5,2.8,2,4.6l5.4-1.1.7,4.9h0s0,0,0,0l-5.3,1.1c0,.2,0,.3,0,.5.1,1.9.1,3.8-.1,5.7-.4,2.6-1,4.8-2,6.5l-6.3-1.5s0,0,0,0h0c.8-1.6,1.4-3.5,1.8-5.6.2-1.1.3-2.2.3-3.3,0-.4,0-.7,0-1.1l-8,1.6c-.1,1.2-.2,2.5-.4,3.8Z"/>
    <path class="st4" d="M511,512.1c.5.9,1,1.5,1.7,1.8.6.3,1.3.4,2,.3.9-.2,1.6-.7,2-1.5h0c.4-.7.7-1.7.8-2.7l-6.8,1.4c.1.3.2.6.3.8Z"/>
    <path class="st4" d="M529.9,499.7c-.6-.3-1.2-.4-2-.3-.9.2-1.6.7-2,1.5-.2.3-.3.7-.5,1.2,0,.3-.2.6-.2,1,0,.1,0,.3,0,.4l6.5-1.3c0-.2-.1-.4-.2-.6-.5-.9-1-1.5-1.6-1.8Z"/>
    <path class="st3" d="M486.4,516.7c0,0,.2,0,.3,0,1-.2,1.7-1.1,1.6-2.1-2.2-15.5,10.8-31.1,29.2-34.7,11.9-2.4,23.3.7,30.5,8,.5.5.9,1,1.4,1.5,0,0,0,0,0,0,.7.8,1.8.9,2.6.2.8-.7.9-1.8.2-2.6-.5-.6-1-1.2-1.5-1.7-8-8.2-20.8-11.7-33.9-9.1-20.2,4.1-34.6,21.5-32.1,38.9h0c0,.2.1.5.2.7.3.6.9,1,1.6,1Z"/>
    <path class="st3" d="M532.6,508c0,1.1,0,2.2-.3,3.3-.4,2.1-1,4-1.8,5.6,0,0,0,0,0,0l6.3,1.5c.9-1.7,1.6-3.9,2-6.5.3-1.9.3-3.8.1-5.7,0-.2,0-.3,0-.5h0s5.3-1.1,5.3-1.1h0s-.7-4.8-.7-4.8l-5.4,1.1c-.5-1.8-1.1-3.3-2-4.6-1.3-1.9-2.8-3.2-4.5-4-1.7-.7-3.5-.9-5.4-.5-1.7.3-3.1,1-4.2,2-1.1.9-1.9,2.1-2.4,3.4-.5,1.3-.9,2.7-1.2,4.1-.2,1.2-.3,2.4-.4,3.6l-8.2,1.7s0,0,0,0c0-.9,0-1.7.1-2.7.2-1.7.6-3.4,1.3-5h0s-6.2-1.3-6.2-1.3c-.7,1.7-1.2,3.7-1.4,5.8,0,.7-.1,1.5-.1,2.2,0,.7,0,1.5,0,2.2,0,0,0,0,0,0l-5.3,1.1.7,4.8h0s5.4-1.1,5.4-1.1c.5,1.9,1.1,3.5,2,4.8,1.2,1.9,2.8,3.2,4.5,3.9,1.7.7,3.6.9,5.5.5,1.8-.4,3.2-1,4.3-1.9,1.1-.9,1.9-2,2.4-3.3.6-1.3,1-2.7,1.2-4.2.2-1.3.3-2.5.4-3.8l8-1.6c0,.4,0,.7,0,1.1ZM517.5,510c-.2,1.1-.4,2-.8,2.7h0c-.4.8-1.1,1.3-2,1.5-.7.1-1.4,0-2-.3-.6-.3-1.2-.9-1.7-1.8-.1-.2-.2-.5-.3-.8,0,0,0,0,0,0l6.8-1.4s0,0,0,0ZM531.7,502.1l-6.5,1.3h0c0-.1,0-.3,0-.4,0-.3.1-.7.2-1,.1-.4.3-.8.5-1.2.4-.8,1.1-1.3,2-1.5.7-.1,1.4,0,2,.3.6.3,1.1,1,1.6,1.8,0,.2.2.4.2.6h0Z"/>
    <polygon class="st3" points="498.9 513.7 498.9 513.7 498.9 513.7 498.9 513.7"/>
    <path class="st3" d="M510.7,536.4h0c-7.8-1.3-14.3-5.3-17.9-10.9-.3-.5-.9-.8-1.5-.9-.4,0-.7,0-1.1.3-.5.3-.8.9-.9,1.5,0,.4,0,.7.3,1.1,4.1,6.5,11.6,11.1,20.4,12.6.1,0,.2,0,.3,0,.8,0,1.5-.5,1.8-1.2,0,0,0,0,0,0,0,0,0-.2,0-.3,0-.1,0-.3,0-.4,0-.9-.7-1.6-1.6-1.8Z"/>
    <path class="st4" d="M238.1,69.9c1,2.7,2.4,5.2,4,7.6l-.5-3.5c-1.3-1.3-2.4-2.7-3.5-4.1Z"/>
    <path class="st4" d="M284.2,85.9c-2.9.6-5.7.8-8.6.9l1,6.8c2.8,0,5.5-.4,8.3-.9,0,0,.1,0,.2,0,1.8-.4,3.5-.9,5.2-1.4.1,0,.2,0,.4-.1l-1.1-6.7c-1.8.6-3.6,1.1-5.5,1.4Z"/>
    <path class="st4" d="M247.1,78.8c-.7-.5-1.4-1.1-2.1-1.6l.7,4.8c1.5,1.5,3.2,3,5,4.3,2.4,1.7,5.1,3.1,7.8,4.2l-1-6.3c-3.8-1.3-7.3-3.1-10.5-5.4Z"/>
    <path class="st4" d="M273.2,93.6l-1-6.7c-4-.1-7.9-.7-11.6-1.8l1,6.4c3.7,1.2,7.6,1.9,11.6,2.1Z"/>
    <path class="st4" d="M305.4,76.6l1,6.2c4.1-3.3,7.5-7.1,10.2-11.3l-.8-5.1c-2.9,3.8-6.4,7.3-10.4,10.2Z"/>
    <path class="st4" d="M318.8,67.5c.6-1.2,1.1-2.4,1.6-3.7,1.3-3.4,2.2-7,2.5-10.7-1.2,3.5-2.8,6.8-4.8,9.9l.7,4.4Z"/>
    <path class="st4" d="M304.2,84.4l-1-6.4c-3.5,2.3-7.3,4.3-11.4,5.7l1.1,6.7c4.1-1.6,7.9-3.6,11.4-6.1Z"/>
    <path class="st3" d="M324.8,34.2h0s-.6-4.1-.6-4.1c0-.4-.3-.8-.6-1-2.4-8.4-7.6-15.6-15-20.9-10.2-7.2-23.7-9.8-37-7.1-23.9,4.8-41.2,25-41,46.5-.2.3-.3.7-.2,1.1l.6,4.1h0s1.5,10.5,1.5,10.5c1.5,10.5,7.3,19.7,16.2,26,7.6,5.3,17,8.1,26.8,8.1s6.8-.3,10.3-1c25.8-5.2,44-28.4,40.7-51.8l-1.5-10.5ZM238.1,69.9c1.1,1.4,2.2,2.8,3.5,4.1l.5,3.5c-1.7-2.4-3-4.9-4-7.6ZM250.8,86.3c-1.8-1.3-3.5-2.7-5-4.3l-.7-4.8c.7.5,1.4,1.1,2.1,1.6,3.2,2.3,6.8,4,10.5,5.4l1,6.3c-2.8-1.1-5.4-2.5-7.8-4.2ZM261.6,91.6l-1-6.4s0,0,0,0c3.7,1,7.6,1.6,11.6,1.8l1,6.7h0c-4-.2-7.9-.9-11.6-2.1ZM257.4,80.1c-2.9-1.2-5.6-2.6-8.2-4.4-8-5.7-13.2-14-14.6-23.5-3.1-21.4,13.8-42.8,37.7-47.6,3.2-.6,6.4-1,9.6-1s0,0,0,0,0,0,0,0c9,0,17.6,2.6,24.6,7.5,8,5.7,13.2,14,14.6,23.5,3.1,21.4-13.8,42.8-37.7,47.6-9,1.8-18.1,1-26-2.1ZM290.4,91.3c-1.7.5-3.4,1-5.2,1.4,0,0-.1,0-.2,0-2.8.6-5.6.8-8.3.9,0,0,0,0,0,0l-1-6.8h0c2.8,0,5.7-.4,8.6-.9,1.9-.4,3.7-.9,5.5-1.4h0s1.1,6.7,1.1,6.7c-.1,0-.2,0-.4.1ZM292.9,90.5l-1.1-6.7h0c4.1-1.5,7.9-3.4,11.4-5.7l1,6.4h0c-3.5,2.5-7.3,4.5-11.4,6.1ZM316.6,71.4c-2.7,4.2-6.2,8.1-10.2,11.3l-1-6.2h0c4-3,7.5-6.4,10.4-10.2l.8,5.1s0,0,0,0ZM320.4,63.8c-.5,1.2-1,2.5-1.6,3.7l-.7-4.4c2-3.1,3.6-6.5,4.8-9.9-.3,3.7-1.1,7.2-2.5,10.7Z"/>
    <path class="st4" d="M321.1,34.7c-1.4-9.5-6.6-17.8-14.6-23.5-7-4.9-15.6-7.5-24.6-7.5s0,0,0,0c-3.2,0-6.4.3-9.6,1-23.9,4.8-40.8,26.2-37.7,47.6h0c1.4,9.5,6.6,17.8,14.6,23.5,2.5,1.8,5.3,3.2,8.1,4.4,7.9,3.1,17,3.9,26,2.1,23.9-4.8,40.8-26.1,37.7-47.6ZM244.4,47.1c0,.5,0,1,.2,1.4,0,.1,0,.3,0,.4,0,.9-.7,1.6-1.6,1.8,0,0-.2,0-.3,0-.9,0-1.7-.7-1.8-1.6-.2-1.1-.3-2.2-.3-3.3-.4-16.3,13.4-31.9,32.4-35.7,14-2.8,27.6,1.3,35.5,10.8.3.4.5.9.4,1.4,0,.5-.3.9-.7,1.3-.8.7-2,.5-2.6-.2-7-8.4-19.2-12.1-31.8-9.5-17.7,3.6-30.6,18.3-29.3,33.3ZM268.5,72.5c0,.1,0,.2,0,.3,0,0,0,0,0,0-.3.7-1,1.2-1.8,1.2s-.2,0-.3,0c-8.8-1.5-16.2-6.1-20.4-12.6-.2-.3-.3-.7-.3-1.1,0-.6.3-1.2.9-1.5.3-.2.7-.3,1.1-.3.6,0,1.2.3,1.5.9,3.6,5.6,10.1,9.6,17.9,10.9.9.1,1.5.9,1.6,1.8,0,.1,0,.3,0,.4ZM280.7,44.4s0,0,0,0c0,.6-.1,1.2-.2,1.9-.2,1.5-.6,2.9-1.2,4.2-.1.3-.3.6-.5.9-.5.9-1.2,1.7-2,2.4-1.1.9-2.5,1.6-4.3,1.9-1.9.4-3.8.2-5.5-.5-1.7-.7-3.2-2-4.5-3.9-.8-1.3-1.5-2.9-2-4.8l-5.4,1.1h0s-.7-4.8-.7-4.8h0s0,0,0,0l5.3-1.1c0-1.5-.1-2.9,0-4.4.2-2.2.7-4.1,1.4-5.9h0s0,0,0,0l6.2,1.3c-.7,1.7-1.1,3.4-1.3,5.1-.1.9-.1,1.8-.1,2.7l8.2-1.6c.1-1.2.2-2.4.4-3.6.2-1.5.6-2.8,1.2-4.1,0,0,0,0,0-.1.5-1.2,1.3-2.3,2.3-3.3,1.1-1,2.5-1.6,4.2-2,1.9-.4,3.7-.2,5.4.5,1.7.7,3.2,2,4.5,4,.8,1.3,1.5,2.8,2,4.6l5.4-1.1.7,4.8h0s0,0,0,0l-5.3,1.1c.2,2.1.2,4.1,0,6.2-.4,2.6-1,4.8-2,6.6h0s0,0,0,0l-6.3-1.5c0-.2.1-.3.2-.5.1-.3.3-.5.4-.8.5-1.3.9-2.7,1.2-4.3.3-1.5.3-3,.2-4.4l-8,1.6c0,.6-.1,1.2-.2,1.9Z"/>
    <path class="st4" d="M267.3,46.1c.5.9,1,1.5,1.7,1.8.6.3,1.3.4,2,.3.9-.2,1.6-.7,2-1.5h0c.4-.7.7-1.7.8-2.7l-6.8,1.4c.1.3.2.6.3.8Z"/>
    <path class="st4" d="M287.9,35.8c0-.1,0-.2-.1-.3-.5-.9-1-1.5-1.6-1.8-.6-.3-1.2-.4-1.9-.3-.9.2-1.6.7-2,1.5-.2.3-.3.7-.5,1.2,0,.3-.2.6-.2,1,0,.1,0,.3,0,.4l6.5-1.3c0,0,0-.2-.1-.3,0,0,0,0,0,0Z"/>
    <path class="st3" d="M273.7,13.8c12.6-2.6,24.8,1.1,31.8,9.5.7.8,1.8.9,2.6.2.4-.3.6-.8.7-1.3,0-.5,0-1-.4-1.4-7.9-9.5-21.5-13.6-35.5-10.8-19,3.8-32.8,19.4-32.4,35.7,0,1.1.1,2.2.3,3.3.1.9.9,1.6,1.8,1.6s.2,0,.3,0c.9-.1,1.5-.9,1.6-1.7,0-.1,0-.3,0-.4,0-.5-.1-1-.2-1.4-1.3-15,11.6-29.7,29.3-33.3Z"/>
    <path class="st3" d="M288.7,45.3c-.3,1.6-.7,3-1.2,4.3-.1.3-.2.5-.4.8,0,.2-.1.3-.2.5l6.3,1.5s0,0,0,0c.9-1.7,1.6-3.9,1.9-6.5.3-2,.3-4.1,0-6.2h0s5.3-1.1,5.3-1.1h0s-.7-4.9-.7-4.9l-5.4,1.1c-.5-1.8-1.1-3.3-2-4.6-1.3-1.9-2.8-3.2-4.5-4-1.7-.7-3.5-.9-5.4-.5-1.7.4-3.1,1-4.2,2-1,.9-1.8,2-2.3,3.3,0,0,0,0,0,.1-.5,1.3-.9,2.7-1.2,4.1-.2,1.2-.3,2.4-.4,3.6,0,0,0,0,0,0l-8.2,1.6c0-.9,0-1.8.1-2.7.2-1.7.6-3.4,1.3-5l-6.2-1.3h0c-.7,1.7-1.2,3.7-1.4,5.8-.1,1.5-.1,3,0,4.4,0,0,0,0,0,0l-5.3,1.1h0s.7,4.9.7,4.9h0s5.4-1.1,5.4-1.1c.5,1.9,1.1,3.5,2,4.8,1.2,1.9,2.8,3.2,4.5,3.9,1.7.7,3.6.9,5.5.5,1.8-.4,3.2-1,4.3-1.9.8-.7,1.5-1.5,2-2.4.2-.3.3-.6.5-.9.5-1.3,1-2.7,1.2-4.2,0-.6.2-1.3.2-1.9,0,0,0,0,0,0,0-.6.1-1.2.2-1.9h0s8-1.6,8-1.6c0,1.4,0,2.9-.2,4.4ZM273.8,44c-.2,1.1-.4,2-.8,2.7h0c-.4.8-1.1,1.3-2,1.5-.7.1-1.4,0-2-.3-.6-.3-1.2-.9-1.7-1.8-.1-.2-.2-.5-.3-.8,0,0,0,0,0,0l6.8-1.4s0,0,0,0ZM288,36.1l-6.5,1.3h0c0-.1,0-.3,0-.4,0-.3.1-.7.2-1,.1-.4.3-.8.5-1.2.4-.8,1.1-1.3,2-1.5.7-.1,1.4,0,1.9.3.6.3,1.1,1,1.6,1.8,0,0,0,.2.1.3,0,0,0,0,0,0,0,.1,0,.2.1.3h0Z"/>
    <path class="st3" d="M267,70.4h0c-7.8-1.3-14.3-5.3-17.9-10.9-.3-.5-.9-.8-1.5-.9-.4,0-.7,0-1.1.3-.5.3-.8.9-.9,1.5,0,.4,0,.7.3,1.1,4.1,6.5,11.6,11.1,20.4,12.6.1,0,.2,0,.3,0,.8,0,1.5-.5,1.8-1.2,0,0,0,0,0,0,0,0,0-.2,0-.3,0-.1,0-.3,0-.4,0-.9-.7-1.6-1.6-1.8Z"/>
    <g>
      <rect class="st2" x="26.2" y="188.2" width="5.5" height="0" transform="translate(-124.6 75.6) rotate(-45)"/>
      <path class="st2" d="M58.4,164.2s0,0,0,0c0,0,0,0,0,0l4.2-3.4-2.9-4h0s2.9,4,2.9,4l-4.2,3.4Z"/>
      <path class="st2" d="M55.4,160.2h0c-1.3-1.4-2.6-2.4-3.9-3.2,0,0,0,0,0,0,0,0,0,0,0,0,1.3.7,2.6,1.8,3.9,3.2Z"/>
      <path class="st2" d="M56.3,178h0s6.2-1.6,6.2-1.6c0,0,0,0,0,0,0,0,0,0,0,0l-6.2,1.6Z"/>
      <path class="st2" d="M61.3,169.9c0,0,0-.2,0-.2,0,0,0,0,0-.1,0,0,0,0,0,.1,0,0,0,.2,0,.2Z"/>
      <path class="st2" d="M40.6,157.8c-1.3,1.1-2.2,2.3-2.7,3.6.5-1.3,1.4-2.5,2.7-3.6Z"/>
      <path class="st2" d="M41.5,177.9c.4,1,.6,2,.6,2.8,0-.9-.2-1.8-.6-2.8Z"/>
      <path class="st2" d="M42.1,180.7c0,.9-.4,1.7-1.1,2.3.7-.6,1.1-1.3,1.1-2.3Z"/>
      <path class="st2" d="M33.1,178.5h0c-.4-.8-.8-1.6-1.1-2.4,0,0,0,0,0,0,0,0,0,0,0,0,.3.9.7,1.7,1.2,2.4Z"/>
      <path class="st2" d="M41,183c-.6.5-1.2.7-1.9.7.7,0,1.3-.2,1.9-.7Z"/>
      <path class="st2" d="M50.3,164.4s0,0,0,0l-5.2,4.2c-.3-1-.5-1.9-.5-2.6,0,0,0,0,0,0h0c0,.8.2,1.7.5,2.7l5.2-4.2Z"/>
      <path class="st2" d="M34.7,217.5c11.4,1.5,23.5-2.3,33.2-10.2-9.7,7.9-21.8,11.7-33.2,10.2Z"/>
      <path class="st2" d="M35,189.8c2,1.1,3.9,1.6,5.8,1.4,0,0,0,0,0,0,0,0,0,0,0,0-1.9.2-3.8-.3-5.8-1.4Z"/>
      <path class="st2" d="M55,143.4c-.8-.2-1.7-.3-2.5-.4.9,0,1.7.2,2.5.4Z"/>
      <path class="st2" d="M17.4,198.3c.8-.6,1-1.8.4-2.6.6.8.4,2-.4,2.6Z"/>
      <path class="st2" d="M55,143.4c1.7.3,3.3.8,4.9,1.5.2,0,.5.1.7.1-.2,0-.5,0-.7-.1-1.6-.7-3.2-1.1-4.9-1.5Z"/>
      <path class="st2" d="M24.9,148.5c11-9,24.9-11.7,36.3-7.1-11.4-4.6-25.3-1.9-36.3,7.1-16,13.1-20.5,35.2-10.2,49.4,0,0,0,0,0,0,0,0,0,0,0,0-10.4-14.2-5.8-36.4,10.2-49.4Z"/>
      <path class="st2" d="M40.7,157.7c1.5-1.2,3.1-1.9,5-2-1.8.2-3.5.8-5,2Z"/>
      <path class="st2" d="M38.2,169.7c-.4-1.1-.6-2.3-.8-3.4.2,1.1.4,2.3.8,3.4Z"/>
      <path class="st2" d="M30.7,171h0s0,0,0,0c0,0,0,0,0,0Z"/>
      <path class="st2" d="M39.6,173.2c-.5-1.1-.9-2.2-1.3-3.4.4,1.1.8,2.3,1.3,3.4Z"/>
      <path class="st2" d="M47.1,173.4c.5,1.2,1,2.3,1.4,3.5.5,1.4.8,2.8.9,4.2.1,1.4,0,2.8-.6,4.1-.5,1.3-1.5,2.5-2.9,3.7,0,0,0,0,0,0,0,0,0,0,0,0,1.4-1.1,2.3-2.4,2.9-3.7.5-1.3.7-2.7.6-4.1-.1-1.4-.4-2.8-.9-4.2-.4-1.2-.9-2.4-1.4-3.5l6.3-5.2h0s-6.3,5.2-6.3,5.2Z"/>
      <path class="st2" d="M39.1,183.7c-.7,0-1.5-.2-2.3-.8.8.5,1.6.8,2.3.8Z"/>
      <path class="st2" d="M34.2,221.2c1.8.2,3.6.3,5.4.3s4.3-.2,6.4-.5h0c-2.1.3-4.3.5-6.4.5s-3.6-.1-5.4-.3c-.9-.1-1.7-.3-2.6-.5l2.9,3.9h0s-2.9-3.9-2.9-3.9c.9.2,1.7.3,2.6.5Z"/>
      <path class="st2" d="M74.2,215.9c-2.2,1.8-4.5,3.4-7,4.7,2.4-1.3,4.8-2.9,7-4.7Z"/>
      <path class="st2" d="M60.1,216.7c-3.6,1.7-7.3,3-11.1,3.8l3.9,5.2h0l-3.9-5.2c3.8-.8,7.5-2.1,11.1-3.8Z"/>
      <path class="st2" d="M24.4,203.9c.5-.9,1.6-1.2,2.5-.7,5.8,3.3,13.4,3.8,20.9,1.3,1-.3,2,.2,2.4,1.2,0,.2.1.5,0,.7,0-.2,0-.5,0-.7-.3-1-1.4-1.5-2.4-1.2-7.5,2.5-15.1,2-20.9-1.3-.9-.5-2-.2-2.5.7-.3.4-.3,1-.2,1.4-.1-.5,0-1,.2-1.4Z"/>
      <path class="st2" d="M22,217.6s0,0,0,0c1.6.8,3.3,1.4,5,2l2.1,2.8s0,0,0,0l-2.1-2.8c-1.7-.5-3.4-1.2-5-2Z"/>
      <path class="st2" d="M84.6,192c2.2-4.5,3.6-9.2,4.4-13.9h0c-.8,4.7-2.3,9.4-4.4,13.9h0Z"/>
      <polygon class="st2" points="74.5 206.4 78.5 211.8 74.5 206.4 74.5 206.4"/>
      <path class="st2" d="M89.1,178.1l3.1,4.1c-.4,5-1.7,10-3.7,14.8h0c2.1-4.8,3.3-9.8,3.8-14.8l-3.1-4.1s0,0,0,0h0s0,0,0,0Z"/>
      <path class="st2" d="M21.8,143.9c8.3-6.8,18.4-10.5,28.3-10.5,0,0,0,0,0,0-9.9,0-20,3.7-28.3,10.5-18.9,15.4-23.8,42.2-11,59.7h0c-12.8-17.5-7.8-44.3,11-59.7Z"/>
      <path class="st4" d="M22,217.6c2.1,1.9,4.5,3.5,7.1,4.8l-2.1-2.8c-1.7-.5-3.4-1.2-5-2Z"/>
      <path class="st4" d="M76,204.7l4.1,5.4c2.9-3.3,5.3-6.9,7.2-10.7l-3.9-5.1c-2,3.7-4.5,7.2-7.4,10.4Z"/>
      <path class="st4" d="M89.1,178.1c-.8,4.7-2.3,9.4-4.4,13.9h0l3.8,5c2.1-4.8,3.3-9.8,3.7-14.8l-3.1-4.1Z"/>
      <polygon class="st4" points="89.1 178.1 89.1 178.1 89.1 178.1 89.1 178.1 89.1 178.1"/>
      <path class="st4" d="M89.6,174.1l2.7,3.6c-.1-5-1.1-10-3.1-14.6.4,2.7.6,5.5.6,8.2,0,.9,0,1.9-.1,2.8Z"/>
      <path class="st4" d="M49,220.5l3.9,5.2c3.8-.7,7.6-1.9,11.2-3.6l-4-5.5c-3.6,1.7-7.3,3-11.1,3.8Z"/>
      <path class="st4" d="M39.6,221.6c-1.8,0-3.6-.1-5.4-.3-.9-.1-1.7-.3-2.6-.5l2.9,3.9c2.1.6,4.2,1.2,6.4,1.4,2.9.4,5.9.4,8.9,0l-3.8-5.1c-2.1.3-4.3.5-6.4.5Z"/>
      <path class="st4" d="M70.3,210.2c-2.3,1.9-4.6,3.5-7.1,4.9l4.1,5.5c2.4-1.3,4.8-2.9,7-4.7,1.6-1.3,3-2.7,4.4-4.1l-4.1-5.4c-1.3,1.3-2.7,2.6-4.2,3.8Z"/>
      <path class="st3" d="M79.5,142.1c-.2-.3-.6-.5-1-.6-6.1-6.3-14-10.3-23-11.4-12.4-1.6-25.5,2.4-36.1,11-18.9,15.4-24.7,41.4-14.5,60.3,0,.4,0,.8.3,1.1l8.7,11.9c6.3,8.6,15.7,14,26.4,15.4,1.8.2,3.6.3,5.4.3,10.8,0,21.7-4,30.7-11.4h0c20.4-16.7,25.6-45.7,11.7-64.8l-8.7-11.9ZM10.8,203.6c-12.8-17.5-7.8-44.3,11-59.7,8.3-6.8,18.4-10.5,28.3-10.5s0,0,0,0,0,0,0,0c1.6,0,3.3.1,4.9.3,9.8,1.2,18.2,6.2,23.9,13.9.4.5.8,1.1,1.1,1.7,11.3,17.5,6.1,43.1-12.2,58-9.7,7.9-21.8,11.7-33.2,10.2-9.8-1.2-18.2-6.2-23.9-13.9ZM29.1,222.4c-2.6-1.3-4.9-2.9-7.1-4.8,0,0,0,0,0,0,1.6.8,3.3,1.4,5,2l2.1,2.8s0,0,0,0ZM40.9,226.1c-2.2-.3-4.4-.8-6.4-1.4h0s-2.9-3.9-2.9-3.9c.9.2,1.7.4,2.6.5,1.8.2,3.6.3,5.4.3s4.3-.2,6.4-.5h0s3.8,5.1,3.8,5.1c-3,.3-6,.3-8.9,0ZM52.9,225.7h0l-3.9-5.2c3.8-.8,7.5-2.1,11.1-3.8l4,5.5c-3.6,1.7-7.4,2.9-11.2,3.6ZM74.2,215.9c-2.2,1.8-4.5,3.4-7,4.7l-4.1-5.5c2.5-1.4,4.8-3,7.1-4.9,1.5-1.2,2.9-2.5,4.2-3.8h0s4.1,5.4,4.1,5.4c-1.4,1.4-2.8,2.8-4.4,4.1ZM80.1,210.1l-4.1-5.4c2.9-3.2,5.4-6.7,7.4-10.4l3.9,5.1c-1.9,3.8-4.3,7.4-7.2,10.7ZM92.3,177.7l-2.7-3.6c0-.9.1-1.9.1-2.8,0-2.8-.1-5.5-.6-8.2,2,4.6,3,9.5,3.1,14.6ZM89.1,178.1s0,0,0,0l3.1,4.1c-.4,5-1.7,10-3.8,14.8h0s-3.8-5-3.8-5h0c2.2-4.5,3.6-9.2,4.4-13.9,0,0,0,0,0,0Z"/>
      <path class="st4" d="M67.9,207.3c18.3-14.9,23.5-40.5,12.2-58-.4-.6-.7-1.1-1.1-1.7-5.7-7.7-14.1-12.7-23.9-13.9-1.6-.2-3.3-.3-4.9-.3s0,0,0,0c-9.9,0-20,3.7-28.3,10.5-18.9,15.4-23.8,42.2-11,59.7h0c5.7,7.7,14.1,12.7,23.9,13.9,11.4,1.5,23.5-2.3,33.2-10.2ZM17.4,198.3s0,0,0,0c-.3.2-.7.4-1.1.4h0s0,0,0,0c-.6,0-1.1-.3-1.5-.8,0,0,0,0,0,0-10.4-14.2-5.8-36.4,10.2-49.4,11-9,24.9-11.7,36.3-7.1,0,0,0,0,0,0,.9.4,1.4,1.5,1,2.4-.3.7-1,1.2-1.7,1.2-.2,0-.5,0-.7-.1-1.6-.7-3.2-1.1-4.9-1.5-.8-.2-1.7-.3-2.5-.4-.9,0-1.7-.1-2.6-.1-7.7,0-15.7,2.9-22.6,8.5-14.5,11.8-18.7,31.7-9.5,44.3,0,0,0,0,0,0,.6.8.4,2-.4,2.6ZM26.1,178.6c-.8-2-1.3-4-1.5-5.8l6.1-1.8h0s0,0,0,0c0,0,0,0,0,0,.2,1.8.6,3.4,1.2,5,0,0,0,0,0,0,.3.9.7,1.7,1.1,2.4l6.5-5.3s0,0,0,0c-.5-1.1-.9-2.2-1.3-3.4,0,0,0,0,0,0,0,0,0,0,0-.1-.4-1.1-.6-2.3-.8-3.4,0-.2,0-.5,0-.7,0-.3,0-.7,0-1,0,0,0,0,0,0,0-1,.2-2.1.6-3.1,0,0,0,0,0,0,.5-1.3,1.4-2.5,2.7-3.6,0,0,0,0,0,0,0,0,0,0,0,0,1.5-1.2,3.1-1.9,5-2,0,0,0,0,0,0,0,0,0,0,0,0,.2,0,.5,0,.7,0,1.6,0,3.3.5,5.1,1.4,0,0,0,0,0,0,1.3.7,2.6,1.8,3.9,3.1l4.3-3.5h0s0,0,0,0l2.9,4-4.2,3.4s0,0,0,0c1.1,1.7,2,3.5,2.7,5.3,0,0,0,0,0,.1,0,0,0,.2,0,.2.8,2.4,1.3,4.5,1.3,6.4,0,0,0,0,0,0l-6.2,1.6h0s0,0,0,0c0-1.8-.4-3.7-1-5.8-.5-1.4-1.1-2.7-1.9-4l-6.3,5.2c.5,1.2,1,2.3,1.4,3.5.5,1.4.8,2.8.9,4.2.1,1.4,0,2.8-.6,4.1-.5,1.3-1.5,2.5-2.9,3.7,0,0,0,0,0,0-1.5,1.2-3.2,1.9-5,2.1,0,0,0,0,0,0-1.9.2-3.8-.3-5.8-1.4,0,0,0,0,0,0-1.4-.7-2.7-1.8-4-3.3l-4.2,3.5h0s0,0,0,0l-2.9-4,4.2-3.4c-.8-1.2-1.5-2.5-2-3.9ZM24.2,205.3c-.1-.5,0-1,.2-1.4.5-.9,1.6-1.2,2.5-.7,5.8,3.3,13.4,3.8,20.9,1.3,1-.3,2,.2,2.4,1.2,0,.2.1.5,0,.7,0,.7-.5,1.4-1.3,1.6-3.5,1.2-7.1,1.7-10.6,1.7s-9.4-1.1-13.3-3.3c-.4-.3-.7-.7-.9-1.1Z"/>
      <path class="st4" d="M39.1,183.7c.7,0,1.3-.3,1.9-.7.7-.6,1.1-1.3,1.1-2.3,0-.8-.2-1.8-.6-2.8l-5.4,4.4c.2.2.5.4.7.6.8.5,1.6.8,2.3.8Z"/>
      <path class="st4" d="M50.3,164.4c-.2-.1-.3-.3-.5-.4-.8-.6-1.6-.8-2.2-.9-.7,0-1.3.2-1.9.7-.7.6-1.1,1.3-1.1,2.2,0,.8.2,1.7.5,2.6l5.2-4.2Z"/>
      <path class="st3" d="M17.8,195.7s0,0,0,0c-9.2-12.6-5-32.5,9.5-44.3,6.9-5.6,14.9-8.5,22.6-8.5.9,0,1.7,0,2.6.1.9,0,1.7.2,2.5.4,1.7.3,3.3.8,4.9,1.5.2,0,.5.1.7.1.7,0,1.4-.4,1.7-1.2.4-1,0-2-1-2.4,0,0,0,0,0,0-11.4-4.6-25.3-1.9-36.3,7.1-16,13.1-20.5,35.2-10.2,49.4,0,0,0,0,0,0,.4.5.9.8,1.5.8,0,0,0,0,0,0h0c.4,0,.8-.1,1.1-.4,0,0,0,0,0,0,.8-.6,1-1.8.4-2.6Z"/>
      <path class="st3" d="M26.8,189.9h0s4.2-3.5,4.2-3.5h0c1.3,1.4,2.6,2.5,4,3.3,0,0,0,0,0,0,2,1.1,3.9,1.6,5.8,1.4,0,0,0,0,0,0,1.8-.2,3.5-.9,5-2.1,0,0,0,0,0,0,1.4-1.1,2.4-2.4,2.9-3.7.5-1.3.7-2.7.6-4.1-.1-1.4-.4-2.8-.9-4.2-.4-1.2-.9-2.4-1.4-3.5l6.3-5.2h0c.7,1.2,1.4,2.5,1.9,4,.7,2,1,4,1,5.8h0s6.2-1.6,6.2-1.6c0,0,0,0,0,0,0-1.9-.4-4.1-1.3-6.4,0,0,0-.2,0-.2,0,0,0,0,0-.1-.7-1.9-1.6-3.6-2.7-5.3,0,0,0,0,0,0l4.2-3.4-2.9-4h0s-4.3,3.5-4.3,3.5h0c-1.3-1.4-2.6-2.4-3.9-3.1,0,0,0,0,0,0-1.8-1-3.5-1.4-5.1-1.4-.2,0-.5,0-.7,0,0,0,0,0,0,0,0,0,0,0,0,0-1.8.2-3.5.8-5,2,0,0,0,0,0,0,0,0,0,0,0,0-1.3,1.1-2.2,2.3-2.7,3.6,0,0,0,0,0,0-.4,1-.6,2-.6,3.1,0,0,0,0,0,0,0,.3,0,.7,0,1,0,.2,0,.5,0,.7.2,1.1.4,2.3.8,3.4,0,0,0,0,0,.1,0,0,0,0,0,0,.4,1.1.8,2.3,1.3,3.4,0,0,0,0,0,0l-6.5,5.3h0c-.4-.8-.8-1.6-1.2-2.4,0,0,0,0,0,0-.6-1.6-1-3.2-1.2-5,0,0,0,0,0,0h0s-6.1,1.8-6.1,1.8c.2,1.9.6,3.8,1.5,5.8.6,1.4,1.3,2.7,2,3.9l-4.2,3.4,2.9,4ZM44.7,166s0,0,0,0c0-.9.4-1.7,1.1-2.2.6-.5,1.2-.7,1.9-.7.7,0,1.4.3,2.2.9.2.1.3.3.5.4,0,0,0,0,0,0l-5.2,4.2c-.3-1-.5-1.9-.5-2.6h0ZM41.5,177.9c.4,1,.6,2,.6,2.8,0,.9-.4,1.7-1.1,2.3-.6.5-1.2.7-1.9.7-.7,0-1.5-.2-2.3-.8-.2-.1-.5-.4-.7-.6l5.4-4.4Z"/>
      <path class="st3" d="M49,208c.7-.2,1.2-.9,1.3-1.6,0-.2,0-.5,0-.7-.3-1-1.4-1.5-2.4-1.2-7.5,2.5-15.1,2-20.9-1.3-.9-.5-2-.2-2.5.7-.3.4-.3,1-.2,1.4.1.5.4.9.9,1.1,3.9,2.2,8.5,3.3,13.3,3.3s7-.6,10.6-1.7Z"/>
    </g>
    <path class="st4" d="M175.5,442.3c2.5-1.6,5-2.9,7.6-4l-3.4-6c-2.5,1.1-5,2.4-7.4,3.9-1.7,1.1-3.3,2.3-4.8,3.6l3.5,5.9c1.5-1.2,3-2.3,4.6-3.3Z"/>
    <path class="st4" d="M159.1,458.8l-3.2-5.4c-2.6,4.5-4.4,9.4-5.4,14.3l2.6,4.4c1.3-4.6,3.3-9.1,6-13.3h0Z"/>
    <path class="st4" d="M152.2,476h0s-2.3-3.9-2.3-3.9c-.4,5,0,10,1.4,14.8-.2-3.6.1-7.3.8-10.9Z"/>
    <path class="st4" d="M169.2,447.1l-3.5-5.9c-1.5,1.3-2.8,2.7-4.1,4.2-1.6,1.8-3,3.7-4.3,5.7l3.3,5.6c2.4-3.4,5.3-6.6,8.6-9.5Z"/>
    <path class="st4" d="M188,436.5c2.2-.7,4.4-1.2,6.6-1.6,0,0,.2,0,.3,0,.2,0,.3,0,.5,0,.8-.1,1.6-.2,2.4-.3l-3.3-5.6c-3.9.2-7.8,1-11.5,2.3l3.4,5.9c.5-.2,1.1-.4,1.6-.5Z"/>
    <path class="st4" d="M206.4,429.9c-2.9-.7-5.8-1-8.8-1.1l3.2,5.5h0c4-.1,7.9.2,11.7,1.1.1,0,.3,0,.4.1.6.2,1.1.3,1.6.5.2,0,.3,0,.5.1l-2.4-4.2c-2-.9-4.1-1.6-6.2-2.2Z"/>
    <path class="st4" d="M217.7,434.9l1.7,3h0c1.6.7,3.2,1.6,4.7,2.5-1.9-2.1-4.1-3.9-6.4-5.5Z"/>
    <path class="st3" d="M239.1,457.4h0s-2-3.6-2-3.6c0,0,0,0,0,0,0,0,0,0,0,0l-5.2-9.2c-5.2-9.2-14-15.7-24.5-18.3-12.1-3-25.7-.5-37.1,6.9-22.1,14.2-30.6,42.5-19,63l5.2,9.2h0s2,3.6,2,3.6c.2.4.5.6.9.8,5.3,6.9,12.8,11.8,21.6,14,3.3.8,6.8,1.2,10.3,1.2,9.2,0,18.5-2.8,26.8-8.1,20.5-13.2,29.3-38.3,21.2-58.3,0-.4,0-.8-.2-1.1ZM224.2,440.4s0,0,0,0c-1.5-.9-3.1-1.8-4.7-2.5h0l-1.7-3h0c2.4,1.6,4.6,3.4,6.5,5.5ZM206.4,429.9c2.2.5,4.2,1.3,6.2,2.2l2.4,4.2h0c-.2,0-.3,0-.5-.1-.5-.2-1.1-.3-1.6-.5-.1,0-.3,0-.4-.1-3.8-.9-7.8-1.3-11.7-1.1h0l-3.2-5.5h0c3,0,6,.4,8.8,1.1ZM194.4,428.8s0,0,0,0l3.3,5.6h0c-.8,0-1.6.2-2.4.3-.2,0-.3,0-.5,0,0,0-.2,0-.3,0-2.2.4-4.4.9-6.6,1.6-.5.2-1.1.3-1.6.5h0s-3.4-5.9-3.4-5.9c3.8-1.3,7.7-2.1,11.5-2.3ZM172.2,436.2c2.4-1.5,4.9-2.8,7.4-3.9l3.4,6c-2.6,1.1-5.2,2.4-7.6,4-1.6,1-3.1,2.2-4.6,3.3l-3.5-5.9c1.5-1.3,3.1-2.5,4.8-3.6ZM161.6,445.4c1.3-1.5,2.6-2.8,4.1-4.2h0s3.5,5.9,3.5,5.9c-3.3,2.9-6.1,6.1-8.6,9.5l-3.3-5.6c1.3-2,2.7-3.9,4.3-5.7ZM151.3,487s0,0,0,0c-1.4-4.8-1.9-9.8-1.4-14.8,0,0,0,0,0,0h0s2.3,3.9,2.3,3.9c-.7,3.7-1,7.3-.8,11ZM153.1,472.1l-2.6-4.4c1-4.9,2.8-9.8,5.4-14.3h0s3.2,5.4,3.2,5.4h0c-2.6,4.2-4.7,8.7-6,13.3,0,0,0,0,0,0ZM216.1,513.7c-7.9,5.1-16.9,7.7-25.6,7.5-2.9,0-5.8-.4-8.6-1.1-9.6-2.3-17.4-8.2-22.2-16.5-10.7-18.8-2.8-44.9,17.8-58.1,7.7-4.9,16.3-7.5,24.8-7.5s0,0,0,0c0,0,0,0,0,0,3.2,0,6.3.4,9.4,1.1,9.5,2.3,17.4,8.2,22.2,16.5,10.7,18.8,2.8,44.9-17.8,58Z"/>
    <path class="st4" d="M216.1,513.7c20.5-13.2,28.5-39.2,17.8-58-4.7-8.3-12.6-14.2-22.2-16.5-3.1-.7-6.2-1.1-9.4-1.1,0,0,0,0,0,0-8.4,0-17.1,2.6-24.8,7.5-20.5,13.2-28.5,39.2-17.8,58.1,4.7,8.3,12.6,14.2,22.2,16.5,2.8.7,5.7,1,8.6,1.1,8.7.2,17.7-2.4,25.6-7.5ZM196.3,446.9h0c2.2-.5,4.4-.7,6.5-.7,6.4-.1,12.4,1.6,17.1,5,.8.6,1,1.8.4,2.6-.4.5-.9.8-1.5.8s0,0,0,0,0,0,0,0c-.4,0-.8-.1-1.1-.4-4-2.9-9.3-4.4-14.9-4.3-1.9,0-3.8.3-5.7.7h0c-.1,0-.3,0-.4,0-.9,0-1.7-.6-1.9-1.5-.2-1,.4-2,1.5-2.2ZM177.5,492.4l4.5-2.9c-.9-1.9-1.7-3.8-2.2-5.8-.6-2.6-.8-4.8-.6-6.8h0s0,0,0,0l6.4-.9c-.2,1.8,0,3.8.4,5.9.3,1.5.8,2.9,1.4,4.2l6.9-4.4c-.3-1.2-.7-2.4-1-3.7-.3-1.5-.5-2.9-.4-4.3,0-1.4.4-2.8,1-4,.7-1.2,1.8-2.4,3.3-3.3,0,0,0,0,0,0,0,0,0,0,0,0,1.7-1.1,3.4-1.6,5.3-1.6,1.9,0,3.7.7,5.6,2,1.3.9,2.5,2.2,3.6,3.7l4.6-3h0s2.4,4.2,2.4,4.2h0s0,0,0,0l-4.5,2.9c.6,1.3,1.2,2.7,1.6,4.1.6,2.1.9,4.1.8,6h0s0,0,0,0l-6.3,1.1c0-1.8-.2-3.5-.7-5.2-.2-.9-.5-1.8-.9-2.5l-7,4.5c.3,1.2.7,2.3.9,3.6.3,1.5.5,2.9.4,4.3,0,1.4-.3,2.7-1,4-.6,1.3-1.7,2.4-3.2,3.4,0,0,0,0,0,0,0,0,0,0,0,0-.3.2-.6.4-1,.5,0,0-.2.1-.3.1-1.3.6-2.6.9-4,.8-1.9,0-3.7-.7-5.6-2.1-1.2-.9-2.4-2.1-3.5-3.6l-4.6,3-2.4-4.3h0s0,0,0,0ZM191.8,515.5c-5.4,0-10.6-1.2-15.2-3.8-.9-.5-1.2-1.6-.7-2.5.2-.5.7-.8,1.1-.9,0,0,0,0,.1,0,0,0,.1,0,.2,0,.4,0,.7,0,1.1.2,1.2.7,2.4,1.2,3.7,1.7,9,3.2,19.9,1.7,29.4-4.4,15.7-10.1,22.2-29.4,14.5-43-.5-.9-.2-2,.7-2.6.3-.2.7-.3,1.1-.2.6,0,1.2.4,1.5.9h0c8.7,15.3,1.6,36.8-15.7,48-6.9,4.4-14.4,6.7-21.7,6.7s0,0,0,0h0Z"/>
    <path class="st4" d="M206.3,473.9c-.2-.2-.4-.5-.6-.6-.8-.6-1.5-1-2.2-1-.7,0-1.4,0-2,.5-.8.5-1.2,1.2-1.3,2.1h0c0,.2,0,.4,0,.7,0,.7,0,1.4.3,2.2l5.9-3.8Z"/>
    <path class="st4" d="M190.5,490.6h0c.8.7,1.5,1,2.1,1.1.7.1,1.3,0,1.9-.4.8-.5,1.2-1.2,1.3-2.1h0c0-.8,0-1.7-.2-2.7l-5.6,3.6c.2.2.3.4.5.5Z"/>
    <path class="st3" d="M213.5,508.8c17.4-11.2,24.4-32.7,15.7-48h0c-.3-.6-.9-.9-1.5-1-.4,0-.7,0-1.1.2-.9.5-1.2,1.7-.7,2.6,7.7,13.6,1.2,32.9-14.5,43-9.5,6.1-20.4,7.7-29.4,4.4-1.3-.5-2.5-1-3.7-1.7-.3-.2-.7-.3-1.1-.2,0,0-.1,0-.2,0,0,0,0,0-.1,0-.5.1-.9.4-1.1.9-.5.9-.2,2,.7,2.5,4.6,2.5,9.8,3.8,15.2,3.8,0,0,0,0,0,0,7.2,0,14.8-2.2,21.7-6.7Z"/>
    <path class="st3" d="M184.6,493.6c1.1,1.5,2.3,2.7,3.5,3.6,1.9,1.3,3.8,2,5.6,2,1.4,0,2.7-.2,4-.8,0,0,.2-.1.3-.1.3-.2.7-.3,1-.5,0,0,0,0,0,0,1.5-1,2.6-2.1,3.2-3.4.6-1.3,1-2.6,1-4,0-1.4-.1-2.8-.4-4.3-.2-1.2-.6-2.4-.9-3.6,0,0,0,0,0,0l7-4.5c.3.8.6,1.6.9,2.5.4,1.6.7,3.4.7,5.2l6.2-1.1h0c0-1.9-.2-3.9-.8-6-.4-1.4-1-2.8-1.6-4.1,0,0,0,0,0,0l4.5-2.9h0s-2.4-4.3-2.4-4.3h0s-4.6,3-4.6,3c-1.1-1.6-2.3-2.8-3.6-3.7-1.9-1.3-3.7-2-5.6-2-1.9,0-3.6.5-5.3,1.6,0,0,0,0,0,0-1.5,1-2.6,2.1-3.2,3.3-.7,1.2-1,2.6-1,4,0,1.4.1,2.9.4,4.3.3,1.3.6,2.5,1,3.7h0s-6.9,4.4-6.9,4.4c-.6-1.3-1.1-2.7-1.4-4.2-.4-2.1-.5-4.1-.4-5.9l-6.4.9s0,0,0,0c-.2,2,0,4.2.6,6.8.5,2,1.2,3.9,2.2,5.8h0s-4.5,2.9-4.5,2.9h0s2.4,4.3,2.4,4.3l4.6-3ZM200.2,474.8h0c.1-.9.6-1.6,1.3-2.1.6-.4,1.3-.5,2-.5.7,0,1.4.4,2.2,1,.2.2.4.4.6.6,0,0,0,0,0,0l-5.9,3.8c-.2-.8-.3-1.5-.3-2.2,0-.2,0-.4,0-.6ZM195.7,486.5s0,0,0,0c.2,1,.3,1.9.2,2.7h0c0,.9-.5,1.6-1.3,2.1-.6.4-1.2.5-1.9.4-.7,0-1.4-.5-2.1-1.1-.1-.1-.3-.3-.4-.5l5.6-3.6Z"/>
    <path class="st3" d="M194.9,449.1c.2.9,1,1.5,1.8,1.5.1,0,.3,0,.4,0h0c1.9-.4,3.8-.6,5.7-.7,5.6-.1,10.9,1.4,14.9,4.3.3.2.7.4,1.1.4,0,0,0,0,0,0,.6,0,1.1-.3,1.5-.8.6-.8.4-2-.4-2.6-4.7-3.4-10.7-5.1-17.1-5-2.1,0-4.3.3-6.5.7-1,.2-1.7,1.2-1.5,2.2Z"/>
    <g>
      <path class="st2" d="M803.4,448.1c-.4,0-.8-.1-1.2-.4-.7-.5-.9-1.5-.5-2.3-.4.8-.2,1.8.5,2.3.3.3.8.4,1.1.4s1.1-.2,1.5-.7h0c1.4-1.8,2.6-3.8,3.6-5.9-1,2.1-2.2,4-3.6,5.9-.4.5-.9.7-1.5.7Z"/>
      <path class="st2" d="M753.4,394.4c.5,0,1,.2,1.3.6.7.7.7,1.9,0,2.6-4.7,4.7-7.2,11.9-6.9,19.8,0,1-.8,1.9-1.8,2h0c1,0,1.8-.9,1.8-2-.3-7.9,2.2-15.1,6.9-19.8.7-.7.7-1.9,0-2.6-.4-.4-.8-.6-1.3-.6Z"/>
      <path class="st2" d="M762.1,464.2l-4.8,1.8c-4.7-1.7-9.2-4.3-13.2-7.6h0c4.1,3.3,8.5,5.9,13.2,7.6l4.8-1.9s0,0,0,0Z"/>
      <path class="st2" d="M779.4,409.7c-.9,0-1.8.2-2.7.4l3.3,7.7s0,0,0,0l-3.3-7.7c.9-.2,1.7-.3,2.7-.4,1.7-.2,3.4-.1,5.2.2v-6.4c0,0,0,0,0,0v6.3c-1.7-.3-3.4-.3-5.1-.2Z"/>
      <path class="st2" d="M747.6,454c.1.1.3.3.4.4h0l-6,2.3s0,0,0,0l6-2.3c-.1-.1-.3-.3-.4-.4Z"/>
      <polygon class="st2" points="774.2 404.3 772.1 399.3 772.1 399.3 774.2 404.3 774.2 404.3"/>
      <path class="st2" d="M764.4,390.8c14.6-5.5,32.7,4,40.1,21.1,4.2,9.6,4.3,19.8.6,27.9,3.7-8.1,3.6-18.3-.6-27.9-7.5-17.1-25.5-26.6-40.1-21.1-1,.4-2-.1-2.4-1.1-.2-.6-.1-1.2.2-1.7-.3.5-.5,1.1-.2,1.7.4,1,1.4,1.4,2.4,1.1Z"/>
      <path class="st2" d="M728.9,404.9c.9-2.1,1.9-4,3.1-5.8l4.5-1.7h0s0,0,0,0l-4.5,1.7c-1.2,1.8-2.3,3.8-3.1,5.8-1.1,2.7-2,5.6-2.5,8.6h0c.5-3,1.3-5.8,2.5-8.6Z"/>
      <path class="st2" d="M725.8,419.5c0,2.9.1,5.9.6,8.9-.5-3-.7-5.9-.6-8.9Z"/>
      <path class="st2" d="M739.9,444.5h0c.2.3.3.5.5.7-.2-.3-.3-.5-.5-.7Z"/>
      <path class="st2" d="M727.1,431.7l6.4-2.4s0,0,0,0h0l-6.4,2.5c.7,2.7,1.5,5.3,2.7,8,.8,1.9,1.8,3.6,2.8,5.3h0c-1-1.7-1.9-3.4-2.7-5.3-1.1-2.6-2-5.3-2.7-8Z"/>
      <path class="st2" d="M761.6,467.4h0c4.9,1.2,9.9,1.6,14.8,1,0,0,0,0,0,0-4.9.7-9.9.3-14.7-1Z"/>
      <path class="st2" d="M774.2,425.4c-1.5,0-3,0-4.4-.3-1.4-.3-2.7-.8-3.8-1.7-.3-.2-.5-.4-.8-.7.3.3.5.5.8.7,1.1.9,2.4,1.4,3.8,1.7,1.4.3,2.9.3,4.3.3,1.3,0,2.5-.2,3.8-.4h0c-1.2.1-2.5.3-3.8.4Z"/>
      <path class="st2" d="M771.4,379.7s0,0,0,0c16.9,0,34,11.2,41.7,29h0c5,11.5,5.4,24.2.9,34.8-3.8,9.1-10.9,15.9-19.9,19.2-3.2,1.2-6.4,1.9-9.7,2.2,3.3-.3,6.6-1,9.8-2.2h0c9-3.4,16-10.2,19.9-19.2,4.5-10.6,4.2-23.2-.9-34.8-7.8-17.8-24.9-29-41.8-29Z"/>
      <path class="st2" d="M783.8,424.5c-.2,0-.5,0-.7,0l2.7,6.1s0,0,0,0l-2.7-6.1c.2,0,.5,0,.7,0Z"/>
      <path class="st2" d="M795.4,428.5c.3-1.8.1-3.7-.6-5.4-.4-.8-.8-1.5-1.2-2.1.5.6.9,1.3,1.2,2.1.8,1.8,1,3.6.7,5.4-.3,1.8-1.3,3.6-2.9,5.2-1,1.1-2.4,2-4.1,2.9l2.2,5-4.6,1.7h0s4.6-1.7,4.6-1.7l-2.2-5c1.7-.9,3-1.8,4.1-2.9,1.6-1.6,2.6-3.4,2.9-5.2Z"/>
      <path class="st2" d="M772.3,412.1l2.8,6.4c-1.1,0-2,0-2.8-.2-.4-.1-.8-.3-1.1-.6.3.3.7.5,1.1.6.8.2,1.8.3,2.8.2l-2.8-6.4s0,0,0,0Z"/>
      <path class="st2" d="M777.7,439.6c-2.6.2-4.9,0-6.8-.5h0c1.9.6,4.2.7,6.8.5,2-.2,4.1-.6,6-1.2h0c-2,.6-4,1-6,1.2Z"/>
      <path class="st4" d="M732,414.2l-6.1,2.3c0,1-.2,1.9-.2,2.9,0,2.9.1,5.9.6,8.9l6.4-2.4c-.7-3.9-1-7.8-.7-11.7Z"/>
      <path class="st4" d="M748,454.4c-.1-.1-.3-.3-.4-.4-2.6-2.6-5.1-5.6-7.1-8.8-.2-.3-.3-.5-.5-.7l-6.3,2.4h0c2.4,3.7,5.2,7,8.4,9.8l6-2.3h0Z"/>
      <path class="st4" d="M742.1,389c-2.4,1.6-4.6,3.4-6.5,5.5l3.3-1.3c1-1.5,2.1-2.9,3.2-4.3Z"/>
      <path class="st4" d="M728.9,404.9c-1.1,2.7-2,5.6-2.5,8.5l6-2.3c.5-3.9,1.5-7.8,3-11.4.3-.8.7-1.6,1.1-2.4l-4.5,1.7c-1.2,1.8-2.2,3.8-3.1,5.8Z"/>
      <path class="st4" d="M776.4,468.4c-3.6-.4-7.1-1.3-10.6-2.6h0s-4.2,1.6-4.2,1.6c4.9,1.2,9.8,1.6,14.7,1Z"/>
      <path class="st4" d="M762.1,464.2c-4.3-2-8.5-4.7-12.2-8h0s-5.8,2.3-5.8,2.3c4.1,3.3,8.5,5.9,13.2,7.6l4.8-1.8Z"/>
      <path class="st4" d="M736.2,437.5c-1.2-2.7-2-5.4-2.7-8.2l-6.4,2.4c.7,2.7,1.5,5.4,2.7,8,.8,1.8,1.7,3.6,2.7,5.3l6.3-2.5c-.9-1.6-1.8-3.3-2.6-5Z"/>
      <path class="st4" d="M814,443.5c4.5-10.6,4.2-23.2-.9-34.8h0c-7.8-17.8-24.9-29-41.7-29-4.3,0-8.6.7-12.7,2.3-9,3.4-16,10.2-19.9,19.2-4.5,10.6-4.2,23.2.9,34.8,8.2,18.8,26.9,30.3,44.7,28.9,3.3-.3,6.6-1,9.7-2.2,9-3.4,16-10.2,19.9-19.2ZM754.7,397.6c-4.7,4.7-7.2,11.9-6.9,19.8,0,1-.8,1.9-1.8,2h0c-1,0-1.8-.8-1.9-1.8-.4-8.9,2.5-17.1,8-22.6.4-.4.8-.5,1.3-.5.5,0,1,.2,1.3.6.7.7.7,1.9,0,2.6ZM762,389.7c-.2-.6-.1-1.3.2-1.7.2-.3.5-.5.9-.7h0c16.5-6.2,36.6,4.2,44.9,23.1,4.6,10.6,4.7,22,.5,31.1-1,2.1-2.2,4.1-3.6,5.9h0c-.4.5-.9.7-1.5.7s-.8-.1-1.1-.4c-.7-.6-.9-1.5-.5-2.3,0-.1.1-.2.2-.3,1.3-1.6,2.3-3.4,3.2-5.2,3.7-8.1,3.6-18.3-.6-27.9-7.5-17.1-25.5-26.6-40.1-21.1-1,.4-2-.1-2.4-1.1ZM790.6,441.7l-4.6,1.7h0s0,0,0,0l-2.2-5c-2,.6-4,1.1-6,1.2-2.7.2-4.9,0-6.8-.5h0s0,0,0,0v-6.4c1.8.5,3.8.7,6,.6,1.5,0,2.9-.3,4.3-.7l-3.3-7.5c-1.2.2-2.5.3-3.8.4-1.5,0-2.9,0-4.3-.3-1.4-.3-2.7-.8-3.8-1.7-.3-.2-.6-.5-.8-.7-.8-.8-1.4-1.8-2-3-.8-1.8-1-3.6-.7-5.5h0c.3-1.9,1.3-3.6,2.9-5.2,1.1-1.1,2.5-2.1,4.2-3l-2.2-5,4.6-1.7h0s0,0,0,0l2.2,4.9c1.4-.4,2.8-.7,4.3-.9,2.2-.2,4.2-.2,6,.2h0s0,0,0,0v6.4c-1.7-.3-3.4-.3-5.1-.2-.9,0-1.8.2-2.7.4l3.3,7.7c1.2-.2,2.4-.3,3.7-.3,1.5,0,2.9,0,4.3.3s2.6.8,3.8,1.6c.6.4,1.1.9,1.6,1.6.5.6.9,1.3,1.2,2.1.8,1.8,1,3.6.6,5.4-.3,1.8-1.3,3.6-2.9,5.2-1,1.1-2.4,2-4.1,2.9l2.2,5Z"/>
      <path class="st3" d="M816.6,407.2h0c-9.8-22.3-33.2-35-54.2-30.2-.4-.1-.8-.1-1.2,0l-3.9,1.5-9.9,3.7c-9.9,3.7-17.8,11.3-22,21.3-4.9,11.5-4.6,25.3.9,37.7,8.4,19.2,26.9,31.2,45.2,31.2s9.5-.8,14-2.5l13.8-5.2c.4-.1.7-.4.9-.8,7.7-4.1,13.7-10.7,17.2-19.1,4.9-11.5,4.5-25.3-.9-37.7ZM742.1,389c-1.2,1.3-2.3,2.8-3.2,4.3l-3.3,1.3c1.9-2.1,4.1-4,6.5-5.5ZM728.8,404.9c.9-2.1,1.9-4,3.1-5.8l4.5-1.7h0,0c-.4.8-.8,1.6-1.1,2.4-1.5,3.6-2.5,7.5-3,11.4l-6,2.3h0c.5-2.9,1.3-5.8,2.5-8.5ZM725.8,419.5c0-1,0-1.9.2-2.9l6.1-2.3c-.2,3.8,0,7.8.7,11.7l-6.4,2.4c-.5-3-.7-5.9-.6-8.9ZM732.5,445c-1-1.7-1.9-3.4-2.8-5.3-1.1-2.6-2-5.3-2.7-8l6.4-2.5h0s0,0,0,0c.7,2.8,1.6,5.5,2.7,8.2.8,1.8,1.6,3.4,2.6,5l-6.3,2.5h0ZM742,456.8c-3.1-2.8-6-6.1-8.4-9.8h0l6.3-2.4h0c.2.3.3.5.5.7,2.1,3.2,4.5,6.2,7.1,8.8.1.1.3.3.4.4l-6,2.3s0,0,0,0ZM744.1,458.5h0s5.8-2.3,5.8-2.3h0c3.7,3.3,7.8,6,12.2,8,0,0,0,0,0,0l-4.8,1.9c-4.7-1.7-9.2-4.3-13.2-7.6ZM761.6,467.4h0s4.2-1.6,4.2-1.6h0c3.4,1.3,7,2.1,10.6,2.6,0,0,0,0,0,0-4.9.7-9.9.3-14.8-1ZM814,443.5c-3.8,9.1-10.9,15.9-19.9,19.2h0c-3.2,1.2-6.4,1.9-9.8,2.2-17.8,1.4-36.5-10.1-44.7-28.9-5-11.5-5.4-24.2-.9-34.8,3.8-9.1,10.9-15.9,19.9-19.2,4.1-1.5,8.4-2.3,12.7-2.3,0,0,0,0,0,0,16.9,0,34,11.2,41.8,29,5,11.5,5.4,24.2.9,34.8Z"/>
      <path class="st4" d="M775.1,418.4l-2.8-6.4c-.2.2-.5.3-.7.5-.7.7-1.2,1.3-1.4,2-.2.7-.1,1.4.2,2,.2.4.4.8.7,1,.3.3.7.5,1.1.6.8.2,1.8.3,2.8.2Z"/>
      <path class="st4" d="M785.7,424.7h0c-.6-.2-1.2-.2-1.9-.2-.2,0-.5,0-.7,0l2.7,6.1c.2-.1.4-.2.5-.4.8-.6,1.2-1.3,1.5-1.9.2-.7.2-1.3-.1-2-.4-.8-1-1.4-1.9-1.6Z"/>
      <path class="st3" d="M762,389.7c.4,1,1.4,1.5,2.4,1.1,14.6-5.5,32.7,4,40.1,21.1,4.2,9.6,4.3,19.8.6,27.9-.9,1.9-1.9,3.6-3.2,5.2,0,.1-.1.2-.2.3-.4.8-.2,1.7.5,2.3.3.3.7.4,1.2.4s1.1-.2,1.5-.7c1.4-1.8,2.6-3.8,3.6-5.9,4.2-9.1,4.1-20.4-.5-31.1-8.3-18.9-28.4-29.3-44.9-23.1h0c-.4.2-.7.4-.9.7-.3.5-.4,1.1-.2,1.7Z"/>
      <path class="st3" d="M788.3,436.6c1.7-.8,3-1.8,4.1-2.9,1.6-1.7,2.6-3.4,2.9-5.2.3-1.8.1-3.6-.7-5.4-.4-.8-.8-1.5-1.2-2.1-.5-.6-1-1.1-1.6-1.6-1.2-.8-2.4-1.4-3.8-1.6s-2.8-.3-4.3-.3c-1.2,0-2.4.2-3.7.3,0,0,0,0,0,0l-3.3-7.7c.8-.2,1.7-.4,2.7-.4,1.7-.2,3.4,0,5.2.2v-6.3c0,0,0,0,0,0-1.8-.4-3.8-.4-6-.2-1.5.2-2.9.5-4.3.9,0,0,0,0,0,0l-2.2-4.9h0s-4.6,1.7-4.6,1.7l2.2,5c-1.7.9-3.2,1.8-4.2,3-1.6,1.6-2.6,3.4-2.9,5.2h0c-.3,1.9,0,3.7.7,5.5.5,1.2,1.2,2.3,2,3,.3.3.5.5.8.7,1.1.8,2.4,1.4,3.8,1.7,1.4.3,2.9.3,4.4.3,1.3,0,2.5-.2,3.8-.4h0s3.3,7.5,3.3,7.5c-1.4.4-2.8.6-4.3.7-2.2,0-4.1-.1-5.9-.6v6.4c0,0,0,0,0,0,1.9.5,4.2.7,6.8.5,2-.2,4.1-.6,6-1.2h0s2.2,5,2.2,5h0s4.6-1.7,4.6-1.7l-2.2-5ZM772.2,418.2c-.4-.1-.8-.3-1.1-.6-.3-.3-.6-.6-.7-1-.3-.7-.3-1.3-.2-2,.2-.7.6-1.4,1.4-2,.2-.2.5-.3.7-.5,0,0,0,0,0,0l2.8,6.4c-1.1,0-2,0-2.8-.2ZM787.7,428.3c-.2.6-.7,1.3-1.5,1.9-.1.1-.4.2-.5.4,0,0,0,0,0,0l-2.7-6.1c.3,0,.5,0,.7,0,.7,0,1.4,0,1.9.2h0c.9.2,1.5.8,1.9,1.6.3.7.3,1.3.1,2Z"/>
      <path class="st3" d="M747.8,417.4c-.4-7.9,2.2-15.1,6.9-19.8.7-.7.7-1.9,0-2.6-.4-.4-.8-.5-1.3-.6-.5,0-1,.2-1.3.5-5.5,5.4-8.4,13.7-8,22.6,0,1,.9,1.8,1.9,1.8h0c1,0,1.8-.9,1.8-2Z"/>
    </g>
  </g>
  <g>
    <g>
      <path class="st2" d="M625.5,224.4v-.5h0v2.6c0-.7,0-1.1,0-1.3v-.8h0Z"/>
      <path class="st1" d="M133.4,294.6h0c1.2,0,5.6-3,13.1-9.1,8-6,13.2-17,15.6-33v-6.4l6.2-.3v37.3c-.3.3.1,1.4,1.2,3.5.8,1.8,3.5,2.9,8.2,3.1l19.5-1.1h.2c.8,0,3.5-1.1,8-3.3,4.7-2.4,7.4-8.5,8.2-18.3v-8.7c-.8-.2-3.4-.9-7.8-2-4.7-1.1-8-1.9-10.1-2.6v7.9c0,.3-.3,1.6-.8,4-.3,2.1-1.3,3.5-3.1,4.1l-5.4.3v-25.4l24.9-1.4v-19.9l-89.5,4.9v19.9l21.8-1.2c.5.8,0,4.9-1.9,12.4-2.1,7.8-9,14.4-20.6,19.8.3.2,1.9,2.1,5.1,5.7,3.4,3.5,5.8,6.7,7.4,9.5l-.3.3Z"/>
      <polygon class="st1" points="205.8 196.9 128 201.2 128 221 205.8 216.8 205.8 196.9"/>
      <path class="st0" d="M122,288.7s0,.1.2.2c.3.4.6.7,1,1.1.3.5.6,1.1,1.1,1.5,0,0,.5.5,2.8,3.1.7,1,1.3,1.9,1.8,2.7.6,1.1,1.7,2,2.9,2.4,1.8,2.1,3.2,4,4.1,5.6.8,1.4,2.1,2.4,3.7,2.7.4,0,.8.1,1.2.1,2.3,0,4.6-.7,16.5-10.2,3-2.3,5.7-5.2,8-8.6,1.2,2.3,3.2,3.7,5.4,4.5.4,1.2.9,2.3,1.4,3.3,2.6,5.6,10.2,6.1,12.8,6.2h.6l19-1h.4c1.7,0,3.7-.6,10.4-3.8,4.4-2.2,7.4-6.2,9.3-12.1,1.9,3.3,2.3,4.3,2.3,4.5.3.8.8,1.6,1.4,2.2.9.8,2.1,1.4,3.3,1.5,1.8,3.1,2.2,4.2,2.3,4.4.3.8.8,1.6,1.4,2.2,1,1,2.4,1.5,3.9,1.5s2.4,0,14.3-7h.1c7.1-4.4,14.4-11.6,22.4-22,1.8,1.8,4.2,4.2,7.4,7.3,7.8,8.1,16.6,13.9,26.1,17.4.6.2,1.2.3,1.9.3s1.6-.2,2.4-.6c1.3-.6,2.3-1.8,2.8-3.1.2-.4.9-2,4.7-9,.1-.2.2-.4.3-.6l.9,1.4c.7,1.1,1.9,1.9,3.1,2.3l3.8,5.8c1,1.6,2.7,2.5,4.6,2.5s.8,0,1.2-.1l7-1.6c4.4-1,9.9-2.8,16.1-5.1.2,0,.4,0,.7.1.5.1,2.6.7,8,3.9.9.5,1.8.8,2.8.8s1.1,0,1.6-.2c1.5-.4,2.7-1.5,3.4-2.9,0-.2.6-1.1,3.2-5.6,0-.1.2-.3.3-.4l3.4,5.1c.9,1.3,2.2,2.1,3.7,2.3h.8c1.2,0,2.4-.4,3.4-1.2l4.3-3.4c1.8-1.4,3.9-3.3,6.3-5.6,2.6,2.8,5.8,5.5,9.5,7.9.9.6,1.9.9,3,.9s.9,0,1.3-.2c1.5-.4,2.7-1.3,3.4-2.6l5.6-9.9c.2,1,.8,1.9,1.5,2.6,1,1,2.4,1.5,3.7,1.5s.2,0,.3,0h1.2v2.7c0,1.5.6,2.9,1.7,4s2.4,1.5,3.7,1.5.2,0,.3,0l18.7-1c1,0,2-.4,2.8-1h.3l65.4-3.6c2.9-.2,5.1-2.5,5.1-5.4v-6.1s.1.2.2.3c1,1,2.4,1.5,3.7,1.5s.2,0,.3,0h1.2v2.7c0,1.5.6,2.9,1.7,4s2.4,1.5,3.7,1.5.2,0,.3,0l12.5-.7c2.9-.2,5.1-2.5,5.1-5.4v-2.5h.5l1.2,4.2c.7,2.4,2.8,4,5.2,4s.2,0,.3,0c.9,0,3-.3,11.6-1.9,6.7-1.2,13.8-3.1,21.1-5.7,1.1-.4,2-1.1,2.6-2,2.8,2.5,6.1,4.8,9.9,7,.9.5,1.8.8,2.8.8s1.9-.2,2.7-.7c1.3-.7,2.2-1.9,2.5-3.3.2-.5,1-1.8,3.2-5,0,0,0-.1,0-.2.8-1.3,1.6-2.5,2.4-3.7.3.2.5.4.8.5.2,0,1.5.9,8,4.8,6.3,3.7,8.2,5,8.9,5.5h0c1,.7,2.1,1.1,3.3,1.1,3.5,0,5.1-2.5,9.5-9.1,3.2-4.8,5.9-12.5,8.2-23.7l29.6-1.6c.3.5.6,1,1.1,1.4,1,1,2.4,1.5,3.7,1.5s.2,0,.3,0l19.5-1.1c2.9-.2,5.1-2.5,5.1-5.4v-43.5c2.3-.7,3.9-2.8,3.9-5.2v-18.3c0-1.5-.6-2.9-1.7-4-1-1-2.4-1.5-3.7-1.5s-.2,0-.3,0h-1.2v-2.7c0-1.5-.6-2.9-1.7-4-1-1-2.4-1.5-3.7-1.5s-.2,0-.3,0l-86.4,4.7c-2.9.2-5.1,2.5-5.1,5.4v3.3c-.7-.4-1.6-.6-2.4-.6s-.2,0-.3,0h-1.2v-2.7c0-1.5-.6-2.9-1.7-4-1-1-2.4-1.5-3.7-1.5s-.2,0-.3,0l-52.2,2.9c-2.9.2-5.1,2.5-5.1,5.4v3.3c-.7-.4-1.6-.6-2.4-.6s-.2,0-.3,0h-1.2v-2.7c0-1.5-.6-2.9-1.7-4-1-1-2.4-1.5-3.7-1.5s-.2,0-.3,0l-12.5.7c-2.9.2-5.1,2.5-5.1,5.4v10.7l-6.5.4h-.3c-.3-.5-.6-1-1.1-1.4-1-1-2.4-1.5-3.7-1.5s-.2,0-.3,0l-10.1.6c-.2-.3-.5-.6-.8-.9-1-1-2.4-1.5-3.7-1.5s-.2,0-.3,0h-1.2v-2.7c0-1.5-.6-2.9-1.7-4-1-1-2.4-1.5-3.7-1.5s-.2,0-.3,0l-20.2,1.1c-2.9.2-5.1,2.5-5.1,5.4v6l-7.8.4c0-.8,0-1.7-.3-2.5-.6-1.7-2-2.9-3.7-3.4l-19.5-5.3c-.5,0-1-.2-1.4-.2-2.1,0-4,1.2-4.9,3.1-.2.5-.5,1.1-4.5,13.2-.5,1.6-1.1,3.3-1.8,5-.4,0-.9-.2-1.3-.2s-.2,0-.3,0h-1.2v-2.7c0-1.5-.6-2.9-1.7-4-1-1-2.4-1.5-3.7-1.5s-.2,0-.3,0l-5.5.3c-.3,0-.6,0-.9-.2l-2.4-.2.3-1.1c.4-1.6.1-3.2-.8-4.5s-2.4-2.1-4-2.3l-17.9-1.4h-.4c-2.5,0-4.8,1.8-5.3,4.3l-.8,3.8c-.3-.5-.6-.9-1-1.3-1-1-2.4-1.5-3.7-1.5s-.2,0-.3,0l-9.9.5c-.2-1.1-.8-2.2-1.6-3-1-1-2.4-1.5-3.7-1.5s-.2,0-.3,0l-16.3.9c-2.8.2-4.9,2.3-5.1,5l-9.7.5c-2.9.2-5.1,2.5-5.1,5.4v4.4h-.3c-2.9.2-5.1,2.6-5.1,5.5v3.7h-1.1l-23.9,1.3v-8c0-1.5-.6-2.9-1.7-4-1-1-2.4-1.5-3.7-1.5s-.2,0-.3,0h-1.2v-2.7c0-1.5-.6-2.9-1.7-4-1-1-2.4-1.5-3.7-1.5s-.2,0-.3,0l-21,1.2c-2.9.2-5.1,2.5-5.1,5.4v17.1l-29.9,1.6c-.8,0-1.5.2-2.1.6v-7.7c0-1.5-.6-2.9-1.7-4-1-1-2.4-1.5-3.7-1.5s-.2,0-.3,0h-1.2v-2.7c0-1.5-.6-2.9-1.7-4-1-1-2.4-1.5-3.7-1.5s-.2,0-.3,0l-77.9,4.3c-2.9.2-5.1,2.5-5.1,5.4v19.9c0,.7,0,1.4.4,2h-1.5c-2.9.2-5.1,2.6-5.1,5.5v19.9c0,1.5.6,2.9,1.7,4,1,1,2.4,1.5,3.7,1.5s.2,0,.3,0h1.2v2.7c0,1.5.6,2.9,1.7,4,1,1,2.4,1.5,3.7,1.5s.2,0,.3,0l6-.3c-2.6,4.7-8,9.1-16.3,12.9-1.6.8-2.8,2.3-3.1,4-.3,1.8.3,3.6,1.6,4.8,0,0,.7.8,4.8,5.4l-1.1.8ZM625.5,173.1l86.4-4.7v18.3l-86.4,4.7s0-18.3,0-18.3ZM625.4,223.9h0v1.3c0,.2,0,.6,0,1.3v-2.6h0ZM629.3,236c1.3-7.2,1.8-11.1,1.6-11.6v-29.4l77.1-4.2v44.5l-19.5,1.1v-3.2l-38.9,2.1c-2.3,12.6-5.1,21.2-8.2,25.9-3,4.4-4.6,6.7-5,6.7s0,0,0,0c-1.3-1-4.4-2.9-9.3-5.8-5.2-3.2-8-4.9-8.6-5.1,6-6.7,9.6-13.6,10.9-20.9h0ZM519.6,193.2l11.7-.6v-15.9l12.5-.7v15.9l11.7-.6v25.4l3.1-.2v-40.5l52.2-2.9v12.7l-33.5,1.8v2.4l31.9-1.8v10.3l-31.9,1.8v2.4l31.9-1.8v9.5l-31.9,1.8v3.2l35.8-2v16.7l-7.8.4c.5.5,1.9,1.6,4.3,3.3,2.3,2,3.8,3.1,4.3,3.3-1,1.9-2.5,3.8-4.3,5.8s-2.7,3.1-2.7,3.3c1.3,1,3,2.2,5.1,3.7,2,1.1,3.1,1.8,3.4,2.1-.3.3-.6.7-.9,1-.3.4-.6.8-.8,1.2-1.8,2.3-3.5,4.9-5.3,7.7-2.6,3.8-3.9,6-3.9,6.6-4.9-2.9-9-6-12.1-9.3-3.1-3-4.8-4.6-5.1-4.9v8.7c-7,2.5-13.8,4.3-20.2,5.5-6.2,1.1-9.9,1.7-10.9,1.8l-4.7-16.4,8.6-1.3v-19.9l-4.7.3v11.1c-.8,3.8-2.3,6-4.7,6.6-2.3.7-3.6,1-3.9,1-.5-1.8-1.2-3.4-1.9-4.7l-1.2-2.3v25.4l-12.5.7v-58h-2.3v39.9l-9.3.5v-60.4.4ZM514.2,253.9c0,.9.3,1.7.7,2.4v16.6l-65.4,3.6v-19.1l12.5-.7c-2.6-11.2-4.8-19.7-6.6-25.5l-2.7-9,17.9-9.7c2.1,5.4,4.2,12.5,6.2,21.1,2.3,8.3,3.6,13,3.9,14.1l-16.3,8.8,16.3-.9c2.1-7,4-15.7,5.8-26.1,2.1-10.4,3.2-16.2,3.5-17.3l19.5,3.7c-.8,5.6-2.3,13.2-4.7,22.9-2.3,9.7-3.6,14.9-3.9,15.7l13.3-.7h0ZM472.1,192.6v-11.1l20.2-1.1v11.1l21.8-1.2v19.1l-62.3,3.4v-19.1l20.2-1.1h0ZM429.7,194.6c2.6-7.8,4-12,4.3-12.6l19.5,5.3c-.8,1.1-2.1,4.1-3.9,9-2.1,5.1-3.1,8.1-3.1,8.9v72.3l-18.7,1v-38.1c-.5.8-1.2,1.7-1.9,2.5-.8.8-1.2,1.4-1.2,1.7-1.3-6.3-2.7-12-4.3-17.2-1.6-4.9-2.3-7.6-2.3-7.8,5.2-8.5,9.1-16.8,11.7-24.9h-.1ZM326.5,269.3c-2.8-.6-4.3-.9-4.7-.9s0,0,0,0l6.2-9.1-8.6.5v-11.1l17.1-.9.8-3.2-12.5.7v-18.3l14.8-.8v-2.4l-14.8.8v-11.1l-5.4.3v-10.3l5.4-.3v-9.5l14.8-.8v-4.8l16.3-.9v4.8l15.6-.9v9.5l3.9-.2v9.5c2.6-6.8,4.4-12.4,5.4-17l1.6-7.2,17.9,1.4-2.3,8.9,16.3-.9v19.6s0,.2-.1.3l-3.7.2c-1,11.2-2.7,19.9-5.1,26.1-2.1,5.9-3.2,9.1-3.5,9.3,3.1,4.1,6,7.1,8.6,9.1,2.3,2,3.6,3,3.9,3h0l-9.3,16.4c-3.4-2.2-6.2-4.6-8.6-7.1l-3.9-4.2c-3.9,4.2-7.1,7.3-9.7,9.3l-4.3,3.4-7.8-11.5c-1,1.1-2.7,3.5-5.1,7-2.1,3.6-3.2,5.6-3.5,6.2-4.4-2.7-7.7-4.2-9.7-4.6-1.3-.3-2.1-.4-2.5-.4s-.3,0-.2.1c-6.5,2.5-11.9,4.2-16.3,5.3l-7,1.6-7-10.7c4.2-.8,7.3-1.3,9.3-1.7l3.1-.6c-.8-.5-2.6-1-5.4-1.7v-.2ZM254.9,235.5l-34.3,1.9v-19.9l35-1.9v-22.2l21-1.2v22.2l36.6-2v19.9l-34.3,1.9c3.6,9.9,10.2,17.4,19.9,22.7,9.3,5.6,14.7,8.5,16,8.7-1,1.1-3,4.4-5.8,9.9-3.1,5.7-4.8,9-5.1,9.8-8.8-3.2-16.9-8.6-24.1-16.2-7.5-7.3-11.4-11.3-11.7-12.1-9.1,12.7-17.4,21.3-24.9,26-7.1,4.1-11,6.2-11.6,6.2s0,0,0,0c-.5-1.6-2.3-4.9-5.4-10-3.4-5.1-5.2-7.9-5.4-8.4,15.1-7.2,24.7-14.7,28.8-22.6,4.2-7.9,6-12.1,5.4-12.6h-.1ZM128,201.2l77.9-4.3v19.9l-77.9,4.3s0-19.9,0-19.9ZM141.6,259.6c1.8-7.5,2.5-11.7,1.9-12.4l-21.8,1.2v-19.9l89.5-4.9v19.9l-24.9,1.4v25.4l5.4-.3c1.8-.6,2.9-2,3.1-4.1.5-2.4.8-3.7.8-4v-7.9c2.1.7,5.4,1.6,10.1,2.6,4.4,1.1,7,1.7,7.8,2v8.7c-.8,9.8-3.5,16-8.2,18.3-4.5,2.2-7.2,3.3-8,3.3s-.1,0-.2,0l-19.5,1.1c-4.7-.3-7.4-1.3-8.2-3.1-1-2.1-1.4-3.2-1.2-3.5v-37.3l-6.2.3v6.4c-2.3,16-7.5,27-15.6,33-7.5,6.1-11.9,9.1-13.1,9.1s0,0,0,0c-1.6-2.8-4-6-7.4-9.5-3.1-3.5-4.8-5.4-5.1-5.7,11.7-5.4,18.6-12,20.6-19.8l.3-.3Z"/>
      <path class="st1" d="M220.6,270.8c.3.5,2.1,3.3,5.4,8.4,3.1,5.1,4.9,8.5,5.4,10h0c.6,0,4.5-2.1,11.6-6.2,7.5-4.7,15.8-13.3,24.9-26,.3.8,4.2,4.8,11.7,12.1,7.3,7.5,15.3,12.9,24.1,16.2.3-.8,1.9-4.1,5.1-9.8,2.9-5.5,4.8-8.7,5.8-9.9-1.3-.2-6.6-3.1-16-8.7-9.6-5.3-16.2-12.9-19.9-22.7l34.3-1.9v-19.9l-36.6,2v-22.2l-21,1.2v22.2l-35,1.9v19.9l34.3-1.9c.5.5-1.3,4.7-5.4,12.6-4.2,7.9-13.8,15.5-28.8,22.6h.1Z"/>
      <path class="st1" d="M319.5,273.3l7,10.7,7-1.6c4.4-1,9.9-2.8,16.3-5.3,0,0,0-.1.2-.1.4,0,1.2.1,2.5.4,2.1.4,5.3,2,9.7,4.6.3-.5,1.4-2.6,3.5-6.2,2.3-3.6,4-5.9,5.1-7l7.8,11.5,4.3-3.4c2.6-2,5.8-5.1,9.7-9.3l3.9,4.2c2.3,2.5,5.2,4.9,8.6,7.1l9.3-16.4h0c-.3,0-1.6-1-3.9-3-2.6-2-5.4-5-8.6-9.1.3-.3,1.4-3.4,3.5-9.3,2.3-6.2,4-14.9,5.1-26.1l3.7-.2s0-.2.1-.3v-19.6l-16.3.9,2.3-8.9-17.9-1.4-1.6,7.2c-1,4.6-2.9,10.2-5.4,17v-9.5l-3.9.2v-9.5l-15.6.9v-4.8l-16.3.9v4.8l-14.8.8v9.5l-5.4.3v10.3l5.4-.3v11.1l14.8-.8v2.4l-14.8.8v18.3l12.5-.7-.8,3.2-17.1.9v11.1l8.6-.5-6.2,9.1h0c.3,0,1.9.3,4.7.9,2.9.6,4.7,1.2,5.4,1.7l-3.1.6c-2.1.4-5.2.9-9.3,1.7v.2ZM392.7,216.1h1.6l-.4,4.7c-.5,2.9-1.4,7-2.7,12.1-.3-.3-.6-1.4-1.2-3.5-.5-1.8-.9-3.8-1.2-5.9l3.9-7.4h0ZM371.7,210.9l3.1-.2c-.5,1.1-1,2.2-1.6,3.3-.8,1.1-1.3,2.2-1.6,3.3v-6.4h.1ZM356.1,199l3.9-.2v2.4l-3.9.2v-2.4ZM356.1,211.7l3.9-.2v2.4l-3.9.2v-2.4ZM356.1,234l3.9-.2v2.4l-3.9.2s0-2.4,0-2.4ZM355.3,243.5l14.8-.8v-18.3l-14,.8v-2.4l14-.8,4.7,6.1c0,.3.5,2.6,1.6,7.1,1.3,4.7,3.1,9.9,5.4,15.6-.3,0-1.6,1.5-3.9,4.6-2.3,3-5.4,6.3-9.3,9.6l2.3,3c-1-.2-2.3-.7-3.9-1.4s-2.9-1.4-3.9-2.2l1.2-2.1c.8-1.1,1.7-2.9,2.7-5.3l8.6-.5v-11.1l-21,1.2.8-3.2h-.1ZM346,258.3l4.7-.3-.8,3.2-4.7-.5.8-2.4ZM335.9,200.1l3.9-.2v2.4l-3.9.2v-2.4ZM335.9,215.2v-2.4l3.9-.2v2.4l-3.9.2ZM335.9,237.4v-2.4l3.9-.2v2.4l-3.9.2Z"/>
      <path class="st0" d="M374.8,210.7l-3.1.2v6.4c.3-1.1.8-2.2,1.6-3.3.5-1.1,1-2.2,1.6-3.3h-.1Z"/>
      <polygon class="st0" points="339.7 212.6 335.9 212.8 335.9 215.2 339.7 215 339.7 212.6"/>
      <polygon class="st0" points="350.6 258.1 346 258.3 345.2 260.8 349.9 261.3 350.6 258.1"/>
      <path class="st0" d="M375.6,256.7l-8.6.5c-1,2.4-1.9,4.2-2.7,5.3l-1.2,2.1c1,.7,2.3,1.5,3.9,2.2s2.9,1.2,3.9,1.4l-2.3-3c3.9-3.4,7-6.6,9.3-9.6s3.6-4.6,3.9-4.6c-2.3-5.7-4.2-10.9-5.4-15.6-1-4.4-1.6-6.8-1.6-7.1l-4.7-6.1-14,.8v2.4l14-.8v18.3l-14.8.8-.8,3.2,21-1.2v11.1h.1Z"/>
      <path class="st0" d="M391.1,232.8c1.3-5.1,2.2-9.1,2.7-12.1l.4-4.8h-1.6l-3.9,7.4c.3,2.1.6,4.1,1.2,5.9.5,2.1.9,3.3,1.2,3.5h0Z"/>
      <polygon class="st0" points="339.7 234.9 335.9 235.1 335.9 237.4 339.7 237.2 339.7 234.9"/>
      <polygon class="st0" points="360 198.8 356.1 199 356.1 201.4 360 201.2 360 198.8"/>
      <polygon class="st0" points="360 211.5 356.1 211.7 356.1 214.1 360 213.9 360 211.5"/>
      <polygon class="st0" points="360 233.7 356.1 234 356.1 236.3 360 236.1 360 233.7"/>
      <polygon class="st0" points="339.7 199.9 335.9 200.1 335.9 202.5 339.7 202.3 339.7 199.9"/>
      <path class="st1" d="M424.6,244.5c0-.3.4-.8,1.2-1.7.8-.8,1.4-1.7,1.9-2.5v38.1l18.7-1v-72.3c0-.8,1-3.8,3.1-8.9,1.8-4.9,3.1-7.9,3.9-9l-19.5-5.3c-.3.5-1.7,4.7-4.3,12.6-2.6,8.1-6.5,16.4-11.7,24.9,0,.3.8,2.9,2.3,7.8,1.6,5.2,3,11,4.3,17.2h.1Z"/>
      <path class="st1" d="M504.8,238.9c2.3-9.7,3.9-17.3,4.7-22.9l-19.5-3.7c-.3,1.1-1.4,6.8-3.5,17.3-1.8,10.4-3.8,19.1-5.8,26.1l-16.3.9,16.3-8.8c-.3-1-1.6-5.7-3.9-14.1-2.1-8.6-4.2-15.7-6.2-21.1l-17.9,9.7,2.7,9c1.8,5.7,4,14.2,6.6,25.5l-12.5.7v19.1l65.4-3.6v-16.6c-.4-.7-.7-1.6-.7-2.4l-13.3.7c.3-.8,1.6-6,3.9-15.7h0Z"/>
      <polygon class="st1" points="451.9 212.8 514.1 209.4 514.1 190.3 492.3 191.5 492.3 180.4 472.1 181.5 472.1 192.6 451.9 193.7 451.9 212.8"/>
      <path class="st1" d="M528.9,213.4h2.3c0,0,0,57.9,0,57.9l12.5-.7v-25.4l1.2,2.3c.8,1.3,1.4,2.8,1.9,4.7.3,0,1.6-.3,3.9-1s3.9-2.9,4.7-6.6v-11.1l4.7-.3v19.9l-8.6,1.3,4.7,16.4c1,0,4.7-.7,10.9-1.8,6.5-1.2,13.2-3,20.2-5.5v-8.7c.3.2,1.9,1.9,5.1,4.9,3.1,3.3,7.1,6.4,12.1,9.3,0-.5,1.3-2.7,3.9-6.6,1.8-2.9,3.5-5.5,5.3-7.7.2-.4.5-.8.8-1.2.3-.3.6-.7.9-1-.3-.3-1.5-1-3.4-2.1-2.1-1.5-3.8-2.7-5.1-3.7,0-.3.9-1.4,2.7-3.3,1.8-2,3.2-3.9,4.3-5.8-.5-.2-1.9-1.3-4.3-3.3-2.3-1.7-3.8-2.8-4.3-3.3l7.8-.4v-16.7l-35.8,2v-3.2l31.9-1.8v-9.5l-31.9,1.8v-2.4l31.9-1.8v-10.3l-31.9,1.8v-2.4l33.5-1.8v-12.7l-52.2,2.9v40.5l-3.1.2v-25.4l-11.7.6v-15.9l-12.5.7v15.9l-11.7.6v60.4l9.3-.5v-40.2ZM600.5,230.9c-.3.8-.9,1.6-1.9,2.5s-1.7,1.4-1.9,1.7c-.5-1-1-1.9-1.6-2.7l-.8-1.1,6.2-.3h0ZM577.2,232.2l3.1-.2c-.3.3,0,2.3.4,5.9.5,3.7,1.4,6.9,2.7,9.8l-6.2,1.1v-16.7h0ZM543.7,212.5h2.3c0,0,0,19.7,0,19.7h-2.3c0,0,0-19.7,0-19.7Z"/>
      <path class="st0" d="M596.7,235.1c.3-.3.9-.8,1.9-1.7,1-.9,1.7-1.7,1.9-2.5l-6.2.3.8,1.1c.5.8,1,1.7,1.6,2.7h0Z"/>
      <path class="st0" d="M580.7,237.9c-.5-3.7-.6-5.7-.4-5.9l-3.1.2v16.7l6.2-1.1c-1.3-2.8-2.2-6.1-2.7-9.8h0Z"/>
      <polygon class="st0" points="546.1 212.4 543.7 212.5 543.7 232.4 546.1 232.3 546.1 212.4"/>
      <path class="st1" d="M636.4,267.8h0c.4,0,2.1-2.2,5-6.7,3.1-4.7,5.8-13.3,8.2-25.9l38.9-2.1v3.2l19.5-1.1v-44.5l-77.1,4.2v29.4c.3.5-.3,4.4-1.6,11.6-1.3,7.2-4.9,14.2-10.9,20.9.5.2,3.4,1.9,8.6,5.1,4.9,2.9,8,4.9,9.3,5.8h0ZM650.4,212.3l38.1-2.1v4.8l-38.1,2.1v-4.8Z"/>
      <polygon class="st1" points="711.9 168.4 625.5 173.1 625.5 191.4 711.9 186.6 711.9 168.4"/>
      <polygon class="st0" points="688.5 210.2 650.4 212.3 650.4 217 688.5 214.9 688.5 210.2"/>
      <path class="st0" d="M750.2,381.5c-.4-1.7-1.7-3.2-3.3-3.9-.3-.1-.5-.2-1-.4l-.4-19.3c2.5-.7,4.4-3,4.4-5.7v-8.9c0-1.6-.7-3.2-1.9-4.3-.6-.6-1.3-1-2-1.3v-9.3c0-1.6-.7-3.2-1.9-4.3s-2.7-1.7-4.4-1.6h-2c0,.1,0-2.4,0-2.4,0-1.6-.7-3.2-1.9-4.3s-2.7-1.7-4.4-1.6l-8.4.5c-.3-.5-.7-1-1.1-1.4-1.2-1.1-2.8-1.7-4.4-1.6l-11.1.6c-2.3.1-4.3,1.6-5.1,3.6l-8.2.5c-.3,0-.6,0-.9.1-.5-.6-1.1-1.1-1.6-1.7-1.2-1.3-3-2.1-4.7-2l-10,.6c-2.3.1-4.2,1.5-5.1,3.6l-1.4,3.4c-.3-.9-.8-1.8-1.5-2.5-1.2-1.1-2.8-1.7-4.4-1.6l-62.7,3.5c-3.1.2-5.6,2.8-5.6,5.9v14l-20,1.1c-1.9-9.1-5.3-16.5-10.3-22.1-1.8-2-3.9-3.8-6-5.4-.7-1-1.5-2-2.3-2.9-8.2-9.2-19.3-13.4-32.9-12.6-13.5.7-24.4,6.1-32.5,16.1-3,3.9-5.4,8.4-7.2,13.5-.9-1.4-2-2.8-3.1-4-1.8-2.1-3.9-3.8-6-5.4-.7-1-1.5-2-2.3-2.9-8.2-9.1-19.3-13.4-32.9-12.6-13.5.7-24.4,6.1-32.5,16.1-.4.5-.7,1.1-1.1,1.6,0-.5-.2-1.1-.4-1.6-1-2.3-3.3-3.7-5.7-3.5h-2.6c.7-1.4.8-3.2,0-4.8-1-2.3-3.3-3.7-5.7-3.5l-42,2.3c-1.7,0-3.2.9-4.3,2.2l-10.4,12.8c-5.5,6.5-10.1,12.8-13.7,18.8h-1.8v-2.4c0-1.6-.7-3.2-1.9-4.3-1.2-1.1-2.8-1.7-4.4-1.6l-20.4,1.1c-3.1.2-5.4,2.6-5.6,5.7h-.6v-2.4c0-1.6-.7-3.2-1.9-4.3s-2.8-1.7-4.4-1.6l-19.8,1.1c-.2-.3-.5-.6-.8-.9-1.2-1.1-2.7-1.7-4.4-1.6l-15,.8c-2.1.1-3.9,1.3-4.9,3.1l-18.4,1c-.1-.1-.2-.3-.3-.4-1.2-1.1-2.7-1.7-4.4-1.6l-61.5,3.4c-3.1.2-5.6,2.8-5.6,5.9v.8l-1.2-2.6c-1-2.2-3.3-3.6-5.7-3.4-.6,0-1.3,0-10.2,2-5.5,1-10.4,1.8-14.5,2.2-.8,0-1.5.3-2.2.7h-1.5c-.3-.9-.8-1.7-1.6-2.4-1.2-1.1-2.8-1.7-4.4-1.6l-13.9.8c-2.8.2-5,2.2-5.5,4.8l-6.2.3c-3.1.2-5.6,2.8-5.6,5.9v11.7c0,.7,0,1.3.3,2-.2.6-.3,1.3-.3,2v11.7c0,.4,0,.8,0,1.1,0,.4,0,.7,0,1.1v11.7c0,1.1.3,2.1.8,3-1.5,1.8-1.8,4.3-.7,6.5l5.5,10.9c.8,1.6,2.3,2.7,4,3.1.5.1,1.1.1,1.6,0l2.6,5.1c.8,1.6,2.3,2.7,4,3.1,1,.2,2,.2,2.9-.1.3.4.5.7.9,1.1,1.1,1,2.6,1.6,4.1,1.6s.2,0,.3,0l13.9-.8c2.7-.1,4.9-2.1,5.5-4.6,0,0,.3-.1.4-.2l3.4,2.8c.4.3.8.6,1.3.8,3.5,1.6,5.8.2,8-2.8.3.4.6.8.9,1.1,1.2,1.1,2.8,1.7,4.4,1.6l12.8-.7c3.1-.2,5.5-2.7,5.6-5.7.7.4,1.5.9,2.5,1.5,4.5,2.6,5.7,3.5,6.1,3.7,1,.8,2.3,1.2,3.6,1.2s.4,0,.6,0c3.2-.3,4.6-2.5,7.8-7.3,2.3-3.4,4.2-8.5,5.8-15.9l18.4-1c.1.1.2.2.4.4,1.2,1.1,2.8,1.7,4.4,1.6l13.9-.8h.1v1.6c0,1.6.7,3.2,1.9,4.3,1.2,1.1,2.8,1.7,4.4,1.6l5.8-.3h0c.9,2.3,3.1,3.8,5.5,3.8s.2,0,.3,0h.5c.7,1.5,1.4,3,2,4.5.9,2.3,3.1,3.8,5.5,3.8s.2,0,.3,0l13.3-.7c.9,0,1.5-.2,5.9-1.7,2.6-1,7.2-3.7,8-11.3v-.6l17.7-1c2.1-.1,3.8-1.3,4.8-2.9.3.9.8,1.7,1.5,2.4,1.1,1,2.6,1.6,4.1,1.6s.2,0,.3,0l5-.3c1.5,0,2.8-.7,3.8-1.6l3.3-.2c1.1.8,2.5,1.3,3.9,1.2l3.2-.2c.6,0,1.2-.2,2.8-.6.1,0,.3,0,.4-.1,1.4-.5,2.5-1.3,3.4-2.3.5.4.9.8,1.4,1.2,1.5,2.1,3.3,4.1,5.3,5.9,7.4,6.7,17.5,10,30,10s1.1,0,1.7,0h.4c12.9-1.1,23.2-5.8,30.8-13.8,4.1-4.2,7.2-8.9,9.4-14.2.6.8,1.2,1.6,1.8,2.4,0,0,.1.2.2.2,1.8,1.9,3.7,3.5,5.7,5,.7,1.1,1.5,2.1,2.3,3.1,0,0,.1.2.2.2,7.9,8.3,18.4,12.6,31.2,12.6s1,0,1.4,0h.4c13.3-1.2,24.2-6.5,32.3-16,3.1-3.8,5.6-8.3,7.5-13.4.9,1.3,1.8,2.5,2.8,3.7,0,0,.1.2.2.2,1.8,1.9,3.7,3.5,5.7,5,.7,1.1,1.5,2.1,2.3,3.1,0,0,.1.2.2.2,7.9,8.3,18.4,12.6,31.2,12.6s1,0,1.4,0h.4c11.4-1,20.9-5.1,28.5-12.1.4.5,1,1.1,1.9,2.1,1.6,1.6,2.3,2.7,2.7,3.3.9,1.5,2.3,2.6,4,2.9.4,0,.9.1,1.3.1,2.6,0,5-1.7,9.8-5.6.8-.6,1.5-1.2,2.2-1.9,0,0,0,.2,0,.3,1.4,2.9,4.4,4.6,9,4.8h.7l9-.5c1,0,2-.2,3-.5,0,.1.2.3.4.4,1.1,1,2.6,1.6,4.1,1.6s.2,0,.3,0l12.8-.7c1.6,0,3-.8,4-1.9l28.4-1.6c1.2,1,2.6,1.5,4.2,1.4l13.3-.7c1.6,0,3.1-.8,4.1-2h.3c.4,0,.8,0,1.1-.1l11.1-2.2c.4.4.8.7,1.2,1,1.4.9,3.1,1.1,4.7.7l5.5-1.5c1,1,2.4,1.6,3.9,1.6s2.6-.3,3.6-1.1c.3-.2,1.4-.8,4.7-2.3,3-1.4,5.9-3.2,8.7-5.3.9.5,2,1.1,3.4,1.8,3.7,1.7,7.4,3.3,11,4.7,2.4.9,5.2.1,6.8-2l6.7-8.8c1.1-1.4,1.5-3.3,1-5l.4-.3ZM144.9,376.6l-3.9.2v33l-12.7.7v-33h-1.7c-.4,12.4-1.8,21.1-4.4,26.1-2.6,5.2-4.1,7.7-4.4,7.5l-7.8-6.3-2.2,2.9-3.3-3.2v7.3l-13.9.8v-7.8l-6.7,5.4-5.5-10.9c2.2-1.8,4.2-3.4,5.8-4.8,1.5-1.6,2.3-2.4,2.5-2.4l-7.8.4v-11.7l11.6-.6v-2.2l-11.6.6v-11.7l4.4-.2-1.1-3.9-3.3.2v-11.7l11.6-.6v-4.5l13.9-.8v4.5l8.3-.5v11.7h-2.2c0,.1-1.1,4.1-1.1,4.1l3.3-.2v11.7l-8.3.5v2.2l8.3-.5v11.7l-5,.3,4.4,2.6c.7-1.9,1.3-4.4,1.7-7.4.4-3.2.6-4.9.6-5.1v-32.4c4.3-.4,9.2-1.2,15-2.2,5.7-1.2,8.9-1.9,9.4-1.9l5.5,12c-2,.3-5.4,1-10,2s-7.2,1.6-7.8,1.8v3.9l18.3-1v13.4h0ZM210.1,387.5l-13.9.8v-2.2l-27.7,1.5c-1.7,8.9-3.6,14.9-5.8,18.2-2.2,3.3-3.4,4.9-3.6,4.7-.9-.7-3.1-2.1-6.7-4.1-3.7-2.2-5.7-3.4-6.1-3.6,4.3-4.7,6.8-9.6,7.8-14.7.9-5.1,1.3-7.8,1.1-8.2v-20.7l54.9-3v31.3h0ZM212.9,353.2l-61.5,3.4v-12.9l61.5-3.4v12.9ZM215.9,342.4l25-1.4v-2.8l15-.8v2.8l25-1.4v11.2l-64.9,3.6v-11.2h0ZM275.8,352v15.7l-53.2,3v-15.7l53.2-3ZM281.4,391.4l-23.3,1.3v5.6c-.4,3.4-1.8,5.5-4.2,6.4-2.6.9-4,1.3-4.2,1.3l-13.3.7c-.9-2.4-1.9-4.6-3-6.8l-1.4-3.6,11.1-.6c.7-.2,1.1-.6,1.1-1.2v-1.1l-27.7,1.5v-10.6l29.4-1.6,2.2-2.4-27.2,1.5v-8.9l55.4-3.1v7.3l-10.5,4.5,15.5-.9v10.6h0ZM293.3,341.5l20.4-1.1v9.3l-20.4,1.1v-9.3ZM314.7,388.8c-.2,1.2-.8,1.9-1.7,2.2-1,.3-1.6.4-1.7.4l-3.2.2c-.1-.3-.3-.6-.6-.9l-.4-.5-9.2.5v-6.5l11.2-.6v3.4h.6v-4.1l-12.6.7v8.5l-5,.3v-11.9l22.6-1.3v9.5h0ZM294.5,379.8v-5.9l18-1v5.9l-18,1ZM315.5,372.2l-23.8,1.3v-3.6l9.4-.5v-1.4l5.2-.3v1.4l9.2-.5v3.6h0ZM314.1,365.4c-1.3-.2-2.4-.5-3.4-.8l-1.6-.5c-1,.6-1.9,1-2.6,1.4l-1.2.5-1.4-1.9v2l-4.6.3v-2l-6.8,1.4-.6-3.6,1.8-.3v-6.9h-2c0,.1,0-3.1,0-3.1l23.8-1.3v3.2l-11.6.6v5l1-.9h-.6v-3.4l10.4-.6c-.3,1.6-.7,3-1.3,4.2-.5,1.2-.8,1.9-.9,2,.3.2.9.3,1.8.4.9,0,1.5.2,1.6.2l-1.8,4.1h0ZM383.8,393.4c-6.6,7.1-15.7,11.1-27.1,12.1-11.8.3-21-2.6-27.6-8.5-6.5-5.8-9.9-13.5-10.4-22.9.3-.6.6-1.2.6-1.9v-3.6c0-.6-.1-1.1-.4-1.6.6-6,2.4-11.7,5.3-17.1,3.7-6.9,8.8-14.2,15.5-22l10.5-12.8,42-2.3-28.2,27.8c.4-.4.9-.6,1.7-.6.4-.4.9-.4,1.7,0,8.8-.5,15.7,1.5,20.4,6.1,4.4,4.6,6.8,11.5,7.2,20.8-.4,10.8-4.1,19.7-11,26.8l-.2-.3ZM468.3,387c-7,8.2-16.4,12.8-28.2,13.8-11.8.3-21.2-3.3-28.2-10.7-6.6-7.8-9.9-18.8-9.9-32.9s3.3-26.6,9.9-35.1c7-8.6,16.4-13.2,28.2-13.8,11.8-.7,21.2,2.9,28.2,10.7,6.6,7.4,10.1,18.8,10.5,34-.4,14.5-3.9,25.9-10.5,34h0ZM598,345.4v9.6l-37.9,2.1v-9.6l37.9-2.1ZM553.4,380.7c-.8.6-1.5,1.4-1.9,2.4-6.9,7.7-16.1,12.1-27.5,13.1-11.8.3-21.2-3.3-28.2-10.7-6.6-7.8-9.9-18.8-9.9-32.9s3.3-26.6,9.9-35.1c7-8.6,16.4-13.2,28.2-13.8,11.8-.7,21.2,2.9,28.2,10.7,5.6,6.3,9,15.5,10.1,27.5h-2.5c-2.9.3-5.2,2.7-5.2,5.7v8.2c-1.8.9-3,2.8-3,4.9v9.6c0,1.5.6,3,1.7,4,.9.8,2,1.4,3.3,1.5-.9,1.8-2,3.4-3.1,5h0ZM601.8,379.2c-.4,4.7-1.7,7.7-4,8.8-2.4,1.2-3.7,1.7-4,1.6l-9.5.5c-2.3-.1-3.6-.6-4-1.5-.5-1-.7-1.6-.6-1.7v-18l-3,.2v3.1c-1.1,7.7-3.7,13-7.6,15.9-3.8,3-5.9,4.5-6.4,4.4-.8-1.4-2-2.9-3.6-4.6-1.5-1.7-2.3-2.6-2.5-2.7,5.7-2.6,9-5.8,10-9.5.9-3.6,1.2-5.6.9-6l-10.6.6v-9.6l43.6-2.4v9.6l-12.1.7v12.2h2.6c.9-.5,1.4-1.1,1.5-2.1.3-1.2.4-1.8.4-1.9v-3.8c1,.3,2.7.7,4.9,1.3,2.1.5,3.4.8,3.8.9v4.2l.2-.2ZM663.8,387.6l-13.3.7v-1.7l-36.6,2v1.7l-10.8.6c2.4-2.5,3.9-6.3,4.3-11.3v-4.6c0-1.7-.8-3.2-2-4.2.5-.9.8-1.9.8-2.9v-9.6c0-1.5-.6-3-1.7-4-.3-.3-.6-.5-.9-.7v-8.1c0-1.5-.6-3-1.7-4-.2-.2-.5-.4-.7-.6v-15.1l62.7-3.5v65.5-.2ZM729.5,383.4c-3.5-1.3-7-2.8-10.5-4.4-3.5-1.9-5.4-2.9-5.5-3.1l3.3-4.1-8.9.5,3.9,3.7c-3.1,2.6-6.5,4.7-10,6.4-3.5,1.7-5.4,2.6-5.5,2.8l-3.9-4.8.6,2.8-7.8,2.1-.6-2.8-16.1,3.1-1.7-11.7,2.8-.2v-29.6l-2.2,1.2-1.4-11.1c4.1-4.1,6.8-7.7,8.3-10.5l1.9-4.6,10-.6c1.1,1.2,2.3,2.5,3.6,3.7,1.1,1.2,2.3,2.3,3.6,3.2v-3.4l13.3-.7v-3.4l11.1-.6v3.4l13.9-.8v13.4l-13.9.8v1.7l17.7-1v8.9l-44.4,2.5v20.1l-2.8.2,2.8,9.9c2.8-.9,4.9-1.8,6.4-2.6,1.5-.8,2.3-1.2,2.5-1.3l-6.7.4v-25.2l37.7-2.1.6,25.1-6.1.3c1.3.7,3.3,1.4,6.1,2.2,2.6.6,4.1,1,4.4,1.2l-6.7,8.8.2.2Z"/>
      <polygon class="st0" points="96.2 365.9 97.8 365.8 98.9 361.8 95 362 96.2 365.9"/>
      <polygon class="st0" points="196.2 369.8 169.1 371.3 169.1 374.7 196.2 373.2 196.2 369.8"/>
      <polygon class="st0" points="260.3 360.1 237.6 361.4 237.6 362.5 260.3 361.2 260.3 360.1"/>
      <path class="st0" d="M356.7,361.4c-2.6.1-4.6,1-6.1,2.6-1.1,1.5-1.7,3.6-1.7,6.2s.6,4.6,1.7,6c1.5,1.4,3.5,2.2,6.1,2.4,1.8-.5,3.5-1.5,5-3.1,1.1-1.5,1.8-3.6,2.2-6.3-.4-2.6-1.1-4.6-2.2-6s-2.8-2.1-5-2v.2Z"/>
      <path class="st0" d="M440.1,336.2c-2.6-.2-4.4,1.4-5.5,4.8-1.5,3.1-2,7.9-1.7,14.6-.4,6,.2,10.4,1.7,13.3,1.1,3.3,2.9,4.9,5.5,4.7,2.2-.1,3.9-1.9,5-5.3,1.5-3.1,2.2-7.6,2.2-13.5s-.7-11.5-2.2-14.4c-1.1-3.3-2.8-4.7-5-4.2h0Z"/>
      <path class="st0" d="M524.1,331.5c-2.6-.2-4.4,1.4-5.5,4.8-1.5,3.1-2,7.9-1.7,14.6-.4,6,.2,10.4,1.7,13.3,1.1,3.3,2.9,4.9,5.5,4.7,2.2-.1,3.9-1.9,5-5.3,1.5-3.1,2.2-7.6,2.2-13.5s-.7-11.5-2.2-14.4c-1.1-3.3-2.8-4.7-5-4.2h0Z"/>
      <path class="st1" d="M126.6,360.3c.6-.2,3.1-.8,7.8-1.8,4.6-1,7.9-1.7,10-2l-5.5-12c-.6,0-3.7.7-9.4,1.9-5.7,1.1-10.7,1.8-15,2.2v32.4c0,.2-.2,1.9-.6,5.1-.4,3-.9,5.5-1.7,7.4l-4.4-2.6,5-.3v-11.7l-8.3.5v-2.2l8.3-.5v-11.7l-3.3.2,1.1-4h2.2v-11.9l-8.3.5v-4.5l-13.9.8v4.5l-11.6.6v11.7l3.3-.2,1.1,3.9-4.4.2v11.7l11.6-.6v2.2l-11.6.6v11.7l7.8-.4c-.2,0-1,.8-2.5,2.4-1.7,1.4-3.6,3-5.8,4.8l5.5,10.9,6.7-5.4v7.8l13.9-.8v-7.3l3.3,3.2,2.2-2.9,7.8,6.3c.4.2,1.8-2.3,4.4-7.5,2.6-5,4.1-13.7,4.4-26h1.7v32.9l12.7-.7v-33l3.9-.2v-13.4l-18.3,1v-3.9h0ZM97.8,365.8h-1.7l-1.1-3.8,3.9-.2s-1.1,4-1.1,4Z"/>
      <polygon class="st1" points="151.3 356.7 212.9 353.2 212.9 340.4 151.3 343.8 151.3 356.7"/>
      <path class="st1" d="M155.2,379.9c.2.4-.2,3.1-1.1,8.2s-3.5,10-7.8,14.7c.4.2,2.4,1.4,6.1,3.6,3.5,2,5.7,3.4,6.7,4.1.2.2,1.4-1.4,3.6-4.7,2.2-3.3,4.2-9.4,5.8-18.2l27.7-1.5v2.2l13.9-.8v-31.3l-54.9,3v20.7h0ZM169.1,371.3l27.2-1.5v3.4l-27.2,1.5v-3.4Z"/>
      <path class="st1" d="M276.4,377.1v-7.3l-55.4,3.1v8.9l27.2-1.5-2.2,2.4-29.4,1.6v10.6l27.7-1.5v1.1c0,.6-.4,1-1.1,1.2l-11.1.6,1.4,3.6c1.1,2.2,2.1,4.5,3,6.8l13.3-.7c.2,0,1.6-.5,4.2-1.3,2.4-.9,3.8-3,4.2-6.4v-5.6l23.3-1.3v-10.6l-15.5.9,10.5-4.5h0Z"/>
      <path class="st1" d="M275.8,367.6v-15.7l-53.2,3v15.7l53.2-3ZM237.6,361.4l22.7-1.3v1.1l-22.7,1.3v-1.1Z"/>
      <polygon class="st1" points="280.8 338.8 255.9 340.2 255.9 337.4 240.9 338.3 240.9 341.1 215.9 342.4 215.9 353.6 280.8 350 280.8 338.8"/>
      <path class="st5" d="M367.2,339.7c-.7-.3-1.3-.3-1.7,0-.7,0-1.3.3-1.7.6l28.2-27.8-42,2.3-10.5,12.8c-6.6,7.8-11.8,15.1-15.5,22-2.9,5.4-4.6,11.1-5.3,17.1.2.5.4,1,.4,1.6v3.6c0,.7-.2,1.3-.6,1.9.5,9.4,3.9,17,10.4,22.9,6.6,5.9,15.8,8.8,27.6,8.5,11.4-1,20.4-5,27.1-12.1,7-7.1,10.7-16,11-26.8-.4-9.3-2.8-16.2-7.2-20.8-4.8-4.6-11.6-6.6-20.4-6.1l.2.3ZM361.7,375.6c-1.5,1.6-3.1,2.6-5,3.1-2.6-.2-4.6-1-6.1-2.4-1.1-1.4-1.7-3.4-1.7-6s.6-4.7,1.7-6.2c1.5-1.6,3.5-2.4,6.1-2.6,2.2-.1,3.9.5,5,2,1.1,1.4,1.8,3.4,2.2,6-.4,2.6-1.1,4.7-2.2,6.3v-.2Z"/>
      <path class="st5" d="M440.1,308.3c-11.8.7-21.2,5.3-28.2,13.8-6.6,8.5-9.9,20.2-9.9,35.1s3.3,25.1,9.9,32.9c7,7.4,16.4,11,28.2,10.7,11.8-1,21.2-5.6,28.2-13.8,6.6-8.2,10.1-19.5,10.5-34-.4-15.2-3.9-26.5-10.5-34-7-7.8-16.4-11.4-28.2-10.7h0ZM445.1,368.2c-1.1,3.4-2.8,5.2-5,5.3-2.6.1-4.4-1.4-5.5-4.7-1.5-2.9-2-7.3-1.7-13.3-.4-6.7.2-11.5,1.7-14.6,1.1-3.4,2.9-5,5.5-4.8,2.2-.5,3.9.9,5,4.2,1.5,2.9,2.2,7.7,2.2,14.4s-.7,10.4-2.2,13.5h0Z"/>
      <path class="st5" d="M551.6,370.2v-9.6c0-2.1,1.2-4,3-4.9v-8.2c0-2.9,2.3-5.4,5.2-5.5h2.5c-1.1-12.1-4.5-21.3-10.1-27.6-7-7.8-16.4-11.4-28.2-10.7-11.8.7-21.2,5.3-28.2,13.8-6.6,8.5-9.9,20.2-9.9,35.1s3.3,25.1,9.9,32.9c7,7.4,16.4,11,28.2,10.7,11.4-1,20.5-5.4,27.5-13.1.4-1,1-1.8,1.9-2.4,1.1-1.6,2.2-3.2,3.1-5-1.2-.1-2.4-.6-3.3-1.5-1.1-1-1.7-2.5-1.7-4h0ZM529,363.6c-1.1,3.4-2.8,5.2-5,5.3-2.6.1-4.4-1.4-5.5-4.7-1.5-2.9-2-7.3-1.7-13.3-.4-6.7.2-11.5,1.7-14.6,1.1-3.4,2.9-5,5.5-4.8,2.2-.5,3.9.9,5,4.2,1.5,2.9,2.2,7.7,2.2,14.4s-.7,10.4-2.2,13.5h0Z"/>
      <path class="st1" d="M353,320.5c-9.6,10.1-17.1,20-22.8,30.2l2.3,1.3c5.6-10,13-19.7,22.4-29.7l-1.9-1.8Z"/>
      <path class="st1" d="M410.1,346.7l2.6.4c1.4-9.9,10.1-22.3,15.1-25.5l-1.4-2.2c-6.2,4-14.9,17.4-16.3,27.4h0Z"/>
      <path class="st1" d="M492.5,340.3l2.6.4c1.4-9.9,10.1-22.3,15.1-25.5l-1.4-2.2c-6.2,4-14.9,17.4-16.3,27.4h0Z"/>
      <polygon class="st0" points="297.9 357.8 299.3 357.7 299.3 357.1 297.9 357.2 297.9 357.8"/>
      <polygon class="st0" points="298.3 344.7 308.7 344.1 308.7 343.5 298.3 344.1 298.3 344.7"/>
      <polygon class="st0" points="297.9 360.8 299.3 360.8 299.3 360.2 297.9 360.2 297.9 360.8"/>
      <polygon class="st0" points="298.3 347.9 308.7 347.3 308.7 346.7 298.3 347.3 298.3 347.9"/>
      <path class="st0" d="M304.4,360.5l-.5-.8v2.8l1.6-.7c-.5-.4-.8-.8-1.1-1.4h0Z"/>
      <path class="st0" d="M308.1,358.9c.2.2.3.3.4.4,0,0,.2-.2.5-.5.2-.3.4-.5.5-.5h-1.8c0,.3.2.5.4.7h0Z"/>
      <polygon class="st0" points="297.9 355.2 299.3 355.1 299.3 354.5 297.9 354.6 297.9 355.2"/>
      <polygon class="st0" points="302.3 387.3 304.9 387.1 304.9 386.5 302.3 386.6 302.3 387.3"/>
      <polygon class="st0" points="299.9 376.9 307.3 376.5 307.3 375.9 299.9 376.3 299.9 376.9"/>
      <path class="st1" d="M313.7,340.4l-20.4,1.1v9.3l20.4-1.1v-9.3ZM308.7,347.3l-10.4.6v-.6l10.4-.6v.6ZM308.7,344.1l-10.4.6v-.6l10.4-.6v.6Z"/>
      <path class="st1" d="M312.5,360.6s.4-.7.9-2c.6-1.2,1-2.6,1.3-4.2l-10.4.6v3.4h.6l-1,.8v-5l11.6-.6v-3.2l-23.8,1.3v3.2h2c0-.1,0,6.8,0,6.8l-1.8.3.6,3.6,6.8-1.4v2l4.6-.3v-2l1.4,1.9,1.2-.5c.7-.3,1.6-.8,2.6-1.4l1.6.5c1,.3,2.1.6,3.4.8l1.8-4.1c-.1,0-.7-.1-1.6-.2-.9,0-1.5-.2-1.8-.4h0ZM299.3,360.8h-1.4v-.5h1.4v.5ZM299.3,357.7h-1.4v-.5h1.4v.5ZM299.3,355.1h-1.4v-.5h1.4v.5ZM303.9,362.5v-2.8l.5.8c.3.5.6,1,1.1,1.4l-1.6.7h0ZM309,358.7c-.3.3-.4.5-.5.5,0,0-.2-.2-.4-.4-.2-.2-.3-.4-.4-.6h1.8c-.1,0-.3,0-.5.4h0Z"/>
      <path class="st1" d="M292.1,392.5l5-.3v-8.5l12.6-.7v4h-.6v-3.4l-11.2.6v6.5l9.2-.5.4.5c.3.3.5.6.6.9l3.2-.2c.1,0,.7-.1,1.7-.4.9-.3,1.5-1.1,1.7-2.2v-9.5l-22.6,1.3v11.9h0ZM304.9,387.1h-2.6c0,.1,0-.5,0-.5h2.6c0-.1,0,.5,0,.5Z"/>
      <path class="st1" d="M294.5,374v5.9l18-1v-5.9l-18,1ZM307.3,376.5l-7.4.4v-.6l7.4-.4v.6Z"/>
      <polygon class="st1" points="306.3 367.6 301.1 367.9 301.1 369.3 291.7 369.9 291.7 373.5 315.5 372.2 315.5 368.5 306.3 369.1 306.3 367.6"/>
      <polygon class="st0" points="635.5 352.8 629.4 353.2 629.4 358.8 635.5 358.4 635.5 352.8"/>
      <path class="st0" d="M650.5,335.8l-36.6,2v38l36.6-2v-38ZM647.1,370.6l-29.9,1.7v-31.3l29.9-1.7v31.3Z"/>
      <polygon class="st0" points="706.8 327.6 702.9 327.8 702.9 329.5 706.8 329.3 706.8 327.6"/>
      <polygon class="st0" points="677.9 339.8 677.9 335.9 673.5 340.1 677.9 339.8"/>
      <polygon class="st0" points="679.6 372.2 683.5 372 681.8 369.3 687.4 366.7 679.6 367.2 679.6 372.2"/>
      <polygon class="st0" points="682.9 347.4 679.6 347.6 679.6 349.8 682.9 349.6 682.9 347.4"/>
      <polygon class="st0" points="682.9 356.3 679.6 356.5 679.6 358.8 682.9 358.6 682.9 356.3"/>
      <polygon class="st0" points="722.3 326.7 717.9 327 717.9 328.7 722.3 328.4 722.3 326.7"/>
      <polygon class="st0" points="704.5 360.7 720.1 359.9 720.1 357.6 704.5 358.5 704.5 360.7"/>
      <polygon class="st0" points="704.5 366.9 720.1 366 720.1 364.4 704.5 365.2 704.5 366.9"/>
      <polygon class="st0" points="704.5 354 720.1 353.2 720.1 350.9 704.5 351.8 704.5 354"/>
      <polygon class="st0" points="683.5 330 680.1 333.6 686.8 333.2 683.5 330"/>
      <polygon class="st0" points="689.6 337.5 706.8 336.6 706.8 334.9 693.5 335.6 693.5 332.8 691.8 336.8 689 335.3 689 339.2 689.6 339.2 689.6 337.5"/>
      <path class="st1" d="M617.2,372.3l29.9-1.7v-31.3l-29.9,1.7v31.3h0ZM629.4,353.2l6.1-.3v5.6l-6.1.3v-5.6Z"/>
      <path class="st1" d="M601.1,340.8c.3.2.5.4.7.6,1.1,1,1.7,2.5,1.7,4v8.1c.3.2.6.4.9.7,1.1,1,1.7,2.5,1.7,4v9.6c0,1.1-.3,2.1-.8,2.9,1.2,1,2,2.6,2,4.2v4.6c-.4,5.1-1.8,8.9-4.3,11.3l10.8-.6v-1.7l36.6-2v1.7l13.3-.7v-65.5l-62.7,3.5v15.3ZM613.9,337.8l36.6-2v38l-36.6,2v-38Z"/>
      <path class="st1" d="M725.6,371.3l6.1-.3-.6-25.1-37.7,2.1v25.2l6.7-.4c-.2,0-1,.4-2.5,1.3-1.5.8-3.6,1.7-6.4,2.6l-2.8-9.9,2.8-.2v-20.1l44.4-2.5v-8.9l-17.7,1v-1.7l13.9-.8v-13.4l-13.9.8v-3.4l-11.1.6v3.4l-13.3.7v3.4c-1.3-.9-2.5-1.9-3.6-3.2-1.3-1.2-2.5-2.5-3.6-3.7l-10,.6-1.9,4.6c-1.5,2.9-4.3,6.4-8.3,10.5l1.4,11.1,2.2-1.2v29.6l-2.8.2,1.7,11.7,16.1-3.1.6,2.8,7.8-2.1-.6-2.8,3.9,4.8c.2-.2,2-1.1,5.5-2.8,3.5-1.7,6.8-3.8,10-6.4l-3.9-3.7,8.9-.5-3.3,4.1c.2.2,2,1.2,5.5,3.1,3.5,1.7,7,3.2,10.5,4.4l6.7-8.8c-.4-.2-1.8-.6-4.4-1.2-2.8-.8-4.8-1.5-6.1-2.2l-.2-.2ZM717.9,327l4.4-.2v1.7l-4.4.2v-1.7ZM702.9,327.8l3.9-.2v1.7l-3.9.2v-1.7ZM689,335.3l2.8,1.5,1.7-4v2.8l13.3-.7v1.7l-17.2,1v1.7h-.6v-3.9h0ZM683.5,330l3.3,3.2-6.7.4,3.3-3.5h.1ZM679.6,347.6l3.3-.2v2.2l-3.3.2v-2.2ZM679.6,356.5l3.3-.2v2.2l-3.3.2v-2.2ZM677.9,339.8l-4.4.2,4.4-4.2v3.9h0ZM681.8,369.3l1.7,2.7-3.9.2v-5l7.8-.4-5.5,2.5h0ZM720.1,366l-15.5.9v-1.7l15.5-.9v1.7ZM720.1,359.9l-15.5.9v-2.2l15.5-.9v2.2ZM720.1,353.2l-15.5.9v-2.2l15.5-.9v2.2Z"/>
      <path class="st5" d="M593.1,372.8v3.8c0,.1,0,.8-.4,1.9,0,1-.6,1.7-1.5,2h-2.6c0,.1,0-12.1,0-12.1l12.1-.7v-9.6l-43.6,2.4v9.6l10.6-.6c.3.4,0,2.4-.9,6-1,3.8-4.4,6.9-10,9.5,0,.1.9,1,2.5,2.7s2.8,3.2,3.6,4.6c.5,0,2.7-1.4,6.4-4.4,3.9-2.9,6.4-8.2,7.6-15.9v-3.1l3-.2v18c0,.1,0,.7.6,1.7.4.9,1.7,1.4,4,1.5l9.5-.5c.3.1,1.6-.4,4-1.6,2.3-1.1,3.6-4.1,4-8.8v-4.2c-.4-.1-1.6-.4-3.8-.9-2.3-.5-3.9-.9-4.9-1.3l-.2.2Z"/>
      <polygon class="st5" points="560.2 357 598 354.9 598 345.4 560.2 347.5 560.2 357"/>
    </g>
    <g>
      <path class="st0" d="M784,155.8l-7.4-2.5c-2.4-1-3.9-2.7-5.3-6.3l-3.5-13.2c-.2-.9-1-1.4-1.9-1.4s-1.7.6-1.9,1.4l-3.5,13.2c-1.4,3.5-2.9,5.3-5.3,6.3l-7.4,2.5c-.8.3-1.3,1-1.3,1.8s.5,1.6,1.3,1.8l7.4,2.5c2.4,1,3.9,2.7,5.3,6.3l3.5,13.2c.2.9,1,1.4,1.9,1.4s1.7-.6,1.9-1.4l3.5-13.2c1.4-3.5,2.9-5.3,5.3-6.3l7.4-2.5c.8-.3,1.3-1,1.3-1.8s-.5-1.6-1.3-1.8Z"/>
      <path class="st5" d="M775,153.4l-7.4-2.5c-2.4-1-3.9-2.7-5.3-6.3l-3.5-13.2c-.2-.9-1-1.4-1.9-1.4s-1.7.6-1.9,1.4l-3.5,13.2c-1.4,3.5-2.9,5.3-5.3,6.3l-7.4,2.5c-.8.3-1.3,1-1.3,1.8s.5,1.6,1.3,1.8l7.4,2.5c2.4,1,3.9,2.7,5.3,6.3l3.5,13.2c.2.9,1,1.4,1.9,1.4s1.7-.6,1.9-1.4l3.5-13.2c1.4-3.5,2.9-5.3,5.3-6.3l7.4-2.5c.8-.3,1.3-1,1.3-1.8s-.5-1.6-1.3-1.8Z"/>
    </g>
    <g>
      <path class="st0" d="M100.3,289.5l-7.4-2.5c-2.4-1-3.9-2.7-5.3-6.3l-3.5-13.2c-.2-.9-1-1.4-1.9-1.4s-1.7.6-1.9,1.4l-3.5,13.2c-1.4,3.5-2.9,5.3-5.3,6.3l-7.4,2.5c-.8.3-1.3,1-1.3,1.8s.5,1.6,1.3,1.8l7.4,2.5c2.4,1,3.9,2.7,5.3,6.3l3.5,13.2c.2.9,1,1.4,1.9,1.4s1.7-.6,1.9-1.4l3.5-13.2c1.4-3.5,2.9-5.3,5.3-6.3l7.4-2.5c.8-.3,1.3-1,1.3-1.8s-.5-1.6-1.3-1.8Z"/>
      <path class="st5" d="M91.3,287.1l-7.4-2.5c-2.4-1-3.9-2.7-5.3-6.3l-3.5-13.2c-.2-.9-1-1.4-1.9-1.4s-1.7.6-1.9,1.4l-3.5,13.2c-1.4,3.5-2.9,5.3-5.3,6.3l-7.4,2.5c-.8.3-1.3,1-1.3,1.8s.5,1.6,1.3,1.8l7.4,2.5c2.4,1,3.9,2.7,5.3,6.3l3.5,13.2c.2.9,1,1.4,1.9,1.4s1.7-.6,1.9-1.4l3.5-13.2c1.4-3.5,2.9-5.3,5.3-6.3l7.4-2.5c.8-.3,1.3-1,1.3-1.8s-.5-1.6-1.3-1.8Z"/>
    </g>
    <g>
      <g>
        <path class="st1" d="M218.3,154.3v-1.7c0-.2,0-.4.2-.5,4.5-4.5,7.5-8.1,7.5-10.8s-.9-2.7-2.4-2.6c-1,0-1.9.7-2.6,1.5-.3.3-.7.4-.9,0l-1.5-1.5c-.3-.3-.3-.6,0-1,1.7-1.7,3.3-2.6,5.7-2.8,3.6-.2,6.1,2.1,6.1,5.8s-2.1,6.2-4.5,9c-.6.7-.4,1.1.4.9.6,0,1.1,0,1.5-.2h2.8c.4,0,.7,0,.7.5v2.5c0,.4-.3.7-.7.7l-11.5.5c-.4,0-.7-.2-.7-.7v.4Z"/>
        <path class="st1" d="M236.8,144.3c0-6.6,2.6-10,6.6-10.2,3.9-.2,6.6,3,6.6,9.6s-2.7,10.2-6.6,10.4c-3.9.2-6.6-3.2-6.6-9.8ZM245.8,143.9c0-5.3-1.1-6.3-2.4-6.2-1.3,0-2.4,1.2-2.4,6.5s1,6.5,2.4,6.4c1.3,0,2.4-1.3,2.4-6.6h0Z"/>
        <path class="st1" d="M255.4,152.5v-1.7c0-.2,0-.4.2-.5,4.5-4.5,7.5-8.1,7.5-10.8s-.9-2.7-2.4-2.6c-1,0-1.9.7-2.6,1.5-.3.3-.7.4-.9,0l-1.5-1.5c-.3-.3-.3-.6,0-1,1.7-1.7,3.3-2.6,5.7-2.8,3.6-.2,6.1,2.1,6.1,5.8s-2.1,6.2-4.5,9c-.6.7-.4,1.1.4.9.6,0,1.1,0,1.5-.2h2.8c.4,0,.7,0,.7.5v2.5c0,.4-.3.7-.7.7l-11.5.5c-.4,0-.7-.2-.7-.7v.4Z"/>
        <path class="st1" d="M274,150.4c-.3-.2-.3-.6,0-.9l1.2-1.9c.3-.4.7-.4,1-.2.9.7,2,1.2,3.3,1.2s2.9-1.1,2.9-3.1-1.1-2.9-2.7-2.8c-.9,0-1.4.2-2.3.8-.2,0-.5.2-.7,0l-1.3-.8c-.2,0-.3-.4-.3-.6l.4-8.5c0-.4.3-.7.7-.7l9.1-.4c.4,0,.7.2.7.7v2.5c0,.4-.3.7-.7.7l-5.3.3c-.4,0-.6.3-.7.7v1.6c-.2.6.2.8.7.7.3,0,.6-.1,1-.1,3.1-.1,5.8,1.7,5.8,5.8s-3.1,7-6.7,7.2c-2.7,0-4.6-.7-6.1-2v-.2Z"/>
        <path class="st1" d="M293.2,148.9c0-1.6,1.1-2.9,2.6-3,1.5,0,2.6,1.2,2.6,2.7s-1.1,2.9-2.6,3c-1.5,0-2.6-1.1-2.6-2.7Z"/>
        <path class="st1" d="M304.4,141.1c0-6.6,2.6-10,6.6-10.2,3.9-.2,6.6,3,6.6,9.6s-2.7,10.2-6.6,10.4-6.6-3.2-6.6-9.8ZM313.3,140.7c0-5.3-1.1-6.3-2.4-6.2-1.3,0-2.4,1.2-2.4,6.5s1,6.5,2.4,6.4c1.3,0,2.4-1.3,2.4-6.6h0Z"/>
        <path class="st1" d="M326.5,149.1c.3-5.5,1.2-9.3,4-13.8.4-.7.2-1.1-.6-1.1l-6,.3c-.4,0-.7-.2-.7-.7v-2.5c0-.4.3-.7.7-.7l11.4-.5c.4,0,.7.2.7.7v1.9c0,.1,0,.3-.2.4h0c-4,5.3-4.6,8.9-4.9,15.9,0,.4-.3.7-.7.7h-3.1c-.4.2-.7,0-.6-.5h0Z"/>
        <path class="st1" d="M342.1,146.6c0-1.6,1.1-2.9,2.6-3,1.5,0,2.6,1.2,2.6,2.7s-1.1,2.9-2.6,3c-1.5,0-2.6-1.1-2.6-2.7Z"/>
        <path class="st1" d="M353.4,138.8c0-6.6,2.6-10,6.6-10.2,3.9-.2,6.6,3,6.6,9.6s-2.7,10.2-6.6,10.4-6.6-3.2-6.6-9.8ZM362.3,138.4c0-5.3-1.1-6.3-2.4-6.2-1.3,0-2.4,1.2-2.4,6.5s1,6.5,2.4,6.4c1.3,0,2.4-1.3,2.4-6.6h0Z"/>
        <path class="st1" d="M372.9,146.9v-2.4c0-.4.3-.7.7-.7h2.6c.4,0,.7-.4.7-.8v-9.6c0-.4-.3-.7-.7-.7h-2.1c-.4.1-.7-.1-.7-.6v-1.6c0-.4.2-.6.5-.7,1.6-.4,2.8-.9,3.9-1.7.1,0,.2-.1.3-.1h2.4c.4-.1.7.1.7.5v14.2c0,.4.3.7.7.7h2c.4,0,.7,0,.7.6v2.4c0,.4-.3.7-.7.7l-10.4.5c-.4,0-.7-.2-.7-.7h.1Z"/>
        <path class="st1" d="M437.8,143.9v-1.7c0-.2,0-.4.2-.5,4.5-4.5,7.5-8.1,7.5-10.8s-.9-2.7-2.4-2.6c-1,0-1.9.7-2.6,1.5-.3.3-.7.4-.9,0l-1.5-1.5c-.3-.3-.3-.6,0-1,1.7-1.7,3.3-2.6,5.7-2.8,3.6-.2,6.1,2.1,6.1,5.8s-2.1,6.2-4.5,9c-.6.7-.4,1.1.4.9.6,0,1.1,0,1.5-.2h2.8c.4,0,.7,0,.7.5v2.5c0,.4-.3.7-.7.7l-11.5.5c-.4,0-.7-.2-.7-.7v.4Z"/>
        <path class="st1" d="M456.3,133.9c0-6.6,2.6-10,6.6-10.2,3.9-.2,6.6,3,6.6,9.6s-2.7,10.2-6.6,10.4-6.6-3.2-6.6-9.8ZM465.2,133.5c0-5.3-1.1-6.3-2.4-6.2-1.3,0-2.4,1.2-2.4,6.5s1,6.5,2.4,6.4c1.3,0,2.4-1.3,2.4-6.6h0Z"/>
        <path class="st1" d="M474.9,142.1v-1.7c0-.2,0-.4.2-.5,4.5-4.5,7.5-8.1,7.5-10.8s-.9-2.7-2.4-2.6c-1,0-1.9.7-2.6,1.5-.3.3-.7.4-.9,0l-1.5-1.5c-.3-.3-.3-.6,0-1,1.7-1.7,3.3-2.6,5.7-2.8,3.6-.2,6.1,2.1,6.1,5.8s-2.1,6.2-4.5,9c-.6.7-.4,1.1.4.9.6,0,1.1-.1,1.5-.2h2.8c.4-.1.7.1.7.5v2.5c0,.4-.3.7-.7.7l-11.5.5c-.4,0-.7-.2-.7-.7v.4Z"/>
        <path class="st1" d="M493.5,140c-.3-.2-.3-.6,0-.9l1.2-1.9c.3-.4.7-.4,1-.2.9.7,2,1.2,3.3,1.2s2.9-1.1,2.9-3.1-1.1-2.9-2.7-2.8c-.9,0-1.4.2-2.3.8-.2.1-.5.2-.7,0l-1.3-.8c-.2-.1-.3-.4-.3-.6l.4-8.5c0-.4.3-.7.7-.7l9.1-.4c.4,0,.7.2.7.7v2.5c0,.4-.3.7-.7.7l-5.3.3c-.4,0-.6.3-.7.7v1.6c-.2.6.2.8.7.7.3,0,.6-.1,1-.1,3.1-.1,5.8,1.7,5.8,5.8s-3.1,7-6.7,7.2c-2.7,0-4.6-.7-6.1-2v-.2Z"/>
        <path class="st1" d="M512.6,138.5c0-1.6,1.1-2.9,2.6-3,1.5,0,2.6,1.2,2.6,2.7s-1.1,2.9-2.6,3c-1.5,0-2.6-1.1-2.6-2.7Z"/>
        <path class="st1" d="M523.9,130.7c0-6.6,2.6-10,6.6-10.2,3.9-.2,6.6,3,6.6,9.6s-2.7,10.2-6.6,10.4-6.6-3.2-6.6-9.8ZM532.8,130.3c0-5.3-1.1-6.3-2.4-6.2-1.3,0-2.4,1.2-2.4,6.5s1,6.5,2.4,6.4c1.3,0,2.4-1.3,2.4-6.6h0Z"/>
        <path class="st1" d="M543,137.1l1.4-1.8c.3-.4.7-.4,1-.1.6.4,1.5.7,2.3.7,1.5,0,2.8-1,3.3-3.6.2-1.3-.2-1.4-1.2-.8-.7.5-1.5.7-2.1.8-3.1.1-5.4-1.7-5.4-5.8s2.8-6.6,6.1-6.8c3.5-.2,6.9,2.5,6.9,9.4s-3.5,10.4-7.3,10.6c-2.2.1-3.9-.7-5-1.6-.3-.2-.3-.6,0-.9h0ZM551.2,127.2v-.2c-.4-3.1-1.5-3.9-2.6-3.8-1.2,0-2.2,1-2.2,3.2s1,2.8,2.3,2.7c.9,0,1.8-.6,2.5-1.8h0Z"/>
        <path class="st1" d="M561.6,136.2c0-1.6,1.1-2.9,2.6-3,1.5,0,2.6,1.2,2.6,2.7s-1.1,2.9-2.6,3c-1.5,0-2.6-1.1-2.6-2.7Z"/>
        <path class="st1" d="M572.8,136.2c-.2-.2-.2-.6,0-.8l1.3-1.9c.3-.4.7-.4,1-.2,1,.8,2.1,1.2,3.3,1.2,1.7,0,2.8-.9,2.8-2.3s-.7-2.5-4.1-2.5-.7-.2-.7-.7v-1.9c0-.4.3-.7.7-.7,2.6-.3,3.5-1.3,3.5-2.7s-.7-2-2.1-1.9c-1,0-1.9.5-2.8,1.3-.3.3-.7.3-.9,0l-1.4-1.7c-.3-.3-.2-.7,0-.9,1.6-1.3,3.3-2.1,5.2-2.2,3.9-.2,6.4,1.6,6.4,5s-1,3.5-3,4.4h0c2,.7,3.6,2.2,3.6,4.7,0,3.6-3.1,5.8-6.8,5.9-2.7.1-4.7-.7-6-2h0Z"/>
        <path class="st1" d="M591.4,127.5c0-6.6,2.6-10,6.6-10.2,3.9-.2,6.6,3,6.6,9.6s-2.7,10.2-6.6,10.4c-3.9.2-6.6-3.2-6.6-9.8ZM600.4,127.1c0-5.3-1.1-6.3-2.4-6.2-1.3,0-2.4,1.2-2.4,6.5s1,6.5,2.4,6.4c1.3,0,2.4-1.3,2.4-6.6h0Z"/>
      </g>
      <path class="st1" d="M419.8,135.3l-11.7-6.5c-.8-.5-1.9.1-1.9,1.1v14.1c0,1,1.1,1.6,1.9,1.1l11.7-7.6c.8-.5.8-1.7,0-2.2Z"/>
    </g>
  </g>
</svg>