<svg width="217" height="217" viewBox="0 0 217 217" fill="none" xmlns="http://www.w3.org/2000/svg">
<g opacity="0.46">
<path d="M148.357 177.474C185.917 155.973 198.461 107.62 176.375 69.4745C154.289 31.3294 105.935 17.8372 68.3749 39.3388C30.8144 60.8405 18.2703 109.194 40.3566 147.339C62.4429 185.484 110.796 198.976 148.357 177.474Z" stroke="white" stroke-width="3.71" stroke-miterlimit="10"/>
<path d="M141.458 96.7868C135.123 94.471 127.805 94.5408 120.667 95.3094C115.296 95.8884 109.895 96.8866 104.555 98.2442C101.965 93.8521 99.3947 89.46 96.8448 85.048C95.1883 82.1731 93.5319 79.2883 91.8955 76.4035C97.678 72.2809 104.354 69.2863 111.05 68.0286C116.612 66.9805 116.913 59.5539 111.211 60.0929C102.898 60.8715 94.6763 63.7662 87.4483 68.2482C86.3139 66.152 85.0991 64.1056 83.6234 62.3288C80.8025 58.9449 73.7651 61.8697 75.1103 66.5313C75.9335 69.3862 77.3791 72.1212 78.8649 74.7764C77.2185 76.3037 75.6625 77.9108 74.2269 79.6177C65.8945 89.5698 57.8834 108.536 72.4801 114.275C78.1823 116.521 84.9586 115.024 91.1326 112.978C93.7728 112.109 96.383 111.211 99.0032 110.362C99.485 111.161 99.9569 111.959 100.439 112.768C104.876 120.145 109.424 127.452 114.072 134.709C114.383 135.188 114.694 135.657 115.005 136.136C109.665 138.132 104.173 139.46 98.5414 140.598C91.6345 141.985 91.243 150.999 98.3406 150.47C105.669 149.931 113.459 147.605 120.497 144.561C120.808 145.03 121.099 145.499 121.41 145.968C122.555 147.695 123.699 149.412 124.864 151.119C126.289 153.215 127.373 155.391 129.973 156.409C133.076 157.627 137.171 155.182 137.222 151.848C137.272 149.202 135.907 147.595 134.531 145.549C133.286 143.692 132.042 141.826 130.797 139.969C130.706 139.839 130.616 139.7 130.536 139.57C135.144 136.935 139.521 133.87 143.255 130.247C148.706 124.946 152.642 117.979 152.401 111.131C152.16 104.463 147.933 99.1725 141.468 96.8167L141.458 96.7868ZM79.7082 105.062C73.9056 104.423 75.5219 97.246 77.349 93.2531C78.9151 89.8493 81.1137 86.6251 83.7439 83.6704C84.8883 85.7766 86.0127 87.8928 87.1772 89.9891C89.3256 93.8721 91.5341 97.7151 93.7728 101.548C89.2051 103.295 84.045 105.531 79.7082 105.052V105.062ZM140.655 115.982C138.587 122.73 131.58 127.651 125.125 131.345C124.743 130.756 124.352 130.177 123.97 129.588C119.192 122.221 114.513 114.784 109.956 107.278C110.809 107.088 111.672 106.909 112.536 106.759C121.3 105.172 144.982 101.838 140.645 115.982H140.655Z" fill="white"/>
<path d="M47.2323 182.562C12.8086 154.892 6.98598 105.291 34.2318 71.7817C34.6635 71.2526 35.1153 70.7535 35.557 70.2345L44.2909 59.4639L44.6423 59.7433C44.582 59.8132 44.5319 59.8731 44.4716 59.943C17.2258 93.4527 23.0484 143.053 57.4721 170.724C89.607 196.557 135.305 194.131 163.404 166.441L158.906 171.991C131.66 205.501 81.6661 210.242 47.2424 182.572L47.2323 182.562Z" stroke="white" stroke-width="3.71" stroke-linecap="round" stroke-linejoin="round"/>
</g>
</svg>
