<svg width="103" height="98" viewBox="0 0 103 98" fill="none" xmlns="http://www.w3.org/2000/svg"><path d="M99.826 54.022c.07-1.972 0-3.954 0-5.905V30.162h-79.84v-.11c0 7.41-.06 14.828-.06 22.227 0 10.008 6.446 17.685 14.867 22.445 9.233 5.228 20.301 7.13 30.817 6.264.512-.04 1.023-.09 1.544-.15 9.785-1.065 20.02-4.68 26.788-12.069 1.774-1.941 3.278-4.142 4.32-6.552 1.123-2.609 1.474-5.387 1.564-8.185v-.01Z" fill="#F1A65C"/><path fill-rule="evenodd" clip-rule="evenodd" d="M18.096 28.273h83.62v19.844c0 .6.008 1.228.015 1.87.016 1.328.032 2.719-.015 4.068v.007l-.001.03c-.093 2.901-.459 5.95-1.717 8.872l-.001.004c-1.138 2.63-2.767 5.005-4.66 7.076l-.002.002c-7.188 7.849-17.93 11.576-27.97 12.67-.54.062-1.07.114-1.604.156-10.827.89-22.283-1.059-31.898-6.502-8.775-4.96-15.827-13.166-15.827-24.091 0-3.702.015-7.408.03-11.111v-.006c.015-3.706.03-7.41.03-11.11v-1.78Zm3.778 3.78c-.004 3.042-.016 6.085-.028 9.124v.002c-.015 3.706-.03 7.406-.03 11.1 0 9.09 5.84 16.24 13.907 20.8h.001c8.85 5.012 19.527 6.866 29.731 6.025h.009c.486-.038.975-.086 1.475-.143l.01-.001c9.527-1.038 19.253-4.54 25.597-11.466 1.656-1.811 3.034-3.838 3.981-6.026.984-2.287 1.32-4.784 1.41-7.467v-.047c.046-1.273.03-2.514.015-3.799-.008-.664-.016-1.34-.016-2.038V32.053H21.874Z" fill="#123B68"/><path fill-rule="evenodd" clip-rule="evenodd" d="M100.28 48.358a1.89 1.89 0 0 1 .785 2.555c-7.329 13.838-22.767 18.774-36.832 20.165-.035.004-.07.006-.105.008-16.309.701-35.901-4.892-45.207-19.913a1.89 1.89 0 0 1 3.213-1.99c8.268 13.345 26.14 18.787 41.779 18.129 13.707-1.365 27.415-6.09 33.812-18.168a1.89 1.89 0 0 1 2.555-.786Z" fill="#123B68"/><path d="M99.836 30.242c.458-14.985-17.044-27.672-39.092-28.338C38.696 1.24 20.45 12.848 19.992 27.832c-.458 14.986 17.044 27.673 39.092 28.338 22.048.665 40.294-10.943 40.752-25.928Z" fill="#FFD571"/><path fill-rule="evenodd" clip-rule="evenodd" d="M32.208 45.84c6.73 4.879 16.238 8.118 26.934 8.441 10.696.323 20.385-2.337 27.4-6.8 7.025-4.47 11.2-10.615 11.405-17.296.204-6.681-3.588-13.066-10.327-17.951-6.729-4.878-16.238-8.118-26.934-8.44-10.696-.323-20.385 2.337-27.4 6.8-7.025 4.47-11.2 10.614-11.405 17.296-.204 6.681 3.588 13.066 10.327 17.95Zm-2.22 3.062C22.58 43.53 17.85 36.079 18.104 27.776c.254-8.304 5.43-15.456 13.155-20.37C38.992 2.483 49.449-.328 60.802.015 72.154.357 82.42 3.794 89.84 9.172c7.41 5.371 12.139 12.822 11.885 21.126-.254 8.304-5.43 15.456-13.154 20.37-7.735 4.921-18.192 7.733-29.544 7.39-11.353-.342-21.62-3.78-29.038-9.157Z" fill="#123B68"/><path d="M66.332 36.038c.23-2.121-.38-4.023-1.203-5.736a21.072 21.072 0 0 0-2.245-3.625 826.328 826.328 0 0 1 6.015-7.707c1.794.687 3.298 1.832 4.25 3.326.792 1.244 3.208-.17 2.567-1.554-.922-2.021-2.516-3.585-4.552-4.58.582-.717 1.143-1.444 1.594-2.191.863-1.424-.651-2.669-2.045-1.384-.852.786-1.614 1.712-2.356 2.639-.621-.12-1.273-.21-1.935-.24-3.88-.179-10.636 1.534-11.308 6.513-.26 1.942.772 3.416 1.925 4.62.491.518.992 1.016 1.474 1.534-.221.289-.441.568-.662.856a635.44 635.44 0 0 0-5.965 7.977c-.13.179-.26.358-.381.528-1.073-.996-1.945-2.161-2.767-3.416-1.002-1.524-3.94.18-3.198 1.932.762 1.812 2.145 3.376 3.69 4.61-.131.17-.251.349-.382.518L47.465 42.6c-.562.797-1.173 1.514-1.293 2.4-.14 1.055.982 1.633 2.055.976.862-.518 1.263-1.195 1.814-1.972.502-.697.993-1.404 1.494-2.101.04-.05.07-.1.11-.15 1.223.678 2.567 1.205 4.03 1.454 2.146.359 4.712-.01 6.898-1.454 2.125-1.404 3.488-3.575 3.73-5.735l.03.02Zm-7.659-14.49c-.26-1.642 2.175-2.668 3.609-2.987a12.016 12.016 0 0 1 3.6-.259 330.574 330.574 0 0 0-4.943 6.214c-.933-.846-2.066-1.742-2.266-2.977v.01Zm1.404 18.134c-2.336.817-4.492-.03-6.206-.976.16-.219.31-.438.471-.657a519.736 519.736 0 0 1 6.055-8.145c.13.189.261.378.381.567 1.223 1.972 4.21 7.498-.701 9.211Z" fill="#123B68"/><path d="M45.28 81.755c.03-1.036 0-2.081 0-3.107V67.854H3.243c0 2.658-.03 9.091-.03 12.985 0 5.267 3.388 9.31 7.82 11.82 4.862 2.748 10.686 3.754 16.22 3.296.27-.02.541-.05.812-.08 5.153-.567 10.537-2.47 14.106-6.353.932-1.026 1.724-2.18 2.275-3.455.592-1.375.772-2.838.822-4.312h.01Z" fill="#F1A65C"/><path fill-rule="evenodd" clip-rule="evenodd" d="M1.354 65.963h45.815v12.685c0 .302.003.625.007.959.006.712.014 1.475-.007 2.203l-.054 1.835h-.097c-.134 1.04-.38 2.113-.835 3.169l-.001.003c-.648 1.497-1.565 2.824-2.612 3.976l-.007.008c-3.99 4.342-9.88 6.357-15.29 6.953l-.014.001c-.259.029-.555.062-.857.084-5.846.482-12.058-.573-17.299-3.535h-.001c-4.786-2.71-8.778-7.282-8.778-13.466a2482.451 2482.451 0 0 1 .017-7.647c.007-2.165.013-4.138.013-5.338v-1.89Zm3.777 3.78L5.12 73.2l-.002.689c-.008 2.428-.015 5.006-.015 6.95 0 4.35 2.783 7.866 6.86 10.174 4.48 2.533 9.915 3.49 15.134 3.058h.009l.008-.001c.23-.017.467-.043.744-.074 4.895-.539 9.77-2.327 12.917-5.75.816-.897 1.481-1.878 1.935-2.927.456-1.06.623-2.25.67-3.629l.02-.62c.004-.439 0-.874-.005-1.326-.003-.353-.007-.715-.007-1.096v-8.905H5.131Z" fill="#123B68"/><path fill-rule="evenodd" clip-rule="evenodd" d="M45.935 76.948a1.89 1.89 0 0 1 .783 2.556c-4.08 7.69-12.61 10.348-20.089 11.092a1.898 1.898 0 0 1-.106.007c-8.737.373-19.46-2.6-24.596-10.9a1.89 1.89 0 1 1 3.215-1.99c4.097 6.622 13.094 9.446 21.166 9.116 7.118-.717 13.922-3.16 17.071-9.097a1.89 1.89 0 0 1 2.556-.784Z" fill="#123B68"/><path d="M45.27 68.197c.241-7.889-8.971-14.567-20.576-14.917-11.605-.35-21.209 5.76-21.45 13.649-.241 7.888 8.97 14.567 20.576 14.917 11.605.35 21.209-5.761 21.45-13.65Z" fill="#FFD571"/><path fill-rule="evenodd" clip-rule="evenodd" d="M10.2 75.684c3.378 2.449 8.204 4.107 13.678 4.273 5.474.165 10.392-1.2 13.914-3.44 3.532-2.248 5.493-5.244 5.589-8.377.096-3.133-1.678-6.242-5.066-8.698-3.379-2.45-8.205-4.108-13.679-4.273-5.474-.165-10.393 1.199-13.914 3.44-3.533 2.248-5.493 5.243-5.589 8.377-.096 3.133 1.678 6.241 5.066 8.698Zm-2.22 3.06c-4.06-2.942-6.77-7.117-6.625-11.873.145-4.755 3.107-8.758 7.338-11.45 4.242-2.7 9.928-4.216 16.058-4.03 6.132.184 11.714 2.04 15.783 4.99 4.059 2.943 6.77 7.117 6.625 11.873-.145 4.755-3.107 8.759-7.338 11.451-4.242 2.699-9.928 4.215-16.059 4.03-6.13-.185-11.713-2.041-15.782-4.99Z" fill="#123B68"/><path d="M23.926 73.48c1.133-.877 1.774-2.062 2.215-3.247.331-.896.572-1.822.712-2.768 1.313-.15 2.637-.299 3.96-.448.862-.09 1.724-.19 2.587-.279.5 1.175.651 2.43.37 3.585-.23.956 1.574 1.454 1.955.508.552-1.384.562-2.878.1-4.312.622-.06 1.234-.13 1.805-.259 1.093-.249.993-1.553-.28-1.623-.782-.04-1.585.03-2.377.11a8.52 8.52 0 0 0-.782-1.036c-1.724-1.942-5.704-4.371-8.43-2.37-1.063.777-1.294 1.962-1.344 3.077-.02.478-.03.946-.05 1.424l-.722.09c-2.226.269-4.441.557-6.647.866l-.44.06c-.02-.976.14-1.942.36-2.918.27-1.195-1.925-1.802-2.426-.627-.521 1.215-.632 2.599-.511 3.913l-.431.06c-.532.08-1.053.16-1.584.249-.642.1-1.284.15-1.765.498-.581.428-.34 1.234.481 1.444.652.169 1.173.05 1.805-.05.571-.09 1.143-.18 1.714-.26.04 0 .08-.009.12-.019.241.896.612 1.782 1.174 2.609a6.473 6.473 0 0 0 3.92 2.619c1.674.368 3.358 0 4.52-.896h-.01Zm3.448-10.416c.672-.897 2.306-.2 3.138.338a8.228 8.228 0 0 1 1.805 1.603c-.622.06-1.253.11-1.875.17-1.153.11-2.306.229-3.449.358-.02-.836-.12-1.802.381-2.47Zm-8.13 9.131c-1.484-.737-2.085-2.16-2.426-3.425.18-.03.36-.05.541-.08 2.256-.319 4.512-.627 6.777-.906-.03.15-.06.298-.1.448-.391 1.504-1.674 5.507-4.792 3.963Z" fill="#123B68"/></svg>