<svg width="79" height="53" viewBox="0 0 79 53" fill="none" xmlns="http://www.w3.org/2000/svg"><g clip-path="url(#a)"><path d="M77.98 31.866c.14 10.032-14.356 13.966-25.277 13.966-10.28 0-25.277-3.604-25.277-13.645 0-1.332.04-5.026.11-6.207-.09 7.318 11.81 12.944 25.177 12.944 13.368 0 24.688-5.296 25.148-12.594.07 1.081.12 4.335.13 5.536h-.01Z" fill="#F1A65C"/><path fill-rule="evenodd" clip-rule="evenodd" d="m28.443 31.331-.003.855c0 4.402 3.263 7.553 8.168 9.654 4.872 2.087 11.047 2.976 16.095 2.976 5.364 0 11.567-.97 16.371-3.132 4.826-2.172 7.954-5.392 7.893-9.804l-.008-.545c-1.48 1.967-3.717 3.632-6.385 4.941-4.726 2.319-11.057 3.664-17.86 3.664-6.812 0-13.29-1.43-18.09-3.835-2.558-1.281-4.73-2.892-6.18-4.773Zm50.52 1.551c-.4 5.053-4.26 8.496-9.058 10.656-5.14 2.313-11.645 3.31-17.202 3.31-5.232 0-11.696-.913-16.892-3.139-5.164-2.212-9.4-5.883-9.4-11.523 0-1.327.04-5.05.112-6.267l2.027.073c-.038 3.055 2.449 6.025 6.981 8.295 4.469 2.239 10.625 3.62 17.182 3.62 6.565 0 12.577-1.302 16.969-3.456 4.436-2.176 6.971-5.082 7.167-8.185l2.024-.002c.072 1.116.122 4.401.132 5.594l.008 1.024h-.05Z" fill="#123B68"/><path d="M77.98 25.369c.14 10.031-14.356 13.965-25.277 13.965-10.28 0-25.277-3.604-25.277-13.645 0-1.331.04-5.026.11-6.207-.09 7.318 11.81 12.945 25.177 12.945 13.368 0 24.688-5.296 25.148-12.595.07 1.082.12 4.335.13 5.537h-.01Z" fill="#F1A65C"/><path fill-rule="evenodd" clip-rule="evenodd" d="m28.443 24.834-.003.855c0 4.402 3.263 7.553 8.168 9.654 4.872 2.087 11.047 2.975 16.095 2.975 5.364 0 11.567-.97 16.371-3.132 4.826-2.172 7.954-5.391 7.893-9.803l-.008-.545c-1.48 1.967-3.717 3.632-6.385 4.941-4.726 2.318-11.057 3.664-17.86 3.664-6.812 0-13.29-1.431-18.09-3.835-2.558-1.281-4.73-2.892-6.18-4.774Zm50.52 1.55c-.4 5.054-4.26 8.497-9.058 10.656-5.14 2.313-11.645 3.31-17.202 3.31-5.232 0-11.696-.913-16.892-3.138-5.164-2.212-9.4-5.883-9.4-11.523 0-1.327.04-5.051.112-6.267l2.027.073c-.038 3.054 2.449 6.025 6.981 8.295 4.469 2.238 10.625 3.62 17.182 3.62 6.565 0 12.577-1.302 16.969-3.456 4.436-2.177 6.971-5.082 7.167-8.186l2.024-.001c.072 1.116.122 4.4.132 5.593l.008 1.025h-.05Z" fill="#123B68"/><path d="M77.981 18.872c.14 10.03-14.357 13.965-25.278 13.965-10.28 0-25.277-3.604-25.277-13.645 0-1.332.04-5.026.11-6.207-.09 7.318 11.81 12.945 25.177 12.945 13.369 0 24.688-5.296 25.148-12.595.07 1.081.12 4.335.13 5.537h-.01Z" fill="#F1A65C"/><path fill-rule="evenodd" clip-rule="evenodd" d="m28.443 18.337-.003.855c0 4.401 3.263 7.553 8.168 9.654 4.872 2.087 11.047 2.975 16.095 2.975 5.364 0 11.567-.97 16.371-3.132 4.826-2.172 7.954-5.392 7.893-9.803l-.008-.546c-1.48 1.968-3.717 3.633-6.385 4.942-4.726 2.318-11.057 3.663-17.86 3.663-6.812 0-13.29-1.43-18.09-3.835-2.558-1.28-4.73-2.891-6.18-4.773Zm50.52 1.55c-.4 5.054-4.26 8.497-9.058 10.656-5.14 2.313-11.645 3.31-17.202 3.31-5.232 0-11.696-.913-16.892-3.139-5.164-2.211-9.4-5.883-9.4-11.522 0-1.327.04-5.051.112-6.267l2.027.072c-.038 3.055 2.449 6.025 6.981 8.296 4.469 2.238 10.625 3.62 17.182 3.62 6.565 0 12.577-1.302 16.969-3.457 4.436-2.176 6.971-5.082 7.167-8.185l2.024-.002c.072 1.116.122 4.401.132 5.594l.008 1.024h-.05Z" fill="#123B68"/><path d="M77.871 13.676c0 6.987-11.36 12.634-25.208 12.634-13.847 0-25.207-5.666-25.207-12.644 0-7.67 12.638-12.645 25.207-12.645 12.57 0 25.208 4.856 25.208 12.655Z" fill="#FFD571"/><path fill-rule="evenodd" clip-rule="evenodd" d="M35.774 5.39c-4.639 2.159-7.304 5.064-7.304 8.276 0 2.894 2.384 5.793 6.85 8.03 4.403 2.204 10.544 3.598 17.343 3.598 6.8 0 12.941-1.389 17.344-3.59 4.466-2.232 6.85-5.129 6.85-8.028 0-3.28-2.67-6.187-7.302-8.33-4.569-2.114-10.72-3.309-16.892-3.309-6.168 0-12.319 1.224-16.89 3.352Zm-.855-1.844C39.809 1.27 46.263.006 52.663.006c6.397 0 12.85 1.232 17.743 3.495 4.83 2.235 8.48 5.656 8.48 10.175 0 4.088-3.297 7.509-7.973 9.847-4.739 2.368-11.202 3.803-18.25 3.803s-13.511-1.44-18.25-3.813c-4.676-2.341-7.971-5.764-7.971-9.847 0-4.457 3.654-7.874 8.477-10.12Z" fill="#123B68"/><path d="M54.142 18.801c.61-1.231.66-2.522.55-3.734a13.7 13.7 0 0 0-.55-2.693c1.07-.68 2.138-1.351 3.207-2.032.7-.44 1.399-.871 2.098-1.312.93.811 1.579 1.832 1.819 2.954.2.92 1.958.6 1.888-.37-.11-1.422-.72-2.724-1.718-3.775.51-.31 1.009-.62 1.448-.971.83-.67.2-1.762-.919-1.282-.69.29-1.349.681-1.998 1.082-.35-.21-.72-.4-1.11-.571-2.287-.961-6.723-1.412-8.222 1.452-.59 1.12-.29 2.232.13 3.223.18.42.37.831.55 1.252-.19.13-.39.25-.58.37a410.273 410.273 0 0 0-5.345 3.514c-.12.08-.23.16-.35.24-.42-.84-.69-1.742-.91-2.673-.269-1.14-2.407-.76-2.347.47.06 1.262.54 2.514 1.199 3.605-.11.08-.23.15-.34.23l-1.259.871c-.51.36-1.039.661-1.309 1.172-.32.61.23 1.2 1.02 1.04.629-.13 1.019-.45 1.518-.79.45-.31.91-.63 1.359-.941.03-.02.07-.04.1-.07a7.839 7.839 0 0 0 2.098 1.762 6.18 6.18 0 0 0 4.456.64c1.589-.38 2.888-1.391 3.507-2.653l.01-.01ZM52.753 8.34c.21-1.052 1.899-1.132 2.828-1.012.8.1 1.538.33 2.218.641-.51.31-1.03.61-1.539.931-.939.57-1.878 1.162-2.807 1.752-.37-.72-.86-1.512-.7-2.302v-.01Zm-3.167 11.292c-1.588-.02-2.688-1-3.507-1.952.14-.1.28-.2.43-.29a340.95 340.95 0 0 1 5.435-3.604c.04.14.07.28.1.43.3 1.462.87 5.466-2.458 5.416Z" fill="#123B68"/><path d="M38.486 41.637c.1 7.439-10.64 10.352-18.734 10.352-7.623 0-18.733-2.673-18.733-10.112 0-.99.03-3.724.08-4.605-.07 5.426 8.752 9.591 18.653 9.591 9.902 0 18.294-3.924 18.634-9.33.05.8.09 3.213.1 4.104Z" fill="#F1A65C"/><path fill-rule="evenodd" clip-rule="evenodd" d="M2.034 41.963c.042 3.057 2.324 5.297 5.892 6.825 3.568 1.529 8.107 2.185 11.827 2.185 3.95 0 8.506-.715 12.023-2.297 3.42-1.54 5.59-3.755 5.693-6.715-1.11 1.256-2.627 2.323-4.368 3.177-3.546 1.739-8.278 2.741-13.348 2.741-5.078 0-9.92-1.065-13.52-2.867-1.655-.83-3.117-1.853-4.2-3.049Zm-2.029-.086c0-.988.03-3.748.082-4.662l2.026.07c-.027 2.109 1.695 4.24 5.027 5.909 3.269 1.636 7.789 2.653 12.613 2.653 4.83 0 9.245-.96 12.456-2.535 3.256-1.597 5.03-3.687 5.165-5.843h2.024c.052.832.092 3.272.102 4.155v.002l-1.014.011 1.014-.014v.001c.058 4.322-3.063 7.182-6.893 8.905-3.852 1.734-8.712 2.476-12.854 2.476-3.904 0-8.732-.68-12.625-2.348-3.86-1.654-7.123-4.441-7.123-8.78Z" fill="#123B68"/><path d="M38.486 36.822c.1 7.438-10.64 10.351-18.733 10.351-7.624 0-18.734-2.673-18.734-10.111 0-.991.03-3.724.08-4.605-.07 5.426 8.752 9.59 18.654 9.59 9.9 0 18.293-3.924 18.633-9.33.05.801.09 3.214.1 4.105Z" fill="#F1A65C"/><path fill-rule="evenodd" clip-rule="evenodd" d="M2.034 37.148c.042 3.056 2.324 5.296 5.892 6.825 3.568 1.529 8.107 2.184 11.827 2.184 3.95 0 8.506-.714 12.023-2.297 3.42-1.539 5.59-3.755 5.693-6.715-1.11 1.257-2.627 2.323-4.368 3.177-3.546 1.74-8.278 2.742-13.348 2.742-5.078 0-9.92-1.066-13.52-2.868-1.655-.828-3.117-1.853-4.2-3.048Zm-2.029-.086c0-.988.03-3.749.082-4.663l2.026.07c-.027 2.11 1.695 4.24 5.027 5.909 3.269 1.636 7.789 2.654 12.613 2.654 4.83 0 9.245-.96 12.456-2.535 3.256-1.597 5.03-3.687 5.165-5.844h2.024c.052.833.092 3.273.102 4.156v.001l-1.014.012 1.014-.014c.058 4.323-3.063 7.182-6.893 8.906-3.852 1.734-8.712 2.476-12.854 2.476-3.904 0-8.732-.681-12.625-2.348C3.268 44.188.005 41.4.005 37.062Z" fill="#123B68"/><path d="M38.396 32.967c0 5.176-8.423 9.36-18.684 9.36-10.26 0-18.673-4.194-18.673-9.37 0-5.686 9.372-9.37 18.683-9.37 9.312 0 18.684 3.594 18.684 9.38h-.01Z" fill="#FFD571"/><path fill-rule="evenodd" clip-rule="evenodd" d="M7.316 27.061c-3.415 1.59-5.263 3.676-5.263 5.896 0 1.995 1.648 4.075 4.928 5.718 3.218 1.611 7.725 2.637 12.732 2.637 5.006 0 9.516-1.023 12.737-2.633 3.283-1.64 4.932-3.718 4.932-5.712v-.288c-.15-2.162-1.988-4.14-5.25-5.65-3.346-1.546-7.866-2.426-12.41-2.426-4.54 0-9.059.9-12.406 2.458Zm32.006 6.922h.098v-1.016c0-3.512-2.832-6.115-6.439-7.783-3.668-1.696-8.49-2.613-13.258-2.613-4.772 0-9.594.94-13.261 2.647-3.6 1.675-6.437 4.273-6.437 7.74 0 3.181 2.558 5.786 6.05 7.535 3.553 1.78 8.383 2.851 13.638 2.851 5.254 0 10.086-1.07 13.642-2.846 3.114-1.556 5.488-3.793 5.967-6.514Z" fill="#123B68"/><path d="M19.403 37.943c.969-.75 1.498-1.762 1.878-2.783.28-.771.48-1.562.6-2.363 1.119-.13 2.238-.26 3.357-.38.729-.08 1.458-.16 2.188-.23.43 1.01.55 2.082.31 3.063-.2.82 1.338 1.241 1.658.43.46-1.18.48-2.462.08-3.684.53-.05 1.049-.11 1.529-.22.929-.21.839-1.331-.24-1.381-.66-.03-1.35.02-2.019.09-.2-.3-.42-.601-.669-.891-1.459-1.662-4.836-3.735-7.144-2.033-.899.671-1.099 1.672-1.139 2.633-.02.41-.03.811-.05 1.212-.2.02-.41.05-.609.07-1.888.23-3.767.48-5.635.74-.12.02-.25.04-.37.05-.02-.84.12-1.661.31-2.492.23-1.021-1.629-1.542-2.058-.54-.44 1.03-.54 2.222-.43 3.343-.12.02-.24.03-.36.05-.449.07-.899.14-1.338.21-.55.09-1.09.12-1.499.43-.49.361-.29 1.052.41 1.232.55.14.989.04 1.528-.04.49-.08.97-.15 1.46-.23.03 0 .069-.01.099-.02.21.77.52 1.532 1 2.232a5.516 5.516 0 0 0 3.326 2.243c1.419.31 2.848 0 3.837-.761l-.01.02Zm2.927-8.91c.57-.76 1.958-.17 2.658.29.6.39 1.109.861 1.529 1.372-.53.05-1.06.09-1.59.15-.978.09-1.947.2-2.927.31-.02-.72-.1-1.541.33-2.112v-.01Zm-6.894 7.809c-1.259-.63-1.768-1.852-2.048-2.923.15-.02.3-.05.46-.07 1.908-.28 3.826-.531 5.745-.771-.03.13-.05.25-.09.38-.33 1.281-1.42 4.715-4.057 3.384h-.01Z" fill="#123B68"/></g><defs><clipPath id="a"><path fill="#fff" d="M0 0h79v53H0z"/></clipPath></defs></svg>