<?xml version="1.0" encoding="utf-8"?>
<!-- Generator: Adobe Illustrator 28.0.0, SVG Export Plug-In . SVG Version: 6.00 Build 0)  -->
<svg version="1.1" id="_內文" xmlns="http://www.w3.org/2000/svg" xmlns:xlink="http://www.w3.org/1999/xlink" x="0px" y="0px"
	 viewBox="0 0 360 400" style="enable-background:new 0 0 360 400;" xml:space="preserve">
<style type="text/css">
	.st0{fill:#E8E8E8;stroke:#123B68;stroke-width:2.2;stroke-linecap:round;stroke-linejoin:round;}
	.st1{fill:#E77870;stroke:#123B68;stroke-width:2.2;stroke-linejoin:round;}
	.st2{fill:#8BA8C6;stroke:#123B68;stroke-width:2.2;stroke-linecap:round;stroke-linejoin:round;}
	.st3{fill:#2870B2;}
	.st4{fill:#123B68;}
	.st5{fill:#FFFFFF;}
	.st6{fill:#B4E2FA;stroke:#123B68;stroke-width:2.2;stroke-linecap:round;stroke-linejoin:round;}
	.st7{fill:#5399C6;}
	.st8{fill:#B4E2FA;}
	.st9{opacity:0.3;fill:#BDD5E6;enable-background:new    ;}
	.st10{fill:#FFD571;stroke:#123B68;stroke-width:3;stroke-linecap:round;stroke-linejoin:round;}
	.st11{enable-background:new    ;}
</style>
<g>
	<g>
		<path class="st0" d="M324.5,37c-1.3-2.7-3.9-4.6-6.9-5.3c-0.4-0.1-0.7-0.1-1.1-0.2c0.9-0.8,1.8-1.6,2.6-2.6
			c2.5-2.9,4.2-6.5,4.1-10.4c-0.1-8.1-8.4-12.4-15.6-11.5c-2.7,0.3-5.3,1.2-7.5,2.7c-0.1-0.7-0.4-1.5-0.8-2.2
			c-1.3-2.4-3.9-3.7-6.6-3.5c-5.9,0.4-9.6,5.8-10.9,11.1c0,0.1,0,0.2-0.1,0.3c0,0,0-0.1,0-0.1c-1.6-2.4-4.2-4.2-7.1-4.4
			c-2.7-0.2-5.4,1.1-7.3,3c-2.1,2.2-3.2,4.9-3.6,7.8c-0.2,1.4-0.1,2.9,0,4.3c-2.2-1.2-4.9-1.2-7.2-0.4c-5.8,2.3-8.1,8.6-7.4,14.4
			c0.2,1.8,0.7,3.5,1.3,5.1c-0.4-0.1-0.9-0.2-1.4-0.3c-2.4-0.3-4.9,0.8-6.4,2.8c-3,4.2,0,9.5,3.1,12.6c1.6,1.6,3.4,3,4.8,4.8
			c-2.8,2.3-4.1,6.1-3.3,9.6c0.8,3.3,3.6,5.9,6.8,6.8c0.1,0.2,0.3,0.4,0.6,0.6c7.5,4.3,16.3,6.4,25,5.9c4.3-0.2,8.6-1.1,12.7-2.5
			c3.9-1.4,8-3.4,10.8-6.6c2.5-2.9,3.8-7.1,2.7-10.8c2.8-0.1,5.5-1.4,7.3-3.4c2.6-3,3-7.1,1.5-10.6c-0.2-0.4-0.4-0.8-0.6-1.2
			c4.7-0.1,9.2-2.4,11-7.1C326.1,43,325.8,39.7,324.5,37L324.5,37z"/>
		<g>
			<polygon class="st1" points="318.3,206.7 233.3,206.7 243.8,126.6 245.1,116.8 245.5,114 246.8,104.2 248.2,93.5 248.8,88.9 
				302.8,88.9 303.4,93.5 304.8,104.2 306.1,114 306.4,116.8 307.7,126.6 			"/>
			<path class="st1" d="M247.8,81.9h56c1,0,1.9,0.8,1.9,1.8v5.7c0,1-0.8,1.8-1.9,1.8h-56c-1,0-1.9-0.8-1.9-1.8v-5.7
				C245.9,82.7,246.7,81.9,247.8,81.9z"/>
		</g>
	</g>
	<g>
		<g>
			<g>
				<polygon class="st2" points="258,82.4 182.1,38.2 106.3,82.4 106.3,170.1 258,170.1 				"/>
				<rect x="125.2" y="152.5" class="st1" width="132.8" height="17.7"/>
			</g>
			<g>
				<path class="st3" d="M170.2,82.5c-0.3,0-0.5-0.1-0.7-0.3l-49.6-43.3c-0.3-0.3-0.5-0.8-0.3-1.2c0.2-0.4,0.6-0.7,1-0.7h86.8
					c0.3,0,0.5,0.1,0.7,0.3l49.5,43.3c0.3,0.3,0.5,0.8,0.3,1.2c-0.2,0.4-0.6,0.7-1,0.7H170.2L170.2,82.5z"/>
				<path class="st4" d="M207.4,38L257,81.4h-86.8L120.7,38L207.4,38 M207.4,35.8h-86.8c-0.9,0-1.7,0.6-2.1,1.4s-0.1,1.8,0.6,2.4
					L168.8,83c0.4,0.3,0.9,0.5,1.4,0.5H257c0.9,0,1.7-0.6,2.1-1.4s0.1-1.8-0.6-2.4l-49.6-43.3C208.5,36,208,35.8,207.4,35.8
					L207.4,35.8L207.4,35.8z"/>
			</g>
			<g>
				<g>
					<path class="st5" d="M194.6,97h15.5c1.8,0,3.2,1.4,3.2,3.2v9.2c0,1.8-1.4,3.2-3.2,3.2h-15.5c-1.8,0-3.2-1.4-3.2-3.2v-9.2
						C191.5,98.4,192.9,97,194.6,97z"/>
					<path class="st5" d="M222.8,97h15.5c1.8,0,3.2,1.4,3.2,3.2v9.2c0,1.8-1.4,3.2-3.2,3.2h-15.5c-1.8,0-3.2-1.4-3.2-3.2v-9.2
						C219.6,98.4,221,97,222.8,97z"/>
				</g>
				<g>
					<path class="st5" d="M194.6,118.1h15.5c1.8,0,3.2,1.4,3.2,3.2v9.2c0,1.8-1.4,3.2-3.2,3.2h-15.5c-1.8,0-3.2-1.4-3.2-3.2v-9.2
						C191.5,119.5,192.9,118.1,194.6,118.1z"/>
					<path class="st5" d="M222.8,118.1h15.5c1.8,0,3.2,1.4,3.2,3.2v9.2c0,1.8-1.4,3.2-3.2,3.2h-15.5c-1.8,0-3.2-1.4-3.2-3.2v-9.2
						C219.6,119.5,221,118.1,222.8,118.1z"/>
				</g>
			</g>
		</g>
		<g>
			<g>
				<polygon class="st6" points="170.6,82.4 120.7,37 70.8,82.4 70.8,170.1 170.6,170.1 				"/>
				<rect x="70.8" y="152.5" class="st1" width="99.8" height="17.7"/>
			</g>
			<g>
				<g>
					<path class="st3" d="M94.2,113.6h53c0.6,0,1.1,0.5,1.1,1.1v54c0,0.6-0.5,1.1-1.1,1.1h-53c-0.6,0-1.1-0.5-1.1-1.1v-54
						C93.1,114.1,93.5,113.6,94.2,113.6z"/>
					<path class="st4" d="M147.2,114.7v54h-53v-54L147.2,114.7 M147.2,112.5h-53c-1.2,0-2.2,1-2.2,2.2v54c0,1.2,1,2.2,2.2,2.2h53
						c1.2,0,2.2-1,2.2-2.2v-54C149.4,113.5,148.4,112.5,147.2,112.5L147.2,112.5z"/>
				</g>
				<path class="st7" d="M147.2,119.9h-53v-2.5h53V119.9z M147.2,122.8h-53v2.5h53V122.8z M147.2,128.2h-53v2.5h53V128.2z
					 M147.2,133.7h-53v2.5h53V133.7z M147.2,139.1h-53v2.5h53V139.1z M147.2,144.6h-53v2.5h53V144.6z M147.2,150h-53v2.5h53V150z
					 M147.2,155.5h-53v2.5h53V155.5z M147.2,160.9h-53v2.5h53V160.9z M147.2,166.3h-53v2.5h53V166.3z"/>
			</g>
		</g>
	</g>
</g>
<g>
	<g>
		<path class="st8" d="M186,398.1c-0.4,0-0.7,0-1-0.1c-0.1,0-0.1,0-0.1,0L46.8,360.9c-3.5-0.5-6.5-3-8.1-6.9l-4.7-9.2
			c-0.5-1.2-0.8-2.3-0.9-3.5L12.1,192.7c-0.6-4.1,0.6-8.3,3.1-11.1c1.9-2.2,4.4-3.4,7.1-3.4H340c4,0,7.5,2.7,9.2,7l3.8,9.3
			c1,2.4,1.3,5,0.9,7.6l-21.2,148.9c-0.8,5.5-4.5,9.7-9,10.3L187.2,398c-0.1,0-0.1,0-0.1,0C186.7,398.1,186.4,398.1,186,398.1
			L186,398.1z"/>
		<path class="st4" d="M340,179.3c3.5,0,6.6,2.4,8.2,6.3l3.8,9.3c0.9,2.2,1.2,4.6,0.8,7l-21.2,148.9c-0.7,5-4,8.9-8.1,9.4
			l-136.5,36.9c-0.3,0-0.6,0.1-0.9,0.1s-0.6,0-0.9-0.1L47,359.9c-3.1-0.4-5.9-2.7-7.3-6.2l-4.8-9.3c-0.4-1-0.7-2-0.8-3.1L13.2,192.6
			c-1-6.9,3.3-13.3,9-13.3L340,179.3 M340,177.1H22.2c-3,0-5.8,1.3-7.9,3.8c-2.7,3.1-3.9,7.6-3.3,12l20.9,148.6
			c0.2,1.3,0.5,2.5,1,3.6c0,0.1,0,0.1,0.1,0.2l4.7,9.2c1.7,4.1,5,6.9,8.9,7.5l138,37c0.1,0,0.2,0,0.3,0.1c0.4,0,0.8,0.1,1.2,0.1
			s0.8,0,1.2-0.1c0.1,0,0.2,0,0.3-0.1l136.4-36.8c5-0.7,9-5.3,9.9-11.2L355,202.1c0.4-2.8,0.1-5.6-1-8.1l-3.8-9.3
			C348.3,180,344.4,177,340,177.1L340,177.1L340,177.1z"/>
	</g>
	<g>
		<path class="st5" d="M178.4,381.7c-0.4,0-0.7,0-1-0.1c-0.1,0-0.1,0-0.1,0L41,344.8c-4.5-0.6-8.2-4.8-9-10.3L12.1,192.7
			c-0.6-4.1,0.6-8.3,3.1-11.1c1.9-2.2,4.4-3.4,7.1-3.4h312.5c2.6,0,5.2,1.2,7.1,3.4c2.5,2.9,3.6,7,3.1,11.1L325,334.5
			c-0.8,5.5-4.5,9.7-9,10.3l-136.4,36.8c0,0-0.1,0-0.1,0C179.1,381.7,178.7,381.7,178.4,381.7L178.4,381.7z"/>
		<path class="st4" d="M334.8,179.3c5.7,0,10,6.4,9,13.3l-19.9,141.8c-0.7,5-4,8.9-8.1,9.4l-136.5,36.9c-0.3,0-0.6,0.1-0.9,0.1
			s-0.6,0-0.9-0.1L41.2,343.7c-4.1-0.5-7.4-4.3-8.1-9.4L13.2,192.6c-1-6.9,3.3-13.3,9-13.3L334.8,179.3 M334.8,177.1H22.2
			c-3,0-5.8,1.3-7.9,3.8c-2.7,3.1-3.9,7.6-3.3,12l19.9,141.8c0.8,5.9,4.9,10.5,9.9,11.2l136.1,36.8c0.1,0,0.2,0,0.3,0.1
			c0.4,0,0.8,0.1,1.2,0.1s0.8,0,1.2-0.1c0.1,0,0.2,0,0.3-0.1l136.4-36.8c5-0.7,9-5.3,9.9-11.2L346,192.9c0.6-4.4-0.6-8.9-3.3-12
			C340.5,178.4,337.7,177.1,334.8,177.1L334.8,177.1L334.8,177.1z"/>
	</g>
	<g>
		<path class="st9" d="M59.2,191.3l-1.4,11l2.3,0.4l1-8.3c1.4,2.3,2.8,4.8,4.1,7.6l-2.6,12l2.2,0.7l2-9.2c1.2,2.8,2.4,5.8,3.5,9
			l-4.3,9.2l2,1.4l3.4-7.2c0.7,2.4,1.4,4.9,2.1,7.5l-4.9,9.1l1.9,1.6l3.9-7.1c0.6,2.9,1.2,5.9,1.7,9.1l-5.7,8.5l1.8,1.8l4.5-6.7
			c0.4,3.2,0.7,6.5,0.9,10l-6.5,7.2l1.5,2.1l5.1-5.7c0.1,2.5,0.2,5.1,0.2,7.8c0,0.4,0,0.8,0,1.3l-7.1,7.1l1.4,2.2l5.6-5.6
			c-0.1,3.7-0.4,7.3-0.8,10.8l-7.9,5.8l1.2,2.4l6.3-4.6c-0.4,3-1,5.8-1.6,8.6l-9.2,4.9l0.9,2.6l7.5-4c-0.7,2.9-1.5,5.6-2.3,8.2
			l-9.2,2.9l0.6,2.8l7.5-2.4c-1.2,3.4-2.4,6.5-3.7,9.5l-8.7,1.5l0.3,2.8l6.9-1.2c-1.4,2.9-2.8,5.7-4.2,8.2l-9.1-0.1v2.8l7.5,0.1
			c-4.1,6.9-8.1,12-10.8,15.1l6,0.7c2.3-3,5.1-6.7,7.9-11.3l0.9,9l2.3-0.3l-1.2-12c1.6-2.8,3.2-5.8,4.8-9.1l2.1,9.5l2.2-0.8
			l-2.7-12.2c1.2-2.7,2.3-5.5,3.3-8.4l2.6,8.2l2.1-1l-3.4-10.9c0.8-2.6,1.6-5.3,2.3-8.1l3.4,7.3l2-1.4l-4.5-9.6
			c0.8-3.4,1.4-6.9,2-10.5l4.8,7.6l1.8-1.7l-6.1-9.7c0.4-3.8,0.8-7.6,0.9-11.7l5.7,6.8l1.6-2l-7.2-8.6c0-0.5,0-1,0-1.5
			c0-2.9-0.1-5.6-0.2-8.3l6.2,6.7l1.5-2.1l-7.9-8.6c-0.2-3.6-0.6-6.9-1-10.2L88,246l1.2-2.4l-8.6-6.8c-0.5-3.4-1.1-6.6-1.7-9.6
			l7.2,4.5l1-2.5l-9.1-5.6c-0.7-2.8-1.4-5.5-2.2-8l7.6,4l0.9-2.6l-9.7-5.1c-1.1-3.1-2.2-5.9-3.4-8.6l7.2,1.2l0.3-2.8l-8.9-1.5
			c-1.7-3.6-3.4-6.8-5.2-9.7l8.1,0.3l0.1-2.8l-10-0.4c-2.1-3.2-4.2-5.9-6.2-8.1h-7.1C52.1,181.8,55.6,185.7,59.2,191.3L59.2,191.3z"
			/>
		<path class="st9" d="M297.8,191.3l1.4,11l-2.3,0.4l-1-8.3c-1.4,2.3-2.8,4.8-4.1,7.6l2.6,12l-2.2,0.7l-2-9.2
			c-1.2,2.8-2.4,5.8-3.5,9l4.3,9.2l-2,1.4l-3.4-7.2c-0.7,2.4-1.4,4.9-2.1,7.5l4.9,9.1l-1.9,1.6l-3.9-7.1c-0.6,2.9-1.2,5.9-1.6,9.1
			l5.7,8.5l-1.8,1.8l-4.5-6.7c-0.4,3.2-0.7,6.5-0.9,10l6.5,7.2l-1.5,2.1l-5.1-5.7c-0.1,2.5-0.2,5.1-0.2,7.8c0,0.4,0,0.8,0,1.3
			l7.1,7.1l-1.5,2.2l-5.6-5.6c0.1,3.7,0.4,7.3,0.9,10.8l7.9,5.8l-1.2,2.4l-6.3-4.6c0.4,3,1,5.8,1.6,8.6l9.2,4.9l-0.9,2.6l-7.5-4
			c0.7,2.9,1.5,5.6,2.3,8.2l9.2,2.9l-0.6,2.8l-7.5-2.4c1.2,3.4,2.4,6.5,3.7,9.5l8.7,1.5l-0.3,2.8l-6.9-1.2c1.4,2.9,2.8,5.7,4.2,8.2
			l9.1-0.1v2.8l-7.5,0.1c4.1,6.9,8.1,12,10.8,15.1l-6,0.7c-2.4-3-5.1-6.7-7.9-11.3l-0.9,9l-2.3-0.3l1.1-12c-1.6-2.8-3.2-5.8-4.8-9.1
			l-2.1,9.5l-2.2-0.8l2.7-12.2c-1.2-2.7-2.3-5.5-3.4-8.4l-2.6,8.2l-2.1-1l3.4-10.9c-0.8-2.6-1.6-5.3-2.3-8.1l-3.5,7.3l-2-1.4
			l4.5-9.6c-0.8-3.4-1.4-6.9-2-10.5l-4.8,7.6l-1.8-1.7l6.1-9.7c-0.4-3.8-0.8-7.6-0.9-11.7l-5.7,6.8l-1.6-2l7.2-8.6c0-0.5,0-1,0-1.5
			c0-2.9,0.1-5.6,0.2-8.3l-6.2,6.7l-1.5-2.1l7.9-8.6c0.2-3.6,0.5-6.9,1-10.2L269,246l-1.2-2.4l8.5-6.8c0.5-3.4,1.1-6.6,1.7-9.6
			l-7.2,4.5l-1-2.5l9.1-5.6c0.7-2.8,1.4-5.5,2.2-8l-7.6,4l-0.9-2.6l9.7-5.1c1.1-3.1,2.2-5.9,3.4-8.6l-7.2,1.2l-0.3-2.8l8.9-1.5
			c1.7-3.6,3.5-6.8,5.2-9.7l-8.1,0.3l-0.1-2.8l10-0.4c2.1-3.2,4.2-5.9,6.1-8.1h7.1C304.9,181.8,301.4,185.7,297.8,191.3L297.8,191.3
			z"/>
	</g>
</g>
<g>
	<g>
		<path class="st10" d="M113,200.6c-11.9,2.1-23.8,4.7-35.5,7.8c-3.2,0.9-6.3-1.4-5.8-4.2c0.9-4.6,1.9-9.3,2.9-13.9
			c0.3-1.1-0.1-2.3-1-3.1c-4.2-4-8.4-7.9-12.8-11.8c-2.3-2-1-5.4,2.6-6.4c13.3-3.6,26.8-6.6,40.4-8.9c2.8-0.5,5.3,0.9,5.8,2.9
			c2.3,11,4.7,22,7.1,33.1C117.1,198.1,115.4,200.2,113,200.6L113,200.6z"/>
		<path class="st4" d="M96.7,182c5.7,6.1,11.1,12.3,16.3,18.5c0,0,3.4-1.2,3.8-3.5c0.4-2.3-0.4-7.7-0.4-7.7
			C116.4,189.3,103.1,190.1,96.7,182L96.7,182z"/>
		<path class="st10" d="M256.4,200.6c11.9,2.1,23.8,4.7,35.5,7.8c3.2,0.9,6.3-1.4,5.8-4.2c-0.9-4.6-1.9-9.3-2.9-13.9
			c-0.3-1.1,0.1-2.3,1-3.1c4.2-4,8.4-7.9,12.8-11.8c2.3-2,1-5.4-2.6-6.4c-13.3-3.6-26.8-6.6-40.4-8.9c-2.8-0.5-5.3,0.9-5.8,2.9
			c-2.4,11-4.7,22-7.1,33.1C252.3,198.1,254,200.2,256.4,200.6L256.4,200.6z"/>
		<path class="st4" d="M272.2,183.9c-5.5,5.4-10.8,11-15.8,16.6c0,0-3.4-1.2-3.8-3.5c-0.4-2.3,0.4-7.7,0.4-7.7
			C253.1,189.3,265.8,192,272.2,183.9L272.2,183.9z"/>
		<path class="st10" d="M251.3,189.1c-43.8-6.9-88.7-6.9-132.6-0.1c-10,1.5-19.8-3.5-22-11.8c-0.9-3.4-1.8-6.9-2.7-10.4
			c-2.2-8.2,5.1-16.8,16.5-18.6c49.3-7.6,99.8-7.6,149.1,0.1c11.4,1.8,18.7,10.4,16.4,18.6c-0.9,3.5-1.8,6.9-2.7,10.4
			C271,185.6,261.2,190.6,251.3,189.1L251.3,189.1z"/>
	</g>
	<g class="st11">
		<path class="st4" d="M138,173.4l0.2,2l-18.9,2.2l-0.2-2l8.1-0.9l-0.1-1.1l-6.6,0.8l-0.2-1.9l6.6-0.8l-0.1-0.9l-5.9,0.7l-0.8-6.6
			l5.9-0.7l-0.1-0.8l-8,0.9l-0.2-1.9l8-0.9l-0.1-0.9c-2,0.3-4,0.6-5.9,0.8c-0.1-0.6-0.5-1.4-0.7-1.8c4.8-0.7,10.5-1.7,13.9-2.6
			l1.4,1.8c-1.8,0.5-3.9,1-6.2,1.4l0.1,1.1l8.2-0.9l0.2,1.9l-8.2,0.9l0.1,0.8l6.2-0.7l0.8,6.6l-6.2,0.7l0.1,0.9l7-0.8l0.2,1.9
			l-7,0.8l0.1,1.1L138,173.4z M122.8,167l3.5-0.4l-0.1-0.9l-3.5,0.4L122.8,167z M126.5,169.1l-0.1-0.9l-3.5,0.4l0.1,0.9L126.5,169.1
			z M128.6,165.4l0.1,0.9l3.7-0.4l-0.1-0.9L128.6,165.4z M132.6,167.4l-3.7,0.4l0.1,0.9l3.7-0.4L132.6,167.4z"/>
	</g>
	<g class="st11">
		<path class="st4" d="M160.8,170.5l0.1,2.5l-19.1,1.1l-0.2-2.5l8-0.5l-0.6-10.8l-6.9,0.4l-0.2-2.6l16.7-1l0.2,2.6l-7,0.4l0.6,10.8
			L160.8,170.5z"/>
	</g>
	<g class="st11">
		<path class="st4" d="M183,168.7c-1,0.7-2.1,1.3-3.2,1.9c1.2,0.6,2.6,1,4.3,1.2c-0.5,0.5-1,1.4-1.3,2c-4.3-0.7-6.9-2.6-8.5-5.8
			c-0.8,0.7-1.9,1.3-3,1.8l0,1.9l3.9-0.9c-0.1,0.5-0.1,1.4-0.1,1.9c-5,1.2-5.7,1.4-6.1,1.7l0-0.2c-0.1-0.5-0.5-1.2-0.8-1.5
			c0.4-0.3,0.9-0.8,0.9-1.9l0-0.1c-1,0.4-2.1,0.6-3.2,0.8c-0.3-0.5-0.9-1.3-1.4-1.8c2.3-0.4,4.6-1,6.4-1.9l-6.1,0.1l0-2l8.5-0.2
			c-0.2-0.4-0.3-0.7-0.5-1.1l0,0c-0.2,0-0.4,0-0.7,0c-0.1-0.5-0.4-1-0.6-1.4c0.5,0,1,0,1.1,0s0.2-0.1,0.2-0.2l0-0.9l-1.7,0l0.1,3.1
			l-2.1,0l-0.1-3.1l-1.6,0l0,2.6l-1.9,0l-0.1-4.1l3.5-0.1l0-0.7l-4.3,0.1l0-1.7l1.3,0c-0.4-0.2-1-0.5-1.3-0.7c0.7-0.8,1.3-2,1.6-3
			l1.9,0.4c-0.1,0.3-0.2,0.5-0.3,0.8l1.2,0l0-1.3l2.1,0l0,1.3l3.5-0.1l0,1.6l-3.5,0.1l0,0.8l4-0.1l0,1.7l-4,0.1l0,0.7l3.7-0.1l0,2.4
			c0,0.5,0,0.9-0.3,1.1l0.5-0.1c0.3,0.5,0.6,1.1,0.9,1.7l7.7-0.1l0,2l-2.1,0L183,168.7z M168.9,158.4l0-0.8l-2,0
			c-0.2,0.3-0.3,0.6-0.5,0.8L168.9,158.4z M178.6,162.4l-2.2,0l-0.1-6.9l2.2,0L178.6,162.4z M176.5,167.8c0.4,0.6,1,1.2,1.5,1.7
			c1-0.5,2-1.2,2.8-1.8L176.5,167.8z M182.7,163c0,1.1-0.2,1.6-0.9,1.9c-0.7,0.3-1.8,0.4-3.2,0.4c-0.1-0.6-0.5-1.4-0.8-2
			c0.9,0,2,0,2.2,0c0.3,0,0.4-0.1,0.4-0.4l-0.1-8.3l2.3,0L182.7,163z"/>
	</g>
	<g class="st11">
		<path class="st4" d="M193.7,164.8c-0.3,1.7-0.7,3.1-1.2,4.4c1.2,2.1,3.5,2.4,6.9,2.5c2.2,0,5.7,0,8-0.2c-0.4,0.5-0.7,1.6-0.9,2.3
			c-2.2,0.1-4.8,0.1-7.3,0.1c-3.8-0.1-6.2-0.5-7.8-2.7c-0.8,1.2-1.7,2.2-2.7,2.9c-0.3-0.5-1.1-1.4-1.6-1.7c1.9-1.1,3.2-3.2,3.9-6
			l-1.6,0c-0.5,0-1.1,0.1-1.3,0.3c-0.1-0.5-0.5-1.6-0.7-2c0.3-0.1,0.7-0.2,1-0.7c0.4-0.4,1.2-1.5,1.9-2.6l-2.5,0l0-2l4,0.1l0.2-0.1
			l1.5,0.6c-0.8,1.1-2,3.1-3.1,4.5l1.5,0l0.4-0.1L193.7,164.8z M191.3,159c-0.6-0.9-1.7-2.4-2.7-3.4l1.9-1.1c1,1,2.1,2.3,2.7,3.2
			L191.3,159z M196.9,159.1c-0.4,0.7-0.8,1.2-1.3,1.7c-0.5-0.4-1.5-0.9-2-1.2c1.2-1.2,2.3-3,2.8-4.8l2.2,0.6
			c-0.2,0.6-0.4,1.1-0.6,1.6l1.3,0l0-2.4l2.5,0l0,2.4l4.3,0.1l0,2.1l-4.3-0.1l0,1.8l5.1,0.1l0,2.1l-12.8-0.2l0-2.1l5.2,0.1l0-1.8
			L196.9,159.1z M195.2,170.3l0.1-6.2l10.3,0.2l-0.1,6.2L195.2,170.3z M197.7,168.3l5.4,0.1l0-2.3l-5.4-0.1L197.7,168.3z"/>
	</g>
	<g class="st11">
		<path class="st4" d="M218.6,171.6c-1.5,1.1-4.1,2.1-6.2,2.5c-0.3-0.5-0.9-1.4-1.4-1.9c2.1-0.2,4.6-0.8,5.9-1.5L218.6,171.6z
			 M229.9,168.6l-0.1,2.1l-8.1-0.4l-0.2,4.8l-2.5-0.1l0.2-4.8l-8-0.4l0.1-2.1l8,0.4l0-0.9l-6-0.3l0.1-1.8l6,0.3l0-0.9l-7.1-0.3
			l0.1-1.9l3.9,0.2c-0.2-0.5-0.5-1.1-0.7-1.6l1.4-0.2l-5.3-0.3l0.1-2l2.9,0.1c-0.3-0.8-0.8-1.8-1.2-2.7l2.2-0.6
			c0.6,0.9,1.2,2.2,1.4,3l-1,0.3l1.9,0.1l0.2-3.4l2.3,0.1l-0.2,3.4l1.6,0.1l0.2-3.4l2.3,0.1l-0.2,3.4l1.9,0.1l-0.7-0.3
			c0.5-0.8,1.2-2.1,1.5-3l2.6,0.7c-0.6,0.9-1.2,1.9-1.8,2.6l2.7,0.1l-0.1,2l-5.5-0.3l1.9,0.6c-0.5,0.5-0.9,0.9-1.3,1.3l4,0.2
			l-0.1,1.9l-7.3-0.4l0,0.9l6.3,0.3l-0.1,1.8l-6.3-0.3l0,0.9L229.9,168.6z M218.1,160.6c0.3,0.5,0.6,1.2,0.8,1.6l-1.1,0.2l5.7,0.3
			l-0.7-0.3c0.4-0.5,0.8-1.1,1.1-1.6L218.1,160.6z M224.2,171c1.7,0.7,4.1,1.9,5.4,2.6l-1.8,1.3c-1.2-0.8-3.6-2-5.3-2.8L224.2,171z"
			/>
	</g>
	<g class="st11">
		<path class="st4" d="M236.6,170.4c-0.3,1.9-0.8,3.8-1.3,5.1c-0.4-0.3-1.4-0.7-1.9-0.8c0.6-1.2,1-3,1.2-4.7L236.6,170.4z
			 M240.5,169.7c0-0.3-0.1-0.7-0.1-1c-4.6,0.3-5.3,0.4-5.8,0.6c-0.1-0.4-0.4-1.7-0.6-2.3c0.6-0.1,1.1-0.5,1.8-1.2
			c0.3-0.3,0.9-0.8,1.5-1.6c-1.7,0.1-2.2,0.1-2.5,0.3c-0.1-0.5-0.4-1.5-0.6-2.2c0.4-0.1,0.8-0.4,1.4-1c0.5-0.6,2.1-2.8,3.1-4.9
			l2.1,1.1c-1,1.7-2.2,3.4-3.4,4.8l1.6,0c0.6-0.8,1.2-1.7,1.7-2.6l2,1.5c-1.4,2-3.2,4.1-5,5.8l2.4-0.1c-0.1-0.6-0.3-1.1-0.4-1.6
			l1.9-0.4c0.4,1.4,0.9,3.3,1,4.5L240.5,169.7z M239.1,170.2c0.2,1.5,0.3,3.3,0.2,4.6l-2,0.3c0.1-1.2,0-3.1-0.1-4.6L239.1,170.2z
			 M241.4,169.7c0.3,1.1,0.6,2.4,0.7,3.4l-2,0.5c0-0.9-0.3-2.4-0.6-3.5L241.4,169.7z M253,174.6l-0.2,2.2l-11.9-0.9l0.2-2.2l1.6,0.1
			l1.2-15.9l9,0.7l-1.2,15.9L253,174.6z M245,174l4.4,0.3l0.2-3.2l-4.4-0.3L245,174z M250,165.9l-4.4-0.3l-0.2,3l4.4,0.3L250,165.9z
			 M246,160.3l-0.2,3l4.4,0.3l0.2-3L246,160.3z"/>
	</g>
</g>
</svg>
