<?xml version="1.0" encoding="utf-8"?>
<!-- Generator: Adobe Illustrator 26.3.1, SVG Export Plug-In . SVG Version: 6.00 Build 0)  -->
<svg version="1.1" id="圖層_1" xmlns="http://www.w3.org/2000/svg" xmlns:xlink="http://www.w3.org/1999/xlink" x="0px" y="0px"
	 viewBox="0 0 1000 300" style="enable-background:new 0 0 1000 300;" xml:space="preserve">
<style type="text/css">
	.st0{fill:#005BAC;}
	.st1{fill:#EB6100;}
</style>
<g>
	<g>
		<path class="st0" d="M446.5,153c0.9,1.5,2.4,2.3,4,2.3c0.8,0,1.6-0.2,2.3-0.6c11.4-6.5,20.2-16.5,26.2-29.5V144
			c0,1.4,0.7,2.8,1.8,3.7c0.8,0.6,1.8,0.9,2.8,0.9c0.4,0,0.8-0.1,1.2-0.2l20.9-5.9c2.4-0.7,3.9-3.2,3.2-5.7
			c-0.7-2.4-3.2-3.9-5.7-3.2l-15.1,4.2v-23.7h50.6c-5,14.8-13.5,25.7-25.3,32.4c-2.2,1.3-3,4.1-1.7,6.3c0.9,1.5,2.4,2.3,4,2.3
			c0.8,0,1.6-0.2,2.3-0.6c11.4-6.5,20.2-16.5,26.2-29.5V144c0,1.4,0.7,2.8,1.8,3.7c0.8,0.6,1.8,0.9,2.8,0.9c0.4,0,0.8-0.1,1.2-0.2
			l20.9-5.9c2.4-0.7,3.9-3.2,3.2-5.7c-0.7-2.4-3.2-3.9-5.7-3.2l-15.1,4.2v-23.7h24.3c2.5,0,4.6-2.1,4.6-4.6c0-2.5-2.1-4.6-4.6-4.6
			h-27c0.3-1.3,0.5-2.6,0.7-3.9c0.6-3.4,1-6.8,1.3-9.9h19.5c2.5,0,4.6-2.1,4.6-4.6c0-2.5-2.1-4.6-4.6-4.6h-19.1
			c0.2-8.9-0.6-14.9-0.7-15.3c-0.3-2.5-2.6-4.3-5.2-4c-2.5,0.3-4.3,2.6-4,5.2c0,0.1,0.7,5.7,0.6,14.1H531l3.4-10.3
			c0.8-2.4-0.5-5-2.9-5.8c-2.4-0.8-5,0.5-5.8,2.9l-7.5,22.4h25.3c-0.3,2.8-0.6,5.7-1.1,8.6c-0.3,1.8-0.7,3.5-1,5.2h-55.9
			c0.3-1.3,0.5-2.6,0.7-3.9c0.6-3.4,1-6.8,1.3-9.9h19.1c2.5,0,4.6-2.1,4.6-4.6c0-2.5-2.1-4.6-4.6-4.6H488c0.2-8.9-0.6-14.9-0.7-15.3
			c-0.3-2.5-2.6-4.3-5.2-4c-2.5,0.3-4.3,2.6-4,5.2c0,0.1,0.7,5.7,0.6,14.1h-13.5l3.4-10.3c0.8-2.4-0.5-5-2.9-5.8
			c-2.4-0.8-5,0.5-5.8,2.9l-7.5,22.4h25.8c-0.3,2.8-0.6,5.7-1.1,8.6c-0.3,1.8-0.7,3.5-1,5.2h-21c-2.5,0-4.6,2.1-4.6,4.6
			c0,2.5,2.1,4.6,4.6,4.6h18.4c-5,14.8-13.5,25.7-25.3,32.4C446,147.9,445.2,150.8,446.5,153z"/>
		<path class="st0" d="M583.9,260.8c-19.9-1.2-33.3-7-41-11.6c-2.2-1.3-5-0.6-6.3,1.6c-1.3,2.2-0.6,5,1.6,6.3
			c8.6,5.2,23.5,11.7,45.3,12.9c0.1,0,0.2,0,0.3,0c2.4,0,4.5-1.9,4.6-4.3C588.4,263.1,586.5,261,583.9,260.8z"/>
		<path class="st0" d="M754.6,173.5c2.5,0,4.6-2.1,4.6-4.6c0-2.5-2.1-4.6-4.6-4.6h-64.5v-31.2c0-0.2,0-0.4-0.1-0.6h39.5
			c2.5,0,4.6-2.1,4.6-4.6c0-2.5-2.1-4.6-4.6-4.6h-88c-2.5,0-4.6,2.1-4.6,4.6c0,2.5,2.1,4.6,4.6,4.6h39.5c0,0.2-0.1,0.4-0.1,0.6v31.2
			h-64.5c-2.5,0-4.6,2.1-4.6,4.6c0,2.5,2.1,4.6,4.6,4.6h64.5v70l-32.8-28.7c-1.7-1.5-4.3-1.5-6.1,0l-9,7.8c-1.9,1.7-2.1,4.6-0.5,6.5
			c1.7,1.9,4.6,2.1,6.5,0.5l5.9-5.2l36.1,31.6c0.1,0.4,0.3,0.7,0.5,1h-56.7c-2.5,0-4.6,2.1-4.6,4.6c0,2.5,2.1,4.6,4.6,4.6h129.6
			c2.5,0,4.6-2.1,4.6-4.6c0-2.5-2.1-4.6-4.6-4.6h-61.9l45.7-50.5c1.7-1.9,1.6-4.8-0.3-6.5c-1.9-1.7-4.8-1.6-6.5,0.3l-41.4,45.8
			v-72.7H754.6z"/>
		<path class="st0" d="M413.4,78.8l25.4,26.9c1.7,1.8,4.7,1.9,6.5,0.2c1.8-1.7,1.9-4.7,0.2-6.5l-29.3-31c-1-1-2.3-1.5-3.7-1.4
			c-1.4,0.1-2.7,0.8-3.4,2c-26.9,39.3-49.3,52.1-49.6,52.2c-2.2,1.2-3,4-1.8,6.2c0.8,1.5,2.4,2.4,4,2.4c0.7,0,1.5-0.2,2.2-0.6
			C364.8,128.7,386.5,116.6,413.4,78.8z"/>
		<path class="st0" d="M546.7,235.8c-0.5-2.1-2.4-3.5-4.5-3.5h-67.8v-25.1c0.1-0.1,0.3-0.2,0.4-0.3l14-12.2l31.7,27.6
			c0.9,0.8,1.9,1.1,3,1.1c1.3,0,2.5-0.5,3.4-1.5l32.9-36.5v51.5c0,2.5,2.1,4.6,4.6,4.6s4.6-2.1,4.6-4.6v-72.9c0-2.5-2.1-4.6-4.6-4.6
			h-94.6c-2.5,0-4.6,2.1-4.6,4.6v72.9c0,2.5,2.1,4.6,4.6,4.6h52.3c-16.7,7.5-41.2,17.2-57.3,17.2c-2.5,0-4.6,2.1-4.6,4.6
			c0,2.5,2.1,4.6,4.6,4.6c28.5,0,77.6-25.8,79.6-26.9C546.2,240,547.2,237.9,546.7,235.8z M559.8,168.7v3c-0.1,0.1-0.2,0.2-0.3,0.3
			l-36.4,40.4l-31.3-27.2c-1.7-1.5-4.3-1.5-6,0l-11.4,9.9v-26.4H559.8z"/>
		<path class="st0" d="M447.1,207.5l-33.2,37v-71h31.4c2.5,0,4.6-2.1,4.6-4.6c0-2.5-2.1-4.6-4.6-4.6h-31.4v-31.8h23.9
			c2.5,0,4.6-2.1,4.6-4.6c0-2.5-2.1-4.6-4.6-4.6h-52.3c-2.5,0-4.6,2.1-4.6,4.6c0,2.5,2.1,4.6,4.6,4.6h19.3v31.8h-30.2
			c-2.5,0-4.6,2.1-4.6,4.6c0,2.5,2.1,4.6,4.6,4.6h30.2v71.4l-22.3-19.4c-1.9-1.7-4.8-1.5-6.5,0.5c-1.7,1.9-1.5,4.8,0.5,6.5
			l28.3,24.6h-23.2c-2.5,0-4.6,2.1-4.6,4.6c0,2.5,2.1,4.6,4.6,4.6h56.1c2.5,0,4.6-2.1,4.6-4.6c0-2.5-2.1-4.6-4.6-4.6H415l39-43.4
			c1.7-1.9,1.5-4.8-0.4-6.5C451.7,205.4,448.8,205.6,447.1,207.5z"/>
		<path class="st0" d="M799.3,147.1l-113.5-93c-1.8-1.5-4.4-1.4-6.1,0.2l-100.1,96.3c-1.8,1.8-1.9,4.7-0.1,6.5
			c0.9,0.9,2.1,1.4,3.3,1.4c1.1,0,2.3-0.4,3.2-1.3l97.1-93.5l110.3,90.4c2,1.6,4.9,1.3,6.5-0.6C801.6,151.6,801.3,148.7,799.3,147.1
			z"/>
	</g>
	<g>
		<path class="st1" d="M993.9,125.2l-16-2.6l-2.6-16c-0.2-1.1-1.1-1.9-2.3-1.9c-1.1,0-2.1,0.8-2.3,1.9l-2.6,16l-16,2.6
			c-1.1,0.2-1.9,1.1-1.9,2.3c0,1.1,0.8,2.1,1.9,2.3l16,2.6l2.6,16c0.2,1.1,1.1,1.9,2.3,1.9c1.1,0,2.1-0.8,2.3-1.9l2.6-16l16-2.6
			c1.1-0.2,1.9-1.1,1.9-2.3C995.8,126.3,995,125.3,993.9,125.2z"/>
		<path class="st1" d="M830,155.5c-2.9-0.3-5.9,0.4-8.7,1.9c-1.4,0-2.9,0.6-3.8,1.8l-40.2,53.2c-1.5,2-1.1,4.9,0.9,6.5
			c0.8,0.6,1.8,0.9,2.8,0.9c1.4,0,2.8-0.6,3.7-1.8l22.4-29.5c2.6,2,5.9,3.1,9.4,3.2c0.1,0,0.2,0,0.3,0c3.7,0,7.5-1.1,11.4-3.3
			c7-3.9,11.8-10,13.2-16.6c0.7-3.2,0.5-6.1-0.6-8.6C838.9,158.9,834.7,155.9,830,155.5z M832.2,169.7c-0.9,4-4,7.9-8.7,10.5
			c-2.6,1.5-5,2.2-7,2.1c-1.5,0-3-0.5-4-1.3l10.6-14c0.4-0.2,0.8-0.4,1.2-0.7c1.5-1.2,3.3-1.8,4.8-1.7c1.3,0.1,2.6,0.9,3,1.9
			C832.5,167.3,832.5,168.4,832.2,169.7z"/>
		<path class="st1" d="M861.6,184.3c-2.5,0.5-5.1,0.6-7.7,0.4c-0.4,0-0.7-0.1-0.9-0.1c0.2-0.6,0.7-1.6,1.7-2.9l38.6-48.3
			c1.6-2,1.3-4.9-0.7-6.5c-2-1.6-4.9-1.3-6.5,0.7L847.6,176c-4.5,5.7-5.1,11.3-1.6,15c2.4,2.5,5.9,2.8,7.2,2.9
			c1,0.1,1.9,0.1,2.9,0.1c2.4,0,4.8-0.2,7.2-0.7c2.5-0.5,4.1-2.9,3.7-5.4C866.5,185.5,864.1,183.8,861.6,184.3z"/>
		<path class="st1" d="M909.5,186.7c-0.2-0.1-0.4-0.4-0.5-0.5c-0.4-1.5,0.5-3.8,1.3-5.4c3.1-6.5,7.6-12.5,13-17.3
			c1.8-1.6,2-4.3,0.6-6.2c-1.5-1.9-4.1-2.4-6.2-1.1c-6.2,4-11.1,9.4-15.8,14.6c-1.9,2.1-3.8,4.2-5.7,6.2c-2.9,2.9-7.3,6.8-12,7.2
			c0,0,0-0.1,0-0.1c3.6-8.3,9.4-15.5,16.7-20.9c2-1.5,2.5-4.4,1-6.4c-1.5-2-4.4-2.5-6.4-1c-8.6,6.3-15.4,14.9-19.6,24.6
			c-0.6,1.4-2.2,5.1-0.3,8.6c1.6,3,5,4.6,9.1,4.4c6.2-0.4,11.3-3.7,15.1-7.1c0.1,0.8,0.2,1.6,0.4,2.4c0.9,3.1,3.3,5.6,6.3,6.8
			c1,0.4,2.1,0.6,3.1,0.6c1.6,0,3.2-0.5,4.5-1.4c2.1-1.4,2.7-4.3,1.3-6.4C914.1,186.3,911.6,185.7,909.5,186.7z"/>
		<path class="st1" d="M958.7,150.7c-1.8-1.8-4.7-1.8-6.5,0.1l-14.9,15.2c-1.8,1.8-1.8,4.7,0.1,6.5c0.9,0.9,2.1,1.3,3.2,1.3
			c1.2,0,2.4-0.5,3.3-1.4l5.2-5.3c0.4,2.5,0.7,4.9,0.5,7.2c-0.3,3.3-1.8,7.5-5,9.3c-2.2,1.2-5.2,1.4-8.2,1.6l-10.8,0.8
			c-2.5,0.2-4.5,2.4-4.3,4.9c0.2,2.4,2.2,4.3,4.6,4.3c0.1,0,0.2,0,0.3,0l10.8-0.8c3.6-0.3,8-0.6,12-2.8c5.5-3,9.1-9.2,9.7-16.5
			c0.5-5.6-0.7-11-1.9-15.9l2-2C960.5,155.4,960.5,152.4,958.7,150.7z"/>
	</g>
	<g>
		<path class="st0" d="M159.5,80.6c0,0-0.1-0.1-0.1-0.1c-0.1-0.1-0.1-0.1-0.2-0.2c-0.1,0-0.1-0.1-0.2-0.1c-0.1-0.1-0.2-0.1-0.2-0.1
			c-0.1,0-0.1-0.1-0.2-0.1c-0.1,0-0.2-0.1-0.2-0.1c-0.1,0-0.1-0.1-0.2-0.1c-0.1,0-0.1-0.1-0.2-0.1c-0.1,0-0.1,0-0.2-0.1
			c-0.1,0-0.1,0-0.2-0.1c-0.1,0-0.1,0-0.2,0c-0.1,0-0.2,0-0.2,0c-0.1,0-0.1,0-0.2,0c-0.1,0-0.2,0-0.2,0c-0.1,0-0.1,0-0.2,0
			c-0.1,0-0.2,0-0.3,0c-0.1,0-0.1,0-0.2,0c-0.1,0-0.2,0-0.3,0c-0.1,0-0.1,0-0.2,0c-0.1,0-0.2,0-0.3,0.1c-0.1,0-0.1,0-0.2,0
			c-0.1,0-0.2,0.1-0.3,0.1c-0.1,0-0.1,0-0.2,0.1c-0.1,0-0.2,0.1-0.2,0.1c-0.1,0-0.1,0.1-0.2,0.1c-0.1,0-0.1,0.1-0.2,0.1
			c-0.1,0-0.1,0.1-0.2,0.1c-0.1,0-0.1,0.1-0.2,0.1c-0.1,0.1-0.1,0.1-0.2,0.2c0,0-0.1,0.1-0.1,0.1l-54,47L73,94
			c-1.6-2.1-4.6-2.4-6.7-0.8c-2.1,1.6-2.4,4.6-0.8,6.7l29.3,37.5c0,0,0,0.1,0.1,0.1c0,0,0.1,0.1,0.1,0.1c0,0,0.1,0.1,0.1,0.1
			c0.1,0.1,0.1,0.1,0.2,0.2c0.1,0.1,0.1,0.1,0.2,0.2c0.1,0.1,0.1,0.1,0.2,0.2c0.1,0.1,0.2,0.1,0.2,0.2c0.1,0,0.1,0.1,0.2,0.1
			c0.1,0.1,0.2,0.1,0.3,0.1c0.1,0,0.1,0.1,0.2,0.1c0.1,0,0.2,0.1,0.3,0.1c0.1,0,0.1,0.1,0.2,0.1c0.1,0,0.2,0.1,0.3,0.1
			c0.1,0,0.1,0,0.2,0.1c0.1,0,0.2,0,0.3,0.1c0.1,0,0.1,0,0.2,0c0.1,0,0.3,0,0.4,0c0,0,0.1,0,0.1,0c0.1,0,0.2,0,0.3,0
			c0.1,0,0.2,0,0.3,0h114.3c0.1,0,0.2,0,0.3,0c0.1,0,0.2,0,0.3,0c0,0,0,0,0,0c0,0,0,0,0,0c0,0,0,0,0,0c0.2,0,0.3,0,0.5,0
			c0,0,0.1,0,0.1,0c0.1,0,0.2,0,0.3-0.1c0.1,0,0.1,0,0.2,0c0.1,0,0.2-0.1,0.3-0.1c0.1,0,0.1,0,0.2-0.1c0.1,0,0.2-0.1,0.3-0.1
			c0.1,0,0.1-0.1,0.2-0.1c0.1,0,0.2-0.1,0.3-0.1c0.1,0,0.1-0.1,0.2-0.1c0.1-0.1,0.2-0.1,0.2-0.2c0.1,0,0.1-0.1,0.2-0.1
			c0.1-0.1,0.1-0.1,0.2-0.2c0.1-0.1,0.1-0.1,0.2-0.2c0.1-0.1,0.1-0.1,0.2-0.2l65.6-72.9c1.8-1.9,1.6-4.9-0.4-6.7
			c-1.9-1.8-4.9-1.6-6.7,0.4l-62.5,69.4L159.5,80.6z M156.4,90.5l45.1,39.2h-90.3L156.4,90.5z"/>
		<path class="st0" d="M307.8,131.7l-24.9-35.2c-1.5-2.1-4.5-2.6-6.6-1.1c-2.1,1.5-2.6,4.5-1.1,6.6l22.7,32L173,265l45-96.5
			c1.1-2.4,0.1-5.2-2.3-6.3c-2.4-1.1-5.2-0.1-6.3,2.3l-53,113.5l-53-113.5c-1.1-2.4-3.9-3.4-6.3-2.3c-2.4,1.1-3.4,3.9-2.3,6.3
			l45,96.5L15.1,134l46.7-66h179.7c2.6,0,4.7-2.1,4.7-4.7c0-2.6-2.1-4.7-4.7-4.7H59.3c-1.5,0-3,0.7-3.9,2L5.1,131.7
			c-1.3,1.9-1.1,4.4,0.4,6L153,292.5c0,0,0.1,0,0.1,0.1c0.1,0.1,0.3,0.3,0.4,0.4c0,0,0.1,0.1,0.1,0.1c0,0,0.1,0.1,0.1,0.1
			c0.2,0.1,0.4,0.2,0.5,0.3c0,0,0.1,0,0.1,0c0,0,0,0,0,0c0,0,0,0,0.1,0c0,0,0.1,0,0.1,0c0.1,0.1,0.3,0.1,0.4,0.1
			c0.1,0,0.1,0,0.2,0.1c0.1,0,0.2,0,0.2,0.1c0,0,0,0,0,0c0.1,0,0.1,0,0.2,0c0.1,0,0.1,0,0.2,0c0.2,0,0.4,0,0.6,0c0,0,0,0,0,0
			c0,0,0,0,0,0c0.2,0,0.4,0,0.6,0c0.1,0,0.1,0,0.2,0c0.1,0,0.1,0,0.2,0c0,0,0,0,0,0c0.1,0,0.2,0,0.2-0.1c0.1,0,0.1,0,0.2,0
			c0.1,0,0.3-0.1,0.4-0.1c0,0,0.1,0,0.1,0c0,0,0,0,0.1,0c0,0,0,0,0,0c0,0,0.1,0,0.1-0.1c0.2-0.1,0.4-0.2,0.5-0.3
			c0,0,0.1-0.1,0.1-0.1c0.1,0,0.1-0.1,0.1-0.1c0.2-0.1,0.3-0.2,0.4-0.4c0,0,0.1,0,0.1-0.1l147.5-154.7
			C308.9,136.1,309.1,133.6,307.8,131.7z"/>
		<path class="st0" d="M228.4,134.4c0,2.6,2.1,4.7,4.7,4.7h39c2.6,0,4.7-2.1,4.7-4.7c0-2.6-2.1-4.7-4.7-4.7h-39
			C230.5,129.7,228.4,131.8,228.4,134.4z"/>
		<path class="st0" d="M40.7,129.7c-2.6,0-4.7,2.1-4.7,4.7c0,2.6,2.1,4.7,4.7,4.7h39c2.6,0,4.7-2.1,4.7-4.7c0-2.6-2.1-4.7-4.7-4.7
			H40.7z"/>
	</g>
	<path class="st1" d="M289,91.2c-1.8,0-3.4-1.2-3.9-3l-5.5-20.6c-0.5-1.8-1.3-3.4-2.5-4.9c-1.4-1.7-1.1-4.3,0.6-5.7
		c1.7-1.4,4.3-1.1,5.7,0.6c1.9,2.3,3.2,5,4,7.9l1.6,6l1.6-6c2-7.3,7.7-13.1,15-15l6-1.6l-6-1.6c-7.3-2-13.1-7.7-15-15l-1.6-6l-1.6,6
		c-2,7.3-7.7,13.1-15,15l-6.6,1.8c1.3,1,1.9,2.7,1.5,4.3c-0.6,2.2-2.8,3.5-5,2.9l-12.6-3.4c-1.8-0.5-3-2.1-3-3.9s1.2-3.4,3-3.9
		l20.6-5.5c4.5-1.2,8.1-4.8,9.3-9.3l5.5-20.6c0.5-1.8,2.1-3,3.9-3l0,0c1.8,0,3.4,1.2,3.9,3l5.5,20.6c1.2,4.5,4.8,8.1,9.3,9.3
		l20.6,5.5c1.8,0.5,3,2.1,3,3.9s-1.2,3.4-3,3.9l-20.6,5.5c-4.5,1.2-8.1,4.8-9.3,9.3l-5.5,20.6C292.5,89.9,290.9,91.2,289,91.2z"/>
</g>
</svg>
