<svg xmlns="http://www.w3.org/2000/svg" viewBox="0 0 1976.53 982.37"><path d="M1260.91 721.84c8.17-.4 12.19 8.47 5.26 11.61C1146.39 787.71 734 965.87 695.08 976c-36.3 9.42-166.12 6.92-163.5 2.08 7.69-14.22 278.92-176.21 298.36-189.74 6-4.19-2.37-20.74-8.51-32-3.45-6.31 1.41-13 9.69-13.43z" fill="#1c3253"/><path d="M1976.42 630.64c-3.3-25.54-56.25-49.82-82-60.2-8.36-3.36-13.85-5.25-13.85-5.25q-11.57-7.47-23.52-14.19c-71-40.12-148.94-60.61-223.5-59.57-82.9 1.15-1538.74 144.36-1538.74 144.36-10.4 1-1.54 21.54 10.58 42.73a126.74 126.74 0 0027 33.06 111.27 111.27 0 0011.53 8.7c152.82 106.94 615.08 130 664.16 129.44 343.38-3.93 669.85-31 945.79-84 83.42-16 171.19-67.92 207.13-105.79 10.72-11.32 16.42-21.52 15.42-29.29z" fill="#1c3253"/><path d="M1335.09 600.5l-2.21-.21zm-73.16-256.26c.6.6 1.83.12 2.46.7 1.07 3.65 28.13 6.19 31.26 15.46 8.48 25.12-2.79 70.63.7 101.16l38.74 138.93 1.11.1c24.41 2.06 48.81-.57 73.09-3.17 13-1 25.81-3.41 38.66-5.43 22.85-3.16 42-2.19 62.84 8.69 14.11 7.08 19.86 15 20.94 30.93.31 5.68.59 11.41-.72 17-.62 3.6-2.17 7-2.93 10.53-.71 6.39 22.56 8 27.14 8.56 2.41.13 5.1.53 7.26-.76 1.81-1.2 2.83-3.22 4-5a115.17 115.17 0 005.79-11.34 148.41 148.41 0 006.15-15.8 67.82 67.82 0 0113.11 24.55c1 3.3 1.73 6.69 2.58 10a13.54 13.54 0 00.86 2.75 48.5 48.5 0 00-2.18 6.09c-1.1 3.7-2.33 7-2.5 10.7-.07 5.36 5.91 7.63 10 9.27 10.44 3.91 24.75 6.94 35.72 4.33 11.51-2.69 14.6-10.22 6.72-19.41-3.92-4.52-8.7-8.2-13.44-11.85a16.47 16.47 0 001-1.89c5.45-10.83 5.68-23.05 6.08-34.9a89 89 0 00-.6-14.41 223.76 223.76 0 00-4.61-29.45c-3.28-13.32-7.09-26.19-13.24-38.42-4.17-8.5-8.49-17-14.2-24.6a135.83 135.83 0 00-16.92-18.85 19.57 19.57 0 009.08-9.88c1.75-3.82.82-7.83-1-11.37 2.2-.28 4.4-.56 6.6-.82a51.66 51.66 0 009.48-1.88 1.88 1.88 0 001.34.13c3.2-.94 7-1.61 9.13-4.45 3-5.56 4.85-11.68 6.72-17.69a256.18 256.18 0 0010.65-54.35v-.08c1.92-18.95 3.18-38.31-.36-57.1 0 0-6-23.87-15.44-42.32-3.49-6.78-9.13-12.19-14.3-16.1 2.09-1.88 4.12-3.83 6-5.87a60.91 60.91 0 0012.8-23.51c.15-.56.29-1.13.42-1.7 4.18-17.55 2.8-34.06-5.76-50.26-4.58-8.73-10.84-16.78-15.9-25.2a119.11 119.11 0 00-19.7-25.4c-8.52-7.86-18.5-13-29.29-16.79a89.72 89.72 0 00-10.68-3 206 206 0 00-2.19-20.51C1535.35 65 1490 3.73 1429.73 1.8c-17.28-.56-27.42 14.08-25.38 30.39 1.27 10.65 8.81 19.23 16.29 26.36 19.28 18.29 42.55 31.73 62 49.77a134.41 134.41 0 0126.13 33.19c-4.69 1-9.35 2-14.1 2.48a60 60 0 00-13.33 4.67 129.1 129.1 0 00-9.34-17.26c-26.5-41.23-76.55-87.29-128.78-83.55-15.32.64-28.5 9.91-28.69 26.23-.38 10.15 6.1 18.78 13.73 24.8 12.46 10.64 27.62 17.13 42.43 23.75 19.13 8.7 39 15.75 57.49 25.85 9.68 5.43 19 11.84 26.25 20.31a70.63 70.63 0 00-5.71 8c-4.54 7.3-7.33 15.5-9.61 23.74-5.48 18.57-7 39-2.1 57.73a135.54 135.54 0 01-33.31 33.79c-4.51 3.19-9 6.54-13.6 9.59 0-.22.05-.45.07-.68 0-.61.1-1.23.14-1.84s.13-1.34.18-2v-.54c0-.52.06-1 .08-1.57v-.47a69.48 69.48 0 00-16-46.35c-11.34-16.58-29.76-27.9-49.52-31.19.8-3.68 1.45-7.4 1.9-11.14a185.22 185.22 0 00.35-29.23c-1.86-22.52-10.37-45-26.34-61.29-6.63-7-14.34-13.5-23.92-15.75-10.09-2.15-22.06-2.3-31.25 2.89-14.33 8.89-16.73 24.89-3.15 35.82a143.39 143.39 0 0013.6 9.74c9.85 6.81 20 14.53 27.16 24.35 7.75 12.23 11.81 26.86 13.94 41.12.2 1.42.37 2.84.51 4.27a74.78 74.78 0 00-16.67 6.18q-2.06.94-4 2a83.83 83.83 0 00-7-16.24c-12.57-21.14-31.83-41.91-54.59-52-14.41-6-32.1-5.84-45.57 2.52-6.7 4.15-12.46 10.44-14.37 18.24-1.58 7.66.38 16.49 6.44 21.74 5.69 5 12.89 7.93 20.23 9.56 9 2.34 18.29 3.75 27.32 6.12 13.57 3.19 26 9.58 37.51 17.36a87.63 87.63 0 019.58 7.29q-2.35 2.29-4.53 4.79c-5.5 6.28-8.4 14.32-11 22.15-4 13.87-5 25.77-.77 42.28 6.26 24.52 19.85 33.37 19.85 33.37m176.3-5.14c2.5-6.61 6.14-12.31 9.73-18.6 4.38-7.79 8.82-15.56 13.17-23.37a112.41 112.41 0 0033.39 19.84c-.77.36-1.54.71-2.3 1.09a45.63 45.63 0 00-14.41 7c-7.71 3.46-14.44 11.92-18.08 18.36-3.44 6.28-6.33 13-7.41 20.12-1.65 9.4-2.76 19-1.69 28.52a91 91 0 0018.81 48.04c-4.84 3.89-8.76 8.9-12.41 13.87-.47.62-.93 1.25-1.38 1.88-.09-1.26-.18-2.52-.3-3.78a207.77 207.77 0 00-8.9-44.91c-6.7-21.81-16.56-45.39-8.22-68.06z" opacity=".3" fill="#e5ab5e"/><path d="M1336.47 596.57c1.1.14 2.2.26 3.3.37 24.38 2.52 48.82.36 73.15-1.78 13-.77 25.87-2.92 38.75-4.7 22.9-2.72 42-1.39 62.66 9.89 14 7.34 19.58 15.38 20.35 31.32.2 5.68.38 11.42-1 17-.69 3.59-2.3 6.94-3.13 10.47-.83 6.38 22.4 8.43 27 9.07 2.4.18 5.08.64 7.27-.62 1.83-1.16 2.89-3.16 4-4.93a116.22 116.22 0 006-11.23 146.94 146.94 0 0013.76-48.49 166 166 0 00.63-25.12c-1.29-12.49-4.12-25-9.46-36.38a91.75 91.75 0 00-19.55-25.35c-22.83-23.13-54.71-32.81-85.22-41.27-7.83-2-15.7-4-23.62-5.59-4.32-.61-8.6.73-12.77 1.71-25.59 6.18-51.49 12.14-77.91 13-15.92.89-27.63-5.76-43.57-5.28-6.41.55-20-1.53-26.31-.5l47.88 118.65" fill="#14386c"/><path d="M361.37 606.52l-61.87-18.44c-38.41-11.45-74.35-36.23-103.66-71.49l-91.58-110.16c-3.67-4.42-8.59-6.66-13.39-6.1l-25.67 3c-5.54.64-8.57 8-6 14.56l81.7 211.2z" fill="#f15238"/><path d="M1960.82 647.92c-36.37 36.64-129.76 85.17-215.21 96.71-91.35 12.37-730.77 62.37-953.72 79.58a566.43 566.43 0 01-153.3-9.21l-482.5-95a103.71 103.71 0 01-45.7-22.12c-10.51-8.66-21.75-19-29.26-31.54-12.26-20.5-19.29-40.8-8.76-41.79 0 0 1473.2-138.56 1557.09-139.66 75.45-1 154.34 18.82 226.17 57.64q12 6.5 23.8 13.71s5.56 1.84 14 5.09c26 10 79.63 33.53 83 58.24 1.01 7.55-4.77 17.43-15.61 28.35z" fill="#fff"/><path d="M1893.45 561.36L1871.9 577l-6 4.34-30.07 21.84a16.45 16.45 0 01-8.17 3 19 19 0 01-4.26 0l-7.57-1-68-8.54c-7.23-.9-13.39-6.33-14.77-13l-2.49-12a5.18 5.18 0 014.87-6.29l55.52-5.1 3.68-.34 4.91-1.57 28.57-9.15 6.31-2 18.23-5.83 3 1.19q12 6.5 23.81 13.71s5.53 1.85 13.98 5.1z" fill="#a3c8ef"/><path fill="#fff" d="M1792.24 548.17l37.98 71.46 9.41-3.25-39.55-70.17-7.84 1.96zm32.13-7.74l52.4 46.45 4.54-5.69-52.6-43.63-4.34 2.87z"/><path d="M802 699.09l-22.38 1.83c-4.1.34-7.75-2-8.16-5.3l-4.32-34.51c-.41-3.26 2.58-6.18 6.67-6.51l22.39-1.84c4.09-.33 7.74 2 8.15 5.3l4.33 34.52c.44 3.26-2.54 6.18-6.68 6.51zm67.82-5.54l-22.38 1.83c-4.1.33-7.75-2-8.16-5.3L835 655.56c-.41-3.26 2.58-6.18 6.67-6.51l22.33-1.83c4.09-.34 7.75 2 8.15 5.3L876.5 687c.41 3.29-2.58 6.21-6.68 6.55zm67.79-5.55l-22.39 1.83c-4.09.34-7.74-2-8.15-5.3L902.74 650c-.41-3.26 2.58-6.17 6.68-6.51l22.38-1.83c4.1-.34 7.75 2 8.16 5.3l4.32 34.51c.41 3.28-2.58 6.19-6.67 6.53zm67.78-5.55L983 684.28c-4.1.34-7.75-2-8.16-5.3l-4.32-34.51c-.41-3.27 2.58-6.18 6.67-6.52l22.39-1.83c4.09-.33 7.74 2 8.15 5.3l4.32 34.52c.42 3.26-2.56 6.18-6.66 6.51zm67.78-5.55l-22.38 1.84c-4.1.33-7.75-2-8.16-5.31l-4.32-34.51c-.41-3.26 2.58-6.18 6.67-6.51l22.39-1.84c4.09-.33 7.74 2 8.15 5.3l4.33 34.52c.41 3.26-2.58 6.18-6.68 6.51zm67.83-5.54l-22.39 1.83c-4.09.33-7.74-2-8.15-5.3l-4.33-34.52c-.41-3.26 2.58-6.18 6.68-6.51l22.38-1.83c4.1-.34 7.75 2 8.16 5.3l4.32 34.51c.33 3.26-2.62 6.16-6.67 6.52zm67.74-5.55l-22.39 1.83c-4.09.34-7.74-2-8.15-5.3l-4.32-34.51c-.41-3.27 2.57-6.18 6.67-6.52l22.38-1.83c4.1-.34 7.75 2 8.16 5.3l4.32 34.51c.41 3.27-2.58 6.18-6.67 6.52zm67.78-5.55l-22.38 1.83c-4.1.34-7.75-2-8.16-5.3l-4.32-34.51c-.41-3.26 2.58-6.18 6.67-6.52l22.39-1.83c4.09-.33 7.74 2 8.15 5.3l4.33 34.52c.41 3.25-2.58 6.18-6.68 6.51z" fill="#a3c8ef"/><path d="M1960.82 647.92c-36.37 36.64-125.19 86.84-209.6 102.35-279.24 51.33-609.6 77.49-957.07 81.29-51 .56-542.61-23-683.76-133.65l183.23-32.75s87.26 87.62 459 100.91 1105.14-47.69 1208.14-118.14z" fill="#ddebf8"/><path d="M324.41 665.16l-273.6 77.72C37.75 746 1.32 745.8 1.32 745.8c-1.32.07-1.85-2.26-.65-2.87l153-77.46a10.12 10.12 0 012.58-.89c16.51-3.24 178.96-34.34 168.16.58z" fill="#f15238"/><path d="M1250.7 711.19c8.17-.39 12.19 8.32 5.26 11.4-119.78 53.29-532.15 228.25-571.1 238.18-36.29 9.26-166.11 6.8-163.49 2.05 7.69-14 278.92-173.05 298.36-186.34 6-4.11-2.37-20.37-8.52-31.44-3.44-6.21 1.42-12.8 9.7-13.2z" fill="#a3c8ef"/><path d="M1496.68 214.42c-.74-9.83-9.28-15.19-17.87-9.47a23.32 23.32 0 00-7.1 12.39c-2.39-3.36-8.06-2.61-8.79 1.69-1.33 5.75 1.4 11.54.65 17.36a12.21 12.21 0 01-1.15 5c-.56 1.37-1.6 3.06-.56 4.45.93 1.17 2.55 1.27 3.87 1.78 3.52 1.07 6.89 2.59 10.39 3.71 3.06.87 6.71 1.49 8.42-1.88 7.25-9.96 13.46-22.45 12.14-35.03z" fill="#fff"/><path d="M1288.19 476.35c.1 6.62-.37 10.1 7.38 10.57a203.64 203.64 0 0028.46 3.56c24.35.89 48.81 0 72.88-3.93 15.83-2.82 31.92-5.76 46.5-12.84 5.48-2.73 11.19-5.51 15.54-9.9a5.92 5.92 0 001.65-5.74c-.21-2.82-.29-5.65-.51-8.48a207.82 207.82 0 00-8-45.07c-6.29-21.94-15.7-45.7-6.93-68.26 2.63-6.56 6.38-12.2 10.09-18.41 5.5-9.38 11.09-18.72 16.52-28.14 4.2-7.83 20.61-39.77 14.3-46.62-4.62-2.19-9.91-3-14.7-4.93-2.68-.87-5.32-1.94-8.08-2.56-1.55-.3-3.48-.74-4.73.51a4.49 4.49 0 00-1.12 2 115.28 115.28 0 01-5.69 11.47 134.53 134.53 0 01-38.61 40.16c-9.14 6.21-18.11 13.06-28.56 16.88-11.22 4.35-22.12 9.55-33.66 13.05-10.4 3.3-21.09 5.52-31.73 7.88-4.52 1.09-20 6.52-24.18 21.23-9.67 33.86-6.38 96.95-6.82 127.57z" fill="#a7191c"/><path d="M1460.09 449.59c-.24-4.24-.68-8.46-1.22-12.66a254.34 254.34 0 01-31.63 11.22c-11.53 3-23.25 5.22-34.9 7.73-15.34 2.55-30.76 4.91-46.3 5.76a350.26 350.26 0 01-37.51-.42c-6.92-.61-14.09-1.49-21.21-2.75.53 6 .75 12 .87 17.88.1 6.62-.37 10.1 7.38 10.57a203.64 203.64 0 0028.46 3.56c24.35.89 48.81 0 72.88-3.93 15.83-2.82 31.92-5.76 46.5-12.84 5.48-2.73 11.19-5.51 15.54-9.9a5.92 5.92 0 001.65-5.74c-.21-2.82-.29-5.65-.51-8.48zm25.91-206.5c-4.62-2.19-9.91-3-14.7-4.93-2.68-.87-5.32-1.94-8.08-2.56-1.55-.3-3.48-.74-4.73.51a4.49 4.49 0 00-1.12 2 116.8 116.8 0 01-5.53 11.16c2.85 1.72 5.76 3.33 8.75 4.79a142.48 142.48 0 0023.07 9.64c3.34-8.97 5.28-17.45 2.34-20.61z" fill="#fcd47d"/><path d="M1379.31 464.29c-1.18-16.82-4.44-33.52-7.81-50-2.6-12.88-5-26.21-9.29-38.62-2.88-8.92-7-17.34-11-25.83a116.1 116.1 0 00-8-14.43c-1.07-1.81-3.78-4.11-1.43-6a2.37 2.37 0 013.28.49 169.08 169.08 0 0113.36 24 164.84 164.84 0 0110.69 26.52c4.7 16.27 7.28 33.09 10.13 49.75 1.69 11.18 3.23 22.4 4.1 33.68a2 2 0 01-4.03.44z" fill="#14386c"/><path d="M1378.7 361.73a2.37 2.37 0 00-2-4.26c-10.71 4.61-21.74 8.45-33.25 10.46-3.4.63-7.66 1.17-11.27 2-1.07.33-2.42.43-3.12 1.4-.89 1.73 1.44 2.37 2.73 2.47 16.43 1.34 32.41-4.89 46.91-12.07zm7.55 27.34a2 2 0 00-1.74-3.64 139.2 139.2 0 01-27.44 9.58c-6.35 1.82-12.88 2.91-19.3 4.49-4.21 1.11-3.24 4.08.75 3.91 8.88.24 17.45-2.48 25.8-5.17a127.2 127.2 0 0021.93-9.17zm7 24.34a2.33 2.33 0 00-3-.63c-9.1 4.46-19.19 7-29.13 9.12-5.05 1-10.1 2.12-15.18 3-1.16.34-2.84.3-3.53 1.44-.88 6 31.44-1.52 35.08-3 5.25-1.78 10.56-3.68 15.25-6.67a2.31 2.31 0 00.48-3.26z"/><path d="M1385.32 358.54a6.92 6.92 0 10-7 6.78 7 7 0 007-6.78zm-47.42 12.94a6.92 6.92 0 10-7.05 6.79 7 7 0 007.05-6.79zm6.34 30.46a6.92 6.92 0 10-7 6.79 7 7 0 007-6.79zm3.16 19.2a6.92 6.92 0 106.79 7.05 7 7 0 00-6.79-7.05zm44.33-35.76a6.92 6.92 0 10-7 6.79 7 7 0 007-6.79zm2.62 20.24a6.92 6.92 0 106.79 7.05 7 7 0 00-6.79-7.05zm-9.49-160.27a69.18 69.18 0 0114.72 51.22c-1.75 19.83-9 38.41-26 49.87a91.41 91.41 0 01-30.6 12.95c-10.61 2.08-21.58 2.21-32.36 1.78-20-.89-39.9-9.51-52.69-25.2-6.21-9.16-9.37-20.28-10.85-31.17a102.11 102.11 0 014.07-42.66c2.7-7.78 5.75-15.77 11.38-21.93q2.21-2.46 4.62-4.71a88.69 88.69 0 00-9.44-7.47c-11.38-8-23.68-14.62-37.18-18.07-9-2.54-18.21-4.13-27.2-6.64-7.31-1.77-14.45-4.82-20-9.94-6-5.36-7.76-14.22-6-21.85 2.06-7.77 7.93-13.95 14.72-18 13.62-8.1 31.31-8 45.6-1.66 22.57 10.48 41.43 31.61 53.6 53a84 84 0 016.65 16.37c1.34-.67 2.71-1.3 4.08-1.9a74.84 74.84 0 0116.79-5.86c-.11-1.43-.26-2.86-.43-4.28-1.86-14.31-5.65-29-13.16-41.38-7-10-17-17.87-26.69-24.86A143.8 143.8 0 011255 133c-13.37-11.18-10.66-27.13 3.83-35.75 9.29-5 21.26-4.64 31.3-2.3 9.54 2.44 17.13 9.08 23.62 16.2 15.65 16.62 23.74 39.23 25.17 61.78a185.14 185.14 0 01-.9 29.22c-.53 3.73-1.24 7.44-2.12 11.1 19.74 3.63 37.94 15.31 48.96 32.1z" fill="#fff"/><path d="M1271.73 295.44c-10.17 2.63-18.79 9.33-22.79 19.05a65.49 65.49 0 009 21.48 68.36 68.36 0 0031.85 21.34 45.85 45.85 0 007-3.83c16.22-10.93 21.06-34.3 8.17-49.67-7.84-10.01-21.57-11.75-33.23-8.37zm123-33.33c-9.92-5.18-22.16-1.91-32.58 11-6.07 8.39-9.63 19-7.13 29.31 2.25 13.65 14.27 21.89 27.5 22.94a26.47 26.47 0 009.91-1 80.82 80.82 0 007.16-27.78 68.26 68.26 0 00-4.87-34.47zm-167.08-90.86c-8.6-3-19.08-6-27.55-1.12-2.76 1.65-5.1 4.77-4.47 8.13 3.59 8.88 17.22 9.54 25.36 11.58a72.65 72.65 0 0124.37 10.09 106 106 0 0121.73 17.45c3.51 3.51 7 7.13 9.23 11.62a1.52 1.52 0 00.67 1.62c1.35.81 2.56-.6 3.67-1.26 1.26-.85 2.94-1.89 2.54-3.67-2.88-11-9.84-20.24-17.38-28.54-11.07-10.65-23.65-20.52-38.17-25.9zm96.93-15.25a1.54 1.54 0 000-.17c-2.82-9.63-7.31-19-14.72-26-5.2-4.71-12.6-11-20-7.61-2.49 1.13-3.39 4.11-3.11 6.67.6 3.69 3.54 6.31 5.63 9.23 6.36 8.34 12.47 16.95 17.13 26.38a102.34 102.34 0 018.76 41.64c0 1.62-.1 3.18-.27 4.8-.14 1-.62 3.66.63 4a2.19 2.19 0 00.94.39c.27.05.54.11.82.14 1.9.08 4.34.28 5.62-1.4 2.53-5.48 3.33-11.57 3.93-17.53a102.87 102.87 0 00-5.36-40.54z" fill="#fbd37c"/><path d="M1302.26 273.75c-1.43 4.25-6.32 4.77-10 3.21a1 1 0 00-1.17.13c-1.4 2.13 2.51 4.05 4.22 4.31a8.87 8.87 0 008.21-2.51 6.19 6.19 0 002.08-4.39 1.76 1.76 0 00-3.34-.75zm14.15-.55c-2.29 1.69-2.61 5.67.57 6.51a10.22 10.22 0 004.82-.2c3.28-.73 6.72-1.73 9.06-4.28a3.87 3.87 0 00-.29-5.83c-3.79-2.68-11.05 1.2-14.16 3.8zm29.23-15.39a10 10 0 01-1.66 2.1c-2 1.45-4.37.45-6.38 1.28-1.36.79-.78 2.63.26 3.41 4.12 3.19 10.51-.91 10.47-5.81a1.52 1.52 0 00-2.69-.98z"/><path d="M1352 316.61v-.05a1.68 1.68 0 00-3.1-.42 11.28 11.28 0 00-.76 2c-.14.46-.27.88-.44 1.29a11.69 11.69 0 01-6.43 6.5 14.52 14.52 0 01-10.89-.19 12.19 12.19 0 01-2.79-2.12l-.14-.13c-.15-.15-.9-.91-1.67-.73a1.12 1.12 0 00-.78.86v.15c.3 4.32 4.35 7 8.17 7.34a17.7 17.7 0 002.59.24 15.47 15.47 0 0011-4.11c3.97-3.82 5.68-7.24 5.24-10.63z" fill="#d3373b"/><path d="M1646.73 353.36c3.19 18.85 1.56 38.18-.71 57.09a.22.22 0 000 .08 256.56 256.56 0 01-11.68 54.14c-2 6-4 12.05-7 17.55-2.15 2.8-6 3.4-9.22 4.28a1.85 1.85 0 01-1.33-.15 51.06 51.06 0 01-9.52 1.69c-9.74 1-19.49 2.4-29.31 2.05-6.43-.22-12.87-.42-19.29-.82a35.83 35.83 0 01-9.5-1.5 1.58 1.58 0 01-.54-.32c-11.16-2.22-21.56-7.57-31.22-13.62-16.41-9.78-31.64-21.73-43.41-36.83a98.38 98.38 0 01-15-31.4c-1.86-7.07-2.22-14.44-2.3-21.73a76.57 76.57 0 014-25.72c2.32-7.33 5-14.64 9.86-20.72 7-10 17-18.12 28.94-21.16a102.67 102.67 0 0112.37-4.85c5.71-2.09 11.15-4.92 17.06-6.47 12.09-3.18 24.29-5.86 36.55-8.31 13.61-3.07 27.24-6.13 40.69-9.84 0 0 18.41 8.67 25.93 24 9.14 18.57 14.63 42.56 14.63 42.56z" fill="#a7191c"/><path d="M1596.85 353.66a6.37 6.37 0 003.86 11.11 6.58 6.58 0 004.65-1.62 6.37 6.37 0 00-3.86-11.15 6.6 6.6 0 00-4.65 1.66zm5.73 33.79a6.78 6.78 0 004.11 11.82 7 7 0 005-1.72 6.78 6.78 0 00-4.11-11.82 6.94 6.94 0 00-5 1.72zm1.9 33.72a6.87 6.87 0 00-2.26 4.67c-.22 3.6 2.68 7.19 6.41 7.26a7.08 7.08 0 005-1.74 6.85 6.85 0 00-4.15-11.93 7 7 0 00-5 1.74zm-32.74 6.71a6.85 6.85 0 004.15 11.93 7.09 7.09 0 005-1.73 6.9 6.9 0 002.26-4.68c.22-3.6-2.68-7.19-6.41-7.26a7.08 7.08 0 00-5 1.74zm-9.17-34.16a6.75 6.75 0 004.09 11.76 7 7 0 004.92-1.72 6.74 6.74 0 00-4.09-11.75 6.94 6.94 0 00-4.92 1.71zm-7.57-28.78a6.89 6.89 0 006.41 7.26 7.07 7.07 0 005-1.73 6.86 6.86 0 00-4.15-11.94 7.09 7.09 0 00-5 1.74 6.87 6.87 0 00-2.26 4.67z" fill="#fff"/><path d="M1587.9 487.84c3.68-16.52 4.06-33.66 3.72-50.42-.38-18.32-1.44-36.73-4.63-54.79a152.81 152.81 0 00-10.59-37.74c-1.77-4.36-3.48-8.76-5.38-13.07-.8-1.45-2.3-6-4.09-4.22a1.12 1.12 0 000 1.5c2.22 4.85 3.63 10 5.61 15a176.6 176.6 0 0111.08 38.56c4.21 21.48 5.25 43.64 5.12 65.44a187.34 187.34 0 01-1.49 22.58 135 135 0 01-3 16.47 1.84 1.84 0 003.65.69z" fill="#14386c"/><path d="M1566.74 366.21c9.6-2.8 19.27-5.41 29.28-6.13 1.28-.29 5.71.18 5.44-1.72-.19-.81-1.18-.83-1.85-1-10.89-1.63-23.88.44-34.12 4.42a2.3 2.3 0 001.25 4.43zm4.61 33.29c10.87-2.57 21.73-5.38 32.92-6.18.44 0 .94-.09 1-.62.21-1.36-2.74-1.35-3.65-1.53a62.48 62.48 0 00-18 1.15 74.1 74.1 0 00-13.46 3.22 2.07 2.07 0 001.19 3.96zm6.55 32.26a2.2 2.2 0 002.55 1.66c5.44-1.25 10.68-2.79 16.13-3.91 3.27-.95 6.57-2 9.73-3.18 1.87-2.66-8.27-.87-9.45-.9a51.45 51.45 0 00-13.8 2.52c-1.88.81-5.59 1.05-5.16 3.81z"/><path d="M1507.67 301.22c-8.57 2.56-7.61 9.67-4.09 16.22 4.67 7.88 13.7 11.49 22.06 14.13 6.88 2.4 14.2 2.67 21.41 2.64 15.14-.53 31.91-2.33 43.35-13.29 3.1-3.06 6.32-7.06 5.95-11.67-.39-2.58-.93-5.15-1.5-7.69-.32-1.45-.6-2.85-1-4.16-.24-1-.31-2.2-1.17-2.93-2.38-2.18-14.19 2.26-17.79 2.73a146 146 0 01-25.2 2.69c-8 .28-15.74.5-23.65.31-6.1-.08-12.43-.83-18.37 1.02z" fill="#fcd47d"/><path d="M1328.08 70.12c-.57 10.14 5.74 18.89 13.26 25 12.26 10.88 27.29 17.65 42 24.56 19 9.06 38.71 16.48 57 26.93 9.57 5.61 18.77 12.2 25.86 20.8a70.73 70.73 0 00-5.86 7.92c-4.68 7.21-7.62 15.36-10.06 23.55-7.9 25-8.6 53.46 4.16 77 7.38 14.22 20 25.21 33.88 32.77a94.44 94.44 0 0049.9 12.86c13.5-.24 27.12-1.67 40.11-5.46a127.63 127.63 0 0024.46-10.78 101.17 101.17 0 0021.51-16.68 60.94 60.94 0 0013.24-23.25c5-18.1 4.17-35.17-4.35-52.06-4.41-8.82-10.52-17-15.42-25.49a118.91 118.91 0 00-19.26-25.79c-8.36-8-18.24-13.32-29-17.34a91.61 91.61 0 00-10.62-3.25 206.6 206.6 0 00-1.8-20.55C1549.05 65.18 1504.87 3.1 1444.65 0c-17.27-.89-27.68 13.55-26 29.9 1.07 10.67 8.45 19.39 15.79 26.66 18.92 18.66 41.93 32.53 61.08 50.94a134.89 134.89 0 0125.49 33.68c-4.71.86-9.39 1.8-14.15 2.21a60.49 60.49 0 00-13.42 4.42 127.67 127.67 0 00-9-17.43c-25.72-41.74-74.89-88.73-127.17-86-15.33.41-28.69 9.42-29.19 25.74z" fill="#fff"/><path d="M1592.11 198.81a1.71 1.71 0 00.48 2.35c2.16 1.56 4.9 2.77 7.57 1.89 2.58-.67 5-2.85 4.91-5.65.11-1.56-1.39-5.12-3.28-3.4-.55.63-.34 1.81-.44 2.51-.06 1.67-1.61 2.66-3.12 2.9-1.41.06-2.7-.72-4-1.19a1.74 1.74 0 00-2.12.59zm-19.74 13.08a2.19 2.19 0 002.89 2.18 28.64 28.64 0 017.38-2.31c1-.18 2.1-.12 2.9-.77a1.1 1.1 0 00.34-1.05c-1.15-3-7.9-2.9-10.25-1.42-1.32.78-3.06 1.69-3.26 3.37zm-18.51 1c3.33.19 7.33-2.58 6.6-6.24-.17-.88-1-1.75-2-1.4-1.65 1.14-3 3-5.18 3.08-1.63.46-3-.3-4.44-1.06a1.73 1.73 0 00-2.18.59c-1.55 2.87 5 5.35 7.2 5.03z"/><path d="M1606.9 227.17c-2.39 12.73 2.49 27.51 14 34.26 5.07 2.87 10.63 4.74 16.45 4.37.05-.15.12-.29.16-.43 5-18.1 4.17-35.17-4.35-52.06-1.36-2.71-2.9-5.36-4.5-8a29.23 29.23 0 00-8.27 2.67c-7.39 3.59-11.92 11.39-13.49 19.19zM1546.8 143c.93-1.16.57-2.76.27-4.08a96.64 96.64 0 00-2.4-14.12 165.28 165.28 0 00-12.51-34.5 141.53 141.53 0 00-13.22-23.37c-10.12-14.28-22-28.48-38.49-35.41a35 35 0 00-9.17-2.72c-2.54-.36-5.23-.92-7.71 0-4.2 1.21-6.38 5.95-5.69 10.08.75 3.82 3.33 6.93 5.9 9.72 7.93 8 16.46 15.38 24.87 22.88a265.38 265.38 0 0123.72 24.78c8.63 10.47 15.54 22.19 22.14 34a43.54 43.54 0 012.69 6.46c.72 1.68.78 3.71 2 5.13 1.51 1.57 6.01 2.84 7.6 1.15zm-70.93 106.29c-1.7 12.51 3.14 26.11 13.62 33.51 8.62 6.11 19.34 7.82 29.7 7.14s20-6.5 25.78-15.06c4.82-6.93 5.72-15.92 4.26-24.07a40.73 40.73 0 00-18.23-24.49c-21.54-14.12-51.75-3.8-55.13 22.97zM1368.12 85.36c3.76 3.48 8.62 5.44 13.25 7.47 6.16 2.63 12.4 5.12 18.5 7.87 10.63 4.64 20.33 11 29.85 17.6a220.29 220.29 0 0131 25.09c4.53 4.47 8.88 9.12 13.17 13.81 2.37 2.11 4.4 6.72 8.14 4.71 1.46-.65 3.1-1.8 2.93-3.55.3-.58-.18-1.25-.31-1.82a61.93 61.93 0 00-8-15.21c-3.77-5.63-7.86-11.05-12-16.39a134.67 134.67 0 00-19.65-20.73 191.66 191.66 0 00-43.29-27.6c-9.35-4-19.45-7.52-29.75-7-10.11.96-10.63 9.76-3.84 15.75z" fill="#fcd47d"/><path d="M1592.09 690.07c-.16 5.35 5.77 7.74 9.86 9.46 10.36 4.1 24.61 7.41 35.63 5 11.55-2.46 14.79-9.93 7.09-19.28-4.65-5.57-10.6-9.92-16.18-14.5-1.29-3.25-8.58-1-11.44-1.07-3.76.3-7.53.61-11.3.8-2.61.35-6.43-.43-8.16 2a38.56 38.56 0 00-2.79 7c-1.17 3.62-2.46 6.85-2.71 10.59z"/><path d="M1444.78 483.23c-3.28 9.4-2.55 19.68-1.14 29.38 1.31 10 5.39 19.26 10.62 27.78a81.38 81.38 0 008.33 12.23c7.84 9.32 18.22 15.89 28.53 22.13 14.45 9.22 29.87 16.8 44.92 25 12 6.18 23.78 13.24 33.24 23 11.62 11.16 20.31 21.9 24.61 37.75 1 3.32 1.61 6.71 2.39 10.07.77 3.77 1.88 5.69 6.32 5.62 5.72.24 11.45.88 17.17.36 3.16-.38 6.43-.49 9.46-1.56 1.67-.6 2.53-2.23 3.28-3.74 5.65-10.72 6.12-22.94 6.75-34.78a90.08 90.08 0 00-.33-14.41 226 226 0 00-4-29.54c-3-13.38-6.6-26.32-12.51-38.66-4-8.58-8.17-17.17-13.74-24.87a134.22 134.22 0 00-47.86-41.57c-3.89-1.59-5.51-5.58-8.42-8.32a29.89 29.89 0 00-5.91-4.26c-10.85-7.73-22-15.07-33.3-22.12-7.78-5.13-16.05-9.38-24.29-13.72-3.46-1.52-7-5.33-11-3.5-6.54 3.94-11.52 10-16.11 16a104.72 104.72 0 00-17.01 31.73z" fill="#14386c"/><path d="M1553.84 482.75a4.13 4.13 0 00-.21 3.05 25 25 0 003.12 4.87c6.8 9 18 22 30.42 20.73a19 19 0 0014.17-11.25c2.24-4.66.44-9.67-2-13.74-2.86-4.86-8.18-7.59-13.25-9.55 2.38-1.4 4.84-3 6.11-5.57 2.06-4-1.5-8.14-5.34-9.08a25.42 25.42 0 00-7.72-.63c-4.07.17-8.18.07-12.23.59-1.91-.36-2.25 1.35-2.76 2.69-1.63 4.07-4.19 7.63-6.5 11.32a65.7 65.7 0 00-3.81 6.57z" fill="#fff"/><path d="M1458.75 360.93c-1.83 9.36-3.12 18.92-2.24 28.48 1.33 23.21 12.34 45.27 29.12 61.21 14.3 13.45 30.42 25.13 48.52 32.74 5.7 2.52 11.7 5.67 18.07 5.57 2.53-.7 3.76-3.44 5.38-5.3a85.08 85.08 0 0010.59-18.56c.54-2 2.71-5.25.54-6.82A2.53 2.53 0 001567 457c-4.16-.61-8.33-3.06-11.58-5.46a145.87 145.87 0 01-12.67-11c-9.57-9.43-18.55-19.91-23.84-32.39-7.12-15.51-4.12-32.86-5.22-49.29-.52-6.66-1.35-13.4-3.82-19.65-2.55-6-6.12-12-11.43-15.85-12.54-7-26 7.72-31.85 17.63-3.59 6.17-6.59 12.84-7.84 19.94z" fill="#a7191c"/><path d="M1533 482.82c1-2.44 2.64-4.67 3.87-7 2.76-5 5.27-10.09 7.61-15.26 1.41-2.95 3.17-5.71 4.47-8.71.64-1.36 1.21-2.77 1.81-4.16 1.53 1.29 3.06 2.58 4.64 3.8 3.25 2.4 7.42 4.85 11.58 5.46a2.53 2.53 0 011.78 1.28c2.17 1.57 0 4.84-.54 6.82a85.08 85.08 0 01-10.59 18.56c-1.62 1.86-2.85 4.6-5.38 5.3-6.37.1-12.37-3.05-18.07-5.57-.43-.15-.81-.34-1.18-.52z" fill="#fcd47d"/><path d="M1552.13 450.13c1.16-2.09-1.84-3-3-4.09a116.4 116.4 0 01-10.11-8.72c-13.78-13.28-24.35-30.54-26.59-49.78q-.86-6.69-1.42-13.41a33.57 33.57 0 01-.11-5 1.6 1.6 0 00-1.49-1.69c-2.67 0-1.65 4.52-1.89 6.27-.44 25.9 9.19 46.32 27.27 64.53a82.44 82.44 0 0011.72 10.11c1.56.85 3.99 3.84 5.62 1.78z"/><path d="M1607.85 244.61v-.05a1.71 1.71 0 00-1.45-1.32 1.73 1.73 0 00-1.75.88 10.45 10.45 0 00-.79 2c-.15.47-.28.91-.46 1.34a12.12 12.12 0 01-6.65 6.72 15 15 0 01-11.28-.19 12.85 12.85 0 01-2.9-2.2l-.14-.13c-.15-.16-.93-1-1.72-.76a1.15 1.15 0 00-.81.89v.21c.3 4.48 4.5 7.22 8.46 7.61a18.92 18.92 0 002.68.24 16 16 0 0011.42-4.25c4.1-3.94 5.87-7.53 5.39-10.99z" fill="#d3373b"/><path d="M1460.94 689.47c.93 5.09 7 6.14 11.22 6.95 10.62 1.77 24.74 2 34.66-2.49 10.42-4.66 12-12.37 2.8-19.64-5.52-4.32-12-7.23-18.21-10.42-1.87-2.81-8.3.81-11 1.3-3.49 1.05-7 2.1-10.51 3.05-2.39.85-6.15.89-7.3 3.5a36.78 36.78 0 00-1.24 7.15c-.36 3.71-.94 7.03-.42 10.6z"/><path d="M1280 523.93c-1.2 9.54 1.58 19.1 4.86 28 3.26 9.17 9 17.1 15.65 24.1a77.84 77.84 0 0010.35 9.86c9.28 7.21 20.41 11.33 31.41 15.13 15.52 5.79 31.61 9.82 47.48 14.51 12.62 3.39 25.12 7.69 36 15 13.23 8.19 23.61 16.58 30.88 30.68 1.59 2.93 2.88 6 4.3 9 1.48 3.4 2.91 5 7.1 4 5.44-.93 11-1.48 16.28-3.13 2.92-1 6-1.76 8.63-3.38 1.45-.92 1.93-2.63 2.33-4.2 3.18-11.27 1.14-22.9-.66-34.21a86.67 86.67 0 00-3.22-13.55 218.58 218.58 0 00-9.8-27.07c-5.57-12-11.55-23.52-19.63-34-5.53-7.29-11.18-14.56-18-20.71s-21.86-18.28-50.24-33.42c-.27-.14-4-1.74 1.61-3.07 10.26-2.44 24.16-3.24 33.56-4.7 13.27-2.06 17.43-3.49 19.22-4 5.79-1.66-1.07-3.91-46.12 2.66s-94.16-3.14-110.31-5.25c-6.07 8.32-10.43 26.18-11.68 37.75z" fill="#14386c"/></svg>