<svg xmlns="http://www.w3.org/2000/svg" viewBox="0 0 1976.53 1184.05"><path d="M930.72 499.8c.88.87 2.68.18 3.58 1 1.56 5.3 40.9 9 45.45 22.47 12.32 36.52-4.07 102.68 1 147.06l467.45 131.73c-6.08-12.36-12.35-24.73-20.65-35.76a196.33 196.33 0 00-24.59-27.4 28.47 28.47 0 0013.19-14.37c2.55-5.56 1.19-11.39-1.41-16.52 3.2-.41 6.4-.82 9.6-1.2a75 75 0 0013.78-2.73 2.73 2.73 0 001.94.19c4.65-1.37 10.23-2.35 13.28-6.48 4.31-8.07 7.05-17 9.77-25.7a373.39 373.39 0 0015.48-79 .45.45 0 010-.11c2.79-27.55 4.62-55.69-.54-83 0 0-8.64-34.72-22.43-61.52-5.07-9.87-13.28-17.73-20.8-23.42 3.05-2.72 6-5.56 8.79-8.53a88.63 88.63 0 0018.6-34.16c.22-.83.42-1.66.62-2.48 6.07-25.52 4.07-49.51-8.38-73.06-6.66-12.7-15.75-24.39-23.11-36.63-8-13.44-17.34-26.1-28.64-36.93-12.38-11.42-26.89-18.86-42.57-24.41a134.78 134.78 0 00-15.53-4.43 299 299 0 00-3.18-29.81C1328.18 93.82 1262.25 4.82 1174.65 2c-25.12-.81-39.86 20.46-36.89 44.18 1.84 15.47 12.81 28 23.68 38.31 28 26.59 61.84 46.12 90.17 72.35 15 14.07 28.11 30.2 38 48.25-6.81 1.37-13.6 2.86-20.5 3.6-6.74 1.32-13.12 3.95-19.38 6.79-3.68-8.81-8.77-17.15-13.64-25.09-38.55-59.92-111.31-126.86-187.22-121.39-22.27.93-41.44 14.4-41.71 38.13-.55 14.76 8.87 27.3 20 36 18.12 15.47 40.16 24.89 61.68 34.53 27.8 12.64 56.73 22.88 83.56 37.57 14.07 7.9 27.62 17.21 38.16 29.52a102.75 102.75 0 00-8.3 11.67c-6.59 10.61-10.65 22.53-14 34.5-8 27-10.17 56.63-3 83.91a197.1 197.1 0 01-48.48 49.17c-6.55 4.64-13 9.5-19.76 13.94l.09-1c.08-.89.15-1.78.21-2.68s.19-1.94.26-2.92c0-.26 0-.52.05-.78 0-.76.09-1.53.12-2.29v-.67a101 101 0 00-23.26-67.38c-16.49-24.1-43.26-40.56-72-45.34 1.18-5.35 2.11-10.76 2.78-16.19 1.46-14.1 1.28-28.35.5-42.5-2.7-32.74-15.08-65.37-38.28-89.1-9.64-10.16-20.85-19.61-34.78-22.89-14.67-3.13-32.06-3.34-45.43 4.21-20.83 12.92-24.32 36.18-4.58 52.07a207.87 207.87 0 0019.77 14.15c14.33 9.9 29.09 21.12 39.48 35.41 11.27 17.77 17.18 39 20.27 59.76q.43 3.11.74 6.21a108.7 108.7 0 00-24.23 9c-2 .91-3.95 1.86-5.88 2.87a122.16 122.16 0 00-10.12-23.6c-18.28-30.73-46.27-60.93-79.36-75.52-20.95-8.79-46.67-8.49-66.24 3.67-9.75 6-18.11 15.16-20.9 26.51-2.29 11.14.56 24 9.37 31.6 8.28 7.28 18.74 11.52 29.4 13.9 13.14 3.39 26.6 5.44 39.73 8.88 19.71 4.65 37.77 13.93 54.52 25.25a129.38 129.38 0 0113.93 10.59q-3.44 3.33-6.59 7c-8 9.12-12.21 20.81-15.93 32.19-5.88 20.17-7.25 37.47-1.12 61.47 9.09 35.64 28.85 48.51 28.85 48.51m256.18-7.61c3.63-9.6 8.92-17.9 14.14-27 6.37-11.34 12.82-22.63 19.15-34a163.52 163.52 0 0048.54 28.84c-1.12.52-2.24 1-3.35 1.58a66 66 0 00-20.94 10.14c-11.21 5-21 17.33-26.29 26.68-5 9.13-9.2 18.9-10.77 29.25-2.4 13.67-4 27.6-2.46 41.46 1.94 25.46 11.9 49.8 27.35 70-7 5.65-12.73 12.94-18 20.16q-1 1.35-2 2.73c-.13-1.83-.26-3.66-.44-5.49-1.7-22.18-6.42-44.05-12.93-65.29-9.76-31.78-24.09-66.09-11.96-99.12z" fill="#e5ab5e" opacity=".3"/><path d="M1045.87 870c1.6.16 3.21.31 4.81.45 35.5 3 71-.83 106.26-4.61 18.88-1.48 37.52-5 56.19-7.9 33.22-4.6 61.07-3.18 91.35 12.64 20.51 10.29 28.87 21.81 30.44 45 .45 8.25.86 16.59-1.05 24.7-.9 5.25-3.16 10.16-4.26 15.32-1 9.28 32.8 11.63 39.46 12.43 3.5.2 7.41.78 10.56-1.1 2.62-1.73 4.11-4.68 5.74-7.27a170.48 170.48 0 008.42-16.49 214 214 0 0018.66-70.87c.79-12.15 1.26-24.38.22-36.52-2.22-18.11-6.68-36.19-14.75-52.61a133.66 133.66 0 00-29.12-36.3c-33.81-33-80.42-46.19-125-57.63-11.43-2.71-22.92-5.38-34.48-7.48-6.29-.76-12.48 1.3-18.51 2.83-37 9.7-74.5 19.08-112.87 21.11-23.11 1.74-40.32-7.61-63.47-6.47-9.3 1-29.08-1.67-38.25 0l72.86 171.12" fill="#14386c"/><path d="M1268.17 310.16c-1.33-14.26-13.9-21.82-26.23-13.27-5.23 4.65-8.51 11.4-10 18.21-3.57-4.82-11.78-3.57-12.73 2.69-1.78 8.39 2.36 16.74 1.42 25.22-.17 2.49-.35 5-1.54 7.23-.77 2-2.23 4.48-.68 6.48 1.39 1.67 3.74 1.77 5.67 2.48 5.15 1.46 10.08 3.57 15.21 5.1 4.47 1.18 9.79 2 12.17-3 10.3-14.57 19.01-32.88 16.71-51.14z" fill="#fff"/><path d="M972.38 696.6c.33 9.62-.25 14.69 11 15.16a296 296 0 0041.46 4.39c35.4.62 70.94-1.31 105.81-7.73 22.93-4.53 46.24-9.24 67.23-19.93 7.89-4.12 16.11-8.32 22.31-14.82a8.65 8.65 0 002.24-8.4c-.38-4.09-.58-8.2-1-12.3-1.7-22.18-6.42-44.05-12.93-65.29-9.75-31.71-24.08-66-12-99 3.63-9.6 8.92-17.9 14.14-27 7.75-13.79 15.62-27.51 23.24-41.35 5.9-11.5 28.86-58.37 19.5-68.15-6.78-3.06-14.48-4.11-21.49-6.76-3.93-1.2-7.8-2.67-11.82-3.5-2.27-.39-5.09-1-6.87.87a6.58 6.58 0 00-1.57 3 170 170 0 01-7.94 16.82 195.55 195.55 0 01-55 59.44c-13.1 9.28-26 19.48-41 25.32-16.19 6.63-31.89 14.48-48.55 19.89-15 5.09-30.51 8.62-45.91 12.33-6.53 1.71-28.88 10-34.56 31.52-13.01 49.37-6.49 140.97-6.29 185.49z" fill="#a7191c"/><path d="M1221.49 653c-.47-6.15-1.22-12.28-2.13-18.37a371.39 371.39 0 01-45.66 17.18c-16.68 4.66-33.64 8.23-50.5 12.19-22.23 4.14-44.57 8-67.14 9.66a508.68 508.68 0 01-54.53.42c-10.07-.69-20.51-1.78-30.91-3.41 1 8.72 1.43 17.47 1.76 26 .33 9.62-.25 14.69 11 15.16a296 296 0 0041.46 4.39c35.4.62 70.94-1.31 105.81-7.73 22.93-4.53 46.24-9.24 67.23-19.93 7.89-4.12 16.11-8.32 22.31-14.83a8.63 8.63 0 002.24-8.39c-.35-4.16-.55-8.27-.94-12.34zm32-300.84c-6.78-3.06-14.48-4.11-21.49-6.76-3.93-1.2-7.8-2.67-11.82-3.5-2.27-.39-5.09-1-6.87.87a6.58 6.58 0 00-1.57 3 169 169 0 01-7.72 16.37c4.19 2.42 8.45 4.69 12.84 6.71a206.13 206.13 0 0033.8 13.38c4.57-13.23 7.14-25.59 2.83-30.1z" fill="#fcd47d"/><path d="M1104.49 676.57c-2.18-24.42-7.39-48.61-12.74-72.42-4.13-18.65-8-37.95-14.56-55.87-4.43-12.89-10.72-25-16.68-37.25a170.8 170.8 0 00-12.08-20.75c-1.62-2.6-5.62-5.87-2.25-8.71a3.45 3.45 0 014.78.61c7.77 10.81 14.14 22.57 20.08 34.47 6.29 12.37 12.18 25 16.26 38.25 7.29 23.51 11.49 47.9 16.1 72 2.76 16.21 5.31 32.48 6.88 48.85.42 3.75-5.21 4.67-5.79.82z" fill="#14386c"/><path d="M1100.78 527.52c3.66-2.14.79-7.77-3.08-6.14-15.43 7-31.36 12.88-48 16.12-4.92 1-11.11 1.91-16.33 3.17-1.55.52-3.5.7-4.49 2.13-1.25 2.54 2.15 3.4 4 3.51 23.96 1.54 47.02-7.96 67.9-18.79zm11.72 39.53c3.13-1.82.65-6.69-2.63-5.25a202.89 202.89 0 01-39.61 14.68c-9.19 2.82-18.65 4.59-27.93 7.06-6.1 1.73-4.61 6 1.2 5.66 12.9.11 25.29-4.08 37.35-8.23a186.29 186.29 0 0031.62-13.92zm10.8 35.18a3.39 3.39 0 00-4.32-.84c-13.11 6.74-27.7 10.74-42.09 14.06-7.31 1.65-14.61 3.36-22 4.75-1.68.53-4.11.52-5.09 2.19-1.11 8.76 45.65-3.07 50.91-5.37 7.57-2.73 15.24-5.63 22-10.12a3.34 3.34 0 00.59-4.67z"/><path d="M1110.3 522.69a10.06 10.06 0 10-10.06 10.06 10.15 10.15 0 0010.06-10.06zm-68.56 20.12a10.06 10.06 0 10-10.06 10.06 10.15 10.15 0 0010.06-10.06zm10.06 44.09a10.06 10.06 0 10-10.06 10.1 10.15 10.15 0 0010.06-10.1zm5.12 27.82a10.06 10.06 0 1010.08 10.06 10.16 10.16 0 00-10.08-10.06zm63.44-53.19a10.06 10.06 0 10-10.06 10.06 10.15 10.15 0 0010.06-10.06zm4.37 29.34a10.06 10.06 0 1010.06 10.06 10.15 10.15 0 00-10.06-10.06zm-18.21-232.67c17 20.45 25.59 47.66 22.8 74-2 28.87-12 56.07-36.36 73.2a132.75 132.75 0 01-44.11 19.65c-15.36 3.33-31.3 3.82-47 3.49-29.12-.74-58.25-12.72-77.27-35.18-9.28-13.14-14.18-29.21-16.63-45a148.49 148.49 0 014.73-62.12c3.72-11.38 7.93-23.07 15.93-32.19q3.15-3.63 6.59-7a129.38 129.38 0 00-13.93-10.59c-16.75-11.32-34.81-20.6-54.52-25.25-13.13-3.44-26.59-5.49-39.73-8.88-10.66-2.37-21.12-6.62-29.4-13.9-8.81-7.64-11.66-20.46-9.37-31.6 2.79-11.35 11.15-20.49 20.9-26.51 19.57-12.16 45.29-12.46 66.24-3.67 33.09 14.59 61.08 44.79 79.36 75.52a122.16 122.16 0 0110.12 23.6c1.93-1 3.89-2 5.88-2.87A108.7 108.7 0 01995 314q-.3-3.11-.74-6.21c-3.09-20.73-9-42-20.27-59.76-10.39-14.29-25.15-25.51-39.48-35.41a207.87 207.87 0 01-19.77-14.15c-19.74-15.89-16.25-39.15 4.58-52.07 13.37-7.55 30.76-7.34 45.43-4.21 13.93 3.28 25.14 12.73 34.78 22.89 23.2 23.73 35.58 56.36 38.28 89.1.78 14.15 1 28.4-.5 42.5-.67 5.43-1.6 10.84-2.78 16.19 28.73 4.77 55.47 21.23 71.99 45.33z" fill="#fff"/><path d="M943.47 434.12c-14.7 4.1-27 14.08-32.59 28.32 2.87 11 7.19 21.72 13.72 31 12.3 14.52 28.85 24.59 46.88 30.15a67.56 67.56 0 0010.11-5.77c23.26-16.33 29.66-50.43 10.49-72.41-11.75-14.41-31.75-16.52-48.61-11.29zm177.83-51.83c-14.55-7.25-32.25-2.16-47 16.82-8.59 12.37-13.47 27.88-9.55 42.8 3.65 19.78 21.34 31.42 40.6 32.58a38.6 38.6 0 0014.38-1.68c5.67-12.44 8.65-26.29 9.64-40.57a99.11 99.11 0 00-8.07-49.95zM876 254.84c-12.58-4.16-27.89-8.2-40.07-.87-4 2.49-7.27 7.08-6.27 12 5.47 12.8 25.29 13.38 37.17 16.13a105.29 105.29 0 0135.7 14 154.41 154.41 0 0132.07 24.75c5.19 5 10.35 10.19 13.73 16.65a2.21 2.21 0 001 2.33c2 1.14 3.71-.95 5.3-1.94 1.81-1.26 4.22-2.83 3.59-5.39-4.48-15.92-14.86-29.15-26-41-16.43-15.24-34.98-29.23-56.22-36.66zM1016.44 230l-.08-.24c-4.37-13.92-11.15-27.39-22.12-37.32-7.68-6.71-18.6-15.61-29.26-10.52-3.6 1.72-4.83 6.08-4.35 9.79 1 5.34 5.33 9.07 8.44 13.25 9.48 12 18.59 24.3 25.63 37.88 8.91 18.72 13.39 39.57 13.87 60.27 0 2.36-.06 4.63-.26 7-.17 1.44-.8 5.33 1 5.75a3.29 3.29 0 001.37.54c.4.06.8.14 1.21.18 2.75.06 6.3.29 8.12-2.2 3.53-8 4.53-16.9 5.24-25.58a149.78 149.78 0 00-8.81-58.8z" fill="#fbd37c"/><path d="M987.24 401.75c-2 6.23-9 7.11-14.41 4.95a1.39 1.39 0 00-1.69.22c-2 3.13 3.75 5.82 6.25 6.14a12.89 12.89 0 0011.86-3.86 9 9 0 002.9-6.45 2.57 2.57 0 00-4.91-1zm20.56-1.18c-3.28 2.52-3.64 8.31 1 9.45a15 15 0 007-.43c4.74-1.15 9.71-2.69 13-6.48a5.6 5.6 0 00-.57-8.45c-5.54-3.8-15.98 2.04-20.43 5.91zm42.06-23.17c-.79 1-1.3 2.31-2.36 3.1-2.86 2.16-6.33.77-9.24 2-2 1.19-1.06 3.83.48 4.94 6.07 4.52 15.25-1.61 15-8.73a2.2 2.2 0 00-3.88-1.31z"/><path d="M1060.68 462.67v-.06a2.41 2.41 0 00-2.07-1.82 2.45 2.45 0 00-2.44 1.29 15.41 15.41 0 00-1.05 2.89c-.19.66-.37 1.28-.61 1.89a17 17 0 01-9.15 9.61 21.16 21.16 0 01-15.84 0 17.55 17.55 0 01-4.12-3l-.21-.18c-.21-.22-1.33-1.3-2.43-1a1.58 1.58 0 00-1.12 1.27v.22c.55 6.27 6.51 10 12.08 10.44a26.9 26.9 0 003.77.28 22.48 22.48 0 0015.92-6.28c5.66-5.62 8.04-10.7 7.27-15.55z" fill="#d3373b"/><path d="M1129.17 923.52c8.16-.4 12.18 8.47 5.26 11.61-119.79 54.26-532.15 232.42-571.1 242.53-36.29 9.42-166.11 6.93-163.5 2.09 7.7-14.22 278.93-176.22 298.37-189.75 6-4.18-2.37-20.74-8.52-32-3.44-6.32 1.42-13 9.69-13.44z" fill="#1c3253"/><path d="M1976.42 832.32c-3.3-25.53-56.25-49.82-82-60.19-8.36-3.36-13.85-5.26-13.85-5.26q-11.62-7.46-23.53-14.17c-71-40.12-148.94-60.62-223.5-59.58-82.89 1.14-1538.73 144.35-1538.73 144.35-10.4 1-1.54 21.54 10.58 42.74a126.69 126.69 0 0027 33 111.27 111.27 0 0011.53 8.7C296.74 1028.9 759 1052 808.08 1051.4c343.38-3.93 669.85-31 945.79-84 83.42-16 171.19-67.92 207.13-105.79 10.72-11.32 16.42-21.51 15.42-29.29z" fill="#1c3253"/><path d="M361.37 808.2l-61.87-18.44c-38.41-11.44-74.35-36.23-103.66-71.49l-91.58-110.16c-3.67-4.41-8.59-6.66-13.39-6.1L65.2 605c-5.54.64-8.57 8-6 14.55l81.7 211.2z" fill="#f15238"/><path d="M1960.82 849.6c-36.37 36.64-129.76 85.17-215.21 96.71-91.35 12.35-730.77 62.32-953.72 79.58a566 566 0 01-153.3-9.22l-482.5-95a103.6 103.6 0 01-45.7-22.12c-10.51-8.66-21.75-19-29.26-31.53-12.26-20.51-19.29-40.8-8.76-41.79 0 0 1473.2-138.56 1557.09-139.67 75.45-1 154.34 18.83 226.17 57.64q12 6.51 23.8 13.71s5.56 1.84 14 5.09c26 10 79.63 33.54 83 58.24 1.01 7.56-4.77 17.43-15.61 28.36z" fill="#fff"/><path d="M1893.45 763.05l-21.55 15.65-6 4.34-30.07 21.83a16.45 16.45 0 01-8.17 3 18.43 18.43 0 01-4.26-.05l-7.57-1-68-8.54c-7.23-.9-13.39-6.33-14.77-13l-2.49-12a5.19 5.19 0 014.87-6.3L1791 762l3.68-.34 4.91-1.57 28.57-9.14 6.31-2 18.23-5.84 3 1.19q12 6.5 23.81 13.71s5.49 1.78 13.94 5.04z" fill="#a3c8ef"/><path fill="#fff" d="M1792.24 749.85l37.98 71.46 9.41-3.25-39.55-70.17-7.84 1.96zm32.13-7.74l52.4 46.46 4.54-5.69-52.6-43.64-4.34 2.87z"/><path d="M673.36 900.78L651 902.61c-4.1.33-7.75-2-8.16-5.3l-4.32-34.52c-.41-3.26 2.58-6.18 6.67-6.51l22.39-1.83c4.09-.34 7.74 2 8.15 5.3l4.27 34.51c.44 3.26-2.54 6.18-6.64 6.52zm67.78-5.55l-22.38 1.83c-4.1.34-7.75-2-8.16-5.3l-4.32-34.51c-.41-3.27 2.58-6.18 6.67-6.52l22.39-1.83c4.09-.34 7.74 2 8.15 5.3l4.33 34.51c.41 3.29-2.58 6.18-6.68 6.52zm67.79-5.55l-22.39 1.83c-4.09.34-7.74-2-8.15-5.3l-4.33-34.51c-.41-3.26 2.58-6.18 6.68-6.52l22.38-1.83c4.1-.33 7.75 2 8.16 5.3l4.32 34.52c.4 3.26-2.6 6.18-6.67 6.51zm67.78-5.55L854.32 886c-4.09.33-7.74-2-8.15-5.3l-4.32-34.52c-.41-3.26 2.57-6.18 6.67-6.51l22.38-1.84c4.1-.33 7.75 2 8.16 5.31l4.32 34.51c.41 3.23-2.58 6.15-6.67 6.48zm67.78-5.54l-22.38 1.83c-4.1.33-7.75-2-8.16-5.3l-4.32-34.52c-.41-3.26 2.58-6.18 6.67-6.51l22.39-1.83c4.09-.34 7.74 2 8.15 5.3l4.33 34.51c.41 3.27-2.58 6.18-6.68 6.52zm67.79-5.59l-22.39 1.83c-4.09.34-7.75-2-8.15-5.3l-4.33-34.51c-.41-3.27 2.58-6.18 6.68-6.52l22.38-1.83c4.1-.33 7.75 2 8.16 5.3l4.32 34.52c.41 3.3-2.58 6.21-6.67 6.51zm67.78-5.51l-22.39 1.83c-4.09.34-7.74-2-8.15-5.3l-4.33-34.51c-.4-3.26 2.58-6.18 6.68-6.52l22.38-1.83c4.1-.33 7.75 2 8.16 5.3l4.32 34.52c.41 3.26-2.58 6.18-6.67 6.51zm67.78-5.55l-22.38 1.84c-4.1.33-7.75-2-8.16-5.3L1113 824c-.41-3.26 2.58-6.18 6.67-6.51l22.39-1.83c4.09-.34 7.74 2 8.15 5.3l4.33 34.51c.39 3.22-2.6 6.14-6.7 6.47z" fill="#a3c8ef"/><path d="M1960.82 849.6c-36.37 36.64-125.19 86.84-209.6 102.36-279.24 51.32-609.6 77.49-957.07 81.28-51 .56-542.61-23-683.76-133.65l183.23-32.75s87.26 87.62 459 100.91 1105.14-47.68 1208.14-118.13z" fill="#ddebf8"/><path d="M324.41 866.84l-273.6 77.72c-13.06 3.13-49.49 2.92-49.49 2.92-1.32.07-1.85-2.26-.65-2.86l153-77.47a10.09 10.09 0 012.58-.88c16.51-3.27 178.96-34.35 168.16.57z" fill="#f15238"/><path d="M1122 912.87c8.16-.39 12.18 8.32 5.26 11.4-119.78 53.29-532.15 228.26-571.1 238.19-36.29 9.25-166.11 6.8-163.49 2 7.69-14 278.92-173.06 298.36-186.35 6-4.11-2.37-20.36-8.52-31.44-3.44-6.2 1.42-12.79 9.7-13.19z" fill="#a3c8ef"/><path d="M1490.09 508c5.16 27.3 3.33 55.44.54 83a.45.45 0 000 .11 373.39 373.39 0 01-15.48 79c-2.72 8.73-5.46 17.63-9.77 25.7-3 4.13-8.63 5.11-13.28 6.48a2.73 2.73 0 01-1.94-.19 75 75 0 01-13.78 2.73c-14.14 1.67-28.27 4-42.54 3.78-9.35-.14-18.72-.26-28.06-.66-4.68-.23-9.4-.45-13.86-1.92a2.39 2.39 0 01-.79-.44c-16.28-2.93-31.54-10.41-45.75-18.94-24-13.8-46.48-30.75-64-52.41-10.33-13.42-17.64-29.08-22.62-45.22-2.89-10.23-3.63-20.93-3.93-31.52a111.12 111.12 0 015-37.49c3.18-10.72 6.88-21.41 13.77-30.39 9.92-14.67 24.17-26.8 41.46-31.55a149.3 149.3 0 0117.85-7.38c8.24-3.21 16.07-7.46 24.62-9.88 17.49-4.95 35.15-9.19 52.89-13.09 19.7-4.83 39.42-9.66 58.87-15.42 0 0 27 12.08 38.34 34.14 13.82 26.8 22.46 61.56 22.46 61.56z" fill="#a7191c"/><path d="M1417.6 509.76a9.31 9.31 0 00-2.94 6.39c-.21 4.88 3.81 9.66 8.86 9.66a9.6 9.6 0 006.72-2.48 9.31 9.31 0 002.94-6.39c.21-4.88-3.81-9.65-8.86-9.65a9.59 9.59 0 00-6.72 2.47zm9.26 49a9.94 9.94 0 00-3.13 6.79c-.22 5.2 4 10.29 9.43 10.29a10.19 10.19 0 007.15-2.65 9.92 9.92 0 003.13-6.79c.22-5.19-4-10.28-9.43-10.28a10.18 10.18 0 00-7.15 2.6zm3.7 48.95a10 10 0 00-3.16 6.86c-.22 5.24 4.09 10.37 9.52 10.37a10.32 10.32 0 007.22-2.66 10 10 0 003.15-6.86c.23-5.24-4.08-10.37-9.51-10.37a10.3 10.3 0 00-7.22 2.62zm-47.41 10.67a10 10 0 00-3.15 6.85c-.22 5.24 4.09 10.37 9.52 10.37a10.23 10.23 0 007.21-2.66 10 10 0 003.16-6.85c.22-5.24-4.09-10.38-9.52-10.38a10.28 10.28 0 00-7.22 2.63zm-14.26-49.4a9.84 9.84 0 00-3.11 6.75c-.22 5.17 4 10.22 9.37 10.22a10.09 10.09 0 007.11-2.62 9.84 9.84 0 003.11-6.75c.22-5.17-4-10.22-9.37-10.22a10.11 10.11 0 00-7.11 2.58zm-11.81-41.61c-.22 5.24 4.09 10.37 9.52 10.37a10.32 10.32 0 007.22-2.66 10 10 0 003.15-6.86c.22-5.24-4.09-10.37-9.52-10.37a10.28 10.28 0 00-7.21 2.66 10 10 0 00-3.16 6.82z" fill="#fff"/><path d="M1408.29 705c4.89-24.11 5-49 4-73.38-1.07-26.62-3.11-53.34-8.25-79.5a222.33 222.33 0 00-16.43-54.56c-2.69-6.29-5.3-12.64-8.18-18.85-1.2-2.08-3.51-8.6-6.06-6a1.63 1.63 0 00.09 2.18c3.36 7 5.54 14.48 8.56 21.62a255.4 255.4 0 0117.16 55.74c6.72 31.1 8.84 63.27 9.25 95a269.08 269.08 0 01-1.54 32.86 195.1 195.1 0 01-3.9 24c-.51 3.32 4.55 4.46 5.3.89z" fill="#14386c"/><path d="M1374.2 528.85c13.87-4.34 27.85-8.4 42.38-9.73 1.84-.45 8.29.11 7.85-2.64-.29-1.18-1.73-1.18-2.7-1.39-15.89-2.06-34.71 1.31-49.47 7.38-3.83 1.53-2.04 7.3 1.94 6.38zm7.61 48.24c15.73-4 31.43-8.41 47.67-9.88.64-.07 1.37-.16 1.52-.93.27-2-4-1.89-5.35-2.12a90.38 90.38 0 00-26.12 2.16 108.2 108.2 0 00-19.47 5 3 3 0 001.75 5.77zm10.41 46.72a3.17 3.17 0 003.75 2.33c7.86-2 15.45-4.34 23.33-6.12 4.73-1.47 9.49-3.07 14-4.9 2.65-3.92-12-1-13.75-1-6.79.61-13.56 1.61-20 4-2.65 1.24-8.03 1.61-7.33 5.69z"/><path d="M1286.55 436c-12.4 4-10.8 14.27-5.5 23.69 7 11.33 20.22 16.33 32.45 19.92 10.06 3.31 20.7 3.5 31.19 3.26 22-1.18 46.31-4.27 62.63-20.51 4.43-4.53 9-10.44 8.33-17.13-.63-3.74-1.49-7.46-2.39-11.14-.51-2.09-1-4.11-1.53-6-.37-1.49-.5-3.19-1.78-4.23-3.51-3.1-20.56 3.68-25.78 4.46a211.46 211.46 0 01-36.55 4.6c-11.62.63-22.86 1.16-34.37 1.11-8.9.04-18.12-.87-26.7 1.97z" fill="#fcd47d"/><path d="M1019.16 105.09c-.55 14.76 8.87 27.3 20 36 18.12 15.47 40.16 24.89 61.68 34.53 27.8 12.64 56.73 22.88 83.56 37.57 14.07 7.89 27.62 17.21 38.16 29.52a102.75 102.75 0 00-8.3 11.67c-6.59 10.61-10.65 22.53-14 34.5-10.79 36.54-11 77.94 8.16 111.77 11.12 20.46 29.71 36.09 50.15 46.69a137.19 137.19 0 0072.88 17.32c19.61-.72 39.37-3.18 58.14-9 12.19-4.39 24.22-9.5 35.26-16.34a147.49 147.49 0 0030.8-24.84 88.63 88.63 0 0018.6-34.16c6.81-26.45 5.09-51.23-7.76-75.54-6.66-12.7-15.75-24.39-23.11-36.63-8-13.44-17.34-26.1-28.64-36.93-12.38-11.42-26.89-18.86-42.57-24.41a134.78 134.78 0 00-15.53-4.43 299 299 0 00-3.18-29.81C1340.18 91.82 1274.25 2.82 1186.65 0c-25.12-.81-39.86 20.46-36.89 44.18 1.84 15.47 12.81 28 23.68 38.31 28 26.59 61.84 46.12 90.17 72.35 15 14.07 28.11 30.2 38 48.25-6.81 1.37-13.6 2.86-20.5 3.6-6.74 1.32-13.12 3.95-19.38 6.79-3.68-8.81-8.77-17.15-13.64-25.09-38.55-59.92-111.31-126.86-187.22-121.39-22.27.89-41.44 14.36-41.71 38.09z" fill="#fff"/><path d="M1406.44 284.85a2.49 2.49 0 00.77 3.4c3.18 2.2 7.2 3.89 11 2.54 3.73-1.05 7.13-4.28 7-8.36.1-2.26-2.17-7.39-4.86-4.84-.79.94-.45 2.64-.59 3.66 0 2.43-2.25 3.91-4.45 4.3-2 .12-3.94-1-5.78-1.62a2.51 2.51 0 00-3.09.92zm-28.33 19.55a3.18 3.18 0 004.27 3.08 41.24 41.24 0 0110.66-3.54c1.4-.29 3-.25 4.19-1.21a1.62 1.62 0 00.47-1.54c-1.75-4.29-11.57-4-14.94-1.78-1.89 1.17-4.4 2.59-4.65 4.99zm-26.86 2c4.84.17 10.57-4 9.41-9.26-.27-1.27-1.54-2.51-2.91-2-2.37 1.7-4.25 4.37-7.45 4.62-2.36.71-4.44-.35-6.49-1.42a2.5 2.5 0 00-3.14.91c-2.21 4.21 7.39 7.64 10.58 7.12z"/><path d="M1428.72 325.66c-3.11 18.56 4.38 39.91 21.28 49.4 7.45 4 15.58 6.59 24 5.9.07-.21.16-.42.22-.63 6.81-26.45 5.09-51.23-7.76-75.54-2-3.91-4.37-7.71-6.76-11.47a42 42 0 00-12 4.11c-10.49 5.39-16.91 16.85-18.98 28.23zM1339.05 205c1.32-1.7.75-4 .29-5.94a141.39 141.39 0 00-3.89-20.46 240.51 240.51 0 00-19.13-49.79 206.74 206.74 0 00-19.85-33.6c-15.1-20.47-32.72-40.79-56.92-50.39a50.91 50.91 0 00-13.41-3.71c-3.69-.46-7.63-1.19-11.2.21-6.08 1.88-9.11 8.82-8 14.8 1.19 5.54 5 10 8.84 14 11.74 11.43 24.35 21.9 36.77 32.57 12.52 11.32 24.23 22.58 35.16 35.36 12.83 15 23.2 31.82 33.11 48.82a63.52 63.52 0 014.1 9.32c1.08 2.41 1.23 5.37 3 7.39 2.3 2.18 8.86 3.9 11.13 1.42zm-100.16 156.42c-2.12 18.23 5.29 37.86 20.73 48.33 12.7 8.64 28.32 10.83 43.36 9.55 15.1-1.11 28.89-10 37.06-22.6 6.81-10.2 7.87-23.3 5.51-35.09a59.06 59.06 0 00-27.18-35.09c-31.67-19.93-75.3-4.11-79.48 34.9zm-161.11-235.28c5.56 5 12.67 7.67 19.46 10.49 9 3.66 18.15 7.09 27.11 10.93 15.57 6.45 29.84 15.48 43.85 24.76 16.47 10.4 31.4 22.47 45.69 35.6 6.69 6.38 13.15 13 19.51 19.72 3.51 3 6.59 9.64 12 6.61 2.1-1 4.47-2.69 4.17-5.24.42-.85-.3-1.81-.51-2.64a90 90 0 00-12-21.87c-5.64-8.09-11.74-15.85-18-23.49a194.66 194.66 0 00-29-29.6 278.57 278.57 0 00-63.68-38.91c-13.7-5.57-28.48-10.4-43.43-9.29-14.69 1.6-15.21 14.41-5.17 22.93z" fill="#fcd47d"/><path d="M1420 998.83c-.09 7.79 8.6 11.09 14.58 13.48 15.18 5.68 36 10.09 51.92 6.29 16.73-3.9 21.23-14.85 9.78-28.22-6.91-8-15.67-14.13-23.92-20.63-2-4.69-12.49-1.18-16.65-1.24-5.46.55-10.92 1.09-16.4 1.48-3.78.58-9.35-.45-11.8 3.08-1.81 3.18-2.73 6.77-3.88 10.21-1.63 5.38-3.4 10.12-3.63 15.55z"/><path d="M1200.16 702.27c-4.51 13.73-3.16 28.73-.85 42.73 2.19 14.47 8.38 27.84 16.21 40.09 3.76 6.11 7.61 12.2 12.45 17.54 11.64 13.32 26.91 22.6 42.07 31.38 21.26 13 43.88 23.59 66 35.07 17.68 8.63 34.91 18.58 48.94 32.57 17.19 15.9 30.12 31.27 36.81 54.19 1.5 4.8 2.52 9.71 3.75 14.58 1.21 5.44 2.88 8.2 9.34 8 8.31.18 16.66 1 25 .05 4.59-.64 9.33-.89 13.71-2.53 2.41-.93 3.62-3.32 4.66-5.53 7.92-15.73 8.26-33.51 8.85-50.73a129.71 129.71 0 00-.88-20.94 326.14 326.14 0 00-6.7-42.82c-4.77-19.36-10.31-38.07-19.24-55.84-6.08-12.36-12.35-24.73-20.65-35.76a195.2 195.2 0 00-70.71-59.11c-5.7-2.2-8.17-8-12.47-11.86a43.32 43.32 0 00-8.71-6q-24-16.4-49-31.23c-11.45-7.24-23.59-13.2-35.68-19.27-5.08-2.12-10.37-7.55-16.09-4.78-9.4 5.9-16.47 14.84-23 23.68a152.27 152.27 0 00-23.81 46.52z" fill="#14386c"/><path d="M1358.65 698.58a6 6 0 00-.22 4.43c1.08 2.6 3 4.72 4.67 7 10.14 12.88 26.83 31.53 44.79 29.29 9.08-1.52 16.82-8.33 20.28-16.74 3.13-6.83.37-14.06-3.34-19.91-4.3-7-12.09-10.81-19.52-13.51 3.41-2.1 7-4.56 8.72-8.27 2.89-5.82-2.41-11.79-8-13-3.65-1.06-7.53-.81-11.23-.71-5.92.35-11.9.33-17.77 1.19-2.78-.46-3.22 2-3.94 4-2.25 6-5.88 11.21-9.13 16.64a96.94 96.94 0 00-5.31 9.59z" fill="#fff"/><path d="M1217.09 524.14c-2.4 13.67-4 27.6-2.46 41.46 2.57 33.7 19.18 65.45 44 88.16 21.15 19.15 44.89 35.68 71.42 46.24 8.35 3.51 17.16 7.92 26.41 7.6 3.66-1.08 5.38-5.1 7.67-7.84a123.83 123.83 0 0014.87-27.27c.73-2.9 3.79-7.72.59-9.93a3.66 3.66 0 00-2.63-1.81c-6-.78-12.18-4.23-17-7.62a212.49 212.49 0 01-18.72-15.65c-14.17-13.44-27.51-28.44-35.55-46.42-10.77-22.35-6.88-47.64-8.94-71.5-.94-9.66-2.34-19.43-6.09-28.45-3.87-8.62-9.22-17.2-17-22.72-18.42-9.83-37.58 11.94-45.81 26.5-4.99 9.11-9.19 18.9-10.76 29.25z" fill="#a7191c"/><path d="M1328.33 699.26c1.45-3.58 3.7-6.88 5.43-10.26 3.87-7.31 7.37-14.81 10.64-22.39 2-4.32 4.45-8.38 6.25-12.78.9-2 1.68-4.06 2.53-6.09 2.25 1.82 4.51 3.66 6.84 5.39 4.79 3.39 10.92 6.84 17 7.62a3.66 3.66 0 012.63 1.81c3.2 2.21.14 7-.59 9.93a123.83 123.83 0 01-14.89 27.27c-2.29 2.74-4 6.76-7.67 7.84-9.25.32-18.06-4.09-26.41-7.6-.62-.23-1.18-.5-1.76-.74z" fill="#fcd47d"/><path d="M1355.27 651.21c1.62-3.07-2.75-4.28-4.52-5.86a165.53 165.53 0 01-14.94-12.35c-20.41-18.92-36.23-43.71-40-71.62q-1.44-9.71-2.44-19.46a47.8 47.8 0 01-.29-7.27 2.34 2.34 0 00-2.22-2.42c-3.89.06-2.27 6.62-2.57 9.17.07 37.65 14.63 67.08 41.41 93a120.89 120.89 0 0017.3 14.37c2.34 1.23 6 5.48 8.27 2.44z"/><path d="M1430.58 351v-.07a2.52 2.52 0 00-4.67-.56 16.13 16.13 0 00-1.09 3c-.2.69-.38 1.33-.63 2a17.55 17.55 0 01-9.48 9.95 21.88 21.88 0 01-16.4 0 18.72 18.72 0 01-4.27-3.12l-.21-.19c-.22-.23-1.38-1.35-2.52-1.05a1.63 1.63 0 00-1.15 1.31v.23c.57 6.49 6.75 10.36 12.51 10.82a27.37 27.37 0 003.91.28 23.29 23.29 0 0016.48-6.5c5.85-5.84 8.32-11.1 7.52-16.1z" fill="#d3373b"/><path d="M1229.34 1001.59c1.49 7.37 10.37 8.73 16.5 9.78 15.48 2.29 36 2.25 50.3-4.57 15-7.06 17-18.31 3.54-28.62-8.15-6.13-17.67-10.18-26.77-14.65-2.79-4-12 1.41-16 2.2-5 1.62-10.1 3.24-15.19 4.72-3.46 1.3-8.92 1.46-10.52 5.29-1.06 3.36-1.22 6.94-1.6 10.42-.38 5.41-1.11 10.24-.26 15.43z"/><path d="M961.79 766c-1.47 13.89 2.82 27.72 7.85 40.52 5 13.23 13.54 24.61 23.41 34.59 4.79 5 9.65 10 15.3 14 13.69 10.23 30 15.9 46.08 21.13 22.7 8 46.2 13.4 69.4 19.78 18.44 4.58 36.73 10.48 52.8 20.86 19.45 11.54 34.77 23.44 45.72 43.73 2.39 4.23 4.35 8.66 6.5 13 2.24 4.9 4.37 7.17 10.43 5.66 7.89-1.51 15.93-2.47 23.58-5 4.21-1.53 8.63-2.73 12.44-5.16 2.09-1.37 2.74-3.87 3.27-6.17 4.31-16.46 1-33.31-1.9-49.7a125 125 0 00-5.06-19.59 315.08 315.08 0 00-15-39.08c-8.43-17.32-17.44-33.87-29.47-48.85-8.23-10.44-16.65-20.85-26.73-29.59-10.14-8.95-32.27-26-73.94-47.19-.4-.21-5.85-2.42 2.26-4.52 14.85-3.83 35-5.37 48.64-7.75 19.23-3.36 25.24-5.56 27.82-6.35 8.38-2.57-1.65-5.65-67 5.14s-136.94-2-160.47-4.58c-8.58 12.17-14.42 38.26-15.93 55.12z" fill="#14386c"/></svg>