<?xml version="1.0" encoding="utf-8"?>
<!-- Generator: Adobe Illustrator 16.0.0, SVG Export Plug-In . SVG Version: 6.00 Build 0)  -->
<!DOCTYPE svg PUBLIC "-//W3C//DTD SVG 1.1//EN" "http://www.w3.org/Graphics/SVG/1.1/DTD/svg11.dtd">
<svg version="1.1" id="圖層_1" xmlns="http://www.w3.org/2000/svg" xmlns:xlink="http://www.w3.org/1999/xlink" x="0px" y="0px"
	 width="1920px" height="746px" viewBox="0 0 1920 746" enable-background="new 0 0 1920 746" xml:space="preserve">
<rect fill="#F8E8C6" width="1920" height="746"/>
<g>
	<g>
		<defs>
			<rect id="SVGID_1_" x="-131" y="108.488" width="2103" height="671.247"/>
		</defs>
		<clipPath id="SVGID_2_">
			<use xlink:href="#SVGID_1_"  overflow="visible"/>
		</clipPath>
		<path clip-path="url(#SVGID_2_)" fill="#F2DCAD" d="M329.071,340.537c-2.295-13.568-3.584-27.394-6.75-40.85
			c-4.769-21.286-13.066-42.183-27.045-59.486c-18.891-23.854-46.128-41.858-76.602-48.724c-26.528-5.73-54.501-3.672-80.581,3.224
			c-6.625,1.938-13.116,4.333-19.385,7.166c-5.504,2.375-10.667,5.636-16.483,7.267c-6.969-13.441-22.776-21.159-38.125-20.53
			c-8.675,0.037-16.728,3.584-25.194,4.778c-5.696-25.154-28.444-42.689-51.51-53.41c-22.083-9.549-47.637-8.272-70.61-2.471
			c-17.235,3.988-32.07,12.198-45.185,22.749v427.567h713.517c0.39-1.714,12.768-124.834-109.234-150.97
			C454.046,319.146,329.071,340.537,329.071,340.537"/>
	</g>
	<g>
		<defs>
			<rect id="SVGID_3_" x="-131" y="108.488" width="2103" height="671.247"/>
		</defs>
		<clipPath id="SVGID_4_">
			<use xlink:href="#SVGID_3_"  overflow="visible"/>
		</clipPath>
		<path clip-path="url(#SVGID_4_)" fill="#375787" d="M-126.088,236.462l0.461,6.926v327.096h602.681
			c1.224-4.327,1.348-8.944,0.866-13.377c-2.298-19.409-19.118-37.927-39.752-41.747c-0.013-0.019-0.022-0.033-0.034-0.048
			c-0.002-0.004-0.002-0.006-0.004-0.008c-0.231-0.483-0.273-1.008-0.347-1.53c-0.168-3.22,0.354-6.435,0.408-9.654
			c0.063-4.521-0.339-9.148-1.709-13.39c-2.821-8.146-7.321-16.048-14.062-21.937c-9.16-8.072-21.221-13.473-33.76-14.681
			c-0.447-6.174,0.353-12.448-1.159-18.547c-2.479-11.1-7.921-21.553-15.094-30.646c-9.562-12.089-22.885-21.732-38.143-26.589
			c-15.092-4.552-31.85-5.324-47.003-0.606c-0.252-2.841-0.368-5.688-0.748-8.517c-0.968-7.563-3.636-14.896-7.433-21.615
			c-9.041-15.934-24.536-27.695-43.056-32.64c-23.619-6.487-45.954-4.403-66.933,7.96c-0.72-8.792-6.169-17.468-14.635-21.55
			c-5.116-2.214-11.156-2.294-16.543-0.943c-0.652-6.742-75.854-145.006-263.54-64.28
			C-125.782,236.246-125.935,236.353-126.088,236.462"/>
	</g>
	<g>
		<defs>
			<rect id="SVGID_5_" x="-131" y="108.488" width="2103" height="671.247"/>
		</defs>
		<clipPath id="SVGID_6_">
			<use xlink:href="#SVGID_5_"  overflow="visible"/>
		</clipPath>
		<path clip-path="url(#SVGID_6_)" fill="#F2DCAD" d="M1971.39,130.282c-21.498-15.935-48.671-22.202-75.131-21.773
			c-39.24,0.472-78.916,11.856-110.88,34.962c-11.312,8.398-21.646,18.551-28.817,30.756c-3.453,6.058-6.06,12.552-8.461,19.083
			c-3.343,8.948-5.679,18.24-6.541,27.76c-7.131-1.908-15.125-1.795-21.897,1.334c-11.204,5.763-18.416,18.016-19.37,30.435
			c-27.768-17.46-57.329-20.404-88.59-11.242c-24.516,6.982-45.023,23.595-56.99,46.101c-5.023,9.489-8.557,19.846-9.839,30.528
			c-0.504,3.997-0.655,8.018-0.989,12.028c-20.059-6.662-42.235-5.573-62.213,0.856c-20.197,6.858-37.83,20.48-50.488,37.557
			c-9.489,12.846-16.693,27.608-19.976,43.285c-2.002,8.612-0.942,17.474-1.535,26.191c-16.595,1.708-32.561,9.338-44.684,20.738
			c-8.919,8.317-14.876,19.479-18.61,30.982c-1.814,5.987-2.345,12.525-2.264,18.912c0.071,4.548,0.762,9.085,0.541,13.637
			c-0.096,0.734-0.152,1.478-0.461,2.162c-0.003,0.004-0.003,0.006-0.006,0.009c-0.016,0.022-0.028,0.042-0.042,0.064
			c-27.313,5.398-49.575,31.551-52.619,58.968c-0.634,6.258-0.472,12.78,1.147,18.892h678.715v-461.99l0.609-9.781
			C1971.797,130.583,1971.595,130.433,1971.39,130.282"/>
	</g>
	<g>
		<defs>
			<rect id="SVGID_7_" x="-131" y="108.488" width="2103" height="671.247"/>
		</defs>
		<clipPath id="SVGID_8_">
			<use xlink:href="#SVGID_7_"  overflow="visible"/>
		</clipPath>
		<path clip-path="url(#SVGID_8_)" fill="#375787" d="M1958.25,236.716c-6.172-0.768-12.417-0.969-18.604-0.238
			c-12.994,1.313-24.971,6.89-35.715,14.155c-9.709,6.129-17.566,14.546-25.022,23.17c-19.394-16.98-46.993-22.373-72.117-19.55
			c-18.842,1.857-37.557,6.557-54.594,14.911c-18.511,8.58-34.152,22.592-45.868,39.204c-6.422,8.957-10.777,19.104-15.564,28.965
			c-7.283-2.043-15.156-3.567-22.571-1.277c-8.808,2.752-15.824,9.562-20.318,17.466c-3.873,6.929-5.229,14.946-5.467,22.798
			c-14.857-11.836-35.818-13.904-53.581-8.172c-11.738,3.618-21.684,11.984-28.5,22.076c-6.166,9.994-9.294,21.87-9.238,33.596
			c-13.634-13.803-31.898-25.061-51.623-26.325c-31.384-1.967-65.541,6.719-86.882,31.045
			c-15.374,17.421-30.509,42.99-25.626,67.036c-5.573-1.927-11.494-2.85-17.326-3.597c-29.324-4.207-51.711,12.508-63.402,38.515
			c-4.832-0.388-9.618-1.258-14.468-1.456c-7.341-0.447-14.724,0.261-21.881,1.933c-28.757,7.047-50.249,25.298-61.7,52.609
			c-2.643,6.104-4.922,12.446-6.558,18.936H1972V239.213C1967.512,237.968,1962.89,237.162,1958.25,236.716"/>
	</g>
	<g>
		<defs>
			<rect id="SVGID_9_" x="-131" y="108.488" width="2103" height="671.247"/>
		</defs>
		<clipPath id="SVGID_10_">
			<use xlink:href="#SVGID_9_"  overflow="visible"/>
		</clipPath>
		<path clip-path="url(#SVGID_10_)" fill="#375787" d="M1357.518,542.777c-9.034,0-17.574,2.17-25.165,6.016
			c-14.979-22.665-43.496-37.979-76.219-37.979c-30.543,0-57.422,13.341-73.047,33.549c-19.447-25.184-50.846-41.54-86.275-41.54
			c-43.203,0-80.418,24.318-97.268,59.313c-9.697-8.321-22.296-13.36-36.077-13.36c-13.423,0-25.729,4.771-35.322,12.707
			c-15.811-19.163-41.967-31.69-71.563-31.69c-14.222,0-27.646,2.896-39.513,8.025c-19.476-24.869-50.676-40.988-85.847-40.988
			c-43.206,0-80.419,24.322-97.268,59.313c-9.698-8.322-22.296-13.36-36.078-13.36c-2.615,0-5.183,0.191-7.7,0.544
			c-14.217-24.703-44.037-41.716-78.525-41.716c-48.271,0-87.401,33.317-87.401,74.418c0,41.099,39.13,74.416,87.401,74.416
			c17.693,0,34.154-4.481,47.916-12.178c9.955,9.524,23.444,15.387,38.311,15.387c13.783,0,26.381-5.04,36.08-13.363
			c16.85,34.993,54.062,59.313,97.267,59.313c31.027,0,58.961-12.547,78.485-32.574c13.546,7.342,29.625,11.598,46.874,11.598
			c29.595,0,55.75-12.524,71.56-31.686c9.592,7.937,21.901,12.706,35.325,12.706c13.782,0,26.381-5.039,36.078-13.362
			c16.851,34.994,54.063,59.313,97.267,59.313c45.778,0,84.828-27.305,100.057-65.676c15.577,12.243,36.394,19.728,59.267,19.728
			c22.718,0,43.412-7.384,58.954-19.48c10.428,11.952,25.57,19.48,42.43,19.48c31.446,0,56.938-26.161,56.938-58.436
			C1414.455,568.939,1388.964,542.777,1357.518,542.777"/>
	</g>
	<g>
		<defs>
			<rect id="SVGID_11_" x="-131" y="108.488" width="2103" height="671.247"/>
		</defs>
		<clipPath id="SVGID_12_">
			<use xlink:href="#SVGID_11_"  overflow="visible"/>
		</clipPath>
		<rect x="-131" y="561.427" clip-path="url(#SVGID_12_)" fill="#375787" width="2103" height="218.309"/>
	</g>
</g>
<g>
	<g>
		<defs>
			<rect id="SVGID_13_" x="981.333" y="568.177" width="471.706" height="151.579"/>
		</defs>
		<clipPath id="SVGID_14_">
			<use xlink:href="#SVGID_13_"  overflow="visible"/>
		</clipPath>
		<g clip-path="url(#SVGID_14_)">
			<path fill="#FFFFFF" d="M1066.598,632.451c-0.57,0.06-1.064-0.096-1.48-0.469c-0.416-0.372-0.624-0.845-0.624-1.415v-19.125
				c0-0.595,0.208-1.116,0.624-1.564c0.416-0.447,0.91-0.702,1.48-0.762l8.028-0.845c0.546-0.058,1.011,0.084,1.392,0.425
				c0.38,0.341,0.571,0.784,0.571,1.332s-0.191,1.03-0.571,1.45c-0.381,0.422-0.846,0.66-1.392,0.719l-5.53,0.581
				c-0.19,0.021-0.286,0.125-0.286,0.314v17.021c0,0.57-0.201,1.087-0.605,1.545c-0.405,0.459-0.904,0.719-1.499,0.781
				L1066.598,632.451z"/>
			<path fill="#FFFFFF" d="M1086.492,609.309c0.214-0.568,0.582-1.013,1.104-1.328c0.334-0.201,0.667-0.32,1-0.355
				c0.214-0.021,0.428-0.009,0.643,0.04l0.106,0.023c0.547,0.109,0.939,0.413,1.179,0.911c0.143,0.246,0.214,0.514,0.214,0.799
				c0,0.237-0.048,0.48-0.144,0.729c-0.785,1.938-1.642,3.801-2.568,5.587c-0.096,0.177-0.144,0.349-0.144,0.514v22.802
				c0,0.569-0.202,1.079-0.605,1.525c-0.405,0.446-0.894,0.7-1.464,0.762c-0.569,0.06-1.064-0.093-1.479-0.451
				c-0.417-0.361-0.625-0.827-0.625-1.397v-16.342c0-0.048-0.019-0.075-0.053-0.084c-0.036-0.008-0.066,0.014-0.09,0.063
				c-0.285,0.409-0.584,0.821-0.894,1.234c-0.261,0.337-0.583,0.524-0.963,0.564c-0.07,0.008-0.154,0.017-0.25,0.025
				c-0.476-0.021-0.819-0.246-1.034-0.676c-0.143-0.246-0.286-0.493-0.429-0.739c-0.237-0.428-0.355-0.891-0.355-1.391
				c0-0.095,0.012-0.203,0.035-0.325c0.048-0.623,0.273-1.192,0.678-1.712C1082.828,616.925,1084.875,613.332,1086.492,609.309z
				 M1109.149,615.633c0.022-0.168-0.049-0.245-0.215-0.228l-4.389,0.462c-0.167,0.018-0.25,0.108-0.25,0.274v18.447
				c0,1.094-0.119,1.963-0.357,2.606c-0.236,0.644-0.678,1.178-1.318,1.602c-0.785,0.511-1.88,0.888-3.283,1.13
				c-0.048,0.005-0.105,0.013-0.179,0.02c-0.523,0.056-0.986-0.063-1.392-0.354c-0.5-0.328-0.845-0.78-1.034-1.354
				c-0.048-0.139-0.097-0.276-0.144-0.414c-0.07-0.158-0.106-0.322-0.106-0.488c0-0.286,0.084-0.556,0.25-0.811
				c0.261-0.434,0.63-0.673,1.105-0.724l1.498-0.158c0.238-0.023,0.404-0.083,0.5-0.178c0.095-0.093,0.144-0.259,0.144-0.496
				v-18.376c0-0.166-0.084-0.241-0.25-0.224l-3.711,0.39c-0.19,0.021-0.32,0.105-0.394,0.257c-0.642,1.375-1.332,2.661-2.068,3.855
				c-0.31,0.51-0.75,0.817-1.32,0.924c-0.07,0.032-0.144,0.052-0.214,0.06c-0.477,0.051-0.903-0.07-1.284-0.364
				c-0.097-0.063-0.179-0.111-0.25-0.152c-0.429-0.312-0.679-0.749-0.749-1.313c-0.024-0.092-0.035-0.188-0.035-0.282
				c0-0.451,0.13-0.882,0.392-1.29c1.76-2.706,3.211-6.011,4.354-9.913c0.166-0.588,0.499-1.063,0.999-1.425
				c0.355-0.252,0.736-0.399,1.142-0.441c0.143-0.015,0.297-0.007,0.464,0.023l0.144-0.015c0.57,0.081,1,0.347,1.283,0.791
				c0.19,0.313,0.285,0.638,0.285,0.971c0,0.189-0.021,0.382-0.069,0.577c-0.311,1.031-0.666,2.128-1.07,3.288
				c-0.024,0.051-0.019,0.104,0.018,0.159c0.037,0.055,0.089,0.079,0.16,0.071l12.239-1.286c0.047-0.005,0.094-0.01,0.143-0.015
				c0.215-0.07,0.429-0.116,0.643-0.139c0.189-0.021,0.393-0.03,0.605-0.029l0.894,0.085c0.429,0.05,0.772,0.24,1.034,0.569
				c0.189,0.241,0.284,0.528,0.284,0.86c0,0.097,0,0.191,0,0.286c-0.309,1.865-0.618,3.599-0.927,5.2
				c-0.12,0.512-0.393,0.933-0.821,1.263c-0.333,0.273-0.702,0.433-1.104,0.476c-0.096,0.01-0.214,0.01-0.356,0.001
				c-0.501-0.02-0.903-0.228-1.214-0.622c-0.236-0.309-0.356-0.663-0.356-1.068c0-0.095,0.012-0.19,0.036-0.289
				C1108.995,617.089,1109.078,616.354,1109.149,615.633z M1093.521,624.769c0.144-0.586,0.464-1.06,0.965-1.422
				c0.355-0.273,0.725-0.433,1.104-0.473c0.166-0.017,0.321-0.021,0.464-0.013l0.106,0.023c0.571,0.061,1.011,0.311,1.321,0.753
				c0.213,0.313,0.319,0.645,0.319,1.001c0,0.166-0.035,0.35-0.106,0.547c-0.881,3.258-1.985,6.167-3.317,8.733
				c-0.285,0.507-0.714,0.849-1.285,1.026c-0.143,0.039-0.285,0.065-0.428,0.08c-0.405,0.044-0.785-0.035-1.144-0.235
				c-0.047-0.02-0.105-0.036-0.178-0.054c-0.452-0.237-0.738-0.623-0.855-1.157c-0.049-0.161-0.07-0.326-0.07-0.493
				c0-0.356,0.105-0.712,0.32-1.067C1091.854,629.998,1092.783,627.582,1093.521,624.769z M1106.438,624.16
				c-0.119-0.226-0.18-0.457-0.18-0.695c0-0.261,0.061-0.528,0.18-0.803c0.215-0.522,0.582-0.896,1.105-1.115
				c0.261-0.122,0.511-0.197,0.749-0.223c0.309-0.032,0.606-0.003,0.893,0.085c0.548,0.181,0.938,0.521,1.178,1.019
				c1.165,2.542,2.057,5.112,2.677,7.711c0.047,0.187,0.071,0.362,0.071,0.528c0,0.381-0.107,0.771-0.321,1.175
				c-0.311,0.558-0.749,0.959-1.32,1.209l-0.179,0.091c-0.19,0.092-0.381,0.147-0.57,0.167c-0.31,0.032-0.606-0.03-0.893-0.191
				c-0.476-0.235-0.772-0.608-0.892-1.119C1108.388,629.438,1107.556,626.826,1106.438,624.16z"/>
			<path fill="#FFFFFF" d="M1148.883,624.552c0.547-0.058,1.011,0.084,1.393,0.425c0.38,0.342,0.57,0.784,0.57,1.331
				c0,0.548-0.19,1.031-0.57,1.452c-0.382,0.421-0.846,0.659-1.393,0.717l-12.381,1.302c-0.189,0.021-0.286,0.113-0.286,0.279v3.926
				c0,0.595-0.202,1.114-0.604,1.563c-0.405,0.447-0.905,0.702-1.499,0.764l-0.215,0.023c-0.571,0.06-1.064-0.091-1.48-0.451
				s-0.624-0.839-0.624-1.434v-3.925c0-0.166-0.084-0.241-0.25-0.225l-11.917,1.253c-0.548,0.059-1.013-0.083-1.392-0.425
				c-0.381-0.341-0.571-0.784-0.571-1.331s0.189-1.031,0.571-1.452c0.379-0.42,0.844-0.659,1.392-0.717l11.917-1.253
				c0.166-0.018,0.25-0.109,0.25-0.276v-1.748c0-0.166-0.084-0.24-0.25-0.224l-0.178,0.019c-0.596,0.063-1.095-0.093-1.499-0.467
				c-0.405-0.373-0.607-0.846-0.607-1.416v-8.563c0-0.048-0.017-0.075-0.053-0.084s-0.078,0.003-0.126,0.031
				c-0.333,0.367-0.736,0.575-1.213,0.627l-0.035,0.003c-0.5,0.028-0.938-0.103-1.32-0.396c-0.666-0.549-1.249-0.998-1.748-1.351
				c-0.143-0.08-0.273-0.043-0.393,0.111l-0.464,0.728c-0.334,0.512-0.797,0.856-1.393,1.039c-0.166,0.041-0.32,0.067-0.464,0.084
				c-0.404,0.042-0.784-0.024-1.142-0.202c-0.689-0.307-1.416-0.6-2.177-0.876c-0.429-0.146-0.701-0.438-0.821-0.878
				c-0.021-0.141-0.034-0.27-0.034-0.389c0-0.285,0.094-0.568,0.285-0.852c0.332-0.486,0.761-0.829,1.284-1.025
				c0.215-0.095,0.438-0.153,0.678-0.18c0.285-0.03,0.571-0.001,0.856,0.089c1.688,0.513,2.947,0.998,3.781,1.458
				c0.144,0.057,0.166,0.16,0.071,0.313l0.035-0.004c2.427-2.157,4.448-4.726,6.066-7.702c0.285-0.552,0.714-0.99,1.283-1.313
				c0.31-0.175,0.644-0.28,1-0.317c0.215-0.023,0.439-0.012,0.678,0.036l0.179,0.052c0.522,0.088,0.892,0.37,1.106,0.847
				c0.094,0.229,0.143,0.449,0.143,0.664c0,0.285-0.071,0.566-0.215,0.843c-0.119,0.228-0.237,0.441-0.356,0.645
				c-0.022,0.051-0.022,0.099,0,0.143c0.023,0.046,0.071,0.064,0.145,0.058l2.997-0.315c0.189-0.02,0.319-0.116,0.392-0.29
				c0.262-0.551,0.5-1.087,0.714-1.61c0.237-0.595,0.618-1.074,1.143-1.438c0.403-0.281,0.819-0.444,1.248-0.489
				c0.144-0.015,0.285-0.018,0.43-0.009l0.605,0.043c0.499,0.02,0.855,0.244,1.07,0.673c0.095,0.203,0.143,0.401,0.143,0.591
				c0,0.264-0.083,0.521-0.25,0.776c-0.214,0.354-0.416,0.698-0.605,1.026c-0.048,0.053-0.055,0.102-0.019,0.145
				c0.035,0.044,0.077,0.063,0.125,0.06l4.781-0.503c0.476-0.051,0.88,0.073,1.213,0.372s0.5,0.686,0.5,1.16
				c0,0.478-0.167,0.893-0.5,1.248s-0.737,0.56-1.213,0.608l-5.495,0.578c-0.189,0.02-0.286,0.125-0.286,0.314v1.143
				c0,0.189,0.097,0.274,0.286,0.256l4.426-0.466c0.428-0.046,0.783,0.061,1.069,0.315c0.285,0.256,0.428,0.592,0.428,1.007
				c0,0.417-0.143,0.782-0.428,1.099c-0.286,0.315-0.643,0.496-1.069,0.541l-4.426,0.466c-0.189,0.02-0.286,0.124-0.286,0.313v1.106
				c0,0.19,0.097,0.275,0.286,0.256l4.46-0.469c0.404-0.043,0.755,0.063,1.052,0.315c0.299,0.256,0.447,0.597,0.447,1.023
				c0,0.429-0.148,0.808-0.447,1.136c-0.297,0.329-0.646,0.516-1.052,0.559l-4.46,0.469c-0.189,0.02-0.286,0.112-0.286,0.278v1.143
				c0,0.19,0.097,0.275,0.286,0.256l6.353-0.668c0.475-0.05,0.886,0.074,1.229,0.37c0.346,0.298,0.519,0.684,0.519,1.159
				c0,0.475-0.173,0.897-0.519,1.268c-0.345,0.37-0.756,0.578-1.229,0.628l-12.024,1.265c-0.189,0.021-0.286,0.113-0.286,0.279
				v1.748c0,0.167,0.097,0.24,0.286,0.221L1148.883,624.552z M1124.12,616.415c0.334-0.394,0.726-0.612,1.178-0.66
				c0.023-0.002,0.047-0.005,0.071-0.008c0.476-0.025,0.867,0.136,1.178,0.484c0.333,0.393,0.499,0.855,0.499,1.392
				s-0.166,1.035-0.499,1.498c-1.381,1.81-2.748,3.548-4.104,5.212c-0.382,0.469-0.856,0.733-1.428,0.793
				c-0.57,0.06-1.047-0.104-1.428-0.493l-0.143-0.163c-0.381-0.34-0.571-0.771-0.571-1.296c0-0.618,0.227-1.165,0.678-1.642
				C1120.979,620.052,1122.503,618.345,1124.12,616.415z M1125.904,604.81c0.476,0.212,0.771,0.585,0.892,1.119
				c0.023,0.116,0.036,0.246,0.036,0.39c0,0.381-0.131,0.763-0.393,1.146c-0.311,0.461-0.738,0.769-1.284,0.919
				c-0.145,0.04-0.274,0.065-0.394,0.078c-0.404,0.042-0.784-0.037-1.143-0.237c-0.688-0.331-1.427-0.657-2.211-0.979
				c-0.429-0.169-0.702-0.474-0.821-0.913c-0.048-0.113-0.071-0.242-0.071-0.385c0-0.31,0.106-0.605,0.321-0.892
				c0.333-0.485,0.761-0.829,1.284-1.025c0.214-0.095,0.428-0.152,0.643-0.175c0.31-0.032,0.606,0.007,0.893,0.12
				C1124.441,604.226,1125.19,604.504,1125.904,604.81z M1137.501,610.727c0.166-0.018,0.25-0.12,0.25-0.312v-1.142
				c0-0.19-0.084-0.277-0.25-0.261l-3.747,0.395c-0.166,0.018-0.25,0.122-0.25,0.313v1.143c0,0.189,0.084,0.275,0.25,0.259
				L1137.501,610.727z M1137.501,615.365c0.166-0.019,0.25-0.121,0.25-0.313v-1.105c0-0.19-0.084-0.276-0.25-0.26l-3.747,0.395
				c-0.166,0.018-0.25,0.121-0.25,0.312v1.106c0,0.19,0.084,0.276,0.25,0.259L1137.501,615.365z M1133.754,618.792
				c-0.166,0.018-0.25,0.109-0.25,0.275v1.143c0,0.19,0.084,0.276,0.25,0.259l3.747-0.394c0.166-0.019,0.25-0.121,0.25-0.313v-1.143
				c0-0.166-0.084-0.24-0.25-0.224L1133.754,618.792z"/>
			<path fill="#FFFFFF" d="M1186.761,606.655c0.522-0.056,0.969,0.083,1.338,0.412c0.368,0.33,0.554,0.757,0.554,1.278
				c0,0.523-0.186,0.989-0.554,1.396c-0.369,0.408-0.814,0.64-1.338,0.693l-17.447,1.834c-0.19,0.021-0.285,0.113-0.285,0.279v4.068
				c0,6.09-0.856,10.947-2.568,14.577c-0.238,0.501-0.632,0.814-1.179,0.943c-0.07,0.007-0.144,0.016-0.214,0.022
				c-0.452,0.048-0.856-0.064-1.213-0.337c-0.5-0.375-0.939-0.675-1.32-0.896c-0.048-0.02-0.096-0.015-0.143,0.016
				c-0.049,0.027-0.071,0.078-0.071,0.148v0.144c0,0.571-0.202,1.079-0.606,1.526c-0.404,0.446-0.893,0.7-1.463,0.76
				c-0.571,0.062-1.059-0.091-1.463-0.451c-0.405-0.362-0.607-0.828-0.607-1.399v-15.913c0-0.048-0.018-0.075-0.053-0.084
				s-0.064,0.002-0.09,0.027c-0.261,0.433-0.523,0.84-0.784,1.225c-0.238,0.334-0.535,0.521-0.892,0.558
				c-0.072,0.009-0.145,0.003-0.215-0.014c-0.478-0.021-0.811-0.236-0.999-0.645c-0.119-0.272-0.237-0.533-0.357-0.782
				c-0.213-0.453-0.32-0.932-0.32-1.432c0-0.117,0.013-0.237,0.035-0.358c0.048-0.648,0.263-1.253,0.644-1.816
				c2.115-3.146,3.877-6.806,5.28-10.974c0.19-0.591,0.548-1.044,1.07-1.361c0.309-0.197,0.63-0.315,0.963-0.352
				c0.214-0.022,0.416-0.008,0.607,0.044c0.568,0.105,0.985,0.396,1.248,0.867c0.143,0.271,0.214,0.561,0.214,0.87
				c0,0.214-0.048,0.445-0.143,0.692c-0.571,1.677-1.227,3.364-1.964,5.06c-0.069,0.174-0.105,0.355-0.105,0.546v22.586
				c0,0.022,0.018,0.04,0.054,0.049c0.035,0.008,0.064-0.002,0.089-0.028c1.07-1.848,1.778-3.901,2.123-6.163
				c0.345-2.26,0.519-4.698,0.519-7.314v-5.924c0-0.57,0.201-1.085,0.605-1.544s0.904-0.721,1.498-0.782L1186.761,606.655z
				 M1165.459,604.951c-0.356-0.331-0.535-0.752-0.535-1.264c0-0.513,0.179-0.966,0.535-1.358c0.356-0.396,0.797-0.619,1.32-0.675
				l2.997-0.314c0.189-0.021,0.284-0.125,0.284-0.314v-0.394c0-0.547,0.196-1.038,0.589-1.472c0.395-0.435,0.868-0.68,1.429-0.738
				c0.559-0.059,1.034,0.088,1.428,0.438c0.393,0.352,0.589,0.802,0.589,1.349v0.393c0,0.19,0.082,0.276,0.249,0.26l4.89-0.515
				c0.166-0.018,0.248-0.12,0.248-0.312v-0.357c0-0.569,0.202-1.072,0.607-1.509c0.403-0.434,0.886-0.681,1.445-0.74
				c0.558-0.059,1.04,0.089,1.443,0.438c0.404,0.35,0.606,0.812,0.606,1.382v0.357c0,0.189,0.084,0.275,0.25,0.259l2.783-0.293
				c0.499-0.052,0.934,0.081,1.303,0.397c0.367,0.317,0.552,0.733,0.552,1.245c0,0.513-0.185,0.97-0.552,1.377
				c-0.369,0.408-0.804,0.64-1.303,0.69l-2.783,0.293c-0.166,0.018-0.25,0.121-0.25,0.312v0.107c0,0.57-0.202,1.079-0.606,1.526
				c-0.403,0.445-0.887,0.698-1.443,0.758c-0.561,0.06-1.042-0.094-1.445-0.454c-0.405-0.361-0.607-0.829-0.607-1.399v-0.106
				c0-0.19-0.082-0.276-0.248-0.259l-4.89,0.514c-0.167,0.018-0.249,0.121-0.249,0.312v0.144c0,0.57-0.196,1.073-0.589,1.507
				c-0.394,0.435-0.869,0.681-1.428,0.739c-0.561,0.059-1.034-0.087-1.429-0.438c-0.393-0.352-0.589-0.813-0.589-1.384v-0.143
				c0-0.19-0.095-0.275-0.284-0.256l-2.997,0.314C1166.256,605.421,1165.815,605.282,1165.459,604.951z M1185.726,612.365
				c0.571-0.061,1.064,0.091,1.481,0.451c0.415,0.36,0.624,0.839,0.624,1.434v12.737c0,0.855-0.089,1.524-0.268,2.009
				c-0.179,0.481-0.507,0.892-0.981,1.227c-0.595,0.371-1.427,0.65-2.498,0.834c-0.022,0.002-0.06,0.006-0.106,0.012
				c-0.429,0.046-0.82-0.068-1.178-0.341c-0.356-0.271-0.618-0.647-0.784-1.13c-0.097-0.371-0.029-0.734,0.196-1.092
				c0.225-0.357,0.54-0.557,0.944-0.599c0.237-0.05,0.429-0.081,0.571-0.098c0.166-0.018,0.272-0.058,0.32-0.122
				c0.047-0.063,0.071-0.18,0.071-0.347V625.7c0-0.189-0.084-0.276-0.25-0.259l-2.961,0.312c-0.167,0.019-0.25,0.122-0.25,0.313
				v3.497c0,0.476-0.167,0.896-0.5,1.265s-0.737,0.578-1.213,0.628c-0.477,0.05-0.88-0.074-1.213-0.372
				c-0.333-0.299-0.499-0.686-0.499-1.161v-3.497c0-0.188-0.097-0.274-0.286-0.255l-2.747,0.289c-0.167,0.018-0.25,0.122-0.25,0.313
				v3.461c0,0.5-0.179,0.945-0.535,1.341c-0.357,0.395-0.785,0.618-1.284,0.67c-0.5,0.053-0.928-0.081-1.284-0.399
				c-0.356-0.319-0.536-0.729-0.536-1.229v-14.521c0-0.595,0.209-1.114,0.624-1.563c0.417-0.448,0.91-0.702,1.481-0.763
				L1185.726,612.365z M1177.234,616.646c0-0.166-0.097-0.239-0.286-0.22l-2.747,0.289c-0.167,0.019-0.25,0.11-0.25,0.276v1.57
				c0,0.166,0.083,0.239,0.25,0.223l2.747-0.289c0.189-0.021,0.286-0.113,0.286-0.279V616.646z M1173.951,623.38
				c0,0.19,0.083,0.277,0.25,0.26l2.747-0.289c0.189-0.021,0.286-0.126,0.286-0.315v-1.463c0-0.189-0.097-0.275-0.286-0.255
				l-2.747,0.289c-0.167,0.018-0.25,0.122-0.25,0.312V623.38z M1184.12,615.924c0-0.166-0.084-0.241-0.25-0.224l-2.961,0.312
				c-0.167,0.019-0.25,0.11-0.25,0.276v1.57c0,0.166,0.083,0.239,0.25,0.223l2.961-0.312c0.166-0.019,0.25-0.109,0.25-0.275V615.924
				z M1180.659,622.675c0,0.19,0.083,0.277,0.25,0.26l2.961-0.312c0.166-0.018,0.25-0.122,0.25-0.313v-1.463
				c0-0.188-0.084-0.275-0.25-0.259l-2.961,0.313c-0.167,0.018-0.25,0.122-0.25,0.312V622.675z"/>
			<path fill="#FFFFFF" d="M1202.588,602.243c1.355-0.143,2.235-0.198,2.642-0.17c0.355,0.011,0.652,0.151,0.892,0.424
				c0.238,0.272,0.345,0.601,0.321,0.983c-0.452,5.945-1.416,10.899-2.892,14.86c-0.069,0.174-0.035,0.313,0.107,0.417
				c0.904,0.644,1.677,1.251,2.319,1.826c0.476,0.401,0.714,0.936,0.714,1.602c0,0.596-0.18,1.138-0.535,1.626l-0.107,0.154
				c-0.31,0.438-0.727,0.695-1.249,0.772c-0.023,0.003-0.047,0.005-0.071,0.008c-0.499,0.053-0.928-0.092-1.284-0.437
				c-0.476-0.449-1.034-0.948-1.678-1.5c-0.143-0.104-0.262-0.08-0.355,0.072c-1.332,2.21-2.926,4.138-4.781,5.784
				c-0.333,0.271-0.689,0.429-1.07,0.469c-0.143,0.016-0.285,0.019-0.428,0.01c-0.571-0.061-1.022-0.31-1.354-0.75
				c-0.024-0.045-0.05-0.078-0.072-0.1c-0.263-0.306-0.394-0.66-0.394-1.064c0-0.118,0.013-0.228,0.036-0.324
				c0.071-0.53,0.321-0.985,0.749-1.363c1.547-1.327,2.891-3.016,4.032-5.063c0.094-0.152,0.071-0.28-0.072-0.386
				c-0.381-0.269-0.927-0.628-1.641-1.076c-0.071-0.04-0.119-0.011-0.144,0.087c-0.07,0.245-0.227,0.435-0.464,0.565
				c-0.237,0.133-0.476,0.151-0.714,0.058l-0.855-0.339c-0.523-0.229-0.904-0.595-1.143-1.093c-0.143-0.318-0.214-0.655-0.214-1.013
				c0-0.214,0.022-0.432,0.071-0.649c0.618-2.515,1.296-5.631,2.034-9.349c0.047-0.171-0.024-0.246-0.215-0.227l-0.57,0.061
				c-0.548,0.058-1.017-0.09-1.41-0.44c-0.393-0.352-0.589-0.801-0.589-1.349c0-0.547,0.196-1.037,0.589-1.471
				c0.395-0.436,0.862-0.681,1.41-0.737l1.355-0.144c0.167-0.018,0.272-0.11,0.32-0.282c0.333-1.891,0.618-3.573,0.856-5.051
				c0.095-0.557,0.368-1.036,0.82-1.44c0.403-0.354,0.855-0.554,1.355-0.606c0.047-0.005,0.105-0.012,0.179-0.019
				c0.57-0.013,1.022,0.178,1.355,0.57c0.261,0.329,0.393,0.696,0.393,1.102c0,0.095-0.013,0.215-0.036,0.36
				c-0.263,1.453-0.56,3.008-0.892,4.659c-0.024,0.169,0.06,0.243,0.249,0.225L1202.588,602.243z M1202.159,606.571
				c0.022-0.193-0.059-0.279-0.249-0.261l-2.605,0.274c-0.189,0.021-0.297,0.114-0.319,0.282c-0.405,2.064-0.952,4.621-1.643,7.666
				c-0.048,0.172,0.013,0.297,0.179,0.374c1.166,0.662,1.916,1.096,2.249,1.298c0.143,0.104,0.249,0.058,0.319-0.143
				C1201.019,613.422,1201.708,610.258,1202.159,606.571z M1224.068,607.194c0.568-0.062,1.052,0.091,1.442,0.454
				c0.395,0.362,0.59,0.824,0.59,1.384c0,0.559-0.195,1.062-0.59,1.507c-0.392,0.445-0.874,0.698-1.442,0.759l-5.745,0.604
				c-0.167,0.018-0.25,0.108-0.25,0.274v10.455c0,1.143-0.131,2.029-0.394,2.663c-0.262,0.634-0.736,1.153-1.427,1.561
				c-0.952,0.527-2.283,0.918-3.997,1.17c-0.047,0.027-0.083,0.044-0.105,0.046c-0.571,0.061-1.083-0.063-1.534-0.374
				c-0.5-0.328-0.856-0.79-1.07-1.386c-0.048-0.091-0.084-0.193-0.106-0.311c-0.071-0.159-0.106-0.334-0.106-0.523
				c0-0.237,0.07-0.494,0.214-0.771c0.261-0.408,0.63-0.637,1.105-0.688l0.036-0.003c0.617-0.042,1.13-0.084,1.532-0.126
				c0.334-0.034,0.583-0.072,0.75-0.113c0.31-0.032,0.519-0.097,0.625-0.19c0.106-0.095,0.16-0.271,0.16-0.535v-10.42
				c0-0.166-0.084-0.24-0.25-0.223l-5.423,0.569c-0.548,0.059-1.022-0.095-1.428-0.455c-0.404-0.362-0.606-0.823-0.606-1.383
				c0-0.559,0.202-1.063,0.606-1.509c0.404-0.447,0.88-0.699,1.428-0.757l5.423-0.57c0.166-0.018,0.25-0.108,0.25-0.275v-2.783
				c0-0.333,0.118-0.63,0.357-0.895c0.235-0.263,0.521-0.41,0.854-0.445c0.096-0.011,0.18-0.056,0.25-0.135
				c1.143-1.309,2.225-2.767,3.247-4.371c0.023-0.052,0.023-0.099,0-0.144c-0.023-0.046-0.06-0.065-0.106-0.062l-9.1,0.956
				c-0.548,0.058-1.017-0.089-1.409-0.439c-0.392-0.351-0.589-0.807-0.589-1.366c0-0.559,0.196-1.055,0.589-1.488
				c0.394-0.433,0.861-0.68,1.409-0.736l12.168-1.278c0.07-0.008,0.144-0.026,0.213-0.059c0.166-0.064,0.322-0.105,0.465-0.12
				c0.356-0.038,0.679,0.036,0.964,0.22l0.784,0.524c0.404,0.267,0.643,0.635,0.715,1.103c0.022,0.116,0.035,0.224,0.035,0.317
				c0,0.381-0.119,0.737-0.356,1.07c-2.022,3.021-4.021,5.573-5.995,7.66c-0.119,0.131-0.178,0.28-0.178,0.446v1.57
				c0,0.167,0.083,0.24,0.25,0.224L1224.068,607.194z"/>
			<path fill="#FFFFFF" d="M1256.592,610.055c0-0.594,0.202-1.114,0.607-1.562c0.403-0.447,0.903-0.702,1.498-0.766l0.321-0.032
				c0.569-0.062,1.063,0.09,1.479,0.45s0.625,0.839,0.625,1.433v11.24c0,0.594-0.208,1.115-0.625,1.563
				c-0.417,0.447-0.91,0.701-1.479,0.762l-0.606,0.063c-0.499,0.053-0.928-0.08-1.284-0.4c-0.356-0.317-0.536-0.739-0.536-1.264
				c0-0.143-0.083-0.205-0.249-0.188l-19.768,2.076c-0.166,0.019-0.25,0.099-0.25,0.24c0,0.523-0.179,0.988-0.534,1.396
				c-0.355,0.405-0.798,0.638-1.319,0.691l-0.465,0.049c-0.57,0.061-1.063-0.091-1.48-0.45c-0.416-0.361-0.624-0.84-0.624-1.435
				v-11.274c0-0.595,0.208-1.115,0.624-1.563c0.417-0.448,0.91-0.702,1.48-0.762l0.215-0.022c0.594-0.063,1.094,0.087,1.498,0.448
				c0.404,0.362,0.605,0.841,0.605,1.435v6.708c0,0.191,0.096,0.276,0.286,0.258l7.101-0.747c0.166-0.019,0.249-0.121,0.249-0.313
				V607.6c0-0.166-0.083-0.239-0.249-0.223l-8.243,0.866c-0.568,0.061-1.063-0.097-1.479-0.469
				c-0.417-0.372-0.625-0.845-0.625-1.415v-9.063c0-0.595,0.208-1.115,0.625-1.563c0.415-0.448,0.91-0.702,1.479-0.764l0.108-0.011
				c0.593-0.063,1.094,0.087,1.498,0.449c0.404,0.361,0.605,0.84,0.605,1.435v6.637c0,0.19,0.096,0.275,0.285,0.257l5.745-0.604
				c0.166-0.018,0.249-0.121,0.249-0.312v-9.706c0-0.595,0.208-1.115,0.625-1.563c0.416-0.448,0.91-0.702,1.481-0.762l0.249-0.026
				c0.595-0.063,1.094,0.087,1.499,0.449c0.402,0.361,0.604,0.84,0.604,1.434v9.706c0,0.19,0.096,0.275,0.286,0.257l6.103-0.643
				c0.188-0.02,0.285-0.125,0.285-0.314v-6.638c0-0.595,0.2-1.114,0.605-1.563c0.404-0.446,0.903-0.701,1.499-0.765l0.356-0.038
				c0.57-0.06,1.063,0.092,1.479,0.451c0.416,0.361,0.625,0.839,0.625,1.435v9.063c0,0.571-0.209,1.086-0.625,1.546
				c-0.416,0.461-0.909,0.722-1.479,0.78l-8.85,0.931c-0.189,0.021-0.286,0.112-0.286,0.278v10.49c0,0.19,0.097,0.275,0.286,0.257
				l7.602-0.799c0.188-0.021,0.283-0.125,0.283-0.316v-6.708H1256.592z"/>
			<path fill="#FFFFFF" d="M1295.79,590.449c0.381-0.444,0.844-0.719,1.392-0.824c0.097-0.033,0.18-0.054,0.25-0.061
				c0.451-0.049,0.868,0.039,1.249,0.26c0.403,0.268,0.606,0.663,0.606,1.186c0,0.452-0.179,0.84-0.535,1.162
				c-0.809,0.751-1.629,1.469-2.462,2.149c-0.048,0.055-0.071,0.108-0.071,0.169c0,0.06,0.035,0.098,0.106,0.113
				c0.855,0.361,1.796,0.655,2.818,0.881c0.452,0.119,0.737,0.398,0.855,0.838c0.048,0.139,0.072,0.277,0.072,0.421
				c0,0.31-0.097,0.604-0.285,0.887c-0.024,0.026-0.049,0.053-0.071,0.079c-0.357,0.561-0.82,0.966-1.392,1.216
				c-0.286,0.126-0.561,0.202-0.821,0.229c-0.311,0.031-0.618,0.006-0.927-0.081c-0.645-0.193-1.273-0.413-1.894-0.658
				c-0.069-0.039-0.13-0.039-0.178,0.001c-0.048,0.042-0.071,0.098-0.071,0.169v3.068c0,0.333,0,0.547,0,0.642
				c0.023,0.213,0.119,0.321,0.285,0.327c0.048,0.019,0.107,0.024,0.179,0.017l0.643-0.066c0.262-0.027,0.416-0.057,0.465-0.084
				c0.166-0.112,0.285-0.256,0.355-0.43c0.118-0.369,0.339-0.654,0.66-0.854c0.32-0.2,0.637-0.233,0.945-0.1
				c0.476,0.188,0.832,0.482,1.071,0.887c0.166,0.292,0.248,0.593,0.248,0.901c0,0.143-0.013,0.285-0.034,0.433
				c-0.072,0.292-0.156,0.515-0.25,0.668c-0.285,0.529-0.738,0.922-1.355,1.177c-0.453,0.215-1.036,0.359-1.749,0.436l-1.854,0.193
				c-1.07,0.112-1.88-0.063-2.427-0.529c-0.311-0.301-0.522-0.677-0.643-1.127c-0.119-0.452-0.179-1.178-0.179-2.177v-1.854
				c0-0.166-0.095-0.24-0.285-0.222l-2.748,0.289c-0.19,0.021-0.285,0.126-0.285,0.315c-0.143,2.322-0.928,4.285-2.354,5.885
				c-0.381,0.374-0.809,0.585-1.284,0.636c-0.07,0.008-0.155,0.017-0.249,0.025c-0.571-0.011-1.07-0.22-1.499-0.627
				c-0.263-0.234-0.513-0.446-0.749-0.635c-0.023-0.021-0.055-0.02-0.09,0.009s-0.055,0.054-0.055,0.077
				c0,0.405-0.137,0.759-0.409,1.061c-0.273,0.302-0.612,0.476-1.018,0.518l-1.998,0.21c-0.119,0.013-0.214-0.015-0.285-0.077
				c-0.071-0.063-0.106-0.154-0.106-0.273c0-0.022-0.023-0.034-0.071-0.028l-3.391,0.355c-0.189,0.021-0.298,0.115-0.32,0.284
				c-0.144,0.752-0.263,1.371-0.356,1.856c-0.048,0.172,0.012,0.249,0.178,0.23l5.745-0.604c0.595-0.063,1.082,0.1,1.464,0.487
				c0.356,0.345,0.535,0.753,0.535,1.229c0,1.665-0.227,3.604-0.679,5.815c-0.262,1.265-0.631,2.147-1.104,2.649
				c-0.382,0.468-0.793,0.809-1.231,1.021c-0.44,0.212-1.006,0.393-1.695,0.536c-0.57,0.106-1.344,0.212-2.318,0.314
				c-0.19,0.021-0.381,0.04-0.571,0.061c-0.546,0.058-1.034-0.076-1.462-0.399c-0.429-0.324-0.726-0.75-0.892-1.279
				c-0.072-0.159-0.108-0.298-0.108-0.417c0-0.262,0.084-0.508,0.251-0.74c0.214-0.354,0.511-0.553,0.892-0.593
				c0.023-0.003,0.048-0.005,0.071-0.008c0.928-0.05,1.749-0.112,2.462-0.188c0.618-0.063,1.071-0.23,1.356-0.499
				c0.428-0.426,0.761-1.876,0.998-4.351c0.022-0.193-0.06-0.28-0.249-0.26l-4.354,0.457c-0.047,0.005-0.083,0.045-0.105,0.118
				c-0.049,0.243-0.167,0.435-0.357,0.572s-0.404,0.209-0.642,0.21l-0.929-0.08c-0.477-0.021-0.845-0.209-1.105-0.563
				c-0.167-0.269-0.25-0.557-0.25-0.865c0-0.119,0.012-0.251,0.036-0.396c0.428-1.781,0.809-3.569,1.142-5.365
				c0.095-0.604,0.375-1.127,0.839-1.568c0.463-0.44,0.992-0.692,1.587-0.756l4.354-0.458c0.188-0.02,0.285-0.124,0.285-0.314
				v-1.997c0-0.19-0.097-0.276-0.285-0.257l-5.53,0.581c-0.143,0.016-0.214-0.049-0.214-0.19c0-0.023-0.013-0.034-0.036-0.031
				c-0.215,0.143-0.439,0.271-0.678,0.393c-0.311,0.151-0.607,0.241-0.893,0.271c-0.238,0.024-0.487,0.015-0.75-0.029
				c-0.522-0.109-0.963-0.386-1.318-0.823c-0.191-0.241-0.286-0.518-0.286-0.826c0-0.119,0.022-0.253,0.071-0.4
				c0.143-0.466,0.428-0.806,0.855-1.018c1.379-0.691,2.712-1.498,3.996-2.418c0.071-0.056,0.107-0.112,0.107-0.171
				c0-0.062-0.036-0.11-0.107-0.15c-0.522-0.325-1.082-0.646-1.677-0.965c-0.405-0.221-0.607-0.579-0.607-1.078
				c0-0.333,0.132-0.645,0.394-0.935c0.356-0.395,0.785-0.642,1.285-0.741c0.117-0.035,0.226-0.06,0.32-0.068
				c0.38-0.04,0.737,0.017,1.07,0.172c0.855,0.387,1.568,0.764,2.141,1.131c0.166,0.078,0.31,0.052,0.43-0.08
				c0.642-0.662,1.235-1.366,1.783-2.113c0.047-0.054,0.06-0.102,0.035-0.146c-0.023-0.045-0.07-0.063-0.143-0.056l-5.209,0.547
				c-0.478,0.05-0.882-0.073-1.214-0.372c-0.334-0.298-0.5-0.686-0.5-1.16s0.166-0.892,0.5-1.248
				c0.332-0.355,0.737-0.56,1.214-0.609l7.742-0.813c0.048-0.005,0.105-0.023,0.179-0.055c0.143-0.063,0.285-0.103,0.428-0.116
				c0.286-0.03,0.56,0.012,0.821,0.127l0.713,0.282c0.381,0.15,0.643,0.407,0.785,0.773c0.071,0.158,0.107,0.321,0.107,0.487
				c0,0.214-0.062,0.436-0.18,0.662c-1.402,2.858-3.401,5.437-5.994,7.729c-0.023,0.025-0.029,0.063-0.018,0.108
				c0.012,0.046,0.04,0.065,0.089,0.062l2.283-0.239c0.595-0.063,1.094,0.089,1.499,0.448c0.404,0.363,0.604,0.842,0.604,1.437v4.96
				c0,0.07,0.03,0.116,0.091,0.133c0.06,0.018,0.111,0.012,0.16-0.017c0.951-0.767,1.594-1.565,1.927-2.396
				c0.333-0.832,0.5-1.712,0.5-2.64v-0.5c0-0.595,0.208-1.116,0.625-1.563c0.415-0.448,0.909-0.702,1.479-0.763l4.854-0.51
				c0.048-0.006,0.076-0.031,0.09-0.081c0.011-0.05,0.005-0.083-0.02-0.105c-2.712-1.832-4.925-4.287-6.637-7.365
				c-0.119-0.227-0.179-0.444-0.179-0.659c0-0.189,0.048-0.397,0.143-0.622c0.19-0.447,0.512-0.768,0.964-0.957
				c0.214-0.069,0.415-0.115,0.606-0.136c0.286-0.029,0.569,0,0.855,0.089c0.477,0.164,0.845,0.471,1.105,0.919
				c0.356,0.581,0.737,1.111,1.143,1.592c0.094,0.133,0.214,0.133,0.356-0.001c0.688-0.667,1.319-1.316,1.891-1.947
				c0.405-0.423,0.868-0.698,1.392-0.824c0.097-0.011,0.18-0.02,0.25-0.025c0.43-0.045,0.832,0.044,1.214,0.265
				c0.404,0.244,0.606,0.627,0.606,1.15c0,0.452-0.179,0.839-0.535,1.161c-1.047,0.967-1.938,1.763-2.676,2.387
				c-0.143,0.135-0.155,0.255-0.036,0.36c0.499,0.399,1.022,0.772,1.569,1.119c0.143,0.104,0.286,0.091,0.429-0.045
				C1294.196,592.093,1295.005,591.294,1295.79,590.449z M1293.971,606.876c1.046-0.11,1.855-0.112,2.427-0.006
				c0.334,0.085,0.575,0.272,0.731,0.564c0.154,0.294,0.16,0.604,0.017,0.927c-0.832,2.229-2.021,4.186-3.565,5.87
				c-0.145,0.157-0.132,0.264,0.034,0.316c1.236,0.347,2.594,0.597,4.066,0.75c0.452,0.023,0.75,0.242,0.894,0.656
				c0.07,0.135,0.106,0.285,0.106,0.452c0,0.236-0.084,0.483-0.25,0.739c-0.048,0.027-0.083,0.067-0.105,0.117
				c-0.381,0.563-0.856,1.007-1.428,1.328c-0.334,0.179-0.679,0.285-1.034,0.322c-0.238,0.025-0.478,0.015-0.714-0.032
				c-1.784-0.312-3.414-0.816-4.89-1.52c-0.167-0.078-0.321-0.063-0.464,0.049c-1.594,1.023-3.438,1.919-5.53,2.686
				c-0.189,0.068-0.369,0.11-0.535,0.128c-0.31,0.032-0.618-0.006-0.928-0.115c-0.477-0.188-0.855-0.505-1.142-0.95
				c-0.12-0.201-0.18-0.409-0.18-0.624c0-0.166,0.036-0.337,0.106-0.51c0.167-0.398,0.452-0.666,0.856-0.806
				c1.594-0.522,3.009-1.136,4.245-1.838c0.166-0.088,0.19-0.186,0.072-0.292c-0.643-0.575-1.226-1.215-1.749-1.922
				c-0.189-0.266-0.286-0.528-0.286-0.79c0-0.189,0.036-0.396,0.108-0.618c0.214-0.521,0.583-0.883,1.105-1.08l0.07-0.008
				c0.023-0.024,0.036-0.044,0.036-0.058c0-0.013-0.013-0.017-0.036-0.015l-1.784,0.188c-0.404,0.043-0.748-0.063-1.034-0.318
				c-0.285-0.257-0.428-0.585-0.428-0.989s0.143-0.76,0.428-1.063c0.286-0.304,0.63-0.477,1.034-0.52L1293.971,606.876z
				 M1292.473,610.137c0.023-0.049,0.023-0.097,0-0.143c-0.023-0.044-0.071-0.063-0.143-0.057l-4.711,0.495
				c-0.07,0.008-0.119,0.036-0.144,0.086c-0.023,0.051-0.022,0.099,0,0.144c0.644,0.837,1.429,1.563,2.355,2.179
				c0.143,0.104,0.285,0.09,0.428-0.045C1291.116,611.992,1291.853,611.106,1292.473,610.137z"/>
			<path fill="#FFFFFF" d="M1331.777,583.92c0.189-0.068,0.38-0.111,0.57-0.132c0.404-0.042,0.784,0.049,1.142,0.272l0.928,0.616
				c0.477,0.283,0.75,0.705,0.821,1.27c0,0.07,0,0.154,0,0.25c0,0.452-0.155,0.885-0.464,1.298
				c-3.568,4.419-7.16,7.973-10.775,10.659c-0.143,0.109-0.215,0.261-0.215,0.449v12.703c0,1.262-0.178,2.236-0.535,2.93
				c-0.355,0.689-0.986,1.251-1.891,1.679c-1.189,0.554-3.129,0.995-5.815,1.325l-0.036,0.004c-0.595,0.063-1.13-0.071-1.604-0.402
				c-0.499-0.304-0.856-0.743-1.07-1.313c-0.072-0.185-0.143-0.36-0.215-0.531c-0.07-0.17-0.106-0.339-0.106-0.505
				c0-0.263,0.071-0.508,0.216-0.736c0.261-0.408,0.604-0.636,1.034-0.681c0.022-0.002,0.047-0.005,0.069-0.007
				c1.095-0.092,2.035-0.179,2.819-0.262c0.57-0.06,1.058-0.123,1.463-0.188c0.404-0.043,0.684-0.126,0.838-0.248
				c0.155-0.124,0.232-0.34,0.232-0.649v-14.45c0-0.595,0.201-1.114,0.606-1.563c0.403-0.445,0.903-0.701,1.498-0.764l0.071-0.009
				c0.166-0.018,0.321-0.079,0.464-0.19c2.07-1.691,4.043-3.647,5.923-5.867c0.048-0.052,0.06-0.102,0.036-0.146
				c-0.024-0.044-0.06-0.065-0.106-0.061l-18.841,1.979c-0.569,0.061-1.063-0.091-1.479-0.45c-0.416-0.361-0.624-0.839-0.624-1.435
				v-0.07c0-0.57,0.208-1.087,0.624-1.546c0.416-0.46,0.91-0.721,1.479-0.78l22.693-2.385
				C1331.622,583.973,1331.705,583.952,1331.777,583.92z"/>
			<path fill="#FFFFFF" d="M1353.242,601.11c0,0.595-0.203,1.113-0.607,1.562s-0.903,0.701-1.498,0.764l-4.246,0.446
				c-0.189,0.021-0.286,0.126-0.286,0.316v0.819c0,0.523-0.185,0.989-0.552,1.396c-0.369,0.408-0.821,0.64-1.355,0.695
				c-0.535,0.057-0.987-0.079-1.355-0.41c-0.369-0.329-0.554-0.756-0.554-1.279v-19.839c0-0.594,0.202-1.115,0.607-1.563
				c0.402-0.446,0.902-0.701,1.498-0.765l6.243-0.656c0.596-0.063,1.095,0.088,1.498,0.449c0.404,0.362,0.607,0.841,0.607,1.436
				V601.11L1353.242,601.11z M1349.389,587.063c0-0.189-0.096-0.273-0.286-0.255l-2.212,0.232c-0.189,0.021-0.286,0.125-0.286,0.315
				v12.273c0,0.19,0.097,0.275,0.286,0.255l2.212-0.231c0.19-0.021,0.286-0.125,0.286-0.315V587.063z M1355.489,610.365
				c-0.19,0.471-0.523,0.804-0.998,0.996c-0.191,0.066-0.381,0.11-0.571,0.132c-0.285,0.028-0.56-0.013-0.82-0.128
				c-0.404-0.147-0.678-0.44-0.82-0.878c-0.048-0.16-0.071-0.337-0.071-0.527c0-0.237,0.06-0.493,0.179-0.768
				c0.642-1.472,1.142-3.212,1.498-5.225c0.072-0.437,0.298-0.793,0.679-1.069c0.237-0.191,0.499-0.304,0.784-0.333
				c0.119-0.014,0.251-0.003,0.394,0.029c0.451,0.071,0.809,0.296,1.07,0.673c0.215,0.287,0.32,0.607,0.32,0.966
				c0,0.095-0.012,0.202-0.035,0.324C1356.691,606.955,1356.156,608.892,1355.489,610.365z M1367.336,595.739
				c0,0.189,0.083,0.275,0.25,0.259l5.53-0.581c0.571-0.061,1.059,0.092,1.463,0.453c0.357,0.367,0.535,0.813,0.535,1.335
				c0,2.783-0.202,5.706-0.606,8.771c-0.237,1.833-0.584,3.06-1.034,3.677c-0.57,0.773-1.367,1.298-2.392,1.571
				c-0.452,0.118-1.069,0.231-1.854,0.337l-0.036,0.005c-0.523,0.055-0.977-0.075-1.355-0.394c-0.429-0.312-0.714-0.745-0.855-1.302
				c-0.024-0.116-0.036-0.245-0.036-0.389c0-0.263,0.083-0.521,0.249-0.775c0.238-0.381,0.56-0.594,0.964-0.636l0.036-0.004
				c0.214,0.002,0.487-0.017,0.82-0.052c0.498-0.052,0.867-0.245,1.105-0.58c0.451-0.617,0.796-3.26,1.034-7.923
				c0-0.189-0.084-0.275-0.25-0.259l-13.487,1.417c-0.594,0.063-1.094-0.087-1.498-0.448c-0.405-0.361-0.605-0.841-0.605-1.436
				V582.48c0-0.596,0.201-1.116,0.605-1.563s0.904-0.702,1.498-0.765l14.915-1.567c0.522-0.055,0.969,0.083,1.338,0.412
				c0.369,0.33,0.554,0.752,0.554,1.263c0,0.513-0.185,0.972-0.554,1.378c-0.369,0.408-0.814,0.64-1.338,0.693l-4.745,0.499
				c-0.167,0.018-0.25,0.122-0.25,0.313v1.534c0,0.166,0.083,0.24,0.25,0.224l3.926-0.413c0.475-0.05,0.88,0.075,1.213,0.373
				s0.499,0.685,0.499,1.159c0,0.478-0.166,0.898-0.499,1.267c-0.333,0.369-0.738,0.577-1.213,0.627l-3.926,0.413
				c-0.167,0.018-0.25,0.109-0.25,0.275v1.605c0,0.167,0.083,0.241,0.25,0.224l3.926-0.413c0.475-0.05,0.88,0.074,1.213,0.372
				c0.333,0.3,0.499,0.68,0.499,1.144s-0.166,0.874-0.499,1.229c-0.333,0.356-0.738,0.56-1.213,0.608l-3.926,0.413
				c-0.167,0.018-0.25,0.122-0.25,0.312L1367.336,595.739L1367.336,595.739z M1358.416,603.991
				c-0.072-0.372,0.006-0.737,0.232-1.095c0.225-0.356,0.527-0.578,0.907-0.666c0.097-0.033,0.19-0.058,0.286-0.066
				c0.285-0.029,0.561,0.025,0.82,0.164c0.333,0.203,0.535,0.49,0.606,0.864c0.356,1.77,0.535,3.297,0.535,4.582
				c0,0.403-0.132,0.773-0.393,1.11c-0.311,0.366-0.678,0.606-1.105,0.724c-0.382,0.087-0.721,0.017-1.018-0.214
				c-0.298-0.23-0.446-0.536-0.446-0.917C1358.82,607.053,1358.677,605.558,1358.416,603.991z M1363.34,583.564
				c0-0.19-0.083-0.277-0.25-0.261l-3.425,0.359c-0.191,0.021-0.286,0.126-0.286,0.315v1.534c0,0.166,0.095,0.239,0.286,0.22
				l3.425-0.359c0.167-0.018,0.25-0.109,0.25-0.275V583.564z M1363.09,590.905c0.167-0.019,0.25-0.109,0.25-0.276v-1.604
				c0-0.166-0.083-0.241-0.25-0.225l-3.425,0.359c-0.191,0.021-0.286,0.114-0.286,0.28v1.604c0,0.167,0.095,0.24,0.286,0.22
				L1363.09,590.905z M1359.665,594.618c-0.191,0.021-0.286,0.126-0.286,0.314v1.643c0,0.189,0.095,0.274,0.286,0.255l3.425-0.359
				c0.167-0.018,0.25-0.121,0.25-0.312v-1.643c0-0.188-0.083-0.275-0.25-0.259L1359.665,594.618z M1362.626,603.121
				c-0.119-0.345-0.095-0.688,0.071-1.025s0.428-0.572,0.785-0.707c0.355-0.132,0.707-0.133,1.052-0.003s0.59,0.366,0.732,0.708
				c0.451,1.166,0.809,2.342,1.069,3.526c0.023,0.117,0.035,0.224,0.035,0.317c0,0.284-0.084,0.567-0.25,0.847
				c-0.213,0.38-0.522,0.65-0.927,0.812c-0.356,0.157-0.691,0.15-1-0.02c-0.31-0.169-0.499-0.441-0.57-0.814
				C1363.388,605.574,1363.055,604.36,1362.626,603.121z M1370.188,603.432c0.145,0.343,0.133,0.688-0.033,1.038
				c-0.167,0.352-0.43,0.616-0.785,0.797c-0.334,0.154-0.66,0.164-0.981,0.032c-0.321-0.133-0.528-0.361-0.625-0.685
				c-0.285-0.874-0.642-1.739-1.069-2.6c-0.144-0.295-0.154-0.596-0.036-0.905c0.12-0.311,0.333-0.528,0.644-0.656
				c0.332-0.154,0.665-0.189,0.998-0.105s0.583,0.271,0.75,0.563C1369.478,601.699,1369.856,602.538,1370.188,603.432z"/>
			<path fill="#FFFFFF" d="M1398.292,593.913c-0.571,1.44-1.368,2.213-2.392,2.32l-0.499,0.053c-0.618,0.064-1.143-0.094-1.57-0.479
				c-0.309-0.275-0.463-0.604-0.463-0.984c0-0.145,0.012-0.287,0.035-0.434c0.188-0.757,0.563-1.505,1.124-2.24
				c0.559-0.736,1.153-1.383,1.784-1.937c0.63-0.554,1.249-1.1,1.854-1.64c0.606-0.54,1.111-1.1,1.517-1.677
				c0.404-0.577,0.606-1.151,0.606-1.724c0-1.094-0.41-1.896-1.229-2.404c-0.821-0.507-1.945-0.687-3.372-0.536
				c-1.595,0.168-3.046,0.808-4.354,1.921c-0.476,0.405-0.987,0.649-1.534,0.73c-0.023,0.003-0.048,0.005-0.071,0.008
				c-0.522,0.056-0.986-0.073-1.392-0.39c-0.452-0.38-0.678-0.868-0.678-1.463c0-0.522,0.202-0.983,0.604-1.384
				c2.309-2.24,4.973-3.521,7.993-3.837c2.761-0.29,4.979,0.106,6.654,1.191c1.677,1.084,2.516,2.805,2.516,5.158
				c0,0.833-0.195,1.626-0.589,2.381c-0.393,0.756-0.897,1.428-1.516,2.017c-0.619,0.588-1.249,1.153-1.893,1.696
				c-0.643,0.543-1.262,1.133-1.854,1.766C1398.981,592.663,1398.553,593.291,1398.292,593.913z M1392.938,605.233
				c-0.714-0.604-1.069-1.429-1.069-2.476s0.355-1.945,1.069-2.699c0.715-0.754,1.625-1.188,2.73-1.305
				c1.104-0.116,2.015,0.127,2.729,0.731c0.715,0.603,1.07,1.427,1.07,2.474s-0.355,1.946-1.07,2.7
				c-0.714,0.752-1.623,1.187-2.729,1.303C1394.563,606.079,1393.653,605.836,1392.938,605.233z"/>
			<path fill="#FFFFFF" d="M1426.286,582.442c0.571-0.061,1.063,0.09,1.48,0.45c0.415,0.361,0.623,0.84,0.623,1.434v19.125
				c0,0.594-0.208,1.116-0.623,1.563c-0.417,0.447-0.91,0.702-1.48,0.763l-8.064,0.848c-0.547,0.058-1.011-0.084-1.392-0.424
				c-0.381-0.341-0.57-0.785-0.57-1.332c0-0.548,0.189-1.031,0.57-1.451s0.845-0.66,1.392-0.718l5.53-0.581
				c0.19-0.021,0.286-0.125,0.286-0.315v-17.02c0-0.595,0.202-1.115,0.605-1.563c0.404-0.447,0.903-0.701,1.5-0.765
				L1426.286,582.442z"/>
		</g>
	</g>
	<g>
		<defs>
			<rect id="SVGID_15_" x="981.333" y="568.177" width="471.706" height="151.579"/>
		</defs>
		<clipPath id="SVGID_16_">
			<use xlink:href="#SVGID_15_"  overflow="visible"/>
		</clipPath>
		<g clip-path="url(#SVGID_16_)">
			<path fill="#FCD583" d="M1014.547,696.96l3.283-0.345c0.522-0.055,0.886-0.354,1.088-0.898c0.202-0.545,0.351-1.667,0.445-3.365
				c0.022-0.454,0.237-0.821,0.644-1.104c0.213-0.117,0.438-0.188,0.678-0.213c0.189-0.021,0.394-0.007,0.605,0.043
				c0.048,0.043,0.107,0.072,0.179,0.088c0.595,0.176,1.059,0.508,1.394,0.995c0.309,0.396,0.463,0.832,0.463,1.308
				c0,0.096-0.012,0.192-0.036,0.289c-0.261,2.454-0.762,4.171-1.498,5.153c-0.737,0.981-1.927,1.559-3.567,1.731l-4.39,0.461
				c-2.046,0.215-3.425-0.045-4.139-0.779c-0.714-0.733-1.07-2.182-1.07-4.347V685.06c0-0.166-0.084-0.24-0.25-0.225l-4.96,0.521
				c-0.166,0.018-0.262,0.111-0.285,0.279c-0.143,1.537-0.314,2.895-0.517,4.068c-0.203,1.175-0.519,2.415-0.946,3.721
				c-0.428,1.308-0.963,2.48-1.605,3.522c-0.642,1.043-1.476,2.077-2.498,3.1c-1.021,1.023-2.211,1.963-3.567,2.819
				c-0.31,0.175-0.63,0.28-0.963,0.314c-0.214,0.022-0.44,0.012-0.679-0.036c-0.547-0.133-1.012-0.429-1.392-0.889
				c-0.048-0.064-0.096-0.132-0.143-0.198c-0.237-0.262-0.357-0.568-0.357-0.927c0-0.119,0.013-0.238,0.036-0.359
				c0.096-0.485,0.368-0.871,0.82-1.156c1.117-0.664,2.088-1.409,2.908-2.232c0.819-0.823,1.475-1.637,1.963-2.437
				c0.485-0.802,0.892-1.718,1.213-2.75c0.32-1.032,0.547-1.996,0.678-2.892c0.131-0.894,0.244-1.952,0.339-3.175
				c0.023-0.169-0.06-0.244-0.249-0.224l-5.888,0.618c-0.571,0.061-1.065-0.097-1.481-0.469s-0.624-0.845-0.624-1.416v-0.034
				c0-0.596,0.208-1.115,0.624-1.564c0.416-0.447,0.91-0.702,1.481-0.763l28.401-2.985c0.57-0.06,1.063,0.092,1.479,0.451
				c0.416,0.361,0.625,0.839,0.625,1.434v0.035c0,0.571-0.209,1.087-0.625,1.547s-0.909,0.72-1.479,0.779l-7.278,0.766
				c-0.19,0.021-0.285,0.114-0.285,0.28v10.918c0,0.69,0.089,1.12,0.268,1.292C1013.565,696.969,1013.952,697.021,1014.547,696.96z
				 M1017.33,669.766c0.571-0.061,1.063,0.097,1.479,0.469s0.625,0.851,0.625,1.433c0,0.584-0.209,1.099-0.625,1.547
				s-0.908,0.702-1.479,0.763l-21.765,2.287c-0.571,0.062-1.065-0.09-1.481-0.449c-0.417-0.361-0.625-0.832-0.625-1.416
				c0-0.582,0.208-1.104,0.625-1.564c0.416-0.459,0.91-0.719,1.481-0.779L1017.33,669.766z"/>
			<path fill="#FCD583" d="M1060.097,674.083c0,0.571-0.209,1.087-0.625,1.546c-0.417,0.461-0.91,0.721-1.48,0.78l-10.489,1.103
				c-0.071,0.009-0.125,0.037-0.161,0.09c-0.035,0.051-0.053,0.111-0.053,0.184c2.378,6.601,6.267,11.021,11.667,13.261
				c0.451,0.189,0.726,0.529,0.82,1.02c0.022,0.094,0.036,0.198,0.036,0.316c0,0.356-0.119,0.703-0.356,1.037
				c-0.096,0.129-0.203,0.26-0.321,0.392c-0.095,0.152-0.202,0.317-0.32,0.497c-0.356,0.513-0.821,0.883-1.392,1.109
				c-0.19,0.067-0.394,0.112-0.606,0.135c-0.334,0.035-0.666-0.014-1-0.145c-5.138-2.435-9.051-6.779-11.738-13.038
				c-0.023-0.046-0.061-0.066-0.106-0.063c-0.048,0.006-0.071,0.032-0.071,0.08c-2.094,6.5-6.007,11.682-11.738,15.542
				c-0.333,0.2-0.678,0.321-1.035,0.358c-0.19,0.02-0.381,0.016-0.57-0.012c-0.57-0.106-1.047-0.379-1.428-0.813
				c-0.167-0.173-0.333-0.334-0.499-0.481c-0.285-0.278-0.429-0.609-0.429-0.99c0-0.071,0.012-0.145,0.036-0.219
				c0.047-0.479,0.286-0.861,0.713-1.146c5.946-3.813,9.717-9.18,11.311-16.103c0.048-0.173-0.011-0.25-0.178-0.231l-10.24,1.076
				c-0.571,0.061-1.064-0.097-1.479-0.47c-0.417-0.371-0.625-0.844-0.625-1.414v-0.285c0-0.571,0.208-1.087,0.625-1.546
				c0.415-0.46,0.909-0.722,1.479-0.781l10.954-1.151c0.166-0.018,0.262-0.109,0.285-0.278c0.143-1.515,0.237-3.985,0.285-7.416
				c0.022-0.598,0.244-1.119,0.66-1.567s0.91-0.702,1.48-0.763l0.57-0.061c0.571-0.06,1.059,0.091,1.464,0.452
				c0.403,0.362,0.604,0.816,0.604,1.363c0,2.308-0.131,4.808-0.393,7.498c-0.022,0.17,0.048,0.245,0.215,0.228l12.023-1.264
				c0.57-0.061,1.063,0.098,1.48,0.47c0.416,0.372,0.625,0.844,0.625,1.415V674.083L1060.097,674.083z"/>
			<path fill="#FCD583" d="M1095.37,660.599c0.568-0.06,1.063,0.092,1.479,0.451c0.417,0.361,0.625,0.839,0.625,1.435v26.117
				c0,1.022-0.119,1.82-0.355,2.393c-0.238,0.572-0.655,1.044-1.249,1.417c-0.811,0.488-2.011,0.841-3.604,1.056
				c-0.022,0.003-0.048,0.005-0.07,0.008c-0.523,0.056-0.987-0.063-1.393-0.354c-0.428-0.313-0.726-0.732-0.892-1.262
				c-0.048-0.162-0.071-0.303-0.071-0.422c0-0.284,0.083-0.557,0.249-0.811c0.238-0.383,0.571-0.596,1-0.641l0.036-0.004
				c0.521-0.031,1.093-0.08,1.712-0.146c0.238-0.049,0.411-0.132,0.519-0.251c0.105-0.117,0.159-0.308,0.159-0.569v-24.19
				c0-0.19-0.083-0.277-0.25-0.26l-11.273,1.185c-0.191,0.021-0.285,0.126-0.285,0.316v26.652c0,0.522-0.19,0.995-0.571,1.416
				c-0.381,0.42-0.833,0.658-1.354,0.713c-0.524,0.057-0.978-0.088-1.356-0.429c-0.381-0.341-0.571-0.771-0.571-1.295v-4.175
				c0-0.047-0.028-0.092-0.089-0.134c-0.06-0.041-0.111-0.047-0.16-0.02l-0.429,0.188c-0.189,0.092-0.381,0.146-0.571,0.167
				c-0.309,0.031-0.604-0.03-0.892-0.191c-0.476-0.234-0.772-0.62-0.893-1.155c-0.214-0.951-0.477-1.924-0.784-2.913
				c-0.071-0.159-0.106-0.322-0.106-0.489c0-0.237,0.06-0.47,0.179-0.696c0.188-0.398,0.486-0.692,0.892-0.879
				c0.189-0.066,0.369-0.11,0.535-0.128c0.262-0.027,0.513,0.006,0.75,0.101c0.403,0.147,0.678,0.429,0.821,0.842
				c0.213,0.571,0.438,1.237,0.678,1.997c0,0.024,0.012,0.035,0.035,0.033c0.022-0.003,0.035-0.016,0.035-0.04v-4.566
				c0-0.047-0.029-0.086-0.09-0.116c-0.06-0.028-0.111-0.028-0.16,0l-0.285,0.137c-0.213,0.143-0.429,0.224-0.643,0.246
				c-0.238,0.024-0.476-0.009-0.714-0.104c-0.476-0.163-0.772-0.489-0.892-0.978c-0.049-0.16-0.155-0.221-0.321-0.181l-1.32,0.246
				c-0.167,0.018-0.25,0.122-0.25,0.312v12.988c0,0.499-0.185,0.953-0.553,1.358c-0.369,0.408-0.81,0.64-1.319,0.693
				c-0.513,0.054-0.951-0.085-1.32-0.415s-0.553-0.745-0.553-1.244v-12.702c0-0.189-0.084-0.265-0.25-0.224l-2.927,0.521
				c-0.07,0.031-0.131,0.05-0.179,0.055c-0.452,0.048-0.868-0.063-1.248-0.333c-0.405-0.29-0.632-0.695-0.678-1.214
				c-0.024-0.068-0.036-0.15-0.036-0.245c0-0.404,0.143-0.788,0.428-1.151c0.333-0.438,0.761-0.698,1.284-0.776l0.465-0.084
				c0.166-0.019,0.31-0.104,0.428-0.26c0.404-0.518,0.845-1.136,1.32-1.852c0.095-0.152,0.095-0.308,0-0.464
				c-0.689-0.998-1.618-2.09-2.783-3.276c-0.381-0.388-0.569-0.867-0.569-1.438c0-0.477,0.13-0.918,0.392-1.326l0.464-0.69
				c0.166-0.231,0.381-0.373,0.644-0.425c0.262-0.052,0.499-0.005,0.713,0.139c0.072,0.063,0.12,0.06,0.143-0.016
				c0.714-1.478,1.356-2.996,1.928-4.555c0.189-0.521,0.534-0.924,1.035-1.215c0.285-0.174,0.57-0.274,0.855-0.305
				c0.215-0.022,0.428-0.01,0.643,0.039c0.499,0.114,0.844,0.411,1.034,0.892c0.096,0.203,0.144,0.412,0.144,0.627
				c0,0.263-0.07,0.529-0.214,0.808c-1.213,2.482-2.236,4.409-3.068,5.781c-0.095,0.151-0.083,0.295,0.036,0.425
				c0.261,0.258,0.535,0.562,0.819,0.913c0.048,0.065,0.103,0.091,0.16,0.072c0.061-0.02,0.113-0.055,0.161-0.106
				c0.855-1.47,1.617-2.87,2.284-4.201c0.235-0.5,0.617-0.86,1.141-1.082c0.215-0.117,0.429-0.188,0.645-0.212
				c0.285-0.028,0.568,0.014,0.854,0.125c0.451,0.167,0.749,0.48,0.894,0.94c0.047,0.162,0.069,0.327,0.069,0.493
				c0,0.31-0.095,0.615-0.285,0.921c-2.046,3.284-3.889,6.07-5.529,8.359c-0.049,0.054-0.061,0.103-0.036,0.146
				c0.022,0.047,0.06,0.055,0.106,0.025l2.642-0.421c0.071-0.008,0.125-0.043,0.16-0.105c0.036-0.063,0.042-0.117,0.019-0.162
				c-0.096-0.204-0.191-0.396-0.286-0.577c-0.119-0.225-0.179-0.457-0.179-0.695c0-0.166,0.036-0.348,0.107-0.546
				c0.143-0.441,0.416-0.77,0.819-0.978c0.238-0.12,0.477-0.193,0.714-0.218c0.215-0.022,0.43-0.011,0.643,0.038
				c0.429,0.122,0.762,0.372,1,0.752c0.522,1.016,0.985,2.002,1.392,2.957c0,0.023,0.019,0.028,0.054,0.014
				c0.035-0.017,0.054-0.035,0.054-0.061v-12.595c0-0.595,0.202-1.115,0.606-1.563c0.404-0.446,0.903-0.701,1.499-0.765
				L1095.37,660.599z M1065.255,685.314c0.071-0.482,0.297-0.888,0.679-1.214c0.284-0.267,0.605-0.42,0.962-0.456
				c0.097-0.011,0.19-0.01,0.286,0.005c0.5,0.019,0.894,0.216,1.179,0.59c0.261,0.282,0.393,0.625,0.393,1.028
				c0,0.071-0.013,0.156-0.036,0.255c-0.309,2.269-0.749,4.324-1.319,6.169c-0.144,0.441-0.44,0.771-0.894,0.984
				c-0.189,0.092-0.38,0.147-0.569,0.167c-0.238,0.025-0.478-0.009-0.714-0.104c-0.429-0.169-0.737-0.469-0.928-0.901
				c-0.097-0.228-0.143-0.473-0.143-0.733c0-0.19,0.034-0.396,0.105-0.617C1064.66,689.112,1064.993,687.39,1065.255,685.314z
				 M1087.877,685.114l2.462-0.259c0.071-0.009,0.13-0.015,0.178-0.02c0.023-0.003,0.049-0.006,0.072-0.008
				c0.428-0.045,0.82,0.044,1.177,0.269c0.333,0.25,0.523,0.589,0.571,1.012c0,0.07,0,0.131,0,0.179c0,0.428-0.12,0.832-0.355,1.215
				c-0.312,0.412-0.69,0.644-1.144,0.69c-0.143,0.039-0.31,0.067-0.499,0.089l-2.462,0.259c-1.666,0.175-2.771-0.042-3.317-0.65
				c-0.549-0.607-0.821-1.806-0.821-3.59v-3.032c0-0.095-0.048-0.138-0.144-0.127c-0.285,0.029-0.528-0.047-0.73-0.228
				c-0.203-0.181-0.303-0.414-0.303-0.699v-0.605c0-0.452,0.16-0.855,0.48-1.212c0.32-0.354,0.707-0.556,1.16-0.604l1.248-0.131
				c0.189-0.021,0.285-0.113,0.285-0.28v-2.319c0-0.188-0.096-0.274-0.285-0.255l-1.142,0.12c-0.452,0.047-0.839-0.072-1.159-0.358
				c-0.322-0.288-0.482-0.658-0.482-1.11v-0.464c0-0.332,0.113-0.623,0.339-0.873c0.227-0.249,0.505-0.394,0.839-0.427
				c0.096-0.012,0.131-0.063,0.106-0.154c-0.144-0.889-0.381-1.839-0.713-2.851c-0.119-0.346-0.103-0.691,0.054-1.041
				c0.154-0.351,0.409-0.603,0.767-0.759c0.356-0.181,0.714-0.212,1.07-0.096c0.356,0.118,0.606,0.347,0.749,0.689
				c0.238,0.545,0.429,1.119,0.571,1.723c0.048,0.139,0.071,0.279,0.071,0.422c0,0.311-0.084,0.604-0.25,0.883
				c-0.238,0.43-0.584,0.751-1.034,0.965v0.071l4.174-0.438v-0.036c-0.356-0.105-0.612-0.315-0.768-0.634
				c-0.154-0.315-0.173-0.659-0.054-1.028c0.215-0.665,0.405-1.352,0.571-2.058c0.118-0.441,0.369-0.801,0.749-1.078
				c0.262-0.193,0.535-0.308,0.821-0.337c0.143-0.016,0.297-0.008,0.463,0.022c0.429,0.073,0.726,0.304,0.893,0.69
				c0.095,0.204,0.144,0.408,0.144,0.608c0,0.203-0.049,0.416-0.144,0.642c-0.119,0.25-0.321,0.717-0.605,1.4
				c-0.286,0.686-0.488,1.176-0.606,1.474c-0.072,0.127-0.036,0.183,0.106,0.168c0.429-0.046,0.791,0.071,1.088,0.349
				c0.298,0.279,0.446,0.631,0.446,1.06v0.07c0,0.452-0.16,0.856-0.481,1.211c-0.321,0.355-0.708,0.557-1.159,0.604l-1.213,0.128
				c-0.191,0.02-0.286,0.125-0.286,0.313v2.319c0,0.167,0.095,0.24,0.286,0.221l1.318-0.139c0.452-0.048,0.84,0.072,1.16,0.359
				s0.481,0.657,0.481,1.108c0,0.452-0.161,0.854-0.481,1.21c-0.32,0.354-0.708,0.558-1.16,0.604l-3.39,0.354
				c-0.167,0.019-0.249,0.121-0.249,0.313v2.961c0,0.477,0.035,0.789,0.106,0.936
				C1087.518,685.074,1087.662,685.137,1087.877,685.114z"/>
			<path fill="#FCD583" d="M1131.213,675.492c0.404-0.422,0.894-0.665,1.463-0.726c0.571-0.061,1.06,0.08,1.464,0.417
				c0.356,0.345,0.535,0.766,0.535,1.266c0,0.595-0.238,1.095-0.714,1.502c-1.021,0.869-2.069,1.691-3.14,2.471
				c-0.145,0.11-0.167,0.244-0.071,0.399c1.021,1.559,2.259,2.76,3.71,3.606c0.429,0.265,0.689,0.653,0.786,1.165
				c0.022,0.095,0.034,0.188,0.034,0.283c0,0.404-0.131,0.774-0.393,1.111c-0.07,0.102-0.144,0.216-0.214,0.344
				c-0.381,0.516-0.845,0.873-1.392,1.074c-0.167,0.063-0.321,0.104-0.465,0.12c-0.381,0.04-0.737-0.043-1.07-0.245
				c-1.879-1.184-3.448-2.896-4.709-5.144c-0.023-0.021-0.049-0.023-0.072-0.011c-0.022,0.016-0.033,0.034-0.033,0.058l0.213,1.513
				c0,0.096,0,0.189,0,0.285c0,0.477-0.144,0.932-0.429,1.364c-0.333,0.535-0.798,0.905-1.392,1.11
				c-2.188,0.777-4.508,1.579-6.958,2.408c-0.166,0.041-0.333,0.069-0.499,0.088c-0.405,0.042-0.773-0.014-1.105-0.169
				c-0.523-0.255-0.856-0.659-1-1.216l-0.106-0.346c-0.048-0.161-0.154-0.223-0.32-0.181c-3.307,0.989-6.78,1.973-10.419,2.951
				c-0.143,0.038-0.273,0.063-0.393,0.076c-0.405,0.042-0.785-0.037-1.143-0.236c-0.451-0.263-0.736-0.661-0.855-1.195
				c-0.024-0.14-0.036-0.27-0.036-0.388c0-0.381,0.107-0.737,0.321-1.069c0.309-0.482,0.726-0.79,1.249-0.916
				c1.332-0.307,2.462-0.58,3.389-0.819c0.19-0.066,0.286-0.186,0.286-0.353v-9.099c0-0.189-0.096-0.274-0.286-0.255l-2.997,0.314
				c-0.499,0.053-0.933-0.081-1.302-0.397c-0.369-0.317-0.553-0.732-0.553-1.245c0-0.511,0.184-0.964,0.553-1.359
				s0.803-0.62,1.302-0.672l2.997-0.314c0.19-0.021,0.286-0.125,0.286-0.316v-2.141c0-0.166-0.096-0.239-0.286-0.221l-1.997,0.21
				c-0.333,0.035-0.625-0.053-0.874-0.265c-0.25-0.211-0.375-0.495-0.375-0.854v-0.034c0-0.023-0.006-0.041-0.018-0.054
				c-0.013-0.01-0.018-0.003-0.018,0.021c-0.144,0.135-0.305,0.198-0.481,0.193c-0.179-0.006-0.327-0.073-0.447-0.203
				c-0.261-0.307-0.535-0.609-0.819-0.913c-0.356-0.342-0.535-0.765-0.535-1.265c0-0.521,0.189-0.981,0.571-1.38
				c1.76-1.874,3.258-4.018,4.494-6.431c0.263-0.503,0.619-0.922,1.07-1.255c0.452-0.333,0.94-0.527,1.464-0.582
				c1.213-0.128,2.259,0.144,3.14,0.812c1.5,1.177,2.771,2.278,3.817,3.311c0.381,0.412,0.57,0.902,0.57,1.475
				c0,0.644-0.213,1.235-0.642,1.78l-0.679,0.892c-0.119,0.155-0.179,0.316-0.179,0.482v1.105c0,0.57-0.208,1.087-0.625,1.547
				c-0.415,0.461-0.908,0.72-1.479,0.779l-1.643,0.172c-0.191,0.021-0.285,0.114-0.285,0.28v2.142c0,0.19,0.094,0.275,0.285,0.256
				l2.712-0.285c0.499-0.052,0.929,0.081,1.284,0.4c0.357,0.318,0.536,0.734,0.536,1.245c0,0.514-0.179,0.966-0.536,1.358
				c-0.355,0.395-0.785,0.618-1.284,0.67l-2.712,0.285c-0.191,0.021-0.285,0.126-0.285,0.314v8.528c0,0.166,0.094,0.229,0.285,0.185
				c0.285-0.077,1.309-0.352,3.068-0.822c0.095-0.033,0.189-0.055,0.285-0.065c0.356-0.037,0.678,0.048,0.964,0.256
				c0.355,0.248,0.547,0.608,0.571,1.081c0.021,0.143,0.105,0.192,0.248,0.152l0.715-0.217c0.166-0.041,0.25-0.157,0.25-0.349
				V660.12c0-0.594,0.207-1.116,0.624-1.564c0.416-0.446,0.909-0.7,1.48-0.762l12.096-1.271c0.595-0.063,1.094,0.088,1.498,0.448
				c0.404,0.361,0.606,0.841,0.606,1.436v12.273c0,0.596-0.202,1.115-0.606,1.563c-0.404,0.447-0.903,0.701-1.498,0.764
				l-3.925,0.413c-0.191,0.021-0.263,0.123-0.215,0.308c0.333,1.416,0.678,2.582,1.035,3.494c0.071,0.16,0.178,0.186,0.32,0.074
				C1129.93,676.734,1130.571,676.131,1131.213,675.492z M1103.312,680.708c-0.023-0.115-0.035-0.233-0.035-0.353
				c0-0.263,0.071-0.52,0.214-0.771c0.189-0.377,0.487-0.634,0.893-0.771c0.118-0.036,0.249-0.063,0.394-0.076
				c0.236-0.025,0.476,0.021,0.713,0.139c0.38,0.15,0.617,0.424,0.714,0.817c0.31,1.108,0.559,2.177,0.749,3.204
				c0.022,0.115,0.036,0.223,0.036,0.316c0,0.311-0.096,0.616-0.285,0.922c-0.238,0.405-0.584,0.691-1.035,0.857
				c-0.119,0.037-0.238,0.062-0.356,0.073c-0.237,0.024-0.477-0.021-0.714-0.14c-0.334-0.202-0.523-0.503-0.569-0.902
				C1103.858,682.995,1103.62,681.89,1103.312,680.708z M1106.594,666.662c-0.048,0.053-0.06,0.103-0.036,0.146
				c0.023,0.045,0.061,0.065,0.107,0.062l7.458-0.784c0.047-0.005,0.082-0.038,0.106-0.101c0.022-0.063,0.022-0.114,0-0.161
				c-1.237-1.559-2.546-2.932-3.926-4.118c-0.143-0.128-0.262-0.104-0.356,0.073C1108.83,663.68,1107.712,665.309,1106.594,666.662z
				 M1114.872,682.669c-0.12,0.369-0.345,0.655-0.679,0.856c-0.214,0.116-0.429,0.188-0.643,0.21
				c-0.143,0.016-0.285,0.019-0.429,0.009c-0.333-0.083-0.595-0.271-0.784-0.56c-0.119-0.2-0.179-0.422-0.179-0.658
				c0-0.119,0.022-0.24,0.07-0.365c0.285-1.123,0.523-2.207,0.714-3.25c0.071-0.459,0.298-0.839,0.679-1.143
				c0.261-0.192,0.547-0.307,0.855-0.34c0.118-0.012,0.236-0.013,0.356-0.002c0.451,0.072,0.785,0.287,0.999,0.646
				c0.143,0.247,0.214,0.488,0.214,0.728c0,0.166-0.022,0.335-0.071,0.506C1115.43,681.005,1115.062,682.127,1114.872,682.669z
				 M1130.036,660.845c0-0.189-0.084-0.276-0.25-0.26l-7.564,0.795c-0.189,0.021-0.285,0.126-0.285,0.316v1.962
				c0,0.189,0.096,0.274,0.285,0.255l7.564-0.795c0.166-0.019,0.25-0.121,0.25-0.313V660.845z M1121.937,669.974
				c0,0.19,0.096,0.275,0.285,0.255l7.564-0.795c0.166-0.018,0.25-0.12,0.25-0.312v-2.105c0-0.188-0.084-0.275-0.25-0.259
				l-7.564,0.795c-0.189,0.021-0.285,0.126-0.285,0.315V669.974z M1122.222,674.047c-0.189,0.021-0.285,0.126-0.285,0.315v9.775
				c0,0.167,0.096,0.218,0.285,0.148c0.144-0.038,1.605-0.514,4.39-1.424c0.166-0.065,0.214-0.166,0.144-0.303
				c-1.143-2.233-2.047-5.041-2.712-8.421c-0.049-0.184-0.155-0.269-0.321-0.251L1122.222,674.047z"/>
			<path fill="#FCD583" d="M1162.99,661.162c0.142-0.037,0.272-0.063,0.393-0.076c0.285-0.03,0.56,0.013,0.82,0.128l0.892,0.441
				c0.404,0.194,0.654,0.524,0.75,0.991c0.047,0.113,0.071,0.229,0.071,0.35c0,0.31-0.096,0.617-0.286,0.922
				c-1.332,1.973-3.045,3.865-5.138,5.678c-0.048,0.029-0.065,0.073-0.054,0.131c0.012,0.06,0.041,0.099,0.09,0.115
				c3.14,0.766,6.672,1.19,10.597,1.277c0.452,0.022,0.761,0.229,0.928,0.616c0.072,0.183,0.106,0.356,0.106,0.522
				c0,0.238-0.077,0.479-0.231,0.72c-0.153,0.243-0.304,0.479-0.446,0.707c-0.332,0.583-0.783,1.047-1.354,1.393
				c-0.405,0.257-0.82,0.408-1.249,0.453c-0.166,0.018-0.333,0.022-0.499,0.016c-0.405-0.028-0.868-0.063-1.392-0.103
				c-0.166-0.03-0.25,0.05-0.25,0.239v7.778c0,0.571-0.209,1.087-0.624,1.546c-0.417,0.46-0.91,0.721-1.481,0.781l-1.463,0.153
				c-0.262,0.026-0.48-0.039-0.659-0.198c-0.179-0.16-0.269-0.37-0.269-0.632c0-0.097-0.035-0.14-0.106-0.133l-11.918,1.253
				c-0.095,0.011-0.143,0.063-0.143,0.157c0,0.285-0.095,0.533-0.285,0.744c-0.19,0.21-0.429,0.33-0.713,0.36l-1.144,0.12
				c-0.57,0.06-1.063-0.091-1.48-0.451c-0.416-0.361-0.624-0.838-0.624-1.435v-7.635c0-0.072-0.023-0.123-0.071-0.153
				c-0.047-0.03-0.105-0.042-0.179-0.034c-0.81,0.322-1.652,0.626-2.532,0.908c-0.191,0.068-0.369,0.11-0.535,0.128
				c-0.381,0.04-0.762-0.026-1.143-0.2c-0.523-0.23-0.928-0.604-1.213-1.122c-0.024-0.044-0.048-0.078-0.071-0.101
				c-0.119-0.225-0.179-0.457-0.179-0.693c0-0.216,0.048-0.435,0.144-0.657c0.189-0.472,0.522-0.771,0.998-0.891
				c3.877-1.168,7.374-2.596,10.491-4.278c0.07-0.031,0.105-0.075,0.105-0.136c0-0.06-0.023-0.1-0.07-0.117
				c-1.023-0.63-1.986-1.325-2.892-2.087c-0.118-0.106-0.25-0.104-0.393,0.006c-0.762,0.556-1.546,1.09-2.354,1.604
				c-0.356,0.203-0.714,0.324-1.07,0.361c-0.19,0.021-0.393,0.019-0.605-0.008c-0.57-0.082-1.059-0.34-1.463-0.773
				c-0.023-0.044-0.061-0.077-0.107-0.095c-0.262-0.259-0.393-0.564-0.393-0.923c0-0.095,0.012-0.191,0.036-0.289
				c0.095-0.462,0.356-0.823,0.784-1.082c3.664-2.073,6.387-4.465,8.171-7.174c0.022-0.051,0.022-0.099,0-0.144
				c-0.022-0.046-0.07-0.063-0.143-0.057l-6.173,0.649c-0.166,0.018-0.25,0.12-0.25,0.312v1.677c0,0.571-0.209,1.087-0.623,1.546
				c-0.418,0.462-0.91,0.722-1.481,0.78l-0.072,0.008c-0.594,0.063-1.093-0.093-1.498-0.468c-0.403-0.372-0.605-0.846-0.605-1.417
				v-3.782c0-0.594,0.202-1.113,0.605-1.562c0.405-0.446,0.904-0.702,1.498-0.765l10.955-1.151c0.166-0.019,0.249-0.121,0.249-0.313
				v-0.569c0-0.596,0.208-1.115,0.625-1.564c0.415-0.448,0.91-0.702,1.48-0.763l0.25-0.025c0.595-0.063,1.094,0.087,1.499,0.448
				c0.402,0.363,0.605,0.841,0.605,1.436v0.57c0,0.19,0.095,0.275,0.285,0.255l11.169-1.174c0.593-0.063,1.093,0.088,1.498,0.45
				c0.404,0.361,0.605,0.841,0.605,1.435v3.782c0,0.571-0.201,1.086-0.605,1.544c-0.405,0.459-0.905,0.72-1.498,0.782l-0.251,0.025
				c-0.57,0.061-1.063-0.096-1.479-0.47c-0.416-0.371-0.625-0.843-0.625-1.414v-1.677c0-0.189-0.084-0.276-0.25-0.26l-14.735,1.55
				c-0.024,0.002-0.035,0.015-0.035,0.038s0.011,0.035,0.035,0.033l2.104,0.171c0.382,0.055,0.645,0.26,0.786,0.612
				c0.144,0.354,0.094,0.697-0.143,1.031c-0.024,0.026-0.03,0.063-0.02,0.109c0.012,0.046,0.042,0.066,0.09,0.062l7.672-0.807
				C1162.859,661.212,1162.919,661.194,1162.99,661.162z M1150.073,682.395c0,0.191,0.095,0.275,0.285,0.257l11.633-1.224
				c0.166-0.018,0.249-0.121,0.249-0.312v-2.569c0-0.166-0.083-0.241-0.249-0.224l-11.633,1.223c-0.19,0.021-0.285,0.114-0.285,0.28
				V682.395z M1150.502,675.855c-0.024,0.003-0.03,0.021-0.018,0.056c0.012,0.034,0.028,0.05,0.053,0.048l11.347-1.193
				c0.023-0.002,0.041-0.016,0.055-0.04c0.012-0.024,0.005-0.049-0.02-0.068c-1.95-0.367-3.865-0.914-5.744-1.646
				c-0.166-0.054-0.334-0.036-0.5,0.054C1153.938,674.127,1152.215,675.058,1150.502,675.855z M1151.93,665.608
				c-0.071,0.007-0.139,0.038-0.195,0.092c-0.062,0.054-0.066,0.103-0.02,0.145c1.189,0.945,2.51,1.734,3.96,2.367
				c0.166,0.078,0.322,0.063,0.465-0.049c1.428-1.054,2.628-2.119,3.604-3.197c0.048-0.028,0.06-0.065,0.036-0.111
				c-0.024-0.045-0.06-0.064-0.106-0.061L1151.93,665.608z"/>
			<path fill="#FCD583" d="M1185.881,658.9c0,0.166,0.084,0.239,0.25,0.223l18.125-1.905c0.595-0.063,1.094,0.095,1.499,0.468
				c0.404,0.373,0.607,0.846,0.607,1.416v11.025c0,0.571-0.203,1.086-0.607,1.545c-0.405,0.459-0.904,0.72-1.499,0.782l-0.642,0.067
				c-0.452,0.048-0.838-0.073-1.159-0.36c-0.322-0.287-0.482-0.656-0.482-1.108c0-0.143-0.069-0.207-0.214-0.19l-16.449,1.729
				c-0.189,0.021-0.297,0.114-0.319,0.284c-0.786,3.792-2.011,6.99-3.675,9.591c-0.311,0.461-0.75,0.733-1.321,0.816l-0.036,0.004
				c-0.546,0.058-1.011-0.084-1.391-0.424c-0.096-0.063-0.203-0.134-0.321-0.217c-0.429-0.287-0.679-0.702-0.749-1.241
				c-0.024-0.141-0.035-0.271-0.035-0.389c0-0.404,0.105-0.798,0.32-1.177c0.784-1.271,1.438-2.631,1.963-4.077
				c0.521-1.445,0.903-2.919,1.142-4.42c0.237-1.499,0.393-2.836,0.464-4.01c0.071-1.172,0.106-2.46,0.106-3.864v-8.526
				c0-0.547,0.215-0.997,0.643-1.353c0.286-0.269,0.595-0.42,0.928-0.455c0.144-0.016,0.297-0.007,0.465,0.022l0.643,0.111
				c0.166,0.029,0.333,0.023,0.499-0.018c6.042-1.396,11.204-2.927,15.485-4.59c0.356-0.132,0.714-0.217,1.07-0.255
				c0.261-0.027,0.535-0.021,0.82,0.021c0.642,0.075,1.199,0.303,1.677,0.68l0.393,0.315c0.262,0.234,0.394,0.506,0.394,0.815
				c0,0.095-0.014,0.203-0.036,0.323c-0.119,0.466-0.404,0.78-0.856,0.946c-4.78,1.812-10.597,3.48-17.446,5.01
				c-0.166,0.042-0.25,0.157-0.25,0.349v2.036H1185.881z M1185.667,668.271c-0.024,0.169,0.047,0.244,0.214,0.228l15.808-1.662
				c0.189-0.02,0.284-0.112,0.284-0.279v-4.815c0-0.166-0.095-0.24-0.284-0.221l-15.558,1.636c-0.166,0.018-0.25,0.109-0.25,0.275
				C1185.881,665.001,1185.81,666.614,1185.667,668.271z"/>
		</g>
	</g>
	<g>
		<defs>
			<rect id="SVGID_17_" x="981.333" y="568.177" width="471.706" height="151.579"/>
		</defs>
		<clipPath id="SVGID_18_">
			<use xlink:href="#SVGID_17_"  overflow="visible"/>
		</clipPath>
		<g clip-path="url(#SVGID_18_)">
			<path fill="#FFFFFF" d="M1214.381,662.148c0-0.571,0.208-1.086,0.625-1.548c0.415-0.46,0.91-0.72,1.48-0.778l29.4-3.091
				c0.57-0.061,1.064,0.097,1.48,0.469c0.416,0.373,0.624,0.845,0.624,1.416v0.499c0,0.57-0.208,1.087-0.624,1.546
				c-0.416,0.461-0.91,0.721-1.48,0.78l-29.4,3.09c-0.57,0.061-1.065-0.096-1.48-0.469c-0.417-0.371-0.625-0.845-0.625-1.415
				V662.148z"/>
			<path fill="#FFFFFF" d="M1279.733,646.073c0.355-0.156,0.714-0.253,1.069-0.291c0.166-0.019,0.333-0.022,0.5-0.018
				c0.547,0.039,1.011,0.216,1.392,0.532c0.309,0.229,0.423,0.55,0.339,0.963c-0.084,0.414-0.315,0.699-0.695,0.858
				c-0.333,0.153-0.654,0.295-0.964,0.423c-0.167,0.064-0.213,0.178-0.143,0.336c0.785,1.964,1.854,3.408,3.212,4.336
				c0.332,0.251,0.535,0.587,0.605,1.007c0,0.071,0,0.144,0,0.214c0,0.357-0.106,0.69-0.321,0.998
				c-0.334,0.439-0.726,0.742-1.178,0.908c-0.119,0.036-0.227,0.061-0.32,0.069c-0.356,0.037-0.679-0.06-0.964-0.291
				c-0.762-0.609-1.463-1.381-2.104-2.313c-0.024-0.021-0.053-0.022-0.089-0.008s-0.054,0.06-0.054,0.131
				c0,0.547-0.168,1.04-0.5,1.479c-0.381,0.469-0.845,0.767-1.392,0.896c-0.81,0.182-1.714,0.396-2.712,0.644
				c-0.738,0.172-1.355,0.32-1.855,0.444c-0.07,0.007-0.144,0.016-0.214,0.022c-0.355,0.037-0.679-0.036-0.964-0.222
				c-0.381-0.245-0.595-0.592-0.642-1.037l-0.036-0.141c0-0.048,0-0.106,0-0.179c0-0.333,0.105-0.629,0.321-0.891
				c0.262-0.358,0.595-0.572,0.998-0.641c0.12-0.012,0.179-0.077,0.179-0.196v-5.815c0-0.047-0.017-0.075-0.053-0.083
				s-0.066,0.001-0.09,0.026c-0.167,0.326-0.333,0.642-0.499,0.943c-0.238,0.383-0.561,0.666-0.964,0.853
				c-0.215,0.094-0.423,0.149-0.625,0.172c-0.202,0.021-0.41,0.008-0.623-0.041c-0.356-0.081-0.607-0.293-0.75-0.636
				c-0.144-0.342-0.119-0.688,0.07-1.043c0.356-0.75,0.666-1.496,0.928-2.237c0.023-0.073,0.019-0.131-0.018-0.177
				c-0.036-0.044-0.089-0.063-0.161-0.055l-3.925,0.412c-0.047,0.005-0.083,0.033-0.105,0.084c-0.024,0.05-0.024,0.097,0,0.143
				c0.521,0.657,0.938,1.233,1.248,1.725c0.118,0.201,0.18,0.422,0.18,0.659c0,0.167-0.024,0.323-0.072,0.472
				c-0.143,0.419-0.416,0.733-0.82,0.942c-0.214,0.116-0.417,0.187-0.606,0.205c-0.19,0.021-0.381,0.005-0.569-0.047
				c-0.405-0.101-0.714-0.329-0.929-0.688c-0.142-0.271-0.298-0.551-0.464-0.843c-0.023-0.047-0.053-0.062-0.089-0.046
				c-0.036,0.018-0.055,0.043-0.055,0.077c0,0.036,0,0.078,0,0.125c-0.023,0.169-0.036,0.277-0.036,0.325
				c-0.236,4.544-0.642,7.191-1.213,7.941c-0.499,0.646-1.152,1.049-1.963,1.206c-0.261,0.075-0.547,0.14-0.854,0.195
				c-0.071,0.008-0.131,0.015-0.179,0.02c-0.5,0.053-0.94-0.079-1.319-0.396c-0.453-0.332-0.773-0.799-0.964-1.396
				c-0.072-0.208-0.155-0.4-0.25-0.581c-0.023-0.045-0.061-0.065-0.107-0.062c-0.047,0.005-0.095,0.034-0.143,0.086
				c-0.596,1.087-1.403,2.064-2.426,2.934c-0.264,0.193-0.535,0.306-0.821,0.336c-0.119,0.013-0.249,0.015-0.394,0.005
				c-0.428-0.074-0.783-0.285-1.069-0.637c-0.213-0.239-0.321-0.524-0.321-0.858c0-0.499,0.189-0.912,0.571-1.236
				c0.5-0.456,0.916-0.94,1.249-1.451c0.547-0.892,0.951-1.955,1.213-3.195c0.022-0.17-0.061-0.244-0.249-0.225l-0.644,0.066
				c-0.428,0.046-0.784-0.06-1.069-0.314s-0.428-0.585-0.428-0.989c0-0.429,0.143-0.801,0.428-1.115
				c0.285-0.315,0.643-0.496,1.069-0.542l9.455-0.993c0.071-0.008,0.083-0.044,0.036-0.109c-0.12-0.179-0.144-0.372-0.071-0.581
				c0.071-0.21,0.215-0.373,0.429-0.491l1.035-0.502c0.022-0.025,0.036-0.051,0.036-0.075c0-0.022-0.014-0.034-0.036-0.032
				l-11.168,1.175c-0.478,0.05-0.882-0.073-1.214-0.371c-0.334-0.298-0.5-0.68-0.5-1.144s0.166-0.88,0.5-1.248
				c0.332-0.368,0.736-0.578,1.214-0.628l11.987-1.26c0.166-0.018,0.25-0.109,0.25-0.275v-0.464c0-0.57,0.208-1.086,0.624-1.547
				c0.416-0.459,0.91-0.72,1.481-0.78l0.07-0.007c0.57-0.061,1.063,0.097,1.48,0.468c0.416,0.374,0.625,0.846,0.625,1.416v0.465
				c0,0.166,0.082,0.239,0.249,0.223l12.346-1.297c0.477-0.051,0.88,0.074,1.213,0.372s0.5,0.679,0.5,1.143s-0.167,0.88-0.5,1.248
				s-0.736,0.576-1.213,0.627l-10.598,1.113c-0.024,0.003-0.036,0.017-0.036,0.04s0.012,0.035,0.036,0.032l0.355,0.068
				c0.333,0.062,0.565,0.25,0.696,0.569c0.131,0.318,0.103,0.644-0.089,0.972c-0.048,0.103-0.013,0.157,0.106,0.168l1.284,0.15
				c0.166,0.03,0.332,0.013,0.499-0.053C1277.069,647.21,1278.521,646.653,1279.733,646.073z M1275.951,659.494
				c0.143-0.016,0.214-0.094,0.214-0.236c0-0.452,0.161-0.854,0.48-1.21c0.321-0.354,0.709-0.557,1.16-0.604l0.644-0.067
				c0.569-0.061,1.063,0.097,1.479,0.469c0.415,0.373,0.624,0.844,0.624,1.415v11.597c0,0.57-0.209,1.087-0.624,1.547
				c-0.417,0.46-0.91,0.72-1.479,0.779l-0.179,0.02c-0.571,0.06-1.065-0.098-1.481-0.469c-0.416-0.373-0.624-0.846-0.624-1.416
				v-3.141c0-0.189-0.084-0.275-0.25-0.259l-15.057,1.583c-0.167,0.018-0.285,0.113-0.357,0.287
				c-0.784,1.795-1.938,3.367-3.46,4.717c-0.357,0.299-0.728,0.469-1.106,0.509c-0.143,0.016-0.285,0.005-0.429-0.025
				c-0.548-0.063-1.022-0.298-1.428-0.706c-0.07-0.089-0.154-0.176-0.249-0.261c-0.286-0.304-0.429-0.669-0.429-1.097
				c0-0.072,0-0.143,0-0.215c0.048-0.527,0.273-0.968,0.678-1.318c1.047-0.942,1.808-1.938,2.284-2.987
				c0.666-1.545,0.999-3.233,0.999-5.064v-1.642c0-0.571,0.208-1.086,0.624-1.547c0.416-0.46,0.91-0.721,1.48-0.779l0.571-0.062
				c0.451-0.047,0.838,0.073,1.159,0.359c0.32,0.288,0.48,0.657,0.48,1.11c0,0.143,0.071,0.205,0.215,0.19L1275.951,659.494z
				 M1260.822,651.88c0-0.167-0.083-0.241-0.249-0.224l-1.643,0.172c-0.19,0.021-0.298,0.114-0.32,0.284
				c-0.238,1.45-0.596,2.689-1.07,3.716c-0.024,0.074-0.018,0.133,0.018,0.176c0.036,0.045,0.076,0.076,0.125,0.095
				c0.737-0.029,1.297-0.064,1.679-0.104c0.379-0.04,0.665-0.188,0.854-0.446C1260.501,655.23,1260.703,654.01,1260.822,651.88z
				 M1261.536,665.827c-0.024,0.169,0.059,0.243,0.25,0.223l14.129-1.484c0.166-0.019,0.25-0.121,0.25-0.313v-1.284
				c0-0.166-0.084-0.24-0.25-0.224l-13.986,1.471c-0.19,0.021-0.285,0.113-0.285,0.279
				C1261.595,665.048,1261.56,665.491,1261.536,665.827z M1266.353,652.725c0-0.522,0.19-0.994,0.571-1.415
				c0.382-0.421,0.832-0.658,1.355-0.714c0.522-0.055,0.976,0.088,1.355,0.43c0.38,0.341,0.57,0.771,0.57,1.296v3.604
				c0,0.523-0.19,0.995-0.57,1.416c-0.381,0.421-0.833,0.658-1.355,0.713c-0.523,0.056-0.976-0.087-1.355-0.428
				s-0.571-0.772-0.571-1.297V652.725z M1276.879,650.12c-0.167,0.042-0.25,0.146-0.25,0.312v2.927c0,0.189,0.083,0.266,0.25,0.225
				c0.333-0.083,0.772-0.166,1.319-0.246c0.5-0.101,0.904-0.179,1.213-0.235c0.048-0.027,0.09-0.067,0.126-0.119
				s0.042-0.111,0.018-0.181c-0.522-0.943-0.938-1.888-1.248-2.831c-0.049-0.16-0.155-0.209-0.321-0.144
				C1277.58,649.939,1277.212,650.038,1276.879,650.12z"/>
			<path fill="#FFFFFF" d="M1298.522,668.611c-0.597,0.063-1.096-0.094-1.5-0.467s-0.605-0.847-0.605-1.418v-20.158
				c0-0.19-0.096-0.275-0.286-0.256l-5.209,0.548c-0.595,0.063-1.094-0.087-1.499-0.45c-0.404-0.36-0.605-0.839-0.605-1.435v-0.284
				c0-0.571,0.201-1.086,0.605-1.545c0.405-0.459,0.904-0.721,1.499-0.782l16.449-1.729c0.594-0.063,1.094,0.094,1.498,0.467
				c0.404,0.375,0.605,0.847,0.605,1.418v0.284c0,0.596-0.202,1.116-0.605,1.563c-0.404,0.448-0.904,0.703-1.498,0.766l-5.28,0.556
				c-0.191,0.021-0.286,0.125-0.286,0.314v20.159c0,0.571-0.203,1.087-0.605,1.545c-0.405,0.459-0.904,0.719-1.499,0.781
				L1298.522,668.611z"/>
			<path fill="#FFFFFF" d="M1326.568,665.432c-1.178,0.61-2.414,0.985-3.71,1.122c-1.297,0.137-2.533,0.021-3.711-0.342
				c-1.179-0.363-2.219-0.944-3.122-1.742c-0.904-0.796-1.63-1.85-2.178-3.161c-0.547-1.31-0.819-2.784-0.819-4.427
				c0-1.641,0.272-3.181,0.819-4.618c0.548-1.436,1.272-2.652,2.178-3.652c0.903-0.999,1.943-1.805,3.122-2.416
				c1.178-0.61,2.413-0.985,3.711-1.121c1.296-0.137,2.532-0.022,3.71,0.341c1.179,0.365,2.219,0.951,3.123,1.76
				c0.903,0.811,1.629,1.875,2.177,3.196c0.546,1.322,0.82,2.805,0.82,4.445c0,1.642-0.274,3.175-0.82,4.6
				c-0.548,1.426-1.272,2.632-2.177,3.618C1328.787,664.021,1327.747,664.821,1326.568,665.432z M1319.665,660.805
				c0.761,1.052,1.825,1.503,3.193,1.359c1.367-0.145,2.433-0.82,3.192-2.03c0.761-1.21,1.143-2.79,1.143-4.741
				c0-1.949-0.382-3.462-1.143-4.535s-1.825-1.538-3.192-1.396c-1.368,0.143-2.434,0.833-3.193,2.065
				c-0.762,1.234-1.142,2.825-1.142,4.775C1318.522,658.255,1318.903,659.756,1319.665,660.805z"/>
			<path fill="#FFFFFF" d="M1344.163,664.314c-4.188,0.438-6.279-2.063-6.279-7.512v-10.669c0-0.595,0.201-1.114,0.606-1.563
				c0.403-0.445,0.902-0.701,1.499-0.765l1.142-0.119c0.594-0.063,1.094,0.088,1.499,0.448c0.404,0.362,0.605,0.841,0.605,1.437
				v9.99c0,1.547,0.227,2.615,0.679,3.212c0.451,0.594,1.178,0.839,2.176,0.732c0.81-0.085,1.511-0.336,2.104-0.756
				c0.596-0.419,1.227-1.092,1.893-2.019c0.118-0.133,0.179-0.292,0.179-0.482v-11.418c0-0.595,0.201-1.115,0.605-1.563
				c0.403-0.445,0.903-0.701,1.499-0.765l1.142-0.119c0.595-0.063,1.094,0.088,1.499,0.448c0.404,0.363,0.605,0.841,0.605,1.436
				v16.234c0,0.571-0.201,1.087-0.605,1.545c-0.405,0.459-0.904,0.72-1.499,0.782l-0.143,0.015c-0.618,0.065-1.153-0.075-1.605-0.42
				s-0.714-0.811-0.785-1.397l-0.106-0.773c-0.023-0.045-0.06-0.065-0.106-0.061c-0.047,0.004-0.084,0.032-0.105,0.083
				C1348.729,662.716,1346.566,664.063,1344.163,664.314z"/>
			<path fill="#FFFFFF" d="M1364.38,661.689c-0.594,0.063-1.094-0.094-1.498-0.468c-0.404-0.373-0.605-0.847-0.605-1.418V643.57
				c0-0.596,0.201-1.114,0.605-1.563c0.404-0.444,0.904-0.701,1.498-0.764l0.179-0.02c0.596-0.063,1.112,0.079,1.553,0.427
				c0.439,0.346,0.695,0.813,0.768,1.398l0.143,1.448c0,0.049,0.023,0.069,0.071,0.064s0.083-0.032,0.107-0.084
				c0.736-1.361,1.617-2.453,2.64-3.274c1.023-0.82,2.07-1.287,3.142-1.4c0.118-0.012,0.236-0.023,0.356-0.037
				c0.594-0.037,1.046,0.188,1.355,0.68c0.214,0.334,0.319,0.716,0.319,1.144c0,0.166-0.012,0.335-0.035,0.503l-0.106,0.547
				c-0.118,0.536-0.416,0.983-0.893,1.344c-0.476,0.359-1.011,0.569-1.604,0.633c-0.024,0.002-0.049,0.005-0.072,0.007
				c-0.854,0.09-1.7,0.487-2.532,1.194c-0.834,0.706-1.522,1.729-2.069,3.071c-0.07,0.174-0.106,0.345-0.106,0.511v9.848
				c0,0.571-0.203,1.087-0.606,1.546c-0.403,0.458-0.903,0.719-1.498,0.781L1364.38,661.689z"/>
			<path fill="#FFFFFF" d="M1390.098,649.424c-0.166,0.019-0.249,0.11-0.249,0.276v5.814c0,0.191,0.083,0.313,0.249,0.366
				c1.762,0.576,4.532,0.665,8.313,0.269c7.23-0.761,11.562-1.228,12.988-1.4l0.035-0.004c0.451-0.047,0.797,0.106,1.034,0.463
				c0.144,0.223,0.216,0.465,0.216,0.727c0,0.166-0.036,0.35-0.108,0.548c-0.047,0.1-0.083,0.211-0.106,0.332
				c-0.214,0.615-0.564,1.136-1.053,1.555c-0.487,0.421-1.04,0.663-1.659,0.729l-11.382,1.196c-3.782,0.397-6.791,0.345-9.027-0.158
				c-2.235-0.502-4.056-1.737-5.459-3.707c-0.023-0.045-0.061-0.059-0.105-0.042c-0.049,0.018-0.085,0.051-0.108,0.101
				c-0.355,1.774-0.819,3.355-1.391,4.749c-0.167,0.422-0.478,0.681-0.929,0.775c-0.07,0.007-0.13,0.015-0.178,0.02
				c-0.381,0.04-0.715-0.057-1-0.287c-0.404-0.339-0.678-0.751-0.819-1.234c-0.048-0.232-0.071-0.469-0.071-0.707
				c0-0.285,0.047-0.575,0.143-0.871c0.951-2.738,1.428-6.31,1.428-10.711v-1.142c0-0.451,0.166-0.861,0.499-1.23
				c0.334-0.344,0.714-0.539,1.143-0.584c0.023-0.003,0.061-0.007,0.106-0.012c0.501-0.027,0.922,0.118,1.267,0.438
				c0.345,0.319,0.518,0.729,0.518,1.229c0.023,0.427,0.036,0.817,0.036,1.175c0,0.355-0.013,0.691-0.036,1.002
				c0,0.167,0.023,0.344,0.072,0.528c0.427,1.239,0.915,2.282,1.463,3.129c0.023,0.046,0.054,0.061,0.089,0.044
				c0.035-0.016,0.055-0.047,0.055-0.095v-9.67c0-0.189-0.084-0.276-0.25-0.259l-4.104,0.431c-0.522,0.056-0.976-0.081-1.354-0.41
				c-0.381-0.328-0.571-0.76-0.571-1.296c0-0.535,0.189-1.007,0.571-1.416c0.38-0.408,0.832-0.64,1.354-0.695l3.318-0.349
				c0.189-0.02,0.285-0.124,0.285-0.314v-2.463c0-0.166-0.096-0.238-0.285-0.22l-2.569,0.271c-0.499,0.052-0.934-0.087-1.302-0.417
				c-0.369-0.329-0.553-0.758-0.553-1.28s0.184-0.987,0.553-1.396c0.368-0.406,0.803-0.637,1.302-0.688l2.569-0.271
				c0.189-0.02,0.285-0.111,0.285-0.278v-1.499c0-0.522,0.189-0.995,0.57-1.416c0.382-0.42,0.839-0.659,1.374-0.717
				c0.535-0.056,0.993,0.088,1.373,0.428c0.381,0.341,0.571,0.772,0.571,1.296v1.499c0,0.167,0.095,0.24,0.286,0.22l2.711-0.285
				c0.19-0.02,0.286-0.111,0.286-0.278c0-0.596,0.201-1.115,0.604-1.563c0.404-0.446,0.904-0.701,1.5-0.764l13.486-1.418
				c0.5-0.052,0.928,0.082,1.284,0.399c0.356,0.32,0.535,0.729,0.535,1.229c0,0.499-0.179,0.946-0.535,1.34
				c-0.356,0.395-0.784,0.618-1.284,0.67l-4.354,0.458c-0.166,0.019-0.249,0.11-0.249,0.276v1.784c0,0.166,0.083,0.239,0.249,0.223
				l5.852-0.615c1-0.104,1.736-0.111,2.213-0.018c0.31,0.063,0.555,0.215,0.731,0.458c0.179,0.243,0.255,0.532,0.23,0.867
				c-0.499,4.857-1.392,8.982-2.676,12.377c-0.071,0.175-0.06,0.327,0.035,0.461c0.666,0.953,1.392,1.779,2.178,2.481
				c0.356,0.319,0.535,0.753,0.535,1.3c0,0.452-0.143,0.871-0.429,1.26c-0.334,0.438-0.738,0.707-1.213,0.805
				c-0.071,0.008-0.144,0.016-0.215,0.021c-0.404,0.044-0.762-0.073-1.07-0.351c-0.523-0.517-1.034-1.104-1.534-1.766
				c-0.022-0.047-0.071-0.064-0.143-0.058c-0.072,0.007-0.119,0.036-0.144,0.086c-0.31,0.509-0.643,1.009-0.999,1.497
				c-0.31,0.39-0.678,0.606-1.104,0.651c-0.072,0.008-0.132,0.002-0.179-0.019c-0.523,0.01-0.964-0.184-1.32-0.573
				c-0.285-0.327-0.56-0.597-0.82-0.807c-0.023-0.021-0.061-0.018-0.106,0.012c-0.048,0.028-0.071,0.066-0.071,0.114v1.32
				c0,0.476-0.166,0.896-0.5,1.266c-0.333,0.367-0.737,0.576-1.213,0.626c-0.478,0.051-0.887-0.071-1.231-0.368
				c-0.344-0.298-0.517-0.685-0.517-1.159v-1.855c0-0.166-0.084-0.218-0.25-0.151c-1.688,0.559-3.521,1.179-5.494,1.861
				c-0.144,0.063-0.286,0.102-0.429,0.116c-0.333,0.034-0.643-0.027-0.928-0.188c-0.429-0.217-0.69-0.569-0.785-1.06
				c-0.023-0.116-0.035-0.232-0.035-0.353c0-0.357,0.105-0.69,0.32-0.998c0.262-0.433,0.643-0.723,1.143-0.869
				c0.07-0.03,0.154-0.052,0.249-0.063c0.189-0.066,0.286-0.185,0.286-0.352V632.84c0-0.166-0.096-0.239-0.286-0.22l-0.856,0.09
				c-0.166,0.019-0.25,0.11-0.25,0.276v0.143c0,0.571-0.208,1.086-0.624,1.546c-0.417,0.462-0.909,0.722-1.479,0.78l-1.105,0.116
				c-0.19,0.021-0.285,0.113-0.285,0.279v2.462c0,0.19,0.095,0.275,0.285,0.256l1.854-0.194c0.547-0.058,1.005,0.078,1.374,0.408
				c0.368,0.33,0.553,0.762,0.553,1.297c0,0.536-0.185,1.008-0.553,1.415c-0.369,0.407-0.827,0.641-1.374,0.696l-1.249,0.132
				c-0.166,0.018-0.249,0.122-0.249,0.313v2.747c0,0.167,0.083,0.241,0.249,0.225l1.07-0.112c0.522-0.056,0.97,0.082,1.339,0.412
				c0.368,0.33,0.553,0.762,0.553,1.297s-0.186,1.007-0.553,1.415c-0.369,0.407-0.815,0.638-1.339,0.693L1390.098,649.424z
				 M1399.768,634.956c0.166-0.019,0.25-0.121,0.25-0.313v-2.426c0-0.166-0.084-0.241-0.25-0.224l-2.068,0.218
				c-0.167,0.018-0.25,0.11-0.25,0.276v2.426c0,0.19,0.083,0.277,0.25,0.26L1399.768,634.956z M1399.768,641.378
				c0.166-0.018,0.25-0.109,0.25-0.275v-2.604c0-0.189-0.084-0.276-0.25-0.259l-2.068,0.218c-0.167,0.018-0.25,0.122-0.25,0.313
				v2.604c0,0.166,0.083,0.24,0.25,0.223L1399.768,641.378z M1397.448,648.794c0,0.19,0.083,0.254,0.25,0.188l2.068-0.646
				c0.166-0.041,0.25-0.157,0.25-0.348v-3.068c0-0.189-0.084-0.276-0.25-0.259l-2.068,0.218c-0.167,0.019-0.25,0.121-0.25,0.313
				V648.794z M1408.974,636.985c0.023-0.168-0.049-0.244-0.215-0.229l-5.031,0.529c-0.166,0.018-0.248,0.109-0.248,0.275v0.929
				c0,0.189,0.082,0.253,0.248,0.188l0.535-0.199c0.166-0.039,0.333-0.07,0.5-0.089c0.381-0.039,0.737,0.03,1.07,0.209
				c0.5,0.259,0.821,0.663,0.964,1.221c0.261,0.972,0.571,1.926,0.928,2.862c0.023,0.021,0.054,0.03,0.089,0.026
				c0.036-0.004,0.065-0.03,0.091-0.08C1408.402,640.721,1408.759,638.84,1408.974,636.985z M1403.514,639.2
				c0-0.023-0.012-0.022-0.034,0.004v11.882c0,0.071,0.022,0.11,0.07,0.117c0.047,0.008,0.083-0.003,0.107-0.028
				c0.902-1.022,1.688-2.224,2.354-3.603c0.071-0.15,0.083-0.307,0.035-0.469C1405.049,644.88,1404.204,642.245,1403.514,639.2z"/>
			<path fill="#FFFFFF" d="M1436.396,653.442c-0.714,0.74-1.617,1.169-2.712,1.283c-1.095,0.115-1.997-0.122-2.711-0.714
				s-1.069-1.41-1.069-2.457c0-1.046,0.361-1.951,1.087-2.719c0.726-0.766,1.624-1.206,2.693-1.318
				c1.07-0.111,1.969,0.14,2.694,0.753s1.088,1.443,1.088,2.489C1437.467,651.808,1437.11,652.701,1436.396,653.442z
				 M1435.094,644.338c-0.392,0.397-0.855,0.625-1.392,0.682c-0.535,0.057-0.998-0.073-1.391-0.389
				c-0.395-0.315-0.625-0.743-0.696-1.284l-1.106-10.479l-0.105-3.344c0-0.57,0.202-1.086,0.605-1.544
				c0.404-0.459,0.893-0.719,1.463-0.778l2.463-0.259c0.57-0.061,1.058,0.097,1.463,0.471c0.403,0.373,0.595,0.848,0.57,1.42
				l-0.106,3.366l-1.07,10.709C1435.719,643.464,1435.486,643.939,1435.094,644.338z"/>
		</g>
	</g>
	<g>
		<defs>
			<rect id="SVGID_19_" x="981.333" y="568.177" width="471.706" height="151.579"/>
		</defs>
		<clipPath id="SVGID_20_">
			<use xlink:href="#SVGID_19_"  overflow="visible"/>
		</clipPath>
		
			<line clip-path="url(#SVGID_20_)" fill="none" stroke="#FCD583" stroke-width="3" stroke-linecap="round" stroke-miterlimit="10" x1="982.765" y1="718.324" x2="1214.509" y2="693.967"/>
	</g>
</g>
</svg>
