<svg xmlns="http://www.w3.org/2000/svg" viewBox="0 0 111.41 52.68"><defs><clipPath id="a"><path fill="none" d="M0 0h111.41v52.68H0z"/></clipPath></defs><g clip-path="url(#a)"><path d="M49.28 36.18a5.32 5.32 0 00-6.47 3 4.53 4.53 0 00-.17 3.45 4.78 4.78 0 01-.76-.8 4.08 4.08 0 01.64-5 8.42 8.42 0 014.95-2.28 8.62 8.62 0 014.28 1c.58.27 1.07.78 1.72.84s.93-.45 1.14-.91a10.56 10.56 0 011.37-2c.75-.94 2-1.67 2.81-2.61.54-.76-.26-1.54-.44-2.29-2.09-5.45 2-10.43 7-12.21a14 14 0 013.25-.72c.35-.05.79 0 1.08-.22.73 0 .5-1.73.52-2.22a7.68 7.68 0 00-.71-2.88C67.44 5.82 61 5.81 57.5 8.7c-.18-.47-.38-.93-.59-1.38C54 1.17 46.24-1.09 40 .48c-4.74 1.29-11.64 4.91-12.2 10.34-.06 1.27 1.16 1.58 2.16 1.84a6.88 6.88 0 011.46.79c3 1.92 5.73 6.22 3.4 9.57-1.67 2.4-4.91 4.09-7.81 3.1a4.27 4.27 0 01-2.72-2.57 4.38 4.38 0 01.34-2.71 4.19 4.19 0 005.77 3.56 5.15 5.15 0 003-3.79 7 7 0 00-3.13-6.73c-5.84-2.78-11.38 1.77-11.58 7.85a27 27 0 00.05 3.92 16 16 0 01.2 3c-.12 3-3 4.86-5.6 5.71a17.22 17.22 0 01-5.97.64 13.11 13.11 0 00-4.5.42 5.19 5.19 0 00-2.75 1.67.86.86 0 001 1.24 10.05 10.05 0 017.22.77c6.11 3.3 9.72 6.36 17.14 6.34 3.2 0 6.56-.48 9.26-2.33a5.6 5.6 0 01.57-.38 9.23 9.23 0 008.66 7 8.74 8.74 0 006.17-2.17 6.67 6.67 0 002.42-5.38c-.09-2.33-1-5.1-3.31-6m60.15-.79a13.07 13.07 0 00-5.29-3.07 23.33 23.33 0 00-8.68-.78 59.09 59.09 0 01-6.25.43c-3.37-.06-3.53-2.58-5.9-4.14-1.38-.95-3.1-1-4.66-1.45a3.12 3.12 0 01-2.12-3.63 3.82 3.82 0 011.88-2.5 2.62 2.62 0 00-.18.79c-.21 2.5 2.28 4.59 4.65 4.71 3 .2 4.69-3 5-5.56.56-6.84-8.12-9.17-12.83-5.37a7.89 7.89 0 00-2.79 3l-.64-.29c-1.82-.7-3.83-.3-5.66.18a9.13 9.13 0 00-3.31 1.76 9.33 9.33 0 00-3 6.61A8.46 8.46 0 0061 31c.68 1.09 1.89.59 2.94.68a10.45 10.45 0 013.7 1.08A8.23 8.23 0 0171.33 36c2.1 4.39-1.17 9.33-5.77 10.06-1.68.32-3.75.06-4.78-1.46a3 3 0 01-.62-2.69 6 6 0 001 1.9c2 2.25 4.84 1.87 6.93 0a5.86 5.86 0 001.1-6.12c-1.38-4.33-6.31-5.84-10.32-4.3a9 9 0 00-4.29 4.1A9.61 9.61 0 0056 48.84a10.87 10.87 0 008.34 3.81 13.58 13.58 0 0010.4-3.75 10.1 10.1 0 004.25 1c4.1.16 8.88-3.21 9.31-7.49a18.06 18.06 0 0010.34-2c1.51-.73 2.86-1.79 4.45-2.38 2.52-.8 5.23.48 7.37 1.74 2.32.21-.22-3.7-1-4.36" fill="#fff"/></g></svg>