<svg xmlns="http://www.w3.org/2000/svg" viewBox="0 0 215.76 261.54"><path d="M205.16 96.78a226.89 226.89 0 00-29.88-55.26C166.49 29.22 157 17.14 145.72 7a73.48 73.48 0 00-7.61-5.93A4.15 4.15 0 00135.92 0a13.3 13.3 0 00-3.43.81 43.06 43.06 0 00-7 3.69c-1.74.76-3.47 1.54-5.16 2.33a78.1 78.1 0 00-6.83 3.9c-2.22 1.38-4.44 2.79-6.75 4-4 2.15-7.28 5.31-11 7.81a79.93 79.93 0 00-10.38 7.92l-.43.45a4.38 4.38 0 01-1.34 1.11c-1 1-.12 2.16.72 3 .17.23.36.47.56.71l.24.29.35.39.32.36c.06.07.12.13.17.2l.94 1a10.26 10.26 0 01.81.93c6.62 7.51 13.12 15.12 19 23.16a24.35 24.35 0 00-6.72 8.58 15.76 15.76 0 00-.82 6.13c0 5.6.77 11.15 1 16.74v.42h.09c-2.1.26-3.22 2.08-3.77 4.47-.1.48-.19 1-.26 1.48s-.19 1.15-.29 1.73a90.14 90.14 0 01-3 11.89 133 133 0 01-5.09 13.07 92.75 92.75 0 01-22.73 31.13c-14.12 13.59-32.8 20.94-51.41 26.2C2.43 187.32-6 219.54 5.46 239c4.59 7.79 13.58 15.49 23.89 19.07 6.27 2.19 24.25-7.19 24.91-7.61A142.11 142.11 0 0084 224.33a154.66 154.66 0 0022.68-30.94 203.6 203.6 0 0015.17-35.19c3.36-9 4.85-18.6 6.11-28.12.1-1.29.55-6.26.74-11.31v-.72a1.77 1.77 0 000-.23V111c0-.24 0-.47-.06-.7v-.1c0-.19 0-.37-.05-.55a.68.68 0 010-.14c-.05-.4-.11-.78-.18-1.11v-.12c0-.13-.06-.26-.1-.38a.29.29 0 000-.09c0-.13-.09-.26-.13-.38v-.07c0-.09-.08-.18-.12-.25a.56.56 0 000-.08 1.06 1.06 0 00-.17-.23q2.43-1.41 4.73-3.05 2.19 4.08 4.3 8.18c1.74 3.54 3.57 7.08 5.15 10.68.89 1.75 1.25 4.71 3.77 4.55 9.83-1.14 19.19-4.87 28.27-8.62a238.41 238.41 0 0022.9-11.16 64.52 64.52 0 017.29-3.55c2.95-1.11 1.7-4.73.86-7.05zm-99.89-1.71z" fill="#e5ab5e" opacity=".3"/><path d="M116.22 83.56c-1.4 6.93-2.66 15.83 3.21 21.06 2.67 2.54 7.49 6.16 11.32 5.64a58.78 58.78 0 0016.48-10.57c4.42-4.25 8.85-9.32 9.87-15.57 1.35-7.37-1.55-15.72-8.41-19.34-14.77-7.78-29.78 3.67-32.47 18.78z" fill="#fff"/><path d="M93.25 32.24c-1 1-.12 2.15.72 3 1.18 1.58 3.07 3.4 3.38 3.89 8.75 9.92 17.28 20 24.54 31a419.7 419.7 0 0124.45 41.88c1.74 3.53 3.57 7.07 5.15 10.67.89 1.76 1.25 4.71 3.77 4.55 9.82-1.13 19.19-4.87 28.27-8.61a239.54 239.54 0 0022.89-11.17 67.3 67.3 0 017.3-3.55c3.15-1.07 1.9-4.69 1.06-7a227.41 227.41 0 00-29.87-55.2c-8.79-12.3-18.3-24.38-29.56-34.5a74.87 74.87 0 00-7.61-5.93 4.22 4.22 0 00-2.19-1.09c-3.81.36-7.09 2.53-10.39 4.5-1.74.76-3.47 1.54-5.16 2.33-4.72 2.31-9 5.45-13.58 7.94-4 2.15-7.28 5.3-11 7.81A78.19 78.19 0 0095 30.68a6.7 6.7 0 01-1.75 1.56z" fill="#d3373b"/><path d="M94 35.27c-.84-.88-1.74-2-.72-3A6.7 6.7 0 0095 30.68a78.19 78.19 0 0110.38-7.92c3.74-2.51 7-5.66 11-7.81C121 12.46 125.28 9.32 130 7c1.69-.79 3.42-1.57 5.16-2.33 3.3-2 6.58-4.14 10.39-4.5a4.22 4.22 0 012.19 1.09c.17.12.32.25.49.36 1.34 7 2 14.21.72 21.28a49.43 49.43 0 01-4.32 14.26 9.5 9.5 0 01-2.09 3.13c-3.25 2.45-7.69 1.2-11.47 1.41a242.18 242.18 0 01-34.51-3.48A38.28 38.28 0 0194 35.27z" fill="#375787"/><path d="M133.93 38.58c-.22 3.6 2.68 7.19 6.41 7.26a7.09 7.09 0 005-1.74 6.85 6.85 0 00-4.15-11.93 7.09 7.09 0 00-5 1.73 6.9 6.9 0 00-2.26 4.68zm8.8 39.81a3.13 3.13 0 001.57 3.5c7.39 4.71 15.61 8 23.84 10.89 2.59.82 5.12 2.14 7.81 2.48 1.86-.12 2.66-2 3-3.59.58-2.06 1-4.13 1.53-6.21a155.33 155.33 0 003.17-16.69 28.33 28.33 0 000-6.31c-.67-2.4-3.7-2.48-5.71-3.05-7.82-2.82-15.6-5.89-23.76-7.65-1.8-.76-3.41.61-4 2.24-2.71 6.24-4.37 12.87-6 19.47-.41 1.65-.89 3.3-1.45 4.92z" fill="#f2dcad"/><path d="M128 75.72a13.91 13.91 0 01-1.17.77c2 5.91 3.45 12.13 2.25 18.37a13.59 13.59 0 01-1.73 5.37 104.26 104.26 0 00-14.52-5.62 6.09 6.09 0 00-3-.42v-.41c-.2-5.6-.94-11.15-1-16.75a15.76 15.76 0 01.82-6.13c2.41-5.75 7.89-9.46 12.46-13.43 3.16-2.2 5.91-6.41 10.18-6 1.73.32 2.84 2 3.51 3.46 3.78 7.6-1.69 16.27-7.8 20.79z" fill="#fff"/><path d="M123.34 78.65c8.11-2.17 15.77-10.94 14.77-19.57-.55-2.75-1.81-6-4.71-7a1.69 1.69 0 00-2 .48.54.54 0 00.47.9 1.78 1.78 0 01.46 0c2.41.95 3.11 4.08 3.33 6.41.06 5.17-3.52 9.42-7.4 12.44a24.23 24.23 0 01-5.76 3.19 1.61 1.61 0 00.84 3.15z"/><path d="M63.89 250.67a142.11 142.11 0 0029.72-26.16 154.59 154.59 0 0022.68-30.93 203.7 203.7 0 0015.17-35.2c3.36-9 4.85-18.59 6.11-28.12.21-2.65 1.89-21-.25-23.31l-.07-.18c-1.17-2.65-4.2-3.72-6.61-5a115.49 115.49 0 00-17.83-7.17c-4.62-1.68-6.34 1.45-6.89 5.52a107.11 107.11 0 01-8.43 26.7 92.81 92.81 0 01-22.74 31.05c-14.16 13.6-32.8 20.94-51.41 26.2-11.28 3.44-27.34 26.2-20.9 47.87a44.46 44.46 0 0027.9 29.34c6.28 2.19 32.89-10.18 33.55-10.61z" fill="#a7191c"/><path d="M105.91 115.42c-1.12-.54-2.27-1.06-3.33-1.67a88.75 88.75 0 003.34-13.62c.55-4.07 2.27-7.21 6.89-5.52a115.49 115.49 0 0117.83 7.17c2.41 1.27 5.44 2.34 6.61 5l.07.18c1.53 1.63 1.11 11.49.66 18-3.76-.52-7.48-1.38-11.18-2.2a93.45 93.45 0 01-20.89-7.34z" fill="#fcd47d"/></svg>