<svg xmlns="http://www.w3.org/2000/svg" viewBox="0 0 209.99 166.14"><path d="M149.92 52.23c-11.06 1.84-22.29 3.88-33.56 3.76-12.77-.67-25.69-1.75-38.07-5-2.16-.64-4.29-1.27-6.47-1.99-.75-.25-1.49-.51-2.24-.78L69 48c-2.86-1-6-3.2-9-2.38a5.25 5.25 0 00-.63.22l-.11.07a20.76 20.76 0 00-2-2.38c-1.1-2.31-2.12-4.66-3.37-6.9a9.55 9.55 0 00-2.24-3 14.6 14.6 0 00-6-2.5c.72-6 1.87-11.85 3.11-17.73a7.22 7.22 0 01.15-.73c.06-.23.13-.51.19-.8v-.15l.06-.28.06-.32a1.43 1.43 0 000-.22 5.34 5.34 0 00.09-.53c.18-.71.31-1.57-.52-1.8a2.57 2.57 0 01-1-.18l-.35-.11a47.18 47.18 0 00-7.77-1.08c-2.35-.18-4.68-.72-7-.81h-1c-1.58 0-3.15 0-4.72-.11a46.46 46.46 0 00-4.72 0c-1.12.09-2.25.19-3.39.31-.86 0-1.72-.06-2.58 0h-.88a9.31 9.31 0 00-3.38.72 1.74 1.74 0 00-.29.25 2.88 2.88 0 00-.54 1 43.49 43.49 0 00-2.23 5.34C6 22.48 4.58 31.61 3.62 40.63a136.11 136.11 0 00.69 37.71c.24 1.46.66 3.72 2.62 3.35a39.39 39.39 0 014.86-.3 141.39 141.39 0 0015.26-.92c5.86-.72 11.85-1.53 17.32-3.83a1.4 1.4 0 00.81-1c11 15.54 34.26 22.45 51.1 28.81 7.26 2.43 14.4 5.2 21.63 7.74 9.19 3.53 23.16 8.26 30.53 15 0 0 17.39 14.53 24.19 33.25 2.16 5.92 6.09-39.79 8.27-56.07 4.1-30.62-30.98-52.14-30.98-52.14z" fill="#e5ab5e" opacity=".3"/><path d="M36.27 30.66c-3.35.61-6.62 1.58-10 2.22a76 76 0 01-9.15 1c-3.8.27-8-.43-11.4 1.61-8.44 6-.61 17.93 7.26 20.17 8 2.61 16.48 1.64 24.61 3.36 3.66.7 6.9 2.76 10.54 3.51 4.26.53 7.58-3 10.27-5.85 2.93-3.49 4.7-7 1.2-10.88-2.73-9.54-13.37-16.57-23.33-15.14z" fill="#fff"/><path d="M141.18 120.07c-7.37-6.78-16.72-10.64-25.9-14.18-7.23-2.54-14.37-5.31-21.64-7.73C74.7 91 47.59 83.16 39 63.09c0-3.15 2.5-5.62 4.21-8.06q5.28-6.95 11.24-13.35a12.93 12.93 0 012.2-2c3.4-1.5 7.08 1.37 10.35 2.32 15 5.49 31 6.92 46.78 7.76 11.27.11 51.42-2.19 62.49-4 0 0 37.55 45.21 33.46 75.82-1 7.62-1.44 19-12.25 28.34-12.28 10.68-35.08 18.83-35.43 15.49-3.82-36.17-20.87-45.34-20.87-45.34z" fill="#a7191c"/><path d="M56.67 39.63a12.93 12.93 0 00-2.2 2Q48.53 48.07 43.23 55c-1.71 2.44-4.17 4.91-4.21 8.06a38.13 38.13 0 0010.9 14.12c8.71-6.77 15.6-15.9 21.59-25.08 1.49-2.43 2.86-4.92 4.17-7.45C72.74 43.9 69.82 43 67 42c-3.27-.95-6.95-3.82-10.33-2.37z" fill="#fcd47d"/><path d="M46.11 2.39c.83.22.69 1.09.52 1.8-.16 1.18-.61 2.69-.63 3a169.91 169.91 0 00-3.67 23.47 252.42 252.42 0 00-.42 29.11c.14 2.36.22 4.75.46 7.1.05 1.18.74 2.83-.63 3.49-5.47 2.31-11.47 3.12-17.32 3.84a141.54 141.54 0 01-15.26.92 39.55 39.55 0 00-4.87.3c-2 .37-2.37-1.9-2.62-3.35A136.12 136.12 0 011 34.39c1-9 2.37-18.15 5.27-26.76a43.49 43.49 0 012.22-5.34 2.4 2.4 0 01.82-1.22c2.1-.94 4.45-.77 6.76-.71 1.14-.12 2.27-.22 3.39-.31 3.14-.19 6.28.2 9.44.14C31.61.14 34.26.82 37 1a47.21 47.21 0 017.72 1.1 4.07 4.07 0 001.39.29z" fill="#d3373b"/><path d="M46.63 4.19c.18-.71.31-1.58-.52-1.8a4.07 4.07 0 01-1.39-.29A47.21 47.21 0 0037 1C34.26.82 31.61.14 28.9.19c-3.16.06-6.3-.33-9.44-.14-1.12.09-2.25.19-3.39.31-2.31-.06-4.66-.23-6.76.71a2.4 2.4 0 00-.82 1.22c-.06.11-.1.22-.15.33A34.6 34.6 0 0014.24 14a29.83 29.83 0 006.46 6.18 5.82 5.82 0 002 1c2.42.33 4.38-1.64 6.41-2.64a146.62 146.62 0 0017-12c.19-.68.41-1.54.52-2.35z" fill="#375787"/><path d="M24.15 15.94a4.23 4.23 0 00-3.15.56 4.12 4.12 0 001.38 7.5 4.27 4.27 0 003.12-.57 4.11 4.11 0 00-1.35-7.46zM31.63 39a71.29 71.29 0 00-8.88-8.41 1.9 1.9 0 00-2.77 0 111.35 111.35 0 00-10.16 11c-.88.89-2.45 1.83-2.09 3.28a16.76 16.76 0 001.88 3.29A92.27 92.27 0 0016.2 56c.86.94 1.72 1.89 2.62 2.79.67.71 1.64 1.47 2.66 1a27.27 27.27 0 003.34-3.61 70.09 70.09 0 009.26-12.73 1.88 1.88 0 00-.22-2.29c-.77-.72-1.51-1.44-2.23-2.16z" fill="#f2dcad"/><path d="M40.78 35.37a7.91 7.91 0 00.84.06c.71 3.68 1.78 7.36 4.25 10.27a8.15 8.15 0 002.49 2.3 63 63 0 015.93-7.22 3.64 3.64 0 011.42-1.09l-.11-.22c-1.55-3-2.8-6.1-4.44-9a9.55 9.55 0 00-2.23-3c-3-2.29-6.92-2.61-10.48-3.34-2.3-.22-5-1.6-7.08-.11a3.21 3.21 0 00-.82 2.84c.28 5.04 5.7 7.96 10.23 8.51z" fill="#fff"/><path d="M44.08 35.53c-4.88 1.26-11.47-1.06-13.5-5.86-.52-1.6-.83-3.68.41-5a1 1 0 011.2-.36.32.32 0 010 .61A1.2 1.2 0 0032 25c-1 1.21-.42 3.05.15 4.33 1.5 2.72 4.62 3.89 7.54 4.32a14.51 14.51 0 003.95 0 1 1 0 01.44 1.88z"/></svg>