<svg xmlns="http://www.w3.org/2000/svg" viewBox="0 0 76.84 93.72"><defs><clipPath id="a"><path transform="rotate(-39.68 38.424 46.863)" fill="none" d="M-8.44 8.44h93.72v76.85H-8.44z"/></clipPath></defs><g clip-path="url(#a)"><path d="M52.6 84.2c-.15 2.14-2.8 2.17-4.43 2.27A70.67 70.67 0 0136.44 86a126.81 126.81 0 01-25.08-5.16C9.47 80.26 7.6 79.55 5.71 79c-1-.29-2.2-.53-2.79-1.54-1.11-1.89-1.08-4.21-1.17-6.34a64.73 64.73 0 01.77-9.32 149.87 149.87 0 0110.92-34.91c3.62-7.67 8.14-15.11 14.33-21a33.7 33.7 0 014.35-3.57A2.19 2.19 0 0134.21 2a42.32 42.32 0 006.14 2.1c2.85 1 5.69 2 8.56 2.94C54.65 9 60.32 11.21 66 13.41c2.68 1.11 5.27 2.4 7.86 3.71 1.48.72 2.83 1.41 1.38 3.14-2.09 2.8-4.36 5.48-6.24 8.43a90.06 90.06 0 00-5.45 10.73 101.05 101.05 0 00-6.94 19.68c-2.21 8.23-4.11 16.57-4 25.1" fill="#d3373b"/><path d="M59.91 29.2A151.83 151.83 0 0074.66 21l.55-.72c1.45-1.73.1-2.42-1.38-3.14-2.59-1.31-5.18-2.6-7.86-3.71C60.32 11.21 54.65 9 48.91 7.05 46 6.11 43.2 5.1 40.36 4.11A42.57 42.57 0 0134.2 2a2.1 2.1 0 00-1.78.15c-.06.54-.13 1.07-.15 1.6a40.56 40.56 0 008.78 27.06c5 6.13 13.22.86 18.86-1.62" fill="#375787"/><path d="M42.36 35.22a4.39 4.39 0 10-1-6.14 4.45 4.45 0 001 6.14m3.88 18c-.77-3.45-2.38-6.44-3.43-9.74-.51-1.69-1.5-4.41-3.73-3.19C35.72 41.46 32.25 42.64 29 44c-1.91.54-3.82 1.08-5.69 1.77-2.57.89-3.84 1.49-2.94 4.46a25.56 25.56 0 001.81 5.35c1.37 3 2.67 6.08 4.31 9 .9 1.52 2 2.09 3.6 1.06q4.47-2 8.72-4.51c2.34-1.3 4.84-2.34 7.08-3.8 1.53-1 .71-2.71.4-4.11" fill="#f2dcad"/></g></svg>