<svg xmlns="http://www.w3.org/2000/svg" viewBox="0 0 76.84 93.72"><defs><clipPath id="a"><path fill="none" d="M0 0h76.85v93.72H0z"/></clipPath></defs><g clip-path="url(#a)"><path d="M76.21 59.79c1.55 1.49-.12 3.54-1.09 4.86a68.44 68.44 0 01-7.83 8.74 126.71 126.71 0 01-20 16c-1.68 1.07-3.41 2-5.08 3.13-.89.61-1.81 1.35-3 1.16-2.16-.35-3.92-1.86-5.62-3.15A63.46 63.46 0 0127 84 149.53 149.53 0 017.1 53.33C3.5 45.65.67 37.42.11 28.91a34 34 0 010-5.62 2.21 2.21 0 011.08-1.82 42 42 0 005.54-3.4c2.58-1.55 5.18-3.09 7.73-4.7C19.65 10.2 25 7.25 30.27 4.3c2.56-1.36 5.21-2.53 7.87-3.68 1.51-.68 2.9-1.28 3.3.94C42.26 5 42.87 8.42 44 11.75a89.8 89.8 0 004.72 11.05 100.58 100.58 0 0010.74 17.88c4.91 7 10.12 13.74 16.75 19.11" fill="#d3373b"/><path d="M38.55 19.05a150.79 150.79 0 003.09-16.61c-.07-.29-.13-.58-.2-.88C41-.66 39.65-.06 38.14.62c-2.66 1.15-5.31 2.32-7.87 3.68-5.27 2.94-10.62 5.9-15.8 9.07-2.54 1.61-5.14 3.14-7.72 4.7a42 42 0 01-5.54 3.4 2.13 2.13 0 00-1 1.47c.37.38.74.78 1.13 1.14a40.53 40.53 0 0026.41 10.51c7.94 0 9.1-9.62 10.8-15.54" fill="#375787"/><path d="M32 36.4a4.39 4.39 0 10-5.33-3.18A4.44 4.44 0 0032 36.4m16.3 8.5c-3.15-1.61-6.47-2.28-9.69-3.58-1.62-.69-4.35-1.66-4.84.83-1.23 3.34-2.53 6.77-3.58 10.19-.8 1.82-1.61 3.63-2.27 5.51-1 2.55-1.3 3.91 1.56 5.11a25.78 25.78 0 005.27 2c3.19.87 6.39 1.82 9.64 2.4 1.76.28 2.9-.22 3.12-2.09.86-3.17 1.55-6.36 2.11-9.59.49-2.63 1.28-5.22 1.59-7.88.22-1.8-1.63-2.27-2.91-2.93" fill="#f2dcad"/></g></svg>