<svg xmlns="http://www.w3.org/2000/svg" viewBox="0 0 76.84 93.72"><defs><clipPath id="a"><path fill="none" d="M0 0h76.85v93.72H0z"/></clipPath></defs><g clip-path="url(#a)"><path d="M.63 59.79c-1.55 1.49.12 3.54 1.09 4.86a69.28 69.28 0 007.84 8.74 127.09 127.09 0 0020 16c1.68 1.07 3.41 2 5.08 3.13.9.61 1.82 1.35 3 1.16 2.16-.35 3.93-1.86 5.62-3.15A63.56 63.56 0 0049.89 84a149.9 149.9 0 0019.85-30.67c3.6-7.68 6.43-15.91 7-24.42a34 34 0 000-5.62 2.19 2.19 0 00-1.08-1.82 43.31 43.31 0 01-5.54-3.4c-2.58-1.55-5.17-3.09-7.72-4.7-5.21-3.17-10.52-6.12-15.83-9.07C44 2.94 41.36 1.77 38.71.62c-1.51-.68-2.9-1.28-3.3.94C34.59 5 34 8.42 32.9 11.75a93 93 0 01-4.77 11.05 101.17 101.17 0 01-10.74 17.88C12.47 47.64 7.27 54.42.63 59.79" fill="#d3373b"/><path d="M38.3 19.05a148.48 148.48 0 01-3.09-16.61c.06-.29.13-.58.2-.88.4-2.22 1.79-1.62 3.3-.94C41.36 1.77 44 2.94 46.57 4.3c5.31 2.94 10.62 5.9 15.8 9.07 2.55 1.61 5.14 3.14 7.72 4.7a43.31 43.31 0 005.54 3.4 2.1 2.1 0 011 1.47c-.37.38-.73.78-1.13 1.14a40.53 40.53 0 01-26.41 10.51C41.16 34.64 40 25 38.3 19.05" fill="#375787"/><path d="M44.87 36.4a4.39 4.39 0 10-3.18-5.34 4.45 4.45 0 003.18 5.34m-16.32 8.5c-1.28.66-3.13 1.13-2.91 2.93.31 2.66 1.1 5.25 1.59 7.88.56 3.23 1.25 6.42 2.1 9.59.22 1.87 1.37 2.37 3.12 2.09 3.26-.58 6.45-1.53 9.64-2.4a25.56 25.56 0 005.27-2c2.87-1.2 2.52-2.56 1.56-5.11-.66-1.88-1.47-3.69-2.27-5.51-1-3.42-2.35-6.85-3.58-10.19-.49-2.49-3.21-1.52-4.84-.83-3.21 1.3-6.54 2-9.68 3.58" fill="#f2dcad"/></g></svg>