<svg xmlns="http://www.w3.org/2000/svg" viewBox="0 0 495.52 323.69"><path d="M81.64 231.05a5.73 5.73 0 01-1.61 4 5.91 5.91 0 01-3.81 2l-2.75.29c-.07 0-.11.06-.14.15s0 .14 0 .14q5.61 2 10.47 4.22a2.88 2.88 0 011.84 2.84 3.83 3.83 0 01-1.47 3 7.24 7.24 0 01-4.22 1.91h-.19a6.9 6.9 0 01-4.13-.76q-3.76-2-8.27-3.9a3.18 3.18 0 01-2.11-2.63 3 3 0 01-.09-.72 4.1 4.1 0 011.2-2.79l.27-.21a.57.57 0 000-.38c0-.11-.14-.17-.32-.15l-14.7 1.62c-.06 0-.11.07-.14.2a.27.27 0 000 .27l1.1.52a3.44 3.44 0 011.65 3.14 3.82 3.82 0 01-1.65 3.11 75 75 0 01-12.12 7 8.81 8.81 0 01-2.34.61 7 7 0 01-2.25-.13 7.5 7.5 0 01-3.86-2.35c-.73-.84-1.41-1.57-2-2.18a.92.92 0 00-1.1-.25q-13.32 4-21.31 6.28a3.32 3.32 0 01-1 .29 4.88 4.88 0 01-5.14-3.59 4.29 4.29 0 01-.18-1.18 5.13 5.13 0 01.84-2.74 5.33 5.33 0 013.22-2.36c2.08-.53 4.47-1.17 7.16-1.95a.89.89 0 00.64-.89v-23.6c0-.49-.21-.71-.64-.67l-6.15.65a4.13 4.13 0 01-3.31-1 4.05 4.05 0 01-1.38-3.18 5 5 0 011.38-3.45 5.06 5.06 0 013.31-1.73l6.15-.64c.43-.05.64-.32.64-.81v-5.14c0-.49-.21-.71-.64-.67l-4.41.47a2.5 2.5 0 01-2-.62 2.45 2.45 0 01-.82-1.93v-.18c0-.06 0-.09-.1-.09-.49.55-.91.56-1.28 0-.74-.9-1.56-1.83-2.48-2.77a4.46 4.46 0 01-1.38-3.35 5.17 5.17 0 011.29-3.44 70.13 70.13 0 0010.47-16.62 7.87 7.87 0 012.48-3.2 6.9 6.9 0 013.58-1.47 9.42 9.42 0 017.57 2.27 72.93 72.93 0 017 7.08.24.24 0 00.32.1.5.5 0 00.32-.26 41.19 41.19 0 002.2-7.4 3.88 3.88 0 011.38-2.21 3.15 3.15 0 012.39-.76 3.09 3.09 0 012.48 3.69 1.09 1.09 0 01-.09.47c-.06.32.09.45.46.41l1.28-.13a.64.64 0 00.64-.71v-1.66a3.84 3.84 0 011.11-2.73 4.09 4.09 0 012.61-1.33 3.34 3.34 0 012.62.78 3.11 3.11 0 011.1 2.5v1.66c0 .42.22.62.65.57l2.75-.29a3 3 0 012.39.76 2.93 2.93 0 011 2.28 3.66 3.66 0 01-1 2.5 3.71 3.71 0 01-2.39 1.26l-2.75.29a.64.64 0 00-.65.71v2.66c0 .49.22.71.65.67l2.93-.31a3.19 3.19 0 012.53.74 3 3 0 011.06 2.37v.74a3.22 3.22 0 01-2.85 3.14.37.37 0 00-.37.41v3.49c0 .36.15.5.46.41l.46-.14a3.07 3.07 0 012.57.42 2.71 2.71 0 011.19 2.21c0 .06.05.1.14.13a1 1 0 00.23 0 12.1 12.1 0 003.22-7.41c0-.25-.13-.36-.37-.33a2.79 2.79 0 01-3.22-2.88v-.53a3.76 3.76 0 013.31-3.65.17.17 0 00.14-.11v-.08a2.17 2.17 0 00-.46-.32 5 5 0 01-2.66-3 7.08 7.08 0 01.09-4.23 38.85 38.85 0 001.38-5.2 3.78 3.78 0 011.38-2.21 3.27 3.27 0 012.48-.76A3.07 3.07 0 0168 169.8a1.09 1.09 0 01-.1.47c-.06.32.06.45.37.42l1.2-.12c.48-.05.73-.29.73-.72v-1.56a4.27 4.27 0 013.76-4.16 3.31 3.31 0 012.67.82 3.25 3.25 0 011.1 2.54v1.57c0 .43.21.62.64.57l4-.42a2.91 2.91 0 013.31 2.95 3.52 3.52 0 01-1 2.45 3.58 3.58 0 01-2.34 1.21l-4 .42a.64.64 0 00-.64.71v2.85c0 .49.21.71.64.67l5.79-.61a3.1 3.1 0 012.48.75 3 3 0 011 2.37 3.91 3.91 0 01-1 2.63 3.69 3.69 0 01-2.48 1.32l-3.22.34c-.49.05-.73.29-.73.72v6.24c0 .37.12.6.37.7a.91.91 0 00.45 0l1-.1a2.63 2.63 0 00.82-.18 2.44 2.44 0 00.55-1.16 7.84 7.84 0 00.19-1 1.72 1.72 0 01.92-1.34 1.53 1.53 0 011.56-.12 3.07 3.07 0 012.29 3 1.87 1.87 0 01-.09.56 12.8 12.8 0 01-.64 3c-1 1.88-2.76 3-5.33 3.22h-.09l-3.31.35q-3 .31-4.4-1a4.89 4.89 0 01-1.29-2.3 20.4 20.4 0 01-.37-4.6v-4.5c0-.43-.21-.62-.64-.58l-.83.09a.76.76 0 00-.73.72 24.91 24.91 0 01-2.34 8.47 16.62 16.62 0 01-5.56 6.13.21.21 0 000 .24c0 .09.07.13.13.12l13.41-1.41a4.85 4.85 0 013.81 1.16 4.65 4.65 0 011.61 3.69zm-78.88-1.71a4.7 4.7 0 01-.1-.91 3.86 3.86 0 01.56-1.9 4.27 4.27 0 012.19-1.85 5 5 0 01.92-.19 3 3 0 011.83.36 3 3 0 011.66 2q1 4.21 1.65 8.91a1.71 1.71 0 01.09.55 4.55 4.55 0 01-.73 2.46 4.71 4.71 0 01-2.56 1.91 1.85 1.85 0 01-.74.27 2.68 2.68 0 01-1.83-.45 2.86 2.86 0 01-1.29-2.16c-.37-2.77-.92-5.78-1.65-9zm25.71 10.61a5 5 0 01.92-.19 4.65 4.65 0 013 .69 4.29 4.29 0 011.93 3.29l.18 2.55c.06.48.31.61.73.38a60.23 60.23 0 0010.29-6c.12 0 .17-.08.14-.2a.19.19 0 00-.23-.15l-1.47.15a4.72 4.72 0 01-5.42-4.85v-23.73a5.81 5.81 0 011.56-4 5.87 5.87 0 013.86-2l16.53-1.74a.56.56 0 00.37-.68 22.4 22.4 0 00-2.48-2.86 1 1 0 00-1.2-.24 17.61 17.61 0 01-2.2.83c-1.41.48-2.48.86-3.22 1.12a3.63 3.63 0 01-1 .29 4 4 0 01-2-.34 3.8 3.8 0 01-1.93-2.19l-.42-1.4a1.71 1.71 0 01.23-1.58 2.42 2.42 0 011.33-1.06.27.27 0 00.27-.31v-4.4c0-.43-.21-.62-.64-.58l-1.56.16a.83.83 0 00-.83.73q-1.29 9.15-6.43 14.09a3.19 3.19 0 01-2.66 1 3.9 3.9 0 01-2.48-1.26 2.66 2.66 0 01-.78-2.26 4.52 4.52 0 011.03-2.53 14.92 14.92 0 003.76-8.57c.06-.25-.06-.36-.37-.33a2.84 2.84 0 01-2.34-.76 3 3 0 01-1-2.29v-.55a3.44 3.44 0 01.87-2.3 3.21 3.21 0 012.16-1.14c.06 0 .09-.07.09-.19a9.1 9.1 0 00-1.65-.84.72.72 0 00-1 .29l-2.91 3.68a4.24 4.24 0 01-2.85 1.59 1.71 1.71 0 01-.55 0 3.51 3.51 0 01-3-1.52 61.81 61.81 0 00-5.14-6.53c-.31-.34-.58-.28-.83.18a95.39 95.39 0 01-7.92 12.28.35.35 0 000 .37.26.26 0 00.27.16l14.93-1.61a4.08 4.08 0 013.21 1 3.91 3.91 0 011.33 3.08 4.85 4.85 0 01-1.38 3.41 5.05 5.05 0 01-3.16 1.7l-3.31.34c-.43.05-.64.32-.64.81v5.14c0 .49.21.71.64.67l5-.53a4.14 4.14 0 014.68 4.19 5.33 5.33 0 01-4.68 5.18l-5 .52c-.43.05-.64.31-.64.8v22c0 .43.21.59.64.49zm2.3-5.84a3.78 3.78 0 01-1.61 2.23 3.56 3.56 0 01-2.62.6 2.84 2.84 0 01-2.07-1.35 3.47 3.47 0 01-.41-2.53c.61-2.51 1.2-5.26 1.75-8.26a4.22 4.22 0 011.6-2.64 3.83 3.83 0 012-.86 2.24 2.24 0 01.82.1 3.2 3.2 0 012.39 1.49 3 3 0 01.55 1.78 2.9 2.9 0 01-.18 1c-.19.7-.52 2-1 4s-.92 3.49-1.22 4.44zm13-53.44c0-.43-.21-.62-.64-.58l-3.12.33a1.08 1.08 0 00-.92.74c-.24.64-.64 1.6-1.19 2.88a.6.6 0 000 .46c.06.12.18.16.36.15l4.87-.52c.43 0 .64-.31.64-.8zm26.27 32a.73.73 0 00.73-.81v-1.75c0-.48-.24-.7-.73-.65l-20.54 2.22a.73.73 0 00-.74.81v1.75c0 .49.25.7.74.65zm-21.31 10.78c0 .43.25.62.74.57l20.57-2.17c.49 0 .73-.29.73-.72v-1.83c0-.43-.24-.62-.73-.57l-20.57 2.16c-.49.06-.74.3-.74.72zm22 5.12c0-.43-.24-.62-.73-.56l-20.57 2.16c-.49.05-.74.29-.74.72v1.93c0 .49.25.71.74.65L70 231.31a.73.73 0 00.73-.81zm-.64-50.9c0-.42-.25-.61-.73-.56l-2.94.31a1.06 1.06 0 00-.92.74c-.49 1.15-1 2.18-1.38 3.08-.12.2-.14.35 0 .46a.43.43 0 00.42.14l4.87-.51a.73.73 0 00.73-.81zm83.73 37.53a7 7 0 013.12-3.26 6 6 0 012.29-.8 4.57 4.57 0 011.93.26h.55a3.57 3.57 0 012.57 2.49 4.56 4.56 0 01.19 1.36 4.47 4.47 0 01-.74 2.37 1.8 1.8 0 00-.18.25 1.26 1.26 0 01-.19.25c-1.46 2.42-2.78 4.48-3.94 6.2q-1.38 2.16-2.67 3.86a.33.33 0 00-.09.38.27.27 0 00.28.15l15.79-1.66a4.22 4.22 0 013.4 1 4.15 4.15 0 011.38 3.25 5.34 5.34 0 01-4.78 5.28l-70 7.36a4.22 4.22 0 01-3.4-1 4.17 4.17 0 01-1.38-3.26 5.13 5.13 0 011.38-3.54 5.18 5.18 0 013.4-1.73l12.85-1.35a.67.67 0 00.46-.24.43.43 0 00.1-.47 45.66 45.66 0 00-4.69-9.51 4.28 4.28 0 01-.64-2.32 5.32 5.32 0 01.18-1.4 4.81 4.81 0 012.48-3.11l2.94-1.59a.3.3 0 00.09-.19c0-.07-.06-.09-.18-.08l-8.91.94a4.23 4.23 0 01-3.4-1 4.18 4.18 0 01-1.37-3.26 5.32 5.32 0 014.77-5.27l23.05-2.42c.49-.06.74-.3.74-.73v-8.08c0-.42-.25-.61-.74-.56l-12.49 1.31a3.6 3.6 0 01-4-3.61.28.28 0 00-.14-.27.32.32 0 00-.32 0q-4 3.36-8.9 6.72a5.75 5.75 0 01-2.67 1 5.37 5.37 0 01-1.38 0 5.91 5.91 0 01-3.58-2.11l-.36-.33a4.17 4.17 0 01-.92-2.65 4.46 4.46 0 01.09-.84 4.22 4.22 0 012-3.15 112.57 112.57 0 0017.26-14.3 112.58 112.58 0 0012.86-15 11.46 11.46 0 018.45-5.39l.73-.07a9.67 9.67 0 018.73 3.4 80.49 80.49 0 0014.87 13.13 79.11 79.11 0 0017 9.05 3.17 3.17 0 012.2 2.61 2.4 2.4 0 01.19 1 4.45 4.45 0 01-.92 2.58l-.92 1.38a6.68 6.68 0 01-3.49 2.85 6.48 6.48 0 01-1.47.33 4.92 4.92 0 01-2.66-.45 102.91 102.91 0 01-9.18-4.91c-.13-.11-.23-.13-.32-.06a.33.33 0 00-.14.29 4.58 4.58 0 01-1.29 3.16 4.65 4.65 0 01-3 1.61l-12.95 1.36c-.49 0-.73.29-.73.72v8.08c0 .43.24.62.73.57l23.51-2.47a4.17 4.17 0 014.78 4.27 5.09 5.09 0 01-1.38 3.54 5.19 5.19 0 01-3.4 1.74l-23.51 2.47c-.49.05-.73.29-.73.72v17.44c0 .49.24.71.73.66l8.82-.92c.12 0 .18 0 .18-.12a.22.22 0 00-.09-.17l-.55-.13a3.84 3.84 0 01-2.48-2.58 5.6 5.6 0 01-.18-1.36 4.61 4.61 0 01.73-2.47c1.24-2.36 2.48-4.72 3.65-7.2zm-22.59-1.94c0-.43-.25-.62-.74-.56l-12.08 1.27a.42.42 0 00-.37.22.4.4 0 000 .37 53.88 53.88 0 016.25 9.26 5.44 5.44 0 01.46 2.16 6.36 6.36 0 01-.37 2.06 6.59 6.59 0 01-3 3.25l-2.11 1.14a.29.29 0 00-.1.2c0 .06.06.08.19.07l11.2-1.18a.73.73 0 00.74-.81zm-10-28.7c-.13.08-.16.17-.1.29s.13.17.19.16l32.51-3.42a.32.32 0 00.27-.21c.06-.13 0-.22-.09-.26a79.86 79.86 0 01-16.25-14.73c-.31-.34-.59-.31-.83.08a110 110 0 01-15.71 18.09z" fill="#14386c"/><path d="M212.49 229.15a4.66 4.66 0 01-3.85-1.21 4.74 4.74 0 01-1.56-3.64v-51.88c0-.49-.25-.71-.74-.66l-13.4 1.41a4.78 4.78 0 01-3.86-1.16 4.71 4.71 0 01-1.56-3.69v-.74a5.85 5.85 0 011.56-4 5.77 5.77 0 013.86-2l42.33-4.45a4.69 4.69 0 013.85 1.2 4.76 4.76 0 011.57 3.64v.74a6.09 6.09 0 01-5.42 6l-13.59 1.42a.75.75 0 00-.74.82v51.88a5.83 5.83 0 01-1.56 4 5.76 5.76 0 01-3.86 2zm66.2-7.95a34.08 34.08 0 01-10.92 2.89 31 31 0 01-10.93-.88 26.17 26.17 0 01-9.19-4.48 22.15 22.15 0 01-6.4-8.14 26.11 26.11 0 01-2.42-11.39 29.47 29.47 0 012.42-11.89 28.93 28.93 0 016.4-9.4 32.53 32.53 0 019.19-6.22 34.07 34.07 0 0110.93-2.89 30.94 30.94 0 0110.92.88 25.68 25.68 0 019.19 4.53 22.39 22.39 0 016.4 8.23 26.39 26.39 0 012.42 11.44 29.16 29.16 0 01-2.42 11.8 28.64 28.64 0 01-6.4 9.31 32.87 32.87 0 01-9.19 6.21zm-22.37-11.91q4.09 4.06 11.45 3.5t11.44-5.22c2.73-3.12 4.1-7.18 4.1-12.21s-1.37-8.91-4.1-11.67-6.54-4-11.44-3.59-8.72 2.14-11.45 5.32-4.09 7.26-4.09 12.26 1.36 8.91 4.09 11.61zm63.93 9.28q-16.17 1.69-16.17-19.33v-27.46a5.77 5.77 0 011.57-4 5.9 5.9 0 013.85-2l2.94-.3a4.78 4.78 0 013.86 1.15 4.73 4.73 0 011.56 3.7v25.71q0 6 1.74 8.26c1.17 1.53 3 2.16 5.6 1.89a11.28 11.28 0 005.42-1.94 22.21 22.21 0 004.87-5.2 1.81 1.81 0 00.46-1.24v-29.38a6 6 0 015.42-6l2.94-.31a4.71 4.71 0 015.41 4.85v41.78a6.17 6.17 0 01-5.41 6h-.37a5.56 5.56 0 01-4.13-1.07 5.09 5.09 0 01-2-3.6l-.27-2a.27.27 0 00-.28-.15.32.32 0 00-.27.21q-7.47 9.46-16.74 10.43zm49.67-6.51a4.69 4.69 0 01-3.85-1.2 4.76 4.76 0 01-1.56-3.65v-41.78a5.81 5.81 0 011.56-4 5.9 5.9 0 013.85-2h.46a5.34 5.34 0 014 1.09 5.19 5.19 0 012 3.6l.37 3.73c0 .13.06.18.18.17a.35.35 0 00.28-.22 27.29 27.29 0 016.79-8.42 15.49 15.49 0 018.09-3.61l.91-.09a3.57 3.57 0 013.49 1.74 5.34 5.34 0 01.83 2.94 9.58 9.58 0 01-.09 1.3l-.28 1.41a5.82 5.82 0 01-2.29 3.45 8.14 8.14 0 01-4.14 1.63h-.18a12.05 12.05 0 00-6.52 3.07 20.1 20.1 0 00-5.33 7.91 3.49 3.49 0 00-.27 1.31v25.34a6.15 6.15 0 01-5.42 6z" fill="#f15238"/><path d="M437.03 180.24a.64.64 0 00-.65.71v15a.89.89 0 00.65.94q6.79 2.22 21.39.69 27.91-2.94 33.43-3.61h.09a2.65 2.65 0 012.66 1.19 3.4 3.4 0 01.55 1.87 4.26 4.26 0 01-.27 1.41 3.22 3.22 0 00-.28.86 9.12 9.12 0 01-2.71 4 7.65 7.65 0 01-4.27 1.87l-29.29 3.08q-14.59 1.53-23.23-.4a23 23 0 01-14.05-9.55.2.2 0 00-.28-.1.47.47 0 00-.27.25 68.21 68.21 0 01-3.58 12.23 3.11 3.11 0 01-2.39 2l-.46.05a3.35 3.35 0 01-2.57-.74 6.4 6.4 0 01-2.11-3.18 8.5 8.5 0 01-.19-1.81 7.16 7.16 0 01.37-2.25q3.68-10.58 3.67-27.56v-2.94a4.62 4.62 0 011.29-3.17 4.74 4.74 0 012.94-1.5h.27a4.23 4.23 0 013.26 1.13 4.11 4.11 0 011.33 3.16c.06 1.1.09 2.11.09 3s0 1.78-.09 2.58a5.12 5.12 0 00.19 1.36 37.22 37.22 0 003.76 8.06c.06.11.14.15.23.11a.24.24 0 00.14-.24v-24.95c0-.49-.22-.71-.64-.67l-10.6 1.11a4.4 4.4 0 01-3.49-1.05 4.2 4.2 0 01-1.47-3.34 5.17 5.17 0 011.47-3.64 5.42 5.42 0 013.49-1.79l8.54-.9a.73.73 0 00.73-.81v-6.34c0-.43-.24-.62-.73-.56l-6.61.69a4.16 4.16 0 01-3.36-1.07 4.21 4.21 0 01-1.42-3.29 5.21 5.21 0 011.42-3.6 5.12 5.12 0 013.36-1.77l6.61-.7c.49 0 .73-.29.73-.72v-3.85a5.3 5.3 0 011.47-3.65 5.44 5.44 0 013.54-1.84 4.38 4.38 0 013.53 1.1 4.28 4.28 0 011.47 3.33v3.86c0 .43.24.62.73.57l7-.74c.49-.05.74-.29.74-.72a6 6 0 015.42-6l34.71-3.65a4.16 4.16 0 014.68 4.19 5.35 5.35 0 01-4.68 5.17l-11.21 1.18a.64.64 0 00-.64.71v4.59c0 .43.21.62.64.58l15.07-1.59a21 21 0 015.69 0 3 3 0 011.88 1.18 3.25 3.25 0 01.6 2.23q-1.91 18.69-6.91 31.83a1.19 1.19 0 00.09 1.19 37.27 37.27 0 005.6 6.39 4.26 4.26 0 011.38 3.34 5.35 5.35 0 01-1.1 3.24 5.18 5.18 0 01-3.12 2.07l-.55.06a3.44 3.44 0 01-2.76-.9 42.06 42.06 0 01-4-4.55.33.33 0 00-.36-.14.41.41 0 00-.37.22q-1.2 2-2.57 3.85a4.17 4.17 0 01-2.85 1.68 1 1 0 01-.46-.05 4.34 4.34 0 01-3.4-1.47 16.34 16.34 0 00-2.11-2.08q-.09-.08-.27 0a.33.33 0 00-.19.3v3.39a5 5 0 01-4.41 4.87 4 4 0 01-3.16-1 3.73 3.73 0 01-1.34-3v-4.78c0-.42-.21-.55-.64-.39q-6.53 2.16-14.14 4.8a3.76 3.76 0 01-1.1.3 4 4 0 01-2.39-.49 3.66 3.66 0 01-2-2.73 4.5 4.5 0 01-.09-.9 4.35 4.35 0 01.83-2.57 5 5 0 012.93-2.24 2.38 2.38 0 01.65-.16.92.92 0 00.73-.9v-43.61c0-.43-.24-.62-.73-.57l-2.21.24a.63.63 0 00-.64.71v.36a6.26 6.26 0 01-5.42 6l-2.85.3c-.49.05-.73.29-.73.72v6.36c0 .49.24.7.73.65l4.78-.5a4.41 4.41 0 013.54 1 4.31 4.31 0 011.42 3.34 5.3 5.3 0 01-1.42 3.64 5.39 5.39 0 01-3.54 1.8l-3.21.33c-.43.05-.65.32-.65.81v7.07c0 .43.22.62.65.57l2.75-.29a4.3 4.3 0 014.87 4.4 5.55 5.55 0 01-4.87 5.43zM461.91 143c.43 0 .64-.31.64-.8v-6.24c0-.43-.21-.62-.64-.58l-5.32.56a.65.65 0 00-.65.71v6.25c0 .49.22.71.65.66zm0 16.53a.63.63 0 00.64-.71v-6.7c0-.49-.21-.71-.64-.67l-5.32.56a.69.69 0 00-.65.8v6.71c0 .43.22.62.65.57zm-6 19.09c0 .49.22.65.65.48l5.32-1.66a.81.81 0 00.64-.89v-7.87c0-.49-.21-.71-.64-.67l-5.32.56a.69.69 0 00-.65.8zm29.66-30.39c.06-.44-.12-.63-.55-.59L472.07 149a.64.64 0 00-.64.71v2.39c0 .49.21.65.64.48l1.38-.51a9.66 9.66 0 011.29-.22 4.6 4.6 0 012.75.53 4.67 4.67 0 012.48 3.14 75.4 75.4 0 002.39 7.37.27.27 0 00.23.07c.09 0 .17-.08.23-.21a105.43 105.43 0 002.78-14.52zm-14.05 5.7c0-.06 0-.06-.09 0v30.58c0 .18.06.28.19.3a.27.27 0 00.27-.08 40.15 40.15 0 006.06-9.27 1.56 1.56 0 00.09-1.2 109 109 0 01-6.49-20.33z" fill="#14386c"/><path d="M173.3 147.61q-9.82 1-15.93-1.76a9.72 9.72 0 01-6.11-9.51q0-6.53 7.35-11.52a.41.41 0 00.18-.38c0-.19-.06-.3-.18-.35a8.84 8.84 0 01-4.59-8.24 10.79 10.79 0 011.6-5.5 18.86 18.86 0 014.09-4.83.44.44 0 00.09-.29.8.8 0 00-.09-.36 14.32 14.32 0 01-4.91-5.22 15 15 0 01-2-7.64 19.12 19.12 0 016.2-14.66 25.49 25.49 0 0115.13-6.67 23.49 23.49 0 017.25.34 3.35 3.35 0 001.29.14l13.22-1.39a4.55 4.55 0 013.63 1.09 4.29 4.29 0 011.51 3.42 5.33 5.33 0 01-1.51 3.74 5.67 5.67 0 01-3.63 1.85l-3.21.34a.42.42 0 00-.32.21.25.25 0 000 .37 12.32 12.32 0 012 7.22q0 8.55-5.74 13.83a24.65 24.65 0 01-14.55 6.21 20.44 20.44 0 01-6.15-.36 1 1 0 00-1.11.3 6.05 6.05 0 00-1.74 4.31 3.11 3.11 0 001.88 3.07q1.88.85 6.38.38l8.91-.94q9.74-1 14.65 1.63t4.91 9.45q0 8.18-7.81 14.27t-20.69 7.45zm2-8.93a20.26 20.26 0 009.6-3.26q3.81-2.66 3.81-5.77 0-2.76-2.16-3.54a16 16 0 00-6.66-.31l-6.33.67a35.37 35.37 0 01-6.71.15h-.36a1.45 1.45 0 00-.83.36 8.42 8.42 0 00-2.94 6 5 5 0 003.4 4.79q3.41 1.51 9.2.91zm-7.12-41.17a6.91 6.91 0 005.93 2 8.39 8.39 0 005.87-3.23 11.4 11.4 0 002.3-7.36q0-4.5-2.3-6.83a6.88 6.88 0 00-5.92-2 8.5 8.5 0 00-5.92 3.19 11.23 11.23 0 00-2.3 7.32q.02 4.54 2.36 6.91zm116.51 21.65q-17.36 1.82-17.36-17.92V78.68c0-.49-.21-.71-.64-.67l-1.65.18a4.45 4.45 0 01-3.58-1.1 4.37 4.37 0 01-1.47-3.42 6 6 0 011.47-4 6.12 6.12 0 013.58-2.17l2.29-.42a.73.73 0 00.74-.81l.92-8.09a6.71 6.71 0 012-4.07 6.56 6.56 0 014-2l.73-.08a4.85 4.85 0 015.42 4.85v8c0 .49.21.71.64.66l6.89-.72a4.79 4.79 0 013.86 1.16 4.71 4.71 0 011.56 3.69 5.81 5.81 0 01-1.56 4 5.92 5.92 0 01-3.86 2l-6.89.72c-.43 0-.64.31-.64.8v22.59q0 8.91 7.16 8.16h.28a7.65 7.65 0 013.85.51 3.63 3.63 0 012.12 2.72 4.51 4.51 0 01.18 1.26 5.85 5.85 0 01-.73 2.83 5.45 5.45 0 01-3.22 2.73 36.26 36.26 0 01-6.09 1.17zm25.62-3.98a4.71 4.71 0 01-3.86-1.2 4.76 4.76 0 01-1.56-3.65V46.14a6 6 0 015.42-6l2.85-.3a4.72 4.72 0 015.42 4.84v13.5l-.46 9.23a.28.28 0 00.13.27c.1 0 .2 0 .33-.13q7.89-8.08 16-8.93 16.35-1.72 16.35 19.49v27.37a6.24 6.24 0 01-5.42 6l-3 .32a4.85 4.85 0 01-5.42-4.85V81.24q0-6-1.74-8.31c-1.17-1.56-3.06-2.2-5.7-1.93a11.25 11.25 0 00-5.18 1.83 33.18 33.18 0 00-5.28 4.78 1.57 1.57 0 00-.55 1.16v30.12a5.88 5.88 0 01-1.57 4 5.77 5.77 0 01-3.85 2zm77.6-6.87q-11.4 1.2-18.78-5.46t-7.39-19.34a33.1 33.1 0 012.06-11.69 29.21 29.21 0 015.51-9.4 30 30 0 017.85-6.29 23.93 23.93 0 019.09-2.93q10.56-1.11 16.3 5.27t5.74 17.67v.92a5.72 5.72 0 01-1.88 4 7 7 0 01-4.18 2l-26.35 2.77c-.49 0-.68.32-.55.79q.91 6 4.77 8.78a13.48 13.48 0 009.64 2.2 21.77 21.77 0 007.53-2.26 6.11 6.11 0 012.21-.7 6.74 6.74 0 011.56 0 4 4 0 012.94 2 4.88 4.88 0 01.64 2.41 5.37 5.37 0 01-.64 2.5 4.74 4.74 0 01-1.84 1.9 35 35 0 01-14.23 4.86zm-12.86-32.07c0 .36.21.52.64.48l20-2.11c.49-.05.74-.29.74-.72-.13-3.47-1-6.09-2.67-7.84s-4.1-2.46-7.34-2.12a12 12 0 00-7.35 3.62q-4.01 4.13-4.02 8.69zM425 103.12a4.62 4.62 0 01-3.85-1.2 4.74 4.74 0 01-1.56-3.64V56.49a6 6 0 015.41-6h.46a5.33 5.33 0 014 1.09 5.2 5.2 0 012 3.61l.37 3.72c0 .13.06.18.18.17a.33.33 0 00.28-.22 27.29 27.29 0 016.79-8.42 15.49 15.49 0 018.09-3.61l.91-.09a3.57 3.57 0 013.49 1.74 5.35 5.35 0 01.83 3 9.43 9.43 0 01-.09 1.29l-.28 1.41a5.79 5.79 0 01-2.29 3.45 8.14 8.14 0 01-4.13 1.63h-.19a12.12 12.12 0 00-6.52 3.07 20.1 20.1 0 00-5.33 7.91 3.53 3.53 0 00-.27 1.31V96.9a6.17 6.17 0 01-5.42 6zM64.93 78.97c2.14-.31 43.08-5 43.08-5l21.22-2.29a5.07 5.07 0 014.11 1.24 5 5 0 011.67 3.93v23.87a6.17 6.17 0 01-1.67 4.28 6.24 6.24 0 01-4.11 2.1l-6.94.73a.35.35 0 00-.29.22c-.07.14 0 .24.09.29q8.13 6 11.16 9.39a.33.33 0 01-.1.5 20.5 20.5 0 004.6 1.77 6.93 6.93 0 013.81 2.63 5.51 5.51 0 011 3.12 6.91 6.91 0 01-.1 1.19q-1.28 6.39-4.3 9.06c-2 1.77-5.12 2.88-9.3 3.32l-15.65 1.65q-9.28 1-12.52-1.67t-3.28-10.83v-15.26c0-.07 0-.1-.1-.09a.34.34 0 00-.19.12 53 53 0 01-12.67 18.16q-8.46 8-22.84 14.14a7 7 0 01-1.86.48 5.75 5.75 0 01-2.64-.31 8 8 0 01-3.7-2.83 1.13 1.13 0 00-.29-.46 4.33 4.33 0 01-.69-2.33 4.11 4.11 0 01.74-2.32 3.69 3.69 0 012-1.53q21.81-8.76 29.45-23.74a.44.44 0 00-.05-.44.36.36 0 00-.34-.2l-18.49 1.94a5.13 5.13 0 01-4.06-1.24 4.9 4.9 0 01-1.72-3.93V91.42s.09-.36-.07-7.52c-.06-3.13 3.14-4.66 5.04-4.93zm6.69 23.06c0 .52.26.76.78.7l15.55-1.63a1 1 0 00.88-.88 110 110 0 001.76-13.29c.07-.53-.16-.77-.68-.71l-17.5 1.84a.77.77 0 00-.78.86zm50.28-4.5c.45 0 .68-.33.68-.86v-13.1c0-.53-.23-.76-.68-.71l-18 1.89c-.46 0-.72.33-.78.86-.53 5.08-1.11 9.51-1.77 13.29-.13.54.07.78.59.73zm-7.34 32.66l13.21-1.39a4.08 4.08 0 003.52-2q.88-1.71 1.27-7.23a.3.3 0 00-.15-.28.33.33 0 00-.34 0l-2.44 2.41a6.25 6.25 0 01-3.62 1.75l-.59.06a5.69 5.69 0 01-3.91-1.64q-2.06-2-4.7-4.2a4.58 4.58 0 01-1.56-3.56 5.35 5.35 0 011.76-4.09l1.46-1.33a.3.3 0 00.05-.3.19.19 0 00-.24-.17l-8.12.85a.79.79 0 00-.78.87v17.12c0 1.56.3 2.52.93 2.88s2.03.48 4.25.25z" fill="#f15238"/><path d="M73.61 82.18c.4-18.26 6.44-37.24 18.8-51.06a41.64 41.64 0 0115.87-10.77c2.12-.71 3.85-1.42 6.5-.65 2.86.86 3.73 4.28 3.18 6.76a36.68 36.68 0 01-3.19 9c-2.57 5.52-5.35 10.79-8 16.14-5.47 10.63-10.44 21.5-16.12 32.12a3.466 3.466 0 01-6.25-3 113.94 113.94 0 0115.33-26c6.68-8.13 14.86-16.04 26.39-17.22 4.9-.47 11.75 1 12.36 7.05.49 7.5-7.7 14.46-12.52 19.13a155.36 155.36 0 01-23.55 17.21.46.46 0 01-.55-.71c6.56-7.07 13.25-14 19.32-21.14a63.83 63.83 0 007.83-10.87 8 8 0 00.82-2.25v-.21a1.67 1.67 0 00.34.87c.2.25.29.27.17.24a8.56 8.56 0 00-2-.12c-15.51 1.23-30.1 24.14-37.5 36.69l-6.08-3.35c10.24-14.31 21.1-29 26.67-45.85a28.84 28.84 0 001.55-8.13c0-.61-.06-1.19-.29-1.34 0 .21.27.4.39.51a52.47 52.47 0 00-14.73 11.45C86.69 49.54 80.23 65.76 74.5 82.35a.44.44 0 01-.58.3.48.48 0 01-.31-.42zm177.58 100.96c-2.09-13.19.08-27.49 8-38.6a29.09 29.09 0 0110.68-9.06c3-1.36 7.32-3.6 10.29-.53 3.31 4-2.36 14.28-3.86 18.71-3 7.1-6.86 17.12-10.06 24a2.7 2.7 0 01-4.88-2.3c4.41-12.71 14.74-26.78 29.67-25.92 3.18 0 7.29 1.65 8 5.25 1.83 8.91-15.88 21.18-22.68 25.31a.35.35 0 01-.44-.54c4.14-4.82 8.33-9.56 12-14.46 1.8-2.6 4.26-5.57 4.69-8.6 0-.14-.06-.13-.05-.07a.78.78 0 00.12.34c-8.72-.93-16.59 5.57-21.72 13a69.37 69.37 0 00-4.57 7.61l-4.88-2.3c4.69-7.1 9.48-14.34 12.82-22.2 1.76-4.49 4.06-9.91 3.13-14.69-.11-.33-.28-.48-.32-.43s.06.13-.12.16a17.74 17.74 0 00-4.42 2.38c-13.87 9.65-18.08 26.79-20.69 42.86a.36.36 0 01-.7 0z" fill="#f15238"/><path d="M172.27 30.53a7.83 7.83 0 01-1.34 4.23 33.74 33.74 0 01-5.23 5.75v.07l5.35-.56a1.1 1.1 0 01.91.28 1.09 1.09 0 01.37.85 1.47 1.47 0 01-1.28 1.43l-8.31.87a1.08 1.08 0 01-.9-.29 1.15 1.15 0 01-.36-.86 2.86 2.86 0 011-2.18 38.41 38.41 0 005.25-5.41 6.22 6.22 0 001.34-3.52c0-1.68-.9-2.43-2.7-2.24a10.42 10.42 0 00-3.34 1.12.79.79 0 01-.8 0 .67.67 0 01-.39-.64v-.38a2.06 2.06 0 01.33-1.12 1.82 1.82 0 01.89-.73 14.56 14.56 0 013.78-1 5.46 5.46 0 014.06.84 4.07 4.07 0 011.37 3.49zm14.94 8.58a6.33 6.33 0 01-4.8 2.51q-3.19.33-4.76-1.51t-1.57-6.3q0-4.45 1.57-6.64a6.35 6.35 0 014.76-2.49q3.19-.33 4.76 1.53c1 1.23 1.57 3.34 1.57 6.31s-.48 5.16-1.53 6.59zm-2.4-10.88a2.28 2.28 0 00-2.4-1.11 2.88 2.88 0 00-2.35 1.61 10.57 10.57 0 00-.78 4.74 9.54 9.54 0 00.78 4.59 2.25 2.25 0 002.35 1.11 2.91 2.91 0 002.36-1.61 10.76 10.76 0 00.77-4.75 9.64 9.64 0 00-.73-4.58zm18.68-.98a7.83 7.83 0 01-1.34 4.23 33.74 33.74 0 01-5.23 5.75v.07l5.35-.57a1.18 1.18 0 01.91.28 1.11 1.11 0 01.37.86 1.47 1.47 0 01-1.28 1.43l-8.31.87a1.08 1.08 0 01-.9-.29 1.15 1.15 0 01-.36-.86 2.86 2.86 0 011-2.18 38.41 38.41 0 005.25-5.41 6.22 6.22 0 001.34-3.52c0-1.69-.9-2.43-2.7-2.24a10.25 10.25 0 00-3.34 1.12.79.79 0 01-.8 0 .67.67 0 01-.39-.64v-.38a2.06 2.06 0 01.33-1.12 1.82 1.82 0 01.89-.73 14.56 14.56 0 013.78-1 5.42 5.42 0 014.06.84 4.06 4.06 0 011.37 3.49zm6.04-2.67a1.14 1.14 0 01-1.29-1.13 1.37 1.37 0 01.39-1 1.44 1.44 0 01.9-.48l8-.85a1.09 1.09 0 01.9.3 1.16 1.16 0 01.36.88 3 3 0 01-.95 2.22l-3.67 3.72h.38a4 4 0 013.27.84 4 4 0 011.19 3.18 5.62 5.62 0 01-1.58 4.18 7.17 7.17 0 01-4.52 1.89 13.61 13.61 0 01-3.38 0 1.27 1.27 0 01-.88-.51 1.7 1.7 0 01-.33-1v-.24a.92.92 0 01.37-.75 1 1 0 01.82-.22 9.82 9.82 0 003.27.28 3.68 3.68 0 002.31-1 3 3 0 00.81-2.18 1.77 1.77 0 00-.92-1.73 6.35 6.35 0 00-3.22-.22h-.26a1 1 0 01-.78-.26 1 1 0 01-.33-.75 2.74 2.74 0 01.82-2L214.9 24a.06.06 0 000-.05zm15.88 12.31a1.13 1.13 0 01-.92-.29 1.11 1.11 0 01-.39-.86v-1.28a1.33 1.33 0 01.39-.94 1.43 1.43 0 01.92-.48l1-.11a1.1 1.1 0 01.9.3 1.11 1.11 0 01.38.85v1.28a1.35 1.35 0 01-.39.95 1.4 1.4 0 01-.89.47zm8.77-11.36a.62.62 0 01-.67.14.54.54 0 01-.37-.54v-.91a2.77 2.77 0 011-2.16l2.41-2.11a4.11 4.11 0 012.32-1l.67-.07a1.09 1.09 0 01.9.29 1.16 1.16 0 01.38.88v14a1.36 1.36 0 01-.38.94 1.33 1.33 0 01-.9.47l-.67.07a1.17 1.17 0 01-1.3-1.14V22.56zm15.57 8.8a1.18 1.18 0 01-.92-.29 1.11 1.11 0 01-.38-.86V31.9a1.34 1.34 0 01.38-1 1.44 1.44 0 01.92-.47l1-.11a1.15 1.15 0 011.28 1.15v1.28a1.37 1.37 0 01-.39.95 1.42 1.42 0 01-.89.47zm8.82-11.37a.61.61 0 01-.67.14.53.53 0 01-.37-.53v-.89a2.81 2.81 0 011-2.17l2.41-2.11a4.16 4.16 0 012.32-1l.67-.07a1.09 1.09 0 01.9.29 1.14 1.14 0 01.38.88v13.91a1.47 1.47 0 01-1.28 1.42l-.67.07a1.11 1.11 0 01-.91-.29 1.09 1.09 0 01-.39-.85V20zm22.69 2.72a1.07 1.07 0 01-.86-.25 1 1 0 01-.35-.8 1.28 1.28 0 01.36-.95 1.37 1.37 0 01.85-.45l5.15-.55a1.07 1.07 0 01.87.26 1 1 0 01.37.81 1.25 1.25 0 01-.37.88 1.36 1.36 0 01-.87.44zm29.34-9.69a7.74 7.74 0 01-1.34 4.23 34 34 0 01-5.22 5.75s-.05 0-.05.07l5.35-.56a1.14 1.14 0 011.31 1.2 1.42 1.42 0 01-.38 1 1.39 1.39 0 01-.9.48l-8.32.87a1.06 1.06 0 01-.89-.29 1.12 1.12 0 01-.37-.86 2.87 2.87 0 011-2.18 39.62 39.62 0 005.25-5.41 6.2 6.2 0 001.31-3.61c0-1.68-.9-2.43-2.69-2.24a10.34 10.34 0 00-3.34 1.12.81.81 0 01-.81 0 .67.67 0 01-.39-.64v-.38a2.1 2.1 0 01.34-1.12 1.79 1.79 0 01.88-.73 14.56 14.56 0 013.78-1 5.52 5.52 0 014.07.84 4.1 4.1 0 011.41 3.46zm14.95 8.58a6.36 6.36 0 01-4.76 2.51q-3.19.33-4.77-1.51c-1-1.23-1.57-3.33-1.57-6.3s.53-5.18 1.57-6.64a6.39 6.39 0 014.77-2.53q3.18-.33 4.76 1.53c1.05 1.23 1.57 3.34 1.57 6.31s-.52 5.18-1.57 6.63zm-2.41-10.89a2.26 2.26 0 00-2.35-1.11 2.89 2.89 0 00-2.38 1.62 10.74 10.74 0 00-.77 4.74 9.69 9.69 0 00.77 4.59 2.27 2.27 0 002.38 1.16 2.89 2.89 0 002.35-1.61 10.61 10.61 0 00.77-4.75 9.52 9.52 0 00-.77-4.64zm18.68-1a7.81 7.81 0 01-1.33 4.23 34.64 34.64 0 01-5.23 5.77s-.05 0-.05.07l5.35-.57a1.15 1.15 0 01.9.28 1.12 1.12 0 01.38.86 1.42 1.42 0 01-.38 1 1.39 1.39 0 01-.9.48l-8.32.87a1.06 1.06 0 01-.89-.29 1.16 1.16 0 01-.37-.86 2.87 2.87 0 011-2.18 39 39 0 005.25-5.41 6.23 6.23 0 001.33-3.52c0-1.69-.9-2.43-2.69-2.24a10.11 10.11 0 00-3.34 1.12.81.81 0 01-.81 0 .66.66 0 01-.38-.64v-.38a2.06 2.06 0 01.33-1.12 1.79 1.79 0 01.88-.73 14.56 14.56 0 013.78-1 5.43 5.43 0 014.07.84 4.08 4.08 0 011.42 3.42zm6.04-2.64a1.14 1.14 0 01-1.28-1.13 1.37 1.37 0 01.39-.95 1.39 1.39 0 01.89-.48l8.05-.8a1.06 1.06 0 01.89.3 1.13 1.13 0 01.37.87 3 3 0 01-.95 2.23l-3.67 3.72h.37a3.66 3.66 0 014.47 4 5.66 5.66 0 01-1.58 4.18 7.17 7.17 0 01-4.52 1.89 13.61 13.61 0 01-3.38 0 1.29 1.29 0 01-.89-.51 1.7 1.7 0 01-.33-1v-.24a.93.93 0 01.38-.75 1 1 0 01.81-.22 9.9 9.9 0 003.28.28 3.68 3.68 0 002.31-1 3 3 0 00.8-2.18 1.76 1.76 0 00-.91-1.73 6.26 6.26 0 00-3.22-.22h-.27a.9.9 0 01-.77-.26 1 1 0 01-.33-.75 2.7 2.7 0 01.82-2l3.69-3.75zm15.83 12.31a1.17 1.17 0 01-1.3-1.15v-1.28a1.33 1.33 0 01.39-.94 1.41 1.41 0 01.91-.48l1-.11a1.15 1.15 0 011.28 1.15v1.28a1.34 1.34 0 01-.38 1 1.42 1.42 0 01-.9.47zm7.02-4.14a1.17 1.17 0 01-.89-.26 1 1 0 01-.37-.85 4 4 0 01.73-2.33l6-9.21a2.69 2.69 0 012-1.27h.49a1.09 1.09 0 01.9.29 1.14 1.14 0 01.38.88v9.15c0 .13.07.19.2.18l1.08-.12a1.1 1.1 0 01.89.27 1.14 1.14 0 01.35.85 1.26 1.26 0 01-.37.91 1.37 1.37 0 01-.87.45l-1.08.11c-.12 0-.19.09-.2.24v1.9a1.47 1.47 0 01-1.28 1.42h-.49a1.14 1.14 0 01-.92-.29 1.11 1.11 0 01-.38-.85v-1.9c0-.14-.06-.2-.18-.21zm1.7-2.72l4.33-.45c.12 0 .18-.09.18-.22V8.6zm15.67 4.3a1.15 1.15 0 01-.91-.29 1.11 1.11 0 01-.39-.86v-1.28a1.37 1.37 0 01.39-1 1.4 1.4 0 01.91-.47l1-.11a1.1 1.1 0 01.91.29 1.13 1.13 0 01.38.86v1.28a1.37 1.37 0 01-.39 1 1.47 1.47 0 01-.9.47zm8.56-14.87a1.15 1.15 0 01-.9-.28 1.12 1.12 0 01-.38-.86 1.38 1.38 0 01.39-1 1.41 1.41 0 01.89-.48l8-.84a1.06 1.06 0 01.89.29 1.13 1.13 0 01.37.88 3 3 0 01-1 2.22l-3.67 3.72a.06.06 0 000 .05h.38a3.66 3.66 0 014.46 4 5.69 5.69 0 01-1.58 4.19 7.27 7.27 0 01-4.52 1.89 13.6 13.6 0 01-3.38 0 1.29 1.29 0 01-.89-.51 1.68 1.68 0 01-.33-1v-.24a1 1 0 01.38-.75 1 1 0 01.81-.22 9.9 9.9 0 003.28.28 3.73 3.73 0 002.31-1 3 3 0 00.8-2.19 1.74 1.74 0 00-.91-1.72 6.24 6.24 0 00-3.22-.23h-.26a1 1 0 01-.78-.26 1 1 0 01-.33-.75 2.71 2.71 0 01.82-2l3.69-3.75zm24.52 9.6a6.33 6.33 0 01-4.75 2.51q-3.19.33-4.77-1.51t-1.56-6.3q0-4.45 1.56-6.64a6.35 6.35 0 014.77-2.52q3.19-.35 4.76 1.52c1.05 1.23 1.57 3.34 1.57 6.31s-.53 5.18-1.58 6.63zm-2.41-10.84a2.25 2.25 0 00-2.34-1.15 2.89 2.89 0 00-2.36 1.61 10.74 10.74 0 00-.77 4.74 9.69 9.69 0 00.77 4.59 2.27 2.27 0 002.36 1.11 2.88 2.88 0 002.35-1.61 10.57 10.57 0 00.78-4.74 9.51 9.51 0 00-.79-4.55z"/><path d="M374.12 237.34a31.24 31.24 0 00-20.88 11.67 25 25 0 00-20.63-7 31.23 31.23 0 00-20.88 11.67 25.08 25.08 0 00-20.63-7 31.24 31.24 0 00-20.88 11.67 25 25 0 00-20.63-7 31.21 31.21 0 00-20.88 11.66 25.08 25.08 0 00-20.63-7 31.26 31.26 0 00-20.88 11.67 25 25 0 00-20.63-7 31.26 31.26 0 00-20.88 11.67 25.08 25.08 0 00-20.63-7c-15.34 1.61-27.78 15.36-27.78 30.7s12.44 26.48 27.78 24.87a31.26 31.26 0 0020.89-11.67 25 25 0 0020.62 7 31.21 31.21 0 0020.89-11.66 25.05 25.05 0 0020.62 7 31.22 31.22 0 0020.89-11.67 25 25 0 0020.62 7 31.26 31.26 0 0020.89-11.67 25 25 0 0020.62 7 31.27 31.27 0 0020.89-11.66 25.05 25.05 0 0020.62 7 31.28 31.28 0 0020.89-11.67 25 25 0 0020.62 7c15.35-1.61 27.79-15.36 27.79-30.7s-12.44-26.49-27.79-24.88z" fill="#14386c"/><path d="M137.69 301.37a.22.22 0 00-.05-.14.14.14 0 00-.15-.07l-5.87.62a.57.57 0 00-.4.24 11.32 11.32 0 01-5.44 3.71v.05c0 .05 0 .06.07.08a18.6 18.6 0 003.23.09c1.69-.11 3.44-.26 5.24-.45q4.41-.46 9.31-1.24h.1a1.08 1.08 0 011 .39 1.34 1.34 0 01.23.74 1.78 1.78 0 01-.06.44.27.27 0 000 .14 3.41 3.41 0 01-.93 1.52 2.8 2.8 0 01-1.5.74c-2.83.38-5.46.71-7.91 1-1.91.2-3.72.37-5.44.51a16.36 16.36 0 01-5.37-.41 8 8 0 01-3.73-2.27.21.21 0 00-.34 0c-.93 1-1.9 2-2.9 3a1.57 1.57 0 01-1 .51.75.75 0 01-.33 0 1.14 1.14 0 01-1-.69l-.23-.47a1.89 1.89 0 01-.23-.91 2.24 2.24 0 01.1-.65 2.51 2.51 0 01.93-1.36c.85-.69 1.67-1.4 2.47-2.13a.63.63 0 00.2-.46v-4.77c0-.17-.09-.25-.27-.23l-1.7.17a1.62 1.62 0 01-1.32-.41 1.64 1.64 0 01-.55-1.26 2.14 2.14 0 011.87-2.06l3.84-.41a1.8 1.8 0 011.4.42 1.72 1.72 0 01.57 1.35v6.53a.64.64 0 00.16.45 5.55 5.55 0 002.7 1.92h.09c.03 0 0-.07 0-.09l-.2-.31a1.36 1.36 0 01-.21-.71 1.2 1.2 0 01.11-.48 1.3 1.3 0 01.83-.89 9 9 0 002.83-1.63 4.87 4.87 0 001.37-2.15.16.16 0 000-.15.16.16 0 00-.16-.06l-5.07.53a1 1 0 01-.76-.24.91.91 0 01-.34-.73 1.14 1.14 0 01.34-.8 1.19 1.19 0 01.76-.4l.87-.09a.18.18 0 00.15-.1.14.14 0 000-.15.35.35 0 01-.1-.12 1.23 1.23 0 01-.17-.62 1.45 1.45 0 01.1-.51 1.21 1.21 0 01.84-.79 9.33 9.33 0 002.35-1 3.24 3.24 0 001.18-1.4.12.12 0 000-.13.18.18 0 00-.16-.05l-2.43.26a.17.17 0 00-.17.18 1.67 1.67 0 01-1.46 1.62h-.27a1.57 1.57 0 01-1.25-.38 1.53 1.53 0 01-.52-1.2 2 2 0 01.53-1.32 2 2 0 011.27-.67l6.67-.7a.23.23 0 00.24-.25v-.54q0-.27-.24-.24l-4 .42a1.74 1.74 0 01-2-1.76v-5.67a2.09 2.09 0 01.59-1.46 2.16 2.16 0 011.38-.71l3.94-.41a.29.29 0 00.23-.23 1.92 1.92 0 01.7-1 1.87 1.87 0 011-.44.34.34 0 01.14 0l1.36-.08a.72.72 0 01.69.38.79.79 0 01-.05.82.06.06 0 000 .09.07.07 0 00.06 0l4.81-.5a1.72 1.72 0 011.38.42 1.69 1.69 0 01.59 1.34v5.5a2.06 2.06 0 01-.59 1.46 2.17 2.17 0 01-1.38.72l-4.61.48a.27.27 0 00-.26.3v.53c0 .15.09.22.26.21l7.34-.78a1.61 1.61 0 011.27.4 1.55 1.55 0 01.53 1.21 1.91 1.91 0 01-.53 1.33 2 2 0 01-1.27.67l-1 .1a.35.35 0 00-.3.27 2.24 2.24 0 01-.78 1.33 3.29 3.29 0 01-1.62.52l-2.27.24a7.43 7.43 0 01-1.37 0 .2.2 0 00-.23.23v.6c0 .18.09.25.27.24l8.14-.86a1 1 0 01.78.24.93.93 0 01.32.73 1.16 1.16 0 01-.32.8 1.19 1.19 0 01-.78.4l-10.88 1.14a.35.35 0 00-.33.3.76.76 0 01-.05.21.79.79 0 000 .24.15.15 0 000 .15.18.18 0 00.17.06l6.77-.71a1.5 1.5 0 011.33.43 1.33 1.33 0 01.44 1 1.27 1.27 0 010 .34 6.17 6.17 0 01-1.36 3.25 4.46 4.46 0 01-2.27.9c-.4.07-.88.13-1.44.19l-1.33.14a1.25 1.25 0 01-.83-.28 1.67 1.67 0 01-.54-.78.8.8 0 01.7-1c.58 0 1.06 0 1.44-.08l.53-.09a2 2 0 001-.31 2.48 2.48 0 00.51-1.1zm-17.18-12.47a1.48 1.48 0 01.6 1.27 2 2 0 01-.56 1.41 2.15 2.15 0 01-1.37.7 1.9 1.9 0 01-1.4-.39 27.69 27.69 0 00-2.37-1.55 1.22 1.22 0 01-.64-1 .4.4 0 010-.17 1.46 1.46 0 01.43-1 2.77 2.77 0 011.37-.84h.34a2.13 2.13 0 011.16.21 20.49 20.49 0 012.44 1.36zm1.1-6.82a1.39 1.39 0 01.64 1.23 2 2 0 01-.64 1.44 2.2 2.2 0 01-1.3.64h-.06a2 2 0 01-1.41-.42 23.68 23.68 0 00-2.26-1.59 1.3 1.3 0 01-.64-1.17 1.42 1.42 0 01.47-1 2.56 2.56 0 011.4-.78.77.77 0 01.23-.06 2 2 0 011.24.24 24.69 24.69 0 012.33 1.47zm12.38 10c0-.16-.08-.23-.23-.21l-1.51.16a.33.33 0 00-.3.26 5.61 5.61 0 01-1.71 2.78 11 11 0 01-3.79 1.94l5-.53a.23.23 0 00.23-.25 1.89 1.89 0 01.5-1.27 1.83 1.83 0 011.2-.65l.6-.06a.14.14 0 00.12-.08.34.34 0 00.05-.17 4.6 4.6 0 01-.2-1.55zm-4.58-10.55a.24.24 0 00-.24.26v.5q0 .27.24.24l8.6-.9a.26.26 0 00.24-.3v-.5c0-.15-.08-.22-.24-.2zm0 2.57a.24.24 0 00-.24.26v.53q0 .24.24.21l8.6-.9a.24.24 0 00.24-.26v-.54q0-.23-.24-.21zm0 2.6a.24.24 0 00-.24.26v.57q0 .22.24.21l8.6-.91a.24.24 0 00.24-.26v-.56q0-.24-.24-.21zm11.54 5.33c.13 0 .2-.06.2-.19v-.5c0-.16-.08-.23-.23-.21l-3.74.39c-.18 0-.27.11-.27.26v.44a1 1 0 00.1.57c.07.07.22.09.47.07l1.4-.15a.5.5 0 00.43-.21 1.19 1.19 0 01.8-.62 1 1 0 01.24 0zm25.34-6.41a1.67 1.67 0 011.4.46 1.62 1.62 0 01.57 1.27c0 1.29 0 3.61-.13 6.95-.05 1.7-.12 3.24-.2 4.61a24.18 24.18 0 01-.34 3.07 4.28 4.28 0 01-.53 1.51 3.9 3.9 0 01-2.2 1.67 14.59 14.59 0 01-1.64.3h-.06a1.89 1.89 0 01-1.34-.36 2.25 2.25 0 01-.8-1.29 1 1 0 01-.07-.36 1.39 1.39 0 01.27-.79 1.28 1.28 0 011-.6 5.47 5.47 0 00.6 0 1.14 1.14 0 001-.63 10 10 0 00.52-3.12c.12-1.71.21-4.55.28-8.54q0-.24-.27-.21l-2 .21a.23.23 0 00-.23.26q-.27 8.73-3.63 14.56a1.68 1.68 0 01-1.17.82h-.2a1.54 1.54 0 01-1.17-.31 1.78 1.78 0 01-.77-1.22 2.38 2.38 0 010-.36 2.31 2.31 0 01.3-1.14 22 22 0 002.52-6.75 39.45 39.45 0 00.65-7.26v-5q0-.24-.27-.21l-1.37.15a1.62 1.62 0 01-1.31-.42 1.6 1.6 0 01-.55-1.27 2 2 0 01.55-1.39 2 2 0 011.31-.69l3-.32c.17 0 .26-.1.26-.26v-3a2.21 2.21 0 011.94-2.14 1.68 1.68 0 011.37.42 1.71 1.71 0 01.56 1.31v3q0 .24.27.21l2.83-.3a1.76 1.76 0 012 1.76v.4l.05.05a.1.1 0 00.09 0 25.42 25.42 0 002.57-5.94 2.53 2.53 0 01.93-1.37 2.23 2.23 0 011.1-.45 1.35 1.35 0 01.4 0h.13a1.67 1.67 0 011.24.71 1.54 1.54 0 01.27.87 1.83 1.83 0 01-.1.55c-.12.41-.24.82-.37 1.24a.22.22 0 000 .18.16.16 0 00.16.06l8.5-.89a1.68 1.68 0 011.32.4 1.54 1.54 0 01.55 1.24 1.94 1.94 0 01-.55 1.36 2.06 2.06 0 01-1.32.67l-10 1.06a.41.41 0 00-.37.27 32 32 0 01-2.13 3.62 1.91 1.91 0 01-1.3.81h-.14a1.84 1.84 0 01-1.33-.32 4.61 4.61 0 00-.43-.29 1.32 1.32 0 01-.57-1.14 1.74 1.74 0 01.33-1c.05-.05.06-.08 0-.12a.13.13 0 00-.1 0l-5.76.49q-.27 0-.27.27v2.87c0 .15.09.22.27.2zm16.55 1.53a2.26 2.26 0 011.33-.77h.13a1.69 1.69 0 011.24.33 1.54 1.54 0 01.6 1.26 1.76 1.76 0 01-.6 1.34 63.627 63.627 0 01-3.6 3.29.35.35 0 00-.14.38 13.68 13.68 0 003.77 5.51 1.68 1.68 0 01.64 1.36 2 2 0 01-.44 1.25 3 3 0 00-.3.4 2.29 2.29 0 01-1.27.9 1.13 1.13 0 01-.3.06 1.37 1.37 0 01-1-.32 14.85 14.85 0 01-3.94-5.74 43.75 43.75 0 01-2.36-8.64c0-.18-.12-.23-.27-.14a2.22 2.22 0 01-.35.2 2.36 2.36 0 00-.38.21.38.38 0 00-.24.36v13.94a2.21 2.21 0 01-1.93 2.14 1.65 1.65 0 01-1.35-.43 1.69 1.69 0 01-.55-1.31v-12.72s0-.06-.11-.05a.62.62 0 01-.26.09.71.71 0 01-.7-.36c-.27-.42-.55-.82-.84-1.21a1.18 1.18 0 01-.23-.71 1.48 1.48 0 01.07-.44 1.36 1.36 0 01.86-.89 50.44 50.44 0 005.66-2.5 39.67 39.67 0 004.92-2.95 2.87 2.87 0 011.47-.59 2.34 2.34 0 011.47.31 1.17 1.17 0 01.53 1.05 1.34 1.34 0 01-.53 1.09 44.78 44.78 0 01-3.74 2.63.3.3 0 00-.17.38c.18 1.09.4 2.22.67 3.37a.15.15 0 00.12.08.15.15 0 00.15 0c.68-.74 1.34-1.45 1.97-2.16zm18.72-4.4a1.74 1.74 0 012 1.76v8.7a.78.78 0 00.13.46q1.85 2.83 7.18 2.48c1.35-.08 3.06-.22 5.13-.44l2.17-.23c3.07-.37 5.81-.74 8.21-1.13h.03a1 1 0 011 .4 1.17 1.17 0 01.27.74 1.44 1.44 0 01-.07.44 3.33 3.33 0 01-.93 1.51 2.75 2.75 0 01-1.51.75q-4.2.6-7.8 1c-2.32.25-4.46.43-6.44.55a15.68 15.68 0 01-5.26-.42 7.41 7.41 0 01-3.58-2.29.21.21 0 00-.34 0c-.89 1.07-1.74 2-2.56 2.91a1.49 1.49 0 01-1 .53h-.3a1.24 1.24 0 01-1-.69l-.16-.32a2 2 0 01-.27-1 1.81 1.81 0 01.1-.58 2.58 2.58 0 01.87-1.43c.78-.7 1.51-1.39 2.2-2.06a.68.68 0 00.17-.45v-7q0-.24-.24-.21l-1.36.14a1.66 1.66 0 01-1.87-1.67 2.12 2.12 0 011.87-2.06zm1.24-8.64a1.69 1.69 0 01.33 1 3.83 3.83 0 010 .47 2.32 2.32 0 01-.9 1.33l-.17.11a1.75 1.75 0 01-.94.4 1.42 1.42 0 01-.46 0 1.66 1.66 0 01-1.25-.74 21.08 21.08 0 00-2.14-2.54 1.42 1.42 0 01-.4-1 1.11 1.11 0 010-.23 1.65 1.65 0 01.7-1.21 2.6 2.6 0 011.27-.5 1.22 1.22 0 01.27 0 2 2 0 011.4.56 22.77 22.77 0 012.29 2.35zm9.5 8.07c0-.17-.08-.26-.23-.24l-1.47.15c-.15 0-.23.12-.23.3q-.3 7.31-3 11.52a1.35 1.35 0 01-1.06.64 1.42 1.42 0 01-1.15-.34 1.88 1.88 0 01-.56-1.14v-.24a2.25 2.25 0 01.3-1.1q2.24-3.9 2.23-10.94v-3.87c0-.18-.09-.26-.26-.24l-.74.08a1.45 1.45 0 01-1.18-.36 1.43 1.43 0 01-.49-1.13 1.77 1.77 0 01.49-1.24 1.84 1.84 0 011.18-.61l2.1-.22a.26.26 0 00.27-.29v-2.23a2 2 0 01.55-1.37 2 2 0 011.32-.69 1.62 1.62 0 011.32.41 1.64 1.64 0 01.55 1.26v2.24c0 .17.08.25.26.23l1.87-.19a1.36 1.36 0 011.12.33 1.34 1.34 0 01.45 1 .05.05 0 00.07 0 23.85 23.85 0 001.9-4.67 2.17 2.17 0 01.84-1.15 1.59 1.59 0 01.9-.4 1.38 1.38 0 01.4 0 1.3 1.3 0 011.06.65 1.33 1.33 0 01.24.78 1.58 1.58 0 01-.07.47l-.27.93a.17.17 0 000 .16c0 .05.08.06.15.06l4.6-.49a1.45 1.45 0 011.17.36 1.41 1.41 0 01.5 1.13 1.74 1.74 0 01-.5 1.24 1.82 1.82 0 01-1.17.61l-6 .63a.43.43 0 00-.37.27c-.38.75-.68 1.33-.9 1.73 0 .05-.05.09 0 .13a.14.14 0 00.12.06l5.94-.62a.43.43 0 00.17-.06 1.38 1.38 0 01.4-.1 1.06 1.06 0 01.73.19l.53.37a1.17 1.17 0 01.57.84v.24a1.46 1.46 0 01-.23.79 38.35 38.35 0 01-2.9 4 .5.5 0 00-.14.35c0 .13.07.19.2.18l2.17-.23a1.38 1.38 0 011.13.35 1.36 1.36 0 01.47 1.08 1.81 1.81 0 01-1.6 1.77l-2.1.22c-.18 0-.27.11-.27.26v3.87a6.25 6.25 0 01-.26 2 2.39 2.39 0 01-1.07 1.21 7.5 7.5 0 01-2.64.85h-.1a1.87 1.87 0 01-1.23-.31 2.12 2.12 0 01-.84-1.14 1.17 1.17 0 01-.1-.43 1.25 1.25 0 01.24-.69 1.23 1.23 0 01.93-.6l1.1-.11a.71.71 0 00.44-.15.53.53 0 00.1-.34v-3.8q0-.24-.27-.21l-1.9.2a1.4 1.4 0 01-1.6-1.43 1.73 1.73 0 01.46-1.19 1.71 1.71 0 011.14-.58l1.93-.21a.23.23 0 00.24-.25v-.84a1.09 1.09 0 01.3-.76 1.11 1.11 0 01.73-.38.25.25 0 00.2-.12c.27-.39.59-.89 1-1.5a.11.11 0 000-.14.13.13 0 00-.12-.05l-3.2.33a1.62 1.62 0 01-1.81-1.64.38.38 0 00-.16-.35 20.28 20.28 0 00-2-1.46.71.71 0 00-.43-.08l-4.1.43c-.16 0-.24.11-.24.29v2q0 .25.24.24l3.17-.34a1.82 1.82 0 011.4.43 1.7 1.7 0 01.53 1.27q0 5-.37 9.65a8.49 8.49 0 01-.8 3.59 3.28 3.28 0 01-2 1.47 8.32 8.32 0 01-1.26.27h-.07a1.48 1.48 0 01-1.17-.34 2.08 2.08 0 01-.68-1.01 1.13 1.13 0 010-.3 1.32 1.32 0 01.24-.73 1.14 1.14 0 01.86-.55h.31a1.15 1.15 0 00.86-.52 7.35 7.35 0 00.45-2.53c.02-1.37.11-3.68.17-6.87zm49.32 4.04a.3.3 0 000-.15.18.18 0 00-.15-.07l-5.87.62a.59.59 0 00-.4.24 11.37 11.37 0 01-5.44 3.71v.05s0 .06.07.08a18.75 18.75 0 003.24.09c1.69-.11 3.43-.26 5.23-.45q4.41-.46 9.31-1.24h.1a1.11 1.11 0 011 .39 1.28 1.28 0 01.24.74 1.9 1.9 0 01-.07.45.31.31 0 000 .13 3.29 3.29 0 01-.94 1.52 2.74 2.74 0 01-1.5.74c-2.82.39-5.46.71-7.9 1-1.92.21-3.73.37-5.44.51a16.34 16.34 0 01-5.37-.4 8.09 8.09 0 01-3.74-2.28.2.2 0 00-.33 0c-.94 1-1.9 2-2.91 3a1.58 1.58 0 01-1 .5 1 1 0 01-.34 0 1.16 1.16 0 01-1-.7l-.23-.47a1.91 1.91 0 01-.24-.91 2.64 2.64 0 01.1-.65 2.58 2.58 0 01.94-1.36c.84-.69 1.66-1.4 2.47-2.13a.6.6 0 00.19-.45v-4.77c0-.18-.08-.26-.26-.24l-1.7.18a1.66 1.66 0 01-1.32-.42 1.58 1.58 0 01-.55-1.26 2 2 0 01.55-1.37 2 2 0 011.32-.69l3.73-.48a1.72 1.72 0 012 1.76v6.54a.66.66 0 00.17.45 5.55 5.55 0 002.7 1.91h.08c.03 0 0-.07 0-.09l-.2-.31a1.44 1.44 0 01-.2-.71 1.18 1.18 0 01.1-.48 1.3 1.3 0 01.83-.89 8.85 8.85 0 002.84-1.63 5.05 5.05 0 001.37-2.15.15.15 0 000-.14.13.13 0 00-.15-.07l-5.07.53a1 1 0 01-.77-.24.9.9 0 01-.33-.73 1.13 1.13 0 01.33-.8 1.24 1.24 0 01.77-.4l.87-.09a.22.22 0 00.15-.1v-.15l-.1-.12a1.22 1.22 0 01-.16-.62 1.25 1.25 0 01.1-.51 1.18 1.18 0 01.83-.79 8.51 8.51 0 002.35-1 3.3 3.3 0 001.19-1.39.14.14 0 000-.14.17.17 0 00-.15 0l-2.43.26a.16.16 0 00-.17.18 1.61 1.61 0 01-.43 1.08 1.64 1.64 0 01-1 .55h-.27a1.54 1.54 0 01-1.76-1.58 2.05 2.05 0 011.8-2l6.67-.7a.24.24 0 00.23-.26v-.54c0-.17-.08-.25-.23-.24l-4 .42a1.73 1.73 0 01-1.39-.42 1.68 1.68 0 01-.58-1.34v-5.5a2.09 2.09 0 01.58-1.47 2.21 2.21 0 011.39-.71l3.93-.41c.11 0 .19-.09.24-.23a2 2 0 01.7-1 1.91 1.91 0 011-.44h.13l1.37-.07a.69.69 0 01.68.37.76.76 0 01-.05.83.06.06 0 000 .08.09.09 0 00.07 0l4.8-.5a1.73 1.73 0 011.39.42 1.68 1.68 0 01.58 1.34v5.5a2.09 2.09 0 01-.58 1.47 2.16 2.16 0 01-1.39.71l-4.6.48a.27.27 0 00-.27.3v.53q0 .24.27.21l7.34-.77a1.6 1.6 0 011.8 1.61 2.07 2.07 0 01-1.8 2l-1 .1a.33.33 0 00-.3.27 2.27 2.27 0 01-.79 1.33 3.22 3.22 0 01-1.62.52l-2.26.24a6.65 6.65 0 01-1.37 0c-.16 0-.23.07-.23.23v.6c0 .18.08.26.26.24l8.14-.86a1 1 0 01.79.24.93.93 0 01.31.73 1.15 1.15 0 01-.31.8 1.19 1.19 0 01-.79.4l-10.87 1.14a.37.37 0 00-.34.31.51.51 0 01-.05.2.79.79 0 00-.05.24.13.13 0 000 .15.17.17 0 00.16.06l6.75-.74a1.51 1.51 0 011.33.43 1.33 1.33 0 01.43 1 1.84 1.84 0 010 .33 6.16 6.16 0 01-1.37 3.25 4.43 4.43 0 01-2.27.91c-.4.06-.87.12-1.43.18l-1.34.14a1.21 1.21 0 01-.83-.28 1.73 1.73 0 01-.53-.78.7.7 0 01.1-.69.71.71 0 01.6-.35c.58 0 1.05 0 1.43-.08a3.79 3.79 0 00.54-.09 2.08 2.08 0 001-.31 2.6 2.6 0 00.55-1.12zm-17.21-12.48a1.48 1.48 0 01.6 1.27 2 2 0 01-.57 1.42 2.16 2.16 0 01-1.37.69 1.83 1.83 0 01-1.4-.39 24.87 24.87 0 00-2.37-1.55 1.17 1.17 0 01-.63-1 .38.38 0 010-.16 1.42 1.42 0 01.43-1 2.8 2.8 0 011.37-.84h.33a2.18 2.18 0 011.17.21 21.3 21.3 0 012.44 1.35zm1.1-6.82a1.41 1.41 0 01.63 1.24 2 2 0 01-.63 1.43 2.15 2.15 0 01-1.3.64h-.07a2 2 0 01-1.4-.42 23.9 23.9 0 00-2.27-1.6 1.31 1.31 0 01-.63-1.17 1.41 1.41 0 01.46-1.05 2.55 2.55 0 011.41-.78.7.7 0 01.23-.06 2.09 2.09 0 011.23.24 25.59 25.59 0 012.37 1.53zm12.37 10c0-.16-.07-.22-.23-.21l-1.5.16a.32.32 0 00-.3.26 5.58 5.58 0 01-1.72 2.79 11 11 0 01-3.78 1.93l5-.53a.24.24 0 00.24-.26 1.84 1.84 0 01.5-1.27 1.75 1.75 0 011.2-.64l.6-.07a.14.14 0 00.11-.08.23.23 0 00.05-.17 4.6 4.6 0 01-.2-1.55zm-4.6-10.56a.23.23 0 00-.23.26v.5c0 .18.08.26.23.24l8.61-.9c.15 0 .23-.11.23-.29v-.49c0-.16-.08-.23-.23-.21zm0 2.57a.23.23 0 00-.23.26v.53c0 .16.08.23.23.21l8.61-.9a.23.23 0 00.23-.26v-.53c0-.16-.08-.23-.23-.21zm0 2.6a.24.24 0 00-.23.26v.57c0 .15.08.22.23.21l8.61-.91a.23.23 0 00.23-.26v-.56c0-.16-.08-.23-.23-.21zm11.54 5.33c.14 0 .2-.06.2-.19v-.5c0-.15-.07-.22-.23-.21l-3.74.39a.25.25 0 00-.26.27v.43c0 .31 0 .5.1.57s.22.1.46.07l1.41-.15a.51.51 0 00.43-.21 1.15 1.15 0 01.8-.62h.23zm16.11 7.76a2.48 2.48 0 011-1.2 2.19 2.19 0 011-.37 3.16 3.16 0 01.43 0 1.41 1.41 0 011.1.69 1.33 1.33 0 01.21.71 1.48 1.48 0 01-.14.58 23.15 23.15 0 01-2.37 4.75 1.81 1.81 0 01-1.16.83l-.27.06a1.8 1.8 0 01-1.1-.22 1.47 1.47 0 01-.7-1 .85.85 0 010-.29 1.59 1.59 0 01.34-1 19.41 19.41 0 001.66-3.54zm7.37-24.76a1.8 1.8 0 011.4.42 1.72 1.72 0 01.57 1.35v18.05a2.24 2.24 0 01-2 2.17l-6.44.68a1.7 1.7 0 01-1.4-.44 1.72 1.72 0 01-.57-1.32v-18.09a2.08 2.08 0 01.57-1.46 2.13 2.13 0 011.4-.72zm-1.84 6.54q.27 0 .27-.27v-2.67c0-.15-.09-.22-.27-.2l-2.87.3c-.18 0-.26.11-.26.26v2.67c0 .16.08.23.26.21zm0 6.2c.18 0 .27-.1.27-.26v-2.66q0-.27-.27-.24l-2.87.3a.26.26 0 00-.26.3v2.64c0 .15.08.22.26.2zm0 6.24a.27.27 0 00.27-.3v-2.7c0-.15-.09-.22-.27-.2l-2.87.3c-.18 0-.26.1-.26.26v2.7c0 .18.08.26.26.24zm22.22-2.3a2.2 2.2 0 01-2 2.17l-1.6.17a.17.17 0 00-.12.08.09.09 0 000 .13 21.61 21.61 0 004.1 4.07 1.42 1.42 0 01.6 1.21 1.8 1.8 0 01-.46 1.18 2.07 2.07 0 01-1.24.76h-.16a1.42 1.42 0 01-1.11-.32 23.64 23.64 0 01-3.16-3.57.09.09 0 00-.1 0 .09.09 0 00-.07.09v4.71a1.82 1.82 0 01-.5 1.25 1.85 1.85 0 01-1.2.63 1.47 1.47 0 01-1.2-.38 1.43 1.43 0 01-.5-1.14v-7.9c0-.17-.08-.26-.24-.24l-1.4.15c-.15 0-.23.11-.23.29v7.91a1.78 1.78 0 01-.5 1.23 1.86 1.86 0 01-1.18.66 1.48 1.48 0 01-1.18-.36 1.43 1.43 0 01-.5-1.13v-3.51s0-.07-.05-.07-.06 0-.08.05a20.54 20.54 0 01-2.14 3 1.74 1.74 0 01-1.17.62.46.46 0 01-.2 0 1.67 1.67 0 01-1.33-.56l-.2-.18a.23.23 0 00-.33 0 2 2 0 01-.64.2 1.54 1.54 0 01-.57 0 1.26 1.26 0 01-.86-.78 41.3 41.3 0 00-.94-1.93 1.46 1.46 0 01-.16-.69 1.55 1.55 0 01.1-.54 1.57 1.57 0 01.83-.95 1.92 1.92 0 01.73-.25 1.87 1.87 0 01.57 0 1.4 1.4 0 011 .73c.34.59.65 1.2.94 1.84q.09.22.3 0a20.44 20.44 0 003.4-4.93.12.12 0 000-.15.15.15 0 00-.15-.06l-.61.06a1.24 1.24 0 01-1-.31 1.26 1.26 0 01-.42-1 1.62 1.62 0 011.43-1.58l1.31-.14a.23.23 0 00.23-.26v-1.26c0-.16-.08-.23-.23-.21l-2.41.25a1.16 1.16 0 01-1-.3 1.21 1.21 0 01-.38-.91 1.48 1.48 0 01.38-1 1.42 1.42 0 011-.5l2.41-.25a.24.24 0 00.23-.26v-1.14c0-.15-.08-.22-.23-.21l-1.14.12a1.24 1.24 0 01-1-.32 1.28 1.28 0 01-.44-1 1.7 1.7 0 011.47-1.62l1.14-.12c.15 0 .23-.11.23-.29v-.84c0-.15-.08-.22-.23-.21l-1.84.2a1.35 1.35 0 01-1.08-.34 1.33 1.33 0 01-.45-1 1.74 1.74 0 011.53-1.69l1.84-.19c.15 0 .23-.12.23-.3v-1a.15.15 0 00-.23-.14l-1.31.44a1.23 1.23 0 01-1 0 1.44 1.44 0 01-.7-.7 1 1 0 010-.85 1 1 0 01.62-.61 37.31 37.31 0 004.2-1.94 3.7 3.7 0 011.47-.53 2.63 2.63 0 011.6.37.84.84 0 01.43.79 1 1 0 01-.6 1c-.24.14-.54.29-.9.46a.41.41 0 00-.23.36v2.07c0 .18.08.26.23.24l1.4-.15c.16 0 .24-.11.24-.29v-1.13a.59.59 0 00-.07-.23.75.75 0 010-.64.88.88 0 01.45-.53 32.72 32.72 0 003.84-2.34 4.13 4.13 0 011.56-.67h.14a2.58 2.58 0 011.43.25.93.93 0 01.57.91 1.19 1.19 0 01-.57 1 35.65 35.65 0 01-3.67 2.06.39.39 0 00-.23.36v.6c0 .17.09.25.27.23l4.4-.46a1.35 1.35 0 011.08.34 1.32 1.32 0 01.45 1 1.66 1.66 0 01-.45 1.14 1.64 1.64 0 01-1.08.56l-4.4.46q-.27 0-.27.27v.83q0 .27.27.24l3-.32a1.72 1.72 0 012 1.76v2.1c0 .14.07.2.2.18a1.28 1.28 0 011 .33 1.24 1.24 0 01.44 1v.2a1.54 1.54 0 01-.44 1.08 1.62 1.62 0 01-1 .55.19.19 0 00-.2.22zm-10.27-10.13a.23.23 0 00-.23.26v.83c0 .18.08.26.23.25l1.4-.15a.26.26 0 00.24-.29v-.84q0-.23-.24-.21zm0 4.27a.23.23 0 00-.23.26v1.13c0 .16.08.23.23.21l1.4-.14a.24.24 0 00.24-.26v-1.14q0-.22-.24-.21zm-.23 5.83c0 .16.08.23.23.21l1.4-.15a.23.23 0 00.24-.26v-1.26q0-.24-.24-.21l-1.4.15a.23.23 0 00-.23.25zm7.23-6.33q0-.24-.27-.21l-1.43.15c-.18 0-.27.11-.27.26v1.14c0 .16.09.22.27.2l1.43-.15c.18 0 .27-.1.27-.26zm-2 5.78c0 .15.09.22.27.2l1.43-.15c.18 0 .27-.1.27-.26v-1.27c0-.15-.09-.22-.27-.2l-1.43.15c-.18 0-.27.1-.27.26zm38.27-1.28a2.58 2.58 0 011.14-1.19 2 2 0 01.83-.28 1.45 1.45 0 01.7.09h.2a1.31 1.31 0 01.94.9 2 2 0 01.06.5 1.68 1.68 0 01-.26.86.22.22 0 00-.07.09.35.35 0 01-.07.09c-.53.88-1 1.63-1.43 2.25s-.66 1-1 1.4c0 .05-.06.1 0 .14a.1.1 0 00.1.06l5.73-.61a1.54 1.54 0 011.24.38 1.5 1.5 0 01.5 1.18 1.84 1.84 0 01-.5 1.28 1.87 1.87 0 01-1.24.63l-25.42 2.68a1.51 1.51 0 01-1.73-1.56 1.88 1.88 0 01.5-1.28 1.85 1.85 0 011.23-.63l4.67-.49a.26.26 0 00.17-.09.15.15 0 000-.17 17.12 17.12 0 00-1.71-3.46 1.6 1.6 0 01-.23-.84 1.7 1.7 0 01.07-.51 1.73 1.73 0 01.9-1.13l1.06-.57v-.07c0-.02 0 0-.07 0l-3.23.34a1.53 1.53 0 01-1.24-.37 1.52 1.52 0 01-.5-1.18 1.94 1.94 0 011.74-1.92l8.37-.88c.18 0 .27-.11.27-.26v-2.94c0-.15-.09-.22-.27-.2l-4.54.47a1.24 1.24 0 01-1-.32 1.28 1.28 0 01-.44-1 .1.1 0 00-.05-.1.12.12 0 00-.11 0c-1 .81-2.06 1.63-3.24 2.44a2 2 0 01-2.77-.41l-.13-.12a1.56 1.56 0 01-.33-1 1.89 1.89 0 010-.3 1.52 1.52 0 01.73-1.14 44.92 44.92 0 0010.94-10.66 4.19 4.19 0 013.07-2h.27a3.53 3.53 0 013.17 1.24 29.56 29.56 0 005.4 4.77 28.16 28.16 0 006.18 3.28 1.19 1.19 0 01.8 1 1 1 0 01.06.36 1.6 1.6 0 01-.33.93l-.33.5a2.48 2.48 0 01-1.27 1 2.62 2.62 0 01-.54.12 1.78 1.78 0 01-1-.16c-1.16-.55-2.27-1.15-3.34-1.79 0 0-.08-.05-.12 0a.14.14 0 00-.05.1 1.69 1.69 0 01-.46 1.16 1.73 1.73 0 01-1.1.58l-4.71.49c-.18 0-.26.11-.26.26v2.94c0 .15.08.22.26.2l8.54-.89a1.55 1.55 0 011.24.37 1.52 1.52 0 01.5 1.18 1.88 1.88 0 01-.5 1.29 2 2 0 01-1.24.63l-8.54.89c-.18 0-.26.11-.26.27v6.33c0 .18.08.26.26.24l3.21-.33h.06a.09.09 0 000-.07h-.2a1.39 1.39 0 01-.9-.94 1.82 1.82 0 01-.07-.5 1.63 1.63 0 01.27-.89c.56-.93 1-1.8 1.42-2.66zm-8.2-.71c0-.15-.09-.22-.27-.2l-4.4.46a.18.18 0 00-.14.08.17.17 0 000 .14 19.12 19.12 0 012.27 3.36 2 2 0 01.17.78 2.21 2.21 0 01-.14.75 2.4 2.4 0 01-1.1 1.19l-.76.41a.09.09 0 000 .07h.07l4.07-.43a.27.27 0 00.27-.3zm-3.64-10.42c-.05 0-.06.06 0 .1s0 .06.06.06l11.81-1.24a.11.11 0 00.1-.08v-.09a29.39 29.39 0 01-5.91-5.35q-.17-.19-.3 0a39.89 39.89 0 01-5.76 6.57zm41.5 14.81a3.36 3.36 0 01-2.24 1.17 2.72 2.72 0 01-2.23-.7 3 3 0 01-.91-2.25 3.63 3.63 0 01.91-2.45 3.32 3.32 0 012.23-1.17 2.73 2.73 0 012.24.72 2.91 2.91 0 01.93 2.25 3.52 3.52 0 01-.93 2.43zm-1.05-8.54a1.89 1.89 0 01-1.19.59 1.51 1.51 0 01-1.19-.34 1.55 1.55 0 01-.57-1.12l-.61-11-.1-2.78a2 2 0 01.52-1.44 2.09 2.09 0 011.4-.74l1.1-.11a1.67 1.67 0 011.38.44 1.65 1.65 0 01.53 1.34l-.1 2.79-.64 11.1a1.86 1.86 0 01-.53 1.27zm12.8 7.57a3.38 3.38 0 01-2.24 1.18 2.68 2.68 0 01-2.23-.71 2.9 2.9 0 01-.91-2.25 3.55 3.55 0 01.91-2.44 3.3 3.3 0 012.23-1.17 2.66 2.66 0 012.24.72 2.9 2.9 0 01.92 2.25 3.5 3.5 0 01-.92 2.42zm-1.05-8.54a1.92 1.92 0 01-1.19.6 1.56 1.56 0 01-1.76-1.46l-.61-11-.1-2.77a2.14 2.14 0 011.91-2.18l1.11-.11a1.65 1.65 0 011.37.44 1.64 1.64 0 01.54 1.33l-.1 2.8-.64 11.09a1.82 1.82 0 01-.53 1.26z" fill="#fcd583"/><path d="M377.41 238.98a31.26 31.26 0 00-20.9 11.7 25 25 0 00-20.62-7A31.26 31.26 0 00315 255.35a25 25 0 00-20.62-7 31.25 31.25 0 00-20.89 11.66 25.05 25.05 0 00-20.62-7 31.26 31.26 0 00-20.89 11.67 25 25 0 00-20.57-7 31.25 31.25 0 00-20.89 11.66 25.05 25.05 0 00-20.62-7 31.26 31.26 0 00-20.89 11.67 25 25 0 00-20.62-7c-15.35 1.61-27.79 15.36-27.79 30.7s12.44 26.48 27.79 24.87a31.24 31.24 0 0020.88-11.67 25 25 0 0020.63 7 31.25 31.25 0 0020.88-11.66 25.08 25.08 0 0020.63 7 31.26 31.26 0 0020.88-11.67 25 25 0 0020.63 7 31.21 31.21 0 0020.88-11.66 25.08 25.08 0 0020.63 7 31.26 31.26 0 0020.88-11.67 25 25 0 0020.63 7 31.21 31.21 0 0020.88-11.66 25.08 25.08 0 0020.63 7c15.34-1.61 27.78-15.36 27.78-30.71s-12.49-26.51-27.82-24.9z" fill="none" stroke="#fcd583" stroke-linecap="round" stroke-linejoin="round" stroke-width="2"/><path d="M222.79 125.15q-7 .74-11.29-3.22t-4.32-10.75q0-8.35 7.07-13.73t22.59-8.77a.75.75 0 00.64-.8q-.65-8.39-8.91-7.51a25.43 25.43 0 00-9.91 3.61 6.09 6.09 0 01-2.39.8 4.84 4.84 0 01-1.65-.1 4.09 4.09 0 01-3-2.07 4.71 4.71 0 01-.74-2.49 4.27 4.27 0 01.28-1.5 5.44 5.44 0 012.48-3.38A42.38 42.38 0 01231.08 69q10-1.06 15.11 4.33t5.1 16.77v25.35a5.85 5.85 0 01-1.56 4 5.79 5.79 0 01-3.86 2l-.74.07a5.38 5.38 0 01-3.9-1 5.11 5.11 0 01-2.06-3.41l-.1-.45a.29.29 0 00-.23-.07.35.35 0 00-.23.12q-8.1 7.64-15.82 8.44zm4.5-11.21q4.86-.51 9.73-5.8a1.65 1.65 0 00.46-1.15v-9.31c0-.42-.18-.62-.55-.58a.3.3 0 00-.18.11q-8.73 2.12-12.54 4.94t-3.8 6.53c0 2 .63 3.46 1.88 4.3a7.37 7.37 0 005 .96z" fill="#f15238"/></svg>