<svg version="1.1" id="圖層_1" xmlns="http://www.w3.org/2000/svg" x="0" y="0" viewBox="0 0 1000 300" xml:space="preserve"><style>.st0{fill:#005bac}.st1{fill:#eb6100}</style><path class="st0" d="M446.5 153c.9 1.5 2.4 2.3 4 2.3.8 0 1.6-.2 2.3-.6 11.4-6.5 20.2-16.5 26.2-29.5V144c0 1.4.7 2.8 1.8 3.7.8.6 1.8.9 2.8.9.4 0 .8-.1 1.2-.2l20.9-5.9c2.4-.7 3.9-3.2 3.2-5.7-.7-2.4-3.2-3.9-5.7-3.2l-15.1 4.2v-23.7h50.6c-5 14.8-13.5 25.7-25.3 32.4-2.2 1.3-3 4.1-1.7 6.3.9 1.5 2.4 2.3 4 2.3.8 0 1.6-.2 2.3-.6 11.4-6.5 20.2-16.5 26.2-29.5v19c0 1.4.7 2.8 1.8 3.7.8.6 1.8.9 2.8.9.4 0 .8-.1 1.2-.2l20.9-5.9c2.4-.7 3.9-3.2 3.2-5.7-.7-2.4-3.2-3.9-5.7-3.2l-15.1 4.2v-23.7h24.3c2.5 0 4.6-2.1 4.6-4.6 0-2.5-2.1-4.6-4.6-4.6h-27c.3-1.3.5-2.6.7-3.9.6-3.4 1-6.8 1.3-9.9h19.5c2.5 0 4.6-2.1 4.6-4.6 0-2.5-2.1-4.6-4.6-4.6H553c.2-8.9-.6-14.9-.7-15.3-.3-2.5-2.6-4.3-5.2-4-2.5.3-4.3 2.6-4 5.2 0 .1.7 5.7.6 14.1H531l3.4-10.3c.8-2.4-.5-5-2.9-5.8-2.4-.8-5 .5-5.8 2.9l-7.5 22.4h25.3c-.3 2.8-.6 5.7-1.1 8.6-.3 1.8-.7 3.5-1 5.2h-55.9c.3-1.3.5-2.6.7-3.9.6-3.4 1-6.8 1.3-9.9h19.1c2.5 0 4.6-2.1 4.6-4.6 0-2.5-2.1-4.6-4.6-4.6H488c.2-8.9-.6-14.9-.7-15.3-.3-2.5-2.6-4.3-5.2-4-2.5.3-4.3 2.6-4 5.2 0 .1.7 5.7.6 14.1h-13.5l3.4-10.3c.8-2.4-.5-5-2.9-5.8-2.4-.8-5 .5-5.8 2.9l-7.5 22.4h25.8c-.3 2.8-.6 5.7-1.1 8.6-.3 1.8-.7 3.5-1 5.2h-21c-2.5 0-4.6 2.1-4.6 4.6 0 2.5 2.1 4.6 4.6 4.6h18.4c-5 14.8-13.5 25.7-25.3 32.4-2.2 1.4-3 4.3-1.7 6.5zm137.4 107.8c-19.9-1.2-33.3-7-41-11.6-2.2-1.3-5-.6-6.3 1.6-1.3 2.2-.6 5 1.6 6.3 8.6 5.2 23.5 11.7 45.3 12.9h.3c2.4 0 4.5-1.9 4.6-4.3 0-2.6-1.9-4.7-4.5-4.9zm170.7-87.3c2.5 0 4.6-2.1 4.6-4.6 0-2.5-2.1-4.6-4.6-4.6h-64.5v-31.2c0-.2 0-.4-.1-.6h39.5c2.5 0 4.6-2.1 4.6-4.6 0-2.5-2.1-4.6-4.6-4.6h-88c-2.5 0-4.6 2.1-4.6 4.6 0 2.5 2.1 4.6 4.6 4.6H681c0 .2-.1.4-.1.6v31.2h-64.5c-2.5 0-4.6 2.1-4.6 4.6 0 2.5 2.1 4.6 4.6 4.6h64.5v70l-32.8-28.7c-1.7-1.5-4.3-1.5-6.1 0l-9 7.8c-1.9 1.7-2.1 4.6-.5 6.5 1.7 1.9 4.6 2.1 6.5.5l5.9-5.2L681 256c.1.4.3.7.5 1h-56.7c-2.5 0-4.6 2.1-4.6 4.6 0 2.5 2.1 4.6 4.6 4.6h129.6c2.5 0 4.6-2.1 4.6-4.6 0-2.5-2.1-4.6-4.6-4.6h-61.9l45.7-50.5c1.7-1.9 1.6-4.8-.3-6.5-1.9-1.7-4.8-1.6-6.5.3L690 246.1v-72.7h64.6zM413.4 78.8l25.4 26.9c1.7 1.8 4.7 1.9 6.5.2 1.8-1.7 1.9-4.7.2-6.5l-29.3-31c-1-1-2.3-1.5-3.7-1.4-1.4.1-2.7.8-3.4 2-26.9 39.3-49.3 52.1-49.6 52.2-2.2 1.2-3 4-1.8 6.2.8 1.5 2.4 2.4 4 2.4.7 0 1.5-.2 2.2-.6.9-.5 22.6-12.6 49.5-50.4z"/><path class="st0" d="M546.7 235.8c-.5-2.1-2.4-3.5-4.5-3.5h-67.8v-25.1c.1-.1.3-.2.4-.3l14-12.2 31.7 27.6c.9.8 1.9 1.1 3 1.1 1.3 0 2.5-.5 3.4-1.5l32.9-36.5v51.5c0 2.5 2.1 4.6 4.6 4.6s4.6-2.1 4.6-4.6V164c0-2.5-2.1-4.6-4.6-4.6h-94.6c-2.5 0-4.6 2.1-4.6 4.6v72.9c0 2.5 2.1 4.6 4.6 4.6h52.3c-16.7 7.5-41.2 17.2-57.3 17.2-2.5 0-4.6 2.1-4.6 4.6 0 2.5 2.1 4.6 4.6 4.6 28.5 0 77.6-25.8 79.6-26.9 1.8-1 2.8-3.1 2.3-5.2zm13.1-67.1v3l-.3.3-36.4 40.4-31.3-27.2c-1.7-1.5-4.3-1.5-6 0l-11.4 9.9v-26.4h85.4zm-112.7 38.8l-33.2 37v-71h31.4c2.5 0 4.6-2.1 4.6-4.6 0-2.5-2.1-4.6-4.6-4.6h-31.4v-31.8h23.9c2.5 0 4.6-2.1 4.6-4.6 0-2.5-2.1-4.6-4.6-4.6h-52.3c-2.5 0-4.6 2.1-4.6 4.6 0 2.5 2.1 4.6 4.6 4.6h19.3v31.8h-30.2c-2.5 0-4.6 2.1-4.6 4.6 0 2.5 2.1 4.6 4.6 4.6h30.2v71.4l-22.3-19.4c-1.9-1.7-4.8-1.5-6.5.5-1.7 1.9-1.5 4.8.5 6.5l28.3 24.6h-23.2c-2.5 0-4.6 2.1-4.6 4.6 0 2.5 2.1 4.6 4.6 4.6h56.1c2.5 0 4.6-2.1 4.6-4.6 0-2.5-2.1-4.6-4.6-4.6H415l39-43.4c1.7-1.9 1.5-4.8-.4-6.5-1.9-1.8-4.8-1.6-6.5.3zm352.2-60.4l-113.5-93c-1.8-1.5-4.4-1.4-6.1.2l-100.1 96.3c-1.8 1.8-1.9 4.7-.1 6.5.9.9 2.1 1.4 3.3 1.4 1.1 0 2.3-.4 3.2-1.3l97.1-93.5 110.3 90.4c2 1.6 4.9 1.3 6.5-.6 1.7-1.9 1.4-4.8-.6-6.4z"/><path class="st1" d="M993.9 125.2l-16-2.6-2.6-16c-.2-1.1-1.1-1.9-2.3-1.9-1.1 0-2.1.8-2.3 1.9l-2.6 16-16 2.6c-1.1.2-1.9 1.1-1.9 2.3 0 1.1.8 2.1 1.9 2.3l16 2.6 2.6 16c.2 1.1 1.1 1.9 2.3 1.9 1.1 0 2.1-.8 2.3-1.9l2.6-16 16-2.6c1.1-.2 1.9-1.1 1.9-2.3 0-1.2-.8-2.2-1.9-2.3zM830 155.5c-2.9-.3-5.9.4-8.7 1.9-1.4 0-2.9.6-3.8 1.8l-40.2 53.2c-1.5 2-1.1 4.9.9 6.5.8.6 1.8.9 2.8.9 1.4 0 2.8-.6 3.7-1.8l22.4-29.5c2.6 2 5.9 3.1 9.4 3.2h.3c3.7 0 7.5-1.1 11.4-3.3 7-3.9 11.8-10 13.2-16.6.7-3.2.5-6.1-.6-8.6-1.9-4.3-6.1-7.3-10.8-7.7zm2.2 14.2c-.9 4-4 7.9-8.7 10.5-2.6 1.5-5 2.2-7 2.1-1.5 0-3-.5-4-1.3l10.6-14c.4-.2.8-.4 1.2-.7 1.5-1.2 3.3-1.8 4.8-1.7 1.3.1 2.6.9 3 1.9.4.8.4 1.9.1 3.2zm29.4 14.6c-2.5.5-5.1.6-7.7.4-.4 0-.7-.1-.9-.1.2-.6.7-1.6 1.7-2.9l38.6-48.3c1.6-2 1.3-4.9-.7-6.5-2-1.6-4.9-1.3-6.5.7L847.6 176c-4.5 5.7-5.1 11.3-1.6 15 2.4 2.5 5.9 2.8 7.2 2.9 1 .1 1.9.1 2.9.1 2.4 0 4.8-.2 7.2-.7 2.5-.5 4.1-2.9 3.7-5.4-.5-2.4-2.9-4.1-5.4-3.6zm47.9 2.4c-.2-.1-.4-.4-.5-.5-.4-1.5.5-3.8 1.3-5.4 3.1-6.5 7.6-12.5 13-17.3 1.8-1.6 2-4.3.6-6.2-1.5-1.9-4.1-2.4-6.2-1.1-6.2 4-11.1 9.4-15.8 14.6-1.9 2.1-3.8 4.2-5.7 6.2-2.9 2.9-7.3 6.8-12 7.2v-.1c3.6-8.3 9.4-15.5 16.7-20.9 2-1.5 2.5-4.4 1-6.4s-4.4-2.5-6.4-1c-8.6 6.3-15.4 14.9-19.6 24.6-.6 1.4-2.2 5.1-.3 8.6 1.6 3 5 4.6 9.1 4.4 6.2-.4 11.3-3.7 15.1-7.1.1.8.2 1.6.4 2.4.9 3.1 3.3 5.6 6.3 6.8 1 .4 2.1.6 3.1.6 1.6 0 3.2-.5 4.5-1.4 2.1-1.4 2.7-4.3 1.3-6.4-1.3-2-3.8-2.6-5.9-1.6zm49.2-36c-1.8-1.8-4.7-1.8-6.5.1L937.3 166c-1.8 1.8-1.8 4.7.1 6.5.9.9 2.1 1.3 3.2 1.3 1.2 0 2.4-.5 3.3-1.4l5.2-5.3c.4 2.5.7 4.9.5 7.2-.3 3.3-1.8 7.5-5 9.3-2.2 1.2-5.2 1.4-8.2 1.6l-10.8.8c-2.5.2-4.5 2.4-4.3 4.9.2 2.4 2.2 4.3 4.6 4.3h.3l10.8-.8c3.6-.3 8-.6 12-2.8 5.5-3 9.1-9.2 9.7-16.5.5-5.6-.7-11-1.9-15.9l2-2c1.7-1.8 1.7-4.8-.1-6.5z"/><path class="st0" d="M159.5 80.6l-.1-.1-.2-.2c-.1 0-.1-.1-.2-.1-.1-.1-.2-.1-.2-.1-.1 0-.1-.1-.2-.1s-.2-.1-.2-.1c-.1 0-.1-.1-.2-.1s-.1-.1-.2-.1-.1 0-.2-.1c-.1 0-.1 0-.2-.1h-2c-.1 0-.2 0-.3.1h-.2c-.1 0-.2.1-.3.1-.1 0-.1 0-.2.1-.1 0-.2.1-.2.1-.1 0-.1.1-.2.1s-.1.1-.2.1-.1.1-.2.1-.1.1-.2.1l-.2.2-.1.1-54 47L73 94c-1.6-2.1-4.6-2.4-6.7-.8-2.1 1.6-2.4 4.6-.8 6.7l29.3 37.5s0 .1.1.1l.1.1.1.1.2.2.2.2.2.2c.1.1.2.1.2.2.1 0 .1.1.2.1.1.1.2.1.3.1.1 0 .1.1.2.1s.2.1.3.1c.1 0 .1.1.2.1s.2.1.3.1c.1 0 .1 0 .2.1.1 0 .2 0 .3.1h116.8c.1 0 .2 0 .3-.1h.2c.1 0 .2-.1.3-.1.1 0 .1 0 .2-.1.1 0 .2-.1.3-.1.1 0 .1-.1.2-.1s.2-.1.3-.1c.1 0 .1-.1.2-.1.1-.1.2-.1.2-.2.1 0 .1-.1.2-.1l.2-.2.2-.2.2-.2 65.6-72.9c1.8-1.9 1.6-4.9-.4-6.7-1.9-1.8-4.9-1.6-6.7.4l-62.5 69.4-54.2-47.3zm-3.1 9.9l45.1 39.2h-90.3l45.2-39.2z"/><path class="st0" d="M307.8 131.7l-24.9-35.2c-1.5-2.1-4.5-2.6-6.6-1.1-2.1 1.5-2.6 4.5-1.1 6.6l22.7 32L173 265l45-96.5c1.1-2.4.1-5.2-2.3-6.3-2.4-1.1-5.2-.1-6.3 2.3l-53 113.5-53-113.5c-1.1-2.4-3.9-3.4-6.3-2.3s-3.4 3.9-2.3 6.3l45 96.5L15.1 134l46.7-66h179.7c2.6 0 4.7-2.1 4.7-4.7s-2.1-4.7-4.7-4.7H59.3c-1.5 0-3 .7-3.9 2L5.1 131.7c-1.3 1.9-1.1 4.4.4 6L153 292.5s.1 0 .1.1l.4.4.1.1.1.1c.2.1.4.2.5.3h.3c.1.1.3.1.4.1.1 0 .1 0 .2.1.1 0 .2 0 .2.1h2c.1 0 .2 0 .2-.1h.2c.1 0 .3-.1.4-.1h.2s.1 0 .1-.1c.2-.1.4-.2.5-.3l.1-.1c.1 0 .1-.1.1-.1.2-.1.3-.2.4-.4 0 0 .1 0 .1-.1l147.5-154.7c1.8-1.7 2-4.2.7-6.1z"/><path class="st0" d="M228.4 134.4c0 2.6 2.1 4.7 4.7 4.7h39c2.6 0 4.7-2.1 4.7-4.7s-2.1-4.7-4.7-4.7h-39c-2.6 0-4.7 2.1-4.7 4.7zm-187.7-4.7c-2.6 0-4.7 2.1-4.7 4.7s2.1 4.7 4.7 4.7h39c2.6 0 4.7-2.1 4.7-4.7s-2.1-4.7-4.7-4.7h-39z"/><path class="st1" d="M289 91.2c-1.8 0-3.4-1.2-3.9-3l-5.5-20.6c-.5-1.8-1.3-3.4-2.5-4.9-1.4-1.7-1.1-4.3.6-5.7 1.7-1.4 4.3-1.1 5.7.6 1.9 2.3 3.2 5 4 7.9l1.6 6 1.6-6c2-7.3 7.7-13.1 15-15l6-1.6-6-1.6c-7.3-2-13.1-7.7-15-15l-1.6-6-1.6 6c-2 7.3-7.7 13.1-15 15l-6.6 1.8c1.3 1 1.9 2.7 1.5 4.3-.6 2.2-2.8 3.5-5 2.9l-12.6-3.4c-1.8-.5-3-2.1-3-3.9s1.2-3.4 3-3.9l20.6-5.5c4.5-1.2 8.1-4.8 9.3-9.3l5.5-20.6c.5-1.8 2.1-3 3.9-3 1.8 0 3.4 1.2 3.9 3l5.5 20.6c1.2 4.5 4.8 8.1 9.3 9.3l20.6 5.5c1.8.5 3 2.1 3 3.9s-1.2 3.4-3 3.9l-20.6 5.5c-4.5 1.2-8.1 4.8-9.3 9.3l-5.5 20.6c-.4 1.6-2 2.9-3.9 2.9z"/></svg>