<svg id="e242a726-3c9f-4a88-bb4e-faba5e34f37a" data-name="圖層 1" xmlns="http://www.w3.org/2000/svg" viewBox="0 0 749.1 362.87"><defs><style>.a681086f-b03d-4860-88a7-e34110a3f361{fill:#002d94;}.a1c2e754-3423-4272-b946-2c8fd92991a6{fill:#91bbe8;}.a934c3e0-eb12-4ed6-b504-49dca323f76b,.a98d5282-2e1d-420f-bef6-321be46dc015,.b134e3c1-6e32-4702-a8c2-e8ba4c9d2c75{fill:none;stroke-linejoin:round;}.a934c3e0-eb12-4ed6-b504-49dca323f76b{stroke:#d9d9d9;stroke-width:0.72px;}.a98d5282-2e1d-420f-bef6-321be46dc015{stroke:#164bb5;stroke-width:3.48px;}.a98d5282-2e1d-420f-bef6-321be46dc015,.b134e3c1-6e32-4702-a8c2-e8ba4c9d2c75{stroke-linecap:round;}.b134e3c1-6e32-4702-a8c2-e8ba4c9d2c75{stroke:#aed5ff;stroke-width:2.5px;}.a941deff-dbe9-45ab-bb9d-c0f725889e18{fill:#666;}.bc8eaa64-ff24-48b0-98a0-9c67541fce14{fill:#888;}</style></defs><path class="a681086f-b03d-4860-88a7-e34110a3f361" d="M1160.47,391.17v15.11h-1.79v-1.1h-8.48v1.17h-1.71V391.17Zm-10.27,1.7v4.39h8.48v-4.39Zm8.48,10.62v-4.57h-8.48v4.57Z" transform="translate(-461.47 -334.75)"/><path class="a681086f-b03d-4860-88a7-e34110a3f361" d="M1175.15,395.35a15.64,15.64,0,0,0,5.6,6.92,7.11,7.11,0,0,0-1.31,1.47,12.47,12.47,0,0,1-2.18-2v1.57h-4v3.18h-1.76v-3.18h-4v-1.61a15.74,15.74,0,0,1-2.23,2.06,7,7,0,0,0-1.25-1.37,15.88,15.88,0,0,0,5.53-7.08h-5v-1.69h6.9V390h1.76v3.64h7v1.69Zm-3.63,6.3v-6.3h-.24a20.25,20.25,0,0,1-3.69,6.3Zm5.61,0a20.8,20.8,0,0,1-3.65-6.3h-.2v6.3Z" transform="translate(-461.47 -334.75)"/><path class="a681086f-b03d-4860-88a7-e34110a3f361" d="M1123.93,433.05h-5.25v-2.7h5.25v-5.54h2.84v5.54H1132v2.7h-5.25v5.54h-2.84Z" transform="translate(-461.47 -334.75)"/><path class="a681086f-b03d-4860-88a7-e34110a3f361" d="M1136.46,440.57l2.21-3A7.56,7.56,0,0,0,1144,440c2.4,0,4-1.18,4-3.3,0-2.33-1.37-3.77-6.53-3.77v-3.39c4.36,0,5.76-1.51,5.76-3.62,0-1.86-1.15-2.94-3.16-3a6.72,6.72,0,0,0-4.48,2.11l-2.4-2.88a10.51,10.51,0,0,1,7.1-2.92c4.58,0,7.68,2.25,7.68,6.31a5.62,5.62,0,0,1-4,5.41v.16a5.91,5.91,0,0,1,4.74,5.82c0,4.35-3.81,6.88-8.32,6.88A10.07,10.07,0,0,1,1136.46,440.57Z" transform="translate(-461.47 -334.75)"/><path class="a681086f-b03d-4860-88a7-e34110a3f361" d="M1155.79,431.49c0-8.2,3.2-12.2,8-12.2s8,4,8,12.2-3.2,12.38-8,12.38S1155.79,439.65,1155.79,431.49Zm11.58,0c0-6.63-1.53-8.55-3.55-8.55s-3.58,1.92-3.58,8.55,1.53,8.7,3.58,8.7S1167.37,438.14,1167.37,431.49Z" transform="translate(-461.47 -334.75)"/><path class="a681086f-b03d-4860-88a7-e34110a3f361" d="M1174,440.57l2.2-3a7.56,7.56,0,0,0,5.28,2.43c2.4,0,4-1.18,4-3.3,0-2.33-1.38-3.77-6.53-3.77v-3.39c4.35,0,5.76-1.51,5.76-3.62,0-1.86-1.15-2.94-3.17-3a6.74,6.74,0,0,0-4.48,2.11l-2.4-2.88a10.53,10.53,0,0,1,7.1-2.92c4.58,0,7.68,2.25,7.68,6.31a5.62,5.62,0,0,1-4,5.41v.16a5.91,5.91,0,0,1,4.73,5.82c0,4.35-3.81,6.88-8.32,6.88A10,10,0,0,1,1174,440.57Z" transform="translate(-461.47 -334.75)"/><path class="a681086f-b03d-4860-88a7-e34110a3f361" d="M1194.38,432c0-2.66,1.33-4.19,3.24-4.19s3.26,1.53,3.26,4.19-1.35,4.25-3.26,4.25S1194.38,434.72,1194.38,432Zm4.63,0c0-2-.61-2.7-1.39-2.7s-1.37.74-1.37,2.7.6,2.76,1.37,2.76S1199,434,1199,432Zm6.3-4.19h1.57l-7.26,13.82h-1.55Zm-1.24,9.57c0-2.68,1.35-4.21,3.24-4.21s3.26,1.53,3.26,4.21-1.37,4.25-3.26,4.25S1204.07,440.09,1204.07,437.42Zm4.63,0c0-2-.62-2.71-1.39-2.71s-1.39.75-1.39,2.71.62,2.74,1.39,2.74S1208.7,439.39,1208.7,437.42Z" transform="translate(-461.47 -334.75)"/><path class="a1c2e754-3423-4272-b946-2c8fd92991a6" d="M1133.26,596.48H1128v-2.7h5.25v-5.54h2.83v5.54h5.25v2.7h-5.25V602h-2.83Z" transform="translate(-461.47 -334.75)"/><path class="a1c2e754-3423-4272-b946-2c8fd92991a6" d="M1149.09,601.8a5.4,5.4,0,0,0,3.74,1.66c2.66,0,4.86-2,5.05-8a6.58,6.58,0,0,1-4.86,2.6c-3.93,0-6.78-2.44-6.78-7.46,0-4.86,3.39-7.9,7.45-7.9,4.48,0,8.52,3.52,8.52,11.74,0,9-4.39,12.83-9.09,12.83a8.89,8.89,0,0,1-6.5-2.69Zm8.73-9.6c-.41-4.32-2-5.92-4.06-5.92-1.76,0-3.2,1.44-3.2,4.35s1.31,4.1,3.36,4.1A4.73,4.73,0,0,0,1157.82,592.2Z" transform="translate(-461.47 -334.75)"/><path class="a1c2e754-3423-4272-b946-2c8fd92991a6" d="M1164.64,604l2.21-3a7.47,7.47,0,0,0,5.27,2.43c2.4,0,4-1.18,4-3.29,0-2.34-1.38-3.78-6.53-3.78V593c4.35,0,5.76-1.5,5.76-3.62,0-1.85-1.15-2.94-3.17-3a6.76,6.76,0,0,0-4.48,2.11l-2.4-2.88a10.52,10.52,0,0,1,7.11-2.91c4.57,0,7.67,2.24,7.67,6.3a5.61,5.61,0,0,1-4,5.41v.16a5.91,5.91,0,0,1,4.73,5.82c0,4.35-3.81,6.88-8.32,6.88A10.08,10.08,0,0,1,1164.64,604Z" transform="translate(-461.47 -334.75)"/><path class="a1c2e754-3423-4272-b946-2c8fd92991a6" d="M1185.05,595.47c0-2.66,1.34-4.19,3.24-4.19s3.26,1.53,3.26,4.19-1.35,4.25-3.26,4.25S1185.05,598.16,1185.05,595.47Zm4.63,0c0-2-.61-2.7-1.39-2.7s-1.36.74-1.36,2.7.59,2.76,1.36,2.76S1189.68,597.44,1189.68,595.47Zm6.3-4.19h1.57l-7.26,13.83h-1.54Zm-1.24,9.58c0-2.69,1.35-4.22,3.24-4.22s3.26,1.53,3.26,4.22-1.37,4.25-3.26,4.25S1194.74,603.52,1194.74,600.86Zm4.63,0c0-2-.61-2.72-1.39-2.72s-1.39.75-1.39,2.72.62,2.73,1.39,2.73S1199.37,602.82,1199.37,600.86Z" transform="translate(-461.47 -334.75)"/><path class="a1c2e754-3423-4272-b946-2c8fd92991a6" d="M1164,561.49v1.19h-7.51a13.58,13.58,0,0,1-.21,1.39h7.44v1.17H1156c-.84,2.46-2.77,4-7.49,4.8a4.47,4.47,0,0,0-.7-1.2c4.16-.59,5.93-1.75,6.74-3.6h-6v-1.17h6.42a11.15,11.15,0,0,0,.24-1.39h-7.06v-1.19h7.22V560h-5.6v-1.17h5.6v-1.46h-6.59v-1.2h3.8a9.85,9.85,0,0,0-1.39-2.09l1.16-.47a8.92,8.92,0,0,1,1.58,2.27l-.65.29h4.74a21,21,0,0,0,1.55-2.56l1.36.41a25.12,25.12,0,0,1-1.44,2.15h3.84v1.2h-6.63v1.46h5.76V560h-5.76v1.51Zm-7.36,4A44.15,44.15,0,0,1,1164,569l-.62,1.15a43.3,43.3,0,0,0-7.3-3.72Z" transform="translate(-461.47 -334.75)"/><path class="a1c2e754-3423-4272-b946-2c8fd92991a6" d="M1181.46,554.47v15.67h-1.31v-.83H1167.8v.83h-1.28V554.47Zm-1.31,13.63V555.7H1167.8v12.4Zm-6.1-2.74c-1.88.36-3.78.74-5.26,1l-.18-1c1.37-.21,3.37-.57,5.38-.93Zm4.46-5.24a13.9,13.9,0,0,1-2,4.42c.38,1,.87,1.56,1.46,1.65.25.07.43-.7.56-1.85a3.66,3.66,0,0,0,.86.59c-.23,2-.84,2.68-1.78,2.32a2.9,2.9,0,0,1-1.87-1.74,11.18,11.18,0,0,1-2.38,2.07,6.93,6.93,0,0,0-.79-.85,9.46,9.46,0,0,0,2.72-2.36,24.93,24.93,0,0,1-1-5.31h-5.51v-1h5.42c0-.63-.11-1.26-.15-1.9h1.16c0,.64.07,1.27.11,1.9h3.92v1h-3.83a26.44,26.44,0,0,0,.66,4.14,12.07,12.07,0,0,0,1.33-3.31Zm-5.11.08v3.49h-4V560.2Zm-1,.84h-2.07v1.8h2.07Zm5.72-3.18a7,7,0,0,0-1.92-1.26l.63-.67a7.6,7.6,0,0,1,1.94,1.22Z" transform="translate(-461.47 -334.75)"/><line class="a934c3e0-eb12-4ed6-b504-49dca323f76b" x1="40.15" y1="330.6" x2="651.09" y2="330.6"/><path class="a934c3e0-eb12-4ed6-b504-49dca323f76b" d="M501.62,665.36v7.39m175.76-7.39v7.39m176-7.39v7.39m176-7.39v7.39" transform="translate(-461.47 -334.75)"/><polyline class="a98d5282-2e1d-420f-bef6-321be46dc015" points="42.58 330.69 47.42 330.69 52.27 293.8 57.12 293.8 61.96 293.8 66.81 288.41 71.91 288.58 76.76 288.58 81.6 257.09 86.45 257.09 91.3 257.09 96.14 225.77 101.25 225.59 106.09 225.59 110.94 211.15 115.79 211.15 120.63 211.15 125.48 201.93 130.33 203.84 135.43 204.02 140.27 209.59 145.12 209.59 149.97 209.59 154.81 197.41 159.66 197.58 164.76 197.58 169.61 194.1 174.46 194.27 179.3 194.27 184.15 190.79 189 191.49 194.1 192.71 198.94 170.26 203.79 172 208.64 172 213.48 177.4 218.33 177.57 223.43 177.57 228.28 185.4 233.13 185.57 237.97 185.57 242.82 199.49 247.67 199.49 252.51 199.49 257.62 214.63 262.46 214.63 267.31 214.63 272.15 209.59 277 209.59 281.85 209.59 286.95 193.58 291.8 199.49 296.64 196.19 301.49 166.43 306.34 167.65 311.18 169.56 316.29 153.73 321.13 153.73 325.98 153.73 330.82 135.46 335.67 135.46 340.52 135.46 345.62 109.71 350.47 109.71 355.31 109.88 360.16 106.75 365.01 106.92 369.85 106.92 374.7 97.01 379.8 97.18 384.65 97.18 389.5 91.79 394.34 91.96 399.19 91.96 404.04 118.23 409.14 118.41 413.98 118.41 418.83 127.63 423.68 127.63 428.52 127.81 433.37 129.89 438.47 129.72 443.32 129.89 448.17 139.12 453.01 139.12 457.86 138.94 462.7 151.47 467.81 151.64 472.65 152.34 477.5 204.37 482.35 205.58 487.19 205.76 492.04 255 497.14 255.17 501.99 255.17 506.84 268.22 511.68 268.57 516.53 268.57 521.38 248.04 526.22 248.21 531.32 248.21 536.17 172.7 541.02 172.87 545.86 172.87 550.71 102.23 555.56 102.23 560.66 102.4 565.51 70.91 570.35 71.08 575.2 71.08 580.05 59.6 584.89 59.6 589.99 59.6 594.84 63.42 599.69 64.12 604.53 64.12 609.38 80.3 614.23 80.13 619.33 80.13 624.18 55.94 629.02 56.12 633.87 56.12 638.72 75.78 643.56 75.78 648.41 75.78"/><polyline class="b134e3c1-6e32-4702-a8c2-e8ba4c9d2c75" points="42.58 330.69 47.42 330.69 52.27 332.43 57.12 332.43 61.96 332.43 66.81 330.52 71.91 330.52 76.76 330.52 81.6 327.38 86.45 327.56 91.3 327.38 96.14 323.56 101.25 323.73 106.09 323.73 110.94 317.99 115.79 317.99 120.63 318.16 125.48 317.99 130.33 317.99 135.43 317.99 140.27 316.77 145.12 316.77 149.97 316.77 154.81 313.99 159.66 313.99 164.76 314.16 169.61 317.99 174.46 318.34 179.3 318.34 184.15 320.77 189 320.95 194.1 320.95 198.94 325.82 203.79 325.82 208.64 325.82 213.48 328.95 218.33 329.3 223.43 329.3 228.28 331.74 233.13 331.74 237.97 331.74 242.82 331.21 247.67 331.21 252.51 331.21 257.62 330.69 262.46 330.69 267.31 330.69 272.15 327.91 277 328.08 281.85 328.08 286.95 323.04 291.8 323.21 296.64 323.38 301.49 318.86 306.34 318.86 311.18 318.86 316.29 315.03 321.13 315.03 325.98 315.03 330.82 314.16 335.67 314.16 340.52 314.33 345.62 312.94 350.47 312.42 355.31 312.42 360.16 307.03 365.01 306.68 369.85 306.68 374.7 300.76 379.8 300.76 384.65 300.76 389.5 292.76 394.34 292.93 399.19 292.93 404.04 290.67 409.14 290.67 413.98 290.67 418.83 288.23 423.68 288.23 428.52 288.23 433.37 287.37 438.47 287.37 443.32 287.37 448.17 290.67 453.01 290.67 457.86 290.84 462.7 284.23 467.81 284.41 472.65 284.41 477.5 304.94 482.35 305.46 487.19 305.46 492.04 321.3 497.14 321.12 501.99 321.12 506.84 321.47 511.68 321.3 516.53 321.3 521.38 326.17 526.22 326.17 531.32 326.17 536.17 296.41 541.02 296.41 545.86 296.41 550.71 265.79 555.56 265.61 560.66 265.61 565.51 249.26 570.35 249.26 575.2 249.26 580.05 227.33 584.89 227.16 589.99 227.16 594.84 225.59 599.69 225.59 604.53 225.59 609.38 233.6 614.23 233.6 619.33 233.6 624.18 238.99 629.02 238.99 633.87 238.99 638.72 251.69 643.56 252.04 648.41 252.04"/><path class="a941deff-dbe9-45ab-bb9d-c0f725889e18" d="M468.14,626.74l.54-.72a2.87,2.87,0,0,0,2.16,1,1.91,1.91,0,0,0,1.87-2.08,1.78,1.78,0,0,0-1.82-2,2.45,2.45,0,0,0-1.47.51l-.58-.36.27-4.11h4.28v.94h-3.32l-.21,2.54a2.47,2.47,0,0,1,1.3-.35,2.5,2.5,0,0,1,2.65,2.79,2.85,2.85,0,0,1-2.87,3A3.74,3.74,0,0,1,468.14,626.74Z" transform="translate(-461.47 -334.75)"/><path class="a941deff-dbe9-45ab-bb9d-c0f725889e18" d="M475.08,623.33c0-3.06,1.06-4.54,2.74-4.54s2.74,1.49,2.74,4.54-1.07,4.58-2.74,4.58S475.08,626.38,475.08,623.33Zm4.41,0c0-2.57-.67-3.65-1.67-3.65s-1.68,1.08-1.68,3.65.68,3.7,1.68,3.7S479.49,625.92,479.49,623.33Z" transform="translate(-461.47 -334.75)"/><path class="a941deff-dbe9-45ab-bb9d-c0f725889e18" d="M475.08,665.63c0-3.06,1.06-4.53,2.74-4.53s2.74,1.48,2.74,4.53-1.07,4.58-2.74,4.58S475.08,668.69,475.08,665.63Zm4.41,0c0-2.57-.67-3.65-1.67-3.65s-1.68,1.08-1.68,3.65.68,3.7,1.68,3.7S479.49,668.22,479.49,665.63Z" transform="translate(-461.47 -334.75)"/><path class="a941deff-dbe9-45ab-bb9d-c0f725889e18" d="M462.18,540.68h1.95v-6.56h-1.56v-.7a5.66,5.66,0,0,0,1.83-.62h.83v7.88H467v.91h-4.82Z" transform="translate(-461.47 -334.75)"/><path class="a941deff-dbe9-45ab-bb9d-c0f725889e18" d="M468.14,540.58l.54-.72a2.86,2.86,0,0,0,2.16,1,1.9,1.9,0,0,0,1.87-2.07,1.78,1.78,0,0,0-1.82-2,2.45,2.45,0,0,0-1.47.51l-.58-.36.27-4.11h4.28v.93h-3.32l-.21,2.55a2.47,2.47,0,0,1,1.3-.35,2.5,2.5,0,0,1,2.65,2.79,2.86,2.86,0,0,1-2.87,3A3.74,3.74,0,0,1,468.14,540.58Z" transform="translate(-461.47 -334.75)"/><path class="a941deff-dbe9-45ab-bb9d-c0f725889e18" d="M475,537.16c0-3,1.06-4.53,2.74-4.53s2.74,1.49,2.74,4.53-1.07,4.59-2.74,4.59S475,540.22,475,537.16Zm4.41,0c0-2.56-.67-3.64-1.67-3.64S476,534.6,476,537.16s.68,3.71,1.68,3.71S479.37,539.75,479.37,537.16Z" transform="translate(-461.47 -334.75)"/><path class="a941deff-dbe9-45ab-bb9d-c0f725889e18" d="M461.65,454.78c2.76-2.41,4-4.16,4-5.67a1.55,1.55,0,0,0-1.62-1.74,2.44,2.44,0,0,0-1.82,1l-.64-.63a3.4,3.4,0,0,1,2.59-1.29,2.42,2.42,0,0,1,2.56,2.6c0,1.75-1.38,3.54-3.45,5.5.46,0,1-.09,1.44-.09h2.44v.95h-5.53Z" transform="translate(-461.47 -334.75)"/><path class="a941deff-dbe9-45ab-bb9d-c0f725889e18" d="M468.14,454.42l.54-.72a2.86,2.86,0,0,0,2.16,1,1.9,1.9,0,0,0,1.87-2.07,1.78,1.78,0,0,0-1.82-2,2.45,2.45,0,0,0-1.47.51l-.58-.36.27-4.11h4.28v.93h-3.32l-.21,2.55a2.47,2.47,0,0,1,1.3-.35,2.5,2.5,0,0,1,2.65,2.79,2.85,2.85,0,0,1-2.87,3A3.74,3.74,0,0,1,468.14,454.42Z" transform="translate(-461.47 -334.75)"/><path class="a941deff-dbe9-45ab-bb9d-c0f725889e18" d="M475,451c0-3.05,1.06-4.53,2.74-4.53s2.74,1.49,2.74,4.53-1.07,4.58-2.74,4.58S475,454.06,475,451Zm4.41,0c0-2.56-.67-3.64-1.67-3.64S476,448.44,476,451s.68,3.71,1.68,3.71S479.37,453.59,479.37,451Z" transform="translate(-461.47 -334.75)"/><path class="a941deff-dbe9-45ab-bb9d-c0f725889e18" d="M461.47,368.23l.55-.72a2.91,2.91,0,0,0,2.18,1,1.62,1.62,0,0,0,1.79-1.63c0-1.05-.71-1.76-2.73-1.76v-.84c1.81,0,2.43-.73,2.43-1.68a1.37,1.37,0,0,0-1.49-1.41,2.73,2.73,0,0,0-1.82.87l-.59-.7a3.52,3.52,0,0,1,2.46-1.05c1.48,0,2.56.79,2.56,2.21a2.2,2.2,0,0,1-1.58,2.12v.05a2.26,2.26,0,0,1,1.88,2.23,2.56,2.56,0,0,1-2.82,2.5A3.64,3.64,0,0,1,461.47,368.23Z" transform="translate(-461.47 -334.75)"/><path class="a941deff-dbe9-45ab-bb9d-c0f725889e18" d="M468.14,368.26l.54-.72a2.86,2.86,0,0,0,2.16,1,1.9,1.9,0,0,0,1.87-2.07,1.78,1.78,0,0,0-1.82-2,2.45,2.45,0,0,0-1.47.51l-.58-.36.27-4.11h4.28v.93h-3.32l-.21,2.55a2.47,2.47,0,0,1,1.3-.35,2.5,2.5,0,0,1,2.65,2.79,2.85,2.85,0,0,1-2.87,3A3.74,3.74,0,0,1,468.14,368.26Z" transform="translate(-461.47 -334.75)"/><path class="a941deff-dbe9-45ab-bb9d-c0f725889e18" d="M475,364.84c0-3.06,1.06-4.53,2.74-4.53s2.74,1.49,2.74,4.53-1.07,4.58-2.74,4.58S475,367.9,475,364.84Zm4.41,0c0-2.56-.67-3.64-1.67-3.64s-1.68,1.08-1.68,3.64.68,3.71,1.68,3.71S479.37,367.43,479.37,364.84Z" transform="translate(-461.47 -334.75)"/><path class="bc8eaa64-ff24-48b0-98a0-9c67541fce14" d="M485.91,695.29c2.3-2,3.36-3.46,3.36-4.72a1.29,1.29,0,0,0-1.35-1.45,2.05,2.05,0,0,0-1.52.85l-.53-.52a2.8,2.8,0,0,1,2.16-1.08,2,2,0,0,1,2.13,2.17c0,1.46-1.15,3-2.87,4.58.38,0,.83-.08,1.2-.08h2v.79h-4.61Z" transform="translate(-461.47 -334.75)"/><path class="bc8eaa64-ff24-48b0-98a0-9c67541fce14" d="M491.53,692.15c0-2.55.89-3.78,2.29-3.78s2.28,1.24,2.28,3.78-.89,3.81-2.28,3.81S491.53,694.7,491.53,692.15Zm3.68,0c0-2.14-.56-3-1.39-3s-1.4.9-1.4,3,.56,3.09,1.4,3.09S495.21,694.31,495.21,692.15Z" transform="translate(-461.47 -334.75)"/><path class="bc8eaa64-ff24-48b0-98a0-9c67541fce14" d="M497.39,695.08H499v-5.47h-1.3V689a4.64,4.64,0,0,0,1.52-.52h.7v6.57h1.47v.75h-4Z" transform="translate(-461.47 -334.75)"/><path class="bc8eaa64-ff24-48b0-98a0-9c67541fce14" d="M502.52,695.29c2.3-2,3.36-3.46,3.36-4.72a1.29,1.29,0,0,0-1.35-1.45A2.05,2.05,0,0,0,503,690l-.53-.52a2.8,2.8,0,0,1,2.16-1.08,2,2,0,0,1,2.13,2.17c0,1.46-1.15,3-2.87,4.58.38,0,.83-.08,1.2-.08h2v.79h-4.61Z" transform="translate(-461.47 -334.75)"/><path class="bc8eaa64-ff24-48b0-98a0-9c67541fce14" d="M510.66,687.91h.66l-3,9.71h-.67Z" transform="translate(-461.47 -334.75)"/><path class="bc8eaa64-ff24-48b0-98a0-9c67541fce14" d="M512.3,695.08h1.63v-5.47h-1.3V689a4.64,4.64,0,0,0,1.52-.52h.7v6.57h1.47v.75h-4Z" transform="translate(-461.47 -334.75)"/><path class="bc8eaa64-ff24-48b0-98a0-9c67541fce14" d="M517.43,695.29c2.3-2,3.36-3.46,3.36-4.72a1.29,1.29,0,0,0-1.35-1.45,2.05,2.05,0,0,0-1.52.85l-.53-.52a2.8,2.8,0,0,1,2.16-1.08,2,2,0,0,1,2.13,2.17c0,1.46-1.15,3-2.87,4.58.38,0,.83-.08,1.2-.08h2v.79h-4.61Z" transform="translate(-461.47 -334.75)"/><path class="bc8eaa64-ff24-48b0-98a0-9c67541fce14" d="M661.87,695.29c2.3-2,3.36-3.46,3.36-4.72a1.29,1.29,0,0,0-1.35-1.45,2.05,2.05,0,0,0-1.52.85l-.53-.52a2.8,2.8,0,0,1,2.16-1.08,2,2,0,0,1,2.13,2.17c0,1.46-1.15,3-2.87,4.58.38,0,.83-.08,1.2-.08h2v.79h-4.61Z" transform="translate(-461.47 -334.75)"/><path class="bc8eaa64-ff24-48b0-98a0-9c67541fce14" d="M667.49,692.15c0-2.55.89-3.78,2.29-3.78s2.28,1.24,2.28,3.78-.89,3.81-2.28,3.81S667.49,694.7,667.49,692.15Zm3.68,0c0-2.14-.56-3-1.39-3s-1.4.9-1.4,3,.56,3.09,1.4,3.09S671.17,694.31,671.17,692.15Z" transform="translate(-461.47 -334.75)"/><path class="bc8eaa64-ff24-48b0-98a0-9c67541fce14" d="M673.35,695.08H675v-5.47h-1.3V689a4.64,4.64,0,0,0,1.52-.52h.7v6.57h1.47v.75h-4Z" transform="translate(-461.47 -334.75)"/><path class="bc8eaa64-ff24-48b0-98a0-9c67541fce14" d="M678.32,695l.45-.6a2.41,2.41,0,0,0,1.8.81,1.58,1.58,0,0,0,1.56-1.73,1.48,1.48,0,0,0-1.52-1.67,2,2,0,0,0-1.22.43l-.49-.3.23-3.43h3.57v.78h-2.77l-.18,2.12a2.21,2.21,0,0,1,3.3,2,2.37,2.37,0,0,1-2.4,2.51A3.11,3.11,0,0,1,678.32,695Z" transform="translate(-461.47 -334.75)"/><path class="bc8eaa64-ff24-48b0-98a0-9c67541fce14" d="M686.62,687.91h.66l-3,9.71h-.67Z" transform="translate(-461.47 -334.75)"/><path class="bc8eaa64-ff24-48b0-98a0-9c67541fce14" d="M688.26,695.08h1.63v-5.47h-1.3V689a4.64,4.64,0,0,0,1.52-.52h.7v6.57h1.47v.75h-4Z" transform="translate(-461.47 -334.75)"/><path class="bc8eaa64-ff24-48b0-98a0-9c67541fce14" d="M693.39,695.29c2.3-2,3.36-3.46,3.36-4.72a1.29,1.29,0,0,0-1.35-1.45,2.05,2.05,0,0,0-1.52.85l-.53-.52a2.8,2.8,0,0,1,2.16-1.08,2,2,0,0,1,2.13,2.17c0,1.46-1.15,3-2.87,4.58.38,0,.83-.08,1.2-.08h2v.79h-4.61Z" transform="translate(-461.47 -334.75)"/><path class="bc8eaa64-ff24-48b0-98a0-9c67541fce14" d="M837.82,695.29c2.3-2,3.36-3.46,3.36-4.72a1.29,1.29,0,0,0-1.35-1.45,2.05,2.05,0,0,0-1.52.85l-.53-.52a2.8,2.8,0,0,1,2.16-1.08,2,2,0,0,1,2.13,2.17c0,1.46-1.15,3-2.87,4.58.38,0,.83-.08,1.2-.08h2v.79h-4.61Z" transform="translate(-461.47 -334.75)"/><path class="bc8eaa64-ff24-48b0-98a0-9c67541fce14" d="M843.44,692.15c0-2.55.89-3.78,2.29-3.78s2.28,1.24,2.28,3.78-.89,3.81-2.28,3.81S843.44,694.7,843.44,692.15Zm3.68,0c0-2.14-.56-3-1.39-3s-1.4.9-1.4,3,.56,3.09,1.4,3.09S847.12,694.31,847.12,692.15Z" transform="translate(-461.47 -334.75)"/><path class="bc8eaa64-ff24-48b0-98a0-9c67541fce14" d="M849.3,695.08h1.63v-5.47h-1.3V689a4.64,4.64,0,0,0,1.52-.52h.7v6.57h1.47v.75h-4Z" transform="translate(-461.47 -334.75)"/><path class="bc8eaa64-ff24-48b0-98a0-9c67541fce14" d="M854.44,694a2.35,2.35,0,0,1,1.35-2v0a2,2,0,0,1-1-1.69,2,2,0,0,1,4,.07,2.4,2.4,0,0,1-1,1.77v0a2.14,2.14,0,0,1,1.24,1.92,2,2,0,0,1-2.3,1.89A2.1,2.1,0,0,1,854.44,694Zm3.77,0c0-1-.9-1.35-1.94-1.77a2,2,0,0,0-1,1.66,1.41,1.41,0,0,0,1.53,1.35A1.27,1.27,0,0,0,858.21,694.05Zm-.17-3.67a1.22,1.22,0,0,0-1.25-1.31,1.13,1.13,0,0,0-1.16,1.19c0,.88.79,1.26,1.65,1.6A2,2,0,0,0,858,690.38Z" transform="translate(-461.47 -334.75)"/><path class="bc8eaa64-ff24-48b0-98a0-9c67541fce14" d="M862.57,687.91h.66l-3,9.71h-.66Z" transform="translate(-461.47 -334.75)"/><path class="bc8eaa64-ff24-48b0-98a0-9c67541fce14" d="M864.21,695.08h1.63v-5.47h-1.3V689a4.64,4.64,0,0,0,1.52-.52h.7v6.57h1.47v.75h-4Z" transform="translate(-461.47 -334.75)"/><path class="bc8eaa64-ff24-48b0-98a0-9c67541fce14" d="M869.34,695.29c2.3-2,3.36-3.46,3.36-4.72a1.29,1.29,0,0,0-1.35-1.45,2.05,2.05,0,0,0-1.52.85l-.53-.52a2.8,2.8,0,0,1,2.16-1.08,2,2,0,0,1,2.13,2.17c0,1.46-1.15,3-2.87,4.58.38,0,.83-.08,1.2-.08h2v.79h-4.61Z" transform="translate(-461.47 -334.75)"/><path class="bc8eaa64-ff24-48b0-98a0-9c67541fce14" d="M1013.78,695.29c2.3-2,3.36-3.46,3.36-4.72a1.29,1.29,0,0,0-1.35-1.45,2.05,2.05,0,0,0-1.52.85l-.53-.52a2.8,2.8,0,0,1,2.16-1.08,2,2,0,0,1,2.13,2.17c0,1.46-1.15,3-2.87,4.58.38,0,.83-.08,1.2-.08h2v.79h-4.6Z" transform="translate(-461.47 -334.75)"/><path class="bc8eaa64-ff24-48b0-98a0-9c67541fce14" d="M1019.4,692.15c0-2.55.89-3.78,2.29-3.78s2.28,1.24,2.28,3.78-.89,3.81-2.28,3.81S1019.4,694.7,1019.4,692.15Zm3.68,0c0-2.14-.56-3-1.39-3s-1.4.9-1.4,3,.56,3.09,1.4,3.09S1023.08,694.31,1023.08,692.15Z" transform="translate(-461.47 -334.75)"/><path class="bc8eaa64-ff24-48b0-98a0-9c67541fce14" d="M1024.82,695.29c2.3-2,3.36-3.46,3.36-4.72a1.29,1.29,0,0,0-1.35-1.45,2.05,2.05,0,0,0-1.52.85l-.53-.52a2.8,2.8,0,0,1,2.16-1.08,2,2,0,0,1,2.13,2.17c0,1.46-1.15,3-2.87,4.58.38,0,.83-.08,1.2-.08h2v.79h-4.6Z" transform="translate(-461.47 -334.75)"/><path class="bc8eaa64-ff24-48b0-98a0-9c67541fce14" d="M1030.83,695.08h1.63v-5.47h-1.3V689a4.64,4.64,0,0,0,1.52-.52h.7v6.57h1.46v.75h-4Z" transform="translate(-461.47 -334.75)"/><path class="bc8eaa64-ff24-48b0-98a0-9c67541fce14" d="M1038.53,687.91h.66l-3,9.71h-.67Z" transform="translate(-461.47 -334.75)"/><path class="bc8eaa64-ff24-48b0-98a0-9c67541fce14" d="M1040.17,695.08h1.63v-5.47h-1.3V689a4.64,4.64,0,0,0,1.52-.52h.69v6.57h1.47v.75h-4Z" transform="translate(-461.47 -334.75)"/><path class="bc8eaa64-ff24-48b0-98a0-9c67541fce14" d="M1045.3,695.29c2.3-2,3.36-3.46,3.36-4.72a1.29,1.29,0,0,0-1.35-1.45,2.05,2.05,0,0,0-1.52.85l-.53-.52a2.8,2.8,0,0,1,2.16-1.08,2,2,0,0,1,2.12,2.17c0,1.46-1.14,3-2.86,4.58.38,0,.83-.08,1.2-.08h2v.79h-4.6Z" transform="translate(-461.47 -334.75)"/><path class="bc8eaa64-ff24-48b0-98a0-9c67541fce14" d="M1113.21,695.29c2.3-2,3.36-3.46,3.36-4.72a1.29,1.29,0,0,0-1.35-1.45,2.05,2.05,0,0,0-1.52.85l-.53-.52a2.8,2.8,0,0,1,2.16-1.08,2,2,0,0,1,2.13,2.17c0,1.46-1.15,3-2.87,4.58.38,0,.83-.08,1.2-.08h2v.79h-4.61Z" transform="translate(-461.47 -334.75)"/><path class="bc8eaa64-ff24-48b0-98a0-9c67541fce14" d="M1118.83,692.15c0-2.55.89-3.78,2.29-3.78s2.28,1.24,2.28,3.78-.89,3.81-2.28,3.81S1118.83,694.7,1118.83,692.15Zm3.68,0c0-2.14-.56-3-1.39-3s-1.4.9-1.4,3,.56,3.09,1.4,3.09S1122.51,694.31,1122.51,692.15Z" transform="translate(-461.47 -334.75)"/><path class="bc8eaa64-ff24-48b0-98a0-9c67541fce14" d="M1124.35,695.29c2.3-2,3.36-3.46,3.36-4.72a1.29,1.29,0,0,0-1.35-1.45,2.05,2.05,0,0,0-1.52.85l-.53-.52a2.8,2.8,0,0,1,2.16-1.08,2,2,0,0,1,2.13,2.17c0,1.46-1.15,3-2.87,4.58.38,0,.83-.08,1.2-.08h2v.79h-4.61Z" transform="translate(-461.47 -334.75)"/><path class="bc8eaa64-ff24-48b0-98a0-9c67541fce14" d="M1129.77,695l.46-.6a2.42,2.42,0,0,0,1.82.84,1.35,1.35,0,0,0,1.49-1.36c0-.88-.59-1.47-2.28-1.47v-.7c1.51,0,2-.61,2-1.4a1.15,1.15,0,0,0-1.24-1.18,2.29,2.29,0,0,0-1.52.73l-.49-.58a2.93,2.93,0,0,1,2-.88c1.23,0,2.13.66,2.13,1.84a1.83,1.83,0,0,1-1.31,1.77v0a1.88,1.88,0,0,1,1.56,1.86,2.13,2.13,0,0,1-2.35,2.08A3,3,0,0,1,1129.77,695Z" transform="translate(-461.47 -334.75)"/><path class="bc8eaa64-ff24-48b0-98a0-9c67541fce14" d="M1138.16,687.91h.66l-3,9.71h-.67Z" transform="translate(-461.47 -334.75)"/><path class="bc8eaa64-ff24-48b0-98a0-9c67541fce14" d="M1144.15,693.82h-1v2h-.87v-2h-3.19v-.6l3.05-4.71h1v4.58h1Zm-1.84-.73v-2.25c0-.36,0-1,.06-1.33h0c-.18.36-.38.72-.59,1.08l-1.67,2.5Z" transform="translate(-461.47 -334.75)"/><path class="a941deff-dbe9-45ab-bb9d-c0f725889e18" d="M464.67,336.85a14.43,14.43,0,0,1-1.89,2.46c-.2-.14-.57-.4-.8-.53a11.13,11.13,0,0,0,2.76-4l.88.25c-.16.33-.31.68-.49,1h7.38v.8Zm6.55,4.68c-.05.78-.08,1.41-.14,1.92h1.43v.79H471a3,3,0,0,1-.35,1.12,1.14,1.14,0,0,1-.84.43,13.9,13.9,0,0,1-1.53,0,1.75,1.75,0,0,0-.23-.7,12.6,12.6,0,0,0,1.39,0,.47.47,0,0,0,.44-.16,1.63,1.63,0,0,0,.24-.7h-6.84c.13-.73.3-1.69.45-2.71H462v-.82h1.81c.12-.92.25-1.84.34-2.65h7.17s0,.33,0,.44c0,.83-.06,1.57-.09,2.21h1.68v.82Zm-1,1.92c.05-.49.1-1.13.14-1.94H464.6c-.1.69-.2,1.36-.3,1.94H468a10.6,10.6,0,0,0-2.15-1.45l.5-.49a8.91,8.91,0,0,1,2.28,1.49l-.41.45Zm-5.24-4.6q-.12.93-.27,1.89h3.6a8.58,8.58,0,0,0-2.13-1.35l.5-.5a9.32,9.32,0,0,1,2.18,1.32l-.51.53h2.05c0-.57.05-1.18.07-1.89Z" transform="translate(-461.47 -334.75)"/><path class="a941deff-dbe9-45ab-bb9d-c0f725889e18" d="M478.11,344.66c0,.47-.1.72-.38.88a3.87,3.87,0,0,1-1.49.15,4.1,4.1,0,0,0-.25-.83c.51,0,1,0,1.11,0s.21-.08.21-.23v-3.26c-.51.31-1,.59-1.44.87l-.34-.72a11.85,11.85,0,0,1-.89,4.26,3.17,3.17,0,0,0-.72-.42,14.38,14.38,0,0,0,.87-5.82v-4.28h3.32Zm-2.52-5.11c0,.56,0,1.2,0,1.86.48-.19,1.11-.48,1.77-.8v-1.37l-.46.37a11.52,11.52,0,0,0-1.26-1.43Zm0-3.45V338l.41-.32a13.58,13.58,0,0,1,1.31,1.35V336.1Zm8.91,4.19a7.65,7.65,0,0,1-2.19,3.52A7.43,7.43,0,0,0,485,345a3.15,3.15,0,0,0-.59.78,8,8,0,0,1-2.75-1.42,9.46,9.46,0,0,1-2.85,1.4,3.36,3.36,0,0,0-.48-.76,8.36,8.36,0,0,0,2.68-1.23,8.17,8.17,0,0,1-1.79-2.78l.16-.06h-.61v-.84h5.06l.15,0Zm-3.79-3.67a3.45,3.45,0,0,1-1.77,3.18,3.41,3.41,0,0,0-.58-.62,2.7,2.7,0,0,0,1.53-2.57v-1.32h3.64v2.8c0,.32,0,.43.18.43h.66a2.44,2.44,0,0,0,.52-.06c0,.23,0,.54.07.74a2,2,0,0,1-.57.06h-.74c-.79,0-1-.33-1-1.2v-1.93h-2Zm-.7,4.32a7,7,0,0,0,1.63,2.33,6.47,6.47,0,0,0,1.7-2.33Z" transform="translate(-461.47 -334.75)"/><path class="a941deff-dbe9-45ab-bb9d-c0f725889e18" d="M489.05,338a6.63,6.63,0,0,1-2.48,3.61,4.25,4.25,0,0,0-.66-.59c1.54-1,2.34-2.6,2.69-4.8h-2.14v-.75h8c-.15.67-.33,1.46-.51,2.12h2.38s0,.24,0,.36c-.18,1.87-.34,2.65-.66,2.94a1,1,0,0,1-.77.3,14.28,14.28,0,0,1-1.45,0,2,2,0,0,0-.26-.77c.57.05,1.15.06,1.36.06a.58.58,0,0,0,.44-.11c.19-.17.33-.72.45-2h-2.52a20,20,0,0,0,.54-2.11h-4c-.07.36-.14.72-.21,1.06H492l.13,0,.48.17a5.78,5.78,0,0,1-1,2.22,10,10,0,0,1,1.27,1l-.54.55a9,9,0,0,0-1.21-1,5.14,5.14,0,0,1-2,1.2,2,2,0,0,0-.51-.61,5.12,5.12,0,0,0,1.89-1A11.21,11.21,0,0,0,489,339l.53-.48a12.81,12.81,0,0,1,1.38.7,3.93,3.93,0,0,0,.7-1.24Zm7.84,6.69v.79H486.06v-.79h1.34v-3h8.14v3Zm-8.65,0h1.58v-2.22h-1.58Zm2.41-2.22v2.22h1.58v-2.22Zm2.41,0v2.22h1.62v-2.22Z" transform="translate(-461.47 -334.75)"/><path class="a941deff-dbe9-45ab-bb9d-c0f725889e18" d="M499.52,337.1a7.45,7.45,0,0,1-1.21,1,4.75,4.75,0,0,0-.42-.8,7.41,7.41,0,0,0,2.48-2.56l.76.27-.24.39a15,15,0,0,1,1.69,1.12l-.42.69a14.61,14.61,0,0,0-1.69-1.18,11.5,11.5,0,0,1-.93,1h2v.65h-2Zm1.81,5.59a22.76,22.76,0,0,1,1.26,2.39l-.71.36a10.59,10.59,0,0,0-.44-1,18.92,18.92,0,0,0-2.94,1.31,3.09,3.09,0,0,0-.31-.79.68.68,0,0,0,.5-.66v-5.87h3.41v4h-2.58v2l1.62-.61c-.16-.32-.31-.6-.47-.88Zm-1.81-3.56v.95h1.8v-.95Zm1.8,2.65v-1h-1.8v1Zm5.07-6.7c-.08.14-.18.28-.27.44a9.64,9.64,0,0,0,2.93,2.21,2.79,2.79,0,0,0-.56.72,12,12,0,0,1-2.83-2.33,9.28,9.28,0,0,1-2.78,2.26,2.66,2.66,0,0,0-.53-.64,8.09,8.09,0,0,0,3.36-3Zm-2,7.07a16.87,16.87,0,0,1-1.36,2.69,5.1,5.1,0,0,0-.64-.43,13.61,13.61,0,0,0,1.26-2.47Zm1.76-.84v3.53c0,.47-.11.67-.41.8a4.12,4.12,0,0,1-1.48.15A3.67,3.67,0,0,0,504,345h1.14c.14,0,.19-.06.19-.2v-3.53H502.7v-.8h2.61v-1.42h-1.84v-.79H508v.79h-1.85v1.42h2.68v.8Zm1.45.57c.47.82,1.07,1.94,1.36,2.6l-.72.35a25,25,0,0,0-1.32-2.66Z" transform="translate(-461.47 -334.75)"/><path class="a941deff-dbe9-45ab-bb9d-c0f725889e18" d="M513.68,343.68a13.82,13.82,0,0,1-2.88,1.87,6.81,6.81,0,0,0-.7-.59,10.92,10.92,0,0,0,2.79-1.61Zm2.29-.92v2.08c0,.47-.1.68-.44.83a5.76,5.76,0,0,1-1.71.13,2.94,2.94,0,0,0-.31-.82c.61,0,1.16,0,1.33,0s.21,0,.21-.18v-2a21.73,21.73,0,0,0-4.13.33,4.23,4.23,0,0,0-.22-.8,6.22,6.22,0,0,0,1.58-.44,19.59,19.59,0,0,0,2.07-.85,12.11,12.11,0,0,0-2.78.28,5.81,5.81,0,0,0-.25-.78,2.86,2.86,0,0,0,.81-.29,11.49,11.49,0,0,0,1.57-.93h-2.53v-4.07h8.7v4.07H515a16.64,16.64,0,0,1-1.76,1.11l2.68-.15c.47-.25,1-.52,1.41-.8l.68.54a31.11,31.11,0,0,1-4.52,2.12l4.91-.22c-.31-.29-.65-.59-1-.82l.64-.44a13.16,13.16,0,0,1,2.27,2.14l-.65.52a9,9,0,0,0-.63-.73ZM512,337h3v-1h-3Zm0,1.68h3v-1h-3Zm7-2.65h-3.1v1H519Zm0,1.65h-3.1v1H519Zm-1.43,5.72a18.3,18.3,0,0,1,3,1.71l-.68.52a18.68,18.68,0,0,0-2.94-1.76Z" transform="translate(-461.47 -334.75)"/><path class="a941deff-dbe9-45ab-bb9d-c0f725889e18" d="M525.87,342.06a13.15,13.15,0,0,0-1.06-1.45v5.15H524v-5.24a12.23,12.23,0,0,1-1.69,3.08,4.59,4.59,0,0,0-.46-.81,12.15,12.15,0,0,0,2.08-3.8h-1.76v-.84H524v-1.81c-.55.09-1.11.19-1.63.25a3,3,0,0,0-.28-.69,17.25,17.25,0,0,0,3.66-.88l.63.67a10.21,10.21,0,0,1-1.52.45v2h1.3V338H529v-.65h-2.27v-.58H529v-.62h-2.54v-.6H529v-.66h.89v.66h2.72v.6h-2.72v.62h2.42v.58h-2.42V338h3v.61h-6.76V339h-1.36v.73c.38.36,1.36,1.37,1.59,1.63Zm3.13,2.32a9,9,0,0,1-2.84,1.45,4.48,4.48,0,0,0-.58-.57,8.18,8.18,0,0,0,2.68-1.32Zm-2.09-.5v-4.7h5.34v4.7Zm.82-3.35h3.68v-.75h-3.68Zm0,1.37h3.68v-.78h-3.68Zm0,1.38h3.68v-.8h-3.68Zm3,.7c.8.45,1.73,1,2.29,1.39l-.78.43c-.48-.36-1.34-.92-2.11-1.38Z" transform="translate(-461.47 -334.75)"/><path class="a941deff-dbe9-45ab-bb9d-c0f725889e18" d="M544.11,338.9A13.8,13.8,0,0,1,542,343c.44,1.17,1,1.86,1.6,1.86.34,0,.48-.63.57-2.22a2.21,2.21,0,0,0,.76.48c-.16,2-.49,2.62-1.4,2.62s-1.64-.73-2.19-2a10.79,10.79,0,0,1-2.47,2,6.06,6.06,0,0,0-.65-.71A9.64,9.64,0,0,0,541,342.8a23.27,23.27,0,0,1-.88-5.05H536v1.56H539v.38c-.06,2.69-.13,3.7-.38,4a1,1,0,0,1-.72.35c-.3,0-.84,0-1.43,0a1.87,1.87,0,0,0-.25-.84c.55.05,1.07.06,1.27.06a.4.4,0,0,0,.36-.13c.17-.18.23-.94.28-3H536v.09c0,1.68-.18,4.09-1.26,5.65a3.54,3.54,0,0,0-.74-.6,9.32,9.32,0,0,0,1.09-5.06v-3.34h5c0-.66-.06-1.34-.07-2h.92c0,.7,0,1.37.05,2h3.88v.87H541a21.86,21.86,0,0,0,.66,4.16,11.56,11.56,0,0,0,1.54-3.24Zm-2.08-4a11.23,11.23,0,0,1,2.15,1.36l-.55.62a11.91,11.91,0,0,0-2.13-1.44Z" transform="translate(-461.47 -334.75)"/><path class="a941deff-dbe9-45ab-bb9d-c0f725889e18" d="M556.27,342a18.58,18.58,0,0,1-2.59,1.57,8.36,8.36,0,0,0,3.4,1.37,4.67,4.67,0,0,0-.55.79,7.58,7.58,0,0,1-5.64-4.31H549v3.21l3.24-.78a7,7,0,0,0,0,.78,35,35,0,0,0-4.23,1.16l0,0a5.31,5.31,0,0,0-.41-.88,1,1,0,0,0,.59-.85v-2.68h-2v-.81h2.1v-5.26h7.38v.75h-6.48v1h6.12v.74h-6.12v1h6.12v.72h-6.12v1h7.64v.81h-5a6,6,0,0,0,1.28,1.67,17.44,17.44,0,0,0,2.46-1.58Z" transform="translate(-461.47 -334.75)"/><path class="a941deff-dbe9-45ab-bb9d-c0f725889e18" d="M568.81,343.27h-4.88v2.53H563v-2.53h-4.87v-.83H563v-1h.93v1h4.88Zm-7.5-3.12c-.91.49-1.89,1-2.68,1.4l-.44-.72c.74-.3,1.86-.82,2.94-1.34Zm4.1,1.48a2.61,2.61,0,0,0-.33-.64c-3.11.3-3.53.36-3.77.48a7.33,7.33,0,0,0-.27-.78,2.48,2.48,0,0,0,1-.59c.23-.19.74-.66,1.32-1.25a7.49,7.49,0,0,0-1.83.24,3.66,3.66,0,0,0-.25-.75,1,1,0,0,0,.53-.38,8.2,8.2,0,0,0,.92-1.23h-4.36v-.81h4.88c-.16-.3-.37-.66-.55-.94l.86-.23a7,7,0,0,1,.71,1.17h4.45v.81h-5.05a13.86,13.86,0,0,1-1.14,1.47l1.52-.1a9.82,9.82,0,0,0,.81-1l.73.42a23.62,23.62,0,0,1-3,3l2.09-.17c-.19-.26-.39-.54-.58-.77l.66-.27a9.05,9.05,0,0,1,1.38,2Zm-6.27-4.41a11.19,11.19,0,0,1,1.82,1.36l-.63.54a9.45,9.45,0,0,0-1.79-1.4Zm8.78,4.45a16.92,16.92,0,0,0-2.36-1.68l.64-.48a14.4,14.4,0,0,1,2.37,1.64Zm.2-4a12,12,0,0,1-1.79,1.5l-.65-.42a10.37,10.37,0,0,0,1.7-1.53Z" transform="translate(-461.47 -334.75)"/><path class="a941deff-dbe9-45ab-bb9d-c0f725889e18" d="M571.77,341.15a11.17,11.17,0,0,1,1.77-6.09l.68.32a11.56,11.56,0,0,0,0,11.53l-.68.33A11.19,11.19,0,0,1,571.77,341.15Z" transform="translate(-461.47 -334.75)"/><path class="a941deff-dbe9-45ab-bb9d-c0f725889e18" d="M576.39,338.67c0-1.76.79-2.75,2-2.75s2,1,2,2.75-.8,2.8-2,2.8S576.39,340.45,576.39,338.67Zm3.17,0c0-1.4-.48-2.08-1.18-2.08s-1.16.68-1.16,2.08.48,2.12,1.16,2.12S579.56,340.08,579.56,338.67Zm3.93-2.75h.75L579.38,345h-.73Zm-1,6.33c0-1.76.8-2.76,2-2.76s2,1,2,2.76-.79,2.78-2,2.78S582.51,344,582.51,342.25Zm3.17,0c0-1.4-.48-2.09-1.17-2.09s-1.17.69-1.17,2.09.48,2.11,1.17,2.11S585.68,343.65,585.68,342.25Z" transform="translate(-461.47 -334.75)"/><path class="a941deff-dbe9-45ab-bb9d-c0f725889e18" d="M588.69,346.91a11.56,11.56,0,0,0,0-11.53l.67-.32a11.31,11.31,0,0,1,0,12.18Z" transform="translate(-461.47 -334.75)"/></svg>