<svg xmlns="http://www.w3.org/2000/svg" viewBox="0 0 53.7 53.7"><defs><style>.b91ca7e0-7bbb-40bc-b3b0-3f6d7b5c18d9{fill:none;stroke:#002d94;stroke-linecap:round;stroke-miterlimit:10;stroke-width:1.5px;}</style></defs><g id="bd6fa5bc-f6d4-4109-929d-3d0b61fe8d88" data-name="圖層 2"><g id="bcbb18b3-649f-4800-9e84-99597109031c" data-name="分離模式"><g id="f1467c48-1a51-4ce7-b2aa-17857f611373" data-name="funds"><path class="b91ca7e0-7bbb-40bc-b3b0-3f6d7b5c18d9" d="M37.79,27.69V26A13.51,13.51,0,0,0,24.32,12.54H18.43A13.51,13.51,0,0,0,5,26V44.53A4.21,4.21,0,1,0,5,53H26.85"/><path class="b91ca7e0-7bbb-40bc-b3b0-3f6d7b5c18d9" d="M25.17,12.54H17.59a1.69,1.69,0,0,1-1.69-1.69h0a1.69,1.69,0,0,1,1.69-1.68h7.58a1.69,1.69,0,0,1,1.68,1.68h0A1.69,1.69,0,0,1,25.17,12.54Z"/><path class="b91ca7e0-7bbb-40bc-b3b0-3f6d7b5c18d9" d="M24.32,9.17H18.43A4.22,4.22,0,0,1,14.22,5h0A4.22,4.22,0,0,1,18.43.75c3.37,2.53,5.89,0,5.89,0A4.22,4.22,0,0,1,28.53,5h0A4.22,4.22,0,0,1,24.32,9.17Z"/><path class="b91ca7e0-7bbb-40bc-b3b0-3f6d7b5c18d9" d="M16.75,37.79a4.48,4.48,0,0,0,3.79,2.53h2.52a3.8,3.8,0,0,0,3.79-3.79h0a3.81,3.81,0,0,0-3.79-3.79H20.54A3.79,3.79,0,0,1,16.75,29h0a3.79,3.79,0,0,1,3.79-3.78h2.52a4.49,4.49,0,0,1,3.79,2.52"/><line class="b91ca7e0-7bbb-40bc-b3b0-3f6d7b5c18d9" x1="21.8" y1="22.64" x2="21.8" y2="25.17"/><line class="b91ca7e0-7bbb-40bc-b3b0-3f6d7b5c18d9" x1="21.8" y1="40.32" x2="21.8" y2="42.85"/><rect class="b91ca7e0-7bbb-40bc-b3b0-3f6d7b5c18d9" x="31.9" y="47.9" width="16" height="5.05" transform="translate(79.8 100.85) rotate(180)"/><rect class="b91ca7e0-7bbb-40bc-b3b0-3f6d7b5c18d9" x="33.58" y="42.85" width="16" height="5.05" transform="translate(83.17 90.74) rotate(180)"/><rect class="b91ca7e0-7bbb-40bc-b3b0-3f6d7b5c18d9" x="36.95" y="37.79" width="16" height="5.05" transform="translate(89.9 80.64) rotate(180)"/><rect class="b91ca7e0-7bbb-40bc-b3b0-3f6d7b5c18d9" x="35.27" y="32.74" width="16" height="5.05" transform="translate(86.53 70.54) rotate(180)"/></g></g></g></svg>