<?xml version="1.0" encoding="utf-8"?>
<!-- Generator: Adobe Illustrator 27.2.0, SVG Export Plug-In . SVG Version: 6.00 Build 0)  -->
<svg version="1.1" id="分離模式" xmlns="http://www.w3.org/2000/svg" xmlns:xlink="http://www.w3.org/1999/xlink" x="0px"
	 y="0px" viewBox="0 0 45 45" style="enable-background:new 0 0 45 45;" xml:space="preserve">
<style type="text/css">
	.st0{fill:#E94C96;}
</style>
<path class="st0" d="M43.4,17.6c0-3.3-1.3-6.4-3.6-8.7c-2.3-2.4-5.5-3.7-8.8-3.8c-3.1-0.1-6,1-8.3,2.9c-2.3-1.9-5.2-3-8.2-3
	C11.2,5,8.1,6.1,5.7,8.3C5.6,8.4,5.5,8.5,5.4,8.6C0.5,13.3,0.3,20.9,5,25.9l11.9,11.7c1.5,1.5,3.6,2.3,5.7,2.3
	c2.2,0,4.2-0.8,5.7-2.3l11.5-11.3c0,0,0,0,0,0c0,0,0.1-0.1,0.1-0.1l0.4-0.4l0,0C42.3,23.5,43.4,20.7,43.4,17.6z M35.4,24.3l-6,0
	c-0.2,0-0.3-0.4-0.5-0.5l-2.5-1.9l-1.7,2.7l-4.6,7.1C20,31.9,19.7,32,19.4,32c-0.1,0-0.4,0-0.5,0c-0.4-0.1-0.8-0.4-0.8-0.8V16.8
	l-1.9,3.3l-1.5,2.6c-0.2,0.2-0.3,0.4-0.6,0.4L3.7,23.1c-0.5,0-0.8-0.4-0.8-0.9c0-0.5,0.4-0.9,0.9-0.9l10,0.1l1.3-2l3.7-5.8
	c0.2-0.3,0.5-0.4,0.9-0.3c0.4,0.1,0.6,0.4,0.6,0.8v14.3l3-4.6l2.3-3.6c0.1-0.2,0.3-0.3,0.6-0.4c0.2,0,0.5,0.3,0.6,0.4l3,2.4l5.7,0
	c0.5,0,0.8,0.4,0.8,0.9C36.3,23.9,35.9,24.3,35.4,24.3z"/>
</svg>
