<svg width="20" height="22" viewBox="0 0 20 22" fill="none" xmlns="http://www.w3.org/2000/svg">
<path d="M9.99995 12.5043C11.4084 12.5043 12.7156 12.1091 13.7592 11.4302C14.5699 10.9134 15.6237 10.9945 16.333 11.643C18.3089 13.4365 19.4336 15.9697 19.4235 18.6346V19.7796C19.4235 20.9652 18.4609 21.9177 17.2855 21.9177H2.71444C1.53904 21.9177 0.576416 20.9652 0.576416 19.7796V18.6346C0.576416 15.9697 1.69103 13.4263 3.66693 11.643C4.37623 10.9945 5.44018 10.9134 6.24067 11.4302C7.29449 12.0989 8.59149 12.5043 10.0101 12.5043H9.99995Z" fill="white"/>
<path d="M9.99991 10.5989C12.9267 10.5989 15.2994 8.22629 15.2994 5.29947C15.2994 2.37266 12.9267 0 9.99991 0C7.07309 0 4.70044 2.37266 4.70044 5.29947C4.70044 8.22629 7.07309 10.5989 9.99991 10.5989Z" fill="white"/>
</svg>
