<svg width="22" height="23" viewBox="0 0 22 23" fill="none" xmlns="http://www.w3.org/2000/svg">
<g clip-path="url(#clip0_16076_2818)">
<path d="M11 0.917725C4.92075 0.917725 0 5.83848 0 11.9177C0 17.997 4.92075 22.9177 11 22.9177C17.0792 22.9177 22 17.997 22 11.9177C22 5.83848 17.0792 0.917725 11 0.917725ZM11.0918 10.7019C12.9614 10.7019 14.487 12.2274 14.487 14.0971C14.487 15.5767 13.5464 16.827 12.2273 17.2973V18.6278C12.2273 19.2472 11.7226 19.7634 11.0918 19.7634C10.4609 19.7634 9.9562 19.2587 9.9562 18.6278V17.4923H8.82065C8.20125 17.4923 7.68509 16.9876 7.68509 16.3567C7.68509 15.7259 8.18978 15.2212 8.82065 15.2212H11.0803C11.6997 15.2212 12.2158 14.7165 12.2158 14.0856C12.2158 13.4547 11.7112 12.95 11.0803 12.95C9.21064 12.95 7.68509 11.4245 7.68509 9.55485C7.68509 8.07518 8.62565 6.82492 9.94473 6.35464V5.02409C9.94473 4.40469 10.4494 3.88853 11.0803 3.88853C11.7112 3.88853 12.2158 4.39322 12.2158 5.02409V6.15964H13.3514C13.9708 6.15964 14.487 6.66434 14.487 7.2952C14.487 7.92607 13.9823 8.43076 13.3514 8.43076H11.0918C10.4724 8.43076 9.9562 8.93545 9.9562 9.56632C9.9562 10.1972 10.4609 10.7019 11.0918 10.7019Z" fill="white"/>
</g>
<defs>
<clipPath id="clip0_16076_2818">
<rect width="22" height="22" fill="white" transform="translate(0 0.917725)"/>
</clipPath>
</defs>
</svg>
