<svg width="36" height="36" viewBox="0 0 36 36" fill="none" xmlns="http://www.w3.org/2000/svg"><rect width="36" height="36" rx="8" fill="#FEAE2A"/><path d="M28.067 22.426v1.977h-8.753v-1.687l4.14-4.439c.415-.463.743-.87.983-1.221.24-.358.414-.677.52-.958.11-.287.166-.56.166-.818 0-.386-.064-.717-.193-.993a1.44 1.44 0 00-.572-.65c-.246-.153-.55-.229-.914-.229-.386 0-.72.094-1.002.282a1.79 1.79 0 00-.632.782 2.89 2.89 0 00-.211 1.133h-2.54c0-.761.181-1.459.544-2.091a3.996 3.996 0 011.539-1.52c.662-.382 1.447-.572 2.355-.572.897 0 1.652.146 2.268.44.62.286 1.09.703 1.406 1.247.322.54.483 1.184.483 1.934 0 .422-.067.835-.202 1.24a5.593 5.593 0 01-.58 1.194 9.63 9.63 0 01-.896 1.196 27.91 27.91 0 01-1.17 1.257l-2.223 2.496h5.484zM16.59 16.88v2.215c0 .96-.102 1.79-.307 2.487-.205.691-.5 1.26-.888 1.705-.38.44-.835.765-1.362.976a4.695 4.695 0 01-1.758.316 5.16 5.16 0 01-1.441-.193 3.626 3.626 0 01-1.204-.624 3.962 3.962 0 01-.914-1.064 5.455 5.455 0 01-.58-1.547c-.135-.597-.202-1.283-.202-2.056V16.88c0-.961.102-1.784.307-2.47.211-.691.507-1.257.888-1.696.387-.44.844-.762 1.371-.967a4.693 4.693 0 011.758-.316c.515 0 .993.067 1.432.202.446.129.847.33 1.205.606.357.276.662.63.914 1.064.252.427.445.94.58 1.538.134.592.202 1.271.202 2.039zm-2.54 2.549v-2.892a8.15 8.15 0 00-.078-1.213 3.561 3.561 0 00-.22-.879 1.856 1.856 0 00-.37-.597 1.344 1.344 0 00-.5-.334 1.765 1.765 0 00-.624-.106c-.287 0-.542.056-.765.167a1.42 1.42 0 00-.553.536c-.153.24-.27.563-.352.967a7.917 7.917 0 00-.114 1.46v2.89c0 .464.023.87.07 1.222.053.352.129.654.229.906a2.2 2.2 0 00.369.606c.146.152.313.264.5.334.194.07.405.106.633.106.282 0 .53-.056.748-.167a1.47 1.47 0 00.562-.545c.158-.252.275-.58.351-.985.077-.404.115-.896.115-1.476z" fill="#fff"/></svg>