<svg width="36" height="36" viewBox="0 0 36 36" fill="none" xmlns="http://www.w3.org/2000/svg"><rect width="36" height="36" rx="8" fill="#FEAE2A"/><path d="M21.984 16.906h1.354c.433 0 .79-.073 1.072-.22.281-.152.49-.363.624-.632a2.09 2.09 0 00.211-.958 1.88 1.88 0 00-.193-.87 1.312 1.312 0 00-.572-.598c-.257-.147-.582-.22-.975-.22-.31 0-.598.062-.861.185a1.577 1.577 0 00-.633.518 1.36 1.36 0 00-.238.809h-2.54c0-.703.188-1.316.563-1.837.38-.521.89-.929 1.53-1.222a5 5 0 012.109-.44c.867 0 1.626.142 2.276.423.65.275 1.157.682 1.52 1.221.364.54.545 1.208.545 2.004 0 .405-.093.797-.28 1.178a3.307 3.307 0 01-.81 1.02 4.009 4.009 0 01-1.265.72 5.02 5.02 0 01-1.679.264h-1.758v-1.345zm0 1.925v-1.31h1.758c.697 0 1.31.08 1.837.238.527.158.97.386 1.327.685.358.293.627.642.809 1.046.181.399.272.841.272 1.327 0 .598-.114 1.131-.342 1.6a3.361 3.361 0 01-.967 1.178 4.41 4.41 0 01-1.442.738 6.287 6.287 0 01-1.801.246 5.83 5.83 0 01-1.591-.22 4.736 4.736 0 01-1.407-.676 3.482 3.482 0 01-1.002-1.143c-.245-.463-.369-1.01-.369-1.643h2.54c0 .328.082.62.246.878.165.258.39.46.677.607.293.146.619.22.976.22.404 0 .75-.074 1.037-.22a1.58 1.58 0 00.668-.633 1.89 1.89 0 00.237-.958c0-.469-.085-.844-.255-1.125a1.512 1.512 0 00-.73-.633c-.316-.135-.69-.202-1.124-.202h-1.354zm-5.315-1.951v2.215c0 .96-.103 1.79-.308 2.487-.205.691-.5 1.26-.887 1.705-.381.44-.835.765-1.363.976a4.695 4.695 0 01-1.758.316c-.515 0-.996-.064-1.44-.193a3.625 3.625 0 01-1.205-.624 3.962 3.962 0 01-.914-1.064 5.454 5.454 0 01-.58-1.547c-.135-.597-.202-1.283-.202-2.056V16.88c0-.961.102-1.784.307-2.47.211-.691.507-1.257.888-1.696.387-.44.844-.762 1.371-.967a4.693 4.693 0 011.758-.316c.516 0 .993.067 1.433.202.445.129.846.33 1.204.606.357.276.662.63.914 1.064.252.427.445.94.58 1.538.135.592.202 1.271.202 2.039zm-2.54 2.549v-2.892a8.15 8.15 0 00-.08-1.213 3.561 3.561 0 00-.219-.879 1.854 1.854 0 00-.37-.597 1.343 1.343 0 00-.5-.334 1.766 1.766 0 00-.624-.106c-.287 0-.542.056-.765.167a1.42 1.42 0 00-.553.536c-.153.24-.27.563-.352.967a7.918 7.918 0 00-.114 1.46v2.89c0 .464.023.87.07 1.222.053.352.129.654.229.906a2.2 2.2 0 00.369.606c.146.152.313.264.5.334.194.07.405.106.633.106.282 0 .53-.056.748-.167a1.47 1.47 0 00.562-.545c.158-.252.275-.58.352-.985.076-.404.114-.896.114-1.476z" fill="#fff"/></svg>