<?xml version="1.0" encoding="UTF-8"?>
<svg id="_圖層_1" data-name="圖層_1" xmlns="http://www.w3.org/2000/svg" version="1.1" viewBox="0 0 15 15">
  <!-- Generator: Adobe Illustrator 29.3.1, SVG Export Plug-In . SVG Version: 2.1.0 Build 151)  -->
  <defs>
    <style>
      .st0 {
        fill: #fff;
      }
    </style>
  </defs>
  <path class="st0" d="M14.4,14.4c.2-.2.2-.6,0-.8l-3.3-3.3c1-1.2,1.5-2.7,1.3-4.2-.1-1.5-.8-3-2-4C9.3.9,7.8.4,6.3.4c-1.5,0-3,.7-4.1,1.8C1.1,3.3.5,4.7.4,6.3c0,1.5.5,3,1.5,4.2,1,1.1,2.5,1.8,4,2s3.1-.4,4.2-1.3l3.3,3.3c.2.2.6.2.8,0h0ZM6.4,11.2c-.9,0-1.9-.3-2.7-.8-.8-.5-1.4-1.3-1.8-2.2-.4-.9-.5-1.8-.3-2.8.2-.9.6-1.8,1.3-2.5.7-.7,1.5-1.1,2.5-1.3.9-.2,1.9,0,2.8.3.9.4,1.6,1,2.2,1.8.5.8.8,1.7.8,2.7,0,1.3-.5,2.5-1.4,3.4-.9.9-2.1,1.4-3.4,1.4Z"/>
</svg>