<svg version="1.1" id="top" xmlns="http://www.w3.org/2000/svg" x="0" y="0" viewBox="0 0 54 54" xml:space="preserve"><path id="矩形_19" d="M27 0c14.9 0 27 12.1 27 27S41.9 54 27 54 0 41.9 0 27 12.1 0 27 0z" fill-rule="evenodd" clip-rule="evenodd" fill="#000"/><path d="M16.1 24h-2.9v-1.7h7.9V24h-2.9v8.6h-2.1V24zm5.7 3.4c0-3.4 1.9-5.3 4.6-5.3 2.7 0 4.6 2 4.6 5.3 0 3.4-1.9 5.4-4.6 5.4-2.7 0-4.6-2-4.6-5.4zm7.2 0c0-2.2-1-3.5-2.5-3.5S24 25.2 24 27.4s1 3.6 2.5 3.6 2.5-1.4 2.5-3.6zm4.1-5.2h3.4c2.3 0 4.1.8 4.1 3.3 0 2.4-1.8 3.4-4 3.4h-1.4v3.7h-2.1V22.2zm3.4 5.1c1.4 0 2.1-.6 2.1-1.8 0-1.2-.8-1.6-2.2-1.6h-1.2v3.4h1.3z" fill="#fff"/></svg>