<?xml version="1.0" encoding="utf-8"?>
<!-- Generator: Adobe Illustrator 26.3.1, SVG Export Plug-In . SVG Version: 6.00 Build 0)  -->
<svg version="1.1" id="圖層_1" xmlns="http://www.w3.org/2000/svg" xmlns:xlink="http://www.w3.org/1999/xlink" x="0px" y="0px"
	 viewBox="0 0 72 72" style="enable-background:new 0 0 72 72;" xml:space="preserve">
<style type="text/css">
	.st0{fill:#FFFFFF;}
	.st1{fill:#B12233;}
	.st2{fill:#3C3B6D;}
	.st3{fill:#BB925B;}
</style>
<g>
	<g id="XMLID_6369_">
		<path id="XMLID_6382_" class="st0" d="M68.3,49.6c-0.8,1.9-1.7,3.7-2.8,5.4h-59c-1.1-1.7-2-3.5-2.8-5.4H68.3z"/>
		<path id="XMLID_6381_" class="st1" d="M70.1,44.2c-0.4,1.9-1,3.7-1.8,5.4H3.7c-0.7-1.7-1.3-3.5-1.8-5.4H70.1z"/>
		<path id="XMLID_6380_" class="st0" d="M70.9,38.8c-0.1,1.8-0.4,3.6-0.8,5.4H1.9c-0.4-1.8-0.7-3.5-0.8-5.4H70.9z"/>
		<path id="XMLID_6379_" class="st1" d="M65.5,55c-1.2,1.9-2.7,3.7-4.2,5.4H10.8c-1.6-1.6-3-3.4-4.2-5.4H65.5z"/>
		<path id="XMLID_6378_" class="st1" d="M54.6,65.7c-5.4,3.4-11.8,5.4-18.6,5.4s-13.2-2-18.6-5.4H54.6z"/>
		<path id="XMLID_6377_" class="st0" d="M61.2,60.4c-2,2-4.2,3.9-6.6,5.4H17.4c-2.4-1.5-4.6-3.3-6.6-5.4H61.2z"/>
		<path id="XMLID_6376_" class="st0" d="M61.2,11.9H10.8c2-2,4.2-3.9,6.6-5.4h37.3C57,8,59.3,9.9,61.2,11.9z"/>
		<path id="XMLID_6375_" class="st1" d="M54.6,6.5H17.4c1.1-0.7,2.3-1.3,3.5-1.9c0.1,0,0.2-0.1,0.3-0.2C21.6,4.2,22,4,22.4,3.9
			c0.2-0.1,0.4-0.1,0.5-0.2C27,2,31.4,1.1,36,1.1l0,0C42.8,1.1,49.2,3.1,54.6,6.5z"/>
		<path id="XMLID_6374_" class="st1" d="M65.5,17.3h-59c0.3-0.5,0.6-1,1-1.4l0.1-0.1c1-1.4,2-2.6,3.2-3.8h50.5
			C62.8,13.5,64.2,15.3,65.5,17.3z"/>
		<path id="XMLID_6373_" class="st1" d="M70.1,28.1H1.9c0.4-1.9,1-3.7,1.8-5.4h64.6C69,24.4,69.6,26.2,70.1,28.1z"/>
		<path id="XMLID_6372_" class="st0" d="M68.3,22.7H3.7c0.1-0.3,0.3-0.7,0.5-1c0.4-0.8,0.8-1.6,1.2-2.4c0.4-0.7,0.7-1.3,1.1-1.9h59
			C66.6,19,67.5,20.8,68.3,22.7z"/>
		<path id="XMLID_6371_" class="st0" d="M70.9,33.4H1.1c0-0.2,0-0.4,0.1-0.7c0.1-0.7,0.1-1.3,0.2-2c0.1-0.9,0.3-1.9,0.5-2.8H70
			C70.5,29.8,70.8,31.6,70.9,33.4z"/>
		<path id="XMLID_6370_" class="st1" d="M71,36.1c0,0.9,0,1.8-0.1,2.7H1.1C1,37.9,1,37,1,36.1s0-1.8,0.1-2.7h69.8
			C71,34.3,71,35.2,71,36.1z"/>
	</g>
	<g id="XMLID_6322_">
		<path id="XMLID_6368_" class="st2" d="M36,1.1v37.7H1.1C1,37.9,1,37,1,36.1s0-1.8,0.1-2.7c0-0.2,0-0.4,0.1-0.7
			c0.1-0.7,0.1-1.3,0.2-2c0.1-0.9,0.3-1.9,0.5-2.8c0.4-1.9,1-3.7,1.8-5.4c0.1-0.3,0.3-0.7,0.5-1c0.4-0.8,0.8-1.6,1.2-2.4
			c0.4-0.7,0.7-1.3,1.1-1.9c0.3-0.5,0.6-1,1-1.4l0.1-0.1c1-1.4,2-2.6,3.2-3.8c2-2,4.2-3.9,6.6-5.4c1.1-0.7,2.3-1.3,3.5-1.9
			c0.1,0,0.2-0.1,0.3-0.2C21.6,4.2,22,4,22.4,3.9c0.2-0.1,0.4-0.1,0.5-0.2C27,2,31.4,1.1,36,1.1z"/>
		<g id="XMLID_6323_">
			<g id="XMLID_6365_">
				<polygon id="XMLID_6367_" class="st0" points="31.6,2.9 32.1,4.4 33.7,4.4 32.4,5.4 32.9,6.9 31.6,5.9 30.3,6.9 30.8,5.4 
					29.5,4.4 31.1,4.4 				"/>
				<path id="XMLID_6366_" class="st0" d="M23.9,6.5L24,6.9l-0.5-0.4l-0.8-0.6l-0.8,0.6l-0.5,0.4l0.1-0.4l0.4-1.1l-1.1-0.8
					c0.1,0,0.2-0.1,0.3-0.2h1l0.2-0.5c0.2-0.1,0.4-0.1,0.5-0.2l0.3,0.8h1.6l-1.3,0.9L23.9,6.5z"/>
			</g>
			<g id="XMLID_6361_">
				<polygon id="XMLID_6364_" class="st0" points="31.6,10.5 32.1,12 33.7,12 32.4,12.9 32.9,14.4 31.6,13.5 30.3,14.4 30.8,12.9 
					29.5,12 31.1,12 				"/>
				<polygon id="XMLID_6363_" class="st0" points="22.7,10.5 23.2,12 24.8,12 23.5,12.9 24,14.4 22.7,13.5 21.4,14.4 21.9,12.9 
					20.6,12 22.2,12 				"/>
				<polygon id="XMLID_6362_" class="st0" points="13.8,10.5 14.3,12 15.9,12 14.6,12.9 15.1,14.4 13.8,13.5 12.6,14.4 13,12.9 
					11.8,12 13.4,12 				"/>
			</g>
			<g id="XMLID_6354_">
				<polygon id="XMLID_6358_" class="st0" points="31.6,18 32.1,19.5 33.7,19.5 32.4,20.4 32.9,22 31.6,21 30.3,22 30.8,20.4 
					29.5,19.5 31.1,19.5 				"/>
				<polygon id="XMLID_6357_" class="st0" points="22.7,18 23.2,19.5 24.8,19.5 23.5,20.4 24,22 22.7,21 21.4,22 21.9,20.4 
					20.6,19.5 22.2,19.5 				"/>
				<polygon id="XMLID_6356_" class="st0" points="13.8,18 14.3,19.5 15.9,19.5 14.6,20.4 15.1,22 13.8,21 12.6,22 13,20.4 
					11.8,19.5 13.4,19.5 				"/>
				<path id="XMLID_6355_" class="st0" d="M5.8,20.4L6.3,22L5,21l-0.8,0.6C4.6,20.8,5,20,5.4,19.2l0.1,0.3h1.6L5.8,20.4z"/>
			</g>
			<g id="XMLID_6347_">
				<polygon id="XMLID_6353_" class="st0" points="31.6,25.5 32.1,27 33.7,27 32.4,28 32.9,29.5 31.6,28.6 30.3,29.5 30.8,28 
					29.5,27 31.1,27 				"/>
				<polygon id="XMLID_6352_" class="st0" points="22.7,25.5 23.2,27 24.8,27 23.5,28 24,29.5 22.7,28.6 21.4,29.5 21.9,28 20.6,27 
					22.2,27 				"/>
				<polygon id="XMLID_6351_" class="st0" points="13.8,25.5 14.3,27 15.9,27 14.6,28 15.1,29.5 13.8,28.6 12.6,29.5 13,28 11.8,27 
					13.4,27 				"/>
				<polygon id="XMLID_6348_" class="st0" points="5,25.5 5.5,27 7.1,27 5.8,28 6.3,29.5 5,28.6 3.7,29.5 4.2,28 2.9,27 4.5,27 				
					"/>
			</g>
			<g id="XMLID_6342_">
				<polygon id="XMLID_6346_" class="st0" points="31.6,33.1 32.1,34.6 33.7,34.6 32.4,35.5 32.9,37 31.6,36.1 30.3,37 30.8,35.5 
					29.5,34.6 31.1,34.6 				"/>
				<polygon id="XMLID_6345_" class="st0" points="22.7,33.1 23.2,34.6 24.8,34.6 23.5,35.5 24,37 22.7,36.1 21.4,37 21.9,35.5 
					20.6,34.6 22.2,34.6 				"/>
				<polygon id="XMLID_6344_" class="st0" points="13.8,33.1 14.3,34.6 15.9,34.6 14.6,35.5 15.1,37 13.8,36.1 12.6,37 13,35.5 
					11.8,34.6 13.4,34.6 				"/>
				<polygon id="XMLID_6343_" class="st0" points="5,33.1 5.5,34.6 7.1,34.6 5.8,35.5 6.3,37 5,36.1 3.7,37 4.2,35.5 2.9,34.6 
					4.5,34.6 				"/>
			</g>
			<g id="XMLID_6337_">
				<polygon id="XMLID_6341_" class="st0" points="27.1,29.3 27.6,30.8 29.2,30.8 27.9,31.7 28.4,33.3 27.1,32.3 25.8,33.3 
					26.3,31.7 25.1,30.8 26.6,30.8 				"/>
				<polygon id="XMLID_6340_" class="st0" points="18.3,29.3 18.8,30.8 20.4,30.8 19.1,31.7 19.6,33.3 18.3,32.3 17,33.3 17.5,31.7 
					16.2,30.8 17.8,30.8 				"/>
				<polygon id="XMLID_6339_" class="st0" points="9.4,29.3 9.9,30.8 11.5,30.8 10.2,31.7 10.7,33.3 9.4,32.3 8.1,33.3 8.6,31.7 
					7.3,30.8 8.9,30.8 				"/>
				<path id="XMLID_6338_" class="st0" d="M1.3,31.7l0.5,1.5l-0.7-0.5c0.1-0.7,0.1-1.3,0.2-2h1.2L1.3,31.7z"/>
			</g>
			<g id="XMLID_6333_">
				<polygon id="XMLID_6336_" class="st0" points="27.1,21.8 27.6,23.3 29.2,23.3 27.9,24.2 28.4,25.7 27.1,24.8 25.8,25.7 
					26.3,24.2 25.1,23.3 26.6,23.3 				"/>
				<polygon id="XMLID_6335_" class="st0" points="18.3,21.8 18.8,23.3 20.4,23.3 19.1,24.2 19.6,25.7 18.3,24.8 17,25.7 17.5,24.2 
					16.2,23.3 17.8,23.3 				"/>
				<polygon id="XMLID_6334_" class="st0" points="9.4,21.8 9.9,23.3 11.5,23.3 10.2,24.2 10.7,25.7 9.4,24.8 8.1,25.7 8.6,24.2 
					7.3,23.3 8.9,23.3 				"/>
			</g>
			<g id="XMLID_6327_">
				<polygon id="XMLID_6332_" class="st0" points="27.1,14.2 27.6,15.7 29.2,15.7 27.9,16.7 28.4,18.2 27.1,17.3 25.8,18.2 
					26.3,16.7 25.1,15.7 26.6,15.7 				"/>
				<polygon id="XMLID_6329_" class="st0" points="18.3,14.2 18.8,15.7 20.4,15.7 19.1,16.7 19.6,18.2 18.3,17.3 17,18.2 17.5,16.7 
					16.2,15.7 17.8,15.7 				"/>
				<path id="XMLID_6328_" class="st0" d="M10.4,17.3l0.3,0.9l-1.3-0.9l0,0l0,0l-1.2,0.9l0.3-0.9l0.2-0.6l-1.1-0.8l0.1-0.1H9
					l0.5-1.5l0.5,1.5h1.6l-1.3,0.9L10.4,17.3z"/>
			</g>
			<g id="XMLID_6324_">
				<polygon id="XMLID_6326_" class="st0" points="27.1,6.7 27.6,8.2 29.2,8.2 27.9,9.1 28.4,10.7 27.1,9.7 25.8,10.7 26.3,9.1 
					25.1,8.2 26.6,8.2 				"/>
				<polygon id="XMLID_6325_" class="st0" points="18.3,6.7 18.8,8.2 20.4,8.2 19.1,9.1 19.6,10.7 18.3,9.7 17,10.7 17.5,9.1 
					16.2,8.2 17.8,8.2 				"/>
			</g>
		</g>
	</g>
	<path class="st3" d="M35.8,71.4c-19.6,0-35.5-15.9-35.5-35.5S16.2,0.4,35.8,0.4s35.5,15.9,35.5,35.5S55.4,71.4,35.8,71.4z
		 M35.8,1.4c-19,0-34.5,15.5-34.5,34.5c0,19,15.5,34.5,34.5,34.5c19,0,34.5-15.5,34.5-34.5C70.3,16.9,54.8,1.4,35.8,1.4z"/>
</g>
</svg>
