<svg width="22" height="23" viewBox="0 0 22 23" fill="none" xmlns="http://www.w3.org/2000/svg"><g clip-path="url(#clip0_8316_19124)"><path d="M11 .918c-6.08 0-11 4.92-11 11 0 6.079 4.92 11 11 11s11-4.921 11-11c0-6.08-4.92-11-11-11zm.092 9.784a3.402 3.402 0 013.395 3.395c0 1.48-.94 2.73-2.26 3.2v1.33c0 .62-.504 1.136-1.135 1.136a1.13 1.13 0 01-1.136-1.135v-1.136H8.821c-.62 0-1.136-.504-1.136-1.135s.505-1.136 1.136-1.136h2.26c.619 0 1.135-.505 1.135-1.135a1.13 1.13 0 00-1.136-1.136 3.402 3.402 0 01-3.395-3.395c0-1.48.94-2.73 2.26-3.2v-1.33c0-.62.504-1.136 1.135-1.136s1.136.504 1.136 1.135V6.16h1.135c.62 0 1.136.504 1.136 1.135a1.13 1.13 0 01-1.136 1.136h-2.26c-.619 0-1.135.504-1.135 1.135s.505 1.136 1.136 1.136z" fill="#fff"/></g><defs><clipPath id="clip0_8316_19124"><path fill="#fff" transform="translate(0 .918)" d="M0 0h22v22H0z"/></clipPath></defs></svg>