<svg width="22" height="23" viewBox="0 0 22 23" fill="none" xmlns="http://www.w3.org/2000/svg"><path fill-rule="evenodd" clip-rule="evenodd" d="M4.283 18.637a3.415 3.415 0 010-4.837l2.685-2.684a1.133 1.133 0 000-1.612 1.134 1.134 0 00-1.613 0L2.67 12.188a5.698 5.698 0 000 8.06 5.704 5.704 0 008.064 0l2.685-2.683c.45-.449.45-1.163 0-1.612a1.134 1.134 0 00-1.613 0l-2.685 2.684a3.42 3.42 0 01-4.838 0zM8.58 6.27a1.133 1.133 0 000 1.612 1.134 1.134 0 001.613 0L12.879 5.2a3.42 3.42 0 014.838 0 3.415 3.415 0 010 4.837l-2.685 2.683a1.133 1.133 0 000 1.613 1.134 1.134 0 001.613 0l2.685-2.684a5.698 5.698 0 000-8.06 5.704 5.704 0 00-8.064 0L8.58 6.27zM7.508 13.8a1.133 1.133 0 000 1.611 1.134 1.134 0 001.612 0l5.38-5.376a1.133 1.133 0 000-1.612 1.134 1.134 0 00-1.613 0L7.508 13.8z" fill="#fff"/></svg>