<svg xmlns="http://www.w3.org/2000/svg" viewBox="0 0 22 22"><path d="M20.54 11.28a.61.61 0 010-.56L21.36 9a1.92 1.92 0 00-.83-2.54l-1.65-.88a.63.63 0 01-.33-.46l-.32-1.84a1.91 1.91 0 00-2.16-1.56L14.22 2a.63.63 0 01-.54-.18L12.33.54a1.91 1.91 0 00-2.66 0l-1.35 1.3a.63.63 0 01-.54.16l-1.85-.24a1.91 1.91 0 00-2.16 1.56l-.32 1.84a.63.63 0 01-.33.46l-1.65.88A1.92 1.92 0 00.64 9l.82 1.68a.64.64 0 010 .57L.64 13a1.92 1.92 0 00.83 2.54l1.65.88a.63.63 0 01.33.46l.32 1.84a1.92 1.92 0 001.89 1.58 1.23 1.23 0 00.27 0l1.85-.3a.63.63 0 01.54.18l1.35 1.3a1.91 1.91 0 002.66 0l1.35-1.3a.63.63 0 01.54-.18l1.85.26a1.91 1.91 0 002.16-1.56l.32-1.84a.63.63 0 01.33-.46l1.65-.88a1.92 1.92 0 00.83-2.52zM8.19 4.69a2.57 2.57 0 11-2.57 2.57 2.58 2.58 0 012.57-2.57zM6.87 16.12a.7.7 0 01-.5.21.67.67 0 01-.49-.21.69.69 0 010-1l9.25-9.25a.7.7 0 011 1zm6.94 1.19a2.57 2.57 0 112.57-2.57 2.58 2.58 0 01-2.57 2.57z" fill="#fff"/><path d="M14.12 14a1.18 1.18 0 101.18 1.2 1.18 1.18 0 00-1.18-1.2zM7.88 5.76a1.18 1.18 0 101.18 1.18 1.18 1.18 0 00-1.18-1.18z" fill="#fff"/></svg>