<svg width="1920" height="70" viewBox="0 0 1920 70" fill="none" xmlns="http://www.w3.org/2000/svg"><mask id="path-1-inside-1_770_27119" fill="#fff"><path d="M0 0h1920v70H0V0z"/></mask><path d="M0 2h1920v-4H0v4zm1920 66H0v4h1920v-4z" fill="#fff" mask="url(#path-1-inside-1_770_27119)"/><g clip-path="url(#clip0_770_27119)" fill="#fff"><mask id="path-3-inside-2_770_27119"><path d="M0 0h153v70H0V0z"/></mask><g clip-path="url(#clip1_770_27119)"><path d="M123 0h-20l30 70h20L123 0zM90 0H70l30 70h20L90 0zM57 0H37l30 70h20L57 0zM24 0H4l30 70h20L24 0zM-9 0h-20L1 70h20L-9 0z"/></g></g><path d="M0 2h153v-4H0v4zm153 66H0v4h153v-4z" fill="#fff" mask="url(#path-3-inside-2_770_27119)"/><g clip-path="url(#clip2_770_27119)" fill="#fff"><mask id="path-10-inside-3_770_27119"><path d="M1767 0h153v70h-153V0z"/></mask><path d="M1919 0h-20l30 70h20l-30-70zm-33 0h-20l30 70h20l-30-70zm-33 0h-20l30 70h20l-30-70zm-33 0h-20l30 70h20l-30-70zm-33 0h-20l30 70h20l-30-70z"/></g><path d="M1767 2h153v-4h-153v4zm153 66h-153v4h153v-4z" fill="#fff" mask="url(#path-10-inside-3_770_27119)"/><defs><clipPath id="clip0_770_27119"><path d="M0 0h153v70H0V0z" fill="#fff"/></clipPath><clipPath id="clip1_770_27119"><path fill="#fff" transform="matrix(-1 0 0 1 153 0)" d="M0 0h182v70H0z"/></clipPath><clipPath id="clip2_770_27119"><path d="M1767 0h153v70h-153V0z" fill="#fff"/></clipPath></defs></svg>