<?xml version="1.0" encoding="utf-8"?>
<!-- Generator: Adobe Illustrator 23.0.1, SVG Export Plug-In . SVG Version: 6.00 Build 0)  -->
<svg version="1.1" id="圖層_1" xmlns="http://www.w3.org/2000/svg" xmlns:xlink="http://www.w3.org/1999/xlink" x="0px" y="0px"
	 viewBox="0 0 33 33" style="enable-background:new 0 0 33 33;" xml:space="preserve">
<style type="text/css">
	.st0{fill:#FFFFFF;}
</style>
<title>socialmedia</title>
<path class="st0" d="M32.5,14.2c0-7.2-7.2-13-16-13s-16,5.8-16,13c0,6.4,5.7,11.8,13.4,12.8c0.5,0.1,1.2,0.3,1.4,0.8
	c0.1,0.5,0.1,1,0.1,1.4l-0.2,1.4c-0.1,0.4-0.3,1.6,1.4,0.9c1.7-0.7,9.2-5.4,12.6-9.3l0,0C31.2,20.1,32.4,17.3,32.5,14.2z M10.9,18.1
	c0,0.2-0.1,0.3-0.3,0.3c0,0,0,0,0,0H6.1c-0.1,0-0.2,0-0.2-0.1l0,0c-0.1-0.1-0.1-0.1-0.1-0.2l0,0v-7c0-0.2,0.1-0.3,0.3-0.3
	c0,0,0,0,0,0h1.1c0.2,0,0.3,0.1,0.3,0.3l0,0v5.5h3c0.2,0,0.3,0.1,0.3,0.3l0,0L10.9,18.1z M13.6,18.1c0,0.2-0.1,0.3-0.3,0.3
	c0,0,0,0,0,0h-1.1c-0.2,0-0.3-0.1-0.3-0.3c0,0,0,0,0,0v-7c0-0.2,0.1-0.3,0.3-0.3c0,0,0,0,0,0h1.1c0.2,0,0.3,0.1,0.3,0.3l0,0V18.1z
	 M21.3,18.1c0,0.2-0.1,0.3-0.3,0.3c0,0,0,0,0,0h-1.3l-0.1-0.1L16.4,14v4.1c0,0.2-0.1,0.3-0.3,0.3l0,0H15c-0.2,0-0.3-0.1-0.3-0.3l0,0
	v-7c0-0.2,0.1-0.3,0.3-0.3c0,0,0,0,0,0h1.3l0,0l0,0l0,0l3.2,4.3v-4c0-0.2,0.1-0.3,0.3-0.3l0,0H21c0.2,0,0.3,0.1,0.3,0.3c0,0,0,0,0,0
	L21.3,18.1z M27.5,12.2c0,0.2-0.1,0.3-0.3,0.3c0,0,0,0,0,0h-3.1v1.2h3c0.2,0,0.3,0.1,0.3,0.3c0,0,0,0,0,0v1.1c0,0.2-0.1,0.3-0.3,0.3
	l0,0h-3v1.2h3c0.2,0,0.3,0.1,0.3,0.3l0,0v1.1c0,0.2-0.1,0.3-0.3,0.3l0,0h-4.5c-0.1,0-0.2,0-0.2-0.1l0,0c-0.1-0.1-0.1-0.1-0.1-0.2
	l0,0v-7l0,0c0-0.1,0-0.2,0.1-0.2l0,0c0.1-0.1,0.1-0.1,0.2-0.1h4.5c0.2,0,0.3,0.1,0.3,0.3l0,0L27.5,12.2z"/>
</svg>
