<?xml version="1.0" encoding="utf-8"?>
<!-- Generator: Adobe Illustrator 26.3.1, SVG Export Plug-In . SVG Version: 6.00 Build 0)  -->
<svg version="1.1" id="Layer_1" xmlns="http://www.w3.org/2000/svg" xmlns:xlink="http://www.w3.org/1999/xlink" x="0px" y="0px"
	 viewBox="0 0 600 600" style="enable-background:new 0 0 600 600;" xml:space="preserve">
<style type="text/css">
	.st0{fill:#E0B98C;}
</style>
<g>
	<g>
		<circle class="st0" cx="135" cy="15" r="1.2"/>
		<circle class="st0" cx="130" cy="20" r="1.2"/>
		<circle class="st0" cx="125" cy="25" r="1.2"/>
		<circle class="st0" cx="120" cy="30" r="1.2"/>
		<circle class="st0" cx="115" cy="35" r="1.2"/>
		<circle class="st0" cx="110" cy="40" r="1.2"/>
		<circle class="st0" cx="105" cy="45" r="1.2"/>
		<circle class="st0" cx="100" cy="50" r="1.2"/>
		<circle class="st0" cx="95" cy="55" r="1.2"/>
		<circle class="st0" cx="90" cy="60" r="1.2"/>
		<circle class="st0" cx="60" cy="90" r="1.2"/>
		<circle class="st0" cx="55" cy="95" r="1.2"/>
		<circle class="st0" cx="50" cy="100" r="1.2"/>
		<circle class="st0" cx="45" cy="105" r="1.2"/>
		<circle class="st0" cx="40" cy="110" r="1.2"/>
		<circle class="st0" cx="35" cy="115" r="1.2"/>
		<circle class="st0" cx="30" cy="120" r="1.2"/>
		<circle class="st0" cx="25" cy="125" r="1.2"/>
		<circle class="st0" cx="20" cy="130" r="1.2"/>
		<circle class="st0" cx="15" cy="135" r="1.2"/>
		<circle class="st0" cx="15" cy="15" r="1.2"/>
		<circle class="st0" cx="20" cy="20" r="1.2"/>
		<circle class="st0" cx="25" cy="25" r="1.2"/>
		<circle class="st0" cx="30" cy="30" r="1.2"/>
		<circle class="st0" cx="35" cy="35" r="1.2"/>
		<circle class="st0" cx="40" cy="40" r="1.2"/>
		<circle class="st0" cx="45" cy="45" r="1.2"/>
		<circle class="st0" cx="50" cy="50" r="1.2"/>
		<circle class="st0" cx="55" cy="55" r="1.2"/>
		<circle class="st0" cx="60" cy="60" r="1.2"/>
		<circle class="st0" cx="90" cy="90" r="1.2"/>
		<circle class="st0" cx="95" cy="95" r="1.2"/>
		<circle class="st0" cx="100" cy="100" r="1.2"/>
		<circle class="st0" cx="105" cy="105" r="1.2"/>
		<circle class="st0" cx="110" cy="110" r="1.2"/>
		<circle class="st0" cx="115" cy="115" r="1.2"/>
		<circle class="st0" cx="120" cy="120" r="1.2"/>
		<circle class="st0" cx="125" cy="125" r="1.2"/>
		<circle class="st0" cx="130" cy="130" r="1.2"/>
		<circle class="st0" cx="135" cy="135" r="1.2"/>
		<circle class="st0" cx="285" cy="15" r="1.2"/>
		<circle class="st0" cx="280" cy="20" r="1.2"/>
		<circle class="st0" cx="275" cy="25" r="1.2"/>
		<circle class="st0" cx="270" cy="30" r="1.2"/>
		<circle class="st0" cx="265" cy="35" r="1.2"/>
		<circle class="st0" cx="260" cy="40" r="1.2"/>
		<circle class="st0" cx="255" cy="45" r="1.2"/>
		<circle class="st0" cx="250" cy="50" r="1.2"/>
		<circle class="st0" cx="245" cy="55" r="1.2"/>
		<circle class="st0" cx="240" cy="60" r="1.2"/>
		<circle class="st0" cx="210" cy="90" r="1.2"/>
		<circle class="st0" cx="205" cy="95" r="1.2"/>
		<circle class="st0" cx="200" cy="100" r="1.2"/>
		<circle class="st0" cx="195" cy="105" r="1.2"/>
		<circle class="st0" cx="190" cy="110" r="1.2"/>
		<circle class="st0" cx="185" cy="115" r="1.2"/>
		<circle class="st0" cx="180" cy="120" r="1.2"/>
		<circle class="st0" cx="175" cy="125" r="1.2"/>
		<circle class="st0" cx="170" cy="130" r="1.2"/>
		<circle class="st0" cx="165" cy="135" r="1.2"/>
		<circle class="st0" cx="165" cy="15" r="1.2"/>
		<circle class="st0" cx="170" cy="20" r="1.2"/>
		<circle class="st0" cx="175" cy="25" r="1.2"/>
		<circle class="st0" cx="180" cy="30" r="1.2"/>
		<circle class="st0" cx="185" cy="35" r="1.2"/>
		<circle class="st0" cx="190" cy="40" r="1.2"/>
		<circle class="st0" cx="195" cy="45" r="1.2"/>
		<circle class="st0" cx="200" cy="50" r="1.2"/>
		<circle class="st0" cx="205" cy="55" r="1.2"/>
		<circle class="st0" cx="210" cy="60" r="1.2"/>
		<circle class="st0" cx="240" cy="90" r="1.2"/>
		<circle class="st0" cx="245" cy="95" r="1.2"/>
		<circle class="st0" cx="250" cy="100" r="1.2"/>
		<circle class="st0" cx="255" cy="105" r="1.2"/>
		<circle class="st0" cx="260" cy="110" r="1.2"/>
		<circle class="st0" cx="265" cy="115" r="1.2"/>
		<circle class="st0" cx="270" cy="120" r="1.2"/>
		<circle class="st0" cx="275" cy="125" r="1.2"/>
		<circle class="st0" cx="280" cy="130" r="1.2"/>
		<circle class="st0" cx="285" cy="135" r="1.2"/>
		<circle class="st0" cx="435" cy="15" r="1.2"/>
		<circle class="st0" cx="430" cy="20" r="1.2"/>
		<circle class="st0" cx="425" cy="25" r="1.2"/>
		<circle class="st0" cx="420" cy="30" r="1.2"/>
		<circle class="st0" cx="415" cy="35" r="1.2"/>
		<circle class="st0" cx="410" cy="40" r="1.2"/>
		<circle class="st0" cx="405" cy="45" r="1.2"/>
		<circle class="st0" cx="400" cy="50" r="1.2"/>
		<circle class="st0" cx="395" cy="55" r="1.2"/>
		<circle class="st0" cx="390" cy="60" r="1.2"/>
		<circle class="st0" cx="360" cy="90" r="1.2"/>
		<circle class="st0" cx="355" cy="95" r="1.2"/>
		<circle class="st0" cx="350" cy="100" r="1.2"/>
		<circle class="st0" cx="345" cy="105" r="1.2"/>
		<circle class="st0" cx="340" cy="110" r="1.2"/>
		<circle class="st0" cx="335" cy="115" r="1.2"/>
		<circle class="st0" cx="330" cy="120" r="1.2"/>
		<circle class="st0" cx="325" cy="125" r="1.2"/>
		<circle class="st0" cx="320" cy="130" r="1.2"/>
		<circle class="st0" cx="315" cy="135" r="1.2"/>
		<circle class="st0" cx="315" cy="15" r="1.2"/>
		<circle class="st0" cx="320" cy="20" r="1.2"/>
		<circle class="st0" cx="325" cy="25" r="1.2"/>
		<circle class="st0" cx="330" cy="30" r="1.2"/>
		<circle class="st0" cx="335" cy="35" r="1.2"/>
		<circle class="st0" cx="340" cy="40" r="1.2"/>
		<circle class="st0" cx="345" cy="45" r="1.2"/>
		<circle class="st0" cx="350" cy="50" r="1.2"/>
		<circle class="st0" cx="355" cy="55" r="1.2"/>
		<circle class="st0" cx="360" cy="60" r="1.2"/>
		<circle class="st0" cx="390" cy="90" r="1.2"/>
		<circle class="st0" cx="395" cy="95" r="1.2"/>
		<circle class="st0" cx="400" cy="100" r="1.2"/>
		<circle class="st0" cx="405" cy="105" r="1.2"/>
		<circle class="st0" cx="410" cy="110" r="1.2"/>
		<circle class="st0" cx="415" cy="115" r="1.2"/>
		<circle class="st0" cx="420" cy="120" r="1.2"/>
		<circle class="st0" cx="425" cy="125" r="1.2"/>
		<circle class="st0" cx="430" cy="130" r="1.2"/>
		<circle class="st0" cx="435" cy="135" r="1.2"/>
		<circle class="st0" cx="585" cy="15" r="1.2"/>
		<circle class="st0" cx="580" cy="20" r="1.2"/>
		<circle class="st0" cx="575" cy="25" r="1.2"/>
		<circle class="st0" cx="570" cy="30" r="1.2"/>
		<circle class="st0" cx="565" cy="35" r="1.2"/>
		<circle class="st0" cx="560" cy="40" r="1.2"/>
		<circle class="st0" cx="555" cy="45" r="1.2"/>
		<circle class="st0" cx="550" cy="50" r="1.2"/>
		<circle class="st0" cx="545" cy="55" r="1.2"/>
		<circle class="st0" cx="540" cy="60" r="1.2"/>
		<circle class="st0" cx="510" cy="90" r="1.2"/>
		<circle class="st0" cx="505" cy="95" r="1.2"/>
		<circle class="st0" cx="500" cy="100" r="1.2"/>
		<circle class="st0" cx="495" cy="105" r="1.2"/>
		<circle class="st0" cx="490" cy="110" r="1.2"/>
		<circle class="st0" cx="485" cy="115" r="1.2"/>
		<circle class="st0" cx="480" cy="120" r="1.2"/>
		<circle class="st0" cx="475" cy="125" r="1.2"/>
		<circle class="st0" cx="470" cy="130" r="1.2"/>
		<circle class="st0" cx="465" cy="135" r="1.2"/>
		<circle class="st0" cx="465" cy="15" r="1.2"/>
		<circle class="st0" cx="470" cy="20" r="1.2"/>
		<circle class="st0" cx="475" cy="25" r="1.2"/>
		<circle class="st0" cx="480" cy="30" r="1.2"/>
		<circle class="st0" cx="485" cy="35" r="1.2"/>
		<circle class="st0" cx="490" cy="40" r="1.2"/>
		<circle class="st0" cx="495" cy="45" r="1.2"/>
		<circle class="st0" cx="500" cy="50" r="1.2"/>
		<circle class="st0" cx="505" cy="55" r="1.2"/>
		<circle class="st0" cx="510" cy="60" r="1.2"/>
		<circle class="st0" cx="540" cy="90" r="1.2"/>
		<circle class="st0" cx="545" cy="95" r="1.2"/>
		<circle class="st0" cx="550" cy="100" r="1.2"/>
		<circle class="st0" cx="555" cy="105" r="1.2"/>
		<circle class="st0" cx="560" cy="110" r="1.2"/>
		<circle class="st0" cx="565" cy="115" r="1.2"/>
		<circle class="st0" cx="570" cy="120" r="1.2"/>
		<circle class="st0" cx="575" cy="125" r="1.2"/>
		<circle class="st0" cx="580" cy="130" r="1.2"/>
		<circle class="st0" cx="585" cy="135" r="1.2"/>
		<circle class="st0" cx="135" cy="165" r="1.2"/>
		<circle class="st0" cx="130" cy="170" r="1.2"/>
		<circle class="st0" cx="125" cy="175" r="1.2"/>
		<circle class="st0" cx="120" cy="180" r="1.2"/>
		<circle class="st0" cx="115" cy="185" r="1.2"/>
		<circle class="st0" cx="110" cy="190" r="1.2"/>
		<circle class="st0" cx="105" cy="195" r="1.2"/>
		<circle class="st0" cx="100" cy="200" r="1.2"/>
		<circle class="st0" cx="95" cy="205" r="1.2"/>
		<circle class="st0" cx="90" cy="210" r="1.2"/>
		<circle class="st0" cx="60" cy="240" r="1.2"/>
		<circle class="st0" cx="55" cy="245" r="1.2"/>
		<circle class="st0" cx="50" cy="250" r="1.2"/>
		<circle class="st0" cx="45" cy="255" r="1.2"/>
		<circle class="st0" cx="40" cy="260" r="1.2"/>
		<circle class="st0" cx="35" cy="265" r="1.2"/>
		<circle class="st0" cx="30" cy="270" r="1.2"/>
		<circle class="st0" cx="25" cy="275" r="1.2"/>
		<circle class="st0" cx="20" cy="280" r="1.2"/>
		<circle class="st0" cx="15" cy="285" r="1.2"/>
		<circle class="st0" cx="15" cy="165" r="1.2"/>
		<circle class="st0" cx="20" cy="170" r="1.2"/>
		<circle class="st0" cx="25" cy="175" r="1.2"/>
		<circle class="st0" cx="30" cy="180" r="1.2"/>
		<circle class="st0" cx="35" cy="185" r="1.2"/>
		<circle class="st0" cx="40" cy="190" r="1.2"/>
		<circle class="st0" cx="45" cy="195" r="1.2"/>
		<circle class="st0" cx="50" cy="200" r="1.2"/>
		<circle class="st0" cx="55" cy="205" r="1.2"/>
		<circle class="st0" cx="60" cy="210" r="1.2"/>
		<circle class="st0" cx="90" cy="240" r="1.2"/>
		<circle class="st0" cx="95" cy="245" r="1.2"/>
		<circle class="st0" cx="100" cy="250" r="1.2"/>
		<circle class="st0" cx="105" cy="255" r="1.2"/>
		<circle class="st0" cx="110" cy="260" r="1.2"/>
		<circle class="st0" cx="115" cy="265" r="1.2"/>
		<circle class="st0" cx="120" cy="270" r="1.2"/>
		<circle class="st0" cx="125" cy="275" r="1.2"/>
		<circle class="st0" cx="130" cy="280" r="1.2"/>
		<circle class="st0" cx="135" cy="285" r="1.2"/>
		<circle class="st0" cx="285" cy="165" r="1.2"/>
		<circle class="st0" cx="280" cy="170" r="1.2"/>
		<circle class="st0" cx="275" cy="175" r="1.2"/>
		<circle class="st0" cx="270" cy="180" r="1.2"/>
		<circle class="st0" cx="265" cy="185" r="1.2"/>
		<circle class="st0" cx="260" cy="190" r="1.2"/>
		<circle class="st0" cx="255" cy="195" r="1.2"/>
		<circle class="st0" cx="250" cy="200" r="1.2"/>
		<circle class="st0" cx="245" cy="205" r="1.2"/>
		<circle class="st0" cx="240" cy="210" r="1.2"/>
		<circle class="st0" cx="210" cy="240" r="1.2"/>
		<circle class="st0" cx="205" cy="245" r="1.2"/>
		<circle class="st0" cx="200" cy="250" r="1.2"/>
		<circle class="st0" cx="195" cy="255" r="1.2"/>
		<circle class="st0" cx="190" cy="260" r="1.2"/>
		<circle class="st0" cx="185" cy="265" r="1.2"/>
		<circle class="st0" cx="180" cy="270" r="1.2"/>
		<circle class="st0" cx="175" cy="275" r="1.2"/>
		<circle class="st0" cx="170" cy="280" r="1.2"/>
		<circle class="st0" cx="165" cy="285" r="1.2"/>
		<circle class="st0" cx="165" cy="165" r="1.2"/>
		<circle class="st0" cx="170" cy="170" r="1.2"/>
		<circle class="st0" cx="175" cy="175" r="1.2"/>
		<circle class="st0" cx="180" cy="180" r="1.2"/>
		<circle class="st0" cx="185" cy="185" r="1.2"/>
		<circle class="st0" cx="190" cy="190" r="1.2"/>
		<circle class="st0" cx="195" cy="195" r="1.2"/>
		<circle class="st0" cx="200" cy="200" r="1.2"/>
		<circle class="st0" cx="205" cy="205" r="1.2"/>
		<circle class="st0" cx="210" cy="210" r="1.2"/>
		<circle class="st0" cx="240" cy="240" r="1.2"/>
		<circle class="st0" cx="245" cy="245" r="1.2"/>
		<circle class="st0" cx="250" cy="250" r="1.2"/>
		<circle class="st0" cx="255" cy="255" r="1.2"/>
		<circle class="st0" cx="260" cy="260" r="1.2"/>
		<circle class="st0" cx="265" cy="265" r="1.2"/>
		<circle class="st0" cx="270" cy="270" r="1.2"/>
		<circle class="st0" cx="275" cy="275" r="1.2"/>
		<circle class="st0" cx="280" cy="280" r="1.2"/>
		<circle class="st0" cx="285" cy="285" r="1.2"/>
		<circle class="st0" cx="435" cy="165" r="1.2"/>
		<circle class="st0" cx="430" cy="170" r="1.2"/>
		<circle class="st0" cx="425" cy="175" r="1.2"/>
		<circle class="st0" cx="420" cy="180" r="1.2"/>
		<circle class="st0" cx="415" cy="185" r="1.2"/>
		<circle class="st0" cx="410" cy="190" r="1.2"/>
		<circle class="st0" cx="405" cy="195" r="1.2"/>
		<circle class="st0" cx="400" cy="200" r="1.2"/>
		<circle class="st0" cx="395" cy="205" r="1.2"/>
		<circle class="st0" cx="390" cy="210" r="1.2"/>
		<circle class="st0" cx="360" cy="240" r="1.2"/>
		<circle class="st0" cx="355" cy="245" r="1.2"/>
		<circle class="st0" cx="350" cy="250" r="1.2"/>
		<circle class="st0" cx="345" cy="255" r="1.2"/>
		<circle class="st0" cx="340" cy="260" r="1.2"/>
		<circle class="st0" cx="335" cy="265" r="1.2"/>
		<circle class="st0" cx="330" cy="270" r="1.2"/>
		<circle class="st0" cx="325" cy="275" r="1.2"/>
		<circle class="st0" cx="320" cy="280" r="1.2"/>
		<circle class="st0" cx="315" cy="285" r="1.2"/>
		<circle class="st0" cx="315" cy="165" r="1.2"/>
		<circle class="st0" cx="320" cy="170" r="1.2"/>
		<circle class="st0" cx="325" cy="175" r="1.2"/>
		<circle class="st0" cx="330" cy="180" r="1.2"/>
		<circle class="st0" cx="335" cy="185" r="1.2"/>
		<circle class="st0" cx="340" cy="190" r="1.2"/>
		<circle class="st0" cx="345" cy="195" r="1.2"/>
		<circle class="st0" cx="350" cy="200" r="1.2"/>
		<circle class="st0" cx="355" cy="205" r="1.2"/>
		<circle class="st0" cx="360" cy="210" r="1.2"/>
		<circle class="st0" cx="390" cy="240" r="1.2"/>
		<circle class="st0" cx="395" cy="245" r="1.2"/>
		<circle class="st0" cx="400" cy="250" r="1.2"/>
		<circle class="st0" cx="405" cy="255" r="1.2"/>
		<circle class="st0" cx="410" cy="260" r="1.2"/>
		<circle class="st0" cx="415" cy="265" r="1.2"/>
		<circle class="st0" cx="420" cy="270" r="1.2"/>
		<circle class="st0" cx="425" cy="275" r="1.2"/>
		<circle class="st0" cx="430" cy="280" r="1.2"/>
		<circle class="st0" cx="435" cy="285" r="1.2"/>
		<circle class="st0" cx="585" cy="165" r="1.2"/>
		<circle class="st0" cx="580" cy="170" r="1.2"/>
		<circle class="st0" cx="575" cy="175" r="1.2"/>
		<circle class="st0" cx="570" cy="180" r="1.2"/>
		<circle class="st0" cx="565" cy="185" r="1.2"/>
		<circle class="st0" cx="560" cy="190" r="1.2"/>
		<circle class="st0" cx="555" cy="195" r="1.2"/>
		<circle class="st0" cx="550" cy="200" r="1.2"/>
		<circle class="st0" cx="545" cy="205" r="1.2"/>
		<circle class="st0" cx="540" cy="210" r="1.2"/>
		<circle class="st0" cx="510" cy="240" r="1.2"/>
		<circle class="st0" cx="505" cy="245" r="1.2"/>
		<circle class="st0" cx="500" cy="250" r="1.2"/>
		<circle class="st0" cx="495" cy="255" r="1.2"/>
		<circle class="st0" cx="490" cy="260" r="1.2"/>
		<circle class="st0" cx="485" cy="265" r="1.2"/>
		<circle class="st0" cx="480" cy="270" r="1.2"/>
		<circle class="st0" cx="475" cy="275" r="1.2"/>
		<circle class="st0" cx="470" cy="280" r="1.2"/>
		<circle class="st0" cx="465" cy="285" r="1.2"/>
		<circle class="st0" cx="465" cy="165" r="1.2"/>
		<circle class="st0" cx="470" cy="170" r="1.2"/>
		<circle class="st0" cx="475" cy="175" r="1.2"/>
		<circle class="st0" cx="480" cy="180" r="1.2"/>
		<circle class="st0" cx="485" cy="185" r="1.2"/>
		<circle class="st0" cx="490" cy="190" r="1.2"/>
		<circle class="st0" cx="495" cy="195" r="1.2"/>
		<circle class="st0" cx="500" cy="200" r="1.2"/>
		<circle class="st0" cx="505" cy="205" r="1.2"/>
		<circle class="st0" cx="510" cy="210" r="1.2"/>
		<circle class="st0" cx="540" cy="240" r="1.2"/>
		<circle class="st0" cx="545" cy="245" r="1.2"/>
		<circle class="st0" cx="550" cy="250" r="1.2"/>
		<circle class="st0" cx="555" cy="255" r="1.2"/>
		<circle class="st0" cx="560" cy="260" r="1.2"/>
		<circle class="st0" cx="565" cy="265" r="1.2"/>
		<circle class="st0" cx="570" cy="270" r="1.2"/>
		<circle class="st0" cx="575" cy="275" r="1.2"/>
		<circle class="st0" cx="580" cy="280" r="1.2"/>
		<circle class="st0" cx="585" cy="285" r="1.2"/>
		<circle class="st0" cx="135" cy="315" r="1.2"/>
		<circle class="st0" cx="130" cy="320" r="1.2"/>
		<circle class="st0" cx="125" cy="325" r="1.2"/>
		<circle class="st0" cx="120" cy="330" r="1.2"/>
		<circle class="st0" cx="115" cy="335" r="1.2"/>
		<circle class="st0" cx="110" cy="340" r="1.2"/>
		<circle class="st0" cx="105" cy="345" r="1.2"/>
		<circle class="st0" cx="100" cy="350" r="1.2"/>
		<circle class="st0" cx="95" cy="355" r="1.2"/>
		<circle class="st0" cx="90" cy="360" r="1.2"/>
		<circle class="st0" cx="60" cy="390" r="1.2"/>
		<circle class="st0" cx="55" cy="395" r="1.2"/>
		<circle class="st0" cx="50" cy="400" r="1.2"/>
		<circle class="st0" cx="45" cy="405" r="1.2"/>
		<circle class="st0" cx="40" cy="410" r="1.2"/>
		<circle class="st0" cx="35" cy="415" r="1.2"/>
		<circle class="st0" cx="30" cy="420" r="1.2"/>
		<circle class="st0" cx="25" cy="425" r="1.2"/>
		<circle class="st0" cx="20" cy="430" r="1.2"/>
		<circle class="st0" cx="15" cy="435" r="1.2"/>
		<circle class="st0" cx="15" cy="315" r="1.2"/>
		<circle class="st0" cx="20" cy="320" r="1.2"/>
		<circle class="st0" cx="25" cy="325" r="1.2"/>
		<circle class="st0" cx="30" cy="330" r="1.2"/>
		<circle class="st0" cx="35" cy="335" r="1.2"/>
		<circle class="st0" cx="40" cy="340" r="1.2"/>
		<circle class="st0" cx="45" cy="345" r="1.2"/>
		<circle class="st0" cx="50" cy="350" r="1.2"/>
		<circle class="st0" cx="55" cy="355" r="1.2"/>
		<circle class="st0" cx="60" cy="360" r="1.2"/>
		<circle class="st0" cx="90" cy="390" r="1.2"/>
		<circle class="st0" cx="95" cy="395" r="1.2"/>
		<circle class="st0" cx="100" cy="400" r="1.2"/>
		<circle class="st0" cx="105" cy="405" r="1.2"/>
		<circle class="st0" cx="110" cy="410" r="1.2"/>
		<circle class="st0" cx="115" cy="415" r="1.2"/>
		<circle class="st0" cx="120" cy="420" r="1.2"/>
		<circle class="st0" cx="125" cy="425" r="1.2"/>
		<circle class="st0" cx="130" cy="430" r="1.2"/>
		<circle class="st0" cx="135" cy="435" r="1.2"/>
		<circle class="st0" cx="285" cy="315" r="1.2"/>
		<circle class="st0" cx="280" cy="320" r="1.2"/>
		<circle class="st0" cx="275" cy="325" r="1.2"/>
		<circle class="st0" cx="270" cy="330" r="1.2"/>
		<circle class="st0" cx="265" cy="335" r="1.2"/>
		<circle class="st0" cx="260" cy="340" r="1.2"/>
		<circle class="st0" cx="255" cy="345" r="1.2"/>
		<circle class="st0" cx="250" cy="350" r="1.2"/>
		<circle class="st0" cx="245" cy="355" r="1.2"/>
		<circle class="st0" cx="240" cy="360" r="1.2"/>
		<circle class="st0" cx="210" cy="390" r="1.2"/>
		<circle class="st0" cx="205" cy="395" r="1.2"/>
		<circle class="st0" cx="200" cy="400" r="1.2"/>
		<circle class="st0" cx="195" cy="405" r="1.2"/>
		<circle class="st0" cx="190" cy="410" r="1.2"/>
		<circle class="st0" cx="185" cy="415" r="1.2"/>
		<circle class="st0" cx="180" cy="420" r="1.2"/>
		<circle class="st0" cx="175" cy="425" r="1.2"/>
		<circle class="st0" cx="170" cy="430" r="1.2"/>
		<circle class="st0" cx="165" cy="435" r="1.2"/>
		<circle class="st0" cx="165" cy="315" r="1.2"/>
		<circle class="st0" cx="170" cy="320" r="1.2"/>
		<circle class="st0" cx="175" cy="325" r="1.2"/>
		<circle class="st0" cx="180" cy="330" r="1.2"/>
		<circle class="st0" cx="185" cy="335" r="1.2"/>
		<circle class="st0" cx="190" cy="340" r="1.2"/>
		<circle class="st0" cx="195" cy="345" r="1.2"/>
		<circle class="st0" cx="200" cy="350" r="1.2"/>
		<circle class="st0" cx="205" cy="355" r="1.2"/>
		<circle class="st0" cx="210" cy="360" r="1.2"/>
		<circle class="st0" cx="240" cy="390" r="1.2"/>
		<circle class="st0" cx="245" cy="395" r="1.2"/>
		<circle class="st0" cx="250" cy="400" r="1.2"/>
		<circle class="st0" cx="255" cy="405" r="1.2"/>
		<circle class="st0" cx="260" cy="410" r="1.2"/>
		<circle class="st0" cx="265" cy="415" r="1.2"/>
		<circle class="st0" cx="270" cy="420" r="1.2"/>
		<circle class="st0" cx="275" cy="425" r="1.2"/>
		<circle class="st0" cx="280" cy="430" r="1.2"/>
		<circle class="st0" cx="285" cy="435" r="1.2"/>
		<circle class="st0" cx="435" cy="315" r="1.2"/>
		<circle class="st0" cx="430" cy="320" r="1.2"/>
		<circle class="st0" cx="425" cy="325" r="1.2"/>
		<circle class="st0" cx="420" cy="330" r="1.2"/>
		<circle class="st0" cx="415" cy="335" r="1.2"/>
		<circle class="st0" cx="410" cy="340" r="1.2"/>
		<circle class="st0" cx="405" cy="345" r="1.2"/>
		<circle class="st0" cx="400" cy="350" r="1.2"/>
		<circle class="st0" cx="395" cy="355" r="1.2"/>
		<circle class="st0" cx="390" cy="360" r="1.2"/>
		<circle class="st0" cx="360" cy="390" r="1.2"/>
		<circle class="st0" cx="355" cy="395" r="1.2"/>
		<circle class="st0" cx="350" cy="400" r="1.2"/>
		<circle class="st0" cx="345" cy="405" r="1.2"/>
		<circle class="st0" cx="340" cy="410" r="1.2"/>
		<circle class="st0" cx="335" cy="415" r="1.2"/>
		<circle class="st0" cx="330" cy="420" r="1.2"/>
		<circle class="st0" cx="325" cy="425" r="1.2"/>
		<circle class="st0" cx="320" cy="430" r="1.2"/>
		<circle class="st0" cx="315" cy="435" r="1.2"/>
		<circle class="st0" cx="315" cy="315" r="1.2"/>
		<circle class="st0" cx="320" cy="320" r="1.2"/>
		<circle class="st0" cx="325" cy="325" r="1.2"/>
		<circle class="st0" cx="330" cy="330" r="1.2"/>
		<circle class="st0" cx="335" cy="335" r="1.2"/>
		<circle class="st0" cx="340" cy="340" r="1.2"/>
		<circle class="st0" cx="345" cy="345" r="1.2"/>
		<circle class="st0" cx="350" cy="350" r="1.2"/>
		<circle class="st0" cx="355" cy="355" r="1.2"/>
		<circle class="st0" cx="360" cy="360" r="1.2"/>
		<circle class="st0" cx="390" cy="390" r="1.2"/>
		<circle class="st0" cx="395" cy="395" r="1.2"/>
		<circle class="st0" cx="400" cy="400" r="1.2"/>
		<circle class="st0" cx="405" cy="405" r="1.2"/>
		<circle class="st0" cx="410" cy="410" r="1.2"/>
		<circle class="st0" cx="415" cy="415" r="1.2"/>
		<circle class="st0" cx="420" cy="420" r="1.2"/>
		<circle class="st0" cx="425" cy="425" r="1.2"/>
		<circle class="st0" cx="430" cy="430" r="1.2"/>
		<circle class="st0" cx="435" cy="435" r="1.2"/>
		<circle class="st0" cx="585" cy="315" r="1.2"/>
		<circle class="st0" cx="580" cy="320" r="1.2"/>
		<circle class="st0" cx="575" cy="325" r="1.2"/>
		<circle class="st0" cx="570" cy="330" r="1.2"/>
		<circle class="st0" cx="565" cy="335" r="1.2"/>
		<circle class="st0" cx="560" cy="340" r="1.2"/>
		<circle class="st0" cx="555" cy="345" r="1.2"/>
		<circle class="st0" cx="550" cy="350" r="1.2"/>
		<circle class="st0" cx="545" cy="355" r="1.2"/>
		<circle class="st0" cx="540" cy="360" r="1.2"/>
		<circle class="st0" cx="510" cy="390" r="1.2"/>
		<circle class="st0" cx="505" cy="395" r="1.2"/>
		<circle class="st0" cx="500" cy="400" r="1.2"/>
		<circle class="st0" cx="495" cy="405" r="1.2"/>
		<circle class="st0" cx="490" cy="410" r="1.2"/>
		<circle class="st0" cx="485" cy="415" r="1.2"/>
		<circle class="st0" cx="480" cy="420" r="1.2"/>
		<circle class="st0" cx="475" cy="425" r="1.2"/>
		<circle class="st0" cx="470" cy="430" r="1.2"/>
		<circle class="st0" cx="465" cy="435" r="1.2"/>
		<circle class="st0" cx="465" cy="315" r="1.2"/>
		<circle class="st0" cx="470" cy="320" r="1.2"/>
		<circle class="st0" cx="475" cy="325" r="1.2"/>
		<circle class="st0" cx="480" cy="330" r="1.2"/>
		<circle class="st0" cx="485" cy="335" r="1.2"/>
		<circle class="st0" cx="490" cy="340" r="1.2"/>
		<circle class="st0" cx="495" cy="345" r="1.2"/>
		<circle class="st0" cx="500" cy="350" r="1.2"/>
		<circle class="st0" cx="505" cy="355" r="1.2"/>
		<circle class="st0" cx="510" cy="360" r="1.2"/>
		<circle class="st0" cx="540" cy="390" r="1.2"/>
		<circle class="st0" cx="545" cy="395" r="1.2"/>
		<circle class="st0" cx="550" cy="400" r="1.2"/>
		<circle class="st0" cx="555" cy="405" r="1.2"/>
		<circle class="st0" cx="560" cy="410" r="1.2"/>
		<circle class="st0" cx="565" cy="415" r="1.2"/>
		<circle class="st0" cx="570" cy="420" r="1.2"/>
		<circle class="st0" cx="575" cy="425" r="1.2"/>
		<circle class="st0" cx="580" cy="430" r="1.2"/>
		<circle class="st0" cx="585" cy="435" r="1.2"/>
		<circle class="st0" cx="135" cy="465" r="1.2"/>
		<circle class="st0" cx="130" cy="470" r="1.2"/>
		<circle class="st0" cx="125" cy="475" r="1.2"/>
		<circle class="st0" cx="120" cy="480" r="1.2"/>
		<circle class="st0" cx="115" cy="485" r="1.2"/>
		<circle class="st0" cx="110" cy="490" r="1.2"/>
		<circle class="st0" cx="105" cy="495" r="1.2"/>
		<circle class="st0" cx="100" cy="500" r="1.2"/>
		<circle class="st0" cx="95" cy="505" r="1.2"/>
		<circle class="st0" cx="90" cy="510" r="1.2"/>
		<circle class="st0" cx="60" cy="540" r="1.2"/>
		<circle class="st0" cx="55" cy="545" r="1.2"/>
		<circle class="st0" cx="50" cy="550" r="1.2"/>
		<circle class="st0" cx="45" cy="555" r="1.2"/>
		<circle class="st0" cx="40" cy="560" r="1.2"/>
		<circle class="st0" cx="35" cy="565" r="1.2"/>
		<circle class="st0" cx="30" cy="570" r="1.2"/>
		<circle class="st0" cx="25" cy="575" r="1.2"/>
		<circle class="st0" cx="20" cy="580" r="1.2"/>
		<circle class="st0" cx="15" cy="585" r="1.2"/>
		<circle class="st0" cx="15" cy="465" r="1.2"/>
		<circle class="st0" cx="20" cy="470" r="1.2"/>
		<circle class="st0" cx="25" cy="475" r="1.2"/>
		<circle class="st0" cx="30" cy="480" r="1.2"/>
		<circle class="st0" cx="35" cy="485" r="1.2"/>
		<circle class="st0" cx="40" cy="490" r="1.2"/>
		<circle class="st0" cx="45" cy="495" r="1.2"/>
		<circle class="st0" cx="50" cy="500" r="1.2"/>
		<circle class="st0" cx="55" cy="505" r="1.2"/>
		<circle class="st0" cx="60" cy="510" r="1.2"/>
		<circle class="st0" cx="90" cy="540" r="1.2"/>
		<circle class="st0" cx="95" cy="545" r="1.2"/>
		<circle class="st0" cx="100" cy="550" r="1.2"/>
		<circle class="st0" cx="105" cy="555" r="1.2"/>
		<circle class="st0" cx="110" cy="560" r="1.2"/>
		<circle class="st0" cx="115" cy="565" r="1.2"/>
		<circle class="st0" cx="120" cy="570" r="1.2"/>
		<circle class="st0" cx="125" cy="575" r="1.2"/>
		<circle class="st0" cx="130" cy="580" r="1.2"/>
		<circle class="st0" cx="135" cy="585" r="1.2"/>
		<circle class="st0" cx="285" cy="465" r="1.2"/>
		<circle class="st0" cx="280" cy="470" r="1.2"/>
		<circle class="st0" cx="275" cy="475" r="1.2"/>
		<circle class="st0" cx="270" cy="480" r="1.2"/>
		<circle class="st0" cx="265" cy="485" r="1.2"/>
		<circle class="st0" cx="260" cy="490" r="1.2"/>
		<circle class="st0" cx="255" cy="495" r="1.2"/>
		<circle class="st0" cx="250" cy="500" r="1.2"/>
		<circle class="st0" cx="245" cy="505" r="1.2"/>
		<circle class="st0" cx="240" cy="510" r="1.2"/>
		<circle class="st0" cx="210" cy="540" r="1.2"/>
		<circle class="st0" cx="205" cy="545" r="1.2"/>
		<circle class="st0" cx="200" cy="550" r="1.2"/>
		<circle class="st0" cx="195" cy="555" r="1.2"/>
		<circle class="st0" cx="190" cy="560" r="1.2"/>
		<circle class="st0" cx="185" cy="565" r="1.2"/>
		<circle class="st0" cx="180" cy="570" r="1.2"/>
		<circle class="st0" cx="175" cy="575" r="1.2"/>
		<circle class="st0" cx="170" cy="580" r="1.2"/>
		<circle class="st0" cx="165" cy="585" r="1.2"/>
		<circle class="st0" cx="165" cy="465" r="1.2"/>
		<circle class="st0" cx="170" cy="470" r="1.2"/>
		<circle class="st0" cx="175" cy="475" r="1.2"/>
		<circle class="st0" cx="180" cy="480" r="1.2"/>
		<circle class="st0" cx="185" cy="485" r="1.2"/>
		<circle class="st0" cx="190" cy="490" r="1.2"/>
		<circle class="st0" cx="195" cy="495" r="1.2"/>
		<circle class="st0" cx="200" cy="500" r="1.2"/>
		<circle class="st0" cx="205" cy="505" r="1.2"/>
		<circle class="st0" cx="210" cy="510" r="1.2"/>
		<circle class="st0" cx="240" cy="540" r="1.2"/>
		<circle class="st0" cx="245" cy="545" r="1.2"/>
		<circle class="st0" cx="250" cy="550" r="1.2"/>
		<circle class="st0" cx="255" cy="555" r="1.2"/>
		<circle class="st0" cx="260" cy="560" r="1.2"/>
		<circle class="st0" cx="265" cy="565" r="1.2"/>
		<circle class="st0" cx="270" cy="570" r="1.2"/>
		<circle class="st0" cx="275" cy="575" r="1.2"/>
		<circle class="st0" cx="280" cy="580" r="1.2"/>
		<circle class="st0" cx="285" cy="585" r="1.2"/>
		<circle class="st0" cx="435" cy="465" r="1.2"/>
		<circle class="st0" cx="430" cy="470" r="1.2"/>
		<circle class="st0" cx="425" cy="475" r="1.2"/>
		<circle class="st0" cx="420" cy="480" r="1.2"/>
		<circle class="st0" cx="415" cy="485" r="1.2"/>
		<circle class="st0" cx="410" cy="490" r="1.2"/>
		<circle class="st0" cx="405" cy="495" r="1.2"/>
		<circle class="st0" cx="400" cy="500" r="1.2"/>
		<circle class="st0" cx="395" cy="505" r="1.2"/>
		<circle class="st0" cx="390" cy="510" r="1.2"/>
		<circle class="st0" cx="360" cy="540" r="1.2"/>
		<circle class="st0" cx="355" cy="545" r="1.2"/>
		<circle class="st0" cx="350" cy="550" r="1.2"/>
		<circle class="st0" cx="345" cy="555" r="1.2"/>
		<circle class="st0" cx="340" cy="560" r="1.2"/>
		<circle class="st0" cx="335" cy="565" r="1.2"/>
		<circle class="st0" cx="330" cy="570" r="1.2"/>
		<circle class="st0" cx="325" cy="575" r="1.2"/>
		<circle class="st0" cx="320" cy="580" r="1.2"/>
		<circle class="st0" cx="315" cy="585" r="1.2"/>
		<circle class="st0" cx="315" cy="465" r="1.2"/>
		<circle class="st0" cx="320" cy="470" r="1.2"/>
		<circle class="st0" cx="325" cy="475" r="1.2"/>
		<circle class="st0" cx="330" cy="480" r="1.2"/>
		<circle class="st0" cx="335" cy="485" r="1.2"/>
		<circle class="st0" cx="340" cy="490" r="1.2"/>
		<circle class="st0" cx="345" cy="495" r="1.2"/>
		<circle class="st0" cx="350" cy="500" r="1.2"/>
		<circle class="st0" cx="355" cy="505" r="1.2"/>
		<circle class="st0" cx="360" cy="510" r="1.2"/>
		<circle class="st0" cx="390" cy="540" r="1.2"/>
		<circle class="st0" cx="395" cy="545" r="1.2"/>
		<circle class="st0" cx="400" cy="550" r="1.2"/>
		<circle class="st0" cx="405" cy="555" r="1.2"/>
		<circle class="st0" cx="410" cy="560" r="1.2"/>
		<circle class="st0" cx="415" cy="565" r="1.2"/>
		<circle class="st0" cx="420" cy="570" r="1.2"/>
		<circle class="st0" cx="425" cy="575" r="1.2"/>
		<circle class="st0" cx="430" cy="580" r="1.2"/>
		<circle class="st0" cx="435" cy="585" r="1.2"/>
		<circle class="st0" cx="585" cy="465" r="1.2"/>
		<circle class="st0" cx="580" cy="470" r="1.2"/>
		<circle class="st0" cx="575" cy="475" r="1.2"/>
		<circle class="st0" cx="570" cy="480" r="1.2"/>
		<circle class="st0" cx="565" cy="485" r="1.2"/>
		<circle class="st0" cx="560" cy="490" r="1.2"/>
		<circle class="st0" cx="555" cy="495" r="1.2"/>
		<circle class="st0" cx="550" cy="500" r="1.2"/>
		<circle class="st0" cx="545" cy="505" r="1.2"/>
		<circle class="st0" cx="540" cy="510" r="1.2"/>
		<circle class="st0" cx="510" cy="540" r="1.2"/>
		<circle class="st0" cx="505" cy="545" r="1.2"/>
		<circle class="st0" cx="500" cy="550" r="1.2"/>
		<circle class="st0" cx="495" cy="555" r="1.2"/>
		<circle class="st0" cx="490" cy="560" r="1.2"/>
		<circle class="st0" cx="485" cy="565" r="1.2"/>
		<circle class="st0" cx="480" cy="570" r="1.2"/>
		<circle class="st0" cx="475" cy="575" r="1.2"/>
		<circle class="st0" cx="470" cy="580" r="1.2"/>
		<circle class="st0" cx="465" cy="585" r="1.2"/>
		<circle class="st0" cx="465" cy="465" r="1.2"/>
		<circle class="st0" cx="470" cy="470" r="1.2"/>
		<circle class="st0" cx="475" cy="475" r="1.2"/>
		<circle class="st0" cx="480" cy="480" r="1.2"/>
		<circle class="st0" cx="485" cy="485" r="1.2"/>
		<circle class="st0" cx="490" cy="490" r="1.2"/>
		<circle class="st0" cx="495" cy="495" r="1.2"/>
		<circle class="st0" cx="500" cy="500" r="1.2"/>
		<circle class="st0" cx="505" cy="505" r="1.2"/>
		<circle class="st0" cx="510" cy="510" r="1.2"/>
		<circle class="st0" cx="540" cy="540" r="1.2"/>
		<circle class="st0" cx="545" cy="545" r="1.2"/>
		<circle class="st0" cx="550" cy="550" r="1.2"/>
		<circle class="st0" cx="555" cy="555" r="1.2"/>
		<circle class="st0" cx="560" cy="560" r="1.2"/>
		<circle class="st0" cx="565" cy="565" r="1.2"/>
		<circle class="st0" cx="570" cy="570" r="1.2"/>
		<circle class="st0" cx="575" cy="575" r="1.2"/>
		<circle class="st0" cx="580" cy="580" r="1.2"/>
		<circle class="st0" cx="585" cy="585" r="1.2"/>
	</g>
	<g>
		<path class="st0" d="M0.5,22.1l17.7-21c0.1-0.1,0.2-0.2,0.2-0.4c0-0.1,0-0.2-0.1-0.3L18,0h-1.2L17,0.2H6.8L7,0h-2l0.1,0.2H0v1h5.3
			L0,19.9v2.5c0,0,0,0,0,0C0.2,22.3,0.4,22.2,0.5,22.1z M6.3,1.2h10.4L1.1,19.7L6.3,1.2z"/>
		<path class="st0" d="M131.7,0.5C131.7,0.5,131.7,0.5,131.7,0.5C131.7,0.6,131.7,0.6,131.7,0.5C131.7,0.6,131.7,0.6,131.7,0.5
			c0,0.1-0.1,0.2-0.1,0.3v0c0,0,0,0.1,0,0.1h0c0,0,0,0,0,0c0,0,0,0.1,0.1,0.1c0,0,0,0,0,0c0,0,0,0,0,0l17.8,21.1c0,0,0,0.1,0.1,0.1
			c0,0,0.1,0.1,0.1,0.1c0.1,0,0.1,0,0.2,0c0,0,0,0,0,0c0.2,0,0.4-0.1,0.5-0.3l17.7-21c0.1-0.1,0.2-0.2,0.2-0.4c0-0.1,0-0.2-0.1-0.3
			L168,0h-1.2l0.1,0.2h-10.1L157,0h-2l0.1,0.2h-10.1l0.1-0.2h-2l0.1,0.2H133l0.1-0.2H132L131.7,0.5C131.7,0.5,131.7,0.5,131.7,0.5z
			 M166.7,1.2l-15.6,18.4l5.2-18.4H166.7z M155.3,1.2L150,19.9l-5.3-18.7H155.3z M143.7,1.2l5.2,18.4L133.3,1.2H143.7z"/>
		<path class="st0" d="M281.7,0.5C281.7,0.5,281.7,0.5,281.7,0.5C281.7,0.6,281.7,0.6,281.7,0.5C281.7,0.6,281.7,0.6,281.7,0.5
			c0,0.1-0.1,0.2-0.1,0.3v0c0,0,0,0.1,0,0.1h0c0,0,0,0,0,0c0,0,0,0.1,0.1,0.1c0,0,0,0,0,0c0,0,0,0,0,0l17.8,21.1c0,0,0,0.1,0.1,0.1
			c0,0,0.1,0.1,0.1,0.1c0.1,0,0.1,0,0.2,0c0,0,0,0,0,0c0.2,0,0.4-0.1,0.5-0.3l17.7-21c0.1-0.1,0.2-0.2,0.2-0.4c0-0.1,0-0.2-0.1-0.3
			L318,0h-1.2l0.1,0.2h-10.1L307,0h-2l0.1,0.2h-10.1l0.1-0.2h-2l0.1,0.2H283l0.1-0.2H282L281.7,0.5C281.7,0.5,281.7,0.5,281.7,0.5z
			 M316.7,1.2l-15.6,18.4l5.2-18.4H316.7z M305.3,1.2L300,19.9l-5.3-18.7H305.3z M293.7,1.2l5.2,18.4L283.3,1.2H293.7z"/>
		<path class="st0" d="M431.7,0.5C431.7,0.5,431.7,0.5,431.7,0.5C431.7,0.6,431.7,0.6,431.7,0.5C431.7,0.6,431.7,0.6,431.7,0.5
			c0,0.1-0.1,0.2-0.1,0.3v0c0,0,0,0.1,0,0.1c0,0,0,0,0,0c0,0,0,0.1,0.1,0.1c0,0,0,0,0,0c0,0,0,0,0,0l17.8,21.1c0,0,0,0.1,0.1,0.1
			c0,0,0.1,0.1,0.1,0.1c0.1,0,0.1,0,0.2,0c0,0,0,0,0,0c0.2,0,0.4-0.1,0.5-0.3l17.7-21c0.1-0.1,0.2-0.2,0.2-0.4c0-0.1,0-0.2-0.1-0.3
			L468,0h-1.2l0.1,0.2h-10.1L457,0h-2l0.1,0.2h-10.1l0.1-0.2h-2l0.1,0.2H433l0.1-0.2H432L431.7,0.5C431.7,0.5,431.7,0.5,431.7,0.5z
			 M466.7,1.2l-15.6,18.4l5.2-18.4H466.7z M455.3,1.2L450,19.9l-5.3-18.7H455.3z M443.7,1.2l5.2,18.4L433.3,1.2H443.7z"/>
		<path class="st0" d="M87.4,64.9C87.3,64.9,87.3,64.9,87.4,64.9C87.3,64.8,87.3,64.8,87.4,64.9c-0.1-0.1-0.1-0.1-0.1-0.1
			c0,0,0,0,0,0c-0.1-0.1-0.2-0.1-0.3-0.1c0,0,0,0,0,0s0,0,0,0c0,0,0,0,0,0H63.1h0c0,0,0,0,0,0c0,0,0,0,0,0c-0.1,0-0.3,0.1-0.3,0.1
			c0,0,0,0,0,0c0,0,0,0,0,0c0,0,0,0,0,0c0,0,0,0.1-0.1,0.1l-5.9,10.5c0,0,0,0,0,0c0,0,0,0,0,0.1c0,0,0,0,0,0c0,0,0,0,0,0
			c0,0.1,0,0.1,0,0.2v0c0,0,0,0.1,0,0.1h0c0,0,0,0,0,0c0,0,0,0.1,0.1,0.1c0,0,0,0,0,0c0,0,0,0,0,0l17.8,21.1c0,0,0,0.1,0.1,0.1
			c0,0,0.1,0.1,0.1,0.1c0.1,0,0.1,0,0.2,0c0,0,0,0,0,0c0.2,0,0.4-0.1,0.5-0.3l17.7-21c0.1-0.1,0.2-0.2,0.2-0.4c0-0.1,0-0.2-0.1-0.3
			L87.4,64.9z M86,65.7l-5.1,9l-5.1-9H86z M80.1,75.2H69.9l5.1-9L80.1,75.2z M74.1,65.7l-5.1,9l-5.1-9H74.1z M63.1,66.2l5.1,9H58
			L63.1,66.2z M58.3,76.2h10.4l5.2,18.4L58.3,76.2z M75,94.9l-5.3-18.7h10.5L75,94.9z M76.1,94.7l5.2-18.4h10.4L76.1,94.7z
			 M81.8,75.2l5.1-9l5.1,9H81.8z"/>
		<path class="st0" d="M237.4,64.9C237.3,64.9,237.3,64.9,237.4,64.9C237.3,64.8,237.3,64.8,237.4,64.9c-0.1-0.1-0.1-0.1-0.1-0.1
			c0,0,0,0,0,0c-0.1-0.1-0.2-0.1-0.3-0.1c0,0,0,0,0,0s0,0,0,0c0,0,0,0,0,0h-23.8h0c0,0,0,0,0,0c0,0,0,0,0,0c-0.1,0-0.3,0.1-0.3,0.1
			c0,0,0,0,0,0c0,0,0,0,0,0c0,0,0,0,0,0c0,0,0,0.1-0.1,0.1l-5.9,10.5c0,0,0,0,0,0c0,0,0,0,0,0.1c0,0,0,0,0,0c0,0,0,0,0,0
			c0,0.1,0,0.1,0,0.2v0c0,0,0,0.1,0,0.1h0c0,0,0,0,0,0c0,0,0,0.1,0.1,0.1c0,0,0,0,0,0c0,0,0,0,0,0l17.8,21.1c0,0,0,0.1,0.1,0.1
			c0,0,0.1,0.1,0.1,0.1c0.1,0,0.1,0,0.2,0c0,0,0,0,0,0c0.2,0,0.4-0.1,0.5-0.3l17.7-21c0.1-0.1,0.2-0.2,0.2-0.4c0-0.1,0-0.2-0.1-0.3
			L237.4,64.9z M236,65.7l-5.1,9l-5.1-9H236z M230.1,75.2h-10.1l5.1-9L230.1,75.2z M224.1,65.7l-5.1,9l-5.1-9H224.1z M213.1,66.2
			l5.1,9H208L213.1,66.2z M208.3,76.2h10.4l5.2,18.4L208.3,76.2z M225,94.9l-5.3-18.7h10.5L225,94.9z M226.1,94.7l5.2-18.4h10.4
			L226.1,94.7z M231.8,75.2l5.1-9l5.1,9H231.8z"/>
		<path class="st0" d="M387.4,64.9C387.3,64.9,387.3,64.9,387.4,64.9C387.3,64.8,387.3,64.8,387.4,64.9c-0.1-0.1-0.1-0.1-0.1-0.1
			c0,0,0,0,0,0c-0.1-0.1-0.2-0.1-0.3-0.1c0,0,0,0,0,0s0,0,0,0c0,0,0,0,0,0h-23.8c0,0,0,0,0,0c0,0,0,0,0,0c0,0,0,0,0,0
			c-0.1,0-0.3,0.1-0.3,0.1l0,0c0,0,0,0,0,0c0,0,0,0,0,0c0,0,0,0.1-0.1,0.1l-5.9,10.5c0,0,0,0,0,0c0,0,0,0,0,0.1c0,0,0,0,0,0
			c0,0,0,0,0,0c0,0.1,0,0.1,0,0.2v0c0,0,0,0.1,0,0.1c0,0,0,0,0,0c0,0,0,0.1,0.1,0.1c0,0,0,0,0,0c0,0,0,0,0,0l17.8,21.1
			c0,0,0,0.1,0.1,0.1c0,0,0.1,0.1,0.1,0.1c0.1,0,0.1,0,0.2,0c0,0,0,0,0,0c0.2,0,0.4-0.1,0.5-0.3l17.7-21c0.1-0.1,0.2-0.2,0.2-0.4
			c0-0.1,0-0.2-0.1-0.3L387.4,64.9z M386,65.7l-5.1,9l-5.1-9H386z M380.1,75.2h-10.1l5.1-9L380.1,75.2z M374.1,65.7l-5.1,9l-5.1-9
			H374.1z M363.1,66.2l5.1,9H358L363.1,66.2z M358.3,76.2h10.4l5.2,18.4L358.3,76.2z M375,94.9l-5.3-18.7h10.5L375,94.9z
			 M376.1,94.7l5.2-18.4h10.4L376.1,94.7z M381.8,75.2l5.1-9l5.1,9H381.8z"/>
		<path class="st0" d="M537.4,64.9C537.3,64.9,537.3,64.9,537.4,64.9C537.3,64.8,537.3,64.8,537.4,64.9c-0.1-0.1-0.1-0.1-0.1-0.1
			c0,0,0,0,0,0c-0.1-0.1-0.2-0.1-0.3-0.1h0h0c0,0,0,0,0,0h-23.8h0c0,0,0,0,0,0h0c-0.1,0-0.3,0.1-0.3,0.1l0,0c0,0,0,0,0,0
			c0,0,0,0,0,0c0,0,0,0.1-0.1,0.1l-5.9,10.5c0,0,0,0,0,0c0,0,0,0,0,0.1c0,0,0,0,0,0c0,0,0,0,0,0c0,0.1,0,0.1,0,0.2v0
			c0,0,0,0.1,0,0.1c0,0,0,0,0,0c0,0,0,0.1,0.1,0.1c0,0,0,0,0,0c0,0,0,0,0,0l17.8,21.1c0,0,0,0.1,0.1,0.1c0,0,0.1,0.1,0.1,0.1
			c0.1,0,0.1,0,0.2,0c0,0,0,0,0,0c0.2,0,0.4-0.1,0.5-0.3l17.7-21c0.1-0.1,0.2-0.2,0.2-0.4c0-0.1,0-0.2-0.1-0.3L537.4,64.9z
			 M536,65.7l-5.1,9l-5.1-9H536z M530.1,75.2h-10.1l5.1-9L530.1,75.2z M524.1,65.7l-5.1,9l-5.1-9H524.1z M513.1,66.2l5.1,9H508
			L513.1,66.2z M508.3,76.2h10.4l5.2,18.4L508.3,76.2z M525,94.9l-5.3-18.7h10.5L525,94.9z M526.1,94.7l5.2-18.4h10.4L526.1,94.7z
			 M531.8,75.2l5.1-9l5.1,9H531.8z"/>
		<path class="st0" d="M581.7,0.5C581.7,0.5,581.7,0.5,581.7,0.5C581.7,0.6,581.7,0.6,581.7,0.5C581.7,0.6,581.7,0.6,581.7,0.5
			c0,0.1-0.1,0.2-0.1,0.3v0c0,0,0,0.1,0,0.1c0,0,0,0,0,0c0,0,0,0.1,0.1,0.1c0,0,0,0,0,0c0,0,0,0,0,0l17.8,21.1c0,0,0,0.1,0.1,0.1
			c0,0,0.1,0.1,0.1,0.1c0.1,0,0.1,0,0.2,0c0,0,0,0,0,0v-2.5l0,0l-5.3-18.7h5.3v-1h-5.1l0.1-0.2h-2l0.1,0.2H583l0.1-0.2H582
			L581.7,0.5C581.7,0.5,581.7,0.5,581.7,0.5z M593.7,1.2l5.2,18.4L583.3,1.2H593.7z"/>
		<path class="st0" d="M0.5,172.1l17.7-21c0.1-0.1,0.2-0.2,0.2-0.4c0-0.1,0-0.2-0.1-0.3l-5.9-10.5c0,0,0-0.1-0.1-0.1c0,0,0,0,0,0
			c0,0,0,0-0.1-0.1c0,0,0,0,0,0c-0.1-0.1-0.2-0.1-0.3-0.1c0,0,0,0,0,0s0,0,0,0c0,0,0,0,0,0H0v1.6l5.1,9H0v1h5.3L0,169.9v2.5
			c0,0,0,0,0,0C0.2,172.3,0.4,172.2,0.5,172.1z M17,150.2H6.8l5.1-9L17,150.2z M0.9,140.7H11l-5.1,9L0.9,140.7z M6.3,151.2h10.4
			L1.1,169.7L6.3,151.2z"/>
		<path class="st0" d="M162.4,139.9C162.3,139.9,162.3,139.9,162.4,139.9C162.3,139.8,162.3,139.8,162.4,139.9
			c-0.1-0.1-0.1-0.1-0.1-0.1c0,0,0,0,0,0c-0.1-0.1-0.2-0.1-0.3-0.1c0,0,0,0,0,0s0,0,0,0c0,0,0,0,0,0h-23.8h0c0,0,0,0,0,0
			c0,0,0,0,0,0c-0.1,0-0.3,0.1-0.3,0.1c0,0,0,0,0,0c0,0,0,0,0,0c0,0,0,0,0,0c0,0,0,0.1-0.1,0.1l-5.9,10.5c0,0,0,0,0,0c0,0,0,0,0,0.1
			c0,0,0,0,0,0c0,0,0,0,0,0c0,0.1,0,0.1,0,0.2v0c0,0,0,0.1,0,0.1h0c0,0,0,0,0,0c0,0,0,0.1,0.1,0.1c0,0,0,0,0,0c0,0,0,0,0,0
			l17.8,21.1c0,0,0,0.1,0.1,0.1c0,0,0.1,0.1,0.1,0.1c0.1,0,0.1,0,0.2,0c0,0,0,0,0,0c0.2,0,0.4-0.1,0.5-0.3l17.7-21
			c0.1-0.1,0.2-0.2,0.2-0.4c0-0.1,0-0.2-0.1-0.3L162.4,139.9z M161,140.7l-5.1,9l-5.1-9H161z M155.1,150.2h-10.1l5.1-9L155.1,150.2z
			 M149.1,140.7l-5.1,9l-5.1-9H149.1z M138.1,141.2l5.1,9H133L138.1,141.2z M133.3,151.2h10.4l5.2,18.4L133.3,151.2z M150,169.9
			l-5.3-18.7h10.5L150,169.9z M151.1,169.7l5.2-18.4h10.4L151.1,169.7z M156.8,150.2l5.1-9l5.1,9H156.8z"/>
		<path class="st0" d="M312.4,139.9C312.3,139.9,312.3,139.9,312.4,139.9C312.3,139.8,312.3,139.8,312.4,139.9
			c-0.1-0.1-0.1-0.1-0.1-0.1c0,0,0,0,0,0c-0.1-0.1-0.2-0.1-0.3-0.1c0,0,0,0,0,0s0,0,0,0c0,0,0,0,0,0h-23.8h0c0,0,0,0,0,0
			c0,0,0,0,0,0c-0.1,0-0.3,0.1-0.3,0.1c0,0,0,0,0,0c0,0,0,0,0,0c0,0,0,0,0,0c0,0,0,0.1-0.1,0.1l-5.9,10.5c0,0,0,0,0,0c0,0,0,0,0,0.1
			c0,0,0,0,0,0c0,0,0,0,0,0c0,0.1,0,0.1,0,0.2v0c0,0,0,0.1,0,0.1h0c0,0,0,0,0,0c0,0,0,0.1,0.1,0.1c0,0,0,0,0,0c0,0,0,0,0,0
			l17.8,21.1c0,0,0,0.1,0.1,0.1c0,0,0.1,0.1,0.1,0.1c0.1,0,0.1,0,0.2,0c0,0,0,0,0,0c0.2,0,0.4-0.1,0.5-0.3l17.7-21
			c0.1-0.1,0.2-0.2,0.2-0.4c0-0.1,0-0.2-0.1-0.3L312.4,139.9z M311,140.7l-5.1,9l-5.1-9H311z M305.1,150.2h-10.1l5.1-9L305.1,150.2z
			 M299.1,140.7l-5.1,9l-5.1-9H299.1z M288.1,141.2l5.1,9H283L288.1,141.2z M283.3,151.2h10.4l5.2,18.4L283.3,151.2z M300,169.9
			l-5.3-18.7h10.5L300,169.9z M301.1,169.7l5.2-18.4h10.4L301.1,169.7z M306.8,150.2l5.1-9l5.1,9H306.8z"/>
		<path class="st0" d="M462.4,139.9C462.3,139.9,462.3,139.9,462.4,139.9C462.3,139.8,462.3,139.8,462.4,139.9
			c-0.1-0.1-0.1-0.1-0.1-0.1c0,0,0,0,0,0c-0.1-0.1-0.2-0.1-0.3-0.1c0,0,0,0,0,0s0,0,0,0c0,0,0,0,0,0h-23.8c0,0,0,0,0,0c0,0,0,0,0,0
			c0,0,0,0,0,0c-0.1,0-0.3,0.1-0.3,0.1l0,0c0,0,0,0,0,0c0,0,0,0,0,0c0,0,0,0.1-0.1,0.1l-5.9,10.5c0,0,0,0,0,0c0,0,0,0,0,0.1
			c0,0,0,0,0,0c0,0,0,0,0,0c0,0.1,0,0.1,0,0.2v0c0,0,0,0.1,0,0.1c0,0,0,0,0,0c0,0,0,0.1,0.1,0.1c0,0,0,0,0,0c0,0,0,0,0,0l17.8,21.1
			c0,0,0,0.1,0.1,0.1c0,0,0.1,0.1,0.1,0.1c0.1,0,0.1,0,0.2,0c0,0,0,0,0,0c0.2,0,0.4-0.1,0.5-0.3l17.7-21c0.1-0.1,0.2-0.2,0.2-0.4
			c0-0.1,0-0.2-0.1-0.3L462.4,139.9z M461,140.7l-5.1,9l-5.1-9H461z M455.1,150.2h-10.1l5.1-9L455.1,150.2z M449.1,140.7l-5.1,9
			l-5.1-9H449.1z M438.1,141.2l5.1,9H433L438.1,141.2z M433.3,151.2h10.4l5.2,18.4L433.3,151.2z M450,169.9l-5.3-18.7h10.5
			L450,169.9z M451.1,169.7l5.2-18.4h10.4L451.1,169.7z M456.8,150.2l5.1-9l5.1,9H456.8z"/>
		<path class="st0" d="M87.4,214.9C87.3,214.9,87.3,214.9,87.4,214.9C87.3,214.8,87.3,214.8,87.4,214.9c-0.1-0.1-0.1-0.1-0.1-0.1
			c0,0,0,0,0,0c-0.1-0.1-0.2-0.1-0.3-0.1c0,0,0,0,0,0s0,0,0,0c0,0,0,0,0,0H63.1h0c0,0,0,0,0,0c0,0,0,0,0,0c-0.1,0-0.3,0.1-0.3,0.1
			c0,0,0,0,0,0c0,0,0,0,0,0c0,0,0,0,0,0c0,0,0,0.1-0.1,0.1l-5.9,10.5c0,0,0,0,0,0c0,0,0,0,0,0.1c0,0,0,0,0,0c0,0,0,0,0,0
			c0,0.1,0,0.1,0,0.2v0c0,0,0,0.1,0,0.1h0c0,0,0,0,0,0c0,0,0,0.1,0.1,0.1c0,0,0,0,0,0c0,0,0,0,0,0l17.8,21.1c0,0,0,0.1,0.1,0.1
			c0,0,0.1,0.1,0.1,0.1c0.1,0,0.1,0,0.2,0c0,0,0,0,0,0c0.2,0,0.4-0.1,0.5-0.3l17.7-21c0.1-0.1,0.2-0.2,0.2-0.4c0-0.1,0-0.2-0.1-0.3
			L87.4,214.9z M86,215.7l-5.1,9l-5.1-9H86z M80.1,225.2H69.9l5.1-9L80.1,225.2z M74.1,215.7l-5.1,9l-5.1-9H74.1z M63.1,216.2l5.1,9
			H58L63.1,216.2z M58.3,226.2h10.4l5.2,18.4L58.3,226.2z M75,244.9l-5.3-18.7h10.5L75,244.9z M76.1,244.7l5.2-18.4h10.4L76.1,244.7
			z M81.8,225.2l5.1-9l5.1,9H81.8z"/>
		<path class="st0" d="M237.4,214.9C237.3,214.9,237.3,214.9,237.4,214.9C237.3,214.8,237.3,214.8,237.4,214.9
			c-0.1-0.1-0.1-0.1-0.1-0.1c0,0,0,0,0,0c-0.1-0.1-0.2-0.1-0.3-0.1c0,0,0,0,0,0s0,0,0,0c0,0,0,0,0,0h-23.8h0c0,0,0,0,0,0
			c0,0,0,0,0,0c-0.1,0-0.3,0.1-0.3,0.1c0,0,0,0,0,0c0,0,0,0,0,0c0,0,0,0,0,0c0,0,0,0.1-0.1,0.1l-5.9,10.5c0,0,0,0,0,0c0,0,0,0,0,0.1
			c0,0,0,0,0,0c0,0,0,0,0,0c0,0.1,0,0.1,0,0.2v0c0,0,0,0.1,0,0.1h0c0,0,0,0,0,0c0,0,0,0.1,0.1,0.1c0,0,0,0,0,0c0,0,0,0,0,0
			l17.8,21.1c0,0,0,0.1,0.1,0.1c0,0,0.1,0.1,0.1,0.1c0.1,0,0.1,0,0.2,0c0,0,0,0,0,0c0.2,0,0.4-0.1,0.5-0.3l17.7-21
			c0.1-0.1,0.2-0.2,0.2-0.4c0-0.1,0-0.2-0.1-0.3L237.4,214.9z M236,215.7l-5.1,9l-5.1-9H236z M230.1,225.2h-10.1l5.1-9L230.1,225.2z
			 M224.1,215.7l-5.1,9l-5.1-9H224.1z M213.1,216.2l5.1,9H208L213.1,216.2z M208.3,226.2h10.4l5.2,18.4L208.3,226.2z M225,244.9
			l-5.3-18.7h10.5L225,244.9z M226.1,244.7l5.2-18.4h10.4L226.1,244.7z M231.8,225.2l5.1-9l5.1,9H231.8z"/>
		<path class="st0" d="M387.4,214.9C387.3,214.9,387.3,214.9,387.4,214.9C387.3,214.8,387.3,214.8,387.4,214.9
			c-0.1-0.1-0.1-0.1-0.1-0.1c0,0,0,0,0,0c-0.1-0.1-0.2-0.1-0.3-0.1c0,0,0,0,0,0s0,0,0,0c0,0,0,0,0,0h-23.8c0,0,0,0,0,0c0,0,0,0,0,0
			c0,0,0,0,0,0c-0.1,0-0.3,0.1-0.3,0.1l0,0c0,0,0,0,0,0c0,0,0,0,0,0c0,0,0,0.1-0.1,0.1l-5.9,10.5c0,0,0,0,0,0c0,0,0,0,0,0.1
			c0,0,0,0,0,0c0,0,0,0,0,0c0,0.1,0,0.1,0,0.2v0c0,0,0,0.1,0,0.1c0,0,0,0,0,0c0,0,0,0.1,0.1,0.1c0,0,0,0,0,0c0,0,0,0,0,0l17.8,21.1
			c0,0,0,0.1,0.1,0.1c0,0,0.1,0.1,0.1,0.1c0.1,0,0.1,0,0.2,0c0,0,0,0,0,0c0.2,0,0.4-0.1,0.5-0.3l17.7-21c0.1-0.1,0.2-0.2,0.2-0.4
			c0-0.1,0-0.2-0.1-0.3L387.4,214.9z M386,215.7l-5.1,9l-5.1-9H386z M380.1,225.2h-10.1l5.1-9L380.1,225.2z M374.1,215.7l-5.1,9
			l-5.1-9H374.1z M363.1,216.2l5.1,9H358L363.1,216.2z M358.3,226.2h10.4l5.2,18.4L358.3,226.2z M375,244.9l-5.3-18.7h10.5
			L375,244.9z M376.1,244.7l5.2-18.4h10.4L376.1,244.7z M381.8,225.2l5.1-9l5.1,9H381.8z"/>
		<path class="st0" d="M537.4,214.9C537.3,214.9,537.3,214.9,537.4,214.9C537.3,214.8,537.3,214.8,537.4,214.9
			c-0.1-0.1-0.1-0.1-0.1-0.1c0,0,0,0,0,0c-0.1-0.1-0.2-0.1-0.3-0.1h0h0c0,0,0,0,0,0h-23.8h0c0,0,0,0,0,0h0c-0.1,0-0.3,0.1-0.3,0.1
			l0,0c0,0,0,0,0,0c0,0,0,0,0,0c0,0,0,0.1-0.1,0.1l-5.9,10.5c0,0,0,0,0,0c0,0,0,0,0,0.1c0,0,0,0,0,0c0,0,0,0,0,0c0,0.1,0,0.1,0,0.2
			v0c0,0,0,0.1,0,0.1c0,0,0,0,0,0c0,0,0,0.1,0.1,0.1c0,0,0,0,0,0c0,0,0,0,0,0l17.8,21.1c0,0,0,0.1,0.1,0.1c0,0,0.1,0.1,0.1,0.1
			c0.1,0,0.1,0,0.2,0c0,0,0,0,0,0c0.2,0,0.4-0.1,0.5-0.3l17.7-21c0.1-0.1,0.2-0.2,0.2-0.4c0-0.1,0-0.2-0.1-0.3L537.4,214.9z
			 M536,215.7l-5.1,9l-5.1-9H536z M530.1,225.2h-10.1l5.1-9L530.1,225.2z M524.1,215.7l-5.1,9l-5.1-9H524.1z M513.1,216.2l5.1,9H508
			L513.1,216.2z M508.3,226.2h10.4l5.2,18.4L508.3,226.2z M525,244.9l-5.3-18.7h10.5L525,244.9z M526.1,244.7l5.2-18.4h10.4
			L526.1,244.7z M531.8,225.2l5.1-9l5.1,9H531.8z"/>
		<path class="st0" d="M588.1,139.7C588.1,139.7,588.1,139.7,588.1,139.7L588.1,139.7c-0.1,0-0.3,0.1-0.3,0.1l0,0c0,0,0,0,0,0
			c0,0,0,0,0,0c0,0,0,0.1-0.1,0.1l-5.9,10.5c0,0,0,0,0,0c0,0,0,0,0,0.1c0,0,0,0,0,0c0,0,0,0,0,0c0,0.1,0,0.1,0,0.2v0
			c0,0,0,0.1,0,0.1c0,0,0,0,0,0c0,0,0,0.1,0.1,0.1c0,0,0,0,0,0c0,0,0,0,0,0l17.8,21.1c0,0,0,0.1,0.1,0.1c0,0,0.1,0.1,0.1,0.1
			c0.1,0,0.1,0,0.2,0c0,0,0,0,0,0v-2.5l0,0l-5.3-18.7h5.3v-1h-5.1l5.1-9l0,0v-1.6H588.1L588.1,139.7z M588.1,141.2l5.1,9H583
			L588.1,141.2z M598.8,169.7l-15.6-18.4h10.4L598.8,169.7z M599.1,140.7l-5.1,9l-5.1-9H599.1z"/>
		<path class="st0" d="M0.5,322.1l17.7-21c0.1-0.1,0.2-0.2,0.2-0.4c0-0.1,0-0.2-0.1-0.3l-5.9-10.5c0,0,0-0.1-0.1-0.1c0,0,0,0,0,0
			c0,0,0,0-0.1-0.1c0,0,0,0,0,0c-0.1-0.1-0.2-0.1-0.3-0.1c0,0,0,0,0,0s0,0,0,0c0,0,0,0,0,0H0v1.6l5.1,9H0v1h5.3L0,319.9v2.5
			c0,0,0,0,0,0C0.2,322.3,0.4,322.2,0.5,322.1z M17,300.2H6.8l5.1-9L17,300.2z M0.9,290.7H11l-5.1,9L0.9,290.7z M6.3,301.2h10.4
			L1.1,319.7L6.3,301.2z"/>
		<path class="st0" d="M162.4,289.9C162.3,289.9,162.3,289.9,162.4,289.9C162.3,289.8,162.3,289.8,162.4,289.9
			c-0.1-0.1-0.1-0.1-0.1-0.1c0,0,0,0,0,0c-0.1-0.1-0.2-0.1-0.3-0.1c0,0,0,0,0,0s0,0,0,0c0,0,0,0,0,0h-23.8h0c0,0,0,0,0,0
			c0,0,0,0,0,0c-0.1,0-0.3,0.1-0.3,0.1c0,0,0,0,0,0c0,0,0,0,0,0c0,0,0,0,0,0c0,0,0,0.1-0.1,0.1l-5.9,10.5c0,0,0,0,0,0c0,0,0,0,0,0.1
			c0,0,0,0,0,0c0,0,0,0,0,0c0,0.1,0,0.1,0,0.2v0c0,0,0,0.1,0,0.1h0c0,0,0,0,0,0c0,0,0,0.1,0.1,0.1c0,0,0,0,0,0c0,0,0,0,0,0
			l17.8,21.1c0,0,0,0.1,0.1,0.1c0,0,0.1,0.1,0.1,0.1c0.1,0,0.1,0,0.2,0c0,0,0,0,0,0c0.2,0,0.4-0.1,0.5-0.3l17.7-21
			c0.1-0.1,0.2-0.2,0.2-0.4c0-0.1,0-0.2-0.1-0.3L162.4,289.9z M161,290.7l-5.1,9l-5.1-9H161z M155.1,300.2h-10.1l5.1-9L155.1,300.2z
			 M149.1,290.7l-5.1,9l-5.1-9H149.1z M138.1,291.2l5.1,9H133L138.1,291.2z M133.3,301.2h10.4l5.2,18.4L133.3,301.2z M150,319.9
			l-5.3-18.7h10.5L150,319.9z M151.1,319.7l5.2-18.4h10.4L151.1,319.7z M156.8,300.2l5.1-9l5.1,9H156.8z"/>
		<path class="st0" d="M312.4,289.9C312.3,289.9,312.3,289.9,312.4,289.9C312.3,289.8,312.3,289.8,312.4,289.9
			c-0.1-0.1-0.1-0.1-0.1-0.1c0,0,0,0,0,0c-0.1-0.1-0.2-0.1-0.3-0.1c0,0,0,0,0,0s0,0,0,0c0,0,0,0,0,0h-23.8h0c0,0,0,0,0,0
			c0,0,0,0,0,0c-0.1,0-0.3,0.1-0.3,0.1c0,0,0,0,0,0c0,0,0,0,0,0c0,0,0,0,0,0c0,0,0,0.1-0.1,0.1l-5.9,10.5c0,0,0,0,0,0c0,0,0,0,0,0.1
			c0,0,0,0,0,0c0,0,0,0,0,0c0,0.1,0,0.1,0,0.2v0c0,0,0,0.1,0,0.1h0c0,0,0,0,0,0c0,0,0,0.1,0.1,0.1c0,0,0,0,0,0c0,0,0,0,0,0
			l17.8,21.1c0,0,0,0.1,0.1,0.1c0,0,0.1,0.1,0.1,0.1c0.1,0,0.1,0,0.2,0c0,0,0,0,0,0c0.2,0,0.4-0.1,0.5-0.3l17.7-21
			c0.1-0.1,0.2-0.2,0.2-0.4c0-0.1,0-0.2-0.1-0.3L312.4,289.9z M311,290.7l-5.1,9l-5.1-9H311z M305.1,300.2h-10.1l5.1-9L305.1,300.2z
			 M299.1,290.7l-5.1,9l-5.1-9H299.1z M288.1,291.2l5.1,9H283L288.1,291.2z M283.3,301.2h10.4l5.2,18.4L283.3,301.2z M300,319.9
			l-5.3-18.7h10.5L300,319.9z M301.1,319.7l5.2-18.4h10.4L301.1,319.7z M306.8,300.2l5.1-9l5.1,9H306.8z"/>
		<path class="st0" d="M462.4,289.9C462.3,289.9,462.3,289.9,462.4,289.9C462.3,289.8,462.3,289.8,462.4,289.9
			c-0.1-0.1-0.1-0.1-0.1-0.1c0,0,0,0,0,0c-0.1-0.1-0.2-0.1-0.3-0.1c0,0,0,0,0,0s0,0,0,0c0,0,0,0,0,0h-23.8c0,0,0,0,0,0c0,0,0,0,0,0
			c0,0,0,0,0,0c-0.1,0-0.3,0.1-0.3,0.1l0,0c0,0,0,0,0,0c0,0,0,0,0,0c0,0,0,0.1-0.1,0.1l-5.9,10.5c0,0,0,0,0,0c0,0,0,0,0,0.1
			c0,0,0,0,0,0c0,0,0,0,0,0c0,0.1,0,0.1,0,0.2v0c0,0,0,0.1,0,0.1c0,0,0,0,0,0c0,0,0,0.1,0.1,0.1c0,0,0,0,0,0c0,0,0,0,0,0l17.8,21.1
			c0,0,0,0.1,0.1,0.1c0,0,0.1,0.1,0.1,0.1c0.1,0,0.1,0,0.2,0c0,0,0,0,0,0c0.2,0,0.4-0.1,0.5-0.3l17.7-21c0.1-0.1,0.2-0.2,0.2-0.4
			c0-0.1,0-0.2-0.1-0.3L462.4,289.9z M461,290.7l-5.1,9l-5.1-9H461z M455.1,300.2h-10.1l5.1-9L455.1,300.2z M449.1,290.7l-5.1,9
			l-5.1-9H449.1z M438.1,291.2l5.1,9H433L438.1,291.2z M433.3,301.2h10.4l5.2,18.4L433.3,301.2z M450,319.9l-5.3-18.7h10.5
			L450,319.9z M451.1,319.7l5.2-18.4h10.4L451.1,319.7z M456.8,300.2l5.1-9l5.1,9H456.8z"/>
		<path class="st0" d="M87.4,364.9C87.3,364.9,87.3,364.9,87.4,364.9L87.4,364.9c-0.1-0.1-0.1-0.1-0.1-0.1c0,0,0,0,0,0
			c-0.1-0.1-0.2-0.1-0.3-0.1c0,0,0,0,0,0s0,0,0,0c0,0,0,0,0,0H63.1h0c0,0,0,0,0,0c0,0,0,0,0,0c-0.1,0-0.3,0.1-0.3,0.1c0,0,0,0,0,0
			c0,0,0,0,0,0c0,0,0,0,0,0c0,0,0,0.1-0.1,0.1l-5.9,10.5c0,0,0,0,0,0c0,0,0,0,0,0.1c0,0,0,0,0,0c0,0,0,0,0,0c0,0.1,0,0.1,0,0.2v0
			c0,0,0,0.1,0,0.1h0c0,0,0,0,0,0c0,0,0,0.1,0.1,0.1c0,0,0,0,0,0c0,0,0,0,0,0l17.8,21.1c0,0,0,0.1,0.1,0.1c0,0,0.1,0.1,0.1,0.1
			c0.1,0,0.1,0,0.2,0c0,0,0,0,0,0c0.2,0,0.4-0.1,0.5-0.3l17.7-21c0.1-0.1,0.2-0.2,0.2-0.4c0-0.1,0-0.2-0.1-0.3L87.4,364.9z
			 M86,365.7l-5.1,9l-5.1-9H86z M80.1,375.2H69.9l5.1-9L80.1,375.2z M74.1,365.7l-5.1,9l-5.1-9H74.1z M63.1,366.2l5.1,9H58
			L63.1,366.2z M58.3,376.2h10.4l5.2,18.4L58.3,376.2z M75,394.9l-5.3-18.7h10.5L75,394.9z M76.1,394.7l5.2-18.4h10.4L76.1,394.7z
			 M81.8,375.2l5.1-9l5.1,9H81.8z"/>
		<path class="st0" d="M237.4,364.9C237.3,364.9,237.3,364.9,237.4,364.9L237.4,364.9c-0.1-0.1-0.1-0.1-0.1-0.1c0,0,0,0,0,0
			c-0.1-0.1-0.2-0.1-0.3-0.1c0,0,0,0,0,0s0,0,0,0c0,0,0,0,0,0h-23.8h0c0,0,0,0,0,0c0,0,0,0,0,0c-0.1,0-0.3,0.1-0.3,0.1c0,0,0,0,0,0
			c0,0,0,0,0,0c0,0,0,0,0,0c0,0,0,0.1-0.1,0.1l-5.9,10.5c0,0,0,0,0,0c0,0,0,0,0,0.1c0,0,0,0,0,0c0,0,0,0,0,0c0,0.1,0,0.1,0,0.2v0
			c0,0,0,0.1,0,0.1h0c0,0,0,0,0,0c0,0,0,0.1,0.1,0.1c0,0,0,0,0,0c0,0,0,0,0,0l17.8,21.1c0,0,0,0.1,0.1,0.1c0,0,0.1,0.1,0.1,0.1
			c0.1,0,0.1,0,0.2,0c0,0,0,0,0,0c0.2,0,0.4-0.1,0.5-0.3l17.7-21c0.1-0.1,0.2-0.2,0.2-0.4c0-0.1,0-0.2-0.1-0.3L237.4,364.9z
			 M236,365.7l-5.1,9l-5.1-9H236z M230.1,375.2h-10.1l5.1-9L230.1,375.2z M224.1,365.7l-5.1,9l-5.1-9H224.1z M213.1,366.2l5.1,9H208
			L213.1,366.2z M208.3,376.2h10.4l5.2,18.4L208.3,376.2z M225,394.9l-5.3-18.7h10.5L225,394.9z M226.1,394.7l5.2-18.4h10.4
			L226.1,394.7z M231.8,375.2l5.1-9l5.1,9H231.8z"/>
		<path class="st0" d="M387.4,364.9C387.3,364.9,387.3,364.9,387.4,364.9L387.4,364.9c-0.1-0.1-0.1-0.1-0.1-0.1c0,0,0,0,0,0
			c-0.1-0.1-0.2-0.1-0.3-0.1c0,0,0,0,0,0s0,0,0,0c0,0,0,0,0,0h-23.8c0,0,0,0,0,0c0,0,0,0,0,0c0,0,0,0,0,0c-0.1,0-0.3,0.1-0.3,0.1h0
			c0,0,0,0,0,0c0,0,0,0,0,0c0,0,0,0.1-0.1,0.1l-5.9,10.5c0,0,0,0,0,0c0,0,0,0,0,0.1c0,0,0,0,0,0c0,0,0,0,0,0c0,0.1,0,0.1,0,0.2v0
			c0,0,0,0.1,0,0.1c0,0,0,0,0,0c0,0,0,0.1,0.1,0.1c0,0,0,0,0,0c0,0,0,0,0,0l17.8,21.1c0,0,0,0.1,0.1,0.1c0,0,0.1,0.1,0.1,0.1
			c0.1,0,0.1,0,0.2,0c0,0,0,0,0,0c0.2,0,0.4-0.1,0.5-0.3l17.7-21c0.1-0.1,0.2-0.2,0.2-0.4c0-0.1,0-0.2-0.1-0.3L387.4,364.9z
			 M386,365.7l-5.1,9l-5.1-9H386z M380.1,375.2h-10.1l5.1-9L380.1,375.2z M374.1,365.7l-5.1,9l-5.1-9H374.1z M363.1,366.2l5.1,9H358
			L363.1,366.2z M358.3,376.2h10.4l5.2,18.4L358.3,376.2z M375,394.9l-5.3-18.7h10.5L375,394.9z M376.1,394.7l5.2-18.4h10.4
			L376.1,394.7z M381.8,375.2l5.1-9l5.1,9H381.8z"/>
		<path class="st0" d="M537.4,364.9C537.3,364.9,537.3,364.9,537.4,364.9L537.4,364.9c-0.1-0.1-0.1-0.1-0.1-0.1c0,0,0,0,0,0
			c-0.1-0.1-0.2-0.1-0.3-0.1h0h0c0,0,0,0,0,0h-23.8h0c0,0,0,0,0,0h0c-0.1,0-0.3,0.1-0.3,0.1h0c0,0,0,0,0,0c0,0,0,0,0,0
			c0,0,0,0.1-0.1,0.1l-5.9,10.5c0,0,0,0,0,0c0,0,0,0,0,0.1c0,0,0,0,0,0c0,0,0,0,0,0c0,0.1,0,0.1,0,0.2v0c0,0,0,0.1,0,0.1
			c0,0,0,0,0,0c0,0,0,0.1,0.1,0.1c0,0,0,0,0,0c0,0,0,0,0,0l17.8,21.1c0,0,0,0.1,0.1,0.1c0,0,0.1,0.1,0.1,0.1c0.1,0,0.1,0,0.2,0
			c0,0,0,0,0,0c0.2,0,0.4-0.1,0.5-0.3l17.7-21c0.1-0.1,0.2-0.2,0.2-0.4c0-0.1,0-0.2-0.1-0.3L537.4,364.9z M536,365.7l-5.1,9l-5.1-9
			H536z M530.1,375.2h-10.1l5.1-9L530.1,375.2z M524.1,365.7l-5.1,9l-5.1-9H524.1z M513.1,366.2l5.1,9H508L513.1,366.2z
			 M508.3,376.2h10.4l5.2,18.4L508.3,376.2z M525,394.9l-5.3-18.7h10.5L525,394.9z M526.1,394.7l5.2-18.4h10.4L526.1,394.7z
			 M531.8,375.2l5.1-9l5.1,9H531.8z"/>
		<path class="st0" d="M588.1,289.7C588.1,289.7,588.1,289.7,588.1,289.7L588.1,289.7c-0.1,0-0.3,0.1-0.3,0.1l0,0c0,0,0,0,0,0
			c0,0,0,0,0,0c0,0,0,0.1-0.1,0.1l-5.9,10.5c0,0,0,0,0,0c0,0,0,0,0,0.1c0,0,0,0,0,0c0,0,0,0,0,0c0,0.1,0,0.1,0,0.2v0
			c0,0,0,0.1,0,0.1c0,0,0,0,0,0c0,0,0,0.1,0.1,0.1c0,0,0,0,0,0c0,0,0,0,0,0l17.8,21.1c0,0,0,0.1,0.1,0.1c0,0,0.1,0.1,0.1,0.1
			c0.1,0,0.1,0,0.2,0c0,0,0,0,0,0v-2.5l0,0l-5.3-18.7h5.3v-1h-5.1l5.1-9l0,0v-1.6H588.1L588.1,289.7z M588.1,291.2l5.1,9H583
			L588.1,291.2z M598.8,319.7l-15.6-18.4h10.4L598.8,319.7z M599.1,290.7l-5.1,9l-5.1-9H599.1z"/>
		<path class="st0" d="M0.5,472.1l17.7-21c0.1-0.1,0.2-0.2,0.2-0.4c0-0.1,0-0.2-0.1-0.3l-5.9-10.5c0,0,0-0.1-0.1-0.1h0
			c0,0,0,0-0.1-0.1c0,0,0,0,0,0c-0.1-0.1-0.2-0.1-0.3-0.1c0,0,0,0,0,0s0,0,0,0c0,0,0,0,0,0H0v1.6l5.1,9H0v1h5.3L0,469.9v2.5
			c0,0,0,0,0,0C0.2,472.3,0.4,472.2,0.5,472.1z M17,450.2H6.8l5.1-9L17,450.2z M0.9,440.7H11l-5.1,9L0.9,440.7z M6.3,451.2h10.4
			L1.1,469.7L6.3,451.2z"/>
		<path class="st0" d="M162.4,439.9C162.3,439.9,162.3,439.9,162.4,439.9L162.4,439.9c-0.1-0.1-0.1-0.1-0.1-0.1c0,0,0,0,0,0
			c-0.1-0.1-0.2-0.1-0.3-0.1c0,0,0,0,0,0s0,0,0,0c0,0,0,0,0,0h-23.8h0c0,0,0,0,0,0c0,0,0,0,0,0c-0.1,0-0.3,0.1-0.3,0.1c0,0,0,0,0,0
			c0,0,0,0,0,0c0,0,0,0,0,0c0,0,0,0.1-0.1,0.1l-5.9,10.5c0,0,0,0,0,0c0,0,0,0,0,0.1c0,0,0,0,0,0c0,0,0,0,0,0c0,0.1,0,0.1,0,0.2v0
			c0,0,0,0.1,0,0.1h0c0,0,0,0,0,0c0,0,0,0.1,0.1,0.1c0,0,0,0,0,0c0,0,0,0,0,0l17.8,21.1c0,0,0,0.1,0.1,0.1c0,0,0.1,0.1,0.1,0.1
			c0.1,0,0.1,0,0.2,0c0,0,0,0,0,0c0.2,0,0.4-0.1,0.5-0.3l17.7-21c0.1-0.1,0.2-0.2,0.2-0.4c0-0.1,0-0.2-0.1-0.3L162.4,439.9z
			 M161,440.7l-5.1,9l-5.1-9H161z M155.1,450.2h-10.1l5.1-9L155.1,450.2z M149.1,440.7l-5.1,9l-5.1-9H149.1z M138.1,441.2l5.1,9H133
			L138.1,441.2z M133.3,451.2h10.4l5.2,18.4L133.3,451.2z M150,469.9l-5.3-18.7h10.5L150,469.9z M151.1,469.7l5.2-18.4h10.4
			L151.1,469.7z M156.8,450.2l5.1-9l5.1,9H156.8z"/>
		<path class="st0" d="M312.4,439.9C312.3,439.9,312.3,439.9,312.4,439.9L312.4,439.9c-0.1-0.1-0.1-0.1-0.1-0.1c0,0,0,0,0,0
			c-0.1-0.1-0.2-0.1-0.3-0.1c0,0,0,0,0,0s0,0,0,0c0,0,0,0,0,0h-23.8h0c0,0,0,0,0,0c0,0,0,0,0,0c-0.1,0-0.3,0.1-0.3,0.1c0,0,0,0,0,0
			c0,0,0,0,0,0c0,0,0,0,0,0c0,0,0,0.1-0.1,0.1l-5.9,10.5c0,0,0,0,0,0c0,0,0,0,0,0.1c0,0,0,0,0,0c0,0,0,0,0,0c0,0.1,0,0.1,0,0.2v0
			c0,0,0,0.1,0,0.1h0c0,0,0,0,0,0c0,0,0,0.1,0.1,0.1c0,0,0,0,0,0c0,0,0,0,0,0l17.8,21.1c0,0,0,0.1,0.1,0.1c0,0,0.1,0.1,0.1,0.1
			c0.1,0,0.1,0,0.2,0c0,0,0,0,0,0c0.2,0,0.4-0.1,0.5-0.3l17.7-21c0.1-0.1,0.2-0.2,0.2-0.4c0-0.1,0-0.2-0.1-0.3L312.4,439.9z
			 M311,440.7l-5.1,9l-5.1-9H311z M305.1,450.2h-10.1l5.1-9L305.1,450.2z M299.1,440.7l-5.1,9l-5.1-9H299.1z M288.1,441.2l5.1,9H283
			L288.1,441.2z M283.3,451.2h10.4l5.2,18.4L283.3,451.2z M300,469.9l-5.3-18.7h10.5L300,469.9z M301.1,469.7l5.2-18.4h10.4
			L301.1,469.7z M306.8,450.2l5.1-9l5.1,9H306.8z"/>
		<path class="st0" d="M462.4,439.9C462.3,439.9,462.3,439.9,462.4,439.9L462.4,439.9c-0.1-0.1-0.1-0.1-0.1-0.1c0,0,0,0,0,0
			c-0.1-0.1-0.2-0.1-0.3-0.1c0,0,0,0,0,0s0,0,0,0c0,0,0,0,0,0h-23.8c0,0,0,0,0,0c0,0,0,0,0,0c0,0,0,0,0,0c-0.1,0-0.3,0.1-0.3,0.1h0
			c0,0,0,0,0,0c0,0,0,0,0,0c0,0,0,0.1-0.1,0.1l-5.9,10.5c0,0,0,0,0,0c0,0,0,0,0,0.1c0,0,0,0,0,0c0,0,0,0,0,0c0,0.1,0,0.1,0,0.2v0
			c0,0,0,0.1,0,0.1c0,0,0,0,0,0c0,0,0,0.1,0.1,0.1c0,0,0,0,0,0c0,0,0,0,0,0l17.8,21.1c0,0,0,0.1,0.1,0.1c0,0,0.1,0.1,0.1,0.1
			c0.1,0,0.1,0,0.2,0c0,0,0,0,0,0c0.2,0,0.4-0.1,0.5-0.3l17.7-21c0.1-0.1,0.2-0.2,0.2-0.4c0-0.1,0-0.2-0.1-0.3L462.4,439.9z
			 M461,440.7l-5.1,9l-5.1-9H461z M455.1,450.2h-10.1l5.1-9L455.1,450.2z M449.1,440.7l-5.1,9l-5.1-9H449.1z M438.1,441.2l5.1,9H433
			L438.1,441.2z M433.3,451.2h10.4l5.2,18.4L433.3,451.2z M450,469.9l-5.3-18.7h10.5L450,469.9z M451.1,469.7l5.2-18.4h10.4
			L451.1,469.7z M456.8,450.2l5.1-9l5.1,9H456.8z"/>
		<path class="st0" d="M87.4,514.9C87.3,514.9,87.3,514.9,87.4,514.9L87.4,514.9c-0.1-0.1-0.1-0.1-0.1-0.1c0,0,0,0,0,0
			c-0.1-0.1-0.2-0.1-0.3-0.1c0,0,0,0,0,0s0,0,0,0c0,0,0,0,0,0H63.1h0c0,0,0,0,0,0c0,0,0,0,0,0c-0.1,0-0.3,0.1-0.3,0.1c0,0,0,0,0,0
			c0,0,0,0,0,0c0,0,0,0,0,0c0,0,0,0.1-0.1,0.1l-5.9,10.5c0,0,0,0,0,0c0,0,0,0,0,0.1v0c0,0,0,0,0,0c0,0.1,0,0.1,0,0.2v0
			c0,0,0,0.1,0,0.1h0c0,0,0,0,0,0c0,0,0,0.1,0.1,0.1c0,0,0,0,0,0c0,0,0,0,0,0l17.8,21.1c0,0,0,0.1,0.1,0.1c0,0,0.1,0.1,0.1,0.1
			c0.1,0,0.1,0,0.2,0c0,0,0,0,0,0c0.2,0,0.4-0.1,0.5-0.3l17.7-21c0.1-0.1,0.2-0.2,0.2-0.4c0-0.1,0-0.2-0.1-0.3L87.4,514.9z
			 M86,515.7l-5.1,9l-5.1-9H86z M80.1,525.2H69.9l5.1-9L80.1,525.2z M74.1,515.7l-5.1,9l-5.1-9H74.1z M63.1,516.2l5.1,9H58
			L63.1,516.2z M58.3,526.2h10.4l5.2,18.4L58.3,526.2z M75,544.9l-5.3-18.7h10.5L75,544.9z M76.1,544.7l5.2-18.4h10.4L76.1,544.7z
			 M81.8,525.2l5.1-9l5.1,9H81.8z"/>
		<path class="st0" d="M237.4,514.9C237.3,514.9,237.3,514.9,237.4,514.9L237.4,514.9c-0.1-0.1-0.1-0.1-0.1-0.1c0,0,0,0,0,0
			c-0.1-0.1-0.2-0.1-0.3-0.1c0,0,0,0,0,0s0,0,0,0c0,0,0,0,0,0h-23.8h0c0,0,0,0,0,0c0,0,0,0,0,0c-0.1,0-0.3,0.1-0.3,0.1c0,0,0,0,0,0
			c0,0,0,0,0,0c0,0,0,0,0,0c0,0,0,0.1-0.1,0.1l-5.9,10.5c0,0,0,0,0,0c0,0,0,0,0,0.1v0c0,0,0,0,0,0c0,0.1,0,0.1,0,0.2v0
			c0,0,0,0.1,0,0.1h0c0,0,0,0,0,0c0,0,0,0.1,0.1,0.1c0,0,0,0,0,0c0,0,0,0,0,0l17.8,21.1c0,0,0,0.1,0.1,0.1c0,0,0.1,0.1,0.1,0.1
			c0.1,0,0.1,0,0.2,0c0,0,0,0,0,0c0.2,0,0.4-0.1,0.5-0.3l17.7-21c0.1-0.1,0.2-0.2,0.2-0.4c0-0.1,0-0.2-0.1-0.3L237.4,514.9z
			 M236,515.7l-5.1,9l-5.1-9H236z M230.1,525.2h-10.1l5.1-9L230.1,525.2z M224.1,515.7l-5.1,9l-5.1-9H224.1z M213.1,516.2l5.1,9H208
			L213.1,516.2z M208.3,526.2h10.4l5.2,18.4L208.3,526.2z M225,544.9l-5.3-18.7h10.5L225,544.9z M226.1,544.7l5.2-18.4h10.4
			L226.1,544.7z M231.8,525.2l5.1-9l5.1,9H231.8z"/>
		<path class="st0" d="M387.4,514.9C387.3,514.9,387.3,514.9,387.4,514.9L387.4,514.9c-0.1-0.1-0.1-0.1-0.1-0.1c0,0,0,0,0,0
			c-0.1-0.1-0.2-0.1-0.3-0.1c0,0,0,0,0,0s0,0,0,0c0,0,0,0,0,0h-23.8c0,0,0,0,0,0c0,0,0,0,0,0c0,0,0,0,0,0c-0.1,0-0.3,0.1-0.3,0.1h0
			c0,0,0,0,0,0c0,0,0,0,0,0c0,0,0,0.1-0.1,0.1l-5.9,10.5c0,0,0,0,0,0c0,0,0,0,0,0.1v0c0,0,0,0,0,0c0,0.1,0,0.1,0,0.2v0
			c0,0,0,0.1,0,0.1c0,0,0,0,0,0c0,0,0,0.1,0.1,0.1c0,0,0,0,0,0c0,0,0,0,0,0l17.8,21.1c0,0,0,0.1,0.1,0.1c0,0,0.1,0.1,0.1,0.1
			c0.1,0,0.1,0,0.2,0c0,0,0,0,0,0c0.2,0,0.4-0.1,0.5-0.3l17.7-21c0.1-0.1,0.2-0.2,0.2-0.4c0-0.1,0-0.2-0.1-0.3L387.4,514.9z
			 M386,515.7l-5.1,9l-5.1-9H386z M380.1,525.2h-10.1l5.1-9L380.1,525.2z M374.1,515.7l-5.1,9l-5.1-9H374.1z M363.1,516.2l5.1,9H358
			L363.1,516.2z M358.3,526.2h10.4l5.2,18.4L358.3,526.2z M375,544.9l-5.3-18.7h10.5L375,544.9z M376.1,544.7l5.2-18.4h10.4
			L376.1,544.7z M381.8,525.2l5.1-9l5.1,9H381.8z"/>
		<path class="st0" d="M537.4,514.9C537.3,514.9,537.3,514.9,537.4,514.9L537.4,514.9c-0.1-0.1-0.1-0.1-0.1-0.1c0,0,0,0,0,0
			c-0.1-0.1-0.2-0.1-0.3-0.1h0h0c0,0,0,0,0,0h-23.8h0c0,0,0,0,0,0h0c-0.1,0-0.3,0.1-0.3,0.1h0c0,0,0,0,0,0c0,0,0,0,0,0
			c0,0,0,0.1-0.1,0.1l-5.9,10.5c0,0,0,0,0,0c0,0,0,0,0,0.1v0c0,0,0,0,0,0c0,0.1,0,0.1,0,0.2v0c0,0,0,0.1,0,0.1c0,0,0,0,0,0
			c0,0,0,0.1,0.1,0.1c0,0,0,0,0,0c0,0,0,0,0,0l17.8,21.1c0,0,0,0.1,0.1,0.1c0,0,0.1,0.1,0.1,0.1c0.1,0,0.1,0,0.2,0c0,0,0,0,0,0
			c0.2,0,0.4-0.1,0.5-0.3l17.7-21c0.1-0.1,0.2-0.2,0.2-0.4c0-0.1,0-0.2-0.1-0.3L537.4,514.9z M536,515.7l-5.1,9l-5.1-9H536z
			 M530.1,525.2h-10.1l5.1-9L530.1,525.2z M524.1,515.7l-5.1,9l-5.1-9H524.1z M513.1,516.2l5.1,9H508L513.1,516.2z M508.3,526.2
			h10.4l5.2,18.4L508.3,526.2z M525,544.9l-5.3-18.7h10.5L525,544.9z M526.1,544.7l5.2-18.4h10.4L526.1,544.7z M531.8,525.2l5.1-9
			l5.1,9H531.8z"/>
		<path class="st0" d="M588.1,439.7C588.1,439.7,588.1,439.7,588.1,439.7L588.1,439.7c-0.1,0-0.3,0.1-0.3,0.1h0c0,0,0,0,0,0
			c0,0,0,0,0,0c0,0,0,0.1-0.1,0.1l-5.9,10.5c0,0,0,0,0,0c0,0,0,0,0,0.1c0,0,0,0,0,0c0,0,0,0,0,0c0,0.1,0,0.1,0,0.2v0
			c0,0,0,0.1,0,0.1c0,0,0,0,0,0c0,0,0,0.1,0.1,0.1c0,0,0,0,0,0c0,0,0,0,0,0l17.8,21.1c0,0,0,0.1,0.1,0.1c0,0,0.1,0.1,0.1,0.1
			c0.1,0,0.1,0,0.2,0c0,0,0,0,0,0v-2.5l0,0l-5.3-18.7h5.3v-1h-5.1l5.1-9l0,0v-1.6H588.1L588.1,439.7z M588.1,441.2l5.1,9H583
			L588.1,441.2z M598.8,469.7l-15.6-18.4h10.4L598.8,469.7z M599.1,440.7l-5.1,9l-5.1-9H599.1z"/>
		<path class="st0" d="M12.3,589.8L12.3,589.8C12.3,589.8,12.3,589.8,12.3,589.8C12.2,589.8,12.2,589.8,12.3,589.8
			c-0.1-0.1-0.3-0.2-0.4-0.2c0,0,0,0,0,0s0,0,0,0c0,0,0,0,0,0H0v1.6l4.9,8.8h2l4.9-8.8l4.9,8.8H18L12.3,589.8
			C12.3,589.9,12.3,589.9,12.3,589.8z M5.9,599.7l-5.1-9H11L5.9,599.7z"/>
		<path class="st0" d="M162.3,589.8L162.3,589.8C162.3,589.8,162.3,589.8,162.3,589.8C162.2,589.8,162.2,589.8,162.3,589.8
			c-0.1-0.1-0.3-0.2-0.4-0.2c0,0,0,0,0,0s0,0,0,0c0,0,0,0,0,0h-23.8h0c0,0,0,0,0,0c0,0,0,0,0,0c-0.1,0-0.3,0.1-0.3,0.1c0,0,0,0,0,0
			c0,0,0,0,0,0c0,0,0,0,0,0c0,0,0,0.1-0.1,0.1L132,600h1.2l4.9-8.8l4.9,8.8h2l4.9-8.8l4.9,8.8h2l4.9-8.8l4.9,8.8h1.2L162.3,589.8
			C162.3,589.9,162.3,589.9,162.3,589.8z M144,599.7l-5.1-9h10.1L144,599.7z M155.9,599.7l-5.1-9H161L155.9,599.7z"/>
		<path class="st0" d="M312.3,589.8L312.3,589.8C312.3,589.8,312.3,589.8,312.3,589.8C312.2,589.8,312.2,589.8,312.3,589.8
			c-0.1-0.1-0.3-0.2-0.4-0.2c0,0,0,0,0,0s0,0,0,0c0,0,0,0,0,0h-23.8h0c0,0,0,0,0,0c0,0,0,0,0,0c-0.1,0-0.3,0.1-0.3,0.1c0,0,0,0,0,0
			c0,0,0,0,0,0c0,0,0,0,0,0c0,0,0,0.1-0.1,0.1L282,600h1.2l4.9-8.8l4.9,8.8h2l4.9-8.8l4.9,8.8h2l4.9-8.8l4.9,8.8h1.2L312.3,589.8
			C312.3,589.9,312.3,589.9,312.3,589.8z M294,599.7l-5.1-9h10.1L294,599.7z M305.9,599.7l-5.1-9H311L305.9,599.7z"/>
		<path class="st0" d="M462.3,589.8L462.3,589.8C462.3,589.8,462.3,589.8,462.3,589.8C462.2,589.8,462.2,589.8,462.3,589.8
			c-0.1-0.1-0.3-0.2-0.4-0.2c0,0,0,0,0,0s0,0,0,0c0,0,0,0,0,0h-23.8c0,0,0,0,0,0c0,0,0,0,0,0c0,0,0,0,0,0c-0.1,0-0.3,0.1-0.3,0.1h0
			c0,0,0,0,0,0c0,0,0,0,0,0c0,0,0,0.1-0.1,0.1L432,600h1.2l4.9-8.8l4.9,8.8h2l4.9-8.8l4.9,8.8h2l4.9-8.8l4.9,8.8h1.2L462.3,589.8
			C462.3,589.9,462.3,589.9,462.3,589.8z M444,599.7l-5.1-9h10.1L444,599.7z M455.9,599.7l-5.1-9H461L455.9,599.7z"/>
		<path class="st0" d="M588.1,591.2l4.9,8.8h2l4.9-8.8l0,0v-1.6h-11.9h0c0,0,0,0,0,0h0c-0.1,0-0.3,0.1-0.3,0.1h0c0,0,0,0,0,0
			c0,0,0,0,0,0c0,0,0,0.1-0.1,0.1L582,600h1.2L588.1,591.2z M599.1,590.7l-5.1,9l-5.1-9H599.1z"/>
	</g>
</g>
</svg>
