<?xml version="1.0" encoding="utf-8"?>
<!-- Generator: Adobe Illustrator 27.2.0, SVG Export Plug-In . SVG Version: 6.00 Build 0)  -->
<svg version="1.1" id="圖層_1" xmlns="http://www.w3.org/2000/svg" xmlns:xlink="http://www.w3.org/1999/xlink" x="0px" y="0px"
	 viewBox="0 0 262 200" style="enable-background:new 0 0 262 200;" xml:space="preserve">
<style type="text/css">
	.st0{fill:#FFFFFF;}
</style>
<g>
	<path class="st0" d="M245.7,84.5c0.1-0.3,0.6-0.6,0-0.9c-2.7-1.4-3-1.4-5.7,0c-0.7,0.4-1.4,0.8-2.1,1.2c-2.8,1.7-5.7,3.2-8.8,4.4
		c-4.1,1.7-8.4,2-12.7,0.9c-3-0.8-5.7-2.5-8.3-4c-2.7-1.5-5.4-3-8.4-3.7c-5.7-1.5-11.2-0.8-16.4,2c-6.5,3.5-10.7,9.1-13.4,15.9
		c-2.1,5.1-3.1,10.5-3.3,16c-0.2,4,0.2,7.9,1.8,11.7c1.4,3.3,3.5,6.2,6.7,8c4.7,2.7,9.8,2.9,14.8,1.5c8.1-2.2,13.4-7.7,17.2-14.9
		c2.4-4.7,3.7-9.8,4.3-15.1c0.6-5.2,0.6-10.4-1.4-15.4c-0.2-0.5-0.4-1.1-0.7-1.6c0.2,0,0.3,0,0.3,0c0.3,0.1,0.5,0.3,0.8,0.4
		c6.5,3.4,13.1,4.1,20,1.2c2.6-1.1,5.1-2.4,7.7-3.7c0.3-0.1,0.5-0.4,1-0.3c0,0.5-0.3,0.8-0.5,1.1c-13.8,26.3-27.7,52.5-41.5,78.8
		c-4.8,9.1-9.6,18.2-14.4,27.4c-0.3,0.6-0.3,0.8,0.3,1.1c0.8,0.3,1.6,0.6,2.3,1c0.8,0.4,1.1,0.2,1.5-0.5
		c16.9-32.2,33.8-64.3,50.6-96.5C240.2,95,242.9,89.7,245.7,84.5z M199.9,119.7c-1.5,4.4-3.6,8.6-7.1,11.8c-3.1,2.8-6.7,4.1-10.9,3
		c-2.6-0.7-4.2-2.5-5.3-4.8c-1.5-3.1-1.9-6.4-1.9-9.7c0.1-8,1.6-15.8,4.8-23.2c1.7-3.9,4-7.6,7.7-10.1c3.3-2.2,6.9-2.8,10.5-0.9
		c2.3,1.2,3.5,3.4,4.4,5.7c1,2.8,1.2,5.7,1.3,8.5C203.3,106.8,202.1,113.3,199.9,119.7z"/>
	<path class="st0" d="M260.1,151.8c-1.5-3.4-3.6-6.3-7-8.1c-5.6-2.9-11.3-2.7-17-0.5c-6.7,2.6-11.3,7.5-14.4,13.8
		c-4,8.1-5.6,16.7-4.5,25.7c0.5,3.8,2,7.3,4.6,10.2c3.3,3.7,7.6,5.2,13.1,5.2c3.2,0.1,6.8-0.8,10.2-2.6c6.5-3.6,10.9-9.1,13.6-16
		c2-5,3-10.2,3.3-15.6C262.2,159.8,261.8,155.7,260.1,151.8z M249,182.8c-1.8,4-4,7.7-7.7,10.3s-8.9,2.6-11.9-0.1
		c-2.3-2-3.2-4.7-3.8-7.6c-1-5.6-0.4-11.1,0.7-16.6c1-5,2.4-9.9,4.9-14.4c1.9-3.4,4.2-6.5,7.8-8.4c5.8-3,11.8-0.4,13.7,5.8
		c0.8,2.8,1.2,5.6,1.2,8.5C253.5,168.1,252.2,175.7,249,182.8z"/>
</g>
<path class="st0" d="M160.4,21.8L171.3,0h-3c-2,2.1-4,3.6-6.1,4.5s-5.9,1.3-11.4,1.3H82.2V5.7v0.1l-8.2,16L42,84.6l2.4,1.2
	C57.8,81.9,69.5,80,79.5,80c10.2,0,18.8,1.9,25.7,5.8c10.4,5.6,15.6,14.6,15.6,27c0,4.5-0.7,9.3-2.1,14.5
	c-5.7,17.8-15.1,32.3-28.1,43.3c-13,11.1-24,17.6-33.1,19.8c-9.1,2.1-15.6,3.2-19.5,3.2c-6.9,0-12.4-1.8-16.5-5.5l-1.2,2.9
	c5.1,5.8,13.6,8.7,25.4,8.7c19.9,0,39.9-7.2,59.9-21.5c16.9-12,28.8-29.8,35.7-53.2c1.4-6.4,2.1-12.3,2.1-17.7
	c0-15.7-6-27.1-18-34.3c-10-5.8-22-8.7-35.7-8.7c-8.9,0-18.5,1.2-28.9,3.5l23.3-45.9L160.4,21.8L160.4,21.8z"/>
</svg>
