<?xml version="1.0" encoding="utf-8"?>
<!-- Generator: Adobe Illustrator 26.3.1, SVG Export Plug-In . SVG Version: 6.00 Build 0)  -->
<svg version="1.1" id="圖層_1" xmlns="http://www.w3.org/2000/svg" xmlns:xlink="http://www.w3.org/1999/xlink" x="0px" y="0px"
	 viewBox="0 0 262 200" style="enable-background:new 0 0 262 200;" xml:space="preserve">
<style type="text/css">
	.st0{fill:#FFFFFF;}
</style>
<g>
	<path class="st0" d="M136.3,109.3c-0.4,0.1-0.8,0.6-1.2,0.9c-2.9,2.7-6.1,4-9.8,4.3c-5.2,0.4-10.3,0.1-15.4,0.3c-1.5,0-2-0.3-1.7-2
		c3.3-18.5,6.6-37,9.8-55.5c3.3-18.5,6.5-37,9.8-55.5c0.1-0.4,0.1-0.8,0.2-1.2c0.1-0.5-0.1-0.7-0.6-0.7c-1.1,0-2.2-0.1-3.2,1.1
		c-2.4,2.7-5,5.2-7.6,7.8C82.9,43.1,49.4,77.4,15.8,111.6c-4.8,4.9-9.6,9.8-14.5,14.7c-1.1,1.1-1.4,2.3-1.3,3.4
		c0.1,1,1.4,0.4,2.2,0.4c19.2,0,38.5,0,57.7,0c8.5,0,16.9,0,25.4,0c0.9,0,1.6-0.1,1.4,1.3c-3,16.7-5.9,33.5-8.9,50.2
		c-0.7,3.6-2.2,7-5.2,9.8c-4.4,4.1-9.2,5.9-14.5,5.6c-1.9-0.1-1.7,1.1-2,2.1c-0.4,1.4,0.9,0.7,1.5,0.7c11,0,21.9,0,32.9,0
		c6.5,0,13,0,19.4,0c1.2,0,1.4-0.4,1.7-1.5c0.5-1.9-0.9-1.4-1.8-1.4c-8.6,0.4-15.5-6.5-13.6-16.4c3.1-16.3,5.8-32.5,8.6-48.8
		c0.2-1.4,0.7-1.7,2-1.7c7,0.1,14,0,21,0.1c1.4,0,1.9-0.5,2.5-1.7c2.6-5.8,5.2-11.6,7.9-17.4c0.3-0.6,1-1.4,0.6-1.8
		C138.2,108.9,137.1,109.1,136.3,109.3z M103.8,34.5c-4.6,26.2-9.2,52.4-13.8,78.6c-0.2,0.9-0.1,1.7-1.6,1.7c-21.3-0.1-42.7,0-64,0
		c-0.2,0-0.3,0-0.6-0.1c26.8-27.2,53.4-54.3,80.1-81.5C104.2,33.6,103.9,34.1,103.8,34.5z"/>
	<path class="st0" d="M245.7,84.1c0.1-0.3,0.6-0.6,0-0.9c-2.7-1.4-3-1.4-5.7,0c-0.7,0.4-1.4,0.8-2.1,1.2c-2.8,1.7-5.7,3.2-8.8,4.4
		c-4.1,1.7-8.4,2-12.7,0.9c-3-0.8-5.7-2.5-8.3-4c-2.7-1.5-5.4-3-8.4-3.7c-5.7-1.5-11.2-0.8-16.4,2c-6.5,3.5-10.7,9.1-13.4,15.9
		c-2.1,5.1-3.1,10.5-3.3,16c-0.2,4,0.2,7.9,1.8,11.7c1.4,3.3,3.5,6.2,6.7,8c4.7,2.7,9.8,2.9,14.8,1.5c8.1-2.2,13.4-7.7,17.2-14.9
		c2.4-4.7,3.7-9.8,4.3-15.1c0.6-5.2,0.6-10.4-1.4-15.4c-0.2-0.5-0.4-1.1-0.7-1.6c0.2,0,0.3,0,0.3,0c0.3,0.1,0.5,0.3,0.8,0.4
		c6.5,3.4,13.1,4.1,20,1.2c2.6-1.1,5.1-2.4,7.7-3.7c0.3-0.1,0.5-0.4,1-0.3c0,0.5-0.3,0.8-0.5,1.1c-13.8,26.3-27.7,52.5-41.5,78.8
		c-4.8,9.1-9.6,18.2-14.4,27.4c-0.3,0.6-0.3,0.8,0.3,1.1c0.8,0.3,1.6,0.6,2.3,1c0.8,0.4,1.1,0.2,1.5-0.5
		c16.9-32.2,33.8-64.3,50.6-96.5C240.2,94.6,242.9,89.3,245.7,84.1z M199.9,119.3c-1.5,4.4-3.6,8.6-7.1,11.8
		c-3.1,2.8-6.7,4.1-10.9,3c-2.6-0.7-4.2-2.5-5.3-4.8c-1.5-3.1-1.9-6.4-1.9-9.7c0.1-8,1.6-15.8,4.8-23.2c1.7-3.9,4-7.6,7.7-10.1
		c3.3-2.2,6.9-2.8,10.5-0.9c2.3,1.2,3.5,3.4,4.4,5.7c1,2.8,1.2,5.7,1.3,8.5C203.3,106.4,202.1,112.9,199.9,119.3z"/>
	<path class="st0" d="M260.1,151.4c-1.5-3.4-3.6-6.3-7-8.1c-5.6-2.9-11.3-2.7-17-0.5c-6.7,2.6-11.3,7.5-14.4,13.8
		c-4,8.1-5.6,16.7-4.5,25.7c0.5,3.8,2,7.3,4.6,10.2c3.3,3.7,7.6,5.2,13.1,5.2c3.2,0.1,6.8-0.8,10.2-2.6c6.5-3.6,10.9-9.1,13.6-16
		c2-5,3-10.2,3.3-15.6C262.2,159.4,261.8,155.3,260.1,151.4z M249,182.4c-1.8,4-4,7.7-7.7,10.3c-3.7,2.6-8.9,2.6-11.9-0.1
		c-2.3-2-3.2-4.7-3.8-7.6c-1-5.6-0.4-11.1,0.7-16.6c1-5,2.4-9.9,4.9-14.4c1.9-3.4,4.2-6.5,7.8-8.4c5.8-3,11.8-0.4,13.7,5.8
		c0.8,2.8,1.2,5.6,1.2,8.5C253.5,167.7,252.2,175.3,249,182.4z"/>
</g>
</svg>
