<svg width="54" height="54" viewBox="0 0 54 54" fill="none" xmlns="http://www.w3.org/2000/svg">
<g clip-path="url(#clip0_20354_248)">
<path d="M54 27.0002C54 41.9102 41.91 54.0002 27 54.0002C12.09 54.0002 0 41.9102 0 27.0002C0 12.0902 12.09 0.000183105 27 0.000183105C41.91 0.000183105 54 12.0902 54 27.0002Z" fill="#06C755"/>
<path d="M44.3199 25.6902C44.3199 17.9402 36.5499 11.6302 26.9999 11.6302C17.4499 11.6302 9.67993 17.9402 9.67993 25.6902C9.67993 32.6402 15.8499 38.4602 24.1699 39.5602C24.7299 39.6802 25.4999 39.9302 25.6999 40.4102C25.8799 40.8502 25.8199 41.5402 25.7599 41.9802C25.7599 41.9802 25.5599 43.2002 25.5099 43.4602C25.4299 43.9002 25.1599 45.1702 27.0099 44.4002C28.8599 43.6302 36.9899 38.5302 40.6199 34.3402C43.1299 31.5902 44.3299 28.7902 44.3299 25.6902H44.3199Z" fill="white"/>
<path d="M38.5599 30.1602H33.6899C33.5099 30.1602 33.3699 30.0102 33.3699 29.8402V22.2802C33.3699 22.1002 33.5199 21.9602 33.6899 21.9602H38.5599C38.7399 21.9602 38.8799 22.1102 38.8799 22.2802V23.5102C38.8799 23.6902 38.7299 23.8302 38.5599 23.8302H35.2499V25.1002H38.5599C38.7399 25.1002 38.8799 25.2502 38.8799 25.4202V26.6602C38.8799 26.8402 38.7299 26.9802 38.5599 26.9802H35.2499V28.2602H38.5599C38.7399 28.2602 38.8799 28.4102 38.8799 28.5802V29.8102C38.8799 29.9902 38.7499 30.1402 38.5699 30.1502C38.5699 30.1502 38.5699 30.1502 38.5599 30.1502V30.1602Z" fill="#06C755"/>
<path d="M20.5599 30.1602C20.7399 30.1602 20.8799 30.0102 20.8799 29.8402V28.6102C20.8799 28.4302 20.7299 28.2902 20.5599 28.2902H17.2499V22.2802C17.2499 22.1002 17.0999 21.9602 16.9299 21.9602H15.6999C15.5199 21.9602 15.3799 22.1102 15.3799 22.2802V29.8302C15.3799 30.0102 15.5299 30.1502 15.6999 30.1502H20.5699L20.5599 30.1602Z" fill="#06C755"/>
<path d="M23.4899 21.9402H22.2599C22.0777 21.9402 21.9299 22.0879 21.9299 22.2702V29.8302C21.9299 30.0124 22.0777 30.1602 22.2599 30.1602H23.4899C23.6722 30.1602 23.8199 30.0124 23.8199 29.8302V22.2702C23.8199 22.0879 23.6722 21.9402 23.4899 21.9402Z" fill="#06C755"/>
<path d="M31.85 21.9402H30.62C30.44 21.9402 30.3 22.0902 30.3 22.2602V26.7502L26.84 22.0802C26.84 22.0802 26.82 22.0602 26.81 22.0502L26.79 22.0302H26.77V22.0202H26.75V22.0102H26.73H26.72H25.36C25.18 22.0102 25.04 22.1602 25.04 22.3302V29.8902C25.04 30.0702 25.19 30.2102 25.36 30.2102H26.59C26.77 30.2102 26.91 30.0602 26.91 29.8902V25.3602L30.37 30.0402C30.37 30.0402 30.42 30.1002 30.45 30.1202H30.47V30.1302H30.49H30.51H30.54C30.54 30.1302 30.6 30.1402 30.63 30.1402H31.85C32.03 30.1402 32.17 29.9902 32.17 29.8202V22.2802C32.17 22.1002 32.03 21.9502 31.85 21.9502V21.9402Z" fill="#06C755"/>
</g>
<defs>
<clipPath id="clip0_20354_248">
<rect width="54" height="54" fill="white"/>
</clipPath>
</defs>
</svg>
