<?xml version="1.0" encoding="utf-8"?>
<!-- Generator: Adobe Illustrator 27.8.1, SVG Export Plug-In . SVG Version: 6.00 Build 0)  -->
<svg version="1.1" id="圖層_1" xmlns="http://www.w3.org/2000/svg" xmlns:xlink="http://www.w3.org/1999/xlink" x="0px" y="0px"
	 viewBox="0 0 538 138" style="enable-background:new 0 0 538 138;" xml:space="preserve">
<style type="text/css">
	.st0{fill:#009FE8;}
	.st1{fill:#E1F3FC;}
	.st2{fill:#6DCEF5;}
	.st3{fill:#166FDB;}
	.st4{fill:#FFFFFF;}
	.st5{fill:#F89D1C;}
	.st6{fill:#FBB820;}
	.st7{fill:#FFD753;}
	.st8{fill:#F7981D;}
	.st9{display:none;}
	.st10{display:inline;fill:#166FDB;}
	.st11{display:inline;fill:#EF4E3E;}
	.st12{font-family:'GenSenRoundedTW-H';}
	.st13{font-size:25.0946px;}
	.st14{font-size:40px;}
	.st15{fill:#EF4E3E;}
</style>
<g>
	<g>
		<path class="st0" d="M530.1,61.7l1.3-1l1.2,1.6c0.2,0.2,0.4,0.4,0.6,0.5c0.1,0,0.2,0.1,0.3,0.1c0.3,0.1,0.7,0,1-0.2l2.9-2.1
			c0.6-0.4,0.7-1.3,0.3-1.9l-4-5.4c-0.4-0.6-1.3-0.7-1.9-0.3l-2.9,2.1c-0.6,0.4-0.7,1.3-0.3,1.9l1.2,1.7l-1.3,1
			c-3.3-4.1-7.6-7.4-12.8-9.5l0.9-2.6l3.8,1.4c0.7,0.2,1.4-0.1,1.7-0.8l1.6-4.5c0.2-0.7-0.1-1.4-0.8-1.7l-10.2-3.7
			c-0.7-0.2-1.4,0.1-1.7,0.8l-1.6,4.5c-0.2,0.7,0.1,1.4,0.8,1.7l3.9,1.4l-0.9,2.6c-16.3-5.1-33.9,3.5-39.8,19.7
			c-6,16.6,2.7,35,19.3,41c16.6,6,35-2.7,41-19.3C537.4,80.6,535.7,70,530.1,61.7z"/>
		<ellipse class="st1" cx="503.6" cy="79.8" rx="27.6" ry="27.6"/>
		<path class="st2" d="M527.1,75.6L527.1,75.6c-1.5-8.1-7.1-15.2-15.3-18.2l-8.1,22.4L527.1,75.6z"/>
		<g>
			<g>
				<g>
					<path class="st0" d="M511.2,59c-0.3-0.1-0.5-0.5-0.4-0.8l0.7-2c0.1-0.3,0.5-0.5,0.8-0.4c0.3,0.1,0.5,0.5,0.4,0.8l-0.7,2
						C511.9,58.9,511.5,59.1,511.2,59z"/>
				</g>
				<g>
					<path class="st0" d="M495,103.8c-0.3-0.1-0.5-0.5-0.4-0.8l0.7-2c0.1-0.3,0.5-0.5,0.8-0.4s0.5,0.5,0.4,0.8l-0.7,2
						C495.7,103.8,495.3,104,495,103.8z"/>
				</g>
			</g>
			<g>
				<g>
					<path class="st0" d="M499.4,58c-0.2-0.1-0.4-0.3-0.4-0.5l-0.4-2.1c-0.1-0.3,0.2-0.7,0.5-0.7c0.3-0.1,0.7,0.2,0.7,0.5l0.4,2.1
						c0.1,0.3-0.2,0.7-0.5,0.7C499.6,58,499.5,58,499.4,58z"/>
				</g>
				<g>
					<path class="st0" d="M507.8,104.9c-0.2-0.1-0.4-0.3-0.4-0.5l-0.4-2.1c-0.1-0.3,0.2-0.7,0.5-0.7c0.3-0.1,0.7,0.2,0.7,0.5
						l0.4,2.1c0.1,0.3-0.2,0.7-0.5,0.7C508.1,105,507.9,105,507.8,104.9z"/>
				</g>
			</g>
			<g>
				<g>
					<path class="st0" d="M488.7,63c-0.1,0-0.2-0.1-0.3-0.2l-1.4-1.6c-0.2-0.3-0.2-0.7,0.1-0.9c0.3-0.2,0.7-0.2,0.9,0.1l1.4,1.6
						c0.2,0.3,0.2,0.7-0.1,0.9C489.2,63,488.9,63.1,488.7,63z"/>
				</g>
				<g>
					<path class="st0" d="M519.5,99.4c-0.1,0-0.2-0.1-0.3-0.2l-1.4-1.6c-0.2-0.3-0.2-0.7,0.1-0.9c0.3-0.2,0.7-0.2,0.9,0.1l1.4,1.6
						c0.2,0.3,0.2,0.7-0.1,0.9C520,99.5,519.7,99.5,519.5,99.4z"/>
				</g>
			</g>
			<g>
				<g>
					<path class="st0" d="M482,72.7l-2-0.7c-0.3-0.1-0.5-0.5-0.4-0.8s0.5-0.5,0.8-0.4l2,0.7c0.3,0.1,0.5,0.5,0.4,0.8
						C482.7,72.6,482.3,72.8,482,72.7z"/>
				</g>
				<g>
					<path class="st0" d="M526.9,88.9l-2-0.7c-0.3-0.1-0.5-0.5-0.4-0.8s0.5-0.5,0.8-0.4l2,0.7c0.3,0.1,0.5,0.5,0.4,0.8
						C527.6,88.8,527.2,89,526.9,88.9z"/>
				</g>
			</g>
			<g>
				<g>
					<path class="st0" d="M478.9,84.8c-0.2-0.1-0.4-0.3-0.4-0.5c-0.1-0.3,0.2-0.7,0.5-0.7l2.1-0.4c0.3-0.1,0.7,0.2,0.7,0.5
						c0.1,0.3-0.2,0.7-0.5,0.7l-2.1,0.4C479.1,84.8,479,84.8,478.9,84.8z"/>
				</g>
				<g>
					<path class="st0" d="M525.9,76.4c-0.2-0.1-0.4-0.3-0.4-0.5c-0.1-0.3,0.2-0.7,0.5-0.7l2.1-0.4c0.3-0.1,0.7,0.2,0.7,0.5
						c0.1,0.3-0.2,0.7-0.5,0.7l-2.1,0.4C526.1,76.4,526,76.4,525.9,76.4z"/>
				</g>
			</g>
			<g>
				<g>
					<path class="st0" d="M484.4,96.5c-0.1,0-0.2-0.1-0.3-0.2c-0.2-0.3-0.2-0.7,0.1-0.9l1.6-1.4c0.3-0.2,0.7-0.2,0.9,0.1
						c0.2,0.3,0.2,0.7-0.1,0.9l-1.6,1.4C484.8,96.5,484.6,96.6,484.4,96.5z"/>
				</g>
				<g>
					<path class="st0" d="M520.9,65.7c-0.1,0-0.2-0.1-0.3-0.2c-0.2-0.3-0.2-0.7,0.1-0.9l1.6-1.4c0.3-0.2,0.7-0.2,0.9,0.1
						s0.2,0.7-0.1,0.9l-1.6,1.4C521.3,65.7,521.1,65.8,520.9,65.7z"/>
				</g>
			</g>
		</g>
		<path class="st3" d="M519.9,76.8l-13.4,0.8c-0.4-0.6-1-1-1.7-1.3c-1.9-0.7-4,0.3-4.6,2.2c-0.7,1.9,0.3,4,2.2,4.6
			c1.9,0.7,4-0.3,4.6-2.2c0-0.1,0.1-0.2,0.1-0.2L519.9,76.8z"/>
		<path class="st4" d="M503.1,81.2c-0.8-0.3-1.2-1.2-0.9-2c0.3-0.8,1.2-1.2,2-0.9c0.8,0.3,1.2,1.2,0.9,2
			C504.7,81.1,503.8,81.5,503.1,81.2z"/>
	</g>
	<g>
		<ellipse class="st5" cx="26.3" cy="84.1" rx="26.3" ry="26.3"/>
		<circle class="st6" cx="26.3" cy="84.1" r="22.1"/>
		<g>
			<path class="st7" d="M31.9,87.2c-0.5-0.7-1.1-1.1-1.8-1.3c-0.6-0.1-1.5-0.1-2.7,0.2c-1.1,0.3-2.2,0.5-3.2,0.7s-2,0.2-2.9,0.2
				s-1.7-0.3-2.5-0.7c-0.8-0.4-1.5-1.1-2.2-2c-1.1-1.5-1.6-3.1-1.3-4.9c0.3-1.7,1.2-3.3,2.8-4.8L16.9,73c-0.4-0.6-0.3-1.4,0.3-1.9
				l0,0c0.6-0.4,1.4-0.3,1.9,0.3l1.4,1.8c1.8-1,3.6-1.3,5.3-0.9c0.5,0.1,1,0.3,1.5,0.5c1.8,0.9,2,3.4,0.4,4.6l0,0
				c-1,0.7-2.2,0.7-3.2,0c-0.2-0.2-0.5-0.3-0.8-0.4c-0.7-0.2-1.4-0.1-2.1,0.4c-0.6,0.4-0.9,1-0.9,1.6s0.2,1.2,0.7,1.9
				c0.5,0.7,1.1,1,1.7,1.1c0.7,0.1,1.5,0,2.6-0.2c1.1-0.3,2.1-0.5,3.2-0.7c1-0.2,2-0.2,2.9-0.1s1.7,0.3,2.5,0.7
				c0.8,0.4,1.5,1.1,2.2,2c1.1,1.5,1.6,3.1,1.4,4.8c-0.2,1.7-1.1,3.2-2.7,4.6l1.2,1.6c0.4,0.6,0.3,1.4-0.3,1.9l0,0
				c-0.6,0.4-1.4,0.3-1.9-0.3L33,94.7c-2.1,1.3-4.1,1.7-6,1.4c-0.7-0.1-1.5-0.4-2.1-0.8c-1.7-0.9-1.8-3.2-0.3-4.4l0.2-0.2
				c0.9-0.7,2.2-0.7,3.1,0c0.3,0.2,0.7,0.4,1.1,0.5c0.8,0.2,1.7,0,2.5-0.6c0.6-0.5,0.9-1,1-1.6C32.6,88.5,32.4,87.8,31.9,87.2z"/>
		</g>
	</g>
	<g>
		<path class="st8" d="M465.7,138H60.3c-13.3,0-23.2-10.8-22-24.1l0,0c1.2-13.3,12.9-24.1,26.2-24.1h405.4c13.3,0,23.2,10.8,22,24.1
			l0,0C490.7,127.2,479,138,465.7,138z"/>
		<g>
			<path class="st3" d="M478.9,88.6c2.5,0,4.8-1,6.4-2.9c0,0,0-0.1,0.1-0.1c0.2-0.2,0.4-0.4,0.5-0.6c0,0,0-0.1,0.1-0.1
				c0.2-0.2,0.4-0.4,0.5-0.6c0,0,0-0.1,0.1-0.1c0.2-0.2,0.4-0.4,0.5-0.6c0,0,0-0.1,0.1-0.1c0.2-0.2,0.4-0.4,0.5-0.6
				c0,0,0-0.1,0.1-0.1c0.2-0.2,0.4-0.4,0.5-0.6c0,0,0-0.1,0.1-0.1c0.2-0.2,0.4-0.4,0.5-0.6c0,0,0-0.1,0.1-0.1
				c0.2-0.2,0.4-0.4,0.5-0.6c0,0,0-0.1,0.1-0.1c0.2-0.2,0.4-0.4,0.5-0.6c0,0,0-0.1,0.1-0.1c0.2-0.2,0.4-0.4,0.5-0.6
				c0,0,0-0.1,0.1-0.1c0.2-0.2,0.4-0.4,0.5-0.6c0,0,0-0.1,0.1-0.1c0.2-0.2,0.4-0.4,0.5-0.6c0,0,0-0.1,0.1-0.1
				c0.2-0.2,0.4-0.4,0.5-0.6c0,0,0-0.1,0.1-0.1c0.2-0.2,0.4-0.4,0.5-0.6c0,0,0-0.1,0.1-0.1c0.2-0.2,0.4-0.4,0.5-0.6
				c0,0,0-0.1,0.1-0.1c0.2-0.2,0.4-0.4,0.5-0.6c0,0,0-0.1,0.1-0.1c0.2-0.2,0.4-0.4,0.5-0.6c0,0,0-0.1,0.1-0.1
				c0.2-0.2,0.4-0.4,0.5-0.6c0,0,0-0.1,0.1-0.1c0.2-0.2,0.4-0.4,0.5-0.6c0,0,0-0.1,0.1-0.1c0.2-0.2,0.4-0.4,0.5-0.6
				c1.7-1.9,2.4-4.4,2-7l-0.1-0.5c-0.3-2.3-1.4-4.4-3.2-6c-1.4-1.2-3-2-4.7-2.3c0.1-0.1,0.3-0.3,0.4-0.4c1.6-1.9,2.4-4.4,2-7
				l-0.1-0.4c-0.1-0.5-0.2-0.9-0.3-1.4l0,0c0.2-0.2,0.4-0.5,0.6-0.7c0.6-0.6,1-1.3,1.4-2c0.3-0.6,0.6-1.1,0.9-1.7
				c1-1.7,1.4-3.6,1.2-5.4c-0.1-0.6-0.2-1.2-0.4-1.7c0-0.1,0-0.1-0.1-0.2c-0.8-2.3-2.5-4.1-4.7-5.1c-3-1.4-6.1-3.2-9.1-5.4
				c-3.1-2.3-6-5-8.6-7.9c-2.6-3-6-4.6-9.7-4.6h-1.9c-4.1,0-7.5,2-9.7,5.6c-1.3,2.2-3.1,4.5-5.4,6.9c-1.9,2-3.9,3.7-6.1,5.2
				c0.5-1.3,0.7-2.8,0.6-4.2l0,0c-0.2-2.3-1.2-4.3-2.9-5.9c-1.7-1.7-3.9-2.6-6.3-2.6c-0.2-0.3-0.5-0.6-0.8-0.8
				c-1.8-1.6-3.9-2.5-6.3-2.5H424c-2.5,0-4.9,1-6.5,2.9c-0.1,0.1-0.2,0.3-0.4,0.4h-6.5c-0.2-0.3-0.5-0.5-0.7-0.8
				c-1.8-1.7-4-2.7-6.5-2.7h-1.7c-2.6,0-5,1.1-6.6,3.1c-0.1,0.1-0.2,0.3-0.3,0.4c-1.8,0.1-3.5,0.8-4.9,1.9c-0.4-0.7-0.9-1.3-1.5-1.8
				c-1.8-1.7-4-2.5-6.3-2.5h-1.5c-2.5,0-4.8,1-6.5,2.9c-0.6,0.7-1.1,1.4-1.5,2.2c-0.6-0.1-1.3-0.2-1.9-0.2h-1.2
				c-0.3-0.4-0.6-0.7-0.9-1c-1.7-1.7-4-2.7-6.5-2.7h-19.5c-2.5,0-4.8,1-6.5,2.9c-0.5,0.5-0.9,1.1-1.3,1.8l0,0l-1.6-1.9
				c-1.3-1.6-3-2.8-4.9-3.4c-1.2-0.5-2.5-0.7-3.8-0.7c-0.7,0-1.4,0.1-2.1,0.2c-7.8,1.4-18,2.2-30.3,2.5c-2.8,0-5.3,1.4-6.8,3.8
				c-0.8,1.3-1.2,2.7-1.3,4.2c0,0.3-0.4,0.3-0.4,0.1c0-0.3,0-0.5,0.1-0.8c0-0.3,0-0.5,0.1-0.8c0-0.3,0-0.5,0.1-0.8
				c0-0.3,0-0.5,0.1-0.8c0-0.3,0-0.5,0.1-0.8c0-0.3,0-0.5,0.1-0.8c0-0.3,0-0.5,0.1-0.8c0-0.3,0-0.5,0.1-0.8c0-0.3,0-0.5,0.1-0.8
				c0-0.3,0-0.5,0.1-0.8c0-0.3,0-0.5,0.1-0.8c0-0.3,0-0.5,0.1-0.8c0-0.3,0-0.5,0.1-0.8c0-0.3,0-0.5,0.1-0.8c0-0.4,0.1-0.8,0.1-1.2
				v-0.4c0-2.6-1-5-2.8-6.9c-1.9-2-4.4-3.1-7.2-3.1h-24.6c-1.8,0-3.5,0.5-5,1.3c-1.3-0.6-2.7-0.9-4.2-0.9h-19.5c-2.7,0-5.1,1-7.1,3
				c-0.1,0.1-0.3,0.3-0.4,0.4c-1.9-2-4.4-3.1-7.1-3.1h-10.4c-0.3-0.4-0.6-0.8-0.9-1.1c-1.8-2-4.3-3.1-7-3.1H187c-2.7,0-5.1,1-7.1,3
				c-0.6,0.6-1.1,1.3-1.6,2c-0.8-0.2-1.5-0.3-2.3-0.3h-1.4c-0.3-0.5-0.7-1-1.1-1.4c-2.2-1.8-4.8-3-7.5-3h-1.7c-2.6,0-5.1,1-7,2.9
				c-0.5,0.5-1,1.1-1.4,1.7h-1.8c-2.6,0-5.1,1-7,2.9c-1.9,1.8-3,4.2-3.2,6.8v0.5c-0.1,1.7,0.2,3.4,0.8,4.8c0.1,0.3,0.2,0.5,0.3,0.8
				s0.2,0.5,0.3,0.8c0,0,0,0,0,0.1c-0.1,0-0.1,0.1-0.2,0.1c-1.9,1.8-3,4.2-3.2,6.8v0.3c0,0.2,0,0.4,0,0.5c-1.5-1-3.2-1.6-5-1.6h-6.1
				c0-0.1-0.1-0.2-0.2-0.3c-0.1-0.3-0.2-0.5-0.4-0.8c-0.1-0.3-0.2-0.5-0.4-0.8c-0.1-0.3-0.2-0.5-0.4-0.8c-0.1-0.3-0.2-0.5-0.4-0.8
				c-0.1-0.3-0.2-0.5-0.4-0.8c-0.1-0.3-0.2-0.5-0.4-0.8c-0.1-0.3-0.2-0.5-0.4-0.8c-0.1-0.3-0.2-0.5-0.4-0.8
				c-0.1-0.3-0.2-0.5-0.4-0.8c-0.1-0.3-0.2-0.5-0.4-0.8c-0.4-0.9-0.9-1.8-1.5-2.6c-1.7-1.9-4-3-6.6-3h-2.3c-2.4,0-4.7,0.9-6.5,2.6
				c-1.6,1.6-2.6,3.5-2.9,5.7c0,0.1,0,0.1,0,0.2c-0.2,2-0.4,3.8-0.6,5.3h-10c-1.2,0-2.4,0.2-3.5,0.7c-0.1-0.2-0.2-0.4-0.4-0.6
				c-0.1-0.3-0.3-0.5-0.5-0.8c-0.1-0.3-0.3-0.5-0.5-0.8c-0.1-0.3-0.3-0.5-0.5-0.8c-0.1-0.3-0.3-0.5-0.5-0.8
				c-0.1-0.3-0.3-0.5-0.5-0.8c-0.1-0.3-0.3-0.5-0.5-0.8c-0.1-0.3-0.3-0.5-0.5-0.8c-0.3-0.6-0.7-1.2-1.1-1.7c-1.7-2-4-3.1-6.6-3.1
				H50.7c-2.3,0-4.5,0.9-6.3,2.5c-1.7,1.6-2.8,3.6-3.1,5.9L41.1,27c-0.2,1.7,0,3.3,0.6,4.8c-1.5,0.4-2.8,1.1-4,2.2
				c-1.7,1.6-2.8,3.6-3.1,5.9l-0.2,1.4c-0.3,2.5,0.4,5,2,6.9c0.1,0.1,0.2,0.2,0.3,0.3s0.2,0.3,0.3,0.4c0.1,0.1,0.2,0.2,0.3,0.3
				s0.2,0.3,0.3,0.4c0.1,0.1,0.2,0.2,0.3,0.3s0.2,0.3,0.3,0.4c0.1,0.1,0.2,0.2,0.3,0.3s0.2,0.3,0.3,0.4c0.1,0.1,0.2,0.2,0.3,0.3
				s0.2,0.3,0.3,0.4c0.1,0.1,0.2,0.2,0.3,0.3s0.2,0.3,0.3,0.4c0.1,0.1,0.2,0.2,0.3,0.3s0.2,0.3,0.3,0.4c0.1,0.1,0.2,0.2,0.3,0.3
				s0.2,0.3,0.3,0.4c-0.4,0.4-0.9,0.9-1.6,1.4c-0.9,0.7-2,1.3-3.2,1.9c-2.3,1-3.9,2.9-4.7,5.2c-0.2,0.5-0.3,1.1-0.4,1.6
				c-0.3,2,0.2,3.9,1.3,5.6c0.2,0.4,0.5,0.8,0.7,1.1c0.5,0.8,1,1.5,1.7,2.2c0.1,0.1,0.2,0.2,0.4,0.4c0.2,0.2,0.4,0.4,0.6,0.7
				c0.2,0.2,0.4,0.4,0.6,0.7c0.2,0.2,0.4,0.4,0.6,0.7c0.2,0.2,0.4,0.4,0.6,0.7c0.2,0.2,0.4,0.4,0.6,0.7c0.2,0.2,0.4,0.4,0.6,0.7
				c0.2,0.2,0.4,0.4,0.6,0.7c0.2,0.2,0.4,0.4,0.6,0.7c0.2,0.2,0.4,0.4,0.6,0.7c0.2,0.2,0.4,0.4,0.6,0.7c0.2,0.2,0.4,0.4,0.6,0.7
				c0.2,0.2,0.4,0.4,0.6,0.7c0.2,0.2,0.4,0.4,0.6,0.7c0.2,0.2,0.4,0.4,0.6,0.7c0.2,0.2,0.4,0.4,0.6,0.7c0.2,0.2,0.4,0.4,0.6,0.7
				c0.2,0.2,0.4,0.4,0.6,0.7c1,1.3,2.3,2.2,3.8,2.8c1,0.4,2,0.6,3.1,0.6L478.9,88.6z"/>
			<g>
				<path class="st4" d="M73.6,62.4c1.2,0,2.4,0,3.6,0c0.7,0,1.2-0.4,1.5-1.1c0.3-0.7,0.7-2.3,1.1-4.6c0.1-0.7,0.5-1.2,1.1-1.5
					c0.3-0.2,0.6-0.3,0.9-0.3s0.6,0.1,0.8,0.3c0.5,0.2,0.9,0.4,1.5,0.7c0.8,0.3,1.4,0.9,1.8,1.6c0.3,0.6,0.5,1.2,0.4,1.9
					c0,0.1,0,0.3-0.1,0.5c-0.9,3.7-2,6.2-3.3,7.6s-3.3,2.1-5.9,2.1c-1.9,0-3.8,0-5.7,0c-3.3,0-5.4-0.7-6.4-2.1s-1.3-3.9-0.8-7.5
					c0.6-4.8,1.2-9.7,1.8-14.5c0-0.2-0.1-0.4-0.3-0.4c-2,0-4,0-6,0c-0.3,0-0.4,0.1-0.5,0.4c-0.4,2.2-0.9,4.2-1.4,5.8s-1.2,3.4-2,5.2
					c-0.9,1.8-1.8,3.4-2.9,4.8c-1.1,1.4-2.5,2.8-4.2,4.1C46.9,66.8,45,68,42.8,69c-0.4,0.2-0.9,0.3-1.3,0.3c-0.3,0-0.7-0.1-1-0.2
					c-0.8-0.3-1.3-0.8-1.8-1.5c-0.3-0.5-0.6-1-0.9-1.5c-0.3-0.4-0.4-0.9-0.3-1.4c0-0.1,0.1-0.3,0.1-0.5c0.2-0.7,0.7-1.2,1.4-1.6
					c1.7-0.8,3.2-1.6,4.4-2.7c1.3-1,2.3-2,3.1-3s1.5-2.2,2.1-3.6c0.6-1.4,1.1-2.6,1.4-3.8c0.3-1.2,0.7-2.6,1-4.2
					c0-0.2-0.1-0.4-0.3-0.4c-2.6,0-5.1,0-7.7,0c-0.8,0-1.5-0.3-2-0.9c-0.5-0.6-0.7-1.3-0.6-2.2c0.1-0.5,0.1-0.9,0.2-1.4
					c0.1-0.8,0.5-1.6,1.2-2.2c0.7-0.6,1.4-0.9,2.2-0.9c13.6,0,27.3,0,40.9,0c0.8,0,1.5,0.3,2,0.9c0.5,0.6,0.7,1.3,0.7,2.2
					c-0.1,0.5-0.1,0.9-0.2,1.4c-0.1,0.8-0.5,1.6-1.1,2.2c-0.7,0.6-1.4,0.9-2.2,0.9c-3.3,0-6.6,0-9.9,0c-0.2,0-0.4,0.1-0.4,0.4
					c-0.6,4.8-1.1,9.6-1.7,14.5c-0.1,1-0.1,1.7,0.1,2C72.3,62.3,72.8,62.4,73.6,62.4z M81.6,23.4c0.8,0,1.5,0.3,2,0.9
					s0.7,1.3,0.6,2.2c0,0.4-0.1,0.9-0.1,1.3C84,28.7,83.6,29.4,83,30c-0.7,0.6-1.4,0.9-2.2,0.9c-10.3,0-20.7,0-31,0
					c-0.8,0-1.5-0.3-2-0.9s-0.7-1.3-0.6-2.2c0.1-0.4,0.1-0.9,0.2-1.3c0.1-0.8,0.5-1.6,1.2-2.2s1.4-0.9,2.2-0.9
					C61,23.4,71.3,23.4,81.6,23.4z"/>
				<path class="st4" d="M139.3,38.6c-0.1,0.8-0.4,1.6-1.1,2.2c-0.6,0.6-1.4,0.9-2.2,0.9c-4.7,0-9.5,0-14.2,0c-0.1,0-0.2,0-0.2,0.1
					c-0.1,0.1-0.1,0.2,0,0.3c2.5,9.3,7.4,15.8,14.5,19.6c0.6,0.3,1,0.8,1.1,1.6c0,0.1,0,0.3,0,0.5c0,0.5-0.2,1-0.6,1.4
					c-0.7,0.8-1.5,1.6-2.2,2.6c-0.5,0.7-1.2,1.2-2.1,1.5c-0.3,0.1-0.6,0.2-0.9,0.2c-0.5,0-1-0.1-1.5-0.4c-3.2-1.9-5.9-4.2-8.1-6.9
					c-2.7-3.4-4.8-7.4-6.5-12.1c0-0.1-0.1-0.1-0.1-0.1c-0.1,0-0.1,0-0.2,0.1c-3.7,8.2-9.7,14.5-17.9,19c-0.5,0.3-1,0.4-1.5,0.4
					c-0.3,0-0.6,0-0.9-0.1c-0.8-0.2-1.4-0.7-1.9-1.4c-0.5-0.7-1-1.4-1.5-2c-0.4-0.5-0.6-1-0.5-1.5c0-0.1,0-0.2,0.1-0.3
					c0.1-0.7,0.5-1.2,1.2-1.6c4.3-2.2,7.8-4.8,10.4-7.9c3.1-3.6,5.5-7.7,7.1-12.4c0-0.1,0-0.2,0-0.3c-0.1-0.1-0.1-0.1-0.2-0.1
					c-4.6,0-9.2,0-13.8,0c-0.8,0-1.5-0.3-2-0.9c-0.5-0.6-0.7-1.3-0.7-2.2c0.1-0.6,0.1-1.2,0.2-1.9c0.1-0.8,0.5-1.6,1.1-2.2
					c0.7-0.6,1.4-0.9,2.2-0.9c5,0,10,0,15,0c0.3,0,0.4-0.1,0.5-0.4c0.3-1.9,0.7-5.3,1.2-10.4c0.1-0.8,0.5-1.6,1.1-2.2
					s1.4-0.9,2.2-0.9c0.8,0,1.5,0,2.3,0s1.5,0.3,2,0.9s0.7,1.3,0.7,2.1c-0.3,3.4-0.7,6.9-1.3,10.5c-0.1,0.2,0,0.4,0.3,0.4
					c5.5,0,11,0,16.5,0c0.8,0,1.5,0.3,2,0.9c0.5,0.6,0.8,1.3,0.7,2.2C139.4,37.3,139.4,38,139.3,38.6z"/>
				<path class="st7" d="M176.1,19.1c0.2,0,0.2,0.2,0.1,0.3c-0.3,0.6-0.7,1.4-1.2,2.4c-0.4,1-0.8,1.8-1,2.3c-0.1,0.1,0,0.2,0,0.3
					c0.1,0.1,0.1,0.1,0.2,0.1c0.5,0,1,0,1.4,0c1,0,1.9,0.4,2.6,1.2c0.7,0.8,1.1,1.7,1,2.8c0,0.1,0,0.2,0,0.3c-0.1,1.1-0.5,2-1.3,2.8
					s-1.7,1.2-2.8,1.2c-7.9,0-15.8,0-23.7,0c-1,0-1.9-0.4-2.6-1.2c-0.7-0.8-1-1.7-0.9-2.8c0-0.1,0-0.2,0-0.3c0.1-1.1,0.5-2,1.3-2.8
					s1.7-1.2,2.8-1.2c0.4,0,0.8,0,1.2,0c0.3,0,0.5-0.2,0.4-0.5c-0.2-1.2-0.4-2.6-0.8-4.1c0-0.2,0-0.4,0.1-0.6s0.3-0.3,0.5-0.4
					c-0.1,0-0.2,0-0.3,0c-1,0-1.9-0.4-2.6-1.1c-0.7-0.7-1-1.7-0.9-2.7c0-0.2,0-0.3,0-0.5c0.1-1.1,0.5-2,1.3-2.8s1.7-1.2,2.8-1.2
					c1.9,0,3.8,0,5.7,0c0.3,0,0.5-0.2,0.6-0.5V10c0.1-1.1,0.5-2,1.3-2.8S163,6,164.1,6c0.6,0,1.2,0,1.7,0c1,0,1.9,0.4,2.6,1.2
					c0.7,0.8,1,1.7,1,2.8v0.1c0,0.4,0.1,0.5,0.4,0.5c1.9,0,3.7,0,5.6,0c1,0,1.9,0.4,2.6,1.2c0.7,0.8,1,1.7,1,2.8
					c0,0.5-0.1,1.1-0.1,1.6c0,0.8-0.3,1.4-0.8,1.9s-1.2,0.8-1.9,0.8C176.2,19.1,176.2,19.1,176.1,19.1z M173.1,35.2
					c1,0,1.9,0.4,2.7,1.2c0.7,0.8,1.1,1.7,1,2.8c-0.4,7.8-0.8,15.5-1.3,23.3c-0.1,2.1-0.4,3.7-1,4.9c-0.5,1.2-1.4,2.2-2.7,2.9
					c-1.2,0.7-3.1,1.2-5.5,1.4c-0.1,0-0.3,0-0.4,0c-1,0-1.8-0.3-2.6-0.9c-0.9-0.7-1.5-1.6-1.8-2.8c-0.1-0.4-0.2-0.7-0.3-1.2
					c-0.1-0.6-0.1-1.1,0-1.7c0.2-0.5,0.5-1,1-1.3c0.5-0.4,1-0.5,1.6-0.5c0.3,0,0.6-0.1,0.8-0.1c0.7,0,1.1-0.3,1.1-0.9
					c0.1-0.9,0.1-1.8,0.2-2.6c0-0.4-0.1-0.5-0.4-0.5c-2.4,0-4.7,0-7.1,0c-0.4,0-0.5,0.2-0.6,0.5c-0.2,2.7-0.4,5.5-0.5,8.2
					c-0.1,1.1-0.5,2-1.4,2.8c-0.8,0.8-1.8,1.2-2.9,1.2c-0.4,0-0.9,0-1.3,0c-1.1,0-2-0.4-2.7-1.2c-0.7-0.8-1.1-1.7-1-2.8
					c0.7-9.5,1.3-19.1,2-28.6c0.1-1.1,0.5-2,1.3-2.8s1.8-1.2,2.8-1.2C160.5,35.2,166.8,35.2,173.1,35.2z M166.9,42.6
					c0-0.3-0.1-0.5-0.4-0.5c-2.3,0-4.7,0-7,0c-0.4,0-0.5,0.2-0.6,0.5c0,0.5-0.1,0.9-0.1,1.4c0,0.3,0.1,0.5,0.5,0.5c2.3,0,4.7,0,7,0
					c0.3,0,0.5-0.2,0.5-0.5C166.9,43.5,166.9,43.1,166.9,42.6z M158.3,52.4c0,0.4,0.1,0.5,0.5,0.5c2.3,0,4.7,0,7,0
					c0.3,0,0.5-0.2,0.5-0.5c0-0.4,0-0.8,0.1-1.2c0-0.3-0.1-0.5-0.4-0.5c-2.3,0-4.7,0-7,0c-0.4,0-0.5,0.2-0.6,0.5
					C158.4,51.5,158.4,51.9,158.3,52.4z M167.4,19.6c0-0.1,0-0.2,0-0.3c-0.1-0.1-0.2-0.2-0.2-0.2c-1.9,0-3.9,0-5.8,0
					c-0.1,0-0.2,0.1-0.3,0.2s-0.1,0.2-0.1,0.3c0.5,2.2,0.8,3.7,0.9,4.7c0,0.2,0,0.3-0.2,0.3c1.6,0,3.1,0,4.7,0
					c-0.3-0.1-0.5-0.3-0.3-0.7C166.6,22,167.1,20.5,167.4,19.6z M203,55.3c1.1,0,2,0.4,2.7,1.2s1.1,1.7,1.1,2.8c0,0.3,0,0.5,0,0.8
					s0.1,0.5,0.4,0.6c1,0.4,1.8,1,2.3,1.8c0.3,0.6,0.5,1.2,0.5,1.8c0,0.3-0.1,0.7-0.2,1c-0.6,1.8-1.4,3.2-2.4,4.1
					c-1.6,1.4-4.1,2.1-7.5,2.1c-3.1,0-6.2,0-9.3,0c-4.3,0-7.2-0.8-8.7-2.3s-2.1-4.4-1.9-8.7c0.4-8.5,0.9-17,1.3-25.4
					c0.1-1.1,0.5-2,1.3-2.8c0.8-0.8,1.7-1.2,2.8-1.2c4.1,0,8.2,0,12.2,0c0.3,0,0.5-0.2,0.5-0.5c0-0.5,0-1,0.1-1.5
					c0-0.4-0.1-0.5-0.4-0.5c-4.1,0-8.1,0-12.2,0c-1,0-1.9-0.4-2.7-1.2c-0.7-0.8-1.1-1.7-1-2.8c0.2-4.8,0.5-9.6,0.7-14.4
					c0.1-1.1,0.5-2,1.3-2.8s1.7-1.2,2.7-1.2c0.6,0,1.3,0,1.9,0c1,0,1.8,0.4,2.5,1.1s1,1.6,0.9,2.7c0,0.3,0.1,0.5,0.4,0.5
					c4.8,0,9.6,0,14.4,0c1,0,1.9,0.4,2.6,1.2c0.7,0.8,1.1,1.7,1,2.8c0,0,0,0,0,0.1c0,1.1-0.4,2-1.2,2.8c-0.8,0.8-1.7,1.2-2.7,1.2
					c-4.8,0-9.7,0-14.5,0c-0.3,0-0.5,0.2-0.5,0.5c0,0.6-0.1,1.2-0.1,1.8c0,0.4,0.1,0.5,0.4,0.5c4,0,8,0,12,0c1,0,1.9,0.4,2.7,1.2
					c0.7,0.8,1.1,1.7,1,2.8c-0.1,3.1-0.2,6.1-0.3,9.2c0,1.1-0.5,2-1.3,2.8s-1.7,1.2-2.8,1.2c-4,0-8.1,0-12.1,0
					c-0.3,0-0.5,0.2-0.5,0.5c0,0.2,0,0.5,0,0.7c0,0.4,0.1,0.5,0.4,0.5c4.5,0,9,0,13.4,0c0.7,0,1.4,0.3,1.9,0.8s0.7,1.2,0.7,2
					s-0.3,1.5-0.9,2c-0.5,0.5-1.2,0.8-1.9,0.8c-4.5,0-9,0-13.5,0c-0.3,0-0.5,0.2-0.5,0.5c0,0.4,0,0.7,0,1.1c0,0.3,0.1,0.5,0.4,0.5
					c4.4,0,8.7,0,13.1,0c0.8,0,1.4,0.3,2,0.8c0.5,0.5,0.8,1.2,0.7,2c0,0.8-0.3,1.5-0.9,2c-0.6,0.5-1.2,0.8-2,0.8
					c-4.4,0-8.8,0-13.1,0c-0.3,0-0.5,0.2-0.5,0.5s0,0.5,0,0.8s0.1,0.5,0.4,0.5C194.5,55.3,198.7,55.3,203,55.3z M192.4,63.5
					c2.3,0,4.5,0,6.8,0c0.8,0,1.4-0.2,1.8-0.5c0.3-0.3,0.6-0.9,0.9-1.6c0-0.1,0-0.2-0.1-0.3s-0.2-0.1-0.3-0.1c-3.8,0-7.6,0-11.5,0
					c-0.3,0-0.5,0.2-0.5,0.5c0,0.9,0.2,1.5,0.5,1.7C190.4,63.4,191.2,63.5,192.4,63.5z"/>
				<path class="st7" d="M240.5,55.8c0.3,0,0.5-0.1,0.8-0.1c0.7,0,1.4,0.2,2.1,0.7c0.8,0.6,1.3,1.5,1.4,2.6c0,0.2,0,0.4,0.1,0.5
					c0,0.2,0,0.4,0,0.5c0,0.9-0.3,1.8-0.8,2.6c-0.7,0.9-1.6,1.6-2.6,1.8c-6.1,1.5-13,3.1-20.7,4.9c-0.3,0.1-0.6,0.1-0.9,0.1
					c-0.7,0-1.4-0.2-2.1-0.6c-0.9-0.6-1.5-1.4-1.7-2.5c-0.1-0.5-0.2-1-0.3-1.6c-0.1-0.3-0.1-0.6-0.1-0.9c0-0.7,0.2-1.4,0.7-2
					c0.6-0.9,1.4-1.4,2.5-1.6c3.6-0.7,7.6-1.5,12-2.4c-0.2-0.1-0.3-0.3-0.3-0.5c0.7-3,1.3-6.2,1.8-9.8c0.2-1.1,0.7-1.9,1.5-2.6
					c0.6-0.5,1.3-0.7,2.1-0.7c0.2,0,0.5,0,0.7,0.1c0.6,0.1,1.2,0.2,1.8,0.3c1.1,0.2,1.8,0.8,2.3,1.7c0.3,0.6,0.5,1.2,0.5,1.9
					c0,0.3-0.1,0.7-0.1,1c-1.1,3.6-1.7,5.7-2,6.4c0,0.1,0,0.2,0.1,0.3s0.2,0.1,0.3,0.1C239.8,56,240.1,55.9,240.5,55.8z M240.8,10
					c1,0,1.9,0.4,2.7,1.2c0.7,0.8,1.1,1.7,1.1,2.8c0,0.4,0,0.9,0,1.3c0,1.1-0.4,2-1.2,2.8c-0.8,0.8-1.7,1.2-2.7,1.2
					c-6.5,0-13.1,0-19.6,0c-1,0-1.9-0.4-2.7-1.2c-0.7-0.8-1.1-1.7-1.1-2.8c0-0.4,0-0.9,0-1.3c0-1.1,0.4-2,1.2-2.8s1.7-1.2,2.7-1.2
					C227.8,10,234.3,10,240.8,10z M239.2,23.2c1.1,0,2,0.4,2.7,1.2c0.7,0.8,1.1,1.7,1.1,2.8c-0.1,4-0.1,8-0.2,12
					c0,1.1-0.4,2-1.2,2.8s-1.7,1.2-2.8,1.2c-5.5,0-11.1,0-16.6,0c-1.1,0-2-0.4-2.7-1.2s-1.1-1.7-1-2.8c0.1-4,0.2-8,0.3-12
					c0-1.1,0.4-2,1.2-2.8s1.7-1.2,2.8-1.2C228.2,23.2,233.7,23.2,239.2,23.2z M228.3,52.1c0,0.3,0.1,0.5,0,0.7
					c0,0.9-0.3,1.6-0.8,2.4c-0.7,0.9-1.6,1.6-2.7,1.8c-0.2,0.1-0.4,0.1-0.7,0.2c-0.3,0.1-0.6,0.1-0.9,0.1c-0.7,0-1.3-0.2-1.8-0.6
					c-0.8-0.6-1.3-1.5-1.4-2.5c-0.1-1.4-0.3-2.8-0.6-4.2c0-0.3,0-0.6,0-0.9c0-0.7,0.2-1.4,0.7-2.1c0.6-0.9,1.3-1.5,2.4-1.8
					c0.1,0,0.1,0,0.2-0.1c0.4-0.1,0.8-0.1,1.1-0.1c0.7,0,1.3,0.2,2,0.5c1,0.5,1.6,1.4,1.8,2.4C227.9,49.3,228.1,50.7,228.3,52.1z
					 M233.7,35.4c0.3,0,0.5-0.2,0.5-0.5c0-1.2,0-2.3,0.1-3.5c0-0.3-0.1-0.5-0.4-0.5c-2.2,0-4.4,0-6.5,0c-0.3,0-0.5,0.2-0.5,0.5
					c0,1.2-0.1,2.3-0.1,3.5c0,0.3,0.1,0.5,0.4,0.5C229.4,35.4,231.5,35.4,233.7,35.4z M277.5,54.8c0,1.1-0.4,2.1-1.1,2.8
					c-0.8,0.8-1.7,1.2-2.8,1.2c-6.4,0-12.8,0-19.2,0c-0.1,0-0.1,0-0.2,0.1c0,0.1,0,0.2,0.1,0.2c1.2,0.8,2.4,1.6,3.6,2.4
					c0.9,0.6,1.3,1.5,1.3,2.6c0,0.9-0.4,1.6-1.1,2.2c-2.7,2-5.6,3.7-8.7,5.3c-0.8,0.3-1.5,0.5-2.2,0.5c-0.4,0-0.8,0-1.1-0.1
					c-1.2-0.2-2.2-0.8-3-1.7c-0.3-0.3-0.6-0.5-0.9-0.8c-0.5-0.5-0.7-1.1-0.7-1.8c0-0.2,0-0.3,0-0.5c0.2-0.9,0.7-1.6,1.5-2
					c3.7-1.8,6.9-3.8,9.5-6.1c0.1,0,0.1-0.1,0.1-0.2c0-0.1-0.1-0.1-0.1-0.1c-0.6,0-1.2,0-1.7,0c-1.1,0-2-0.4-2.8-1.2
					c-0.7-0.8-1.1-1.7-1.1-2.8c0.1-9.7,0.2-19.4,0.3-29.2c0-1.1,0.4-2,1.1-2.8c0.7-0.8,1.7-1.2,2.7-1.2c1.3,0,2.7,0,4,0
					c0.3,0,0.5-0.2,0.6-0.5c0.2-1.4,0.3-2.3,0.3-2.6c0-0.4-0.1-0.5-0.4-0.5c-1.9,0-3.9,0-5.8,0c-1,0-1.9-0.4-2.7-1.2
					c-0.7-0.8-1.1-1.7-1.1-2.8c0-0.1,0-0.3,0-0.4c0-1.1,0.4-2,1.2-2.8s1.7-1.2,2.7-1.2c8.2,0,16.4,0,24.6,0c1.1,0,2,0.4,2.7,1.2
					s1.1,1.7,1.1,2.8c0,0.1,0,0.3,0,0.4c0,1.1-0.4,2.1-1.1,2.8c-0.7,0.8-1.6,1.2-2.7,1.2c-2.5,0-4.9,0-7.4,0c-0.3,0-0.5,0.2-0.6,0.5
					c-0.2,0.7-0.5,1.5-0.8,2.6c0,0.1,0,0.2,0,0.3c0.1,0.1,0.2,0.1,0.3,0.1c2.5,0,4.9,0,7.4,0c1,0,1.9,0.4,2.7,1.2
					c0.8,0.8,1.2,1.7,1.2,2.8C277.4,35.3,277.4,45.1,277.5,54.8z M267.5,32c0.3,0,0.5-0.2,0.5-0.5c0-0.7,0-1.4,0-2.2
					c0-0.3-0.2-0.5-0.5-0.5c-3.6,0-7.3,0-10.9,0c-0.3,0-0.5,0.2-0.5,0.5c0,0.7,0,1.4,0,2.2c0,0.3,0.2,0.5,0.5,0.5
					C260.2,32,263.9,32,267.5,32z M267.5,41.7c0.3,0,0.5-0.2,0.5-0.5c0-0.7,0-1.4,0-2.1c0-0.4-0.2-0.5-0.5-0.5c-3.7,0-7.3,0-11,0
					c-0.4,0-0.5,0.2-0.5,0.5c0,0.7,0,1.4,0,2.1c0,0.3,0.2,0.5,0.5,0.5C260.2,41.7,263.9,41.7,267.5,41.7z M267.5,51.6
					c0.3,0,0.5-0.2,0.5-0.5c0-0.7,0-1.4,0-2.1c0-0.3-0.2-0.5-0.5-0.5c-3.7,0-7.4,0-11,0c-0.4,0-0.5,0.2-0.5,0.5c0,0.7,0,1.4,0,2.1
					c0,0.4,0.2,0.5,0.5,0.5C260.2,51.6,263.8,51.6,267.5,51.6z M265.5,66.2c-0.7-0.5-1.1-1.3-1.1-2.2c0-1,0.4-1.8,1.2-2.3
					c0.3-0.2,0.5-0.3,0.8-0.5c1-0.6,2-0.9,3.2-0.9h0.1c1.2,0,2.3,0.4,3.3,1.1c2,1.4,3.7,2.7,5.2,3.9c0.7,0.5,1.1,1.3,1.1,2.2
					c0,1.1-0.4,2-1.3,2.6c-0.5,0.3-0.9,0.6-1.4,0.9c-0.8,0.5-1.7,0.8-2.6,0.8c-0.2,0-0.4,0-0.5-0.1c-1.1-0.1-2.1-0.5-3-1.3
					C269,69.1,267.4,67.7,265.5,66.2z"/>
				<path class="st4" d="M335.4,51.4c0.4,0.5,0.7,1.1,0.7,1.7c0,0.1,0,0.3,0,0.5c-0.1,0.8-0.5,1.4-1.2,1.9c-0.6,0.4-1.2,0.8-1.7,1.2
					c-0.5,0.3-1.1,0.5-1.7,0.5c-0.2,0-0.4,0-0.6-0.1c-0.8-0.1-1.5-0.6-2-1.2c-0.1-0.2-0.3-0.4-0.5-0.6c-0.2-0.2-0.4-0.3-0.6-0.3
					c-2.4,0.1-6.1,0.3-11.3,0.5c-0.2,0-0.4,0.1-0.3,0.4c0.1,4.2,0.3,8.4,0.4,12.6c0,0.9-0.3,1.6-0.8,2.2c-0.6,0.6-1.3,0.9-2.1,0.9
					c-0.7,0-1.4,0-2.2,0c-0.8,0-1.5-0.3-2.2-0.9c-0.6-0.6-0.9-1.3-1-2.2c-0.1-4.1-0.2-8.2-0.3-12.3c0-0.3-0.1-0.4-0.4-0.4
					c-5,0.2-10.2,0.4-15.7,0.6h-0.1c-0.8,0-1.5-0.3-2.1-0.8c-0.7-0.6-1-1.3-1.1-2.1c-0.1-0.5-0.1-1.1-0.2-1.6c0-0.1-0.1-0.2-0.1-0.3
					c0-0.7,0.2-1.3,0.7-1.9c0.5-0.6,1.2-0.9,2-0.9c2.9,0,5.3-0.1,7.3-0.2c0.3,0,0.5-0.1,0.7-0.2c0.6-0.4,1.4-1,2.4-1.8
					c0.2-0.1,0.2-0.3,0-0.5c-2-1.8-4.4-3.7-7.2-5.6c-0.7-0.5-1.1-1.2-1.1-2.1c0-0.7,0.2-1.2,0.7-1.7s1-1,1.5-1.5
					c0.4-0.4,1-0.7,1.6-0.7c0.1,0,0.2,0,0.3,0c0.5,0,1,0.1,1.4,0.4c0.1,0.1,0.3,0.1,0.4-0.1c1-1,1.9-2.1,2.8-3.2c0-0.1,0-0.1,0-0.2
					s-0.1-0.1-0.2-0.1c-2.8,0.1-5.4,0.2-7.6,0.3c0,0,0,0-0.1,0c-0.8,0-1.6-0.3-2.2-0.8c-0.7-0.6-1.1-1.3-1.3-2.2
					c-0.1-0.3-0.2-0.6-0.3-1c-0.1-0.2-0.1-0.5-0.1-0.7c0-0.5,0.1-0.9,0.4-1.3c0.4-0.6,1-0.9,1.7-0.9c12.7-0.3,23.2-1.2,31.3-2.7
					c0.3-0.1,0.6-0.1,0.9-0.1c0.6,0,1.2,0.1,1.8,0.3c0.9,0.3,1.6,0.8,2.2,1.6c0.5,0.6,1,1.2,1.5,1.8c0.3,0.3,0.4,0.7,0.4,1.1
					c0,0.2,0,0.4-0.1,0.7c-0.2,0.6-0.6,1-1.3,1.1c-4.8,0.9-10.1,1.6-16.1,2.1c-0.2,0-0.4,0.1-0.6,0.3c-2.3,2.7-4.7,5.4-7.4,7.9
					c-0.2,0.2-0.1,0.3,0.1,0.5c0.7,0.5,1.5,1.1,2.3,1.8c0.2,0.2,0.4,0.2,0.6,0c3.1-2.8,5.8-5.5,8.2-8.2c0.6-0.7,1.3-1.1,2.1-1.2
					c0.2,0,0.5-0.1,0.7-0.1c0.6,0,1.1,0.2,1.7,0.5c0.7,0.4,1.4,0.8,2.1,1.1s1.1,0.9,1.2,1.7c0,0.1,0,0.2,0,0.4
					c0,0.6-0.2,1.1-0.6,1.6c-3.9,3.9-8.1,7.6-12.7,11.2c0,0,0,0.1,0,0.2c0,0.1,0.1,0.1,0.1,0.1c3.4-0.1,6.8-0.2,10.3-0.3
					c0.1,0,0.1,0,0.1-0.1s0-0.1-0.1-0.2c-0.1-0.1-0.2-0.2-0.3-0.3c-0.5-0.5-0.7-1.1-0.8-1.7c0-0.1,0-0.2,0-0.3c0-0.8,0.4-1.4,1-1.8
					c0.4-0.3,0.8-0.5,1.1-0.8c0.7-0.4,1.4-0.6,2.1-0.6c0.1,0,0.2,0,0.4,0c0.9,0.1,1.7,0.4,2.3,1C330.6,46.4,333.3,49.1,335.4,51.4z
					 M296.2,59.4c0.7-0.7,1.4-1.1,2.3-1.3c0.4-0.1,0.7-0.2,1.1-0.2c0.5,0,1,0.1,1.5,0.3c0.8,0.3,1.5,0.6,2.3,0.9
					c0.7,0.3,1.1,0.8,1.3,1.5c0.1,0.2,0.1,0.3,0.1,0.5c0,0.5-0.2,1-0.5,1.4c-2.3,2.5-4.9,4.8-7.8,7c-0.6,0.5-1.4,0.7-2.2,0.7
					c-0.1,0-0.2,0-0.3,0c-0.9-0.1-1.7-0.4-2.4-1c-0.7-0.6-1.4-1.1-2.2-1.6c-0.5-0.4-0.8-0.9-0.8-1.5c0-0.7,0.3-1.3,0.9-1.7
					C292.2,62.9,294.3,61.2,296.2,59.4z M320.5,63c-0.6-0.4-0.9-1-0.9-1.7c0-0.8,0.2-1.3,0.8-1.7c0.5-0.3,1-0.7,1.5-1
					c0.7-0.6,1.6-0.8,2.5-0.8h0.1c0.9,0,1.7,0.2,2.5,0.7c3,1.9,5.6,3.8,7.6,5.5c0.6,0.5,0.9,1.1,0.9,1.8c0,0.9-0.3,1.6-1,2.1
					s-1.3,1-2,1.5c-0.6,0.4-1.2,0.6-1.9,0.6c-0.1,0-0.3,0-0.4,0c-0.8-0.1-1.6-0.5-2.3-1C325.9,67,323.4,65.1,320.5,63z"/>
				<path class="st4" d="M342.9,30.4c-0.8,0-1.5-0.3-2.1-0.9s-0.9-1.3-1-2.2c0-0.3,0-0.7,0-1c0-0.8,0.2-1.6,0.8-2.2
					c0.6-0.6,1.2-0.9,2-0.9c6.5,0,13,0,19.5,0c0.8,0,1.6,0.3,2.2,0.9s0.9,1.3,1,2.2c0,0.3,0,0.7,0.1,1c0.1,0.8-0.2,1.6-0.7,2.2
					s-1.2,0.9-2.1,0.9c-2.4,0-4.8,0-7.1,0c-0.3,0-0.4,0.1-0.5,0.4c-0.2,1-0.5,2.3-1,4.1c0,0.1,0,0.1,0,0.2c0.1,0.1,0.1,0.1,0.2,0.1
					c1.3,0,2.7,0,4,0c2.1,0,3.7,0.2,4.8,0.6c0.7,0.2,1.3,0.6,1.7,1.2c0.3,0.5,0.5,1,0.5,1.5c0,0.2,0,0.3,0,0.5
					c-1.5,14.6-6.2,25-14.1,31.1c-0.6,0.4-1.2,0.6-1.8,0.6c-0.2,0-0.4,0-0.6-0.1c-0.8-0.1-1.6-0.5-2.2-1.1c-0.5-0.5-1-1-1.5-1.4
					c-0.5-0.5-0.7-1-0.8-1.7c0-0.8,0.2-1.4,0.8-1.8c3-2.2,5.6-4.9,7.6-8.2c0.1-0.2,0.1-0.4-0.1-0.6c-1.3-1-3.2-2.4-5.6-4.1
					c-0.2-0.2-0.4-0.2-0.6,0.1c-0.1,0.2-0.2,0.3-0.3,0.5c-0.5,0.6-1.1,0.9-1.9,0.9H344c-0.8,0-1.5-0.3-2.1-0.8
					c-0.4-0.3-0.7-0.6-1-0.9c-0.7-0.6-1-1.3-1.1-2.2c0-0.7,0.2-1.4,0.6-1.9c3.1-4.2,5.3-9.7,6.8-16.7c0-0.1,0-0.2-0.1-0.3
					c-0.1-0.1-0.1-0.1-0.2-0.1C345.6,30.4,344.2,30.4,342.9,30.4z M357.5,42.6c0-0.2-0.1-0.4-0.3-0.4c-1.8,0-3.5,0-5.3,0
					c-0.3,0-0.4,0.1-0.5,0.4c-0.3,0.7-0.7,1.6-1.2,2.8c-0.1,0.2,0,0.4,0.2,0.5c2.1,1.3,3.9,2.4,5.2,3.3c0.2,0.1,0.4,0.1,0.4-0.2
					C356.6,47.1,357.1,45,357.5,42.6z M370.7,26.9c0.8,0,1.6,0.3,2.2,0.9s0.9,1.3,1,2.2c0.5,7.8,1,15.6,1.5,23.4
					c0.1,0.9-0.2,1.6-0.7,2.2c-0.5,0.6-1.2,0.9-2.1,0.9c-0.5,0-1,0-1.4,0c-0.9,0-1.6-0.3-2.2-0.9c-0.6-0.6-0.9-1.3-1-2.2
					c-0.5-7.8-1-15.6-1.4-23.4c-0.1-0.8,0.2-1.6,0.7-2.2s1.2-0.9,2.1-0.9C369.8,26.9,370.2,26.9,370.7,26.9z M377.9,25.1
					c-0.1-0.9,0.2-1.6,0.7-2.2s1.2-0.9,2-0.9c0.5,0,1,0,1.5,0c0.8,0,1.5,0.3,2.1,0.9s1,1.3,1,2.2c0.9,12.5,1.8,25.1,2.7,37.6
					c0.2,2.1,0,3.7-0.3,4.8c-0.4,1.1-1.1,2-2.3,2.6c-1.6,0.8-4.1,1.3-7.6,1.4h-0.1c-0.8,0-1.6-0.3-2.3-0.8c-0.7-0.6-1.2-1.3-1.5-2.1
					c-0.2-0.7-0.5-1.3-0.7-2c-0.1-0.2-0.2-0.5-0.2-0.7c0-0.4,0.1-0.8,0.3-1.1c0.4-0.6,0.9-0.9,1.5-0.9c0,0,0,0,0.1,0
					c1.3,0,2.7,0.1,4.3,0.1c0.5,0,0.9-0.1,1.1-0.3s0.3-0.5,0.2-1C379.6,50.1,378.8,37.6,377.9,25.1z"/>
				<path class="st4" d="M429.7,58.6c0.1,0.8-0.1,1.6-0.7,2.2c-0.5,0.6-1.2,0.9-2,0.9c-1.8,0-3.6,0-5.4,0c-0.2,0-0.3,0.1-0.3,0.4
					c0,0.5,0.1,0.9,0.1,1.4c0,0.3,0.2,0.4,0.4,0.4c4.5,0,8.9,0,13.4,0c0.9,0,1.6,0.3,2.2,0.9s1,1.3,1.1,2.2c0,0.1,0,0.1,0,0.2
					c0.1,0.8-0.1,1.6-0.7,2.2c-0.5,0.6-1.2,0.9-2.1,0.9c-11.5,0-23,0-34.5,0c-0.9,0-1.6-0.3-2.2-0.9s-1-1.3-1-2.2c0-0.1,0-0.1,0-0.2
					c-0.1-0.9,0.2-1.6,0.7-2.2s1.2-0.9,2.1-0.9c4.2,0,8.4,0,12.5,0c0.2,0,0.3-0.1,0.3-0.4c0-0.5-0.1-0.9-0.1-1.4
					c0-0.2-0.2-0.4-0.4-0.4c-1.8,0-3.6,0-5.3,0c-0.8,0-1.5-0.3-2.1-0.8c-0.6-0.6-0.9-1.2-1-2c0,0,0-0.1-0.1-0.1s-0.1,0-0.2,0
					c-1.5,1.4-3.1,2.5-4.8,3.5c-0.5,0.2-1,0.4-1.5,0.4c-0.3,0-0.6,0-0.9-0.1c-0.8-0.2-1.6-0.7-2.2-1.4c-0.3-0.4-0.7-0.8-1.1-1.2
					s-0.6-0.8-0.6-1.4c0-0.1,0-0.3,0-0.5c0.1-0.7,0.4-1.2,1.1-1.5c2.3-1.1,4.4-2.5,6.2-4.1v-0.1c0-0.1-0.1-0.1-0.1-0.1
					c-1.9,0-3.8,0-5.7,0c-0.8,0-1.6-0.3-2.2-0.9c-0.6-0.6-1-1.3-1-2.2c0-0.1,0-0.1,0-0.2c-0.1-0.9,0.2-1.6,0.7-2.2
					c0.5-0.6,1.2-0.9,2.1-0.9c2.1,0,4.2,0,6.3,0c0.2,0,0.3-0.1,0.3-0.4c-0.4-4.8-0.8-9.7-1.2-14.5c0-0.2-0.1-0.4-0.4-0.4
					c-1.1,0-2.2,0-3.4,0c-0.8,0-1.5-0.3-2.2-0.9c-0.6-0.6-1-1.3-1-2.2c0,0,0,0,0-0.1c-0.1-0.8,0.2-1.6,0.7-2.2s1.2-0.9,2-0.9
					c1.1,0,2.2,0,3.4,0c0.2,0,0.3-0.1,0.3-0.4c-0.1-0.8,0.2-1.6,0.7-2.2s1.2-0.9,2-0.9c0.6,0,1.1,0,1.7,0c0.8,0,1.6,0.3,2.2,0.9
					s1,1.3,1,2.2c0,0.2,0.1,0.4,0.4,0.4c4.7,0,9.3,0,14,0c0.2,0,0.3-0.1,0.3-0.4c-0.1-0.8,0.1-1.5,0.7-2.1c0.5-0.6,1.2-0.9,2-0.9
					c0.6,0,1.3,0,1.9,0c0.8,0,1.5,0.3,2.1,0.9s1,1.3,1,2.1c0,0.2,0.2,0.4,0.4,0.4c1.1,0,2.2,0,3.4,0c0.8,0,1.6,0.3,2.2,0.9
					s1,1.3,1.1,2.2c0,0,0,0,0,0.1c0.1,0.8-0.1,1.6-0.6,2.2s-1.2,0.9-2,0.9c-1.1,0-2.2,0-3.3,0c-0.3,0-0.4,0.1-0.4,0.4
					c0.5,4.8,1,9.7,1.5,14.5c0,0.3,0.2,0.4,0.4,0.4c2,0,4,0,6,0c0.8,0,1.6,0.3,2.2,0.9c0.6,0.6,1,1.3,1.1,2.2c0,0.1,0,0.1,0,0.2
					c0.1,0.8-0.1,1.6-0.6,2.2c-0.5,0.6-1.2,0.9-2,0.9c-1.7,0-3.4,0-5.1,0c-0.1,0-0.1,0-0.1,0.1s0,0.1,0,0.1c2,1.4,4.1,2.6,6.3,3.6
					c0.7,0.3,1.1,0.8,1.3,1.5c0.1,0.2,0.1,0.3,0.1,0.5c0.1,0.5-0.1,1-0.4,1.4c-0.3,0.5-0.6,0.9-0.9,1.4c-0.5,0.7-1.1,1.1-2,1.4
					c-0.3,0.1-0.5,0.1-0.8,0.1c-0.5,0-1.1-0.1-1.6-0.4c-1.8-1-3.6-2.2-5.3-3.6c0,0-0.1,0-0.2,0S429.8,58.5,429.7,58.6
					C429.7,58.4,429.7,58.5,429.7,58.6z M407.6,55.4c-0.1,0-0.1,0.1,0,0.2c0,0.1,0.1,0.1,0.2,0.1c1.6,0,3.2,0,4.8,0
					c0.2,0,0.3-0.1,0.3-0.3c-0.1-0.7,0.1-1.2,0.5-1.7s1-0.7,1.6-0.7c1,0,2,0,3,0c0.7,0,1.3,0.2,1.8,0.7s0.8,1,0.8,1.7
					c0,0.2,0.1,0.3,0.3,0.3c1.9,0,3.8,0,5.8,0c0.1,0,0.1,0,0.1-0.1s0-0.1,0-0.2c-1-1-1.9-1.9-2.7-2.9c-0.2-0.2-0.4-0.3-0.6-0.3
					c-4.4,0-8.8,0-13.2,0c-0.2,0-0.4,0.1-0.6,0.3C409.1,53.5,408.4,54.4,407.6,55.4z M422.1,31c0-0.2-0.2-0.4-0.4-0.4
					c-4.7,0-9.4,0-14,0c-0.2,0-0.3,0.1-0.3,0.4s0,0.6,0.1,0.8c0,0.3,0.2,0.4,0.4,0.4c4.7,0,9.4,0,14.1,0c0.2,0,0.3-0.1,0.3-0.4
					C422.1,31.5,422.1,31.3,422.1,31z M408.2,37.5c-0.2,0-0.3,0.1-0.3,0.4c0,0.3,0,0.6,0.1,0.8c0,0.3,0.2,0.4,0.4,0.4
					c4.7,0,9.4,0,14.1,0c0.2,0,0.3-0.1,0.3-0.4c0-0.3-0.1-0.6-0.1-0.8s-0.2-0.4-0.4-0.4C417.6,37.5,412.9,37.5,408.2,37.5z
					 M408.8,44.4c-0.2,0-0.3,0.1-0.3,0.4c0,0.3,0,0.5,0.1,0.8c0,0.3,0.2,0.4,0.4,0.4c4.7,0,9.4,0,14.2,0c0.2,0,0.3-0.1,0.3-0.4
					c0-0.3,0-0.5-0.1-0.8c0-0.2-0.2-0.4-0.4-0.4C418.3,44.4,413.5,44.4,408.8,44.4z"/>
				<path class="st4" d="M480.7,54C480.7,54,480.6,54,480.7,54C480.6,54.1,480.6,54.1,480.7,54c0.7,0.3,1.4,0.6,2,0.8
					c0.8,0.2,1.3,0.7,1.7,1.5c0.1,0.2,0.2,0.5,0.2,0.7c0.1,0.5,0,0.9-0.2,1.3c-1.5,2.5-2.4,4-2.8,4.7c0,0.1,0,0.1,0,0.2
					c0,0.1,0.1,0.1,0.2,0.1c2.5,0,5,0,7.5,0c0.8,0,1.6,0.3,2.3,0.9c0.7,0.6,1.1,1.4,1.2,2.2c0,0.2,0,0.3,0.1,0.5
					c0.1,0.9-0.1,1.6-0.6,2.2s-1.2,0.9-2.1,0.9c-13.2,0-26.3,0-39.5,0c-0.8,0-1.6-0.3-2.3-0.9c-0.7-0.6-1.1-1.4-1.2-2.2
					c0-0.2,0-0.3-0.1-0.5c-0.1-0.9,0.1-1.6,0.7-2.2c0.5-0.6,1.2-0.9,2.1-0.9c2,0,4.1,0,6.1,0c0.1,0,0.2,0,0.2-0.1s0-0.2,0-0.3
					c-0.8-1.6-1.7-3.2-2.8-4.7c-0.3-0.4-0.5-0.9-0.5-1.4c0-0.3,0-0.6,0.1-0.9c0.2-0.8,0.6-1.3,1.3-1.6c0.2-0.1,0.5-0.2,0.7-0.3v-0.1
					c0,0,0-0.1-0.1-0.1c-1.1,0-2.1,0-3.2,0c-0.8,0-1.6-0.3-2.3-0.9c-0.7-0.6-1.1-1.4-1.2-2.2c0-0.2,0-0.3-0.1-0.5
					c-0.1-0.9,0.1-1.6,0.7-2.2c0.5-0.6,1.2-0.9,2.1-0.9c3.9,0,7.8,0,11.7,0c0.3,0,0.4-0.1,0.4-0.4c-0.1-1.2-0.3-2.4-0.4-3.6
					c0-0.2-0.2-0.4-0.5-0.4c-2.2,0-4.4,0-6.6,0c-0.6,0-1.1-0.2-1.5-0.6c-0.4-0.4-0.7-0.9-0.8-1.5c0,0,0-0.1-0.1-0.1s-0.1,0-0.1,0
					c-1.2,1-2.6,2-4.3,3c-0.5,0.3-0.9,0.4-1.4,0.4c-0.3,0-0.6-0.1-0.8-0.2c-0.8-0.2-1.5-0.7-2.1-1.4c-0.4-0.5-0.8-1-1.3-1.5
					c-0.4-0.5-0.7-1-0.7-1.5c0-0.2,0-0.3,0-0.5c0-0.7,0.3-1.3,1-1.7c3.2-1.9,6.1-4.3,8.8-7.2c2.6-2.7,4.7-5.4,6.2-8
					c1-1.7,2.5-2.6,4.4-2.6c0.6,0,1.3,0,1.9,0c1.9,0,3.6,0.8,5.1,2.5c2.9,3.2,6,6.1,9.5,8.7c3.3,2.5,6.7,4.6,10.2,6.1
					c0.7,0.3,1.2,0.9,1.5,1.6c0.1,0.2,0.1,0.4,0.1,0.6c0.1,0.5,0,1-0.3,1.4c-0.4,0.6-0.8,1.3-1.2,2.1c-0.4,0.7-1,1.2-1.8,1.4
					c-0.3,0.1-0.5,0.1-0.8,0.1c-0.6,0-1.1-0.1-1.6-0.4c-1.8-1-3.5-2.1-5.2-3.2h-0.1l-0.1,0.1c0.1,0.6-0.1,1.2-0.4,1.6
					c-0.4,0.4-0.9,0.7-1.5,0.7c-2.3,0-4.6,0-6.8,0c-0.2,0-0.3,0.1-0.3,0.4c0.1,1.2,0.3,2.4,0.4,3.6c0,0.2,0.2,0.4,0.4,0.4
					c4,0,8,0,12,0c0.8,0,1.6,0.3,2.3,0.9c0.7,0.6,1.1,1.4,1.2,2.2c0,0.2,0,0.3,0.1,0.5c0.1,0.9-0.1,1.6-0.6,2.2
					c-0.5,0.6-1.2,0.9-2,0.9C483.3,54,482,54,480.7,54z M464,54.4c0-0.3-0.2-0.4-0.5-0.4c-1.6,0-3.2,0-4.8,0c-0.1,0-0.2,0-0.2,0.1
					s0,0.1,0,0.2c1.3,1.7,2.4,3.2,3.3,4.5c0.3,0.4,0.4,0.9,0.5,1.3c0,0.4,0,0.8-0.1,1.1c-0.3,0.8-0.8,1.4-1.5,1.8
					c-0.2,0.1-0.4,0.2-0.6,0.3c0,0,0,0,0,0.1s0,0.1,0.1,0.1c1.5,0,3,0,4.5,0c0.3,0,0.4-0.1,0.4-0.4C464.7,60.2,464.3,57.3,464,54.4z
					 M458.5,35.8c-0.1,0-0.1,0.1,0,0.2c0,0.1,0.1,0.1,0.2,0.1c5,0,10,0,15.1,0c0.1,0,0.1,0,0.1-0.1s0-0.1-0.1-0.2
					c-3.6-2.9-6.4-5.6-8.5-8.1c-0.2-0.2-0.3-0.2-0.4,0C463.2,30.4,461.1,33.1,458.5,35.8z M477.7,54.4c0-0.1,0-0.2-0.1-0.3
					s-0.1-0.1-0.2-0.1c-1.6,0-3.2,0-4.8,0c-0.2,0-0.3,0.1-0.3,0.4c0.4,2.9,0.7,5.7,1.1,8.6c0,0.2,0.2,0.4,0.4,0.4c1.1,0,2.1,0,3.2,0
					c0,0,0.1,0,0.1-0.1v-0.1c-0.7-0.3-1.2-0.8-1.5-1.4c-0.1-0.2-0.2-0.5-0.2-0.7c-0.1-0.4,0-0.8,0.2-1.2
					C476.4,58.1,477.1,56.3,477.7,54.4z"/>
			</g>
		</g>
		<path class="st7" d="M465.7,133.7H60.3c-13.3,0-23.2-10.8-22-24.1l0,0c1.2-13.3,12.9-24.1,26.2-24.1h405.4
			c13.3,0,23.2,10.8,22,24.1l0,0C490.7,122.9,479,133.7,465.7,133.7z"/>
		<g class="st9">
			<path class="st10" d="M84.5,113.8c-0.1,0-0.2,0.1-0.2,0.2l-0.2,2.5c0,0.1,0,0.2,0.1,0.2c0.6,0.1,1.2,0.1,1.9,0.1
				c2.6,0,4.6,0,5.9,0l0,0c0.3,0,0.5,0.1,0.7,0.4c0.1,0.2,0.1,0.3,0.1,0.5c0,0.1,0,0.2-0.1,0.4c-0.1,0.3-0.3,0.6-0.4,1
				c-0.2,0.4-0.4,0.7-0.7,1s-0.7,0.4-1.1,0.4h-4.9c-2.3,0-4.1-0.3-5.6-0.8s-2.6-1.5-3.5-2.9h-0.1c0,0-0.1,0-0.1,0.1
				c-0.6,1.2-1.4,2.2-2.2,3c-0.3,0.3-0.6,0.4-1,0.4l0,0c-0.4,0-0.7-0.1-1-0.4c-0.2-0.2-0.5-0.4-0.7-0.6c-0.3-0.2-0.4-0.5-0.3-0.9
				c0-0.3,0.2-0.6,0.4-0.8c1.6-1.5,2.8-3.8,3.5-6.8c0.1-0.4,0.3-0.7,0.6-0.9c0.3-0.2,0.6-0.3,0.9-0.3h0.1l0.9,0.1
				c0.4,0,0.7,0.2,0.9,0.5c0.2,0.2,0.2,0.5,0.2,0.8c0,0.1,0,0.2,0,0.2c-0.1,0.5-0.3,1-0.4,1.4c0,0.1,0,0.2,0,0.3
				c0.4,1.3,1.2,2.3,2.2,3h0.1l0.1-0.1l0.6-7.2c0-0.1,0-0.2-0.1-0.2H78c-0.4,0-0.7-0.1-0.9-0.4s-0.3-0.6-0.3-1v-0.5
				c0-0.4,0.2-0.7,0.5-1s0.6-0.4,1-0.4h10.1c0.4,0,0.7,0.1,0.9,0.4c0.2,0.3,0.3,0.6,0.3,1v0.5c0,0.4-0.2,0.7-0.5,1s-0.6,0.4-1,0.4
				h-3c-0.1,0-0.2,0.1-0.2,0.2l-0.2,2.1c0,0.1,0,0.2,0.1,0.2h4.7c0.4,0,0.7,0.1,0.9,0.4s0.3,0.6,0.3,1v0.5c0,0.4-0.2,0.7-0.5,1
				s-0.6,0.4-1,0.4h-4.7V113.8z M76.6,103.1c-0.1,0-0.2,0.1-0.2,0.2l-0.1,1.6c0,0.4-0.2,0.7-0.5,1s-0.6,0.4-1,0.4h-0.7
				c-0.4,0-0.7-0.1-0.9-0.4c-0.2-0.3-0.3-0.6-0.3-1l0.3-3.7c0-0.4,0.2-0.7,0.5-1s0.6-0.4,1-0.4h7c0.1,0,0.2-0.1,0.2-0.2l0.1-0.7
				c0-0.4,0.2-0.7,0.5-1s0.6-0.4,1-0.4h1c0.4,0,0.7,0.1,0.9,0.4c0.2,0.3,0.4,0.6,0.3,1l-0.1,0.7c0,0.1,0,0.2,0.1,0.2h7.1
				c0.4,0,0.7,0.1,0.9,0.4c0.2,0.3,0.3,0.6,0.3,1l-0.3,3.7c0,0.4-0.2,0.7-0.5,1s-0.6,0.4-1,0.4h-0.8c-0.4,0-0.7-0.1-0.9-0.4
				c-0.2-0.3-0.3-0.6-0.3-1l0.1-1.6c0-0.1,0-0.2-0.2-0.2H76.6z"/>
			<path class="st10" d="M117.1,98.6c0.4,0,0.7,0.1,0.9,0.4c0.2,0.3,0.4,0.6,0.3,1l-1.5,16.8c-0.1,0.8-0.2,1.5-0.4,1.9
				s-0.6,0.8-1.1,1.1c-0.6,0.3-1.5,0.5-2.7,0.6c0,0,0,0-0.1,0c-0.4,0-0.7-0.1-0.9-0.4c-0.3-0.2-0.5-0.6-0.5-1c0-0.2-0.1-0.4-0.1-0.7
				c0-0.1,0-0.2,0-0.3c0-0.2,0.1-0.4,0.2-0.5c0.2-0.3,0.5-0.4,0.8-0.4h0.4c0.1,0,0.2,0,0.4,0s0.2,0,0.2,0c0.2,0,0.3,0,0.4-0.1
				s0.1-0.2,0.1-0.4l0.4-4c0-0.1,0-0.2-0.1-0.2h-2.5c-0.1,0-0.2,0.1-0.2,0.2c-0.5,2.7-1.2,4.8-2,6.5c-0.2,0.3-0.4,0.5-0.8,0.6
				c-0.1,0-0.2,0-0.2,0c-0.2,0-0.5-0.1-0.7-0.3c-0.5-0.4-1-0.7-1.4-1c-0.1-0.1-0.2-0.1-0.3,0l-0.6,0.4c-0.2,0.1-0.5,0.2-0.7,0.2
				c-0.1,0-0.2,0-0.3,0c-0.4-0.1-0.6-0.3-0.8-0.6c-0.3-0.4-0.6-0.9-0.9-1.4c-0.2-0.2-0.2-0.4-0.2-0.7c0-0.1,0-0.2,0-0.2
				c0.1-0.4,0.3-0.6,0.7-0.8l0.9-0.5l0,0l0,0h-5.5l0,0l0,0l1.7,0.5c0.3,0.1,0.6,0.3,0.7,0.6c0.1,0.1,0.1,0.3,0.1,0.4
				c0,0.2-0.1,0.4-0.2,0.5c-0.7,0.9-1.4,1.8-2.2,2.6c-0.3,0.3-0.6,0.5-1,0.5h-0.1c-0.4,0-0.7-0.1-1-0.4c-0.2-0.1-0.3-0.3-0.5-0.4
				c-0.3-0.2-0.4-0.5-0.4-0.9c0-0.3,0.2-0.6,0.4-0.8c0.9-0.8,1.6-1.7,2.2-2.6v-0.1c0,0,0,0-0.1,0h-1.2c-0.4,0-0.7-0.1-0.9-0.4
				c-0.2-0.3-0.3-0.6-0.3-1V113c0-0.4,0.2-0.7,0.5-1s0.6-0.4,1-0.4h0.5c0.1,0,0.2-0.1,0.2-0.2l0.7-8.1c0-0.1,0-0.2-0.2-0.2H98
				c-0.4,0-0.7-0.1-0.9-0.4c-0.2-0.3-0.3-0.6-0.3-1v-0.3c0-0.4,0.2-0.7,0.5-1s0.6-0.4,1-0.4h0.2c0.1,0,0.2-0.1,0.2-0.2l0.1-0.8
				c0-0.4,0.2-0.7,0.5-1s0.6-0.4,1-0.4h0.4c0.4,0,0.7,0.1,0.9,0.4c0.3,0.3,0.4,0.6,0.3,1l-0.1,0.8c0,0.1,0,0.2,0.1,0.2h1.9
				c0.1,0,0.2-0.1,0.2-0.2l0.1-0.8c0-0.4,0.2-0.7,0.5-1s0.6-0.4,1-0.4h0.4c0.4,0,0.7,0.1,0.9,0.4c0.2,0.3,0.3,0.6,0.3,1l-0.1,0.8
				c0,0.1,0,0.2,0.2,0.2c0.4,0,0.7,0.1,0.9,0.4c0.2,0.3,0.4,0.6,0.3,1v0.3c0,0.4-0.2,0.7-0.5,1s-0.6,0.4-1,0.4
				c-0.1,0-0.2,0.1-0.2,0.2l-0.7,8.1c0,0.1,0,0.2,0.1,0.2c0.3,0,0.6,0.1,0.8,0.3c0.2,0.2,0.3,0.5,0.3,0.8v0.5c0,0.4-0.2,0.7-0.5,1
				s-0.6,0.4-1,0.4h-1.1h-0.1v0.1c0.8,1,1.4,1.8,1.8,2.4c0,0,0,0,0.1,0s0.1,0,0.1-0.1c0.6-1.3,1.1-2.8,1.4-4.4s0.5-3.4,0.7-5.4
				l0.7-7.5c0-0.4,0.2-0.7,0.5-1s0.6-0.4,1-0.4h6.2V98.6z M100.7,110.5c-0.1,0-0.2,0.1-0.2,0.2l-0.1,0.8c0,0.1,0,0.2,0.1,0.2h1.9
				c0.1,0,0.2-0.1,0.2-0.2l0.1-0.8c0-0.1,0-0.2-0.1-0.2H100.7z M101.1,106.8c-0.1,0-0.2,0.1-0.2,0.2l-0.1,0.7c0,0.1,0,0.2,0.1,0.2
				h1.9c0.1,0,0.2-0.1,0.2-0.2l0.1-0.7c0-0.1,0-0.2-0.1-0.2H101.1z M103.4,103.4c0-0.1,0-0.2-0.1-0.2h-1.9c-0.1,0-0.2,0.1-0.2,0.2
				l-0.1,0.7c0,0.1,0,0.2,0.1,0.2h1.9c0.1,0,0.2-0.1,0.2-0.2L103.4,103.4z M111.5,109.2c0,0.1,0,0.2,0.1,0.2h2.3
				c0.1,0,0.2-0.1,0.2-0.2l0.2-2c0-0.1,0-0.2-0.1-0.2h-2.3c-0.1,0-0.2,0.1-0.2,0.2v0.3C111.6,108.2,111.6,108.8,111.5,109.2z
				 M114.8,101.9c0-0.1,0-0.2-0.1-0.2h-2.3c-0.1,0-0.2,0.1-0.2,0.2l-0.2,1.9c0,0.1,0,0.2,0.1,0.2h2.3c0.1,0,0.2-0.1,0.2-0.2
				L114.8,101.9z"/>
			<path class="st10" d="M132.5,113.8c-0.1,0-0.2,0.1-0.2,0.2l-0.2,2.5c0,0.1,0,0.2,0.1,0.2c0.6,0.1,1.2,0.1,1.9,0.1
				c2.6,0,4.6,0,5.9,0l0,0c0.3,0,0.5,0.1,0.7,0.4c0.1,0.2,0.1,0.3,0.1,0.5c0,0.1,0,0.2-0.1,0.4c-0.1,0.3-0.3,0.6-0.4,1
				c-0.2,0.4-0.4,0.7-0.7,1s-0.7,0.4-1.1,0.4h-4.9c-2.3,0-4.1-0.3-5.6-0.8c-1.4-0.5-2.6-1.5-3.5-2.9h-0.1c0,0-0.1,0-0.1,0.1
				c-0.6,1.2-1.4,2.2-2.2,3c-0.3,0.3-0.6,0.4-1,0.4l0,0c-0.4,0-0.7-0.1-1-0.4c-0.2-0.2-0.5-0.4-0.7-0.6c-0.3-0.2-0.4-0.5-0.3-0.9
				c0-0.3,0.2-0.6,0.4-0.8c1.6-1.5,2.8-3.8,3.5-6.8c0.1-0.4,0.3-0.7,0.6-0.9c0.3-0.2,0.6-0.3,0.9-0.3h0.1l0.9,0.1
				c0.4,0,0.7,0.2,0.9,0.5c0.2,0.2,0.2,0.5,0.2,0.8c0,0.1,0,0.2,0,0.2c-0.1,0.5-0.3,1-0.4,1.4c0,0.1,0,0.2,0,0.3
				c0.4,1.3,1.2,2.3,2.2,3h0.1l0.1-0.1l0.6-7.2c0-0.1,0-0.2-0.1-0.2H126c-0.4,0-0.7-0.1-0.9-0.4s-0.3-0.6-0.3-1v-0.5
				c0-0.4,0.2-0.7,0.5-1s0.6-0.4,1-0.4h10.1c0.4,0,0.7,0.1,0.9,0.4s0.3,0.6,0.3,1v0.5c0,0.4-0.2,0.7-0.5,1s-0.6,0.4-1,0.4h-3
				c-0.1,0-0.2,0.1-0.2,0.2l-0.2,2.1c0,0.1,0,0.2,0.1,0.2h4.7c0.4,0,0.7,0.1,0.9,0.4s0.3,0.6,0.3,1v0.5c0,0.4-0.2,0.7-0.5,1
				s-0.6,0.4-1,0.4h-4.7V113.8z M124.6,103.1c-0.1,0-0.2,0.1-0.2,0.2l-0.1,1.6c0,0.4-0.2,0.7-0.5,1s-0.6,0.4-1,0.4h-0.7
				c-0.4,0-0.7-0.1-0.9-0.4c-0.2-0.3-0.3-0.6-0.3-1l0.3-3.7c0-0.4,0.2-0.7,0.5-1s0.6-0.4,1-0.4h7c0.1,0,0.2-0.1,0.2-0.2l0.1-0.7
				c0-0.4,0.2-0.7,0.5-1s0.6-0.4,1-0.4h1c0.4,0,0.7,0.1,0.9,0.4s0.4,0.6,0.3,1l-0.1,0.7c0,0.1,0,0.2,0.1,0.2h7.1
				c0.4,0,0.7,0.1,0.9,0.4s0.3,0.6,0.3,1l-0.3,3.7c0,0.4-0.2,0.7-0.5,1s-0.6,0.4-1,0.4h-0.8c-0.4,0-0.7-0.1-0.9-0.4s-0.3-0.6-0.3-1
				l0.1-1.6c0-0.1,0-0.2-0.2-0.2H124.6z"/>
			<path class="st10" d="M164.6,102.6c0.4,0,0.7,0.1,0.9,0.4s0.4,0.6,0.3,1l-0.9,10.1c0,0.4-0.2,0.7-0.5,1s-0.6,0.4-1,0.4H157h-0.1
				l0,0l1.1,0.8c0.3,0.2,0.4,0.5,0.4,0.9c0,0.3-0.2,0.6-0.4,0.8c-0.9,0.7-1.9,1.3-3,1.8c-0.3,0.1-0.5,0.2-0.8,0.2
				c-0.1,0-0.2,0-0.4,0c-0.4-0.1-0.7-0.3-1-0.6c-0.1-0.2-0.3-0.3-0.4-0.5l0,0c0,0.1-0.1,0.1-0.1,0.1h-5c-0.1,0-0.1,0-0.1,0.1
				c0,0.2-0.1,0.4-0.3,0.6s-0.4,0.2-0.6,0.2h-0.7c-0.4,0-0.7-0.1-0.9-0.4s-0.4-0.6-0.3-1l0.4-4.7c-0.1,0-0.2,0-0.2-0.1
				c-0.2-0.4-0.4-0.8-0.7-1.3c-0.1-0.2-0.2-0.4-0.2-0.6c0-0.1,0-0.2,0.1-0.3c0.1-0.3,0.3-0.5,0.6-0.7c1-0.4,1.9-0.9,2.7-1.5l0.1-0.1
				v-0.1l-0.9-0.7c-0.1,0-0.1,0-0.2,0c-0.2,0.1-0.4,0.2-0.6,0.2c-0.2,0-0.4-0.1-0.5-0.3c-0.2-0.2-0.4-0.4-0.5-0.6
				c-0.2-0.2-0.3-0.5-0.3-0.8c0-0.4,0.2-0.7,0.5-0.9c1.1-0.8,2.1-1.8,2.9-2.9c0.2-0.3,0.6-0.6,0.9-0.8c0.2-0.1,0.5-0.2,0.7-0.2
				c0.1,0,0.3,0,0.4,0.1l0.6,0.1c0.2,0.1,0.4,0.2,0.4,0.4c0.1,0.2,0.1,0.4-0.1,0.6c0,0.1,0,0.1,0.1,0.1h1.5h0.1c0.1,0,0.2,0,0.3,0
				c0.2,0,0.4,0,0.5,0.1l0.5,0.3c0.3,0.1,0.5,0.3,0.6,0.6c0,0.1,0,0.3,0,0.4s0,0.3-0.1,0.4c-0.6,1.1-1.3,2.2-2.2,3.2
				c-0.1,0.1-0.1,0.2,0,0.2c0.6,0.4,1.2,0.8,1.7,1.2c0.3,0.2,0.4,0.5,0.5,0.9c0,0.1,0,0.1,0,0.2c0,0.3-0.2,0.6-0.4,0.8L153,113
				c-0.1,0.1-0.1,0.2-0.1,0.3l-0.4,4.4v0.1h0.1c1.5-0.7,2.7-1.4,3.6-2.2v-0.1c0,0,0,0-0.1,0H156c-0.4,0-0.7-0.1-0.9-0.4
				s-0.4-0.6-0.3-1l0.9-10.1c0-0.4,0.2-0.7,0.5-1s0.6-0.4,1-0.4h1.4c0.1,0,0.2-0.1,0.2-0.2c0.1-0.3,0.2-0.6,0.2-0.9
				c0-0.1,0-0.2-0.1-0.2h-3.4c-0.1,0-0.2,0.1-0.2,0.2l-0.1,0.7c0,0.4-0.2,0.7-0.5,1s-0.6,0.4-1,0.4h-0.2c-0.4,0-0.7-0.1-0.9-0.4
				s-0.3-0.6-0.3-0.9c0-0.1,0-0.2-0.1-0.2h-4.9c-0.1,0-0.2,0.1-0.2,0.2c0,0.4-0.2,0.7-0.5,0.9s-0.6,0.4-1,0.4h-0.1
				c-0.4,0-0.7-0.1-0.9-0.4s-0.3-0.6-0.3-1l0.1-1.4c0-0.4,0.2-0.7,0.5-1s0.6-0.4,1-0.4h2.2c0.1,0,0.2-0.1,0.2-0.2V99
				c0-0.4,0.2-0.7,0.5-1s0.6-0.4,1-0.4h0.5c0.4,0,0.7,0.1,0.9,0.4s0.4,0.6,0.3,1v0.2c0,0.1,0,0.2,0.1,0.2h3.5c0.1,0,0.1,0,0.1-0.1
				c0-0.2,0.1-0.5,0.3-0.7s0.4-0.3,0.7-0.3h9c0.4,0,0.7,0.1,0.9,0.4s0.4,0.6,0.3,1v0.2c0,0.4-0.2,0.7-0.5,1s-0.6,0.4-1,0.4h-2.3
				c-0.1,0-0.2,0.1-0.3,0.2c-0.1,0.2-0.3,0.5-0.5,0.9v0.1l0.1,0.1H164.6z M149.5,116.4c0.1,0,0.2-0.1,0.2-0.2l0.1-1.2
				c0-0.1,0-0.2-0.1-0.2h-1.9c-0.1,0-0.2,0.1-0.2,0.2l-0.1,1.2c0,0.1,0,0.2,0.2,0.2H149.5z M148,112.1
				C148,112.2,148,112.2,148,112.1C148,112.2,148,112.2,148,112.1l2.9,0.1h0.1c0,0,0,0,0-0.1c-0.2-0.2-0.6-0.5-1.2-1
				c-0.1-0.1-0.2-0.1-0.3,0C148.9,111.6,148.4,111.9,148,112.1z M150.5,106.2L150.5,106.2c0-0.1,0-0.1-0.1-0.1h-1.5
				c-0.1,0-0.2,0-0.3,0.1c0,0-0.1,0.1-0.2,0.2c-0.1,0.1-0.1,0.2,0,0.2l0.9,0.6c0.1,0.1,0.2,0,0.3,0
				C149.9,106.9,150.2,106.6,150.5,106.2z M161.7,112.9c0.1,0,0.2-0.1,0.2-0.2l0.1-0.7c0-0.1,0-0.2-0.1-0.2h-3.5
				c-0.1,0-0.2,0.1-0.2,0.2l-0.1,0.7c0,0.1,0,0.2,0.2,0.2H161.7z M162,109.5c0.1,0,0.2-0.1,0.2-0.2l0.1-0.7c0-0.1,0-0.2-0.1-0.2
				h-3.5c-0.1,0-0.2,0.1-0.2,0.2l-0.1,0.7c0,0.1,0,0.2,0.2,0.2H162z M162.3,106.2c0.1,0,0.2-0.1,0.2-0.2l0.1-0.7
				c0-0.1,0-0.2-0.1-0.2H159c-0.1,0-0.2,0.1-0.2,0.2l-0.1,0.7c0,0.1,0,0.2,0.2,0.2H162.3z M160.7,117.9c-0.2-0.2-0.3-0.5-0.3-0.8
				c0-0.4,0.2-0.7,0.5-0.8l0.2-0.1c0.3-0.2,0.7-0.3,1.1-0.3h0.1c0.4,0,0.8,0.1,1.1,0.4c0.6,0.5,1.1,1,1.6,1.4
				c0.2,0.2,0.3,0.5,0.3,0.8c0,0.4-0.2,0.7-0.6,0.9l-0.4,0.2c-0.3,0.2-0.6,0.3-0.9,0.3c-0.1,0-0.1,0-0.2,0c-0.4-0.1-0.7-0.2-1-0.5
				C161.7,118.9,161.3,118.4,160.7,117.9z"/>
			<path class="st10" d="M190.3,102.7c0,0.4-0.2,0.7-0.5,1s-0.6,0.4-1,0.4h-11.1c-0.1,0-0.2,0.1-0.3,0.2c-0.9,1.6-2,3.1-3.1,4.6
				c-0.1,0.1-0.1,0.2-0.1,0.3l-0.9,9.9c0,0.4-0.2,0.7-0.5,1s-0.6,0.4-1,0.4H171c-0.4,0-0.7-0.1-0.9-0.4s-0.3-0.6-0.3-1l0.5-6.1v-0.1
				h-0.1c-0.2,0.1-0.3,0.3-0.5,0.4s-0.4,0.2-0.6,0.2c-0.1,0-0.2,0-0.3,0c-0.3-0.1-0.5-0.3-0.7-0.6c-0.1-0.3-0.3-0.7-0.4-1
				c-0.1-0.2-0.1-0.5-0.1-0.7c0-0.1,0-0.2,0.1-0.4c0.1-0.4,0.3-0.7,0.7-0.9c1.9-1.4,3.6-3.2,5.1-5.6v-0.1c0,0,0,0-0.1,0H170
				c-0.4,0-0.7-0.1-0.9-0.4s-0.4-0.6-0.3-1v-0.6c0-0.4,0.2-0.7,0.5-1s0.6-0.4,1-0.4h4.9c0.1,0,0.2-0.1,0.2-0.2
				c0.2-0.5,0.5-1.1,0.7-1.7c0.1-0.4,0.4-0.6,0.7-0.8c0.2-0.1,0.5-0.2,0.7-0.2c0.1,0,0.2,0,0.3,0l1,0.3c0.4,0.1,0.6,0.3,0.8,0.6
				c0.1,0.2,0.1,0.4,0.1,0.6c0,0.1,0,0.3-0.1,0.4c-0.1,0.3-0.2,0.6-0.4,0.8v0.1l0.1,0.1h9.7c0.4,0,0.7,0.1,0.9,0.4s0.4,0.6,0.3,1
				L190.3,102.7z M188.5,111.4c0.4,0,0.7,0.1,0.9,0.4s0.3,0.6,0.3,1v0.5c0,0.4-0.2,0.7-0.5,1s-0.6,0.4-1,0.4h-3.7
				c-0.1,0-0.2,0.1-0.2,0.2l-0.2,2c-0.1,0.9-0.2,1.5-0.5,2c-0.2,0.5-0.6,0.8-1.2,1.1c-0.7,0.3-1.7,0.5-3.1,0.5l0,0
				c-0.4,0-0.7-0.1-1-0.4c-0.3-0.2-0.5-0.6-0.5-1c0-0.2-0.1-0.5-0.1-0.7c0-0.1,0-0.2,0-0.3c0-0.2,0.1-0.4,0.2-0.5
				c0.2-0.3,0.5-0.4,0.8-0.4l0,0c0.4,0,0.9,0,1.4,0c0.2,0,0.3,0,0.4-0.1c0.1,0,0.1-0.1,0.1-0.3l0.2-1.9c0-0.1,0-0.2-0.1-0.2h-4.2
				c-0.4,0-0.7-0.1-0.9-0.4s-0.3-0.6-0.3-1v-0.5c0-0.4,0.2-0.7,0.5-1s0.6-0.4,1-0.4h4.2c0.1,0,0.2-0.1,0.2-0.2l0.1-0.8
				c0-0.2,0.1-0.5,0.3-0.6c0.2-0.2,0.4-0.3,0.6-0.3c0.1,0,0.2,0,0.2-0.1c0.3-0.2,0.6-0.5,0.9-0.8v-0.1c0,0,0,0-0.1,0h-4.5
				c-0.4,0-0.7-0.1-0.9-0.4s-0.4-0.6-0.3-1v-0.4c0-0.4,0.2-0.7,0.5-1s0.6-0.4,1-0.4h7.3c0,0,0.1,0,0.2,0c0.1,0,0.2,0,0.4,0
				c0.3,0,0.5,0.1,0.8,0.3l0.5,0.5c0.3,0.3,0.4,0.6,0.4,1c0,0.3-0.2,0.6-0.4,0.9c-1.2,1.2-2.3,2.2-3.3,3c-0.1,0.1-0.1,0.1-0.1,0.2
				s0,0.2,0.2,0.2L188.5,111.4L188.5,111.4z"/>
			<path class="st10" d="M198.9,102.3c1,0,1.7,0,2.1,0.1c0.3,0,0.5,0.2,0.7,0.4c0.2,0.2,0.2,0.5,0.2,0.7c-0.3,3.2-1.1,6.4-2.6,9.6
				c0,0.1,0,0.2,0,0.3c0.5,0.5,1,0.9,1.4,1.3c0.3,0.3,0.4,0.7,0.3,1.1c0,0.4-0.2,0.7-0.4,1.1l-0.5,0.6c-0.2,0.3-0.5,0.4-0.9,0.4l0,0
				c-0.3,0-0.6-0.1-0.8-0.4s-0.5-0.6-0.9-1c-0.1-0.1-0.1-0.1-0.2,0c-0.9,1.3-2,2.4-3.3,3.3c-0.2,0.2-0.5,0.2-0.7,0.2
				c-0.1,0-0.2,0-0.3,0c-0.4-0.1-0.6-0.3-0.8-0.6c-0.1-0.2-0.2-0.4-0.4-0.5c-0.2-0.2-0.2-0.5-0.2-0.8c0-0.1,0-0.1,0-0.2
				c0.1-0.3,0.3-0.6,0.6-0.8c1-0.7,1.9-1.6,2.7-2.8c0.1-0.1,0.1-0.2,0-0.3l-0.5-0.4h-0.1c0,0.1-0.1,0.2-0.3,0.3
				c-0.1,0.1-0.2,0.1-0.4,0l-1.1-0.6c-0.3-0.2-0.6-0.5-0.7-0.8c-0.1-0.2-0.1-0.5-0.1-0.7c0-0.1,0-0.3,0.1-0.4
				c0.5-1.5,1.1-3.4,1.7-5.6c0-0.1,0-0.2-0.1-0.2h-0.1c-0.4,0-0.7-0.1-0.9-0.4s-0.3-0.6-0.3-1v-0.4c0-0.4,0.2-0.7,0.5-1
				s0.6-0.4,1-0.4h0.7c0.1,0,0.2-0.1,0.2-0.2c0.2-0.9,0.5-1.9,0.8-3.1c0.1-0.4,0.3-0.7,0.6-0.9c0.3-0.2,0.6-0.3,0.9-0.3
				c0,0,0.1,0,0.2,0h0.5c0.4,0,0.7,0.2,0.9,0.5c0.2,0.2,0.2,0.5,0.2,0.8c0,0.1,0,0.2,0,0.2c-0.3,1-0.5,1.9-0.8,2.8
				c0,0.1,0,0.2,0.1,0.2L198.9,102.3L198.9,102.3z M198.3,105.7c0-0.1,0-0.2-0.1-0.2H197c-0.1,0-0.2,0.1-0.2,0.2
				c-0.3,1-0.7,2.5-1.3,4.4c0,0.1,0,0.2,0.1,0.3c0.3,0.2,0.6,0.4,0.9,0.7c0.1,0.1,0.2,0,0.2-0.1
				C197.3,109.4,197.8,107.7,198.3,105.7z M213.1,107.1c0.4,0,0.7,0.1,0.9,0.4s0.3,0.6,0.3,1v0.5c0,0.4-0.2,0.7-0.5,1
				s-0.6,0.4-1,0.4h-3.5c-0.1,0-0.2,0.1-0.2,0.2l-0.5,6.1c-0.1,0.8-0.2,1.5-0.5,2c-0.2,0.5-0.6,0.9-1.1,1.1
				c-0.7,0.3-1.6,0.5-2.8,0.6h-0.1c-0.4,0-0.7-0.1-1-0.3c-0.3-0.2-0.5-0.6-0.6-1c-0.1-0.3-0.1-0.5-0.2-0.8c0-0.1,0-0.2,0-0.4
				c0-0.2,0.1-0.3,0.2-0.5c0.2-0.2,0.4-0.4,0.8-0.4l0,0c0.3,0,0.6,0,0.8,0s0.4,0,0.5,0c0.2,0,0.3,0,0.4-0.1c0.1-0.1,0.1-0.2,0.1-0.3
				l0.5-6.1c0-0.1,0-0.2-0.2-0.2h-3.2c-0.4,0-0.7-0.1-0.9-0.4c-0.3-0.3-0.4-0.6-0.3-1v-0.5c0-0.4,0.2-0.7,0.5-1s0.6-0.4,1-0.4h3.2
				c0.1,0,0.2-0.1,0.2-0.2l0.1-1.5c0-0.2,0.1-0.5,0.3-0.6c0.2-0.2,0.4-0.3,0.7-0.3c0.1,0,0.1,0,0.2-0.1c0.6-0.6,1.2-1.4,1.8-2.3
				v-0.1c0,0,0,0-0.1,0h-5.2c-0.4,0-0.7-0.1-0.9-0.4s-0.3-0.6-0.3-1v-0.4c0-0.4,0.2-0.7,0.5-1s0.6-0.4,1-0.4h7.4c0.1,0,0.1,0,0.2,0
				c0.1,0,0.3,0,0.4,0c0.3,0,0.5,0.1,0.8,0.3l0.6,0.5c0.3,0.2,0.5,0.6,0.5,0.9c0,0.1,0,0.2,0,0.3c0,0.3-0.1,0.5-0.3,0.8
				c-1.4,1.8-2.7,3.3-4,4.5c-0.1,0.1-0.1,0.2-0.1,0.3l-0.1,0.7c0,0.1,0,0.2,0.2,0.2L213.1,107.1L213.1,107.1z"/>
			<path class="st10" d="M234.6,107.6c0.1,0,0.3,0,0.4,0c0.2,0,0.5,0,0.7,0.1l0.6,0.2c0.3,0.1,0.5,0.3,0.7,0.6
				c0.1,0.2,0.1,0.4,0.1,0.6c0,0.1,0,0.2-0.1,0.4c-0.9,2.2-2,4.1-3.5,5.7c-0.1,0.1-0.1,0.2,0,0.2c0.9,0.6,2,1.1,3.2,1.5
				c0.3,0.1,0.5,0.3,0.5,0.6c0,0.1,0,0.2,0,0.3c0,0.2-0.1,0.4-0.3,0.6c-0.3,0.3-0.5,0.6-0.8,0.9s-0.6,0.6-1,0.7
				c-0.2,0-0.4,0.1-0.5,0.1c-0.2,0-0.4,0-0.6-0.1c-1.3-0.5-2.4-1.2-3.4-2c-0.1-0.1-0.2-0.1-0.3,0c-1.2,0.8-2.4,1.4-3.7,2
				c-0.2,0.1-0.4,0.1-0.5,0.1c-0.2,0-0.4,0-0.5-0.1c-0.3-0.1-0.6-0.4-0.8-0.7c-0.2-0.4-0.5-0.8-0.7-1.1c0,0,0,0-0.1,0
				c0,0,0,0-0.1,0.1c-0.2,0.8-0.6,1.3-1.1,1.7c-0.5,0.3-1.2,0.5-2.1,0.6h-0.1c-0.3,0-0.6-0.1-0.9-0.4c-0.3-0.2-0.5-0.6-0.5-1
				c0-0.2-0.1-0.5-0.1-0.7c0-0.1,0-0.2,0-0.3c0-0.2,0.1-0.4,0.2-0.6c0.2-0.3,0.5-0.4,0.8-0.4c0.1,0,0.1,0,0.3,0s0.2,0,0.2,0
				c0.1,0,0.2,0,0.3-0.1s0.1-0.2,0.1-0.3l0.4-4.2c0-0.1,0-0.2-0.2-0.2h-1.4c-0.1,0-0.2,0.1-0.2,0.2c-0.4,2.7-1,4.9-1.8,6.7
				c-0.1,0.3-0.4,0.5-0.7,0.7c-0.1,0-0.3,0-0.4,0c-0.2,0-0.4-0.1-0.6-0.2c-0.1-0.1-0.2-0.2-0.4-0.2c-0.3-0.2-0.5-0.5-0.7-0.8
				c-0.1-0.2-0.1-0.4-0.1-0.6s0.1-0.3,0.1-0.5c0.9-2.3,1.6-5.7,2-10.3l0.6-7.4c0-0.4,0.2-0.7,0.5-1s0.6-0.4,1-0.4h5.2
				c0.4,0,0.7,0.1,0.9,0.4s0.4,0.6,0.3,1l-0.4,5v0.1h0.1c0.6-0.5,1.1-1.1,1.3-1.8c0.2-0.6,0.4-1.3,0.5-2.1l0.1-1.3
				c0-0.4,0.2-0.7,0.5-1s0.6-0.4,1-0.4h5.9c0.4,0,0.7,0.1,0.9,0.4s0.3,0.6,0.3,1l-0.3,3.6c0,0.4,0,0.6,0,0.7s0.1,0.1,0.1,0.1h0.2
				c0.1,0,0.2-0.1,0.2-0.2c0.1-0.1,0.1-0.4,0.2-0.9c0.1-0.3,0.2-0.5,0.5-0.7c0.1-0.1,0.3-0.1,0.4-0.1s0.3,0,0.4,0.1
				c0.1,0,0.2,0.1,0.3,0.1c0.4,0.2,0.7,0.4,0.9,0.7c0.1,0.2,0.2,0.5,0.2,0.8c0,0.1,0,0.2,0,0.3c-0.3,1-0.6,1.8-1.1,2.2
				c-0.4,0.4-1,0.6-1.8,0.6h-1.2c-1.1,0-1.8-0.3-2.1-0.8c-0.4-0.5-0.5-1.5-0.3-2.9l0.1-1.7c0-0.1,0-0.2-0.2-0.2h-1.7
				c-0.1,0-0.2,0.1-0.2,0.2c-0.3,2.2-1,3.8-2.2,5.1c-0.3,0.3-0.6,0.4-0.9,0.4h-0.1c-0.4,0-0.7-0.2-1-0.4c-0.3-0.3-0.6-0.5-0.8-0.8
				h-0.1c0,0-0.1,0-0.1,0.1l-0.9,10.8v0.4v0.1h0.1c1.3-0.4,2.6-1,3.6-1.6c0.1-0.1,0.1-0.2,0.1-0.2c-0.6-0.8-1.1-1.6-1.6-2.4
				c-0.1-0.2-0.1-0.4-0.1-0.6c0-0.1,0-0.2,0.1-0.4c0.2-0.3,0.4-0.6,0.8-0.7l1.4-0.5l0,0l0,0h-1.7c-0.4,0-0.7-0.1-0.9-0.4
				s-0.3-0.6-0.3-1v-0.4c0-0.4,0.2-0.7,0.5-1s0.6-0.4,1-0.4h7.4C234.5,107.6,234.5,107.6,234.6,107.6z M220,108.8
				c0,0.1,0,0.2,0.2,0.2h1.2c0.1,0,0.2-0.1,0.2-0.2l0.2-1.8c0-0.1,0-0.2-0.2-0.2h-1.2c-0.1,0-0.2,0.1-0.2,0.2v0.1
				C220.1,107.9,220.1,108.4,220,108.8z M222.2,101.8c0-0.1,0-0.2-0.2-0.2h-1.2c-0.1,0-0.2,0.1-0.2,0.2l-0.1,1.7
				c0,0.1,0,0.2,0.2,0.2h1.2c0.1,0,0.2-0.1,0.2-0.2L222.2,101.8z M232.5,110.9C232.6,110.9,232.6,110.9,232.5,110.9
				c0-0.1,0-0.1-0.1-0.1h-3.1h-0.1v0.1c0.4,0.8,0.9,1.5,1.5,2.2c0.1,0.1,0.1,0.1,0.2,0C231.6,112.4,232.1,111.7,232.5,110.9z"/>
			<path class="st11" d="M265.2,99.7c0.1,0,0.2,0,0.3,0c0.2,0,0.4,0.1,0.6,0.2l0.6,0.4c0.3,0.2,0.5,0.4,0.6,0.8c0,0.1,0,0.3,0,0.4
				c0,0.2-0.1,0.4-0.2,0.5c-1,1.8-2.2,3.4-3.6,4.8c-0.1,0.1-0.1,0.2,0,0.2c1,0.8,2.2,1.4,3.4,1.9c0.3,0.1,0.5,0.3,0.5,0.6
				c0,0.1,0,0.2,0,0.3c0,0.2-0.1,0.4-0.3,0.6c-0.2,0.2-0.4,0.4-0.6,0.7c-0.3,0.3-0.6,0.5-1,0.7c-0.2,0.1-0.3,0.1-0.5,0.1
				s-0.4-0.1-0.6-0.2c-1.3-0.7-2.5-1.5-3.6-2.4c-0.1-0.1-0.2-0.1-0.3,0c-1.2,0.9-2.6,1.7-4.1,2.4c-0.2,0.1-0.4,0.1-0.6,0.1
				c-0.2,0-0.3,0-0.5-0.1c-0.4-0.1-0.6-0.4-0.9-0.7c0,0,0-0.1-0.1-0.1c-0.1-0.1-0.2-0.1-0.3-0.1l-1.1,0.5c-0.2,0.1-0.4,0.1-0.7,0
				s-0.3-0.3-0.4-0.5c0-0.1-0.1-0.1-0.1-0.1h-0.5c-0.1,0-0.2,0.1-0.2,0.2l-0.1,1.4v0.1h0.1l0.6-0.2c0.2,0,0.3-0.1,0.5-0.1
				s0.4,0,0.6,0.1c0.3,0.2,0.6,0.4,0.7,0.8c0.2,0.6,0.3,1.2,0.5,1.8c0,0.2,0,0.3,0,0.4c0,0.2-0.1,0.4-0.2,0.6
				c-0.2,0.3-0.5,0.6-0.9,0.7c-0.1,0.1-0.3,0.1-0.4,0.1c-0.2,0-0.4-0.1-0.5-0.2c-0.3-0.2-0.5-0.4-0.6-0.8c-0.1-0.5-0.2-1.2-0.4-1.9
				l0,0l0,0l-0.5,5.2c0,0.4-0.2,0.7-0.5,1s-0.6,0.4-1,0.4h-0.3c-0.4,0-0.7-0.1-0.9-0.4s-0.4-0.6-0.3-1l0.5-5.4l0,0l0,0
				c-0.3,1.4-0.7,2.7-1.1,3.8c-0.1,0.3-0.4,0.6-0.7,0.7c-0.2,0.1-0.3,0.1-0.5,0.1s-0.4,0-0.5-0.1c0,0-0.1,0-0.1-0.1
				c-0.3-0.2-0.6-0.4-0.7-0.8c-0.1-0.2-0.1-0.4-0.1-0.7c0-0.1,0-0.3,0.1-0.4c0.3-0.8,0.5-1.8,0.8-2.9c0.1-0.4,0.3-0.7,0.6-0.9
				c0.2-0.2,0.5-0.3,0.8-0.3c0.1,0,0.1,0,0.2,0l1.2,0.2c0.1,0,0.2,0,0.2-0.1l0.1-1.2c0-0.1,0-0.2-0.1-0.2l-1.8,0.1h-0.1
				c-0.3,0-0.6-0.1-0.9-0.3c-0.3-0.2-0.4-0.6-0.4-1v-0.2v-0.1c0-0.3,0.2-0.6,0.4-0.8c0.3-0.3,0.6-0.4,1-0.4h0.3c0.1,0,0.2,0,0.3-0.1
				c0.2-0.3,0.5-0.6,0.7-0.9c0.1-0.1,0.1-0.2,0-0.3c-0.4-0.6-0.9-1.3-1.5-2c-0.2-0.3-0.4-0.6-0.4-1c0-0.1,0-0.1,0-0.2
				c0-0.3,0.2-0.7,0.4-0.9l0.6-0.8c0.1-0.1,0.2-0.2,0.3-0.2s0.3,0,0.3,0.1h0.1c0.5-0.9,1-1.8,1.4-2.7c0.2-0.3,0.4-0.6,0.7-0.8
				c0.2-0.1,0.4-0.1,0.6-0.1c0.2,0,0.3,0,0.4,0.1l0.4,0.1c0.3,0.1,0.5,0.4,0.6,0.7c0,0.2,0.1,0.3,0.1,0.4c0,0.2-0.1,0.4-0.2,0.6
				c-1,1.6-1.7,2.7-2.3,3.5c-0.1,0.1-0.1,0.2,0,0.3c0.1,0.1,0.1,0.2,0.2,0.3h0.1h0.1c0.5-0.8,1-1.6,1.5-2.3c0.2-0.3,0.5-0.6,0.9-0.7
				c0.2-0.1,0.3-0.1,0.5-0.1s0.4,0,0.6,0.1l0.3,0.1c0.3,0.2,0.5,0.4,0.6,0.8c0,0.1,0,0.2,0,0.4c0,0.2-0.1,0.4-0.3,0.6
				c-0.8,1.1-1.6,2.1-2.4,3.1c0,0,0,0,0,0.1c0,0,0,0,0.1,0l0.4-0.2c0.2-0.1,0.4-0.1,0.6-0.1c0.2,0,0.3,0,0.5,0.1
				c0.4,0.1,0.6,0.4,0.7,0.7c0.3,0.8,0.6,1.5,0.7,2.2c0,0.1,0.1,0.1,0.2,0.1c1.4-0.5,2.6-1.2,3.9-2c0.1-0.1,0.1-0.1,0-0.2
				c-0.3-0.4-0.7-0.9-1.1-1.6c-0.1-0.1-0.1-0.1-0.2,0c-0.3,0.3-0.6,0.5-0.8,0.8c-0.3,0.2-0.6,0.4-0.9,0.4h-0.1
				c-0.4,0-0.7-0.2-0.9-0.5c-0.1-0.1-0.2-0.2-0.4-0.4c-0.2-0.2-0.3-0.5-0.3-0.9c0-0.3,0.2-0.6,0.4-0.8c1.6-1.3,2.9-2.9,4-4.8
				c0.2-0.4,0.5-0.6,0.9-0.8c0.3-0.2,0.6-0.2,0.8-0.2c0.1,0,0.2,0,0.3,0l0.6,0.1c0.3,0.1,0.6,0.2,0.7,0.6c0.1,0.2,0.1,0.3,0.1,0.5
				s-0.1,0.3-0.2,0.5c0,0-0.1,0.1-0.1,0.2v0.1c0,0,0,0.1,0.1,0.1h3.4C265.1,99.7,265.2,99.7,265.2,99.7z M250,107.8L250,107.8
				c0,0.1,0,0.1,0.1,0.1h1.3c0,0,0.1,0,0.1-0.1v-0.1c-0.2-0.6-0.3-0.9-0.3-1c0,0,0-0.1-0.1-0.1H251
				C250.7,106.9,250.4,107.2,250,107.8z M255.8,117.2c-0.3-0.1-0.5-0.3-0.6-0.6c0-0.1,0-0.2,0-0.3c0-0.2,0.1-0.4,0.3-0.6l0.3-0.3
				c0.3-0.3,0.6-0.6,1.1-0.7c0.2-0.1,0.4-0.1,0.6-0.1s0.4,0,0.6,0.1c2.1,0.7,4.1,1.5,6.2,2.5c0.3,0.2,0.5,0.4,0.5,0.8
				c0,0.1,0,0.2,0,0.3c0,0.2-0.1,0.5-0.3,0.7l-0.4,0.5c-0.3,0.3-0.6,0.5-1,0.6c-0.1,0-0.2,0-0.3,0c-0.3,0-0.5-0.1-0.7-0.2
				C260.2,118.9,258.1,118,255.8,117.2z M258.7,113.2c-0.3-0.1-0.5-0.4-0.5-0.7c0-0.1,0-0.2,0-0.3c0-0.2,0.1-0.4,0.3-0.6l0.1-0.1
				c0.3-0.3,0.7-0.5,1.1-0.6c0.1,0,0.3,0,0.4,0c0.2,0,0.5,0,0.7,0.1c0.9,0.4,1.7,0.9,2.5,1.3c0.3,0.2,0.5,0.5,0.5,0.8
				c0,0.1,0,0.1,0,0.2c0,0.3-0.1,0.5-0.3,0.8l-0.2,0.3c-0.3,0.3-0.6,0.5-1,0.5c-0.1,0-0.1,0-0.2,0c-0.3,0-0.6-0.1-0.8-0.3
				C260.4,114.2,259.5,113.7,258.7,113.2z M262.9,102.8L262.9,102.8c0-0.1,0-0.1-0.1-0.1h-3h-0.1v0.1c0.4,0.6,0.8,1.2,1.3,1.8
				c0.1,0.1,0.2,0.1,0.3,0C261.9,104.1,262.4,103.5,262.9,102.8z"/>
			<path class="st11" d="M288,104.8c0.2-0.2,0.4-0.4,0.7-0.5c0.1,0,0.2,0,0.3,0c0.2,0,0.3,0,0.5,0.1l1.2,0.6
				c0.3,0.2,0.5,0.4,0.6,0.8c0,0.1,0,0.2,0,0.3c0,0.2-0.1,0.5-0.3,0.7c-1,1.3-2.2,2.6-3.5,3.8c-0.1,0.1-0.1,0.2-0.1,0.3l-0.4,5
				c-0.1,1-0.3,1.7-0.5,2.2s-0.7,0.9-1.3,1.2c-0.6,0.3-1.2,0.4-1.9,0.5c-0.5,0-1,0.1-1.7,0.1l0,0c-0.4,0-0.7-0.1-1-0.4
				s-0.5-0.6-0.5-1c-0.1-0.7-0.4-1.4-0.6-2.1c-0.1-0.1-0.1-0.1-0.2-0.1c-2.3,1.2-4.7,2.1-7.2,3c-0.2,0.1-0.4,0.1-0.5,0.1
				c-0.2,0-0.4,0-0.6-0.1c-0.4-0.1-0.6-0.4-0.9-0.7s-0.4-0.7-0.6-1c-0.1-0.2-0.2-0.4-0.1-0.5c0-0.1,0-0.2,0.1-0.3
				c0.1-0.3,0.3-0.5,0.6-0.6c2.7-0.7,5.1-1.6,7.3-2.7l0,0l0,0c-2.9,0.2-4.9,0.4-6.2,0.4h-0.1c-0.3,0-0.6-0.1-0.9-0.3
				c-0.3-0.2-0.4-0.6-0.5-0.9l-0.1-0.7c0-0.1,0-0.1,0-0.2c0-0.3,0.1-0.5,0.3-0.8c0.3-0.3,0.6-0.4,1-0.4c0.5,0,1.2,0,1.9-0.1
				c0.1,0,0.2-0.1,0.2-0.2l0.8-9.5c0-0.4,0.2-0.7,0.5-1s0.6-0.4,1-0.4h3.5c0.1,0,0.2-0.1,0.2-0.2c0.1-0.3,0.2-0.6,0.3-0.8
				c0.1-0.4,0.4-0.7,0.7-0.9c0.3-0.2,0.6-0.3,0.9-0.3c0,0,0.1,0,0.2,0l1.6,0.1c0.3,0,0.6,0.2,0.7,0.5c0.1,0.1,0.1,0.3,0.1,0.4
				s-0.1,0.3-0.2,0.4c-0.1,0.2-0.2,0.3-0.3,0.5v0.1c0,0,0,0,0.1,0h4.1c0.4,0,0.7,0.1,0.9,0.4c0.2,0.3,0.4,0.6,0.3,1L288,104.8
				C287.9,104.8,288,104.9,288,104.8C288,104.9,288,104.8,288,104.8z M276.7,109.1c-0.1,0-0.2,0.1-0.2,0.2l-0.1,0.8
				c0,0.1,0,0.2,0.1,0.2c0.7,0,1.7-0.1,3-0.2c1.4-0.1,2.5-0.1,3.3-0.2c0.1,0,0.2,0,0.3-0.1c0.1-0.1,0.4-0.3,0.8-0.6l0,0l0,0h-7.2
				V109.1z M284,106.6c0.1,0,0.2-0.1,0.2-0.2l0.1-0.7c0-0.1,0-0.2-0.2-0.2H277c-0.1,0-0.2,0.1-0.2,0.2l-0.1,0.7c0,0.1,0,0.2,0.2,0.2
				H284z M284.5,102.4c0-0.1,0-0.2-0.2-0.2h-7.1c-0.1,0-0.2,0.1-0.2,0.2v0.6c0,0.1,0,0.2,0.1,0.2h7.1c0.1,0,0.2-0.1,0.2-0.2
				L284.5,102.4z M283.4,115.7l0.2-1.8v-0.1h-0.1c-1.2,0.8-2.5,1.6-3.9,2.3c0,0,0,0,0,0.1c0,0,0,0,0.1,0.1c0.6,0,1.7,0,3.2,0
				C283.1,116.3,283.4,116.1,283.4,115.7z"/>
			<path class="st11" d="M309.8,118.9c-1.9,2.4-4.3,3.6-7.2,3.6s-5.1-1.2-6.6-3.6s-2-5.9-1.7-10.3c0.4-4.5,1.5-7.9,3.4-10.2
				s4.3-3.5,7.2-3.5s5.1,1.2,6.6,3.5s2.1,5.7,1.7,10.2C312.9,113.1,311.8,116.5,309.8,118.9z M301.7,117.2c0.4,0.3,0.8,0.4,1.3,0.4
				s1-0.1,1.4-0.4s0.8-0.7,1.2-1.4c0.4-0.6,0.7-1.6,1-2.8c0.3-1.2,0.5-2.7,0.7-4.5s0.2-3.2,0.1-4.4c-0.1-1.2-0.2-2.1-0.5-2.7
				s-0.6-1-1-1.3c-0.4-0.2-0.8-0.4-1.3-0.4s-1,0.1-1.4,0.4c-0.4,0.2-0.8,0.7-1.2,1.3c-0.4,0.6-0.7,1.5-1,2.7s-0.5,2.7-0.7,4.4
				c-0.2,1.8-0.2,3.3-0.1,4.5s0.2,2.1,0.5,2.8S301.4,117,301.7,117.2z"/>
			<path class="st11" d="M337.9,109.4c0.4,0,0.7,0.1,0.9,0.4c0.2,0.3,0.4,0.6,0.3,1l-0.1,0.6c0,0.4-0.2,0.7-0.5,1s-0.6,0.4-1,0.4
				h-7.7c-0.1,0-0.2,0.1-0.2,0.2l-0.3,2.9c-0.1,1-0.3,1.7-0.6,2.2c-0.3,0.5-0.8,0.9-1.5,1.2c-0.8,0.3-2.2,0.5-4.2,0.6l0,0
				c-0.4,0-0.7-0.1-1-0.4c-0.3-0.2-0.5-0.5-0.6-0.9c-0.1-0.3-0.2-0.6-0.3-0.9c-0.1-0.1-0.1-0.2-0.1-0.4c0-0.2,0.1-0.3,0.2-0.4
				c0.2-0.2,0.4-0.4,0.7-0.4l0,0c0.8,0,1.8,0,2.9,0c0.5,0,0.8-0.2,0.8-0.7l0.3-2.9c0-0.1,0-0.2-0.2-0.2h-7.8c-0.4,0-0.7-0.1-0.9-0.4
				c-0.2-0.3-0.4-0.6-0.3-1l0.1-0.6c0-0.4,0.2-0.7,0.5-1s0.6-0.4,1-0.4h7.8c0.1,0,0.2-0.1,0.2-0.2l0.2-1.9c0-0.1,0-0.2-0.2-0.2h-6.1
				c-0.4,0-0.7-0.1-0.9-0.4c-0.2-0.3-0.4-0.6-0.3-1l0.1-0.6c0-0.4,0.2-0.7,0.5-1s0.6-0.4,1-0.4h6.1c0.1,0,0.2-0.1,0.2-0.2l0.2-2
				c0-0.1,0-0.2-0.2-0.2c-1.7,0.1-3.6,0.2-5.6,0.3c0,0,0,0-0.1,0c-0.4,0-0.7-0.1-0.9-0.4c-0.3-0.3-0.4-0.6-0.5-1
				c0-0.1-0.1-0.3-0.1-0.4s-0.1-0.2,0-0.3c0-0.2,0.1-0.4,0.2-0.6c0.2-0.3,0.5-0.4,0.8-0.4c5.5-0.2,10.1-0.8,13.7-1.5
				c0.2,0,0.3,0,0.5,0s0.5,0,0.7,0.1c0.4,0.1,0.7,0.4,1,0.7l0.6,0.8c0.1,0.2,0.2,0.4,0.2,0.5s0,0.2-0.1,0.3
				c-0.1,0.3-0.3,0.5-0.6,0.5c-1.8,0.4-3.7,0.7-5.8,0.9c-0.1,0-0.2,0.1-0.2,0.2l-0.2,2.3c0,0.1,0,0.2,0.2,0.2h6.3
				c0.4,0,0.7,0.1,0.9,0.4c0.2,0.3,0.4,0.6,0.3,1l-0.1,0.6c0,0.4-0.2,0.7-0.5,1s-0.6,0.4-1,0.4h-6.3c-0.1,0-0.2,0.1-0.2,0.2
				l-0.2,1.9c0,0.1,0,0.2,0.2,0.2h7.8V109.4z"/>
			<path class="st11" d="M349,114.4c0,0.1,0,0.2,0,0.4c0,0.2-0.1,0.4-0.2,0.6c-0.2,0.3-0.5,0.5-0.8,0.6c-0.1,0-0.2,0.1-0.4,0.1
				c-0.2,0-0.3,0-0.5-0.1c-0.3-0.2-0.4-0.4-0.5-0.7c-0.1-0.5-0.2-1-0.3-1.6l0,0l0,0l-0.5,5.4c0,0.4-0.2,0.7-0.5,1s-0.6,0.4-1,0.4
				h-0.1c-0.4,0-0.7-0.1-0.9-0.4c-0.2-0.3-0.3-0.6-0.3-1l0.5-5.2l0,0c-0.3,1.3-0.6,2.5-1,3.5c-0.1,0.3-0.4,0.6-0.7,0.7
				c-0.2,0-0.3,0.1-0.5,0.1s-0.4,0-0.5-0.1c-0.3-0.2-0.5-0.4-0.7-0.8c-0.1-0.2-0.1-0.4-0.1-0.6c0-0.1,0-0.3,0.1-0.4
				c0.3-0.8,0.5-1.8,0.8-2.9c0.1-0.4,0.3-0.7,0.6-0.9c0.2-0.2,0.5-0.3,0.8-0.3c0.1,0,0.1,0,0.2,0l1,0.2c0.1,0,0.2,0,0.2-0.1l0.1-1.1
				c0-0.1,0-0.2-0.2-0.2l-1.3,0.1h-0.1c-0.3,0-0.6-0.1-0.9-0.3c-0.3-0.2-0.4-0.6-0.4-1v-0.1c0-0.1,0-0.1,0-0.2
				c0-0.3,0.2-0.6,0.4-0.8c0.3-0.3,0.6-0.5,1-0.5h0.1c0.1,0,0.2,0,0.3-0.1c0.3-0.4,0.6-0.7,0.8-1.1c0.1-0.1,0.1-0.2,0-0.3
				c-0.3-0.6-0.8-1.3-1.4-2.1c-0.3-0.3-0.4-0.7-0.3-1.2c0-0.4,0.2-0.7,0.4-1l0.7-0.9c0.1-0.1,0.2-0.1,0.3-0.1s0.2,0,0.3,0.1l0,0
				c0.5-0.9,0.9-1.7,1.3-2.5c0.2-0.4,0.4-0.6,0.8-0.8c0.2-0.1,0.4-0.2,0.6-0.2c0.1,0,0.3,0,0.4,0.1l0.3,0.1c0.3,0.1,0.5,0.3,0.6,0.7
				c0,0.1,0.1,0.3,0.1,0.4c0,0.2-0.1,0.4-0.2,0.5c-1,1.6-1.7,2.7-2.3,3.5c-0.1,0.1-0.1,0.2,0,0.3c0,0,0,0.1,0.1,0.1
				c0,0.1,0.1,0.1,0.1,0.2h0.1c0,0,0.1,0,0.1-0.1c0.5-0.7,0.9-1.4,1.3-2.1c0.2-0.3,0.5-0.6,0.8-0.7c0.2-0.1,0.4-0.1,0.5-0.1
				c0.2,0,0.3,0,0.5,0.1l0.2,0.1c0.3,0.1,0.5,0.4,0.6,0.7c0,0.1,0,0.2,0,0.4c0,0.2-0.1,0.4-0.2,0.6c-0.7,1-1.4,2-2.2,3
				c0,0,0,0,0,0.1s0,0,0.1,0h0.1c0.2-0.1,0.3-0.1,0.5-0.1s0.4,0,0.6,0.1c0.3,0.1,0.6,0.4,0.7,0.8c0.3,1,0.5,1.9,0.7,2.7
				c0,0.1,0,0.2,0,0.3c0,0.3-0.1,0.5-0.3,0.7c-0.2,0.3-0.5,0.6-0.9,0.7l-0.4,0.2c-0.2,0.1-0.4,0-0.6-0.1s-0.3-0.3-0.3-0.5
				c0-0.1,0-0.1-0.1-0.1h-0.3c-0.1,0-0.2,0.1-0.2,0.2l-0.1,1.3v0.1h0.1l0.5-0.1c0.1,0,0.3,0,0.4,0c0.2,0,0.4,0.1,0.6,0.2
				c0.3,0.2,0.5,0.4,0.6,0.8C348.9,113.5,349,114,349,114.4z M345.4,107.9L345.4,107.9c0,0.1,0,0.1,0.1,0.1l1.2-0.1
				c0.1,0,0.2-0.1,0.1-0.2c0-0.1-0.1-0.2-0.1-0.5c-0.1-0.2-0.1-0.4-0.1-0.5c0,0,0-0.1-0.1-0.1s-0.1,0-0.1,0
				C345.8,107.4,345.5,107.7,345.4,107.9z M361.5,115.6c0,0.4-0.2,0.7-0.5,1s-0.6,0.4-1,0.4h-0.1l0,0l0,0c1,0.5,1.6,0.8,1.9,1
				c0.3,0.1,0.4,0.4,0.4,0.7c0,0.3-0.2,0.5-0.4,0.7l-0.6,0.3c-0.4,0.2-0.8,0.3-1.2,0.3l0,0c-0.4,0-0.8-0.1-1.1-0.3
				c-0.6-0.4-1.2-0.7-1.8-1.1c-0.3-0.2-0.5-0.4-0.4-0.8c0-0.3,0.2-0.5,0.4-0.7l0,0V117c0,0,0,0-0.1,0h-3.1h-0.1c0,0,0,0,0,0.1
				l0.1,0.1c0.2,0.2,0.3,0.4,0.3,0.7c0,0.4-0.2,0.6-0.5,0.8c-1,0.5-2,0.9-3.1,1.3c-0.2,0.1-0.5,0.1-0.7,0.1s-0.4,0-0.5-0.1
				c-0.4-0.1-0.7-0.3-1-0.6c0,0,0-0.1-0.1-0.1c-0.2-0.2-0.3-0.3-0.2-0.6c0,0,0-0.1,0-0.2c0.1-0.3,0.3-0.5,0.5-0.6
				c0.9-0.3,1.7-0.6,2.4-0.9l0,0l0,0c-0.3,0-0.6-0.1-0.8-0.4c-0.2-0.2-0.3-0.5-0.3-0.8l0.4-5c0-0.4,0.2-0.7,0.5-1s0.6-0.4,1-0.4h8.7
				c0.4,0,0.7,0.1,0.9,0.4c0.2,0.3,0.4,0.6,0.3,1L361.5,115.6z M351.1,108.9c-0.4,0-0.7-0.1-0.9-0.4c-0.2-0.3-0.3-0.6-0.3-1l0.2-2.3
				c0-0.4,0.2-0.7,0.5-1s0.6-0.4,1-0.4H362c0.4,0,0.7,0.1,0.9,0.4c0.2,0.3,0.4,0.6,0.3,1l-0.2,2.3c0,0.4-0.2,0.7-0.5,1
				s-0.6,0.4-1,0.4H351.1z M354.9,101.3c0.1,0,0.2-0.1,0.2-0.2v-0.2c0-0.1,0-0.2-0.2-0.2H351c-0.3,0-0.5-0.1-0.7-0.3
				c-0.2-0.2-0.3-0.4-0.2-0.7c0-0.3,0.1-0.5,0.4-0.7c0.2-0.2,0.5-0.3,0.8-0.3h4c0.1,0,0.1,0,0.1-0.1c0-0.3,0.1-0.5,0.4-0.7
				s0.5-0.3,0.8-0.3h1.4c0.3,0,0.5,0.1,0.7,0.3s0.3,0.4,0.2,0.7c0,0.1,0,0.1,0.1,0.1h4.3c0.3,0,0.5,0.1,0.7,0.3
				c0.2,0.2,0.3,0.4,0.2,0.7c0,0.3-0.1,0.5-0.4,0.7c-0.2,0.2-0.5,0.3-0.7,0.3h-4.2c-0.1,0-0.2,0.1-0.2,0.2v0.2c0,0.1,0,0.2,0.1,0.2
				h3.3c0.3,0,0.5,0.1,0.7,0.3s0.2,0.4,0.2,0.7c0,0.3-0.1,0.5-0.3,0.7c-0.2,0.2-0.4,0.3-0.7,0.3h-9.9c-0.3,0-0.5-0.1-0.7-0.3
				c-0.2-0.2-0.2-0.4-0.2-0.7c0-0.3,0.1-0.5,0.3-0.7s0.4-0.3,0.7-0.3H354.9z M352.7,106.4C352.6,106.3,352.6,106.3,352.7,106.4
				c-0.1,0-0.1,0-0.1,0.1l-0.1,0.7c0,0.1,0,0.2,0.2,0.2h0.5h0.1v-0.1C353.1,106.9,352.9,106.6,352.7,106.4z M354,105.6
				C354,105.5,354,105.5,354,105.6c0-0.1,0-0.1-0.1-0.1h-1.2c-0.1,0-0.2,0.1-0.2,0.2v0.4c0,0.1,0,0.2,0.2,0.1
				C353.3,106,353.8,105.8,354,105.6z M353.2,114.8c-0.1,0-0.2,0.1-0.2,0.2v0.3c0,0.1,0,0.2,0.2,0.2h5c0.1,0,0.2-0.1,0.2-0.2V115
				c0-0.1,0-0.2-0.2-0.2H353.2z M353.4,112.9c-0.1,0-0.2,0.1-0.2,0.2v0.3c0,0.1,0,0.2,0.2,0.2h5c0.1,0,0.2-0.1,0.2-0.2v-0.3
				c0-0.1,0-0.2-0.2-0.2H353.4z M353.6,111c-0.1,0-0.2,0.1-0.2,0.2v0.2c0,0.1,0,0.2,0.2,0.2h5c0.1,0,0.2-0.1,0.2-0.2v-0.2
				c0-0.1,0-0.2-0.2-0.2H353.6z M353.7,107.3L353.7,107.3L353.7,107.3h6.4c0.1,0,0.2-0.1,0.2-0.2l0,0c0-0.1,0-0.2-0.1-0.2h-1.1
				c-0.9,0-1.4-0.1-1.7-0.3c-0.3-0.2-0.4-0.5-0.4-1.1c0-0.1-0.1-0.2-0.2-0.2h-0.4c-0.1,0-0.2,0.1-0.2,0.2c-0.2,0.4-0.5,0.8-0.8,1
				C354.9,106.9,354.4,107.1,353.7,107.3z M360.3,105.8c0.1,0,0.2-0.1,0.2-0.2l0,0c0-0.1,0-0.2-0.1-0.2h-0.9c-0.1,0-0.2,0.1-0.2,0.2
				s0.1,0.2,0.3,0.2H360.3z"/>
			<path class="st11" d="M383.9,115.3c0,0.4-0.2,0.7-0.5,1s-0.6,0.4-1,0.4h-1.2l0,0l0,0c1.5,0.5,2.8,1,4,1.5
				c0.2,0.1,0.3,0.3,0.3,0.5s-0.2,0.4-0.4,0.5l-1.4,0.6c-0.4,0.2-0.8,0.2-1.1,0.2c-0.5,0-0.9-0.1-1.4-0.4c-1.1-0.5-2.2-1-3.5-1.5
				c-0.2-0.1-0.4-0.3-0.4-0.6c0-0.3,0.1-0.5,0.4-0.6l0.5-0.3l0,0c0,0,0,0-0.1,0h-5.3l0,0l0,0l0.4,0.2c0.3,0.1,0.4,0.3,0.4,0.7
				c0,0.3-0.2,0.5-0.4,0.6c-1.5,0.7-3.3,1.4-5.2,1.9c-0.2,0-0.4,0.1-0.6,0.1s-0.4,0-0.6-0.1c-0.4-0.1-0.7-0.3-1-0.6
				c-0.2-0.2-0.3-0.4-0.5-0.6s-0.2-0.4-0.1-0.7s0.3-0.4,0.6-0.5c1.6-0.3,2.9-0.6,4.2-1l0,0l0,0h-0.9c-0.4,0-0.7-0.1-0.9-0.4
				c-0.2-0.3-0.4-0.6-0.3-1l0.5-5.4c0-0.1,0-0.2-0.2-0.1l0,0c-0.1,0-0.2,0-0.3,0c-0.3,0-0.5-0.1-0.8-0.2c-0.4-0.2-0.6-0.5-0.8-0.8
				c-0.1-0.1-0.1-0.2-0.2-0.3c-0.1-0.2-0.1-0.3-0.1-0.4s0.1-0.2,0.1-0.4c0.1-0.3,0.4-0.4,0.7-0.5c1.9-0.3,3.3-0.7,4.2-1.2
				c0,0,0,0,0-0.1c0,0,0,0-0.1,0h-1.2l0,0c-0.1,0.1-0.1,0.1-0.2,0.1l-1.6-0.1c-0.3,0-0.6-0.2-0.8-0.4c-0.1-0.2-0.1-0.4-0.1-0.5
				s0-0.3,0.1-0.4c0.3-0.6,0.6-1.3,0.9-2c0.1-0.4,0.4-0.7,0.7-1s0.7-0.4,1.1-0.4h2.9c0.1,0,0.2-0.1,0.2-0.2v-0.4
				c0-0.1,0-0.2-0.2-0.2h-4.1c-0.3,0-0.5-0.1-0.7-0.3c-0.2-0.2-0.3-0.4-0.2-0.7c0-0.3,0.1-0.5,0.4-0.7c0.2-0.2,0.5-0.3,0.7-0.3h4.2
				c0.1,0,0.1,0,0.1-0.1c0-0.2,0.1-0.4,0.3-0.6c0.2-0.2,0.4-0.2,0.6-0.2h1.5c0.2,0,0.4,0.1,0.6,0.2c0.1,0.2,0.2,0.4,0.2,0.6
				c0,0.1,0,0.1,0.1,0.1h1.9c0.1,0,0.1,0,0.1-0.1c0-0.2,0.1-0.4,0.3-0.6c0.2-0.2,0.4-0.2,0.6-0.2h1.7c0.2,0,0.4,0.1,0.5,0.2
				c0.1,0.2,0.2,0.4,0.2,0.6c0,0.1,0,0.1,0.1,0.1h3.5c0.4,0,0.7,0.1,0.9,0.4c0.2,0.3,0.3,0.6,0.3,1l-0.2,1.9c0,0.4-0.2,0.7-0.5,1
				s-0.6,0.4-1,0.4h-3.4c-0.1,0-0.2,0.1-0.2,0.2v0.4c0,0.1,0,0.2,0.2,0.2h5c0.4,0,0.7,0.1,0.9,0.4c0.2,0.3,0.3,0.5,0.3,0.9
				c-0.1,1.2-0.4,2.1-0.9,2.6c-0.4,0.4-0.9,0.6-1.6,0.7H385c-0.1,0-0.2,0.1-0.2,0.2L383.9,115.3z M370.7,103.1
				c-0.1,0-0.2,0.1-0.2,0.2l-0.2,0.4v0.1l0.1,0.1h1.7c0.1,0,0.2-0.1,0.2-0.2s0-0.2,0.1-0.4c0-0.1,0-0.2-0.1-0.2H370.7z M380.5,114.2
				c0-0.1,0-0.2-0.2-0.2h-9c-0.1,0-0.2,0.1-0.2,0.2v0.4c0,0.1,0,0.2,0.2,0.2h9c0.1,0,0.2-0.1,0.2-0.2V114.2z M380.7,111.8
				c0-0.1,0-0.2-0.2-0.2h-9c-0.1,0-0.2,0.1-0.2,0.2v0.3c0,0.1,0,0.2,0.2,0.2h9c0.1,0,0.2-0.1,0.2-0.2V111.8z M380.9,109.4
				c0-0.1,0-0.2-0.2-0.2h-9c-0.1,0-0.2,0.1-0.2,0.2v0.3c0,0.1,0,0.2,0.2,0.2h9c0.1,0,0.2-0.1,0.2-0.2V109.4z M377.4,106
				c0-0.1,0-0.2-0.1-0.2H375c-0.1,0-0.2,0.1-0.3,0.2c-0.2,0.4-0.5,0.8-0.8,1.1c0,0,0,0,0,0.1c0,0,0,0,0.1,0h3.1
				c0.1,0,0.2-0.1,0.2-0.2L377.4,106z M377.4,103.9c0.1,0,0.2-0.1,0.2-0.2v-0.4c0-0.1,0-0.2-0.1-0.2h-1.8c-0.1,0-0.2,0.1-0.2,0.2
				c0,0,0,0.1,0,0.2s0,0.1,0,0.2s0,0.2,0.1,0.2C375.6,103.9,377.4,103.9,377.4,103.9z M376,100.4c-0.1,0-0.2,0.1-0.2,0.2v0.4
				c0,0.1,0,0.2,0.2,0.2h1.8c0.1,0,0.2-0.1,0.2-0.2v-0.4c0-0.1,0-0.2-0.1-0.2H376z M383.8,106L383.8,106l-0.1-0.1h-2.8
				c-0.1,0-0.2,0.1-0.2,0.2l-0.1,1.1c0,0.1,0,0.2,0.2,0.2h1.4c0.1,0,0.1,0,0.1-0.1c0-0.2,0-0.3,0.1-0.5c0.1-0.1,0.3-0.2,0.5-0.2
				c0.1,0,0.2,0,0.3,0c0.2,0,0.3,0,0.4,0s0.2-0.1,0.2-0.3C383.8,106.1,383.8,106.1,383.8,106z M383,100.6c0-0.1,0-0.2-0.1-0.2h-1.5
				c-0.1,0-0.2,0.1-0.2,0.2v0.4c0,0.1,0,0.2,0.2,0.2h1.5c0.1,0,0.2-0.1,0.2-0.2L383,100.6z"/>
			<path class="st11" d="M393.3,98.9c0.2-0.4,0.4-0.6,0.8-0.8c0.2-0.1,0.5-0.2,0.7-0.2c0.1,0,0.3,0,0.4,0l0.5,0.2
				c0.4,0.1,0.6,0.3,0.8,0.7c0.1,0.2,0.1,0.4,0.1,0.6s0,0.3-0.1,0.4c-0.5,1.1-1,2.2-1.6,3.2c-0.1,0.1-0.1,0.2-0.1,0.4l-1.4,15.6
				c0,0.4-0.2,0.7-0.5,1s-0.6,0.4-1,0.4h-0.5c-0.4,0-0.7-0.1-0.9-0.4s-0.3-0.6-0.3-1l0.8-9.7v-0.1h-0.1c0,0,0,0.1-0.1,0.1
				c-0.2,0.2-0.4,0.3-0.6,0.3h-0.1c-0.3,0-0.5-0.2-0.6-0.5c-0.1-0.5-0.3-0.9-0.4-1.3c-0.1-0.3-0.2-0.6-0.1-0.9c0-0.1,0-0.2,0-0.3
				c0.1-0.4,0.3-0.8,0.5-1.1C391,103.6,392.3,101.4,393.3,98.9z M407.1,113.5c0.1,0,0.2,0,0.3,0c0.2,0,0.4,0.1,0.6,0.2l0.6,0.3
				c0.3,0.2,0.4,0.4,0.5,0.7c0,0.1,0,0.1,0,0.2c0,0.2-0.1,0.4-0.3,0.6c-0.6,0.6-1.3,1.2-2.1,1.7c0,0,0,0,0,0.1c0,0,0,0,0.1,0
				c0.9,0.1,1.9,0.2,3,0.3c0.3,0,0.5,0.2,0.5,0.4c0.1,0.1,0.1,0.2,0.1,0.3c0,0.1-0.1,0.3-0.2,0.4s-0.2,0.3-0.3,0.4
				c-0.3,0.4-0.6,0.6-1,0.8c-0.3,0.2-0.6,0.2-1,0.2c-0.1,0-0.2,0-0.2,0c-2-0.2-3.7-0.6-5.1-1.1c-0.1,0-0.2,0-0.3,0
				c-1.5,0.5-3.2,0.9-5.1,1.2c-0.1,0-0.2,0-0.3,0c-0.3,0-0.6-0.1-0.8-0.2c-0.3-0.2-0.6-0.5-0.8-0.8c0-0.1-0.1-0.1-0.1-0.2
				c-0.1-0.1-0.1-0.3-0.1-0.4s0-0.2,0.1-0.4c0.1-0.3,0.4-0.4,0.7-0.4c1.2-0.1,2.3-0.3,3.2-0.5c0,0,0.1,0,0.1-0.1v-0.1
				c-0.3-0.2-0.6-0.5-0.8-0.7c-0.1-0.1-0.2-0.1-0.3,0c-0.1,0.1-0.3,0.1-0.4,0.2c-0.2,0.1-0.4,0.1-0.6,0.1s-0.3,0-0.5-0.1
				c-0.4-0.1-0.7-0.3-0.9-0.7l0,0c-0.1-0.2-0.2-0.3-0.2-0.5c0-0.1,0-0.1,0-0.2c0.1-0.3,0.3-0.5,0.6-0.6c1.8-0.6,3.2-1.2,4.3-2.1
				c0.1-0.1,0.1-0.1,0-0.2c-0.2-0.2-0.3-0.5-0.4-0.8c0,0,0-0.1-0.1-0.1s-0.1,0-0.1,0c-0.3,0.4-0.7,0.7-1,1.1c-0.3,0.3-0.6,0.4-1,0.4
				l0,0c-0.4,0-0.7-0.1-1-0.4l0,0c-0.2-0.2-0.3-0.4-0.3-0.7c0-0.3,0.2-0.6,0.4-0.8v-0.1c0,0,0,0-0.1,0h-0.2c-0.4,0-0.7-0.1-0.9-0.4
				c-0.2-0.3-0.4-0.6-0.3-1l0.1-0.8c0-0.4,0.2-0.7,0.5-1s0.6-0.4,1-0.4h0.5c0.1,0,0.2-0.1,0.2-0.2l0.4-4.4c0-0.4,0.2-0.7,0.5-1
				s0.6-0.4,1-0.4h2.3c0.1,0,0.2-0.1,0.2-0.2l0.1-0.3c0-0.1,0-0.2-0.1-0.2h-3.8c-0.3,0-0.6-0.1-0.8-0.4c-0.2-0.2-0.3-0.5-0.3-0.9
				c0-0.3,0.2-0.6,0.4-0.9c0.3-0.2,0.6-0.4,0.9-0.4h12.3c0.3,0,0.6,0.1,0.8,0.4c0.2,0.2,0.3,0.5,0.3,0.9c0,0.3-0.2,0.6-0.4,0.9
				c-0.3,0.2-0.6,0.4-0.9,0.4H406c-0.1,0-0.2,0.1-0.2,0.2l-0.2,0.3v0.1c0,0,0,0,0.1,0h3.4c0.4,0,0.7,0.1,0.9,0.4
				c0.2,0.3,0.3,0.6,0.3,1l-0.4,4.4c0,0.1,0,0.2,0.2,0.2h0.4c0.4,0,0.7,0.1,0.9,0.4c0.2,0.3,0.3,0.6,0.3,1l-0.1,0.8
				c0,0.4-0.2,0.7-0.5,0.9c-0.3,0.3-0.6,0.4-1,0.4H410v0.1c0,0,0,0,0,0.1c0.1,0.2,0.2,0.4,0.2,0.6c0,0.1,0,0.2-0.1,0.3
				c-0.1,0.3-0.3,0.6-0.6,0.7c-0.2,0.1-0.4,0.1-0.6,0.1c-0.1,0-0.2,0-0.4,0c-0.3-0.1-0.6-0.3-0.8-0.6c-0.1-0.2-0.2-0.3-0.3-0.5
				c0,0,0,0-0.1,0s-0.1,0-0.1,0.1c-0.2,0.4-0.5,0.7-0.8,0.9c-0.4,0.2-0.9,0.3-1.5,0.3h-1.4c-0.1,0-0.2,0-0.3,0.1
				c-0.1,0.1-0.2,0.2-0.3,0.3v0.1c0,0,0,0,0.1,0h4C407,113.5,407,113.5,407.1,113.5z M398.2,109.7c0.1-0.1,0.1-0.1,0.2,0l1.3,0.7
				c0.1,0,0.1,0,0.1,0c0-0.2,0.1-0.4,0.3-0.5c0.2-0.2,0.3-0.2,0.5-0.2h1.5h0.1c0,0,0,0,0-0.1c-0.1-0.1-0.2-0.1-0.3-0.1h-3.5
				C398.3,109.5,398.2,109.6,398.2,109.7L398.2,109.7z M400.8,106.9c-0.1,0-0.2,0.1-0.2,0.2v0.3c0,0.1,0,0.2,0.2,0.2h5.6
				c0.1,0,0.2-0.1,0.2-0.2v-0.3c0-0.1,0-0.2-0.2-0.2H400.8z M406.5,105.6c0.1,0,0.2-0.1,0.2-0.2v-0.3c0-0.1,0-0.2-0.1-0.2H401
				c-0.1,0-0.2,0.1-0.2,0.2v0.3c0,0.1,0,0.2,0.2,0.2H406.5z M406.9,103.3c0-0.1,0-0.2-0.1-0.2h-5.6c-0.1,0-0.2,0.1-0.2,0.2v0.2
				c0,0.1,0,0.2,0.2,0.2h5.6c0.1,0,0.2-0.1,0.2-0.2L406.9,103.3z M404.6,115.5C404.6,115.5,404.6,115.4,404.6,115.5
				C404.6,115.4,404.6,115.4,404.6,115.5l-3.5-0.1H401c0,0,0,0,0,0.1c0.4,0.3,1,0.6,1.5,0.8c0.1,0,0.2,0,0.3,0
				C403.6,116,404.1,115.7,404.6,115.5z M402.6,109.9L402.6,109.9c-0.1,0-0.1,0-0.1,0l-0.1,0.7c0,0.2,0,0.4,0.1,0.5s0.3,0.1,0.5,0.1
				h0.3h0.1v-0.1C403.3,110.7,403,110.3,402.6,109.9z M403.9,111.1L403.9,111.1C403.9,111.2,403.9,111.2,403.9,111.1l0.8,0.1
				c0.2,0,0.4,0,0.5-0.1c0.2-0.2,0.4-0.3,0.6-0.3h0.1c0.3,0.1,0.5,0.2,0.9,0.3l0,0l0,0c-0.1-0.1-0.1-0.3-0.1-0.4
				c0-0.2,0.1-0.3,0.3-0.4l1.3-0.6l0.1-0.1c0-0.1,0-0.1-0.1-0.1h-3l0,0c0,0,0,0,0,0.1c0.1,0.2,0.2,0.4,0.1,0.6s-0.2,0.4-0.4,0.5
				L403.9,111.1z"/>
			<path class="st11" d="M415.7,118.6c-0.2,0.3-0.5,0.5-0.9,0.6c-0.1,0-0.3,0-0.4,0c-0.2,0-0.5-0.1-0.7-0.2l-0.6-0.4
				c-0.3-0.2-0.5-0.4-0.5-0.8c0-0.1,0-0.2,0-0.3c0-0.2,0.1-0.5,0.3-0.7c0.4-0.6,0.8-1.2,1.1-1.8c0.2-0.3,0.5-0.6,0.8-0.8
				c0.2-0.1,0.4-0.1,0.5-0.1s0.3,0,0.5,0.1l0.5,0.2c0.3,0.2,0.6,0.4,0.7,0.8c0.1,0.2,0.1,0.4,0.1,0.6s-0.1,0.3-0.1,0.5
				C416.5,117.2,416.1,117.9,415.7,118.6z M422.5,102c0.1,0,0.2-0.1,0.2-0.2v-0.4c0-0.1,0-0.2-0.2-0.2h-7c-0.4,0-0.7-0.1-0.9-0.4
				s-0.3-0.6-0.3-0.9c0-0.4,0.2-0.7,0.5-1s0.6-0.4,1-0.4h7.1c0.1,0,0.1,0,0.1-0.1c0-0.2,0.1-0.4,0.3-0.6c0.2-0.2,0.4-0.3,0.6-0.3
				h1.9c0.2,0,0.4,0.1,0.6,0.3c0.2,0.2,0.2,0.4,0.2,0.6c0,0.1,0,0.1,0.1,0.1h7.4c0.4,0,0.7,0.1,0.9,0.4c0.2,0.3,0.3,0.6,0.3,1
				s-0.2,0.7-0.5,0.9s-0.6,0.4-1,0.4h-7.3c-0.1,0-0.2,0.1-0.2,0.2v0.4c0,0.1,0,0.2,0.1,0.2h5.6c0.4,0,0.7,0.1,0.9,0.4
				c0.2,0.3,0.4,0.6,0.3,1L433,108c0,0.4-0.2,0.7-0.5,1s-0.6,0.4-1,0.4h-0.2l0,0c0,0,0,0,0,0.1c0.8,0.5,1.6,1.1,2.3,1.7
				c0.2,0.2,0.3,0.5,0.3,0.8c0,0.4-0.2,0.7-0.6,0.9l-0.5,0.3c-0.2,0.2-0.5,0.2-0.7,0.2H432c-0.3,0-0.6-0.2-0.8-0.4
				c-0.1-0.1-0.2-0.1-0.2-0.1c-2.4,0.1-4.3,0.1-5.6,0.1h-0.1v0.1c0.4,0.3,0.7,0.6,1,0.9c0.2,0.2,0.4,0.5,0.3,0.8
				c0,0.4-0.2,0.8-0.6,1l-0.3,0.2c-0.3,0.2-0.6,0.3-0.9,0.3h-0.1c-0.4,0-0.7-0.2-0.9-0.5c-0.4-0.4-0.8-0.9-1.3-1.3
				c-0.2-0.2-0.3-0.5-0.3-0.8s0.2-0.6,0.4-0.8c0-0.1,0-0.1,0-0.1c-1.7,0-4.2,0.1-7.6,0.1l0,0c-0.4,0-0.7-0.1-0.9-0.4
				c-0.3-0.3-0.4-0.6-0.4-1v-0.1c0-0.4,0.1-0.7,0.4-1s0.6-0.4,1-0.4c0,0,1,0,2.7,0s3.1,0,4.1,0c0.1,0,0.2-0.1,0.2-0.2l0.1-0.7
				c0-0.1,0-0.2-0.2-0.2h-5.6c-0.4,0-0.7-0.1-1-0.4c-0.2-0.3-0.3-0.6-0.3-1l0.4-4.6c0-0.4,0.2-0.7,0.5-1s0.6-0.4,1-0.4h5.5V102z
				 M434.1,117.5c0,0.2,0,0.3,0,0.4c0,0.2-0.1,0.4-0.2,0.6c-0.2,0.3-0.5,0.6-0.9,0.7l-0.6,0.2c-0.1,0-0.3,0.1-0.4,0.1
				c-0.2,0-0.4-0.1-0.6-0.2c-0.3-0.2-0.5-0.4-0.6-0.8s-0.3-0.9-0.4-1.3c0,0,0,0-0.1,0c0,0,0,0-0.1,0c-0.3,1.1-0.8,1.8-1.4,2.2
				s-1.5,0.6-2.8,0.6h-4.3c-1.8,0-3-0.2-3.6-0.7s-0.8-1.4-0.7-2.8l0.1-1c0-0.4,0.2-0.7,0.5-1s0.6-0.4,1-0.4h0.7
				c0.4,0,0.7,0.1,0.9,0.4c0.2,0.3,0.3,0.6,0.3,1l-0.1,0.9c0,0.3,0,0.6,0.2,0.6c0.2,0.1,0.6,0.1,1.3,0.1h3.6c0.3,0,0.6,0,0.7-0.1
				c0.2-0.1,0.3-0.2,0.4-0.4c0.2-0.3,0.4-0.5,0.7-0.7c0.2-0.1,0.4-0.1,0.5-0.1s0.2,0,0.3,0.1c0.3,0.1,0.7,0.3,1.1,0.4h0.1v-0.1
				c-0.1-0.2-0.1-0.4-0.1-0.5s0-0.3,0.1-0.4c0.2-0.3,0.4-0.5,0.7-0.7l0.4-0.1c0.2,0,0.4-0.1,0.6-0.1s0.4,0,0.6,0.1
				c0.4,0.1,0.7,0.4,0.9,0.7C433.5,115.9,433.9,116.7,434.1,117.5z M418.3,107.2c0,0.1,0,0.2,0.2,0.2h3.6c0.1,0,0.2-0.1,0.2-0.2
				v-0.4c0-0.1,0-0.2-0.2-0.2h-3.6c-0.1,0-0.2,0.1-0.2,0.2V107.2z M418.8,104c-0.1,0-0.2,0.1-0.2,0.2v0.4c0,0.1,0,0.2,0.2,0.2h3.6
				c0.1,0,0.2-0.1,0.2-0.2v-0.4c0-0.1,0-0.2-0.2-0.2H418.8z M425.6,110.3c0,0.1,0,0.2,0.1,0.2h1.9l0,0c-0.1-0.1-0.2-0.2-0.2-0.3
				c0-0.1,0.1-0.3,0.2-0.3l0.4-0.3c0,0,0,0,0-0.1s0,0,0,0h-2.3c-0.1,0-0.2,0.1-0.2,0.2L425.6,110.3z M429.4,107.4
				c0.1,0,0.2-0.1,0.2-0.2v-0.4c0-0.1,0-0.2-0.1-0.2h-3.4c-0.1,0-0.2,0.1-0.2,0.2v0.4c0,0.1,0,0.2,0.1,0.2H429.4z M429.8,104.1
				c0-0.1,0-0.2-0.1-0.2h-3.4c-0.1,0-0.2,0.1-0.2,0.2v0.4c0,0.1,0,0.2,0.1,0.2h3.4c0.1,0,0.2-0.1,0.2-0.2V104.1z"/>
			<path class="st11" d="M450.6,101.5c0,0.1,0,0.2,0.1,0.2h6.8c0.4,0,0.7,0.1,1,0.4c0.2,0.3,0.3,0.6,0.3,1l-0.8,9.7
				c0,0.4-0.2,0.7-0.5,1s-0.6,0.4-1,0.4h-1.3c-0.3,0-0.5-0.1-0.7-0.3c-0.2-0.2-0.3-0.4-0.2-0.7c0-0.1,0-0.1-0.1-0.1h-4.3
				c-0.1,0-0.2,0.1-0.2,0.2l-0.5,5.8c0,0.4-0.2,0.7-0.5,1s-0.6,0.4-1,0.4h-0.9c-0.4,0-0.7-0.1-0.9-0.4c-0.3-0.3-0.4-0.6-0.3-1
				l0.5-5.8c0-0.1,0-0.2-0.2-0.2h-4.3c-0.1,0-0.2,0-0.2,0.1c0,0.3-0.2,0.6-0.4,0.8c-0.2,0.2-0.5,0.3-0.8,0.3h-1
				c-0.4,0-0.7-0.1-0.9-0.4c-0.3-0.3-0.4-0.6-0.3-1l0.9-9.8c0-0.4,0.2-0.7,0.5-1s0.6-0.4,1-0.4h6.6c0.1,0,0.2-0.1,0.2-0.2l0.2-2.6
				c0-0.4,0.2-0.7,0.5-1s0.6-0.4,1-0.4h0.9c0.4,0,0.7,0.1,0.9,0.4c0.2,0.3,0.4,0.6,0.3,1L450.6,101.5z M441.6,109.4
				c0,0.1,0,0.2,0.2,0.2h4.3c0.1,0,0.2-0.1,0.2-0.2l0.4-4.1c0-0.1,0-0.2-0.1-0.2h-4.3c-0.1,0-0.2,0.1-0.2,0.2L441.6,109.4z
				 M449.9,109.4c0,0.1,0,0.2,0.1,0.2h4.3c0.1,0,0.2-0.1,0.2-0.2l0.4-4.1c0-0.1,0-0.2-0.1-0.2h-4.3c-0.1,0-0.2,0.1-0.2,0.2
				L449.9,109.4z"/>
		</g>
		<text transform="matrix(0.9962 0 -8.715574e-02 0.9962 83.9582 120.2718)" class="st9"><tspan x="0" y="0" class="st10 st12 st13">線上定期定額 </tspan><tspan x="160.7" y="0" class="st11 st12 st13">手續費優惠</tspan><tspan x="289.3" y="4" class="st11 st12 st14">0</tspan><tspan x="314.7" y="0" class="st11 st12 st13">元起</tspan></text>
		<g>
			<path class="st3" d="M89.5,122.6c-1,0-1.5-0.5-1.4-1.5l0.5-6.1c-0.3,1.6-0.7,3.1-1.2,4.5c-0.2,0.5-0.5,0.8-0.7,0.9
				c-0.3,0.1-0.7,0-1.1-0.2c-0.4-0.2-0.7-0.5-0.8-0.7c-0.1-0.3,0-0.6,0.2-1.1c0.3-0.8,0.5-1.8,0.8-2.8c0.1-0.5,0.3-1,0.7-1.2
				c0.4-0.3,0.8-0.3,1.3-0.3l1.1,0.2l0.1-1.6l-1.7,0.2c-1,0.1-1.6-0.4-1.6-1.4c0-1.1,0.5-1.6,1.6-1.7h0.2c0.1-0.1,0.2-0.3,0.4-0.5
				c0.2-0.3,0.4-0.6,0.6-0.7c-0.4-0.8-0.9-1.6-1.6-2.4c-0.2-0.3-0.3-0.7-0.1-1.3c0.1-0.5,0.4-1,0.7-1.4c0.1-0.2,0.3-0.3,0.5-0.4
				c0.2-0.1,0.4-0.1,0.5,0l0,0c0.5-0.9,0.9-1.8,1.3-2.6c0.2-0.5,0.5-0.9,0.8-1c0.3-0.2,0.7-0.1,1.2,0c1.1,0.4,1.2,1.1,0.6,2.2
				c-1,1.7-1.8,2.8-2.3,3.5c0.1,0.1,0.2,0.3,0.4,0.6c0.5-0.7,1-1.5,1.6-2.4c0.5-0.9,1.2-1.2,2.1-0.7c0.5,0.2,0.8,0.5,0.9,0.9
				c0.1,0.3-0.1,0.8-0.5,1.2c-0.1,0.1-0.2,0.2-0.3,0.4c-1,1.2-1.7,2.2-2.2,2.8l1.1-0.5c0.3-0.1,0.6-0.1,0.8,0
				c0.2,0.1,0.4,0.3,0.6,0.6c0.7,1.6,1.1,3.1,1.3,4.5h2.7l0.3,0c0.1,0,0.2,0,0.3,0l1.2,0.5l0.2-1.9h-3c-0.5,0-0.9-0.1-1.1-0.4
				c-0.3-0.3-0.4-0.7-0.3-1.2l0.6-6.5c0-0.5,0.2-0.9,0.6-1.2c0.3-0.3,0.7-0.4,1.2-0.4h2.2c0.1-0.3,0.2-0.5,0.3-0.6
				c0.5-1.2,1.4-1.8,2.7-1.6c1.4,0.2,1.7,0.9,0.9,2.2h2.3h1.2c0.3,0,0.6,0.1,0.8,0.3c0.2,0.2,0.3,0.5,0.2,0.8l-0.6,7
				c0,0.5-0.2,0.9-0.6,1.2c-0.3,0.3-0.7,0.4-1.2,0.4h-2.8l0,0.1c0.2,0.9,0.4,1.6,0.7,2.4c0.1-0.1,0.2-0.2,0.4-0.4s0.3-0.3,0.4-0.4
				c0.4-0.5,0.9-0.8,1.2-0.8c0.4-0.1,0.8,0.1,1.3,0.5c0.5,0.4,0.7,0.8,0.6,1.2c-0.1,0.4-0.4,0.8-1,1.3c-0.1,0.1-0.3,0.2-0.5,0.4
				c-0.5,0.4-0.8,0.6-1.1,0.8c0.4,0.5,0.9,1,1.3,1.5c0.6,0.4,1,0.8,1.1,1.2c0.1,0.4-0.1,1-0.5,1.5c-0.4,0.5-0.8,0.8-1.2,0.8
				c-0.4,0-0.8-0.2-1.3-0.6c-0.8-0.8-1.4-1.8-2-2.8l-0.1,1.7c-0.1,0.8-0.2,1.4-0.4,1.7c-0.2,0.5-0.5,0.8-1,1
				c-0.5,0.2-1.1,0.4-1.9,0.5c-1.1,0-1.8-0.4-1.9-1.3c-0.2-1.1,0.3-1.7,1.5-1.7c0.2,0,0.4-0.1,0.4-0.3l0.4-4.2
				c-1,2.4-2.3,4.3-3.9,5.7c-0.4,0.3-0.8,0.5-1.2,0.5c-0.3,0-0.7-0.2-1-0.6c-0.4-0.5-0.6-0.9-0.4-1.3c0.1-0.4,0.5-0.8,1.1-1.2
				l-1.3,0.4c-0.4,0.1-0.7,0.1-0.9,0c-0.2-0.1-0.3-0.4-0.4-0.7c-0.1-0.9-0.2-1.8-0.5-2.7l-0.5,6.1C91,122.1,90.5,122.6,89.5,122.6z
				 M90.5,109.5l1.4-0.1c0-0.1-0.1-0.2-0.1-0.4c-0.1-0.3-0.2-0.5-0.3-0.7c-0.1,0.1-0.3,0.3-0.5,0.6c-0.1,0.1-0.1,0.2-0.2,0.3
				C90.6,109.4,90.6,109.5,90.5,109.5z M94.8,117.8c0.7-0.7,1.3-1.5,1.8-2.4h-1c-0.2,0-0.4-0.1-0.6-0.2c-0.1-0.1-0.2-0.4-0.2-0.6
				l0.2-1.8l-1.2,0.5c-0.3,0.1-0.6,0.1-0.8,0c-0.2-0.1-0.3-0.3-0.4-0.6c0-0.1,0-0.2,0-0.3l-0.8,0.1l-0.2,2.1l1.3-0.4
				c0.3-0.1,0.6-0.1,0.9,0c0.3,0.1,0.4,0.3,0.5,0.6c0.1,0.2,0.1,0.6,0.2,1C94.7,116.5,94.8,117.2,94.8,117.8z M99.5,108.3h4.8
				c0.4,0,0.6-0.2,0.7-0.6l0-0.2h-2.9h-2.8l0,0.5C99.2,108.2,99.3,108.3,99.5,108.3z M99.5,104.9h5.7l0-0.5c0-0.2-0.1-0.3-0.3-0.3
				h-2.5h-2.2c-0.4,0-0.6,0.2-0.7,0.6L99.5,104.9z"/>
			<path class="st3" d="M112.4,121.4c-1.2,0-1.8-0.6-1.7-1.8c0.1-1.2,0.8-1.8,2-1.8h6.8l1.5-16.6c0.1-1.3,0.8-1.9,2.1-1.9
				s1.9,0.6,1.8,1.9l-0.4,5h6.7c1.2,0,1.8,0.6,1.7,1.8c-0.1,1.2-0.8,1.9-2,1.9h-6.7l-0.7,8h8.4c1.2,0,1.8,0.6,1.7,1.8
				c-0.1,1.2-0.8,1.8-2,1.8H122H112.4z"/>
			<path class="st3" d="M151.3,122.4c-2.4,0-4.2-0.2-5.6-0.8c-1.6-0.6-2.9-1.7-3.8-3.2c-0.6,1.1-1.3,2.1-2.1,3
				c-0.5,0.5-0.9,0.7-1.4,0.8c-0.4,0-0.8-0.1-1.3-0.5c-0.6-0.5-0.8-1-0.8-1.4c0-0.5,0.4-1,1-1.5c1.2-1.4,2.1-3.3,2.7-5.7
				c0.1-0.7,0.4-1.2,0.8-1.6c0.4-0.4,0.9-0.6,1.5-0.5c1.2,0.1,1.7,0.8,1.4,2.1c-0.1,0.5-0.3,0.9-0.4,1.2c0.5,1.6,1.3,2.7,2.4,3.4
				l0.7-7.8h-3.1c-1.2,0-1.7-0.6-1.6-1.7c0.1-1.2,0.7-1.7,1.9-1.7h4.9h4.9c1.1,0,1.7,0.6,1.6,1.7c-0.1,1.1-0.7,1.7-1.9,1.7h-3
				l-0.2,2.5h4.8c1.1,0,1.6,0.6,1.6,1.7c-0.1,1.1-0.7,1.7-1.8,1.7H150l-0.3,2.9c0.6,0.1,1.3,0.1,2.1,0.1c2,0,3.7,0,4.9,0
				c0.9,0,1.5,0.1,1.8,0.4c0.3,0.3,0.3,0.9-0.1,1.7c-0.2,0.5-0.5,0.9-0.9,1.2c-0.4,0.2-0.9,0.3-1.5,0.3H151.3z M139.8,108
				c-1.2,0-1.7-0.6-1.6-1.8l0.3-3.3c0-0.5,0.2-0.9,0.6-1.2c0.3-0.3,0.7-0.5,1.2-0.5h7.2l0-0.4c0.1-1.3,0.8-1.9,2.1-1.9
				s1.9,0.6,1.8,1.9l0,0.4h7.3c0.5,0,0.9,0.2,1.1,0.5c0.3,0.3,0.4,0.7,0.3,1.2l-0.3,3.3c-0.1,1.2-0.8,1.9-2,1.9
				c-1.2,0-1.8-0.6-1.7-1.9l0.1-1.5H149h-6.6c-0.4,0-0.6,0.2-0.7,0.6l-0.1,0.9C141.6,107.4,140.9,108,139.8,108z"/>
			<path class="st3" d="M178.4,121.2c-0.2-0.7-0.1-1.3,0.3-1.6c0.3-0.3,0.9-0.4,1.7-0.4c0.3,0,0.5-0.2,0.5-0.5l0.4-4.3h-2.9
				c-0.5,2.7-1.2,5-2,6.7c-0.2,0.4-0.6,0.7-1,0.8s-0.8-0.1-1.2-0.4c-0.5-0.4-1-0.7-1.3-0.8l-1.1,0.7c-0.3,0.2-0.6,0.2-0.9,0.2
				c-0.3-0.1-0.5-0.2-0.6-0.4c-0.2-0.3-0.5-0.8-0.9-1.5c-0.3-0.5-0.5-0.9-0.4-1.3c0.1-0.4,0.4-0.8,0.9-1l0.8-0.4h-6l1.7,0.5
				c0.5,0.1,0.7,0.4,0.8,0.7s0,0.7-0.2,1.2c-0.6,0.9-1.3,1.7-2,2.5c-0.4,0.4-0.8,0.6-1.2,0.6c-0.4,0-0.8-0.1-1.2-0.4
				c-0.5-0.4-0.8-0.9-0.7-1.3c0.1-0.4,0.4-0.9,1-1.4c0.7-0.7,1.3-1.5,1.8-2.3h-1.3c-1,0-1.5-0.5-1.4-1.6c0.1-1,0.7-1.6,1.7-1.6h0.5
				l0.8-8.8h-0.3c-1,0-1.5-0.5-1.4-1.6s0.7-1.6,1.7-1.6h0.3l0.1-0.9c0.1-1.1,0.7-1.6,1.8-1.6c1.1,0,1.6,0.5,1.5,1.6l-0.1,0.9h2.3
				l0.1-0.8c0.1-1.1,0.7-1.6,1.8-1.6c1.1,0,1.6,0.5,1.5,1.6l-0.1,0.8h0c1,0,1.5,0.5,1.4,1.6s-0.7,1.6-1.7,1.6h0l-0.8,8.8h0
				c0.4,0,0.7,0.1,0.9,0.4c0.2,0.3,0.3,0.6,0.2,1c-0.1,1.1-0.7,1.7-1.7,1.7h-1.2c0.6,0.8,1.2,1.5,1.8,2.3c0.2,0.3,0.4,0.3,0.5-0.1
				c0.9-2.2,1.6-5.5,2-9.8l0.7-7.6c0-0.5,0.2-0.9,0.6-1.2s0.7-0.5,1.2-0.5h3.2h3.2c0.5,0,0.9,0.2,1.1,0.5s0.4,0.7,0.3,1.2l-1.5,17.2
				c-0.1,0.9-0.2,1.5-0.5,2c-0.2,0.5-0.6,0.9-1.1,1.2c-0.6,0.3-1.3,0.5-2.3,0.6C179.3,122.6,178.6,122.2,178.4,121.2z M167.5,113.6
				h2.3l0.1-1.2h-1.1h-1.2L167.5,113.6z M167.9,109.7h2.3l0.1-1.1h-1.1H168L167.9,109.7z M168.2,105.8h1.2h1.1l0.1-1h-2.3
				L168.2,105.8z M178.9,111.2h2.8l0.2-2.5h-2.7l0,0.5c0,0.3-0.1,0.6-0.1,1C178.9,110.6,178.9,111,178.9,111.2z M179.4,105.5h1.3
				h1.4l0.2-1.7c0-0.4-0.1-0.6-0.5-0.6h-1.5c-0.4,0-0.6,0.2-0.7,0.6L179.4,105.5z"/>
			<path class="st3" d="M202.6,122.4c-2.4,0-4.2-0.2-5.6-0.8c-1.6-0.6-2.9-1.7-3.8-3.2c-0.6,1.1-1.3,2.1-2.1,3
				c-0.5,0.5-0.9,0.7-1.4,0.8c-0.4,0-0.8-0.1-1.3-0.5c-0.6-0.5-0.8-1-0.8-1.4c0-0.5,0.4-1,1-1.5c1.2-1.4,2.1-3.3,2.7-5.7
				c0.1-0.7,0.4-1.2,0.8-1.6c0.4-0.4,0.9-0.6,1.5-0.5c1.2,0.1,1.7,0.8,1.4,2.1c-0.1,0.5-0.3,0.9-0.4,1.2c0.5,1.6,1.3,2.7,2.4,3.4
				l0.7-7.8h-3.1c-1.2,0-1.7-0.6-1.6-1.7c0.1-1.2,0.7-1.7,1.9-1.7h4.9h4.9c1.1,0,1.7,0.6,1.6,1.7c-0.1,1.1-0.7,1.7-1.9,1.7h-3
				l-0.2,2.5h4.8c1.1,0,1.6,0.6,1.6,1.7c-0.1,1.1-0.7,1.7-1.8,1.7h-4.8l-0.3,2.9c0.6,0.1,1.3,0.1,2.1,0.1c2,0,3.7,0,4.9,0
				c0.9,0,1.5,0.1,1.8,0.4c0.3,0.3,0.3,0.9-0.1,1.7c-0.2,0.5-0.5,0.9-0.9,1.2c-0.4,0.2-0.9,0.3-1.5,0.3H202.6z M191,108
				c-1.2,0-1.7-0.6-1.6-1.8l0.3-3.3c0-0.5,0.2-0.9,0.6-1.2c0.3-0.3,0.7-0.5,1.2-0.5h7.2l0-0.4c0.1-1.3,0.8-1.9,2.1-1.9
				s1.9,0.6,1.8,1.9l0,0.4h7.3c0.5,0,0.9,0.2,1.1,0.5c0.3,0.3,0.4,0.7,0.3,1.2l-0.3,3.3c-0.1,1.2-0.8,1.9-2,1.9
				c-1.2,0-1.8-0.6-1.7-1.9l0.1-1.5h-7.2h-6.6c-0.4,0-0.6,0.2-0.7,0.6l-0.1,0.9C192.8,107.4,192.2,108,191,108z"/>
			<path class="st3" d="M224.2,122.2c-0.4-0.1-0.6-0.2-0.9-0.5c-0.1-0.1-0.2-0.2-0.4-0.4c-0.1-0.1-0.2-0.2-0.2-0.2l0,0.1H216
				c-0.5,0-0.9-0.1-1.1-0.4c-0.3-0.3-0.4-0.7-0.3-1.2l0.3-3.8l-0.1,0c-0.1,0-0.1,0-0.2-0.1c-0.4-0.6-0.5-1.2-0.5-1.9
				c0-0.7,0.4-1.2,1-1.4c0.8-0.4,1.6-0.8,2.4-1.4l-1.2-0.8c-0.5,0.4-1,0.3-1.4-0.1c-0.4-0.5-0.6-0.9-0.6-1.4c0-0.4,0.3-0.9,0.9-1.2
				c1-0.8,1.8-1.7,2.6-2.7c0.2-0.4,0.6-0.6,1-0.8c0.4-0.1,0.9-0.1,1.3,0c0.3,0.1,0.6,0.2,0.7,0.5c0.1,0.2,0.1,0.5,0,0.8h2.5
				c0.6,0,0.9,0.2,1.1,0.5c0.2,0.4,0.2,0.9-0.1,1.5c-0.5,1.1-1.2,2.2-2.1,3.3c0.8,0.5,1.4,1,1.9,1.3c0.3,0.2,0.5,0.6,0.5,1
				c0,0.4-0.2,0.8-0.5,1.2l-0.8,0.9l-0.4,4.9c1.7-0.8,3.1-1.6,4.1-2.5h-1c-0.6,0-0.8-0.3-0.8-0.8l1-10.9c0-0.5,0.2-0.9,0.6-1.2
				c0.3-0.3,0.7-0.5,1.2-0.5h1.4c0.1-0.5,0.3-1,0.3-1.3h-3.8l-0.1,0.9c-0.1,1-0.6,1.5-1.6,1.5c-1,0-1.5-0.5-1.4-1.5l0,0H218
				c-0.4,0-0.6,0.2-0.7,0.6l0,0.6c0,0.2-0.2,0.4-0.4,0.4h-0.3c-1.4,0-2.1-0.7-2-2.1c0.1-1.4,0.9-2.2,2.3-2.2h1.7l0-0.2
				c0.1-1.1,0.7-1.7,1.8-1.7c1.1,0,1.6,0.6,1.5,1.7l0,0.2h3.9l0.1-0.6c0-0.3,0.2-0.5,0.5-0.5h5.4h4.3c1,0,1.5,0.5,1.4,1.5
				c-0.1,1-0.6,1.5-1.7,1.5h-2.5c-0.1,0.3-0.4,0.7-0.6,1.3h2.5c0.5,0,0.9,0.2,1.1,0.5c0.3,0.3,0.4,0.7,0.3,1.2l-0.9,10.1
				c0,0.5-0.2,0.9-0.6,1.2c-0.3,0.3-0.7,0.4-1.2,0.4h-6.8l1.3,0.9c0.3,0.2,0.5,0.5,0.5,0.9c0,0.3-0.2,0.6-0.5,0.9
				c-0.9,0.7-2.1,1.4-3.3,2C225,122.3,224.6,122.3,224.2,122.2z M218.2,118.5h0.5h0.7c0.3,0,0.5-0.2,0.5-0.5l0.1-1.1h-2.3l-0.1,1
				C217.7,118.3,217.8,118.5,218.2,118.5z M218.1,114.2h3.3c-0.2-0.1-0.4-0.3-0.7-0.6c0,0-0.1-0.1-0.2-0.1c-0.3-0.2-0.5-0.4-0.7-0.5
				C219.1,113.5,218.5,113.9,218.1,114.2z M219.8,109.1c0-0.1,0.1-0.1,0.2-0.2c0.2-0.2,0.3-0.4,0.4-0.5c0.1-0.2,0.3-0.4,0.5-0.7
				h-1.9c-0.1,0.1-0.2,0.2-0.3,0.3c-0.1,0.1-0.1,0.1-0.1,0.1L219.8,109.1z M229,114.9h1.5h1.4c0.4,0,0.6-0.2,0.7-0.6l0-0.5h-4
				l-0.1,0.6C228.5,114.7,228.7,114.9,229,114.9z M228.8,111.3h2h2l0.1-1h-4L228.8,111.3z M229.1,107.8h2h2l0.1-0.6
				c0-0.3-0.1-0.5-0.4-0.5h-3c-0.4,0-0.6,0.2-0.7,0.6L229.1,107.8z M232.9,121.6c-0.1-0.1-0.2-0.2-0.3-0.3c-0.1-0.1-0.2-0.2-0.3-0.3
				c-0.1-0.1-0.2-0.2-0.3-0.3c-0.1-0.1-0.2-0.2-0.3-0.3c-0.9-0.8-0.7-1.5,0.4-2.2c0.7-0.4,1.3-0.4,1.9,0c0.1,0.1,0.1,0.1,0.3,0.2
				c0.7,0.6,1.1,1,1.4,1.2c0.4,0.4,0.6,0.8,0.5,1.1c-0.1,0.3-0.4,0.7-0.9,1C234.2,122.4,233.5,122.3,232.9,121.6z"/>
			<path class="st15" d="M250.3,121.3c-0.2-0.8-0.1-1.3,0.3-1.7c0.4-0.3,1.1-0.5,2-0.4c0.5,0,0.9,0,1.4,0c0.5,0,0.8-0.2,0.9-0.7
				l0.3-3.2h-7.8c-1.2,0-1.7-0.6-1.6-1.8c0.1-1.2,0.7-1.8,1.9-1.8h3h4.8l0.2-2.3h-6.2c-1.2,0-1.7-0.6-1.6-1.8
				c0.1-1.1,0.7-1.7,1.9-1.7h6.2l0.2-2.4c-2,0.2-3.9,0.3-5.9,0.4c-1,0-1.6-0.4-1.8-1.4c-0.1-0.6,0-1.1,0.3-1.4
				c0.3-0.3,0.8-0.4,1.5-0.5c5.4-0.3,10-0.8,13.7-1.6c0.4-0.1,0.8-0.1,1.1,0.1c0.3,0.1,0.5,0.4,0.8,0.8c0.5,0.7,0.7,1.2,0.5,1.6
				c-0.1,0.4-0.6,0.7-1.5,0.9c-1.5,0.3-3.2,0.5-5.1,0.8l-0.2,2.8h6.3c1.1,0,1.7,0.6,1.6,1.7c-0.1,1.2-0.7,1.8-1.9,1.8h-6.3l-0.2,2.3
				h7.8c1.2,0,1.7,0.6,1.6,1.8c-0.1,1.2-0.7,1.8-1.9,1.8h-7.8l-0.3,3.2c-0.1,1-0.3,1.8-0.6,2.3c-0.3,0.5-0.8,0.9-1.5,1.2
				c-0.9,0.4-2.1,0.5-3.8,0.6C251.4,122.7,250.6,122.2,250.3,121.3z"/>
			<path class="st15" d="M274.9,122.6c-1,0-1.5-0.5-1.4-1.5l0.5-5.6c-0.3,1.4-0.6,2.7-1.1,3.9c-0.2,0.5-0.4,0.7-0.7,0.8
				c-0.3,0.1-0.6,0-1.1-0.2c-0.4-0.2-0.7-0.5-0.8-0.7c-0.1-0.3,0-0.6,0.2-1.1c0.3-0.8,0.5-1.8,0.8-2.8c0.1-0.5,0.3-1,0.7-1.2
				c0.4-0.3,0.8-0.3,1.3-0.3l0.9,0.2l0.1-1.5l-1.5,0.1c-1,0.1-1.5-0.4-1.5-1.3c0-1,0.5-1.6,1.5-1.6c0,0,0.1,0,0.1,0
				c0.4-0.5,0.7-1,1.1-1.4c-0.4-0.7-0.9-1.5-1.6-2.4c-0.2-0.3-0.3-0.8-0.1-1.4c0.2-0.5,0.4-1,0.8-1.4c0.1-0.1,0.2-0.2,0.4-0.3
				c0.2-0.1,0.3-0.1,0.4,0l0,0c0.3-0.6,0.8-1.4,1.3-2.6c0.2-0.5,0.5-0.9,0.8-1c0.3-0.2,0.7-0.2,1.2,0c1,0.3,1.2,1,0.5,2.1
				c-1,1.6-1.7,2.8-2.2,3.4c0,0.1,0.1,0.2,0.2,0.2c0.1,0.2,0.2,0.3,0.2,0.4c0.5-0.7,0.9-1.5,1.4-2.3c0.3-0.5,0.6-0.8,0.9-0.9
				c0.3-0.1,0.7-0.1,1.2,0.1c1,0.4,1.1,1.1,0.4,2.1c-0.5,0.7-1.2,1.7-2.2,3l1-0.3c0.5-0.2,0.9,0,1,0.4c0.4,1.4,0.7,2.6,0.9,3.9
				c0,0.6-0.4,1.1-1.3,1.4c-0.3,0.1-0.6,0.1-0.8,0.1c-0.3-0.1-0.4-0.3-0.4-0.6c0,0,0,0,0,0l-0.6,0l-0.2,1.8l1.1-0.3
				c0.3-0.1,0.5-0.1,0.8,0c0.2,0.1,0.4,0.3,0.4,0.6c0.1,0.5,0.3,1.2,0.4,2c0.1,0.7-0.2,1.2-1,1.4c-0.9,0.3-1.4,0-1.5-0.9
				c-0.1-0.8-0.2-1.4-0.3-1.8l-0.3,3.6l-0.2,2.2C276.5,122.2,275.9,122.6,274.9,122.6z M275.9,109.8l1.6-0.1c0-0.1-0.1-0.3-0.2-0.6
				c-0.1-0.4-0.2-0.6-0.2-0.8c-0.1,0.1-0.2,0.2-0.3,0.4c-0.1,0.2-0.2,0.3-0.3,0.4c-0.1,0.1-0.2,0.2-0.3,0.4
				C276.1,109.6,276,109.7,275.9,109.8z M279.4,121.9c-0.9-0.9-0.7-1.6,0.7-2c0.5-0.2,1.2-0.5,2-0.8h-0.8c-0.4,0-0.6-0.2-0.5-0.6
				l0.5-5.6c0-0.5,0.2-0.9,0.6-1.2c0.3-0.3,0.7-0.5,1.2-0.5h4.3h4.3c0.5,0,0.9,0.2,1.1,0.5c0.3,0.3,0.4,0.7,0.3,1.2l-0.4,4.6
				c0,0.5-0.2,0.9-0.6,1.2c-0.3,0.3-0.7,0.5-1.2,0.5h-0.1c0.7,0.3,1.2,0.6,1.5,0.8c0.7,0.3,1,0.7,0.9,1c0,0.3-0.4,0.7-1.1,1.1
				c-0.4,0.2-0.7,0.4-1,0.4c-0.3,0-0.6-0.1-1-0.3c-0.6-0.4-1.2-0.8-2-1.2c-0.4-0.2-0.6-0.5-0.7-0.8c0-0.3,0.2-0.6,0.6-0.9l0.1,0
				h-3.6l0.8,0.5c0.4,0.3,0.4,0.6,0,0.9c-1.4,0.7-2.8,1.3-4.2,1.8C280.4,122.5,279.8,122.4,279.4,121.9z M282.1,110.7
				c-0.5,0-0.9-0.1-1.1-0.5c-0.3-0.3-0.4-0.7-0.3-1.2l0.2-2.1c0-0.5,0.2-0.9,0.6-1.2c0.3-0.3,0.7-0.5,1.2-0.5H293
				c0.5,0,0.9,0.2,1.1,0.5c0.3,0.3,0.4,0.7,0.3,1.2l-0.2,2.1c0,0.5-0.2,0.9-0.6,1.2c-0.3,0.3-0.7,0.5-1.2,0.5h-5.2H282.1z
				 M282.8,104.8c-0.7,0-1-0.3-0.9-1c0.1-0.7,0.4-1,1.1-1h3.1l0-0.4c0-0.1,0-0.2-0.2-0.2h-4c-0.7,0-1-0.4-1-1.1c0.1-0.7,0.4-1,1.1-1
				h4.2l0-0.1c0-0.3,0.3-0.6,0.7-0.8c0.4-0.2,0.8-0.3,1.2-0.3c0.4,0,0.8,0.1,1.1,0.3c0.4,0.2,0.6,0.5,0.5,0.8l0,0.1h4.5
				c0.7,0,1,0.3,1,1c-0.1,0.7-0.4,1.1-1.1,1.1h-4c-0.3,0-0.5,0.2-0.5,0.5l0,0.1h3.5c0.7,0,1,0.3,0.9,1c-0.1,0.7-0.4,1-1.1,1h-5.1
				H282.8z M283.8,109h0.4c-0.1-0.1-0.2-0.3-0.3-0.6c-0.2-0.3-0.4-0.4-0.5-0.5l-0.1,0.7C283.3,108.9,283.5,109,283.8,109z
				 M283.7,107.7c0.3-0.1,0.6-0.2,0.7-0.2c0.2-0.1,0.4-0.2,0.6-0.4h-1.2c-0.2,0-0.4,0.1-0.4,0.4l0,0.1
				C283.4,107.7,283.5,107.8,283.7,107.7z M284.1,117.5h4.7c0.4,0,0.6-0.2,0.6-0.6l0-0.1h-2.8h-2.8l0,0.4
				C283.9,117.4,284,117.5,284.1,117.5z M284.3,115.5h5c0.2,0,0.3-0.1,0.4-0.3l0-0.1c0-0.1-0.1-0.2-0.2-0.2h-2.5h-2.4
				c-0.2,0-0.3,0.1-0.4,0.3l0,0.1C284.1,115.4,284.1,115.5,284.3,115.5z M284.2,113.5h5.5l0-0.4c0-0.1-0.1-0.2-0.2-0.2H287h-2.2
				C284.4,112.9,284.3,113.1,284.2,113.5L284.2,113.5z M284.5,109h3.5h3.3c0.1,0,0.2-0.1,0.2-0.2l0-0.1c0-0.1,0-0.1-0.1-0.1h-1.2
				c-0.9,0-1.5-0.1-1.8-0.3c-0.3-0.2-0.4-0.6-0.4-1.3h-0.8c-0.2,0.5-0.5,0.9-0.9,1.2C285.9,108.6,285.3,108.9,284.5,109z
				 M290.6,107.5h0.8h0.2l0-0.3c0-0.1,0-0.1-0.1-0.1h-1.1c0,0,0,0.1,0,0.1c0,0.1,0,0.2,0,0.2C290.4,107.4,290.5,107.5,290.6,107.5z"
				/>
			<path class="st15" d="M297.9,121.9c-0.6-0.6-0.7-1.1-0.5-1.5c0.2-0.3,0.8-0.6,1.7-0.8c1.3-0.3,2.3-0.6,3.1-0.9h-1.3
				c-0.4,0-0.7-0.1-0.8-0.3c-0.2-0.2-0.3-0.5-0.2-0.9l0.5-6c0,0-0.1,0-0.1,0c-0.1,0-0.1,0-0.1,0c-0.9,0.1-1.6-0.2-1.9-0.9
				c-0.3-0.6-0.3-1.1,0.2-1.5c0.4-0.3,1-0.5,1.8-0.7c1.3-0.3,2.3-0.6,3-1.1h-1.5l0,0c0,0.1-0.1,0.1-0.3,0.1c-0.8,0-1.4-0.2-1.8-0.5
				c-0.5-0.4-0.6-0.8-0.4-1.4c0.1-0.2,0.3-0.6,0.5-1.2c0.1-0.3,0.2-0.5,0.3-0.6c0.2-0.4,0.4-0.7,0.7-0.9c0.3-0.2,0.7-0.3,1.1-0.3
				h3.2l0-0.5c0-0.2-0.1-0.3-0.3-0.3h-4.1c-0.7,0-1-0.3-0.9-1c0.1-0.7,0.4-1,1.1-1h4.4l0-0.1c0-0.3,0.2-0.5,0.7-0.7
				c0.3-0.2,0.7-0.2,1-0.2c0.4,0,0.7,0.1,1,0.2c0.4,0.2,0.5,0.4,0.5,0.7l0,0.1h2.2l0-0.1c0-0.3,0.3-0.5,0.7-0.7
				c0.4-0.2,0.7-0.2,1.1-0.2c0.4,0,0.7,0.1,1.1,0.2c0.4,0.2,0.6,0.4,0.5,0.7l0,0.1h3.5c0.5,0,0.9,0.1,1.1,0.4
				c0.3,0.3,0.4,0.7,0.3,1.2l-0.1,1.6c0,0.5-0.2,0.9-0.6,1.2c-0.3,0.3-0.7,0.5-1.2,0.5h-3.5l-0.1,0.8h3.3h3.4c0,0.3,0,0.6-0.1,0.9
				c-0.2,1.7-0.6,2.7-1,3.2c-0.4,0.4-0.9,0.6-1.6,0.7l-0.3,0l-0.6,6.9c0,0.5-0.2,0.9-0.6,1.2c-0.3,0.3-0.7,0.4-1.2,0.4h-1.3
				c0.9,0.3,1.9,0.7,2.9,1.1c0.9,0.4,1.4,0.8,1.3,1.1c-0.1,0.4-0.6,0.8-1.7,1.2c-0.4,0.2-0.8,0.3-1,0.3c-0.3,0-0.6-0.1-1-0.3
				c-0.9-0.4-2-0.9-3.2-1.5c-0.6-0.2-1-0.5-1-0.9c0-0.3,0.2-0.7,0.8-1l0.1-0.1H305l1,0.5c0.3,0.1,0.4,0.3,0.4,0.4
				c0,0.2-0.1,0.3-0.3,0.4c-1.7,0.9-3.7,1.6-6,2.3C299.1,122.6,298.4,122.4,297.9,121.9z M302.5,105.4h2.1c0-0.2,0.1-0.3,0.1-0.4
				c0-0.2,0.1-0.3,0.1-0.4h-1.9L302.5,105.4z M303.6,116.8h4.6h4.8l0.1-0.7h-9.7l0,0.5C303.4,116.7,303.4,116.8,303.6,116.8z
				 M303.6,114.2h4.8h4.8l0.1-0.7h-9.7L303.6,114.2z M303.8,111.7h4.8h4.8l0.1-0.7h-9.7L303.8,111.7z M306.2,109h3.6l0.1-1.5h-2.7
				c-0.1,0.2-0.2,0.4-0.5,0.8C306.7,108.6,306.5,108.8,306.2,109z M307.9,105.4h2.2l0.1-0.8H308c0,0.1,0,0.2,0,0.4
				C308,105.2,307.9,105.3,307.9,105.4z M308.5,102.6h1.9l0-0.5c0-0.2-0.1-0.3-0.3-0.3h-0.8h-0.7c-0.2,0-0.4,0.1-0.4,0.4l0,0.1
				C308.2,102.5,308.3,102.6,308.5,102.6z M313.2,109h1.8c0-0.1-0.1-0.3-0.2-0.6c-0.1-0.2,0-0.3,0.3-0.3c0,0,0.1,0,0.1,0
				c0.1,0,0.1,0,0.1,0c0.2,0,0.3,0,0.5,0c0.2,0,0.4-0.1,0.5-0.2c0.1-0.1,0.1-0.3,0.2-0.5h-3.2L313.2,109z M313.8,102.6h0.9h0.6
				c0.2,0,0.4-0.1,0.4-0.4l0-0.1c0-0.2-0.1-0.3-0.3-0.3h-1c-0.4,0-0.6,0.2-0.7,0.6L313.8,102.6z"/>
			<path class="st15" d="M325.5,122.6c-1.1,0-1.7-0.6-1.6-1.7l0.8-10c-0.4,0.4-0.7,0.5-1.1,0.4c-0.3-0.2-0.6-0.5-0.8-1.1
				c-0.4-1.3-0.3-2.4,0.4-3.2c1.5-1.9,2.7-4.1,3.8-6.4c0.5-1.2,1.3-1.6,2.4-1.3c1.1,0.3,1.4,1,0.9,2.1c-0.4,1-1,2-1.6,3.2l-0.8,9
				l-0.6,7.2C327.2,122.1,326.6,122.6,325.5,122.6z M329.1,121.8c-0.3-0.6-0.3-1-0.1-1.3c0.2-0.3,0.7-0.4,1.5-0.5
				c1.2-0.2,2.1-0.3,2.7-0.5c-0.5-0.4-0.8-0.7-1.1-1c-0.2,0.1-0.4,0.2-0.8,0.3c-0.4,0.2-0.8,0.2-1.1,0.2c-0.3,0-0.6-0.2-0.9-0.5
				c-0.7-0.9-0.3-1.6,1.3-2.1c1.4-0.5,2.6-1.1,3.6-1.9c-0.3-0.2-0.5-0.6-0.5-1.2c-0.5,0.6-0.9,1-1.3,1.4c-0.6,0.5-1.2,0.5-1.8,0
				c-0.7-0.6-0.7-1.2,0.2-1.8h-0.1c-1.1,0-1.6-0.6-1.5-1.8c0.1-1.3,0.8-1.9,2-1.9h0.3l0.4-4.5c0-0.5,0.2-0.9,0.6-1.2
				c0.3-0.3,0.7-0.5,1.2-0.5h2.4l0.2-0.7h-4.1c-0.8,0-1.2-0.4-1.1-1.3c0.1-0.8,0.5-1.2,1.4-1.2h6.3h6.3c0.8,0,1.2,0.4,1.1,1.2
				c-0.1,0.9-0.5,1.3-1.4,1.3h-4.9l-0.4,0.7h3.5c0.5,0,0.9,0.1,1.1,0.5c0.3,0.3,0.4,0.7,0.3,1.2l-0.4,4.5h0.1c0.6,0,1,0.2,1.3,0.6
				c0.3,0.3,0.4,0.8,0.3,1.5c0,0.5-0.2,0.9-0.5,1.2c-0.3,0.3-0.7,0.5-1.1,0.5h0c0,0,0,0,0.1,0.1s0.1,0.1,0.1,0.1
				c0.4,0.7,0.2,1.3-0.5,1.7c-0.8,0.4-1.4,0.2-1.8-0.4c0-0.1-0.1-0.2-0.2-0.3c-0.1-0.2-0.2-0.3-0.3-0.4c-0.2,0.5-0.5,0.9-0.9,1.1
				c-0.4,0.2-0.9,0.3-1.6,0.3h-1.6c-0.2,0.2-0.4,0.4-0.6,0.5h5.1c0.6,0,1,0.2,1.1,0.5c0.1,0.3,0,0.9-0.3,1.5
				c-0.5,0.7-1.2,1.3-2.1,1.8c0.9,0.1,1.6,0.2,2.2,0.3c0.8,0.1,1.4,0.2,1.6,0.5c0.2,0.3,0.1,0.8-0.4,1.5c-0.5,0.7-1.2,1-2.2,0.8
				c-2.1-0.2-3.9-0.7-5.4-1.2c-1.6,0.5-3.4,1-5.5,1.3C330.1,122.7,329.4,122.4,329.1,121.8z M333.8,112.3l0-0.5
				c0-0.2,0.2-0.4,0.4-0.4h2.2l-0.2-0.2h-2h-1.7c-0.2,0-0.3,0.1-0.3,0.3l0,0.1l0.1-0.1L333.8,112.3z M334.7,109.2h6.1l0.1-0.6h-3.1
				h-3L334.7,109.2z M334.9,107.2h3h3.1l0-0.4c0-0.2-0.1-0.2-0.2-0.2h-5.3C335.2,106.6,335,106.8,334.9,107.2L334.9,107.2z
				 M337,118.4c0.8-0.3,1.5-0.7,2-1H335c0.4,0.2,0.7,0.4,0.9,0.5C336.4,118.2,336.7,118.3,337,118.4z M335.1,105.2h3h3.1l0-0.4
				c0-0.1-0.1-0.2-0.2-0.2h-5.4C335.3,104.7,335.1,104.9,335.1,105.2L335.1,105.2z M337.3,113.1h0.5c-0.1-0.1-0.2-0.4-0.5-0.7
				c-0.1-0.2-0.3-0.4-0.6-0.8l-0.1,0.9c0,0.3,0,0.4,0.1,0.5C336.8,113.1,337,113.1,337.3,113.1z M338,113.1h1c0.2,0,0.4-0.1,0.5-0.2
				c0.1-0.3,0.3-0.4,0.5-0.3c0,0,0.1,0,0.2,0.1c0.1,0,0.1,0.1,0.2,0.1c0.1,0,0.2,0.1,0.4,0.1c0.2,0.1,0.3,0.1,0.4,0.1
				c-0.1-0.1-0.2-0.2-0.3-0.4c-0.1-0.1-0.1-0.3,0.1-0.4l1.8-0.9l0-0.2c0,0,0,0,0,0h-3.3c0.2,0.2,0.3,0.4,0.4,0.5
				c0.1,0.2,0.1,0.4-0.2,0.6L338,113.1z"/>
			<path class="st15" d="M348.9,121.1c-1.1-0.7-1.2-1.5-0.4-2.5c0.3-0.4,0.5-0.8,0.7-1.1c0.5-1.1,1.3-1.5,2.4-1
				c0.9,0.4,1.2,1.1,0.8,2.1c0,0-0.1,0.1-0.1,0.2c-0.2,0.4-0.3,0.6-0.4,0.8c-0.2,0.3-0.4,0.6-0.5,1
				C350.6,121.5,349.8,121.7,348.9,121.1z M360.4,118.8c-0.4,0-0.7-0.2-1-0.6c-0.4-0.4-0.8-0.8-1.3-1.2c-0.3-0.2-0.4-0.5-0.4-0.8
				c0-0.3,0.2-0.6,0.5-0.8l0.1,0c-1.7,0-4,0.1-7,0.1c-0.5,0-0.9,0-1.2,0c-0.5,0-0.8-0.1-1-0.4c-0.2-0.2-0.2-0.6-0.2-1.1
				c0-0.5,0.1-0.9,0.3-1.1c0.2-0.3,0.6-0.4,1.1-0.4c0.7,0,1.7,0,3.2,0c1.8,0,3.1,0,4.1,0l0.1-1.1h-5.8c-0.5,0-0.9-0.2-1.1-0.5
				c-0.3-0.3-0.4-0.7-0.3-1.2l0.4-4.5c0-0.5,0.2-0.9,0.6-1.2c0.3-0.3,0.7-0.5,1.2-0.5h5.8l0.1-0.8h-7.4c-0.9,0-1.4-0.5-1.3-1.4
				c0.1-0.9,0.6-1.4,1.5-1.4h7.4l0,0c0-0.3,0.3-0.5,0.8-0.7c0.4-0.2,0.8-0.2,1.2-0.2c0.4,0,0.8,0.1,1.1,0.2c0.4,0.2,0.7,0.4,0.6,0.7
				l0,0h7.8c0.9,0,1.4,0.5,1.3,1.4c-0.1,0.9-0.6,1.4-1.5,1.4h-3.2h-4.6l-0.1,0.8h5.8c0.5,0,0.9,0.2,1.1,0.5s0.4,0.7,0.3,1.2
				l-0.4,4.5c0,0.5-0.2,0.9-0.6,1.2c-0.3,0.3-0.7,0.5-1.2,0.5H367c0.8,0.5,1.6,1.2,2.4,1.8c0.7,0.7,0.5,1.4-0.5,2.1
				c-0.8,0.6-1.4,0.5-2-0.1c-2.6,0.1-4.7,0.1-6.1,0.1c0.4,0.4,0.8,0.7,1.2,1.1c0.3,0.4,0.5,0.7,0.4,1c-0.1,0.3-0.3,0.6-0.8,1
				C361.2,118.6,360.8,118.8,360.4,118.8z M357.5,122.2c-1.9,0-3.1-0.3-3.8-0.8c-0.6-0.5-0.8-1.5-0.7-2.9l0.1-0.7
				c0.1-1.2,0.7-1.8,1.9-1.8s1.7,0.6,1.6,1.8l-0.1,0.7c0,0.4,0,0.6,0.2,0.7c0.2,0.1,0.6,0.1,1.3,0.1h3.7c0.5,0,0.9-0.1,1.1-0.4
				c0.3-1,0.7-1.4,1.3-1.1c0.5,0.2,1,0.4,1.6,0.5c-0.2-0.5-0.2-0.9,0-1.2c0.2-0.3,0.6-0.6,1.1-0.7c0.4-0.1,0.8-0.1,1.2,0
				c0.4,0.1,0.7,0.3,0.9,0.7c0.5,0.9,0.9,1.8,1.1,2.6c0.1,0.5,0,0.9-0.2,1.2c-0.2,0.3-0.6,0.5-1.1,0.7c-0.6,0.2-1.1,0.2-1.5,0.1
				c-0.4-0.2-0.6-0.6-0.7-1.2c-0.1-0.5-0.3-0.9-0.4-1.2c-0.3,1.2-0.8,2-1.4,2.5c-0.6,0.4-1.6,0.6-2.9,0.6H357.5z M354.2,109.1h3.7
				l0.1-0.8h-2h-2l0,0.5C353.9,109,354,109.1,354.2,109.1z M354.1,106.4h4l0.1-0.8h-2h-1.4c-0.4,0-0.6,0.2-0.7,0.6L354.1,106.4z
				 M361.3,112.3h2.2c0,0-0.1-0.1-0.1-0.1c-0.1,0-0.1-0.1-0.1-0.1c0,0-0.1-0.1-0.2-0.1c-0.1-0.1-0.1-0.1,0-0.1l1.1-0.7h-2.7
				L361.3,112.3z M361.6,109.1h1.9h1.4c0.4,0,0.6-0.2,0.7-0.6l0-0.2h-3.9L361.6,109.1z M361.8,106.4h1.9h2l0-0.5
				c0-0.2-0.1-0.3-0.3-0.3h-3.5L361.8,106.4z"/>
			<path class="st15" d="M383.9,124.8c-3.2,0-5.6-1.3-7.2-3.9c-1.7-2.7-2.3-6.6-1.9-11.6c0.4-5,1.7-8.8,3.9-11.5
				c2.1-2.5,4.7-3.8,7.9-3.8c3.2,0,5.6,1.3,7.3,3.8c1.7,2.7,2.3,6.5,1.9,11.4c-0.4,4.9-1.7,8.8-3.9,11.6
				C389.8,123.5,387.1,124.8,383.9,124.8z M384.4,119.3c1.2,0,2.2-0.7,2.9-2c0.9-1.6,1.5-4.3,1.8-8c0.3-3.7,0.2-6.4-0.4-7.9
				c-0.5-1.2-1.4-1.8-2.5-1.8c-1.2,0-2.1,0.6-2.8,1.8c-0.9,1.5-1.5,4.2-1.8,7.9c-0.3,3.8-0.2,6.5,0.4,8
				C382.3,118.7,383.2,119.3,384.4,119.3z"/>
			<path class="st15" d="M399.2,121.3c-0.4-0.6-0.4-1.2,0.1-1.8c0.3-0.5,0.9-0.9,1.8-1.4c1.2-0.8,2.1-1.9,2.7-3.3
				c0.4-1,0.8-2.3,1-4.1h-3.5c-1.2,0-1.7-0.6-1.6-1.8c0.1-1.2,0.7-1.8,1.9-1.8h9.4h9.5c1.2,0,1.7,0.6,1.6,1.8
				c-0.1,1.2-0.7,1.8-1.9,1.8h-4.5l-0.6,7c0,0.5,0,0.8,0.1,0.9s0.3,0.2,0.7,0.2h1.7c0.3,0,0.5-0.1,0.7-0.4c0.2-1,0.5-1.8,0.9-2.3
				c0.5-0.6,1.1-0.8,1.8-0.5c0.4,0.2,0.7,0.7,0.8,1.4c0.1,0.6,0,1.2-0.1,1.8c-0.4,1.2-0.8,2.1-1.4,2.6c-0.6,0.5-1.4,0.7-2.5,0.7
				h-2.7c-1.5,0-2.6-0.3-3.1-1c-0.5-0.6-0.6-1.8-0.5-3.5l0.6-7h-3.2c-0.5,2.6-1.1,4.7-1.8,6.1c-1,2-2.6,3.5-4.6,4.7
				C400.8,122.2,399.8,122.1,399.2,121.3z M404.3,104c-1.2,0-1.7-0.6-1.6-1.8c0.1-1.2,0.7-1.8,1.9-1.8h7.1h7.1
				c1.2,0,1.7,0.6,1.6,1.8c-0.1,1.2-0.7,1.8-1.9,1.8H404.3z"/>
			<path class="st15" d="M426,122.5c-0.3,0.1-0.8,0.1-1.3-0.2c-0.5-0.3-0.8-0.5-0.9-0.8c-0.1-0.3-0.1-0.7,0.1-1.2
				c0.7-1.9,1.2-4.5,1.6-7.8c0.1-0.6,0.3-1,0.6-1.4c0.3-0.3,0.8-0.5,1.3-0.5c1,0.1,1.5,0.6,1.4,1.7c-0.1,0.7-0.2,1.2-0.2,1.6
				c0.3,0.9,0.6,1.6,0.9,2.2l0.6-6.7h-3.3c-1.1,0-1.5-0.5-1.4-1.6c0.1-1,0.7-1.6,1.7-1.6h2.6l0.2-1.9h-1.9c-1,0-1.5-0.5-1.4-1.6
				c0.1-1,0.7-1.5,1.7-1.5h1.9l0-0.5c0.1-1.1,0.7-1.7,1.8-1.7c1.1,0,1.6,0.6,1.5,1.7l0,0.5h1.9c1,0,1.5,0.5,1.4,1.5
				c-0.1,1.1-0.7,1.6-1.7,1.6h-1.9l-0.2,1.9h2.5c1,0,1.5,0.5,1.4,1.6c-0.1,1.1-0.7,1.6-1.7,1.6h-1.9l-0.2,2.1h1.7
				c1,0,1.5,0.5,1.4,1.5c-0.1,1-0.7,1.6-1.7,1.6h-1.7l-0.3,3.6c1,0.2,2.4,0.4,4.3,0.4c2.8,0,5.6,0,8.5,0c0.9,0,1.5,0.1,1.7,0.4
				c0.2,0.3,0.1,0.9-0.2,1.7c-0.2,0.5-0.6,0.9-0.9,1.1c-0.4,0.2-0.8,0.3-1.4,0.3h-3.2h-4.8c-2.3,0-4.1-0.2-5.4-0.6
				c-1.5-0.5-2.7-1.3-3.5-2.5c-0.2,0.7-0.4,1.5-0.7,2.4C426.6,122,426.3,122.3,426,122.5z M440.4,117.3c-1.5,0-2.5-0.3-3-0.9
				c-0.5-0.6-0.7-1.8-0.5-3.6l1-11.2c0-0.5,0.2-0.9,0.6-1.2c0.3-0.3,0.7-0.5,1.2-0.5h3.3h3.3c0.5,0,0.9,0.2,1.1,0.5
				c0.3,0.3,0.4,0.7,0.3,1.2l-0.6,6.5c0,0.5-0.2,0.9-0.6,1.2c-0.3,0.3-0.7,0.5-1.2,0.5h-4.7l-0.3,3c-0.1,0.6,0,1,0.1,1.1
				c0.1,0.2,0.4,0.2,0.8,0.2h2.3c0.2,0,0.3,0,0.4-0.1c0.6-1.8,1.5-2.3,2.7-1.8c0.4,0.2,0.7,0.6,0.7,1.2c0.1,0.5,0,1-0.2,1.6
				c-0.3,0.8-0.8,1.5-1.3,1.8s-1.3,0.5-2.3,0.5H440.4z M440.9,106.5h2.2c0.4,0,0.6-0.2,0.7-0.6l0.1-1.1l0.1-1.1
				c0-0.4-0.1-0.6-0.5-0.6h-1.7c-0.4,0-0.6,0.2-0.7,0.6L440.9,106.5z"/>
		</g>
	</g>
</g>
</svg>
