<?xml version="1.0" encoding="utf-8"?>
<!-- Generator: Adobe Illustrator 26.3.1, SVG Export Plug-In . SVG Version: 6.00 Build 0)  -->
<svg version="1.1" id="溯檜橫_1" xmlns="http://www.w3.org/2000/svg" xmlns:xlink="http://www.w3.org/1999/xlink" x="0px"
	 y="0px" viewBox="0 0 255 170" style="enable-background:new 0 0 255 170;" xml:space="preserve">
<style type="text/css">
	.st0{fill:#EF4E3E;}
	.st1{fill:#F0645D;}
	.st2{fill:#FFD753;}
	.st3{fill:#FBB820;}
</style>
<g>
	<g>
		<g>
			<g>
				<path class="st0" d="M118.5,5.8l4.7-3.1c0,0,3.1-2.5,7.4,6.7c7.4,15.9,8.3,41.2,8.3,41.2l-8.4-7l-5.9-5.2l-1.1-8.7l-1.2-6.1
					L118.5,5.8z"/>
				<path class="st1" d="M129.5,48.4c0,0-19.3-7.4-23.4-26.9c-1.1-5,1.4-10.1,5.8-12.6l11.2-6.2c0,0-3.7,10.5,2.4,23.7
					c9.7,21.3,13.4,24.3,13.4,24.3L129.5,48.4z"/>
			</g>
			<g>
				<path class="st0" d="M90.8,28.2l1.7-5.3c0,0,0.8-3.9,10,0.6c15.7,7.7,32.4,26.9,32.4,26.9l-10.9-0.2l-7.9-0.3l-6.4-6.1l-4.8-4.1
					L90.8,28.2z"/>
				<path class="st1" d="M126.1,54.5c0,0-19.6,6.3-35.1-6.2c-4-3.2-5.3-8.7-3.3-13.5l4.9-11.9c0,0,3.7,10.5,16.7,17
					c20.9,10.5,25.6,10.5,25.6,10.5L126.1,54.5z"/>
			</g>
			<g>
				<path class="st0" d="M181.4,28l-1.7-5.3c0,0-0.8-3.9-10,0.5c-15.7,7.6-32.6,26.6-32.6,26.6l10.9-0.1l7.9-0.3l6.4-6l4.8-4
					L181.4,28z"/>
				<path class="st1" d="M145.8,54c0,0,19.6,6.5,35.2-6c4-3.2,5.3-8.7,3.4-13.4l-4.8-11.9c0,0-3.8,10.4-16.9,16.8
					c-21,10.3-25.7,10.3-25.7,10.3L145.8,54z"/>
			</g>
			<g>
				<path class="st0" d="M150.8,2.7l-5-2.5c0,0-3.4-2.2-6.6,7.5c-5.6,16.6-3.8,41.9-3.8,41.9l7.6-7.9l5.3-5.8l0.2-8.8l0.5-6.2
					L150.8,2.7z"/>
				<path class="st1" d="M144.4,46.3c0,0,18.3-9.4,20.4-29.3c0.5-5.1-2.5-9.9-7.2-11.9l-11.9-5c0,0,4.8,10,0.2,23.8
					c-7.4,22.2-10.7,25.6-10.7,25.6L144.4,46.3z"/>
			</g>
		</g>
		<path class="st1" d="M127.3,51.8c0,0-2.1-7.2,4.1-9.4c3.9-1.3,9.2-0.9,11.7,1c2.7,2,3.8,6.9,2.1,7.8
			C142.8,52.5,127.3,51.8,127.3,51.8z"/>
	</g>
	<polygon class="st2" points="254.7,170 0.3,170 25.7,44.8 235.8,44.8 	"/>
	<g>
		<g>
			<path class="st3" d="M11.7,127.2c-1-0.2-1.9-0.4-2.6-0.6l-0.3,1.3C9.7,127.6,10.6,127.4,11.7,127.2z"/>
			<path class="st3" d="M11.5,147.5c-3.1-0.7-4.9-1.2-6.2-2.4l-1.2,5.9C5.3,149,7.3,148.3,11.5,147.5z"/>
			<path class="st3" d="M5.2,170c1.3-1,3.1-1.5,6.1-2.1c-6.4-1.4-7.6-2.4-8.8-8.7L0.3,170H5.2z"/>
		</g>
		<g>
			<path class="st3" d="M24.9,49.1c1.2-2,3.2-2.7,7.3-3.5c-1.2-0.3-2.3-0.5-3.1-0.8h-3.3L24.9,49.1z"/>
			<path class="st3" d="M22.9,74.8c1.4-6.6,2.5-7.6,9.1-8.8c-6.4-1.4-7.6-2.4-8.8-8.7l-2.3,11.5C21.8,70.1,22.3,71.9,22.9,74.8z"/>
			<path class="st3" d="M22.6,95.2c1.4-6.5,2.5-7.6,9.1-8.8c-6.6-1.4-7.6-2.5-8.8-9.1c-1.1,5.1-2,6.8-5.3,7.9L17.1,87
				C20.8,88.2,21.6,90,22.6,95.2z"/>
			<path class="st3" d="M22.4,115.6c-1.2-6.6-2.3-7.7-8.8-9.1c6.6-1.2,7.7-2.3,9.1-8.8c1.2,6.6,2.3,7.7,8.8,9.1
				C24.8,108,23.8,109.1,22.4,115.6z"/>
			<path class="st3" d="M22.1,136c-1.2-6.6-2.3-7.7-8.8-9.1c6.6-1.2,7.7-2.3,9.1-8.8c1.2,6.6,2.3,7.7,8.8,9.1
				C24.6,128.4,23.5,129.4,22.1,136z"/>
			<path class="st3" d="M21.8,156.4c-1.2-6.6-2.3-7.7-8.8-9.1c6.6-1.2,7.7-2.3,9.1-8.8c1.2,6.6,2.3,7.7,8.8,9.1
				C24.3,148.8,23.2,149.8,21.8,156.4z"/>
			<path class="st3" d="M30.6,167.9c-6.5-1.4-7.6-2.5-8.8-9.1c-1.4,6.6-2.5,7.6-9.1,8.8c3,0.6,4.8,1.2,6.1,2.3h5.7
				C25.8,169,27.7,168.5,30.6,167.9z"/>
		</g>
		<path class="st3" d="M42.3,74.8c-1.2-6.6-2.3-7.7-8.8-9.1c6.6-1.2,7.7-2.3,9.1-8.8c1.2,6.6,2.3,7.7,8.8,9.1
			C44.8,67.2,43.7,68.3,42.3,74.8z"/>
		<path class="st3" d="M42,95.2c-1.2-6.6-2.3-7.7-8.8-9.1c6.6-1.2,7.7-2.3,9.1-8.8c1.2,6.6,2.3,7.7,8.8,9.1
			C44.5,87.6,43.4,88.7,42,95.2z"/>
		<path class="st3" d="M41.8,115.6c-1.2-6.6-2.3-7.7-8.8-9.1c6.6-1.2,7.7-2.3,9.1-8.8c1.2,6.6,2.3,7.7,8.8,9.1
			C44.2,108,43.2,109.1,41.8,115.6z"/>
		<path class="st3" d="M41.5,136c-1.2-6.6-2.3-7.7-8.8-9.1c6.6-1.2,7.7-2.3,9.1-8.8c1.2,6.6,2.3,7.7,8.8,9.1
			C44,128.4,42.9,129.4,41.5,136z"/>
		<path class="st3" d="M41.3,156.4c-1.2-6.6-2.3-7.7-8.8-9.1c6.6-1.2,7.7-2.3,9.1-8.8c1.2,6.6,2.3,7.7,8.8,9.1
			C43.7,148.8,42.6,149.8,41.3,156.4z"/>
		<path class="st3" d="M61.7,74.8c-1.2-6.6-2.3-7.7-8.8-9.1c6.6-1.2,7.7-2.3,9.1-8.8c1.2,6.6,2.3,7.7,8.8,9.1
			C64.2,67.2,63.1,68.3,61.7,74.8z"/>
		<path class="st3" d="M61.5,95.2c-1.2-6.6-2.3-7.7-8.8-9.1c6.6-1.2,7.7-2.3,9.1-8.8c1.2,6.6,2.3,7.7,8.8,9.1
			C63.9,87.6,62.8,88.7,61.5,95.2z"/>
		<path class="st3" d="M61.2,115.6c-1.2-6.6-2.3-7.7-8.8-9.1c6.6-1.2,7.7-2.3,9.1-8.8c1.2,6.6,2.3,7.7,8.8,9.1
			C63.7,108,62.6,109.1,61.2,115.6z"/>
		<path class="st3" d="M60.9,136c-1.2-6.6-2.3-7.7-8.8-9.1c6.6-1.2,7.7-2.3,9.1-8.8c1.2,6.6,2.3,7.7,8.8,9.1
			C63.4,128.4,62.3,129.4,60.9,136z"/>
		<path class="st3" d="M60.7,156.4c-1.2-6.6-2.3-7.7-8.8-9.1c6.6-1.2,7.7-2.3,9.1-8.8c1.2,6.6,2.3,7.7,8.8,9.1
			C63.1,148.8,62.1,149.8,60.7,156.4z"/>
		<path class="st3" d="M81.1,74.8c-1.2-6.6-2.3-7.7-8.8-9.1c6.6-1.2,7.7-2.3,9.1-8.8c1.2,6.6,2.3,7.7,8.8,9.1
			C83.6,67.2,82.5,68.3,81.1,74.8z"/>
		<path class="st3" d="M80.9,95.2c-1.2-6.6-2.3-7.7-8.8-9.1c6.6-1.2,7.7-2.3,9.1-8.8c1.2,6.6,2.3,7.7,8.8,9.1
			C83.3,87.6,82.3,88.7,80.9,95.2z"/>
		<path class="st3" d="M80.6,115.6c-1.2-6.6-2.3-7.7-8.8-9.1c6.6-1.2,7.7-2.3,9.1-8.8c1.2,6.6,2.3,7.7,8.8,9.1
			C83.1,108,82,109.1,80.6,115.6z"/>
		<path class="st3" d="M80.3,136c-1.2-6.6-2.3-7.7-8.8-9.1c6.6-1.2,7.7-2.3,9.1-8.8c1.2,6.6,2.3,7.7,8.8,9.1
			C82.8,128.4,81.7,129.4,80.3,136z"/>
		<path class="st3" d="M80.1,156.4c-1.2-6.6-2.3-7.7-8.8-9.1c6.6-1.2,7.7-2.3,9.1-8.8c1.2,6.6,2.3,7.7,8.8,9.1
			C82.5,148.8,81.5,149.8,80.1,156.4z"/>
		<path class="st3" d="M100.5,74.8c-1.2-6.6-2.3-7.7-8.8-9.1c6.6-1.2,7.7-2.3,9.1-8.8c1.2,6.6,2.3,7.7,8.8,9.1
			C103,67.2,101.9,68.3,100.5,74.8z"/>
		<path class="st3" d="M100.3,95.2c-1.2-6.6-2.3-7.7-8.8-9.1c6.6-1.2,7.7-2.3,9.1-8.8c1.2,6.6,2.3,7.7,8.8,9.1
			C102.8,87.6,101.7,88.7,100.3,95.2z"/>
		<path class="st3" d="M100,115.6c-1.2-6.6-2.3-7.7-8.8-9.1c6.6-1.2,7.7-2.3,9.1-8.8c1.2,6.6,2.3,7.7,8.8,9.1
			C102.5,108,101.4,109.1,100,115.6z"/>
		<path class="st3" d="M99.8,136c-1.2-6.6-2.3-7.7-8.8-9.1c6.6-1.2,7.7-2.3,9.1-8.8c1.2,6.6,2.3,7.7,8.8,9.1
			C102.2,128.4,101.1,129.4,99.8,136z"/>
		<path class="st3" d="M99.5,156.4c-1.2-6.6-2.3-7.7-8.8-9.1c6.6-1.2,7.7-2.3,9.1-8.8c1.2,6.6,2.3,7.7,8.8,9.1
			C102,148.8,100.9,149.8,99.5,156.4z"/>
		<path class="st3" d="M120,74.8c-1.2-6.6-2.3-7.7-8.8-9.1c6.6-1.2,7.7-2.3,9.1-8.8c1.2,6.6,2.3,7.7,8.8,9.1
			C122.4,67.2,121.3,68.3,120,74.8z"/>
		<path class="st3" d="M119.7,95.2c-1.2-6.6-2.3-7.7-8.8-9.1c6.6-1.2,7.7-2.3,9.1-8.8c1.2,6.6,2.3,7.7,8.8,9.1
			C122.2,87.6,121.1,88.7,119.7,95.2z"/>
		<path class="st3" d="M119.4,115.6c-1.2-6.6-2.3-7.7-8.8-9.1c6.6-1.2,7.7-2.3,9.1-8.8c1.2,6.6,2.3,7.7,8.8,9.1
			C121.9,108,120.8,109.1,119.4,115.6z"/>
		<path class="st3" d="M119.2,136c-1.2-6.6-2.3-7.7-8.8-9.1c6.6-1.2,7.7-2.3,9.1-8.8c1.2,6.6,2.3,7.7,8.8,9.1
			C121.6,128.4,120.6,129.4,119.2,136z"/>
		<path class="st3" d="M118.9,156.4c-1.2-6.6-2.3-7.7-8.8-9.1c6.6-1.2,7.7-2.3,9.1-8.8c1.2,6.6,2.3,7.7,8.8,9.1
			C121.4,148.8,120.3,149.8,118.9,156.4z"/>
		<path class="st3" d="M139.4,74.8c-1.2-6.6-2.3-7.7-8.8-9.1c6.6-1.2,7.7-2.3,9.1-8.8c1.2,6.6,2.3,7.7,8.8,9.1
			C141.8,67.2,140.8,68.3,139.4,74.8z"/>
		<path class="st3" d="M139.1,95.2c-1.2-6.6-2.3-7.7-8.8-9.1c6.6-1.2,7.7-2.3,9.1-8.8c1.2,6.6,2.3,7.7,8.8,9.1
			C141.6,87.6,140.5,88.7,139.1,95.2z"/>
		<path class="st3" d="M138.8,115.6c-1.2-6.6-2.3-7.7-8.8-9.1c6.6-1.2,7.7-2.3,9.1-8.8c1.2,6.6,2.3,7.7,8.8,9.1
			C141.3,108,140.2,109.1,138.8,115.6z"/>
		<path class="st3" d="M138.6,136c-1.2-6.6-2.3-7.7-8.8-9.1c6.6-1.2,7.7-2.3,9.1-8.8c1.2,6.6,2.3,7.7,8.8,9.1
			C141.1,128.4,140,129.4,138.6,136z"/>
		<path class="st3" d="M138.3,156.4c-1.2-6.6-2.3-7.7-8.8-9.1c6.6-1.2,7.7-2.3,9.1-8.8c1.2,6.6,2.3,7.7,8.8,9.1
			C140.8,148.8,139.7,149.8,138.3,156.4z"/>
		<path class="st3" d="M158.8,74.8c-1.2-6.6-2.3-7.7-8.8-9.1c6.6-1.2,7.7-2.3,9.1-8.8c1.2,6.6,2.3,7.7,8.8,9.1
			C161.3,67.2,160.2,68.3,158.8,74.8z"/>
		<path class="st3" d="M158.5,95.2c-1.2-6.6-2.3-7.7-8.8-9.1c6.6-1.2,7.7-2.3,9.1-8.8c1.2,6.6,2.3,7.7,8.8,9.1
			C161,87.6,159.9,88.7,158.5,95.2z"/>
		<path class="st3" d="M158.3,115.6c-1.2-6.6-2.3-7.7-8.8-9.1c6.6-1.2,7.7-2.3,9.1-8.8c1.2,6.6,2.3,7.7,8.8,9.1
			C160.7,108,159.7,109.1,158.3,115.6z"/>
		<path class="st3" d="M158,136c-1.2-6.6-2.3-7.7-8.8-9.1c6.6-1.2,7.7-2.3,9.1-8.8c1.2,6.6,2.3,7.7,8.8,9.1
			C160.5,128.4,159.4,129.4,158,136z"/>
		<path class="st3" d="M157.7,156.4c-1.2-6.6-2.3-7.7-8.8-9.1c6.6-1.2,7.7-2.3,9.1-8.8c1.2,6.6,2.3,7.7,8.8,9.1
			C160.2,148.8,159.1,149.8,157.7,156.4z"/>
		<path class="st3" d="M178.2,74.8c-1.2-6.6-2.3-7.7-8.8-9.1c6.6-1.2,7.7-2.3,9.1-8.8c1.2,6.6,2.3,7.7,8.8,9.1
			C180.7,67.2,179.6,68.3,178.2,74.8z"/>
		<path class="st3" d="M177.9,95.2c-1.2-6.6-2.3-7.7-8.8-9.1c6.6-1.2,7.7-2.3,9.1-8.8c1.2,6.6,2.3,7.7,8.8,9.1
			C180.4,87.6,179.3,88.7,177.9,95.2z"/>
		<path class="st3" d="M177.7,115.6c-1.2-6.6-2.3-7.7-8.8-9.1c6.6-1.2,7.7-2.3,9.1-8.8c1.2,6.6,2.3,7.7,8.8,9.1
			C180.1,108,179.1,109.1,177.7,115.6z"/>
		<path class="st3" d="M177.4,136c-1.2-6.6-2.3-7.7-8.8-9.1c6.6-1.2,7.7-2.3,9.1-8.8c1.2,6.6,2.3,7.7,8.8,9.1
			C179.9,128.4,178.8,129.4,177.4,136z"/>
		<path class="st3" d="M177.1,156.4c-1.2-6.6-2.3-7.7-8.8-9.1c6.6-1.2,7.7-2.3,9.1-8.8c1.2,6.6,2.3,7.7,8.8,9.1
			C179.6,148.8,178.5,149.8,177.1,156.4z"/>
		<path class="st3" d="M197.6,74.8c-1.2-6.6-2.3-7.7-8.8-9.1c6.6-1.2,7.7-2.3,9.1-8.8c1.2,6.6,2.3,7.7,8.8,9.1
			C200.1,67.2,199,68.3,197.6,74.8z"/>
		<path class="st3" d="M197.3,95.2c-1.2-6.6-2.3-7.7-8.8-9.1c6.6-1.2,7.7-2.3,9.1-8.8c1.2,6.6,2.3,7.7,8.8,9.1
			C199.8,87.6,198.7,88.7,197.3,95.2z"/>
		<path class="st3" d="M197.1,115.6c-1.2-6.6-2.3-7.7-8.8-9.1c6.6-1.2,7.7-2.3,9.1-8.8c1.2,6.6,2.3,7.7,8.8,9.1
			C199.6,108,198.5,109.1,197.1,115.6z"/>
		<path class="st3" d="M196.8,136c-1.2-6.6-2.3-7.7-8.8-9.1c6.6-1.2,7.7-2.3,9.1-8.8c1.2,6.6,2.3,7.7,8.8,9.1
			C199.3,128.4,198.2,129.4,196.8,136z"/>
		<path class="st3" d="M196.6,156.4c-1.2-6.6-2.3-7.7-8.8-9.1c6.6-1.2,7.7-2.3,9.1-8.8c1.2,6.6,2.3,7.7,8.8,9.1
			C199,148.8,198,149.8,196.6,156.4z"/>
		<path class="st3" d="M217,74.8c-1.2-6.6-2.3-7.7-8.8-9.1c6.6-1.2,7.7-2.3,9.1-8.8c1.2,6.6,2.3,7.7,8.8,9.1
			C219.5,67.2,218.4,68.3,217,74.8z"/>
		<path class="st3" d="M216.8,95.2c-1.2-6.6-2.3-7.7-8.8-9.1c6.6-1.2,7.7-2.3,9.1-8.8c1.2,6.6,2.3,7.7,8.8,9.1
			C219.2,87.6,218.2,88.7,216.8,95.2z"/>
		<path class="st3" d="M216.5,115.6c-1.2-6.6-2.3-7.7-8.8-9.1c6.6-1.2,7.7-2.3,9.1-8.8c1.2,6.6,2.3,7.7,8.8,9.1
			C219,108,217.9,109.1,216.5,115.6z"/>
		<path class="st3" d="M216.2,136c-1.2-6.6-2.3-7.7-8.8-9.1c6.6-1.2,7.7-2.3,9.1-8.8c1.2,6.6,2.3,7.7,8.8,9.1
			C218.7,128.4,217.6,129.4,216.2,136z"/>
		<path class="st3" d="M216,156.4c-1.2-6.6-2.3-7.7-8.8-9.1c6.6-1.2,7.7-2.3,9.1-8.8c1.2,6.6,2.3,7.7,8.8,9.1
			C218.4,148.8,217.4,149.8,216,156.4z"/>
		<g>
			<path class="st3" d="M235.9,115.6c-1.2-6.6-2.3-7.7-8.8-9.1c6.6-1.2,7.7-2.3,9.1-8.8c1.2,6.6,2.3,7.7,8.8,9.1
				C238.4,108,237.3,109.1,235.9,115.6z"/>
			<path class="st3" d="M235.6,136c-1.2-6.6-2.3-7.7-8.8-9.1c6.6-1.2,7.7-2.3,9.1-8.8c1.2,6.6,2.3,7.7,8.8,9.1
				C238.1,128.4,237,129.4,235.6,136z"/>
			<path class="st3" d="M235.4,156.4c-1.2-6.6-2.3-7.7-8.8-9.1c6.6-1.2,7.7-2.3,9.1-8.8c1.2,6.6,2.3,7.7,8.8,9.1
				C237.9,148.8,236.8,149.8,235.4,156.4z"/>
			<path class="st3" d="M236.6,54.4c0.1-0.5,0.2-1,0.3-1.5l-1.2-8.1h-5.3c-0.8,0.2-1.6,0.4-2.6,0.6
				C234.4,46.8,235.4,47.9,236.6,54.4z"/>
			<path class="st3" d="M236.4,74.8c0.7-3.5,1.4-5.4,2.9-6.7l-0.8-5.6c-0.8-1.2-1.3-3-1.8-5.7c-1.4,6.5-2.5,7.6-9.1,8.8
				C234.2,67.2,235.2,68.3,236.4,74.8z"/>
			<path class="st3" d="M236.2,95.2c1.1-5.4,2.1-7,6-8.1l-0.2-1.5c-3.7-1.2-4.5-2.9-5.5-8.2c-1.4,6.5-2.5,7.6-9.1,8.8
				C233.9,87.6,234.9,88.6,236.2,95.2z"/>
			<path class="st3" d="M244.2,167.9c-6.6-1.4-7.6-2.5-8.8-9.1c-1.4,6.6-2.5,7.6-9.1,8.8c3,0.6,4.8,1.2,6.1,2.3h5.7
				C239.4,169,241.2,168.5,244.2,167.9z"/>
		</g>
		<g>
			<path class="st3" d="M248.1,126.5c-0.6,0.1-1.2,0.3-1.9,0.4c0.8,0.2,1.4,0.3,2,0.5L248.1,126.5z"/>
			<path class="st3" d="M251.1,145.9c-1.2,0.6-2.8,1-5.1,1.5c2.6,0.6,4.4,1.1,5.6,1.9L251.1,145.9z"/>
			<path class="st3" d="M253.7,162.9c-1.2,3.1-3.1,3.9-7.9,4.8c3,0.6,4.8,1.2,6.1,2.3h2.9L253.7,162.9z"/>
		</g>
		<path class="st3" d="M42.5,54.4c1.4-6.6,2.5-7.6,9.1-8.8c-1.2-0.3-2.3-0.5-3.1-0.8H36.3c-0.8,0.2-1.6,0.4-2.6,0.6
			C40.2,46.8,41.3,47.9,42.5,54.4z"/>
		<path class="st3" d="M61.9,54.4c1.4-6.6,2.5-7.6,9.1-8.8c-1.2-0.3-2.3-0.5-3.1-0.8H55.7c-0.8,0.2-1.6,0.4-2.6,0.6
			C59.6,46.8,60.7,47.9,61.9,54.4z"/>
		<path class="st3" d="M81.3,54.4c1.4-6.6,2.5-7.6,9.1-8.8c-1.2-0.3-2.3-0.5-3.1-0.8H75.1c-0.8,0.2-1.6,0.4-2.6,0.6
			C79.1,46.8,80.1,47.9,81.3,54.4z"/>
		<path class="st3" d="M100.8,54.4c1.4-6.6,2.5-7.6,9.1-8.8c-1.2-0.3-2.3-0.5-3.1-0.8H94.5c-0.8,0.2-1.6,0.4-2.6,0.6
			C98.5,46.8,99.5,47.9,100.8,54.4z"/>
		<path class="st3" d="M120.2,54.4c1.4-6.6,2.5-7.6,9.1-8.8c-1.2-0.3-2.3-0.5-3.1-0.8h-12.1c-0.8,0.2-1.6,0.4-2.6,0.6
			C117.9,46.8,118.9,47.9,120.2,54.4z"/>
		<path class="st3" d="M139.6,54.4c1.4-6.6,2.5-7.6,9.1-8.8c-1.2-0.3-2.3-0.5-3.1-0.8h-12.1c-0.8,0.2-1.6,0.4-2.6,0.6
			C137.3,46.8,138.4,47.9,139.6,54.4z"/>
		<path class="st3" d="M159,54.4c1.4-6.6,2.5-7.6,9.1-8.8c-1.2-0.3-2.3-0.5-3.1-0.8h-12.1c-0.8,0.2-1.6,0.4-2.6,0.6
			C156.7,46.8,157.8,47.9,159,54.4z"/>
		<path class="st3" d="M178.4,54.4c1.4-6.6,2.5-7.6,9.1-8.8c-1.2-0.3-2.3-0.5-3.1-0.8h-12.1c-0.8,0.2-1.6,0.4-2.6,0.6
			C176.1,46.8,177.2,47.9,178.4,54.4z"/>
		<path class="st3" d="M197.8,54.4c1.4-6.6,2.5-7.6,9.1-8.8c-1.2-0.3-2.3-0.5-3.1-0.8h-12.1c-0.8,0.2-1.6,0.4-2.6,0.6
			C195.5,46.8,196.6,47.9,197.8,54.4z"/>
		<path class="st3" d="M217.2,54.4c1.4-6.6,2.5-7.6,9.1-8.8c-1.2-0.3-2.3-0.5-3.1-0.8H211c-0.8,0.2-1.6,0.4-2.6,0.6
			C215,46.8,216,47.9,217.2,54.4z"/>
		<path class="st3" d="M50,167.9c-6.5-1.4-7.6-2.5-8.8-9.1c-1.4,6.6-2.5,7.6-9.1,8.8c3,0.6,4.8,1.2,6.1,2.3H44
			C45.2,169,47.1,168.5,50,167.9z"/>
		<path class="st3" d="M69.5,167.9c-6.5-1.4-7.6-2.5-8.8-9.1c-1.4,6.6-2.5,7.6-9.1,8.8c3,0.6,4.8,1.2,6.1,2.3h5.7
			C64.7,169,66.5,168.5,69.5,167.9z"/>
		<path class="st3" d="M88.9,167.9c-6.6-1.4-7.6-2.5-8.8-9.1c-1.4,6.6-2.5,7.6-9.1,8.8c3,0.6,4.8,1.2,6.1,2.3h5.7
			C84.1,169,85.9,168.5,88.9,167.9z"/>
		<path class="st3" d="M108.3,167.9c-6.5-1.4-7.6-2.5-8.8-9.1c-1.4,6.6-2.5,7.6-9.1,8.8c3,0.6,4.8,1.2,6.1,2.3h5.7
			C103.5,169,105.3,168.5,108.3,167.9z"/>
		<path class="st3" d="M127.7,167.9c-6.5-1.4-7.6-2.5-8.8-9.1c-1.4,6.6-2.5,7.6-9.1,8.8c3,0.6,4.8,1.2,6.1,2.3h5.7
			C122.9,169,124.7,168.5,127.7,167.9z"/>
		<path class="st3" d="M147.1,167.9c-6.5-1.4-7.6-2.5-8.8-9.1c-1.4,6.6-2.5,7.6-9.1,8.8c3,0.6,4.8,1.2,6.1,2.3h5.7
			C142.3,169,144.2,168.5,147.1,167.9z"/>
		<path class="st3" d="M166.5,167.9c-6.5-1.4-7.6-2.5-8.8-9.1c-1.4,6.6-2.5,7.6-9.1,8.8c3,0.6,4.8,1.2,6.1,2.3h5.7
			C161.7,169,163.6,168.5,166.5,167.9z"/>
		<path class="st3" d="M185.9,167.9c-6.5-1.4-7.6-2.5-8.8-9.1c-1.4,6.6-2.5,7.6-9.1,8.8c3,0.6,4.8,1.2,6.1,2.3h5.7
			C181.1,169,183,168.5,185.9,167.9z"/>
		<path class="st3" d="M205.4,167.9c-6.6-1.4-7.6-2.5-8.8-9.1c-1.4,6.6-2.5,7.6-9.1,8.8c3,0.6,4.8,1.2,6.1,2.3h5.7
			C200.6,169,202.4,168.5,205.4,167.9z"/>
		<path class="st3" d="M224.8,167.9c-6.5-1.4-7.6-2.5-8.8-9.1c-1.4,6.6-2.5,7.6-9.1,8.8c3,0.6,4.8,1.2,6.1,2.3h5.7
			C220,169,221.8,168.5,224.8,167.9z"/>
	</g>
	<polygon class="st1" points="145.7,170 133.7,170 130,44.8 141.9,44.8 	"/>
</g>
</svg>
