<?xml version="1.0" encoding="utf-8"?>
<!-- Generator: Adobe Illustrator 23.0.3, SVG Export Plug-In . SVG Version: 6.00 Build 0)  -->
<svg version="1.1" id="圖層_1" xmlns="http://www.w3.org/2000/svg" xmlns:xlink="http://www.w3.org/1999/xlink" x="0px" y="0px"
	 viewBox="0 0 82 36" style="enable-background:new 0 0 82 36;" xml:space="preserve">
<style type="text/css">
	.st0{fill-rule:evenodd;clip-rule:evenodd;fill:url(#SVGID_1_);}
	.st1{fill-rule:evenodd;clip-rule:evenodd;fill:url(#SVGID_2_);}
</style>
<g>
	
		<linearGradient id="SVGID_1_" gradientUnits="userSpaceOnUse" x1="-52.8533" y1="-10.8688" x2="-52.1839" y2="-11.5387" gradientTransform="matrix(148.753 0 0 25 7863.0308 285.9999)">
		<stop  offset="0" style="stop-color:#22CDFF"/>
		<stop  offset="0.6708" style="stop-color:#1D8FE1"/>
		<stop  offset="1" style="stop-color:#5370CB"/>
	</linearGradient>
	<path class="st0" d="M8.8,14.2H5.6V9.9L1,0.9h3.7l2.6,6l2.5-6h3.7l-4.6,9L8.8,14.2L8.8,14.2z M15.1,8.8V0.9h3.2v7.9
		c0,0.8,0.2,1.4,0.6,1.8c0.4,0.4,1,0.6,1.7,0.6s1.3-0.2,1.8-0.6c0.4-0.4,0.6-1,0.6-1.8V0.9h3.2v7.9c0,1.2-0.3,2.2-0.8,3
		c-0.5,0.9-1.2,1.5-2.1,1.9c-0.9,0.4-1.7,0.6-2.7,0.6c-1.6,0-2.8-0.5-3.9-1.5S15.1,10.5,15.1,8.8L15.1,8.8z M37.6,14.2L36.8,12H32
		l-0.8,2.2h-3.4l4.7-13.3h4l4.6,13.3H37.6z M32.9,9.5h3.2l-1.6-4.7C34.4,4.7,32.9,9.5,32.9,9.5z M51.4,0.8h3.2v13.3h-3.2l-5.5-8.4
		v8.4h-3.2V0.8h3.2l5.4,8.4L51.4,0.8L51.4,0.8z M56.5,3.3V0.9h10.5v2.5h-3.7v10.8h-3.2V3.3H56.5L56.5,3.3z M77.5,14.2L76.8,12H72
		l-0.8,2.2h-3.4l4.6-13.3h4L81,14.2H77.5L77.5,14.2z M72.8,9.5h3.2l-1.6-4.7L72.8,9.5L72.8,9.5z"/>
	
		<linearGradient id="SVGID_2_" gradientUnits="userSpaceOnUse" x1="-53.8562" y1="-10.062" x2="-54.3939" y2="-10.4792" gradientTransform="matrix(77.666 0 0 24.999 4242.3008 285.9885)">
		<stop  offset="0" style="stop-color:#F26F28"/>
		<stop  offset="1" style="stop-color:#FF9D68"/>
	</linearGradient>
	<path class="st1" d="M28.2,21.8v2.5h-4.8v2.8h4.2v2.5h-4.2v3.1h4.8v2.5h-8.1V21.8H28.2z M30.1,24.3v-2.4h10.5v2.5H37v10.8h-3.2
		V24.3H30.1L30.1,24.3z M42.6,35.2V21.9h8.7v2.5h-5.4v2.8H50v2.5h-4.1v5.5H42.6L42.6,35.2z M52.8,27.7c0-0.9,0.4-1.7,1.2-2.4
		c0.8-0.6,1.9-1,3.2-1s2.5,0.3,3.3,0.9c0.9,0.6,1.3,1.5,1.3,2.5h-3.3c-0.1-0.4-0.2-0.6-0.4-0.8c-0.2-0.2-0.5-0.2-1-0.2
		c-0.9,0-1.3,0.3-1.3,0.8c0,0.5,0.5,0.8,1.6,1c1.1,0.2,2,0.4,2.8,0.8c0.4,0.2,0.8,0.5,1.1,0.9c0.3,0.4,0.4,0.9,0.4,1.5
		c0,1-0.4,1.8-1.3,2.4c-0.9,0.6-1.9,0.9-3.2,0.9c-1.3,0-2.4-0.3-3.2-0.9c-0.9-0.6-1.3-1.5-1.4-2.6H56c0.1,0.6,0.5,1,1.3,1
		c0.4,0,0.7-0.1,1-0.3s0.4-0.4,0.4-0.7c0-0.3-0.2-0.5-0.6-0.6c-0.4-0.2-0.9-0.3-1.5-0.4c-0.6-0.1-1.2-0.3-1.8-0.4
		c-0.6-0.2-1.1-0.5-1.5-0.9C53,29,52.8,28.4,52.8,27.7L52.8,27.7z"/>
</g>
</svg>
