<?xml version="1.0" encoding="utf-8"?>
<!-- Generator: Adobe Illustrator 26.3.1, SVG Export Plug-In . SVG Version: 6.00 Build 0)  -->
<svg version="1.1" id="圖層_1" xmlns="http://www.w3.org/2000/svg" xmlns:xlink="http://www.w3.org/1999/xlink" x="0px" y="0px"
	 viewBox="0 0 50 50" style="enable-background:new 0 0 50 50;" xml:space="preserve">
<style type="text/css">
	.st0{fill:#2E4F7D;}
</style>
<g>
	<path class="st0" d="M22.2,29c-1.4-0.7-2.2-1.3-2.2-2.2c0-0.8,0.4-1.6,1.6-1.6c1.3,0,1.6,1,1.6,1.6c0,0.4,0.3,0.8,0.8,0.8
		s0.8-0.3,0.8-0.8c0-1.3-0.8-2.7-2.4-3v-0.7c0-0.4-0.3-0.8-0.8-0.8s-0.8,0.3-0.8,0.8v0.7c-1.4,0.3-2.4,1.5-2.4,3
		c0,1.9,1.6,2.7,3,3.5c1.4,0.7,2.2,1.3,2.2,2.2c0,1.1-0.9,2.1-2.1,2.1c-1.1,0-2.1-0.9-2.1-2.1c0-0.4-0.3-0.8-0.8-0.8
		s-0.8,0.3-0.8,0.8c0,1.7,1.2,3.1,2.8,3.5v0.7c0,0.4,0.3,0.8,0.8,0.8s0.8-0.3,0.8-0.8V36c1.6-0.3,2.8-1.8,2.8-3.5
		C25.2,30.6,23.6,29.8,22.2,29z"/>
	<path class="st0" d="M44.1,14h-2.4v-2.4c0-0.4-0.3-0.8-0.8-0.8s-0.8,0.3-0.8,0.8V14h-2.4c-0.4,0-0.8,0.3-0.8,0.8s0.3,0.8,0.8,0.8
		h2.4V18c0,0.4,0.3,0.8,0.8,0.8s0.8-0.3,0.8-0.8v-2.4h2.4c0.4,0,0.8-0.3,0.8-0.8S44.5,14,44.1,14z"/>
	<path class="st0" d="M38,37.7c0.1-1.1,0.2-2.3,0.2-3.3C38.1,19.6,32.1,16,27.4,13.7c0.1-0.3,0.2-0.6,0.2-0.9c0-0.5-0.2-0.9-0.4-1.2
		L29.9,9c0.3-0.3,0.5-0.7,0.4-1.1S30,7.2,29.6,7l-1.2-0.6c-0.5-0.2-1.3-0.3-1.8-0.1L25,6.8c-0.1,0-0.4,0-0.6-0.1l-1.8-1.3
		c-0.6-0.4-1.4-0.4-2,0l-1.8,1.3c-0.1,0.1-0.4,0.1-0.6,0.1l-1.6-0.5c-0.5-0.2-1.3-0.1-1.8,0.1L13.8,7c-0.4,0.2-0.6,0.5-0.7,0.9
		C13,8.3,13.2,8.7,13.5,9l2.7,2.6c-0.3,0.3-0.5,0.8-0.5,1.3c0,0.3,0.1,0.6,0.2,0.9C11.2,16,5.3,19.6,5.2,34.4c0,1,0.1,2.2,0.2,3.3
		c0.1,1.2,0.2,2.9,0.1,3.2c-0.5,1.4-0.3,2.5,0.4,3.3c0.6,0.6,1.5,0.8,2.6,0.6c1.3-0.3,3.4-0.2,6.2-0.1c1.9,0.1,4.3,0.2,7.1,0.2
		c1.1,0,2.7-0.1,4.3-0.1c3.3-0.1,7.5-0.3,9,0c1.1,0.2,2,0,2.6-0.6c0.7-0.7,0.9-1.9,0.4-3.3C37.7,40.6,37.9,38.9,38,37.7z M14.8,8.2
		l0.8-0.4c0.2-0.1,0.6-0.1,0.7-0.1l1.6,0.5c0.6,0.2,1.4,0.1,1.9-0.3l1.8-1.3c0.1,0,0.2,0,0.3,0l1.8,1.3c0.5,0.4,1.3,0.5,1.9,0.3
		l1.6-0.5c0.2-0.1,0.6,0,0.7,0.1l0.8,0.4l-3.1,3c-0.1,0.1-0.1,0.1-0.1,0.2h-7.3c-0.1-0.1-0.1-0.2-0.3-0.3L14.8,8.2z M17.6,13.3
		C17.6,13.3,17.6,13.3,17.6,13.3c-0.1,0-0.1-0.1-0.2-0.1c-0.1-0.1-0.2-0.2-0.2-0.4c0-0.2,0.1-0.3,0.2-0.4c0.1,0,0.2,0,0.3-0.1h8
		c0.1,0,0.1,0.1,0.2,0.1c0.2,0.1,0.3,0.2,0.3,0.4c0,0.1-0.1,0.3-0.2,0.4c-0.1,0-0.2,0.1-0.2,0.1H17.6z M36.5,41.5
		c0.3,0.8,0.3,1.4,0,1.7c-0.3,0.3-0.9,0.2-1.2,0.2c-1.6-0.3-5.7-0.2-9.3-0.1c-1.6,0.1-3.2,0.1-4.2,0.1c-2.7,0-5-0.1-7-0.2
		c-1.4-0.1-2.7-0.1-3.8-0.1c-1.1,0-2.1,0.1-2.8,0.2c-0.3,0.1-0.9,0.1-1.2-0.2c-0.3-0.3-0.3-0.9,0-1.7c0.2-0.7,0.1-1.9,0-3.9
		c-0.1-1.1-0.2-2.3-0.2-3.2C6.8,19.8,12.6,17,17.2,14.7l0.3-0.2c0.1-0.1,0.2-0.2,0.3-0.3h7.6c0.1,0.1,0.2,0.2,0.3,0.3l0.3,0.2
		c4.7,2.3,10.5,5.1,10.6,19.7c0,0.9-0.1,2.1-0.2,3.2C36.3,39.6,36.2,40.8,36.5,41.5z"/>
</g>
</svg>
