<?xml version="1.0" encoding="utf-8"?>
<!-- Generator: Adobe Illustrator 26.3.1, SVG Export Plug-In . SVG Version: 6.00 Build 0)  -->
<svg version="1.1" id="圖層_1" xmlns="http://www.w3.org/2000/svg" xmlns:xlink="http://www.w3.org/1999/xlink" x="0px" y="0px"
	 viewBox="0 0 56 56" style="enable-background:new 0 0 56 56;" xml:space="preserve">
<style type="text/css">
	.st0{fill:#FFFFFF;}
</style>
<g>
	<path class="st0" d="M28,9.5c-5.5,0-10,4.5-10,10s4.5,10,10,10s10-4.5,10-10S33.5,9.5,28,9.5z M28,28.3c-4.8,0-8.8-3.9-8.8-8.8
		s3.9-8.8,8.8-8.8c4.8,0,8.8,3.9,8.8,8.8S32.8,28.3,28,28.3z"/>
	<path class="st0" d="M41.6,15.6l-1-1.2l-0.1-1.6c-0.2-3-2.6-5.4-5.6-5.6L33.2,7l-1.2-1c-2.3-2-5.7-2-8,0l-1.2,1l-1.6,0.1
		c-3,0.2-5.4,2.6-5.6,5.6l-0.1,1.6l-1,1.2c-2,2.3-2,5.7,0,8l1,1.2l0.1,1.6c0.2,2.2,1.4,4,3.3,4.9v19.6c0,0.3,0.2,0.5,0.4,0.6
		c0.1,0,0.2,0,0.2,0c0.2,0,0.3-0.1,0.4-0.2l8.1-8.1l8.1,8.1c0.2,0.2,0.5,0.2,0.7,0.1c0.2-0.1,0.4-0.3,0.4-0.6V31.3
		c1.8-1,3.1-2.8,3.3-4.9l0.1-1.6l1-1.2C43.6,21.2,43.6,17.9,41.6,15.6z M35.9,49.4l-7.5-7.5c-0.2-0.2-0.6-0.2-0.9,0l-7.5,7.5V31.8
		c0.4,0.1,0.7,0.2,1.1,0.2l1.6,0.1l1.2,1c1.2,1,2.6,1.5,4,1.5c1.4,0,2.8-0.5,4-1.5l1.2-1l1.6-0.1c0.4,0,0.8-0.1,1.1-0.2V49.4z
		 M40.7,22.7l-1.3,1.5l-0.2,2c-0.2,2.4-2.1,4.3-4.5,4.5l-2,0.2l-1.5,1.3c-1.8,1.6-4.5,1.6-6.4,0l-1.5-1.3l-2-0.2
		c-2.4-0.2-4.3-2.1-4.5-4.5l-0.2-2l-1.3-1.5c-1.6-1.8-1.6-4.5,0-6.4l1.3-1.5l0.2-2c0.2-2.4,2.1-4.3,4.5-4.5l2-0.2l1.5-1.3
		c0.9-0.8,2-1.2,3.2-1.2c1.1,0,2.3,0.4,3.2,1.2l1.5,1.3l2,0.2c2.4,0.2,4.3,2.1,4.5,4.5l0.2,2l1.3,1.5C42.2,18.2,42.2,20.9,40.7,22.7
		z"/>
	<path class="st0" d="M32.5,16.4L26,22.7l-2.5-2.5c-0.2-0.2-0.6-0.2-0.9,0c-0.2,0.2-0.2,0.6,0,0.9l3,2.9c0.1,0.1,0.3,0.2,0.4,0.2
		c0.2,0,0.3-0.1,0.4-0.2l6.9-6.7c0.2-0.2,0.2-0.6,0-0.9C33.1,16.2,32.7,16.2,32.5,16.4z"/>
</g>
</svg>
