<?xml version="1.0" encoding="utf-8"?>
<!-- Generator: Adobe Illustrator 26.3.1, SVG Export Plug-In . SVG Version: 6.00 Build 0)  -->
<svg version="1.1" id="content" xmlns="http://www.w3.org/2000/svg" xmlns:xlink="http://www.w3.org/1999/xlink" x="0px" y="0px"
	 viewBox="0 0 100 100" style="enable-background:new 0 0 100 100;" xml:space="preserve">
<style type="text/css">
	.st0{fill:#FFC610;}
	.st1{fill:#F96806;}
</style>
<g>
	<path class="st0" d="M72.8,27.6l-2.5-7.8c-0.1-0.3-0.3-0.6-0.6-0.7c-0.3-0.1-0.6-0.2-0.9-0.1L61,21.6c-0.6,0.2-1,0.9-0.8,1.5
		c0.2,0.6,0.9,1,1.5,0.8l5.1-1.7c-13.2,27.4-47,31.4-47.3,31.4c-0.7,0.1-1.1,0.7-1.1,1.3c0.1,0.6,0.6,1.1,1.2,1.1c0,0,0.1,0,0.1,0
		c0.4,0,35.3-4.1,49.1-32.6l1.6,4.9c0.2,0.5,0.6,0.8,1.1,0.8c0.1,0,0.2,0,0.4-0.1C72.7,28.9,73,28.2,72.8,27.6z"/>
	<path class="st1" d="M26.9,81.1h-4.4c-0.2,0-0.3-0.2-0.3-0.3V70.4c0-0.2,0.2-0.3,0.3-0.3h4.4c0.2,0,0.3,0.2,0.3,0.3v10.4
		C27.3,80.9,27.1,81.1,26.9,81.1z"/>
	<path class="st1" d="M40.5,81.1h-4.4c-0.2,0-0.3-0.2-0.3-0.3V64.3c0-0.2,0.2-0.3,0.3-0.3h4.4c0.2,0,0.3,0.2,0.3,0.3v16.4
		C40.8,80.9,40.7,81.1,40.5,81.1z"/>
	<path class="st1" d="M54.1,81.1h-4.4c-0.2,0-0.3-0.2-0.3-0.3V56.3c0-0.2,0.2-0.3,0.3-0.3h4.4c0.2,0,0.3,0.2,0.3,0.3v24.4
		C54.4,80.9,54.2,81.1,54.1,81.1z"/>
	<path class="st1" d="M67.6,81.1h-4.4c-0.2,0-0.3-0.2-0.3-0.3V42.9c0-0.2,0.2-0.3,0.3-0.3h4.4c0.2,0,0.3,0.2,0.3,0.3v37.8
		C68,80.9,67.8,81.1,67.6,81.1z"/>
	<path class="st1" d="M81.2,81.1h-4.4c-0.2,0-0.3-0.2-0.3-0.3V32.2c0-0.2,0.2-0.3,0.3-0.3h4.4c0.2,0,0.3,0.2,0.3,0.3v48.6
		C81.5,80.9,81.4,81.1,81.2,81.1z"/>
</g>
</svg>
