<?xml version="1.0" encoding="utf-8"?>
<!-- Generator: Adobe Illustrator 26.3.1, SVG Export Plug-In . SVG Version: 6.00 Build 0)  -->
<svg version="1.1" id="分離模式" xmlns="http://www.w3.org/2000/svg" xmlns:xlink="http://www.w3.org/1999/xlink" x="0px"
	 y="0px" viewBox="0 0 52 40" style="enable-background:new 0 0 52 40;" xml:space="preserve">
<style type="text/css">
	.st0{fill:#FCB813;}
</style>
<g>
	<g>
		<path class="st0" d="M17.5,40L33,35.7l15.6-4.1c0,0-0.1-2.2-0.1-5.4l-33.5,9C16.4,38.1,17.5,40,17.5,40z"/>
		<path class="st0" d="M47,0.6c-1.7,0.5-2.8,2.3-2.3,4c0.2,0.9,0.9,1.6,1.7,2.1c-1.6,2.8-3.5,5.5-6.3,7.2c-0.7,0.4-1.3,0.6-1.9,0.7
			c-2.7,0.4-5-1.3-7-3.1c-1.8-1.7-3.4-3.5-4.8-5.5c1.1-0.8,1.6-2.1,1.2-3.5c-0.5-1.7-2.3-2.8-4-2.3c-1.7,0.5-2.8,2.3-2.3,4
			c0.4,1.3,1.5,2.3,2.8,2.4c-0.3,2.4-0.8,4.8-1.5,7.1c-0.8,2.6-1.9,5.3-4.5,6.2c-0.6,0.2-1.3,0.4-2,0.4c-3.3,0-6.3-1.4-9-3.1
			c0.5-0.7,0.7-1.7,0.4-2.6c-0.5-1.7-2.3-2.8-4-2.3c-1.7,0.5-2.8,2.3-2.3,4C1.5,18,3.3,19,5,18.6c0.2-0.1,0.5-0.2,0.7-0.3
			c1.9,3.5,5.3,9.7,7.9,14.6l34.7-9.3C48.2,18.1,48,11,47.9,7c0.2,0,0.5,0,0.7-0.1c1.7-0.5,2.8-2.3,2.3-4C50.5,1.1,48.7,0.1,47,0.6z
			"/>
	</g>
</g>
</svg>
