<?xml version="1.0" encoding="utf-8"?>
<!-- Generator: Adobe Illustrator 26.3.1, SVG Export Plug-In . SVG Version: 6.00 Build 0)  -->
<svg version="1.1" id="content" xmlns="http://www.w3.org/2000/svg" xmlns:xlink="http://www.w3.org/1999/xlink" x="0px" y="0px"
	 viewBox="0 0 100 100" style="enable-background:new 0 0 100 100;" xml:space="preserve">
<style type="text/css">
	.st0{fill:#D5D6DB;}
	.st1{fill:#FFC610;}
	.st2{fill:#99D1FF;}
</style>
<g>
	<path class="st0" d="M50,82.8c-0.7,0-1.2-0.5-1.2-1.2v-47c0-0.7,0.5-1.2,1.2-1.2s1.2,0.5,1.2,1.2v47C51.2,82.3,50.7,82.8,50,82.8z"
		/>
	<path class="st0" d="M87,56.6H65.3c-0.4,0-0.8-0.2-1-0.5c-0.2-0.3-0.3-0.8-0.1-1.1l10.2-24.5h-19c-0.7,0-1.2-0.5-1.2-1.2
		s0.5-1.2,1.2-1.2h20.7c0.2,0,0.3,0,0.4,0.1c0,0,0.1,0,0.1,0l0,0c0,0,0,0,0,0c0.3,0.1,0.5,0.4,0.6,0.6L88.2,55
		c0.2,0.4,0.1,0.8-0.1,1.1C87.8,56.4,87.4,56.6,87,56.6z M67.1,54.2h18.1l-9.1-21.9L67.1,54.2z"/>
	<path class="st0" d="M34.7,56.6H13c-0.4,0-0.8-0.2-1-0.5c-0.2-0.3-0.3-0.8-0.1-1.1l10.8-26.2c0.1-0.3,0.3-0.5,0.6-0.6c0,0,0,0,0,0
		l0,0c0,0,0.1,0,0.1,0c0.1,0,0.3-0.1,0.4-0.1h20.7c0.7,0,1.2,0.5,1.2,1.2s-0.5,1.2-1.2,1.2h-19L35.8,55c0.2,0.4,0.1,0.8-0.1,1.1
		C35.4,56.4,35.1,56.6,34.7,56.6z M14.8,54.2h18.1l-9.1-21.9L14.8,54.2z"/>
	<path class="st0" d="M69.9,82.8H30.1c-0.7,0-1.2-0.5-1.2-1.2s0.5-1.2,1.2-1.2h39.8c0.7,0,1.2,0.5,1.2,1.2S70.6,82.8,69.9,82.8z"/>
	<path class="st0" d="M50,25c-0.7,0-1.2-0.5-1.2-1.2v-5.4c0-0.7,0.5-1.2,1.2-1.2s1.2,0.5,1.2,1.2v5.4C51.2,24.5,50.7,25,50,25z"/>
	<ellipse transform="matrix(0.7071 -0.7071 0.7071 0.7071 -6.0261 43.9174)" class="st1" cx="50" cy="29.2" rx="5.4" ry="5.4"/>
	<path class="st2" d="M89.3,54H63.1c0,7.2,5.9,13.1,13.1,13.1S89.3,61.2,89.3,54z"/>
	<path class="st2" d="M10.7,54h26.2c0,7.2-5.9,13.1-13.1,13.1S10.7,61.2,10.7,54z"/>
</g>
</svg>
