<?xml version="1.0" encoding="utf-8"?>
<!-- Generator: Adobe Illustrator 26.3.1, SVG Export Plug-In . SVG Version: 6.00 Build 0)  -->
<svg version="1.1" id="圖層_1" xmlns="http://www.w3.org/2000/svg" xmlns:xlink="http://www.w3.org/1999/xlink" x="0px" y="0px"
	 viewBox="0 0 50 50" style="enable-background:new 0 0 50 50;" xml:space="preserve">
<style type="text/css">
	.st0{fill:#2E4F7D;}
</style>
<g>
	<path class="st0" d="M39.4,31c-0.4-0.1-0.8,0.1-0.9,0.5c-2,7-8.4,11.8-15.6,11.8c-9,0-16.3-7.3-16.3-16.3c0-9,7.3-16.3,16.3-16.3
		c1.4,0,2.9,0.2,4.2,0.6c0.4,0.1,0.8-0.1,0.9-0.5c0.1-0.4-0.1-0.8-0.5-0.9c-1.5-0.4-3.1-0.6-4.6-0.6c-9.8,0-17.8,8-17.8,17.8
		c0,9.8,8,17.8,17.8,17.8c7.9,0,14.9-5.3,17.1-12.9C40,31.6,39.8,31.1,39.4,31z"/>
	<path class="st0" d="M44.8,16.1L37.1,5.4c-0.1-0.2-0.4-0.3-0.6-0.3S36,5.2,35.9,5.4l-7.7,10.7c-0.2,0.2-0.2,0.5-0.1,0.8
		c0.1,0.2,0.4,0.4,0.7,0.4h2.7v4c0,0.4,0.3,0.8,0.8,0.8s0.8-0.3,0.8-0.8v-4.8c0-0.4-0.3-0.8-0.8-0.8h-2l6.2-8.7l6.2,8.7h-2
		c-0.4,0-0.8,0.3-0.8,0.8V26c0,0.4,0.3,0.8,0.8,0.8s0.8-0.3,0.8-0.8v-8.6h2.7c0.3,0,0.5-0.2,0.7-0.4C45,16.7,44.9,16.4,44.8,16.1z"
		/>
	<path class="st0" d="M22.5,34.7c0.4,0,0.8-0.3,0.8-0.8v-0.7c1.6-0.3,2.8-1.8,2.8-3.5c0-1.9-1.6-2.7-3-3.5c-1.4-0.7-2.2-1.3-2.2-2.2
		c0-0.8,0.4-1.6,1.6-1.6c1.3,0,1.6,1,1.6,1.6c0,0.4,0.3,0.8,0.8,0.8s0.8-0.3,0.8-0.8c0-1.3-0.8-2.7-2.4-3v-0.7
		c0-0.4-0.3-0.8-0.8-0.8s-0.8,0.3-0.8,0.8v0.7c-1.4,0.3-2.4,1.5-2.4,3c0,1.9,1.6,2.7,3,3.5c1.4,0.7,2.2,1.3,2.2,2.2
		c0,1.1-0.9,2.1-2.1,2.1c-1.1,0-2.1-0.9-2.1-2.1c0-0.4-0.3-0.8-0.8-0.8S19,29.3,19,29.7c0,1.7,1.2,3.1,2.8,3.5v0.7
		C21.8,34.4,22.1,34.7,22.5,34.7z"/>
</g>
</svg>
