<?xml version="1.0" encoding="utf-8"?>
<!-- Generator: Adobe Illustrator 26.3.1, SVG Export Plug-In . SVG Version: 6.00 Build 0)  -->
<svg version="1.1" id="圖層_1" xmlns="http://www.w3.org/2000/svg" xmlns:xlink="http://www.w3.org/1999/xlink" x="0px" y="0px"
	 viewBox="0 0 56 56" style="enable-background:new 0 0 56 56;" xml:space="preserve">
<style type="text/css">
	.st0{fill:#FFFFFF;}
</style>
<g>
	<path class="st0" d="M12,24.8C12,24.8,12,24.9,12,24.8c-0.1,0.1-0.1,0.1-0.1,0.2c0,0.1,0,0.1,0,0.2c0,0,0,0,0,0c0,0,0,0,0,0
		c0,0.1,0,0.2,0,0.2c0,0,0,0.1,0,0.1c0,0,0,0.1,0.1,0.1l15.4,17.2c0.1,0.1,0.2,0.2,0.3,0.3c0,0,0,0,0.1,0c0,0,0,0,0,0
		c0,0,0.1,0,0.1,0c0,0,0,0,0,0c0,0,0,0,0,0c0,0,0.1,0,0.1,0c0,0,0,0,0,0c0,0,0,0,0.1,0c0,0,0,0,0,0c0,0,0.1,0,0.1-0.1
		c0,0,0.1-0.1,0.1-0.1c0,0,0,0,0,0L44,25.6c0,0,0-0.1,0.1-0.1c0,0,0,0,0-0.1c0-0.1,0-0.2,0-0.2c0,0,0,0,0,0c0,0,0,0,0,0
		c0-0.1,0-0.1,0-0.2c0,0,0-0.1,0-0.1c0,0,0-0.1-0.1-0.1l-5.9-7.1c-0.1-0.1-0.3-0.2-0.5-0.2H18.4c-0.2,0-0.4,0.1-0.5,0.2L12,24.8z
		 M20.9,25.8l5.3,13.7L13.9,25.8H20.9z M42.1,25.8L29.8,39.6L35,25.8H42.1z M33.7,25.8L28,40.7l-5.7-14.9H33.7z M22.8,24.6l5.1-5.3
		l5.1,5.3H22.8z M42.2,24.6h-7.3l-5.6-5.8h8L42.2,24.6z M18.7,18.8h8l-5.6,5.8h-7.3L18.7,18.8z"/>
	<path class="st0" d="M28,8c0.3,0,0.5-0.2,0.5-0.5v-6C28.5,1.2,28.3,1,28,1s-0.5,0.2-0.5,0.5v6C27.5,7.8,27.7,8,28,8z"/>
	<path class="st0" d="M28,48c-0.3,0-0.5,0.2-0.5,0.5v6c0,0.3,0.2,0.5,0.5,0.5s0.5-0.2,0.5-0.5v-6C28.5,48.2,28.3,48,28,48z"/>
	<path class="st0" d="M54.5,27.5h-6c-0.3,0-0.5,0.2-0.5,0.5s0.2,0.5,0.5,0.5h6c0.3,0,0.5-0.2,0.5-0.5S54.8,27.5,54.5,27.5z"/>
	<path class="st0" d="M7.5,27.5h-6C1.2,27.5,1,27.7,1,28s0.2,0.5,0.5,0.5h6C7.8,28.5,8,28.3,8,28S7.8,27.5,7.5,27.5z"/>
	<path class="st0" d="M46.4,8.9l-4.2,4.2c-0.2,0.2-0.2,0.5,0,0.7c0.1,0.1,0.2,0.1,0.4,0.1s0.3,0,0.4-0.1l4.2-4.2
		c0.2-0.2,0.2-0.5,0-0.7S46.6,8.7,46.4,8.9z"/>
	<path class="st0" d="M13.2,42.1l-4.2,4.2c-0.2,0.2-0.2,0.5,0,0.7c0.1,0.1,0.2,0.1,0.4,0.1s0.3,0,0.4-0.1l4.2-4.2
		c0.2-0.2,0.2-0.5,0-0.7S13.3,41.9,13.2,42.1z"/>
	<path class="st0" d="M42.8,42.1c-0.2-0.2-0.5-0.2-0.7,0s-0.2,0.5,0,0.7l4.2,4.2c0.1,0.1,0.2,0.1,0.4,0.1s0.3,0,0.4-0.1
		c0.2-0.2,0.2-0.5,0-0.7L42.8,42.1z"/>
	<path class="st0" d="M11.5,10H14v2.5c0,0.3,0.2,0.5,0.5,0.5s0.5-0.2,0.5-0.5V10h2.5c0.3,0,0.5-0.2,0.5-0.5S17.8,9,17.5,9H15V6.5
		C15,6.2,14.8,6,14.5,6S14,6.2,14,6.5V9h-2.5C11.2,9,11,9.2,11,9.5S11.2,10,11.5,10z"/>
	<path class="st0" d="M9.5,17.8c0.1,0,0.2-0.1,0.2-0.2s-0.1-0.2-0.2-0.2H8.2V16c0-0.1-0.1-0.2-0.2-0.2S7.8,15.9,7.8,16v1.2H6.5
		c-0.1,0-0.2,0.1-0.2,0.2s0.1,0.2,0.2,0.2h1.2V19c0,0.1,0.1,0.2,0.2,0.2s0.2-0.1,0.2-0.2v-1.2H9.5z"/>
	<path class="st0" d="M4.5,3.8h1.2V5c0,0.1,0.1,0.2,0.2,0.2S6.2,5.1,6.2,5V3.8h1.2c0.1,0,0.2-0.1,0.2-0.2S7.6,3.2,7.5,3.2H6.2V2
		c0-0.1-0.1-0.2-0.2-0.2S5.8,1.9,5.8,2v1.2H4.5c-0.1,0-0.2,0.1-0.2,0.2S4.4,3.8,4.5,3.8z"/>
	<path class="st0" d="M39.5,48h-2v-2c0-0.3-0.2-0.5-0.5-0.5s-0.5,0.2-0.5,0.5v2h-2c-0.3,0-0.5,0.2-0.5,0.5s0.2,0.5,0.5,0.5h2v2
		c0,0.3,0.2,0.5,0.5,0.5s0.5-0.2,0.5-0.5v-2h2c0.3,0,0.5-0.2,0.5-0.5S39.8,48,39.5,48z"/>
	<path class="st0" d="M51.5,37.2h-1.2V36c0-0.1-0.1-0.2-0.2-0.2s-0.2,0.1-0.2,0.2v1.2h-1.2c-0.1,0-0.2,0.1-0.2,0.2s0.1,0.2,0.2,0.2
		h1.2V39c0,0.1,0.1,0.2,0.2,0.2s0.2-0.1,0.2-0.2v-1.2h1.2c0.1,0,0.2-0.1,0.2-0.2S51.6,37.2,51.5,37.2z"/>
</g>
</svg>
