<?xml version="1.0" encoding="utf-8"?>
<!-- Generator: Adobe Illustrator 26.3.1, SVG Export Plug-In . SVG Version: 6.00 Build 0)  -->
<svg version="1.1" id="分離模式" xmlns="http://www.w3.org/2000/svg" xmlns:xlink="http://www.w3.org/1999/xlink" x="0px"
	 y="0px" viewBox="0 0 16 22" style="enable-background:new 0 0 16 22;" xml:space="preserve">
<style type="text/css">
	.st0{fill:#0E74DC;}
</style>
<g>
	<path class="st0" d="M1.5,12.7h13c0.6,0,1-0.4,1-1s-0.4-1-1-1H4.2l9.2-8c0.4-0.4,0.5-1,0.1-1.4c-0.4-0.4-1-0.5-1.4-0.1L0.8,11
		c-0.3,0.3-0.4,0.7-0.3,1.1S1.1,12.7,1.5,12.7z"/>
	<path class="st0" d="M14.5,19h-13c-0.6,0-1,0.4-1,1s0.4,1,1,1h13c0.6,0,1-0.4,1-1S15.1,19,14.5,19z"/>
</g>
</svg>
