<?xml version="1.0" encoding="utf-8"?>
<!-- Generator: Adobe Illustrator 26.3.1, SVG Export Plug-In . SVG Version: 6.00 Build 0)  -->
<svg version="1.1" id="圖層_1" xmlns="http://www.w3.org/2000/svg" xmlns:xlink="http://www.w3.org/1999/xlink" x="0px" y="0px"
	 viewBox="0 0 50 50" style="enable-background:new 0 0 50 50;" xml:space="preserve">
<style type="text/css">
	.st0{fill:#2E4F7D;}
</style>
<g>
	<path class="st0" d="M34.7,40.6c-1.1,0.7-2.2,1.2-3.3,1.6c-9.5,3.5-20.1-1.4-23.6-10.9c-1.7-4.6-1.5-9.6,0.5-14.1S14,9.5,18.6,7.8
		c8.7-3.2,18.3,0.5,22.6,8.6l-1.9-0.6c-0.4-0.1-0.8,0.1-1,0.5c-0.1,0.4,0.1,0.8,0.5,1l3.5,1.2c0.1,0,0.2,0,0.2,0c0,0,0,0,0,0
		c0.1,0,0.2,0,0.3,0c0,0,0,0,0,0c0,0,0,0,0,0c0,0,0.1-0.1,0.1-0.1c0,0,0.1-0.1,0.1-0.1c0,0,0-0.1,0.1-0.1c0,0,0.1-0.1,0.1-0.1
		c0,0,0,0,0,0l1.1-3.6c0.1-0.4-0.1-0.8-0.5-0.9c-0.4-0.1-0.8,0.1-0.9,0.5l-0.6,1.8c-4.6-8.7-15-12.7-24.4-9.3
		c-5,1.8-8.9,5.5-11.2,10.3c-2.2,4.8-2.4,10.2-0.6,15.2c3,8,10.6,13,18.7,13c2.3,0,4.6-0.4,6.9-1.2c1.3-0.5,2.5-1.1,3.6-1.8
		c0.4-0.2,0.5-0.7,0.2-1C35.5,40.5,35.1,40.4,34.7,40.6z"/>
	<path class="st0" d="M29.9,21.3l-4.8,2.8l-5.3-5.4c-0.3-0.3-0.8-0.3-1.1,0c-0.3,0.3-0.3,0.8,0,1.1l5.7,5.8c0.1,0.1,0.3,0.2,0.5,0.2
		c0.1,0,0.3,0,0.4-0.1l5.3-3.1c0.4-0.2,0.5-0.7,0.3-1S30.3,21.1,29.9,21.3z"/>
	<path class="st0" d="M44.9,23.9c0-0.4-0.4-0.7-0.8-0.7c-0.4,0-0.7,0.4-0.7,0.8c0.1,1.3,0,2.7-0.2,4c-0.1,0.4,0.2,0.8,0.6,0.9
		c0,0,0.1,0,0.1,0c0.4,0,0.7-0.3,0.7-0.6C44.8,26.9,44.9,25.4,44.9,23.9z"/>
	<path class="st0" d="M25,10.8c-7.8,0-14.2,6.4-14.2,14.2c0,7.8,6.4,14.2,14.2,14.2S39.2,32.8,39.2,25C39.2,17.2,32.8,10.8,25,10.8z
		 M25.8,37.7v-1.1c0-0.4-0.3-0.8-0.8-0.8s-0.8,0.3-0.8,0.8v1.1c-6.4-0.4-11.6-5.5-11.9-11.9h1.1c0.4,0,0.8-0.3,0.8-0.8
		s-0.3-0.8-0.8-0.8h-1.1c0.4-6.4,5.5-11.6,11.9-11.9v1.1c0,0.4,0.3,0.8,0.8,0.8s0.8-0.3,0.8-0.8v-1.1c6.4,0.4,11.6,5.5,11.9,11.9
		h-1.1c-0.4,0-0.8,0.3-0.8,0.8s0.3,0.8,0.8,0.8h1.1C37.3,32.2,32.2,37.3,25.8,37.7z"/>
	<path class="st0" d="M43.5,30c-0.4-0.1-0.8,0.1-0.9,0.5c-1,3.1-2.8,5.9-5.2,8.1c-0.3,0.3-0.3,0.8,0,1.1c0.1,0.2,0.4,0.2,0.6,0.2
		c0.2,0,0.4-0.1,0.5-0.2c2.6-2.4,4.6-5.4,5.6-8.8C44.1,30.5,43.9,30.1,43.5,30z"/>
</g>
</svg>
