<?xml version="1.0" encoding="utf-8"?>
<!-- Generator: Adobe Illustrator 26.3.1, SVG Export Plug-In . SVG Version: 6.00 Build 0)  -->
<svg version="1.1" id="content" xmlns="http://www.w3.org/2000/svg" xmlns:xlink="http://www.w3.org/1999/xlink" x="0px" y="0px"
	 viewBox="0 0 100 100" style="enable-background:new 0 0 100 100;" xml:space="preserve">
<style type="text/css">
	.st0{fill:#3DAFFC;}
	.st1{fill:#64C0FF;}
	.st2{fill:#FFFFFF;}
</style>
<g>
	<path class="st0" d="M50,86.5c-0.2,0-0.4,0-0.6-0.1l-0.2-0.1C31.9,78.9,20.8,61.9,20.8,43V25.4c0-0.8,0.6-1.4,1.3-1.5
		c8.7-0.8,24.2-8.7,27.2-10.2c0.2-0.1,0.4-0.2,0.7-0.2s0.5,0.1,0.7,0.2c3,1.6,18.4,9.4,27.2,10.2c0.8,0.1,1.3,0.7,1.3,1.5V43
		c0,18.9-11.1,35.9-28.4,43.3l-0.2,0.1C50.4,86.4,50.2,86.5,50,86.5z"/>
	<path class="st1" d="M57.7,76.6c-0.4,0-0.7-0.2-0.9-0.5c-0.4-0.5-0.3-1.3,0.2-1.7c5.3-4.2,9.4-9.6,12.1-15.9c0.3-0.6,1-0.9,1.6-0.6
		c0.6,0.3,0.9,1,0.6,1.6C68.4,66.1,64,72,58.4,76.4C58.2,76.5,57.9,76.6,57.7,76.6z"/>
	<path class="st1" d="M26.7,44.2c-0.7,0-1.2-0.5-1.2-1.2V29.1c0-0.6,0.4-1,0.9-1.2c2.7-0.6,5.9-1.6,9.5-3c0.6-0.2,1.3,0.1,1.6,0.7
		c0.2,0.6-0.1,1.3-0.7,1.6c-3.3,1.3-6.3,2.2-8.9,2.9V43C27.9,43.7,27.3,44.2,26.7,44.2z"/>
	<path class="st2" d="M45.8,58.6c-0.3,0-0.6-0.1-0.8-0.3l-6.5-6.5c-0.5-0.5-0.5-1.2,0-1.7c0.5-0.5,1.2-0.5,1.7,0l5.7,5.6l14.3-14
		c0.5-0.5,1.2-0.5,1.7,0c0.5,0.5,0.5,1.2,0,1.7L46.6,58.3C46.4,58.5,46.1,58.6,45.8,58.6z"/>
</g>
</svg>
