<?xml version="1.0" encoding="utf-8"?>
<!-- Generator: Adobe Illustrator 26.3.1, SVG Export Plug-In . SVG Version: 6.00 Build 0)  -->
<svg version="1.1" id="圖層_1" xmlns="http://www.w3.org/2000/svg" xmlns:xlink="http://www.w3.org/1999/xlink" x="0px" y="0px"
	 viewBox="0 0 56 56" style="enable-background:new 0 0 56 56;" xml:space="preserve">
<style type="text/css">
	.st0{fill:#FFFFFF;}
</style>
<g>
	<path class="st0" d="M44.8,44.7c-0.2-0.4,0-2.1,0.1-3.5c0.1-1.2,0.2-2.4,0.2-3.4C45,22.3,38.7,18.7,33.8,16.3
		c0.2-0.3,0.3-0.6,0.3-1c0-0.5-0.2-1-0.5-1.3l3-2.8c0.3-0.3,0.4-0.6,0.4-1s-0.3-0.7-0.7-0.8L35,8.7c-0.5-0.2-1.3-0.3-1.8-0.1
		l-1.6,0.5c-0.2,0.1-0.6,0-0.7-0.1L29,7.7c-0.5-0.4-1.4-0.4-1.9,0L25.2,9c-0.2,0.1-0.5,0.2-0.7,0.1l-1.6-0.5
		c-0.5-0.2-1.3-0.1-1.8,0.1l-1.2,0.6c-0.4,0.2-0.6,0.5-0.7,0.8s0.1,0.7,0.4,1l2.9,2.8c-0.3,0.3-0.6,0.8-0.6,1.3c0,0.4,0.1,0.7,0.3,1
		c-4.9,2.4-11.2,6-11.3,21.6c0,1,0.1,2.2,0.2,3.4c0.1,1.3,0.2,3,0.1,3.5c-0.5,1.4-0.4,2.5,0.4,3.2c0.4,0.4,1.2,0.8,2.5,0.6
		c1.4-0.3,3.5-0.2,6.5-0.1c2.1,0.1,4.5,0.2,7.4,0.2c1.1,0,2.8-0.1,4.5-0.1c3.5-0.1,7.9-0.3,9.4,0c1.4,0.3,2.1-0.1,2.5-0.6
		C45.2,47.3,45.3,46.1,44.8,44.7z M32.4,15.8c-0.1,0-0.1,0-0.2,0h-8.5c-0.1,0-0.1,0-0.2,0c0,0,0,0,0,0c-0.2-0.1-0.4-0.3-0.4-0.5
		c0-0.3,0.2-0.5,0.4-0.6c0,0,0,0,0,0c0,0,0.1,0,0.1,0h8.5l0.1,0c0,0,0.1,0,0.1,0c0.2,0.1,0.4,0.3,0.4,0.5
		C32.8,15.5,32.7,15.7,32.4,15.8C32.5,15.8,32.4,15.8,32.4,15.8z M23.8,13.4l-3.2-3.1l1.1-0.5c0.2-0.1,0.7-0.1,0.9-0.1l1.6,0.5
		c0.6,0.2,1.4,0.1,1.8-0.3l1.8-1.3c0.1-0.1,0.3-0.1,0.4,0l1.8,1.3c0.5,0.3,1.3,0.5,1.8,0.3l1.6-0.5c0.2-0.1,0.7,0,0.9,0.1l1.1,0.5
		l-3.2,3.1c0,0-0.1,0-0.1,0H23.8C23.8,13.4,23.8,13.4,23.8,13.4z M43.6,45.2c0.3,0.9,0.3,1.6-0.1,1.9c-0.4,0.4-1,0.3-1.4,0.2
		c-0.6-0.1-1.5-0.2-2.5-0.2c0.1-0.2,0.2-0.4,0.3-0.6c0.1-0.3,0-0.7-0.3-0.8c-0.3-0.1-0.7,0-0.8,0.3c-0.2,0.5-0.6,1-0.8,1
		c-0.1,0-0.1,0-0.2,0c-1.7,0-3.6,0.1-5.4,0.2c-1.7,0.1-3.3,0.1-4.4,0.1c-2.8,0-5.2-0.1-7.3-0.2c-1.5-0.1-2.8-0.1-3.9-0.1
		c-1.2,0-2.1,0.1-2.9,0.2c-0.4,0.1-1,0.2-1.4-0.2c-0.4-0.4-0.4-1.1-0.1-1.9c0.2-0.7,0.1-1.9,0-4c-0.1-1.2-0.2-2.4-0.2-3.3
		c0.1-15.3,6.2-18.3,11.1-20.7l0.1-0.1c0.1,0,0.2,0,0.3,0h4.9c0.2,0.1,0.4,0.3,0.7,0.4c0.1,0.1,0.2,0.1,0.3,0.1
		c0.2,0,0.4-0.1,0.5-0.3c0.1-0.1,0.1-0.2,0.1-0.3h2c0.1,0,0.2,0,0.3,0l0.1,0.1c4.9,2.4,11,5.4,11.1,20.7c0,1-0.1,2.2-0.2,3.3
		C43.5,43.2,43.4,44.5,43.6,45.2z"/>
	<path class="st0" d="M28.5,32.3c-1.5-0.8-2.4-1.4-2.4-2.4c0-0.9,0.5-1.8,1.8-1.8c1.3,0,1.8,1,1.8,1.8c0,0.3,0.3,0.6,0.6,0.6
		s0.6-0.3,0.6-0.6c0-1.4-0.8-2.7-2.5-3V26c0-0.3-0.3-0.6-0.6-0.6s-0.6,0.3-0.6,0.6v0.9c-1.5,0.3-2.5,1.4-2.5,3c0,1.8,1.6,2.7,3,3.5
		c1.5,0.8,2.4,1.4,2.4,2.4c0,1.3-1,2.3-2.3,2.3s-2.3-1-2.3-2.3c0-0.3-0.3-0.6-0.6-0.6s-0.6,0.3-0.6,0.6c0,1.8,1.3,3.2,2.9,3.5v0.9
		c0,0.3,0.3,0.6,0.6,0.6s0.6-0.3,0.6-0.6v-0.9c1.7-0.3,2.9-1.8,2.9-3.5C31.5,34,29.9,33.1,28.5,32.3z"/>
	<path class="st0" d="M39.2,28.3c-0.2-0.7-0.4-1.3-0.6-2c-0.1-0.3-0.5-0.5-0.8-0.4c-0.3,0.1-0.5,0.5-0.4,0.8
		c0.2,0.6,0.4,1.2,0.6,1.9c0.1,0.3,0.3,0.5,0.6,0.5c0.1,0,0.1,0,0.2,0C39.1,29,39.3,28.6,39.2,28.3z"/>
	<path class="st0" d="M39.8,40.7c-0.3,0-0.6,0.3-0.6,0.6v0.2c0,0.6,0,1.2,0,1.7c0,0.3,0.3,0.6,0.6,0.7c0,0,0,0,0,0
		c0.3,0,0.6-0.3,0.6-0.6c0-0.6,0-1.2,0-1.8v-0.2C40.4,41,40.2,40.7,39.8,40.7z"/>
	<path class="st0" d="M39.5,34C39.5,34,39.6,34,39.5,34c0.4,0,0.7-0.3,0.6-0.7c-0.1-0.7-0.2-1.4-0.3-2c-0.1-0.3-0.4-0.6-0.7-0.5
		c-0.3,0.1-0.6,0.4-0.5,0.7c0.1,0.6,0.2,1.3,0.3,1.9C38.9,33.7,39.2,34,39.5,34z"/>
	<path class="st0" d="M39.8,39C39.8,39,39.8,39,39.8,39c0.4,0,0.6-0.3,0.6-0.6l0-0.4c0-0.6,0-1.1,0-1.6c0-0.3-0.3-0.6-0.6-0.6
		c-0.3,0-0.6,0.3-0.6,0.6c0,0.5,0,1,0,1.6l0,0.4C39.1,38.7,39.4,39,39.8,39z"/>
	<path class="st0" d="M32.5,18.2c-0.3-0.2-0.7-0.1-0.9,0.1c-0.2,0.3-0.1,0.7,0.1,0.9c0.6,0.4,1,0.8,1.5,1.2c0.1,0.1,0.3,0.2,0.4,0.2
		c0.2,0,0.3-0.1,0.5-0.2c0.2-0.3,0.2-0.7,0-0.9C33.6,19,33.1,18.6,32.5,18.2z"/>
	<path class="st0" d="M36.2,21.8c-0.2-0.3-0.6-0.3-0.9-0.1s-0.3,0.6-0.1,0.9c0.4,0.5,0.7,1,1,1.6c0.1,0.2,0.3,0.3,0.5,0.3
		c0.1,0,0.2,0,0.3-0.1c0.3-0.2,0.4-0.6,0.2-0.9C37,22.9,36.6,22.3,36.2,21.8z"/>
</g>
</svg>
