<?xml version="1.0" encoding="utf-8"?>
<!-- Generator: Adobe Illustrator 26.3.1, SVG Export Plug-In . SVG Version: 6.00 Build 0)  -->
<svg version="1.1" id="圖層_1" xmlns="http://www.w3.org/2000/svg" xmlns:xlink="http://www.w3.org/1999/xlink" x="0px" y="0px"
	 viewBox="0 0 18 18" style="enable-background:new 0 0 18 18;" xml:space="preserve">
<style type="text/css">
	.st0{fill:#2E4F7D;}
</style>
<g>
	<path class="st0" d="M17,10.9c-0.4,0-0.8,0.3-0.8,0.8v3.6c0,0.6-0.5,1-1,1H2.8c-0.6,0-1-0.5-1-1v-3.6c0-0.4-0.3-0.8-0.8-0.8
		s-0.8,0.3-0.8,0.8v3.6c0,1.4,1.1,2.5,2.5,2.5h12.4c1.4,0,2.5-1.1,2.5-2.5v-3.6C17.8,11.3,17.4,10.9,17,10.9z"/>
	<path class="st0" d="M8.5,12.2c0.1,0.1,0.2,0.1,0.2,0.2c0.1,0,0.2,0.1,0.3,0.1s0.2,0,0.3-0.1c0.1,0,0.2-0.1,0.2-0.2L14,7.8
		c0.3-0.3,0.3-0.8,0-1.1s-0.8-0.3-1.1,0L9.8,9.9V1c0-0.4-0.3-0.8-0.8-0.8S8.2,0.6,8.2,1v8.9L5.1,6.7C4.8,6.4,4.3,6.4,4,6.7
		S3.7,7.5,4,7.8L8.5,12.2z"/>
</g>
</svg>
