<?xml version="1.0" encoding="utf-8"?>
<!-- Generator: Adobe Illustrator 26.3.1, SVG Export Plug-In . SVG Version: 6.00 Build 0)  -->
<svg version="1.1" id="content" xmlns="http://www.w3.org/2000/svg" xmlns:xlink="http://www.w3.org/1999/xlink" x="0px" y="0px"
	 viewBox="0 0 816 410" style="enable-background:new 0 0 816 410;" xml:space="preserve">
<style type="text/css">
	.st0{fill:#FF8920;}
	.st1{fill:#B7B7B7;}
	.st2{fill:#57B7FF;}
	.st3{opacity:0.2;fill-rule:evenodd;clip-rule:evenodd;fill:#FF8920;}
	.st4{opacity:0.3;fill-rule:evenodd;clip-rule:evenodd;fill:#BFBFBF;}
	.st5{opacity:0.3;fill-rule:evenodd;clip-rule:evenodd;fill:#99D1FF;}
	.st6{fill-rule:evenodd;clip-rule:evenodd;fill:#FF8920;}
	.st7{fill-rule:evenodd;clip-rule:evenodd;fill:#BCBCBC;}
	.st8{fill-rule:evenodd;clip-rule:evenodd;fill:#99D1FF;}
	.st9{fill:#FFFFFF;}
	.st10{fill:#2E4F7D;}
</style>
<g>
	<g>
		<path class="st0" d="M341.3,17.7h-9.2v-1.6l4.5-5c0.7-0.7,1.1-1.3,1.4-1.8c0.3-0.5,0.4-1,0.4-1.5c0-0.7-0.2-1.2-0.5-1.6
			c-0.4-0.4-0.9-0.6-1.5-0.6c-0.7,0-1.3,0.2-1.7,0.7c-0.4,0.4-0.6,1.1-0.6,1.8h-2.3c0-0.8,0.2-1.6,0.6-2.2c0.4-0.7,0.9-1.2,1.6-1.6
			c0.7-0.4,1.5-0.6,2.4-0.6c1.3,0,2.4,0.3,3.1,1c0.8,0.7,1.1,1.6,1.1,2.8c0,0.7-0.2,1.4-0.6,2.1c-0.4,0.7-1,1.6-1.9,2.5l-3.3,3.6
			h6.3V17.7z"/>
		<path class="st0" d="M362.1,16.9v1.7H345v-1.7h7.5v-3.1h-5.8v-1.7h5.8V9.9h1.9v2.2h6v1.7h-6v3.1H362.1z M359.9,10.3
			c-0.3-0.4-0.7-0.8-1.1-1.3c-10.1,0.4-11.2,0.5-12,0.7c-0.1-0.4-0.4-1.3-0.6-1.7c0.4-0.1,0.8-0.4,1.3-0.9c0.4-0.3,1.6-1.5,2.6-2.9
			h-4.7V2.6h16v1.7h-9c-1,1.3-2.1,2.6-3.2,3.6l8-0.3c-0.7-0.7-1.5-1.3-2.2-1.8l1.4-0.9c1.7,1.3,3.9,3.1,4.9,4.5L359.9,10.3z"/>
		<path class="st0" d="M372.2,17.7h-2.3v-11l-3.3,1.1V6l5.3-2h0.3V17.7z"/>
		<path class="st0" d="M385.8,12c0,2-0.4,3.4-1.1,4.4s-1.9,1.5-3.4,1.5c-1.5,0-2.6-0.5-3.3-1.5s-1.1-2.4-1.1-4.3V9.8
			c0-2,0.4-3.4,1.1-4.4c0.7-1,1.9-1.5,3.4-1.5c1.5,0,2.6,0.5,3.3,1.4s1.1,2.4,1.1,4.3V12z M383.6,9.4c0-1.3-0.2-2.2-0.5-2.8
			c-0.3-0.6-0.9-0.9-1.7-0.9c-0.7,0-1.3,0.3-1.6,0.8c-0.4,0.6-0.5,1.4-0.6,2.6v3.1c0,1.3,0.2,2.2,0.5,2.9c0.4,0.6,0.9,0.9,1.7,0.9
			c0.7,0,1.3-0.3,1.6-0.9c0.3-0.6,0.5-1.5,0.6-2.7V9.4z"/>
		<path class="st0" d="M407,15h-6.7v4.2h-1.8V15h-8.7v-1.7h3.1V8.2h5.6V5.5H394c-0.8,1.4-1.8,2.7-2.8,3.6c-0.3-0.3-1.1-0.9-1.6-1.2
			c1.8-1.5,3.3-4,4.2-6.5l1.8,0.5c-0.2,0.6-0.5,1.2-0.7,1.8h11.1v1.7h-5.8v2.6h5.4v1.7h-5.4v3.4h6.7V15z M398.4,13.3V9.9h-3.9v3.4
			H398.4z"/>
		<path class="st0" d="M414.9,11.5c-0.6,0.2-1.2,0.4-1.9,0.5v5c0,0.9-0.2,1.4-0.7,1.6c-0.6,0.3-1.4,0.3-2.7,0.3
			c-0.1-0.4-0.3-1.2-0.5-1.6c0.8,0,1.7,0,1.9,0c0.3,0,0.4-0.1,0.4-0.4v-4.5l-2.2,0.6l-0.5-1.7c0.8-0.2,1.7-0.4,2.7-0.7V7h-2.5V5.4
			h2.5V1.6h1.7v3.7h2.2V7h-2.2v3.3l1.6-0.4L414.9,11.5z M425.1,10.4c-0.7,2.3-2,4.1-3.5,5.5c1.4,0.8,3,1.4,4.8,1.7
			c-0.4,0.4-0.9,1.2-1.1,1.7c-2-0.5-3.7-1.2-5.2-2.2c-1.6,1-3.5,1.7-5.4,2.2c-0.2-0.5-0.6-1.2-0.9-1.6c1.7-0.3,3.4-0.9,4.9-1.8
			c-1.2-1.2-2.2-2.5-2.9-4.1l0.5-0.2h-1V9.9h8.4l0.3-0.1L425.1,10.4z M418.6,4.4c0,1.8-0.5,3.9-3,5.2c-0.2-0.3-0.8-1.1-1.2-1.3
			c2.2-1.1,2.5-2.6,2.5-3.9V2.3h6.3v4.3c0,0.5,0,0.7,0.3,0.7h1.3c0.3,0,0.7,0,1-0.1c0,0.5,0.1,1.1,0.1,1.5c-0.3,0.1-0.7,0.1-1.1,0.1
			h-1.4c-1.6,0-1.9-0.6-1.9-2.3V3.9h-3V4.4z M417.4,11.6c0.7,1.2,1.6,2.3,2.7,3.2c1.1-0.9,2-2,2.6-3.2H417.4z"/>
		<path class="st0" d="M439.9,4.5c0,0.1,0,0.3,0,0.5c1,1.1,3.1,1.7,5.6,1.9c-0.3,0.4-0.8,1-1,1.5c-2.2-0.3-3.9-1-5.1-2.1
			c-0.7,0.9-2.2,1.7-5.5,2.2c-0.2-0.4-0.6-1-0.9-1.3h-4.9V5.6h5.6v1.3c4.2-0.5,4.6-1.6,4.6-2.4V4.2h-1.6c-0.4,0.7-0.9,1.3-1.4,1.8
			c-0.3-0.2-0.9-0.7-1.3-0.9c1-0.9,1.8-2.2,2.2-3.5l1.6,0.3c-0.1,0.3-0.2,0.6-0.4,1h6l0.2-0.1l1.2,0.4c-0.5,1-1.1,2.1-1.7,2.8
			l-1.4-0.5c0.2-0.3,0.5-0.8,0.8-1.3h-2.7V4.5z M439.8,16.1c2,0.7,4.1,1.5,5.4,2.1l-1.6,1c-1.2-0.6-3.2-1.5-5.2-2.2l1.1-0.9h-5.7
			l1.6,0.7c-1.6,0.9-4,1.9-5.9,2.4c-0.3-0.4-0.9-1-1.3-1.3c2-0.4,4.2-1,5.5-1.8h-3.1V8.4h12.5v7.7H439.8z M433.2,4h-4.7V2.7h4.7V4z
			 M432.4,10.6h9V9.5h-9V10.6z M432.4,12.8h9v-1.1h-9V12.8z M432.4,15h9v-1.1h-9V15z"/>
		<path class="st0" d="M453.5,13.2c-0.1-0.3-0.1-0.6-0.2-1c-4.3,0.7-4.9,0.9-5.3,1.1c-0.1-0.3-0.4-1.2-0.6-1.6
			c0.5-0.1,0.9-0.6,1.5-1.3c0.3-0.3,0.8-1,1.4-1.9c-1.8,0.2-2.2,0.3-2.5,0.5c-0.1-0.3-0.4-1.2-0.6-1.6c0.3-0.1,0.7-0.5,1.1-1
			c0.4-0.6,1.7-2.7,2.4-4.7l1.7,0.7c-0.7,1.7-1.7,3.4-2.8,4.8l1.7-0.2c0.5-0.8,1-1.7,1.4-2.5l1.5,0.9c-1.2,2.1-2.7,4.2-4.2,5.9
			l2.7-0.4c-0.2-0.6-0.4-1.1-0.7-1.6l1.3-0.4c0.6,1.2,1.2,2.8,1.4,3.8L453.5,13.2z M449.6,14.2c-0.2,1.7-0.5,3.5-0.9,4.6
			c-0.3-0.2-1-0.4-1.3-0.5c0.4-1.1,0.7-2.8,0.8-4.4L449.6,14.2z M451.5,13.9c0.2,1.2,0.4,2.8,0.5,3.8l-1.3,0.3
			c0-1.1-0.2-2.6-0.4-3.9L451.5,13.9z M464.3,8.2c-0.5,2.8-1.4,5.1-2.6,7c0.9,1,1.9,1.9,3.2,2.4c-0.4,0.3-0.9,1-1.2,1.5
			c-1.2-0.6-2.2-1.5-3.1-2.5c-0.9,1.1-2,1.9-3.1,2.6c-0.2-0.4-0.7-1.1-1.1-1.4c1.2-0.6,2.2-1.5,3.2-2.7c-0.8-1.3-1.4-2.8-1.9-4.4
			c-0.4,3.4-1.1,6.2-2.6,8.4c-0.3-0.3-1.1-0.9-1.5-1.1c0.4-0.5,0.7-1,1-1.6l-1.3,0.4c-0.2-0.8-0.5-2.1-0.9-3.1l1.2-0.4
			c0.4,0.9,0.8,2.2,1,3c1.5-3,1.8-7.3,1.8-12.3h-1.8V2.5h6.6l0.3-0.1l1.2,0.2c-0.2,1.6-0.5,3.6-0.9,5.3h1.1l0.3-0.1L464.3,8.2z
			 M458,4.2c0,1.3-0.1,2.5-0.1,3.7h2.2c0.2-1.2,0.5-2.6,0.7-3.7H458z M458.9,9.5c0.4,1.5,1,3,1.7,4.2c0.7-1.2,1.3-2.7,1.7-4.2H458.9
			z"/>
		<path class="st0" d="M472.1,2.1c-0.5,1.3-1.1,2.6-1.8,3.8v13.3h-1.7V8.6c-0.6,0.7-1.1,1.5-1.7,2.1c-0.2-0.4-0.7-1.4-1-1.8
			c1.8-1.7,3.5-4.5,4.5-7.2L472.1,2.1z M477,16.7c-1.1,1-2.9,1.9-4.4,2.5c-0.3-0.3-1-0.9-1.4-1.2c1.5-0.4,3.2-1.2,4.1-1.9L477,16.7z
			 M476.8,3.8h-4.5V2.6h4.5v-1h1.8v1h4.7v1.2h-4.7v0.8h4.2v1.1h-4.2v0.9h5.3v1.2h-12.4V6.6h5.3V5.7h-4V4.6h4V3.8z M472.9,15.9V8.6
			h9.8v7.3H472.9z M474.7,10.7h6.2v-1h-6.2V10.7z M474.7,12.7h6.2v-1h-6.2V12.7z M474.7,14.7h6.2v-1h-6.2V14.7z M480.3,16
			c1.3,0.7,2.8,1.7,3.6,2.4l-1.6,1c-0.8-0.7-2.3-1.9-3.6-2.6L480.3,16z"/>
	</g>
	<g>
		<g>
			<path class="st1" d="M132.7,103.9c-2.1,0.9-4.4,1.7-6.1,2.4l-0.6-1.8c0.7-0.2,1.5-0.5,2.5-0.8v-6.3h-2.2v-1.7h2.2v-4.4h1.7v4.4h2
				v1.7h-2v5.6l2.2-0.8L132.7,103.9z M143.7,106.2v1.7h-11.8v-1.7h6.6c0.7-2.5,1.4-6.4,1.7-9.2l1.9,0.3c-0.5,2.9-1.2,6.5-1.9,8.9
				H143.7z M143.2,96.1h-10.5v-1.7h10.5V96.1z M135.3,105.5c-0.2-2-0.7-5.4-1.2-8l1.6-0.4c0.6,2.6,1.2,6,1.4,7.9L135.3,105.5z
				 M137.3,94.4c-0.1-0.8-0.5-2.1-0.9-3l1.7-0.4c0.3,0.9,0.8,2.1,1,2.9L137.3,94.4z"/>
			<path class="st1" d="M151.5,103c-1.9,0.9-4,1.8-5.6,2.6l-0.7-1.8c0.7-0.2,1.6-0.6,2.5-0.9v-5.6h-2.1v-1.7h2.1v-4.3h1.7v4.3h1.9
				v1.7h-1.9v5c0.6-0.2,1.2-0.5,1.8-0.7L151.5,103z M162.1,97.7c-0.6,2.9-1.7,5.2-3.2,7c1.1,1.1,2.5,2,4.1,2.5
				c-0.4,0.3-0.9,1-1.2,1.5c-1.6-0.6-2.9-1.6-4.1-2.8c-1.2,1.1-2.5,2-4,2.7c-0.2-0.4-0.7-1-1.1-1.3c1.4-0.6,2.8-1.5,3.9-2.6
				c-1-1.4-1.8-3.1-2.4-5c-0.5,3.7-1.3,6.6-3.2,8.9c-0.3-0.3-1.1-0.9-1.5-1.1c2.7-2.9,3.3-7.7,3.4-13.8h-1.7V92h7.8l0.3-0.1l1.2,0.2
				c-0.2,1.6-0.5,3.6-0.9,5.3h1.1l0.3-0.1L162.1,97.7z M154.7,93.6c0,1.3-0.1,2.6-0.2,3.7h3.4c0.2-1.2,0.5-2.6,0.7-3.7H154.7z
				 M155.6,99c0.5,1.7,1.2,3.1,2.2,4.4c0.9-1.3,1.7-2.7,2.2-4.4H155.6z"/>
			<path class="st1" d="M170.2,91.6c-0.5,1.3-1.1,2.6-1.8,3.8v13.3h-1.7V98.1c-0.6,0.7-1.1,1.5-1.7,2.1c-0.2-0.4-0.7-1.4-1-1.8
				c1.8-1.7,3.5-4.5,4.5-7.2L170.2,91.6z M175.1,106.2c-1.1,1-2.9,1.9-4.4,2.5c-0.3-0.3-1-0.9-1.4-1.2c1.5-0.4,3.2-1.2,4.1-1.9
				L175.1,106.2z M174.9,93.3h-4.5v-1.2h4.5v-1h1.8v1h4.7v1.2h-4.7v0.8h4.2v1.1h-4.2v0.9h5.3v1.2h-12.4v-1.2h5.3v-0.9h-4v-1.1h4
				V93.3z M171,105.4v-7.3h9.8v7.3H171z M172.8,100.2h6.2v-1h-6.2V100.2z M172.8,102.2h6.2v-1h-6.2V102.2z M172.8,104.2h6.2v-1h-6.2
				V104.2z M178.4,105.5c1.3,0.7,2.8,1.7,3.6,2.4l-1.6,1c-0.8-0.7-2.3-1.9-3.6-2.6L178.4,105.5z"/>
		</g>
	</g>
	<g>
		<g>
			<path class="st2" d="M637.2,103.4c-0.5,1.3-1.2,2.9-1.9,3.9c-0.3-0.2-0.9-0.7-1.2-0.8c0.7-0.9,1.4-2.2,1.8-3.4L637.2,103.4z
				 M639.6,102.1v6.5h-1.7v-6.5h-3.7v-1.5h3.7v-1.7h-3.8v-1.5h2.1c-0.1-0.7-0.3-1.7-0.7-2.4l1.5-0.4c0.3,0.7,0.6,1.7,0.7,2.4
				l-1.4,0.4h3c0.3-0.8,0.7-2,0.9-2.8l1.7,0.3c-0.3,0.8-0.7,1.7-1,2.4h2.2v1.5h-3.5v1.7h3.3v1.5H639.6z M642.9,94.5h-8.4v-1.5h3.5
				c-0.2-0.5-0.5-1.2-0.7-1.6L639,91c0.3,0.7,0.7,1.5,1,2.1h2.9V94.5z M641.5,102.8c0.6,0.9,1.3,2.1,1.6,2.9l-1.2,0.7
				c-0.3-0.8-1-2.1-1.5-3L641.5,102.8z M651.6,99.1h-2v9.5h-1.7v-9.5h-2.2v0.5c0,2.8-0.2,6.6-2,9c-0.3-0.3-1-0.9-1.4-1.1
				c1.5-2.2,1.7-5.5,1.7-8v-6.6c2.1-0.4,4.5-1,5.9-1.6l1.4,1.3c-1.6,0.6-3.6,1.1-5.6,1.4v3.4h6V99.1z"/>
			<path class="st2" d="M670.6,102.6v1.7h-17.2v-1.7h1.5l-0.3-10.1c1.1-0.3,2.4-0.8,3.2-1.2l0.8,1.5c-0.8,0.3-1.6,0.5-2.5,0.7l0.1,2
				h1.9V97h-1.9l0.1,2.1h1.9v1.4h-1.9l0.1,2.1h2.3V92h6.7v10.5h2.3c0-0.6,0.1-1.3,0.1-2h-1.9v-1.4h2c0-0.7,0-1.4,0.1-2.1H666v-1.4
				h1.9c0-0.7,0-1.5,0-2.2h-2.1v-1.5h3.6c0,3.4-0.2,7.7-0.3,10.7H670.6z M660.3,105.5c-1.6,1.1-3.9,2.4-5.8,3.2
				c-0.2-0.4-0.7-1-1-1.3c1.8-0.7,4.1-2,5.3-3L660.3,105.5z M659.9,102.6h4.1v-9.2h-4.1V102.6z M663.5,94.6v1.2h-3.1v-1.2H663.5z
				 M660.6,96.9h2.8v4.4h-2.8V96.9z M661.4,100.1h1.2V98h-1.2V100.1z M664.7,104.3c2,0.9,4.2,2.1,5.5,3l-1.2,1.3
				c-1.3-0.9-3.4-2.1-5.4-3.1L664.7,104.3z"/>
			<path class="st2" d="M678.2,91.6c-0.5,1.3-1.1,2.6-1.8,3.8v13.3h-1.7V98.1c-0.6,0.7-1.1,1.5-1.7,2.1c-0.2-0.4-0.7-1.4-1-1.8
				c1.8-1.7,3.5-4.5,4.5-7.2L678.2,91.6z M683.1,106.2c-1.1,1-2.9,1.9-4.4,2.5c-0.3-0.3-1-0.9-1.4-1.2c1.5-0.4,3.2-1.2,4.1-1.9
				L683.1,106.2z M682.9,93.3h-4.5v-1.2h4.5v-1h1.8v1h4.7v1.2h-4.7v0.8h4.2v1.1h-4.2v0.9h5.3v1.2h-12.4v-1.2h5.3v-0.9h-4v-1.1h4
				V93.3z M679,105.4v-7.3h9.8v7.3H679z M680.7,100.2h6.2v-1h-6.2V100.2z M680.7,102.2h6.2v-1h-6.2V102.2z M680.7,104.2h6.2v-1h-6.2
				V104.2z M686.4,105.5c1.3,0.7,2.8,1.7,3.6,2.4l-1.6,1c-0.8-0.7-2.3-1.9-3.6-2.6L686.4,105.5z"/>
		</g>
	</g>
	<path class="st3" d="M407.9,175.1c-95.3,0-98.2,161.1-208.4,187.7c208.4,0,208.4,0,208.4,0c208.4,0,208.4,0,208.4,0
		C506.1,336.2,503.2,175.1,407.9,175.1L407.9,175.1z"/>
	<path class="st4" d="M153.4,248.7c-70,0-72.1,97.9-153.1,114.1c153.1,0,153.1,0,153.1,0c153.1,0,153.1,0,153.1,0
		C225.5,346.6,223.4,248.7,153.4,248.7L153.4,248.7z"/>
	<path class="st5" d="M662.7,248.7c-70,0-72.1,97.9-153,114.1c153,0,153,0,153,0c153,0,153,0,153,0
		C734.8,346.6,732.7,248.7,662.7,248.7L662.7,248.7z"/>
	<circle class="st6" cx="407.9" cy="141" r="3.3"/>
	<rect x="407.2" y="141" class="st6" width="1.4" height="34.1"/>
	<path class="st6" d="M447,74.4c0,21.3-38.6,50.9-38.6,50.9s-38.6-29.6-38.6-50.9s17.3-38.6,38.6-38.6S447,53.1,447,74.4z"/>
	<circle class="st7" cx="153.4" cy="214.9" r="3.3"/>
	<rect x="152.7" y="214.9" class="st7" width="1.4" height="34.1"/>
	<path class="st7" d="M184.8,157.8c0,17.3-31.4,41.5-31.4,41.5S122,175.1,122,157.8s14.1-31.4,31.4-31.4S184.8,140.5,184.8,157.8z"
		/>
	<circle class="st8" cx="662.7" cy="214.9" r="3.3"/>
	<rect x="662" y="214.9" class="st8" width="1.4" height="34.1"/>
	<path class="st8" d="M694.1,157.8c0,17.3-31.4,41.5-31.4,41.5s-31.4-24.1-31.4-41.5s14.1-31.4,31.4-31.4
		C680,126.4,694.1,140.5,694.1,157.8z"/>
	<g>
		<path class="st9" d="M388.6,86.8h-4.5V69.4l-5.4,1.7v-3.7l9.4-3.4h0.5V86.8z"/>
		<path class="st9" d="M395.1,84.5c0-0.7,0.2-1.3,0.7-1.8c0.5-0.4,1.1-0.7,1.8-0.7c0.7,0,1.4,0.2,1.8,0.7c0.5,0.4,0.7,1,0.7,1.8
			c0,0.7-0.2,1.3-0.7,1.7c-0.5,0.4-1.1,0.7-1.8,0.7c-0.7,0-1.3-0.2-1.8-0.7C395.4,85.8,395.1,85.3,395.1,84.5z"/>
		<path class="st9" d="M418,77.4c0,3.1-0.7,5.6-2,7.2c-1.3,1.7-3.2,2.5-5.7,2.5c-2.5,0-4.4-0.8-5.7-2.5c-1.3-1.6-2-4-2-7v-4.2
			c0-3.2,0.7-5.6,2-7.2c1.3-1.6,3.2-2.5,5.7-2.5c2.5,0,4.4,0.8,5.7,2.4c1.3,1.6,2,4,2,7V77.4z M413.5,72.8c0-1.9-0.3-3.3-0.8-4.1
			s-1.3-1.3-2.4-1.3c-1.1,0-1.8,0.4-2.4,1.2c-0.5,0.8-0.8,2.1-0.8,3.8v5.5c0,1.9,0.3,3.2,0.8,4.1c0.5,0.9,1.3,1.4,2.4,1.4
			c1.1,0,1.9-0.4,2.4-1.3c0.5-0.9,0.7-2.2,0.8-4V72.8z"/>
		<path class="st9" d="M436.7,86.8h-15.6v-3.1l7.4-7.8c1-1.1,1.8-2.1,2.2-2.9c0.5-0.8,0.7-1.6,0.7-2.3c0-1-0.3-1.8-0.8-2.4
			c-0.5-0.6-1.2-0.9-2.2-0.9c-1,0-1.8,0.4-2.4,1.1c-0.6,0.7-0.9,1.6-0.9,2.8h-4.5c0-1.4,0.3-2.7,1-3.8c0.7-1.1,1.6-2,2.8-2.7
			c1.2-0.7,2.6-1,4.1-1c2.3,0,4.2,0.6,5.5,1.7s1.9,2.7,1.9,4.8c0,1.1-0.3,2.3-0.9,3.4c-0.6,1.2-1.6,2.5-3,4.1l-5.2,5.5h9.8V86.8z"/>
	</g>
	<g>
		<path class="st9" d="M143.3,161.8c0,2.4-0.5,4.2-1.5,5.4s-2.4,1.9-4.3,1.9c-1.9,0-3.3-0.6-4.3-1.8s-1.5-3-1.5-5.3v-3.1
			c0-2.4,0.5-4.2,1.5-5.4s2.4-1.9,4.3-1.9s3.3,0.6,4.3,1.8s1.5,3,1.5,5.3V161.8z M139.9,158.3c0-1.4-0.2-2.4-0.6-3.1s-1-1-1.8-1
			c-0.8,0-1.4,0.3-1.8,0.9s-0.6,1.6-0.6,2.9v4.2c0,1.4,0.2,2.4,0.6,3.1s1,1,1.8,1c0.8,0,1.4-0.3,1.8-1c0.4-0.6,0.6-1.6,0.6-3V158.3z
			"/>
		<path class="st9" d="M144.5,167.2c0-0.5,0.2-1,0.5-1.3s0.8-0.5,1.4-0.5c0.6,0,1,0.2,1.4,0.5s0.5,0.8,0.5,1.3c0,0.5-0.2,1-0.5,1.3
			s-0.8,0.5-1.4,0.5c-0.6,0-1-0.2-1.4-0.5S144.5,167.7,144.5,167.2z"/>
		<path class="st9" d="M161.3,153.6l-6.6,15.2h-3.6l6.6-14.3h-8.5v-2.7h12V153.6z"/>
		<path class="st9" d="M175.1,153.6l-6.6,15.2h-3.6l6.6-14.3H163v-2.7h12V153.6z"/>
	</g>
	<g>
		<path class="st9" d="M652.6,161.8c0,2.4-0.5,4.2-1.5,5.4s-2.4,1.9-4.3,1.9c-1.9,0-3.3-0.6-4.3-1.8s-1.5-3-1.5-5.3v-3.1
			c0-2.4,0.5-4.2,1.5-5.4s2.4-1.9,4.3-1.9s3.3,0.6,4.3,1.8s1.5,3,1.5,5.3V161.8z M649.2,158.3c0-1.4-0.2-2.4-0.6-3.1s-1-1-1.8-1
			c-0.8,0-1.4,0.3-1.8,0.9s-0.6,1.6-0.6,2.9v4.2c0,1.4,0.2,2.4,0.6,3.1s1,1,1.8,1c0.8,0,1.4-0.3,1.8-1c0.4-0.6,0.6-1.6,0.6-3V158.3z
			"/>
		<path class="st9" d="M653.8,167.2c0-0.5,0.2-1,0.5-1.3s0.8-0.5,1.4-0.5c0.6,0,1,0.2,1.4,0.5s0.5,0.8,0.5,1.3c0,0.5-0.2,1-0.5,1.3
			s-0.8,0.5-1.4,0.5c-0.6,0-1-0.2-1.4-0.5S653.8,167.7,653.8,167.2z"/>
		<path class="st9" d="M670.6,153.6l-6.6,15.2h-3.6l6.6-14.3h-8.5v-2.7h12V153.6z"/>
		<path class="st9" d="M684.4,153.6l-6.6,15.2h-3.6l6.6-14.3h-8.5v-2.7h12V153.6z"/>
	</g>
	<g>
		<g>
			<path class="st10" d="M113.2,297.3h-5v3.1h-1v-3.1h-6.3v-1h2.2v-3.7h4.1v-2.1h-3.3c-0.6,1.1-1.3,2-2.1,2.7
				c-0.2-0.2-0.6-0.5-0.9-0.6c1.3-1.1,2.4-2.9,3.1-4.7l1,0.2c-0.2,0.5-0.4,1-0.6,1.4h8.2v1h-4.3v2.1h4v1h-4v2.7h5V297.3z
				 M107.2,296.3v-2.7h-3.1v2.7H107.2z"/>
			<path class="st10" d="M119.1,288.3c-0.4,0.9-0.8,1.8-1.4,2.6v9.6h-1v-8.1c-0.6,0.8-1.2,1.5-1.8,2.1c-0.1-0.2-0.4-0.8-0.6-1
				c1.5-1.3,3-3.3,3.8-5.4L119.1,288.3z M124.8,299c0.8,0,0.9-0.6,1-2.9c0.3,0.2,0.7,0.4,0.9,0.5c-0.2,2.5-0.4,3.4-1.9,3.4h-2.6
				c-1.4,0-1.8-0.4-1.8-1.8v-10h1v3.7h4.9v1h-4.9v5.3c0,0.7,0.2,0.9,0.9,0.9H124.8z"/>
			<path class="st10" d="M131.7,296.7h2.4v0.9h-2.4v2.7h-0.9v-2.7h-2.6v-0.9h2.6v-1.5h-2.3v-0.9h1.3c-0.1-0.5-0.4-1.1-0.6-1.7
				l0.8-0.2c0.3,0.5,0.6,1.2,0.7,1.6l-0.7,0.2h1.7c0.4-0.6,0.7-1.4,0.9-1.9l0.9,0.2c-0.3,0.6-0.6,1.2-0.9,1.7h1.4v0.9h-2.2V296.7z
				 M134.1,292.4h-5.9v-0.9h2.5v-1.4h-2.1v-0.9h2.1v-1.4h0.9v1.4h2.1v0.9h-2.1v1.4h2.4V292.4z M140.3,293.3
				c-0.3,1.6-0.8,3.1-1.7,4.4c0.6,0.7,1.4,1.3,2.2,1.7c-0.2,0.2-0.5,0.6-0.7,0.8c-0.8-0.4-1.4-1-2.1-1.7c-0.6,0.7-1.2,1.4-2,1.9
				c-0.1-0.2-0.3-0.4-0.5-0.5v0.5h-0.9v-11.9h5.3v2.6c0,0.5-0.1,0.8-0.5,0.9c-0.4,0.2-1.1,0.2-2.1,0.2c0-0.3-0.2-0.6-0.3-0.9
				c0.8,0,1.6,0,1.8,0c0.2,0,0.3-0.1,0.3-0.2v-1.7h-3.4v3.7h3.9l0.2,0L140.3,293.3z M135.6,299.6c0.7-0.5,1.3-1.1,1.9-1.8
				c-0.8-1.1-1.3-2.4-1.7-3.8h-0.1V299.6z M136.6,294c0.3,1.1,0.8,2.1,1.4,3c0.5-0.9,0.9-1.9,1.2-3H136.6z"/>
			<path class="st10" d="M141.8,288.5h5.1v0.8h-1.5v1.7h1.3v9.1h-0.8v-0.8h-3.1v1h-0.8v-9.3h1.3v-1.7h-1.5V288.5z M145.9,298.6v-3.7
				h0h-0.6c-0.5,0-0.7-0.1-0.7-0.8v-2.2H144v1.1c0,0.8-0.2,1.9-0.9,2.6c-0.1-0.1-0.2-0.2-0.3-0.3v3.2H145.9z M142.8,291.9v3.3
				c0.6-0.7,0.7-1.5,0.7-2.1v-1.1H142.8z M143.3,296.4h2.1v0.8h-2.1V296.4z M144.7,289.3H144v1.7h0.6V289.3z M145.9,291.9h-0.7v2.2
				c0,0.2,0,0.2,0.2,0.2h0.4c0.1,0,0.1,0,0.1,0V291.9z M148.4,288.2h0.8v5.4c0,2.6-0.2,4.9-1.6,6.8c-0.2-0.2-0.5-0.4-0.7-0.6
				c1.1-1.4,1.4-3,1.5-4.9l-0.7,0.3c-0.1-0.8-0.4-2.1-0.8-3.1l0.6-0.2c0.3,0.9,0.7,2.1,0.8,3c0-0.4,0-0.9,0-1.3V288.2z M153.8,288.2
				v12.2h-0.9v-5.5l-0.5,0.2c-0.2-0.8-0.5-1.9-0.9-2.9v7.8h-0.8v-5.2l-0.6,0.3c-0.1-0.8-0.4-2.1-0.7-3.1l0.6-0.2
				c0.3,0.9,0.6,2,0.8,2.8v-6.4h0.8v3.6l0.5-0.2c0.4,0.8,0.7,1.8,0.9,2.5v-6.1H153.8z"/>
			<path class="st10" d="M167.8,297.5h-5.6v2.9h-1.1v-2.9h-5.6v-0.9h5.6v-1.1h1.1v1.1h5.6V297.5z M159.3,294c-1,0.6-2.1,1.1-3.1,1.6
				l-0.5-0.8c0.8-0.3,2.1-0.9,3.4-1.5L159.3,294z M163.9,295.6c-0.1-0.2-0.2-0.5-0.4-0.7c-3.6,0.3-4,0.4-4.3,0.5
				c-0.1-0.2-0.2-0.6-0.3-0.9c0.3,0,0.7-0.3,1.1-0.7c0.3-0.2,0.8-0.8,1.5-1.4c-1.6,0.1-1.9,0.2-2.1,0.3c0-0.2-0.2-0.6-0.3-0.9
				c0.2,0,0.4-0.2,0.6-0.4c0.2-0.2,0.6-0.7,1.1-1.4h-5v-0.9h5.6c-0.2-0.3-0.4-0.8-0.6-1.1l1-0.3c0.3,0.4,0.6,0.9,0.8,1.3h5.1v0.9
				H162c-0.4,0.6-0.9,1.2-1.3,1.7l1.7-0.1c0.3-0.4,0.6-0.7,0.9-1.1l0.8,0.5c-1.1,1.3-2.3,2.5-3.4,3.4l2.4-0.2
				c-0.2-0.3-0.5-0.6-0.7-0.9l0.8-0.3c0.6,0.7,1.3,1.7,1.6,2.3L163.9,295.6z M156.8,290.6c0.7,0.4,1.6,1.1,2.1,1.5l-0.7,0.6
				c-0.4-0.5-1.3-1.1-2.1-1.6L156.8,290.6z M166.8,295.7c-0.6-0.5-1.7-1.4-2.7-1.9l0.7-0.5c0.9,0.5,2.1,1.3,2.7,1.9L166.8,295.7z
				 M167,291.1c-0.6,0.6-1.4,1.3-2,1.7l-0.7-0.5c0.6-0.4,1.5-1.2,1.9-1.8L167,291.1z"/>
			<path class="st10" d="M176.9,289.6v1h-0.2c-1,0-1.7,0.3-2.3,0.9c-0.6,0.6-0.9,1.3-1,2.3c0.5-0.6,1.2-0.9,2.1-0.9
				c0.8,0,1.5,0.3,2,0.9c0.5,0.6,0.8,1.4,0.8,2.3c0,1-0.3,1.8-0.8,2.4c-0.5,0.6-1.3,0.9-2.2,0.9c-0.9,0-1.7-0.4-2.3-1.1
				s-0.9-1.6-0.9-2.8v-0.5c0-1.8,0.4-3.2,1.1-4.1s1.9-1.4,3.4-1.5H176.9z M175.3,294c-0.4,0-0.8,0.1-1.2,0.4s-0.6,0.6-0.7,1v0.5
				c0,0.8,0.2,1.4,0.5,1.9c0.4,0.5,0.8,0.7,1.3,0.7c0.6,0,1-0.2,1.3-0.6c0.3-0.4,0.5-0.9,0.5-1.6c0-0.7-0.2-1.2-0.5-1.6
				S175.9,294,175.3,294z"/>
			<path class="st10" d="M179.9,298.7c0-0.2,0.1-0.4,0.2-0.5s0.3-0.2,0.6-0.2s0.4,0.1,0.6,0.2c0.1,0.1,0.2,0.3,0.2,0.5
				c0,0.2-0.1,0.4-0.2,0.5c-0.1,0.1-0.3,0.2-0.6,0.2s-0.4-0.1-0.6-0.2S179.9,298.9,179.9,298.7z"/>
			<path class="st10" d="M189.3,292.2c0,0.5-0.1,0.9-0.4,1.3c-0.3,0.4-0.6,0.7-1,0.9c0.5,0.2,0.9,0.5,1.2,1s0.4,0.9,0.4,1.4
				c0,0.8-0.3,1.5-0.9,2c-0.6,0.5-1.3,0.7-2.2,0.7c-0.9,0-1.7-0.3-2.2-0.8s-0.8-1.2-0.8-2c0-0.5,0.1-1,0.4-1.4s0.7-0.7,1.2-1
				c-0.4-0.2-0.8-0.5-1-0.9c-0.2-0.4-0.4-0.8-0.4-1.3c0-0.8,0.3-1.5,0.8-2c0.5-0.5,1.2-0.7,2.1-0.7c0.9,0,1.5,0.2,2.1,0.7
				C189,290.7,189.3,291.3,189.3,292.2z M188.3,296.7c0-0.5-0.2-1-0.5-1.3c-0.3-0.3-0.8-0.5-1.4-0.5s-1,0.2-1.3,0.5
				c-0.3,0.3-0.5,0.8-0.5,1.3c0,0.6,0.2,1,0.5,1.3c0.3,0.3,0.8,0.5,1.4,0.5c0.6,0,1-0.2,1.4-0.5
				C188.1,297.7,188.3,297.2,188.3,296.7z M186.4,290.5c-0.5,0-0.9,0.2-1.2,0.5c-0.3,0.3-0.5,0.7-0.5,1.2c0,0.5,0.1,0.9,0.4,1.2
				c0.3,0.3,0.7,0.5,1.2,0.5s0.9-0.2,1.2-0.5c0.3-0.3,0.4-0.7,0.4-1.2s-0.2-0.9-0.5-1.2S186.9,290.5,186.4,290.5z"/>
			<path class="st10" d="M195.1,299.4h-1.2v-8.2l-2.5,0.9v-1.1l3.5-1.3h0.2V299.4z"/>
			<path class="st10" d="M198.6,291.5c0-0.6,0.2-1.1,0.6-1.4c0.4-0.4,0.8-0.6,1.4-0.6c0.6,0,1.1,0.2,1.4,0.6
				c0.4,0.4,0.6,0.9,0.6,1.5v0.5c0,0.6-0.2,1.1-0.6,1.4c-0.4,0.4-0.8,0.6-1.4,0.6c-0.6,0-1.1-0.2-1.4-0.6c-0.4-0.4-0.6-0.9-0.6-1.5
				V291.5z M199.6,292c0,0.3,0.1,0.6,0.3,0.9s0.5,0.3,0.8,0.3c0.3,0,0.6-0.1,0.8-0.3c0.2-0.2,0.3-0.5,0.3-0.9v-0.5
				c0-0.3-0.1-0.6-0.3-0.9s-0.5-0.3-0.8-0.3c-0.3,0-0.6,0.1-0.8,0.3s-0.3,0.5-0.3,0.9V292z M200.9,298.6l-0.7-0.4l4.8-7.6l0.7,0.4
				L200.9,298.6z M203.4,297c0-0.6,0.2-1.1,0.6-1.4s0.8-0.6,1.4-0.6s1.1,0.2,1.4,0.6s0.6,0.9,0.6,1.5v0.5c0,0.6-0.2,1.1-0.6,1.4
				c-0.4,0.4-0.8,0.6-1.4,0.6c-0.6,0-1.1-0.2-1.4-0.6c-0.4-0.4-0.6-0.9-0.6-1.5V297z M204.3,297.5c0,0.4,0.1,0.6,0.3,0.9
				c0.2,0.2,0.5,0.3,0.8,0.3c0.3,0,0.6-0.1,0.8-0.3c0.2-0.2,0.3-0.5,0.3-0.9V297c0-0.4-0.1-0.6-0.3-0.9c-0.2-0.2-0.5-0.3-0.8-0.3
				c-0.3,0-0.6,0.1-0.8,0.3c-0.2,0.2-0.3,0.5-0.3,0.9V297.5z"/>
			<path class="st10" d="M113.2,320.1h-5v3.1h-1v-3.1h-6.3v-1h2.2v-3.7h4.1v-2.1h-3.3c-0.6,1.1-1.3,2-2.1,2.7
				c-0.2-0.2-0.6-0.5-0.9-0.6c1.3-1.1,2.4-2.9,3.1-4.7l1,0.2c-0.2,0.5-0.4,1-0.6,1.4h8.2v1h-4.3v2.1h4v1h-4v2.7h5V320.1z
				 M107.2,319.1v-2.7h-3.1v2.7H107.2z"/>
			<path class="st10" d="M119.1,311.1c-0.4,0.9-0.8,1.8-1.4,2.6v9.6h-1v-8.1c-0.6,0.8-1.2,1.5-1.8,2.1c-0.1-0.2-0.4-0.8-0.6-1
				c1.5-1.3,3-3.3,3.8-5.4L119.1,311.1z M124.8,321.8c0.8,0,0.9-0.6,1-2.9c0.3,0.2,0.7,0.4,0.9,0.5c-0.2,2.5-0.4,3.4-1.9,3.4h-2.6
				c-1.4,0-1.8-0.4-1.8-1.8v-10h1v3.7h4.9v1h-4.9v5.3c0,0.7,0.2,0.9,0.9,0.9H124.8z"/>
			<path class="st10" d="M130.5,316.7c-0.5-0.4-1.6-1.1-2.4-1.5l0.6-0.7c0.8,0.4,1.9,1,2.4,1.4L130.5,316.7z M131.4,318.6
				c-0.6,1.4-1.4,3.1-2.1,4.4l-0.9-0.6c0.6-1.1,1.6-2.8,2.2-4.4L131.4,318.6z M131.2,313.1c-0.5-0.5-1.5-1.1-2.4-1.6l0.6-0.7
				c0.8,0.4,1.9,1,2.4,1.5L131.2,313.1z M139.6,316.3c-0.5,1.8-1.3,3.2-2.3,4.3c1,0.8,2.1,1.4,3.4,1.7c-0.2,0.2-0.5,0.6-0.7,0.9
				c-1.3-0.4-2.5-1.1-3.5-1.9c-1,0.9-2.1,1.5-3.4,1.9c-0.1-0.2-0.4-0.7-0.7-0.8c1.2-0.4,2.3-1,3.3-1.8c-0.9-1-1.6-2.3-2.2-3.7h-0.3
				c-0.1,2-0.4,4.5-1.8,6.3c-0.2-0.2-0.6-0.4-0.8-0.5c1.5-1.9,1.6-4.6,1.6-6.6v-3.4h3.3v-2h1v2h3l0.2,0l0.7,0.2
				c-0.3,1-0.8,2.1-1.2,2.8l-0.9-0.3c0.2-0.4,0.5-1.1,0.7-1.7h-2.6v2.4h2.1l0.2,0L139.6,316.3z M133.4,313.6v2.4h2.3v-2.4H133.4z
				 M134.6,316.9c0.5,1.1,1.1,2.1,1.9,3c0.8-0.8,1.4-1.8,1.8-3H134.6z"/>
			<path class="st10" d="M154,313.9c0,0,0,0.4,0,0.5c-0.2,5.7-0.3,7.6-0.7,8.2c-0.2,0.4-0.5,0.5-0.9,0.5c-0.4,0.1-1,0-1.7,0
				c0-0.3-0.1-0.7-0.3-1c0.7,0.1,1.3,0.1,1.5,0.1c0.2,0,0.4,0,0.5-0.2c0.3-0.4,0.5-2.2,0.6-7.2h-2c-0.2,3.6-0.8,6.6-3.2,8.4
				c-0.2-0.2-0.5-0.6-0.8-0.7c0.2-0.2,0.4-0.3,0.6-0.5c-2.1,0.2-4.2,0.5-5.7,0.6l-0.2-0.9c0.8-0.1,1.8-0.2,3-0.3v-1.2h-2.6v-0.8h2.6
				v-0.8h-2.6v-4.1h2.6v-0.9h-3V313h3v-0.9c-0.9,0.1-1.8,0.1-2.6,0.2c0-0.2-0.1-0.5-0.2-0.8c2-0.1,4.5-0.4,5.9-0.7l0.5,0.8
				c-0.7,0.2-1.7,0.3-2.7,0.4v1h2.9v0.8h-2.9v0.9h2.7v4.1h-2.7v0.8h2.7v0.8h-2.7v1.1c0.9-0.1,1.8-0.2,2.7-0.3v0.1
				c1.2-1.6,1.5-3.8,1.7-6.4h-1.6v-1h1.6c0-1,0-2,0-3h1c0,1,0,2,0,3H154z M143.1,316.4h1.7v-1h-1.7V316.4z M144.8,318v-1h-1.7v1
				H144.8z M145.7,315.4v1h1.8v-1H145.7z M147.5,317h-1.8v1h1.8V317z"/>
			<path class="st10" d="M157.6,315.7c0,2.2-0.2,5.3-1.3,7.5c-0.2-0.2-0.7-0.4-0.9-0.5c1.1-2.1,1.2-5,1.2-7v-3.7h5.3
				c-0.2-0.4-0.4-0.8-0.5-1.2l1-0.2c0.3,0.4,0.5,1,0.7,1.4h4.8v0.9h-10.2V315.7z M166.7,318.8c-0.6,1.2-1.6,2-2.8,2.7
				c1.2,0.4,2.6,0.7,4.1,0.8c-0.2,0.2-0.5,0.6-0.6,0.9c-1.7-0.2-3.3-0.6-4.7-1.2c-1.5,0.6-3.1,0.9-4.8,1.1c-0.1-0.2-0.3-0.6-0.4-0.8
				c1.5-0.1,2.9-0.4,4.2-0.8c-0.9-0.5-1.6-1.1-2.2-1.9l0.5-0.2h-1.8v-0.8h7.7l0.2-0.1L166.7,318.8z M160.2,317.7v-2.3H158v-0.8h2.2
				v-1.2h1v1.2h3.3v-1.2h1v1.2h2.2v0.8h-2.2v2.3H160.2z M160.5,319.4c0.5,0.7,1.3,1.2,2.3,1.7c1-0.4,1.8-1,2.4-1.7H160.5z
				 M161.1,315.4v1.4h3.3v-1.4H161.1z"/>
			<path class="st10" d="M178,315c0,0.5-0.1,0.9-0.4,1.3c-0.3,0.4-0.6,0.7-1,0.9c0.5,0.2,0.9,0.5,1.2,1s0.4,0.9,0.4,1.4
				c0,0.8-0.3,1.5-0.9,2c-0.6,0.5-1.3,0.7-2.2,0.7c-0.9,0-1.7-0.3-2.2-0.8s-0.8-1.2-0.8-2c0-0.5,0.1-1,0.4-1.4s0.7-0.7,1.2-1
				c-0.4-0.2-0.8-0.5-1-0.9c-0.2-0.4-0.4-0.8-0.4-1.3c0-0.8,0.3-1.5,0.8-2c0.5-0.5,1.2-0.7,2.1-0.7c0.9,0,1.5,0.2,2.1,0.7
				C177.7,313.5,178,314.1,178,315z M177,319.5c0-0.5-0.2-1-0.5-1.3c-0.3-0.3-0.8-0.5-1.4-0.5s-1,0.2-1.3,0.5
				c-0.3,0.3-0.5,0.8-0.5,1.3c0,0.6,0.2,1,0.5,1.3c0.3,0.3,0.8,0.5,1.4,0.5c0.6,0,1-0.2,1.4-0.5C176.8,320.5,177,320,177,319.5z
				 M175.1,313.3c-0.5,0-0.9,0.2-1.2,0.5c-0.3,0.3-0.5,0.7-0.5,1.2c0,0.5,0.1,0.9,0.4,1.2c0.3,0.3,0.7,0.5,1.2,0.5s0.9-0.2,1.2-0.5
				c0.3-0.3,0.4-0.7,0.4-1.2s-0.2-0.9-0.5-1.2S175.6,313.3,175.1,313.3z"/>
			<path class="st10" d="M179.9,321.5c0-0.2,0.1-0.4,0.2-0.5s0.3-0.2,0.6-0.2s0.4,0.1,0.6,0.2c0.1,0.1,0.2,0.3,0.2,0.5
				c0,0.2-0.1,0.4-0.2,0.5c-0.1,0.1-0.3,0.2-0.6,0.2s-0.4-0.1-0.6-0.2S179.9,321.7,179.9,321.5z"/>
			<path class="st10" d="M189.3,315c0,0.5-0.1,0.9-0.4,1.3c-0.3,0.4-0.6,0.7-1,0.9c0.5,0.2,0.9,0.5,1.2,1s0.4,0.9,0.4,1.4
				c0,0.8-0.3,1.5-0.9,2c-0.6,0.5-1.3,0.7-2.2,0.7c-0.9,0-1.7-0.3-2.2-0.8s-0.8-1.2-0.8-2c0-0.5,0.1-1,0.4-1.4s0.7-0.7,1.2-1
				c-0.4-0.2-0.8-0.5-1-0.9c-0.2-0.4-0.4-0.8-0.4-1.3c0-0.8,0.3-1.5,0.8-2c0.5-0.5,1.2-0.7,2.1-0.7c0.9,0,1.5,0.2,2.1,0.7
				C189,313.5,189.3,314.1,189.3,315z M188.3,319.5c0-0.5-0.2-1-0.5-1.3c-0.3-0.3-0.8-0.5-1.4-0.5s-1,0.2-1.3,0.5
				c-0.3,0.3-0.5,0.8-0.5,1.3c0,0.6,0.2,1,0.5,1.3c0.3,0.3,0.8,0.5,1.4,0.5c0.6,0,1-0.2,1.4-0.5C188.1,320.5,188.3,320,188.3,319.5z
				 M186.4,313.3c-0.5,0-0.9,0.2-1.2,0.5c-0.3,0.3-0.5,0.7-0.5,1.2c0,0.5,0.1,0.9,0.4,1.2c0.3,0.3,0.7,0.5,1.2,0.5s0.9-0.2,1.2-0.5
				c0.3-0.3,0.4-0.7,0.4-1.2s-0.2-0.9-0.5-1.2S186.9,313.3,186.4,313.3z"/>
			<path class="st10" d="M192.9,316.7h0.9c0.6,0,1-0.2,1.4-0.5c0.3-0.3,0.5-0.7,0.5-1.2c0-1.1-0.6-1.7-1.7-1.7c-0.5,0-1,0.2-1.3,0.5
				c-0.3,0.3-0.5,0.7-0.5,1.2H191c0-0.8,0.3-1.4,0.8-1.9c0.6-0.5,1.3-0.8,2.1-0.8c0.9,0,1.6,0.2,2.2,0.7c0.5,0.5,0.8,1.2,0.8,2
				c0,0.4-0.1,0.8-0.4,1.2c-0.3,0.4-0.6,0.7-1.1,0.9c0.5,0.2,0.9,0.4,1.2,0.8c0.3,0.4,0.4,0.9,0.4,1.4c0,0.9-0.3,1.6-0.9,2.1
				c-0.6,0.5-1.3,0.8-2.2,0.8s-1.7-0.2-2.2-0.7c-0.6-0.5-0.9-1.1-0.9-2h1.2c0,0.5,0.2,0.9,0.5,1.2s0.8,0.5,1.3,0.5
				c0.6,0,1.1-0.2,1.4-0.5s0.5-0.8,0.5-1.3c0-0.6-0.2-1-0.5-1.3c-0.3-0.3-0.8-0.5-1.5-0.5h-0.9V316.7z"/>
			<path class="st10" d="M198.6,314.3c0-0.6,0.2-1.1,0.6-1.4c0.4-0.4,0.8-0.6,1.4-0.6c0.6,0,1.1,0.2,1.4,0.6
				c0.4,0.4,0.6,0.9,0.6,1.5v0.5c0,0.6-0.2,1.1-0.6,1.4c-0.4,0.4-0.8,0.6-1.4,0.6c-0.6,0-1.1-0.2-1.4-0.6c-0.4-0.4-0.6-0.9-0.6-1.5
				V314.3z M199.6,314.8c0,0.3,0.1,0.6,0.3,0.9s0.5,0.3,0.8,0.3c0.3,0,0.6-0.1,0.8-0.3c0.2-0.2,0.3-0.5,0.3-0.9v-0.5
				c0-0.3-0.1-0.6-0.3-0.9s-0.5-0.3-0.8-0.3c-0.3,0-0.6,0.1-0.8,0.3s-0.3,0.5-0.3,0.9V314.8z M200.9,321.4l-0.7-0.4l4.8-7.6l0.7,0.4
				L200.9,321.4z M203.4,319.8c0-0.6,0.2-1.1,0.6-1.4s0.8-0.6,1.4-0.6s1.1,0.2,1.4,0.6s0.6,0.9,0.6,1.5v0.5c0,0.6-0.2,1.1-0.6,1.4
				c-0.4,0.4-0.8,0.6-1.4,0.6c-0.6,0-1.1-0.2-1.4-0.6c-0.4-0.4-0.6-0.9-0.6-1.5V319.8z M204.3,320.3c0,0.4,0.1,0.6,0.3,0.9
				c0.2,0.2,0.5,0.3,0.8,0.3c0.3,0,0.6-0.1,0.8-0.3c0.2-0.2,0.3-0.5,0.3-0.9v-0.5c0-0.4-0.1-0.6-0.3-0.9c-0.2-0.2-0.5-0.3-0.8-0.3
				c-0.3,0-0.6,0.1-0.8,0.3c-0.2,0.2-0.3,0.5-0.3,0.9V320.3z"/>
			<path class="st10" d="M104.6,340.9v3.8c0,0.6-0.2,0.8-0.5,1c-0.3,0.2-0.9,0.2-1.8,0.2c0-0.3-0.2-0.7-0.3-0.9c0.7,0,1.2,0,1.4,0
				c0.2,0,0.3-0.1,0.3-0.3v-3.5l-1.7,0.5l-0.3-1c0.6-0.1,1.3-0.3,2-0.5v-2.9h-1.9v-1h1.9v-2.7h1v2.7h1.7v1h-1.7v2.7l1.3-0.4l0.1,0.9
				L104.6,340.9z M113.2,339.8c-0.5,1.6-1.5,2.9-2.7,3.9c1,0.6,2.3,1.1,3.6,1.4c-0.2,0.2-0.5,0.6-0.6,0.9c-1.5-0.4-2.8-0.9-3.8-1.7
				c-1.2,0.8-2.6,1.4-4,1.7c-0.1-0.3-0.3-0.7-0.5-0.9c1.3-0.3,2.6-0.8,3.7-1.5c-0.9-0.9-1.7-1.9-2.2-3.1l0.1-0.1h-0.5v-1h6.1l0.2,0
				L113.2,339.8z M108.5,335.5c0,1.2-0.4,2.7-2.1,3.7c-0.1-0.2-0.5-0.6-0.7-0.8c1.5-0.8,1.8-2,1.8-2.9V334h4.3v3.2
				c0,0.4,0,0.5,0.3,0.5h1.1c0.2,0,0.5,0,0.7-0.1c0,0.3,0,0.6,0.1,0.9c-0.2,0.1-0.5,0.1-0.7,0.1H112c-0.9,0-1.2-0.4-1.2-1.4v-2.2
				h-2.4V335.5z M107.6,340.5c0.5,1,1.2,1.9,2.1,2.6c0.9-0.7,1.6-1.6,2.1-2.6H107.6z"/>
			<path class="st10" d="M119.4,337.3h-3.9v-0.8h3.9V337.3z M120.4,344.3c-1.1,0.7-2.8,1.3-4.2,1.7c-0.2-0.2-0.5-0.6-0.8-0.8
				c1.4-0.3,3-0.8,4-1.3L120.4,344.3z M119,335.1h-3.3v-0.8h3.3V335.1z M117.2,338.3h8.9v5.5h-8.9V338.3z M118.2,339.9h6.9V339h-6.9
				V339.9z M118.2,341.5h6.9v-0.9h-6.9V341.5z M118.2,343.1h6.9v-1h-6.9V343.1z M121.5,335.2c-0.3,0.5-0.7,1-1,1.4
				c-0.2-0.2-0.5-0.4-0.8-0.5c0.7-0.6,1.3-1.6,1.6-2.6l0.9,0.2c-0.1,0.3-0.2,0.5-0.3,0.8h4.6l0.2,0l0.7,0.2c-0.3,0.7-0.8,1.5-1.1,2
				l-0.8-0.3c0.2-0.3,0.5-0.7,0.6-1.1h-2.2v0.2c0,0.1,0,0.3,0,0.5c0.7,0.8,2.2,1.4,4,1.5c-0.2,0.2-0.5,0.6-0.6,0.8
				c-1.6-0.2-2.9-0.8-3.7-1.6c-0.5,0.7-1.5,1.3-3.9,1.7c-0.1-0.2-0.4-0.6-0.5-0.8c3.5-0.5,3.9-1.4,3.9-2.1v-0.1H121.5z M123.6,343.9
				c1.5,0.5,3.1,1,4,1.5l-0.9,0.6c-0.9-0.4-2.4-1-3.8-1.5L123.6,343.9z"/>
			<path class="st10" d="M131.7,337c-0.5,1.2-1.3,2.5-2,3.3c-0.2-0.2-0.5-0.5-0.7-0.6c0.7-0.8,1.4-1.9,1.8-2.9L131.7,337z
				 M134,344.6c-0.3-0.6-0.8-1.3-1.4-2c-0.8,1.3-1.8,2.3-2.9,3.1c-0.2-0.2-0.5-0.6-0.7-0.7c1.2-0.8,2.2-1.8,3-3.1
				c-0.5-0.6-1.1-1.2-1.6-1.8l0.7-0.5c0.4,0.4,0.9,0.9,1.4,1.4c0.3-0.6,0.5-1.2,0.7-1.9l0.9,0.2c-0.2,0.9-0.6,1.7-1,2.5
				c0.7,0.8,1.3,1.7,1.7,2.3L134,344.6z M135.4,336.4h-6.2v-0.9h2.9c-0.2-0.5-0.6-1.1-1-1.7l0.8-0.3c0.4,0.5,0.9,1.2,1.1,1.7
				l-0.7,0.3h3.1V336.4z M134.5,339.5c-0.2-0.6-0.9-1.7-1.5-2.4l0.8-0.4c0.6,0.7,1.3,1.7,1.5,2.3L134.5,339.5z M140.6,336.9
				c-0.3,2.3-0.9,4.1-1.8,5.6c0.7,1.1,1.6,2.1,2.7,2.6c-0.2,0.2-0.5,0.6-0.7,0.8c-1-0.6-1.9-1.5-2.6-2.5c-0.8,1.1-1.8,1.9-3.1,2.6
				c-0.1-0.2-0.5-0.6-0.7-0.8c1.4-0.7,2.5-1.6,3.3-2.8c-0.5-1-0.9-2.1-1.3-3.3c-0.2,0.5-0.5,0.9-0.8,1.3c-0.1-0.2-0.5-0.6-0.7-0.8
				c1.1-1.5,1.8-3.8,2.2-6.2l0.9,0.1c-0.2,0.8-0.3,1.6-0.5,2.4h3.8v1H140.6z M137.4,336.9c-0.1,0.3-0.2,0.6-0.3,1
				c0.3,1.3,0.7,2.6,1.3,3.7c0.7-1.3,1.1-2.8,1.3-4.6H137.4z"/>
			<path class="st10" d="M155.1,343.1h-5.6v2.9h-1.1v-2.9h-5.6v-0.9h5.6v-1.1h1.1v1.1h5.6V343.1z M146.5,339.6
				c-1,0.6-2.1,1.1-3.1,1.6l-0.5-0.8c0.8-0.3,2.1-0.9,3.4-1.5L146.5,339.6z M151.2,341.2c-0.1-0.2-0.2-0.5-0.4-0.7
				c-3.6,0.3-4,0.4-4.3,0.5c-0.1-0.2-0.2-0.6-0.3-0.9c0.3,0,0.7-0.3,1.1-0.7c0.3-0.2,0.8-0.8,1.5-1.4c-1.6,0.1-1.9,0.2-2.1,0.3
				c0-0.2-0.2-0.6-0.3-0.9c0.2,0,0.4-0.2,0.6-0.4c0.2-0.2,0.6-0.7,1.1-1.4h-5v-0.9h5.6c-0.2-0.3-0.4-0.8-0.6-1.1l1-0.3
				c0.3,0.4,0.6,0.9,0.8,1.3h5.1v0.9h-5.8c-0.4,0.6-0.9,1.2-1.3,1.7l1.7-0.1c0.3-0.4,0.6-0.7,0.9-1.1l0.8,0.5
				c-1.1,1.3-2.3,2.5-3.4,3.4l2.4-0.2c-0.2-0.3-0.5-0.6-0.7-0.9l0.8-0.3c0.6,0.7,1.3,1.7,1.6,2.3L151.2,341.2z M144,336.2
				c0.7,0.4,1.6,1.1,2.1,1.5l-0.7,0.6c-0.4-0.5-1.3-1.1-2.1-1.6L144,336.2z M154,341.3c-0.6-0.5-1.7-1.4-2.7-1.9l0.7-0.5
				c0.9,0.5,2.1,1.3,2.7,1.9L154,341.3z M154.3,336.7c-0.6,0.6-1.4,1.3-2,1.7l-0.7-0.5c0.6-0.4,1.5-1.2,1.9-1.8L154.3,336.7z"/>
			<path class="st10" d="M187.3,340.8c0,1.4-0.2,2.5-0.7,3.2c-0.5,0.7-1.3,1.1-2.3,1.1c-1,0-1.8-0.3-2.3-1c-0.5-0.7-0.8-1.7-0.8-3.1
				v-1.6c0-1.4,0.2-2.5,0.7-3.2c0.5-0.7,1.3-1,2.3-1c1,0,1.8,0.3,2.3,1c0.5,0.7,0.7,1.7,0.8,3.1V340.8z M186.1,339.1
				c0-1-0.1-1.8-0.4-2.3s-0.8-0.7-1.4-0.7c-0.6,0-1.1,0.2-1.4,0.7c-0.3,0.5-0.4,1.2-0.4,2.2v2c0,1.1,0.2,1.8,0.5,2.3
				c0.3,0.5,0.8,0.8,1.4,0.8c0.6,0,1.1-0.2,1.4-0.7c0.3-0.5,0.5-1.2,0.5-2.2V339.1z"/>
			<path class="st10" d="M189,344.3c0-0.2,0.1-0.4,0.2-0.5s0.3-0.2,0.6-0.2s0.4,0.1,0.6,0.2c0.1,0.1,0.2,0.3,0.2,0.5
				c0,0.2-0.1,0.4-0.2,0.5c-0.1,0.1-0.3,0.2-0.6,0.2s-0.4-0.1-0.6-0.2S189,344.5,189,344.3z"/>
			<path class="st10" d="M198.8,335.9l-4,9h-1.3l4-8.7h-5.3v-1h6.6V335.9z"/>
			<path class="st10" d="M206.5,335.9l-4,9h-1.3l4-8.7h-5.3v-1h6.6V335.9z"/>
		</g>
	</g>
	<g>
		<g>
			<path class="st10" d="M622.5,297.3h-5v3.1h-1v-3.1h-6.3v-1h2.2v-3.7h4.1v-2.1h-3.3c-0.6,1.1-1.3,2-2.1,2.7
				c-0.2-0.2-0.6-0.5-0.9-0.6c1.3-1.1,2.4-2.9,3.1-4.7l1,0.2c-0.2,0.5-0.4,1-0.6,1.4h8.2v1h-4.3v2.1h4v1h-4v2.7h5V297.3z
				 M616.5,296.3v-2.7h-3.1v2.7H616.5z"/>
			<path class="st10" d="M628.4,288.3c-0.4,0.9-0.8,1.8-1.4,2.6v9.6h-1v-8.1c-0.6,0.8-1.2,1.5-1.8,2.1c-0.1-0.2-0.4-0.8-0.6-1
				c1.5-1.3,3-3.3,3.8-5.4L628.4,288.3z M634.2,299c0.8,0,0.9-0.6,1-2.9c0.3,0.2,0.7,0.4,0.9,0.5c-0.2,2.5-0.4,3.4-1.9,3.4h-2.6
				c-1.4,0-1.8-0.4-1.8-1.8v-10h1v3.7h4.9v1h-4.9v5.3c0,0.7,0.2,0.9,0.9,0.9H634.2z"/>
			<path class="st10" d="M641,296.7h2.4v0.9H641v2.7h-0.9v-2.7h-2.6v-0.9h2.6v-1.5h-2.3v-0.9h1.3c-0.1-0.5-0.4-1.1-0.6-1.7l0.8-0.2
				c0.3,0.5,0.6,1.2,0.7,1.6l-0.7,0.2h1.7c0.4-0.6,0.7-1.4,0.9-1.9l0.9,0.2c-0.3,0.6-0.6,1.2-0.9,1.7h1.4v0.9H641V296.7z
				 M643.4,292.4h-5.9v-0.9h2.5v-1.4h-2.1v-0.9h2.1v-1.4h0.9v1.4h2.1v0.9H641v1.4h2.4V292.4z M649.6,293.3c-0.3,1.6-0.8,3.1-1.7,4.4
				c0.6,0.7,1.4,1.3,2.2,1.7c-0.2,0.2-0.5,0.6-0.7,0.8c-0.8-0.4-1.4-1-2.1-1.7c-0.6,0.7-1.2,1.4-2,1.9c-0.1-0.2-0.3-0.4-0.5-0.5v0.5
				h-0.9v-11.9h5.3v2.6c0,0.5-0.1,0.8-0.5,0.9c-0.4,0.2-1.1,0.2-2.1,0.2c0-0.3-0.2-0.6-0.3-0.9c0.8,0,1.6,0,1.8,0
				c0.2,0,0.3-0.1,0.3-0.2v-1.7h-3.4v3.7h3.9l0.2,0L649.6,293.3z M644.9,299.6c0.7-0.5,1.3-1.1,1.9-1.8c-0.8-1.1-1.3-2.4-1.7-3.8
				h-0.1V299.6z M645.9,294c0.3,1.1,0.8,2.1,1.4,3c0.5-0.9,0.9-1.9,1.2-3H645.9z"/>
			<path class="st10" d="M651.1,288.5h5.1v0.8h-1.5v1.7h1.3v9.1h-0.8v-0.8h-3.1v1h-0.8v-9.3h1.3v-1.7h-1.5V288.5z M655.3,298.6v-3.7
				h0h-0.6c-0.5,0-0.7-0.1-0.7-0.8v-2.2h-0.6v1.1c0,0.8-0.2,1.9-0.9,2.6c-0.1-0.1-0.2-0.2-0.3-0.3v3.2H655.3z M652.1,291.9v3.3
				c0.6-0.7,0.7-1.5,0.7-2.1v-1.1H652.1z M652.6,296.4h2.1v0.8h-2.1V296.4z M654,289.3h-0.6v1.7h0.6V289.3z M655.3,291.9h-0.7v2.2
				c0,0.2,0,0.2,0.2,0.2h0.4c0.1,0,0.1,0,0.1,0V291.9z M657.7,288.2h0.8v5.4c0,2.6-0.2,4.9-1.6,6.8c-0.2-0.2-0.5-0.4-0.7-0.6
				c1.1-1.4,1.4-3,1.5-4.9l-0.7,0.3c-0.1-0.8-0.4-2.1-0.8-3.1l0.6-0.2c0.3,0.9,0.7,2.1,0.8,3c0-0.4,0-0.9,0-1.3V288.2z M663.1,288.2
				v12.2h-0.9v-5.5l-0.5,0.2c-0.2-0.8-0.5-1.9-0.9-2.9v7.8H660v-5.2l-0.6,0.3c-0.1-0.8-0.4-2.1-0.7-3.1l0.6-0.2
				c0.3,0.9,0.6,2,0.8,2.8v-6.4h0.8v3.6l0.5-0.2c0.4,0.8,0.7,1.8,0.9,2.5v-6.1H663.1z"/>
			<path class="st10" d="M677.1,297.5h-5.6v2.9h-1.1v-2.9h-5.6v-0.9h5.6v-1.1h1.1v1.1h5.6V297.5z M668.6,294c-1,0.6-2.1,1.1-3.1,1.6
				l-0.5-0.8c0.8-0.3,2.1-0.9,3.4-1.5L668.6,294z M673.2,295.6c-0.1-0.2-0.2-0.5-0.4-0.7c-3.6,0.3-4,0.4-4.3,0.5
				c-0.1-0.2-0.2-0.6-0.3-0.9c0.3,0,0.7-0.3,1.1-0.7c0.3-0.2,0.8-0.8,1.5-1.4c-1.6,0.1-1.9,0.2-2.1,0.3c0-0.2-0.2-0.6-0.3-0.9
				c0.2,0,0.4-0.2,0.6-0.4c0.2-0.2,0.6-0.7,1.1-1.4h-5v-0.9h5.6c-0.2-0.3-0.4-0.8-0.6-1.1l1-0.3c0.3,0.4,0.6,0.9,0.8,1.3h5.1v0.9
				h-5.8c-0.4,0.6-0.9,1.2-1.3,1.7l1.7-0.1c0.3-0.4,0.6-0.7,0.9-1.1l0.8,0.5c-1.1,1.3-2.3,2.5-3.4,3.4l2.4-0.2
				c-0.2-0.3-0.5-0.6-0.7-0.9l0.8-0.3c0.6,0.7,1.3,1.7,1.6,2.3L673.2,295.6z M666.1,290.6c0.7,0.4,1.6,1.1,2.1,1.5l-0.7,0.6
				c-0.4-0.5-1.3-1.1-2.1-1.6L666.1,290.6z M676.1,295.7c-0.6-0.5-1.7-1.4-2.7-1.9l0.7-0.5c0.9,0.5,2.1,1.3,2.7,1.9L676.1,295.7z
				 M676.3,291.1c-0.6,0.6-1.4,1.3-2,1.7l-0.7-0.5c0.6-0.4,1.5-1.2,1.9-1.8L676.3,291.1z"/>
			<path class="st10" d="M687.7,290.3l-4,9h-1.3l4-8.7h-5.3v-1h6.6V290.3z"/>
			<path class="st10" d="M689.2,298.7c0-0.2,0.1-0.4,0.2-0.5s0.3-0.2,0.6-0.2s0.4,0.1,0.6,0.2c0.1,0.1,0.2,0.3,0.2,0.5
				c0,0.2-0.1,0.4-0.2,0.5c-0.1,0.1-0.3,0.2-0.6,0.2s-0.4-0.1-0.6-0.2S689.2,298.9,689.2,298.7z"/>
			<path class="st10" d="M698.8,295.2c0,1.4-0.2,2.5-0.7,3.2c-0.5,0.7-1.3,1.1-2.3,1.1c-1,0-1.8-0.3-2.3-1c-0.5-0.7-0.8-1.7-0.8-3.1
				v-1.6c0-1.4,0.2-2.5,0.7-3.2c0.5-0.7,1.3-1,2.3-1c1,0,1.8,0.3,2.3,1c0.5,0.7,0.7,1.7,0.8,3.1V295.2z M697.6,293.5
				c0-1-0.1-1.8-0.4-2.3s-0.8-0.7-1.4-0.7c-0.6,0-1.1,0.2-1.4,0.7c-0.3,0.5-0.4,1.2-0.4,2.2v2c0,1.1,0.2,1.8,0.5,2.3
				c0.3,0.5,0.8,0.8,1.4,0.8c0.6,0,1.1-0.2,1.4-0.7c0.3-0.5,0.5-1.2,0.5-2.2V293.5z"/>
			<path class="st10" d="M706.7,299.4h-6.4v-0.9l3.4-3.7c0.5-0.6,0.8-1,1-1.4c0.2-0.4,0.3-0.7,0.3-1.1c0-0.5-0.2-0.9-0.5-1.2
				c-0.3-0.3-0.7-0.5-1.2-0.5c-0.6,0-1.1,0.2-1.4,0.5s-0.5,0.8-0.5,1.5h-1.2c0-0.9,0.3-1.6,0.9-2.2c0.6-0.6,1.3-0.8,2.3-0.8
				c0.9,0,1.6,0.2,2.1,0.7c0.5,0.5,0.8,1.1,0.8,1.9c0,1-0.6,2.1-1.8,3.4l-2.6,2.8h4.9V299.4z"/>
			<path class="st10" d="M708,291.5c0-0.6,0.2-1.1,0.6-1.4c0.4-0.4,0.8-0.6,1.4-0.6c0.6,0,1.1,0.2,1.4,0.6c0.4,0.4,0.6,0.9,0.6,1.5
				v0.5c0,0.6-0.2,1.1-0.6,1.4c-0.4,0.4-0.8,0.6-1.4,0.6c-0.6,0-1.1-0.2-1.4-0.6c-0.4-0.4-0.6-0.9-0.6-1.5V291.5z M708.9,292
				c0,0.3,0.1,0.6,0.3,0.9s0.5,0.3,0.8,0.3c0.3,0,0.6-0.1,0.8-0.3c0.2-0.2,0.3-0.5,0.3-0.9v-0.5c0-0.3-0.1-0.6-0.3-0.9
				s-0.5-0.3-0.8-0.3c-0.3,0-0.6,0.1-0.8,0.3s-0.3,0.5-0.3,0.9V292z M710.2,298.6l-0.7-0.4l4.8-7.6l0.7,0.4L710.2,298.6z M712.7,297
				c0-0.6,0.2-1.1,0.6-1.4s0.8-0.6,1.4-0.6s1.1,0.2,1.4,0.6s0.6,0.9,0.6,1.5v0.5c0,0.6-0.2,1.1-0.6,1.4c-0.4,0.4-0.8,0.6-1.4,0.6
				c-0.6,0-1.1-0.2-1.4-0.6c-0.4-0.4-0.6-0.9-0.6-1.5V297z M713.6,297.5c0,0.4,0.1,0.6,0.3,0.9c0.2,0.2,0.5,0.3,0.8,0.3
				c0.3,0,0.6-0.1,0.8-0.3c0.2-0.2,0.3-0.5,0.3-0.9V297c0-0.4-0.1-0.6-0.3-0.9c-0.2-0.2-0.5-0.3-0.8-0.3c-0.3,0-0.6,0.1-0.8,0.3
				c-0.2,0.2-0.3,0.5-0.3,0.9V297.5z"/>
			<path class="st10" d="M622.5,320.1h-5v3.1h-1v-3.1h-6.3v-1h2.2v-3.7h4.1v-2.1h-3.3c-0.6,1.1-1.3,2-2.1,2.7
				c-0.2-0.2-0.6-0.5-0.9-0.6c1.3-1.1,2.4-2.9,3.1-4.7l1,0.2c-0.2,0.5-0.4,1-0.6,1.4h8.2v1h-4.3v2.1h4v1h-4v2.7h5V320.1z
				 M616.5,319.1v-2.7h-3.1v2.7H616.5z"/>
			<path class="st10" d="M628.4,311.1c-0.4,0.9-0.8,1.8-1.4,2.6v9.6h-1v-8.1c-0.6,0.8-1.2,1.5-1.8,2.1c-0.1-0.2-0.4-0.8-0.6-1
				c1.5-1.3,3-3.3,3.8-5.4L628.4,311.1z M634.2,321.8c0.8,0,0.9-0.6,1-2.9c0.3,0.2,0.7,0.4,0.9,0.5c-0.2,2.5-0.4,3.4-1.9,3.4h-2.6
				c-1.4,0-1.8-0.4-1.8-1.8v-10h1v3.7h4.9v1h-4.9v5.3c0,0.7,0.2,0.9,0.9,0.9H634.2z"/>
			<path class="st10" d="M639.8,316.7c-0.5-0.4-1.6-1.1-2.4-1.5l0.6-0.7c0.8,0.4,1.9,1,2.4,1.4L639.8,316.7z M640.7,318.6
				c-0.6,1.4-1.4,3.1-2.1,4.4l-0.9-0.6c0.6-1.1,1.6-2.8,2.2-4.4L640.7,318.6z M640.5,313.1c-0.5-0.5-1.5-1.1-2.4-1.6l0.6-0.7
				c0.8,0.4,1.9,1,2.4,1.5L640.5,313.1z M648.9,316.3c-0.5,1.8-1.3,3.2-2.3,4.3c1,0.8,2.1,1.4,3.4,1.7c-0.2,0.2-0.5,0.6-0.7,0.9
				c-1.3-0.4-2.5-1.1-3.5-1.9c-1,0.9-2.1,1.5-3.4,1.9c-0.1-0.2-0.4-0.7-0.7-0.8c1.2-0.4,2.3-1,3.3-1.8c-0.9-1-1.6-2.3-2.2-3.7h-0.3
				c-0.1,2-0.4,4.5-1.8,6.3c-0.2-0.2-0.6-0.4-0.8-0.5c1.5-1.9,1.6-4.6,1.6-6.6v-3.4h3.3v-2h1v2h3l0.2,0l0.7,0.2
				c-0.3,1-0.8,2.1-1.2,2.8l-0.9-0.3c0.2-0.4,0.5-1.1,0.7-1.7H646v2.4h2.1l0.2,0L648.9,316.3z M642.7,313.6v2.4h2.3v-2.4H642.7z
				 M644,316.9c0.5,1.1,1.1,2.1,1.9,3c0.8-0.8,1.4-1.8,1.8-3H644z"/>
			<path class="st10" d="M663.3,313.9c0,0,0,0.4,0,0.5c-0.2,5.7-0.3,7.6-0.7,8.2c-0.2,0.4-0.5,0.5-0.9,0.5c-0.4,0.1-1,0-1.7,0
				c0-0.3-0.1-0.7-0.3-1c0.7,0.1,1.3,0.1,1.5,0.1c0.2,0,0.4,0,0.5-0.2c0.3-0.4,0.5-2.2,0.6-7.2h-2c-0.2,3.6-0.8,6.6-3.2,8.4
				c-0.2-0.2-0.5-0.6-0.8-0.7c0.2-0.2,0.4-0.3,0.6-0.5c-2.1,0.2-4.2,0.5-5.7,0.6l-0.2-0.9c0.8-0.1,1.8-0.2,3-0.3v-1.2h-2.6v-0.8h2.6
				v-0.8h-2.6v-4.1h2.6v-0.9h-3V313h3v-0.9c-0.9,0.1-1.8,0.1-2.6,0.2c0-0.2-0.1-0.5-0.2-0.8c2-0.1,4.5-0.4,5.9-0.7l0.5,0.8
				c-0.7,0.2-1.7,0.3-2.7,0.4v1h2.9v0.8H655v0.9h2.7v4.1H655v0.8h2.7v0.8H655v1.1c0.9-0.1,1.8-0.2,2.7-0.3v0.1
				c1.2-1.6,1.5-3.8,1.7-6.4h-1.6v-1h1.6c0-1,0-2,0-3h1c0,1,0,2,0,3H663.3z M652.4,316.4h1.7v-1h-1.7V316.4z M654.1,318v-1h-1.7v1
				H654.1z M655,315.4v1h1.8v-1H655z M656.8,317H655v1h1.8V317z"/>
			<path class="st10" d="M667,315.7c0,2.2-0.2,5.3-1.3,7.5c-0.2-0.2-0.7-0.4-0.9-0.5c1.1-2.1,1.2-5,1.2-7v-3.7h5.3
				c-0.2-0.4-0.4-0.8-0.5-1.2l1-0.2c0.3,0.4,0.5,1,0.7,1.4h4.8v0.9H667V315.7z M676,318.8c-0.6,1.2-1.6,2-2.8,2.7
				c1.2,0.4,2.6,0.7,4.1,0.8c-0.2,0.2-0.5,0.6-0.6,0.9c-1.7-0.2-3.3-0.6-4.7-1.2c-1.5,0.6-3.1,0.9-4.8,1.1c-0.1-0.2-0.3-0.6-0.4-0.8
				c1.5-0.1,2.9-0.4,4.2-0.8c-0.9-0.5-1.6-1.1-2.2-1.9l0.5-0.2h-1.8v-0.8h7.7l0.2-0.1L676,318.8z M669.5,317.7v-2.3h-2.2v-0.8h2.2
				v-1.2h1v1.2h3.3v-1.2h1v1.2h2.2v0.8h-2.2v2.3H669.5z M669.8,319.4c0.5,0.7,1.3,1.2,2.3,1.7c1-0.4,1.8-1,2.4-1.7H669.8z
				 M670.5,315.4v1.4h3.3v-1.4H670.5z"/>
			<path class="st10" d="M686.1,317.9c-0.3,0.3-0.6,0.6-0.9,0.7c-0.4,0.2-0.8,0.3-1.2,0.3c-0.6,0-1-0.1-1.5-0.4
				c-0.4-0.3-0.7-0.7-1-1.2c-0.2-0.5-0.3-1.1-0.3-1.7c0-0.7,0.1-1.2,0.4-1.8c0.2-0.5,0.6-0.9,1.1-1.2c0.5-0.3,1-0.4,1.6-0.4
				c1,0,1.7,0.4,2.3,1.1c0.6,0.7,0.8,1.7,0.8,2.9v0.4c0,1.9-0.4,3.3-1.1,4.1c-0.7,0.9-1.9,1.3-3.4,1.3h-0.2v-1h0.3
				c1,0,1.8-0.3,2.4-0.8C685.8,319.8,686.1,319,686.1,317.9z M684.2,317.9c0.4,0,0.8-0.1,1.1-0.4c0.3-0.3,0.6-0.6,0.8-0.9v-0.5
				c0-0.8-0.2-1.5-0.5-2c-0.4-0.5-0.8-0.8-1.3-0.8c-0.5,0-1,0.2-1.3,0.6s-0.5,1-0.5,1.6c0,0.7,0.2,1.2,0.5,1.6
				S683.7,317.9,684.2,317.9z"/>
			<path class="st10" d="M689.2,321.5c0-0.2,0.1-0.4,0.2-0.5s0.3-0.2,0.6-0.2s0.4,0.1,0.6,0.2c0.1,0.1,0.2,0.3,0.2,0.5
				c0,0.2-0.1,0.4-0.2,0.5c-0.1,0.1-0.3,0.2-0.6,0.2s-0.4-0.1-0.6-0.2S689.2,321.7,689.2,321.5z"/>
			<path class="st10" d="M696.8,322.2h-1.2v-8.2l-2.5,0.9v-1.1l3.5-1.3h0.2V322.2z"/>
			<path class="st10" d="M704.4,322.2h-1.2v-8.2l-2.5,0.9v-1.1l3.5-1.3h0.2V322.2z"/>
			<path class="st10" d="M708,314.3c0-0.6,0.2-1.1,0.6-1.4c0.4-0.4,0.8-0.6,1.4-0.6c0.6,0,1.1,0.2,1.4,0.6c0.4,0.4,0.6,0.9,0.6,1.5
				v0.5c0,0.6-0.2,1.1-0.6,1.4c-0.4,0.4-0.8,0.6-1.4,0.6c-0.6,0-1.1-0.2-1.4-0.6c-0.4-0.4-0.6-0.9-0.6-1.5V314.3z M708.9,314.8
				c0,0.3,0.1,0.6,0.3,0.9s0.5,0.3,0.8,0.3c0.3,0,0.6-0.1,0.8-0.3c0.2-0.2,0.3-0.5,0.3-0.9v-0.5c0-0.3-0.1-0.6-0.3-0.9
				s-0.5-0.3-0.8-0.3c-0.3,0-0.6,0.1-0.8,0.3s-0.3,0.5-0.3,0.9V314.8z M710.2,321.4l-0.7-0.4l4.8-7.6l0.7,0.4L710.2,321.4z
				 M712.7,319.8c0-0.6,0.2-1.1,0.6-1.4s0.8-0.6,1.4-0.6s1.1,0.2,1.4,0.6s0.6,0.9,0.6,1.5v0.5c0,0.6-0.2,1.1-0.6,1.4
				c-0.4,0.4-0.8,0.6-1.4,0.6c-0.6,0-1.1-0.2-1.4-0.6c-0.4-0.4-0.6-0.9-0.6-1.5V319.8z M713.6,320.3c0,0.4,0.1,0.6,0.3,0.9
				c0.2,0.2,0.5,0.3,0.8,0.3c0.3,0,0.6-0.1,0.8-0.3c0.2-0.2,0.3-0.5,0.3-0.9v-0.5c0-0.4-0.1-0.6-0.3-0.9c-0.2-0.2-0.5-0.3-0.8-0.3
				c-0.3,0-0.6,0.1-0.8,0.3c-0.2,0.2-0.3,0.5-0.3,0.9V320.3z"/>
			<path class="st10" d="M613.9,340.9v3.8c0,0.6-0.2,0.8-0.5,1c-0.3,0.2-0.9,0.2-1.8,0.2c0-0.3-0.2-0.7-0.3-0.9c0.7,0,1.2,0,1.4,0
				c0.2,0,0.3-0.1,0.3-0.3v-3.5l-1.7,0.5l-0.3-1c0.6-0.1,1.3-0.3,2-0.5v-2.9H611v-1h1.9v-2.7h1v2.7h1.7v1h-1.7v2.7l1.3-0.4l0.1,0.9
				L613.9,340.9z M622.5,339.8c-0.5,1.6-1.5,2.9-2.7,3.9c1,0.6,2.3,1.1,3.6,1.4c-0.2,0.2-0.5,0.6-0.6,0.9c-1.5-0.4-2.8-0.9-3.8-1.7
				c-1.2,0.8-2.6,1.4-4,1.7c-0.1-0.3-0.3-0.7-0.5-0.9c1.3-0.3,2.6-0.8,3.7-1.5c-0.9-0.9-1.7-1.9-2.2-3.1l0.1-0.1h-0.5v-1h6.1l0.2,0
				L622.5,339.8z M617.8,335.5c0,1.2-0.4,2.7-2.1,3.7c-0.1-0.2-0.5-0.6-0.7-0.8c1.5-0.8,1.8-2,1.8-2.9V334h4.3v3.2
				c0,0.4,0,0.5,0.3,0.5h1.1c0.2,0,0.5,0,0.7-0.1c0,0.3,0,0.6,0.1,0.9c-0.2,0.1-0.5,0.1-0.7,0.1h-1.1c-0.9,0-1.2-0.4-1.2-1.4v-2.2
				h-2.4V335.5z M616.9,340.5c0.5,1,1.2,1.9,2.1,2.6c0.9-0.7,1.6-1.6,2.1-2.6H616.9z"/>
			<path class="st10" d="M628.7,337.3h-3.9v-0.8h3.9V337.3z M629.8,344.3c-1.1,0.7-2.8,1.3-4.2,1.7c-0.2-0.2-0.5-0.6-0.8-0.8
				c1.4-0.3,3-0.8,4-1.3L629.8,344.3z M628.3,335.1h-3.3v-0.8h3.3V335.1z M626.6,338.3h8.9v5.5h-8.9V338.3z M627.5,339.9h6.9V339
				h-6.9V339.9z M627.5,341.5h6.9v-0.9h-6.9V341.5z M627.5,343.1h6.9v-1h-6.9V343.1z M630.8,335.2c-0.3,0.5-0.7,1-1,1.4
				c-0.2-0.2-0.5-0.4-0.8-0.5c0.7-0.6,1.3-1.6,1.6-2.6l0.9,0.2c-0.1,0.3-0.2,0.5-0.3,0.8h4.6l0.2,0l0.7,0.2c-0.3,0.7-0.8,1.5-1.1,2
				l-0.8-0.3c0.2-0.3,0.5-0.7,0.6-1.1h-2.2v0.2c0,0.1,0,0.3,0,0.5c0.7,0.8,2.2,1.4,4,1.5c-0.2,0.2-0.5,0.6-0.6,0.8
				c-1.6-0.2-2.9-0.8-3.7-1.6c-0.5,0.7-1.5,1.3-3.9,1.7c-0.1-0.2-0.4-0.6-0.5-0.8c3.5-0.5,3.9-1.4,3.9-2.1v-0.1H630.8z M632.9,343.9
				c1.5,0.5,3.1,1,4,1.5L636,346c-0.9-0.4-2.4-1-3.8-1.5L632.9,343.9z"/>
			<path class="st10" d="M641,337c-0.5,1.2-1.3,2.5-2,3.3c-0.2-0.2-0.5-0.5-0.7-0.6c0.7-0.8,1.4-1.9,1.8-2.9L641,337z M643.3,344.6
				c-0.3-0.6-0.8-1.3-1.4-2c-0.8,1.3-1.8,2.3-2.9,3.1c-0.2-0.2-0.5-0.6-0.7-0.7c1.2-0.8,2.2-1.8,3-3.1c-0.5-0.6-1.1-1.2-1.6-1.8
				l0.7-0.5c0.4,0.4,0.9,0.9,1.4,1.4c0.3-0.6,0.5-1.2,0.7-1.9l0.9,0.2c-0.2,0.9-0.6,1.7-1,2.5c0.7,0.8,1.3,1.7,1.7,2.3L643.3,344.6z
				 M644.7,336.4h-6.2v-0.9h2.9c-0.2-0.5-0.6-1.1-1-1.7l0.8-0.3c0.4,0.5,0.9,1.2,1.1,1.7l-0.7,0.3h3.1V336.4z M643.8,339.5
				c-0.2-0.6-0.9-1.7-1.5-2.4l0.8-0.4c0.6,0.7,1.3,1.7,1.5,2.3L643.8,339.5z M650,336.9c-0.3,2.3-0.9,4.1-1.8,5.6
				c0.7,1.1,1.6,2.1,2.7,2.6c-0.2,0.2-0.5,0.6-0.7,0.8c-1-0.6-1.9-1.5-2.6-2.5c-0.8,1.1-1.8,1.9-3.1,2.6c-0.1-0.2-0.5-0.6-0.7-0.8
				c1.4-0.7,2.5-1.6,3.3-2.8c-0.5-1-0.9-2.1-1.3-3.3c-0.2,0.5-0.5,0.9-0.8,1.3c-0.1-0.2-0.5-0.6-0.7-0.8c1.1-1.5,1.8-3.8,2.2-6.2
				l0.9,0.1c-0.2,0.8-0.3,1.6-0.5,2.4h3.8v1H650z M646.7,336.9c-0.1,0.3-0.2,0.6-0.3,1c0.3,1.3,0.7,2.6,1.3,3.7
				c0.7-1.3,1.1-2.8,1.3-4.6H646.7z"/>
			<path class="st10" d="M664.4,343.1h-5.6v2.9h-1.1v-2.9h-5.6v-0.9h5.6v-1.1h1.1v1.1h5.6V343.1z M655.8,339.6
				c-1,0.6-2.1,1.1-3.1,1.6l-0.5-0.8c0.8-0.3,2.1-0.9,3.4-1.5L655.8,339.6z M660.5,341.2c-0.1-0.2-0.2-0.5-0.4-0.7
				c-3.6,0.3-4,0.4-4.3,0.5c-0.1-0.2-0.2-0.6-0.3-0.9c0.3,0,0.7-0.3,1.1-0.7c0.3-0.2,0.8-0.8,1.5-1.4c-1.6,0.1-1.9,0.2-2.1,0.3
				c0-0.2-0.2-0.6-0.3-0.9c0.2,0,0.4-0.2,0.6-0.4c0.2-0.2,0.6-0.7,1.1-1.4h-5v-0.9h5.6c-0.2-0.3-0.4-0.8-0.6-1.1l1-0.3
				c0.3,0.4,0.6,0.9,0.8,1.3h5.1v0.9h-5.8c-0.4,0.6-0.9,1.2-1.3,1.7l1.7-0.1c0.3-0.4,0.6-0.7,0.9-1.1l0.8,0.5
				c-1.1,1.3-2.3,2.5-3.4,3.4l2.4-0.2c-0.2-0.3-0.5-0.6-0.7-0.9l0.8-0.3c0.6,0.7,1.3,1.7,1.6,2.3L660.5,341.2z M653.3,336.2
				c0.7,0.4,1.6,1.1,2.1,1.5l-0.7,0.6c-0.4-0.5-1.3-1.1-2.1-1.6L653.3,336.2z M663.3,341.3c-0.6-0.5-1.7-1.4-2.7-1.9l0.7-0.5
				c0.9,0.5,2.1,1.3,2.7,1.9L663.3,341.3z M663.6,336.7c-0.6,0.6-1.4,1.3-2,1.7l-0.7-0.5c0.6-0.4,1.5-1.2,1.9-1.8L663.6,336.7z"/>
			<path class="st10" d="M696.6,340.8c0,1.4-0.2,2.5-0.7,3.2c-0.5,0.7-1.3,1.1-2.3,1.1c-1,0-1.8-0.3-2.3-1c-0.5-0.7-0.8-1.7-0.8-3.1
				v-1.6c0-1.4,0.2-2.5,0.7-3.2c0.5-0.7,1.3-1,2.3-1c1,0,1.8,0.3,2.3,1c0.5,0.7,0.7,1.7,0.8,3.1V340.8z M695.4,339.1
				c0-1-0.1-1.8-0.4-2.3s-0.8-0.7-1.4-0.7c-0.6,0-1.1,0.2-1.4,0.7c-0.3,0.5-0.4,1.2-0.4,2.2v2c0,1.1,0.2,1.8,0.5,2.3
				c0.3,0.5,0.8,0.8,1.4,0.8c0.6,0,1.1-0.2,1.4-0.7c0.3-0.5,0.5-1.2,0.5-2.2V339.1z"/>
			<path class="st10" d="M698.4,344.3c0-0.2,0.1-0.4,0.2-0.5s0.3-0.2,0.6-0.2s0.4,0.1,0.6,0.2c0.1,0.1,0.2,0.3,0.2,0.5
				c0,0.2-0.1,0.4-0.2,0.5c-0.1,0.1-0.3,0.2-0.6,0.2s-0.4-0.1-0.6-0.2S698.4,344.5,698.4,344.3z"/>
			<path class="st10" d="M708.1,335.9l-4,9h-1.3l4-8.7h-5.3v-1h6.6V335.9z"/>
			<path class="st10" d="M715.8,335.9l-4,9h-1.3l4-8.7h-5.3v-1h6.6V335.9z"/>
		</g>
	</g>
	<g>
		<g>
			<path class="st10" d="M364.2,262.2H359v3.3h-1.1v-3.3h-6.7v-1h2.4v-3.9h4.3v-2.2h-3.5c-0.6,1.1-1.4,2.1-2.2,2.8
				c-0.2-0.2-0.6-0.5-0.9-0.7c1.4-1.2,2.6-3,3.2-5l1.1,0.3c-0.2,0.5-0.4,1-0.7,1.5h8.6v1H359v2.2h4.2v1H359v2.9h5.2V262.2z
				 M357.9,261.2v-2.9h-3.2v2.9H357.9z"/>
			<path class="st10" d="M370.4,252.7c-0.4,0.9-0.9,1.9-1.4,2.7v10.1h-1V257c-0.6,0.8-1.3,1.6-1.9,2.2c-0.1-0.3-0.4-0.8-0.6-1.1
				c1.6-1.4,3.1-3.5,4-5.7L370.4,252.7z M376.5,264c0.8,0,0.9-0.6,1-3.1c0.3,0.2,0.7,0.4,1,0.5c-0.2,2.7-0.5,3.6-2,3.6h-2.7
				c-1.4,0-1.9-0.4-1.9-1.9v-10.5h1v3.9h5.1v1H373v5.6c0,0.8,0.2,0.9,0.9,0.9H376.5z"/>
			<path class="st10" d="M383.8,261.6h2.6v0.9h-2.6v2.9h-1v-2.9h-2.7v-0.9h2.7v-1.6h-2.4v-0.9h1.3c-0.1-0.5-0.4-1.2-0.7-1.8l0.8-0.2
				c0.3,0.5,0.6,1.2,0.7,1.7l-0.7,0.3h1.8c0.4-0.6,0.8-1.5,1-2l0.9,0.2c-0.3,0.6-0.6,1.2-1,1.8h1.4v0.9h-2.3V261.6z M386.3,257.1
				h-6.2v-0.9h2.7v-1.4h-2.3v-0.9h2.3v-1.5h1v1.5h2.2v0.9h-2.2v1.4h2.5V257.1z M392.8,258c-0.3,1.7-0.9,3.3-1.8,4.7
				c0.7,0.8,1.4,1.4,2.3,1.8c-0.2,0.2-0.6,0.6-0.7,0.9c-0.8-0.4-1.5-1.1-2.2-1.8c-0.6,0.8-1.3,1.4-2.1,2c-0.1-0.2-0.3-0.4-0.5-0.5
				v0.5h-1V253h5.6v2.8c0,0.5-0.1,0.8-0.5,1s-1.2,0.2-2.3,0.2c0-0.3-0.2-0.7-0.3-1c0.9,0,1.6,0,1.9,0c0.2,0,0.3-0.1,0.3-0.2V254
				h-3.6v3.9h4.1l0.2,0L392.8,258z M387.8,264.6c0.7-0.5,1.4-1.2,2-1.9c-0.8-1.2-1.4-2.5-1.8-4h-0.1V264.6z M388.9,258.7
				c0.3,1.1,0.8,2.2,1.5,3.1c0.6-1,1-2,1.2-3.1H388.9z"/>
			<path class="st10" d="M394.4,253h5.4v0.9h-1.6v1.8h1.4v9.5h-0.8v-0.8h-3.3v1h-0.8v-9.7h1.4v-1.8h-1.6V253z M398.7,263.6v-3.9h0
				h-0.6c-0.6,0-0.7-0.1-0.7-0.8v-2.3h-0.7v1.2c0,0.8-0.2,2-0.9,2.8c-0.1-0.1-0.2-0.2-0.3-0.3v3.3H398.7z M395.5,256.6v3.4
				c0.6-0.7,0.7-1.6,0.7-2.2v-1.2H395.5z M396,261.3h2.3v0.8H396V261.3z M397.4,253.9h-0.7v1.8h0.7V253.9z M398.7,256.6H398v2.3
				c0,0.2,0,0.2,0.2,0.2h0.4c0.1,0,0.1,0,0.1,0V256.6z M401.4,252.6h0.9v5.7c0,2.7-0.2,5.2-1.7,7.2c-0.2-0.2-0.5-0.5-0.8-0.6
				c1.1-1.4,1.5-3.2,1.6-5.1l-0.7,0.3c-0.1-0.9-0.4-2.2-0.8-3.3l0.7-0.3c0.4,1,0.7,2.3,0.8,3.2c0-0.4,0-0.9,0-1.4V252.6z M407,252.6
				v12.9h-0.9v-5.8l-0.5,0.3c-0.2-0.8-0.6-2-1-3v8.3h-0.9v-5.5l-0.6,0.3c-0.1-0.9-0.4-2.2-0.8-3.2l0.6-0.3c0.3,0.9,0.7,2.1,0.8,3
				v-6.7h0.9v3.8l0.5-0.3c0.4,0.8,0.8,1.8,1,2.7v-6.5H407z"/>
			<path class="st10" d="M421.8,262.5h-5.9v3h-1.1v-3h-5.8v-1h5.8v-1.2h1.1v1.2h5.9V262.5z M412.8,258.7c-1.1,0.6-2.3,1.2-3.2,1.7
				l-0.5-0.9c0.9-0.4,2.2-1,3.5-1.6L412.8,258.7z M417.7,260.5c-0.1-0.2-0.2-0.5-0.4-0.8c-3.7,0.4-4.2,0.4-4.5,0.6
				c-0.1-0.2-0.2-0.7-0.3-0.9c0.3,0,0.7-0.3,1.2-0.7c0.3-0.2,0.9-0.8,1.6-1.5c-1.7,0.1-2,0.2-2.2,0.3c0-0.2-0.2-0.7-0.3-0.9
				c0.2,0,0.4-0.2,0.6-0.5c0.2-0.2,0.7-0.8,1.1-1.5h-5.2v-1h5.9c-0.2-0.4-0.4-0.8-0.7-1.1l1-0.3c0.3,0.4,0.7,1,0.8,1.4h5.3v1h-6.1
				c-0.4,0.6-0.9,1.3-1.4,1.8l1.8-0.1c0.3-0.4,0.7-0.8,1-1.2l0.9,0.5c-1.1,1.3-2.4,2.6-3.6,3.6l2.5-0.2c-0.2-0.3-0.5-0.6-0.7-0.9
				l0.8-0.3c0.6,0.7,1.4,1.7,1.7,2.4L417.7,260.5z M410.1,255.2c0.8,0.5,1.7,1.1,2.2,1.6l-0.7,0.6c-0.4-0.5-1.4-1.2-2.2-1.7
				L410.1,255.2z M420.7,260.5c-0.6-0.6-1.8-1.4-2.8-2l0.8-0.6c1,0.5,2.2,1.4,2.9,2L420.7,260.5z M420.9,255.7
				c-0.6,0.7-1.5,1.4-2.1,1.8L418,257c0.6-0.5,1.5-1.3,2-1.8L420.9,255.7z"/>
			<path class="st10" d="M433.2,260.9h1.4v1.1h-1.4v2.4h-1.3V262h-4.7v-0.8l4.6-7.1h1.4V260.9z M428.7,260.9h3.2v-5l-0.2,0.3
				L428.7,260.9z"/>
			<path class="st10" d="M436,263.7c0-0.2,0.1-0.4,0.2-0.6c0.1-0.2,0.3-0.2,0.6-0.2c0.3,0,0.5,0.1,0.6,0.2c0.1,0.1,0.2,0.3,0.2,0.6
				c0,0.2-0.1,0.4-0.2,0.5c-0.1,0.1-0.3,0.2-0.6,0.2c-0.3,0-0.5-0.1-0.6-0.2S436,263.9,436,263.7z"/>
			<path class="st10" d="M444.7,254.1v1.1h-0.2c-1,0-1.8,0.3-2.4,0.9c-0.6,0.6-0.9,1.4-1,2.5c0.5-0.6,1.3-0.9,2.2-0.9
				c0.9,0,1.6,0.3,2.1,0.9s0.8,1.4,0.8,2.4c0,1.1-0.3,1.9-0.9,2.5s-1.3,0.9-2.3,0.9c-1,0-1.8-0.4-2.4-1.1c-0.6-0.8-0.9-1.7-0.9-2.9
				V260c0-1.9,0.4-3.3,1.2-4.3s2-1.5,3.6-1.5H444.7z M443,258.8c-0.4,0-0.9,0.1-1.2,0.4c-0.4,0.3-0.6,0.6-0.8,1v0.5
				c0,0.8,0.2,1.5,0.6,2s0.9,0.8,1.4,0.8c0.6,0,1-0.2,1.4-0.6s0.5-1,0.5-1.7c0-0.7-0.2-1.3-0.5-1.7S443.6,258.8,443,258.8z"/>
			<path class="st10" d="M454.4,264.4h-6.7v-0.9l3.5-3.9c0.5-0.6,0.9-1.1,1.1-1.5c0.2-0.4,0.3-0.8,0.3-1.2c0-0.5-0.2-1-0.5-1.3
				c-0.3-0.3-0.8-0.5-1.3-0.5c-0.6,0-1.1,0.2-1.5,0.6c-0.4,0.4-0.5,0.9-0.5,1.5h-1.3c0-0.9,0.3-1.7,0.9-2.3c0.6-0.6,1.4-0.9,2.4-0.9
				c1,0,1.7,0.2,2.3,0.7c0.6,0.5,0.8,1.2,0.8,2c0,1-0.6,2.2-1.9,3.6l-2.7,3h5.1V264.4z"/>
			<path class="st10" d="M455.7,256.1c0-0.6,0.2-1.1,0.6-1.5s0.9-0.6,1.5-0.6c0.6,0,1.1,0.2,1.5,0.6c0.4,0.4,0.6,0.9,0.6,1.6v0.5
				c0,0.6-0.2,1.1-0.6,1.5s-0.9,0.6-1.5,0.6c-0.6,0-1.1-0.2-1.5-0.6s-0.6-0.9-0.6-1.6V256.1z M456.6,256.7c0,0.4,0.1,0.7,0.3,0.9
				c0.2,0.2,0.5,0.4,0.8,0.4c0.3,0,0.6-0.1,0.8-0.3c0.2-0.2,0.3-0.5,0.3-0.9v-0.5c0-0.4-0.1-0.7-0.3-0.9c-0.2-0.2-0.5-0.4-0.8-0.4
				c-0.3,0-0.6,0.1-0.8,0.4c-0.2,0.2-0.3,0.6-0.3,0.9V256.7z M458.1,263.6l-0.7-0.5l5-8l0.7,0.5L458.1,263.6z M460.6,261.9
				c0-0.6,0.2-1.1,0.6-1.5s0.9-0.6,1.5-0.6c0.6,0,1.1,0.2,1.5,0.6c0.4,0.4,0.6,0.9,0.6,1.6v0.5c0,0.6-0.2,1.1-0.6,1.5
				c-0.4,0.4-0.9,0.6-1.5,0.6s-1.1-0.2-1.5-0.6s-0.6-0.9-0.6-1.6V261.9z M461.6,262.4c0,0.4,0.1,0.7,0.3,0.9s0.5,0.4,0.8,0.4
				c0.3,0,0.6-0.1,0.8-0.3c0.2-0.2,0.3-0.5,0.3-0.9v-0.5c0-0.4-0.1-0.7-0.3-0.9c-0.2-0.2-0.5-0.4-0.8-0.4c-0.3,0-0.6,0.1-0.8,0.3
				c-0.2,0.2-0.3,0.5-0.3,0.9V262.4z"/>
			<path class="st10" d="M364.2,286.2H359v3.3h-1.1v-3.3h-6.7v-1h2.4v-3.9h4.3v-2.2h-3.5c-0.6,1.1-1.4,2.1-2.2,2.8
				c-0.2-0.2-0.6-0.5-0.9-0.7c1.4-1.2,2.6-3,3.2-5l1.1,0.3c-0.2,0.5-0.4,1-0.7,1.5h8.6v1H359v2.2h4.2v1H359v2.9h5.2V286.2z
				 M357.9,285.2v-2.9h-3.2v2.9H357.9z"/>
			<path class="st10" d="M370.4,276.7c-0.4,0.9-0.9,1.9-1.4,2.7v10.1h-1V281c-0.6,0.8-1.3,1.6-1.9,2.2c-0.1-0.3-0.4-0.8-0.6-1.1
				c1.6-1.4,3.1-3.5,4-5.7L370.4,276.7z M376.5,288c0.8,0,0.9-0.6,1-3.1c0.3,0.2,0.7,0.4,1,0.5c-0.2,2.7-0.5,3.6-2,3.6h-2.7
				c-1.4,0-1.9-0.4-1.9-1.9v-10.5h1v3.9h5.1v1H373v5.6c0,0.8,0.2,0.9,0.9,0.9H376.5z"/>
			<path class="st10" d="M382.5,282.6c-0.5-0.4-1.7-1.1-2.5-1.5l0.6-0.8c0.8,0.4,2,1,2.5,1.4L382.5,282.6z M383.5,284.7
				c-0.6,1.5-1.5,3.3-2.2,4.6l-0.9-0.6c0.7-1.1,1.6-3,2.3-4.6L383.5,284.7z M383.2,278.9c-0.5-0.5-1.6-1.2-2.5-1.7l0.6-0.8
				c0.8,0.4,2,1.1,2.5,1.6L383.2,278.9z M392.1,282.2c-0.5,1.9-1.4,3.4-2.4,4.6c1,0.8,2.2,1.4,3.6,1.8c-0.3,0.2-0.5,0.6-0.7,0.9
				c-1.4-0.4-2.6-1.1-3.6-2c-1.1,0.9-2.2,1.6-3.5,2c-0.1-0.3-0.5-0.7-0.7-0.9c1.3-0.4,2.5-1,3.5-1.9c-1-1.1-1.7-2.4-2.3-3.9h-0.4
				c-0.1,2.1-0.4,4.7-1.9,6.6c-0.2-0.2-0.6-0.4-0.9-0.5c1.6-2,1.7-4.8,1.7-6.9v-3.6h3.5v-2.1h1.1v2.1h3.2l0.2,0l0.8,0.2
				c-0.4,1-0.8,2.2-1.2,2.9l-0.9-0.3c0.2-0.5,0.5-1.1,0.7-1.8H389v2.5h2.2l0.2,0L392.1,282.2z M385.5,279.4v2.5h2.4v-2.5H385.5z
				 M386.9,282.9c0.5,1.2,1.2,2.3,2,3.2c0.8-0.9,1.5-1.9,1.9-3.2H386.9z"/>
			<path class="st10" d="M407.2,279.7c0,0,0,0.4,0,0.5c-0.2,6-0.3,8-0.8,8.6c-0.2,0.4-0.5,0.5-1,0.5c-0.4,0.1-1.1,0-1.7,0
				c0-0.3-0.1-0.7-0.3-1c0.7,0.1,1.3,0.1,1.6,0.1c0.2,0,0.4,0,0.5-0.2c0.3-0.4,0.5-2.3,0.6-7.5h-2.1c-0.2,3.8-0.8,7-3.4,8.9
				c-0.2-0.2-0.5-0.6-0.8-0.8c0.2-0.2,0.4-0.3,0.6-0.5c-2.2,0.3-4.4,0.5-6,0.7l-0.2-0.9c0.9-0.1,1.9-0.2,3.1-0.3v-1.2h-2.7v-0.8h2.7
				v-0.9h-2.7v-4.3h2.7v-0.9h-3.1v-0.8h3.1v-1c-0.9,0.1-1.9,0.1-2.7,0.2c0-0.2-0.1-0.6-0.3-0.8c2.1-0.1,4.7-0.4,6.2-0.7l0.5,0.8
				c-0.8,0.2-1.8,0.3-2.8,0.4v1.1h3.1v0.8h-3.1v0.9h2.8v4.3h-2.8v0.9h2.8v0.8h-2.8v1.1c0.9-0.1,1.9-0.2,2.9-0.3v0.1
				c1.3-1.7,1.6-4,1.8-6.7h-1.7v-1h1.7c0-1,0-2.1,0-3.2h1c0,1.1,0,2.1,0,3.2H407.2z M395.7,282.3h1.8v-1h-1.8V282.3z M397.5,284V283
				h-1.8v1.1H397.5z M398.5,281.3v1h1.9v-1H398.5z M400.4,283h-1.9v1.1h1.9V283z"/>
			<path class="st10" d="M411.1,281.6c0,2.3-0.2,5.6-1.4,7.9c-0.2-0.2-0.7-0.4-1-0.5c1.2-2.2,1.3-5.2,1.3-7.4v-3.9h5.5
				c-0.2-0.4-0.4-0.9-0.6-1.3l1.1-0.3c0.3,0.5,0.6,1.1,0.7,1.5h5v1h-10.7V281.6z M420.6,284.9c-0.7,1.2-1.7,2.1-3,2.8
				c1.3,0.4,2.7,0.7,4.3,0.9c-0.2,0.2-0.5,0.6-0.6,0.9c-1.8-0.2-3.5-0.6-4.9-1.2c-1.5,0.6-3.3,1-5,1.2c-0.1-0.2-0.3-0.7-0.5-0.9
				c1.5-0.1,3-0.4,4.4-0.8c-1-0.5-1.7-1.2-2.3-2l0.5-0.2h-1.9v-0.9h8.1l0.2-0.1L420.6,284.9z M413.7,283.6v-2.4h-2.3v-0.9h2.3v-1.2
				h1v1.2h3.5v-1.2h1.1v1.2h2.3v0.9h-2.3v2.4H413.7z M414,285.4c0.6,0.7,1.4,1.3,2.4,1.8c1-0.4,1.9-1,2.5-1.8H414z M414.7,281.3v1.5
				h3.5v-1.5H414.7z"/>
			<path class="st10" d="M433.2,284.9h1.4v1.1h-1.4v2.4h-1.3V286h-4.7v-0.8l4.6-7.1h1.4V284.9z M428.7,284.9h3.2v-5l-0.2,0.3
				L428.7,284.9z"/>
			<path class="st10" d="M436,287.7c0-0.2,0.1-0.4,0.2-0.6c0.1-0.2,0.3-0.2,0.6-0.2c0.3,0,0.5,0.1,0.6,0.2c0.1,0.1,0.2,0.3,0.2,0.6
				c0,0.2-0.1,0.4-0.2,0.5c-0.1,0.1-0.3,0.2-0.6,0.2c-0.3,0-0.5-0.1-0.6-0.2S436,287.9,436,287.7z"/>
			<path class="st10" d="M440.2,283.3l0.5-5.1h5.2v1.2h-4.1l-0.3,2.8c0.5-0.3,1.1-0.4,1.7-0.4c0.9,0,1.7,0.3,2.2,0.9
				c0.5,0.6,0.8,1.4,0.8,2.5c0,1.1-0.3,1.9-0.9,2.5c-0.6,0.6-1.4,0.9-2.4,0.9c-0.9,0-1.6-0.3-2.2-0.8c-0.6-0.5-0.9-1.2-1-2.1h1.2
				c0.1,0.6,0.3,1,0.6,1.3c0.3,0.3,0.8,0.4,1.3,0.4c0.6,0,1.1-0.2,1.4-0.6c0.3-0.4,0.5-1,0.5-1.7c0-0.7-0.2-1.2-0.6-1.6
				c-0.4-0.4-0.9-0.6-1.5-0.6c-0.6,0-1,0.1-1.3,0.4l-0.3,0.3L440.2,283.3z"/>
			<path class="st10" d="M452,288.4h-1.3v-8.7l-2.6,1v-1.2l3.7-1.4h0.2V288.4z"/>
			<path class="st10" d="M455.7,280.1c0-0.6,0.2-1.1,0.6-1.5s0.9-0.6,1.5-0.6c0.6,0,1.1,0.2,1.5,0.6c0.4,0.4,0.6,0.9,0.6,1.6v0.5
				c0,0.6-0.2,1.1-0.6,1.5s-0.9,0.6-1.5,0.6c-0.6,0-1.1-0.2-1.5-0.6s-0.6-0.9-0.6-1.6V280.1z M456.6,280.7c0,0.4,0.1,0.7,0.3,0.9
				c0.2,0.2,0.5,0.4,0.8,0.4c0.3,0,0.6-0.1,0.8-0.3c0.2-0.2,0.3-0.5,0.3-0.9v-0.5c0-0.4-0.1-0.7-0.3-0.9c-0.2-0.2-0.5-0.4-0.8-0.4
				c-0.3,0-0.6,0.1-0.8,0.4c-0.2,0.2-0.3,0.6-0.3,0.9V280.7z M458.1,287.6l-0.7-0.5l5-8l0.7,0.5L458.1,287.6z M460.6,285.9
				c0-0.6,0.2-1.1,0.6-1.5s0.9-0.6,1.5-0.6c0.6,0,1.1,0.2,1.5,0.6c0.4,0.4,0.6,0.9,0.6,1.6v0.5c0,0.6-0.2,1.1-0.6,1.5
				c-0.4,0.4-0.9,0.6-1.5,0.6s-1.1-0.2-1.5-0.6s-0.6-0.9-0.6-1.6V285.9z M461.6,286.4c0,0.4,0.1,0.7,0.3,0.9s0.5,0.4,0.8,0.4
				c0.3,0,0.6-0.1,0.8-0.3c0.2-0.2,0.3-0.5,0.3-0.9v-0.5c0-0.4-0.1-0.7-0.3-0.9c-0.2-0.2-0.5-0.4-0.8-0.4c-0.3,0-0.6,0.1-0.8,0.3
				c-0.2,0.2-0.3,0.5-0.3,0.9V286.4z"/>
			<path class="st0" d="M354.5,308.3v3.4c0,0.8-0.2,1.3-0.6,1.5c-0.5,0.3-1.2,0.3-2.2,0.3c-0.1-0.4-0.3-1.1-0.5-1.6
				c0.6,0,1.2,0,1.4,0c0.2,0,0.3-0.1,0.3-0.3v-3l-1.5,0.4l-0.4-1.6c0.5-0.1,1.2-0.3,1.9-0.4v-2.5h-1.7v-1.6h1.7v-2.7h1.7v2.7h1.5
				v1.6h-1.5v2.1l1.1-0.3l0.2,1.6L354.5,308.3z M363.6,306.8c-0.5,1.8-1.4,3.1-2.5,4.2c1,0.5,2.1,0.9,3.3,1.1
				c-0.4,0.4-0.8,1.1-1.1,1.6c-1.4-0.3-2.7-0.9-3.7-1.6c-1.2,0.7-2.5,1.2-3.9,1.5c-0.2-0.5-0.5-1.2-0.8-1.6c1.2-0.2,2.3-0.6,3.3-1.1
				c-0.8-0.8-1.5-1.7-2-2.8l0.5-0.2H356v-1.6h6.3l0.3-0.1L363.6,306.8z M356.5,306.2c-0.2-0.3-0.8-1-1.1-1.2
				c1.7-0.8,1.9-1.8,1.9-2.8v-1.5h5.1v3.1c0,0.4,0,0.6,0.2,0.6h0.8c0.2,0,0.6,0,0.8-0.1c0,0.4,0.1,1,0.1,1.4
				c-0.2,0.1-0.6,0.1-0.9,0.1h-1c-1.4,0-1.7-0.6-1.7-2v-1.5l-1.9,0C358.8,303.7,358.4,305.3,356.5,306.2z M358,308
				c0.4,0.8,1,1.4,1.8,2c0.7-0.5,1.2-1.2,1.7-2H358z"/>
			<path class="st0" d="M374.6,302.7c0.8,0.8,2.3,1.1,4.2,1.2c-0.3,0.3-0.7,1-1,1.4c-1.6-0.2-2.9-0.7-3.8-1.5
				c-0.5,0.6-1.7,1.2-4.2,1.5c-0.1-0.3-0.3-0.6-0.6-0.9h-3.8v-1.3h4.3v0.9c2.8-0.3,3.1-0.9,3.1-1.5v-0.2h-0.9
				c-0.3,0.5-0.6,0.9-1,1.2c-0.3-0.3-0.9-0.7-1.3-0.9c0.8-0.6,1.4-1.6,1.7-2.6l1.5,0.3c-0.1,0.2-0.2,0.4-0.2,0.6h4.1l0.3-0.1
				l1.2,0.4c-0.4,0.8-0.9,1.7-1.3,2.3l-1.3-0.5c0.2-0.2,0.3-0.5,0.5-0.8h-1.6v0.3V302.7z M375,311.2c1.3,0.5,2.7,1.1,3.6,1.5
				l-1.5,0.9c-0.8-0.5-2.3-1.2-3.7-1.7l0.9-0.7h-4.1l1.3,0.6c-1.2,0.7-3,1.5-4.5,1.9c-0.3-0.3-0.9-1-1.3-1.3
				c1.4-0.3,2.9-0.7,3.9-1.2h-2.1v-5.8h9.6v5.8H375z M369.6,302.1h-3.7v-1.3h3.7V302.1z M369.1,307h6.2v-0.6h-6.2V307z M369.1,308.6
				h6.2V308h-6.2V308.6z M369.1,310.2h6.2v-0.6h-6.2V310.2z"/>
			<path class="st0" d="M392.5,304.3c-0.3,2.2-0.9,4-1.7,5.5c0.7,1,1.6,1.9,2.6,2.5c-0.4,0.3-0.9,0.9-1.2,1.4
				c-0.9-0.6-1.7-1.4-2.4-2.4c-0.8,1-1.8,1.8-3.1,2.4c-0.2-0.3-0.8-1-1.2-1.3c1.5-0.6,2.6-1.5,3.4-2.7c-0.4-0.8-0.7-1.7-1.1-2.6
				c-0.2,0.3-0.4,0.6-0.6,0.9c-0.2-0.3-0.7-1-1-1.3l-0.6,0.4c-0.1-0.2-0.1-0.4-0.2-0.6c-0.2,0.8-0.5,1.5-0.8,2.2
				c0.7,0.9,1.4,1.7,1.8,2.4l-1.4,1.1c-0.3-0.5-0.7-1.2-1.3-1.9c-0.7,1.2-1.7,2.2-2.9,3c-0.2-0.3-0.8-1-1.1-1.3
				c1.2-0.7,2.2-1.8,2.9-3.1c-0.5-0.5-1-1.1-1.5-1.6c-0.1,0.2-0.3,0.4-0.4,0.6c-0.3-0.3-0.8-0.8-1.2-1.1c0.7-0.8,1.5-2.1,1.9-3.2
				l1.5,0.5c-0.4,1-1.1,2.2-1.7,3.1l1.1-0.8c0.3,0.3,0.6,0.6,1,1c0.2-0.5,0.3-1,0.4-1.5l1.4,0.3c-0.3-0.6-0.8-1.4-1.3-1.9l1.1-0.6
				h-4.9v-1.5h2.9c-0.2-0.5-0.5-1.1-0.7-1.5l1.5-0.5c0.4,0.5,0.7,1.2,0.9,1.7l-0.9,0.4h3.3v1.5h-1.6c0.6,0.7,1.1,1.5,1.5,2.2
				c0.9-1.5,1.4-3.6,1.7-5.8l1.6,0.3c-0.1,0.8-0.3,1.5-0.4,2.3h3.6v1.6H392.5z M389.1,304.3c-0.1,0.3-0.2,0.6-0.3,0.9
				c0.3,1,0.6,2,1,2.9c0.5-1.1,0.8-2.4,1-3.8H389.1z"/>
			<path class="st0" d="M403.1,308.7c-0.1-0.2-0.2-0.4-0.3-0.7c-3.4,0.3-4,0.4-4.4,0.6c-0.1-0.3-0.3-1-0.5-1.4c-1,0.5-2,1-2.8,1.4
				l-0.8-1.4c0.9-0.3,2.3-0.9,3.6-1.5l0.3,1.3l-0.3,0.1c0.4-0.1,0.7-0.3,1.2-0.7c0.2-0.2,0.6-0.5,1.1-1c-1.1,0.1-1.4,0.2-1.6,0.2
				c-0.1-0.3-0.3-1-0.5-1.3c0.2-0.1,0.4-0.2,0.7-0.5c0.1-0.2,0.4-0.5,0.8-1h-4.9v-1.5h5.4c-0.2-0.3-0.3-0.6-0.5-0.8l1.7-0.4
				c0.3,0.4,0.6,0.8,0.8,1.2h5.1v1.5h-5.9c-0.3,0.4-0.6,0.9-1,1.3l1.3,0c0.3-0.4,0.6-0.8,0.9-1.2l1.3,0.8c-1,1.2-2.1,2.3-3.3,3.2
				l1.5-0.1c-0.2-0.3-0.3-0.5-0.5-0.7l1.3-0.4c0.2,0.3,0.5,0.6,0.7,0.9l1-0.7c0.9,0.5,2.2,1.3,2.9,1.8l-1.2,1
				c-0.5-0.5-1.4-1.1-2.3-1.7c0.2,0.4,0.4,0.8,0.6,1.2L403.1,308.7z M407.5,311h-5.6v2.6H400V311h-5.6v-1.6h5.6v-1h1.8v1h5.6V311z
				 M396.9,305.7c-0.4-0.5-1.4-1.2-2.1-1.6l1.1-0.9c0.7,0.4,1.7,1.1,2.2,1.5L396.9,305.7z M403.6,304.9c0.6-0.4,1.4-1.2,1.8-1.8
				l1.4,0.8c-0.6,0.7-1.4,1.3-2,1.8L403.6,304.9z"/>
			<path class="st0" d="M441.1,312.4h-2v-7.8l-2.4,0.8v-1.7l4.2-1.5h0.2V312.4z"/>
			<path class="st0" d="M444.7,311.4c0-0.3,0.1-0.6,0.3-0.8c0.2-0.2,0.5-0.3,0.8-0.3c0.3,0,0.6,0.1,0.8,0.3c0.2,0.2,0.3,0.5,0.3,0.8
				c0,0.3-0.1,0.6-0.3,0.8c-0.2,0.2-0.5,0.3-0.8,0.3c-0.3,0-0.6-0.1-0.8-0.3C444.8,312,444.7,311.7,444.7,311.4z"/>
			<path class="st0" d="M455.5,308.2c0,1.4-0.3,2.5-0.9,3.2s-1.4,1.1-2.6,1.1c-1.1,0-2-0.4-2.6-1.1c-0.6-0.7-0.9-1.8-0.9-3.2v-1.9
				c0-1.4,0.3-2.5,0.9-3.3c0.6-0.7,1.4-1.1,2.6-1.1c1.1,0,2,0.4,2.6,1.1c0.6,0.7,0.9,1.8,0.9,3.2V308.2z M453.5,306.1
				c0-0.8-0.1-1.5-0.3-1.9c-0.2-0.4-0.6-0.6-1.1-0.6c-0.5,0-0.8,0.2-1.1,0.6c-0.2,0.4-0.3,0.9-0.4,1.7v2.5c0,0.8,0.1,1.5,0.3,1.9
				s0.6,0.6,1.1,0.6c0.5,0,0.9-0.2,1.1-0.6c0.2-0.4,0.3-1,0.3-1.8V306.1z"/>
			<path class="st0" d="M463.9,312.4h-7V311l3.3-3.5c0.5-0.5,0.8-0.9,1-1.3s0.3-0.7,0.3-1.1c0-0.5-0.1-0.8-0.3-1.1s-0.6-0.4-1-0.4
				c-0.5,0-0.8,0.2-1.1,0.5s-0.4,0.7-0.4,1.2h-2c0-0.6,0.1-1.2,0.4-1.7s0.7-0.9,1.3-1.2c0.5-0.3,1.2-0.4,1.8-0.4
				c1.1,0,1.9,0.3,2.5,0.8c0.6,0.5,0.9,1.2,0.9,2.1c0,0.5-0.1,1-0.4,1.5c-0.3,0.5-0.7,1.1-1.4,1.8l-2.3,2.5h4.4V312.4z"/>
		</g>
	</g>
	<g>
		<path class="st0" d="M220.8,396.2v1.1h-8.7c-0.6,1.2-1.2,2.2-1.9,3.3v7.7H209v-6.3c-0.6,0.6-1.2,1.1-1.9,1.6
			c-0.1-0.3-0.4-0.8-0.6-1.1c1.8-1.3,3.2-3.2,4.2-5.2h-3.8v-1.1h4.4c0.3-0.8,0.6-1.7,0.8-2.5l1.2,0.3c-0.2,0.7-0.5,1.5-0.8,2.2
			H220.8z M216.6,406.9h4.2v1.1h-9.6v-1.1h4.2v-4.5h-3.6v-1.1h3.6v-3.1h1.2v3.1h3.6v1.1h-3.6V406.9z"/>
		<path class="st0" d="M227.1,404.1h2.8v1h-2.8v3.2H226v-3.2h-3v-1h3v-1.7h-2.6v-1h1.5c-0.1-0.5-0.4-1.3-0.8-2l0.9-0.2
			c0.4,0.6,0.7,1.4,0.8,1.9l-0.8,0.3h2c0.4-0.7,0.8-1.6,1.1-2.3l1,0.3c-0.3,0.7-0.7,1.4-1.1,2h1.6v1h-2.5V404.1z M229.9,399.1H223
			v-1h3v-1.6h-2.5v-1h2.5v-1.6h1.1v1.6h2.4v1h-2.4v1.6h2.8V399.1z M237.1,400.1c-0.4,1.9-1,3.6-2,5.2c0.7,0.9,1.6,1.6,2.5,2
			c-0.3,0.2-0.6,0.7-0.8,1c-0.9-0.5-1.7-1.2-2.4-2c-0.7,0.8-1.4,1.6-2.3,2.2c-0.1-0.2-0.3-0.4-0.5-0.6v0.5h-1.1v-13.9h6.2v3.1
			c0,0.6-0.1,0.9-0.6,1.1c-0.5,0.2-1.3,0.2-2.5,0.2c0-0.3-0.2-0.7-0.4-1.1c1,0,1.8,0,2.1,0c0.3,0,0.3-0.1,0.3-0.3v-2h-4v4.3h4.5
			l0.2,0L237.1,400.1z M231.6,407.4c0.8-0.6,1.6-1.3,2.2-2.1c-0.9-1.3-1.6-2.8-2-4.4h-0.1V407.4z M232.8,400.9
			c0.4,1.2,0.9,2.4,1.6,3.5c0.6-1.1,1.1-2.3,1.4-3.5H232.8z"/>
		<path class="st0" d="M239.2,394.5h6v1h-1.8v2h1.6v10.6H244v-0.9h-3.7v1.1h-0.9v-10.8h1.5v-2h-1.8V394.5z M244,406.2V402h0h-0.7
			c-0.6,0-0.8-0.1-0.8-0.9v-2.6h-0.7v1.3c0,0.9-0.2,2.2-1,3.1c-0.1-0.1-0.2-0.3-0.4-0.4v3.7H244z M240.4,398.5v3.8
			c0.7-0.8,0.8-1.7,0.8-2.5v-1.3H240.4z M241,403.7h2.5v0.9H241V403.7z M242.6,395.5h-0.7v2h0.7V395.5z M244,398.5h-0.8v2.6
			c0,0.2,0,0.2,0.2,0.2h0.5c0.1,0,0.1,0,0.1,0V398.5z M246.9,394.1h1v6.4c0,3-0.2,5.8-1.9,8c-0.2-0.2-0.6-0.5-0.9-0.7
			c1.3-1.6,1.6-3.6,1.7-5.7l-0.8,0.3c-0.1-1-0.5-2.5-0.9-3.6l0.8-0.3c0.4,1.1,0.8,2.5,0.9,3.5c0-0.5,0-1,0-1.5V394.1z M253.2,394.1
			v14.3h-1V402l-0.6,0.3c-0.2-0.9-0.6-2.3-1.1-3.4v9.2h-0.9V402l-0.7,0.3c-0.1-1-0.5-2.4-0.9-3.6l0.7-0.3c0.4,1,0.7,2.4,0.9,3.3
			v-7.4h0.9v4.2l0.6-0.3c0.4,0.9,0.8,2,1.1,3v-7.2H253.2z"/>
		<path class="st0" d="M270,405h-6.5v3.4h-1.2V405h-6.5v-1.1h6.5v-1.3h1.2v1.3h6.5V405z M259.9,400.9c-1.2,0.7-2.5,1.3-3.6,1.9
			l-0.6-1c1-0.4,2.5-1.1,3.9-1.8L259.9,400.9z M265.4,402.8c-0.1-0.3-0.2-0.5-0.4-0.8c-4.2,0.4-4.7,0.5-5,0.6
			c-0.1-0.2-0.2-0.8-0.4-1c0.4,0,0.8-0.4,1.3-0.8c0.3-0.3,1-0.9,1.8-1.7c-1.8,0.1-2.2,0.2-2.4,0.3c0-0.2-0.2-0.8-0.3-1
			c0.2,0,0.5-0.2,0.7-0.5c0.2-0.2,0.8-0.9,1.2-1.6H256v-1.1h6.5c-0.2-0.4-0.5-0.9-0.7-1.2l1.2-0.3c0.4,0.5,0.7,1.1,0.9,1.6h5.9v1.1
			h-6.7c-0.5,0.7-1,1.4-1.5,2l2-0.1c0.4-0.4,0.8-0.9,1.1-1.3l1,0.6c-1.3,1.5-2.7,2.9-4,4l2.8-0.2c-0.3-0.4-0.5-0.7-0.8-1l0.9-0.4
			c0.7,0.8,1.5,1.9,1.8,2.7L265.4,402.8z M257,396.9c0.8,0.5,1.9,1.3,2.4,1.8l-0.8,0.7c-0.5-0.5-1.5-1.3-2.4-1.9L257,396.9z
			 M268.8,402.9c-0.7-0.6-2-1.6-3.1-2.2l0.8-0.6c1.1,0.6,2.5,1.5,3.2,2.2L268.8,402.9z M269,397.5c-0.7,0.7-1.6,1.5-2.4,2l-0.9-0.6
			c0.7-0.5,1.7-1.4,2.3-2L269,397.5z"/>
		<path class="st0" d="M286.4,403.5v1.1h-14.4v-1.1h1.6l-0.3-8.5c1-0.4,2.2-0.8,3-1.2l0.6,1c-0.7,0.3-1.6,0.6-2.4,0.9l0.1,1.9h2.1v1
			h-2.1l0.1,2h2.1v1h-2.1l0.1,2h9.1c0-0.6,0.1-1.2,0.1-1.9h-2.1v-1h2.1c0-0.6,0-1.3,0.1-2h-2.1v-1h2.1c0-0.7,0-1.4,0-2h-2.3v-1h3.4
			c0,2.8-0.1,6.6-0.2,9H286.4z M277.6,405.6c-1.3,1-3.2,2.1-4.8,2.7c-0.2-0.2-0.5-0.6-0.7-0.9c1.5-0.6,3.4-1.7,4.4-2.6L277.6,405.6z
			 M278.8,399.9c-0.2,1.1-0.5,2.2-1,3c-0.2-0.1-0.6-0.4-0.8-0.5c0.5-0.7,0.7-1.7,0.9-2.6L278.8,399.9z M280,399h-2.5v-5.2h1v1.5h2.6
			v1h-2.6v1.7h2.1v0h0.4v4.2c0,0.5-0.1,0.7-0.4,0.9c-0.4,0.1-0.9,0.1-1.7,0.1c0-0.3-0.2-0.6-0.3-0.8c0.6,0,1,0,1.2,0
			c0.2,0,0.2-0.1,0.2-0.2V399z M281.3,404.9c1.7,0.8,3.5,1.8,4.7,2.6l-0.8,0.9c-1.1-0.8-2.9-1.8-4.5-2.6L281.3,404.9z"/>
		<path class="st0" d="M290.9,400.8c-0.6-0.5-1.8-1.2-2.8-1.7l0.7-0.9c0.9,0.4,2.2,1.1,2.8,1.6L290.9,400.8z M292,403
			c-0.7,1.7-1.7,3.7-2.5,5.1l-1-0.7c0.8-1.2,1.8-3.3,2.6-5.1L292,403z M291.7,396.6c-0.6-0.5-1.8-1.3-2.8-1.8l0.7-0.8
			c0.9,0.5,2.2,1.2,2.8,1.7L291.7,396.6z M301.6,400.3c-0.6,2.1-1.5,3.7-2.7,5.1c1.1,0.9,2.4,1.6,4,2c-0.3,0.3-0.6,0.7-0.8,1
			c-1.6-0.5-2.9-1.2-4-2.2c-1.2,1-2.5,1.7-3.9,2.3c-0.2-0.3-0.5-0.8-0.8-1c1.4-0.5,2.7-1.2,3.9-2.1c-1.1-1.2-1.9-2.6-2.5-4.3h-0.4
			c-0.1,2.4-0.5,5.3-2.1,7.3c-0.2-0.2-0.7-0.5-1-0.6c1.7-2.2,1.9-5.4,1.9-7.7v-4h3.9v-2.3h1.2v2.3h3.5l0.2,0l0.8,0.2
			c-0.4,1.2-0.9,2.4-1.4,3.2l-1-0.3c0.3-0.5,0.5-1.2,0.8-2h-3v2.8h2.5l0.2,0L301.6,400.3z M294.3,397.2v2.8h2.7v-2.8H294.3z
			 M295.8,401.1c0.5,1.3,1.3,2.5,2.2,3.5c0.9-1,1.6-2.1,2.1-3.5H295.8z"/>
		<path class="st0" d="M318.7,397.5c0,0,0,0.4,0,0.6c-0.2,6.7-0.3,8.9-0.9,9.6c-0.3,0.4-0.6,0.5-1.1,0.6c-0.4,0.1-1.2,0-1.9,0
			c0-0.3-0.2-0.8-0.3-1.1c0.8,0.1,1.5,0.1,1.8,0.1c0.3,0,0.4,0,0.6-0.3c0.4-0.5,0.6-2.6,0.7-8.4h-2.3c-0.2,4.3-0.9,7.7-3.7,9.9
			c-0.2-0.3-0.6-0.7-0.9-0.8c0.3-0.2,0.5-0.4,0.7-0.6c-2.4,0.3-4.9,0.6-6.7,0.8l-0.2-1c1-0.1,2.2-0.2,3.5-0.3v-1.4h-3v-0.9h3v-1h-3
			v-4.8h3v-1h-3.5v-0.9h3.5v-1.1c-1,0.1-2.1,0.1-3,0.2c0-0.3-0.2-0.6-0.3-0.9c2.4-0.1,5.2-0.4,6.9-0.8l0.6,0.9
			c-0.9,0.2-2,0.3-3.1,0.5v1.2h3.4v0.9H309v1h3.1v4.8H309v1h3.1v0.9H309v1.3c1-0.1,2.1-0.2,3.2-0.3v0.1c1.4-1.9,1.8-4.5,2-7.5h-1.9
			v-1.1h1.9c0-1.1,0-2.3,0-3.5h1.1c0,1.2,0,2.4,0,3.5H318.7z M305.9,400.4h2v-1.2h-2V400.4z M308,402.3v-1.2h-2v1.2H308z M309,399.2
			v1.2h2.1v-1.2H309z M311.1,401.2H309v1.2h2.1V401.2z"/>
		<path class="st0" d="M323.3,399.7c0,2.5-0.2,6.2-1.5,8.7c-0.2-0.2-0.8-0.4-1.1-0.5c1.3-2.4,1.4-5.8,1.4-8.2v-4.3h6.2
			c-0.2-0.4-0.4-1-0.6-1.4l1.2-0.3c0.3,0.5,0.6,1.2,0.8,1.7h5.6v1.1h-11.9V399.7z M333.9,403.3c-0.7,1.4-1.9,2.4-3.3,3.1
			c1.4,0.5,3,0.8,4.8,1c-0.2,0.2-0.5,0.7-0.7,1c-2-0.2-3.9-0.7-5.5-1.4c-1.7,0.7-3.6,1.1-5.6,1.3c-0.1-0.3-0.3-0.7-0.5-1
			c1.7-0.2,3.4-0.4,4.9-0.9c-1.1-0.6-1.9-1.3-2.6-2.3l0.6-0.2h-2.1v-1h9l0.2-0.1L333.9,403.3z M326.3,401.9v-2.6h-2.6v-1h2.6v-1.4
			h1.1v1.4h3.9v-1.4h1.2v1.4h2.6v1h-2.6v2.6H326.3z M326.6,403.9c0.6,0.8,1.6,1.5,2.7,2c1.1-0.5,2.1-1.2,2.8-2H326.6z M327.4,399.3
			v1.7h3.9v-1.7H327.4z"/>
		<path class="st0" d="M339.1,399.9v8.5h-1.2v-13.9h5.8v5.5H339.1z M339.1,395.4v1.3h3.5v-1.3H339.1z M342.5,399v-1.4h-3.5v1.4
			H342.5z M342.5,406.9v0.8h-1.1v-6.6h5.9v5.8H342.5z M342.5,402v1.5h3.8V402H342.5z M346.3,406v-1.6h-3.8v1.6H346.3z M351,406.8
			c0,0.8-0.2,1.2-0.7,1.4c-0.5,0.2-1.4,0.2-2.7,0.2c0-0.3-0.2-0.9-0.4-1.2c1,0,2,0,2.2,0c0.3,0,0.4-0.1,0.4-0.4v-6.9h-4.7v-5.5h5.9
			V406.8z M346.2,395.4v1.3h3.6v-1.3H346.2z M349.8,399v-1.4h-3.6v1.4H349.8z"/>
		<path class="st0" d="M368,404.9h-3.3v2.2c0,0.7-0.1,1-0.7,1.1c-0.5,0.2-1.3,0.2-2.7,0.2c0-0.3-0.2-0.7-0.4-1.1c1.1,0,2,0,2.3,0
			c0.3,0,0.4-0.1,0.4-0.3v-2.2h-6.4c0.9,0.5,1.9,1.3,2.4,1.8l-0.8,0.8c-0.5-0.6-1.6-1.5-2.5-2l0.7-0.6h-3.3v-1h10v-1h-2.4v-3.2h6
			v3.2h-2.4v1h3.3V404.9z M353.8,402.3c0.7,0,1.6-0.1,2.6-0.2v-1.6h-2.3v-0.9h5.8v0.9h-2.4v1.5l2.7-0.2v0.9
			c-2.3,0.2-4.7,0.4-6.3,0.5L353.8,402.3z M364.7,397h-10.3v-0.8h10.3v-1h-9.3v-0.8h10.5v1.8h1.2v0.8h-1.2v1.8h-10.6V398h9.4V397z
			 M362.2,402h3.7v-1.6h-3.7V402z"/>
		<path class="st0" d="M373.3,402.4v4.5c0,0.7-0.2,1-0.6,1.2c-0.4,0.2-1.1,0.2-2.2,0.2c0-0.3-0.2-0.8-0.4-1.1c0.8,0,1.5,0,1.6,0
			c0.2,0,0.3-0.1,0.3-0.3v-4.2c-0.8,0.2-1.5,0.4-2.1,0.6l-0.4-1.2c0.7-0.2,1.6-0.4,2.5-0.7v-3.4h-2.3V397h2.3v-3.2h1.2v3.2h2v1.1h-2
			v3.1c0.6-0.2,1.3-0.4,2-0.6l0.1,1.1L373.3,402.4z M383.2,400.3c-0.7,1.5-1.6,2.9-2.8,4.1c0.6,1.5,1.3,2.4,2.3,2.5
			c0.4,0,0.7-0.8,0.8-2.6c0.2,0.3,0.8,0.6,1,0.7c-0.4,2.6-1,3.4-1.8,3.3c-1.4-0.1-2.5-1.2-3.3-2.9c-1.1,1-2.4,1.9-3.6,2.4
			c-0.2-0.3-0.6-0.7-0.9-0.9c1.5-0.6,2.9-1.5,4.1-2.7c-0.5-1.4-0.8-3.1-1.1-5.1l-2.4,0.3l-0.1-1.1l2.4-0.3c-0.1-1.3-0.2-2.7-0.3-4.2
			h1.2c0.1,1.4,0.2,2.8,0.3,4.1l4.9-0.5l0.1,1.1l-4.9,0.5c0.2,1.6,0.5,3,0.8,4.2c1-1.1,1.7-2.3,2.3-3.5L383.2,400.3z M382,397.1
			c-0.4-0.7-1.4-1.7-2.1-2.4l0.9-0.6c0.8,0.7,1.8,1.6,2.2,2.3L382,397.1z"/>
		<path class="st0" d="M392.9,400.9v7.5h-1.1v-1.6c-2,0.3-3.9,0.5-5.4,0.7l-0.1-1.1c0.4,0,1-0.1,1.5-0.1v-5.4h-1.4v-1h14v1H392.9z
			 M389.4,399.1h-1.1v-4.8h10.3v4.8h-1.2v-3.9h-8V399.1z M391.8,400.9h-2.9v1.1h2.9V400.9z M391.8,402.9h-2.9v1.1h2.9V402.9z
			 M388.8,406.2c0.9-0.1,1.9-0.2,2.9-0.4v-1h-2.9V406.2z M396.6,396.9h-6.5v-0.8h6.5V396.9z M390.1,398.6v-0.8h6.5v0.8H390.1z
			 M399.9,402.2c-0.5,1.5-1.3,2.7-2.3,3.7c0.9,0.7,1.9,1.2,3.1,1.4c-0.2,0.2-0.5,0.6-0.7,0.9c-1.2-0.4-2.3-0.9-3.2-1.7
			c-1,0.8-2.1,1.3-3.2,1.7c-0.1-0.3-0.4-0.7-0.6-0.9c1.1-0.3,2.1-0.8,3.1-1.5c-0.8-0.8-1.4-1.8-1.9-2.9l0.3-0.1h-0.9v-1h5.5l0.2,0
			L399.9,402.2z M395.2,402.8c0.4,0.9,0.9,1.6,1.6,2.3c0.7-0.7,1.3-1.4,1.7-2.3H395.2z"/>
		<path class="st0" d="M407.1,394.1c-0.4,1.2-1,2.4-1.6,3.5v10.7h-1.2v-8.8c-0.4,0.6-0.9,1.2-1.3,1.8c-0.1-0.3-0.5-0.9-0.7-1.2
			c1.5-1.6,2.8-3.9,3.6-6.4L407.1,394.1z M417,406.6v1.2h-10.5v-1.2h4.7V404h-3.8v-1.1h3.8V401h1.2v1.8h3.9v1.1h-3.9v2.7H417z
			 M411.2,397h-3.4v-1.1h3.4v-2.1h1.2v2.1h3.6v1.1h-3.6v2.3h4.3v1.1H407v-1.1h4.2V397z"/>
		<path class="st0" d="M433.2,402.8h-6.6v5.6h-1.2v-5.6h-6.5v-1.2h6.5V396h-5.6v-1.2h12.5v1.2h-5.7v5.6h6.6V402.8z M421.9,396.8
			c0.7,1.2,1.3,2.7,1.5,3.6l-1.1,0.4c-0.2-0.9-0.8-2.5-1.4-3.7L421.9,396.8z M428.3,400.5c0.6-1,1.3-2.6,1.7-3.8l1.2,0.4
			c-0.6,1.3-1.3,2.8-2,3.8L428.3,400.5z"/>
		<path class="st0" d="M439.5,398.7c-0.1,0.1-0.1,0.2-0.2,0.3c-0.2-0.2-0.5-0.5-0.8-0.7c-0.2,0.4-0.4,0.8-0.6,1.1v9h-1.1v-7.3
			c-0.4,0.5-0.8,1-1.2,1.4c-0.1-0.2-0.5-0.8-0.7-1c1.1-1.2,2.3-2.9,3-4.5l1.1,0.4c-0.1,0.3-0.2,0.5-0.4,0.8c1.2-1.3,1.9-2.9,2.2-4.2
			l1.1,0.1c-0.1,0.4-0.2,0.7-0.4,1.1h2l0.2-0.1l0.7,0.5c-0.2,0.7-0.6,1.4-0.9,2h1.7v5.3h-5.7V398.7z M438.6,394.2
			c-0.7,1.3-1.9,2.8-2.9,3.7c-0.1-0.2-0.4-0.7-0.6-0.9c0.9-0.8,2-2.2,2.5-3.3L438.6,394.2z M442.9,403.1c0,0.3-0.1,0.6-0.1,0.8h2.8
			v1h-2.7c0.9,0.7,1.9,1.5,2.4,2.1l-0.7,0.7c-0.5-0.6-1.4-1.5-2.3-2.2c-0.5,1.2-1.4,2-3,2.6c-0.1-0.2-0.4-0.6-0.6-0.8
			c1.6-0.5,2.3-1.4,2.7-2.5h-2.5v-1h2.8c0-0.3,0.1-0.5,0.1-0.8H442.9z M441.1,396.1c-0.2,0.5-0.5,1-0.8,1.4h2
			c0.2-0.4,0.5-0.9,0.7-1.4H441.1z M441.9,399.7v-1.4h-1.5v1.4H441.9z M440.4,400.6v1.4h1.5v-1.4H440.4z M444.2,398.4h-1.4v1.4h1.4
			V398.4z M444.2,400.6h-1.4v1.4h1.4V400.6z M449.6,399.9h-1.3v7.1c0,0.6-0.1,0.9-0.5,1.1c-0.4,0.2-0.9,0.2-1.8,0.2
			c0-0.3-0.2-0.8-0.3-1.1c0.6,0,1.2,0,1.4,0c0.2,0,0.2,0,0.2-0.2v-7.1h-1.6v-1.1h4V399.9z M449.3,396H446v-1.1h3.3V396z"/>
		<path class="st0" d="M451.2,407.9c0.6-0.7,0.9-1.8,1.1-2.9l0.8,0.2c-0.2,1.2-0.4,2.4-1.1,3.1L451.2,407.9z M451.5,403.4
			c0.8,0,1.9-0.1,3-0.1V402h-2.6V401h2.6v-1.1h-2.5v-5.6h6.3v5.6h-2.7v1.1h2.8v0.9h-2.8v1.2c1,0,2-0.1,3-0.2l0,1
			c-2.5,0.2-5.2,0.4-7,0.4L451.5,403.4z M452.9,399.1h1.7v-3.8h-1.7V399.1z M453.7,395.8c0.3,0.8,0.5,1.8,0.5,2.4l-0.6,0.2
			c0-0.7-0.2-1.7-0.5-2.4L453.7,395.8z M454.4,405c0.3,0.9,0.4,2,0.4,2.8l-0.8,0.1c0-0.8-0.2-1.9-0.4-2.8L454.4,405z M455.9,404.8
			c0.4,0.8,0.7,1.9,0.8,2.6l-0.8,0.2c-0.1-0.7-0.4-1.8-0.8-2.6L455.9,404.8z M457.3,395.2h-1.8v3.8h1.8V395.2z M455.7,398.3
			c0.2-0.7,0.5-1.8,0.7-2.5l0.7,0.3c-0.3,0.8-0.6,1.9-0.9,2.5L455.7,398.3z M457.4,404.5c0.6,0.7,1.1,1.7,1.4,2.4l-0.8,0.4
			c-0.2-0.7-0.8-1.7-1.3-2.4L457.4,404.5z M462.6,398.4v3h2.8v7h-1.1v-0.7h-4v0.8h-1.1v-7h2.3v-7.5h1.2v3.4h3.4v1.1H462.6z
			 M464.2,402.4h-4v4.1h4V402.4z"/>
		<path class="st0" d="M472.2,403.3c1.2-0.5,1.9-1.3,2-2.4c-0.1,0-0.2,0-0.3,0c-0.7,0-1.2-0.4-1.2-1.1s0.6-1.2,1.2-1.2
			c0.9,0,1.4,0.7,1.4,1.8c0,1.7-1.1,3-2.8,3.6L472.2,403.3z"/>
		<path class="st0" d="M484.6,402.4v4.6c0,0.6-0.1,0.9-0.5,1.1c-0.4,0.2-0.9,0.2-1.8,0.2c0-0.3-0.2-0.7-0.3-1.1c0.6,0,1.2,0,1.4,0
			c0.2,0,0.3,0,0.3-0.3v-4.2l-1.5,0.6l-0.3-1.1c0.5-0.2,1.1-0.4,1.8-0.6v-3.5h-1.6V397h1.6v-3.2h1v3.2h1.3v1.1h-1.3v3.1l1.2-0.4
			l0.2,1.1L484.6,402.4z M489,402.9c0.1-0.3,0.1-0.5,0.2-0.8l0.9,0.2c-0.5,2.7-1.8,4.8-3.8,6c-0.1-0.2-0.5-0.6-0.7-0.7
			c1.4-0.8,2.5-2,3.1-3.6c-1.9,0.5-2.2,0.7-2.4,0.8c0-0.2-0.2-0.7-0.3-0.9c0.3-0.1,0.6-0.4,0.9-0.9c0.2-0.3,0.7-1.1,1.2-2.1
			c-1.3,0.2-1.6,0.2-1.8,0.4c0-0.2-0.2-0.7-0.3-1c0.2,0,0.4-0.3,0.6-0.6c0.2-0.3,0.8-1.6,1.1-2.8l1,0.4c-0.3,0.9-0.8,1.9-1.2,2.7
			l1.3-0.1c0.2-0.4,0.3-0.7,0.4-1.1l0.9,0.5c-0.6,1.4-1.4,2.8-2.2,4L489,402.9z M496.2,396.6h-10.1v-1.1h4.5
			c-0.2-0.4-0.4-0.9-0.7-1.3l0.8-0.4c0.3,0.5,0.7,1.2,0.9,1.7h4.6V396.6z M496.3,407.4h-4.9v0.8h-1v-7.1c-0.2,0.2-0.3,0.5-0.5,0.7
			c-0.2-0.1-0.6-0.5-0.8-0.6c0.9-1,1.7-2.6,2.1-4.1l1,0.2c-0.2,0.5-0.4,1.1-0.6,1.6h1.9c-0.2-0.5-0.4-1-0.7-1.4l0.8-0.3
			c0.3,0.5,0.6,1.2,0.8,1.7h1.6v0.9h-2v1.6h1.7v0.9h-1.7v1.6h1.7v0.9h-1.7v1.8h2.2V407.4z M493.1,399.7h-1.7v1.6h1.7V399.7z
			 M493.1,402.2h-1.7v1.6h1.7V402.2z M491.4,406.4h1.7v-1.8h-1.7V406.4z"/>
		<path class="st0" d="M503.7,396.9c-0.3,0.6-0.6,1.3-1,1.9h7.7v8.1c0,0.7-0.2,1.1-0.7,1.3c-0.5,0.2-1.4,0.2-2.8,0.2
			c0-0.4-0.2-0.8-0.4-1.2c1.1,0,2,0,2.3,0c0.3,0,0.4-0.1,0.4-0.3v-1.7h-6.9c-0.2,1.2-0.7,2.4-1.6,3.2c-0.1-0.3-0.6-0.8-0.8-0.9
			c1.3-1.3,1.5-3,1.5-4.6v-2.3c-0.8,0.9-1.6,1.8-2.6,2.4c-0.2-0.3-0.5-0.7-0.8-0.9c1.9-1.3,3.3-3.2,4.3-5.2h-4v-1.1h4.5
			c0.3-0.7,0.5-1.4,0.7-2.1l1.2,0.3c-0.2,0.6-0.4,1.2-0.6,1.8h8.2v1.1H503.7z M509.3,404.2v-1.7h-6.7v0.5c0,0.4,0,0.8,0,1.2H509.3z
			 M509.3,399.9h-6.7v1.6h6.7V399.9z"/>
		<path class="st0" d="M521.2,400.9v7.5h-1.1v-1.6c-2,0.3-3.9,0.5-5.4,0.7l-0.1-1.1c0.4,0,1-0.1,1.5-0.1v-5.4h-1.4v-1h14v1H521.2z
			 M517.7,399.1h-1.1v-4.8h10.3v4.8h-1.2v-3.9h-8V399.1z M520.1,400.9h-2.9v1.1h2.9V400.9z M520.1,402.9h-2.9v1.1h2.9V402.9z
			 M517.1,406.2c0.9-0.1,1.9-0.2,2.9-0.4v-1h-2.9V406.2z M524.9,396.9h-6.5v-0.8h6.5V396.9z M518.4,398.6v-0.8h6.5v0.8H518.4z
			 M528.2,402.2c-0.5,1.5-1.3,2.7-2.3,3.7c0.9,0.7,1.9,1.2,3.1,1.4c-0.2,0.2-0.5,0.6-0.7,0.9c-1.2-0.4-2.3-0.9-3.2-1.7
			c-1,0.8-2.1,1.3-3.2,1.7c-0.1-0.3-0.4-0.7-0.6-0.9c1.1-0.3,2.1-0.8,3.1-1.5c-0.8-0.8-1.4-1.8-1.9-2.9l0.3-0.1h-0.9v-1h5.5l0.2,0
			L528.2,402.2z M523.5,402.8c0.4,0.9,0.9,1.6,1.6,2.3c0.7-0.7,1.3-1.4,1.7-2.3H523.5z"/>
		<path class="st0" d="M535.5,394.1c-0.4,1.2-1,2.4-1.6,3.5v10.7h-1.2v-8.8c-0.4,0.6-0.9,1.2-1.3,1.8c-0.1-0.3-0.5-0.9-0.7-1.2
			c1.5-1.6,2.8-3.9,3.6-6.4L535.5,394.1z M545.3,406.6v1.2h-10.5v-1.2h4.7V404h-3.8v-1.1h3.8V401h1.2v1.8h3.9v1.1h-3.9v2.7H545.3z
			 M539.5,397h-3.4v-1.1h3.4v-2.1h1.2v2.1h3.6v1.1h-3.6v2.3h4.3v1.1h-9.7v-1.1h4.2V397z"/>
		<path class="st0" d="M550.5,402.4v4.5c0,0.7-0.2,1-0.6,1.2c-0.4,0.2-1.1,0.2-2.2,0.2c0-0.3-0.2-0.8-0.4-1.1c0.8,0,1.5,0,1.6,0
			c0.2,0,0.3-0.1,0.3-0.3v-4.1l-2,0.6l-0.4-1.2c0.7-0.2,1.5-0.4,2.4-0.6v-3.4h-2.2V397h2.2v-3.2h1.2v3.2h2v1.1h-2v3.1l1.5-0.4
			l0.2,1.1L550.5,402.4z M560.5,401.1c-0.6,1.9-1.7,3.4-3.1,4.6c1.2,0.8,2.6,1.3,4.2,1.6c-0.3,0.3-0.6,0.8-0.8,1.1
			c-1.7-0.4-3.2-1.1-4.5-2c-1.4,0.9-3,1.6-4.7,2c-0.1-0.3-0.4-0.8-0.6-1.1c1.5-0.3,3-0.9,4.3-1.7c-1.1-1-2-2.2-2.6-3.7l0.2-0.1h-0.6
			v-1.1h7.2l0.2,0L560.5,401.1z M555,396.1c0,1.4-0.4,3.1-2.4,4.3c-0.1-0.2-0.6-0.7-0.8-0.9c1.8-1,2-2.3,2-3.4v-1.8h5v3.7
			c0,0.4,0,0.6,0.3,0.6h1.2c0.2,0,0.6,0,0.8-0.1c0,0.3,0,0.8,0.1,1c-0.2,0.1-0.5,0.1-0.9,0.1h-1.3c-1.1,0-1.4-0.5-1.4-1.6v-2.6H555
			V396.1z M554,401.9c0.6,1.2,1.4,2.2,2.4,3.1c1-0.8,1.9-1.8,2.5-3.1H554z"/>
		<path class="st0" d="M568.1,398.2h-4.6v-1h4.6V398.2z M569.3,406.4c-1.3,0.8-3.3,1.5-4.9,2c-0.2-0.2-0.6-0.7-0.9-0.9
			c1.6-0.3,3.6-0.9,4.7-1.5L569.3,406.4z M567.7,395.7h-3.8v-0.9h3.8V395.7z M565.6,399.4h10.4v6.4h-10.4V399.4z M566.7,401.3h8
			v-1.1h-8V401.3z M566.7,403.2h8v-1.1h-8V403.2z M566.7,405h8v-1.1h-8V405z M570.6,395.8c-0.4,0.6-0.8,1.2-1.2,1.6
			c-0.2-0.2-0.6-0.5-0.9-0.6c0.8-0.8,1.5-1.9,1.8-3l1.1,0.2c-0.1,0.3-0.2,0.6-0.3,0.9h5.4l0.2,0l0.8,0.3c-0.4,0.8-0.9,1.7-1.3,2.3
			l-0.9-0.3c0.2-0.3,0.5-0.8,0.8-1.3h-2.5v0.2c0,0.2,0,0.3,0,0.5c0.8,1,2.6,1.6,4.7,1.8c-0.2,0.2-0.5,0.7-0.7,0.9
			c-1.8-0.3-3.4-0.9-4.4-1.9c-0.5,0.8-1.8,1.5-4.6,2c-0.1-0.3-0.4-0.7-0.6-0.9c4.1-0.6,4.5-1.6,4.5-2.5v-0.2H570.6z M573,405.9
			c1.7,0.5,3.6,1.2,4.7,1.7l-1,0.7c-1-0.5-2.8-1.2-4.5-1.8L573,405.9z"/>
		<path class="st0" d="M582.7,397.9c-0.6,1.4-1.5,2.9-2.3,3.8c-0.2-0.2-0.6-0.6-0.8-0.7c0.8-0.9,1.6-2.2,2.1-3.4L582.7,397.9z
			 M585.5,406.7c-0.3-0.7-0.9-1.5-1.6-2.4c-0.9,1.5-2,2.7-3.4,3.6c-0.2-0.2-0.6-0.7-0.8-0.9c1.4-0.9,2.6-2.1,3.5-3.7
			c-0.6-0.7-1.3-1.4-1.9-2.1l0.9-0.6c0.5,0.5,1.1,1.1,1.6,1.6c0.3-0.7,0.6-1.4,0.8-2.2l1.1,0.2c-0.3,1.1-0.7,2-1.1,2.9
			c0.8,1,1.6,1.9,2,2.7L585.5,406.7z M587.2,397.2h-7.2v-1.1h3.4c-0.2-0.6-0.7-1.3-1.1-1.9l1-0.4c0.5,0.6,1,1.4,1.2,1.9l-0.9,0.4
			h3.6V397.2z M586.1,400.8c-0.3-0.8-1-1.9-1.8-2.8l0.9-0.5c0.7,0.8,1.5,2,1.8,2.7L586.1,400.8z M593.3,397.8
			c-0.4,2.7-1,4.8-2.1,6.6c0.8,1.3,1.9,2.4,3.2,3.1c-0.3,0.2-0.6,0.7-0.8,0.9c-1.2-0.7-2.2-1.7-3-3c-0.9,1.2-2.1,2.2-3.7,3
			c-0.1-0.2-0.6-0.7-0.8-0.9c1.7-0.8,2.9-1.8,3.9-3.2c-0.6-1.2-1.1-2.5-1.5-3.9c-0.3,0.5-0.6,1-0.9,1.5c-0.2-0.2-0.5-0.7-0.8-0.9
			c1.3-1.7,2.1-4.5,2.6-7.3l1.1,0.2c-0.2,0.9-0.4,1.9-0.6,2.8h4.4v1.1H593.3z M589.5,397.8c-0.1,0.4-0.2,0.8-0.4,1.1
			c0.3,1.6,0.8,3,1.5,4.3c0.8-1.5,1.2-3.3,1.6-5.4H589.5z"/>
		<path class="st0" d="M610.4,405h-6.5v3.4h-1.2V405h-6.5v-1.1h6.5v-1.3h1.2v1.3h6.5V405z M600.4,400.9c-1.2,0.7-2.5,1.3-3.6,1.9
			l-0.6-1c1-0.4,2.5-1.1,3.9-1.8L600.4,400.9z M605.9,402.8c-0.1-0.3-0.2-0.5-0.4-0.8c-4.2,0.4-4.7,0.5-5,0.6
			c-0.1-0.2-0.2-0.8-0.4-1c0.4,0,0.8-0.4,1.3-0.8c0.3-0.3,1-0.9,1.8-1.7c-1.8,0.1-2.2,0.2-2.4,0.3c0-0.2-0.2-0.8-0.3-1
			c0.2,0,0.5-0.2,0.7-0.5c0.2-0.2,0.8-0.9,1.2-1.6h-5.8v-1.1h6.5c-0.2-0.4-0.5-0.9-0.7-1.2l1.2-0.3c0.4,0.5,0.7,1.1,0.9,1.6h5.9v1.1
			h-6.7c-0.5,0.7-1,1.4-1.5,2l2-0.1c0.4-0.4,0.8-0.9,1.1-1.3l1,0.6c-1.3,1.5-2.7,2.9-4,4l2.8-0.2c-0.3-0.4-0.5-0.7-0.8-1l0.9-0.4
			c0.7,0.8,1.5,1.9,1.8,2.7L605.9,402.8z M597.5,396.9c0.8,0.5,1.9,1.3,2.4,1.8l-0.8,0.7c-0.5-0.5-1.5-1.3-2.4-1.9L597.5,396.9z
			 M609.2,402.9c-0.7-0.6-2-1.6-3.1-2.2l0.8-0.6c1.1,0.6,2.5,1.5,3.2,2.2L609.2,402.9z M609.5,397.5c-0.7,0.7-1.6,1.5-2.4,2
			l-0.9-0.6c0.7-0.5,1.7-1.4,2.3-2L609.5,397.5z"/>
	</g>
</g>
</svg>
