<?xml version="1.0" encoding="utf-8"?>
<!-- Generator: Adobe Illustrator 26.3.1, SVG Export Plug-In . SVG Version: 6.00 Build 0)  -->
<svg version="1.1" id="content" xmlns="http://www.w3.org/2000/svg" xmlns:xlink="http://www.w3.org/1999/xlink" x="0px" y="0px"
	 viewBox="0 0 816 278" style="enable-background:new 0 0 816 278;" xml:space="preserve">
<style type="text/css">
	.st0{fill-rule:evenodd;clip-rule:evenodd;fill:#EDEDED;}
	.st1{fill-rule:evenodd;clip-rule:evenodd;fill:#CCCCCC;}
	.st2{fill:#BCBCBC;}
	.st3{fill:#2D4F7D;}
	.st4{opacity:0.3;fill-rule:evenodd;clip-rule:evenodd;fill:#99D1FF;}
	.st5{fill-rule:evenodd;clip-rule:evenodd;fill:#99D1FF;}
	.st6{fill:#57B7FF;}
	.st7{opacity:0.4;fill-rule:evenodd;clip-rule:evenodd;fill:#FF8920;}
	.st8{fill-rule:evenodd;clip-rule:evenodd;fill:#FF8920;}
	.st9{fill:#FF8920;}
	.st10{fill:#D9D9D8;}
</style>
<g>
	<polygon class="st0" points="48.3,83.7 139,83.7 139,247 48.3,247 48.3,83.7 	"/>
	<polygon class="st1" points="48.3,247 139,247 139,277.6 48.3,277.6 48.3,247 	"/>
	<g>
		<path class="st2" d="M55,13.3c-2.1,0.9-4.4,1.7-6.1,2.4L48.3,14c0.7-0.2,1.5-0.5,2.5-0.8V6.9h-2.2V5.2h2.2V0.8h1.7v4.4h2v1.7h-2
			v5.6l2.2-0.8L55,13.3z M66,15.7v1.7H54.2v-1.7h6.6c0.7-2.5,1.4-6.4,1.7-9.2l1.9,0.3c-0.5,2.9-1.2,6.5-1.9,8.9H66z M65.5,5.6H55
			V3.9h10.5V5.6z M57.5,15c-0.2-2-0.7-5.4-1.2-8l1.6-0.4c0.6,2.6,1.2,6,1.4,7.9L57.5,15z M59.6,3.9c-0.1-0.8-0.5-2.1-0.9-3l1.7-0.4
			c0.3,0.9,0.8,2.1,1,2.9L59.6,3.9z"/>
		<path class="st2" d="M73.7,12.5c-1.9,0.9-4,1.8-5.6,2.6l-0.7-1.8c0.7-0.2,1.6-0.6,2.5-0.9V6.7h-2.1V5h2.1V0.7h1.7V5h1.9v1.7h-1.9
			v5c0.6-0.2,1.2-0.5,1.8-0.7L73.7,12.5z M84.4,7.2c-0.6,2.9-1.7,5.2-3.2,7c1.1,1.1,2.5,2,4.1,2.5c-0.4,0.3-0.9,1-1.2,1.5
			c-1.6-0.6-2.9-1.6-4.1-2.8c-1.2,1.1-2.5,2-4,2.7c-0.2-0.4-0.7-1-1.1-1.3c1.4-0.6,2.8-1.5,3.9-2.6c-1-1.4-1.8-3.1-2.4-5
			c-0.5,3.7-1.3,6.6-3.2,8.9c-0.3-0.3-1.1-0.9-1.5-1.1c2.7-2.9,3.3-7.7,3.4-13.8h-1.7V1.4h7.8l0.3-0.1l1.2,0.2
			c-0.2,1.6-0.5,3.6-0.9,5.3H83l0.3-0.1L84.4,7.2z M77,3.1c0,1.3-0.1,2.6-0.2,3.7h3.4c0.2-1.2,0.5-2.6,0.7-3.7H77z M77.9,8.4
			c0.5,1.7,1.2,3.1,2.2,4.4c0.9-1.3,1.7-2.7,2.2-4.4H77.9z"/>
		<path class="st2" d="M92.5,1.1c-0.5,1.3-1.1,2.6-1.8,3.8v13.3H89V7.6c-0.6,0.7-1.1,1.5-1.7,2.1c-0.2-0.4-0.7-1.4-1-1.8
			c1.8-1.7,3.5-4.5,4.5-7.2L92.5,1.1z M97.4,15.7c-1.1,1-2.9,1.9-4.4,2.5c-0.3-0.3-1-0.9-1.4-1.2c1.5-0.4,3.2-1.2,4.1-1.9L97.4,15.7
			z M97.2,2.7h-4.5V1.6h4.5v-1H99v1h4.7v1.2H99v0.8h4.2v1.1H99v0.9h5.3v1.2H91.9V5.5h5.3V4.7h-4V3.5h4V2.7z M93.3,14.8V7.6h9.8v7.3
			H93.3z M95.1,9.7h6.2v-1h-6.2V9.7z M95.1,11.7h6.2v-1h-6.2V11.7z M95.1,13.6h6.2v-1h-6.2V13.6z M100.7,14.9
			c1.3,0.7,2.8,1.7,3.6,2.4l-1.6,1c-0.8-0.7-2.3-1.9-3.6-2.6L100.7,14.9z"/>
	</g>
	<g>
		<g>
			<path class="st3" d="M79.5,54.2v2.2h-0.3c-1.5,0-2.7,0.4-3.6,1.2S74.2,59.5,74,61c0.9-0.9,1.9-1.3,3.3-1.3c1.4,0,2.5,0.5,3.3,1.5
				c0.8,1,1.2,2.3,1.2,3.8c0,1.6-0.5,2.9-1.4,3.9c-1,1-2.2,1.5-3.7,1.5c-1.6,0-2.9-0.6-3.9-1.8s-1.5-2.7-1.5-4.6v-0.9
				c0-2.8,0.7-5,2-6.6c1.4-1.6,3.3-2.4,5.9-2.4H79.5z M76.6,61.8c-0.6,0-1.1,0.2-1.6,0.5c-0.5,0.3-0.8,0.8-1.1,1.3v0.8
				c0,1.2,0.2,2.1,0.7,2.8c0.5,0.7,1.1,1,1.9,1c0.8,0,1.4-0.3,1.9-0.9c0.5-0.6,0.7-1.4,0.7-2.3s-0.2-1.7-0.7-2.4
				S77.4,61.8,76.6,61.8z"/>
			<path class="st3" d="M85.8,67.4c0.5,0,0.9,0.1,1.1,0.4c0.3,0.3,0.4,0.6,0.4,1.1c0,0.4-0.1,0.8-0.4,1s-0.7,0.4-1.1,0.4
				c-0.5,0-0.8-0.1-1.1-0.4c-0.3-0.3-0.4-0.6-0.4-1s0.1-0.8,0.4-1.1C84.9,67.5,85.3,67.4,85.8,67.4z"/>
			<path class="st3" d="M91,62.3l0.9-8h8.6v2.3h-6.3l-0.4,3.8c0.7-0.4,1.6-0.6,2.5-0.6c1.5,0,2.7,0.5,3.5,1.5c0.8,1,1.3,2.3,1.3,3.9
				c0,1.6-0.5,2.9-1.4,3.9c-0.9,1-2.2,1.4-3.8,1.4c-1.5,0-2.7-0.4-3.6-1.2c-1-0.8-1.5-1.9-1.6-3.3h2.6c0.1,0.8,0.4,1.4,0.8,1.8
				c0.5,0.4,1,0.6,1.8,0.6c0.8,0,1.5-0.3,1.9-0.9c0.5-0.6,0.7-1.4,0.7-2.4c0-1-0.3-1.7-0.8-2.3s-1.2-0.8-2.1-0.8
				c-0.5,0-0.9,0.1-1.2,0.2c-0.3,0.1-0.7,0.4-1.1,0.7L91,62.3z"/>
			<path class="st3" d="M105,59.2c0-0.8,0.3-1.5,0.8-2s1.2-0.8,2.1-0.8c0.9,0,1.6,0.3,2.1,0.8c0.5,0.5,0.8,1.2,0.8,2.1v0.7
				c0,0.8-0.3,1.5-0.8,2c-0.5,0.5-1.2,0.8-2.1,0.8c-0.8,0-1.5-0.3-2.1-0.8s-0.8-1.2-0.8-2.1V59.2z M106.6,59.9c0,0.4,0.1,0.8,0.4,1
				s0.6,0.4,1,0.4c0.4,0,0.7-0.1,0.9-0.4c0.2-0.3,0.4-0.6,0.4-1.1v-0.7c0-0.4-0.1-0.8-0.4-1.1c-0.2-0.3-0.6-0.4-1-0.4
				s-0.7,0.1-0.9,0.4c-0.2,0.3-0.4,0.6-0.4,1.1V59.9z M108.4,69.2l-1.2-0.7l6.7-10.7l1.2,0.7L108.4,69.2z M111.6,66.8
				c0-0.8,0.3-1.5,0.8-2c0.5-0.5,1.2-0.8,2.1-0.8c0.8,0,1.5,0.3,2.1,0.8c0.5,0.5,0.8,1.2,0.8,2.1v0.7c0,0.8-0.3,1.5-0.8,2
				c-0.5,0.5-1.2,0.8-2.1,0.8s-1.6-0.3-2.1-0.8c-0.5-0.5-0.8-1.2-0.8-2.1V66.8z M113.1,67.6c0,0.4,0.1,0.8,0.4,1
				c0.2,0.3,0.6,0.4,1,0.4c0.4,0,0.7-0.1,0.9-0.4c0.2-0.3,0.3-0.6,0.3-1.1v-0.7c0-0.4-0.1-0.8-0.4-1c-0.2-0.3-0.6-0.4-0.9-0.4
				c-0.4,0-0.7,0.1-0.9,0.4s-0.4,0.6-0.4,1.1V67.6z"/>
		</g>
	</g>
	<g>
		<g>
			<path class="st3" d="M72.6,265.1h-5.7v-2.1h5.7V265.1z"/>
			<path class="st3" d="M81.8,270.8h-2.6V258l-3.9,1.3v-2.2l6.2-2.3h0.3V270.8z"/>
			<path class="st3" d="M89.2,268c0.5,0,0.9,0.1,1.1,0.4c0.3,0.3,0.4,0.6,0.4,1.1c0,0.4-0.1,0.8-0.4,1s-0.7,0.4-1.1,0.4
				c-0.5,0-0.8-0.1-1.1-0.4c-0.3-0.3-0.4-0.6-0.4-1s0.1-0.8,0.4-1.1C88.3,268.1,88.7,268,89.2,268z"/>
			<path class="st3" d="M94.4,262.9l0.9-8h8.6v2.3h-6.3l-0.4,3.8c0.7-0.4,1.6-0.6,2.5-0.6c1.5,0,2.7,0.5,3.5,1.5
				c0.8,1,1.3,2.3,1.3,3.9c0,1.6-0.5,2.9-1.4,3.9c-0.9,1-2.2,1.4-3.8,1.4c-1.5,0-2.7-0.4-3.6-1.2c-1-0.8-1.5-1.9-1.6-3.3h2.6
				c0.1,0.8,0.4,1.4,0.8,1.8c0.5,0.4,1,0.6,1.8,0.6c0.8,0,1.5-0.3,1.9-0.9c0.5-0.6,0.7-1.4,0.7-2.4c0-1-0.3-1.7-0.8-2.3
				s-1.2-0.8-2.1-0.8c-0.5,0-0.9,0.1-1.2,0.2c-0.3,0.1-0.7,0.4-1.1,0.7L94.4,262.9z"/>
			<path class="st3" d="M108.4,259.7c0-0.8,0.3-1.5,0.8-2s1.2-0.8,2.1-0.8c0.9,0,1.6,0.3,2.1,0.8c0.5,0.5,0.8,1.2,0.8,2.1v0.7
				c0,0.8-0.3,1.5-0.8,2c-0.5,0.5-1.2,0.8-2.1,0.8c-0.8,0-1.5-0.3-2.1-0.8s-0.8-1.2-0.8-2.1V259.7z M110,260.5c0,0.4,0.1,0.8,0.4,1
				s0.6,0.4,1,0.4c0.4,0,0.7-0.1,0.9-0.4c0.2-0.3,0.4-0.6,0.4-1.1v-0.7c0-0.4-0.1-0.8-0.4-1.1c-0.2-0.3-0.6-0.4-1-0.4
				s-0.7,0.1-0.9,0.4c-0.2,0.3-0.4,0.6-0.4,1.1V260.5z M111.8,269.7l-1.2-0.7l6.7-10.7l1.2,0.7L111.8,269.7z M114.9,267.4
				c0-0.8,0.3-1.5,0.8-2c0.5-0.5,1.2-0.8,2.1-0.8c0.8,0,1.5,0.3,2.1,0.8c0.5,0.5,0.8,1.2,0.8,2.1v0.7c0,0.8-0.3,1.5-0.8,2
				c-0.5,0.5-1.2,0.8-2.1,0.8s-1.6-0.3-2.1-0.8c-0.5-0.5-0.8-1.2-0.8-2.1V267.4z M116.5,268.1c0,0.4,0.1,0.8,0.4,1
				c0.2,0.3,0.6,0.4,1,0.4c0.4,0,0.7-0.1,0.9-0.4c0.2-0.3,0.3-0.6,0.3-1.1v-0.7c0-0.4-0.1-0.8-0.4-1c-0.2-0.3-0.6-0.4-0.9-0.4
				c-0.4,0-0.7,0.1-0.9,0.4s-0.4,0.6-0.4,1.1V268.1z"/>
		</g>
	</g>
	<g>
		<g>
			<path class="st3" d="M81.3,161.4c0,0.8-0.2,1.5-0.6,2.1c-0.4,0.6-0.9,1.1-1.6,1.4c0.8,0.4,1.5,0.9,1.9,1.6s0.7,1.4,0.7,2.3
				c0,1.4-0.5,2.5-1.4,3.3c-0.9,0.8-2.2,1.2-3.8,1.2c-1.6,0-2.8-0.4-3.8-1.2c-1-0.8-1.4-1.9-1.4-3.3c0-0.9,0.2-1.6,0.7-2.3
				c0.5-0.7,1.1-1.2,1.9-1.6c-0.7-0.3-1.2-0.8-1.6-1.4c-0.4-0.6-0.6-1.3-0.6-2.1c0-1.4,0.4-2.4,1.3-3.2s2.1-1.2,3.5-1.2
				c1.5,0,2.7,0.4,3.6,1.2S81.3,160,81.3,161.4z M79,168.6c0-0.8-0.2-1.4-0.7-1.9c-0.5-0.5-1.1-0.7-1.9-0.7c-0.8,0-1.4,0.2-1.9,0.7
				c-0.5,0.5-0.7,1.1-0.7,1.9c0,0.8,0.2,1.4,0.7,1.9c0.5,0.5,1.1,0.7,1.9,0.7c0.8,0,1.4-0.2,1.9-0.7S79,169.4,79,168.6z M78.7,161.5
				c0-0.7-0.2-1.3-0.6-1.7c-0.4-0.4-0.9-0.7-1.6-0.7c-0.7,0-1.2,0.2-1.6,0.6s-0.6,1-0.6,1.7c0,0.7,0.2,1.3,0.6,1.7
				c0.4,0.4,0.9,0.6,1.6,0.6c0.7,0,1.2-0.2,1.6-0.6C78.5,162.8,78.7,162.2,78.7,161.5z"/>
			<path class="st3" d="M85.8,170.3c0.5,0,0.9,0.1,1.1,0.4c0.3,0.3,0.4,0.6,0.4,1.1c0,0.4-0.1,0.8-0.4,1s-0.7,0.4-1.1,0.4
				c-0.5,0-0.8-0.1-1.1-0.4c-0.3-0.3-0.4-0.6-0.4-1s0.1-0.8,0.4-1.1C85,170.4,85.3,170.3,85.8,170.3z"/>
			<path class="st3" d="M100.7,166.4c0,2.3-0.4,4-1.3,5.2c-0.9,1.2-2.2,1.7-3.9,1.7c-1.7,0-3-0.6-3.9-1.7c-0.9-1.1-1.3-2.8-1.3-5
				v-2.8c0-2.3,0.4-4,1.3-5.2c0.9-1.1,2.2-1.7,3.9-1.7c1.7,0,3,0.6,3.9,1.7c0.9,1.1,1.3,2.8,1.3,5V166.4z M98.1,163.4
				c0-1.5-0.2-2.6-0.6-3.3c-0.4-0.7-1.1-1-1.9-1c-0.9,0-1.5,0.3-1.9,1c-0.4,0.7-0.6,1.7-0.6,3.1v3.6c0,1.5,0.2,2.6,0.6,3.3
				c0.4,0.7,1.1,1.1,2,1.1c0.9,0,1.5-0.3,1.9-1c0.4-0.7,0.6-1.7,0.6-3.2V163.4z"/>
			<path class="st3" d="M105.1,162.1c0-0.8,0.3-1.5,0.8-2s1.2-0.8,2.1-0.8c0.9,0,1.6,0.3,2.1,0.8c0.5,0.5,0.8,1.2,0.8,2.1v0.7
				c0,0.8-0.3,1.5-0.8,2c-0.5,0.5-1.2,0.8-2.1,0.8c-0.8,0-1.5-0.3-2.1-0.8s-0.8-1.2-0.8-2.1V162.1z M106.7,162.8
				c0,0.4,0.1,0.8,0.4,1s0.6,0.4,1,0.4c0.4,0,0.7-0.1,0.9-0.4c0.2-0.3,0.4-0.6,0.4-1.1v-0.7c0-0.4-0.1-0.8-0.4-1.1
				c-0.2-0.3-0.6-0.4-1-0.4s-0.7,0.1-0.9,0.4c-0.2,0.3-0.4,0.6-0.4,1.1V162.8z M108.4,172.1l-1.2-0.7l6.7-10.7l1.2,0.7L108.4,172.1z
				 M111.6,169.8c0-0.8,0.3-1.5,0.8-2c0.5-0.5,1.2-0.8,2.1-0.8c0.8,0,1.5,0.3,2.1,0.8c0.5,0.5,0.8,1.2,0.8,2.1v0.7
				c0,0.8-0.3,1.5-0.8,2c-0.5,0.5-1.2,0.8-2.1,0.8s-1.6-0.3-2.1-0.8c-0.5-0.5-0.8-1.2-0.8-2.1V169.8z M113.2,170.5
				c0,0.4,0.1,0.8,0.4,1c0.2,0.3,0.6,0.4,1,0.4c0.4,0,0.7-0.1,0.9-0.4c0.2-0.3,0.3-0.6,0.3-1.1v-0.7c0-0.4-0.1-0.8-0.4-1
				c-0.2-0.3-0.6-0.4-0.9-0.4c-0.4,0-0.7,0.1-0.9,0.4s-0.4,0.6-0.4,1.1V170.5z"/>
		</g>
	</g>
	<g>
		<g>
			<path class="st3" d="M157.5,159.9c-0.4,1.1-0.9,2.1-1.5,3.1v10.2H155v-8.5c-0.5,0.7-1,1.3-1.5,1.9c-0.1-0.2-0.4-0.8-0.6-1.1
				c1.5-1.4,2.9-3.6,3.7-5.9L157.5,159.9z M161.3,171.3c-0.9,0.8-2.3,1.5-3.5,1.9c-0.2-0.2-0.6-0.6-0.9-0.8c1.2-0.4,2.6-0.9,3.3-1.6
				L161.3,171.3z M166.8,163.5v0.8h-9.8v-0.8h4.3v-0.8h-3.3v-0.8h3.3v-0.8h-3.7v-0.8h3.7v-0.8h1.1v0.8h3.8v0.8h-3.8v0.8h3.5v0.8
				h-3.5v0.8H166.8z M165.9,170.6h-7.6V165h7.6V170.6z M164.8,165.7h-5.4v0.9h5.4V165.7z M164.8,167.3h-5.4v0.9h5.4V167.3z
				 M164.8,168.9h-5.4v0.9h5.4V168.9z M163.9,170.8c1,0.6,2.3,1.4,2.9,1.9l-1,0.6c-0.6-0.6-1.9-1.4-2.9-2L163.9,170.8z"/>
			<path class="st3" d="M168.5,172c0.6-0.8,1.2-2.1,1.5-3l1,0.4c-0.4,0.9-0.9,2.2-1.5,3.1L168.5,172z M174.9,168h-4.2v-7.1h3.5
				c0.2-0.5,0.5-1.1,0.6-1.5l1.3,0.2c-0.2,0.5-0.5,0.9-0.7,1.3h4.5v7.1H174.9c0.9,0.7,1.7,1.6,2.1,2.2l-0.9,0.6
				c-0.4-0.7-1.2-1.7-2-2.4L174.9,168z M177.3,171.9c0.8,0,0.9-0.2,1-1.7c0.3,0.2,0.7,0.4,1,0.4c-0.1,1.9-0.5,2.4-2,2.4h-3.4
				c-1.7,0-2.2-0.3-2.2-1.5V169h1.1v2.4c0,0.4,0.2,0.5,1.1,0.5H177.3z M171.8,163h6.9v-1.2h-6.9V163z M171.8,165.1h6.9v-1.2h-6.9
				V165.1z M171.8,167.1h6.9v-1.2h-6.9V167.1z M180.2,168.8c0.7,0.9,1.4,2.1,1.7,3l-1,0.5c-0.3-0.8-1-2.1-1.7-3L180.2,168.8z"/>
			<path class="st3" d="M187.7,169.2h2.7v1h-2.7v3h-1v-3h-2.8v-1h2.8v-1.6h-2.5v-1h1.4c-0.1-0.5-0.4-1.3-0.7-1.8l0.8-0.2
				c0.3,0.5,0.7,1.3,0.8,1.8l-0.7,0.3h1.9c0.4-0.6,0.8-1.5,1-2.1l1,0.3c-0.3,0.6-0.7,1.3-1,1.9h1.5v1h-2.4V169.2z M190.3,164.5h-6.5
				v-1h2.8V162h-2.4v-1h2.4v-1.5h1v1.5h2.3v1h-2.3v1.5h2.6V164.5z M197.1,165.5c-0.3,1.8-0.9,3.4-1.8,4.9c0.7,0.8,1.5,1.5,2.4,1.9
				c-0.3,0.2-0.6,0.6-0.8,0.9c-0.8-0.5-1.6-1.1-2.2-1.9c-0.6,0.8-1.4,1.5-2.2,2c-0.1-0.2-0.3-0.4-0.5-0.6v0.5h-1v-13h5.8v2.9
				c0,0.6-0.1,0.9-0.6,1s-1.2,0.2-2.4,0.2c0-0.3-0.2-0.7-0.3-1c0.9,0,1.7,0,1.9,0c0.2,0,0.3-0.1,0.3-0.2v-1.8h-3.8v4h4.3l0.2,0
				L197.1,165.5z M191.9,172.3c0.8-0.5,1.5-1.2,2-2c-0.8-1.2-1.5-2.6-1.9-4.2h-0.1V172.3z M193,166.2c0.4,1.2,0.9,2.3,1.5,3.2
				c0.6-1,1-2.1,1.3-3.2H193z"/>
			<path class="st3" d="M199.1,160.2h5.6v0.9H203v1.9h1.5v9.9h-0.8v-0.8h-3.4v1h-0.8V163h1.4v-1.9h-1.7V160.2z M203.6,171.2v-4h0
				H203c-0.6,0-0.8-0.1-0.8-0.8V164h-0.7v1.2c0,0.9-0.2,2.1-1,2.9c-0.1-0.1-0.2-0.2-0.4-0.3v3.5H203.6z M200.2,164v3.6
				c0.6-0.7,0.7-1.6,0.7-2.3V164H200.2z M200.7,168.8h2.4v0.9h-2.4V168.8z M202.2,161.1h-0.7v1.9h0.7V161.1z M203.6,164h-0.8v2.4
				c0,0.2,0,0.2,0.2,0.2h0.4c0.1,0,0.1,0,0.1,0V164z M206.3,159.9h0.9v6c0,2.8-0.2,5.4-1.8,7.5c-0.2-0.2-0.6-0.5-0.8-0.6
				c1.2-1.5,1.5-3.3,1.6-5.3l-0.7,0.3c-0.1-0.9-0.4-2.3-0.8-3.4l0.7-0.3c0.4,1,0.7,2.4,0.9,3.3c0-0.5,0-1,0-1.4V159.9z M212.2,159.8
				v13.4h-1v-6l-0.6,0.3c-0.2-0.9-0.6-2.1-1-3.2v8.6h-0.9v-5.7l-0.7,0.3c-0.1-0.9-0.5-2.3-0.8-3.3l0.6-0.3c0.4,1,0.7,2.2,0.8,3.1v-7
				h0.9v4l0.6-0.3c0.4,0.9,0.8,1.9,1,2.8v-6.7H212.2z"/>
		</g>
	</g>
	<g>
		<g>
			<path class="st3" d="M166.4,66.9h-5.4v3.4h-1.1v-3.4h-6.9v-1.1h2.5v-4h4.5v-2.3h-3.6c-0.7,1.2-1.5,2.2-2.3,3
				c-0.2-0.2-0.7-0.6-1-0.7c1.4-1.2,2.7-3.2,3.4-5.2l1.1,0.3c-0.2,0.5-0.5,1.1-0.7,1.6h8.9v1.1h-4.7v2.3h4.4v1h-4.4v3h5.4V66.9z
				 M159.8,65.8v-3h-3.4v3H159.8z"/>
			<path class="st3" d="M173.1,57c-0.4,1-0.9,1.9-1.5,2.8v10.5h-1.1v-8.9c-0.6,0.9-1.3,1.6-2,2.3c-0.1-0.3-0.4-0.8-0.6-1.1
				c1.6-1.4,3.2-3.6,4.2-5.9L173.1,57z M179.5,68.8c0.8,0,1-0.7,1.1-3.2c0.3,0.2,0.7,0.4,1,0.5c-0.2,2.8-0.5,3.7-2.1,3.7h-2.8
				c-1.5,0-2-0.4-2-2V56.8h1.1v4.1h5.3V62h-5.3v5.8c0,0.8,0.2,1,0.9,1H179.5z"/>
			<path class="st3" d="M187.3,66.3h2.7v1h-2.7v3h-1v-3h-2.8v-1h2.8v-1.6h-2.5v-1h1.4c-0.1-0.5-0.4-1.3-0.7-1.8l0.8-0.2
				c0.3,0.5,0.7,1.3,0.8,1.8l-0.7,0.3h1.9c0.4-0.6,0.8-1.5,1-2.1l1,0.3c-0.3,0.6-0.7,1.3-1,1.9h1.5v1h-2.4V66.3z M189.9,61.6h-6.5
				v-1h2.8v-1.5h-2.4v-1h2.4v-1.5h1v1.5h2.3v1h-2.3v1.5h2.6V61.6z M196.7,62.5c-0.3,1.8-0.9,3.4-1.8,4.9c0.7,0.8,1.5,1.5,2.4,1.9
				c-0.3,0.2-0.6,0.6-0.8,0.9c-0.8-0.5-1.6-1.1-2.2-1.9c-0.6,0.8-1.4,1.5-2.2,2c-0.1-0.2-0.3-0.4-0.5-0.6v0.5h-1v-13h5.8v2.9
				c0,0.6-0.1,0.9-0.6,1s-1.2,0.2-2.4,0.2c0-0.3-0.2-0.7-0.3-1c0.9,0,1.7,0,1.9,0c0.2,0,0.3-0.1,0.3-0.2v-1.8h-3.8v4h4.3l0.2,0
				L196.7,62.5z M191.5,69.4c0.8-0.5,1.5-1.2,2-2c-0.8-1.2-1.5-2.6-1.9-4.2h-0.1V69.4z M192.6,63.3c0.4,1.2,0.9,2.3,1.5,3.2
				c0.6-1,1-2.1,1.3-3.2H192.6z"/>
			<path class="st3" d="M198.7,57.3h5.6v0.9h-1.7v1.9h1.5V70h-0.8v-0.8h-3.4v1H199V60.1h1.4v-1.9h-1.7V57.3z M203.2,68.3v-4h0h-0.6
				c-0.6,0-0.8-0.1-0.8-0.8V61h-0.7v1.2c0,0.9-0.2,2.1-1,2.9c-0.1-0.1-0.2-0.2-0.4-0.3v3.5H203.2z M199.8,61v3.6
				c0.6-0.7,0.7-1.6,0.7-2.3V61H199.8z M200.3,65.9h2.4v0.9h-2.4V65.9z M201.8,58.2h-0.7v1.9h0.7V58.2z M203.2,61h-0.8v2.4
				c0,0.2,0,0.2,0.2,0.2h0.4c0.1,0,0.1,0,0.1,0V61z M205.9,56.9h0.9v6c0,2.8-0.2,5.4-1.8,7.5c-0.2-0.2-0.6-0.5-0.8-0.6
				c1.2-1.5,1.5-3.3,1.6-5.3l-0.7,0.3c-0.1-0.9-0.4-2.3-0.8-3.4L205,61c0.4,1,0.7,2.4,0.9,3.3c0-0.5,0-1,0-1.4V56.9z M211.8,56.9
				v13.4h-1v-6l-0.6,0.3c-0.2-0.9-0.6-2.1-1-3.2V70h-0.9v-5.7l-0.7,0.3c-0.1-0.9-0.5-2.3-0.8-3.3l0.6-0.3c0.4,1,0.7,2.2,0.8,3.1v-7
				h0.9v4l0.6-0.3c0.4,0.9,0.8,1.9,1,2.8v-6.7H211.8z"/>
			<path class="st3" d="M227.5,67.1h-6.1v3.2h-1.2v-3.2h-6.1v-1h6.1v-1.2h1.2v1.2h6.1V67.1z M218.1,63.2c-1.1,0.6-2.4,1.3-3.3,1.8
				l-0.6-0.9c0.9-0.4,2.3-1,3.7-1.7L218.1,63.2z M223.2,65.1c-0.1-0.2-0.2-0.5-0.4-0.8c-3.9,0.4-4.4,0.4-4.7,0.6
				c-0.1-0.2-0.2-0.7-0.3-1c0.3,0,0.7-0.3,1.2-0.7c0.3-0.2,0.9-0.8,1.6-1.6c-1.7,0.1-2.1,0.2-2.3,0.3c0-0.2-0.2-0.7-0.3-0.9
				c0.2,0,0.4-0.2,0.7-0.5c0.2-0.2,0.7-0.8,1.2-1.5h-5.5v-1h6.1c-0.2-0.4-0.5-0.8-0.7-1.2l1.1-0.3c0.3,0.4,0.7,1,0.9,1.5h5.6v1h-6.3
				c-0.5,0.7-0.9,1.3-1.4,1.8l1.9-0.1c0.3-0.4,0.7-0.8,1-1.2l0.9,0.5c-1.2,1.4-2.5,2.7-3.8,3.7l2.6-0.2c-0.2-0.3-0.5-0.7-0.7-1
				l0.8-0.3c0.7,0.8,1.4,1.8,1.7,2.5L223.2,65.1z M215.4,59.6c0.8,0.5,1.8,1.2,2.3,1.7l-0.8,0.7c-0.5-0.5-1.4-1.3-2.2-1.8
				L215.4,59.6z M226.4,65.1c-0.6-0.6-1.9-1.5-2.9-2.1l0.8-0.6c1,0.6,2.3,1.4,3,2L226.4,65.1z M226.6,60.1c-0.7,0.7-1.5,1.4-2.2,1.9
				l-0.8-0.5c0.7-0.5,1.6-1.3,2.1-1.9L226.6,60.1z"/>
		</g>
	</g>
	<g>
		<g>
			<path class="st3" d="M157.2,260.3h-4.3v-0.9h4.3V260.3z M158.4,268.1c-1.2,0.7-3.1,1.4-4.6,1.8c-0.2-0.2-0.6-0.6-0.8-0.8
				c1.5-0.3,3.3-0.9,4.4-1.4L158.4,268.1z M156.8,258h-3.6v-0.9h3.6V258z M154.9,261.5h9.7v6h-9.7V261.5z M155.9,263.3h7.5v-1h-7.5
				V263.3z M155.9,265h7.5v-1h-7.5V265z M155.9,266.8h7.5v-1.1h-7.5V266.8z M159.5,258.1c-0.3,0.6-0.7,1.1-1.1,1.5
				c-0.2-0.2-0.6-0.4-0.8-0.6c0.8-0.7,1.4-1.8,1.7-2.9l1,0.2c-0.1,0.3-0.2,0.6-0.3,0.8h5l0.2,0l0.8,0.3c-0.4,0.8-0.9,1.6-1.3,2.2
				l-0.9-0.3c0.2-0.3,0.5-0.8,0.7-1.2h-2.4v0.2c0,0.2,0,0.3,0,0.5c0.8,0.9,2.4,1.5,4.4,1.7c-0.2,0.2-0.5,0.6-0.6,0.9
				c-1.7-0.2-3.2-0.8-4.1-1.8c-0.5,0.7-1.7,1.4-4.3,1.8c-0.1-0.2-0.4-0.6-0.6-0.8c3.9-0.5,4.2-1.5,4.2-2.3v-0.2H159.5z M161.8,267.6
				c1.6,0.5,3.4,1.1,4.4,1.6l-1,0.6c-1-0.5-2.6-1.1-4.2-1.7L161.8,267.6z"/>
			<path class="st3" d="M176.8,260.5c1.1,2.5,3,4.9,5,6.1c-0.3,0.2-0.7,0.6-0.9,0.9c-2.2-1.4-4.2-4.1-5.3-7h-0.2v5.5h3.5v1.1h-3.5
				v2.8h-1.2v-2.8h-3.5V266h3.5v-5.5h-0.2c-1.2,2.9-3.1,5.6-5.2,7.1c-0.2-0.3-0.5-0.7-0.8-0.9c2-1.2,3.8-3.6,4.9-6.2h-4.5v-1.1h5.9
				v-3.1h1.2v3.1h5.9v1.1H176.8z"/>
			<path class="st3" d="M187.8,260.7h3.1v1h-3.1v0.4c0.7,0.7,2.4,2.4,2.9,2.8l-0.7,0.9c-0.5-0.6-1.5-1.7-2.2-2.5v6.5h-1.1v-6.4
				c-0.8,1.7-1.8,3.4-2.8,4.4c-0.1-0.3-0.4-0.8-0.6-1c1.2-1.1,2.5-3.2,3.2-5.1h-2.9v-1h3.2v-2.5c-1,0.2-2,0.3-2.9,0.5
				c0-0.3-0.2-0.6-0.3-0.9c2.2-0.3,4.8-0.8,6.2-1.5l0.8,0.9c-0.7,0.3-1.7,0.6-2.7,0.8V260.7z M193.2,266.2h-1.1V258h1.1V266.2z
				 M196.3,256.4v12c0,0.8-0.2,1.1-0.7,1.3c-0.5,0.2-1.3,0.2-2.7,0.2c-0.1-0.3-0.2-0.8-0.4-1.1c1,0,2,0,2.3,0c0.3,0,0.4-0.1,0.4-0.4
				v-12H196.3z"/>
			<path class="st3" d="M201.9,264.2v4.3c0,0.6-0.1,0.9-0.5,1.1c-0.4,0.2-1,0.2-2,0.2c0-0.3-0.2-0.7-0.3-1c0.7,0,1.3,0,1.5,0
				c0.2,0,0.3-0.1,0.3-0.3v-4l-2,0.6l-0.3-1.1c0.6-0.2,1.5-0.4,2.3-0.6v-3.2h-2.1v-1h2.1v-3h1.1v3h1.7v1h-1.7v2.9l1.7-0.5l0.1,1
				L201.9,264.2z M206.1,267.3l1,0.6c-0.9,0.8-2.3,1.5-3.5,2c-0.2-0.2-0.5-0.6-0.8-0.8C204,268.7,205.3,268,206.1,267.3h-1.7v-6.6
				h7.4v6.6H206.1z M211.3,259.9h-6.6v-3.2h6.6V259.9z M205.4,262.7h5.2v-1.1h-5.2V262.7z M205.4,264.6h5.2v-1.1h-5.2V264.6z
				 M205.4,266.5h5.2v-1.1h-5.2V266.5z M210.3,257.6h-4.5v1.5h4.5V257.6z M209.6,267.4c1.1,0.6,2.2,1.4,2.9,2l-1.1,0.6
				c-0.6-0.6-1.7-1.4-2.6-1.9L209.6,267.4z"/>
		</g>
	</g>
	<polygon class="st4" points="302.3,102.2 393,102.2 393,243 302.3,243 302.3,102.2 	"/>
	<polygon class="st5" points="302.3,243 393,243 393,247.1 302.3,247.1 302.3,243 	"/>
	<g>
		<path class="st6" d="M305.4,12.8c-0.5,1.3-1.2,2.9-1.9,3.9c-0.3-0.2-0.9-0.7-1.2-0.8c0.7-0.9,1.4-2.2,1.8-3.4L305.4,12.8z
			 M307.9,11.6v6.5h-1.7v-6.5h-3.7V10h3.7V8.3h-3.8V6.8h2.1c-0.1-0.7-0.3-1.7-0.7-2.4l1.5-0.4c0.3,0.7,0.6,1.7,0.7,2.4l-1.4,0.4h3
			c0.3-0.8,0.7-2,0.9-2.8l1.7,0.3c-0.3,0.8-0.7,1.7-1,2.4h2.2v1.5h-3.5V10h3.3v1.5H307.9z M311.1,4h-8.4V2.5h3.5
			c-0.2-0.5-0.5-1.2-0.7-1.6l1.8-0.5c0.3,0.7,0.7,1.5,1,2.1h2.9V4z M309.8,12.2c0.6,0.9,1.3,2.1,1.6,2.9l-1.2,0.7
			c-0.3-0.8-1-2.1-1.5-3L309.8,12.2z M319.9,8.6h-2v9.5h-1.7V8.6h-2.2V9c0,2.8-0.2,6.6-2,9c-0.3-0.3-1-0.9-1.4-1.1
			c1.5-2.2,1.7-5.5,1.7-8V2.4c2.1-0.4,4.5-1,5.9-1.6l1.4,1.3c-1.6,0.6-3.6,1.1-5.6,1.4v3.4h6V8.6z"/>
		<path class="st6" d="M338.9,12v1.7h-17.2V12h1.5l-0.3-10.1c1.1-0.3,2.4-0.8,3.2-1.2l0.8,1.5c-0.8,0.3-1.6,0.5-2.5,0.7l0.1,2h1.9
			v1.4h-1.9l0.1,2.1h1.9V10h-1.9l0.1,2.1h2.3V1.5h6.7V12h2.3c0-0.6,0.1-1.3,0.1-2h-1.9V8.6h2c0-0.7,0-1.4,0.1-2.1h-1.9V5.1h1.9
			c0-0.7,0-1.5,0-2.2h-2.1V1.4h3.6c0,3.4-0.2,7.7-0.3,10.7H338.9z M328.5,15c-1.6,1.1-3.9,2.4-5.8,3.2c-0.2-0.4-0.7-1-1-1.3
			c1.8-0.7,4.1-2,5.3-3L328.5,15z M328.2,12h4.1V2.9h-4.1V12z M331.8,4v1.2h-3.1V4H331.8z M328.9,6.3h2.8v4.4h-2.8V6.3z M329.7,9.6
			h1.2V7.4h-1.2V9.6z M333,13.7c2,0.9,4.2,2.1,5.5,3l-1.2,1.3c-1.3-0.9-3.4-2.1-5.4-3.1L333,13.7z"/>
		<path class="st6" d="M346.4,1.1c-0.5,1.3-1.1,2.6-1.8,3.8v13.3h-1.7V7.6c-0.6,0.7-1.1,1.5-1.7,2.1c-0.2-0.4-0.7-1.4-1-1.8
			c1.8-1.7,3.5-4.5,4.5-7.2L346.4,1.1z M351.4,15.7c-1.1,1-2.9,1.9-4.4,2.5c-0.3-0.3-1-0.9-1.4-1.2c1.5-0.4,3.2-1.2,4.1-1.9
			L351.4,15.7z M351.1,2.7h-4.5V1.6h4.5v-1h1.8v1h4.7v1.2h-4.7v0.8h4.2v1.1h-4.2v0.9h5.3v1.2h-12.4V5.5h5.3V4.7h-4V3.5h4V2.7z
			 M347.3,14.8V7.6h9.8v7.3H347.3z M349,9.7h6.2v-1H349V9.7z M349,11.7h6.2v-1H349V11.7z M349,13.6h6.2v-1H349V13.6z M354.6,14.9
			c1.3,0.7,2.8,1.7,3.6,2.4l-1.6,1c-0.8-0.7-2.3-1.9-3.6-2.6L354.6,14.9z"/>
	</g>
	<g>
		<g>
			<path class="st3" d="M335.8,55.7l-6.4,14.4h-2.8l6.4-13.8h-8.2v-2.1h11V55.7z"/>
			<path class="st3" d="M339.8,67.4c0.5,0,0.9,0.1,1.1,0.4c0.3,0.3,0.4,0.6,0.4,1.1c0,0.4-0.1,0.8-0.4,1s-0.7,0.4-1.1,0.4
				c-0.5,0-0.8-0.1-1.1-0.4c-0.3-0.3-0.4-0.6-0.4-1s0.1-0.8,0.4-1.1C338.9,67.5,339.3,67.4,339.8,67.4z"/>
			<path class="st3" d="M354.6,63.5c0,2.3-0.4,4-1.3,5.2c-0.9,1.2-2.2,1.7-3.9,1.7c-1.7,0-3-0.6-3.9-1.7c-0.9-1.1-1.3-2.8-1.3-5
				v-2.8c0-2.3,0.4-4,1.3-5.2c0.9-1.1,2.2-1.7,3.9-1.7c1.7,0,3,0.6,3.9,1.7c0.9,1.1,1.3,2.8,1.3,5V63.5z M352,60.5
				c0-1.5-0.2-2.6-0.6-3.3c-0.4-0.7-1.1-1-1.9-1c-0.9,0-1.5,0.3-1.9,1c-0.4,0.7-0.6,1.7-0.6,3.1v3.6c0,1.5,0.2,2.6,0.6,3.3
				c0.4,0.7,1.1,1.1,2,1.1c0.9,0,1.5-0.3,1.9-1c0.4-0.7,0.6-1.7,0.6-3.2V60.5z"/>
			<path class="st3" d="M359,59.2c0-0.8,0.3-1.5,0.8-2s1.2-0.8,2.1-0.8c0.9,0,1.6,0.3,2.1,0.8c0.5,0.5,0.8,1.2,0.8,2.1v0.7
				c0,0.8-0.3,1.5-0.8,2c-0.5,0.5-1.2,0.8-2.1,0.8c-0.8,0-1.5-0.3-2.1-0.8s-0.8-1.2-0.8-2.1V59.2z M360.6,59.9c0,0.4,0.1,0.8,0.4,1
				s0.6,0.4,1,0.4c0.4,0,0.7-0.1,0.9-0.4c0.2-0.3,0.4-0.6,0.4-1.1v-0.7c0-0.4-0.1-0.8-0.4-1.1c-0.2-0.3-0.6-0.4-1-0.4
				s-0.7,0.1-0.9,0.4c-0.2,0.3-0.4,0.6-0.4,1.1V59.9z M362.4,69.2l-1.2-0.7l6.7-10.7l1.2,0.7L362.4,69.2z M365.5,66.8
				c0-0.8,0.3-1.5,0.8-2c0.5-0.5,1.2-0.8,2.1-0.8c0.8,0,1.5,0.3,2.1,0.8c0.5,0.5,0.8,1.2,0.8,2.1v0.7c0,0.8-0.3,1.5-0.8,2
				c-0.5,0.5-1.2,0.8-2.1,0.8s-1.6-0.3-2.1-0.8c-0.5-0.5-0.8-1.2-0.8-2.1V66.8z M367.1,67.6c0,0.4,0.1,0.8,0.4,1
				c0.2,0.3,0.6,0.4,1,0.4c0.4,0,0.7-0.1,0.9-0.4c0.2-0.3,0.3-0.6,0.3-1.1v-0.7c0-0.4-0.1-0.8-0.4-1c-0.2-0.3-0.6-0.4-0.9-0.4
				c-0.4,0-0.7,0.1-0.9,0.4s-0.4,0.6-0.4,1.1V67.6z"/>
		</g>
	</g>
	<g>
		<g>
			<path class="st3" d="M335.3,264.1c0,2.3-0.4,4-1.3,5.2c-0.9,1.2-2.2,1.7-3.9,1.7c-1.7,0-3-0.6-3.9-1.7c-0.9-1.1-1.3-2.8-1.3-5
				v-2.8c0-2.3,0.4-4,1.3-5.2c0.9-1.1,2.2-1.7,3.9-1.7c1.7,0,3,0.6,3.9,1.7c0.9,1.1,1.3,2.8,1.3,5V264.1z M332.6,261.1
				c0-1.5-0.2-2.6-0.6-3.3c-0.4-0.7-1.1-1-1.9-1c-0.9,0-1.5,0.3-1.9,1c-0.4,0.7-0.6,1.7-0.6,3.1v3.6c0,1.5,0.2,2.6,0.6,3.3
				c0.4,0.7,1.1,1.1,2,1.1c0.9,0,1.5-0.3,1.9-1c0.4-0.7,0.6-1.7,0.6-3.2V261.1z"/>
			<path class="st3" d="M339.5,268c0.5,0,0.9,0.1,1.1,0.4c0.3,0.3,0.4,0.6,0.4,1.1c0,0.4-0.1,0.8-0.4,1s-0.7,0.4-1.1,0.4
				c-0.5,0-0.8-0.1-1.1-0.4c-0.3-0.3-0.4-0.6-0.4-1s0.1-0.8,0.4-1.1C338.6,268.1,339,268,339.5,268z"/>
			<path class="st3" d="M354.7,270.8H344v-1.8l5.3-5.8c0.8-0.9,1.3-1.6,1.6-2.1s0.5-1.1,0.5-1.7c0-0.8-0.2-1.4-0.6-1.8
				c-0.4-0.5-1-0.7-1.7-0.7c-0.9,0-1.5,0.3-2,0.8c-0.5,0.5-0.7,1.2-0.7,2.2h-2.7c0-1,0.2-1.8,0.7-2.6c0.4-0.8,1.1-1.4,1.9-1.8
				c0.8-0.4,1.8-0.6,2.8-0.6c1.5,0,2.8,0.4,3.7,1.2c0.9,0.8,1.3,1.8,1.3,3.2c0,0.8-0.2,1.6-0.7,2.5c-0.4,0.9-1.2,1.9-2.2,3l-3.9,4.2
				h7.4V270.8z"/>
			<path class="st3" d="M358.7,259.7c0-0.8,0.3-1.5,0.8-2s1.2-0.8,2.1-0.8c0.9,0,1.6,0.3,2.1,0.8c0.5,0.5,0.8,1.2,0.8,2.1v0.7
				c0,0.8-0.3,1.5-0.8,2c-0.5,0.5-1.2,0.8-2.1,0.8c-0.8,0-1.5-0.3-2.1-0.8s-0.8-1.2-0.8-2.1V259.7z M360.3,260.5
				c0,0.4,0.1,0.8,0.4,1s0.6,0.4,1,0.4c0.4,0,0.7-0.1,0.9-0.4c0.2-0.3,0.4-0.6,0.4-1.1v-0.7c0-0.4-0.1-0.8-0.4-1.1
				c-0.2-0.3-0.6-0.4-1-0.4s-0.7,0.1-0.9,0.4c-0.2,0.3-0.4,0.6-0.4,1.1V260.5z M362.1,269.7l-1.2-0.7l6.7-10.7l1.2,0.7L362.1,269.7z
				 M365.3,267.4c0-0.8,0.3-1.5,0.8-2c0.5-0.5,1.2-0.8,2.1-0.8c0.8,0,1.5,0.3,2.1,0.8c0.5,0.5,0.8,1.2,0.8,2.1v0.7
				c0,0.8-0.3,1.5-0.8,2c-0.5,0.5-1.2,0.8-2.1,0.8s-1.6-0.3-2.1-0.8c-0.5-0.5-0.8-1.2-0.8-2.1V267.4z M366.9,268.1
				c0,0.4,0.1,0.8,0.4,1c0.2,0.3,0.6,0.4,1,0.4c0.4,0,0.7-0.1,0.9-0.4c0.2-0.3,0.3-0.6,0.3-1.1v-0.7c0-0.4-0.1-0.8-0.4-1
				c-0.2-0.3-0.6-0.4-0.9-0.4c-0.4,0-0.7,0.1-0.9,0.4s-0.4,0.6-0.4,1.1V268.1z"/>
		</g>
	</g>
	<g>
		<g>
			<path class="st3" d="M333.5,157.1v2.2h-0.3c-1.5,0-2.7,0.4-3.6,1.2s-1.4,1.9-1.6,3.4c0.9-0.9,1.9-1.3,3.3-1.3
				c1.4,0,2.5,0.5,3.3,1.5c0.8,1,1.2,2.3,1.2,3.8c0,1.6-0.5,2.9-1.4,3.9c-1,1-2.2,1.5-3.7,1.5c-1.6,0-2.9-0.6-3.9-1.8
				s-1.5-2.7-1.5-4.6V166c0-2.8,0.7-5,2-6.6c1.4-1.6,3.3-2.4,5.9-2.4H333.5z M330.7,164.7c-0.6,0-1.1,0.2-1.6,0.5
				c-0.5,0.3-0.8,0.8-1.1,1.3v0.8c0,1.2,0.2,2.1,0.7,2.8c0.5,0.7,1.1,1,1.9,1c0.8,0,1.4-0.3,1.9-0.9c0.5-0.6,0.7-1.4,0.7-2.3
				s-0.2-1.7-0.7-2.4S331.5,164.7,330.7,164.7z"/>
			<path class="st3" d="M339.8,170.3c0.5,0,0.9,0.1,1.1,0.4c0.3,0.3,0.4,0.6,0.4,1.1c0,0.4-0.1,0.8-0.4,1s-0.7,0.4-1.1,0.4
				c-0.5,0-0.8-0.1-1.1-0.4c-0.3-0.3-0.4-0.6-0.4-1s0.1-0.8,0.4-1.1C339,170.4,339.3,170.3,339.8,170.3z"/>
			<path class="st3" d="M351.9,166.4c-0.9,0.9-1.9,1.4-3.1,1.4c-1.4,0-2.5-0.5-3.3-1.5c-0.8-1-1.2-2.3-1.2-3.9c0-1,0.2-2,0.6-2.9
				c0.4-0.9,1-1.5,1.8-2s1.7-0.7,2.7-0.7c1.6,0,2.9,0.6,3.8,1.8c0.9,1.2,1.4,2.8,1.4,4.8v0.7c0,2.9-0.6,5.1-1.9,6.6
				c-1.3,1.5-3.2,2.3-5.8,2.3h-0.3V171h0.4c1.6,0,2.8-0.4,3.6-1.1C351.3,169.1,351.8,168,351.9,166.4z M349.3,165.8
				c0.5,0,1-0.2,1.5-0.5c0.5-0.3,0.8-0.7,1.1-1.3v-1c0-1.2-0.2-2.1-0.7-2.8c-0.5-0.7-1.1-1.1-1.9-1.1s-1.4,0.3-1.8,0.9
				c-0.5,0.6-0.7,1.4-0.7,2.4c0,1,0.2,1.8,0.7,2.4C347.9,165.5,348.6,165.8,349.3,165.8z"/>
			<path class="st3" d="M359,162.1c0-0.8,0.3-1.5,0.8-2s1.2-0.8,2.1-0.8c0.9,0,1.6,0.3,2.1,0.8c0.5,0.5,0.8,1.2,0.8,2.1v0.7
				c0,0.8-0.3,1.5-0.8,2c-0.5,0.5-1.2,0.8-2.1,0.8c-0.8,0-1.5-0.3-2.1-0.8s-0.8-1.2-0.8-2.1V162.1z M360.6,162.8
				c0,0.4,0.1,0.8,0.4,1s0.6,0.4,1,0.4c0.4,0,0.7-0.1,0.9-0.4c0.2-0.3,0.4-0.6,0.4-1.1v-0.7c0-0.4-0.1-0.8-0.4-1.1
				c-0.2-0.3-0.6-0.4-1-0.4s-0.7,0.1-0.9,0.4c-0.2,0.3-0.4,0.6-0.4,1.1V162.8z M362.4,172.1l-1.2-0.7l6.7-10.7l1.2,0.7L362.4,172.1z
				 M365.6,169.8c0-0.8,0.3-1.5,0.8-2c0.5-0.5,1.2-0.8,2.1-0.8c0.8,0,1.5,0.3,2.1,0.8c0.5,0.5,0.8,1.2,0.8,2.1v0.7
				c0,0.8-0.3,1.5-0.8,2c-0.5,0.5-1.2,0.8-2.1,0.8s-1.6-0.3-2.1-0.8c-0.5-0.5-0.8-1.2-0.8-2.1V169.8z M367.2,170.5
				c0,0.4,0.1,0.8,0.4,1c0.2,0.3,0.6,0.4,1,0.4c0.4,0,0.7-0.1,0.9-0.4c0.2-0.3,0.3-0.6,0.3-1.1v-0.7c0-0.4-0.1-0.8-0.4-1
				c-0.2-0.3-0.6-0.4-0.9-0.4c-0.4,0-0.7,0.1-0.9,0.4s-0.4,0.6-0.4,1.1V170.5z"/>
		</g>
	</g>
	<g>
		<g>
			<path class="st3" d="M411.5,159.9c-0.4,1.1-0.9,2.1-1.5,3.1v10.2H409v-8.5c-0.5,0.7-1,1.3-1.5,1.9c-0.1-0.2-0.4-0.8-0.6-1.1
				c1.5-1.4,2.9-3.6,3.7-5.9L411.5,159.9z M415.2,171.3c-0.9,0.8-2.3,1.5-3.5,1.9c-0.2-0.2-0.6-0.6-0.9-0.8c1.2-0.4,2.6-0.9,3.3-1.6
				L415.2,171.3z M420.8,163.5v0.8H411v-0.8h4.3v-0.8h-3.3v-0.8h3.3v-0.8h-3.7v-0.8h3.7v-0.8h1.1v0.8h3.8v0.8h-3.8v0.8h3.5v0.8h-3.5
				v0.8H420.8z M419.8,170.6h-7.6V165h7.6V170.6z M418.7,165.7h-5.4v0.9h5.4V165.7z M418.7,167.3h-5.4v0.9h5.4V167.3z M418.7,168.9
				h-5.4v0.9h5.4V168.9z M417.9,170.8c1,0.6,2.3,1.4,2.9,1.9l-1,0.6c-0.6-0.6-1.9-1.4-2.9-2L417.9,170.8z"/>
			<path class="st3" d="M422.5,172c0.6-0.8,1.2-2.1,1.5-3l1,0.4c-0.4,0.9-0.9,2.2-1.5,3.1L422.5,172z M428.9,168h-4.2v-7.1h3.5
				c0.2-0.5,0.5-1.1,0.6-1.5l1.3,0.2c-0.2,0.5-0.5,0.9-0.7,1.3h4.5v7.1H428.9c0.9,0.7,1.7,1.6,2.1,2.2l-0.9,0.6
				c-0.4-0.7-1.2-1.7-2-2.4L428.9,168z M431.3,171.9c0.8,0,0.9-0.2,1-1.7c0.3,0.2,0.7,0.4,1,0.4c-0.1,1.9-0.5,2.4-2,2.4h-3.4
				c-1.7,0-2.2-0.3-2.2-1.5V169h1.1v2.4c0,0.4,0.2,0.5,1.1,0.5H431.3z M425.8,163h6.9v-1.2h-6.9V163z M425.8,165.1h6.9v-1.2h-6.9
				V165.1z M425.8,167.1h6.9v-1.2h-6.9V167.1z M434.2,168.8c0.7,0.9,1.4,2.1,1.7,3l-1,0.5c-0.3-0.8-1-2.1-1.7-3L434.2,168.8z"/>
			<path class="st3" d="M441.7,169.2h2.7v1h-2.7v3h-1v-3h-2.8v-1h2.8v-1.6h-2.5v-1h1.4c-0.1-0.5-0.4-1.3-0.7-1.8l0.8-0.2
				c0.3,0.5,0.7,1.3,0.8,1.8l-0.7,0.3h1.9c0.4-0.6,0.8-1.5,1-2.1l1,0.3c-0.3,0.6-0.7,1.3-1,1.9h1.5v1h-2.4V169.2z M444.3,164.5h-6.5
				v-1h2.8V162h-2.4v-1h2.4v-1.5h1v1.5h2.3v1h-2.3v1.5h2.6V164.5z M451,165.5c-0.3,1.8-0.9,3.4-1.8,4.9c0.7,0.8,1.5,1.5,2.4,1.9
				c-0.3,0.2-0.6,0.6-0.8,0.9c-0.8-0.5-1.6-1.1-2.2-1.9c-0.6,0.8-1.4,1.5-2.2,2c-0.1-0.2-0.3-0.4-0.5-0.6v0.5h-1v-13h5.8v2.9
				c0,0.6-0.1,0.9-0.6,1s-1.2,0.2-2.4,0.2c0-0.3-0.2-0.7-0.3-1c0.9,0,1.7,0,1.9,0c0.2,0,0.3-0.1,0.3-0.2v-1.8h-3.8v4h4.3l0.2,0
				L451,165.5z M445.9,172.3c0.8-0.5,1.5-1.2,2-2c-0.8-1.2-1.5-2.6-1.9-4.2h-0.1V172.3z M447,166.2c0.4,1.2,0.9,2.3,1.5,3.2
				c0.6-1,1-2.1,1.3-3.2H447z"/>
			<path class="st3" d="M453.1,160.2h5.6v0.9H457v1.9h1.5v9.9h-0.8v-0.8h-3.4v1h-0.8V163h1.4v-1.9h-1.7V160.2z M457.6,171.2v-4h0
				H457c-0.6,0-0.8-0.1-0.8-0.8V164h-0.7v1.2c0,0.9-0.2,2.1-1,2.9c-0.1-0.1-0.2-0.2-0.4-0.3v3.5H457.6z M454.2,164v3.6
				c0.6-0.7,0.7-1.6,0.7-2.3V164H454.2z M454.7,168.8h2.4v0.9h-2.4V168.8z M456.2,161.1h-0.7v1.9h0.7V161.1z M457.6,164h-0.8v2.4
				c0,0.2,0,0.2,0.2,0.2h0.4c0.1,0,0.1,0,0.1,0V164z M460.3,159.9h0.9v6c0,2.8-0.2,5.4-1.8,7.5c-0.2-0.2-0.6-0.5-0.8-0.6
				c1.2-1.5,1.5-3.3,1.6-5.3l-0.7,0.3c-0.1-0.9-0.4-2.3-0.8-3.4l0.7-0.3c0.4,1,0.7,2.4,0.9,3.3c0-0.5,0-1,0-1.4V159.9z M466.2,159.8
				v13.4h-1v-6l-0.6,0.3c-0.2-0.9-0.6-2.1-1-3.2v8.6h-0.9v-5.7l-0.7,0.3c-0.1-0.9-0.5-2.3-0.8-3.3l0.6-0.3c0.4,1,0.7,2.2,0.8,3.1v-7
				h0.9v4l0.6-0.3c0.4,0.9,0.8,1.9,1,2.8v-6.7H466.2z"/>
		</g>
	</g>
	<g>
		<g>
			<path class="st3" d="M420.3,66.9h-5.4v3.4h-1.1v-3.4h-6.9v-1.1h2.5v-4h4.5v-2.3h-3.6c-0.7,1.2-1.5,2.2-2.3,3
				c-0.2-0.2-0.7-0.6-1-0.7c1.4-1.2,2.7-3.2,3.4-5.2l1.1,0.3c-0.2,0.5-0.5,1.1-0.7,1.6h8.9v1.1h-4.7v2.3h4.4v1h-4.4v3h5.4V66.9z
				 M413.8,65.8v-3h-3.4v3H413.8z"/>
			<path class="st3" d="M427.1,57c-0.4,1-0.9,1.9-1.5,2.8v10.5h-1.1v-8.9c-0.6,0.9-1.3,1.6-2,2.3c-0.1-0.3-0.4-0.8-0.6-1.1
				c1.6-1.4,3.2-3.6,4.2-5.9L427.1,57z M433.5,68.8c0.8,0,1-0.7,1.1-3.2c0.3,0.2,0.7,0.4,1,0.5c-0.2,2.8-0.5,3.7-2.1,3.7h-2.8
				c-1.5,0-2-0.4-2-2V56.8h1.1v4.1h5.3V62h-5.3v5.8c0,0.8,0.2,1,0.9,1H433.5z"/>
			<path class="st3" d="M441.3,66.3h2.7v1h-2.7v3h-1v-3h-2.8v-1h2.8v-1.6h-2.5v-1h1.4c-0.1-0.5-0.4-1.3-0.7-1.8l0.8-0.2
				c0.3,0.5,0.7,1.3,0.8,1.8l-0.7,0.3h1.9c0.4-0.6,0.8-1.5,1-2.1l1,0.3c-0.3,0.6-0.7,1.3-1,1.9h1.5v1h-2.4V66.3z M443.9,61.6h-6.5
				v-1h2.8v-1.5h-2.4v-1h2.4v-1.5h1v1.5h2.3v1h-2.3v1.5h2.6V61.6z M450.7,62.5c-0.3,1.8-0.9,3.4-1.8,4.9c0.7,0.8,1.5,1.5,2.4,1.9
				c-0.3,0.2-0.6,0.6-0.8,0.9c-0.8-0.5-1.6-1.1-2.2-1.9c-0.6,0.8-1.4,1.5-2.2,2c-0.1-0.2-0.3-0.4-0.5-0.6v0.5h-1v-13h5.8v2.9
				c0,0.6-0.1,0.9-0.6,1s-1.2,0.2-2.4,0.2c0-0.3-0.2-0.7-0.3-1c0.9,0,1.7,0,1.9,0c0.2,0,0.3-0.1,0.3-0.2v-1.8h-3.8v4h4.3l0.2,0
				L450.7,62.5z M445.5,69.4c0.8-0.5,1.5-1.2,2-2c-0.8-1.2-1.5-2.6-1.9-4.2h-0.1V69.4z M446.6,63.3c0.4,1.2,0.9,2.3,1.5,3.2
				c0.6-1,1-2.1,1.3-3.2H446.6z"/>
			<path class="st3" d="M452.7,57.3h5.6v0.9h-1.7v1.9h1.5V70h-0.8v-0.8h-3.4v1H453V60.1h1.4v-1.9h-1.7V57.3z M457.2,68.3v-4h0h-0.6
				c-0.6,0-0.8-0.1-0.8-0.8V61h-0.7v1.2c0,0.9-0.2,2.1-1,2.9c-0.1-0.1-0.2-0.2-0.4-0.3v3.5H457.2z M453.8,61v3.6
				c0.6-0.7,0.7-1.6,0.7-2.3V61H453.8z M454.3,65.9h2.4v0.9h-2.4V65.9z M455.8,58.2h-0.7v1.9h0.7V58.2z M457.2,61h-0.8v2.4
				c0,0.2,0,0.2,0.2,0.2h0.4c0.1,0,0.1,0,0.1,0V61z M459.9,56.9h0.9v6c0,2.8-0.2,5.4-1.8,7.5c-0.2-0.2-0.6-0.5-0.8-0.6
				c1.2-1.5,1.5-3.3,1.6-5.3l-0.7,0.3c-0.1-0.9-0.4-2.3-0.8-3.4L459,61c0.4,1,0.7,2.4,0.9,3.3c0-0.5,0-1,0-1.4V56.9z M465.8,56.9
				v13.4h-1v-6l-0.6,0.3c-0.2-0.9-0.6-2.1-1-3.2V70h-0.9v-5.7l-0.7,0.3c-0.1-0.9-0.5-2.3-0.8-3.3l0.6-0.3c0.4,1,0.7,2.2,0.8,3.1v-7
				h0.9v4l0.6-0.3c0.4,0.9,0.8,1.9,1,2.8v-6.7H465.8z"/>
			<path class="st3" d="M481.5,67.1h-6.1v3.2h-1.2v-3.2h-6.1v-1h6.1v-1.2h1.2v1.2h6.1V67.1z M472.1,63.2c-1.1,0.6-2.4,1.3-3.3,1.8
				l-0.6-0.9c0.9-0.4,2.3-1,3.7-1.7L472.1,63.2z M477.2,65.1c-0.1-0.2-0.2-0.5-0.4-0.8c-3.9,0.4-4.4,0.4-4.7,0.6
				c-0.1-0.2-0.2-0.7-0.3-1c0.3,0,0.7-0.3,1.2-0.7c0.3-0.2,0.9-0.8,1.6-1.6c-1.7,0.1-2.1,0.2-2.3,0.3c0-0.2-0.2-0.7-0.3-0.9
				c0.2,0,0.4-0.2,0.7-0.5c0.2-0.2,0.7-0.8,1.2-1.5h-5.5v-1h6.1c-0.2-0.4-0.5-0.8-0.7-1.2l1.1-0.3c0.3,0.4,0.7,1,0.9,1.5h5.6v1h-6.3
				c-0.5,0.7-0.9,1.3-1.4,1.8l1.9-0.1c0.3-0.4,0.7-0.8,1-1.2l0.9,0.5c-1.2,1.4-2.5,2.7-3.8,3.7l2.6-0.2c-0.2-0.3-0.5-0.7-0.7-1
				l0.8-0.3c0.7,0.8,1.4,1.8,1.7,2.5L477.2,65.1z M469.4,59.6c0.8,0.5,1.8,1.2,2.3,1.7l-0.8,0.7c-0.5-0.5-1.4-1.3-2.2-1.8
				L469.4,59.6z M480.4,65.1c-0.6-0.6-1.9-1.5-2.9-2.1l0.8-0.6c1,0.6,2.3,1.4,3,2L480.4,65.1z M480.6,60.1c-0.7,0.7-1.5,1.4-2.2,1.9
				l-0.8-0.5c0.7-0.5,1.6-1.3,2.1-1.9L480.6,60.1z"/>
		</g>
	</g>
	<g>
		<g>
			<path class="st3" d="M411.2,260.3h-4.3v-0.9h4.3V260.3z M412.4,268.1c-1.2,0.7-3.1,1.4-4.6,1.8c-0.2-0.2-0.6-0.6-0.8-0.8
				c1.5-0.3,3.3-0.9,4.4-1.4L412.4,268.1z M410.8,258h-3.6v-0.9h3.6V258z M408.8,261.5h9.7v6h-9.7V261.5z M409.9,263.3h7.5v-1h-7.5
				V263.3z M409.9,265h7.5v-1h-7.5V265z M409.9,266.8h7.5v-1.1h-7.5V266.8z M413.5,258.1c-0.3,0.6-0.7,1.1-1.1,1.5
				c-0.2-0.2-0.6-0.4-0.8-0.6c0.8-0.7,1.4-1.8,1.7-2.9l1,0.2c-0.1,0.3-0.2,0.6-0.3,0.8h5l0.2,0l0.8,0.3c-0.4,0.8-0.9,1.6-1.3,2.2
				l-0.9-0.3c0.2-0.3,0.5-0.8,0.7-1.2h-2.4v0.2c0,0.2,0,0.3,0,0.5c0.8,0.9,2.4,1.5,4.4,1.7c-0.2,0.2-0.5,0.6-0.6,0.9
				c-1.7-0.2-3.2-0.8-4.1-1.8c-0.5,0.7-1.7,1.4-4.3,1.8c-0.1-0.2-0.4-0.6-0.6-0.8c3.9-0.5,4.2-1.5,4.2-2.3v-0.2H413.5z M415.8,267.6
				c1.6,0.5,3.4,1.1,4.4,1.6l-1,0.6c-1-0.5-2.6-1.1-4.2-1.7L415.8,267.6z"/>
			<path class="st3" d="M430.8,260.5c1.1,2.5,3,4.9,5,6.1c-0.3,0.2-0.7,0.6-0.9,0.9c-2.2-1.4-4.2-4.1-5.3-7h-0.2v5.5h3.5v1.1h-3.5
				v2.8h-1.2v-2.8h-3.5V266h3.5v-5.5h-0.2c-1.2,2.9-3.1,5.6-5.2,7.1c-0.2-0.3-0.5-0.7-0.8-0.9c2-1.2,3.8-3.6,4.9-6.2h-4.5v-1.1h5.9
				v-3.1h1.2v3.1h5.9v1.1H430.8z"/>
			<path class="st3" d="M441.8,260.7h3.1v1h-3.1v0.4c0.7,0.7,2.4,2.4,2.9,2.8l-0.7,0.9c-0.5-0.6-1.5-1.7-2.2-2.5v6.5h-1.1v-6.4
				c-0.8,1.7-1.8,3.4-2.8,4.4c-0.1-0.3-0.4-0.8-0.6-1c1.2-1.1,2.5-3.2,3.2-5.1h-2.9v-1h3.2v-2.5c-1,0.2-2,0.3-2.9,0.5
				c0-0.3-0.2-0.6-0.3-0.9c2.2-0.3,4.8-0.8,6.2-1.5l0.8,0.9c-0.7,0.3-1.7,0.6-2.7,0.8V260.7z M447.1,266.2h-1.1V258h1.1V266.2z
				 M450.3,256.4v12c0,0.8-0.2,1.1-0.7,1.3c-0.5,0.2-1.3,0.2-2.7,0.2c-0.1-0.3-0.2-0.8-0.4-1.1c1,0,2,0,2.3,0c0.3,0,0.4-0.1,0.4-0.4
				v-12H450.3z"/>
			<path class="st3" d="M457,259.9c-0.3,0.6-0.8,1.2-1.2,1.8v8.1h-1.1V263c-0.6,0.6-1.2,1.2-1.8,1.6c-0.1-0.2-0.4-0.8-0.6-1.1
				c1.3-1,2.8-2.5,3.7-4L457,259.9z M456.9,256.7c-0.9,1.3-2.3,2.7-3.7,3.6c-0.1-0.3-0.4-0.7-0.6-0.9c1.2-0.8,2.5-2,3.2-3.1
				L456.9,256.7z M466.2,265.8H464v2.9c0,0.6-0.1,0.9-0.6,1.1c-0.5,0.2-1.2,0.2-2.3,0.2c0-0.3-0.2-0.7-0.4-1c0.8,0,1.6,0,1.8,0
				c0.2,0,0.3-0.1,0.3-0.3v-2.8h-6v-1h6v-1.3h-5.7v-1h8.7v1h-2v1.3h2.2V265.8z M465.3,261.6h-7.1v-4.9h7.1V261.6z M459,266
				c0.7,0.6,1.5,1.5,1.9,2.1l-0.9,0.6c-0.4-0.6-1.2-1.5-1.8-2.2L459,266z M464.2,257.5h-4.9v1.2h4.9V257.5z M464.2,259.5h-4.9v1.2
				h4.9V259.5z"/>
		</g>
	</g>
	<polygon class="st7" points="569.9,102.2 660.6,102.2 660.6,222.6 569.9,222.6 569.9,102.2 	"/>
	<polygon class="st8" points="569.9,222.6 660.6,222.6 660.6,247.1 569.9,247.1 569.9,222.6 	"/>
	<g>
		<path class="st9" d="M575.5,16.7h-2.3v-11l-3.3,1.1V4.9l5.3-2h0.3V16.7z"/>
		<path class="st9" d="M589.1,10.9c0,2-0.4,3.4-1.1,4.4s-1.9,1.5-3.4,1.5c-1.5,0-2.6-0.5-3.3-1.5s-1.1-2.4-1.1-4.3V8.7
			c0-2,0.4-3.4,1.1-4.4c0.7-1,1.9-1.5,3.4-1.5c1.5,0,2.6,0.5,3.3,1.4s1.1,2.4,1.1,4.3V10.9z M586.8,8.4c0-1.3-0.2-2.2-0.5-2.8
			c-0.3-0.6-0.9-0.9-1.7-0.9c-0.7,0-1.3,0.3-1.6,0.8c-0.4,0.6-0.5,1.4-0.6,2.6v3.1c0,1.3,0.2,2.2,0.5,2.9c0.4,0.6,0.9,0.9,1.7,0.9
			c0.7,0,1.3-0.3,1.6-0.9c0.3-0.6,0.5-1.5,0.6-2.7V8.4z"/>
		<path class="st9" d="M610.3,13.9h-6.7v4.2h-1.8v-4.2H593v-1.7h3.1V7.1h5.6V4.5h-4.4c-0.8,1.4-1.8,2.7-2.8,3.6
			c-0.3-0.3-1.1-0.9-1.6-1.2c1.8-1.5,3.3-4,4.2-6.5L599,1c-0.2,0.6-0.5,1.2-0.7,1.8h11.1v1.7h-5.8v2.6h5.4v1.7h-5.4v3.4h6.7V13.9z
			 M601.7,12.2V8.8h-3.9v3.4H601.7z"/>
		<path class="st9" d="M620.1,12.7c-2.6,1.2-5.4,2.4-7.6,3.3l-0.7-1.9c0.7-0.3,1.6-0.6,2.6-1l-0.4-11.5l1.9-0.1l0.3,10.9
			c1.1-0.5,2.2-0.9,3.4-1.4L620.1,12.7z M628.3,18.1c-0.8-1.3-2.4-3.2-4-4.9c-1.4,2.1-3.5,3.7-6.2,4.9c-0.2-0.4-1-1.2-1.4-1.6
			c6.4-2.4,8.4-7,9.2-15.1l2,0.2c-0.4,4-1.2,7.3-2.4,9.8c1.6,1.7,3.6,3.7,4.5,5.1L628.3,18.1z M621.1,8.4c-0.5-1.3-1.7-3.3-2.9-4.7
			l1.6-0.8c1.2,1.4,2.5,3.2,3,4.6L621.1,8.4z"/>
		<path class="st9" d="M648.6,15.5v1.8h-17.2v-1.8h7V0.8h1.9v5.7h6.9v1.8h-6.9v7.1H648.6z"/>
		<path class="st9" d="M656.6,10.5c-0.6,0.2-1.2,0.4-1.9,0.5v5c0,0.9-0.2,1.4-0.7,1.6c-0.6,0.3-1.4,0.3-2.7,0.3
			c-0.1-0.4-0.3-1.2-0.5-1.6c0.8,0,1.7,0,1.9,0c0.3,0,0.4-0.1,0.4-0.4v-4.5l-2.2,0.6l-0.5-1.7c0.8-0.2,1.7-0.4,2.7-0.7V6h-2.5V4.3
			h2.5V0.6h1.7v3.7h2.2V6h-2.2v3.3l1.6-0.4L656.6,10.5z M666.8,9.3c-0.7,2.3-2,4.1-3.5,5.5c1.4,0.8,3,1.4,4.8,1.7
			c-0.4,0.4-0.9,1.2-1.1,1.7c-2-0.5-3.7-1.2-5.2-2.2c-1.6,1-3.5,1.7-5.4,2.2c-0.2-0.5-0.6-1.2-0.9-1.6c1.7-0.3,3.4-0.9,4.9-1.8
			c-1.2-1.2-2.2-2.5-2.9-4.1l0.5-0.2h-1V8.9h8.4l0.3-0.1L666.8,9.3z M660.3,3.4c0,1.8-0.5,3.9-3,5.2c-0.2-0.3-0.8-1.1-1.2-1.3
			c2.2-1.1,2.5-2.6,2.5-3.9V1.2h6.3v4.3c0,0.5,0,0.7,0.3,0.7h1.3c0.3,0,0.7,0,1-0.1c0,0.5,0.1,1.1,0.1,1.5c-0.3,0.1-0.7,0.1-1.1,0.1
			h-1.4c-1.6,0-1.9-0.6-1.9-2.3V2.9h-3V3.4z M659.1,10.6c0.7,1.2,1.6,2.3,2.7,3.2c1.1-0.9,2-2,2.6-3.2H659.1z"/>
		<path class="st9" d="M681.6,3.4c0,0.1,0,0.3,0,0.5c1,1.1,3.1,1.7,5.6,1.9c-0.3,0.4-0.8,1-1,1.5c-2.2-0.3-3.9-1-5.1-2.1
			c-0.7,0.9-2.2,1.7-5.5,2.2c-0.2-0.4-0.6-1-0.9-1.3h-4.9V4.5h5.6v1.3c4.2-0.5,4.6-1.6,4.6-2.4V3.1h-1.6c-0.4,0.7-0.9,1.3-1.4,1.8
			c-0.3-0.2-0.9-0.7-1.3-0.9c1-0.9,1.8-2.2,2.2-3.5l1.6,0.3c-0.1,0.3-0.2,0.6-0.4,1h6l0.2-0.1l1.2,0.4c-0.5,1-1.1,2.1-1.7,2.8
			l-1.4-0.5c0.2-0.3,0.5-0.8,0.8-1.3h-2.7V3.4z M681.5,15.1c2,0.7,4.1,1.5,5.4,2.1l-1.6,1c-1.2-0.6-3.2-1.5-5.2-2.2l1.1-0.9h-5.7
			l1.6,0.7c-1.6,0.9-4,1.9-5.9,2.4c-0.3-0.4-0.9-1-1.3-1.3c2-0.4,4.2-1,5.5-1.8h-3.1V7.4h12.5v7.7H681.5z M674.9,3h-4.7V1.6h4.7V3z
			 M674,9.6h9V8.5h-9V9.6z M674,11.7h9v-1.1h-9V11.7z M674,13.9h9v-1.1h-9V13.9z"/>
		<path class="st9" d="M695.2,12.1c-0.1-0.3-0.1-0.6-0.2-1c-4.3,0.7-4.9,0.9-5.3,1.1c-0.1-0.3-0.4-1.2-0.6-1.6
			c0.5-0.1,0.9-0.6,1.5-1.3c0.3-0.3,0.8-1,1.4-1.9c-1.8,0.2-2.2,0.3-2.5,0.5c-0.1-0.3-0.4-1.2-0.6-1.6c0.3-0.1,0.7-0.5,1.1-1
			c0.4-0.6,1.7-2.7,2.4-4.7l1.7,0.7c-0.7,1.7-1.7,3.4-2.8,4.8l1.7-0.2c0.5-0.8,1-1.7,1.4-2.5l1.5,0.9c-1.2,2.1-2.7,4.2-4.2,5.9
			l2.7-0.4c-0.2-0.6-0.4-1.1-0.7-1.6l1.3-0.4c0.6,1.2,1.2,2.8,1.4,3.8L695.2,12.1z M691.2,13.1c-0.2,1.7-0.5,3.5-0.9,4.6
			c-0.3-0.2-1-0.4-1.3-0.5c0.4-1.1,0.7-2.8,0.8-4.4L691.2,13.1z M693.2,12.8c0.2,1.2,0.4,2.8,0.5,3.8l-1.3,0.3
			c0-1.1-0.2-2.6-0.4-3.9L693.2,12.8z M706,7.2c-0.5,2.8-1.4,5.1-2.6,7c0.9,1,1.9,1.9,3.2,2.4c-0.4,0.3-0.9,1-1.2,1.5
			c-1.2-0.6-2.2-1.5-3.1-2.5c-0.9,1.1-2,1.9-3.1,2.6c-0.2-0.4-0.7-1.1-1.1-1.4c1.2-0.6,2.2-1.5,3.2-2.7c-0.8-1.3-1.4-2.8-1.9-4.4
			c-0.4,3.4-1.1,6.2-2.6,8.4c-0.3-0.3-1.1-0.9-1.5-1.1c0.4-0.5,0.7-1,1-1.6l-1.3,0.4c-0.2-0.8-0.5-2.1-0.9-3.1l1.2-0.4
			c0.4,0.9,0.8,2.2,1,3c1.5-3,1.8-7.3,1.8-12.3h-1.8V1.4h6.6l0.3-0.1l1.2,0.2c-0.2,1.6-0.5,3.6-0.9,5.3h1.1l0.3-0.1L706,7.2z
			 M699.7,3.1c0,1.3-0.1,2.5-0.1,3.7h2.2c0.2-1.2,0.5-2.6,0.7-3.7H699.7z M700.6,8.4c0.4,1.5,1,3,1.7,4.2c0.7-1.2,1.3-2.7,1.7-4.2
			H700.6z"/>
		<path class="st9" d="M713.8,1.1c-0.5,1.3-1.1,2.6-1.8,3.8v13.3h-1.7V7.6c-0.6,0.7-1.1,1.5-1.7,2.1c-0.2-0.4-0.7-1.4-1-1.8
			c1.8-1.7,3.5-4.5,4.5-7.2L713.8,1.1z M718.7,15.7c-1.1,1-2.9,1.9-4.4,2.5c-0.3-0.3-1-0.9-1.4-1.2c1.5-0.4,3.2-1.2,4.1-1.9
			L718.7,15.7z M718.5,2.7H714V1.6h4.5v-1h1.8v1h4.7v1.2h-4.7v0.8h4.2v1.1h-4.2v0.9h5.3v1.2h-12.4V5.5h5.3V4.7h-4V3.5h4V2.7z
			 M714.6,14.8V7.6h9.8v7.3H714.6z M716.4,9.7h6.2v-1h-6.2V9.7z M716.4,11.7h6.2v-1h-6.2V11.7z M716.4,13.6h6.2v-1h-6.2V13.6z
			 M722,14.9c1.3,0.7,2.8,1.7,3.6,2.4l-1.6,1c-0.8-0.7-2.3-1.9-3.6-2.6L722,14.9z"/>
	</g>
	<g>
		<g>
			<path class="st9" d="M602.7,52l-7.9,18.2h-4.3l7.9-17.2h-10.2v-3.3h14.5V52z"/>
			<path class="st9" d="M605.7,68.2c0-0.6,0.2-1.2,0.7-1.6c0.4-0.4,1-0.6,1.6-0.6c0.7,0,1.2,0.2,1.7,0.6c0.4,0.4,0.7,0.9,0.7,1.6
				c0,0.6-0.2,1.2-0.6,1.6c-0.4,0.4-1,0.6-1.7,0.6c-0.7,0-1.2-0.2-1.6-0.6C605.9,69.3,605.7,68.8,605.7,68.2z"/>
			<path class="st9" d="M623.7,70.2h-4.1V54.5l-4.9,1.5v-3.3l8.5-3h0.4V70.2z"/>
			<path class="st9" d="M632.7,59.2c0-0.8,0.3-1.5,0.8-2s1.2-0.8,2.1-0.8c0.9,0,1.6,0.3,2.1,0.8c0.5,0.5,0.8,1.2,0.8,2.1v0.7
				c0,0.8-0.3,1.5-0.8,2c-0.5,0.5-1.2,0.8-2.1,0.8c-0.8,0-1.5-0.3-2.1-0.8s-0.8-1.2-0.8-2.1V59.2z M634.3,59.9c0,0.4,0.1,0.8,0.4,1
				s0.6,0.4,1,0.4c0.4,0,0.7-0.1,0.9-0.4c0.2-0.3,0.4-0.6,0.4-1.1v-0.7c0-0.4-0.1-0.8-0.4-1.1c-0.2-0.3-0.6-0.4-1-0.4
				s-0.7,0.1-0.9,0.4c-0.2,0.3-0.4,0.6-0.4,1.1V59.9z M636.1,69.2l-1.2-0.7l6.7-10.7l1.2,0.7L636.1,69.2z M639.3,66.8
				c0-0.8,0.3-1.5,0.8-2c0.5-0.5,1.2-0.8,2.1-0.8c0.8,0,1.5,0.3,2.1,0.8c0.5,0.5,0.8,1.2,0.8,2.1v0.7c0,0.8-0.3,1.5-0.8,2
				c-0.5,0.5-1.2,0.8-2.1,0.8s-1.6-0.3-2.1-0.8c-0.5-0.5-0.8-1.2-0.8-2.1V66.8z M640.9,67.6c0,0.4,0.1,0.8,0.4,1
				c0.2,0.3,0.6,0.4,1,0.4c0.4,0,0.7-0.1,0.9-0.4c0.2-0.3,0.3-0.6,0.3-1.1v-0.7c0-0.4-0.1-0.8-0.4-1c-0.2-0.3-0.6-0.4-0.9-0.4
				c-0.4,0-0.7,0.1-0.9,0.4s-0.4,0.6-0.4,1.1V67.6z"/>
		</g>
	</g>
	<g>
		<g>
			<path class="st3" d="M600.7,270.8h-2.6V258l-3.9,1.3v-2.2l6.2-2.3h0.3V270.8z"/>
			<path class="st3" d="M608.1,268c0.5,0,0.9,0.1,1.1,0.4c0.3,0.3,0.4,0.6,0.4,1.1c0,0.4-0.1,0.8-0.4,1s-0.7,0.4-1.1,0.4
				c-0.5,0-0.8-0.1-1.1-0.4c-0.3-0.3-0.4-0.6-0.4-1s0.1-0.8,0.4-1.1C607.2,268.1,607.6,268,608.1,268z"/>
			<path class="st3" d="M623.3,270.8h-10.7v-1.8l5.3-5.8c0.8-0.9,1.3-1.6,1.6-2.1s0.5-1.1,0.5-1.7c0-0.8-0.2-1.4-0.6-1.8
				c-0.4-0.5-1-0.7-1.7-0.7c-0.9,0-1.5,0.3-2,0.8c-0.5,0.5-0.7,1.2-0.7,2.2h-2.7c0-1,0.2-1.8,0.7-2.6c0.4-0.8,1.1-1.4,1.9-1.8
				c0.8-0.4,1.8-0.6,2.8-0.6c1.5,0,2.8,0.4,3.7,1.2c0.9,0.8,1.3,1.8,1.3,3.2c0,0.8-0.2,1.6-0.7,2.5c-0.4,0.9-1.2,1.9-2.2,3l-3.9,4.2
				h7.4V270.8z"/>
			<path class="st3" d="M627.3,259.7c0-0.8,0.3-1.5,0.8-2s1.2-0.8,2.1-0.8c0.9,0,1.6,0.3,2.1,0.8c0.5,0.5,0.8,1.2,0.8,2.1v0.7
				c0,0.8-0.3,1.5-0.8,2c-0.5,0.5-1.2,0.8-2.1,0.8c-0.8,0-1.5-0.3-2.1-0.8s-0.8-1.2-0.8-2.1V259.7z M628.9,260.5
				c0,0.4,0.1,0.8,0.4,1s0.6,0.4,1,0.4c0.4,0,0.7-0.1,0.9-0.4c0.2-0.3,0.4-0.6,0.4-1.1v-0.7c0-0.4-0.1-0.8-0.4-1.1
				c-0.2-0.3-0.6-0.4-1-0.4s-0.7,0.1-0.9,0.4c-0.2,0.3-0.4,0.6-0.4,1.1V260.5z M630.7,269.7l-1.2-0.7l6.7-10.7l1.2,0.7L630.7,269.7z
				 M633.8,267.4c0-0.8,0.3-1.5,0.8-2c0.5-0.5,1.2-0.8,2.1-0.8c0.8,0,1.5,0.3,2.1,0.8c0.5,0.5,0.8,1.2,0.8,2.1v0.7
				c0,0.8-0.3,1.5-0.8,2c-0.5,0.5-1.2,0.8-2.1,0.8s-1.6-0.3-2.1-0.8c-0.5-0.5-0.8-1.2-0.8-2.1V267.4z M635.4,268.1
				c0,0.4,0.1,0.8,0.4,1c0.2,0.3,0.6,0.4,1,0.4c0.4,0,0.7-0.1,0.9-0.4c0.2-0.3,0.3-0.6,0.3-1.1v-0.7c0-0.4-0.1-0.8-0.4-1
				c-0.2-0.3-0.6-0.4-0.9-0.4c-0.4,0-0.7,0.1-0.9,0.4s-0.4,0.6-0.4,1.1V268.1z"/>
		</g>
	</g>
	<g>
		<g>
			<path class="st3" d="M594.6,165.2l0.9-8h8.6v2.3h-6.3l-0.4,3.8c0.7-0.4,1.6-0.6,2.5-0.6c1.5,0,2.7,0.5,3.5,1.5
				c0.8,1,1.3,2.3,1.3,3.9c0,1.6-0.5,2.9-1.4,3.9c-0.9,1-2.2,1.4-3.8,1.4c-1.5,0-2.7-0.4-3.6-1.2c-1-0.8-1.5-1.9-1.6-3.3h2.6
				c0.1,0.8,0.4,1.4,0.8,1.8c0.5,0.4,1,0.6,1.8,0.6c0.8,0,1.5-0.3,1.9-0.9c0.5-0.6,0.7-1.4,0.7-2.4c0-1-0.3-1.7-0.8-2.3
				s-1.2-0.8-2.1-0.8c-0.5,0-0.9,0.1-1.2,0.2c-0.3,0.1-0.7,0.4-1.1,0.7L594.6,165.2z"/>
			<path class="st3" d="M608.4,170.3c0.5,0,0.9,0.1,1.1,0.4c0.3,0.3,0.4,0.6,0.4,1.1c0,0.4-0.1,0.8-0.4,1s-0.7,0.4-1.1,0.4
				c-0.5,0-0.8-0.1-1.1-0.4c-0.3-0.3-0.4-0.6-0.4-1s0.1-0.8,0.4-1.1C607.5,170.4,607.9,170.3,608.4,170.3z"/>
			<path class="st3" d="M620.5,166.4c-0.9,0.9-1.9,1.4-3.1,1.4c-1.4,0-2.5-0.5-3.3-1.5c-0.8-1-1.2-2.3-1.2-3.9c0-1,0.2-2,0.6-2.9
				c0.4-0.9,1-1.5,1.8-2s1.7-0.7,2.7-0.7c1.6,0,2.9,0.6,3.8,1.8c0.9,1.2,1.4,2.8,1.4,4.8v0.7c0,2.9-0.6,5.1-1.9,6.6
				c-1.3,1.5-3.2,2.3-5.8,2.3h-0.3V171h0.4c1.6,0,2.8-0.4,3.6-1.1C619.9,169.1,620.4,168,620.5,166.4z M617.9,165.8
				c0.5,0,1-0.2,1.5-0.5c0.5-0.3,0.8-0.7,1.1-1.3v-1c0-1.2-0.2-2.1-0.7-2.8c-0.5-0.7-1.1-1.1-1.9-1.1s-1.4,0.3-1.8,0.9
				c-0.5,0.6-0.7,1.4-0.7,2.4c0,1,0.2,1.8,0.7,2.4C616.5,165.5,617.1,165.8,617.9,165.8z"/>
			<path class="st3" d="M627.6,162.1c0-0.8,0.3-1.5,0.8-2s1.2-0.8,2.1-0.8c0.9,0,1.6,0.3,2.1,0.8c0.5,0.5,0.8,1.2,0.8,2.1v0.7
				c0,0.8-0.3,1.5-0.8,2c-0.5,0.5-1.2,0.8-2.1,0.8c-0.8,0-1.5-0.3-2.1-0.8s-0.8-1.2-0.8-2.1V162.1z M629.2,162.8
				c0,0.4,0.1,0.8,0.4,1s0.6,0.4,1,0.4c0.4,0,0.7-0.1,0.9-0.4c0.2-0.3,0.4-0.6,0.4-1.1v-0.7c0-0.4-0.1-0.8-0.4-1.1
				c-0.2-0.3-0.6-0.4-1-0.4s-0.7,0.1-0.9,0.4c-0.2,0.3-0.4,0.6-0.4,1.1V162.8z M631,172.1l-1.2-0.7l6.7-10.7l1.2,0.7L631,172.1z
				 M634.2,169.8c0-0.8,0.3-1.5,0.8-2c0.5-0.5,1.2-0.8,2.1-0.8c0.8,0,1.5,0.3,2.1,0.8c0.5,0.5,0.8,1.2,0.8,2.1v0.7
				c0,0.8-0.3,1.5-0.8,2c-0.5,0.5-1.2,0.8-2.1,0.8s-1.6-0.3-2.1-0.8c-0.5-0.5-0.8-1.2-0.8-2.1V169.8z M635.8,170.5
				c0,0.4,0.1,0.8,0.4,1c0.2,0.3,0.6,0.4,1,0.4c0.4,0,0.7-0.1,0.9-0.4c0.2-0.3,0.3-0.6,0.3-1.1v-0.7c0-0.4-0.1-0.8-0.4-1
				c-0.2-0.3-0.6-0.4-0.9-0.4c-0.4,0-0.7,0.1-0.9,0.4s-0.4,0.6-0.4,1.1V170.5z"/>
		</g>
	</g>
	<g>
		<g>
			<path class="st3" d="M679.1,159.9c-0.4,1.1-0.9,2.1-1.5,3.1v10.2h-1.1v-8.5c-0.5,0.7-1,1.3-1.5,1.9c-0.1-0.2-0.4-0.8-0.6-1.1
				c1.5-1.4,2.9-3.6,3.7-5.9L679.1,159.9z M682.8,171.3c-0.9,0.8-2.3,1.5-3.5,1.9c-0.2-0.2-0.6-0.6-0.9-0.8c1.2-0.4,2.6-0.9,3.3-1.6
				L682.8,171.3z M688.4,163.5v0.8h-9.8v-0.8h4.3v-0.8h-3.3v-0.8h3.3v-0.8h-3.7v-0.8h3.7v-0.8h1.1v0.8h3.8v0.8h-3.8v0.8h3.5v0.8
				h-3.5v0.8H688.4z M687.4,170.6h-7.6V165h7.6V170.6z M686.3,165.7h-5.4v0.9h5.4V165.7z M686.3,167.3h-5.4v0.9h5.4V167.3z
				 M686.3,168.9h-5.4v0.9h5.4V168.9z M685.5,170.8c1,0.6,2.3,1.4,2.9,1.9l-1,0.6c-0.6-0.6-1.9-1.4-2.9-2L685.5,170.8z"/>
			<path class="st3" d="M690.1,172c0.6-0.8,1.2-2.1,1.5-3l1,0.4c-0.4,0.9-0.9,2.2-1.5,3.1L690.1,172z M696.5,168h-4.2v-7.1h3.5
				c0.2-0.5,0.5-1.1,0.6-1.5l1.3,0.2c-0.2,0.5-0.5,0.9-0.7,1.3h4.5v7.1H696.5c0.9,0.7,1.7,1.6,2.1,2.2l-0.9,0.6
				c-0.4-0.7-1.2-1.7-2-2.4L696.5,168z M698.9,171.9c0.8,0,0.9-0.2,1-1.7c0.3,0.2,0.7,0.4,1,0.4c-0.1,1.9-0.5,2.4-2,2.4h-3.4
				c-1.7,0-2.2-0.3-2.2-1.5V169h1.1v2.4c0,0.4,0.2,0.5,1.1,0.5H698.9z M693.4,163h6.9v-1.2h-6.9V163z M693.4,165.1h6.9v-1.2h-6.9
				V165.1z M693.4,167.1h6.9v-1.2h-6.9V167.1z M701.8,168.8c0.7,0.9,1.4,2.1,1.7,3l-1,0.5c-0.3-0.8-1-2.1-1.7-3L701.8,168.8z"/>
			<path class="st3" d="M709.3,169.2h2.7v1h-2.7v3h-1v-3h-2.8v-1h2.8v-1.6h-2.5v-1h1.4c-0.1-0.5-0.4-1.3-0.7-1.8l0.8-0.2
				c0.3,0.5,0.7,1.3,0.8,1.8l-0.7,0.3h1.9c0.4-0.6,0.8-1.5,1-2.1l1,0.3c-0.3,0.6-0.7,1.3-1,1.9h1.5v1h-2.4V169.2z M711.9,164.5h-6.5
				v-1h2.8V162h-2.4v-1h2.4v-1.5h1v1.5h2.3v1h-2.3v1.5h2.6V164.5z M718.6,165.5c-0.3,1.8-0.9,3.4-1.8,4.9c0.7,0.8,1.5,1.5,2.4,1.9
				c-0.3,0.2-0.6,0.6-0.8,0.9c-0.8-0.5-1.6-1.1-2.2-1.9c-0.6,0.8-1.4,1.5-2.2,2c-0.1-0.2-0.3-0.4-0.5-0.6v0.5h-1v-13h5.8v2.9
				c0,0.6-0.1,0.9-0.6,1s-1.2,0.2-2.4,0.2c0-0.3-0.2-0.7-0.3-1c0.9,0,1.7,0,1.9,0c0.2,0,0.3-0.1,0.3-0.2v-1.8h-3.8v4h4.3l0.2,0
				L718.6,165.5z M713.5,172.3c0.8-0.5,1.5-1.2,2-2c-0.8-1.2-1.5-2.6-1.9-4.2h-0.1V172.3z M714.6,166.2c0.4,1.2,0.9,2.3,1.5,3.2
				c0.6-1,1-2.1,1.3-3.2H714.6z"/>
			<path class="st3" d="M720.7,160.2h5.6v0.9h-1.7v1.9h1.5v9.9h-0.8v-0.8h-3.4v1h-0.8V163h1.4v-1.9h-1.7V160.2z M725.2,171.2v-4h0
				h-0.6c-0.6,0-0.8-0.1-0.8-0.8V164h-0.7v1.2c0,0.9-0.2,2.1-1,2.9c-0.1-0.1-0.2-0.2-0.4-0.3v3.5H725.2z M721.8,164v3.6
				c0.6-0.7,0.7-1.6,0.7-2.3V164H721.8z M722.3,168.8h2.4v0.9h-2.4V168.8z M723.8,161.1h-0.7v1.9h0.7V161.1z M725.2,164h-0.8v2.4
				c0,0.2,0,0.2,0.2,0.2h0.4c0.1,0,0.1,0,0.1,0V164z M727.9,159.9h0.9v6c0,2.8-0.2,5.4-1.8,7.5c-0.2-0.2-0.6-0.5-0.8-0.6
				c1.2-1.5,1.5-3.3,1.6-5.3l-0.7,0.3c-0.1-0.9-0.4-2.3-0.8-3.4l0.7-0.3c0.4,1,0.7,2.4,0.9,3.3c0-0.5,0-1,0-1.4V159.9z M733.8,159.8
				v13.4h-1v-6l-0.6,0.3c-0.2-0.9-0.6-2.1-1-3.2v8.6h-0.9v-5.7l-0.7,0.3c-0.1-0.9-0.5-2.3-0.8-3.3l0.6-0.3c0.4,1,0.7,2.2,0.8,3.1v-7
				h0.9v4l0.6-0.3c0.4,0.9,0.8,1.9,1,2.8v-6.7H733.8z"/>
		</g>
	</g>
	<g>
		<g>
			<path class="st3" d="M687.9,66.9h-5.4v3.4h-1.1v-3.4h-6.9v-1.1h2.5v-4h4.5v-2.3h-3.6c-0.7,1.2-1.5,2.2-2.3,3
				c-0.2-0.2-0.7-0.6-1-0.7c1.4-1.2,2.7-3.2,3.4-5.2l1.1,0.3c-0.2,0.5-0.5,1.1-0.7,1.6h8.9v1.1h-4.7v2.3h4.4v1h-4.4v3h5.4V66.9z
				 M681.4,65.8v-3H678v3H681.4z"/>
			<path class="st3" d="M694.7,57c-0.4,1-0.9,1.9-1.5,2.8v10.5h-1.1v-8.9c-0.6,0.9-1.3,1.6-2,2.3c-0.1-0.3-0.4-0.8-0.6-1.1
				c1.6-1.4,3.2-3.6,4.2-5.9L694.7,57z M701,68.8c0.8,0,1-0.7,1.1-3.2c0.3,0.2,0.7,0.4,1,0.5c-0.2,2.8-0.5,3.7-2.1,3.7h-2.8
				c-1.5,0-2-0.4-2-2V56.8h1.1v4.1h5.3V62h-5.3v5.8c0,0.8,0.2,1,0.9,1H701z"/>
			<path class="st3" d="M708.9,66.3h2.7v1h-2.7v3h-1v-3H705v-1h2.8v-1.6h-2.5v-1h1.4c-0.1-0.5-0.4-1.3-0.7-1.8l0.8-0.2
				c0.3,0.5,0.7,1.3,0.8,1.8l-0.8,0.3h1.9c0.4-0.6,0.8-1.5,1-2.1l1,0.3c-0.3,0.6-0.7,1.3-1,1.9h1.5v1h-2.4V66.3z M711.5,61.6h-6.5
				v-1h2.8v-1.5h-2.4v-1h2.4v-1.5h1v1.5h2.3v1h-2.3v1.5h2.6V61.6z M718.3,62.5c-0.3,1.8-0.9,3.4-1.8,4.9c0.7,0.8,1.5,1.5,2.4,1.9
				c-0.3,0.2-0.6,0.6-0.8,0.9c-0.8-0.5-1.6-1.1-2.2-1.9c-0.6,0.8-1.4,1.5-2.2,2c-0.1-0.2-0.3-0.4-0.5-0.6v0.5h-1v-13h5.8v2.9
				c0,0.6-0.1,0.9-0.6,1s-1.2,0.2-2.4,0.2c0-0.3-0.2-0.7-0.3-1c0.9,0,1.7,0,1.9,0c0.2,0,0.3-0.1,0.3-0.2v-1.8h-3.8v4h4.3l0.2,0
				L718.3,62.5z M713.1,69.4c0.8-0.5,1.5-1.2,2-2c-0.8-1.2-1.5-2.6-1.9-4.2h-0.1V69.4z M714.2,63.3c0.4,1.2,0.9,2.3,1.5,3.2
				c0.6-1,1-2.1,1.3-3.2H714.2z"/>
			<path class="st3" d="M720.3,57.3h5.6v0.9h-1.7v1.9h1.5V70h-0.8v-0.8h-3.4v1h-0.8V60.1h1.4v-1.9h-1.7V57.3z M724.8,68.3v-4h0h-0.6
				c-0.6,0-0.8-0.1-0.8-0.8V61h-0.7v1.2c0,0.9-0.2,2.1-1,2.9c-0.1-0.1-0.2-0.2-0.4-0.3v3.5H724.8z M721.4,61v3.6
				c0.6-0.7,0.7-1.6,0.7-2.3V61H721.4z M721.9,65.9h2.4v0.9h-2.4V65.9z M723.4,58.2h-0.7v1.9h0.7V58.2z M724.8,61H724v2.4
				c0,0.2,0,0.2,0.2,0.2h0.4c0.1,0,0.1,0,0.1,0V61z M727.5,56.9h0.9v6c0,2.8-0.2,5.4-1.8,7.5c-0.2-0.2-0.6-0.5-0.8-0.6
				c1.2-1.5,1.5-3.3,1.6-5.3l-0.7,0.3c-0.1-0.9-0.4-2.3-0.8-3.4l0.7-0.3c0.4,1,0.7,2.4,0.9,3.3c0-0.5,0-1,0-1.4V56.9z M733.4,56.9
				v13.4h-1v-6l-0.6,0.3c-0.2-0.9-0.6-2.1-1-3.2V70H730v-5.7l-0.7,0.3c-0.1-0.9-0.5-2.3-0.8-3.3l0.6-0.3c0.4,1,0.7,2.2,0.8,3.1v-7
				h0.9v4l0.6-0.3c0.4,0.9,0.8,1.9,1,2.8v-6.7H733.4z"/>
			<path class="st3" d="M749.1,67.1H743v3.2h-1.2v-3.2h-6.1v-1h6.1v-1.2h1.2v1.2h6.1V67.1z M739.7,63.2c-1.1,0.6-2.4,1.3-3.3,1.8
				l-0.6-0.9c0.9-0.4,2.3-1,3.7-1.7L739.7,63.2z M744.8,65.1c-0.1-0.2-0.2-0.5-0.4-0.8c-3.9,0.4-4.4,0.4-4.7,0.6
				c-0.1-0.2-0.2-0.7-0.3-1c0.3,0,0.7-0.3,1.2-0.7c0.3-0.2,0.9-0.8,1.6-1.6c-1.7,0.1-2.1,0.2-2.3,0.3c0-0.2-0.2-0.7-0.3-0.9
				c0.2,0,0.4-0.2,0.7-0.5c0.2-0.2,0.7-0.8,1.2-1.5H736v-1h6.1c-0.2-0.4-0.5-0.8-0.7-1.2l1.1-0.3c0.3,0.4,0.7,1,0.9,1.5h5.6v1h-6.3
				c-0.5,0.7-0.9,1.3-1.4,1.8l1.9-0.1c0.3-0.4,0.7-0.8,1-1.2l0.9,0.5c-1.2,1.4-2.5,2.7-3.8,3.7l2.6-0.2c-0.2-0.3-0.5-0.7-0.7-1
				l0.8-0.3c0.7,0.8,1.4,1.8,1.7,2.5L744.8,65.1z M737,59.6c0.8,0.5,1.8,1.2,2.3,1.7l-0.8,0.7c-0.5-0.5-1.4-1.3-2.2-1.8L737,59.6z
				 M748,65.1c-0.6-0.6-1.9-1.5-2.9-2.1l0.8-0.6c1,0.6,2.3,1.4,3,2L748,65.1z M748.2,60.1c-0.7,0.7-1.5,1.4-2.2,1.9l-0.8-0.5
				c0.7-0.5,1.6-1.3,2.1-1.9L748.2,60.1z"/>
		</g>
	</g>
	<g>
		<g>
			<path class="st3" d="M678.8,260.3h-4.3v-0.9h4.3V260.3z M679.9,268.1c-1.2,0.7-3.1,1.4-4.6,1.8c-0.2-0.2-0.6-0.6-0.8-0.8
				c1.5-0.3,3.3-0.9,4.4-1.4L679.9,268.1z M678.4,258h-3.6v-0.9h3.6V258z M676.4,261.5h9.7v6h-9.7V261.5z M677.5,263.3h7.5v-1h-7.5
				V263.3z M677.5,265h7.5v-1h-7.5V265z M677.5,266.8h7.5v-1.1h-7.5V266.8z M681.1,258.1c-0.3,0.6-0.7,1.1-1.1,1.5
				c-0.2-0.2-0.6-0.4-0.8-0.6c0.8-0.7,1.4-1.8,1.7-2.9l1,0.2c-0.1,0.3-0.2,0.6-0.3,0.8h5l0.2,0l0.8,0.3c-0.4,0.8-0.9,1.6-1.3,2.2
				l-0.9-0.3c0.2-0.3,0.5-0.8,0.7-1.2h-2.4v0.2c0,0.2,0,0.3,0,0.5c0.8,0.9,2.4,1.5,4.4,1.7c-0.2,0.2-0.5,0.6-0.6,0.9
				c-1.7-0.2-3.2-0.8-4.1-1.8c-0.5,0.7-1.7,1.4-4.3,1.8c-0.1-0.2-0.4-0.6-0.6-0.8c3.9-0.5,4.2-1.5,4.2-2.3v-0.2H681.1z M683.4,267.6
				c1.6,0.5,3.4,1.1,4.4,1.6l-1,0.6c-1-0.5-2.6-1.1-4.2-1.7L683.4,267.6z"/>
			<path class="st3" d="M698.4,260.5c1.1,2.5,3,4.9,5,6.1c-0.3,0.2-0.7,0.6-0.9,0.9c-2.2-1.4-4.2-4.1-5.3-7h-0.2v5.5h3.5v1.1h-3.5
				v2.8h-1.2v-2.8h-3.5V266h3.5v-5.5h-0.2c-1.2,2.9-3.1,5.6-5.2,7.1c-0.2-0.3-0.5-0.7-0.8-0.9c2-1.2,3.8-3.6,4.9-6.2H690v-1.1h5.9
				v-3.1h1.2v3.1h5.9v1.1H698.4z"/>
			<path class="st3" d="M709.4,260.7h3.1v1h-3.1v0.4c0.7,0.7,2.4,2.4,2.9,2.8l-0.7,0.9c-0.5-0.6-1.5-1.7-2.2-2.5v6.5h-1.1v-6.4
				c-0.8,1.7-1.8,3.4-2.8,4.4c-0.1-0.3-0.4-0.8-0.6-1c1.2-1.1,2.5-3.2,3.2-5.1h-2.9v-1h3.2v-2.5c-1,0.2-2,0.3-2.9,0.5
				c0-0.3-0.2-0.6-0.3-0.9c2.2-0.3,4.8-0.8,6.2-1.5l0.8,0.9c-0.7,0.3-1.7,0.6-2.7,0.8V260.7z M714.7,266.2h-1.1V258h1.1V266.2z
				 M717.9,256.4v12c0,0.8-0.2,1.1-0.7,1.3c-0.5,0.2-1.3,0.2-2.7,0.2c-0.1-0.3-0.2-0.8-0.4-1.1c1,0,2,0,2.3,0c0.3,0,0.4-0.1,0.4-0.4
				v-12H717.9z"/>
			<path class="st3" d="M724.6,259.9c-0.3,0.6-0.8,1.2-1.2,1.8v8.1h-1.1V263c-0.6,0.6-1.2,1.2-1.8,1.6c-0.1-0.2-0.4-0.8-0.6-1.1
				c1.3-1,2.8-2.5,3.7-4L724.6,259.9z M724.4,256.7c-0.9,1.3-2.3,2.7-3.7,3.6c-0.1-0.3-0.4-0.7-0.6-0.9c1.2-0.8,2.5-2,3.2-3.1
				L724.4,256.7z M733.8,265.8h-2.2v2.9c0,0.6-0.1,0.9-0.6,1.1c-0.5,0.2-1.2,0.2-2.3,0.2c0-0.3-0.2-0.7-0.4-1c0.8,0,1.6,0,1.8,0
				c0.2,0,0.3-0.1,0.3-0.3v-2.8h-6v-1h6v-1.3h-5.7v-1h8.7v1h-2v1.3h2.2V265.8z M732.9,261.6h-7.1v-4.9h7.1V261.6z M726.6,266
				c0.7,0.6,1.5,1.5,1.9,2.1l-0.9,0.6c-0.4-0.6-1.2-1.5-1.8-2.2L726.6,266z M731.8,257.5h-4.9v1.2h4.9V257.5z M731.8,259.5h-4.9v1.2
				h4.9V259.5z"/>
		</g>
	</g>
	<rect y="246.4" class="st10" width="816" height="1.5"/>
</g>
</svg>
