<?xml version="1.0" encoding="utf-8"?>
<!-- Generator: Adobe Illustrator 26.3.1, SVG Export Plug-In . SVG Version: 6.00 Build 0)  -->
<svg version="1.1" id="content" xmlns="http://www.w3.org/2000/svg" xmlns:xlink="http://www.w3.org/1999/xlink" x="0px" y="0px"
	 viewBox="0 0 432 420" style="enable-background:new 0 0 432 420;" xml:space="preserve">
<style type="text/css">
	.st0{fill:#FF8920;}
	.st1{fill:#FFB37B;}
	.st2{fill:#FF9D4D;}
	.st3{fill:#FFFFFF;}
</style>
<g>
	<polygon class="st0" points="216,0 141,145.9 291,145.9 	"/>
	<polygon class="st1" points="0.2,420 431.8,420 362.9,285.9 69.1,285.9 	"/>
	<polygon class="st2" points="141,145.9 69.1,285.9 362.9,285.9 291,145.9 	"/>
	<g>
		<path class="st3" d="M200.2,99.5h-7.9l-1.7,4.8h-3.7l7.7-20.5h3.2l7.8,20.5h-3.7L200.2,99.5z M193.3,96.7h5.9l-3-8.5L193.3,96.7z"
			/>
		<path class="st3" d="M220,99.5H212l-1.7,4.8h-3.7l7.7-20.5h3.2l7.8,20.5h-3.7L220,99.5z M213,96.7h5.9l-3-8.5L213,96.7z"/>
		<path class="st3" d="M239.7,99.5h-7.9l-1.7,4.8h-3.7l7.7-20.5h3.2l7.8,20.5h-3.7L239.7,99.5z M232.8,96.7h5.9l-3-8.5L232.8,96.7z"
			/>
	</g>
	<g>
		<path class="st3" d="M220,359H212l-1.7,4.8h-3.7l7.7-20.5h3.2l7.8,20.5h-3.7L220,359z M213,356.1h5.9l-3-8.5L213,356.1z"/>
	</g>
	<g>
		<path class="st3" d="M210.1,224.4h-7.9l-1.7,4.8h-3.7l7.7-20.5h3.2l7.8,20.5h-3.7L210.1,224.4z M203.1,221.5h5.9l-3-8.5
			L203.1,221.5z"/>
		<path class="st3" d="M229.8,224.4h-7.9l-1.7,4.8h-3.7l7.7-20.5h3.2l7.8,20.5h-3.7L229.8,224.4z M222.9,221.5h5.9l-3-8.5
			L222.9,221.5z"/>
	</g>
</g>
</svg>
