<svg xmlns="http://www.w3.org/2000/svg" viewBox="0 0 33 33"><path d="M32.5 14.2c0-7.2-7.2-13-16-13S.5 7 .5 14.2C.5 20.6 6.2 26 13.9 27c.5.1 1.2.3 1.4.8.1.5.1 1 .1 1.4l-.2 1.4c-.1.4-.3 1.6 1.4.9 1.7-.7 9.2-5.4 12.6-9.3 2-2.1 3.2-4.9 3.3-8zm-21.6 3.9c0 .2-.1.3-.3.3H6.1c-.1 0-.2 0-.2-.1-.1-.1-.1-.1-.1-.2v-7c0-.2.1-.3.3-.3h1.1c.2 0 .3.1.3.3v5.5h3c.2 0 .3.1.3.3l.1 1.2zm2.7 0c0 .2-.1.3-.3.3h-1.1c-.2 0-.3-.1-.3-.3v-7c0-.2.1-.3.3-.3h1.1c.2 0 .3.1.3.3v7zm7.7 0c0 .2-.1.3-.3.3h-1.3l-.1-.1-3.2-4.3v4.1c0 .2-.1.3-.3.3H15c-.2 0-.3-.1-.3-.3v-7c0-.2.1-.3.3-.3h1.3l3.2 4.3v-4c0-.2.1-.3.3-.3H21c.2 0 .3.1.3.3v7zm6.2-5.9c0 .2-.1.3-.3.3h-3.1v1.2h3c.2 0 .3.1.3.3v1.1c0 .2-.1.3-.3.3h-3v1.2h3c.2 0 .3.1.3.3V18c0 .2-.1.3-.3.3h-4.5c-.1 0-.2 0-.2-.1-.1-.1-.1-.1-.1-.2v-7c0-.1 0-.2.1-.2.1-.1.1-.1.2-.1h4.5c.2 0 .3.1.3.3l.1 1.2z" fill="#fff"/></svg>