<svg id="_圖層_1" xmlns="http://www.w3.org/2000/svg" viewBox="0 0 107.74 84.57"><defs><style>.cls-5,.cls-7{stroke-width:0}.cls-5{fill:#7eca78}.cls-7{fill:#8ed78f}</style></defs><path class="cls-7" d="M25.52 0L0 45.45c24.51 18.08 52.58 31.44 82.22 39.12l25.52-45.45C78.1 31.44 50.03 18.08 25.52 0z"/><path d="M92.42 34.48c-7.15-2.5-14.22-5.18-21.2-8.04" fill="none" stroke-linecap="round" stroke-linejoin="round" stroke-width=".86" stroke="#0154b1"/><path d="M77.69 79.63C52.8 72.52 28.46 60.98 7.31 46.26l-1.37-.95c-.72-.5-.93-1.46-.5-2.22L25.71 6.97a1.74 1.74 0 012.5-.59l1.7 1.17c20.59 14.12 44.17 25.4 68.21 32.61l2.2.66c1.05.31 1.53 1.5.99 2.46L81.13 79.23c-.39.7-1.23 1.05-2 .82l-1.44-.41z" stroke="#adeeab" fill="none" stroke-linecap="round" stroke-linejoin="round" stroke-width=".86"/><path d="M78.72 76.2C54.09 69.16 30.33 57.9 9.4 43.33l18.44-32.85C48.86 24.9 72.5 36.2 97.04 43.56L78.72 76.19z" stroke-width="0" fill="#70bb64"/><ellipse class="cls-7" cx="50.68" cy="43.77" rx="14.91" ry="13.33" transform="rotate(-56.77 50.68 43.776)"/><ellipse cx="50.68" cy="43.77" rx="12.2" ry="10.91" transform="rotate(-56.77 50.68 43.776)" stroke="#70bb64" fill="none" stroke-linecap="round" stroke-linejoin="round" stroke-width=".86"/><path class="cls-7" d="M33.85 35.32c-2 3.47-6.17 4.87-9.3 3.12-3.13-1.75-4.05-5.98-2.04-9.45 2-3.47 6.17-4.87 9.3-3.12 3.13 1.75 4.05 5.98 2.04 9.45z"/><path class="cls-5" d="M32.21 34.4c-1.42 2.47-4.38 3.46-6.61 2.22-2.23-1.24-2.88-4.25-1.45-6.72 1.42-2.47 4.38-3.46 6.61-2.22 2.23 1.24 2.88 4.25 1.45 6.72z"/><path class="cls-7" d="M80.97 58.81c-2 3.47-6.17 4.87-9.3 3.12-3.13-1.75-4.05-5.98-2.04-9.45 2-3.47 6.17-4.87 9.3-3.12 3.13 1.75 4.05 5.98 2.04 9.45z"/><path class="cls-5" d="M79.33 57.9c-1.42 2.47-4.38 3.46-6.61 2.22-2.23-1.24-2.88-4.25-1.45-6.72s4.38-3.46 6.61-2.22c2.23 1.24 2.88 4.25 1.45 6.72z"/><path d="M46.62 50.01c-1.05-.59-1.98-1.28-2.8-2.09-.82-.81-1.39-1.59-1.74-2.35l2.28-1.59c.33.69.81 1.37 1.45 2.04.64.68 1.35 1.23 2.13 1.67.6.34 1.12.55 1.56.63.44.09.8.08 1.09-.02.29-.1.51-.28.66-.54.19-.33.21-.67.04-1.02-.16-.35-.44-.71-.82-1.09s-.81-.78-1.29-1.19c-.47-.41-.93-.85-1.39-1.32-.45-.46-.83-.96-1.13-1.48-.3-.52-.46-1.07-.48-1.66-.02-.58.16-1.2.53-1.85.41-.71.99-1.25 1.73-1.61.74-.36 1.62-.49 2.64-.38 1.02.11 2.15.51 3.39 1.2.83.46 1.59 1.01 2.28 1.65.7.64 1.24 1.31 1.64 2l-2.21 1.63c-.4-.65-.87-1.23-1.4-1.74-.53-.51-1.09-.93-1.66-1.25-.6-.34-1.12-.54-1.55-.62-.44-.08-.8-.06-1.09.06-.29.12-.51.31-.66.57-.19.33-.21.68-.05 1.03.16.36.43.72.82 1.08.38.36.82.76 1.31 1.18.48.42.95.86 1.39 1.33.44.47.81.95 1.12 1.46.3.51.47 1.06.5 1.65.03.59-.14 1.21-.51 1.85-.4.7-.98 1.23-1.72 1.58-.74.35-1.63.48-2.66.37-1.03-.11-2.17-.5-3.4-1.2zm-1.8 1.53l9.65-16.71 1.89 1.06-9.65 16.71-1.89-1.06z" fill="#589c4b" stroke-width="0"/></svg>