<svg width="51" height="54" viewBox="0 0 51 54" fill="none" xmlns="http://www.w3.org/2000/svg"><g clip-path="url(#clip0_1597_631)"><path d="M14.15 49.58l-6.47-4.73L34.89 3.01l6.47 4.73C51.3 15 53.27 30.25 45.75 41.8c-7.51 11.55-21.66 15.04-31.6 7.78z" fill="#F9AA40"/><mask id="mask0_1597_631" style="mask-type:luminance" maskUnits="userSpaceOnUse" x="7" y="3" width="44" height="51"><path d="M14.15 49.58l-6.47-4.73L34.89 3.01l6.47 4.73C51.3 15 53.27 30.25 45.75 41.8c-7.51 11.55-21.66 15.04-31.6 7.78z" fill="#fff"/></mask><g mask="url(#mask0_1597_631)"><path d="M32.37 59.7L11.52 44.47l1.37-2.11 20.85 15.23-1.37 2.11zm10.54-5.05L22.06 39.42l-1.37 2.11 20.85 15.23 1.37-2.11zm9.17-2.94L31.23 36.48l-1.37 2.11 20.85 15.23 1.37-2.11zm3.73-28.04L34.96 8.44l-1.37 2.11 20.85 15.23 1.37-2.11zm.67 10.12L35.63 18.56l-1.37 2.11L55.11 35.9l1.37-2.11zm.67 10.12L36.3 28.68l-1.37 2.11 20.85 15.23 1.37-2.11z" fill="#F4982A"/></g><path d="M43.56 33.399c5.137-12.87.1-26.975-11.252-31.506C20.957-2.638 7.591 4.12 2.454 16.99c-5.137 12.87-.1 26.975 11.252 31.506 11.35 4.531 24.717-2.229 29.854-15.098z" fill="#FFCF57"/><path d="M21.208 50.33a20.6 20.6 0 01-5.85-.85.358.358 0 01-.24-.44c.06-.19.25-.29.44-.24 9.19 2.74 19.34-1.52 25.24-10.6 7.4-11.38 5.47-26.45-4.31-33.58a.35.35 0 11.41-.57c10.07 7.35 12.08 22.84 4.48 34.53-4.85 7.45-12.48 11.74-20.18 11.74l.01.01z" fill="#DF9039"/><path d="M37.043 31.762c4.64-9.676 1.833-20.67-6.269-24.555-8.102-3.886-18.432.808-23.072 10.484-4.64 9.676-1.833 20.67 6.27 24.555 8.101 3.886 18.431-.809 23.071-10.484z" fill="#FFBD39"/><path d="M11.798 41.29c-.07 0-.14-.02-.21-.07-7.43-5.42-8.66-17.24-2.74-26.34 4.08-6.28 10.62-9.87 17.04-9.35.19.02.34.18.32.38-.02.19-.19.34-.38.32-6.17-.5-12.45 2.97-16.4 9.03-5.72 8.79-4.57 20.19 2.57 25.4.16.11.19.33.08.49a.35.35 0 01-.28.14z" fill="#DF9039"/><path d="M27.43 16.48c1.19.87 2.23 1.87 3.11 3.01.88 1.14 1.48 2.22 1.8 3.24L29.4 24.6c-.31-.93-.81-1.87-1.49-2.82-.68-.95-1.47-1.75-2.36-2.4-.68-.5-1.28-.82-1.8-.98-.51-.16-.95-.18-1.31-.08-.36.1-.64.32-.86.64-.27.42-.33.86-.18 1.34.15.47.44.98.85 1.51.42.53.88 1.1 1.4 1.68.52.59 1.02 1.21 1.51 1.86.49.65.88 1.33 1.18 2.05.3.71.42 1.45.37 2.22-.05.77-.34 1.56-.87 2.38-.58.89-1.34 1.54-2.27 1.95-.93.41-2.01.49-3.22.25-1.21-.24-2.52-.87-3.93-1.9-.94-.68-1.78-1.48-2.54-2.39-.76-.91-1.33-1.83-1.72-2.78l2.86-1.93c.41.89.9 1.69 1.48 2.41.58.72 1.19 1.32 1.85 1.79.68.5 1.28.82 1.79.96s.95.15 1.32.02c.36-.13.66-.36.87-.68.27-.42.33-.87.19-1.35-.15-.48-.43-.98-.85-1.49a49.3 49.3 0 00-1.43-1.67c-.53-.6-1.03-1.22-1.51-1.88-.47-.65-.86-1.33-1.16-2.02-.3-.69-.44-1.43-.4-2.21.03-.78.31-1.57.84-2.37.57-.88 1.33-1.52 2.26-1.91.94-.39 2.02-.47 3.24-.24 1.23.24 2.54.87 3.95 1.89l-.03.03zm2.36-1.84L16.12 35.66l-2.15-1.57 13.67-21.02 2.15 1.57z" fill="#F98130"/><path d="M20.718 44.07c-.89 0-1.77-.09-2.62-.27a.349.349 0 01-.27-.41c.04-.19.23-.31.41-.27 3.73.78 7.93-.27 11.54-2.89a.35.35 0 11.41.57c-2.95 2.14-6.29 3.27-9.48 3.27h.01z" fill="#DF9039"/></g><defs><clipPath id="clip0_1597_631"><path fill="#fff" d="M0 0h51v54H0z"/></clipPath></defs></svg>