<svg id="_圖層_1" xmlns="http://www.w3.org/2000/svg" viewBox="0 0 152.33 116.3"><defs><style>.cls-10,.cls-13,.cls-3,.cls-9{stroke-width:0}.cls-3{fill:#df9039}.cls-9{fill:#70bb64}.cls-10{fill:#7eca78}.cls-13{fill:#8ed78f}</style></defs><path class="cls-13" d="M48.29 0L0 36.42c17.63 30.63 41.24 57.91 69.17 79.88l48.29-36.42C89.53 57.91 65.92 30.63 48.29 0z"/><path d="M103.34 68.31c-.12 0-.24-.04-.34-.13-6.4-5.96-12.73-12.17-18.81-18.44-.19-.2-.19-.51.01-.71s.51-.19.71.01a525.4 525.4 0 0018.77 18.4c.2.19.21.5.03.71-.1.11-.23.16-.37.16z" stroke-width="0" fill="#0154b1"/><path d="M69.28 111.01c-.57 0-1.14-.19-1.61-.58l-1.34-1.11C43.15 90.13 22.62 66.49 6.96 40.94l-1.01-1.65c-.67-1.09-.4-2.49.62-3.26L44.95 7.09a2.523 2.523 0 013.66.67l1.26 2.03c15.27 24.56 35.05 47.49 57.2 66.31l2.03 1.73c.58.49.89 1.2.87 1.95-.02.75-.38 1.44-.99 1.9l-38.2 28.81c-.45.34-.99.51-1.52.51zm-2.31-2.46l1.34 1.11c.54.45 1.33.46 1.89.04l38.2-28.81c.36-.27.57-.68.59-1.13.01-.45-.18-.87-.52-1.16l-2.03-1.73c-22.22-18.89-42.07-41.9-57.4-66.54L47.78 8.3c-.22-.36-.58-.6-1.01-.68-.43-.08-.86.02-1.2.28L7.18 36.84c-.61.46-.77 1.29-.37 1.93l1.01 1.65c15.6 25.45 36.05 49.01 59.15 68.13z" fill="#adeeab" stroke-width="0"/><path class="cls-9" d="M69.34 105.77c-22.9-18.96-42.9-41.99-58.37-67.22l34.91-26.33c15.63 25.12 35.49 48.14 58.14 67.4l-34.68 26.15z"/><ellipse class="cls-13" cx="54.65" cy="58.24" rx="17.3" ry="15.47" transform="rotate(-33.1 54.655 58.248)"/><path class="cls-9" d="M53.26 71.86c-4.08 0-7.95-1.68-10.42-4.93-1.97-2.6-2.78-5.88-2.29-9.24.56-3.86 2.8-7.49 6.15-9.95 6.5-4.79 15.37-3.97 19.75 1.81 1.97 2.6 2.78 5.88 2.29 9.24-.56 3.86-2.8 7.49-6.15 9.95-2.85 2.1-6.15 3.12-9.33 3.12zm2.78-26.24c-2.97 0-6.07.96-8.74 2.93-3.13 2.3-5.23 5.69-5.75 9.29-.45 3.1.3 6.11 2.1 8.49 4.05 5.35 12.29 6.07 18.36 1.61 3.13-2.3 5.23-5.69 5.75-9.29.45-3.1-.3-6.11-2.1-8.49-2.27-2.99-5.84-4.54-9.61-4.54z"/><path class="cls-13" d="M40.7 41.42c-3.75 2.76-8.82 2.3-11.34-1.02-2.51-3.32-1.51-8.24 2.23-11 3.75-2.76 8.82-2.3 11.34 1.02 2.51 3.32 1.51 8.24-2.23 11z"/><path class="cls-10" d="M39.38 39.68c-2.66 1.96-6.27 1.63-8.06-.72-1.79-2.36-1.08-5.86 1.59-7.82 2.66-1.96 6.27-1.63 8.06.72 1.79 2.36 1.08 5.86-1.59 7.82z"/><path class="cls-13" d="M79.84 88.34c-3.75 2.76-8.82 2.3-11.34-1.02-2.51-3.32-1.51-8.24 2.23-11 3.75-2.76 8.82-2.3 11.34 1.02 2.51 3.32 1.51 8.24-2.23 11z"/><path class="cls-10" d="M78.52 86.6c-2.66 1.96-6.27 1.63-8.06-.72-1.79-2.36-1.08-5.86 1.59-7.82s6.27-1.63 8.06.72c1.79 2.36 1.08 5.86-1.59 7.82z"/><path d="M47.42 62.99c-.84-1.11-1.51-2.29-2-3.53-.49-1.24-.74-2.34-.75-3.3l3.17-.63c.03.88.23 1.83.59 2.85.36 1.01.86 1.94 1.49 2.77.48.64.94 1.1 1.36 1.4.42.3.81.46 1.16.49.35.03.67-.06.95-.27.36-.26.53-.62.52-1.07 0-.45-.13-.96-.36-1.54s-.5-1.2-.81-1.86c-.31-.66-.6-1.34-.86-2.04s-.44-1.4-.51-2.1c-.08-.7 0-1.36.26-1.98.25-.63.73-1.2 1.43-1.72.77-.56 1.63-.87 2.58-.91.95-.04 1.95.23 2.98.82s2.05 1.54 3.04 2.85c.66.88 1.21 1.81 1.66 2.82.44 1 .71 1.97.81 2.89l-3.11.71c-.13-.88-.35-1.71-.68-2.5-.33-.79-.72-1.49-1.19-2.1-.48-.64-.94-1.1-1.36-1.38-.43-.29-.82-.43-1.19-.44-.37 0-.69.09-.97.3-.36.26-.54.62-.53 1.07 0 .45.12.96.37 1.53.24.57.52 1.19.84 1.86.32.67.6 1.36.86 2.06.25.7.42 1.39.51 2.07.09.68 0 1.34-.23 1.98-.24.64-.71 1.22-1.4 1.73-.76.56-1.61.85-2.56.88-.95.03-1.95-.25-3-.84s-2.07-1.55-3.06-2.86zm-2.63.79l18.04-13.27 1.52 2.01-18.04 13.27-1.52-2.01z" fill="#589c4b" stroke-width="0"/><path d="M140.19 50.25l6.59 6.46-37.97 43.15-6.59-6.46c-10.12-9.92-9.82-27.63.66-39.55 10.49-11.92 27.19-13.53 37.31-3.61z" fill="#f9aa40" stroke-width="0"/><path d="M101.07 56.1c-.59.8-1.13 1.62-1.63 2.46l12.04 11.81 1.92-2.17-12.33-12.1zm-4.39 8.25c-.37 1.03-.69 2.08-.94 3.13l14.82 14.54 1.92-2.17-15.8-15.5zm-1.86 10.73c.01 1.49.13 2.98.38 4.43l14.44 14.16 1.92-2.18-16.74-16.41zm13.92-26.43c-.79.54-1.57 1.13-2.33 1.76l12.15 11.92 1.91-2.18-11.73-11.5zm8.7-4.03c-1.04.28-2.07.63-3.09 1.03l15.14 14.86 1.92-2.18-13.97-13.71zm12.7-.09c-1.6-.43-3.24-.68-4.91-.76l15.2 14.91 1.92-2.18-12.21-11.97z" fill="#f4982a" stroke-width="0"/><path d="M146.78 56.71l-37.97 43.15-6.59-6.46c-3.83-3.75-6.17-8.63-7.02-13.89-.25-1.45-.37-2.94-.38-4.43-.02-2.52.29-5.08.92-7.6.25-1.05.57-2.1.94-3.13.71-1.99 1.63-3.93 2.76-5.79a31.816 31.816 0 013.44-4.71c1.11-1.26 2.29-2.41 3.53-3.44.76-.63 1.54-1.22 2.33-1.76 1.8-1.23 3.68-2.23 5.61-3 1.02-.4 2.05-.75 3.09-1.03 2.58-.68 5.21-.97 7.79-.85 1.67.08 3.31.33 4.91.76 3.69.97 7.14 2.87 10.05 5.72l6.59 6.46z" fill="none" stroke-width="0"/><ellipse cx="125.94" cy="76.47" rx="28.9" ry="25.49" transform="rotate(-59.93 125.937 76.467)" fill="#ffcf57" stroke-width="0"/><path class="cls-3" d="M106.95 98.45c-.1 0-.2-.04-.28-.12-10.25-10.06-9.96-28.05.64-40.1 8.48-9.64 21.13-12.89 31.48-8.08.2.09.29.33.2.54-.09.2-.34.29-.54.2-10.02-4.66-22.29-1.49-30.53 7.88-10.33 11.74-10.64 29.23-.68 38.99.16.16.16.41 0 .57a.4.4 0 01-.29.12z"/><ellipse cx="126.71" cy="77.22" rx="22.37" ry="18.74" transform="rotate(-56.07 126.708 77.221)" fill="#ffbd39" stroke-width="0"/><path class="cls-3" d="M123.5 98.94c-1.35 0-2.7-.15-4.02-.45a.4.4 0 01-.3-.48c.05-.22.27-.36.48-.3 6.95 1.59 14.68-1.31 20.19-7.57 7.98-9.07 8.57-22.25 1.3-29.37-.16-.16-.16-.41 0-.57s.41-.16.57 0c7.56 7.42 7 21.09-1.26 30.48-4.66 5.3-10.89 8.27-16.96 8.27z"/><path d="M119.55 85.75a17.727 17.727 0 01-3.04-3.95c-.81-1.44-1.32-2.78-1.51-3.99l3.67-1.64c.2 1.12.61 2.27 1.23 3.46s1.38 2.24 2.29 3.13c.69.68 1.32 1.15 1.88 1.42.56.26 1.05.37 1.48.31.43-.05.79-.25 1.08-.59.38-.43.52-.93.43-1.49-.09-.56-.34-1.19-.72-1.87-.39-.68-.82-1.4-1.32-2.15-.49-.75-.96-1.54-1.41-2.37-.45-.82-.78-1.67-1-2.53a5.67 5.67 0 01-.06-2.59c.18-.87.65-1.72 1.39-2.57.81-.92 1.78-1.54 2.92-1.84 1.13-.31 2.37-.23 3.71.25 1.34.47 2.73 1.41 4.16 2.81.95.94 1.79 1.98 2.5 3.14.71 1.16 1.22 2.31 1.5 3.45l-3.58 1.73c-.31-1.08-.74-2.08-1.28-2.99-.54-.92-1.14-1.7-1.8-2.35-.69-.68-1.32-1.15-1.88-1.39-.56-.25-1.06-.33-1.5-.25-.44.09-.81.3-1.1.64-.38.43-.52.93-.44 1.51.09.57.33 1.19.72 1.84.39.65.84 1.37 1.35 2.14.51.77.97 1.57 1.41 2.39.43.82.76 1.65.99 2.5.23.84.26 1.7.09 2.58-.17.88-.62 1.74-1.35 2.57-.8.91-1.77 1.51-2.9 1.8-1.13.29-2.38.2-3.74-.27-1.36-.47-2.75-1.41-4.18-2.81zm-2.99 1.71l19.07-21.68 2.19 2.15-19.07 21.68-2.19-2.15z" fill="#f98130" stroke-width="0"/><path class="cls-3" d="M120.64 58.34a.41.41 0 01-.36-.22c-.1-.2-.03-.44.17-.54 4.75-2.49 9.96-3 14.29-1.41.21.08.32.31.24.52-.08.21-.31.32-.52.24-4.12-1.51-9.09-1.01-13.63 1.37-.06.03-.12.05-.19.05z"/></svg>