<svg width="51" height="52" viewBox="0 0 51 52" fill="none" xmlns="http://www.w3.org/2000/svg"><g clip-path="url(#clip0_1597_632)"><path d="M2.32 35.44l-1.8-7.81L48.47 13.8l1.8 7.81c2.77 11.99-5.72 24.81-18.96 28.63-13.24 3.82-26.22-2.8-28.99-14.79v-.01z" fill="#F9AA40"/><mask id="mask0_1597_632" style="mask-type:luminance" maskUnits="userSpaceOnUse" x="0" y="13" width="51" height="39"><path d="M2.32 35.44l-1.8-7.81L48.47 13.8l1.8 7.81c2.77 11.99-5.72 24.81-18.96 28.63-13.24 3.82-26.22-2.8-28.99-14.79v-.01z" fill="#fff"/></mask><g mask="url(#mask0_1597_632)"><path d="M9.47 55.021l-5.81-25.16 2.42-.7 5.81 25.16-2.42.7zm11.28 3.08l-5.81-25.16-2.42.7 5.81 25.16 2.42-.7zm8.86 3.78l-5.81-25.16-2.42.7 5.81 25.16 2.42-.7zm21.17-18.77l-5.81-25.16-2.42.7 5.81 25.16 2.42-.7zm-6.12 8.1l-5.81-25.16-2.42.7 5.81 25.16 2.42-.7zm-6.12 8.1l-5.81-25.16-2.42.7 5.81 25.16 2.42-.7z" fill="#F4982A"/></g><path d="M35.153 42.501c12.305-6.37 17.726-20.333 12.107-31.187C41.641.46 27.11-3.175 14.805 3.196 2.499 9.566-2.922 23.529 2.697 34.383c5.62 10.854 20.15 14.488 32.456 8.118z" fill="#FFCF57"/><path d="M22.419 46.07c-7.91 0-15.09-3.56-19.13-9.9-.1-.16-.06-.38.11-.48.16-.1.38-.06.48.11 5.16 8.09 15.62 11.5 26.03 8.5 13.04-3.76 21.44-16.42 18.72-28.21-.04-.19.07-.38.26-.42.19-.04.38.07.42.26 2.8 12.15-5.81 25.18-19.21 29.04a27.54 27.54 0 01-7.68 1.11v-.01z" fill="#DF9039"/><path d="M31.286 36.938c9.84-4.281 14.911-14.43 11.327-22.67-3.585-8.24-14.467-11.45-24.308-7.17C8.465 11.38 3.395 21.53 6.98 29.77c3.584 8.24 14.467 11.45 24.307 7.169z" fill="#FFBD39"/><path d="M6.192 27.72c-.16 0-.3-.11-.34-.27-2.07-8.96 4.73-18.7 15.17-21.71 7.2-2.08 14.48-.51 19 4.08.14.14.13.36 0 .5s-.36.13-.5 0c-4.34-4.41-11.36-5.9-18.31-3.9C11.132 9.33 4.552 18.7 6.532 27.3c.04.19-.07.38-.26.42h-.08z" fill="#DF9039"/><path d="M34.009 19.11c.33 1.44.46 2.87.38 4.31-.08 1.44-.33 2.65-.76 3.63l-3.45-.51c.37-.91.61-1.95.72-3.11.11-1.16.03-2.28-.22-3.36-.19-.82-.43-1.46-.72-1.92-.29-.45-.6-.76-.94-.92a1.46 1.46 0 00-1.07-.07c-.48.14-.81.44-1.01.89-.19.46-.31 1.03-.34 1.7-.04.68-.05 1.41-.04 2.19 0 .78-.02 1.58-.08 2.39a9.83 9.83 0 01-.45 2.32c-.24.74-.63 1.38-1.17 1.92-.54.55-1.28.96-2.22 1.23-1.02.3-2.02.29-3-.01-.97-.3-1.84-.94-2.6-1.92-.76-.97-1.34-2.31-1.73-4-.26-1.13-.38-2.29-.36-3.47.02-1.18.19-2.26.51-3.23l3.43.41c-.28.94-.43 1.87-.46 2.79-.03.92.04 1.78.22 2.56.19.82.43 1.46.73 1.9.29.45.62.74.98.88s.73.16 1.1.05c.48-.14.82-.44 1.02-.9.2-.46.32-1.02.34-1.69.02-.66.03-1.39.01-2.19-.01-.8.02-1.6.09-2.41.07-.8.22-1.57.44-2.29.23-.72.61-1.37 1.14-1.93.53-.57 1.26-.98 2.19-1.25 1.01-.29 2-.28 2.96.04.97.31 1.83.96 2.61 1.94.77.98 1.36 2.32 1.75 4.01v.02zm2.99.15l-24.09 6.95-.6-2.59 24.09-6.95.6 2.59z" fill="#F98130"/><path d="M20.221 39.299h-.03c-4.64-.4-8.69-2.46-11.11-5.64a.343.343 0 01.07-.49c.15-.12.37-.09.49.07 2.3 3.03 6.17 4.99 10.62 5.37.19.02.34.19.32.38-.02.18-.17.32-.35.32l-.01-.01z" fill="#DF9039"/></g><defs><clipPath id="clip0_1597_632"><path fill="#fff" d="M0 0h51v52H0z"/></clipPath></defs></svg>