<svg id="_圖層_1" xmlns="http://www.w3.org/2000/svg" viewBox="0 0 190.49 127.03"><defs><style>.cls-12,.cls-3,.cls-8,.cls-9{stroke-width:0}.cls-3{fill:#df9039}.cls-8{fill:#70bb64}.cls-9{fill:#7eca78}.cls-12{fill:#8ed78f}</style></defs><path class="cls-12" d="M59.63 70.49l36.62 56.54c35.43-17.15 67.61-41.21 94.24-70.49L153.87 0c-26.63 29.27-58.81 53.34-94.24 70.49z"/><path d="M117.38 34.69c-.16 0-.32-.07-.43-.2-.2-.24-.17-.59.07-.78 7.42-6.23 14.8-12.76 21.93-19.39.22-.21.58-.2.79.03.21.23.2.58-.03.79a591.143 591.143 0 01-21.97 19.43c-.1.09-.23.13-.36.13z" stroke-width="0" fill="#0154b1"/><path d="M98.66 120.96c-.9 0-1.78-.45-2.3-1.26l-29.1-44.94a2.81 2.81 0 011.04-4.01l2.36-1.24c28.49-15.02 55.54-35.17 78.21-58.27l2.08-2.12c.59-.6 1.4-.9 2.24-.81.83.08 1.57.54 2.03 1.25l28.96 44.72c.71 1.1.58 2.53-.33 3.47l-1.34 1.4c-23.15 24.23-51.05 45.15-80.67 60.52l-1.91.99c-.4.21-.84.31-1.26.31zM152.9 9.4c-.44 0-.85.17-1.17.49l-2.08 2.12C126.9 35.2 99.76 55.42 71.16 70.49l-2.36 1.24c-.42.22-.72.6-.84 1.06-.12.46-.04.96.22 1.36l29.1 44.94c.46.71 1.37.96 2.12.57l1.91-.99c29.52-15.31 57.31-36.16 80.38-60.3l1.34-1.4c.54-.56.62-1.45.2-2.1l-28.96-44.72a1.62 1.62 0 00-1.21-.74h-.17z" fill="#adeeab" stroke-width="0"/><path class="cls-8" d="M178.8 55.51c-22.88 23.94-50.06 44.32-79.32 59.5L73.01 74.14c29.15-15.36 56.3-35.6 79.49-59.23l26.29 40.6z"/><ellipse class="cls-12" cx="124.84" cy="68.06" rx="17.23" ry="19.27" transform="rotate(-29.01 124.838 68.052)"/><path class="cls-8" d="M126.22 84.01c-1.03 0-2.07-.11-3.11-.34-4.25-.93-8.09-3.71-10.56-7.62-4.8-7.61-3.19-17.38 3.58-21.79 3.04-1.98 6.75-2.62 10.45-1.81 4.24.93 8.09 3.71 10.56 7.62 4.8 7.61 3.19 17.38-3.58 21.79-2.18 1.42-4.71 2.15-7.33 2.15zm-2.76-30.79c-2.41 0-4.73.67-6.73 1.97-6.27 4.08-7.72 13.17-3.25 20.27 2.31 3.66 5.9 6.26 9.86 7.13 3.4.75 6.81.16 9.6-1.66 6.27-4.08 7.72-13.17 3.25-20.27-2.31-3.66-5.9-6.26-9.86-7.13-.96-.21-1.93-.31-2.88-.31z"/><path class="cls-12" d="M105.04 82.21c2.76 4.38 1.85 9.98-2.03 12.51-3.89 2.53-9.28 1.03-12.04-3.36-2.76-4.38-1.85-9.98 2.03-12.51 3.89-2.53 9.28-1.03 12.04 3.36z"/><path class="cls-9" d="M103 83.54c1.96 3.11 1.32 7.1-1.45 8.89-2.76 1.8-6.59.73-8.56-2.39-1.96-3.11-1.32-7.1 1.44-8.89 2.76-1.8 6.59-.73 8.56 2.39z"/><path class="cls-12" d="M160.28 42.47c2.76 4.38 1.85 9.98-2.03 12.51-3.89 2.53-9.28 1.03-12.04-3.36-2.76-4.38-1.85-9.98 2.03-12.51 3.89-2.53 9.28-1.03 12.04 3.36z"/><path class="cls-9" d="M158.24 43.79c1.96 3.11 1.32 7.1-1.45 8.89-2.76 1.8-6.59.73-8.56-2.39-1.96-3.11-1.32-7.1 1.44-8.89 2.76-1.8 6.59-.73 8.56 2.39z"/><path d="M129.53 76.46c-1.3.85-2.66 1.49-4.08 1.94-1.42.45-2.66.64-3.73.57l-.45-3.57c.98.04 2.05-.11 3.21-.43 1.16-.32 2.22-.8 3.2-1.43.75-.49 1.3-.95 1.66-1.4.36-.45.57-.86.64-1.25.06-.39-.01-.75-.22-1.08-.26-.42-.64-.64-1.14-.67-.5-.02-1.08.07-1.74.28s-1.38.46-2.13.76c-.76.29-1.54.56-2.34.79-.8.24-1.59.37-2.37.4-.78.03-1.51-.12-2.18-.45-.68-.33-1.28-.9-1.8-1.73a5.1 5.1 0 01-.8-2.94c.03-1.06.41-2.15 1.15-3.25s1.87-2.15 3.41-3.15c1.03-.67 2.11-1.21 3.27-1.62 1.15-.41 2.24-.64 3.27-.67l.54 3.51c-.98.07-1.93.26-2.83.56-.9.3-1.71.69-2.42 1.15-.74.48-1.29.95-1.64 1.4-.35.45-.55.88-.59 1.28-.04.41.04.77.25 1.1.26.42.65.64 1.15.68.5.03 1.08-.06 1.73-.28.65-.22 1.36-.48 2.13-.79.77-.3 1.56-.56 2.36-.79.8-.22 1.58-.36 2.34-.4.76-.04 1.49.1 2.18.42.69.32 1.3.88 1.81 1.69.56.88.81 1.86.77 2.92-.04 1.06-.43 2.15-1.17 3.27s-1.88 2.17-3.42 3.17zm.67 2.98l-13.31-21.1 2.35-1.53 13.31 21.1-2.35 1.53z" fill="#589c4b" stroke-width="0"/><path d="M12.62 35.84l9.65-6.64 44.52 57.81-9.65 6.64C42.31 103.84 20.33 99.16 8.03 83.2-4.26 67.24-2.21 46.03 12.62 35.84z" fill="#f9aa40" stroke-width="0"/><path d="M28.46 73.59L10.39 86c.85.93 1.74 1.81 2.66 2.64L30.7 76.51l-2.24-2.92zm14.29 3.98L19.59 93.49c1.19.71 2.41 1.36 3.66 1.94l21.74-14.94-2.24-2.92zm14.29 3.98L32.5 98.42c1.86.35 3.74.55 5.61.61l21.17-14.56-2.24-2.92zM20.16 62.82L2.98 74.63c.48 1.13 1.02 2.24 1.63 3.34l17.8-12.24-2.25-2.91zm.39-14.07L.08 62.82c.09 1.36.27 2.73.53 4.09l22.18-15.25-2.24-2.91zm.39-14.07l-17.9 12.3c-.92 1.88-1.63 3.87-2.13 5.92l22.27-15.31-2.24-2.91z" fill="#f4982a" stroke-width="0"/><ellipse cx="41.82" cy="59.98" rx="32.36" ry="36.68" transform="rotate(-48.87 41.822 59.986)" fill="#ffcf57" stroke-width="0"/><path class="cls-3" d="M46.19 94.77c-11.59 0-23.65-5.66-31.63-16.03-9.95-12.92-10.91-29.47-2.4-41.19.17-.23.49-.28.71-.11.23.17.28.49.11.72-8.24 11.35-7.28 27.41 2.39 39.96C27.48 93.85 49.2 98.49 63.78 88.46c.23-.16.55-.1.71.13.16.23.1.55-.13.71-5.38 3.7-11.71 5.47-18.18 5.47z"/><ellipse cx="42.94" cy="59.2" rx="23.79" ry="28.4" transform="rotate(-45.02 42.942 59.204)" fill="#ffbd39" stroke-width="0"/><path class="cls-3" d="M67.22 73.69c-.07 0-.14-.01-.21-.04-.26-.11-.38-.42-.26-.68 3.67-8.27 1.94-18.61-4.51-26.99-9.36-12.15-25.63-16.09-36.27-8.77-.23.16-.55.1-.71-.13-.16-.23-.1-.55.13-.71 11.08-7.62 27.98-3.58 37.66 8.99 6.69 8.68 8.46 19.42 4.64 28.04-.08.19-.27.3-.47.3z"/><path d="M51.82 70.2a22.722 22.722 0 01-5.66 2.83c-2 .66-3.78.97-5.34.91l-1.16-4.97c1.44.02 2.98-.21 4.61-.69 1.64-.48 3.12-1.18 4.46-2.09 1.02-.7 1.76-1.37 2.22-2 .46-.63.71-1.22.75-1.77.04-.54-.12-1.04-.47-1.49-.44-.58-1.03-.87-1.76-.9-.73-.02-1.56.13-2.5.44s-1.94.69-3 1.12a45.5 45.5 0 01-3.29 1.18c-1.13.35-2.27.57-3.4.63-1.13.07-2.21-.12-3.24-.56-1.04-.44-1.99-1.22-2.86-2.36-.95-1.24-1.48-2.6-1.59-4.08-.11-1.48.3-3.01 1.22-4.57.92-1.56 2.42-3.06 4.52-4.5 1.4-.96 2.9-1.74 4.52-2.35 1.62-.61 3.17-.95 4.66-1.03l1.28 4.88c-1.42.13-2.77.42-4.04.87s-2.4 1.01-3.37 1.68c-1.02.7-1.75 1.37-2.19 2-.45.64-.67 1.24-.67 1.81 0 .57.17 1.08.52 1.53.44.58 1.04.88 1.77.91.73.03 1.56-.12 2.47-.45.91-.33 1.91-.71 2.99-1.16 1.08-.44 2.19-.83 3.32-1.17 1.13-.34 2.25-.54 3.35-.63 1.1-.08 2.18.09 3.24.52 1.06.42 2.01 1.19 2.87 2.3.94 1.22 1.45 2.57 1.54 4.05.09 1.48-.32 3.01-1.25 4.59-.92 1.58-2.43 3.09-4.53 4.53zm1.4 4.14L30.86 45.3l3.21-2.2 22.36 29.04-3.21 2.2z" fill="#f98130" stroke-width="0"/><path class="cls-3" d="M17.44 62.59a.51.51 0 01-.49-.37c-1.94-6.52-1.32-13.14 1.72-18.14.15-.24.46-.32.7-.17.24.15.32.46.17.7-2.88 4.76-3.47 11.07-1.61 17.32.08.27-.07.56-.34.64-.05.01-.1.02-.15.02z"/></svg>