<svg id="_圖層_1" xmlns="http://www.w3.org/2000/svg" viewBox="0 0 75.18 71.46"><defs><style>.cls-1{fill:#df9039;stroke-width:0}</style></defs><path d="M10.09 12.37l8.76-7.36 48.7 52-8.76 7.36c-13.45 11.3-35.26 8.82-48.71-5.54-13.45-14.36-13.45-35.16 0-46.46z" fill="#f9aa40" stroke-width="0"/><path d="M29.03 47.57L12.65 61.33c.91.82 1.86 1.59 2.83 2.31l16.01-13.45-2.46-2.62zM43.3 50.1L22.29 67.74c1.23.58 2.49 1.1 3.75 1.54l19.71-16.56-2.45-2.62zm14.26 2.52L35.3 71.31c1.85.17 3.69.19 5.51.07l19.21-16.13-2.46-2.63zm-37.6-14.74L4.37 50.97c.57 1.05 1.2 2.08 1.91 3.09l16.14-13.55-2.46-2.63zm-.95-13.71L.45 39.77c.21 1.31.51 2.62.89 3.92l20.13-16.9-2.46-2.62zm-.94-13.71L1.82 24.11C1.11 26.03.61 28.02.31 30.06l20.21-16.98-2.45-2.62z" fill="#f4982a" stroke-width="0"/><ellipse cx="40.74" cy="33.08" rx="31.59" ry="35.82" transform="rotate(-54.4 40.737 33.087)" fill="#ffcf57" stroke-width="0"/><path class="cls-1" d="M44.85 66.65c-10.27 0-20.98-4.38-28.83-12.77C5.14 42.27 2.64 26.27 9.81 14.09c.14-.24.45-.32.68-.18.24.14.32.45.18.68-6.94 11.8-4.5 27.32 6.08 38.61C30 67.35 51.54 69.81 64.77 58.7c.21-.18.53-.15.7.06s.15.53-.06.7c-5.76 4.84-13.04 7.19-20.56 7.19z"/><ellipse cx="41.76" cy="32.23" rx="23.22" ry="27.73" transform="rotate(-50.54 41.764 32.227)" fill="#ffbd39" stroke-width="0"/><path class="cls-1" d="M66.67 44.02c-.05 0-.11 0-.16-.03a.51.51 0 01-.32-.63c2.79-8.38.14-18.27-6.92-25.81C49.03 6.62 32.85 4.33 23.19 12.44c-.21.18-.53.15-.7-.06a.493.493 0 01.06-.7C32.6 3.23 49.41 5.57 60 16.88c7.31 7.81 10.05 18.08 7.14 26.81-.07.21-.27.34-.47.34z"/><path d="M51.42 42.08a21.92 21.92 0 01-5.24 3.28c-1.88.83-3.58 1.3-5.11 1.39l-1.59-4.72c1.4-.12 2.87-.48 4.42-1.1 1.55-.62 2.92-1.44 4.13-2.45.92-.78 1.58-1.49 1.97-2.15.39-.66.58-1.26.56-1.79-.02-.53-.22-1-.6-1.41-.49-.52-1.08-.75-1.79-.71-.71.05-1.5.27-2.39.67-.88.39-1.82.85-2.81 1.37-.99.52-2.02 1-3.09 1.45-1.07.45-2.15.76-3.24.93-1.09.17-2.16.09-3.2-.24-1.05-.33-2.05-1-3-2.02-1.04-1.11-1.68-2.38-1.93-3.82-.24-1.43 0-2.95.75-4.55.74-1.6 2.07-3.2 3.97-4.8 1.27-1.06 2.66-1.97 4.18-2.71 1.51-.74 2.99-1.22 4.44-1.44l1.71 4.62c-1.37.26-2.65.66-3.85 1.22-1.19.55-2.23 1.21-3.11 1.95-.92.77-1.57 1.49-1.94 2.15-.38.66-.54 1.27-.48 1.82.05.55.27 1.03.65 1.44.49.52 1.09.76 1.81.72.72-.04 1.5-.26 2.36-.67.85-.4 1.79-.87 2.8-1.41 1.01-.53 2.05-1.01 3.12-1.45 1.07-.43 2.13-.74 3.2-.92a6.96 6.96 0 013.2.2c1.07.31 2.07.97 3 1.97 1.02 1.09 1.65 2.36 1.87 3.79.23 1.43-.03 2.96-.78 4.58s-2.07 3.23-3.97 4.83zm1.75 3.89L28.71 19.85l2.91-2.44 24.46 26.12-2.91 2.44z" fill="#f98130" stroke-width="0"/><path class="cls-1" d="M17.25 37.92c-.2 0-.38-.12-.46-.31-2.5-6.16-2.52-12.64-.04-17.79a.5.5 0 11.9.44c-2.36 4.9-2.33 11.09.06 16.98a.501.501 0 01-.46.69z"/></svg>