<svg width="186" height="185" viewBox="0 0 186 185" fill="none" xmlns="http://www.w3.org/2000/svg"><g clip-path="url(#clip0_1599_639)"><path d="M20.71 63.98l31.61 79.08c48.141-12.61 93.931-34.6 134.121-64.4L154.831-.42c-40.19 29.8-85.98 51.79-134.12 64.4z" fill="#8ED78F"/><path d="M133.201 14.29A728.092 728.092 0 01101.23 33" stroke="#0154B1" stroke-width="1.41" stroke-linecap="round" stroke-linejoin="round"/><path d="M175.49 79.36c-34.58 24.35-74.22 43.45-114.65 55.25l-2.61.76a2.76 2.76 0 01-3.34-1.64L29.77 70.88a2.86 2.86 0 011.82-3.79l3.23-.97c39.08-11.68 77.62-30.1 111.45-53.26l3.1-2.12a2.76 2.76 0 014.14 1.26l25 62.55c.49 1.22.07 2.63-1.01 3.39l-2 1.41-.01.01z" stroke="#ADEEAB" stroke-width="1.41" stroke-linecap="round" stroke-linejoin="round"/><path d="M172.19 74.52c-34.23 24.1-72.92 42.74-112.92 54.42L36.43 71.78c39.91-11.93 78.54-30.39 113.07-54.04l22.69 56.78z" fill="#70BB64"/><path d="M109.734 100.003c11.449-3.692 17.383-17.064 13.254-29.869-4.128-12.804-16.756-20.192-28.204-16.501C83.335 57.324 77.4 70.697 81.53 83.501c4.128 12.805 16.756 20.193 28.204 16.502z" fill="#8ED78F"/><path d="M108.367 95.806c9.373-3.022 14.231-13.968 10.852-24.45-3.38-10.48-13.717-16.528-23.089-13.506-9.372 3.022-14.23 13.968-10.851 24.45 3.38 10.48 13.716 16.528 23.088 13.506z" stroke="#70BB64" stroke-width="1.41" stroke-linecap="round" stroke-linejoin="round"/><path d="M74.171 89.62c2.36 6.11-.14 12.84-5.58 15.02-5.44 2.19-11.76-.99-14.12-7.1-2.36-6.11.14-12.84 5.58-15.02 5.44-2.19 11.76.99 14.12 7.1z" fill="#8ED78F"/><path d="M71.32 90.77c1.68 4.34-.1 9.12-3.97 10.68-3.87 1.55-8.36-.71-10.03-5.05-1.68-4.34.1-9.12 3.97-10.68 3.87-1.55 8.36.71 10.03 5.05z" fill="#7ECA78"/><path d="M152.402 53.82c2.36 6.11-.14 12.84-5.58 15.02-5.44 2.19-11.76-.99-14.12-7.11-2.36-6.11.14-12.84 5.58-15.02 5.44-2.19 11.76.99 14.12 7.1v.01z" fill="#8ED78F"/><path d="M149.551 54.96c1.68 4.34-.1 9.12-3.97 10.68-3.87 1.55-8.36-.71-10.03-5.05-1.68-4.34.1-9.12 3.97-10.68 3.87-1.55 8.36.71 10.03 5.05z" fill="#7ECA78"/><path d="M105.961 88.47c-1.82.73-3.67 1.2-5.53 1.41-1.86.21-3.45.14-4.76-.2l.32-4.54c1.21.28 2.57.37 4.09.25 1.51-.11 2.95-.45 4.32-1 1.04-.42 1.84-.86 2.41-1.33.56-.46.92-.93 1.1-1.4.17-.47.17-.93 0-1.39-.23-.58-.64-.95-1.25-1.11-.61-.15-1.35-.18-2.23-.08-.88.1-1.82.24-2.83.41-1.01.18-2.04.31-3.1.41-1.05.1-2.07.07-3.04-.08-.97-.15-1.84-.51-2.6-1.09-.76-.57-1.36-1.43-1.81-2.58a6.49 6.49 0 01-.28-3.85c.3-1.31 1.04-2.56 2.22-3.75 1.18-1.19 2.85-2.21 5-3.08 1.43-.58 2.91-.98 4.45-1.21 1.53-.23 2.94-.24 4.22-.03l-.19 4.49c-1.24-.15-2.45-.15-3.65 0-1.19.15-2.29.43-3.29.83-1.04.42-1.84.87-2.38 1.34-.55.47-.89.95-1.04 1.45-.15.49-.13.97.04 1.43.23.58.65.96 1.26 1.12.61.16 1.35.19 2.21.07.86-.11 1.8-.27 2.84-.45 1.03-.18 2.07-.32 3.12-.4 1.05-.08 2.05-.06 3 .08.96.14 1.83.48 2.61 1.05.78.56 1.39 1.41 1.83 2.54.48 1.23.55 2.5.24 3.81-.31 1.31-1.06 2.56-2.25 3.76-1.19 1.2-2.86 2.24-5.01 3.1l-.04.02zm.1 3.86l-11.35-29.42 3.29-1.32 11.35 29.42-3.29 1.32z" fill="#589C4B"/><path d="M11.99 123.75l9.14-7.68 50.83 54.27-9.14 7.68c-14.04 11.79-36.8 9.21-50.84-5.78-14.04-14.99-14.04-36.7 0-48.49h.01z" fill="#F9AA40"/><mask id="mask0_1599_639" style="mask-type:luminance" maskUnits="userSpaceOnUse" x="1" y="116" width="71" height="70"><path d="M11.99 123.75l9.14-7.68 50.83 54.27-9.14 7.68c-14.04 11.79-36.8 9.21-50.84-5.78-14.04-14.99-14.04-36.7 0-48.49h.01z" fill="#fff"/></mask><g mask="url(#mask0_1599_639)"><path d="M-9.152 146.5l29.46-24.75 2.56 2.74-29.46 24.75-2.56-2.74zm3.55 17.05l29.46-24.75-2.56-2.74-29.46 24.75 2.56 2.74zm.99 14.31l29.46-24.75-2.56-2.74-29.46 24.75 2.56 2.74zm39.25 15.39l29.46-24.75-2.56-2.74-29.46 24.75 2.56 2.74zm-14.89-2.64l29.46-24.75-2.56-2.74-29.46 24.74 2.56 2.74v.01zm-14.89-2.64l29.46-24.75-2.56-2.74-29.46 24.75 2.56 2.74z" fill="#F4982A"/></g><path d="M74.374 167.133c10.6-14.806 5.585-36.551-11.2-48.568-16.786-12.018-38.987-9.758-49.587 5.048-10.6 14.806-5.585 36.55 11.201 48.568 16.786 12.017 38.987 9.757 49.586-5.048z" fill="#FFCF57"/><path d="M12.14 125.811c-7.13 12.13-4.99 28.739 6.41 40.919 14.04 14.99 36.8 17.57 50.84 5.78" stroke="#DF9039" stroke-width="1.04" stroke-linecap="round" stroke-linejoin="round"/><path d="M67.358 162.982c8.509-10.336 5.402-26.949-6.938-37.107-12.34-10.158-29.24-10.014-37.749.322-8.508 10.336-5.402 26.95 6.938 37.108 12.34 10.157 29.241 10.013 37.75-.323z" fill="#FFBD39"/><path d="M71.038 156.27c2.86-8.59.37-19.23-7.34-27.46-10.89-11.63-28.07-14.03-38.37-5.38" stroke="#DF9039" stroke-width="1.04" stroke-linecap="round" stroke-linejoin="round"/><path d="M55.132 154.76c-1.68 1.41-3.5 2.55-5.46 3.42-1.96.87-3.74 1.35-5.33 1.45l-1.66-4.93c1.46-.12 3-.5 4.61-1.15 1.61-.65 3.05-1.5 4.31-2.56.96-.81 1.65-1.56 2.06-2.25.41-.69.6-1.31.59-1.87-.02-.55-.23-1.04-.62-1.47-.51-.54-1.13-.79-1.87-.74-.74.05-1.57.28-2.49.69-.92.41-1.9.89-2.93 1.43-1.03.54-2.11 1.04-3.22 1.52-1.12.47-2.24.8-3.38.98-1.14.18-2.25.1-3.34-.25-1.09-.34-2.14-1.05-3.13-2.11-1.09-1.16-1.76-2.49-2.01-3.99-.26-1.5 0-3.08.78-4.75s2.16-3.34 4.14-5.01a21.33 21.33 0 014.36-2.83c1.58-.78 3.13-1.28 4.63-1.5l1.78 4.83c-1.43.27-2.77.69-4.02 1.27-1.25.58-2.33 1.26-3.25 2.03-.96.81-1.64 1.56-2.03 2.25-.39.69-.56 1.32-.51 1.9.06.57.28 1.08.68 1.5.51.54 1.14.79 1.89.75.75-.04 1.57-.27 2.46-.7.89-.42 1.87-.91 2.92-1.47a34.26 34.26 0 013.25-1.51c1.12-.45 2.23-.77 3.34-.96 1.11-.19 2.22-.12 3.33.21 1.11.33 2.16 1.01 3.14 2.06 1.07 1.14 1.72 2.46 1.96 3.95.24 1.49-.03 3.09-.81 4.78-.78 1.69-2.16 3.37-4.15 5.04l-.02-.01zm1.82 4.06l-25.53-27.26 3.04-2.55 25.53 27.26-3.04 2.55z" fill="#F98130"/><path d="M19.408 131.74c-2.89 6.01-2.12 12.82.05 18.15" stroke="#DF9039" stroke-width="1.04" stroke-linecap="round" stroke-linejoin="round"/></g><defs><clipPath id="clip0_1599_639"><path fill="#fff" d="M0 0h186v185H0z"/></clipPath></defs></svg>