<?xml version="1.0" encoding="UTF-8"?>
<svg id="_圖層_1" data-name="圖層_1" xmlns="http://www.w3.org/2000/svg" version="1.1" viewBox="0 0 821 564">
  <!-- Generator: Adobe Illustrator 29.7.1, SVG Export Plug-In . SVG Version: 2.1.1 Build 8)  -->
  <defs>
    <style>
      .st0 {
        fill: none;
      }

      .st1 {
        fill: #0751b8;
      }

      .st2 {
        fill: #0061c1;
      }
    </style>
  </defs>
  <path class="st0" d="M179.9,483.6c-.6-2.6-.8-4.8-.6-6.8h0c-.2,2,0,4.2.6,6.8.5,2,1.2,3.9,2.2,5.8h0c-.9-1.9-1.7-3.8-2.2-5.8Z"/>
  <path class="st0" d="M273.7,13.8c12.6-2.6,24.8,1.1,31.8,9.5.7.8,1.8.9,2.6.2.4-.3.6-.8.7-1.3,0,.5-.3.9-.7,1.3-.8.7-2,.5-2.6-.2-7-8.4-19.2-12.1-31.8-9.5-17.8,3.6-30.6,18.3-29.3,33.3-1.3-15,11.6-29.7,29.3-33.3Z"/>
  <path class="st0" d="M267,70.4h0c.9.2,1.5.9,1.6,1.8,0-.9-.7-1.6-1.6-1.8Z"/>
  <path class="st0" d="M246,61.4c-.2-.3-.3-.7-.3-1.1,0,.4,0,.7.3,1.1Z"/>
  <path class="st0" d="M278.3,27.7c1.1-1,2.5-1.6,4.2-2,1.9-.4,3.7-.2,5.4.5,1.7.7,3.2,2,4.5,4,.8,1.3,1.5,2.8,2,4.6l5.4-1.1.7,4.8h0s-.7-4.9-.7-4.9l-5.4,1.1c-.5-1.8-1.1-3.3-2-4.6-1.3-1.9-2.8-3.2-4.5-4-1.7-.7-3.5-.9-5.4-.5-1.7.3-3.1,1-4.2,2-1,.9-1.8,2-2.3,3.3.5-1.2,1.3-2.3,2.3-3.3Z"/>
  <path class="st0" d="M295.1,45.9c-.4,2.6-1,4.8-1.9,6.5h0c.9-1.7,1.6-3.9,2-6.5.3-2,.3-4.1,0-6.2h0c.2,2.1.2,4.1,0,6.2Z"/>
  <path class="st0" d="M259.8,41.8l-5.3,1.1h0s5.3-1,5.3-1c0,0,0,0,0,0Z"/>
  <path class="st0" d="M279.3,50.5c-.1.3-.3.6-.5.9.2-.3.3-.6.5-.9.6-1.3,1-2.7,1.2-4.2,0-.6.2-1.2.2-1.9,0,.6-.2,1.2-.2,1.9-.2,1.5-.6,2.9-1.2,4.2Z"/>
  <path class="st0" d="M243,50.6c0,0-.2,0-.3,0-.9,0-1.7-.7-1.8-1.6-.2-1.1-.2-2.2-.3-3.3,0,1.1.1,2.2.3,3.3.1.9.9,1.6,1.8,1.6s.2,0,.3,0c.9-.1,1.6-.9,1.6-1.8,0,.9-.7,1.6-1.6,1.7Z"/>
  <path class="st0" d="M266.2,37.8c-.1.9-.1,1.8-.1,2.7l8.2-1.6s0,0,0,0l-8.2,1.6c0-.9,0-1.8.1-2.7.2-1.7.6-3.4,1.3-5.1l-6.2-1.3s0,0,0,0l6.2,1.3c-.7,1.7-1.1,3.4-1.3,5Z"/>
  <path class="st0" d="M192.7,491.7c.7.1,1.3,0,1.9-.4-.6.4-1.2.5-1.9.4Z"/>
  <path class="st0" d="M190.5,490.6c-.1-.1-.3-.3-.5-.5l5.6-3.6s0,0,0,0l-5.6,3.6c.1.2.3.4.4.5h0Z"/>
  <path class="st0" d="M179.9,496.6l4.6-3c1.1,1.5,2.3,2.7,3.5,3.6,1.9,1.3,3.8,2,5.6,2.1,1.4,0,2.7-.2,4-.8-1.3.6-2.6.9-4,.8-1.9,0-3.8-.7-5.6-2-1.2-.9-2.4-2.1-3.5-3.6l-4.6,3-2.4-4.3h0s2.4,4.3,2.4,4.3Z"/>
  <path class="st0" d="M280.7,44.4c0-.6.1-1.2.2-1.9h0c0,.6-.1,1.2-.2,1.9Z"/>
  <path class="st0" d="M211.5,505.7c15.7-10.1,22.2-29.4,14.5-43-.5-.9-.2-2,.7-2.6.3-.2.7-.3,1.1-.2-.4,0-.7,0-1.1.2-.9.5-1.2,1.7-.7,2.6,7.7,13.6,1.2,32.9-14.5,43-9.5,6.1-20.4,7.7-29.4,4.4,9,3.2,19.9,1.7,29.4-4.4Z"/>
  <path class="st0" d="M206.3,473.9s0,0,0,0l-5.9,3.8c-.2-.8-.3-1.5-.3-2.2,0,.7,0,1.4.3,2.2l5.9-3.8Z"/>
  <path class="st0" d="M247.1,78.8c3.2,2.3,6.8,4,10.5,5.4-3.8-1.3-7.3-3.1-10.5-5.4Z"/>
  <path class="st0" d="M261.6,91.5l-1-6.4s0,0,0,0l1,6.4c3.7,1.2,7.6,1.9,11.6,2.1h0c-4-.2-7.9-.9-11.6-2.1Z"/>
  <path class="st0" d="M234.7,52.3h0c-3.1-21.4,13.8-42.8,37.7-47.6,3.2-.6,6.4-1,9.6-1,0,0,0,0,0,0-3.2,0-6.4.3-9.6,1-23.9,4.8-40.8,26.1-37.7,47.6,1.4,9.5,6.6,17.8,14.6,23.5,2.5,1.8,5.3,3.2,8.2,4.4-2.9-1.2-5.6-2.6-8.1-4.4-8-5.7-13.2-14-14.6-23.5Z"/>
  <path class="st0" d="M242.1,77.5c-1.7-2.4-3-4.9-4-7.6,1,2.7,2.4,5.2,4,7.6Z"/>
  <path class="st0" d="M211.7,439.1c-3.1-.8-6.2-1.1-9.4-1.1s0,0,0,0c3.2,0,6.4.4,9.4,1.1,9.5,2.3,17.4,8.2,22.2,16.5,10.7,18.8,2.8,44.9-17.8,58-7.9,5.1-16.9,7.7-25.6,7.5,8.7.2,17.7-2.4,25.6-7.5,20.5-13.2,28.5-39.2,17.8-58-4.7-8.3-12.6-14.2-22.2-16.5Z"/>
  <path class="st0" d="M175.9,509.2c.2-.5.7-.8,1.1-.9-.5.1-.9.4-1.1.9-.5.9-.2,2,.7,2.5,4.6,2.5,9.8,3.8,15.2,3.8h0c-5.4,0-10.6-1.3-15.2-3.8-.9-.5-1.2-1.6-.7-2.5Z"/>
  <path class="st0" d="M246.6,58.9c.3-.2.7-.3,1.1-.3-.4,0-.7,0-1.1.3Z"/>
  <path class="st0" d="M551.9,489.5c-.8.7-2,.5-2.6-.2,0,0,0,0,0,0,.7.8,1.8.9,2.6.2.8-.7.9-1.8.2-2.6h0c-.5-.6-1-1.2-1.6-1.7.5.5,1,1.1,1.5,1.7.7.8.5,2-.2,2.6Z"/>
  <path class="st0" d="M529.4,547.8c22.7-5.6,38.5-26.3,35.5-47.1,3,20.8-12.8,41.4-35.5,47.1Z"/>
  <path class="st0" d="M267,45.3l6.8-1.4s0,0,0,0l-6.8,1.4s0,0,0,0Z"/>
  <path class="st0" d="M505.3,557.5l-1-6.4s0,0,0,0l1,6.4c3.7,1.2,7.6,1.9,11.6,2.1h0c-4-.2-7.9-.9-11.6-2.1Z"/>
  <path class="st0" d="M516.1,470.7c3.2-.6,6.4-1,9.6-1-3.2,0-6.4.3-9.6,1Z"/>
  <path class="st0" d="M489.7,527.4c-.2-.3-.3-.7-.3-1.1,0,.4,0,.7.3,1.1Z"/>
  <path class="st0" d="M510.7,536.4h0c.9.2,1.5.9,1.6,1.8,0-.9-.7-1.6-1.6-1.8Z"/>
  <path class="st0" d="M532.6,508c0,1.1,0,2.2-.3,3.3-.4,2.1-1,4-1.8,5.6h0c.8-1.6,1.4-3.5,1.8-5.6.2-1.1.3-2.2.3-3.3Z"/>
  <path class="st0" d="M517.4,479.8c11.8-2.4,23.3.7,30.5,8-7.2-7.3-18.6-10.4-30.5-8-18.3,3.7-31.4,19.3-29.2,34.7.2,1-.6,2-1.6,2.1,0,0-.2,0-.3,0-.7,0-1.3-.4-1.6-1,.3.6.9,1,1.6,1s.2,0,.3,0c1-.2,1.7-1.1,1.6-2.1-2.2-15.5,10.8-31.1,29.1-34.7Z"/>
  <path class="st0" d="M490.9,544.8c-.7-.5-1.4-1.1-2.1-1.6h0c.7.6,1.4,1.1,2.1,1.6,3.2,2.3,6.8,4,10.5,5.4l1,6.3s0,0,0,0l-1-6.3c-3.8-1.3-7.3-3.1-10.5-5.4Z"/>
  <path class="st0" d="M490.3,524.9c.3-.2.7-.3,1.1-.3-.4,0-.7,0-1.1.3Z"/>
  <path class="st0" d="M513.9,471.2c-20.5,5.1-35.4,22.5-35.8,41.1.5-18.6,15.3-36,35.8-41.1Z"/>
  <path class="st0" d="M288,36.1h0c0,0,0-.2-.1-.3,0,.1,0,.2.1.3Z"/>
  <path class="st0" d="M290.4,91.3c-1.7.5-3.4,1-5.2,1.4,1.8-.4,3.5-.8,5.2-1.4Z"/>
  <path class="st0" d="M281.5,37.4h0c0-.1,0-.3,0-.4,0,.1,0,.3,0,.4Z"/>
  <path class="st0" d="M284.2,85.9c1.9-.4,3.7-.9,5.5-1.4h0c-1.8.6-3.6,1.1-5.5,1.4-2.9.6-5.7.8-8.6.9h0l1,6.8s0,0,0,0l-1-6.8c2.8,0,5.7-.4,8.6-.9Z"/>
  <path class="st0" d="M284.2,33.4c.7-.1,1.3,0,1.9.3.6.3,1.1,1,1.6,1.8,0,0,0,.2.1.3,0-.1,0-.2-.1-.3-.5-.9-1-1.5-1.6-1.8-.6-.3-1.2-.4-1.9-.3-.9.2-1.6.7-2,1.5-.2.3-.3.7-.5,1.2.1-.4.3-.8.5-1.2.4-.8,1.1-1.3,2-1.5Z"/>
  <path class="st0" d="M481.8,536s0,0,0,0c1,2.7,2.4,5.2,4,7.6h0c-1.6-2.4-3-4.9-4-7.5Z"/>
  <path class="st0" d="M322.9,53.1c-.3,3.7-1.1,7.2-2.5,10.7,1.3-3.4,2.2-7,2.5-10.7Z"/>
  <path class="st0" d="M291.8,83.8c4.1-1.5,7.9-3.4,11.4-5.7-3.5,2.3-7.3,4.2-11.4,5.7Z"/>
  <path class="st0" d="M322.9,53.1c-1.2,3.5-2.8,6.8-4.8,9.9,2-3.1,3.6-6.5,4.8-9.9Z"/>
  <path class="st0" d="M292.9,90.5l-1.1-6.7h0s1.1,6.7,1.1,6.7c4.1-1.6,7.9-3.6,11.4-6.1h0c-3.4,2.5-7.3,4.5-11.4,6.1Z"/>
  <path class="st0" d="M305.4,76.5h0c4-2.9,7.5-6.4,10.4-10.2l.8,5.1s0,0,0,0l-.8-5.1c-2.9,3.8-6.4,7.3-10.4,10.2Z"/>
  <rect class="st0" x="26.2" y="214.6" width="5.5" height="0" transform="translate(-143.3 83.3) rotate(-45)"/>
  <path class="st0" d="M58.4,190.5s0,0,0,0c0,0,0,0,0,0l4.2-3.4-2.9-4h0s2.9,4,2.9,4l-4.2,3.4Z"/>
  <path class="st0" d="M55.4,186.6h0c-1.3-1.4-2.6-2.4-3.9-3.2,0,0,0,0,0,0,0,0,0,0,0,0,1.3.7,2.6,1.8,3.9,3.2Z"/>
  <path class="st0" d="M56.3,204.4h0s6.2-1.6,6.2-1.6c0,0,0,0,0,0,0,0,0,0,0,0l-6.2,1.6Z"/>
  <path class="st0" d="M61.3,196.3c0,0,0-.2,0-.2,0,0,0,0,0-.1,0,0,0,0,0,.1,0,0,0,.2,0,.2Z"/>
  <path class="st0" d="M193.4,477.8c-.3-1.5-.5-2.9-.4-4.3,0-1.4.4-2.8,1-4,.6-1.2,1.7-2.3,3.2-3.3,0,0,0,0,0,0-1.5,1-2.6,2.1-3.3,3.3-.7,1.2-1,2.6-1,4,0,1.4.1,2.9.4,4.3.3,1.3.6,2.5,1,3.7h0c-.4-1.2-.7-2.4-1-3.7Z"/>
  <path class="st0" d="M40.6,184.2c-1.3,1.1-2.2,2.3-2.7,3.6.5-1.3,1.4-2.5,2.7-3.6Z"/>
  <path class="st0" d="M41.5,204.3c.4,1,.6,2,.6,2.8,0-.9-.2-1.8-.6-2.8Z"/>
  <path class="st0" d="M42.1,207.1c0,.9-.4,1.7-1.1,2.3.7-.6,1.1-1.3,1.1-2.3Z"/>
  <path class="st0" d="M33.1,204.9h0c-.4-.8-.8-1.6-1.1-2.4,0,0,0,0,0,0,0,0,0,0,0,0,.3.9.7,1.7,1.2,2.4Z"/>
  <path class="st0" d="M41,209.4c-.6.5-1.2.7-1.9.7.7,0,1.3-.2,1.9-.7Z"/>
  <path class="st0" d="M50.3,190.8s0,0,0,0l-5.2,4.2c-.3-1-.5-1.9-.5-2.6,0,0,0,0,0,0h0c0,.8.2,1.7.5,2.7l5.2-4.2Z"/>
  <path class="st0" d="M34.7,243.9c11.4,1.5,23.5-2.3,33.2-10.2-9.7,7.9-21.8,11.7-33.2,10.2Z"/>
  <path class="st0" d="M35,216.1c2,1.1,3.9,1.6,5.8,1.4,0,0,0,0,0,0,0,0,0,0,0,0-1.9.2-3.8-.3-5.8-1.4Z"/>
  <path class="st0" d="M55,169.8c-.8-.2-1.7-.3-2.5-.4.9,0,1.7.2,2.5.4Z"/>
  <path class="st0" d="M17.4,224.7c.8-.6,1-1.8.4-2.6.6.8.4,2-.4,2.6Z"/>
  <path class="st0" d="M55,169.8c1.7.3,3.3.8,4.9,1.5.2,0,.5.1.7.1-.2,0-.5,0-.7-.1-1.6-.7-3.2-1.1-4.9-1.5Z"/>
  <path class="st0" d="M24.9,174.8c11-9,24.9-11.7,36.3-7.1-11.4-4.6-25.3-1.9-36.3,7.1-16,13.1-20.5,35.2-10.2,49.4,0,0,0,0,0,0,0,0,0,0,0,0-10.4-14.2-5.8-36.4,10.2-49.4Z"/>
  <path class="st0" d="M40.7,184.1c1.5-1.2,3.1-1.9,5-2-1.8.2-3.5.8-5,2Z"/>
  <path class="st0" d="M538.9,506.1c0-.2,0-.3,0-.5h0c0,.2,0,.3,0,.5Z"/>
  <path class="st0" d="M38.2,196c-.4-1.1-.6-2.3-.8-3.4.2,1.1.4,2.3.8,3.4Z"/>
  <path class="st0" d="M30.7,197.4h0s0,0,0,0c0,0,0,0,0,0Z"/>
  <path class="st0" d="M39.6,199.5c-.5-1.1-.9-2.2-1.3-3.4.4,1.1.8,2.3,1.3,3.4Z"/>
  <path class="st0" d="M47.1,199.8c.5,1.2,1,2.3,1.4,3.5.5,1.4.8,2.8.9,4.2.1,1.4,0,2.8-.6,4.1-.5,1.3-1.5,2.5-2.9,3.7,0,0,0,0,0,0,0,0,0,0,0,0,1.4-1.1,2.3-2.4,2.9-3.7.5-1.3.7-2.7.6-4.1-.1-1.4-.4-2.8-.9-4.2-.4-1.2-.9-2.4-1.4-3.5l6.3-5.2h0s-6.3,5.2-6.3,5.2Z"/>
  <path class="st0" d="M186.3,437.1c.5-.2,1.1-.4,1.6-.5-.5.2-1.1.3-1.6.5h0Z"/>
  <path class="st0" d="M153.1,472.1c1.3-4.6,3.3-9.1,6-13.3-2.7,4.2-4.7,8.7-6,13.3Z"/>
  <path class="st0" d="M155.9,453.4h0c-2.6,4.5-4.4,9.4-5.4,14.3l2.6,4.4s0,0,0,0l-2.6-4.4c1-4.9,2.8-9.8,5.4-14.3Z"/>
  <path class="st0" d="M39.1,210.1c-.7,0-1.5-.2-2.3-.8.8.5,1.6.8,2.3.8Z"/>
  <path class="st0" d="M165.7,441.3h0c-1.5,1.3-2.8,2.7-4.1,4.2,1.3-1.4,2.6-2.8,4.1-4.2Z"/>
  <path class="st0" d="M149.9,472.1h0s0,0,0,0l2.3,3.8h0c-.7,3.6-1,7.3-.8,10.9,0,0,0,0,0,0-.2-3.6.1-7.3.8-11l-2.3-3.9Z"/>
  <path class="st0" d="M202.8,449.9c5.6-.1,10.8,1.4,14.9,4.3.3.2.7.4,1.1.4s0,0,0,0c-.4,0-.8-.1-1.1-.4-4-2.9-9.3-4.4-14.9-4.3Z"/>
  <path class="st0" d="M209.7,480.6c-.2-.9-.5-1.8-.9-2.5l-7,4.5s0,0,0,0l7-4.5c.3.8.6,1.6.9,2.5.4,1.7.7,3.4.7,5.2l6.3-1.1s0,0,0,0l-6.2,1.1c0-1.8-.2-3.5-.7-5.2Z"/>
  <polygon class="st0" points="214.2 474.6 218.8 471.7 218.8 471.7 214.2 474.6 214.2 474.6"/>
  <path class="st0" d="M196.8,450.6c-.9,0-1.6-.6-1.8-1.5-.2-1,.4-2,1.5-2.2,2.2-.5,4.4-.7,6.5-.7-2.1,0-4.3.3-6.5.7h0c-1,.2-1.7,1.2-1.5,2.2.2.9,1,1.5,1.9,1.5Z"/>
  <path class="st0" d="M198.9,497.8s0,0,0,0c-.3.2-.6.4-1,.5.3-.2.6-.3,1-.5Z"/>
  <path class="st0" d="M195.3,434.8c.8-.1,1.6-.2,2.4-.3h0s-3.3-5.6-3.3-5.6c0,0,0,0,0,0l3.3,5.6c-.8,0-1.6.2-2.4.3Z"/>
  <path class="st0" d="M34.2,247.6c1.8.2,3.6.3,5.4.3s4.3-.2,6.4-.5h0c-2.1.3-4.3.5-6.4.5s-3.6-.1-5.4-.3c-.9-.1-1.7-.3-2.6-.5l2.9,3.9h0s-2.9-3.9-2.9-3.9c.9.2,1.7.3,2.6.5Z"/>
  <path class="st0" d="M74.2,242.2c-2.2,1.8-4.5,3.4-7,4.7,2.4-1.3,4.8-2.9,7-4.7Z"/>
  <path class="st0" d="M60.1,243.1c-3.6,1.7-7.3,3-11.1,3.8l3.9,5.2h0l-3.9-5.2c3.8-.8,7.5-2.1,11.1-3.8Z"/>
  <path class="st0" d="M24.4,230.2c.5-.9,1.6-1.2,2.5-.7,5.8,3.3,13.4,3.8,20.9,1.3,1-.3,2,.2,2.4,1.2,0,.2.1.5,0,.7,0-.2,0-.5,0-.7-.3-1-1.4-1.5-2.4-1.2-7.5,2.5-15.1,2-20.9-1.3-.9-.5-2-.2-2.5.7-.3.4-.3,1-.2,1.4-.1-.5,0-1,.2-1.4Z"/>
  <path class="st0" d="M22,244s0,0,0,0c1.6.8,3.3,1.4,5,2l2.1,2.8s0,0,0,0l-2.1-2.8c-1.7-.5-3.4-1.2-5-2Z"/>
  <path class="st0" d="M206.4,429.9c2.2.5,4.3,1.3,6.2,2.2l2.4,4.2h0s0,0,0,0l-2.4-4.2c-2-.9-4.1-1.6-6.2-2.2-2.9-.7-5.8-1-8.8-1.1h0c3,0,5.9.4,8.8,1.1Z"/>
  <path class="st0" d="M84.6,218.3c2.2-4.5,3.6-9.2,4.4-13.9h0c-.8,4.7-2.3,9.4-4.4,13.9h0Z"/>
  <path class="st0" d="M224.2,440.4s0,0,0,0c-1.9-2.1-4.1-4-6.5-5.6h0c2.4,1.6,4.5,3.4,6.4,5.5Z"/>
  <polygon class="st0" points="74.5 232.7 78.5 238.2 74.5 232.7 74.5 232.7"/>
  <path class="st0" d="M89.1,204.4l3.1,4.1c-.4,5-1.7,10-3.7,14.8h0c2.1-4.8,3.3-9.8,3.8-14.8l-3.1-4.1s0,0,0,0h0s0,0,0,0Z"/>
  <path class="st0" d="M666.7,64.7c2.2-1.7,4.6-3.3,7-4.6h0c-2.4,1.3-4.8,2.8-7,4.6-1.6,1.2-3,2.6-4.5,4h0c1.4-1.4,2.9-2.7,4.5-4Z"/>
  <path class="st0" d="M698.9,123.5c1.4-1.1,2.3-2.3,2.9-3.6-.5,1.3-1.5,2.5-2.9,3.6Z"/>
  <path class="st0" d="M698.9,123.5c-1.5,1.2-3.2,1.8-5.1,2,1.9-.1,3.6-.8,5.1-2Z"/>
  <path class="st0" d="M693.1,125.5c-1.6,0-3.3-.5-5.1-1.5,1.7,1,3.4,1.5,5.1,1.5Z"/>
  <path class="st0" d="M701.6,111.5c.4,1.4.7,2.8.8,4.2-.1-1.4-.4-2.8-.8-4.2Z"/>
  <path class="st0" d="M698.5,103.3c-.3-1-.5-2-.5-2.8,0-.9.4-1.7,1.1-2.2.6-.4,1.2-.7,1.9-.7,0,0,0,0,0,0-.7,0-1.3.2-1.9.7-.7.6-1.1,1.3-1.1,2.2h0c0,.8.2,1.8.5,2.8h0Z"/>
  <path class="st0" d="M692.1,118s0,0,0,0c0,0,0,0,0,0h0Z"/>
  <path class="st0" d="M694,117.4s0,0,0,0c0,0,0,0,0,0,.7-.6,1.1-1.3,1.1-2.2,0-.8-.2-1.7-.5-2.7h0c.3,1,.5,1.9.4,2.7,0,.9-.4,1.7-1.1,2.2Z"/>
  <path class="st0" d="M692,118c-.5,0-1.1-.3-1.7-.6.6.4,1.1.6,1.7.6Z"/>
  <path class="st0" d="M708,105.4c-.3-.9-.7-1.7-1.1-2.5.4.8.8,1.6,1.1,2.5Z"/>
  <path class="st0" d="M691.4,95.8c-.5,1.3-.8,2.7-.7,4.1,0-1.4.1-2.8.7-4.1Z"/>
  <path class="st0" d="M21.8,170.3c8.3-6.8,18.4-10.5,28.3-10.5,0,0,0,0,0,0-9.9,0-20,3.7-28.3,10.5-18.9,15.4-23.8,42.2-11,59.7h0c-12.8-17.5-7.8-44.3,11-59.7Z"/>
  <polygon class="st0" points="664.6 75.8 660.6 70.3 660.6 70.3 664.6 75.8 664.6 75.8"/>
  <path class="st0" d="M680.8,64.2h0c3.6-1.7,7.4-2.9,11.1-3.6h0l-3.8-5.3s0,0,0,0l3.8,5.3c-3.8.7-7.5,2-11.1,3.6Z"/>
  <path class="st0" d="M648,98c.5-5,1.9-10,4.1-14.7h0c-2.2,4.7-3.6,9.7-4.1,14.7l3,4.2s0,0,0,0l-3-4.2Z"/>
  <path class="st0" d="M683.7,102.9c0,1.8.3,3.8.9,5.8-.6-2.1-.9-4-.9-5.8Z"/>
  <path class="st0" d="M678.7,111.2c-.9-2.5-1.2-4.8-1.2-6.7,0,2,.3,4.2,1.2,6.7Z"/>
  <path class="st0" d="M650.9,102.1c.2-.9.4-1.9.6-2.8-.2.9-.4,1.9-.6,2.8h0Z"/>
  <path class="st0" d="M692.9,107.7c-.5-1.2-.9-2.3-1.3-3.6.4,1.2.8,2.4,1.3,3.6Z"/>
  <path class="st0" d="M691.7,73.1c8.5-2.6,17.2-1.8,23.9,2.1.7.4,1,1.1.9,1.9.1-.7-.2-1.5-.9-1.9-6.6-4-15.3-4.7-23.9-2.1-.7.2-1.2.9-1.3,1.6,0-.7.6-1.4,1.3-1.6Z"/>
  <path class="st0" d="M706.7,60.2c.9.1,1.7.3,2.6.5h0c-.9-.2-1.7-.4-2.6-.5-3.9-.6-7.8-.5-11.8,0h0s0,0,0,0c0,0,0,0,0,0l-3.7-5.2s0,0,0,0l3.7,5.2c3.9-.5,7.9-.5,11.8,0Z"/>
  <path class="st0" d="M729.8,78.3c-5.5-7.9-13.9-13-23.6-14.4-8.6-1.3-17.8.4-26,4.7,8.2-4.3,17.4-6,26-4.7,9.7,1.5,18.1,6.6,23.6,14.4h0c12.4,17.8,6.9,44.4-12.3,59.4-8,6.3-17.6,9.8-27,9.9,9.4-.2,19-3.6,27-9.9,19.2-15,24.8-41.7,12.3-59.4Z"/>
  <path class="st0" d="M727.4,86.7c-.5-1-1.1-1.9-1.7-2.8h0c.6.9,1.2,1.8,1.7,2.8Z"/>
  <path class="st0" d="M677,136.9c.4-1,1.5-1.4,2.4-1,10.1,4.4,22.6,2.2,32.7-5.8,14.7-11.5,19.4-31.3,10.5-44.1-.6-.8-.4-2,.5-2.6.7-.5,1.7-.4,2.4.2-.6-.6-1.6-.7-2.4-.2-.8.6-1,1.8-.5,2.6,9,12.8,4.2,32.6-10.5,44.1-10.2,7.9-22.7,10.2-32.7,5.8-.9-.4-2,0-2.5,1-.4.8,0,1.8.6,2.3-.7-.5-1-1.4-.6-2.3Z"/>
  <path class="st0" d="M505,497.5l6.2,1.3s0,0,0,0l-6.2-1.3c-.7,1.7-1.2,3.7-1.4,5.9,0,.7-.1,1.5-.1,2.2,0-.7,0-1.5.1-2.2.2-2.2.7-4.1,1.4-5.8Z"/>
  <path class="st0" d="M528.7,558.8c-2.8.6-5.6.8-8.3.9l-1-6.8s0,0,0,0h0s1,6.8,1,6.8c2.8,0,5.5-.4,8.3-.9,2-.4,3.9-.9,5.8-1.6h0c-1.9.6-3.8,1.1-5.8,1.5Z"/>
  <path class="st0" d="M525.2,503.4h0c0-.1,0-.3,0-.4,0,.1,0,.3,0,.4Z"/>
  <path class="st0" d="M535.5,549.8c4.1-1.5,7.9-3.4,11.4-5.7-3.5,2.3-7.3,4.2-11.4,5.7Z"/>
  <path class="st0" d="M718.8,64s0,0,0,0c-2.1-1.9-4.5-3.6-7-5h0c2.5,1.4,4.8,3,6.9,4.9Z"/>
  <path class="st0" d="M503.5,507.8s0,0,0,0l-5.3,1.1h0s.7,4.8.7,4.8h0s-.7-4.8-.7-4.8l5.3-1.1Z"/>
  <path class="st0" d="M562.5,533.5h0c2.2-4.5,3.7-9.4,4.1-14.3,0,0,0,0,0,0-.4,5-1.8,9.8-4.1,14.3Z"/>
  <path class="st0" d="M510.7,511.3l6.8-1.4s0,0,0,0l-6.8,1.4s0,0,0,0Z"/>
  <path class="st0" d="M518,504.9c.1-1.2.2-2.4.4-3.6.2-1.5.6-2.8,1.2-4.1.5-1.3,1.3-2.4,2.4-3.4,1.1-1,2.5-1.6,4.2-2,1.9-.4,3.7-.2,5.4.5,1.7.7,3.2,2,4.5,4,.8,1.3,1.5,2.8,2,4.6l5.4-1.1.7,4.8h0s-.7-4.9-.7-4.9l-5.4,1.1c-.5-1.8-1.1-3.3-2-4.6-1.3-1.9-2.8-3.2-4.5-4-1.7-.7-3.5-.9-5.4-.5-1.7.4-3.1,1-4.2,2-1.1,1-1.9,2.1-2.4,3.4-.5,1.3-.9,2.7-1.2,4.1-.2,1.2-.3,2.4-.4,3.7l-8.2,1.6s0,0,0,0l8.2-1.7Z"/>
  <path class="st0" d="M536.6,556.5l-1.1-6.7h0s1.1,6.7,1.1,6.7c4.1-1.6,7.9-3.6,11.4-6.1h0c-3.4,2.5-7.3,4.5-11.4,6.1Z"/>
  <path class="st0" d="M529.9,499.7c-.6-.3-1.2-.4-2-.3-.9.2-1.6.7-2,1.5-.2.3-.3.7-.5,1.2.1-.4.3-.8.5-1.2.4-.8,1.1-1.3,2-1.5.7-.1,1.4,0,2,.3.6.3,1.1.9,1.6,1.8,0,.2.2.4.2.6h0c0-.2-.2-.5-.2-.6-.5-.9-1-1.5-1.6-1.8Z"/>
  <path class="st0" d="M559.5,532.3h0c-2.9,3.8-6.4,7.3-10.4,10.2l1,6.2s0,0,0,0l-1-6.2c4-2.9,7.5-6.4,10.4-10.2Z"/>
  <path class="st2" d="M664.6,75.8l-4-5.5c-3,3.2-5.5,6.8-7.4,10.5l3.8,5.2c2.1-3.7,4.7-7.1,7.7-10.3Z"/>
  <path class="st2" d="M670.4,70.4c2.3-1.8,4.7-3.3,7.2-4.7h0l-4-5.6c-2.4,1.3-4.8,2.8-7,4.6-1.6,1.2-3,2.6-4.5,4h0l4,5.5c1.3-1.3,2.8-2.6,4.3-3.7Z"/>
  <path class="st2" d="M655.7,88.3l-3.6-5.1c-2.2,4.7-3.6,9.7-4.1,14.7l3,4.2c.2-.9.4-1.9.6-2.8.9-3.8,2.3-7.5,4.1-11h0Z"/>
  <polygon class="st2" points="650.9 102.1 650.9 102.1 650.9 102.1 650.9 102.1 650.9 102.1"/>
  <path class="st2" d="M650.3,106.1l-2.6-3.6c0,5.1.9,10,2.8,14.7-.5-3.6-.6-7.3-.2-11Z"/>
  <path class="st2" d="M691.9,60.6l-3.8-5.3c-3.8.6-7.6,1.7-11.3,3.3l4,5.6c3.6-1.7,7.3-2.9,11.1-3.6Z"/>
  <path class="st2" d="M706.7,60.2c.9.1,1.7.3,2.6.5l-2.8-3.9c-2-.7-4.2-1.2-6.4-1.6h0c-1.9-.3-3.8-.4-5.8-.4s-2.1,0-3.1.1l3.7,5.2c3.9-.5,7.9-.5,11.8,0Z"/>
  <polygon class="st2" points="695 60.1 695 60.1 695 60.1 695 60.1"/>
  <path class="st2" d="M713.9,61.9h0c1.7.6,3.3,1.3,4.9,2.1-2.1-1.9-4.4-3.6-6.9-4.9l2,2.8Z"/>
  <path class="st1" d="M735.5,80.7c0-.4,0-.8-.3-1.1h0l-2.4-3.4s0,0,0,0c0,0,0,0,0,0l-6.1-8.7c-6.1-8.7-15.3-14.4-26.1-16-12.4-1.9-25.6,1.9-36.3,10.2-20.7,16.2-26.6,45.2-13.1,64.5l8.5,12.1c.2.3.6.5,1,.7,5.9,6.4,13.8,10.6,22.8,11.9,2.1.3,4.2.5,6.3.5,10.4,0,21.1-3.8,30-10.7,19.2-15,25.6-40.9,15.8-60ZM718.8,64s0,0,0,0c-1.6-.8-3.2-1.5-4.9-2.1h0s-2-2.8-2-2.8h0c2.5,1.3,4.9,3,7,4.9ZM691.2,54.9c1,0,2.1-.1,3.1-.1,1.9,0,3.9.1,5.8.4h0c2.2.3,4.3.9,6.4,1.6l2.8,3.9h0c-.9-.2-1.7-.4-2.6-.5-3.9-.6-7.8-.6-11.8,0l-3.7-5.2s0,0,0,0ZM688.1,55.3s0,0,0,0l3.8,5.3h0c-3.8.7-7.5,2-11.1,3.6h0s-4-5.6-4-5.6c3.7-1.6,7.5-2.7,11.3-3.3ZM666.7,64.7c2.2-1.8,4.6-3.3,7-4.6h0s4,5.6,4,5.6h0c-2.5,1.4-4.9,2.9-7.2,4.7-1.5,1.2-2.9,2.4-4.3,3.7l-4-5.5c1.4-1.4,2.9-2.7,4.5-4ZM660.6,70.3s0,0,0,0l4,5.5h0c-3,3.1-5.6,6.6-7.7,10.2l-3.8-5.2c2-3.7,4.5-7.3,7.4-10.5ZM647.7,102.4l2.6,3.6c-.4,3.7-.3,7.4.2,11-1.9-4.6-2.8-9.6-2.8-14.7ZM650.9,102.1s0,0,0,0h0s-3-4.2-3-4.2c.5-5,1.9-10,4.1-14.7h0s3.6,5.1,3.6,5.1h0c-1.8,3.5-3.2,7.2-4.1,11-.2.9-.4,1.9-.6,2.8ZM717.4,137.7c-8.1,6.3-17.6,9.8-27,9.9-2.2,0-4.3-.1-6.5-.4-9.7-1.5-18.1-6.6-23.6-14.4-12.4-17.8-6.9-44.4,12.4-59.4,2.4-1.8,4.9-3.4,7.4-4.8,8.2-4.3,17.4-6,26-4.7,9.7,1.5,18.1,6.6,23.6,14.4,12.4,17.8,6.8,44.4-12.3,59.4Z"/>
  <path class="st2" d="M729.8,78.3h0c-5.5-7.9-13.9-13-23.6-14.4-8.6-1.3-17.8.4-26,4.7-2.6,1.3-5.1,2.9-7.4,4.8-19.2,15-24.8,41.7-12.4,59.4,5.5,7.9,13.9,13,23.6,14.4,2.1.3,4.3.5,6.5.4,9.4-.2,18.9-3.6,27-9.9,19.2-15,24.8-41.7,12.3-59.4ZM690.4,74.7c0-.7.6-1.4,1.3-1.6,8.5-2.6,17.2-1.8,23.9,2.1.7.4,1,1.1.9,1.9,0,.2-.1.5-.2.7-.3.6-1,.9-1.6.9s-.6,0-1-.3c-5.7-3.4-13.3-4.1-20.8-1.8-1,.3-2-.3-2.3-1.2,0-.2,0-.5,0-.7ZM678.7,111.2c-.9-2.5-1.2-4.8-1.2-6.7l6.2-1.5c0,1.8.3,3.8.9,5.8.4,1.4,1.1,2.8,1.8,4l6.5-5c-.5-1.2-.9-2.3-1.3-3.6-.5-1.4-.7-2.8-.8-4.3-.1-1.4.1-2.8.7-4.1.5-1.3,1.5-2.5,2.9-3.6,1.5-1.2,3.3-1.9,5.1-2,.2,0,.5,0,.7,0,1.6,0,3.3.5,5.1,1.5,1.3.8,2.6,1.9,3.9,3.4l4.3-3.4,2.8,4-4.3,3.3c.8,1.3,1.4,2.6,2,4,.8,2,1.2,4,1.3,5.9l-6.1,1.7c-.2-1.8-.5-3.5-1.1-5.1-.3-.9-.7-1.7-1.1-2.5l-6.6,5.2c.5,1.1.9,2.3,1.2,3.5.4,1.4.7,2.8.8,4.2s0,2.8-.6,4.1c-.5,1.3-1.5,2.5-2.9,3.6-1.5,1.2-3.2,1.9-5.1,2-.2,0-.5,0-.7,0-1.7,0-3.3-.5-5.1-1.5-1.3-.8-2.6-1.8-3.8-3.2l-4.3,3.4-2.8-4,4.3-3.3c-1.1-1.8-2-3.6-2.7-5.6ZM690.3,141.9c-4.3,0-8.5-.8-12.4-2.5-.1,0-.2-.1-.3-.2-.7-.5-1-1.4-.6-2.3.4-1,1.5-1.4,2.5-1,10,4.4,22.6,2.2,32.7-5.8,14.7-11.5,19.4-31.3,10.5-44.1-.6-.8-.4-2,.5-2.6.7-.5,1.7-.4,2.4.2,0,0,.2.2.2.3h0c.6.9,1.2,1.8,1.7,2.8,7.7,14.4,2.3,34.5-12.9,46.4-7.4,5.8-15.9,8.8-24.1,8.8Z"/>
  <path class="st2" d="M698,100.5c0,.8.1,1.8.5,2.8l5.5-4.3c-.2-.2-.4-.4-.7-.6-.8-.6-1.6-.8-2.3-.8-.7,0-1.4.2-1.9.7-.7.6-1.1,1.3-1.1,2.2Z"/>
  <path class="st2" d="M690.3,117.4c.6.4,1.2.6,1.7.6,0,0,0,0,.1,0,0,0,0,0,0,0,.7,0,1.2-.2,1.8-.6,0,0,0,0,0,0,.7-.6,1.1-1.3,1.1-2.2,0-.8-.2-1.7-.4-2.7l-5.3,4.1c.2.1.3.3.5.4.1.1.3.2.4.3Z"/>
  <path class="st1" d="M727.4,86.7c-.5-1-1.1-1.9-1.7-2.8h0c0-.1-.2-.2-.2-.3-.6-.6-1.6-.7-2.4-.2-.8.6-1,1.8-.5,2.6,9,12.8,4.2,32.6-10.5,44.1-10.2,7.9-22.7,10.1-32.7,5.8-.9-.4-2,0-2.4,1-.4.8,0,1.8.6,2.3.1,0,.2.1.3.2,3.9,1.7,8.1,2.5,12.4,2.5,8.2,0,16.8-3,24.1-8.8,15.2-11.9,20.6-32.1,12.9-46.4Z"/>
  <path class="st1" d="M679.9,124.1l4.3-3.4c1.2,1.4,2.5,2.5,3.8,3.2,1.7,1,3.4,1.5,5.1,1.5.2,0,.5,0,.7,0,1.9-.1,3.6-.8,5.1-2,1.4-1.1,2.3-2.3,2.9-3.6.5-1.3.7-2.7.6-4.1s-.4-2.8-.8-4.2c-.4-1.2-.8-2.3-1.2-3.5l6.6-5.2c.4.8.8,1.6,1.1,2.5.6,1.6,1,3.3,1.1,5.1l6.1-1.7c-.1-1.9-.6-3.8-1.3-5.9-.5-1.4-1.2-2.7-2-4l4.3-3.3-2.8-4-4.3,3.4c-1.3-1.5-2.6-2.6-3.9-3.4-1.7-1-3.4-1.5-5.1-1.5-.2,0-.5,0-.7,0-1.9.2-3.6.8-5.1,2-1.4,1.1-2.4,2.3-2.9,3.6s-.8,2.7-.7,4.1c0,1.4.4,2.9.8,4.3.4,1.2.8,2.4,1.3,3.6l-6.5,5c-.7-1.3-1.3-2.6-1.8-4-.6-2.1-.9-4-.9-5.8l-6.2,1.5c0,2,.3,4.2,1.2,6.7.7,2,1.6,3.8,2.7,5.6l-4.3,3.3,2.8,4ZM698,100.5c0-.9.4-1.7,1.1-2.2.6-.4,1.2-.7,1.9-.7s0,0,0,0c.7,0,1.5.3,2.3.8.2.1.4.4.7.6l-5.5,4.3h0c-.3-1-.5-2-.5-2.8h0ZM694.6,112.5h0c.3,1,.5,1.9.5,2.7,0,.9-.4,1.7-1.1,2.2,0,0,0,0,0,0-.5.4-1.1.6-1.8.6,0,0,0,0,0,0h0s0,0-.1,0c-.5,0-1.1-.3-1.7-.6-.1,0-.3-.2-.4-.3-.2-.1-.3-.3-.5-.4l5.3-4.1Z"/>
  <path class="st1" d="M692.8,76.6c7.5-2.3,15.1-1.7,20.8,1.8.3.2.6.3,1,.3.6,0,1.3-.3,1.6-.9.1-.2.2-.5.2-.7,0-.7-.2-1.5-.9-1.9-6.6-4-15.3-4.7-23.9-2.1-.7.2-1.2.9-1.3,1.6,0,.2,0,.5,0,.7.3,1,1.3,1.5,2.3,1.2Z"/>
  <path class="st2" d="M528.7,558.8c2-.4,3.9-.9,5.8-1.6l-1.1-6.7c-1.8.6-3.6,1.1-5.5,1.4-2.9.6-5.7.8-8.6.9l1,6.8c2.8,0,5.5-.4,8.3-.9Z"/>
  <path class="st2" d="M490.8,544.8c-.7-.5-1.4-1.1-2.1-1.6l.7,4.8c1.5,1.5,3.2,3,5,4.3,2.4,1.7,5.1,3.1,7.8,4.2l-1-6.3c-3.8-1.3-7.3-3.1-10.5-5.4Z"/>
  <path class="st2" d="M516.9,559.6l-1-6.7c-4-.1-7.9-.7-11.6-1.8l1,6.4c3.7,1.2,7.6,1.9,11.6,2.1Z"/>
  <path class="st2" d="M485.3,540h0c-1.3-1.3-2.4-2.6-3.5-4.1,1,2.7,2.4,5.2,4,7.5l-.5-3.5Z"/>
  <path class="st2" d="M548,550.4l-1-6.4c-3.5,2.3-7.3,4.3-11.4,5.7l1.1,6.7c4.1-1.6,7.9-3.6,11.4-6.1Z"/>
  <path class="st2" d="M561.8,529.1h0l.7,4.4c2.2-4.5,3.7-9.3,4.1-14.3-1.2,3.4-2.8,6.8-4.8,9.9Z"/>
  <path class="st2" d="M549.1,542.6l1,6.2c4.1-3.3,7.5-7.1,10.2-11.3l-.8-5.1c-2.9,3.8-6.4,7.3-10.4,10.2Z"/>
  <path class="st1" d="M567.9,496h0c0-.4-.3-.8-.6-1-2.4-8.4-7.6-15.7-15-20.9-10.2-7.2-23.7-9.8-37-7.1-23.9,4.8-41.2,25-41,46.5-.2.3-.3.7-.2,1.1l.6,4.1h0s1.5,10.5,1.5,10.5c1.5,10.5,7.3,19.7,16.1,26,7.6,5.4,17,8.2,26.8,8.2s6.9-.3,10.3-1c25.8-5.2,44-28.4,40.6-51.8l-2.1-14.6ZM481.8,535.9s0,0,0,0c1.1,1.4,2.2,2.8,3.5,4.1h0s.5,3.4.5,3.4h0c-1.6-2.3-3-4.9-4-7.5ZM502.3,556.5c-2.8-1.1-5.4-2.5-7.8-4.2-1.8-1.3-3.5-2.7-5-4.3l-.7-4.8h0c.7.5,1.4,1.1,2.1,1.6,3.2,2.3,6.8,4,10.5,5.4l1,6.3s0,0,0,0ZM505.3,557.6l-1-6.4s0,0,0,0c3.7,1,7.6,1.6,11.6,1.8l1,6.7h0c-4-.2-7.9-.9-11.6-2.1ZM493,541.8c-8-5.7-13.2-14-14.6-23.5-.3-2-.4-4-.4-6,.5-18.6,15.3-36,35.8-41.1.7-.2,1.5-.3,2.2-.5,3.2-.6,6.4-1,9.6-1,9,0,17.6,2.6,24.6,7.5,8,5.7,13.2,14,14.6,23.5,3,20.8-12.8,41.4-35.5,47.1-.7.2-1.5.3-2.2.5-12.3,2.5-24.8.1-34.2-6.5ZM528.7,558.8c-2.8.6-5.6.8-8.3.9l-1-6.8h0s0,0,0,0c2.8,0,5.7-.4,8.6-.9,1.9-.4,3.7-.9,5.5-1.4l1.1,6.7h0c-1.9.6-3.8,1.2-5.8,1.6ZM536.6,556.5l-1.1-6.7h0c4.1-1.5,7.9-3.4,11.4-5.7l1,6.4h0c-3.4,2.5-7.3,4.5-11.4,6.1ZM550.1,548.7s0,0,0,0l-1-6.2c4-3,7.5-6.4,10.4-10.2h0s.8,5.1.8,5.1c-2.7,4.2-6.2,8.1-10.2,11.3ZM562.5,533.5h0s-.7-4.4-.7-4.4h0c2-3.1,3.6-6.4,4.8-9.9,0,0,0,0,0,0-.4,5-1.8,9.8-4.1,14.3Z"/>
  <path class="st2" d="M529.4,547.8c22.7-5.6,38.5-26.3,35.5-47.1-1.4-9.5-6.6-17.8-14.6-23.5-7-4.9-15.6-7.5-24.6-7.5s-6.4.3-9.6,1c-.7.2-1.5.3-2.2.5-20.5,5.1-35.4,22.5-35.8,41.1,0,2,0,4,.4,6,1.4,9.5,6.6,17.8,14.6,23.5,9.4,6.6,21.8,9,34.2,6.5.7-.2,1.5-.3,2.2-.5ZM488.3,514.5c.2,1-.6,2-1.6,2.1,0,0-.2,0-.3,0-.7,0-1.3-.4-1.6-1-.1-.2-.2-.4-.2-.6h0c-2.5-17.4,11.9-34.9,32.1-38.9,13.1-2.6,25.9.8,33.9,9.1.5.6,1.1,1.1,1.6,1.7h0c.7.8.5,2-.2,2.6-.8.7-2,.6-2.6-.2,0,0,0,0,0,0,0,0,0,0,0,0-.4-.5-.9-1-1.4-1.5-7.2-7.3-18.6-10.4-30.5-8-18.3,3.7-31.4,19.3-29.1,34.7ZM512.2,538.5c0,.1,0,.2,0,.3,0,0,0,0,0,0-.3.7-1,1.2-1.8,1.2s-.2,0-.3,0c-8.8-1.5-16.2-6.1-20.4-12.6-.2-.3-.3-.7-.3-1.1,0-.6.3-1.2.9-1.5.3-.2.7-.3,1.1-.3.6,0,1.2.3,1.5.9,3.6,5.6,10.1,9.6,17.9,10.9.9.1,1.5.9,1.6,1.8,0,.1,0,.3,0,.4ZM524.2,512.3c-.2,1.5-.6,2.9-1.2,4.2-.5,1.3-1.4,2.4-2.4,3.3-1.1.9-2.5,1.6-4.3,1.9-1.9.4-3.8.2-5.5-.5-1.7-.7-3.2-2-4.5-3.9-.8-1.3-1.5-2.9-2-4.8l-5.4,1.1h0s0,0,0,0h0s0,0,0,0h0s-.7-4.8-.7-4.8h0s5.3-1,5.3-1c0-.7,0-1.5,0-2.2,0-.7,0-1.5.1-2.2.2-2.2.7-4.1,1.4-5.9l6.2,1.3s0,0,0,0h0c-.6,1.7-1.1,3.4-1.3,5.1-.1.9-.1,1.8-.1,2.7l8.2-1.6c.1-1.2.2-2.4.4-3.7.2-1.5.6-2.8,1.2-4.1.5-1.3,1.3-2.4,2.4-3.4,1.1-1,2.5-1.6,4.2-2,1.9-.4,3.7-.2,5.4.5,1.7.7,3.2,2,4.5,4,.8,1.3,1.5,2.8,2,4.6l5.4-1.1.7,4.9h0s0,0,0,0l-5.3,1.1c0,.2,0,.3,0,.5.1,1.9.1,3.8-.1,5.7-.4,2.6-1,4.8-2,6.5l-6.3-1.5s0,0,0,0h0c.8-1.6,1.4-3.5,1.8-5.6.2-1.1.3-2.2.3-3.3,0-.4,0-.7,0-1.1l-8,1.6c-.1,1.2-.2,2.5-.4,3.8Z"/>
  <path class="st2" d="M511,512.1c.5.9,1,1.5,1.7,1.8.6.3,1.3.4,2,.3.9-.2,1.6-.7,2-1.5h0c.4-.7.7-1.7.8-2.7l-6.8,1.4c.1.3.2.6.3.8Z"/>
  <path class="st2" d="M529.9,499.7c-.6-.3-1.2-.4-2-.3-.9.2-1.6.7-2,1.5-.2.3-.3.7-.5,1.2,0,.3-.2.6-.2,1,0,.1,0,.3,0,.4l6.5-1.3c0-.2-.1-.4-.2-.6-.5-.9-1-1.5-1.6-1.8Z"/>
  <path class="st1" d="M486.4,516.7c0,0,.2,0,.3,0,1-.2,1.7-1.1,1.6-2.1-2.2-15.5,10.8-31.1,29.2-34.7,11.9-2.4,23.3.7,30.5,8,.5.5.9,1,1.4,1.5,0,0,0,0,0,0,.7.8,1.8.9,2.6.2.8-.7.9-1.8.2-2.6-.5-.6-1-1.2-1.5-1.7-8-8.2-20.8-11.7-33.9-9.1-20.2,4.1-34.6,21.5-32.1,38.9h0c0,.2.1.5.2.7.3.6.9,1,1.6,1Z"/>
  <path class="st1" d="M532.6,508c0,1.1,0,2.2-.3,3.3-.4,2.1-1,4-1.8,5.6,0,0,0,0,0,0l6.3,1.5c.9-1.7,1.6-3.9,2-6.5.3-1.9.3-3.8.1-5.7,0-.2,0-.3,0-.5h0s5.3-1.1,5.3-1.1h0s-.7-4.8-.7-4.8l-5.4,1.1c-.5-1.8-1.1-3.3-2-4.6-1.3-1.9-2.8-3.2-4.5-4-1.7-.7-3.5-.9-5.4-.5-1.7.3-3.1,1-4.2,2-1.1.9-1.9,2.1-2.4,3.4-.5,1.3-.9,2.7-1.2,4.1-.2,1.2-.3,2.4-.4,3.6l-8.2,1.7s0,0,0,0c0-.9,0-1.7.1-2.7.2-1.7.6-3.4,1.3-5h0s-6.2-1.3-6.2-1.3c-.7,1.7-1.2,3.7-1.4,5.8,0,.7-.1,1.5-.1,2.2,0,.7,0,1.5,0,2.2,0,0,0,0,0,0l-5.3,1.1.7,4.8h0s5.4-1.1,5.4-1.1c.5,1.9,1.1,3.5,2,4.8,1.2,1.9,2.8,3.2,4.5,3.9,1.7.7,3.6.9,5.5.5,1.8-.4,3.2-1,4.3-1.9,1.1-.9,1.9-2,2.4-3.3.6-1.3,1-2.7,1.2-4.2.2-1.3.3-2.5.4-3.8l8-1.6c0,.4,0,.7,0,1.1ZM517.5,510c-.2,1.1-.4,2-.8,2.7h0c-.4.8-1.1,1.3-2,1.5-.7.1-1.4,0-2-.3-.6-.3-1.2-.9-1.7-1.8-.1-.2-.2-.5-.3-.8,0,0,0,0,0,0l6.8-1.4s0,0,0,0ZM531.7,502.1l-6.5,1.3h0c0-.1,0-.3,0-.4,0-.3.1-.7.2-1,.1-.4.3-.8.5-1.2.4-.8,1.1-1.3,2-1.5.7-.1,1.4,0,2,.3.6.3,1.1,1,1.6,1.8,0,.2.2.4.2.6h0Z"/>
  <polygon class="st1" points="498.9 513.7 498.9 513.7 498.9 513.7 498.9 513.7"/>
  <path class="st1" d="M510.7,536.4h0c-7.8-1.3-14.3-5.3-17.9-10.9-.3-.5-.9-.8-1.5-.9-.4,0-.7,0-1.1.3-.5.3-.8.9-.9,1.5,0,.4,0,.7.3,1.1,4.1,6.5,11.6,11.1,20.4,12.6.1,0,.2,0,.3,0,.8,0,1.5-.5,1.8-1.2,0,0,0,0,0,0,0,0,0-.2,0-.3,0-.1,0-.3,0-.4,0-.9-.7-1.6-1.6-1.8Z"/>
  <path class="st2" d="M238.1,69.9c1,2.7,2.4,5.2,4,7.6l-.5-3.5c-1.3-1.3-2.4-2.7-3.5-4.1Z"/>
  <path class="st2" d="M284.2,85.9c-2.9.6-5.7.8-8.6.9l1,6.8c2.8,0,5.5-.4,8.3-.9,0,0,.1,0,.2,0,1.8-.4,3.5-.9,5.2-1.4.1,0,.2,0,.4-.1l-1.1-6.7c-1.8.6-3.6,1.1-5.5,1.4Z"/>
  <path class="st2" d="M247.1,78.8c-.7-.5-1.4-1.1-2.1-1.6l.7,4.8c1.5,1.5,3.2,3,5,4.3,2.4,1.7,5.1,3.1,7.8,4.2l-1-6.3c-3.8-1.3-7.3-3.1-10.5-5.4Z"/>
  <path class="st2" d="M273.2,93.6l-1-6.7c-4-.1-7.9-.7-11.6-1.8l1,6.4c3.7,1.2,7.6,1.9,11.6,2.1Z"/>
  <path class="st2" d="M305.4,76.6l1,6.2c4.1-3.3,7.5-7.1,10.2-11.3l-.8-5.1c-2.9,3.8-6.4,7.3-10.4,10.2Z"/>
  <path class="st2" d="M318.8,67.5c.6-1.2,1.1-2.4,1.6-3.7,1.3-3.4,2.2-7,2.5-10.7-1.2,3.5-2.8,6.8-4.8,9.9l.7,4.4Z"/>
  <path class="st2" d="M304.2,84.4l-1-6.4c-3.5,2.3-7.3,4.3-11.4,5.7l1.1,6.7c4.1-1.6,7.9-3.6,11.4-6.1Z"/>
  <path class="st1" d="M324.8,34.2h0s-.6-4.1-.6-4.1c0-.4-.3-.8-.6-1-2.4-8.4-7.6-15.6-15-20.9-10.2-7.2-23.7-9.8-37-7.1-23.9,4.8-41.2,25-41,46.5-.2.3-.3.7-.2,1.1l.6,4.1h0s1.5,10.5,1.5,10.5c1.5,10.5,7.3,19.7,16.2,26,7.6,5.3,17,8.1,26.8,8.1s6.8-.3,10.3-1c25.8-5.2,44-28.4,40.7-51.8l-1.5-10.5ZM238.1,69.9c1.1,1.4,2.2,2.8,3.5,4.1l.5,3.5c-1.7-2.4-3-4.9-4-7.6ZM250.8,86.3c-1.8-1.3-3.5-2.7-5-4.3l-.7-4.8c.7.5,1.4,1.1,2.1,1.6,3.2,2.3,6.8,4,10.5,5.4l1,6.3c-2.8-1.1-5.4-2.5-7.8-4.2ZM261.6,91.6l-1-6.4s0,0,0,0c3.7,1,7.6,1.6,11.6,1.8l1,6.7h0c-4-.2-7.9-.9-11.6-2.1ZM257.4,80.1c-2.9-1.2-5.6-2.6-8.2-4.4-8-5.7-13.2-14-14.6-23.5-3.1-21.4,13.8-42.8,37.7-47.6,3.2-.6,6.4-1,9.6-1s0,0,0,0,0,0,0,0c9,0,17.6,2.6,24.6,7.5,8,5.7,13.2,14,14.6,23.5,3.1,21.4-13.8,42.8-37.7,47.6-9,1.8-18.1,1-26-2.1ZM290.4,91.3c-1.7.5-3.4,1-5.2,1.4,0,0-.1,0-.2,0-2.8.6-5.6.8-8.3.9,0,0,0,0,0,0l-1-6.8h0c2.8,0,5.7-.4,8.6-.9,1.9-.4,3.7-.9,5.5-1.4h0s1.1,6.7,1.1,6.7c-.1,0-.2,0-.4.1ZM292.9,90.5l-1.1-6.7h0c4.1-1.5,7.9-3.4,11.4-5.7l1,6.4h0c-3.5,2.5-7.3,4.5-11.4,6.1ZM316.6,71.4c-2.7,4.2-6.2,8.1-10.2,11.3l-1-6.2h0c4-3,7.5-6.4,10.4-10.2l.8,5.1s0,0,0,0ZM320.4,63.8c-.5,1.2-1,2.5-1.6,3.7l-.7-4.4c2-3.1,3.6-6.5,4.8-9.9-.3,3.7-1.1,7.2-2.5,10.7Z"/>
  <path class="st2" d="M321.1,34.7c-1.4-9.5-6.6-17.8-14.6-23.5-7-4.9-15.6-7.5-24.6-7.5s0,0,0,0c-3.2,0-6.4.3-9.6,1-23.9,4.8-40.8,26.2-37.7,47.6h0c1.4,9.5,6.6,17.8,14.6,23.5,2.5,1.8,5.3,3.2,8.1,4.4,7.9,3.1,17,3.9,26,2.1,23.9-4.8,40.8-26.1,37.7-47.6ZM244.4,47.1c0,.5,0,1,.2,1.4,0,.1,0,.3,0,.4,0,.9-.7,1.6-1.6,1.8,0,0-.2,0-.3,0-.9,0-1.7-.7-1.8-1.6-.2-1.1-.3-2.2-.3-3.3-.4-16.3,13.4-31.9,32.4-35.7,14-2.8,27.6,1.3,35.5,10.8.3.4.5.9.4,1.4,0,.5-.3.9-.7,1.3-.8.7-2,.5-2.6-.2-7-8.4-19.2-12.1-31.8-9.5-17.7,3.6-30.6,18.3-29.3,33.3ZM268.5,72.5c0,.1,0,.2,0,.3,0,0,0,0,0,0-.3.7-1,1.2-1.8,1.2s-.2,0-.3,0c-8.8-1.5-16.2-6.1-20.4-12.6-.2-.3-.3-.7-.3-1.1,0-.6.3-1.2.9-1.5.3-.2.7-.3,1.1-.3.6,0,1.2.3,1.5.9,3.6,5.6,10.1,9.6,17.9,10.9.9.1,1.5.9,1.6,1.8,0,.1,0,.3,0,.4ZM280.7,44.4s0,0,0,0c0,.6-.1,1.2-.2,1.9-.2,1.5-.6,2.9-1.2,4.2-.1.3-.3.6-.5.9-.5.9-1.2,1.7-2,2.4-1.1.9-2.5,1.6-4.3,1.9-1.9.4-3.8.2-5.5-.5-1.7-.7-3.2-2-4.5-3.9-.8-1.3-1.5-2.9-2-4.8l-5.4,1.1h0s-.7-4.8-.7-4.8h0s0,0,0,0l5.3-1.1c0-1.5-.1-2.9,0-4.4.2-2.2.7-4.1,1.4-5.9h0s0,0,0,0l6.2,1.3c-.7,1.7-1.1,3.4-1.3,5.1-.1.9-.1,1.8-.1,2.7l8.2-1.6c.1-1.2.2-2.4.4-3.6.2-1.5.6-2.8,1.2-4.1,0,0,0,0,0-.1.5-1.2,1.3-2.3,2.3-3.3,1.1-1,2.5-1.6,4.2-2,1.9-.4,3.7-.2,5.4.5,1.7.7,3.2,2,4.5,4,.8,1.3,1.5,2.8,2,4.6l5.4-1.1.7,4.8h0s0,0,0,0l-5.3,1.1c.2,2.1.2,4.1,0,6.2-.4,2.6-1,4.8-2,6.6h0s0,0,0,0l-6.3-1.5c0-.2.1-.3.2-.5.1-.3.3-.5.4-.8.5-1.3.9-2.7,1.2-4.3.3-1.5.3-3,.2-4.4l-8,1.6c0,.6-.1,1.2-.2,1.9Z"/>
  <path class="st2" d="M267.3,46.1c.5.9,1,1.5,1.7,1.8.6.3,1.3.4,2,.3.9-.2,1.6-.7,2-1.5h0c.4-.7.7-1.7.8-2.7l-6.8,1.4c.1.3.2.6.3.8Z"/>
  <path class="st2" d="M287.9,35.8c0-.1,0-.2-.1-.3-.5-.9-1-1.5-1.6-1.8-.6-.3-1.2-.4-1.9-.3-.9.2-1.6.7-2,1.5-.2.3-.3.7-.5,1.2,0,.3-.2.6-.2,1,0,.1,0,.3,0,.4l6.5-1.3c0,0,0-.2-.1-.3,0,0,0,0,0,0Z"/>
  <path class="st1" d="M273.7,13.8c12.6-2.6,24.8,1.1,31.8,9.5.7.8,1.8.9,2.6.2.4-.3.6-.8.7-1.3,0-.5,0-1-.4-1.4-7.9-9.5-21.5-13.6-35.5-10.8-19,3.8-32.8,19.4-32.4,35.7,0,1.1.1,2.2.3,3.3.1.9.9,1.6,1.8,1.6s.2,0,.3,0c.9-.1,1.5-.9,1.6-1.7,0-.1,0-.3,0-.4,0-.5-.1-1-.2-1.4-1.3-15,11.6-29.7,29.3-33.3Z"/>
  <path class="st1" d="M288.7,45.3c-.3,1.6-.7,3-1.2,4.3-.1.3-.2.5-.4.8,0,.2-.1.3-.2.5l6.3,1.5s0,0,0,0c.9-1.7,1.6-3.9,1.9-6.5.3-2,.3-4.1,0-6.2h0s5.3-1.1,5.3-1.1h0s-.7-4.9-.7-4.9l-5.4,1.1c-.5-1.8-1.1-3.3-2-4.6-1.3-1.9-2.8-3.2-4.5-4-1.7-.7-3.5-.9-5.4-.5-1.7.4-3.1,1-4.2,2-1,.9-1.8,2-2.3,3.3,0,0,0,0,0,.1-.5,1.3-.9,2.7-1.2,4.1-.2,1.2-.3,2.4-.4,3.6,0,0,0,0,0,0l-8.2,1.6c0-.9,0-1.8.1-2.7.2-1.7.6-3.4,1.3-5l-6.2-1.3h0c-.7,1.7-1.2,3.7-1.4,5.8-.1,1.5-.1,3,0,4.4,0,0,0,0,0,0l-5.3,1.1h0s.7,4.9.7,4.9h0s5.4-1.1,5.4-1.1c.5,1.9,1.1,3.5,2,4.8,1.2,1.9,2.8,3.2,4.5,3.9,1.7.7,3.6.9,5.5.5,1.8-.4,3.2-1,4.3-1.9.8-.7,1.5-1.5,2-2.4.2-.3.3-.6.5-.9.5-1.3,1-2.7,1.2-4.2,0-.6.2-1.3.2-1.9,0,0,0,0,0,0,0-.6.1-1.2.2-1.9h0s8-1.6,8-1.6c0,1.4,0,2.9-.2,4.4ZM273.8,44c-.2,1.1-.4,2-.8,2.7h0c-.4.8-1.1,1.3-2,1.5-.7.1-1.4,0-2-.3-.6-.3-1.2-.9-1.7-1.8-.1-.2-.2-.5-.3-.8,0,0,0,0,0,0l6.8-1.4s0,0,0,0ZM288,36.1l-6.5,1.3h0c0-.1,0-.3,0-.4,0-.3.1-.7.2-1,.1-.4.3-.8.5-1.2.4-.8,1.1-1.3,2-1.5.7-.1,1.4,0,1.9.3.6.3,1.1,1,1.6,1.8,0,0,0,.2.1.3,0,0,0,0,0,0,0,.1,0,.2.1.3h0Z"/>
  <path class="st1" d="M267,70.4h0c-7.8-1.3-14.3-5.3-17.9-10.9-.3-.5-.9-.8-1.5-.9-.4,0-.7,0-1.1.3-.5.3-.8.9-.9,1.5,0,.4,0,.7.3,1.1,4.1,6.5,11.6,11.1,20.4,12.6.1,0,.2,0,.3,0,.8,0,1.5-.5,1.8-1.2,0,0,0,0,0,0,0,0,0-.2,0-.3,0-.1,0-.3,0-.4,0-.9-.7-1.6-1.6-1.8Z"/>
  <path class="st2" d="M22,244c2.1,1.9,4.5,3.5,7.1,4.8l-2.1-2.8c-1.7-.5-3.4-1.2-5-2Z"/>
  <path class="st2" d="M76,231.1l4.1,5.4c2.9-3.3,5.3-6.9,7.2-10.7l-3.9-5.1c-2,3.7-4.5,7.2-7.4,10.4Z"/>
  <path class="st2" d="M89.1,204.4c-.8,4.7-2.3,9.4-4.4,13.9h0l3.8,5c2.1-4.8,3.3-9.8,3.7-14.8l-3.1-4.1Z"/>
  <polygon class="st2" points="89.1 204.4 89.1 204.4 89.1 204.4 89.1 204.4 89.1 204.4"/>
  <path class="st2" d="M89.6,200.5l2.7,3.6c-.1-5-1.1-10-3.1-14.6.4,2.7.6,5.5.6,8.2,0,.9,0,1.9-.1,2.8Z"/>
  <path class="st2" d="M49,246.9l3.9,5.2c3.8-.7,7.6-1.9,11.2-3.6l-4-5.5c-3.6,1.7-7.3,3-11.1,3.8Z"/>
  <path class="st2" d="M39.6,247.9c-1.8,0-3.6-.1-5.4-.3-.9-.1-1.7-.3-2.6-.5l2.9,3.9c2.1.6,4.2,1.2,6.4,1.4,2.9.4,5.9.4,8.9,0l-3.8-5.1c-2.1.3-4.3.5-6.4.5Z"/>
  <path class="st2" d="M70.3,236.6c-2.3,1.9-4.6,3.5-7.1,4.9l4.1,5.5c2.4-1.3,4.8-2.9,7-4.7,1.6-1.3,3-2.7,4.4-4.1l-4.1-5.4c-1.3,1.3-2.7,2.6-4.2,3.8Z"/>
  <path class="st1" d="M79.5,168.4c-.2-.3-.6-.5-1-.6-6.1-6.3-14-10.3-23-11.4-12.4-1.6-25.5,2.4-36.1,11-18.9,15.4-24.7,41.4-14.5,60.3,0,.4,0,.8.3,1.1l8.7,11.9c6.3,8.6,15.7,14,26.4,15.4,1.8.2,3.6.3,5.4.3,10.8,0,21.7-4,30.7-11.4h0c20.4-16.7,25.6-45.7,11.7-64.8l-8.7-11.9ZM10.8,230c-12.8-17.5-7.8-44.3,11-59.7,8.3-6.8,18.4-10.5,28.3-10.5s0,0,0,0,0,0,0,0c1.6,0,3.3.1,4.9.3,9.8,1.2,18.2,6.2,23.9,13.9.4.5.8,1.1,1.1,1.7,11.3,17.5,6.1,43.1-12.2,58-9.7,7.9-21.8,11.7-33.2,10.2-9.8-1.2-18.2-6.2-23.9-13.9ZM29.1,248.8c-2.6-1.3-4.9-2.9-7.1-4.8,0,0,0,0,0,0,1.6.8,3.3,1.4,5,2l2.1,2.8s0,0,0,0ZM40.9,252.5c-2.2-.3-4.4-.8-6.4-1.4h0s-2.9-3.9-2.9-3.9c.9.2,1.7.4,2.6.5,1.8.2,3.6.3,5.4.3s4.3-.2,6.4-.5h0s3.8,5.1,3.8,5.1c-3,.3-6,.3-8.9,0ZM52.9,252.1h0l-3.9-5.2c3.8-.8,7.5-2.1,11.1-3.8l4,5.5c-3.6,1.7-7.4,2.9-11.2,3.6ZM74.2,242.2c-2.2,1.8-4.5,3.4-7,4.7l-4.1-5.5c2.5-1.4,4.8-3,7.1-4.9,1.5-1.2,2.9-2.5,4.2-3.8h0s4.1,5.4,4.1,5.4c-1.4,1.4-2.8,2.8-4.4,4.1ZM80.1,236.5l-4.1-5.4c2.9-3.2,5.4-6.7,7.4-10.4l3.9,5.1c-1.9,3.8-4.3,7.4-7.2,10.7ZM92.3,204.1l-2.7-3.6c0-.9.1-1.9.1-2.8,0-2.8-.1-5.5-.6-8.2,2,4.6,3,9.5,3.1,14.6ZM89.1,204.4s0,0,0,0l3.1,4.1c-.4,5-1.7,10-3.8,14.8h0s-3.8-5-3.8-5h0c2.2-4.5,3.6-9.2,4.4-13.9,0,0,0,0,0,0Z"/>
  <path class="st2" d="M67.9,233.7c18.3-14.9,23.5-40.5,12.2-58-.4-.6-.7-1.1-1.1-1.7-5.7-7.7-14.1-12.7-23.9-13.9-1.6-.2-3.3-.3-4.9-.3s0,0,0,0c-9.9,0-20,3.7-28.3,10.5-18.9,15.4-23.8,42.2-11,59.7h0c5.7,7.7,14.1,12.7,23.9,13.9,11.4,1.5,23.5-2.3,33.2-10.2ZM17.4,224.7s0,0,0,0c-.3.2-.7.4-1.1.4h0s0,0,0,0c-.6,0-1.1-.3-1.5-.8,0,0,0,0,0,0-10.4-14.2-5.8-36.4,10.2-49.4,11-9,24.9-11.7,36.3-7.1,0,0,0,0,0,0,.9.4,1.4,1.5,1,2.4-.3.7-1,1.2-1.7,1.2-.2,0-.5,0-.7-.1-1.6-.7-3.2-1.1-4.9-1.5-.8-.2-1.7-.3-2.5-.4-.9,0-1.7-.1-2.6-.1-7.7,0-15.7,2.9-22.6,8.5-14.5,11.8-18.7,31.7-9.5,44.3,0,0,0,0,0,0,.6.8.4,2-.4,2.6ZM26.1,205c-.8-2-1.3-4-1.5-5.8l6.1-1.8h0s0,0,0,0c0,0,0,0,0,0,.2,1.8.6,3.4,1.2,5,0,0,0,0,0,0,.3.9.7,1.7,1.1,2.4l6.5-5.3s0,0,0,0c-.5-1.1-.9-2.2-1.3-3.4,0,0,0,0,0,0,0,0,0,0,0-.1-.4-1.1-.6-2.3-.8-3.4,0-.2,0-.5,0-.7,0-.3,0-.7,0-1,0,0,0,0,0,0,0-1,.2-2.1.6-3.1,0,0,0,0,0,0,.5-1.3,1.4-2.5,2.7-3.6,0,0,0,0,0,0,0,0,0,0,0,0,1.5-1.2,3.1-1.9,5-2,0,0,0,0,0,0,0,0,0,0,0,0,.2,0,.5,0,.7,0,1.6,0,3.3.5,5.1,1.4,0,0,0,0,0,0,1.3.7,2.6,1.8,3.9,3.1l4.3-3.5h0s0,0,0,0l2.9,4-4.2,3.4s0,0,0,0c1.1,1.7,2,3.5,2.7,5.3,0,0,0,0,0,.1,0,0,0,.2,0,.2.8,2.4,1.3,4.5,1.3,6.4,0,0,0,0,0,0l-6.2,1.6h0s0,0,0,0c0-1.8-.4-3.7-1-5.8-.5-1.4-1.1-2.7-1.9-4l-6.3,5.2c.5,1.2,1,2.3,1.4,3.5.5,1.4.8,2.8.9,4.2.1,1.4,0,2.8-.6,4.1-.5,1.3-1.5,2.5-2.9,3.7,0,0,0,0,0,0-1.5,1.2-3.2,1.9-5,2.1,0,0,0,0,0,0-1.9.2-3.8-.3-5.8-1.4,0,0,0,0,0,0-1.4-.7-2.7-1.8-4-3.3l-4.2,3.5h0s0,0,0,0l-2.9-4,4.2-3.4c-.8-1.2-1.5-2.5-2-3.9ZM24.2,231.6c-.1-.5,0-1,.2-1.4.5-.9,1.6-1.2,2.5-.7,5.8,3.3,13.4,3.8,20.9,1.3,1-.3,2,.2,2.4,1.2,0,.2.1.5,0,.7,0,.7-.5,1.4-1.3,1.6-3.5,1.2-7.1,1.7-10.6,1.7s-9.4-1.1-13.3-3.3c-.4-.3-.7-.7-.9-1.1Z"/>
  <path class="st2" d="M39.1,210.1c.7,0,1.3-.3,1.9-.7.7-.6,1.1-1.3,1.1-2.3,0-.8-.2-1.8-.6-2.8l-5.4,4.4c.2.2.5.4.7.6.8.5,1.6.8,2.3.8Z"/>
  <path class="st2" d="M50.3,190.8c-.2-.1-.3-.3-.5-.4-.8-.6-1.6-.8-2.2-.9-.7,0-1.3.2-1.9.7-.7.6-1.1,1.3-1.1,2.2,0,.8.2,1.7.5,2.6l5.2-4.2Z"/>
  <path class="st1" d="M17.8,222.1s0,0,0,0c-9.2-12.6-5-32.5,9.5-44.3,6.9-5.6,14.9-8.5,22.6-8.5.9,0,1.7,0,2.6.1.9,0,1.7.2,2.5.4,1.7.3,3.3.8,4.9,1.5.2,0,.5.1.7.1.7,0,1.4-.4,1.7-1.2.4-1,0-2-1-2.4,0,0,0,0,0,0-11.4-4.6-25.3-1.9-36.3,7.1-16,13.1-20.5,35.2-10.2,49.4,0,0,0,0,0,0,.4.5.9.8,1.5.8,0,0,0,0,0,0h0c.4,0,.8-.1,1.1-.4,0,0,0,0,0,0,.8-.6,1-1.8.4-2.6Z"/>
  <path class="st1" d="M26.8,216.3h0s4.2-3.5,4.2-3.5h0c1.3,1.4,2.6,2.5,4,3.3,0,0,0,0,0,0,2,1.1,3.9,1.6,5.8,1.4,0,0,0,0,0,0,1.8-.2,3.5-.9,5-2.1,0,0,0,0,0,0,1.4-1.1,2.4-2.4,2.9-3.7.5-1.3.7-2.7.6-4.1-.1-1.4-.4-2.8-.9-4.2-.4-1.2-.9-2.4-1.4-3.5l6.3-5.2h0c.7,1.2,1.4,2.5,1.9,4,.7,2,1,4,1,5.8h0s6.2-1.6,6.2-1.6c0,0,0,0,0,0,0-1.9-.4-4.1-1.3-6.4,0,0,0-.2,0-.2,0,0,0,0,0-.1-.7-1.9-1.6-3.6-2.7-5.3,0,0,0,0,0,0l4.2-3.4-2.9-4h0s-4.3,3.5-4.3,3.5h0c-1.3-1.4-2.6-2.4-3.9-3.1,0,0,0,0,0,0-1.8-1-3.5-1.4-5.1-1.4-.2,0-.5,0-.7,0,0,0,0,0,0,0,0,0,0,0,0,0-1.8.2-3.5.8-5,2,0,0,0,0,0,0,0,0,0,0,0,0-1.3,1.1-2.2,2.3-2.7,3.6,0,0,0,0,0,0-.4,1-.6,2-.6,3.1,0,0,0,0,0,0,0,.3,0,.7,0,1,0,.2,0,.5,0,.7.2,1.1.4,2.3.8,3.4,0,0,0,0,0,.1,0,0,0,0,0,0,.4,1.1.8,2.3,1.3,3.4,0,0,0,0,0,0l-6.5,5.3h0c-.4-.8-.8-1.6-1.2-2.4,0,0,0,0,0,0-.6-1.6-1-3.2-1.2-5,0,0,0,0,0,0h0s-6.1,1.8-6.1,1.8c.2,1.9.6,3.8,1.5,5.8.6,1.4,1.3,2.7,2,3.9l-4.2,3.4,2.9,4ZM44.7,192.3s0,0,0,0c0-.9.4-1.7,1.1-2.2.6-.5,1.2-.7,1.9-.7.7,0,1.4.3,2.2.9.2.1.3.3.5.4,0,0,0,0,0,0l-5.2,4.2c-.3-1-.5-1.9-.5-2.6h0ZM41.5,204.3c.4,1,.6,2,.6,2.8,0,.9-.4,1.7-1.1,2.3-.6.5-1.2.7-1.9.7-.7,0-1.5-.2-2.3-.8-.2-.1-.5-.4-.7-.6l5.4-4.4Z"/>
  <path class="st1" d="M49,234.4c.7-.2,1.2-.9,1.3-1.6,0-.2,0-.5,0-.7-.3-1-1.4-1.5-2.4-1.2-7.5,2.5-15.1,2-20.9-1.3-.9-.5-2-.2-2.5.7-.3.4-.3,1-.2,1.4.1.5.4.9.9,1.1,3.9,2.2,8.5,3.3,13.3,3.3s7-.6,10.6-1.7Z"/>
  <path class="st2" d="M175.5,442.3c2.5-1.6,5-2.9,7.6-4l-3.4-6c-2.5,1.1-5,2.4-7.4,3.9-1.7,1.1-3.3,2.3-4.8,3.6l3.5,5.9c1.5-1.2,3-2.3,4.6-3.3Z"/>
  <path class="st2" d="M159.1,458.8l-3.2-5.4c-2.6,4.5-4.4,9.4-5.4,14.3l2.6,4.4c1.3-4.6,3.3-9.1,6-13.3h0Z"/>
  <path class="st2" d="M152.2,476h0s-2.3-3.9-2.3-3.9c-.4,5,0,10,1.4,14.8-.2-3.6.1-7.3.8-10.9Z"/>
  <path class="st2" d="M169.2,447.1l-3.5-5.9c-1.5,1.3-2.8,2.7-4.1,4.2-1.6,1.8-3,3.7-4.3,5.7l3.3,5.6c2.4-3.4,5.3-6.6,8.6-9.5Z"/>
  <path class="st2" d="M188,436.5c2.2-.7,4.4-1.2,6.6-1.6,0,0,.2,0,.3,0,.2,0,.3,0,.5,0,.8-.1,1.6-.2,2.4-.3l-3.3-5.6c-3.9.2-7.8,1-11.5,2.3l3.4,5.9c.5-.2,1.1-.4,1.6-.5Z"/>
  <path class="st2" d="M206.4,429.9c-2.9-.7-5.8-1-8.8-1.1l3.2,5.5h0c4-.1,7.9.2,11.7,1.1.1,0,.3,0,.4.1.6.2,1.1.3,1.6.5.2,0,.3,0,.5.1l-2.4-4.2c-2-.9-4.1-1.6-6.2-2.2Z"/>
  <path class="st2" d="M217.7,434.9l1.7,3h0c1.6.7,3.2,1.6,4.7,2.5-1.9-2.1-4.1-3.9-6.4-5.5Z"/>
  <path class="st1" d="M239.1,457.4h0s-2-3.6-2-3.6c0,0,0,0,0,0,0,0,0,0,0,0l-5.2-9.2c-5.2-9.2-14-15.7-24.5-18.3-12.1-3-25.7-.5-37.1,6.9-22.1,14.2-30.6,42.5-19,63l5.2,9.2h0s2,3.6,2,3.6c.2.4.5.6.9.8,5.3,6.9,12.8,11.8,21.6,14,3.3.8,6.8,1.2,10.3,1.2,9.2,0,18.5-2.8,26.8-8.1,20.5-13.2,29.3-38.3,21.2-58.3,0-.4,0-.8-.2-1.1ZM224.2,440.4s0,0,0,0c-1.5-.9-3.1-1.8-4.7-2.5h0l-1.7-3h0c2.4,1.6,4.6,3.4,6.5,5.5ZM206.4,429.9c2.2.5,4.2,1.3,6.2,2.2l2.4,4.2h0c-.2,0-.3,0-.5-.1-.5-.2-1.1-.3-1.6-.5-.1,0-.3,0-.4-.1-3.8-.9-7.8-1.3-11.7-1.1h0l-3.2-5.5h0c3,0,6,.4,8.8,1.1ZM194.4,428.8s0,0,0,0l3.3,5.6h0c-.8,0-1.6.2-2.4.3-.2,0-.3,0-.5,0,0,0-.2,0-.3,0-2.2.4-4.4.9-6.6,1.6-.5.2-1.1.3-1.6.5h0s-3.4-5.9-3.4-5.9c3.8-1.3,7.7-2.1,11.5-2.3ZM172.2,436.2c2.4-1.5,4.9-2.8,7.4-3.9l3.4,6c-2.6,1.1-5.2,2.4-7.6,4-1.6,1-3.1,2.2-4.6,3.3l-3.5-5.9c1.5-1.3,3.1-2.5,4.8-3.6ZM161.6,445.4c1.3-1.5,2.6-2.8,4.1-4.2h0s3.5,5.9,3.5,5.9c-3.3,2.9-6.1,6.1-8.6,9.5l-3.3-5.6c1.3-2,2.7-3.9,4.3-5.7ZM151.3,487s0,0,0,0c-1.4-4.8-1.9-9.8-1.4-14.8,0,0,0,0,0,0h0s2.3,3.9,2.3,3.9c-.7,3.7-1,7.3-.8,11ZM153.1,472.1l-2.6-4.4c1-4.9,2.8-9.8,5.4-14.3h0s3.2,5.4,3.2,5.4h0c-2.6,4.2-4.7,8.7-6,13.3,0,0,0,0,0,0ZM216.1,513.7c-7.9,5.1-16.9,7.7-25.6,7.5-2.9,0-5.8-.4-8.6-1.1-9.6-2.3-17.4-8.2-22.2-16.5-10.7-18.8-2.8-44.9,17.8-58.1,7.7-4.9,16.3-7.5,24.8-7.5s0,0,0,0c0,0,0,0,0,0,3.2,0,6.3.4,9.4,1.1,9.5,2.3,17.4,8.2,22.2,16.5,10.7,18.8,2.8,44.9-17.8,58Z"/>
  <path class="st2" d="M216.1,513.7c20.5-13.2,28.5-39.2,17.8-58-4.7-8.3-12.6-14.2-22.2-16.5-3.1-.7-6.2-1.1-9.4-1.1,0,0,0,0,0,0-8.4,0-17.1,2.6-24.8,7.5-20.5,13.2-28.5,39.2-17.8,58.1,4.7,8.3,12.6,14.2,22.2,16.5,2.8.7,5.7,1,8.6,1.1,8.7.2,17.7-2.4,25.6-7.5ZM196.3,446.9h0c2.2-.5,4.4-.7,6.5-.7,6.4-.1,12.4,1.6,17.1,5,.8.6,1,1.8.4,2.6-.4.5-.9.8-1.5.8s0,0,0,0,0,0,0,0c-.4,0-.8-.1-1.1-.4-4-2.9-9.3-4.4-14.9-4.3-1.9,0-3.8.3-5.7.7h0c-.1,0-.3,0-.4,0-.9,0-1.7-.6-1.9-1.5-.2-1,.4-2,1.5-2.2ZM177.5,492.4l4.5-2.9c-.9-1.9-1.7-3.8-2.2-5.8-.6-2.6-.8-4.8-.6-6.8h0s0,0,0,0l6.4-.9c-.2,1.8,0,3.8.4,5.9.3,1.5.8,2.9,1.4,4.2l6.9-4.4c-.3-1.2-.7-2.4-1-3.7-.3-1.5-.5-2.9-.4-4.3,0-1.4.4-2.8,1-4,.7-1.2,1.8-2.4,3.3-3.3,0,0,0,0,0,0,0,0,0,0,0,0,1.7-1.1,3.4-1.6,5.3-1.6,1.9,0,3.7.7,5.6,2,1.3.9,2.5,2.2,3.6,3.7l4.6-3h0s2.4,4.2,2.4,4.2h0s0,0,0,0l-4.5,2.9c.6,1.3,1.2,2.7,1.6,4.1.6,2.1.9,4.1.8,6h0s0,0,0,0l-6.3,1.1c0-1.8-.2-3.5-.7-5.2-.2-.9-.5-1.8-.9-2.5l-7,4.5c.3,1.2.7,2.3.9,3.6.3,1.5.5,2.9.4,4.3,0,1.4-.3,2.7-1,4-.6,1.3-1.7,2.4-3.2,3.4,0,0,0,0,0,0,0,0,0,0,0,0-.3.2-.6.4-1,.5,0,0-.2.1-.3.1-1.3.6-2.6.9-4,.8-1.9,0-3.7-.7-5.6-2.1-1.2-.9-2.4-2.1-3.5-3.6l-4.6,3-2.4-4.3h0s0,0,0,0ZM191.8,515.5c-5.4,0-10.6-1.2-15.2-3.8-.9-.5-1.2-1.6-.7-2.5.2-.5.7-.8,1.1-.9,0,0,0,0,.1,0,0,0,.1,0,.2,0,.4,0,.7,0,1.1.2,1.2.7,2.4,1.2,3.7,1.7,9,3.2,19.9,1.7,29.4-4.4,15.7-10.1,22.2-29.4,14.5-43-.5-.9-.2-2,.7-2.6.3-.2.7-.3,1.1-.2.6,0,1.2.4,1.5.9h0c8.7,15.3,1.6,36.8-15.7,48-6.9,4.4-14.4,6.7-21.7,6.7s0,0,0,0h0Z"/>
  <path class="st2" d="M206.3,473.9c-.2-.2-.4-.5-.6-.6-.8-.6-1.5-1-2.2-1-.7,0-1.4,0-2,.5-.8.5-1.2,1.2-1.3,2.1h0c0,.2,0,.4,0,.7,0,.7,0,1.4.3,2.2l5.9-3.8Z"/>
  <path class="st2" d="M190.5,490.6h0c.8.7,1.5,1,2.1,1.1.7.1,1.3,0,1.9-.4.8-.5,1.2-1.2,1.3-2.1h0c0-.8,0-1.7-.2-2.7l-5.6,3.6c.2.2.3.4.5.5Z"/>
  <path class="st1" d="M213.5,508.8c17.4-11.2,24.4-32.7,15.7-48h0c-.3-.6-.9-.9-1.5-1-.4,0-.7,0-1.1.2-.9.5-1.2,1.7-.7,2.6,7.7,13.6,1.2,32.9-14.5,43-9.5,6.1-20.4,7.7-29.4,4.4-1.3-.5-2.5-1-3.7-1.7-.3-.2-.7-.3-1.1-.2,0,0-.1,0-.2,0,0,0,0,0-.1,0-.5.1-.9.4-1.1.9-.5.9-.2,2,.7,2.5,4.6,2.5,9.8,3.8,15.2,3.8,0,0,0,0,0,0,7.2,0,14.8-2.2,21.7-6.7Z"/>
  <path class="st1" d="M184.6,493.6c1.1,1.5,2.3,2.7,3.5,3.6,1.9,1.3,3.8,2,5.6,2,1.4,0,2.7-.2,4-.8,0,0,.2-.1.3-.1.3-.2.7-.3,1-.5,0,0,0,0,0,0,1.5-1,2.6-2.1,3.2-3.4.6-1.3,1-2.6,1-4,0-1.4-.1-2.8-.4-4.3-.2-1.2-.6-2.4-.9-3.6,0,0,0,0,0,0l7-4.5c.3.8.6,1.6.9,2.5.4,1.6.7,3.4.7,5.2l6.2-1.1h0c0-1.9-.2-3.9-.8-6-.4-1.4-1-2.8-1.6-4.1,0,0,0,0,0,0l4.5-2.9h0s-2.4-4.3-2.4-4.3h0s-4.6,3-4.6,3c-1.1-1.6-2.3-2.8-3.6-3.7-1.9-1.3-3.7-2-5.6-2-1.9,0-3.6.5-5.3,1.6,0,0,0,0,0,0-1.5,1-2.6,2.1-3.2,3.3-.7,1.2-1,2.6-1,4,0,1.4.1,2.9.4,4.3.3,1.3.6,2.5,1,3.7h0s-6.9,4.4-6.9,4.4c-.6-1.3-1.1-2.7-1.4-4.2-.4-2.1-.5-4.1-.4-5.9l-6.4.9s0,0,0,0c-.2,2,0,4.2.6,6.8.5,2,1.2,3.9,2.2,5.8h0s-4.5,2.9-4.5,2.9h0s2.4,4.3,2.4,4.3l4.6-3ZM200.2,474.8h0c.1-.9.6-1.6,1.3-2.1.6-.4,1.3-.5,2-.5.7,0,1.4.4,2.2,1,.2.2.4.4.6.6,0,0,0,0,0,0l-5.9,3.8c-.2-.8-.3-1.5-.3-2.2,0-.2,0-.4,0-.6ZM195.7,486.5s0,0,0,0c.2,1,.3,1.9.2,2.7h0c0,.9-.5,1.6-1.3,2.1-.6.4-1.2.5-1.9.4-.7,0-1.4-.5-2.1-1.1-.1-.1-.3-.3-.4-.5l5.6-3.6Z"/>
  <path class="st1" d="M194.9,449.1c.2.9,1,1.5,1.8,1.5.1,0,.3,0,.4,0h0c1.9-.4,3.8-.6,5.7-.7,5.6-.1,10.9,1.4,14.9,4.3.3.2.7.4,1.1.4,0,0,0,0,0,0,.6,0,1.1-.3,1.5-.8.6-.8.4-2-.4-2.6-4.7-3.4-10.7-5.1-17.1-5-2.1,0-4.3.3-6.5.7-1,.2-1.7,1.2-1.5,2.2Z"/>
  <g>
    <path class="st0" d="M803.4,448.1c-.4,0-.8-.1-1.2-.4-.7-.5-.9-1.5-.5-2.3-.4.8-.2,1.8.5,2.3.3.3.8.4,1.1.4s1.1-.2,1.5-.7h0c1.4-1.8,2.6-3.8,3.6-5.9-1,2.1-2.2,4-3.6,5.9-.4.5-.9.7-1.5.7Z"/>
    <path class="st0" d="M753.4,394.4c.5,0,1,.2,1.3.6.7.7.7,1.9,0,2.6-4.7,4.7-7.2,11.9-6.9,19.8,0,1-.8,1.9-1.8,2h0c1,0,1.8-.9,1.8-2-.3-7.9,2.2-15.1,6.9-19.8.7-.7.7-1.9,0-2.6-.4-.4-.8-.6-1.3-.6Z"/>
    <path class="st0" d="M762.1,464.2l-4.8,1.8c-4.7-1.7-9.2-4.3-13.2-7.6h0c4.1,3.3,8.5,5.9,13.2,7.6l4.8-1.9s0,0,0,0Z"/>
    <path class="st0" d="M779.4,409.7c-.9,0-1.8.2-2.7.4l3.3,7.7s0,0,0,0l-3.3-7.7c.9-.2,1.7-.3,2.7-.4,1.7-.2,3.4-.1,5.2.2v-6.4c0,0,0,0,0,0v6.3c-1.7-.3-3.4-.3-5.1-.2Z"/>
    <path class="st0" d="M747.6,454c.1.1.3.3.4.4h0l-6,2.3s0,0,0,0l6-2.3c-.1-.1-.3-.3-.4-.4Z"/>
    <polygon class="st0" points="774.2 404.3 772.1 399.3 772.1 399.3 774.2 404.3 774.2 404.3"/>
    <path class="st0" d="M764.4,390.8c14.6-5.5,32.7,4,40.1,21.1,4.2,9.6,4.3,19.8.6,27.9,3.7-8.1,3.6-18.3-.6-27.9-7.5-17.1-25.5-26.6-40.1-21.1-1,.4-2-.1-2.4-1.1-.2-.6-.1-1.2.2-1.7-.3.5-.5,1.1-.2,1.7.4,1,1.4,1.4,2.4,1.1Z"/>
    <path class="st0" d="M728.9,404.9c.9-2.1,1.9-4,3.1-5.8l4.5-1.7h0s0,0,0,0l-4.5,1.7c-1.2,1.8-2.3,3.8-3.1,5.8-1.1,2.7-2,5.6-2.5,8.6h0c.5-3,1.3-5.8,2.5-8.6Z"/>
    <path class="st0" d="M725.8,419.5c0,2.9.1,5.9.6,8.9-.5-3-.7-5.9-.6-8.9Z"/>
    <path class="st0" d="M739.9,444.5h0c.2.3.3.5.5.7-.2-.3-.3-.5-.5-.7Z"/>
    <path class="st0" d="M727.1,431.7l6.4-2.4s0,0,0,0h0l-6.4,2.5c.7,2.7,1.5,5.3,2.7,8,.8,1.9,1.8,3.6,2.8,5.3h0c-1-1.7-1.9-3.4-2.7-5.3-1.1-2.6-2-5.3-2.7-8Z"/>
    <path class="st0" d="M761.6,467.4h0c4.9,1.2,9.9,1.6,14.8,1,0,0,0,0,0,0-4.9.7-9.9.3-14.7-1Z"/>
    <path class="st0" d="M774.2,425.4c-1.5,0-3,0-4.4-.3-1.4-.3-2.7-.8-3.8-1.7-.3-.2-.5-.4-.8-.7.3.3.5.5.8.7,1.1.9,2.4,1.4,3.8,1.7,1.4.3,2.9.3,4.3.3,1.3,0,2.5-.2,3.8-.4h0c-1.2.1-2.5.3-3.8.4Z"/>
    <path class="st0" d="M771.4,379.7s0,0,0,0c16.9,0,34,11.2,41.7,29h0c5,11.5,5.4,24.2.9,34.8-3.8,9.1-10.9,15.9-19.9,19.2-3.2,1.2-6.4,1.9-9.7,2.2,3.3-.3,6.6-1,9.8-2.2h0c9-3.4,16-10.2,19.9-19.2,4.5-10.6,4.2-23.2-.9-34.8-7.8-17.8-24.9-29-41.8-29Z"/>
    <path class="st0" d="M783.8,424.5c-.2,0-.5,0-.7,0l2.7,6.1s0,0,0,0l-2.7-6.1c.2,0,.5,0,.7,0Z"/>
    <path class="st0" d="M795.4,428.5c.3-1.8.1-3.7-.6-5.4-.4-.8-.8-1.5-1.2-2.1.5.6.9,1.3,1.2,2.1.8,1.8,1,3.6.7,5.4-.3,1.8-1.3,3.6-2.9,5.2-1,1.1-2.4,2-4.1,2.9l2.2,5-4.6,1.7h0s4.6-1.7,4.6-1.7l-2.2-5c1.7-.9,3-1.8,4.1-2.9,1.6-1.6,2.6-3.4,2.9-5.2Z"/>
    <path class="st0" d="M772.3,412.1l2.8,6.4c-1.1,0-2,0-2.8-.2-.4-.1-.8-.3-1.1-.6.3.3.7.5,1.1.6.8.2,1.8.3,2.8.2l-2.8-6.4s0,0,0,0Z"/>
    <path class="st0" d="M777.7,439.6c-2.6.2-4.9,0-6.8-.5h0c1.9.6,4.2.7,6.8.5,2-.2,4.1-.6,6-1.2h0c-2,.6-4,1-6,1.2Z"/>
    <path class="st2" d="M732,414.2l-6.1,2.3c0,1-.2,1.9-.2,2.9,0,2.9.1,5.9.6,8.9l6.4-2.4c-.7-3.9-1-7.8-.7-11.7Z"/>
    <path class="st2" d="M748,454.4c-.1-.1-.3-.3-.4-.4-2.6-2.6-5.1-5.6-7.1-8.8-.2-.3-.3-.5-.5-.7l-6.3,2.4h0c2.4,3.7,5.2,7,8.4,9.8l6-2.3h0Z"/>
    <path class="st2" d="M742.1,389c-2.4,1.6-4.6,3.4-6.5,5.5l3.3-1.3c1-1.5,2.1-2.9,3.2-4.3Z"/>
    <path class="st2" d="M728.9,404.9c-1.1,2.7-2,5.6-2.5,8.5l6-2.3c.5-3.9,1.5-7.8,3-11.4.3-.8.7-1.6,1.1-2.4l-4.5,1.7c-1.2,1.8-2.2,3.8-3.1,5.8Z"/>
    <path class="st2" d="M776.4,468.4c-3.6-.4-7.1-1.3-10.6-2.6h0s-4.2,1.6-4.2,1.6c4.9,1.2,9.8,1.6,14.7,1Z"/>
    <path class="st2" d="M762.1,464.2c-4.3-2-8.5-4.7-12.2-8h0s-5.8,2.3-5.8,2.3c4.1,3.3,8.5,5.9,13.2,7.6l4.8-1.8Z"/>
    <path class="st2" d="M736.2,437.5c-1.2-2.7-2-5.4-2.7-8.2l-6.4,2.4c.7,2.7,1.5,5.4,2.7,8,.8,1.8,1.7,3.6,2.7,5.3l6.3-2.5c-.9-1.6-1.8-3.3-2.6-5Z"/>
    <path class="st2" d="M814,443.5c4.5-10.6,4.2-23.2-.9-34.8h0c-7.8-17.8-24.9-29-41.7-29-4.3,0-8.6.7-12.7,2.3-9,3.4-16,10.2-19.9,19.2-4.5,10.6-4.2,23.2.9,34.8,8.2,18.8,26.9,30.3,44.7,28.9,3.3-.3,6.6-1,9.7-2.2,9-3.4,16-10.2,19.9-19.2ZM754.7,397.6c-4.7,4.7-7.2,11.9-6.9,19.8,0,1-.8,1.9-1.8,2h0c-1,0-1.8-.8-1.9-1.8-.4-8.9,2.5-17.1,8-22.6.4-.4.8-.5,1.3-.5.5,0,1,.2,1.3.6.7.7.7,1.9,0,2.6ZM762,389.7c-.2-.6-.1-1.3.2-1.7.2-.3.5-.5.9-.7h0c16.5-6.2,36.6,4.2,44.9,23.1,4.6,10.6,4.7,22,.5,31.1-1,2.1-2.2,4.1-3.6,5.9h0c-.4.5-.9.7-1.5.7s-.8-.1-1.1-.4c-.7-.6-.9-1.5-.5-2.3,0-.1.1-.2.2-.3,1.3-1.6,2.3-3.4,3.2-5.2,3.7-8.1,3.6-18.3-.6-27.9-7.5-17.1-25.5-26.6-40.1-21.1-1,.4-2-.1-2.4-1.1ZM790.6,441.7l-4.6,1.7h0s0,0,0,0l-2.2-5c-2,.6-4,1.1-6,1.2-2.7.2-4.9,0-6.8-.5h0s0,0,0,0v-6.4c1.8.5,3.8.7,6,.6,1.5,0,2.9-.3,4.3-.7l-3.3-7.5c-1.2.2-2.5.3-3.8.4-1.5,0-2.9,0-4.3-.3-1.4-.3-2.7-.8-3.8-1.7-.3-.2-.6-.5-.8-.7-.8-.8-1.4-1.8-2-3-.8-1.8-1-3.6-.7-5.5h0c.3-1.9,1.3-3.6,2.9-5.2,1.1-1.1,2.5-2.1,4.2-3l-2.2-5,4.6-1.7h0s0,0,0,0l2.2,4.9c1.4-.4,2.8-.7,4.3-.9,2.2-.2,4.2-.2,6,.2h0s0,0,0,0v6.4c-1.7-.3-3.4-.3-5.1-.2-.9,0-1.8.2-2.7.4l3.3,7.7c1.2-.2,2.4-.3,3.7-.3,1.5,0,2.9,0,4.3.3s2.6.8,3.8,1.6c.6.4,1.1.9,1.6,1.6.5.6.9,1.3,1.2,2.1.8,1.8,1,3.6.6,5.4-.3,1.8-1.3,3.6-2.9,5.2-1,1.1-2.4,2-4.1,2.9l2.2,5Z"/>
    <path class="st1" d="M816.6,407.2h0c-9.8-22.3-33.2-35-54.2-30.2-.4-.1-.8-.1-1.2,0l-3.9,1.5-9.9,3.7c-9.9,3.7-17.8,11.3-22,21.3-4.9,11.5-4.6,25.3.9,37.7,8.4,19.2,26.9,31.2,45.2,31.2s9.5-.8,14-2.5l13.8-5.2c.4-.1.7-.4.9-.8,7.7-4.1,13.7-10.7,17.2-19.1,4.9-11.5,4.5-25.3-.9-37.7ZM742.1,389c-1.2,1.3-2.3,2.8-3.2,4.3l-3.3,1.3c1.9-2.1,4.1-4,6.5-5.5ZM728.8,404.9c.9-2.1,1.9-4,3.1-5.8l4.5-1.7h0,0c-.4.8-.8,1.6-1.1,2.4-1.5,3.6-2.5,7.5-3,11.4l-6,2.3h0c.5-2.9,1.3-5.8,2.5-8.5ZM725.8,419.5c0-1,0-1.9.2-2.9l6.1-2.3c-.2,3.8,0,7.8.7,11.7l-6.4,2.4c-.5-3-.7-5.9-.6-8.9ZM732.5,445c-1-1.7-1.9-3.4-2.8-5.3-1.1-2.6-2-5.3-2.7-8l6.4-2.5h0s0,0,0,0c.7,2.8,1.6,5.5,2.7,8.2.8,1.8,1.6,3.4,2.6,5l-6.3,2.5h0ZM742,456.8c-3.1-2.8-6-6.1-8.4-9.8h0l6.3-2.4h0c.2.3.3.5.5.7,2.1,3.2,4.5,6.2,7.1,8.8.1.1.3.3.4.4l-6,2.3s0,0,0,0ZM744.1,458.5h0s5.8-2.3,5.8-2.3h0c3.7,3.3,7.8,6,12.2,8,0,0,0,0,0,0l-4.8,1.9c-4.7-1.7-9.2-4.3-13.2-7.6ZM761.6,467.4h0s4.2-1.6,4.2-1.6h0c3.4,1.3,7,2.1,10.6,2.6,0,0,0,0,0,0-4.9.7-9.9.3-14.8-1ZM814,443.5c-3.8,9.1-10.9,15.9-19.9,19.2h0c-3.2,1.2-6.4,1.9-9.8,2.2-17.8,1.4-36.5-10.1-44.7-28.9-5-11.5-5.4-24.2-.9-34.8,3.8-9.1,10.9-15.9,19.9-19.2,4.1-1.5,8.4-2.3,12.7-2.3,0,0,0,0,0,0,16.9,0,34,11.2,41.8,29,5,11.5,5.4,24.2.9,34.8Z"/>
    <path class="st2" d="M775.1,418.4l-2.8-6.4c-.2.2-.5.3-.7.5-.7.7-1.2,1.3-1.4,2-.2.7-.1,1.4.2,2,.2.4.4.8.7,1,.3.3.7.5,1.1.6.8.2,1.8.3,2.8.2Z"/>
    <path class="st2" d="M785.7,424.7h0c-.6-.2-1.2-.2-1.9-.2-.2,0-.5,0-.7,0l2.7,6.1c.2-.1.4-.2.5-.4.8-.6,1.2-1.3,1.5-1.9.2-.7.2-1.3-.1-2-.4-.8-1-1.4-1.9-1.6Z"/>
    <path class="st1" d="M762,389.7c.4,1,1.4,1.5,2.4,1.1,14.6-5.5,32.7,4,40.1,21.1,4.2,9.6,4.3,19.8.6,27.9-.9,1.9-1.9,3.6-3.2,5.2,0,.1-.1.2-.2.3-.4.8-.2,1.7.5,2.3.3.3.7.4,1.2.4s1.1-.2,1.5-.7c1.4-1.8,2.6-3.8,3.6-5.9,4.2-9.1,4.1-20.4-.5-31.1-8.3-18.9-28.4-29.3-44.9-23.1h0c-.4.2-.7.4-.9.7-.3.5-.4,1.1-.2,1.7Z"/>
    <path class="st1" d="M788.3,436.6c1.7-.8,3-1.8,4.1-2.9,1.6-1.7,2.6-3.4,2.9-5.2.3-1.8.1-3.6-.7-5.4-.4-.8-.8-1.5-1.2-2.1-.5-.6-1-1.1-1.6-1.6-1.2-.8-2.4-1.4-3.8-1.6s-2.8-.3-4.3-.3c-1.2,0-2.4.2-3.7.3,0,0,0,0,0,0l-3.3-7.7c.8-.2,1.7-.4,2.7-.4,1.7-.2,3.4,0,5.2.2v-6.3c0,0,0,0,0,0-1.8-.4-3.8-.4-6-.2-1.5.2-2.9.5-4.3.9,0,0,0,0,0,0l-2.2-4.9h0s-4.6,1.7-4.6,1.7l2.2,5c-1.7.9-3.2,1.8-4.2,3-1.6,1.6-2.6,3.4-2.9,5.2h0c-.3,1.9,0,3.7.7,5.5.5,1.2,1.2,2.3,2,3,.3.3.5.5.8.7,1.1.8,2.4,1.4,3.8,1.7,1.4.3,2.9.3,4.4.3,1.3,0,2.5-.2,3.8-.4h0s3.3,7.5,3.3,7.5c-1.4.4-2.8.6-4.3.7-2.2,0-4.1-.1-5.9-.6v6.4c0,0,0,0,0,0,1.9.5,4.2.7,6.8.5,2-.2,4.1-.6,6-1.2h0s2.2,5,2.2,5h0s4.6-1.7,4.6-1.7l-2.2-5ZM772.2,418.2c-.4-.1-.8-.3-1.1-.6-.3-.3-.6-.6-.7-1-.3-.7-.3-1.3-.2-2,.2-.7.6-1.4,1.4-2,.2-.2.5-.3.7-.5,0,0,0,0,0,0l2.8,6.4c-1.1,0-2,0-2.8-.2ZM787.7,428.3c-.2.6-.7,1.3-1.5,1.9-.1.1-.4.2-.5.4,0,0,0,0,0,0l-2.7-6.1c.3,0,.5,0,.7,0,.7,0,1.4,0,1.9.2h0c.9.2,1.5.8,1.9,1.6.3.7.3,1.3.1,2Z"/>
    <path class="st1" d="M747.8,417.4c-.4-7.9,2.2-15.1,6.9-19.8.7-.7.7-1.9,0-2.6-.4-.4-.8-.5-1.3-.6-.5,0-1,.2-1.3.5-5.5,5.4-8.4,13.7-8,22.6,0,1,.9,1.8,1.9,1.8h0c1,0,1.8-.9,1.8-2Z"/>
  </g>
</svg>