<svg id="圖層_1" data-name="圖層 1" xmlns="http://www.w3.org/2000/svg" viewBox="0 0 33 66"><defs><style>.cls-1{fill:#fff;}.cls-2{fill:#898f9c;}</style></defs><title>socialmedia</title><path class="cls-1" d="M31.41,43.32a11,11,0,0,0-.7-3.65,7.7,7.7,0,0,0-4.38-4.38,11,11,0,0,0-3.65-.7c-1.6-.07-2.11-.09-6.18-.09s-4.58,0-6.18.09a11,11,0,0,0-3.65.7A7.23,7.23,0,0,0,4,37a7.23,7.23,0,0,0-1.73,2.65,11,11,0,0,0-.7,3.65c-.07,1.6-.09,2.11-.09,6.18s0,4.58.09,6.18a11,11,0,0,0,.7,3.65A7.23,7.23,0,0,0,4,62a7.23,7.23,0,0,0,2.65,1.73,11,11,0,0,0,3.65.7c1.6.07,2.11.09,6.18.09s4.58,0,6.18-.09a11,11,0,0,0,3.65-.7,7.7,7.7,0,0,0,4.38-4.38,11,11,0,0,0,.7-3.65c.07-1.6.09-2.11.09-6.18S31.48,44.92,31.41,43.32Zm-2.7,12.24a8.3,8.3,0,0,1-.52,2.79,5,5,0,0,1-2.84,2.84,8.3,8.3,0,0,1-2.79.52c-1.58.07-2,.09-6.06.09s-4.48,0-6.06-.09a8.3,8.3,0,0,1-2.79-.52,4.5,4.5,0,0,1-1.72-1.12,4.5,4.5,0,0,1-1.12-1.72,8.3,8.3,0,0,1-.52-2.79C4.22,54,4.2,53.51,4.2,49.5s0-4.48.09-6.06a8.3,8.3,0,0,1,.52-2.79,4.5,4.5,0,0,1,1.12-1.72,4.5,4.5,0,0,1,1.72-1.12,8.3,8.3,0,0,1,2.79-.52c1.58-.07,2.05-.09,6.06-.09s4.48,0,6.06.09a8.3,8.3,0,0,1,2.79.52,5,5,0,0,1,2.84,2.84,8.3,8.3,0,0,1,.52,2.79c.07,1.58.09,2.05.09,6.06S28.78,54,28.71,55.56Z"/><path class="cls-1" d="M16.5,41.8a7.7,7.7,0,1,0,7.7,7.7A7.7,7.7,0,0,0,16.5,41.8Zm0,12.7a5,5,0,1,1,5-5A5,5,0,0,1,16.5,54.5Z"/><circle class="cls-1" cx="24.51" cy="41.49" r="1.8"/><path class="cls-2" d="M31.41,10.32a11,11,0,0,0-.7-3.65A7.23,7.23,0,0,0,29,4a7.23,7.23,0,0,0-2.65-1.73,11,11,0,0,0-3.65-.7c-1.6-.07-2.11-.09-6.18-.09s-4.58,0-6.18.09a11,11,0,0,0-3.65.7A7.23,7.23,0,0,0,4,4,7.23,7.23,0,0,0,2.29,6.67a11,11,0,0,0-.7,3.65c-.07,1.6-.09,2.11-.09,6.18s0,4.58.09,6.18a11,11,0,0,0,.7,3.65A7.23,7.23,0,0,0,4,29a7.23,7.23,0,0,0,2.65,1.73,11,11,0,0,0,3.65.7c1.6.07,2.11.09,6.18.09s4.58,0,6.18-.09a11,11,0,0,0,3.65-.7,7.7,7.7,0,0,0,4.38-4.38,11,11,0,0,0,.7-3.65c.07-1.6.09-2.11.09-6.18S31.48,11.92,31.41,10.32Zm-2.7,12.24a8.3,8.3,0,0,1-.52,2.79,5,5,0,0,1-2.84,2.84,8.3,8.3,0,0,1-2.79.52c-1.58.07-2,.09-6.06.09s-4.48,0-6.06-.09a8.3,8.3,0,0,1-2.79-.52,4.5,4.5,0,0,1-1.72-1.12,4.5,4.5,0,0,1-1.12-1.72,8.3,8.3,0,0,1-.52-2.79c-.07-1.58-.09-2-.09-6.06s0-4.48.09-6.06a8.3,8.3,0,0,1,.52-2.79A4.5,4.5,0,0,1,5.93,5.93,4.5,4.5,0,0,1,7.65,4.81a8.3,8.3,0,0,1,2.79-.52C12,4.22,12.49,4.2,16.5,4.2s4.48,0,6.06.09a8.3,8.3,0,0,1,2.79.52,4.5,4.5,0,0,1,1.72,1.12,4.5,4.5,0,0,1,1.12,1.72,8.3,8.3,0,0,1,.52,2.79c.07,1.58.09,2.05.09,6.06S28.78,21,28.71,22.56Z"/><path class="cls-2" d="M16.5,8.8a7.7,7.7,0,1,0,7.7,7.7A7.7,7.7,0,0,0,16.5,8.8Zm0,12.7a5,5,0,1,1,5-5A5,5,0,0,1,16.5,21.5Z"/><circle class="cls-2" cx="24.51" cy="8.49" r="1.8"/></svg>