<svg id="a6dcfe85-e066-41db-b641-feb8a43db1bf" data-name="text" xmlns="http://www.w3.org/2000/svg" viewBox="0 0 798.17 354.37"><defs><style>.a605dcdd-d5de-42bd-a00d-d3577c73048b,.a65d4835-934a-47c1-93d9-612ab197088b,.a778b7c8-e592-46ca-85fa-5480c53f487b,.b6bb50f2-1d5e-40c7-9d6d-eb6c1568df62,.be0df7ff-4c96-40a6-95b6-333619bc8f7f,.ef5ac295-cc12-49f3-af39-08dfc9a552c9{fill:none;}.b6bb50f2-1d5e-40c7-9d6d-eb6c1568df62,.f981ef06-7a63-459d-b55e-56b2a6bc5e90{stroke:#aaa;}.a605dcdd-d5de-42bd-a00d-d3577c73048b,.a778b7c8-e592-46ca-85fa-5480c53f487b,.a94f66ba-191e-4a47-883e-56f16b4e5fd3,.b6bb50f2-1d5e-40c7-9d6d-eb6c1568df62,.be0df7ff-4c96-40a6-95b6-333619bc8f7f,.ef5ac295-cc12-49f3-af39-08dfc9a552c9,.f981ef06-7a63-459d-b55e-56b2a6bc5e90,.fd5b4029-4829-4547-a39b-adeb300f8722{stroke-linecap:round;}.a605dcdd-d5de-42bd-a00d-d3577c73048b,.a65d4835-934a-47c1-93d9-612ab197088b,.a778b7c8-e592-46ca-85fa-5480c53f487b,.a94f66ba-191e-4a47-883e-56f16b4e5fd3,.b6bb50f2-1d5e-40c7-9d6d-eb6c1568df62,.be0df7ff-4c96-40a6-95b6-333619bc8f7f,.ef5ac295-cc12-49f3-af39-08dfc9a552c9,.f981ef06-7a63-459d-b55e-56b2a6bc5e90{stroke-linejoin:round;}.a093d6b4-3620-4165-a2ed-6c3787269e73,.a94f66ba-191e-4a47-883e-56f16b4e5fd3,.b6bb50f2-1d5e-40c7-9d6d-eb6c1568df62,.f981ef06-7a63-459d-b55e-56b2a6bc5e90,.fd5b4029-4829-4547-a39b-adeb300f8722{stroke-width:1.5px;}.a6980d4c-62b1-42bb-8a47-0df2893b1437,.acac16e1-6017-4dcd-8abf-137bdca41ea6{fill:#cb0016;}.a605dcdd-d5de-42bd-a00d-d3577c73048b,.a65d4835-934a-47c1-93d9-612ab197088b{stroke:#cfd0d2;stroke-width:0.72px;}.a778b7c8-e592-46ca-85fa-5480c53f487b,.a94f66ba-191e-4a47-883e-56f16b4e5fd3{stroke:#cb0016;}.a778b7c8-e592-46ca-85fa-5480c53f487b,.be0df7ff-4c96-40a6-95b6-333619bc8f7f,.ef5ac295-cc12-49f3-af39-08dfc9a552c9{stroke-width:2px;}.ef5ac295-cc12-49f3-af39-08dfc9a552c9{stroke:#164bb5;}.be0df7ff-4c96-40a6-95b6-333619bc8f7f,.fd5b4029-4829-4547-a39b-adeb300f8722{stroke:#9fcfff;}.b11d12e4-02ae-460a-bd2e-fecae344fc58{fill:#666;}.acac16e1-6017-4dcd-8abf-137bdca41ea6,.b5f3ab46-7e8c-4434-a2d0-840c39ae71b8,.be4cbf7d-d6bb-4a2e-a7a7-93466145c15e{opacity:0.3;}.a093d6b4-3620-4165-a2ed-6c3787269e73,.a94f66ba-191e-4a47-883e-56f16b4e5fd3,.f981ef06-7a63-459d-b55e-56b2a6bc5e90,.fd5b4029-4829-4547-a39b-adeb300f8722{fill:#fff;}.b5f3ab46-7e8c-4434-a2d0-840c39ae71b8{fill:#002d94;}.a093d6b4-3620-4165-a2ed-6c3787269e73{stroke:#002d94;stroke-miterlimit:10;}.a4ef5ce2-2da5-43a4-8162-d254d7342655{fill:#9fcfff;opacity:0.4;}.fd5b4029-4829-4547-a39b-adeb300f8722{stroke-miterlimit:1;}.af9a8e7a-2583-48b9-9baf-a6d8af6751a1,.be4cbf7d-d6bb-4a2e-a7a7-93466145c15e{fill:#aaa;}.a1965ec0-419d-4004-94de-0ce0bdfeaedc{fill:#888;}.a63482c7-f41a-404c-ac41-a13d9b110170{fill:#164bb5;}.b24fc7b9-68ca-489f-812b-f0108fcfe21a{fill:#83c7ff;}</style></defs><polyline class="b6bb50f2-1d5e-40c7-9d6d-eb6c1568df62" points="25.19 254.67 26.46 253.86 27.62 257.68 28.77 257.8 32.36 257.8 33.52 258.61 34.67 255.71 35.95 256.99 37.1 259.53 40.58 258.61 41.85 259.42 43.01 264.74 44.16 263 45.32 264.04 48.91 263.81 50.06 266.82 51.22 267.28 52.49 271.8 53.65 268.56 57.23 266.94 58.39 266.82 59.55 263.23 60.71 264.74 61.86 263.7 65.45 264.16 66.61 263.47 67.88 261.73 69.04 260.81 70.19 260.81 73.78 263.7 74.94 265.2 76.09 262.31 77.25 263.7 78.52 264.27 81.99 265.55 83.27 268.21 84.42 268.21 85.58 270.41 86.74 268.56 90.32 267.63 91.48 266.7 92.64 270.06 93.91 268.09 95.07 271.45 98.54 276.08 99.81 279.2 100.97 279.2 102.13 272.84 103.28 275.61 106.87 274.46 108.03 273.07 109.18 270.75 110.45 266.59 111.61 265.66 115.2 265.66 116.36 263.35 117.51 259.3 118.67 259.07 119.83 259.07 123.41 259.76 124.57 258.14 125.84 258.14 127 260.11 128.16 260.34 131.74 259.42 132.9 259.88 134.06 262.31 135.21 265.08 136.49 264.74 139.96 265.32 141.23 267.75 142.39 265.32 143.54 263.7 144.7 264.74 148.29 266.24 149.44 264.74 150.6 263 151.87 261.85 153.03 263.93 156.5 266.59 157.77 266.36 158.93 267.98 160.09 264.39 161.24 264.39 164.83 264.51 165.99 264.51 167.15 264.51 168.42 264.51 169.57 262.89 173.16 266.36 174.32 267.86 175.47 268.9 176.63 270.87 177.79 267.63 181.38 267.75 182.53 267.4 183.81 265.78 184.96 268.09 186.12 266.47 189.71 264.85 190.86 266.36 192.02 266.59 193.18 266.47 194.45 265.55 197.92 262.31 199.19 263.23 200.35 260.81 201.51 261.96 202.66 261.38 206.25 260.81 207.41 260.11 208.56 257.91 209.84 258.03 210.99 260.46 214.46 264.27 215.74 266.36 216.89 268.44 218.05 267.28 219.21 270.29 222.79 271.8 223.95 268.44 225.11 268.67 226.38 268.79 227.54 267.4 231.12 265.55 232.28 263.7 233.44 264.74 234.59 266.82 235.87 269.13 239.34 266.94 240.5 266.01 241.77 268.21 242.92 265.78 244.08 265.32 247.67 262.77 248.82 265.66 249.98 265.2 251.14 264.74 252.41 264.85 255.88 264.85 257.15 263.81 258.31 259.88 259.47 259.42 260.63 258.95 264.21 260.11 265.37 260.11 266.53 259.88 267.8 259.65 268.96 260.46 272.43 258.61 273.7 261.73 274.86 261.27 276.01 261.27 277.17 259.76 280.76 259.42 281.91 260.69 283.19 261.04 284.34 261.04 285.5 257.33 289.09 256.29 290.24 256.52 291.4 254.33 292.56 255.83 293.83 255.37 297.3 255.6 298.46 257.56 299.73 257.91 300.89 257.1 302.04 256.76 305.63 260.11 306.79 257.8 307.94 258.26 309.1 260.81 310.37 261.27 313.85 261.38 315.12 261.62 316.27 262.66 317.43 258.72 318.59 258.03 322.18 256.64 323.33 256.06 324.49 259.65 325.76 259.42 326.92 260.46 330.5 260.46 331.66 259.76 332.82 262.19 333.98 262.54 335.13 262.54 338.72 267.28 339.88 266.59 341.15 268.21 342.31 265.08 343.46 268.09 347.05 267.05 348.21 261.5 349.36 261.04 350.52 260.11 351.79 261.5 356.42 264.85 357.69 265.08 358.85 266.36 360.01 262.31 363.59 264.04 364.75 262.08 365.91 261.73 367.06 262.66 368.34 263.81 371.81 263.35 373.08 261.5 374.24 260.46 375.39 261.62 376.55 262.31 380.14 259.42 381.3 258.61 382.45 258.38 383.72 258.38 384.88 260.81 388.47 259.07 389.63 256.87 390.78 257.56 391.94 258.72 393.1 254.9 396.68 256.87 397.84 256.18 399.11 256.29 400.27 256.06 401.43 255.95 405.01 255.48 406.17 253.4 407.33 253.4 408.48 251.09 409.76 251.2 413.23 252.47 414.38 253.52 415.66 254.21 416.81 254.09 417.97 257.1 421.56 257.68 422.71 257.45 423.87 257.68 425.14 258.26 426.3 256.41 429.77 256.87 431.04 256.06 432.2 255.02 433.36 255.25 434.51 257.45 438.1 258.84 439.26 261.62 440.41 262.77 441.69 261.38 442.84 262.31 446.43 261.96 447.59 261.27 448.74 261.38 449.9 262.31 451.06 262.66 455.8 262.66 457.07 264.85 458.23 264.74 459.39 264.16 462.98 264.16 464.13 263.7 465.29 261.73 466.45 261.15 467.72 261.62 471.19 263.12 472.46 261.62 473.62 258.61 474.78 260.46 475.93 259.42 479.52 257.68 480.68 255.02 481.83 254.33 483.11 254.56 484.26 254.21 487.73 254.21 489.01 254.79 490.16 255.14 491.32 255.83 492.48 255.25 496.06 254.44 497.22 254.09 498.38 253.98 499.65 253.98 500.81 253.75 504.39 254.67 505.55 253.17 506.71 253.63 507.86 252.47 509.02 253.28 512.61 252.59 513.76 252.82 515.04 254.79 516.19 254.79 517.35 253.63 520.94 253.17 522.1 253.05 523.25 252.71 524.41 252.94 525.68 250.62 529.15 249.12 530.42 248.31 531.58 247.73 532.74 245.88 533.89 249.58 537.48 252.36 538.64 257.33 539.8 256.18 541.07 258.38 542.23 256.29 545.7 259.07 546.97 259.07 548.13 255.95 549.28 256.41 550.44 256.64 554.03 256.06 555.18 255.6 556.34 252.94 557.61 252.01 558.77 250.04 562.36 248.77 563.51 248.19 564.67 251.9 565.83 254.09 566.98 253.63 570.57 252.59 571.73 251.2 573 249.7 574.16 249.7 575.31 248.66 578.9 247.85 580.06 246.57 581.21 246.57 582.37 246.69 583.64 247.04 587.12 246.92 588.39 246.46 589.54 248.19 590.7 247.38 591.86 244.96 595.45 242.99 596.6 243.34 597.76 243.34 599.03 243.34 600.19 243.34 603.66 243.68 604.93 241.25 606.09 242.29"/><path class="a6980d4c-62b1-42bb-8a47-0df2893b1437" d="M848.26,91.1v2.2H832.58V91.1Zm-1-11.81v2.16H833.59V79.29ZM845.86,85v2.18h-11V85Z" transform="translate(-104.73 -27.56)"/><path class="a6980d4c-62b1-42bb-8a47-0df2893b1437" d="M856.64,85.72c-.61,1.65-2,2.64-5.49,3.24a5.18,5.18,0,0,0-1-1.66c2.69-.29,3.81-.77,4.35-1.58h-4V84h6.91V83.3h-4.89V81.7h4.89v-.92h2.15v.92h5.15v1.6h-5.15V84h7.05v1.68h-4.84v.16c0,.38.07.54.52.54h2.31a8.52,8.52,0,0,0,1.59-.13c.06.51.09,1,.17,1.5a7.62,7.62,0,0,1-1.65.14H862c-1.75,0-2.13-.63-2.13-2.07v-.14Zm7.57,3.38a8.74,8.74,0,0,1-2.94,2.76,33,33,0,0,0,5.6.61,8.72,8.72,0,0,0-1.1,1.83,29.13,29.13,0,0,1-7.12-1.24,31.06,31.06,0,0,1-7.7,1.35,6.59,6.59,0,0,0-.79-1.78A37.53,37.53,0,0,0,856,92a10.44,10.44,0,0,1-1.5-1,17.11,17.11,0,0,1-1.72.7,5,5,0,0,0-1.21-1.46c.56-.16,1.09-.34,1.56-.52-.2-.23-.35-.45-.51-.66l1.46-.85a5.13,5.13,0,0,0,.65.76,7.24,7.24,0,0,0,2.14-1.77l2.06.42c-.22.27-.44.52-.67.77h4.19l.38-.09Zm-10.48-8.89h-3.26V78.48h3.26v-.94h2.14v.94h2.29v1.73h-2.29v1h-2.14Zm2.82,9.63-.32.23a11.35,11.35,0,0,0,2.42,1.1A8.31,8.31,0,0,0,861,89.84Zm4.72-9.63h-2.44V78.48h2.44v-.94h2.13v.94h3.14v1.73H863.4v1h-2.13Z" transform="translate(-104.73 -27.56)"/><path class="a6980d4c-62b1-42bb-8a47-0df2893b1437" d="M884.79,92.18v1.69H868.41V92.18h7v-1h-5.69V89.62h5.69v-.81h-5.1V83.1h5.1v-.68h-6.9V80.75h6.9V80c-1.74.08-3.51.13-5.13.15a5.68,5.68,0,0,0-.44-1.64,99.83,99.83,0,0,0,12.16-.9l1,1.66c-1.58.25-3.45.45-5.42.59v.94h7.08v1.67h-7.08v.68H883v5.71h-5.36v.81h6v1.61h-6v1Zm-12.37-6.86h3v-.81h-3Zm3,2.09V86.6h-3v.81Zm2.17-2.9v.81h3.16v-.81Zm3.16,2.09h-3.16v.81h3.16Z" transform="translate(-104.73 -27.56)"/><path class="a6980d4c-62b1-42bb-8a47-0df2893b1437" d="M902.9,91v2.16H886.48V91h6.88V81.66h-5.91V79.43h14.44v2.23h-6.07V91Z" transform="translate(-104.73 -27.56)"/><line class="a65d4835-934a-47c1-93d9-612ab197088b" x1="23.33" y1="328.04" x2="606.72" y2="328.04"/><line class="a605dcdd-d5de-42bd-a00d-d3577c73048b" x1="23.33" y1="328.04" x2="23.33" y2="331.28"/><line class="a605dcdd-d5de-42bd-a00d-d3577c73048b" x1="169.02" y1="328.04" x2="169.02" y2="331.28"/><line class="a605dcdd-d5de-42bd-a00d-d3577c73048b" x1="314.71" y1="328.04" x2="314.71" y2="331.28"/><line class="a605dcdd-d5de-42bd-a00d-d3577c73048b" x1="460.4" y1="328.04" x2="460.4" y2="331.28"/><line class="a605dcdd-d5de-42bd-a00d-d3577c73048b" x1="606.09" y1="328.04" x2="606.09" y2="331.28"/><polyline class="a778b7c8-e592-46ca-85fa-5480c53f487b" points="25.19 254.67 26.46 249.7 27.62 247.5 28.77 242.29 32.36 242.29 33.52 233.96 34.67 227.95 35.95 228.06 37.1 227.72 40.58 225.17 41.85 229.8 43.01 233.04 44.16 235 45.32 235.7 48.91 235.47 50.06 237.67 51.22 238.25 52.49 238.71 53.65 233.73 57.23 232.46 58.39 237.67 59.55 233.5 60.71 235.93 61.86 236.86 65.45 226.21 66.61 222.86 67.88 219.27 69.04 220.08 70.19 220.08 73.78 218.92 74.94 221.01 76.09 218.81 77.25 216.84 78.52 217.88 81.99 216.49 83.27 219.27 84.42 219.27 85.58 221.01 86.74 217.77 90.32 212.68 91.48 201.22 92.64 205.73 93.91 206.54 95.07 195.9 98.54 200.99 99.81 206.66 100.97 213.37 102.13 205.62 103.28 199.26 106.87 195.67 108.03 195.9 109.18 197.75 110.45 196.83 111.61 194.51 115.2 194.51 116.36 189.31 117.51 181.32 118.67 173.34 119.83 169.18 123.41 162.7 124.57 166.75 125.84 165.24 127 167.56 128.16 169.06 131.74 170.1 132.9 174.03 134.06 175.65 135.21 175.07 136.49 172.99 139.96 164.09 141.23 163.97 142.39 154.71 143.54 149.04 144.7 145.92 148.29 147.89 149.44 148.12 150.6 141.99 151.87 141.52 153.03 139.79 156.5 148.23 157.77 149.16 158.93 140.48 160.09 139.56 161.24 139.56 164.83 139.44 165.99 139.44 167.15 139.44 168.42 139.44 169.57 126.14 173.16 131 174.32 140.25 175.47 143.14 176.63 134.35 177.79 128.91 181.38 124.86 182.53 117.23 183.81 109.01 184.96 105.08 186.12 107.16 189.71 112.37 190.86 108.9 192.02 107.28 193.18 108.9 194.45 101.84 197.92 103 199.19 108.9 200.35 91.31 201.51 88.77 202.66 87.84 206.25 78.7 207.41 73.73 208.56 60.77 209.84 63.31 210.99 68.87 214.46 67.83 215.74 73.73 216.89 86.22 218.05 76.04 219.21 87.5 222.79 119.77 223.95 110.4 225.11 109.71 226.38 124.86 227.54 131.69 231.12 117 232.28 109.94 233.44 108.55 234.59 118.62 235.87 112.37 239.34 108.55 240.5 108.55 241.77 126.6 242.92 116.77 244.08 100.45 247.67 97.91 248.82 109.82 249.98 105.54 251.14 105.2 252.41 109.48 255.88 109.48 257.15 101.26 258.31 98.95 259.47 101.96 260.63 106.82 264.21 107.28 265.37 102.3 266.53 99.53 267.8 102.65 268.96 106.82 272.43 97.44 273.7 112.6 274.86 110.86 276.01 117 277.17 125.67 280.76 123.13 281.91 127.06 283.19 119.43 284.34 119.43 285.5 112.48 289.09 117.34 290.24 117.58 291.4 112.37 292.56 114.92 293.83 111.91 297.3 104.39 298.46 109.94 299.73 87.38 300.89 85.3 302.04 88.77 305.63 93.74 306.79 75.58 307.94 76.27 309.1 84.37 310.37 92.82 313.85 87.03 315.12 80.78 316.27 84.95 317.43 81.02 318.59 80.9 322.18 87.26 323.33 90.5 324.49 87.61 325.76 86.11 326.92 95.02 330.5 95.02 331.66 88.54 332.82 93.74 333.98 86.57 335.13 86.57 338.72 110.29 339.88 110.4 341.15 117.81 342.31 106.01 343.46 110.52 347.05 107.86 348.21 96.17 349.36 98.72 350.52 97.44 351.79 106.12 356.42 112.25 357.69 112.83 358.85 117.34 360.01 108.67 363.59 107.51 364.75 106.82 365.91 101.72 367.06 104.62 368.34 108.32 371.81 102.77 373.08 94.32 374.24 97.79 375.39 99.3 376.55 97.68 380.14 89.11 381.3 79.17 382.45 87.61 383.72 87.61 384.88 72.11 388.47 73.96 389.63 68.29 390.78 73.38 391.94 68.98 393.1 82.52 396.68 98.83 397.84 93.63 399.11 93.63 400.27 86.69 401.43 82.87 405.01 83.91 406.17 74.65 407.33 74.65 408.48 78.01 409.76 76.85 413.23 81.13 414.38 76.04 415.66 66.09 416.81 74.88 417.97 84.49 421.56 83.79 422.71 79.28 423.87 74.54 425.14 74.65 426.3 68.06 429.77 67.48 431.04 63.2 432.2 66.55 433.36 51.17 434.51 60.42 438.1 69.22 439.26 70.37 440.41 78.47 441.69 76.85 442.84 82.98 446.43 73.15 447.59 75.81 448.74 71.64 449.9 79.51 451.06 81.36 455.8 81.36 457.07 94.55 458.23 100.57 459.39 95.48 462.98 95.48 464.13 98.02 465.29 97.21 466.45 97.79 467.72 98.72 471.19 109.48 472.46 105.2 473.62 101.26 474.78 109.82 475.93 104.27 479.52 102.77 480.68 94.2 481.83 93.28 483.11 89.35 484.26 91.54 487.73 92.82 489.01 91.89 490.16 92.35 491.32 95.36 492.48 101.72 496.06 93.51 497.22 101.38 498.38 110.63 499.65 107.74 500.81 105.54 504.39 102.3 505.55 93.51 506.71 94.44 507.86 95.59 509.02 91.54 512.61 94.2 513.76 95.02 515.04 101.84 516.19 101.84 517.35 101.03 520.94 93.05 522.1 96.29 523.25 96.87 524.41 96.06 525.68 89.23 529.15 90.62 530.42 92.01 531.58 90.27 532.74 90.97 533.89 100.45 537.48 112.02 538.64 129.38 539.8 120.47 541.07 129.72 542.23 130.07 545.7 132.96 546.97 132.96 548.13 128.1 549.28 126.37 550.44 124.63 554.03 120.81 555.18 114.57 556.34 112.14 557.61 106.24 558.77 100.92 562.36 90.62 563.51 88.07 564.67 88.42 565.83 90.39 566.98 87.73 570.57 86.8 571.73 84.95 573 82.87 574.16 86.22 575.31 87.03 578.9 86.34 580.06 84.49 581.21 85.41 582.37 86.11 583.64 87.03 587.12 80.9 588.39 83.79 589.54 89.35 590.7 87.38 591.86 83.56 595.45 75.92 596.6 76.73 597.76 76.73 599.03 76.73 600.19 76.73 603.66 78.7 604.93 78.93 606.09 57.07"/><polyline class="ef5ac295-cc12-49f3-af39-08dfc9a552c9" points="25.19 254.67 26.46 249.93 27.62 252.36 28.77 253.17 32.36 253.17 33.52 251.9 34.67 247.62 35.95 243.8 37.1 248.54 40.58 246.23 41.85 247.62 43.01 249.58 44.16 248.19 45.32 248.66 48.91 249 50.06 252.36 51.22 251.43 52.49 253.63 53.65 249.35 57.23 248.66 58.39 250.04 59.55 245.88 60.71 247.04 61.86 241.48 65.45 241.25 66.61 239.75 67.88 238.01 69.04 236.74 70.19 236.74 73.78 234.89 74.94 241.37 76.09 237.55 77.25 232.46 78.52 232.23 81.99 233.96 83.27 236.97 84.42 236.97 85.58 244.49 86.74 239.29 90.32 247.85 91.48 250.51 92.64 250.97 93.91 241.83 95.07 239.63 98.54 234.19 99.81 242.99 100.97 241.02 102.13 237.78 103.28 236.39 106.87 233.62 108.03 240.33 109.18 238.36 110.45 231.76 111.61 230.03 115.2 230.03 116.36 216.84 117.51 216.61 118.67 214.41 119.83 211.87 123.41 215.22 124.57 213.37 125.84 213.72 127 213.02 128.16 215.22 131.74 218.11 132.9 223.32 134.06 225.4 135.21 226.79 136.49 227.95 139.96 227.14 141.23 229.1 142.39 224.01 143.54 218.34 144.7 216.84 148.29 218.81 149.44 216.96 150.6 215.34 151.87 215.8 153.03 218.69 156.5 224.36 157.77 228.53 158.93 232.11 160.09 225.17 161.24 225.17 164.83 222.28 165.99 222.28 167.15 222.28 168.42 222.28 169.57 209.09 173.16 214.41 174.32 225.29 175.47 227.95 176.63 225.63 177.79 229.91 181.38 232.92 182.53 230.96 183.81 228.87 184.96 231.42 186.12 226.91 189.71 226.79 190.86 226.79 192.02 223.55 193.18 224.13 194.45 225.17 197.92 222.63 199.19 219.62 200.35 216.15 201.51 217.53 202.66 218 206.25 214.41 207.41 212.68 208.56 205.39 209.84 200.64 210.99 204.23 214.46 211.17 215.74 213.95 216.89 220.89 218.05 216.72 219.21 222.16 222.79 233.27 223.95 228.53 225.11 234.66 226.38 238.59 227.54 238.48 231.12 236.63 232.28 231.42 233.44 232.46 234.59 235.7 235.87 246.92 239.34 240.56 240.5 239.86 241.77 250.62 242.92 248.66 244.08 245.42 247.67 241.95 248.82 245.07 249.98 246.46 251.14 245.65 252.41 247.04 255.88 247.04 257.15 242.53 258.31 238.01 259.47 240.21 260.63 241.95 264.21 240.79 265.37 240.56 266.53 239.4 267.8 239.75 268.96 240.33 272.43 233.73 273.7 241.95 274.86 237.55 276.01 241.02 277.17 239.17 280.76 235.47 281.91 237.09 283.19 236.39 284.34 236.39 285.5 230.26 289.09 229.8 290.24 230.15 291.4 227.14 292.56 228.99 293.83 226.79 297.3 223.78 298.46 225.17 299.73 220.2 300.89 218 302.04 215.34 305.63 217.77 306.79 210.94 307.94 217.3 309.1 223.55 310.37 225.4 313.85 223.32 315.12 221.82 316.27 224.71 317.43 221.35 318.59 220.08 322.18 218.58 323.33 216.72 324.49 216.49 325.76 216.15 326.92 216.26 330.5 216.26 331.66 213.83 332.82 220.78 333.98 218.11 335.13 218.11 338.72 229.1 339.88 226.68 341.15 225.06 342.31 220.2 343.46 224.94 347.05 223.09 348.21 211.4 349.36 210.82 350.52 207.93 351.79 211.63 356.42 212.91 357.69 214.06 358.85 216.84 360.01 209.78 363.59 217.3 364.75 214.64 365.91 214.76 367.06 216.49 368.34 218 371.81 216.15 373.08 212.33 374.24 210.36 375.39 211.98 376.55 214.76 380.14 210.82 381.3 197.98 382.45 191.04 383.72 191.04 384.88 187.57 388.47 187.69 389.63 181.67 390.78 175.77 391.94 176.81 393.1 171.37 396.68 174.61 397.84 174.15 399.11 166.05 400.27 172.53 401.43 173.22 405.01 172.76 406.17 168.48 407.33 168.48 408.48 158.41 409.76 158.3 413.23 163.04 414.38 163.16 415.66 163.16 416.81 166.86 417.97 174.03 421.56 171.14 422.71 165.7 423.87 165.82 425.14 162.81 426.3 160.38 429.77 162 431.04 161.89 432.2 159.57 433.36 156.91 434.51 163.28 438.1 163.85 439.26 167.09 440.41 168.37 441.69 166.05 442.84 170.56 446.43 167.44 447.59 166.63 448.74 167.09 449.9 170.91 451.06 172.07 455.8 172.07 457.07 179.7 458.23 180.4 459.39 181.9 462.98 181.9 464.13 179.82 465.29 175.19 466.45 173.8 467.72 174.84 471.19 177.39 472.46 173.92 473.62 168.6 474.78 173.22 475.93 172.88 479.52 171.84 480.68 166.63 481.83 168.13 483.11 168.25 484.26 167.67 487.73 171.26 489.01 174.38 490.16 171.37 491.32 175.65 492.48 172.07 496.06 169.41 497.22 168.02 498.38 165.36 499.65 161.19 500.81 163.97 504.39 165.47 505.55 163.74 506.71 166.51 507.86 166.63 509.02 165.36 512.61 168.25 513.76 166.98 515.04 170.56 516.19 170.56 517.35 170.68 520.94 172.53 522.1 174.15 523.25 164.55 524.41 160.84 525.68 149.39 529.15 146.73 530.42 144.76 531.58 145.92 532.74 141.75 533.89 149.51 537.48 154.25 538.64 166.75 539.8 163.51 541.07 177.16 542.23 176.69 545.7 181.9 546.97 181.9 548.13 176 549.28 177.74 550.44 180.51 554.03 177.04 555.18 174.27 556.34 171.37 557.61 168.83 558.77 148.35 562.36 149.85 563.51 150.32 564.67 160.03 565.83 160.61 566.98 160.5 570.57 159.8 571.73 152.4 573 145.57 574.16 145.69 575.31 136.2 578.9 140.02 580.06 136.2 581.21 136.66 582.37 139.44 583.64 140.95 587.12 142.56 588.39 140.48 589.54 144.3 590.7 143.14 591.86 140.37 595.45 134.12 596.6 138.05 597.76 138.05 599.03 138.05 600.19 138.05 603.66 141.52 604.93 131.34 606.09 134.58"/><polyline class="be0df7ff-4c96-40a6-95b6-333619bc8f7f" points="25.19 254.67 26.46 248.08 27.62 250.39 28.77 248.31 32.36 248.31 33.52 246.11 34.67 242.87 35.95 243.22 37.1 243.91 40.58 249 41.85 249.24 43.01 257.45 44.16 257.68 45.32 259.88 48.91 260.11 50.06 263.47 51.22 265.08 52.49 269.6 53.65 267.05 57.23 270.06 58.39 273.99 59.55 266.94 60.71 272.61 61.86 270.99 65.45 271.56 66.61 269.71 67.88 268.67 69.04 266.24 70.19 266.24 73.78 273.53 74.94 275.5 76.09 271.1 77.25 264.16 78.52 264.85 81.99 268.09 83.27 274.23 84.42 274.23 85.58 281.4 86.74 278.04 90.32 278.27 91.48 277.93 92.64 285.22 93.91 283.71 95.07 287.65 98.54 298.06 99.81 303.26 100.97 296.79 102.13 289.84 103.28 292.85 106.87 291.58 108.03 290.19 109.18 284.52 110.45 278.51 111.61 273.18 115.2 273.18 116.36 270.41 117.51 263.47 118.67 263.58 119.83 263.58 123.41 264.74 124.57 264.04 125.84 259.42 127 261.85 128.16 263.81 131.74 263.35 132.9 262.43 134.06 263.93 135.21 271.22 136.49 269.25 139.96 270.99 141.23 275.27 142.39 271.8 143.54 267.51 144.7 267.86 148.29 272.03 149.44 270.29 150.6 266.36 151.87 264.62 153.03 264.28 156.5 265.32 157.77 269.25 158.93 269.37 160.09 264.51 161.24 264.51 164.83 252.82 165.99 252.82 167.15 252.82 168.42 252.82 169.57 252.01 173.16 255.6 174.32 253.75 175.47 257.56 176.63 261.27 177.79 254.21 181.38 254.33 182.53 254.56 183.81 250.85 184.96 250.97 186.12 248.43 189.71 248.66 190.86 248.66 192.02 248.66 193.18 249.47 194.45 247.62 197.92 244.26 199.19 245.76 200.35 243.8 201.51 243.8 202.66 242.06 206.25 241.48 207.41 239.63 208.56 237.67 209.84 240.44 210.99 239.52 214.46 242.06 215.74 243.68 216.89 247.27 218.05 246 219.21 252.13 222.79 254.91 223.95 252.01 225.11 252.94 226.38 254.09 227.54 255.37 231.12 249.47 232.28 247.73 233.44 249.81 234.59 254.09 235.87 256.99 239.34 254.44 240.5 252.47 241.77 257.1 242.92 254.09 244.08 252.59 247.67 250.39 248.82 253.17 249.98 252.82 251.14 254.33 252.41 255.71 255.88 255.71 257.15 250.28 258.31 243.45 259.47 242.76 260.63 241.95 264.21 245.76 265.37 245.88 266.53 245.3 267.8 246.34 268.96 246.46 272.43 249 273.7 253.05 274.86 249.7 276.01 249.47 277.17 247.96 280.76 247.85 281.91 249.24 283.19 248.89 284.34 248.89 285.5 240.44 289.09 240.21 290.24 240.44 291.4 238.25 292.56 239.98 293.83 236.86 297.3 237.9 298.46 242.64 299.73 238.82 300.89 236.16 302.04 236.16 305.63 241.37 306.79 238.36 307.94 238.01 309.1 239.05 310.37 240.67 313.85 240.33 315.12 240.33 316.27 242.76 317.43 238.25 318.59 238.94 322.18 237.67 323.33 238.36 324.49 241.95 325.76 242.87 326.92 245.88 330.5 245.88 331.66 245.76 332.82 251.9 333.98 250.39 335.13 250.39 338.72 257.91 339.88 256.87 341.15 258.61 342.31 254.79 343.46 261.38 347.05 257.33 348.21 250.74 349.36 250.04 350.52 247.04 351.79 249.12 356.42 254.33 357.69 255.25 358.85 257.45 360.01 250.62 363.59 252.47 364.75 250.74 365.91 251.2 367.06 252.71 368.34 254.21 371.81 252.59 373.08 248.19 374.24 248.89 375.39 250.04 376.55 253.86 380.14 242.64 381.3 235.12 382.45 236.63 383.72 236.63 384.88 235.81 388.47 234.31 389.63 232.69 390.78 231.42 391.94 233.27 393.1 227.37 396.68 230.61 397.84 229.1 399.11 229.8 400.27 228.53 401.43 228.64 405.01 227.14 406.17 225.87 407.33 225.87 408.48 224.25 409.76 223.55 413.23 224.36 414.38 225.63 415.66 227.02 416.81 226.33 417.97 231.3 421.56 233.85 422.71 232.11 423.87 232.34 425.14 235.7 426.3 232.69 429.77 234.19 431.04 230.49 432.2 230.03 433.36 229.34 434.51 233.15 438.1 235.12 439.26 238.94 440.41 241.14 441.69 241.48 442.84 243.45 446.43 240.33 447.59 241.72 448.74 241.37 449.9 243.22 451.06 244.61 455.8 244.61 457.07 248.66 458.23 250.74 459.39 248.54 462.98 248.54 464.13 249.7 465.29 248.31 466.45 249.81 467.72 250.74 471.19 253.86 472.46 251.43 473.62 245.65 474.78 249.12 475.93 246.11 479.52 243.91 480.68 239.52 481.83 238.13 483.11 238.01 484.26 238.25 487.73 241.37 489.01 242.06 490.16 244.26 491.32 235.47 492.48 238.48 496.06 235.7 497.22 235.24 498.38 235.12 499.65 234.43 500.81 235 504.39 236.05 505.55 237.09 506.71 237.67 507.86 235.7 509.02 236.05 512.61 234.19 513.76 235.58 515.04 242.41 516.19 242.41 517.35 240.21 520.94 239.05 522.1 238.94 523.25 236.28 524.41 236.74 525.68 233.85 529.15 230.72 530.42 229.91 531.58 229.91 532.74 230.26 533.89 234.19 537.48 238.94 538.64 245.07 539.8 242.29 541.07 246.57 542.23 240.21 545.7 241.95 546.97 241.95 548.13 239.4 549.28 239.63 550.44 240.1 554.03 236.05 555.18 231.77 556.34 228.29 557.61 226.56 558.77 226.21 562.36 223.09 563.51 220.66 564.67 228.41 565.83 228.64 566.98 227.83 570.57 224.82 571.73 224.82 573 223.09 574.16 224.71 575.31 221.7 578.9 218.92 580.06 216.15 581.21 214.53 582.37 213.6 583.64 212.21 587.12 210.82 588.39 212.56 589.54 216.38 590.7 214.64 591.86 219.39 595.45 210.71 596.6 212.1 597.76 212.1 599.03 212.1 600.19 212.1 603.66 209.78 604.93 207.35 606.09 210.01"/><path class="b11d12e4-02ae-460a-bd2e-fecae344fc58" d="M106.7,355.89h3.07v.84H106.7Z" transform="translate(-104.73 -27.56)"/><path class="b11d12e4-02ae-460a-bd2e-fecae344fc58" d="M116.56,357.24H115.4v2.43h-1v-2.43h-3.83v-.72l3.66-5.64h1.21v5.49h1.16Zm-2.2-.87v-2.7c0-.43,0-1.14.07-1.6h-.05c-.22.44-.46.87-.71,1.3l-2,3Z" transform="translate(-104.73 -27.56)"/><path class="b11d12e4-02ae-460a-bd2e-fecae344fc58" d="M117.6,355.24c0-3.06,1.07-4.53,2.74-4.53s2.74,1.48,2.74,4.53-1.07,4.58-2.74,4.58S117.6,358.3,117.6,355.24Zm4.41,0c0-2.57-.67-3.65-1.67-3.65s-1.67,1.08-1.67,3.65.67,3.71,1.67,3.71S122,357.83,122,355.24Z" transform="translate(-104.73 -27.56)"/><path class="b11d12e4-02ae-460a-bd2e-fecae344fc58" d="M106.7,319.09h3.07v.84H106.7Z" transform="translate(-104.73 -27.56)"/><path class="b11d12e4-02ae-460a-bd2e-fecae344fc58" d="M110.82,322.22c2.76-2.41,4-4.16,4-5.67a1.55,1.55,0,0,0-1.62-1.74,2.44,2.44,0,0,0-1.82,1l-.64-.63a3.35,3.35,0,0,1,2.59-1.29,2.41,2.41,0,0,1,2.55,2.6c0,1.75-1.37,3.54-3.44,5.49.46,0,1-.08,1.44-.08h2.44v.95h-5.53Z" transform="translate(-104.73 -27.56)"/><path class="b11d12e4-02ae-460a-bd2e-fecae344fc58" d="M117.6,318.44c0-3.06,1.07-4.53,2.74-4.53s2.74,1.48,2.74,4.53S122,323,120.34,323,117.6,321.5,117.6,318.44Zm4.41,0c0-2.57-.67-3.65-1.67-3.65s-1.67,1.08-1.67,3.65.67,3.71,1.67,3.71S122,321,122,318.44Z" transform="translate(-104.73 -27.56)"/><path class="b11d12e4-02ae-460a-bd2e-fecae344fc58" d="M117.6,281.63c0-3.05,1.07-4.53,2.74-4.53s2.74,1.49,2.74,4.53-1.07,4.59-2.74,4.59S117.6,284.69,117.6,281.63Zm4.41,0c0-2.56-.67-3.64-1.67-3.64s-1.67,1.08-1.67,3.64.67,3.71,1.67,3.71S122,284.23,122,281.63Z" transform="translate(-104.73 -27.56)"/><path class="b11d12e4-02ae-460a-bd2e-fecae344fc58" d="M110.93,248.61c2.75-2.41,4-4.16,4-5.67a1.55,1.55,0,0,0-1.62-1.74,2.46,2.46,0,0,0-1.83,1l-.63-.63a3.35,3.35,0,0,1,2.59-1.29,2.41,2.41,0,0,1,2.55,2.6c0,1.75-1.38,3.54-3.44,5.49.46,0,1-.08,1.44-.08h2.43v.95h-5.52Z" transform="translate(-104.73 -27.56)"/><path class="b11d12e4-02ae-460a-bd2e-fecae344fc58" d="M117.6,244.83c0-3.06,1.07-4.53,2.74-4.53s2.74,1.49,2.74,4.53-1.07,4.58-2.74,4.58S117.6,247.89,117.6,244.83Zm4.41,0c0-2.56-.67-3.64-1.67-3.64s-1.67,1.08-1.67,3.64.67,3.71,1.67,3.71S122,247.42,122,244.83Z" transform="translate(-104.73 -27.56)"/><path class="b11d12e4-02ae-460a-bd2e-fecae344fc58" d="M116.67,210h-1.16v2.43h-1.05V210h-3.82v-.72l3.66-5.64h1.21v5.49h1.16Zm-2.21-.87v-2.7c0-.43.05-1.14.08-1.59h-.05c-.22.43-.46.86-.71,1.29l-2,3Z" transform="translate(-104.73 -27.56)"/><path class="b11d12e4-02ae-460a-bd2e-fecae344fc58" d="M117.6,208c0-3.06,1.07-4.53,2.74-4.53s2.74,1.49,2.74,4.53-1.07,4.58-2.74,4.58S117.6,211.09,117.6,208Zm4.41,0c0-2.57-.67-3.64-1.67-3.64s-1.67,1.07-1.67,3.64.67,3.71,1.67,3.71S122,210.62,122,208Z" transform="translate(-104.73 -27.56)"/><path class="b11d12e4-02ae-460a-bd2e-fecae344fc58" d="M115.77,168.26a1.85,1.85,0,0,0-1.41-.67c-1.2,0-2.22.93-2.27,3.66a2.74,2.74,0,0,1,2-1.07c1.49,0,2.44.93,2.44,2.76A2.64,2.64,0,0,1,114,175.8c-1.69,0-2.94-1.45-2.94-4.36,0-3.44,1.55-4.76,3.25-4.76a2.72,2.72,0,0,1,2.05.9Zm-.27,4.68c0-1.19-.52-1.94-1.59-1.94a2.29,2.29,0,0,0-1.8,1.13c.14,1.82.8,2.82,1.9,2.82C114.85,175,115.5,174.14,115.5,172.94Z" transform="translate(-104.73 -27.56)"/><path class="b11d12e4-02ae-460a-bd2e-fecae344fc58" d="M117.6,171.21c0-3.05,1.07-4.53,2.74-4.53s2.74,1.49,2.74,4.53-1.07,4.59-2.74,4.59S117.6,174.27,117.6,171.21Zm4.41,0c0-2.56-.67-3.64-1.67-3.64s-1.67,1.08-1.67,3.64.67,3.71,1.67,3.71S122,173.81,122,171.21Z" transform="translate(-104.73 -27.56)"/><path class="b11d12e4-02ae-460a-bd2e-fecae344fc58" d="M110.94,136.66a2.81,2.81,0,0,1,1.62-2.43v-.06a2.43,2.43,0,0,1-1.19-2,2.41,2.41,0,0,1,4.82.08,2.91,2.91,0,0,1-1.17,2.12v.06a2.59,2.59,0,0,1,1.48,2.3c0,1.29-1.1,2.28-2.76,2.28A2.52,2.52,0,0,1,110.94,136.66Zm4.52,0c0-1.17-1.08-1.62-2.33-2.12a2.4,2.4,0,0,0-1.2,2,1.69,1.69,0,0,0,1.84,1.62A1.52,1.52,0,0,0,115.46,136.69Zm-.2-4.4a1.47,1.47,0,0,0-1.5-1.57,1.34,1.34,0,0,0-1.39,1.43c0,1,.94,1.51,2,1.91A2.34,2.34,0,0,0,115.26,132.29Z" transform="translate(-104.73 -27.56)"/><path class="b11d12e4-02ae-460a-bd2e-fecae344fc58" d="M117.6,134.41c0-3.06,1.07-4.53,2.74-4.53s2.74,1.49,2.74,4.53S122,139,120.34,139,117.6,137.47,117.6,134.41Zm4.41,0c0-2.56-.67-3.64-1.67-3.64s-1.67,1.08-1.67,3.64.67,3.71,1.67,3.71S122,137,122,134.41Z" transform="translate(-104.73 -27.56)"/><path class="b11d12e4-02ae-460a-bd2e-fecae344fc58" d="M104.73,101.12h2V94.56h-1.56v-.69a5.59,5.59,0,0,0,1.82-.63h.84v7.88h1.77V102h-4.83Z" transform="translate(-104.73 -27.56)"/><path class="b11d12e4-02ae-460a-bd2e-fecae344fc58" d="M110.88,97.61c0-3.06,1.07-4.54,2.74-4.54s2.74,1.49,2.74,4.54-1.07,4.58-2.74,4.58S110.88,100.67,110.88,97.61Zm4.41,0c0-2.57-.67-3.65-1.67-3.65S112,95,112,97.61s.67,3.7,1.67,3.7S115.29,100.2,115.29,97.61Z" transform="translate(-104.73 -27.56)"/><path class="b11d12e4-02ae-460a-bd2e-fecae344fc58" d="M117.6,97.61c0-3.06,1.07-4.54,2.74-4.54s2.74,1.49,2.74,4.54-1.07,4.58-2.74,4.58S117.6,100.67,117.6,97.61Zm4.41,0c0-2.57-.67-3.65-1.67-3.65s-1.67,1.08-1.67,3.65.67,3.7,1.67,3.7S122,100.2,122,97.61Z" transform="translate(-104.73 -27.56)"/><path class="b11d12e4-02ae-460a-bd2e-fecae344fc58" d="M104.73,64.31h2V57.75h-1.56v-.69a5.59,5.59,0,0,0,1.82-.63h.84v7.88h1.77v.91h-4.83Z" transform="translate(-104.73 -27.56)"/><path class="b11d12e4-02ae-460a-bd2e-fecae344fc58" d="M110.82,64.58c2.76-2.41,4-4.16,4-5.68a1.54,1.54,0,0,0-1.62-1.73,2.46,2.46,0,0,0-1.82,1l-.64-.62a3.35,3.35,0,0,1,2.59-1.29,2.41,2.41,0,0,1,2.55,2.6c0,1.75-1.37,3.54-3.44,5.49.46,0,1-.08,1.44-.08h2.44v.94h-5.53Z" transform="translate(-104.73 -27.56)"/><path class="b11d12e4-02ae-460a-bd2e-fecae344fc58" d="M117.6,60.8c0-3.06,1.07-4.53,2.74-4.53s2.74,1.48,2.74,4.53-1.07,4.58-2.74,4.58S117.6,63.86,117.6,60.8Zm4.41,0c0-2.57-.67-3.65-1.67-3.65s-1.67,1.08-1.67,3.65.67,3.7,1.67,3.7S122,63.39,122,60.8Z" transform="translate(-104.73 -27.56)"/><circle class="acac16e1-6017-4dcd-8abf-137bdca41ea6" cx="605.75" cy="57.18" r="10.85"/><circle class="a94f66ba-191e-4a47-883e-56f16b4e5fd3" cx="605.75" cy="57.18" r="4.74"/><circle class="b5f3ab46-7e8c-4434-a2d0-840c39ae71b8" cx="605.75" cy="130.41" r="10.85"/><circle class="a093d6b4-3620-4165-a2ed-6c3787269e73" cx="605.75" cy="130.41" r="4.74"/><circle class="a4ef5ce2-2da5-43a4-8162-d254d7342655" cx="606.09" cy="210.02" r="10.85"/><circle class="fd5b4029-4829-4547-a39b-adeb300f8722" cx="606.09" cy="210.02" r="4.74"/><circle class="be4cbf7d-d6bb-4a2e-a7a7-93466145c15e" cx="606.09" cy="242.29" r="10.85"/><circle class="f981ef06-7a63-459d-b55e-56b2a6bc5e90" cx="606.09" cy="242.29" r="4.74"/><path class="a1965ec0-419d-4004-94de-0ce0bdfeaedc" d="M112.86,379.6c2.29-2,3.35-3.46,3.35-4.72a1.29,1.29,0,0,0-1.35-1.45,2,2,0,0,0-1.51.85l-.53-.52a2.77,2.77,0,0,1,2.15-1.08,2,2,0,0,1,2.13,2.17c0,1.46-1.15,2.95-2.87,4.57.38,0,.83-.07,1.2-.07h2v.79h-4.6Z" transform="translate(-104.73 -27.56)"/><path class="a1965ec0-419d-4004-94de-0ce0bdfeaedc" d="M118.47,376.46c0-2.55.89-3.78,2.29-3.78s2.28,1.24,2.28,3.78-.89,3.81-2.28,3.81S118.47,379,118.47,376.46Zm3.68,0c0-2.14-.56-3-1.39-3s-1.4.9-1.4,3,.56,3.08,1.4,3.08S122.15,378.61,122.15,376.46Z" transform="translate(-104.73 -27.56)"/><path class="a1965ec0-419d-4004-94de-0ce0bdfeaedc" d="M123.9,379.6c2.29-2,3.35-3.46,3.35-4.72a1.29,1.29,0,0,0-1.35-1.45,2,2,0,0,0-1.51.85l-.53-.52a2.77,2.77,0,0,1,2.15-1.08,2,2,0,0,1,2.13,2.17c0,1.46-1.15,2.95-2.87,4.57.38,0,.83-.07,1.2-.07h2v.79h-4.6Z" transform="translate(-104.73 -27.56)"/><path class="a1965ec0-419d-4004-94de-0ce0bdfeaedc" d="M129.47,379.6c2.29-2,3.35-3.46,3.35-4.72a1.29,1.29,0,0,0-1.35-1.45,2.05,2.05,0,0,0-1.52.85l-.52-.52a2.77,2.77,0,0,1,2.15-1.08,2,2,0,0,1,2.13,2.17c0,1.46-1.15,2.95-2.87,4.57.38,0,.83-.07,1.2-.07h2v.79h-4.6Z" transform="translate(-104.73 -27.56)"/><path class="a1965ec0-419d-4004-94de-0ce0bdfeaedc" d="M137.6,372.22h.66l-3,9.71h-.67Z" transform="translate(-104.73 -27.56)"/><path class="a1965ec0-419d-4004-94de-0ce0bdfeaedc" d="M139.24,379.38h1.63v-5.46h-1.3v-.58a4.64,4.64,0,0,0,1.52-.52h.7v6.56h1.47v.76h-4Z" transform="translate(-104.73 -27.56)"/><path class="a1965ec0-419d-4004-94de-0ce0bdfeaedc" d="M259.12,379.6c2.29-2,3.35-3.46,3.35-4.72a1.29,1.29,0,0,0-1.34-1.45,2.05,2.05,0,0,0-1.52.85l-.53-.52a2.8,2.8,0,0,1,2.16-1.08,2,2,0,0,1,2.12,2.17c0,1.46-1.15,2.95-2.86,4.57.38,0,.83-.07,1.2-.07h2v.79h-4.6Z" transform="translate(-104.73 -27.56)"/><path class="a1965ec0-419d-4004-94de-0ce0bdfeaedc" d="M264.74,376.46c0-2.55.89-3.78,2.28-3.78s2.28,1.24,2.28,3.78-.89,3.81-2.28,3.81S264.74,379,264.74,376.46Zm3.67,0c0-2.14-.56-3-1.39-3s-1.39.9-1.39,3,.56,3.08,1.39,3.08S268.41,378.61,268.41,376.46Z" transform="translate(-104.73 -27.56)"/><path class="a1965ec0-419d-4004-94de-0ce0bdfeaedc" d="M270.16,379.6c2.29-2,3.35-3.46,3.35-4.72a1.29,1.29,0,0,0-1.34-1.45,2.05,2.05,0,0,0-1.52.85l-.53-.52a2.8,2.8,0,0,1,2.16-1.08,2,2,0,0,1,2.12,2.17c0,1.46-1.15,2.95-2.86,4.57.38,0,.83-.07,1.2-.07h2v.79h-4.6Z" transform="translate(-104.73 -27.56)"/><path class="a1965ec0-419d-4004-94de-0ce0bdfeaedc" d="M275.73,379.6c2.29-2,3.35-3.46,3.35-4.72a1.29,1.29,0,0,0-1.34-1.45,2.05,2.05,0,0,0-1.52.85l-.53-.52a2.8,2.8,0,0,1,2.16-1.08,2,2,0,0,1,2.12,2.17c0,1.46-1.15,2.95-2.86,4.57.38,0,.82-.07,1.2-.07h2v.79h-4.6Z" transform="translate(-104.73 -27.56)"/><path class="a1965ec0-419d-4004-94de-0ce0bdfeaedc" d="M283.86,372.22h.66l-3,9.71h-.67Z" transform="translate(-104.73 -27.56)"/><path class="a1965ec0-419d-4004-94de-0ce0bdfeaedc" d="M284.91,379.3l.45-.6a2.41,2.41,0,0,0,1.8.81,1.58,1.58,0,0,0,1.55-1.72,1.48,1.48,0,0,0-1.52-1.67,2,2,0,0,0-1.21.43l-.49-.3.23-3.43h3.56v.78h-2.76l-.18,2.12a2.2,2.2,0,0,1,3.29,2,2.38,2.38,0,0,1-2.4,2.52A3.11,3.11,0,0,1,284.91,379.3Z" transform="translate(-104.73 -27.56)"/><path class="a1965ec0-419d-4004-94de-0ce0bdfeaedc" d="M404.12,379.6c2.3-2,3.36-3.46,3.36-4.72a1.29,1.29,0,0,0-1.35-1.45,2.05,2.05,0,0,0-1.52.85l-.53-.52a2.8,2.8,0,0,1,2.16-1.08,2,2,0,0,1,2.13,2.17c0,1.46-1.15,2.95-2.87,4.57.38,0,.83-.07,1.2-.07h2v.79h-4.61Z" transform="translate(-104.73 -27.56)"/><path class="a1965ec0-419d-4004-94de-0ce0bdfeaedc" d="M409.74,376.46c0-2.55.89-3.78,2.29-3.78s2.28,1.24,2.28,3.78-.89,3.81-2.28,3.81S409.74,379,409.74,376.46Zm3.68,0c0-2.14-.56-3-1.39-3s-1.4.9-1.4,3,.56,3.08,1.4,3.08S413.42,378.61,413.42,376.46Z" transform="translate(-104.73 -27.56)"/><path class="a1965ec0-419d-4004-94de-0ce0bdfeaedc" d="M415.16,379.6c2.3-2,3.36-3.46,3.36-4.72a1.29,1.29,0,0,0-1.35-1.45,2.05,2.05,0,0,0-1.52.85l-.53-.52a2.8,2.8,0,0,1,2.16-1.08,2,2,0,0,1,2.13,2.17c0,1.46-1.15,2.95-2.87,4.57.38,0,.83-.07,1.2-.07h2v.79h-4.61Z" transform="translate(-104.73 -27.56)"/><path class="a1965ec0-419d-4004-94de-0ce0bdfeaedc" d="M420.73,379.6c2.3-2,3.36-3.46,3.36-4.72a1.29,1.29,0,0,0-1.35-1.45,2.05,2.05,0,0,0-1.52.85l-.53-.52a2.8,2.8,0,0,1,2.16-1.08,2,2,0,0,1,2.13,2.17c0,1.46-1.15,2.95-2.87,4.57.38,0,.83-.07,1.2-.07h2v.79h-4.61Z" transform="translate(-104.73 -27.56)"/><path class="a1965ec0-419d-4004-94de-0ce0bdfeaedc" d="M428.87,372.22h.66l-3,9.71h-.67Z" transform="translate(-104.73 -27.56)"/><path class="a1965ec0-419d-4004-94de-0ce0bdfeaedc" d="M430.71,379a1.65,1.65,0,0,0,1.23.56c.95,0,1.77-.78,1.84-3.05a2.29,2.29,0,0,1-1.69.91c-1.22,0-2-.79-2-2.31a2.2,2.2,0,0,1,2.1-2.38c1.41,0,2.45,1.16,2.45,3.49,0,3-1.27,4.1-2.65,4.1a2.33,2.33,0,0,1-1.76-.75Zm3.06-3.24c-.1-1.51-.66-2.31-1.6-2.31-.7,0-1.24.66-1.24,1.66s.44,1.63,1.31,1.63A1.94,1.94,0,0,0,433.77,375.71Z" transform="translate(-104.73 -27.56)"/><path class="a1965ec0-419d-4004-94de-0ce0bdfeaedc" d="M550.34,379.6c2.3-2,3.36-3.46,3.36-4.72a1.29,1.29,0,0,0-1.35-1.45,2.05,2.05,0,0,0-1.52.85l-.53-.52a2.8,2.8,0,0,1,2.16-1.08,2,2,0,0,1,2.13,2.17c0,1.46-1.15,2.95-2.87,4.57.38,0,.83-.07,1.2-.07h2v.79h-4.61Z" transform="translate(-104.73 -27.56)"/><path class="a1965ec0-419d-4004-94de-0ce0bdfeaedc" d="M556,376.46c0-2.55.89-3.78,2.29-3.78s2.28,1.24,2.28,3.78-.89,3.81-2.28,3.81S556,379,556,376.46Zm3.68,0c0-2.14-.56-3-1.39-3s-1.4.9-1.4,3,.56,3.08,1.4,3.08S559.64,378.61,559.64,376.46Z" transform="translate(-104.73 -27.56)"/><path class="a1965ec0-419d-4004-94de-0ce0bdfeaedc" d="M561.38,379.6c2.3-2,3.36-3.46,3.36-4.72a1.29,1.29,0,0,0-1.35-1.45,2.05,2.05,0,0,0-1.52.85l-.53-.52a2.8,2.8,0,0,1,2.16-1.08,2,2,0,0,1,2.13,2.17c0,1.46-1.15,2.95-2.87,4.57.38,0,.83-.07,1.2-.07h2v.79h-4.61Z" transform="translate(-104.73 -27.56)"/><path class="a1965ec0-419d-4004-94de-0ce0bdfeaedc" d="M566.8,379.27l.46-.6a2.42,2.42,0,0,0,1.82.84,1.35,1.35,0,0,0,1.49-1.36c0-.87-.59-1.46-2.28-1.46V376c1.51,0,2-.61,2-1.4a1.15,1.15,0,0,0-1.24-1.18,2.29,2.29,0,0,0-1.52.73l-.49-.58a2.93,2.93,0,0,1,2-.88c1.23,0,2.13.66,2.13,1.84a1.83,1.83,0,0,1-1.31,1.77v0a1.88,1.88,0,0,1,1.56,1.85,2.13,2.13,0,0,1-2.35,2.09A3,3,0,0,1,566.8,379.27Z" transform="translate(-104.73 -27.56)"/><path class="a1965ec0-419d-4004-94de-0ce0bdfeaedc" d="M575.09,372.22h.66l-3,9.71h-.67Z" transform="translate(-104.73 -27.56)"/><path class="a1965ec0-419d-4004-94de-0ce0bdfeaedc" d="M576.73,379.38h1.63v-5.46h-1.3v-.58a4.64,4.64,0,0,0,1.52-.52h.7v6.56h1.47v.76h-4Z" transform="translate(-104.73 -27.56)"/><path class="a1965ec0-419d-4004-94de-0ce0bdfeaedc" d="M695.89,379.61c2.3-2,3.36-3.47,3.36-4.73a1.29,1.29,0,0,0-1.35-1.45,2,2,0,0,0-1.51.85l-.54-.52a2.8,2.8,0,0,1,2.16-1.08,2,2,0,0,1,2.13,2.17c0,1.46-1.15,2.95-2.87,4.58.38,0,.83-.07,1.2-.07h2v.79h-4.61Z" transform="translate(-104.73 -27.56)"/><path class="a1965ec0-419d-4004-94de-0ce0bdfeaedc" d="M701.49,376.46c0-2.55.89-3.78,2.29-3.78s2.28,1.24,2.28,3.78-.89,3.82-2.28,3.82S701.49,379,701.49,376.46Zm3.68,0c0-2.14-.56-3-1.39-3s-1.4.9-1.4,3,.56,3.09,1.4,3.09S705.17,378.62,705.17,376.46Z" transform="translate(-104.73 -27.56)"/><path class="a1965ec0-419d-4004-94de-0ce0bdfeaedc" d="M707,379.61c2.3-2,3.36-3.47,3.36-4.73a1.29,1.29,0,0,0-1.35-1.45,2.05,2.05,0,0,0-1.52.85l-.53-.52a2.8,2.8,0,0,1,2.16-1.08,2,2,0,0,1,2.13,2.17c0,1.46-1.15,2.95-2.87,4.58.38,0,.83-.07,1.2-.07h2v.79H707Z" transform="translate(-104.73 -27.56)"/><path class="a1965ec0-419d-4004-94de-0ce0bdfeaedc" d="M712.39,379.28l.46-.6a2.42,2.42,0,0,0,1.82.84,1.35,1.35,0,0,0,1.49-1.36c0-.88-.59-1.47-2.28-1.47V376c1.51,0,2-.61,2-1.4a1.15,1.15,0,0,0-1.24-1.18,2.29,2.29,0,0,0-1.52.73l-.49-.58a2.93,2.93,0,0,1,2.05-.88c1.23,0,2.13.66,2.13,1.84a1.83,1.83,0,0,1-1.31,1.77v0a1.88,1.88,0,0,1,1.56,1.86,2.13,2.13,0,0,1-2.35,2.09A3,3,0,0,1,712.39,379.28Z" transform="translate(-104.73 -27.56)"/><path class="a1965ec0-419d-4004-94de-0ce0bdfeaedc" d="M720.76,372.22h.66l-3,9.71h-.66Z" transform="translate(-104.73 -27.56)"/><path class="a1965ec0-419d-4004-94de-0ce0bdfeaedc" d="M721.84,379.31l.44-.6a2.41,2.41,0,0,0,1.8.81,1.58,1.58,0,0,0,1.56-1.73,1.48,1.48,0,0,0-1.52-1.67,2,2,0,0,0-1.22.43l-.49-.3.23-3.43h3.57v.78h-2.77l-.18,2.12a2.21,2.21,0,0,1,3.3,2,2.38,2.38,0,0,1-2.4,2.52A3.07,3.07,0,0,1,721.84,379.31Z" transform="translate(-104.73 -27.56)"/><path class="b11d12e4-02ae-460a-bd2e-fecae344fc58" d="M111,28.08c-.08.1-.18.2-.28.31a13.84,13.84,0,0,0,5,2.66,4.59,4.59,0,0,0-.61.77,15.18,15.18,0,0,1-3-1.45v.73h-4v-.6a16.25,16.25,0,0,1-2.77,1.38,3.68,3.68,0,0,0-.62-.77,13.29,13.29,0,0,0,5.52-3.45Zm2.77,4c-.37.73-.89,1.57-1.37,2.34H114v4.19h-.9v-.46h-5.47v.46h-.87V34.46h4.65c.36-.55.76-1.2,1.07-1.75h-6.11v-.8H113l.17-.06Zm-.72,3.13h-5.47V37.4h5.47Zm-1-4.91a10.83,10.83,0,0,1-1.88-1.44,11.74,11.74,0,0,1-1.87,1.44Z" transform="translate(-104.73 -27.56)"/><path class="b11d12e4-02ae-460a-bd2e-fecae344fc58" d="M116.83,37.68A11.41,11.41,0,0,0,118,35.26l.78.34a21.39,21.39,0,0,1-1.17,2.47Zm5.09-3.21h-3.33V28.8h2.79a8.18,8.18,0,0,0,.45-1.24l1,.18a8.09,8.09,0,0,1-.56,1.06h3.57v5.67H122a9.16,9.16,0,0,1,1.6,1.8l-.72.44a9,9,0,0,0-1.59-1.88Zm1.91,3.13c.64,0,.75-.18.81-1.39a2.16,2.16,0,0,0,.83.33c-.12,1.53-.41,1.89-1.58,1.89h-2.73c-1.39,0-1.75-.26-1.75-1.2v-2h.89v1.94c0,.33.13.39.91.39Zm-4.37-7.14H125v-1h-5.53Zm0,1.65H125v-1h-5.53Zm0,1.64H125v-1h-5.53Zm6.7,1.32a9.46,9.46,0,0,1,1.37,2.37l-.83.39a9.7,9.7,0,0,0-1.33-2.43Z" transform="translate(-104.73 -27.56)"/><path class="b11d12e4-02ae-460a-bd2e-fecae344fc58" d="M131.91,35.43h2.14v.77h-2.14v2.39h-.83V36.2h-2.24v-.77h2.24v-1.3h-2v-.78h1.11a6,6,0,0,0-.56-1.46l.66-.18a5,5,0,0,1,.61,1.43l-.6.21h1.49a12.4,12.4,0,0,0,.82-1.69l.77.21c-.25.49-.54,1-.8,1.48h1.2v.78h-1.9ZM134,31.66h-5.17v-.78h2.23v-1.2H129.2v-.76h1.88V27.7h.83v1.22h1.81v.76h-1.81v1.2H134Zm5.39.78A11.45,11.45,0,0,1,138,36.33a5.93,5.93,0,0,0,1.9,1.51,3.53,3.53,0,0,0-.61.72,6.78,6.78,0,0,1-1.8-1.52,7.53,7.53,0,0,1-1.75,1.63,2.09,2.09,0,0,0-.4-.45v.4h-.81V28.23h4.64v2.31c0,.45-.08.68-.46.81a6.71,6.71,0,0,1-1.88.14,2.64,2.64,0,0,0-.27-.79c.74,0,1.36,0,1.54,0s.24,0,.24-.19V29.05h-3v3.22h3.41l.14,0Zm-4.12,5.48a6.83,6.83,0,0,0,1.64-1.58A12,12,0,0,1,135.4,33h-.11Zm.88-4.9a10.61,10.61,0,0,0,1.22,2.59,9.5,9.5,0,0,0,1-2.59Z" transform="translate(-104.73 -27.56)"/><path class="b11d12e4-02ae-460a-bd2e-fecae344fc58" d="M140.79,28.22h4.47V29h-1.35v1.52h1.17v8h-.68v-.68h-2.73v.84H141V30.47h1.13V29h-1.35ZM144.4,37V33.82h-.5c-.47,0-.61-.11-.61-.67V31.22h-.55v1a3.38,3.38,0,0,1-.78,2.32,2,2,0,0,0-.29-.27V37Zm-2.73-5.82v2.87a2.85,2.85,0,0,0,.58-1.88v-1Zm.43,3.9H144v.68H142.1ZM143.29,29h-.55v1.52h.55Zm1.11,2.27h-.61v1.92c0,.14,0,.17.15.17h.46Zm2.18-3.29h.74v4.76c0,2.26-.16,4.33-1.42,6a3.1,3.1,0,0,0-.64-.49,7.17,7.17,0,0,0,1.29-4.27l-.59.25a14.44,14.44,0,0,0-.66-2.72l.57-.22a15,15,0,0,1,.68,2.63c0-.37,0-.77,0-1.15Zm4.7,0V38.63h-.77v-4.8l-.46.22a16.23,16.23,0,0,0-.81-2.53v6.87h-.71V33.84l-.54.25a14.85,14.85,0,0,0-.65-2.68l.52-.22a15.19,15.19,0,0,1,.67,2.49V28.11h.71v3.18l.44-.22a14.69,14.69,0,0,1,.83,2.22V27.91Z" transform="translate(-104.73 -27.56)"/><path class="b11d12e4-02ae-460a-bd2e-fecae344fc58" d="M163.59,36.11h-4.88v2.53h-.94V36.11H152.9v-.83h4.87v-1h.94v1h4.88ZM156.08,33c-.91.5-1.88,1-2.67,1.41l-.45-.72c.75-.3,1.86-.83,2.94-1.35Zm4.1,1.48a3.17,3.17,0,0,0-.32-.64c-3.12.3-3.54.36-3.78.48-.05-.17-.17-.56-.26-.78a2.47,2.47,0,0,0,1-.58c.23-.2.75-.66,1.32-1.25a7.33,7.33,0,0,0-1.82.24,5.18,5.18,0,0,0-.25-.76.92.92,0,0,0,.52-.38,8.36,8.36,0,0,0,.93-1.22h-4.37v-.82H158c-.15-.3-.37-.66-.55-.94l.87-.22a6.51,6.51,0,0,1,.7,1.16h4.45v.82h-5.05A13.43,13.43,0,0,1,157.3,31l1.53-.1a11.15,11.15,0,0,0,.8-1l.73.42a23.52,23.52,0,0,1-3,3l2.1-.16c-.19-.27-.4-.54-.59-.77l.66-.28a8.87,8.87,0,0,1,1.38,2Zm-6.27-4.4a9.89,9.89,0,0,1,1.82,1.35l-.62.54a9.63,9.63,0,0,0-1.8-1.4Zm8.78,4.45a14.8,14.8,0,0,0-2.35-1.68l.63-.48A14.5,14.5,0,0,1,163.35,34Zm.2-4a13.25,13.25,0,0,1-1.78,1.5l-.65-.42A10.82,10.82,0,0,0,162.15,30Z" transform="translate(-104.73 -27.56)"/><path class="b11d12e4-02ae-460a-bd2e-fecae344fc58" d="M166.55,34a11.23,11.23,0,0,1,1.76-6.08l.68.31a11.65,11.65,0,0,0,0,11.54l-.68.32A11.27,11.27,0,0,1,166.55,34Z" transform="translate(-104.73 -27.56)"/><path class="b11d12e4-02ae-460a-bd2e-fecae344fc58" d="M171.17,31.52c0-1.77.79-2.76,2-2.76s2,1,2,2.76-.79,2.79-2,2.79S171.17,33.29,171.17,31.52Zm3.16,0c0-1.4-.48-2.09-1.17-2.09s-1.17.69-1.17,2.09.48,2.11,1.17,2.11S174.33,32.92,174.33,31.52Zm3.94-2.76H179l-4.86,9.12h-.73Zm-1,6.33c0-1.76.81-2.76,2-2.76s2,1,2,2.76-.79,2.79-2,2.79S177.28,36.87,177.28,35.09Zm3.17,0c0-1.4-.48-2.08-1.16-2.08s-1.18.68-1.18,2.08.48,2.11,1.18,2.11S180.45,36.5,180.45,35.09Z" transform="translate(-104.73 -27.56)"/><path class="b11d12e4-02ae-460a-bd2e-fecae344fc58" d="M183.47,39.76a11.65,11.65,0,0,0,0-11.54l.67-.31a11.34,11.34,0,0,1,0,12.17Z" transform="translate(-104.73 -27.56)"/><path class="a6980d4c-62b1-42bb-8a47-0df2893b1437" d="M736.58,86.22h-5.25V83.51h5.25V78h2.83v5.53h5.25v2.71h-5.25v5.54h-2.83Z" transform="translate(-104.73 -27.56)"/><path class="a6980d4c-62b1-42bb-8a47-0df2893b1437" d="M750.9,92.78H756v-15H751.7V74.9a15.42,15.42,0,0,0,5.51-2h3.48V92.78h4.45v3.81H750.9Z" transform="translate(-104.73 -27.56)"/><path class="a6980d4c-62b1-42bb-8a47-0df2893b1437" d="M768.53,84.66c0-8.2,3.2-12.2,8-12.2s8,4,8,12.2-3.2,12.38-8,12.38S768.53,92.81,768.53,84.66Zm11.59,0c0-6.63-1.54-8.55-3.56-8.55S773,78,773,84.66s1.54,8.7,3.58,8.7S780.12,91.31,780.12,84.66Z" transform="translate(-104.73 -27.56)"/><path class="a6980d4c-62b1-42bb-8a47-0df2893b1437" d="M798.13,76.85H787.48V72.91h15.74v2.85c-5.5,6.72-6.24,11.55-6.62,20.83h-4.77C792.24,88.37,793.62,83.12,798.13,76.85Z" transform="translate(-104.73 -27.56)"/><path class="a6980d4c-62b1-42bb-8a47-0df2893b1437" d="M807.22,85.21c0-2.66,1.33-4.2,3.24-4.2s3.26,1.54,3.26,4.2-1.35,4.25-3.26,4.25S807.22,87.89,807.22,85.21Zm4.63,0c0-2-.61-2.7-1.39-2.7s-1.37.74-1.37,2.7.6,2.75,1.37,2.75S811.85,87.17,811.85,85.21Zm6.3-4.2h1.57l-7.26,13.83h-1.55Zm-1.24,9.58c0-2.68,1.35-4.21,3.24-4.21s3.26,1.53,3.26,4.21-1.37,4.25-3.26,4.25S816.91,93.26,816.91,90.59Zm4.63,0c0-2-.62-2.71-1.39-2.71s-1.39.75-1.39,2.71.61,2.74,1.39,2.74S821.54,92.56,821.54,90.59Z" transform="translate(-104.73 -27.56)"/><path class="a63482c7-f41a-404c-ac41-a13d9b110170" d="M829.51,164.33v2.19H813.82v-2.19Zm-1-11.81v2.16H814.84v-2.16Zm-1.43,5.74v2.18h-11v-2.18Z" transform="translate(-104.73 -27.56)"/><path class="a63482c7-f41a-404c-ac41-a13d9b110170" d="M847.88,162h-3.76v5.63h-2.29V162h-4.34a8.8,8.8,0,0,1-3.68,5.78,8.24,8.24,0,0,0-1.93-1.57,7.3,7.3,0,0,0,3.19-4.21h-3.41v-2.18h3.83c0-.7.07-1.41.07-2.13v-1.31h-3.38v-2.16h3.38v-3.35h2.28v3.35h4v-3.39h2.29v3.39h3.29v2.16h-3.29v3.44h3.76Zm-6-2.18v-3.44h-4v1.33c0,.7,0,1.41-.06,2.11Z" transform="translate(-104.73 -27.56)"/><path class="a63482c7-f41a-404c-ac41-a13d9b110170" d="M856.47,160.62c-.65.18-1.29.39-2,.59v6.41h-2v-5.81c-1,.28-1.88.57-2.71.79l-.53-2c.91-.19,2-.48,3.24-.82V156.3h-1.21a17,17,0,0,1-.67,2.3,17.32,17.32,0,0,0-1.52-1,22.29,22.29,0,0,0,1-5.8l1.79.31c-.07.72-.16,1.42-.27,2.14h.85v-3.45h2v3.45H856v2h-1.49v2.9l1.66-.47Zm9.72-7s0,.72,0,1c-.34,8-.67,11-1.35,11.87a2,2,0,0,1-1.41.93,10.89,10.89,0,0,1-2,.06,5.91,5.91,0,0,0-.59-2.09,15.11,15.11,0,0,0,1.61.07.73.73,0,0,0,.66-.34c.46-.58.78-3,1.07-9.49H864c-.88,4.54-2.75,9.22-5.65,11.61a8.36,8.36,0,0,0-1.76-1.24c2.89-2.07,4.7-6.16,5.6-10.37h-.85c-.79,2.93-2.31,6.16-4.13,7.89a7.64,7.64,0,0,0-1.65-1.21c1.79-1.4,3.2-4.07,4-6.68h-.92a13.37,13.37,0,0,1-1.87,3.22,12.36,12.36,0,0,0-1.62-1.2,15,15,0,0,0,3-6.79l1.95.36a24.15,24.15,0,0,1-.67,2.43Z" transform="translate(-104.73 -27.56)"/><path class="a63482c7-f41a-404c-ac41-a13d9b110170" d="M884.35,165.44v1.73H871.07v-1.73h5.47v-1h-3.83v-1.3a9.13,9.13,0,0,1-1,1.1,11.68,11.68,0,0,0-.85-1.78,10.62,10.62,0,0,1-1.93,5.4,7.86,7.86,0,0,0-1.66-1.39c1.46-1.8,1.6-4.35,1.6-6.21V157h2.44a9.27,9.27,0,0,0-.9-.83c1.3-.2,2.73-.45,4.12-.77-1.14-.29-2.31-.54-3.38-.74l1-.78H869v-1.67h6.29a10.93,10.93,0,0,0-.68-.94l1.44-.7a10.67,10.67,0,0,1,1.21,1.64h6.25v1.67h-2.62l.87.54c-.65.31-1.41.61-2.22.9,1.06.29,2,.58,2.85.85l-1,.83h2.66v1.71H870.94v1.51a18.3,18.3,0,0,1-.09,1.89,8.82,8.82,0,0,0,2.06-3.24l1.82.54c-.09.23-.18.47-.29.72h2.1v-1.1h2.11v1.1h4.47v1.68h-4.47v.93h3.94v1.64h-3.94v1Zm-7.81-2.68v-.93H873.6c-.2.32-.4.63-.62.93Zm3.69-5.74c-.89-.31-2-.61-3.11-.92-1.3.34-2.62.65-3.89.92Zm-6.51-3.12c1.14.25,2.33.52,3.52.81a17.19,17.19,0,0,0,2.37-.81Z" transform="translate(-104.73 -27.56)"/><path class="a63482c7-f41a-404c-ac41-a13d9b110170" d="M736.58,159.45h-5.25v-2.71h5.25v-5.53h2.83v5.53h5.25v2.71h-5.25V165h-2.83Z" transform="translate(-104.73 -27.56)"/><path class="a63482c7-f41a-404c-ac41-a13d9b110170" d="M763,151.2a5.13,5.13,0,0,0-3.64-1.73c-2.72,0-5,2.05-5.15,8a6.87,6.87,0,0,1,4.86-2.53c4,0,6.78,2.37,6.78,7.45,0,4.87-3.39,7.91-7.42,7.91-4.51,0-8.51-3.62-8.51-12,0-8.83,4.38-12.61,9.15-12.61a8.78,8.78,0,0,1,6.43,2.69Zm-1.47,11.16c0-2.81-1.31-4.12-3.36-4.12a4.68,4.68,0,0,0-3.87,2.49c.45,4.32,2,6,4,6C760.05,166.71,761.49,165.24,761.49,162.36Z" transform="translate(-104.73 -27.56)"/><path class="a63482c7-f41a-404c-ac41-a13d9b110170" d="M768,167l2.17-3a7.39,7.39,0,0,0,5.22,2.4,4,4,0,0,0,4.19-4.35c0-2.76-1.6-4.29-4-4.29A5.62,5.62,0,0,0,772,159l-2.14-1.41.63-11.49h12.68v3.94h-8.61l-.45,5a6.11,6.11,0,0,1,2.85-.67c4,0,7.29,2.37,7.29,7.52a8,8,0,0,1-8.28,8.32A10.78,10.78,0,0,1,768,167Z" transform="translate(-104.73 -27.56)"/><path class="a63482c7-f41a-404c-ac41-a13d9b110170" d="M788.47,158.44c0-2.67,1.33-4.2,3.24-4.2s3.26,1.53,3.26,4.2-1.35,4.25-3.26,4.25S788.47,161.12,788.47,158.44Zm4.63,0c0-2-.62-2.7-1.39-2.7s-1.37.74-1.37,2.7.6,2.75,1.37,2.75S793.1,160.4,793.1,158.44Zm6.3-4.2H801l-7.26,13.83h-1.55Zm-1.24,9.58c0-2.68,1.35-4.21,3.24-4.21s3.26,1.53,3.26,4.21-1.37,4.25-3.26,4.25S798.16,166.49,798.16,163.82Zm4.62,0c0-2-.61-2.72-1.38-2.72s-1.39.76-1.39,2.72.61,2.74,1.39,2.74S802.78,165.79,802.78,163.82Z" transform="translate(-104.73 -27.56)"/><path class="b24fc7b9-68ca-489f-812b-f0108fcfe21a" d="M828,228.31v15.48h-2.32v-1.13h-8v1.17h-2.22V228.31Zm-10.34,2.16v3.87h8v-3.87Zm8,10v-4h-8v4Z" transform="translate(-104.73 -27.56)"/><path class="b24fc7b9-68ca-489f-812b-f0108fcfe21a" d="M848,241.2v2.18H831.57V241.2h8.85a46,46,0,0,0,2.33-8l2.44.46a76.47,76.47,0,0,1-2.44,7.55Zm-.75-8.59H832.38v-2.16h6.56a24.46,24.46,0,0,0-.87-2.88l2.15-.54a23.75,23.75,0,0,1,1,2.86l-1.94.56h7.94Zm-11.08,8.16a53.86,53.86,0,0,0-1.5-7.12l2.17-.52a57.92,57.92,0,0,1,1.64,7Z" transform="translate(-104.73 -27.56)"/><path class="b24fc7b9-68ca-489f-812b-f0108fcfe21a" d="M736.58,235.89h-5.25v-2.71h5.25v-5.54h2.83v5.54h5.25v2.71h-5.25v5.53h-2.83Z" transform="translate(-104.73 -27.56)"/><path class="b24fc7b9-68ca-489f-812b-f0108fcfe21a" d="M749.65,243.54c6.44-5.76,10.24-10.21,10.24-13.86,0-2.4-1.31-3.84-3.55-3.84a6.1,6.1,0,0,0-4.35,2.44l-2.56-2.57c2.18-2.3,4.29-3.58,7.52-3.58,4.48,0,7.45,2.88,7.45,7.3s-3.55,8.89-7.87,13.12c1.19-.13,2.75-.26,3.84-.26h5.15v4H749.65Z" transform="translate(-104.73 -27.56)"/><path class="b24fc7b9-68ca-489f-812b-f0108fcfe21a" d="M785.08,240.11h-2.82v6.15h-4.38v-6.15H767.8v-3.2l8.83-14.33h5.63v13.95h2.82Zm-7.2-3.58V231.7c0-1.38.12-3.52.19-4.9h-.13c-.58,1.25-1.22,2.56-1.89,3.84l-3.68,5.89Z" transform="translate(-104.73 -27.56)"/><path class="b24fc7b9-68ca-489f-812b-f0108fcfe21a" d="M788.47,234.88c0-2.67,1.33-4.2,3.24-4.2s3.26,1.53,3.26,4.2-1.35,4.25-3.26,4.25S788.47,237.56,788.47,234.88Zm4.63,0c0-2-.62-2.7-1.39-2.7s-1.37.73-1.37,2.7.6,2.75,1.37,2.75S793.1,236.84,793.1,234.88Zm6.3-4.2H801l-7.26,13.83h-1.55Zm-1.24,9.58c0-2.68,1.35-4.21,3.24-4.21s3.26,1.53,3.26,4.21-1.37,4.25-3.26,4.25S798.16,242.93,798.16,240.26Zm4.62,0c0-2-.61-2.72-1.38-2.72s-1.39.76-1.39,2.72.61,2.74,1.39,2.74S802.78,242.22,802.78,240.26Z" transform="translate(-104.73 -27.56)"/><path class="af9a8e7a-2583-48b9-9baf-a6d8af6751a1" d="M835.85,266.28v15.49h-2.32v-1.14h-8v1.17h-2.22V266.28Zm-10.34,2.16v3.87h8v-3.87Zm8,10v-4h-8v4Z" transform="translate(-104.73 -27.56)"/><path class="af9a8e7a-2583-48b9-9baf-a6d8af6751a1" d="M851,270.87a15.34,15.34,0,0,0,5.07,6.52,9.12,9.12,0,0,0-1.69,1.87,12.37,12.37,0,0,1-1.92-1.85V279h-3.72v3h-2.28v-3h-3.79v-1.61a14.62,14.62,0,0,1-2,2,9.69,9.69,0,0,0-1.57-1.74,15.68,15.68,0,0,0,5.06-6.74h-4.43v-2.18h6.77v-3.47h2.28v3.47h6.81v2.18Zm-4.54,5.93v-5.93h-.12a22.46,22.46,0,0,1-3.2,5.93Zm5.5,0a22.64,22.64,0,0,1-3.15-5.93h-.07v5.93Z" transform="translate(-104.73 -27.56)"/><path class="af9a8e7a-2583-48b9-9baf-a6d8af6751a1" d="M873.57,273.39a11.31,11.31,0,0,1-3,5.41,14,14,0,0,0,3.52,1.33,8.49,8.49,0,0,0-1.38,1.85,12.28,12.28,0,0,1-3.88-1.8,15.18,15.18,0,0,1-3.94,1.73,7.17,7.17,0,0,0-1.06-1.78,1.59,1.59,0,0,1-.67,1.33,4.16,4.16,0,0,1-2.28.4,7.44,7.44,0,0,0-.54-2c.56,0,1.1,0,1.3,0s.27-.08.27-.29V276c-.49.31-.94.62-1.39.89l-.52-1.3a22.82,22.82,0,0,1-1.12,6.43,7.91,7.91,0,0,0-1.72-1c.94-2.47,1-6.07,1-8.68v-6.54h5.69v5.39a3.42,3.42,0,0,0,2.19-3.44v-1.93h6.07v3.94c0,.53,0,.72.25.72h.71a3.8,3.8,0,0,0,.88-.12c.06.52.09,1.22.17,1.71a3.62,3.62,0,0,1-1,.11h-.92c-1.72,0-2.06-.72-2.06-2.45v-1.93H868v0a5.06,5.06,0,0,1-2.89,4.88,8,8,0,0,0-1.25-1.33v8.22c0,.15,0,.29,0,.42a13.09,13.09,0,0,0,3.36-1.28,12.65,12.65,0,0,1-2.31-3.51l.88-.27h-1.3v-2h7.35l.4-.09Zm-13.47-1c0,.74,0,1.58-.06,2.45.54-.18,1.18-.42,1.88-.69v-2l-.72.58a16,16,0,0,0-1.1-1.37Zm0-4.59V270l.5-.36c.44.42.92.9,1.32,1.35v-3.22Zm6.79,7.22a8.82,8.82,0,0,0,2,2.56,8.53,8.53,0,0,0,1.95-2.56Z" transform="translate(-104.73 -27.56)"/><path class="af9a8e7a-2583-48b9-9baf-a6d8af6751a1" d="M884.8,269.72v2h5.81v6.07c0,1.06-.21,1.65-1,2a8.22,8.22,0,0,1-3.18.36,7.45,7.45,0,0,0-.73-2.11c.91,0,2,0,2.24,0s.4-.08.4-.31v-3.94H884.8v8.1h-2.24v-8.1h-3.35v6.32h-2.16v-8.41h5.51v-2h-7v-2.09h7.24c-.27-.65-.61-1.38-.92-2L884,265c.45.82,1,1.9,1.36,2.64H892v2.09Z" transform="translate(-104.73 -27.56)"/><path class="af9a8e7a-2583-48b9-9baf-a6d8af6751a1" d="M736.58,273.86h-5.25v-2.7h5.25v-5.54h2.83v5.54h5.25v2.7h-5.25v5.54h-2.83Z" transform="translate(-104.73 -27.56)"/><path class="af9a8e7a-2583-48b9-9baf-a6d8af6751a1" d="M763,265.61a5.13,5.13,0,0,0-3.64-1.73c-2.72,0-5,2.05-5.15,8a6.87,6.87,0,0,1,4.86-2.53c4,0,6.78,2.37,6.78,7.46,0,4.86-3.39,7.9-7.42,7.9-4.51,0-8.51-3.61-8.51-12,0-8.83,4.38-12.6,9.15-12.6a8.74,8.74,0,0,1,6.43,2.69Zm-1.47,11.17c0-2.82-1.31-4.13-3.36-4.13a4.67,4.67,0,0,0-3.87,2.5c.45,4.32,2,6,4,6C760.05,281.13,761.49,279.66,761.49,276.78Z" transform="translate(-104.73 -27.56)"/><path class="af9a8e7a-2583-48b9-9baf-a6d8af6751a1" d="M768.76,281.61a2.93,2.93,0,1,1,2.91,3.07A2.94,2.94,0,0,1,768.76,281.61Z" transform="translate(-104.73 -27.56)"/><path class="af9a8e7a-2583-48b9-9baf-a6d8af6751a1" d="M787.22,264.49H776.56v-3.93h15.75v2.84c-5.51,6.72-6.24,11.55-6.63,20.83h-4.76C781.33,276,782.71,270.76,787.22,264.49Z" transform="translate(-104.73 -27.56)"/><path class="af9a8e7a-2583-48b9-9baf-a6d8af6751a1" d="M796.31,272.85c0-2.66,1.33-4.19,3.24-4.19s3.26,1.53,3.26,4.19-1.35,4.25-3.26,4.25S796.31,275.54,796.31,272.85Zm4.63,0c0-2-.62-2.7-1.39-2.7s-1.37.74-1.37,2.7.6,2.76,1.37,2.76S800.94,274.82,800.94,272.85Zm6.3-4.19h1.57l-7.26,13.83H800ZM806,278.24c0-2.69,1.35-4.22,3.24-4.22s3.26,1.53,3.26,4.22-1.37,4.25-3.26,4.25S806,280.9,806,278.24Zm4.62,0c0-2-.61-2.72-1.38-2.72s-1.39.75-1.39,2.72.61,2.73,1.39,2.73S810.62,280.2,810.62,278.24Z" transform="translate(-104.73 -27.56)"/></svg>