<svg xmlns="http://www.w3.org/2000/svg" viewBox="0 0 52.02 50.33"><defs><style>.aec34b9e-c53e-48be-976e-1f6a1d69c8d3{fill:none;}.aec34b9e-c53e-48be-976e-1f6a1d69c8d3,.b56fc84f-4dbd-4a1c-af2c-4250d5234367{stroke:#002d94;stroke-linecap:round;stroke-miterlimit:10;stroke-width:1.5px;}.b56fc84f-4dbd-4a1c-af2c-4250d5234367{fill:#fff;}</style></defs><g id="ad8662e2-6579-4dfe-85ca-480b0582012d" data-name="圖層 2"><g id="b1dc4bb1-3f97-45b4-b36b-c1f3bdf017ed" data-name="分離模式"><polyline class="aec34b9e-c53e-48be-976e-1f6a1d69c8d3" points="31.77 29.6 51.18 34.47 51.18 34.88 41.42 42.23 12.14 34.88 12.14 34.47 21.9 27.12 29.87 29.12"/><polyline class="aec34b9e-c53e-48be-976e-1f6a1d69c8d3" points="51.18 37.87 51.18 39.06 42.23 45.86 12.14 38.26 12.14 37.07"/><polyline class="aec34b9e-c53e-48be-976e-1f6a1d69c8d3" points="51.27 42.17 51.27 43.36 43.05 49.52 12.16 41.77 12.16 40.58"/><polygon class="b56fc84f-4dbd-4a1c-af2c-4250d5234367" points="21.25 45.08 21.25 37.74 33.18 28.79 42.19 31.05 42.19 31.16 30.38 40.03 30.38 47 30.02 47.29 21.25 45.08"/><path class="aec34b9e-c53e-48be-976e-1f6a1d69c8d3" d="M17,21.43c0,2-3.64,3.7-8.14,3.7S.75,23.47.75,21.43"/><path class="aec34b9e-c53e-48be-976e-1f6a1d69c8d3" d="M.75,25.59v4c0,2,3.64,3.7,8.13,3.7h.84"/><path class="aec34b9e-c53e-48be-976e-1f6a1d69c8d3" d="M.75,29.62v4c0,2,3.64,3.7,8.13,3.7H9.7"/><path class="aec34b9e-c53e-48be-976e-1f6a1d69c8d3" d="M.75,33.69v4c0,2,3.64,3.69,8.13,3.69H9.7"/><path class="aec34b9e-c53e-48be-976e-1f6a1d69c8d3" d="M17,21.53v4c0,2-3.64,3.7-8.14,3.7S.75,27.56.75,25.52v-4c0-2,3.64-3.7,8.13-3.7S17,19.49,17,21.53"/><path class="aec34b9e-c53e-48be-976e-1f6a1d69c8d3" d="M11.32,8.42c0,2,3.65,3.7,8.14,3.7s8.13-1.66,8.13-3.7"/><path class="aec34b9e-c53e-48be-976e-1f6a1d69c8d3" d="M27.59,12.58v4c0,2.05-3.64,3.7-8.13,3.7h-.84"/><path class="aec34b9e-c53e-48be-976e-1f6a1d69c8d3" d="M27.59,16.61v4c0,2-3.64,3.7-8.13,3.7h-.82"/><path class="aec34b9e-c53e-48be-976e-1f6a1d69c8d3" d="M11.32,8.51v4c0,2,3.65,3.69,8.14,3.69s8.13-1.65,8.13-3.69v-4"/><line class="aec34b9e-c53e-48be-976e-1f6a1d69c8d3" x1="27.59" y1="20.6" x2="27.59" y2="26.74"/><path class="aec34b9e-c53e-48be-976e-1f6a1d69c8d3" d="M30.58,26.14c4.49,0,8.13-1.65,8.13-3.69"/><line class="aec34b9e-c53e-48be-976e-1f6a1d69c8d3" x1="38.71" y1="28.37" x2="38.71" y2="22.54"/><path class="aec34b9e-c53e-48be-976e-1f6a1d69c8d3" d="M38.71,14.31c0,2-3.64,3.7-8.13,3.7h-.82"/><path class="aec34b9e-c53e-48be-976e-1f6a1d69c8d3" d="M29.79,22.06h.79c4.49,0,8.13-1.62,8.13-3.66v-4c0-2-3.64-3.7-8.13-3.7h-.82"/><path class="aec34b9e-c53e-48be-976e-1f6a1d69c8d3" d="M38.71,18.47v4c0,2-3.64,3.69-8.13,3.69H29.8"/><line class="aec34b9e-c53e-48be-976e-1f6a1d69c8d3" x1="38.71" y1="22.54" x2="38.71" y2="28.37"/><path class="aec34b9e-c53e-48be-976e-1f6a1d69c8d3" d="M11.32,4.35c0,2,3.65,3.7,8.14,3.7s8.13-1.66,8.13-3.7"/><path class="aec34b9e-c53e-48be-976e-1f6a1d69c8d3" d="M11.32,4.45v4c0,2,3.65,3.7,8.14,3.7s8.13-1.66,8.13-3.7v-4c0-2-3.64-3.7-8.13-3.7s-8.14,1.66-8.14,3.7"/></g></g></svg>