<svg id="aa045e69-5c9f-4b71-aebc-3a4c580c0652" data-name="分離模式" xmlns="http://www.w3.org/2000/svg" viewBox="0 0 59.95 45.97"><defs><style>.bb53c139-6ff9-4b92-b44a-faa336ed0f0b{fill:none;stroke:#002d94;stroke-linecap:round;stroke-miterlimit:10;stroke-width:1.5px;}</style></defs><path class="bb53c139-6ff9-4b92-b44a-faa336ed0f0b" d="M198.08,708a5.2,5.2,0,0,0,5.08-5.44v-1.82a5.1,5.1,0,1,0-10.17,0v1.82A5.21,5.21,0,0,0,198.08,708Z" transform="translate(-169.37 -694.57)"/><path class="bb53c139-6ff9-4b92-b44a-faa336ed0f0b" d="M208.24,716.92v-3.87c0-3.5-6.36-5.08-9.53-5.08s-9.53,1.58-9.53,5.08v3.87" transform="translate(-169.37 -694.57)"/><path class="bb53c139-6ff9-4b92-b44a-faa336ed0f0b" d="M199.35,730.9a5.21,5.21,0,0,0,5.08-5.45v-1.82a5.09,5.09,0,1,0-10.16,0v1.82A5.21,5.21,0,0,0,199.35,730.9Z" transform="translate(-169.37 -694.57)"/><path class="bb53c139-6ff9-4b92-b44a-faa336ed0f0b" d="M209.51,739.79v-3.86c0-3.51-6.36-5.09-9.53-5.09s-9.53,1.58-9.53,5.09v3.86" transform="translate(-169.37 -694.57)"/><path class="bb53c139-6ff9-4b92-b44a-faa336ed0f0b" d="M218.41,719.46a5.21,5.21,0,0,0,5.08-5.45V712.2a5.09,5.09,0,1,0-10.16,0V714A5.21,5.21,0,0,0,218.41,719.46Z" transform="translate(-169.37 -694.57)"/><path class="bb53c139-6ff9-4b92-b44a-faa336ed0f0b" d="M228.57,728.35v-3.86c0-3.5-6.36-5.08-9.53-5.08s-9.53,1.58-9.53,5.08v3.86" transform="translate(-169.37 -694.57)"/><path class="bb53c139-6ff9-4b92-b44a-faa336ed0f0b" d="M179,719.46A5.21,5.21,0,0,0,184.1,714V712.2a5.1,5.1,0,1,0-10.17,0V714A5.22,5.22,0,0,0,179,719.46Z" transform="translate(-169.37 -694.57)"/><path class="bb53c139-6ff9-4b92-b44a-faa336ed0f0b" d="M189.18,728.35v-3.86c0-3.5-6.36-5.08-9.53-5.08s-9.53,1.58-9.53,5.08v3.86" transform="translate(-169.37 -694.57)"/></svg>