<svg id="a809bc25-f83a-41d2-afa6-a83ba665d6f4" data-name="分離模式" xmlns="http://www.w3.org/2000/svg" viewBox="0 0 51.91 51.52"><defs><style>.b4b5c043-4842-462d-b642-81c8f83e5f46{fill:none;stroke:#002d94;stroke-linecap:round;stroke-miterlimit:10;stroke-width:1.5px;}</style></defs><path class="b4b5c043-4842-462d-b642-81c8f83e5f46" d="M385.21,725.69c0,2,3.61,3.67,8.06,3.67s8.07-1.64,8.07-3.67" transform="translate(-372.77 -694.74)"/><path class="b4b5c043-4842-462d-b642-81c8f83e5f46" d="M401.34,729.82v4c0,2-3.61,3.67-8.07,3.67h-.82" transform="translate(-372.77 -694.74)"/><path class="b4b5c043-4842-462d-b642-81c8f83e5f46" d="M373.92,737.89v4c0,2,3.61,3.66,8.06,3.66s8.07-1.64,8.07-3.66v-4c0-2-3.61-3.67-8.07-3.67S373.92,735.86,373.92,737.89Z" transform="translate(-372.77 -694.74)"/><path class="b4b5c043-4842-462d-b642-81c8f83e5f46" d="M373.92,737.79c0,2,3.61,3.67,8.06,3.67s8.07-1.64,8.07-3.67" transform="translate(-372.77 -694.74)"/><path class="b4b5c043-4842-462d-b642-81c8f83e5f46" d="M396.5,713.6c0,2,3.61,3.66,8.07,3.66s8.06-1.64,8.06-3.66" transform="translate(-372.77 -694.74)"/><path class="b4b5c043-4842-462d-b642-81c8f83e5f46" d="M412.63,717.72v4c0,2-3.61,3.67-8.06,3.67h-.83" transform="translate(-372.77 -694.74)"/><path class="b4b5c043-4842-462d-b642-81c8f83e5f46" d="M412.63,721.72v4c0,2-3.61,3.67-8.06,3.67h-.81" transform="translate(-372.77 -694.74)"/><path class="b4b5c043-4842-462d-b642-81c8f83e5f46" d="M407.79,701.5c0,2,3.61,3.67,8.07,3.67s8.06-1.65,8.06-3.67" transform="translate(-372.77 -694.74)"/><path class="b4b5c043-4842-462d-b642-81c8f83e5f46" d="M423.92,705.63v4c0,2-3.61,3.66-8.06,3.66H415" transform="translate(-372.77 -694.74)"/><path class="b4b5c043-4842-462d-b642-81c8f83e5f46" d="M423.92,709.62v4c0,2-3.61,3.67-8.06,3.67h-.81" transform="translate(-372.77 -694.74)"/><path class="b4b5c043-4842-462d-b642-81c8f83e5f46" d="M423.92,713.65v4c0,2-3.61,3.67-8.06,3.67H415" transform="translate(-372.77 -694.74)"/><path class="b4b5c043-4842-462d-b642-81c8f83e5f46" d="M423.92,717.69v4c0,2-3.61,3.66-8.06,3.66H415" transform="translate(-372.77 -694.74)"/><path class="b4b5c043-4842-462d-b642-81c8f83e5f46" d="M412.63,725.75v4c0,2-3.61,3.67-8.06,3.67h-.81" transform="translate(-372.77 -694.74)"/><path class="b4b5c043-4842-462d-b642-81c8f83e5f46" d="M401.34,733.85v4c0,2-3.61,3.67-8.07,3.67h-.82" transform="translate(-372.77 -694.74)"/><path class="b4b5c043-4842-462d-b642-81c8f83e5f46" d="M385.21,725.79v4c0,2,3.61,3.66,8.06,3.66s8.07-1.64,8.07-3.66v-4c0-2-3.61-3.67-8.07-3.67s-8.06,1.64-8.06,3.67" transform="translate(-372.77 -694.74)"/><path class="b4b5c043-4842-462d-b642-81c8f83e5f46" d="M396.5,713.69v4c0,2,3.61,3.67,8.07,3.67s8.06-1.64,8.06-3.67v-4c0-2-3.61-3.66-8.06-3.66s-8.07,1.64-8.07,3.66" transform="translate(-372.77 -694.74)"/><path class="b4b5c043-4842-462d-b642-81c8f83e5f46" d="M407.79,701.59v4c0,2,3.61,3.67,8.07,3.67s8.06-1.64,8.06-3.67v-4c0-2-3.61-3.66-8.06-3.66s-8.07,1.64-8.07,3.66" transform="translate(-372.77 -694.74)"/><path class="b4b5c043-4842-462d-b642-81c8f83e5f46" d="M412.63,729.78v4c0,2-3.61,3.67-8.06,3.67h-.81" transform="translate(-372.77 -694.74)"/><path class="b4b5c043-4842-462d-b642-81c8f83e5f46" d="M423.92,721.72v4c0,2-3.61,3.67-8.06,3.67H415" transform="translate(-372.77 -694.74)"/><path class="b4b5c043-4842-462d-b642-81c8f83e5f46" d="M423.92,725.75v4c0,2-3.61,3.67-8.06,3.67H415" transform="translate(-372.77 -694.74)"/><path class="b4b5c043-4842-462d-b642-81c8f83e5f46" d="M373.52,726.52c15.13-7.68,22-17,26.56-29.25l.46-1.55" transform="translate(-372.77 -694.74)"/><polyline class="b4b5c043-4842-462d-b642-81c8f83e5f46" points="23.33 3.19 27.78 0.98 30.19 4.96"/></svg>