<svg width="36" height="36" viewBox="0 0 36 36" fill="none" xmlns="http://www.w3.org/2000/svg"><rect width="36" height="36" rx="8" fill="#FEAE2A"/><path d="M26.775 11.575v12.823h-2.53v-9.905l-3.042.967v-1.995l5.3-1.89h.272zm-8.893 5.3v2.215c0 .96-.103 1.79-.308 2.487-.205.692-.5 1.26-.888 1.705-.38.44-.834.765-1.362.976a4.693 4.693 0 01-1.758.316 5.16 5.16 0 01-1.441-.193 3.628 3.628 0 01-1.204-.624 3.962 3.962 0 01-.914-1.064 5.456 5.456 0 01-.58-1.547c-.135-.597-.202-1.283-.202-2.056v-2.215c0-.96.102-1.784.307-2.47.211-.691.507-1.257.888-1.696.387-.44.844-.762 1.371-.967a4.693 4.693 0 011.758-.316c.516 0 .993.067 1.432.202a3.6 3.6 0 011.205.606c.357.276.662.63.914 1.064.252.428.445.94.58 1.538.134.592.202 1.271.202 2.039zm-2.54 2.549v-2.892a8.15 8.15 0 00-.08-1.213 3.562 3.562 0 00-.219-.879 1.854 1.854 0 00-.37-.597 1.344 1.344 0 00-.5-.334 1.766 1.766 0 00-.624-.106c-.287 0-.542.056-.765.167a1.43 1.43 0 00-.554.536c-.152.24-.27.563-.351.967a7.917 7.917 0 00-.114 1.46v2.89c0 .464.023.87.07 1.223.053.351.129.653.228.905.106.246.229.448.37.606.146.153.313.264.5.334.194.07.405.106.633.106.282 0 .53-.056.747-.167a1.47 1.47 0 00.563-.545c.158-.252.275-.58.351-.985.077-.404.115-.896.115-1.476z" fill="#fff"/></svg>