<svg width="24" height="25" viewBox="0 0 24 25" fill="none" xmlns="http://www.w3.org/2000/svg">
<path d="M22.5047 21.5172C22.64 21.7833 22.4466 22.0984 22.1481 22.0984H1.85227C1.55375 22.0984 1.36042 21.7833 1.4957 21.5172L10.4378 3.92761C10.5953 3.61494 10.8227 3.35508 11.0971 3.17435C11.3715 2.99362 11.683 2.89844 12.0002 2.89844C12.3174 2.89844 12.6289 2.99362 12.9033 3.17435C13.1777 3.35508 13.4051 3.61494 13.5626 3.92761L22.5047 21.5172Z" fill="#DE0606"/>
<path fill-rule="evenodd" clip-rule="evenodd" d="M11.9996 7.32422C11.5595 7.32422 11.2027 7.68099 11.2027 8.12109V14.4961C11.2027 14.9362 11.5595 15.293 11.9996 15.293C12.4397 15.293 12.7965 14.9362 12.7965 14.4961V8.12109C12.7965 7.68099 12.4397 7.32422 11.9996 7.32422ZM10.7246 19.118C10.7246 19.7555 11.3621 20.393 11.9996 20.393C12.6371 20.393 13.2746 19.7555 13.2746 19.118C13.2746 18.4805 12.6371 17.843 11.9996 17.843C11.2027 17.843 10.7246 18.4805 10.7246 19.118Z" fill="white"/>
</svg>
