<svg width="19" height="20" viewBox="0 0 19 20" fill="none" xmlns="http://www.w3.org/2000/svg"><g clip-path="url(#clip0_770_80367)"><path d="M.008 6.559c0-1.605.005-3.21-.006-4.816-.002-.261.063-.387.33-.463A33.68 33.68 0 014.695.36C6.387.115 8.087-.055 9.797.009c2.815.104 5.586.509 8.298 1.292.252.074.259.225.259.424-.003 2.77 0 5.54-.003 8.31 0 .827.041 1.654-.21 2.464a7.755 7.755 0 01-1.52 2.76c-1.256 1.475-2.812 2.556-4.51 3.46a24.23 24.23 0 01-2.747 1.237.457.457 0 01-.358.006c-2.426-.911-4.679-2.114-6.556-3.932C1.212 14.83.3 13.435.036 11.688a2.574 2.574 0 01-.028-.375C.006 9.727.006 8.143.006 6.559h.002zm12.781 6.72c-.025-.14-.025-.193-.043-.24-.402-1.045-.795-2.096-1.22-3.132-.11-.27-.064-.407.15-.578.96-.762 1.909-1.537 2.858-2.312.08-.065.214-.105.19-.266-1.294 0-2.583-.006-3.872.006-.23.002-.337-.077-.408-.287-.273-.814-.557-1.624-.84-2.434-.115-.325-.237-.647-.381-1.041-.423 1.198-.831 2.308-1.2 3.431-.089.272-.21.33-.464.328-1.196-.01-2.392-.006-3.587-.002-.082 0-.188-.053-.26.066.043.045.08.095.127.133.972.794 1.94 1.596 2.924 2.375.22.175.267.326.163.58-.29.719-.562 1.444-.84 2.168-.143.374-.283.75-.425 1.125.103.034.141-.007.184-.036 1.027-.687 2.057-1.368 3.078-2.063.211-.143.375-.162.59-.01.477.34.969.66 1.457.985.582.387 1.166.77 1.82 1.202v.002z" fill="#77B93B"/><path d="M12.788 13.27c-.653-.432-1.238-.816-1.82-1.203-.488-.325-.98-.645-1.457-.984-.215-.153-.378-.135-.59.009-1.02.695-2.051 1.376-3.078 2.063-.043.028-.08.07-.184.036l.426-1.125c.278-.723.549-1.45.84-2.167.103-.255.057-.407-.163-.581-.985-.78-1.953-1.58-2.925-2.375-.047-.038-.084-.089-.126-.133.072-.12.176-.067.26-.067 1.195-.003 2.39-.008 3.586.002.254.002.375-.056.465-.327.368-1.123.776-2.233 1.2-3.432.144.395.266.716.38 1.042.283.81.568 1.62.84 2.433.071.21.178.29.409.288 1.289-.012 2.578-.006 3.87-.006.025.16-.109.2-.189.266-.949.775-1.897 1.55-2.857 2.312-.214.17-.26.309-.15.578.425 1.036.817 2.087 1.22 3.133.017.046.018.097.043.238z" fill="#FBFDFA"/></g><defs><clipPath id="clip0_770_80367"><path fill="#fff" d="M0 0h18.352v20H0z"/></clipPath></defs></svg>