<?xml version="1.0" encoding="utf-8"?>
<!-- Generator: Adobe Illustrator 27.2.0, SVG Export Plug-In . SVG Version: 6.00 Build 0)  -->
<svg version="1.1" id="圖層_1" xmlns="http://www.w3.org/2000/svg" xmlns:xlink="http://www.w3.org/1999/xlink" x="0px" y="0px"
	 viewBox="0 0 512 512" style="enable-background:new 0 0 512 512;" xml:space="preserve">
<style type="text/css">
	.st0{fill:#BC925A;}
</style>
<path class="st0" d="M468,75.1h-60.9v-8.8c0-23.3-18.9-42.2-42.2-42.2s-42.2,18.9-42.2,42.2v8.8H183.5v-8.8
	c0-23.3-18.9-42.2-42.2-42.2C118,24,99.1,42.9,99.1,66.2v8.8H44c-24.2,0-44,19.7-44,44v325.1c0,24.2,19.7,44,44,44h424
	c24.2,0,44-19.7,44-44V119C512,94.8,492.3,75.1,468,75.1z M364.9,54.7c6.4,0,11.6,5.2,11.6,11.6v48.3c0,6.4-5.2,11.6-11.6,11.6
	s-11.6-5.2-11.6-11.6V66.2C353.3,59.8,358.5,54.7,364.9,54.7z M141.3,54.7c6.4,0,11.6,5.2,11.6,11.6v48.3c0,6.4-5.2,11.6-11.6,11.6
	c-6.4,0-11.6-5.2-11.6-11.6V66.2C129.7,59.8,134.9,54.7,141.3,54.7z M30.7,119c0-7.3,6-13.3,13.3-13.3h55.1v8.8
	c0,23.3,18.9,42.2,42.2,42.2c23.3,0,42.2-18.9,42.2-42.2v-8.8h139.1v8.8c0,23.3,18.9,42.2,42.2,42.2s42.2-18.9,42.2-42.2v-8.8H468
	c7.3,0,13.3,6,13.3,13.3v50.8H30.7V119z M481.3,444.1c0,7.3-6,13.3-13.3,13.3H44c-7.3,0-13.3-6-13.3-13.3V200.5h450.7V444.1z"/>
<path class="st0" d="M95.6,279.7h59.4c8.5,0,15.3-6.9,15.3-15.3s-6.9-15.3-15.3-15.3H95.6c-8.5,0-15.3,6.9-15.3,15.3
	S87.1,279.7,95.6,279.7z"/>
<path class="st0" d="M225.8,279.7h59.4c8.5,0,15.3-6.9,15.3-15.3s-6.9-15.3-15.3-15.3h-59.4c-8.5,0-15.3,6.9-15.3,15.3
	S217.3,279.7,225.8,279.7z"/>
<path class="st0" d="M356,279.7h59.4c8.5,0,15.3-6.9,15.3-15.3s-6.9-15.3-15.3-15.3H356c-8.5,0-15.3,6.9-15.3,15.3
	S347.5,279.7,356,279.7z"/>
<path class="st0" d="M95.6,344.3h59.4c8.5,0,15.3-6.9,15.3-15.3c0-8.5-6.9-15.3-15.3-15.3H95.6c-8.5,0-15.3,6.9-15.3,15.3
	C80.2,337.4,87.1,344.3,95.6,344.3z"/>
<path class="st0" d="M225.8,344.3h59.4c8.5,0,15.3-6.9,15.3-15.3c0-8.5-6.9-15.3-15.3-15.3h-59.4c-8.5,0-15.3,6.9-15.3,15.3
	C210.5,337.4,217.3,344.3,225.8,344.3z"/>
<path class="st0" d="M356,344.3h59.4c8.5,0,15.3-6.9,15.3-15.3c0-8.5-6.9-15.3-15.3-15.3H356c-8.5,0-15.3,6.9-15.3,15.3
	C340.7,337.4,347.5,344.3,356,344.3z"/>
<path class="st0" d="M95.6,408.9h59.4c8.5,0,15.3-6.9,15.3-15.3s-6.9-15.3-15.3-15.3H95.6c-8.5,0-15.3,6.9-15.3,15.3
	S87.1,408.9,95.6,408.9z"/>
<path class="st0" d="M225.8,408.9h59.4c8.5,0,15.3-6.9,15.3-15.3s-6.9-15.3-15.3-15.3h-59.4c-8.5,0-15.3,6.9-15.3,15.3
	S217.3,408.9,225.8,408.9z"/>
<path class="st0" d="M356,408.9h59.4c8.5,0,15.3-6.9,15.3-15.3s-6.9-15.3-15.3-15.3H356c-8.5,0-15.3,6.9-15.3,15.3
	S347.5,408.9,356,408.9z"/>
</svg>
