<svg xmlns="http://www.w3.org/2000/svg" viewBox="0 0 2682.48 27.33"><path fill="#d3373b" d="M20.93 27.33H0L16.68 0h20.94L20.93 27.33z"/><path fill="#375787" d="M62.92 27.33H41.98L58.66 0H79.6L62.92 27.33z"/><path fill="#d3373b" d="M104.9 27.33H83.96L100.65 0h20.93L104.9 27.33z"/><path fill="#375787" d="M146.88 27.33h-20.93L142.63 0h20.93l-16.68 27.33z"/><path fill="#d3373b" d="M188.86 27.33h-20.93L184.61 0h20.94l-16.69 27.33z"/><path fill="#375787" d="M230.84 27.33h-20.93L226.59 0h20.94l-16.69 27.33z"/><path fill="#d3373b" d="M272.83 27.33h-20.94L268.57 0h20.94l-16.68 27.33z"/><path fill="#375787" d="M314.81 27.33h-20.94L310.56 0h20.93l-16.68 27.33z"/><path fill="#d3373b" d="M356.79 27.33h-20.93L352.54 0h20.93l-16.68 27.33z"/><path fill="#375787" d="M398.77 27.33h-20.93L394.52 0h20.93l-16.68 27.33z"/><path fill="#d3373b" d="M440.75 27.33h-20.93L436.5 0h20.94l-16.69 27.33z"/><path fill="#375787" d="M482.74 27.33H461.8L478.48 0h20.94l-16.68 27.33z"/><path fill="#d3373b" d="M524.72 27.33h-20.94L520.47 0h20.93l-16.68 27.33z"/><path fill="#375787" d="M566.7 27.33h-20.94L562.45 0h20.93L566.7 27.33z"/><path fill="#d3373b" d="M608.68 27.33h-20.93L604.43 0h20.94l-16.69 27.33z"/><path fill="#375787" d="M650.66 27.33h-20.93L646.41 0h20.94l-16.69 27.33z"/><path fill="#d3373b" d="M692.65 27.33h-20.94L688.39 0h20.94l-16.68 27.33z"/><path fill="#375787" d="M734.63 27.33h-20.94L730.38 0h20.93l-16.68 27.33z"/><path fill="#d3373b" d="M776.61 27.33h-20.94L772.36 0h20.93l-16.68 27.33z"/><path fill="#375787" d="M818.59 27.33h-20.93L814.34 0h20.93l-16.68 27.33z"/><path fill="#d3373b" d="M860.57 27.33h-20.93L856.32 0h20.94l-16.69 27.33z"/><path fill="#375787" d="M902.55 27.33h-20.93L898.3 0h20.94l-16.69 27.33z"/><path fill="#d3373b" d="M944.54 27.33H923.6L940.28 0h20.94l-16.68 27.33z"/><path fill="#375787" d="M986.52 27.33h-20.94L982.27 0h20.93l-16.68 27.33z"/><path fill="#d3373b" d="M1028.5 27.33h-20.93L1024.25 0h20.93l-16.68 27.33z"/><path fill="#375787" d="M1070.48 27.33h-20.93L1066.23 0h20.94l-16.69 27.33z"/><path fill="#d3373b" d="M1112.46 27.33h-20.93L1108.21 0h20.94l-16.69 27.33z"/><path fill="#375787" d="M1154.45 27.33h-20.94L1150.19 0h20.94l-16.68 27.33z"/><path fill="#d3373b" d="M1196.43 27.33h-20.94L1192.18 0h20.93l-16.68 27.33z"/><path fill="#375787" d="M1238.41 27.33h-20.93L1234.16 0h20.93l-16.68 27.33z"/><path fill="#d3373b" d="M1280.39 27.33h-20.93L1276.14 0h20.94l-16.69 27.33z"/><path fill="#375787" d="M1322.38 27.33h-20.94L1318.12 0h20.94l-16.68 27.33z"/><path fill="#d3373b" d="M1364.36 27.33h-20.94L1360.1 0h20.94l-16.68 27.33z"/><path fill="#375787" d="M1406.34 27.33h-20.94L1402.09 0h20.93l-16.68 27.33z"/><path fill="#d3373b" d="M1448.32 27.33h-20.94L1444.07 0H1465l-16.68 27.33z"/><path fill="#375787" d="M1490.3 27.33h-20.93L1486.05 0h20.93l-16.68 27.33z"/><path fill="#d3373b" d="M1532.28 27.33h-20.93L1528.03 0h20.94l-16.69 27.33z"/><path fill="#375787" d="M1574.27 27.33h-20.94L1570.01 0h20.94l-16.68 27.33z"/><path fill="#d3373b" d="M1616.25 27.33h-20.94L1612 0h20.93l-16.68 27.33z"/><path fill="#375787" d="M1658.23 27.33h-20.93L1653.98 0h20.93l-16.68 27.33z"/><path fill="#d3373b" d="M1700.21 27.33h-20.93L1695.96 0h20.93l-16.68 27.33z"/><path fill="#375787" d="M1742.19 27.33h-20.93L1737.94 0h20.94l-16.69 27.33z"/><path fill="#d3373b" d="M1784.18 27.33h-20.94L1779.92 0h20.94l-16.68 27.33z"/><path fill="#375787" d="M1826.16 27.33h-20.94L1821.9 0h20.94l-16.68 27.33z"/><path fill="#d3373b" d="M1868.14 27.33h-20.94L1863.89 0h20.93l-16.68 27.33z"/><path fill="#375787" d="M1910.12 27.33h-20.93L1905.87 0h20.93l-16.68 27.33z"/><path fill="#d3373b" d="M1952.1 27.33h-20.93L1947.85 0h20.94l-16.69 27.33z"/><path fill="#375787" d="M1994.09 27.33h-20.94L1989.83 0h20.94l-16.68 27.33z"/><path fill="#d3373b" d="M2036.07 27.33h-20.94L2031.82 0h20.93l-16.68 27.33z"/><path fill="#375787" d="M2078.05 27.33h-20.94L2073.8 0h20.93l-16.68 27.33z"/><path fill="#d3373b" d="M2120.03 27.33h-20.93L2115.78 0h20.93l-16.68 27.33z"/><path fill="#375787" d="M2162.01 27.33h-20.93L2157.76 0h20.94l-16.69 27.33z"/><path fill="#d3373b" d="M2203.99 27.33h-20.93L2199.74 0h20.94l-16.69 27.33z"/><path fill="#375787" d="M2245.98 27.33h-20.94L2241.72 0h20.94l-16.68 27.33z"/><path fill="#d3373b" d="M2287.96 27.33h-20.94L2283.71 0h20.93l-16.68 27.33z"/><path fill="#375787" d="M2329.94 27.33h-20.93L2325.69 0h20.93l-16.68 27.33z"/><path fill="#d3373b" d="M2371.92 27.33h-20.93L2367.67 0h20.94l-16.69 27.33z"/><path fill="#375787" d="M2413.91 27.33h-20.94L2409.65 0h20.94l-16.68 27.33z"/><path fill="#d3373b" d="M2455.89 27.33h-20.94L2451.63 0h20.94l-16.68 27.33z"/><path fill="#375787" d="M2497.87 27.33h-20.94L2493.62 0h20.93l-16.68 27.33z"/><path fill="#d3373b" d="M2539.85 27.33h-20.94L2535.6 0h20.93l-16.68 27.33z"/><path fill="#375787" d="M2581.83 27.33h-20.93L2577.58 0h20.93l-16.68 27.33z"/><path fill="#d3373b" d="M2623.81 27.33h-20.93L2619.56 0h20.94l-16.69 27.33z"/><path fill="#375787" d="M2665.8 27.33h-20.94L2661.54 0h20.94l-16.68 27.33z"/></svg>