<svg xmlns="http://www.w3.org/2000/svg" viewBox="0 0 1027.16 87.11"><path d="M39.72 58.97v-.53h-2.41v-3.47H16.69v3.48h-2.41v.52h1.11v1.26h-1.11v.52h1.11v1.22h-1.11v.53h25.44v-.53h-1.07v-1.26h1.07v-.52h-1.07v-1.22zm-3.13-3.31v2.78h-4.2v-2.77zm0 3.3v1.27h-1.72v-1.26zm-5-3.29v2.77h-4.2v-2.76zm0 3.29v1.27h-.5v-1.26zm-5 1.26h-3.06v-1.25h3.06zm0-4.54v2.76H22.4v-2.76zm-9.21 0h4.19v2.76h-4.19zm4.19 3.27v1.26h-1.83v-1.24zm-5.62 0h.78v1.26h-.78zm0 1.78h.78v1.24h-.78zm3.26 1.24h-1.85V60.7h1.85zm0-1.79h-1.84v-1.21h1.84zm.52.52h1.83v1.27h-1.83zM23 61.97h-.62v-1.26H23zm0-1.79h-.62v-1.21h.61zm.52.53h3.06v1.26h-3.06zm7.06 1.26H27.4v-1.26h3.18zm0-1.79H27.4v-1.21h3.18zm.52.53h.49v1.26h-.49zm3.26 1.26h-1.94v-1.26h1.94zm0-1.78h-2v-1.22h2zm.52.52h1.72v1.26h-1.72zm3.26 1.26h-.81v-1.26h.81zm0-1.78h-.81v-1.22h.81zm-3.45-16.07v-4.24H19.32v4.24zm-3.72-3.56h3v2.72h-3zm-3.62 0h3v2.72h-3zm-3.61 0h3v2.72h-3zm-3.62 0h3v2.72h-3zm16.37 4.64v-.39h-19v.39h.83v.94h-.83v.39h.83v.94h-.83v.39h19v-.39h-.79v-.95h.79v-.39h-.8v-.94zm-9.67.94h-2.43v-.94h2.43zm.39-.94h2.44v.94h-2.44zm-3.21.94h-2.44v-.94H24zm0 .39v.94h-2.44v-.94zm.39 0h2.43v.94h-2.43zm2.82 0h2.44v.94h-2.44zm2.83 0h2.43v.94h-2.43zm0-.39v-.94h2.43v.94zm-11.3-.94h2.47v.94h-2.43zm0 1.33h2.47v.94h-2.43zm16.56.95h-2.44v-.94h2.44zm0-1.34h-2.44v-.94h2.44zm-22.11 6.63h27.63v1.38H13.19zm23.02-3.88H17.83a68.87 68.87 0 01-7.47.94c0 1.41 7.45 2.09 16.64 2.1s16.64-.68 16.64-2.08a70.63 70.63 0 01-7.43-.96zM32 31.15v-3.18H22v3.14zm-2.49-2.61h1.92v2.12h-1.92zm-2.3 0h1.92v2.12h-1.92zm-2.31 0h1.93v2.12H24.9zm-2.3 0h1.92v2.12H22.6zm12.08 3.61v-.32H19.33v.32H20v.76h-.67v.31H20v.75h-.67v.32h15.35v-.32h-.64v-.76h.64v-.32h-.64v-.76zm-7.82.76h-2v-.76h2zm.32-.76h2v.76h-2zm-2.61.76h-2v-.76h2zm0 .31v.75h-2v-.77zm.32 0h2v.75h-2zm2.29 0h2v.75h-2zm2.28 0h2v.75h-2zm0-.32v-.76h2v.76zm-9.15-.76h2v.76h-2zm0 1.07h2v.76h-2zm13.41.77h-2v-.76h2zm0-1.08h-2v-.76h2zM17.47 14.19h19.09v1.28H17.47zm8.39-4.8v.67h2.35V9.4h-.89v-.43c.29-.05.49-.18.49-.33s-.2-.28-.49-.33v-.34c.29-.05.5-.18.5-.33s-.21-.28-.5-.33v-.32c.29-.05.5-.18.5-.33s-.21-.28-.5-.33V6c.29-.05.5-.18.5-.33s-.21-.28-.5-.33v-.33c.29 0 .5-.17.5-.33s-.21-.28-.5-.33v-.32c.29-.05.5-.18.5-.33s-.21-.28-.5-.33v-.33c.29 0 .5-.18.5-.33s-.21-.28-.5-.33v-.33c.29-.05.5-.17.5-.32a.74.74 0 00-.5-.6v-1c0-.07-.12-.14-.26-.14s-.27.07-.27.14v1a.74.74 0 00-.5.59c0 .16.21.28.5.33v.33c-.29.05-.5.18-.5.33s.21.28.5.33v.33c-.29 0-.5.18-.5.33s.21.28.5.33v.32c-.29.05-.5.18-.5.33s.21.28.5.33v.33c-.29 0-.5.18-.5.33s.21.28.5.33v.33c-.29.05-.5.17-.5.33s.21.27.5.33v.32c-.29 0-.5.18-.5.33s.21.28.5.33v.33c-.29 0-.5.18-.5.33s.21.28.5.33v.41zm2.18 1.26h-2.06c-2.5.45-8.83 1.57-10.47 1.57 0 1 5.15 1.44 11.5 1.45s11.5.16 11.5-.81c-1.63 0-7.96-1.75-10.47-2.21zM15.83 26.24H38.2v1.12H15.83zm18.6-2.9H19.59a41 41 0 01-6 .5c0 1.14 6 2 13.47 2s13.47-.54 13.47-1.68a57.5 57.5 0 01-6.1-.82zM15.82 38.11h22.37v1.12H15.82zm-5.04 25.11h32.44v1.12H10.78zm-1.95 1.77h36.34v1.12H8.83zm25.6-30.02H19.58a40.87 40.87 0 01-6 .5c0 1.14 6 2 13.48 2s13.47-.54 13.47-1.68a57.18 57.18 0 01-6.1-.82zm.26-14.39v-.31H19.33v.32H20v.76h-.67v.31H20v.77h-.67v.31h15.36v-.32h-.65v-.76h.65v-.32h-.65v-.76zm-7.83.76h-2v-.76h2zm.32-.76h2v.76h-2zm-2.6.76h-2v-.76h2zm0 .32v.76h-2v-.76zm.31 0h2v.76h-2zm2.29 0h2v.76h-2zm2.29 0h2v.76h-2zm0-.32v-.76h2v.76zm-9.15-.76h2v.76h-2zm0 1.07h2v.76h-2zm13.4.77h-2v-.76h2zm0-1.08h-2v-.76h2zM32 19.67v-3.61H22v3.61zm-2.48-2.85h1.92v2.15h-1.92zm-2.3 0h1.92v2.15h-1.93zm-2.3 0h1.92v2.15h-1.93zm-2.31 0h1.93v2.15h-1.93zm443.78 28.15h-15.3a29.46 29.46 0 01-7.42 3.66h30.15a29.62 29.62 0 01-7.43-3.66zm-23.01 5.82l4.89 1.74h21.01l4.9-1.73-30.8-.01zm-.29-.77h31.12a.34.34 0 00.35-.34.35.35 0 00-.35-.35h-31.08a.35.35 0 00-.35.35.35.35 0 00.31.34zm7.53-6.6h16.19v.9h-16.19zm10.77-2.8h3.17v2.32h-3.17zm-4.03 0h3.75v2.32h-3.75zm-4.17 0h3.89v2.32h-3.89zm11.02-5.65h-11a21.51 21.51 0 01-5.37 2.64h21.78a21.35 21.35 0 01-5.41-2.64zm-16.6 3.87l3.54 1.26h15.18l3.53-1.25-22.25-.01zm-.21-.4h22.46a.25.25 0 00.25-.25.25.25 0 00-.25-.25H447.4a.25.25 0 000 .5zm5.45-4.62h11.7v.65h-11.7zm6.36-9.53h-1c-1.77 3-7.73 5.85-7.73 5.85h16.42s-5.96-2.88-7.69-5.85zm-8.84 6.55h16.52a.18.18 0 00.18-.18.18.18 0 00-.18-.19h-16.52a.18.18 0 00-.18.19.18.18 0 00.18.18zm8.05-7.36a.44.44 0 00-.2.37v.12h1v-.08a.45.45 0 00-.19-.37.71.71 0 10-.56 0zm2.21 7.91h2.29v1.98h-2.29zm-2.91 0h2.71v1.98h-2.71zm-3.02 0h2.81v1.98h-2.81zm-.02 22.01h8.07v2.14h-8.07zm8.72 0h4.38v2.14h-4.38zm-13.34 0h3.96v2.14h-3.96zm-1.72 8.11h20.75v-5.22h-20.75zm1.23-.25h-1v-3.1h1zm1.25 0h-.93v-3.1h.93zm1.33 0h-1v-3.1h1zm1.14 0h-.93v-3.1h.93zm4.72 0h-.93v-3.1h.93zm1.32 0h-1v-3.1h1zm1.15 0h-.93v-3.1h.93zm4.54 0h-.93v-3.1h.93zm1.33 0h-1v-3.1h1zm1.14 0h-.93v-3.1h.93zm1.23 0h-.93v-3.1h.93zm-5.61-4.45h5.79v1.16h-5.79zm-.31 1.35h1v3.1h-1zm-1.09 3.1h-.93v-3.1h.93zm-5.9-4.45h5.78v1.16h-5.78zm0 1.35h1v3.1h-1zm-1.27 3.1h-.93v-3.1h.93zm-6-4.45h5.79v1.16h-5.79zm-2.81 5.07h26.28v.95h-26.28zm-1.59 1.54h29.45v.93h-29.45zm-1.32 1.49h32.1v.93h-32.1zM273.45 29.42h-10.44v-1.67h10.44zm-10 9.48v-8.54h10v8.54zm5.88-2h1.36v-3.74h-1.36zm-1.84 0h1.36v-3.74h-1.36zm-1.84 0h1.36v-3.74h-1.36zm2.44 8.86h5.57v-1.7h-5.57zm-2.62 4.47h8.19v-1.7h-8.19zm-2.65 4.48h10.84v-1.7h-10.83zm-2.78 4.48h13.62v-1.7h-13.61zm10.55-17.91h3.07v-1.52h-3.07zm-13.2 22.38h16.27v-1.69H257.4zm5-23.89h-4.55v1.52h3.17l-1.76 2.78h-4.73v1.7h3.69l-1.76 2.77h-5.24v1.7h4.15l-1.76 2.78h-5.71v1.7h4.63l-1.76 2.78h-6.15v1.7h5.11l-1.76 2.77h-6.67v1.7h5.59l-1.67 2.6h1.23l16.4-26.47zm5.13 0l-15.31 26.5h1.59l15.51-26.47zm18.36-12.05H275.5v1.67h10.44zm-.46 11.15h-10v-8.54h10zm-6.14-5.71h-1.37v3.81h1.37zm1.84 0h-1.31v3.81h1.4zm1.84 0h-1.37v3.81h1.37zm-7.46 6.6v1.52h3.25l-.41 2.78h-2.84v1.7h5.92l-.41 2.77h-5.51v1.7h8.59l-.4 2.78h-8.19v1.7h11.26l-.4 2.78h-10.8v1.7h13.93l-.4 2.77h-13.53v1.7h16.65l-.37 2.58h4.27l-15.43-26.48zm32.44 22.21h-8.29l-1.76-2.77h6.73v-1.7h-7.8l-1.76-2.78h6.23v-1.7h-7.31l-1.77-2.76h5.75v-1.7h-6.83l-1.76-2.77h5.27v-1.7h-6.35l-1.76-2.78h4.79v-1.52h-6.57l16.46 26.48h1.2l-1.63-2.58h7.21zm16.12-49.63h-.53a136.54 136.54 0 001.79 20.56h-.35c-.11-.83-.21-1.54-.31-2.18-.25-1.75-.43-3-.6-4.88v-.49h-1.25v.49c-.16 1.85-.34 3.12-.59 4.87-.1.64-.2 1.36-.31 2.19h-.35a136.54 136.54 0 001.79-20.56h-.54a134.1 134.1 0 01-1.9 21.1h1.47c.46-3.42.73-4.87 1-7.55h.26c.25 2.68.51 4.13 1 7.55h1.46a135.2 135.2 0 01-2.04-21.1zm-3.18 24.1h5.03l2.98 11.33h.56l-3.13-11.87h-5.85l-3.12 11.87h.55l2.98-11.33z" fill="#ddebf8"/><path fill="#ddebf8" d="M324.65 38.06h-2.51l-2.54 9.71h.56l2.4-9.17h1.68l2.39 9.17h.56l-2.54-9.71zm-.97 11.89h3.27v1.81h-3.27zm-3.84 0h3.27v1.81h-3.27zm-3.84-1.3h14.8v.75H316zm11.52 1.3h3.27v1.81h-3.27zm-11.52 0h3.27v1.81H316z"/><path d="M314.91 47.54v5.3h17v-5.3zm16.43 1.87v2.89h-15.89v-4.18h15.89zM320.63 34.5h2.48v.83h-2.48zm3.05 0h2.52v.83h-2.52z" fill="#ddebf8"/><path d="M319.54 33.35v3.07h7.74v-3.07zm7.2 2.52h-6.66v-1.9h6.66zm-3.02-27.3l-.24-6.43h-.16l-.25 6.43h-.45v.8h1.55v-.8h-.45zm-1.44 1.4v2.58h2.23V9.97zm1.76 2h-1.29v-1.49h1.29zm-3.92 31.67l.87-3.33-.75.71-.88 3.34zm7.59 1.79l-.76-.72.69 2.65h.57zm-1.02-1.71l.76.72-.88-3.33-.75-.71zm-7.59 1.63l-.53 2h.58l.71-2.73zm7.21-5.24l-.82-3.13h-4.19l-.8 3.05.75-.71.47-1.8h3.35l.49 1.89zm-13.97 23.16l-1.41 3.05 2-1.54zm1.73 3.11a18.93 18.93 0 011.1-2.71l-1.63 1.3c.19.51.38 1 .53 1.41zm-3.23.7h2.92l-.66-1.77zm2.23-4.92h2.84c-.21-.54-.42-1.12-.65-1.72zm.27 2.27l2.2-1.73h-2.84zm2.37-4.34c.19.5.37 1 .54 1.46l1.37-3zm3.5-2.67h3.62c-.43-.67-.88-1.39-1.35-2.14zm3.9-.59v-3.09l-1.22 1.16c.42.68.83 1.33 1.22 1.93zm-5.72 3.56a9.26 9.26 0 013.33-2.43h-2.22zm-1.94-2.97h2.56c-.19-.49-.38-1-.58-1.55zm4.22-3.32l-1.8 1.42c.18.48.35.94.52 1.38zm16.19 12.25l-1.42-3.1q-.3.78-.57 1.53zM319.7 53.39h-2.62c.21.54.4 1.08.6 1.59zm2.99 0h-1.75l.65 1zm-8.16 5.09c-.4.89-.85 1.86-1.31 2.88l1.84-1.46zm2.34-5.09zm.66 4.58h-2.61l.59 1.59zm-.87-4.16l-1.4 3.07 2-1.54q-.31-.75-.6-1.53zm4.55 1c-.23-.38-.48-.76-.72-1.15L319 56.91zm7.91 3.74l1.38 3c.18-.48.36-1 .56-1.48zm4.94 4.15h-2.85l2.2 1.73c.26-.65.49-1.28.65-1.73zm-2.56-2.26l-.64 1.72h2.84zm-5.44-2.47a9.23 9.23 0 013.26 2.34l-1.11-2.34zm-10.31 8.26h2.63a16.22 16.22 0 012.36-6.59c-2.07 1.09-3.85 3.42-4.99 6.59zm10.3-6.59a16.37 16.37 0 012.36 6.59h2.63c-1.15-3.17-2.92-5.5-4.99-6.59z" fill="#ddebf8"/><path d="M330.64 52.3h-14.49s-3.6 8-7.26 15.87h5.79c1.41-5.68 4.78-9.68 8.71-9.68s7.31 4 8.72 9.68h5.79c-3.69-7.89-7.26-15.87-7.26-15.87zm-7.1 5.66h-.33c-3.94.09-7.42 3.85-9 9.66h-4.53c3.09-6.66 6.09-13.27 6.77-14.78h13.79c.68 1.51 3.67 8.12 6.76 14.78h-4.52c-1.51-5.81-5-9.57-8.94-9.65z" fill="#ddebf8"/><path d="M325.34 55.28c-.47.75-.92 1.47-1.35 2.14h3.61zm8.24 6.1l-1.37-2.93c-.18.5-.36 1-.54 1.45zm-1.95 2.32a19.29 19.29 0 011.08 2.65l.5-1.38zm2.04 1.61l-.66 1.77h2.91zm-4.85-7.89h2.56l-2-1.55c-.17.54-.37 1.1-.56 1.55zm2.68-.59c-.53-1.17-1-2.19-1.35-3-.19.5-.37 1-.55 1.48zm-.24 2.72c.19-.51.38-1.05.59-1.59h-2.64zm-1.51-6.16h-2.62l2 1.59c.21-.51.41-1.01.62-1.59zm-.8 2.13l-1.92-1.55c.42.93.89 1.94 1.37 3zm-5.27-1.82v3.2l1.26-2zm2.21-.31h-1.76l1.1 1zm1.81 3.38l-1.39-3-.67 1.08zm-3.43-36.09l-2 2a1.5 1.5 0 010 .3.29.29 0 010 .09l.19.18 1.86-1.88a2 2 0 01-.05-.69zm-.24-4.01l-1.44 1.46v.3a.29.29 0 000 .09l.19.18 1.36-1.38a1.83 1.83 0 01-.11-.65z" fill="#ddebf8"/><path d="M324.35 23.24c-.07-.32-.15-.64-.21-1l-1.58-1.6a2.32 2.32 0 010 .7zm-.4-4.75a2.47 2.47 0 010-.61l-1.19-1.21a2.43 2.43 0 01-.09.65l1.23 1.26zm69.83 30.81v-1.33l-.46-.06v-.94a143.93 143.93 0 00-22.11-1.45c-.49 0-1.33-3.61-2.12-5.71l-2-.07c-13.47-.34-24 1.21-27.71 2.73l-.23 5.47a1.69 1.69 0 00-.46.07v1.28c0 .07 13.75.16 28 .16 13.21 0 27.09-.08 27.09-.15zm-53.44-1.43c-.49 0-.88 0-1.16.07l.09-2.33a2.6 2.6 0 01.56-1.52c.35-.35.66-.09.63.64zm3.77-.13l-3 .1.1-2.87a2.43 2.43 0 011.37-1.87c.89-.43 1.71-.11 1.68.79zm4.88-.1l-3.62.07.11-3.58a2.3 2.3 0 011.71-2 1.37 1.37 0 011.91 1.28zm5.76-.08l-3.62.05.09-4.1a2.19 2.19 0 011.77-2.05 1.55 1.55 0 011.84 1.62zm6.68 0h-4l.06-4.52a2.13 2.13 0 012-2.07 1.86 1.86 0 012 1.89zm2.71 0V42.9a2.1 2.1 0 014.2 0v4.66h-4.23zm-25.5 18.68l.11-4.9c.05-1.34.35-2.42.67-2.42s.54 1.08.48 2.42l-.1 4.9h.91l.07-4.31c0-1.34.79-2.42 1.65-2.42s1.52 1.08 1.48 2.42l-.07 4.31h1.28l.05-4c0-1.34.86-2.43 1.82-2.43s1.71 1.09 1.68 2.43l-.05 4h2.22v-3.51a2.25 2.25 0 011.89-2.43c1 0 1.82 1.08 1.8 2.43v3.51h2.78v-3.22a2.28 2.28 0 012-2.43 2.22 2.22 0 012 2.43v3.22h2.8v-3.08a2.18 2.18 0 114.33 0v3.08h2.68v-3.22a2.22 2.22 0 012-2.43 2.28 2.28 0 012 2.43v3.22h2.78v-3.51c0-1.35.78-2.43 1.79-2.43a2.25 2.25 0 011.9 2.43v3.51h2.21v-4c0-1.34.72-2.43 1.68-2.43s1.73 1.16 1.73 2.46v4h1.28l-.07-4.31c0-1.34.62-2.42 1.48-2.42s1.59 1.08 1.64 2.42l.08 4.31h.91l-.11-4.9c0-1.34.17-2.42.48-2.42s.62 1.08.68 2.42l.11 4.9h.15l-.21-7.51c-2.74.71-15.13 1.42-27.1 1.42-12.82 0-25.21-.8-27.94-1.52l-.22 7.61z" fill="#ddebf8"/><path d="M393.99 56.62l-.36.06-.28-6.75c-3.14.06-15.16.12-26.74.12-12.42 0-24.45-.07-27.59-.13l-.27 6.69-.37-.06v1.21c0 .77 13.85 1.81 28.28 1.81 13.45 0 27.47-.92 27.44-1.7zm-53.75-4l-.16 4.11-1.15-.13.17-4c0-1.15.34-2.08.65-2.08s.53.99.46 2.14zm3.82 4.43c-1.17-.07-2.21-.15-3.09-.23l.16-4.2c0-1.15.76-2.08 1.61-2.08s1.51.93 1.47 2.08zm4.73.25l-3.47-.17.14-4.51a2 2 0 011.79-2.08 1.86 1.86 0 011.66 2.08zm5.86.2l-3.66-.11.1-4.77a2 2 0 011.86-2.08 1.92 1.92 0 011.78 2.08zm6.69.14l-3.94-.07.06-4.95a2.05 2.05 0 012-2.08 2 2 0 011.93 2.08zm5.28 0h-2.51v-5.05a2.13 2.13 0 014.26 0v5.05zm4.45 0v-5a2 2 0 011.94-2.08 2 2 0 012 2.08l.07 5zm6.69-.12l-.08-4.91a1.91 1.91 0 011.77-2.08 2 2 0 011.86 2.08l.11 4.8zm5.85-.19l-.12-4.72a1.87 1.87 0 011.67-2.08 2 2 0 011.78 2.08l.14 4.55c-1.07.11-2.23.17-3.47.22zm4.74-.24l-.15-4.48c0-1.15.62-2.08 1.47-2.08s1.57.93 1.61 2.08l.16 4.26c-.88.1-1.92.2-3.09.27zm4-.3l-.16-4.18c0-1.15.17-2.08.49-2.08s.6.93.65 2.08l.17 4.05zm-23.52-18.11c.36 0-.14-2.25-.88-2.3h-.44a.45.45 0 00-.13-.16c-.64-.48-2.74.15-3.12-.57a29 29 0 01-2-5.58c-11.32 1-19.38 4.7-22.77 7.93a1.29 1.29 0 01.16-.56c3.25-3.3 11.4-7.13 22.92-8-.24-.75-.47-1.22-.76-1.21-12.47 1.11-21.46 5.93-22.67 9.43-.15.42.33.48.33.48l-.13 3.09a1.12 1.12 0 00-.39.69v.37c2.74-1.62 13.54-3.62 27.64-3.62zm-23.62-1.07l-1.62.57.05-1.55a1.46 1.46 0 01.85-1.27c.44-.15.79.16.77.71zm8.2-1.74l-2.11.35v-1.91a1.45 1.45 0 011.08-1.39.93.93 0 011 1zm49.58 27.61h-2.63a.62.62 0 00-.62.62v2.13h3.87V64.1a.62.62 0 00-.62-.62zm15.4 0h-2.63a.63.63 0 00-.63.62v2.13h3.88V64.1a.62.62 0 00-.62-.62zm-17.6-15.32h1.79v.53h-1.79zm15.52 0h1.79v.53h-1.79zm5.9 4.5H396.7a.57.57 0 100 1.14h25.51a.57.57 0 000-1.14zm2.77-12.81c-13.81 2.61-16.85 2.51-31.07 0-.82-.15-1.28.41-1.08.9l1.12 2.78a1.78 1.78 0 001.6.75h27.79a1.76 1.76 0 001.59-.75l1.13-2.78c.2-.49-.26-1.06-1.08-.9zm-22.44 11.36v-2.24h-1.71v2.2zm15.51-.07v-2.17h-1.7v2.29zm-1.7 3.03h1.7v8.93h-1.7zm-15.51 0h1.7v8.93h-1.7zm-3.91-2.62l.85.58a3.19 3.19 0 001.2.16h20.93a3.23 3.23 0 001.2-.16l.85-.58c.15-.1-.2-.22-.82-.18a172.37 172.37 0 01-23.4 0c-.62-.03-.96.08-.81.18zm-1.38-6.67a1.86 1.86 0 001.33.5h25.15a1.83 1.83 0 001.32-.5h-27.79zm23.92 2.43l.43-1.49h-20.92l.44 1.53c.1.34.71.62 1.35.61h17.36c.65.01 1.25-.31 1.34-.65zM200.52 34.97c24.05 0 20.14-1 20.14-1s-9.82-1.45-14.61-4H195c-4.24 2.9-14.61 4-14.61 4s-4.13 1 20.13 1zm13.42 8.42v-7.34c-3 .16-7.32.27-13.5.27s-10.35-.11-13.35-.25v7.31h6.78v-.5h-1.89v-.65l1-1h1.88l1 1v.33a3 3 0 00.74-.89 3.6 3.6 0 01.91-1.06h-1.14v-.64l1-1h2l1 1v.26h.5v-.26l1-1h2l1 1v.71h-1.07a4.67 4.67 0 011.12 1.15c.16.21.31.41.46.57v-.07l1-1.05h1.88l1 1v.68h-2a.66.66 0 010 .21v.28zm-22.46-.51h-3.9v-.67l1-1h1.88l1 1zm0-2.27h-3.9v-.71l1-.95h2l1 1zm0-2.27h-3.9v-.75l.91-.91h2l.95 1zm4.41 2.27h-3.9v-.64l1-1h2l1 1zm0-2.26h-3.9v-.73l.92-.93h2l.94 1zm4.41 0h-3.9v-.73l.93-.94h2l.93.94zm4.41 0h-3.91v-.71l.95-1h2l.92.93zm4.91-.69l1-1h2l.89.9v.76h-3.9zm0 2.31l1-1h2l.93.93v.73h-3.9zm0 2.31l1.05-1.06h1.88l1 1v.69h-3.9zm-4.41-4.63l1-1h2l.9.92v.75h-3.9zm0 3v-.68l1-1h2l.94.95v.72zm24.19 7.32s-9.07-.57-14.51-3.59h-8.2v1.84h-1.07a2.62 2.62 0 01-2.08-1 2.12 2.12 0 00-1.16-.77h-3.67a1.49 1.49 0 00-.87.65 2.61 2.61 0 01-2.37 1.15h-1.19v-1.8h-8.07c-4.46 2.58-14.51 3.58-14.51 3.58s7.36.89 29 .9c21.41-.11 28.7-.96 28.7-.96z" fill="#ddebf8"/><path d="M202.11 41.08h-3.12c-2.37 0-1.58 2.69-4.26 2.73v1.3h.74c2.38 0 1.67-1.85 3.73-1.85h2.7c2.06 0 1.86 1.86 3.73 1.86h.61v-1.35c-1.96-.13-1.82-2.69-4.13-2.69zm18.5 8.89h-40.26v5.29h-.45v11.25h.46v.05h.07v-8.52h1.78v8.52h2.19v-8.53h1.81v8.53h2.18v-8.53h1.82v8.53h3.38v-7.78h13.44v7.79h3.76v-8.54h1.82v8.54h2.19v-8.54h1.82v8.54h2.19v-8.54h1.82v8.48h.29V55.26h-.35zm-36.52 7.36h-2.74v-1.36l.33-.34h2l.4.41zm.62-2.1h-4v-.73l1-1h2l1 1zm0-2.09h-4v-.73l1-1h2l1 1zm3.88 4.19h-3v-1.16l.56-.56h2l.47.47zm.55-2.09h-4v-.72l1-1h2l1 1zm0-2.1h-4v-.73l1-1h2l1 1zm4.43 4.19h-3.52V56.1l.49-.48h2l1 1zm0-2.09h-4v-.73l1-1h2l1 1zm0-2.1h-4v-.73l1-1h2l1 1zm4.43 4.2h-4v-.73l1-1h2l1 1zm0-2.1h-4v-.73l1-1h2l1 1zm0-2.1h-4v-.73l1-1h2l1 1zm4.43 4.2h-4v-.73l1-1h2l1 1zm0-2.1h-4v-.73l1-1h2l1 1zm0-2.09h-4v-.72l1-1h2l1 1zm4.43 4.19h-4v-.73l1-1h2l1 1zm0-2.1h-4v-.73l1-1h2l1 1zm0-2.09h-4v-.73l1-1h2l1 1zm3.94 4.19h-3.53v-.73l1-1h2l.54.53zm.49-2.09h-4v-.73l1-1h2l1 1zm0-2.1h-4v-.73l1-1h2l1 1zm3.72 4.19h-2.75v-1.29l.42-.42h2l.32.31zm.7-2.09h-4v-.73l1-1h2l1 1zm0-2.1h-4v-.73l1-1h2l1 1zm3.78 4.19h-3v-1.07l.64-.64h2l.38.38zm-3-1.7zm3.67-.39h-4v-.73l1-1h2l1 1zm0-2.1h-4v-.73l1-1h2l1 1zm218.46-42.38V9.48c-.19.05-.35.38-.38.81a20.86 20.86 0 01-3.62-7.63 4.57 4.57 0 00-.12-1.39 4.14 4.14 0 00-.13 1.4 17.87 17.87 0 01-3.62 7.66c0-.44-.19-.79-.39-.84v1.94h8.3v-.66zm2.2 9.6l-2.7-4.24h-7.38l-2.71 4.24c-.1-.38-.28-.66-.48-.71v3h13.75v-3c-.2.05-.38.31-.48.71zm-2.32-1.67a.59.59 0 01.51.27l.48.94h-1.15l-.13-.94c-.06-.16.08-.27.29-.27zm-1.73-2a.5.5 0 01.47.27l.32.94h-1.15v-.94c-.01-.19.16-.3.36-.3zm-1.33 2.3a.38.38 0 01.41-.27.41.41 0 01.42.27l.2.94h-1.15zm-1.38-2a.4.4 0 01.42-.27c.2 0 .39.11.41.27l.16.94h-1.15zm-1.39 2a.43.43 0 01.43-.27.38.38 0 01.41.27l.11.94h-1.14zm-1-2a.5.5 0 01.47-.27c.2 0 .37.11.37.27v.94h-1.15zm-1.61 2a.59.59 0 01.51-.27c.2 0 .35.11.32.27l-.16.94h-1.15zm8.15-3.7v-3.1h-7.54v3.1zm-1.13-2.47a.34.34 0 01.67 0v1.76a.34.34 0 01-.67 0zm-1.5 0a.34.34 0 01.67 0v1.76a.34.34 0 01-.67 0zm-1.5 0a.34.34 0 01.67 0v1.76a.34.34 0 01-.67 0zm-1.5 0a.34.34 0 01.67 0v1.76a.34.34 0 01-.67 0zm-1.5 0a.33.33 0 01.33-.33.33.33 0 01.33.33v1.76a.33.33 0 01-.33.33.33.33 0 01-.33-.33zm8.38 29.14v2.17a.41.41 0 01-.41.41.41.41 0 01-.41-.41v-2.17h-1v2.17a.41.41 0 01-.41.41.41.41 0 01-.41-.41v-2.17h-1v2.17a.41.41 0 01-.41.41.41.41 0 01-.41-.41v-2.17h-1v2.17a.41.41 0 01-.41.41.41.41 0 01-.41-.41v-2.17h-1v2.17a.41.41 0 11-.82 0v-2.17h-1v2.17a.42.42 0 01-.83 0v-2.17h-.54v4.38h11.11v-4.38zm-10.05-15.41v-1.51a.42.42 0 01.83 0v1.51h1v-1.51a.41.41 0 11.82 0v1.51h1v-1.51a.41.41 0 01.41-.41.42.42 0 01.41.41v1.51h1v-1.51a.42.42 0 01.41-.41.41.41 0 01.41.41v1.51h1v-1.51a.41.41 0 01.41-.41.42.42 0 01.41.41v1.51h1v-1.51a.42.42 0 01.41-.41.41.41 0 01.41.41v1.51h.52v-3.13h-11.11v3.13zm10.57 36.99V49.43h-11.11v14.12zm-1.29-12.5a.41.41 0 01.41-.41.41.41 0 01.41.41v10.29a.41.41 0 01-.41.41.41.41 0 01-.41-.41zm-1.85 0a.41.41 0 01.82 0v10.29a.41.41 0 01-.82 0zm-1.84 0a.41.41 0 01.41-.41.41.41 0 01.41.41v10.29a.41.41 0 01-.41.41.41.41 0 01-.41-.41zm-1.85 0a.41.41 0 01.82 0v10.29a.41.41 0 01-.82 0zm-1.85 0a.41.41 0 01.41-.41.41.41 0 01.41.41v10.29a.41.41 0 01-.41.41.41.41 0 01-.41-.41zm-1.84 0a.41.41 0 11.82 0v10.29a.41.41 0 11-.82 0zm-1.52-4.02h12.98v1.61h-12.98zm0 17.48h12.98v1.61h-12.98zm-.36-37.19v13.65h13.69V27.32zm6.74 11a4.17 4.17 0 114.17-4.17 4.17 4.17 0 01-4.17 4.15z" fill="#ddebf8"/><path d="M434.59 34.53v.13l-.4-.13h-.15v-.05l-.22-.07 1.23-2.88.22.07-.54 2.42 3.15.28v-.17a3.56 3.56 0 100 .43zM236.32 25.1a1.27 1.27 0 01-1.27 1.27 1.27 1.27 0 01-1.28-1.27v-1.28a1.27 1.27 0 011.28-1.27 1.27 1.27 0 011.27 1.27z" fill="#ddebf8"/><path fill="#ddebf8" d="M234.35 25.37h1.4v2.83h-1.4zm5.16 22.67a4.73 4.73 0 00-2.37-1.66v-19l1.68.19z"/><path d="M233.21 27.1a4.92 4.92 0 01.66-.12v-.88a1.54 1.54 0 01-.34-1v-1.4a1.55 1.55 0 013.1 0v1.4a1.54 1.54 0 01-.34 1v.87a4.75 4.75 0 01.65.12h.08l-.13-3.57a1.83 1.83 0 00-3.63 0l-.13 3.57zm3.49 1.66v-1.35a8.59 8.59 0 00-3.3 0v1.35a.58.58 0 00.58.58h2.14a.58.58 0 00.58-.58z" fill="#ddebf8"/><path d="M236.37 31.87a17.67 17.67 0 01-6.49-1.18 10.21 10.21 0 01-4.12-2.85l7.2-.48v1.45a.91.91 0 00.91.91h2.34a1 1 0 00.48-.13v2.28z" fill="#ddebf8"/><path d="M236.7 46.23a21.71 21.71 0 00-3-.62c-2.08-.33-3.86-.61-3.86-1.93v-9.99c-1.21-1.16-4.82-1.29-6.38-1.3-1.63-2-2-3.39-2-4.23l3.79-.25a8.86 8.86 0 002.49 2.21 16.59 16.59 0 008.63 2.21h.33zm2.51-18.59l.22 6.19a16 16 0 016.92-1.48c1.62-2 2-3.39 2-4.23a82 82 0 01-9.14-.48zm-18.08.48l-.5-.05c-.43 0-.45-.79-1.1-.74l-1.5.07c-.1 0-.23.14-.29.32h-1.18c-.21 0-.31.37-.25.74s.21.58.38.61l2.35.5a1.23 1.23 0 001-.34l1.34.13a4.26 4.26 0 01-.25-1.24zm27.58 0l.5-.05c.43 0 .45-.79 1.1-.74l1.5.07c.1 0 .23.14.29.32h1.18c.21 0 .31.37.25.74s-.21.58-.38.61l-2.35.5a1.23 1.23 0 01-1-.34l-1.34.13a4.26 4.26 0 00.25-1.24zm-8.94 29.35l-.32-8.95-.21-.29a4.31 4.31 0 00-2.21-1.54l-.2-.08-.22-.07a22.66 22.66 0 00-3-.61 9.61 9.61 0 01-3.34-.89l-.44 12.43zm-11.3.57h12.9v1.74h-12.9zm-.83 2.48h14.57v5.68h-14.57zM91.32 35.97h-41.6v1.86a.65.65 0 00.65.65h40.3a.66.66 0 00.65-.65zM47.45 34.9h46.13a.65.65 0 00.65-.65v-1.1l-23.71-8.3-23.71 8.3v1.1a.65.65 0 00.64.65zm2.27 24.2v1.14h41.6V59.1a.66.66 0 00-.65-.65h-40.3a.65.65 0 00-.65.65zm44.74 2.77a.65.65 0 00-.65-.65h-46.6a.65.65 0 00-.65.65v1.1h47.88zm2.49 2.38H44.09a.65.65 0 00-.65.64v1.15H97.6v-1.15a.65.65 0 00-.65-.64zm-46.52-7.22v.13h4v-.13a1.26 1.26 0 00-.94-1.22V41.24a1.27 1.27 0 00.94-1.23v-.6h-4v.6a1.27 1.27 0 00.94 1.23v14.57a1.26 1.26 0 00-.94 1.22zm5.15 0v.13h4v-.13a1.25 1.25 0 00-.95-1.22V41.24a1.27 1.27 0 00.95-1.23v-.6h-4v.6a1.27 1.27 0 001 1.23v14.57a1.25 1.25 0 00-1 1.22zm5.15 0v.13h4v-.13a1.25 1.25 0 00-.95-1.22V41.24a1.27 1.27 0 00.95-1.23v-.6h-4v.6a1.28 1.28 0 001 1.23v14.57a1.27 1.27 0 00-1 1.22zm5.16 0v.13h4v-.13a1.27 1.27 0 00-1-1.22V41.24a1.28 1.28 0 001-1.23v-.6h-4v.6a1.27 1.27 0 001 1.23v14.57a1.25 1.25 0 00-1 1.22zm5.15 0v.13h4v-.13a1.25 1.25 0 00-1-1.22V41.24a1.27 1.27 0 001-1.23v-.6h-4v.6a1.28 1.28 0 00.95 1.23v14.57a1.27 1.27 0 00-.95 1.22zm5.17 0v.13h4v-.13a1.26 1.26 0 00-.94-1.22V41.24a1.27 1.27 0 00.94-1.27v-.6h-4v.6a1.27 1.27 0 00.94 1.23v14.57a1.26 1.26 0 00-.94 1.26zm5.14 0v.13h4v-.13a1.25 1.25 0 00-.95-1.22V41.24a1.27 1.27 0 00.95-1.23v-.6h-4v.6a1.27 1.27 0 001 1.23v14.57a1.25 1.25 0 00-1 1.22zm5.15 0v.13h4v-.13a1.26 1.26 0 00-.94-1.22V41.24a1.27 1.27 0 00.94-1.23v-.6h-4v.6a1.28 1.28 0 001 1.23v14.57a1.27 1.27 0 00-1 1.22z" fill="#ddebf8"/><path d="M143.9 15.37l-24.94 34.07-14.69-20-15.49 21.21c.07.34.12.67.16 1l15.33-21 .81 1.1 8.61 24.9-7 9.57H82.05q-.65.39-1.32.72H181.6zm9.95 28.88h-4.36v-3.83h3zm-1.49-4.28h-6.44v-3.82h5.12zm-10 .5h6.76v3.83h-6.76zm-3.57-.51v-3.82h6.75v3.82zm10.7-8.15h.05l1.31 3.82h-1.36zm-29.73 17.76h.28v3.83h-3.06zm11.12 8.16h-6.75v-3.82h6.75zm3.55.51v3.82h-6.76v-3.82zm-7.12 0v3.82h-6.76v-3.82zm-.15-4.84h-6.76v-3.83h6.81zm-3.4.51v3.82h-6.75V53.9zm-7.17 0v3.83h-2.84zm-3.16 4.33h6.78v3.82h-6.75zm-.36.49v3.33h-2.43zm-2.78 3.8h28.84v-.46h-4.34v-3.82h5.9v-.51h-9.48v-3.82h4.8a4.49 4.49 0 010-.51h-8.5v-3.82h11.93a2.22 2.22 0 010-.51h-19.3l23.76-32.45.8 1.1 4.67 13.54h-7.51v.51h7.27v3.82H134.4v.51h4v3.82h-4v.51h7.61v3.82h-3.8v.51h15.77l7.39 21.44H107.6zM497.71 46.7h-10.56v-5.68l3.37 1.37h3.89l3.3-1.34zm-16.9 1.53v.26h23.32v-.26a1.33 1.33 0 00-1.34-.89h-20.54a1.34 1.34 0 00-1.44.89zm-2.51-7.56c.78-9.67 7.23-14.65 9.77-14.85a22 22 0 012.56-.22h.46l-.25.44 1 3.72h1.37l1-3.72-.25-.43h.38a22 22 0 012.55.22c2.54.2 9 5.18 9.77 14.84.21 2.53-4.47 3.54-4 6h-.22c-.66-2.5 3.93-3.51 3.51-6a21.08 21.08 0 00-7.62-13.33 4 4 0 01.06.67v3.76a1.5 1.5 0 011.29-.48c.92.16 1.47 1.37 1.23 2.7s-1.17 2.28-2.09 2.11a1.1 1.1 0 01-.42-.17v2.7a3 3 0 01-.6 1.83l-3.43 1.4h-3.68l-3.43-1.39a3 3 0 01-.6-1.84v-2.57l-.12.05c-.92.16-1.86-.79-2.1-2.12s.32-2.54 1.24-2.7a1.36 1.36 0 011 .23v-3.55a4 4 0 01.06-.67 21 21 0 00-7.61 13.34c-.42 2.53 4.17 3.53 3.51 6h-.23c.37-2.44-4.31-3.44-4.11-5.97zm16.44-2.4a8.81 8.81 0 01-2.31.27 11 11 0 01-2.39-.27 2.87 2.87 0 004.7 0zm0 0a7.1 7.1 0 00-4.7 0s1.32-.16 2.32-.16a18.88 18.88 0 012.33.16zm-1.48-4.6c.69.14 2.73.54 4-.21.76-2.25-1.71-3.17-3.56-2.5-.49.18-.49 1.73-.44 2.7zm-2.05 3.3h2.51l-1.24-3.55zm-3.65-4.15a3.17 3.17 0 01.18.62.28.28 0 000 .09c1.29.71 3.27.32 4 .18.09-1 .08-2.52-.46-2.71-1.7-.65-3.84.03-3.75 1.77zm11.32 6.26v.19a.77.77 0 010 .15 1 1 0 010 .14v.28l-.07.18v.08a1.08 1.08 0 01-.08.19v.05l-.11.19-.12.18v6h3.58c-.32-1.52.92-2.61 1.9-3.46s1.78-1.54 1.62-2.49a20.82 20.82 0 00-6.48-12.22v2.27a1.75 1.75 0 01.51-.08h.26a1.8 1.8 0 011 .58 2.3 2.3 0 01.43.65 3.63 3.63 0 01.23 2.11 2.81 2.81 0 01-2.42 2.57h-.09v2.3c0 .1-.19.03-.19.09zm-12.24 7.67v-6.12a3.59 3.59 0 01-.39-.88v-.05a3.56 3.56 0 01-.1-.47.19.19 0 010-.08 3.88 3.88 0 010-.48v-2a2.89 2.89 0 01-2.21-2.56 5.62 5.62 0 01-.06-.56 3.43 3.43 0 01.28-1.55 2 2 0 011.45-1.22h.53v-2.2a20.85 20.85 0 00-6.47 12.21c-.16 1 .71 1.7 1.63 2.5s2.21 1.93 1.9 3.45zm6.3-17.39l.57-3.72-.48-1.45h-1l-.48 1.45.57 3.72zm-5.58 32.88h10.55v-2.06h-10.55zm18.05-3.28h.77l-.31-1.52h-26.84l-.31 1.53h1.14a1.06 1.06 0 01.91.52h.2a2.14 2.14 0 000 .55v7h2.93l-.46-6.72a1.07 1.07 0 00-1.07-1.07h-1.15a1.06 1.06 0 01.71-.27h1.15a1.08 1.08 0 01.92.52h.2a1.84 1.84 0 00-.05.54v7h2.93l-.46-6.72a1.07 1.07 0 00-1.07-1.07h-1.15a1 1 0 01.71-.27h1.1a1.05 1.05 0 01.91.52h11a1.08 1.08 0 01.92-.54h1.17a1.08 1.08 0 01.72.28h-1.16a1.06 1.06 0 00-1.06 1.07l-.5 6.66h2.92v-7a1.06 1.06 0 010-.31.65.65 0 00-.11-.22h.21a1.06 1.06 0 01.92-.54h1.15a1.07 1.07 0 01.71.28h-1.15a1.07 1.07 0 00-1.07 1.07l-.46 6.72h2.93v-7a1.06 1.06 0 01.05-.31.91.91 0 00-.11-.22h.21a1.05 1.05 0 01.97-.53zm1.83.28h-1.12a1.07 1.07 0 00-1.07 1.07l-.46 6.72h2.93v-7a1.06 1.06 0 010-.31 1 1 0 00-.31-.53zm3.56.8a1 1 0 00-.37-.8h-1.13a1.07 1.07 0 00-1.07 1.07l-.46 6.72h3zm-23.47 4.93h10.55v-2.1h-10.55zm-8.22-5.73h-1.13a1 1 0 00-.26.8v7h2.92l-.46-6.72a1.07 1.07 0 00-1.07-1.12zm0-2.49h26.58l-.41-2.06h-25.76zm.55-2.74h25.55l-.41-2.06h-24.68zm-3.74 5.23h-1.15a1.07 1.07 0 00-.36.8v7h3l-.47-6.72a1.06 1.06 0 00-1-1.12zm11.39 7.7h10.55v-1.29h-10.55zm-7.1-15.71h24.4l-.4-2.06h-23.6zm67.06 7.74v-.53h-2.41v-3.47h-20.65v3.48h-2.41v.52h1.11v1.26h-1.11v.52h1.11v1.22h-1.11v.53h25.44v-.53h-1.03v-1.26h1.07v-.52h-1.07v-1.22zm-3.13-3.31v2.78h-4.2v-2.77zm0 3.3v1.27h-1.73v-1.26zm-5-3.29v2.77h-4.19v-2.76zm0 3.29v1.27h-.5v-1.26zm-5 1.26h-3.06v-1.25h3.06zm0-4.54v2.76h-4.19v-2.76zm-9.21 0h4.19v2.76h-4.19zm4.19 3.27v1.26h-1.91v-1.24zm-5.62 0h.78v1.26h-.78zm0 1.78h.78v1.24h-.78zm3.27 1.27h-1.84v-1.27h1.84zm0-1.79h-1.84v-1.24h1.84zm.52.52h1.83v1.24h-1.91zm3.27 1.27h-.62v-1.26h.61zm0-1.79h-.61v-1.24h.61zm.52.53h3.06v1.23h-3.06zm7.06 1.26h-3.18v-1.26h3.18zm0-1.79h-3.18v-1.24h3.17zm.52.53h.5v1.23h-.49zm3.27 1.26h-2v-1.26h2zm0-1.78h-2v-1.25h2zm.52.52h1.72v1.23h-1.72zm3.26 1.26h-.81v-1.26h.82zm0-1.78h-.82v-1.25h.82zm-3.5-16.1v-4.24h-15.37v4.24zm-3.72-3.56h3v2.72h-3zm-3.61 0h3v2.72h-3zm-3.62 0h3v2.72h-3zm-3.62 0h3v2.72h-3zm16.4 4.64v-.39h-19v.39h.82v.94h-.83v.39h.83v.94h-.83v.39h19v-.39h-.8v-.95h.8v-.39h-.8v-.94zm-9.67.94h-2.43v-.94h2.43zm.39-.94h2.45v.94h-2.44zm-3.21.94h-2.44v-.94h2.44zm0 .39v.94h-2.44v-.94zm.39 0h2.43v.94h-2.43zm2.82 0h2.45v.94h-2.44zm2.83 0h2.43v.94h-2.43zm0-.39v-.94h2.43v.94zm-11.3-.94h2.43v.94h-2.43zm0 1.33h2.43v.94h-2.43zm16.56.95h-2.44v-.94h2.44zm0-1.34h-2.44v-.94h2.44zm-22.11 6.63h27.63v1.38h-27.63zm22.98-3.88h-18.33a69.27 69.27 0 01-7.48.94c0 1.41 7.45 2.09 16.64 2.1s16.65-.68 16.65-2.08a70.73 70.73 0 01-7.48-.96zm-4.17-17.74v-3.18h-10v3.14zm-2.49-2.61h1.92v2.12h-1.92zm-2.3 0h1.92v2.12h-1.92zm-2.31 0h1.93v2.12h-1.93zm-2.3 0h1.93v2.12h-1.92zm12.06 3.61v-.32h-15.35v.32h.67v.76h-.67v.31h.67v.75h-.67v.32h15.35v-.32h-.64v-.76h.64v-.32h-.64v-.76zm-7.82.76h-2v-.76h2zm.32-.76h2v.76h-2zm-2.61.76h-2v-.76h2zm0 .31v.75h-2v-.77zm.32 0h2v.75h-2zm2.29 0h2v.75h-2zm2.28 0h2v.75h-2zm0-.32v-.76h2v.76zm-9.14-.76h2v.76h-2zm0 1.07h2v.76h-2zm13.4.77h-2v-.76h2zm0-1.08h-2v-.76h2zm-16.23-18.71h19.09v1.28h-19.09zm8.39-4.8v.67h2.31V9.4h-.89v-.43c.29-.05.5-.18.5-.33s-.21-.28-.5-.33v-.34c.29-.05.5-.18.5-.33s-.21-.28-.5-.33v-.32c.29-.05.5-.18.5-.33s-.21-.28-.5-.33V6c.29-.05.5-.18.5-.33s-.21-.28-.5-.33v-.33c.29 0 .5-.17.5-.33s-.21-.28-.5-.33v-.32c.29-.05.5-.18.5-.33s-.21-.28-.5-.33v-.33c.29 0 .5-.18.5-.33s-.21-.28-.5-.33v-.33c.29-.05.5-.17.5-.32a.74.74 0 00-.5-.6v-1c0-.07-.12-.14-.26-.14s-.27.07-.27.14v1a.73.73 0 00-.49.59c0 .16.2.28.49.33v.33c-.29.05-.49.18-.5.33s.21.28.5.33v.33c-.29 0-.5.18-.5.33s.21.28.5.33v.32c-.29.05-.5.18-.5.33s.21.28.5.33v.33c-.29 0-.5.18-.5.33s.21.28.5.33v.33c-.29.05-.5.17-.5.33s.21.27.5.33v.32c-.29 0-.5.18-.5.33s.21.28.5.33v.33c-.29 0-.5.18-.5.33s.21.28.5.33v.41zm2.18 1.26h-2.05c-2.51.45-8.84 1.57-10.48 1.57 0 1 5.15 1.44 11.5 1.45s11.5.16 11.5-.81c-1.63 0-7.96-1.75-10.47-2.21zm-12.21 15.59h22.37v1.12h-22.37zm18.6-2.9h-14.84a41 41 0 01-6 .5c0 1.14 6 2 13.47 2s13.47-.54 13.47-1.68a57.5 57.5 0 01-6.1-.82zm-18.6 14.77h22.37v1.12h-22.37zm-5.05 25.11h32.44v1.12h-32.44zm-1.95 1.77h36.34v1.12h-36.34zm25.6-30.02h-14.85a40.77 40.77 0 01-6.05.5c0 1.14 6 2 13.48 2s13.47-.54 13.47-1.68a57.18 57.18 0 01-6.05-.82zm.23-14.39v-.31h-15.35v.32h.66v.76h-.66v.31h.66v.77h-.66v.31h15.35v-.32h-.65v-.76h.65v-.32h-.65v-.76zm-7.83.76h-2v-.76h2zm.32-.76h2v.76h-2zm-2.6.76h-2v-.76h2zm0 .32v.76h-2v-.76zm.31 0h2v.76h-2zm2.29 0h2v.76h-2zm2.29 0h2v.76h-2zm0-.32v-.76h2v.76zm-9.15-.76h2v.76h-2zm0 1.07h2v.76h-2zm13.4.77h-2v-.76h2zm0-1.08h-2v-.76h2zm-1.69-1.67v-3.61h-10v3.61zm-2.48-2.85H539v2.15h-1.93zm-2.3 0h1.92v2.15h-1.92zm-2.3 0h1.92v2.15h-1.92zm-2.31 0h1.93v2.15h-1.88zm443.78 28.15h-15.29a29.62 29.62 0 01-7.43 3.66h30.15a29.62 29.62 0 01-7.43-3.66zm-23.01 5.82l4.89 1.74h21.01l4.9-1.73-30.8-.01zm-.29-.77h31.09a.34.34 0 00.34-.34.35.35 0 00-.34-.35h-31.09a.35.35 0 00-.35.35.35.35 0 00.35.34zm7.53-6.6h16.19v.9h-16.19zm10.78-2.8h3.17v2.32h-3.17zm-4.04 0h3.75v2.32h-3.75zm-4.17 0h3.89v2.32h-3.89zm11.05-5.65h-11a21.34 21.34 0 01-5.37 2.64h21.78a21.35 21.35 0 01-5.41-2.64zm-16.63 3.87l3.54 1.26h15.18l3.53-1.25-22.25-.01zm-.21-.4h22.46a.25.25 0 00.25-.25.25.25 0 00-.25-.25h-22.46a.25.25 0 000 .5zm5.45-4.62h11.7v.65h-11.7zm6.33-9.53h-1c-1.76 3-7.73 5.85-7.73 5.85h16.42s-5.93-2.88-7.69-5.85zm-8.81 6.55h16.52a.19.19 0 100-.37h-16.52a.18.18 0 00-.18.19.18.18 0 00.18.18zm8.05-7.36a.45.45 0 00-.19.37v.12h.94v-.08a.45.45 0 00-.19-.37.71.71 0 10-.56 0zm2.21 7.91h2.29v1.98h-2.29zm-2.91 0h2.71v1.98h-2.71zm-3.02 0h2.81v1.98h-2.81zm-.02 22.01h8.07v2.14h-8.07zm8.72 0h4.38v2.14h-4.38zm-13.34 0h3.96v2.14h-3.96zm-1.72 8.11h20.75v-5.22h-20.75zm1.24-.25h-1v-3.1h1zm1.24 0h-.93v-3.1h.93zm1.33 0h-1v-3.1h1zm1.14 0h-.93v-3.1h.93zm4.72 0h-.93v-3.1h.93zm1.32 0h-1v-3.1h1zm1.15 0h-.93v-3.1h.93zm4.54 0h-.93v-3.1h.93zm1.33 0h-1v-3.1h1zm1.14 0h-.93v-3.1h.93zm1.24 0h-.94v-3.1h.94zm-5.61-4.45h5.78v1.16h-5.78zm-.31 1.35h1v3.1h-1zm-1.1 3.1h-.93v-3.1h.93zm-5.9-4.45h5.79v1.16h-5.79zm0 1.35h1v3.1h-1zm-1.27 3.1h-.93v-3.1h.93zm-6-4.45h5.78v1.16h-5.78zm-2.81 5.07h26.28v.95h-26.28zm-1.59 1.54h29.45v.93h-29.45zm-1.32 1.49h32.1v.93h-32.1zM781 29.42h-10.44v-1.67H781zm-10 9.48v-8.54h10v8.54zm5.88-2h1.33v-3.74h-1.36zm-1.84 0h1.36v-3.74h-1.36zm-1.84 0h1.37v-3.74h-1.36zm2.44 8.86h5.57v-1.7h-5.57zm-2.62 4.47h8.19v-1.7h-8.19zm-2.65 4.48h10.84v-1.7h-10.84zm-2.78 4.48h13.62v-1.7h-13.62zm10.62-17.88h3v-1.52h-3zM765 63.69h16.21v-1.72h-16.27zm5-23.89h-4.55v1.52h3.18l-1.76 2.78h-4.74v1.7h3.66l-1.76 2.77h-5.22v1.7h4.14l-1.76 2.78h-5.71v1.7h4.63l-1.76 2.78h-6.14v1.7h5.11l-1.81 2.74h-6.67v1.7h5.59l-1.63 2.58h1.23l16.4-26.47zm5.13 0l-15.42 26.47h1.59l15.51-26.47zm18.36-12.05h-10.44v1.67h10.44zm-.46 11.15h-10v-8.54h10zm-6.14-5.71h-1.37v3.78h1.37zm1.84 0h-1.37v3.78h1.37zm1.84 0h-1.36v3.78h1.37zm-7.46 6.6v1.52h3.25l-.41 2.78h-2.84v1.7h5.92l-.4 2.77h-5.52v1.7h8.59l-.4 2.78h-8.19v1.7h11.26l-.4 2.78h-10.86v1.7h13.93l-.4 2.77h-13.53v1.7h16.6l-.37 2.58h4.27l-15.4-26.48zm32.38 22.2h-8.28l-1.76-2.77h6.76v-1.7h-7.8l-1.76-2.78h6.24v-1.7h-7.32l-1.76-2.78h5.75v-1.7h-6.83l-1.76-2.77h5.24v-1.7h-6.35l-1.76-2.78h4.79v-1.52h-6.57l16.4 26.48h1.21l-1.64-2.58h7.21zm16.13-49.65h-.54a136.54 136.54 0 001.79 20.56h-.35c-.11-.83-.21-1.54-.31-2.18-.25-1.75-.43-3-.6-4.88v-.49h-1.25v.49c-.16 1.85-.34 3.12-.59 4.87-.1.64-.2 1.36-.31 2.19h-.35a136.54 136.54 0 001.79-20.56h-.54a132.91 132.91 0 01-1.9 21.1h1.47c.46-3.42.73-4.87 1-7.55h.26c.25 2.68.52 4.13 1 7.55h1.47a132.81 132.81 0 01-2.04-21.1zm-3.18 24.1h5.02l2.98 11.33h.56l-3.12-11.87h-5.86l-3.12 11.87h.56l2.98-11.33z" fill="#ddebf8"/><path fill="#ddebf8" d="M832.21 38.06h-2.52l-2.54 9.71h.56l2.4-9.17h1.68l2.39 9.17h.56l-2.53-9.71zm-.98 11.89h3.27v1.81h-3.27zm-3.84 0h3.27v1.81h-3.27zm-3.84-1.3h14.8v.75h-14.8zm11.53 1.3h3.27v1.81h-3.27zm-11.53 0h3.27v1.81h-3.27z"/><path d="M822.46 47.54v5.3h17v-5.3zm16.43 1.87v2.89H823v-4.18h15.89zM828.18 34.5h2.48v.83h-2.48zm3.05 0h2.52v.83h-2.52z" fill="#ddebf8"/><path d="M827.09 33.35v3.07h7.74v-3.07zm7.2 2.52h-6.66v-1.9h6.66zm-3.02-27.3l-.24-6.43h-.16l-.25 6.43h-.45v.8h1.56v-.8h-.46zm-1.44 1.4v2.58h2.23V9.97zm1.76 2h-1.29v-1.49h1.29zm-3.92 31.67l.87-3.33-.75.71-.88 3.34zm7.59 1.79l-.76-.72.69 2.65h.58zm-1.05-1.71l.76.72-.88-3.33-.75-.71zm-7.56 1.63l-.53 2h.58l.71-2.73zm7.21-5.24l-.82-3.13h-4.19l-.8 3.05.75-.71.47-1.8h3.35l.49 1.89zm-13.97 23.16l-1.4 3.05 2-1.54zm1.73 3.11a20.16 20.16 0 011.1-2.71l-1.63 1.29c.19.52.38 1.01.53 1.42zm-3.23.7h2.92l-.66-1.77zm2.23-4.92h2.84c-.21-.54-.42-1.12-.65-1.72zm.27 2.27l2.2-1.73h-2.83c.16.45.39 1.08.63 1.73zm2.37-4.34l.55 1.46 1.36-3zm3.52-2.67h3.61c-.43-.67-.88-1.39-1.35-2.14zm3.88-.59v-3.09l-1.22 1.16c.43.68.83 1.33 1.22 1.93zm-5.72 3.56a9.26 9.26 0 013.33-2.43h-2.22zM823 57.42h2.56c-.19-.49-.38-1-.58-1.55zm4.21-3.32l-1.79 1.42.51 1.38zm16.21 12.25c-.49-1.05-1-2.09-1.43-3.1q-.3.78-.57 1.53zm-16.21-12.96h-2.62c.21.54.4 1.08.6 1.59zm3 0h-1.76l.65 1zm-8.12 5.09l-1.32 2.88 1.84-1.46zm2.33-5.09zm.66 4.58h-2.61l.59 1.59zm-.87-4.16l-1.4 3.07 2-1.54q-.3-.75-.6-1.53zm4.53 1c-.23-.38-.47-.76-.72-1.15l-1.49 3.25zm7.93 3.74l1.38 3 .56-1.48zm4.94 4.15h-2.83l2.2 1.73c.23-.65.47-1.28.63-1.73zm-2.56-2.26c-.22.6-.43 1.18-.64 1.72h2.8zm-5.43-2.47a9.29 9.29 0 013.25 2.34c-.36-.8-.72-1.58-1.07-2.34zm-10.32 8.26h2.63a16.37 16.37 0 012.36-6.59c-2.08 1.09-3.85 3.42-4.99 6.59zm10.3-6.59a16.37 16.37 0 012.36 6.59h2.63c-1.14-3.17-2.92-5.5-4.99-6.59z" fill="#ddebf8"/><path d="M838.21 52.3h-14.49s-3.6 8-7.26 15.87h5.75c1.41-5.68 4.78-9.68 8.71-9.68s7.31 4 8.72 9.68h5.79c-3.64-7.89-7.22-15.87-7.22-15.87zm-7.1 5.66h-.3c-3.93.09-7.42 3.85-9 9.66h-4.52c3.08-6.66 6.08-13.27 6.76-14.78h13.79c.68 1.51 3.68 8.12 6.76 14.78h-4.52c-1.56-5.81-5.05-9.57-8.99-9.65z" fill="#ddebf8"/><path d="M832.89 55.28c-.47.75-.92 1.47-1.35 2.14h3.61zm8.24 6.1l-1.34-2.93c-.18.5-.36 1-.54 1.45zm-1.92 2.32a19.29 19.29 0 011.08 2.65l.52-1.39zm2 1.61l-.66 1.77h2.91zm-4.84-7.89h2.56l-2-1.55c-.18.54-.37 1.1-.56 1.55zm2.68-.59c-.53-1.17-1-2.19-1.35-3-.19.5-.37 1-.55 1.48zm-.24 2.72l.59-1.59h-2.61zm-1.51-6.16h-2.62l2 1.59c.22-.51.41-1.01.62-1.59zm-.8 2.13L834.58 54c.43.93.89 1.94 1.37 3zm-5.29-1.82v3.2l1.26-2zm2.23-.31h-1.75l1.1 1zm1.77 3.38l-1.39-3-.67 1.08zm-3.39-36.09l-2 2a1.5 1.5 0 010 .3.29.29 0 010 .09l.19.18 1.86-1.88a2 2 0 01-.05-.69zm-.24-4.01l-1.44 1.46v.39l.19.18 1.36-1.38a2.08 2.08 0 01-.11-.65z" fill="#ddebf8"/><path d="M831.9 23.24c-.07-.32-.15-.64-.21-1l-1.58-1.6a2.32 2.32 0 010 .7zm-.4-4.75a2.47 2.47 0 010-.61l-1.19-1.21a2.43 2.43 0 01-.09.65l1.23 1.26zm69.83 30.81v-1.33l-.46-.06v-.94a143.87 143.87 0 00-22.1-1.45c-.5 0-1.33-3.61-2.13-5.71l-2-.07c-13.47-.34-24 1.21-27.71 2.73l-.22 5.47a1.83 1.83 0 00-.47.07v1.28c0 .07 13.76.16 28 .16 13.21 0 27.1-.08 27.09-.15zm-53.44-1.43c-.49 0-.88 0-1.16.07l.1-2.33a2.53 2.53 0 01.55-1.52c.35-.35.66-.09.63.64zm3.78-.13l-3 .1.1-2.87a2.43 2.43 0 011.37-1.87c.89-.43 1.71-.11 1.68.79zm4.87-.1l-3.62.07.11-3.58a2.3 2.3 0 011.72-2 1.37 1.37 0 011.9 1.28zm5.76-.08l-3.62.05.09-4.1a2.19 2.19 0 011.77-2.05 1.55 1.55 0 011.84 1.62zm6.68 0h-4l.06-4.52a2.13 2.13 0 012-2.07 1.86 1.86 0 012 1.89zm2.71 0V42.9a2.1 2.1 0 014.2 0v4.66h-4.23zm-25.48 18.68l.11-4.9c.05-1.34.36-2.42.67-2.42s.54 1.08.49 2.42l-.11 4.9h.91l.07-4.31c.05-1.34.79-2.42 1.65-2.42s1.52 1.08 1.48 2.42l-.07 4.31h1.28v-4c0-1.34.86-2.43 1.82-2.43s1.7 1.16 1.7 2.46v4h2.21v-3.51a2.25 2.25 0 011.89-2.43c1 0 1.82 1.08 1.8 2.43v3.51h2.78v-3.22a2.28 2.28 0 012-2.43 2.22 2.22 0 012 2.43v3.22h2.79v-3.08a2.18 2.18 0 114.33 0v3.08h2.68v-3.22a2.22 2.22 0 012-2.43 2.28 2.28 0 012 2.43v3.22h2.78v-3.51c0-1.35.78-2.43 1.8-2.43a2.25 2.25 0 011.89 2.43v3.51h2.21v-4c0-1.34.72-2.43 1.68-2.43s1.78 1.09 1.82 2.43l.05 4h1.28l-.07-4.31c0-1.34.62-2.42 1.48-2.42s1.6 1.08 1.65 2.42l.07 4.31h.91l-.11-4.9c0-1.34.17-2.42.49-2.42s.62 1.08.67 2.42l.11 4.9h.16l-.22-7.51c-2.73.71-15.13 1.42-27.09 1.42-12.83 0-25.22-.8-28-1.52l-.22 7.61z" fill="#ddebf8"/><path d="M901.55 56.62l-.37.06-.28-6.75c-3.14.06-15.16.12-26.74.12-12.42 0-24.45-.07-27.59-.13l-.27 6.69-.37-.06v1.21c0 .77 13.85 1.81 28.28 1.81 13.46 0 27.47-.92 27.44-1.7zm-53.76-4l-.16 4.11c-.44 0-.82-.09-1.14-.13l.16-4c0-1.15.34-2.08.65-2.08s.53.99.49 2.14zm3.82 4.43c-1.17-.07-2.21-.15-3.09-.23l.16-4.2c0-1.15.76-2.08 1.61-2.08s1.51.93 1.47 2.08zm4.73.25l-3.46-.17.14-4.51a2 2 0 011.78-2.08 1.87 1.87 0 011.67 2.08zm5.86.2l-3.66-.11.11-4.77a2 2 0 011.85-2.08 1.92 1.92 0 011.78 2.08zm6.69.14l-3.94-.07.06-4.95a2.05 2.05 0 012-2.08 2 2 0 011.94 2.08zm5.28 0h-2.51v-5.05a2.13 2.13 0 014.26 0v5.05zm4.45 0v-5a2 2 0 011.94-2.08 2 2 0 012 2.08l.07 5zm6.69-.12l-.08-4.91a1.91 1.91 0 011.77-2.08 2 2 0 011.86 2.08l.11 4.8zm5.86-.19l-.13-4.72a1.87 1.87 0 011.67-2.08 2 2 0 011.78 2.08l.15 4.55c-1.08.11-2.24.17-3.43.22zm4.73-.24l-.15-4.48c0-1.15.62-2.08 1.47-2.08s1.57.93 1.61 2.08l.16 4.26c-.88.1-1.92.2-3.09.27zm4-.3l-.16-4.18c0-1.15.17-2.08.49-2.08s.6.93.65 2.08l.17 4.05zm-23.52-18.11c.36 0-.14-2.25-.88-2.3h-.44a.45.45 0 00-.13-.16c-.64-.48-2.74.15-3.12-.57a29.66 29.66 0 01-2-5.58c-11.32 1-19.37 4.7-22.77 7.93a1.44 1.44 0 01.16-.56c3.26-3.3 11.4-7.13 22.92-8-.24-.75-.47-1.22-.76-1.21-12.47 1.11-21.46 5.93-22.67 9.43-.15.42.33.48.33.48l-.13 3.09a1.12 1.12 0 00-.39.69v.37c2.74-1.62 13.54-3.62 27.64-3.62zm-23.58-1.07l-1.63.57v-1.55a1.46 1.46 0 01.85-1.27c.44-.15.79.16.78.71zm8.19-1.74l-2.11.35v-1.91a1.43 1.43 0 011.07-1.39.93.93 0 011 1zm49.55 27.61h-2.63a.62.62 0 00-.62.62v2.13h3.92V64.1a.62.62 0 00-.67-.62zm15.4 0h-2.63a.63.63 0 00-.63.62v2.13h3.88V64.1a.62.62 0 00-.62-.62zm-17.6-15.32h1.79v.53h-1.79zm15.52 0h1.79v.53h-1.79zm5.89 4.5h-25.54a.57.57 0 100 1.14h25.51a.57.57 0 000-1.14zm2.78-12.81c-13.81 2.61-16.85 2.51-31.07 0-.82-.15-1.28.41-1.08.9l1.12 2.78a1.78 1.78 0 001.6.75h27.79a1.8 1.8 0 001.6-.75l1.12-2.78c.2-.49-.26-1.06-1.08-.9zm-22.44 11.36v-2.24h-1.7v2.2zm15.51-.07v-2.17h-1.7v2.29zm-1.7 3.03h1.7v8.93h-1.7zm-15.51 0h1.7v8.93h-1.7zm-3.91-2.62l.85.58a3.19 3.19 0 001.2.16h20.93a3.19 3.19 0 001.2-.16l.85-.58c.15-.1-.2-.22-.81-.18a172.52 172.52 0 01-23.41 0c-.61-.03-.96.08-.81.18zm-1.38-6.67a1.88 1.88 0 001.33.5h25.15a1.88 1.88 0 001.33-.5h-27.8zm23.93 2.43l.42-1.49h-20.92l.45 1.53c.1.34.7.62 1.34.61h17.36c.65.01 1.25-.31 1.35-.65zM708.07 34.97c24.05 0 20.14-1 20.14-1s-9.81-1.45-14.61-4h-11.05c-4.24 2.9-14.61 4-14.61 4s-4.13 1 20.13 1zm13.43 8.42v-7.34c-3 .16-7.32.27-13.49.27s-10.36-.11-13.36-.25v7.31h6.78v-.5h-1.89v-.65l1-1h1.88l1 1v.33a3 3 0 00.75-.89 3.56 3.56 0 01.9-1.06h-1.14v-.64l1-1h2l1 1v.26h.5v-.26l1-1h2l1 1v.71h-1.22a4.5 4.5 0 011.12 1.15c.16.21.31.41.46.57v-.07l1-1.05h1.88l1 1v.68h-2a.66.66 0 010 .21v.28zm-22.47-.51h-3.9v-.67l1-1h1.88l1 1zm0-2.27h-3.9v-.71l.95-.95h2l1 1zm0-2.27h-3.9v-.75l.92-.91h2l1 1zm4.41 2.27h-3.9v-.64l1-1h2l1 1zm0-2.26h-3.9v-.73l.93-.93h2l.94 1zm4.41 0h-3.9v-.73l.93-.94h2l.93.94zm4.41 0h-3.9v-.71l.94-1h2l.92.93zm4.91-.69l1-1h2l.89.9v.76h-3.85zm0 2.31l1-1h2l.93.93v.73h-3.89zm0 2.31l1-1.06h1.88l1 1v.69h-3.84zm-4.41-4.63l1-1h2l.9.92v.75h-3.9zm0 3v-.68l1-1h2l.94.95v.72zm24.19 7.32s-9.06-.57-14.51-3.59h-8.23v1.84h-1a2.62 2.62 0 01-2.09-1 2.12 2.12 0 00-1.16-.77h-3.67a1.52 1.52 0 00-.87.65 2.61 2.61 0 01-2.37 1.15h-1.19v-1.8h-8.09c-4.46 2.58-14.51 3.58-14.51 3.58s7.36.89 29 .9c21.4-.11 28.69-.96 28.69-.96z" fill="#ddebf8"/><path d="M709.66 41.08h-3.12c-2.37 0-1.58 2.69-4.26 2.73v1.3h.74c2.38 0 1.67-1.85 3.73-1.85h2.7c2.06 0 1.86 1.86 3.73 1.86h.61v-1.35c-1.95-.13-1.82-2.69-4.13-2.69zm18.55 8.89h-40.27v5.29h-.45v11.25h.46v.05h.07v-8.52h1.82v8.52h2.19v-8.53h1.82v8.53h2.19v-8.53h1.82v8.53h3.35v-7.78h13.44v7.79h3.76v-8.54h1.8v8.54h2.19v-8.54h1.81v8.54h2.19v-8.54h1.81v8.48h.29V55.26h-.29zm-36.53 7.36h-2.74v-1.36l.33-.34h2l.41.41zm.62-2.1h-4v-.73l1-1h2l1 1zm0-2.09h-4v-.73l1-1h2l1 1zm3.87 4.19h-3v-1.16l.56-.56h2l.47.47zm.55-2.09h-4v-.72l1-1h2l1 1zm0-2.1h-4v-.73l1-1h2l1 1zm4.43 4.19h-3.52V56.1l.49-.48h2l1 1zm0-2.09h-4v-.73l1-1h2l1 1zm0-2.1h-4v-.73l1-1h2l1 1zm4.43 4.2h-4v-.73l1-1h2l1 1zm0-2.1h-4v-.73l1-1h2l1 1zm0-2.1h-4v-.73l1-1h2l1 1zm4.43 4.2h-4v-.73l1-1h2l1 1zm0-2.1h-4v-.73l1-1h2l1 1zm0-2.09h-4v-.72l1-1h2l1 1zm4.43 4.19h-4v-.73l1-1h2l1 1zm0-2.1h-4v-.73l1-1h2l1 1zm0-2.09h-4v-.73l1-1h2l1 1zm3.94 4.19h-3.53v-.73l1-1h2l.53.53zm.49-2.09h-4v-.73l1-1h2l1 1zm0-2.1h-4v-.73l1-1h2l1 1zm3.72 4.19h-2.75v-1.29l.42-.42h2l.32.31zm.71-2.09h-4v-.73l1-1h2l1 1zm0-2.1h-4v-.73l1-1h2l1 1zm3.78 4.19h-3v-1.07l.64-.64h2l.39.38zm-3-1.7zm3.67-.39h-4v-.73l1-1h2l1 1zm0-2.1h-4v-.73l1-1h2l1 1zm218.46-42.38V9.48c-.2.05-.36.38-.39.81a21 21 0 01-3.62-7.63 4.75 4.75 0 00-.13-1.39 4.14 4.14 0 00-.13 1.4 17.75 17.75 0 01-3.62 7.66c0-.44-.18-.79-.39-.84v1.94h8.28v-.66zm2.17 9.6l-2.71-4.24h-7.38l-2.71 4.24c-.1-.38-.28-.66-.48-.71v3h13.75v-3c-.2.05-.37.31-.47.71zm-2.33-1.67a.59.59 0 01.51.27l.48.94h-1.15l-.16-.94c-.03-.16.12-.27.32-.27zm-1.73-2a.49.49 0 01.47.27l.32.94h-1.14v-.94c-.02-.19.15-.3.35-.3zm-1.33 2.3a.38.38 0 01.41-.27.43.43 0 01.43.27l.19.94h-1.14zm-1.38-2a.4.4 0 01.42-.27.41.41 0 01.42.27l.15.94h-1.15zm-1.39 2a.43.43 0 01.43-.27.38.38 0 01.41.27l.12.94h-1.15zm-1-2a.5.5 0 01.47-.27c.2 0 .37.11.37.27v.94h-1.15zm-1.61 2a.59.59 0 01.51-.27c.2 0 .35.11.32.27l-.16.94h-1.15zm8.17-3.7v-3.1h-7.57v3.1zm-1.13-2.47a.34.34 0 01.67 0v1.76a.34.34 0 01-.67 0zm-1.5 0a.34.34 0 01.67 0v1.76a.34.34 0 01-.67 0zm-1.5 0a.34.34 0 01.67 0v1.76a.34.34 0 01-.67 0zm-1.5 0a.34.34 0 01.67 0v1.76a.34.34 0 01-.67 0zm-1.5 0a.34.34 0 01.67 0v1.76a.34.34 0 01-.67 0zm8.36 29.14v2.17a.41.41 0 01-.41.41.41.41 0 01-.41-.41v-2.17h-1v2.17a.41.41 0 01-.82 0v-2.17h-1v2.17a.41.41 0 01-.41.41.41.41 0 01-.41-.41v-2.17h-1v2.17a.41.41 0 01-.41.41.41.41 0 01-.41-.41v-2.17h-1v2.17a.41.41 0 01-.41.41.41.41 0 01-.41-.41v-2.17h-1v2.17a.41.41 0 01-.41.41.41.41 0 01-.41-.41v-2.17h-.55v4.38h11.11v-4.38zm-10.04-15.41v-1.51a.41.41 0 01.41-.41.42.42 0 01.41.41v1.51h1v-1.51a.42.42 0 01.41-.41.41.41 0 01.41.41v1.51h1v-1.51a.41.41 0 01.41-.41.42.42 0 01.41.41v1.51h1v-1.51a.42.42 0 01.41-.41.41.41 0 01.41.41v1.51h1v-1.51a.41.41 0 01.82 0v1.51h1v-1.51a.42.42 0 01.41-.41.41.41 0 01.41.41v1.51h.52v-3.13H936.3v3.13zm10.56 36.99V49.43h-11.11v14.12zm-1.29-12.5a.41.41 0 01.41-.41.41.41 0 01.41.41v10.29a.41.41 0 01-.41.41.41.41 0 01-.41-.41zm-1.85 0a.41.41 0 01.41-.41.41.41 0 01.41.41v10.29a.41.41 0 01-.41.41.41.41 0 01-.41-.41zm-1.84 0a.41.41 0 01.41-.41.41.41 0 01.41.41v10.29a.41.41 0 01-.41.41.41.41 0 01-.41-.41zm-1.85 0a.41.41 0 11.82 0v10.29a.41.41 0 11-.82 0zm-1.84 0a.41.41 0 01.41-.41.41.41 0 01.41.41v10.29a.41.41 0 01-.41.41.41.41 0 01-.41-.41zm-1.85 0a.41.41 0 11.82 0v10.29a.41.41 0 11-.82 0zm-1.52-4.02h12.98v1.61h-12.98zm0 17.48h12.98v1.61h-12.98zm-.35-37.19v13.65h13.68V27.32zm6.73 11a4.17 4.17 0 114.17-4.17 4.17 4.17 0 01-4.17 4.15z" fill="#ddebf8"/><path d="M942.14 34.53v.13l-.4-.13h-.15v-.05l-.22-.07 1.23-2.88.22.07-.54 2.42 3.15.28v-.17a3.56 3.56 0 100 .43zM743.88 25.1a1.28 1.28 0 01-1.28 1.27 1.27 1.27 0 01-1.28-1.27v-1.28a1.27 1.27 0 011.28-1.27 1.28 1.28 0 011.28 1.27z" fill="#ddebf8"/><path fill="#ddebf8" d="M741.9 25.37h1.4v2.83h-1.4zm5.16 22.67a4.75 4.75 0 00-2.36-1.66v-19l1.67.19z"/><path d="M740.73 27.1a4.92 4.92 0 01.66-.12v-.88a1.54 1.54 0 01-.34-1v-1.4a1.55 1.55 0 013.1 0v1.4a1.54 1.54 0 01-.34 1v.87a4.75 4.75 0 01.65.12h.08l-.13-3.57a1.83 1.83 0 00-3.63 0l-.13 3.57zm3.48 1.66v-1.35a8.59 8.59 0 00-3.3 0v1.35a.58.58 0 00.58.58h2.14a.58.58 0 00.58-.58z" fill="#ddebf8"/><path d="M743.92 31.87a17.67 17.67 0 01-6.49-1.18 10.21 10.21 0 01-4.12-2.85l7.2-.48v1.45a.91.91 0 00.91.91h2.35a1 1 0 00.48-.13v2.28z" fill="#ddebf8"/><path d="M744.21 46.23a21.41 21.41 0 00-3-.62c-2.07-.33-3.86-.61-3.86-1.93v-9.99c-1.21-1.16-4.81-1.29-6.38-1.3-1.63-2-2-3.39-2-4.23l3.79-.25a8.86 8.86 0 002.49 2.21 16.59 16.59 0 008.63 2.21h.33zm2.54-18.59l.22 6.19a16 16 0 016.92-1.48c1.62-2 2-3.39 2-4.23a82 82 0 01-9.14-.48zm-18.07.48l-.5-.05c-.43 0-.45-.79-1.1-.74l-1.5.07c-.1 0-.22.14-.29.32h-1.18c-.21 0-.31.37-.25.74s.22.58.38.61l2.35.5a1.22 1.22 0 001-.34l1.34.13a4.26 4.26 0 01-.25-1.24zm27.58 0l.5-.05c.43 0 .45-.79 1.11-.74l1.5.07c.1 0 .22.14.28.32h1.18c.21 0 .31.37.25.74s-.21.58-.38.61l-2.35.5a1.23 1.23 0 01-1-.34l-1.33.13a4.54 4.54 0 00.24-1.24z" fill="#ddebf8"/><path d="M747.32 57.47l-.32-8.95-.2-.29a4.38 4.38 0 00-2.22-1.54l-.2-.08-.22-.07a22.66 22.66 0 00-3-.61 9.61 9.61 0 01-3.34-.89l-.44 12.43zm-11.3.57h12.9v1.74h-12.9zm-.83 2.48h14.57v5.68h-14.57zM598.87 35.97h-41.6v1.86a.65.65 0 00.65.65h40.29a.65.65 0 00.65-.65zm-43.86-1.07h46.13a.65.65 0 00.64-.65v-1.1l-23.71-8.3-23.71 8.3v1.1a.65.65 0 00.65.65zm2.26 24.2v1.14h41.6V59.1a.65.65 0 00-.65-.65h-40.3a.65.65 0 00-.65.65zm44.74 2.77a.65.65 0 00-.65-.65h-46.58a.65.65 0 00-.65.65v1.1h47.88zm2.49 2.38h-52.86a.65.65 0 00-.65.64v1.15h54.16v-1.15a.65.65 0 00-.65-.64zm-46.52-7.22v.13h4v-.13a1.26 1.26 0 00-.94-1.22V41.24a1.27 1.27 0 00.94-1.23v-.6h-4v.6a1.27 1.27 0 00.94 1.23v14.57a1.26 1.26 0 00-.94 1.22zm5.15 0v.13h4v-.13a1.25 1.25 0 00-1-1.22V41.24a1.27 1.27 0 001-1.23v-.6h-4v.6a1.27 1.27 0 00.95 1.23v14.57a1.25 1.25 0 00-.95 1.22zm5.16 0v.13h4v-.13a1.26 1.26 0 00-.94-1.22V41.24a1.27 1.27 0 00.94-1.23v-.6h-4v.6a1.27 1.27 0 00.94 1.23v14.57a1.26 1.26 0 00-.94 1.22zm5.15 0v.13h4v-.13a1.27 1.27 0 00-1-1.22V41.24a1.28 1.28 0 001-1.23v-.6h-4v.6a1.27 1.27 0 001 1.23v14.57a1.25 1.25 0 00-1 1.22zm5.15 0v.13h4v-.13a1.25 1.25 0 00-1-1.22V41.24a1.27 1.27 0 001-1.23v-.6h-4v.6a1.28 1.28 0 00.95 1.23v14.57a1.27 1.27 0 00-.95 1.22zm5.16 0v.13h4v-.13a1.27 1.27 0 00-1-1.22V41.24a1.28 1.28 0 001-1.23v-.6h-4v.6a1.27 1.27 0 001 1.23v14.57a1.25 1.25 0 00-1 1.22zm5.15 0v.13h4v-.13a1.25 1.25 0 00-1-1.22V41.24a1.27 1.27 0 001-1.23v-.6h-4v.6a1.27 1.27 0 001 1.23v14.57a1.25 1.25 0 00-1 1.22zm5.16 0v.13h4v-.13a1.26 1.26 0 00-.94-1.22V41.24a1.27 1.27 0 00.94-1.23v-.6h-4v.6a1.27 1.27 0 00.94 1.23v14.57a1.26 1.26 0 00-.94 1.22z" fill="#ddebf8"/><path d="M651.45 15.37l-24.94 34.07-14.69-20-15.49 21.21c.07.34.12.67.17 1l15.33-21 .8 1.1 8.61 24.9-7 9.57H589.6c-.42.26-.87.5-1.32.72h100.87zm10 28.88h-4.36v-3.83h3zm-1.54-4.28h-6.44v-3.82h5.12zm-10 .5h6.76v3.83h-6.76zm-3.57-.51v-3.82h6.75v3.82zm10.7-8.15h.05l1.32 3.82h-1.37zm-29.73 17.76h.28v3.83h-3.07zm11.12 8.16h-6.75v-3.82h6.75zm3.55.51v3.82h-6.77v-3.82zm-7.12 0v3.82h-6.76v-3.82zm-.15-4.84h-6.76v-3.83h6.76zm-3.4.51v3.82h-6.75V53.9zm-7.17 0v3.83h-2.84zm-3.16 4.33h6.76v3.82h-6.76zm-.36.49v3.33h-2.41zm-2.78 3.8h28.84v-.46h-4.34v-3.82h5.87v-.51h-9.44v-3.82h4.81a3 3 0 010-.51h-8.5v-3.82h11.93a2.22 2.22 0 010-.51h-19.28l23.76-32.45.8 1.1 4.67 13.54h-7.5v.51h7.27v3.82H642v.51h4v3.82h-4v.51h7.61v3.82h-3.76v.51h15.78l7.38 21.44H615.2zm387.42-15.83h-10.55v-5.68l3.37 1.37h3.88l3.3-1.34zm-16.9 1.53l-.05.26h23.32l-.05-.26a1.33 1.33 0 00-1.34-.89H989.7a1.34 1.34 0 00-1.34.89zm-2.5-7.56c.77-9.67 7.23-14.65 9.76-14.85a22 22 0 012.56-.22h.46l-.25.44 1 3.72h1.37l1-3.72-.24-.43h.37a22 22 0 012.55.22c2.54.2 9 5.18 9.77 14.84.21 2.53-4.47 3.54-4 6h-.22c-.66-2.5 3.93-3.51 3.51-6a21 21 0 00-7.62-13.33 4 4 0 01.07.67v3.76a1.47 1.47 0 011.28-.48c.92.16 1.47 1.37 1.24 2.7s-1.18 2.28-2.1 2.11a1.1 1.1 0 01-.42-.17v2.7a3 3 0 01-.6 1.83l-3.43 1.4h-3.71l-3.43-1.39a3 3 0 01-.6-1.84v-2.57l-.12.05c-.92.16-1.86-.79-2.1-2.12s.32-2.54 1.24-2.7a1.36 1.36 0 011 .23v-3.55a4 4 0 01.06-.67 21 21 0 00-7.61 13.34c-.42 2.53 4.17 3.53 3.51 6h-.22c.39-2.44-4.29-3.44-4.08-5.97zm16.43-2.4a8.81 8.81 0 01-2.31.27 11 11 0 01-2.39-.27 2.87 2.87 0 004.7 0zm0 0a7.1 7.1 0 00-4.7 0s1.32-.16 2.32-.16a18.88 18.88 0 012.33.16zm-1.48-4.6c.69.14 2.73.54 4-.21.76-2.25-1.71-3.17-3.56-2.5-.53.18-.53 1.73-.44 2.7zm-2.08 3.26h2.48l-1.24-3.55zm-3.65-4.15a3.17 3.17 0 01.18.62.28.28 0 010 .09c1.29.71 3.27.32 4 .18.09-1 .08-2.52-.46-2.71-1.67-.61-3.81.07-3.72 1.81zm11.32 6.26v.76a1.34 1.34 0 01-.07.18v.08a1.08 1.08 0 01-.08.19v.05l-.1.19-.12.18v6h3.58c-.31-1.52.93-2.61 1.9-3.46s1.78-1.54 1.62-2.49a20.87 20.87 0 00-6.47-12.22v2.27a1.81 1.81 0 01.51-.08h.27a1.8 1.8 0 011 .58 2.3 2.3 0 01.43.65 3.63 3.63 0 01.23 2.11 2.8 2.8 0 01-2.42 2.57h-.09v2.3c0 .1-.19.07-.19.13zm-12.19 7.66v-6.12a3.24 3.24 0 01-.38-.88v-.05a3.56 3.56 0 01-.1-.47.19.19 0 010-.08 3.88 3.88 0 010-.48v-2a2.89 2.89 0 01-2.21-2.56 5.62 5.62 0 01-.06-.56 3.57 3.57 0 01.28-1.55 2 2 0 011.45-1.22 1.55 1.55 0 01.31 0h.22v-2.2a20.91 20.91 0 00-6.47 12.21c-.15 1 .71 1.7 1.63 2.5s2.21 1.93 1.9 3.45zm6.29-17.39l.57-3.72-.48-1.45h-1l-.49 1.45.57 3.72zm-5.58 32.88h10.55v-2.06h-10.55zm18-3.28h.77l-.3-1.52h-26.85l-.33 1.58h1.13a1.06 1.06 0 01.91.52h.2a1.85 1.85 0 000 .55v7h2.92l-.46-6.72a1.07 1.07 0 00-1.07-1.07h-1.15a1.06 1.06 0 01.71-.27h1.15a1.08 1.08 0 01.92.52h.2a2.26 2.26 0 000 .54v7h2.93l-.46-6.72a1.07 1.07 0 00-1.07-1.07h-1.15a1.06 1.06 0 01.71-.27h1.15a1.08 1.08 0 01.92.52h11a1.08 1.08 0 01.92-.54h1.15a1.08 1.08 0 01.72.28h-1.15a1.07 1.07 0 00-1.07 1.07l-.46 6.73h2.92v-7a.81.81 0 01.06-.31 1.51 1.51 0 00-.11-.22h.2a1.08 1.08 0 01.92-.54h1.15a1.08 1.08 0 01.72.28h-1.16a1.07 1.07 0 00-1.07 1.07l-.46 6.72h2.93v-7a1.06 1.06 0 010-.31.65.65 0 00-.11-.22h.21a1.05 1.05 0 01.92-.6zm1.83.28h-1.12a1.07 1.07 0 00-1.07 1.07l-.46 6.72h2.93v-7a1.06 1.06 0 01.05-.31 1 1 0 00-.32-.48zm3.56.8a1 1 0 00-.37-.8h-1.13a1.07 1.07 0 00-1.07 1.07l-.46 6.72h3zm-23.43 4.98h10.55v-2.1h-10.55zm-8.22-5.73h-1.13a1 1 0 00-.26.8v7h2.94l-.47-6.72a1.07 1.07 0 00-1.08-1.12zm0-2.49h26.58l-.41-2.06h-25.76zm.55-2.78h25.49l-.41-2.06h-24.68zm-3.74 5.23h-1.15a1.07 1.07 0 00-.36.8v7h3l-.46-6.72a1.07 1.07 0 00-1.01-1.08zm11.39 7.7h10.55v-1.29h-10.55zm-7.11-15.67h24.46l-.4-2.06h-23.6z" fill="#ddebf8"/><path fill="#ddebf8" d="M0 64.99h1027.16v22.12H0z"/></svg>