<svg xmlns="http://www.w3.org/2000/svg" width="344" height="80" viewBox="0 0 344 80"><path id="_" data-name="===" d="M1507.34 2486.54c.23.01.46 0 .68 0 1.6.01 3.21 0 4.81 0q10.98 0 21.95-.01h35.03q22.125 0 44.26-.01 24.6 0 49.2-.01h50.29q23.775-.015 47.53-.01 20.235 0 40.46-.01h29.55q7.335 0 14.66-.01c.29 0 .58.02.87 0 2.99-.21 3.13-3.75.44-4.34a1.254 1.254 0 00-.41-.07.964.964 0 00-.24 0h-9.14q-12.795.015-25.58.01h-37.62q-22.86.015-45.72.01-25 0-50 .01-24.975 0-49.95.01h-46.06q-19.1.015-38.19.01h-26.32c-3.45 0-7.02-.24-10.46.01-3.12.22-3.18 4.17-.04 4.41zm.01 25.15c.22.01.45-.01.67 0 1.61.01 3.21 0 4.81 0q10.98-.015 21.96-.01h35.02q22.14-.015 44.26-.01 24.615 0 49.21-.01 25.14 0 50.29-.01h47.53q20.22-.015 40.45-.01h29.56q7.335-.015 14.66-.01c.28 0 .58.02.86 0 3-.21 3.14-3.75.45-4.34a1.3 1.3 0 00-.41-.07.96.96 0 00-.24 0h-9.14q-12.8 0-25.59.01h-37.61q-22.86 0-45.72.01-25 0-50.01.01h-49.94q-23.04.015-46.06.01-19.095 0-38.19.01h-26.32c-3.45 0-7.03-.24-10.47 0-3.12.23-3.17 4.18-.03 4.42zm0 25.14c.22.02.46 0 .68 0 1.6.02 3.21 0 4.81 0h21.95q17.52 0 35.03-.01h44.26q24.6 0 49.2-.01 25.155 0 50.29-.01 23.775 0 47.53-.01h40.46q14.775 0 29.55-.01h14.66c.29 0 .58.02.87 0 2.99-.21 3.13-3.75.44-4.34a1.254 1.254 0 00-.41-.07.964.964 0 00-.24 0h-34.72q-18.81.015-37.62.01-22.86 0-45.72.01-25 0-50 .01h-49.95q-23.025.015-46.06.01-19.095 0-38.19.01h-26.32c-3.45 0-7.02-.24-10.46 0-3.12.23-3.18 4.18-.04 4.41zm339.74 20.76a1.07 1.07 0 00-.41-.07.96.96 0 00-.24 0h-34.73q-18.81 0-37.62.01-22.86 0-45.72.01h-50q-24.96.015-49.94.01-23.04 0-46.06.01h-38.19q-13.155.015-26.32.01c-3.45 0-7.03-.25-10.47 0-3.12.22-3.17 4.18-.03 4.41.22.02.45 0 .67 0 1.61.02 3.21 0 4.81 0h21.96q17.505 0 35.02-.01h44.26q24.615-.015 49.21-.01 25.14 0 50.29-.01 23.76 0 47.53-.01h40.45q14.79-.015 29.56-.01h14.66c.28 0 .58.02.86 0 3-.21 3.14-3.75.45-4.34z" transform="translate(-1505 -2482)" fill="#c5def5" fill-rule="evenodd"/></svg>