<svg xmlns="http://www.w3.org/2000/svg" width="256.781" height="40.53" viewBox="0 0 256.781 40.53"><path id="_" data-name="□□□" d="M111.163 2154.05H73.828a1.8 1.8 0 00-1.779 1.76v37.02a1.8 1.8 0 001.779 1.76h37.335a1.659 1.659 0 001.2-.47l.061-.06.032-.03a1.616 1.616 0 00.483-1.2v-37.02a1.8 1.8 0 00-1.776-1.76zm-1.78 14.29v22.72H75.608v-33.48h33.775v10.76zm18.418-14.29a1.8 1.8 0 00-1.779 1.76v37.02a1.8 1.8 0 001.779 1.76h37.335a1.659 1.659 0 001.2-.47l.061-.06.033-.03a1.619 1.619 0 00.482-1.2v-37.02a1.8 1.8 0 00-1.779-1.76H127.8zm32.745 3.53h2.81v33.48h-33.775v-33.48h30.965zm21.228 37.01h37.335a1.659 1.659 0 001.2-.47c.022-.02.04-.04.061-.06l.033-.03a1.619 1.619 0 00.482-1.2v-37.02a1.8 1.8 0 00-1.779-1.76h-37.332a1.8 1.8 0 00-1.779 1.76v37.02a1.8 1.8 0 001.779 1.76zm1.78-14.29v-22.72h33.775v33.48h-33.775v-10.76zm89.528-26.25h-37.335a1.8 1.8 0 00-1.779 1.76v37.02a1.8 1.8 0 001.779 1.76h37.335a1.659 1.659 0 001.2-.47c.022-.02.04-.04.061-.06l.033-.03a1.616 1.616 0 00.482-1.2v-37.02a1.8 1.8 0 00-1.776-1.76zm-1.78 14.29v22.72h-33.775v-33.48H271.3v10.76zm55.753-14.29H289.72a1.8 1.8 0 00-1.779 1.76v37.02a1.8 1.8 0 001.779 1.76h37.335a1.663 1.663 0 001.2-.47l.06-.06.033-.03a1.616 1.616 0 00.482-1.2v-37.02a1.8 1.8 0 00-1.775-1.76zm-1.779 14.29v22.72H291.5v-33.48h33.776v10.76z" transform="translate(-72.063 -2154.06)" fill="#c5def5" fill-rule="evenodd"/></svg>