<svg width="64" height="64" viewBox="0 0 64 64" fill="none" xmlns="http://www.w3.org/2000/svg">
<path d="M27.6125 11.6919C29.444 8.54671 34.0227 8.54671 35.8542 11.6919L57.4888 48.8446C59.3203 51.9897 57.0309 55.9212 53.3679 55.9212H10.0988C6.43584 55.9212 4.14648 51.9897 5.97797 48.8445L27.6125 11.6919Z" fill="#E95858"/>
<path fill-rule="evenodd" clip-rule="evenodd" d="M34.486 26.8399C34.5214 25.928 33.7796 25.1724 32.8591 25.1829L30.1054 25.2143C29.185 25.2248 28.4609 25.9972 28.5174 26.9081L29.2633 38.9229C29.316 39.7716 30.0307 40.4303 30.8884 40.4205L32.4296 40.4029C33.2872 40.3932 33.9865 39.7183 34.0194 38.8685L34.486 26.8399ZM34.4636 44.5345C34.6384 45.5053 33.8922 46.3993 32.8976 46.4107L30.5599 46.4374C29.5653 46.4487 28.7985 45.5719 28.9507 44.5974L29.1655 43.2223C29.2859 42.4514 29.9508 41.8798 30.7376 41.8708L32.6139 41.8494C33.4007 41.8404 34.0787 42.3967 34.217 43.1646L34.4636 44.5345Z" fill="white"/>
</svg>
