<svg id="Layer_1" data-name="Layer 1" xmlns="http://www.w3.org/2000/svg" viewBox="0 0 410 410"><title>08-qrcode</title><g id="quickmark"><rect width="10" height="10" fill="#fff"/><rect x="10" width="10" height="10" fill="#fff"/><rect x="20" width="10" height="10" fill="#fff"/><rect x="30" width="10" height="10" fill="#fff"/><rect x="40" width="10" height="10" fill="#fff"/><rect x="50" width="10" height="10" fill="#fff"/><rect x="60" width="10" height="10" fill="#fff"/><rect x="90" width="10" height="10" fill="#fff"/><rect x="100" width="10" height="10" fill="#fff"/><rect x="140" width="10" height="10" fill="#fff"/><rect x="180" width="10" height="10" fill="#fff"/><rect x="210" width="10" height="10" fill="#fff"/><rect x="250" width="10" height="10" fill="#fff"/><rect x="260" width="10" height="10" fill="#fff"/><rect x="290" width="10" height="10" fill="#fff"/><rect x="300" width="10" height="10" fill="#fff"/><rect x="340" width="10" height="10" fill="#fff"/><rect x="350" width="10" height="10" fill="#fff"/><rect x="360" width="10" height="10" fill="#fff"/><rect x="370" width="10" height="10" fill="#fff"/><rect x="380" width="10" height="10" fill="#fff"/><rect x="390" width="10" height="10" fill="#fff"/><rect x="400" width="10" height="10" fill="#fff"/><rect y="10" width="10" height="10" fill="#fff"/><rect x="60" y="10" width="10" height="10" fill="#fff"/><rect x="80" y="10" width="10" height="10" fill="#fff"/><rect x="90" y="10" width="10" height="10" fill="#fff"/><rect x="140" y="10" width="10" height="10" fill="#fff"/><rect x="150" y="10" width="10" height="10" fill="#fff"/><rect x="160" y="10" width="10" height="10" fill="#fff"/><rect x="170" y="10" width="10" height="10" fill="#fff"/><rect x="280" y="10" width="10" height="10" fill="#fff"/><rect x="290" y="10" width="10" height="10" fill="#fff"/><rect x="300" y="10" width="10" height="10" fill="#fff"/><rect x="340" y="10" width="10" height="10" fill="#fff"/><rect x="400" y="10" width="10" height="10" fill="#fff"/><rect y="20" width="10" height="10" fill="#fff"/><rect x="20" y="20" width="10" height="10" fill="#fff"/><rect x="30" y="20" width="10" height="10" fill="#fff"/><rect x="40" y="20" width="10" height="10" fill="#fff"/><rect x="60" y="20" width="10" height="10" fill="#fff"/><rect x="80" y="20" width="10" height="10" fill="#fff"/><rect x="170" y="20" width="10" height="10" fill="#fff"/><rect x="180" y="20" width="10" height="10" fill="#fff"/><rect x="210" y="20" width="10" height="10" fill="#fff"/><rect x="220" y="20" width="10" height="10" fill="#fff"/><rect x="280" y="20" width="10" height="10" fill="#fff"/><rect x="300" y="20" width="10" height="10" fill="#fff"/><rect x="320" y="20" width="10" height="10" fill="#fff"/><rect x="340" y="20" width="10" height="10" fill="#fff"/><rect x="360" y="20" width="10" height="10" fill="#fff"/><rect x="370" y="20" width="10" height="10" fill="#fff"/><rect x="380" y="20" width="10" height="10" fill="#fff"/><rect x="400" y="20" width="10" height="10" fill="#fff"/><rect y="30" width="10" height="10" fill="#fff"/><rect x="20" y="30" width="10" height="10" fill="#fff"/><rect x="30" y="30" width="10" height="10" fill="#fff"/><rect x="40" y="30" width="10" height="10" fill="#fff"/><rect x="60" y="30" width="10" height="10" fill="#fff"/><rect x="80" y="30" width="10" height="10" fill="#fff"/><rect x="110" y="30" width="10" height="10" fill="#fff"/><rect x="120" y="30" width="10" height="10" fill="#fff"/><rect x="130" y="30" width="10" height="10" fill="#fff"/><rect x="140" y="30" width="10" height="10" fill="#fff"/><rect x="200" y="30" width="10" height="10" fill="#fff"/><rect x="220" y="30" width="10" height="10" fill="#fff"/><rect x="240" y="30" width="10" height="10" fill="#fff"/><rect x="250" y="30" width="10" height="10" fill="#fff"/><rect x="270" y="30" width="10" height="10" fill="#fff"/><rect x="280" y="30" width="10" height="10" fill="#fff"/><rect x="290" y="30" width="10" height="10" fill="#fff"/><rect x="340" y="30" width="10" height="10" fill="#fff"/><rect x="360" y="30" width="10" height="10" fill="#fff"/><rect x="370" y="30" width="10" height="10" fill="#fff"/><rect x="380" y="30" width="10" height="10" fill="#fff"/><rect x="400" y="30" width="10" height="10" fill="#fff"/><rect y="40" width="10" height="10" fill="#fff"/><rect x="20" y="40" width="10" height="10" fill="#fff"/><rect x="30" y="40" width="10" height="10" fill="#fff"/><rect x="40" y="40" width="10" height="10" fill="#fff"/><rect x="60" y="40" width="10" height="10" fill="#fff"/><rect x="90" y="40" width="10" height="10" fill="#fff"/><rect x="130" y="40" width="10" height="10" fill="#fff"/><rect x="140" y="40" width="10" height="10" fill="#fff"/><rect x="160" y="40" width="10" height="10" fill="#fff"/><rect x="180" y="40" width="10" height="10" fill="#fff"/><rect x="190" y="40" width="10" height="10" fill="#fff"/><rect x="200" y="40" width="10" height="10" fill="#fff"/><rect x="220" y="40" width="10" height="10" fill="#fff"/><rect x="230" y="40" width="10" height="10" fill="#fff"/><rect x="260" y="40" width="10" height="10" fill="#fff"/><rect x="280" y="40" width="10" height="10" fill="#fff"/><rect x="290" y="40" width="10" height="10" fill="#fff"/><rect x="300" y="40" width="10" height="10" fill="#fff"/><rect x="310" y="40" width="10" height="10" fill="#fff"/><rect x="320" y="40" width="10" height="10" fill="#fff"/><rect x="340" y="40" width="10" height="10" fill="#fff"/><rect x="360" y="40" width="10" height="10" fill="#fff"/><rect x="370" y="40" width="10" height="10" fill="#fff"/><rect x="380" y="40" width="10" height="10" fill="#fff"/><rect x="400" y="40" width="10" height="10" fill="#fff"/><rect y="50" width="10" height="10" fill="#fff"/><rect x="60" y="50" width="10" height="10" fill="#fff"/><rect x="90" y="50" width="10" height="10" fill="#fff"/><rect x="100" y="50" width="10" height="10" fill="#fff"/><rect x="150" y="50" width="10" height="10" fill="#fff"/><rect x="200" y="50" width="10" height="10" fill="#fff"/><rect x="210" y="50" width="10" height="10" fill="#fff"/><rect x="220" y="50" width="10" height="10" fill="#fff"/><rect x="260" y="50" width="10" height="10" fill="#fff"/><rect x="280" y="50" width="10" height="10" fill="#fff"/><rect x="340" y="50" width="10" height="10" fill="#fff"/><rect x="400" y="50" width="10" height="10" fill="#fff"/><rect y="60" width="10" height="10" fill="#fff"/><rect x="10" y="60" width="10" height="10" fill="#fff"/><rect x="20" y="60" width="10" height="10" fill="#fff"/><rect x="30" y="60" width="10" height="10" fill="#fff"/><rect x="40" y="60" width="10" height="10" fill="#fff"/><rect x="50" y="60" width="10" height="10" fill="#fff"/><rect x="60" y="60" width="10" height="10" fill="#fff"/><rect x="80" y="60" width="10" height="10" fill="#fff"/><rect x="100" y="60" width="10" height="10" fill="#fff"/><rect x="120" y="60" width="10" height="10" fill="#fff"/><rect x="140" y="60" width="10" height="10" fill="#fff"/><rect x="160" y="60" width="10" height="10" fill="#fff"/><rect x="180" y="60" width="10" height="10" fill="#fff"/><rect x="200" y="60" width="10" height="10" fill="#fff"/><rect x="220" y="60" width="10" height="10" fill="#fff"/><rect x="240" y="60" width="10" height="10" fill="#fff"/><rect x="260" y="60" width="10" height="10" fill="#fff"/><rect x="280" y="60" width="10" height="10" fill="#fff"/><rect x="300" y="60" width="10" height="10" fill="#fff"/><rect x="320" y="60" width="10" height="10" fill="#fff"/><rect x="340" y="60" width="10" height="10" fill="#fff"/><rect x="350" y="60" width="10" height="10" fill="#fff"/><rect x="360" y="60" width="10" height="10" fill="#fff"/><rect x="370" y="60" width="10" height="10" fill="#fff"/><rect x="380" y="60" width="10" height="10" fill="#fff"/><rect x="390" y="60" width="10" height="10" fill="#fff"/><rect x="400" y="60" width="10" height="10" fill="#fff"/><rect x="80" y="70" width="10" height="10" fill="#fff"/><rect x="100" y="70" width="10" height="10" fill="#fff"/><rect x="110" y="70" width="10" height="10" fill="#fff"/><rect x="140" y="70" width="10" height="10" fill="#fff"/><rect x="180" y="70" width="10" height="10" fill="#fff"/><rect x="190" y="70" width="10" height="10" fill="#fff"/><rect x="200" y="70" width="10" height="10" fill="#fff"/><rect x="240" y="70" width="10" height="10" fill="#fff"/><rect x="260" y="70" width="10" height="10" fill="#fff"/><rect x="320" y="70" width="10" height="10" fill="#fff"/><rect y="80" width="10" height="10" fill="#fff"/><rect x="60" y="80" width="10" height="10" fill="#fff"/><rect x="80" y="80" width="10" height="10" fill="#fff"/><rect x="90" y="80" width="10" height="10" fill="#fff"/><rect x="170" y="80" width="10" height="10" fill="#fff"/><rect x="190" y="80" width="10" height="10" fill="#fff"/><rect x="200" y="80" width="10" height="10" fill="#fff"/><rect x="220" y="80" width="10" height="10" fill="#fff"/><rect x="240" y="80" width="10" height="10" fill="#fff"/><rect x="250" y="80" width="10" height="10" fill="#fff"/><rect x="260" y="80" width="10" height="10" fill="#fff"/><rect x="270" y="80" width="10" height="10" fill="#fff"/><rect x="290" y="80" width="10" height="10" fill="#fff"/><rect x="330" y="80" width="10" height="10" fill="#fff"/><rect x="340" y="80" width="10" height="10" fill="#fff"/><rect x="370" y="80" width="10" height="10" fill="#fff"/><rect x="380" y="80" width="10" height="10" fill="#fff"/><rect x="390" y="80" width="10" height="10" fill="#fff"/><rect x="10" y="90" width="10" height="10" fill="#fff"/><rect x="20" y="90" width="10" height="10" fill="#fff"/><rect x="30" y="90" width="10" height="10" fill="#fff"/><rect x="70" y="90" width="10" height="10" fill="#fff"/><rect x="80" y="90" width="10" height="10" fill="#fff"/><rect x="90" y="90" width="10" height="10" fill="#fff"/><rect x="110" y="90" width="10" height="10" fill="#fff"/><rect x="140" y="90" width="10" height="10" fill="#fff"/><rect x="180" y="90" width="10" height="10" fill="#fff"/><rect x="190" y="90" width="10" height="10" fill="#fff"/><rect x="210" y="90" width="10" height="10" fill="#fff"/><rect x="230" y="90" width="10" height="10" fill="#fff"/><rect x="240" y="90" width="10" height="10" fill="#fff"/><rect x="250" y="90" width="10" height="10" fill="#fff"/><rect x="260" y="90" width="10" height="10" fill="#fff"/><rect x="270" y="90" width="10" height="10" fill="#fff"/><rect x="300" y="90" width="10" height="10" fill="#fff"/><rect x="310" y="90" width="10" height="10" fill="#fff"/><rect x="360" y="90" width="10" height="10" fill="#fff"/><rect x="390" y="90" width="10" height="10" fill="#fff"/><rect x="30" y="100" width="10" height="10" fill="#fff"/><rect x="60" y="100" width="10" height="10" fill="#fff"/><rect x="70" y="100" width="10" height="10" fill="#fff"/><rect x="130" y="100" width="10" height="10" fill="#fff"/><rect x="140" y="100" width="10" height="10" fill="#fff"/><rect x="150" y="100" width="10" height="10" fill="#fff"/><rect x="170" y="100" width="10" height="10" fill="#fff"/><rect x="180" y="100" width="10" height="10" fill="#fff"/><rect x="220" y="100" width="10" height="10" fill="#fff"/><rect x="250" y="100" width="10" height="10" fill="#fff"/><rect x="260" y="100" width="10" height="10" fill="#fff"/><rect x="270" y="100" width="10" height="10" fill="#fff"/><rect x="290" y="100" width="10" height="10" fill="#fff"/><rect x="320" y="100" width="10" height="10" fill="#fff"/><rect x="330" y="100" width="10" height="10" fill="#fff"/><rect x="350" y="100" width="10" height="10" fill="#fff"/><rect y="110" width="10" height="10" fill="#fff"/><rect x="20" y="110" width="10" height="10" fill="#fff"/><rect x="50" y="110" width="10" height="10" fill="#fff"/><rect x="100" y="110" width="10" height="10" fill="#fff"/><rect x="130" y="110" width="10" height="10" fill="#fff"/><rect x="140" y="110" width="10" height="10" fill="#fff"/><rect x="150" y="110" width="10" height="10" fill="#fff"/><rect x="180" y="110" width="10" height="10" fill="#fff"/><rect x="190" y="110" width="10" height="10" fill="#fff"/><rect x="200" y="110" width="10" height="10" fill="#fff"/><rect x="230" y="110" width="10" height="10" fill="#fff"/><rect x="240" y="110" width="10" height="10" fill="#fff"/><rect x="280" y="110" width="10" height="10" fill="#fff"/><rect x="310" y="110" width="10" height="10" fill="#fff"/><rect x="320" y="110" width="10" height="10" fill="#fff"/><rect x="340" y="110" width="10" height="10" fill="#fff"/><rect x="370" y="110" width="10" height="10" fill="#fff"/><rect x="390" y="110" width="10" height="10" fill="#fff"/><rect x="40" y="120" width="10" height="10" fill="#fff"/><rect x="50" y="120" width="10" height="10" fill="#fff"/><rect x="60" y="120" width="10" height="10" fill="#fff"/><rect x="80" y="120" width="10" height="10" fill="#fff"/><rect x="90" y="120" width="10" height="10" fill="#fff"/><rect x="100" y="120" width="10" height="10" fill="#fff"/><rect x="110" y="120" width="10" height="10" fill="#fff"/><rect x="130" y="120" width="10" height="10" fill="#fff"/><rect x="140" y="120" width="10" height="10" fill="#fff"/><rect x="150" y="120" width="10" height="10" fill="#fff"/><rect x="160" y="120" width="10" height="10" fill="#fff"/><rect x="240" y="120" width="10" height="10" fill="#fff"/><rect x="300" y="120" width="10" height="10" fill="#fff"/><rect x="320" y="120" width="10" height="10" fill="#fff"/><rect x="340" y="120" width="10" height="10" fill="#fff"/><rect x="350" y="120" width="10" height="10" fill="#fff"/><rect x="400" y="120" width="10" height="10" fill="#fff"/><rect x="30" y="130" width="10" height="10" fill="#fff"/><rect x="100" y="130" width="10" height="10" fill="#fff"/><rect x="110" y="130" width="10" height="10" fill="#fff"/><rect x="130" y="130" width="10" height="10" fill="#fff"/><rect x="160" y="130" width="10" height="10" fill="#fff"/><rect x="180" y="130" width="10" height="10" fill="#fff"/><rect x="260" y="130" width="10" height="10" fill="#fff"/><rect x="270" y="130" width="10" height="10" fill="#fff"/><rect x="280" y="130" width="10" height="10" fill="#fff"/><rect x="300" y="130" width="10" height="10" fill="#fff"/><rect x="310" y="130" width="10" height="10" fill="#fff"/><rect x="320" y="130" width="10" height="10" fill="#fff"/><rect x="340" y="130" width="10" height="10" fill="#fff"/><rect x="350" y="130" width="10" height="10" fill="#fff"/><rect x="360" y="130" width="10" height="10" fill="#fff"/><rect x="370" y="130" width="10" height="10" fill="#fff"/><rect x="380" y="130" width="10" height="10" fill="#fff"/><rect y="140" width="10" height="10" fill="#fff"/><rect x="10" y="140" width="10" height="10" fill="#fff"/><rect x="50" y="140" width="10" height="10" fill="#fff"/><rect x="60" y="140" width="10" height="10" fill="#fff"/><rect x="80" y="140" width="10" height="10" fill="#fff"/><rect x="120" y="140" width="10" height="10" fill="#fff"/><rect x="130" y="140" width="10" height="10" fill="#fff"/><rect x="150" y="140" width="10" height="10" fill="#fff"/><rect x="160" y="140" width="10" height="10" fill="#fff"/><rect x="200" y="140" width="10" height="10" fill="#fff"/><rect x="230" y="140" width="10" height="10" fill="#fff"/><rect x="240" y="140" width="10" height="10" fill="#fff"/><rect x="250" y="140" width="10" height="10" fill="#fff"/><rect x="260" y="140" width="10" height="10" fill="#fff"/><rect x="270" y="140" width="10" height="10" fill="#fff"/><rect x="280" y="140" width="10" height="10" fill="#fff"/><rect x="320" y="140" width="10" height="10" fill="#fff"/><rect x="330" y="140" width="10" height="10" fill="#fff"/><rect x="350" y="140" width="10" height="10" fill="#fff"/><rect x="380" y="140" width="10" height="10" fill="#fff"/><rect x="10" y="150" width="10" height="10" fill="#fff"/><rect x="20" y="150" width="10" height="10" fill="#fff"/><rect x="40" y="150" width="10" height="10" fill="#fff"/><rect x="100" y="150" width="10" height="10" fill="#fff"/><rect x="120" y="150" width="10" height="10" fill="#fff"/><rect x="140" y="150" width="10" height="10" fill="#fff"/><rect x="160" y="150" width="10" height="10" fill="#fff"/><rect x="200" y="150" width="10" height="10" fill="#fff"/><rect x="220" y="150" width="10" height="10" fill="#fff"/><rect x="230" y="150" width="10" height="10" fill="#fff"/><rect x="280" y="150" width="10" height="10" fill="#fff"/><rect x="330" y="150" width="10" height="10" fill="#fff"/><rect x="360" y="150" width="10" height="10" fill="#fff"/><rect x="370" y="150" width="10" height="10" fill="#fff"/><rect x="380" y="150" width="10" height="10" fill="#fff"/><rect x="390" y="150" width="10" height="10" fill="#fff"/><rect x="400" y="150" width="10" height="10" fill="#fff"/><rect y="160" width="10" height="10" fill="#fff"/><rect x="20" y="160" width="10" height="10" fill="#fff"/><rect x="40" y="160" width="10" height="10" fill="#fff"/><rect x="60" y="160" width="10" height="10" fill="#fff"/><rect x="80" y="160" width="10" height="10" fill="#fff"/><rect x="110" y="160" width="10" height="10" fill="#fff"/><rect x="120" y="160" width="10" height="10" fill="#fff"/><rect x="170" y="160" width="10" height="10" fill="#fff"/><rect x="200" y="160" width="10" height="10" fill="#fff"/><rect x="220" y="160" width="10" height="10" fill="#fff"/><rect x="230" y="160" width="10" height="10" fill="#fff"/><rect x="240" y="160" width="10" height="10" fill="#fff"/><rect x="250" y="160" width="10" height="10" fill="#fff"/><rect x="260" y="160" width="10" height="10" fill="#fff"/><rect x="270" y="160" width="10" height="10" fill="#fff"/><rect x="290" y="160" width="10" height="10" fill="#fff"/><rect x="320" y="160" width="10" height="10" fill="#fff"/><rect x="330" y="160" width="10" height="10" fill="#fff"/><rect x="350" y="160" width="10" height="10" fill="#fff"/><rect x="380" y="160" width="10" height="10" fill="#fff"/><rect x="10" y="170" width="10" height="10" fill="#fff"/><rect x="50" y="170" width="10" height="10" fill="#fff"/><rect x="70" y="170" width="10" height="10" fill="#fff"/><rect x="110" y="170" width="10" height="10" fill="#fff"/><rect x="120" y="170" width="10" height="10" fill="#fff"/><rect x="140" y="170" width="10" height="10" fill="#fff"/><rect x="150" y="170" width="10" height="10" fill="#fff"/><rect x="180" y="170" width="10" height="10" fill="#fff"/><rect x="190" y="170" width="10" height="10" fill="#fff"/><rect x="200" y="170" width="10" height="10" fill="#fff"/><rect x="210" y="170" width="10" height="10" fill="#fff"/><rect x="220" y="170" width="10" height="10" fill="#fff"/><rect x="230" y="170" width="10" height="10" fill="#fff"/><rect x="270" y="170" width="10" height="10" fill="#fff"/><rect x="310" y="170" width="10" height="10" fill="#fff"/><rect x="320" y="170" width="10" height="10" fill="#fff"/><rect x="330" y="170" width="10" height="10" fill="#fff"/><rect x="340" y="170" width="10" height="10" fill="#fff"/><rect x="350" y="170" width="10" height="10" fill="#fff"/><rect x="360" y="170" width="10" height="10" fill="#fff"/><rect x="400" y="170" width="10" height="10" fill="#fff"/><rect y="180" width="10" height="10" fill="#fff"/><rect x="10" y="180" width="10" height="10" fill="#fff"/><rect x="50" y="180" width="10" height="10" fill="#fff"/><rect x="60" y="180" width="10" height="10" fill="#fff"/><rect x="70" y="180" width="10" height="10" fill="#fff"/><rect x="90" y="180" width="10" height="10" fill="#fff"/><rect x="100" y="180" width="10" height="10" fill="#fff"/><rect x="110" y="180" width="10" height="10" fill="#fff"/><rect x="140" y="180" width="10" height="10" fill="#fff"/><rect x="170" y="180" width="10" height="10" fill="#fff"/><rect x="180" y="180" width="10" height="10" fill="#fff"/><rect x="190" y="180" width="10" height="10" fill="#fff"/><rect x="230" y="180" width="10" height="10" fill="#fff"/><rect x="250" y="180" width="10" height="10" fill="#fff"/><rect x="260" y="180" width="10" height="10" fill="#fff"/><rect x="270" y="180" width="10" height="10" fill="#fff"/><rect x="290" y="180" width="10" height="10" fill="#fff"/><rect x="300" y="180" width="10" height="10" fill="#fff"/><rect x="310" y="180" width="10" height="10" fill="#fff"/><rect x="350" y="180" width="10" height="10" fill="#fff"/><rect x="360" y="180" width="10" height="10" fill="#fff"/><rect x="370" y="180" width="10" height="10" fill="#fff"/><rect x="400" y="180" width="10" height="10" fill="#fff"/><rect y="190" width="10" height="10" fill="#fff"/><rect x="20" y="190" width="10" height="10" fill="#fff"/><rect x="30" y="190" width="10" height="10" fill="#fff"/><rect x="40" y="190" width="10" height="10" fill="#fff"/><rect x="50" y="190" width="10" height="10" fill="#fff"/><rect x="70" y="190" width="10" height="10" fill="#fff"/><rect x="120" y="190" width="10" height="10" fill="#fff"/><rect x="130" y="190" width="10" height="10" fill="#fff"/><rect x="190" y="190" width="10" height="10" fill="#fff"/><rect x="200" y="190" width="10" height="10" fill="#fff"/><rect x="210" y="190" width="10" height="10" fill="#fff"/><rect x="230" y="190" width="10" height="10" fill="#fff"/><rect x="240" y="190" width="10" height="10" fill="#fff"/><rect x="330" y="190" width="10" height="10" fill="#fff"/><rect x="340" y="190" width="10" height="10" fill="#fff"/><rect x="360" y="190" width="10" height="10" fill="#fff"/><rect x="370" y="190" width="10" height="10" fill="#fff"/><rect x="390" y="190" width="10" height="10" fill="#fff"/><rect x="10" y="200" width="10" height="10" fill="#fff"/><rect x="40" y="200" width="10" height="10" fill="#fff"/><rect x="60" y="200" width="10" height="10" fill="#fff"/><rect x="70" y="200" width="10" height="10" fill="#fff"/><rect x="80" y="200" width="10" height="10" fill="#fff"/><rect x="90" y="200" width="10" height="10" fill="#fff"/><rect x="100" y="200" width="10" height="10" fill="#fff"/><rect x="110" y="200" width="10" height="10" fill="#fff"/><rect x="130" y="200" width="10" height="10" fill="#fff"/><rect x="160" y="200" width="10" height="10" fill="#fff"/><rect x="180" y="200" width="10" height="10" fill="#fff"/><rect x="190" y="200" width="10" height="10" fill="#fff"/><rect x="210" y="200" width="10" height="10" fill="#fff"/><rect x="220" y="200" width="10" height="10" fill="#fff"/><rect x="240" y="200" width="10" height="10" fill="#fff"/><rect x="290" y="200" width="10" height="10" fill="#fff"/><rect x="320" y="200" width="10" height="10" fill="#fff"/><rect x="380" y="200" width="10" height="10" fill="#fff"/><rect x="390" y="200" width="10" height="10" fill="#fff"/><rect x="20" y="210" width="10" height="10" fill="#fff"/><rect x="70" y="210" width="10" height="10" fill="#fff"/><rect x="80" y="210" width="10" height="10" fill="#fff"/><rect x="90" y="210" width="10" height="10" fill="#fff"/><rect x="100" y="210" width="10" height="10" fill="#fff"/><rect x="110" y="210" width="10" height="10" fill="#fff"/><rect x="120" y="210" width="10" height="10" fill="#fff"/><rect x="130" y="210" width="10" height="10" fill="#fff"/><rect x="140" y="210" width="10" height="10" fill="#fff"/><rect x="160" y="210" width="10" height="10" fill="#fff"/><rect x="190" y="210" width="10" height="10" fill="#fff"/><rect x="210" y="210" width="10" height="10" fill="#fff"/><rect x="220" y="210" width="10" height="10" fill="#fff"/><rect x="230" y="210" width="10" height="10" fill="#fff"/><rect x="260" y="210" width="10" height="10" fill="#fff"/><rect x="270" y="210" width="10" height="10" fill="#fff"/><rect x="290" y="210" width="10" height="10" fill="#fff"/><rect x="300" y="210" width="10" height="10" fill="#fff"/><rect x="310" y="210" width="10" height="10" fill="#fff"/><rect x="350" y="210" width="10" height="10" fill="#fff"/><rect x="360" y="210" width="10" height="10" fill="#fff"/><rect x="370" y="210" width="10" height="10" fill="#fff"/><rect x="380" y="210" width="10" height="10" fill="#fff"/><rect x="40" y="220" width="10" height="10" fill="#fff"/><rect x="50" y="220" width="10" height="10" fill="#fff"/><rect x="60" y="220" width="10" height="10" fill="#fff"/><rect x="100" y="220" width="10" height="10" fill="#fff"/><rect x="110" y="220" width="10" height="10" fill="#fff"/><rect x="140" y="220" width="10" height="10" fill="#fff"/><rect x="180" y="220" width="10" height="10" fill="#fff"/><rect x="200" y="220" width="10" height="10" fill="#fff"/><rect x="210" y="220" width="10" height="10" fill="#fff"/><rect x="240" y="220" width="10" height="10" fill="#fff"/><rect x="250" y="220" width="10" height="10" fill="#fff"/><rect x="270" y="220" width="10" height="10" fill="#fff"/><rect x="280" y="220" width="10" height="10" fill="#fff"/><rect x="290" y="220" width="10" height="10" fill="#fff"/><rect x="340" y="220" width="10" height="10" fill="#fff"/><rect x="350" y="220" width="10" height="10" fill="#fff"/><rect x="370" y="220" width="10" height="10" fill="#fff"/><rect x="380" y="220" width="10" height="10" fill="#fff"/><rect y="230" width="10" height="10" fill="#fff"/><rect x="10" y="230" width="10" height="10" fill="#fff"/><rect x="20" y="230" width="10" height="10" fill="#fff"/><rect x="30" y="230" width="10" height="10" fill="#fff"/><rect x="50" y="230" width="10" height="10" fill="#fff"/><rect x="70" y="230" width="10" height="10" fill="#fff"/><rect x="90" y="230" width="10" height="10" fill="#fff"/><rect x="110" y="230" width="10" height="10" fill="#fff"/><rect x="140" y="230" width="10" height="10" fill="#fff"/><rect x="160" y="230" width="10" height="10" fill="#fff"/><rect x="200" y="230" width="10" height="10" fill="#fff"/><rect x="220" y="230" width="10" height="10" fill="#fff"/><rect x="230" y="230" width="10" height="10" fill="#fff"/><rect x="240" y="230" width="10" height="10" fill="#fff"/><rect x="280" y="230" width="10" height="10" fill="#fff"/><rect x="310" y="230" width="10" height="10" fill="#fff"/><rect x="320" y="230" width="10" height="10" fill="#fff"/><rect x="330" y="230" width="10" height="10" fill="#fff"/><rect x="350" y="230" width="10" height="10" fill="#fff"/><rect x="370" y="230" width="10" height="10" fill="#fff"/><rect x="390" y="230" width="10" height="10" fill="#fff"/><rect x="400" y="230" width="10" height="10" fill="#fff"/><rect x="10" y="240" width="10" height="10" fill="#fff"/><rect x="40" y="240" width="10" height="10" fill="#fff"/><rect x="60" y="240" width="10" height="10" fill="#fff"/><rect x="70" y="240" width="10" height="10" fill="#fff"/><rect x="80" y="240" width="10" height="10" fill="#fff"/><rect x="90" y="240" width="10" height="10" fill="#fff"/><rect x="110" y="240" width="10" height="10" fill="#fff"/><rect x="130" y="240" width="10" height="10" fill="#fff"/><rect x="140" y="240" width="10" height="10" fill="#fff"/><rect x="150" y="240" width="10" height="10" fill="#fff"/><rect x="160" y="240" width="10" height="10" fill="#fff"/><rect x="200" y="240" width="10" height="10" fill="#fff"/><rect x="230" y="240" width="10" height="10" fill="#fff"/><rect x="240" y="240" width="10" height="10" fill="#fff"/><rect x="270" y="240" width="10" height="10" fill="#fff"/><rect x="280" y="240" width="10" height="10" fill="#fff"/><rect x="320" y="240" width="10" height="10" fill="#fff"/><rect x="340" y="240" width="10" height="10" fill="#fff"/><rect x="350" y="240" width="10" height="10" fill="#fff"/><rect x="370" y="240" width="10" height="10" fill="#fff"/><rect x="380" y="240" width="10" height="10" fill="#fff"/><rect y="250" width="10" height="10" fill="#fff"/><rect x="20" y="250" width="10" height="10" fill="#fff"/><rect x="40" y="250" width="10" height="10" fill="#fff"/><rect x="50" y="250" width="10" height="10" fill="#fff"/><rect x="100" y="250" width="10" height="10" fill="#fff"/><rect x="110" y="250" width="10" height="10" fill="#fff"/><rect x="130" y="250" width="10" height="10" fill="#fff"/><rect x="140" y="250" width="10" height="10" fill="#fff"/><rect x="170" y="250" width="10" height="10" fill="#fff"/><rect x="180" y="250" width="10" height="10" fill="#fff"/><rect x="190" y="250" width="10" height="10" fill="#fff"/><rect x="200" y="250" width="10" height="10" fill="#fff"/><rect x="210" y="250" width="10" height="10" fill="#fff"/><rect x="220" y="250" width="10" height="10" fill="#fff"/><rect x="230" y="250" width="10" height="10" fill="#fff"/><rect x="270" y="250" width="10" height="10" fill="#fff"/><rect x="280" y="250" width="10" height="10" fill="#fff"/><rect x="290" y="250" width="10" height="10" fill="#fff"/><rect x="300" y="250" width="10" height="10" fill="#fff"/><rect x="310" y="250" width="10" height="10" fill="#fff"/><rect x="350" y="250" width="10" height="10" fill="#fff"/><rect x="360" y="250" width="10" height="10" fill="#fff"/><rect x="370" y="250" width="10" height="10" fill="#fff"/><rect x="400" y="250" width="10" height="10" fill="#fff"/><rect x="30" y="260" width="10" height="10" fill="#fff"/><rect x="60" y="260" width="10" height="10" fill="#fff"/><rect x="70" y="260" width="10" height="10" fill="#fff"/><rect x="80" y="260" width="10" height="10" fill="#fff"/><rect x="90" y="260" width="10" height="10" fill="#fff"/><rect x="110" y="260" width="10" height="10" fill="#fff"/><rect x="120" y="260" width="10" height="10" fill="#fff"/><rect x="180" y="260" width="10" height="10" fill="#fff"/><rect x="200" y="260" width="10" height="10" fill="#fff"/><rect x="240" y="260" width="10" height="10" fill="#fff"/><rect x="260" y="260" width="10" height="10" fill="#fff"/><rect x="270" y="260" width="10" height="10" fill="#fff"/><rect x="280" y="260" width="10" height="10" fill="#fff"/><rect x="290" y="260" width="10" height="10" fill="#fff"/><rect x="320" y="260" width="10" height="10" fill="#fff"/><rect x="330" y="260" width="10" height="10" fill="#fff"/><rect x="340" y="260" width="10" height="10" fill="#fff"/><rect y="270" width="10" height="10" fill="#fff"/><rect x="20" y="270" width="10" height="10" fill="#fff"/><rect x="30" y="270" width="10" height="10" fill="#fff"/><rect x="40" y="270" width="10" height="10" fill="#fff"/><rect x="70" y="270" width="10" height="10" fill="#fff"/><rect x="80" y="270" width="10" height="10" fill="#fff"/><rect x="100" y="270" width="10" height="10" fill="#fff"/><rect x="120" y="270" width="10" height="10" fill="#fff"/><rect x="130" y="270" width="10" height="10" fill="#fff"/><rect x="160" y="270" width="10" height="10" fill="#fff"/><rect x="200" y="270" width="10" height="10" fill="#fff"/><rect x="230" y="270" width="10" height="10" fill="#fff"/><rect x="260" y="270" width="10" height="10" fill="#fff"/><rect x="280" y="270" width="10" height="10" fill="#fff"/><rect x="310" y="270" width="10" height="10" fill="#fff"/><rect x="330" y="270" width="10" height="10" fill="#fff"/><rect x="340" y="270" width="10" height="10" fill="#fff"/><rect x="350" y="270" width="10" height="10" fill="#fff"/><rect x="370" y="270" width="10" height="10" fill="#fff"/><rect x="380" y="270" width="10" height="10" fill="#fff"/><rect x="10" y="280" width="10" height="10" fill="#fff"/><rect x="40" y="280" width="10" height="10" fill="#fff"/><rect x="50" y="280" width="10" height="10" fill="#fff"/><rect x="60" y="280" width="10" height="10" fill="#fff"/><rect x="80" y="280" width="10" height="10" fill="#fff"/><rect x="100" y="280" width="10" height="10" fill="#fff"/><rect x="110" y="280" width="10" height="10" fill="#fff"/><rect x="120" y="280" width="10" height="10" fill="#fff"/><rect x="130" y="280" width="10" height="10" fill="#fff"/><rect x="140" y="280" width="10" height="10" fill="#fff"/><rect x="150" y="280" width="10" height="10" fill="#fff"/><rect x="170" y="280" width="10" height="10" fill="#fff"/><rect x="230" y="280" width="10" height="10" fill="#fff"/><rect x="250" y="280" width="10" height="10" fill="#fff"/><rect x="260" y="280" width="10" height="10" fill="#fff"/><rect x="310" y="280" width="10" height="10" fill="#fff"/><rect x="370" y="280" width="10" height="10" fill="#fff"/><rect x="380" y="280" width="10" height="10" fill="#fff"/><rect x="400" y="280" width="10" height="10" fill="#fff"/><rect x="10" y="290" width="10" height="10" fill="#fff"/><rect x="40" y="290" width="10" height="10" fill="#fff"/><rect x="80" y="290" width="10" height="10" fill="#fff"/><rect x="90" y="290" width="10" height="10" fill="#fff"/><rect x="100" y="290" width="10" height="10" fill="#fff"/><rect x="120" y="290" width="10" height="10" fill="#fff"/><rect x="140" y="290" width="10" height="10" fill="#fff"/><rect x="170" y="290" width="10" height="10" fill="#fff"/><rect x="180" y="290" width="10" height="10" fill="#fff"/><rect x="200" y="290" width="10" height="10" fill="#fff"/><rect x="240" y="290" width="10" height="10" fill="#fff"/><rect x="280" y="290" width="10" height="10" fill="#fff"/><rect x="310" y="290" width="10" height="10" fill="#fff"/><rect x="320" y="290" width="10" height="10" fill="#fff"/><rect x="340" y="290" width="10" height="10" fill="#fff"/><rect x="350" y="290" width="10" height="10" fill="#fff"/><rect x="360" y="290" width="10" height="10" fill="#fff"/><rect x="380" y="290" width="10" height="10" fill="#fff"/><rect x="400" y="290" width="10" height="10" fill="#fff"/><rect x="20" y="300" width="10" height="10" fill="#fff"/><rect x="30" y="300" width="10" height="10" fill="#fff"/><rect x="40" y="300" width="10" height="10" fill="#fff"/><rect x="50" y="300" width="10" height="10" fill="#fff"/><rect x="60" y="300" width="10" height="10" fill="#fff"/><rect x="70" y="300" width="10" height="10" fill="#fff"/><rect x="80" y="300" width="10" height="10" fill="#fff"/><rect x="90" y="300" width="10" height="10" fill="#fff"/><rect x="120" y="300" width="10" height="10" fill="#fff"/><rect x="130" y="300" width="10" height="10" fill="#fff"/><rect x="140" y="300" width="10" height="10" fill="#fff"/><rect x="160" y="300" width="10" height="10" fill="#fff"/><rect x="200" y="300" width="10" height="10" fill="#fff"/><rect x="230" y="300" width="10" height="10" fill="#fff"/><rect x="250" y="300" width="10" height="10" fill="#fff"/><rect x="270" y="300" width="10" height="10" fill="#fff"/><rect x="310" y="300" width="10" height="10" fill="#fff"/><rect x="320" y="300" width="10" height="10" fill="#fff"/><rect x="330" y="300" width="10" height="10" fill="#fff"/><rect x="350" y="300" width="10" height="10" fill="#fff"/><rect x="400" y="300" width="10" height="10" fill="#fff"/><rect x="10" y="310" width="10" height="10" fill="#fff"/><rect x="20" y="310" width="10" height="10" fill="#fff"/><rect x="40" y="310" width="10" height="10" fill="#fff"/><rect x="110" y="310" width="10" height="10" fill="#fff"/><rect x="140" y="310" width="10" height="10" fill="#fff"/><rect x="150" y="310" width="10" height="10" fill="#fff"/><rect x="180" y="310" width="10" height="10" fill="#fff"/><rect x="190" y="310" width="10" height="10" fill="#fff"/><rect x="200" y="310" width="10" height="10" fill="#fff"/><rect x="240" y="310" width="10" height="10" fill="#fff"/><rect x="260" y="310" width="10" height="10" fill="#fff"/><rect x="270" y="310" width="10" height="10" fill="#fff"/><rect x="320" y="310" width="10" height="10" fill="#fff"/><rect x="340" y="310" width="10" height="10" fill="#fff"/><rect x="350" y="310" width="10" height="10" fill="#fff"/><rect x="10" y="320" width="10" height="10" fill="#fff"/><rect x="20" y="320" width="10" height="10" fill="#fff"/><rect x="50" y="320" width="10" height="10" fill="#fff"/><rect x="60" y="320" width="10" height="10" fill="#fff"/><rect x="90" y="320" width="10" height="10" fill="#fff"/><rect x="100" y="320" width="10" height="10" fill="#fff"/><rect x="130" y="320" width="10" height="10" fill="#fff"/><rect x="150" y="320" width="10" height="10" fill="#fff"/><rect x="190" y="320" width="10" height="10" fill="#fff"/><rect x="250" y="320" width="10" height="10" fill="#fff"/><rect x="260" y="320" width="10" height="10" fill="#fff"/><rect x="280" y="320" width="10" height="10" fill="#fff"/><rect x="290" y="320" width="10" height="10" fill="#fff"/><rect x="310" y="320" width="10" height="10" fill="#fff"/><rect x="320" y="320" width="10" height="10" fill="#fff"/><rect x="330" y="320" width="10" height="10" fill="#fff"/><rect x="340" y="320" width="10" height="10" fill="#fff"/><rect x="350" y="320" width="10" height="10" fill="#fff"/><rect x="360" y="320" width="10" height="10" fill="#fff"/><rect x="380" y="320" width="10" height="10" fill="#fff"/><rect x="400" y="320" width="10" height="10" fill="#fff"/><rect x="80" y="330" width="10" height="10" fill="#fff"/><rect x="90" y="330" width="10" height="10" fill="#fff"/><rect x="110" y="330" width="10" height="10" fill="#fff"/><rect x="130" y="330" width="10" height="10" fill="#fff"/><rect x="140" y="330" width="10" height="10" fill="#fff"/><rect x="150" y="330" width="10" height="10" fill="#fff"/><rect x="160" y="330" width="10" height="10" fill="#fff"/><rect x="170" y="330" width="10" height="10" fill="#fff"/><rect x="180" y="330" width="10" height="10" fill="#fff"/><rect x="190" y="330" width="10" height="10" fill="#fff"/><rect x="220" y="330" width="10" height="10" fill="#fff"/><rect x="250" y="330" width="10" height="10" fill="#fff"/><rect x="270" y="330" width="10" height="10" fill="#fff"/><rect x="290" y="330" width="10" height="10" fill="#fff"/><rect x="300" y="330" width="10" height="10" fill="#fff"/><rect x="320" y="330" width="10" height="10" fill="#fff"/><rect x="360" y="330" width="10" height="10" fill="#fff"/><rect x="380" y="330" width="10" height="10" fill="#fff"/><rect y="340" width="10" height="10" fill="#fff"/><rect x="10" y="340" width="10" height="10" fill="#fff"/><rect x="20" y="340" width="10" height="10" fill="#fff"/><rect x="30" y="340" width="10" height="10" fill="#fff"/><rect x="40" y="340" width="10" height="10" fill="#fff"/><rect x="50" y="340" width="10" height="10" fill="#fff"/><rect x="60" y="340" width="10" height="10" fill="#fff"/><rect x="110" y="340" width="10" height="10" fill="#fff"/><rect x="140" y="340" width="10" height="10" fill="#fff"/><rect x="160" y="340" width="10" height="10" fill="#fff"/><rect x="170" y="340" width="10" height="10" fill="#fff"/><rect x="200" y="340" width="10" height="10" fill="#fff"/><rect x="210" y="340" width="10" height="10" fill="#fff"/><rect x="240" y="340" width="10" height="10" fill="#fff"/><rect x="250" y="340" width="10" height="10" fill="#fff"/><rect x="260" y="340" width="10" height="10" fill="#fff"/><rect x="270" y="340" width="10" height="10" fill="#fff"/><rect x="280" y="340" width="10" height="10" fill="#fff"/><rect x="290" y="340" width="10" height="10" fill="#fff"/><rect x="310" y="340" width="10" height="10" fill="#fff"/><rect x="320" y="340" width="10" height="10" fill="#fff"/><rect x="340" y="340" width="10" height="10" fill="#fff"/><rect x="360" y="340" width="10" height="10" fill="#fff"/><rect x="370" y="340" width="10" height="10" fill="#fff"/><rect y="350" width="10" height="10" fill="#fff"/><rect x="60" y="350" width="10" height="10" fill="#fff"/><rect x="90" y="350" width="10" height="10" fill="#fff"/><rect x="110" y="350" width="10" height="10" fill="#fff"/><rect x="130" y="350" width="10" height="10" fill="#fff"/><rect x="140" y="350" width="10" height="10" fill="#fff"/><rect x="150" y="350" width="10" height="10" fill="#fff"/><rect x="160" y="350" width="10" height="10" fill="#fff"/><rect x="170" y="350" width="10" height="10" fill="#fff"/><rect x="180" y="350" width="10" height="10" fill="#fff"/><rect x="190" y="350" width="10" height="10" fill="#fff"/><rect x="200" y="350" width="10" height="10" fill="#fff"/><rect x="220" y="350" width="10" height="10" fill="#fff"/><rect x="250" y="350" width="10" height="10" fill="#fff"/><rect x="300" y="350" width="10" height="10" fill="#fff"/><rect x="310" y="350" width="10" height="10" fill="#fff"/><rect x="320" y="350" width="10" height="10" fill="#fff"/><rect x="360" y="350" width="10" height="10" fill="#fff"/><rect x="370" y="350" width="10" height="10" fill="#fff"/><rect x="400" y="350" width="10" height="10" fill="#fff"/><rect y="360" width="10" height="10" fill="#fff"/><rect x="20" y="360" width="10" height="10" fill="#fff"/><rect x="30" y="360" width="10" height="10" fill="#fff"/><rect x="40" y="360" width="10" height="10" fill="#fff"/><rect x="60" y="360" width="10" height="10" fill="#fff"/><rect x="170" y="360" width="10" height="10" fill="#fff"/><rect x="200" y="360" width="10" height="10" fill="#fff"/><rect x="210" y="360" width="10" height="10" fill="#fff"/><rect x="220" y="360" width="10" height="10" fill="#fff"/><rect x="230" y="360" width="10" height="10" fill="#fff"/><rect x="240" y="360" width="10" height="10" fill="#fff"/><rect x="250" y="360" width="10" height="10" fill="#fff"/><rect x="270" y="360" width="10" height="10" fill="#fff"/><rect x="310" y="360" width="10" height="10" fill="#fff"/><rect x="320" y="360" width="10" height="10" fill="#fff"/><rect x="330" y="360" width="10" height="10" fill="#fff"/><rect x="340" y="360" width="10" height="10" fill="#fff"/><rect x="350" y="360" width="10" height="10" fill="#fff"/><rect x="360" y="360" width="10" height="10" fill="#fff"/><rect x="370" y="360" width="10" height="10" fill="#fff"/><rect x="390" y="360" width="10" height="10" fill="#fff"/><rect x="400" y="360" width="10" height="10" fill="#fff"/><rect y="370" width="10" height="10" fill="#fff"/><rect x="20" y="370" width="10" height="10" fill="#fff"/><rect x="30" y="370" width="10" height="10" fill="#fff"/><rect x="40" y="370" width="10" height="10" fill="#fff"/><rect x="60" y="370" width="10" height="10" fill="#fff"/><rect x="90" y="370" width="10" height="10" fill="#fff"/><rect x="100" y="370" width="10" height="10" fill="#fff"/><rect x="120" y="370" width="10" height="10" fill="#fff"/><rect x="130" y="370" width="10" height="10" fill="#fff"/><rect x="170" y="370" width="10" height="10" fill="#fff"/><rect x="180" y="370" width="10" height="10" fill="#fff"/><rect x="200" y="370" width="10" height="10" fill="#fff"/><rect x="220" y="370" width="10" height="10" fill="#fff"/><rect x="270" y="370" width="10" height="10" fill="#fff"/><rect x="280" y="370" width="10" height="10" fill="#fff"/><rect x="300" y="370" width="10" height="10" fill="#fff"/><rect x="310" y="370" width="10" height="10" fill="#fff"/><rect x="320" y="370" width="10" height="10" fill="#fff"/><rect x="350" y="370" width="10" height="10" fill="#fff"/><rect x="370" y="370" width="10" height="10" fill="#fff"/><rect x="380" y="370" width="10" height="10" fill="#fff"/><rect x="390" y="370" width="10" height="10" fill="#fff"/><rect y="380" width="10" height="10" fill="#fff"/><rect x="20" y="380" width="10" height="10" fill="#fff"/><rect x="30" y="380" width="10" height="10" fill="#fff"/><rect x="40" y="380" width="10" height="10" fill="#fff"/><rect x="60" y="380" width="10" height="10" fill="#fff"/><rect x="100" y="380" width="10" height="10" fill="#fff"/><rect x="150" y="380" width="10" height="10" fill="#fff"/><rect x="200" y="380" width="10" height="10" fill="#fff"/><rect x="210" y="380" width="10" height="10" fill="#fff"/><rect x="220" y="380" width="10" height="10" fill="#fff"/><rect x="270" y="380" width="10" height="10" fill="#fff"/><rect x="280" y="380" width="10" height="10" fill="#fff"/><rect x="290" y="380" width="10" height="10" fill="#fff"/><rect x="300" y="380" width="10" height="10" fill="#fff"/><rect x="310" y="380" width="10" height="10" fill="#fff"/><rect x="330" y="380" width="10" height="10" fill="#fff"/><rect x="340" y="380" width="10" height="10" fill="#fff"/><rect x="350" y="380" width="10" height="10" fill="#fff"/><rect x="360" y="380" width="10" height="10" fill="#fff"/><rect x="370" y="380" width="10" height="10" fill="#fff"/><rect y="390" width="10" height="10" fill="#fff"/><rect x="60" y="390" width="10" height="10" fill="#fff"/><rect x="100" y="390" width="10" height="10" fill="#fff"/><rect x="110" y="390" width="10" height="10" fill="#fff"/><rect x="120" y="390" width="10" height="10" fill="#fff"/><rect x="130" y="390" width="10" height="10" fill="#fff"/><rect x="160" y="390" width="10" height="10" fill="#fff"/><rect x="170" y="390" width="10" height="10" fill="#fff"/><rect x="180" y="390" width="10" height="10" fill="#fff"/><rect x="240" y="390" width="10" height="10" fill="#fff"/><rect x="280" y="390" width="10" height="10" fill="#fff"/><rect x="300" y="390" width="10" height="10" fill="#fff"/><rect x="330" y="390" width="10" height="10" fill="#fff"/><rect x="360" y="390" width="10" height="10" fill="#fff"/><rect x="370" y="390" width="10" height="10" fill="#fff"/><rect x="380" y="390" width="10" height="10" fill="#fff"/><rect x="400" y="390" width="10" height="10" fill="#fff"/><rect y="400" width="10" height="10" fill="#fff"/><rect x="10" y="400" width="10" height="10" fill="#fff"/><rect x="20" y="400" width="10" height="10" fill="#fff"/><rect x="30" y="400" width="10" height="10" fill="#fff"/><rect x="40" y="400" width="10" height="10" fill="#fff"/><rect x="50" y="400" width="10" height="10" fill="#fff"/><rect x="60" y="400" width="10" height="10" fill="#fff"/><rect x="80" y="400" width="10" height="10" fill="#fff"/><rect x="90" y="400" width="10" height="10" fill="#fff"/><rect x="100" y="400" width="10" height="10" fill="#fff"/><rect x="120" y="400" width="10" height="10" fill="#fff"/><rect x="140" y="400" width="10" height="10" fill="#fff"/><rect x="160" y="400" width="10" height="10" fill="#fff"/><rect x="180" y="400" width="10" height="10" fill="#fff"/><rect x="190" y="400" width="10" height="10" fill="#fff"/><rect x="220" y="400" width="10" height="10" fill="#fff"/><rect x="240" y="400" width="10" height="10" fill="#fff"/><rect x="250" y="400" width="10" height="10" fill="#fff"/><rect x="260" y="400" width="10" height="10" fill="#fff"/><rect x="290" y="400" width="10" height="10" fill="#fff"/><rect x="350" y="400" width="10" height="10" fill="#fff"/><rect x="360" y="400" width="10" height="10" fill="#fff"/><rect x="380" y="400" width="10" height="10" fill="#fff"/></g></svg>