<?xml version="1.0" encoding="utf-8"?>
<!-- Generator: Adobe Illustrator 24.0.1, SVG Export Plug-In . SVG Version: 6.00 Build 0)  -->
<svg version="1.1" id="圖層_1" xmlns="http://www.w3.org/2000/svg" xmlns:xlink="http://www.w3.org/1999/xlink" x="0px" y="0px"
	 viewBox="0 0 20 20" style="enable-background:new 0 0 20 20;" xml:space="preserve">
<style type="text/css">
	.st0{fill:#FFE400;}
</style>
<g>
	<path class="st0" d="M10,0C4.48,0,0,4.48,0,10c0,5.52,4.48,10,10,10s10-4.48,10-10C20,4.48,15.52,0,10,0z M11.13,15.04
		c0,0.62-0.5,1.13-1.13,1.13s-1.13-0.5-1.13-1.13v0c0-0.62,0.5-1.13,1.13-1.13S11.13,14.42,11.13,15.04L11.13,15.04z M11.22,6.59
		l-0.58,5.96H9.37L8.78,6.59V3.83h2.44V6.59z"/>
</g>
</svg>
