<svg xmlns="http://www.w3.org/2000/svg" width="45" height="45" viewBox="0 0 45 45"><path d="M44.12 14a1.31 1.31 0 00-1.82 0l-2.52 2.52V8.25a1.29 1.29 0 10-2.57 0v8.3L34.69 14a1.29 1.29 0 00-1.82 1.82l4.73 4.71a1.27 1.27 0 00.91.37 1.3 1.3 0 00.91-.37l4.7-4.71a1.25 1.25 0 00.38-.82 1.24 1.24 0 00-.38-1zM9.66 15.59A8.76 8.76 0 003 18.24a9.77 9.77 0 00-2.5 7 8.89 8.89 0 002.33 6.36A8 8 0 008.94 34a9.14 9.14 0 004.82-1.23.5.5 0 00.24-.43v-2.5a.5.5 0 00-.8-.4 6.18 6.18 0 01-3.8 1.35 4.8 4.8 0 01-3.76-1.53A6.18 6.18 0 014.23 25a6.51 6.51 0 011.51-4.5 4.85 4.85 0 013.82-1.67 6.32 6.32 0 013.69 1.22.5.5 0 00.78-.41V16.9a.49.49 0 00-.28-.45 9.35 9.35 0 00-4.09-.86zm21.43 2.46a8 8 0 00-6.19-2.46 8.74 8.74 0 00-6.56 2.51A9.52 9.52 0 0015.9 25a9.21 9.21 0 002.34 6.54A8.26 8.26 0 0024.51 34a8.41 8.41 0 006.41-2.56 9.5 9.5 0 002.39-6.73 9.62 9.62 0 00-2.22-6.66zM28.3 29.3a4.39 4.39 0 01-3.6 1.49 4.62 4.62 0 01-3.7-1.54 6.35 6.35 0 01-1.39-4.34 6.76 6.76 0 011.39-4.5 4.58 4.58 0 013.69-1.58 4.37 4.37 0 013.6 1.52 7 7 0 011.27 4.5 6.88 6.88 0 01-1.26 4.45zm11.04 2.31a.38.38 0 01-.26-.65 9.24 9.24 0 011-.79c1.86-1.34 2.46-2.23 2.46-3.67 0-1.94-1.46-3.25-3.63-3.25a3.51 3.51 0 00-3.8 3.54.38.38 0 00.38.39h1.93a.38.38 0 00.38-.34c.1-1.12.58-1.27 1-1.27s.88.31.88.94-.25 1-1.49 1.92c-2.78 2.13-3.13 3.87-3.13 5.16v.07a.38.38 0 00.38.38h6.69a.38.38 0 00.37-.32l.25-1.67a.38.38 0 00-.37-.44z" fill="#3a4944"/></svg>