<svg xmlns="http://www.w3.org/2000/svg" width="45" height="45" viewBox="0 0 45 45"><path d="M31.91 10.13a1.42 1.42 0 00-.94-.8 1.47 1.47 0 00-1.22.23S27.21 11.38 20.9 13c-4.92 1.23-7.21 3.76-8.27 5.66a8.35 8.35 0 00-1.13 4.11 1.43 1.43 0 002.86-.11c0-.2 0-5.07 7.23-6.88a39.37 39.37 0 008.24-2.92 17.16 17.16 0 01.46 8.47c-1 4.2-3.57 6.71-7 6.71a13.16 13.16 0 01-5-1.17c2.72-4 5.33-4.86 5.35-4.86a1.43 1.43 0 00-.77-2.76c-.29.08-7.3 2.19-11.12 15.27a1.43 1.43 0 001 1.78 1.37 1.37 0 00.4.05 1.42 1.42 0 001.37-1 33.5 33.5 0 012.34-6 16.18 16.18 0 006.43 1.55c3.72 0 8.23-2.35 9.75-8.93a20.57 20.57 0 00-1.13-11.84z" fill="#fff"/></svg>