<svg xmlns="http://www.w3.org/2000/svg" viewBox="0 0 43 43"><defs><style>.a{fill:#fff}</style></defs><path class="a" d="M36.1 10.33l-.05-.07.1.14a.1.1 0 000-.05"/><path class="a" d="M28.76 1.26A21.47 21.47 0 005 7.74a22.2 22.2 0 00-3.45 5.79A21.26 21.26 0 00.06 20a21.46 21.46 0 0012.46 21 22.45 22.45 0 006.66 1.84 21.49 21.49 0 0023.54-17.9A23.24 23.24 0 0043 21.5a21.45 21.45 0 00-3.92-12.36 21.83 21.83 0 00-10.32-7.88M39.72 24a19.86 19.86 0 01-1.27 4.66 20.07 20.07 0 01-1.31 2.52c-.25.41-.53.82-.81 1.22l-.23.3c-.15.19-.3.37-.46.55a18.84 18.84 0 01-2.07 2.12l-.55.46-.24.2.08-.06-.1.07-.12.08c-.38.29-.78.56-1.18.82a20 20 0 01-2.82 1.49A19.65 19.65 0 0124 39.72a20.41 20.41 0 01-4.94 0 19.86 19.86 0 01-4.66-1.27 20.07 20.07 0 01-2.52-1.31c-.41-.25-.82-.53-1.22-.81l-.3-.23c-.19-.14-.37-.29-.55-.45a18.84 18.84 0 01-2.12-2.07c-.16-.18-.31-.36-.46-.55L7 32.76v.08a.86.86 0 00-.07-.1c-.05-.07-.14-.2-.08-.12a19.1 19.1 0 01-.82-1.18 20 20 0 01-1.49-2.82A19.65 19.65 0 013.28 24a20.41 20.41 0 010-4.94 19.73 19.73 0 011.27-4.66 20.07 20.07 0 011.31-2.52c.26-.41.53-.82.81-1.22l.23-.3c.14-.19.29-.37.45-.55a19.75 19.75 0 012.1-2.19l.55-.46.24-.2-.08.04.1-.07c.06-.05.19-.15.11-.08.38-.29.78-.56 1.18-.82a20 20 0 012.82-1.49A19.65 19.65 0 0119 3.28a20.41 20.41 0 014.94 0 19.73 19.73 0 014.66 1.27 20.07 20.07 0 012.52 1.31c.41.25.82.53 1.22.81l.3.23.55.46a18.84 18.84 0 012.12 2.07c.16.18.31.36.46.55l.2.24.03-.06a.86.86 0 00.07.1c0 .07.15.2.08.12.29.38.56.78.82 1.18a20 20 0 011.49 2.82A19.65 19.65 0 0139.72 19a22.59 22.59 0 01.16 2.47 22.59 22.59 0 01-.16 2.53"/><path class="a" d="M32.67 36.1l.07-.05-.14.1a.1.1 0 00.05 0M10.33 6.9h-.07l.14-.1a.1.1 0 00-.05 0M6.9 32.67v.07l-.11-.14a.1.1 0 000 .05M33 20.4l-4.37-5-.62-.7a1.56 1.56 0 00-2.21 0 1.6 1.6 0 000 2.21l2.64 3H11.45a1.56 1.56 0 100 3.12h17l-2 2.3-.62.7a1.68 1.68 0 00-.46 1.11A1.57 1.57 0 0028 28.27l4.37-5 .63-.67a1.34 1.34 0 00.22-.31 1.44 1.44 0 00.24-.79 1.57 1.57 0 00-.46-1.1"/></svg>