<svg xmlns="http://www.w3.org/2000/svg" width="51.75" height="42.44" viewBox="0 0 51.75 42.44"><path d="M4.996-.01h41.75a5 5 0 015 5v32.43a4.994 4.994 0 01-5 5H4.996a5 5 0 01-5-5V4.99a5 5 0 015-5z" fill-rule="evenodd" fill="#4c8365"/><path d="M21.475 28.98a5.634 5.634 0 01-4.72-2 9.888 9.888 0 010-10.68 6.547 6.547 0 019.44 0 9.893 9.893 0 010 10.68 5.638 5.638 0 01-4.72 2zm-2.241-10.76a8.563 8.563 0 000 6.86 2.58 2.58 0 004.48 0 8.552 8.552 0 000-6.86 2.58 2.58 0 00-4.481 0zm10.418-3.6h6.155v14.2h-3.262v-11.5h-2.893v-2.7z" fill="#fff" fill-rule="evenodd"/></svg>