<svg xmlns="http://www.w3.org/2000/svg" width="51.75" height="42.44" viewBox="0 0 51.75 42.44"><path d="M4.991-.01h41.75a5 5 0 015 5v32.43a5 5 0 01-5 5H4.991a4.994 4.994 0 01-5-5V4.99a5 5 0 015-5z" fill-rule="evenodd" fill="#4c8365"/><path d="M19.59 28.95a5.363 5.363 0 01-4.56-2 10.2 10.2 0 010-10.69 6.2 6.2 0 019.12 0 10.2 10.2 0 010 10.69 5.363 5.363 0 01-4.56 2zm-2.165-10.77a8.86 8.86 0 000 6.87 2.452 2.452 0 004.329 0 8.86 8.86 0 000-6.87 2.452 2.452 0 00-4.329 0zm16.8 1.94a2.5 2.5 0 00.557-1.47 1.616 1.616 0 00-.483-1.19 1.68 1.68 0 00-1.24-.47c-.925 0-1.8.63-2.627 1.9l-2.627-1.5a7.847 7.847 0 012.259-2.33 5.668 5.668 0 013.131-.8 5.142 5.142 0 013.341 1.17 3.882 3.882 0 011.44 3.18 4.147 4.147 0 01-.578 2.1 13.714 13.714 0 01-2.133 2.57l-2.647 2.66h5.8v2.85h-10.36v-2.36l4.308-4.27a17.945 17.945 0 001.86-2.04z" fill="#fff" fill-rule="evenodd"/></svg>