<svg xmlns="http://www.w3.org/2000/svg" width="45" height="45" viewBox="0 0 45 45"><defs><style>.a{fill:#3a4944}</style></defs><path class="a" d="M22.5 40a4.75 4.75 0 01-3-1.49 4.3 4.3 0 00-1.07-.76 4.25 4.25 0 00-1.38.12 4.69 4.69 0 01-3.28-.21 4.76 4.76 0 01-1.85-2.77 4.19 4.19 0 00-.56-1.23 4.19 4.19 0 00-1.23-.56 4.76 4.76 0 01-2.77-1.85A4.69 4.69 0 017.13 28a4.25 4.25 0 00.12-1.38 4.3 4.3 0 00-.76-1.07A4.75 4.75 0 015 22.5a4.75 4.75 0 011.49-3 4.3 4.3 0 00.76-1.07A4.25 4.25 0 007.13 17a4.69 4.69 0 01.21-3.28 4.76 4.76 0 012.77-1.85 4.19 4.19 0 001.23-.56 4.19 4.19 0 00.56-1.23 4.76 4.76 0 011.85-2.77A4.69 4.69 0 0117 7.13a4.25 4.25 0 001.38.12 4.3 4.3 0 001.07-.76A4.75 4.75 0 0122.5 5a4.75 4.75 0 013 1.49 4.3 4.3 0 001.07.76A4.25 4.25 0 0028 7.13a4.69 4.69 0 013.28.21 4.76 4.76 0 011.85 2.77 4.19 4.19 0 00.56 1.23 4.19 4.19 0 001.23.56 4.76 4.76 0 012.77 1.85 4.69 4.69 0 01.18 3.25 4.25 4.25 0 00-.12 1.38 4.3 4.3 0 00.76 1.07 4.75 4.75 0 011.49 3 4.75 4.75 0 01-1.49 3 4.3 4.3 0 00-.76 1.07 4.25 4.25 0 00.12 1.48 4.69 4.69 0 01-.21 3.28 4.76 4.76 0 01-2.77 1.85 4.19 4.19 0 00-1.23.56 4.19 4.19 0 00-.56 1.23 4.76 4.76 0 01-1.85 2.77 4.69 4.69 0 01-3.28.21 4.25 4.25 0 00-1.38-.12 4.3 4.3 0 00-1.07.76A4.75 4.75 0 0122.5 40zm-4.34-5.08a3.65 3.65 0 011 .12 5.88 5.88 0 012.17 1.34c.35.3 1 .81 1.19.81s.84-.51 1.19-.81A5.8 5.8 0 0125.86 35a5.87 5.87 0 012.61.07 4 4 0 001.38.12 3.82 3.82 0 00.6-1.28 5.85 5.85 0 011.22-2.27A5.85 5.85 0 0134 30.45a3.82 3.82 0 001.28-.6 4 4 0 00-.12-1.38 6 6 0 01-.16-2.61 5.88 5.88 0 011.34-2.17c.3-.35.81-1 .81-1.19s-.51-.84-.81-1.2A5.76 5.76 0 0135 19.14a6 6 0 01.07-2.61 4 4 0 00.12-1.38 3.82 3.82 0 00-1.28-.6 5.75 5.75 0 01-2.27-1.23 5.75 5.75 0 01-1.23-2.27 3.82 3.82 0 00-.6-1.28 4 4 0 00-1.38.12 6 6 0 01-2.61.07 5.88 5.88 0 01-2.17-1.34c-.35-.3-1-.81-1.19-.81s-.84.51-1.19.81A5.88 5.88 0 0119.14 10a6 6 0 01-2.61-.07 4 4 0 00-1.38-.12 3.82 3.82 0 00-.6 1.28 5.75 5.75 0 01-1.23 2.27 5.75 5.75 0 01-2.27 1.23 3.82 3.82 0 00-1.28.6 4 4 0 00.12 1.38 6 6 0 01.11 2.57 5.76 5.76 0 01-1.38 2.16c-.3.36-.81 1-.81 1.2s.51.84.81 1.19A5.8 5.8 0 0110 25.86a6 6 0 01-.07 2.61 4 4 0 00-.12 1.38 3.82 3.82 0 001.28.6 5.85 5.85 0 012.27 1.22A5.85 5.85 0 0114.55 34a3.82 3.82 0 00.6 1.28 4 4 0 001.38-.12 9.45 9.45 0 011.63-.24z"/><path class="a" d="M16.28 28.71a1.21 1.21 0 001.72 0L28.71 18A1.21 1.21 0 0027 16.29L16.28 27a1.21 1.21 0 000 1.71"/><path class="a" d="M16.28 28.71a1.21 1.21 0 001.72 0L28.71 18A1.21 1.21 0 0027 16.29L16.28 27a1.21 1.21 0 000 1.71zm1.16-6.51a3.27 3.27 0 10-3.27-3.26 3.26 3.26 0 003.27 3.26m0-4.51a1.25 1.25 0 11-1.25 1.25 1.25 1.25 0 011.25-1.25"/><path class="a" d="M17.44 22.2a3.27 3.27 0 10-3.27-3.26 3.26 3.26 0 003.27 3.26zm0-4.51a1.25 1.25 0 11-1.25 1.25 1.25 1.25 0 011.25-1.25zm6.86 8.37a3.27 3.27 0 103.26-3.26 3.27 3.27 0 00-3.26 3.26m4.51 0a1.25 1.25 0 11-1.25-1.24 1.25 1.25 0 011.25 1.24"/><path class="a" d="M24.3 26.06a3.27 3.27 0 103.26-3.26 3.27 3.27 0 00-3.26 3.26zm4.51 0a1.25 1.25 0 11-1.25-1.24 1.25 1.25 0 011.25 1.24z"/></svg>