<svg width="154" height="154" viewBox="0 0 154 154" fill="none" xmlns="http://www.w3.org/2000/svg"><g clip-path="url(#clip0_143_153)"><path d="M70.843 48.24a18.71 18.71 0 0110.39 3.15 18.68 18.68 0 012.834 28.756 18.705 18.705 0 01-20.381 4.052 18.7 18.7 0 01-8.394-6.884 18.681 18.681 0 012.326-23.6 18.709 18.709 0 0113.225-5.474z" fill="#FFD62B"/><path d="M70.842 65.492a2.878 2.878 0 01-2.822-3.437 2.875 2.875 0 013.924-2.095 2.877 2.877 0 011.776 2.656 1.437 1.437 0 002.456 1.017c.27-.27.42-.635.42-1.017a5.748 5.748 0 00-4.315-5.55v-1.638a1.437 1.437 0 00-2.456-1.017c-.27.27-.421.636-.421 1.017v1.639a5.754 5.754 0 00-4.201 6.276 5.75 5.75 0 005.64 5.024 2.878 2.878 0 012.821 3.437 2.875 2.875 0 01-3.923 2.095 2.878 2.878 0 01-1.776-2.656 1.437 1.437 0 00-2.456-1.017c-.27.27-.421.635-.421 1.017a5.748 5.748 0 004.316 5.55v1.638a1.437 1.437 0 002.456 1.017c.27-.27.421-.636.421-1.017v-1.639a5.754 5.754 0 004.2-6.276 5.75 5.75 0 00-5.639-5.024z" fill="#033C59"/><path d="M108.247 105.388v16.175H33.438v-16.175a11.497 11.497 0 014.136-8.841l4.496-3.738h57.545l4.496 3.738a11.507 11.507 0 014.136 8.841z" fill="#CAE9F8"/><path d="M108.247 117.25H33.438v4.313h74.809v-4.313z" fill="#9FCFE2"/><path d="M47.825 78.432H93.86a5.756 5.756 0 015.754 5.75v8.627H42.07v-8.627a5.749 5.749 0 015.755-5.75z" fill="#E5FAFF"/><path d="M99.615 88.496H42.07v4.313h57.545v-4.313z" fill="#CAE9F8"/><path d="M112.563 39.614v24.441l-8.114 1.797a12.38 12.38 0 01-9.078-1.438c-3.726-2.314-6.876-1.797-15.896-1.797v-2.875a5.748 5.748 0 014.92-5.679 29.184 29.184 0 014.43-.072 3.598 3.598 0 003.597-3.594 3.593 3.593 0 00-3.596-3.594h-10.79L74.98 48.7a18.713 18.713 0 00-16.156 3.852l2.662-7.907a5.752 5.752 0 012.733-3.235l16.688-8.985 31.657 7.188z" fill="#F5F7FF"/><path d="M81.963 46.801h-3.927L74.98 48.7a18.714 18.714 0 00-16.156 3.853l2.158-6.47a23.032 23.032 0 0120.982.72zm13.407 13.27a12.432 12.432 0 00-6.329-1.768h-9.365a15.09 15.09 0 00-.202 4.313h9.567c2.23.01 4.417.622 6.33 1.768a12.381 12.381 0 009.078 1.438l8.113-1.769V59.74l-8.113 1.798a12.389 12.389 0 01-9.078-1.467z" fill="#CCD3EB"/><path d="M122.633 36.738h-10.071v31.63h10.071v-31.63zm-14.386 50.319a11.51 11.51 0 0110.633 7.1 11.496 11.496 0 01-2.495 12.534 11.507 11.507 0 01-12.542 2.493 11.5 11.5 0 014.404-22.127z" fill="#FFD62B"/><path d="M108.248 102.872c-.777 0-.82-.216-3.899-3.292a1.436 1.436 0 01-.423-1.021 1.435 1.435 0 01.423-1.02 1.438 1.438 0 011.021-.424 1.445 1.445 0 011.022.423l1.856 1.87 3.294-3.308a1.438 1.438 0 011.021-.422 1.445 1.445 0 011.022 2.464l-4.316 4.313a1.431 1.431 0 01-1.021.417z" fill="#033C59"/><path d="M53.58 104.311h34.526a2.875 2.875 0 012.878 2.875v14.377H50.702v-14.377a2.873 2.873 0 012.877-2.875z" fill="#F5F7FF"/><path d="M90.984 117.25H50.702v4.313h40.282v-4.313z" fill="#CCD3EB"/><path d="M42.07 53.991c-.776 0-.82-.216-3.898-3.292a1.443 1.443 0 112.043-2.042l1.856 1.87 1.856-1.87a1.445 1.445 0 012.042 2.042c-3.136 3.134-3.121 3.292-3.898 3.292zm66.178 24.439c-.777 0-.82-.215-3.899-3.292a1.443 1.443 0 011.021-2.464c.383 0 .751.152 1.022.423l1.856 1.869 1.855-1.87a1.447 1.447 0 012.043 0 1.443 1.443 0 010 2.042c-3.136 3.134-3.122 3.292-3.898 3.292z" fill="#FFD62B"/><path d="M99.3 38.076a24.5 24.5 0 003.193.69 1.45 1.45 0 001.597-1.28 1.444 1.444 0 00-1.28-1.596l-2.878-.647a1.44 1.44 0 00-1.731 1.038 1.436 1.436 0 001.012 1.746l.088.02-.002.029z" fill="#033C59"/><path d="M122.633 35.3h-10.07a1.436 1.436 0 00-1.439 1.438v1.078l-2.56-.59a1.44 1.44 0 00-1.745 1.046l-.011.047a1.439 1.439 0 001.094 1.711l3.222.733v22.14l-6.991 1.54c-2.738.62-5.61.156-8.013-1.295a14.023 14.023 0 00-7.079-1.977h-8.128v-1.437a4.312 4.312 0 013.777-4.313 38.556 38.556 0 014.136 0 5.037 5.037 0 005.035-5.032 5.03 5.03 0 00-5.035-5.032h-10.79c-.604 0-.791.23-3.352 1.826a19.859 19.859 0 00-13.163 1.912l1.337-3.997a4.314 4.314 0 012.05-2.417l16.2-8.727 12.43 2.875a1.44 1.44 0 001.804-1.592 1.439 1.439 0 00-1.085-1.191l-.089-.02c-14.003-3.24-13.255-3.226-13.93-2.867l-16.689 8.986a7.19 7.19 0 00-3.417 4.04l-2.546 7.634a20.018 20.018 0 00-4.158 25.174h-5.603a7.195 7.195 0 00-7.193 7.189v7.95l-3.97 3.307A12.941 12.941 0 0032 105.388v16.174a1.435 1.435 0 001.439 1.437h74.808a1.435 1.435 0 001.439-1.437v-5.751a1.44 1.44 0 00-2.878 0v4.313H92.422v-12.939a4.312 4.312 0 00-4.316-4.313H53.58a4.316 4.316 0 00-4.316 4.313v12.939H34.877v-14.736a10.057 10.057 0 013.626-7.728l4.085-3.414h53.474a12.931 12.931 0 006.017 15.662 12.955 12.955 0 0016.431-3.439 12.935 12.935 0 00-.777-16.759 12.954 12.954 0 00-16.679-1.905v-3.623a7.175 7.175 0 00-2.107-5.083 7.19 7.19 0 00-5.086-2.106h-5.596a19.78 19.78 0 002.517-12.78c1.361.228 2.665.716 3.841 1.437a13.816 13.816 0 0010.071 1.639l6.358-1.438v2.516a1.437 1.437 0 001.439 1.438h10.07A1.44 1.44 0 00124 68.367v-31.63a1.437 1.437 0 00-1.367-1.437zm-70.492 71.885a1.44 1.44 0 011.438-1.438h34.527a1.442 1.442 0 011.439 1.438v12.939H52.141v-12.939zm36.685-58.946a2.158 2.158 0 011.525 3.68c-.964.978-1.885.518-5.438.648a20.16 20.16 0 00-6.517-4.315c.144-.013-.49-.013 10.43-.013zm19.421 40.256a10.075 10.075 0 019.304 6.212 10.056 10.056 0 01-2.183 10.968 10.073 10.073 0 01-17.191-7.116c0-2.67 1.06-5.23 2.949-7.117a10.075 10.075 0 017.121-2.947zm-10.07-4.313v6.268c-.246.295-.477.602-.69.92H43.508v-7.188a4.311 4.311 0 014.316-4.313H93.86a4.317 4.317 0 014.316 4.313zm-41.332-7.189a17.244 17.244 0 012.194-22.535 17.269 17.269 0 0122.637-.957 7.191 7.191 0 00-3.64 6.24v2.875a1.437 1.437 0 001.439 1.438h8.358a16.883 16.883 0 01-2.992 12.94H56.845zm64.35-10.064h-7.193V38.175h7.193V66.93z" fill="#033C59"/><path d="M59.334 108.623h-2.878a1.442 1.442 0 00-1.438 1.438 1.435 1.435 0 001.438 1.437h2.877a1.437 1.437 0 100-2.875zm0 5.75h-2.878a1.442 1.442 0 00-1.438 1.438 1.435 1.435 0 001.438 1.437h2.877a1.437 1.437 0 100-2.875z" fill="#033C59"/></g><defs><clipPath id="clip0_143_153"><path fill="#fff" transform="translate(32 31)" d="M0 0h92v92H0z"/></clipPath></defs></svg>