<svg width="154" height="154" viewBox="0 0 154 154" fill="none" xmlns="http://www.w3.org/2000/svg"><g clip-path="url(#clip0_143_153)"><path d="M37.171 106.707h80.631a2.782 2.782 0 012.78 2.78v2.781a8.338 8.338 0 01-8.341 8.341h-69.51a8.342 8.342 0 01-8.34-8.341v-2.781a2.782 2.782 0 012.78-2.78z" fill="#E5FAFF"/><path d="M112.241 116.44h-69.51a8.344 8.344 0 01-8.341-7.452 18.823 18.823 0 000 3.281 8.34 8.34 0 008.341 8.341h69.51a8.342 8.342 0 008.341-8.341 19.536 19.536 0 000-3.281 8.342 8.342 0 01-8.341 7.452z" fill="#CAE9F8"/><path d="M66.364 106.707h22.243v4.171a2.782 2.782 0 01-2.78 2.78H69.145a2.782 2.782 0 01-2.78-2.78v-4.171zM42.732 45.54h69.509a5.56 5.56 0 015.561 5.56v50.047a5.562 5.562 0 01-5.561 5.56h-69.51a5.56 5.56 0 01-5.56-5.56V51.1a5.56 5.56 0 015.56-5.56z" fill="#CAE9F8"/><path d="M112.241 102.537h-69.51a5.562 5.562 0 01-5.56-5.56v4.17a5.56 5.56 0 005.56 5.561h69.51a5.56 5.56 0 005.561-5.561v-4.17a5.562 5.562 0 01-5.561 5.56z" fill="#9FCFE2"/><path d="M44.122 51.1h66.729a1.392 1.392 0 011.39 1.39v47.266a1.387 1.387 0 01-1.39 1.39h-66.73a1.389 1.389 0 01-1.39-1.39V52.49a1.39 1.39 0 011.39-1.39z" fill="#F5F7FF"/><path d="M106.68 34.418a13.902 13.902 0 11.001 27.804 13.902 13.902 0 01-.001-27.804z" fill="#FFD62B"/><path d="M106.68 46.929a1.392 1.392 0 01-.983-2.373c.261-.26.615-.407.983-.407h2.781a1.392 1.392 0 00.983-2.374 1.392 1.392 0 00-.983-.407h-1.39v-1.39a1.39 1.39 0 00-2.781 0v1.64a4.176 4.176 0 00-2.184 1.826 4.17 4.17 0 003.574 6.265 1.388 1.388 0 01.983 2.374c-.26.26-.614.407-.983.407h-2.78a1.39 1.39 0 000 2.78h1.39v1.39a1.393 1.393 0 001.39 1.39 1.388 1.388 0 001.391-1.39v-1.64a4.17 4.17 0 001.277-7.099 4.17 4.17 0 00-2.668-.992z" fill="#033C59"/><path d="M68.013 64.988h5.561a1.39 1.39 0 011.39 1.39v22.243a1.39 1.39 0 01-1.39 1.39h-5.56a1.39 1.39 0 01-1.391-1.39V66.38a1.39 1.39 0 011.39-1.39zm15.033 2.622h5.561a1.39 1.39 0 011.39 1.39v19.462a1.39 1.39 0 01-1.39 1.39h-5.56a1.39 1.39 0 01-1.39-1.39V69a1.39 1.39 0 011.39-1.39zm15.537 1.562h5.56a1.388 1.388 0 011.391 1.39v11.122a1.39 1.39 0 01-1.391 1.39h-5.56a1.39 1.39 0 01-1.39-1.39V70.562a1.39 1.39 0 011.39-1.39z" fill="#FFD62B"/><path d="M117.802 105.317a6.85 6.85 0 001.39-4.17V63.612a1.393 1.393 0 00-1.39-1.39 1.388 1.388 0 00-1.391 1.39v37.535a4.17 4.17 0 01-4.17 4.17h-69.51a4.17 4.17 0 01-4.17-4.17V51.1a4.17 4.17 0 014.17-4.17h48.726a13.278 13.278 0 000 2.78H44.122a2.78 2.78 0 00-2.78 2.78v26.414a1.39 1.39 0 002.78 0V52.49h47.864a15.292 15.292 0 0018.865 10.524v36.743h-66.73v-6.951a1.39 1.39 0 10-2.78 0v6.95a2.782 2.782 0 002.78 2.781h66.73c.737 0 1.444-.293 1.966-.814a2.784 2.784 0 00.814-1.966V61.93a15.29 15.29 0 00-11.507-28.224A15.292 15.292 0 0091.986 44.15H42.73a6.95 6.95 0 00-6.95 6.951v50.047a6.844 6.844 0 001.39 4.17 4.172 4.172 0 00-4.17 4.17v2.78A9.734 9.734 0 0042.731 122h69.51a9.73 9.73 0 009.731-9.732v-2.78a4.17 4.17 0 00-4.17-4.171zM106.68 35.808a12.509 12.509 0 0112.271 14.953 12.504 12.504 0 01-9.83 9.83 12.511 12.511 0 11-2.441-24.783zm-19.463 72.29v2.78a1.388 1.388 0 01-1.39 1.39H69.145a1.39 1.39 0 01-1.39-1.39v-2.78h19.462zm31.975 4.17a6.955 6.955 0 01-2.036 4.916 6.954 6.954 0 01-4.915 2.035h-69.51a6.952 6.952 0 01-6.95-6.951v-2.78a1.39 1.39 0 011.39-1.39h27.803v2.78a4.17 4.17 0 004.171 4.171h16.682a4.171 4.171 0 004.17-4.171v-2.78h27.805a1.39 1.39 0 011.39 1.39v2.78z" fill="#033C59"/><path d="M42.731 88.635a1.39 1.39 0 001.39-1.39v-2.78a1.39 1.39 0 00-2.78 0v2.78a1.39 1.39 0 001.39 1.39z" fill="#033C59"/><path d="M52.204 67.133h5.56a1.39 1.39 0 011.39 1.39v16.682a1.39 1.39 0 01-1.39 1.39h-5.56a1.39 1.39 0 01-1.39-1.39V68.523a1.39 1.39 0 011.39-1.39z" fill="#FFD62B"/><path d="M54.985 62.963a1.39 1.39 0 00-1.39 1.39v1.39h-1.39a2.78 2.78 0 00-2.781 2.78v16.683a2.78 2.78 0 002.78 2.78h1.39v1.39a1.391 1.391 0 002.78 0v-1.39h1.391a2.78 2.78 0 002.78-2.78V68.524a2.78 2.78 0 00-2.78-2.78h-1.39v-1.39a1.39 1.39 0 00-1.39-1.391zm2.78 22.243h-5.56V68.524h5.56v16.682zm13.029-24.388a1.39 1.39 0 00-1.39 1.39v1.39h-1.39a2.78 2.78 0 00-2.78 2.781v22.243a2.78 2.78 0 002.78 2.78h1.39v1.39a1.39 1.39 0 102.78 0v-1.39h1.39a2.78 2.78 0 002.78-2.78V66.38a2.78 2.78 0 00-2.78-2.78h-1.39v-1.39a1.39 1.39 0 00-1.39-1.39zm2.78 27.804h-5.56V66.38h5.56v22.243zm12.253-25.011a1.39 1.39 0 00-1.39 1.39v1.39h-1.39a2.78 2.78 0 00-2.78 2.781v19.463a2.78 2.78 0 002.78 2.78h1.39v1.39a1.39 1.39 0 102.78 0v-1.39h1.39a2.78 2.78 0 002.781-2.78V69.172a2.78 2.78 0 00-2.78-2.78h-1.39v-1.39a1.39 1.39 0 00-1.39-1.39zm2.78 25.024h-5.56V69.172h5.56v19.463zm12.756-23.633a1.388 1.388 0 00-1.39 1.39v1.39h-1.39a2.78 2.78 0 00-2.781 2.78v11.122a2.78 2.78 0 002.78 2.78h1.39v1.39a1.39 1.39 0 002.781 0v-1.39h1.39a2.78 2.78 0 002.78-2.78V70.563a2.782 2.782 0 00-2.78-2.78h-1.39v-1.39a1.393 1.393 0 00-1.39-1.391zm2.78 16.682h-5.56V70.563h5.56v11.121z" fill="#033C59"/><path d="M51.073 62.222h-2.78a1.39 1.39 0 010-2.78h2.78a1.39 1.39 0 010 2.78zm0-4.17h-2.78a1.39 1.39 0 010-2.78h2.78a1.39 1.39 0 110 2.78zm38.925-22.243a1.39 1.39 0 100 2.78 1.39 1.39 0 000-2.78zm-5.561 0a1.39 1.39 0 100 2.78 1.39 1.39 0 000-2.78z" fill="#96A1C3"/></g><defs><clipPath id="clip0_143_153"><path fill="#fff" transform="translate(33 33)" d="M0 0h89v89H0z"/></clipPath></defs></svg>