<svg width="154" height="154" viewBox="0 0 154 154" fill="none" xmlns="http://www.w3.org/2000/svg"><g clip-path="url(#clip0_143_153)"><path d="M68.117 99.756H46.06c-1.74 0-3.15 1.422-3.15 3.177v3.178c0 1.755 1.41 3.177 3.15 3.177h22.057c1.74 0 3.151-1.422 3.151-3.177v-3.178c0-1.755-1.41-3.177-3.15-3.177z" fill="#E5FAFF"/><path d="M68.117 104.522H46.06a3.134 3.134 0 01-1.923-.669 3.179 3.179 0 01-1.118-1.714 16.654 16.654 0 00-.11 3.972c0 .842.332 1.65.923 2.246a3.138 3.138 0 002.228.931h22.057c.836 0 1.637-.335 2.228-.931a3.19 3.19 0 00.923-2.246 16.252 16.252 0 00-.11-3.972 3.179 3.179 0 01-1.117 1.714 3.134 3.134 0 01-1.924.669z" fill="#CAE9F8"/><path d="M72.843 90.223H50.786c-1.74 0-3.151 1.422-3.151 3.177v3.178c0 1.755 1.41 3.177 3.15 3.177h22.058c1.74 0 3.15-1.422 3.15-3.177V93.4c0-1.755-1.41-3.177-3.15-3.177z" fill="#E5FAFF"/><path d="M72.844 94.989H50.787a3.134 3.134 0 01-1.924-.669 3.18 3.18 0 01-1.117-1.714 16.65 16.65 0 00-.11 3.971c0 .843.332 1.651.922 2.247.591.596 1.393.93 2.229.93h22.057c.835 0 1.637-.334 2.228-.93.59-.596.923-1.404.923-2.247a16.252 16.252 0 00-.11-3.971 3.18 3.18 0 01-1.118 1.714 3.134 3.134 0 01-1.923.669z" fill="#CAE9F8"/><path d="M53.938 109.287H31.88c-1.74 0-3.15 1.423-3.15 3.178v3.177c0 1.755 1.41 3.178 3.15 3.178h22.058c1.74 0 3.15-1.423 3.15-3.178v-3.177c0-1.755-1.41-3.178-3.15-3.178z" fill="#CCD3EB"/><path d="M53.938 114.055H31.88a3.128 3.128 0 01-1.923-.669 3.18 3.18 0 01-1.117-1.714 16.66 16.66 0 00-.11 3.972c0 .842.331 1.651.922 2.247a3.14 3.14 0 002.228.93h22.058a3.14 3.14 0 002.228-.93c.59-.596.923-1.405.923-2.247a16.252 16.252 0 00-.11-3.972 3.179 3.179 0 01-1.118 1.714 3.128 3.128 0 01-1.923.669z" fill="#CAE9F8"/><path d="M74.42 109.287H52.361c-1.74 0-3.151 1.423-3.151 3.178v3.177c0 1.755 1.41 3.178 3.151 3.178h22.057c1.74 0 3.151-1.423 3.151-3.178v-3.177c0-1.755-1.41-3.178-3.15-3.178z" fill="#CCD3EB"/><path d="M74.419 114.055H52.362a3.128 3.128 0 01-1.924-.669 3.179 3.179 0 01-1.117-1.714 16.65 16.65 0 00-.11 3.972c0 .842.332 1.651.923 2.247a3.14 3.14 0 002.228.93h22.057a3.14 3.14 0 002.228-.93 3.193 3.193 0 00.923-2.247 16.257 16.257 0 00-.11-3.972 3.18 3.18 0 01-1.118 1.714 3.128 3.128 0 01-1.923.669z" fill="#CAE9F8"/><path d="M109.08 99.756H87.023c-1.74 0-3.15 1.422-3.15 3.177v3.178c0 1.755 1.41 3.177 3.15 3.177h22.057c1.74 0 3.151-1.422 3.151-3.177v-3.178c0-1.755-1.411-3.177-3.151-3.177z" fill="#E5FAFF"/><path d="M87.023 104.522h22.057a3.135 3.135 0 001.924-.669 3.178 3.178 0 001.117-1.714 16.5 16.5 0 01.111 3.972 3.19 3.19 0 01-.923 2.246 3.14 3.14 0 01-2.229.931H87.023a3.138 3.138 0 01-2.228-.931 3.19 3.19 0 01-.923-2.246 16.453 16.453 0 01.11-3.972 3.18 3.18 0 001.118 1.714c.55.431 1.227.667 1.923.669z" fill="#CAE9F8"/><path d="M104.354 90.223H82.296c-1.74 0-3.15 1.422-3.15 3.177v3.178c0 1.755 1.41 3.177 3.15 3.177h22.058c1.74 0 3.151-1.422 3.151-3.177V93.4c0-1.755-1.411-3.177-3.151-3.177z" fill="#CCD3EB"/><path d="M82.297 94.989h22.057a3.132 3.132 0 001.923-.669 3.18 3.18 0 001.118-1.714c.197 1.314.234 2.648.11 3.971a3.19 3.19 0 01-.923 2.247 3.137 3.137 0 01-2.228.93H82.297a3.138 3.138 0 01-2.228-.93 3.191 3.191 0 01-.923-2.247 16.448 16.448 0 01.11-3.971 3.18 3.18 0 001.117 1.714c.55.431 1.227.666 1.924.669z" fill="#CAE9F8"/><path d="M123.26 109.287h-22.057c-1.74 0-3.151 1.423-3.151 3.178v3.177c0 1.755 1.41 3.178 3.151 3.178h22.057c1.74 0 3.151-1.423 3.151-3.178v-3.177c0-1.755-1.411-3.178-3.151-3.178z" fill="#E5FAFF"/><path d="M101.203 114.055h22.057a3.131 3.131 0 001.924-.669 3.178 3.178 0 001.117-1.714c.197 1.314.234 2.648.11 3.972 0 .842-.332 1.651-.923 2.247a3.14 3.14 0 01-2.228.93h-22.057a3.14 3.14 0 01-2.228-.93 3.193 3.193 0 01-.923-2.247 16.453 16.453 0 01.11-3.972c.174.68.567 1.283 1.118 1.714.55.432 1.226.667 1.923.669z" fill="#CAE9F8"/><path d="M102.778 109.287H80.721c-1.74 0-3.15 1.423-3.15 3.178v3.177c0 1.755 1.41 3.178 3.15 3.178h22.057c1.741 0 3.151-1.423 3.151-3.178v-3.177c0-1.755-1.41-3.178-3.151-3.178z" fill="#E5FAFF"/><path d="M80.72 114.055h22.058a3.126 3.126 0 001.923-.669 3.178 3.178 0 001.117-1.714c.198 1.314.235 2.648.111 3.972 0 .842-.332 1.651-.923 2.247a3.142 3.142 0 01-2.228.93H80.721a3.14 3.14 0 01-2.228-.93 3.193 3.193 0 01-.923-2.247 16.448 16.448 0 01.11-3.972c.174.68.567 1.283 1.117 1.714.55.432 1.227.667 1.924.669z" fill="#CAE9F8"/><path d="M120.109 83.867l-.363 1.478a9.197 9.197 0 01-2.149 4 9.095 9.095 0 01-3.79 2.466 9.082 9.082 0 013.791 2.466 9.185 9.185 0 012.148 4l.363 1.478.362-1.478a9.207 9.207 0 012.151-3.998 9.107 9.107 0 013.789-2.468 9.083 9.083 0 01-3.791-2.466 9.197 9.197 0 01-2.149-4l-.362-1.478zM35.032 72.746l-.363 1.478a9.199 9.199 0 01-2.15 4 9.09 9.09 0 01-3.79 2.466 9.083 9.083 0 013.792 2.466 9.19 9.19 0 012.148 4l.363 1.478.362-1.478a9.211 9.211 0 012.15-3.998 9.105 9.105 0 013.79-2.468 9.083 9.083 0 01-3.792-2.466 9.19 9.19 0 01-2.148-4l-.362-1.478z" fill="#FFD62B"/><path d="M107.504 64.802a30.39 30.39 0 00-3.55-14.258 30.102 30.102 0 00-9.808-10.876 29.774 29.774 0 00-13.739-4.915 29.708 29.708 0 00-14.411 2.212 29.957 29.957 0 00-11.668 8.814 30.3 30.3 0 00-6.155 13.325 30.432 30.432 0 00.816 14.678 30.232 30.232 0 007.595 12.548 59.741 59.741 0 019.957 13.425h22.057a67.548 67.548 0 0110.587-14.06 30.31 30.31 0 008.319-20.893z" fill="#F5F7FF"/><path d="M99.186 80.928a64.273 64.273 0 00-4.474 5.482 21.387 21.387 0 01-7.52 6.297 21.2 21.2 0 01-9.516 2.257 21.2 21.2 0 01-9.515-2.257 21.387 21.387 0 01-7.52-6.297 47.575 47.575 0 00-4.065-4.91 30.293 30.293 0 01-8.862-19.065 30.419 30.419 0 001.8 12.899 30.212 30.212 0 007.023 10.933 60.378 60.378 0 019.989 13.488h22.057a67.543 67.543 0 0110.587-14.06 30.106 30.106 0 006.606-10.792 30.298 30.298 0 001.603-12.579 30.174 30.174 0 01-8.193 18.605z" fill="#E5FAFF"/><path d="M77.57 85.456c11.311 0 20.481-9.247 20.481-20.654s-9.17-20.654-20.481-20.654c-11.312 0-20.482 9.247-20.482 20.654s9.17 20.654 20.482 20.654z" fill="#FFD62B"/><path d="M77.57 63.214a3.132 3.132 0 01-1.751-.536 3.17 3.17 0 01-1.16-1.426 3.203 3.203 0 01.682-3.462 3.127 3.127 0 013.434-.689c.576.24 1.068.648 1.415 1.17.346.523.53 1.137.53 1.765 0 .422.167.826.462 1.124a1.569 1.569 0 002.228 0c.296-.298.462-.702.462-1.124a6.39 6.39 0 00-1.326-3.879 6.299 6.299 0 00-3.4-2.253v-1.811c0-.422-.167-.826-.462-1.124a1.57 1.57 0 00-2.228 0 1.596 1.596 0 00-.462 1.124v1.81a6.305 6.305 0 00-3.587 2.6 6.397 6.397 0 001.044 8.277 6.272 6.272 0 004.119 1.611c.623 0 1.232.187 1.75.536.518.35.922.845 1.16 1.426a3.202 3.202 0 01-.682 3.463 3.127 3.127 0 01-3.434.689 3.157 3.157 0 01-1.414-1.17 3.197 3.197 0 01-.531-1.766c0-.421-.166-.826-.462-1.124a1.569 1.569 0 00-2.228 0 1.596 1.596 0 00-.461 1.124 6.389 6.389 0 001.326 3.88 6.298 6.298 0 003.4 2.252v1.812c0 .421.166.825.462 1.123a1.569 1.569 0 002.228 0c.295-.298.461-.702.461-1.123v-1.815a6.305 6.305 0 003.587-2.6 6.396 6.396 0 00-1.044-8.277 6.272 6.272 0 00-4.118-1.611v.004z" fill="#033C59"/><path d="M88.599 99.756H66.54c-.87 0-1.575.711-1.575 1.589v9.532c0 .878.705 1.589 1.575 1.589H88.6c.87 0 1.575-.711 1.575-1.589v-9.532c0-.878-.705-1.59-1.576-1.59z" fill="#FFD62B"/><path d="M77.57 120.409a6.275 6.275 0 01-4.457-1.862 6.382 6.382 0 01-1.845-4.493v-1.589h12.604v1.589a6.382 6.382 0 01-1.846 4.493 6.275 6.275 0 01-4.456 1.862z" fill="#FFD62B"/><path d="M123.259 107.7h-9.736c.409-1.176.283-1.811.283-4.766a4.784 4.784 0 00-1.381-3.367 4.704 4.704 0 00-3.335-1.4h-.294c.41-1.175.284-1.81.284-4.766a4.785 4.785 0 00-1.385-3.37 4.705 4.705 0 00-3.342-1.396h-5.735l1.702-1.843a31.92 31.92 0 008.763-22.657A31.9 31.9 0 0098.571 41.1c-19.205-17.301-49.739-5.195-52.338 20.337a32.592 32.592 0 00.52 10.056c.087.422.338.79.695 1.026a1.599 1.599 0 002.228-.472c.234-.36.315-.8.228-1.22a28.829 28.829 0 01.631-14.558 28.632 28.632 0 017.662-12.354 28.29 28.29 0 0112.704-6.944 28.13 28.13 0 0114.447.27 28.311 28.311 0 0112.44 7.414 28.651 28.651 0 017.203 12.632 28.823 28.823 0 01.096 14.57 28.661 28.661 0 01-7.036 12.728 69.98 69.98 0 00-10.367 13.584h-20.23a65.55 65.55 0 00-6.301-9.104 63.142 63.142 0 00-4.286-4.766 1.57 1.57 0 00-2.229 0 1.597 1.597 0 000 2.248c.567.596-.094-.127 1.97 2.081h-5.83a4.707 4.707 0 00-3.342 1.396 4.787 4.787 0 00-1.384 3.37c0 3.337-.095 3.686.283 4.767a4.702 4.702 0 00-3.418 1.192 4.78 4.78 0 00-1.582 3.28v.294c0 3.336-.095 3.686.283 4.766H31.88a4.706 4.706 0 00-3.342 1.396 4.786 4.786 0 00-1.385 3.37v3.178c0 1.264.498 2.476 1.385 3.37a4.706 4.706 0 003.342 1.396h40.963a7.824 7.824 0 008.25.75 7.897 7.897 0 003.178-2.929 7.99 7.99 0 001.176-4.176h3.151c.836 0 1.637-.335 2.228-.931a3.189 3.189 0 00.923-2.246h11.029c.418 0 .818.167 1.114.465.295.298.461.702.461 1.123v3.178c0 .421-.166.825-.461 1.123a1.57 1.57 0 01-1.114.466H90.174c-.418 0-.819.167-1.114.465a1.596 1.596 0 000 2.247c.295.298.696.465 1.114.465h33.085a4.708 4.708 0 003.343-1.396 4.788 4.788 0 001.384-3.37v-3.178a4.788 4.788 0 00-1.384-3.37 4.708 4.708 0 00-3.343-1.396v.008zm-18.906-15.887c.418 0 .819.167 1.114.465.296.298.462.702.462 1.123v3.178c0 .421-.166.825-.462 1.123a1.568 1.568 0 01-1.114.466H91.371a60.209 60.209 0 014.53-6.355h8.452zm-55.142 4.766V93.4c0-.421.165-.825.46-1.123a1.569 1.569 0 011.115-.465h8.54a57.733 57.733 0 014.426 6.355H50.786c-.418 0-.819-.168-1.114-.466a1.595 1.595 0 01-.461-1.123zm-4.727 9.532v-3.177c0-.422.166-.826.461-1.124a1.568 1.568 0 011.114-.465H63.39v6.355H46.06a1.57 1.57 0 01-1.115-.465 1.596 1.596 0 01-.461-1.124zm-14.18 9.533v-3.178c0-.421.166-.825.462-1.123a1.568 1.568 0 011.114-.465h16.039c-.41 1.175-.284 1.811-.284 4.766.005.542.1 1.079.284 1.589h-16.04a1.57 1.57 0 01-1.113-.466 1.595 1.595 0 01-.462-1.123zm22.058 1.589a1.57 1.57 0 01-1.115-.466 1.596 1.596 0 01-.461-1.123v-3.178c0-.421.166-.825.461-1.123a1.568 1.568 0 011.114-.465H63.39c0 .842.332 1.651.923 2.246.59.596 1.392.931 2.228.931h3.151a7.95 7.95 0 00.662 3.178H52.362zm25.208 1.588a4.706 4.706 0 01-3.342-1.396 4.785 4.785 0 01-1.385-3.37h9.453a4.785 4.785 0 01-1.384 3.37 4.706 4.706 0 01-3.342 1.396zm-11.029-7.943V107.7H77.57c.418 0 .818-.167 1.114-.465a1.596 1.596 0 000-2.247 1.568 1.568 0 00-1.114-.465H66.54v-3.178h22.057v3.178h-4.726c-.418 0-.819.167-1.114.465a1.595 1.595 0 000 2.247c.295.298.696.465 1.114.465h4.726v3.178H66.541zM91.75 107.7v-6.355h17.331c.418 0 .818.167 1.114.465.295.298.461.702.461 1.124v3.177c0 .422-.166.826-.461 1.124a1.569 1.569 0 01-1.114.465H91.75zm33.086 7.944c0 .421-.166.825-.462 1.123a1.568 1.568 0 01-1.114.466h-16.038c.409-1.176.283-1.812.283-4.767a4.748 4.748 0 00-.283-1.588h16.038c.418 0 .819.167 1.114.465.296.298.462.702.462 1.123v3.178z" fill="#033C59"/><path d="M113.302 93.4a7.461 7.461 0 013.145 2.028 7.559 7.559 0 011.779 3.31l.362 1.477a1.572 1.572 0 002.498.867c.276-.218.473-.523.559-.867l.362-1.477a7.567 7.567 0 011.78-3.309 7.477 7.477 0 013.143-2.03c.316-.104.59-.306.785-.577a1.602 1.602 0 000-1.863 1.577 1.577 0 00-.785-.578 7.465 7.465 0 01-3.144-2.029 7.558 7.558 0 01-1.779-3.31l-.315-1.556a1.593 1.593 0 00-.559-.867 1.567 1.567 0 00-1.939 0 1.593 1.593 0 00-.559.867l-.362 1.477a7.548 7.548 0 01-1.778 3.31 7.46 7.46 0 01-3.145 2.029 1.57 1.57 0 00-.891.544 1.594 1.594 0 00-.03 1.982c.218.285.526.486.873.572zm6.806-4.767a10.641 10.641 0 002.899 3.178 10.69 10.69 0 00-2.899 3.177 10.622 10.622 0 00-2.898-3.177 10.575 10.575 0 002.898-3.178zm-91.884-6.355a7.46 7.46 0 013.13 1.995 7.55 7.55 0 011.794 3.264l.35 1.478c.086.343.283.648.56.866a1.567 1.567 0 001.938 0 1.59 1.59 0 00.559-.866l.362-1.478a7.564 7.564 0 011.797-3.263 7.475 7.475 0 013.127-1.996 1.57 1.57 0 00.784-.577 1.598 1.598 0 000-1.863 1.577 1.577 0 00-.784-.578 7.462 7.462 0 01-3.162-2.062 7.55 7.55 0 01-1.762-3.356l-.315-1.477a1.59 1.59 0 00-.559-.867 1.567 1.567 0 00-1.938 0 1.59 1.59 0 00-.56.867l-.362 1.477a7.545 7.545 0 01-1.794 3.319 7.455 7.455 0 01-3.168 2.02c-.349.08-.66.276-.882.558a1.598 1.598 0 000 1.981c.223.282.534.478.882.558h.003zm6.807-4.766a10.632 10.632 0 002.899 3.178 10.68 10.68 0 00-2.9 3.177 10.627 10.627 0 00-2.898-3.177 10.58 10.58 0 002.899-3.178zm17.079 4.766a1.565 1.565 0 001.38-.817 1.599 1.599 0 00-.041-1.613 27.32 27.32 0 01-1.576-3.003 1.592 1.592 0 00-.888-.827 1.567 1.567 0 00-1.706.414 1.595 1.595 0 00-.417 1.144c.008.208.057.414.144.604a34.451 34.451 0 001.772 3.352 1.581 1.581 0 001.324.746h.007z" fill="#033C59"/><path d="M31.88 101.344a1.571 1.571 0 01-1.455-.981 1.603 1.603 0 01.341-1.732 1.572 1.572 0 011.717-.344c.288.12.534.324.707.585a1.598 1.598 0 01-.196 2.006 1.57 1.57 0 01-1.114.466zm12.605-12.709c-.312 0-.617-.094-.876-.268a1.602 1.602 0 01-.239-2.444 1.572 1.572 0 011.718-.345c.288.12.534.324.707.585a1.599 1.599 0 01-.196 2.006 1.569 1.569 0 01-1.114.466zm66.171-6.355a1.585 1.585 0 01-1.456-.98 1.59 1.59 0 011.148-2.166 1.566 1.566 0 011.618.674 1.598 1.598 0 01-.196 2.006 1.571 1.571 0 01-1.114.465z" fill="#96A1C3"/></g><defs><clipPath id="clip0_143_153"><path fill="#fff" transform="translate(27 33)" d="M0 0h101v89H0z"/></clipPath></defs></svg>