<svg width="154" height="154" viewBox="0 0 154 154" fill="none" xmlns="http://www.w3.org/2000/svg"><g clip-path="url(#clip0_143_153)"><path d="M106.188 63.783a7.733 7.733 0 00-2.142 3.975 7.68 7.68 0 00.45 4.482 7.783 7.783 0 002.892 3.48 7.92 7.92 0 004.36 1.308h12.553v10.855a9.249 9.249 0 01-2.758 6.58 9.468 9.468 0 01-6.656 2.724H92.913V84.781c0-2.574-6.323-4.653-14.12-4.653-7.798 0-14.114 2.08-14.114 4.653V69.273c0-2.573-6.323-4.652-14.12-4.652a37.759 37.759 0 00-4.707.28V50.664a9.25 9.25 0 012.757-6.58 9.47 9.47 0 016.656-2.725h59.609c2.497 0 4.891.98 6.657 2.726a9.252 9.252 0 012.757 6.579v10.855h-12.54a7.918 7.918 0 00-5.552 2.264" fill="#E5FAFF"/><path d="M119.586 87.884a9.249 9.249 0 01-2.758 6.58 9.467 9.467 0 01-6.656 2.725h4.701c2.497 0 4.891-.98 6.657-2.725a9.252 9.252 0 002.757-6.58V77.03h-4.707l.006 10.855z" fill="#9FCFE2"/><path d="M114.874 41.36h-4.707c2.497 0 4.891.98 6.657 2.725a9.252 9.252 0 012.757 6.579v10.855h4.707V50.664a9.249 9.249 0 00-2.758-6.58 9.468 9.468 0 00-6.656-2.725zm12.557 23.262v9.304a3.095 3.095 0 01-.922 2.19 3.169 3.169 0 01-2.216.912h-12.545a7.894 7.894 0 01-5.548-2.27 7.71 7.71 0 01-2.298-5.484 7.71 7.71 0 012.298-5.483 7.894 7.894 0 015.548-2.271H124.3c.832.002 1.628.33 2.216.911.588.582.92 1.369.923 2.19" fill="#CAE9F8"/><path d="M124.293 61.52h-4.707a3.17 3.17 0 012.216.911 3.09 3.09 0 01.922 2.19v9.305a3.09 3.09 0 01-.921 2.191 3.169 3.169 0 01-2.217.911h4.707a3.166 3.166 0 002.216-.91c.589-.582.92-1.37.922-2.192v-9.304a3.095 3.095 0 00-.922-2.19 3.17 3.17 0 00-2.216-.913z" fill="#9FCFE2"/><path d="M111.748 66.168c.621 0 1.228.181 1.744.522.517.34.919.825 1.157 1.392s.3 1.19.179 1.792a3.09 3.09 0 01-.858 1.589 3.173 3.173 0 01-3.421.673 3.134 3.134 0 01-1.409-1.142 3.076 3.076 0 01.39-3.917 3.157 3.157 0 012.218-.909z" fill="#E8EDFC"/><path d="M64.679 69.274c0 2.575-6.323 4.652-14.12 4.652-7.798 0-14.121-2.077-14.121-4.652 0-2.032 3.923-3.753 9.413-4.373a37.76 37.76 0 014.707-.28c7.798 0 14.121 2.08 14.121 4.653z" fill="#FFD62B"/><path d="M64.679 69.273v7.755c0 2.573-6.323 4.652-14.12 4.652-7.798 0-14.121-2.079-14.121-4.652v-7.755c0 2.576 6.323 4.653 14.12 4.653 7.798 0 14.121-2.077 14.121-4.653z" fill="#FFD62B"/><path d="M64.679 77.03v7.752c0 2.575-6.323 4.652-14.12 4.652-7.798 0-14.121-2.077-14.121-4.652v-7.753c0 2.574 6.323 4.653 14.12 4.653 7.798 0 14.121-2.08 14.121-4.653z" fill="#FFD62B"/><path d="M64.679 84.781v7.755c0 2.575-6.323 4.652-14.12 4.652-7.798 0-14.121-2.077-14.121-4.652V84.78c0 2.575 6.323 4.653 14.12 4.653 7.798 0 14.121-2.078 14.121-4.653z" fill="#FFD62B"/><path d="M64.679 92.535v7.755c0 2.573-6.323 4.652-14.12 4.652-7.798 0-14.121-2.079-14.121-4.652v-7.755c0 2.575 6.323 4.653 14.12 4.653 7.798 0 14.121-2.078 14.121-4.653z" fill="#FFD62B"/><path d="M64.679 100.291v7.753c0 2.575-6.323 4.652-14.12 4.652-7.798 0-14.121-2.077-14.121-4.652v-7.753c0 2.573 6.323 4.652 14.12 4.652 7.798 0 14.121-2.079 14.121-4.652z" fill="#FFD62B"/><path d="M64.679 108.043v7.754c0 2.576-6.323 4.653-14.12 4.653-7.798 0-14.121-2.077-14.121-4.653v-7.754c0 2.575 6.323 4.652 14.12 4.652 7.798 0 14.121-2.077 14.121-4.652zm14.113-27.914c7.8 0 14.12 2.084 14.12 4.652s-6.32 4.649-14.12 4.649c-7.8 0-14.113-2.08-14.113-4.649 0-2.57 6.323-4.652 14.12-4.652" fill="#FFD62B"/><path d="M92.913 84.781v7.755c0 2.575-6.323 4.652-14.12 4.652-7.799 0-14.114-2.077-14.114-4.652V84.78c0 2.575 6.323 4.653 14.12 4.653 7.798 0 14.121-2.078 14.121-4.653" fill="#FFD62B"/><path d="M92.913 92.535v7.755c0 2.573-6.323 4.652-14.12 4.652-7.799 0-14.114-2.079-14.114-4.652v-7.755c0 2.575 6.323 4.653 14.12 4.653 7.798 0 14.121-2.078 14.121-4.653" fill="#FFD62B"/><path d="M92.913 100.291v7.753c0 2.575-6.323 4.652-14.12 4.652-7.799 0-14.114-2.077-14.114-4.652v-7.753c0 2.573 6.323 4.652 14.12 4.652 7.798 0 14.121-2.079 14.121-4.652" fill="#FFD62B"/><path d="M92.913 108.043v7.754c0 2.576-6.323 4.653-14.12 4.653-7.799 0-14.114-2.077-14.114-4.653v-7.754c0 2.575 6.323 4.652 14.12 4.652 7.798 0 14.121-2.077 14.121-4.652" fill="#FFD62B"/><path d="M50.55 120.449c.804 0 1.587-.027 2.354-.069-6.676-.364-11.767-2.274-11.767-4.583V69.273c0-2.031 3.923-3.752 9.413-4.372V50.664a9.25 9.25 0 012.758-6.58 9.47 9.47 0 016.656-2.725h-4.707a9.47 9.47 0 00-6.656 2.726 9.25 9.25 0 00-2.758 6.579v14.231c-5.49.62-9.413 2.341-9.413 4.373v46.523c0 2.575 6.323 4.653 14.12 4.653" fill="#fff"/><path d="M47.414 52.494h-3.139v12.407h3.139V52.494z" fill="#fff"/><path d="M45.875 60.25a1.579 1.579 0 01-1.078-.468 1.543 1.543 0 01-.01-2.157c.281-.29.666-.462 1.073-.478h.015a1.586 1.586 0 011.145.435 1.553 1.553 0 01.479 1.117 1.536 1.536 0 01-.48 1.116 1.572 1.572 0 01-1.144.435z" fill="#033C59"/><path d="M125.861 60.254v-9.59a10.802 10.802 0 00-3.224-7.67 11.06 11.06 0 00-7.764-3.178H55.257a11.06 11.06 0 00-7.762 3.179 10.805 10.805 0 00-3.225 7.669v1.83c.014.402.185.783.478 1.063a1.58 1.58 0 002.182 0c.293-.28.464-.66.478-1.063v-1.83a7.719 7.719 0 012.3-5.484 7.902 7.902 0 015.55-2.274h59.615a7.905 7.905 0 015.55 2.274 7.72 7.72 0 012.301 5.484v9.305h-10.976c-2.497 0-4.891.98-6.657 2.725a9.252 9.252 0 00-2.757 6.58c0 2.467.992 4.834 2.757 6.579a9.472 9.472 0 006.657 2.725h10.976v9.305a7.72 7.72 0 01-2.303 5.482 7.903 7.903 0 01-5.548 2.272h-20.39v-3.102a1.578 1.578 0 001.075-.473 1.542 1.542 0 000-2.157 1.578 1.578 0 00-1.075-.472V84.78c0-4.261-8.134-6.202-15.691-6.202a30.11 30.11 0 00-12.55 2.29V69.273c0-4.261-8.135-6.202-15.692-6.202-7.556 0-15.689 1.94-15.689 6.202v46.524c0 4.261 8.135 6.202 15.69 6.202 5.55 0 11.399-1.052 14.12-3.297 2.721 2.245 8.57 3.297 14.12 3.297 7.558 0 15.692-1.941 15.692-6.202v-17.06h20.39a11.06 11.06 0 007.763-3.182 10.802 10.802 0 003.22-7.672v-9.59a4.7 4.7 0 002.268-1.69 4.62 4.62 0 00.87-2.672v-9.305a4.62 4.62 0 00-.87-2.672 4.7 4.7 0 00-2.268-1.69m-34.517 47.778c0 .798-4.317 3.102-12.553 3.102-8.235 0-12.55-2.304-12.55-3.102v-3.838a30.135 30.135 0 0012.55 2.288 30.143 30.143 0 0012.553-2.288v3.838zM63.103 77.028c0 .796-4.317 3.1-12.553 3.1-8.235 0-12.55-2.304-12.55-3.1v-3.84a30.14 30.14 0 0012.55 2.288 30.14 30.14 0 0012.553-2.288v3.84zM50.55 83.23a30.127 30.127 0 0012.553-2.288v3.838c0 .798-4.317 3.103-12.553 3.103-8.235 0-12.55-2.305-12.55-3.103v-3.838a30.14 30.14 0 0012.55 2.288zm40.789 9.305c0 .798-4.317 3.102-12.553 3.102-8.235 0-12.55-2.304-12.55-3.102v-3.833a30.137 30.137 0 0012.55 2.29 30.14 30.14 0 0012.553-2.29v3.833zm0 7.754c0 .796-4.317 3.101-12.553 3.101-8.235 0-12.55-2.305-12.55-3.101v-3.84a30.136 30.136 0 0012.55 2.288 30.13 30.13 0 0012.553-2.288v3.84zm-40.794-9.304a30.142 30.142 0 0012.558-2.283v3.84c0 .798-4.317 3.102-12.553 3.102-8.235 0-12.55-2.311-12.55-3.11v-3.832a30.137 30.137 0 0012.55 2.29m0 7.753a30.14 30.14 0 0012.553-2.288v3.84c0 .796-4.317 3.1-12.553 3.1-8.235 0-12.55-2.312-12.55-3.108v-3.84a30.136 30.136 0 0012.55 2.288M38 104.204a30.135 30.135 0 0012.55 2.288 30.143 30.143 0 0012.553-2.288v3.838c0 .798-4.317 3.102-12.553 3.102-8.235 0-12.55-2.304-12.55-3.102v-3.838zM78.792 81.68c8.235 0 12.552 2.304 12.552 3.1 0 .796-4.317 3.103-12.552 3.103s-12.55-2.305-12.55-3.103c0-.797 4.315-3.1 12.55-3.1zM50.55 66.167c8.236 0 12.553 2.305 12.553 3.103 0 .797-4.308 3.105-12.553 3.105-8.244 0-12.55-2.304-12.55-3.102 0-.797 4.315-3.105 12.55-3.105zm0 52.728c-8.235 0-12.55-2.304-12.55-3.102v-3.829a30.152 30.152 0 0012.55 2.29 30.16 30.16 0 0012.553-2.29v3.84c0 .798-4.317 3.102-12.553 3.102m28.242 0c-8.235 0-12.55-2.304-12.55-3.102v-3.84a30.152 30.152 0 0012.55 2.29c4.3.14 8.58-.642 12.547-2.29v3.84c0 .798-4.317 3.102-12.553 3.102m47.07-44.973c0 .411-.166.805-.46 1.096a1.58 1.58 0 01-1.109.454h-12.539a6.314 6.314 0 01-4.438-1.817 6.17 6.17 0 01-1.838-4.385 6.17 6.17 0 011.838-4.386 6.313 6.313 0 014.438-1.817H124.3c.416 0 .815.163 1.109.454.294.29.459.685.459 1.096l-.012 9.305z" fill="#033C59"/><path d="M111.748 64.621c-.931 0-1.841.273-2.615.784a4.67 4.67 0 00-1.734 2.088 4.61 4.61 0 001.021 5.07 4.724 4.724 0 002.41 1.273c.913.18 1.859.088 2.719-.264a4.701 4.701 0 002.113-1.714 4.615 4.615 0 00.793-2.585 4.624 4.624 0 00-1.379-3.29 4.734 4.734 0 00-3.328-1.362zm0 6.203c-.31 0-.613-.092-.871-.263a1.534 1.534 0 01-.236-2.385 1.577 1.577 0 011.709-.335c.287.118.532.317.704.571a1.54 1.54 0 01-.705 2.294 1.589 1.589 0 01-.601.118z" fill="#033C59"/><path d="M29.179 39.744l-.28 1.454a9.49 9.49 0 01-2.484 4.636 9.662 9.662 0 01-4.59 2.633 9.618 9.618 0 014.596 2.628 9.446 9.446 0 012.478 4.642l.28 1.453.28-1.453a9.486 9.486 0 012.483-4.637 9.658 9.658 0 014.591-2.633 9.617 9.617 0 01-4.597-2.627 9.445 9.445 0 01-2.478-4.642l-.28-1.454z" fill="#FFD62B"/><path d="M21.47 49.922a8.182 8.182 0 013.898 2.252 8.036 8.036 0 012.09 3.956l.279 1.453c0 .386.155.756.43 1.028a1.48 1.48 0 002.081 0c.276-.272.43-.642.43-1.028l.28-1.453a8.038 8.038 0 012.066-3.943 8.183 8.183 0 013.862-2.265c.318-.08.6-.26.802-.516a1.443 1.443 0 000-1.789 1.473 1.473 0 00-.802-.516 8.186 8.186 0 01-3.907-2.27 8.04 8.04 0 01-2.08-3.981l-.25-1.396c0-.386-.155-.755-.43-1.028a1.48 1.48 0 00-2.08 0 1.445 1.445 0 00-.431 1.028l-.28 1.454a8.041 8.041 0 01-2.101 3.889 8.187 8.187 0 01-3.856 2.217 1.485 1.485 0 00-1.04.426A1.452 1.452 0 0020 48.468a1.438 1.438 0 00.43 1.028 1.472 1.472 0 001.04.426zm7.709-5.38a11.08 11.08 0 003.706 3.926 11.081 11.081 0 00-3.706 3.925 11.082 11.082 0 00-3.707-3.925 11.081 11.081 0 003.706-3.926z" fill="#033C59"/><path d="M110.277 102.838l-.167.863a5.626 5.626 0 01-1.473 2.75 5.732 5.732 0 01-2.723 1.563 5.703 5.703 0 012.728 1.559 5.6 5.6 0 011.47 2.755l.167.863.165-.863a5.635 5.635 0 011.474-2.751 5.741 5.741 0 012.724-1.562 5.698 5.698 0 01-2.727-1.558 5.603 5.603 0 01-1.471-2.754l-.167-.865z" fill="#FFD62B"/><path d="M105.706 108.875a4.861 4.861 0 012.311 1.338 4.767 4.767 0 011.24 2.346l.167.863c.01.222.107.431.269.585a.883.883 0 001.207 0 .861.861 0 00.269-.585l.165-.863a4.78 4.78 0 011.226-2.339 4.864 4.864 0 012.292-1.345.872.872 0 00.476-.305.855.855 0 000-1.061.873.873 0 00-.476-.306 4.856 4.856 0 01-2.318-1.347 4.763 4.763 0 01-1.234-2.362l-.149-.829a.874.874 0 00-.873-.823.874.874 0 00-.603.239.855.855 0 00-.269.584l-.166.864a4.76 4.76 0 01-1.247 2.306 4.863 4.863 0 01-2.287 1.316.865.865 0 00-.843 1.201.865.865 0 00.497.469.87.87 0 00.346.054zm4.571-3.191a6.552 6.552 0 002.207 2.33 6.563 6.563 0 00-2.207 2.328 6.578 6.578 0 00-2.206-2.328 6.566 6.566 0 002.206-2.33z" fill="#033C59"/></g><defs><clipPath id="clip0_143_153"><path fill="#fff" transform="translate(20 38)" d="M0 0h109v84H0z"/></clipPath></defs></svg>