<svg id="Group_1499" data-name="Group 1499" xmlns="http://www.w3.org/2000/svg" xmlns:xlink="http://www.w3.org/1999/xlink" width="66.955" height="64.81" viewBox="0 0 66.955 64.81">
  <defs>
    <clipPath id="clip-path">
      <rect id="Rectangle_1703" data-name="Rectangle 1703" width="66.955" height="64.81" fill="#95bf71"/>
    </clipPath>
  </defs>
  <g id="Group_1498" data-name="Group 1498" clip-path="url(#clip-path)">
    <path id="Path_4892" data-name="Path 4892" d="M31.311,63.533a31.752,31.752,0,0,1-16.269-4.7c-.7-.423-1.387-.871-2.036-1.332a1.214,1.214,0,1,1,1.405-1.979c.6.427,1.234.842,1.883,1.233,8.247,4.963,16.448,4.991,20.962,3.5a1.214,1.214,0,1,1,.758,2.306,21.854,21.854,0,0,1-6.7.966M4.27,43.568a1.212,1.212,0,0,1-1.135-.783A32.238,32.238,0,0,1,2,23.468a1.213,1.213,0,0,1,2.35.6A29.785,29.785,0,0,0,5.4,41.923a1.213,1.213,0,0,1-.7,1.565,1.2,1.2,0,0,1-.431.08m39.013-4.513a1.213,1.213,0,0,1-1.109-1.7,13.282,13.282,0,0,1,4.279-5.314,30.953,30.953,0,0,1,3.427-2.057c3.019-1.648,6.441-3.515,8.563-7.195a10.021,10.021,0,0,0,.961-8.164c-1.223-3.938-4.845-7.513-10.2-10.07C41.691.967,24.118,1.207,13.681,9.743a1.213,1.213,0,0,1-1.535-1.88c11.165-9.13,30.023-9.356,38.1-5.5C57.9,6.016,60.713,10.655,61.721,13.9A12.4,12.4,0,0,1,60.546,24c-2.463,4.269-6.367,6.4-9.5,8.112a29.608,29.608,0,0,0-3.151,1.881,10.838,10.838,0,0,0-3.5,4.339,1.213,1.213,0,0,1-1.112.723" transform="translate(0.218 0)" fill="#95bf71"/>
    <path id="Path_4893" data-name="Path 4893" d="M38.831,52.962a1.205,1.205,0,0,1-.575-.146C34.675,50.886,1.926,15.058.756,13.169c-1.039-1.678-1-3.543.084-4.641,1.107-1.1,2.973-1.13,4.65-.091,1.888,1.169,37.714,33.92,39.645,37.5A1.213,1.213,0,1,1,43,47.09C41.5,44.308,7.159,12.41,4.21,10.5c-.767-.473-1.454-.45-1.653-.255s-.212.88.263,1.648c1.909,2.95,33.806,37.29,36.588,38.789a1.213,1.213,0,0,1-.578,2.281" transform="translate(0 1.64)" fill="#95bf71"/>
    <path id="Path_4894" data-name="Path 4894" d="M43.224,56.084a13.371,13.371,0,0,1-3.432-.436c-5.695-1.524-7.276-5.993-6.338-9.5a7.07,7.07,0,0,1,3.092-4.311,8,8,0,0,1,6.317-.584c2.355.63,3.848,2.224,5.291,3.765,1.65,1.762,3.207,3.427,6.084,3.716a1.214,1.214,0,0,1,.729,2.074c-4.359,4.275-8.667,5.276-11.744,5.276M40.183,43.3a4.524,4.524,0,0,0-2.383.613,4.672,4.672,0,0,0-2,2.86c-.609,2.279.234,5.355,4.62,6.53,1.8.479,6.236,1.068,11.12-2.716a13.573,13.573,0,0,1-5.156-3.911c-1.32-1.411-2.461-2.63-4.148-3.081a7.986,7.986,0,0,0-2.052-.295" transform="translate(7.087 8.726)" fill="#95bf71"/>
    <path id="Path_4895" data-name="Path 4895" d="M42.724,22.233a5.751,5.751,0,1,1,5.751-5.752,5.757,5.757,0,0,1-5.751,5.752m0-9.075a3.324,3.324,0,1,0,3.324,3.324,3.327,3.327,0,0,0-3.324-3.324" transform="translate(7.892 2.291)" fill="#95bf71"/>
    <path id="Path_4896" data-name="Path 4896" d="M32.752,16A5.751,5.751,0,1,1,38.5,10.25,5.757,5.757,0,0,1,32.752,16m0-9.075a3.324,3.324,0,1,0,3.325,3.324,3.327,3.327,0,0,0-3.325-3.324" transform="translate(5.764 0.961)" fill="#95bf71"/>
    <path id="Path_4897" data-name="Path 4897" d="M21.534,18.494a5.751,5.751,0,1,1,5.751-5.752,5.758,5.758,0,0,1-5.751,5.752m0-9.075a3.324,3.324,0,1,0,3.324,3.324,3.328,3.328,0,0,0-3.324-3.324" transform="translate(3.369 1.493)" fill="#95bf71"/>
    <path id="Path_4898" data-name="Path 4898" d="M20.735,43.606a1.212,1.212,0,0,1-1.213-1.213V39.367a1.213,1.213,0,0,1,2.427,0v3.025a1.212,1.212,0,0,1-1.213,1.213" transform="translate(4.167 8.145)" fill="#95bf71"/>
    <path id="Path_4899" data-name="Path 4899" d="M20.735,48.591a1.212,1.212,0,0,1-1.213-1.213V44.353a1.213,1.213,0,1,1,2.427,0v3.024a1.212,1.212,0,0,1-1.213,1.213" transform="translate(4.167 9.209)" fill="#95bf71"/>
    <path id="Path_4900" data-name="Path 4900" d="M20.021,44.32H17a1.213,1.213,0,0,1,0-2.427h3.025a1.213,1.213,0,1,1,0,2.427" transform="translate(3.369 8.943)" fill="#95bf71"/>
    <path id="Path_4901" data-name="Path 4901" d="M25.007,44.32H21.981a1.213,1.213,0,0,1,0-2.427h3.025a1.213,1.213,0,0,1,0,2.427" transform="translate(4.433 8.943)" fill="#95bf71"/>
    <path id="Path_4902" data-name="Path 4902" d="M45.666,41.113a1.213,1.213,0,0,1-.858-2.071l3.025-3.025a1.213,1.213,0,0,1,1.716,1.716l-3.025,3.025a1.21,1.21,0,0,1-.858.356" transform="translate(9.489 7.612)" fill="#95bf71"/>
    <path id="Path_4903" data-name="Path 4903" d="M51.9,34.88a1.213,1.213,0,0,1-.858-2.071l3.025-3.025A1.213,1.213,0,0,1,55.781,31.5l-3.025,3.025a1.21,1.21,0,0,1-.858.356" transform="translate(10.819 6.282)" fill="#95bf71"/>
    <path id="Path_4904" data-name="Path 4904" d="M54.923,41.113a1.21,1.21,0,0,1-.858-.356L51.04,37.732a1.213,1.213,0,0,1,1.716-1.716l3.025,3.025a1.213,1.213,0,0,1-.858,2.071" transform="translate(10.819 7.612)" fill="#95bf71"/>
    <path id="Path_4905" data-name="Path 4905" d="M48.691,34.88a1.21,1.21,0,0,1-.858-.356L44.808,31.5a1.213,1.213,0,0,1,1.716-1.716l3.025,3.025a1.213,1.213,0,0,1-.858,2.071" transform="translate(9.489 6.282)" fill="#95bf71"/>
    <path id="Path_4906" data-name="Path 4906" d="M6.576,41.827H2.038a1.213,1.213,0,1,1,0-2.427H6.576a1.213,1.213,0,1,1,0,2.427" transform="translate(0.176 8.411)" fill="#95bf71"/>
    <path id="Path_4907" data-name="Path 4907" d="M15.3,41.827H10.763a1.213,1.213,0,1,1,0-2.427H15.3a1.213,1.213,0,1,1,0,2.427" transform="translate(2.039 8.411)" fill="#95bf71"/>
    <path id="Path_4908" data-name="Path 4908" d="M8.27,48.857a1.212,1.212,0,0,1-1.213-1.213V43.106a1.213,1.213,0,1,1,2.427,0v4.537A1.212,1.212,0,0,1,8.27,48.857" transform="translate(1.506 8.943)" fill="#95bf71"/>
    <path id="Path_4909" data-name="Path 4909" d="M8.27,40.133A1.212,1.212,0,0,1,7.057,38.92V34.381a1.213,1.213,0,1,1,2.427,0V38.92A1.212,1.212,0,0,1,8.27,40.133" transform="translate(1.506 7.08)" fill="#95bf71"/>
  </g>
</svg>
