<svg xmlns="http://www.w3.org/2000/svg" xmlns:xlink="http://www.w3.org/1999/xlink" width="67.774" height="57.5" viewBox="0 0 67.774 57.5">
  <defs>
    <clipPath id="clip-path">
      <rect id="Rectangle_1704" data-name="Rectangle 1704" width="67.774" height="57.5" fill="#95bf71"/>
    </clipPath>
  </defs>
  <g id="Group_1501" data-name="Group 1501" transform="translate(-7 0)">
    <g id="Group_1500" data-name="Group 1500" transform="translate(7 0)" clip-path="url(#clip-path)">
      <path id="Path_4910" data-name="Path 4910" d="M13.844,46.607a1.054,1.054,0,0,1-.792-1.751c2.682-3.047.663-6.619.642-6.656a1.054,1.054,0,0,1,.168-1.274l4.673-4.673a2.605,2.605,0,0,0,0-3.677l-.245-.243a.325.325,0,0,0-.461,0L7.961,38.2A1.054,1.054,0,0,1,6.47,36.709l9.868-9.868a2.436,2.436,0,0,1,3.442,0l.245.243a4.715,4.715,0,0,1,0,6.661l-4.142,4.142a7.919,7.919,0,0,1-1.248,8.364,1.051,1.051,0,0,1-.792.357" transform="translate(0.335 1.422)" fill="#95bf71"/>
      <path id="Path_4911" data-name="Path 4911" d="M1.054,54.832A1.053,1.053,0,0,1,0,53.777V50.2a1.055,1.055,0,0,1,1.048-1.054l22-.122h.006a1.055,1.055,0,0,1,1.054,1.054v3.576a1.054,1.054,0,1,1-2.109,0V51.14l-19.889.111v2.526a1.053,1.053,0,0,1-1.054,1.054" transform="translate(0 2.668)" fill="#95bf71"/>
      <path id="Path_4912" data-name="Path 4912" d="M18.113,52.269a1.053,1.053,0,0,1-1.054-1.054V47.351a1.054,1.054,0,0,1,.583-.944c5.232-2.613,3.489-8.748,3.413-9.008a1.054,1.054,0,0,1,2.022-.6c.792,2.684.932,8.335-3.91,11.176v3.237a1.053,1.053,0,0,1-1.054,1.054" transform="translate(0.928 1.962)" fill="#95bf71"/>
      <path id="Path_4913" data-name="Path 4913" d="M3.19,52.841a1.053,1.053,0,0,1-1.054-1.054V34.04a4.521,4.521,0,0,1,1.349-3.209l5.1-4.993a1.054,1.054,0,1,1,1.475,1.507l-5.1,4.993a2.4,2.4,0,0,0-.716,1.7V51.787A1.053,1.053,0,0,1,3.19,52.841" transform="translate(0.116 1.39)" fill="#95bf71"/>
      <path id="Path_4914" data-name="Path 4914" d="M51.219,46.607a1.051,1.051,0,0,1-.792-.357,7.919,7.919,0,0,1-1.248-8.364l-4.142-4.142a4.714,4.714,0,0,1,0-6.659l.247-.247a2.438,2.438,0,0,1,3.441,0l9.868,9.868A1.054,1.054,0,1,1,57.1,38.2l-9.868-9.868a.328.328,0,0,0-.46,0l-.247.247a2.6,2.6,0,0,0,0,3.675L51.2,36.926a1.054,1.054,0,0,1,.168,1.274,5.909,5.909,0,0,0,.642,6.656,1.054,1.054,0,0,1-.792,1.751" transform="translate(2.376 1.422)" fill="#95bf71"/>
      <path id="Path_4915" data-name="Path 4915" d="M64.466,54.832a1.053,1.053,0,0,1-1.054-1.054V51.251L43.523,51.14v2.515a1.054,1.054,0,0,1-2.109,0V50.079a1.055,1.055,0,0,1,1.054-1.054h.006l22,.122A1.055,1.055,0,0,1,65.52,50.2v3.576a1.053,1.053,0,0,1-1.054,1.054" transform="translate(2.254 2.668)" fill="#95bf71"/>
      <path id="Path_4916" data-name="Path 4916" d="M46.5,52.269a1.053,1.053,0,0,1-1.054-1.054V47.978c-4.842-2.841-4.7-8.492-3.91-11.176a1.055,1.055,0,0,1,2.023.6c-.076.26-1.79,6.41,3.412,9.009a1.054,1.054,0,0,1,.583.944v3.864A1.053,1.053,0,0,1,46.5,52.269" transform="translate(2.238 1.962)" fill="#95bf71"/>
      <path id="Path_4917" data-name="Path 4917" d="M61.512,52.841a1.053,1.053,0,0,1-1.054-1.054V34.04a2.4,2.4,0,0,0-.717-1.7l-5.1-4.992a1.054,1.054,0,1,1,1.475-1.507l5.1,4.992a4.522,4.522,0,0,1,1.35,3.21V51.787a1.053,1.053,0,0,1-1.054,1.054" transform="translate(2.957 1.39)" fill="#95bf71"/>
      <path id="Path_4918" data-name="Path 4918" d="M8.968,37.562a1.053,1.053,0,0,1-1.054-1.054V1.054A1.053,1.053,0,0,1,8.968,0H57.7a1.053,1.053,0,0,1,1.054,1.054V35.737a1.054,1.054,0,0,1-2.109,0V2.109H10.023v34.4a1.053,1.053,0,0,1-1.054,1.054" transform="translate(0.431 0)" fill="#95bf71"/>
      <path id="Path_4919" data-name="Path 4919" d="M45.928,34.9H20.794a1.054,1.054,0,0,1,0-2.109H45.928a1.054,1.054,0,1,1,0,2.109" transform="translate(1.074 1.785)" fill="#95bf71"/>
      <path id="Path_4920" data-name="Path 4920" d="M13.987,24.045a1.054,1.054,0,0,1-.842-1.688l8.391-11.175a1.057,1.057,0,0,1,.8-.421,1.021,1.021,0,0,1,.83.346l8.992,9.934a1.054,1.054,0,0,1-1.564,1.415L22.455,13.47,14.832,23.624a1.056,1.056,0,0,1-.845.421" transform="translate(0.704 0.585)" fill="#95bf71"/>
      <path id="Path_4921" data-name="Path 4921" d="M41.776,23.981a1.052,1.052,0,0,1-.745-.309l-9.187-9.188-2.98,2.979a1.054,1.054,0,0,1-1.491-1.491L31.1,12.247a1.053,1.053,0,0,1,1.491,0l9.933,9.934a1.054,1.054,0,0,1-.745,1.8" transform="translate(1.473 0.65)" fill="#95bf71"/>
      <path id="Path_4922" data-name="Path 4922" d="M44.688,15.31a4.517,4.517,0,1,1,4.517-4.517,4.523,4.523,0,0,1-4.517,4.517m0-6.925A2.408,2.408,0,1,0,47.1,10.793a2.41,2.41,0,0,0-2.408-2.408" transform="translate(2.186 0.341)" fill="#95bf71"/>
    </g>
  </g>
</svg>
