<svg xmlns="http://www.w3.org/2000/svg" xmlns:xlink="http://www.w3.org/1999/xlink" width="61.748" height="75.621" viewBox="0 0 61.748 75.621">
  <defs>
    <clipPath id="clip-path">
      <rect id="Rectangle_1705" data-name="Rectangle 1705" width="61.748" height="75.621" fill="none"/>
    </clipPath>
  </defs>
  <g id="Group_1503" data-name="Group 1503" transform="translate(-11 0)">
    <g id="Group_1502" data-name="Group 1502" transform="translate(11 0)" clip-path="url(#clip-path)">
      <path id="Path_4923" data-name="Path 4923" d="M37.726,19.8H17.546a1.237,1.237,0,1,1,0-2.474H37.726a1.237,1.237,0,0,1,0,2.474" transform="translate(3.869 4.111)" fill="#95bf71"/>
      <path id="Path_4924" data-name="Path 4924" d="M31.713,23.88H21.624a1.237,1.237,0,0,1,0-2.474H31.713a1.237,1.237,0,1,1,0,2.474" transform="translate(4.836 5.078)" fill="#95bf71"/>
      <path id="Path_4925" data-name="Path 4925" d="M21.417,55.669H5.022A5.027,5.027,0,0,1,0,50.648V48.125a1.238,1.238,0,0,1,1.237-1.237H8.805a1.237,1.237,0,1,1,0,2.474H2.474v1.285a2.55,2.55,0,0,0,2.547,2.546H21.417a1.237,1.237,0,1,1,0,2.474" transform="translate(0 11.123)" fill="#95bf71"/>
      <path id="Path_4926" data-name="Path 4926" d="M42.684,65.583H33.856a1.237,1.237,0,1,1,0-2.474h8.828a2.549,2.549,0,0,0,2.546-2.546V6.333a1.237,1.237,0,1,1,2.474,0V60.562a5.027,5.027,0,0,1-5.021,5.021" transform="translate(7.738 1.209)" fill="#95bf71"/>
      <path id="Path_4927" data-name="Path 4927" d="M4.3,66.793a1.237,1.237,0,1,1,0-2.474,2.549,2.549,0,0,0,2.546-2.546V5.021A5.026,5.026,0,0,1,11.861,0H56a5.027,5.027,0,0,1,5.021,5.021V7.543a1.236,1.236,0,0,1-1.237,1.237H15.646a1.236,1.236,0,0,1-1.237-1.237V5.021a2.546,2.546,0,1,0-5.092,0V61.773A5.027,5.027,0,0,1,4.3,66.793M16.883,6.306H58.548V5.021A2.549,2.549,0,0,0,56,2.474H16.188a4.99,4.99,0,0,1,.7,2.546Z" transform="translate(0.725 0)" fill="#95bf71"/>
      <path id="Path_4928" data-name="Path 4928" d="M31.713,65.224a1.223,1.223,0,0,1-.741-.249l-4.3-3.227-4.3,3.227a1.236,1.236,0,0,1-1.978-.989V45.069a1.236,1.236,0,0,1,1.237-1.237H31.713a1.236,1.236,0,0,1,1.237,1.237V63.987a1.239,1.239,0,0,1-1.237,1.237m-5.044-6.259a1.231,1.231,0,0,1,.742.247l3.065,2.3V46.306H22.861V61.512l3.065-2.3a1.231,1.231,0,0,1,.742-.247" transform="translate(4.836 10.398)" fill="#95bf71"/>
      <path id="Path_4929" data-name="Path 4929" d="M27.64,33.266h0A3.772,3.772,0,0,1,34.474,36.1,3.772,3.772,0,0,1,37.3,42.93a3.772,3.772,0,0,1-2.831,6.833,3.772,3.772,0,0,1-6.833,2.831,3.772,3.772,0,0,1-6.833-2.831,3.772,3.772,0,0,1-2.831-6.833A3.772,3.772,0,0,1,20.807,36.1a3.772,3.772,0,0,1,6.833-2.831" transform="translate(3.865 7.492)" fill="#fff"/>
      <path id="Path_4930" data-name="Path 4930" d="M30.939,55.752a4.754,4.754,0,0,1-3.062-1.086,5.049,5.049,0,0,1-8.13-3.368,5.05,5.05,0,0,1-3.369-8.131,5.051,5.051,0,0,1,3.369-8.131,5.051,5.051,0,0,1,8.13-3.368,5.051,5.051,0,0,1,8.131,3.368,5.052,5.052,0,0,1,3.369,8.131A5.051,5.051,0,0,1,36.008,51.3a4.948,4.948,0,0,1-3.082,4.059,5.2,5.2,0,0,1-1.987.395m-3.062-4.158a1.237,1.237,0,0,1,1.027.547,2.535,2.535,0,0,0,4.593-1.9,1.239,1.239,0,0,1,.339-1.114,1.252,1.252,0,0,1,1.115-.34,2.534,2.534,0,0,0,1.9-4.59,1.238,1.238,0,0,1,0-2.055,2.535,2.535,0,0,0-1.9-4.593A1.237,1.237,0,0,1,33.5,36.1a2.535,2.535,0,0,0-4.593-1.9,1.237,1.237,0,0,1-2.054,0,2.535,2.535,0,0,0-4.591,1.9,1.237,1.237,0,0,1-1.454,1.453,2.535,2.535,0,0,0-1.9,4.593,1.238,1.238,0,0,1,0,2.055,2.534,2.534,0,0,0,1.9,4.59,1.239,1.239,0,0,1,1.454,1.454,2.535,2.535,0,0,0,4.591,1.9,1.235,1.235,0,0,1,1.027-.548" transform="translate(3.628 7.255)" fill="#95bf71"/>
      <path id="Path_4931" data-name="Path 4931" d="M26.427,46.736a5.021,5.021,0,1,1,5.022-5.019,5.026,5.026,0,0,1-5.022,5.019m0-7.567a2.546,2.546,0,1,0,2.547,2.547,2.55,2.55,0,0,0-2.547-2.547" transform="translate(5.078 8.705)" fill="#95bf71"/>
    </g>
  </g>
</svg>
