<svg id="Group_1518" data-name="Group 1518" xmlns="http://www.w3.org/2000/svg" xmlns:xlink="http://www.w3.org/1999/xlink" width="37.874" height="37.874" viewBox="0 0 37.874 37.874">
  <defs>
    <clipPath id="clip-path">
      <rect id="Rectangle_1708" data-name="Rectangle 1708" width="37.874" height="37.874" fill="#95bf71"/>
    </clipPath>
  </defs>
  <g id="Group_1517" data-name="Group 1517" clip-path="url(#clip-path)">
    <path id="Path_4945" data-name="Path 4945" d="M18.937,37.874A18.937,18.937,0,1,1,37.873,18.937,18.958,18.958,0,0,1,18.937,37.874m0-36.322A17.385,17.385,0,1,0,36.322,18.937,17.4,17.4,0,0,0,18.937,1.552" transform="translate(0 0)" fill="#95bf71"/>
    <path id="Path_4946" data-name="Path 4946" d="M24.666,25.066H23.334a2.267,2.267,0,0,1-2.21-2.121l-.955-10.182a2.413,2.413,0,0,1,.605-1.847,2.12,2.12,0,0,1,1.58-.71h3.294a2.123,2.123,0,0,1,1.581.71,2.408,2.408,0,0,1,.6,1.848l-.953,10.182a2.267,2.267,0,0,1-2.211,2.121m-2.313-13.1a.384.384,0,0,0-.279.136.646.646,0,0,0-.154.5l.955,10.181a.531.531,0,0,0,.458.527h1.333a.53.53,0,0,0,.459-.526L26.079,12.6a.645.645,0,0,0-.153-.5.384.384,0,0,0-.279-.136Z" transform="translate(-5.063 -2.563)" fill="#95bf71"/>
    <path id="Path_4947" data-name="Path 4947" d="M24.219,38.233a3.189,3.189,0,1,1,3.189-3.189,3.193,3.193,0,0,1-3.189,3.189m0-4.619a1.43,1.43,0,1,0,1.43,1.43,1.431,1.431,0,0,0-1.43-1.43" transform="translate(-5.283 -8.002)" fill="#95bf71"/>
  </g>
</svg>
