<svg xmlns="http://www.w3.org/2000/svg" xmlns:xlink="http://www.w3.org/1999/xlink" width="59.492" height="73.466" viewBox="0 0 59.492 73.466">
  <defs>
    <clipPath id="clip-path">
      <rect id="Rectangle_1701" data-name="Rectangle 1701" width="59.492" height="73.466" fill="#95bf71"/>
    </clipPath>
  </defs>
  <g id="Group_1495" data-name="Group 1495" transform="translate(0 0)">
    <g id="Group_1494" data-name="Group 1494" transform="translate(0 0)" clip-path="url(#clip-path)">
      <path id="Path_4868" data-name="Path 4868" d="M25.405,56.422a1.2,1.2,0,0,1-1.172-1.472,22.192,22.192,0,0,1,5.937-10.71L47.288,27.123a3.76,3.76,0,0,1,5.313,0l.9.9a3.76,3.76,0,0,1,0,5.313L36.386,50.455a22.2,22.2,0,0,1-10.71,5.937,1.294,1.294,0,0,1-.27.03m24.539-28a1.348,1.348,0,0,0-.957.4L31.87,45.939a19.784,19.784,0,0,0-4.712,7.528,19.748,19.748,0,0,0,7.528-4.712L51.8,31.639a1.357,1.357,0,0,0,0-1.914l-.9-.9a1.348,1.348,0,0,0-.957-.4" transform="translate(4.889 5.257)" fill="#95bf71"/>
      <path id="Path_4869" data-name="Path 4869" d="M42.063,45.754a1.2,1.2,0,0,1-.85-2.052l5.419-5.419a1.357,1.357,0,0,0,0-1.914l-5.419-5.418a1.2,1.2,0,1,1,1.7-1.7l5.419,5.419a3.76,3.76,0,0,1,0,5.313L42.913,45.4a1.2,1.2,0,0,1-.85.352" transform="translate(8.255 5.838)" fill="#95bf71"/>
      <path id="Path_4870" data-name="Path 4870" d="M38.238,44.16a1.2,1.2,0,0,1-.85-.352l-4.516-4.516a1.2,1.2,0,0,1,1.7-1.7l4.516,4.516a1.2,1.2,0,0,1-.85,2.052" transform="translate(6.57 7.523)" fill="#95bf71"/>
      <path id="Path_4871" data-name="Path 4871" d="M48.508,72.168H3.983A4.151,4.151,0,0,1,0,67.877V10.717A4.151,4.151,0,0,1,3.983,6.426H9.549a1.2,1.2,0,1,1,0,2.4H3.983A1.756,1.756,0,0,0,2.4,10.717v57.16a1.756,1.756,0,0,0,1.579,1.887H48.508a1.755,1.755,0,0,0,1.581-1.887v-12.5a1.2,1.2,0,1,1,2.4,0v12.5a4.152,4.152,0,0,1-3.985,4.291" transform="translate(0 1.298)" fill="#95bf71"/>
      <path id="Path_4872" data-name="Path 4872" d="M44.276,30.161a1.2,1.2,0,0,1-1.2-1.2V10.717A1.756,1.756,0,0,0,41.493,8.83H35.928a1.2,1.2,0,1,1,0-2.4h5.565a4.151,4.151,0,0,1,3.985,4.291V28.959a1.2,1.2,0,0,1-1.2,1.2" transform="translate(7.015 1.298)" fill="#95bf71"/>
      <path id="Path_4873" data-name="Path 4873" d="M44.791,64.95H5.832a1.2,1.2,0,0,1-1.2-1.2V12.768a1.2,1.2,0,0,1,1.2-1.2H8.613a1.2,1.2,0,1,1,0,2.4H7.034V62.546H43.589V56.74a1.2,1.2,0,1,1,2.4,0v7.008a1.2,1.2,0,0,1-1.2,1.2" transform="translate(0.935 2.336)" fill="#95bf71"/>
      <path id="Path_4874" data-name="Path 4874" d="M38.711,32.325a1.2,1.2,0,0,1-1.2-1.2V13.97H35.928a1.2,1.2,0,1,1,0-2.4h2.783a1.2,1.2,0,0,1,1.2,1.2V31.123a1.2,1.2,0,0,1-1.2,1.2" transform="translate(7.015 2.336)" fill="#95bf71"/>
      <path id="Path_4875" data-name="Path 4875" d="M38.289,17.851H10.462a1.2,1.2,0,0,1-1.2-1.2V12.016a5.627,5.627,0,0,1,5.377-5.837H17.7A6.984,6.984,0,0,1,24.375,0a6.986,6.986,0,0,1,6.678,6.18h3.062a5.626,5.626,0,0,1,5.375,5.837v4.634a1.2,1.2,0,0,1-1.2,1.2m-26.625-2.4H37.087V12.016a3.231,3.231,0,0,0-2.971-3.433H29.941a1.2,1.2,0,0,1-1.2-1.2c0-2.744-1.957-4.978-4.363-4.978s-4.363,2.233-4.363,4.978a1.2,1.2,0,0,1-1.2,1.2H14.637a3.231,3.231,0,0,0-2.973,3.433Z" transform="translate(1.871 0)" fill="#95bf71"/>
      <path id="Path_4876" data-name="Path 4876" d="M14.419,28.886a1.2,1.2,0,0,1-.781-.29L10.7,26.083a1.2,1.2,0,1,1,1.564-1.825l2,1.716,3.2-3.874a1.2,1.2,0,0,1,1.852,1.531l-3.979,4.818a1.194,1.194,0,0,1-.823.432.992.992,0,0,1-.1,0" transform="translate(2.078 4.376)" fill="#95bf71"/>
      <path id="Path_4877" data-name="Path 4877" d="M14.419,36.552a1.2,1.2,0,0,1-.781-.288L10.7,33.75a1.2,1.2,0,0,1,1.564-1.827l2,1.718,3.2-3.873A1.2,1.2,0,0,1,19.324,31.3l-3.979,4.816a1.194,1.194,0,0,1-.823.432,1.007,1.007,0,0,1-.1,0" transform="translate(2.078 5.925)" fill="#95bf71"/>
      <path id="Path_4878" data-name="Path 4878" d="M14.419,44.219a1.2,1.2,0,0,1-.781-.29L10.7,41.416a1.2,1.2,0,1,1,1.564-1.825l2,1.716,3.2-3.874a1.2,1.2,0,0,1,1.852,1.531l-3.979,4.818a1.194,1.194,0,0,1-.823.432.991.991,0,0,1-.1,0" transform="translate(2.078 7.474)" fill="#95bf71"/>
      <path id="Path_4879" data-name="Path 4879" d="M30.09,25.985H22.027a1.2,1.2,0,0,1,0-2.4H30.09a1.2,1.2,0,1,1,0,2.4" transform="translate(4.207 4.764)" fill="#95bf71"/>
      <path id="Path_4880" data-name="Path 4880" d="M30.09,33.651H22.027a1.2,1.2,0,0,1,0-2.4H30.09a1.2,1.2,0,0,1,0,2.4" transform="translate(4.207 6.312)" fill="#95bf71"/>
      <path id="Path_4881" data-name="Path 4881" d="M30.09,41.318H22.027a1.2,1.2,0,0,1,0-2.4H30.09a1.2,1.2,0,1,1,0,2.4" transform="translate(4.207 7.861)" fill="#95bf71"/>
    </g>
  </g>
</svg>
