<svg xmlns="http://www.w3.org/2000/svg" xmlns:xlink="http://www.w3.org/1999/xlink" width="72.116" height="71.347" viewBox="0 0 72.116 71.347">
  <defs>
    <clipPath id="clip-path">
      <rect id="Rectangle_1702" data-name="Rectangle 1702" width="72.116" height="71.347" fill="#95bf71"/>
    </clipPath>
  </defs>
  <g id="Group_1497" data-name="Group 1497" transform="translate(-6 0)">
    <g id="Group_1496" data-name="Group 1496" transform="translate(6 0)" clip-path="url(#clip-path)">
      <path id="Path_4882" data-name="Path 4882" d="M39.018,33.438a1.27,1.27,0,0,1-1.138-.7L35.072,27.12l-5.617-2.808a1.275,1.275,0,0,1,0-2.278l5.617-2.807,2.808-5.616a1.274,1.274,0,0,1,2.277,0l2.807,5.616,5.617,2.807a1.274,1.274,0,0,1,0,2.278L42.964,27.12l-2.807,5.616a1.272,1.272,0,0,1-1.139.7M32.872,23.173l3.718,1.86a1.281,1.281,0,0,1,.569.569l1.86,3.718L40.876,25.6a1.281,1.281,0,0,1,.569-.569l3.719-1.86-3.719-1.858a1.281,1.281,0,0,1-.569-.569l-1.858-3.718-1.86,3.718a1.281,1.281,0,0,1-.569.569Z" transform="translate(7.844 3.521)" fill="#95bf71"/>
      <path id="Path_4883" data-name="Path 4883" d="M47.26,20.473h0a1.27,1.27,0,0,1-1.138-.7l-2.807-5.616L37.7,11.348a1.275,1.275,0,0,1,0-2.278l5.617-2.808L46.122.647a1.326,1.326,0,0,1,2.277,0l2.808,5.616L56.823,9.07a1.274,1.274,0,0,1,0,2.278l-5.616,2.807L48.4,19.77a1.273,1.273,0,0,1-1.139.7M41.115,10.209l3.718,1.858a1.281,1.281,0,0,1,.569.569l1.858,3.718,1.86-3.718a1.281,1.281,0,0,1,.569-.569l3.718-1.858L49.688,8.35a1.281,1.281,0,0,1-.569-.569L47.26,4.063,45.4,7.781a1.281,1.281,0,0,1-.569.569Z" transform="translate(10.093 0)" fill="#95bf71"/>
      <path id="Path_4884" data-name="Path 4884" d="M52.4,19.629a1.272,1.272,0,0,1-1.273-1.273v-3a1.273,1.273,0,1,1,2.546,0v3A1.272,1.272,0,0,1,52.4,19.629" transform="translate(13.948 3.842)" fill="#95bf71"/>
      <path id="Path_4885" data-name="Path 4885" d="M52.4,24.339a1.272,1.272,0,0,1-1.273-1.273v-3a1.273,1.273,0,1,1,2.546,0v3A1.272,1.272,0,0,1,52.4,24.339" transform="translate(13.948 5.128)" fill="#95bf71"/>
      <path id="Path_4886" data-name="Path 4886" d="M56.574,20.165h-3a1.273,1.273,0,0,1,0-2.546h3a1.273,1.273,0,1,1,0,2.546" transform="translate(14.269 4.806)" fill="#95bf71"/>
      <path id="Path_4887" data-name="Path 4887" d="M51.863,20.165h-3a1.273,1.273,0,0,1,0-2.546h3a1.273,1.273,0,0,1,0,2.546" transform="translate(12.984 4.806)" fill="#95bf71"/>
      <path id="Path_4888" data-name="Path 4888" d="M58.29,52.924H8.83a1.272,1.272,0,0,1-1.273-1.273V14.182A1.272,1.272,0,0,1,8.83,12.909H37.306a1.273,1.273,0,1,1,0,2.546H10.1V50.378H57.017V26.17a1.273,1.273,0,0,1,2.546,0v25.48a1.272,1.272,0,0,1-1.273,1.273" transform="translate(2.062 3.521)" fill="#95bf71"/>
      <path id="Path_4889" data-name="Path 4889" d="M5.9,64.724a1.272,1.272,0,0,1-1.261-1.115L.01,26.426a1.272,1.272,0,0,1,1.106-1.42l5.747-.715a1.273,1.273,0,0,1,.313,2.527l-4.482.557L7.011,62.03l46.554-5.8-.395-3.168A1.272,1.272,0,1,1,55.7,52.75l.554,4.432a1.272,1.272,0,0,1-1.1,1.42L6.062,64.714a1.353,1.353,0,0,1-.159.01" transform="translate(0 6.623)" fill="#95bf71"/>
      <path id="Path_4890" data-name="Path 4890" d="M13.54,43.074a1.273,1.273,0,0,1-1.017-2.038L22.652,27.547a1.276,1.276,0,0,1,.96-.508,1.255,1.255,0,0,1,1,.417L35.467,39.448a1.273,1.273,0,0,1-1.888,1.708L23.761,30.309l-9.2,12.257a1.274,1.274,0,0,1-1.02.508" transform="translate(3.347 7.376)" fill="#95bf71"/>
      <path id="Path_4891" data-name="Path 4891" d="M44.158,42.75a1.269,1.269,0,0,1-.9-.373L32.168,31.285l-3.6,3.6a1.273,1.273,0,1,1-1.8-1.8l4.5-4.5a1.31,1.31,0,0,1,1.8,0l11.99,11.991a1.273,1.273,0,0,1-.9,2.173" transform="translate(7.201 7.7)" fill="#95bf71"/>
    </g>
  </g>
</svg>
