<svg xmlns="http://www.w3.org/2000/svg" xmlns:xlink="http://www.w3.org/1999/xlink" width="282.471" height="78.318" viewBox="0 0 282.471 78.318">
  <defs>
    <clipPath id="clip-path">
      <rect id="Rectangle_4809" data-name="Rectangle 4809" width="282.471" height="78.318" fill="none"/>
    </clipPath>
  </defs>
  <g id="Group_2160" data-name="Group 2160" transform="translate(0 52)">
    <g id="Group_2145" data-name="Group 2145" transform="translate(0 -52)" clip-path="url(#clip-path)">
      <path id="Path_7849" data-name="Path 7849" d="M560.5,107.6a2.192,2.192,0,1,1,2.192,2.173A2.159,2.159,0,0,1,560.5,107.6m4.079-.009a1.886,1.886,0,1,0-1.887,1.905,1.845,1.845,0,0,0,1.887-1.905m-2.618-1.166h.741c.494,0,.819.218.819.662v.01a.576.576,0,0,1-.5.6l.642.977h-.4l-.6-.918h-.326v.918h-.366Zm.731,1.056c.316,0,.474-.128.474-.375V107.1c0-.276-.168-.385-.474-.385h-.365v.77Z" transform="translate(-282.416 -53.113)" fill="#25262a"/>
      <path id="Path_7850" data-name="Path 7850" d="M459.325,6.855a.745.745,0,0,0,.284-1.056L456.138.342a.7.7,0,0,0-.993-.228A39.878,39.878,0,0,0,437.184,33.4v22.5a.757.757,0,0,0,.784.749h6.365a.752.752,0,0,0,.782-.732V33.4A31.844,31.844,0,0,1,459.325,6.855" transform="translate(-220.281 0)" fill="#25262a"/>
      <path id="Path_7851" data-name="Path 7851" d="M41.045,42.454l-.078,1.685a16.588,16.588,0,1,1,.085-1.685Zm.765-17.317a24.491,24.491,0,1,0-.844,35.44v2.3a16.557,16.557,0,0,1-27.749,12.2.753.753,0,0,0-.954-.062L7.6,79.686a.733.733,0,0,0-.031.965A24.486,24.486,0,0,0,48.9,62.877s.086-19.759.086-20.423A24.425,24.425,0,0,0,41.81,25.137" transform="translate(0 -9.05)" fill="#25262a"/>
      <path id="Path_7852" data-name="Path 7852" d="M258.26,42.454l-.078,1.685a16.592,16.592,0,1,1,.085-1.685Zm.764-17.317a24.491,24.491,0,1,0-.844,35.44v2.3a16.557,16.557,0,0,1-27.749,12.2.752.752,0,0,0-.953-.062l-4.667,4.668a.735.735,0,0,0-.031.965,24.485,24.485,0,0,0,41.331-17.774s.086-19.759.086-20.423a24.422,24.422,0,0,0-7.173-17.317" transform="translate(-109.446 -9.05)" fill="#25262a"/>
      <path id="Path_7853" data-name="Path 7853" d="M362.422,54.163a16.56,16.56,0,1,1,4.85-11.709,16.489,16.489,0,0,1-4.85,11.709m5.607-29.026A24.487,24.487,0,1,0,375.2,42.454a24.428,24.428,0,0,0-7.175-17.317" transform="translate(-164.37 -9.05)" fill="#25262a"/>
      <path id="Path_7854" data-name="Path 7854" d="M144.652,54.163a16.56,16.56,0,1,1,4.85-11.709,16.485,16.485,0,0,1-4.85,11.709m5.608-29.026a24.491,24.491,0,1,0,7.173,17.317,24.433,24.433,0,0,0-7.173-17.317" transform="translate(-54.644 -9.05)" fill="#25262a"/>
      <path id="Path_7855" data-name="Path 7855" d="M504.4,54.163a16.56,16.56,0,1,1,4.85-11.709,16.485,16.485,0,0,1-4.85,11.709m5.609-29.026a24.492,24.492,0,1,0,7.172,17.317,24.436,24.436,0,0,0-7.172-17.317" transform="translate(-235.909 -9.05)" fill="#25262a"/>
    </g>
  </g>
</svg>
