<svg xmlns="http://www.w3.org/2000/svg" xmlns:xlink="http://www.w3.org/1999/xlink" width="39.101" height="42.936" viewBox="0 0 39.101 42.936">
  <defs>
    <clipPath id="clip-path">
      <rect id="Rectangle_1737" data-name="Rectangle 1737" width="24.789" height="35.266" fill="none"/>
    </clipPath>
  </defs>
  <g id="Group_1549" data-name="Group 1549" transform="translate(17.633) rotate(30)">
    <g id="Group_1546" data-name="Group 1546" clip-path="url(#clip-path)">
      <path id="Path_5167" data-name="Path 5167" d="M20.862,6.671c3.088,5.859,1.258,12.893-4.089,15.711s-12.184.354-15.272-5.5S.243,3.985,5.59,1.166s12.184-.353,15.272,5.5" transform="translate(0 0)" fill="#52ba86"/>
      <path id="Path_5168" data-name="Path 5168" d="M13.681,29.766,0,0,17.1,27.962s-1.635,2.057-3.423,1.8" transform="translate(7.685 5.478)" fill="#716558"/>
      <path id="Path_5169" data-name="Path 5169" d="M0,5.321.329,0l.821,7.5Z" transform="translate(12.211 8.405)" fill="#716558"/>
      <path id="Path_5170" data-name="Path 5170" d="M.054,6.047,0,0,1.168,8.16Z" transform="translate(14.976 13.028)" fill="#716558"/>
      <path id="Path_5171" data-name="Path 5171" d="M4.645,2.868,0,0,5.794,5.047Z" transform="translate(8.436 13.184)" fill="#716558"/>
      <path id="Path_5172" data-name="Path 5172" d="M1.729.489A.917.917,0,1,1,.49.106.917.917,0,0,1,1.729.489" transform="translate(3.933 14.157)" fill="#ec5883"/>
      <path id="Path_5173" data-name="Path 5173" d="M1.729.49A.917.917,0,1,1,.49.106.917.917,0,0,1,1.729.49" transform="translate(3.86 7.13)" fill="#ec5883"/>
      <path id="Path_5174" data-name="Path 5174" d="M1.729.489A.917.917,0,1,1,.49.106.917.917,0,0,1,1.729.489" transform="translate(14.759 7.413)" fill="#ec5883"/>
      <path id="Path_5175" data-name="Path 5175" d="M1.729.489A.917.917,0,1,1,.49.106.918.918,0,0,1,1.729.489" transform="translate(17.543 14.662)" fill="#ec5883"/>
      <path id="Path_5176" data-name="Path 5176" d="M1.729.489A.917.917,0,1,1,.489.106a.917.917,0,0,1,1.24.383" transform="translate(8.931 2.384)" fill="#ec5883"/>
      <path id="Path_5177" data-name="Path 5177" d="M1.729.49A.917.917,0,1,1,.49.106.917.917,0,0,1,1.729.49" transform="translate(9.514 17.858)" fill="#ec5883"/>
    </g>
  </g>
</svg>
