<svg xmlns="http://www.w3.org/2000/svg" xmlns:xlink="http://www.w3.org/1999/xlink" width="41.511" height="42.02" viewBox="0 0 41.511 42.02">
  <defs>
    <clipPath id="clip-path">
      <rect id="Rectangle_1694" data-name="Rectangle 1694" width="38.272" height="38.832" fill="none"/>
    </clipPath>
  </defs>
  <g id="Group_2096" data-name="Group 2096" transform="translate(3.384) rotate(5)">
    <g id="Group_1482" data-name="Group 1482" clip-path="url(#clip-path)">
      <path id="Path_4857" data-name="Path 4857" d="M16.71.026A16.752,16.752,0,0,1,23.977,2,20.2,20.2,0,0,1,29.71,6.414a12.647,12.647,0,0,1,3.146,5.546,5.633,5.633,0,0,1-.611,3.918,6.622,6.622,0,0,1-5.506,3.658,22.717,22.717,0,0,1-3.324.125,18.7,18.7,0,0,0-2.854.083,3.168,3.168,0,0,0-.838.217,1.534,1.534,0,0,0-.99,1.394,5.336,5.336,0,0,0,.3,1.92,3.525,3.525,0,0,0,.117.342c.4.973-.119,1.434-.813,1.688a7.5,7.5,0,0,1-3.219.31A21.682,21.682,0,0,1,9.787,24.5a18.653,18.653,0,0,1-6.252-3.417A9.317,9.317,0,0,1,.075,15.2a10.087,10.087,0,0,1,.28-3.8A14.151,14.151,0,0,1,4.484,4.416a15.533,15.533,0,0,1,3.9-2.663A17.359,17.359,0,0,1,13.815.162,14.892,14.892,0,0,1,16.71.026" transform="translate(0 0)" fill="#e9d0ab"/>
      <path id="Path_4858" data-name="Path 4858" d="M16.909,58.112a2.9,2.9,0,1,0,3.064-2.761,2.876,2.876,0,0,0-3.064,2.761" transform="translate(-12.734 -41.704)" fill="#3e7b83"/>
      <path id="Path_4859" data-name="Path 4859" d="M21.818,30.328a2.851,2.851,0,0,0,3.025-2.745,2.9,2.9,0,1,0-5.791-.261,2.85,2.85,0,0,0,2.766,3.005" transform="translate(-14.354 -18.488)" fill="#c9a9cd"/>
      <path id="Path_4860" data-name="Path 4860" d="M84.015,21.08a2.871,2.871,0,0,0,3.034-2.741,2.9,2.9,0,1,0-5.8-.258,2.851,2.851,0,0,0,2.764,3" transform="translate(-61.225 -11.526)" fill="#cdc8b8"/>
      <path id="Path_4861" data-name="Path 4861" d="M47.5,11.014a2.839,2.839,0,0,0,2.714,3.054,2.9,2.9,0,1,0,.328-5.787A2.85,2.85,0,0,0,47.5,11.014" transform="translate(-35.792 -6.237)" fill="#b05c5e"/>
      <path id="Path_4862" data-name="Path 4862" d="M87.7,56.923a2.384,2.384,0,0,0,2.519-2.22,2.419,2.419,0,0,0-2.278-2.549,2.387,2.387,0,0,0-.241,4.768" transform="translate(-64.392 -39.297)" fill="#f1e7d7"/>
      <path id="Path_4863" data-name="Path 4863" d="M84.015,21.08a2.871,2.871,0,0,0,3.034-2.741,2.9,2.9,0,1,0-5.8-.258,2.851,2.851,0,0,0,2.764,3" transform="translate(-61.225 -11.526)" fill="#59a6b9"/>
      <path id="Path_4864" data-name="Path 4864" d="M67.389,131.461a1.811,1.811,0,0,1,1.757-1.986,2.984,2.984,0,0,0,2.579-2,3.653,3.653,0,0,0-1.378-3.937,2.849,2.849,0,0,0-4.071,1.1c-1.654,2.756.046,5.907.352,6.34.13.184.751.876.76.484" transform="translate(-49.405 -92.748)" fill="#255e60"/>
      <path id="Path_4865" data-name="Path 4865" d="M98.4,7.377a64.568,64.568,0,0,0-5.159,7.914c-.111.2-.216.407-.325.61l-.013.021c-.506.828-1,1.663-1.472,2.51Q90.013,21,88.811,23.683a.444.444,0,0,0,.066.471l.009.011a.444.444,0,0,1,.084.443c-.449,1.245-.864,2.509-1.218,3.806q-.038.142-.075.285A1.491,1.491,0,0,0,90.2,30.1l.2-.214c.834-.9,1.619-1.82,2.373-2.761.138.066.276.131.405.187a67.921,67.921,0,0,0,3.671-5.866c.129-.231.249-.467.375-.7.492-.806.974-1.618,1.435-2.442a64.548,64.548,0,0,0,4.007-8.555c.587-1.594,1.136-3.21,1.578-4.885a1.492,1.492,0,0,0-2.526-1.405c-1.19,1.259-2.274,2.576-3.32,3.916" transform="translate(-66.027 -2.253)" fill="#31683c"/>
      <path id="Path_4866" data-name="Path 4866" d="M83.82,92.382a1.268,1.268,0,0,0-2.015.462q-.257.629-.5,1.267c-.557,1.487-1.067,3-1.493,4.562q-.146.549-.283,1.1a1.273,1.273,0,0,0,2.145,1.194q.4-.408.788-.821c1.1-1.185,2.119-2.416,3.09-3.673q.313-.406.616-.817a1.273,1.273,0,0,0-.386-1.864,11.785,11.785,0,0,1-1.964-1.412" transform="translate(-59.898 -69.371)" fill="#eeefee"/>
      <path id="Path_4867" data-name="Path 4867" d="M93.524,90.8l-.683.942a.958.958,0,0,1-1.158.32,8.33,8.33,0,0,1-3.755-3.155.932.932,0,0,1-.049-.841l.367-.876a.957.957,0,0,1,1.6-.268,10.716,10.716,0,0,0,3.318,2.45.96.96,0,0,1,.36,1.428" transform="translate(-66.161 -65.254)" fill="#c0c24c"/>
    </g>
  </g>
</svg>
