<svg width="32" height="32" viewBox="0 0 32 32" fill="none" xmlns="http://www.w3.org/2000/svg">
<path fill-rule="evenodd" clip-rule="evenodd" d="M30.3977 6.66634C30.3977 5.92996 29.8007 5.33301 29.0643 5.33301H2.93099C2.19461 5.33301 1.59766 5.92996 1.59766 6.66634V6.66634C1.59766 7.40272 2.19461 7.99967 2.93099 7.99967H29.0643C29.8007 7.99967 30.3977 7.40272 30.3977 6.66634V6.66634ZM30.3977 16.0003C30.3977 15.2639 29.8007 14.667 29.0643 14.667H2.931C2.19461 14.667 1.59766 15.2639 1.59766 16.0003V16.0003C1.59766 16.7367 2.19461 17.3337 2.931 17.3337H29.0643C29.8007 17.3337 30.3977 16.7367 30.3977 16.0003V16.0003ZM1.59766 25.333C1.59766 24.5966 2.19461 23.9997 2.931 23.9997H29.0643C29.8007 23.9997 30.3977 24.5966 30.3977 25.333V25.333C30.3977 26.0694 29.8007 26.6664 29.0643 26.6664H2.931C2.19461 26.6664 1.59766 26.0694 1.59766 25.333V25.333Z" fill="#005BAC"/>
</svg>
