<svg width="32" height="32" viewBox="0 0 32 32" fill="none" xmlns="http://www.w3.org/2000/svg">
<path fill-rule="evenodd" clip-rule="evenodd" d="M25.5812 8.25625C26.0887 7.74884 26.0887 6.92616 25.5813 6.41875V6.41875C25.0738 5.91134 24.2512 5.91134 23.7438 6.41875L16 14.1625L8.25625 6.41875C7.74884 5.91134 6.92616 5.91134 6.41875 6.41875V6.41875C5.91134 6.92616 5.91134 7.74884 6.41875 8.25625L14.1625 16L6.41875 23.7437C5.91134 24.2512 5.91134 25.0738 6.41875 25.5813V25.5813C6.92616 26.0887 7.74884 26.0887 8.25625 25.5813L16 17.8375L23.7437 25.5812C24.2512 26.0887 25.0738 26.0887 25.5813 25.5813V25.5813C26.0887 25.0738 26.0887 24.2512 25.5813 23.7438L17.8375 16L25.5812 8.25625Z" fill="#005BAC"/>
</svg>
