<?xml version="1.0" encoding="UTF-8"?>
<svg id="_圖層_1" data-name="圖層 1" xmlns="http://www.w3.org/2000/svg" xmlns:xlink="http://www.w3.org/1999/xlink" viewBox="0 0 420 222">
  <defs>
    <style>
      .cls-1 {
        fill: #fff;
      }

      .cls-2 {
        mask: url(#mask);
      }

      .cls-3 {
        fill: #ffdf99;
      }

      .cls-4 {
        fill: #ffcf57;
      }

      .cls-5 {
        fill: #0154b7;
      }

      .cls-6 {
        filter: url(#luminosity-noclip);
      }
    </style>
    <filter id="luminosity-noclip" x="14.94" y="6.77" width="390.13" height="137.41" color-interpolation-filters="sRGB" filterUnits="userSpaceOnUse">
      <feFlood flood-color="#fff" result="bg"/>
      <feBlend in="SourceGraphic" in2="bg"/>
    </filter>
    <mask id="mask" x="14.94" y="6.77" width="390.13" height="137.41" maskUnits="userSpaceOnUse">
      <g class="cls-6">
        <polygon points="405.06 144.18 14.94 144.18 14.94 102.31 405.06 18.56 405.06 144.18"/>
      </g>
    </mask>
  </defs>
  <g>
    <rect class="cls-5" x=".51" y="150" width="418.98" height="72" rx="36" ry="36"/>
    <g>
      <path class="cls-1" d="M81.78,178.2c.62.53.96,1.1.96,1.63,0,.46-.11.84-.29,1.18-.22.38-.62,1.03-1.25,1.9-.52.61-1.03,1.14-1.47,1.63v16.34c0,.91-.26,1.56-.7,1.94-.4.38-1.03.61-1.88.61s-1.4-.23-1.77-.61c-.48-.38-.7-1.03-.7-1.94v-11.47c-.37.3-.7.57-.99.8-.37.42-.85.61-1.43.61-.48-.04-.99-.3-1.54-.84-.52-.49-.77-1.06-.77-1.71,0-.3.15-.72.44-1.18.7-.99,2.13-2.58,4.3-4.71,2.35-2.58,3.79-4.03,4.34-4.33.26-.34.59-.53.99-.61.51,0,1.1.27,1.77.76ZM79.98,170.11c.66.61,1.03,1.25,1.03,1.86,0,.38-.11.72-.29,1.03-.15.3-.48.72-.92,1.33-2.06,2.28-3.9,4.03-5.52,5.21-.4.38-.92.57-1.58.57-.52,0-1.03-.3-1.62-.87-.55-.53-.85-1.1-.85-1.79,0-.38.15-.8.44-1.33.52-.69,1.58-1.75,3.24-3.27,1.77-1.75,2.83-2.74,3.24-2.96.22-.34.52-.53.85-.61.59,0,1.25.3,1.99.84ZM101.42,180.86c.88,0,1.51.19,1.91.53.33.3.51.91.51,1.82,0,.8-.15,1.37-.44,1.71-.44.57-1.1.84-1.99.84h-3.16v13.34c0,1.21-.44,2.17-1.32,2.93-.92.84-2.17,1.25-3.71,1.25-2.5,0-4.85-.49-7.02-1.48-.88-.49-1.29-1.29-1.29-2.39,0-1.67.63-2.62,1.88-2.81.26,0,.55.11.88.27,1.54.61,3.02.99,4.41,1.06.74,0,1.14-.38,1.14-1.18v-10.98h-8.02c-.85,0-1.47-.19-1.88-.61-.4-.34-.59-.99-.59-1.94s.18-1.52.59-1.82c.37-.34.99-.53,1.88-.53h16.22ZM100.68,171.21c.85,0,1.43.19,1.8.53.33.3.51.91.51,1.82,0,.76-.15,1.29-.4,1.63-.44.53-1.07.76-1.91.76h-14.78c-.77,0-1.36-.19-1.73-.57-.37-.3-.55-.91-.55-1.82s.18-1.52.55-1.82c.33-.34.92-.53,1.73-.53h14.78Z"/>
      <path class="cls-1" d="M129.55,169.8c.29.38.44.8.44,1.25,0,.88-.4,1.41-1.14,1.63-1.73.3-3.6.57-5.59.8v1.86h5.59c.59,0,1.03.15,1.32.42.26.23.4.68.4,1.37,0,.57-.11.99-.33,1.21-.29.38-.77.57-1.4.57h-5.59v1.63h5.15c1.54,0,2.32.8,2.32,2.39v6.8c0,1.6-.77,2.39-2.32,2.39h-5.15v1.33h5c.59,0,.99.11,1.25.34.22.23.33.64.33,1.29,0,.49-.11.88-.29,1.1-.29.38-.7.53-1.29.53h-5v1.48l4.85-.3c.66,0,1.14.15,1.51.46.07.08.15.15.18.23,1.4-2.81,2.39-5.7,3.02-8.74.63-2.96.96-6.19,1.03-9.77h-.85c-.74,0-1.25-.19-1.54-.57-.4-.38-.59-.95-.59-1.79,0-.76.18-1.33.59-1.75.29-.3.81-.49,1.54-.49h.88v-4.75c0-.61.18-1.1.55-1.52.33-.23.81-.38,1.43-.42.77.04,1.32.19,1.69.49.29.34.48.84.48,1.45v4.75h2.13c1.77,0,2.91.49,3.46,1.41.59,1.1.88,3.57.88,7.37,0,8.17-.22,13.03-.66,14.59-.44,1.6-1.14,2.74-2.1,3.42-.88.64-1.99.99-3.27.99-1.4-.12-2.32-.3-2.76-.61-.66-.53-.99-1.21-.99-2.09,0-.72.22-1.29.59-1.71.44-.42.92-.65,1.43-.65.11,0,.22.04.33.04.4.15.88.23,1.4.27.85,0,1.32-.53,1.43-1.63.15-.57.26-5.32.26-14.25,0-1.18-.11-1.94-.33-2.28-.18-.15-.51-.27-.96-.27h-.92c0,2.74-.26,5.59-.7,8.62-.85,5.17-2.32,9.76-4.41,13.79-.48.49-1.07.76-1.73.76-.81,0-1.4-.23-1.77-.65-.37-.3-.55-.68-.62-1.14h-.04l-15.81,1.03c-.66-.04-1.14-.23-1.43-.57-.29-.27-.44-.72-.44-1.37.04-.64.22-1.06.59-1.37.22-.23.62-.34,1.14-.38l6.47-.38v-1.71h-5.44c-.55,0-.96-.12-1.21-.38-.26-.23-.37-.65-.37-1.25s.11-1.06.37-1.29c.22-.23.63-.34,1.21-.34h5.44v-1.33h-4.89c-1.54,0-2.28-.8-2.28-2.39v-6.8c0-1.6.74-2.39,2.28-2.39h4.89v-1.63h-6.47c-.59,0-.99-.11-1.29-.42-.29-.23-.44-.68-.44-1.37s.15-1.14.44-1.37c.26-.27.7-.42,1.29-.42h6.47v-1.48c-2.39.23-4.3.3-5.74.3-1.18,0-1.73-.72-1.73-2.2,0-.91.55-1.41,1.58-1.52,5.3-.11,10-.49,14.12-1.1.37-.04.7-.08.96-.08.44,0,.85.19,1.14.53ZM119.21,185v-1.48h-2.87c-.22,0-.29.11-.29.3v1.18h3.16ZM119.21,187.7h-3.16v1.18c0,.23.07.3.29.3h2.87v-1.48ZM123.26,185h3.42v-1.18c0-.19-.11-.3-.29-.3h-3.13v1.48ZM126.68,188.88v-1.18h-3.42v1.48h3.13c.18,0,.29-.07.29-.3Z"/>
      <path class="cls-1" d="M170.58,169.04c.52.42.77.99.77,1.71v2.54h11.91c.88,0,1.51.19,1.91.53.37.3.55.91.55,1.82,0,.76-.18,1.33-.48,1.71-.44.57-1.1.84-1.99.84h-11.91v3.84h8.31c1.25,0,2.21.19,2.87.53.96.68,1.47,1.56,1.47,2.58,0,1.25-.7,2.58-2.06,4.03-2.06,2.13-4.74,4.22-8.05,6.35l-.04.04c3.31,1.21,6.95,2.2,10.85,2.96.85.23,1.29.99,1.29,2.2,0,.68-.26,1.25-.77,1.75-.4.53-1.07.8-1.95.8-1.25,0-2.87-.27-4.93-.72-3.38-.84-6.77-2.09-10.08-3.84-1.91.95-3.9,1.79-5.92,2.58-3.64,1.41-6.1,2.17-7.35,2.28-.96,0-1.69-.3-2.13-.91-.44-.46-.63-.87-.63-1.33,0-1.14.33-1.9,1.03-2.39,3.49-1.22,6.62-2.43,9.41-3.65-2.35-1.67-4.3-3.49-5.88-5.47-.66-.68-.96-1.33-.96-2.01,0-.38.04-.72.18-1.03h-.04c-.77,0-1.36-.19-1.77-.61-.37-.3-.55-.88-.55-1.75s.22-1.48.66-1.94c.29-.3.85-.46,1.65-.46h10.19v-3.84h-11.33c-.85,0-1.47-.19-1.88-.61-.4-.34-.59-.99-.59-1.94s.18-1.52.59-1.86c.37-.3.99-.49,1.88-.49h11.33v-2.54c0-.61.22-1.22.74-1.75.37-.3.99-.46,1.88-.46s1.43.19,1.8.49ZM167.9,192.83c1.21-.61,2.32-1.25,3.31-1.86,3.35-1.86,5.04-3.12,5.04-3.72,0-.3-.26-.46-.74-.46h-15.22c2.35,2.39,4.89,4.41,7.61,6.04Z"/>
      <path class="cls-1" d="M203.46,169.73c.59.23.92.84.92,1.79,0,.53-.11,1.06-.26,1.52-.33,1.44-.74,2.81-1.18,4.14v23.71c0,.91-.22,1.56-.66,1.94-.37.38-.96.61-1.77.61s-1.4-.23-1.77-.61c-.48-.38-.7-1.03-.7-1.94v-13.72c-.07.08-.11.15-.15.23-.33.49-.88.72-1.69.72-.96,0-1.69-.23-2.13-.76-.51-.38-.77-.99-.77-1.75,0-.46.18-1.03.55-1.67,2.43-3.65,4.41-8.09,5.92-13.34.26-.99.77-1.48,1.58-1.48s1.51.23,2.1.61ZM217.17,175.5v-4.14c0-1.29.81-2.01,2.43-2.09,1.58,0,2.39.72,2.46,2.09v4.14h2.43c.74,0,1.32.19,1.69.53.4.3.62.99.62,2.01,0,.84-.15,1.44-.37,1.75-.4.53-1.07.76-1.95.76h-2.43v18.84c0,1.14-.4,2.09-1.14,2.81-.81.8-1.88,1.21-3.2,1.21-2.13,0-4.16-.27-6.03-.76-.88-.49-1.29-1.29-1.29-2.36,0-1.6.62-2.51,1.88-2.7.18,0,.4.04.66.11,1.1.3,2.17.46,3.2.49.66,0,1.03-.34,1.03-1.03v-16.64h-10.48c-.74,0-1.29-.19-1.65-.61-.44-.3-.66-.95-.66-1.9s.22-1.67.66-2.05c.29-.3.85-.49,1.65-.49h10.48ZM209.71,183.67c.81.8,1.73,2.36,2.83,4.71.66,1.56,1.03,2.81,1.03,3.76,0,.61-.18,1.06-.52,1.33-.37.46-.92.72-1.62.72-.66,0-1.14-.11-1.43-.34-.26-.15-.4-.38-.44-.68-.85-1.98-2.06-4.52-3.64-7.6-.07-.19-.11-.42-.11-.72,0-.19.04-.46.18-.8.15-.38.48-.68.99-.91.33-.11.66-.19.99-.19.77,0,1.36.27,1.73.72Z"/>
      <path class="cls-1" d="M246.88,188.42c-.07.99-.63,1.48-1.73,1.48-.88-.04-1.36-.49-1.43-1.33,0-.11-.04-.23-.04-.34-.37.15-.74.3-1.1.38v12.88c0,.61-.18,1.06-.48,1.33-.29.3-.77.46-1.4.46-.59,0-.99-.15-1.29-.46-.29-.3-.44-.72-.44-1.33v-12.08c-.92.15-1.88.27-2.87.34-.74,0-1.29-.15-1.62-.46-.33-.34-.51-.88-.51-1.6,0-.61.18-1.06.48-1.44.18-.23.48-.38.92-.46,1.1-1.33,2.13-2.73,3.05-4.22-1.32-1.6-2.61-2.96-3.9-4.14-.48-.49-.7-1.1-.7-1.79,0-.53.15-.99.48-1.37.4-.38.88-.57,1.4-.57.15,0,.29.04.44.04.77-1.03,1.43-2.16,1.99-3.42.29-.68.7-1.03,1.29-1.06.37,0,.85.15,1.36.42.51.34.81.8.81,1.37,0,.38-.15.76-.37,1.14-.63,1.29-1.4,2.51-2.32,3.72.51.68,1.07,1.37,1.58,2.09.77-1.44,1.47-2.96,2.1-4.56.29-.68.77-1.03,1.43-1.06.37,0,.85.15,1.36.42.51.34.81.8.81,1.37,0,.3-.04.53-.07.76.22-.08.55-.12.92-.15.74-.08,1.43-.15,2.17-.23v-3.65c0-.46.15-.88.44-1.22.29-.3.81-.49,1.54-.57.66.04,1.21.19,1.58.46.37.3.59.76.59,1.33v3.12c.74-.08,1.43-.19,2.17-.3.48,0,.92.23,1.29.65v-.49c0-1.56.62-2.36,1.88-2.36h6.44c1.62,0,2.46.91,2.46,2.66,0,2.39-.44,5.51-1.29,9.35,1.21,3.08,1.84,6,1.84,8.78,0,2.13-.37,3.69-1.03,4.6-.74,1.22-1.88,1.79-3.42,1.79-.81,0-1.58-.15-2.28-.46-.18-.08-.33-.15-.44-.23v3.65c-.07,1.1-.77,1.71-2.02,1.79-1.36-.08-2.06-.68-2.13-1.79v-7.71c-.07.08-.11.15-.11.19-.4.46-.99.69-1.77.69h-2.13c-.11.68-.22,1.33-.33,1.86-.51,2.51-1.18,4.52-1.99,6.15-.44.3-.96.46-1.58.46-.74-.08-1.36-.38-1.88-.95-.33-.34-.52-.76-.55-1.29,0-.61.11-1.14.4-1.63.33-.91.7-1.94,1.07-3.12.15-.49.26-.99.4-1.48h-.04c-.74,0-1.25-.15-1.54-.49.04.23.07.49.11.72.18.88.29,1.63.29,2.28,0,.53-.15.91-.44,1.14-.33.34-.7.49-1.14.49-.55,0-.92-.08-1.1-.27-.22-.12-.4-.38-.48-.76-.29-2.05-.59-3.61-.81-4.75-.15-.46-.18-.95-.18-1.48,0-.34.18-.61.51-.84.26-.19.62-.3,1.07-.34.52.04.96.23,1.29.57.11.23.22.53.33.84.07-.49.22-.84.48-1.06.33-.3.88-.49,1.62-.49h.74c.07-1.14.15-2.32.15-3.57v-1.18h-1.18c-.59,0-1.07-.15-1.36-.49.15,1.06.22,2.17.22,3.3ZM237.84,191.16c.37.34.55.72.59,1.14,0,.87-.11,1.94-.33,3.23-.33,2.36-.66,4.1-.96,5.21-.18.61-.59.91-1.18.91-.52,0-.99-.15-1.4-.42-.4-.23-.59-.65-.59-1.21,0-.42.04-.91.18-1.52.37-1.37.74-3.46,1.1-6.34.15-.88.62-1.33,1.43-1.33.4,0,.77.11,1.14.34ZM249.2,181.32v-2.51c-.77.08-1.43.11-2.02.11-.74,0-1.25-.15-1.54-.53-.26-.23-.4-.65-.44-1.18-1.4,2.73-3.13,5.47-5.19,8.17,1.07-.15,2.17-.34,3.27-.65-.11-.57-.22-1.1-.29-1.6-.07-.23-.11-.42-.11-.49,0-.8.48-1.25,1.43-1.33.85,0,1.43.34,1.73,1.03,0,.11.04.19.07.27.07-.38.26-.68.48-.91.29-.23.77-.38,1.43-.38h1.18ZM256.81,184.51c-.07.19-.11.3-.18.38-.37.49-.92.72-1.69.72h-1.58v1.18c0,1.44-.04,2.66-.07,3.57h1.65c.77,0,1.32.19,1.69.49.07.08.11.15.18.23v-6.57ZM256.81,177.14c-.04.08-.07.11-.07.11-.26.3-.7.53-1.36.65-.74.15-1.4.27-2.02.38v3.04h1.58c.66,0,1.14.15,1.47.42.18.15.33.34.4.57v-5.17ZM262.25,194.08c.7,0,1.18-.34,1.47-1.06.15-.46.26-1.18.26-2.2,0-1.63-.51-3.5-1.51-5.55-.26-.57-.37-1.1-.37-1.6,0-.42.04-.8.18-1.1.74-2.21,1.1-4.33,1.1-6.31,0-.19-.11-.3-.26-.3h-2.17v17.97c.52.11.92.15,1.29.15Z"/>
      <path class="cls-1" d="M294.02,169.42c.55.49.85,1.14.85,1.94v.46h10.04c2.28,0,3.46,1.25,3.46,3.69v3.88c0,.87-.26,1.44-.7,1.75-.44.42-1.07.61-1.88.61-.15,0-.26,0-.33-.04,0,.23.04.46.04.65,0,.76-.15,1.29-.4,1.6-.44.53-1.07.76-1.91.76h-7.91v3.88h8.2c.81,0,1.4.19,1.69.49.29.3.48.91.48,1.75s-.15,1.37-.4,1.71c-.37.46-.96.65-1.76.65h-8.2v4.9h1.18c1.54,0,3.6-.04,6.14-.19,1.99-.15,3.31-.27,3.9-.27.77,0,1.36.23,1.8.61.37.46.59.99.66,1.63-.07.95-.29,1.67-.7,2.2-.51.53-1.36.84-2.46.91h-9.49c-2.79,0-5.04-.23-6.8-.65-1.95-.53-3.71-1.52-5.33-2.89-.62-.57-1.25-1.25-1.84-2.05-.88,2.01-1.8,3.65-2.68,4.98-.37.61-.99.91-1.88.91-.66,0-1.29-.3-1.91-.84-.44-.38-.66-.95-.66-1.71,0-.19.07-.49.26-.87,1.14-1.67,2.17-3.72,3.05-6.08.81-2.13,1.54-4.14,2.13-6.08.18-.84.7-1.29,1.58-1.37.7,0,1.32.19,1.91.49.59.38.92.88.96,1.45,0,.84-.22,1.94-.62,3.38-.04.08-.04.15-.04.15,1.25,2.28,2.57,3.91,3.93,4.86.48.34,1.1.61,1.91.8v-12.77h-8.64c-.77,0-1.36-.15-1.73-.53-.37-.3-.55-.88-.55-1.71-.15.04-.29.04-.44.04-.85,0-1.43-.19-1.8-.57-.44-.42-.62-1.03-.62-1.82v-4.6c0-2.43,1.1-3.69,3.31-3.69h9.3v-.46c0-.68.26-1.37.81-1.98.44-.38,1.14-.57,2.1-.57s1.62.23,2.02.61ZM303.36,180.1c-.04-.15-.04-.27-.04-.42v-2.85c0-.38-.29-.57-.85-.57h-20.41c-.4,0-.59.19-.59.57v3.27h21.88Z"/>
      <path class="cls-1" d="M319.91,183.63c.29.27.48.61.51,1.06v3.72c0,1.48-.07,2.89-.15,4.26-.29,4.03-.77,6.57-1.43,7.64-.18.38-.66.57-1.43.57-.59,0-1.03-.15-1.25-.46-.33-.23-.48-.57-.48-1.18,0-.3.07-.61.22-.99.74-2.74,1.14-5.59,1.21-8.51v-5.05c0-.42.15-.76.44-.99.22-.23.59-.34,1.14-.34.48,0,.88.11,1.21.27ZM328.62,177.29c.74,0,1.29.15,1.65.46.29.3.48.84.48,1.63,0,.68-.15,1.21-.4,1.52-.37.46-.96.68-1.73.68h-3.05v19.76c0,.72-.18,1.22-.48,1.52-.33.38-.85.57-1.51.57-.7,0-1.21-.19-1.51-.57-.37-.3-.52-.8-.52-1.52v-19.76h-3.02c-.74,0-1.25-.15-1.62-.49-.37-.3-.55-.87-.55-1.71s.18-1.33.55-1.63c.29-.3.85-.46,1.62-.46h10.08ZM327.59,170.45c.63,0,1.07.15,1.36.42.33.23.51.72.51,1.52,0,.72-.11,1.22-.29,1.44-.33.46-.85.65-1.58.65h-8.46c-.59,0-1.03-.15-1.36-.49-.37-.27-.51-.8-.51-1.6s.15-1.25.51-1.56c.26-.23.7-.38,1.36-.38h8.46ZM329.73,183.86c.22.23.33.61.33,1.14v13.37c0,.49-.15.84-.37,1.06-.26.3-.66.42-1.21.42-.59,0-.99-.12-1.25-.42-.22-.15-.33-.53-.33-1.06v-13.37c0-.46.07-.8.29-1.03.22-.3.62-.46,1.29-.46.59,0,1.03.11,1.25.34ZM334.25,198.95l-.55-2.05h-.22c-1.43,0-2.13-.72-2.13-2.24v-3.42c0-1.44.7-2.2,2.13-2.2h13.64c1.43,0,2.17.76,2.17,2.2v3.42c0,1.52-.74,2.24-2.17,2.24h-.07l-.52,2.05h2.61c.59,0,1.07.15,1.36.42.22.23.37.68.37,1.37,0,.53-.11.95-.33,1.22-.29.38-.77.57-1.4.57h-17.65c-.59,0-1.03-.15-1.32-.42-.29-.27-.4-.72-.4-1.37,0-.68.11-1.14.4-1.37.26-.27.7-.42,1.32-.42h2.76ZM348.55,184.85c.59,0,.99.11,1.25.34.22.19.33.57.33,1.14,0,.53-.11.91-.26,1.14-.29.34-.74.49-1.32.49h-16.51c-.51,0-.92-.11-1.18-.38-.29-.23-.4-.64-.4-1.25,0-.53.11-.91.4-1.14.22-.23.63-.34,1.18-.34h16.51ZM336.34,170.91v-.72c0-.53.11-.91.37-1.14.22-.23.62-.34,1.21-.34s.99.12,1.21.3c.22.27.37.65.37,1.18v.72h1.43v-.72c0-.53.11-.91.37-1.14.22-.23.62-.34,1.21-.34s.99.12,1.21.3c.22.27.37.65.37,1.18v.72h2.9c1.62,0,2.43.87,2.43,2.54v7.71c0,1.67-.81,2.51-2.43,2.51h-13.53c-1.62,0-2.43-.84-2.43-2.51v-7.71c0-1.67.81-2.54,2.43-2.54h2.87ZM336.34,175.96v-1.94h-.99c-.4,0-.59.23-.59.61v1.33h1.58ZM336.34,178.62h-1.58v1.33c0,.42.18.61.59.61h.99v-1.94ZM344.99,193.32v-.76c0-.38-.22-.57-.59-.57h-8.16c-.4,0-.59.19-.59.57v.76c0,.42.18.61.59.61h8.16c.37,0,.59-.19.59-.61ZM343.04,196.89h-5.33l.55,2.05h4.27l.52-2.05ZM339.51,175.96h1.43v-1.94h-1.43v1.94ZM340.94,178.62h-1.43v1.94h1.43v-1.94ZM344.1,175.96h1.58v-1.33c0-.38-.18-.61-.55-.61h-1.03v1.94ZM345.68,179.95v-1.33h-1.58v1.94h1.03c.37,0,.55-.19.55-.61Z"/>
    </g>
  </g>
  <g>
    <g>
      <g>
        <g>
          <path class="cls-4" d="M48.93,119.71l49.5-59.26c1.86-2.79,3.49-5.11,4.88-6.97.93-1.86,1.63-3.72,2.09-5.58-.47-2.32-1.16-4.18-2.09-5.58-1.39-.93-3.02-1.39-4.88-1.39-2.79-.46-4.88.47-6.27,2.79-1.39,2.33-1.86,5.81-1.39,10.46h-36.95v-2.09c0-14.41,3.95-25.56,11.85-33.46,7.9-7.9,19.05-11.85,33.46-11.85s24.86,3.72,32.77,11.15c7.9,7.44,12.08,17.43,12.55,29.98,0,6.51-1.63,12.55-4.88,18.13-3.25,5.11-8.13,10.23-14.64,15.34l-9.06,7.67h28.58v30.67H48.93Z"/>
          <path class="cls-5" d="M144.44,126.71H48.93c-2.72,0-5.19-1.57-6.34-4.03-1.15-2.46-.77-5.37.97-7.45l45.14-54.04h-34.89c-3.87,0-7-3.13-7-7v-2.09c0-16.26,4.68-29.19,13.9-38.41C69.94,4.45,82.86-.23,99.13-.23s28.35,4.39,37.56,13.05c9.25,8.71,14.21,20.42,14.75,34.82,0,.09,0,.17,0,.26,0,7.73-1.96,15.01-5.83,21.65-.05.08-.09.16-.14.23-2.61,4.11-6.14,8.21-10.52,12.25h9.5c3.87,0,7,3.13,7,7v30.67c0,3.87-3.13,7-7,7ZM63.9,112.71h73.54v-16.67h-21.58c-2.94,0-5.56-1.83-6.57-4.59-1.01-2.76-.19-5.85,2.05-7.75l9.06-7.67c.06-.05.13-.11.2-.16,5.8-4.56,10.17-9.09,12.99-13.48,2.58-4.46,3.84-9.16,3.86-14.35-.42-10.67-3.81-18.85-10.35-25.01-6.62-6.22-15.77-9.25-27.97-9.25s-21.92,3.21-28.51,9.8c-5.71,5.71-8.88,13.46-9.63,23.6h22.83c.36-2.72,1.13-5.05,2.33-7.06,2.79-4.65,7.45-6.87,12.84-6.18,3.03.09,5.79.96,8.2,2.56.77.51,1.43,1.17,1.95,1.95,1.45,2.18,2.48,4.83,3.13,8.08.2,1.02.18,2.07-.07,3.07-.59,2.35-1.47,4.7-2.62,7.01-.19.37-.41.73-.66,1.07-1.34,1.79-2.91,4.03-4.66,6.65-.14.21-.29.41-.45.61l-39.9,47.77ZM97.93,47.91c-.07.24-.15.55-.21.96.13-.32.25-.63.36-.95-.05,0-.11,0-.16,0Z"/>
        </g>
        <g>
          <path class="cls-4" d="M153.85,65.33c0-18.59,4.18-33,12.55-43.22,8.83-10.22,20.68-15.34,35.55-15.34s26.72,5.11,35.55,15.34c8.37,9.76,12.78,24.17,13.25,43.22-.47,18.13-4.88,32.07-13.25,41.83-8.83,9.76-20.68,14.87-35.55,15.34-14.87-.47-26.73-5.58-35.55-15.34-8.37-10.22-12.55-24.17-12.55-41.83ZM192.89,65.33c-.47,7.44.23,13.01,2.09,16.73,1.39,4.18,3.72,6.27,6.97,6.27,2.79,0,4.88-2.09,6.27-6.27,1.86-3.72,2.79-9.29,2.79-16.73,0-8.37-.93-14.41-2.79-18.13-1.39-4.18-3.49-6.04-6.27-5.58-3.25-.46-5.58,1.39-6.97,5.58-1.86,3.72-2.56,9.76-2.09,18.13Z"/>
          <path class="cls-5" d="M201.95,129.5c-.07,0-.15,0-.22,0-16.78-.53-30.42-6.46-40.53-17.64-.08-.08-.15-.17-.23-.26-9.38-11.46-14.13-27.02-14.13-46.26s4.75-36.19,14.13-47.66c.04-.05.08-.1.12-.14C171.28,5.75,185.02-.23,201.95-.23s30.67,5.98,40.85,17.76c9.42,10.99,14.44,27.01,14.95,47.63,0,.12,0,.23,0,.35-.51,19.69-5.53,35.24-14.93,46.2-.04.05-.08.09-.12.14-10.11,11.18-23.75,17.11-40.53,17.64-.07,0-.15,0-.22,0ZM171.71,102.59c7.51,8.23,17.41,12.46,30.25,12.9,12.87-.45,22.78-4.69,30.3-12.96,7.19-8.43,11.06-20.95,11.5-37.21-.44-17.23-4.33-30.23-11.56-38.66-7.49-8.67-17.39-12.89-30.24-12.89s-22.7,4.2-30.19,12.84c-7.24,8.89-10.91,21.92-10.91,38.72,0,15.84,3.65,28.38,10.86,37.26ZM201.95,95.34c-2.94,0-10.06-1.04-13.45-10.6-2.24-4.76-3.1-11.13-2.62-19.43-.48-9.18.38-15.99,2.62-20.77,3.32-9.33,10.21-10.12,13.42-9.94,3.11-.2,9.5.65,12.79,9.94,2.22,4.74,3.3,11.55,3.3,20.8,0,8.34-1.08,14.7-3.31,19.41-3.25,9.21-9.37,10.6-12.76,10.6ZM201.61,49.47c-.1.3-.22.58-.36.86-.73,1.46-1.88,5.3-1.36,14.61.02.28.01.55,0,.83-.51,8.07.64,11.71,1.37,13.16.14.28.26.57.36.87.1-.29.22-.58.36-.86.94-1.87,2.05-5.75,2.05-13.6,0-9.48-1.29-13.46-2.05-15-.14-.28-.26-.57-.36-.86Z"/>
        </g>
        <g>
          <path class="cls-4" d="M259.82,65.33c0-18.59,4.18-33,12.55-43.22,8.83-10.22,20.68-15.34,35.55-15.34s26.72,5.11,35.55,15.34c8.37,9.76,12.78,24.17,13.25,43.22-.47,18.13-4.88,32.07-13.25,41.83-8.83,9.76-20.68,14.87-35.55,15.34-14.87-.47-26.73-5.58-35.55-15.34-8.37-10.22-12.55-24.17-12.55-41.83ZM298.86,65.33c-.47,7.44.23,13.01,2.09,16.73,1.39,4.18,3.72,6.27,6.97,6.27,2.79,0,4.88-2.09,6.27-6.27,1.86-3.72,2.79-9.29,2.79-16.73,0-8.37-.93-14.41-2.79-18.13-1.39-4.18-3.49-6.04-6.27-5.58-3.25-.46-5.58,1.39-6.97,5.58-1.86,3.72-2.56,9.76-2.09,18.13Z"/>
          <path class="cls-5" d="M307.92,129.5c-.07,0-.15,0-.22,0-16.78-.53-30.42-6.46-40.53-17.64-.08-.08-.15-.17-.23-.26-9.38-11.46-14.13-27.02-14.13-46.26s4.75-36.19,14.13-47.66c.04-.05.08-.1.12-.14C277.25,5.75,290.99-.23,307.92-.23s30.67,5.98,40.85,17.76c9.42,10.99,14.44,27.01,14.95,47.63,0,.12,0,.23,0,.35-.51,19.69-5.53,35.24-14.93,46.2-.04.05-.08.09-.12.14-10.11,11.18-23.75,17.11-40.53,17.64-.07,0-.15,0-.22,0ZM277.67,102.59c7.51,8.23,17.41,12.46,30.25,12.9,12.87-.45,22.78-4.69,30.3-12.96,7.19-8.43,11.06-20.95,11.5-37.21-.44-17.23-4.33-30.23-11.56-38.66-7.49-8.67-17.39-12.89-30.24-12.89s-22.7,4.2-30.19,12.84c-7.24,8.89-10.91,21.92-10.91,38.72,0,15.84,3.65,28.38,10.86,37.26ZM307.92,95.34c-2.94,0-10.06-1.04-13.45-10.6-2.24-4.76-3.1-11.13-2.62-19.43-.48-9.18.38-15.99,2.62-20.77,3.32-9.33,10.2-10.12,13.42-9.94,3.11-.2,9.5.65,12.79,9.94,2.22,4.74,3.3,11.55,3.3,20.8,0,8.34-1.08,14.7-3.31,19.41-3.25,9.21-9.37,10.6-12.76,10.6ZM307.57,49.47c-.1.3-.22.58-.36.86-.73,1.46-1.88,5.3-1.36,14.61.02.28.01.55,0,.83-.51,8.07.64,11.71,1.37,13.16.14.28.26.57.36.87.1-.29.22-.58.36-.86.94-1.87,2.05-5.75,2.05-13.6,0-9.48-1.29-13.46-2.05-15-.14-.28-.26-.57-.36-.86Z"/>
        </g>
      </g>
      <g>
        <path class="cls-4" d="M48.93,119.71l49.5-59.26c1.86-2.79,3.49-5.11,4.88-6.97.93-1.86,1.63-3.72,2.09-5.58-.47-2.32-1.16-4.18-2.09-5.58-1.39-.93-3.02-1.39-4.88-1.39-2.79-.46-4.88.47-6.27,2.79-1.39,2.33-1.86,5.81-1.39,10.46h-36.95v-2.09c0-14.41,3.95-25.56,11.85-33.46,7.9-7.9,19.05-11.85,33.46-11.85s24.86,3.72,32.77,11.15c7.9,7.44,12.08,17.43,12.55,29.98,0,6.51-1.63,12.55-4.88,18.13-3.25,5.11-8.13,10.23-14.64,15.34l-9.06,7.67h28.58v30.67H48.93Z"/>
        <path class="cls-4" d="M153.85,65.33c0-18.59,4.18-33,12.55-43.22,8.83-10.22,20.68-15.34,35.55-15.34s26.72,5.11,35.55,15.34c8.37,9.76,12.78,24.17,13.25,43.22-.47,18.13-4.88,32.07-13.25,41.83-8.83,9.76-20.68,14.87-35.55,15.34-14.87-.47-26.73-5.58-35.55-15.34-8.37-10.22-12.55-24.17-12.55-41.83ZM192.89,65.33c-.47,7.44.23,13.01,2.09,16.73,1.39,4.18,3.72,6.27,6.97,6.27,2.79,0,4.88-2.09,6.27-6.27,1.86-3.72,2.79-9.29,2.79-16.73,0-8.37-.93-14.41-2.79-18.13-1.39-4.18-3.49-6.04-6.27-5.58-3.25-.46-5.58,1.39-6.97,5.58-1.86,3.72-2.56,9.76-2.09,18.13Z"/>
        <path class="cls-4" d="M259.82,65.33c0-18.59,4.18-33,12.55-43.22,8.83-10.22,20.68-15.34,35.55-15.34s26.72,5.11,35.55,15.34c8.37,9.76,12.78,24.17,13.25,43.22-.47,18.13-4.88,32.07-13.25,41.83-8.83,9.76-20.68,14.87-35.55,15.34-14.87-.47-26.73-5.58-35.55-15.34-8.37-10.22-12.55-24.17-12.55-41.83ZM298.86,65.33c-.47,7.44.23,13.01,2.09,16.73,1.39,4.18,3.72,6.27,6.97,6.27,2.79,0,4.88-2.09,6.27-6.27,1.86-3.72,2.79-9.29,2.79-16.73,0-8.37-.93-14.41-2.79-18.13-1.39-4.18-3.49-6.04-6.27-5.58-3.25-.46-5.58,1.39-6.97,5.58-1.86,3.72-2.56,9.76-2.09,18.13Z"/>
      </g>
    </g>
    <g class="cls-2">
      <g>
        <g>
          <path class="cls-3" d="M48.93,119.71l49.5-59.26c1.86-2.79,3.49-5.11,4.88-6.97.93-1.86,1.63-3.72,2.09-5.58-.47-2.32-1.16-4.18-2.09-5.58-1.39-.93-3.02-1.39-4.88-1.39-2.79-.46-4.88.47-6.27,2.79-1.39,2.33-1.86,5.81-1.39,10.46h-36.95v-2.09c0-14.41,3.95-25.56,11.85-33.46,7.9-7.9,19.05-11.85,33.46-11.85s24.86,3.72,32.77,11.15c7.9,7.44,12.08,17.43,12.55,29.98,0,6.51-1.63,12.55-4.88,18.13-3.25,5.11-8.13,10.23-14.64,15.34l-9.06,7.67h28.58v30.67H48.93Z"/>
          <path class="cls-3" d="M153.85,65.33c0-18.59,4.18-33,12.55-43.22,8.83-10.22,20.68-15.34,35.55-15.34s26.72,5.11,35.55,15.34c8.37,9.76,12.78,24.17,13.25,43.22-.47,18.13-4.88,32.07-13.25,41.83-8.83,9.76-20.68,14.87-35.55,15.34-14.87-.47-26.73-5.58-35.55-15.34-8.37-10.22-12.55-24.17-12.55-41.83ZM192.89,65.33c-.47,7.44.23,13.01,2.09,16.73,1.39,4.18,3.72,6.27,6.97,6.27,2.79,0,4.88-2.09,6.27-6.27,1.86-3.72,2.79-9.29,2.79-16.73,0-8.37-.93-14.41-2.79-18.13-1.39-4.18-3.49-6.04-6.27-5.58-3.25-.46-5.58,1.39-6.97,5.58-1.86,3.72-2.56,9.76-2.09,18.13Z"/>
          <path class="cls-3" d="M259.82,65.33c0-18.59,4.18-33,12.55-43.22,8.83-10.22,20.68-15.34,35.55-15.34s26.72,5.11,35.55,15.34c8.37,9.76,12.78,24.17,13.25,43.22-.47,18.13-4.88,32.07-13.25,41.83-8.83,9.76-20.68,14.87-35.55,15.34-14.87-.47-26.73-5.58-35.55-15.34-8.37-10.22-12.55-24.17-12.55-41.83ZM298.86,65.33c-.47,7.44.23,13.01,2.09,16.73,1.39,4.18,3.72,6.27,6.97,6.27,2.79,0,4.88-2.09,6.27-6.27,1.86-3.72,2.79-9.29,2.79-16.73,0-8.37-.93-14.41-2.79-18.13-1.39-4.18-3.49-6.04-6.27-5.58-3.25-.46-5.58,1.39-6.97,5.58-1.86,3.72-2.56,9.76-2.09,18.13Z"/>
        </g>
        <g>
          <path class="cls-3" d="M48.93,119.71l49.5-59.26c1.86-2.79,3.49-5.11,4.88-6.97.93-1.86,1.63-3.72,2.09-5.58-.47-2.32-1.16-4.18-2.09-5.58-1.39-.93-3.02-1.39-4.88-1.39-2.79-.46-4.88.47-6.27,2.79-1.39,2.33-1.86,5.81-1.39,10.46h-36.95v-2.09c0-14.41,3.95-25.56,11.85-33.46,7.9-7.9,19.05-11.85,33.46-11.85s24.86,3.72,32.77,11.15c7.9,7.44,12.08,17.43,12.55,29.98,0,6.51-1.63,12.55-4.88,18.13-3.25,5.11-8.13,10.23-14.64,15.34l-9.06,7.67h28.58v30.67H48.93Z"/>
          <path class="cls-3" d="M153.85,65.33c0-18.59,4.18-33,12.55-43.22,8.83-10.22,20.68-15.34,35.55-15.34s26.72,5.11,35.55,15.34c8.37,9.76,12.78,24.17,13.25,43.22-.47,18.13-4.88,32.07-13.25,41.83-8.83,9.76-20.68,14.87-35.55,15.34-14.87-.47-26.73-5.58-35.55-15.34-8.37-10.22-12.55-24.17-12.55-41.83ZM192.89,65.33c-.47,7.44.23,13.01,2.09,16.73,1.39,4.18,3.72,6.27,6.97,6.27,2.79,0,4.88-2.09,6.27-6.27,1.86-3.72,2.79-9.29,2.79-16.73,0-8.37-.93-14.41-2.79-18.13-1.39-4.18-3.49-6.04-6.27-5.58-3.25-.46-5.58,1.39-6.97,5.58-1.86,3.72-2.56,9.76-2.09,18.13Z"/>
          <path class="cls-3" d="M259.82,65.33c0-18.59,4.18-33,12.55-43.22,8.83-10.22,20.68-15.34,35.55-15.34s26.72,5.11,35.55,15.34c8.37,9.76,12.78,24.17,13.25,43.22-.47,18.13-4.88,32.07-13.25,41.83-8.83,9.76-20.68,14.87-35.55,15.34-14.87-.47-26.73-5.58-35.55-15.34-8.37-10.22-12.55-24.17-12.55-41.83ZM298.86,65.33c-.47,7.44.23,13.01,2.09,16.73,1.39,4.18,3.72,6.27,6.97,6.27,2.79,0,4.88-2.09,6.27-6.27,1.86-3.72,2.79-9.29,2.79-16.73,0-8.37-.93-14.41-2.79-18.13-1.39-4.18-3.49-6.04-6.27-5.58-3.25-.46-5.58,1.39-6.97,5.58-1.86,3.72-2.56,9.76-2.09,18.13Z"/>
        </g>
      </g>
    </g>
    <g>
      <g>
        <path class="cls-4" d="M381.88,125.03c-.48,5.92-2.16,9.53-5.04,10.81-3.04,1.28-4.72,1.84-5.04,1.68h-12.01c-2.88-.32-4.56-1.04-5.04-2.16-.64-1.28-.88-2-.72-2.16v-22.58h-3.84v3.84c-1.44,9.61-4.64,16.09-9.61,19.45-4.8,3.52-7.53,5.2-8.17,5.04-.96-1.76-2.48-3.76-4.56-6-1.92-2.24-2.96-3.44-3.12-3.6,7.21-2.88,11.45-6.64,12.73-11.29,1.12-4.48,1.52-6.97,1.2-7.45h-13.45v-12.01h55.24v12.01h-15.37v15.37h3.36c1.12-.32,1.76-1.12,1.92-2.4.32-1.44.48-2.24.48-2.4v-4.8c1.28.48,3.36,1.12,6.24,1.92,2.72.8,4.32,1.28,4.8,1.44v5.28ZM377.08,94.29h-48.03v-12.01h48.03v12.01Z"/>
        <path class="cls-5" d="M332.54,144.99c-.53,0-1.05-.07-1.59-.21-1.63-.41-3.01-1.48-3.81-2.95-.49-.9-1.53-2.47-3.69-4.79-.05-.06-.11-.12-.16-.18-2.24-2.62-2.78-3.22-2.91-3.36-1.36-1.42-1.93-3.42-1.54-5.35.41-1.98,1.78-3.62,3.65-4.36,3.61-1.45,8.1-3.86,9.13-7.16h-6.42c-3.31,0-6-2.69-6-6v-12.01c0-2.55,1.59-4.73,3.84-5.6v-10.73c0-3.31,2.69-6,6-6h48.03c3.31,0,6,2.69,6,6v10.94c1.99.98,3.36,3.02,3.36,5.39v12.01c0,1.52-.57,2.91-1.5,3.97,1.79,1.06,2.94,3.01,2.94,5.16v5.28c0,.16,0,.32-.02.49-.67,8.25-3.56,13.57-8.59,15.8-.04.02-.07.03-.11.05-3.5,1.47-5.82,2.38-7.95,2.15h-11.43c-.22,0-.44-.01-.66-.04-1.9-.21-7.63-.85-9.8-5.55-.32-.65-.82-1.67-1.11-2.87-1.26,1.46-2.65,2.71-4.18,3.75-6.05,4.43-8.88,6.17-11.5,6.17ZM358.26,137.44s0,0,0,0c0,0,0,0,0,0ZM358.27,137.44s0,0,0,0c0,0,0,0,0,0ZM358.84,136.78c-.17.23-.36.45-.57.66.21-.21.4-.43.57-.66ZM374.46,132.14s0,0,0,0c0,0,0,0,0,0ZM374.45,132.14s0,0,0,0c0,0,0,0,0,0ZM374.44,132.13s0,0,0,0c0,0,0,0,0,0ZM374.44,132.13s0,0,0,0c0,0,0,0,0,0ZM374.43,132.13s0,0,0,0c0,0,0,0,0,0ZM374.42,132.12s0,0,0,0c0,0,0,0,0,0ZM374.41,132.12s0,0,0,0c0,0,0,0,0,0ZM374.4,132.11s0,0,0,0c0,0,0,0,0,0ZM370.81,131.52h.61c.44-.15,1.33-.47,2.98-1.17.03-.04.72-.75,1.2-3.39-.92,2.11-2.59,3.72-4.79,4.55ZM360.15,131.52h2.59c-1.12-.47-2.06-1.27-2.71-2.28v2.27s.08.01.12.02ZM340.68,125.07c-.99,1.43-2.21,2.76-3.66,4.01.06-.04.12-.09.18-.13,1.32-.89,2.48-2.19,3.48-3.88ZM331.2,104.62h7.45c2,0,3.88,1,4.99,2.67.35.52.61,1.04.79,1.6.74-2.47,3.03-4.27,5.75-4.27h3.84c2.48,0,4.61,1.51,5.52,3.65.91-2.15,3.04-3.65,5.52-3.65h9.37s-43.24,0-43.24,0ZM335.05,88.29h36.03s-36.03,0-36.03,0Z"/>
      </g>
      <path class="cls-4" d="M381.88,125.03c-.48,5.92-2.16,9.53-5.04,10.81-3.04,1.28-4.72,1.84-5.04,1.68h-12.01c-2.88-.32-4.56-1.04-5.04-2.16-.64-1.28-.88-2-.72-2.16v-22.58h-3.84v3.84c-1.44,9.61-4.64,16.09-9.61,19.45-4.8,3.52-7.53,5.2-8.17,5.04-.96-1.76-2.48-3.76-4.56-6-1.92-2.24-2.96-3.44-3.12-3.6,7.21-2.88,11.45-6.64,12.73-11.29,1.12-4.48,1.52-6.97,1.2-7.45h-13.45v-12.01h55.24v12.01h-15.37v15.37h3.36c1.12-.32,1.76-1.12,1.92-2.4.32-1.44.48-2.24.48-2.4v-4.8c1.28.48,3.36,1.12,6.24,1.92,2.72.8,4.32,1.28,4.8,1.44v5.28ZM377.08,94.29h-48.03v-12.01h48.03v12.01Z"/>
    </g>
  </g>
</svg>