<?xml version="1.0" encoding="UTF-8"?>
<svg id="_圖層_1" data-name="圖層 1" xmlns="http://www.w3.org/2000/svg" xmlns:xlink="http://www.w3.org/1999/xlink" viewBox="0 0 420 222">
  <defs>
    <style>
      .cls-1 {
        fill: #fff;
      }

      .cls-2 {
        mask: url(#mask);
      }

      .cls-3 {
        fill: #ffdf99;
      }

      .cls-4 {
        fill: #ffcf57;
      }

      .cls-5 {
        fill: #0154b7;
      }

      .cls-6 {
        filter: url(#luminosity-noclip);
      }
    </style>
    <filter id="luminosity-noclip" x="14.94" y="6.77" width="390.13" height="137.41" color-interpolation-filters="sRGB" filterUnits="userSpaceOnUse">
      <feFlood flood-color="#fff" result="bg"/>
      <feBlend in="SourceGraphic" in2="bg"/>
    </filter>
    <mask id="mask" x="14.94" y="6.77" width="390.13" height="137.41" maskUnits="userSpaceOnUse">
      <g class="cls-6">
        <polygon points="405.06 144.18 14.94 144.18 14.94 102.31 405.06 18.56 405.06 144.18"/>
      </g>
    </mask>
  </defs>
  <g>
    <rect class="cls-5" x=".51" y="150" width="418.98" height="72" rx="36" ry="36"/>
    <g>
      <path class="cls-1" d="M81.79,178.2c.62.53.96,1.1.96,1.63,0,.46-.11.83-.29,1.18-.22.38-.62,1.03-1.25,1.9-.52.61-1.03,1.14-1.47,1.63v16.34c0,.91-.26,1.56-.7,1.94-.4.38-1.03.61-1.88.61s-1.4-.23-1.77-.61c-.48-.38-.7-1.03-.7-1.94v-11.47c-.37.3-.7.57-.99.8-.37.42-.85.61-1.43.61-.48-.04-.99-.3-1.54-.84-.52-.49-.77-1.06-.77-1.71,0-.3.15-.72.44-1.18.7-.99,2.13-2.58,4.3-4.71,2.35-2.58,3.79-4.03,4.34-4.33.26-.34.59-.53.99-.61.51,0,1.1.27,1.77.76ZM79.98,170.11c.66.61,1.03,1.25,1.03,1.86,0,.38-.11.72-.29,1.03-.15.3-.48.72-.92,1.33-2.06,2.28-3.9,4.03-5.52,5.21-.4.38-.92.57-1.58.57-.52,0-1.03-.3-1.62-.87-.55-.53-.85-1.1-.85-1.79,0-.38.15-.8.44-1.33.52-.68,1.58-1.75,3.24-3.27,1.77-1.75,2.83-2.74,3.24-2.96.22-.34.52-.53.85-.61.59,0,1.25.3,1.99.84ZM101.42,180.86c.88,0,1.51.19,1.91.53.33.3.51.91.51,1.82,0,.8-.15,1.37-.44,1.71-.44.57-1.1.84-1.99.84h-3.16v13.34c0,1.22-.44,2.17-1.32,2.93-.92.84-2.17,1.25-3.71,1.25-2.5,0-4.85-.49-7.02-1.48-.88-.49-1.29-1.29-1.29-2.39,0-1.67.63-2.62,1.88-2.81.26,0,.55.11.88.27,1.54.61,3.02.99,4.41,1.06.74,0,1.14-.38,1.14-1.18v-10.98h-8.02c-.85,0-1.47-.19-1.88-.61-.4-.34-.59-.99-.59-1.94s.18-1.52.59-1.82c.37-.34.99-.53,1.88-.53h16.22ZM100.69,171.21c.85,0,1.43.19,1.8.53.33.3.51.91.51,1.82,0,.76-.15,1.29-.4,1.63-.44.53-1.07.76-1.91.76h-14.78c-.77,0-1.36-.19-1.73-.57-.37-.3-.55-.91-.55-1.82s.18-1.52.55-1.82c.33-.34.92-.53,1.73-.53h14.78Z"/>
      <path class="cls-1" d="M129.55,169.8c.29.38.44.8.44,1.25,0,.87-.4,1.41-1.14,1.63-1.73.3-3.6.57-5.59.8v1.86h5.59c.59,0,1.03.15,1.32.42.26.23.4.68.4,1.37,0,.57-.11.99-.33,1.22-.29.38-.77.57-1.4.57h-5.59v1.63h5.15c1.54,0,2.32.8,2.32,2.39v6.8c0,1.6-.77,2.39-2.32,2.39h-5.15v1.33h5c.59,0,.99.11,1.25.34.22.23.33.65.33,1.29,0,.49-.11.87-.29,1.1-.29.38-.7.53-1.29.53h-5v1.48l4.85-.3c.66,0,1.14.15,1.51.46.07.08.15.15.18.23,1.4-2.81,2.39-5.7,3.02-8.74.63-2.96.96-6.19,1.03-9.76h-.85c-.74,0-1.25-.19-1.54-.57-.4-.38-.59-.95-.59-1.79,0-.76.18-1.33.59-1.75.29-.3.81-.49,1.54-.49h.88v-4.75c0-.61.18-1.1.55-1.52.33-.23.81-.38,1.43-.42.77.04,1.32.19,1.69.49.29.34.48.84.48,1.44v4.75h2.13c1.77,0,2.91.49,3.46,1.41.59,1.1.88,3.57.88,7.37,0,8.17-.22,13.03-.66,14.59-.44,1.6-1.14,2.74-2.1,3.42-.88.65-1.99.99-3.27.99-1.4-.11-2.32-.3-2.76-.61-.66-.53-.99-1.22-.99-2.09,0-.72.22-1.29.59-1.71.44-.42.92-.65,1.43-.65.11,0,.22.04.33.04.4.15.88.23,1.4.27.85,0,1.32-.53,1.43-1.63.15-.57.26-5.32.26-14.25,0-1.18-.11-1.94-.33-2.28-.18-.15-.51-.27-.96-.27h-.92c0,2.74-.26,5.58-.7,8.62-.85,5.17-2.32,9.76-4.41,13.79-.48.49-1.07.76-1.73.76-.81,0-1.4-.23-1.77-.65-.37-.3-.55-.68-.62-1.14h-.04l-15.81,1.03c-.66-.04-1.14-.23-1.43-.57-.29-.27-.44-.72-.44-1.37.04-.65.22-1.06.59-1.37.22-.23.62-.34,1.14-.38l6.47-.38v-1.71h-5.44c-.55,0-.96-.11-1.21-.38-.26-.23-.37-.65-.37-1.25s.11-1.06.37-1.29c.22-.23.63-.34,1.21-.34h5.44v-1.33h-4.89c-1.54,0-2.28-.8-2.28-2.39v-6.8c0-1.6.74-2.39,2.28-2.39h4.89v-1.63h-6.47c-.59,0-.99-.11-1.29-.42-.29-.23-.44-.68-.44-1.37s.15-1.14.44-1.37c.26-.27.7-.42,1.29-.42h6.47v-1.48c-2.39.23-4.3.3-5.74.3-1.18,0-1.73-.72-1.73-2.2,0-.91.55-1.41,1.58-1.52,5.3-.11,10-.49,14.12-1.1.37-.04.7-.08.96-.08.44,0,.85.19,1.14.53ZM119.22,185v-1.48h-2.87c-.22,0-.29.11-.29.3v1.18h3.16ZM119.22,187.7h-3.16v1.18c0,.23.07.3.29.3h2.87v-1.48ZM123.26,185h3.42v-1.18c0-.19-.11-.3-.29-.3h-3.13v1.48ZM126.68,188.88v-1.18h-3.42v1.48h3.13c.18,0,.29-.08.29-.3Z"/>
      <path class="cls-1" d="M170.59,169.04c.52.42.77.99.77,1.71v2.55h11.91c.88,0,1.51.19,1.91.53.37.3.55.91.55,1.82,0,.76-.18,1.33-.48,1.71-.44.57-1.1.84-1.99.84h-11.91v3.84h8.31c1.25,0,2.21.19,2.87.53.96.68,1.47,1.56,1.47,2.58,0,1.25-.7,2.58-2.06,4.03-2.06,2.13-4.74,4.22-8.05,6.35l-.04.04c3.31,1.22,6.95,2.2,10.85,2.96.85.23,1.29.99,1.29,2.2,0,.68-.26,1.25-.77,1.75-.4.53-1.07.8-1.95.8-1.25,0-2.87-.27-4.93-.72-3.38-.83-6.77-2.09-10.08-3.84-1.91.95-3.9,1.79-5.92,2.58-3.64,1.41-6.1,2.17-7.35,2.28-.96,0-1.69-.3-2.13-.91-.44-.46-.63-.87-.63-1.33,0-1.14.33-1.9,1.03-2.39,3.49-1.22,6.62-2.43,9.41-3.65-2.35-1.67-4.3-3.5-5.88-5.47-.66-.68-.96-1.33-.96-2.01,0-.38.04-.72.18-1.03h-.04c-.77,0-1.36-.19-1.77-.61-.37-.3-.55-.87-.55-1.75s.22-1.48.66-1.94c.29-.3.85-.46,1.65-.46h10.19v-3.84h-11.33c-.85,0-1.47-.19-1.88-.61-.4-.34-.59-.99-.59-1.94s.18-1.52.59-1.86c.37-.3.99-.49,1.88-.49h11.33v-2.55c0-.61.22-1.22.74-1.75.37-.3.99-.46,1.88-.46s1.43.19,1.8.49ZM167.9,192.83c1.21-.61,2.32-1.25,3.31-1.86,3.35-1.86,5.04-3.12,5.04-3.72,0-.3-.26-.46-.74-.46h-15.22c2.35,2.39,4.89,4.41,7.61,6.04Z"/>
      <path class="cls-1" d="M203.46,169.73c.59.23.92.84.92,1.79,0,.53-.11,1.06-.26,1.52-.33,1.44-.74,2.81-1.18,4.14v23.71c0,.91-.22,1.56-.66,1.94-.37.38-.96.61-1.77.61s-1.4-.23-1.77-.61c-.48-.38-.7-1.03-.7-1.94v-13.72c-.07.08-.11.15-.15.23-.33.49-.88.72-1.69.72-.96,0-1.69-.23-2.13-.76-.51-.38-.77-.99-.77-1.75,0-.46.18-1.03.55-1.67,2.43-3.65,4.41-8.09,5.92-13.34.26-.99.77-1.48,1.58-1.48s1.51.23,2.1.61ZM217.18,175.5v-4.14c0-1.29.81-2.01,2.43-2.09,1.58,0,2.39.72,2.46,2.09v4.14h2.43c.74,0,1.32.19,1.69.53.4.3.62.99.62,2.01,0,.84-.15,1.44-.37,1.75-.4.53-1.07.76-1.95.76h-2.43v18.84c0,1.14-.4,2.09-1.14,2.81-.81.8-1.88,1.22-3.2,1.22-2.13,0-4.16-.27-6.03-.76-.88-.49-1.29-1.29-1.29-2.36,0-1.6.62-2.51,1.88-2.7.18,0,.4.04.66.11,1.1.3,2.17.46,3.2.49.66,0,1.03-.34,1.03-1.03v-16.64h-10.48c-.74,0-1.29-.19-1.65-.61-.44-.3-.66-.95-.66-1.9s.22-1.67.66-2.05c.29-.3.85-.49,1.65-.49h10.48ZM209.71,183.67c.81.8,1.73,2.36,2.83,4.71.66,1.56,1.03,2.81,1.03,3.76,0,.61-.18,1.06-.52,1.33-.37.46-.92.72-1.62.72-.66,0-1.14-.11-1.43-.34-.26-.15-.4-.38-.44-.68-.85-1.98-2.06-4.52-3.64-7.6-.07-.19-.11-.42-.11-.72,0-.19.04-.46.18-.8.15-.38.48-.68.99-.91.33-.11.66-.19.99-.19.77,0,1.36.27,1.73.72Z"/>
      <path class="cls-1" d="M237.51,179.15c1.51.76,2.91,1.67,4.23,2.74.55.46.85,1.03.85,1.63,0,.68-.18,1.29-.51,1.79-.48.76-1.1,1.18-1.91,1.18-.37,0-.7-.08-.92-.23-.26-.08-.52-.19-.74-.42-1.07-.84-2.24-1.63-3.49-2.47-.18-.08-.29-.19-.33-.3-.48-.3-.7-.8-.7-1.48s.22-1.29.74-1.86c.37-.53.92-.8,1.69-.8.37,0,.74.08,1.1.23ZM241.74,189.33c.66.38.99,1.06.99,2.05,0,.53-.15,1.1-.4,1.71-.66,2.13-1.25,3.84-1.73,5.17-.51,1.37-.88,2.32-1.18,2.93-.44,1.33-1.29,2.01-2.57,2.09-.74-.11-1.36-.42-1.88-.87-.48-.46-.74-1.1-.74-1.94.29-1.06,1.29-3.65,2.98-7.83.22-.76.48-1.41.77-1.98.37-1.18.99-1.79,1.88-1.79.74,0,1.36.15,1.88.46ZM238.61,169.84c1.62.76,3.16,1.71,4.56,2.85.55.46.85,1.03.85,1.63,0,.68-.18,1.29-.51,1.79-.48.76-1.1,1.18-1.91,1.18-.37,0-.7-.08-.99-.23-.26-.08-.51-.23-.77-.46-1.18-.87-2.43-1.75-3.79-2.58-.18-.08-.29-.15-.33-.3-.52-.3-.74-.8-.74-1.48s.22-1.33.74-1.86c.37-.53.92-.8,1.69-.8.37,0,.77.11,1.21.27ZM258.07,169.35c.48.42.74.99.74,1.71v6.99h4.6c2.39,0,3.6,1.41,3.6,4.14v17.36c0,1.52-.4,2.55-1.14,3-.85.57-2.1.87-3.75.87-1.84-.08-3.64-.38-5.44-.91-.96-.42-1.43-1.1-1.43-2.05.07-1.63.7-2.55,1.88-2.7.29,0,.59.04.88.08.99.46,2.17.68,3.57.68.37,0,.55-.42.55-1.33v-2.39h-12.36v6.38c0,.91-.22,1.52-.66,1.86-.37.34-.96.53-1.77.53-.88,0-1.51-.23-1.88-.65-.37-.46-.55-1.03-.55-1.75v-19c0-2.74,1.14-4.14,3.42-4.14h5.33v-6.99c0-.61.22-1.22.74-1.75.37-.3.96-.49,1.84-.49s1.47.19,1.84.53ZM248.61,170.45c.37.42.88,1.18,1.54,2.24.66,1.18,1.03,1.98,1.03,2.39,0,.61-.11.99-.29,1.14-.66.72-1.4,1.06-2.28,1.06-.74,0-1.21-.27-1.43-.87-.62-1.37-1.32-2.7-2.13-4.03-.11-.23-.15-.42-.15-.57,0-.68.26-1.22.77-1.56.44-.23.96-.38,1.51-.38.59,0,1.07.19,1.43.57ZM262.11,184.7v-1.75c0-.49-.18-.76-.55-.76h-10.92c-.59,0-.88.27-.88.76v1.75h12.36ZM262.11,190.97v-2.39h-12.36v2.39h12.36ZM266.41,170.38c.66.46,1.03,1.06,1.03,1.86,0,.34-.15.76-.44,1.22-.88,1.52-1.69,2.7-2.43,3.53-.29.3-.66.46-1.18.46-.77,0-1.43-.3-1.99-.95-.4-.38-.59-.8-.59-1.29,0-.23.07-.53.26-.91.88-1.22,1.65-2.43,2.32-3.69.33-.46.77-.72,1.32-.72.59,0,1.18.19,1.69.49Z"/>
      <path class="cls-1" d="M288.66,169.16c.29.3.48.72.55,1.29h4.45c.07-.46.29-.84.59-1.14.33-.38.88-.61,1.62-.61.66,0,1.21.23,1.65.61.29.3.51.68.59,1.14h5.96c1.51,0,2.28.57,2.28,1.63v3c0,1.48-.66,2.2-1.99,2.2h-6.18v1.33h7.02c1.03,0,1.77.11,2.17.34.37.27.55.76.55,1.44,0,1.71-.26,2.93-.74,3.69-.48.72-1.25,1.06-2.28,1.06h-.29c.18.46.29.95.29,1.48v10.41c0,1.6-.7,2.47-2.1,2.62.51.11,1.07.19,1.58.27.44.04.92.11,1.4.23.85.08,1.29.49,1.29,1.18,0,.49-.11.95-.29,1.33-.22.38-.52.72-.85.95-.37.23-.99.38-1.88.38-.74,0-1.76-.19-3.09-.49-2.17-.65-4.04-1.33-5.66-2.05-.4-.23-.7-.49-.88-.8-.22-.3-.29-.61-.29-.95h-5.04v.15c0,.53-.15.95-.4,1.18-2.06,1.37-5.41,2.36-10.08,2.96-1.14-.04-1.73-.68-1.73-1.94,0-1.03.44-1.6,1.32-1.75,1.25-.23,2.43-.42,3.49-.65-1.47-.08-2.21-.95-2.21-2.62v-8.93c-.15.08-.26.11-.33.11-.66.23-1.25.34-1.69.34-.74,0-1.21-.23-1.51-.72-.26-.34-.37-.87-.37-1.63,0-.99.51-1.56,1.58-1.79,2.65-.61,4.56-1.6,5.74-2.96h-3.86c-1.54,0-2.28-.72-2.28-2.24,0-.57.07-1.37.26-2.36.26-1.6,1.14-2.39,2.61-2.39h5.15v-1.18h-7.32c-.85-.08-1.29-.57-1.29-1.48,0-.84.44-1.29,1.29-1.37h7.35c.07-.53.22-.99.51-1.29.37-.23.88-.38,1.62-.46.74,0,1.32.15,1.69.46ZM282.07,177.29c-.4,0-.59.27-.59.76,0,.38.15.57.44.57h2.35c.07-.42.18-.87.26-1.33h-2.46ZM300.17,188.57v-1.03c0-.38-.18-.61-.55-.61h-14.82c-.37,0-.55.23-.55.61v1.03h15.92ZM300.17,192.56v-1.48h-15.92v1.48h15.92ZM300.17,196.13v-1.03h-15.92v1.03c0,.42.18.61.55.61h14.82c.37,0,.55-.19.55-.61ZM288.22,181.47c-.4.99-.96,1.82-1.62,2.51h7.47c-.33-.38-.48-.87-.48-1.48v-1.03h-5.37ZM289.1,177.29c-.07.49-.11.95-.15,1.33h4.63v-1.33h-4.49ZM289.25,173.3v1.18h4.34v-1.18h-4.34ZM302.19,182.19c.55-.08.85-.15.85-.3,0-.27-.11-.42-.26-.42h-4.6v1.03c0,.61-.15,1.1-.44,1.48h2.46c.07-1.06.74-1.63,1.99-1.79ZM301.34,174.48c.15,0,.26-.19.26-.61,0-.38-.11-.57-.26-.57h-3.16v1.18h3.16Z"/>
      <path class="cls-1" d="M319.91,183.63c.29.27.48.61.51,1.06v3.72c0,1.48-.07,2.89-.15,4.26-.29,4.03-.77,6.57-1.43,7.64-.18.38-.66.57-1.43.57-.59,0-1.03-.15-1.25-.46-.33-.23-.48-.57-.48-1.18,0-.3.07-.61.22-.99.74-2.74,1.14-5.58,1.21-8.51v-5.05c0-.42.15-.76.44-.99.22-.23.59-.34,1.14-.34.48,0,.88.11,1.21.27ZM328.63,177.29c.74,0,1.29.15,1.65.46.29.3.48.84.48,1.63,0,.68-.15,1.22-.4,1.52-.37.46-.96.68-1.73.68h-3.05v19.76c0,.72-.18,1.22-.48,1.52-.33.38-.85.57-1.51.57-.7,0-1.21-.19-1.51-.57-.37-.3-.52-.8-.52-1.52v-19.76h-3.02c-.74,0-1.25-.15-1.62-.49-.37-.3-.55-.87-.55-1.71s.18-1.33.55-1.63c.29-.3.85-.46,1.62-.46h10.08ZM327.6,170.45c.63,0,1.07.15,1.36.42.33.23.51.72.51,1.52,0,.72-.11,1.22-.29,1.44-.33.46-.85.65-1.58.65h-8.46c-.59,0-1.03-.15-1.36-.49-.37-.27-.51-.8-.51-1.6s.15-1.25.51-1.56c.26-.23.7-.38,1.36-.38h8.46ZM329.73,183.86c.22.23.33.61.33,1.14v13.37c0,.49-.15.84-.37,1.06-.26.3-.66.42-1.21.42-.59,0-.99-.11-1.25-.42-.22-.15-.33-.53-.33-1.06v-13.37c0-.46.07-.8.29-1.03.22-.3.62-.46,1.29-.46.59,0,1.03.11,1.25.34ZM334.25,198.95l-.55-2.05h-.22c-1.43,0-2.13-.72-2.13-2.24v-3.42c0-1.44.7-2.2,2.13-2.2h13.64c1.43,0,2.17.76,2.17,2.2v3.42c0,1.52-.74,2.24-2.17,2.24h-.07l-.52,2.05h2.61c.59,0,1.07.15,1.36.42.22.23.37.68.37,1.37,0,.53-.11.95-.33,1.22-.29.38-.77.57-1.4.57h-17.65c-.59,0-1.03-.15-1.32-.42-.29-.27-.4-.72-.4-1.37,0-.68.11-1.14.4-1.37.26-.27.7-.42,1.32-.42h2.76ZM348.56,184.85c.59,0,.99.11,1.25.34.22.19.33.57.33,1.14,0,.53-.11.91-.26,1.14-.29.34-.74.49-1.32.49h-16.51c-.51,0-.92-.11-1.18-.38-.29-.23-.4-.65-.4-1.25,0-.53.11-.91.4-1.14.22-.23.63-.34,1.18-.34h16.51ZM336.35,170.91v-.72c0-.53.11-.91.37-1.14.22-.23.62-.34,1.21-.34s.99.11,1.21.3c.22.27.37.65.37,1.18v.72h1.43v-.72c0-.53.11-.91.37-1.14.22-.23.62-.34,1.21-.34s.99.11,1.21.3c.22.27.37.65.37,1.18v.72h2.9c1.62,0,2.43.87,2.43,2.54v7.71c0,1.67-.81,2.51-2.43,2.51h-13.53c-1.62,0-2.43-.84-2.43-2.51v-7.71c0-1.67.81-2.54,2.43-2.54h2.87ZM336.35,175.96v-1.94h-.99c-.4,0-.59.23-.59.61v1.33h1.58ZM336.35,178.62h-1.58v1.33c0,.42.18.61.59.61h.99v-1.94ZM344.99,193.32v-.76c0-.38-.22-.57-.59-.57h-8.16c-.4,0-.59.19-.59.57v.76c0,.42.18.61.59.61h8.16c.37,0,.59-.19.59-.61ZM343.04,196.89h-5.33l.55,2.05h4.27l.52-2.05ZM339.51,175.96h1.43v-1.94h-1.43v1.94ZM340.94,178.62h-1.43v1.94h1.43v-1.94ZM344.11,175.96h1.58v-1.33c0-.38-.18-.61-.55-.61h-1.03v1.94ZM345.69,179.95v-1.33h-1.58v1.94h1.03c.37,0,.55-.19.55-.61Z"/>
    </g>
  </g>
  <g>
    <g>
      <g>
        <path class="cls-4" d="M71.56,76.48l10.46-67.62h69.71v30.67h-44.62l-1.39,6.27c2.32-.46,4.88-.7,7.67-.7,2.32-.46,4.88-.46,7.67,0,12.08,0,21.61,3.25,28.58,9.76,6.51,6.04,9.99,14.87,10.46,26.49-.47,12.55-4.88,22.54-13.25,29.98-8.83,6.97-21.61,10.69-38.34,11.15-7.9,0-15.57-.93-23.01-2.79-6.97-1.39-13.71-3.72-20.22-6.97l5.58-30.67c6.51,2.79,12.78,5.11,18.82,6.97,6.04,1.39,11.85,2.33,17.43,2.79,5.11,0,8.83-.93,11.15-2.79,2.79-1.39,4.18-3.49,4.18-6.27,0-3.25-1.86-5.81-5.58-7.67-3.25-1.86-8.37-2.79-15.34-2.79-5.11,0-10.23.23-15.34.7-4.65.93-9.53,2.09-14.64,3.49Z"/>
        <path class="cls-5" d="M108.51,129.5c-8.37,0-16.63-1-24.54-2.96-7.49-1.51-14.83-4.05-21.81-7.54-2.78-1.39-4.31-4.45-3.76-7.51l5.58-30.67c.15-.83.45-1.62.87-2.33-.29-.98-.37-2.02-.21-3.06L75.1,7.79c.53-3.41,3.46-5.93,6.92-5.93h69.71c3.87,0,7,3.13,7,7v30.67c0,3.87-3.13,7-7,7h-1.24c1.37.99,2.68,2.06,3.92,3.22,7.87,7.31,12.14,17.85,12.68,31.33,0,.18,0,.36,0,.54-.54,14.47-5.78,26.23-15.59,34.95-.1.09-.21.18-.31.26-10,7.89-24.29,12.15-42.49,12.66-.06,0-.13,0-.19,0ZM73.14,108.64c4.47,1.86,9.07,3.27,13.73,4.2.11.02.22.05.32.07,6.82,1.7,13.96,2.57,21.21,2.58,14.96-.43,26.38-3.63,33.94-9.52,6.78-6.1,10.29-14.15,10.74-24.6-.43-9.64-3.12-16.64-8.22-21.37-5.69-5.31-13.48-7.89-23.82-7.89-.38,0-.77-.03-1.15-.09-1.94-.32-3.67-.34-5.15-.04-.45.09-.91.13-1.37.13-2.31,0-4.43.19-6.3.56-2.32.46-4.72-.28-6.37-1.97-1.65-1.69-2.34-4.1-1.83-6.41l1.39-6.27c.71-3.2,3.55-5.48,6.83-5.48h37.62V15.86h-56.71l-7.93,51.28c1.61-.36,3.19-.7,4.74-1.01.25-.05.49-.08.74-.11,5.31-.48,10.68-.73,15.97-.73h0c8.18,0,14.27,1.18,18.64,3.61,8.07,4.11,9.28,10.43,9.28,13.84,0,5.26-2.63,9.57-7.42,12.2-3.59,2.6-8.48,3.86-14.92,3.86-.19,0-.39,0-.58-.02-5.87-.49-12.07-1.48-18.42-2.94-.16-.04-.32-.08-.48-.13-3.7-1.14-7.52-2.46-11.42-3.94l-3.07,16.86ZM91.5,82.27c5.51,1.26,10.85,2.12,15.89,2.55,4.74-.04,6.24-1.05,6.5-1.25.38-.31.8-.57,1.24-.79.1-.05.19-.1.26-.14-.24-.54-1.3-1.1-1.66-1.28-.11-.06-.23-.12-.34-.18-1.22-.7-4.39-1.87-11.87-1.87-4.74,0-9.56.21-14.33.63-.56.11-1.12.23-1.69.35,2.03.72,4.02,1.38,5.98,1.98Z"/>
      </g>
      <g>
        <path class="cls-4" d="M169.51,65.33c0-18.59,4.18-33,12.55-43.22,8.83-10.22,20.68-15.34,35.55-15.34s26.72,5.11,35.55,15.34c8.37,9.76,12.78,24.17,13.25,43.22-.47,18.13-4.88,32.07-13.25,41.83-8.83,9.76-20.68,14.87-35.55,15.34-14.87-.47-26.73-5.58-35.55-15.34-8.37-10.22-12.55-24.17-12.55-41.83ZM208.55,65.33c-.47,7.44.23,13.01,2.09,16.73,1.39,4.18,3.72,6.27,6.97,6.27,2.79,0,4.88-2.09,6.27-6.27,1.86-3.72,2.79-9.29,2.79-16.73,0-8.37-.93-14.41-2.79-18.13-1.39-4.18-3.49-6.04-6.27-5.58-3.25-.46-5.58,1.39-6.97,5.58-1.86,3.72-2.56,9.76-2.09,18.13Z"/>
        <path class="cls-5" d="M217.61,129.5c-.07,0-.15,0-.22,0-16.78-.53-30.42-6.46-40.53-17.64-.08-.08-.15-.17-.23-.26-9.38-11.46-14.13-27.02-14.13-46.26s4.75-36.19,14.13-47.66c.04-.05.08-.1.12-.14C186.94,5.75,200.68-.23,217.61-.23s30.67,5.98,40.85,17.76c9.42,10.99,14.44,27.01,14.95,47.63,0,.12,0,.23,0,.35-.51,19.69-5.53,35.24-14.93,46.2-.04.05-.08.09-.12.14-10.11,11.18-23.75,17.11-40.53,17.64-.07,0-.15,0-.22,0ZM187.36,102.59c7.51,8.23,17.41,12.46,30.25,12.9,12.87-.45,22.78-4.69,30.3-12.96,7.19-8.43,11.06-20.95,11.5-37.21-.44-17.23-4.33-30.23-11.56-38.66-7.49-8.67-17.39-12.89-30.24-12.89s-22.7,4.2-30.19,12.84c-7.24,8.89-10.91,21.92-10.91,38.72,0,15.84,3.65,28.38,10.86,37.26ZM217.61,95.34c-2.94,0-10.06-1.04-13.45-10.6-2.24-4.76-3.1-11.13-2.62-19.43-.48-9.18.38-15.99,2.62-20.77,3.32-9.33,10.2-10.12,13.42-9.94,3.11-.2,9.5.65,12.79,9.94,2.22,4.74,3.3,11.55,3.3,20.8,0,8.34-1.08,14.7-3.31,19.41-3.25,9.21-9.37,10.6-12.76,10.6ZM217.26,49.47c-.1.3-.22.58-.36.86-.73,1.46-1.88,5.3-1.36,14.61.02.28.01.55,0,.83-.51,8.07.64,11.71,1.37,13.16.14.28.26.57.36.87.1-.29.22-.58.36-.86.94-1.87,2.05-5.75,2.05-13.6,0-9.48-1.29-13.46-2.05-15-.14-.28-.26-.57-.36-.86Z"/>
      </g>
      <g>
        <path class="cls-4" d="M308.22,68.87c-.28,5.28-1.81,9.58-4.58,12.91-3.06,3.33-7.22,5.14-12.5,5.42-5.28-.28-9.44-2.08-12.5-5.42-3.06-3.33-4.58-7.64-4.58-12.91,0-5.83,1.53-10.41,4.58-13.75,3.05-3.33,7.22-5,12.5-5s9.44,1.67,12.5,5c2.78,3.33,4.3,7.91,4.58,13.75ZM291.15,77.62c1.39,0,2.36-.83,2.92-2.5.55-1.39.83-3.47.83-6.25,0-3.33-.28-5.69-.83-7.08-.56-1.67-1.53-2.36-2.92-2.08-1.39-.28-2.36.42-2.92,2.08-.56,1.39-.83,3.75-.83,7.08,0,2.78.28,4.86.83,6.25.55,1.67,1.53,2.5,2.92,2.5ZM290.31,119.27l38.74-69.14h9.58l-38.74,69.14h-9.58ZM354.87,101.36c-.28,5.28-1.94,9.58-5,12.91-3.06,3.05-7.08,4.72-12.08,5-5.55-.28-9.86-1.94-12.91-5-3.06-3.33-4.58-7.64-4.58-12.91,0-5.83,1.53-10.41,4.58-13.75,3.05-3.05,7.36-4.58,12.91-4.58,5,0,9.02,1.53,12.08,4.58,3.05,3.33,4.72,7.91,5,13.75ZM337.8,110.1c1.39,0,2.22-.83,2.5-2.5.56-1.39.83-3.47.83-6.25,0-3.33-.28-5.69-.83-7.08-.28-1.67-1.11-2.36-2.5-2.08-1.67-.28-2.78.42-3.33,2.08-.83,1.39-1.11,3.75-.83,7.08-.28,2.78,0,4.86.83,6.25.55,1.67,1.67,2.5,3.33,2.5Z"/>
        <path class="cls-5" d="M337.8,126.27c-.12,0-.23,0-.35,0-7.31-.37-13.21-2.74-17.51-7.04-.07-.07-.14-.14-.21-.22-2.79-3.04-4.68-6.63-5.65-10.73l-8.08,14.41c-1.24,2.21-3.57,3.58-6.11,3.58h-9.58c-2.48,0-4.78-1.32-6.04-3.46-1.26-2.14-1.28-4.79-.07-6.96l12.54-22.38c-1.65.38-3.4.63-5.23.72-.24.01-.49.01-.73,0-7.15-.38-12.96-2.96-17.29-7.68-4.26-4.65-6.42-10.58-6.42-17.64,0-7.61,2.16-13.83,6.42-18.48,4.36-4.75,10.46-7.27,17.66-7.27s13.29,2.51,17.65,7.27c.07.08.15.17.22.25,2.58,3.1,4.37,6.9,5.35,11.36l8.57-15.3c1.24-2.21,3.57-3.58,6.11-3.58h9.58c2.48,0,4.78,1.32,6.04,3.46,1.26,2.14,1.28,4.79.07,6.96l-12.89,23.01c1.87-.35,3.85-.53,5.95-.53,6.9,0,12.62,2.23,17.03,6.63.07.07.14.15.21.22,4.17,4.55,6.47,10.66,6.83,18.14.01.23.01.47,0,.7-.36,6.92-2.66,12.73-6.83,17.27-.07.08-.14.15-.21.22-4.3,4.29-9.89,6.66-16.64,7.04-.13,0-.26.01-.39.01ZM294.87,64s0,0,0,0c0,0,0,0,0,0Z"/>
      </g>
    </g>
    <g>
      <path class="cls-4" d="M71.56,76.48l10.46-67.62h69.71v30.67h-44.62l-1.39,6.27c2.32-.46,4.88-.7,7.67-.7,2.32-.46,4.88-.46,7.67,0,12.08,0,21.61,3.25,28.58,9.76,6.51,6.04,9.99,14.87,10.46,26.49-.47,12.55-4.88,22.54-13.25,29.98-8.83,6.97-21.61,10.69-38.34,11.15-7.9,0-15.57-.93-23.01-2.79-6.97-1.39-13.71-3.72-20.22-6.97l5.58-30.67c6.51,2.79,12.78,5.11,18.82,6.97,6.04,1.39,11.85,2.33,17.43,2.79,5.11,0,8.83-.93,11.15-2.79,2.79-1.39,4.18-3.49,4.18-6.27,0-3.25-1.86-5.81-5.58-7.67-3.25-1.86-8.37-2.79-15.34-2.79-5.11,0-10.23.23-15.34.7-4.65.93-9.53,2.09-14.64,3.49Z"/>
      <path class="cls-4" d="M169.51,65.33c0-18.59,4.18-33,12.55-43.22,8.83-10.22,20.68-15.34,35.55-15.34s26.72,5.11,35.55,15.34c8.37,9.76,12.78,24.17,13.25,43.22-.47,18.13-4.88,32.07-13.25,41.83-8.83,9.76-20.68,14.87-35.55,15.34-14.87-.47-26.73-5.58-35.55-15.34-8.37-10.22-12.55-24.17-12.55-41.83ZM208.55,65.33c-.47,7.44.23,13.01,2.09,16.73,1.39,4.18,3.72,6.27,6.97,6.27,2.79,0,4.88-2.09,6.27-6.27,1.86-3.72,2.79-9.29,2.79-16.73,0-8.37-.93-14.41-2.79-18.13-1.39-4.18-3.49-6.04-6.27-5.58-3.25-.46-5.58,1.39-6.97,5.58-1.86,3.72-2.56,9.76-2.09,18.13Z"/>
      <path class="cls-4" d="M308.22,68.87c-.28,5.28-1.81,9.58-4.58,12.91-3.06,3.33-7.22,5.14-12.5,5.42-5.28-.28-9.44-2.08-12.5-5.42-3.06-3.33-4.58-7.64-4.58-12.91,0-5.83,1.53-10.41,4.58-13.75,3.05-3.33,7.22-5,12.5-5s9.44,1.67,12.5,5c2.78,3.33,4.3,7.91,4.58,13.75ZM291.15,77.62c1.39,0,2.36-.83,2.92-2.5.55-1.39.83-3.47.83-6.25,0-3.33-.28-5.69-.83-7.08-.56-1.67-1.53-2.36-2.92-2.08-1.39-.28-2.36.42-2.92,2.08-.56,1.39-.83,3.75-.83,7.08,0,2.78.28,4.86.83,6.25.55,1.67,1.53,2.5,2.92,2.5ZM290.31,119.27l38.74-69.14h9.58l-38.74,69.14h-9.58ZM354.87,101.36c-.28,5.28-1.94,9.58-5,12.91-3.06,3.05-7.08,4.72-12.08,5-5.55-.28-9.86-1.94-12.91-5-3.06-3.33-4.58-7.64-4.58-12.91,0-5.83,1.53-10.41,4.58-13.75,3.05-3.05,7.36-4.58,12.91-4.58,5,0,9.02,1.53,12.08,4.58,3.05,3.33,4.72,7.91,5,13.75ZM337.8,110.1c1.39,0,2.22-.83,2.5-2.5.56-1.39.83-3.47.83-6.25,0-3.33-.28-5.69-.83-7.08-.28-1.67-1.11-2.36-2.5-2.08-1.67-.28-2.78.42-3.33,2.08-.83,1.39-1.11,3.75-.83,7.08-.28,2.78,0,4.86.83,6.25.55,1.67,1.67,2.5,3.33,2.5Z"/>
    </g>
    <g class="cls-2">
      <g>
        <path class="cls-3" d="M71.56,76.48l10.46-67.62h69.71v30.67h-44.62l-1.39,6.27c2.32-.46,4.88-.7,7.67-.7,2.32-.46,4.88-.46,7.67,0,12.08,0,21.61,3.25,28.58,9.76,6.51,6.04,9.99,14.87,10.46,26.49-.47,12.55-4.88,22.54-13.25,29.98-8.83,6.97-21.61,10.69-38.34,11.15-7.9,0-15.57-.93-23.01-2.79-6.97-1.39-13.71-3.72-20.22-6.97l5.58-30.67c6.51,2.79,12.78,5.11,18.82,6.97,6.04,1.39,11.85,2.33,17.43,2.79,5.11,0,8.83-.93,11.15-2.79,2.79-1.39,4.18-3.49,4.18-6.27,0-3.25-1.86-5.81-5.58-7.67-3.25-1.86-8.37-2.79-15.34-2.79-5.11,0-10.23.23-15.34.7-4.65.93-9.53,2.09-14.64,3.49Z"/>
        <path class="cls-3" d="M169.51,65.33c0-18.59,4.18-33,12.55-43.22,8.83-10.22,20.68-15.34,35.55-15.34s26.72,5.11,35.55,15.34c8.37,9.76,12.78,24.17,13.25,43.22-.47,18.13-4.88,32.07-13.25,41.83-8.83,9.76-20.68,14.87-35.55,15.34-14.87-.47-26.73-5.58-35.55-15.34-8.37-10.22-12.55-24.17-12.55-41.83ZM208.55,65.33c-.47,7.44.23,13.01,2.09,16.73,1.39,4.18,3.72,6.27,6.97,6.27,2.79,0,4.88-2.09,6.27-6.27,1.86-3.72,2.79-9.29,2.79-16.73,0-8.37-.93-14.41-2.79-18.13-1.39-4.18-3.49-6.04-6.27-5.58-3.25-.46-5.58,1.39-6.97,5.58-1.86,3.72-2.56,9.76-2.09,18.13Z"/>
        <path class="cls-3" d="M308.22,68.87c-.28,5.28-1.81,9.58-4.58,12.91-3.06,3.33-7.22,5.14-12.5,5.42-5.28-.28-9.44-2.08-12.5-5.42-3.06-3.33-4.58-7.64-4.58-12.91,0-5.83,1.53-10.41,4.58-13.75,3.05-3.33,7.22-5,12.5-5s9.44,1.67,12.5,5c2.78,3.33,4.3,7.91,4.58,13.75ZM291.15,77.62c1.39,0,2.36-.83,2.92-2.5.55-1.39.83-3.47.83-6.25,0-3.33-.28-5.69-.83-7.08-.56-1.67-1.53-2.36-2.92-2.08-1.39-.28-2.36.42-2.92,2.08-.56,1.39-.83,3.75-.83,7.08,0,2.78.28,4.86.83,6.25.55,1.67,1.53,2.5,2.92,2.5ZM290.31,119.27l38.74-69.14h9.58l-38.74,69.14h-9.58ZM354.87,101.36c-.28,5.28-1.94,9.58-5,12.91-3.06,3.05-7.08,4.72-12.08,5-5.55-.28-9.86-1.94-12.91-5-3.06-3.33-4.58-7.64-4.58-12.91,0-5.83,1.53-10.41,4.58-13.75,3.05-3.05,7.36-4.58,12.91-4.58,5,0,9.02,1.53,12.08,4.58,3.05,3.33,4.72,7.91,5,13.75ZM337.8,110.1c1.39,0,2.22-.83,2.5-2.5.56-1.39.83-3.47.83-6.25,0-3.33-.28-5.69-.83-7.08-.28-1.67-1.11-2.36-2.5-2.08-1.67-.28-2.78.42-3.33,2.08-.83,1.39-1.11,3.75-.83,7.08-.28,2.78,0,4.86.83,6.25.55,1.67,1.67,2.5,3.33,2.5Z"/>
      </g>
    </g>
  </g>
</svg>