<?xml version="1.0" encoding="UTF-8"?>
<svg id="_圖層_1" data-name="圖層 1" xmlns="http://www.w3.org/2000/svg" xmlns:xlink="http://www.w3.org/1999/xlink" viewBox="0 0 420 222">
  <defs>
    <style>
      .cls-1 {
        fill: #fff;
      }

      .cls-2 {
        mask: url(#mask);
      }

      .cls-3 {
        fill: #ffdf99;
      }

      .cls-4 {
        fill: #ffcf57;
      }

      .cls-5 {
        fill: #0154b7;
      }

      .cls-6 {
        filter: url(#luminosity-noclip);
      }
    </style>
    <filter id="luminosity-noclip" x="14.94" y="6.77" width="390.13" height="137.41" color-interpolation-filters="sRGB" filterUnits="userSpaceOnUse">
      <feFlood flood-color="#fff" result="bg"/>
      <feBlend in="SourceGraphic" in2="bg"/>
    </filter>
    <mask id="mask" x="14.94" y="6.77" width="390.13" height="137.41" maskUnits="userSpaceOnUse">
      <g class="cls-6">
        <polygon points="405.06 144.18 14.94 144.18 14.94 102.31 405.06 18.56 405.06 144.18"/>
      </g>
    </mask>
  </defs>
  <g>
    <rect class="cls-5" x=".51" y="150" width="418.98" height="72" rx="36" ry="36"/>
    <g>
      <path class="cls-1" d="M78.07,169.65c.52.23.81.72.81,1.56,0,.53-.07,1.06-.22,1.56-.33,1.75-.74,3.46-1.21,5.09v23.33c0,.8-.22,1.37-.62,1.67-.33.38-.85.57-1.54.57-.74,0-1.25-.19-1.54-.57-.44-.3-.62-.87-.62-1.67v-13.3c-.29.15-.62.23-.99.23-.81,0-1.4-.19-1.8-.65-.44-.38-.62-.87-.62-1.56,0-.46.11-1.03.4-1.71,1.95-3.76,3.53-8.36,4.74-13.75.22-.87.7-1.33,1.43-1.33s1.32.19,1.8.53ZM87.34,175.96c.59,0,.99.15,1.25.38.29.23.48.68.48,1.41,0,.65-.11,1.1-.26,1.33-.33.42-.81.61-1.47.61h-7.61c-.51,0-.96-.15-1.25-.46-.33-.27-.48-.76-.48-1.48,0-.68.15-1.18.48-1.44.22-.23.66-.34,1.25-.34h7.61ZM86.64,186.33c.44,0,.81.11,1.03.34.11.11.18.23.26.38.07-.04.18-.08.29-.11,1.84-1.1,3.46-2.28,4.82-3.57h-3.24c-.55,0-.96-.11-1.25-.42-.33-.27-.48-.76-.48-1.48,0-.76.15-1.29.48-1.6.22-.23.66-.34,1.25-.34h2.43v-3.72h-1.88c-.48,0-.85-.11-1.14-.42-.29-.23-.44-.68-.44-1.37s.15-1.18.44-1.44c.22-.23.59-.34,1.14-.34h1.88v-1.33c0-.46.15-.87.51-1.29.26-.23.7-.34,1.36-.34s1.14.15,1.43.38c.37.3.55.72.55,1.25v1.33h2.02c.51,0,.92.15,1.14.38.18.15.29.34.37.65.15-.38.33-.8.52-1.18.37-.38.77-.57,1.14-.57.52,0,.99.23,1.43.61.37.34.59.83.59,1.44,0,.76-.15,1.37-.4,1.9-.48,1.29-1.14,2.62-1.99,4.07h.81c.55,0,.96.15,1.25.38.29.23.48.76.48,1.56,0,.65-.11,1.06-.29,1.29-.29.42-.77.61-1.43.61h-3.35c-.11.15-.22.27-.29.38-.77.91-1.51,1.75-2.24,2.47h4.85c1.54,0,2.32.8,2.32,2.36v11.89c0,1.56-.77,2.36-2.32,2.36h-8.02c-1.54,0-2.32-.8-2.32-2.36v-10.03c-.66.38-1.14.53-1.43.53-.74,0-1.18-.19-1.4-.65-.22-.19-.33-.46-.4-.8-.15.08-.33.08-.48.08h-6.47c-.44,0-.81-.11-1.07-.38-.26-.23-.37-.65-.37-1.25,0-.65.11-1.1.37-1.33.22-.19.55-.3,1.07-.3h6.47ZM86.64,181.47c.44,0,.81.11,1.03.3.26.23.4.65.4,1.29,0,.57-.11.95-.26,1.14-.22.34-.62.49-1.18.49h-6.47c-.44,0-.81-.11-1.07-.38-.26-.23-.37-.65-.37-1.25s.11-1.06.37-1.33c.22-.15.55-.27,1.07-.27h6.47ZM86.79,191.54c1.32,0,1.99.72,1.99,2.09v7.11c0,1.37-.66,2.09-1.99,2.09h-6.07c-1.32,0-1.99-.72-1.99-2.09v-7.11c0-1.37.66-2.09,1.99-2.09h6.07ZM86.49,170.91c.44,0,.81.11,1.03.34.26.19.4.61.4,1.29,0,.57-.11.95-.26,1.1-.22.38-.63.53-1.18.53h-5.48c-.44,0-.77-.11-1.03-.38-.29-.23-.4-.65-.4-1.25,0-.65.11-1.1.4-1.33.18-.19.52-.3,1.03-.3h5.48ZM85.32,198.53v-2.7c0-.46-.26-.72-.7-.72h-1.73c-.48,0-.7.27-.7.72v2.7c0,.49.22.72.7.72h1.73c.44,0,.7-.23.7-.72ZM98.99,192.72v-2.36c0-.38-.22-.61-.59-.61h-3.46c-.37,0-.55.23-.55.61v2.36h4.6ZM98.99,198.68v-2.7h-4.6v2.7c0,.38.18.57.55.57h3.46c.37,0,.59-.19.59-.57ZM98.44,175.77c-.11.04-.22.04-.33.04h-2.02v3.72h.18c.74-1.1,1.47-2.36,2.17-3.76Z"/>
      <path class="cls-1" d="M120.72,169.73c.62.23.96.84.96,1.79,0,.53-.11,1.06-.29,1.52-.4,1.6-.88,3.15-1.43,4.67v23.33c0,.84-.22,1.44-.66,1.79-.37.38-.99.61-1.8.61s-1.32-.23-1.65-.61c-.44-.34-.62-.95-.62-1.79v-14.1c-.11.19-.22.34-.29.46-.29.49-.85.72-1.58.72-.85,0-1.47-.23-1.91-.68-.44-.38-.66-.95-.66-1.67,0-.46.15-1.03.48-1.67,2.39-3.69,4.34-8.17,5.85-13.49.22-.99.77-1.48,1.58-1.48s1.51.23,2.06.61ZM130.43,171.67v-.3c0-.95.18-1.63.59-2.05.37-.38,1.03-.61,1.99-.61,1.03,0,1.73.23,2.1.61.4.42.62,1.1.62,2.05v.3h6.47c.74,0,1.25.15,1.58.46.29.27.44.8.44,1.6,0,.65-.15,1.1-.37,1.41-.37.46-.92.68-1.65.68h-6.47v2.24h3.9c2.21,0,3.31,1.1,3.31,3.27v17.36c.59.08.99.23,1.25.46.29.27.48.76.48,1.6,0,.61-.15,1.1-.4,1.41-.37.46-.88.68-1.62.68h-19.97c-.66,0-1.18-.19-1.54-.49-.33-.3-.48-.84-.48-1.6,0-.8.15-1.33.48-1.63.29-.27.81-.42,1.54-.42h.59v-17.36c0-2.17,1.03-3.27,3.13-3.27h4.04v-2.24h-6.03c-.7,0-1.21-.15-1.54-.49-.33-.27-.48-.8-.48-1.6s.15-1.33.48-1.63c.29-.27.81-.42,1.54-.42h6.03ZM138.19,182.34c0-.3-.26-.46-.74-.46h-8.9c-.4,0-.59.15-.59.46v1.33h10.22v-1.33ZM127.97,188.73h10.22v-1.94h-10.22v1.94ZM138.19,191.84h-10.22v1.79h10.22v-1.79ZM138.19,196.74h-10.22v1.94h10.22v-1.94Z"/>
      <path class="cls-1" d="M155.36,179.15c1.51.76,2.91,1.67,4.23,2.74.55.46.85,1.03.85,1.63,0,.68-.18,1.29-.51,1.79-.48.76-1.1,1.18-1.91,1.18-.37,0-.7-.08-.92-.23-.26-.08-.52-.19-.74-.42-1.07-.84-2.24-1.63-3.49-2.47-.18-.08-.29-.19-.33-.3-.48-.3-.7-.8-.7-1.48s.22-1.29.74-1.86c.37-.53.92-.8,1.69-.8.37,0,.74.08,1.1.23ZM159.59,189.33c.66.38.99,1.06.99,2.05,0,.53-.15,1.1-.4,1.71-.66,2.13-1.25,3.84-1.73,5.17-.51,1.37-.88,2.32-1.18,2.93-.44,1.33-1.29,2.01-2.57,2.09-.74-.11-1.36-.42-1.88-.87-.48-.46-.74-1.1-.74-1.94.29-1.06,1.29-3.65,2.98-7.83.22-.76.48-1.41.77-1.98.37-1.18.99-1.79,1.88-1.79.74,0,1.36.15,1.88.46ZM156.46,169.84c1.62.76,3.16,1.71,4.56,2.85.55.46.85,1.03.85,1.63,0,.68-.18,1.29-.51,1.79-.48.76-1.1,1.18-1.91,1.18-.37,0-.7-.08-.99-.23-.26-.08-.51-.23-.77-.46-1.18-.87-2.43-1.75-3.79-2.58-.18-.08-.29-.15-.33-.3-.52-.3-.74-.8-.74-1.48s.22-1.33.74-1.86c.37-.53.92-.8,1.69-.8.37,0,.77.11,1.21.27ZM175.92,169.35c.48.42.74.99.74,1.71v6.99h4.6c2.39,0,3.6,1.41,3.6,4.14v17.36c0,1.52-.4,2.55-1.14,3-.85.57-2.1.87-3.75.87-1.84-.08-3.64-.38-5.44-.91-.96-.42-1.43-1.1-1.43-2.05.07-1.63.7-2.55,1.88-2.7.29,0,.59.04.88.08.99.46,2.17.68,3.57.68.37,0,.55-.42.55-1.33v-2.39h-12.36v6.38c0,.91-.22,1.52-.66,1.86-.37.34-.96.53-1.77.53-.88,0-1.51-.23-1.88-.65-.37-.46-.55-1.03-.55-1.75v-19c0-2.74,1.14-4.14,3.42-4.14h5.33v-6.99c0-.61.22-1.22.74-1.75.37-.3.96-.49,1.84-.49s1.47.19,1.84.53ZM166.47,170.45c.37.42.88,1.18,1.54,2.24.66,1.18,1.03,1.98,1.03,2.39,0,.61-.11.99-.29,1.14-.66.72-1.4,1.06-2.28,1.06-.74,0-1.21-.27-1.43-.87-.62-1.37-1.32-2.7-2.13-4.03-.11-.23-.15-.42-.15-.57,0-.68.26-1.22.77-1.56.44-.23.96-.38,1.51-.38.59,0,1.07.19,1.43.57ZM179.96,184.7v-1.75c0-.49-.18-.76-.55-.76h-10.92c-.59,0-.88.27-.88.76v1.75h12.36ZM179.96,190.97v-2.39h-12.36v2.39h12.36ZM184.27,170.38c.66.46,1.03,1.06,1.03,1.86,0,.34-.15.76-.44,1.22-.88,1.52-1.69,2.7-2.43,3.53-.29.3-.66.46-1.18.46-.77,0-1.43-.3-1.99-.95-.4-.38-.59-.8-.59-1.29,0-.23.07-.53.26-.91.88-1.22,1.65-2.43,2.32-3.69.33-.46.77-.72,1.32-.72.59,0,1.18.19,1.69.49Z"/>
      <path class="cls-1" d="M206.51,169.16c.29.3.48.72.55,1.29h4.45c.07-.46.29-.84.59-1.14.33-.38.88-.61,1.62-.61.66,0,1.21.23,1.65.61.29.3.51.68.59,1.14h5.96c1.51,0,2.28.57,2.28,1.63v3c0,1.48-.66,2.2-1.99,2.2h-6.18v1.33h7.02c1.03,0,1.77.11,2.17.34.37.27.55.76.55,1.44,0,1.71-.26,2.93-.74,3.69-.48.72-1.25,1.06-2.28,1.06h-.29c.18.46.29.95.29,1.48v10.41c0,1.6-.7,2.47-2.1,2.62.51.11,1.07.19,1.58.27.44.04.92.11,1.4.23.85.08,1.29.49,1.29,1.18,0,.49-.11.95-.29,1.33-.22.38-.52.72-.85.95-.37.23-.99.38-1.88.38-.74,0-1.77-.19-3.09-.49-2.17-.65-4.04-1.33-5.66-2.05-.4-.23-.7-.49-.88-.8-.22-.3-.29-.61-.29-.95h-5.04v.15c0,.53-.15.95-.4,1.18-2.06,1.37-5.41,2.36-10.08,2.96-1.14-.04-1.73-.68-1.73-1.94,0-1.03.44-1.6,1.32-1.75,1.25-.23,2.43-.42,3.49-.65-1.47-.08-2.21-.95-2.21-2.62v-8.93c-.15.08-.26.11-.33.11-.66.23-1.25.34-1.69.34-.74,0-1.21-.23-1.51-.72-.26-.34-.37-.87-.37-1.63,0-.99.51-1.56,1.58-1.79,2.65-.61,4.56-1.6,5.74-2.96h-3.86c-1.54,0-2.28-.72-2.28-2.24,0-.57.07-1.37.26-2.36.26-1.6,1.14-2.39,2.61-2.39h5.15v-1.18h-7.32c-.85-.08-1.29-.57-1.29-1.48,0-.84.44-1.29,1.29-1.37h7.35c.07-.53.22-.99.51-1.29.37-.23.88-.38,1.62-.46.74,0,1.32.15,1.69.46ZM199.93,177.29c-.4,0-.59.27-.59.76,0,.38.15.57.44.57h2.35c.07-.42.18-.87.26-1.33h-2.46ZM218.02,188.57v-1.03c0-.38-.18-.61-.55-.61h-14.82c-.37,0-.55.23-.55.61v1.03h15.92ZM218.02,192.56v-1.48h-15.92v1.48h15.92ZM218.02,196.13v-1.03h-15.92v1.03c0,.42.18.61.55.61h14.82c.37,0,.55-.19.55-.61ZM206.07,181.47c-.4.99-.96,1.82-1.62,2.51h7.46c-.33-.38-.48-.87-.48-1.48v-1.03h-5.37ZM206.95,177.29c-.07.49-.11.95-.15,1.33h4.63v-1.33h-4.49ZM207.1,173.3v1.18h4.34v-1.18h-4.34ZM220.04,182.19c.55-.08.85-.15.85-.3,0-.27-.11-.42-.26-.42h-4.6v1.03c0,.61-.15,1.1-.44,1.48h2.46c.07-1.06.74-1.63,1.99-1.79ZM219.2,174.48c.15,0,.26-.19.26-.61,0-.38-.11-.57-.26-.57h-3.16v1.18h3.16Z"/>
      <path class="cls-1" d="M237.4,179.19c1.54.76,2.98,1.71,4.34,2.85.55.46.85,1.03.85,1.63,0,.65-.18,1.22-.48,1.71-.44.72-1.07,1.1-1.8,1.1-.37,0-.7-.08-.96-.23-.26-.08-.52-.23-.74-.46-1.1-.84-2.28-1.71-3.6-2.58-.18-.08-.29-.15-.33-.27-.48-.3-.7-.8-.7-1.48s.22-1.25.7-1.79c.33-.49.85-.76,1.58-.76.37,0,.74.11,1.14.27ZM241.18,189.14c.62.38.96,1.03.96,1.94,0,.57-.11,1.18-.29,1.82-.52,2.2-.99,3.99-1.36,5.4-.37,1.44-.7,2.43-.92,3.04-.4,1.22-1.21,1.86-2.43,1.94-.7-.11-1.29-.38-1.8-.84-.44-.46-.66-1.06-.66-1.86.22-1.06.99-3.8,2.28-8.13.18-.8.37-1.48.59-2.09.37-1.06.99-1.63,1.88-1.63.66,0,1.25.15,1.77.42ZM247.03,170.91v-.15c0-.61.18-1.06.62-1.41.26-.34.81-.53,1.69-.53.7,0,1.25.19,1.69.53.37.3.59.8.59,1.41v.15h8.05c0-.68.15-1.22.44-1.56.37-.34.96-.53,1.84-.53.77,0,1.36.19,1.8.53.33.3.51.72.51,1.25v.3h2.02c.59,0,1.07.15,1.36.38.29.23.48.76.48,1.56,0,.68-.11,1.18-.26,1.44-.37.46-.88.65-1.58.65h-2.02v1.9c0,2.39-1.18,3.57-3.46,3.57h-3.31v1.94h7.06c1.91,0,2.87.84,2.87,2.51v15.73c0,1.06-.29,1.86-.81,2.32-.51.46-1.32.68-2.35.68h-1.25c-.4,0-.81-.08-1.25-.15-.48-.08-.85-.27-1.14-.65-.26-.53-.37-.99-.37-1.44,0-.27,0-.53.07-.84.18-.34.44-.57.74-.72.29-.11.59-.19.88-.23h.88c.18,0,.29-.08.29-.3v-1.14c-.26.08-.52.11-.74.11s-.4-.19-.63-.49c-.44-.65-.88-1.6-1.29-2.85,0,0-.04-.04-.04-.08-.62,1.82-1.14,2.89-1.51,3.27-.22.3-.55.46-.99.46-.18,0-.33,0-.44-.08v2.58c0,.72-.18,1.25-.48,1.56-.37.34-.85.53-1.51.53-.7,0-1.21-.19-1.51-.53-.37-.3-.51-.84-.51-1.56v-2.32c-.29.15-.62.23-.99.23-.22,0-.4-.19-.59-.53-.4-.65-.77-1.56-1.14-2.74-.66,1.44-1.18,2.36-1.58,2.7-.22.3-.59.46-1.03.46-.18,0-.33,0-.4-.08v2.89c-.11,1.1-.85,1.71-2.17,1.79-1.4-.08-2.1-.68-2.17-1.79v-16.64c0-1.75.92-2.66,2.76-2.66h7.32v-1.94h-3.02c-2.32,0-3.46-1.18-3.46-3.57v-1.9h-2.43c-.37,0-.66-.04-.88-.19-.07.53-.22,1.03-.48,1.41-.44.76-1.03,1.14-1.8,1.14-.37,0-.7-.08-.99-.27-.26-.08-.51-.23-.77-.46-1.14-.91-2.39-1.79-3.79-2.66-.18-.08-.29-.19-.33-.34-.51-.3-.74-.8-.74-1.48,0-.65.22-1.22.7-1.75.33-.49.88-.76,1.62-.76.37,0,.74.11,1.18.27,1.58.8,3.05,1.75,4.41,2.89,0-.68.18-1.18.52-1.48.26-.23.7-.34,1.36-.34h2.43ZM248.61,188.12h2.02c1.07,0,1.69.49,1.88,1.48.07,1.6.22,2.81.44,3.69.15.65.33,1.22.55,1.75v-8.7h-5.48c-.18,0-.26.11-.26.3v1.79c.15-.19.44-.3.85-.3ZM250.08,191.65c-.04-.08-.04-.15-.04-.27-.07-.19-.26-.3-.55-.3h-.88c-.4,0-.7-.08-.85-.3v4.75c.81-1.14,1.58-2.43,2.32-3.88ZM251.63,175.96c0,.61.29.87.88.87h6.29c.59,0,.88-.27.88-.87v-1.03h-8.05v1.03ZM258.39,187.97h1.99c1.1,0,1.73.49,1.88,1.48.11,1.48.29,2.62.52,3.46.07.38.22.76.37,1.06v-7.49c0-.08-.11-.15-.29-.15h-5.33v1.98c.18-.23.48-.34.88-.34ZM259.53,191.01c-.11,0-.22-.04-.29-.04h-.85c-.4,0-.7-.11-.88-.34v4.41c.74-1.18,1.4-2.51,2.02-4.03Z"/>
      <path class="cls-1" d="M283.25,176.45c.44.38.7.84.7,1.29,0,.11-.04.23-.04.3h3.75c1.1,0,1.88.19,2.32.57.55.57.85,1.33.85,2.24,0,1.14-.66,2.43-1.95,3.91-.48.53-.92.99-1.36,1.44,1.18.84,2.35,1.67,3.46,2.51.77.38,1.18.99,1.18,1.79,0,.57-.22,1.03-.59,1.41-.22.42-.55.65-1.07.72.22.46.33.95.33,1.56v5.96c0,1.75-.88,2.66-2.57,2.66h-8.6c-1.77,0-2.61-.91-2.61-2.66v-5.96c0-.38.04-.72.15-1.03-.66,0-1.21-.19-1.62-.65-.37-.46-.51-.87-.51-1.29,0-.61.22-1.18.7-1.63,1.91-.95,3.6-1.94,5.07-2.96-.81-.53-1.58-1.03-2.35-1.56-.15.15-.29.3-.4.38-.33.23-.66.3-1.03.3-.59,0-1.1-.23-1.51-.76-.33-.38-.48-.76-.48-1.18,0-.3.11-.61.4-.87,2.1-2.24,3.71-4.37,4.89-6.38.44-.38.88-.61,1.29-.61.59,0,1.14.19,1.62.49ZM285.79,169.5c.44.38.7.91.74,1.56h2.87c1.73,0,2.61,1.1,2.61,3.27v1.79c0,.65-.18,1.1-.55,1.33-.29.3-.74.46-1.32.46-.74,0-1.25-.15-1.54-.46-.22-.23-.33-.57-.33-1.03v-1.06c0-.27-.22-.42-.59-.42h-7.87c-.29,0-.44.15-.44.42v1.48c0,.61-.15.99-.4,1.14-.29.23-.81.34-1.47.34s-1.1-.11-1.4-.42c-.33-.3-.48-.76-.48-1.33v-2.24c0-2.17.85-3.27,2.61-3.27h3.27c.04-.57.26-1.1.7-1.6.37-.3.96-.49,1.77-.49s1.47.19,1.84.53ZM287.59,191.54c-1.1-.84-2.21-1.63-3.24-2.43-1.07.84-2.13,1.6-3.16,2.24-.15.08-.26.15-.33.19h6.73ZM284.21,184.09c.07-.08.15-.11.22-.19,1.1-.91,1.65-1.56,1.65-2.01,0-.19-.11-.3-.26-.3h-4.16c-.18.27-.37.49-.55.68,1.07.61,2.1,1.21,3.09,1.82ZM286.52,198.83v-3.27c0-.3-.15-.46-.44-.46h-4.3c-.29,0-.4.15-.4.46v3.27c0,.3.11.42.4.42h4.3c.29,0,.44-.11.44-.42ZM307.37,169.42c.59,0,1.07.15,1.36.42.29.27.48.84.48,1.67,0,.68-.11,1.18-.26,1.41-.37.46-.88.65-1.58.65h-4.38l-.59,2.55h3.24c1.91,0,2.87.99,2.87,2.96v16.03c0,1.82-.81,2.81-2.39,2.93.66.65,1.36,1.22,2.1,1.67.22.19.37.34.44.46.26.23.4.57.4,1.03,0,.53-.15.95-.4,1.22-.51.68-1.14,1.03-1.88,1.03-.33,0-.63-.11-.85-.27-1.43-.99-2.68-2.09-3.71-3.34-.26-.23-.4-.46-.48-.72-.22-.27-.29-.61-.29-1.03h-1.73c0,.34-.11.65-.26.87-1.1,1.44-2.54,2.77-4.38,3.99-.37.3-.85.49-1.4.49-.66,0-1.21-.27-1.69-.8-.4-.46-.59-.99-.59-1.6,0-.23.15-.49.44-.87.44-.3.88-.57,1.25-.84.63-.46,1.21-.87,1.73-1.33-1.32-.27-1.99-1.22-1.99-2.89v-16.03c0-1.98.96-2.96,2.87-2.96h2.1l.59-2.55h-4.27c-.59,0-1.03-.15-1.32-.46-.37-.27-.55-.8-.55-1.6s.18-1.41.55-1.71c.22-.23.66-.38,1.32-.38h13.24ZM304.21,182.65v-1.94c0-.3-.15-.46-.44-.46h-6.18c-.29,0-.44.15-.44.46v1.94h7.06ZM304.21,188.27v-2.51h-7.06v2.51h7.06ZM304.21,193.48v-2.09h-7.06v2.09c0,.3.15.46.44.46h6.18c.29,0,.44-.15.44-.46Z"/>
      <path class="cls-1" d="M319.91,183.63c.29.27.48.61.51,1.06v3.72c0,1.48-.07,2.89-.15,4.26-.29,4.03-.77,6.57-1.43,7.64-.18.38-.66.57-1.43.57-.59,0-1.03-.15-1.25-.46-.33-.23-.48-.57-.48-1.18,0-.3.07-.61.22-.99.74-2.74,1.14-5.58,1.21-8.51v-5.05c0-.42.15-.76.44-.99.22-.23.59-.34,1.14-.34.48,0,.88.11,1.21.27ZM328.62,177.29c.74,0,1.29.15,1.66.46.29.3.48.84.48,1.63,0,.68-.15,1.22-.4,1.52-.37.46-.96.68-1.73.68h-3.05v19.76c0,.72-.18,1.22-.48,1.52-.33.38-.85.57-1.51.57-.7,0-1.21-.19-1.51-.57-.37-.3-.52-.8-.52-1.52v-19.76h-3.01c-.74,0-1.25-.15-1.62-.49-.37-.3-.55-.87-.55-1.71s.18-1.33.55-1.63c.29-.3.85-.46,1.62-.46h10.08ZM327.59,170.45c.62,0,1.07.15,1.36.42.33.23.51.72.51,1.52,0,.72-.11,1.22-.29,1.44-.33.46-.85.65-1.58.65h-8.46c-.59,0-1.03-.15-1.36-.49-.37-.27-.51-.8-.51-1.6s.15-1.25.51-1.56c.26-.23.7-.38,1.36-.38h8.46ZM329.73,183.86c.22.23.33.61.33,1.14v13.37c0,.49-.15.84-.37,1.06-.26.3-.66.42-1.21.42-.59,0-.99-.11-1.25-.42-.22-.15-.33-.53-.33-1.06v-13.37c0-.46.07-.8.29-1.03.22-.3.62-.46,1.29-.46.59,0,1.03.11,1.25.34ZM334.25,198.95l-.55-2.05h-.22c-1.43,0-2.13-.72-2.13-2.24v-3.42c0-1.44.7-2.2,2.13-2.2h13.64c1.43,0,2.17.76,2.17,2.2v3.42c0,1.52-.74,2.24-2.17,2.24h-.07l-.51,2.05h2.61c.59,0,1.07.15,1.36.42.22.23.37.68.37,1.37,0,.53-.11.95-.33,1.22-.29.38-.77.57-1.4.57h-17.65c-.59,0-1.03-.15-1.32-.42-.29-.27-.4-.72-.4-1.37,0-.68.11-1.14.4-1.37.26-.27.7-.42,1.32-.42h2.76ZM348.56,184.85c.59,0,.99.11,1.25.34.22.19.33.57.33,1.14,0,.53-.11.91-.26,1.14-.29.34-.74.49-1.32.49h-16.51c-.51,0-.92-.11-1.18-.38-.29-.23-.4-.65-.4-1.25,0-.53.11-.91.4-1.14.22-.23.63-.34,1.18-.34h16.51ZM336.35,170.91v-.72c0-.53.11-.91.37-1.14.22-.23.62-.34,1.21-.34s.99.11,1.21.3c.22.27.37.65.37,1.18v.72h1.43v-.72c0-.53.11-.91.37-1.14.22-.23.62-.34,1.21-.34s.99.11,1.21.3c.22.27.37.65.37,1.18v.72h2.9c1.62,0,2.43.87,2.43,2.54v7.71c0,1.67-.81,2.51-2.43,2.51h-13.53c-1.62,0-2.43-.84-2.43-2.51v-7.71c0-1.67.81-2.54,2.43-2.54h2.87ZM336.35,175.96v-1.94h-.99c-.4,0-.59.23-.59.61v1.33h1.58ZM336.35,178.62h-1.58v1.33c0,.42.18.61.59.61h.99v-1.94ZM344.99,193.32v-.76c0-.38-.22-.57-.59-.57h-8.16c-.4,0-.59.19-.59.57v.76c0,.42.18.61.59.61h8.16c.37,0,.59-.19.59-.61ZM343.04,196.89h-5.33l.55,2.05h4.27l.52-2.05ZM339.51,175.96h1.43v-1.94h-1.43v1.94ZM340.94,178.62h-1.43v1.94h1.43v-1.94ZM344.11,175.96h1.58v-1.33c0-.38-.18-.61-.55-.61h-1.03v1.94ZM345.69,179.95v-1.33h-1.58v1.94h1.03c.37,0,.55-.19.55-.61Z"/>
    </g>
  </g>
  <g>
    <g>
      <g>
        <path class="cls-4" d="M107.29,50.69h2.09c2.79-.46,5.11-1.16,6.97-2.09,1.39-1.39,2.32-3.25,2.79-5.58,0-1.86-.7-3.49-2.09-4.88-.93-.93-2.33-1.39-4.18-1.39s-3.49.47-4.88,1.39c-.93,1.39-1.39,3.49-1.39,6.27h-36.25c0-12.55,3.72-22.07,11.15-28.58,6.97-6.04,17.66-9.06,32.07-9.06,13.01,0,23.24,3.02,30.67,9.06,7.43,6.04,11.39,13.71,11.85,23.01-.47,5.11-1.86,9.53-4.18,13.25-2.79,3.72-6.74,6.74-11.85,9.06,6.51,1.39,11.39,4.18,14.64,8.37,3.25,4.18,5.11,9.99,5.58,17.43-.47,10.23-4.65,18.59-12.55,25.1-7.9,6.51-19.29,9.99-34.16,10.46-15.34-.47-27.19-4.18-35.55-11.15-8.37-7.43-12.55-17.66-12.55-30.67h38.34c0,3.72.7,6.51,2.09,8.37,1.39,1.86,3.49,3.02,6.27,3.49,2.79-.46,4.88-1.39,6.27-2.79,1.39-1.86,2.32-4.18,2.79-6.97-.47-3.25-1.63-5.58-3.49-6.97-1.86-1.86-4.42-2.55-7.67-2.09h-2.79v-23Z"/>
        <path class="cls-5" d="M113.56,129.5c-.07,0-.14,0-.21,0-16.87-.51-30.27-4.81-39.82-12.77-.06-.05-.11-.1-.17-.15-9.89-8.79-14.9-20.87-14.9-35.91,0-3.87,3.13-7,7-7h34.83v-22.25h-29.95c-3.87,0-7-3.13-7-7,0-14.6,4.56-25.99,13.54-33.85C85.16,3.39,97.49-.23,113.56-.23c14.6,0,26.4,3.58,35.09,10.63,9.01,7.32,13.86,16.77,14.43,28.09.02.33,0,.66-.02.99-.56,6.19-2.32,11.68-5.22,16.32-.1.17-.22.33-.33.49-.91,1.21-1.92,2.37-3.02,3.46,2.19,1.56,4.11,3.38,5.73,5.47,4.12,5.3,6.49,12.46,7.04,21.29.02.25.02.5,0,.76-.56,12.24-5.63,22.4-15.09,30.18-9.09,7.48-22.01,11.54-38.39,12.05-.07,0-.15,0-.22,0ZM82.57,106.03c7.06,5.84,17.48,9.02,30.98,9.46,13.11-.44,23.11-3.42,29.71-8.86,6.26-5.16,9.53-11.58,9.99-19.64-.41-5.78-1.78-10.22-4.09-13.19-2.23-2.87-5.69-4.77-10.58-5.82-2.95-.63-5.17-3.09-5.49-6.09s1.31-5.88,4.06-7.13c3.89-1.77,6.91-4.01,8.97-6.65,1.56-2.6,2.55-5.77,2.94-9.42-.47-7.06-3.5-12.76-9.25-17.43-6.12-4.97-14.96-7.49-26.26-7.49-12.61,0-21.85,2.47-27.48,7.35-4.48,3.92-7.21,9.29-8.25,16.29h22.79c.4-1.16.91-2.21,1.55-3.16.51-.77,1.17-1.43,1.94-1.94,2.56-1.7,5.51-2.57,8.76-2.57,4.69,0,7.55,1.87,9.13,3.44,2.72,2.72,4.15,6.12,4.15,9.84,0,.46-.05.92-.14,1.37-.74,3.69-2.32,6.77-4.7,9.15-.53.53-1.14.97-1.81,1.31-1.56.78-3.28,1.42-5.2,1.93v9.92c3.7.5,6.31,2.16,8.05,3.78,3.16,2.54,5.11,6.33,5.82,11.27.1.71.09,1.44-.02,2.15-.65,3.9-2.03,7.27-4.1,10.02-.2.26-.41.51-.65.75-2.44,2.44-5.83,4.04-10.08,4.74-.76.13-1.53.13-2.29,0-5.74-.95-9-3.89-10.73-6.19-1.19-1.59-2.08-3.44-2.66-5.57h-24.67c1.16,7.6,4.33,13.65,9.61,18.37ZM110.8,80.66h0c0,3.22.68,4.17.69,4.17.15.2.4.37.76.51.47-.14.77-.27.97-.38.37-.63.66-1.38.88-2.26-.22-.88-.48-1.26-.56-1.32-.26-.2-.51-.41-.74-.64-.23-.23-1.08-.21-1.74-.12-.09.01-.17.02-.26.03ZM113.88,41.91h0Z"/>
      </g>
      <g>
        <path class="cls-4" d="M169.33,65.33c0-18.59,4.18-33,12.55-43.22,8.83-10.22,20.68-15.34,35.55-15.34s26.72,5.11,35.55,15.34c8.37,9.76,12.78,24.17,13.25,43.22-.47,18.13-4.88,32.07-13.25,41.83-8.83,9.76-20.68,14.87-35.55,15.34-14.87-.47-26.73-5.58-35.55-15.34-8.37-10.22-12.55-24.17-12.55-41.83ZM208.37,65.33c-.47,7.44.23,13.01,2.09,16.73,1.39,4.18,3.72,6.27,6.97,6.27,2.79,0,4.88-2.09,6.27-6.27,1.86-3.72,2.79-9.29,2.79-16.73,0-8.37-.93-14.41-2.79-18.13-1.39-4.18-3.49-6.04-6.27-5.58-3.25-.46-5.58,1.39-6.97,5.58-1.86,3.72-2.56,9.76-2.09,18.13Z"/>
        <path class="cls-5" d="M217.43,129.5c-.07,0-.15,0-.22,0-16.78-.53-30.42-6.46-40.53-17.64-.08-.08-.15-.17-.23-.26-9.38-11.46-14.13-27.02-14.13-46.26s4.75-36.19,14.13-47.66c.04-.05.08-.1.12-.14C186.76,5.75,200.5-.23,217.43-.23s30.67,5.98,40.85,17.76c9.42,10.99,14.44,27.01,14.95,47.63,0,.12,0,.23,0,.35-.51,19.69-5.53,35.24-14.93,46.2-.04.05-.08.09-.12.14-10.11,11.18-23.75,17.11-40.53,17.64-.07,0-.15,0-.22,0ZM187.19,102.59c7.51,8.23,17.41,12.46,30.25,12.9,12.87-.45,22.78-4.69,30.3-12.96,7.19-8.43,11.06-20.95,11.5-37.21-.44-17.23-4.33-30.23-11.56-38.66-7.49-8.67-17.39-12.89-30.24-12.89s-22.7,4.2-30.19,12.84c-7.24,8.89-10.91,21.92-10.91,38.72,0,15.84,3.65,28.38,10.86,37.26ZM217.43,95.34c-2.94,0-10.06-1.04-13.45-10.6-2.24-4.76-3.1-11.13-2.62-19.43-.48-9.18.38-15.99,2.62-20.77,3.32-9.33,10.21-10.12,13.42-9.94,3.11-.2,9.5.65,12.79,9.94,2.22,4.74,3.3,11.55,3.3,20.8,0,8.34-1.08,14.7-3.31,19.41-3.25,9.21-9.37,10.6-12.76,10.6ZM217.09,49.47c-.1.3-.22.58-.36.86-.73,1.46-1.88,5.3-1.36,14.61.02.28.01.55,0,.83-.51,8.07.64,11.71,1.37,13.16.14.28.26.57.36.87.1-.29.22-.58.36-.86.94-1.87,2.05-5.75,2.05-13.6,0-9.48-1.29-13.46-2.05-15-.14-.28-.26-.57-.36-.86Z"/>
      </g>
      <g>
        <path class="cls-4" d="M308.05,68.87c-.28,5.28-1.81,9.58-4.58,12.91-3.06,3.33-7.22,5.14-12.5,5.42-5.28-.28-9.44-2.08-12.5-5.42-3.06-3.33-4.58-7.64-4.58-12.91,0-5.83,1.53-10.41,4.58-13.75,3.05-3.33,7.22-5,12.5-5s9.44,1.67,12.5,5c2.78,3.33,4.3,7.91,4.58,13.75ZM290.97,77.62c1.39,0,2.36-.83,2.92-2.5.55-1.39.83-3.47.83-6.25,0-3.33-.28-5.69-.83-7.08-.56-1.67-1.53-2.36-2.92-2.08-1.39-.28-2.36.42-2.92,2.08-.56,1.39-.83,3.75-.83,7.08,0,2.78.28,4.86.83,6.25.55,1.67,1.53,2.5,2.92,2.5ZM290.14,119.27l38.74-69.14h9.58l-38.74,69.14h-9.58ZM354.7,101.36c-.28,5.28-1.94,9.58-5,12.91-3.06,3.05-7.08,4.72-12.08,5-5.55-.28-9.86-1.94-12.91-5-3.06-3.33-4.58-7.64-4.58-12.91,0-5.83,1.53-10.41,4.58-13.75,3.05-3.05,7.36-4.58,12.91-4.58,5,0,9.02,1.53,12.08,4.58,3.05,3.33,4.72,7.91,5,13.75ZM337.62,110.1c1.39,0,2.22-.83,2.5-2.5.56-1.39.83-3.47.83-6.25,0-3.33-.28-5.69-.83-7.08-.28-1.67-1.11-2.36-2.5-2.08-1.67-.28-2.78.42-3.33,2.08-.83,1.39-1.11,3.75-.83,7.08-.28,2.78,0,4.86.83,6.25.55,1.67,1.67,2.5,3.33,2.5Z"/>
        <path class="cls-5" d="M337.62,126.27c-.12,0-.23,0-.35,0-7.31-.37-13.21-2.74-17.51-7.04-.07-.07-.14-.14-.21-.22-2.79-3.04-4.68-6.63-5.65-10.73l-8.08,14.42c-1.24,2.21-3.57,3.58-6.11,3.58h-9.58c-2.48,0-4.78-1.32-6.04-3.46-1.26-2.14-1.28-4.79-.07-6.96l12.54-22.38c-1.66.38-3.4.63-5.23.72-.24.01-.49.01-.73,0-7.15-.38-12.96-2.96-17.29-7.68-4.26-4.65-6.42-10.58-6.42-17.64,0-7.61,2.16-13.83,6.42-18.48,4.36-4.75,10.46-7.27,17.66-7.27s13.29,2.51,17.65,7.27c.08.08.15.17.22.25,2.58,3.1,4.37,6.9,5.35,11.36l8.57-15.3c1.24-2.21,3.57-3.58,6.11-3.58h9.58c2.48,0,4.78,1.32,6.04,3.46,1.26,2.14,1.28,4.79.07,6.96l-12.89,23.01c1.87-.35,3.85-.53,5.95-.53,6.9,0,12.62,2.23,17.03,6.63.07.07.14.15.21.22,4.17,4.55,6.47,10.66,6.83,18.14.01.23.01.47,0,.7-.36,6.92-2.66,12.73-6.83,17.27-.07.08-.14.15-.21.22-4.3,4.29-9.89,6.66-16.64,7.04-.13,0-.26.01-.39.01ZM294.7,64s0,0,0,0c0,0,0,0,0,0Z"/>
      </g>
    </g>
    <g>
      <path class="cls-4" d="M107.29,50.69h2.09c2.79-.46,5.11-1.16,6.97-2.09,1.39-1.39,2.32-3.25,2.79-5.58,0-1.86-.7-3.49-2.09-4.88-.93-.93-2.33-1.39-4.18-1.39s-3.49.47-4.88,1.39c-.93,1.39-1.39,3.49-1.39,6.27h-36.25c0-12.55,3.72-22.07,11.15-28.58,6.97-6.04,17.66-9.06,32.07-9.06,13.01,0,23.24,3.02,30.67,9.06,7.43,6.04,11.39,13.71,11.85,23.01-.47,5.11-1.86,9.53-4.18,13.25-2.79,3.72-6.74,6.74-11.85,9.06,6.51,1.39,11.39,4.18,14.64,8.37,3.25,4.18,5.11,9.99,5.58,17.43-.47,10.23-4.65,18.59-12.55,25.1-7.9,6.51-19.29,9.99-34.16,10.46-15.34-.47-27.19-4.18-35.55-11.15-8.37-7.43-12.55-17.66-12.55-30.67h38.34c0,3.72.7,6.51,2.09,8.37,1.39,1.86,3.49,3.02,6.27,3.49,2.79-.46,4.88-1.39,6.27-2.79,1.39-1.86,2.32-4.18,2.79-6.97-.47-3.25-1.63-5.58-3.49-6.97-1.86-1.86-4.42-2.55-7.67-2.09h-2.79v-23Z"/>
      <path class="cls-4" d="M169.33,65.33c0-18.59,4.18-33,12.55-43.22,8.83-10.22,20.68-15.34,35.55-15.34s26.72,5.11,35.55,15.34c8.37,9.76,12.78,24.17,13.25,43.22-.47,18.13-4.88,32.07-13.25,41.83-8.83,9.76-20.68,14.87-35.55,15.34-14.87-.47-26.73-5.58-35.55-15.34-8.37-10.22-12.55-24.17-12.55-41.83ZM208.37,65.33c-.47,7.44.23,13.01,2.09,16.73,1.39,4.18,3.72,6.27,6.97,6.27,2.79,0,4.88-2.09,6.27-6.27,1.86-3.72,2.79-9.29,2.79-16.73,0-8.37-.93-14.41-2.79-18.13-1.39-4.18-3.49-6.04-6.27-5.58-3.25-.46-5.58,1.39-6.97,5.58-1.86,3.72-2.56,9.76-2.09,18.13Z"/>
      <path class="cls-4" d="M308.05,68.87c-.28,5.28-1.81,9.58-4.58,12.91-3.06,3.33-7.22,5.14-12.5,5.42-5.28-.28-9.44-2.08-12.5-5.42-3.06-3.33-4.58-7.64-4.58-12.91,0-5.83,1.53-10.41,4.58-13.75,3.05-3.33,7.22-5,12.5-5s9.44,1.67,12.5,5c2.78,3.33,4.3,7.91,4.58,13.75ZM290.97,77.62c1.39,0,2.36-.83,2.92-2.5.55-1.39.83-3.47.83-6.25,0-3.33-.28-5.69-.83-7.08-.56-1.67-1.53-2.36-2.92-2.08-1.39-.28-2.36.42-2.92,2.08-.56,1.39-.83,3.75-.83,7.08,0,2.78.28,4.86.83,6.25.55,1.67,1.53,2.5,2.92,2.5ZM290.14,119.27l38.74-69.14h9.58l-38.74,69.14h-9.58ZM354.7,101.36c-.28,5.28-1.94,9.58-5,12.91-3.06,3.05-7.08,4.72-12.08,5-5.55-.28-9.86-1.94-12.91-5-3.06-3.33-4.58-7.64-4.58-12.91,0-5.83,1.53-10.41,4.58-13.75,3.05-3.05,7.36-4.58,12.91-4.58,5,0,9.02,1.53,12.08,4.58,3.05,3.33,4.72,7.91,5,13.75ZM337.62,110.1c1.39,0,2.22-.83,2.5-2.5.56-1.39.83-3.47.83-6.25,0-3.33-.28-5.69-.83-7.08-.28-1.67-1.11-2.36-2.5-2.08-1.67-.28-2.78.42-3.33,2.08-.83,1.39-1.11,3.75-.83,7.08-.28,2.78,0,4.86.83,6.25.55,1.67,1.67,2.5,3.33,2.5Z"/>
    </g>
    <g class="cls-2">
      <g>
        <path class="cls-3" d="M107.29,50.69h2.09c2.79-.46,5.11-1.16,6.97-2.09,1.39-1.39,2.32-3.25,2.79-5.58,0-1.86-.7-3.49-2.09-4.88-.93-.93-2.33-1.39-4.18-1.39s-3.49.47-4.88,1.39c-.93,1.39-1.39,3.49-1.39,6.27h-36.25c0-12.55,3.72-22.07,11.15-28.58,6.97-6.04,17.66-9.06,32.07-9.06,13.01,0,23.24,3.02,30.67,9.06,7.43,6.04,11.39,13.71,11.85,23.01-.47,5.11-1.86,9.53-4.18,13.25-2.79,3.72-6.74,6.74-11.85,9.06,6.51,1.39,11.39,4.18,14.64,8.37,3.25,4.18,5.11,9.99,5.58,17.43-.47,10.23-4.65,18.59-12.55,25.1-7.9,6.51-19.29,9.99-34.16,10.46-15.34-.47-27.19-4.18-35.55-11.15-8.37-7.43-12.55-17.66-12.55-30.67h38.34c0,3.72.7,6.51,2.09,8.37,1.39,1.86,3.49,3.02,6.27,3.49,2.79-.46,4.88-1.39,6.27-2.79,1.39-1.86,2.32-4.18,2.79-6.97-.47-3.25-1.63-5.58-3.49-6.97-1.86-1.86-4.42-2.55-7.67-2.09h-2.79v-23Z"/>
        <path class="cls-3" d="M169.33,65.33c0-18.59,4.18-33,12.55-43.22,8.83-10.22,20.68-15.34,35.55-15.34s26.72,5.11,35.55,15.34c8.37,9.76,12.78,24.17,13.25,43.22-.47,18.13-4.88,32.07-13.25,41.83-8.83,9.76-20.68,14.87-35.55,15.34-14.87-.47-26.73-5.58-35.55-15.34-8.37-10.22-12.55-24.17-12.55-41.83ZM208.37,65.33c-.47,7.44.23,13.01,2.09,16.73,1.39,4.18,3.72,6.27,6.97,6.27,2.79,0,4.88-2.09,6.27-6.27,1.86-3.72,2.79-9.29,2.79-16.73,0-8.37-.93-14.41-2.79-18.13-1.39-4.18-3.49-6.04-6.27-5.58-3.25-.46-5.58,1.39-6.97,5.58-1.86,3.72-2.56,9.76-2.09,18.13Z"/>
        <path class="cls-3" d="M308.05,68.87c-.28,5.28-1.81,9.58-4.58,12.91-3.06,3.33-7.22,5.14-12.5,5.42-5.28-.28-9.44-2.08-12.5-5.42-3.06-3.33-4.58-7.64-4.58-12.91,0-5.83,1.53-10.41,4.58-13.75,3.05-3.33,7.22-5,12.5-5s9.44,1.67,12.5,5c2.78,3.33,4.3,7.91,4.58,13.75ZM290.97,77.62c1.39,0,2.36-.83,2.92-2.5.55-1.39.83-3.47.83-6.25,0-3.33-.28-5.69-.83-7.08-.56-1.67-1.53-2.36-2.92-2.08-1.39-.28-2.36.42-2.92,2.08-.56,1.39-.83,3.75-.83,7.08,0,2.78.28,4.86.83,6.25.55,1.67,1.53,2.5,2.92,2.5ZM290.14,119.27l38.74-69.14h9.58l-38.74,69.14h-9.58ZM354.7,101.36c-.28,5.28-1.94,9.58-5,12.91-3.06,3.05-7.08,4.72-12.08,5-5.55-.28-9.86-1.94-12.91-5-3.06-3.33-4.58-7.64-4.58-12.91,0-5.83,1.53-10.41,4.58-13.75,3.05-3.05,7.36-4.58,12.91-4.58,5,0,9.02,1.53,12.08,4.58,3.05,3.33,4.72,7.91,5,13.75ZM337.62,110.1c1.39,0,2.22-.83,2.5-2.5.56-1.39.83-3.47.83-6.25,0-3.33-.28-5.69-.83-7.08-.28-1.67-1.11-2.36-2.5-2.08-1.67-.28-2.78.42-3.33,2.08-.83,1.39-1.11,3.75-.83,7.08-.28,2.78,0,4.86.83,6.25.55,1.67,1.67,2.5,3.33,2.5Z"/>
      </g>
    </g>
  </g>
</svg>