<?xml version="1.0" encoding="utf-8"?>
<!-- Generator: Adobe Illustrator 24.0.1, SVG Export Plug-In . SVG Version: 6.00 Build 0)  -->
<svg version="1.1" id="圖層_1" xmlns="http://www.w3.org/2000/svg" xmlns:xlink="http://www.w3.org/1999/xlink" x="0px" y="0px"
	 viewBox="0 0 33 33" style="enable-background:new 0 0 33 33;" xml:space="preserve">
<style type="text/css">
	.st0{fill:#FFFFFF;}
</style>
<title>socialmedia</title>
<path class="st0" d="M26.4,1.5H6.6c-2.8,0-5.1,2.3-5.1,5.1v19.7c0,2.8,2.3,5.1,5.1,5.1h19.7c2.8,0,5.1-2.3,5.1-5.1V6.6
	C31.5,3.8,29.2,1.5,26.4,1.5z M25.5,10.3c-0.3,3-1.5,10.2-2.1,13.5c-0.3,1.4-0.8,1.9-1.3,1.9c-1.1,0.1-1.9-0.7-3-1.4
	c-1.7-1.1-2.6-1.8-4.2-2.8c-1.9-1.2-0.7-1.9,0.4-3c0.3-0.3,5.1-4.7,5.2-5.1c0,0,0-0.2-0.1-0.3c-0.1-0.1-0.3-0.1-0.4,0
	c-0.2,0-2.8,1.8-7.9,5.2c-0.8,0.5-1.4,0.8-2,0.8c-0.7,0-2-0.4-2.9-0.7C6,18,5,17.8,5.1,17.1c0-0.3,0.5-0.7,1.4-1
	c5.5-2.4,9.1-4,11-4.7c5.2-2.2,6.3-2.6,7-2.6c0.2,0,0.5,0,0.7,0.2c0.2,0.2,0.2,0.4,0.3,0.5C25.5,9.7,25.5,10,25.5,10.3z"/>
</svg>
