<svg xmlns="http://www.w3.org/2000/svg" viewBox="0 0 325.5 127.96"><defs><clipPath id="a"><path fill="none" d="M0 0h325.5v127.96H0z"/></clipPath></defs><g clip-path="url(#a)" fill="#005bac"><path d="M61 103a25.52 25.52 0 11.13-35 8.5 8.5 0 0012.42-11.62 42.69 42.69 0 00-30.77-13.44l22.28-29.29a8.5 8.5 0 00-13.53-10.3L8.86 59.44a4.81 4.81 0 00-.37.55 42.49 42.49 0 0034 68 42.08 42.08 0 0030.8-13.22A8.5 8.5 0 0061 103"/><path d="M81.54 72.59a12.86 12.86 0 1012.85 12.85 12.85 12.85 0 00-12.85-12.85M136 128h-.53a34.64 34.64 0 01-34.6-34.6V34.75A34.64 34.64 0 01135.42.15h.58a34.64 34.64 0 0134.59 34.6v58.61A34.64 34.64 0 01136 128m-.53-110.81a17.62 17.62 0 00-17.6 17.6v58.57a17.61 17.61 0 0017.6 17.6h.53a17.61 17.61 0 0017.59-17.6V34.75A17.62 17.62 0 00136 17.15zM213.43 128h-.53a34.64 34.64 0 01-34.6-34.6V34.75A34.64 34.64 0 01212.9.15h.53A34.64 34.64 0 01248 34.75v58.61A34.64 34.64 0 01213.43 128m-.53-110.85a17.62 17.62 0 00-17.6 17.6v58.61A17.61 17.61 0 00212.9 111h.53A17.61 17.61 0 00231 93.36V34.75a17.62 17.62 0 00-17.59-17.6zM290.91 128h-.53a34.64 34.64 0 01-34.6-34.6V34.75a34.64 34.64 0 0134.6-34.6h.53a34.64 34.64 0 0134.59 34.6v58.61A34.64 34.64 0 01290.91 128m-.53-110.81a17.62 17.62 0 00-17.6 17.6v58.57a17.61 17.61 0 0017.6 17.6h.53a17.61 17.61 0 0017.59-17.6V34.75a17.62 17.62 0 00-17.59-17.6z"/></g></svg>