<svg xmlns="http://www.w3.org/2000/svg" viewBox="0 0 51.91 51.52"><defs><style>.e7cc1536-bd1d-4e11-8980-683b599e4b66{fill:none;stroke:#cb0016;stroke-linecap:round;stroke-miterlimit:10;stroke-width:1.5px;}</style></defs><g id="bfda91e6-16a4-4e32-8e6e-e24f176c4f5d" data-name="圖層 2"><g id="ab4f2c14-2779-4fff-be2e-8576d6816069" data-name="分離模式"><path class="e7cc1536-bd1d-4e11-8980-683b599e4b66" d="M12.44,31c0,2,3.61,3.66,8.07,3.66S28.57,33,28.57,31"/><path class="e7cc1536-bd1d-4e11-8980-683b599e4b66" d="M28.57,35.08v4c0,2-3.61,3.67-8.06,3.67h-.83"/><path class="e7cc1536-bd1d-4e11-8980-683b599e4b66" d="M1.15,43.15v4c0,2,3.61,3.66,8.07,3.66s8.06-1.64,8.06-3.66v-4c0-2-3.61-3.67-8.06-3.67S1.15,41.12,1.15,43.15Z"/><path class="e7cc1536-bd1d-4e11-8980-683b599e4b66" d="M1.15,43.05c0,2,3.61,3.67,8.07,3.67s8.06-1.64,8.06-3.67"/><path class="e7cc1536-bd1d-4e11-8980-683b599e4b66" d="M23.74,18.86c0,2,3.61,3.66,8.06,3.66s8.06-1.64,8.06-3.66"/><path class="e7cc1536-bd1d-4e11-8980-683b599e4b66" d="M39.86,23v4c0,2-3.61,3.67-8.06,3.67H31"/><path class="e7cc1536-bd1d-4e11-8980-683b599e4b66" d="M39.86,27v4c0,2-3.61,3.67-8.06,3.67H31"/><path class="e7cc1536-bd1d-4e11-8980-683b599e4b66" d="M35,6.76c0,2,3.61,3.67,8.06,3.67s8.07-1.65,8.07-3.67"/><path class="e7cc1536-bd1d-4e11-8980-683b599e4b66" d="M51.16,10.89v4c0,2-3.62,3.66-8.07,3.66h-.83"/><path class="e7cc1536-bd1d-4e11-8980-683b599e4b66" d="M51.16,14.88v4c0,2-3.62,3.67-8.07,3.67h-.81"/><path class="e7cc1536-bd1d-4e11-8980-683b599e4b66" d="M51.16,18.92v4c0,2-3.62,3.66-8.07,3.66h-.83"/><path class="e7cc1536-bd1d-4e11-8980-683b599e4b66" d="M51.16,23v4c0,2-3.62,3.66-8.07,3.66h-.83"/><path class="e7cc1536-bd1d-4e11-8980-683b599e4b66" d="M39.86,31v4c0,2-3.61,3.67-8.06,3.67H31"/><path class="e7cc1536-bd1d-4e11-8980-683b599e4b66" d="M28.57,39.11v4c0,2-3.61,3.67-8.06,3.67h-.83"/><path class="e7cc1536-bd1d-4e11-8980-683b599e4b66" d="M12.44,31.05v4c0,2,3.61,3.66,8.07,3.66S28.57,37,28.57,35v-4c0-2-3.61-3.67-8.06-3.67S12.44,29,12.44,31.05"/><path class="e7cc1536-bd1d-4e11-8980-683b599e4b66" d="M23.74,19v4c0,2,3.61,3.67,8.06,3.67s8.06-1.64,8.06-3.67V19c0-2-3.61-3.66-8.06-3.66S23.74,16.93,23.74,19"/><path class="e7cc1536-bd1d-4e11-8980-683b599e4b66" d="M35,6.85v4c0,2,3.61,3.67,8.06,3.67s8.07-1.64,8.07-3.67v-4c0-2-3.62-3.66-8.07-3.66S35,4.83,35,6.85"/><path class="e7cc1536-bd1d-4e11-8980-683b599e4b66" d="M39.86,35.05v4c0,2-3.61,3.66-8.06,3.66H31"/><path class="e7cc1536-bd1d-4e11-8980-683b599e4b66" d="M51.16,27v4c0,2-3.62,3.67-8.07,3.67h-.83"/><path class="e7cc1536-bd1d-4e11-8980-683b599e4b66" d="M51.16,31v4c0,2-3.62,3.67-8.07,3.67h-.83"/><path class="e7cc1536-bd1d-4e11-8980-683b599e4b66" d="M.75,31.78c15.14-7.68,22-17,26.56-29.25L27.78,1"/><polyline class="e7cc1536-bd1d-4e11-8980-683b599e4b66" points="23.33 3.19 27.78 0.98 30.19 4.96"/></g></g></svg>