<svg xmlns="http://www.w3.org/2000/svg" viewBox="0 0 59.95 45.97"><defs><style>.f5a043cd-b803-42ce-b5ac-942d0c057672{fill:none;stroke:#cb0016;stroke-linecap:round;stroke-miterlimit:10;stroke-width:1.5px;}</style></defs><g id="a30f45bd-5e7d-41b5-be26-b415d0ffd747" data-name="圖層 2"><g id="b1db81fa-ddab-42ce-a216-c9f48ef3ece3" data-name="分離模式"><path class="f5a043cd-b803-42ce-b5ac-942d0c057672" d="M28.71,13.46A5.21,5.21,0,0,0,33.79,8V6.2a5.1,5.1,0,1,0-10.17,0V8A5.22,5.22,0,0,0,28.71,13.46Z"/><path class="f5a043cd-b803-42ce-b5ac-942d0c057672" d="M38.87,22.35V18.49c0-3.51-6.37-5.09-9.53-5.09S19.81,15,19.81,18.49v3.86"/><path class="f5a043cd-b803-42ce-b5ac-942d0c057672" d="M30,36.33a5.21,5.21,0,0,0,5.08-5.45V29.07a5.1,5.1,0,1,0-10.17,0v1.81A5.22,5.22,0,0,0,30,36.33Z"/><path class="f5a043cd-b803-42ce-b5ac-942d0c057672" d="M40.14,45.22V41.36c0-3.5-6.36-5.08-9.53-5.08s-9.53,1.58-9.53,5.08v3.86"/><path class="f5a043cd-b803-42ce-b5ac-942d0c057672" d="M49,24.89a5.2,5.2,0,0,0,5.08-5.44V17.63a5.1,5.1,0,1,0-10.17,0v1.82A5.21,5.21,0,0,0,49,24.89Z"/><path class="f5a043cd-b803-42ce-b5ac-942d0c057672" d="M59.2,33.79V29.92c0-3.5-6.36-5.08-9.53-5.08s-9.53,1.58-9.53,5.08v3.87"/><path class="f5a043cd-b803-42ce-b5ac-942d0c057672" d="M9.64,24.89a5.21,5.21,0,0,0,5.09-5.44V17.63a5.21,5.21,0,0,0-5.09-5.44,5.21,5.21,0,0,0-5.08,5.44v1.82A5.21,5.21,0,0,0,9.64,24.89Z"/><path class="f5a043cd-b803-42ce-b5ac-942d0c057672" d="M19.81,33.79V29.92c0-3.5-6.37-5.08-9.53-5.08S.75,26.42.75,29.92v3.87"/></g></g></svg>