<?xml version="1.0" encoding="utf-8"?>
<!-- Generator: Adobe Illustrator 26.3.1, SVG Export Plug-In . SVG Version: 6.00 Build 0)  -->
<svg version="1.1" id="圖層_1" xmlns="http://www.w3.org/2000/svg" xmlns:xlink="http://www.w3.org/1999/xlink" x="0px" y="0px"
	 viewBox="0 0 454 95.6" style="enable-background:new 0 0 454 95.6;" xml:space="preserve">
<style type="text/css">
	.st0{clip-path:url(#SVGID_00000150790624326550819230000014019001002664921736_);}
	.st1{fill:url(#SVGID_00000130636269841033155510000012498146499297732749_);}
	.st2{fill:#005BAC;}
	.st3{fill:#005BAB;}
</style>
<g>
	<g>
		<defs>
			<path id="SVGID_1_" d="M41.5,51.6L26.2,88.9l0,0c-0.1,0.2-0.1,0.3-0.1,0.5c0,0.5,0.3,0.9,0.7,1.2h0.1c13.4,6.6,29.2,6.6,42.6,0
				l0,0c0.4-0.2,0.7-0.7,0.7-1.2c0-0.2,0-0.3-0.1-0.5l0,0L54.9,52.1V52c-1.5-3.8-5.8-5.6-9.5-4.1C43.7,48.6,42.3,49.9,41.5,51.6
				 M1.3,47.5c-0.7,0-1.3,0.6-1.3,1.3l0,0l0,0c0.3,11.7,4.9,22.8,12.8,31.4l0,0c0.3,0.3,0.6,0.4,1,0.4c0.5,0,1-0.3,1.2-0.8
				l12.5-30.5l0,0l0,0c0.3-0.7-0.1-1.5-0.8-1.7c-0.1-0.1-0.3-0.1-0.5-0.1L1.3,47.5z M69.9,47.5c-0.7,0-1.3,0.6-1.3,1.3
				c0,0.2,0,0.4,0.1,0.5l12.5,30.5c0.3,0.7,1.1,1,1.8,0.7c0.2-0.1,0.3-0.2,0.4-0.3l0,0c8-8.5,12.5-19.7,12.9-31.4v-0.1l0,0
				c0-0.7-0.6-1.3-1.3-1.3L69.9,47.5z M39.7,0.1L39.7,0.1C22.4,3.1,8.2,15.3,2.5,31.9l0,0c0,0.1-0.1,0.3-0.1,0.4
				c0,0.7,0.6,1.3,1.3,1.3h29.4c0.5,0,0.9-0.4,1.1-0.8l0,0l2.3-5.7c3-7.5,4.5-15.5,4.6-23.6l0,0V1.3c0-0.7-0.6-1.3-1.3-1.3L39.7,0.1
				 M54.9,1.3v2.3l0,0c0.1,8.1,1.6,16.1,4.6,23.6l2.3,5.6c0.2,0.4,0.6,0.7,1,0.8l0,0H63h29.4c0.7,0,1.3-0.6,1.3-1.3
				c0-0.1,0-0.3-0.1-0.4l0,0C88,15.3,73.8,3.1,56.5,0h-0.2C55.6,0,55,0.6,54.9,1.3"/>
		</defs>
		<clipPath id="SVGID_00000157992205555689550260000000872098777483340978_">
			<use xlink:href="#SVGID_1_"  style="overflow:visible;"/>
		</clipPath>
		<g style="clip-path:url(#SVGID_00000157992205555689550260000000872098777483340978_);">
			
				<linearGradient id="SVGID_00000126306159412924853290000002008387955004021932_" gradientUnits="userSpaceOnUse" x1="-1204.3884" y1="540.7023" x2="-1203.0184" y2="540.7023" gradientTransform="matrix(0 70.05 70.05 0 -37828.1016 84366.8984)">
				<stop  offset="0" style="stop-color:#004098"/>
				<stop  offset="1" style="stop-color:#00A0E9"/>
			</linearGradient>
			<rect style="fill:url(#SVGID_00000126306159412924853290000002008387955004021932_);" width="96.2" height="95.6"/>
		</g>
	</g>
</g>
<path class="st2" d="M137.4,11.8h60.4c0.1,0,0.1,0,0.1-0.1l0,0V5c0-0.1,0-0.1-0.1-0.1l0,0h-60.4c-0.1,0-0.1,0.1-0.1,0.1v6.7
	C137.3,11.7,137.4,11.8,137.4,11.8"/>
<path class="st2" d="M199.7,58.4c0-0.6-0.5-1.1-1.1-1.1l0,0h-19.1c-1.2-0.2-2.3-1-2.7-2.2c-0.1-0.2-0.1-0.4-0.1-0.6V25.7h22.8
	c0,0,0.1,0,0.1-0.1l0,0v-6.7c0,0,0-0.1-0.1-0.1l0,0h-63.6c-0.1,0-0.1,0-0.1,0.1l0,0v6.7c0,0.1,0,0.1,0.1,0.1l0,0h20l-19.6,36.7v0.1
	c-0.1,0.1-0.1,0.3-0.1,0.4c0,0.6,0.5,1.1,1.1,1.1l0,0h6.3h0.1c0,0,20.5-38.2,20.5-38.3h5.2v28.6c-0.1,5.3,4.1,9.6,9.3,9.8h14.5
	c3.2,0,5.9-2.3,6.5-5.4l0,0C199.7,58.6,199.7,58.5,199.7,58.4"/>
<path class="st2" d="M285.2,19.9c0-0.6-0.5-1.1-1.1-1.1l0,0h-29.9V3.2c0-0.1,0-0.1-0.1-0.1H247c-0.1,0-0.1,0.1-0.1,0.1v15.6h-27.5
	c0,0-0.1,0-0.1,0.1l0,0v6.7c0,0.1,0,0.1,0.1,0.1l0,0h25.5c-0.2,0.3-21.2,29.4-26.4,36.6l-0.1,0.1c-0.1,0.2-0.1,0.4-0.1,0.5
	c0,0.6,0.5,1.1,1.1,1.1l0,0h6.4h0.1l22.7-31.2c0.7-1.2,2.3-1.6,3.5-0.8c0.4,0.2,0.7,0.5,0.9,0.9L275.5,64h0.1h6.4
	c0.6,0,1.1-0.5,1.1-1.1c0-0.2-0.1-0.5-0.2-0.7l0,0c-5.3-7.3-26.2-36.3-26.4-36.6h22c3.3,0,6.1-2.3,6.7-5.6l0,0
	C285.2,20.1,285.2,20,285.2,19.9"/>
<path class="st2" d="M367.7,42.3c0.4-0.4,0.5-1.2,0-1.6c-0.2-0.2-0.5-0.3-0.8-0.3H361c0,0,0,0-0.1,0l-3.8,4.1l-5.3-9h8.9
	c0.1,0,0.2,0,0.4,0c1.9,0,3.8-0.7,5.2-2.1c1.5-1.3,2.3-3.2,2.3-5.2v-16c0-2-0.8-3.9-2.3-5.2c-1.4-1.3-3.3-2.1-5.2-2.1h-25.4
	c-0.1,0-0.1,0-0.1,0.1v6.7c0,0.3,0,0.4,0,0.4v51.7c0,0,0,0,0,0.1c0,0,0,0,0.1,0h6.5c0.6,0,1.3-0.1,1.9-0.2c3.4-0.6,6.8-3.9,6.8-3.9
	c0.2-0.2,0.8-0.8,3.6-3.8l1-1l5.2,8.9h0.1h5.9c0.6,0,1.1-0.5,1.1-1.1l0,0c0-0.2-0.1-0.4-0.2-0.6l-7.3-12.4L367.7,42.3z M342.2,11.2
	h18.9c0.3,0,0.5,0.1,0.7,0.3s0.3,0.4,0.3,0.7v5.1h-19.8v-6.1H342.2z M342.2,23.4H362v4.8c0,0.3-0.1,0.5-0.3,0.7
	c-0.2,0.2-0.4,0.3-0.7,0.3h-18.9v-5.8H342.2z M342.2,60.2V35.5h1.7l8.3,14.2L342.2,60.2z"/>
<path class="st2" d="M334,28.3l-4.7-18.4c0-0.2-0.1-0.3-0.1-0.5L329.1,9V8.9c-1-2.4-3.3-4-5.9-4h-17.4c0,0,0,0-0.1,0V5v6.2
	c0,0,0,0,0,0.1l-4.3,16.9l0,0c0,0.1,0,0.2,0,0.3c0,0.6,0.5,1.1,1.1,1.1h5c0,0,0.1,0,0.1-0.1l1.2-4.7h5.6v9.7H305
	c-0.1,0-0.1,0-0.1,0.1l0,0v6.1c0,0.1,0.1,0.1,0.1,0.1h9.4v16.9h-0.5l-2.8-11.2c0,0,0-0.1-0.1-0.1h-4.7c-0.6,0-1.1,0.5-1.1,1.1
	c0,0.1,0,0.2,0,0.3l0,0l2.5,9.9h-3.8c-0.1,0-0.1,0-0.1,0.1l0,0v6c0,0.1,0,0.1,0.1,0.1l0,0H326c3,0.1,5.6-2,6.3-4.9l0,0
	c0-0.1,0-0.1,0-0.2c0-0.6-0.5-1.1-1.1-1.1l0,0h-3.5l2.5-9.9l0,0c0-0.1,0-0.2,0-0.3c0-0.6-0.5-1.1-1.1-1.1h-4.7c0,0-0.1,0-0.1,0.1
	l-2.8,11.2H321V40.9h9.5c0.1,0,0.1,0,0.1-0.1v-6.1c0-0.1,0-0.1-0.1-0.1l0,0H321v-9.7h5.6l1.2,4.7c0,0,0,0.1,0.1,0.1h5
	c0.6,0,1.1-0.5,1.1-1.1l0,0C334,28.4,334,28.3,334,28.3L334,28.3z M310.3,18.5l1.8-7.1h11l1.8,7.1H310.3z"/>
<path class="st2" d="M411.1,11.8h41.3c0.1,0,0.1,0,0.1-0.1V5.5c0-0.1,0-0.1-0.1-0.1h-41.3c-0.1,0-0.1,0-0.1,0.1v6.2
	C411,11.8,411.1,11.8,411.1,11.8"/>
<path class="st2" d="M385.4,25.3h6c0,0,0,0,0.1,0c3.2-3.9,10.8-13,15.6-18.7V6.5c0.1-0.2,0.2-0.4,0.2-0.6c0-0.6-0.5-1.1-1.1-1.1l0,0
	h-6.1c0,0,0,0-0.1,0l-15.5,18.8c-0.2,0.2-0.3,0.5-0.3,0.7C384.2,24.8,384.7,25.3,385.4,25.3"/>
<path class="st2" d="M406.7,20h-6.1h-0.1L385,38.7c-0.2,0.2-0.3,0.5-0.3,0.7c0,0.6,0.5,1.1,1.1,1.1l0,0h6h0.1l3-3.6v26.9
	c0,0.1,0,0.1,0.1,0.1l0,0h6.5c0,0,0.1,0,0.1-0.1l0,0v-35l5.9-7.1l0,0c0.1-0.2,0.2-0.4,0.2-0.7C407.9,20.5,407.4,20,406.7,20"/>
<path class="st2" d="M453.7,21.1c0-0.6-0.5-1.1-1.1-1.1h-41.4c-0.1,0-0.1,0-0.1,0.1l0,0v6.2c0,0,0,0,0,0.1c0,0,0,0,0.1,0h25.4
	c0,8,0,30.7,0,30.7c0,0.6-0.5,0.9-1.4,0.9h-12c-0.6,0-1.1,0.5-1.1,1.1c0,0.1,0,0.1,0,0.2l0,0c0.7,2.9,3.3,4.9,6.3,4.9h7.2
	c2,0,3.9-0.8,5.4-2.1c1.5-1.4,2.3-3.3,2.2-5.3l0,0V26.5h4.1c3.1,0,5.7-2.1,6.3-5.1l0,0C453.6,21.3,453.6,21.2,453.7,21.1"/>
<g>
	<path class="st3" d="M178.2,90.2c-2.2,0-4.2-0.7-5.6-1.9c-1.2-1.1-1.9-2.5-1.9-4c0-1.6,0.6-2.8,1.9-3.9c1.5-1.3,3.4-1.9,5.6-1.9
		c2.1,0,3.9,0.7,5.1,1.9l0.4,0.5V79c0,0,0,0,0,0h2.8c0,0,0,0,0,0v10.9c0,0,0,0,0,0h-2.8c0,0,0,0,0,0v-0.1c0-0.5-0.4-0.8-0.9-0.8
		c-0.1,0-0.3,0-0.4,0.1c0,0,0,0,0,0C181.3,89.8,179.7,90.2,178.2,90.2z M178.9,88.1c1.6,0,2.9-0.5,3.8-1.4c0.6-0.6,0.9-1.4,0.9-2.3
		c0-0.8-0.3-1.6-0.9-2.3c-0.9-0.9-2.2-1.4-3.8-1.4h-0.1c-1.6,0-3,0.5-3.9,1.5c-0.6,0.7-1,1.5-1,2.3c0,0.8,0.3,1.5,0.9,2.1
		c0.9,0.9,2.4,1.5,3.9,1.5H178.9L178.9,88.1z"/>
	<path class="st3" d="M222.1,90.2c-2.2,0-4.2-0.7-5.6-1.9c-1.2-1.1-1.9-2.5-1.9-4c0-1.6,0.6-2.8,1.9-3.9c1.5-1.3,3.4-1.9,5.6-1.9
		c2.1,0,3.9,0.7,5.1,1.9l0.4,0.5V79c0,0,0,0,0,0h2.8c0,0,0,0,0,0v10.9c0,0,0,0,0,0h-2.8c0,0,0,0,0,0v-0.1c0-0.5-0.4-0.8-0.9-0.8
		c-0.1,0-0.3,0-0.4,0.1c0,0,0,0,0,0C225.3,89.8,223.7,90.2,222.1,90.2z M222.9,88.1c1.6,0,2.9-0.5,3.8-1.4c0.6-0.6,0.9-1.4,0.9-2.3
		c0-0.8-0.3-1.6-0.9-2.3c-0.9-0.9-2.2-1.4-3.8-1.4h-0.1c-1.6,0-3,0.5-3.9,1.5c-0.6,0.7-1,1.5-1,2.3c0,0.8,0.3,1.5,0.9,2.1
		c0.9,0.9,2.4,1.5,3.9,1.5H222.9L222.9,88.1z"/>
	<path class="st3" d="M160.4,90.2c-2,0-3.5-0.5-4.9-1.5c-1-0.8-1.6-2.1-1.6-3.6V79c0,0,0,0,0,0h3.1c0,0,0,0,0,0v5.3
		c0,0.9,0.1,1.8,0.6,2.5c0.6,0.8,1.8,1.3,3.2,1.3c3.9,0,3.9-2.9,3.9-3.8V79c0,0,0,0,0,0h3.1c0,0,0,0,0,0v10.9c0,0,0,0,0,0h-2.8
		c0,0,0,0,0,0c0-0.4-0.3-0.8-0.7-0.8c-0.1,0-0.2,0-0.4,0.1C163,90.1,161.5,90.2,160.4,90.2z"/>
	<path class="st3" d="M200.7,89.9C200.7,89.9,200.7,89.8,200.7,89.9l0-5.4c0-0.9-0.1-1.8-0.6-2.5c-0.6-0.8-1.8-1.3-3.2-1.3
		c-3.9,0-3.9,2.9-3.9,3.8v5.3c0,0,0,0,0,0h-3.1c0,0,0,0,0,0V79c0,0,0,0,0,0h2.8c0,0,0,0,0,0c0,0.4,0.3,0.8,0.7,0.8
		c0.1,0,0.2,0,0.4-0.1c1.2-0.9,2.7-1.1,3.7-1.1c2,0,3.5,0.5,4.9,1.5c1,0.8,1.6,2.1,1.6,3.6v6.2c0,0,0,0,0,0H200.7z"/>
	<path class="st3" d="M208,89.9C208,89.9,208,89.8,208,89.9l0-9.1h-1.8c0,0,0,0,0,0V79c0,0,0,0,0,0h1.8v-3.8c0,0,0,0,0,0h3.1
		c0,0,0,0,0,0v3.8h2.2c0,0,0,0,0,0v1.8c0,0,0,0,0,0h-2.2v9c0,0,0,0,0,0H208z"/>
	<path class="st3" d="M143,89.9C143,89.9,143,89.8,143,89.9l0-5.5l-7-8.7c0,0,0,0,0,0c0,0,0,0,0,0c0,0,0,0,0-0.1c0,0,0-0.1,0-0.2
		c0-0.2,0.1-0.3,0.3-0.4c0,0,0,0,0.1,0h3.3c0,0,0,0,0,0c0.2,0.3,2.4,2.9,4,4.9c0,0,0,0,0,0c0.3,0.4,0.8,0.6,1.3,0.6
		c0.5,0,0.9-0.2,1.2-0.5c0.6-0.7,3.8-4.7,4.1-5c0,0,0,0,0,0h3.3c0,0,0,0,0.1,0c0.2,0,0.3,0.2,0.3,0.4c0,0.1,0,0.1-0.1,0.2
		c0,0,0,0,0,0l0,0l-7,8.7v5.4c0,0,0,0,0,0H143z"/>
	<g>
		<path class="st3" d="M270.1,90.3c-2.2,0-4.2-0.7-5.6-1.9c-1.2-1.1-1.9-2.5-1.9-4c0-1.6,0.6-2.8,1.9-3.9c1.5-1.3,3.4-1.9,5.6-1.9
			c2.1,0,3.9,0.7,5.1,1.9l0.4,0.5V79c0,0,0,0,0,0h2.8c0,0,0,0,0,0v10.9c0,0,0,0,0,0h-2.8c0,0,0,0,0,0v-0.1c0-0.5-0.4-0.8-0.9-0.8
			c-0.1,0-0.3,0-0.4,0.1c0,0,0,0,0,0c0,0,0,0,0,0C273.3,89.8,271.6,90.3,270.1,90.3z M270.8,80.7c-1.6,0-3,0.5-3.9,1.5
			c-0.6,0.7-1,1.5-1,2.3c0,0.8,0.3,1.5,0.9,2.1c0.9,0.9,2.4,1.5,3.9,1.5h0.1c1.6,0,2.9-0.5,3.8-1.4c0.6-0.6,0.9-1.4,0.9-2.3
			c0-0.8-0.3-1.6-0.9-2.3c-0.9-0.9-2.2-1.4-3.8-1.4H270.8z"/>
		<path class="st3" d="M292.6,89.9C292.5,89.9,292.5,89.8,292.6,89.9l0-5.4c0-0.9-0.1-1.8-0.6-2.5c-0.6-0.8-1.8-1.3-3.2-1.3
			c-3.9,0-3.9,2.9-3.9,3.8v5.3c0,0,0,0,0,0h-3.1c0,0,0,0,0,0V79c0,0,0,0,0,0h2.7c0,0,0,0,0,0c0,0.4,0.3,0.8,0.7,0.8
			c0.1,0,0.2,0,0.4-0.1c1.2-0.9,2.7-1.1,3.7-1.1c2,0,3.5,0.5,4.9,1.5c1,0.8,1.6,2.1,1.6,3.6v6.2c0,0,0,0,0,0H292.6z"/>
		<path class="st3" d="M247.9,89.9C247.9,89.9,247.9,89.9,247.9,89.9l-2.3,0c0,0,0,0,0,0v-11c0-1.5,1-2.4,1.4-2.8
			c0.8-0.6,1.6-1,3.3-1c0,0,0,0,0,0h4.4c0,0,0,0,0,0l0,0c3.5,0,5.6,1.4,5.6,3.7c0,1.2-0.9,2.4-2.3,3.2c1.7,0.8,2.7,2.1,2.7,3.6
			c0,1.3-0.6,2.5-1.7,3.2c-1,0.7-2.5,1.2-4.2,1.2c0,0,0,0,0,0H247.9z M249.2,87.4h5.6c1.7-0.1,2.9-1,2.9-2.1c0-1.1-1.2-1.9-2.9-2
			h-5.6l0,0V87.4z M254.9,80.6C254.9,80.6,254.9,80.6,254.9,80.6c1.5-0.1,2.7-0.8,2.7-1.7c0-1-0.9-1.6-2.6-1.7h-4.5v0v0c0,0,0,0,0,0
			c-0.6,0.1-1.1,0.5-1.2,1.2v2.2H254.9z"/>
		<path class="st3" d="M298.6,89.9C298.5,89.9,298.5,89.8,298.6,89.9l0-15.3c0,0,0,0,0,0h3.1c0,0,0,0,0,0V84l6.5-5.5c0,0,0,0,0,0h4
			c0.2,0,0.4,0.2,0.4,0.4c0,0.1,0,0.2-0.1,0.3c0,0-4.4,3.8-5,4.2c-0.2,0.2-0.3,0.5-0.3,0.8c0,0.3,0.1,0.5,0.3,0.7l5,4.4c0,0,0,0,0,0
			c0.1,0.1,0.1,0.2,0.1,0.3c0,0.2-0.2,0.4-0.4,0.4h-4c0,0,0,0,0,0l-4.8-4.2c0,0,0,0,0,0c-0.2-0.2-0.4-0.2-0.6-0.2c-0.5,0-1,0.4-1,1
			v3.4c0,0,0,0,0,0H298.6z"/>
	</g>
</g>
</svg>
