<svg width="247" height="74" viewBox="0 0 247 74" fill="none" xmlns="http://www.w3.org/2000/svg"><g id="appstore" clip-path="url(#clip0_102_42568)"><g id="Group"><path id="Vector" d="M237.749 73.826H9.116C4.368 73.826.5 69.908.5 65.112V8.875C.5 4.077 4.367.174 9.117.174H237.75c4.747 0 8.751 3.903 8.751 8.701v56.237c0 4.796-4.004 8.715-8.751 8.715z" fill="#A6A6A6"/><path id="Vector_2" d="M244.737 65.114c0 3.896-3.123 7.052-6.987 7.052H9.117c-3.86 0-6.995-3.156-6.995-7.052V8.874c0-3.893 3.134-7.06 6.995-7.06H237.75c3.863 0 6.988 3.167 6.988 7.06v56.24z" fill="#000"/><g id="Group_2"><path id="Vector_3" d="M55.4 36.602c-.052-5.935 4.809-8.822 5.031-8.956-2.754-4.057-7.02-4.61-8.52-4.655-3.585-.381-7.062 2.167-8.888 2.167-1.862 0-4.674-2.13-7.704-2.067-3.9.06-7.548 2.342-9.549 5.885-4.129 7.223-1.049 17.839 2.907 23.677 1.98 2.86 4.292 6.052 7.318 5.94 2.96-.123 4.067-1.907 7.64-1.907 3.542 0 4.58 1.907 7.666 1.835 3.18-.051 5.18-2.872 7.088-5.758 2.288-3.277 3.206-6.505 3.243-6.671-.074-.026-6.172-2.377-6.231-9.49zm-5.833-17.451c1.594-2.014 2.684-4.75 2.382-7.53-2.305.103-5.188 1.611-6.85 3.58-1.466 1.734-2.779 4.577-2.44 7.251 2.59.194 5.248-1.321 6.908-3.303v.002z" fill="#fff"/></g><g id="Group_3"><path id="Vector_4" d="M98.252 58.182h-4.136l-2.269-7.197h-7.878l-2.16 7.197h-4.028l7.807-24.504h4.82l7.844 24.505zm-7.087-10.217l-2.05-6.399c-.217-.654-.624-2.193-1.223-4.616h-.074a169.915 169.915 0 01-1.15 4.616l-2.014 6.4h6.511zm27.165 1.166c0 3.005-.805 5.38-2.412 7.123-1.44 1.553-3.227 2.328-5.362 2.328-2.302 0-3.958-.836-4.964-2.507h-.074v9.308h-3.884V46.33c0-1.89-.05-3.828-.144-5.817h3.417l.215 2.8h.074c1.296-2.109 3.261-3.162 5.899-3.162 2.063 0 3.786.822 5.163 2.47 1.382 1.65 2.072 3.82 2.072 6.51zm-3.96.142c0-1.719-.383-3.137-1.15-4.252-.84-1.164-1.968-1.746-3.383-1.746-.959 0-1.829.324-2.607.964-.781.643-1.29 1.484-1.529 2.527-.121.486-.181.884-.181 1.197v2.946c0 1.286.39 2.371 1.17 3.255.78.887 1.794 1.329 3.04 1.329 1.463 0 2.601-.572 3.417-1.709.815-1.14 1.223-2.643 1.223-4.51zm24.07-.142c0 3.005-.803 5.38-2.412 7.123-1.437 1.553-3.226 2.328-5.359 2.328-2.304 0-3.958-.836-4.964-2.507h-.073v9.308h-3.885V46.33c0-1.89-.049-3.828-.144-5.817h3.417l.217 2.8h.073c1.294-2.109 3.259-3.162 5.9-3.162 2.061 0 3.783.822 5.164 2.47 1.376 1.65 2.066 3.82 2.066 6.51zm-3.957.142c0-1.719-.384-3.137-1.153-4.252-.84-1.164-1.965-1.746-3.381-1.746-.96 0-1.83.324-2.61.964-.779.643-1.288 1.484-1.526 2.527-.118.486-.181.884-.181 1.197v2.946c0 1.286.39 2.371 1.166 3.255.781.884 1.793 1.329 3.043 1.329 1.463 0 2.602-.572 3.418-1.709.816-1.14 1.224-2.643 1.224-4.51zm26.444 2.038c0 2.084-.717 3.78-2.155 5.09-1.579 1.43-3.778 2.144-6.605 2.144-2.609 0-4.7-.508-6.284-1.526l.899-3.272a10.561 10.561 0 005.616 1.565c1.465 0 2.603-.335 3.421-1.002.814-.666 1.221-1.562 1.221-2.677 0-.994-.336-1.832-1.008-2.511-.668-.68-1.785-1.311-3.345-1.896-4.247-1.6-6.368-3.943-6.368-7.026 0-2.014.744-3.666 2.233-4.95 1.484-1.289 3.462-1.93 5.937-1.93 2.206 0 4.04.388 5.503 1.164l-.972 3.2c-1.366-.752-2.911-1.127-4.64-1.127-1.367 0-2.435.34-3.2 1.017-.648.606-.972 1.344-.972 2.219 0 .97.37 1.769 1.114 2.4.648.581 1.822 1.212 3.528 1.89 2.085.85 3.619 1.842 4.604 2.98.983 1.134 1.473 2.554 1.473 4.248zm12.844-7.852h-4.282v8.58c0 2.181.754 3.271 2.268 3.271.693 0 1.269-.06 1.724-.183l.109 2.982c-.766.289-1.774.434-3.022.434-1.534 0-2.733-.472-3.598-1.418-.863-.946-1.296-2.534-1.296-4.763v-8.907h-2.552v-2.946h2.552v-3.235l3.815-1.164v4.399h4.282v2.95zm19.322 5.744c0 2.715-.769 4.945-2.304 6.689-1.608 1.796-3.744 2.69-6.408 2.69-2.564 0-4.607-.86-6.131-2.58-1.523-1.719-2.284-3.89-2.284-6.506 0-2.74.783-4.982 2.357-6.726 1.567-1.746 3.685-2.618 6.349-2.618 2.563 0 4.628.86 6.186 2.581 1.491 1.67 2.235 3.827 2.235 6.47zm-4.032.127c0-1.63-.343-3.028-1.041-4.193-.815-1.411-1.98-2.114-3.488-2.114-1.562 0-2.748.706-3.562 2.114-.699 1.167-1.043 2.587-1.043 4.266 0 1.63.344 3.027 1.043 4.191.839 1.41 2.013 2.114 3.528 2.114 1.483 0 2.647-.72 3.486-2.15.716-1.188 1.077-2.6 1.077-4.228zm16.659-5.364a6.677 6.677 0 00-1.223-.109c-1.368 0-2.424.522-3.167 1.566-.648.92-.972 2.084-.972 3.488v9.271h-3.883l.035-12.105a96.75 96.75 0 00-.145-5.562h3.385l.141 3.38h.108c.409-1.162 1.057-2.097 1.943-2.798.864-.63 1.8-.946 2.807-.946.36 0 .684.025.972.072v3.742l-.001.001zm17.375 4.546c0 .703-.045 1.296-.142 1.78h-11.655c.045 1.746.609 3.081 1.692 4.002.982.823 2.252 1.236 3.812 1.236 1.725 0 3.299-.279 4.715-.837l.608 2.725c-1.654.73-3.607 1.093-5.862 1.093-2.711 0-4.839-.807-6.388-2.419-1.546-1.61-2.32-3.774-2.32-6.489 0-2.663.721-4.883 2.161-6.652 1.509-1.888 3.549-2.834 6.114-2.834 2.52 0 4.428.946 5.724 2.834 1.025 1.501 1.541 3.357 1.541 5.56zm-3.704-1.018c.025-1.164-.228-2.17-.755-3.018-.672-1.092-1.705-1.637-3.095-1.637-1.27 0-2.304.532-3.094 1.6-.646.848-1.031 1.866-1.149 3.054l8.093.001z" fill="#fff"/></g><g id="Group_4"><path id="Vector_5" d="M89.88 18.603c0 2.168-.643 3.799-1.93 4.895-1.188 1.01-2.879 1.517-5.07 1.517-1.085 0-2.015-.049-2.792-.144V13.03a20.314 20.314 0 013.289-.251c2.086 0 3.659.457 4.72 1.374 1.187 1.037 1.784 2.52 1.784 4.449zm-2.013.054c0-1.405-.368-2.482-1.105-3.233-.737-.751-1.812-1.125-3.226-1.125-.602 0-1.115.04-1.54.125v9.002c.236.036.666.053 1.291.053 1.461 0 2.59-.41 3.384-1.232.795-.82 1.196-2.018 1.196-3.591v.001zm12.689 1.839c0 1.336-.377 2.429-1.132 3.288-.79.88-1.838 1.32-3.146 1.32-1.261 0-2.266-.42-3.014-1.267-.747-.846-1.12-1.912-1.12-3.197 0-1.345.384-2.448 1.157-3.304.772-.856 1.812-1.284 3.118-1.284 1.261 0 2.275.42 3.042 1.266.729.82 1.095 1.881 1.095 3.178zm-1.98.063c0-.801-.171-1.488-.513-2.06-.4-.693-.972-1.04-1.713-1.04-.766 0-1.35.347-1.75 1.04-.343.572-.512 1.27-.512 2.095 0 .8.17 1.488.512 2.06.413.692.989 1.038 1.733 1.038.729 0 1.3-.352 1.713-1.056.353-.585.53-1.277.53-2.077zm16.296-4.33l-2.688 8.678h-1.75l-1.112-3.77a28.414 28.414 0 01-.692-2.802h-.034c-.165.95-.396 1.886-.691 2.803l-1.182 3.771h-1.77l-2.527-8.68h1.963l.972 4.125c.234.977.427 1.906.582 2.786h.035c.141-.725.377-1.65.707-2.767l1.22-4.143h1.557l1.168 4.054c.283.99.511 1.941.688 2.857h.053c.129-.892.324-1.844.583-2.857l1.043-4.054 1.875-.002zm9.899 8.678h-1.909v-4.971c0-1.532-.574-2.298-1.731-2.298-.567 0-1.023.21-1.38.632a2.26 2.26 0 00-.53 1.488v5.148h-1.908v-6.197c0-.763-.023-1.591-.069-2.485h1.679l.089 1.357h.053c.221-.422.553-.77.99-1.046a3.191 3.191 0 011.73-.49c.802 0 1.469.263 1.999.787.66.642.989 1.601.989 2.876l-.002 5.2zm5.266 0h-1.907V12.245h1.907v12.662zm11.244-4.411c0 1.336-.377 2.429-1.131 3.288-.791.88-1.841 1.32-3.148 1.32-1.262 0-2.266-.42-3.014-1.267-.747-.846-1.119-1.912-1.119-3.197 0-1.345.383-2.448 1.156-3.304.773-.856 1.812-1.284 3.118-1.284 1.263 0 2.275.42 3.044 1.266.727.82 1.094 1.881 1.094 3.178zm-1.983.063c0-.801-.17-1.488-.511-2.06-.399-.693-.972-1.04-1.711-1.04-.769 0-1.353.347-1.752 1.04-.342.572-.511 1.27-.511 2.095 0 .8.171 1.488.511 2.06.413.692.99 1.038 1.734 1.038.728 0 1.299-.352 1.71-1.056.355-.585.53-1.277.53-2.077zm11.225 4.348h-1.714l-.142-.998h-.053c-.586.795-1.423 1.196-2.51 1.196-.81 0-1.466-.264-1.959-.787-.449-.474-.673-1.065-.673-1.767 0-1.061.437-1.87 1.317-2.43.879-.56 2.113-.833 3.704-.82v-.162c0-1.143-.593-1.715-1.782-1.715-.849 0-1.595.215-2.241.644l-.389-1.267c.799-.5 1.784-.751 2.947-.751 2.246 0 3.373 1.198 3.373 3.591v3.197c0 .867.041 1.558.122 2.07zm-1.983-2.982v-1.34c-2.106-.035-3.159.549-3.159 1.75 0 .453.121.792.367 1.018.246.227.559.34.932.34a1.921 1.921 0 001.168-.402 1.645 1.645 0 00.692-1.366zm12.835 2.982h-1.694l-.09-1.393h-.053c-.542 1.06-1.462 1.59-2.759 1.59-1.035 0-1.897-.41-2.581-1.23-.683-.823-1.023-1.888-1.023-3.197 0-1.405.369-2.543 1.113-3.412.721-.81 1.601-1.215 2.652-1.215 1.153 0 1.959.392 2.42 1.178h.035v-4.983h1.912V22.57c0 .844.022 1.623.068 2.337zm-1.98-3.66V19.8c0-.25-.017-.453-.051-.608a2.198 2.198 0 00-.693-1.168 1.862 1.862 0 00-1.275-.474c-.713 0-1.271.285-1.681.858-.407.573-.613 1.304-.613 2.197 0 .858.196 1.554.588 2.09.412.57.971.856 1.669.856.626 0 1.128-.237 1.508-.715.369-.44.548-.97.548-1.59zm18.313-.751c0 1.336-.378 2.429-1.132 3.288-.791.88-1.837 1.32-3.147 1.32-1.259 0-2.264-.42-3.014-1.267-.747-.846-1.121-1.912-1.121-3.197 0-1.345.385-2.448 1.157-3.304.773-.856 1.811-1.284 3.122-1.284 1.258 0 2.273.42 3.039 1.266.73.82 1.096 1.881 1.096 3.178zm-1.979.063c0-.801-.171-1.488-.513-2.06-.402-.693-.971-1.04-1.715-1.04-.766 0-1.348.347-1.75 1.04-.343.572-.512 1.27-.512 2.095 0 .8.171 1.488.512 2.06.413.692.989 1.038 1.733 1.038.729 0 1.302-.352 1.714-1.056.352-.585.531-1.277.531-2.077zm12.247 4.348h-1.908v-4.971c0-1.532-.576-2.298-1.734-2.298a1.706 1.706 0 00-1.377.632c-.354.421-.53.92-.53 1.488v5.148h-1.911v-6.197c0-.763-.022-1.591-.068-2.485h1.677l.088 1.357h.053c.225-.422.557-.77.99-1.046a3.212 3.212 0 011.734-.49c.8 0 1.465.263 1.996.787.663.642.99 1.601.99 2.876v5.2zm12.852-7.234h-2.104v4.216c0 1.073.375 1.609 1.114 1.609.343 0 .628-.03.851-.09l.049 1.463c-.377.144-.872.216-1.483.216-.754 0-1.341-.232-1.765-.697-.427-.464-.638-1.244-.638-2.34v-4.377h-1.256v-1.445h1.256v-1.59l1.871-.572v2.16h2.103l.002 1.447zm10.11 7.235h-1.913v-4.935c0-1.556-.574-2.335-1.729-2.335-.884 0-1.491.45-1.822 1.354a2.47 2.47 0 00-.088.694v5.22h-1.908v-12.66h1.908v5.23h.035c.602-.952 1.464-1.427 2.581-1.427.791 0 1.445.262 1.965.786.646.654.971 1.626.971 2.912v5.16zm10.429-4.751c0 .346-.027.638-.072.875h-5.728c.027.857.299 1.511.83 1.965.486.405 1.11.607 1.875.607.847 0 1.62-.136 2.315-.41l.3 1.34c-.815.357-1.773.536-2.883.536-1.33 0-2.378-.395-3.136-1.188-.762-.79-1.139-1.854-1.139-3.187 0-1.308.352-2.399 1.061-3.268.739-.928 1.739-1.392 3.003-1.392 1.235 0 2.174.463 2.808 1.39.512.737.766 1.65.766 2.732zm-1.822-.5a2.616 2.616 0 00-.372-1.481c-.331-.537-.835-.805-1.518-.805-.623 0-1.132.263-1.521.787a2.95 2.95 0 00-.567 1.5h3.978z" fill="#fff"/></g></g></g><defs><clipPath id="clip0_102_42568"><path fill="#fff" transform="translate(.5 .174)" d="M0 0h246v73.653H0z"/></clipPath></defs></svg>