<svg width="247" height="74" viewBox="0 0 247 74" fill="none" xmlns="http://www.w3.org/2000/svg"><g id="btn-googleplay 1" clip-path="url(#clip0_102_42593)"><g id="Group"><path id="Vector" d="M237.749 73.826H9.116C4.368 73.826.5 69.908.5 65.112V8.875C.5 4.077 4.367.174 9.117.174H237.75c4.747 0 8.751 3.903 8.751 8.701v56.237c0 4.796-4.004 8.715-8.751 8.715z" fill="#A6A6A6"/><path id="Vector_2" d="M244.737 65.114c0 3.896-3.123 7.052-6.987 7.052H9.117c-3.86 0-6.995-3.156-6.995-7.052V8.874c0-3.893 3.134-7.06 6.995-7.06H237.75c3.863 0 6.988 3.167 6.988 7.06v56.24z" fill="#000"/><path id="Vector_3" d="M28.96 18.86a2.778 2.778 0 00-.66 1.97v31.132a2.77 2.77 0 00.66 1.97l.116.113L46.87 36.594v-.423L29.074 18.748l-.113.113v-.002z" fill="url(#paint0_linear_102_42593)"/><path id="Vector_4" d="M52.8 42.42l-5.931-5.826v-.423l5.932-5.813.13.086 6.964 3.926c2.01 1.112 2.01 2.941 0 4.053l-7.022 3.913-.072.084z" fill="url(#paint1_linear_102_42593)"/><path id="Vector_5" d="M52.93 42.335l-6.061-5.939L28.96 53.933a2.363 2.363 0 002.987.084L52.93 42.335z" fill="url(#paint2_linear_102_42593)"/><path id="Vector_6" d="M52.93 30.457L31.948 18.776a2.363 2.363 0 00-2.987.085l17.908 17.535 6.061-5.939z" fill="url(#paint3_linear_102_42593)"/><path id="Vector_7" opacity=".2" d="M52.8 42.224L31.948 53.82a2.423 2.423 0 01-2.873 0l-.115.098.115.114a2.409 2.409 0 002.873 0L52.929 42.35l-.128-.126z" fill="#000"/><path id="Vector_8" opacity=".12" d="M28.96 53.734a2.778 2.778 0 01-.66-1.983v.21c-.045.717.191 1.42.66 1.972l.114-.099-.115-.1zm30.935-15.509l-7.181 3.984.13.126 7.051-3.912a2.467 2.467 0 001.508-2.027 2.628 2.628 0 01-1.508 1.83z" fill="#000"/><path id="Vector_9" opacity=".25" d="M31.947 18.973l27.948 15.594a2.634 2.634 0 011.508 1.83 2.467 2.467 0 00-1.508-2.028L31.947 18.775c-2.011-1.125-3.648-.195-3.648 2.055v.282c0-2.322 1.637-3.251 3.648-2.14z" fill="#fff"/><g id="Group_2"><g id="Group_3"><path id="Vector_10" d="M85.407 19.328a4.703 4.703 0 01-1.279 3.463 4.916 4.916 0 01-3.747 1.542 5.07 5.07 0 01-3.764-1.558 5.24 5.24 0 01-1.55-3.88 5.239 5.239 0 011.55-3.863 5.069 5.069 0 013.764-1.558 5.04 5.04 0 012.096.433c.61.247 1.158.632 1.601 1.125l-.903.918a3.38 3.38 0 00-2.794-1.193 3.904 3.904 0 00-2.854 1.208 4.037 4.037 0 00-1.115 2.931 4.003 4.003 0 001.176 3.064 3.836 3.836 0 002.793 1.16 3.782 3.782 0 002.844-1.16 3.315 3.315 0 00.87-2.096h-3.713v-1.367h4.94c.054.272.082.55.085.83zm7.869-4.296h-4.684v3.291h4.207v1.248H88.59v3.255h4.685v1.264H87.28V13.7h5.995v1.332zm5.518 9.058h-1.311v-9.058H94.62V13.7h7.017v1.333h-2.843l-.001 9.058zm7.938 0V13.7h1.311v10.39h-1.311zm7.137 0h-1.311v-9.058h-2.862V13.7h7.018v1.333h-2.845v9.058zm16.148-1.335a5.247 5.247 0 01-3.748 1.581 5.255 5.255 0 01-3.747-1.58 5.396 5.396 0 01-1.516-3.861 5.389 5.389 0 011.517-3.862 5.238 5.238 0 013.737-1.577c1.404 0 2.749.567 3.741 1.576a5.23 5.23 0 011.515 3.845 5.389 5.389 0 01-1.499 3.88v-.002zm-6.524-.795a3.677 3.677 0 002.776 1.16 3.735 3.735 0 002.777-1.16 4.153 4.153 0 001.124-2.996 4.143 4.143 0 00-1.124-3.05 3.724 3.724 0 00-2.777-1.157 3.68 3.68 0 00-2.776 1.16 4.087 4.087 0 00-1.141 2.979 4.092 4.092 0 001.141 3.066v-.002zm9.862 2.13V13.7h1.601l4.974 8.086V13.7h1.311v10.39h-1.378l-5.196-8.469v8.469h-1.312z" fill="#fff" stroke="#fff" stroke-width=".737"/></g><path id="Vector_11" d="M120.682 42.9c-3.992.02-7.218 3.323-7.205 7.384.014 4.06 3.257 7.343 7.251 7.336 3.993-.006 7.228-3.3 7.228-7.36a7.32 7.32 0 00-2.102-5.248 7.077 7.077 0 00-5.172-2.111zm0 11.83a4.177 4.177 0 01-2.965-1.364 4.317 4.317 0 01-1.123-3.106 4.201 4.201 0 011.93-3.928 4.048 4.048 0 014.318 0 4.19 4.19 0 011.929 3.928 4.292 4.292 0 01-1.124 3.1 4.157 4.157 0 01-2.965 1.352v.018zM104.825 42.9c-3.994.02-7.218 3.323-7.205 7.384.012 4.06 3.255 7.343 7.25 7.336 3.992-.006 7.227-3.3 7.227-7.36a7.318 7.318 0 00-2.1-5.248 7.08 7.08 0 00-5.172-2.111zm0 11.83a4.16 4.16 0 01-2.972-1.359 4.309 4.309 0 01-1.116-3.11 4.2 4.2 0 011.928-3.93 4.049 4.049 0 014.319 0 4.2 4.2 0 011.93 3.93 4.313 4.313 0 01-1.126 3.099 4.152 4.152 0 01-2.963 1.352v.018zm-18.873-9.597v3.134h7.324a6.668 6.668 0 01-1.703 3.932 7.464 7.464 0 01-5.621 2.286c-4.516 0-8.176-3.722-8.176-8.312 0-4.592 3.66-8.314 8.176-8.314a7.814 7.814 0 015.621 2.217l2.163-2.2a10.638 10.638 0 00-7.784-3.152c-6.244 0-11.328 5.101-11.413 11.449.084 6.344 5.171 11.44 11.413 11.429a10.134 10.134 0 007.851-3.204 10.492 10.492 0 002.658-7.308c.007-.656-.045-1.31-.154-1.957H85.952zm77.161 2.424c-.894-2.719-3.364-4.58-6.184-4.657a6.758 6.758 0 00-4.974 2.18 7 7 0 00-1.838 5.179 7.266 7.266 0 002.056 5.232 7.033 7.033 0 005.132 2.132 7.142 7.142 0 006.029-3.256l-2.47-1.732a4.104 4.104 0 01-3.557 2.041 3.673 3.673 0 01-3.509-2.234l9.675-4.069-.358-.814-.002-.002zm-9.879 2.46a4.065 4.065 0 011.003-2.956 3.943 3.943 0 012.778-1.34 2.805 2.805 0 012.691 1.56l-6.472 2.735v.001zm-7.869 7.134h3.184V35.505h-3.167l-.017 21.646zm-5.214-12.624h-.117a4.98 4.98 0 00-3.801-1.627c-3.996 0-7.239 3.295-7.239 7.359 0 4.066 3.241 7.36 7.241 7.36a4.922 4.922 0 003.815-1.732h.118v1.057a3.81 3.81 0 01-.928 3.1 3.673 3.673 0 01-2.955 1.211 4.01 4.01 0 01-3.645-2.614l-2.776 1.178c1.075 2.637 3.612 4.354 6.422 4.346 3.746 0 6.813-2.234 6.813-7.672V43.315h-2.931l-.017 1.212zm-3.662 10.183a4.13 4.13 0 01-2.935-1.355 4.268 4.268 0 01-1.101-3.078 4.323 4.323 0 011.09-3.11 4.185 4.185 0 012.946-1.394 4.064 4.064 0 012.873 1.417 4.204 4.204 0 01.994 3.087 4.144 4.144 0 01-.997 3.049 4.01 4.01 0 01-2.852 1.384h-.018zm41.545-19.207h-7.614v21.648h3.186v-8.19h4.428c3.756.106 6.889-2.902 7.001-6.72a6.98 6.98 0 00-2.127-4.843 6.742 6.742 0 00-4.874-1.895zm.085 10.391h-4.513v-7.377h4.513a3.648 3.648 0 013.38 1.781 3.779 3.779 0 010 3.868 3.654 3.654 0 01-3.38 1.781v-.053zM197.76 42.9a5.96 5.96 0 00-5.689 3.255l2.826 1.195a3.02 3.02 0 012.913-1.594 3.027 3.027 0 012.278.669 3.137 3.137 0 011.129 2.12v.225a7.027 7.027 0 00-3.407-.831c-3.032 0-6.131 1.73-6.131 4.865a5.029 5.029 0 001.65 3.517 4.87 4.87 0 003.629 1.246 4.443 4.443 0 004.054-2.113h.119v1.733h3.067V48.82c.034-3.844-2.794-5.921-6.438-5.921zm-.376 11.862c-1.039 0-2.487-.52-2.487-1.836 0-1.732 1.806-2.303 3.408-2.303a5.48 5.48 0 012.912.727c-.28 1.93-1.915 3.355-3.833 3.343v.069zm18.021-11.447l-3.644 9.386h-.103l-3.781-9.386h-3.406l5.671 13.11-3.252 7.255h3.405l8.738-20.417-3.628.052zm-28.633 13.854h3.186V35.505h-3.186v21.664z" fill="#fff"/></g></g></g><defs><linearGradient id="paint0_linear_102_42593" x1="1170.55" y1="194.669" x2="-350.834" y2="1684.77" gradientUnits="userSpaceOnUse"><stop stop-color="#00A0FF"/><stop offset=".01" stop-color="#00A1FF"/><stop offset=".26" stop-color="#00BEFF"/><stop offset=".51" stop-color="#00D2FF"/><stop offset=".76" stop-color="#00DFFF"/><stop offset="1" stop-color="#00E3FF"/></linearGradient><linearGradient id="paint1_linear_102_42593" x1="1616.63" y1="634.126" x2="-1858.95" y2="634.126" gradientUnits="userSpaceOnUse"><stop stop-color="#FFE000"/><stop offset=".41" stop-color="#FFBD00"/><stop offset=".78" stop-color="orange"/><stop offset="1" stop-color="#FF9C00"/></linearGradient><linearGradient id="paint2_linear_102_42593" x1="2095.59" y1="609.783" x2="-485.003" y2="3138.56" gradientUnits="userSpaceOnUse"><stop stop-color="#FF3A44"/><stop offset="1" stop-color="#C31162"/></linearGradient><linearGradient id="paint3_linear_102_42593" x1="-422.002" y1="-151.689" x2="731.88" y2="977.957" gradientUnits="userSpaceOnUse"><stop stop-color="#32A071"/><stop offset=".07" stop-color="#2DA771"/><stop offset=".48" stop-color="#15CF74"/><stop offset=".8" stop-color="#06E775"/><stop offset="1" stop-color="#00F076"/></linearGradient><clipPath id="clip0_102_42593"><path fill="#fff" transform="translate(.5 .174)" d="M0 0h246v73.653H0z"/></clipPath></defs></svg>