<?xml version="1.0" encoding="utf-8"?>
<!-- Generator: Adobe Illustrator 23.0.1, SVG Export Plug-In . SVG Version: 6.00 Build 0)  -->
<svg version="1.1" id="圖層_1" xmlns="http://www.w3.org/2000/svg" xmlns:xlink="http://www.w3.org/1999/xlink" x="0px" y="0px"
	 viewBox="0 0 299.5 41.5" style="enable-background:new 0 0 299.5 41.5;" xml:space="preserve">
<style type="text/css">
	.st0{fill:none;stroke:#005BAC;stroke-width:1.5;stroke-miterlimit:10;}
	.st1{fill:#005BAC;}
</style>
<title>AppSearchbar</title>
<path class="st0" d="M5.9,0.8h287.8c2.8,0,5.1,2.3,5.1,5.1c0,0,0,0,0,0v29.8c0,2.8-2.3,5.1-5.1,5.1H5.9c-2.8,0-5.1-2.3-5.1-5.1
	c0,0,0,0,0,0V5.9C0.8,3,3.1,0.7,5.9,0.8z"/>
<line class="st0" x1="256.8" y1="0.8" x2="256.8" y2="40.8"/>
<path class="st1" d="M31.3,23.4c0,0.9-0.1,1.9-0.3,2.8c-0.1,0.5-0.4,0.9-0.9,1.2c-0.7,0.2-1.4,0.3-2.2,0.3c-0.7,0-1.3,0-1.7-0.1
	c-0.4,0-0.7-0.1-1-0.4c-0.3-0.3-0.4-0.6-0.4-1v-6.8h-2.6c0,1.8-0.4,3.6-1.3,5.3c-0.9,1.3-2.1,2.4-3.6,3.1l-1.1-1.3
	c1.3-0.5,2.5-1.3,3.3-2.5c0.8-1.4,1.2-3,1.1-4.6h-4V18h14.3v1.5h-4.6v6.3c0,0.1,0.1,0.3,0.2,0.3c0.5,0.1,0.9,0.1,1.4,0.1
	c0.4,0,0.8,0,1.2-0.1c0.2-0.1,0.3-0.2,0.3-0.3c0.1-0.3,0.1-0.7,0.2-1c0.1-0.5,0.1-1.2,0.1-2L31.3,23.4z M30,14.8H17.8v-1.5H30V14.8z
	"/>
<path class="st1" d="M49.4,26.6l-0.9,1.2c-3.2-1.9-5.5-5-6.6-8.5c-1.1,3.5-3.5,6.5-6.6,8.4l-0.9-1.3c3.5-2.3,5.6-5,6.3-8.3h-6v-1.5
	h6.2c0.1-1.2,0.2-2.4,0.2-3.6h1.5c0,1.5-0.1,2.7-0.1,3.6h6.6v1.5H43C43.8,21.7,46.1,24.8,49.4,26.6z"/>
<path class="st1" d="M59.2,16.2l-0.9,1.1c-0.1-0.1-0.2-0.3-0.3-0.4v1.3h-1.5v1.3h2.3v1.4h-2.3v4.5c0.8-0.1,1.6-0.3,2.3-0.6v1.4
	c-2.4,0.6-4.4,1-6.1,1.3l-0.3-1.4c0.9-0.1,1.7-0.3,2.6-0.4v-4.8h-2.2v-1.4H55v-1.3h-1.3v-0.8c-0.2,0.2-0.4,0.3-0.6,0.5l-0.8-1.3
	c1.2-1.1,2.3-2.4,3.1-3.9l1.4,0.4c0,0.1-0.1,0.3-0.2,0.4C57.6,14.4,58.4,15.2,59.2,16.2z M54.6,24.9l-1.3,0.4
	c-0.1-1.2-0.3-2.4-0.5-3.6l1.3-0.3C54.3,22.6,54.5,23.7,54.6,24.9z M57.8,16.8c-0.6-0.7-1.2-1.4-1.9-2c-0.5,0.7-1,1.4-1.6,2H57.8z
	 M58.7,21.8c-0.1,1-0.4,1.9-0.7,2.9l-1.2-0.4c0.3-0.9,0.5-1.8,0.7-2.8L58.7,21.8z M66.4,20.3H61v5.5c0.7-0.2,1.4-0.5,2.1-0.8
	l0.3,1.4c-1.2,0.5-2.4,1-3.6,1.4l-0.5-1.3c0.2-0.1,0.3-0.2,0.3-0.4V13.3h6.9V20.3z M64.9,16.1v-1.4H61v1.4H64.9z M64.9,18.9v-1.5H61
	v1.5L64.9,18.9z M67.5,26.7l-1,1.1c-2.1-1.7-3.6-4-4.2-6.7l1.4-0.5c0.2,0.6,0.4,1.3,0.6,1.9c0.6-0.5,1.2-1.1,1.7-1.8l1.2,0.8
	c-0.7,0.9-1.4,1.7-2.3,2.3C65.6,25,66.4,25.9,67.5,26.7L67.5,26.7z"/>
<path class="st1" d="M75.7,13.4c-1.2,1.6-2.8,3-4.5,4l-0.7-1.5c1.5-0.8,2.8-1.9,3.8-3.3L75.7,13.4z M76,16.5
	c-0.5,0.9-1.1,1.7-1.7,2.5v8.6h-1.6v-6.8c-0.5,0.5-1.1,1-1.7,1.4l-0.7-1.5c1.7-1.3,3.2-2.9,4.2-4.8L76,16.5z M85.3,19.1H83V26
	c0,1.1-0.6,1.7-1.8,1.7c-0.8,0-1.6,0-2.3,0l-0.6-1.5h2.6c0.1,0,0.2,0,0.3-0.1c0.1-0.1,0.2-0.2,0.2-0.3v-6.5h-5.5v-1.5h9.4V19.1z
	 M84.9,14.8h-8.6v-1.5h8.6V14.8z"/>
<path class="st1" d="M97.8,15.5l-3.2,6.2v3.6h-1.5v-3.6l-3.2-6.3h1.7l2,4.2l0.2,0.7l0,0c0.1-0.2,0.1-0.5,0.3-0.7l2-4.2L97.8,15.5z"
	/>
<path class="st1" d="M105,25.4h-1.5v-1.1l0,0c-0.4,0.8-1.3,1.3-2.2,1.3c-1.7,0-2.5-1-2.5-3v-4.2h1.5v4c0,1.3,0.5,2,1.5,2
	c0.5,0,0.9-0.2,1.2-0.5c0.3-0.4,0.5-0.9,0.4-1.5v-4h1.5V25.4z"/>
<path class="st1" d="M107.3,18.8c0.8-0.4,1.6-0.7,2.5-0.6c1.8,0,2.7,0.9,2.7,2.8v4.5H111v-1.1l0,0c-0.4,0.8-1.3,1.3-2.2,1.2
	c-0.6,0-1.2-0.2-1.6-0.6c-0.4-0.4-0.6-0.9-0.6-1.5c0-1.3,0.8-2.1,2.3-2.3l2-0.3c0-1-0.5-1.6-1.4-1.6c-0.8,0-1.7,0.3-2.3,0.8
	L107.3,18.8z M109.4,22.1c-0.4,0-0.8,0.2-1.1,0.4c-0.2,0.2-0.3,0.5-0.3,0.8c0,0.3,0.1,0.6,0.3,0.8c0.2,0.2,0.5,0.3,0.9,0.3
	c0.5,0,0.9-0.2,1.2-0.5c0.3-0.4,0.5-0.8,0.5-1.3v-0.6L109.4,22.1z"/>
<path class="st1" d="M120.5,25.4H119v-4c0-1.3-0.5-2-1.5-2c-0.5,0-0.9,0.2-1.2,0.6c-0.3,0.4-0.5,0.9-0.5,1.4v4h-1.5v-7h1.5v1.2l0,0
	c0.4-0.8,1.3-1.3,2.3-1.3c1.6,0,2.4,1,2.4,2.9L120.5,25.4z"/>
<path class="st1" d="M126.1,25.3c-0.4,0.2-0.8,0.3-1.2,0.2c-1.3,0-2-0.7-2-2.2v-3.8h-1.2v-1.1h1.2v-1.7l1.5-0.5v2.1h1.7v1.2h-1.7
	v3.6c0,0.3,0.1,0.7,0.2,0.9c0.2,0.2,0.5,0.3,0.7,0.3c0.3,0,0.5-0.1,0.7-0.2L126.1,25.3z"/>
<path class="st1" d="M127.7,18.8c0.8-0.4,1.6-0.7,2.5-0.6c1.8,0,2.7,0.9,2.7,2.8v4.5h-1.5v-1.1l0,0c-0.4,0.8-1.2,1.3-2.1,1.2
	c-0.6,0-1.2-0.2-1.6-0.6c-0.4-0.4-0.6-0.9-0.6-1.5c0-1.3,0.8-2.1,2.3-2.3l2-0.3c0-1-0.5-1.6-1.4-1.6c-0.8,0-1.7,0.3-2.3,0.8
	L127.7,18.8z M129.8,22.1c-0.4,0-0.8,0.2-1.1,0.4c-0.2,0.2-0.3,0.5-0.3,0.8c0,0.3,0.1,0.6,0.3,0.8c0.2,0.2,0.5,0.3,0.9,0.3
	c0.5,0,0.9-0.2,1.3-0.5c0.3-0.4,0.5-0.8,0.5-1.3v-0.6L129.8,22.1z"/>
<path class="st1" d="M145,25c-0.9,0.4-1.8,0.6-2.8,0.6c-1.3,0.1-2.5-0.4-3.4-1.3c-0.9-1-1.3-2.2-1.3-3.5c-0.1-1.4,0.5-2.8,1.4-3.8
	c1-1,2.3-1.5,3.7-1.5c0.8,0,1.6,0.1,2.3,0.4v1.5c-0.7-0.4-1.5-0.6-2.3-0.6c-1,0-1.9,0.3-2.6,1.1c-0.7,0.8-1,1.8-1,2.8
	c0,1,0.3,1.9,0.9,2.6c0.6,0.7,1.5,1,2.4,1c0.9,0,1.7-0.2,2.5-0.7L145,25z"/>
<path class="st1" d="M146.3,21.9c-0.1-1,0.3-2,1-2.7c0.7-0.7,1.7-1.1,2.7-1c0.9,0,1.9,0.3,2.5,1c0.7,0.7,1,1.7,0.9,2.7
	c0,1-0.3,2-1,2.7c-0.7,0.7-1.6,1.1-2.6,1c-1,0-1.9-0.3-2.6-1C146.6,23.8,146.3,22.9,146.3,21.9z M147.8,21.9c0,0.6,0.2,1.3,0.6,1.8
	c0.4,0.4,0.9,0.7,1.5,0.7c1.4,0,2-0.8,2-2.5c0-0.7-0.1-1.3-0.5-1.8c-0.4-0.4-0.9-0.7-1.5-0.6c-0.6,0-1.2,0.2-1.5,0.7
	C148,20.6,147.8,21.2,147.8,21.9L147.8,21.9z"/>
<path class="st1" d="M165.5,25.4H164v-4c0-0.5-0.1-1.1-0.3-1.5c-0.2-0.3-0.7-0.5-1.1-0.5c-0.4,0-0.8,0.2-1.1,0.6
	c-0.3,0.4-0.5,0.9-0.5,1.4v4h-1.5v-4.2c0-1.2-0.5-1.9-1.4-1.9c-0.4,0-0.8,0.2-1.1,0.6c-0.3,0.4-0.5,0.9-0.4,1.5v4h-1.5v-7h1.5v1.1
	l0,0c0.4-0.8,1.3-1.3,2.2-1.3c0.9,0,1.7,0.5,2,1.4c0.4-0.9,1.4-1.4,2.3-1.4c1.5,0,2.3,1,2.3,2.8L165.5,25.4z"/>
<path class="st1" d="M177.9,25.4h-1.5v-4c0-0.5-0.1-1.1-0.3-1.5c-0.2-0.3-0.7-0.5-1.1-0.5c-0.4,0-0.8,0.2-1.1,0.6
	c-0.3,0.4-0.5,0.9-0.5,1.4v4h-1.5v-4.2c0-1.2-0.5-1.9-1.4-1.9c-0.4,0-0.8,0.2-1.1,0.6c-0.3,0.4-0.5,0.9-0.4,1.5v4h-1.5v-7h1.5v1.1
	l0,0c0.4-0.8,1.3-1.3,2.2-1.3c0.9,0,1.7,0.5,2,1.4c0.4-0.9,1.4-1.5,2.4-1.4c1.5,0,2.3,1,2.3,2.8V25.4z"/>
<path class="st1" d="M185.8,22.2h-4.9c-0.1,1.1,0.8,2.1,1.9,2.1c0.1,0,0.2,0,0.3,0c0.8,0,1.5-0.2,2.1-0.7v1.2
	c-0.7,0.4-1.6,0.7-2.4,0.6c-0.9,0-1.8-0.3-2.4-1c-0.6-0.7-0.9-1.7-0.9-2.7c0-1,0.3-1.9,1-2.7c0.6-0.7,1.4-1,2.3-1
	c0.8,0,1.6,0.3,2.2,0.9c0.6,0.7,0.8,1.6,0.8,2.5V22.2z M184.3,21.2c0-0.5-0.1-1-0.4-1.4c-0.3-0.3-0.7-0.5-1.1-0.5
	c-0.4,0-0.9,0.2-1.2,0.5c-0.4,0.4-0.6,0.8-0.6,1.4L184.3,21.2z"/>
<path class="st1" d="M191.3,19.8c-0.3-0.2-0.6-0.2-0.9-0.2c-0.5,0-0.9,0.2-1.2,0.6c-0.3,0.5-0.5,1.1-0.5,1.7v3.5h-1.5v-7h1.5v1.4
	l0,0c0.2-0.9,0.9-1.5,1.8-1.5c0.2,0,0.4,0,0.6,0.1L191.3,19.8z"/>
<path class="st1" d="M197.4,25.1c-0.6,0.3-1.3,0.5-2,0.5c-0.9,0-1.8-0.3-2.5-1c-0.7-0.7-1-1.6-1-2.5c-0.1-1,0.3-2,1-2.8
	c0.7-0.7,1.7-1.1,2.7-1c0.6,0,1.2,0.1,1.7,0.3v1.4c-0.5-0.3-1-0.5-1.6-0.5c-0.6,0-1.2,0.2-1.7,0.7c-0.4,0.5-0.7,1.2-0.6,1.8
	c0,0.7,0.2,1.3,0.6,1.8c0.4,0.5,1.1,0.7,1.7,0.7c0.6,0,1.2-0.2,1.7-0.6L197.4,25.1z"/>
<path class="st1" d="M198.8,15.9c0-0.2,0.1-0.5,0.3-0.6c0.4-0.3,0.9-0.3,1.3,0c0.2,0.2,0.3,0.4,0.3,0.6c0,0.2-0.1,0.5-0.3,0.6
	c-0.2,0.2-0.4,0.2-0.6,0.2c-0.2,0-0.5-0.1-0.6-0.3C198.9,16.4,198.8,16.2,198.8,15.9z M199,25.4v-7h1.5v7H199z"/>
<path class="st1" d="M202.8,18.8c0.8-0.4,1.6-0.7,2.5-0.6c1.8,0,2.7,0.9,2.7,2.8v4.5h-1.5v-1.1l0,0c-0.7,1.2-2.3,1.6-3.5,0.9
	c-0.1-0.1-0.2-0.1-0.3-0.2c-0.4-0.4-0.6-0.9-0.6-1.5c0-1.3,0.8-2.1,2.4-2.3l2-0.3c0-1-0.5-1.6-1.4-1.6c-0.8,0-1.7,0.3-2.3,0.8
	L202.8,18.8z M204.9,22.1c-0.4,0-0.8,0.2-1.1,0.4c-0.2,0.2-0.3,0.5-0.3,0.8c0,0.3,0.1,0.6,0.3,0.8c0.2,0.2,0.5,0.3,0.9,0.3
	c0.5,0,0.9-0.2,1.3-0.5c0.3-0.4,0.5-0.8,0.5-1.3v-0.6L204.9,22.1z"/>
<path class="st1" d="M209.8,25.4V15h1.5v10.4H209.8z"/>
<path class="st1" d="M216.9,25.4v-9.8h3.1c0.8,0,1.5,0.2,2.2,0.6c0.5,0.4,0.8,1,0.8,1.7c0,0.5-0.2,1-0.5,1.4
	c-0.3,0.4-0.8,0.7-1.3,0.9l0,0c0.6,0,1.2,0.3,1.6,0.8c0.4,0.4,0.6,1,0.6,1.6c0,0.8-0.3,1.6-0.9,2.1c-0.7,0.6-1.5,0.8-2.4,0.8
	L216.9,25.4z M218.4,16.8v2.9h1.1c0.5,0,1-0.1,1.4-0.4c0.3-0.3,0.5-0.7,0.5-1.2c0-0.9-0.6-1.3-1.8-1.3L218.4,16.8z M218.4,20.9v3.2
	h1.4c0.5,0,1-0.1,1.4-0.4c0.3-0.3,0.5-0.8,0.5-1.2c0-1-0.7-1.6-2.1-1.6L218.4,20.9z"/>
<path class="st1" d="M225.2,18.8c0.8-0.4,1.6-0.7,2.5-0.6c1.8,0,2.7,0.9,2.7,2.8v4.5h-1.5v-1.1l0,0c-0.7,1.2-2.3,1.6-3.5,0.9
	c-0.1-0.1-0.2-0.1-0.3-0.2c-0.4-0.4-0.6-0.9-0.6-1.5c0-1.3,0.8-2.1,2.4-2.3l2-0.3c0-1-0.5-1.6-1.4-1.6c-0.8,0-1.7,0.3-2.3,0.8
	L225.2,18.8z M227.4,22.1c-0.4,0-0.8,0.2-1.1,0.4c-0.2,0.2-0.3,0.5-0.3,0.8c0,0.3,0.1,0.6,0.3,0.8c0.2,0.2,0.5,0.3,0.9,0.3
	c0.5,0,0.9-0.2,1.2-0.5c0.3-0.4,0.5-0.8,0.5-1.3v-0.6L227.4,22.1z"/>
<path class="st1" d="M238.5,25.4H237v-4c0-1.3-0.5-2-1.5-2c-0.5,0-0.9,0.2-1.2,0.6c-0.3,0.4-0.5,0.9-0.5,1.4v4h-1.5v-7h1.5v1.2l0,0
	c0.4-0.8,1.3-1.3,2.3-1.3c1.6,0,2.4,1,2.4,2.9L238.5,25.4z"/>
<path class="st1" d="M246.8,25.4h-2L242,22l0,0v3.4h-1.5V15h1.5v6.6l0,0l2.7-3.2h1.9l-3,3.4L246.8,25.4z"/>
<circle class="st0" cx="277.3" cy="18.9" r="7.5"/>
<line class="st0" x1="280.8" y1="25.3" x2="283.8" y2="30.5"/>
</svg>
