<svg width="117" height="81" viewBox="0 0 117 81" fill="none" xmlns="http://www.w3.org/2000/svg">
<g clip-path="url(#clip0_1_2648)">
<g opacity="0.45">
<path d="M3.38955 33.1504L1.86424 44.3759C1.13648 62.3009 25.5514 77.8339 56.4064 79.0845C87.2615 80.335 112.863 66.8169 113.6 48.9018C113.61 48.6239 113.6 48.336 113.6 48.0581L115.146 36.6441" stroke="white" stroke-width="3.71" stroke-linecap="round" stroke-linejoin="round"/>
<path d="M115.148 36.6415C115.88 18.7206 91.4592 3.17959 60.6021 1.92961C29.745 0.679624 4.13669 14.194 3.40427 32.1149C2.67186 50.0358 27.0927 65.5768 57.9498 66.8268C88.8069 68.0768 114.415 54.5623 115.148 36.6415Z" stroke="white" stroke-width="3.71" stroke-linecap="round" stroke-linejoin="round"/>
<path d="M53.665 47.274C57.3437 45.7356 59.9556 43.3634 62.0691 40.892C63.6642 39.036 65.02 37.0708 66.1366 35.0461C69.7056 35.1751 73.2746 35.314 76.8437 35.453C79.1665 35.5522 81.4894 35.6515 83.8122 35.7507C84.191 38.5199 83.5729 41.3387 81.9081 43.7803C80.5323 45.805 84.869 47.532 86.6136 45.5767C89.1558 42.7183 90.392 39.433 90.3222 36.1081C91.987 36.2073 93.6519 36.2669 95.257 36.1775C98.3076 36.0088 99.0952 33.0908 95.8153 32.5052C93.8015 32.1479 91.6481 32.0089 89.5147 31.9097C89.1956 31.0462 88.7969 30.1827 88.2884 29.349C85.3375 24.4757 76.8636 17.7166 68.1404 21.1705C64.7309 22.5204 63.1857 25.0414 62.1688 27.4731C61.7401 28.5152 61.3314 29.5574 60.8927 30.5896C60.2348 30.5698 59.5868 30.5499 58.9288 30.5301C52.8973 30.3415 46.8759 30.2025 40.8444 30.1132C40.4456 30.1132 40.0469 30.1132 39.6481 30.1033C40.3858 27.9396 41.5722 25.8751 42.928 23.8107C44.5929 21.2797 39.3291 19.1656 37.076 21.5775C34.7532 24.0588 33.3275 27.086 32.6098 30.0239C32.221 30.0239 31.8322 30.0139 31.4334 30.0139C29.9878 30.004 28.5423 29.9941 27.0967 29.9941C25.3222 29.9941 23.6274 29.8651 22.0722 30.4804C20.2179 31.2149 20.2079 33.0709 22.1918 33.8252C23.767 34.4208 25.2125 34.3314 26.9372 34.3414C28.5024 34.3414 30.0676 34.3513 31.6328 34.3612C31.7424 34.3612 31.8621 34.3612 31.9717 34.3612C31.882 36.4257 32.1412 38.51 32.9687 40.5149C34.1749 43.4428 36.9265 46.2417 41.1236 47.671C45.211 49.0605 49.9065 48.8521 53.655 47.2839L53.665 47.274ZM71.0315 25.5178C73.5139 23.7809 77.2325 25.885 78.9671 27.354C80.4426 28.6046 81.5791 30.0239 82.3966 31.5226C80.7217 31.4233 79.0469 31.3241 77.3621 31.2447C74.2616 31.0859 71.1512 30.9469 68.0507 30.8377C68.6588 28.9817 69.1772 26.8279 71.0315 25.5277V25.5178ZM42.4495 42.7977C39.1496 40.6439 38.7309 37.309 38.8506 34.4108C39.3391 34.4108 39.8275 34.4108 40.316 34.4208C46.4671 34.5002 52.6082 34.6193 58.7593 34.7979C58.5599 35.1155 58.3605 35.4331 58.1412 35.7507C55.928 38.9268 49.3582 47.3037 42.4495 42.7977Z" fill="white"/>
</g>
</g>
<defs>
<clipPath id="clip0_1_2648">
<rect width="117" height="81" fill="white"/>
</clipPath>
</defs>
</svg>
