<svg version="1.1" id="圖層_1" xmlns="http://www.w3.org/2000/svg" x="0" y="0" viewBox="0 0 33 33" xml:space="preserve"><path d="M26.4 1.5H6.6c-2.8 0-5.1 2.3-5.1 5.1v19.7c0 2.8 2.3 5.1 5.1 5.1h19.7c2.8 0 5.1-2.3 5.1-5.1V6.6c.1-2.8-2.2-5.1-5-5.1zm-.9 8.8c-.3 3-1.5 10.2-2.1 13.5-.3 1.4-.8 1.9-1.3 1.9-1.1.1-1.9-.7-3-1.4-1.7-1.1-2.6-1.8-4.2-2.8-1.9-1.2-.7-1.9.4-3 .3-.3 5.1-4.7 5.2-5.1 0 0 0-.2-.1-.3-.1-.1-.3-.1-.4 0-.2 0-2.8 1.8-7.9 5.2-.8.5-1.4.8-2 .8-.7 0-2-.4-2.9-.7C6 18 5 17.8 5.1 17.1c0-.3.5-.7 1.4-1 5.5-2.4 9.1-4 11-4.7 5.2-2.2 6.3-2.6 7-2.6.2 0 .5 0 .7.2.2.2.2.4.3.5v.8z" fill="#fff"/></svg>