<svg version="1.1" id="圖層_1" xmlns="http://www.w3.org/2000/svg" xmlns:xlink="http://www.w3.org/1999/xlink" x="0" y="0" viewBox="0 0 454 95.6" xml:space="preserve"><defs><path id="SVGID_1_" d="M41.5 51.6L26.2 88.9c-.1.2-.1.3-.1.5 0 .5.3.9.7 1.2h.1c13.4 6.6 29.2 6.6 42.6 0 .4-.2.7-.7.7-1.2 0-.2 0-.3-.1-.5L54.9 52.1V52c-1.5-3.8-5.8-5.6-9.5-4.1-1.7.7-3.1 2-3.9 3.7M1.3 47.5c-.7 0-1.3.6-1.3 1.3.3 11.7 4.9 22.8 12.8 31.4.3.3.6.4 1 .4.5 0 1-.3 1.2-.8l12.5-30.5c.3-.7-.1-1.5-.8-1.7-.1-.1-.3-.1-.5-.1H1.3zm68.6 0c-.7 0-1.3.6-1.3 1.3 0 .2 0 .4.1.5l12.5 30.5c.3.7 1.1 1 1.8.7.2-.1.3-.2.4-.3 8-8.5 12.5-19.7 12.9-31.4v-.1c0-.7-.6-1.3-1.3-1.3l-25.1.1zM39.7.1C22.4 3.1 8.2 15.3 2.5 31.9c0 .1-.1.3-.1.4 0 .7.6 1.3 1.3 1.3h29.4c.5 0 .9-.4 1.1-.8l2.3-5.7c3-7.5 4.5-15.5 4.6-23.6V1.3c0-.7-.6-1.3-1.3-1.3l-.1.1m15.2 1.2v2.3c.1 8.1 1.6 16.1 4.6 23.6l2.3 5.6c.2.4.6.7 1 .8h29.6c.7 0 1.3-.6 1.3-1.3 0-.1 0-.3-.1-.4C88 15.3 73.8 3.1 56.5 0h-.2c-.7 0-1.3.6-1.4 1.3"/></defs><clipPath id="SVGID_00000157992205555689550260000000872098777483340978_"><use xlink:href="#SVGID_1_" overflow="visible"/></clipPath><g clip-path="url(#SVGID_00000157992205555689550260000000872098777483340978_)"><linearGradient id="SVGID_00000126306159412924853290000002008387955004021932_" gradientUnits="userSpaceOnUse" x1="-1204.388" y1="540.702" x2="-1203.018" y2="540.702" gradientTransform="matrix(0 70.05 70.05 0 -37828.102 84366.898)"><stop offset="0" stop-color="#004098"/><stop offset="1" stop-color="#00a0e9"/></linearGradient><path fill="url(#SVGID_00000126306159412924853290000002008387955004021932_)" d="M0 0h96.2v95.6H0z"/></g><path d="M137.4 11.8h60.4c.1 0 .1 0 .1-.1V5c0-.1 0-.1-.1-.1h-60.4c-.1 0-.1.1-.1.1v6.7l.1.1m62.3 46.6c0-.6-.5-1.1-1.1-1.1h-19.1c-1.2-.2-2.3-1-2.7-2.2-.1-.2-.1-.4-.1-.6V25.7h22.8s.1 0 .1-.1v-6.7s0-.1-.1-.1h-63.6c-.1 0-.1 0-.1.1v6.7c0 .1 0 .1.1.1h20l-19.6 36.7v.1c-.1.1-.1.3-.1.4 0 .6.5 1.1 1.1 1.1h6.4s20.5-38.2 20.5-38.3h5.2v28.6c-.1 5.3 4.1 9.6 9.3 9.8h14.5c3.2 0 5.9-2.3 6.5-5.4v-.3m85.5-38.5c0-.6-.5-1.1-1.1-1.1h-29.9V3.2c0-.1 0-.1-.1-.1H247c-.1 0-.1.1-.1.1v15.6h-27.5s-.1 0-.1.1v6.7c0 .1 0 .1.1.1h25.5c-.2.3-21.2 29.4-26.4 36.6l-.1.1c-.1.2-.1.4-.1.5 0 .6.5 1.1 1.1 1.1h6.5l22.7-31.2c.7-1.2 2.3-1.6 3.5-.8.4.2.7.5.9.9L275.5 64h6.5c.6 0 1.1-.5 1.1-1.1 0-.2-.1-.5-.2-.7-5.3-7.3-26.2-36.3-26.4-36.6h22c3.3 0 6.1-2.3 6.7-5.6v-.1m82.5 22.4c.4-.4.5-1.2 0-1.6-.2-.2-.5-.3-.8-.3h-6l-3.8 4.1-5.3-9h9.3c1.9 0 3.8-.7 5.2-2.1 1.5-1.3 2.3-3.2 2.3-5.2v-16c0-2-.8-3.9-2.3-5.2-1.4-1.3-3.3-2.1-5.2-2.1h-25.4c-.1 0-.1 0-.1.1v58.9h6.6c.6 0 1.3-.1 1.9-.2 3.4-.6 6.8-3.9 6.8-3.9.2-.2.8-.8 3.6-3.8l1-1 5.2 8.9h6c.6 0 1.1-.5 1.1-1.1 0-.2-.1-.4-.2-.6l-7.3-12.4 7.4-7.5zm-25.5-31.1h18.9c.3 0 .5.1.7.3s.3.4.3.7v5.1h-19.8v-6.1h-.1zm0 12.2H362v4.8c0 .3-.1.5-.3.7-.2.2-.4.3-.7.3h-18.9v-5.8h.1zm0 36.8V35.5h1.7l8.3 14.2-10 10.5zM334 28.3l-4.7-18.4c0-.2-.1-.3-.1-.5l-.1-.4v-.1c-1-2.4-3.3-4-5.9-4h-17.5v6.4l-4.3 16.9v.3c0 .6.5 1.1 1.1 1.1h5s.1 0 .1-.1l1.2-4.7h5.6v9.7H305c-.1 0-.1 0-.1.1v6.1c0 .1.1.1.1.1h9.4v16.9h-.5l-2.8-11.2s0-.1-.1-.1h-4.7c-.6 0-1.1.5-1.1 1.1v.3l2.5 9.9h-3.8c-.1 0-.1 0-.1.1v6c0 .1 0 .1.1.1H326c3 .1 5.6-2 6.3-4.9v-.2c0-.6-.5-1.1-1.1-1.1h-3.5l2.5-9.9v-.3c0-.6-.5-1.1-1.1-1.1h-4.7s-.1 0-.1.1l-2.8 11.2h-.5V40.9h9.5c.1 0 .1 0 .1-.1v-6.1c0-.1 0-.1-.1-.1H321v-9.7h5.6l1.2 4.7s0 .1.1.1h5c.6 0 1.1-.5 1.1-1.1v-.3zm-23.7-9.8l1.8-7.1h11l1.8 7.1h-14.6zm100.8-6.7h41.3c.1 0 .1 0 .1-.1V5.5c0-.1 0-.1-.1-.1h-41.3c-.1 0-.1 0-.1.1v6.2c0 .1.1.1.1.1m-25.7 13.5h6.1c3.2-3.9 10.8-13 15.6-18.7v-.1c.1-.2.2-.4.2-.6 0-.6-.5-1.1-1.1-1.1H400l-15.5 18.8c-.2.2-.3.5-.3.7 0 .5.5 1 1.2 1m21.3-5.3h-6.2L385 38.7c-.2.2-.3.5-.3.7 0 .6.5 1.1 1.1 1.1h6.1l3-3.6v26.9c0 .1 0 .1.1.1h6.5s.1 0 .1-.1v-35l5.9-7.1c.1-.2.2-.4.2-.7.2-.5-.3-1-1-1m47 1.1c0-.6-.5-1.1-1.1-1.1h-41.4c-.1 0-.1 0-.1.1v6.3h25.5v30.7c0 .6-.5.9-1.4.9h-12c-.6 0-1.1.5-1.1 1.1v.2c.7 2.9 3.3 4.9 6.3 4.9h7.2c2 0 3.9-.8 5.4-2.1 1.5-1.4 2.3-3.3 2.2-5.3V26.5h4.1c3.1 0 5.7-2.1 6.3-5.1 0-.1 0-.2.1-.3" fill="#005bac"/><path d="M178.2 90.2c-2.2 0-4.2-.7-5.6-1.9-1.2-1.1-1.9-2.5-1.9-4 0-1.6.6-2.8 1.9-3.9 1.5-1.3 3.4-1.9 5.6-1.9 2.1 0 3.9.7 5.1 1.9l.4.5V79h2.8v10.9h-2.8v-.1c0-.5-.4-.8-.9-.8-.1 0-.3 0-.4.1-1.1.7-2.7 1.1-4.2 1.1zm.7-2.1c1.6 0 2.9-.5 3.8-1.4.6-.6.9-1.4.9-2.3 0-.8-.3-1.6-.9-2.3-.9-.9-2.2-1.4-3.8-1.4h-.1c-1.6 0-3 .5-3.9 1.5-.6.7-1 1.5-1 2.3 0 .8.3 1.5.9 2.1.9.9 2.4 1.5 3.9 1.5h.2zm43.2 2.1c-2.2 0-4.2-.7-5.6-1.9-1.2-1.1-1.9-2.5-1.9-4 0-1.6.6-2.8 1.9-3.9 1.5-1.3 3.4-1.9 5.6-1.9 2.1 0 3.9.7 5.1 1.9l.4.5V79h2.8v10.9h-2.8v-.1c0-.5-.4-.8-.9-.8-.1 0-.3 0-.4.1-1 .7-2.6 1.1-4.2 1.1zm.8-2.1c1.6 0 2.9-.5 3.8-1.4.6-.6.9-1.4.9-2.3 0-.8-.3-1.6-.9-2.3-.9-.9-2.2-1.4-3.8-1.4h-.1c-1.6 0-3 .5-3.9 1.5-.6.7-1 1.5-1 2.3 0 .8.3 1.5.9 2.1.9.9 2.4 1.5 3.9 1.5h.2zm-62.5 2.1c-2 0-3.5-.5-4.9-1.5-1-.8-1.6-2.1-1.6-3.6V79h3.1v5.3c0 .9.1 1.8.6 2.5.6.8 1.8 1.3 3.2 1.3 3.9 0 3.9-2.9 3.9-3.8V79h3.1v10.9H165c0-.4-.3-.8-.7-.8-.1 0-.2 0-.4.1-.9.9-2.4 1-3.5 1zm40.3-.3s0-.1 0 0v-5.4c0-.9-.1-1.8-.6-2.5-.6-.8-1.8-1.3-3.2-1.3-3.9 0-3.9 2.9-3.9 3.8v5.3h-3.1V79h2.8c0 .4.3.8.7.8.1 0 .2 0 .4-.1 1.2-.9 2.7-1.1 3.7-1.1 2 0 3.5.5 4.9 1.5 1 .8 1.6 2.1 1.6 3.6v6.2h-3.3zm7.3 0s0-.1 0 0v-9.1h-1.8V79h1.8v-3.8h3.1V79h2.2v1.8h-2.2v9H208zm-65 0s0-.1 0 0v-5.5l-7-8.7v-.3c0-.2.1-.3.3-.4h3.4c.2.3 2.4 2.9 4 4.9.3.4.8.6 1.3.6s.9-.2 1.2-.5c.6-.7 3.8-4.7 4.1-5h3.4c.2 0 .3.2.3.4 0 .1 0 .1-.1.2l-7 8.7v5.4H143zm127.1.4c-2.2 0-4.2-.7-5.6-1.9-1.2-1.1-1.9-2.5-1.9-4 0-1.6.6-2.8 1.9-3.9 1.5-1.3 3.4-1.9 5.6-1.9 2.1 0 3.9.7 5.1 1.9l.4.5v-2h2.8v10.9h-2.8v-.1c0-.5-.4-.8-.9-.8-.1 0-.3 0-.4.1-1 .7-2.7 1.2-4.2 1.2zm.7-9.6c-1.6 0-3 .5-3.9 1.5-.6.7-1 1.5-1 2.3 0 .8.3 1.5.9 2.1.9.9 2.4 1.5 3.9 1.5h.1c1.6 0 2.9-.5 3.8-1.4.6-.6.9-1.4.9-2.3 0-.8-.3-1.6-.9-2.3-.9-.9-2.2-1.4-3.8-1.4zm21.8 9.2c-.1 0-.1-.1 0 0v-5.4c0-.9-.1-1.8-.6-2.5-.6-.8-1.8-1.3-3.2-1.3-3.9 0-3.9 2.9-3.9 3.8v5.3h-3.1V79h2.7c0 .4.3.8.7.8.1 0 .2 0 .4-.1 1.2-.9 2.7-1.1 3.7-1.1 2 0 3.5.5 4.9 1.5 1 .8 1.6 2.1 1.6 3.6v6.2h-3.2zm-44.7 0h-2.3v-11c0-1.5 1-2.4 1.4-2.8.8-.6 1.6-1 3.3-1h4.4c3.5 0 5.6 1.4 5.6 3.7 0 1.2-.9 2.4-2.3 3.2 1.7.8 2.7 2.1 2.7 3.6 0 1.3-.6 2.5-1.7 3.2-1 .7-2.5 1.2-4.2 1.2h-6.9zm1.3-2.5h5.6c1.7-.1 2.9-1 2.9-2.1s-1.2-1.9-2.9-2h-5.6v4.1zm5.7-6.8c1.5-.1 2.7-.8 2.7-1.7 0-1-.9-1.6-2.6-1.7h-4.5c-.6.1-1.1.5-1.2 1.2v2.2h5.6zm43.7 9.3c-.1 0-.1-.1 0 0V74.6h3.1V84l6.5-5.5h4c.2 0 .4.2.4.4 0 .1 0 .2-.1.3 0 0-4.4 3.8-5 4.2-.2.2-.3.5-.3.8 0 .3.1.5.3.7l5 4.4c.1.1.1.2.1.3 0 .2-.2.4-.4.4h-4l-4.8-4.2c-.2-.2-.4-.2-.6-.2-.5 0-1 .4-1 1V90h-3.2z" fill="#005bab"/></svg>