<?xml version="1.0" encoding="utf-8"?>
<!-- Generator: Adobe Illustrator 28.3.0, SVG Export Plug-In . SVG Version: 6.00 Build 0)  -->
<svg version="1.1" id="Capa_1" xmlns="http://www.w3.org/2000/svg" xmlns:xlink="http://www.w3.org/1999/xlink" x="0px" y="0px"
	 viewBox="0 0 200 165" style="enable-background:new 0 0 200 165;" xml:space="preserve">
<style type="text/css">
	.st0{fill-rule:evenodd;clip-rule:evenodd;fill:#ECEAEC;}
	.st1{fill-rule:evenodd;clip-rule:evenodd;fill:#9FD4FE;}
	.st2{fill-rule:evenodd;clip-rule:evenodd;fill:#FFE07D;}
	.st3{fill-rule:evenodd;clip-rule:evenodd;fill:#B6B1B7;}
	.st4{fill-rule:evenodd;clip-rule:evenodd;fill:#DAD8DB;}
	.st5{fill-rule:evenodd;clip-rule:evenodd;fill:#FFC269;}
</style>
<g>
	<g>
		<path class="st0" d="M44.1,59.3v31.3h110.5V59.3L99.3,27.4L44.1,59.3z"/>
	</g>
	<g>
		<path class="st1" d="M36.1,63.2c1.4,2.4,4.5,3.3,6.9,1.9l1.1-0.6l55.2-31.9l55.2,31.9l1.1,0.6c2.4,1.4,5.5,0.5,6.9-1.9
			c1.4-2.4,0.5-5.5-1.9-6.9l-58.6-33.8c-0.8-0.5-1.8-0.7-2.8-0.7c-1,0-2,0.2-2.8,0.7L37.9,56.3C35.6,57.7,34.7,60.8,36.1,63.2
			L36.1,63.2z"/>
	</g>
	<g>
		<path class="st1" d="M42.6,100h27.7h15.1h27.8h15.1h27.8h6c0.7,0,1.2-0.5,1.2-1.2v-7.1c0-0.7-0.5-1.2-1.2-1.2h-7.5H44.1h-7.5
			c-0.7,0-1.2,0.5-1.2,1.2v7.1c0,0.7,0.5,1.2,1.2,1.2H42.6z"/>
	</g>
	<g>
		<path class="st0" d="M48,108.4h17h4.3c0.6,0,1.1-0.5,1.1-1.1V100H42.6v7.3c0,0.6,0.5,1.1,1.1,1.1H48z"/>
	</g>
	<g>
		<path class="st0" d="M90.8,108.4h17h4.3c0.6,0,1.1-0.5,1.1-1.1V100H85.4v7.3c0,0.6,0.5,1.1,1.1,1.1H90.8z"/>
	</g>
	<g>
		<path class="st0" d="M129.5,108.4h4.3h17h4.3c0.6,0,1.1-0.5,1.1-1.1V100h-27.8v7.3C128.3,107.9,128.9,108.4,129.5,108.4z"/>
	</g>
	<g>
		<path class="st2" d="M133.7,108.4h17v22.7h-17V108.4z"/>
	</g>
	<g>
		<path class="st2" d="M90.8,108.4h17v22.7h-17V108.4z"/>
	</g>
	<g>
		<path class="st2" d="M48,108.4h17v22.7H48C48,131.1,48,108.4,48,108.4z"/>
	</g>
	<g>
		<path class="st0" d="M42.6,139.5h27.7v-7.3c0-0.6-0.5-1.1-1.1-1.1H65H48h-4.3c-0.6,0-1.1,0.5-1.1,1.1L42.6,139.5z"/>
	</g>
	<g>
		<path class="st0" d="M128.3,139.5h27.8v-7.3c0-0.6-0.5-1.1-1.1-1.1h-4.3h-17h-4.3c-0.6,0-1.1,0.5-1.1,1.1L128.3,139.5L128.3,139.5
			z"/>
	</g>
	<g>
		<path class="st0" d="M85.5,139.5h27.8v-7.3c0-0.6-0.5-1.1-1.1-1.1h-4.3h-17h-4.3c-0.6,0-1.1,0.5-1.1,1.1L85.5,139.5L85.5,139.5z"
			/>
	</g>
	<g>
		<path class="st1" d="M36.6,148.9h125.4c0.7,0,1.2-0.5,1.2-1.2v-7.1c0-0.7-0.5-1.2-1.2-1.2h-6h-27.8h-15.1H85.4H70.3H42.6h-5.9
			c-0.7,0-1.2,0.5-1.2,1.2v7.1C35.5,148.3,36,148.9,36.6,148.9L36.6,148.9z"/>
	</g>
	<g>
		<path class="st2" d="M93.4,50.1c0,3.4,2.7,6.2,6.2,6.2c3.4,0,6.2-2.7,6.2-6.2c0-3.4-2.8-6.2-6.2-6.2
			C96.2,43.9,93.4,46.7,93.4,50.1z"/>
	</g>
	<g>
		<path class="st3" d="M65,108.4v22.7h4.3c0.6,0,1.1,0.5,1.1,1.1v7.3h15.1v-7.3c0-0.6,0.5-1.1,1.1-1.1h4.3v-22.7h-4.3
			c-0.6,0-1.1-0.5-1.1-1.1V100H70.4v7.3c0,0.6-0.5,1.1-1.1,1.1H65z"/>
	</g>
	<g>
		<path class="st3" d="M107.8,108.4v22.7h4.3c0.6,0,1.1,0.5,1.1,1.1v7.3h15.1v-7.3c0-0.6,0.5-1.1,1.1-1.1h4.3v-22.7h-4.3
			c-0.6,0-1.1-0.5-1.1-1.1V100h-15.1v7.3c0,0.6-0.5,1.1-1.1,1.1H107.8z"/>
	</g>
	<g>
		<path class="st4" d="M99.3,32.5L44.1,64.4v7.2l55.2-31.9l55.2,31.9v-7.2L99.3,32.5z"/>
	</g>
	<g>
		<path class="st5" d="M99.6,43.9c-3.4,0-6.2,2.7-6.2,6.2c0,0.7,0.1,1.4,0.3,2c0.9-2.3,3.2-3.8,5.7-3.8c2.7,0,5,1.8,5.8,4.2
			c0.3-0.7,0.4-1.5,0.4-2.3C105.8,46.7,103,43.9,99.6,43.9z"/>
	</g>
	<g>
		<path class="st5" d="M48,108.4h17v6.2H48C48,114.5,48,108.4,48,108.4z"/>
	</g>
	<g>
		<path class="st5" d="M90.8,108.4h17v6.2h-17V108.4z"/>
	</g>
	<g>
		<path class="st5" d="M133.7,108.4h17v6.2h-17V108.4z"/>
	</g>
	<g>
		<path class="st4" d="M42.6,100h27.7v4.5H42.6V100z"/>
	</g>
	<g>
		<path class="st4" d="M85.5,100h27.8v4.5H85.5L85.5,100L85.5,100z"/>
	</g>
	<g>
		<path class="st4" d="M128.3,100h27.8v4.5h-27.8L128.3,100L128.3,100z"/>
	</g>
	<g>
		<path d="M155,110.3c1.7,0,3.1-1.4,3.1-3.1v-5.4h4c1.7,0,3.1-1.4,3.1-3.1v-7.1c0-1.7-1.4-3.1-3.1-3.1h-5.5V67.4
			c0.5,0.1,1.1,0.2,1.6,0.2c0.6,0,1.2-0.1,1.8-0.3c1.8-0.5,3.3-1.6,4.2-3.3c0.9-1.6,1.2-3.5,0.7-5.3c-0.5-1.8-1.6-3.3-3.3-4.3
			l-58.6-33.8c-1.1-0.6-2.4-1-3.7-1c-1.4,0-2.7,0.3-3.7,1L37,54.6c-3.3,1.9-4.5,6.2-2.6,9.5c0.9,1.6,2.5,2.8,4.3,3.3
			c1.2,0.3,2.3,0.3,3.5,0v21.2h-5.5c-1.7,0-3.1,1.4-3.1,3.1v7.1c0,1.7,1.4,3.1,3.1,3.1h4v5.4c0,1.7,1.4,3.1,3.1,3.1H46v18.8h-2.3
			c-1.7,0-3.1,1.4-3.1,3.1v5.3h-4c-1.7,0-3.1,1.4-3.1,3.1v7.1c0,1.7,1.4,3.1,3.1,3.1h58.7c1.1,0,1.9-0.9,1.9-1.9
			c0-1.1-0.9-1.9-1.9-1.9h-58v-5.6h124v5.6h-57.1c-1.1,0-1.9,0.9-1.9,1.9c0,1.1,0.9,1.9,1.9,1.9h57.8c1.7,0,3.1-1.4,3.1-3.1v-7.1
			c0-1.7-1.4-3.1-3.1-3.1h-4v-5.3c0-1.7-1.4-3.1-3.1-3.1h-2.3v-18.8H155L155,110.3z M42.1,63.3c-0.7,0.4-1.6,0.5-2.4,0.3
			c-0.8-0.2-1.5-0.7-1.9-1.5l0,0c-0.9-1.5-0.3-3.4,1.1-4.3L97.5,24c0.5-0.3,1.1-0.4,1.8-0.4c0.7,0,1.3,0.1,1.8,0.4l58.6,33.8
			c0.7,0.4,1.2,1.1,1.5,1.9c0.2,0.8,0.1,1.6-0.3,2.4c-0.4,0.7-1.1,1.2-1.9,1.5c-0.8,0.2-1.6,0.1-2.4-0.3l-56.3-32.5
			c-0.3-0.2-0.6-0.3-1-0.3s-0.7,0.1-1,0.3L42.1,63.3z M37.4,92.5h58c1.1,0,1.9-0.9,1.9-1.9c0-1.1-0.9-1.9-1.9-1.9H46V65.5l53.3-30.8
			l53.3,30.8v23.1h-48.8c-1.1,0-1.9,0.9-1.9,1.9c0,1.1,0.9,1.9,1.9,1.9h57.4v5.6h-124V92.5z M87.4,106.4v-4.5h23.9v4.5H87.4z
			 M105.9,110.3v18.8H92.8v-18.8H105.9z M44.5,106.4v-4.5h23.9v4.5H44.5z M63,110.3v18.8H49.9v-18.8H63z M68.4,137.5H44.5V133h23.9
			V137.5z M83.5,132.2v5.3H72.3v-5.3c0-1.7-1.4-3.1-3.1-3.1h-2.3v-18.8h2.3c1.7,0,3.1-1.4,3.1-3.1v-5.4h11.3v5.4
			c0,1.7,1.4,3.1,3.1,3.1h2.3v18.8h-2.3C84.9,129.1,83.5,130.5,83.5,132.2z M111.3,137.5H87.4V133h23.9V137.5z M126.4,132.2v5.3
			h-11.3v-5.3c0-1.7-1.4-3.1-3.1-3.1h-2.3v-18.8h2.3c1.7,0,3.1-1.4,3.1-3.1v-5.4h11.3v5.4c0,1.7,1.4,3.1,3.1,3.1h2.3v18.8h-2.3
			C127.8,129.1,126.4,130.5,126.4,132.2z M154.2,133v4.5h-23.9V133H154.2z M135.7,129.1v-18.8h13.1v18.8H135.7z M130.2,106.4v-4.5
			h23.9v4.5H130.2z"/>
		<path d="M107.7,50.1c0-4.5-3.6-8.1-8.1-8.1c-4.5,0-8.1,3.6-8.1,8.1s3.6,8.1,8.1,8.1S107.7,54.5,107.7,50.1z M95.4,50.1
			c0-2.3,1.9-4.3,4.3-4.3s4.3,1.9,4.3,4.3s-1.9,4.3-4.3,4.3S95.4,52.4,95.4,50.1z"/>
		<g>
			<path d="M76.1,72.2c0.5-0.8,0.8-1.8,0.8-2.9c0-3-2.4-5.4-5.4-5.4h-4.4c-1.1,0-1.9,0.9-1.9,1.9v6.9l0,0v8.1c0,0.5,0.2,1,0.5,1.4
				c0.4,0.4,0.8,0.5,1.4,0.5l0,0c0,0,4,0,5.1,0c3.3,0,6-2.7,6-6C78.3,75,77.4,73.3,76.1,72.2z M71.6,67.9c0.8,0,1.5,0.7,1.5,1.5
				c0,0.8-0.7,1.5-1.5,1.5c-0.3,0-2.4,0-2.4,0v-3L71.6,67.9L71.6,67.9z M72.3,79c-0.6,0-2,0-3.2,0v-4.2c0.3,0,3.2,0,3.2,0
				c1.2,0,2.1,1,2.1,2.1C74.4,78,73.5,79,72.3,79z"/>
			<path d="M91.6,65.5C91.6,65.5,91.6,65.4,91.6,65.5c-0.4-0.9-1.2-1.4-2.1-1.4l0,0c-0.9,0-1.8,0.5-2.1,1.4v0l-5.6,14.8
				c-0.4,1,0.1,2.1,1.1,2.5c1,0.4,2.1-0.1,2.5-1.1l0.9-2.4h6.4l0.9,2.4c0.3,0.8,1,1.2,1.8,1.2c0.2,0,0.4,0,0.7-0.1
				c1-0.4,1.5-1.5,1.1-2.5L91.6,65.5z M87.8,75.3l1.7-4.5l1.7,4.5H87.8z"/>
			<path d="M113.6,64L113.6,64c-1.1,0-1.9,0.9-1.9,1.9l0.1,8.9l-6.9-10c-0.5-0.7-1.4-1-2.2-0.7c-0.8,0.3-1.4,1-1.4,1.8v15
				c0,1.1,0.9,1.9,1.9,1.9s1.9-0.9,1.9-1.9v-8.7l6.6,9.5c0.5,0.8,1.5,1.2,2.4,0.9c0.9-0.3,1.5-1.1,1.5-2.2l-0.1-14.5
				C115.5,64.9,114.7,64,113.6,64z"/>
			<path d="M133.3,79.5l-6.7-6.5l6.2-5.7c0.8-0.7,0.8-1.9,0.1-2.7c-0.7-0.8-1.9-0.8-2.7-0.1l-4.9,4.5v-3.3c0-1.1-0.9-1.9-1.9-1.9
				s-1.9,0.9-1.9,1.9v15.2c0,1.1,0.9,1.9,1.9,1.9s1.9-0.9,1.9-1.9v-3.8l5.4,5.2c0.4,0.4,0.8,0.5,1.4,0.5c0.5,0,1-0.2,1.4-0.6
				C134.1,81.5,134.1,80.3,133.3,79.5L133.3,79.5z"/>
		</g>
	</g>
</g>
</svg>
