<svg width="200" height="165" viewBox="0 0 200 165" fill="none" xmlns="http://www.w3.org/2000/svg"><path d="M99.832 68.329h-6.688a3.828 3.828 0 01-3.829-3.829v-3.828h14.322V64.5a3.778 3.778 0 01-3.805 3.829z" fill="#FD8087"/><path d="M77.247 55.296L50.176 82.367l5.397 5.398 27.072-27.072-5.398-5.397z" fill="#C5D3DD"/><path d="M56.678 85.063h-7.633v15.763h7.633V85.063z" fill="#C5D3DD"/><path d="M56.702 100.824h-7.657v5.719c0 1.064.85 1.915 1.914 1.915h3.829a1.907 1.907 0 001.914-1.915v-5.719z" fill="#FD8087"/><path d="M52.874 77.428a7.63 7.63 0 017.633 7.633c0 4.207-3.427 7.657-7.633 7.657-4.207 0-7.634-3.427-7.634-7.633 0-4.207 3.403-7.657 7.634-7.657z" fill="#9FACBA"/><path d="M115.729 55.29l-5.398 5.398 13.502 13.502 5.398-5.398-13.502-13.502z" fill="#C5D3DD"/><path d="M130.366 71.496h-7.634V87.26h7.634V71.496z" fill="#C5D3DD"/><path d="M122.733 87.26h7.633v5.719a1.906 1.906 0 01-1.914 1.914h-3.829a1.906 1.906 0 01-1.914-1.914v-5.72h.024z" fill="#FD8087"/><path d="M126.561 63.863a7.63 7.63 0 017.634 7.634c0 4.206-3.427 7.633-7.634 7.633a7.63 7.63 0 01-7.633-7.633 7.63 7.63 0 017.633-7.634z" fill="#9FACBA"/><path d="M145.68 128.971h-8.602l-3.569-16.78a7.155 7.155 0 00-6.995-5.671H77.357a7.187 7.187 0 00-6.593 4.348l-7.704 18.079-21.388 4.065a4.789 4.789 0 00-3.9 4.703v17.535h7.634c0-7.255 5.884-13.139 13.14-13.139 7.255 0 13.14 5.884 13.14 13.139h49.652c0-7.255 5.885-13.139 13.14-13.139 7.255 0 13.14 5.884 13.14 13.139h7.633v-16.708c-.023-5.294-4.301-9.571-9.571-9.571zm-44.406-2.387a2.381 2.381 0 01-2.387 2.387H74.474c-1.701 0-2.86-1.749-2.198-3.333l4.467-10.492a2.38 2.38 0 012.198-1.442h19.946a2.38 2.38 0 012.387 2.387v10.493zm25.547 2.387h-15.527a2.381 2.381 0 01-2.387-2.387v-10.493a2.38 2.38 0 012.387-2.387h13.282c1.134 0 2.103.78 2.339 1.891l2.246 10.493a2.396 2.396 0 01-2.34 2.883z" fill="#D4F7FC"/><path d="M145.679 128.971h-8.602l-3.568-16.78a7.156 7.156 0 00-6.996-5.671h-12.832c.449 2.339.709 4.726.827 7.16h10.067a2.38 2.38 0 012.34 1.891l2.245 10.493a2.395 2.395 0 01-2.339 2.883h-13.897c-2.717 10.422-8.626 19.544-16.614 26.256h25.051c0-7.255 5.885-13.14 13.14-13.14 7.255 0 13.14 5.885 13.14 13.14h7.633v-16.708c-.047-5.247-4.324-9.524-9.595-9.524z" fill="#B8E9F2"/><path d="M153.313 45.407H39.687a1.906 1.906 0 01-1.914-1.914v-3.805c0-1.064.85-1.915 1.914-1.915h113.626c1.064 0 1.915.851 1.915 1.915v3.828c0 1.04-.851 1.89-1.915 1.89z" fill="#C5D3DD"/><path d="M120.369 60.697H72.631a2.38 2.38 0 01-2.387-2.387V47.793a2.38 2.38 0 012.387-2.387h47.738a2.38 2.38 0 012.387 2.387v10.493a2.385 2.385 0 01-2.387 2.41z" fill="#9FACBA"/><path d="M120.369 45.406h-7.161a2.38 2.38 0 012.387 2.387v10.493a2.38 2.38 0 01-2.387 2.387h7.161a2.38 2.38 0 002.387-2.387V47.793a2.38 2.38 0 00-2.387-2.387z" fill="#8D9CA8"/><path d="M108.907 53.04H84.093a1.906 1.906 0 01-1.914-1.915v-3.804c0-1.064.85-1.915 1.914-1.915h24.838c1.064 0 1.914.851 1.914 1.915v3.828a1.937 1.937 0 01-1.938 1.89z" fill="#FFD15B"/><path d="M153.313 37.773h-7.633c1.063 0 1.914.851 1.914 1.915v3.828a1.906 1.906 0 01-1.914 1.915h7.633a1.906 1.906 0 001.914-1.915v-3.828c0-1.064-.85-1.915-1.914-1.915z" fill="#B6C4CF"/><path d="M130.035 129.207c.804-.969 1.087-2.245.827-3.474l-2.245-10.516c-.402-1.915-2.127-3.285-4.065-3.285h-13.281a4.166 4.166 0 00-4.16 4.159v10.493a4.166 4.166 0 004.16 4.159h15.526a4.137 4.137 0 003.238-1.536zm-19.355-2.623v-10.493c0-.331.283-.614.614-.614h13.282c.284 0 .544.212.591.496l2.245 10.493a.633.633 0 01-.118.52.568.568 0 01-.473.236h-15.527c-.331-.024-.614-.307-.614-.638z" fill="#000"/><path d="M145.68 127.199h-7.161l-3.261-15.361c-.875-4.112-4.538-7.066-8.744-7.066h-18.718c-.968 0-1.772.803-1.772 1.772s.804 1.773 1.772 1.773h18.718a5.41 5.41 0 015.27 4.277l3.568 16.779a1.747 1.747 0 001.726 1.395h8.602c4.277 0 7.775 3.497 7.775 7.775v14.912h-4.207c-.874-7.373-7.184-13.14-14.794-13.14-7.609 0-13.919 5.743-14.794 13.14H73.34c-.875-7.373-7.184-13.14-14.794-13.14s-13.92 5.743-14.794 13.14h-4.207v-15.763a3.013 3.013 0 012.458-2.954l21.411-4.041a1.771 1.771 0 001.3-1.04l7.68-18.079a5.396 5.396 0 014.963-3.285h22.168c.969 0 1.772-.804 1.772-1.772 0-.969-.803-1.773-1.772-1.773H77.357a8.9 8.9 0 00-8.224 5.436l-7.326 17.204-20.49 3.876A6.557 6.557 0 0036 137.692v17.536c0 .969.803 1.772 1.773 1.772h7.633c.969 0 1.772-.803 1.772-1.772 0-6.263 5.105-11.368 11.368-11.368 6.262 0 11.367 5.105 11.367 11.368 0 .969.804 1.772 1.773 1.772h49.652c.969 0 1.773-.803 1.773-1.772 0-6.263 5.104-11.368 11.367-11.368 6.263 0 11.367 5.105 11.367 11.368 0 .969.804 1.772 1.773 1.772h7.633c.969 0 1.773-.803 1.773-1.772v-16.709c-.024-6.239-5.105-11.32-11.344-11.32z" fill="#000"/><path d="M103.046 126.584v-10.493a4.165 4.165 0 00-4.16-4.159H78.94a4.155 4.155 0 00-3.828 2.528l-4.467 10.517A4.2 4.2 0 0071 128.9a4.2 4.2 0 003.474 1.867h24.412c2.293-.024 4.16-1.891 4.16-4.183zm-3.545 0a.625.625 0 01-.615.614H74.475a.594.594 0 01-.52-.283c-.071-.095-.166-.307-.047-.591l4.466-10.493a.615.615 0 01.567-.378h19.947c.33 0 .614.284.614.614v10.517zM153.313 36h-21.175c-.969 0-1.772.803-1.772 1.773 0 .968.803 1.772 1.772 1.772h21.175c.071 0 .142.07.142.142v3.828a.153.153 0 01-.142.142H39.687a.152.152 0 01-.142-.142v-3.828c0-.071.07-.142.142-.142h84.203c.969 0 1.773-.804 1.773-1.773 0-.968-.804-1.772-1.796-1.772h-84.18A3.691 3.691 0 0036 39.687v3.828a3.691 3.691 0 003.687 3.687H54.74l-.756.756a9.833 9.833 0 00-2.907 6.995v20.892a9.411 9.411 0 00-7.634 9.24 9.386 9.386 0 003.829 7.563v13.92a3.691 3.691 0 003.687 3.686h.141v2.694c0 .969.804 1.773 1.773 1.773.969 0 1.772-.804 1.772-1.773v-2.694h.142a3.691 3.691 0 003.687-3.686v-13.92c2.316-1.725 3.828-4.467 3.828-7.563 0-.472-.047-.945-.094-1.394l5.435-5.436a1.783 1.783 0 000-2.505 1.783 1.783 0 00-2.505 0l-4.324 4.278a9.154 9.154 0 00-2.907-2.883l14.676-14.676h5.79l-7.421 7.42a1.783 1.783 0 000 2.505c.354.355.803.52 1.252.52.45 0 .898-.165 1.253-.52l9.926-9.925h4.183v2.056c0 3.072 2.505 5.6 5.6 5.6h6.689c3.072 0 5.601-2.504 5.601-5.6v-2.056h4.183l7.633 7.633a9.01 9.01 0 00-.094 1.394c0 3.096 1.512 5.838 3.828 7.563v13.92a3.692 3.692 0 003.687 3.686h.142v2.695c0 .969.803 1.772 1.772 1.772s1.773-.803 1.773-1.772v-2.695h.141a3.691 3.691 0 003.687-3.686v-13.92a9.342 9.342 0 003.64-5.79h3.994c4.844 0 8.791-3.947 8.791-8.791v-17.3h4.727a3.691 3.691 0 003.686-3.686v-3.805C157 37.654 155.346 36 153.313 36zM72.631 58.924a.626.626 0 01-.615-.615V47.793a.61.61 0 01.615-.615h7.799v3.971a3.691 3.691 0 003.686 3.686h24.838a3.691 3.691 0 003.687-3.686v-3.971h7.799c.331 0 .614.284.614.615v10.493c0 .33-.283.614-.614.614H72.63v.024zm36.418-11.604v3.829c0 .07-.071.141-.142.141H84.093a.152.152 0 01-.142-.141V47.32c0-.07.047-.142.142-.142h24.838c.071 0 .118.071.118.142zm15.432-.142h9.879v1.513a2.582 2.582 0 01-2.576 2.576h-7.279v-3.474c.024-.213 0-.402-.024-.615zM56.513 50.44l3.262-3.262h8.767c-.023.19-.047.402-.047.615v10.493c0 .921.307 1.772.804 2.458l-14.63 14.628V54.93c-.023-1.702.639-3.285 1.844-4.49zm-1.607 56.128c0 .07-.07.141-.142.141H50.96c-.071 0-.142-.071-.142-.141v-3.947h4.088v3.947zm.024-7.516h-4.112v-4.797a9.786 9.786 0 002.056.236c.709 0 1.394-.07 2.056-.236v4.797zm-2.056-8.106a5.86 5.86 0 01-5.861-5.86 5.86 5.86 0 015.86-5.862 5.86 5.86 0 015.862 5.861c0 3.214-2.623 5.861-5.861 5.861zm49.014-26.445a2.057 2.057 0 01-2.056 2.056h-6.688a2.058 2.058 0 01-2.056-2.056V62.47h10.777l.023 2.032zm12.738-2.032h5.79l1.088 1.087a9.463 9.463 0 00-2.907 2.907l-3.971-3.994zm13.967 30.51c0 .07-.071.142-.141.142h-3.829a.153.153 0 01-.142-.142v-3.947h4.089v3.947h.023zm0-7.492h-4.088V80.69a9.789 9.789 0 002.056.236 8.44 8.44 0 002.056-.236v4.797h-.024zm-2.032-8.13a5.86 5.86 0 01-5.861-5.86 5.86 5.86 0 015.861-5.862 5.86 5.86 0 015.861 5.861c0 3.238-2.647 5.861-5.861 5.861zm18.481-12.88c0 2.884-2.363 5.247-5.247 5.247h-3.994a9.41 9.41 0 00-9.24-7.633c-.473 0-.945.047-1.394.094l-1.418-1.441a4.19 4.19 0 00.803-2.458v-3.474h7.279a6.122 6.122 0 006.121-6.121v-1.513h7.113v17.3h-.023zm-34.693 69.882c-.969 0-1.773.804-1.773 1.773 0 .969.804 1.772 1.773 1.772h4.301c.969 0 1.772-.803 1.772-1.772s-.803-1.773-1.772-1.773h-4.301zm-15.763 0c-.969 0-1.772.804-1.772 1.773 0 .969.803 1.772 1.772 1.772h4.301c.97 0 1.773-.803 1.773-1.772s-.804-1.773-1.773-1.773h-4.301z" fill="#000"/><path d="M126.561 69.725c.968 0 1.772.803 1.772 1.772s-.804 1.772-1.772 1.772a1.786 1.786 0 01-1.773-1.772c0-.993.78-1.772 1.773-1.772zM52.874 83.29c.969 0 1.773.803 1.773 1.771 0 .97-.804 1.773-1.773 1.773a1.785 1.785 0 01-1.772-1.773c0-.968.78-1.772 1.772-1.772z" fill="#000"/></svg>