<svg width="200" height="165" viewBox="0 0 200 165" fill="none" xmlns="http://www.w3.org/2000/svg"><path d="M41.961 50.898v74.544c0 4.218 3.427 7.636 7.657 7.636h101.74c4.23 0 7.657-3.418 7.657-7.636V50.898c0-4.219-3.427-7.636-7.657-7.636H49.618c-4.23 0-7.657 3.417-7.657 7.636z" fill="#fff"/><path d="M41.961 49.955v65.282c0 3.7 3.427 6.693 7.657 6.693h68.063l-5.625-11.948-31.337-66.697h-31.1c-4.231-.023-7.658 2.97-7.658 6.67z" fill="#DFEAF4"/><path d="M41.961 50.898v68.534h117.077V50.898c0-4.219-3.427-7.636-7.657-7.636H49.641c-4.253 0-7.68 3.417-7.68 7.636z" fill="#B8E9F2"/><path d="M41.962 50.898v68.534h70.095l-31.338-76.17h-31.1c-4.23 0-7.657 3.417-7.657 7.636z" fill="#D4F7FC"/><path d="M79.821 148.326h41.358l-2.954-6.882-3.593-8.342H86.368l-3.593 8.342-2.954 6.882z" fill="#fff"/><path d="M82.775 141.444h35.45l-3.593-8.342H86.368l-3.593 8.342z" fill="#fff"/><path d="M49.642 41h101.716c5.317 0 9.642 4.313 9.642 9.616v13.952a1.954 1.954 0 01-1.962 1.956 1.954 1.954 0 01-1.961-1.956V50.616c0-3.135-2.552-5.68-5.696-5.68H49.642c-3.143 0-5.695 2.545-5.695 5.68v67.026h12.336c1.087 0 1.962.872 1.962 1.956a1.954 1.954 0 01-1.962 1.956H43.947v3.606c0 3.134 2.552 5.68 5.695 5.68h101.716c3.143 0 5.695-2.546 5.695-5.68v-3.606H62.829a1.954 1.954 0 01-1.961-1.956c0-1.084.874-1.956 1.961-1.956h94.224V71.119c0-1.084.875-1.956 1.962-1.956s1.961.872 1.961 1.956v54.041c0 5.302-4.324 9.615-9.642 9.615h-33.747l4.892 11.289h9.453c1.087 0 1.961.872 1.961 1.956a1.954 1.954 0 01-1.961 1.956H69.068a1.954 1.954 0 01-1.961-1.956c0-1.084.874-1.956 1.961-1.956h9.454l4.844-11.289H49.62c-5.318 0-9.643-4.313-9.643-9.615V50.616C40 45.313 44.325 41 49.642 41zm33.18 105.064h35.355l-3.356-7.848H86.179l-3.356 7.848z" fill="#000"/><path d="M100.973 123.841a1.99 1.99 0 011.489 1.815c.094 1.767-2.151 2.733-3.38 1.461a1.954 1.954 0 01-.212-2.451 1.925 1.925 0 012.103-.825z" fill="#000"/></svg>