<?xml version="1.0" encoding="utf-8"?>
<!-- Generator: Adobe Illustrator 28.1.0, SVG Export Plug-In . SVG Version: 6.00 Build 0)  -->
<svg version="1.1" id="圖層_1" xmlns="http://www.w3.org/2000/svg" xmlns:xlink="http://www.w3.org/1999/xlink" x="0px" y="0px"
	 viewBox="0 0 200 165" style="enable-background:new 0 0 200 165;" xml:space="preserve">
<style type="text/css">
	.st0{fill:#CBE3FA;}
	.st1{fill:#93C0E5;}
	.st2{fill:#FFFFFF;}
	.st3{fill:#E7ECF6;}
	.st4{fill:#FFE443;}
	.st5{fill:#3391EF;}
	.st6{fill:#F44E4E;}
	.st7{fill:#2172F4;}
	.st8{fill:#EA3636;}
</style>
<g>
	<g>
		<path class="st0" d="M81.8,123.5c3.4-10.9,9.7-18.3,14.2-16.4c4.4,1.9,5.3,12.3,1.9,23.3c-1.2,4.1-4.2,6.9-6.5,9.5
			c-0.9,0.9-1.1,2.2-1.9,2.9c-2.1,1.8-3.9,3-4.9,3.5c-0.4,0.2-0.9,0.1-1.1-0.4c-0.6-1.5-1.7-4.9-2.3-9c-0.1-0.9,1.6-2.4,1.5-3.4
			C82.4,130.2,80.8,127.1,81.8,123.5L81.8,123.5z"/>
		<path class="st0" d="M117.7,123.5c-3.4-10.9-9.7-18.3-14.2-16.4c-4.4,1.9-5.3,12.3-1.9,23.3c1.4,4.6,4.7,7.3,7.4,9.9
			c0.5,0.5,0.6,2,1.1,2.4c2.1,1.8,3.9,3,4.9,3.5c0.4,0.2,0.9,0.1,1.1-0.4c0.6-1.5,1.7-4.9,2.3-9c0.1-0.4-0.7-1.3-0.6-1.8
			C118.2,131.5,119,127.6,117.7,123.5L117.7,123.5z"/>
		<path class="st1" d="M118.4,137c-1.5-0.6-3.2-1.4-4.9-2.5c-0.5-0.3-1.1,0-1.2,0.5c-0.5,2.9-1.3,5.5-2.3,7.8
			c-3.1-2.7-6.7-6.8-8.5-12.4c-0.9-3.1-1.6-6.1-1.9-8.9c-0.3-2.6-0.3-5,0-7.1c0.5-3.7,1.8-6.4,3.8-7.2c4.4-1.9,10.8,5.4,14.2,16.4
			C119.2,128.1,119.1,132.9,118.4,137L118.4,137z"/>
		<path class="st1" d="M99.8,121.5c-0.3,2.8-0.9,5.8-1.9,8.9c-1.7,5.5-5.3,9.7-8.5,12.4c-0.9-2.4-1.8-5-2.3-7.8
			c-0.1-0.5-0.7-0.8-1.2-0.5c-1.7,1.1-3.4,1.9-4.9,2.5c-0.6-4.1-0.7-8.9,0.7-13.4c3.4-10.9,9.7-18.3,14.2-16.4
			c2,0.9,3.3,3.5,3.8,7.2C99.5,116.5,99.5,118.9,99.8,121.5L99.8,121.5z"/>
		<g>
			<path class="st0" d="M122.8,104l19-5c3.8-1,6.5-4.2,7.1-7.8c-0.8-1.4-0.7-2-1-3.3l0.8-0.7c3.1-1.3,5.1-4.1,5.6-7.3l-0.8-2.5
				l0.6-1.4c3-1.3,5-4,5.6-7.1c-0.8-1.6-1.1-2.7-0.2-4.1l0,0c2.9-1.8,4.7-5.2,4.3-8.7c-0.1-0.8-0.8-1.3-1.6-1.1l-22.9,6
				c-3.5,0.9-6.1,3.8-6.6,7.4c-0.6,3.7-3,7.1-6.6,8.8l-2.9,1.2L122.8,104z"/>
			<path class="st0" d="M76.8,104l-19-5c-3.8-1-6.5-4.2-7.1-7.8c0.8-1.4,0.7-2,1-3.3l-0.8-0.7c-3.1-1.3-5.1-4.1-5.6-7.3l0.8-2.5
				L45.5,76c-3-1.3-5-4-5.6-7.1c0.8-1.6,1.1-2.7,0.2-4.1l0,0c-2.9-1.8-4.7-5.2-4.3-8.7c0.1-0.8,0.8-1.3,1.6-1.1l22.9,6
				c3.5,0.9,6.1,3.8,6.6,7.4c0.6,3.7,3,7.1,6.6,8.8l2.9,1.2L76.8,104z"/>
			<path class="st0" d="M78.9,114.7c5.4-7.6,12-11.5,14.8-8.8s0.6,11.1-4.8,18.7c-4.4,6.2-11.4,8.1-13.9,8.6
				c-0.5,0.1-0.9-0.3-0.9-0.7C74.1,129.7,74.4,121,78.9,114.7z"/>
			<path class="st0" d="M107.5,129.1c0-11.6-3.5-21.1-7.7-21.1c-4.3,0-7.7,9.4-7.7,21.1c0,9.6,5.3,17.7,7.1,20.3
				c0.3,0.4,0.9,0.4,1.2,0C102.3,146.8,107.5,138.7,107.5,129.1L107.5,129.1z"/>
			<path class="st0" d="M120.7,114.7c-5.4-7.6-12-11.5-14.8-8.8s-0.6,11.1,4.8,18.7c4.4,6.2,11.4,8.1,13.9,8.6
				c0.5,0.1,0.9-0.3,0.9-0.7C125.5,129.7,125.2,121,120.7,114.7L120.7,114.7z"/>
		</g>
		<path class="st2" d="M112.3,65.6c0-6.4,0.2-10.3-0.3-13.6c-0.6-3.6-2.1-7-4.3-9.9c-2-2.5-4.2-3.9-7.4-3.5l-3.2-0.3l-0.8,0.1
			c-4.5,0.6-8,4.4-8,9c0,0,0,0.5,0,0.6l-0.4,1.3l3.2,4.3c0,0,2.6,7.7-3.3,11.9L112.3,65.6L112.3,65.6z"/>
		<path class="st3" d="M114,65.6h-7.2c0-6.4-0.5-11-1-14.3c-0.6-3.6-2.1-7-4.3-9.9c-1.1-1.4-2.6-2.5-4.3-3.1l3.2-0.4
			c0.4,0,0.8-0.1,1.1-0.1c2.8,0,5.5,1.3,7.2,3.5c2.2,2.9,3.7,6.3,4.3,9.9C113.5,54.6,114,59.3,114,65.6z"/>
		<path class="st4" d="M88.3,48c-1.5,1.3-3.6,1.8-6,2.1c-2.7,0.4-4.8,2.7-4.8,5.4v1.8c0,0.5,0.5,0.8,0.9,0.6l1.7-0.8
			c1.5-0.7,3-1,4.6-1h4.5c2,0,3.8-0.8,5.2-2.2c0.2-0.2,0.2-0.7-0.2-0.8C91.5,51.9,89.3,50.3,88.3,48L88.3,48z"/>
		<path class="st5" d="M124.8,68.4l-0.4,21.5L100,94.7l-25.8-4.8V67.7c0-1.3,1-2.3,2.3-2.3h39l6.9,0.7
			C123.7,66.1,124.8,67.1,124.8,68.4L124.8,68.4z"/>
		<path class="st6" d="M124.4,89.9l0.1,24.3c0,1.2-1,2.2-2.2,2.3c-2,0-2.7,0.8-2.7,0.8c-1.5,0.2-3.1,0.5-4.5,0.9l-2.1-14.6l2.1-13.7
			L124.4,89.9L124.4,89.9z"/>
		<path class="st6" d="M104.9,89.9l1.7,14.6l-1.7,17.2c-1.2,0.5-2.3,1-3.1,1.4c-1.3,0.6-2.8,0.6-4.1,0c-0.8-0.4-1.9-0.9-3.1-1.4
			L92,105.1l2.6-15.2H104.9z"/>
		<path class="st3" d="M94.7,89.9v31.8c-2.7-1.2-6.3-2.5-10.2-3.5l-3-14.2l3-14.2L94.7,89.9z"/>
		<path class="st6" d="M84.5,89.9v28.3c-2.6-0.6-5.3-1.1-8.1-1.3c-1.2-0.1-2.2-1.1-2.2-2.3V89.9H84.5z"/>
		<path class="st3" d="M115.1,89.9v28.3c-4,1-7.5,2.3-10.2,3.5V89.9H115.1z"/>
		<g>
			<path class="st7" d="M125.4,67.7v22.2l-2.5,2.2l-3.2-2.2V70.3c0-2.8-2.2-5-5-5h8.3C124.3,65.4,125.4,66.4,125.4,67.7L125.4,67.7z
				"/>
			<path class="st8" d="M125.4,89.9v24.7c0,1.2-1,2.2-2.2,2.3c-0.5,0-2.3,0.2-3.5,0.4V89.9C119.7,89.9,125.4,89.9,125.4,89.9z"/>
		</g>
	</g>
	<g>
		<path d="M165.4,53.9c-0.1-0.5-0.5-0.9-0.9-1.2s-1-0.3-1.5-0.2l-24.2,6.4c-4.2,1.1-7.4,4.6-8,9c-0.4,2.4-1.6,4.6-3.5,6.1v-6.3
			c0-2.3-1.9-4.3-4.3-4.3h-7.2c-0.1-4.8-0.4-9-1-12.7c-0.2-1.3-0.5-2.6-1-3.8c-0.3-1-1.4-1.5-2.4-1.2s-1.5,1.4-1.2,2.4
			c0.4,1,0.6,2.1,0.8,3.2c0.6,3.4,0.9,7.5,1,12H92.1c1.1-1.9,1.6-4.1,1.5-6.6c1.1-0.6,2.1-1.4,2.9-2.4c0.4-0.5,0.5-1.1,0.4-1.7
			c-0.1-0.6-0.5-1.1-1.1-1.3c-3-1.3-4.8-2.7-5.6-4.2c0-3.6,2.7-6.7,6.3-7.2l3.9-0.5c2-0.2,4,0.3,5.5,1.6c0.8,0.7,2,0.6,2.7-0.2
			s0.6-2-0.2-2.7c-2.3-2-5.4-2.9-8.5-2.5L96,36.1c-5.3,0.7-9.4,5.1-9.7,10.3c-1,0.6-2.5,1.1-4.4,1.3c-3.7,0.5-6.4,3.6-6.4,7.3v1.8
			c0,0.9,0.5,1.7,1.2,2.2c0.4,0.3,0.9,0.4,1.4,0.4c0.4,0,0.8-0.1,1.1-0.3l1.7-0.8c1.2-0.6,2.5-0.9,3.8-0.9c0.2,0,4.9,0,4.9,0
			c-0.1,1.9-0.7,4-2.6,5.6H76.6c-2.3,0-4.3,1.9-4.3,4.3v5.9c-1.6-1.5-2.7-3.5-3.1-5.8c-0.7-4.3-3.8-7.9-8-9l-7.8-2
			c-1-0.3-2.1,0.3-2.4,1.4c-0.3,1,0.3,2.1,1.4,2.4l7.8,2c2.7,0.7,4.8,3,5.2,5.8c0.7,4.2,3.2,7.8,6.9,9.9v22.4l-13.7-3.6
			c-2-0.5-3.6-1.8-4.7-3.6c-0.7-1.2-1.1-2.5-1-3.9L63.5,92c1,0.3,2.1-0.3,2.4-1.4c0.3-1-0.3-2.1-1.4-2.4l-11.3-3
			c-2-0.5-3.6-1.8-4.7-3.6c-0.7-1.2-1.1-2.5-1-3.9l10.6,2.8c1,0.3,2.1-0.3,2.4-1.4c0.3-1-0.3-2.1-1.4-2.4l-11.3-3
			c-2-0.5-3.6-1.8-4.7-3.6c-0.6-1.1-1-2.3-1-3.5c0.8,0.2,11.4,3,12,3.2c1,0.3,2.1-0.3,2.4-1.4c0.3-1-0.3-2.1-1.4-2.4l-11.7-3.1
			c-3.2-0.8-5.4-3.8-5.4-7l5.4,1.4c1,0.3,2.1-0.3,2.4-1.4c0.3-1-0.3-2.1-1.4-2.4l-7.5-2c-0.5-0.1-1-0.1-1.5,0.2
			c-0.4,0.3-0.8,0.7-0.9,1.2c-1.1,4.4,0.5,8.8,3.8,11.5c-0.4,2.6,0.1,5.1,1.5,7.4c1,1.7,2.3,3,3.9,4c-0.3,2.5,0.2,5.1,1.5,7.3
			c1,1.7,2.3,3,3.9,4c-0.3,2.5,0.2,5.1,1.5,7.3c1.6,2.7,4,4.6,7,5.3l14.7,3.9v9.9c0,1.7,1,3.1,2.4,3.8c-2.9,7.2-2.5,14.7-2.5,15.1
			c0,0.5,0.3,1,0.7,1.4c0.4,0.3,1,0.5,1.5,0.4c0.2,0,2-0.3,4.6-1.2c0.5,7.3,3,13.2,3.1,13.5c0.2,0.5,0.6,0.9,1.1,1
			c0.2,0.1,0.4,0.1,0.7,0.1c0.3,0,0.6-0.1,0.9-0.2c0.2-0.1,4.3-2.2,8.3-6.4c2.3,5.4,5.2,9,5.3,9.2c0.4,0.4,0.9,0.7,1.5,0.7
			s1.1-0.3,1.5-0.7c0.2-0.2,3.1-3.8,5.3-9.2c4,4.2,8.1,6.2,8.3,6.3c0.3,0.1,0.6,0.2,0.9,0.2c0.2,0,0.4,0,0.7-0.1
			c0.5-0.2,0.9-0.6,1.1-1c0.1-0.3,2.6-6.1,3.1-13.5c2.5,0.9,4.4,1.2,4.6,1.2c0.5,0.1,1.1-0.1,1.5-0.4c0.4-0.3,0.7-0.8,0.7-1.4
			c0-0.3,0.4-7.9-2.5-15.1c1.4-0.7,2.4-2.2,2.4-3.8v-9.8l15.1-4c5.7-1.5,9.3-7,8.5-12.7c1.6-1,2.9-2.3,3.9-4
			c1.3-2.2,1.8-4.8,1.5-7.3c1.6-1,2.9-2.3,3.9-4c1.3-2.3,1.8-4.9,1.5-7.4C164.9,62.8,166.5,58.3,165.4,53.9L165.4,53.9z M84.8,54
			c-1.8,0-3.7,0.4-5.3,1.2c0.1-1.7,1.4-3.1,3.1-3.4c2.1-0.3,3.7-0.7,5.1-1.4c1,1.3,2.4,2.4,3.8,3.2c-0.7,0.3-1.4,0.4-2.1,0.4H84.8z
			 M106.8,118.8v-9.1c0-1.1-0.9-1.9-1.9-1.9c-1.1,0-1.9,0.9-1.9,1.9v10.7c-0.7,0.3-1.4,0.6-2,0.9c-0.8,0.4-1.6,0.4-2.4,0
			c-0.6-0.3-1.3-0.6-2-0.9V91.8h6.4v8.9c0,1.1,0.9,1.9,1.9,1.9s1.9-0.9,1.9-1.9v-8.9h6.4v24.9C110.9,117.3,108.8,118.1,106.8,118.8z
			 M76.5,115c-0.2,0-0.4-0.2-0.4-0.4V91.8h6.4v24C80.6,115.4,78.6,115.1,76.5,115z M86.4,91.8h6.4v27c-1.9-0.7-4.1-1.5-6.4-2.1V91.8
			z M117.1,91.8h6.4v22.8c0,0.2-0.2,0.4-0.4,0.4c-2,0.1-4.1,0.4-6,0.8V91.8z M76.6,67.3H123c0.2,0,0.4,0.2,0.4,0.4V88H76.2V67.7
			C76.2,67.5,76.3,67.3,76.6,67.3L76.6,67.3z M78.6,119.1c3.6,0.4,7,1.4,10.1,2.4c-0.4,0.7-0.9,1.4-1.3,2c-3.3,4.7-8.4,6.7-11.3,7.5
			C76.1,128.2,76.6,123.4,78.6,119.1z M99.8,146.8c-1.4-2.1-3.5-5.8-4.7-10.2c-0.3-1-1.4-1.6-2.4-1.3s-1.6,1.4-1.3,2.4
			c0,0.1,0.1,0.3,0.1,0.4c-2.4,2.8-5,4.8-6.7,5.9c-0.8-2.4-2-6.8-2.1-11.5c2.6-1.4,5.3-3.5,7.6-6.5c0,0.7-0.1,1.4-0.1,2.1
			c0,1.1,0.8,1.9,1.9,2l0,0c1,0,1.9-0.8,1.9-1.9c0-1.6,0.1-3.1,0.3-4.6c1.1,0.5,2,0.9,2.6,1.2c0.9,0.5,1.9,0.7,2.9,0.7
			s2-0.2,2.9-0.7c0.7-0.3,1.6-0.8,2.6-1.2c0.2,1.8,0.3,3.6,0.3,5.5C105.6,136.7,101.9,143.5,99.8,146.8L99.8,146.8z M114.8,144
			c-1.7-1.1-4.3-3.1-6.7-5.9c0.8-2.8,1.4-5.8,1.4-9c0-1,0-2.1-0.1-3.1c2.2,3,5,5.1,7.6,6.5C116.8,137.2,115.6,141.5,114.8,144
			L114.8,144z M119.6,129.5L119.6,129.5c-2.5-1.2-5.2-3.1-7.3-6c-0.5-0.7-0.9-1.3-1.3-2c3-1,6.5-1.9,10.1-2.4
			c2,4.3,2.4,9.2,2.6,11.9C122.5,130.7,121.1,130.2,119.6,129.5L119.6,129.5z M156.5,63.8l-11.7,3.1c-1,0.3-1.6,1.3-1.4,2.4
			c0.3,1,1.3,1.6,2.4,1.4c0,0,11.9-3.1,12-3.2c-0.1,1.2-0.4,2.4-1,3.5c-1,1.8-2.7,3-4.7,3.6l-11.3,3c-1,0.3-1.6,1.3-1.4,2.4
			c0.3,1,1.4,1.6,2.4,1.4l10.6-2.8c0,1.4-0.3,2.7-1,3.9c-1,1.8-2.7,3-4.7,3.6l-11.3,3c-1,0.3-1.6,1.3-1.4,2.4c0.3,1,1.4,1.6,2.4,1.4
			l10.6-2.8c0,3.4-2.3,6.5-5.7,7.5l-14.1,3.7V78.5c3.9-2,6.6-5.7,7.3-10.1c0.4-2.8,2.5-5.1,5.2-5.8l22.1-5.8
			C161.9,60,159.7,62.9,156.5,63.8L156.5,63.8z"/>
		<path d="M81.8,75.5h1.1c1.1,0,1.9-0.9,1.9-1.9c0-1.1-0.9-1.9-1.9-1.9h-1.1c-1.1,0-1.9,0.9-1.9,1.9S80.8,75.5,81.8,75.5z"/>
		<path d="M90.6,75.5h1.1c1.1,0,1.9-0.9,1.9-1.9c0-1.1-0.9-1.9-1.9-1.9h-1.1c-1.1,0-1.9,0.9-1.9,1.9C88.6,74.6,89.5,75.5,90.6,75.5z
			"/>
		<path d="M99.3,75.5h1.1c1.1,0,1.9-0.9,1.9-1.9c0-1.1-0.9-1.9-1.9-1.9h-1.1c-1.1,0-1.9,0.9-1.9,1.9C97.3,74.6,98.2,75.5,99.3,75.5z
			"/>
		<path d="M108,75.5h1.1c1.1,0,1.9-0.9,1.9-1.9c0-1.1-0.9-1.9-1.9-1.9H108c-1.1,0-1.9,0.9-1.9,1.9C106,74.6,106.9,75.5,108,75.5z"/>
		<path d="M116.7,75.5h1.1c1.1,0,1.9-0.9,1.9-1.9c0-1.1-0.9-1.9-1.9-1.9h-1.1c-1.1,0-1.9,0.9-1.9,1.9
			C114.7,74.6,115.6,75.5,116.7,75.5z"/>
		<path d="M83.7,81.7c0,1.1,0.9,1.9,1.9,1.9h1.1c1.1,0,1.9-0.9,1.9-1.9c0-1.1-0.9-1.9-1.9-1.9h-1.1C84.6,79.8,83.7,80.6,83.7,81.7z"
			/>
		<path d="M92.4,81.7c0,1.1,0.9,1.9,1.9,1.9h1.1c1.1,0,1.9-0.9,1.9-1.9c0-1.1-0.9-1.9-1.9-1.9h-1.1C93.3,79.8,92.4,80.6,92.4,81.7z"
			/>
		<path d="M101.1,81.7c0,1.1,0.9,1.9,1.9,1.9h1.1c1.1,0,1.9-0.9,1.9-1.9c0-1.1-0.9-1.9-1.9-1.9H103C102,79.8,101.1,80.6,101.1,81.7z
			"/>
		<path d="M109.8,81.7c0,1.1,0.9,1.9,1.9,1.9h1.1c1.1,0,1.9-0.9,1.9-1.9c0-1.1-0.9-1.9-1.9-1.9h-1.1
			C110.7,79.8,109.8,80.6,109.8,81.7z"/>
		<path d="M98.5,43.9l-3,1.1c-1,0.4-1.5,1.5-1.1,2.5c0.3,0.8,1,1.2,1.8,1.2c0.2,0,0.5,0,0.7-0.1l3-1.1c1-0.4,1.5-1.5,1.1-2.5
			C100.6,44,99.5,43.5,98.5,43.9z"/>
	</g>
</g>
</svg>
