<?xml version="1.0" encoding="utf-8"?>
<!-- Generator: Adobe Illustrator 28.1.0, SVG Export Plug-In . SVG Version: 6.00 Build 0)  -->
<svg version="1.1" id="圖層_1" xmlns="http://www.w3.org/2000/svg" xmlns:xlink="http://www.w3.org/1999/xlink" x="0px" y="0px"
	 viewBox="0 0 200 165" style="enable-background:new 0 0 200 165;" xml:space="preserve">
<style type="text/css">
	.st0{fill:#CBE3FA;}
	.st1{fill:#93C0E5;}
	.st2{fill:#FFFFFF;}
	.st3{fill:#E7ECF6;}
	.st4{fill:#FFE443;}
	.st5{fill:#3391EF;}
	.st6{fill:#F44E4E;}
	.st7{fill:#2172F4;}
	.st8{fill:#EA3636;}
	.st9{enable-background:new    ;}
</style>
<g>
	<g>
		<path class="st0" d="M82.1,123.7c3.3-10.8,9.6-18,14-16.1s5.2,12.2,1.9,23c-1.2,4-4.1,6.8-6.5,9.3c-0.9,0.9-1.1,2.1-1.9,2.9
			c-2,1.8-3.9,2.9-4.9,3.5c-0.4,0.2-0.9,0.1-1.1-0.4c-0.6-1.5-1.7-4.8-2.3-8.9c-0.1-0.9,1.6-2.4,1.5-3.4
			C82.6,130.3,81,127.2,82.1,123.7L82.1,123.7z"/>
		<path class="st0" d="M117.5,123.7c-3.3-10.8-9.6-18-14-16.1s-5.2,12.2-1.9,23c1.4,4.6,4.6,7.2,7.3,9.8c0.5,0.5,0.5,2,1.1,2.4
			c2,1.8,3.9,2.9,4.9,3.5c0.4,0.2,0.9,0.1,1.1-0.4c0.6-1.5,1.7-4.8,2.3-8.9c0.1-0.4-0.7-1.3-0.6-1.7
			C118,131.5,118.8,127.7,117.5,123.7L117.5,123.7z"/>
		<path class="st1" d="M118.2,137c-1.5-0.6-3.2-1.4-4.8-2.5c-0.5-0.3-1.1,0-1.2,0.5c-0.5,2.8-1.3,5.4-2.3,7.7
			c-3.1-2.7-6.7-6.8-8.3-12.2c-0.9-3-1.5-6-1.8-8.8c-0.3-2.6-0.3-5,0-7c0.5-3.6,1.7-6.3,3.7-7.1c4.4-1.9,10.6,5.3,14,16.1
			C118.9,128.2,118.8,133,118.2,137L118.2,137z"/>
		<path class="st1" d="M99.8,121.7c-0.3,2.8-0.9,5.8-1.8,8.8c-1.7,5.5-5.2,9.5-8.3,12.2c-0.9-2.3-1.7-4.9-2.3-7.7
			c-0.1-0.5-0.7-0.8-1.2-0.5c-1.7,1.1-3.3,1.9-4.8,2.5c-0.6-4-0.7-8.7,0.7-13.3c3.3-10.8,9.6-18,14-16.1c2,0.9,3.3,3.5,3.7,7.1
			C99.5,116.8,99.5,119.2,99.8,121.7L99.8,121.7z"/>
		<g>
			<path class="st0" d="M122.5,104.4l18.8-4.9c3.8-1,6.4-4.1,7-7.7c-0.8-1.4-0.7-2-1-3.3l0.8-0.7c3-1.3,5.1-4.1,5.5-7.2l-0.8-2.5
				l0.6-1.4c2.9-1.3,5-4,5.5-7c-0.8-1.6-1.1-2.6-0.2-4.1l0,0c2.9-1.8,4.6-5.1,4.3-8.6c-0.1-0.8-0.8-1.3-1.6-1.1l-22.6,5.9
				c-3.4,0.9-6,3.8-6.5,7.3c-0.6,3.7-2.9,7-6.5,8.7l-2.9,1.2L122.5,104.4z"/>
			<path class="st0" d="M77.1,104.4l-18.8-4.9c-3.8-1-6.4-4.1-7-7.7c0.8-1.4,0.7-2,1-3.3l-0.8-0.7c-3-1.3-5.1-4.1-5.5-7.2l0.8-2.5
				l-0.6-1.4c-2.9-1.3-5-4-5.5-7c0.8-1.6,1.1-2.6,0.2-4.1l0,0c-2.9-1.8-4.6-5.1-4.3-8.6c0.1-0.8,0.8-1.3,1.6-1.1l22.6,5.9
				c3.4,0.9,6,3.8,6.5,7.3c0.6,3.7,2.9,7,6.5,8.7l2.9,1.2L77.1,104.4z"/>
			<path class="st0" d="M79.1,115c5.3-7.5,11.9-11.4,14.6-8.7c2.7,2.7,0.6,11-4.7,18.5c-4.3,6.1-11.2,8-13.7,8.5
				c-0.5,0.1-0.9-0.3-0.9-0.7C74.4,129.8,74.7,121.2,79.1,115z"/>
			<path class="st0" d="M107.4,129.2c0-11.5-3.4-20.8-7.6-20.8s-7.6,9.3-7.6,20.8c0,9.5,5.2,17.5,7,20c0.3,0.4,0.9,0.4,1.2,0
				C102.2,146.7,107.4,138.7,107.4,129.2L107.4,129.2z"/>
			<path class="st0" d="M120.5,115c-5.3-7.5-11.9-11.4-14.6-8.7c-2.7,2.7-0.6,11,4.7,18.5c4.3,6.1,11.2,8,13.7,8.5
				c0.5,0.1,0.9-0.3,0.9-0.7C125.2,129.8,124.9,121.2,120.5,115L120.5,115z"/>
		</g>
		<path class="st2" d="M112.2,66.5c0-6.3,0.2-10.2-0.3-13.4c-0.6-3.6-2.1-6.9-4.3-9.7c-2-2.5-4.2-3.8-7.3-3.4l-3.1-0.3l-0.7,0.1
			c-4.5,0.6-7.9,4.3-7.9,8.9v0.5l-0.4,1.3l3.2,4.3c0,0,2.6,7.6-3.2,11.8L112.2,66.5L112.2,66.5z"/>
		<path class="st3" d="M113.8,66.5h-7.1c0-6.3-0.5-10.9-1-14.1c-0.6-3.6-2.1-6.9-4.3-9.7c-1.1-1.4-2.6-2.5-4.3-3l3.1-0.4
			c0.4,0,0.7-0.1,1.1-0.1c2.8,0,5.4,1.3,7.1,3.5c2.2,2.8,3.7,6.2,4.3,9.7C113.3,55.7,113.8,60.3,113.8,66.5z"/>
		<path class="st4" d="M88.5,49.2c-1.5,1.3-3.6,1.8-5.9,2.1c-2.7,0.4-4.7,2.6-4.7,5.4v1.8c0,0.5,0.5,0.8,0.9,0.6l1.7-0.8
			c1.4-0.7,3-1,4.6-1h4.4c1.9,0,3.8-0.8,5.2-2.1c0.2-0.2,0.2-0.7-0.2-0.8C91.7,53,89.4,51.4,88.5,49.2L88.5,49.2z"/>
		<path class="st5" d="M124.4,69.3L124,90.5l-24,4.8l-25.4-4.8V68.6c0-1.3,1-2.3,2.3-2.3h38.5l6.8,0.7C123.4,67,124.4,68,124.4,69.3
			L124.4,69.3z"/>
		<path class="st6" d="M124.1,90.5l0.1,24c0,1.2-0.9,2.2-2.1,2.3c-2,0-2.6,0.8-2.6,0.8c-1.5,0.2-3,0.5-4.5,0.9l-2.1-14.4l2.1-13.5
			L124.1,90.5L124.1,90.5z"/>
		<path class="st6" d="M104.8,90.5l1.7,14.4l-1.7,17c-1.2,0.5-2.2,1-3,1.4c-1.3,0.6-2.8,0.6-4,0c-0.8-0.4-1.8-0.9-3-1.4l-2.6-16.4
			l2.6-15H104.8z"/>
		<path class="st3" d="M94.8,90.5v31.4c-2.7-1.1-6.2-2.5-10.1-3.4l-3-14l3-14H94.8z"/>
		<path class="st6" d="M84.7,90.5v27.9c-2.5-0.6-5.2-1.1-7.9-1.3c-1.2-0.1-2.1-1.1-2.1-2.3V90.5H84.7z"/>
		<path class="st3" d="M114.9,90.5v27.9c-3.9,1-7.4,2.3-10.1,3.4V90.5H114.9z"/>
		<g>
			<path class="st7" d="M125,68.6v21.9l-2.5,2.2l-3.1-2.2V71.2c0-2.7-2.2-4.9-4.9-4.9h8.2C124,66.3,125,67.3,125,68.6L125,68.6z"/>
			<path class="st8" d="M125,90.5v24.4c0,1.2-0.9,2.2-2.1,2.3c-0.5,0-2.2,0.2-3.5,0.4V90.5C119.4,90.5,125,90.5,125,90.5z"/>
		</g>
	</g>
	<g>
		<path d="M164.5,55c-0.1-0.5-0.4-0.9-0.9-1.2c-0.4-0.3-1-0.3-1.4-0.2l-23.9,6.3c-4.1,1.1-7.3,4.6-7.9,8.8c-0.4,2.4-1.6,4.5-3.5,6
			v-6.2c0-2.3-1.9-4.2-4.2-4.2h-7.1c-0.1-4.7-0.4-8.9-1-12.5c-0.2-1.3-0.5-2.5-1-3.8c-0.3-1-1.4-1.5-2.4-1.2s-1.5,1.4-1.2,2.4
			c0.4,1,0.6,2.1,0.8,3.2c0.6,3.4,0.9,7.4,0.9,11.9H92.2c1-1.9,1.5-4.1,1.5-6.5c1.1-0.6,2.1-1.4,2.9-2.3c0.4-0.5,0.5-1.1,0.4-1.6
			c-0.1-0.6-0.5-1.1-1.1-1.3c-2.9-1.3-4.7-2.6-5.5-4.1c0-3.6,2.7-6.6,6.3-7.1l3.9-0.5c2-0.2,4,0.3,5.5,1.6c0.8,0.7,2,0.6,2.7-0.2
			s0.6-2-0.2-2.7c-2.3-1.9-5.4-2.8-8.4-2.5l-3.9,0.5c-5.2,0.7-9.2,5-9.6,10.2c-1,0.6-2.5,1.1-4.3,1.3c-3.6,0.5-6.3,3.6-6.3,7.2v1.8
			c0,0.9,0.4,1.7,1.2,2.2c0.4,0.3,0.9,0.4,1.4,0.4c0.4,0,0.7-0.1,1.1-0.2l1.7-0.8c1.2-0.6,2.5-0.8,3.8-0.8c0.2,0,4.8,0,4.8,0
			c-0.1,1.9-0.7,3.9-2.5,5.5H76.9c-2.3,0-4.2,1.9-4.2,4.2v5.9C71,73,69.9,71,69.6,68.8c-0.7-4.3-3.8-7.8-7.9-8.8L54,58
			c-1-0.3-2.1,0.3-2.3,1.4c-0.3,1,0.3,2.1,1.4,2.3l7.7,2c2.7,0.7,4.7,3,5.1,5.8c0.7,4.1,3.2,7.7,6.8,9.7v22.1l-13.5-3.5
			c-2-0.5-3.6-1.8-4.6-3.5c-0.7-1.2-1-2.5-1-3.8L64,93.1c1,0.3,2.1-0.3,2.3-1.4c0.3-1-0.3-2.1-1.4-2.3l-11.1-2.9
			c-2-0.5-3.6-1.8-4.6-3.5c-0.7-1.2-1-2.5-1-3.8L58.7,82c1,0.3,2.1-0.3,2.3-1.4c0.3-1-0.3-2.1-1.4-2.3l-11.1-2.9
			c-2-0.5-3.6-1.8-4.6-3.5c-0.6-1.1-1-2.2-1-3.4c0.8,0.2,11.2,2.9,11.9,3.1c1,0.3,2.1-0.3,2.3-1.4c0.3-1-0.3-2.1-1.4-2.3l-11.5-3
			c-3.2-0.8-5.3-3.7-5.4-6.9l5.4,1.4c1,0.3,2.1-0.3,2.3-1.4s-0.3-2.1-1.4-2.3l-7.4-2c-0.5-0.1-1-0.1-1.4,0.2s-0.8,0.7-0.9,1.2
			c-1.1,4.3,0.5,8.7,3.7,11.3c-0.4,2.5,0.1,5.1,1.4,7.3c1,1.6,2.3,3,3.9,4c-0.3,2.5,0.2,5,1.5,7.2c1,1.6,2.3,3,3.9,4
			c-0.3,2.5,0.2,5,1.5,7.2c1.5,2.6,4,4.5,6.9,5.3l14.5,3.8v9.8c0,1.6,0.9,3.1,2.3,3.8c-2.9,7.1-2.5,14.5-2.5,14.9
			c0,0.5,0.3,1,0.7,1.4c0.4,0.3,0.9,0.5,1.5,0.4c0.2,0,2-0.3,4.5-1.2c0.5,7.2,3,13,3.1,13.3c0.2,0.5,0.6,0.9,1.1,1
			c0.2,0.1,0.4,0.1,0.7,0.1c0.3,0,0.6-0.1,0.9-0.2c0.2-0.1,4.2-2.2,8.2-6.3c2.3,5.4,5.1,8.9,5.3,9.1c0.4,0.4,0.9,0.7,1.5,0.7
			s1.1-0.3,1.5-0.7c0.2-0.2,3-3.7,5.3-9.1c4,4.1,8,6.2,8.2,6.3c0.3,0.1,0.6,0.2,0.9,0.2c0.2,0,0.4,0,0.7-0.1c0.5-0.2,0.9-0.6,1.1-1
			c0.1-0.3,2.6-6.1,3.1-13.3c2.5,0.9,4.3,1.1,4.5,1.2c0.5,0.1,1.1-0.1,1.5-0.4c0.4-0.3,0.7-0.8,0.7-1.4c0-0.3,0.4-7.8-2.5-14.9
			c1.4-0.7,2.3-2.1,2.3-3.8v-9.7l14.9-3.9c5.6-1.5,9.1-6.9,8.4-12.5c1.6-1,2.9-2.3,3.9-4c1.3-2.2,1.8-4.7,1.5-7.2
			c1.6-1,2.9-2.3,3.9-4c1.3-2.2,1.8-4.8,1.4-7.3C164.1,63.7,165.7,59.3,164.5,55L164.5,55z M85,55.1c-1.8,0-3.6,0.4-5.3,1.2
			c0.1-1.7,1.4-3.1,3-3.3c2-0.3,3.7-0.7,5-1.4c1,1.3,2.4,2.3,3.7,3.1c-0.7,0.3-1.4,0.4-2.1,0.4H85z M106.7,119v-8.9
			c0-1.1-0.9-1.9-1.9-1.9c-1.1,0-1.9,0.9-1.9,1.9v10.5c-0.7,0.3-1.4,0.6-2,0.9c-0.8,0.4-1.6,0.4-2.4,0c-0.6-0.3-1.2-0.6-2-0.9V92.4
			h6.3v8.8c0,1.1,0.9,1.9,1.9,1.9c1.1,0,1.9-0.9,1.9-1.9v-8.8h6.3V117C110.8,117.6,108.6,118.3,106.7,119z M76.8,115.3
			c-0.2,0-0.4-0.2-0.4-0.4V92.4h6.3v23.7C80.8,115.7,78.8,115.4,76.8,115.3z M86.6,92.4h6.3V119c-1.9-0.7-4-1.5-6.3-2.1V92.4z
			 M116.8,92.4h6.3v22.5c0,0.2-0.2,0.4-0.4,0.4c-2,0.1-4,0.4-5.9,0.8V92.4z M76.9,68.2h45.9c0.2,0,0.4,0.2,0.4,0.4v20H76.5v-20
			C76.5,68.4,76.6,68.2,76.9,68.2L76.9,68.2z M78.9,119.3c3.5,0.4,7,1.3,9.9,2.3c-0.4,0.7-0.9,1.3-1.3,2c-3.3,4.6-8.3,6.6-11.1,7.4
			C76.4,128.3,76.9,123.6,78.9,119.3z M99.8,146.7c-1.4-2.1-3.4-5.7-4.6-10.1c-0.3-1-1.3-1.6-2.3-1.3s-1.6,1.3-1.3,2.3
			c0,0.1,0.1,0.3,0.1,0.4c-2.3,2.8-4.9,4.7-6.6,5.8c-0.8-2.4-2-6.7-2.1-11.4c2.6-1.4,5.3-3.4,7.5-6.4c0,0.7-0.1,1.4-0.1,2.1
			c0,1.1,0.8,1.9,1.9,1.9l0,0c1,0,1.9-0.8,1.9-1.9c0-1.5,0.1-3,0.3-4.5c1.1,0.5,1.9,0.9,2.6,1.2c0.9,0.4,1.9,0.7,2.9,0.7
			s1.9-0.2,2.9-0.7c0.7-0.3,1.5-0.7,2.6-1.2c0.2,1.7,0.3,3.5,0.3,5.4C105.5,136.8,101.9,143.4,99.8,146.7L99.8,146.7z M114.6,143.9
			c-1.7-1.1-4.3-3-6.6-5.8c0.8-2.7,1.3-5.7,1.3-8.9c0-1,0-2-0.1-3c2.2,3,4.9,5,7.5,6.4C116.6,137.2,115.4,141.5,114.6,143.9
			L114.6,143.9z M119.4,129.6L119.4,129.6c-2.4-1.2-5.2-3.1-7.2-6c-0.5-0.7-0.9-1.3-1.3-2c3-1,6.4-1.9,9.9-2.3
			c1.9,4.3,2.4,9,2.5,11.8C122.2,130.8,120.8,130.3,119.4,129.6L119.4,129.6z M155.7,64.7l-11.5,3c-1,0.3-1.6,1.3-1.4,2.3
			c0.3,1,1.3,1.6,2.3,1.4c0,0,11.8-3.1,11.9-3.1c-0.1,1.2-0.4,2.4-1,3.4c-1,1.7-2.7,3-4.6,3.5l-11.1,2.9c-1,0.3-1.6,1.3-1.4,2.3
			c0.3,1,1.3,1.6,2.3,1.4l10.5-2.8c0,1.3-0.3,2.7-1,3.8c-1,1.7-2.7,3-4.6,3.5L135,89.4c-1,0.3-1.6,1.3-1.4,2.3
			c0.3,1,1.3,1.6,2.3,1.4l10.5-2.8c0,3.4-2.2,6.5-5.7,7.4l-13.9,3.7v-22c3.9-2,6.5-5.7,7.2-9.9c0.4-2.8,2.5-5.1,5.1-5.8l21.8-5.7
			C161.1,61,158.9,63.9,155.7,64.7L155.7,64.7z"/>
		<path d="M82.1,76.3h1.1c1.1,0,1.9-0.9,1.9-1.9s-0.9-1.9-1.9-1.9h-1.1c-1.1,0-1.9,0.9-1.9,1.9S81,76.3,82.1,76.3z"/>
		<path d="M90.7,76.3h1.1c1.1,0,1.9-0.9,1.9-1.9s-0.9-1.9-1.9-1.9h-1.1c-1.1,0-1.9,0.9-1.9,1.9S89.6,76.3,90.7,76.3z"/>
		<path d="M99.3,76.3h1.1c1.1,0,1.9-0.9,1.9-1.9s-0.9-1.9-1.9-1.9h-1.1c-1.1,0-1.9,0.9-1.9,1.9S98.2,76.3,99.3,76.3z"/>
		<path d="M107.9,76.3h1.1c1.1,0,1.9-0.9,1.9-1.9s-0.9-1.9-1.9-1.9h-1.1c-1.1,0-1.9,0.9-1.9,1.9S106.8,76.3,107.9,76.3z"/>
		<path d="M116.4,76.3h1.1c1.1,0,1.9-0.9,1.9-1.9s-0.9-1.9-1.9-1.9h-1.1c-1.1,0-1.9,0.9-1.9,1.9S115.4,76.3,116.4,76.3z"/>
		<path d="M83.9,82.4c0,1.1,0.9,1.9,1.9,1.9h1.1c1.1,0,1.9-0.9,1.9-1.9s-0.9-1.9-1.9-1.9h-1.1C84.8,80.5,83.9,81.4,83.9,82.4z"/>
		<path d="M92.5,82.4c0,1.1,0.9,1.9,1.9,1.9h1.1c1.1,0,1.9-0.9,1.9-1.9s-0.9-1.9-1.9-1.9h-1.1C93.4,80.5,92.5,81.4,92.5,82.4z"/>
		<path d="M101.1,82.4c0,1.1,0.9,1.9,1.9,1.9h1.1c1.1,0,1.9-0.9,1.9-1.9s-0.9-1.9-1.9-1.9H103C102,80.5,101.1,81.4,101.1,82.4z"/>
		<path d="M109.7,82.4c0,1.1,0.9,1.9,1.9,1.9h1.1c1.1,0,1.9-0.9,1.9-1.9s-0.9-1.9-1.9-1.9h-1.1C110.6,80.5,109.7,81.4,109.7,82.4z"
			/>
		<path d="M98.5,45.1l-3,1.1c-1,0.4-1.5,1.5-1.1,2.5c0.3,0.8,1,1.2,1.8,1.2c0.2,0,0.5,0,0.7-0.1l3-1.1c1-0.4,1.5-1.5,1.1-2.5
			S99.5,44.7,98.5,45.1z"/>
	</g>
</g>
<g>
	<circle class="st6" cx="158.6" cy="36.7" r="28.9"/>
	<g class="st9">
		<path class="st2" d="M136.7,42.5c3.9-3.5,6.2-6.2,6.2-8.4c0-1.5-0.8-2.3-2.2-2.3c-1.1,0-1.9,0.7-2.6,1.5l-1.6-1.6
			c1.3-1.4,2.6-2.2,4.6-2.2c2.7,0,4.5,1.8,4.5,4.4c0,2.6-2.2,5.4-4.8,8c0.7-0.1,1.7-0.2,2.3-0.2h3.1v2.4h-9.6V42.5z"/>
		<path class="st2" d="M148.1,36.9c0-5,1.9-7.4,4.9-7.4c2.9,0,4.9,2.5,4.9,7.4s-1.9,7.5-4.9,7.5C150.1,44.4,148.1,41.8,148.1,36.9z
			 M155.2,36.9c0-4-0.9-5.2-2.2-5.2c-1.2,0-2.2,1.2-2.2,5.2c0,4,0.9,5.3,2.2,5.3C154.2,42.1,155.2,40.9,155.2,36.9z"/>
		<path class="st2" d="M159.2,42.4l1.3-1.8c0.9,0.8,1.9,1.5,3.2,1.5c1.5,0,2.5-0.7,2.5-2c0-1.4-0.8-2.3-4-2.3v-2.1
			c2.6,0,3.5-0.9,3.5-2.2c0-1.1-0.7-1.8-1.9-1.8c-1,0-1.9,0.5-2.7,1.3l-1.5-1.8c1.2-1.1,2.6-1.8,4.3-1.8c2.8,0,4.7,1.4,4.7,3.8
			c0,1.6-0.9,2.7-2.4,3.3v0.1c1.6,0.4,2.9,1.7,2.9,3.5c0,2.6-2.3,4.2-5.1,4.2C161.8,44.4,160.3,43.5,159.2,42.4z"/>
		<path class="st2" d="M171,42.5c3.9-3.5,6.2-6.2,6.2-8.4c0-1.5-0.8-2.3-2.2-2.3c-1.1,0-1.9,0.7-2.6,1.5l-1.6-1.6
			c1.3-1.4,2.6-2.2,4.6-2.2c2.7,0,4.5,1.8,4.5,4.4c0,2.6-2.2,5.4-4.8,8c0.7-0.1,1.7-0.2,2.3-0.2h3.1v2.4H171V42.5z"/>
	</g>
</g>
</svg>
