<svg width="200" height="165" viewBox="0 0 200 165" fill="none" xmlns="http://www.w3.org/2000/svg"><path d="M152.765 147.139h-39.29l2.108-21.109v-.025l2.084-21.084v-.024l2.083-21.11v-.024l2.109-21.109h22.547l2.084 21.11v.024l2.083 21.109v.024l2.109 21.084v.025l2.083 21.109z" fill="#E7ECF6"/><path d="M150.681 126.03l-.025-.025-2.084-21.084v-.024l-2.083-21.11v-.024l-2.084-21.109h-5.085l2.109 21.11v.024l2.083 21.109v.024l2.084 21.084v.025l2.108 21.109h5.06l-2.083-21.109z" fill="#D8E2F1"/><path d="M111.564 94.827H57.738V66.004a3.324 3.324 0 013.324-3.324h47.154a3.325 3.325 0 013.324 3.324v28.823h.024z" fill="#EFD887"/><path d="M108.24 62.654h-4.762a3.324 3.324 0 013.323 3.324v28.823h4.763V66.003a3.33 3.33 0 00-3.324-3.349z" fill="#CBAB31"/><path d="M77.606 76.768a3.368 3.368 0 00-4.762-4.763l-3.1 3.101 4.762 4.763 3.1-3.101z" fill="#DF6B57"/><path d="M69.744 75.13l-3.1 3.101a3.369 3.369 0 004.762 4.763l3.1-3.1-4.762-4.763z" fill="#61A2F9"/><path d="M147.135 62.654h-28.03c-.645 0-1.166-.52-1.166-1.166v-3.87c0-.644.521-1.165 1.166-1.165h28.03c.644 0 1.165.521 1.165 1.166v3.87c0 .644-.521 1.165-1.165 1.165z" fill="#365E7D"/><path d="M147.134 56.478h-4.217c.645 0 1.166.521 1.166 1.166v3.87c0 .645-.521 1.166-1.166 1.166h4.217c.645 0 1.166-.521 1.166-1.166v-3.87c0-.645-.521-1.166-1.166-1.166z" fill="#2B4D66"/><path d="M146.489 83.763H119.75l2.108-21.109h22.548l2.083 21.11z" fill="#EFD887"/><path d="M146.489 83.763l-2.084-21.109h-5.085l2.109 21.11h5.06z" fill="#CBAB31"/><path d="M150.682 126.006h-35.099l2.084-21.084h30.906l2.109 21.084z" fill="#EFD887"/><path d="M150.681 126.006l-2.108-21.084h-5.06l2.083 21.084h5.085z" fill="#CBAB31"/><path d="M127.092 98.77H42.186v48.369h84.906v-48.37z" fill="#D4F7FC"/><path d="M42.185 98.77v3.97h77.317a2.826 2.826 0 012.827 2.827v41.548h4.763V98.746H42.186v.025z" fill="#B8E9F2"/><path d="M132.078 92.346H37.225a1.36 1.36 0 00-1.365 1.364v3.696c0 .769.62 1.364 1.365 1.364h94.828a1.36 1.36 0 001.364-1.364v-3.671a1.345 1.345 0 00-1.339-1.39z" fill="#D3EFFB"/><path d="M132.078 92.346h-4.763c.769 0 1.365.62 1.365 1.364v3.696a1.36 1.36 0 01-1.365 1.364h4.763a1.36 1.36 0 001.364-1.364v-3.671c0-.77-.62-1.39-1.364-1.39z" fill="#B1E4F9"/><path d="M103.503 147.139H65.8v-17.041c0-.794.645-1.463 1.463-1.463h34.801c.794 0 1.464.645 1.464 1.463l-.025 17.041z" fill="#E7ECF6"/><path d="M102.064 128.66h-4.762c.793 0 1.463.645 1.463 1.464v17.04h4.763v-17.04c-.025-.819-.67-1.464-1.464-1.464z" fill="#D8E2F1"/><path d="M58.88 120.152h-7.69a1.27 1.27 0 01-1.265-1.265v-10.542c0-.694.57-1.265 1.265-1.265h7.665a1.27 1.27 0 011.265 1.265v10.542a1.233 1.233 0 01-1.24 1.265z" fill="#E7ECF6"/><path d="M58.879 107.055h-3.523c.695 0 1.265.57 1.265 1.265v10.542a1.27 1.27 0 01-1.265 1.265h3.523a1.27 1.27 0 001.265-1.265V108.32a1.27 1.27 0 00-1.265-1.265z" fill="#D8E2F1"/><path d="M78.624 120.152h-7.665a1.27 1.27 0 01-1.265-1.265v-10.542c0-.694.57-1.265 1.265-1.265h7.665a1.27 1.27 0 011.265 1.265v10.542a1.27 1.27 0 01-1.265 1.265z" fill="#E7ECF6"/><path d="M78.624 107.055h-3.522c.694 0 1.265.57 1.265 1.265v10.542a1.27 1.27 0 01-1.265 1.265h3.522a1.27 1.27 0 001.265-1.265V108.32a1.27 1.27 0 00-1.265-1.265z" fill="#D8E2F1"/><path d="M98.368 120.152h-7.664a1.27 1.27 0 01-1.265-1.265v-10.542c0-.694.57-1.265 1.265-1.265h7.664a1.27 1.27 0 011.265 1.265v10.542a1.27 1.27 0 01-1.265 1.265z" fill="#E7ECF6"/><path d="M98.368 107.055h-3.522c.694 0 1.265.57 1.265 1.265v10.542a1.27 1.27 0 01-1.265 1.265h3.522a1.27 1.27 0 001.265-1.265V108.32a1.27 1.27 0 00-1.265-1.265z" fill="#D8E2F1"/><path d="M118.112 120.152h-7.664a1.27 1.27 0 01-1.265-1.265v-10.542c0-.694.57-1.265 1.265-1.265h7.664a1.27 1.27 0 011.265 1.265v10.542a1.27 1.27 0 01-1.265 1.265z" fill="#E7ECF6"/><path d="M118.113 107.055h-3.522c.694 0 1.265.57 1.265 1.265v10.542c0 .694-.571 1.265-1.265 1.265h3.522a1.27 1.27 0 001.265-1.265V108.32a1.27 1.27 0 00-1.265-1.265z" fill="#D8E2F1"/><path d="M63.79 80.613a5.2 5.2 0 001.538 3.696 5.224 5.224 0 003.696 1.538c1.34 0 2.679-.52 3.696-1.538l6.226-6.226a5.24 5.24 0 000-7.391 5.24 5.24 0 00-7.392 0l-6.226 6.226a5.2 5.2 0 00-1.538 3.695zm12.502-7.267a1.497 1.497 0 010 2.133l-1.786 1.786-2.133-2.133 1.785-1.786c.596-.596 1.563-.596 2.134 0zm-8.335 6.2l1.786-1.785 2.133 2.133-1.786 1.786a1.497 1.497 0 01-2.133 0 1.497 1.497 0 010-2.133zm19.149-4.761h17.736c1.017 0 1.86-.843 1.86-1.86 0-1.017-.843-1.86-1.86-1.86H87.106c-1.016 0-1.86.843-1.86 1.86 0 1.042.819 1.86 1.86 1.86zm0 9.153h17.736c1.017 0 1.86-.844 1.86-1.86a1.873 1.873 0 00-1.86-1.861H87.106c-1.016 0-1.86.843-1.86 1.86 0 1.042.819 1.86 1.86 1.86z" fill="#000"/><path d="M159.14 145.278h-4.688l-.521-5.159a1.863 1.863 0 00-2.034-1.662 1.862 1.862 0 00-1.662 2.034l.471 4.787h-21.729v-17.413h20.018l.52 5.16c.1.967.893 1.687 1.861 1.687h.173a1.862 1.862 0 001.662-2.034c-.124-1.265-6.647-67.27-6.747-68.139h.67a3.038 3.038 0 003.026-3.026v-3.87a3.038 3.038 0 00-3.026-3.026h-28.029a3.038 3.038 0 00-3.026 3.026v3.87a3.038 3.038 0 003.026 3.026h.694l-1.885 19.05v.025l-.669 6.87h-3.796v-24.48a5.197 5.197 0 00-5.184-5.185H73.092c-1.017 0-1.86.844-1.86 1.86 0 1.018.843 1.861 1.86 1.861h35.124c.818 0 1.463.67 1.463 1.463v24.483h-50.08V66.002c0-.818.67-1.463 1.463-1.463h4.589c1.017 0 1.86-.843 1.86-1.86 0-1.017-.843-1.86-1.86-1.86h-4.59a5.198 5.198 0 00-5.183 5.183v24.483H37.225A3.218 3.218 0 0034 93.709v3.696a3.218 3.218 0 003.225 3.225h3.1v18.603c0 1.017.844 1.861 1.86 1.861 1.017 0 1.86-.844 1.86-1.861V100.63h81.187v44.648h-19.869v-15.18a3.324 3.324 0 00-3.324-3.324h-34.8a3.324 3.324 0 00-3.325 3.324v15.18H44.046v-18.603a1.874 1.874 0 00-1.86-1.861c-1.017 0-1.86.844-1.86 1.861v18.603H35.86c-1.017 0-1.86.844-1.86 1.861s.843 1.86 1.86 1.86h123.28c1.017 0 1.86-.843 1.86-1.86a1.874 1.874 0 00-1.86-1.861zm-30.163-21.133v-17.388h17.934l1.711 17.388h-19.645zm15.453-42.243h-22.621l1.711-17.388h19.174l1.736 17.388zm-24.631-23.564h26.616v2.456h-26.616v-2.456zM37.721 94.205h93.861v2.704H37.721v-2.704zm94.357 6.425a3.218 3.218 0 003.224-3.225v-3.67a3.234 3.234 0 00-3.224-3.225h-11.113l.472-4.862h23.366l1.736 17.413h-17.562v-2.431h3.101zM67.66 130.52h15.13v14.758H67.66V130.52zm18.852 0h15.13v14.758h-15.13V130.52z" fill="#000"/><path d="M58.88 122.012a3.128 3.128 0 003.125-3.126v-10.542a3.128 3.128 0 00-3.126-3.125h-7.69a3.128 3.128 0 00-3.124 3.125v10.542a3.129 3.129 0 003.125 3.126h7.69zm-7.095-13.097h6.499v9.376h-6.499v-9.376zm26.839 13.097a3.128 3.128 0 003.125-3.126v-10.542a3.128 3.128 0 00-3.125-3.125h-7.665a3.128 3.128 0 00-3.125 3.125v10.542a3.129 3.129 0 003.125 3.126h7.665zm-7.094-13.097h6.499v9.376h-6.5v-9.376zm26.838 13.097a3.13 3.13 0 003.126-3.126v-10.542a3.128 3.128 0 00-3.126-3.125h-7.664a3.128 3.128 0 00-3.126 3.125v10.542a3.129 3.129 0 003.126 3.126h7.664zm-7.094-13.097h6.499v9.376h-6.499v-9.376zm26.838 13.097a3.128 3.128 0 003.126-3.126v-10.542a3.128 3.128 0 00-3.126-3.125h-7.664a3.128 3.128 0 00-3.126 3.125v10.542a3.13 3.13 0 003.126 3.126h7.664zm-7.094-13.097h6.499v9.376h-6.499v-9.376zm13.867-66.327a3.652 3.652 0 013.646 3.646v4.242c0 1.017.843 1.86 1.86 1.86a1.874 1.874 0 001.861-1.86v-4.267a7.368 7.368 0 00-7.367-7.367 3.652 3.652 0 01-3.647-3.646V23.86c0-1.017-.843-1.86-1.86-1.86-1.017 0-1.86.843-1.86 1.86v11.36a7.368 7.368 0 007.367 7.368zm11.012 5.084v2.778c0 1.017.844 1.86 1.861 1.86s1.86-.843 1.86-1.86v-2.778c0-1.017.844-1.86 1.861-1.86h3.1a5.59 5.59 0 005.581-5.581v-9.55c0-1.017-.843-1.86-1.86-1.86a1.874 1.874 0 00-1.861 1.86v9.55c0 1.017-.843 1.86-1.86 1.86h-3.1a5.59 5.59 0 00-5.582 5.58zm1.142-7.465c1.017 0 1.86-.844 1.86-1.86V23.86c0-1.017-.843-1.86-1.86-1.86-1.017 0-1.86.843-1.86 1.86v14.486c0 1.042.818 1.86 1.86 1.86z" fill="#000"/><path d="M127.315 35.766a1.874 1.874 0 001.861-1.86V29.54c0-1.017-.844-1.86-1.861-1.86s-1.86.843-1.86 1.86v4.366c0 1.017.819 1.86 1.86 1.86z" fill="#000"/></svg>