<?xml version="1.0" encoding="utf-8"?>
<!-- Generator: Adobe Illustrator 28.1.0, SVG Export Plug-In . SVG Version: 6.00 Build 0)  -->
<svg version="1.1" id="圖層_1" xmlns="http://www.w3.org/2000/svg" xmlns:xlink="http://www.w3.org/1999/xlink" x="0px" y="0px"
	 viewBox="0 0 200 165" style="enable-background:new 0 0 200 165;" xml:space="preserve">
<style type="text/css">
	.st0{fill:#FFDACC;}
	.st1{fill:#FCCCB9;}
	.st2{fill:#FFECE4;}
	.st3{fill:#64C8FF;}
	.st4{fill:#8FDFFF;}
	.st5{fill:#D4F7FC;}
	.st6{fill:#FE4F60;}
</style>
<g>
	<g>
		<g>
			<g>
				<g>
					<path class="st0" d="M58.1,60l8.3,44.1l10.7-2L68.8,58c-0.6-3-3.4-4.9-6.4-4.4C59.5,54.2,57.5,57,58.1,60z"/>
					<path class="st1" d="M69.9,94.3l4.9,7.8l0.6-9.2l-2.9-15.7c-3.4-4.6-7.9-5.1-9.9-4c-1.2,0.7-1.6,2.2-1.1,3.4
						C69.7,94.4,69.4,93.5,69.9,94.3z"/>
					<path class="st2" d="M80.1,96.6l-4-6.8L63.1,79.6c0,0-5.1-26.6-5.2-27c-0.4-1.5-1.2-2.5-2.1-3.2c-3.5-2.5-7.5,1.1-6.9,6.6
						l4.1,25.6c0.7,6.2,1,10.7,7.6,21.8c5,8.5,6.9,19.8,5.1,29.4l-3.8,7.8l27,3.3l2.4-21.2C94.8,109,87.2,100.8,80.1,96.6L80.1,96.6
						z"/>
					<path class="st0" d="M68.6,140.6l1.6-8.7c1.8-9.7,0.1-19.6-4.9-28.1c-6.6-11.1-7.5-16.3-8.1-22.5l-3.9-26.4
						c-0.3-2.5,0.9-4.4,2.5-5.4c-3.5-2.5-9.7-0.1-9.1,5.4l3.9,26.4c0.7,6.2,1.6,11.3,8.1,22.5c5,8.5,6.7,18.4,4.9,28.1l-1.6,8.7
						l27,3.3l0.1-0.8L68.6,140.6z"/>
					<path class="st3" d="M93.9,146H65.7l-3.6-5.1l3.6-5.1h28.2V146z"/>
					<path class="st4" d="M59.1,135.7h6.6V146h-6.6V135.7z"/>
					<g>
						<g>
							<g>
								<path class="st2" d="M74.8,108.7l-4.9-7.8c0,0-0.1-2.4-0.4-3l-6.2-13.9c-0.6-1.2-0.1-2.7,1.1-3.4c1.2-0.7,2.8-1.2,4.3-0.3
									c0.4,0.3,0.9,0.5,1.3,0.8c2.7,2,3.6,4.1,6.2,8.6L74.8,108.7z"/>
							</g>
						</g>
					</g>
					<path class="st0" d="M68.1,83.3c-0.5-1-0.3-2.2,0.5-2.9c-2.3-1.2-4.8-1.2-6-0.5c-1.2,0.7-1.6,2.2-1.1,3.4
						c8.2,17.7,7.8,16.8,8.4,17.6l0.2,0.3c1.5,2.4,5.2,1.4,5.4-1.4c0-0.1,0.1-0.7-0.3-1.4C75.1,98.3,68.1,83.4,68.1,83.3z"/>
				</g>
				<g>
					<path class="st0" d="M141.9,60l-8.3,44.1l-10.7-2l8.3-44.1c0.6-3,3.4-4.9,6.4-4.4C140.5,54.2,142.5,57,141.9,60z"/>
					<path class="st1" d="M130.1,94.3l-4.9,7.8l-0.6-9.2l2.9-15.7c3.4-4.6,7.9-5.1,9.9-4c1.2,0.7,1.6,2.2,1.1,3.4
						C130.3,94.4,130.7,93.5,130.1,94.3L130.1,94.3z"/>
					<path class="st2" d="M120,96.6l4-6.8l12.9-10.2c0,0,5.1-26.6,5.2-27c0.4-1.5,1.2-2.5,2.1-3.2c3.5-2.5,7.5,1.1,6.9,6.6L147,81.5
						c-0.7,6.2-1,10.7-7.6,21.8c-5,8.5-6.9,19.8-5.1,29.4l3.8,7.8l-27,3.3l-2.4-21.2C105.2,109,112.8,100.8,120,96.6L120,96.6z"/>
					<path class="st0" d="M131.4,140.6l-1.6-8.7c-1.8-9.7-0.1-19.6,4.9-28.1c6.6-11.1,7.5-16.3,8.1-22.5l3.9-26.4
						c0.3-2.5-0.9-4.4-2.5-5.4c3.5-2.5,9.7-0.1,9.1,5.4l-3.9,26.4c-0.7,6.2-1.6,11.3-8.1,22.5c-5,8.5-6.7,18.4-4.9,28.1l1.6,8.7
						l-27,3.3l-0.1-0.8L131.4,140.6z"/>
					<path class="st3" d="M106.1,146h28.2l3.6-5.1l-3.6-5.1h-28.2V146z"/>
					<path class="st4" d="M134.4,135.7h6.6V146h-6.6V135.7z"/>
					<g>
						<g>
							<g>
								<path class="st2" d="M125.2,108.7l4.9-7.8c0,0,0.1-2.4,0.4-3l6.2-13.9c0.6-1.2,0.1-2.7-1.1-3.4c-1.2-0.7-2.8-1.2-4.3-0.3
									c-0.4,0.3-0.9,0.5-1.3,0.8c-2.7,2-3.6,4.1-6.2,8.6L125.2,108.7z"/>
							</g>
						</g>
					</g>
					<path class="st0" d="M131.9,83.3c0.5-1,0.3-2.2-0.5-2.9c2.3-1.2,4.8-1.2,6-0.5c1.2,0.7,1.6,2.2,1.1,3.4
						c-8.2,17.7-7.8,16.8-8.4,17.6l-0.2,0.3c-1.5,2.4-5.2,1.4-5.4-1.4c0-0.1-0.1-0.7,0.3-1.4C125,98.3,131.9,83.4,131.9,83.3z"/>
				</g>
			</g>
			<path class="st5" d="M89.1,83.7c-7-5.5-7.1-7.4-7.1-10.5V45.3l12.8-5.2l8.6-2.2l18.1,7.2v27.9c0,3.1-4.2,8.2-11.1,13.6
				c-2.4,1.9-4.9,3.6-7,5C102,92.4,89.1,83.7,89.1,83.7z"/>
			<path class="st5" d="M96.3,86.6c-7-5.5-11.1-10.5-11.1-13.6V45.1l18.1-7.2l-3.3-1.3l-21.4,8.5v27.9c0,3.1,4.2,8.2,11.1,13.6
				c3.9,3.1,7.9,5.6,10.3,7.1c0.9-0.5,2-1.3,3.3-2.1C101.2,90.2,98.8,88.5,96.3,86.6L96.3,86.6z"/>
			<path class="st2" d="M100,85.8c-1.9-1.2-4.1-2.8-6.2-4.5c-6-4.7-8.1-7.8-8.6-8.8v-23l14.8-5.8l14.8,5.8v23
				c-0.4,1-2.6,4.2-8.6,8.8C104.1,83.1,101.9,84.6,100,85.8L100,85.8z"/>
		</g>
		<g>
			<path d="M93.9,134.1h-2.3l1.3-11.1c3.9-15.3-5.5-23.8-11.7-27.5c-3.7-6.4-2.2-3.6-5.5-9.3l-5.3-28.4c-0.9-4.9-6.5-7.4-10.8-4.7
				c-0.1-0.6-0.1-0.6-0.1-0.7c-1.1-4.5-5.1-5.9-8.4-5.3c-4,0.7-6.7,4.3-6.1,8.2l2.5,17.2c0.1,0.9,1,1.5,1.9,1.4
				c0.9-0.1,1.5-1,1.4-1.9l-2.5-17.2c-0.3-2.6,1.5-4.1,3.4-4.5c1.7-0.3,3.9,0.3,4.6,2.9c0.1,0.3-0.7-3.5,4.9,25.8
				C59.7,80,59.1,82.2,60,84c9.3,19.9,6.4,14.6,13.4,25.6c0.5,0.8,1.5,1,2.3,0.5c0.8-0.5,1-1.5,0.5-2.3c-6.8-11-3.3-3.9-13.2-25.2
				c-0.2-0.5,0-1,0.4-1.3c0.8-0.5,3.3-0.5,5.4,1.2c2.4,1.8,3.2,3.7,5.8,8.2c4.2,7,3.9,7,4.6,7.3c2.8,1.7,6.6,4.5,9,8.9
				c4,7.2,1.7,13.8,1.4,15.6l-1.4,11.6H64.9c0-0.9,4.5-15.5-4.8-31.2C52.9,90.7,53,86.7,51.9,79c-0.1-0.9-1-1.5-1.9-1.4
				c-0.9,0.1-1.5,1-1.4,1.9c1.1,7.3,0.9,12,8.6,25.1c8.6,14.6,4.3,28.4,4.3,29.5h-2.5c-0.9,0-1.7,0.7-1.7,1.7V146
				c0,0.9,0.7,1.7,1.7,1.7h34.8c0.9,0,1.7-0.7,1.7-1.7v-10.3C95.5,134.8,94.8,134.1,93.9,134.1L93.9,134.1z M64.4,77.7
				c-5.4-28.2-3.7-19.2-4-21c2-2.7,6.2-1.7,6.8,1.5l4.1,22C69.2,78.5,66.6,77.7,64.4,77.7z M92.2,144.3H60.7v-7h31.5L92.2,144.3
				L92.2,144.3z"/>
			<path d="M148.9,46.9c-4.1-0.7-7.7,1.8-8.4,5.4l-0.1,0.6c-4.2-2.7-9.9-0.3-10.8,4.7l-5.3,28.4c-3.3,5.8-2.2,3.8-5.5,9.3
				c-6.2,3.8-15.6,12.2-11.7,27.5l1.3,11.1h-2.3c-0.9,0-1.7,0.7-1.7,1.7V146c0,0.9,0.7,1.7,1.7,1.7H141c0.9,0,1.7-0.7,1.7-1.7v-10.3
				c0-0.9-0.7-1.7-1.7-1.7h-2.5c0-1.1-4.4-14.8,4.3-29.5c6.7-11.3,7.7-16.7,8.3-23.1c4.1-27.6,3.9-26.4,3.9-26.5
				C155.4,50.5,152.3,47.5,148.9,46.9L148.9,46.9z M132.8,58.3c0.6-3.3,4.9-4.2,6.8-1.5c-0.3,1.8,1.4-7.2-4,21
				c-2.2-0.1-4.8,0.7-6.9,2.5L132.8,58.3z M151.7,54.6c-4.1,27.8-3.9,26.4-3.9,26.5c-0.7,6.2-1.6,11.1-7.9,21.8
				c-9.2,15.6-4.8,30.2-4.8,31.2H125c-0.9,0-1.7,0.7-1.7,1.7s0.7,1.7,1.7,1.7h12.1c0,0,0,0,0,0c0,0,0,0,0,0h2.2v7h-31.5v-7h10
				c0.9,0,1.7-0.7,1.7-1.7s-0.7-1.7-1.7-1.7h-6.1c-1.5-12.3-1.4-11.6-1.4-11.8c-1.5-5.7-1-10.9,1.5-15.3c2.4-4.3,6.2-7.2,9-8.9
				c0.6-0.4,0.4-0.4,4.6-7.3c2.6-4.5,3.4-6.4,5.8-8.2c2.8-2.2,6.7-1.7,5.8,0.1c-7.9,16.9-7.6,16.3-8.3,17.4l-4.9,7.8
				c-0.5,0.8-0.3,1.8,0.5,2.3c0.8,0.5,1.8,0.3,2.3-0.5c8.3-13.5,2.5-2.5,13.4-25.6c0.9-1.8,0.3-4-1.3-5.2
				c5.6-29.3,4.9-25.4,4.9-25.8C145,48.2,152.2,49.7,151.7,54.6L151.7,54.6z"/>
			<path d="M109.9,86.9c-0.5-0.7-1.6-0.9-2.3-0.3c-2.8,2.1-5.6,3.9-7.6,5.2c-11.7-7.3-19.8-15.2-19.8-18.8V46.2l19.8-7.8l19.8,7.8
				v26.7c0,1.5-1.8,4.6-6.7,9.1c-0.7,0.6-0.7,1.7-0.1,2.3c0.6,0.7,1.7,0.7,2.3,0.1c3.5-3.2,7.8-7.8,7.8-11.6V45.1
				c0-0.7-0.4-1.3-1-1.5l-21.4-8.5c-0.4-0.2-0.8-0.2-1.2,0L78,43.5c-0.6,0.2-1,0.9-1,1.5v27.9c0,7.5,15.7,18.2,22.2,22.1
				c0.5,0.3,1.2,0.3,1.7,0c2.1-1.3,5.3-3.4,8.7-5.9C110.3,88.6,110.5,87.6,109.9,86.9L109.9,86.9z"/>
			<path d="M116.5,49.6c0-0.7-0.4-1.3-1-1.5l-14.8-5.8c-0.4-0.2-0.8-0.2-1.2,0L84.6,48c-0.6,0.2-1,0.9-1,1.5c0,24.2-0.1,23,0.1,23.6
				c2,4.6,11.2,11.2,15.4,14c0.6,0.4,1.3,0.4,1.8,0c4.2-2.8,13.4-9.5,15.4-14C116.6,72.6,116.4,73.7,116.5,49.6z M113.2,72.1
				c-2.3,3.9-9.4,9.2-13.2,11.7c-3.8-2.5-10.9-7.8-13.2-11.7V50.7l13.2-5.2l13.2,5.2V72.1z"/>
		</g>
	</g>
	<g>
		<rect x="91.5" y="60.8" class="st6" width="17" height="5.9"/>
		
			<rect x="91.5" y="60.8" transform="matrix(-1.836970e-16 1 -1 -1.836970e-16 163.6887 -36.3113)" class="st6" width="17" height="5.9"/>
	</g>
</g>
</svg>
