<?xml version="1.0" encoding="utf-8"?>
<!-- Generator: Adobe Illustrator 28.1.0, SVG Export Plug-In . SVG Version: 6.00 Build 0)  -->
<svg version="1.1" id="圖層_1" xmlns="http://www.w3.org/2000/svg" xmlns:xlink="http://www.w3.org/1999/xlink" x="0px" y="0px"
	 viewBox="0 0 200 165" style="enable-background:new 0 0 200 165;" xml:space="preserve">
<style type="text/css">
	.st0{fill:#FFDACC;}
	.st1{fill:#FCCCB9;}
	.st2{fill:#FFECE4;}
	.st3{fill:#64C8FF;}
	.st4{fill:#8FDFFF;}
	.st5{fill:#D4F7FC;}
	.st6{fill:#FE4F60;}
	.st7{fill:#EFD887;}
	.st8{fill:#CBAB31;}
	.st9{fill:#FFDBB1;}
	.st10{fill:#6C7A98;}
	.st11{fill:#56627D;}
	.st12{fill:#FF6D7A;}
	.st13{fill:#B8E9F2;}
	.st14{fill:#FEAD44;}
	.st15{fill:#50B8FF;}
	.st16{fill:#0095F2;}
	.st17{fill:#A3E9FB;}
</style>
<g>
	<path class="st7" d="M152.7,78v58.1c0,4.3-3.5,7.7-7.7,7.7H96.2c-1.5,0-2.9-0.4-4.1-1.2c-2.2-1.4-3.7-3.8-3.7-6.6V78
		c0-2.7,1.4-5.1,3.6-6.5c3.7-2.4,5.7-5.7,6.8-8.7c0,0,0-0.1,0-0.1c1-3,1.1-5.7,1.1-7.2h41.3c0,1.5,0.1,4.3,1.1,7.4
		c1,3.1,3,6.3,6.8,8.7C151.3,72.9,152.7,75.4,152.7,78z"/>
	<g>
		<path class="st8" d="M106.8,70.3V135c0,4.2-3.4,7.7-7.7,7.7h-7c-2.2-1.4-3.7-3.8-3.7-6.6V78c0-2.7,1.4-5.1,3.6-6.5
			c3.7-2.4,5.7-5.7,6.8-8.7c0,0,0-0.1,0-0.1h0.2C103.3,62.6,106.8,66.1,106.8,70.3z"/>
		<path class="st9" d="M119.8,134.8c0,3.3-0.9,6.4-2.5,9.1H96.2c-4.3,0-7.7-3.5-7.7-7.7v-13c1.2-1.5,2.7-2.7,4.4-3.7
			c0.5-0.3,1.1-0.6,1.6-0.8c0.3-0.1,0.6-0.3,0.9-0.4c1.9-0.8,3.9-1.2,5.9-1.3l0.1,0c0.2,0,0.4,0,0.6,0c6.2,0,11.8,3.1,15.1,8.4
			C118.9,128.2,119.8,131.4,119.8,134.8z"/>
		<path class="st8" d="M98.8,62.7c1-3,1.1-5.8,1.1-7.4h41.3c0,1.5,0.1,4.3,1.1,7.4H98.8z"/>
		<path class="st8" d="M152.7,78v58.1c0,4-3.1,7.4-7.1,7.7c1.7-1.4,2.8-3.6,2.8-6V79.8c0-2.7-1.4-5.1-3.6-6.5
			c-7.4-4.8-7.9-13-7.9-16.1l0-1.7h4.3c-0.1,3.1,0.4,11.3,7.9,16.1C151.3,72.9,152.7,75.4,152.7,78z"/>
	</g>
	<rect x="94.6" y="37.3" class="st10" width="51.8" height="21.7"/>
	<rect x="94.6" y="55.4" class="st11" width="51.8" height="3.6"/>
	<rect x="98.1" y="88.1" class="st12" width="44.8" height="38.1"/>
	<rect x="98.1" y="88.1" class="st12" width="8.6" height="38.1"/>
	<rect x="98.1" y="115.6" class="st5" width="44.8" height="10.5"/>
	<g>
		<path class="st13" d="M117.6,126.1H98.1v-8.8c1-0.2,2.1-0.4,3.1-0.4l0.1,0c0.2,0,0.4,0,0.6,0c6.2,0,11.8,3.1,15.1,8.4
			C117.2,125.6,117.4,125.9,117.6,126.1z"/>
	</g>
	<g>
		<path class="st5" d="M125.4,99.6h-2.1v-2.1c0-1.5-1.2-2.8-2.8-2.8l0,0c-1.5,0-2.8,1.2-2.8,2.8v2.1h-2.1c-1.5,0-2.8,1.2-2.8,2.8
			l0,0c0,1.5,1.2,2.8,2.8,2.8h2.1v2.1c0,1.5,1.2,2.8,2.8,2.8l0,0c1.5,0,2.8-1.2,2.8-2.8v-2.1h2.1c1.5,0,2.8-1.2,2.8-2.8l0,0
			C128.1,100.9,126.9,99.6,125.4,99.6z"/>
		<path class="st5" d="M103.3,70.3V135c0,2.3-1.9,4.2-4.2,4.2H74c-1.7,0-3.1-1-3.8-2.5c-0.5,1.1-1.5,2-2.8,2.3
			c-0.3,0.1-0.7,0.1-1.1,0.1H41c-2.3,0-4.2-1.9-4.2-4.2V70.3c0-2.3,1.9-4.2,4.2-4.2h25.4c1.7,0,3.2,1,3.8,2.5
			c0.7-1.4,2.1-2.5,3.8-2.5h25.1C101.4,66.1,103.3,68,103.3,70.3z"/>
	</g>
	<g>
		<path class="st13" d="M103.3,117v18c0,2.3-1.9,4.2-4.2,4.2H74c-1.7,0-3.1-1-3.8-2.5c-0.5,1.1-1.5,2-2.8,2.3
			c-1.5-5.9,0.1-12.4,4.7-16.9c3.4-3.4,7.8-5.2,12.6-5.2c3.1,0,6.1,0.8,8.7,2.3c0.4-0.2,0.7-0.4,1.1-0.6c0.3-0.1,0.6-0.3,0.9-0.4
			c1.9-0.8,3.9-1.2,5.9-1.3l0.1,0c0.2,0,0.4,0,0.6,0C102.4,117,102.8,117,103.3,117z"/>
		<path class="st13" d="M103.3,70.3V135c0,2.3-1.9,4.2-4.2,4.2H96c2.3,0,4.2-1.9,4.2-4.2V70.3c0-2.3-1.9-4.2-4.2-4.2h3.1
			C101.4,66.1,103.3,68,103.3,70.3z"/>
		<path class="st13" d="M60.6,91.8c-1.9,1.9-4.5,3-7.2,3c-2.7,0-5.3-1.1-7.2-3c-1.9-1.9-3-4.5-3-7.2c0-2.7,1.1-5.3,3-7.2
			c1.9-1.9,4.5-3,7.2-3c5.6,0,10.1,4.5,10.1,10.1C63.6,87.4,62.5,89.9,60.6,91.8z"/>
	</g>
	<circle class="st14" cx="53.5" cy="84.6" r="7.3"/>
	<path class="st13" d="M60.6,114.3c-1.9,1.9-4.5,3-7.2,3c-5.6,0-10.1-4.5-10.1-10.1c0-2.7,1.1-5.3,3-7.2c1.9-1.9,4.5-3,7.2-3
		c2.7,0,5.3,1.1,7.2,3c1.9,1.9,3,4.5,3,7.2C63.6,109.8,62.5,112.4,60.6,114.3z"/>
	<circle class="st14" cx="53.5" cy="107.1" r="7.3"/>
	<path class="st13" d="M93.8,91.8c-1.9,1.9-4.5,3-7.2,3c-5.6,0-10.1-4.5-10.1-10.1c0-2.7,1.1-5.3,3-7.2c1.9-1.9,4.5-3,7.2-3
		c5.6,0,10.1,4.5,10.1,10.1C96.8,87.4,95.7,89.9,93.8,91.8z"/>
	<circle class="st14" cx="86.6" cy="84.6" r="7.3"/>
	<path class="st13" d="M93.8,114.3c-1.9,1.9-4.5,3-7.2,3c-2.7,0-5.3-1.1-7.2-3c-1.9-1.9-3-4.5-3-7.2c0-2.7,1.1-5.3,3-7.2
		s4.5-3,7.2-3s5.3,1.1,7.2,3c1.9,1.9,3,4.5,3,7.2C96.8,109.8,95.7,112.4,93.8,114.3z"/>
	<circle class="st14" cx="86.6" cy="107.1" r="7.3"/>
	<path class="st15" d="M116.3,134.8c0,7.9-6.4,14.3-14.3,14.3c-1.9,0-3.8-0.4-5.4-1.1c-0.2-0.1-0.5-0.2-0.7-0.3
		c-0.4-0.2-0.9-0.4-1.3-0.7c-4.2-2.5-6.9-7.1-6.9-12.3c0-5.2,2.8-9.8,7-12.3c0.4-0.2,0.8-0.5,1.3-0.7c0.2-0.1,0.5-0.2,0.7-0.3
		c1.5-0.6,3.1-1,4.8-1c0.2,0,0.4,0,0.6,0c5.1,0,9.6,2.7,12.2,6.7C115.5,129.4,116.3,132,116.3,134.8z"/>
	<path class="st16" d="M97.3,147.3c-0.3,0.3-0.5,0.5-0.8,0.7c-0.2-0.1-0.5-0.2-0.7-0.3c-0.4-0.2-0.9-0.4-1.3-0.7
		c-4.2-2.5-6.9-7.1-6.9-12.3c0-5.2,2.8-9.8,7-12.3c0.4-0.2,0.8-0.5,1.3-0.7c0.2-0.1,0.5-0.2,0.7-0.3c0.2,0.2,0.5,0.4,0.7,0.6
		C104.3,129.1,104.3,140.4,97.3,147.3z"/>
	<circle class="st17" cx="84.7" cy="134.7" r="14.3"/>
	<path d="M152.7,90.4c-1,0-1.7,0.8-1.7,1.7v44c0,3.3-2.7,6-6,6h-13c-1,0-1.7,0.8-1.7,1.7c0,1,0.8,1.7,1.7,1.7h13
		c5.2,0,9.5-4.3,9.5-9.5v-44C154.4,91.2,153.6,90.4,152.7,90.4z"/>
	<path d="M124.5,142.1h-8.3c1.1-2.2,1.8-4.7,1.8-7.3c0-2.5-0.6-4.8-1.6-6.9H143c1,0,1.7-0.8,1.7-1.7v-10.5c0,0,0,0,0,0c0,0,0,0,0,0
		V88.1c0-1-0.8-1.7-1.7-1.7h-38v-16c0-0.8-0.1-1.5-0.4-2.2c0.2,0.1,0.5,0.2,0.8,0.2h17.5c1,0,1.7-0.8,1.7-1.7c0-1-0.8-1.7-1.7-1.7
		h-17.5c-0.9,0-1.7,0.8-1.7,1.7c-0.9-1.1-2.2-1.8-3.6-2c0.5-1.2,0.9-2.4,1.1-3.7h38.7c0.8,4,2.9,8.9,8.2,12.2c1.8,1.1,2.8,3,2.8,5.1
		v6.7c0,1,0.8,1.7,1.7,1.7s1.7-0.8,1.7-1.7V78c0-3.2-1.7-6.2-4.4-8c-3.9-2.5-5.7-6.2-6.5-9.3h3c1,0,1.7-0.8,1.7-1.7V37.3
		c0-1-0.8-1.7-1.7-1.7H94.6c-1,0-1.7,0.8-1.7,1.7V59c0,1,0.8,1.7,1.7,1.7h3c-0.3,1.3-0.8,2.5-1.4,3.7H74c-1.4,0-2.8,0.5-3.8,1.4
		c-1-0.9-2.4-1.4-3.8-1.4h-7.5c-1,0-1.7,0.8-1.7,1.7s0.8,1.7,1.7,1.7h7.5c1,0,1.8,0.6,2.2,1.4c0.3,0.6,0.9,1,1.6,1c0,0,0,0,0,0
		c0.7,0,1.3-0.4,1.6-1c0.4-0.9,1.3-1.4,2.2-1.4h25.1c1.3,0,2.4,1.1,2.4,2.4v48.4c-2.9,0.1-5.7,0.9-8.1,2.5c-2.6-1.7-5.6-2.5-8.7-2.5
		c-4.3,0-8.3,1.7-11.4,4.7c-1.8,1.8-3.1,4-3.9,6.4H46.3c-1,0-1.7,0.8-1.7,1.7c0,1,0.8,1.7,1.7,1.7h22.4c0,0.5-0.1,1-0.1,1.5
		c0,0.4,0,0.8,0,1.1c0,0-0.1,0.1-0.1,0.2c-0.4,0.9-1.3,1.4-2.2,1.4H41c-1.3,0-2.4-1.1-2.4-2.4V70.3c0-1.3,1.1-2.4,2.4-2.4h10.5
		c1,0,1.7-0.8,1.7-1.7c0-1-0.8-1.7-1.7-1.7H41c-3.3,0-5.9,2.7-5.9,5.9V135c0,3.3,2.7,5.9,5.9,5.9h25.4c1.1,0,2.2-0.3,3.1-0.9
		c0.8,2.3,2.1,4.3,3.8,6.1c3,3,7.1,4.7,11.4,4.7c3.1,0,6-0.9,8.6-2.5c2.6,1.7,5.6,2.5,8.7,2.5c4.7,0,9-2,11.9-5.3h10.7
		c1,0,1.7-0.8,1.7-1.7C126.3,142.9,125.5,142.1,124.5,142.1z M124.8,57.2h-8.5V39h8.5L124.8,57.2L124.8,57.2z M128.3,39h8.5v18.2
		h-8.5L128.3,39L128.3,39z M112.8,57.2h-8.5V39h8.5V57.2z M144.7,57.2h-4.4V39h4.4V57.2L144.7,57.2z M96.4,39h4.4v18.2h-4.4V39z
		 M114.2,124.4c-2.3-2.7-5.5-4.7-9.2-5.4v-1.6h36.2v7L114.2,124.4L114.2,124.4z M141.2,89.8v24H105v-24H141.2z M75.8,143.6
		c-1.8-1.8-2.9-4-3.4-6.4c0,0,0-0.1,0-0.1c-0.2-0.8-0.2-1.6-0.2-2.4c0-3.4,1.3-6.5,3.7-8.9c2.5-2.5,5.7-3.7,8.9-3.7
		c3.2,0,6.4,1.2,8.9,3.7c2.4,2.4,3.7,5.5,3.7,8.9c0,3.4-1.3,6.5-3.7,8.9C88.7,148.5,80.7,148.5,75.8,143.6z M102,147.4
		c-2,0-4-0.5-5.8-1.4c1.5-1.6,2.7-3.3,3.4-5.3h7.1c1,0,1.7-0.8,1.7-1.7c0-1-0.8-1.7-1.7-1.7h-6.1c0.8-4.8-0.7-9.9-4.3-13.7
		c1.8-0.9,3.7-1.4,5.7-1.4c6.9,0,12.6,5.6,12.6,12.6C114.5,141.7,108.9,147.4,102,147.4z"/>
	<path d="M128.2,64.8c-1,0-1.7,0.8-1.7,1.7s0.8,1.7,1.7,1.7h3.5c1,0,1.7-0.8,1.7-1.7s-0.8-1.7-1.7-1.7H128.2z"/>
	<path d="M127.6,119.1h-14.1c-1,0-1.7,0.8-1.7,1.7c0,1,0.8,1.7,1.7,1.7h14.1c1,0,1.7-0.8,1.7-1.7
		C129.4,119.9,128.6,119.1,127.6,119.1z"/>
	<path d="M115.7,106.9h0.3v0.3c0,2.5,2,4.5,4.5,4.5c2.5,0,4.5-2,4.5-4.5v-0.3h0.3c2.5,0,4.5-2,4.5-4.5c0-2.5-2-4.5-4.5-4.5h-0.3
		v-0.3c0-2.5-2-4.5-4.5-4.5c-2.5,0-4.5,2-4.5,4.5v0.3h-0.3c-2.5,0-4.5,2-4.5,4.5C111.2,104.9,113.3,106.9,115.7,106.9z M115.7,101.4
		h2.1c1,0,1.7-0.8,1.7-1.7v-2.1c0-0.6,0.5-1,1-1c0.6,0,1,0.5,1,1v2.1c0,1,0.8,1.7,1.7,1.7h2.1c0.6,0,1,0.5,1,1c0,0.6-0.5,1-1,1h-2.1
		c-1,0-1.7,0.8-1.7,1.7v2.1c0,0.6-0.5,1-1,1c-0.6,0-1-0.5-1-1v-2.1c0-1-0.8-1.7-1.7-1.7h-2.1c-0.6,0-1-0.5-1-1
		C114.7,101.8,115.2,101.4,115.7,101.4z"/>
	<path d="M71.9,118.1V73.3c0-1-0.8-1.7-1.7-1.7s-1.7,0.8-1.7,1.7v44.8c0,1,0.8,1.7,1.7,1.7S71.9,119,71.9,118.1z"/>
	<path d="M46.3,124.1c-1,0-1.7,0.8-1.7,1.7c0,1,0.8,1.7,1.7,1.7h4.9c1,0,1.7-0.8,1.7-1.7c0-1-0.8-1.7-1.7-1.7H46.3z"/>
	<path d="M53.5,75.6c-5,0-9,4-9,9c0,5,4,9,9,9s9-4,9-9C62.5,79.7,58.4,75.6,53.5,75.6z M53.5,90.2c-3,0-5.5-2.5-5.5-5.5
		s2.5-5.5,5.5-5.5c3,0,5.5,2.5,5.5,5.5S56.5,90.2,53.5,90.2z"/>
	<path d="M51.2,82.2c-1,0-1.7,0.8-1.7,1.7v1.4c0,1,0.8,1.7,1.7,1.7s1.7-0.8,1.7-1.7v-1.4C52.9,83,52.1,82.2,51.2,82.2z"/>
	<path d="M62.5,107.1c0-5-4-9-9-9c-5,0-9,4-9,9c0,5,4,9,9,9S62.5,112.1,62.5,107.1z M48,107.1c0-3,2.5-5.5,5.5-5.5
		c3,0,5.5,2.5,5.5,5.5c0,3-2.5,5.5-5.5,5.5C50.4,112.7,48,110.2,48,107.1z"/>
	<path d="M51.2,104.7c-1,0-1.7,0.8-1.7,1.7v1.4c0,1,0.8,1.7,1.7,1.7s1.7-0.8,1.7-1.7v-1.4C52.9,105.5,52.1,104.7,51.2,104.7z"/>
	<path d="M86.6,93.7c5,0,9-4,9-9c0-5-4-9-9-9c-5,0-9,4-9,9C77.6,89.6,81.7,93.7,86.6,93.7z M86.6,79.1c3,0,5.5,2.5,5.5,5.5
		s-2.5,5.5-5.5,5.5c-3,0-5.5-2.5-5.5-5.5S83.6,79.1,86.6,79.1z"/>
	<path d="M84.3,87.1c1,0,1.7-0.8,1.7-1.7v-1.4c0-1-0.8-1.7-1.7-1.7c-1,0-1.7,0.8-1.7,1.7v1.4C82.6,86.3,83.4,87.1,84.3,87.1z"/>
	<path d="M86.6,116.1c5,0,9-4,9-9c0-5-4-9-9-9c-5,0-9,4-9,9C77.6,112.1,81.7,116.1,86.6,116.1z M86.6,101.6c3,0,5.5,2.5,5.5,5.5
		c0,3-2.5,5.5-5.5,5.5c-3,0-5.5-2.5-5.5-5.5C81.1,104.1,83.6,101.6,86.6,101.6z"/>
	<path d="M84.3,109.6c1,0,1.7-0.8,1.7-1.7v-1.4c0-1-0.8-1.7-1.7-1.7c-1,0-1.7,0.8-1.7,1.7v1.4C82.6,108.8,83.4,109.6,84.3,109.6z"/>
	<path d="M79.6,133.1c-0.7-0.7-1.8-0.7-2.5,0c-0.7,0.7-0.7,1.8,0,2.5l6.7,6.7c0.3,0.3,0.8,0.5,1.2,0.5c0.4,0,0.9-0.2,1.2-0.5
		c0.7-0.7,0.7-1.8,0-2.5L79.6,133.1z"/>
</g>
</svg>
