<?xml version="1.0" encoding="utf-8"?>
<!-- Generator: Adobe Illustrator 28.1.0, SVG Export Plug-In . SVG Version: 6.00 Build 0)  -->
<svg version="1.1" id="圖層_1" xmlns="http://www.w3.org/2000/svg" xmlns:xlink="http://www.w3.org/1999/xlink" x="0px" y="0px"
	 viewBox="0 0 200 165" style="enable-background:new 0 0 200 165;" xml:space="preserve">
<style type="text/css">
	.st0{fill:#6C7A98;}
	.st1{fill:#56627D;}
	.st2{fill:#64C8FF;}
	.st3{fill:#8FDFFF;}
	.st4{fill:#FFB22A;}
	.st5{fill:#FEE07D;}
	.st6{fill:#FFCF64;}
</style>
<g>
	<g>
		<path class="st0" d="M140.6,46.8L51.5,84.5c-2.1,0.9-4.5-0.5-4.8-2.7c-0.2-1.5,0.7-3,2.1-3.6l86.4-36.6L140.6,46.8z"/>
		<path class="st1" d="M53.1,79.5c-0.2-1.5,0.5-3.4,1.9-4l-6.2,2.6c-1.4,0.6-2.3,2.1-2.1,3.6c0.3,2.3,2.7,3.6,4.8,2.7l4.7-2
			C54.7,82.4,53.3,81.2,53.1,79.5L53.1,79.5z"/>
		<path class="st1" d="M96.1,65.6l18.9-8c-0.3-2.4-1.3-4.6-2.9-6.3l-18.5,7.8C93.7,61.6,94.6,63.8,96.1,65.6L96.1,65.6z"/>
		<g>
			<path class="st2" d="M146.3,61.6l-6.6,2.8l-14-32.9l6.6-2.8l9.4,3.8l8.4,19.7L146.3,61.6z"/>
		</g>
		<path class="st3" d="M125.7,31.6l5.8-2.5l14,32.9l-5.8,2.5L125.7,31.6z"/>
		<path class="st4" d="M53.5,128.8h10.7v9.6H53.5V128.8z"/>
		<path class="st4" d="M139.3,107.3h7.1v31.1h-7.1V107.3z"/>
		<path class="st2" d="M46.4,135.9h107.2v7.1H46.4V135.9z"/>
		<path class="st3" d="M46.4,135.9h6.9v7.1h-6.9V135.9z"/>
		<circle class="st5" cx="98.1" cy="60.9" r="10.7"/>
		<path class="st6" d="M94.5,60.9c0-4.7,3-8.6,7.1-10.1c-1.1-0.4-2.3-0.6-3.6-0.6c-5.9,0-10.7,4.8-10.7,10.7S92.1,71.6,98,71.6
			c1.3,0,2.5-0.2,3.6-0.6C97.5,69.5,94.5,65.6,94.5,60.9z"/>
		<circle class="st4" cx="98.1" cy="60.9" r="3.6"/>
	</g>
	<g>
		<path d="M98.1,66.2c2.9,0,5.3-2.4,5.3-5.3c0-2.9-2.4-5.3-5.3-5.3s-5.3,2.4-5.3,5.3C92.8,63.8,95.2,66.2,98.1,66.2z M98.1,59
			c1,0,1.8,0.8,1.8,1.8s-0.8,1.8-1.8,1.8s-1.8-0.8-1.8-1.8C96.2,59.9,97.1,59,98.1,59z"/>
		<path d="M153.6,134.2h-5.4v-12.4c0-1-0.8-1.7-1.7-1.7c-1,0-1.7,0.8-1.7,1.7v12.4H141v-25.1h3.7v5.2c0,1,0.8,1.7,1.7,1.7
			c1,0,1.7-0.8,1.7-1.7v-7c0-1-0.8-1.7-1.7-1.7h-1.8V64.2l2.3-1c1.2-0.5,0.7-1,4.7-10.3c0.2-0.5,0.2-1,0-1.4l-8.4-19.7
			c-0.2-0.4-0.5-0.8-1-1l-9.4-3.8c-0.4-0.2-0.9-0.2-1.3,0l-6.5,3c-0.9,0.4-1.3,1.4-0.9,2.3c5.7,13.4,4.1,9.6,4.4,10.3l-21.9,9.3
			c-7.9-7.3-20.7-1.9-20.9,8.9l-15.1,6.4c-0.9,0.4-1.3,1.4-0.9,2.3s1.4,1.3,2.3,0.9l14.2-6c0.3,1.1,0.8,2.2,1.4,3.2
			C82.9,69.3,55.3,81,50.8,82.9c-1,0.4-2.2-0.2-2.4-1.4c-0.1-0.8,0.3-1.5,1-1.8L65,73.2c0.9-0.4,1.3-1.4,0.9-2.3s-1.4-1.3-2.3-0.9
			l-15.5,6.6C46,77.5,44.7,79.7,45,82c0.4,3.4,4,5.4,7.1,4.1l5-2.1v43.1h-3.6c-1,0-1.7,0.8-1.7,1.7v5.4h-5.4c-1,0-1.7,0.8-1.7,1.7
			v7.1c0,1,0.8,1.7,1.7,1.7h39.1c1,0,1.7-0.8,1.7-1.7s-0.8-1.7-1.7-1.7H48.1v-3.7h103.7v3.7H93.1c-1,0-1.7,0.8-1.7,1.7
			s0.8,1.7,1.7,1.7h60.5c1,0,1.7-0.8,1.7-1.7v-7.1C155.3,135,154.6,134.2,153.6,134.2L153.6,134.2z M141.2,105.6h-1.8
			c-1,0-1.7,0.8-1.7,1.7v26.9H123c-0.5-2.1-14.2-62.7-14.9-65.7c1.5-2,2.5-4.5,2.6-7.1l22-9.3c1.6,3.7,4.6,10.8,5.6,13.1
			c0.4,0.9,1.4,1.3,2.3,0.9l0.8-0.3L141.2,105.6L141.2,105.6z M140.9,35.3l6.7,15.7l-10.8,2.3c-1.5-3.6-3.3-7.8-4.7-10.9L140.9,35.3
			z M131.2,48.9l-21,8.9c-0.3-1.1-0.7-2.2-1.3-3.2l21-8.9L131.2,48.9z M115.4,117l3.6,15.7l-17.1-8.7L115.4,117z M98.1,122L83,114.3
			l15.1-10.1l15.1,10.1L98.1,122z M101.2,102.1l9.4-6.3l3.4,14.8L101.2,102.1z M98.1,100.1L87.4,93l10.7-8.2l10.7,8.2L98.1,100.1z
			 M100.9,82.6l5.7-4.4l2.4,10.6L100.9,82.6z M105,71.2l0.7,3.3L98,80.4l-7.7-5.9l0.7-3.3C95.4,74,100.8,74,105,71.2z M89.6,78.2
			l5.7,4.4l-8.1,6.2L89.6,78.2z M85.6,95.9l9.4,6.3l-12.8,8.5L85.6,95.9z M80.8,117l13.5,6.9l-17.1,8.7L80.8,117z M98.1,125.9
			l16.2,8.3H81.9L98.1,125.9z M144.9,60.3l-4.3,1.8l-2.4-5.7l9-1.9L144.9,60.3z M132.2,30.6l6,2.4l-7.5,6l-2.8-6.6L132.2,30.6z
			 M98.1,51.9c5,0,9,4,9,9s-4,9-9,9s-9-4-9-9S93.1,51.9,98.1,51.9L98.1,51.9z M60.6,82.5l27-11.5c-0.6,2.7-13.7,60.4-14.4,63.2H66
			v-5.4c0-1-0.8-1.7-1.7-1.7h-3.6L60.6,82.5z M55.3,130.5h7.3v3.7h-7.3V130.5z"/>
	</g>
</g>
</svg>
