<svg width="200" height="165" viewBox="0 0 200 165" fill="none" xmlns="http://www.w3.org/2000/svg"><path d="M104.415 66.24h-6.854a3.929 3.929 0 01-3.923-3.936v-3.937h14.676v3.937a3.878 3.878 0 01-3.899 3.936z" fill="#FFD15B"/><path d="M81.269 52.84L53.526 80.674l5.532 5.55L86.8 58.389l-5.531-5.55z" fill="#C5D3DD"/><path d="M60.192 83.443h-7.823v16.208h7.823V83.443z" fill="#C5D3DD"/><path d="M60.216 99.65h-7.847v5.881c0 1.093.872 1.968 1.962 1.968h3.923c1.09 0 1.962-.875 1.962-1.968v-5.88z" fill="#FFD15B"/><path d="M56.292 75.596c4.335 0 7.823 3.523 7.823 7.848 0 4.325-3.512 7.873-7.823 7.873-4.31 0-7.822-3.523-7.822-7.848 0-4.326 3.487-7.873 7.822-7.873z" fill="#9FACBA"/><path d="M120.706 52.833l-5.531 5.55 13.837 13.883 5.531-5.55-13.837-13.883z" fill="#C5D3DD"/><path d="M135.705 69.496h-7.822v16.207h7.822V69.496z" fill="#C5D3DD"/><path d="M127.883 85.703h7.822v5.88a1.957 1.957 0 01-1.961 1.969h-3.924a1.957 1.957 0 01-1.962-1.969v-5.88h.025z" fill="#FFD15B"/><path d="M131.806 61.648c4.335 0 7.823 3.524 7.823 7.849s-3.512 7.848-7.823 7.848c-4.335 0-7.823-3.523-7.823-7.848 0-4.325 3.488-7.849 7.823-7.849z" fill="#9FACBA"/><path d="M159.222 42.67H42.778a1.957 1.957 0 01-1.962-1.968v-3.911c0-1.094.872-1.969 1.962-1.969h116.444c1.09 0 1.962.875 1.962 1.968v3.937a1.952 1.952 0 01-1.962 1.944z" fill="#C5D3DD"/><path d="M125.461 58.391H76.539a2.443 2.443 0 01-2.446-2.454V45.124c0-1.36 1.09-2.454 2.446-2.454h48.922a2.443 2.443 0 012.446 2.454v10.789c0 1.385-1.09 2.478-2.446 2.478z" fill="#9FACBA"/><path d="M125.461 42.67h-7.338a2.443 2.443 0 012.446 2.454v10.789c0 1.36-1.09 2.454-2.446 2.454h7.338a2.443 2.443 0 002.446-2.454V45.124a2.443 2.443 0 00-2.446-2.454z" fill="#8D9CA8"/><path d="M113.715 50.518h-25.43a1.957 1.957 0 01-1.962-1.968v-3.912c0-1.093.872-1.968 1.962-1.968h25.454c1.09 0 1.962.875 1.962 1.968v3.937a1.99 1.99 0 01-1.986 1.943z" fill="#FFD15B"/><path d="M159.222 34.822h-7.823c1.09 0 1.962.875 1.962 1.968v3.937a1.957 1.957 0 01-1.962 1.968h7.823c1.09 0 1.962-.875 1.962-1.968V36.79a1.957 1.957 0 00-1.962-1.969z" fill="#B6C4CF"/><path d="M159.222 33h-21.7c-.993 0-1.817.826-1.817 1.822 0 .997.824 1.823 1.817 1.823h21.7c.073 0 .145.073.145.146v3.936c0 .073-.072.146-.145.146H42.778c-.072 0-.145-.073-.145-.146v-3.936c0-.073.072-.146.145-.146h86.292c.992 0 1.816-.826 1.816-1.823 0-.996-.824-1.822-1.841-1.822H42.778A3.79 3.79 0 0039 36.79v3.937a3.79 3.79 0 003.778 3.79h15.428l-.776.778a10.127 10.127 0 00-2.978 7.193v21.48c-4.457.85-7.823 4.786-7.823 9.5a9.661 9.661 0 003.923 7.776v14.312a3.79 3.79 0 003.779 3.791h.145v2.77c0 .996.823 1.822 1.816 1.822.993 0 1.817-.826 1.817-1.822v-2.77h.145a3.79 3.79 0 003.778-3.791V91.244c2.374-1.774 3.924-4.593 3.924-7.776 0-.486-.049-.972-.097-1.433l5.57-5.589a1.838 1.838 0 000-2.576 1.823 1.823 0 00-2.567 0l-4.432 4.398a9.396 9.396 0 00-2.98-2.964l15.04-15.09h5.934l-7.605 7.63a1.838 1.838 0 000 2.576c.364.364.824.535 1.284.535.46 0 .92-.17 1.284-.535l10.172-10.206h4.286v2.114c0 3.16 2.567 5.76 5.74 5.76h6.854c3.148 0 5.74-2.576 5.74-5.76v-2.114h4.287l7.822 7.849a9.38 9.38 0 00-.097 1.434c0 3.183 1.55 6.001 3.924 7.775v14.312a3.79 3.79 0 003.778 3.79h.145v2.77c0 .997.824 1.823 1.817 1.823s1.816-.826 1.816-1.822v-2.77h.145a3.79 3.79 0 003.779-3.79V77.271a9.608 9.608 0 003.729-5.953h4.093c4.965 0 9.01-4.058 9.01-9.04V44.494h4.843c2.083 0 3.778-1.7 3.778-3.79V36.79C163 34.7 161.305 33 159.222 33zM76.539 56.57a.642.642 0 01-.63-.632V45.125c0-.34.267-.632.63-.632h7.992v4.082a3.79 3.79 0 003.778 3.791h25.454c2.083 0 3.778-1.7 3.778-3.79v-4.083h7.993c.339 0 .629.292.629.632v10.789c0 .34-.29.631-.629.631H76.539v.025zm37.321-11.93v3.935c0 .073-.073.146-.145.146h-25.43c-.072 0-.145-.073-.145-.145v-3.937c0-.073.048-.146.145-.146h25.454c.073 0 .121.073.121.146zm15.815-.147h10.123v1.555a2.65 2.65 0 01-2.639 2.649h-7.46v-3.572c.024-.219 0-.413-.024-.632zm-69.653 3.353l3.342-3.353h8.985a5.152 5.152 0 00-.048.632v10.789c0 .947.315 1.822.823 2.527L58.133 73.48V52.464c-.024-1.75.654-3.377 1.889-4.617zm-1.647 57.71c0 .073-.073.146-.145.146h-3.9c-.072 0-.145-.073-.145-.146v-4.058h4.19v4.058zm.024-7.727h-4.214v-4.933a9.98 9.98 0 002.107.243 8.62 8.62 0 002.107-.243v4.933zm-2.107-8.334c-3.318 0-6.006-2.698-6.006-6.027s2.688-6.026 6.006-6.026 6.006 2.698 6.006 6.026c0 3.305-2.688 6.026-6.006 6.026zm50.23-27.19a2.112 2.112 0 01-2.107 2.113h-6.854a2.112 2.112 0 01-2.107-2.114v-2.09h11.044l.024 2.09zm13.054-2.09h5.933l1.114 1.117a9.732 9.732 0 00-2.978 2.989l-4.069-4.106zm14.313 31.37c0 .072-.073.145-.145.145h-3.924c-.072 0-.145-.073-.145-.146v-4.058h4.19v4.058h.024zm0-7.703h-4.19v-4.933a9.988 9.988 0 002.107.243 8.62 8.62 0 002.107-.243v4.933h-.024zm-2.083-8.36c-3.318 0-6.006-2.696-6.006-6.025 0-3.33 2.688-6.026 6.006-6.026s6.006 2.697 6.006 6.026c0 3.329-2.712 6.026-6.006 6.026zm18.939-13.242c0 2.964-2.422 5.394-5.376 5.394h-4.093c-.848-4.47-4.771-7.848-9.47-7.848-.484 0-.969.048-1.429.097l-1.453-1.482c.509-.705.824-1.58.824-2.527v-3.572h7.459c3.463 0 6.273-2.819 6.273-6.294v-1.555h7.29V62.28h-.025z" fill="#000"/><path d="M131.807 67.674c.993 0 1.816.826 1.816 1.822 0 .997-.823 1.823-1.816 1.823a1.833 1.833 0 01-1.817-1.823c0-1.02.799-1.822 1.817-1.822zM56.292 81.621c.993 0 1.816.826 1.816 1.823 0 .996-.823 1.822-1.816 1.822a1.833 1.833 0 01-1.816-1.823c0-.996.799-1.822 1.816-1.822z" fill="#000"/><path d="M103.495 118.629v2.503H91.07v-4.981H101c1.38-.025 2.495 1.093 2.495 2.478z" fill="#3E3D42"/><path d="M91.07 146.037c0 4.811-3.898 8.723-8.694 8.723-4.795 0-8.694-3.912-8.694-8.723 0-.85.12-1.677.363-2.503 1.356-4.616 6.2-7.241 10.802-5.88a8.789 8.789 0 015.86 5.88c.243.826.364 1.653.364 2.503z" fill="#57565C"/><path d="M82.375 143.535a2.495 2.495 0 012.495 2.503 2.495 2.495 0 11-4.99 0 2.495 2.495 0 012.495-2.503z" fill="#3E3D42"/><path d="M91.07 146.038H73.683c0-.851.12-1.677.363-2.503h16.662a8.81 8.81 0 01.364 2.503z" fill="#3E3D42"/><path d="M135.778 146.037c-.024 4.811-3.924 8.723-8.719 8.699-4.795 0-8.694-3.937-8.67-8.748 0-.875.145-1.75.387-2.576.121-.388.267-.753.436-1.117a8.534 8.534 0 011.768-2.503 8.95 8.95 0 013.706-2.163 8.78 8.78 0 012.373-.34c2.277 0 4.456.899 6.079 2.503.751.704 1.332 1.555 1.768 2.503a8.402 8.402 0 01.872 3.742z" fill="#57565C"/><path d="M127.083 143.535a2.495 2.495 0 012.495 2.503 2.495 2.495 0 11-4.989 0c.024-1.385 1.138-2.503 2.494-2.503zm-2.373-5.881l-.024.097a7.965 7.965 0 01-.799 2.066 7.299 7.299 0 01-2.083 2.308 7.297 7.297 0 01-3.028 1.288 8.77 8.77 0 015.934-5.759z" fill="#3E3D42"/><path d="M134.93 142.296h-15.694a8.553 8.553 0 011.768-2.503h12.158a9.004 9.004 0 011.768 2.503z" fill="#3E3D42"/><path d="M124.613 127.353l-2.397 10.399a7.932 7.932 0 01-.8 2.066 7.284 7.284 0 01-2.082 2.308 7.45 7.45 0 01-4.384 1.434H67.457v-7.484c0-1.75.315-3.499.896-5.152h.024a15.58 15.58 0 011.478-2.988c2.76-4.253 7.46-6.828 12.497-6.828h19.883v14.944c0 1.385 1.114 2.478 2.495 2.502h7.459c2.737 0 4.965-2.235 4.965-4.981v-24.93h4.965l.339 2.502 1.162 8.724.339 2.502.654 4.982z" fill="#D4F7FC"/><path d="M115.919 98.68h9.93c.678 0 1.235.559 1.235 1.239v7.484c0 .68-.557 1.239-1.235 1.239h-9.93a3.738 3.738 0 01-3.73-3.742v-2.503c0-2.041 1.672-3.717 3.73-3.717z" fill="#64C8FF"/><path d="M73.681 116.125h17.39v4.981H73.68a2.49 2.49 0 110-4.981z" fill="#57565C"/><path d="M99.765 101.159c0 6.123-3.197 11.809-8.428 14.943l-.267.146c-5.473 3.183-12.206 3.11-17.631-.146h-.024c-8.235-4.957-10.899-15.672-5.982-23.934 4.94-8.261 15.62-10.934 23.855-6.002 5.255 3.184 8.477 8.87 8.477 14.993z" fill="#EFD887"/><path d="M97.27 133.573v4.981H72.422c0-4.13 3.342-7.484 7.46-7.484h14.894c1.38.025 2.494 1.142 2.494 2.503z" fill="#64C8FF"/><path d="M97.27 138.553v4.981H72.422v-4.981H97.27z" fill="#E6E7E8"/><path d="M137.014 139.817h-15.621a7.647 7.647 0 00.799-2.066l2.397-10.399c.824 0 1.623.072 2.447.243 5.812 1.166 9.978 6.269 9.978 12.222zm-19.231-37.395c1.018 0 1.865.826 1.865 1.871 0 1.02-.823 1.871-1.865 1.871h-11.189a1.869 1.869 0 01-1.865-1.871c0-1.021.824-1.871 1.865-1.871h11.189zm14.266-2.504v7.484h-1.235a3.738 3.738 0 01-3.73-3.742 3.738 3.738 0 013.73-3.742h1.235z" fill="#64C8FF"/><path d="M122.458 111.145h-5.304v-2.502h4.965l.339 2.502zm4.578 16.425l-2.35 10.181a7.93 7.93 0 01-.799 2.066h-2.494a7.647 7.647 0 00.799-2.066l2.397-10.399c.824 0 1.647.072 2.447.218z" fill="#1E81CE"/><path d="M89.57 103.101a6.892 6.892 0 01-.752 1.798l1.454 2.43-1.744 1.749-2.422-1.458a7.774 7.774 0 01-1.792.754l-.678 2.745H81.14l-.678-2.745a6.817 6.817 0 01-1.792-.754l-2.422 1.458-1.744-1.749 1.453-2.43a7.836 7.836 0 01-.75-1.798l-2.737-.681v-2.502l2.736-.68c.17-.632.412-1.24.751-1.799l-1.453-2.43 1.744-1.75 2.422 1.459a7.78 7.78 0 011.792-.754l.678-2.745h2.494l.679 2.746c.63.17 1.235.413 1.792.753l2.422-1.458 1.743 1.75-1.453 2.43c.315.558.582 1.166.751 1.797l2.737.68v2.503l-2.737.681z" fill="#D8D7DA"/><path d="M82.376 97.44a3.737 3.737 0 013.73 3.741 3.737 3.737 0 01-3.73 3.742 3.737 3.737 0 01-3.73-3.742 3.737 3.737 0 013.73-3.742z" fill="#ACABB1"/><path d="M84.822 111.437l.509-2.066c.242-.097.484-.194.702-.291l1.84 1.093a1.246 1.246 0 001.527-.194l1.768-1.774c.411-.413.484-1.02.193-1.531l-1.09-1.846a4.33 4.33 0 00.291-.705l2.083-.51c.557-.146.945-.632.945-1.215v-2.503c0-.583-.388-1.07-.945-1.215l-2.083-.51c-.097-.243-.194-.486-.29-.705l1.09-1.847a1.256 1.256 0 00-.194-1.53L89.4 92.314a1.242 1.242 0 00-1.526-.195l-1.84 1.094c-.243-.097-.461-.219-.703-.292l-.509-2.065a1.245 1.245 0 00-1.21-.948h-2.495c-.582 0-1.066.389-1.211.948l-.509 2.065c-.242.097-.484.195-.702.292l-1.84-1.094a1.246 1.246 0 00-1.526.195l-1.768 1.774a1.252 1.252 0 00-.194 1.53l1.09 1.847a4.336 4.336 0 00-.291.705l-2.083.51a1.247 1.247 0 00-.944 1.215v2.503c0 .583.387 1.069.944 1.215l2.083.51c.097.243.194.486.29.705l-1.09 1.846a1.257 1.257 0 00.195 1.531l1.767 1.774a1.242 1.242 0 001.526.194l1.84-1.093c.243.097.461.219.703.291l.509 2.066c.145.559.63.947 1.21.947h2.495c.582 0 1.066-.388 1.211-.947zm-1.72-3.353l-.46 1.798h-.532l-.46-1.798a1.213 1.213 0 00-.872-.899 5.83 5.83 0 01-1.502-.632 1.29 1.29 0 00-1.26 0l-1.598.947-.387-.364.944-1.604a1.189 1.189 0 000-1.263 6.382 6.382 0 01-.63-1.507 1.217 1.217 0 00-.895-.875l-1.817-.461v-.559l1.817-.462c.435-.121.775-.437.896-.874a5.818 5.818 0 01.63-1.507 1.302 1.302 0 000-1.264l-.945-1.603.387-.39 1.599.949a1.18 1.18 0 001.26 0c.46-.268.968-.486 1.5-.632.437-.122.776-.462.873-.9l.46-1.797h.533l.46 1.798c.097.437.436.777.872.899a5.8 5.8 0 011.501.632 1.29 1.29 0 001.26 0l1.598-.948.388.389-.945 1.603a1.19 1.19 0 000 1.264c.266.462.484.972.63 1.507.12.437.46.777.896.874l1.792.438v.558l-1.817.462a1.258 1.258 0 00-.896.875 5.846 5.846 0 01-.63 1.506 1.304 1.304 0 000 1.264l.945 1.604-.387.388-1.599-.947a1.179 1.179 0 00-1.259 0 6.36 6.36 0 01-1.502.632c-.411.121-.75.461-.847.899z" fill="#000"/><path d="M87.34 101.182c0-2.745-2.227-4.98-4.964-4.98-2.737 0-4.965 2.235-4.965 4.98 0 2.746 2.228 4.982 4.965 4.982 2.737 0 4.965-2.236 4.965-4.982zm-4.964 2.479a2.495 2.495 0 01-2.495-2.503 2.495 2.495 0 114.99 0 2.51 2.51 0 01-2.495 2.503zm51.9 26.462a13.514 13.514 0 00-8.573-3.961l-.533-3.961-2.47.316.629 4.763-2.325 10.181c-.629 2.843-3.148 4.835-6.054 4.835h-6.491v2.503h6.491c.799 0 1.574-.122 2.325-.34a18.076 18.076 0 00-.146 1.603c0 5.516 4.457 9.963 9.93 9.963 5.498 0 9.93-4.471 9.93-9.963 0-1.749-.46-3.474-1.332-4.981h1.332c.678 0 1.235-.559 1.235-1.239a13.433 13.433 0 00-3.948-9.719zm-7.193 23.399c-4.117 0-7.459-3.353-7.459-7.484 0-1.069.242-2.138.678-3.11a8.53 8.53 0 001.744-1.871h10.559c2.761 3.062 2.495 7.776-.557 10.546-1.332 1.239-3.124 1.919-4.965 1.919zm-3.826-14.968c.048-.17.121-.34.169-.534l2.156-9.38a11.236 11.236 0 0110.147 9.914h-12.472z" fill="#000"/><path d="M127.083 149.779a3.738 3.738 0 003.73-3.742 3.738 3.738 0 00-3.73-3.742 3.738 3.738 0 00-3.729 3.742 3.738 3.738 0 003.729 3.742zm0-4.981c.678 0 1.235.559 1.235 1.239s-.557 1.239-1.235 1.239a1.242 1.242 0 01-1.235-1.239c0-.68.557-1.239 1.235-1.239zm4.966-46.118h-1.235c-.896 0-1.768.242-2.543.728a2.489 2.489 0 00-2.422-1.968h-9.93c-2.252 0-4.238 1.555-4.795 3.742h-4.529c-1.72 0-3.1 1.385-3.1 3.11a3.095 3.095 0 003.1 3.111h5.037a4.913 4.913 0 004.287 2.502v23.667a3.737 3.737 0 01-3.73 3.742h-7.459a1.242 1.242 0 01-1.235-1.239v-13.704c.678 0 1.235-.559 1.235-1.24v-2.502a3.737 3.737 0 00-3.73-3.742h-6.006c7.556-6.998 8.041-18.832 1.09-26.413-6.95-7.581-18.77-8.067-26.326-1.093-7.556 6.998-8.04 18.831-1.09 26.412a18.358 18.358 0 002.374 2.187 3.738 3.738 0 00-1.09 2.649 3.738 3.738 0 003.73 3.742h.12a16.41 16.41 0 00-3.899 3.426 3.606 3.606 0 00-2.446-.924 3.754 3.754 0 00-3.705 3.767c.024 1.749 1.235 3.256 2.93 3.62a15.664 15.664 0 00-.46 3.815v7.484c0 .681.557 1.239 1.235 1.239h5.062c-.048.413-.073.827-.097 1.24 0 5.515 4.457 9.962 9.93 9.962 5.498 0 9.93-4.471 9.93-9.962 0-.413-.025-.827-.097-1.24h13.756v-2.502h-7.46v-8.724a3.738 3.738 0 00-3.729-3.742h-9.93v2.503h9.93c.678 0 1.235.559 1.235 1.239v3.742H73.754c.606-2.891 3.149-4.981 6.08-4.981h2.494v-2.503h-2.495c-4.795 0-8.694 3.912-8.694 8.724v3.742h-2.495v-6.221c0-7.581 6.127-13.704 13.66-13.704H101v13.704a3.737 3.737 0 003.73 3.742h7.459c3.44 0 6.2-2.794 6.2-6.22V109.93h2.64l1.357 10.132 2.47-.316-1.308-9.816h2.301c1.162 0 2.18-.826 2.422-1.968.775.461 1.647.729 2.543.729h1.235c.678 0 1.235-.559 1.235-1.24v-7.484a1.225 1.225 0 00-1.235-1.288zm-49.673 54.842c-4.117 0-7.46-3.354-7.46-7.484 0-.413.05-.827.122-1.24h3.827a3.733 3.733 0 002.228 4.787 3.714 3.714 0 004.77-2.235 3.84 3.84 0 000-2.552h3.827c.073.413.097.827.121 1.24 0 4.13-3.318 7.484-7.435 7.484zm-1.26-7.484c0-.681.558-1.24 1.236-1.24.678 0 1.235.559 1.235 1.24 0 .68-.557 1.239-1.235 1.239a1.242 1.242 0 01-1.235-1.239zm-7.434-6.221h22.353v2.503H73.683v-2.503zm-6.2-9.987a1.296 1.296 0 01-1.26-1.239c0-.68.557-1.239 1.26-1.239.387 0 .775.194.993.51a15.011 15.011 0 00-.993 1.968zm22.33-9.962H73.656a1.17 1.17 0 01-.871-.389 1.141 1.141 0 01-.364-.85c0-.511.315-.997.8-1.167a18.487 18.487 0 0016.59.851v1.555zm-7.436-2.503c-8.912 0-16.154-7.265-16.154-16.207s7.242-16.207 16.154-16.207c8.913 0 16.154 7.265 16.154 16.207-.024 8.966-7.241 16.207-16.154 16.207zm19.86 2.503h-9.93v-2.503H101c.679 0 1.236.559 1.236 1.239v1.264zm4.359-14.968a.626.626 0 01-.63-.632c0-.34.267-.632.63-.632h11.189c.339 0 .63.268.63.632 0 .34-.267.632-.63.632h-11.189zm19.254 2.503h-8.065c1.72 0 3.1-1.385 3.1-3.111 0-1.725-1.38-3.11-3.1-3.11h-3.996a2.44 2.44 0 012.131-1.239h9.93v7.46zm4.965-1.24a2.495 2.495 0 01-2.495-2.502 2.495 2.495 0 012.495-2.503v5.005z" fill="#000"/></svg>