<svg width="200" height="165" viewBox="0 0 200 165" fill="none" xmlns="http://www.w3.org/2000/svg"><path d="M87.75 42.656h26.5v8.282a4.983 4.983 0 01-4.969 4.968H92.719a4.983 4.983 0 01-4.969-4.968v-8.282z" fill="#6C7A98"/><path d="M114.25 50.938v-8.282H91.062v8.282a4.957 4.957 0 004.97 4.968h13.249a4.957 4.957 0 004.969-4.968z" fill="#56627D"/><path d="M109.281 55.906H92.719v6.625h16.562v-6.625z" fill="#EEFDFF"/><path d="M109.281 55.906h-13.25v6.625h13.25v-6.625z" fill="#D4F6F9"/><path d="M104.312 69.156h-6.624l-4.97-6.625h16.563l-4.969 6.625z" fill="#6C7A98"/><path d="M96.031 62.531L101 69.156h3.312l4.969-6.625h-13.25z" fill="#56627D"/><path d="M104.312 69.156h-6.624v9.938h6.624v-9.938z" fill="#8FDFFF"/><path d="M104.312 69.156H101v9.938h3.312v-9.938z" fill="#64C8FF"/><path d="M59.594 125.469h82.812c5.487 0 9.938 4.451 9.938 9.937 0 5.487-4.451 9.938-9.938 9.938H59.594c-5.487 0-9.938-4.451-9.938-9.938 0-5.486 4.451-9.937 9.938-9.937z" fill="#6C7A98"/><path d="M59.594 142.031c-3.644 0-6.625-2.981-6.625-6.625s2.981-6.625 6.625-6.625h82.812c3.644 0 6.625 2.981 6.625 6.625s-2.981 6.625-6.625 6.625H59.594z" fill="#56627D"/><path d="M59.594 132.094a3.322 3.322 0 00-3.313 3.312 3.323 3.323 0 003.313 3.313h82.812a3.323 3.323 0 003.313-3.313 3.322 3.322 0 00-3.313-3.312H59.594z" fill="#D4F6F9"/><path d="M92.719 92.344h16.562v4.969a11.314 11.314 0 013.313 7.991V120.5a4.957 4.957 0 01-4.969 4.969h-13.25a4.957 4.957 0 01-4.969-4.969v-15.196c0-3.002 1.201-5.88 3.313-7.992v-4.968z" fill="#EEFDFF"/><path d="M112.594 120.5v-15.196c0-3.002-1.201-5.88-3.313-7.992v-4.968h-13.25v4.969a11.315 11.315 0 00-3.312 7.991V120.5a4.957 4.957 0 004.969 4.969h9.937a4.957 4.957 0 004.969-4.969z" fill="#D4F6F9"/><path d="M112.594 105.594V120.5a4.957 4.957 0 01-4.969 4.969h-13.25a4.957 4.957 0 01-4.969-4.969v-14.906h23.188z" fill="#8FDFFF"/><path d="M112.594 120.5v-14.906H92.719V120.5a4.957 4.957 0 004.969 4.969h9.937a4.957 4.957 0 004.969-4.969z" fill="#64C8FF"/><path d="M92.719 85.719h16.562a3.323 3.323 0 013.313 3.312 3.323 3.323 0 01-3.313 3.313H92.719a3.322 3.322 0 01-3.313-3.313 3.322 3.322 0 013.313-3.312z" fill="#EEFDFF"/><path d="M112.594 89.031H96.031a3.322 3.322 0 00-3.312 3.313h16.562a3.323 3.323 0 003.313-3.313z" fill="#D4F6F9"/><path d="M92.719 92.344h16.562v4.969a11.314 11.314 0 013.313 7.991V120.5a4.957 4.957 0 01-4.969 4.969h-13.25a4.957 4.957 0 01-4.969-4.969v-15.196c0-3.002 1.201-5.88 3.313-7.992v-4.968z" fill="#EEFDFF"/><path d="M109.281 92.344H92.719v3.312h16.562v-3.312z" fill="#D4F6F9"/><path d="M112.594 120.5v-15.196c0-3.002-1.201-5.88-3.313-7.992v-4.968h-13.25v4.969a11.315 11.315 0 00-3.312 7.991V120.5a4.957 4.957 0 004.969 4.969h9.937a4.957 4.957 0 004.969-4.969z" fill="#D4F6F9"/><path d="M109.281 92.344h-13.25v3.312h13.25v-3.312z" fill="#BDF3F4"/><path d="M112.594 105.594V120.5a4.957 4.957 0 01-4.969 4.969h-13.25a4.957 4.957 0 01-4.969-4.969v-14.906h23.188z" fill="#8FDFFF"/><path d="M112.594 120.5v-14.906H92.719V120.5a4.957 4.957 0 004.969 4.969h9.937a4.957 4.957 0 004.969-4.969z" fill="#64C8FF"/><path d="M92.719 85.719h16.562a3.323 3.323 0 013.313 3.312 3.323 3.323 0 01-3.313 3.313H92.719a3.322 3.322 0 01-3.313-3.313 3.322 3.322 0 013.313-3.312z" fill="#6C7A98"/><path d="M112.594 89.031H96.031a3.322 3.322 0 00-3.312 3.313h16.562a3.323 3.323 0 003.313-3.313z" fill="#56627D"/><path d="M122.531 92.344h16.563v4.969a11.318 11.318 0 013.312 7.991V120.5a4.956 4.956 0 01-4.968 4.969h-13.25a4.957 4.957 0 01-4.969-4.969v-15.196a11.32 11.32 0 013.312-7.992v-4.968z" fill="#EEFDFF"/><path d="M142.406 120.5v-15.196a11.32 11.32 0 00-3.312-7.992v-4.968h-13.25v4.969a11.314 11.314 0 00-3.313 7.991V120.5a4.957 4.957 0 004.969 4.969h9.938a4.956 4.956 0 004.968-4.969z" fill="#D4F6F9"/><path d="M142.406 105.594V120.5a4.956 4.956 0 01-4.968 4.969h-13.25a4.957 4.957 0 01-4.969-4.969v-14.906h23.187z" fill="#8FDFFF"/><path d="M142.406 120.5v-14.906h-19.875V120.5a4.957 4.957 0 004.969 4.969h9.938a4.956 4.956 0 004.968-4.969z" fill="#64C8FF"/><path d="M122.531 85.719h16.563a3.322 3.322 0 013.312 3.312 3.322 3.322 0 01-3.312 3.313h-16.563a3.322 3.322 0 01-3.312-3.313 3.322 3.322 0 013.312-3.312z" fill="#EEFDFF"/><path d="M142.406 89.031h-16.562a3.323 3.323 0 00-3.313 3.313h16.563a3.322 3.322 0 003.312-3.313z" fill="#D4F6F9"/><path d="M122.531 92.344h16.563v4.969a11.318 11.318 0 013.312 7.991V120.5a4.956 4.956 0 01-4.968 4.969h-13.25a4.957 4.957 0 01-4.969-4.969v-15.196a11.32 11.32 0 013.312-7.992v-4.968z" fill="#EEFDFF"/><path d="M139.094 92.344h-16.563v3.312h16.563v-3.312z" fill="#D4F6F9"/><path d="M142.406 120.5v-15.196a11.32 11.32 0 00-3.312-7.992v-4.968h-13.25v4.969a11.314 11.314 0 00-3.313 7.991V120.5a4.957 4.957 0 004.969 4.969h9.938a4.956 4.956 0 004.968-4.969z" fill="#D4F6F9"/><path d="M139.094 92.344h-13.25v3.312h13.25v-3.312z" fill="#BDF3F4"/><path d="M142.406 105.594V120.5a4.956 4.956 0 01-4.968 4.969h-13.25a4.957 4.957 0 01-4.969-4.969v-14.906h23.187z" fill="#8FDFFF"/><path d="M142.406 120.5v-14.906h-19.875V120.5a4.957 4.957 0 004.969 4.969h9.938a4.956 4.956 0 004.968-4.969z" fill="#64C8FF"/><path d="M122.531 85.719h16.563a3.322 3.322 0 013.312 3.312 3.322 3.322 0 01-3.312 3.313h-16.563a3.322 3.322 0 01-3.312-3.313 3.322 3.322 0 013.312-3.312z" fill="#6C7A98"/><path d="M142.406 89.031h-16.562a3.323 3.323 0 00-3.313 3.313h16.563a3.322 3.322 0 003.312-3.313z" fill="#56627D"/><path d="M82.781 120.5v-15.196c0-3.002-1.2-5.88-3.312-7.992v-4.968h-13.25v4.969a11.315 11.315 0 00-3.313 7.991V120.5a4.957 4.957 0 004.969 4.969h9.938a4.957 4.957 0 004.968-4.969z" fill="#D4F6F9"/><path d="M62.906 85.719H79.47a3.322 3.322 0 013.312 3.312 3.322 3.322 0 01-3.312 3.313H62.906a3.322 3.322 0 01-3.312-3.313 3.322 3.322 0 013.312-3.312z" fill="#EEFDFF"/><path d="M82.781 89.031H66.22a3.322 3.322 0 00-3.313 3.313H79.47a3.322 3.322 0 003.312-3.313z" fill="#D4F6F9"/><path d="M79.469 97.313v-4.97H62.906v4.97a11.315 11.315 0 00-3.312 7.991V120.5a4.957 4.957 0 004.968 4.969h13.25a4.957 4.957 0 004.97-4.969v-15.196c0-3.002-1.201-5.88-3.313-7.992z" fill="#EEFDFF"/><path d="M79.469 92.344H62.906v3.312H79.47v-3.312z" fill="#D4F6F9"/><path d="M82.781 120.5v-15.196c0-3.002-1.2-5.88-3.312-7.992v-4.968h-13.25v4.969a11.315 11.315 0 00-3.313 7.991V120.5a4.957 4.957 0 004.969 4.969h9.938a4.957 4.957 0 004.968-4.969z" fill="#D4F6F9"/><path d="M79.469 92.344h-13.25v3.312h13.25v-3.312z" fill="#BDF3F4"/><path d="M62.906 85.719H79.47a3.322 3.322 0 013.312 3.312 3.322 3.322 0 01-3.312 3.313H62.906a3.322 3.322 0 01-3.312-3.313 3.322 3.322 0 013.312-3.312z" fill="#6C7A98"/><path d="M82.781 89.031H66.22a3.322 3.322 0 00-3.313 3.313H79.47a3.322 3.322 0 003.312-3.313z" fill="#56627D"/><path d="M126.672 117.188h2.484v2.484c0 .911.746 1.656 1.656 1.656.911 0 1.657-.745 1.657-1.656v-2.484h2.484c.911 0 1.656-.746 1.656-1.657a1.66 1.66 0 00-1.656-1.656h-2.484v-2.484c0-.911-.746-1.657-1.657-1.657-.91 0-1.656.746-1.656 1.657v2.484h-2.484a1.66 1.66 0 00-1.656 1.656c0 .911.745 1.657 1.656 1.657zm-29.812 0h2.484v2.484a1.66 1.66 0 001.656 1.656 1.66 1.66 0 001.656-1.656v-2.484h2.485c.911 0 1.656-.746 1.656-1.657a1.66 1.66 0 00-1.656-1.656h-2.485v-2.484c0-.911-.745-1.657-1.656-1.657-.911 0-1.656.746-1.656 1.657v2.484h-2.485a1.66 1.66 0 00-1.656 1.656c0 .911.745 1.657 1.656 1.657z" fill="#000"/><path d="M143.131 123.854c.58-.994.931-2.112.931-3.354v-15.196c0-3.23-1.18-6.273-3.312-8.654v-2.96c1.925-.684 3.312-2.506 3.312-4.659a4.983 4.983 0 00-4.968-4.969h-16.563a4.983 4.983 0 00-4.969 4.97c0 2.152 1.388 3.974 3.313 4.657v2.961a12.904 12.904 0 00-3.313 8.654V120.5c0 1.221.352 2.339.911 3.312h-5.155c.58-.973.911-2.091.911-3.312v-15.196c0-3.23-1.18-6.273-3.312-8.654v-2.96c1.925-.684 3.312-2.506 3.312-4.659 0-2.733-2.236-4.969-4.968-4.969H92.698a4.983 4.983 0 00-4.969 4.97c0 2.152 1.387 3.974 3.313 4.657v2.961a12.901 12.901 0 00-3.313 8.654V120.5c0 1.221.352 2.339.911 3.312h-5.155c.58-.973.911-2.091.911-3.312v-15.196c0-3.23-1.18-6.273-3.312-8.654v-2.96c1.925-.684 3.312-2.506 3.312-4.659a4.983 4.983 0 00-4.969-4.969h-16.52a4.983 4.983 0 00-4.97 4.97c0 2.152 1.388 3.974 3.313 4.657v2.961a12.901 12.901 0 00-3.313 8.654V120.5c0 1.221.352 2.36.932 3.354-6.045.373-10.869 5.403-10.869 11.552C48 141.804 53.197 147 59.594 147h82.812c6.398 0 11.594-5.196 11.594-11.594 0-6.149-4.824-11.179-10.869-11.552zm-20.6-36.479h16.563a1.66 1.66 0 011.656 1.656 1.66 1.66 0 01-1.656 1.656h-16.563a1.66 1.66 0 01-1.656-1.656c0-.91.745-1.656 1.656-1.656zm15.383 11.118a9.568 9.568 0 012.712 5.445h-19.668a9.562 9.562 0 012.712-5.445c.31-.311.476-.725.476-1.18V94h13.25v3.313c.041.434.207.869.518 1.18zm-17.039 8.757h19.875v13.25a3.322 3.322 0 01-3.312 3.312h-13.25a3.322 3.322 0 01-3.313-3.312v-13.25zM92.719 87.375h16.562c.911 0 1.657.745 1.657 1.656 0 .911-.746 1.656-1.657 1.656H92.719a1.661 1.661 0 01-1.656-1.656c0-.91.745-1.656 1.656-1.656zM108.1 98.493a9.562 9.562 0 012.712 5.445H91.145a9.564 9.564 0 012.712-5.445c.311-.311.477-.725.477-1.18V94h13.25v3.313c.041.434.207.869.517 1.18zm-17.038 8.757h19.875v13.25a3.322 3.322 0 01-3.313 3.312h-13.25a3.322 3.322 0 01-3.313-3.312v-13.25zM62.906 87.375H79.47c.91 0 1.656.745 1.656 1.656a1.66 1.66 0 01-1.656 1.656H62.906c-.91 0-1.656-.745-1.656-1.656 0-.91.745-1.656 1.656-1.656zm-1.656 17.929c0-2.588.994-5.01 2.836-6.832.31-.31.477-.725.477-1.18v-3.313h13.25v3.313c0 .435.165.87.476 1.18a9.6 9.6 0 012.836 6.832V120.5a3.322 3.322 0 01-3.313 3.312h-13.25a3.322 3.322 0 01-3.312-3.312v-15.196zm81.156 38.384H59.594a8.28 8.28 0 01-8.282-8.282 8.279 8.279 0 018.282-8.281h82.812a8.28 8.28 0 018.282 8.281 8.28 8.28 0 01-8.282 8.282z" fill="#000"/><path d="M142.406 130.438H59.594a4.983 4.983 0 00-4.969 4.968 4.983 4.983 0 004.969 4.969h82.812a4.984 4.984 0 004.969-4.969c0-2.733-2.236-4.968-4.969-4.968zm0 6.624H59.594a1.66 1.66 0 01-1.657-1.656 1.66 1.66 0 011.657-1.656h82.812a1.66 1.66 0 011.656 1.656 1.66 1.66 0 01-1.656 1.656zm-92.75-92.749h36.438v6.624c0 3.085 2.112 5.653 4.969 6.398v5.196c0 .352.124.704.33.994l4.638 6.19v9.379c0 .91.746 1.656 1.656 1.656h6.625c.911 0 1.657-.745 1.657-1.656v-9.379l4.637-6.19c.207-.29.332-.642.332-.994v-5.196c2.857-.745 4.968-3.313 4.968-6.398v-6.624h36.438A1.66 1.66 0 00154 42.656 1.66 1.66 0 00152.344 41H49.656c-.91 0-1.656.745-1.656 1.656 0 .911.745 1.657 1.656 1.657zm53 33.124h-3.312v-6.624h3.312v6.624zm.828-9.937h-4.968l-2.485-3.313h9.938l-2.485 3.313zm4.141-6.625h-13.25v-3.313h13.25v3.313zM89.406 44.312h23.188v6.626a3.323 3.323 0 01-3.313 3.312H92.719a3.322 3.322 0 01-3.313-3.313v-6.624z" fill="#000"/></svg>