<?xml version="1.0" encoding="utf-8"?>
<!-- Generator: Adobe Illustrator 28.1.0, SVG Export Plug-In . SVG Version: 6.00 Build 0)  -->
<svg version="1.1" id="圖層_1" xmlns="http://www.w3.org/2000/svg" xmlns:xlink="http://www.w3.org/1999/xlink" x="0px" y="0px"
	 viewBox="0 0 200 165" style="enable-background:new 0 0 200 165;" xml:space="preserve">
<style type="text/css">
	.st0{fill:#F07281;}
	.st1{fill:#EB5569;}
	.st2{fill:#FF6D7A;}
	.st3{fill:#8FDFFF;}
	.st4{fill:#64C8FF;}
	.st5{fill:#E7ECF6;}
	.st6{fill:#EFD887;}
	.st7{fill:#CBAB31;}
</style>
<g>
	<path class="st0" d="M138.9,45.4V71h-21.1V59.7h-16.1V45.4H138.9z"/>
	<path class="st1" d="M113.2,47.1v-1.6h-11.4v14.2h16.1V71h6.9V58.6c0-3.2-2.6-5.7-5.7-5.7C115.8,52.8,113.2,50.3,113.2,47.1
		L113.2,47.1z"/>
	<path class="st2" d="M51.3,60.1H36.9c-1.9,0-3.4-1.5-3.4-3.4s1.5-3.4,3.4-3.4h14.4c1.9,0,3.4,1.5,3.4,3.4
		C54.8,58.5,53.2,60.1,51.3,60.1z"/>
	<path class="st3" d="M134.7,112.1H73.3L62.4,71h80.9c3,0,5.2,2.8,4.4,5.7l-8.5,32C138.6,110.7,136.8,112.1,134.7,112.1L134.7,112.1
		z"/>
	<path class="st4" d="M147.7,76.7l-0.3,1.1H87.3c-4.5,0-7.8,4.3-6.6,8.6l6.8,25.7H73.3L62.4,71h80.9C146.2,71,148.4,73.8,147.7,76.7
		L147.7,76.7z"/>
	<path class="st5" d="M89.2,124.5c-5.7,0-10.3,4.6-10.3,10.3s4.6,10.3,10.3,10.3c5.7,0,10.3-4.6,10.3-10.3
		C99.4,129.1,94.8,124.5,89.2,124.5L89.2,124.5z M89.2,138.2c-1.9,0-3.4-1.5-3.4-3.4s1.5-3.4,3.4-3.4s3.4,1.5,3.4,3.4
		S91,138.2,89.2,138.2L89.2,138.2z"/>
	<path class="st5" d="M121.3,124.5c-5.7,0-10.3,4.6-10.3,10.3s4.6,10.3,10.3,10.3c5.7,0,10.3-4.6,10.3-10.3
		C131.5,129.1,126.9,124.5,121.3,124.5z M121.3,138.2c-1.9,0-3.4-1.5-3.4-3.4s1.5-3.4,3.4-3.4s3.4,1.5,3.4,3.4
		S123.2,138.2,121.3,138.2z"/>
	<path class="st6" d="M73.3,59.7h44.6V71H73.3V59.7z"/>
	<path class="st7" d="M73.3,59.7h16V71h-16V59.7z"/>
	<g>
		<path d="M148.2,71.7c-1.2-1.6-3-2.5-5-2.5h-2.6v-8.9c0-1-0.8-1.7-1.7-1.7c-1,0-1.7,0.8-1.7,1.7v8.9h-17.7v-9.6
			c0-0.7-0.4-1.2-0.9-1.5c-0.2-0.1-0.5-0.2-0.8-0.2h-14.3V47.2h8.9v3.3c0,1,0.8,1.7,1.7,1.7s1.7-0.8,1.7-1.7v-3.3h9v3.3
			c0,1,0.8,1.7,1.7,1.7s1.7-0.8,1.7-1.7v-3.3h8.9v5.7c0,1,0.8,1.7,1.7,1.7c1,0,1.7-0.8,1.7-1.7v-7.4c0-1-0.8-1.7-1.7-1.7h-10.6
			c-0.3-4.2-3.7-7.5-7.9-7.5c-4.2,0-7.7,3.3-7.9,7.5h-10.6c-1,0-1.7,0.8-1.7,1.7v6.2c-1.3-0.9-2.8-1.4-4.5-1.4
			c-4.3,0-7.8,3.4-7.9,7.7H73.3c-1,0-1.7,0.8-1.7,1.7v9.6h-7.9l-2.3-9.1c-0.7-2.7-2.7-4.6-5.1-5.1c-0.7-2.1-2.6-3.6-4.9-3.6H36.9
			c-2.8,0-5.2,2.3-5.2,5.2c0,2.8,2.3,5.2,5.2,5.2h14.4c1.4,0,2.7-0.5,3.7-1.5c0.5-0.5,0.8-1,1.1-1.6c0.9,0.4,1.6,1.3,1.9,2.4
			l9.8,37.4c0.2,0.9,1.2,1.5,2.1,1.2c0.9-0.2,1.5-1.2,1.2-2.1l-6.6-24.8h8.7l0,0h44.5l0,0h21.1l0,0h4.2c0.9,0,1.7,0.4,2.3,1.1
			c0.5,0.7,0.7,1.6,0.5,2.5l-8.5,32c-0.3,1.2-1.5,2.1-2.7,2.1h-60l-1.4-5.3c-0.2-0.9-1.2-1.5-2.1-1.2c-0.9,0.2-1.5,1.2-1.2,2.1
			l3.7,13.9c0.9,3.4,3.8,5.9,7.3,6.3c-2.3,2.2-3.7,5.2-3.7,8.6c0,6.6,5.4,12,12,12s12-5.4,12-12c0-3.3-1.4-6.4-3.6-8.6h15.3
			c-2.2,2.2-3.6,5.2-3.6,8.6c0,6.6,5.4,12,12,12s12-5.4,12-12c0-3.3-1.4-6.4-3.6-8.6h4.3c1,0,1.7-0.8,1.7-1.7c0-1-0.8-1.7-1.7-1.7
			H81.8c-2.3,0-4.4-1.6-5-3.8l-1.3-5.1h59.2c2.9,0,5.4-1.9,6.1-4.7l8.5-32C149.8,75.3,149.4,73.3,148.2,71.7L148.2,71.7z
			 M120.4,39.7c2.3,0,4.2,1.8,4.5,4H116C116.1,41.5,118,39.7,120.4,39.7L120.4,39.7z M51.3,58.3H36.9c-0.9,0-1.7-0.8-1.7-1.7
			s0.8-1.7,1.7-1.7h14.4c0.9,0,1.7,0.8,1.7,1.7c0,0.5-0.2,0.9-0.5,1.2C52.2,58.2,51.8,58.3,51.3,58.3z M95.6,53.7
			c2.4,0,4.4,1.9,4.5,4.2h-9C91.2,55.6,93.2,53.7,95.6,53.7z M75,61.4h12.6v3c0,1,0.8,1.7,1.7,1.7s1.7-0.8,1.7-1.7v-3h9v3
			c0,1,0.8,1.7,1.7,1.7s1.7-0.8,1.7-1.7v-3H116v7.9H75V61.4z M129.8,134.8c0,4.7-3.8,8.6-8.6,8.6s-8.6-3.8-8.6-8.6
			c0-4.7,3.8-8.6,8.6-8.6S129.8,130.1,129.8,134.8z M97.7,134.8c0,4.7-3.8,8.6-8.6,8.6s-8.6-3.8-8.6-8.6c0-4.7,3.8-8.6,8.6-8.6
			C93.9,126.2,97.7,130.1,97.7,134.8z"/>
		<path d="M81.2,103.6h49.2c1,0,1.7-0.8,1.7-1.7c0-1-0.8-1.7-1.7-1.7H81.2c-1,0-1.7,0.8-1.7,1.7C79.5,102.8,80.2,103.6,81.2,103.6z"
			/>
		<path d="M137.5,81.3c0-1-0.8-1.7-1.7-1.7H75.7c-1,0-1.7,0.8-1.7,1.7c0,1,0.8,1.7,1.7,1.7h60.1C136.8,83,137.5,82.2,137.5,81.3z"/>
		<path d="M89.2,139.9c2.8,0,5.2-2.3,5.2-5.2s-2.3-5.2-5.2-5.2s-5.2,2.3-5.2,5.2S86.3,139.9,89.2,139.9L89.2,139.9z M89.2,133.1
			c0.9,0,1.7,0.8,1.7,1.7s-0.8,1.7-1.7,1.7s-1.7-0.8-1.7-1.7C87.5,133.8,88.2,133.1,89.2,133.1L89.2,133.1z"/>
		<path d="M121.3,139.9c2.8,0,5.2-2.3,5.2-5.2s-2.3-5.2-5.2-5.2c-2.8,0-5.2,2.3-5.2,5.2S118.4,139.9,121.3,139.9z M121.3,133.1
			c0.9,0,1.7,0.8,1.7,1.7s-0.8,1.7-1.7,1.7c-0.9,0-1.7-0.8-1.7-1.7C119.6,133.8,120.3,133.1,121.3,133.1z"/>
		<path d="M101.6,91.6c0-1-0.8-1.7-1.7-1.7H78.5c-1,0-1.7,0.8-1.7,1.7c0,1,0.8,1.7,1.7,1.7h21.4C100.8,93.3,101.6,92.5,101.6,91.6z"
			/>
		<path d="M134.8,91.6c0-1-0.8-1.7-1.7-1.7h-25.7c-1,0-1.7,0.8-1.7,1.7c0,1,0.8,1.7,1.7,1.7h25.7C134,93.3,134.8,92.5,134.8,91.6z"
			/>
	</g>
</g>
</svg>
