<svg width="200" height="165" viewBox="0 0 200 165" fill="none" xmlns="http://www.w3.org/2000/svg"><path d="M149.687 98.892H88.863V79.265a1.91 1.91 0 00-1.909-1.915H42.818a1.91 1.91 0 00-1.909 1.915v63.905a1.91 1.91 0 001.91 1.915H149.71a1.91 1.91 0 001.909-1.915v-42.363a1.943 1.943 0 00-1.932-1.915z" fill="#D4F7FC"/><path d="M141.826 116.355v9.329a1.91 1.91 0 01-1.909 1.915h-10.983a1.91 1.91 0 01-1.91-1.915v-9.329c0-1.059.854-1.916 1.91-1.916h10.983a1.91 1.91 0 011.909 1.916z" fill="#CBE3FA"/><path d="M115.771 62.59a10.045 10.045 0 01-5.435-8.946c0-5.544 4.492-10.05 10.018-10.05 5.525 0 10.017 4.506 10.017 10.05 0 7.526-7.951 12.393-14.6 8.946z" fill="#FE4F60"/><path d="M114.873 116.355v9.329a1.91 1.91 0 01-1.909 1.915H101.98a1.91 1.91 0 01-1.909-1.915v-9.329c0-1.059.854-1.916 1.909-1.916h10.984a1.91 1.91 0 011.909 1.916z" fill="#CBE3FA"/><path d="M76.465 124.986v20.1H53.083v-20.1c0-1.059.854-1.916 1.91-1.916h19.563c1.055 0 1.909.857 1.909 1.916z" fill="#EFD887"/><path d="M77.655 94.091v11.019a1.91 1.91 0 01-1.909 1.915H53.802a1.91 1.91 0 01-1.91-1.915V94.091a1.91 1.91 0 011.91-1.915h21.944a1.91 1.91 0 011.91 1.915z" fill="#CBE3FA"/><path d="M121.072 48.551c-2.628 1.037-4.762 3.2-5.795 5.837-1.055 2.681-5.009 1.915-4.941-.97.112-5.272 4.357-9.599 9.591-9.801 3.144-.136 3.773 3.898 1.145 4.934z" fill="#FF6D7A"/><path d="M77.655 94.092v.947a1.91 1.91 0 01-1.909 1.915h-11.23c-4.335 0-7.862 3.538-7.862 7.887v.248a1.91 1.91 0 01-1.909 1.915h-.943a1.91 1.91 0 01-1.91-1.915v-11.02a1.91 1.91 0 011.91-1.915h21.944a1.945 1.945 0 011.91 1.938zm37.218 22.263a1.45 1.45 0 01-1.437 1.442h-2.651c-4.335 0-7.861 3.538-7.861 7.887 0 1.802-2.695 1.983-2.852.18-.023-.135 0-9.532 0-9.509a1.91 1.91 0 011.909-1.916h10.983a1.91 1.91 0 011.909 1.916zm26.953 0a1.45 1.45 0 01-1.437 1.442h-2.65c-4.335 0-7.862 3.538-7.862 7.887 0 1.802-2.695 1.983-2.852.18-.023-.135 0-9.532 0-9.509a1.91 1.91 0 011.909-1.916h10.983a1.91 1.91 0 011.909 1.916z" fill="#EEF7FF"/><path d="M151.597 100.806v3.357c0 1.06-.854 1.916-1.91 1.916H88.863v-7.188h60.847c1.033 0 1.887.856 1.887 1.915zM88.863 79.265v1.915a1.91 1.91 0 01-1.909 1.916H48.546a1.91 1.91 0 00-1.91 1.915v58.159a1.91 1.91 0 01-1.909 1.915h-1.909a1.91 1.91 0 01-1.909-1.915V79.265a1.91 1.91 0 011.91-1.915h44.135a1.91 1.91 0 011.91 1.915z" fill="#B8E9F2"/><path d="M96.028 100.806v42.363a1.91 1.91 0 01-1.909 1.915h-5.256V98.891h5.256a1.91 1.91 0 011.91 1.915z" fill="#B8E9F2"/><path d="M76.465 124.986a1.91 1.91 0 01-1.91 1.915H58.81a1.91 1.91 0 00-1.909 1.915v14.354a1.911 1.911 0 01-1.909 1.916h-1.909v-20.1c0-1.059.854-1.916 1.91-1.916h19.563c1.055 0 1.909.857 1.909 1.916z" fill="#CBAB31"/><path d="M151.597 96.976h-11.68c-5.368-11.2-9.771-22.94-13.14-34.882a1.93 1.93 0 00-2.358-1.352c-.472.135-1.752 1.037-4.065 1.037-4.47 0-8.109-3.65-8.109-8.135 0-4.484 3.639-8.135 8.109-8.135 5.121 0 9.006 4.732 7.928 9.825-.224 1.036.449 2.05 1.483 2.276 1.033.225 2.044-.45 2.268-1.487 1.55-7.481-4.155-14.422-11.679-14.422-6.582 0-11.927 5.363-11.927 11.965 0 4.056 2.021 7.64 5.121 9.803-2.606 8.99-5.795 17.891-9.546 26.476a1.919 1.919 0 00.988 2.524 1.909 1.909 0 002.516-.991 316.311 316.311 0 002.628-6.31l13.319 11.808h-23.359a1.91 1.91 0 00-1.91 1.915c0 1.06.854 1.916 1.91 1.916h49.616v42.363H78.374v-20.1a1.911 1.911 0 00-1.91-1.916h-23.38c-1.056 0-1.91.857-1.91 1.916v12.123a1.91 1.91 0 103.82 0v-10.208h19.563v18.185H42.818V79.265h44.136V132.6c0 1.059.854 1.916 1.91 1.916a1.91 1.91 0 001.908-1.916V77.349a1.91 1.91 0 00-1.909-1.915H40.91A1.91 1.91 0 0039 77.349v67.736A1.91 1.91 0 0040.91 147h110.687a1.91 1.91 0 001.909-1.915V98.891a1.91 1.91 0 00-1.909-1.915zM112.604 82.26l7.166-4.1a1.922 1.922 0 00.718-2.615 1.907 1.907 0 00-2.605-.72l-4.919 2.816a225.39 225.39 0 004.065-12.506c2.179.63 4.448.63 6.649 0a221.145 221.145 0 0012.016 31.84h-6.491L112.604 82.26z" fill="#000"/><path d="M137.783 62.793c.943.473 2.089.09 2.561-.856 2.56-5.116 2.605-11.245.09-16.405-.472-.946-1.618-1.352-2.561-.879-.943.474-1.348 1.623-.876 2.57 1.999 4.078 1.977 8.945-.067 13.001-.45.924-.09 2.096.853 2.569zm7.906 8.111c.831.631 2.044.474 2.673-.36 7.502-9.938 7.502-23.84 0-33.778-.629-.834-1.842-1.014-2.673-.36-.831.63-1.01 1.847-.359 2.681 6.469 8.585 6.469 20.573 0 29.158a1.904 1.904 0 00.359 2.66zm-43.619-7.908c1.415 0 2.336-1.488 1.707-2.772-2.043-4.056-2.066-8.923-.067-13.002.472-.946.067-2.095-.876-2.569-.943-.473-2.089-.067-2.56.88-2.516 5.137-2.494 11.288.089 16.404.315.675.989 1.059 1.707 1.059zm-8.22 8.314c1.55 0 2.47-1.803 1.527-3.064-6.468-8.586-6.468-20.574 0-29.159.63-.834.472-2.05-.359-2.681-.831-.631-2.044-.474-2.673.36-7.502 9.937-7.502 23.84 0 33.778.36.496.944.766 1.505.766zm6.221 58.204h14.802a1.91 1.91 0 001.909-1.916v-13.159a1.91 1.91 0 00-1.909-1.916h-14.802a1.911 1.911 0 00-1.909 1.916v13.159c0 1.059.854 1.916 1.909 1.916zm1.909-13.16h10.984v9.329H101.98v-9.329zm39.846 13.16a1.91 1.91 0 001.909-1.916v-13.159a1.91 1.91 0 00-1.909-1.916h-14.802a1.912 1.912 0 00-1.909 1.916v13.159c0 1.059.854 1.916 1.909 1.916h14.802zm-12.892-13.16h10.983v9.329h-10.983v-9.329zM51.893 90.26a1.91 1.91 0 00-1.91 1.915v14.85a1.91 1.91 0 001.91 1.915h25.762a1.91 1.91 0 001.91-1.915v-14.85a1.91 1.91 0 00-1.91-1.915H51.893zm23.853 14.849H53.802V94.091h21.944v11.018z" fill="#000"/></svg>