<svg width="220" height="237" viewBox="0 0 220 237" fill="none" xmlns="http://www.w3.org/2000/svg"><g clip-path="url(#clip0_1259_8522)"><circle cx="110" cy="127" r="110" fill="#fff"/><circle cx="110" cy="127" r="99" fill="#fff" stroke="#D93636" stroke-width="2"/><g clip-path="url(#clip1_1259_8522)"><path d="M69 35c0 18.778-15.222 34-34 34S1 53.778 1 35 16.222 1 35 1s34 15.222 34 34z" fill="url(#paint0_linear_1259_8522)" stroke="#58393E" stroke-width="2"/><path d="M36.662 28.76c0-2.387-1.047-3.15-3.332-3.15h-5.901v2.615h5.974v.878h-3.815c-1.61 0-2.352.536-2.352 2.223v1.554c0 1.687.739 2.226 2.352 2.226h7.074V28.76zm-3.259 3.735h-2.908v-1.222h2.908v1.222zm-8.277-4.092V25.61h-5.558c-2.285 0-3.332.767-3.332 3.15v3.2c0 2.386 1.047 3.146 3.332 3.146h5.558v-2.839h-5.652v-3.864h5.652zm27.91-2.793h-3.405v9.496h3.405v-3.343h2.909v3.343h3.405V25.61h-3.405v3.154h-2.909V25.61zm-38.979 1.516l-3.213-1.516v9.496l3.213-1.512v-6.468zm24.741 5.368v2.615h6.076c2.093 0 3.048-.672 3.048-2.78v-.895c0-1.876-.85-2.475-2.709-2.475H41.56v-.731h6.08v-2.615h-6.07c-2.092 0-3.051.676-3.051 2.783v.896c0 1.872.85 2.47 2.709 2.47h3.65v.732h-6.08zm-24.504-9.586a1.82 1.82 0 11-3.641-.002 1.82 1.82 0 013.641.002z" fill="#fff"/><path d="M29.877 38.98c-.795 0-1.55.644-1.69 1.438l-1.467 8.327c-.14.794.392 1.438 1.186 1.438h8.852l1.97-11.203h-8.851z" fill="#00913A"/><path d="M57.52 38.98c.794 0 1.323.643 1.186 1.438l-1.463 8.326c-.14.795-.896 1.439-1.69 1.439H27.91c-.795 0-1.323-.644-1.187-1.439l1.463-8.326c.14-.795.896-1.439 1.69-1.439H57.52zm0-.624H29.877c-1.1 0-2.11.858-2.303 1.953l-1.463 8.327c-.098.563.042 1.123.385 1.533.343.41.847.637 1.414.637h27.643c1.099 0 2.11-.858 2.303-1.953l1.463-8.327c.098-.563-.042-1.123-.385-1.533-.343-.41-.847-.637-1.414-.637z" fill="#fff"/><path d="M38.728 38.98l-1.97 11.203h9.94l1.97-11.203h-9.94z" fill="#F08C00"/><path d="M57.52 38.98h-8.852l-1.97 11.203h8.85c.795 0 1.551-.644 1.691-1.438l1.463-8.327c.14-.794-.392-1.438-1.186-1.438h.003z" fill="#8F70AE"/><path d="M56.918 40.981H54.44l-.43 2.447H51.8l.431-2.447h-2.46l-.368 2.083c-.308 1.76.287 2.208 2.072 2.208h2.209l-.196 1.106h-3.255l-1.73 1.803h4.59c1.564 0 2.645-.518 2.932-2.139l.89-5.057.003-.004zm-10.443 2.387c.318-1.81-.375-2.387-2.104-2.387h-4.473l-.325 1.859h4.529l-.14.787H41.07c-1.222 0-1.855.406-2.08 1.687l-.206 1.176c-.224 1.278.266 1.687 1.484 1.687h5.362l.847-4.812-.003.003zm-2.996 2.996h-2.205l.192-1.088h2.205l-.192 1.088zm-8.219-5.383h-5.362l-1.267 7.2 2.695-.97.294-1.676h2.838c1.222 0 1.855-.406 2.08-1.687l.206-1.176c.224-1.278-.266-1.687-1.484-1.687v-.004zm-1.2 2.909h-2.206l.186-1.047h2.205l-.186 1.047z" fill="#fff"/></g><path d="M116.051 183.85c.55 0 1.1 0 1.66-.01-.55 0-1.1 0-1.66.01zm17.64-55.49V99.42c-12.26.29-34.08.48-47.31.37v28.72c-13.38.02-24.97.02-31.57-.02-.44 17.92-.96 38.38-1.01 53.92-.01.82.66 1.48 1.47 1.47 11.97.12 23.94.13 35.91.1-.08-8.9.83-18.15.79-27.04-.09-2.94 2.65-5.41 5.54-5.26 4.89-.19 11.73-.64 16.55-.69 1.35-.01 4.9-.06 6.21-.07 2.33-.25 5.08 1.02 6.13 3.27.77 1.37.66 3.04.63 4.54-.04 4.13-.17 12.43-.29 16.55l-.27 8.28v.22c3.65-.03 7.3-.06 10.95-.1 9.14-.09 18.27-.26 27.41-.43.45 0 .8-.37.8-.82l-.26-17.29c-.13-11.39-.11-24.54.05-36.96-6.44.07-18.13.14-31.71.2l-.02-.02zm8.06 11.68l1.67.05c2.23.05 4.46.2 6.7.39 1.33.07 2.49.91 3.05 2 .58 1.08.36 2.28.43 3.45.06 2.23.38 4.46.51 6.69.07 1.42-.74 2.87-2.02 3.53-1.18.66-2.46.38-3.71.26-2.23-.27-4.46-.56-6.7-.54-1.79.06-3.48-1.49-3.61-3.32l-.2-1.67c-.31-2.23-.36-4.46-.41-6.7-.07-2.29 2.03-4.3 4.29-4.14zm-75.28 5.89c.06-1.16-.15-2.37.43-3.45.56-1.1 1.72-1.93 3.05-2 2.23-.19 4.46-.35 6.7-.39l1.67-.05c2.26-.15 4.36 1.85 4.29 4.14-.04 2.23-.1 4.46-.41 6.7l-.2 1.67c-.13 1.83-1.81 3.39-3.61 3.32-2.23-.03-4.46.27-6.7.54-1.25.12-2.53.4-3.71-.26-1.28-.66-2.09-2.11-2.02-3.53.12-2.23.45-4.46.51-6.69zm43.56-9.13c-11.29.16-19.52-11.35-14.76-21.87 5.75-12.87 24.09-13.3 29.75-.09 4.51 10.6-3.65 22.13-14.99 21.96z" fill="#F1F1F1"/><path d="M86.38 116.94v-10.96c-20.94.06-37.67.27-38.02.75 0 0-1.13 10.38.61 10.71.08.01.38.03.86.04 4.54-.33 19.07-.48 36.55-.53v-.01zm47.312.05c13.97.06 25.88.14 32.04.2 2.58-.03 4.27-.06 4.79-.08 5.1-.25-.28-10.62-.28-10.8 0-.06-16.08-.2-36.56-.28v10.96h.01z" fill="#1D8061"/><path d="M170.251 117.27s-1.64-.05-4.52-.08c-6.17-.07-18.08-.15-32.04-.2v11.37c13.58-.06 25.28-.13 31.71-.2 2.78-.03 4.58-.06 5.13-.08 5.1-.25-.28-10.63-.28-10.8v-.01zM86.38 128.51v-11.57c-17.48.05-32.01.2-36.55.53-.9.06-1.41.14-1.47.22 0 0-1.13 10.38.61 10.71.22.04 2.33.07 5.83.09 6.61.04 18.19.04 31.57.02h.01z" fill="#F25252"/><path d="M110.03 108.391c-10.73-.03-16.36 13.97-8.86 21.51 4.59 4.92 13 4.59 17.5-.21 7.54-7.57 2.15-21.23-8.65-21.3h.01zm-1.21 5.46c0-.83.67-1.5 1.5-1.5s1.5.67 1.5 1.5v5.83l6.23-2.15c.78-.27 1.64.15 1.91.93s-.15 1.64-.93 1.91l-8.22 2.83c-.16.06-.33.08-.49.08-.31 0-.61-.1-.87-.28-.39-.28-.63-.74-.63-1.22v-7.94.01z" fill="#fff"/><path d="M125.02 114.83c-5.66-13.2-24-12.77-29.75.09-4.76 10.52 3.48 22.02 14.76 21.87 11.34.17 19.5-11.36 14.99-21.96zm-23.84 15.07c-7.5-7.54-1.87-21.55 8.86-21.51 10.8.07 16.19 13.73 8.65 21.3-4.5 4.8-12.91 5.12-17.5.21h-.01z" fill="#58393E"/><path d="M126.74 175.27c.11-4.12.24-12.43.29-16.55.03-1.5.14-3.16-.63-4.54-1.04-2.25-3.79-3.52-6.13-3.27-1.31 0-4.86.06-6.21.07-4.82.05-11.66.5-16.55.69-2.9-.14-5.63 2.32-5.54 5.26.03 8.89-.88 18.15-.79 27.04v.46c8.29-.03 16.58-.51 24.87-.58.55 0 1.1-.01 1.66-.01 2.77 0 5.54.04 8.31.16h.45v-.47l.27-8.28v.02z" fill="#9B7E73"/><path d="M67.991 156.15c1.18.66 2.46.38 3.71.26 2.23-.27 4.46-.56 6.7-.54 1.79.06 3.48-1.49 3.61-3.32l.2-1.67c.31-2.23.36-4.46.41-6.7.07-2.29-2.03-4.3-4.29-4.14l-1.67.05c-2.23.05-4.46.2-6.7.39-1.33.07-2.49.91-3.05 2-.58 1.07-.36 2.28-.43 3.45-.06 2.23-.38 4.46-.51 6.69-.07 1.42.74 2.87 2.02 3.53zm70.08-3.6c.12 1.83 1.81 3.39 3.61 3.32 2.23-.03 4.46.27 6.7.54 1.25.12 2.53.4 3.71-.26 1.28-.66 2.09-2.11 2.02-3.53-.12-2.23-.45-4.46-.51-6.69-.06-1.16.15-2.37-.43-3.45-.56-1.1-1.72-1.93-3.05-2-2.23-.19-4.46-.35-6.7-.39l-1.67-.05c-2.26-.16-4.36 1.86-4.29 4.14.04 2.23.1 4.46.41 6.7l.2 1.67z" fill="#83CAFF"/><path d="M109.45 123.01c.26.18.56.28.87.28.16 0 .33-.03.49-.08l8.22-2.83c.78-.27 1.2-1.12.93-1.91-.27-.79-1.12-1.2-1.91-.93l-6.23 2.15v-5.83c0-.83-.67-1.5-1.5-1.5s-1.5.67-1.5 1.5v7.94c0 .48.23.94.63 1.22v-.01z" fill="#583D41"/><path d="M112.11 89.11c.14.89.56 1.66 1.26 2.34.7.67 1.45.98 2.25.91a5.26 5.26 0 001.54-1.76c.36-.68.59-1.41.69-2.18.1-.77.15-1.68.15-2.73s0-1.96-.05-2.75c-.04-.79-.12-1.4-.25-1.83-.13-.43-.3-.94-.53-1.55-.23-.61-.55-1.05-.96-1.32-.41-.27-.86-.36-1.35-.28-.49.08-.94.31-1.36.7-.42.39-.76.89-1.02 1.49-.26.61-.45 1.49-.56 2.66-.11 1.17-.14 2.28-.09 3.36.05 1.08.14 2.06.28 2.94zm15.931-3.65c.44-.22.86-.51 1.26-.85.39-.35.72-.74.97-1.16.25-.42.4-.91.43-1.45.03-.54 0-1.09-.12-1.65-.11-.56-.52-1.12-1.23-1.67-.71-.55-1.42-.9-2.12-1.04-.7-.14-1.58-.15-2.62-.02l-.09 8.61c1.23-.03 2.04-.12 2.43-.26.39-.14.75-.31 1.1-.5l-.01-.01z" fill="#F4944D"/><path d="M133.692 99.42c4.97-.12 8.37-.25 8.98-.39 2.84-.63.56-27.38.58-27.84.02-.46-66.97-2.75-67.59.6 0 0-1.33 26.75-.39 27.6.24.22 4.66.34 11.11.4 13.23.11 35.05-.08 47.31-.37zm-10.99-21.76c-.06-1.12.15-1.74.64-1.84.49-.1 1.04-.15 1.66-.15.62 0 1.25.03 1.89.09.64.06 1.28.18 1.91.36.63.17 1.27.55 1.92 1.11.65.57 1.09 1.08 1.33 1.52.24.44.38 1.02.44 1.74s.05 1.36-.02 1.93c-.07.57-.21 1.1-.42 1.59s-.75 1.14-1.64 1.94c-.89.81-1.82 1.39-2.81 1.75-.99.36-2.04.48-3.14.36v5.48l-.24.47c-.22.16-.46.25-.71.28-.25-.03-.47-.13-.66-.28-.16-.19-.25-.41-.28-.66l.14-15.7-.01.01zm-12.39 3.07c.3-1.23.77-2.18 1.4-2.86.63-.68 1.17-1.14 1.61-1.38.44-.24.96-.41 1.54-.51.58-.1 1.21 0 1.86.3.65.3 1.16.72 1.51 1.27.35.55.67 1.24.97 2.09.3.85.51 1.83.62 2.95.11 1.12.15 2.29.12 3.51-.03 1.22-.18 2.36-.45 3.44s-.79 2.11-1.55 3.09c-.77.99-1.78 1.55-3.05 1.67a5.54 5.54 0 01-1.71-.45c-.54-.24-1.1-.69-1.68-1.36-.58-.67-.97-1.55-1.16-2.64a29.24 29.24 0 01-.38-2.91c-.06-.85-.09-1.79-.09-2.82 0-1.03.15-2.17.45-3.39h-.01zm-13.18 3.56c.05-3.94.06-6.16.05-6.65-.02-.49.09-.94.31-1.35.22-.19.51-.27.85-.24l.47.24c.25.44.33.96.24 1.56l-.05 5.76 5.62.09c.06-1.2.11-2.41.14-3.62.03-1.21.14-2.38.33-3.52.25-.19.55-.27.9-.24l.47.24c.25.57.33 1.2.24 1.9-.06 1.34-.12 2.69-.17 4.03-.05 1.34-.12 5.08-.21 11.19l-.24.47c-.22.19-.51.27-.85.24l-.47-.24c-.16-.19-.25-.41-.28-.66l.09-7.94-5.62-.09.19 7.94c-.03.25-.13.47-.29.66-.22.19-.51.27-.85.24l-.47-.24c-.25-.79-.39-1.63-.43-2.53-.03-.89-.02-3.31.02-7.26l.01.02zm-11.87 8.26l.24-.5c.22-.19.51-.27.85-.24.63.33 1.28.46 1.93.39.65-.07 1.21-.16 1.65-.27.44-.11.9-.43 1.38-.95.47-.52.67-1.14.59-1.85-.08-.71-.44-1.3-1.09-1.78-.65-.47-1.36-.89-2.15-1.26-.78-.36-1.47-.83-2.08-1.4-.6-.57-1.02-1.19-1.26-1.85-.24-.66-.34-1.36-.31-2.08.03-.72.19-1.36.47-1.91.28-.55.66-1.06 1.14-1.52a3.08 3.08 0 011.62-.85c.6-.11 1.21-.13 1.81-.05.6.08 1.14.26 1.61.55.25.28.36.63.33 1.04l-.24.47c-.22.19-.51.27-.85.24-.85-.36-1.52-.51-1.99-.43-.47.08-.86.27-1.15.56-.29.29-.53.64-.7 1.04-.17.4-.25.82-.21 1.25.03.43.12.83.26 1.21s.47.78.98 1.21c.51.43 1.17.81 1.98 1.14.81.33 1.55.82 2.23 1.47.68.65 1.1 1.33 1.26 2.04.16.71.2 1.37.12 1.97-.08.6-.2 1.09-.36 1.46-.16.37-.52.79-1.09 1.25-.57.46-1.3.77-2.18.92-.88.15-1.81.22-2.77.19-.66-.03-1.25-.22-1.75-.57a1.16 1.16 0 01-.29-.9l.02.01z" fill="#F4944D"/><path d="M90.07 93.83c.89-.16 1.61-.47 2.18-.92.57-.45.93-.87 1.09-1.25.16-.38.28-.86.36-1.46.08-.6.04-1.26-.12-1.97s-.58-1.39-1.26-2.04a7.081 7.081 0 00-2.23-1.47c-.81-.33-1.47-.71-1.98-1.14-.51-.43-.84-.83-.98-1.21s-.23-.78-.26-1.21c-.03-.43.04-.84.21-1.25.17-.4.41-.75.7-1.04.29-.29.68-.48 1.15-.56.47-.08 1.14.06 1.99.43.35.03.63-.05.85-.24l.24-.47c.03-.41-.08-.76-.33-1.04-.47-.28-1.01-.47-1.61-.55a5.79 5.79 0 00-1.81.05c-.6.11-1.15.4-1.62.85-.47.46-.85.96-1.14 1.52-.29.56-.44 1.19-.47 1.91-.03.72.07 1.41.31 2.08.24.67.66 1.28 1.26 1.85.6.57 1.29 1.04 2.08 1.4.78.36 1.5.78 2.15 1.26.65.47 1.01 1.07 1.09 1.78.08.71-.12 1.33-.59 1.85s-.93.84-1.38.95c-.44.11-.99.2-1.65.27-.66.07-1.3-.06-1.93-.39-.35-.03-.63.05-.85.24l-.24.5c-.03.35.06.65.29.9.5.35 1.09.54 1.75.57.96.03 1.89-.03 2.77-.19l-.02-.01zm7.46.24l.47.24c.35.03.63-.05.85-.24.16-.19.25-.41.29-.66l-.19-7.94 5.621.09-.09 7.94c.03.25.13.47.28.66l.47.24c.35.03.63-.05.85-.24l.24-.47c.09-6.12.17-9.85.21-11.19.05-1.34.1-2.69.17-4.03.09-.7.02-1.33-.24-1.9l-.47-.24c-.35-.03-.65.05-.9.24-.19 1.14-.3 2.31-.33 3.52-.03 1.21-.08 2.42-.14 3.62l-5.62-.09.05-5.76c.09-.6.02-1.12-.24-1.56l-.47-.24c-.35-.03-.63.05-.85.24-.22.41-.32.86-.31 1.35.02.49 0 2.71-.05 6.65-.05 3.94-.06 6.36-.02 7.26.03.89.17 1.74.43 2.53l-.01-.02zm12.802-4.22c.19 1.09.58 1.97 1.16 2.64.58.67 1.15 1.13 1.68 1.36.54.24 1.11.39 1.71.45 1.26-.13 2.28-.68 3.05-1.67.77-.99 1.29-2.02 1.55-3.09.26-1.07.42-2.22.45-3.44.03-1.22 0-2.39-.12-3.51-.12-1.12-.32-2.11-.62-2.95-.3-.85-.62-1.54-.97-2.09-.35-.55-.85-.97-1.51-1.27-.66-.3-1.28-.4-1.86-.3-.58.1-1.1.27-1.54.51-.44.24-.98.7-1.61 1.38-.63.68-1.1 1.63-1.4 2.86-.3 1.23-.45 2.36-.45 3.39 0 1.03.03 1.98.09 2.82.06.85.19 1.81.38 2.91h.01zm1.59-7.03c.11-1.16.3-2.05.56-2.66.26-.61.6-1.11 1.02-1.49.42-.39.87-.62 1.36-.7.49-.08.94.02 1.35.28.41.27.73.71.96 1.32.23.61.41 1.13.53 1.55.13.43.21 1.04.25 1.83.04.79.05 1.71.05 2.75s-.06 1.95-.15 2.73c-.09.77-.32 1.5-.69 2.18a5.26 5.26 0 01-1.54 1.76c-.81.06-1.56-.24-2.25-.91-.7-.67-1.11-1.45-1.26-2.34-.14-.89-.24-1.87-.28-2.94-.04-1.07-.02-2.19.09-3.36zm11.589 11.49c.25-.03.49-.13.71-.28l.24-.47v-5.48c1.11.13 2.15 0 3.14-.36.99-.36 1.92-.95 2.81-1.75.89-.81 1.43-1.45 1.64-1.94.21-.49.34-1.02.42-1.59.07-.57.08-1.21.02-1.93s-.2-1.3-.44-1.74c-.24-.44-.68-.95-1.33-1.52-.65-.57-1.29-.94-1.92-1.11-.63-.17-1.27-.29-1.91-.36-.64-.06-1.27-.09-1.89-.09-.62 0-1.17.05-1.66.15-.49.1-.7.72-.64 1.84l-.14 15.7c.03.25.13.47.28.66.19.16.41.25.66.28l.01-.01zm1.09-16.7c1.04-.13 1.92-.12 2.62.02.7.14 1.41.49 2.12 1.04.71.55 1.12 1.11 1.23 1.67.11.56.15 1.11.12 1.65-.03.54-.17 1.02-.43 1.45-.26.43-.58.81-.97 1.16-.4.35-.81.63-1.26.85-.35.19-.72.36-1.1.5-.39.14-1.2.23-2.43.26l.09-8.61.01.01z" fill="#fff"/></g><defs><clipPath id="clip0_1259_8522"><path fill="#fff" d="M0 0h220v237H0z"/></clipPath><clipPath id="clip1_1259_8522"><path fill="#fff" d="M0 0h70v70H0z"/></clipPath><linearGradient id="paint0_linear_1259_8522" x1="10.252" y1="10.252" x2="59.748" y2="59.748" gradientUnits="userSpaceOnUse"><stop stop-color="#EF8F7A"/><stop offset=".06" stop-color="#ED796A"/><stop offset=".2" stop-color="#EA544F"/><stop offset=".33" stop-color="#E83539"/><stop offset=".48" stop-color="#E71E27"/><stop offset=".63" stop-color="#E50D1B"/><stop offset=".79" stop-color="#E50314"/><stop offset="1" stop-color="#E50012"/></linearGradient></defs></svg>