<svg width="220" height="237" viewBox="0 0 220 237" fill="none" xmlns="http://www.w3.org/2000/svg"><g clip-path="url(#clip0_1259_9447)"><circle cx="110" cy="127" r="110" fill="#fff"/><circle cx="110" cy="127" r="99" fill="#fff" stroke="#D93636" stroke-width="2"/><g clip-path="url(#clip1_1259_9447)"><path d="M69 35c0 18.778-15.222 34-34 34S1 53.778 1 35 16.222 1 35 1s34 15.222 34 34z" fill="url(#paint0_linear_1259_9447)" stroke="#58393E" stroke-width="2"/><path d="M36.662 28.76c0-2.387-1.047-3.15-3.332-3.15h-5.901v2.615h5.974v.878h-3.815c-1.61 0-2.352.536-2.352 2.223v1.554c0 1.687.739 2.226 2.352 2.226h7.074V28.76zm-3.259 3.735h-2.908v-1.222h2.908v1.222zm-8.277-4.092V25.61h-5.558c-2.285 0-3.332.767-3.332 3.15v3.2c0 2.386 1.047 3.146 3.332 3.146h5.558v-2.839h-5.652v-3.864h5.652zm27.91-2.793h-3.405v9.496h3.405v-3.343h2.909v3.343h3.405V25.61h-3.405v3.154h-2.909V25.61zm-38.979 1.516l-3.213-1.516v9.496l3.213-1.512v-6.468zm24.741 5.368v2.615h6.076c2.093 0 3.048-.672 3.048-2.78v-.895c0-1.876-.85-2.475-2.709-2.475H41.56v-.731h6.08v-2.615h-6.07c-2.092 0-3.051.676-3.051 2.783v.896c0 1.872.85 2.47 2.709 2.47h3.65v.732h-6.08zm-24.504-9.586a1.82 1.82 0 11-3.641-.002 1.82 1.82 0 013.641.002z" fill="#fff"/><path d="M29.877 38.98c-.795 0-1.55.644-1.69 1.438l-1.467 8.327c-.14.794.392 1.438 1.186 1.438h8.852l1.97-11.203h-8.851z" fill="#00913A"/><path d="M57.52 38.98c.794 0 1.323.643 1.186 1.438l-1.463 8.326c-.14.795-.896 1.439-1.69 1.439H27.91c-.795 0-1.323-.644-1.187-1.439l1.463-8.326c.14-.795.896-1.439 1.69-1.439H57.52zm0-.624H29.877c-1.1 0-2.11.858-2.303 1.953l-1.463 8.327c-.098.563.042 1.123.385 1.533.343.41.847.637 1.414.637h27.643c1.099 0 2.11-.858 2.303-1.953l1.463-8.327c.098-.563-.042-1.123-.385-1.533-.343-.41-.847-.637-1.414-.637z" fill="#fff"/><path d="M38.728 38.98l-1.97 11.203h9.94l1.97-11.203h-9.94z" fill="#F08C00"/><path d="M57.52 38.98h-8.852l-1.97 11.203h8.85c.795 0 1.551-.644 1.691-1.438l1.463-8.327c.14-.794-.392-1.438-1.186-1.438h.003z" fill="#8F70AE"/><path d="M56.918 40.981H54.44l-.43 2.447H51.8l.431-2.447h-2.46l-.368 2.083c-.308 1.76.287 2.208 2.072 2.208h2.209l-.196 1.106h-3.255l-1.73 1.803h4.59c1.564 0 2.645-.518 2.932-2.139l.89-5.057.003-.004zm-10.443 2.387c.318-1.81-.375-2.387-2.104-2.387h-4.473l-.325 1.859h4.529l-.14.787H41.07c-1.222 0-1.855.406-2.08 1.687l-.206 1.176c-.224 1.278.266 1.687 1.484 1.687h5.362l.847-4.812-.003.003zm-2.996 2.996h-2.205l.192-1.088h2.205l-.192 1.088zm-8.219-5.383h-5.362l-1.267 7.2 2.695-.97.294-1.676h2.838c1.222 0 1.855-.406 2.08-1.687l.206-1.176c.224-1.278-.266-1.687-1.484-1.687v-.004zm-1.2 2.909h-2.206l.186-1.047h2.205l-.186 1.047z" fill="#fff"/></g><g clip-path="url(#clip2_1259_9447)"><path d="M151.412 131.87c.71.02 1.38.04 2.05.07 4.78.25 13.75 1.59 17.44 2.44 3.23.75 6.02 2.39 8.54 4.59 1.28 1.11 1.98 2.62 2.6 4.11.84 2.05 1.62 4.14 2.01 6.31.16.92.29 1.84.36 2.76.14 1.84.23 3.69.34 5.53v.2c-.06 1.25-.19 1.44-1.44 1.58-3.6.39-7.19.8-10.8 1.1-3.35.28-10.68.74-15.01.09-.92-.14-1.83-.39-2.75-.59-.48-.11-.81-.39-.97-.85-.41-1.2-.84-2.4-1.22-3.6-.49-1.56-1.05-3.09-2.11-4.42-2.12-2.68-4.71-3.29-7.5-1.8-1.86.99-3.22 2.48-4.2 4.29-1.03 1.89-1.89 3.89-2.82 5.85-.11.23-.17.5-.3.71-.09.14-.28.29-.44.3-3.69.11-7.39.19-11.08.3-4.31.13-8.62.29-12.93.43-4.29.13-8.59.25-12.88.38-3.79.12-7.58.26-11.37.38-3.59.12-7.18.22-10.77.33h-.6c-.45-.02-.74-.22-.94-.67-.53-1.24-1.01-2.5-1.67-3.68-1.89-3.36-5.59-4.7-8.93-3.34-1.65.67-2.87 1.82-3.79 3.31-.52.84-1.03 1.68-1.49 2.54-.32.6-.77.89-1.49.88-2.37-.03-4.73 0-7.1-.05-3.86-.07-7.72-.16-11.59-.3-.81-.03-1.64-.29-2.44-.51-.7-.19-1.1-.73-1.1-1.42 0-1.77-.1-3.56.13-5.28.44-3.3 1.29-6.5 2.42-9.58.63-1.71 1.34-3.38 2.36-4.88.92-1.35 2.12-2.35 3.66-2.96 3.1-1.23 6.37-1.98 9.73-2.44 1.39-.19 2.79-.37 4.18-.58.19-.03.39-.21.48-.39.88-1.77 1.72-3.55 2.59-5.32 3.15-6.47 6.29-12.95 9.88-19.16.72-1.24 1.55-2.41 2.43-3.53 2.05-2.6 4.87-3.96 8.24-4.4 3.11-.41 6.24-.66 9.41-.67 5.36-.03 10.73 0 16.09-.06 3.83-.04 7.66-.22 11.49-.24 3.25-.02 6.51.13 9.77.15 1.52 0 3.04.17 4.52.53 2.81.69 5.54 1.65 7.79 3.72 1.73 1.59 3.07 3.47 3.98 5.58 2.47 5.74 4.37 11.62 5.98 17.58.38 1.42.74 2.84 1.11 4.26.04.16.1.32.14.45l.01-.03zm-43.33 2.5c1.99.07 3.89.22 5.78.18 4.33-.08 8.66-.26 12.98-.37 3.59-.09 7.2-.13 10.79-.22 1.18-.03 2.37-.13 3.53-.28.76-.1.89-.37.74-1.15-.74-3.71-1.44-7.43-2.26-11.13-.59-2.66-1.58-5.21-3.19-7.53-1.76-2.55-4.05-4.36-7.03-5.08-1.57-.38-3.18-.69-4.77-.83-2.88-.26-5.76-.42-8.63-.53-1.91-.07-3.82 0-5.73 0-.41 0-.64.1-.65.6-.05 1.7-.14 3.39-.27 5.08-.21 2.83-.5 5.64-.69 8.47-.23 3.31-.4 6.63-.57 9.95-.05.88-.02 1.76-.04 2.83l.01.01zm-5.85-27.04l-1.81-.06c-4.43-.19-8.85-.3-13.15.47-1.49.27-2.97.63-4.4 1.06-2.92.89-4.93 2.84-6.35 5.47-2.32 4.31-4.34 8.78-6 13.43-.61 1.7-1.09 3.45-1.61 5.18-.23.78-.17.85.66.94.32.04.64.08.96.09 3.85.15 7.7.33 11.55.44 2.32.07 4.63.06 6.94.02 1.91-.03 3.81-.13 5.71-.23 1.6-.08 3.19-.22 4.79-.3.53-.03.8-.16.81-.75.02-.85.16-1.68.24-2.52.34-3.51.63-7.03 1.02-10.52.39-3.47.88-6.92.75-10.46-.03-.73-.08-1.46-.12-2.27l.01.01zm-66.31 45.87c-.08.72-.2 1.47-.22 2.23-.03 1.2 0 2.4.02 3.6 0 .44.25.73.68.87.21.07.43.17.64.19 1.61.14 3.22.28 4.83.37.7.04 1.4-.06 2.09-.11.53-.04.82-.32.89-.86.12-1.07.3-2.12.4-3.19.12-1.3-.06-1.55-1.37-1.78-2.61-.46-5.22-.87-7.96-1.32zm143.61-13.06c-1.97.42-3.33 2.09-3.34 4.08-.01 1.99 1.05 3.45 2.83 3.78 1.34.25 2.55-.21 3.81-.56-.84-2.58-1.55-5.14-3.31-7.29l.01-.01z" fill="#F9C73D"/><path d="M149.793 157.439c-.05 4.36-1.26 8.21-4.3 11.22-.78.77-1.72 1.35-2.91 1.44-1.23.09-2.17-.45-2.88-1.49a5.83 5.83 0 01-.98-2.79c-.41-4.87.97-9.02 4.28-12.33.81-.81 1.82-1.38 3.09-1.37 1.27.01 2.17.69 2.79 1.77.64 1.11.84 2.32.91 3.54v.01zm-78.69 5.941c-.02 3.26-.93 6.35-3.39 8.74-.48.47-1.1.85-1.73 1.13-1.75.76-3.49.08-4.53-1.68-.62-1.05-.91-2.17-.96-3.32-.16-3.43.75-6.44 2.94-8.93.61-.69 1.35-1.24 2.24-1.56 1.67-.61 3.25-.05 4.29 1.54.78 1.19 1.02 2.51 1.14 4.08z" fill="#58393E"/><path d="M108.082 134.37c.01-1.07-.01-1.96.04-2.83.18-3.32.35-6.64.57-9.95.19-2.83.48-5.65.69-8.47.13-1.69.22-3.38.27-5.08.01-.51.24-.6.65-.6 1.91 0 3.82-.08 5.73 0 2.87.11 5.75.27 8.63.53 1.59.14 3.19.45 4.77.83 2.99.72 5.27 2.53 7.03 5.08 1.61 2.32 2.6 4.87 3.19 7.53.82 3.7 1.52 7.42 2.26 11.13.16.78.02 1.05-.74 1.15-1.16.16-2.34.25-3.53.28-3.59.1-7.2.13-10.79.22-4.33.11-8.65.29-12.98.37-1.88.03-3.79-.12-5.78-.18l-.01-.01zm-5.851-27.04c.04.81.09 1.54.12 2.27.13 3.55-.36 6.99-.75 10.46-.39 3.5-.68 7.02-1.02 10.52-.08.84-.22 1.67-.24 2.52-.02.59-.29.72-.81.75-1.6.08-3.19.22-4.79.3-1.9.1-3.8.2-5.71.23-2.31.03-4.62.04-6.94-.02-3.85-.11-7.7-.29-11.55-.44-.32-.01-.64-.05-.96-.09-.83-.1-.89-.16-.66-.94.51-1.74 1-3.49 1.61-5.18 1.66-4.64 3.68-9.11 6-13.43 1.42-2.63 3.42-4.58 6.35-5.47 1.44-.44 2.91-.8 4.4-1.06 4.3-.78 8.72-.66 13.15-.47l1.81.06-.01-.01zM35.922 153.2c2.74.45 5.35.86 7.96 1.32 1.31.23 1.49.48 1.37 1.78-.1 1.07-.27 2.13-.4 3.19-.06.54-.36.82-.89.86-.7.05-1.39.14-2.09.11-1.61-.08-3.22-.23-4.83-.37-.21-.02-.43-.12-.64-.19-.44-.13-.68-.43-.68-.87-.02-1.2-.05-2.41-.02-3.6.02-.76.15-1.51.22-2.23zm143.609-13.06c1.76 2.16 2.47 4.71 3.31 7.29-1.27.35-2.47.81-3.81.56-1.78-.33-2.85-1.79-2.83-3.78.01-1.99 1.37-3.66 3.34-4.08l-.01.01z" fill="#fff"/><path d="M130.051 94.75c-1.28-2.39-2.57-4.79-3.97-7.13-1.85-3.09-4.61-4.96-8.01-5.96-4.13-1.21-8.29-1.32-14.13-1.66-2.63.08-6.93.13-11.2.37-2.57.14-5.01.83-6.72 2.75-3.23 3.63-5.66 7.83-7.66 12.29-.66 1.47-.12 2.16 1.58 2.13 1.47-.02 2.93-.15 4.4-.15 6.15 0 12.3.04 18.44.06 3.62.01 7.25.06 10.87 0 3.01-.05 6.01-.22 9.02-.36 2.11-.1 4.23-.21 6.33-.38 1.34-.11 1.7-.77 1.06-1.96h-.01z" fill="#58393E"/><path d="M94.391 93.38l-.21-.1-.05-.02v-.05c-.24-.8-.42-1.61-.53-2.44-.06-.4-.13-.9-.21-1.51-.08-.61-.17-1.31-.27-2.11-.61.01-1.1.03-1.47.04-.38.01-.77.05-1.15.1h-.06l-.21-.1h-.02l-.02-.03a.672.672 0 01-.16-.45v-.03l.08-.2.02-.04h.04c.39-.13.81-.2 1.25-.2.43 0 2.2-.05 5.3-.13h.06l.23.13h.02l.01.02c.11.11.16.26.16.43v.03l-.08.2v.02l-.03.01c-.02.02-.04.03-.06.04l-.06.03c-.02.01-.04.02-.07.03-.03.01-.04.01-.07.02-.02 0-.05 0-.07.01h-.01l-2.67.06a79.873 79.873 0 00.18 1.43c.03.22.06.42.08.62.02.19.05.38.07.55.02.17.05.33.07.48.02.15.04.29.06.42.12.77.25 1.55.4 2.34v.05l-.08.2v.02h-.02c-.1.1-.24.14-.42.12h-.04l.01.01zm9.02-.34l-.21-.1h-.03l-.02-.03c-.14-.19-.26-.39-.38-.59-.12-.2-.23-.4-.34-.6-.1-.19-.19-.39-.28-.58-.09-.2-.17-.4-.25-.59l-2.82.11-.15.51c-.04.17-.09.35-.12.53-.08.38-.17.75-.28 1.13v.02l-.03.01c-.1.1-.24.14-.42.12h-.03l-.21-.11h-.02l-.02-.03a.828.828 0 01-.18-.43v-.02c.2-1.07.48-2.09.85-3.08.12-.33.25-.65.4-.98.14-.32.29-.64.46-.95a12 12 0 01.52-.92v-.02c.14-.14.29-.22.43-.24.14-.02.28.04.42.17v.01a19.52 19.52 0 011.76 3.17c.45 1.04.95 2.06 1.49 3.07l.02.04-.02.04-.08.2v.02l-.03.01c-.11.1-.25.14-.42.12h-.03l.02-.01zm-1.96-3.49c-.04-.09-.09-.18-.13-.28-.04-.09-.09-.18-.13-.27-.04-.09-.09-.17-.13-.26-.04-.09-.09-.17-.13-.26-.08-.15-.17-.31-.26-.47l-.27-.48c-.18.44-.48 1.14-.92 2.12l1.98-.1h-.01zm9.009 3.81l-.23-.12h-.02l-.02-.03-2.28-2.61-1.46 2.3v.02c-.12.1-.26.13-.43.12h-.04l-.21-.11h-.02l-.02-.02a.573.573 0 01-.17-.43v-.02l.02-.02c.91-1.46 1.47-2.36 1.7-2.72-.31-.39-.63-.78-.95-1.18-.34-.42-.68-.82-1.02-1.22a.605.605 0 01-.16-.43v-.03l.08-.2.01-.03c.12-.11.27-.15.46-.12h.02l.21.1h.02l.02.03 1.79 2.27c.27-.31.5-.63.71-.95.22-.36.48-.75.75-1.2.17-.25.4-.37.71-.36h.04l.21.11h.02l.02.02c.11.13.17.28.17.45v.03l-.09.21v.02c-.23.28-.44.54-.62.78s-.34.45-.47.64c-.12.18-.25.37-.37.56-.12.19-.25.37-.37.56 1.47 1.73 2.29 2.69 2.48 2.87l.03.02v.03l.05.26v.05l-.08.2v.02l-.03.01c-.11.1-.25.13-.42.12h-.04zm3.361-.16l-.21-.1h-.02l-.01-.02a.589.589 0 01-.16-.43v-.03l.08-.2v-.03l.04-.01.21-.12h.02l.02-.01h1.11l-.5-4.99-1.14.02h-.05l-.21-.12h-.02l-.01-.02a.589.589 0 01-.16-.43v-.03l.08-.2v-.02l.04-.01c.07-.04.15-.08.23-.1.08-.03.17-.04.26-.05h.28l2.72-.02h.05l.21.11h.02l.02.02c.12.13.18.29.16.47v.03l-.08.2v.03l-.04.01c-.25.13-.55.18-.89.14h-.48l.49 4.97 1.24-.02h.05l.21.11h.02l.02.03c.11.12.16.27.16.44v.03l-.08.2v.02l-.03.01c-.05.04-.1.07-.16.09-.06.02-.11.04-.18.04h-3.3l-.01-.01z" fill="#fff" stroke="#fff" stroke-width=".25" stroke-miterlimit="10"/></g></g><defs><clipPath id="clip0_1259_9447"><path fill="#fff" d="M0 0h220v237H0z"/></clipPath><clipPath id="clip1_1259_9447"><path fill="#fff" d="M0 0h70v70H0z"/></clipPath><clipPath id="clip2_1259_9447"><path fill="#fff" transform="translate(35 52)" d="M0 0h150v150H0z"/></clipPath><linearGradient id="paint0_linear_1259_9447" x1="10.252" y1="10.252" x2="59.748" y2="59.748" gradientUnits="userSpaceOnUse"><stop stop-color="#EF8F7A"/><stop offset=".06" stop-color="#ED796A"/><stop offset=".2" stop-color="#EA544F"/><stop offset=".33" stop-color="#E83539"/><stop offset=".48" stop-color="#E71E27"/><stop offset=".63" stop-color="#E50D1B"/><stop offset=".79" stop-color="#E50314"/><stop offset="1" stop-color="#E50012"/></linearGradient></defs></svg>