<svg width="220" height="237" viewBox="0 0 220 237" fill="none" xmlns="http://www.w3.org/2000/svg"><g clip-path="url(#clip0_1259_6523)"><circle cx="110" cy="127" r="110" fill="#fff"/><circle cx="110" cy="127" r="99" fill="#fff" stroke="#D93636" stroke-width="2"/><g clip-path="url(#clip1_1259_6523)"><path d="M69 35c0 18.778-15.222 34-34 34S1 53.778 1 35 16.222 1 35 1s34 15.222 34 34z" fill="url(#paint0_linear_1259_6523)" stroke="#58393E" stroke-width="2"/><path d="M36.662 28.76c0-2.387-1.047-3.15-3.332-3.15h-5.901v2.615h5.974v.878h-3.815c-1.61 0-2.352.536-2.352 2.223v1.554c0 1.687.739 2.226 2.352 2.226h7.074V28.76zm-3.259 3.735h-2.908v-1.222h2.908v1.222zm-8.277-4.092V25.61h-5.558c-2.285 0-3.332.767-3.332 3.15v3.2c0 2.386 1.047 3.146 3.332 3.146h5.558v-2.839h-5.652v-3.864h5.652zm27.91-2.793h-3.405v9.496h3.405v-3.343h2.909v3.343h3.405V25.61h-3.405v3.154h-2.909V25.61zm-38.979 1.516l-3.213-1.516v9.496l3.213-1.512v-6.468zm24.741 5.368v2.615h6.076c2.093 0 3.048-.672 3.048-2.78v-.895c0-1.876-.85-2.475-2.709-2.475H41.56v-.731h6.08v-2.615h-6.07c-2.092 0-3.051.676-3.051 2.783v.896c0 1.872.85 2.47 2.709 2.47h3.65v.732h-6.08zm-24.504-9.586a1.82 1.82 0 11-3.641-.002 1.82 1.82 0 013.641.002z" fill="#fff"/><path d="M29.877 38.98c-.795 0-1.55.644-1.69 1.438l-1.467 8.327c-.14.794.392 1.438 1.186 1.438h8.852l1.97-11.203h-8.851z" fill="#00913A"/><path d="M57.52 38.98c.794 0 1.323.643 1.186 1.438l-1.463 8.326c-.14.795-.896 1.439-1.69 1.439H27.91c-.795 0-1.323-.644-1.187-1.439l1.463-8.326c.14-.795.896-1.439 1.69-1.439H57.52zm0-.624H29.877c-1.1 0-2.11.858-2.303 1.953l-1.463 8.327c-.098.563.042 1.123.385 1.533.343.41.847.637 1.414.637h27.643c1.099 0 2.11-.858 2.303-1.953l1.463-8.327c.098-.563-.042-1.123-.385-1.533-.343-.41-.847-.637-1.414-.637z" fill="#fff"/><path d="M38.728 38.98l-1.97 11.203h9.94l1.97-11.203h-9.94z" fill="#F08C00"/><path d="M57.52 38.98h-8.852l-1.97 11.203h8.85c.795 0 1.551-.644 1.691-1.438l1.463-8.327c.14-.794-.392-1.438-1.186-1.438h.003z" fill="#8F70AE"/><path d="M56.918 40.981H54.44l-.43 2.447H51.8l.431-2.447h-2.46l-.368 2.083c-.308 1.76.287 2.208 2.072 2.208h2.209l-.196 1.106h-3.255l-1.73 1.803h4.59c1.564 0 2.645-.518 2.932-2.139l.89-5.057.003-.004zm-10.443 2.387c.318-1.81-.375-2.387-2.104-2.387h-4.473l-.325 1.859h4.529l-.14.787H41.07c-1.222 0-1.855.406-2.08 1.687l-.206 1.176c-.224 1.278.266 1.687 1.484 1.687h5.362l.847-4.812-.003.003zm-2.996 2.996h-2.205l.192-1.088h2.205l-.192 1.088zm-8.219-5.383h-5.362l-1.267 7.2 2.695-.97.294-1.676h2.838c1.222 0 1.855-.406 2.08-1.687l.206-1.176c.224-1.278-.266-1.687-1.484-1.687v-.004zm-1.2 2.909h-2.206l.186-1.047h2.205l-.186 1.047z" fill="#fff"/></g><g clip-path="url(#clip2_1259_6523)"><path d="M91.65 170.28c-5.93 2.94-18.05 2.99-24.26 0-1.16-.56-2.33-1.04-2.33-2.33v-12.34c0-1.29 1.04-2.33 2.33-2.33h24.25c1.29 0 2.33 1.04 2.33 2.33v12.34c0 1.29-1.18 1.76-2.33 2.33h.01z" fill="#FFD6BB"/><path d="M101.521 71h-44a.71.71 0 00-.71.71v7.66c0 .392.317.71.71.71h44a.71.71 0 00.71-.71v-7.66a.71.71 0 00-.71-.71z" fill="#C29473"/><path d="M60.69 76.91c.02-.24.02-.47 0-.71-.01-.24-.06-.48-.09-.71-.02-.24-.04-.48-.05-.72-.01-.28.04-.61-.19-.82.03.06.07.12.1.18-.04-.13-.05-.27-.07-.4-.05-.32-.6-.32-.64 0-.02.13-.03.27-.06.4.03-.06.07-.12.1-.18-.23.24-.16.56-.14.85.03.27.06.54.1.8.03.23.06.48.13.71.08.26.19.5.33.73.14.23.45.12.47-.13h.01zm2.171 0c.03-.28.05-.56.08-.83.03-.28.07-.55.07-.83v-.83c0-.13 0-.26-.02-.38 0-.08-.01-.17-.03-.25-.04-.13-.13-.21-.23-.29.06.08.12.16.18.23l-.06-.18c-.11-.3-.55-.34-.64 0-.02.06-.03.12-.05.18.03-.06.07-.12.1-.17-.24.21-.18.63-.15.92.02.28.04.56.07.83.02.29.09.57.14.86.05.27.1.54.14.8.05.25.4.17.42-.06h-.02zm2.429.42c.06-.32.1-.65.14-.97.04-.31.01-.62-.03-.94-.04-.34-.08-.68-.14-1.02-.03-.18-.07-.37-.18-.53-.09-.13-.19-.26-.3-.37-.13-.13-.42-.13-.5.06-.06.14-.12.29-.16.44-.06.21-.03.42 0 .64l.15.9c.05.3.09.6.19.88.11.31.23.61.34.91.08.21.44.27.49 0zm2.582-.51c0-.13-.02-.27 0-.41.03-.17.05-.32.03-.49-.02-.29-.03-.58-.03-.87 0-.29.01-.58 0-.88 0-.18 0-.36-.05-.54-.05-.21-.12-.36-.3-.5-.12-.09-.33-.07-.45 0-.35.2-.39.68-.39 1.04 0 .35.04.68.09 1.03.05.3.1.59.17.89.04.17.1.31.2.45.08.13.14.28.2.42.11.25.52.12.51-.14h.02zm2.88.27c.04-.47.08-.94.11-1.42.02-.23.02-.46.02-.69v-.34c0-.2-.04-.36-.11-.54.03.1.06.21.08.31-.02-.26-.05-.51-.07-.77-.01-.15-.02-.3-.07-.44-.06-.16-.18-.26-.32-.36-.16-.1-.34-.04-.48.06-.35.27-.27.73-.28 1.12 0 .21-.03.34-.03.54 0 .17.03.33.04.5.06.72.19 1.43.3 2.14.03.19.26.31.44.29.21-.03.33-.19.35-.39l.02-.01zm2.939.09c.03-.39.07-.78.11-1.18.04-.36.04-.73.07-1.1.02-.37.05-.73.01-1.1-.03-.3-.08-.94-.52-.89-.39.04-.5.6-.57.9-.08.39-.09.77-.09 1.17 0 .78.1 1.53.24 2.3.03.18.25.3.42.27.2-.03.32-.18.33-.37zm2.919.44c.12-.81.26-1.62.32-2.44.02-.39.02-.79.02-1.18 0-.46-.02-.86-.28-1.24-.14-.2-.39-.19-.53 0-.26.35-.3.72-.31 1.15 0 .41-.03.82-.02 1.23.02.81.13 1.6.23 2.41.02.15.1.27.25.29.13.02.3-.07.32-.21v-.01zm2.93-.44c0-.71.04-1.42.04-2.13 0-.35.02-.7.03-1.05 0-.36.08-.76-.04-1.11-.1-.28-.55-.41-.7-.09-.1.21-.13.38-.13.61 0 .17 0 .34-.01.5 0 .38.02.76.05 1.13.06.75.21 1.46.41 2.18.05.2.35.16.35-.05v.01zm2.73.11c.14-.76.18-1.52.21-2.29.02-.39.01-.77 0-1.16 0-.41.02-.83-.07-1.22-.09-.38-.74-.41-.8 0-.06.39 0 .78.02 1.18.03.4.05.8.1 1.2.09.77.19 1.54.39 2.29.02.06.12.07.13 0h.02zm2.911-.37c.09-.08.16-.12.2-.25.02-.08.02-.19.03-.27.02-.19.05-.38.07-.57.04-.37.04-.74.06-1.11.02-.37.03-.74.04-1.11 0-.37.05-.92-.28-1.19-.19-.15-.39-.15-.58 0-.33.26-.29.81-.29 1.19 0 .37.01.74.02 1.11.01.37.01.74.04 1.11l.06.57c0 .08 0 .19.03.27.03.13.11.17.2.25.11.1.28.1.39 0h.01zm2.181.17c.36-.18.4-.65.43-1.01.04-.35.06-.7.08-1.05.04-.67.17-1.57-.3-2.12-.11-.13-.3-.07-.39.05-.2.29-.23.68-.24 1.02-.01.35 0 .7 0 1.05 0 .35-.03.7-.05 1.05-.02.33-.06.74.21.97.08.07.17.08.26.03v.01zm2.998-.21c.12-.25.23-.5.27-.77l.12-.79c.04-.28.09-.56.12-.84.02-.13.03-.26.04-.38.02-.21 0-.36-.11-.54l.06.22c0-.11-.02-.21-.03-.32-.04-.41-.6-.51-.73-.1-.03.1-.07.2-.1.3.04-.06.08-.13.11-.19-.06.06-.11.11-.15.18-.07.11-.07.24-.09.36-.02.13-.03.26-.05.38-.03.27-.05.53-.07.8l-.06.77c-.02.29.02.57.08.85.05.26.47.32.59.08v-.01zm2.942-.24c.07-.37.14-.73.22-1.1.08-.35.11-.72.15-1.08.05-.37.12-.75.15-1.13.03-.34.06-.81-.18-1.08-.07-.08-.24-.11-.33-.04-.3.21-.37.65-.43.99-.06.37-.08.76-.12 1.13-.04.36-.1.72-.1 1.08 0 .38-.02.75-.04 1.12-.02.39.61.48.68.09v.02zm2.268-.15c.15-.16.18-.37.24-.58.05-.18.1-.35.12-.53.06-.41.12-.82.17-1.23.04-.39.1-.78.09-1.18 0-.32.04-.95-.39-1.01-.44-.06-.53.56-.6.87-.09.41-.12.82-.16 1.23-.04.39-.06.78-.08 1.18 0 .19 0 .36.01.55.02.21 0 .44.11.63.1.17.36.21.49.06v.01zm3.23.12c.06-.32.05-.63.05-.95 0-.31.02-.61.04-.92.02-.31.06-.61.09-.91.02-.3.16-.69-.06-.94-.08-.09-.23-.1-.33-.04-.27.16-.26.6-.3.89-.04.32-.06.65-.07.97-.01.32-.01.63 0 .95 0 .32.01.64.11.95.07.22.43.25.48 0h-.01z" fill="#6F4938"/><path d="M103.32 79.64c-1.79-2.69-5.74-1.72-8.4-1.56-12.49.76-24.77-.01-37.27.05-1.33 0-2.77 1.18-2.64 2.59 1.1 12.27 2.6 24.49 4.23 36.7.87 6.52 1.62 13.05 2.63 19.55.71 4.59 1.07 9.22 2 13.78.23 1.12.45 2.31.92 3.37.46 1.03 1.77 1.24 2.76 1.37 2.87.35 5.69 1.04 8.59 1.28 4.33.36 8.7.19 12.96-.73 1.31-.28 2.74-.45 4.02-.96 1.58-.63 2.03-1.38 2.15-3.03 1.61-21.68 6.38-42.96 8.24-64.61.2-2.29 1.21-5.71-.18-7.81l-.01.01z" fill="#58393E"/><path d="M92.89 93.32c-.98-1.69-2.64-1.11-4.12-.94-7.15.84-14.38-.07-21.54-.03-.75 0-1.55.76-1.48 1.66 1.09 13.92 2.9 27.8 4.53 41.66.02.17.09.3.18.41.25 1.37.54 2.74.92 4.07.17.65.58.99 1.04 1.09.2.21.44.39.75.51.84.34 1.71.63 2.6.79 2.12.39 4.21.31 6.28-.05.25 0 .51 0 .76-.01 1.47-.08 2.97-.32 4.36-.88 1.57-.64 2-1.78 2.23-3.54.43-3.25.83-6.51 1.17-9.77.66-6.41 1.15-12.86 1.62-19.3.26-3.56.54-7.11.81-10.67.11-1.47.68-3.67-.1-5.01l-.01.01z" fill="#FFC69F"/><path d="M85.31 127.17c-.08-.23-.32-.45-.59-.47-.28-.03-.69.31-.84.49-1.4 1.58-1.38 1.8-2.36 3.47-.34.55-1.05.84-1.24.92a42.57 42.57 0 01-1.05-4.03l.04.09c1.43-.17 5.22-1.69 5.83-4.14.06-.25.1-.51 0-.77s-.4-.51-.72-.54c-.33-.03-.81.36-.99.56-1.62 1.81-1.54 2.67-2.6 3.8-.61.46-1.38.69-1.62.77-.27-1.33-.48-2.67-.63-4.01 2.21-.73 4.79-1.98 5.39-4.48.06-.26.1-.54 0-.81-.11-.27-.4-.52-.72-.54-.33-.02-.81.4-.99.62-1.62 1.95-1.43 2.1-2.54 4.15-.3.54-.85.74-1.15.81a44.59 44.59 0 01-.27-5v-.27c2.68-.82 5.48-1.84 6.59-4.15.12-.24.21-.51.17-.79-.05-.29-.28-.6-.59-.69-.32-.09-.88.22-1.1.39-2 1.55-1.5 2.08-3.5 4.02-.41.46-1.14.85-1.56 1.08.02-1.57.13-3.14.33-4.7 1.52.19 5.04-1.34 5.95-3.51.1-.23.18-.49.12-.77s-.28-.6-.57-.7c-.3-.1-.8.18-1 .34-1.78 1.45-1.49 2.44-3.1 3.72-.36.44-1 .65-1.38.77.13-1.03.29-2.05.5-3.07.13-.63.29-1.26.45-1.89 2.28-.55 4.65-1.27 5.43-3.27.08-.21.15-.44.08-.71-.07-.26-.3-.56-.58-.67-.29-.11-.76.13-.94.27-1.64 1.26-1.95 1.9-3.15 3.38-.23.28-.53.51-.76.69.21-.81.45-1.61.71-2.4.15-.45.34-.9.54-1.36 1.88-.66 3.78-1.46 4.1-2.96.03-.16.05-.33-.06-.51-.1-.18-.36-.37-.63-.41-.27-.04-.64.19-.77.31-1.21 1.1-.82 1.81-1.93 2.9-.17.25-.44.43-.66.56.34-.79.67-1.59.76-2.41.02-.19-.21-.24-.32-.11-.34.4-.61.89-.83 1.42-.02-.15-.02-.31 0-.48-.07-1.77.68-2.17.55-4.01-.01-.2-.13-.66-.35-.8a.77.77 0 00-.72-.04c-.19.1-.3.27-.38.45-.72 1.53-.04 3.39.79 5.16-.27.7-.47 1.44-.69 2.09-.14.43-.26.86-.39 1.3-.12-.26-.27-.6-.34-.94-.36-1.87-.34-2.58-1.19-4.47-.09-.21-.39-.64-.7-.68-.3-.04-.64.11-.83.31-.19.2-.24.44-.26.66-.25 2.12 1.48 3.86 3.23 5.42-.25.88-.48 1.76-.67 2.64-.12.56-.22 1.12-.31 1.69-.31-.29-.67-.71-.83-1.19-1.08-2.02-.46-2.93-1.65-5.2-.13-.25-.51-.76-.83-.78-.31-.02-.63.21-.78.48-.15.27-.16.57-.15.85.11 2.52 2.65 5.43 4.18 6.11-.31 1.86-.49 3.74-.54 5.62-.33-.44-.76-1.04-.97-1.6-1.31-2.96-.67-3.31-2.1-5.85-.16-.28-.59-.85-.93-.89-.33-.04-.65.2-.78.49s-.12.62-.09.93c.34 2.91 2.6 5.17 4.86 7.18-.01.5-.03 1-.02 1.49.01 1.04.07 2.09.16 3.13-.3-.14-.66-.39-.91-.84-1.22-2.35-1.04-2.52-2.78-4.77-.19-.25-.7-.74-1.03-.73-.33 0-.61.28-.71.58-.1.3-.04.62.03.91.7 2.74 3.21 4.24 5.42 5.16.11 1.23.27 2.44.49 3.65-.37-.09-.88-.24-1.34-.51-1.24-1.04-1.29-1.95-3.18-3.62-.21-.18-.74-.53-1.07-.46-.32.07-.57.36-.63.65-.07.28.01.55.11.8.94 2.32 4.57 3.44 6.19 3.57.07.38.14.76.22 1.14.24 1.09.54 2.13.89 3.15-.34-.08-.94-.26-1.36-.69-1.52-1.59-1.57-1.83-3.48-3.23-.21-.15-.73-.43-1-.35-.26.08-.42.37-.43.63 0 .26.11.5.24.72 1.26 2.15 3.68 2.49 6.14 3.21.61 1.75 1.36 3.42 2.18 5.16.01.02.05 0 .04-.02-.57-1.25-1.07-2.57-1.5-3.91 2.14-1.11 4.35-1.84 4.94-3.98.06-.22.1-.45.02-.68h-.01z" fill="#FFE1CD"/><path d="M151.159 131.3l-49.45.68s-6.26 1.36-9.39 14.27c-3.13 12.91-2.5 26.51-2.5 26.51s10.61 9.52 36.93 9.52c28.17 0 38.18-6.8 38.18-6.8s0-23.79-3.13-31.95-6.88-12.23-10.64-12.23z" fill="#FEBA55"/><path d="M112.12 132.53s-13.5-11.01-2-16.08c11.49-5.07 19.94 4.35 26.89 1.71 6.95-2.64 1.65-6.24 4.05-6.45 2.4-.21 12.5 2.97 8.7 11.43-3.8 8.46-15.29 13.53-37.63 9.39h-.01z" fill="#FFD6BB"/><path d="M109.76 123.4c-.58-2.4 1.89-3.96 3.91-4.34 2.46-.46 4.9.1 7.25.83 4.87 1.52 9.82 2.98 14.97 2.13 1.27-.21 2.5-.57 3.69-1.08.6-.26 1.2-.54 1.74-.91.58-.4.72-.79.68-1.47 0-.17-.11-.3-.26-.35-.56-.18-.88-.24-1.44.06-.54.29-1.05.61-1.62.85-1.13.48-2.34.79-3.56.97-2.62.39-5.34.15-7.92-.36-4.8-.96-10.27-3.74-15.11-1.49-1.97.92-3.82 3.04-3.02 5.34.15.43.8.26.69-.19v.01zm33.209-6.09c.23.04.41.03.61-.08.1-.05.19-.12.27-.2.14-.13.25-.29.36-.44.22-.33.31-.71.35-1.1.03-.31-.01-.65-.12-.94-.19-.49-.6-1.03-1.19-1 .07 0 .14.02.21.03-.39-.14-.84.02-1.01.42-.08.19-.07.39 0 .58.08.2.23.3.4.42l-.28-.28c.06.12.16.21.25.32-.04-.06-.09-.11-.13-.17.08.1.15.21.23.31-.04-.06-.09-.11-.13-.17.05.07.1.15.13.23-.03-.07-.06-.13-.08-.2.05.12.08.25.1.37 0-.07-.02-.15-.03-.22.02.14.02.28 0 .42 0-.07.02-.15.03-.22-.03.2-.09.4-.17.58.03-.06.05-.13.08-.19-.13.3-.38.55-.35.89.02.26.18.57.47.61v.03zM148.2 120c1.03 0 1.03-1.6 0-1.6s-1.03 1.6 0 1.6zm-1.759 1.68s-.02.06-.04.09c0 .01-.01.03-.02.04v.02c-.04.11-.04.23-.02.34 0 .11.04.22.1.31v.01c.07.13.18.23.3.3.13.08.27.11.42.11.15 0 .29-.04.42-.11s.23-.18.3-.3v-.01c.03-.07.06-.13.09-.2.04-.15.04-.3 0-.45v-.02c0-.01-.01-.03-.02-.04a.355.355 0 00-.04-.09c-.03-.06-.05-.12-.08-.19a.703.703 0 00-.2-.22.425.425 0 00-.17-.1.604.604 0 00-.3-.07c-.07 0-.14.02-.21.03-.06.03-.12.05-.19.08-.09.05-.16.12-.22.2a.54.54 0 00-.14.27h.02z" fill="#fff"/><path d="M153 134.17a105.643 105.643 0 01-51.03 0c-.43-.11-.71-.51-.61-.89l2.43-9.47c.1-.38.49-.61.88-.51a94.638 94.638 0 0045.62 0c.39-.1.78.13.88.51l2.43 9.47c.1.38-.17.78-.61.89h.01z" fill="#C29473"/><path d="M106.431 131.18c.08-.3.16-.61.2-.93.04-.32.05-.64.09-.95.04-.32.09-.63.14-.95.03-.16.08-.32.06-.49 0-.07-.03-.12-.03-.19 0-.1.02-.2.02-.3.04-.43-.54-.56-.69-.15-.03.09-.06.19-.1.28-.03.09-.04.06-.1.16-.09.16-.1.37-.13.55-.05.32-.09.64-.11.96-.03.33-.07.67-.07 1 0 .34.08.69.17 1.02.07.26.47.21.53-.02l.02.01zm2.41.47c.18-.65.4-1.29.52-1.95.06-.32.12-.65.17-.97.06-.35.18-.77-.02-1.09.02.06.05.13.07.19 0-.08-.02-.15-.03-.23-.04-.31-.52-.44-.66-.13-.04.08-.07.14-.12.22-.06.1-.08.2-.11.31-.04.16-.06.31-.08.47-.04.35-.09.71-.13 1.06-.09.69-.06 1.4-.08 2.09 0 .26.4.25.46.03h.01zm2.629.91c.11-.36.22-.72.32-1.08.1-.38.13-.76.14-1.15.02-.38.03-.77.04-1.15 0-.21.01-.44-.05-.65-.06-.17-.14-.35-.23-.52-.13-.25-.48-.28-.62-.03-.09.16-.18.33-.24.5-.07.18-.07.38-.08.57-.02.39-.02.78-.03 1.16-.01.39-.03.79.03 1.18l.18 1.14c.05.31.47.28.55.02l-.01.01zm2.951-.13c.02-.2.03-.4.09-.59.06-.2.08-.38.09-.58.02-.37.06-.74.11-1.11.05-.4.12-.79.16-1.19.04-.37.03-1.07-.51-1.08-.5-.02-.68.62-.74 1-.06.39-.09.77-.1 1.16 0 .41 0 .82.02 1.22.01.21.04.38.11.58.07.2.12.39.17.6.07.29.56.33.59 0l.01-.01zm3.191.69c.14-.84.3-1.68.39-2.52.02-.2.05-.41.06-.61.01-.2-.01-.41-.01-.62 0-.22 0-.44.01-.66 0-.27-.06-.46-.24-.68-.13-.16-.42-.2-.57-.06-.2.19-.31.35-.35.62-.03.22-.05.44-.08.66-.02.19-.07.37-.09.56-.03.21-.02.45-.02.66-.03.85.01 1.71.04 2.57.02.51.78.61.87.09l-.01-.01zm3.289.38c.11-.87.24-1.73.35-2.59.05-.42.12-.83.12-1.25 0-.41.06-.95-.24-1.27-.08-.08-.23-.13-.34-.07-.39.23-.48.7-.58 1.11-.12.46-.15.93-.18 1.4-.06.91-.02 1.81.06 2.72.04.45.77.36.82-.05h-.01zm3.29.611c.17-.98.35-1.96.42-2.95.04-.48.04-.97.06-1.45.02-.53-.01-.97-.25-1.45-.1-.21-.43-.21-.55-.02-.27.44-.35.87-.38 1.37-.03.5-.07 1.01-.08 1.51-.02.99.06 1.98.13 2.97.03.38.58.39.64.02h.01zm3.31-.39c0-.88.03-1.75.04-2.63 0-.43.02-.86.03-1.29 0-.44.08-.91-.04-1.34-.11-.39-.63-.34-.77 0-.16.41-.12.9-.12 1.34 0 .45.02.9.05 1.34.06.89.22 1.76.42 2.63.05.2.39.15.39-.05zm3.091.069c.12-.94.14-1.88.14-2.82 0-.48-.02-.95-.04-1.43-.02-.49-.01-1-.12-1.48-.04-.2-.28-.31-.48-.28-.22.04-.34.21-.36.42-.05.47.04.96.08 1.43.04.48.08.95.14 1.42.12.92.25 1.85.49 2.75.02.06.13.06.14 0l.01-.01zm3.289-.699c.09-.13.15-.19.16-.35 0-.13 0-.27.01-.41 0-.24.02-.47.02-.71 0-.5-.03-1.01-.04-1.52-.01-.47-.04-.94-.06-1.41-.02-.33-.16-1.13-.66-1.1-.5.03-.54.84-.53 1.17.02.47.05.94.09 1.41.04.5.07 1.01.13 1.51.02.23.06.47.1.7l.06.4c.03.16.1.21.2.33.15.17.38.15.51-.03l.01.01zm2.471.059c.33-.32.32-.78.32-1.2 0-.43 0-.86-.03-1.3-.02-.43-.03-.87-.09-1.29-.06-.42-.14-.86-.41-1.2-.11-.14-.36-.14-.44.04-.33.76-.1 1.7-.05 2.49.02.42.04.83.05 1.25 0 .41-.02.87.28 1.19.1.11.25.12.37.01v.01zm3.308-.649c.09-.33.15-.64.16-.98 0-.33 0-.66.01-1 0-.32.01-.64 0-.96 0-.16-.01-.32-.02-.48 0-.23-.07-.37-.19-.56l.09.21c-.03-.13-.05-.26-.08-.39-.08-.4-.7-.44-.77 0-.01.09-.02.18-.04.27-.03.09-.08.16-.1.26-.03.17 0 .36 0 .54 0 .36.02.71.03 1.07.01.34.03.69.04 1.03.01.36.1.71.2 1.06.04.13.22.21.36.2.16-.02.27-.13.31-.27zm3.201-.65c.01-.9.03-1.8 0-2.7-.02-.43-.03-.86-.05-1.29-.02-.4-.05-.97-.33-1.29-.11-.13-.34-.14-.45.01-.25.35-.23.92-.21 1.33.01.43.05.86.07 1.29.05.89.14 1.78.23 2.67.04.38.74.38.74-.02zm2.529-.691c.1-.2.08-.43.09-.65.02-.24.02-.47.01-.71-.02-.45-.04-.91-.08-1.36-.04-.45-.05-.91-.14-1.35-.07-.39-.1-.97-.45-1.22-.1-.07-.29-.08-.38.02-.31.32-.24.84-.24 1.25 0 .48.06.97.1 1.45.04.45.09.9.15 1.35.03.23.08.44.13.66.06.24.09.46.23.66.15.21.48.09.58-.1zm3.552-.46c-.03-.74-.27-1.48-.38-2.21-.05-.36-.09-.72-.14-1.08-.03-.19-.05-.39-.08-.58-.02-.2-.02-.38-.17-.53a.295.295 0 00-.45.04c-.12.17-.09.35-.08.55.01.2.03.4.05.59.03.37.1.75.16 1.12.07.37.14.74.23 1.11.09.38.17.75.35 1.1.11.2.52.14.51-.11z" fill="#6F4938"/><path d="M94.21 146.34s11.27 5.23 35.68 3.92c24.41-1.31 32.68-4.85 32.68-4.85s1.39 4.85 1.56 10.73c.17 5.88.58 9.15.58 9.15s-16.67 5.88-40.46 5.22c-23.78-.65-34.42-6.54-34.42-6.54s.07-4.01.94-9.92c.94-6.41 1.56-8.37 1.56-8.37l1.88.65v.01z" fill="#DF7D00"/><path d="M95.558 158.66c-.03.11.03.18.12.2.1.16.23.3.39.41.31.22.7.3 1.07.19.35-.11.65-.37.9-.63.3-.31.57-.7.63-1.14.03-.25 0-.49-.11-.71 1.711-.47 3.511-.84 5.301-.95-.51.38-.89.91-1.09 1.52-.05-.02-.11-.03-.17.02-.12.1-.24.2-.35.31-.02.02-.05.03-.07.05-.04.03-.07.07-.07.11-.25.3-.45.64-.52 1.03-.1.56.06 1.24.56 1.56.59.38 1.13-.22 1.41-.7.29-.52.44-1.21.26-1.79-.09-.31-.33-.55-.67-.58h-.01c.23-.66.75-1.23 1.39-1.52a.21.21 0 00.06-.04c2.06-.03 4.09.35 5.95 1.4.43.24.84.51 1.25.79-.66.13-1.28.43-1.78.89a.956.956 0 00-.49-.39c-.03-.01-.05-.02-.08-.02-.28-.08-.6-.09-.85-.03-.65.15-1.23.66-1.49 1.27-.13.3-.2.68-.06.99.16.36.53.51.89.62.36.12.78.19 1.14.03.35-.15.64-.44.85-.76.24-.36.36-.8.26-1.23 0-.04-.03-.08-.04-.12.03 0 .06-.02.08-.05.52-.51 1.22-.83 1.95-.9.02 0 .03 0 .05-.01 1.02.73 2.01 1.51 3.11 2.14.69.39 1.4.73 2.13 1.03-.71.25-1.35.7-1.82 1.29-.01 0-.03 0-.04-.01 0-.02-.02-.04-.04-.05a.18.18 0 00-.23 0c-.25-.03-.5.01-.74.08-.57.09-1.01.62-1.22 1.13-.12.29-.17.62-.04.92.11.25.33.44.59.53.59.21 1.16-.03 1.6-.43.42-.37.9-.98.71-1.58a.838.838 0 00-.26-.38c.53-.64 1.25-1.08 2.06-1.27.88.32 1.78.58 2.7.78 1.22.26 2.46.41 3.71.48-.47.27-.87.66-1.16 1.12h-.07c-.71.18-1.41.52-1.81 1.16-.38.6-.38 1.39.13 1.92.48.5 1.2.48 1.71.04.25-.21.44-.49.6-.77.19-.35.35-.74.36-1.15 0-.37-.15-.77-.47-.98-.04-.03-.08-.04-.12-.06.33-.52.82-.93 1.39-1.16.05-.02.09-.06.1-.1.8.02 1.6.01 2.4-.03.24-.01.21-.38-.03-.37-1.6.08-3.2.04-4.79-.17.03-.09-.01-.17-.09-.22-.89-.58-1.5-1.55-1.69-2.59.02 0 .03 0 .05-.02.55-.35.93-.94.99-1.6.05-.61-.17-1.25-.62-1.68-.34-.32-.88-.49-1.29-.29a.18.18 0 00-.26.07c-.04.07-.06.14-.07.22-.35.49-.34 1.21-.22 1.77.08.37.22.73.43 1.04.15.22.37.44.63.5.18 1.08.78 2.06 1.65 2.73-2.4-.36-4.74-1.09-6.86-2.34-.11-.06-.21-.13-.32-.2v-.02a4.5 4.5 0 01-.71-2.13c.56-.06.81-.86.86-1.32.06-.59-.08-1.21-.47-1.67-.19-.23-.46-.42-.77-.44-.26-.02-.5.09-.69.27-.4.38-.5.99-.4 1.51.12.63.51 1.18 1.07 1.5.02 0 .03.01.05.02-.02.03-.04.07-.03.11.04.61.19 1.2.45 1.75-1.3-.89-2.51-1.91-3.9-2.65-.66-.35-1.36-.62-2.07-.82l-.06-.06c-.51-.34-.93-.83-1.18-1.39.37-.36.43-.97.26-1.46-.11-.31-.3-.59-.5-.85-.22-.27-.47-.53-.78-.69-.56-.28-1.17-.06-1.46.49-.29.56-.14 1.19.22 1.68.22.29.49.54.79.75.34.24.73.42 1.16.38.02 0 .04 0 .06-.02.19.36.43.69.72.97-.87-.18-1.76-.28-2.64-.29-1.1-.02-2.2.09-3.28.27-.67-.31-1.24-.79-1.68-1.37.08-.08.13-.19.15-.31.05-.31-.09-.65-.24-.92-.16-.29-.37-.56-.58-.81-.22-.26-.47-.5-.8-.62-.61-.21-1.16.21-1.28.81-.13.64.28 1.22.74 1.63.29.26.63.51 1.02.54.24.02.46-.04.64-.17.39.54.88 1 1.46 1.33-.92.18-1.84.4-2.74.65 0 0 0-.01-.02-.02a.204.204 0 00-.09-.05c-.25-.25-.59-.36-.95-.36-.4 0-.8.14-1.17.29-.36.15-.6.38-.7.77-.11.43-.05.94.15 1.36l-.06.04zm6.391.52c.06-.35.24-.65.47-.92-.26.58-.37 1.23-.28 1.87-.19-.27-.24-.65-.19-.96v.01zm1.4-1.03s0-.07-.01-.1c.05.05.1.11.13.21.14.43.03.96-.15 1.35-.1.21-.31.58-.57.72.28-.7.49-1.43.6-2.18zm-.27-.19s-.07.06-.08.12c-.1.66-.27 1.3-.51 1.92-.07-.71.1-1.43.5-2.03.03 0 .06-.01.09-.01zm4.29 2.25c.15-.48.56-.91 1.02-1.11.26-.11.56-.16.84-.1.04 0 .08.02.12.04.03.01.05.03.08.05-.81.2-1.55.65-2.1 1.28 0-.06.02-.11.04-.16zm.17.72s-.02.01-.03.02a.21.21 0 00-.06-.04c-.02-.02-.02-.04-.04-.06a3.7 3.7 0 012.07-1.39c-.39.75-1.11 1.3-1.94 1.48v-.01zm2.16-.51c-.13.28-.35.53-.6.7-.26.17-.55.19-.85.12l-.24-.06c.76-.26 1.41-.82 1.79-1.53.05.25.02.53-.09.76l-.01.01zm3.95 3.93c.08-.24.23-.47.4-.66.11-.13.25-.24.41-.31h.02c.14-.04.32-.09.49-.11-.24.23-.51.43-.75.66-.26.25-.48.55-.58.9a.789.789 0 01.01-.48zm.34.57c.09-.33.35-.61.6-.84.29-.26.61-.5.86-.79.03 0 .06 0 .08.02-.31.67-.73 1.49-1.54 1.61zm1.37-.19c-.29.3-.7.58-1.14.51.79-.21 1.25-.97 1.59-1.69.23.41-.18.9-.45 1.17v.01zm6.35.87c.24-.38.61-.62 1.01-.79.05.04.11.04.17 0-.67.53-.94 1.43-1.15 2.24-.38-.41-.32-1.01-.03-1.46v.01zm.57 1.46c-.14.01-.19.15-.15.25-.03 0-.05-.02-.08-.03 0-.01.01-.02.02-.04.22-.88.49-1.89 1.36-2.34h.01a7.132 7.132 0 01-.79 1.77c-.08.13-.2.39-.38.4l.01-.01zm.98-.71c.2-.38.36-.79.49-1.2.05.13.06.27.05.4-.02.32-.17.63-.32.91-.12.22-.26.43-.44.6-.14.14-.3.23-.47.27.1-.07.19-.16.26-.26.16-.23.3-.47.43-.72zm-2.25-9.59c.37.32.56.83.54 1.32-.01.31-.12.61-.29.86-.08-.84-.22-1.68-.65-2.41.15.05.29.13.4.23zm-.29 2.7s-.07-.01-.1 0c-.2-.03-.35-.21-.46-.38-.14-.22-.25-.47-.32-.72-.09-.34-.14-.74-.07-1.11.06.23.13.46.21.68.19.53.44 1.03.73 1.51 0 .01.01.02.02.02h-.02.01zm-.36-1.57c-.09-.23-.16-.46-.23-.7-.04-.16-.11-.35-.11-.53.05-.05.12-.1.19-.13 0 .03.01.05.03.08.46.72.59 1.57.67 2.41-.21-.36-.4-.74-.54-1.13h-.01zm-6.11-2.9c.34.31.49.79.51 1.24 0 .25-.03.51-.13.74-.03.08-.07.18-.12.27-.04-.84-.23-1.66-.58-2.42.12.03.23.09.32.18v-.01zm-.98.2s.04-.06.07-.1c-.1.67 0 1.37.31 1.98-.48-.49-.71-1.26-.38-1.88zm.85 1.97c-.37-.58-.51-1.28-.43-1.96.26.64.41 1.32.45 2.01 0-.02 0-.04-.02-.06v.01zm-8.8-3.33c-.32-.34-.57-.81-.44-1.29.03-.11.08-.22.15-.31.34.9.88 1.71 1.58 2.37-.5-.04-.95-.43-1.28-.77h-.01zm.1-1.61c.52.52.92 1.14 1.17 1.83-.5-.54-.89-1.16-1.17-1.83zm1.6 1.94c-.26-.84-.73-1.61-1.36-2.23.04 0 .08.01.13.02.26.08.48.28.66.48.18.2.34.42.47.66.17.32.24.74.1 1.07zm-8.01.33c-.26-.02-.5-.19-.7-.35-.33-.27-.68-.64-.74-1.09.38.64.96 1.14 1.64 1.42-.07.02-.14.02-.2.02zm-1.25-1.87c.55.38 1.02.87 1.4 1.42-.61-.31-1.1-.8-1.4-1.42zm1.98 1.58h-.05a5.795 5.795 0 00-1.81-1.94.47.47 0 01.26-.08c.48-.02.86.52 1.12.86.16.22.32.44.41.69.05.12.09.27.08.4 0 .02-.01.04-.02.07h.01zm-3.64 4.42a.17.17 0 00-.14 0c.31-.88 1.23-1.49 2.15-1.45-.28.31-.58.61-.9.88-.18.15-.37.3-.56.43-.15.1-.36.23-.55.15v-.01zm1.83-.22c-.34.41-.88.92-1.45.68a.638.638 0 01-.14-.08c.37-.05.73-.36 1.01-.58.31-.25.6-.53.88-.82.02.02.05.03.08.04-.04.28-.19.55-.36.76h-.02zm-1.88-1.44c.25-.15.57-.25.85-.31.31-.07.66-.08.94.11.02.01.03.03.04.04-.87.05-1.68.58-2.11 1.34a2.04 2.04 0 01-.05-.49c0-.26.09-.54.32-.69h.01zm63.99.34c-.1-.39-.34-.62-.7-.77-.37-.15-.77-.29-1.17-.29-.35 0-.69.11-.95.36-.03 0-.06.02-.09.05 0 0 0 .01-.02.02-.9-.25-1.82-.47-2.74-.65.57-.34 1.07-.79 1.46-1.33.18.13.41.19.64.17.4-.03.74-.28 1.02-.54.45-.41.86-.98.74-1.63-.12-.6-.67-1.02-1.28-.81-.32.11-.58.36-.8.62-.21.25-.42.52-.58.81-.15.27-.29.61-.24.92.02.12.07.23.15.31a4.39 4.39 0 01-1.68 1.37c-1.09-.18-2.18-.29-3.28-.27-.89.01-1.78.11-2.64.29.29-.28.53-.61.72-.97.02 0 .04.02.06.02.43.04.82-.14 1.16-.38.3-.21.57-.46.79-.75.36-.48.51-1.12.22-1.68-.29-.55-.9-.76-1.46-.49-.32.16-.57.42-.78.69-.21.26-.39.53-.5.85-.17.48-.11 1.09.26 1.46-.26.56-.68 1.05-1.18 1.39l-.06.06c-.71.2-1.41.47-2.07.82-1.39.74-2.6 1.76-3.9 2.65.25-.55.41-1.14.45-1.75a.18.18 0 00-.03-.11c.02 0 .03 0 .05-.02.56-.31.95-.87 1.07-1.5.1-.52 0-1.13-.4-1.51a.942.942 0 00-.69-.27c-.31.02-.57.21-.77.44-.38.46-.53 1.08-.47 1.67.05.46.3 1.26.86 1.32-.06.76-.3 1.49-.71 2.13v.02c-.11.07-.21.14-.32.2-2.13 1.25-4.46 1.98-6.86 2.34.87-.66 1.47-1.64 1.65-2.73.26-.06.49-.28.63-.5.21-.31.35-.67.43-1.04.12-.56.13-1.28-.22-1.77a.626.626 0 00-.07-.22c-.06-.11-.18-.11-.26-.07-.42-.2-.95-.03-1.29.29-.45.43-.67 1.06-.62 1.68.06.65.44 1.25.99 1.6.02 0 .03.01.05.02-.18 1.04-.8 2.01-1.69 2.59-.07.05-.12.13-.09.22-1.58.2-3.19.24-4.79.17-.24-.01-.26.36-.03.37.8.04 1.6.05 2.4.03.02.04.05.08.1.1.57.23 1.06.64 1.39 1.16-.04.02-.09.03-.12.06-.32.21-.47.61-.47.98 0 .41.17.79.36 1.15.16.29.35.56.6.77.51.44 1.23.45 1.71-.04.51-.53.51-1.32.13-1.92-.4-.64-1.1-.98-1.81-1.16h-.07c-.3-.46-.69-.84-1.16-1.12 1.25-.07 2.49-.21 3.71-.48.92-.2 1.82-.46 2.7-.78.81.19 1.53.63 2.06 1.27-.12.1-.21.23-.26.38-.19.6.29 1.2.71 1.58.44.4 1.01.64 1.6.43.26-.09.48-.28.59-.53.13-.29.08-.63-.04-.92-.21-.51-.65-1.04-1.22-1.13-.24-.06-.49-.11-.74-.08a.213.213 0 00-.23 0c-.02.02-.03.03-.04.05-.01 0-.03 0-.04.01a4.064 4.064 0 00-1.82-1.29c.73-.3 1.44-.64 2.13-1.03 1.1-.63 2.09-1.41 3.11-2.14.01 0 .03.01.05.01.73.07 1.43.39 1.95.9.02.02.05.04.08.05-.01.04-.03.08-.04.12-.09.43.03.87.26 1.23.21.32.5.61.85.76.37.15.78.08 1.14-.03.35-.12.73-.26.89-.62.14-.31.07-.69-.06-.99-.26-.61-.84-1.12-1.49-1.27-.25-.06-.57-.05-.85.03-.03 0-.05 0-.08.02a.98.98 0 00-.5.39c-.5-.46-1.12-.77-1.78-.89.4-.28.82-.55 1.25-.79 1.86-1.05 3.89-1.42 5.95-1.4.02.02.04.03.06.04.64.29 1.16.86 1.39 1.52h-.01c-.33.03-.57.27-.67.58-.18.58-.03 1.27.26 1.79.27.48.81 1.08 1.41.7.51-.32.67-1 .56-1.56-.07-.39-.26-.73-.52-1.03 0-.04-.03-.08-.07-.11-.02-.02-.05-.03-.07-.05-.11-.11-.23-.21-.35-.31-.06-.05-.12-.04-.17-.02-.2-.61-.58-1.14-1.09-1.52 1.79.1 3.59.48 5.3.95-.1.22-.14.46-.11.71.05.44.33.83.63 1.14.25.26.55.52.9.63.37.11.75.03 1.07-.19.15-.11.28-.25.39-.41.08-.02.15-.09.12-.2.2-.42.26-.93.15-1.36l-.05-.04zm-6.73 2.84c.08-.64-.02-1.29-.28-1.87.23.26.41.57.47.92.05.31 0 .69-.19.96v-.01zm-.62.19c-.26-.14-.47-.51-.57-.72-.19-.4-.29-.93-.15-1.35.03-.09.08-.16.13-.21-.01.03-.02.06-.01.1.12.75.32 1.48.6 2.18zm-.24-2.36c.4.59.57 1.32.5 2.03-.24-.62-.41-1.26-.51-1.92 0-.06-.04-.1-.08-.12.03 0 .06 0 .09.01zm-4.33 2.4a4.002 4.002 0 00-2.1-1.28c.03-.02.05-.04.08-.05.04-.01.08-.03.12-.04.28-.06.58-.01.84.1.46.2.87.63 1.02 1.11.02.05.03.11.04.16zm-2.16-.91c.83.22 1.56.71 2.07 1.39a.21.21 0 01-.04.06.21.21 0 01-.06.04c-.01 0-.02-.01-.03-.02a2.87 2.87 0 01-1.94-1.48v.01zm-.31.2c.38.71 1.03 1.27 1.79 1.53-.08.02-.17.04-.24.06-.3.07-.59.05-.85-.12a1.76 1.76 0 01-.6-.7c-.11-.23-.14-.51-.09-.76l-.01-.01zm-3.84 5.17c-.1-.34-.32-.65-.58-.9-.24-.23-.51-.43-.75-.66.18.02.35.07.49.11h.02c.16.07.29.18.41.31.17.19.32.42.4.66.05.16.06.33.01.48zm-1.89-1.52s.05-.01.08-.02c.25.3.57.53.86.79.25.22.5.51.6.84-.8-.12-1.22-.95-1.54-1.61zm-.29.25c.34.71.8 1.48 1.59 1.69-.44.07-.85-.21-1.14-.51-.27-.27-.68-.77-.45-1.17v-.01zm-5.93 3.5c-.21-.82-.48-1.71-1.15-2.24.06.03.13.03.17 0 .4.17.78.41 1.01.79.28.45.34 1.05-.03 1.46v-.01zm-.92-.4c-.12-.2-.24-.4-.34-.61-.18-.37-.33-.76-.45-1.16h.01c.88.45 1.14 1.46 1.36 2.34 0 .02.01.03.02.04-.03.01-.05.03-.08.03.04-.1 0-.24-.15-.25-.18-.02-.3-.27-.38-.4l.01.01zm-.17.4c.07.1.16.2.26.26a.981.981 0 01-.47-.27c-.18-.17-.32-.38-.44-.6-.15-.28-.3-.59-.32-.91 0-.13 0-.27.05-.4.13.41.29.82.49 1.2.13.25.27.49.43.72zm2.22-10.53c-.43.73-.57 1.57-.65 2.41a1.67 1.67 0 01-.29-.86c-.02-.48.17-.99.54-1.32.11-.1.25-.18.4-.23zm-.12 2.93s.02-.01.02-.02c.29-.48.54-.99.73-1.51.08-.22.15-.45.21-.68.07.37.02.77-.07 1.11-.07.25-.17.5-.32.72-.11.17-.26.35-.46.38h-.12.01zm-.17-.44c.08-.84.21-1.69.67-2.41.02-.03.03-.05.03-.08.07.03.13.07.19.13 0 .18-.06.37-.11.53-.07.24-.14.47-.23.7-.15.39-.34.77-.54 1.13h-.01zm6.97-4.2c-.34.76-.54 1.59-.58 2.42-.05-.09-.09-.19-.12-.27a2.06 2.06 0 01-.13-.74c.01-.45.17-.93.51-1.24.09-.08.2-.15.32-.18v.01zm.29 2.25c.3-.61.41-1.3.31-1.98.02.03.05.06.07.1.33.62.1 1.39-.38 1.88zm-.5.15c.04-.69.19-1.37.45-2.01.09.68-.06 1.37-.43 1.96-.01.02-.02.04-.02.06v-.01zm7.55-2.62c.7-.66 1.24-1.48 1.58-2.37.07.09.12.2.15.31.12.48-.12.94-.44 1.29-.33.35-.78.73-1.28.77h-.01zm.01-.54c.25-.69.64-1.32 1.17-1.83-.27.68-.67 1.3-1.17 1.83zm-.33-.97c.13-.24.29-.46.47-.66s.4-.4.66-.48c.04-.01.09-.02.13-.02-.63.62-1.1 1.39-1.36 2.23-.14-.33-.07-.75.1-1.07zm7.7 1.38c.69-.28 1.26-.79 1.64-1.42-.06.45-.41.81-.74 1.09-.2.16-.43.33-.7.35-.07 0-.13 0-.2-.02zm.06-.43c.37-.56.84-1.04 1.4-1.42-.29.62-.79 1.11-1.4 1.42zm-.6.1c0-.13.03-.28.08-.4.09-.25.25-.48.41-.69.25-.34.63-.88 1.12-.86.1 0 .19.03.26.08-.74.5-1.37 1.16-1.81 1.94h-.05c0-.02-.02-.04-.02-.07h.01zm3.1 4.34c-.2-.13-.38-.28-.56-.43a8.3 8.3 0 01-.9-.88c.93-.04 1.85.57 2.15 1.45a.17.17 0 00-.14 0c-.18.08-.4-.05-.55-.15v.01zm-1.64-.84s.05-.02.08-.04c.28.29.57.57.88.82.28.22.63.53 1.01.58-.05.03-.09.06-.14.08-.58.24-1.11-.27-1.45-.68-.17-.2-.32-.48-.36-.76h-.02zm2.57.01c0 .16-.01.33-.05.49a2.62 2.62 0 00-2.11-1.34c.02-.01.03-.03.04-.04.28-.19.63-.18.94-.11.28.06.6.16.85.31.24.14.32.42.32.69h.01z" fill="#FF9B1D"/></g></g><defs><clipPath id="clip0_1259_6523"><path fill="#fff" d="M0 0h220v237H0z"/></clipPath><clipPath id="clip1_1259_6523"><path fill="#fff" d="M0 0h70v70H0z"/></clipPath><clipPath id="clip2_1259_6523"><path fill="#fff" transform="translate(55 71)" d="M0 0h109.93v111.28H0z"/></clipPath><linearGradient id="paint0_linear_1259_6523" x1="10.252" y1="10.252" x2="59.748" y2="59.748" gradientUnits="userSpaceOnUse"><stop stop-color="#EF8F7A"/><stop offset=".06" stop-color="#ED796A"/><stop offset=".2" stop-color="#EA544F"/><stop offset=".33" stop-color="#E83539"/><stop offset=".48" stop-color="#E71E27"/><stop offset=".63" stop-color="#E50D1B"/><stop offset=".79" stop-color="#E50314"/><stop offset="1" stop-color="#E50012"/></linearGradient></defs></svg>