<svg width="220" height="237" viewBox="0 0 220 237" fill="none" xmlns="http://www.w3.org/2000/svg"><g clip-path="url(#clip0_1259_10311)"><circle cx="110" cy="127" r="110" fill="#fff"/><circle cx="110" cy="127" r="99" fill="#fff" stroke="#D93636" stroke-width="2"/><g clip-path="url(#clip1_1259_10311)"><path d="M69 35c0 18.778-15.222 34-34 34S1 53.778 1 35 16.222 1 35 1s34 15.222 34 34z" fill="url(#paint0_linear_1259_10311)" stroke="#58393E" stroke-width="2"/><path d="M36.662 28.76c0-2.387-1.047-3.15-3.332-3.15h-5.901v2.615h5.974v.878h-3.815c-1.61 0-2.352.536-2.352 2.223v1.554c0 1.687.739 2.226 2.352 2.226h7.074V28.76zm-3.259 3.735h-2.908v-1.222h2.908v1.222zm-8.277-4.092V25.61h-5.558c-2.285 0-3.332.767-3.332 3.15v3.2c0 2.386 1.047 3.146 3.332 3.146h5.558v-2.839h-5.652v-3.864h5.652zm27.91-2.793h-3.405v9.496h3.405v-3.343h2.909v3.343h3.405V25.61h-3.405v3.154h-2.909V25.61zm-38.979 1.516l-3.213-1.516v9.496l3.213-1.512v-6.468zm24.741 5.368v2.615h6.076c2.093 0 3.048-.672 3.048-2.78v-.895c0-1.876-.85-2.475-2.709-2.475H41.56v-.731h6.08v-2.615h-6.07c-2.092 0-3.051.676-3.051 2.783v.896c0 1.872.85 2.47 2.709 2.47h3.65v.732h-6.08zm-24.504-9.586a1.82 1.82 0 11-3.641-.002 1.82 1.82 0 013.641.002z" fill="#fff"/><path d="M29.877 38.98c-.795 0-1.55.644-1.69 1.438l-1.467 8.327c-.14.794.392 1.438 1.186 1.438h8.852l1.97-11.203h-8.851z" fill="#00913A"/><path d="M57.52 38.98c.794 0 1.323.643 1.186 1.438l-1.463 8.326c-.14.795-.896 1.439-1.69 1.439H27.91c-.795 0-1.323-.644-1.187-1.439l1.463-8.326c.14-.795.896-1.439 1.69-1.439H57.52zm0-.624H29.877c-1.1 0-2.11.858-2.303 1.953l-1.463 8.327c-.098.563.042 1.123.385 1.533.343.41.847.637 1.414.637h27.643c1.099 0 2.11-.858 2.303-1.953l1.463-8.327c.098-.563-.042-1.123-.385-1.533-.343-.41-.847-.637-1.414-.637z" fill="#fff"/><path d="M38.728 38.98l-1.97 11.203h9.94l1.97-11.203h-9.94z" fill="#F08C00"/><path d="M57.52 38.98h-8.852l-1.97 11.203h8.85c.795 0 1.551-.644 1.691-1.438l1.463-8.327c.14-.794-.392-1.438-1.186-1.438h.003z" fill="#8F70AE"/><path d="M56.918 40.981H54.44l-.43 2.447H51.8l.431-2.447h-2.46l-.368 2.083c-.308 1.76.287 2.208 2.072 2.208h2.209l-.196 1.106h-3.255l-1.73 1.803h4.59c1.564 0 2.645-.518 2.932-2.139l.89-5.057.003-.004zm-10.443 2.387c.318-1.81-.375-2.387-2.104-2.387h-4.473l-.325 1.859h4.529l-.14.787H41.07c-1.222 0-1.855.406-2.08 1.687l-.206 1.176c-.224 1.278.266 1.687 1.484 1.687h5.362l.847-4.812-.003.003zm-2.996 2.996h-2.205l.192-1.088h2.205l-.192 1.088zm-8.219-5.383h-5.362l-1.267 7.2 2.695-.97.294-1.676h2.838c1.222 0 1.855-.406 2.08-1.687l.206-1.176c.224-1.278-.266-1.687-1.484-1.687v-.004zm-1.2 2.909h-2.206l.186-1.047h2.205l-.186 1.047z" fill="#fff"/></g><path d="M51.31 114.59s-1.49 64.97 1.03 66.08c2.52 1.11 111.93-.17 113.78-.74 1.85-.57 0-65.62-.14-66.05-.14-.43-114.24.28-114.66.71h-.01z" fill="#EFEFEF"/><path d="M45.03 115.92s-.94 11.86 8.55 11.86 10.35-12.33 10.35-12.33l6.71-27.87-10.39.94-15.22 27.4z" fill="#F4944D"/><path d="M63.64 116.1s-1.13 11.67 8.36 11.67c9.49 0 10.91-12.33 10.91-12.33l3.31-28.82-15.59.94-6.99 28.54z" fill="#F25252"/><path d="M82.769 115.87s-1.84 11.91 7.65 11.91 10.35-12.33 10.35-12.33l1.23-28.91-15.78.09-3.45 29.24z" fill="#F4944D"/><path d="M100.589 116.48s-1.23 11.29 8.27 11.29 10.91-11.67 10.91-11.67l-.09-30.14-17.67.57-1.42 29.95z" fill="#F25252"/><path d="M119.62 115.87s-1.84 11.91 7.65 11.91 10.35-12.33 10.35-12.33l-4.44-29.57-13.61-.19.05 30.19v-.01zm36.149-.05s-1.13 11.95 8.36 11.95c9.49 0 10.35-12.33 10.35-12.33l-16.16-29.48-12.19.09 9.64 29.76v.01z" fill="#F4944D"/><path d="M137.619 115.92s-1.42 11.86 8.08 11.86 10.35-12.33 10.35-12.33l-9.92-29.39-12.94-.19 4.44 30.05h-.01z" fill="#F25252"/><path d="M110.629 143.5c7.77-.13 14.16 6.08 14.26 13.84.13 10.22.22 23.49-.02 23.49-.41 0-26.77.18-27.34.04-.33-.08-.56-12.68-.68-23.18-.09-7.72 6.07-14.06 13.79-14.19h-.01z" fill="#83CAFF"/><path d="M82.54 75.76s-.5 26.78.3 27.6c.8.82 53.289-1.48 55.619-2.2 2.33-.72-.15-27.39-.15-27.85 0-.46-55.34-.92-55.78 2.44l.01.01z" fill="#1D8061"/><path d="M95.758 97c-1.3 0-2.23-.12-2.79-.37-.21-.25-.3-.56-.26-.95l.37-.66c.88-.63 1.66-1.37 2.34-2.21.68-.84 1.34-1.61 1.96-2.29.62-.68 1.17-1.35 1.65-2 .47-.65.89-1.33 1.24-2.05.35-.72.49-1.51.42-2.37-.07-.86-.36-1.53-.87-2.01-.51-.48-1.05-.77-1.62-.86-.57-.09-1.11-.08-1.63.03-.52.11-1.14.43-1.86.97-.25.21-.56.3-.95.26l-.58-.32c-.21-.25-.33-.55-.37-.92.04-.28.27-.61.71-1 .44-.39 1.06-.69 1.87-.92.81-.23 1.58-.32 2.33-.26s1.36.18 1.86.37c.49.19 1.05.57 1.68 1.13.63.56 1.04 1.26 1.24 2.09.19.83.25 1.68.16 2.54-.09.86-.31 1.65-.66 2.37-.35.72-.81 1.44-1.37 2.16-.56.72-1.99 2.47-4.29 5.24l6.24.11.53.29c.21.25.3.56.26.95l-.26.53c-.25.18-.51.28-.79.32l-6.56-.16V97zm17.931.16l-.53-.26c-.32-.63-.46-1.35-.42-2.16l-.05-4.66h-5.87c-.6-.04-1.07-.08-1.41-.13-.34-.05-.52-.46-.54-1.24.53-1.83 1.33-3.55 2.4-5.16 1.07-1.61 2.7-3.64 4.9-6.08.97-.74 1.72-.63 2.26.32l.16 10.24c.95-.14 1.63-.19 2.05-.16l.53.26c.21.28.3.61.26 1l-.26.53c-.74.32-1.54.46-2.42.42l.16 6.29-.26.53c-.25.21-.56.3-.95.26h-.01zm-1.16-9.14l-.16-7.66a24.475 24.475 0 00-2.95 3.69c-.83 1.28-1.54 2.61-2.13 3.98h5.24v-.01zm15.909 9.56l-.53-.26c-.28-.32-.4-.68-.37-1.11.18-.7.26-1.85.26-3.44 0-1.59-.07-2.72-.21-3.38-.14-.66-.41-1.24-.82-1.71-.4-.47-.99-.61-1.75-.4-.76.21-1.3.7-1.62 1.47-.32.77-.62 1.5-.92 2.19-.3.68-.48 1.43-.55 2.24l.11 3.24-.26.53c-.25.21-.56.3-.95.26l-.53-.26c-.25-.53-.4-1.1-.45-1.72-.05-.62-.08-6-.08-16.13.04-.28.14-.53.32-.74.25-.21.56-.3.95-.26l.53.26.26.53v8.35c.32-.39.65-.75 1-1.08.35-.33.8-.63 1.36-.9.55-.26 1.21-.32 1.99-.16.77.16 1.47.55 2.11 1.19.63.63 1.05 1.4 1.26 2.29.21.9.31 2.19.29 3.88-.02 1.69-.04 2.81-.05 3.36-.02.54-.15 1.04-.39 1.5-.25.21-.56.3-.95.26h-.01z" fill="#fff"/></g><defs><clipPath id="clip0_1259_10311"><path fill="#fff" d="M0 0h220v237H0z"/></clipPath><clipPath id="clip1_1259_10311"><path fill="#fff" d="M0 0h70v70H0z"/></clipPath><linearGradient id="paint0_linear_1259_10311" x1="10.252" y1="10.252" x2="59.748" y2="59.748" gradientUnits="userSpaceOnUse"><stop stop-color="#EF8F7A"/><stop offset=".06" stop-color="#ED796A"/><stop offset=".2" stop-color="#EA544F"/><stop offset=".33" stop-color="#E83539"/><stop offset=".48" stop-color="#E71E27"/><stop offset=".63" stop-color="#E50D1B"/><stop offset=".79" stop-color="#E50314"/><stop offset="1" stop-color="#E50012"/></linearGradient></defs></svg>