<svg width="220" height="237" viewBox="0 0 220 237" fill="none" xmlns="http://www.w3.org/2000/svg"><g clip-path="url(#clip0_1259_10752)"><circle cx="110" cy="127" r="110" fill="#fff"/><circle cx="110" cy="127" r="99" fill="#fff" stroke="#D93636" stroke-width="2"/><g clip-path="url(#clip1_1259_10752)"><path d="M69 35c0 18.778-15.222 34-34 34S1 53.778 1 35 16.222 1 35 1s34 15.222 34 34z" fill="url(#paint0_linear_1259_10752)" stroke="#58393E" stroke-width="2"/><path d="M36.662 28.76c0-2.387-1.047-3.15-3.332-3.15h-5.901v2.615h5.974v.878h-3.815c-1.61 0-2.352.536-2.352 2.223v1.554c0 1.687.739 2.226 2.352 2.226h7.074V28.76zm-3.259 3.735h-2.908v-1.222h2.908v1.222zm-8.277-4.092V25.61h-5.558c-2.285 0-3.332.767-3.332 3.15v3.2c0 2.386 1.047 3.146 3.332 3.146h5.558v-2.839h-5.652v-3.864h5.652zm27.91-2.793h-3.405v9.496h3.405v-3.343h2.909v3.343h3.405V25.61h-3.405v3.154h-2.909V25.61zm-38.979 1.516l-3.213-1.516v9.496l3.213-1.512v-6.468zm24.741 5.368v2.615h6.076c2.093 0 3.048-.672 3.048-2.78v-.895c0-1.876-.85-2.475-2.709-2.475H41.56v-.731h6.08v-2.615h-6.07c-2.092 0-3.051.676-3.051 2.783v.896c0 1.872.85 2.47 2.709 2.47h3.65v.732h-6.08zm-24.504-9.586a1.82 1.82 0 11-3.641-.002 1.82 1.82 0 013.641.002z" fill="#fff"/><path d="M29.877 38.98c-.795 0-1.55.644-1.69 1.438l-1.467 8.327c-.14.794.392 1.438 1.186 1.438h8.852l1.97-11.203h-8.851z" fill="#00913A"/><path d="M57.52 38.98c.794 0 1.323.643 1.186 1.438l-1.463 8.326c-.14.795-.896 1.439-1.69 1.439H27.91c-.795 0-1.323-.644-1.187-1.439l1.463-8.326c.14-.795.896-1.439 1.69-1.439H57.52zm0-.624H29.877c-1.1 0-2.11.858-2.303 1.953l-1.463 8.327c-.098.563.042 1.123.385 1.533.343.41.847.637 1.414.637h27.643c1.099 0 2.11-.858 2.303-1.953l1.463-8.327c.098-.563-.042-1.123-.385-1.533-.343-.41-.847-.637-1.414-.637z" fill="#fff"/><path d="M38.728 38.98l-1.97 11.203h9.94l1.97-11.203h-9.94z" fill="#F08C00"/><path d="M57.52 38.98h-8.852l-1.97 11.203h8.85c.795 0 1.551-.644 1.691-1.438l1.463-8.327c.14-.794-.392-1.438-1.186-1.438h.003z" fill="#8F70AE"/><path d="M56.918 40.981H54.44l-.43 2.447H51.8l.431-2.447h-2.46l-.368 2.083c-.308 1.76.287 2.208 2.072 2.208h2.209l-.196 1.106h-3.255l-1.73 1.803h4.59c1.564 0 2.645-.518 2.932-2.139l.89-5.057.003-.004zm-10.443 2.387c.318-1.81-.375-2.387-2.104-2.387h-4.473l-.325 1.859h4.529l-.14.787H41.07c-1.222 0-1.855.406-2.08 1.687l-.206 1.176c-.224 1.278.266 1.687 1.484 1.687h5.362l.847-4.812-.003.003zm-2.996 2.996h-2.205l.192-1.088h2.205l-.192 1.088zm-8.219-5.383h-5.362l-1.267 7.2 2.695-.97.294-1.676h2.838c1.222 0 1.855-.406 2.08-1.687l.206-1.176c.224-1.278-.266-1.687-1.484-1.687v-.004zm-1.2 2.909h-2.206l.186-1.047h2.205l-.186 1.047z" fill="#fff"/></g><path d="M156.02 126.381c4.25 1.68 8.14 3.96 11.49 7.1.77.73 1.51 1.5 1.84 2.55.1.32.28.57.48.83a9.262 9.262 0 012.04 5.07c.05.1.03.21.04.32.17 1.74-.27 3.38-.87 4.99-.82 2.23-1.82 4.4-2.82 6.55-.98 2.1-2.04 4.14-3.2 6.14-1.21 2.08-2.5 4.1-3.94 6.03-.96 1.29-1.95 2.56-3.06 3.73-2.04 2.17-4.23 4.18-6.84 5.67-.55.31-1.14.53-1.78.56-.13.03-.28-.02-.41.06l-1.54.09c-1.64-.05-3.22-.49-4.83-.72-1.4-.2-2.8-.32-4.21-.33-1.74-.01-3.47.03-5.21.09-1.22.04-2.44.09-3.67.09-2.91 0-5.8-.23-8.68-.66-3.73-.56-7.41-1.36-11.11-2.05a93.26 93.26 0 00-10.13-1.33c-1.49-.11-2.97-.35-4.41-.74-1.97-.53-3.98-.92-5.98-1.29-2.47-.46-4.88-1.17-7.28-1.88-3.01-.89-5.99-1.86-9.06-2.53-2.03-.45-4.08-.76-6.17-.81-.6-.01-1.21-.03-1.82.01-1.54.1-3.07.21-4.61.27-1.53.06-3.06.02-4.55-.36-2.21-.57-4.16-1.59-5.64-3.38-.95-1.15-1.51-2.48-1.61-3.99 0-.14-.02-.27-.02-.41-.03-.17.02-.35-.07-.51-.02-.28-.03-.56-.05-.84.06-.19 0-.38 0-.57 0-.12-.01-.23-.02-.35 0-.12-.01-.24-.02-.36-.01-.65-.05-1.3-.05-1.96 0-.42-.08-.83-.17-1.24 0-.14-.02-.28-.02-.42a.69.69 0 00-.03-.49l-.03-.56c.07-.15 0-.29 0-.44 0-.11-.03-.23 0-.34.07-2.14.64-4.15 1.45-6.12.96-2.34 2.2-4.55 3.23-6.85.98-2.19 1.9-4.4 3.01-6.54.95-1.84 2.02-3.6 3.41-5.14 1.73-1.92 3.79-3.29 6.36-3.81.09.02.14.09.16.17.12.43.41.8.48 1.26 0 .04-.02.07-.04.1-.1.11-.24.13-.38.17-2.01.47-3.66 1.52-5.05 3.02-1.66 1.8-2.86 3.89-3.9 6.07-1.38 2.91-2.8 5.8-4.19 8.7-.74 1.54-1.47 3.1-2 4.74-.51 1.59-.82 3.2-.8 4.88.01 1.5.32 2.92 1.02 4.24 1.07 2.02 2.78 3.18 5.01 3.62 1.27.25 2.55.31 3.82.39 4.67.28 9.32.74 13.96 1.4 5.11.73 10.17 1.68 15.2 2.84 4.01.93 7.98 2.04 11.92 3.24 3.09.94 6.2 1.83 9.39 2.39 1.96.34 3.93.53 5.91.65 4.28.26 8.57.41 12.82 1.05 3.62.55 7.19 1.29 10.67 2.43 1.62.53 3.21 1.15 4.8 1.74.84.31 1.7.58 2.6.66 1.16.1 2.1-.34 2.87-1.16.74-.79 1.3-1.7 1.92-2.58 2.21-3.17 4.24-6.45 6.15-9.81 1.68-2.94 3.23-5.94 4.7-8.99 1.39-2.87 2.66-5.79 3.89-8.72.44-1.04.84-2.1 1.21-3.17.48-1.4.14-2.62-.87-3.66-1.5-1.55-3.21-2.84-5.02-4-1.69-1.09-3.48-2-5.32-2.8-.15-.07-.31-.12-.38-.29-.11-.5 0-1.01-.11-1.51-.02-.07.02-.16.1-.21l.02.01z" fill="#58393E"/><path d="M112.76 77.57s0 .04.02.06c-.14.14-.29.15-.44.03v-.06c.14 0 .28-.02.42-.03z" fill="#D5AC60"/><path d="M149.43 175.88v.07c-.14 0-.28.02-.42.02.12-.13.28-.08.42-.09z" fill="#B2A094"/><path d="M66.07 120.981c-.2-.48-.4-.96-.6-1.45-.39-1.15-.65-2.33-.7-3.54-.05-1.53.19-3.01.74-4.44.61-1.56 1.47-2.97 2.48-4.31 1.03-1.37 2.2-2.63 3.35-3.89.91-1 1.84-1.98 2.76-2.97.93-1 1.86-1.99 2.79-2.99.91-.98 1.82-1.96 2.74-2.94.95-1.02 1.87-2.08 2.86-3.06 1.23-1.2 2.61-2.21 4.2-2.9 1.68-.74 3.38-1.43 5.12-2.04.94-.33 1.93-.48 2.93-.59 2.56-.3 5.09-.02 7.62.37 2.86.44 5.7.94 8.54 1.48.55.1 1.09.21 1.64.32.14.11.12.27.12.42-.08 2.38-.25 4.75-.36 7.12-.07 1.55-.12 3.1-.11 4.65 0 1.43.14 2.84.2 4.26 0 .22.03.44.11.65.1.27.37.43.63.39.27-.05.4-.22.4-.57 0-.7-.15-1.39-.18-2.09-.06-1.66-.09-3.33-.05-4.99.06-2.54.24-5.08.35-7.61.01-.25-.02-.52.18-.73.43-.2.89-.25 1.35-.33.99-.17 1.98-.24 2.98-.27.13 0 .29-.03.36.14-.3.02-.6.04-.91.05v.05c1.02.27 2.05.53 3.07.8 1.58.43 3.17.85 4.74 1.32 1.58.47 3.15.98 4.72 1.5 1.89.62 3.76 1.29 5.62 1.99 2.72 1.02 5.4 2.11 8.06 3.28 2.74 1.21 5.44 2.49 8.1 3.86 1.31.68 2.63 1.35 3.86 2.17 1.44.96 2.77 2.04 3.8 3.46 1.48 2.02 1.84 4.22 1.04 6.6-.52 1.55-1.39 2.92-2.2 4.32-1 1.73-2.06 3.43-3.16 5.1-.07.35-.32.59-.51.86-.87 1.21-1.79 2.39-2.81 3.48-1.45 1.55-3.04 2.92-4.87 4-.95.56-1.95.99-2.98 1.37-1.34.46-2.71.74-4.13.9-3.15.35-6.23-.06-9.29-.75-2.15-.49-4.24-1.21-6.33-1.9-1.65-.54-3.31-1.05-5.03-1.37a17.64 17.64 0 00-5.23-.18c-1.82.21-3.6.64-5.38 1.1-1.61.42-3.23.84-4.87 1.15-.78.15-1.56.27-2.35.32-.81.06-1.62.12-2.44.15-1.77.06-3.54 0-5.31-.13-3.29-.25-6.58-.5-9.85-.95-2.63-.36-5.21-.92-7.71-1.85-3.27-1.22-6.09-3.07-8.29-5.81-.58-.77-1.14-1.56-1.6-2.41-.1-.18-.21-.36-.22-.58l.01.01z" fill="#FFDC9E"/><path d="M113.82 89.59c-.13.44-.09.9-.11 1.35-.11 1.87-.21 3.74-.28 5.61a75.48 75.48 0 00-.03 4.99c.03 1.14.16 2.28.25 3.41.03.4-.14.64-.52.7-.34.06-.71-.16-.77-.51-.17-.95-.2-1.92-.25-2.89-.16-3.32.06-6.63.25-9.94.08-1.43.18-2.86.17-4.29.12-3.19-.03-6.37-.65-9.51-.09-.44.03-.65.45-.86.15 0 .29-.02.44-.03.27.07.33.29.37.52.03.17.07.34.11.51.27.33.23.76.29 1.14.17 1.16.33 2.33.36 3.51.05 1.79.1 3.59 0 5.38-.02.3.04.61-.08.9v.01z" fill="#BE8210"/><path d="M144.13 133.21c.93-.38 1.85-.76 2.72-1.26 2.19-1.26 4.03-2.92 5.68-4.82.98-1.13 1.85-2.33 2.72-3.55.41.89.61 1.83.76 2.8.07.59.09 1.18.09 1.77.07.1.09.21.08.33-.13 1.51-.51 2.94-1.35 4.22-1 1.54-2.42 2.56-4.07 3.29-.12.05-.24.1-.35.16-1.43.57-2.92.9-4.42 1.18-1.79.33-3.59.56-5.4.76-1.76.2-3.51.43-5.28.6-1.33.13-2.67.25-4 .38-1.88.17-3.77.32-5.65.39-1.85.07-3.7.17-5.56.19-1.36.02-2.73.05-4.09.04-1.71-.02-3.42-.04-5.14-.09a188.277 188.277 0 01-16.78-1.23c-4.52-.53-9.01-1.24-13.48-2.1-2.25-.43-4.48-.9-6.65-1.67-1.87-.66-3.62-1.56-5.14-2.85-.36-.3-.67-.65-.98-.99a9.908 9.908 0 01-2.25-4.52c-.34-1.61-.2-3.2.21-4.77.04-.16.1-.31.23-.42 0-.02.02-.04.02-.06.53 1.02 1.15 1.97 1.83 2.89.02.16-.02.3-.08.44-.36.92-.49 1.89-.43 2.85.14 2.33 1.37 4.24 3.75 5.08 1.08.38 2.19.56 3.32.66 1.58.14 3.15.36 4.72.58 5.1.7 10.2 1.35 15.31 1.92 1.74.19 3.48.37 5.23.35 1.67-.02 3.34-.07 5-.23 1.86-.18 3.68.05 5.48.45 1.45.32 2.88.72 4.35.92 1.24.17 2.48.24 3.73.21 2.54-.07 4.99-.6 7.44-1.21 1.42-.36 2.86-.65 4.32-.84 1.89-.25 3.72-.02 5.54.42 1.11.27 2.22.54 3.37.63.68.06 1.35.05 2.02-.09.92-.2 1.65-.7 2.21-1.43.26-.34.5-.7.71-1.08.06-.11.13-.22.25-.29l.01-.01z" fill="#F7AD0C"/><path d="M113.82 89.59c-.11-.28-.04-.57-.03-.85.05-1.49.04-2.97.02-4.46-.02-1.87-.26-3.71-.56-5.54v-.07c1.46.34 2.88.06 4.27-.36 2.83-.84 5.72-1.19 8.65-1.29.62-.02 1.23-.01 1.85-.01.38 0 .53.14.57.51l.57 6.83c.09 1.04.18 2.09.28 3.13.04.42-.06.59-.49.7-2.31.6-4.67.83-7.06.85-1.13.01-2.26.03-3.39.04-.82-.05-1.64.05-2.46.13-.75.07-1.49.23-2.23.39h.01z" fill="#F25252"/><path d="M66.04 121.03c-.42 1.29-.61 2.61-.51 3.96.15 2.03.87 3.84 2.17 5.42.07.08.13.17.19.25-.25.25-.39.51-.15.86.1.14-.04.29-.12.41-.51.73-.8 1.54-.85 2.44-.04.77.14 1.47.5 2.14.07.13.18.25.19.41-.01.52.09 1.03.09 1.55-.06.11-.17.15-.27.21-1.35.77-1.98 1.95-1.97 3.49 0 1.36.63 2.43 1.51 3.4.87.96 1.92 1.69 3 2.4 2.43 1.61 5.02 2.92 7.73 3.98 3.27 1.27 6.65 2.1 10.12 2.56 2.88.38 5.77.61 8.68.75 2.09.11 4.191.17 6.291.23 2.07.06 4.15.12 6.22.19 1.53.05 3.05.08 4.58.1 1.75.03 3.49.05 5.24.04 1.55 0 3.1-.04 4.65-.06 1.05-.02 2.1-.13 3.14-.13 2.03 0 4.06-.16 6.08-.31 2.87-.22 5.74-.46 8.55-1.13 2.17-.51 4.28-1.17 6.19-2.35 1.92-1.18 3.52-2.69 4.57-4.71.41-.78.64-1.61.63-2.49 0-.82-.27-1.58-.74-2.26-.35-.5-.79-.92-1.26-1.31-.09-.07-.19-.13-.25-.24-.04-.11 0-.21.02-.31.41-1.36.46-2.75.21-4.15-.02-.12-.01-.23 0-.35 1.32-.55 2.53-1.29 3.51-2.34 1.02-1.1 1.64-2.41 1.94-3.88.11-.55.19-1.1.2-1.66 1.78.77 3.51 1.62 5.16 2.63 1.18.73 2.31 1.52 3.38 2.39.75.61 1.49 1.23 2.16 1.93.6.62 1.01 1.34 1.12 2.2.09.76-.17 1.47-.43 2.17-.82 2.22-1.76 4.39-2.71 6.56-1.14 2.59-2.36 5.14-3.63 7.67-1.59 3.15-3.31 6.23-5.12 9.25-1.5 2.5-3.09 4.95-4.78 7.33-.46.64-.89 1.31-1.42 1.9-.62.68-1.38 1.11-2.29 1.22-.59.07-1.18-.04-1.76-.18-1.15-.29-2.25-.74-3.36-1.16-2.86-1.08-5.76-1.96-8.75-2.6-2.03-.43-4.08-.79-6.14-1.06-1.53-.2-3.06-.36-4.6-.46-1.66-.1-3.33-.24-4.99-.32-1.48-.07-2.96-.18-4.44-.31-1.97-.18-3.91-.49-5.84-.93-2.03-.46-4.03-1.03-6.03-1.62-2.4-.7-4.79-1.44-7.2-2.11-1.79-.5-3.6-.94-5.41-1.36-3.13-.74-6.28-1.38-9.45-1.94-2.7-.48-5.4-.91-8.12-1.24-1.54-.19-3.08-.4-4.63-.54-1.36-.13-2.72-.27-4.09-.35-1.18-.07-2.35-.19-3.53-.26-1.16-.07-2.31-.13-3.45-.36-1.24-.25-2.4-.69-3.37-1.52a7.635 7.635 0 01-2.17-3.16 9.43 9.43 0 01-.57-2.72c-.06-1.2.05-2.41.3-3.59.45-2.11 1.33-4.06 2.23-6.01.87-1.88 1.81-3.73 2.71-5.59 1.12-2.32 2.11-4.69 3.47-6.88.96-1.55 2.07-2.99 3.5-4.14a9.016 9.016 0 013.87-1.84c.1-.02.2-.06.3-.09v-.02z" fill="#B88B64"/><path d="M144.129 133.211c-.6 1.24-1.35 2.33-2.73 2.79-1.05.35-2.13.28-3.21.12-1.31-.19-2.59-.57-3.89-.83-1.71-.34-3.42-.3-5.13-.02-2.02.32-3.99.89-5.99 1.33-1.86.42-3.75.62-5.65.63-2.03.01-4.03-.35-6-.84-1.46-.36-2.92-.69-4.42-.81-.49-.04-.98-.05-1.47-.02-1.35.09-2.7.18-4.05.23-2.21.1-4.42.01-6.62-.25-2.86-.34-5.73-.66-8.58-1.02-3.18-.4-6.36-.85-9.54-1.28-1.27-.17-2.55-.22-3.81-.44-1.06-.18-2.1-.43-3.04-.99-1.57-.94-2.42-2.33-2.67-4.12-.17-1.24 0-2.43.43-3.59.03-.09.08-.17.12-.25.81.95 1.67 1.84 2.64 2.64 1.52 1.26 3.23 2.19 5.05 2.94 2.37.97 4.85 1.54 7.37 1.94 1.78.28 3.57.47 5.36.64 1.71.16 3.42.28 5.14.42 1.41.11 2.83.16 4.25.18.78.01 1.56 0 2.33-.05 1.88-.1 3.74-.38 5.58-.82 2.11-.51 4.2-1.1 6.33-1.53 1.41-.28 2.83-.47 4.26-.46 1.88 0 3.72.36 5.53.87 1.99.56 3.92 1.26 5.89 1.87 2.4.75 4.85 1.31 7.36 1.57 1.05.11 2.11.14 3.17.13 2.02-.02 3.97-.36 5.88-.99.03-.01.07 0 .1-.01l.01.02z" fill="#EE8092"/><path d="M83.86 124.37c.03.55-.27.92-.86.9-.78-.02-1.55.03-2.33-.06-1.37-.15-2.55-.75-3.64-1.55-.25-.19-.49-.39-.75-.57-.43-.3-.55-.79-.26-1.17.34-.45.91-.55 1.32-.24.47.36.95.71 1.45 1.03 1.01.66 2.12.84 3.29.81.36-.01.72 0 1.08 0 .39.01.68.36.7.85zm8.84 3.46c-1.71.15-3.11-.16-4.45-.74-.26-.11-.52-.22-.78-.31-.38-.14-.6-.44-.57-.78.04-.41.35-.79.72-.84.25-.04.5-.03.75.08.9.39 1.8.76 2.79.85.62.06 1.24.09 1.87-.05.42-.09.86-.09 1.29-.09.35 0 .5.27.59.56.12.41-.05.86-.37 1.04-.13.07-.28.14-.42.15-.55.06-1.12.04-1.42.13zm9.48.871c-1.24.06-2.48-.06-3.7-.28-.53-.09-.84-.51-.76-.99.09-.54.5-.86 1.06-.75 1.28.24 2.57.35 3.88.25.47-.04.88.38.89.84 0 .53-.29.86-.81.9l-.56.03zm-3.75-6.161c.22 0 .54.1.86.15.69.13 1.37.25 2.06.38.55.11.82.49.72 1.01-.1.51-.54.82-1.05.73-.94-.17-1.87-.34-2.81-.52-.48-.09-.76-.45-.72-.88.05-.5.38-.83.95-.86l-.01-.01zm-5.27.611c-.51 0-.92-.3-1.37-.48-.51-.2-1-.44-1.5-.66-.5-.22-.71-.6-.55-1.04.19-.52.67-.79 1.17-.59.9.36 1.78.75 2.65 1.16.43.2.56.52.47.94-.09.38-.43.64-.87.68v-.01zm-15.67-4.421c.03.41-.15.7-.47.89-.37.21-.74.07-1.05-.16-.77-.57-1.27-1.35-1.56-2.26-.12-.36.14-.76.56-.92.43-.17.92-.04 1.08.36.26.66.69 1.18 1.23 1.62.15.12.22.3.21.47zm29.51 6.82c-.06-.27.08-.49.29-.68.61-.54 1.32-.88 2.12-.95.43-.04.89-.02 1.19.41.21.3.19.62.02.92-.17.29-.42.47-.77.45-.5-.03-.93.1-1.31.43-.53.46-1.19.35-1.47-.22a1.01 1.01 0 01-.08-.37l.01.01zm-21.82-7.27c.05.73-.4 1.1-1.1.91-.7-.19-1.39-.38-2.08-.6-.41-.13-.6-.45-.58-.89.01-.36.15-.62.48-.78.17-.08.33-.08.51-.03.72.2 1.44.39 2.15.6.4.11.59.37.62.79z" fill="#F6B897"/><path d="M67.399 136.86c-.99-1.39-.97-3.35.05-4.85.15-.22.35-.39.08-.7-.19-.22 0-.49.36-.66 1.92 2.1 4.37 3.29 7.03 4.13 1.6.51 3.24.87 4.88 1.19 4.27.85 8.57 1.55 12.89 2.09 3.49.44 6.99.78 10.5 1.02 3.13.21 6.26.36 9.39.42 2.34.04 4.68.05 7.03 0 1.69-.03 3.38-.1 5.07-.16 1.67-.06 3.33-.16 4.99-.28 3.2-.24 6.39-.54 9.57-.94 1.83-.23 3.66-.41 5.48-.7 1.96-.32 3.9-.69 5.76-1.42.26.74.26 1.51.25 2.27 0 .86-.18 1.71-.46 2.53.06.09.02.18-.01.27-.79 1.9-2.06 3.29-4.12 3.83-.33.09-.67.07-1 .1-1.25-.04-2.29-.49-3.01-1.56-.13-.19-.23-.19-.42-.07-1.18.8-2.42.81-3.69.25-.63-.28-1.16-.69-1.65-1.17-.19-.19-.27-.16-.37.09-.41.98-1.36 1.59-2.42 1.58-.45-.04-.87-.16-1.25-.41-.18-.12-.28-.06-.4.1-.19.26-.41.51-.67.71-1.14.85-3.03.86-4.12-.51-.17-.22-.27-.21-.45-.02-1.64 1.66-4.45 1.46-5.87-.39-.08-.1-.13-.22-.27-.31-.18.37-.33.75-.49 1.12-.11.26-.22.52-.37.76-.19.31-.45.39-.77.22-.54-.28-1.01-.67-1.45-1.09-.3-.29-.25-.32-.52.04-.82 1.06-2.32 1.35-3.57.49-.49-.34-.91-.76-1.28-1.23-.2.55-.5 1.02-.97 1.38-1.49 1.11-3.46.72-4.48-.89-.12-.19-.16-.5-.38-.55-.2-.05-.35.23-.55.33-1.24.69-2.48.68-3.74.05-.5-.25-.88-.65-1.29-1.01-.22-.26-.42-.53-.61-.81-.12-.17-.2-.17-.33 0-.49.64-1.12 1.03-1.92 1.17-.97.17-1.82-.09-2.57-.69-.31-.25-.3-.26-.56.01-.83.87-2.36.97-3.48.23-.43-.29-.79-.65-1.09-1.07-.13-.17-.2-.26-.37-.01-.93 1.36-2.98 1.45-4.01.19-.17-.2-.28-.26-.5-.08-1.15.89-3.14.62-3.97-.86-.12-.21-.23-.23-.45-.16-1.25.4-2.32-.01-2.99-1.14l-.12-.21c-.14-.24-.337-.293-.59-.16-1.5.61-2.98-.13-3.43-1.7-.16-.57-.16-.57-.62-.22-.98.74-2.07 1.1-3.3.95-.86-.11-1.59-.5-2.19-1.12-.1-.1-.18-.21-.18-.36l-.01-.01z" fill="#00602D"/><path d="M119.57 85.95c.05-.47.1-.96.17-1.44.05-.35-.02-.63-.32-.86-.36-.28-.69-.59-1.03-.89-.11-.1-.25-.19-.19-.37.06-.17.22-.2.36-.23.47-.1.93-.21 1.4-.29.3-.05.47-.21.58-.49.17-.43.36-.86.54-1.29.06-.14.1-.29.29-.31.21-.02.28.14.36.28.24.42.48.85.72 1.27.12.21.28.33.53.34.46.03.93.08 1.39.12.18.02.39-.01.48.2.09.21-.09.32-.2.45-.3.34-.6.68-.92 1.01-.21.22-.26.45-.19.73.12.45.22.9.33 1.36.04.16.09.33-.08.45-.15.11-.29.03-.42-.03-.44-.2-.87-.39-1.3-.59-.25-.12-.49-.1-.73.05-.42.27-.85.52-1.28.78-.27.16-.48.06-.49-.24v-.01z" fill="#fff"/><path d="M145.14 144.94c2.54-.13 4.03-1.64 5.01-3.82.04-.1.08-.19.12-.29.82.49 1.44 1.18 1.87 2.02.75 1.49.52 2.95-.22 4.35-1.23 2.34-3.14 4-5.45 5.2-2.01 1.04-4.17 1.66-6.38 2.09-1.34.26-2.68.45-4.04.6-2.98.32-5.97.48-8.96.64-1.67.09-3.35.14-5.03.16-2.11.03-4.21.04-6.32.03-1.77 0-3.54-.05-5.3-.1-1.89-.05-3.79-.14-5.68-.2-1.19-.04-2.37-.05-3.56-.09-1.58-.05-3.16-.13-4.74-.19-1.38-.05-2.76-.14-4.14-.26-3.02-.25-6.02-.59-8.97-1.27a41.652 41.652 0 01-12.56-5.14c-1.21-.74-2.41-1.52-3.46-2.49-.94-.87-1.73-1.84-2.01-3.13-.46-2.08.59-4.02 2.21-4.59.14.06.16.19.2.31.78 2.52 2.43 4.27 4.81 5.37 1.9.87 3.92 1.24 5.98 1.49 2.88.35 5.77.57 8.66.87.13.01.26 0 .38 0 .88.14 1.75.37 2.64.42.59.04 1.18.02 1.77.03 1.69.17 3.39.33 5.08.49 3.77.37 7.54.72 11.32 1 2.38.18 4.77.34 7.15.44.17 0 .35.06.52.05.76.26 1.49.61 2.26.83 1.24.35 2.5.53 3.79.55 1.85.03 3.61-.34 5.29-1.1.09-.04.18-.06.27-.07 1.71.01 3.42-.02 5.13-.18 2.81-.25 5.59-.71 8.22-1.8 1.36-.56 2.69-1.18 3.86-2.09.09-.07.2-.12.31-.17l-.03.04z" fill="#FFDC9E"/><path d="M87.519 146.62c-1.03-.08-2.06-.16-3.09-.26-2.12-.2-4.24-.39-6.35-.66-2.12-.28-4.21-.7-6.12-1.71-2.21-1.16-3.71-2.92-4.39-5.35-.02-.06-.04-.11-.06-.17-.09-.54-.2-1.07-.1-1.62 1.36 1.7 3.67 1.92 5.55.53.22-.16.42-.35.67-.56.14.87.37 1.67 1.11 2.19.74.51 1.53.55 2.36.24.2.05.29.23.4.37 2.04 2.53 4.51 4.53 7.46 5.91.74.35 1.5.62 2.28.88.11.04.27.03.29.2l-.01.01z" fill="#F7AD0C"/><path d="M127.62 149.271c-.83.33-1.66.67-2.54.87-2.71.61-5.34.35-7.92-.62-.38-.14-.75-.31-1.13-.47-.74-.21-1.35-.67-1.97-1.1-1.05-.72-1.95-1.6-2.76-2.59-.1-.12-.23-.24-.21-.42.44-.4.77-.86.98-1.46.4.42.75.85 1.2 1.18 1.36 1.02 2.89.75 3.82-.68.02-.03.05-.05.08-.08.5.53 1.04 1 1.67 1.37.44.26.64.2.85-.25.29-.62.56-1.25.86-1.92.43.71.98 1.25 1.7 1.59 1.53.72 3.28.39 4.46-.83.15-.15.22-.24.39 0 1.17 1.67 3.69 1.59 4.79-.15.13-.21.2-.25.4-.09.37.29.81.38 1.27.45.04.16-.06.27-.14.37a17.354 17.354 0 01-4.55 4.16c-.4.25-.8.51-1.26.65l.01.02zm-40.1-2.651c-.58-.21-1.16-.4-1.73-.63-1.71-.67-3.27-1.61-4.73-2.73-1.5-1.16-2.82-2.49-3.97-4 .286-.18.516-.117.69.19.63 1.14 1.48 1.6 2.62 1.42.06 0 .12-.01.17-.03.19-.07.43-.23.57-.18.15.06.21.34.33.51.87 1.25 2.67 1.49 3.86.51.1-.08.19-.25.31-.02.75 1.42 3.37 1.54 4.26-.3.29.34.54.68.84.98.91.93 2.32 1.17 3.4.57.24-.13.46-.29.62-.51.14-.2.22-.2.4-.03a3.016 3.016 0 004.12.11c.25-.22.42-.49.62-.76.28.38.55.74.82 1.1-.11.33-.39.52-.62.73-1.86 1.74-4.03 2.88-6.53 3.38-.54.11-1.08.13-1.63.11-1.5.11-2.97-.13-4.43-.45l.01.03z" fill="#F25252"/><path d="M91.959 147.071c1.69-.12 3.3-.52 4.82-1.28 1.34-.66 2.54-1.5 3.58-2.58.12-.13.25-.24.38-.36.23.2.44.41.68.6 1.46 1.18 3.56 1.15 4.83-.08.02-.02.06-.03.11-.06.21.49.47.93.84 1.32.87.92 2.45 1.37 3.9.31 1.26 1.69 2.83 3 4.7 3.97.08.04.16.09.24.14-.92-.04-1.84-.07-2.76-.13-1.57-.1-3.14-.21-4.7-.32-1.76-.13-3.53-.27-5.29-.43-2.24-.2-4.47-.41-6.71-.62-1.54-.15-3.08-.31-4.62-.47v-.01zm35.66 2.2c.86-.5 1.73-1 2.51-1.62 1.31-1.04 2.5-2.18 3.44-3.57.97-.05 1.75-.44 2.24-1.31.11-.19.17-.4.3-.71.31.3.57.61.89.86.96.76 2.02 1.18 3.27.98.56-.09 1.07-.3 1.51-.67.11-.09.19-.2.31.02.67 1.19 1.75 1.64 3.05 1.7-.68.7-1.54 1.12-2.39 1.56-2.21 1.15-4.57 1.83-7.02 2.23-1.9.31-3.82.46-5.74.52-.79.02-1.58.1-2.37.02v-.01z" fill="#F7AD0C"/><path d="M145.239 150.25c-.64.04-.97-.2-1.04-.66-.08-.5.21-1 .68-1.06 1-.13 1.81-.59 2.52-1.29.37-.37.88-.32 1.26.08.31.32.29.78-.04 1.16-.94 1.05-2.15 1.59-3.38 1.78v-.01zm-12.17 3.041c-.44.03-.88.06-1.33.08-.46.02-.79-.26-.83-.71-.05-.59.19-.99.68-1.03.93-.08 1.86-.13 2.79-.17.47-.02.85.4.85.88 0 .49-.31.83-.81.86-.45.03-.91.05-1.36.08l.01.01zm6.24-3.111c.35.03.68-.11 1.01-.35.42-.3.94-.18 1.23.22.26.37.17.91-.2 1.21-.77.61-1.65.76-2.59.63-.32-.05-.62-.47-.63-.83 0-.43.27-.78.68-.84.15-.02.3-.02.51-.03l-.01-.01z" fill="#F6B897"/></g><defs><clipPath id="clip0_1259_10752"><path fill="#fff" d="M0 0h220v237H0z"/></clipPath><clipPath id="clip1_1259_10752"><path fill="#fff" d="M0 0h70v70H0z"/></clipPath><linearGradient id="paint0_linear_1259_10752" x1="10.252" y1="10.252" x2="59.748" y2="59.748" gradientUnits="userSpaceOnUse"><stop stop-color="#EF8F7A"/><stop offset=".06" stop-color="#ED796A"/><stop offset=".2" stop-color="#EA544F"/><stop offset=".33" stop-color="#E83539"/><stop offset=".48" stop-color="#E71E27"/><stop offset=".63" stop-color="#E50D1B"/><stop offset=".79" stop-color="#E50314"/><stop offset="1" stop-color="#E50012"/></linearGradient></defs></svg>