<svg width="220" height="237" viewBox="0 0 220 237" fill="none" xmlns="http://www.w3.org/2000/svg"><g clip-path="url(#clip0_1259_10364)"><circle cx="110" cy="127" r="110" fill="#fff"/><circle cx="110" cy="127" r="99" fill="#fff" stroke="#D93636" stroke-width="2"/><g clip-path="url(#clip1_1259_10364)"><path d="M69 35c0 18.778-15.222 34-34 34S1 53.778 1 35 16.222 1 35 1s34 15.222 34 34z" fill="url(#paint0_linear_1259_10364)" stroke="#58393E" stroke-width="2"/><path d="M36.662 28.76c0-2.387-1.047-3.15-3.332-3.15h-5.901v2.615h5.974v.878h-3.815c-1.61 0-2.352.536-2.352 2.223v1.554c0 1.687.739 2.226 2.352 2.226h7.074V28.76zm-3.259 3.735h-2.908v-1.222h2.908v1.222zm-8.277-4.092V25.61h-5.558c-2.285 0-3.332.767-3.332 3.15v3.2c0 2.386 1.047 3.146 3.332 3.146h5.558v-2.839h-5.652v-3.864h5.652zm27.91-2.793h-3.405v9.496h3.405v-3.343h2.909v3.343h3.405V25.61h-3.405v3.154h-2.909V25.61zm-38.979 1.516l-3.213-1.516v9.496l3.213-1.512v-6.468zm24.741 5.368v2.615h6.076c2.093 0 3.048-.672 3.048-2.78v-.895c0-1.876-.85-2.475-2.709-2.475H41.56v-.731h6.08v-2.615h-6.07c-2.092 0-3.051.676-3.051 2.783v.896c0 1.872.85 2.47 2.709 2.47h3.65v.732h-6.08zm-24.504-9.586a1.82 1.82 0 11-3.641-.002 1.82 1.82 0 013.641.002z" fill="#fff"/><path d="M29.877 38.98c-.795 0-1.55.644-1.69 1.438l-1.467 8.327c-.14.794.392 1.438 1.186 1.438h8.852l1.97-11.203h-8.851z" fill="#00913A"/><path d="M57.52 38.98c.794 0 1.323.643 1.186 1.438l-1.463 8.326c-.14.795-.896 1.439-1.69 1.439H27.91c-.795 0-1.323-.644-1.187-1.439l1.463-8.326c.14-.795.896-1.439 1.69-1.439H57.52zm0-.624H29.877c-1.1 0-2.11.858-2.303 1.953l-1.463 8.327c-.098.563.042 1.123.385 1.533.343.41.847.637 1.414.637h27.643c1.099 0 2.11-.858 2.303-1.953l1.463-8.327c.098-.563-.042-1.123-.385-1.533-.343-.41-.847-.637-1.414-.637z" fill="#fff"/><path d="M38.728 38.98l-1.97 11.203h9.94l1.97-11.203h-9.94z" fill="#F08C00"/><path d="M57.52 38.98h-8.852l-1.97 11.203h8.85c.795 0 1.551-.644 1.691-1.438l1.463-8.327c.14-.794-.392-1.438-1.186-1.438h.003z" fill="#8F70AE"/><path d="M56.918 40.981H54.44l-.43 2.447H51.8l.431-2.447h-2.46l-.368 2.083c-.308 1.76.287 2.208 2.072 2.208h2.209l-.196 1.106h-3.255l-1.73 1.803h4.59c1.564 0 2.645-.518 2.932-2.139l.89-5.057.003-.004zm-10.443 2.387c.318-1.81-.375-2.387-2.104-2.387h-4.473l-.325 1.859h4.529l-.14.787H41.07c-1.222 0-1.855.406-2.08 1.687l-.206 1.176c-.224 1.278.266 1.687 1.484 1.687h5.362l.847-4.812-.003.003zm-2.996 2.996h-2.205l.192-1.088h2.205l-.192 1.088zm-8.219-5.383h-5.362l-1.267 7.2 2.695-.97.294-1.676h2.838c1.222 0 1.855-.406 2.08-1.687l.206-1.176c.224-1.278-.266-1.687-1.484-1.687v-.004zm-1.2 2.909h-2.206l.186-1.047h2.205l-.186 1.047z" fill="#fff"/></g><path d="M141.59 100.17c2.6.63 4.62 2.57 6.17 4.65l4.11 5.07c6.99 8.73 13.73 17.68 20.76 26.39.36-1.1.61-2.25.71-3.4.32-3.12-.33-6.34-1.82-9.14-1.33-2.41-3.9-5.39-5.48-7.64-3.7-5.03-7.56-9.94-11.46-14.81-3.93-6.09-11.34-6.17-17.71-5.86-3.51.07-7.01.28-10.49.38-.62-.02-1.26-.06-1.9-.06 5.88 1.5 12.41 3.14 17.11 4.42z" fill="#58393E"/><path d="M104.64 100.37c.69-1.44.66-3.38 1.5-4.75-.83-.18-1.67-.37-2.5-.55.02.11.02.23-.02.35l-2.68 9.57c-.1.36-.43.6-.78.6-.07 0-.15 0-.22-.03a.818.818 0 01-.57-1l2.68-9.57c.02-.09.07-.16.12-.23-1.46-.32-2.92-.63-4.38-.94.01.09.02.19 0 .29l-1.99 9.75c-.08.39-.42.65-.8.65-.05 0-.11 0-.16-.02a.818.818 0 01-.64-.96l1.99-9.75c.02-.1.06-.19.11-.27-1.42-.3-2.84-.6-4.26-.88.02.1.03.2 0 .31l-1.65 9.79c-.07.4-.41.68-.8.68-.04 0-.09 0-.14-.01a.823.823 0 01-.67-.94l1.65-9.79c.02-.12.07-.22.13-.31-1.5-.29-2.99-.58-4.5-.85.08.14.13.3.1.48l-1.18 9.83a.82.82 0 01-.81.72h-.1a.807.807 0 01-.71-.91l1.18-9.83c.02-.2.13-.37.27-.5-3.15-.49-6.47-.3-9.6.21-8.29 1.27-16.28 4.03-24.17 6.7-6.3 1.19-6.66 9.56-.25 10.58 1.71.18 3.27-.69 4.89-1.07 4.8-1.37 9.68-2.51 14.57-3.51 4.04-.71 8.04-1.75 12.09-1.62 2.43.19 4.87.67 7.29 1.12 4.56.88 9.13 1.84 13.69 2.84-.96-2.05.8-4.24 1.31-6.18h.01z" fill="#51AF3E"/><path d="M129.429 132.91c1.78 3.28 3.7 6.49 5.81 9.57l3.21 4.76c.99 1.61 2.11 3.61 4.29 3.5 2.79.12 4.7-3.27 3.28-5.66l-.47-.96c-2.46-5.14-5.16-10.14-8.06-15.04-.77-1.26-1.55-3.06-3.03-3.68-1.25-.54-2.86-1-4.12-1.48-1.62-.58-3.25-1.13-4.89-1.67-.75.66-1.44 1.42-2.09 2.26-.22.55-.44 1.11-.63 1.68-.35 1.12-.73 2.28-.94 3.45.03.01.06.03.09.04l7.55 3.23zm-20.99-25.32c.01-1.23.91-3.64 1.16-4.83.58-2.11 1.08-4.19 1.69-6.34.21-.64.59-1.18 1.06-1.62-.87-.2-1.75-.39-2.63-.56-.71-.19-1.75-.14-2.44.27-.51.29-.88.67-1.15 1.12-.84 1.37-.81 3.31-1.5 4.75-.51 1.94-2.27 4.13-1.31 6.18.07.14.14.28.24.42.46.74 1.43 1.31 2.22 1.44.97.25 1.94.46 2.91.65-.17-.47-.27-.96-.26-1.47l.01-.01z" fill="#58393E"/><path d="M176.159 140.64c-1.19-1.44-2.36-2.91-3.53-4.36-7.02-8.71-13.76-17.65-20.76-26.39l-4.11-5.07c-1.55-2.08-3.57-4.02-6.17-4.65-4.7-1.28-11.23-2.92-17.11-4.42-2.68-.68-5.22-1.33-7.4-1.91-1.61-.63-3.51-.2-4.73.96-.47.44-.85.98-1.06 1.62-.61 2.15-1.11 4.23-1.69 6.34-.26 1.19-1.15 3.61-1.16 4.83 0 .51.09 1 .26 1.47.43 1.19 1.38 2.2 2.6 2.63 0 0 2 .69 2.65.91-3.48 6.63-2.5 14.65-.38 21.6 1.46 8.19 7.96 17.26 12.01 23.56 2.33 3.47 6.39 5.63 10.52 5.59 4.2.08 7.74-2.51 11.5-4 2.6-1.15 10.2-4.54 13.98-6.22 2.52 2.44 6.07 3.75 9.58 2.72 6.57-1.74 9.41-10.01 5-15.21zm-54.37-11c.21-1.17.59-2.33.94-3.45.19-.56.41-1.12.63-1.68.64-.84 1.34-1.6 2.09-2.26 2.19-1.93 4.84-2.97 7.96-2.57 1.35.46 2.58 1.3 3.51 2.38l3.77 4.84c4.64 5.96 10.09 12.94 15.15 19.24-1.34.64-2.69 1.28-2.69 1.28l-11.01 5.34c-.89.44-3.26 1.61-4.12 2.03-1.88 1.02-4.36.4-5.53-1.4-4.16-6.76-9.02-13.66-10.83-21.46-.07-.77 0-1.53.14-2.29h-.01z" fill="#51AF3E"/><path d="M99.37 104.56a.81.81 0 00.79 1.03c.36 0 .68-.24.78-.6l2.68-9.57c.03-.12.03-.23.02-.35a.833.833 0 00-.58-.66c-.35-.1-.7.05-.89.33-.05.07-.09.14-.12.23l-2.68 9.57v.02zm-10.58-2.11c-.07.44.22.86.67.94.05 0 .09.01.14.01.39 0 .74-.28.8-.68l1.65-9.79c.02-.11.01-.21 0-.31a.811.811 0 00-1.47-.28c-.06.09-.11.2-.13.31l-1.65 9.79-.01.01zm-5.42-.83c-.05.45.27.85.71.91h.1c.41 0 .76-.3.81-.72l1.18-9.83a.887.887 0 00-.1-.48.796.796 0 00-.61-.43.808.808 0 00-.64.21c-.14.13-.24.3-.27.5l-1.18 9.83v.01zm10.82 1.91c-.09.44.19.87.64.96.06.01.11.02.16.02.38 0 .72-.27.8-.65l1.99-9.75c.02-.1.01-.19 0-.29a.807.807 0 00-1.49-.31c-.05.08-.09.17-.11.27l-1.99 9.75z" fill="#58393E"/><path d="M48 112.15c-2.44 2.65-4.57 5.59-5.97 8.92-2.99 6.45.67 16.46 9.02 13.09 3.32-1.65 4.11-5.65 3.74-8.98-.68-4.96-3.45-9.39-6.79-13.03z" fill="#F9C73D"/></g><defs><clipPath id="clip0_1259_10364"><path fill="#fff" d="M0 0h220v237H0z"/></clipPath><clipPath id="clip1_1259_10364"><path fill="#fff" d="M0 0h70v70H0z"/></clipPath><linearGradient id="paint0_linear_1259_10364" x1="10.252" y1="10.252" x2="59.748" y2="59.748" gradientUnits="userSpaceOnUse"><stop stop-color="#EF8F7A"/><stop offset=".06" stop-color="#ED796A"/><stop offset=".2" stop-color="#EA544F"/><stop offset=".33" stop-color="#E83539"/><stop offset=".48" stop-color="#E71E27"/><stop offset=".63" stop-color="#E50D1B"/><stop offset=".79" stop-color="#E50314"/><stop offset="1" stop-color="#E50012"/></linearGradient></defs></svg>