<svg width="140" height="141" viewBox="0 0 140 141" fill="none" xmlns="http://www.w3.org/2000/svg"><path d="M110.461 14.109c2.47-3.75 4.35-7.87 5.54-12.2.15-.56-.06-1.32-.71-1.48-1.21-.31-2.46-.02-3.27.97-.82.99-1.19 2.45-1.61 3.64-.91 2.58-1.6 5.23-2.1 7.91-.03.16 0 .31.04.46-.02 1 1.42 1.75 2.11.7zm5.86 4.24c.53.36 1.25.21 1.62-.3.86-1.2 1.72-2.54 2.67-3.6.86-.96 1.9-1.8 2.55-2.94.4-.7.82-1.56.44-2.35-.49-1.03-1.73-.89-2.48-.28-1.12.92-2.11 2.1-2.87 3.33-.85 1.37-1.49 2.86-2.11 4.34-.04.06-.08.11-.12.17-.37.51-.21 1.27.3 1.62v.01zm9.06 6.741c.22-.03.44-.1.63-.24.25-.19.49-.37.73-.56.21-.09.43-.19.64-.28.62-.26 1.24-.51 1.86-.77 1.26-.53 2.48-1.12 3.61-1.9.57-.39 1.29-.85 1.55-1.52.18-.47.11-1.04-.22-1.42-.34-.39-.84-.54-1.34-.53-1.57 0-2.8.99-4 1.9l-3.27 2.49c-.38.16-.77.32-1.11.55-.27.18-.48.41-.59.72-.16.47-.03.85.24 1.24s.82.47 1.26.33l.01-.01z" fill="#58393E"/><path d="M36.17 129.598c.22-.1.48-.11.74-.03 3.07.91 6.32 1.56 9.46 2.2.96.19 1.92.39 2.87.59 3.95.83 8.11 1.64 13.1 2.55 2.7.49 5.4.97 8.1 1.43 1.15.19 2.34.32 3.49.44.48.05.95.1 1.43.16.63.07 1.27.16 1.92.25 2.46.34 5.01.69 7.37.2 3.21-.67 4.68-3.4 5.92-6.14 1.22-2.71 2.25-5.76 3.25-9.61 1.24-4.78 2.31-9.69 3.34-14.44.42-1.93.84-3.87 1.28-5.8 3.07-13.65 6.32-28.19 9.36-42.68.42-2.02.92-4.05 1.41-6.02.75-3.07 1.54-6.25 2.04-9.42.73-4.64 1.2-10.51-1.72-14.75-3-4.35-8.76-5.88-13.84-7.23-.63-.17-1.25-.33-1.86-.5-6.61-1.83-13.4-3.41-20.17-4.7-.58-.11-1.17-.23-1.75-.35-1.91-.39-3.89-.79-5.83-.92-.96-.07-1.92-.12-2.88-.17-.82-.04-1.63-.09-2.45-.14-.86-.06-1.76-.16-2.7-.27-1.44-.16-2.95-.34-4.4-.34-2.69 0-5.22.57-6.87 2.84-1.78 2.45-2.85 5.55-3.89 8.77-1.01 3.14-1.76 6.36-2.51 9.65-1.07 4.73-2.13 9.47-3.2 14.2l-1.53 6.82c-1.6 7.12-3.19 14.23-4.76 21.35-.5 2.25-.97 4.51-1.44 6.78-.86 4.09-1.74 8.33-2.76 12.46-.22.91-.47 1.87-.73 2.87-2.32 8.88-5.49 21.03 3.06 26.82 2.13 1.45 4.61 2.34 7.19 3.15l-.04-.02zm35.25-109.75l-.06.12c-.05.11-.11.22-.19.31-.35.44-.85.67-1.41.67-.08 0-.17 0-.25-.02-.7-.09-1.32-.54-1.6-1.16-.25-.56-.2-1.18.15-1.69.37-.55 1.02-.9 1.68-.85.62.02 1.17.29 1.5.74.41.55.48 1.27.18 1.88zm16.26 3.9c-.14.35-.46.57-.84.57h-.05c-.81 0-1.57-.23-2.31-.45-.19-.06-.37-.11-.56-.17l-.27-.08c-1.01-.28-2.02-.57-3.03-.83-2.31-.6-4.43-1.05-6.47-1.36-.53-.08-.95-.4-1.13-.88-.2-.53-.1-1.15.26-1.6.33-.41.84-.6 1.38-.51 2.64.43 4.8.91 6.79 1.51l.76.22c1.75.51 3.93 1.15 5.24 2.42.3.29.39.76.24 1.15l-.01.01zm-36.31 100.44c.82-2.23 3.77-3.83 6.04-2.91.06-.02.11-.05.17-.06 3.6-.49 5.65 3.11 5.33 6.31-.37 3.61-4.64 4.91-7.71 3.97-3.03-.93-4.96-4.24-3.84-7.31h.01zm-19.31-16.3c-.76-2.54-.59-5.16-.3-7.61.32-2.65.75-5.32 1.16-7.91l.13-.82a433.506 433.506 0 0111.91-52.93c.15-.5.29-1.01.44-1.53 1.17-4.11 2.37-8.36 5.27-11.54 2.09-2.3 4.48-3.27 8.25-3.38 6.23-.17 12.48.84 17.23 1.74 4.22.8 8.65 1.92 13.54 3.41 2.39.73 4.94 1.54 7.43 2.58 1.73.72 4.23 1.93 5.9 4.08 3.03 3.89 2.18 9.12 1.42 13.73-.09.55-.18 1.09-.26 1.61-.89 5.91-1.91 11.88-3.05 17.73a446.491 446.491 0 01-8.28 35.07c-.27.97-.53 1.96-.79 2.95-1.05 4.01-2.14 8.16-4.13 11.76-1.95 3.53-4.58 5.4-8.03 5.74-1.22.12-2.44.17-3.66.17-4.67 0-9.38-.79-13.96-1.55l-2.15-.36c-.26-.04-.49-.16-.66-.33-6.23-1.23-11.36-2.53-16.07-4.1-4.13-1.37-9.78-3.24-11.36-8.49l.02-.02z" fill="#99DBF2"/><path d="M53.14 124.819c.64-1.87 2.59-2.22 4.24-1.67.39.13.76-.03.99-.29 1.73.59 2.61 2.67 2.37 4.48-.28 2.17-3.14 2.7-4.91 2.18-1.91-.55-3.37-2.7-2.69-4.7z" fill="#FEF7E0"/><path d="M22.86 122.638c2.65 5.2 7.96 7.29 12.9 8.76.14.2.36.37.65.45.55.16 1.1.33 1.66.5 1.29.4 2.62.81 3.97 1.14 8.7 2.13 17.56 3.72 25.89 5.17 2.88.5 5.82.83 8.66 1.15l1.78.2c1.23.14 2.6.3 4 .3 1.63 0 3.29-.2 4.82-.89 3.13-1.4 4.67-4.37 5.87-7.04 2.55-5.67 3.92-11.83 5.23-17.8.18-.82.36-1.65.55-2.47l1.401-6.2 3.54-15.73c1.5-6.69 3.26-14.6 4.97-22.59.94-4.41 1.97-8.88 2.95-13.19.41-1.78.81-3.55 1.22-5.33 1.22-5.38 2.31-11.09 1.17-16.55-1.12-5.35-4.82-9.38-10.68-11.65-2.76-1.07-5.68-1.87-8.49-2.64l-.98-.27c-3.56-.98-7.18-1.89-10.78-2.72-3.53-.81-7.12-1.55-10.67-2.2l-1.16-.22c-1.8-.34-3.66-.69-5.53-.8-2.11-.11-4.21-.24-6.32-.39-.75-.05-1.49-.13-2.24-.21-1.59-.17-3.23-.33-4.86-.28-3.36.12-6.07 1.46-7.83 3.87-2 2.73-3.22 6.19-4.21 9.22-1.7 5.21-2.88 10.66-4.02 15.93-.33 1.52-.66 3.04-1 4.55l-1.1 4.87c-1.32 5.87-2.64 11.74-3.95 17.61-1.72 7.73-3.36 15.34-4.86 22.62-.46 2.24-1 4.5-1.52 6.69-.78 3.3-1.6 6.72-2.17 10.13-.86 5.12-1.41 11.03 1.14 16.03v-.02zm13.31 6.96c-2.58-.82-5.05-1.71-7.19-3.15-8.55-5.79-5.38-17.95-3.06-26.82.26-1 .51-1.96.73-2.87 1.02-4.13 1.9-8.36 2.76-12.46.47-2.26.95-4.52 1.44-6.78 1.57-7.12 3.16-14.23 4.76-21.35l1.53-6.82c1.06-4.73 2.12-9.47 3.2-14.2.75-3.29 1.5-6.5 2.51-9.65 1.04-3.22 2.11-6.31 3.89-8.77 1.64-2.27 4.17-2.84 6.87-2.84 1.46 0 2.97.18 4.4.34.95.11 1.84.21 2.7.27.82.05 1.63.1 2.45.14.96.05 1.92.1 2.88.17 1.93.14 3.91.54 5.83.92.59.12 1.17.24 1.75.35 6.78 1.29 13.56 2.87 20.17 4.7.6.17 1.23.33 1.86.5 5.081 1.35 10.831 2.88 13.841 7.23 2.93 4.24 2.46 10.11 1.72 14.75-.5 3.17-1.28 6.35-2.04 9.42-.48 1.97-.98 4-1.41 6.02-3.04 14.49-6.29 29.03-9.36 42.68-.43 1.93-.86 3.86-1.28 5.8-1.04 4.75-2.11 9.66-3.34 14.44-1 3.85-2.03 6.91-3.25 9.61-1.24 2.74-2.71 5.47-5.92 6.14-2.35.49-4.9.14-7.37-.2-.65-.09-1.29-.18-1.92-.25-.48-.06-.95-.11-1.43-.16-1.15-.12-2.34-.25-3.49-.44-2.7-.46-5.4-.94-8.1-1.43-4.99-.91-9.15-1.72-13.1-2.55-.95-.2-1.91-.39-2.87-.59-3.14-.63-6.38-1.29-9.46-2.2-.26-.08-.52-.06-.74.03l.04.02z" fill="#58393E"/><path d="M60.58 118.29c4.32.72 9.04 1.2 14.02 1.42l.87.04c2.12.11 4.52.24 6.33-.55 3.48-1.52 4.91-6.29 5.95-9.77l.13-.44c3.22-10.69 6.07-21.78 8.49-32.95 1.18-5.47 2.28-11.08 3.26-16.67l.391-2.21c.81-4.59 1.66-9.33 2.11-14 .22-2.22.27-5.05-1.21-7.19-1.22-1.76-3.28-2.77-5.33-3.59-5.3-2.13-10.78-3.54-15.44-4.64-5.17-1.22-10.39-2.09-15.49-2.57h-.1c-1.6-.16-3.24-.32-4.84-.32-1.23 0-2.45.08-3.62.33-3.55.74-5.41 4.82-6.5 7.83-1.55 4.28-2.73 8.8-3.88 13.17l-.63 2.4c-1.44 5.43-2.81 10.99-4.06 16.52a436.81 436.81 0 00-6.11 32.92l-.12.79c-.34 2.26-.69 4.6-.4 6.87.31 2.4 1.63 4.35 3.81 5.65 1.85 1.1 3.96 1.83 6 2.55l.43.15c2.82.99 5.65 1.8 8.04 2.46 2.55.7 4.93 1.32 7.25 1.87.19-.07.4-.09.64-.05l.01-.02z" fill="#FEF7E0"/><path d="M43.41 116.38c4.72 1.56 9.84 2.87 16.07 4.1.17.17.4.28.66.33l2.15.36c4.59.76 9.29 1.54 13.96 1.55 1.22 0 2.45-.05 3.66-.17 3.45-.33 6.07-2.21 8.03-5.74 1.99-3.6 3.08-7.74 4.13-11.76.26-1 .52-1.98.79-2.95 3.23-11.58 6.02-23.37 8.281-35.07 1.13-5.85 2.16-11.82 3.05-17.73.08-.52.17-1.06.26-1.61.75-4.62 1.6-9.84-1.42-13.73-1.67-2.15-4.17-3.35-5.9-4.08-2.5-1.04-5.05-1.85-7.43-2.58-4.89-1.49-9.32-2.6-13.54-3.41-4.75-.9-11-1.92-17.23-1.74-3.77.11-6.16 1.09-8.25 3.38-2.9 3.18-4.1 7.43-5.27 11.54-.15.51-.29 1.03-.44 1.53a433.504 433.504 0 00-11.91 52.93l-.13.82c-.42 2.59-.85 5.26-1.16 7.91-.3 2.46-.46 5.08.3 7.61 1.58 5.25 7.23 7.12 11.36 8.49l-.02.02zm31.19 3.33c-4.98-.22-9.7-.69-14.02-1.42-.24-.04-.45-.02-.64.05-2.33-.55-4.71-1.17-7.25-1.87-2.4-.66-5.23-1.47-8.04-2.46l-.43-.15c-2.04-.71-4.16-1.45-6-2.55-2.18-1.29-3.5-3.25-3.81-5.65-.29-2.26.06-4.6.4-6.87l.12-.79c1.6-10.97 3.66-22.05 6.11-32.92 1.25-5.53 2.61-11.09 4.06-16.52l.63-2.4c1.15-4.37 2.33-8.89 3.88-13.17 1.09-3.01 2.94-7.09 6.5-7.83 1.18-.24 2.39-.33 3.62-.33 1.61 0 3.24.16 4.84.31h.1c5.11.49 10.32 1.36 15.49 2.58 4.66 1.1 10.14 2.51 15.44 4.64 2.05.82 4.11 1.83 5.331 3.59 1.48 2.14 1.42 4.96 1.21 7.19-.45 4.67-1.3 9.42-2.11 14l-.39 2.21c-.98 5.59-2.08 11.2-3.26 16.67a427.028 427.028 0 01-8.49 32.95l-.13.44c-1.04 3.48-2.47 8.25-5.95 9.77-1.81.79-4.21.66-6.33.55l-.87-.04-.01.02zm-23.23 4.479c-1.13 3.07.81 6.38 3.84 7.31 3.07.94 7.34-.36 7.71-3.97.32-3.2-1.74-6.8-5.33-6.31-.06 0-.12.04-.17.06-2.27-.91-5.23.68-6.04 2.91h-.01zm4.46 5.33c-1.91-.55-3.37-2.7-2.69-4.7.64-1.87 2.59-2.22 4.24-1.67.39.13.76-.03.99-.29 1.73.59 2.61 2.67 2.37 4.48-.28 2.17-3.14 2.7-4.91 2.18zM86.841 24.32h-.05c-.81 0-1.57-.23-2.31-.45-.19-.06-.37-.11-.56-.17l-.27-.08c-1.01-.28-2.02-.57-3.03-.83-2.31-.6-4.43-1.05-6.47-1.36-.53-.08-.95-.4-1.13-.88-.2-.53-.1-1.15.26-1.6.33-.41.84-.6 1.38-.51 2.64.43 4.8.91 6.79 1.51l.76.22c1.75.51 3.93 1.15 5.24 2.42.3.29.39.76.24 1.15-.14.35-.46.57-.84.57l-.01.01zM71.36 19.96c-.05.11-.11.22-.19.31-.35.44-.85.67-1.41.67-.08 0-.17 0-.25-.02-.7-.09-1.32-.54-1.6-1.16-.25-.56-.2-1.18.15-1.69.37-.55 1.02-.9 1.68-.85.62.02 1.17.29 1.5.74.41.55.48 1.27.18 1.88l-.06.12z" fill="#58393E"/><path d="M46.09 83.858c-1.16-.29-1.91-.48-2.25-.56-.34-.08-.53-.27-.57-.56-.04-.29.81-4.32 2.53-12.08.07-.24.2-.45.39-.62.2-.11.44-.13.71-.06l.34.26c.13.26.14.53.03.82l-2.35 10.85 5.8 1.31.34.26c.11.2.13.44.05.71l-.26.34c-.33.12-.68.14-1.04.09-.36-.05-1.6-.31-3.72-.75v-.01zm8.86 1.812c-.34-.09-.67-.23-.98-.42-.31-.19-.6-.54-.88-1.05-.27-.51-.43-1.06-.47-1.65-.04-.59.01-1.19.16-1.81.15-.62.36-1.22.64-1.82.28-.6.69-1.1 1.22-1.52.54-.42 1.13-.7 1.76-.85a3.5 3.5 0 011.92.1c.65.22 1.19.67 1.64 1.36.44.69.66 1.26.66 1.69 0 .44-.03.88-.07 1.32-.03.44-.13.96-.3 1.55-.17.59-.39 1.11-.67 1.57-.28.46-.67.86-1.16 1.19-.49.34-1.03.52-1.61.55-.58.03-1.2-.05-1.85-.23l-.01.02zm2.3-1.39c.47-.17.82-.45 1.05-.84.23-.39.41-.8.53-1.23.12-.43.21-.91.28-1.43.06-.53 0-1.05-.2-1.57s-.45-.84-.76-.98-.69-.2-1.15-.19c-.46.01-.94.23-1.45.65-.51.42-.85.86-1.04 1.34-.19.48-.3.93-.36 1.36-.06.43-.06.89 0 1.4.06.51.28.89.67 1.14.39.25.81.4 1.25.44.44.04.84.01 1.18-.09zm5.932 5.698c-.53-.18-.92-.47-1.15-.86-.23-.39-.38-.77-.44-1.13-.06-.36-.04-.74.07-1.15.11-.4.42-.75.94-1.04.52-.29 1.03-.49 1.51-.58.49-.1 1-.11 1.52-.03l.17-1.05c-.39.16-.77.28-1.15.38-.37.09-.75.08-1.14-.05-.39-.13-.71-.39-.97-.79s-.41-.78-.46-1.13c-.05-.36 0-.77.14-1.23.14-.46.36-.92.66-1.38.3-.46.64-.82 1.02-1.08.38-.26.74-.38 1.06-.35.32.02.71.11 1.17.27.46.16 1.03.67 1.68 1.55.12.44.09.91-.08 1.41l-.6 3.48c.27-.05.5-.04.69.02l.37.3c.11.23.13.48.05.74l-.26.34c-.36.11-.73.13-1.13.05-.06.52-.17 1-.33 1.46-.16.46-.6.91-1.32 1.37-.72.45-1.4.62-2.03.49l.01-.01zm.97-1.51c.31-.15.58-.36.82-.65.24-.29.38-.68.42-1.17-.48-.03-.89 0-1.23.09-.33.09-.63.26-.9.5s-.31.51-.14.8c.17.29.36.46.55.49.19.04.35.02.47-.06h.01zm.72-5.6c.41-.18.72-.43.93-.75.21-.32.39-.71.55-1.17-.1-.23-.28-.44-.53-.64-.26-.21-.56-.26-.9-.16-.34.1-.63.34-.85.7-.23.37-.35.79-.38 1.25-.03.47.1.73.38.78.28.05.55.05.81-.02l-.01.01zm8.009 6.111l-.35-.26c.05-1.16.15-2.32.31-3.48.16-1.15.34-2.31.54-3.45.06-.19.17-.35.33-.48.2-.12.44-.13.73-.05l.34.26c-.1 1.17-.23 2.34-.38 3.52-.16 1.18-.33 2.37-.54 3.55l-.26.34c-.2.11-.44.13-.71.06l-.01-.01zm1.31-9.01c-.37-.2-.66-.5-.87-.9-.21-.4-.38-.8-.52-1.19-.14-.39-.2-.69-.18-.92.02-.22.17-.42.45-.6.27-.18.58-.16.93.05.35.21.61.56.8 1.06.44-.49.88-.67 1.31-.54.43.14.69.31.79.51.09.21.07.44-.09.7-.15.26-.36.5-.62.72-.26.22-.59.45-1 .7-.4.24-.74.38-1 .4v.01zm9.761 11.441l-.34-.26c-.16-.37-.16-.75 0-1.16.15-.5.29-.98.42-1.45.13-.46.23-.93.31-1.41.08-.47.09-.92.03-1.33-.06-.41-.2-.78-.42-1.11-.22-.33-.51-.5-.87-.52-.36-.02-.72.12-1.06.43-.34.31-.71.65-1.09 1.04-.39.39-.67.85-.85 1.38l-.36 1.83-.06.51-.26.34c-.2.11-.44.13-.71.06l-.34-.26c0-1.28.09-2.55.28-3.83.2-1.28.37-2.54.51-3.81.06-.19.17-.35.33-.48.2-.12.44-.13.71-.06l.34.26c.05.4.05.8 0 1.22-.05.42-.11.84-.17 1.26.34-.29.68-.56 1.01-.81.33-.25.71-.43 1.14-.55.43-.12.9-.09 1.4.1.5.19.93.53 1.27 1.02.34.49.57 1.04.67 1.64.11.6.04 1.42-.21 2.45-.25 1.03-.42 1.78-.5 2.23-.09.45-.24.85-.47 1.19-.2.11-.44.13-.71.06v.02z" fill="#58393E" stroke="#58393E" stroke-width=".5" stroke-miterlimit="10"/><path d="M70 53.879l-6.21 8.89a.353.353 0 00.05.47l.01.01c1.5 1.21 3.29 2.1 5.29 2.55 2.01.45 4 .41 5.87-.05.12-.03.22-.13.25-.27a.33.33 0 000-.14v-.01l-1.8-10.53v-.02c-.12-.77-.7-1.42-1.51-1.6a1.97 1.97 0 00-1.97.69m-10.27-3.43a.37.37 0 00-.43.27v.01c-.62 3.2 0 6.36 1.53 8.98a.364.364 0 00.6.02l5.07-7.26c.02-.04.04-.08.05-.12a.364.364 0 00-.27-.43l-6.56-1.47h.01zm17.97 4.02a.364.364 0 00-.43.27.33.33 0 000 .14l1.49 8.73c.02.14.13.26.28.29.1.02.19 0 .27-.04h.02c2.5-1.72 4.41-4.32 5.21-7.47v-.01a.36.36 0 00-.27-.43l-6.56-1.47-.01-.01zm-5.13-14.2h-.02c-4.74-.21-9.18 2.21-11.6 6.18-.02.03-.03.07-.04.1-.04.19.08.39.27.43l7.68 1.72h.03c.14.02.27-.04.34-.15l.94-1.35c1.32-2 2.17-4 2.58-5.91l.13-.59a.364.364 0 00-.27-.43h-.05m3.94 1.25l-.13.59c-.44 1.91-.52 4.08-.19 6.45l.28 1.62c.02.12.1.22.21.26 0 0 .02 0 .03.01 0 0 .02 0 .03.01l7.68 1.72c.19.04.39-.08.43-.27 0-.04.01-.07 0-.11-.5-4.62-3.49-8.71-7.87-10.54h-.01c-.01 0-.03-.01-.05-.01a.364.364 0 00-.43.27" fill="#2E61B4" opacity=".7"/></svg>