<svg width="140" height="141" viewBox="0 0 140 141" fill="none" xmlns="http://www.w3.org/2000/svg"><g clip-path="url(#clip0_1259_10668)"><path d="M39.874 122.527a1.76 1.76 0 00-.483-1.277l-6.06-6.481a1.747 1.747 0 00-1.242-.564c-.472 0-.932.15-1.277.483-.345.323-.552.76-.563 1.244-.012.472.15.932.483 1.277l3.185 3.407-1.77-.368a17.016 17.016 0 01-13.605-17.277 1.761 1.761 0 00-.484-1.278 1.814 1.814 0 00-1.241-.564h-.058a1.77 1.77 0 00-1.771 1.715c-.345 10.486 7.2 19.545 17.56 21.076l1.185.173-3.346 3.131a1.745 1.745 0 00-.564 1.243c-.011.472.15.932.483 1.277.322.346.76.541 1.242.564.483.012.932-.149 1.277-.483l6.474-6.066c.346-.322.553-.76.564-1.243l.011.011zm67.542-106.83l-1.184-.173 3.346-3.13c.345-.323.552-.76.564-1.244a1.747 1.747 0 00-.483-1.277 1.743 1.743 0 00-1.242-.564 1.73 1.73 0 00-1.277.483l-6.474 6.066c-.345.322-.552.76-.564 1.243-.011.484.15.933.483 1.278l6.061 6.48a1.79 1.79 0 001.242.565c.494.011.931-.15 1.276-.484.345-.322.552-.76.564-1.243a1.748 1.748 0 00-.483-1.278l-3.186-3.407 1.771.369a16.984 16.984 0 0113.594 17.266c-.012.471.149.932.483 1.277.322.346.77.541 1.242.564.471.023.931-.15 1.276-.483.345-.323.541-.76.564-1.243.345-10.487-7.199-19.546-17.561-21.076l-.012.011zM86.773 29.383c-1-.08-2.001-.196-3.002-.311-1.99-.219-4.06-.449-6.072-.449h-.368c-23.184.334-42.85 17.865-45.748 40.77-1.518 12.006 1.817 22.803 9.925 32.092 7.624 8.737 17.756 13.295 30.096 13.537 12.524.242 23.679-4.282 33.178-13.444 8.096-7.805 12.754-17.428 13.835-28.604 1.104-11.28-2.013-21.433-9.235-30.181-5.784-7.01-13.398-11.523-22.62-13.41h.01zm27.071 42.785c-2.553 18.67-13.11 30.825-30.912 36.304-11.673 3.603-22.955 1.9-32.96-5.444-6.498-4.766-10.89-11.073-12.788-19.062-1.3-5.513-1.725-11.05-.656-16.61 2.024-10.555 7.464-19.107 15.928-25.634 8.039-6.204 17.181-9.3 27.417-8.76 1.748.093 3.473.403 5.428.634 13.455 3.165 22.862 11.084 27.221 24.598 1.46 4.524 1.966 9.243 1.322 13.962v.012z" fill="#58393E"/><path d="M72.191 56.237c-2.771.392-4.611 1.393-5.807 3.177-1.311 1.945-.886 4.409.989 5.721.701.495 1.53.863 2.323 1.209.356.16.713.322 1.07.495 1.034.08 1.655 0 1.954-.277.161-.138.242-.345.253-.656.127-2.9.161-5.836.173-8.829 0-.299-.092-.54-.253-.69-.161-.15-.414-.196-.702-.161v.011zm6.979 29.64a9.928 9.928 0 002.209-1.116c1.978-1.347 3.967-2.947 4.611-6.435.368-1.807-.31-3.05-2.173-4.028-.966-.507-2.082-.898-3.232-1.151a3.938 3.938 0 00-.805-.104c-.241 0-.414.046-.54.138-.242.173-.38.599-.437 1.37l-.161 1.91c-.115 1.382-.23 2.763-.322 4.145l-.058.805c-.092 1.209-.184 2.452-.184 3.672 0 .46.08.748.242.863.15.104.448.081.862-.069h-.011z" fill="#FEBA55"/><path d="M85.3 33.608c-1.955-.23-3.68-.541-5.428-.633-10.235-.541-19.378 2.566-27.416 8.76-8.465 6.526-13.893 15.078-15.928 25.633-1.07 5.56-.644 11.085.655 16.61 1.886 7.989 6.291 14.296 12.789 19.062 10.005 7.344 21.287 9.047 32.96 5.444 17.802-5.49 28.348-17.634 30.912-36.304.644-4.708.138-9.428-1.322-13.963C108.163 44.704 98.756 36.785 85.3 33.62v-.011zM59.62 79.465c.368-.276.874-.288 1.392-.058 1.104.507 2.22 1.163 3.415 2.015.771.54 1.518 1.14 2.243 1.715.69.552 1.403 1.116 2.128 1.634 1.276.91 2.024 1.244 2.426 1.06.403-.185.656-.956.817-2.521.31-3.016.517-6.078.724-9.198.104-1.68.058-1.75-1.748-2.163l-.31-.07c-1.23-.287-2.496-.575-3.68-1.07-5.348-2.199-7.59-7.47-5.44-12.811.931-2.314 2.76-4.04 5.739-5.422 1.414-.656 3.001-1.047 4.358-1.335l.184-.046c1.235-.269 1.982-1.082 2.243-2.44l.069-.357c.103-.518.195-1.06.333-1.577.127-.495.253-.99.54-1.37.771-1.059 1.61-1.496 2.588-1.335.978.16 1.645.91 1.817 2.049.173 1.105.242 2.313.219 3.568-.023 1.255.425 1.888 1.633 2.337 2.622.967 4.738 2.36 6.29 4.155a9.06 9.06 0 011.772 3.12c.195.586.103 1.139-.242 1.507-.38.392-1.012.518-1.679.334-.575-.161-1.104-.472-1.61-.783l-.195-.115c-.576-.345-1.15-.702-1.725-1.059-1.024-.633-2.07-1.289-3.152-1.853-.563-.3-.943-.391-1.115-.288-.184.104-.288.484-.31 1.128-.116 2.521-.196 5.03-.23 7.46-.024 1.53.022 1.588 1.586 1.91l1.173.242.322.069.115-.3.265.116c.506.207 1.023.391 1.541.587 1.138.414 2.3.828 3.347 1.462 4.324 2.612 5.67 6.963 3.898 12.558-.552 1.738-1.46 3.234-2.714 4.443-2.197 2.118-5.233 4.662-9.28 5.57-1.404.312-2.06.99-2.29 2.338-.149.92-.413 1.703-.781 2.313-.483.806-1.22 1.278-2.001 1.278h-.104c-.816-.046-1.53-.576-1.943-1.462-.345-.748-.564-1.646-.667-2.74-.104-1.128-.552-1.738-1.53-2.094-4.773-1.762-7.774-5.618-10.224-9.105-.356-.507-.598-1.197-.69-1.957-.08-.599.104-1.094.483-1.382v-.057z" fill="#FEBA55"/><path d="M59.84 82.805c2.438 3.487 5.44 7.343 10.223 9.105.99.356 1.426.966 1.53 2.095.103 1.105.322 2.002.667 2.74.414.885 1.127 1.415 1.944 1.46h.103c.782 0 1.518-.471 2.001-1.277.368-.61.633-1.392.782-2.313.219-1.347.886-2.026 2.289-2.337 4.036-.91 7.084-3.453 9.28-5.571 1.254-1.209 2.162-2.694 2.714-4.443 1.771-5.594.426-9.945-3.898-12.558-1.047-.633-2.208-1.06-3.347-1.462a35.43 35.43 0 01-1.54-.587l-.265-.115-.115.299-.322-.07c-.391-.08-.782-.149-1.173-.24-1.564-.335-1.61-.392-1.587-1.912.034-2.428.115-4.938.23-7.459.034-.644.138-1.024.31-1.128.184-.103.552 0 1.116.288 1.07.564 2.127 1.22 3.15 1.853.576.357 1.14.714 1.726 1.06l.195.114c.506.311 1.035.622 1.61.783.667.184 1.3.07 1.68-.334.344-.368.436-.909.24-1.508a9.253 9.253 0 00-1.77-3.119c-1.553-1.784-3.669-3.188-6.29-4.155-1.22-.45-1.657-1.082-1.634-2.337a20.876 20.876 0 00-.218-3.568c-.173-1.14-.84-1.888-1.817-2.05-.966-.16-1.817.277-2.588 1.336-.276.38-.403.875-.54 1.37-.138.53-.242 1.059-.334 1.577l-.069.357c-.26 1.358-1.008 2.171-2.243 2.44l-.184.046c-1.357.3-2.944.68-4.358 1.335-2.979 1.381-4.807 3.096-5.739 5.422-2.15 5.34.08 10.601 5.44 12.811 1.184.484 2.45.783 3.68 1.07l.31.07c1.806.425 1.864.483 1.749 2.164-.208 3.119-.415 6.18-.725 9.197-.161 1.565-.414 2.336-.817 2.52-.402.185-1.15-.15-2.426-1.058a49.529 49.529 0 01-2.128-1.635c-.724-.576-1.472-1.174-2.242-1.715-1.196-.852-2.323-1.508-3.416-2.014-.517-.242-1.023-.22-1.391.057-.38.276-.552.783-.483 1.381.092.76.345 1.45.69 1.957v.058zm13.133-16.886c-.011.299-.092.506-.253.656-.299.264-.92.356-1.955.276a44.356 44.356 0 00-1.07-.495c-.793-.357-1.621-.725-2.323-1.209-1.874-1.312-2.3-3.764-.989-5.72 1.196-1.785 3.048-2.797 5.808-3.177.287-.046.54.011.701.16.173.15.254.38.254.691-.023 3.005-.046 5.94-.173 8.83v-.012zm5.095 19.165c0-1.22.092-2.463.184-3.672l.057-.806c.104-1.381.219-2.762.322-4.144l.161-1.91c.058-.772.196-1.186.437-1.37.127-.092.3-.138.54-.138.22 0 .484.034.806.103 1.15.253 2.277.656 3.231 1.151 1.863.979 2.542 2.21 2.174 4.029-.644 3.488-2.634 5.1-4.612 6.446a9.93 9.93 0 01-2.208 1.117c-.414.15-.713.172-.862.069-.15-.104-.242-.403-.242-.864l.012-.011z" fill="#58393E"/></g><defs><clipPath id="clip0_1259_10668"><path fill="#fff" transform="translate(15 9.309)" d="M0 0h110v121H0z"/></clipPath></defs></svg>