<svg width="140" height="141" viewBox="0 0 140 141" fill="none" xmlns="http://www.w3.org/2000/svg"><path d="M58.781 84.492l1.91.088.066-1.46-1.965-.099-.01 1.471zm-.086 3.14l1.712.033.165-1.603-1.81-.087-.067 1.657zm3.7.118l1.755.078.077-1.658-1.657-.022-.175 1.603zm-7.035-3.368l1.459.011.011-1.404-1.46-.022-.01 1.415zm6.452 11.765l.209-1.25-5.916-.319.044 1.361 5.663.208zm-6.496-8.616l1.405.066.088-1.712-1.47-.022-.023 1.668z" fill="#F25252"/><path d="M56.63 68.656c-3.929 1.745-18.196 8.78-24.583 21.016 5.246 12.753 18.821 21.05 22.564 23.157 3.928-1.745 18.195-8.78 24.582-21.005-5.245-12.753-18.82-21.05-22.563-23.157v-.01zm8.428 33.67a1.647 1.647 0 01-.768.263l-11.49-.669a1.36 1.36 0 01-.692-.329c-.186-.242-.263-.549-.208-.911l.274-.494a4.525 4.525 0 011.646-.23c.593.022 1.186.054 1.79.076a1.735 1.735 0 01-.154-1.009l.274-.494c.241-.187.549-.264.922-.209l.494.275c.285.483.471 1.01.581 1.591l2.535.22a14.06 14.06 0 01.68-1.58c.242-.187.55-.264.923-.209l.493.274c.22.307.286.67.209 1.065l-.175.592 2.26.099.494.274c.187.242.263.549.209.911l-.275.494h-.022zm-10.93-8.746c.01-.626.153-.944.439-.977.274-.033 3.193.099 8.746.384.637.077.933.318.9.735-.033.406-.153 1.152-.351 2.217-.198 1.064-.318 1.712-.34 1.942-.022.231-.198.363-.527.417-.318.055-2.875-.076-7.671-.395-.691.033-1.054-.13-1.087-.515-.032-.385-.066-1.647-.098-3.798l-.011-.01zm11.04-1.515a1.652 1.652 0 01-.768.263L53.908 91.9a1.355 1.355 0 01-.691-.329c-.077-.088-.11-.208-.154-.318v.153l-.252.505c-.198.154-.428.23-.68.22l-.231-.033-2.612-1.723-.34 10.897-.253.483a1.016 1.016 0 01-.713.231h-.12l-.45-.296c-.198-.341-.297-.725-.308-1.175l.384-10.645c-1.405 1.657-2.294 2.788-2.678 3.37l-.636.592-.549.022-.439-.275a1.512 1.512 0 01-.197-.812v-.153c.889-1.273 2.985-3.754 6.31-7.441h-4.774l-.527-.34a1.376 1.376 0 01-.186-.801c0-.1.087-.33.252-.692a4.771 4.771 0 011.931-.263l.857.044c.482.022.943.033 1.415.044-.856-1.416-1.372-2.272-1.558-2.557l-.022-.593.252-.505c.22-.154.461-.23.747-.22h.12l.505.33 1.02 1.47c.407.516.626 1.109.66 1.778l-.121.363 1.964.087c.494.11.724.373.702.801 0 .132-.033.286-.098.461l-3.018 3.435c.614.505 1.25.955 1.898 1.34a7.004 7.004 0 011.701 1.426v-.12l.275-.495c.274-.22.614-.329 1.02-.307l10.437.527.494.274c.186.242.263.549.208.911l-.274.494h-.011zm.91-3.391c.045.603-.284.867-.998.79l-10.491-.505c-.725.033-1.13-.153-1.208-.57-.087-.417-.098-2.459-.054-6.113.087-.483.274-.747.57-.79.285-.044 1.284-.033 2.996.043a2.678 2.678 0 01.428-1.69c.242-.186.549-.263.922-.208l.494.274c.22.319.285.68.197 1.12l-.076.548 1.964.088c-.044-.57.088-1.075.395-1.492.242-.187.549-.264.922-.209l.494.275c.252.45.307.954.186 1.514 1.46.055 2.415.066 2.865.055.45-.011.67.241.68.779 0 .527-.088 2.568-.274 6.102l-.011-.011z" fill="#F25252"/><path d="M91.63 87.685L90.247 51.02l-43.525-4.17-20.83-1.997-5.497 85.743 73.09 6.267-1.855-49.188v.011zm-36.633 27.371a1.111 1.111 0 01-.955-.044c-3.062-1.658-18.59-10.668-24.21-24.99a1.092 1.092 0 01.044-.888C36.78 75.36 53.067 67.81 56.26 66.438c.307-.131.659-.12.955.044 4.291 2.338 18.734 11.03 24.21 25 .11.286.099.615-.044.89-6.914 13.772-23.19 21.323-26.383 22.694v-.01z" fill="#F25252"/><path d="M62.68 84.669l1.569.065.011-1.46-1.515-.065-.065 1.46z" fill="#F25252"/><path d="M103.581 41.954l.285-.131 1.186-.582-1.603-.132c.044.286.088.571.132.845zM91.53 47.826l7.07-3.446a92.8 92.8 0 00-.396-3.688L42.705 36.27l-2.831 1.327a55.927 55.927 0 00-.362 5.224l52.04 4.994-.021.01zm-61.014-5.85l2.579.253c.055-.516.098-1.032.164-1.526l-2.743 1.284v-.01z" fill="#B73434"/><path d="M93.518 50.515l3.16 83.812 10.47-12.51-5.18-55.224a1.64 1.64 0 011.482-1.79 1.646 1.646 0 011.789 1.483l5.037 53.764 9.427-3.545-9.855-73.946-16.352 7.956h.022z" fill="#F25252"/><path d="M112.833 39.859s-.011-.033-.011-.055v-.033c0-.022-.022-.044-.022-.077a2.032 2.032 0 00-.132-.362c-.022-.044-.044-.077-.066-.12a1.8 1.8 0 00-.285-.363 2.175 2.175 0 00-.318-.23c-.022-.011-.055-.022-.077-.033-.044-.022-.088-.033-.121-.044a1.448 1.448 0 00-.362-.088c-.022 0-.055-.022-.077-.022l-8.472-.67c-2.184-11.27-7.222-27.293-18.624-33.01-4.148-2.086-18.712-8.308-31.958-.944-9.668 5.377-15.869 16.472-18.47 33l-10.13 4.741s-.021.01-.032.022a1.39 1.39 0 00-.34.22c-.022.01-.034.032-.044.043l-.066.066c-.1.11-.198.22-.264.351 0 .011-.01.022-.022.033-.066.143-.12.286-.142.44a.322.322 0 01-.022.098c0 .033-.011.066-.022.11L17.004 132a1.654 1.654 0 001.503 1.745l76.558 6.563h.142c.198 0 .385-.044.56-.11a.203.203 0 00.077-.022c.165-.066.318-.165.461-.296.01-.011.033-.022.044-.033.022-.022.044-.055.066-.077.022-.022.044-.033.066-.066l13.377-15.99 12.27-4.609a1.659 1.659 0 001.054-1.756l-10.338-77.502-.011.01zm-72.41-6.146c1.8-10.272 7.034-24.583 22.146-27.03 8.824-1.427 16.66.45 22.64 5.421 6.278 5.224 10.503 13.84 12.479 25.253l-55.17-4.39a1.624 1.624 0 00-.822.154l-1.273.592zm-.56 3.896l2.831-1.328 55.499 4.423c.153 1.207.296 2.425.395 3.687l-7.068 3.446-52.041-4.993c.033-1.207.12-3.029.362-5.224l.022-.01zm64.003 4.214l-.285.132c-.044-.274-.088-.56-.132-.845l1.603.132-1.186.581zm-70.774.395l-2.58-.252 2.744-1.284-.164 1.525v.011zm-7.2 2.623l20.83 1.998 43.525 4.17 1.383 36.666 1.855 49.188-73.09-6.267 5.497-85.766v.011zm84.405 75.209l-5.037-53.764a1.645 1.645 0 00-1.789-1.482 1.638 1.638 0 00-1.481 1.789l5.18 55.224-10.47 12.51-3.16-83.812 16.351-7.956 9.856 73.946-9.428 3.545h-.022z" fill="#58393E"/><path d="M81.423 91.46c-5.487-13.97-19.919-22.662-24.21-25a1.082 1.082 0 00-.955-.044c-3.193 1.372-19.48 8.923-26.383 22.696a1.093 1.093 0 00-.043.889c5.63 14.332 21.158 23.331 24.21 24.988a1.1 1.1 0 00.954.044c3.194-1.371 19.48-8.922 26.383-22.695a1.09 1.09 0 00.044-.889v.011zm-26.81 21.357c-3.754-2.097-17.319-10.404-22.565-23.157 6.388-12.236 20.654-19.26 24.583-21.016C60.385 70.751 73.95 79.048 79.195 91.8c-6.387 12.237-20.654 19.261-24.583 21.006v.011z" fill="#fff"/><path d="M64.741 90.386l-10.437-.527c-.406-.022-.746.088-1.02.308l-.275.493v.121a7.007 7.007 0 00-1.7-1.427 14.232 14.232 0 01-1.9-1.338l3.019-3.436c.055-.175.087-.329.098-.46.022-.428-.22-.692-.702-.802l-1.964-.087.12-.362a3.02 3.02 0 00-.658-1.778l-1.02-1.471-.506-.33h-.12a1.123 1.123 0 00-.747.21l-.252.504.022.593c.187.285.713 1.141 1.558 2.557-.46 0-.933-.022-1.415-.044l-.856-.044a4.77 4.77 0 00-1.932.263c-.165.363-.252.593-.252.692a1.47 1.47 0 00.186.801l.527.34h4.774c-3.314 3.688-5.422 6.168-6.3 7.44v.154c-.01.297.055.571.198.813l.439.274.549-.022.636-.593c.384-.592 1.273-1.712 2.678-3.369l-.384 10.646c.01.449.12.834.307 1.174l.45.285h.12a.927.927 0 00.714-.23l.253-.483.34-10.898 2.612 1.723.23.033a1.01 1.01 0 00.68-.22l.264-.504v-.154c.033.11.066.22.143.318.197.176.428.286.691.33l10.492.428c.274-.022.527-.11.768-.264l.274-.494c.055-.362-.022-.67-.208-.91l-.494-.275v.022z" fill="#fff"/><path d="M65.675 81.804c-.45.01-1.404 0-2.864-.055.132-.56.066-1.076-.187-1.515l-.493-.274c-.374-.044-.67.022-.922.208-.308.428-.44.922-.395 1.493l-1.965-.088.077-.549c.088-.428.022-.8-.198-1.119l-.493-.274c-.373-.055-.67.022-.922.208-.33.494-.472 1.054-.428 1.69-1.712-.077-2.71-.088-2.996-.044-.286.044-.472.308-.571.79-.044 3.666-.033 5.707.055 6.113.077.417.483.604 1.207.571l10.492.505c.702.088 1.031-.176.998-.79.198-3.534.286-5.575.275-6.102 0-.527-.242-.79-.68-.78l.01.012zm-8.955 5.794l-1.405-.066.022-1.657h1.46l-.077 1.723zm.099-3.204h-1.46l.011-1.427h1.46l-.011 1.427zm3.589 3.27l-1.712-.033.076-1.657 1.811.088-.175 1.602zm.285-3.084l-1.91-.088v-1.46l1.976.089-.066 1.46zm3.457 3.249l-1.756-.077.176-1.602 1.668.021-.077 1.658h-.011zm.099-3.095l-1.559-.066.066-1.46 1.515.066v1.46h-.022zm.384 15.901l-2.26-.099.175-.592c.088-.396.022-.758-.209-1.065l-.493-.274c-.363-.055-.67.022-.922.208a16.384 16.384 0 00-.68 1.581l-2.536-.22a5.105 5.105 0 00-.582-1.59l-.493-.276c-.373-.055-.67.022-.922.21l-.275.493c-.044.33 0 .67.154 1.009-.604-.022-1.196-.054-1.789-.076s-1.141.043-1.646.23l-.274.494c-.055.362.022.669.208.911.198.175.428.285.692.329l11.49.669c.274-.021.527-.109.768-.263l.274-.494c.055-.362-.022-.669-.208-.911l-.494-.274h.022zm-9.304-2.743c4.796.318 7.353.45 7.671.395.318-.055.494-.187.527-.417.022-.231.143-.867.34-1.943.198-1.064.318-1.811.351-2.217.033-.406-.263-.658-.9-.735-5.553-.285-8.46-.417-8.746-.384-.275.033-.428.351-.44.977.034 2.151.078 3.424.1 3.797.032.384.395.549 1.086.516l.011.011zm6.694-2.996l-.208 1.251-5.663-.209-.044-1.361 5.915.319z" fill="#fff"/></svg>