<svg xmlns="http://www.w3.org/2000/svg" width="444" height="76"><path fill-rule="evenodd" fill="#005BAC" d="M247.524 30.813h7.499c1.667 0 2.5-.833 2.5-2.5 0-1.666-.833-2.499-2.5-2.499h-3.991c-1.237 0-2.85.107-4.839.322 6.613-6.478 9.919-11.988 9.919-16.531 0-2.768-.861-4.993-2.581-6.673-1.72-1.68-3.991-2.52-6.814-2.52-2.93 0-5.51.954-7.741 2.863-1.156 1.102-1.21 2.177-.161 3.225 1.102 1.103 2.258 1.089 3.467-.04 1.236-.914 2.46-1.371 3.669-1.371 1.398 0 2.493.43 3.286 1.29.793.861 1.19 2.043 1.19 3.549 0 2.043-.995 4.421-2.984 7.136-1.774 2.446-4.543 5.39-8.306 8.83-1.075.968-1.613 1.963-1.613 2.984v.121c0 .538.168.974.504 1.31.336.337.773.504 1.311.504h8.185z"/><path fill-rule="evenodd" fill="#3E3E3E" d="M322.174 14.013l-2.464 9.834-2.554 10.147c-.149.597-.53.896-1.142.896-.836 0-1.157-.411-.963-1.232l5.017-19.981c.15-.597.53-.896 1.143-.896.836 0 1.157.411.963 1.232zm-20.63 6.675a6.719 6.719 0 00-.359-.38 6.227 6.227 0 01-.358-.381c-.359.448-.717.844-1.075 1.187-.344.254-.687.347-1.031.28-.343-.067-.642-.302-.896-.706a4.07 4.07 0 00-.358-.358v.963c0 .598-.314.896-.941.896-.582 0-.874-.276-.874-.829v-.044c-1.12.179-2.172.336-3.158.47-.568.09-.904-.157-1.008-.739-.134-.642.142-1 .829-1.075h.045v-5.556h-.045a.552.552 0 01-.459-.212.823.823 0 01-.168-.527c0-.313.074-.567.224-.761a.808.808 0 01.672-.314h5.219c.298 0 .448.15.448.448v.067h3.36c.463 0 .81.15 1.041.448.232.299.31.725.236 1.277-.21 1.195-.538 2.285-.986 3.27l.067.068c.538.508.919.881 1.143 1.12.224.239.321.463.291.672-.03.209-.165.433-.403.672-.523.537-1.008.552-1.456.044zm-5.892-5.958c0-.209-.104-.314-.313-.314h-.605c-.358 0-.538.18-.538.538v.246h1.456v-.47zm0 1.882h-1.456v.828h1.456v-.828zm0 2.24h-1.456v.918l1.456-.179v-.739zm4.727-3.808h-1.77c-.373 0-.56-.187-.56-.56v-.068h-.582v5.332c0 .358.149.448.448.268.507-.373.993-.865 1.456-1.478a60.155 60.155 0 01-1.165-1.075c-.463-.418-.448-.859.045-1.322.418-.388.843-.41 1.277-.067.358.299.634.523.828.672.209-.507.351-.896.426-1.165.09-.358-.045-.537-.403-.537zm-10.035-.314h-1.277v1.389h.941c.642 0 .963.321.963.963 0 .657-.321.986-.963.986h-.941v1.366h1.008c.642 0 .963.321.963.963 0 .658-.321.986-.963.986h-1.008v1.433h1.344c.791 0 1.179.523 1.165 1.568a74.921 74.921 0 01-.068 2.039c0 .254.172.299.516.134.716-.343 1.261-.634 1.635-.873.209-.149.474-.247.795-.292.321-.044.616-.014.885.09l.851.314v-1.277c-.777.075-1.613.164-2.509.269-.567.044-.941-.187-1.12-.695-.239-.701.052-1.097.874-1.187 2.733-.314 4.965-.694 6.697-1.142.254-.075.478-.075.672 0 .15.06.336.194.56.403.404.403.583.724.538.963-.045.239-.336.426-.874.56-.985.224-1.807.389-2.464.493v.717c.165.418.418.918.762 1.5.747-.597 1.292-1.06 1.635-1.388.448-.418.919-.441 1.411-.068.642.479.635.979-.022 1.501-.582.448-1.247.911-1.994 1.389a9.848 9.848 0 001.927 1.859c.478.284.761.568.851.851.09.299-.03.65-.358 1.053-.269.314-.531.478-.784.493-.254.015-.56-.105-.919-.358-.956-.777-1.792-1.74-2.509-2.89v2.71c0 .792-.395 1.188-1.187 1.188-.791 0-1.187-.396-1.187-1.188v-1.948a18.091 18.091 0 01-2.531 2.06c-.299.194-.62.269-.963.224a1.37 1.37 0 01-.874-.47 12.567 12.567 0 00-.605-.56c-.089.523-.216.896-.381 1.12a1.807 1.807 0 01-1.254.762 9.09 9.09 0 01-.918.089c-.643 0-1.016-.284-1.12-.851 0-.045-.008-.112-.023-.202l-.022-.044c-.09-.269-.071-.478.056-.628.127-.149.347-.216.661-.201h.268c.254 0 .441-.09.56-.269.135-.194.247-.874.336-2.038l-.38.134c-.15.075-.239.038-.269-.112-.12-.672-.344-1.396-.672-2.173-.165-.343-.06-.574.313-.694.299-.09.508 0 .628.269.104.209.238.523.403.94.015.075.03.128.045.157.014-.224.029-.597.044-1.12.015-.238.023-.425.023-.56.015-.403-.157-.605-.515-.605h-3.92c-.434 0-.784-.134-1.053-.403-.269-.269-.403-.619-.403-1.053v-9.273c0-.433.134-.784.403-1.053.269-.269.619-.403 1.053-.403h5.264c.686 0 1.03.344 1.03 1.03 0 .702-.344 1.053-1.03 1.053zm2.889 14.672c.344-.254.657-.5.941-.739.194-.194.44-.317.739-.37.299-.052.59-.026.874.079l.403.156v-2.419c-.642.598-1.419 1.18-2.33 1.747-.328.18-.668.243-1.019.191a1.482 1.482 0 01-.907-.504 7.347 7.347 0 00-.426-.403c-.074 1.643-.156 2.792-.246 3.449a14.618 14.618 0 001.971-1.187zm-6.16-13.978v-.694h-.851c-.358 0-.538.179-.538.538v.851h1.389v-.695zm0 2.644h-1.389v1.366h1.389v-1.366zm0 4.032v-.717h-1.389v.896c0 .358.18.537.538.537h.851V22.1zm-2.8 3.875c.448.089.657.351.627.784a26.734 26.734 0 01-.246 2.329c-.12.747-.291 1.375-.515 1.882-.209.373-.523.448-.941.224-.463-.254-.597-.567-.403-.941.358-.866.575-2.045.649-3.539.03-.582.306-.829.829-.739zm-4.861-5.287h-7.347v4.256c0 .628-.075 1.106-.224 1.434-.164.358-.455.627-.873.806-.478.195-1.21.307-2.196.336-.911.031-1.478-.291-1.702-.963-.329-.941.142-1.396 1.411-1.366.105 0 .239-.007.403-.023h.157c.164 0 .276-.014.336-.044s.09-.105.09-.224v-4.212h-7.482c-.836 0-1.254-.425-1.254-1.276 0-.836.418-1.255 1.254-1.255h1.77V14.64c0-.896.448-1.344 1.344-1.344.896 0 1.344.448 1.344 1.344v3.517h3.001v-4.973c0-.88.448-1.321 1.344-1.321.881 0 1.322.441 1.322 1.321v.807h5.04c.821 0 1.232.411 1.232 1.232s-.411 1.232-1.232 1.232h-5.04v1.702h7.302c.837 0 1.255.419 1.255 1.255 0 .851-.418 1.276-1.255 1.276zm-45.996-2.867h-5.51c.179 2.166.47 4.211.873 6.138a23.603 23.603 0 001.703-3.674c.283-.866.851-1.194 1.702-.985.911.224 1.202.814.874 1.769-.881 2.33-1.986 4.413-3.315 6.25.657 1.702 1.344 2.553 2.06 2.553.269 0 .471-.305.605-.918.075-.791.247-1.389.515-1.792.329-.507.74-.59 1.232-.246.269.179.441.552.516 1.12a5.12 5.12 0 010 1.344c-.239 1.224-.605 2.075-1.098 2.553-.448.433-1.113.65-1.994.65-1.463 0-2.71-.986-3.74-2.957a17.844 17.844 0 01-2.599 2.262c-.791.523-1.463.456-2.016-.201-.373-.433-.515-.822-.425-1.165.074-.328.365-.65.873-.963a18.757 18.757 0 003.024-2.711c-.687-2.299-1.195-5.308-1.523-9.027h-5.891c-.359 0-.538.179-.538.538v1.859h4.01c.478 0 .829.179 1.053.538.253.433.373 1.135.358 2.105-.06 1.882-.134 3.234-.224 4.055-.105.836-.254 1.388-.448 1.657-.358.478-.874.777-1.546.896a8.407 8.407 0 01-1.164.067c-.926 0-1.486-.336-1.68-1.008-.165-.552-.12-.933.134-1.142.224-.194.65-.276 1.277-.246h.067c.299 0 .523-.09.672-.269.164-.239.276-1.314.336-3.226.015-.388-.022-.657-.112-.806-.075-.119-.209-.179-.403-.179h-2.33c-.089 3.763-.627 6.757-1.613 8.982-.268.493-.556.773-.862.84-.306.067-.668-.071-1.086-.414-.389-.299-.605-.628-.65-.986-.045-.328.045-.724.269-1.187.776-1.882 1.165-4.607 1.165-8.176v-5.085c0-.433.134-.784.403-1.053.269-.269.619-.403 1.053-.403h7.593l-.067-1.926c-.03-.926.426-1.389 1.366-1.389.926 0 1.389.47 1.389 1.411 0 .433.015 1.068.045 1.904h3.382c-.418-.358-1.008-.776-1.769-1.254-.702-.463-.739-1.008-.112-1.636.448-.448.926-.522 1.433-.224.762.448 1.359.837 1.792 1.165.299.224.452.512.46.863.007.351-.139.683-.437.996l-.067.09h.985c.881 0 1.322.441 1.322 1.322s-.441 1.321-1.322 1.321zm-22.153 14.135c-.419.313-1.046.47-1.882.47h-2.845c-1.269 0-2.128-.224-2.576-.672-.418-.448-.627-1.284-.627-2.509v-4.547h-2.867c-.224 1.897-.672 3.375-1.344 4.435-.837 1.315-2.188 2.337-4.055 3.069-.492.164-.948.231-1.366.202-.523-.03-.889-.217-1.098-.56-.313-.493-.246-.964.202-1.412.358-.358.896-.649 1.613-.873 1.105-.508 1.896-1.187 2.374-2.039.388-.672.65-1.612.784-2.822h-4.009c-.837 0-1.255-.418-1.255-1.254 0-.836.418-1.255 1.255-1.255h17.27c.836 0 1.254.419 1.254 1.255 0 .836-.418 1.254-1.254 1.254h-4.838V29.2c0 .359.056.583.168.672.112.09.369.135.772.135h2.196c.298 0 .492-.082.582-.247.09-.672.269-1.179.538-1.523.328-.418.746-.522 1.254-.313.314.134.523.448.627.94.09.404.105.837.045 1.3-.179.851-.485 1.448-.918 1.792zm-9.14-13.799h4.503c.806 0 1.209.403 1.209 1.21 0 .806-.403 1.209-1.209 1.209h-8.983c-.806 0-1.209-.403-1.209-1.209 0-.807.403-1.21 1.209-1.21h4.48zm8.132 1.143c-.941 0-1.412-.471-1.412-1.412V16.5h-12.902c-.358 0-.538.179-.538.537v.919c0 .896-.448 1.344-1.344 1.344-.896 0-1.344-.448-1.344-1.344v-2.487c0-.433.135-.784.404-1.053.268-.268.619-.403 1.052-.403h6.564v-.761c0-.926.462-1.389 1.388-1.389.926 0 1.389.463 1.389 1.389v.761h6.698c.433 0 .784.135 1.053.403.268.269.403.62.403 1.053v2.419c0 .941-.471 1.412-1.411 1.412zm-21.706 10.617h-7.504v1.501c0 .896-.448 1.344-1.344 1.344-.896 0-1.344-.448-1.344-1.344v-1.501h-7.302c-.762 0-1.143-.381-1.143-1.142 0-.762.381-1.143 1.143-1.143h7.302v-1.164h-4.861c-.433 0-.784-.135-1.053-.404-.268-.268-.403-.619-.403-1.052v-5.488c0-.433.135-.784.403-1.053.269-.269.62-.403 1.053-.403h12.791c.433 0 .784.134 1.052.403.269.269.404.62.404 1.053v5.488c0 .433-.135.784-.404 1.052-.268.269-.619.404-1.052.404h-5.242v1.164h7.504c.762 0 1.142.381 1.142 1.143 0 .761-.38 1.142-1.142 1.142zm-10.192-9.789h-3.226c-.358 0-.537.18-.537.538v.65h3.763v-1.188zm0 3.092h-3.763v.672c0 .358.179.537.537.537h3.226V23.22zm6.698-2.576c0-.344-.172-.516-.516-.516h-3.494v1.188h4.01v-.672zm-2.016 3.785h1.478c.358 0 .538-.179.538-.537v-.672h-4.01v1.209h1.994zm3.964-7.235h-5.04c-.433 0-.784-.134-1.052-.403-.269-.269-.404-.62-.404-1.053V14.17c0-.433.135-.784.404-1.053.268-.269.619-.403 1.052-.403h5.04c.433 0 .784.134 1.053.403.269.269.403.62.403 1.053v1.568c0 .433-.134.784-.403 1.053-.269.269-.62.403-1.053.403zm-1.008-2.352c0-.358-.179-.538-.537-.538h-2.083c-.359 0-.538.18-.538.538v.224c0 .358.179.538.538.538h2.083c.358 0 .537-.18.537-.538v-.224zm-8.31 2.352h-4.995c-.433 0-.784-.134-1.053-.403-.269-.269-.403-.62-.403-1.053V14.17c0-.433.134-.784.403-1.053.269-.269.62-.403 1.053-.403h4.995c.433 0 .784.134 1.053.403.269.269.403.62.403 1.053v1.568c0 .433-.134.784-.403 1.053-.269.269-.62.403-1.053.403zm-1.008-2.352c0-.358-.179-.538-.538-.538h-2.016c-.358 0-.537.18-.537.538v.224c0 .358.179.538.537.538h2.016c.359 0 .538-.18.538-.538v-.224zm-10.237.582h-2.643c.119.15.209.269.269.359.239.388.31.702.213.941-.098.239-.363.418-.796.537-.746.21-1.276 0-1.59-.627a13.41 13.41 0 00-.829-1.21h-1.142c-.314.419-.642.815-.986 1.188-.239.239-.552.358-.941.358-.343 0-.687-.097-1.03-.291-.314-.164-.508-.359-.582-.583-.09-.224 0-.448.268-.672h-2.934c.075.105.142.217.202.336.358.747.134 1.232-.672 1.456-.747.195-1.255-.044-1.524-.716a9.307 9.307 0 00-.56-1.076h-.246c-.329.464-.68.904-1.053 1.322-.269.299-.534.467-.795.504-.261.038-.556-.056-.885-.28-.448-.298-.676-.601-.683-.907-.008-.306.19-.646.594-1.019a12.365 12.365 0 001.612-2.308c.329-.716.911-.963 1.748-.739.806.224 1.037.695.694 1.411h3.942c.299 0 .538.09.717.269.179.179.269.419.269.717v.067c0 .344.119.389.358.135.553-.642.978-1.269 1.277-1.882.329-.702.915-.955 1.759-.762.843.195 1.086.68.728 1.456h5.241c.672 0 1.008.336 1.008 1.008 0 .672-.336 1.008-1.008 1.008zM134.498 34.89c-.613 0-.993-.299-1.143-.896l-5.017-20.003c-.194-.807.119-1.21.941-1.21.612 0 .993.291 1.142.874l2.554 10.192 2.486 9.811c.194.821-.127 1.232-.963 1.232zm15.523-17.226h5.331c.433 0 .784.135 1.053.404.269.268.403.62.403 1.052v3.092c0 .433-.134.784-.403 1.052-.269.269-.62.404-1.053.404h-4.39v7.884c0 .792-.396 1.188-1.187 1.188-.807 0-1.21-.396-1.21-1.188V19.12c0-.432.134-.784.403-1.052.269-.269.62-.404 1.053-.404zm.941 4.48h2.934c.359 0 .538-.179.538-.537v-.224h-3.472v.761zm0-2.195h3.472v-.448c0-.194-.097-.291-.291-.291h-2.644c-.358 0-.537.179-.537.538v.201zm3.696 4.57h5.465c.433 0 .784.134 1.053.403.269.269.403.62.403 1.053v4.457c.478.031 1.09.038 1.837.023h.224c.164 0 .28-.03.347-.09.068-.059.101-.171.101-.336v-6.361h-4.48c-.433 0-.784-.135-1.053-.404-.268-.268-.403-.619-.403-1.052V19.12c0-.432.135-.784.403-1.052.269-.269.62-.404 1.053-.404h5.488c.433 0 .784.135 1.053.404.269.268.403.62.403 1.052v10.954c0 .627-.075 1.112-.224 1.456-.164.343-.44.605-.829.784-.418.224-1.06.358-1.926.403-.553.015-1.001-.097-1.344-.336a1.479 1.479 0 01-.627-.941 2.357 2.357 0 01-.112-.291c-.06-.164-.105-.284-.135-.358h-6.697c-.433 0-.784-.135-1.053-.403-.269-.269-.403-.62-.403-1.053v-3.36c0-.433.134-.784.403-1.053.269-.269.62-.403 1.053-.403zm9.43-5.018c0-.194-.097-.291-.291-.291h-2.733c-.358 0-.537.179-.537.538v.201h3.561v-.448zm0 1.882h-3.561v.448c0 .209.104.313.313.313h3.248v-.761zm-8.512 7.549c0 .268.135.403.403.403h3.271v-.963h-3.674v.56zm0-1.994h3.674V26.4c0-.268-.135-.403-.403-.403h-2.733c-.359 0-.538.179-.538.538v.403zm108.672-4.973c.462-.627 1.067-.821 1.814-.582 1.03.329 1.239.933.627 1.814a14.959 14.959 0 01-1.321 1.546 30.686 30.686 0 01-1.613 1.545c-.344.284-.665.426-.963.426-.299.015-.62-.119-.964-.403-.492-.388-.72-.751-.683-1.087.037-.336.325-.683.863-1.041a15.04 15.04 0 002.24-2.218zm.582 7.93c2.733-.478 4.928-1.232 6.586-2.263 1.762-1.104 3.098-2.635 4.009-4.592.388-.925 1.016-1.246 1.882-.963.448.135.731.381.851.739.119.344.082.747-.112 1.21-1.105 2.374-2.688 4.241-4.749 5.6-2.001 1.314-4.726 2.285-8.176 2.912-.971.164-1.628-.09-1.971-.762-.284-.537-.239-.97.134-1.299.314-.283.829-.477 1.546-.582zm21.482-3.226c.104.807.156 1.859.156 3.159-.015.299-.201.47-.56.515-.418.045-.619-.127-.604-.515v-.448c.014-.418.014-.74 0-.964v-.067a25.704 25.704 0 00-.101-1.557c-.038-.336.127-.526.493-.571.365-.045.571.105.616.448zm1.388-.269c.06.269.15.68.269 1.232a.976.976 0 01.023.18c.104.492.164.926.179 1.299.045.284-.105.463-.448.537-.403.06-.62-.074-.65-.403a19.021 19.021 0 00-.425-2.553c-.12-.373.014-.597.403-.672.343-.075.56.052.649.38z"/><path fill-rule="evenodd" fill="#FFF2B9" d="M125.003 43.001h199.993a.999.999 0 110 1.997H125.003a.998.998 0 010-1.997z"/><path fill-rule="evenodd" fill="#005BAC" d="M429.625 65.112c-.254.333-.517.527-.79.58-.274.053-.597-.027-.97-.24a27.815 27.815 0 01-1.92-1.3v.58c0 .307-.154.46-.46.46h-3.34v1.98h5.08c.68 0 1.02.34 1.02 1.02 0 .68-.34 1.02-1.02 1.02h-5.08v4h2.16l-.7-.3c-.174-.067-.284-.167-.33-.3-.047-.133-.024-.267.07-.4.453-.76.813-1.42 1.08-1.98.173-.36.38-.59.62-.69.24-.1.54-.083.9.05.813.307.946.86.4 1.66-.587.88-1.054 1.533-1.4 1.96h3.46c.68 0 1.02.34 1.02 1.02 0 .68-.34 1.02-1.02 1.02h-14.72c-.68 0-1.02-.34-1.02-1.02 0-.68.34-1.02 1.02-1.02h2.84c-.2-.6-.48-1.24-.84-1.92-.254-.4-.327-.77-.22-1.11.106-.34.36-.597.76-.77l.46-.2h-2c-.68 0-1.02-.34-1.02-1.02 0-.68.34-1.02 1.02-1.02h5v-1.98h-2.72c-.28 0-.504-.083-.67-.25-.167-.167-.25-.39-.25-.67v-.06a30.06 30.06 0 01-1.92 1.28c-.36.2-.674.28-.94.24-.28-.04-.534-.213-.76-.52-.534-.72-.347-1.32.56-1.8a22.125 22.125 0 003.58-2.72c1.066-.987 1.953-1.987 2.66-3 .12-.16.296-.3.53-.42.233-.12.476-.18.73-.18h.74c.546 0 .986.22 1.32.66a20.622 20.622 0 006.54 5.5c.506.227.803.483.89.77.086.287-.03.65-.35 1.09zm-12.82 4.1c.48.627.946 1.393 1.4 2.3.12.28.116.56-.01.84-.127.28-.357.493-.69.64l-.5.22h2.68v-4h-2.88zm7.38-6.44c-1.347-1.133-2.427-2.253-3.24-3.36-.894 1.253-2.06 2.487-3.5 3.7h6.66c.32 0 .346-.113.08-.34zm-15.36 3.78h-6.96v1.76l.26-.44c.12-.213.28-.28.48-.2 2.013.6 3.76 1.213 5.24 1.84.373.16.58.367.62.62.04.227-.054.533-.28.92-.214.373-.42.607-.62.7-.227.12-.514.093-.86-.08a55.785 55.785 0 00-4.84-1.92v4.8c0 .84-.42 1.26-1.26 1.26-.84 0-1.26-.42-1.26-1.26v-8h-6.06c-.787 0-1.18-.393-1.18-1.18 0-.787.393-1.18 1.18-1.18h6.06v-5.78c0-.84.42-1.26 1.26-1.26.84 0 1.26.42 1.26 1.26v1.16h4.9c.76 0 1.14.38 1.14 1.14 0 .773-.38 1.16-1.14 1.16h-4.9v2.32h6.96c.786 0 1.18.393 1.18 1.18 0 .787-.394 1.18-1.18 1.18zm-20.16 8.78c-.44.24-1.107.38-2 .42-.934.026-1.5-.294-1.7-.96-.28-.933.193-1.387 1.42-1.36h.56c.16-.013.273-.047.34-.1.066-.053.1-.16.1-.32v-14.36c0-.747.38-1.12 1.14-1.12.746 0 1.12.373 1.12 1.12v14.36c0 .64-.074 1.14-.22 1.5-.147.36-.4.633-.76.82zm-4.04-4.66c-.734 0-1.1-.367-1.1-1.1v-9.38c0-.733.366-1.1 1.1-1.1.733 0 1.1.367 1.1 1.1v9.38c0 .733-.367 1.1-1.1 1.1zm-2.6 2.62c-.174.147-.434.253-.78.32a1.18 1.18 0 01-.82-.22 1.24 1.24 0 01-.48-.7c-.08-.267-.07-.48.03-.64.1-.16.29-.233.57-.22.133 0 .2-.073.2-.22v-3.48c0-.32-.16-.48-.48-.48h-.64v7.16c0 .653-.327.98-.98.98-.654 0-.98-.327-.98-.98v-7.16h-1.06v5.24c0 .56-.28.84-.84.84-.574 0-.86-.28-.86-.84v-4.66c-.174 2.453-.547 4.48-1.12 6.08-.174.413-.37.65-.59.71-.22.06-.51-.044-.87-.31-.28-.214-.447-.44-.5-.68-.054-.24-.014-.527.12-.86.653-1.867.98-4.667.98-8.4v-5.28c0-.387.12-.7.36-.94s.553-.36.94-.36h6.94c.386 0 .7.12.94.36s.36.553.36.94v3.22c0 .387-.12.7-.36.94s-.554.36-.94.36h-1.54v1.68h1.68c.386 0 .7.12.94.36s.36.553.36.94v4.66c0 .44-.034.773-.1 1-.094.28-.254.493-.48.64zm-7-8.52v.92h2.64v-1.68h-2.64v.76zm4.76-2.86c.32 0 .48-.16.48-.48v-.64c0-.32-.16-.48-.48-.48h-4.28c-.32 0-.48.16-.48.48v1.12h4.76zm-10.57 12.97c-.394.406-.997.61-1.81.61h-2.38c-1.107 0-1.854-.227-2.24-.68-.387-.427-.58-1.233-.58-2.42v-6.12h-2.96c-.187 2.16-.554 3.853-1.1 5.08-.734 1.6-1.92 2.866-3.56 3.8-.894.44-1.547.38-1.96-.18-.294-.387-.327-.774-.1-1.16.2-.333.566-.627 1.1-.88 1.12-.733 1.913-1.7 2.38-2.9.333-.867.56-2.12.68-3.76h-3.32c-.774 0-1.16-.387-1.16-1.16 0-.773.386-1.16 1.16-1.16h15.36c.773 0 1.16.387 1.16 1.16 0 .773-.387 1.16-1.16 1.16h-4.08v6.12c0 .373.046.613.14.72.093.107.306.16.64.16h1.78c.333 0 .553-.22.66-.66.053-.693.193-1.247.42-1.66.28-.52.653-.673 1.12-.46.28.133.48.447.6.94.08.387.1.807.06 1.26-.174 1.053-.457 1.783-.85 2.19zm-2.31-14.03h-11.76c-.76 0-1.14-.387-1.14-1.16 0-.76.38-1.14 1.14-1.14h11.76c.76 0 1.14.38 1.14 1.14 0 .773-.38 1.16-1.14 1.16zm-18.28-.72h-3v.04c0 .24-.127.44-.38.6-.227.133-.487.2-.78.2a1.51 1.51 0 01-.78-.2c-.254-.16-.38-.36-.38-.6v-.04h-4.68v.04c0 .24-.127.44-.38.6-.227.133-.487.2-.78.2a1.51 1.51 0 01-.78-.2c-.254-.16-.38-.36-.38-.6v-.04h-2.94c-.654 0-.98-.333-.98-1 0-.653.326-.98.98-.98h2.94v-.04c0-.307.113-.547.34-.72.213-.16.486-.24.82-.24.333 0 .606.08.82.24.226.173.34.413.34.72v.04h4.68v-.04c0-.307.113-.547.34-.72.213-.16.486-.24.82-.24.333 0 .606.08.82.24.226.173.34.413.34.72v.04h3c.653 0 .98.327.98.98 0 .667-.327 1-.98 1zm-236.07 5.56c-.274.053-.597-.027-.97-.24a27.815 27.815 0 01-1.92-1.3v.58c0 .307-.154.46-.46.46h-3.34v1.98h5.08c.68 0 1.02.34 1.02 1.02 0 .68-.34 1.02-1.02 1.02h-5.08v4h2.16l-.7-.3c-.174-.067-.284-.167-.33-.3-.047-.133-.024-.267.07-.4.453-.76.813-1.42 1.08-1.98.173-.36.38-.59.62-.69.24-.1.54-.083.9.05.813.307.946.86.4 1.66-.587.88-1.054 1.533-1.4 1.96h3.46c.68 0 1.02.34 1.02 1.02 0 .68-.34 1.02-1.02 1.02h-14.72c-.68 0-1.02-.34-1.02-1.02 0-.68.34-1.02 1.02-1.02h2.84c-.2-.6-.48-1.24-.84-1.92-.254-.4-.327-.77-.22-1.11.106-.34.36-.597.76-.77l.46-.2h-2c-.68 0-1.02-.34-1.02-1.02 0-.68.34-1.02 1.02-1.02h5v-1.98h-2.72c-.28 0-.504-.083-.67-.25-.167-.167-.25-.39-.25-.67v-.06a30.06 30.06 0 01-1.92 1.28c-.36.2-.674.28-.94.24-.28-.04-.534-.213-.76-.52-.534-.72-.347-1.32.56-1.8a22.125 22.125 0 003.58-2.72c1.066-.987 1.953-1.987 2.66-3 .12-.16.296-.3.53-.42.233-.12.476-.18.73-.18h.74c.546 0 .986.22 1.32.66a20.622 20.622 0 006.54 5.5c.506.227.803.483.89.77.086.287-.03.65-.35 1.09-.254.333-.517.527-.79.58zm-12.03 3.52c.48.627.946 1.393 1.4 2.3.12.28.116.56-.01.84-.127.28-.357.493-.69.64l-.5.22h2.68v-4h-2.88zm7.38-6.44c-1.347-1.133-2.427-2.253-3.24-3.36-.894 1.253-2.06 2.487-3.5 3.7h6.66c.32 0 .346-.113.08-.34zm-14.72-.04c.52 0 .78.26.78.78 0 .533-.26.8-.78.8h-9.08c-.52 0-.78-.267-.78-.8 0-.52.26-.78.78-.78h3.46v-.72h-2.12c-.387 0-.7-.12-.94-.36s-.36-.553-.36-.94v-1c0-.387.12-.7.36-.94s.553-.36.94-.36h2.12v-.22c0-.693.353-1.04 1.06-1.04.693 0 1.04.347 1.04 1.04v.22h2.32c.386 0 .7.12.94.36s.36.553.36.94v1c0 .387-.12.7-.36.94s-.554.36-.94.36h-2.32v.72h3.52zm-5.62-2.96h-1.18c-.2 0-.3.1-.3.3v.2c0 .253.126.38.38.38h1.1v-.88zm2.88.88h.46c.226 0 .34-.113.34-.34v-.16c0-.253-.127-.38-.38-.38h-1.2v.88h.78zm-8.66.62v.56c0 .293-.147.44-.44.44h-2.48a.703.703 0 01-.52-.2.7.7 0 01-.2-.52v-.06c-.44.573-.914 1.093-1.42 1.56h4.86c.386 0 .7.12.94.36s.36.553.36.94v3.36c0 .387-.12.7-.36.94s-.554.36-.94.36h-3.08v.78h3.48c.573 0 .86.287.86.86s-.287.86-.86.86h-3.48v.48c0 .227.113.34.34.34h2.9c.386 0 .7.12.94.36s.36.553.36.94v.5h-5.16c-.387 0-.7-.12-.94-.36s-.36-.553-.36-.94v-9.74c-.187-.24-.427-.5-.72-.78-.214-.16-.32-.347-.32-.56 0-.213.106-.427.32-.64.826-.827 1.58-1.88 2.26-3.16.106-.227.283-.413.53-.56a1.55 1.55 0 01.81-.22h.56c.426 0 .8.147 1.12.44.96.907 1.726 1.747 2.3 2.52.266.413.206.833-.18 1.26-.547.613-1.04.573-1.48-.12zm-3.28 6.22h2c.32 0 .48-.16.48-.48v-.3h-2.48v.78zm0-2.18h2.48v-.44c0-.213-.107-.32-.32-.32h-2.16v.76zm2.36-5.24a51.05 51.05 0 01-.24-.3l-.04-.04c-.32-.373-.56-.633-.72-.78-.254.507-.62 1.08-1.1 1.72h2.58a9.827 9.827 0 00-.48-.6zm4.16 12.48c-.24 0-.434-.073-.58-.22a.783.783 0 01-.22-.58v-5.46c0-.387.12-.7.36-.94s.553-.36.94-.36h6.32c.386 0 .7.12.94.36s.36.553.36.94v4.96c0 .387-.12.7-.36.94s-.554.36-.94.36h-.88c.84.52 1.653 1.06 2.44 1.62.333.253.48.493.44.72-.04.2-.254.413-.64.64-.254.16-.48.233-.68.22-.2 0-.407-.094-.62-.28-.414-.36-.94-.78-1.58-1.26-.347-.24-.527-.507-.54-.8-.014-.293.146-.567.48-.82l.04-.04h-3.86l.92.32c.253.08.4.193.44.34.04.147-.027.307-.2.48a11.466 11.466 0 01-2.76 1.88c-.267.12-.587.113-.96-.02a2.45 2.45 0 01-.84-.58c-.16-.174-.247-.334-.26-.48-.027-.174.046-.287.22-.34.013-.014.026-.02.04-.02 1.306-.493 2.28-1.02 2.92-1.58h-.94zm1.3-1.68c0 .227.113.34.34.34h3.8c.32 0 .48-.16.48-.48v-.32h-4.62v.46zm0-1.74h4.62v-.76h-4.62v.76zm0-2.06h4.62v-.44c0-.2-.1-.3-.3-.3h-3.84c-.32 0-.48.16-.48.48v.26zm-14.4 7.68h-14.34c-.387 0-.7-.12-.94-.36s-.36-.553-.36-.94v-14.34c0-.387.12-.7.36-.94s.553-.36.94-.36h14.34c.386 0 .7.12.94.36s.36.553.36.94v14.34c0 .387-.12.7-.36.94s-.554.36-.94.36zm-1.28-14.5h-11.42c-.32 0-.48.16-.48.48v11.32c0 .32.16.48.48.48h11.42v-12.28zm-8.7 2.36h5.48c.386 0 .7.12.94.36s.36.553.36.94v5c0 .387-.12.7-.36.94s-.554.36-.94.36h-5.48c-.387 0-.7-.12-.94-.36s-.36-.553-.36-.94v-5c0-.387.12-.7.36-.94s.553-.36.94-.36zm.92 5.06c0 .32.16.48.48.48h2.52c.32 0 .48-.16.48-.48v-2.5c0-.32-.16-.48-.48-.48h-2.52c-.32 0-.48.16-.48.48v2.5zm-9.93 7.21c-.394.406-.997.61-1.81.61h-2.38c-1.107 0-1.854-.227-2.24-.68-.387-.427-.58-1.233-.58-2.42v-6.12h-2.96c-.187 2.16-.554 3.853-1.1 5.08-.734 1.6-1.92 2.866-3.56 3.8-.894.44-1.547.38-1.96-.18-.294-.387-.327-.774-.1-1.16.2-.333.566-.627 1.1-.88 1.12-.733 1.913-1.7 2.38-2.9.333-.867.56-2.12.68-3.76h-3.32c-.774 0-1.16-.387-1.16-1.16 0-.773.386-1.16 1.16-1.16h15.36c.773 0 1.16.387 1.16 1.16 0 .773-.387 1.16-1.16 1.16h-4.08v6.12c0 .373.046.613.14.72.093.107.306.16.64.16h1.78c.333 0 .553-.22.66-.66.053-.693.193-1.247.42-1.66.28-.52.653-.673 1.12-.46.28.133.48.447.6.94.08.387.1.807.06 1.26-.174 1.053-.457 1.783-.85 2.19zm-2.31-14.03h-11.76c-.76 0-1.14-.387-1.14-1.16 0-.76.38-1.14 1.14-1.14h11.76c.76 0 1.14.38 1.14 1.14 0 .773-.38 1.16-1.14 1.16zm-21.74 13.52c-1.547 0-2.76-.653-3.64-1.96-.92-1.36-1.38-3.287-1.38-5.78 0-2.493.46-4.407 1.38-5.74.866-1.253 2.08-1.88 3.64-1.88 1.546 0 2.753.633 3.62 1.9.92 1.32 1.38 3.227 1.38 5.72s-.46 4.42-1.38 5.78c-.867 1.307-2.074 1.96-3.62 1.96zm0-13.08c-1.494 0-2.24 1.78-2.24 5.34 0 1.96.213 3.387.64 4.28.373.773.906 1.16 1.6 1.16 1.48 0 2.22-1.813 2.22-5.44 0-3.56-.74-5.34-2.22-5.34zm-11.76 13.08c-1.547 0-2.76-.653-3.64-1.96-.92-1.36-1.38-3.287-1.38-5.78 0-2.493.46-4.407 1.38-5.74.866-1.253 2.08-1.88 3.64-1.88 1.546 0 2.753.633 3.62 1.9.92 1.32 1.38 3.227 1.38 5.72s-.46 4.42-1.38 5.78c-.867 1.307-2.074 1.96-3.62 1.96zm0-13.08c-1.494 0-2.24 1.78-2.24 5.34 0 1.96.213 3.387.64 4.28.373.773.906 1.16 1.6 1.16 1.48 0 2.22-1.813 2.22-5.44 0-3.56-.74-5.34-2.22-5.34zm-11.52 3.18c1.32 0 2.393.38 3.22 1.14.893.84 1.34 2.027 1.34 3.56 0 1.587-.52 2.867-1.56 3.84-.974.907-2.18 1.36-3.62 1.36-1.654 0-3.087-.467-4.3-1.4-.467-.413-.494-.907-.08-1.48.506-.68 1.073-.753 1.7-.22.733.467 1.5.7 2.3.7.786 0 1.413-.233 1.88-.7.493-.493.74-1.167.74-2.02s-.227-1.513-.68-1.98c-.454-.467-1.06-.7-1.82-.7-.52 0-1 .107-1.44.32-.507.307-.987.313-1.44.02l-.06-.04c-.414-.253-.607-.633-.58-1.14l.3-5.18c.026-.387.16-.693.4-.92.24-.227.546-.34.92-.34h5.44c.813 0 1.22.407 1.22 1.22 0 .827-.407 1.24-1.22 1.24h-4.16l-.28 3.14c.586-.28 1.18-.42 1.78-.42zm328.86 3.96h5.4v-.8h-4.18c-.387 0-.7-.12-.94-.36s-.36-.553-.36-.94v-3.78c0-.387.12-.7.36-.94s.553-.36.94-.36h10.76c.386 0 .7.12.94.36s.36.553.36.94v3.78c0 .387-.12.7-.36.94s-.554.36-.94.36h-4.36v.8h5.74c.386 0 .7.12.94.36s.36.553.36.94v3.94c0 .506-.047.886-.14 1.14-.12.28-.327.5-.62.66-.267.146-.64.24-1.12.28-.88.026-1.427-.334-1.64-1.08a.337.337 0 00-.02-.08 45.486 45.486 0 01-.12-.3l-.58.14a.42.42 0 01-.35-.03.412.412 0 01-.19-.29 75.005 75.005 0 01-.12-.42.679.679 0 00-.04-.14c-1.347.093-3.314.22-5.9.38l-1.06.06c-.32.013-.547-.053-.68-.2-.134-.133-.214-.373-.24-.72-.067-.693.206-1.047.82-1.06.786-.04 1.7-.08 2.74-.12v-1.5h-3.98c-.32 0-.48.16-.48.48v3.84c0 .746-.374 1.12-1.12 1.12-.747 0-1.12-.374-1.12-1.12v-4.98c0-.387.12-.7.36-.94s.553-.36.94-.36zm5.4-5.62h-2.74c-.32 0-.48.16-.48.48v.42h3.22v-.9zm0 2.36h-3.22v.52c0 .267.133.4.4.4h2.82v-.92zm6.36 8.74h.34c.186-.013.28-.1.28-.26v-2.78c0-.32-.16-.48-.48-.48h-1.52c.693 1.187 1.153 2.36 1.38 3.52zm-4.14-2.12l1.46-.08a5.691 5.691 0 00-.22-.48 6.537 6.537 0 01-.06-.12.703.703 0 00-.1-.16c-.067-.107-.034-.173.1-.2l1.4-.36h-2.58v1.4zm0-5.7h2.8c.32 0 .48-.16.48-.48v-.44h-3.28v.92zm0-2.38h3.28v-.52c0-.253-.127-.38-.38-.38h-2.9v.9z"/><path fill-rule="evenodd" fill="#3E3E3E" d="M442.165 68.012c-.054.627-.427.94-1.12.94-.707 0-1.087-.313-1.14-.94l-.62-5.9-.04-1.66c-.014-.4.096-.72.33-.96.233-.24.55-.36.95-.36h1.48c.266 0 .476.08.63.24.153.16.223.367.21.62l-.08 2.12-.6 5.9zm-1.14 2.32c.613 0 1.106.187 1.48.56.4.373.6.847.6 1.42s-.197 1.043-.59 1.41c-.394.367-.89.55-1.49.55s-1.097-.183-1.49-.55c-.394-.367-.59-.837-.59-1.41s.2-1.047.6-1.42c.4-.373.893-.56 1.48-.56zm-112.02-1.72c.653 0 .98.333.98 1 0 .68-.334 1.02-1 1.02h-1.68v2.84c0 .573-.067 1-.2 1.28-.147.32-.407.56-.78.72-.414.186-1.034.293-1.86.32-.8.026-1.3-.254-1.5-.84-.28-.84.133-1.247 1.24-1.22h.34c.24-.013.36-.12.36-.32v-2.78h-4.16c.626.6 1.18 1.18 1.66 1.74.213.28.296.523.25.73-.047.207-.217.417-.51.63-.32.227-.587.333-.8.32-.24-.027-.467-.193-.68-.5-.254-.333-.54-.68-.86-1.04-.254-.267-.364-.543-.33-.83.033-.287.203-.537.51-.75l.44-.3h-1.76c-.667 0-1-.34-1-1.02 0-.667.333-1 1-1h6.24v-1.14h-5.82c-.64 0-.96-.327-.96-.98 0-.64.32-.96.96-.96h9.56c.64 0 .96.32.96.96 0 .653-.32.98-.96.98h-1.34v1.14h1.7zm-1.36-3.96h-7.2c-.387 0-.7-.12-.94-.36s-.36-.553-.36-.94v-4.32c0-.387.12-.7.36-.94s.553-.36.94-.36h7.2c.386 0 .7.12.94.36s.36.553.36.94v4.32c0 .387-.12.7-.36.94s-.554.36-.94.36zm-1.08-4.82c0-.293-.147-.44-.44-.44h-4.22c-.32 0-.48.16-.48.48v.52h5.14v-.56zm0 2.12h-5.14v.58c0 .307.153.46.46.46h4.2c.32 0 .48-.16.48-.48v-.56zm-9.98 3v9.72c0 .76-.38 1.14-1.14 1.14-.76 0-1.14-.38-1.14-1.14v-7.16l-.2.2c-.16.173-.287.3-.38.38-.414.36-.767.517-1.06.47-.294-.047-.547-.31-.76-.79-.174-.387-.224-.723-.15-1.01.073-.287.283-.563.63-.83 1.32-1.107 2.426-2.287 3.32-3.54.36-.573.86-.72 1.5-.44.733.32.9.807.5 1.46-.334.48-.707.993-1.12 1.54zm-1-4.12c-.6.587-1.2 1.107-1.8 1.56-.347.253-.647.357-.9.31-.254-.047-.487-.257-.7-.63-.374-.653-.234-1.207.42-1.66 1-.747 1.86-1.567 2.58-2.46.386-.533.9-.66 1.54-.38.84.333.986.853.44 1.56a18.845 18.845 0 01-1.58 1.7zm-8.18-.58v.48c0 .227-.114.34-.34.34h-.84l-.24.42c-.12.213-.207.373-.26.48h3.02c.466 0 .7.233.7.7 0 .467-.234.7-.7.7h-3.16v.66h2.78c.36 0 .54.18.54.54 0 .373-.18.56-.54.56h-2.78v.72h2.78c.36 0 .54.18.54.54 0 .373-.18.56-.54.56h-2.78v.72h3.66c.466 0 .7.233.7.7 0 .467-.234.7-.7.7h-8.74c-.387 0-.7-.12-.94-.36s-.36-.553-.36-.94v-2.66c-.04.04-.107.11-.2.21-.094.1-.167.177-.22.23a.38.38 0 01-.32.12.321.321 0 01-.26-.12 16.056 16.056 0 00-.96-1.08c.133.96.2 2.14.2 3.54 0 3.587-.36 5.873-1.08 6.86a1.797 1.797 0 01-1.18.78c-.32.08-.714.133-1.18.16-.347 0-.634-.1-.86-.3a1.2 1.2 0 01-.4-.78.49.49 0 00-.01-.07.14.14 0 00-.03-.07c-.28-.707.013-1.047.88-1.02.253 0 .426-.007.52-.02a.9.9 0 00.58-.34c.346-.44.533-2 .56-4.68-.507.653-.947 1.18-1.32 1.58-.32.32-.6.48-.84.48s-.5-.16-.78-.48c-.294-.347-.42-.66-.38-.94.04-.253.246-.527.62-.82 1-.92 1.853-1.987 2.56-3.2-.08-.72-.207-1.38-.38-1.98-.16.173-.414.42-.76.74-.28.253-.54.38-.78.38-.254 0-.514-.127-.78-.38-.307-.293-.447-.57-.42-.83.026-.26.206-.53.54-.81.413-.373.84-.813 1.28-1.32a10.291 10.291 0 00-1.16-1.6c-.56-.573-.534-1.093.08-1.56.48-.373.946-.333 1.4.12.453.48.8.887 1.04 1.22.186-.267.346-.527.48-.78.16-.307.526-.447 1.1-.42.48.027.926.147 1.34.36.106.04.146.093.12.16l-.02.04h2.46v-.32c0-.707.353-1.06 1.06-1.06.706 0 1.06.353 1.06 1.06v.32h2.5v-.32c0-.707.36-1.06 1.08-1.06.706 0 1.06.353 1.06 1.06v.32h1.78c.586 0 .88.293.88.88s-.294.88-.88.88h-1.78zm-6.16 7.12c0 .2.1.3.3.3h1.98v-.72h-2.28v.42zm0-1.52h2.28v-.72h-2.28v.72zm-.6-5.6h-1.32c-.36 0-.65-.11-.87-.33-.22-.22-.33-.51-.33-.87v-.46c-.48.88-1.067 1.773-1.76 2.68.386.907.666 1.907.84 3 .6-.507 1.12-1.08 1.56-1.72.32-.427.62-.913.9-1.46a.75.75 0 01.37-.4.775.775 0 01.55-.04l.06.02v-.42zm.6 3.78h2.28v-.66h-2.28v.66zm4.02-3.78h-2.5v.48c0 .227-.114.34-.34.34h-.68c-.08.2-.214.5-.4.9h2.24a7.664 7.664 0 00.26-.7c.026-.093.066-.22.12-.38.026-.16.126-.227.3-.2l1 .18v-.62zm-17.16 2.96a.226.226 0 00-.07-.04.259.259 0 00-.09-.02v3.92c0 .387-.12.7-.36.94s-.554.36-.94.36h-11.18c-.387 0-.7-.12-.94-.36s-.36-.553-.36-.94v-3.94c-.04.013-.104.037-.19.07a.98.98 0 00-.19.09c-.627.227-1.107.08-1.44-.44-.48-.733-.234-1.26.74-1.58a21.59 21.59 0 003.5-1.68c1.08-.653 1.986-1.327 2.72-2.02.28-.28.66-.42 1.14-.42h.84c.44 0 .82.14 1.14.42 1.773 1.533 3.933 2.727 6.48 3.58.506.147.816.35.93.61.113.26.03.603-.25 1.03-.347.52-.84.66-1.48.42zm-3.14 2.22c-.067.12-.154.287-.26.5-.187.373-.36.7-.52.98h1.22c.32 0 .48-.16.48-.48v-2.04h-2.14l.84.2c.213.067.353.173.42.32.066.147.053.32-.04.52zm-3.08 1.48h1.82l-.66-.18c-.347-.08-.454-.287-.32-.62l.24-.6c.186-.533.306-.907.36-1.12h-1.44v2.52zm-1.9 0v-2.52h-1.54c.213.387.38.753.5 1.1.04.093.086.233.14.42l.06.18c.066.293-.054.487-.36.58l-.8.24h2zm-3.86-.48c0 .32.16.48.48.48h.9a6.545 6.545 0 00-.26-1.04 8.339 8.339 0 00-.22-.6.449.449 0 01-.01-.36c.046-.107.143-.18.29-.22l1.04-.3h-2.22v2.04zm6.54-6.04c-.6-.4-1.187-.867-1.76-1.4-.56.56-1.26 1.12-2.1 1.68h3.82c.306 0 .32-.093.04-.28zm1.84 1.14v.4c0 .187-.094.28-.28.28h-5.96c-.214 0-.384-.063-.51-.19-.127-.127-.19-.297-.19-.51v-.06c-.947.56-1.92 1.053-2.92 1.48h12.74a25.804 25.804 0 01-2.88-1.4zm-15.54 4a.055.055 0 01-.02-.04l-1.46.2c.48.333.893.66 1.24.98.173.173.146.367-.08.58l-.04.04h.58c.613 0 .92.307.92.92s-.307.92-.92.92h-1.84l.98.38c.253.093.42.243.5.45.08.207.053.437-.08.69-.494.84-1.094 1.6-1.8 2.28.413.613.853.92 1.32.92.2 0 .34-.06.42-.18.106-.507.26-.86.46-1.06.24-.253.533-.26.88-.02.186.133.3.367.34.7.04.267.026.547-.04.84-.187.653-.447 1.1-.78 1.34-.32.24-.8.36-1.44.36-1.067 0-1.967-.534-2.7-1.6a15.16 15.16 0 01-2.2 1.24c-.534.213-.967.12-1.3-.28-.494-.6-.34-1.067.46-1.4.813-.4 1.52-.833 2.12-1.3-.347-.867-.647-1.987-.9-3.36h-2.24c-.014.2-.047.453-.1.76.666.44 1.253.867 1.76 1.28.413.373.42.8.02 1.28-.24.307-.474.473-.7.5-.227.027-.474-.093-.74-.36a13.63 13.63 0 00-.68-.56.434.434 0 00-.1-.08c-.4 1.293-.98 2.32-1.74 3.08-.587.506-1.094.513-1.52.02-.254-.307-.354-.6-.3-.88.053-.253.246-.527.58-.82.786-.947 1.273-2.353 1.46-4.22h-.68c-.36 0-.54-.18-.54-.54v-.36l-.44.64c-.107.16-.214.247-.32.26-.094 0-.167-.073-.22-.22a52.12 52.12 0 00-.82-1.9v7.76c0 .693-.347 1.04-1.04 1.04-.707 0-1.06-.347-1.06-1.04v-6.34c-.254.84-.554 1.667-.9 2.48-.254.467-.484.69-.69.67-.207-.02-.424-.27-.65-.75-.12-.253-.18-.46-.18-.62 0-.187.066-.387.2-.6.44-.8.846-1.767 1.22-2.9.373-1.107.66-2.2.86-3.28h-.88c-.72 0-1.08-.36-1.08-1.08 0-.72.36-1.08 1.08-1.08h1.02v-3.08c0-.693.353-1.04 1.06-1.04.693 0 1.04.347 1.04 1.04v3.08l1.76-.02c-.134-.107-.18-.287-.14-.54.026-.213.1-.407.22-.58a.813.813 0 01.32-.28c.146-.08.26-.087.34-.02l.04.02a22.9 22.9 0 00.7-1.72c.093-.307.23-.5.41-.58.18-.08.423-.06.73.06.6.227.72.647.36 1.26-.36.667-.72 1.313-1.08 1.94a7 7 0 01.24.26c.106.12.186.207.24.26.12-.187.273-.467.46-.84.053-.093.093-.167.12-.22.133-.267.323-.437.57-.51.246-.073.51-.043.79.09l.4.2c-.014-.2-.024-.503-.03-.91-.007-.407-.01-.71-.01-.91 0-.707.346-1.06 1.04-1.06.706 0 1.046.36 1.02 1.08 0 .973.006 1.7.02 2.18l.38-.56c.146-.187.306-.213.48-.08l.04.04c.173-.387.393-.947.66-1.68.2-.6.593-.787 1.18-.56.586.227.713.653.38 1.28a4.86 4.86 0 00-.22.38 40.33 40.33 0 01-.9 1.54l.52.52c.08-.147.206-.373.38-.68.106-.213.186-.367.24-.46.253-.52.64-.653 1.16-.4.56.267.673.667.34 1.2a123.871 123.871 0 01-1.86 2.76c-.16.227-.087.333.22.32l.7-.04a.317.317 0 01-.04-.14c-.2-.453-.06-.767.42-.94.413-.133.706-.013.88.36.293.693.506 1.313.64 1.86.08.36-.094.627-.52.8-.507.213-.807.073-.9-.42zm-6.1-2.52a92.9 92.9 0 01-.1-2.36c-.934 1.48-1.794 2.733-2.58 3.76l1.08-.08a1.295 1.295 0 00-.08-.24c-.16-.44 0-.733.48-.88.413-.12.693 0 .84.36.24.627.42 1.187.54 1.68l-.18-2.24zm.24 2.98l-.84.34c-.334.12-.52.007-.56-.34-.014-.013-.02-.033-.02-.06-.867.08-1.814.193-2.84.34a.729.729 0 01-.66-.26c-.16-.173-.267-.413-.32-.72a.824.824 0 01.07-.5.419.419 0 01.37-.24h.04a23.59 23.59 0 001.2-1.76 12.988 12.988 0 00-1.48-1.48v1.12c0 .293-.09.533-.27.72-.18.187-.424.28-.73.28h-.8v.86a41.379 41.379 0 011.84 3h5.16a36.67 36.67 0 00-.16-1.3zm1.7-4.82l.06 1.58c.013.347.046.853.1 1.52l.44-.04c.186-.253.473-.673.86-1.26l.12-.18c-.387-.507-.914-1.047-1.58-1.62zm1.62 5.02l.5-.42c-.16.013-.394.04-.7.08l-.54.06c-.334.04-.534-.107-.6-.44l-.02-.06c.013.107.03.267.05.48a7.613 7.613 0 00.13.98l.06.42h1.68a13.79 13.79 0 00-.52-.42c-.307-.213-.32-.44-.04-.68zm-.8 2.94c.093.453.24 1.06.44 1.82.16-.187.373-.48.64-.88.213-.32.386-.633.52-.94h-1.6zm-21.08-7.34h-5.3c-.254.56-.52 1.087-.8 1.58h7.88c.386 0 .7.12.94.36s.36.553.36.94v8.58c0 .613-.074 1.08-.22 1.4-.147.346-.42.606-.82.78-.467.226-1.187.353-2.16.38-.894.026-1.44-.28-1.64-.92-.294-.92.18-1.353 1.42-1.3h.66c.306-.013.46-.147.46-.4v-1.2h-7.16v2.66c0 .773-.387 1.16-1.16 1.16-.774 0-1.16-.387-1.16-1.16v-7.54a17.64 17.64 0 01-1.68 1.62c-.627.467-1.18.42-1.66-.14-.547-.627-.467-1.213.24-1.76 1.52-1.293 2.806-2.973 3.86-5.04h-3.22c-.747 0-1.12-.373-1.12-1.12 0-.747.373-1.12 1.12-1.12h4.22c.106-.28.253-.7.44-1.26.213-.76.713-1.053 1.5-.88.84.2 1.12.707.84 1.52a6.155 6.155 0 01-.22.62h8.56c.746 0 1.12.373 1.12 1.12 0 .747-.374 1.12-1.12 1.12h-4.18zm-6.38 8.22h7.16v-1.3h-7.16v1.3zm0-3.28h7.16v-.8c0-.32-.16-.48-.48-.48h-6.68v1.28zm-8.64 8.49c-.174.126-.434.203-.78.23-3.227.106-5.88.12-7.96.04-1.254-.054-2.294-.247-3.12-.58a5.394 5.394 0 01-2.22-1.66c-.64.613-1.14 1.073-1.5 1.38-.814.706-1.42.613-1.82-.28-.32-.693-.16-1.247.48-1.66a26.663 26.663 0 001.56-1.18v-2.64c0-.32-.16-.48-.48-.48h-.64c-.734 0-1.1-.367-1.1-1.1 0-.733.366-1.1 1.1-1.1h2.3c.32 0 .576.097.77.29.193.193.29.45.29.77v4.08c.773 1.213 2.24 1.873 4.4 1.98 2.466.107 5.153.08 8.06-.08.533-.04.883.04 1.05.24.166.2.17.553.01 1.06-.094.333-.227.563-.4.69zm-6.4-2.31c-.747 0-1.12-.367-1.12-1.1v-1.62a15.875 15.875 0 01-2.92 1.72c-.32.147-.597.197-.83.15-.234-.047-.45-.203-.65-.47-.28-.373-.367-.68-.26-.92.093-.227.373-.427.84-.6 1.213-.507 2.26-1.107 3.14-1.8h-1.74c-.387 0-.7-.12-.94-.36s-.36-.553-.36-.94v-1.08c0-.387.12-.7.36-.94s.553-.36.94-.36h7.58c.386 0 .7.12.94.36s.36.553.36.94v1.88l.66.44c.346.253.34.507-.02.76-.574.4-1.187.8-1.84 1.2.386.147.773.28 1.16.4.533.12.86.28.98.48.146.24.073.56-.22.96-.334.453-.814.587-1.44.4a10.4 10.4 0 01-3.52-1.88v1.28c0 .733-.367 1.1-1.1 1.1zm2.58-3.54l.18-.12.52-.4c.16-.12.4-.313.72-.58h-2.78c.4.427.853.793 1.36 1.1zm.42-2.42v-.58c0-.307-.154-.46-.46-.46h-4.72c-.32 0-.48.16-.48.48v.1c0 .307.153.46.46.46h5.2zm-2.78-2.98h-5.8c-.547 0-.82-.273-.82-.82 0-.547.273-.82.82-.82h11.6c.546 0 .82.273.82.82 0 .547-.274.82-.82.82h-5.8zm4.44-2.26h-8.76c-.387 0-.7-.12-.94-.36s-.36-.553-.36-.94v-1.44c0-.387.12-.7.36-.94s.553-.36.94-.36h8.76c.386 0 .7.12.94.36s.36.553.36.94v1.44c0 .387-.12.7-.36.94s-.554.36-.94.36zm-6.88-2.7h-.72c-.32 0-.48.16-.48.48v.62c0 .187.093.28.28.28h.92v-1.38zm3.06 0h-1.28v1.38h1.28v-1.38zm3.02.48c0-.32-.16-.48-.48-.48h-.78v1.38h.78c.32 0 .48-.16.48-.48v-.42zm-12.1.92a3.22 3.22 0 00-.5-.44c-.147-.133-.38-.32-.7-.56-.667-.453-.694-.96-.08-1.52.426-.387.873-.433 1.34-.14.6.4 1.166.82 1.7 1.26.266.253.386.493.36.72-.014.213-.16.447-.44.7-.587.547-1.147.54-1.68-.02zm-.66 1.3c.653.373 1.24.773 1.76 1.2.266.24.393.473.38.7-.014.227-.154.473-.42.74-.56.56-1.107.587-1.64.08a16.01 16.01 0 00-.58-.48 4.937 4.937 0 00-.44-.32 29.78 29.78 0 00-.26-.2c-.707-.44-.754-.953-.14-1.54.413-.387.86-.447 1.34-.18zm-7.12 6.82c-.667 0-1.4-.293-2.2-.88a.795.795 0 00-.14-.1c-.347-.267-.607-.447-.78-.54a1.65 1.65 0 00-.82-.24c-.307 0-.607.113-.9.34-.214.293-.46.473-.74.54-.294.08-.574.02-.84-.18-.227-.173-.334-.413-.32-.72.013-.28.12-.547.32-.8.773-.853 1.62-1.28 2.54-1.28.453 0 .893.107 1.32.32.253.133.6.36 1.04.68.346.267.6.447.76.54.28.147.546.22.8.22.306 0 .606-.113.9-.34.52-.627 1.046-.74 1.58-.34a.789.789 0 01.32.7c-.014.267-.12.533-.32.8-.76.853-1.6 1.28-2.52 1.28zm-14.3-2.14c-.347.227-.86.34-1.54.34-1.134-.013-2.18-.433-3.14-1.26-.934-.813-1.694-1.933-2.28-3.36l-3.04.32c-.654.053-1.02-.247-1.1-.9-.08-.68.213-1.047.88-1.1l2.66-.26c-.12-.467-.227-1.02-.32-1.66-.107-.827.253-1.24 1.08-1.24.746 0 1.16.38 1.24 1.14.106.56.226 1.073.36 1.54l3.26-.32c.333-.027.36-.1.08-.22-.52-.213-1.02-.393-1.5-.54-.68-.213-.807-.607-.38-1.18.253-.333.586-.453 1-.36.32.093.82.253 1.5.48.346.133.56.347.64.64.08.293 0 .607-.24.94l-.12.16.62-.06c.666-.067 1.026.22 1.08.86.066.653-.227 1.013-.88 1.08l-1.68.18-2.64.26c.413.813.886 1.447 1.42 1.9.533.48 1.073.713 1.62.7.12 0 .226-.04.32-.12.266-1.16.78-1.54 1.54-1.14.24.133.393.393.46.78.053.32.046.66-.02 1.02-.187.667-.48 1.127-.88 1.38zm-12-6v4.94c0 .747-.374 1.12-1.12 1.12-.76 0-1.14-.373-1.14-1.12v-2.68a8.63 8.63 0 00-.41.32c-.18.147-.317.26-.41.34-.32.227-.61.333-.87.32-.26-.013-.517-.16-.77-.44-.347-.36-.487-.687-.42-.98.066-.28.32-.553.76-.82 1.4-.973 2.54-2.1 3.42-3.38.36-.573.853-.753 1.48-.54.84.28 1.02.787.54 1.52a12.96 12.96 0 01-1.06 1.4zm-9.9 14.5c-2.84-2.12-4.84-5.113-6-8.98-1.334 4.067-3.42 7.127-6.26 9.18-.694.466-1.334.433-1.92-.1-.454-.4-.647-.774-.58-1.12.053-.32.353-.647.9-.98 2.72-1.907 4.606-4.893 5.66-8.96.093-.427.27-.733.53-.92.26-.187.563-.247.91-.18l.06.02a20.352 20.352 0 01-.28-2.16h-3.3c-.8 0-1.2-.407-1.2-1.22 0-.8.4-1.2 1.2-1.2h4.34c.373 0 .693.1.96.3.24.2.36.407.36.62.16 5.747 2.106 10.127 5.84 13.14.52.36.88.753 1.08 1.18.226.507.166.953-.18 1.34-.56.626-1.267.64-2.12.04zm-19-3.78c-1.027-.787-1.787-1.687-2.28-2.7h-2.96c-.494 1.12-1.1 2.06-1.82 2.82-.44.413-.887.42-1.34.02-.307-.267-.447-.527-.42-.78.013-.24.173-.507.48-.8.346-.387.633-.78.86-1.18.16-.347.393-.597.7-.75.306-.153.646-.183 1.02-.09l.48.12v-.62c0-.32.16-.48.48-.48h2.8c.306 0 .593.083.86.25.266.167.466.39.6.67.4.667.913 1.233 1.54 1.7.786.453.946 1 .48 1.64-.374.52-.867.58-1.48.18zm-1.28-5.72c-.92.387-1.974.713-3.16.98-.574.133-1-.007-1.28-.42-.467-.667-.214-1.087.76-1.26 1.88-.373 3.313-.92 4.3-1.64a.826.826 0 01.54-.22c.146-.013.346.027.6.12.813.307.913.727.3 1.26-.574.44-1.26.833-2.06 1.18zm-.2-2.96c-.8.36-1.62.66-2.46.9-.494.147-.887.04-1.18-.32-.547-.627-.367-1.053.54-1.28 1.466-.387 2.626-.853 3.48-1.4.293-.213.66-.227 1.1-.04.786.333.86.74.22 1.22-.454.293-1.02.6-1.7.92zm-.56-2.7c-.587.28-1.314.567-2.18.86-.44.147-.82.053-1.14-.28-.307-.32-.427-.58-.36-.78.066-.2.313-.367.74-.5 1.386-.453 2.493-.92 3.32-1.4.306-.2.673-.193 1.1.02.786.4.82.827.1 1.28-.334.187-.86.453-1.58.8zm-5.86 4.6c.546.507.966.953 1.26 1.34.306.44.18.793-.38 1.06-.48.227-.867.113-1.16-.34l-2.74.14v1.42h1.54c.6 0 .9.3.9.9 0 .6-.3.9-.9.9h-1.54v.56c.453.28 1.12.753 2 1.42.253.2.38.387.38.56 0 .173-.107.393-.32.66-.24.307-.467.46-.68.46-.2 0-.427-.147-.68-.44-.294-.32-.527-.567-.7-.74v2.54c0 .693-.347 1.04-1.04 1.04-.707 0-1.06-.347-1.06-1.04v-2.52c-.52.733-.974 1.293-1.36 1.68-.28.253-.52.38-.72.38-.214 0-.44-.14-.68-.42-.28-.32-.404-.597-.37-.83.033-.233.223-.477.57-.73a11.03 11.03 0 002.26-2.58h-1.76c-.6 0-.9-.3-.9-.9 0-.6.3-.9.9-.9h2.06v-1.32l-1.9.08c-.507.027-.767-.207-.78-.7-.027-.507.206-.767.7-.78l.7-.02c.08-.187.2-.48.36-.88h-1.44c-.44 0-.66-.227-.66-.68 0-.44.22-.66.66-.66h.9v-4.04c0-.387.12-.7.36-.94s.553-.36.94-.36h5.72c.453 0 .68.227.68.68 0 .453-.227.68-.68.68h-4.4c-.32 0-.48.16-.48.48v.08h4.38c.373 0 .56.187.56.56 0 .387-.187.58-.56.58h-4.38v.56h4.38c.373 0 .56.187.56.56 0 .387-.187.58-.56.58h-4.38v.58h5.7c.44 0 .66.22.66.66 0 .453-.22.68-.66.68h-1.26zm-4 0c-.08.12-.187.293-.32.52l-.18.3 1.52-.04 1.52-.06a3.083 3.083 0 00-.13-.12 2.552 2.552 0 01-.13-.12c-.134-.107-.12-.193.04-.26l.46-.22h-2.78zm-11.34 11h-4.32c-.667 0-1-.334-1-1 0-.667.333-1 1-1h3.2v-2.98h-2.32c-.667 0-1-.333-1-1s.333-1 1-1h7.2c.666 0 1 .333 1 1s-.334 1-1 1h-2.56v2.98h3.14c.666 0 1 .333 1 1 0 .666-.334 1-1 1h-4.34zm-3.9-15.38c-.667 0-1-.333-1-1s.333-1 1-1h7.94c.666 0 1 .333 1 1s-.334 1-1 1h-7.94zm1.54 7.75c-.32.127-.58.153-.78.08-.2-.073-.36-.27-.48-.59-.134-.32-.294-.66-.48-1.02a21.7 21.7 0 00-.74-1.38 1.653 1.653 0 01-.22-.78 1.59 1.59 0 01.16-.8c.293-.587.64-1.333 1.04-2.24.106-.253.253-.42.44-.5.16-.067.386-.067.68 0 .706.16.906.573.6 1.24-.28.573-.667 1.333-1.16 2.28.613.96 1.106 1.82 1.48 2.58.133.293.156.523.07.69-.087.167-.29.313-.61.44zm3.24-.07c-.6.253-1.02.093-1.26-.48a26.08 26.08 0 01-.12-.24c-.16-.333-.294-.593-.4-.78a.2.2 0 01-.04-.08c-.32-.547-.567-.953-.74-1.22-.374-.573-.4-1.147-.08-1.72.426-.773.78-1.487 1.06-2.14.106-.253.253-.42.44-.5.16-.067.386-.067.68 0 .693.16.893.567.6 1.22-.267.573-.674 1.333-1.22 2.28.68.96 1.22 1.807 1.62 2.54.133.293.153.52.06.68-.08.16-.28.307-.6.44zm3.96-.38c-.08.16-.28.307-.6.44-.614.253-1.04.1-1.28-.46a5.587 5.587 0 00-.12-.22 9.772 9.772 0 00-.46-.84c-.32-.547-.6-.993-.84-1.34-.387-.533-.414-1.093-.08-1.68a54.1 54.1 0 001.16-2.2c.12-.253.273-.413.46-.48.173-.067.406-.067.7 0 .746.16.933.587.56 1.28-.44.787-.88 1.533-1.32 2.24.72.933 1.3 1.793 1.74 2.58.146.28.173.507.08.68zm-11.04 3.34c.693 0 1.04.347 1.04 1.04 0 .693-.347 1.04-1.04 1.04h-2v2.2c0 .64-.32.96-.96.96-.654 0-.98-.32-.98-.96v-2.2h-2.02c-.694 0-1.04-.347-1.04-1.04 0-.693.346-1.04 1.04-1.04h2.02v-1.2h-1.3c-.36 0-.647-.107-.86-.32-.214-.213-.32-.5-.32-.86v-4.74c0-.387.12-.7.36-.94s.553-.36.94-.36h1.16v-1.04h-1.74c-.68 0-1.02-.347-1.02-1.04 0-.68.34-1.02 1.02-1.02h1.74v-.94c0-.64.326-.96.98-.96.64 0 .96.32.96.96v.94h1.82c.68 0 1.02.34 1.02 1.02 0 .693-.34 1.04-1.02 1.04h-1.82v1.04h1.38c.386 0 .69.11.91.33.22.22.33.523.33.91v4.68c0 .387-.12.7-.36.94s-.554.36-.94.36h-1.3v1.2h2zm-3.72-6.16v-.6h-.58c-.307 0-.46.153-.46.46v.72h1.04v-.58zm0 2.74v-.6h-1.04v.7c0 .32.16.48.48.48h.56v-.58zm2.62-2.86c0-.32-.16-.48-.48-.48h-.64v1.18h1.12v-.7zm-.48 3.44c.32 0 .48-.16.48-.48v-.7h-1.12v1.18h.64zm24.58 5.62c.306-.733.606-1.56.9-2.48.106-.373.266-.62.48-.74.213-.12.513-.14.9-.06.8.187 1.02.687.66 1.5a161.624 161.624 0 01-.82 1.72l2.44-.08-.24-.36c-.427-.533-.32-.953.32-1.26.453-.227.84-.147 1.16.24.693.827 1.253 1.633 1.68 2.42.213.48.02.86-.58 1.14-.574.266-.987.126-1.24-.42-1.72.106-3.074.18-4.06.22-1.187.053-2.08.1-2.68.14-.32.013-.554-.054-.7-.2-.147-.147-.234-.38-.26-.7-.054-.68.253-1.027.92-1.04l1.12-.04zm30.42-5.22c0-.68.34-1.02 1.02-1.02h6.62v-.7c0-.773.393-1.16 1.18-1.16.773 0 1.16.387 1.16 1.16v.7h6.74c.68 0 1.02.34 1.02 1.02 0 .693-.34 1.04-1.02 1.04h-1.18l.92.72c.253.2.373.407.36.62-.014.213-.16.4-.44.56-.88.467-1.66.847-2.34 1.14.72.453 1.48.8 2.28 1.04 1.213.307 1.526.886.94 1.74-.374.546-.974.7-1.8.46-1.627-.52-2.98-1.307-4.06-2.36-1.04-1-1.88-2.293-2.52-3.88-.72.6-1.52 1.133-2.4 1.6v2.38c.173-.013.446-.04.82-.08l2.66-.3c.666-.053 1.006.253 1.02.92.026.613-.28.96-.92 1.04l-5.76.7c-.547.066-.947.113-1.2.14-.32.04-.554-.02-.7-.18-.147-.134-.247-.374-.3-.72-.107-.707.173-1.087.84-1.14a130.4 130.4 0 011.28-.12v-1.62c-.854.32-1.707.573-2.56.76-.56.12-1-.033-1.32-.46-.294-.4-.367-.713-.22-.94.12-.213.44-.373.96-.48 1.72-.387 3.206-.9 4.46-1.54h-4.52c-.68 0-1.02-.347-1.02-1.04zm12.48 2.76a23.117 23.117 0 002.94-1.72h-4.16c.36.667.766 1.24 1.22 1.72zm88.2-1.9h9.04c.386 0 .7.12.94.36s.36.553.36.94v3.68c0 .386-.12.7-.36.94s-.554.36-.94.36h-9.04c-.387 0-.7-.12-.94-.36s-.36-.554-.36-.94v-3.68c0-.387.12-.7.36-.94s.553-.36.94-.36zm1.02 4.38c0 .227.113.34.34.34h6.08c.32 0 .48-.16.48-.48v-.32h-6.9v.46zm0-2.04h6.9v-.46c0-.213-.107-.32-.32-.32h-6.1c-.32 0-.48.16-.48.48v.3zm21.26 2.56c1.173-.16 2.153-.333 2.94-.52-.454-.32-.78-.573-.98-.76-.227-.227-.314-.447-.26-.66.053-.213.233-.373.54-.48l.2-.08h-1.9c-.56 0-.84-.28-.84-.84 0-.56.28-.84.84-.84h8.5c.48 0 .79.14.93.42.14.28.083.687-.17 1.22a6.84 6.84 0 01-2.12 2.02c.786.173 1.54.307 2.26.4.586.067.96.2 1.12.4.173.213.106.543-.2.99-.307.446-.774.63-1.4.55-1.587-.24-3.014-.62-4.28-1.14-1.44.52-3.02.9-4.74 1.14-.64.08-1.08-.114-1.32-.58-.214-.4-.24-.7-.08-.9.146-.173.466-.287.96-.34zm5.28-1.28c.853-.36 1.533-.767 2.04-1.22h-3.98c.493.453 1.14.86 1.94 1.22z"/></svg>