<svg xmlns="http://www.w3.org/2000/svg" width="173" height="49"><path fill-rule="evenodd" fill="#FFC919" d="M24.529.425h123.5c13.379 0 24.225 10.846 24.225 24.225 0 13.379-10.846 24.225-24.225 24.225h-123.5C11.15 48.875.304 38.029.304 24.65.304 11.271 11.15.425 24.529.425z"/><path fill-rule="evenodd" fill="#3E3E3E" d="M123.598 28.654c-.24.24-.553.36-.94.36h-10.26c-.36 1.894-.973 3.534-1.84 4.92-.306.4-.593.627-.86.68-.293.067-.613-.047-.96-.34-.626-.533-.64-1.22-.04-2.06.707-1.2 1.2-2.626 1.48-4.28.187-1.146.28-2.526.28-4.14v-4.32c0-.453.134-.78.4-.98.267-.2.614-.24 1.04-.12l.16.04c3.6-.453 6.587-1.04 8.96-1.76.267-.08.5-.086.7-.02.174.054.374.187.6.4.427.4.627.727.6.98-.026.267-.306.474-.84.62-2.453.654-5.526 1.207-9.22 1.66v1.4h9.8c.387 0 .7.12.94.36s.36.554.36.94v4.72c0 .387-.12.7-.36.94zm-2.02-4.28c0-.32-.16-.48-.48-.48h-8.24c0 .96-.046 1.934-.14 2.92h8.38c.32 0 .48-.16.48-.48v-1.96zm-17.12 10.2c-.426.24-1.046.38-1.86.42-.92.027-1.48-.28-1.68-.92-.28-.933.187-1.386 1.4-1.36.107-.013.22-.02.34-.02.28 0 .42-.133.42-.4v-8h-4.14c-.386 0-.7-.12-.94-.36s-.36-.553-.36-.94v-4.52c0-.386.12-.7.36-.94s.554-.36.94-.36h5.16c.387 0 .7.12.94.36s.36.554.36.94v13.84c0 .627-.066 1.107-.2 1.44-.146.36-.393.633-.74.82zm-1.38-15.26c0-.293-.146-.44-.44-.44h-2.28c-.32 0-.48.16-.48.48v.54h3.2v-.58zm0 2.12h-3.2v.66c0 .32.16.48.48.48h2.72v-1.14zm-1.3 4.78c0 .627-.313.94-.94.94h-.92v1.5h1.2c.64 0 .96.32.96.96 0 .654-.32.98-.96.98h-1.2v3.1c0 .68-.34 1.02-1.02 1.02-.693 0-1.04-.34-1.04-1.02v-3.1h-1.9c-.213 1.52-.78 2.773-1.7 3.76-.546.48-1.046.52-1.5.12-.56-.507-.493-1.073.2-1.7.48-.6.807-1.326.98-2.18h-1.04c-.64 0-.96-.326-.96-.98 0-.64.32-.96.96-.96h1.12v-1.5h-.88c-.626 0-.94-.313-.94-.94 0-.626.314-.94.94-.94h7.7c.627 0 .94.314.94.94zm-3.92.94h-1.84v1.5h1.84v-1.5zm-2.84-2.9h-4.02v9.7c0 .76-.38 1.14-1.14 1.14-.773 0-1.16-.38-1.16-1.14v-15.48c0-.386.12-.7.36-.94s.554-.36.94-.36h5.02c.387 0 .7.12.94.36s.36.554.36.94v4.48c0 .387-.12.7-.36.94s-.553.36-.94.36zm-.92-4.94c0-.293-.146-.44-.44-.44h-2.18c-.32 0-.48.16-.48.48v.54h3.1v-.58zm0 2.12h-3.1v1.1h2.62c.32 0 .48-.16.48-.48v-.62zm-9.52 9.94c-.373.24-.86.394-1.46.46-.96.04-1.56-.3-1.8-1.02-.173-.56-.14-.953.1-1.18.214-.213.64-.313 1.28-.3.227 0 .34-.12.34-.36v-8.6c0-.32-.16-.48-.48-.48h-1.52c-.32 0-.48.16-.48.48v13.54c0 .8-.4 1.2-1.2 1.2-.8 0-1.2-.4-1.2-1.2v-15.12c0-.386.12-.7.36-.94s.554-.36.94-.36h4.74c.387 0 .7.12.94.36s.36.554.36.94v10.26c0 .6-.06 1.074-.18 1.42-.146.4-.393.7-.74.9zm-8.18 2.66c-.373.227-.92.34-1.64.34h-3.1c-1.2 0-2.003-.193-2.41-.58-.406-.387-.61-1.12-.61-2.2v-3.88c0-.72.367-1.08 1.1-1.08.72 0 1.08.36 1.08 1.08v.3h4.72c.667 0 1 .334 1 1 0 .68-.333 1.02-1 1.02h-4.72v1.54c0 .32.067.524.2.61.134.087.434.13.9.13h2.64c.227 0 .394-.026.5-.08.347-1.133.907-1.533 1.68-1.2.28.12.46.367.54.74.054.307.047.647-.02 1.02-.186.6-.473 1.013-.86 1.24zm-.52-8.04h-6.06c-.386 0-.7-.12-.94-.36s-.36-.553-.36-.94v-5.26c0-.386.12-.7.36-.94s.554-.36.94-.36h1.24c.027-.066.06-.17.1-.31.04-.14.067-.243.08-.31.094-.4.25-.683.47-.85.22-.166.537-.236.95-.21.48.04.79.18.93.42s.124.594-.05 1.06a.357.357 0 00-.05.09c-.02.047-.036.084-.05.11h2.44c.387 0 .7.12.94.36s.36.554.36.94v5.26c0 .387-.12.7-.36.94s-.553.36-.94.36zm-.98-5.56c0-.32-.16-.48-.48-.48h-3.24c-.32 0-.48.16-.48.48v.76h4.2v-.76zm0 2.46h-4.2v.8c0 .32.16.48.48.48h3.24c.32 0 .48-.16.48-.48v-.8zm-10.1 11.42h-15.54c-.786 0-1.18-.4-1.18-1.2 0-.786.394-1.18 1.18-1.18h8.68c.84-2.306 1.514-4.853 2.02-7.64.134-.933.66-1.313 1.58-1.14.92.174 1.254.74 1 1.7-.72 2.827-1.426 5.187-2.12 7.08h4.38c.787 0 1.18.394 1.18 1.18 0 .8-.393 1.2-1.18 1.2zm-10.94-10.3a32.557 32.557 0 011.38 5.7c.054.347 0 .62-.16.82-.146.174-.406.314-.78.42-.466.12-.813.114-1.04-.02-.253-.146-.406-.446-.46-.9a35.88 35.88 0 00-.44-2.44 39.814 39.814 0 00-.74-2.88c-.253-.76.02-1.24.82-1.44.707-.186 1.18.06 1.42.74zm10.4-1.76h-14.4c-.773 0-1.16-.393-1.16-1.18 0-.773.387-1.16 1.16-1.16h5.88v-2.26c0-.813.407-1.22 1.22-1.22.814 0 1.22.407 1.22 1.22v2.26h6.08c.774 0 1.16.387 1.16 1.16 0 .787-.386 1.18-1.16 1.18z"/></svg>