<svg xmlns="http://www.w3.org/2000/svg" width="162" height="26"><path fill-rule="evenodd" fill="#0063BC" d="M160.848 14.524c-.503.503-1.136.754-1.898.754-.764 0-1.401-.247-1.912-.741-.512-.494-.767-1.109-.767-1.846 0-.737.255-1.352.767-1.846.511-.494 1.148-.741 1.912-.741.762 0 1.399.247 1.911.741.511.494.767 1.109.767 1.846 0 .737-.26 1.348-.78 1.833zM143.84 24.768h-12.457c-.763 0-1.144-.381-1.144-1.144 0-.763.381-1.144 1.144-1.144h2.678a8.484 8.484 0 00-.442-1.326c-.173-.347-.199-.654-.078-.923.121-.269.373-.446.754-.533l.443-.13h-1.509c-.399 0-.719-.121-.962-.364s-.364-.563-.364-.962v-1.924c0-.503.156-.91.468-1.222.312-.312.719-.468 1.222-.468h8.192c.503 0 .911.156 1.223.468.312.312.468.719.468 1.222v1.56c0 .503-.156.91-.468 1.222-.312.312-.72.468-1.223.468h-1.014l.936.26c.537.139.668.468.39.988a52.094 52.094 0 01-.858 1.664h2.601c.763 0 1.144.381 1.144 1.144 0 .763-.381 1.144-1.144 1.144zm-7.412-2.6a.666.666 0 01-.39.286l-.078.026h3.355l-.39-.104c-.156-.052-.208-.139-.156-.26.346-.728.667-1.577.962-2.548h-4.187c.381.624.702 1.352.962 2.184a.52.52 0 01-.078.416zm4.421-5.044v-.104c0-.381-.191-.572-.572-.572h-5.201c-.416 0-.624.208-.624.624v.104c0 .381.19.572.572.572h5.201c.416 0 .624-.208.624-.624zm2.601-3.354h-11.521c-.78 0-1.17-.39-1.17-1.17 0-.78.39-1.17 1.17-1.17h11.521c.78 0 1.17.39 1.17 1.17 0 .78-.39 1.17-1.17 1.17zm-.91-3.198h-9.701c-.503 0-.91-.156-1.222-.468-.312-.312-.468-.719-.468-1.222v-4.55c0-.503.156-.91.468-1.222.312-.312.719-.468 1.222-.468h1.691v-.52c0-.763.381-1.144 1.144-1.144.763 0 1.144.381 1.144 1.144v.52h1.508v-.52c0-.763.382-1.144 1.145-1.144.762 0 1.144.381 1.144 1.144v.52h1.925c.502 0 .91.156 1.222.468.312.312.468.719.468 1.222v4.55c0 .503-.156.91-.468 1.222-.312.312-.72.468-1.222.468zm-7.542-6.032h-1.171c-.173 0-.26.087-.26.26v.91h1.431V4.54zm0 2.938h-1.431v.676c0 .347.173.52.52.52h.911V7.478zm3.328-2.938h-1.534v1.17h1.534V4.54zm0 2.938h-1.534v1.196h1.534V7.478zm3.355-2.444c0-.329-.165-.494-.494-.494h-1.066v1.17h1.56v-.676zm0 2.444h-1.56v1.196h1.248c.208 0 .312-.104.312-.312v-.884zm-12.873 2.964h-1.742v13.546c0 .832-.416 1.248-1.249 1.248-.849 0-1.274-.416-1.274-1.248V10.442h-1.976c-.902 0-1.353-.451-1.353-1.352s.451-1.352 1.353-1.352h6.241c.901 0 1.352.451 1.352 1.352s-.451 1.352-1.352 1.352zm-.468-5.174h-5.201c-.884 0-1.327-.442-1.327-1.326 0-.884.443-1.326 1.327-1.326h5.201c.884 0 1.326.442 1.326 1.326 0 .884-.442 1.326-1.326 1.326zm-6.788 7.488c0-.659.33-.988.989-.988.658 0 .988.329.988.988v2.132c0 1.681-.061 3.077-.182 4.186a21.502 21.502 0 01-.494 2.756c-.26.867-.728 1.031-1.405.494-.451-.347-.598-.815-.442-1.404.364-1.491.546-3.527.546-6.11v-2.054zm-4.447-7.384h-8.816c-.087.312-.217.763-.39 1.352-.139.451-.234.78-.286.988h8.088c.503 0 .91.156 1.222.468.312.312.468.719.468 1.222v12.844c0 .503-.156.91-.468 1.222-.312.312-.719.468-1.222.468H98.147c-.503 0-.911-.156-1.223-.468-.312-.312-.468-.719-.468-1.222V9.402c0-.503.156-.91.468-1.222.312-.312.72-.468 1.223-.468h6.241c.191-.936.329-1.716.416-2.34h-7.958c-.971 0-1.456-.485-1.456-1.456s.485-1.456 1.456-1.456h20.259c.971 0 1.457.485 1.457 1.456s-.486 1.456-1.457 1.456zM102.048 15.85v-5.278h-2.003c-.416 0-.624.208-.624.624v9.282c0 .416.208.624.624.624h2.003V15.85zm9.44 0v5.252h2.158c.417 0 .625-.208.625-.624v-9.282c0-.416-.208-.624-.625-.624h-2.158v5.278zm-6.684 5.252h3.927v-1.924h-3.927v1.924zm0-4.342h3.927v-1.976h-3.927v1.976zm0-6.188v1.794h3.927v-1.794h-3.927zM91.593 24.456c-.486.399-1.24.598-2.262.598h-3.407c-1.509 0-2.523-.277-3.043-.832-.486-.52-.728-1.525-.728-3.016v-4.16h-3.121c-.26 1.976-.789 3.519-1.586 4.628-.954 1.317-2.497 2.34-4.63 3.068-.589.156-1.127.217-1.612.182-.624-.069-1.058-.295-1.3-.676-.347-.555-.252-1.083.286-1.586.45-.399 1.092-.711 1.924-.936 1.214-.485 2.098-1.127 2.653-1.924.451-.659.771-1.577.962-2.756h-1.664c-.451 0-.811-.134-1.079-.403-.269-.269-.404-.628-.404-1.079V3.474c0-.503.156-.91.469-1.222.312-.312.719-.468 1.222-.468h13.471c.503 0 .91.156 1.222.468.313.312.469.719.469 1.222v11.882c0 .503-.156.91-.469 1.222-.312.312-.719.468-1.222.468h-2.522v4.134c0 .416.065.676.195.78.13.104.446.156.949.156h2.678c.382 0 .633-.13.755-.39.104-.832.312-1.465.624-1.898.398-.537.893-.676 1.482-.416.381.156.633.537.754 1.144.104.468.121.988.052 1.56-.225 1.127-.598 1.907-1.118 2.34zM86.314 5.112c0-.416-.208-.624-.624-.624h-9.519c-.416 0-.624.208-.624.624V6.1h10.767v-.988zm0 3.484H75.547v1.612h10.767V8.596zm-.624 5.746c.416 0 .624-.208.624-.624v-.988H75.547v.988c0 .416.208.624.624.624h9.519zm-23.406 3.016H48.943c-.468 2.461-1.266 4.593-2.393 6.396-.399.52-.772.815-1.118.884-.382.087-.798-.061-1.249-.442-.815-.693-.832-1.586-.052-2.678.919-1.56 1.561-3.415 1.925-5.564.243-1.491.364-3.285.364-5.382V4.956c0-.589.173-1.014.52-1.274.347-.26.797-.312 1.352-.156l.209.052c4.681-.589 8.564-1.352 11.65-2.288.347-.104.651-.113.911-.026.225.069.485.243.78.52.554.52.815.945.78 1.274-.035.347-.399.615-1.092.806-3.191.849-7.187 1.569-11.989 2.158v1.82h12.743c.503 0 .91.156 1.222.468.312.312.468.719.468 1.222v6.136c0 .503-.156.91-.468 1.222-.312.312-.719.468-1.222.468zm-1.404-6.032c0-.416-.208-.624-.625-.624H49.541c0 1.248-.061 2.513-.182 3.796h10.896c.417 0 .625-.208.625-.624v-2.548zM36.876 9.532h2.6c.954 0 1.431.477 1.431 1.43s-.477 1.43-1.431 1.43h-1.014v11.232c0 .988-.494 1.482-1.482 1.482-.989 0-1.483-.494-1.483-1.482V12.392h-2.626c-.035 5.061-1.006 8.944-2.913 11.648-.33.399-.676.602-1.04.611-.364.009-.694-.169-.988-.533l-.052-.052c-.348-.26-.538-.576-.573-.949-.035-.373.104-.75.416-1.131.919-1.352 1.561-2.999 1.925-4.94.243-1.352.364-3.025.364-5.018V4.8c0-.555.156-.949.468-1.183.312-.234.728-.273 1.248-.117l.078.026c2.254-.572 4.101-1.17 5.54-1.794.381-.191.728-.251 1.04-.182.26.069.563.26.91.572.52.468.754.871.702 1.209-.052.338-.399.637-1.04.897a48.487 48.487 0 01-6.085 1.664v3.64h4.005zm-7.646 1.04c0 .849-.425 1.274-1.274 1.274h-3.199v2.002h2.938c.867 0 1.301.433 1.301 1.3s-.434 1.3-1.301 1.3h-2.938v.208c.485.347 1.395 1.049 2.73 2.106.347.295.529.572.547.832 0 .243-.156.555-.469.936-.347.416-.667.628-.962.637-.295.009-.615-.186-.962-.585-.087-.087-.23-.234-.429-.442a37.73 37.73 0 00-.455-.468v4.056c0 .988-.494 1.482-1.483 1.482-.988 0-1.482-.494-1.482-1.482v-3.744a19.331 19.331 0 01-2.237 2.704c-.381.347-.719.52-1.014.52-.295-.017-.607-.208-.936-.572-.382-.433-.555-.815-.52-1.144.034-.329.286-.676.754-1.04a17.526 17.526 0 003.329-4.004h-2.601c-.867 0-1.3-.433-1.3-1.3s.433-1.3 1.3-1.3h3.225v-2.002h-3.329c-.849 0-1.274-.425-1.274-1.274s.425-1.274 1.274-1.274h1.092a7.277 7.277 0 00-.312-1.508c-.139-.416-.13-.776.026-1.079.156-.303.443-.498.859-.585l.208-.052h-1.639c-.832 0-1.248-.425-1.248-1.274 0-.832.416-1.248 1.248-1.248h3.095v-.884c0-.988.494-1.482 1.482-1.482.989 0 1.483.494 1.483 1.482v.884h3.016c.833 0 1.249.416 1.249 1.248 0 .849-.416 1.274-1.249 1.274h-1.404l.806.156c.451.087.581.364.39.832a50.834 50.834 0 01-.936 2.236h1.327c.849 0 1.274.425 1.274 1.274zm-4.837-2.314a12.06 12.06 0 00.676-2.184h-3.875c.242.485.451 1.049.624 1.69.087.347.039.659-.143.936s-.455.468-.819.572l-.078.026h5.045l-.91-.208c-.226-.052-.39-.156-.494-.312-.104-.156-.113-.329-.026-.52zm-21.482 7.02c-.763 0-1.4-.247-1.911-.741-.512-.494-.767-1.109-.767-1.846 0-.737.255-1.352.767-1.846.511-.494 1.148-.741 1.911-.741.763 0 1.4.247 1.912.741.511.494.767 1.109.767 1.846 0 .737-.26 1.348-.78 1.833-.503.503-1.136.754-1.899.754zm126.209-3.536c.641 0 .962.321.962.962v7.722c0 .641-.321.962-.962.962s-.962-.321-.962-.962v-7.722c0-.641.321-.962.962-.962z"/></svg>