<svg xmlns="http://www.w3.org/2000/svg" width="162" height="26"><path fill-rule="evenodd" fill="#0063BC" d="M160.966 14.524c-.503.503-1.135.754-1.898.754-.763 0-1.4-.247-1.912-.741-.511-.494-.767-1.109-.767-1.846 0-.737.256-1.352.767-1.846.512-.494 1.149-.741 1.912-.741.763 0 1.4.247 1.911.741.512.494.768 1.109.768 1.846 0 .737-.26 1.348-.781 1.833zm-17.008 10.244h-12.457c-.763 0-1.144-.381-1.144-1.144 0-.763.381-1.144 1.144-1.144h2.679a8.59 8.59 0 00-.442-1.326c-.174-.347-.2-.654-.078-.923.121-.269.372-.446.754-.533l.442-.13h-1.508c-.399 0-.72-.121-.963-.364s-.364-.563-.364-.962v-1.924c0-.503.156-.91.468-1.222.313-.312.72-.468 1.223-.468h8.192c.502 0 .91.156 1.222.468.312.312.468.719.468 1.222v1.56c0 .503-.156.91-.468 1.222-.312.312-.72.468-1.222.468h-1.014l.936.26c.537.139.667.468.39.988a52.094 52.094 0 01-.858 1.664h2.6c.763 0 1.145.381 1.145 1.144 0 .763-.382 1.144-1.145 1.144zm-7.412-2.6a.666.666 0 01-.39.286l-.078.026h3.355l-.39-.104c-.156-.052-.208-.139-.156-.26a18.35 18.35 0 00.962-2.548h-4.187c.381.624.702 1.352.962 2.184a.52.52 0 01-.078.416zm4.422-5.044v-.104c0-.381-.191-.572-.573-.572h-5.201c-.416 0-.624.208-.624.624v.104c0 .381.191.572.572.572h5.201c.416 0 .625-.208.625-.624zm2.6-3.354h-11.521c-.78 0-1.17-.39-1.17-1.17 0-.78.39-1.17 1.17-1.17h11.521c.78 0 1.17.39 1.17 1.17 0 .78-.39 1.17-1.17 1.17zm-.91-3.198h-9.7c-.503 0-.911-.156-1.223-.468-.312-.312-.468-.719-.468-1.222v-4.55c0-.503.156-.91.468-1.222.312-.312.72-.468 1.223-.468h1.69v-.52c0-.763.381-1.144 1.144-1.144.763 0 1.145.381 1.145 1.144v.52h1.508v-.52c0-.763.381-1.144 1.144-1.144.763 0 1.144.381 1.144 1.144v.52h1.925c.503 0 .91.156 1.222.468.312.312.468.719.468 1.222v4.55c0 .503-.156.91-.468 1.222-.312.312-.719.468-1.222.468zm-7.542-6.032h-1.17c-.174 0-.26.087-.26.26v.91h1.43V4.54zm0 2.938h-1.43v.676c0 .347.173.52.52.52h.91V7.478zm3.329-2.938h-1.534v1.17h1.534V4.54zm0 2.938h-1.534v1.196h1.534V7.478zm3.355-2.444c0-.329-.165-.494-.494-.494h-1.067v1.17h1.561v-.676zm0 2.444h-1.561v1.196h1.249c.208 0 .312-.104.312-.312v-.884zm-12.873 2.964h-1.743v13.546c0 .832-.416 1.248-1.248 1.248-.85 0-1.274-.416-1.274-1.248V10.442h-1.977c-.902 0-1.352-.451-1.352-1.352s.45-1.352 1.352-1.352h6.242c.901 0 1.352.451 1.352 1.352s-.451 1.352-1.352 1.352zm-.469-5.174h-5.201c-.884 0-1.326-.442-1.326-1.326 0-.884.442-1.326 1.326-1.326h5.201c.885 0 1.327.442 1.327 1.326 0 .884-.442 1.326-1.327 1.326zm-6.787 7.488c0-.659.329-.988.988-.988s.988.329.988.988v2.132c0 1.681-.061 3.077-.182 4.186a21.33 21.33 0 01-.494 2.756c-.26.867-.728 1.031-1.404.494-.451-.347-.598-.815-.442-1.404.364-1.491.546-3.527.546-6.11v-2.054zm-6.606 11.284c-3.693-2.756-6.293-6.647-7.802-11.674-1.734 5.287-4.447 9.265-8.14 11.934-.901.607-1.734.563-2.496-.13-.59-.52-.841-1.005-.754-1.456.069-.416.459-.841 1.17-1.274 3.537-2.479 5.99-6.361 7.36-11.648.121-.555.351-.953.689-1.196.338-.243.732-.321 1.183-.234l.078.026a26.767 26.767 0 01-.364-2.808h-4.291c-1.04 0-1.56-.529-1.56-1.586 0-1.04.52-1.56 1.56-1.56h5.643c.486 0 .902.13 1.249.39.312.26.468.529.468.806.208 7.471 2.739 13.165 7.594 17.082.676.468 1.144.979 1.404 1.534.295.659.217 1.239-.234 1.742-.728.815-1.647.832-2.757.052zm-23.9-11.128c-.329.052-.728-.043-1.196-.286-1.474-.832-2.861-1.907-4.161-3.224v.624c0 .295-.147.442-.442.442h-8.218c-.538 0-.806-.269-.806-.806v-.078a23.144 23.144 0 01-4.629 3.484c-.416.208-.777.29-1.08.247-.303-.043-.594-.238-.871-.585-.381-.485-.524-.888-.429-1.209.095-.321.438-.62 1.027-.897a24.283 24.283 0 002.679-1.872c-.382-.381-.928-.849-1.638-1.404-.746-.52-.798-1.101-.156-1.742.485-.485 1.014-.546 1.586-.182.884.555 1.56 1.075 2.028 1.56A16.499 16.499 0 0076.81 4.41h-4.031c-.832 0-1.248-.416-1.248-1.248 0-.832.416-1.248 1.248-1.248h6.059c.607 0 1.023.182 1.249.546.225.364.234.893.026 1.586a14.012 14.012 0 01-1.925 3.432c-.225.277-.13.416.286.416h5.384c.416 0 .494-.165.234-.494-.902-1.179-1.743-2.557-2.523-4.134-.434-.919-.173-1.525.78-1.82.815-.26 1.405 0 1.769.78.19.399.459.884.806 1.456a18.842 18.842 0 001.716-1.534c.312-.329.615-.507.91-.533.295-.026.633.091 1.015.351.849.607.84 1.265-.026 1.976a89.453 89.453 0 01-2.237 1.638c.26.295.65.719 1.17 1.274l.026.052a29.587 29.587 0 002.081-1.794c.52-.589 1.127-.641 1.82-.156.833.589.841 1.222.026 1.898a37.446 37.446 0 01-2.106 1.612c.711.537 1.404.988 2.08 1.352.677.329 1.075.667 1.197 1.014.138.399-.009.875-.442 1.43-.295.399-.625.615-.989.65zM62.142 24.586c-.797.347-2.037.537-3.719.572-1.317.035-2.141-.381-2.47-1.248-.52-1.335.173-1.967 2.08-1.898h1.665c.312 0 .528-.056.65-.169.121-.113.182-.308.182-.585v-3.77H49.503c-.624 2.669-1.656 4.845-3.095 6.526-.832.832-1.621.893-2.366.182-.85-.797-.772-1.707.234-2.73 1.109-1.439 1.881-3.207 2.314-5.304.295-1.439.443-3.241.443-5.408V3.89c0-.503.156-.91.468-1.222.312-.312.719-.468 1.222-.468H62.09c.503 0 .91.156 1.223.468.312.312.468.719.468 1.222v17.42c0 .936-.122 1.651-.364 2.145-.243.494-.668.871-1.275 1.131zM60.53 5.84c0-.416-.208-.624-.624-.624H50.83c-.417 0-.625.208-.625.624v2.548H60.53V5.84zm0 5.486H50.205a52.606 52.606 0 01-.182 3.172H60.53v-3.172zm-19.557 3.588c0 .919-.459 1.378-1.378 1.378h-2.393c-.017.243-.043.581-.078 1.014a61.5 61.5 0 01-.13 1.794h1.535c.901 0 1.352.451 1.352 1.352s-.451 1.352-1.352 1.352h-1.847c-.173 1.057-.399 1.777-.676 2.158-.468.676-1.179 1.083-2.133 1.222-.503.069-1.231.104-2.184.104-.85-.035-1.37-.373-1.561-1.014-.26-.919.243-1.352 1.509-1.3h.78c.225 0 .399-.026.52-.078.121-.052.243-.165.364-.338.121-.173.225-.425.312-.754H22.899v.052c-.122.624-.564.919-1.327.884-1.283-.087-1.838-.607-1.664-1.56.208-1.144.468-2.773.78-4.888H18.53c-.92 0-1.379-.459-1.379-1.378 0-.919.459-1.378 1.379-1.378h2.548c.017-.069.035-.173.052-.312.208-1.785.355-3.094.442-3.926-.243.312-.425.537-.546.676-.381.433-.745.676-1.092.728-.399.087-.824-.026-1.274-.338-.59-.381-.898-.758-.924-1.131-.026-.373.213-.802.716-1.287 1.439-1.595 2.687-3.475 3.745-5.642.433-.971 1.144-1.317 2.132-1.04 1.144.329 1.473 1.04.988 2.132l-.156.312h13.446c.918 0 1.378.459 1.378 1.378 0 .919-.46 1.378-1.378 1.378H23.549c-.156.26-.399.633-.728 1.118a7.677 7.677 0 00-.338.52h13.289c1.144 0 1.69.763 1.638 2.288-.017.624-.043 1.387-.078 2.288-.017.381-.026.667-.026.858h2.289c.919 0 1.378.459 1.378 1.378zm-6.97 4.186c.017-.156.035-.399.052-.728.07-.901.113-1.629.13-2.184h-5.331c.728.381 1.465.849 2.211 1.404.225.191.338.42.338.689 0 .269-.122.524-.364.767l-.052.052h3.016zm-10.428-1.768a39.85 39.85 0 01-.26 1.768h5.643a32.067 32.067 0 00-1.898-1.3c-.347-.191-.542-.429-.585-.715-.044-.286.082-.568.377-.845l.052-.052h-3.147c-.035.26-.096.641-.182 1.144zm3.641-6.474l.052-.052h-2.809a30.23 30.23 0 00-.182 1.508 50.306 50.306 0 00-.182 1.326h5.123a27.2 27.2 0 00-1.768-1.17c-.364-.191-.568-.438-.611-.741-.044-.303.082-.594.377-.871zm6.553-.052h-4.603c.728.381 1.439.815 2.133 1.3a.888.888 0 01.338.702c0 .277-.122.537-.364.78l-.052.052h3.068c.052-.676.079-1.404.079-2.184.017-.433-.183-.65-.599-.65zM3.03 15.278c-.763 0-1.4-.247-1.912-.741-.511-.494-.767-1.109-.767-1.846 0-.737.256-1.352.767-1.846.512-.494 1.149-.741 1.912-.741.763 0 1.4.247 1.911.741.512.494.768 1.109.768 1.846 0 .737-.261 1.348-.781 1.833-.503.503-1.135.754-1.898.754zm68.267 6.916h4.967c-.226-.676-.416-1.179-.572-1.508-.191-.364-.23-.685-.117-.962.112-.277.368-.459.767-.546l.078-.026h-1.483c-.399 0-.719-.121-.962-.364s-.364-.563-.364-.962V13.64c0-.503.156-.91.468-1.222.312-.312.719-.468 1.222-.468h11.521c.503 0 .911.156 1.223.468.312.312.468.719.468 1.222v3.822c0 .503-.156.91-.468 1.222-.312.312-.72.468-1.223.468h-.624l.572.13c.295.052.364.225.208.52a28.89 28.89 0 01-1.274 2.392h5.201c.85 0 1.275.425 1.275 1.274s-.425 1.274-1.275 1.274H71.297c-.85 0-1.275-.425-1.275-1.274s.425-1.274 1.275-1.274zm7.736-.429c-.113.199-.308.334-.585.403l-.078.026h5.071l-.416-.104c-.191-.035-.243-.121-.156-.26.434-.797.841-1.69 1.223-2.678H78.11c.381.572.702 1.213.962 1.924.087.26.074.49-.039.689zm-2.457-5.681c0 .416.208.624.624.624h7.516c.416 0 .624-.208.624-.624v-1.066c0-.416-.208-.624-.624-.624H77.2c-.416 0-.624.208-.624.624v1.066zm52.663-4.342c.641 0 .962.321.962.962v7.722c0 .641-.321.962-.962.962-.642 0-.963-.321-.963-.962v-7.722c0-.641.321-.962.963-.962z"/></svg>