<svg width="115" height="115" viewBox="0 0 115 115" fill="none" xmlns="http://www.w3.org/2000/svg"><path fill-rule="evenodd" clip-rule="evenodd" d="M76.582 91.33c-.421.126-.744.147-.97.063-.252-.098-.441-.344-.568-.737a20.333 20.333 0 00-.926-1.896c-.492-.8-.31-1.34.547-1.621.562-.169 1.01-.028 1.348.421.295.435.569.899.822 1.39.196.337.365.674.506 1.011.224.688-.03 1.144-.76 1.369zm-.358-15.69h-6.825v.927h4.992c.408 0 .738.126.99.379.253.253.38.583.38.99v3.496c0 .407-.127.737-.38.989-.252.253-.582.379-.99.379h-.695a18.494 18.494 0 012.886 1.938c.295.253.428.492.4.716-.042.197-.224.421-.547.674-.548.407-1.068.379-1.56-.084a2.553 2.553 0 00-.231-.211l-2.57.063-3.412.063c.8.548 1.397.998 1.79 1.348.267.253.386.492.358.716-.028.211-.19.443-.484.695-.295.253-.555.387-.78.4-.252.015-.505-.112-.758-.379a11.897 11.897 0 00-1.348-1.137c-.323-.238-.488-.498-.495-.779-.007-.281.144-.548.453-.8l.042-.042c-.73.014-1.784.028-3.16.042-1.854.028-3.174.049-3.96.063-.337 0-.57-.084-.695-.253-.113-.154-.183-.417-.211-.79-.028-.371.02-.635.148-.789.126-.183.358-.274.695-.274 1.909.028 4.107.028 6.593 0V82.8H61.9c-.408 0-.738-.126-.99-.379-.253-.252-.38-.582-.38-.989v-3.496c0-.407.127-.737.38-.99.252-.253.582-.379.99-.379h4.95v-.927h-6.614c-.646 0-.97-.33-.97-.99 0-.645.324-.969.97-.969h6.614v-.042c0-.294.133-.533.4-.716.253-.168.548-.252.885-.252.337 0 .625.084.864.252.266.183.4.422.4.716v.042h6.825c.646 0 .969.324.969.969 0 .66-.323.99-.97.99zm-6.825 8.34l2.612-.021a3.476 3.476 0 00-.484-.274.742.742 0 00-.17-.105l-.125-.063c-.113-.071-.12-.134-.021-.19l.779-.527h-2.591v1.18zm0-2.654h3.413c.337 0 .505-.168.505-.505v-.463h-3.918v.968zm0-2.337h3.918v-.548c0-.281-.14-.421-.421-.421h-3.497v.969zm-2.55-.969h-3.475c-.337 0-.505.168-.505.505v.464h3.98v-.969zm0 2.338h-3.98v.547c0 .281.14.421.42.421h3.56v-.968zm-6.698 7.56c.28-.772.794-1.004 1.538-.695.688.267.906.751.653 1.453-.14.408-.288.773-.442 1.095-.225.478-.4.829-.527 1.053-.38.604-.892.723-1.538.358-.786-.449-.934-1.032-.442-1.748.35-.617.604-1.123.758-1.516zm-4.465-3.664h-.043c.043.042.099.102.169.179s.119.137.147.179c.35.477.253.863-.295 1.158-.533.281-.947.204-1.242-.232a10.37 10.37 0 00-.885-1.053c-.1.534-.284.903-.558 1.106-.274.204-.706.305-1.296.305h-1.748a5.116 5.116 0 01-.632.611h4.487c.505 0 .832.141.979.421.148.281.08.688-.2 1.222-.463.646-1.116 1.207-1.96 1.685.956.182 1.897.323 2.824.421.59.042.962.175 1.116.4.169.224.102.568-.2 1.032-.302.463-.776.66-1.422.589-1.98-.266-3.672-.667-5.076-1.2-1.433.505-3.09.906-4.972 1.2-.646.099-1.116-.077-1.411-.526-.506-.744-.218-1.187.863-1.327a39.153 39.153 0 003.076-.568 8.443 8.443 0 01-1.432-1.138 8.745 8.745 0 01-.611.295l-.443.19c-.576.239-1.04.161-1.39-.232-.548-.618-.295-1.109.758-1.474 1.348-.534 2.437-1.158 3.265-1.874-.281-.155-.463-.422-.547-.801-.042-.435-.162-.512-.358-.231a10.83 10.83 0 01-1.117 1.2c-.38.309-.765.309-1.158 0-.576-.477-.562-.948.042-1.411a.956.956 0 01.073-.063c.035-.028.06-.049.074-.063H44.5c-.997 0-1.496-.506-1.496-1.517 0-.996.499-1.495 1.496-1.495h.4v-3.833c0-.407.127-.737.379-.99.253-.252.583-.379.99-.379h2.065c.028-.084.056-.217.084-.4.042-.154.07-.266.084-.337h-3.876c-.59 0-.884-.302-.884-.905 0-.59.295-.885.884-.885h11.017c.59 0 .885.295.885.885 0 .603-.295.905-.885.905h-4.571l-.337.737h3.097c.407 0 .737.127.99.379.253.253.379.583.379.99v3.833h.253c.477 0 .846.147 1.106.442.259.295.389.695.389 1.201 0 .913-.421 1.369-1.263 1.369zm-5.71 4.801c.829-.337 1.53-.716 2.107-1.137h-4.17c.519.421 1.207.8 2.064 1.137zm2.908-11.541c0-.168-.084-.252-.253-.252h-5.013c-.337 0-.506.168-.506.505v.126h5.772v-.379zm0 1.39h-5.772v.674h5.772v-.674zm0 1.685h-5.772v.653h5.772v-.653zm1.854 2.359c0-.182-.092-.274-.274-.274h-3.329c.085.084.148.141.19.169.407.435.344.814-.19 1.137-.463.281-.856.225-1.18-.169a8.713 8.713 0 00-1.263-1.137h-3.076c-.337 0-.505.169-.505.506v.063c0 .309.098.344.295.105a.957.957 0 00.095-.116.927.927 0 01.073-.095c.042-.07.098-.084.169-.042l1.2.653v-.042c0-.463.267-.695.8-.695.338 0 .612.077.823.232.21.182.316.428.316.737v.084c0 .211.042.348.126.411.084.063.274.095.569.095h1.832c.239 0 .393-.064.464-.19.098-.351.253-.477.463-.379.323.126.66.218 1.01.274-.167-.169-.21-.351-.125-.548.07-.182.224-.337.463-.463a1.21 1.21 0 01.548-.127c.197 0 .365.071.506.211v-.4zM41.95 77.472V91.14c0 .786-.393 1.18-1.18 1.18-.786 0-1.18-.394-1.18-1.18v-9.35a.395.395 0 00-.052.073 1.772 1.772 0 00-.053.095c-.407.534-.765.793-1.074.779-.31-.014-.597-.316-.864-.905-.154-.365-.217-.685-.19-.959.029-.273.162-.565.4-.874 1.237-1.698 2.262-3.727 3.077-6.086.266-.814.779-1.109 1.537-.884.787.239 1.039.737.759 1.495a65.25 65.25 0 01-1.18 2.948zm22.498 9.477c.814 0 1.22.408 1.22 1.222v1.158c0 .281.086.46.254.537.169.077.562.116 1.18.116h3.623c.309 0 .534-.035.674-.105.35-1.138.94-1.559 1.77-1.264.308.113.512.358.61.737.07.323.064.688-.021 1.095-.196.59-.512 1.004-.947 1.243-.408.21-1.033.316-1.875.316H66.87c-1.446 0-2.42-.187-2.917-.558-.5-.373-.748-1.071-.748-2.096v-1.179c0-.814.414-1.222 1.243-1.222zm21.759-41.928a34.836 34.836 0 01-3.213 5.859c-.315.452-.633.697-.954.736-.262.04-.646-.068-1.15-.324-.485-.254-.77-.539-.851-.853-.08-.334.043-.746.365-1.237a39.473 39.473 0 001.729-3.121H78.01l-.53 3.003c-.301 1.708-.2 3.474.302 5.3.677 2.395 1.952 4.348 3.826 5.859.673.412 1.115.913 1.326 1.502.254.667.136 1.285-.357 1.854-.394.452-.88.697-1.455.736-.534.02-1.048-.127-1.542-.441-1.576-1.198-2.822-2.758-3.74-4.682-.743-1.57-1.132-3.042-1.164-4.416-.62 1.394-1.644 2.866-3.076 4.416a22.903 22.903 0 01-6.05 4.741c-.62.294-1.186.441-1.696.441-.586-.019-.998-.245-1.235-.677-.296-.55-.173-1.138.37-1.766.443-.511 1.082-.962 1.918-1.355 2.707-1.55 4.894-3.543 6.56-5.977 1.276-1.884 2.07-3.719 2.385-5.505l.536-3.033h-2.356a29.803 29.803 0 01-2.694 3.916c-.466.53-.9.839-1.297.927-.4.089-.845-.024-1.34-.338-.582-.373-.873-.756-.872-1.148 0-.393.279-.884.834-1.473 1.86-2.198 3.502-4.995 4.926-8.391.244-.608.579-1.06 1.004-1.354.448-.314.956-.412 1.525-.295 1.175.236 1.508.962.999 2.179a38.025 38.025 0 01-1.172 2.473h11.132c.667 0 1.107.206 1.319.619.212.412.149 1.021-.19 1.825zm-20.085.501h-4.33c-1.1 0-1.55-.56-1.352-1.679.194-1.099.84-1.648 1.94-1.648h4.329c1.099 0 1.552.549 1.358 1.648-.197 1.119-.845 1.679-1.945 1.679zm-3.23 8.626a95.875 95.875 0 001.915-1.001c1.214-.647 1.908-.353 2.082.884.119.883-.24 1.58-1.075 2.09a194.253 194.253 0 01-5.607 3.239c-.632.353-1.133.466-1.503.338-.37-.127-.647-.505-.831-1.133-.171-.589-.175-1.07-.011-1.443.164-.373.547-.707 1.149-1.001a77.882 77.882 0 002.584-1.295c.28-.138.712-.363 1.298-.678zm-7.551-12.809c-1.375 1.718-2.7 3.064-3.971 4.037-1.273.974-3.385 2.501-6.338 4.583-2.952 2.082-5.014 3.699-6.185 4.85a19.053 19.053 0 00-1.565 1.65h13.257c1.32 0 2.276.271 2.864.812.589.542.794 1.279.613 2.209-.161.83-.572 1.533-1.234 2.108-.662.576-1.552.863-2.67.863h-18.69c-1.27 0-2.193-.351-2.768-1.054-.574-.702-.77-1.527-.586-2.475.119-.61.504-1.418 1.157-2.425.652-1.007 1.305-1.798 1.959-2.374 2.705-2.336 5.126-4.337 7.26-6.005 2.136-1.667 3.644-2.763 4.525-3.288 1.579-.981 2.926-1.968 4.04-2.958 1.116-.99 2.015-2.006 2.7-3.047.685-1.041 1.124-2.06 1.318-3.059.21-1.083.14-2.053-.211-2.908a4.05 4.05 0 00-1.721-1.993c-.796-.473-1.72-.711-2.77-.711-2.218 0-4.15.974-5.798 2.92-.22.254-.637.948-1.255 2.082-.618 1.134-1.236 2.006-1.854 2.615-.617.61-1.41.915-2.374.915-.847 0-1.495-.28-1.945-.838-.45-.559-.582-1.321-.395-2.286.227-1.168.726-2.386 1.497-3.656.772-1.269 1.778-2.42 3.02-3.453 1.24-1.032 2.724-1.866 4.447-2.501 1.723-.635 3.66-.952 5.81-.952 2.59 0 4.72.406 6.392 1.219a7.547 7.547 0 012.69 2.234c.714.948 1.2 2.044 1.458 3.288.258 1.244.257 2.535-.003 3.872-.407 2.099-1.3 4.008-2.673 5.726z" fill="#FFC919"/></svg>