<svg width="115" height="115" viewBox="0 0 115 115" fill="none" xmlns="http://www.w3.org/2000/svg"><path fill-rule="evenodd" clip-rule="evenodd" d="M75.708 91.797c-.421.126-.744.147-.969.063-.253-.098-.442-.344-.569-.737a20.333 20.333 0 00-.926-1.896c-.492-.8-.31-1.34.547-1.62.562-.17 1.011-.029 1.348.42.295.435.569.9.822 1.39.196.337.365.674.506 1.011.224.688-.029 1.144-.759 1.37zm-.358-15.69h-6.825v.927h4.992c.408 0 .738.126.99.38.253.252.38.582.38.99v3.495c0 .407-.127.737-.38.99-.252.252-.582.378-.99.378h-.695a18.494 18.494 0 012.886 1.938c.295.253.428.492.4.716-.042.197-.224.421-.547.674-.548.407-1.068.38-1.559-.084a2.553 2.553 0 00-.232-.21l-2.57.062c-1.531.03-2.668.05-3.412.063.8.548 1.397.998 1.79 1.348.267.253.386.492.358.716-.028.211-.189.443-.484.695-.295.253-.555.387-.78.4-.252.015-.505-.112-.758-.379a11.897 11.897 0 00-1.348-1.137c-.323-.238-.488-.498-.495-.779-.007-.28.144-.548.453-.8l.042-.042c-.73.014-1.784.028-3.16.042-1.854.028-3.174.05-3.96.063-.337 0-.569-.084-.695-.253-.113-.154-.183-.417-.211-.79-.028-.37.021-.635.148-.789.126-.183.358-.274.695-.274 1.909.028 4.107.028 6.593 0v-1.18h-4.95c-.408 0-.738-.126-.99-.379-.253-.252-.379-.582-.379-.989v-3.496c0-.407.126-.737.379-.99.252-.253.582-.379.99-.379h4.95v-.927h-6.614c-.646 0-.969-.33-.969-.99 0-.645.323-.969.969-.969h6.614v-.042c0-.294.133-.533.4-.716.253-.168.548-.252.885-.252.337 0 .625.084.864.252.266.183.4.422.4.716v.042h6.825c.646 0 .969.324.969.97 0 .66-.323.99-.969.99zm-6.825 8.34l2.612-.02a3.476 3.476 0 00-.484-.275.742.742 0 00-.169-.105l-.126-.063c-.113-.07-.12-.134-.021-.19l.779-.527h-2.591v1.18zm0-2.654h3.413c.337 0 .505-.168.505-.505v-.463h-3.918v.968zm0-2.337h3.918v-.548c0-.28-.14-.42-.421-.42h-3.497v.968zm-2.549-.969H62.5c-.337 0-.505.168-.505.505v.464h3.981v-.969zm0 2.338h-3.981v.547c0 .281.14.421.421.421h3.56v-.968zm-6.699 7.56c.281-.772.794-1.004 1.538-.695.688.267.906.751.653 1.453-.14.408-.288.773-.442 1.095-.225.478-.4.83-.527 1.053-.379.604-.892.723-1.538.358-.786-.449-.934-1.032-.442-1.748.351-.617.604-1.123.758-1.516zm-4.465-3.664h-.043a4.024 4.024 0 01.316.358c.351.477.253.863-.295 1.158-.533.281-.947.204-1.242-.232a10.37 10.37 0 00-.885-1.053c-.099.534-.284.903-.558 1.106-.274.204-.706.305-1.296.305h-1.748a5.116 5.116 0 01-.632.611h4.487c.505 0 .832.141.979.421.148.281.081.688-.2 1.222-.463.646-1.116 1.207-1.959 1.685.955.182 1.896.323 2.823.421.59.042.962.175 1.116.4.169.224.102.568-.2 1.032-.302.463-.776.66-1.422.59-1.98-.267-3.672-.668-5.076-1.2-1.433.504-3.09.905-4.972 1.2-.646.098-1.116-.078-1.411-.527-.506-.744-.218-1.187.863-1.327a39.153 39.153 0 003.076-.568 8.443 8.443 0 01-1.432-1.138 8.745 8.745 0 01-.611.295l-.443.19c-.576.24-1.039.161-1.39-.232-.548-.618-.295-1.109.758-1.474 1.348-.534 2.437-1.158 3.265-1.874-.281-.155-.463-.422-.547-.8-.042-.436-.162-.513-.358-.232a10.83 10.83 0 01-1.117 1.2c-.379.31-.765.31-1.158 0-.576-.477-.562-.948.042-1.41a.956.956 0 01.073-.064c.035-.028.06-.049.074-.063h-.063c-.997 0-1.496-.506-1.496-1.517 0-.996.499-1.495 1.496-1.495h.4v-3.833c0-.407.127-.737.379-.99.253-.252.583-.379.99-.379h2.065c.028-.084.056-.217.084-.4.042-.154.07-.266.084-.337h-3.876c-.589 0-.884-.302-.884-.905 0-.59.295-.885.884-.885h11.017c.59 0 .885.295.885.885 0 .603-.295.905-.885.905h-4.571l-.337.737h3.097c.407 0 .737.127.99.38.253.252.379.582.379.99v3.832h.253c.477 0 .846.147 1.106.442.259.295.389.695.389 1.201 0 .913-.421 1.37-1.263 1.37zm-5.709 4.801c.828-.337 1.53-.716 2.106-1.137h-4.17c.519.421 1.207.8 2.064 1.137zm2.907-11.54c0-.169-.084-.253-.253-.253h-5.013c-.337 0-.506.168-.506.505v.126h5.772v-.379zm0 1.39h-5.772v.673h5.772v-.674zm0 1.684h-5.772v.653h5.772v-.653zm1.854 2.36c0-.183-.092-.275-.274-.275h-3.329c.085.084.148.141.19.17.407.434.344.813-.19 1.136-.463.281-.856.225-1.179-.169a8.713 8.713 0 00-1.264-1.137h-3.076c-.337 0-.505.17-.505.506v.063c0 .31.098.344.295.105a.957.957 0 00.095-.116.927.927 0 01.073-.095c.042-.07.098-.084.169-.042l1.201.653v-.042c0-.463.266-.695.8-.695.337 0 .611.077.822.232.21.182.316.428.316.737v.084c0 .211.042.348.126.411.084.063.274.095.569.095h1.832c.239 0 .393-.064.464-.19.098-.35.253-.477.463-.379.323.126.66.218 1.011.274-.168-.169-.21-.35-.126-.548.07-.182.224-.337.463-.463.169-.084.351-.127.548-.127.197 0 .365.071.506.211v-.4zm-12.787-5.477v13.668c0 .786-.393 1.18-1.18 1.18-.786 0-1.179-.394-1.179-1.18v-9.35a.395.395 0 00-.053.073 1.772 1.772 0 00-.053.095c-.407.534-.765.793-1.074.78-.309-.015-.597-.317-.864-.906-.154-.365-.217-.685-.189-.959.028-.273.161-.565.4-.874 1.236-1.698 2.261-3.727 3.076-6.086.266-.814.779-1.109 1.537-.884.787.24 1.039.737.759 1.495a65.25 65.25 0 01-1.18 2.948zm22.498 9.477c.814 0 1.221.408 1.221 1.222v1.158c0 .281.085.46.253.537.169.077.562.116 1.18.116h3.623c.309 0 .534-.035.674-.105.351-1.138.941-1.559 1.77-1.264.308.113.512.358.611.737.07.323.063.688-.022 1.095-.196.59-.512 1.004-.947 1.243-.408.21-1.033.316-1.875.316h-4.066c-1.446 0-2.419-.187-2.917-.558-.499-.373-.748-1.07-.748-2.096v-1.179c0-.814.414-1.222 1.243-1.222zm21.758-41.928a34.836 34.836 0 01-3.213 5.859c-.315.452-.633.697-.954.736-.262.04-.646-.068-1.15-.324-.485-.254-.769-.539-.851-.853-.079-.334.043-.746.365-1.237a39.473 39.473 0 001.729-3.121h-4.123l-.53 3.003c-.301 1.708-.2 3.474.302 5.3.677 2.395 1.952 4.348 3.826 5.859.673.412 1.115.913 1.326 1.502.254.667.136 1.285-.357 1.854-.394.452-.879.697-1.455.736-.534.02-1.048-.127-1.542-.441-1.576-1.198-2.822-2.758-3.739-4.682-.744-1.57-1.133-3.042-1.165-4.416-.619 1.394-1.644 2.866-3.076 4.416a22.903 22.903 0 01-6.049 4.741c-.621.294-1.187.441-1.697.441-.586-.019-.998-.245-1.235-.677-.296-.55-.173-1.138.37-1.766.443-.511 1.082-.962 1.918-1.355 2.707-1.55 4.894-3.543 6.561-5.977 1.275-1.884 2.069-3.719 2.384-5.505l.536-3.033h-2.356a29.803 29.803 0 01-2.694 3.916c-.466.53-.899.839-1.297.927-.399.089-.845-.024-1.339-.338-.583-.373-.874-.756-.873-1.148.001-.393.279-.884.834-1.473 1.86-2.198 3.502-4.995 4.926-8.391.244-.608.579-1.06 1.004-1.354.448-.314.956-.412 1.525-.295 1.175.236 1.508.962.999 2.179a38.025 38.025 0 01-1.172 2.473h11.132c.667 0 1.107.206 1.319.619.212.412.149 1.021-.189 1.825zm-20.085.501h-4.329c-1.1 0-1.551-.56-1.353-1.679.194-1.099.84-1.648 1.94-1.648h4.329c1.099 0 1.552.549 1.358 1.648-.197 1.119-.845 1.679-1.945 1.679zm-8.523-14.835c-.749.542-1.749.813-3.002.813H41.659l-3.044 8.227c2.654-1.287 4.997-1.93 7.028-1.93 1.626 0 3.086.305 4.382.914a8.937 8.937 0 013.23 2.526c.858 1.075 1.448 2.349 1.772 3.822.324 1.472.322 3.055-.007 4.748a16.385 16.385 0 01-2.952 6.703c-1.492 2.014-3.389 3.614-5.693 4.799-2.304 1.184-4.811 1.777-7.52 1.777-3.031 0-5.381-.559-7.053-1.676-1.671-1.117-2.759-2.399-3.265-3.847-.507-1.447-.655-2.712-.444-3.795.127-.661.524-1.287 1.189-1.879.665-.593 1.413-.889 2.243-.889 1.422 0 2.321.821 2.697 2.463.384 1.507 1.071 2.679 2.059 3.516.989.838 2.195 1.257 3.617 1.257a6.853 6.853 0 003.626-1.015c1.113-.677 2.051-1.608 2.815-2.793.763-1.185 1.291-2.531 1.583-4.037.316-1.625.298-3.013-.055-4.164-.352-1.151-.956-2.01-1.811-2.578-.855-.567-1.875-.85-3.06-.85-1.456 0-2.532.178-3.227.533-.696.355-1.718.978-3.067 1.866-1.35.889-2.405 1.333-3.167 1.333-.83 0-1.508-.3-2.035-.901-.526-.601-.716-1.282-.568-2.044.017-.085.221-.66.615-1.727l4.494-12.162c.519-1.455 1.165-2.513 1.936-3.174.772-.66 1.886-.99 3.342-.99h13.41c2.641 0 3.766 1.007 3.375 3.022-.171.88-.631 1.591-1.379 2.132zm1.412 25.434a77.882 77.882 0 002.584-1.295c.28-.138.712-.363 1.298-.678a95.875 95.875 0 001.914-1.001c1.214-.647 1.908-.353 2.082.884.119.883-.239 1.58-1.075 2.09a194.253 194.253 0 01-5.607 3.239c-.632.353-1.133.466-1.503.338-.37-.127-.647-.505-.831-1.133-.171-.589-.175-1.07-.011-1.443.164-.373.547-.707 1.149-1.001z" fill="#FFC919"/></svg>