<svg width="302" height="51" viewBox="0 0 302 51" fill="none" xmlns="http://www.w3.org/2000/svg"><g clip-path="url(#clip0_595_159)" fill-rule="evenodd" clip-rule="evenodd"><path d="M243.692 37.497c-.254.333-.517.527-.79.58-.274.053-.597-.027-.97-.24a27.815 27.815 0 01-1.92-1.3v.58c0 .307-.154.46-.46.46h-3.34v1.98h5.08c.68 0 1.02.34 1.02 1.02 0 .68-.34 1.02-1.02 1.02h-5.08v4h2.16l-.7-.3c-.174-.067-.284-.167-.33-.3-.047-.133-.024-.267.07-.4.453-.76.813-1.42 1.08-1.98.173-.36.38-.59.62-.69.24-.1.54-.083.9.05.813.307.946.86.4 1.66-.587.88-1.054 1.533-1.4 1.96h3.46c.68 0 1.02.34 1.02 1.02 0 .68-.34 1.02-1.02 1.02h-14.72c-.68 0-1.02-.34-1.02-1.02 0-.68.34-1.02 1.02-1.02h2.84c-.2-.6-.48-1.24-.84-1.92-.254-.4-.327-.77-.22-1.11.106-.34.36-.597.76-.77l.46-.2h-2c-.68 0-1.02-.34-1.02-1.02 0-.68.34-1.02 1.02-1.02h5v-1.98h-2.72c-.28 0-.504-.083-.67-.25-.167-.167-.25-.39-.25-.67v-.06a30.06 30.06 0 01-1.92 1.28c-.36.2-.674.28-.94.24-.28-.04-.534-.213-.76-.52-.534-.72-.347-1.32.56-1.8a22.125 22.125 0 003.58-2.72c1.066-.987 1.953-1.987 2.66-3 .12-.16.296-.3.53-.42.233-.12.476-.18.73-.18h.74c.546 0 .986.22 1.32.66a20.622 20.622 0 006.54 5.5c.506.227.803.483.89.77.086.287-.03.65-.35 1.09zm-12.82 4.1c.48.627.946 1.393 1.4 2.3.12.28.116.56-.01.84-.127.28-.357.493-.69.64l-.5.22h2.68v-4h-2.88zm7.38-6.44c-1.347-1.133-2.427-2.253-3.24-3.36-.894 1.253-2.06 2.487-3.5 3.7h6.66c.32 0 .346-.113.08-.34zm-15.36 3.78h-6.96v1.76l.26-.44c.12-.213.28-.28.48-.2 2.013.6 3.76 1.213 5.24 1.84.373.16.58.367.62.62.04.227-.054.533-.28.92-.214.373-.42.607-.62.7-.227.12-.514.093-.86-.08a55.785 55.785 0 00-4.84-1.92v4.8c0 .84-.42 1.26-1.26 1.26-.84 0-1.26-.42-1.26-1.26v-8h-6.06c-.787 0-1.18-.393-1.18-1.18 0-.787.393-1.18 1.18-1.18h6.06v-5.78c0-.84.42-1.26 1.26-1.26.84 0 1.26.42 1.26 1.26v1.16h4.9c.76 0 1.14.38 1.14 1.14 0 .773-.38 1.16-1.14 1.16h-4.9v2.32h6.96c.786 0 1.18.393 1.18 1.18 0 .787-.394 1.18-1.18 1.18zm-20.16 8.78c-.44.24-1.107.38-2 .42-.934.027-1.5-.293-1.7-.96-.28-.933.193-1.387 1.42-1.36h.56c.16-.013.273-.047.34-.1.066-.053.1-.16.1-.32v-14.36c0-.747.38-1.12 1.14-1.12.746 0 1.12.373 1.12 1.12v14.36c0 .64-.074 1.14-.22 1.5-.147.36-.4.633-.76.82zm-1.202-38.14c-.274.053-.597-.027-.97-.24a27.815 27.815 0 01-1.92-1.3v.58c0 .307-.154.46-.46.46h-3.34v1.98h5.08c.68 0 1.02.34 1.02 1.02 0 .68-.34 1.02-1.02 1.02h-5.08v4H197l-.7-.3c-.174-.067-.284-.167-.33-.3-.047-.133-.024-.267.07-.4.453-.76.813-1.42 1.08-1.98.173-.36.38-.59.62-.69.24-.1.54-.083.9.05.813.307.946.86.4 1.66-.587.88-1.054 1.533-1.4 1.96h3.46c.68 0 1.02.34 1.02 1.02 0 .68-.34 1.02-1.02 1.02h-14.72c-.68 0-1.02-.34-1.02-1.02 0-.68.34-1.02 1.02-1.02h2.84c-.2-.6-.48-1.24-.84-1.92-.254-.4-.327-.77-.22-1.11.106-.34.36-.597.76-.77l.46-.2h-2c-.68 0-1.02-.34-1.02-1.02 0-.68.34-1.02 1.02-1.02h5v-1.98h-2.72c-.28 0-.504-.083-.67-.25-.167-.167-.25-.39-.25-.67v-.06a30.06 30.06 0 01-1.92 1.28c-.36.2-.674.28-.94.24-.28-.04-.534-.213-.76-.52-.534-.72-.347-1.32.56-1.8a22.125 22.125 0 003.58-2.72c1.066-.987 1.953-1.987 2.66-3 .12-.16.296-.3.53-.42.233-.12.476-.18.73-.18h.74c.546 0 .986.22 1.32.66a20.622 20.622 0 006.54 5.5c.506.227.803.483.89.77.086.287-.03.65-.35 1.09-.254.333-.517.527-.79.58zm-12.03 3.52c.48.627.946 1.393 1.4 2.3.12.28.116.56-.01.84-.127.28-.357.493-.69.64l-.5.22h2.68v-4h-2.88zm7.38-6.44c-1.347-1.133-2.427-2.253-3.24-3.36-.894 1.253-2.06 2.487-3.5 3.7h6.66c.32 0 .346-.113.08-.34zm-13.598 40.61c-.394.407-.997.61-1.81.61h-2.38c-1.107 0-1.854-.227-2.24-.68-.387-.427-.58-1.233-.58-2.42v-6.12h-2.96c-.187 2.16-.554 3.853-1.1 5.08-.734 1.6-1.92 2.867-3.56 3.8-.894.44-1.547.38-1.96-.18-.294-.387-.327-.773-.1-1.16.2-.333.566-.627 1.1-.88 1.12-.733 1.913-1.7 2.38-2.9.333-.867.56-2.12.68-3.76h-3.32c-.774 0-1.16-.387-1.16-1.16 0-.773.386-1.16 1.16-1.16h15.36c.773 0 1.16.387 1.16 1.16 0 .773-.387 1.16-1.16 1.16h-4.08v6.12c0 .373.046.613.14.72.093.107.306.16.64.16h1.78c.333 0 .553-.22.66-.66.053-.693.193-1.247.42-1.66.28-.52.653-.673 1.12-.46.28.133.48.447.6.94.08.387.1.807.06 1.26-.174 1.053-.457 1.783-.85 2.19zm-1.122-39.07h-9.08c-.52 0-.78-.267-.78-.8 0-.52.26-.78.78-.78h3.46v-.72h-2.12c-.387 0-.7-.12-.94-.36s-.36-.553-.36-.94v-1c0-.387.12-.7.36-.94s.553-.36.94-.36h2.12v-.22c0-.693.353-1.04 1.06-1.04.693 0 1.04.347 1.04 1.04v.22h2.32c.386 0 .7.12.94.36s.36.553.36.94v1c0 .387-.12.7-.36.94s-.554.36-.94.36h-2.32v.72h3.52c.52 0 .78.26.78.78 0 .533-.26.8-.78.8zm-5.62-4.54h-1.18c-.2 0-.3.1-.3.3v.2c0 .253.126.38.38.38h1.1v-.88zm2.88.88h.46c.226 0 .34-.113.34-.34v-.16c0-.253-.127-.38-.38-.38h-1.2v.88h.78zm-4.328 26.4h5.88c.76 0 1.14.38 1.14 1.14 0 .773-.38 1.16-1.14 1.16h-11.76c-.76 0-1.14-.387-1.14-1.16 0-.76.38-1.14 1.14-1.14h5.88zm-4.332-25.78v.56c0 .293-.147.44-.44.44h-2.48a.703.703 0 01-.52-.2.7.7 0 01-.2-.52v-.06c-.44.573-.914 1.093-1.42 1.56h4.86c.386 0 .7.12.94.36s.36.553.36.94v3.36c0 .387-.12.7-.36.94s-.554.36-.94.36h-3.08v.78h3.48c.573 0 .86.287.86.86s-.287.86-.86.86h-3.48v.48c0 .227.113.34.34.34h2.9c.386 0 .7.12.94.36s.36.553.36.94v.5h-5.16c-.387 0-.7-.12-.94-.36s-.36-.553-.36-.94v-9.74c-.187-.24-.427-.5-.72-.78-.214-.16-.32-.347-.32-.56 0-.213.106-.427.32-.64.826-.827 1.58-1.88 2.26-3.16.106-.227.283-.413.53-.56a1.55 1.55 0 01.81-.22h.56c.426 0 .8.147 1.12.44.96.907 1.726 1.747 2.3 2.52.266.413.206.833-.18 1.26-.547.613-1.04.573-1.48-.12zm-3.28 6.22h2c.32 0 .48-.16.48-.48v-.3h-2.48v.78zm0-2.18h2.48v-.44c0-.213-.107-.32-.32-.32h-2.16v.76zm2.36-5.24a51.05 51.05 0 01-.24-.3l-.04-.04c-.32-.373-.56-.633-.72-.78-.254.507-.62 1.08-1.1 1.72h2.58a9.827 9.827 0 00-.48-.6zm4.16 12.48c-.24 0-.434-.073-.58-.22a.783.783 0 01-.22-.58v-5.46c0-.387.12-.7.36-.94s.553-.36.94-.36h6.32c.386 0 .7.12.94.36s.36.553.36.94v4.96c0 .387-.12.7-.36.94s-.554.36-.94.36h-.88c.84.52 1.653 1.06 2.44 1.62.333.253.48.493.44.72-.04.2-.254.413-.64.64-.254.16-.48.233-.68.22-.2 0-.407-.093-.62-.28-.414-.36-.94-.78-1.58-1.26-.347-.24-.527-.507-.54-.8-.014-.293.146-.567.48-.82l.04-.04h-3.86l.92.32c.253.08.4.193.44.34.04.147-.027.307-.2.48a11.466 11.466 0 01-2.76 1.88c-.267.12-.587.113-.96-.02-.32-.133-.6-.327-.84-.58-.16-.173-.247-.333-.26-.48-.027-.173.046-.287.22-.34.013-.013.026-.02.04-.02 1.306-.493 2.28-1.02 2.92-1.58H174zm1.3-1.68c0 .227.113.34.34.34h3.8c.32 0 .48-.16.48-.48v-.32h-4.62v.46zm0-1.74h4.62v-.76h-4.62v.76zm0-2.06h4.62v-.44c0-.2-.1-.3-.3-.3h-3.84c-.32 0-.48.16-.48.48v.26zm-16.068 35.8c-1.547 0-2.76-.653-3.64-1.96-.92-1.36-1.38-3.287-1.38-5.78 0-2.493.46-4.407 1.38-5.74.866-1.253 2.08-1.88 3.64-1.88 1.546 0 2.753.633 3.62 1.9.92 1.32 1.38 3.227 1.38 5.72s-.46 4.42-1.38 5.78c-.867 1.307-2.074 1.96-3.62 1.96zm0-13.08c-1.494 0-2.24 1.78-2.24 5.34 0 1.96.213 3.387.64 4.28.373.773.906 1.16 1.6 1.16 1.48 0 2.22-1.813 2.22-5.44 0-3.56-.74-5.34-2.22-5.34zm1.668-15.04h-14.34c-.387 0-.7-.12-.94-.36s-.36-.553-.36-.94V2.997c0-.387.12-.7.36-.94s.553-.36.94-.36h14.34c.386 0 .7.12.94.36s.36.553.36.94v14.34c0 .387-.12.7-.36.94s-.554.36-.94.36zm-1.28-14.5H148.2c-.32 0-.48.16-.48.48v11.32c0 .32.16.48.48.48h11.42V4.137zm-8.7 2.36h5.48c.386 0 .7.12.94.36s.36.553.36.94v5c0 .387-.12.7-.36.94s-.554.36-.94.36h-5.48c-.387 0-.7-.12-.94-.36s-.36-.553-.36-.94v-5c0-.387.12-.7.36-.94s.553-.36.94-.36zm.92 5.06c0 .32.16.48.48.48h2.52c.32 0 .48-.16.48-.48v-2.5c0-.32-.16-.48-.48-.48h-2.52c-.32 0-.48.16-.48.48v2.5zm-4.368 19.84c1.546 0 2.753.633 3.62 1.9.92 1.32 1.38 3.227 1.38 5.72s-.46 4.42-1.38 5.78c-.867 1.307-2.074 1.96-3.62 1.96-1.547 0-2.76-.653-3.64-1.96-.92-1.36-1.38-3.287-1.38-5.78 0-2.493.46-4.407 1.38-5.74.866-1.253 2.08-1.88 3.64-1.88zm-1.6 11.9c.373.773.906 1.16 1.6 1.16 1.48 0 2.22-1.813 2.22-5.44 0-3.56-.74-5.34-2.22-5.34-1.494 0-2.24 1.78-2.24 5.34 0 1.96.213 3.387.64 4.28zm-3.962-24.53c-.394.407-.997.61-1.81.61h-2.38c-1.107 0-1.854-.227-2.24-.68-.387-.427-.58-1.233-.58-2.42v-6.12h-2.96c-.187 2.16-.554 3.853-1.1 5.08-.734 1.6-1.92 2.867-3.56 3.8-.894.44-1.547.38-1.96-.18-.294-.387-.327-.773-.1-1.16.2-.333.566-.627 1.1-.88 1.12-.733 1.913-1.7 2.38-2.9.333-.867.56-2.12.68-3.76h-3.32c-.774 0-1.16-.387-1.16-1.16 0-.773.386-1.16 1.16-1.16h15.36c.773 0 1.16.387 1.16 1.16 0 .773-.387 1.16-1.16 1.16h-4.08v6.12c0 .373.046.613.14.72.093.107.306.16.64.16h1.78c.333 0 .553-.22.66-.66.053-.693.193-1.247.42-1.66.28-.52.653-.673 1.12-.46.28.133.48.447.6.94.08.387.1.807.06 1.26-.174 1.053-.457 1.783-.85 2.19zm-2.31-14.03h-11.76c-.76 0-1.14-.387-1.14-1.16 0-.76.38-1.14 1.14-1.14h11.76c.76 0 1.14.38 1.14 1.14 0 .773-.38 1.16-1.14 1.16zm-14.268 41.2c-.374-.32-.56-.747-.56-1.28 0-.52.186-.94.56-1.26.36-.32.806-.48 1.34-.48.68 0 1.203.253 1.57.76.366.507.55 1.22.55 2.14 0 1.173-.327 2.187-.98 3.04-.507.64-1.16 1.153-1.96 1.54-.56.213-.94.067-1.14-.44a.895.895 0 01.06-.76c.12-.227.32-.407.6-.54.946-.6 1.42-1.353 1.42-2.26h-.18c-.507 0-.934-.153-1.28-.46zm-7.472-27.68c-1.547 0-2.76-.653-3.64-1.96-.92-1.36-1.38-3.287-1.38-5.78 0-2.493.46-4.407 1.38-5.74.866-1.253 2.08-1.88 3.64-1.88 1.546 0 2.753.633 3.62 1.9.92 1.32 1.38 3.227 1.38 5.72s-.46 4.42-1.38 5.78c-.867 1.307-2.074 1.96-3.62 1.96zm0-13.08c-1.494 0-2.24 1.78-2.24 5.34 0 1.96.213 3.387.64 4.28.373.773.906 1.16 1.6 1.16 1.48 0 2.22-1.813 2.22-5.44 0-3.56-.74-5.34-2.22-5.34zm-.388 26.22c1.546 0 2.753.633 3.62 1.9.92 1.32 1.38 3.227 1.38 5.72s-.46 4.42-1.38 5.78c-.867 1.307-2.074 1.96-3.62 1.96-1.547 0-2.76-.653-3.64-1.96-.92-1.36-1.38-3.287-1.38-5.78 0-2.493.46-4.407 1.38-5.74.866-1.253 2.08-1.88 3.64-1.88zm-1.6 11.9c.373.773.906 1.16 1.6 1.16 1.48 0 2.22-1.813 2.22-5.44 0-3.56-.74-5.34-2.22-5.34-1.494 0-2.24 1.78-2.24 5.34 0 1.96.213 3.387.64 4.28zm-9.772-25.04c-1.547 0-2.76-.653-3.64-1.96-.92-1.36-1.38-3.287-1.38-5.78 0-2.493.46-4.407 1.38-5.74.866-1.253 2.08-1.88 3.64-1.88 1.546 0 2.753.633 3.62 1.9.92 1.32 1.38 3.227 1.38 5.72s-.46 4.42-1.38 5.78c-.867 1.307-2.074 1.96-3.62 1.96zm0-13.08c-1.494 0-2.24 1.78-2.24 5.34 0 1.96.213 3.387.64 4.28.373.773.906 1.16 1.6 1.16 1.48 0 2.22-1.813 2.22-5.44 0-3.56-.74-5.34-2.22-5.34zm-11.52 3.18c1.32 0 2.393.38 3.22 1.14.893.84 1.34 2.027 1.34 3.56 0 1.587-.52 2.867-1.56 3.84-.974.907-2.18 1.36-3.62 1.36-1.654 0-3.087-.467-4.3-1.4-.467-.413-.494-.907-.08-1.48.506-.68 1.073-.753 1.7-.22.733.467 1.5.7 2.3.7.786 0 1.413-.233 1.88-.7.493-.493.74-1.167.74-2.02s-.227-1.513-.68-1.98c-.454-.467-1.06-.7-1.82-.7-.52 0-1 .107-1.44.32-.507.307-.987.313-1.44.02l-.06-.04c-.414-.253-.607-.633-.58-1.14l.3-5.18c.026-.387.16-.693.4-.92.24-.227.546-.34.92-.34h5.44c.813 0 1.22.407 1.22 1.22 0 .827-.407 1.24-1.22 1.24h-4.16l-.28 3.14c.586-.28 1.18-.42 1.78-.42zm10.772 23.56c.28-.173.593-.26.94-.26h.64c.306 0 .553.093.74.28.186.187.28.433.28.74v12.36c0 .96-.48 1.44-1.44 1.44-.974 0-1.46-.48-1.46-1.44v-10.22l-1.7.9c-.627.347-1.134.207-1.52-.42-.414-.653-.287-1.173.38-1.56l3.14-1.82zm30.36-.52c1.546 0 2.753.633 3.62 1.9.92 1.32 1.38 3.227 1.38 5.72s-.46 4.42-1.38 5.78c-.867 1.307-2.074 1.96-3.62 1.96-1.547 0-2.76-.653-3.64-1.96-.92-1.36-1.38-3.287-1.38-5.78 0-2.493.46-4.407 1.38-5.74.866-1.253 2.08-1.88 3.64-1.88zm-1.6 11.9c.373.773.906 1.16 1.6 1.16 1.48 0 2.22-1.813 2.22-5.44 0-3.56-.74-5.34-2.22-5.34-1.494 0-2.24 1.78-2.24 5.34 0 1.96.213 3.387.64 4.28zm52.88-6.14v-5.28c0-.387.12-.7.36-.94s.553-.36.94-.36h6.94c.386 0 .7.12.94.36s.36.553.36.94v3.22c0 .387-.12.7-.36.94s-.554.36-.94.36h-1.54v1.68h1.68c.386 0 .7.12.94.36s.36.553.36.94v4.66c0 .44-.034.773-.1 1-.094.28-.254.493-.48.64-.174.147-.434.253-.78.32a1.18 1.18 0 01-.82-.22 1.24 1.24 0 01-.48-.7c-.08-.267-.07-.48.03-.64.1-.16.29-.233.57-.22.133 0 .2-.073.2-.22v-3.48c0-.32-.16-.48-.48-.48h-.64v7.16c0 .653-.327.98-.98.98-.654 0-.98-.327-.98-.98v-7.16h-1.06v5.24c0 .56-.28.84-.84.84-.574 0-.86-.28-.86-.84v-4.66c-.174 2.453-.547 4.48-1.12 6.08-.174.413-.37.65-.59.71-.22.06-.51-.043-.87-.31-.28-.213-.447-.44-.5-.68-.054-.24-.014-.527.12-.86.653-1.867.98-4.667.98-8.4zm2.1 0v.92h2.64v-1.68h-2.64v.76zm0-2.86h4.76c.32 0 .48-.16.48-.48v-.64c0-.32-.16-.48-.48-.48h-4.28c-.32 0-.48.16-.48.48v1.12zm9.6-2.82c.733 0 1.1.367 1.1 1.1v9.38c0 .733-.367 1.1-1.1 1.1-.734 0-1.1-.367-1.1-1.1v-9.38c0-.733.366-1.1 1.1-1.1z" fill="#FFC919"/><path d="M301.116 45.835a16.592 16.592 0 01-1.408 3.248c-.246.416-.587.528-1.024.336-.523-.235-.656-.603-.4-1.104 1.034-2.069 1.552-4.368 1.552-6.896 0-2.517-.518-4.81-1.552-6.88-.267-.512-.139-.88.384-1.104.448-.203.794-.09 1.04.336a15.212 15.212 0 012.032 7.648c0 1.525-.208 2.997-.624 4.416zm-7.456 1.328h-7.68c-.31 0-.56-.096-.752-.288-.192-.192-.288-.443-.288-.752v-3.216c-.32.107-.8.256-1.44.448-.598.14-1.035-.037-1.312-.528-.203-.363-.246-.65-.128-.864.117-.192.389-.336.816-.432a21.53 21.53 0 004.256-1.584c-.63-.629-1.456-1.349-2.48-2.16-.214.14-.416.261-.608.368-.534.3-.987.235-1.36-.192-.502-.587-.304-1.104.592-1.552 1.482-.843 2.666-1.85 3.552-3.024.149-.213.32-.347.512-.4.16-.043.384-.032.672.032.874.192 1.045.645.512 1.36a.62.62 0 00-.048.056 1.336 1.336 0 01-.048.056h4.992c.384 0 .64.115.768.344.128.23.101.552-.08.968-.971 1.973-2.475 3.605-4.512 4.896h4.064c.309 0 .56.096.752.288.192.192.288.443.288.752v4.384c0 .31-.096.56-.288.752-.192.192-.443.288-.752.288zm-1.824-10.944h-5.072a7.02 7.02 0 01-.592.496c1.205.885 2.106 1.621 2.704 2.208 1.226-.81 2.213-1.712 2.96-2.704zm.928 6.592c0-.256-.128-.384-.384-.384h-5.568v2.64c0 .256.128.384.384.384h5.184c.256 0 .384-.128.384-.384v-2.256zm-.312-22.228c-.246.416-.587.528-1.024.336-.523-.235-.656-.603-.4-1.104 1.034-2.069 1.552-4.368 1.552-6.896 0-2.517-.518-4.81-1.552-6.88-.267-.512-.139-.88.384-1.104.448-.203.794-.09 1.04.336a15.213 15.213 0 012.032 7.648c0 1.525-.208 2.997-.624 4.416a16.592 16.592 0 01-1.408 3.248zm-6.048-1.92h-7.68c-.31 0-.56-.096-.752-.288-.192-.192-.288-.443-.288-.752v-3.216c-.32.107-.8.256-1.44.448-.598.14-1.035-.037-1.312-.528-.203-.363-.246-.65-.128-.864.117-.192.389-.336.816-.432a21.53 21.53 0 004.256-1.584c-.63-.629-1.456-1.349-2.48-2.16-.214.14-.416.261-.608.368-.534.3-.987.235-1.36-.192-.502-.587-.304-1.104.592-1.552 1.482-.843 2.666-1.85 3.552-3.024.149-.213.32-.347.512-.4.16-.043.384-.032.672.032.874.192 1.045.645.512 1.36a.62.62 0 00-.048.056 1.336 1.336 0 01-.048.056h4.992c.384 0 .64.115.768.344.128.23.101.552-.08.968-.971 1.973-2.475 3.605-4.512 4.896h4.064c.309 0 .56.096.752.288.192.192.288.443.288.752v4.384c0 .31-.096.56-.288.752-.192.192-.443.288-.752.288zM284.58 7.72h-5.072a7.02 7.02 0 01-.592.496c1.205.885 2.106 1.621 2.704 2.208 1.226-.81 2.213-1.712 2.96-2.704zm.928 6.592c0-.256-.128-.384-.384-.384h-5.568v2.64c0 .256.128.384.384.384h5.184c.256 0 .384-.128.384-.384v-2.256zm-16.4 3.888c-1.238 0-2.208-.523-2.912-1.568-.736-1.088-1.104-2.629-1.104-4.624 0-1.995.368-3.525 1.104-4.592.693-1.003 1.664-1.504 2.912-1.504 1.237 0 2.202.507 2.896 1.52.736 1.056 1.104 2.581 1.104 4.576 0 1.995-.368 3.536-1.104 4.624-.694 1.045-1.659 1.568-2.896 1.568zm0-10.464c-1.195 0-1.792 1.424-1.792 4.272 0 1.568.17 2.71.512 3.424.298.62.725.928 1.28.928 1.184 0 1.776-1.45 1.776-4.352 0-2.848-.592-4.272-1.776-4.272zm-7.272 26.22c.16.23.186.557.08.984-.384 1.504-.774 2.752-1.168 3.744.81.971 1.216 2.06 1.216 3.264.01 1.035-.23 1.728-.72 2.08-.203.171-.518.293-.944.368a3.521 3.521 0 01-.56.032c-.352 0-.544-.155-.576-.464a.288.288 0 00-.016-.08 3.749 3.749 0 00-.096-.48c-.086-.203-.088-.365-.008-.488.08-.123.226-.179.44-.168h.048c.16 0 .309-.048.448-.144.192-.149.288-.448.288-.896 0-.704-.208-1.403-.624-2.096-.363-.469-.48-.917-.352-1.344.128-.427.314-1.12.56-2.08.096-.405.17-.699.224-.88h-1.008c-.256 0-.384.128-.384.384v11.296c0 .586-.294.88-.88.88-.587 0-.88-.294-.88-.88V34.651c0-.309.096-.56.288-.752.192-.192.442-.288.752-.288h3.088c.362 0 .624.115.784.344zM259.7 18.2c-1.238 0-2.208-.523-2.912-1.568-.736-1.088-1.104-2.629-1.104-4.624 0-1.995.368-3.525 1.104-4.592.693-1.003 1.664-1.504 2.912-1.504 1.237 0 2.202.507 2.896 1.52.736 1.056 1.104 2.581 1.104 4.576 0 1.995-.368 3.536-1.104 4.624-.694 1.045-1.659 1.568-2.896 1.568zm0-10.464c-1.195 0-1.792 1.424-1.792 4.272 0 1.568.17 2.71.512 3.424.298.62.725.928 1.28.928 1.184 0 1.776-1.45 1.776-4.352 0-2.848-.592-4.272-1.776-4.272zM250.292 18.2c-1.238 0-2.208-.523-2.912-1.568-.736-1.088-1.104-2.629-1.104-4.624 0-1.995.368-3.525 1.104-4.592.693-1.003 1.664-1.504 2.912-1.504 1.237 0 2.202.507 2.896 1.52.736 1.056 1.104 2.581 1.104 4.576 0 1.995-.368 3.536-1.104 4.624-.694 1.045-1.659 1.568-2.896 1.568zm0-10.464c-1.195 0-1.792 1.424-1.792 4.272 0 1.568.17 2.71.512 3.424.298.62.725.928 1.28.928 1.184 0 1.776-1.45 1.776-4.352 0-2.848-.592-4.272-1.776-4.272zm-12.148 5.12c.448.523.672 1.157.672 1.904 0 1.056-.411 1.9-1.232 2.528-.768.608-1.744.912-2.928.912-1.398 0-2.55-.384-3.456-1.152-.342-.32-.347-.704-.016-1.152.405-.544.874-.608 1.408-.192a3.259 3.259 0 001.84.576c.608 0 1.093-.144 1.456-.432.373-.288.56-.693.56-1.216 0-.48-.128-.859-.384-1.136-.288-.309-.763-.523-1.424-.64a2.483 2.483 0 01-.944-.288c-.342-.192-.512-.416-.512-.672 0-.256.154-.485.464-.688.277-.16.576-.256.896-.288 1.013-.245 1.52-.805 1.52-1.68 0-.469-.139-.832-.416-1.088-.278-.256-.667-.389-1.168-.4a2.723 2.723 0 00-1.424.432c-.256.192-.51.28-.76.264-.251-.016-.472-.14-.664-.376-.395-.469-.342-.896.16-1.28.874-.587 1.808-.88 2.8-.88 1.162 0 2.09.272 2.784.816.704.555 1.056 1.333 1.056 2.336 0 1.28-.662 2.181-1.984 2.704v.08c.704.192 1.269.528 1.696 1.008zm-9.712 6.16c-.203.032-.454-.048-.752-.24-1.632-1.205-2.774-3.275-3.424-6.208h-1.152v4.128a56.113 56.113 0 001.408-.256c.586-.117.906.128.96.736.053.512-.176.826-.688.944-.662.16-1.648.378-2.96.656a33.01 33.01 0 01-.768.16c-.278.064-.499.042-.664-.064-.166-.107-.296-.304-.392-.592-.224-.672 0-1.06.672-1.168.277-.043.49-.075.64-.096V6.167c0-.309.096-.56.288-.752.192-.192.442-.288.752-.288h5.264c.309 0 .56.096.752.288.192.192.288.443.288.752v5.36c0 .31-.096.56-.288.752-.192.192-.443.288-.752.288h-1.712c.17.651.368 1.216.592 1.696.277-.267.57-.57.88-.912.192-.235.386-.368.584-.4.197-.032.418.043.664.224.512.373.517.795.016 1.264-.427.395-.886.784-1.376 1.168a5.861 5.861 0 001.376 1.44c.373.224.597.448.672.672.085.245.005.533-.24.864-.203.266-.416.41-.64.432zM226.784 7.16c0-.256-.128-.384-.384-.384h-2.912c-.256 0-.384.128-.384.384v.88h3.68v-.88zm-.384 3.776c.256 0 .384-.128.384-.384v-.96h-3.68v1.344h3.296zm-7.024-.752c.81.971 1.216 2.06 1.216 3.264.01 1.035-.23 1.728-.72 2.08-.203.171-.518.293-.944.368a3.521 3.521 0 01-.56.032c-.352 0-.544-.155-.576-.464a.288.288 0 00-.016-.08 3.749 3.749 0 00-.096-.48c-.086-.203-.088-.365-.008-.488.08-.123.226-.179.44-.168h.048c.16 0 .309-.048.448-.144.192-.149.288-.448.288-.896 0-.704-.208-1.403-.624-2.096-.363-.469-.48-.917-.352-1.344.128-.427.314-1.12.56-2.08.096-.405.17-.699.224-.88h-1.008c-.256 0-.384.128-.384.384v11.296c0 .586-.294.88-.88.88-.587 0-.88-.294-.88-.88V6.151c0-.309.096-.56.288-.752.192-.192.442-.288.752-.288h3.088c.362 0 .624.115.784.344.16.23.186.557.08.984-.384 1.504-.774 2.752-1.168 3.744zm-6.72 10.736c-.448.192-.795.074-1.04-.352a17.939 17.939 0 01-1.392-3.232 15.616 15.616 0 01-.624-4.416c0-2.699.672-5.248 2.016-7.648.245-.416.592-.528 1.04-.336.533.224.661.597.384 1.12-1.024 2.08-1.536 4.368-1.536 6.864 0 2.507.512 4.8 1.536 6.88.277.522.149.896-.384 1.12zM97.952 33.295h-.08c-.454 1.307-1.087 2.44-1.9 3.4.52.453 1.146.86 1.88 1.22.44.173.706.373.8.6.106.24.026.533-.24.88-.334.44-.794.54-1.38.3a9.536 9.536 0 01-2.46-1.7c-.694.533-1.427.967-2.2 1.3-.654.28-1.14.16-1.46-.36-.227-.36-.267-.667-.12-.92.12-.213.393-.4.82-.56a8.134 8.134 0 001.64-.94c-.307-.427-.654-1.007-1.04-1.74-.187.24-.327.413-.42.52-.227.267-.46.293-.7.08a6.873 6.873 0 01-.3-.26c-.214-.187-.38-.327-.5-.42v3.1c0 .387-.04.68-.12.88-.094.24-.254.42-.48.54-.254.133-.62.213-1.1.24-.534.027-.874-.167-1.02-.58-.2-.6.06-.9.78-.9h.04c.146 0 .22-.073.22-.22v-3.1c0-.32-.16-.48-.48-.48h-1.46v4.44c0 .493-.247.74-.74.74-.494 0-.74-.247-.74-.74v-4.44h-1.88v3.2c.24-.533.406-1.253.5-2.16.04-.387.253-.547.64-.48.333.053.486.267.46.64-.094.813-.227 1.493-.4 2.04-.107.227-.264.37-.47.43-.207.06-.43.017-.67-.13l-.02-.02h-.04v1.04c0 .56-.28.84-.84.84-.56 0-.84-.28-.84-.84v-5.58a7.922 7.922 0 00-.6-.52c-.12-.093-.18-.203-.18-.33s.066-.243.2-.35c.493-.413.94-.86 1.34-1.34.293-.453.706-.593 1.24-.42.706.24.84.653.4 1.24a12.64 12.64 0 01-1.08 1.2h1.96v-2.08c0-.667.34-1 1.02-1 .666 0 1 .333 1 1v2.08h1.9a8.416 8.416 0 00-.88-1.14c-.494-.533-.427-.96.2-1.28.413-.213.793-.147 1.14.2.48.507.82.887 1.02 1.14.12.187.153.377.1.57-.054.193-.194.357-.42.49l-.06.02h.24c.08 0 .12.04.12.12v1.14c.826-.973 1.506-2.113 2.04-3.42.213-.627.633-.86 1.26-.7.68.16.9.573.66 1.24a91.162 91.162 0 00-.2.5h3.9c.586 0 .88.293.88.88 0 .6-.294.9-.88.9zm-4.54 0c.16.333.34.673.54 1.02.186.307.4.62.64.94a7.096 7.096 0 001.12-1.96h-2.3zm-6.832-28.5h-.08c-.454 1.307-1.087 2.44-1.9 3.4.52.453 1.146.86 1.88 1.22.44.173.706.373.8.6.106.24.026.533-.24.88-.334.44-.794.54-1.38.3a9.535 9.535 0 01-2.46-1.7c-.694.533-1.427.967-2.2 1.3-.654.28-1.14.16-1.46-.36-.227-.36-.267-.667-.12-.92.12-.213.393-.4.82-.56a8.134 8.134 0 001.64-.94c-.307-.427-.654-1.007-1.04-1.74-.187.24-.327.413-.42.52-.227.267-.46.293-.7.08a6.873 6.873 0 01-.3-.26c-.214-.187-.38-.327-.5-.42v3.1c0 .387-.04.68-.12.88-.094.24-.254.42-.48.54-.254.133-.62.213-1.1.24-.534.027-.874-.167-1.02-.58-.2-.6.06-.9.78-.9h.04c.146 0 .22-.073.22-.22v-3.1c0-.32-.16-.48-.48-.48H75.3v4.44c0 .493-.247.74-.74.74-.494 0-.74-.247-.74-.74v-4.44h-1.88v3.2c.24-.533.406-1.253.5-2.16.04-.387.253-.547.64-.48.333.053.486.267.46.64-.094.813-.227 1.493-.4 2.04-.107.227-.264.37-.47.43-.207.06-.43.017-.67-.13l-.02-.02h-.04v1.04c0 .56-.28.84-.84.84-.56 0-.84-.28-.84-.84v-5.58a7.922 7.922 0 00-.6-.52c-.12-.093-.18-.203-.18-.33s.066-.243.2-.35c.493-.413.94-.86 1.34-1.34.293-.453.706-.593 1.24-.42.706.24.84.653.4 1.24a12.64 12.64 0 01-1.08 1.2h1.96v-2.08c0-.667.34-1 1.02-1 .666 0 1 .333 1 1v2.08h1.9a8.416 8.416 0 00-.88-1.14c-.494-.533-.427-.96.2-1.28.413-.213.793-.147 1.14.2.48.507.82.887 1.02 1.14.12.187.153.377.1.57-.054.193-.194.357-.42.49l-.06.02h.24c.08 0 .12.04.12.12v1.14c.826-.973 1.506-2.113 2.04-3.42.213-.627.633-.86 1.26-.7.68.16.9.573.66 1.24a91.162 91.162 0 00-.2.5h3.9c.586 0 .88.293.88.88 0 .6-.294.9-.88.9zm-4.54 0c.16.333.34.673.54 1.02.186.307.4.62.64.94a7.096 7.096 0 001.12-1.96h-2.3zm-12.288 24.74c.333 0 .606.08.82.24.226.173.34.413.34.72v.04h6.98c.48 0 .72.24.72.72 0 .493-.24.74-.72.74h-6.5c-.32 0-.48.16-.48.48v.18h5.38c.453 0 .68.227.68.68 0 .467-.227.7-.68.7h-12.92c-.454 0-.68-.233-.68-.7 0-.453.226-.68.68-.68h5.2v-.4c0-.173-.087-.26-.26-.26h-6.52c-.48 0-.72-.247-.72-.74 0-.48.24-.72.72-.72h6.78v-.04c0-.307.12-.547.36-.72.213-.16.486-.24.82-.24zM66.52 3.495h-6.5c-.32 0-.48.16-.48.48v.18h5.38c.453 0 .68.227.68.68 0 .467-.227.7-.68.7H52c-.454 0-.68-.233-.68-.7 0-.453.226-.68.68-.68h5.2v-.4c0-.173-.087-.26-.26-.26h-6.52c-.48 0-.72-.247-.72-.74 0-.48.24-.72.72-.72h6.78v-.04c0-.307.12-.547.36-.72.213-.16.486-.24.82-.24.333 0 .606.08.82.24.226.173.34.413.34.72v.04h6.98c.48 0 .72.24.72.72 0 .493-.24.74-.72.74zm-17.588 29.96h-1.08l.62.12c.346.067.446.28.3.64-.28.707-.52 1.28-.72 1.72h1.02c.653 0 .98.327.98.98s-.327.98-.98.98h-2.46v1.54h2.26c.666 0 1 .333 1 1s-.334 1-1 1h-2.26v.16c.373.267 1.073.807 2.1 1.62.266.227.406.44.42.64 0 .187-.12.427-.36.72-.267.32-.514.483-.74.49-.227.007-.474-.143-.74-.45-.067-.067-.177-.18-.33-.34-.154-.16-.27-.28-.35-.36v3.12c0 .76-.38 1.14-1.14 1.14-.76 0-1.14-.38-1.14-1.14v-2.88a14.936 14.936 0 01-1.72 2.08c-.294.267-.554.4-.78.4-.227-.013-.467-.16-.72-.44-.294-.333-.427-.627-.4-.88.026-.253.22-.52.58-.8a13.484 13.484 0 002.56-3.08h-2c-.667 0-1-.333-1-1s.333-1 1-1h2.48v-1.54h-2.56c-.654 0-.98-.327-.98-.98s.326-.98.98-.98h.84c-.04-.4-.12-.787-.24-1.16-.107-.32-.1-.597.02-.83.12-.233.34-.383.66-.45l.16-.04h-1.26c-.64 0-.96-.327-.96-.98 0-.64.32-.96.96-.96h2.38v-.68c0-.76.38-1.14 1.14-1.14.76 0 1.14.38 1.14 1.14v.68h2.32c.64 0 .96.32.96.96 0 .653-.32.98-.96.98zm-2.08 0h-2.98c.186.373.346.807.48 1.3a.874.874 0 01-.11.72c-.14.213-.35.36-.63.44l-.06.02h3.88l-.7-.16a.592.592 0 01-.38-.24c-.08-.12-.087-.253-.02-.4.24-.587.413-1.147.52-1.68zM44.56 7.615h2c.733 0 1.1.367 1.1 1.1 0 .733-.367 1.1-1.1 1.1h-.78v8.64c0 .76-.38 1.14-1.14 1.14-.76 0-1.14-.38-1.14-1.14v-8.64h-2.02c-.027 3.893-.774 6.88-2.24 8.96-.254.307-.52.463-.8.47-.28.007-.534-.13-.76-.41l-.04-.04c-.267-.2-.414-.443-.44-.73-.027-.287.08-.577.32-.87.706-1.04 1.2-2.307 1.48-3.8.186-1.04.28-2.327.28-3.86v-5.56c0-.427.12-.73.36-.91.24-.18.56-.21.96-.09l.06.02c1.733-.44 3.153-.9 4.26-1.38.293-.147.56-.193.8-.14.2.053.433.2.7.44.4.36.58.67.54.93-.04.26-.307.49-.8.69a37.336 37.336 0 01-4.68 1.28v2.8h3.08zm-5.88.8c0 .653-.327.98-.98.98h-2.46v1.54h2.26c.666 0 1 .333 1 1s-.334 1-1 1h-2.26v.16c.373.267 1.073.807 2.1 1.62.266.227.406.44.42.64 0 .187-.12.427-.36.72-.267.32-.514.483-.74.49-.227.007-.474-.143-.74-.45-.067-.067-.177-.18-.33-.34-.154-.16-.27-.28-.35-.36v3.12c0 .76-.38 1.14-1.14 1.14-.76 0-1.14-.38-1.14-1.14v-2.88a14.936 14.936 0 01-1.72 2.08c-.294.267-.554.4-.78.4-.227-.013-.467-.16-.72-.44-.294-.333-.427-.627-.4-.88.026-.253.22-.52.58-.8a13.484 13.484 0 002.56-3.08h-2c-.667 0-1-.333-1-1s.333-1 1-1h2.48v-1.54H30.4c-.654 0-.98-.327-.98-.98s.326-.98.98-.98h.84c-.04-.4-.12-.787-.24-1.16-.107-.32-.1-.597.02-.83.12-.233.34-.383.66-.45l.16-.04h-1.26c-.64 0-.96-.327-.96-.98 0-.64.32-.96.96-.96h2.38v-.68c0-.76.38-1.14 1.14-1.14.76 0 1.14.38 1.14 1.14v.68h2.32c.64 0 .96.32.96.96 0 .653-.32.98-.96.98h-1.08l.62.12c.346.067.446.28.3.64-.28.707-.52 1.28-.72 1.72h1.02c.653 0 .98.327.98.98zm-3.2-3.46H32.5c.186.373.346.807.48 1.3a.874.874 0 01-.11.72c-.14.213-.35.36-.63.44l-.06.02h3.88l-.7-.16a.592.592 0 01-.38-.24c-.08-.12-.087-.253-.02-.4.24-.587.413-1.147.52-1.68zm-3.528 25.7c0-.733.373-1.1 1.12-1.1.733 0 1.1.367 1.1 1.1v3.32h3.2c.386 0 .7.12.94.36s.36.553.36.94v10.16c0 .387-.12.7-.36.94s-.554.36-.94.36h-8.4c-.387 0-.7-.12-.94-.36s-.36-.553-.36-.94v-10.16c0-.387.12-.7.36-.94s.553-.36.94-.36h2.98v-3.32zm2.22 12.26v1.54h1.68c.32 0 .48-.16.48-.48v-2.62h-2.16v1.56zm0-3.78h2.16v-2.42c0-.32-.16-.48-.48-.48h-1.68v2.9zm-4.24 4.84c0 .32.16.48.48.48h1.54v-3.1h-2.02v2.62zm.48-7.74c-.32 0-.48.16-.48.48v2.42h2.02v-2.9h-1.54zm-4.072-20.14h-6.7v1.46c0 .587-.094 1.02-.28 1.3-.187.28-.52.493-1 .64-.52.147-1.46.233-2.82.26-.747 0-1.227-.247-1.44-.74-.174-.427-.134-.74.12-.94.226-.173.6-.247 1.12-.22h1.3c.2-.013.336-.047.41-.1.073-.053.11-.153.11-.3v-1.36h-6.62c-.667 0-1-.34-1-1.02 0-.667.333-1 1-1h6.62v-.48c0-.24.12-.36.36-.36h.74c.653-.213 1.3-.467 1.94-.76h-7.78c-.614 0-.92-.313-.92-.94 0-.613.306-.92.92-.92h11.22c.546 0 .863.13.95.39.086.26-.077.637-.49 1.13-.827.773-1.96 1.42-3.4 1.94h5.64c.666 0 1 .333 1 1 0 .68-.334 1.02-1 1.02zM13.4 5.415h10.22c.386 0 .7.12.94.36s.36.553.36.94v1.8c0 .387-.12.7-.36.94s-.554.36-.94.36H13.4c-.387 0-.7-.12-.94-.36s-.36-.553-.36-.94v-1.8c0-.387.12-.7.36-.94s.553-.36.94-.36zm1.06 2.28c0 .32.16.48.48.48h7c.32 0 .48-.16.48-.48v-.18c0-.32-.16-.48-.48-.48h-7c-.32 0-.48.16-.48.48v.18zm11.58-3.18H10.82c-.667 0-1-.333-1-1s.333-1 1-1h6.32v-.26c0-.813.406-1.22 1.22-1.22.813 0 1.22.407 1.22 1.22v.26h6.46c.666 0 1 .333 1 1s-.334 1-1 1zm-8.828 26.1c.72 0 1.08.36 1.08 1.08 0 .733-.36 1.1-1.08 1.1h-6.3v1.32h4.6c.386 0 .7.12.94.36s.36.553.36.94v6.04h1.16c.733 0 1.1.367 1.1 1.1 0 .733-.367 1.1-1.1 1.1h-1.16v1.98c0 .627-.074 1.1-.22 1.42-.16.347-.447.607-.86.78-.48.227-1.26.353-2.34.38-.854.027-1.394-.26-1.62-.86-.32-.907.146-1.347 1.4-1.32h.82c.186 0 .313-.03.38-.09.066-.06.1-.177.1-.35v-1.94h-9.34v3.42c0 .773-.387 1.16-1.16 1.16-.774 0-1.16-.387-1.16-1.16v-3.42h-1.16c-.734 0-1.1-.367-1.1-1.1 0-.733.366-1.1 1.1-1.1h1.16v-6.04c0-.387.12-.7.36-.94s.553-.36.94-.36h4.46v-1.32h-6.14c-.72 0-1.08-.367-1.08-1.1 0-.72.36-1.08 1.08-1.08h14.78zm-6.3 10.84h3.56v-1.62h-3.56v1.62zm0-3.64h3.56v-1.08c0-.32-.16-.48-.48-.48h-3.08v1.56zm-2.34-1.56h-2.96c-.32 0-.48.16-.48.48v1.08h3.44v-1.56zm0 3.58h-3.44v1.62h3.44v-1.62zm12.86-.34c.12-.027.313-.073.58-.14l1.02-.24v-3.6h-1.26c-.734 0-1.1-.373-1.1-1.12 0-.733.366-1.1 1.1-1.1h1.26v-2.6c0-.76.38-1.14 1.14-1.14.76 0 1.14.38 1.14 1.14v2.6h.8c.733 0 1.1.367 1.1 1.1 0 .747-.367 1.12-1.1 1.12h-.8v3.02l.72-.18c.746-.2 1.173.093 1.28.88.106.653-.16 1.067-.8 1.24l-1.2.34v4.9c0 .587-.06 1.033-.18 1.34a1.38 1.38 0 01-.66.72c-.414.227-.98.36-1.7.4-.84.027-1.354-.26-1.54-.86-.254-.84.153-1.247 1.22-1.22h.22c.24 0 .36-.127.36-.38v-4.26c-.227.067-.554.153-.98.26-.734.173-1.2-.107-1.4-.84-.107-.4-.1-.707.02-.92.12-.213.373-.367.76-.46zM63.72 9.135h-10.4c-.387 0-.7-.12-.94-.36s-.36-.553-.36-.94v-.42c0-.387.12-.7.36-.94s.553-.36.94-.36h10.4c.386 0 .7.12.94.36s.36.553.36.94v.42c0 .387-.12.7-.36.94s-.554.36-.94.36zm-1.02-1.58c0-.187-.094-.28-.28-.28h-7.88c-.24 0-.36.12-.36.36v.06c0 .187.093.28.28.28h7.88c.24 0 .36-.12.36-.36v-.06zm3.62 10.14c.533 0 .8.267.8.8s-.267.8-.8.8H50.64c-.534 0-.8-.267-.8-.8s.266-.8.8-.8h6.56v-.64h-4.74c-.467 0-.7-.233-.7-.7 0-.467.233-.7.7-.7h4.74v-.6h-.34c-2.347.027-4 .04-4.96.04-.374 0-.58-.22-.62-.66-.04-.493.166-.733.62-.72h2.22c.026-.04.073-.1.14-.18.16-.213.273-.38.34-.5h-2.36c-.174 0-.26-.087-.26-.26v-.06h-.56c-1 0-1.5-.5-1.5-1.5s.5-1.5 1.5-1.5H65.7c.386 0 .7.12.94.36s.36.553.36.94v.6c0 .733-.387 1.1-1.16 1.1-.707 0-1.06-.333-1.06-1v-.04c0-.32-.16-.48-.48-.48H52.32c-.2 0-.3.1-.3.3v.06c0 .147.073.22.22.22h11.84c.413 0 .62.207.62.62 0 .427-.207.64-.62.64h-.78c.586.32 1.053.6 1.4.84.293.213.44.47.44.77 0 .3-.16.59-.48.87l-.16.14h.16c.466 0 .7.233.7.7 0 .467-.234.7-.7.7h-5.12v.64h6.78zm-5.98-4.62l.04-.04h-3.22c-.267.32-.467.553-.6.7 2.053 0 3.62-.007 4.7-.02-.307-.16-.614-.313-.92-.46-.094-.067-.094-.127 0-.18zm1.54 2.58h1.86c.333 0 .373-.093.12-.28-.2-.147-.4-.287-.6-.42-1.24.013-2.48.033-3.72.06v.64h2.34zm-11.508 26.24c.186-1.04.28-2.327.28-3.86v-5.56c0-.427.12-.73.36-.91.24-.18.56-.21.96-.09l.06.02c1.733-.44 3.153-.9 4.26-1.38.293-.147.56-.193.8-.14.2.053.433.2.7.44.4.36.58.67.54.93-.04.26-.307.49-.8.69a37.336 37.336 0 01-4.68 1.28v2.8h5.08c.733 0 1.1.367 1.1 1.1 0 .733-.367 1.1-1.1 1.1h-.78v8.64c0 .76-.38 1.14-1.14 1.14-.76 0-1.14-.38-1.14-1.14v-8.64h-2.02c-.027 3.893-.774 6.88-2.24 8.96-.254.307-.52.463-.8.47-.28.007-.534-.13-.76-.41l-.04-.04c-.267-.2-.414-.443-.44-.73-.027-.287.08-.577.32-.87.706-1.04 1.2-2.307 1.48-3.8zm24.72-4.26h-10.4c-.387 0-.7-.12-.94-.36s-.36-.553-.36-.94v-.42c0-.387.12-.7.36-.94s.553-.36.94-.36h10.4c.386 0 .7.12.94.36s.36.553.36.94v.42c0 .387-.12.7-.36.94s-.554.36-.94.36zm-1.02-1.58c0-.187-.094-.28-.28-.28h-7.88c-.24 0-.36.12-.36.36v.06c0 .187.093.28.28.28h7.88c.24 0 .36-.12.36-.36v-.06zm-12.06 10.14h6.56v-.64h-4.74c-.467 0-.7-.233-.7-.7 0-.467.233-.7.7-.7h4.74v-.6h-.34c-2.347.027-4 .04-4.96.04-.374 0-.58-.22-.62-.66-.04-.493.166-.733.62-.72h2.22c.026-.04.073-.1.14-.18.16-.213.273-.38.34-.5h-2.36c-.174 0-.26-.087-.26-.26v-.06h-.56c-1 0-1.5-.5-1.5-1.5s.5-1.5 1.5-1.5h14.28c.386 0 .7.12.94.36s.36.553.36.94v.6c0 .733-.387 1.1-1.16 1.1-.707 0-1.06-.333-1.06-1v-.04c0-.32-.16-.48-.48-.48h-11.98c-.2 0-.3.1-.3.3v.06c0 .147.073.22.22.22h11.84c.413 0 .62.207.62.62 0 .427-.207.64-.62.64h-.78c.586.32 1.053.6 1.4.84.293.213.44.47.44.77 0 .3-.16.59-.48.87l-.16.14h.16c.466 0 .7.233.7.7 0 .467-.234.7-.7.7h-5.12v.64h6.78c.533 0 .8.267.8.8s-.267.8-.8.8h-15.68c-.534 0-.8-.267-.8-.8s.266-.8.8-.8zm8.9-2.04h4.2c.333 0 .373-.093.12-.28-.2-.147-.4-.287-.6-.42-1.24.013-2.48.033-3.72.06v.64zm1.72-1.94c-.307-.16-.614-.313-.92-.46-.094-.067-.094-.127 0-.18l.04-.04h-3.22c-.267.32-.467.553-.6.7 2.053 0 3.62-.007 4.7-.02zm3.408-35.96c.333-.093.546.007.64.3.053.173.133.447.24.82a.679.679 0 01.04.14l.12.66c.013.293-.127.48-.42.56-.4.133-.62.013-.66-.36-.067-.4-.174-.887-.32-1.46-.094-.347.026-.567.36-.66zm1.18 12.32v-4.28h-3.08c-.32 0-.48.16-.48.48v2.92c0 .747-.374 1.12-1.12 1.12-.76 0-1.14-.373-1.14-1.12v-4.08c0-.387.12-.7.36-.94s.553-.36.94-.36h4.52v-.04c0-.333.106-.59.32-.77.213-.18.493-.27.84-.27.346 0 .623.09.83.27.206.18.31.437.31.77v.04h4.94c.386 0 .7.12.94.36s.36.553.36.94v2.96c0 .533-.074.94-.22 1.22-.147.307-.414.54-.8.7-.467.187-1.214.293-2.24.32-.734 0-1.2-.253-1.4-.76-.307-.8.093-1.187 1.2-1.16h.74c.16-.013.266-.043.32-.09.053-.047.08-.13.08-.25v-1.78c0-.32-.16-.48-.48-.48h-3.44v4.28c0 .76-.38 1.14-1.14 1.14-.774 0-1.16-.38-1.16-1.14zm10.192 16.18c.333-.093.546.007.64.3.053.173.133.447.24.82a.679.679 0 01.04.14l.12.66c.013.293-.127.48-.42.56-.4.133-.62.013-.66-.36-.067-.4-.174-.887-.32-1.46-.094-.347.026-.567.36-.66zm-3.34 6.06h4.52v-.04c0-.333.106-.59.32-.77.213-.18.493-.27.84-.27.346 0 .623.09.83.27.206.18.31.437.31.77v.04h4.94c.386 0 .7.12.94.36s.36.553.36.94v2.96c0 .533-.074.94-.22 1.22-.147.307-.414.54-.8.7-.467.187-1.214.293-2.24.32-.734 0-1.2-.253-1.4-.76-.307-.8.093-1.187 1.2-1.16h.74c.16-.013.266-.043.32-.09.053-.047.08-.13.08-.25v-1.78c0-.32-.16-.48-.48-.48h-3.44v4.28c0 .76-.38 1.14-1.14 1.14-.774 0-1.16-.38-1.16-1.14v-4.28h-3.08c-.32 0-.48.16-.48.48v2.92c0 .747-.374 1.12-1.12 1.12-.76 0-1.14-.373-1.14-1.12v-4.08c0-.387.12-.7.36-.94s.553-.36.94-.36zm169.956-7.38c.533.224.661.597.384 1.12-1.024 2.08-1.536 4.368-1.536 6.864 0 2.507.512 4.8 1.536 6.88.277.522.149.896-.384 1.12-.448.192-.795.074-1.04-.352a17.939 17.939 0 01-1.392-3.232 15.616 15.616 0 01-.624-4.416c0-2.699.672-5.248 2.016-7.648.245-.416.592-.528 1.04-.336zm8.656 12.08V34.667c0-.309.096-.56.288-.752.192-.192.442-.288.752-.288h5.264c.309 0 .56.096.752.288.192.192.288.443.288.752v5.36c0 .31-.096.56-.288.752-.192.192-.443.288-.752.288h-1.712c.17.651.368 1.216.592 1.696.277-.267.57-.57.88-.912.192-.235.386-.368.584-.4.197-.032.418.043.664.224.512.373.517.795.016 1.264-.427.395-.886.784-1.376 1.168a5.861 5.861 0 001.376 1.44c.373.224.597.448.672.672.085.245.005.533-.24.864-.203.266-.416.41-.64.432-.203.032-.454-.048-.752-.24-1.632-1.205-2.774-3.275-3.424-6.208h-1.152v4.128a56.113 56.113 0 001.408-.256c.586-.117.906.128.96.736.053.512-.176.826-.688.944-.662.16-1.648.378-2.96.656a33.01 33.01 0 01-.768.16c-.278.064-.499.042-.664-.064-.166-.107-.296-.304-.392-.592-.224-.672 0-1.06.672-1.168.277-.043.49-.075.64-.096zm1.792-6.08h3.296c.256 0 .384-.128.384-.384v-.96h-3.68v1.344zm0-2.896h3.68v-.88c0-.256-.128-.384-.384-.384h-2.912c-.256 0-.384.128-.384.384v.88zm9.44 7.68c.586.373 1.2.56 1.84.56.629 0 1.13-.187 1.504-.56.394-.395.592-.933.592-1.616s-.182-1.21-.544-1.584c-.363-.373-.848-.56-1.456-.56a2.6 2.6 0 00-1.152.256c-.406.245-.79.251-1.152.016l-.048-.032c-.331-.203-.486-.507-.464-.912l.24-4.144c.021-.309.128-.555.32-.736.192-.18.437-.272.736-.272h4.352c.65 0 .976.325.976.976 0 .661-.326.992-.976.992h-3.328l-.224 2.512a3.275 3.275 0 011.424-.336c1.056 0 1.914.304 2.576.912.714.672 1.072 1.621 1.072 2.848 0 1.27-.416 2.293-1.248 3.072-.779.725-1.744 1.088-2.896 1.088-1.323 0-2.47-.373-3.44-1.12-.374-.33-.395-.725-.064-1.184.405-.544.858-.603 1.36-.176zm-32.342-26.827c-.317-.253-.474-.591-.474-1.014 0-.412.157-.744.474-.998.304-.253.681-.38 1.133-.38.575 0 1.017.2 1.328.602.309.402.465.966.465 1.695 0 .93-.277 1.732-.829 2.408-.429.507-.981.913-1.658 1.22-.473.169-.795.053-.964-.349a.672.672 0 01.051-.602c.101-.18.271-.322.507-.427.801-.476 1.201-1.072 1.201-1.79h-.152c-.429 0-.79-.122-1.082-.365z" fill="#fff"/></g><defs><clipPath id="clip0_595_159"><path fill="#fff" d="M0 0h302v51H0z"/></clipPath></defs></svg>