<svg xmlns="http://www.w3.org/2000/svg" width="136" height="22"><path fill-rule="evenodd" fill="#FFF" d="M135.588 7.376l-1.44 4.18-1.98 5.76c-.52 1.413-1.107 2.44-1.76 3.08-.76.72-1.734 1.08-2.92 1.08-.24 0-.414-.007-.52-.02-.347-.067-.574-.253-.68-.56-.107-.267-.114-.593-.02-.98.066-.253.18-.453.34-.6a.634.634 0 01.62-.18h.04c1.026 0 1.726-.567 2.1-1.7l.2-.66-3.68-9.28c-.467-1.147-.087-1.72 1.14-1.72.76 0 1.266.367 1.52 1.1l1.4 4.1c.146.453.36 1.153.64 2.1l.3 1.06h.1a138.839 138.839 0 00.8-3.16l1.22-4.1c.213-.733.7-1.1 1.46-1.1 1.133 0 1.506.533 1.12 1.6zm-13.34 9.6c-.747 0-1.187-.347-1.32-1.04l-.02-.16h-.06c-1.147.987-2.274 1.48-3.38 1.48-.987 0-1.787-.313-2.4-.94-.614-.627-.92-1.42-.92-2.38 0-1.2.51-2.13 1.53-2.79 1.02-.66 2.656-1.11 4.91-1.35-.054-1.293-.687-1.94-1.9-1.94-.614 0-1.287.167-2.02.5-.707.36-1.24.213-1.6-.44-.347-.627-.22-1.107.38-1.44 1.266-.653 2.526-.98 3.78-.98 1.413 0 2.483.417 3.21 1.25.726.833 1.09 2.063 1.09 3.69v5.34c0 .8-.427 1.2-1.28 1.2zm-1.66-5.38c-1.267.173-2.214.44-2.84.8-.534.347-.8.78-.8 1.3 0 .84.493 1.26 1.48 1.26.706 0 1.426-.367 2.16-1.1v-2.26zm-14.02.12h-1.98v3.78c0 .987-.494 1.48-1.48 1.48-.987 0-1.48-.493-1.48-1.48V3.476c0-.387.12-.7.36-.94s.553-.36.94-.36h3.56c3.866 0 5.8 1.547 5.8 4.64 0 1.613-.554 2.853-1.66 3.72-1.014.787-2.367 1.18-4.06 1.18zm2.02-6.7c-.494-.333-1.267-.5-2.32-.5h-1.68v4.86h1.78c2.013 0 3.02-.853 3.02-2.56 0-.827-.267-1.427-.8-1.8zm-10.76 3.98c-.04-.2-.1-.393-.18-.58a.57.57 0 01-.04-.14 17.348 17.348 0 00-.22-.6c-.16-.413-.027-.68.4-.8.36-.12.62 0 .78.36.186.52.353 1.02.5 1.5.093.347-.047.58-.42.7-.427.16-.7.013-.82-.44zm-7.44-3.68h2.68c.36 0 .54.18.54.54 0 .36-.18.54-.54.54h-2.68c-.36 0-.54-.18-.54-.54 0-.36.18-.54.54-.54zm0-1.54h2.68c.36 0 .54.18.54.54 0 .36-.18.54-.54.54h-2.68c-.36 0-.54-.18-.54-.54 0-.36.18-.54.54-.54zm7.48 2.4v-.04l-.78.06v3.18c0 .493-.247.74-.74.74-.507 0-.76-.247-.76-.74v-2c-.12.507-.274 1.007-.46 1.5-.134.293-.334.48-.6.56-.267.08-.554.033-.86-.14l-.02-.02h-.04v.4c0 .173-.087.26-.26.26h-2.02c-1 0-1.5-.5-1.5-1.5s.5-1.5 1.5-1.5h1.2c.333 0 .596.097.79.29.193.193.29.457.29.79v.9c.2-.453.346-.833.44-1.14.08-.333.236-.57.47-.71.233-.14.51-.177.83-.11l.24.06v-.74l-1 .06c-.467.027-.72-.193-.76-.66-.04-.493.186-.747.68-.76h.18c.173-.213.34-.413.5-.6a7.307 7.307 0 00-1.18-1.28v.18c0 .027-.014.04-.04.04h-4.04c-.2 0-.36-.06-.48-.18a.649.649 0 01-.18-.48v-.06a30.549 30.549 0 01-1.82 2.28l.86-.02c0-.013-.007-.027-.02-.04-.094-.32.02-.54.34-.66s.546-.033.68.26c.16.44.3.927.42 1.46.053.267-.094.467-.44.6-.16.067-.297.073-.41.02-.114-.053-.184-.16-.21-.32v-.04l-.62.06v3.24c0 .493-.247.74-.74.74-.494 0-.74-.247-.74-.74v-2c-.28 1.04-.614 1.88-1 2.52-.8-.387-1.054-1.02-.76-1.9.28-.853.853-1.18 1.72-.98h.04v-.78c-.12.013-.307.027-.56.04a91 91 0 00-.58.06c-.44.013-.687-.207-.74-.66-.054-.48.173-.733.68-.76l.44-.02a.414.414 0 01.08-.1l.48-.6a9.424 9.424 0 00-1.08-1.02c-.147-.133-.22-.32-.22-.56.013-.2.08-.4.2-.6a.57.57 0 01.26-.23.325.325 0 01.32.03c.146-.267.346-.66.6-1.18.213-.453.536-.567.97-.34.433.227.51.567.23 1.02-.16.267-.394.64-.7 1.12-.04.067-.074.12-.1.16.04.04.106.103.2.19.093.087.16.157.2.21.12-.173.286-.42.5-.74a.659.659 0 01.42-.32.733.733 0 01.54.1l.56.32v-.24c0-.067.033-.1.1-.1h4.36c.186 0 .28.093.28.28v.06l.36-.5c.106-.133.226-.147.36-.04l.04.04c.266-.48.473-.887.62-1.22.2-.413.523-.51.97-.29.446.22.523.557.23 1.01-.347.547-.64.987-.88 1.32.12.093.26.24.42.44.16-.213.373-.52.64-.92.133-.213.273-.337.42-.37.146-.033.333.01.56.13.466.253.526.593.18 1.02a41.61 41.61 0 01-1.6 1.88l1.08-.04v-.02l-.02-.02c-.187-.387-.074-.66.34-.82.346-.147.6-.06.76.26.186.4.366.867.54 1.4.08.333-.094.587-.52.76-.374.16-.587.093-.64-.2zm-5.68 2.2c0-.253-.127-.38-.38-.38h-.18c-.294 0-.44.147-.44.44v.06c0 .253.126.38.38.38h.44c.12 0 .18-.06.18-.18v-.32zm.68-6.86h-2.32c-.374 0-.56-.193-.56-.58 0-.373.186-.56.56-.56h2.32c.373 0 .56.187.56.56 0 .387-.187.58-.56.58zm-10.16 1.7a.414.414 0 01-.1-.08 5.27 5.27 0 00-.22-.18c-.067-.053-.167-.13-.3-.23-.134-.1-.234-.17-.3-.21-.627-.413-.694-.92-.2-1.52.4-.48.86-.567 1.38-.26.44.28.9.6 1.38.96.253.227.38.447.38.66 0 .2-.107.44-.32.72-.534.667-1.1.713-1.7.14zm-.22 2.7c.12.067.306.173.56.32.12.067.213.12.28.16l.36.24c.093.067.16.113.2.14.506.413.553.893.14 1.44-.267.347-.527.54-.78.58-.267.04-.554-.073-.86-.34a6.775 6.775 0 00-.94-.66c-.68-.413-.78-.933-.3-1.56.386-.493.833-.6 1.34-.32zm-6.26 2.22c-.12-.173-.3-.407-.54-.7-1.254.067-3.154.16-5.7.28-.947.04-1.647.073-2.1.1-.534.027-1.307.06-2.32.1-1.534.053-2.634.093-3.3.12-.387.013-.66-.073-.82-.26-.147-.173-.234-.467-.26-.88-.04-.827.32-1.247 1.08-1.26.36 0 .94-.013 1.74-.04h.16a33.91 33.91 0 002.42-4.52c.173-.413.396-.683.67-.81.273-.127.63-.117 1.07.03.973.307 1.206.927.7 1.86a58.23 58.23 0 01-2.02 3.34c1.52-.053 3.76-.147 6.72-.28a54.058 54.058 0 00-.48-.47 42.534 42.534 0 01-.46-.45c-.64-.573-.614-1.127.08-1.66.533-.413 1.046-.4 1.54.04 1.733 1.493 3.08 2.887 4.04 4.18.2.307.266.58.2.82-.067.227-.26.467-.58.72-.734.573-1.347.487-1.84-.26zm-19.26 10.36h-3.82c-2.014 0-3.607-.22-4.78-.66-1.414-.52-2.54-1.453-3.38-2.8-.467 1.147-1.067 2.133-1.8 2.96-.294.293-.57.45-.83.47-.26.02-.55-.097-.87-.35-.387-.333-.58-.647-.58-.94 0-.293.186-.613.56-.96 1.08-1.253 1.813-3.033 2.2-5.34.066-.427.213-.76.44-1 .253-.253.58-.36.98-.32.84.08 1.186.547 1.04 1.4-.054.44-.134.86-.24 1.26.56 1.48 1.46 2.527 2.7 3.14v-7.06h-3.1c-.747 0-1.12-.38-1.12-1.14 0-.747.373-1.12 1.12-1.12h8.64c.746 0 1.12.373 1.12 1.12 0 .76-.374 1.14-1.12 1.14h-3.12v2.5h4.34c.746 0 1.12.373 1.12 1.12 0 .747-.374 1.12-1.12 1.12h-4.34v2.98c.72.08 1.473.12 2.26.12 1.706 0 3.053-.007 4.04-.02.573-.013.946.087 1.12.3.173.213.173.587 0 1.12-.214.64-.7.96-1.46.96zm.1-11.44c-.814 0-1.22-.407-1.22-1.22v-1.04c0-.32-.16-.48-.48-.48h-11.22c-.32 0-.48.16-.48.48v1.1c0 .773-.387 1.16-1.16 1.16-.774 0-1.16-.387-1.16-1.16v-2.54c0-.387.12-.7.36-.94s.553-.36.94-.36h5.9v-.76c0-.827.413-1.24 1.24-1.24.826 0 1.24.413 1.24 1.24v.76h5.96c.386 0 .7.12.94.36s.36.553.36.94v2.48c0 .813-.407 1.22-1.22 1.22zm-18.9 8.34c-.24.213-.58.36-1.02.44-.08.013-.2.027-.36.04-.08.013-.14.02-.18.02-.307-.013-.474-.153-.5-.42a4.095 4.095 0 00-.2-1.06c-.147-.373-.027-.547.36-.52h.06c.2 0 .326-.053.38-.16.2-.2.3-.72.3-1.56 0-.933-.307-2.087-.92-3.46-.227-.507-.3-.953-.22-1.34.173-.907.4-2.18.68-3.82v-.04c.04-.293-.1-.44-.42-.44h-.38c-.32 0-.48.16-.48.48v14.1c0 .693-.347 1.04-1.04 1.04-.707 0-1.06-.347-1.06-1.04V2.416c0-.387.12-.7.36-.94s.553-.36.94-.36h3.1c.426 0 .746.133.96.4.213.267.286.62.22 1.06-.24 1.36-.614 3.073-1.12 5.14.946 1.853 1.42 3.367 1.42 4.54 0 1.533-.294 2.58-.88 3.14zm-5.28-3.82c0 .693-.347 1.04-1.04 1.04h-1c-.227 2.2-.854 3.987-1.88 5.36-.52.6-1.054.68-1.6.24-.614-.507-.62-1.107-.02-1.8.72-1.013 1.2-2.28 1.44-3.8h-.94c-.24 0-.434-.073-.58-.22a.783.783 0 01-.22-.58v-.9l-.7.3c-.174.067-.32.07-.44.01-.12-.06-.197-.173-.23-.34a11.38 11.38 0 00-.11-.49l-.66.06v7.3c0 .64-.32.96-.96.96-.654 0-.98-.32-.98-.96v-7.12l-1.4.12c-.654.053-1.014-.26-1.08-.94-.054-.707.273-1.08.98-1.12h.2c.16-.24.413-.64.76-1.2.066-.107.12-.193.16-.26-.44-.68-.967-1.373-1.58-2.08-.16-.173-.22-.427-.18-.76.026-.28.113-.547.26-.8a.929.929 0 01.36-.36c.16-.067.293-.047.4.06l.02.02c.266-.627.54-1.38.82-2.26.173-.667.593-.893 1.26-.68.666.213.84.667.52 1.36-.614 1.387-1.067 2.367-1.36 2.94.24.32.413.553.52.7.48-.933.82-1.613 1.02-2.04.133-.32.296-.517.49-.59.193-.073.45-.037.77.11.626.267.773.693.44 1.28a65.814 65.814 0 01-1.74 2.88l.7-.28c.386-.147.686-.02.9.38.626 1.32 1.026 2.46 1.2 3.42h1.56c.013-.347.02-.867.02-1.56v-.32h-.64c-.68 0-1.02-.347-1.02-1.04 0-.68.34-1.02 1.02-1.02h.64v-1.76h-.88c-.694 0-1.04-.353-1.04-1.06 0-.693.346-1.04 1.04-1.04h.88v-1.44c0-.68.34-1.02 1.02-1.02.68 0 1.02.34 1.02 1.02v1.44h.78c.693 0 1.04.347 1.04 1.04 0 .707-.347 1.06-1.04 1.06h-.78v1.76h.62c.68 0 1.02.34 1.02 1.02 0 .693-.34 1.04-1.02 1.04h-.62v.32c0 .693-.007 1.213-.02 1.56h.84c.693 0 1.04.347 1.04 1.04zm-8.46-4.28l-.2.33c-.094.153-.167.27-.22.35-.174.24-.32.453-.44.64l1.38-.08a14.337 14.337 0 00-.52-1.24zm-8.5-.68h2c.733 0 1.1.367 1.1 1.1 0 .733-.367 1.1-1.1 1.1h-.78v8.64c0 .76-.38 1.14-1.14 1.14-.76 0-1.14-.38-1.14-1.14v-8.64h-2.02c-.027 3.893-.774 6.88-2.24 8.96-.254.307-.52.463-.8.47-.28.007-.534-.13-.76-.41l-.04-.04c-.267-.2-.414-.443-.44-.73-.027-.287.08-.577.32-.87.706-1.04 1.2-2.307 1.48-3.8.186-1.04.28-2.327.28-3.86v-5.56c0-.427.12-.73.36-.91.24-.18.56-.21.96-.09l.06.02c1.733-.44 3.153-.9 4.26-1.38.293-.147.56-.193.8-.14.2.053.433.2.7.44.4.36.58.67.54.93-.04.26-.307.49-.8.69a37.336 37.336 0 01-4.68 1.28v2.8h3.08zm-5.88.8c0 .653-.327.98-.98.98h-2.46v1.54h2.26c.666 0 1 .333 1 1s-.334 1-1 1h-2.26v.16c.373.267 1.073.807 2.1 1.62.266.227.406.44.42.64 0 .187-.12.427-.36.72-.267.32-.514.483-.74.49-.227.007-.474-.143-.74-.45-.067-.067-.177-.18-.33-.34-.154-.16-.27-.28-.35-.36v3.12c0 .76-.38 1.14-1.14 1.14-.76 0-1.14-.38-1.14-1.14v-2.88a14.936 14.936 0 01-1.72 2.08c-.294.267-.554.4-.78.4-.227-.013-.467-.16-.72-.44-.294-.333-.427-.627-.4-.88.026-.253.22-.52.58-.8a13.484 13.484 0 002.56-3.08h-2c-.667 0-1-.333-1-1s.333-1 1-1h2.48v-1.54h-2.56c-.654 0-.98-.327-.98-.98s.326-.98.98-.98h.84c-.04-.4-.12-.787-.24-1.16-.107-.32-.1-.597.02-.83.12-.233.34-.383.66-.45l.16-.04h-1.26c-.64 0-.96-.327-.96-.98 0-.64.32-.96.96-.96h2.38v-.68c0-.76.38-1.14 1.14-1.14.76 0 1.14.38 1.14 1.14v.68h2.32c.64 0 .96.32.96.96 0 .653-.32.98-.96.98h-1.08l.62.12c.346.067.446.28.3.64-.28.707-.52 1.28-.72 1.72h1.02c.653 0 .98.327.98.98zm-3.2-3.46h-2.98c.186.373.346.807.48 1.3a.874.874 0 01-.11.72c-.14.213-.35.36-.63.44l-.06.02h3.88l-.7-.16a.592.592 0 01-.38-.24c-.08-.12-.087-.253-.02-.4.24-.587.413-1.147.52-1.68zm14.18 8.82c.04-.693.38-.993 1.02-.9.573.08.826.413.76 1a17.677 17.677 0 01-.28 1.94 27.8 27.8 0 01-.32 1.44c-.094.32-.227.517-.4.59-.174.073-.414.037-.72-.11-.28-.133-.457-.283-.53-.45-.074-.167-.064-.39.03-.67.2-.693.346-1.64.44-2.84zm5.72-.34a.3.3 0 00.02.08c.293.987.486 1.7.58 2.14.093.44-.107.74-.6.9-.307.107-.547.117-.72.03-.174-.087-.287-.29-.34-.61-.014-.04-.027-.1-.04-.18-.067-.307-.12-.547-.16-.72a1.19 1.19 0 01-.04-.16c-.12-.453-.214-.78-.28-.98-.16-.52.023-.86.55-1.02.526-.16.87.013 1.03.52zm37.76-2.54h10.6c.386 0 .7.12.94.36s.36.553.36.94v5.4c0 .387-.12.7-.36.94s-.554.36-.94.36h-10.6c-.387 0-.7-.12-.94-.36s-.36-.553-.36-.94v-5.4c0-.387.12-.7.36-.94s.553-.36.94-.36zm1.12 5.24c0 .32.16.48.48.48h7.76v-3.46h-7.76c-.32 0-.48.16-.48.48v2.5zm16.48-.76c.253-.667.526-1.42.82-2.26.253-.813.753-.987 1.5-.52.506.333.673.773.5 1.32a63.49 63.49 0 01-1.52 4.44c-.307.747-.827.913-1.56.5-.64-.36-.827-.847-.56-1.46.32-.76.593-1.433.82-2.02zm6.38-5.76a3.73 3.73 0 00-.1-.42 7.33 7.33 0 00-.14-.6c-.094-.373.053-.6.44-.68.373-.08.606.047.7.38.093.333.186.7.28 1.1.08.333-.067.553-.44.66-.44.12-.687-.027-.74-.44zm-2.04 4.9c.066-.333.226-.6.48-.8.253-.2.553-.3.9-.3h6.98c.213 0 .32-.107.32-.32v-.06c0-.16-.08-.24-.24-.24h-8.14c-.44 0-.66-.227-.66-.68 0-.44.22-.66.66-.66h9.26c.386 0 .7.12.94.36s.36.553.36.94v.72c0 .387-.12.7-.36.94s-.554.36-.94.36h-7.46l-.16.62h8.48c.946 0 1.273.687.98 2.06-.254.853-.554 1.427-.9 1.72-.387.307-1 .48-1.84.52-.187.013-.567.013-1.14 0h-.84c-.707-.013-1.14-.32-1.3-.92v-.02l-.02-.04c-.254-.533-.04-.773.64-.72.84.04 1.493.06 1.96.06.4 0 .673-.053.82-.16.12-.093.24-.253.36-.48.146-.373.06-.56-.26-.56h-7.32c0 .013-.007.027-.02.04a.647.647 0 01-.32.37.817.817 0 01-.52.09c-.427-.053-.74-.18-.94-.38-.227-.227-.28-.52-.16-.88.16-.56.293-1.087.4-1.58z"/></svg>