<svg width="158" height="22" viewBox="0 0 158 22" fill="none" xmlns="http://www.w3.org/2000/svg"><g clip-path="url(#clip0_15_24)"><path fill-rule="evenodd" clip-rule="evenodd" d="M154.92 5.276h1.44c.893 0 1.273.627 1.14 1.88-.094.56-.234.933-.42 1.12-.294.293-.68.453-1.16.48a.547.547 0 00-.08.01.598.598 0 01-.1.01c-.067 0-.1.027-.1.08v5.52c0 .387-.12.7-.36.94s-.554.36-.94.36h-1.7c1.28.413 2.453.827 3.52 1.24.626.253.92.5.88.74-.04.213-.394.467-1.06.76-.28.12-.494.187-.64.2a1.255 1.255 0 01-.62-.14 39.263 39.263 0 00-3-1.24c-.547-.2-.844-.433-.89-.7-.047-.267.15-.54.59-.82l.06-.04h-5.3l.86.38c.213.093.326.207.34.34.013.133-.074.253-.26.36-1.307.693-2.887 1.293-4.74 1.8-.52.16-.974.047-1.36-.34-.774-.773-.554-1.273.66-1.5 1.386-.307 2.533-.653 3.44-1.04h-1.42c-.387 0-.697-.117-.93-.35-.234-.233-.35-.543-.35-.93v-4.66c-.24.053-.42.087-.54.1-.6.107-1.047-.08-1.34-.56-.227-.373-.2-.693.08-.96.226-.227.6-.387 1.12-.48 1.266-.28 2.2-.667 2.8-1.16h-1.72l-.02.04c-.027.08-.127.12-.3.12-.494-.04-.88-.153-1.16-.34-.334-.227-.427-.527-.28-.9.026-.067.066-.173.12-.32.173-.507.3-.887.38-1.14.093-.307.263-.553.51-.74.246-.187.536-.28.87-.28h2.68v-.46c0-.227-.114-.34-.34-.34h-3.46c-.467 0-.7-.233-.7-.7 0-.467.233-.7.7-.7h3.8v-.04c0-.253.113-.46.34-.62.2-.133.446-.2.74-.2.293 0 .54.067.74.2.213.16.32.367.32.62v.04h2.18v-.04c0-.253.12-.46.36-.62.213-.133.466-.2.76-.2.293 0 .546.067.76.2.24.16.36.367.36.62v.04h2.9c.386 0 .7.12.94.36s.36.553.36.94v.98c0 .387-.12.7-.36.94s-.554.36-.94.36h-2.9v.78h2.74zm-.88 2.1h.02c.36.027.593.033.7.02.2 0 .34-.047.42-.14a.693.693 0 00.12-.28c.04-.2-.02-.3-.18-.3h-2.94v1.32h1.72c-.04-.147-.08-.287-.12-.42-.067-.147.02-.213.26-.2zm-9.32 6.6c0 .227.113.34.34.34h7.7c.32 0 .48-.16.48-.48v-.34h-8.52v.48zm0-1.76h8.52v-.8h-8.52v.8zm-1.12-7.72l-.28.78h2.16c.053-.16.086-.287.1-.38.013-.08.02-.213.02-.4h-2zm6.34-1.84c0-.227-.114-.34-.34-.34h-1.44c-.267 0-.4.133-.4.4v.06c0 .227.113.34.34.34h1.84v-.46zm0 1.84h-2.18c0 .04-.004.103-.01.19-.007.087-.01.15-.01.19 0 .04-.004.103-.01.19a1.379 1.379 0 01-.03.21h2.24v-.78zm0 2.18h-2.62a4.082 4.082 0 01-.98 1.32h3.6v-1.32zm3.26-3.56h.64c.266 0 .4-.133.4-.4v-.06c0-.227-.114-.34-.34-.34h-1.24c-.32 0-.48.16-.48.48v.32h1.02zm-8.48 6.24v.78h8.52v-.78h-8.52zm-7.58-3.98l-.6.4v10.4c0 .587-.06 1.04-.18 1.36a1.523 1.523 0 01-.74.76c-.454.213-1.12.34-2 .38-.88.027-1.414-.273-1.6-.9-.267-.88.186-1.3 1.36-1.26h.46c.266-.013.4-.14.4-.38v-1.38h-5.32v2.8c0 .773-.387 1.16-1.16 1.16-.774 0-1.16-.387-1.16-1.16v-11.5c-.214-.173-.507-.38-.88-.62-.227-.133-.357-.307-.39-.52-.034-.213.036-.413.21-.6.56-.707 1.06-1.467 1.5-2.28.293-.627.8-.833 1.52-.62.826.253 1.033.767.62 1.54-.574 1-1.2 1.913-1.88 2.74h3.04v-4.46c0-.8.4-1.2 1.2-1.2.8 0 1.2.4 1.2 1.2v4.46H136c-.36-.787-.974-1.727-1.84-2.82-.534-.627-.454-1.153.24-1.58.546-.32 1.033-.247 1.46.22.746.827 1.34 1.6 1.78 2.32a.989.989 0 01.09.81c-.087.287-.284.53-.59.73zm-2.9 2.54h-5.32v1.4h5.32v-1.4zm0 3.4h-5.32v1.44h5.32v-1.44zm-9.88-7.6c-.254.053-.554-.053-.9-.32-.334-.253-.854-.573-1.56-.96-.76-.373-.894-.9-.4-1.58.373-.493.82-.627 1.34-.4.453.187.866.387 1.24.6.066.04.16.093.28.16.266.16.46.28.58.36.56.413.626.913.2 1.5-.267.373-.527.587-.78.64zm-2.7 2.1c.826.387 1.54.76 2.14 1.12.293.2.453.413.48.64.013.213-.08.473-.28.78-.48.72-1.047.833-1.7.34a5.913 5.913 0 00-.66-.4c-.134-.08-.347-.2-.64-.36a8.954 8.954 0 01-.32-.18c-.72-.333-.84-.84-.36-1.52.346-.507.793-.647 1.34-.42zM110 4.836v.78h4.52c.386 0 .7.12.94.36s.36.553.36.94v1.04H117c.573 0 .86.287.86.86s-.287.86-.86.86h-1.18v1.28c0 .347-.104.623-.31.83-.207.207-.484.31-.83.31H110v.7h5.38c.573 0 .86.287.86.86 0 .587-.287.88-.86.88H110v.72h6.66c.586 0 .88.293.88.88 0 .6-.294.9-.88.9H110v.5c0 .787-.394 1.18-1.18 1.18-.787 0-1.18-.393-1.18-1.18v-.5h-6.48c-.587 0-.88-.3-.88-.9 0-.587.293-.88.88-.88h6.48v-.72h-5.24c-.574 0-.86-.293-.86-.88 0-.573.286-.86.86-.86h5.24v-.7h-4.76c-.547 0-.82-.28-.82-.84 0-.547.273-.82.82-.82h4.76v-.76h-6.86c-.574 0-.86-.287-.86-.86s.286-.86.86-.86h6.86v-.7h-4.56c-.547 0-.82-.273-.82-.82 0-.547.273-.82.82-.82h4.56v-.62c0-.213.106-.32.32-.32h.06a7.716 7.716 0 00-.64-.34c-.134-.067-.2-.153-.2-.26 0-.107.066-.207.2-.3a6.63 6.63 0 01.48-.4h-2.06l.12.19c.053.087.093.157.12.21.333.653.153 1.087-.54 1.3-.654.213-1.114.02-1.38-.58a12.463 12.463 0 00-.66-1.12h-.1c-.414.6-.774 1.087-1.08 1.46-.24.293-.48.46-.72.5-.24.04-.52-.047-.84-.26-.387-.253-.587-.507-.6-.76-.014-.253.14-.553.46-.9a12.89 12.89 0 001.66-2.44c.306-.64.823-.853 1.55-.64.726.213.923.653.59 1.32h3.76c.32 0 .48.16.48.48v.06c0 .293.093.327.28.1.36-.44.68-.9.96-1.38.28-.6.746-.82 1.4-.66.786.2.993.667.62 1.4h4.98c.573 0 .86.287.86.86s-.287.86-.86.86h-2.92c.026.027.06.073.1.14l.04.06c.413.627.273 1.08-.42 1.36-.654.253-1.134.1-1.44-.46a14.082 14.082 0 00-.76-1.1h-.72c-.4.48-.794.913-1.18 1.3h.28c.106 0 .16.053.16.16zm0 5.6h2.94c.32 0 .48-.16.48-.48v-.28H110v.76zm0-2.48h3.42v-.42c0-.187-.094-.28-.28-.28H110v.7zm-13.28 2.52H81.08c-.854 0-1.28-.433-1.28-1.3 0-.853.426-1.28 1.28-1.28h15.64c.853 0 1.28.427 1.28 1.28 0 .867-.427 1.3-1.28 1.3zm-19.84.16h-3.8v5.12h3.6c.76 0 1.14.38 1.14 1.14 0 .76-.38 1.14-1.14 1.14h-9.44c-.76 0-1.14-.38-1.14-1.14 0-.76.38-1.14 1.14-1.14h3.44v-5.12h-4.22c-.76 0-1.14-.387-1.14-1.16 0-.76.38-1.14 1.14-1.14h4.22v-4.44a85.73 85.73 0 01-2.88.42 1.4 1.4 0 01-1-.21c-.294-.193-.494-.477-.6-.85a8.4 8.4 0 00-.3-.76c-.347.773-.76 1.573-1.24 2.4v12.62c0 .787-.394 1.18-1.18 1.18-.787 0-1.18-.393-1.18-1.18v-9.06c-.067.08-.16.2-.28.36a2.3 2.3 0 00-.16.2c-.4.44-.757.65-1.07.63-.314-.02-.61-.283-.89-.79-.214-.373-.3-.707-.26-1 .04-.293.213-.593.52-.9 1.453-1.587 2.666-3.487 3.64-5.7.306-.773.833-1.04 1.58-.8.813.253 1.053.773.72 1.56a12.61 12.61 0 01-.18.42c3.733-.493 6.773-1.113 9.12-1.86.306-.107.573-.113.8-.02.186.08.4.253.64.52.72.827.58 1.393-.42 1.7-.907.24-1.9.467-2.98.68v4.88h3.8c.76 0 1.14.38 1.14 1.14 0 .773-.38 1.16-1.14 1.16zm-20.12-5.26h-4.92c.16 1.933.42 3.76.78 5.48a21.224 21.224 0 001.52-3.28c.253-.773.76-1.067 1.52-.88.813.2 1.073.727.78 1.58-.787 2.08-1.774 3.94-2.96 5.58.586 1.52 1.2 2.28 1.84 2.28.24 0 .42-.273.54-.82.066-.707.22-1.24.46-1.6.293-.453.66-.527 1.1-.22.24.16.393.493.46 1 .053.373.053.773 0 1.2-.214 1.093-.54 1.853-.98 2.28-.4.387-.994.58-1.78.58-1.307 0-2.42-.88-3.34-2.64-.707.747-1.48 1.42-2.32 2.02-.707.467-1.307.407-1.8-.18-.334-.387-.46-.733-.38-1.04.066-.293.326-.58.78-.86 1-.72 1.9-1.527 2.7-2.42-.614-2.053-1.067-4.74-1.36-8.06h-5.26c-.32 0-.48.16-.48.48v1.66h3.58c.426 0 .74.16.94.48.226.387.333 1.013.32 1.88-.054 1.68-.12 2.887-.2 3.62-.094.747-.227 1.24-.4 1.48-.32.427-.78.693-1.38.8-.28.04-.627.06-1.04.06-.827 0-1.327-.3-1.5-.9-.147-.493-.107-.833.12-1.02.2-.173.58-.247 1.14-.22h.06c.266 0 .466-.08.6-.24.146-.213.246-1.173.3-2.88.013-.347-.02-.587-.1-.72-.067-.107-.187-.16-.36-.16h-2.08c-.08 3.36-.56 6.033-1.44 8.02-.24.44-.497.69-.77.75-.274.06-.597-.063-.97-.37-.347-.267-.54-.56-.58-.88-.04-.293.04-.647.24-1.06.693-1.68 1.04-4.113 1.04-7.3v-4.54c0-.387.12-.7.36-.94s.553-.36.94-.36h6.78l-.06-1.72c-.027-.827.38-1.24 1.22-1.24.826 0 1.24.42 1.24 1.26 0 .387.013.953.04 1.7h3.02c-.374-.32-.9-.693-1.58-1.12-.627-.413-.66-.9-.1-1.46.4-.4.826-.467 1.28-.2.68.4 1.213.747 1.6 1.04.266.2.403.457.41.77.006.313-.124.61-.39.89l-.06.08h.88c.786 0 1.18.393 1.18 1.18 0 .787-.394 1.18-1.18 1.18zm-19.78 12.62c-.374.28-.934.42-1.68.42h-2.54c-1.134 0-1.9-.2-2.3-.6-.374-.4-.56-1.147-.56-2.24v-4.06h-2.56c-.2 1.693-.6 3.013-1.2 3.96-.747 1.173-1.954 2.087-3.62 2.74-.44.147-.847.207-1.22.18-.467-.027-.794-.193-.98-.5-.28-.44-.22-.86.18-1.26.32-.32.8-.58 1.44-.78.986-.453 1.693-1.06 2.12-1.82.346-.6.58-1.44.7-2.52h-3.58c-.747 0-1.12-.373-1.12-1.12 0-.747.373-1.12 1.12-1.12H36.6c.746 0 1.12.373 1.12 1.12 0 .747-.374 1.12-1.12 1.12h-4.32v4.02c0 .32.05.52.15.6.1.08.33.12.69.12h1.96c.266 0 .44-.073.52-.22.08-.6.24-1.053.48-1.36.293-.373.666-.467 1.12-.28.28.12.466.4.56.84.08.36.093.747.04 1.16-.16.76-.434 1.293-.82 1.6zm-8.16-12.32h4.02c.72 0 1.08.36 1.08 1.08 0 .72-.36 1.08-1.08 1.08h-8.02c-.72 0-1.08-.36-1.08-1.08 0-.72.36-1.08 1.08-1.08h4zm7.26 1.02c-.84 0-1.26-.42-1.26-1.26v-1.24H23.3c-.32 0-.48.16-.48.48v.82c0 .8-.4 1.2-1.2 1.2-.8 0-1.2-.4-1.2-1.2v-2.22c0-.387.12-.7.36-.94s.553-.36.94-.36h5.86v-.68c0-.827.413-1.24 1.24-1.24.826 0 1.24.413 1.24 1.24v.68h5.98c.386 0 .7.12.94.36s.36.553.36.94v2.16c0 .84-.42 1.26-1.26 1.26zm-19.44 11.2H1.16c-.774 0-1.16-.387-1.16-1.16 0-.773.386-1.16 1.16-1.16h1.82V2.396c0-.387.12-.7.36-.94s.553-.36.94-.36h9.6c.386 0 .7.12.94.36s.36.553.36.94v13.18h1.46c.773 0 1.16.387 1.16 1.16 0 .773-.387 1.16-1.16 1.16zM12.7 3.876c0-.32-.16-.48-.48-.48H5.8c-.32 0-.48.16-.48.48v2.04h7.38v-2.04zm0 4.24H5.32v2.56h7.38v-2.56zm0 4.86H5.32v2.6h7.38v-2.6zm109.3 1.08c.346-.587.76-1.34 1.24-2.26.4-.773.946-.867 1.64-.28.493.427.606.92.34 1.48-.6 1.227-1.354 2.667-2.26 4.32-.467.76-1.047.867-1.74.32-.334-.253-.53-.51-.59-.77-.06-.26.016-.563.23-.91.32-.507.7-1.14 1.14-1.9z" fill="#fff"/></g><defs><clipPath id="clip0_15_24"><path fill="#fff" d="M0 0h158v22H0z"/></clipPath></defs></svg>