<svg width="101" height="22" viewBox="0 0 101 22" fill="none" xmlns="http://www.w3.org/2000/svg"><path fill-rule="evenodd" clip-rule="evenodd" d="M98.47 5.44h-.66l.8.18a.6.6 0 01.43.29c.086.153.09.343.01.57-.014.053-.04.14-.08.26-.32 1.093-.56 1.833-.72 2.22h.5c.653 0 .98.327.98.98 0 .667-.327 1-.98 1h-1.28v2.1h1.04c.64 0 .96.32.96.96 0 .653-.32.98-.96.98h-1.04v3.64c0 .72-.36 1.08-1.08 1.08-.72 0-1.08-.36-1.08-1.08v-3.64h-1.06c-.64 0-.96-.327-.96-.98 0-.64.32-.96.96-.96h1.06v-2.1h-1.2c-.654 0-.98-.333-.98-1 0-.653.326-.98.98-.98h.06a13.313 13.313 0 00-.2-1.74c-.107-.413-.077-.773.09-1.08.166-.307.45-.513.85-.62l.26-.08h-.98c-.654 0-.98-.327-.98-.98s.326-.98.98-.98h1.12V2.12c0-.72.36-1.08 1.08-1.08.72 0 1.08.36 1.08 1.08v1.36h1c.653 0 .98.327.98.98s-.327.98-.98.98zm-1.2 3.34a.603.603 0 01-.39-.26.447.447 0 01-.05-.42c.013-.04.026-.1.04-.18.213-.92.353-1.593.42-2.02.04-.307-.1-.46-.42-.46h-1.14c-.334 0-.447.153-.34.46.186.613.313 1.173.38 1.68.026.293-.047.563-.22.81-.174.247-.42.417-.74.51l-.2.06h3.38l-.72-.18zm-5.08 9.7c-.28.467-.667.753-1.16.86a8.164 8.164 0 01-.68.08c-.654 0-1.06-.293-1.22-.88-.174-.693.113-1.027.86-1 .24 0 .413-.113.52-.34.133-.24.233-.993.3-2.26.066-1.213.12-3.373.16-6.48.013-.387-.02-.653-.1-.8-.067-.12-.187-.18-.36-.18h-.28c-.107 2.64-.347 4.927-.72 6.86-.334 1.667-.807 3.113-1.42 4.34-.2.36-.407.563-.62.61-.214.047-.474-.063-.78-.33-.254-.227-.4-.427-.44-.6-.04-.2.02-.433.18-.7 1.2-2.213 1.88-5.607 2.04-10.18h-.04a.723.723 0 01-.62-.3c-.147-.173-.22-.407-.22-.7 0-.32.073-.573.22-.76.16-.2.386-.3.68-.3h.04c.026-1.12.026-2.273 0-3.46 0-.627.3-.94.9-.94.6 0 .9.307.9.92 0 .827-.014 1.987-.04 3.48h1.36c.413 0 .713.167.9.5.213.387.313 1.053.3 2-.054 3.8-.12 6.393-.2 7.78-.094 1.507-.247 2.433-.46 2.78zm-6.16-5.97c.2-.033.346-.057.44-.07.68-.093 1.04.2 1.08.88.026.6-.24.947-.8 1.04-.134.027-.327.06-.58.1l-.66.12c-.214 1.8-.854 3.253-1.92 4.36-.574.507-1.08.527-1.52.06-.52-.56-.44-1.14.24-1.74.493-.613.82-1.38.98-2.3-.174.027-.42.067-.74.12-.654.12-1.047-.147-1.18-.8-.067-.373-.044-.653.07-.84.113-.187.35-.307.71-.36.266-.04.693-.1 1.28-.18v-1.96h-1.14c-.654 0-.98-.327-.98-.98s.326-.98.98-.98h.12c.013-.587-.08-1.327-.28-2.22-.147-.587.06-.947.62-1.08.533-.147.873.047 1.02.58.133.56.22 1 .26 1.32.026.293-.047.563-.22.81-.174.247-.42.417-.74.51l-.3.08h3.18l-.66-.16c-.334-.08-.467-.273-.4-.58.186-.733.346-1.52.48-2.36.04-.293-.1-.44-.42-.44h-2.46c-.64 0-.96-.327-.96-.98 0-.64.32-.96.96-.96h.94V2.1c0-.707.36-1.06 1.08-1.06.706 0 1.06.353 1.06 1.06v1.4h.86c.64 0 .96.32.96.96 0 .653-.32.98-.96.98h-.84l.92.2c.24.053.41.167.51.34.1.173.11.393.03.66-.32 1.107-.567 1.887-.74 2.34h.24c.653 0 .98.327.98.98s-.327.98-.98.98h-.98v1.64c.106-.013.26-.037.46-.07zm-8.8 2.05h-5.56v3.9c0 .813-.407 1.22-1.22 1.22-.827 0-1.24-.407-1.24-1.22v-3.9h-5.36c-.387 0-.7-.12-.94-.36s-.36-.553-.36-.94V4.98c0-.387.12-.7.36-.94s.553-.36.94-.36h5.36V2.22c0-.813.413-1.22 1.24-1.22.813 0 1.22.407 1.22 1.22v1.46h5.56c.386 0 .7.12.94.36s.36.553.36.94v8.28c0 .387-.12.7-.36.94s-.554.36-.94.36zm-8.02-8.6h-3.82c-.32 0-.48.16-.48.48v1.54h4.3V5.96zm0 4.2h-4.3v1.64c0 .32.16.48.48.48h3.82v-2.12zm6.86-3.72c0-.32-.16-.48-.48-.48h-3.92v2.02h4.4V6.44zm0 3.72h-4.4v2.12h3.92c.32 0 .48-.16.48-.48v-1.64zM56.61 7.6h2c.733 0 1.1.367 1.1 1.1 0 .733-.367 1.1-1.1 1.1h-.78v8.64c0 .76-.38 1.14-1.14 1.14-.76 0-1.14-.38-1.14-1.14V9.8h-2.02c-.027 3.893-.774 6.88-2.24 8.96-.254.307-.52.463-.8.47-.28.007-.534-.13-.76-.41l-.04-.04c-.267-.2-.414-.443-.44-.73-.027-.287.08-.577.32-.87.706-1.04 1.2-2.307 1.48-3.8.186-1.04.28-2.327.28-3.86V3.96c0-.427.12-.73.36-.91.24-.18.56-.21.96-.09l.06.02c1.733-.44 3.153-.9 4.26-1.38.293-.147.56-.193.8-.14.2.053.433.2.7.44.4.36.58.67.54.93-.04.26-.307.49-.8.69a37.336 37.336 0 01-4.68 1.28v2.8h3.08zm-5.88.8c0 .653-.327.98-.98.98h-2.46v1.54h2.26c.666 0 1 .333 1 1s-.334 1-1 1h-2.26v.16c.373.267 1.073.807 2.1 1.62.266.227.406.44.42.64 0 .187-.12.427-.36.72-.267.32-.514.483-.74.49-.227.007-.474-.143-.74-.45-.067-.067-.177-.18-.33-.34-.154-.16-.27-.28-.35-.36v3.12c0 .76-.38 1.14-1.14 1.14-.76 0-1.14-.38-1.14-1.14v-2.88a14.936 14.936 0 01-1.72 2.08c-.294.267-.554.4-.78.4-.227-.013-.467-.16-.72-.44-.294-.333-.427-.627-.4-.88.026-.253.22-.52.58-.8a13.484 13.484 0 002.56-3.08h-2c-.667 0-1-.333-1-1s.333-1 1-1h2.48V9.38h-2.56c-.654 0-.98-.327-.98-.98s.326-.98.98-.98h.84c-.04-.4-.12-.787-.24-1.16-.107-.32-.1-.597.02-.83.12-.233.34-.383.66-.45l.16-.04h-1.26c-.64 0-.96-.327-.96-.98 0-.64.32-.96.96-.96h2.38v-.68c0-.76.38-1.14 1.14-1.14.76 0 1.14.38 1.14 1.14V3h2.32c.64 0 .96.32.96.96 0 .653-.32.98-.96.98h-1.08l.62.12c.346.067.446.28.3.64-.28.707-.52 1.28-.72 1.72h1.02c.653 0 .98.327.98.98zm-3.2-3.46h-2.98c.186.373.346.807.48 1.3a.874.874 0 01-.11.72c-.14.213-.35.36-.63.44l-.06.02h3.88l-.7-.16a.592.592 0 01-.38-.24c-.08-.12-.087-.253-.02-.4.24-.587.413-1.147.52-1.68zm-9.5 13.38c-.24.347-.5.6-.78.76-.24.133-.56.233-.96.3-.36.053-.86.08-1.5.08-.427-.013-.777-.127-1.05-.34a1.36 1.36 0 01-.51-.86v-.02l-.02-.04c-.147-.347-.147-.61 0-.79.146-.18.44-.263.88-.25.306.013.673.02 1.1.02.333 0 .586-.113.76-.34.24-.253.426-1.02.56-2.3.12-1.227.226-3.247.32-6.06.013-.373-.02-.627-.1-.76-.067-.12-.187-.18-.36-.18h-2.18c-.16 2.68-.554 4.853-1.18 6.52-.747 2.013-1.914 3.64-3.5 4.88-.76.52-1.387.493-1.88-.08-.6-.707-.427-1.387.52-2.04 1.253-1.027 2.166-2.353 2.74-3.98.493-1.373.8-3.14.92-5.3h-1.52c-.76 0-1.14-.38-1.14-1.14 0-.76.38-1.14 1.14-1.14h1.62c.013-.56.02-1.447.02-2.66 0-.827.4-1.24 1.2-1.24.8 0 1.2.407 1.2 1.22 0 .307-.004.757-.01 1.35a44.902 44.902 0 01-.03 1.33h3.76c.386 0 .666.153.84.46.2.36.293.98.28 1.86-.12 3.733-.26 6.333-.42 7.8-.16 1.52-.4 2.5-.72 2.94zM27.75 5.42h-1.42v7.18c.693-.187 1.213-.32 1.56-.4.786-.213 1.233.093 1.34.92.093.68-.194 1.12-.86 1.32-.84.253-2.087.613-3.74 1.08-.827.227-1.427.393-1.8.5-.414.107-.727.08-.94-.08-.2-.147-.354-.44-.46-.88-.094-.413-.074-.737.06-.97.133-.233.4-.397.8-.49a29.072 29.072 0 001.7-.42V5.42h-1.44c-.747 0-1.12-.373-1.12-1.12 0-.747.373-1.12 1.12-1.12h5.2c.746 0 1.12.373 1.12 1.12 0 .747-.374 1.12-1.12 1.12zm-9.38.94h-4.92c.16 1.933.42 3.76.78 5.48a21.223 21.223 0 001.52-3.28c.253-.773.76-1.067 1.52-.88.813.2 1.073.727.78 1.58-.787 2.08-1.774 3.94-2.96 5.58.586 1.52 1.2 2.28 1.84 2.28.24 0 .42-.273.54-.82.066-.707.22-1.24.46-1.6.293-.453.66-.527 1.1-.22.24.16.393.493.46 1 .053.373.053.773 0 1.2-.214 1.093-.54 1.853-.98 2.28-.4.387-.994.58-1.78.58-1.307 0-2.42-.88-3.34-2.64-.707.747-1.48 1.42-2.32 2.02-.707.467-1.307.407-1.8-.18-.334-.387-.46-.733-.38-1.04.066-.293.326-.58.78-.86 1-.72 1.9-1.527 2.7-2.42-.614-2.053-1.067-4.74-1.36-8.06H5.75c-.32 0-.48.16-.48.48V8.5h3.58c.426 0 .74.16.94.48.226.387.333 1.013.32 1.88-.054 1.68-.12 2.887-.2 3.62-.094.747-.227 1.24-.4 1.48-.32.427-.78.693-1.38.8-.28.04-.627.06-1.04.06-.827 0-1.327-.3-1.5-.9-.147-.493-.107-.833.12-1.02.2-.173.58-.247 1.14-.22h.06c.266 0 .466-.08.6-.24.146-.213.246-1.173.3-2.88.013-.347-.02-.587-.1-.72-.067-.107-.187-.16-.36-.16H5.27c-.08 3.36-.56 6.033-1.44 8.02-.24.44-.497.69-.77.75-.274.06-.597-.063-.97-.37-.347-.267-.54-.56-.58-.88-.04-.293.04-.647.24-1.06.693-1.68 1.04-4.113 1.04-7.3V5.3c0-.387.12-.7.36-.94S3.703 4 4.09 4h6.78l-.06-1.72c-.027-.827.38-1.24 1.22-1.24.826 0 1.24.42 1.24 1.26 0 .387.013.953.04 1.7h3.02c-.374-.32-.9-.693-1.58-1.12-.627-.413-.66-.9-.1-1.46.4-.4.826-.467 1.28-.2.68.4 1.213.747 1.6 1.04.266.2.403.457.41.77.006.313-.124.61-.39.89l-.06.08h.88c.786 0 1.18.393 1.18 1.18 0 .787-.394 1.18-1.18 1.18z" fill="#fff"/></svg>