<svg width="117" height="22" viewBox="0 0 117 22" fill="none" xmlns="http://www.w3.org/2000/svg"><path fill-rule="evenodd" clip-rule="evenodd" d="M116.398 13.276c-.24.24-.554.36-.94.36h-10.26c-.36 1.893-.974 3.533-1.84 4.92-.307.4-.594.627-.86.68-.294.067-.614-.047-.96-.34-.627-.533-.64-1.22-.04-2.06.706-1.2 1.2-2.627 1.48-4.28.186-1.147.28-2.527.28-4.14v-4.32c0-.453.133-.78.4-.98.266-.2.613-.24 1.04-.12l.16.04c3.6-.453 6.586-1.04 8.96-1.76.266-.08.5-.087.7-.02.173.053.373.187.6.4.426.4.626.727.6.98-.027.267-.307.473-.84.62-2.454.653-5.527 1.207-9.22 1.66v1.4h9.8c.386 0 .7.12.94.36s.36.553.36.94v4.72c0 .387-.12.7-.36.94zm-2.02-4.28c0-.32-.16-.48-.48-.48h-8.24c0 .96-.047 1.933-.14 2.92h8.38c.32 0 .48-.16.48-.48v-1.96zm-16.48.96c.64 0 .96.32.96.96 0 .653-.32.98-.96.98h-3.18c.173.68.42 1.353.74 2.02.386-.293.853-.687 1.4-1.18.24-.24.48-.36.72-.36.213.013.446.14.7.38.52.48.513.96-.02 1.44a28.611 28.611 0 01-1.82 1.32c.4.52.873.973 1.42 1.36.493.267.793.547.9.84.12.32.026.687-.28 1.1-.44.613-1.027.7-1.76.26a7.73 7.73 0 01-2.28-2.5l.06.96c.04.56-.227.893-.8 1-1.054.2-2.594.467-4.62.8a.349.349 0 01-.08.02c-.334.053-.587.013-.76-.12-.174-.133-.3-.373-.38-.72-.174-.733.106-1.147.84-1.24.08-.013.19-.03.33-.05.14-.02.243-.037.31-.05v-5.28h-.12c-.64 0-.96-.327-.96-.98 0-.64.32-.96.96-.96h.14v-6.9c0-.387.12-.7.36-.94s.553-.36.94-.36h6.56c.64 0 .96.32.96.96 0 .64-.32.96-.96.96h-5.2c-.32 0-.48.16-.48.48v.44h5.14c.573 0 .86.287.86.86 0 .587-.287.88-.86.88h-5.14v.92h5.12c.586 0 .88.293.88.88s-.294.88-.88.88h-5.12v.94h6.36zm-6.38 1.94v4.96c.413-.053 1.04-.147 1.88-.28.413-.067.726-.113.94-.14-.707-1.227-1.247-2.74-1.62-4.54h-1.2zm-4.7 3.38c-.547.04-.854-.167-.92-.62-.12-.547-.26-.967-.42-1.26v5.34c0 .653-.327.98-.98.98-.667 0-1-.327-1-.98V6.796h-.48c-.24 0-.36.12-.36.36v7.56c0 .573-.287.86-.86.86-.587 0-.88-.287-.88-.86v-8.7c0-.387.12-.7.36-.94s.553-.36.94-.36h1.28v-2.68c0-.653.333-.98 1-.98.653 0 .98.327.98.98v2.68h1.36c.373 0 .67.11.89.33.22.22.33.517.33.89v7.28c0 .88-.167 1.447-.5 1.7a1.84 1.84 0 01-.74.36zm-.44-8c0-.32-.16-.48-.48-.48h-.42v6.56h.76c.093 0 .14-.067.14-.2v-5.88zm-8.38 11.6h-10.54c-.747 0-1.12-.373-1.12-1.12 0-.747.373-1.12 1.12-1.12h5.36c.76-2.4 1.34-4.953 1.74-7.66.12-.853.606-1.213 1.46-1.08.853.133 1.186.647 1 1.54-.56 2.653-1.2 5.053-1.92 7.2h2.9c.746 0 1.12.373 1.12 1.12 0 .747-.374 1.12-1.12 1.12zm-7.54-10.08c.533 2.16.893 4.093 1.08 5.8.026.347-.034.6-.18.76-.147.16-.407.28-.78.36-.454.093-.787.08-1-.04-.227-.133-.347-.42-.36-.86-.094-.907-.2-1.74-.32-2.5a43.112 43.112 0 00-.56-3.08c-.147-.707.14-1.127.86-1.26.68-.12 1.1.153 1.26.82zm7.14-1.9h-9.74c-.747 0-1.12-.38-1.12-1.14 0-.747.373-1.12 1.12-1.12h3.52v-2.16c0-.787.4-1.18 1.2-1.18.786 0 1.18.393 1.18 1.18v2.16h3.84c.746 0 1.12.373 1.12 1.12 0 .76-.374 1.14-1.12 1.14zm-12.3-1.22v12.86c0 .747-.374 1.12-1.12 1.12-.747 0-1.12-.373-1.12-1.12v-9.46c-.054.067-.13.167-.23.3-.1.133-.177.233-.23.3-.4.44-.75.65-1.05.63-.3-.02-.577-.283-.83-.79-.187-.373-.26-.7-.22-.98.04-.28.206-.573.5-.88 1.386-1.533 2.56-3.36 3.52-5.48.293-.733.793-.98 1.5-.74.76.267.986.753.68 1.46a26.046 26.046 0 01-1.4 2.78zm-7.26 1.2h-.04c-.4 3.187-1.047 5.733-1.94 7.64.56 1 1.206 1.827 1.94 2.48.4.293.626.587.68.88.066.293-.047.627-.34 1-.267.32-.54.487-.82.5-.254 0-.554-.133-.9-.4-.734-.653-1.36-1.4-1.88-2.24a12.649 12.649 0 01-2.16 2.22c-.374.253-.734.347-1.08.28-.347-.067-.62-.28-.82-.64a4.026 4.026 0 01-.2-.28 13.66 13.66 0 01-.12-.18l-.74.72a1.11 1.11 0 01-.65.33.878.878 0 01-.65-.15c-.454-.28-.927-.553-1.42-.82-1 .587-2.294 1.04-3.88 1.36-.747.133-1.24-.047-1.48-.54-.334-.707.006-1.12 1.02-1.24.906-.147 1.66-.34 2.26-.58-.12-.053-.3-.13-.54-.23-.24-.1-.42-.17-.54-.21l-.02.04c-.08.147-.24.193-.48.14-.414-.093-.72-.253-.92-.48-.214-.253-.22-.533-.02-.84.093-.133.233-.353.42-.66.04-.08.073-.14.1-.18l-1.26.02c-.587 0-.887-.287-.9-.86-.014-.6.246-.9.78-.9 1.013 0 1.793-.007 2.34-.02.106-.187.253-.453.44-.8h-1.52c-.387 0-.7-.12-.94-.36s-.36-.553-.36-.94v-1.1c0-.387.12-.7.36-.94s.553-.36.94-.36h2.2v-.62h-1.8c-.387 0-.7-.12-.94-.36s-.36-.553-.36-.94v-.82h-.4c-.56 0-.84-.28-.84-.84 0-.56.28-.84.84-.84h.4v-1.12c0-.307.09-.547.27-.72.18-.173.416-.26.71-.26h2.12v-.04c0-.627.333-.94 1-.94.666 0 1 .313 1 .94v.04h2c.386 0 .7.12.94.36s.36.553.36.94v.8h.44c.56 0 .84.28.84.84 0 .56-.28.84-.84.84h-.44v1.12c0 .293-.09.533-.27.72-.18.187-.424.28-.73.28h-2.3v.62h3.12c.386 0 .58.193.58.58v.06c.88-1.693 1.533-4 1.96-6.92.106-.813.533-1.167 1.28-1.06.733.093 1.046.513.94 1.26-.08.587-.207 1.327-.38 2.22h3.54c.733 0 1.1.387 1.1 1.16 0 .693-.334 1.04-1 1.04zm-13.14-3.06c0-.2-.1-.3-.3-.3h-.38c-.32 0-.48.16-.48.48v.24h1.16v-.42zm0 1.86h-1.16v.44c0 .2.1.3.3.3h.86v-.74zm0 4.3h-1.24c-.214 0-.32.107-.32.32v.16c0 .24.12.36.36.36h1.2v-.84zm.08 4.78l-.32.56c.293.093.62.213.98.36.306.12.633.253.98.4.346-.387.64-.84.88-1.36l-2.52.04zm3.18-10.94c0-.2-.1-.3-.3-.3h-.48c-.32 0-.48.16-.48.48v.24h1.26v-.42zm-.48 2.6c.32 0 .48-.16.48-.48v-.26h-1.26v.74h.78zm.88 3.92c0-.24-.12-.36-.36-.36h-1.3v.84h1.3c.24 0 .36-.12.36-.36v-.12zm3.86.28c-.027.04-.06.107-.1.2-.134.253-.24.433-.32.54-.107.173-.23.267-.37.28-.14.013-.264-.047-.37-.18a5.988 5.988 0 00-.33-.35 5.36 5.36 0 01-.33-.35v.8c0 .453-.227.68-.68.68h-3.72l.16.04c.013 0 .02.007.02.02l-.4.72c.8-.013 2.033-.027 3.7-.04.413-.013.726-.02.94-.02.586-.027.866.253.84.84-.014.533-.294.813-.84.84l-1 .02c-.28.893-.667 1.647-1.16 2.26.093.053.226.12.4.2.586.32 1.006.553 1.26.7a9.252 9.252 0 003.48-3.32c-.44-1.053-.834-2.347-1.18-3.88zm1.42-3.74l-.04.12c.28 1.813.633 3.38 1.06 4.7.213-.68.4-1.433.56-2.26.146-.76.273-1.613.38-2.56h-1.96zm-16.23 2.7c-.274.053-.597-.027-.97-.24a27.815 27.815 0 01-1.92-1.3v.58c0 .307-.154.46-.46.46h-3.34v1.98h5.08c.68 0 1.02.34 1.02 1.02 0 .68-.34 1.02-1.02 1.02h-5.08v4h2.16l-.7-.3c-.174-.067-.284-.167-.33-.3-.047-.133-.024-.267.07-.4.453-.76.813-1.42 1.08-1.98.173-.36.38-.59.62-.69.24-.1.54-.083.9.05.813.307.946.86.4 1.66-.587.88-1.054 1.533-1.4 1.96h3.46c.68 0 1.02.34 1.02 1.02 0 .68-.34 1.02-1.02 1.02h-14.72c-.68 0-1.02-.34-1.02-1.02 0-.68.34-1.02 1.02-1.02h2.84c-.2-.6-.48-1.24-.84-1.92-.254-.4-.327-.77-.22-1.11.106-.34.36-.597.76-.77l.46-.2h-2c-.68 0-1.02-.34-1.02-1.02 0-.68.34-1.02 1.02-1.02h5v-1.98h-2.72c-.28 0-.504-.083-.67-.25-.167-.167-.25-.39-.25-.67v-.06a30.06 30.06 0 01-1.92 1.28c-.36.2-.674.28-.94.24-.28-.04-.534-.213-.76-.52-.534-.72-.347-1.32.56-1.8a22.125 22.125 0 003.58-2.72c1.066-.987 1.953-1.987 2.66-3 .12-.16.296-.3.53-.42.233-.12.476-.18.73-.18h.74c.546 0 .986.22 1.32.66a20.622 20.622 0 006.54 5.5c.506.227.803.483.89.77.086.287-.03.65-.35 1.09-.254.333-.517.527-.79.58zm-12.03 3.52c.48.627.946 1.393 1.4 2.3.12.28.116.56-.01.84-.127.28-.357.493-.69.64l-.5.22h2.68v-4h-2.88zm7.38-6.44c-1.347-1.133-2.427-2.253-3.24-3.36-.894 1.253-2.06 2.487-3.5 3.7h6.66c.32 0 .346-.113.08-.34zm-30.28 6.24c.173.787.3 1.513.38 2.18.04.4-.16.66-.6.78-.574.147-.887-.06-.94-.62-.014-.12-.04-.3-.08-.54a6.119 6.119 0 00-.04-.32 8.2 8.2 0 00-.09-.54 29.17 29.17 0 00-.11-.54c-.12-.48.073-.78.58-.9.48-.12.78.047.9.5zm14.82-5.22a.19.19 0 00.16.08h.22a.609.609 0 00.19-.02c.033-.013.07-.093.11-.24.066-.52.3-.667.7-.44.266.133.373.38.32.74-.04.347-.087.567-.14.66a1.215 1.215 0 01-.46.48c-.2.067-.427.1-.68.1h-.7c-.414 0-.72-.107-.92-.32a1.135 1.135 0 01-.27-.52c-.047-.2-.07-.527-.07-.98v-1.1h-.46c-.08.76-.24 1.373-.48 1.84-.294.547-.734.98-1.32 1.3h3.14c.293 0 .526.087.7.26.173.173.26.407.26.7v5.1c0 .387-.12.7-.36.94s-.554.36-.94.36h-.56c.773.347 1.54.733 2.3 1.16.373.227.546.453.52.68-.027.2-.22.44-.58.72-.267.2-.487.313-.66.34-.214.027-.44-.047-.68-.22a29.295 29.295 0 00-1.86-1.1c-.374-.187-.58-.42-.62-.7-.04-.28.08-.56.36-.84l.04-.04h-3.42l.7.48c.173.12.266.257.28.41.013.153-.054.283-.2.39-.8.573-1.82 1.073-3.06 1.5a1.502 1.502 0 01-.89.01 1.366 1.366 0 01-.71-.5 8.93 8.93 0 00-.62-.73c-.307.067-.774.16-1.4.28-1.547.307-2.667.52-3.36.64-.334.067-.59.033-.77-.1-.18-.133-.31-.373-.39-.72-.08-.373-.06-.663.06-.87.12-.207.36-.337.72-.39.346-.067.906-.167 1.68-.3v-5.32h-1.42c-.667 0-1-.333-1-1s.333-1 1-1h1.42v-1.4h-1.04c-.414 0-.62-.207-.62-.62v-.06l-.02.02c-.094.093-.22.067-.38-.08a2.093 2.093 0 01-.54-1.12c-.08-.467.013-.84.28-1.12.866-.96 1.546-2 2.04-3.12.093-.24.266-.44.52-.6.253-.16.533-.24.84-.24h.18c.426 0 .8.147 1.12.44.653.627 1.24 1.287 1.76 1.98.226-.52.4-1.067.52-1.64.08-.453.343-.63.79-.53.446.1.623.363.53.79 0 .04-.014.113-.04.22h.52v-.5c0-.52.26-.78.78-.78s.78.26.78.78v.5h.7c.48 0 .72.24.72.72s-.24.72-.72.72h-.7v.86h.76c.493 0 .74.273.74.82 0 .453-.207.68-.62.68h-.04v.94l.52-.08c.253-.04.393.073.42.34l.04.44c.44-.36.693-.907.76-1.64h-.04c-.48 0-.72-.247-.72-.74 0-.507.246-.76.74-.76h.06c-.107-.067-.32-.193-.64-.38-.174-.093-.287-.213-.34-.36a.512.512 0 01.04-.44c.2-.453.366-.98.5-1.58.053-.227.166-.387.34-.48.173-.093.38-.113.62-.06.346.067.486.26.42.58v.04c-.054.253.046.38.3.38h.12v-.5c0-.52.266-.78.8-.78.52 0 .78.26.78.78v.5h1c.466 0 .7.233.7.7 0 .467-.234.7-.7.7h-1v.9h1.36c.493 0 .74.247.74.74 0 .507-.247.76-.74.76h-.82v1.56zm-6.62 7.3c0 .187.093.28.28.28h3.88c.32 0 .48-.16.48-.48v-.22h-4.64v.42zm0-1.72h4.64v-.68h-4.64v.68zm0-1.96h4.64v-.4c0-.187-.094-.28-.28-.28h-3.88c-.32 0-.48.16-.48.48v.2zm-1.04-7.54h-.94a1.729 1.729 0 01-.18.46c-.014.04-.04.103-.08.19a8.99 8.99 0 01-.1.21h1.3v-.86zm2.96 4.6c-.147.04-.367.097-.66.17-.294.073-.514.13-.66.17a.701.701 0 01-.64-.16 1.198 1.198 0 01-.4-.62.617.617 0 010-.44.331.331 0 01.3-.22h.04v-.66c0-.32-.16-.48-.48-.48h-.14c-.174 1.293-.607 2.267-1.3 2.92-.494.36-.887.367-1.18.02-.374-.427-.274-.873.3-1.34.293-.387.486-.92.58-1.6h-.06c-.494 0-.74-.26-.74-.78 0-.48.233-.72.7-.72h.04a6.433 6.433 0 00-.54-.32l-.78.88c-.214.24-.427.357-.64.35-.214-.007-.387-.13-.52-.37-.52-.787-.954-1.387-1.3-1.8-.454.813-.96 1.573-1.52 2.28-.214.267-.16.4.16.4h2.78c.653 0 .98.327.98.98s-.327.98-.98.98h-.82v1.4h1.18c.666 0 1 .333 1 1s-.334 1-1 1h-1.18v4.98l1.28-.22c.346-.067.633-.01.86.17.226.18.353.443.38.79l.06.68a11.51 11.51 0 002.44-1.18h-.86c-.494 0-.74-.247-.74-.74v-5.32c0-.387.12-.7.36-.94s.553-.36.94-.36h3.46a4.239 4.239 0 00-.7-.9zm2.58-4.64h-.9a1.928 1.928 0 01-.09.24 6.632 6.632 0 01-.11.24l-.07.13c-.034.06-.057.103-.07.13-.067.107-.034.16.1.16h1.14v-.9zm-8.08 10.44c-.08.32-.16.62-.24.9-.12.4-.4.54-.84.42-.467-.12-.647-.393-.54-.82.12-.453.24-1.047.36-1.78.093-.547.403-.753.93-.62.526.133.723.467.59 1-.067.2-.154.5-.26.9z" fill="#fff"/></svg>