<svg xmlns="http://www.w3.org/2000/svg" width="267" height="51"><path fill-rule="evenodd" fill="#FFF" d="M263.023 24.783h-7.992v22.842c0 2.124-1.063 3.186-3.186 3.186-2.125 0-3.186-1.062-3.186-3.186V24.783h-7.992c-2.125 0-3.186-1.061-3.186-3.186 0-2.123 1.061-3.186 3.186-3.186h7.992V3.777c0-2.123 1.061-3.186 3.186-3.186 2.123 0 3.186 1.063 3.186 3.186v14.634h7.992c2.123 0 3.186 1.063 3.186 3.186 0 2.125-1.063 3.186-3.186 3.186zm-27.864-10.422h-16.794c-1.693 0-2.538-.845-2.538-2.538 0-1.691.845-2.538 2.538-2.538h16.794c1.691 0 2.538.847 2.538 2.538 0 1.693-.847 2.538-2.538 2.538zm-1.944-7.452h-12.096c-1.62 0-2.43-.81-2.43-2.43s.81-2.43 2.43-2.43h12.096c1.62 0 2.43.81 2.43 2.43s-.81 2.43-2.43 2.43zm-23.76 18.09c-2.16.685-3.439 0-3.834-2.052-.253-1.043-.685-2.519-1.296-4.428-.469-1.439-1.134-3.257-1.998-5.454-.829-1.836-.235-3.059 1.782-3.672 1.62-.503 2.808 0 3.564 1.512 1.728 3.888 3.041 7.525 3.942 10.908.216.864.125 1.549-.27 2.052-.324.432-.955.81-1.89 1.134zm-3.834 3.456c2.087.54 2.735 1.944 1.944 4.212-1.836 4.285-4.303 7.795-7.398 10.53-3.024 2.7-6.985 4.878-11.88 6.534-2.341.72-3.996.288-4.968-1.296-1.369-2.268-.289-3.869 3.24-4.806 7.199-2.411 12.15-6.659 14.85-12.744.359-1.007.908-1.728 1.647-2.16.737-.432 1.593-.521 2.565-.27zm-8.046 4.212c-1.153.577-2.629.918-4.428 1.026-2.052.073-3.367-.665-3.942-2.214-.829-2.339.216-3.473 3.132-3.402h.486c.648 0 .972-.287.972-.864V3.399c0-2.015 1.026-3.024 3.078-3.024 2.015 0 3.024 1.009 3.024 3.024v23.922c0 1.441-.162 2.575-.486 3.402-.361.864-.972 1.512-1.836 1.944zm-8.1-12.852a41.638 41.638 0 01-2.376 5.238c-.505.829-1.188 1.323-2.052 1.485-.864.162-1.711-.044-2.538-.621-1.009-.648-1.711-1.08-2.106-1.296-.648 4.069-1.512 7.668-2.592 10.8 1.691 1.693 2.879 2.935 3.564 3.726 1.08 1.261 1.043 2.592-.108 3.996-1.657 2.052-3.259 2.071-4.806.054a10.16 10.16 0 01-.486-.54 22.743 22.743 0 00-1.026-1.134c-1.765 2.989-3.888 5.454-6.372 7.398-.937.684-1.728.99-2.376.918-.756-.036-1.441-.504-2.052-1.404-.721-.972-.991-1.836-.81-2.592.179-.756.791-1.493 1.836-2.214 2.015-1.62 3.78-3.815 5.292-6.588a136.572 136.572 0 00-2.754-2.538v.108c-.108.469-.432.721-.972.756-.469 0-.955-.143-1.458-.432-1.981-1.188-2.845-2.43-2.592-3.726.935-4.139 1.907-8.891 2.916-14.256h-.702c-1.944 0-2.916-.972-2.916-2.916s.972-2.916 2.916-2.916h1.728c.251-1.475.594-3.653 1.026-6.534.108-.611.179-1.08.216-1.404.251-1.836 1.35-2.681 3.294-2.538 2.087.145 2.97 1.242 2.646 3.294a588.65 588.65 0 01-1.242 7.182h5.562c1.115 0 1.971.343 2.565 1.026.594.685.854 1.657.783 2.916-.216 3.24-.54 6.247-.972 9.018 2.123-2.771 3.834-6.839 5.13-12.204.395-2.16 1.593-3.051 3.591-2.673 1.998.378 2.781 1.576 2.349 3.591-.613 2.557-1.315 4.897-2.106 7.02zm-15.228-2.862h-2.808c-.432 2.376-1.153 5.851-2.16 10.422a6.74 6.74 0 01-.108.594c.575.469 1.458 1.188 2.646 2.16l1.134.972c.575-1.836 1.097-4.031 1.566-6.588.432-2.231.737-4.301.918-6.21.035-.899-.361-1.35-1.188-1.35zm-21.6 30.618h-39.852c-2.197 0-3.294-1.098-3.294-3.294 0-2.195 1.097-3.294 3.294-3.294h39.852c2.195 0 3.294 1.099 3.294 3.294 0 2.196-1.099 3.294-3.294 3.294zm-7.074-24.786c2.16 0 3.24 1.08 3.24 3.24 0 2.197-1.08 3.294-3.24 3.294h-26.136c-2.16 0-3.24-1.097-3.24-3.294 0-2.16 1.08-3.24 3.24-3.24h26.136zm4.212-10.746h-34.02c-2.16 0-3.24-1.08-3.24-3.24s1.08-3.24 3.24-3.24h34.02c2.16 0 3.24 1.08 3.24 3.24s-1.08 3.24-3.24 3.24zm-49.734 2.754H86.767c.432 5.221 1.134 10.152 2.106 14.796 1.691-2.987 3.059-5.94 4.104-8.856.683-2.087 2.052-2.879 4.104-2.376 2.195.54 2.897 1.963 2.106 4.266-2.125 5.616-4.789 10.638-7.992 15.066 1.583 4.104 3.24 6.156 4.968 6.156.648 0 1.134-.737 1.458-2.214.179-1.907.594-3.348 1.242-4.32.791-1.223 1.782-1.421 2.97-.594.648.432 1.061 1.333 1.242 2.7.143 1.009.143 2.089 0 3.24-.577 2.953-1.458 5.004-2.646 6.156-1.08 1.044-2.683 1.566-4.806 1.566-3.529 0-6.534-2.376-9.018-7.128a43.069 43.069 0 01-6.264 5.454c-1.909 1.26-3.529 1.098-4.86-.486-.901-1.044-1.242-1.98-1.026-2.808.179-.791.881-1.566 2.106-2.322a45.146 45.146 0 007.29-6.534c-1.657-5.543-2.881-12.798-3.672-21.762H65.977c-.864 0-1.296.432-1.296 1.296v4.482h9.666c1.151 0 1.998.432 2.538 1.296.611 1.045.899 2.737.864 5.076-.145 4.536-.324 7.795-.54 9.774-.253 2.017-.613 3.348-1.08 3.996-.864 1.153-2.106 1.873-3.726 2.16-.756.108-1.693.162-2.808.162-2.233 0-3.583-.81-4.05-2.43-.397-1.331-.289-2.249.324-2.754.54-.467 1.566-.665 3.078-.594h.162c.719 0 1.259-.216 1.62-.648.395-.575.665-3.167.81-7.776.035-.935-.054-1.583-.27-1.944-.181-.287-.505-.432-.972-.432h-5.616c-.216 9.072-1.512 16.291-3.888 21.654-.648 1.188-1.342 1.863-2.079 2.025-.739.162-1.612-.171-2.619-.999-.937-.72-1.458-1.512-1.566-2.376-.108-.791.108-1.745.648-2.862 1.871-4.536 2.808-11.105 2.808-19.71V11.931c0-1.043.324-1.89.972-2.538.648-.648 1.493-.972 2.538-.972h18.306c-.037-1.007-.091-2.555-.162-4.644-.073-2.231 1.026-3.348 3.294-3.348 2.231 0 3.348 1.134 3.348 3.402 0 1.045.035 2.575.108 4.59h8.154c-1.009-.864-2.43-1.871-4.266-3.024-1.693-1.115-1.782-2.43-.27-3.942 1.08-1.08 2.231-1.259 3.456-.54 1.836 1.08 3.275 2.017 4.32 2.808.719.54 1.088 1.234 1.107 2.079.017.847-.334 1.647-1.053 2.403l-.162.216h2.376c2.123 0 3.186 1.063 3.186 3.186 0 2.125-1.063 3.186-3.186 3.186zM43.567 32.127a55.792 55.792 0 01-4.104-2.484l.108 9.99c.972-.864 2.015-.972 3.132-.324 1.979 1.117 2.033 2.341.162 3.672-.577.397-1.441.955-2.592 1.674.935.145 2.285.324 4.05.54 3.059.181 3.869 1.404 2.43 3.672-.756 1.224-2.106 1.746-4.05 1.566-5.724-.792-10.405-2.286-14.04-4.482v1.296c0 .612-.324.936-.972.972-2.484.216-6.229.504-11.232.864-4.212.324-7.219.558-9.018.702-.793.036-1.369-.126-1.728-.486-.324-.324-.54-.936-.648-1.836-.216-1.799.54-2.717 2.268-2.754h.27a55.793 55.793 0 002.862-.216V29.751a60.897 60.897 0 01-4.482 3.024c-1.585.864-2.953.667-4.104-.594C.942 31.174.6 30.291.853 29.535c.251-.719 1.026-1.385 2.322-1.998 3.275-1.799 6.011-3.959 8.208-6.48H3.337c-1.441 0-2.16-.719-2.16-2.16 0-1.439.719-2.16 2.16-2.16h18.09v-1.782H8.359c-1.261 0-1.89-.648-1.89-1.944 0-1.259.629-1.89 1.89-1.89h13.068V9.339H6.091c-1.369 0-2.052-.702-2.052-2.106 0-1.367.683-2.052 2.052-2.052l6.534-.108c-1.188-1.944-.648-3.275 1.62-3.996 1.475-.467 2.646-.125 3.51 1.026.827 1.117 1.421 2.143 1.782 3.078h10.908c.251-.395.594-1.026 1.026-1.89.827-2.015 2.285-2.808 4.374-2.376 2.627.505 3.095 1.927 1.404 4.266h6.21c1.367 0 2.052.685 2.052 2.052 0 1.404-.685 2.106-2.052 2.106H27.907v1.782h13.284c1.259 0 1.89.631 1.89 1.89 0 1.296-.631 1.944-1.89 1.944H27.907v1.782h18.36c1.439 0 2.16.721 2.16 2.16 0 1.441-.721 2.16-2.16 2.16h-8.262c2.195 2.197 4.86 4.05 7.992 5.562 1.367.54 2.214 1.153 2.538 1.836.324.756.054 1.674-.81 2.754-1.08 1.333-2.467 1.639-4.158.918zM16.783 44.115l4.266-.27 4.32-.324c-.864-.719-1.765-1.674-2.7-2.862h-5.886v3.456zm0-6.858h16.2v-1.728h-16.2v1.728zm0-4.698h16.2v-1.62h-16.2v1.62zm15.174-10.422c-.361-.467-.613-.827-.756-1.08H18.619a31.252 31.252 0 01-1.08 1.566h14.742l-.324-.486zm.648.864v1.566c0 .793-.397 1.188-1.188 1.188h-12.15c-.685 0-1.234-.206-1.647-.621-.415-.413-.621-.962-.621-1.647v-.162a32.738 32.738 0 01-3.888 4.158h23.652c-1.693-1.512-3.078-3.005-4.158-4.482zm1.08 17.658h-4.59c1.512 1.08 3.383 1.981 5.616 2.7a72.2 72.2 0 003.618-2.7h-4.644zm188.028-9.018h10.152c1.043 0 1.89.324 2.538.972.648.648.972 1.495.972 2.538v9.288c0 1.045-.324 1.89-.972 2.538-.648.648-1.495.972-2.538.972h-10.152c-1.045 0-1.89-.324-2.538-.972-.648-.648-.972-1.493-.972-2.538v-9.288c0-1.043.324-1.89.972-2.538.648-.648 1.493-.972 2.538-.972zm1.998 9.99c0 .864.432 1.296 1.296 1.296h3.51c.864 0 1.296-.432 1.296-1.296v-3.618c0-.864-.432-1.296-1.296-1.296h-3.51c-.864 0-1.296.432-1.296 1.296v3.618zm9.396-19.926h-12.312c-1.62 0-2.43-.827-2.43-2.484 0-1.62.81-2.43 2.43-2.43h12.312c1.62 0 2.43.81 2.43 2.43 0 1.657-.81 2.484-2.43 2.484zm.054 7.29h-12.42c-1.585 0-2.376-.81-2.376-2.43 0-1.583.791-2.376 2.376-2.376h12.42c1.583 0 2.376.793 2.376 2.376 0 1.62-.793 2.43-2.376 2.43z"/></svg>