<svg xmlns="http://www.w3.org/2000/svg" width="674" height="112"><path fill-rule="evenodd" fill="#FF5D1D" d="M666.342 75.394h3.889c2.412 0 3.439 1.693 3.079 5.076-.252 1.512-.63 2.521-1.134 3.024-.793.793-1.837 1.225-3.133 1.296-.036 0-.108.01-.216.027a1.587 1.587 0 01-.27.027c-.181 0-.27.073-.27.216v14.904c0 1.045-.324 1.89-.972 2.538-.649.648-1.495.972-2.539.972h-4.591a178.45 178.45 0 019.506 3.348c1.692.684 2.485 1.35 2.377 1.998-.108.576-1.063 1.26-2.863 2.052-.756.324-1.333.504-1.728.54-.505.036-1.063-.09-1.675-.378a105.565 105.565 0 00-8.102-3.348c-1.477-.54-2.278-1.169-2.403-1.89-.127-.719.405-1.458 1.593-2.214l.162-.108h-14.313l2.322 1.026c.576.253.882.559.918.918.036.361-.198.685-.702.972-3.529 1.872-7.796 3.492-12.801 4.86-1.404.432-2.629.126-3.673-.918-2.089-2.088-1.494-3.437 1.783-4.05 3.744-.827 6.841-1.763 9.29-2.808h-3.835c-1.045 0-1.882-.314-2.512-.945-.63-.629-.945-1.466-.945-2.511V87.436c-.648.145-1.134.235-1.458.27-1.621.289-2.827-.216-3.619-1.512-.613-1.007-.54-1.871.216-2.592.612-.611 1.62-1.043 3.025-1.296 3.42-.756 5.941-1.799 7.562-3.132h-4.646l-.054.108c-.072.216-.342.324-.81.324-1.332-.108-2.376-.413-3.133-.918-.9-.611-1.152-1.421-.756-2.43.072-.179.18-.467.324-.864.468-1.367.811-2.393 1.027-3.078a3.835 3.835 0 011.377-1.998c.666-.503 1.449-.756 2.349-.756h7.238V68.32c0-.611-.306-.918-.918-.918h-9.344c-1.261 0-1.891-.629-1.891-1.89 0-1.259.63-1.89 1.891-1.89h10.262v-.108c0-.683.306-1.242.918-1.674.541-.359 1.206-.54 1.999-.54.792 0 1.458.181 1.998.54.576.432.865.991.865 1.674v.108h5.887v-.108c0-.683.324-1.242.972-1.674.576-.359 1.26-.54 2.053-.54.791 0 1.476.181 2.052.54.649.432.973.991.973 1.674v.108h7.831c1.044 0 1.891.324 2.539.972.648.648.972 1.495.972 2.538v2.646c0 1.045-.324 1.89-.972 2.538-.648.648-1.495.972-2.539.972h-7.831v2.106h7.399zm-2.376 5.67h.054c.972.073 1.602.091 1.89.054.54 0 .919-.125 1.135-.378.143-.179.251-.432.324-.756.108-.54-.054-.81-.486-.81h-7.94v3.564h4.645a49.618 49.618 0 00-.324-1.134c-.181-.395.054-.575.702-.54zm-25.17 17.82c0 .613.305.918.918.918h20.795c.864 0 1.296-.432 1.296-1.296v-.918h-23.009v1.296zm0-4.752h23.009v-2.16h-23.009v2.16zm-3.025-20.844l-.756 2.106h5.833c.144-.432.234-.773.27-1.026.036-.216.054-.575.054-1.08h-5.401zm17.122-4.968c0-.611-.306-.918-.918-.918h-3.889c-.721 0-1.08.361-1.08 1.08v.162c0 .613.305.918.918.918h4.969V68.32zm0 4.968h-5.887c0 .108-.01.28-.027.513a6.906 6.906 0 00-.027.513c0 .108-.01.28-.027.513a3.745 3.745 0 01-.081.567h6.049v-2.106zm0 5.886h-7.076c-.612 1.333-1.494 2.521-2.646 3.564h9.722v-3.564zm8.804-9.612h1.729c.72 0 1.08-.359 1.08-1.08v-.162c0-.611-.306-.918-.918-.918h-3.349c-.864 0-1.296.432-1.296 1.296v.864h2.754zM638.796 86.41v2.106h23.009V86.41h-23.009zm-20.471-18.468h-9.075c-.864 0-1.296.432-1.296 1.296v.432h8.48c1.224 0 1.837.613 1.837 1.836 0 1.225-.613 1.836-1.837 1.836h-22.253c-1.225 0-1.837-.611-1.837-1.836 0-1.223.612-1.836 1.837-1.836h7.562v-1.026c0-.467-.235-.702-.703-.702h-9.344c-1.296 0-1.944-.648-1.944-1.944 0-1.296.648-1.944 1.944-1.944h10.047v-.108c0-.864.287-1.529.864-1.998.575-.467 1.332-.702 2.268-.702.936 0 1.683.235 2.242.702.558.469.837 1.134.837 1.998v.108h10.371c1.296 0 1.944.648 1.944 1.944 0 1.296-.648 1.944-1.944 1.944zm-35.163 11.934l2.053-.756c1.115-.395 1.944-.035 2.484 1.08 1.296 2.881 2.269 5.635 2.917 8.262.216 1.08-.36 1.89-1.729 2.43-1.62.648-2.557.199-2.808-1.35-.037-.035-.054-.071-.054-.108l-2.323.162v19.44c0 1.764-.883 2.646-2.646 2.646-1.801 0-2.701-.882-2.701-2.646V89.974c-.36.037-.901.073-1.62.108a99.52 99.52 0 01-2.755.216c-1.621.145-2.539-.648-2.755-2.376-.216-1.907.612-2.879 2.485-2.916l.756-.054a41.184 41.184 0 002.431-3.564c-.901-1.475-2.413-3.437-4.538-5.886-.468-.54-.63-1.259-.486-2.16a4.778 4.778 0 01.919-2.214c.251-.395.575-.665.972-.81.467-.179.845-.125 1.134.162l.054.054c1.044-2.015 2.016-4.266 2.917-6.75.324-.899.747-1.466 1.269-1.701.522-.233 1.251-.206 2.188.081 1.872.613 2.34 1.873 1.404 3.78-1.549 3.024-3.043 5.707-4.483 8.046.683.793 1.26 1.531 1.728 2.214 1.297-2.303 2.377-4.391 3.241-6.264.36-.827.819-1.331 1.377-1.512.558-.179 1.287-.089 2.188.27 1.8.793 2.214 1.998 1.242 3.618-1.764 2.881-3.385 5.4-4.861 7.56zm-1.782 2.7a56.325 56.325 0 00-1.513 2.106l4.645-.216c-.396-1.223-.954-2.609-1.674-4.158a82.31 82.31 0 01-1.458 2.268zm-5.996 10.692c1.584.253 2.286 1.171 2.107 2.754-.181 1.477-.469 3.205-.865 5.184a68.547 68.547 0 01-1.08 3.996c-.324.829-.721 1.342-1.188 1.539-.468.199-1.117.1-1.945-.297-.828-.395-1.35-.837-1.566-1.323-.216-.486-.162-1.142.162-1.971.54-1.691 1.044-4.212 1.512-7.56.18-1.836 1.135-2.609 2.863-2.322zm-12.045 1.89h-17.986v8.802c0 1.909-.262 3.348-.783 4.32-.523.972-1.414 1.71-2.674 2.214-1.657.648-4.357 1.008-8.102 1.08-2.521 0-4.124-.828-4.807-2.484-.577-1.332-.432-2.322.432-2.97.756-.575 1.98-.827 3.673-.756h3.943c.612-.035 1.053-.162 1.323-.378s.405-.594.405-1.134v-8.694h-17.986c-2.089 0-3.133-1.043-3.133-3.132 0-2.087 1.044-3.132 3.133-3.132h17.986v-6.318h-14.421c-2.053 0-3.079-1.026-3.079-3.078 0-2.052 1.026-3.078 3.079-3.078h14.421v-6.318c-5.005.397-9.579.702-13.719.918-.937.037-1.675-.125-2.215-.486-.54-.359-.936-.989-1.188-1.89-.576-2.123.396-3.24 2.917-3.348 12.782-.683 22.973-1.907 30.571-3.672.756-.216 1.405-.197 1.945.054.467.216.99.667 1.566 1.35 1.008 1.153 1.431 2.089 1.269 2.808-.162.721-.963 1.261-2.403 1.62-3.781.756-7.832 1.387-12.153 1.89v7.074h14.908c2.052 0 3.078 1.026 3.078 3.078 0 2.052-1.026 3.078-3.078 3.078h-14.908v6.318h17.986c2.088 0 3.133 1.045 3.133 3.132 0 2.089-1.045 3.132-3.133 3.132zm-53.473-9.828c1.729 0 2.593.864 2.593 2.592 0 1.765-.864 2.646-2.593 2.646h-8.588a29.244 29.244 0 001.999 5.454c1.044-.791 2.304-1.853 3.781-3.186.648-.648 1.296-.972 1.944-.972.576.037 1.206.378 1.89 1.026 1.405 1.296 1.386 2.592-.054 3.888-2.052 1.585-3.691 2.773-4.915 3.564a17.654 17.654 0 003.835 3.672c1.332.721 2.142 1.477 2.431 2.268.324.864.071 1.854-.756 2.97-1.189 1.656-2.774 1.89-4.754.702-2.52-1.764-4.573-4.013-6.157-6.75l.162 2.592c.108 1.512-.613 2.412-2.161 2.7-2.845.54-7.004 1.26-12.477 2.16a.884.884 0 01-.216.054c-.9.144-1.585.036-2.052-.324-.469-.36-.81-1.008-1.026-1.944-.469-1.979.287-3.095 2.268-3.348.216-.035.513-.081.891-.135.378-.054.657-.098.838-.135V90.568h-.325c-1.728 0-2.592-.881-2.592-2.646 0-1.728.864-2.592 2.592-2.592h.379V66.7c0-1.043.324-1.89.972-2.538.648-.648 1.494-.972 2.538-.972h17.717c1.728 0 2.592.864 2.592 2.592 0 1.728-.864 2.592-2.592 2.592h-14.044c-.864 0-1.296.432-1.296 1.296v1.188h13.881c1.548 0 2.323.775 2.323 2.322 0 1.585-.775 2.376-2.323 2.376H492.69v2.484h13.827c1.584 0 2.377.793 2.377 2.376 0 1.585-.793 2.376-2.377 2.376H492.69v2.538h17.176zm-17.23 5.238v13.392a185.53 185.53 0 005.077-.756 84.012 84.012 0 012.539-.378c-1.909-3.311-3.368-7.398-4.375-12.258h-3.241zm-12.693 9.126c-1.477.108-2.305-.449-2.485-1.674-.324-1.475-.702-2.609-1.134-3.402v14.418c0 1.764-.883 2.646-2.647 2.646-1.801 0-2.7-.882-2.7-2.646V76.798h-1.297c-.648 0-.972.324-.972.972v20.412c0 1.549-.775 2.322-2.322 2.322-1.585 0-2.377-.773-2.377-2.322v-23.49c0-1.043.324-1.89.972-2.538.648-.648 1.494-.972 2.539-.972h3.457v-7.236c0-1.763.899-2.646 2.7-2.646 1.764 0 2.647.883 2.647 2.646v7.236h3.673c1.008 0 1.809.297 2.403.891.595.594.892 1.396.892 2.403v19.656c0 2.376-.451 3.907-1.351 4.59a4.91 4.91 0 01-1.998.972zm-1.188-21.6c0-.864-.433-1.296-1.297-1.296h-1.134V94.51h2.053c.251 0 .378-.179.378-.54V78.094zm-22.2 21.924h-3.781v6.102c0 1.476-.144 2.538-.432 3.186-.36.756-1.026 1.332-1.998 1.728-1.081.396-2.521.648-4.321.756-2.666.036-4.267-1.044-4.808-3.24a21.32 21.32 0 01-.432-1.134c-.144-.252-.234-.449-.27-.594l-.108.054c-.612.396-1.35.396-2.214 0-.756-.359-1.387-.918-1.891-1.674-.648-.899-.991-1.836-1.026-2.808-.108-1.08.234-1.853 1.026-2.322l.108-.054h-5.077v1.728c0 .937-.468 1.404-1.404 1.404h-6.806v5.724c0 1.872-.937 2.808-2.809 2.808s-2.808-.936-2.808-2.808v-5.724h-5.78c-1.873 0-2.808-.935-2.808-2.808 0-1.871.935-2.808 2.808-2.808h5.78v-3.24h-3.619c-.972 0-1.756-.297-2.35-.891-.594-.594-.891-1.377-.891-2.349V78.31c0-1.043.324-1.89.972-2.538.648-.648 1.494-.972 2.539-.972h3.349v-2.808h-5.078c-1.836 0-2.754-.935-2.754-2.808 0-1.836.918-2.754 2.754-2.754h5.078v-2.322c0-1.871.936-2.808 2.808-2.808 1.872 0 2.809.937 2.809 2.808v2.322h4.861c1.837 0 2.755.918 2.755 2.754 0 1.873-.918 2.808-2.755 2.808h-4.861V74.8h3.727c1.044 0 1.872.307 2.485.918.611.613.918 1.441.918 2.484v12.582c0 1.045-.324 1.89-.972 2.538-.649.648-1.495.972-2.539.972h-3.619v3.24h8.21v-1.296c0-.611.306-.918.918-.918h14.8v-.108c0-.611.324-1.115.972-1.512.54-.324 1.17-.486 1.891-.486.719 0 1.368.162 1.944.486.612.397.918.901.918 1.512v.108h3.781c1.548 0 2.323.775 2.323 2.322 0 1.585-.775 2.376-2.323 2.376zM418.26 80.902v-1.62h-1.729c-.864 0-1.296.432-1.296 1.296v1.89h3.025v-1.566zm0 7.398v-1.62h-3.025v1.89c0 .864.432 1.296 1.296 1.296h1.729V88.3zm7.4-7.722c0-.864-.432-1.296-1.297-1.296h-1.998v3.186h3.295v-1.89zm-1.675 9.288h1.026c.433 0 .649-.216.649-.648V86.68h-3.295v3.186h1.62zm23.064 10.152h-8.048c.72.685 1.476 1.585 2.268 2.7.252.324.595.81 1.027 1.458.179.324.216.658.108.999a1.549 1.549 0 01-.648.837l-1.027.648c1.405.073 3.169.108 5.294.108.683-.035 1.026-.305 1.026-.81v-5.94zm9.722-6.534c-1.332.648-2.341.343-3.025-.918-9.326.289-16.095.469-20.308.54-.685.037-1.171-.143-1.459-.54-.252-.287-.414-.827-.486-1.62-.073-.827.018-1.421.27-1.782.288-.395.81-.594 1.566-.594 2.629 0 5.528-.054 8.697-.162v-2.376h-5.834c-1.045 0-1.89-.324-2.538-.972-.649-.648-.973-1.493-.973-2.538V75.07c0-1.043.324-1.89.973-2.538.648-.648 1.493-.972 2.538-.972h5.834v-1.998h-7.94c-1.549 0-2.323-.791-2.323-2.376 0-1.547.774-2.322 2.323-2.322h7.94v-.918c0-1.763.899-2.646 2.7-2.646 1.764 0 2.647.883 2.647 2.646v.918h8.426c1.548 0 2.323.775 2.323 2.322 0 1.585-.775 2.376-2.323 2.376h-8.426v1.998h6.319c1.044 0 1.891.324 2.539.972.648.648.972 1.495.972 2.538v8.856c0 .648-.189 1.161-.567 1.539-.378.378-.891.567-1.539.567h-.162a30.65 30.65 0 013.133 4.266c.756 1.296.324 2.359-1.297 3.186zm-14.745-18.468h-3.457c-.613 0-.918.307-.918.918v1.188h4.375v-2.106zm0 5.4h-4.375v1.242c0 .613.305.918.918.918h3.457v-2.16zm5.347 7.884l3.457-.054a11.198 11.198 0 00-.648-.756c-.037-.071-.1-.17-.189-.297a.805.805 0 00-.243-.243c-.145-.143-.127-.27.054-.378l1.242-.54h-3.673V88.3zm4.591-12.42c0-.575-.289-.864-.864-.864h-3.727v2.106h4.591V75.88zm0 4.536h-4.591v2.16h3.619c.648 0 .972-.324.972-.972v-1.188zm-50.556 4.86h-4.267v18.954c0 1.801-.199 3.15-.594 4.05-.469.972-1.279 1.692-2.431 2.16-1.261.576-3.439.918-6.536 1.026-2.557.072-4.105-.81-4.645-2.646-.721-2.592.666-3.815 4.159-3.672.432 0 .972-.017 1.621-.054h.594c.899 0 1.35-.341 1.35-1.026V85.276h-12.747c-2.017 0-3.025-1.026-3.025-3.078 0-2.015 1.008-3.024 3.025-3.024h23.496c2.016 0 3.024 1.009 3.024 3.024 0 2.052-1.008 3.078-3.024 3.078zm-1.297-14.85h-19.93c-2.018 0-3.025-1.026-3.025-3.078 0-2.015 1.007-3.024 3.025-3.024h19.93c2.017 0 3.025 1.009 3.025 3.024 0 2.052-1.008 3.078-3.025 3.078zM369.27 83.548v25.002c0 2.124-1.063 3.186-3.187 3.186-2.125 0-3.187-1.062-3.187-3.186V90.622c-.396.361-.954.901-1.674 1.62-.937.829-1.783 1.225-2.539 1.188-.756-.035-1.512-.54-2.268-1.512-.793-1.007-1.135-1.907-1.027-2.7.108-.791.684-1.583 1.729-2.376 4.032-3.348 7.454-7.163 10.262-11.448 1.008-1.655 2.431-2.123 4.267-1.404 2.233.864 2.737 2.287 1.513 4.266a77.183 77.183 0 01-3.889 5.292zm-3.133-12.096a64.16 64.16 0 01-5.347 4.644c-.864.685-1.63.972-2.296.864-.667-.108-1.315-.629-1.944-1.566-.631-.935-.864-1.763-.702-2.484.162-.719.729-1.421 1.701-2.106a49.49 49.49 0 007.778-7.506c.54-.756 1.152-1.205 1.836-1.35.648-.143 1.422-.017 2.323.378 2.34.972 2.755 2.413 1.242 4.32a89.946 89.946 0 01-4.591 4.806zm-18.364.432h-4.267c1.512 2.7 3.222 4.897 5.131 6.588 1.044.793 1.638 1.566 1.782 2.322.144.793-.198 1.657-1.026 2.592-.721.864-1.423 1.306-2.107 1.323-.684.019-1.476-.332-2.376-1.053a29.02 29.02 0 01-2.269-2.43v1.35c0 .648-.324.972-.972.972H330.65c-1.332 0-1.998-.665-1.998-1.998v-.162c-.972.972-1.873 1.782-2.701 2.43-.864.613-1.728.856-2.592.729-.865-.125-1.603-.621-2.215-1.485-.684-.864-1.296-1.493-1.836-1.89h-3.835v5.67h2.808c1.801 0 2.701.901 2.701 2.7 0 1.836-.9 2.754-2.701 2.754h-2.808v8.1l3.997-.918c1.872-.432 2.916.324 3.132 2.268.217 1.62-.504 2.665-2.16 3.132-2.377.613-5.887 1.495-10.533 2.646a335.892 335.892 0 00-5.293 1.296c-1.765.432-2.863-.504-3.295-2.808-.144-.683-.072-1.296.216-1.836s.757-.881 1.405-1.026h.108V87.328c0-1.62.828-2.43 2.484-2.43 1.621 0 2.431.81 2.431 2.43v14.742l2.16-.486V81.172h-3.564c-.973 0-1.747-.287-2.323-.864-.576-.575-.864-1.35-.864-2.322V66.808c0-1.043.324-1.89.972-2.538.648-.648 1.494-.972 2.539-.972h9.992c1.044 0 1.891.324 2.539.972.648.648.972 1.495.972 2.538v13.5c3.276-2.231 5.887-5.039 7.832-8.424h-3.835c-1.873 0-2.809-.953-2.809-2.862 0-1.871.936-2.808 2.809-2.808h6.157c.108-.359.27-.918.487-1.674.035-.143.054-.251.054-.324.395-2.052 1.566-2.97 3.51-2.754 2.196.216 3.043 1.404 2.539 3.564a6.755 6.755 0 01-.27 1.188h10.911c1.872 0 2.808.937 2.808 2.808 0 1.909-.936 2.862-2.808 2.862zm-32.948.324v-2.322c0-.864-.433-1.296-1.297-1.296h-3.619c-.864 0-1.296.432-1.296 1.296v4.644c0 .864.432 1.296 1.296 1.296h4.916v-3.618zm22.307-.324h-2.215a32.622 32.622 0 01-2.97 5.4c-.505.721-.324 1.08.54 1.08h8.048c-1.225-1.907-2.359-4.067-3.403-6.48zm-43.319 37.638c-1.008.792-2.557 1.188-4.645 1.188h-7.237c-3.17 0-5.312-.558-6.428-1.674-1.045-1.044-1.566-3.041-1.566-5.994v-9.99h-.865c-1.369 3.853-3.367 7.093-5.995 9.72-3.025 3.024-7.076 5.454-12.153 7.29-1.08.324-2.089.432-3.025.324-1.08-.108-1.873-.54-2.376-1.296-.721-1.116-.667-2.141.162-3.078.683-.756 1.818-1.385 3.403-1.89 6.409-2.519 10.73-6.21 12.963-11.07h-9.831c-1.045 0-1.89-.324-2.538-.972-.649-.648-.973-1.493-.973-2.538l-.054-8.478c-1.08.829-2.142.702-3.186-.378-.901-.972-1.288-1.979-1.162-3.024.126-1.043.73-1.979 1.81-2.808 4.213-3.491 7.616-7.415 10.208-11.772.756-1.331 2.304-1.799 4.645-1.404.936.181 1.602.523 1.999 1.026.432.577.413 1.279-.054 2.106h12.153c1.26 0 2.106.378 2.538 1.134.433.756.396 1.873-.108 3.348-.828 1.836-1.98 3.637-3.456 5.4h10.964c1.044 0 1.881.316 2.512.945.629.631.945 1.468.945 2.511v11.394c0 1.045-.324 1.89-.972 2.538-.648.648-1.495.972-2.539.972h-8.426v9.882c0 .901.135 1.468.405 1.701.27.235.927.351 1.972.351h5.725c.756 0 1.278-.251 1.567-.756.216-1.655.648-2.933 1.296-3.834.792-1.043 1.8-1.313 3.025-.81.791.324 1.314 1.099 1.566 2.322.216.972.234 2.017.054 3.132-.468 2.124-1.242 3.618-2.323 4.482zm-34.784-23.49c0 .864.432 1.296 1.296 1.296h7.562c.324-1.583.63-3.905.918-6.966h-9.776v5.67zm4.321-15.984c-1.404 1.801-2.719 3.348-3.943 4.644h11.127a40.485 40.485 0 003.403-4.644H263.35zm21.065 17.28c.864 0 1.296-.432 1.296-1.296v-4.374c0-.864-.432-1.296-1.296-1.296h-8.912c-.181 2.089-.486 4.411-.918 6.966h9.83zm-46.667-1.566c-.432.829-.937 1.279-1.513 1.35-.468.073-1.206-.125-2.214-.594-.972-.467-1.585-.989-1.837-1.566-.252-.611-.162-1.367.27-2.268a58.956 58.956 0 002.161-5.724h-7.562v5.508c0 3.132.756 6.372 2.269 9.72 2.016 4.393 4.987 7.975 8.912 10.746 1.368.756 2.34 1.674 2.917 2.754.683 1.225.665 2.358-.054 3.402-.577.828-1.387 1.278-2.431 1.35-.972.036-1.963-.234-2.971-.81-3.277-2.196-6.068-5.057-8.372-8.586-1.873-2.879-3.061-5.579-3.565-8.1-.684 2.557-2.088 5.257-4.213 8.1a32.445 32.445 0 01-9.56 8.694c-1.045.54-2.035.81-2.971.81-1.08-.036-1.909-.45-2.484-1.242-.721-1.008-.685-2.088.108-3.24.648-.935 1.674-1.763 3.078-2.484 4.465-2.843 7.832-6.497 10.101-10.962 1.728-3.456 2.593-6.821 2.593-10.098V76.96h-4.322c-1.08 2.665-2.304 5.059-3.672 7.182-.685.972-1.378 1.539-2.08 1.701-.702.162-1.558-.044-2.566-.621-1.188-.683-1.845-1.385-1.971-2.106-.127-.719.224-1.62 1.053-2.7 2.701-4.031 4.807-9.161 6.32-15.39.251-1.115.72-1.944 1.404-2.484.72-.575 1.62-.756 2.701-.54 2.232.432 3.079 1.765 2.538 3.996-.288 1.188-.738 2.7-1.35 4.536h20.417c1.224 0 2.097.378 2.62 1.134.521.756.602 1.873.243 3.348-.973 3.817-2.305 7.398-3.997 10.746zm-32.678-9.828h-7.94c-2.017 0-3.025-1.026-3.025-3.078 0-2.015 1.008-3.024 3.025-3.024h7.94c2.016 0 3.025 1.009 3.025 3.024 0 2.052-1.009 3.078-3.025 3.078zm-5.294 17.064a63.604 63.604 0 002.161-1.242 147.248 147.248 0 003.187-1.836c2.016-1.188 3.384-.648 4.105 1.62.504 1.62.072 2.899-1.297 3.834a275.779 275.779 0 01-9.236 5.94c-1.045.648-1.927.856-2.646.621-.721-.233-1.351-.926-1.891-2.079-.505-1.08-.667-1.961-.486-2.646.18-.683.774-1.296 1.782-1.836a108.636 108.636 0 004.321-2.376zM179.9 86.842c-1.225 3.853-2.035 8.983-2.431 15.39-.073 1.369-.451 2.484-1.134 3.348-.721.937-1.711 1.404-2.971 1.404-1.333 0-2.341-.432-3.025-1.296-.648-.864-.918-1.998-.81-3.402.54-5.795 1.548-10.817 3.025-15.066 1.584-4.463 4.015-8.981 7.292-13.554h-14.692c-2.197 0-3.295-1.115-3.295-3.348 0-2.195 1.098-3.294 3.295-3.294h20.309c.9 0 1.62.27 2.161.81.54.54.81 1.261.81 2.16v.162c0 1.117-.415 2.197-1.243 3.24-3.456 4.465-5.887 8.947-7.291 13.446zm-26.413 15.066h-18.094v3.942c0 1.584-.253 2.754-.756 3.51-.505.756-1.405 1.332-2.701 1.728-1.404.396-3.943.63-7.616.702-2.017 0-3.313-.666-3.889-1.998-.468-1.152-.36-1.998.324-2.538.612-.467 1.621-.665 3.025-.594h3.511c.54-.035.909-.125 1.107-.27.198-.143.297-.413.297-.81v-3.672h-17.878c-1.801 0-2.701-.918-2.701-2.754 0-1.799.9-2.7 2.701-2.7h17.878v-1.296c0-.648.324-.972.972-.972h1.999a48.867 48.867 0 005.239-2.052h-21.011c-1.657 0-2.485-.845-2.485-2.538 0-1.655.828-2.484 2.485-2.484h30.301c1.476 0 2.331.351 2.566 1.053.234.702-.208 1.72-1.323 3.051-2.233 2.089-5.294 3.834-9.183 5.238h15.232c1.8 0 2.701.901 2.701 2.7 0 1.836-.901 2.754-2.701 2.754zm-34.946-28.836h27.6c1.044 0 1.891.324 2.539.972.648.648.972 1.495.972 2.538v4.86c0 1.045-.324 1.89-.972 2.538-.648.648-1.495.972-2.539.972h-27.6c-1.045 0-1.891-.324-2.539-.972-.648-.648-.972-1.493-.972-2.538v-4.86c0-1.043.324-1.89.972-2.538.648-.648 1.494-.972 2.539-.972zm2.862 6.156c0 .864.432 1.296 1.297 1.296h18.904c.864 0 1.297-.432 1.297-1.296v-.486c0-.864-.433-1.296-1.297-1.296H122.7c-.865 0-1.297.432-1.297 1.296v.486zm31.274-8.586h-41.104c-1.801 0-2.701-.899-2.701-2.7 0-1.799.9-2.7 2.701-2.7h17.068v-.702c0-2.195 1.098-3.294 3.295-3.294 2.196 0 3.295 1.099 3.295 3.294v.702h17.446c1.8 0 2.701.901 2.701 2.7 0 1.801-.901 2.7-2.701 2.7zm-53.851.54H57.452c-1.801 0-2.701-.918-2.701-2.754 0-1.799.9-2.7 2.701-2.7h17.122v-1.35c0-2.123 1.08-3.186 3.241-3.186 2.124 0 3.186 1.063 3.186 3.186v1.35h17.825c1.8 0 2.701.901 2.701 2.7 0 1.836-.901 2.754-2.701 2.754zM45.353 86.626H23.369v18.468c0 .864.414 1.153 1.243.864a28.846 28.846 0 006.373-3.456c-1.153-1.367-2.251-2.97-3.295-4.806-.468-1.007-.549-1.871-.243-2.592.306-.719.981-1.223 2.026-1.512l.162-.054H27.15c-1.62 0-2.43-.827-2.43-2.484 0-1.62.81-2.43 2.43-2.43h15.232c1.224 0 2.08.378 2.566 1.134.486.756.531 1.855.135 3.294-1.297 3.709-3.133 6.895-5.51 9.558 1.584 1.045 3.331 1.944 5.24 2.7 2.808.829 3.438 2.286 1.89 4.374-.972 1.296-2.341 1.638-4.105 1.026-2.845-1.152-5.275-2.52-7.292-4.104-1.693 1.296-3.691 2.538-5.995 3.726-.937.396-1.837.459-2.701.189-.864-.27-1.548-.819-2.052-1.647l-.973-1.296a1.158 1.158 0 01-.216-.27v1.35c0 2.016-1.008 3.024-3.024 3.024-2.053 0-3.079-1.008-3.079-3.024v-1.35c-.432.036-1.063.09-1.891.162-5.906.576-10.119.972-12.639 1.188-.9.072-1.548-.099-1.944-.513-.397-.414-.631-1.089-.702-2.025-.181-1.836.629-2.808 2.43-2.916.865-.071 1.53-.125 1.999-.162V86.626H2.844c-1.693 0-2.538-.845-2.538-2.538 0-1.691.845-2.538 2.538-2.538h42.509c1.692 0 2.538.847 2.538 2.538 0 1.693-.846 2.538-2.538 2.538zm-13.287 8.1c.899 1.585 1.89 2.953 2.97 4.104.72-.791 1.386-1.62 1.999-2.484a23.098 23.098 0 001.62-2.808h-5.887c-.829 0-1.063.397-.702 1.188zm-14.8-8.1h-6.914v2.16h6.914v-2.16zm0 6.642h-6.914v2.268h6.914v-2.268zm0 6.696h-6.914v2.646c.396-.035.972-.081 1.729-.135a61.18 61.18 0 001.674-.135 64.813 64.813 0 003.511-.27v-2.106zm20.957-20.412H10.082c-1.045 0-1.89-.324-2.538-.972-.649-.648-.973-1.493-.973-2.538v-9.558c0-1.043.324-1.89.973-2.538.648-.648 1.493-.972 2.538-.972h28.141c1.044 0 1.891.324 2.539.972.648.648.972 1.495.972 2.538v9.558c0 1.045-.324 1.89-.972 2.538-.648.648-1.495.972-2.539.972zM35.36 67.996c0-.611-.306-.918-.918-.918H13.971c-.864 0-1.296.432-1.296 1.296v.918H35.36v-1.296zm0 5.184H12.675v1.296c0 .648.324.972.972.972h20.417c.864 0 1.296-.432 1.296-1.296v-.972zm53.851 11.934H67.066c-1.045 0-1.89-.324-2.539-.972-.648-.648-.972-1.493-.972-2.538v-4.86c0-1.043.324-1.89.972-2.538.649-.648 1.494-.972 2.539-.972h22.145c1.044 0 1.891.324 2.539.972.648.648.972 1.495.972 2.538v4.86c0 1.045-.324 1.89-.972 2.538-.648.648-1.495.972-2.539.972zm-2.97-6.318c0-.864-.432-1.296-1.297-1.296H70.901c-.864 0-1.296.432-1.296 1.296v.702c0 .864.432 1.296 1.296 1.296h14.043c.865 0 1.297-.432 1.297-1.296v-.702zm-25.819 8.586h35.865c1.044 0 1.891.324 2.539.972.648.648.972 1.495.972 2.538v13.986c0 1.549-.181 2.736-.54 3.564-.432.936-1.153 1.638-2.161 2.106-1.116.54-2.7.864-4.753.972-1.261.036-2.295-.225-3.105-.783-.811-.558-1.324-1.323-1.54-2.295a12.158 12.158 0 00-.216-.567 8.693 8.693 0 00-.27-.621H71.387c-1.045 0-1.89-.324-2.538-.972-.649-.648-.973-1.493-.973-2.538v-5.076c0-1.043.324-1.89.973-2.538.648-.648 1.493-.972 2.538-.972h13.395c1.044 0 1.891.324 2.539.972.648.648.972 1.495.972 2.538v6.966c2.053.073 3.403.073 4.051 0 .396-.035.666-.108.81-.216.144-.108.217-.324.217-.648V94.024c0-.864-.433-1.296-1.297-1.296H64.419c-.864 0-1.296.432-1.296 1.296v14.58c0 2.052-1.026 3.078-3.079 3.078-2.088 0-3.132-1.026-3.132-3.078V90.892c0-1.043.324-1.89.972-2.538.648-.648 1.494-.972 2.538-.972zm22.254 13.338c0-.864-.432-1.296-1.296-1.296h-6.644c-.864 0-1.296.432-1.296 1.296v.918c0 .864.432 1.296 1.296 1.296h7.94v-2.214zm242.789-14.31h20.903c1.692 0 2.539.847 2.539 2.538 0 1.728-.847 2.592-2.539 2.592h-12.531l-.702 2.484h10.371c1.223 0 2.07.432 2.538 1.296.576 1.009.72 2.646.432 4.914-.72 5.113-1.674 8.226-2.862 9.342-1.045 1.08-2.558 1.71-4.538 1.89-1.404.072-2.719.09-3.942.054-2.197-.072-3.494-1.044-3.889-2.916v-.054l-.054-.108c-.829-1.691-.145-2.465 2.052-2.322a85.08 85.08 0 003.295.054c.972 0 1.674-.162 2.106-.486.612-.611 1.116-2.123 1.513-4.536.216-1.331-.108-1.998-.972-1.998h-7.616c0 .037-.019.073-.054.108-.432 1.296-1.387 1.819-2.863 1.566-2.449-.432-3.313-1.62-2.593-3.564.504-1.439 1.098-3.348 1.783-5.724h-2.377c-1.693 0-2.538-.864-2.538-2.592 0-1.691.845-2.538 2.538-2.538zm263.26 8.1a66.027 66.027 0 011.405 4.86c.251 1.188-.253 1.998-1.513 2.43-1.62.54-2.575.037-2.862-1.512a40.583 40.583 0 00-.486-1.944c-.108-.467-.307-1.151-.595-2.052l-.162-.486c-.432-1.367.09-2.249 1.567-2.646 1.332-.359 2.214.091 2.646 1.35zm27.385-8.532h-21.767c-1.045 0-1.891-.324-2.539-.972-.648-.648-.972-1.493-.972-2.538v-3.996c0-1.043.324-1.89.972-2.538.648-.648 1.494-.972 2.539-.972h21.767c1.044 0 1.891.324 2.539.972.648.648.972 1.495.972 2.538v3.996c0 1.045-.324 1.89-.972 2.538-.648.648-1.495.972-2.539.972zm-19.283-7.938c-.756 0-1.134.378-1.134 1.134v.162c0 .613.36.847 1.08.702a9.577 9.577 0 001.891-.594c.648-.359 1.116-.827 1.404-1.404h-3.241zm17.663.486c0-.324-.162-.486-.486-.486h-3.511v.27c0 .432.054.739.162.918.18.108.432.162.756.162h3.025c.035 0 .054-.035.054-.108v-.756zm0 3.564c0-.251-.127-.378-.378-.378h-3.349c-1.909 0-3.16-.224-3.754-.675-.594-.449-.891-1.394-.891-2.835v-.162h-2.161c-.36 1.549-1.296 2.7-2.809 3.456-2.341.793-4.159.415-5.455-1.134v1.404c0 .685.342 1.026 1.026 1.026h17.231c.359 0 .54-.179.54-.54v-.162zm-23.604 24.786a54.589 54.589 0 006.103-2.7h-2.322c-.577 0-1.045-.179-1.404-.54-.361-.359-.541-.827-.541-1.404v-11.07c0-1.043.324-1.89.973-2.538.648-.648 1.493-.972 2.538-.972h17.987c1.044 0 1.89.324 2.538.972.648.648.972 1.495.972 2.538v9.504c0 1.045-.324 1.89-.972 2.538-.648.648-1.494.972-2.538.972h-1.459c2.52 1.153 4.357 2.017 5.51 2.592 1.188.612 1.746 1.224 1.674 1.836-.108.576-.756 1.224-1.944 1.944-.685.432-1.261.666-1.729.702-.576.072-1.17-.09-1.782-.486-1.189-.792-2.845-1.728-4.969-2.808-.973-.468-1.504-1.034-1.594-1.701-.09-.665.279-1.323 1.107-1.971l.108-.108h-8.912l1.729 1.134c.467.289.702.594.702.918 0 .324-.198.613-.594.864-2.701 1.512-5.744 2.844-9.129 3.996-1.152.36-2.187.117-3.105-.729-.919-.846-1.279-1.539-1.081-2.079.198-.54.909-1.008 2.134-1.404zm7.346-6.48c0 .505.251.756.756.756h11.721c.864 0 1.296-.432 1.296-1.296v-.54h-13.773v1.08zm0-3.618h13.773v-1.782h-13.773v1.782zm0-4.374h13.773v-1.026c0-.432-.216-.648-.648-.648h-11.829c-.864 0-1.296.432-1.296 1.296v.378z"/><path fill-rule="evenodd" fill="#0063BC" d="M472.951 29.704c-.576.576-1.328.864-2.256.864h-24.63c-.865 4.545-2.337 8.481-4.418 11.808-.736.96-1.424 1.504-2.064 1.632-.704.16-1.473-.112-2.305-.816-1.504-1.28-1.536-2.928-.096-4.944 1.697-2.88 2.881-6.303 3.553-10.272.448-2.751.672-6.063.672-9.936V7.672c0-1.087.32-1.872.961-2.352.64-.48 1.472-.576 2.496-.288l.384.096c8.642-1.087 15.812-2.496 21.51-4.224.64-.192 1.2-.207 1.68-.048.416.129.896.449 1.44.96 1.024.96 1.504 1.745 1.441 2.352-.065.641-.737 1.137-2.017 1.488-5.889 1.569-13.268 2.897-22.133 3.984V13h23.526c.928 0 1.68.288 2.256.864.576.576.864 1.329.864 2.256v11.328c0 .929-.288 1.68-.864 2.256zm-4.849-10.272c0-.768-.384-1.152-1.152-1.152h-19.781c0 2.304-.113 4.641-.336 7.008h20.117c.768 0 1.152-.384 1.152-1.152v-4.704zm-44.315-3.312h4.801c1.76 0 2.641.881 2.641 2.64 0 1.761-.881 2.64-2.641 2.64h-1.872v20.736c0 1.824-.912 2.736-2.737 2.736-1.824 0-2.737-.912-2.737-2.736V21.4h-4.849c-.064 9.345-1.856 16.512-5.377 21.504-.608.736-1.248 1.112-1.92 1.128-.673.016-1.281-.312-1.825-.984l-.096-.096c-.641-.48-.992-1.064-1.056-1.752-.065-.687.192-1.383.768-2.088 1.696-2.496 2.881-5.535 3.553-9.12.448-2.496.672-5.583.672-9.264V7.384c0-1.023.288-1.752.864-2.184.576-.432 1.345-.504 2.305-.216l.144.048c4.16-1.056 7.569-2.16 10.226-3.312.704-.351 1.345-.463 1.921-.336.48.129 1.04.48 1.68 1.056.96.864 1.393 1.608 1.297 2.232-.097.624-.737 1.176-1.921 1.656-3.489 1.217-7.234 2.241-11.235 3.072v6.72h7.394zm-14.115 1.92c0 1.569-.785 2.352-2.353 2.352h-5.905v3.696h5.425c1.6 0 2.401.801 2.401 2.4 0 1.601-.801 2.4-2.401 2.4h-5.425v.384c.895.641 2.576 1.937 5.041 3.888.64.545.976 1.056 1.008 1.536 0 .449-.288 1.025-.864 1.728-.641.768-1.233 1.161-1.777 1.176-.544.017-1.136-.343-1.776-1.08a50.63 50.63 0 01-.792-.816 61.629 61.629 0 00-.84-.864v7.488c0 1.824-.913 2.736-2.737 2.736s-2.737-.912-2.737-2.736v-6.912a35.569 35.569 0 01-4.129 4.992c-.704.64-1.328.96-1.872.96-.545-.032-1.121-.384-1.729-1.056-.704-.799-1.024-1.503-.96-2.112.064-.607.528-1.248 1.393-1.92a32.287 32.287 0 006.145-7.392h-4.801c-1.601 0-2.401-.799-2.401-2.4 0-1.599.8-2.4 2.401-2.4h5.953v-3.696h-6.145c-1.569 0-2.353-.783-2.353-2.352 0-1.567.784-2.352 2.353-2.352h2.016a13.455 13.455 0 00-.576-2.784c-.256-.768-.24-1.431.048-1.992.288-.559.816-.919 1.585-1.08l.384-.096h-3.025c-1.536 0-2.305-.783-2.305-2.352 0-1.536.769-2.304 2.305-2.304h5.713V3.448c0-1.824.913-2.736 2.737-2.736s2.737.912 2.737 2.736V5.08h5.569c1.536 0 2.305.768 2.305 2.304 0 1.569-.769 2.352-2.305 2.352h-2.593l1.489.288c.832.161 1.072.672.72 1.536a92.278 92.278 0 01-1.729 4.128h2.449c1.568 0 2.353.785 2.353 2.352zm-8.931-4.272c.577-1.407.992-2.751 1.249-4.032h-7.154c.448.897.832 1.937 1.152 3.12.16.641.072 1.217-.264 1.728-.336.513-.84.864-1.512 1.056l-.144.048h9.314l-1.68-.384c-.417-.096-.72-.288-.913-.576-.192-.288-.208-.607-.048-.96zM344.808 28.84c.448 1.728.8 3.377 1.056 4.944.096.576.032 1.017-.192 1.32-.224.305-.641.537-1.248.696-1.441.417-2.257-.096-2.449-1.536a28.195 28.195 0 00-.336-1.872 24.31 24.31 0 00-.576-2.496c-.32-1.183.16-1.951 1.44-2.304 1.216-.288 1.985.129 2.305 1.248zm12.003 3.168c-.129.417-.321 1.025-.576 1.824a3.73 3.73 0 00-.192.528c-.353.96-1.073 1.272-2.161.936-1.088-.336-1.505-1.032-1.248-2.088.319-1.183.64-2.607.96-4.272.16-.799.432-1.335.816-1.608.384-.271.96-.312 1.729-.12 1.408.353 1.872 1.265 1.392 2.736-.065.225-.176.569-.336 1.032-.161.465-.288.809-.384 1.032zm23.237 12.384c-.64.032-1.392-.24-2.256-.816-2.401-1.856-4.401-4.351-6.002-7.488l.337 2.688c.096.737-.049 1.377-.433 1.92-.384.544-.928.896-1.632 1.056-2.977.768-6.097 1.52-9.362 2.256-.768.16-1.489.04-2.161-.36-.672-.4-1.121-1.032-1.344-1.896l-.144-.576c-3.201.608-7.843 1.44-13.924 2.496-.16.032-.272.048-.336.048-.832.128-1.457.024-1.872-.312-.416-.336-.705-.92-.864-1.752-.384-1.759.24-2.751 1.872-2.976 1.696-.223 3.329-.463 4.897-.72V25.288h-4.273c-1.601 0-2.4-.816-2.4-2.448 0-1.599.799-2.4 2.4-2.4h4.273v-3.504h-2.88c-.513 0-.921-.151-1.225-.456-.304-.303-.456-.711-.456-1.224v-.144l-.096.048c-.192.192-.44.257-.744.192a1.29 1.29 0 01-.744-.432c-.705-.768-1.089-1.647-1.152-2.64-.065-1.056.255-1.903.96-2.544 2.08-2.079 3.889-4.575 5.425-7.488.256-.543.688-.991 1.296-1.344a3.789 3.789 0 011.921-.528h.816c.992 0 1.84.305 2.545.912 2.368 2.049 4.369 4.001 6.001 5.856.384.513.56 1.104.528 1.776a3.476 3.476 0 01-.816 1.968l-1.248 1.488v2.448c0 .641-.192 1.152-.576 1.536-.384.384-.897.576-1.537.576h-3.12v3.504h3.888c1.601 0 2.401.801 2.401 2.4 0 1.632-.8 2.448-2.401 2.448h-3.888v11.904c1.855-.319 3.264-.559 4.225-.72.735-.127 1.336 0 1.8.384.464.384.712.945.744 1.68v.144l1.537-.288V5.224c0-.927.288-1.68.864-2.256.576-.576 1.328-.864 2.256-.864h14.98c.928 0 1.68.288 2.257.864.576.576.864 1.329.864 2.256V20.68c0 .929-.288 1.68-.864 2.256-.577.576-1.329.864-2.257.864h-5.137c.511 2.241 1.039 4.049 1.584 5.424a36.078 36.078 0 002.833-2.4c.672-.639 1.304-.951 1.896-.936.592.017 1.208.36 1.849 1.032 1.312 1.313 1.2 2.561-.336 3.744-.129.096-.305.225-.529.384-1.696 1.185-2.928 2.016-3.696 2.496 1.152 1.985 2.544 3.633 4.177 4.944 1.087.705 1.744 1.409 1.968 2.112.224.736-.032 1.584-.768 2.544-.576.768-1.217 1.184-1.921 1.248zm-24.582-32.208c-1.824-2.559-3.681-4.735-5.569-6.528-1.248 2.081-2.577 3.936-3.985 5.568-.545.641-.432.96.336.96h9.218zm9.843 18.384v6.768c1.408-.319 3.553-.799 6.433-1.44-1.632-3.264-2.88-7.296-3.745-12.096h-2.688v6.768zm10.562-22.272c0-.768-.384-1.152-1.152-1.152h-8.258c-.768 0-1.152.384-1.152 1.152v2.16h10.562v-2.16zm-1.152 10.464c.768 0 1.152-.384 1.152-1.152v-2.352h-10.562v3.504h9.41zm-42.682 25.488c-1.025.512-2.465.8-4.321.864-1.921.064-3.073-.576-3.457-1.92-.609-1.888.367-2.799 2.929-2.736h.912c.607-.031.912-.351.912-.96V8.488c0-.768-.384-1.152-1.152-1.152h-13.059c-.769 0-1.153.384-1.153 1.152V42.76c0 1.664-.832 2.496-2.496 2.496-1.697 0-2.545-.832-2.545-2.496v-5.856l-1.872.624c-.481.161-.881.144-1.201-.048a1.185 1.185 0 01-.576-.864c-.288-1.536-.72-3.231-1.296-5.088-.48-1.375-.017-2.287 1.392-2.736 1.216-.384 2.048 0 2.497 1.152a38.08 38.08 0 011.056 3.264v-6.672l-1.632.768c-.417.192-.777.216-1.081.072-.304-.144-.504-.408-.6-.792l-.288-1.152a1.522 1.522 0 00-.096-.336l-2.4.192V42.76c0 1.6-.801 2.4-2.401 2.4-1.632 0-2.449-.8-2.449-2.4V25.672l-4.129.336c-1.632.161-2.544-.576-2.736-2.208-.192-1.695.576-2.592 2.304-2.688l.816-.048a48.363 48.363 0 002.161-2.832c-.929-1.503-2.273-3.247-4.033-5.232-.449-.48-.624-1.104-.528-1.872.064-.672.319-1.311.768-1.92.288-.384.624-.655 1.008-.816.416-.127.816-.031 1.201.288a55.46 55.46 0 002.592-5.952c.288-.831.68-1.359 1.176-1.584.496-.223 1.177-.192 2.041.096 1.664.576 2.064 1.713 1.2 3.408-1.505 3.009-2.865 5.424-4.081 7.248a21.5 21.5 0 011.537 1.872c1.279-2.047 2.352-3.936 3.216-5.664.385-.768.832-1.224 1.345-1.368.511-.144 1.152-.039 1.92.312 1.633.737 1.952 1.857.96 3.36-2.592 3.905-5.057 7.361-7.393 10.368l4.129-.24a3.623 3.623 0 00-.216-.552 4.606 4.606 0 00-.264-.504c-.737-1.375-.369-2.352 1.104-2.928 1.248-.543 2.176-.223 2.785.96a44.079 44.079 0 012.064 4.56V5.512c0-.927.288-1.68.864-2.256.576-.576 1.328-.864 2.257-.864h19.3c.928 0 1.681.288 2.257.864.576.576.864 1.329.864 2.256v33.984c0 1.344-.16 2.368-.48 3.072-.32.704-.864 1.264-1.632 1.68zm-39.85-13.296c.192-1.695 1.072-2.415 2.641-2.16 1.44.257 2.08 1.089 1.92 2.496a52.692 52.692 0 01-.816 4.656 46.18 46.18 0 01-.912 3.36c-.288.833-.657 1.337-1.105 1.512-.448.176-1.048.081-1.8-.288-.752-.367-1.224-.775-1.416-1.224-.192-.447-.129-1.056.192-1.824.511-1.599.943-3.775 1.296-6.528zm-11.763 12c-7.394-4.8-12.595-12.24-15.604-22.32-2.753 9.441-7.586 16.769-14.499 21.984-2.081 1.408-3.793 1.456-5.137.144-1.793-1.728-1.313-3.487 1.44-5.28 5.793-4.383 9.858-10.479 12.195-18.288 1.248-4.351 2-9.615 2.256-15.792.032-.895.336-1.471.913-1.728.384-.159 1.168-.24 2.352-.24h.24c.896 0 1.609.233 2.137.696.528.465.775 1.113.744 1.944v.096c.256 5.217 1.216 10.224 2.881 15.024 2.688 7.68 6.881 13.584 12.579 17.712 1.408.833 2.368 1.713 2.88 2.64.608 1.121.481 2.16-.384 3.12-1.216 1.344-2.88 1.44-4.993.288zm-45.659-.624h-22.133c-.929 0-1.681-.288-2.257-.864-.576-.576-.864-1.327-.864-2.256V5.896c0-.927.288-1.68.864-2.256.576-.576 1.328-.864 2.257-.864h22.133c.928 0 1.68.288 2.257.864.576.576.864 1.329.864 2.256v33.312c0 .929-.288 1.68-.864 2.256-.577.576-1.329.864-2.257.864zm-2.257-33.456c0-.768-.384-1.152-1.152-1.152H215.8c-.768 0-1.152.384-1.152 1.152v27.36c0 .768.384 1.152 1.152 1.152h15.556c.768 0 1.152-.384 1.152-1.152V8.872zm-3.168 8.88h-3.697v4.128h2.448c.64 0 1.153.192 1.537.576.384.384.576.897.576 1.536v7.632c0 .929-.288 1.68-.864 2.256-.576.576-1.329.864-2.257.864h-6.914c-.928 0-1.68-.288-2.256-.864-.576-.576-.864-1.327-.864-2.256V25c0-.927.288-1.68.864-2.256.576-.576 1.328-.864 2.256-.864h1.105v-4.128h-3.409c-1.377 0-2.065-.687-2.065-2.064 0-1.375.688-2.064 2.065-2.064h3.409v-2.736c0-1.44.736-2.16 2.208-2.16 1.441 0 2.161.72 2.161 2.16v2.736h3.697c1.376 0 2.064.689 2.064 2.064 0 1.377-.688 2.064-2.064 2.064zm-4.513 8.064h-2.545c-.768 0-1.152.384-1.152 1.152v2.784c0 .737.367 1.104 1.104 1.104h2.593c.768 0 1.152-.384 1.152-1.152v-2.736c0-.768-.384-1.152-1.152-1.152zm-19.685-14.64V42.52c0 1.792-.897 2.688-2.689 2.688-1.793 0-2.689-.896-2.689-2.688V20.632a8.15 8.15 0 00-.432.624c-.96 1.217-1.793 1.809-2.496 1.776-.705-.031-1.345-.735-1.921-2.112-.352-.864-.496-1.615-.432-2.256.064-.639.384-1.296.96-1.968 2.849-3.648 5.265-8.16 7.25-13.536.608-1.824 1.777-2.463 3.505-1.92 1.728.576 2.288 1.713 1.68 3.408a78.526 78.526 0 01-2.736 6.528zm111.771 12.288h1.969V19.72h-1.825c-.704 0-1.241-.231-1.608-.696-.369-.463-.552-1.063-.552-1.8 0-1.215.528-1.824 1.584-1.824h.096a27.775 27.775 0 00-1.392-5.328c-.096-.255-.017-.432.24-.528l.144-.048c.864-.319 1.664-.24 2.4.24.672.449 1.153 1.169 1.441 2.16.223.801.24 1.488.048 2.064-.225.672-.689 1.137-1.393 1.392l-.096.048h5.906l-1.105-.384c-.512-.192-.688-.528-.528-1.008.32-.864.688-2.047 1.105-3.552.319-1.471 1.183-1.999 2.592-1.584 1.408.417 1.76 1.409 1.056 2.976-.128.288-.304.705-.528 1.248a59.016 59.016 0 01-1.056 2.304h.144c1.44 0 2.161.72 2.161 2.16 0 1.44-.721 2.16-2.161 2.16h-1.92v3.744h2.064c1.441 0 2.161.72 2.161 2.16 0 1.44-.72 2.16-2.161 2.16h-4.753v4.224c0 .641.048 1.065.144 1.272.096.209.288.312.576.312h3.313c1.504-.192 2.336.528 2.497 2.16.096 1.313-.432 2.081-1.585 2.304h-4.225c-2.208 0-3.665-.447-4.369-1.344-.704-.831-1.056-2.415-1.056-4.752v-4.176h-.096c-.449 0-.792-.159-1.032-.48-.24-.319-.36-.72-.36-1.2 0-.768.175-1.392.528-1.872.384-.511.928-.768 1.632-.768z"/></svg>