<svg xmlns="http://www.w3.org/2000/svg" width="173" height="26"><path fill-rule="evenodd" fill="#FFC919" d="M172.077 3.304l-2.64 10.536-2.736 10.872c-.161.64-.569.96-1.224.96-.897 0-1.241-.44-1.032-1.32l5.376-21.408c.159-.639.567-.96 1.224-.96.895 0 1.239.441 1.032 1.32zm-15.6 7.056h-2.112v1.44c0 .576-.072 1.008-.216 1.296-.161.304-.444.532-.852.684-.408.153-.972.252-1.692.3 1.056.288 2.007.592 2.856.912a.622.622 0 01.372.432c.055.208.012.432-.132.672l-.048.072h1.272c.783 0 1.176.393 1.176 1.176 0 .784-.393 1.176-1.176 1.176h-6.84c1.152 1.089 3.079 1.776 5.784 2.064.847.048 1.447.208 1.8.48.415.32.439.776.072 1.368-.384.608-1.113.864-2.184.768-2.001-.224-3.633-.624-4.896-1.2-1.296-.576-2.369-1.4-3.216-2.472-1.296 1.744-4.025 2.968-8.184 3.672a3.229 3.229 0 01-1.248-.048c-.48-.096-.816-.288-1.008-.576-.321-.48-.264-.904.168-1.272.367-.303.912-.512 1.632-.624 2.751-.528 4.663-1.248 5.736-2.16h-6.744c-.785 0-1.176-.392-1.176-1.176 0-.783.391-1.176 1.176-1.176h7.968v-.84c0-.927.463-1.392 1.392-1.392.927 0 1.392.465 1.392 1.392v.84h4.176a56.2 56.2 0 01-.672-.228l-.672-.228c-.336-.096-.545-.267-.624-.516-.081-.248-.017-.524.192-.828l.192-.264h-.24c-.065 0-.105-.032-.12-.096-.081-.384-.24-.879-.48-1.488l-.432.264c-1.008.576-1.889.417-2.64-.48-.321-.368-.456-.72-.408-1.056.048-.336.288-.624.72-.864l.048-.024h-1.776c-.657 0-.984-.336-.984-1.008 0-.656.327-.984.984-.984h.144a6.327 6.327 0 00-.504-.936c-.161-.207-.209-.384-.144-.528.063-.144.231-.231.504-.264.96-.128 1.671-.24 2.136-.336a14.25 14.25 0 00-1.392-1.2 2.776 2.776 0 00-.288.096 1.509 1.509 0 00-.336.096c-.336.096-.6.009-.792-.264-.336-.512-.689-.912-1.056-1.2v9.6c0 .849-.425 1.272-1.272 1.272-.864 0-1.296-.423-1.296-1.272v-3.12h-1.32v.144c0 1.536-.369 2.841-1.104 3.912-.528.592-1.073.729-1.632.408-.432-.24-.648-.567-.648-.984-.017-.384.144-.8.48-1.248.288-.672.432-1.4.432-2.184v-.048h-.312c-.737 0-1.104-.375-1.104-1.128 0-.735.367-1.104 1.104-1.104h4.104V6.808h-2.568c-.465 0-.84-.144-1.128-.432-.288-.288-.432-.663-.432-1.128V2.8c0-.783.391-1.176 1.176-1.176.783 0 1.176.393 1.176 1.176v1.272c0 .384.192.576.576.576h1.2v-2.4c0-.848.432-1.272 1.296-1.272.847 0 1.272.424 1.272 1.272V3.76c2.88-.56 5.055-1.383 6.528-2.472.255-.207.72-.24 1.392-.096.319.064.552.177.696.336.175.177.144.369-.096.576h3.024c.591 0 .967.165 1.128.492.159.328.072.789-.264 1.38-.897 1.2-2.16 2.152-3.792 2.856h1.416c.384 0 .687.112.912.336.223.225.336.528.336.912v.288h2.112c.655 0 .984.328.984.984 0 .672-.329 1.008-.984 1.008zm-7.392 1.656c.559.016 1.287.024 2.184.024.271 0 .408-.111.408-.336V10.36h-4.152a10.684 10.684 0 011.56 1.656zm-3.216-3.648h5.808V6.832c-1.584.688-3.521 1.2-5.808 1.536zm3.216-3.552a.471.471 0 01-.12-.096 19.83 19.83 0 00-.864-.552c-.384.16-.689.28-.912.36.687.528 1.2.976 1.536 1.344.351-.096.751-.231 1.2-.408a7.631 7.631 0 00-.84-.648zm3.24-.552c.255-.176.519-.384.792-.624h-3.336c.543.321 1.087.712 1.632 1.176.223-.111.528-.296.912-.552zm-21.744 11.64h-6.792v6c0 .992-.497 1.488-1.488 1.488-.993 0-1.488-.496-1.488-1.488v-6h-6.648c-.465 0-.84-.144-1.128-.432-.288-.288-.432-.663-.432-1.128V6.688c0-.464.144-.84.432-1.128.288-.288.663-.432 1.128-.432h6.648V2.464c0-.992.495-1.488 1.488-1.488.991 0 1.488.496 1.488 1.488v2.664h6.792c.463 0 .84.144 1.128.432.288.288.432.664.432 1.128v7.656c0 .465-.144.84-.432 1.128-.288.288-.665.432-1.128.432zm-9.768-7.968h-4.776c-.384 0-.576.192-.576.576v4.008c0 .384.192.576.576.576h4.776v-5.16zm8.352.576c0-.384-.192-.576-.576-.576h-4.8v5.16h4.8c.384 0 .576-.192.576-.576V8.512zm-20.64 14.148c-.209.168-.513.26-.912.276-3.873.128-7.065.144-9.576.048-1.521-.064-2.777-.296-3.768-.696a6.275 6.275 0 01-2.664-1.992c-.096.096-.24.232-.432.408-.561.561-1.001.976-1.32 1.248-.977.848-1.704.736-2.184-.336-.401-.831-.216-1.503.552-2.016a22.12 22.12 0 001.848-1.416V15.04c0-.384-.192-.576-.576-.576h-.744c-.881 0-1.32-.44-1.32-1.32 0-.879.439-1.32 1.32-1.32h2.76c.384 0 .687.112.912.336.223.225.336.528.336.912v4.92c.927 1.456 2.688 2.248 5.28 2.376 3.007.129 6.264.096 9.768-.096.624-.048 1.027.045 1.212.276.183.232.187.652.012 1.26-.129.4-.297.684-.504.852zm-.48-4.452h-5.424v.216c0 .912-.456 1.368-1.368 1.368-.929 0-1.392-.456-1.392-1.368v-.216h-5.112c-.689 0-1.032-.344-1.032-1.032 0-.687.343-1.032 1.032-1.032h5.112v-.888h-3.264c-.465 0-.84-.144-1.128-.432-.288-.288-.432-.663-.432-1.128V9.784c0-.464.144-.84.432-1.128.288-.288.663-.432 1.128-.432h3.264v-.84h-4.272c-.657 0-.984-.327-.984-.984 0-.656.327-.984.984-.984h4.272v-.048c0-.384.127-.68.384-.888.255-.207.591-.312 1.008-.312.415 0 .747.105.996.312.247.208.372.504.372.888v.048h4.464c.655 0 .984.328.984.984 0 .657-.329.984-.984.984h-4.464v.84h3.48c.463 0 .84.144 1.128.432.288.288.432.664.432 1.128v3.912c0 .465-.144.84-.432 1.128-.288.288-.665.432-1.128.432h-3.48v.888h5.424c.687 0 1.032.345 1.032 1.032 0 .688-.345 1.032-1.032 1.032zM99.861 10h-1.896c-.353 0-.528.177-.528.528v.408h2.424V10zm0 2.592h-2.424v.552c0 .256.127.384.384.384h2.04v-.936zm5.28-2.208c0-.255-.129-.384-.384-.384h-2.136v.936h2.52v-.552zm-1.272 3.144h.72c.367 0 .552-.183.552-.552v-.384h-2.52v.936h1.248zm3.264-8.52c-.24 0-.441-.056-.6-.168-.192-.128-.288-.296-.288-.504v-.048c0-.368-.185-.552-.552-.552h-8.712c-.384 0-.576.192-.576.576v.432c0 .177-.089.264-.264.264h-.576c-1.089 0-1.632-.552-1.632-1.656 0-1.088.543-1.632 1.632-1.632h11.736c.463 0 .84.144 1.128.432.288.288.432.664.432 1.128v.432c0 .4-.177.72-.528.96-.336.225-.737.336-1.2.336zm-15.168.384c-.305.016-.624-.144-.96-.48-.384-.336-.857-.72-1.416-1.152-.849-.591-.912-1.224-.192-1.896.511-.464 1.047-.536 1.608-.216.432.288.84.576 1.224.864.255.177.504.376.744.6.607.592.591 1.185-.048 1.776-.353.336-.672.504-.96.504zm-1.8 1.032c.079.048.192.12.336.216.415.256.72.456.912.6a.82.82 0 00.168.12l.648.504c.576.544.559 1.12-.048 1.728-.353.352-.677.54-.972.564-.297.024-.612-.123-.948-.444a13.885 13.885 0 00-1.464-1.152c-.417-.272-.648-.572-.696-.9-.048-.327.103-.66.456-.996.48-.48 1.015-.56 1.608-.24zm-6.336 3.696h-2.544l-.36.576a64.009 64.009 0 01-1.368 2.112h3.744c.816 0 1.224.408 1.224 1.224 0 .832-.408 1.248-1.224 1.248h-7.56v2.016h6.408c.816 0 1.224.408 1.224 1.224 0 .832-.408 1.248-1.224 1.248h-6.408v2.16c0 .976-.489 1.464-1.464 1.464-.977 0-1.464-.488-1.464-1.464v-2.16h-6c-.816 0-1.224-.416-1.224-1.248 0-.816.408-1.224 1.224-1.224h6V15.28h-7.392c-.816 0-1.224-.416-1.224-1.248 0-.816.408-1.224 1.224-1.224h3.648a19.91 19.91 0 00-.96-2.16c-.161-.255-.089-.423.216-.504l.072-.024h-3.48c-.833 0-1.248-.416-1.248-1.248 0-.831.415-1.248 1.248-1.248h7.896V5.752h-5.52c-.816 0-1.224-.416-1.224-1.248 0-.816.408-1.224 1.224-1.224h5.52v-.72c0-.975.487-1.464 1.464-1.464.975 0 1.464.489 1.464 1.464v.72h5.76c.816 0 1.224.408 1.224 1.224 0 .832-.408 1.248-1.224 1.248h-5.76v1.872h8.088c.831 0 1.248.417 1.248 1.248 0 .832-.417 1.248-1.248 1.248zm-9.48 0h-3.552c.607 1.072 1.015 1.968 1.224 2.688h4.632c.415-.704.84-1.599 1.272-2.688h-3.576zM59.157 21.976c-.336-.064-.609-.328-.816-.792-.593-1.04-1.337-2.079-2.232-3.12-.737-.816-.648-1.479.264-1.992.624-.336 1.183-.272 1.68.192a30.97 30.97 0 011.704 1.992c.543.736.927 1.296 1.152 1.68.367.72.168 1.296-.6 1.728-.48.272-.864.376-1.152.312zm.648-14.664c-.081.177-.233.312-.456.408a1.22 1.22 0 01-.72.072l-.072-.024c.783 1.296 1.359 2.352 1.728 3.168.144.369.159.681.048.936-.129.225-.384.432-.768.624-.449.208-.801.28-1.056.216-.288-.08-.521-.336-.696-.768a28.787 28.787 0 00-1.344-2.712c-.225-.384-.281-.752-.168-1.104.111-.351.375-.624.792-.816l.072-.024c.144-.336.375-.951.696-1.848h-2.712v6.84c0 .657-.065 1.144-.192 1.464-.161.384-.449.672-.864.864-.432.225-1.097.36-1.992.408-.465.016-.528.153-.192.408.111.081.264.201.456.36.607.592.583 1.176-.072 1.752-.369.321-.689.489-.96.504-.288.016-.593-.135-.912-.456a17.963 17.963 0 00-1.8-1.44c-.864-.576-.921-1.191-.168-1.848.495-.416 1.015-.471 1.56-.168.144.081.36.216.648.408-.129-.464-.249-.84-.36-1.128-.257-.56.007-.831.792-.816h.96c.255-.015.384-.135.384-.36V5.44h-2.424a17.068 17.068 0 01-1.296 1.776c-.305.321-.597.492-.876.516-.281.024-.588-.108-.924-.396-.401-.351-.6-.692-.6-1.02 0-.327.183-.675.552-1.044.72-.831 1.344-1.839 1.872-3.024.303-.848.871-1.16 1.704-.936.895.208 1.191.76.888 1.656l-.024.024-.024.048h8.184c.543 0 .927.165 1.152.492.223.328.255.78.096 1.356a23.607 23.607 0 01-.912 2.424zM45.213 4.84v8.808c0 .897-.449 1.344-1.344 1.344-.912 0-1.368-.447-1.368-1.344V8.152l-.648.648c-.768.672-1.433.624-1.992-.144-.305-.416-.432-.788-.384-1.116.048-.327.271-.651.672-.972a19.402 19.402 0 003.816-4.56c.384-.704.96-.92 1.728-.648.895.321 1.119.888.672 1.704a21.26 21.26 0 01-1.152 1.776zm-8.472 17.868c-.353.376-.873.564-1.56.564h-1.512c-.993 0-1.665-.232-2.016-.696-.336-.448-.504-1.28-.504-2.496v-7.656h-1.296c-.129 2.512-.417 4.473-.864 5.88-.593 1.792-1.577 3.224-2.952 4.296-.897.608-1.608.568-2.136-.12-.657-.848-.417-1.647.72-2.4.927-.816 1.584-1.904 1.968-3.264.303-1.04.495-2.504.576-4.392h-1.032a.841.841 0 01-.624-.24c-.161-.159-.24-.368-.24-.624V4.024c0-.464.144-.84.432-1.128.288-.288.663-.432 1.128-.432h8.016c.463 0 .84.144 1.128.432.288.288.432.664.432 1.128v6.84c0 .465-.144.84-.432 1.128-.288.288-.665.432-1.128.432h-1.032v7.632c0 .4.019.648.06.744.039.096.147.144.324.144h.696c.175 0 .295-.159.36-.48.048-.72.183-1.287.408-1.704.271-.495.655-.632 1.152-.408.303.144.519.48.648 1.008.079.417.096.864.048 1.344-.161.96-.417 1.628-.768 2.004zM33.645 5.584c0-.384-.192-.576-.576-.576h-4.608c-.384 0-.576.192-.576.576v3.72c0 .384.192.576.576.576h4.608c.384 0 .576-.192.576-.576v-3.72zM23.277 9.736h-1.92v12.432c0 .816-.408 1.224-1.224 1.224-.833 0-1.248-.408-1.248-1.224V9.736h-2.088c-.833 0-1.248-.423-1.248-1.272 0-.831.415-1.248 1.248-1.248h6.48c.831 0 1.248.417 1.248 1.248 0 .849-.417 1.272-1.248 1.272zm-.336-4.776h-5.568c-.833 0-1.248-.416-1.248-1.248 0-.831.415-1.248 1.248-1.248h5.568c.831 0 1.248.417 1.248 1.248 0 .832-.417 1.248-1.248 1.248zm-7.008 6.96c0-.656.327-.984.984-.984.655 0 .984.328.984.984v1.896c0 1.6-.069 2.908-.204 3.924-.137 1.017-.3 1.852-.492 2.508-.161.432-.353.688-.576.768-.225.081-.504-.015-.84-.288-.465-.368-.6-.848-.408-1.44.367-1.407.552-3.248.552-5.52V11.92zM7.245 25.672c-.657 0-1.065-.32-1.224-.96L.645 3.28c-.209-.864.127-1.296 1.008-1.296.655 0 1.063.312 1.224.936l2.736 10.92 2.664 10.512c.207.88-.137 1.32-1.032 1.32zm16.104-14.76c.639 0 .96.321.96.96v6.48c0 .64-.321.96-.96.96-.641 0-.96-.32-.96-.96v-6.48c0-.639.319-.96.96-.96zm18.6 6.48c.303-.927.895-1.239 1.776-.936.799.273 1.08.816.84 1.632-.288.816-.576 1.48-.864 1.992-.401.736-.825 1.344-1.272 1.824-.561.512-1.145.552-1.752.12-.945-.656-1.008-1.376-.192-2.16.591-.687 1.08-1.512 1.464-2.472zm5.376-7.176c.48-.624.895-1.28 1.248-1.968.336-.752.903-1.016 1.704-.792.912.24 1.176.777.792 1.608-.24.48-.521.976-.84 1.488a19.812 19.812 0 01-.888 1.32c-.273.336-.552.528-.84.576-.288.048-.609-.048-.96-.288-.432-.288-.665-.584-.696-.888-.033-.303.127-.656.48-1.056zm-.576 5.712c.927 0 1.392.465 1.392 1.392v2.304c0 .352.075.573.228.66.151.088.499.132 1.044.132h3.24c.271 0 .48-.039.624-.12.384-1.488 1.071-2.031 2.064-1.632.351.144.576.456.672.936.079.384.079.825 0 1.32-.225.768-.576 1.304-1.056 1.608-.465.272-1.152.408-2.064.408h-3.768c-1.505 0-2.52-.232-3.048-.696-.497-.448-.744-1.304-.744-2.568V17.32c0-.927.471-1.392 1.416-1.392z"/></svg>