<svg width="126" height="113" viewBox="0 0 126 113" fill="none" xmlns="http://www.w3.org/2000/svg">
<g clip-path="url(#clip0_1_2657)">
<g opacity="0.46">
<path d="M117.352 83.2012C130.283 61.8998 117.972 30.7941 89.853 13.7246C61.7345 -3.34487 28.4572 0.0857548 15.5261 21.3871C2.59501 42.6885 14.9069 73.7942 43.0255 90.8637C71.144 107.933 104.421 104.503 117.352 83.2012Z" stroke="white" stroke-width="3.71" stroke-miterlimit="10"/>
<path d="M86.2903 43.5C81.5303 42.36 76.6103 42.75 71.9603 43.57C68.4603 44.19 65.0303 45.06 61.7103 46.16C59.0403 43.55 56.3803 40.94 53.7303 38.31C52.0103 36.6 50.2903 34.88 48.5703 33.17C51.6003 30.33 55.4803 28.15 59.7203 27.05C63.2503 26.13 61.8903 21.49 58.1603 22.1C52.7203 22.98 47.7803 25.17 43.8503 28.3C42.6503 27.05 41.4003 25.83 40.0203 24.79C37.4003 22.82 33.2803 24.97 35.1703 27.81C36.3303 29.55 37.8803 31.18 39.4403 32.77C38.6503 33.8 37.9403 34.87 37.3303 36.01C33.8003 42.6 32.3903 54.79 43.4403 57.67C47.7603 58.79 52.0103 57.54 55.7503 55.98C57.3503 55.31 58.9203 54.63 60.5003 53.98C60.9903 54.46 61.4803 54.93 61.9703 55.41C66.5203 59.79 71.1203 64.13 75.7803 68.42C76.0903 68.7 76.4003 68.98 76.7103 69.27C73.5303 70.77 70.1103 71.86 66.5403 72.83C62.1803 74.02 63.8103 79.65 68.4803 78.99C73.3103 78.31 78.0703 76.49 82.1803 74.26C82.4903 74.54 82.7903 74.81 83.0903 75.09C84.2203 76.11 85.3603 77.12 86.5003 78.13C87.9003 79.37 89.0903 80.67 91.0603 81.18C93.4103 81.79 95.6503 80.07 94.9903 77.99C94.4603 76.34 93.2103 75.41 91.8503 74.2C90.6203 73.1 89.3903 72 88.1503 70.9C88.0603 70.82 87.9703 70.74 87.8903 70.66C90.4403 68.8 92.7503 66.69 94.5003 64.25C97.0603 60.69 98.2503 56.17 96.6403 51.92C95.0803 47.78 91.1103 44.69 86.2603 43.53L86.2903 43.5ZM46.3903 51.58C42.3403 51.46 41.9203 46.91 42.3203 44.34C42.6603 42.15 43.4603 40.04 44.6103 38.07C45.8203 39.33 47.0303 40.59 48.2603 41.84C50.5203 44.15 52.8203 46.44 55.1403 48.72C52.4303 50.02 49.4203 51.66 46.4003 51.57L46.3903 51.58ZM89.7803 55.48C89.8003 59.78 86.1203 63.18 82.5403 65.78C82.1603 65.43 81.7703 65.09 81.3903 64.74C76.6203 60.38 71.9003 55.97 67.2503 51.52C67.7903 51.36 68.3303 51.21 68.8803 51.07C74.4503 49.66 89.7203 46.47 89.7803 55.48Z" fill="white"/>
<path d="M40.7903 101.36C11.7603 85.77 -2.5997 55.17 8.7303 33.02C8.9103 32.67 9.1103 32.34 9.3003 32L12.9203 24.88L13.2103 25.04C13.2103 25.04 13.1603 25.13 13.1403 25.17C1.8203 47.32 16.1703 77.92 45.2103 93.51C72.3103 108.06 102.61 104.39 115.74 85.81L113.88 89.48C102.56 111.63 69.8403 116.96 40.8103 101.37L40.7903 101.36Z" stroke="white" stroke-width="3.71" stroke-linecap="round" stroke-linejoin="round"/>
</g>
</g>
<defs>
<clipPath id="clip0_1_2657">
<rect width="126" height="113" fill="white"/>
</clipPath>
</defs>
</svg>
