<?xml version="1.0" encoding="utf-8"?>
<!-- Generator: Adobe Illustrator 28.0.0, SVG Export Plug-In . SVG Version: 6.00 Build 0)  -->
<svg version="1.1" id="_內文" xmlns="http://www.w3.org/2000/svg" xmlns:xlink="http://www.w3.org/1999/xlink" x="0px" y="0px"
	 viewBox="0 0 360 400" style="enable-background:new 0 0 360 400;" xml:space="preserve">
<style type="text/css">
	.st0{fill:#2870B2;}
	.st1{fill:#123B68;}
	.st2{fill:#B4E2FA;stroke:#123B68;stroke-width:2.2;stroke-linecap:round;stroke-linejoin:round;}
	.st3{fill:#E77870;stroke:#123B68;stroke-width:2.2;stroke-linecap:round;stroke-linejoin:round;}
	.st4{fill:#CED4CF;stroke:#123B68;stroke-width:2.2;stroke-linecap:round;stroke-linejoin:round;}
	.st5{fill:#FFFFFF;}
	.st6{enable-background:new    ;}
	.st7{fill:#B4E2FA;}
	.st8{opacity:0.3;fill:#BDD5E6;enable-background:new    ;}
	.st9{fill:#FFD571;stroke:#123B68;stroke-width:3;stroke-linecap:round;stroke-linejoin:round;}
</style>
<g>
	<g>
		<g>
			<path class="st0" d="M298.1,92.6c-0.2,0-0.3,0-0.5-0.1l-22.4-11.3c-0.4-0.2-0.7-0.7-0.6-1.2l7.9-45.3c0.1-0.4,0.3-0.7,0.7-0.8
				c0.1,0,0.3-0.1,0.4-0.1c0.2,0,0.5,0.1,0.7,0.2l22.2,16.6l9.3,7c0.4,0.3,0.6,0.9,0.3,1.4l-17,33C298.9,92.4,298.5,92.6,298.1,92.6
				L298.1,92.6z"/>
			<path class="st1" d="M283.6,34.9l22.2,16.7l9.3,7l-17,33l-22.4-11.3l1.5-8.5L283.6,34.9 M283.6,32.7c-0.3,0-0.5,0-0.8,0.2
				c-0.7,0.3-1.2,0.9-1.4,1.7L275,71.3l-1.5,8.5c-0.2,0.9,0.3,1.9,1.2,2.3l22.4,11.3c0.3,0.2,0.7,0.2,1,0.2c0.8,0,1.6-0.4,2-1.2
				l17-33c0.5-1,0.2-2.1-0.6-2.8l-9.3-7L285,33.2C284.6,32.9,284.1,32.7,283.6,32.7L283.6,32.7L283.6,32.7z"/>
		</g>
		<g>
			<path class="st0" d="M149.5,66.6c-0.5,0-1-0.4-1.1-1l-4.9-36.8c-0.1-0.5,0.2-1,0.8-1.2L182,16.1c0.1,0,0.2,0,0.3,0
				c0.3,0,0.5,0.1,0.7,0.3c0.3,0.2,0.4,0.6,0.4,1l-7.9,45.3c-0.1,0.5-0.5,0.8-0.9,0.9l-24.9,3C149.6,66.6,149.5,66.6,149.5,66.6
				L149.5,66.6z"/>
			<path class="st1" d="M182.3,17.2L182.3,17.2 M182.3,17.2l-7.9,45.3l-24.9,3l-4.9-36.8L182.3,17.2 M182.3,15c0,0-0.1,0-0.1,0
				c-0.2,0-0.4,0.1-0.6,0.1L144,26.6c-1,0.3-1.7,1.3-1.5,2.4l4.9,36.8c0.1,1.1,1.1,1.9,2.2,1.9c0.1,0,0.2,0,0.3,0l24.9-3
				c1-0.1,1.7-0.8,1.9-1.8l7.9-45.2c0-0.2,0.1-0.3,0.1-0.5C184.5,16,183.5,15,182.3,15C182.3,15,182.3,15,182.3,15L182.3,15
				L182.3,15z M182.3,19.4L182.3,19.4L182.3,19.4z"/>
		</g>
		<g>
			<path class="st1" d="M229.8,45.5c-0.2,0-0.4-0.1-0.6-0.2c-0.6-0.4-15.4-10-17.6-21.3c-0.8-3.8,0-7.4,2.2-10.6
				c0.2-0.3,0.6-0.5,0.9-0.5c0.1,0,0.1,0,0.2,0l39.5,6.9c0.4,0.1,0.8,0.4,0.9,0.8c1,3.8,0.5,7.4-1.5,10.7
				c-5.9,9.9-23.1,13.9-23.8,14.1C229.9,45.5,229.8,45.5,229.8,45.5L229.8,45.5z"/>
			<path class="st1" d="M214.7,14l19.7,3.5l19.7,3.5c4.5,16.8-24.4,23.5-24.4,23.5S204.8,28.3,214.7,14 M214.7,11.8
				c-0.7,0-1.4,0.4-1.8,0.9c-2.4,3.5-3.2,7.3-2.4,11.4c2.3,11.7,17.4,21.6,18.1,22c0.4,0.2,0.8,0.3,1.2,0.3c0.2,0,0.3,0,0.5-0.1
				c0.8-0.2,18.3-4.3,24.5-14.6c2.2-3.6,2.7-7.5,1.6-11.6c-0.2-0.8-0.9-1.5-1.8-1.6l-19.7-3.4l-19.7-3.4
				C215,11.8,214.9,11.8,214.7,11.8L214.7,11.8L214.7,11.8z"/>
		</g>
		<g>
			<path class="st0" d="M234.3,47.9c-1.7,0-3.4-0.2-5.1-0.5c-15.5-2.7-26.1-17.1-24.2-32.7c0.1-0.5,0.5-0.9,1-1l8.6-0.8
				c0,0,0.1,0,0.1,0c0.3,0,0.6,0.1,0.8,0.4c0.2,0.3,0.3,0.6,0.3,1c0,0.1-0.1,0.3-0.1,0.4c0,0.1-0.1,0.3-0.1,0.4
				c-1.8,10.3,5.1,20.2,15.4,22c1.1,0.2,2.2,0.3,3.3,0.3c9.2,0,17.1-6.6,18.7-15.7c0-0.2,0.1-0.5,0.1-0.7l0-0.3
				c0-0.4,0.2-0.7,0.6-0.8c0.2-0.1,0.4-0.1,0.5-0.1c0.2,0,0.3,0,0.5,0.1l7.8,3.8c0.5,0.2,0.7,0.7,0.6,1.2
				C260.1,38.2,248,47.9,234.3,47.9L234.3,47.9L234.3,47.9z"/>
			<path class="st1" d="M214.7,14c-0.1,0.3-0.1,0.6-0.2,0.9c-1.9,10.9,5.4,21.3,16.3,23.2c1.2,0.2,2.3,0.3,3.5,0.3
				c9.6,0,18.1-6.9,19.8-16.6c0.1-0.4,0.1-0.7,0.1-1l7.8,3.8c-2.9,13.1-14.6,22.3-27.7,22.3c-1.6,0-3.3-0.1-4.9-0.4
				c-15-2.6-25.1-16.5-23.3-31.5L214.7,14 M214.7,11.8c-0.1,0-0.1,0-0.2,0l-8.6,0.8c-1,0.1-1.8,0.9-2,1.9c-2,16.2,9,31.1,25.1,33.9
				c1.8,0.3,3.5,0.5,5.3,0.5c14.2,0,26.7-10.1,29.8-24c0.2-1-0.3-2-1.2-2.5l-7.8-3.8c-0.3-0.1-0.6-0.2-0.9-0.2
				c-0.4,0-0.7,0.1-1.1,0.3c-0.6,0.3-1,1-1.1,1.7l0,0.3c0,0.2-0.1,0.4-0.1,0.6c-1.5,8.6-8.9,14.8-17.6,14.8c-1,0-2.1-0.1-3.1-0.3
				c-9.7-1.7-16.2-11-14.5-20.7c0-0.1,0.1-0.2,0.1-0.3c0-0.1,0.1-0.3,0.1-0.5c0.1-0.7-0.1-1.4-0.5-1.9
				C216,12.1,215.4,11.8,214.7,11.8L214.7,11.8L214.7,11.8z M214.7,16.2L214.7,16.2L214.7,16.2z"/>
		</g>
		<path class="st2" d="M262.2,23.2c-3.3,14.9-17.6,24.7-32.6,22.1c-15-2.6-25.1-16.6-23.2-31.7L182.5,16l-24.4,139.3l0,0.1l50.7,8.9
			l50.7,8.9l16.4-93.8l1.5-8.6l6.5-37.1L262.2,23.2z"/>
	</g>
	<g>
		<rect x="121.5" y="57.4" class="st3" width="56.1" height="93.1"/>
		<polygon class="st4" points="149.6,150.5 121.5,150.5 126,157.6 149.6,157.6 173.2,157.6 177.7,150.5 		"/>
		<g>
			<polygon class="st4" points="173.4,52.7 149.6,52.7 125.8,52.7 121.5,57.4 149.6,57.4 177.7,57.4 			"/>
			<path class="st4" d="M125.9,52.7h47.4c1.2,0,2.2-1,2.2-2.2s-1-2.2-2.2-2.2h-47.4c-1.2,0-2.2,1-2.2,2.2S124.7,52.7,125.9,52.7z"/>
		</g>
		<path class="st5" d="M176.4,65.3c-2.2,0.4-4.4,1.2-6.4,2.2c-4.9,2.3-9.5,5.5-14.8,6.6c-6.7,1.3-13.5-0.9-20.3-0.9
			c-2.2,0-7.3,1.1-12.2,2.9v12.1c4.6-3.1,9.5-5.1,15-4.9c6.3,0.2,12.6,2.9,18.9,1.8c5.2-0.9,9.5-4.4,14.1-7.1c1.8-1,3.7-2,5.6-2.6
			L176.4,65.3L176.4,65.3z"/>
		<path class="st5" d="M176.4,78.8c-2.5,0.7-4.9,1.7-7.1,3.1c-2.8,1.7-5.4,3.9-8.4,5.1c-4.2,1.7-8.9,1.4-13.4,0.8s-9-1.6-13.5-1.2
			c-3.7,0.4-7.2,1.7-10.3,3.9c-0.3,0.2-0.6,0.4-0.9,0.6v5.3c1.4-1.1,2.8-2.2,4.3-3.1c5.8-3.2,12.7-2.7,19.2-1.6
			c4.9,0.8,9.9,1.9,14.7,0.6c4.1-1.1,7.5-3.9,11.2-5.9c1.3-0.7,2.8-1.4,4.2-1.8L176.4,78.8L176.4,78.8z"/>
		<g class="st6">
			<path class="st5" d="M133.1,133.9c0,0.3-0.2,0.6-0.6,0.7c-0.3,0.1-0.5,0.3-0.6,0.4c-0.1,0.1-0.1,0.4-0.1,0.8
				c0,0.7,0.6,1.6,1.7,2.5c1.5,1.2,3,1.9,4.4,1.9c0.7,0,1.2-0.2,1.7-0.6c0.5-0.4,0.7-1,0.7-1.6c0-0.5-0.1-1.1-0.4-1.6
				c-0.2-0.3-0.5-0.8-0.9-1.4c-0.2-0.3-0.3-0.5-0.3-0.7c0-0.2,0.1-0.4,0.3-0.6c0.2-0.1,0.4-0.2,0.6-0.2c0.2,0,0.4,0.1,0.6,0.3
				c1.2,1.4,1.8,2.7,1.8,4.1c0,1.1-0.4,2-1.2,2.7c-0.8,0.7-1.7,1.1-2.8,1.1c-1.8,0-3.5-0.7-5.4-2.2c-1.5-1.2-2.3-2.5-2.3-3.7
				c0-0.3,0-0.5,0-0.7c0-0.2,0.1-0.4,0.1-0.5c-0.3-0.2-0.4-0.4-0.4-0.7c0-0.4,0.2-0.6,0.7-0.7c0.4-0.1,0.9-0.1,1.5-0.1
				c0.2,0,0.4,0.1,0.6,0.2C133,133.4,133.1,133.6,133.1,133.9z"/>
			<path class="st5" d="M142.3,126.7c0,1.5-0.4,2.7-1.3,3.7c-0.9,1.1-2.1,1.6-3.6,1.6c-1.8,0-3.4-0.5-4.9-1.6
				c-1.6-1.2-2.4-2.7-2.4-4.4c0-1.7,0.4-3,1.1-3.8c0.8-0.9,2-1.3,3.8-1.3c1.8,0,3.4,0.5,4.8,1.5
				C141.5,123.5,142.3,124.9,142.3,126.7z M131.7,126c0,1.3,0.6,2.3,1.9,3.2c1.2,0.8,2.4,1.2,3.8,1.2c1,0,1.8-0.4,2.4-1.1
				c0.6-0.7,0.9-1.6,0.9-2.6c0-1.3-0.6-2.3-1.9-3.1c-1.1-0.7-2.4-1.1-3.8-1.1c-1.2,0-2.1,0.3-2.6,0.8
				C131.9,123.8,131.7,124.7,131.7,126z"/>
			<path class="st5" d="M141.5,112.3c0.3,0.6,0.5,1.5,0.7,2.7c0.2,1.2,0.3,2.1,0.3,2.8c0,0.5-0.1,0.9-0.2,1.1
				c-0.2,0.3-0.6,0.5-1.2,0.5l-2.6-0.2c-2.4-0.1-5-0.2-7.9-0.2c-0.2,0-0.4-0.1-0.6-0.2c-0.2-0.1-0.2-0.3-0.2-0.5
				c0-0.2,0.1-0.4,0.2-0.6c0.2-0.1,0.3-0.2,0.6-0.2c2.9,0,5.6,0.1,8,0.2l1.2,0.1c0.4,0,0.8,0.1,1.1,0c0-1.3-0.3-3.1-1-5.1
				c0-0.1,0-0.2,0-0.2c0-0.2,0.1-0.4,0.3-0.6c0.2-0.1,0.3-0.2,0.5-0.2C141.1,111.8,141.4,111.9,141.5,112.3z"/>
			<path class="st5" d="M142.1,101.8c0,0.5-0.6,0.9-1.8,1.2c-0.5,0.1-1.3,0.3-2.4,0.5c0.1,0.5,0.2,1.2,0.4,2.1l0.4,2.1
				c0.7,0.3,1.7,0.7,3,1.3c0.3,0.2,0.4,0.4,0.4,0.7c0,0.2-0.1,0.4-0.2,0.6c-0.1,0.2-0.3,0.2-0.6,0.2c-0.2,0-1.2-0.4-2.8-1.2
				c-0.1,0.1-0.3,0.1-0.5,0.1c-0.4,0-0.7-0.3-0.8-0.8c-1.1-0.6-2.4-1.3-3.8-2.2c-2-1.2-2.9-2-2.9-2.3c0-0.4,0.3-0.7,0.9-0.8l2.6-0.5
				l5.4-1.2l1.2-0.4c0.4-0.1,0.7-0.2,0.8-0.2c0.2,0,0.4,0.1,0.6,0.2S142.1,101.6,142.1,101.8z M133.2,104.5l3.6,2.2
				c-0.2-0.6-0.4-1.6-0.6-2.8L133.2,104.5z"/>
		</g>
	</g>
</g>
<g>
	<g>
		<path class="st7" d="M186,398.1c-0.4,0-0.7,0-1-0.1c-0.1,0-0.1,0-0.1,0L46.8,360.9c-3.5-0.5-6.5-3-8.1-6.9l-4.7-9.2
			c0,0,0-0.1,0-0.1c-0.4-1.1-0.7-2.2-0.9-3.4L12.1,192.7c-0.6-4.1,0.6-8.3,3.1-11.1c1.9-2.2,4.4-3.4,7.1-3.4H340c4,0,7.5,2.7,9.2,7
			l3.8,9.3c1,2.4,1.3,5,0.9,7.6l-21.2,148.9c-0.8,5.5-4.5,9.7-9,10.3L187.2,398c-0.1,0-0.1,0-0.1,0
			C186.7,398.1,186.4,398.1,186,398.1L186,398.1z"/>
		<path class="st1" d="M340,179.3c3.5,0,6.6,2.4,8.2,6.3l3.8,9.3c0.9,2.2,1.2,4.6,0.8,7l-21.2,148.9c-0.7,5-4,8.9-8.1,9.4
			l-136.5,36.9c-0.3,0-0.6,0.1-0.9,0.1s-0.6,0-0.9-0.1L47,359.9c-3.1-0.4-5.9-2.7-7.3-6.2l-4.8-9.3c-0.4-1-0.7-2-0.8-3.1L13.2,192.6
			c-1-6.9,3.3-13.3,9-13.3L340,179.3 M340,177.1H22.2c-3,0-5.8,1.3-7.9,3.8c-2.7,3.1-3.9,7.6-3.3,12l20.9,148.6
			c0.2,1.3,0.5,2.5,1,3.6c0,0.1,0,0.1,0.1,0.2l4.7,9.2c1.7,4.1,5,6.9,8.9,7.5l138,37c0.1,0,0.2,0,0.3,0.1c0.4,0,0.8,0.1,1.2,0.1
			s0.8,0,1.2-0.1c0.1,0,0.2,0,0.3-0.1l136.4-36.8c5-0.7,9-5.3,9.9-11.2L355,202.1c0.4-2.8,0.1-5.6-1-8.1l-3.8-9.3
			C348.3,180,344.4,177,340,177.1L340,177.1L340,177.1z"/>
	</g>
	<g>
		<path class="st5" d="M178.4,381.7c-0.4,0-0.7,0-1-0.1c-0.1,0-0.1,0-0.1,0L41,344.8c-4.5-0.6-8.2-4.8-9-10.3L12.1,192.7
			c-0.6-4.1,0.6-8.3,3.1-11.1c1.9-2.2,4.4-3.4,7.1-3.4h312.5c2.6,0,5.2,1.2,7.1,3.4c2.5,2.9,3.6,7,3.1,11.1L325,334.5
			c-0.8,5.5-4.5,9.7-9,10.3l-136.4,36.8c-0.1,0-0.1,0-0.1,0C179.1,381.7,178.7,381.7,178.4,381.7L178.4,381.7z"/>
		<path class="st1" d="M334.8,179.3c5.7,0,10,6.4,9,13.3l-19.9,141.8c-0.7,5-4,8.9-8.1,9.4l-136.5,36.9c-0.3,0-0.6,0.1-0.9,0.1
			s-0.6,0-0.9-0.1L41.2,343.7c-4.1-0.5-7.4-4.3-8.1-9.4L13.2,192.6c-1-6.9,3.3-13.3,9-13.3L334.8,179.3 M334.8,177.1H22.2
			c-3,0-5.8,1.3-7.9,3.8c-2.7,3.1-3.9,7.6-3.3,12l19.9,141.8c0.8,5.9,4.9,10.5,9.9,11.2l136.1,36.8c0.1,0,0.2,0,0.3,0.1
			c0.4,0,0.8,0.1,1.2,0.1s0.8,0,1.2-0.1c0.1,0,0.2,0,0.3-0.1l136.4-36.8c5-0.7,9-5.3,9.9-11.2L346,192.9c0.6-4.4-0.6-8.9-3.3-12
			C340.5,178.4,337.7,177.1,334.8,177.1L334.8,177.1L334.8,177.1z"/>
	</g>
	<g>
		<path class="st8" d="M59.2,191.3l-1.4,11l2.3,0.4l1-8.3c1.4,2.3,2.8,4.8,4.1,7.6l-2.6,12l2.2,0.7l2-9.2c1.2,2.8,2.4,5.8,3.5,9
			l-4.3,9.2l2,1.4l3.4-7.2c0.7,2.4,1.4,4.9,2.1,7.5l-4.9,9.1l1.9,1.6l3.9-7.1c0.6,2.9,1.2,5.9,1.7,9.1l-5.7,8.5l1.8,1.8l4.5-6.7
			c0.4,3.2,0.7,6.5,0.9,10l-6.5,7.2l1.5,2.1l5.1-5.7c0.1,2.5,0.2,5.1,0.2,7.8c0,0.4,0,0.8,0,1.3l-7.1,7.1l1.4,2.2l5.6-5.6
			c-0.1,3.7-0.4,7.3-0.8,10.8l-7.9,5.8l1.2,2.4l6.3-4.6c-0.4,3-1,5.8-1.6,8.6l-9.2,4.9l0.9,2.6l7.5-4c-0.7,2.9-1.5,5.6-2.3,8.2
			l-9.2,2.9l0.6,2.8l7.5-2.4c-1.2,3.4-2.4,6.5-3.7,9.5l-8.7,1.5l0.3,2.8l6.9-1.2c-1.4,2.9-2.8,5.7-4.2,8.2l-9.1-0.1v2.8l7.5,0.1
			c-4.1,6.9-8.1,12-10.8,15.1l6,0.7c2.3-3,5.1-6.7,7.9-11.3l0.9,9l2.3-0.3l-1.2-12c1.6-2.8,3.2-5.8,4.8-9.1l2.1,9.5l2.2-0.8
			l-2.7-12.2c1.2-2.7,2.3-5.5,3.3-8.4l2.6,8.2l2.1-1l-3.4-10.9c0.8-2.6,1.6-5.3,2.3-8.1l3.4,7.3l2-1.4l-4.5-9.6
			c0.8-3.4,1.4-6.9,2-10.5l4.8,7.6l1.8-1.7l-6.1-9.7c0.4-3.8,0.8-7.6,0.9-11.7l5.7,6.8l1.6-2l-7.2-8.6c0-0.5,0-1,0-1.5
			c0-2.9-0.1-5.6-0.2-8.3l6.2,6.7l1.5-2.1l-7.9-8.6c-0.2-3.6-0.6-6.9-1-10.2L88,246l1.2-2.4l-8.6-6.8c-0.5-3.4-1.1-6.6-1.7-9.6
			l7.2,4.5l1-2.5l-9.1-5.6c-0.7-2.8-1.4-5.5-2.2-8l7.6,4l0.9-2.6l-9.7-5.1c-1.1-3.1-2.2-5.9-3.4-8.6l7.2,1.2l0.3-2.8l-8.9-1.5
			c-1.7-3.6-3.4-6.8-5.2-9.7l8.1,0.3l0.1-2.8l-10-0.4c-2.1-3.2-4.2-5.9-6.2-8.1h-7.1C52.1,181.8,55.6,185.7,59.2,191.3L59.2,191.3z"
			/>
		<path class="st8" d="M297.8,191.3l1.4,11l-2.3,0.4l-1-8.3c-1.4,2.3-2.8,4.8-4.1,7.6l2.6,12l-2.2,0.7l-2-9.2
			c-1.2,2.8-2.4,5.8-3.5,9l4.3,9.2l-2,1.4l-3.4-7.2c-0.7,2.4-1.4,4.9-2.1,7.5l4.9,9.1l-1.9,1.6l-3.9-7.1c-0.6,2.9-1.2,5.9-1.6,9.1
			l5.7,8.5l-1.8,1.8l-4.5-6.7c-0.4,3.2-0.7,6.5-0.9,10l6.5,7.2l-1.5,2.1l-5.1-5.7c-0.1,2.5-0.2,5.1-0.2,7.8c0,0.4,0,0.8,0,1.3
			l7.1,7.1l-1.5,2.2l-5.6-5.6c0.1,3.7,0.4,7.3,0.9,10.8l7.9,5.8l-1.2,2.4l-6.3-4.6c0.4,3,1,5.8,1.6,8.6l9.2,4.9l-0.9,2.6l-7.5-4
			c0.7,2.9,1.5,5.6,2.3,8.2l9.2,2.9l-0.6,2.8l-7.5-2.4c1.2,3.4,2.4,6.5,3.7,9.5l8.7,1.5l-0.3,2.8l-6.9-1.2c1.4,2.9,2.8,5.7,4.2,8.2
			l9.1-0.1v2.8l-7.5,0.1c4.1,6.9,8.1,12,10.8,15.1l-6,0.7c-2.4-3-5.1-6.7-7.9-11.3l-0.9,9l-2.3-0.3l1.1-12c-1.6-2.8-3.2-5.8-4.8-9.1
			l-2.1,9.5l-2.2-0.8l2.7-12.2c-1.2-2.7-2.3-5.5-3.4-8.4l-2.6,8.2l-2.1-1l3.4-10.9c-0.8-2.6-1.6-5.3-2.3-8.1l-3.5,7.3l-2-1.4
			l4.5-9.6c-0.8-3.4-1.4-6.9-2-10.5l-4.8,7.6l-1.8-1.7l6.1-9.7c-0.4-3.8-0.8-7.6-0.9-11.7l-5.7,6.8l-1.6-2l7.2-8.6c0-0.5,0-1,0-1.5
			c0-2.9,0.1-5.6,0.2-8.3l-6.2,6.7l-1.5-2.1l7.9-8.6c0.2-3.6,0.5-6.9,1-10.2L269,246l-1.2-2.4l8.5-6.8c0.5-3.4,1.1-6.6,1.7-9.6
			l-7.2,4.5l-1-2.5l9.1-5.6c0.7-2.8,1.4-5.5,2.2-8l-7.6,4l-0.9-2.6l9.7-5.1c1.1-3.1,2.2-5.9,3.4-8.6l-7.2,1.2l-0.3-2.8l8.9-1.5
			c1.7-3.6,3.5-6.8,5.2-9.7l-8.1,0.3l-0.1-2.8l10-0.4c2.1-3.2,4.2-5.9,6.1-8.1h7.1C304.9,181.8,301.4,185.7,297.8,191.3L297.8,191.3
			z"/>
	</g>
</g>
<g>
	<g>
		<path class="st9" d="M113,200.6c-11.9,2.1-23.8,4.7-35.5,7.8c-3.2,0.9-6.3-1.4-5.8-4.2c0.9-4.6,1.9-9.3,2.9-13.9
			c0.3-1.1-0.1-2.3-1-3.1c-4.2-4-8.4-7.9-12.8-11.8c-2.3-2-1-5.4,2.6-6.4c13.3-3.6,26.8-6.6,40.4-8.9c2.8-0.5,5.3,0.9,5.8,2.9
			c2.3,11,4.7,22,7.1,33.1C117.1,198.1,115.4,200.2,113,200.6L113,200.6z"/>
		<path class="st1" d="M96.7,182c5.7,6.1,11.1,12.3,16.3,18.5c0,0,3.4-1.2,3.8-3.5c0.4-2.3-0.4-7.7-0.4-7.7
			C116.4,189.3,103.1,190.1,96.7,182L96.7,182z"/>
		<path class="st9" d="M256.4,200.6c11.9,2.1,23.8,4.7,35.5,7.8c3.2,0.9,6.3-1.4,5.8-4.2c-0.9-4.6-1.9-9.3-2.9-13.9
			c-0.3-1.1,0.1-2.3,1-3.1c4.2-4,8.4-7.9,12.8-11.8c2.3-2,1-5.4-2.6-6.4c-13.3-3.6-26.8-6.6-40.4-8.9c-2.8-0.5-5.3,0.9-5.8,2.9
			c-2.4,11-4.7,22-7.1,33.1C252.3,198.1,254,200.2,256.4,200.6L256.4,200.6z"/>
		<path class="st1" d="M272.2,183.9c-5.5,5.4-10.8,11-15.8,16.6c0,0-3.4-1.2-3.8-3.5c-0.4-2.3,0.4-7.7,0.4-7.7
			C253.1,189.3,265.8,192,272.2,183.9L272.2,183.9z"/>
		<path class="st9" d="M251.3,189.1c-43.8-6.9-88.7-6.9-132.6-0.1c-10,1.5-19.8-3.5-22-11.8c-0.9-3.4-1.8-6.9-2.7-10.4
			c-2.2-8.2,5.1-16.8,16.5-18.6c49.3-7.6,99.8-7.6,149.1,0.1c11.4,1.8,18.7,10.4,16.4,18.6c-0.9,3.5-1.8,6.9-2.7,10.4
			C271,185.6,261.2,190.6,251.3,189.1L251.3,189.1z"/>
	</g>
	<g class="st6">
		<path class="st1" d="M130.6,169.6c1.2,2.5,2.8,4.1,3.9,4c0.5-0.1,0.6-1,0.5-3c0.6,0.4,1.6,0.8,2.3,0.9c0,3.5-0.7,4.4-2.6,4.6
			c-2.6,0.3-5.1-2.3-6.7-6.2l-5.4,0.6l0.4,3.9l5-1.8c0.1,0.7,0.3,1.8,0.5,2.3c-6.1,2.3-7.1,2.6-7.7,3.1c-0.3-0.6-0.9-1.6-1.4-2.1
			c0.4-0.3,1-1,0.9-1.9l-1.7-14.7l15.2-1.7l0.8,6.8l-5.5,0.6c0.2,0.8,0.4,1.6,0.6,2.3l6.6-0.8l0.3,2.3L130.6,169.6z M121.4,161.4
			l0.2,2.2l10.1-1.1l-0.2-2.2L121.4,161.4z M127.1,167.7c-0.2-0.8-0.4-1.5-0.6-2.3l-4.5,0.5l0.3,2.4L127.1,167.7z"/>
	</g>
	<g class="st6">
		<path class="st1" d="M160.8,171.5l0.1,2.5l-18.8,1.1l-0.1-2.5l8.1-0.5l-0.3-4.2l-5.7,0.3l-0.1-2.4l5.7-0.3l-0.2-3.7l-4.3,0.3
			c-0.5,1.2-1.1,2.3-1.8,3.2c-0.5-0.4-1.7-1.1-2.3-1.4c1.5-1.9,2.7-4.8,3.3-7.7l2.6,0.4c-0.2,1-0.5,2-0.8,3l3.2-0.2l-0.2-3.8
			l2.6-0.2l0.2,3.8l7.1-0.4l0.1,2.4l-7.1,0.4l0.2,3.7l6.3-0.4l0.1,2.4l-6.3,0.4l0.3,4.2L160.8,171.5z"/>
	</g>
	<g class="st6">
		<path class="st1" d="M172,165.8c-0.8,0.2-1.6,0.5-2.4,0.7l0.1,5c0,1.2-0.2,1.8-0.9,2.2c-0.7,0.4-1.7,0.5-3.2,0.5
			c-0.1-0.6-0.4-1.6-0.7-2.3c0.8,0,1.7,0,2,0c0.3,0,0.4-0.1,0.4-0.4l-0.1-4.3l-2.4,0.7l-0.5-2.4c0.8-0.2,1.8-0.4,2.9-0.7l-0.1-3.7
			l-2.5,0l0-2.3l2.5,0l-0.1-4l2.4,0l0.1,4l2.2,0l0,2.3l-2.2,0l0.1,3.1l2.1-0.6L172,165.8z M182.1,171.7c0.1,0,0.2,0,0.3-0.1
			c0.1-0.1,0.1-0.3,0.1-0.7c0-0.4,0-1.3,0-2.5c0.4,0.4,1.2,0.8,1.8,1c0,1.1-0.1,2.4-0.2,3c-0.1,0.5-0.4,0.9-0.7,1.1
			c-0.3,0.3-0.8,0.4-1.3,0.4l-1.1,0c-0.5,0-1.1-0.1-1.5-0.5c-0.4-0.4-0.6-0.9-0.6-2.4l-0.1-6.7l-2.9,0.1l0,1.5c0,2.8-0.6,6.4-4,8.6
			c-0.3-0.5-1.3-1.5-1.7-1.9c3-1.9,3.2-4.5,3.2-6.7l-0.1-3.8l7.8-0.1l0.2,8.9c0,0.5,0,0.7,0.1,0.8c0.1,0.1,0.1,0.1,0.2,0.1
			L182.1,171.7z M184,160.2l-12,0.2l0-2.4l4.4-0.1c-0.2-0.8-0.7-2.1-1.2-3l2.4-0.7c0.5,0.9,1,2.2,1.3,3l-1.9,0.6l7-0.1L184,160.2z"
			/>
	</g>
	<g class="st6">
		<path class="st1" d="M193.8,164.8c-0.3,1.7-0.7,3.2-1.3,4.5c1.2,2,3.5,2.3,6.8,2.3c2.2,0,5.7,0,8-0.2c-0.4,0.5-0.7,1.6-0.9,2.3
			c-2.2,0.1-4.8,0.1-7.3,0.1c-3.8-0.1-6.2-0.5-7.8-2.6c-0.8,1.2-1.7,2.1-2.7,2.8c-0.3-0.5-1.1-1.4-1.6-1.7c2-1.1,3.4-3.2,4.1-6
			l-1.8,0c-0.5,0-1.1,0.1-1.3,0.3c-0.1-0.5-0.6-1.6-0.8-2c0.3-0.1,0.7-0.2,1.1-0.7c0.4-0.4,1.3-1.5,2.1-2.6l-2.7,0l0-2l4.3,0.1
			l0.3-0.1l1.5,0.7c-0.8,1.1-2.2,3-3.3,4.4l1.5,0l0.4-0.1L193.8,164.8z M191.3,159c-0.6-0.9-1.8-2.4-2.7-3.4l1.9-1.1
			c1,1,2.1,2.3,2.7,3.2L191.3,159z M196.6,170.6l-2.2,0l0.2-10.8l4.7,0.1c-1-0.5-1.9-0.9-2.8-1.3l1.6-1.3c0.8,0.3,1.6,0.6,2.5,1
			c0.6-0.3,1.2-0.7,1.7-1.1l-7.5-0.1l0-1.8l9.6,0.2l0.5-0.1l1.4,1.2c-1.1,1-2.4,2-3.8,2.8c0.5,0.2,0.9,0.5,1.2,0.7l2.5,0l-0.2,8.7
			c0,1-0.2,1.5-0.9,1.8c-0.6,0.3-1.5,0.3-2.8,0.3c-0.1-0.6-0.3-1.3-0.6-1.9c0.7,0,1.4,0,1.6,0.1c0.3,0,0.3-0.1,0.3-0.3l0-1l-2.7,0
			l-0.1,3.1l-2.1,0l0.1-3.1l-2.6,0L196.6,170.6z M199.2,165.7l0-1.2l-2.6,0l0,1.2L199.2,165.7z M196.7,161.6l0,1.1l2.6,0l0-1.1
			L196.7,161.6z M204.1,165.8l0-1.2l-2.7,0l0,1.2L204.1,165.8z M204.2,161.8l-2.7,0l0,1.1l2.7,0L204.2,161.8z"/>
	</g>
	<g class="st6">
		<path class="st1" d="M216.5,172.4c0,0.9-0.2,1.5-0.8,1.8c-0.5,0.3-1.3,0.3-2.4,0.3c0-0.5-0.2-1.5-0.4-2c0.6,0.1,1.3,0.1,1.5,0.1
			c0.2,0,0.3-0.1,0.3-0.3l0.2-4.8c-0.4,0.4-0.8,0.7-1.2,1.1l-0.4-1.2c-0.3,2.5-0.8,5.2-1.7,7.2c-0.3-0.4-1-1.2-1.4-1.5
			c1.1-2.8,1.4-7,1.5-10l0.4-7.5l5.1,0.3L216.5,172.4z M213.7,163.2c0,0.9-0.1,2-0.2,3.1c0.5-0.3,1-0.7,1.6-1.1l0.1-2.3l-0.8,0.5
			c-0.2-0.3-0.4-0.7-0.7-1.1L213.7,163.2z M213.9,158l-0.1,2.7l0.5-0.3c0.3,0.4,0.6,0.8,0.9,1.1l0.2-3.5L213.9,158z M224.8,172.5
			c-2.5,0.5-5.2,0.9-7.2,1.3l-0.4-2.1c1.1-0.1,2.5-0.3,3.9-0.6c0.4-1.1,0.9-2.4,1.1-3.4l2.2,0.7c-0.4,0.8-0.7,1.6-1.1,2.4l1.4-0.2
			L224.8,172.5z M220.5,159.1l-2.6-0.1l0.1-2l2.6,0.1l0.1-1.8l2.2,0.1l-0.1,1.8l2.6,0.1l-0.1,2l-2.6-0.1l-0.1,1.1l2.2,0.1l-0.1,0
			c1.3-1,2.7-2.7,3.5-4.4l2.1,0.8c-1,2-2.4,3.9-4,5.2c-0.3-0.5-0.9-1-1.4-1.5l-0.1,1.8l-6.8-0.3l0.1-1.9l2.2,0.1L220.5,159.1z
			 M224.4,167.8l-6.4-0.3l0.2-4.6l6.4,0.3L224.4,167.8z M218.8,171.2c-0.1-0.7-0.4-2-0.8-2.9l1.7-0.5c0.4,0.9,0.8,2,0.9,2.8
			L218.8,171.2z M222.4,164.8l-2.3-0.1l-0.1,1.3l2.3,0.1L222.4,164.8z M230.2,168.8c-1.1,2.8-2.9,5.1-5.2,6.5
			c-0.3-0.6-1-1.3-1.5-1.8c2-1.1,3.6-3.1,4.5-5.4L230.2,168.8z M230.3,162.8c-1,2.1-2.5,4-4.2,5.2c-0.4-0.5-1-1.2-1.6-1.7
			c1.4-1,2.8-2.7,3.6-4.4L230.3,162.8z"/>
	</g>
	<g class="st6">
		<path class="st1" d="M236.6,170.4c-0.3,1.9-0.8,3.8-1.3,5.1c-0.4-0.3-1.4-0.7-1.9-0.8c0.6-1.2,1-3,1.2-4.7L236.6,170.4z
			 M240.5,169.7c0-0.3-0.1-0.7-0.1-1c-4.6,0.3-5.3,0.4-5.8,0.6c-0.1-0.4-0.4-1.7-0.6-2.3c0.6-0.1,1.1-0.5,1.8-1.2
			c0.3-0.3,0.9-0.8,1.5-1.6c-1.7,0.1-2.2,0.1-2.5,0.3c-0.1-0.5-0.4-1.5-0.6-2.2c0.4-0.1,0.8-0.4,1.4-1c0.5-0.6,2.1-2.8,3.1-4.9
			l2.1,1.1c-1,1.7-2.2,3.4-3.4,4.8l1.6,0c0.6-0.8,1.2-1.7,1.7-2.6l2,1.5c-1.4,2-3.2,4.1-5,5.8l2.4-0.1c-0.1-0.6-0.3-1.1-0.4-1.6
			l1.9-0.4c0.4,1.4,0.9,3.3,1,4.5L240.5,169.7z M239.1,170.2c0.2,1.5,0.3,3.3,0.2,4.6l-2,0.3c0.1-1.2,0-3.1-0.1-4.6L239.1,170.2z
			 M241.5,169.7c0.3,1.1,0.6,2.4,0.7,3.4l-2,0.5c0-0.9-0.3-2.4-0.6-3.5L241.5,169.7z M253,174.6l-0.2,2.2l-11.9-0.9l0.2-2.2l1.6,0.1
			l1.2-15.9l9,0.7l-1.2,15.9L253,174.6z M245,174l4.4,0.3l0.2-3.2l-4.4-0.3L245,174z M250,165.9l-4.4-0.3l-0.2,3l4.4,0.3L250,165.9z
			 M246,160.3l-0.2,3l4.4,0.3l0.2-3L246,160.3z"/>
	</g>
</g>
</svg>
