<svg xmlns="http://www.w3.org/2000/svg" viewBox="0 0 25.49 25.49"><path d="M19.16 25.49H6.32A6.32 6.32 0 010 19.17V6.33A6.33 6.33 0 016.32 0h12.84a6.33 6.33 0 016.32 6.33v12.84a6.32 6.32 0 01-6.32 6.32zM6.32 1.66A4.67 4.67 0 001.7 6.33v12.84a4.68 4.68 0 004.67 4.67h12.79a4.68 4.68 0 004.67-4.67V6.33a4.68 4.68 0 00-4.67-4.67z" fill="#fcd583"/><path d="M16.05 20.82H5.32a.72.72 0 010-1.43h10.73a.72.72 0 010 1.43zm-8.8-4.01L4.5 13.98a1.432 1.432 0 112.05-2l1.22 1.26 3.22-1.79a1.423 1.423 0 011.38 2.49z" fill="#fcd583"/><path d="M11.7 14.13a1.43 1.43 0 01-.69-2.67l8.27-4.61a1.429 1.429 0 111.42 2.48l-8.28 4.62a1.42 1.42 0 01-.72.18z" fill="#fcd583"/><path d="M14.78 12.41c-.67 0-1.65-.48-3.93-1.8-1.5-.86-3-1.77-3-1.78a1.421 1.421 0 111.49-2.42 62.21 62.21 0 005.56 3.13 1.45 1.45 0 011.14.73 1.42 1.42 0 01-.55 1.97 1.36 1.36 0 01-.71.17z" fill="#fcd583"/></svg>