<svg xmlns="http://www.w3.org/2000/svg" viewBox="0 0 206.43 206.42"><path d="M173.33 49.57l-.24-.32a.39.39 0 01-.08-.1c.25.34.4.55.5.67z" fill="#fff"/><path d="M138.06 6.05A103 103 0 0023.97 37.14 107.72 107.72 0 007.38 64.96a101.66 101.66 0 00-7.09 30.9 103 103 0 0059.84 101.12 106.69 106.69 0 0032 8.81 103.09 103.09 0 00113-86 110.39 110.39 0 001.37-16.54 103.07 103.07 0 00-18.8-59.35 105.08 105.08 0 00-49.64-37.85zm52.64 109a96.38 96.38 0 01-6.11 22.38 95.18 95.18 0 01-6.27 12.07q-1.85 3-3.92 5.88c-.35.49-.71 1-1.07 1.45l-.13.18c-.72.89-1.43 1.79-2.17 2.66a96.51 96.51 0 01-10 10.15c-.86.76-1.73 1.5-2.62 2.23l-1.16.92c.11-.08.23-.16.36-.27l-.46.36c-.31.25-.95.72-.54.41q-2.77 2.07-5.69 3.94a87.12 87.12 0 01-35.84 13.25 98.12 98.12 0 01-23.73 0 86.75 86.75 0 01-34.45-12.38q-3-1.85-5.87-3.92c-.49-.35-1-.71-1.45-1.07l-.18-.13c-.9-.72-1.79-1.43-2.66-2.17a96.61 96.61 0 01-10.16-10c-.75-.86-1.49-1.73-2.22-2.62l-.93-1.16.27.36-.35-.46c-.24-.31-.71-1-.4-.54-1.38-1.85-2.7-3.75-3.94-5.69a86.74 86.74 0 01-13.25-35.84 98.12 98.12 0 010-23.73 86.32 86.32 0 0112.38-34.45q1.85-3 3.92-5.87c.35-.49.71-1 1.07-1.46l.13-.17c.71-.9 1.43-1.79 2.17-2.66a96.52 96.52 0 0110-10.16c.86-.75 1.74-1.5 2.63-2.22l1.15-.93-.36.27c.16-.11.31-.23.46-.35.32-.24 1-.71.55-.4 1.85-1.38 3.74-2.7 5.69-3.94a86.74 86.74 0 0135.84-13.25 98.12 98.12 0 0123.73 0 96.41 96.41 0 0122.37 6.1 95.24 95.24 0 0112.07 6.28q3 1.84 5.88 3.92c.49.35 1 .71 1.45 1.07l.18.13c.89.71 1.79 1.43 2.66 2.17a96.42 96.42 0 0110.15 10c.76.86 1.5 1.74 2.23 2.63l.93 1.15a4.2 4.2 0 01-.27-.36c.11.16.23.31.35.46.25.32.72 1 .41.55 1.38 1.85 2.69 3.74 3.94 5.69a87.12 87.12 0 0113.25 35.84 95.41 95.41 0 010 23.72z" fill="#fff"/><path d="M156.86 173.32l.32-.24.1-.09-.66.51zM49.59 33.11l-.33.24-.1.08.67-.5zM33.12 156.85l.24.32.08.1-.5-.66zm125.06-58.94l-21-23.83-3-3.37c-2.6-3-8-2.86-10.61 0a7.69 7.69 0 000 10.61q6.35 7.19 12.67 14.39H66.71c-3.91 0-7.83-.08-11.74 0h-.17c-3.92 0-7.68 3.45-7.5 7.5a7.63 7.63 0 007.5 7.5h81.5q-4.84 5.52-9.7 11l-3 3.38a7.94 7.94 0 00-2.2 5.3 7.66 7.66 0 002.2 5.31c2.84 2.6 7.84 3.14 10.61 0l21-23.83 3-3.37a8.86 8.86 0 001.09-1.49 7.29 7.29 0 001.11-3.82 7.63 7.63 0 00-2.23-5.28z" fill="#fff"/></svg>