<svg xmlns="http://www.w3.org/2000/svg" viewBox="0 0 206.42 206.43"><defs><clipPath id="a"><path fill="none" d="M0 0h206.42v206.43H0z"/></clipPath></defs><g clip-path="url(#a)" fill="#fff"><path d="M103.12 103.29l.32-.24.1-.08-.66.5.24-.18"/><path d="M200.37 138.05A103 103 0 00169.28 24a107.32 107.32 0 00-27.82-16.62 102 102 0 00-30.91-7.1A103.08 103.08 0 009.43 60.12a107.05 107.05 0 00-8.8 32 103.09 103.09 0 0086 113 111.71 111.71 0 0016.54 1.36 102.93 102.93 0 0059.35-18.8 105.05 105.05 0 0037.81-49.58m-109 52.64A96.08 96.08 0 0169 184.59a96.55 96.55 0 01-12.07-6.27q-3-1.86-5.87-3.92l-1.45-1.07-.18-.14c-.9-.71-1.79-1.43-2.66-2.16a97.58 97.58 0 01-10.16-10c-.75-.86-1.49-1.74-2.22-2.62l-.93-1.16.27.36-.35-.46c-.25-.32-.72-1-.41-.55-1.38-1.85-2.7-3.74-3.94-5.69a95.76 95.76 0 01-7.16-13.5 96.79 96.79 0 01-6.09-22.34 98 98 0 010-23.72A96.86 96.86 0 0121.83 69a96.56 96.56 0 016.28-12.07Q30 53.9 32 51l1.07-1.45.13-.18c.71-.89 1.43-1.78 2.17-2.66a95.54 95.54 0 0110-10.15c.86-.76 1.73-1.5 2.62-2.22.38-.32.77-.63 1.15-.93l-.36.27.47-.35c.31-.25.95-.72.54-.4 1.85-1.38 3.75-2.7 5.69-3.94A95.93 95.93 0 0169 21.83a96.05 96.05 0 0122.33-6.08 97.12 97.12 0 0123.73 0 96 96 0 0122.38 6.1 96.55 96.55 0 0112.07 6.27c2 1.24 4 2.54 5.87 3.92l1.45 1.07.18.14c.9.71 1.79 1.42 2.66 2.16a96.61 96.61 0 0110.16 10c.75.86 1.49 1.74 2.22 2.62l.93 1.16-.27-.36.35.46c.25.31.72 1 .41.54q2.07 2.77 3.94 5.7A95.76 95.76 0 01184.59 69a96.65 96.65 0 016.09 22.34 98 98 0 010 23.72 96.49 96.49 0 01-6.1 22.38 96.61 96.61 0 01-6.28 12.07q-1.85 3-3.92 5.87c-.35.49-.71 1-1.07 1.46l-.13.18c-.71.89-1.43 1.78-2.17 2.65a94.7 94.7 0 01-10 10.16c-.86.76-1.73 1.5-2.62 2.22-.38.32-.77.62-1.16.93l.37-.27-.47.35c-.31.25-.95.71-.54.4-1.85 1.38-3.75 2.7-5.69 3.94a97 97 0 01-13.51 7.17 96 96 0 01-22.34 6.08 95.33 95.33 0 01-23.71 0"/><path d="M14 128.52l.24.32.08.1-.5-.66.18.24M154.16 21.25l-.24-.33-.09-.1.5.67-.17-.24M30.41 4.78l-.32.22a.39.39 0 01-.1.08c.34-.25.55-.4.67-.5l-.25.18m72.8 143.74a7.47 7.47 0 01-5.3-2.19L48.2 96.61A7.502 7.502 0 0158.81 86l44.4 44.4 44.4-44.4a7.502 7.502 0 1110.61 10.61l-49.71 49.7a7.47 7.47 0 01-5.3 2.19"/></g></svg>