<?xml version="1.0" encoding="utf-8"?>
<!-- Generator: Adobe Illustrator 23.0.1, SVG Export Plug-In . SVG Version: 6.00 Build 0)  -->
<svg version="1.1" id="圖層_1" xmlns="http://www.w3.org/2000/svg" xmlns:xlink="http://www.w3.org/1999/xlink" x="0px" y="0px"
	 viewBox="0 0 33 33" style="enable-background:new 0 0 33 33;" xml:space="preserve">
<style type="text/css">
	.st0{fill:#FFFFFF;}
</style>
<title>socialmedia</title>
<path class="st0" d="M31.8,8.8c-0.4-1.4-1.4-2.5-2.8-2.8c-2.5-0.7-12.5-0.7-12.5-0.7S6.5,5.2,4,5.9C2.6,6.3,1.5,7.4,1.2,8.8
	c-0.5,2.6-0.7,5.2-0.7,7.8c0,2.6,0.2,5.2,0.7,7.8c0.4,1.4,1.4,2.5,2.8,2.8c2.5,0.7,12.5,0.7,12.5,0.7s10,0,12.5-0.7
	c1.4-0.4,2.5-1.5,2.8-2.8c0.5-2.6,0.7-5.2,0.7-7.8C32.5,13.9,32.3,11.3,31.8,8.8z M13.2,21.3v-9.5l8.4,4.8L13.2,21.3z"/>
</svg>
