<svg width="48" height="48" viewBox="0 0 48 48" fill="none" xmlns="http://www.w3.org/2000/svg">
<path fill-rule="evenodd" clip-rule="evenodd" d="M20.328 43.341C19.9731 43.1628 19.7034 42.8511 19.578 42.4743C19.4526 42.0975 19.4817 41.6864 19.659 41.331L28.32 24L19.656 6.67204C19.5659 6.49575 19.5117 6.30338 19.4963 6.10601C19.481 5.90865 19.5048 5.7102 19.5665 5.5221C19.6282 5.334 19.7266 5.15998 19.8558 5.01006C19.9851 4.86014 20.1428 4.7373 20.3198 4.64861C20.4968 4.55992 20.6895 4.50714 20.887 4.49331C21.0845 4.47949 21.2828 4.50488 21.4704 4.56804C21.658 4.6312 21.8312 4.73088 21.9802 4.86131C22.1291 4.99175 22.2507 5.15037 22.338 5.32804L31.338 23.328C31.4425 23.5366 31.4969 23.7667 31.4969 24C31.4969 24.2334 31.4425 24.4634 31.338 24.672L22.338 42.672C22.1598 43.0269 21.8481 43.2966 21.4713 43.422C21.0945 43.5474 20.6833 43.5183 20.328 43.341Z" fill="#005193"/>
</svg>
