<svg width="100%" height="auto" viewBox="0 0 375 306" fill="none" xmlns="http://www.w3.org/2000/svg"><mask id="b" style="mask-type:alpha" maskUnits="userSpaceOnUse" x="0" y="0" width="375" height="306"><path fill-rule="evenodd" clip-rule="evenodd" d="M375 0H0v254l187.5 52L375 254V0Z" fill="url(#a)"/></mask><g mask="url(#b)"><path d="M141.894 468.973c-2.568-.365-10.256-1.298-22.19-1.298-6.873 0-14.105.306-21.514.906-2.375-26.633 1.03-60.755 9.859-98.761 6.364-27.39 15.612-56.776 24.962-79.413 1.179 7.135 5.698 24.054 13.483 52.565 7.146 26.167 14.528 53.219 14.947 59.683-3.86 5.358-14.963 22.808-17.049 32.271l-.016.086c-2.15 18.962-2.445 30.667-2.482 33.961Z" fill="#fff"/><path d="M132.705 293.304c1.517 7.338 5.313 21.731 12.995 49.877 6.712 24.579 14.293 52.35 14.899 59.237-3.067 4.335-14.759 22.101-17.011 32.326a1.851 1.851 0 0 0-.027.166c-1.983 17.503-2.391 28.849-2.471 33.113-3.222-.423-10.481-1.174-21.391-1.174-6.642 0-13.623.284-20.774.847-2.23-26.429 1.19-60.16 9.907-97.699 6.117-26.317 14.893-54.474 23.862-76.698m.858-6.336c-16.26 38.226-41.865 121.378-36.112 182.493 8.545-.719 15.997-.971 22.254-.971 14.893 0 22.999 1.432 22.999 1.432s-.097-12.091 2.482-34.819c2.123-9.635 13.644-27.487 17.081-32.202-.435-12.182-30.537-111.63-28.709-115.933h.005Z" fill="#123B68"/><path d="M325.013 481.198c-10.899-.579-111.425-5.986-125.337-9.344l-.091-.017c-21.118-2.633-30.591-33.263-36.247-51.566-1.56-5.053-2.911-9.42-4.171-12.161-.675-2.35-19.788-68.781-22.516-88.382-2.729-19.638-3.131-28.012-3.185-30.206l63.889-17.192c2.433 3.009 17.504 21.805 21.181 30.538.011.022.016.043.027.059 4.235 8.127 5.538 18.341 3.769 29.536-1.415 8.932-4.852 18.571-9.425 26.451a.81.81 0 0 0-.107.488c.134 1.422.482 4.34.96 8.379 1.822 15.401 5.618 47.453 4.396 54.904a.784.784 0 0 0 .021.354c.413 1.475 2.145 4.597 5.731 5.852l.386.129c4.369 1.464 5.404 1.813 6.369 1.813.349 0 .654-.048 1.008-.107.67-.108 1.678-.274 3.978-.274.75 0 1.598.016 2.514.054 14.277.547 78.042 22.793 84.298 24.981l2.558 25.711h-.006Z" fill="#fff"/><path d="M197.054 273.252c3.222 4.002 17.236 21.629 20.726 29.933.016.043.038.08.059.123 4.155 7.972 5.431 18.008 3.683 29.032-1.399 8.835-4.798 18.378-9.328 26.172a1.636 1.636 0 0 0-.215.976c.134 1.433.483 4.351.96 8.395 1.818 15.364 5.602 47.34 4.402 54.678-.038.236-.027.478.037.708.054.193 1.373 4.694 6.267 6.405l.375.129c4.579 1.534 5.533 1.856 6.627 1.856.413 0 .766-.059 1.142-.118.643-.107 1.613-.263 3.849-.263.74 0 1.576.016 2.482.054 13.853.531 75.056 21.79 83.569 24.767l2.413 24.246c-14.77-.788-110.734-6.013-124.244-9.275a1.064 1.064 0 0 0-.182-.032c-8.986-1.121-16.555-7.381-23.155-19.134-5.71-10.171-9.425-22.197-12.416-31.864-1.56-5.042-2.911-9.409-4.182-12.204-.922-3.207-19.772-68.802-22.474-88.21-2.509-18.045-3.045-26.553-3.157-29.471l62.751-16.887m.601-1.85-65.014 17.493s-.091 7.257 3.206 30.941c2.798 20.143 22.554 88.553 22.554 88.553 5.838 12.633 13.596 60.825 41.082 64.253 14.882 3.594 126.436 9.42 126.436 9.42l-2.702-27.176s-69.785-24.616-85.027-25.201a68.617 68.617 0 0 0-2.546-.054c-3.533 0-4.134.381-4.992.381-.857 0-1.962-.381-6.486-1.899-3.753-1.314-5.035-4.672-5.211-5.299 1.549-9.447-4.67-56.395-5.346-63.492 8.187-14.092 15.328-38.274 5.678-56.781-4.075-9.682-21.632-31.15-21.632-31.15v.011Z" fill="#123B68"/><path d="M172.157 278.263s13.012 92.287 23.182 137.776c10.175 45.489 24.264 42.946 42.1 44.77" stroke="#C9D1DC" stroke-width="3.03" stroke-linejoin="round"/><path d="M168.801 91.763c-.52-2.135-1.828-4.195-3.833-5.203-2.622-1.325-5.576.075-8.24-1.003a.273.273 0 0 0-.225 0c-.15-.027-.311.032-.365.22-1.571 5.648-3.141 11.318-3.913 17.139-.499 3.771-.826 9.285 4.342 9.612 4.327.274 8.036-3.669 9.891-7.172 2.064-3.905 3.399-9.22 2.338-13.593h.005Z" fill="#2874C5"/><path d="M220.558 81.48c-4.777-16.522-28.162-14.704-40.809-14.156-14.137 2.027-19.171 15.068-21.954 27.905-.89 4.109-1.549 8.196-2.203 11.898-1.013 7.375-2.188 13.56 3.377 19.676 5.388 5.916 28.103 6.024 35.636 4.259 1.399.22 9.537-4.946 10.92-7.709 3.608-7.193 6.128-15.867 9.334-23.264 2.707-6.255 7.773-11.952 5.699-18.614v.005Z" fill="#F6D7B9" stroke="#013B83" stroke-width="2.41" stroke-miterlimit="10"/><path d="M275.836 184.941c-2.386.241-4.74 1.11-6.82 2.322-1.897 1.111-3.581 2.495-4.884 3.97-.311.354-.627.703-.938 1.057-6.658 7.477-12.631 13.619-16.013 19.037-.858 1.374-1.544 2.704-2.048 3.997-.011.037-.033.086-.049.123-.638 1.695-1.34 3.514-1.576 5.327-.128 1.078.182 2.146 1.421 2.548 1.447.477 3.217-.097 4.541-.676.15-.059.284-.123.423-.188 1.249-.579 3.099-1.856 4.638-3.025.75-.569 1.42-1.111 1.914-1.524 4.755-4.082 8.883-8.395 12.931-13.062 1.211-1.4 1.699-3.669 3.098-4.924.611-.547 1.266-1.084 1.909-1.625 2.418-2.039 4.819-4.179 5.452-7.333.509-2.575-.423-6.389-3.999-6.019v-.005Z" fill="#123B68" stroke="#123B68" stroke-width="2.25" stroke-miterlimit="10"/><path d="M268.931 229.539c2.455-3.261 4.734-6.743 7.5-9.752-2.659-5.273-5.297-10.557-7.848-15.878a431.377 431.377 0 0 1-5.394-11.625c-6.658 7.478-12.631 13.62-16.013 19.038-.858 1.373-1.544 2.704-2.048 3.996-.011.038-.033.086-.049.124a126.987 126.987 0 0 0 4.386 7.199 130.836 130.836 0 0 0 12.132 15.83c1.962-3.267 5.275-6.207 7.329-8.932h.005Z" fill="#F6D7B9"/><path d="M133.761 287.822c-.68-2.334-2.75-9.645-3.742-15.551-1.855-11.051-1.935-22.541-2.01-33.65-.08-12-.166-24.408-2.482-36.349a.587.587 0 0 0-.065-.187c-.085-.183-.166-.365-.252-.542l-.176-.392a.797.797 0 0 0-.076-.129c-6.251-8.808-7.387-23.248-7.35-25.727.038-2.725.14-5.637.601-8.422.182-1.137.418-2.177.718-3.197a23.654 23.654 0 0 1 1.276-3.336c2.547-5.466 6.996-10.235 10.588-13.781 5.367-5.289 11.023-8.878 16.824-10.659 1.506-.461 3.141-.708 4.723-.949 2.23-.333 4.535-.682 6.664-1.636 2.509-1.132 4.61-2.892 6.642-4.592a69.27 69.27 0 0 1 2.429-1.974c5.613-4.297 10.534-4.737 17.343-5.348l.295-.027c.718.665 2.348 2.762 2.369 3.39-1.27 3.358-2.536 6.721-3.806 10.079l-.896 2.382a.817.817 0 0 0 .762 1.105h.053s.531-.043.644-.048a176.86 176.86 0 0 1 32.568.992c.033 0 .065.006.102.006a.815.815 0 0 0 .494-.167.619.619 0 0 1 .155-.085c.204-.07.493-.102.895-.102.268 0 .542.016.805.026.23.011.455.022.659.027 1.013.011 2.048.07 3.083.172 1.747.166 3.495.456 5.2.853 1.233.29 2.562.515 3.967.756 3.142.537 6.385 1.095 8.798 2.382 7.13 3.803 11.472 9.291 14.646 13.293 1.083 1.368 2.021 2.548 2.868 3.395 3.576 3.578 7.795 6.11 13.285 7.977.965.327 1.93.638 2.901.955 3.549 1.148 7.216 2.328 10.475 4.243-1.179 6.576-5.559 12.037-13.762 17.155-.037.027-.075.053-.107.08-10.267 9.109-20.42 20.62-27.931 31.649-5.479-4.109-10.889-10.948-15.253-16.468l-.895-1.132c-1.555-1.958-2.632-3.878-3.485-5.498a.813.813 0 0 0-.702-.435h-.022a.827.827 0 0 0-.702.397c-2.353 3.932-5.039 7.773-7.634 11.485l-.338.483c-6.176 8.835-11.473 16.94-13.703 26.628-1.26 5.472-4.122 18.791-5.018 24.778-.718 4.806-1.276 8.701-1.474 10.085l-60.956 15.61h.005Z" fill="#fff"/><path d="M185.405 122.211c.611.654 1.576 1.899 1.822 2.505-1.174 3.1-2.342 6.201-3.511 9.301l-1.099 2.908a1.638 1.638 0 0 0 .214 1.55c.311.419.799.66 1.314.66h.107c.107-.005.215-.016.322-.021a175.287 175.287 0 0 1 11.188-.36c7.19 0 14.438.445 21.541 1.325.065.011.134.011.199.011.337 0 .675-.107.954-.306.075-.021.247-.048.595-.048.241 0 .509.016.767.027.241.01.477.021.691.026.992.011 2.011.07 3.013.167 1.71.166 3.426.445 5.093.837 1.26.295 2.595.525 4.016.767 3.077.525 6.256 1.072 8.551 2.296 6.98 3.722 11.263 9.13 14.394 13.078 1.099 1.389 2.048 2.585 2.933 3.465 3.667 3.669 7.988 6.265 13.601 8.17.97.332 1.962.649 2.916.96 3.474 1.121 6.777 2.189 9.811 3.884-1.281 6.088-5.527 11.206-13.285 16.044a1.54 1.54 0 0 0-.219.166c-10.095 8.959-20.083 20.224-27.578 31.092-5.163-4.088-10.272-10.546-14.427-15.798l-.895-1.132c-1.512-1.91-2.568-3.782-3.404-5.37a1.635 1.635 0 0 0-1.4-.869h-.042a1.63 1.63 0 0 0-1.4.794c-2.337 3.906-5.007 7.725-7.591 11.421l-.348.499c-6.225 8.904-11.564 17.08-13.832 26.912-1.265 5.483-4.128 18.824-5.029 24.837-.638 4.286-1.153 7.842-1.394 9.548l-59.658 15.278c-.826-2.881-2.606-9.372-3.501-14.698-1.844-10.986-1.925-22.444-2-33.522-.08-12.037-.166-24.488-2.498-36.498a1.905 1.905 0 0 0-.123-.381l-.242-.531-.182-.402a1.814 1.814 0 0 0-.15-.263c-6.122-8.626-7.237-22.809-7.2-25.245.038-2.698.134-5.568.595-8.309.177-1.094.402-2.103.697-3.095a23.196 23.196 0 0 1 1.233-3.224c2.493-5.348 6.878-10.047 10.422-13.539 5.27-5.198 10.819-8.717 16.491-10.461 1.453-.445 2.986-.675 4.605-.922 2.284-.344 4.643-.698 6.878-1.701 2.611-1.18 4.756-2.977 6.83-4.715.821-.687 1.593-1.336 2.397-1.952 5.404-4.136 9.961-4.56 16.828-5.177m.547-1.69c-7.264.655-12.4.998-18.367 5.563-2.906 2.221-5.533 4.951-8.91 6.475-3.528 1.587-7.613 1.416-11.296 2.548-6.557 2.017-12.304 6.077-17.155 10.862-4.032 3.975-8.289 8.717-10.755 14.012a24.556 24.556 0 0 0-1.319 3.449 25.858 25.858 0 0 0-.74 3.299c-.471 2.822-.573 5.708-.616 8.545-.043 3.171 1.265 17.423 7.506 26.21.144.311.284.628.428.939 4.45 22.9.617 46.916 4.493 69.977 1.212 7.225 3.983 16.404 3.983 16.404l62.248-15.943s.643-4.554 1.55-10.621c.863-5.794 3.688-18.995 5.007-24.713 2.262-9.817 7.891-18.201 13.58-26.344 2.744-3.927 5.532-7.891 8.004-12.016.981 1.861 2.064 3.723 3.57 5.622 4.557 5.75 10.594 13.603 16.679 18.023a.4.4 0 0 0 .241.086.326.326 0 0 0 .268-.145c7.468-11.061 17.552-22.572 28.076-31.912 6.793-4.237 12.829-9.72 14.191-18.007.021-.145-.016-.29-.15-.371-4.284-2.591-9.119-3.846-13.821-5.439-4.997-1.7-9.221-4.028-12.969-7.778-3.195-3.197-7.934-11.619-17.707-16.833-3.625-1.937-8.97-2.28-12.964-3.213a40.69 40.69 0 0 0-5.307-.875 36.194 36.194 0 0 0-3.152-.171c-.44-.006-.965-.054-1.475-.054-.418 0-.825.032-1.158.145-.15.048-.273.123-.386.209a177.533 177.533 0 0 0-32.719-1.003c-.214.011-.429.032-.648.048 1.57-4.168 3.141-8.336 4.717-12.504.408-1.084-2.675-4.479-2.916-4.479l-.011.005Z" fill="#123B68"/><path d="M172.661 137.88c-.766.397-1.544.794-2.321 1.191-.08-.258-.493-.333-.542-.017-.016.102-.026.215-.048.317-4.23 2.167-8.46 4.329-12.695 6.48-2.841 1.438-5.624 2.612-8.835 2.838-2.622.182-5.259-.006-7.87.338-6.632.863-12.411 4.066-17.558 8.137a31.176 31.176 0 0 0-3.259 7.591c6.438-5.762 13.89-10.546 22.747-10.954 2.579-.113 5.173.064 7.725-.392 2.466-.434 4.734-1.534 6.959-2.66 4.01-2.033 8.02-4.083 12.03-6.137-.305 2.108-.616 4.211-.916 6.319-.054.359.503.515.557.15l.981-6.78c.981-.499 1.968-1.003 2.949-1.513.332-.166.043-.66-.29-.494-.857.435-1.71.875-2.557 1.309.182-1.282.37-2.569.558-3.846.89-.461 1.779-.912 2.675-1.368.327-.171.043-.665-.295-.499l.005-.01Z" fill="#B4E2FA"/><path d="M193.559 125.891a9.178 9.178 0 0 0-.311-.81 13.403 13.403 0 0 0-.504-1.062c-.386-1.202-1.185-2.211-2.6-2.854-5.115-2.339-10.953 1.636-14.62 4.913-2.52 2.243-4.691 4.839-6.621 7.602-1.544 2.21-2.932 4.532-4.23 6.871-3.211 5.804-5.87 11.952-7.575 18.373-1.244 4.699-2.509 10.246-1.876 15.267.096.783.241 1.55.434 2.301 1.297 4.93 5.608 7.338 10.54 6.292 5.377-1.142 9.618-5.386 12.738-9.677 3.334-4.592 6.063-9.747 8.567-14.864.338-.703.675-1.406 1.018-2.109 3.18-6.624 5.721-13.695 6.042-21.097.129-2.994.027-6.276-1.002-9.152v.006Z" fill="#123B68" stroke="#123B68" stroke-width="2.25" stroke-miterlimit="10"/><path d="M449.514-3.93c-2.326-5.177-3.576-6.32-10.288-10.256-2.562-1.502-5.452-2.34-8.02-.854-1.79 1.041-3.334 2.388-5.72 4.34-4.482 3.685-53.15 48.236-95.514 87.24-26.076 24.01-49.762 45.923-59.294 54.903-1.887-1.427-4.642-1.116-6.444.595-3.077 2.934 1.148 6.265 3.169 8.223 1.935 1.873 5.297 5.016 7.977 2.43 1.576-1.518 1.415-3.508.45-5.122 7.554-6.218 34.596-26.666 65.192-49.679 48.55-36.514 106.026-79.504 108.691-82.395 2.45-2.671 1.297-6.12-.188-9.425h-.011Z" fill="#F37E4C" stroke="#123B68" stroke-width="2.71" stroke-miterlimit="10"/><path d="M282.891 105.217c-28.784 10.616-61.46 7.52-89.783 20.872-3.174 1.39-6.229 3.144-9.339 4.849-4.782 1.417-10.02 1.873-14.866 2.736-7.747 11.941-14.363 25.936-13.682 40.511 9.618-4.559 18.314-10.959 28.387-14.596 6.359-2.35 12.947-4.034 19.552-5.536 5.737-1.309 11.677-2.639 16.443-6.201 12.062-5.273 47.617-20.776 57.251-26.247-2.139-2.275 5.989-14.511 6.031-16.394l.006.006Z" fill="#F6D7B9" stroke="#123B68" stroke-width="2.41" stroke-miterlimit="10"/><path d="M292.562 169.159c.333 4.699.735 9.409 1.024 14.129.402 6.641.917 13.288 1.357 19.934.428 6.7 1.002 13.496.686 20.191-.295 5.997-1.85 10.444-4.15 15.975-1.174 2.805-2.503 5.541-3.903 8.245-.906 1.738-1.844 4.114-4.149 4.5-2.273.376-5.061-1.244-6.991-2.242-2.45-1.26-4.75-2.773-6.9-4.447-4.428-3.433-8.202-6.271-11.596-10.616-1.646-2.108-3.726-4.398-4.836-6.807-.847-1.851.006-3.363 1.534-4.522 4.085-3.122 9.414-5.139 14.625-6.276-.241-4.061-.322-8.127-.177-12.183.204-5.519.809-11.028 1.973-16.42 1.206-5.594 3.141-10.991 4.396-16.57.273-1.223.509-2.451.708-3.685" fill="#F6D7B9"/><path d="M220.627 106.343c-.391-2.462-3.313-2.87-5.307-2.548-3.592.585-7.104 1.77-10.572 2.838-.944.289-1.887.547-2.879.579-.831.027-1.667-.145-2.504-.043-.868.107-1.571.445-2.074 1.116a.3.3 0 0 0-.274.15c-.756 1.309-.842 2.913.102 4.168a3.741 3.741 0 0 0 1.64 1.218c1.153.429.944.129 1.116 1.502.321 2.602 3.302 5.187 5.43 3.106.579 1.952 2.767 2.988 4.782 2.403 2.102-.612 3.094-2.848 2.601-4.86 2.337.333 4.632.547 6.224-1.695 1.158-1.636.938-3.76-.445-5.043 1.34-.241 2.412-1.335 2.166-2.896l-.006.005ZM200.823 82.783c-.311-1.512-.943-2.993-2.471-3.588-1.351-.526-2.809-.226-3.882.692-.08-.14-.252-.22-.423-.108-1.239.789-2.718 1.862-2.461 3.54.075.478.273.87.627 1.192.536.493.697.246.96 1.056.284.886-.156 1.004-.493 1.792-.483 1.137-.52 2.612.327 3.594 1.093 1.271 3.726 1.432 5.264 1.497 1.721.07 2.027-1.599 2.332-2.999.478-2.183.676-4.463.226-6.673l-.006.005ZM307.15 91.388c-3.217 0-5.549.74-8.02 1.861-4.847 2.194-13.693 8.696-18.469 11.05a465.773 465.773 0 0 0-7.27 3.659c-1.603.826-3.474 1.523-3.919 3.46-.418 1.834.482 3.578 1.694 4.892 1.941 2.108 5.699 5.3 5.699 5.3s22.806-16.865 25.878-21.613c1.308-1.174 2.622-2.365 3.731-3.674.676-.794 1.866-4.93.67-4.93l.006-.005Z" fill="#123B68"/><path d="M221.222 77.548c-2.3-5.295-6.578-9.393-11.339-11.855-5.602-2.902-11.88-3.712-18.002-3.771-5.957-.06-14.631.66-20.131 3.454-5.881 2.988-10.551 8.106-13.553 14.264l-.172.032c-.413.08-.236.773.172.698 10.154-1.926 19.814-3.326 29.62-2.27 2.037.542 4.289 1.079 5.897 2.286 2.182 1.646 2.611 4.516 2.477 7.08-.097 1.878-.37 3.75-.568 5.622-.445 2.07-.799 4.002-.922 5.434-.365 4.093-.145 8.985 2.621 12.102 2.815 3.17 7.479 3.455 11.098 2.108 4.02-1.497 10.03-4.688 11.912-8.83 2.236-4.924 3.131-10.31 2.992-15.749.134-3.562-.649-7.226-2.107-10.594l.005-.011Z" fill="#2874C5"/><path d="M162.588 83.293c11.767-10.063 29.614-2.645 31.748-2.457-1.297-1.26-8.143-5.46-12.491-7.252-5.233-2.157-10.481-4.115-16.094-4.887-5.013-.692-10.969-.8-15.601 1.657-3.967 2.103-5.436 5.327-4.38 9.114 1.817 6.507 11.054 11.99 12.598 12.403 1.11-3.01 1.727-6.438 4.22-8.573v-.005Z" fill="#123B68"/><path d="M173.004 113.419c-2.578.177-5.034-1.947-6.572-3.857a.415.415 0 0 1 .327-.671 74.84 74.84 0 0 0 10.963-.885.415.415 0 0 1 .434.596c-1.179 2.397-3.179 4.683-5.152 4.817Z" fill="#DC685F"/><path d="M215.142 95.931c-.632-2.736-4.948-2.29-7.714-.579-1.394.858-3.142 1.926-3.742 3.288-.488 1.105-.617 2.554.364 3.433 1.099.993 2.879.703 4.182.381 2.691-.67 7.672-3.25 6.916-6.523h-.006Z" fill="#B4E2FA"/><path d="M316.494 107.003c-.504-2.414-1.57-4.785-2.589-7.022-1.029-2.263-2.139-4.672-3.629-6.667-.88-1.175-2.054-2.125-3.598-1.862-2.053.349-4.219 1.883-5.983 2.924a54.867 54.867 0 0 0-10.674 8.239 53.889 53.889 0 0 0-9.478 12.638c-.199.37.364.698.563.328.439-.816.906-1.61 1.388-2.398a.33.33 0 0 0 .193.096c1.265.15 2.552.242 3.726-.204a.277.277 0 0 0 .3-.01c3.105-2.023 6.268.595 7.688 3.315.606 1.158 1.775 2.907.515 3.889-.504.391-1.185.746-1.464 1.357-.568 1.234.553 2.049 1.625 2.334 1.753.461 4.09.472 5.602-.644 1.206-.891 1.737-2.065 1.866-3.369 1.528.145 3.082.027 4.085-1.33.574-.773.863-1.728.986-2.715 1.153.692 2.622.875 3.785.059.965-.676 1.335-1.727 1.426-2.859.987.086 1.963-.273 2.697-1.067 1.249-1.352 1.319-3.321.965-5.027l.005-.005Z" fill="#123B68"/><path d="M294.674 114.593c-.359-1.754-1.141-3.358-2.895-4.162-1.522-.698-3.457-.547-5.087-.649-2.166-.134-4.343-.328-6.514-.403-2.032-.069-5.265.553-5.088 3.273.032.525.247.96.547 1.325-1.887.107-3.377 1.121-2.825 3.508.128.552.354.971.665 1.314-.37 0-.735.048-1.083.145-1.056.295-1.882 1.4-2.188 2.425-.327 1.099-.026 1.893.526 2.569-2.016.021-4.171.724-3.994 3.074-.07 1.094.209 2.194.219 3.309 0 .156.145.333.317.322.134-.021.268-.037.402-.043.048-.005.102-.016.15-.021.236-.038 2.418.601 2.852.885.113-.086.97-.3 1.072-.408 2.032.966 4.413 2.066 4.413 2.066s-2.772 8.717-2.011 11.844c1.271 5.214 4.327 8.17 5.324 8.69.611 1.212 2.391-8.352 3.125-7.58 1.276 1.341 2.97.73 4.595.655 2.723-.134 2.208 4.205 4.878 3.669.161-.032 4.118-31.944 2.606-35.807h-.006Z" fill="#123B68"/><path d="M302.711 119.518c-1.099-3.648-2.525-7.183-4.315-10.552-1.362-2.564-2.858-5.595-5.796-6.571-.396-.134-.568.499-.171.628 3.039 1.013 4.6 4.65 5.94 7.3 1.517 3.004 2.739 6.142 3.715 9.361.123.402.751.231.627-.172v.006ZM307.263 115.168c-1.25-3.68-2.611-7.366-4.295-10.868-1.243-2.586-2.803-5.558-5.934-5.97-.413-.055-.413.594 0 .654 3.356.44 4.926 4.565 6.111 7.273 1.303 2.972 2.445 6.019 3.49 9.088.134.396.762.225.628-.172v-.005ZM312.812 111.445c-1.003-3.423-2.043-6.867-3.651-10.064-1.362-2.709-3.222-5.799-6.091-7.097-.38-.171-.713.392-.327.564 2.928 1.325 4.761 4.575 6.101 7.365 1.448 3.004 2.407 6.217 3.34 9.409.118.402.745.23.628-.172v-.005Z" fill="#fff"/><path d="M275.626 136.726c-1.238-2.408-3.366-5.273-5.983-6.276-2.289-.88-5.168-.182-6.101 2.285-.52 1.374-.321 2.731.226 3.991.841 2.216 2.707 4.227 4.433 5.622 1.962 1.588 4.766 2.843 7.034 1.084 2.177-1.685 1.48-4.598.391-6.711v.005Z" fill="#F37E4C" stroke="#123B68" stroke-width="2.71" stroke-miterlimit="10"/><path d="M134.506 199.542c-.364 0-.67-.263-.739-.644a.837.837 0 0 1 .509-.944 178.114 178.114 0 0 0 23.466-11.372.791.791 0 0 1 .407-.113c.359 0 .681.258.777.617a.77.77 0 0 1-.37.891 180.135 180.135 0 0 1-23.749 11.495.82.82 0 0 1-.295.059l-.006.011ZM282.891 105.217c-10.899 3.744-19.911 5.718-31.523 7.515a.442.442 0 0 0-.065.086c-.037.032-.069.059-.101.097a.309.309 0 0 0-.086.16c-3.962 5.536-5.415 12.719-3.689 19.355.183.702.386 2.162 1.158 2.612h.006c12.378-5.573 24.21-11.056 28.263-13.437-2.139-2.275 5.989-14.511 6.032-16.394l.005.006Z" fill="#123B68"/><path d="M289.823 109.54c-3.614-.461-7.64-.348-11.248.108-2.246.284-4.106 1.764-3.356 4.211.011.042.032.069.054.102-2.188.659-3.179 2.59-2.22 4.86-2.364.241-3.978 2.741-2.97 4.994-2.418.445-3.978 1.641-3.42 4.173.091.408.718.236.627-.172-1.351-6.168 14.615-2.43 17.295-1.856.408.086.584-.541.172-.627-1.946-.413-9.307-2.216-14.052-1.61a.335.335 0 0 0-.032-.155c-.97-2.049.799-4.066 2.804-4.12 1.281-.037 2.605.166 3.876.274 2.777.23 5.543.531 8.294 1.014.407.069.584-.558.171-.628a85.056 85.056 0 0 0-6.283-.842c-1.887-.183-3.882-.504-5.795-.472v-.011c-.971-1.99-.14-3.809 2.053-4.297 1.319-.295 2.831-.134 4.165-.048 2.595.161 5.163.585 7.72 1.041.408.075.585-.553.172-.628-3.737-.671-7.827-1.529-11.628-1.078a5.934 5.934 0 0 0-.365.059.41.41 0 0 0-.011-.14c-1.211-3.959 4.675-3.545 6.97-3.631 2.53-.097 5.538-.403 7.988.327 3.099.917 3.796 4.264 3.956 7.097.156 2.671.022 5.337-.332 7.987-.054.413.595.413.654 0 .67-5.053 1.828-15.02-5.264-15.932h.005Z" fill="#fff"/><path d="M292.938 141.436H278.05c-.783 9.077-.445 18.019-1.887 26.918 2.686.751 5.57 1.035 8.116 1.18 2.777.156 5.549.027 8.283-.375-.654-9.275-1.024-18.523.376-27.717v-.006Z" fill="#123B68"/><path d="M289.362 159.852c-.049 1.035.284 4.377-.633 4.999-.493.338-2.171.081-2.815.086-.836.011-1.667.011-2.503 0-1.844-.032-3.726-.07-5.56-.284-.514-.059-1.104-.086-1.565-.338-.735-.402-1.072-1.722-1.024-2.559.048-.837.37-1.743.541-2.564.124-.59.14-1.792.483-2.28.783-1.121 2.311-.826 3.463-.815 3.249.021 6.492.048 9.741.07a206.717 206.717 0 0 1-.134 3.69l.006-.005ZM266.062 108.805c-2.723.553-5.758.821-8.385 1.738-1.629.569-2.192 1.942-2.734 3.46-1.79 5.016-2.691 10.3-2.777 15.616-.005.418.643.418.654 0v-.032c2.22-.703 4.439-1.417 6.567-2.361 1.384-.611 3.088-1.121 3.314-2.794.348-2.591.364-5.145.991-7.714.628-2.58 1.561-5.059 2.735-7.435a.33.33 0 0 0-.37-.478h.005Z" fill="#123B68"/><path d="M265.639 110.897c-1.726 2.168-2.622 4.737-2.965 7.468-.23 1.823-.053 3.642-.204 5.455-.112 1.32-.965 1.314-2.112 1.717-.89.311-1.78.633-2.664.96a159.823 159.823 0 0 0-3.817 1.464c-.617.247-.955.687-1.33.065-.681-1.132-.166-3.739-.037-5.016.369-3.637 1.415-7.129 3.345-10.251.22-.36-.343-.687-.563-.327-2.664 4.313-3.672 9.35-3.581 14.376.01.574-.199 1.883.482 2.237.569.295 1.335-.242 1.861-.451a178.954 178.954 0 0 1 8.861-3.24.339.339 0 0 0 .242-.316c-.113-4.726-.145-9.79 2.954-13.679.257-.327-.199-.789-.461-.462h-.011ZM289.432 157.068c0-.172-.151-.333-.327-.328-3.823.199-7.608-.257-11.393-.751-.413-.053-.413.601 0 .655 2.311.3 4.627.606 6.954.74.632.038 1.265.065 1.903.07.279 0 1.678-.161 1.903-.027.643.386.311 2.462.316 3.122v1.583c0 .316.156 1.63 0 1.898-.343.612-2.841.494-3.576.515-2.546.076-5.082-.214-7.591-.616-.413-.065-.584.563-.171.627 3.554.569 7.339 1.035 10.909.349 1.03-.199 1.062-.504 1.078-1.507.038-2.109-.005-4.222-.011-6.336l.006.006Z" fill="#fff"/><path d="M449.514-3.93c-2.326-5.177-3.157-6.823-9.87-10.76-2.562-1.503-5.87-1.835-8.438-.35-1.791 1.041-3.335 2.388-5.72 4.34-4.482 3.686-53.15 48.236-95.514 87.24 4.214 3.153 7.924 7.043 11.044 11.35 48.55-36.514 106.027-79.504 108.691-82.395 2.45-2.671 1.298-6.12-.187-9.425h-.006Z" fill="url(#c)" stroke="#123B68" stroke-width="2.71" stroke-miterlimit="10"/><path d="M219.608 179.158c-.182.155-.37.316-.552.477-10.84 9.35-20.05 20.545-27.272 32.926-9.366 16.061-15.268 34.009-17.734 52.425a84.12 84.12 0 0 0-.258 2.092c-.032.236-.064.472-.086.708 1.561-.472 3.115-.955 4.675-1.437.033-.237.07-.473.097-.714a146.023 146.023 0 0 1 5.189-23.265c5.227-16.752 13.65-32.502 24.876-45.998a124.842 124.842 0 0 1 12.196-12.724 192.232 192.232 0 0 1-1.131-4.485v-.005Z" fill="#B4E2FA"/><path d="M187.629 86.619s-4.659.043-6.68.654c-2.021.612-4.262 1.31-4.835.832-.574-.478-1.035-2.833.734-3.514 1.769-.681 5.667-1.421 8.642-.633 2.976.789 3.415 2.403 2.139 2.666v-.005ZM160.797 86.828s3.281.45 4.519 1.201c1.239.757 2.611 1.61 3.163 1.208.553-.403 1.609-2.597.563-3.396-1.04-.8-3.57-1.84-5.913-1.352-2.348.488-3.152 1.98-2.332 2.339ZM169.53 94.912c-.236-.274-.606-.397-.927-.177-.274.182-.413.654-.177.928 1.206 1.39.724 3.299-.477 4.511-.628.633-1.528.95-2.097 1.642-.584.713-.686 1.872.097 2.489.675.531 1.978.069 1.421-.467-1.164-1.11.219-1.706.466-1.872a6.278 6.278 0 0 0 1.909-1.92c.975-1.545 1.024-3.713-.215-5.14v.006ZM166.748 97.106c-.332 1.797-1.555 3.068-2.707 2.832-1.137-.236-1.228-1.85-.89-3.6.338-1.737.97-2.992 2.101-2.805 1.132.188 1.828 1.787 1.496 3.573ZM183.132 96.146c-.311 1.952-2.236 3.336-3.614 3.084-1.356-.252-1.635-1.995-1.319-3.889.317-1.883 1.105-3.245 2.451-3.052 1.367.198 2.787 1.92 2.482 3.862v-.005Z" fill="#123B68"/><path d="M272.952 136.946c-.654-1.271-1.78-2.789-3.163-3.32-1.212-.461-2.734-.097-3.228 1.207-.278.729-.171 1.443.118 2.113.445 1.17 1.432 2.237 2.343 2.972 1.035.842 2.52 1.502 3.721.574 1.152-.89.783-2.43.209-3.551v.005Z" fill="#F6AB69"/><path d="M223.64 195.133a.809.809 0 0 1-.772-.548 171.21 171.21 0 0 1-3.142-10.326 170.21 170.21 0 0 1-1.147-4.517 164.468 164.468 0 0 1-2.906-15.298.818.818 0 0 1 .193-.66.876.876 0 0 1 .654-.301c.381 0 .686.269.74.649.708 5 1.651 10.016 2.809 14.913a162.943 162.943 0 0 0 4.337 15.047.782.782 0 0 1-.096.708.826.826 0 0 1-.676.333h.006Z" fill="#123B68"/><path d="M146.328 146.849a.848.848 0 0 1-.762-.499.776.776 0 0 1 .134-.842 146.787 146.787 0 0 1 12.459-12.499.756.756 0 0 1 .504-.198c.317 0 .612.214.73.531a.837.837 0 0 1-.226.928 142.7 142.7 0 0 0-12.25 12.305.788.788 0 0 1-.595.274h.006Z" fill="#013B83"/><path d="M268.212 173.257a.886.886 0 0 1-.348-.075 67.701 67.701 0 0 0-25.433-6.142.804.804 0 0 1-.778-.842.774.774 0 0 1 .783-.778 69.547 69.547 0 0 1 26.162 6.319c.338.156.51.499.435.853a.852.852 0 0 1-.821.67v-.005ZM136.763 269.481a.839.839 0 0 1-.675-.332.765.765 0 0 1-.102-.698 135.922 135.922 0 0 1 15.879-33.06.8.8 0 0 1 .671-.364c.305 0 .6.171.739.439a.772.772 0 0 1-.042.794 134.367 134.367 0 0 0-15.703 32.669.8.8 0 0 1-.772.563l.005-.011Z" fill="#123B68"/><path d="M199.606 271.353c-1.035-2.199-1.233-6.426-1.463-9.993-6.235 1.995-12.54 3.782-18.872 5.45-5.843 1.556-11.708 3.009-17.579 4.463-2.208.547-4.449 1.1-6.712 1.658a549.65 549.65 0 0 1-11.708 2.746 263.191 263.191 0 0 1-7.023 1.448c-2.172.419-4.332.794-6.471 1.127.67 2.516 2.219 8.234 2.863 10.648a197.61 197.61 0 0 0 6.856-1.191 228.553 228.553 0 0 0 7.088-1.48 564.82 564.82 0 0 0 11.381-2.602 757.599 757.599 0 0 0 24.109-6.148c1.764-.482 3.533-.97 5.297-1.459 4.241-1.18 8.471-2.43 12.668-3.776-.15-.295-.284-.585-.429-.885l-.005-.006Z" fill="#F37E4C" stroke="#123B68" stroke-width="2.71" stroke-linejoin="round"/><path d="M182.558 278.901a754.178 754.178 0 0 1-24.109 6.148c-.343-1.132-.643-2.28-.97-3.428-.686-2.42-2.129-7.049-2.793-9.473 2.262-.553 4.503-1.111 6.712-1.658 5.87-1.454 11.735-2.908 17.579-4.463 1.12 3.481 2.782 9.275 3.581 12.874ZM146.992 287.435c-.541.124-1.077.242-1.613.36-1.818.397-3.64.767-5.474 1.121-.911-2.532-2.514-7.258-3.19-9.859-.3-.961-.595-1.926-.874-2.886 2.332-.446 4.681-.934 7.023-1.449 1.024 3.541 2.954 9.216 4.128 12.713Z" fill="#F6AB69" stroke="#123B68" stroke-width="2.71" stroke-miterlimit="10"/><path d="M246.629 218.161c1.131 1.744 5.157 7.934 6.374 9.619.032.08.059.16.096.241 1.11 2.403 3.185 4.699 4.836 6.807 3.394 4.34 7.168 7.178 11.596 10.616 2.15 1.674 4.45 3.186 6.9 4.447 1.93.998 4.718 2.623 6.991 2.242 2.305-.386 3.243-2.757 4.149-4.5 1.4-2.704 2.729-5.445 3.903-8.245 2.3-5.531 3.855-9.972 4.15-15.975.321-6.695-.252-13.486-.686-20.191-.435-6.652-.949-13.293-1.357-19.934-.284-4.72-.691-9.425-1.024-14.129-.654-9.275-1.024-18.523.376-27.717h-14.888c-.783 9.076-.445 18.018-1.887 26.918a68.515 68.515 0 0 1-.708 3.685c-1.26 5.579-3.19 10.98-4.396 16.57 0 0-4.525 18.957-3.973 40.355" stroke="#123B68" stroke-width="2.41" stroke-linecap="round" stroke-linejoin="round"/><path d="m191.532 179.303-3.517 4.581a.125.125 0 0 0-.032.064.214.214 0 0 0 .032.188l.006.005a6.5 6.5 0 0 0 2.407 1.77c.96.408 2.053.569 3.099.472a.189.189 0 0 0 .155-.134c.011-.027.011-.053.011-.08v-.006l-.37-6.233v-.011c-.022-.45-.3-.842-.724-.97-.391-.118-.804.032-1.072.343m-4.723-2.044c-.081-.021-.172.038-.204.134v.006c-.429 1.641-.322 3.288.214 4.709v.006c.017.043.049.08.092.096.064.022.134 0 .171-.059l2.756-3.717a.179.179 0 0 0 .032-.065c.032-.107-.016-.214-.107-.241l-2.96-.869h.006Zm8.921 2.618a.219.219 0 0 0-.268.15c-.011.027-.011.059-.011.086l.338 5.332a.225.225 0 0 0 .144.198.234.234 0 0 0 .161 0h.011c1.64-.842 3.034-2.328 3.774-4.286v-.01a.225.225 0 0 0-.15-.29l-3.999-1.175v-.005Zm-2.054-8.374h-.01c-2.488.059-4.788 1.518-6.107 3.664-.01.016-.016.038-.021.054-.032.102.016.203.102.225l3.597.928h.011a.186.186 0 0 0 .182-.086l.563-.762c.815-1.153 1.388-2.317 1.726-3.438l.107-.349c.038-.112-.021-.22-.123-.241h-.027m2.15.59-.112.359c-.376 1.154-.558 2.446-.504 3.857l.059.966c0 .07.042.129.101.161 0 0 .011 0 .017.005 0 0 .01 0 .021.005l4.68 1.207a.26.26 0 0 0 .306-.166c.011-.021.011-.048.011-.07-.022-2.977-1.705-5.514-4.279-6.496h-.01c-.011 0-.016 0-.027-.005-.113-.022-.231.059-.268.177" fill="url(#d)"/><mask id="e" style="mask-type:luminance" maskUnits="userSpaceOnUse" x="186" y="171" width="15" height="16"><path d="m191.532 179.303-3.517 4.581a.125.125 0 0 0-.032.064.214.214 0 0 0 .032.188l.006.005a6.5 6.5 0 0 0 2.407 1.77c.96.408 2.053.569 3.099.472a.189.189 0 0 0 .155-.134c.011-.027.011-.053.011-.08v-.006l-.37-6.233v-.011c-.022-.45-.3-.842-.724-.97-.391-.118-.804.032-1.072.343m-4.723-2.044c-.081-.021-.172.038-.204.134v.006c-.429 1.641-.322 3.288.214 4.709v.006c.017.043.049.08.092.096.064.022.134 0 .171-.059l2.756-3.717a.179.179 0 0 0 .032-.065c.032-.107-.016-.214-.107-.241l-2.96-.869h.006Zm8.921 2.618a.219.219 0 0 0-.268.15c-.011.027-.011.059-.011.086l.338 5.332a.225.225 0 0 0 .144.198.234.234 0 0 0 .161 0h.011c1.64-.842 3.034-2.328 3.774-4.286v-.01a.225.225 0 0 0-.15-.29l-3.999-1.175v-.005Zm-2.054-8.374h-.01c-2.488.059-4.788 1.518-6.107 3.664-.01.016-.016.038-.021.054-.032.102.016.203.102.225l3.597.928h.011a.186.186 0 0 0 .182-.086l.563-.762c.815-1.153 1.388-2.317 1.726-3.438l.107-.349c.038-.112-.021-.22-.123-.241h-.027m2.15.59-.112.359c-.376 1.154-.558 2.446-.504 3.857l.059.966c0 .07.042.129.101.161 0 0 .011 0 .017.005 0 0 .01 0 .021.005l4.68 1.207a.26.26 0 0 0 .306-.166c.011-.021.011-.048.011-.07-.022-2.977-1.705-5.514-4.279-6.496h-.01c-.011 0-.016 0-.027-.005-.113-.022-.231.059-.268.177" fill="#fff"/></mask><g mask="url(#e)"><path d="m202.742 173.048-5.436 15.755-12.475-5.236 3.72-12.944 14.191 2.425Z" fill="url(#f)"/></g></g><defs><linearGradient id="a" x1="187.5" y1="306" x2="187.5" y2="254" gradientUnits="userSpaceOnUse"><stop stop-color="#FAE4B7"/><stop offset=".31" stop-color="#F8DA9F"/><stop offset=".82" stop-color="#F6CD7D"/></linearGradient><linearGradient id="c" x1="390.547" y1="-16" x2="390.547" y2="87.895" gradientUnits="userSpaceOnUse"><stop stop-color="#FAE4B7"/><stop offset=".43" stop-color="#F7C48B"/><stop offset=".82" stop-color="#F6AB69"/></linearGradient><linearGradient id="d" x1="186.337" y1="178.959" x2="200.41" y2="178.959" gradientUnits="userSpaceOnUse"><stop stop-color="#004096"/><stop offset="1" stop-color="#009EE7"/></linearGradient><linearGradient id="f" x1="195.241" y1="170.951" x2="191.13" y2="186.965" gradientUnits="userSpaceOnUse"><stop stop-color="#004096"/><stop offset="1" stop-color="#009EE7"/></linearGradient></defs></svg>