<svg width="105" height="62" viewBox="0 0 105 62" fill="none" xmlns="http://www.w3.org/2000/svg"><g clip-path="url(#a)"><path d="M25.296 59.548c5.646-3.98 5.678-13.547.07-21.369-5.607-7.82-14.731-10.934-20.378-6.954-5.647 3.98-5.678 13.548-.07 21.369 5.607 7.821 14.73 10.934 20.378 6.954Z" fill="#F1A65C"/><path fill-rule="evenodd" clip-rule="evenodd" d="M1.463 40.473c-.012 3.699 1.325 7.9 4.05 11.701 2.725 3.801 6.288 6.433 9.816 7.637 3.529 1.204 6.96.966 9.543-.854 2.582-1.82 3.936-4.956 3.949-8.657.012-3.699-1.325-7.9-4.05-11.701-2.725-3.801-6.288-6.433-9.816-7.637-3.529-1.204-6.96-.966-9.543.854-2.582 1.82-3.936 4.956-3.949 8.657Zm-1.461-.007c.013-4.034 1.498-7.672 4.562-9.832 3.065-2.16 7.018-2.355 10.865-1.043 3.847 1.313 7.65 4.149 10.533 8.169 2.882 4.02 4.334 8.513 4.32 12.547-.013 4.034-1.498 7.672-4.563 9.832-3.064 2.16-7.017 2.356-10.864 1.043-3.848-1.313-7.65-4.149-10.533-8.169-2.882-4.02-4.334-8.512-4.32-12.547Z" fill="#123B68"/><path d="M28.145 57.576c5.399-3.806 5.229-13.23-.379-21.052-5.607-7.821-14.53-11.076-19.929-7.27-5.398 3.805-5.229 13.23.379 21.051 5.608 7.821 14.53 11.077 19.929 7.271Z" fill="#FFD571"/><path fill-rule="evenodd" clip-rule="evenodd" d="M4.63 38.261c.066 3.646 1.452 7.818 4.181 11.625 2.73 3.806 6.248 6.475 9.7 7.734 3.454 1.26 6.764 1.09 9.21-.635 2.446-1.724 3.697-4.768 3.631-8.417-.065-3.646-1.451-7.818-4.18-11.624-2.73-3.807-6.249-6.476-9.7-7.735-3.455-1.26-6.765-1.089-9.21.635-2.447 1.725-3.698 4.768-3.632 8.417Zm-1.461.024c-.072-3.97 1.292-7.542 4.245-9.623 2.952-2.081 6.803-2.185 10.56-.814 3.763 1.373 7.51 4.242 10.388 8.256 2.878 4.015 4.38 8.466 4.452 12.44.071 3.97-1.293 7.542-4.245 9.623-2.953 2.081-6.803 2.185-10.561.814-3.762-1.373-7.509-4.242-10.387-8.256-2.879-4.015-4.38-8.466-4.452-12.44Z" fill="#123B68"/><path d="M13.867 46.16c1.16.31 2.27.136 3.293-.173.772-.231 1.511-.54 2.205-.925.765.79 1.53 1.588 2.288 2.385.493.52.992 1.04 1.485 1.562-.532.925-1.297 1.652-2.21 2.044-.76.328-.176 1.768.647 1.543 1.2-.335 2.211-1.074 2.93-2.102.35.379.707.752 1.083 1.06.714.592 1.543-.128.94-1.003-.37-.533-.816-1.028-1.27-1.51.123-.334.22-.675.298-1.042.428-2.108.052-5.952-2.658-6.743-1.057-.308-1.964.129-2.73.662-.33.225-.648.457-.978.682-.143-.142-.28-.29-.422-.431a251.699 251.699 0 0 0-3.929-3.94c-.084-.084-.175-.168-.259-.258.649-.501 1.368-.88 2.133-1.227.934-.418.233-2.173-.804-1.916-1.07.264-2.061.887-2.878 1.633-.085-.084-.169-.167-.26-.25a129.3 129.3 0 0 0-.96-.92c-.395-.373-.745-.771-1.224-.913-.577-.167-.992.399-.72 1.041.214.515.557.791.94 1.158.35.334.694.662 1.037.996l.072.07c-.48.611-.889 1.3-1.148 2.083a5.334 5.334 0 0 0 .22 3.902c.597 1.286 1.693 2.218 2.873 2.526l.006.007Zm8.707-2.962c.94 0 1.296 1.42 1.355 2.23a6.522 6.522 0 0 1-.162 1.993 204.004 204.004 0 0 0-3.034-3.233c.55-.438 1.147-.984 1.847-.99h-.006Zm-10.205-.765c-.252-1.35.396-2.456 1.07-3.317a293.43 293.43 0 0 1 4.344 4.32c-.117.057-.234.109-.35.16-1.2.502-4.525 1.665-5.057-1.163h-.007Z" fill="#123B68"/><path d="M43.365 29.506c.02-.084.026-.174.046-.258l.525-2.584-.59-.115c-.947-4.455-5.86-8.55-12.396-9.855-6.541-1.305-12.668.585-15.274 4.333l-.603-.122-.577 2.84c-1.115 5.49 4.448 11.224 12.422 12.819 7.974 1.587 15.339-1.569 16.454-7.058h-.007Z" fill="#F1A65C"/><path fill-rule="evenodd" clip-rule="evenodd" d="M15.364 20.222c2.967-3.802 9.243-5.534 15.73-4.24 6.478 1.294 11.592 5.3 12.85 9.944l.852.167-.546 2.686h.013l-.177.87c-.618 3.045-2.955 5.367-6.081 6.707-3.13 1.342-7.117 1.74-11.23.92-4.114-.822-7.638-2.718-10.001-5.156-2.361-2.435-3.611-5.473-2.993-8.518l.722-3.554.861.174Zm.279 1.54-.432 2.128c-.497 2.444.477 5.019 2.612 7.22 2.132 2.2 5.377 3.97 9.237 4.741 3.861.769 7.543.382 10.369-.83 2.63-1.128 4.461-2.939 5.103-5.154l.123-.526.012-.071v-.007c.006-.037.016-.1.03-.167l.378-1.86-.343-.067-.1-.47c-.864-4.066-5.453-8.02-11.825-9.292-6.379-1.273-12.152.612-14.532 4.034l-.273.393-.36-.072Z" fill="#123B68"/><path d="M44.403 25.792c1.114-5.488-4.448-11.228-12.423-12.82-7.975-1.59-15.343 1.568-16.457 7.057-1.114 5.488 4.448 11.228 12.423 12.82 7.975 1.591 15.343-1.568 16.457-7.057Z" fill="#FFD571"/><path fill-rule="evenodd" clip-rule="evenodd" d="M18.851 27.395c2.133 2.201 5.379 3.971 9.24 4.741 3.86.771 7.543.384 10.369-.827 2.829-1.213 4.732-3.215 5.228-5.66.496-2.443-.478-5.02-2.613-7.223-2.133-2.201-5.379-3.97-9.24-4.741-3.86-.77-7.543-.384-10.369.828-2.829 1.213-4.732 3.215-5.228 5.659-.496 2.444.478 5.02 2.613 7.223Zm-1.05 1.01c-2.361-2.436-3.611-5.474-2.993-8.519.618-3.044 2.956-5.366 6.083-6.707 3.131-1.343 7.12-1.74 11.234-.918 4.114.82 7.637 2.717 10 5.155 2.361 2.437 3.611 5.474 2.993 8.52-.618 3.044-2.956 5.366-6.083 6.707-3.131 1.342-7.12 1.739-11.234.918-4.114-.821-7.637-2.717-10-5.156Z" fill="#123B68"/><path d="M27.838 26.664c1.037-.328 1.841-.958 2.516-1.639a11.24 11.24 0 0 0 1.361-1.64c.92.18 1.848.36 2.768.547l1.803.367a4.138 4.138 0 0 1-.908 2.397c-.467.572.577 1.273 1.135.74.81-.778 1.303-1.742 1.452-2.77.428.096.862.18 1.283.211.804.07 1.16-.797.331-1.105-.506-.193-1.063-.315-1.608-.431a4.847 4.847 0 0 0-.188-.836c-.518-1.613-2.379-4.024-4.83-3.304-.96.283-1.49.997-1.88 1.71-.168.302-.324.61-.492.906l-.506-.096a238.506 238.506 0 0 0-4.687-.836c-.104-.019-.208-.032-.312-.051.305-.636.72-1.228 1.18-1.806.564-.714-.7-1.569-1.407-.92-.732.675-1.257 1.55-1.6 2.424-.104-.02-.202-.032-.305-.052l-1.129-.173c-.46-.071-.894-.174-1.335-.045-.519.154-.616.726-.143 1.035.376.244.765.276 1.213.347l1.225.193c.032 0 .058.006.09.012a5.241 5.241 0 0 0-.058 1.935c.162.945.74 1.916 1.757 2.52.992.585 2.23.707 3.287.373l-.013-.013Zm5.647-6.017c.739-.437 1.595.354 1.97.875.319.443.545.925.681 1.414-.434-.096-.862-.193-1.296-.283a99.85 99.85 0 0 0-2.405-.488c.252-.547.499-1.19 1.05-1.518Zm-8.337 4.198c-.746-.79-.688-1.838-.506-2.72.13.02.253.04.383.065 1.594.264 3.19.54 4.784.836-.065.09-.136.18-.207.27-.74.893-2.885 3.214-4.454 1.556v-.007Z" fill="#123B68"/><path d="M71.846 10.71c0-.065-.02-.13-.026-.194l-.169-1.915-.525.045c-1.841-2.906-6.918-4.7-12.694-4.198-5.776.502-10.45 3.157-11.747 6.338l-.532.046.188 2.108c.363 4.075 6.366 6.878 13.413 6.255 7.041-.617 12.461-4.423 12.092-8.498v.012Z" fill="#F1A65C"/><path fill-rule="evenodd" clip-rule="evenodd" d="M71.487 7.886c-1.08-1.46-2.863-2.585-4.999-3.305-2.327-.784-5.142-1.115-8.12-.857-2.977.259-5.69 1.074-7.84 2.251C48.553 7.056 47 8.473 46.195 10.1l-.834.07.253 2.835c.214 2.404 2.073 4.297 4.617 5.483 2.563 1.196 5.958 1.752 9.587 1.431 3.625-.317 6.868-1.458 9.18-3.082 2.293-1.611 3.79-3.799 3.573-6.202a1.373 1.373 0 0 0-.019-.147l-.006-.032-.002-.012m-.843.266h-.586a.326.326 0 0 0 .002.04l-.001-.01-.004-.021-.006-.032a1.443 1.443 0 0 1-.013-.097v-.005l-.106-1.197-.242.02-.237-.373c-.8-1.263-2.36-2.359-4.488-3.076-2.116-.714-4.727-1.029-7.526-.786-2.798.243-5.311 1.007-7.265 2.077-1.967 1.077-3.306 2.428-3.87 3.81l-.168.414-.248.02.123 1.383c.15 1.672 1.473 3.218 3.783 4.295 2.291 1.07 5.421 1.602 8.84 1.3 3.415-.3 6.402-1.37 8.469-2.822 2.083-1.464 3.112-3.216 2.96-4.887l.584-.053Zm.843-.268-.231-2.626-.827.07" fill="#123B68"/><path d="M59.74 16.387c7.044-.618 12.46-4.422 12.095-8.496-.363-4.074-6.369-6.875-13.413-6.257-7.044.619-12.459 4.423-12.095 8.497.364 4.073 6.369 6.875 13.413 6.256Z" fill="#FFD571"/><path fill-rule="evenodd" clip-rule="evenodd" d="M50.017 5.18c-2.083 1.464-3.113 3.216-2.964 4.887.15 1.67 1.473 3.216 3.784 4.294 2.291 1.069 5.421 1.603 8.838 1.303 3.417-.3 6.404-1.371 8.47-2.823 2.084-1.464 3.113-3.215 2.964-4.886-.15-1.671-1.473-3.216-3.784-4.294-2.291-1.069-5.42-1.603-8.838-1.303-3.417.3-6.403 1.371-8.47 2.823Zm-.84-1.187c2.31-1.624 5.554-2.764 9.18-3.082 3.628-.319 7.022.239 9.586 1.434 2.544 1.187 4.404 3.08 4.619 5.482.214 2.403-1.282 4.59-3.576 6.202-2.311 1.623-5.555 2.764-9.182 3.082-3.626.318-7.021-.239-9.584-1.434-2.544-1.187-4.405-3.08-4.62-5.483-.214-2.403 1.282-4.59 3.576-6.201Z" fill="#123B68"/><path d="M58.186 12.091c.79-.456 1.31-1.067 1.718-1.69.304-.47.557-.952.752-1.44.816-.077 1.627-.148 2.444-.219l1.595-.135c.168.617.11 1.273-.195 1.87-.253.502.785.766 1.122.27.492-.719.674-1.497.564-2.249.382-.026.758-.064 1.121-.128.688-.13.778-.81.02-.849-.467-.026-.96.013-1.446.051a3.422 3.422 0 0 0-.356-.546c-.817-1.016-2.937-2.295-4.818-1.26-.732.405-1.01 1.022-1.166 1.6-.065.251-.13.496-.201.74-.15.013-.299.026-.448.045-1.374.135-2.749.276-4.117.43-.09.013-.181.02-.272.033.104-.508.311-1.01.558-1.517.304-.624-.953-.945-1.394-.335a4.33 4.33 0 0 0-.765 2.045c-.09.012-.175.019-.266.032-.33.038-.655.083-.985.122-.402.051-.791.07-1.128.257-.402.219-.344.643.123.752.376.09.7.026 1.095-.02l1.07-.134c.026 0 .052 0 .078-.007.039.47.162.933.408 1.363.357.624 1.07 1.183 2.062 1.382.966.193 2.03.013 2.833-.45l-.006-.013Zm3.3-5.425c.512-.463 1.42-.096 1.854.186.37.238.674.528.9.843a118.556 118.556 0 0 0-3.28.264c.085-.438.136-.94.519-1.287l.007-.006Zm-5.978 4.744c-.81-.392-1.005-1.131-1.063-1.793l.33-.039c1.4-.16 2.801-.315 4.202-.456-.033.077-.072.154-.11.231-.41.784-1.654 2.867-3.359 2.05v.007Z" fill="#123B68"/><path d="M102.135 16.122c.032-.045.058-.09.084-.135l.901-1.305-.357-.244c.357-2.797-1.925-6.557-5.854-9.218-3.929-2.662-8.298-3.394-10.794-2.038l-.363-.244-.986 1.44c-1.906 2.777.435 7.655 5.232 10.902 4.798 3.246 10.237 3.625 12.143.848l-.006-.006Z" fill="#F1A65C"/><path fill-rule="evenodd" clip-rule="evenodd" d="M91.106 1.98c2.006.366 4.174 1.258 6.213 2.639 2.039 1.38 3.666 3.057 4.743 4.774.971 1.55 1.524 3.183 1.462 4.684l.61.418-1.059 1.534.01.01-.342.5c-1.16 1.69-3.314 2.311-5.64 2.149-2.347-.164-5.028-1.125-7.514-2.807-2.487-1.682-4.367-3.806-5.379-5.915-1.002-2.09-1.206-4.307-.046-5.998l1.394-2.037.615.414c1.386-.608 3.123-.696 4.933-.365Zm11 12.889-.122-.083.056-.44c.15-1.174-.251-2.644-1.215-4.183-.958-1.527-2.436-3.062-4.326-4.342-1.89-1.28-3.87-2.086-5.656-2.412-1.798-.329-3.328-.16-4.38.41l-.389.213-.129-.087-.577.843c-.745 1.086-.732 2.696.158 4.551.882 1.838 2.57 3.776 4.882 5.34 2.31 1.564 4.748 2.416 6.797 2.56 1.912.133 3.354-.35 4.15-1.281l.187-.26.015-.022.029-.05.015-.026.505-.731Z" fill="#123B68"/><path d="M103.606 14.33c1.909-2.774-.434-7.654-5.232-10.898C93.575.188 88.139-.192 86.23 2.582c-1.909 2.775.434 7.654 5.232 10.899 4.798 3.244 10.235 3.624 12.143.85Z" fill="#FFD571"/><path fill-rule="evenodd" clip-rule="evenodd" d="M86.992 7.543c.882 1.837 2.572 3.775 4.883 5.338 2.312 1.563 4.749 2.415 6.796 2.559 2.068.144 3.586-.432 4.332-1.517s.733-2.697-.158-4.553c-.882-1.837-2.572-3.775-4.884-5.338-2.311-1.563-4.748-2.415-6.795-2.559-2.069-.144-3.586.432-4.332 1.517s-.734 2.696.158 4.553Zm-1.32.625c-1.002-2.088-1.207-4.304-.045-5.994C86.79.484 88.944-.136 91.271.027c2.348.164 5.028 1.125 7.515 2.806 2.486 1.681 4.367 3.805 5.379 5.912 1.002 2.088 1.207 4.304.045 5.994-1.162 1.69-3.317 2.31-5.644 2.147-2.348-.164-5.029-1.125-7.515-2.806-2.487-1.681-4.367-3.805-5.379-5.912Z" fill="#123B68"/><path d="M92.734 9.95c.74.117 1.394 0 1.978-.186.44-.14.855-.314 1.231-.527.558.373 1.115.746 1.666 1.119.364.244.72.488 1.083.733a2.143 2.143 0 0 1-1.108 1.086c-.422.186.097.887.57.752.694-.205 1.219-.604 1.537-1.138.259.18.518.354.777.495.506.277.921-.109.454-.527-.285-.257-.616-.488-.946-.72a2.33 2.33 0 0 0 .058-.527c.02-1.067-.661-2.976-2.399-3.291-.68-.122-1.18.122-1.582.411-.174.122-.343.251-.512.367l-.304-.206a215.038 215.038 0 0 0-3.034-1.973c.337-.27.726-.483 1.154-.675.518-.238-.11-1.093-.707-.932a3.62 3.62 0 0 0-1.556.9c-.065-.04-.123-.078-.188-.116-.227-.142-.46-.29-.687-.43-.285-.174-.538-.36-.85-.419-.37-.064-.557.225-.317.54.188.25.434.38.706.553.247.154.5.309.746.47.02.012.039.025.052.031-.22.322-.39.675-.454 1.074-.097.585.058 1.298.584 1.941a3.429 3.429 0 0 0 2.035 1.177l.013.019Zm4.947-1.741c.57-.032.953.668 1.082 1.073.11.347.15.682.13 1.003l-.778-.54c-.48-.334-.96-.662-1.446-.983.286-.238.584-.527 1.005-.553h.007Zm-6.289-.077c-.311-.669-.045-1.24.266-1.69.078.05.156.096.233.147a279.26 279.26 0 0 1 2.905 1.877c-.065.032-.13.064-.195.09-.668.29-2.554.97-3.209-.43v.006Z" fill="#123B68"/></g><defs><clipPath id="a"><path fill="#fff" d="M0 0h105v62H0z"/></clipPath></defs></svg>