<svg width="150" height="110" viewBox="0 0 150 110" fill="none" xmlns="http://www.w3.org/2000/svg"><g clip-path="url(#a)"><path d="M147.302 89.911c.02-.18.02-.37.03-.55l.449-5.46-1.239-.1c-3.008-8.977-14.071-16.245-27.783-17.374-13.712-1.128-25.815 4.244-30.252 12.61l-1.26-.099-.49 6c-.959 11.593 11.824 22.107 28.554 23.484 16.73 1.378 31.051-6.909 32.011-18.501l-.02-.01Z" fill="#F1A65C"/><path fill-rule="evenodd" clip-rule="evenodd" d="M87.71 77.54c5.127-8.56 17.559-13.657 31.166-12.538 13.603 1.12 25.036 8.17 28.695 17.447l1.753.141-.532 6.466.035.018-.08.965c-.529 6.394-4.733 11.726-10.801 15.234-6.074 3.512-14.134 5.284-22.752 4.575-8.619-.71-16.283-3.776-21.701-8.233-5.414-4.452-8.69-10.398-8.16-16.793l.606-7.422 1.772.14Zm58.529 7.67-.753-.06-.3-.895c-2.76-8.235-13.159-15.301-26.544-16.402-13.384-1.102-24.8 4.177-28.872 11.855l-.44.83-.773-.062-.374 4.58c-.43 5.197 2.206 10.304 7.126 14.35 4.915 4.043 12.008 6.923 20.119 7.591 8.112.668 15.577-1.014 21.086-4.199 5.178-2.994 8.523-7.238 9.27-12.046l-.014-.007.11-.992c.009-.073.01-.118.012-.192.002-.061.004-.143.012-.279l.001-.019.334-4.052Z" fill="#123B68"/><path d="M148.505 81.987c.954-11.596-11.829-22.11-28.552-23.484-16.723-1.373-31.053 6.914-32.007 18.51-.954 11.596 11.829 22.11 28.552 23.483 16.723 1.374 31.053-6.913 32.007-18.51Z" fill="#FFD571"/><path fill-rule="evenodd" clip-rule="evenodd" d="M96.501 91.484c4.915 4.042 12.006 6.921 20.114 7.587 8.108.666 15.574-1.017 21.084-4.204 5.516-3.19 8.953-7.798 9.381-12.997.428-5.2-2.21-10.307-7.13-14.354-4.915-4.043-12.006-6.922-20.114-7.588-8.108-.666-15.574 1.018-21.084 4.204-5.516 3.19-8.953 7.798-9.38 12.998-.429 5.199 2.209 10.307 7.13 14.354Zm-1.817 2.208c-5.413-4.452-8.69-10.4-8.163-16.796.526-6.397 4.731-11.73 10.8-15.24 6.074-3.512 14.134-5.286 22.75-4.578 8.615.708 16.277 3.772 21.696 8.23 5.413 4.452 8.69 10.399 8.163 16.796-.526 6.397-4.731 11.73-10.8 15.24-6.074 3.512-14.134 5.285-22.75 4.578-8.615-.708-16.277-3.773-21.696-8.23Z" fill="#123B68"/><path d="M114.791 87.764c2.049-.928 3.538-2.416 4.767-3.983a24.153 24.153 0 0 0 2.389-3.715c1.939.15 3.867.3 5.806.46 1.26.1 2.519.21 3.778.319a8.631 8.631 0 0 1-1.279 5.162c-.81 1.288 1.489 2.486 2.498 1.248 1.469-1.807 2.239-3.914 2.309-6.06.899.09 1.809.16 2.678.13 1.659-.05 2.179-1.928.42-2.367-1.079-.27-2.249-.4-3.408-.51a10.46 10.46 0 0 0-.59-1.677c-1.449-3.215-5.846-7.748-10.693-5.67-1.889.808-2.818 2.415-3.438 3.973-.27.669-.52 1.338-.79 1.997-.349-.03-.709-.05-1.059-.08a534.43 534.43 0 0 0-9.814-.6l-.65-.029c.47-1.388 1.18-2.706 1.979-4.014.98-1.607-1.809-3.075-3.108-1.557-1.339 1.567-2.209 3.504-2.688 5.391-.21 0-.42-.02-.64-.03l-2.359-.09c-.959-.03-1.879-.15-2.748.22-1.03.44-1.09 1.648-.04 2.167.84.42 1.63.39 2.559.42.849.029 1.699.069 2.548.099h.18c-.11 1.338-.04 2.696.35 4.004a7.602 7.602 0 0 0 4.207 4.782c2.179.979 4.737.929 6.826-.02l.01.03Zm10.114-13.768c1.399-1.079 3.358.35 4.247 1.338a9.303 9.303 0 0 1 1.739 2.765c-.909-.09-1.818-.19-2.728-.27-1.679-.16-3.368-.299-5.047-.439.39-1.188.74-2.576 1.789-3.384v-.01Zm-16.07 10.663c-1.719-1.448-1.849-3.624-1.689-5.501.269.01.529.02.799.04 3.338.16 6.676.359 10.004.579-.12.2-.24.4-.37.599-1.299 2.017-5.127 7.328-8.744 4.283Z" fill="#123B68"/><path d="M112.303 17.982c-.15-.07-.3-.13-.45-.2l-4.447-2.156-.49 1.008c-8.535-.399-18.27 6.51-23.696 17.663-5.427 11.153-4.857 23.075.73 29.535l-.5 1.028 4.887 2.376c9.444 4.593 22.466-2.716 29.092-16.315 6.617-13.599 4.328-28.346-5.126-32.929v-.01Z" fill="#F1A65C"/><path fill-rule="evenodd" clip-rule="evenodd" d="m106.743 13.716 5.723 2.775c.051.024.106.047.18.08l.006.002c.071.03.162.07.255.113l.826.385v.056c4.782 2.69 7.647 7.78 8.572 13.729.978 6.282-.17 13.662-3.59 20.69-3.424 7.03-8.527 12.49-14.075 15.602-5.543 3.109-11.666 3.933-16.928 1.374l-6.173-3.001.726-1.494c-5.515-7.167-5.712-19.296-.33-30.356 5.38-11.06 15.048-18.389 24.093-18.482l.715-1.473Zm1.325 3.82-.278.57-.941-.043c-7.757-.363-17.061 6.004-22.343 16.86s-4.551 22.103.525 27.973l.617.713-.287.59 3.601 1.751c4.183 2.034 9.292 1.5 14.278-1.297 4.98-2.793 9.702-7.787 12.904-14.357 3.196-6.57 4.212-13.364 3.335-19-.877-5.644-3.614-9.988-7.8-12.017l-.214-.104a8.627 8.627 0 0 1-.216-.096l-.01-.005-3.171-1.538Z" fill="#123B68"/><path d="M111.166 47.327c6.618-13.598 4.325-28.342-5.121-32.93-9.446-4.589-22.469 2.715-29.087 16.313-6.618 13.598-4.325 28.341 5.121 32.93 9.447 4.588 22.469-2.715 29.087-16.313Z" fill="#FFD571"/><path fill-rule="evenodd" clip-rule="evenodd" d="M74.908 50.333c.878 5.643 3.614 9.989 7.797 12.02 4.183 2.033 9.294 1.5 14.279-1.297 4.979-2.792 9.698-7.784 12.896-14.354 3.197-6.57 4.213-13.362 3.336-18.999-.878-5.643-3.613-9.988-7.797-12.02-4.183-2.033-9.294-1.499-14.278 1.297-4.98 2.792-9.7 7.785-12.897 14.354-3.197 6.57-4.213 13.362-3.336 18.999Zm-2.827.44c-.977-6.28.17-13.66 3.59-20.688 3.421-7.029 8.522-12.487 14.07-15.599 5.543-3.108 11.667-3.932 16.93-1.375 5.262 2.556 8.396 7.877 9.372 14.152.977 6.281-.17 13.66-3.591 20.688-3.42 7.029-8.521 12.487-14.07 15.599-5.542 3.108-11.666 3.932-16.928 1.376-5.263-2.557-8.397-7.878-9.373-14.153Z" fill="#123B68"/><path d="M99.88 44.591c-.11-2.017-.88-3.764-1.799-5.302a21.674 21.674 0 0 0-2.348-3.225c.76-1.577 1.519-3.155 2.278-4.722.5-1.029 1-2.047 1.51-3.066a7.778 7.778 0 0 1 3.927 2.766c.82 1.098 2.578-.44 1.869-1.687-1.039-1.817-2.559-3.165-4.347-3.914.369-.73.729-1.468.989-2.207.5-1.418-.91-2.466-1.859-1.118-.58.819-1.07 1.757-1.539 2.696-.53-.06-1.06-.09-1.61-.06-3.177.17-8.424 2.386-8.264 7.129.06 1.857 1.11 3.155 2.229 4.183.48.44.949.879 1.419 1.318-.14.29-.28.58-.41.869a450.79 450.79 0 0 0-3.708 8.048l-.24.539c-1.02-.849-1.889-1.867-2.738-2.976-1.03-1.348-3.178.52-2.319 2.107.88 1.637 2.229 2.995 3.658 4.024-.08.18-.16.35-.23.529-.28.649-.57 1.298-.85 1.947-.339.799-.739 1.528-.709 2.376.04 1.009 1.03 1.458 1.81.74.619-.57.859-1.239 1.188-2.018.31-.709.61-1.407.92-2.116.02-.05.04-.1.07-.15 1.09.529 2.258.908 3.488 1.018a6.847 6.847 0 0 0 5.397-1.977 7.575 7.575 0 0 0 2.208-5.74l.01-.01Zm-8.295-12.99c-.45-1.527 1.39-2.706 2.509-3.135.96-.37 1.928-.539 2.888-.559-.37.729-.75 1.468-1.12 2.197-.679 1.358-1.349 2.725-2.018 4.093-.88-.719-1.929-1.458-2.269-2.606l.01.01Zm3.728 16.984c-1.789.978-3.658.37-5.177-.37.1-.22.19-.439.29-.658a506.36 506.36 0 0 1 3.758-8.218c.13.16.26.33.39.51 1.269 1.747 4.487 6.7.749 8.746l-.01-.01Z" fill="#123B68"/><path d="M44.693 19.71v-.33l.13-3.275-.89-.04C41.486 10.753 33.37 6.62 23.577 6.22c-9.794-.399-18.22 3.066-21.098 8.158l-.9-.04-.149 3.604c-.28 6.96 9.175 13 21.117 13.49 11.943.489 21.857-4.763 22.147-11.732v.01Z" fill="#F1A65C"/><path fill-rule="evenodd" clip-rule="evenodd" d="M9.91 6.91c3.895-1.534 8.65-2.325 13.724-2.119 5.074.207 9.749 1.382 13.505 3.226 3.406 1.672 6.16 3.95 7.687 6.657l1.482.066-.185 4.667v.302h-1.19l1.189.05c-.175 4.203-3.23 7.625-7.463 9.867-4.268 2.261-9.992 3.487-16.171 3.234-6.179-.253-11.784-1.942-15.854-4.542C2.6 25.74-.169 22.084 0 17.885l.21-5.04 1.497.067c1.745-2.57 4.674-4.614 8.203-6.003Zm-6.962 8.92L2.858 18c-.11 2.76 1.709 5.604 5.316 7.908 3.573 2.282 8.667 3.858 14.43 4.095 5.765.236 10.97-.92 14.716-2.904 3.77-1.997 5.815-4.675 5.943-7.43v-.317l.075-1.882-.339-.015-.364-.791c-1.04-2.255-3.371-4.418-6.756-6.08-3.362-1.65-7.64-2.742-12.361-2.935-4.72-.192-9.075.55-12.56 1.921-3.51 1.382-6.012 3.349-7.235 5.511l-.431.764-.344-.015Z" fill="#123B68"/><path d="M45.296 14.94c.284-6.964-9.17-13.004-21.116-13.49C12.235.966 2.321 6.218 2.038 13.182c-.284 6.965 9.17 13.004 21.115 13.49 11.946.485 21.86-4.767 22.143-11.731Z" fill="#FFD571"/><path fill-rule="evenodd" clip-rule="evenodd" d="M8.78 21.15c3.572 2.283 8.666 3.857 14.431 4.092 5.766.234 10.971-.922 14.717-2.907 3.783-2.004 5.827-4.69 5.94-7.453.112-2.763-1.707-5.607-5.314-7.911-3.572-2.283-8.667-3.857-14.432-4.092-5.765-.234-10.97.922-14.717 2.907-3.782 2.004-5.826 4.69-5.938 7.453-.113 2.763 1.706 5.607 5.312 7.911Zm-1.54 2.41C3.204 20.984.438 17.326.609 13.124.78 8.922 3.835 5.5 8.066 3.26 12.334.998 18.058-.23 24.24.022c6.18.25 11.785 1.939 15.855 4.538 4.035 2.578 6.802 6.236 6.63 10.438-.17 4.202-3.225 7.623-7.457 9.865-4.268 2.26-9.992 3.488-16.172 3.236-6.18-.25-11.786-1.939-15.855-4.538Z" fill="#123B68"/><path d="M21.497 19.08c1.42-.599 2.439-1.517 3.258-2.476.62-.719 1.14-1.487 1.58-2.276 1.378.05 2.757.1 4.147.16l2.698.12a4.38 4.38 0 0 1-.74 3.115c-.53.788 1.15 1.457 1.82.699.979-1.109 1.458-2.387 1.438-3.675.65.04 1.29.06 1.91.03 1.179-.07 1.488-1.198.22-1.428-.78-.14-1.62-.19-2.44-.23-.12-.339-.28-.668-.48-.998-1.138-1.897-4.426-4.523-7.794-3.175-1.32.52-1.92 1.498-2.309 2.446-.17.41-.33.81-.49 1.209-.25 0-.51-.02-.76-.02-2.328-.07-4.666-.13-7.005-.16h-.46c.29-.839.74-1.648 1.27-2.446.65-.989-1.39-1.808-2.27-.87-.899.97-1.448 2.138-1.728 3.286h-2.129c-.69 0-1.34-.05-1.949.19-.72.29-.72 1.008.04 1.298.61.23 1.17.2 1.84.2h1.948c-.03.798.07 1.617.38 2.395.47 1.139 1.529 2.227 3.158 2.776 1.579.54 3.398.46 4.857-.15l-.01-.02Zm6.726-8.456c.96-.68 2.399.14 3.068.708.57.49 1.01 1.039 1.33 1.618-.65-.04-1.3-.08-1.95-.11-1.199-.06-2.398-.11-3.607-.16.23-.719.44-1.557 1.159-2.066v.01Zm-11.063 6.71c-1.28-.84-1.44-2.137-1.39-3.256h.57c2.379.03 4.757.08 7.136.15-.08.12-.16.25-.24.37-.86 1.237-3.398 4.492-6.076 2.735Z" fill="#123B68"/></g><defs><clipPath id="a"><path fill="#fff" d="M0 0h150v110H0z"/></clipPath></defs></svg>