<svg width="54" height="54" viewBox="0 0 54 54" fill="none" xmlns="http://www.w3.org/2000/svg"><g clip-path="url(#clip0_27180_5701)"><path d="M54 27c0 14.91-12.09 27-27 27S0 41.91 0 27 12.09 0 27 0s27 12.09 27 27z" fill="#06C755"/><path d="M44.32 25.69c0-7.75-7.77-14.06-17.32-14.06S9.68 17.94 9.68 25.69c0 6.95 6.17 12.77 14.49 13.87.56.12 1.33.37 1.53.85.18.44.12 1.13.06 1.57 0 0-.2 1.22-.25 1.48-.08.44-.35 1.71 1.5.94s9.98-5.87 13.61-10.06c2.51-2.75 3.71-5.55 3.71-8.65h-.01z" fill="#fff"/><path d="M38.56 30.16h-4.87c-.18 0-.32-.15-.32-.32v-7.56c0-.18.15-.32.32-.32h4.87c.18 0 .32.15.32.32v1.23c0 .18-.15.32-.32.32h-3.31v1.27h3.31c.18 0 .32.15.32.32v1.24c0 .18-.15.32-.32.32h-3.31v1.28h3.31c.18 0 .32.15.32.32v1.23c0 .18-.13.33-.31.34h-.01v.01zm-18 0c.18 0 .32-.15.32-.32v-1.23c0-.18-.15-.32-.32-.32h-3.31v-6.01c0-.18-.15-.32-.32-.32H15.7c-.18 0-.32.15-.32.32v7.55c0 .18.15.32.32.32h4.87l-.01.01zm2.93-8.22h-1.23a.33.33 0 00-.33.33v7.56c0 .182.147.33.33.33h1.23a.33.33 0 00.33-.33v-7.56a.33.33 0 00-.33-.33zm8.36 0h-1.23c-.18 0-.32.15-.32.32v4.49l-3.46-4.67-.03-.03-.02-.02h-.02v-.01h-.02v-.01h-1.39c-.18 0-.32.15-.32.32v7.56c0 .18.15.32.32.32h1.23c.18 0 .32-.15.32-.32v-4.53l3.46 4.68s.05.06.08.08h.02v.01h.07s.06.01.09.01h1.22c.18 0 .32-.15.32-.32v-7.54c0-.18-.14-.33-.32-.33v-.01z" fill="#06C755"/></g><defs><clipPath id="clip0_27180_5701"><path fill="#fff" d="M0 0h54v54H0z"/></clipPath></defs></svg>