<?xml version="1.0" encoding="UTF-8"?>
<svg id="_圖層_1" data-name="圖層_1" xmlns="http://www.w3.org/2000/svg" version="1.1" viewBox="0 0 22 22">
  <!-- Generator: Adobe Illustrator 29.7.1, SVG Export Plug-In . SVG Version: 2.1.1 Build 8)  -->
  <defs>
    <style>
      .st0 {
        fill: #0154b7;
      }
    </style>
  </defs>
  <path class="st0" d="M11,12.5c1.3,0,2.6-.4,3.7-1.1.8-.5,1.8-.4,2.5.2,2,1.8,3.1,4.3,3,6.9v1.1c0,1.2-.9,2.1-2.1,2.1,0,0,0,0,0,0H3.8c-1.2,0-2.1-.9-2.1-2.1,0,0,0,0,0,0v-1.1c0-2.6,1.1-5.1,3-6.9.7-.6,1.7-.7,2.5-.2,1.1.7,2.4,1.1,3.8,1.1Z"/>
  <circle class="st0" cx="11" cy="5.4" r="5.2"/>
</svg>