<svg id="圖層_1" data-name="圖層 1" xmlns="http://www.w3.org/2000/svg" xmlns:xlink="http://www.w3.org/1999/xlink" viewBox="0 0 745.68 95.55"><defs><style>.cls-1{fill:none;}.cls-2{clip-path:url(#clip-path);}.cls-3{fill:url(#未命名漸層_2);}.cls-4{fill:#005bac;}</style><clipPath id="clip-path" transform="translate(-76.5 -102.53)"><path class="cls-1" d="M118,154.08l-15.33,37.33h0a1.35,1.35,0,0,0-.1.5,1.33,1.33,0,0,0,.67,1.16l.06,0a48.15,48.15,0,0,0,42.57,0h0a1.35,1.35,0,0,0,.71-1.18,1.39,1.39,0,0,0-.1-.5s0,0,0,0l-15.09-36.78,0-.06a7.32,7.32,0,0,0-13.38-.48M77.84,150a1.33,1.33,0,0,0-1.34,1.32v0a47.93,47.93,0,0,0,12.85,31.39l0,0a1.31,1.31,0,0,0,1,.4,1.34,1.34,0,0,0,1.24-.83l12.52-30.5h0v0a1.35,1.35,0,0,0-1.25-1.83Zm68.53,0a1.34,1.34,0,0,0-1.34,1.34,1.31,1.31,0,0,0,.11.52l12.52,30.51a1.34,1.34,0,0,0,2.17.44l0,0a48,48,0,0,0,12.85-31.36v-.06h0a1.34,1.34,0,0,0-1.34-1.34Zm-30.15-47.41h-.06A48.2,48.2,0,0,0,79,134.42s0,0,0,0a1.45,1.45,0,0,0-.06.41,1.34,1.34,0,0,0,1.34,1.34h29.4a1.34,1.34,0,0,0,1.13-.83h0l2.32-5.66a64.85,64.85,0,0,0,4.57-23.57h0v-2.26a1.34,1.34,0,0,0-1.34-1.34h-.18m15.26,1.33v2.26h0a65.63,65.63,0,0,0,4.57,23.59l2.32,5.65a1.35,1.35,0,0,0,1,.79h0l.12,0h29.44a1.34,1.34,0,0,0,1.34-1.34,1.4,1.4,0,0,0-.06-.41h0a48.19,48.19,0,0,0-37.13-31.88h-.24a1.34,1.34,0,0,0-1.34,1.34"/></clipPath><linearGradient id="未命名漸層_2" x1="97.88" y1="521.87" x2="99.25" y2="521.87" gradientTransform="matrix(0, 70.05, 70.05, 0, -36510.1, -6857.01)" gradientUnits="userSpaceOnUse"><stop offset="0" stop-color="#004098"/><stop offset="1" stop-color="#00a0e9"/></linearGradient></defs><title>yuanta_logo</title><g class="cls-2"><rect class="cls-3" width="96.24" height="95.55"/></g><path class="cls-4" d="M213.93,114.3h60.43a.1.1,0,0,0,.1-.1v-6.72a.1.1,0,0,0-.1-.11H213.93a.11.11,0,0,0-.1.11v6.72a.11.11,0,0,0,.1.1" transform="translate(-76.5 -102.53)"/><path class="cls-4" d="M276.22,160.94a1.13,1.13,0,0,0-1.13-1.13H256a3.29,3.29,0,0,1-2.69-2.19,2,2,0,0,1-.12-.64V128.22H276a.09.09,0,0,0,.1-.1v-6.72a.09.09,0,0,0-.1-.1H212.44a.1.1,0,0,0-.1.1v6.72a.1.1,0,0,0,.1.1h20L212.83,164.9a1,1,0,0,0,0,.1,1,1,0,0,0-.09.44,1.12,1.12,0,0,0,1.13,1.13h6.31a.12.12,0,0,0,.09,0s20.48-38.2,20.53-38.31h5.17v28.62a9.58,9.58,0,0,0,9.32,9.76l14.45,0a6.63,6.63,0,0,0,6.5-5.45h0a1,1,0,0,0,0-.17" transform="translate(-76.5 -102.53)"/><path class="cls-4" d="M361.68,122.42a1.13,1.13,0,0,0-1.13-1.13H330.61V105.74a.11.11,0,0,0-.11-.11h-7.11a.11.11,0,0,0-.1.11v15.55H295.78a.09.09,0,0,0-.1.1v6.67a.1.1,0,0,0,.1.1h25.48c-.19.28-21.19,29.35-26.44,36.62a.83.83,0,0,0-.08.12,1.09,1.09,0,0,0-.14.54,1.13,1.13,0,0,0,1.13,1.13h6.41a.12.12,0,0,0,.08,0l22.71-31.2a2.55,2.55,0,0,1,4.38.07L352,166.53a.13.13,0,0,0,.09,0h6.41a1.13,1.13,0,0,0,1.12-1.13,1.18,1.18,0,0,0-.21-.66s0,0,0,0c-5.3-7.32-26.23-36.3-26.43-36.58H355a6.8,6.8,0,0,0,6.67-5.57h0s0-.1,0-.15" transform="translate(-76.5 -102.53)"/><path class="cls-4" d="M444.16,144.82a1.13,1.13,0,0,0-.79-1.94h-5.82a.09.09,0,0,0-.07,0L433.63,147l-5.28-9h8.89a2.63,2.63,0,0,0,.36,0,7.77,7.77,0,0,0,5.23-2.06,6.84,6.84,0,0,0,2.29-5.23v-16a6.89,6.89,0,0,0-2.29-5.22,7.77,7.77,0,0,0-5.23-2.06H412.19a.11.11,0,0,0-.1.1v6.73c0,.26,0,.42,0,.44v51.73a.09.09,0,0,0,0,.07.11.11,0,0,0,.07,0h6.45a12.93,12.93,0,0,0,1.89-.22c3.37-.61,6.78-3.93,6.78-3.93.17-.16.81-.84,3.64-3.79l.95-1,5.21,8.89a.09.09,0,0,0,.08,0h5.94a1.12,1.12,0,0,0,1.13-1.13,1.11,1.11,0,0,0-.16-.57l-7.26-12.41ZM418.7,113.69h18.85a1,1,0,0,1,.7.27.9.9,0,0,1,.27.71v5.07H418.7Zm0,12.26h19.82v4.83a.89.89,0,0,1-.27.72,1.07,1.07,0,0,1-.7.27H418.7Zm0,36.83V138h1.68l8.33,14.21Z" transform="translate(-76.5 -102.53)"/><path class="cls-4" d="M410.48,130.79l-4.71-18.36c0-.16-.08-.32-.13-.5l-.09-.35a.12.12,0,0,0-.05-.07,6.37,6.37,0,0,0-5.92-4H382.2a.15.15,0,0,0-.07,0,.11.11,0,0,0,0,.08v6.23a.14.14,0,0,0,0,.06l-4.34,16.91h0a1.36,1.36,0,0,0,0,.29,1.12,1.12,0,0,0,1.12,1.12h5a.1.1,0,0,0,.1-.07l1.21-4.72h5.65v9.73h-9.44a.1.1,0,0,0-.11.1v6.15a.11.11,0,0,0,.11.1h9.44v16.87h-.47l-2.84-11.21a.09.09,0,0,0-.09-.08h-4.73a1.13,1.13,0,0,0-1.12,1.13,1.12,1.12,0,0,0,0,.27h0l2.51,9.89h-3.83a.1.1,0,0,0-.1.11v6a.1.1,0,0,0,.1.1h22.2a6.38,6.38,0,0,0,6.33-4.85h0a1.64,1.64,0,0,0,0-.22,1.13,1.13,0,0,0-1.13-1.13h-3.47l2.5-9.88h0a1.27,1.27,0,0,0,0-.28,1.13,1.13,0,0,0-1.12-1.13h-4.72a.1.1,0,0,0-.1.08L398,160.35h-.51V143.48H407a.11.11,0,0,0,.1-.1v-6.15a.1.1,0,0,0-.1-.1h-9.49V127.4h5.58l1.21,4.72a.1.1,0,0,0,.09.07h5a1.12,1.12,0,0,0,1.12-1.13,1.24,1.24,0,0,0,0-.27Zm-23.68-9.74,1.84-7.14h11l1.83,7.14Z" transform="translate(-76.5 -102.53)"/><path class="cls-4" d="M487.64,114.34H528.9a.11.11,0,0,0,.1-.1v-6.19a.11.11,0,0,0-.1-.1H487.64a.11.11,0,0,0-.11.1v6.19a.11.11,0,0,0,.11.1" transform="translate(-76.5 -102.53)"/><path class="cls-4" d="M461.9,127.81h6a.08.08,0,0,0,.07,0c3.25-3.89,10.81-13,15.61-18.74a.35.35,0,0,0,.05-.08,1.09,1.09,0,0,0,.21-.64,1.12,1.12,0,0,0-1.13-1.13H476.6a.08.08,0,0,0-.07,0L461,126a1.15,1.15,0,0,0-.26.72,1.14,1.14,0,0,0,1.13,1.13" transform="translate(-76.5 -102.53)"/><path class="cls-4" d="M483.22,122.51h-6.08a.12.12,0,0,0-.08,0l-15.47,18.73a1.05,1.05,0,0,0-.28.73,1.12,1.12,0,0,0,1.13,1.13h6a.11.11,0,0,0,.08,0l3-3.56v26.92a.1.1,0,0,0,.11.1h6.52a.09.09,0,0,0,.1-.1v-35l5.92-7.13,0,0a1.09,1.09,0,0,0,.22-.66,1.14,1.14,0,0,0-1.13-1.13" transform="translate(-76.5 -102.53)"/><path class="cls-4" d="M530.15,123.64a1.14,1.14,0,0,0-1.13-1.13H487.6a.1.1,0,0,0-.1.1v6.24a.11.11,0,0,0,0,.07.09.09,0,0,0,.07,0H513c0,8,0,30.68,0,30.69,0,.63-.55.92-1.36.92h-12a1.14,1.14,0,0,0-1.13,1.13,1,1,0,0,0,0,.17v0a6.37,6.37,0,0,0,6.32,4.87H512a8.24,8.24,0,0,0,5.43-2.12,7.17,7.17,0,0,0,2.23-5.3h0V129h4.1a6.4,6.4,0,0,0,6.33-5.1h0a1.23,1.23,0,0,0,0-.19" transform="translate(-76.5 -102.53)"/><path class="cls-4" d="M254.61,192.73a8.41,8.41,0,0,1-5.58-1.87,5.29,5.29,0,0,1-1.85-4,4.76,4.76,0,0,1,1.9-3.92,8.44,8.44,0,0,1,5.65-1.93,6.93,6.93,0,0,1,5.06,1.91l.43.46v-1.95a.05.05,0,0,1,0-.05h2.83a0,0,0,0,1,0,.05v10.87a0,0,0,0,1,0,.05h-2.83a.05.05,0,0,1,0-.05v-.09a.88.88,0,0,0-.85-.82.76.76,0,0,0-.42.12h0a8.39,8.39,0,0,1-4.31,1.2m.74-2.16a5.2,5.2,0,0,0,3.82-1.41,3.28,3.28,0,0,0,.94-2.31,3.21,3.21,0,0,0-.93-2.26,5.2,5.2,0,0,0-3.77-1.41h-.13a5.32,5.32,0,0,0-3.91,1.45,3.35,3.35,0,0,0-1,2.35,3,3,0,0,0,.89,2.1,5.49,5.49,0,0,0,3.93,1.49h.12Z" transform="translate(-76.5 -102.53)"/><path class="cls-4" d="M298.62,192.73a8.42,8.42,0,0,1-5.59-1.87,5.29,5.29,0,0,1-1.85-4,4.76,4.76,0,0,1,1.9-3.92,8.44,8.44,0,0,1,5.65-1.93,6.93,6.93,0,0,1,5.06,1.91l.44.46v-1.95a0,0,0,0,1,0-.05h2.83a0,0,0,0,1,0,.05v10.87a0,0,0,0,1,0,.05h-2.83a0,0,0,0,1,0-.05v-.09a.89.89,0,0,0-.86-.82.79.79,0,0,0-.42.12h0a8.35,8.35,0,0,1-4.3,1.2m.73-2.16a5.2,5.2,0,0,0,3.82-1.41,3.28,3.28,0,0,0,.94-2.31,3.21,3.21,0,0,0-.93-2.26,5.18,5.18,0,0,0-3.77-1.41h-.12a5.32,5.32,0,0,0-3.92,1.45,3.35,3.35,0,0,0-1,2.35,3,3,0,0,0,.9,2.1,5.45,5.45,0,0,0,3.92,1.49h.12Z" transform="translate(-76.5 -102.53)"/><path class="cls-4" d="M236.86,192.73a7.76,7.76,0,0,1-4.93-1.54,4.4,4.4,0,0,1-1.56-3.57v-6.18a0,0,0,0,1,0-.05h3.1a.05.05,0,0,1,0,.05v5.33a3.3,3.3,0,0,0,3.83,3.8c3.92,0,3.92-2.86,3.92-3.8v-5.33a0,0,0,0,1,.05-.05h3.1a0,0,0,0,1,.05.05v10.87a0,0,0,0,1-.05.05h-2.75a0,0,0,0,1-.05-.05.73.73,0,0,0-.72-.75.68.68,0,0,0-.36.1,6.34,6.34,0,0,1-3.73,1.07" transform="translate(-76.5 -102.53)"/><path class="cls-4" d="M277.19,192.36a0,0,0,0,1-.05-.05V187a3.3,3.3,0,0,0-3.83-3.8c-3.93,0-3.93,2.86-3.93,3.8v5.33a0,0,0,0,1,0,.05h-3.1a0,0,0,0,1-.05-.05V181.44a0,0,0,0,1,.05-.05H269a0,0,0,0,1,.05.05.74.74,0,0,0,.72.75.64.64,0,0,0,.35-.1,6.39,6.39,0,0,1,3.74-1.07,7.76,7.76,0,0,1,4.93,1.54,4.4,4.4,0,0,1,1.56,3.57v6.18a0,0,0,0,1,0,.05Z" transform="translate(-76.5 -102.53)"/><path class="cls-4" d="M284.48,192.36a0,0,0,0,1-.05-.05v-9h-1.78a0,0,0,0,1,0-.05v-1.81a0,0,0,0,1,0-.05h1.78v-3.8a0,0,0,0,1,.05,0h3.14s.05,0,.05,0v3.8h2.2a0,0,0,0,1,.05.05v1.81a0,0,0,0,1-.05.05h-2.2v9a.05.05,0,0,1-.05.05Z" transform="translate(-76.5 -102.53)"/><path class="cls-4" d="M219.44,192.36a0,0,0,0,1,0-.05v-5.44l-7-8.72,0,0h0l0-.05a.4.4,0,0,1,0-.15.37.37,0,0,1,.32-.37H216c.22.29,2.37,2.94,4,4.91h0a1.65,1.65,0,0,0,2.52.12c.57-.71,3.78-4.68,4.06-5h3.34a.38.38,0,0,1,.32.37.41.41,0,0,1-.05.18l0,0h0l-7,8.72v5.44a0,0,0,0,1-.05.05Z" transform="translate(-76.5 -102.53)"/><path class="cls-4" d="M346.61,192.74a8.39,8.39,0,0,1-5.58-1.87,5.28,5.28,0,0,1-1.86-4,4.76,4.76,0,0,1,1.91-3.92,8.43,8.43,0,0,1,5.64-1.94,6.88,6.88,0,0,1,5.06,1.92l.44.45v-1.95a0,0,0,0,1,0,0h2.83s0,0,0,0v10.88a.05.05,0,0,1,0,.05h-2.83a0,0,0,0,1,0-.05v-.09a.88.88,0,0,0-.85-.82.76.76,0,0,0-.42.12h0a8.24,8.24,0,0,1-4.3,1.21m.68-9.56a5.33,5.33,0,0,0-3.92,1.46,3.33,3.33,0,0,0-1,2.35,3,3,0,0,0,.89,2.1,5.5,5.5,0,0,0,3.93,1.49h.12a5.19,5.19,0,0,0,3.82-1.42,3.28,3.28,0,0,0,.94-2.3,3.21,3.21,0,0,0-.93-2.26,5.21,5.21,0,0,0-3.78-1.42Z" transform="translate(-76.5 -102.53)"/><path class="cls-4" d="M369.09,192.36a0,0,0,0,1,0-.05V187a3.3,3.3,0,0,0-3.83-3.8c-3.92,0-3.92,2.86-3.92,3.8v5.33a.05.05,0,0,1-.05.05h-3.1a0,0,0,0,1-.05-.05V181.44a0,0,0,0,1,.05-.05h2.75a0,0,0,0,1,.05.05.74.74,0,0,0,.72.75.64.64,0,0,0,.35-.1,6.39,6.39,0,0,1,3.74-1.07,7.76,7.76,0,0,1,4.93,1.54,4.4,4.4,0,0,1,1.56,3.57v6.18a0,0,0,0,1-.05.05Z" transform="translate(-76.5 -102.53)"/><path class="cls-4" d="M324.42,192.36h-2.29a0,0,0,0,1-.05,0v-11a3.63,3.63,0,0,1,1.39-2.77,4.68,4.68,0,0,1,3.33-1h4.47c3.46,0,5.6,1.41,5.6,3.67a3.76,3.76,0,0,1-2.32,3.16,4,4,0,0,1,2.7,3.57,3.83,3.83,0,0,1-1.73,3.24,7.72,7.72,0,0,1-4.21,1.18s0,0,0,0Zm1.26-2.49h5.58c1.67-.05,2.93-1,2.93-2.13s-1.2-1.91-2.93-2h-5.58Zm5.73-6.76h0c1.53-.09,2.64-.79,2.64-1.67s-.91-1.61-2.64-1.69h-4.53v0h0a1.29,1.29,0,0,0-1.19,1.15v2.2Z" transform="translate(-76.5 -102.53)"/><path class="cls-4" d="M375.09,192.36a0,0,0,0,1,0-.05V177.1a0,0,0,0,1,0,0h3.06a0,0,0,0,1,.05,0v9.37l6.46-5.49h4a.37.37,0,0,1,.38.37.37.37,0,0,1-.14.28l-4.95,4.21a1.1,1.1,0,0,0-.34.79,1.09,1.09,0,0,0,.28.73l5,4.35h0a.36.36,0,0,1,.12.28.38.38,0,0,1-.37.37h-4l-4.8-4.2h0a.92.92,0,0,0-.63-.24,1,1,0,0,0-1,1v3.41a0,0,0,0,1-.05.05Z" transform="translate(-76.5 -102.53)"/><path class="cls-4" d="M581.44,153.69c-2.19,5.31-6.25,9.5-12.11,12.59l-2-2.12c7.09-3.11,11.38-8.45,12.77-15.94H568.4v-2.58h12l.09-1.47v-4.28h2.84v4.28l-.06,1.47h12v2.58H583.64a12.69,12.69,0,0,0,.64,3.09q2.41,7.31,12.09,13.29L594,166.52l-1.69-1.21c-5.4-4-8.91-8.31-10.39-12.86Z" transform="translate(-76.5 -102.53)"/><path class="cls-4" d="M620.75,166.63h-2.49V153.27A34.69,34.69,0,0,1,607.93,155l-.56-2.41a33.84,33.84,0,0,0,13-2.44H605.46v-2.26h2.65v-5.63c0-.54.28-.8.87-.8h7.37a14.83,14.83,0,0,0,1.38-2.2l2.16,1.23-.52,1h11c.59,0,.87.26.87.8v5.63h2.37v2.26H623l.55,1.12-2.78,1.15v.08a27.89,27.89,0,0,0,5.22,6.46,30.4,30.4,0,0,0,8,4.78l-1.82,2.06a31,31,0,0,1-11.44-9.1Zm-3.51-4.52A32,32,0,0,1,606,165.84a6.24,6.24,0,0,0-.21-2.35A23,23,0,0,0,616,159.88Zm-.71-4.69a27.44,27.44,0,0,1-9.93,3.28,6.85,6.85,0,0,0-.24-2.37,20,20,0,0,0,8.93-3.15ZM615,147.87V143.7h-4c-.25,0-.37.12-.37.35v3.82Zm7,0V143.7h-4.49v4.17Zm6.73,0V144c0-.2-.09-.32-.34-.32h-3.88v4.17ZM632,153a34.34,34.34,0,0,1-5.37,4.2l-1.51-1.79a39.44,39.44,0,0,0,5.27-4.14Z" transform="translate(-76.5 -102.53)"/><path class="cls-4" d="M655.07,165.84H644.31c-.25,0-.37-.12-.37-.38V143.61c0-.23.12-.32.37-.32h3.23l1.36-3.84,2.44.85-1.05,3h4.78c.27,0,.4.09.4.32v21.85C655.47,165.72,655.34,165.84,655.07,165.84Zm-2.22-12.71v-7.25l-.16-.09h-6c-.09,0-.12,0-.12.09v7.25Zm-6.29,2.5v7.56c0,.1,0,.15.12.15h6a.14.14,0,0,0,.16-.15v-7.56Zm13.5-10a18.32,18.32,0,0,1-1.88,4l-2.56-.85a20,20,0,0,0,3.06-8.89l2.59.23-.38,2.38h8.76l.53.12.31.38c.21.5.18,4.64-.06,12.39-.16,5.55-1.39,8.95-3.61,10.19q-2.09,1.28-7.87-.27l-.09-2.93c3.27,1.08,5.43,1.35,6.45.73a4.9,4.9,0,0,0,1.75-2.23,19.66,19.66,0,0,0,.8-5.87c.22-6.23.22-9.48,0-9.78a.32.32,0,0,0-.3-.2h-7.28Zm2,3.15a93,93,0,0,1,3.61,9.59l-2.5.65a51.51,51.51,0,0,0-3.58-9.46Z" transform="translate(-76.5 -102.53)"/><path class="cls-4" d="M680.72,161.61v-2.28h20v-1.71l-18.14.53-.27-2.26,11.31-.3v-1.32h-10c-.19,0-.32-.11-.32-.35v-8.6a.3.3,0,0,1,.32-.32h10v-1.54H681.06v-2.25H693.6v-1.88h2.5v1.88h12.71v2.25H696.1V145h10.12c.25,0,.34.12.34.32v8.6c0,.24-.09.35-.34.35h-.31l.86.85a28.29,28.29,0,0,1,2.13,2.26L707,158.77l-1.14-1.33-2.68.09v1.8h5.94v2.28H703.2v2.23a2.72,2.72,0,0,1-1.33,2.41c-1.08.73-3.23.67-6.35-.18v-2.46l2.34.58,1.58.21a1.36,1.36,0,0,0,1-.38,1,1,0,0,0,.28-.8v-1.61ZM693.6,147h-7.76c-.1,0-.13,0-.1.09v1.5h7.86Zm0,3.53h-7.86v1.55l.1.12h7.76Zm-4.31,11.36a27.74,27.74,0,0,1,3.42,2.61l-1.78,1.76a21.56,21.56,0,0,0-3.34-2.46Zm6.81-13.3h8v-1.5L704,147H696.1Zm0,3.61H704l.09-.12v-1.55h-8Zm7.78,2.05H696.1v1.23l7.56-.23-.46-.44Z" transform="translate(-76.5 -102.53)"/><path class="cls-4" d="M733.93,166.55h-2.58V160a33.56,33.56,0,0,1-11.82,5.2l-1.11-2.33a33.57,33.57,0,0,0,11.2-4.45H719.35v-2h12V154.6H720.92v-2h10.43v-1.76H720.06v-2H727a29,29,0,0,0-1.38-2.61H719V144h5.43a20.37,20.37,0,0,0-2-3l2-1.26A18.18,18.18,0,0,1,726.6,143l-1.76,1h4.07v-4.57h2.41V144h2.77v-4.57h2.4V144h3.06l-1-.7a25.65,25.65,0,0,0,2.65-3.78l2,1.2A22.9,22.9,0,0,1,741,144h5.12v2.15h-7l-1,2.61h7.09v2H733.93v1.76h10.36v2H733.93v1.75h11.94v2H735.44a30.4,30.4,0,0,0,11.5,4.42l-1.35,2.24a40.68,40.68,0,0,1-11.66-5Zm1.51-17.77,1.08-2.61h-8.17l1.27,2.61Z" transform="translate(-76.5 -102.53)"/><path class="cls-4" d="M757.88,146.23l-2.25-1.47c3.34-1.91,5.56-3.82,6.57-5.58h2.38l-.16.47v0a46.43,46.43,0,0,0,4.26,3.44l-2,1.68a46.53,46.53,0,0,1-3.43-3.24A24.07,24.07,0,0,1,757.88,146.23Zm.32,9.3a26.65,26.65,0,0,1,1.57,5.52l-2.35.56a27.43,27.43,0,0,0-1.51-5.43Zm2.8-1.37h-4.59V151.9H761v-3h-3.27v-2.26h9.07v2.26h-3.3v3h4.26v2.26H763.5v8.21l3.83-1,.49,2.33c-4.51,1.14-8.2,1.9-11,2.32l-.34-2.32,4.56-.77Zm6.76,2.11a38.27,38.27,0,0,1-1.4,4.2l-2.06-.85a29.23,29.23,0,0,0,1.36-4.06Zm14.73-1.76,1.64,1.7a36.16,36.16,0,0,1-4.81,4,22.38,22.38,0,0,0,5.39,4.61l-2.22,1.68a24.67,24.67,0,0,1-4.25-3.68,14.78,14.78,0,0,1-3.7-9.27h-2.75v9.68a34.39,34.39,0,0,0,4.38-1.46l.8,2.29a44.7,44.7,0,0,1-9,2.58l-.68-2.32,2-.44V140.77c0-.47.24-.71.74-.71h12c.52,0,.77.24.77.71v12.06a.7.7,0,0,1-.8.74H777a15.52,15.52,0,0,0,1.05,4.64A32,32,0,0,0,782.49,154.51Zm-2.22-8.81v-2.82c0-.38-.21-.56-.61-.56h-7.25c-.43,0-.65.21-.62.59v2.79ZM771.79,148v3.35h7.81c.46,0,.67-.21.67-.62V148Z" transform="translate(-76.5 -102.53)"/><path class="cls-4" d="M795.62,156.91l-2.12-1.58a23.47,23.47,0,0,0,6.72-8.48l2.37,1c-.8,1.53-1.57,2.85-2.31,4v14.69h-2.62V155.09Zm5.89-16.58a21.91,21.91,0,0,1-5.58,8.16L793.71,147a18.6,18.6,0,0,0,5.34-7.57Zm2.22,9.8v-2.49h18.44v2.49h-4.81v13.18a2.79,2.79,0,0,1-1.39,2.53c-1.6,1-4.68.94-9-.29v-2.62c1.57.41,3.11.79,4.62,1.06a3.73,3.73,0,0,0,2.9-.5,1,1,0,0,0,.28-.82V150.13ZM821,140.77v2.5H804.69v-2.5Z" transform="translate(-76.5 -102.53)"/></svg>