<svg version="1.1" id="圖層_1" xmlns="http://www.w3.org/2000/svg" xmlns:xlink="http://www.w3.org/1999/xlink" x="0" y="0" viewBox="0 0 745.7 95.6" xml:space="preserve"><defs><path id="SVGID_1_" d="M41.5 51.6L26.2 88.9c-.1.2-.1.3-.1.5 0 .5.3.9.7 1.2h.1c13.4 6.6 29.2 6.6 42.6 0 .4-.2.7-.7.7-1.2 0-.2 0-.3-.1-.5L54.9 52.1V52c-1.5-3.8-5.8-5.6-9.5-4.1-1.7.7-3.1 2-3.9 3.7M1.3 47.5c-.7 0-1.3.6-1.3 1.3.3 11.7 4.9 22.8 12.8 31.4.3.3.6.4 1 .4.5 0 1-.3 1.2-.8l12.5-30.5c.3-.7-.1-1.5-.8-1.7-.1-.1-.3-.1-.5-.1H1.3zm68.6 0c-.7 0-1.3.6-1.3 1.3 0 .2 0 .4.1.5l12.5 30.5c.3.7 1.1 1 1.8.7.2-.1.3-.2.4-.3 8-8.5 12.5-19.7 12.9-31.4v-.1c0-.7-.6-1.3-1.3-1.3l-25.1.1zM39.7.1C22.4 3.1 8.2 15.3 2.5 31.9c0 .1-.1.3-.1.4 0 .7.6 1.3 1.3 1.3h29.4c.5 0 .9-.4 1.1-.8l2.3-5.7c3-7.5 4.5-15.5 4.6-23.6V1.3c0-.7-.6-1.3-1.3-1.3l-.1.1m15.2 1.2v2.3c.1 8.1 1.6 16.1 4.6 23.6l2.3 5.6c.2.4.6.7 1 .8h29.6c.7 0 1.3-.6 1.3-1.3 0-.1 0-.3-.1-.4C88 15.3 73.8 3.1 56.5 0h-.2c-.7 0-1.3.6-1.4 1.3"/></defs><clipPath id="SVGID_00000061442419876605832410000000556298957734741654_"><use xlink:href="#SVGID_1_" overflow="visible"/></clipPath><g clip-path="url(#SVGID_00000061442419876605832410000000556298957734741654_)"><linearGradient id="SVGID_00000017482832606389786220000003690189872781986485_" gradientUnits="userSpaceOnUse" x1="-480.254" y1="118.747" x2="-478.884" y2="118.747" gradientTransform="matrix(0 70.05 -70.05 0 8366.35 33641.293)"><stop offset="0" stop-color="#004098"/><stop offset="1" stop-color="#00a0e9"/></linearGradient><path fill="url(#SVGID_00000017482832606389786220000003690189872781986485_)" d="M0 0h96.2v95.6H0z"/></g><path d="M137.4 11.8h60.4c.1 0 .1 0 .1-.1V5c0-.1 0-.1-.1-.1h-60.4c-.1 0-.1.1-.1.1v6.7l.1.1m62.3 46.6c0-.6-.5-1.1-1.1-1.1h-19.1c-1.2-.2-2.3-1-2.7-2.2-.1-.2-.1-.4-.1-.6V25.7h22.8s.1 0 .1-.1v-6.7s0-.1-.1-.1h-63.6c-.1 0-.1 0-.1.1v6.7c0 .1 0 .1.1.1h20l-19.6 36.7v.1c-.1.1-.1.3-.1.4 0 .6.5 1.1 1.1 1.1h6.4s20.5-38.2 20.5-38.3h5.2v28.6c-.1 5.3 4.1 9.6 9.3 9.8h14.5c3.2 0 5.9-2.3 6.5-5.4v-.3m85.5-38.5c0-.6-.5-1.1-1.1-1.1h-29.9V3.2c0-.1 0-.1-.1-.1H247c-.1 0-.1.1-.1.1v15.6h-27.5s-.1 0-.1.1v6.7c0 .1 0 .1.1.1h25.5c-.2.3-21.2 29.4-26.4 36.6l-.1.1c-.1.2-.1.4-.1.5 0 .6.5 1.1 1.1 1.1h6.5l22.7-31.2c.7-1.2 2.3-1.6 3.5-.8.4.2.7.5.9.9L275.5 64h6.5c.6 0 1.1-.5 1.1-1.1 0-.2-.1-.5-.2-.7-5.3-7.3-26.2-36.3-26.4-36.6h22c3.3 0 6.1-2.3 6.7-5.6v-.1m82.5 22.4c.4-.4.5-1.2 0-1.6-.2-.2-.5-.3-.8-.3h-6l-3.8 4.1-5.3-9h9.3c1.9 0 3.8-.7 5.2-2.1 1.5-1.3 2.3-3.2 2.3-5.2v-16c0-2-.8-3.9-2.3-5.2-1.4-1.3-3.3-2.1-5.2-2.1h-25.4c-.1 0-.1 0-.1.1v58.9h6.6c.6 0 1.3-.1 1.9-.2 3.4-.6 6.8-3.9 6.8-3.9.2-.2.8-.8 3.6-3.8l1-1 5.2 8.9h6c.6 0 1.1-.5 1.1-1.1 0-.2-.1-.4-.2-.6l-7.3-12.4 7.4-7.5zm-25.5-31.1h18.9c.3 0 .5.1.7.3.2.2.3.4.3.7v5.1h-19.8v-6.1zm0 12.2H362v4.8c0 .3-.1.5-.3.7-.2.2-.4.3-.7.3h-18.9v-5.8zm0 36.8V35.5h1.7l8.3 14.2-10 10.5zM334 28.3l-4.7-18.4c0-.2-.1-.3-.1-.5l-.1-.4v-.1c-1-2.4-3.3-4-5.9-4h-17.5v6.4l-4.3 16.9v.3c0 .6.5 1.1 1.1 1.1h5s.1 0 .1-.1l1.2-4.7h5.6v9.7H305c-.1 0-.1 0-.1.1v6.1c0 .1.1.1.1.1h9.4v16.9h-.5l-2.8-11.2s0-.1-.1-.1h-4.7c-.6 0-1.1.5-1.1 1.1v.3l2.5 9.9h-3.8c-.1 0-.1 0-.1.1v6c0 .1 0 .1.1.1H326c3 .1 5.6-2 6.3-4.9v-.2c0-.6-.5-1.1-1.1-1.1h-3.5l2.5-9.9v-.3c0-.6-.5-1.1-1.1-1.1h-4.7s-.1 0-.1.1l-2.8 11.2h-.5V40.9h9.5c.1 0 .1 0 .1-.1v-6.1c0-.1 0-.1-.1-.1H321v-9.7h5.6l1.2 4.7s0 .1.1.1h5c.6 0 1.1-.5 1.1-1.1v-.3zm-23.7-9.8l1.8-7.1h11l1.8 7.1h-14.6zm100.8-6.7h41.3c.1 0 .1 0 .1-.1V5.5c0-.1 0-.1-.1-.1h-41.3c-.1 0-.1 0-.1.1v6.2c0 .1.1.1.1.1m-25.7 13.5h6.1c3.2-3.9 10.8-13 15.6-18.7v-.1c.1-.2.2-.4.2-.6 0-.6-.5-1.1-1.1-1.1H400l-15.5 18.8c-.2.2-.3.5-.3.7 0 .5.5 1 1.2 1m21.3-5.3h-6.2L385 38.7c-.2.2-.3.5-.3.7 0 .6.5 1.1 1.1 1.1h6.1l3-3.6v26.9c0 .1 0 .1.1.1h6.5s.1 0 .1-.1v-35l5.9-7.1c.1-.2.2-.4.2-.7.2-.5-.3-1-1-1m47 1.1c0-.6-.5-1.1-1.1-1.1h-41.4c-.1 0-.1 0-.1.1v6.3h25.5v30.7c0 .6-.5.9-1.4.9h-12c-.6 0-1.1.5-1.1 1.1v.2c.7 2.9 3.3 4.9 6.3 4.9h7.2c2 0 3.9-.8 5.4-2.1 1.5-1.4 2.3-3.3 2.2-5.3V26.5h4.1c3.1 0 5.7-2.1 6.3-5.1 0-.1 0-.2.1-.3m51.2 30.1c-2.2 5.3-6.2 9.5-12.1 12.6l-2-2.1c7.1-3.1 11.4-8.4 12.8-15.9h-11.7v-2.6h12l.1-1.5v-4.3h2.8v4.3l-.1 1.5h12v2.6h-11.6c.1 1.1.3 2.1.6 3.1 1.6 4.9 5.6 9.3 12.1 13.3l-2.4 1.9-1.7-1.2c-5.4-4-8.9-8.3-10.4-12.9l-.4 1.2zm39.3 12.9h-2.5V50.7c-3.3 1.1-6.8 1.7-10.3 1.7l-.6-2.4c4.5 0 8.9-.8 13-2.4H529v-2.3h2.7v-5.6c0-.5.3-.8.9-.8h7.4c.5-.7 1-1.4 1.4-2.2l2.2 1.2-.5 1h11c.6 0 .9.3.9.8v5.6h2.4v2.3h-10.6l.5 1.1-2.8 1.1v.2c1.4 2.4 3.2 4.6 5.2 6.5 2.4 2 5.1 3.6 8 4.8l-1.8 2.1c-4.5-2.1-8.4-5.2-11.4-9.1l-.3 9.8zm-3.5-4.5c-3.5 1.9-7.3 3.2-11.2 3.7.1-.8 0-1.6-.2-2.4 3.6-.4 7.1-1.6 10.2-3.6l1.2 2.3zm-.7-4.7c-3.1 1.7-6.4 2.8-9.9 3.3.1-.8 0-1.6-.2-2.4 3.2-.3 6.2-1.4 8.9-3.1l1.2 2.2zm-1.5-9.6v-4.2h-4c-.2 0-.4.1-.4.4v3.8h4.4zm7 0v-4.2H541v4.2h4.5zm6.7 0v-3.9c0-.2-.1-.3-.3-.3H548v4.2h4.2zm3.3 5.2c-1.6 1.6-3.4 3-5.4 4.2l-1.5-1.8c1.9-1.2 3.6-2.6 5.3-4.1l1.6 1.7zm23.1 12.8h-10.8c-.2 0-.4-.1-.4-.4V41.1c0-.2.1-.3.4-.3h3.2l1.4-3.8 2.4.9-1 3h4.8c.3 0 .4.1.4.3v21.9c0 .1-.2.2-.4.2zm-2.2-12.7v-7.2l-.2-.1h-6c-.1 0-.1 0-.1.1v7.2h6.3zm-6.3 2.5v7.6c0 .1 0 .1.1.1h6c.1 0 .1 0 .2-.1v-7.6h-6.3zm13.5-10c-.5 1.4-1.1 2.7-1.9 4l-2.6-.9c1.7-2.7 2.8-5.7 3.1-8.9l2.6.2-.4 2.4h8.8l.5.1.3.4c.2.5.2 4.6-.1 12.4-.2 5.6-1.4 8.9-3.6 10.2-1.4.9-4 .8-7.9-.3l-.1-2.9c3.3 1.1 5.4 1.4 6.5.7.8-.6 1.4-1.3 1.8-2.2.6-1.9.8-3.9.8-5.9.2-6.2.2-9.5 0-9.8 0-.1-.2-.2-.3-.2h-7.3l-.2.7zm2 3.1c1.4 3.1 2.6 6.3 3.6 9.6l-2.5.6c-.9-3.3-2.1-6.4-3.6-9.5l2.5-.7zm18.6 12.9v-2.3h20v-1.7l-18.1.5-.3-2.3 11.3-.3v-1.3h-10c-.2 0-.3-.1-.3-.4v-8.6c0-.2.1-.3.3-.3h10v-1.5h-12.6v-2.2H617v-1.9h2.5v1.9h12.7v2.2h-12.7v1.5h10.1c.2 0 .3.1.3.3v8.6c0 .2-.1.4-.3.4h-.3l.9.9c.8.7 1.5 1.5 2.1 2.3l-1.9 1.4-1.1-1.3-2.7.1v1.8h5.9v2.3h-5.9v2.2c0 1-.5 1.9-1.3 2.4-1.1.7-3.2.7-6.3-.2v-2.5l2.3.6 1.6.2c.4 0 .7-.1 1-.4.2-.2.3-.5.3-.8v-1.6h-20zm12.9-14.6h-7.8c-.1 0-.1 0-.1.1v1.5h7.9v-1.6zm0 3.5h-7.9v1.6l.1.1h7.8V48zm-4.3 11.4c1.2.8 2.3 1.7 3.4 2.6l-1.8 1.8c-1-.9-2.2-1.7-3.3-2.5l1.7-1.9zm6.8-13.3h8v-1.5l-.1-.1h-7.9v1.6zm0 3.6h7.9l.1-.1V48h-8v1.7zm7.8 2h-7.8v1.2l7.6-.2-.5-.4.7-.6zm30 12.3h-2.6v-6.6c-3.6 2.5-7.6 4.2-11.8 5.2l-1.1-2.3c4-.8 7.8-2.3 11.2-4.4h-10.3v-2h12v-1.8h-10.4v-2h10.4v-1.8h-11.3v-2h6.9c-.4-.9-.9-1.8-1.4-2.6h-6.6v-2.2h5.4c-.6-1.1-1.2-2.1-2-3l2-1.3c.8 1 1.6 2.1 2.2 3.3l-1.8 1h4.1v-4.6h2.4v4.6h2.8v-4.6h2.4v4.6h3.1l-1-.7c1-1.2 1.9-2.4 2.7-3.8l2 1.2c-.6 1.2-1.4 2.3-2.2 3.3h5.1v2.1h-7l-1 2.6h7.1v2h-11.3V50h10.4v2h-10.4v1.8h11.9v2h-10.4c3.5 2.2 7.4 3.7 11.5 4.4l-1.3 2.2c-4.1-1-8.1-2.7-11.7-5V64zm1.5-17.8l1.1-2.6h-8.2l1.3 2.6h5.8zm22.5-2.5l-2.2-1.5c3.3-1.9 5.6-3.8 6.6-5.6h2.4l-.2.5c1.4 1.2 2.8 2.4 4.3 3.4l-2 1.7c-1.2-1-2.3-2.1-3.4-3.2-1.7 1.8-3.5 3.4-5.5 4.7zm.3 9.3c.7 1.8 1.2 3.6 1.6 5.5l-2.3.6c-.3-1.9-.8-3.7-1.5-5.4l2.2-.7zm2.8-1.4h-4.6v-2.3h4.6v-3h-3.3V44h9.1v2.3H687v3h4.3v2.3H687v8.2l3.8-1 .5 2.3c-4.5 1.1-8.2 1.9-11 2.3l-.3-2.3 4.6-.8-.1-8.7zm6.8 2.1c-.4 1.4-.9 2.8-1.4 4.2l-2.1-.9c.6-1.3 1-2.7 1.4-4.1l2.1.8zM706 52l1.6 1.7c-1.5 1.5-3.1 2.8-4.8 4 1.5 1.8 3.4 3.4 5.4 4.6L706 64c-1.6-1.1-3-2.3-4.2-3.7-2.3-2.6-3.6-5.8-3.7-9.3h-2.8v9.7c1.5-.4 3-.9 4.4-1.5l.8 2.3c-2.9 1.2-5.9 2-9 2.6l-.7-2.3 2-.4V38.2c0-.5.2-.7.7-.7h12c.5 0 .8.2.8.7v12.1c0 .4-.3.7-.7.7h-5.1c.1 1.6.5 3.2 1 4.6 1.6-1 3.1-2.3 4.5-3.6zm-2.2-8.8v-2.8c0-.4-.2-.6-.6-.6H696c-.4 0-.7.2-.6.6v2.8h8.4zm-8.5 2.3v3.4h7.8c.5 0 .7-.2.7-.6v-2.7h-8.5zm23.8 8.9l-2.1-1.6c2.9-2.3 5.2-5.2 6.7-8.5l2.4 1c-.8 1.5-1.6 2.9-2.3 4V64h-2.6V52.6l-2.1 1.8zm5.9-16.6c-1.2 3.1-3.1 5.9-5.6 8.2l-2.2-1.5c2.4-2 4.2-4.6 5.3-7.6l2.5.9zm2.2 9.8v-2.5h18.4v2.5h-4.8v13.2c0 1-.5 2-1.4 2.5-1.6 1-4.7.9-9-.3v-2.6c1.6.4 3.1.8 4.6 1.1 1 .2 2 .1 2.9-.5.2-.2.3-.5.3-.8V47.6h-11zm17.3-9.4v2.5h-16.3v-2.5h16.3z" fill="#005bac"/><path d="M178.2 90.2c-2.2 0-4.2-.7-5.6-1.9-1.2-1.1-1.9-2.5-1.9-4 0-1.6.6-2.8 1.9-3.9 1.5-1.3 3.4-1.9 5.6-1.9 2.1 0 3.9.7 5.1 1.9l.4.5V79h2.8v10.9h-2.8v-.1c0-.5-.4-.8-.9-.8-.1 0-.3 0-.4.1-1.1.7-2.7 1.1-4.2 1.1zm.7-2.1c1.6 0 2.9-.5 3.8-1.4.6-.6.9-1.4.9-2.3 0-.8-.3-1.6-.9-2.3-.9-.9-2.2-1.4-3.8-1.4h-.1c-1.6 0-3 .5-3.9 1.5-.6.7-1 1.5-1 2.3 0 .8.3 1.5.9 2.1.9.9 2.4 1.5 3.9 1.5h.2zm43.2 2.1c-2.2 0-4.2-.7-5.6-1.9-1.2-1.1-1.9-2.5-1.9-4 0-1.6.6-2.8 1.9-3.9 1.5-1.3 3.4-1.9 5.6-1.9 2.1 0 3.9.7 5.1 1.9l.4.5V79h2.8v10.9h-2.8v-.1c0-.5-.4-.8-.9-.8-.1 0-.3 0-.4.1-1 .7-2.6 1.1-4.2 1.1zm.8-2.1c1.6 0 2.9-.5 3.8-1.4.6-.6.9-1.4.9-2.3 0-.8-.3-1.6-.9-2.3-.9-.9-2.2-1.4-3.8-1.4h-.1c-1.6 0-3 .5-3.9 1.5-.6.7-1 1.5-1 2.3 0 .8.3 1.5.9 2.1.9.9 2.4 1.5 3.9 1.5h.2zm-62.5 2.1c-2 0-3.5-.5-4.9-1.5-1-.8-1.6-2.1-1.6-3.6V79h3.1v5.3c0 .9.1 1.8.6 2.5.6.8 1.8 1.3 3.2 1.3 3.9 0 3.9-2.9 3.9-3.8V79h3.1v10.9H165c0-.4-.3-.8-.7-.8-.1 0-.2 0-.4.1-.9.9-2.4 1-3.5 1zm40.3-.3s0-.1 0 0v-5.4c0-.9-.1-1.8-.6-2.5-.6-.8-1.8-1.3-3.2-1.3-3.9 0-3.9 2.9-3.9 3.8v5.3h-3.1V79h2.8c0 .4.3.8.7.8.1 0 .2 0 .4-.1 1.2-.9 2.7-1.1 3.7-1.1 2 0 3.5.5 4.9 1.5 1 .8 1.6 2.1 1.6 3.6v6.2h-3.3zm7.3 0s0-.1 0 0v-9.1h-1.8V79h1.8v-3.8h3.1V79h2.2v1.8h-2.2v9H208zm-65 0s0-.1 0 0v-5.5l-7-8.7v-.3c0-.2.1-.3.3-.4h3.4c.2.3 2.4 2.9 4 4.9.3.4.8.6 1.3.6s.9-.2 1.2-.5c.6-.7 3.8-4.7 4.1-5h3.4c.2 0 .3.2.3.4 0 .1 0 .1-.1.2l-7 8.7v5.4H143zm127.1.4c-2.2 0-4.2-.7-5.6-1.9-1.2-1.1-1.9-2.5-1.9-4 0-1.6.6-2.8 1.9-3.9 1.5-1.3 3.4-1.9 5.6-1.9 2.1 0 3.9.7 5.1 1.9l.4.5v-2h2.8v10.9h-2.8v-.1c0-.5-.4-.8-.9-.8-.1 0-.3 0-.4.1-1 .7-2.7 1.2-4.2 1.2zm.7-9.6c-1.6 0-3 .5-3.9 1.5-.6.7-1 1.5-1 2.3 0 .8.3 1.5.9 2.1.9.9 2.4 1.5 3.9 1.5h.1c1.6 0 2.9-.5 3.8-1.4.6-.6.9-1.4.9-2.3 0-.8-.3-1.6-.9-2.3-.9-.9-2.2-1.4-3.8-1.4zm21.8 9.2c-.1 0-.1-.1 0 0v-5.4c0-.9-.1-1.8-.6-2.5-.6-.8-1.8-1.3-3.2-1.3-3.9 0-3.9 2.9-3.9 3.8v5.3h-3.1V79h2.7c0 .4.3.8.7.8.1 0 .2 0 .4-.1 1.2-.9 2.7-1.1 3.7-1.1 2 0 3.5.5 4.9 1.5 1 .8 1.6 2.1 1.6 3.6v6.2h-3.2zm-44.7 0h-2.3v-11c0-1.5 1-2.4 1.4-2.8.8-.6 1.6-1 3.3-1h4.4c3.5 0 5.6 1.4 5.6 3.7 0 1.2-.9 2.4-2.3 3.2 1.7.8 2.7 2.1 2.7 3.6 0 1.3-.6 2.5-1.7 3.2-1 .7-2.5 1.2-4.2 1.2h-6.9zm1.3-2.5h5.6c1.7-.1 2.9-1 2.9-2.1s-1.2-1.9-2.9-2h-5.6v4.1zm5.7-6.8c1.5-.1 2.7-.8 2.7-1.7 0-1-.9-1.6-2.6-1.7h-4.5c-.6.1-1.1.5-1.2 1.2v2.2h5.6zm43.7 9.3c-.1 0-.1-.1 0 0V74.6h3.1V84l6.5-5.5h4c.2 0 .4.2.4.4 0 .1 0 .2-.1.3 0 0-4.4 3.8-5 4.2-.2.2-.3.5-.3.8 0 .3.1.5.3.7l5 4.4c.1.1.1.2.1.3 0 .2-.2.4-.4.4h-4l-4.8-4.2c-.2-.2-.4-.2-.6-.2-.5 0-1 .4-1 1V90h-3.2z" fill="#005bab"/></svg>