<?xml version="1.0" encoding="utf-8"?>
<!-- Generator: Adobe Illustrator 23.0.1, SVG Export Plug-In . SVG Version: 6.00 Build 0)  -->
<svg version="1.1" id="圖層_1" xmlns="http://www.w3.org/2000/svg" xmlns:xlink="http://www.w3.org/1999/xlink" x="0px" y="0px"
	 viewBox="0 0 33 33" style="enable-background:new 0 0 33 33;" xml:space="preserve">
<style type="text/css">
	.st0{fill:#FFFFFF;}
</style>
<title>socialmedia</title>
<g>
	<path class="st0" d="M31.4,10.3c0-1.2-0.3-2.5-0.7-3.7c-0.8-2-2.4-3.6-4.4-4.4c-1.2-0.4-2.4-0.7-3.6-0.7c-1.6-0.1-2.1-0.1-6.2-0.1
		s-4.6,0-6.2,0.1c-1.2,0-2.5,0.3-3.7,0.7C5.7,2.6,4.8,3.2,4,4C3.3,4.7,2.7,5.6,2.3,6.6C1.9,7.8,1.6,9,1.6,10.3
		c-0.1,1.6-0.1,2.1-0.1,6.2s0,4.6,0.1,6.2c0,1.2,0.3,2.5,0.7,3.7c0.4,1,1,1.9,1.7,2.7c0.7,0.8,1.6,1.4,2.7,1.7
		c1.2,0.4,2.4,0.7,3.7,0.7c1.6,0.1,2.1,0.1,6.2,0.1s4.6,0,6.2-0.1c1.2,0,2.5-0.3,3.6-0.7c2-0.8,3.6-2.4,4.4-4.4
		c0.4-1.2,0.7-2.4,0.7-3.7c0.1-1.6,0.1-2.1,0.1-6.2S31.5,11.9,31.4,10.3z M28.7,22.6c0,1-0.2,1.9-0.5,2.8c-0.5,1.3-1.5,2.3-2.8,2.8
		c-0.9,0.3-1.8,0.5-2.8,0.5c-1.6,0.1-2,0.1-6.1,0.1s-4.5,0-6.1-0.1c-1,0-1.9-0.2-2.8-0.5c-0.7-0.2-1.2-0.6-1.7-1.1
		c-0.5-0.5-0.9-1.1-1.1-1.7c-0.3-0.9-0.5-1.8-0.5-2.8c-0.1-1.6-0.1-2-0.1-6.1s0-4.5,0.1-6.1c0-1,0.2-1.9,0.5-2.8
		C5.1,7,5.4,6.4,6,5.9C6.4,5.4,7,5,7.7,4.8c0.9-0.3,1.8-0.5,2.8-0.5c1.6-0.1,2.1-0.1,6.1-0.1s4.5,0,6.1,0.1c1,0,1.9,0.2,2.8,0.5
		c1.3,0.5,2.3,1.5,2.8,2.8c0.3,0.9,0.5,1.8,0.5,2.8c0.1,1.6,0.1,2,0.1,6.1S28.8,21,28.7,22.6z"/>
	<path class="st0" d="M16.5,8.8c-4.3,0-7.7,3.4-7.7,7.7s3.4,7.7,7.7,7.7s7.7-3.4,7.7-7.7S20.8,8.8,16.5,8.8L16.5,8.8z M16.5,21.5
		c-2.8,0-5-2.2-5-5s2.2-5,5-5s5,2.2,5,5S19.3,21.5,16.5,21.5z"/>
	<circle class="st0" cx="24.5" cy="8.5" r="1.8"/>
</g>
</svg>
