<?xml version="1.0" encoding="utf-8"?>
<!-- Generator: Adobe Illustrator 26.3.1, SVG Export Plug-In . SVG Version: 6.00 Build 0)  -->
<svg version="1.1" id="圖層_1" xmlns="http://www.w3.org/2000/svg" xmlns:xlink="http://www.w3.org/1999/xlink" x="0px" y="0px"
	 viewBox="0 0 745.7 95.6" style="enable-background:new 0 0 745.7 95.6;" xml:space="preserve">
<style type="text/css">
	.st0{clip-path:url(#SVGID_00000159427526312707348030000006412164687655685785_);}
	.st1{fill:url(#SVGID_00000168810360711485153290000017515993295597969833_);}
	.st2{fill:#005BAC;}
	.st3{fill:#005BAB;}
</style>
<g>
	<g>
		<defs>
			<path id="SVGID_1_" d="M41.5,51.6L26.2,88.9l0,0c-0.1,0.2-0.1,0.3-0.1,0.5c0,0.5,0.3,0.9,0.7,1.2h0.1c13.4,6.6,29.2,6.6,42.6,0
				l0,0c0.4-0.2,0.7-0.7,0.7-1.2c0-0.2,0-0.3-0.1-0.5l0,0L54.9,52.1V52c-1.5-3.8-5.8-5.6-9.5-4.1C43.7,48.6,42.3,49.9,41.5,51.6
				 M1.3,47.5c-0.7,0-1.3,0.6-1.3,1.3c0,0,0,0,0,0l0,0c0.3,11.7,4.9,22.8,12.8,31.4l0,0c0.3,0.3,0.6,0.4,1,0.4c0.5,0,1-0.3,1.2-0.8
				l12.5-30.5l0,0l0,0c0.3-0.7-0.1-1.5-0.8-1.7c-0.1-0.1-0.3-0.1-0.5-0.1L1.3,47.5z M69.9,47.5c-0.7,0-1.3,0.6-1.3,1.3
				c0,0.2,0,0.4,0.1,0.5l12.5,30.5c0.3,0.7,1.1,1,1.8,0.7c0.2-0.1,0.3-0.2,0.4-0.3l0,0c8-8.5,12.5-19.7,12.9-31.4v-0.1l0,0
				c0-0.7-0.6-1.3-1.3-1.3L69.9,47.5z M39.7,0.1L39.7,0.1C22.4,3.1,8.2,15.3,2.5,31.9l0,0c0,0.1-0.1,0.3-0.1,0.4
				c0,0.7,0.6,1.3,1.3,1.3h29.4c0.5,0,0.9-0.4,1.1-0.8l0,0l2.3-5.7c3-7.5,4.5-15.5,4.6-23.6l0,0V1.3c0-0.7-0.6-1.3-1.3-1.3L39.7,0.1
				 M54.9,1.3v2.3l0,0c0.1,8.1,1.6,16.1,4.6,23.6l2.3,5.6c0.2,0.4,0.6,0.7,1,0.8l0,0H63h29.4c0.7,0,1.3-0.6,1.3-1.3
				c0-0.1,0-0.3-0.1-0.4l0,0C88,15.3,73.8,3.1,56.5,0h-0.2C55.6,0,55,0.6,54.9,1.3"/>
		</defs>
		<clipPath id="SVGID_00000061442419876605832410000000556298957734741654_">
			<use xlink:href="#SVGID_1_"  style="overflow:visible;"/>
		</clipPath>
		<g style="clip-path:url(#SVGID_00000061442419876605832410000000556298957734741654_);">
			
				<linearGradient id="SVGID_00000017482832606389786220000003690189872781986485_" gradientUnits="userSpaceOnUse" x1="-480.2542" y1="118.747" x2="-478.8842" y2="118.747" gradientTransform="matrix(0 70.05 -70.05 0 8366.3506 33641.293)">
				<stop  offset="0" style="stop-color:#004098"/>
				<stop  offset="1" style="stop-color:#00A0E9"/>
			</linearGradient>
			<rect style="fill:url(#SVGID_00000017482832606389786220000003690189872781986485_);" width="96.2" height="95.6"/>
		</g>
	</g>
</g>
<g>
	<path class="st2" d="M137.4,11.8h60.4c0.1,0,0.1,0,0.1-0.1c0,0,0,0,0,0V5c0-0.1,0-0.1-0.1-0.1c0,0,0,0,0,0h-60.4
		c-0.1,0-0.1,0.1-0.1,0.1v6.7C137.3,11.7,137.4,11.8,137.4,11.8"/>
	<path class="st2" d="M199.7,58.4c0-0.6-0.5-1.1-1.1-1.1l0,0h-19.1c-1.2-0.2-2.3-1-2.7-2.2c-0.1-0.2-0.1-0.4-0.1-0.6V25.7h22.8
		c0,0,0.1,0,0.1-0.1c0,0,0,0,0,0v-6.7c0,0,0-0.1-0.1-0.1c0,0,0,0,0,0h-63.6c-0.1,0-0.1,0-0.1,0.1c0,0,0,0,0,0v6.7
		c0,0.1,0,0.1,0.1,0.1h0h20l-19.6,36.7c0,0,0,0.1,0,0.1c-0.1,0.1-0.1,0.3-0.1,0.4c0,0.6,0.5,1.1,1.1,1.1c0,0,0,0,0,0h6.3
		c0,0,0.1,0,0.1,0c0,0,20.5-38.2,20.5-38.3h5.2v28.6c-0.1,5.3,4.1,9.6,9.3,9.8h14.5c3.2,0,5.9-2.3,6.5-5.4l0,0
		C199.7,58.6,199.7,58.5,199.7,58.4"/>
	<path class="st2" d="M285.2,19.9c0-0.6-0.5-1.1-1.1-1.1l0,0h-29.9V3.2c0-0.1,0-0.1-0.1-0.1h-7.1c-0.1,0-0.1,0.1-0.1,0.1v15.6h-27.5
		c0,0-0.1,0-0.1,0.1c0,0,0,0,0,0v6.7c0,0.1,0,0.1,0.1,0.1l0,0h25.5c-0.2,0.3-21.2,29.4-26.4,36.6c0,0-0.1,0.1-0.1,0.1
		c-0.1,0.2-0.1,0.4-0.1,0.5c0,0.6,0.5,1.1,1.1,1.1l0,0h6.4c0,0,0.1,0,0.1,0l22.7-31.2c0.7-1.2,2.3-1.6,3.5-0.8
		c0.4,0.2,0.7,0.5,0.9,0.9L275.5,64c0,0,0.1,0,0.1,0h6.4c0.6,0,1.1-0.5,1.1-1.1c0-0.2-0.1-0.5-0.2-0.7l0,0
		c-5.3-7.3-26.2-36.3-26.4-36.6h22c3.3,0,6.1-2.3,6.7-5.6l0,0C285.2,20.1,285.2,20,285.2,19.9"/>
	<path class="st2" d="M367.7,42.3c0.4-0.4,0.5-1.2,0-1.6c-0.2-0.2-0.5-0.3-0.8-0.3H361c0,0,0,0-0.1,0l-3.8,4.1l-5.3-9h8.9
		c0.1,0,0.2,0,0.4,0c1.9,0,3.8-0.7,5.2-2.1c1.5-1.3,2.3-3.2,2.3-5.2v-16c0-2-0.8-3.9-2.3-5.2c-1.4-1.3-3.3-2.1-5.2-2.1h-25.4
		c-0.1,0-0.1,0-0.1,0.1v6.7c0,0.3,0,0.4,0,0.4v51.7c0,0,0,0,0,0.1c0,0,0,0,0.1,0h6.5c0.6,0,1.3-0.1,1.9-0.2c3.4-0.6,6.8-3.9,6.8-3.9
		c0.2-0.2,0.8-0.8,3.6-3.8l1-1l5.2,8.9c0,0,0.1,0,0.1,0h5.9c0.6,0,1.1-0.5,1.1-1.1c0,0,0,0,0,0c0-0.2-0.1-0.4-0.2-0.6l-7.3-12.4
		L367.7,42.3z M342.2,11.2h18.9c0.3,0,0.5,0.1,0.7,0.3c0.2,0.2,0.3,0.4,0.3,0.7v5.1h-19.8V11.2z M342.2,23.4H362v4.8
		c0,0.3-0.1,0.5-0.3,0.7c-0.2,0.2-0.4,0.3-0.7,0.3h-18.9V23.4z M342.2,60.2V35.5h1.7l8.3,14.2L342.2,60.2z"/>
	<path class="st2" d="M334,28.3l-4.7-18.4c0-0.2-0.1-0.3-0.1-0.5L329.1,9c0,0,0-0.1,0-0.1c-1-2.4-3.3-4-5.9-4h-17.4c0,0,0,0-0.1,0
		c0,0,0,0.1,0,0.1v6.2c0,0,0,0,0,0.1l-4.3,16.9l0,0c0,0.1,0,0.2,0,0.3c0,0.6,0.5,1.1,1.1,1.1h5c0,0,0.1,0,0.1-0.1l1.2-4.7h5.6v9.7
		h-9.4c-0.1,0-0.1,0-0.1,0.1c0,0,0,0,0,0v6.1c0,0.1,0.1,0.1,0.1,0.1h9.4v16.9h-0.5l-2.8-11.2c0,0,0-0.1-0.1-0.1h-4.7
		c-0.6,0-1.1,0.5-1.1,1.1c0,0.1,0,0.2,0,0.3l0,0l2.5,9.9h-3.8c-0.1,0-0.1,0-0.1,0.1c0,0,0,0,0,0v6c0,0.1,0,0.1,0.1,0.1l0,0H326
		c3,0.1,5.6-2,6.3-4.9l0,0c0-0.1,0-0.1,0-0.2c0-0.6-0.5-1.1-1.1-1.1l0,0h-3.5l2.5-9.9l0,0c0-0.1,0-0.2,0-0.3c0-0.6-0.5-1.1-1.1-1.1
		h-4.7c0,0-0.1,0-0.1,0.1l-2.8,11.2H321V40.9h9.5c0.1,0,0.1,0,0.1-0.1v-6.1c0-0.1,0-0.1-0.1-0.1l0,0H321v-9.7h5.6l1.2,4.7
		c0,0,0,0.1,0.1,0.1h5c0.6,0,1.1-0.5,1.1-1.1c0,0,0,0,0,0C334,28.4,334,28.3,334,28.3L334,28.3z M310.3,18.5l1.8-7.1h11l1.8,7.1
		H310.3z"/>
	<path class="st2" d="M411.1,11.8h41.3c0.1,0,0.1,0,0.1-0.1V5.5c0-0.1,0-0.1-0.1-0.1h-41.3c-0.1,0-0.1,0-0.1,0.1v6.2
		C411,11.8,411.1,11.8,411.1,11.8"/>
	<path class="st2" d="M385.4,25.3h6c0,0,0,0,0.1,0c3.2-3.9,10.8-13,15.6-18.7c0,0,0-0.1,0-0.1c0.1-0.2,0.2-0.4,0.2-0.6
		c0-0.6-0.5-1.1-1.1-1.1c0,0,0,0,0,0h-6.1c0,0,0,0-0.1,0l-15.5,18.8c-0.2,0.2-0.3,0.5-0.3,0.7C384.2,24.8,384.7,25.3,385.4,25.3"/>
	<path class="st2" d="M406.7,20h-6.1c0,0-0.1,0-0.1,0l-15.5,18.7c-0.2,0.2-0.3,0.5-0.3,0.7c0,0.6,0.5,1.1,1.1,1.1c0,0,0,0,0,0h6
		c0,0,0.1,0,0.1,0l3-3.6v26.9c0,0.1,0,0.1,0.1,0.1c0,0,0,0,0,0h6.5c0,0,0.1,0,0.1-0.1c0,0,0,0,0,0v-35l5.9-7.1l0,0
		c0.1-0.2,0.2-0.4,0.2-0.7C407.9,20.5,407.4,20,406.7,20"/>
	<path class="st2" d="M453.7,21.1c0-0.6-0.5-1.1-1.1-1.1h-41.4c-0.1,0-0.1,0-0.1,0.1c0,0,0,0,0,0v6.2c0,0,0,0,0,0.1c0,0,0,0,0.1,0
		h25.4c0,8,0,30.7,0,30.7c0,0.6-0.5,0.9-1.4,0.9h-12c-0.6,0-1.1,0.5-1.1,1.1c0,0.1,0,0.1,0,0.2l0,0c0.7,2.9,3.3,4.9,6.3,4.9h7.2
		c2,0,3.9-0.8,5.4-2.1c1.5-1.4,2.3-3.3,2.2-5.3l0,0V26.5h4.1c3.1,0,5.7-2.1,6.3-5.1l0,0C453.6,21.3,453.6,21.2,453.7,21.1"/>
</g>
<g>
	<path class="st2" d="M504.9,51.2c-2.2,5.3-6.2,9.5-12.1,12.6l-2-2.1c7.1-3.1,11.4-8.4,12.8-15.9h-11.7v-2.6h12l0.1-1.5v-4.3h2.8
		v4.3l-0.1,1.5h12v2.6h-11.6c0.1,1.1,0.3,2.1,0.6,3.1c1.6,4.9,5.6,9.3,12.1,13.3l-2.4,1.9l-1.7-1.2c-5.4-4-8.9-8.3-10.4-12.9
		L504.9,51.2z"/>
	<path class="st2" d="M544.2,64.1h-2.5V50.7c-3.3,1.1-6.8,1.7-10.3,1.7l-0.6-2.4c4.5,0,8.9-0.8,13-2.4H529v-2.3h2.7v-5.6
		c0-0.5,0.3-0.8,0.9-0.8h7.4c0.5-0.7,1-1.4,1.4-2.2l2.2,1.2l-0.5,1h11c0.6,0,0.9,0.3,0.9,0.8v5.6h2.4v2.3h-10.6l0.5,1.1l-2.8,1.1V50
		c1.4,2.4,3.2,4.6,5.2,6.5c2.4,2,5.1,3.6,8,4.8l-1.8,2.1c-4.5-2.1-8.4-5.2-11.4-9.1L544.2,64.1z M540.7,59.6
		c-3.5,1.9-7.3,3.2-11.2,3.7c0.1-0.8,0-1.6-0.2-2.4c3.6-0.4,7.1-1.6,10.2-3.6L540.7,59.6z M540,54.9c-3.1,1.7-6.4,2.8-9.9,3.3
		c0.1-0.8,0-1.6-0.2-2.4c3.2-0.3,6.2-1.4,8.9-3.1L540,54.9z M538.5,45.3v-4.2h-4c-0.2,0-0.4,0.1-0.4,0.4v3.8L538.5,45.3z
		 M545.5,45.3v-4.2H541v4.2H545.5z M552.2,45.3v-3.9c0-0.2-0.1-0.3-0.3-0.3H548v4.2L552.2,45.3z M555.5,50.5c-1.6,1.6-3.4,3-5.4,4.2
		l-1.5-1.8c1.9-1.2,3.6-2.6,5.3-4.1L555.5,50.5z"/>
	<path class="st2" d="M578.6,63.3h-10.8c-0.2,0-0.4-0.1-0.4-0.4V41.1c0-0.2,0.1-0.3,0.4-0.3h3.2l1.4-3.8l2.4,0.9l-1,3h4.8
		c0.3,0,0.4,0.1,0.4,0.3v21.9C579,63.2,578.8,63.3,578.6,63.3z M576.4,50.6v-7.2l-0.2-0.1h-6c-0.1,0-0.1,0-0.1,0.1v7.2H576.4z
		 M570.1,53.1v7.6c0,0.1,0,0.1,0.1,0.1h6c0.1,0,0.1,0,0.2-0.1c0,0,0,0,0,0v-7.6H570.1z M583.6,43.1c-0.5,1.4-1.1,2.7-1.9,4l-2.6-0.9
		c1.7-2.7,2.8-5.7,3.1-8.9l2.6,0.2l-0.4,2.4h8.8l0.5,0.1l0.3,0.4c0.2,0.5,0.2,4.6-0.1,12.4c-0.2,5.6-1.4,8.9-3.6,10.2
		c-1.4,0.9-4,0.8-7.9-0.3l-0.1-2.9c3.3,1.1,5.4,1.4,6.5,0.7c0.8-0.6,1.4-1.3,1.8-2.2c0.6-1.9,0.8-3.9,0.8-5.9c0.2-6.2,0.2-9.5,0-9.8
		c0-0.1-0.2-0.2-0.3-0.2h-7.3L583.6,43.1z M585.6,46.2c1.4,3.1,2.6,6.3,3.6,9.6l-2.5,0.6c-0.9-3.3-2.1-6.4-3.6-9.5L585.6,46.2z"/>
	<path class="st2" d="M604.2,59.1v-2.3h20v-1.7l-18.1,0.5l-0.3-2.3l11.3-0.3v-1.3h-10c-0.2,0-0.3-0.1-0.3-0.4v-8.6
		c0-0.2,0.1-0.3,0.3-0.3c0,0,0,0,0,0h10v-1.5h-12.6v-2.2h12.5v-1.9h2.5v1.9h12.7v2.2h-12.7v1.5h10.1c0.2,0,0.3,0.1,0.3,0.3v8.6
		c0,0.2-0.1,0.4-0.3,0.4h-0.3l0.9,0.9c0.8,0.7,1.5,1.5,2.1,2.3l-1.9,1.4l-1.1-1.3l-2.7,0.1v1.8h5.9v2.3h-5.9v2.2
		c0,1-0.5,1.9-1.3,2.4c-1.1,0.7-3.2,0.7-6.3-0.2v-2.5l2.3,0.6l1.6,0.2c0.4,0,0.7-0.1,1-0.4c0.2-0.2,0.3-0.5,0.3-0.8v-1.6H604.2z
		 M617.1,44.5h-7.8c-0.1,0-0.1,0-0.1,0.1v1.5h7.9V44.5z M617.1,48h-7.9v1.6l0.1,0.1h7.8V48z M612.8,59.4c1.2,0.8,2.3,1.7,3.4,2.6
		l-1.8,1.8c-1-0.9-2.2-1.7-3.3-2.5L612.8,59.4z M619.6,46.1h8v-1.5l-0.1-0.1h-7.9V46.1z M619.6,49.7h7.9l0.1-0.1V48h-8L619.6,49.7z
		 M627.4,51.7h-7.8v1.2l7.6-0.2l-0.5-0.4L627.4,51.7z"/>
	<path class="st2" d="M657.4,64h-2.6v-6.6c-3.6,2.5-7.6,4.2-11.8,5.2l-1.1-2.3c4-0.8,7.8-2.3,11.2-4.4h-10.3v-2h12v-1.8h-10.4v-2
		h10.4v-1.8h-11.3v-2h6.9c-0.4-0.9-0.9-1.8-1.4-2.6h-6.6v-2.2h5.4c-0.6-1.1-1.2-2.1-2-3l2-1.3c0.8,1,1.6,2.1,2.2,3.3l-1.8,1h4.1
		v-4.6h2.4v4.6h2.8v-4.6h2.4v4.6h3.1l-1-0.7c1-1.2,1.9-2.4,2.7-3.8l2,1.2c-0.6,1.2-1.4,2.3-2.2,3.3h5.1v2.1h-7l-1,2.6h7.1v2h-11.3
		V50h10.4v2h-10.4v1.8h11.9v2h-10.4c3.5,2.2,7.4,3.7,11.5,4.4l-1.3,2.2c-4.1-1-8.1-2.7-11.7-5L657.4,64z M658.9,46.2l1.1-2.6h-8.2
		l1.3,2.6H658.9z"/>
	<path class="st2" d="M681.4,43.7l-2.2-1.5c3.3-1.9,5.6-3.8,6.6-5.6h2.4l-0.2,0.5l0,0c1.4,1.2,2.8,2.4,4.3,3.4l-2,1.7
		c-1.2-1-2.3-2.1-3.4-3.2C685.2,40.8,683.4,42.4,681.4,43.7z M681.7,53c0.7,1.8,1.2,3.6,1.6,5.5l-2.3,0.6c-0.3-1.9-0.8-3.7-1.5-5.4
		L681.7,53z M684.5,51.6h-4.6v-2.3h4.6v-3h-3.3v-2.3h9.1v2.3H687v3h4.3v2.3H687v8.2l3.8-1l0.5,2.3c-4.5,1.1-8.2,1.9-11,2.3l-0.3-2.3
		l4.6-0.8L684.5,51.6z M691.3,53.7c-0.4,1.4-0.9,2.8-1.4,4.2l-2.1-0.9c0.6-1.3,1-2.7,1.4-4.1L691.3,53.7z M706,52l1.6,1.7
		c-1.5,1.5-3.1,2.8-4.8,4c1.5,1.8,3.4,3.4,5.4,4.6L706,64c-1.6-1.1-3-2.3-4.2-3.7c-2.3-2.6-3.6-5.8-3.7-9.3h-2.8v9.7
		c1.5-0.4,3-0.9,4.4-1.5l0.8,2.3c-2.9,1.2-5.9,2-9,2.6l-0.7-2.3l2-0.4V38.2c0-0.5,0.2-0.7,0.7-0.7h12c0.5,0,0.8,0.2,0.8,0.7v12.1
		c0,0.4-0.3,0.7-0.7,0.7c0,0-0.1,0-0.1,0h-5c0.1,1.6,0.5,3.2,1,4.6C703.1,54.6,704.6,53.3,706,52L706,52z M703.8,43.2v-2.8
		c0-0.4-0.2-0.6-0.6-0.6h-7.2c-0.4,0-0.7,0.2-0.6,0.6v2.8L703.8,43.2z M695.3,45.5v3.4h7.8c0.5,0,0.7-0.2,0.7-0.6v-2.7H695.3z"/>
	<path class="st2" d="M719.1,54.4l-2.1-1.6c2.9-2.3,5.2-5.2,6.7-8.5l2.4,1c-0.8,1.5-1.6,2.9-2.3,4V64h-2.6V52.6L719.1,54.4z
		 M725,37.8c-1.2,3.1-3.1,5.9-5.6,8.2l-2.2-1.5c2.4-2,4.2-4.6,5.3-7.6L725,37.8z M727.2,47.6v-2.5h18.4v2.5h-4.8v13.2
		c0,1-0.5,2-1.4,2.5c-1.6,1-4.7,0.9-9-0.3v-2.6c1.6,0.4,3.1,0.8,4.6,1.1c1,0.2,2,0.1,2.9-0.5c0.2-0.2,0.3-0.5,0.3-0.8V47.6H727.2z
		 M744.5,38.2v2.5h-16.3v-2.5H744.5z"/>
</g>
<g>
	<path class="st3" d="M178.2,90.2c-2.2,0-4.2-0.7-5.6-1.9c-1.2-1.1-1.9-2.5-1.9-4c0-1.6,0.6-2.8,1.9-3.9c1.5-1.3,3.4-1.9,5.6-1.9
		c2.1,0,3.9,0.7,5.1,1.9l0.4,0.5V79c0,0,0,0,0,0h2.8c0,0,0,0,0,0v10.9c0,0,0,0,0,0h-2.8c0,0,0,0,0,0v-0.1c0-0.5-0.4-0.8-0.9-0.8
		c-0.1,0-0.3,0-0.4,0.1c0,0,0,0,0,0C181.3,89.8,179.7,90.2,178.2,90.2z M178.9,88.1c1.6,0,2.9-0.5,3.8-1.4c0.6-0.6,0.9-1.4,0.9-2.3
		c0-0.8-0.3-1.6-0.9-2.3c-0.9-0.9-2.2-1.4-3.8-1.4h-0.1c-1.6,0-3,0.5-3.9,1.5c-0.6,0.7-1,1.5-1,2.3c0,0.8,0.3,1.5,0.9,2.1
		c0.9,0.9,2.4,1.5,3.9,1.5H178.9L178.9,88.1z"/>
	<path class="st3" d="M222.1,90.2c-2.2,0-4.2-0.7-5.6-1.9c-1.2-1.1-1.9-2.5-1.9-4c0-1.6,0.6-2.8,1.9-3.9c1.5-1.3,3.4-1.9,5.6-1.9
		c2.1,0,3.9,0.7,5.1,1.9l0.4,0.5V79c0,0,0,0,0,0h2.8c0,0,0,0,0,0v10.9c0,0,0,0,0,0h-2.8c0,0,0,0,0,0v-0.1c0-0.5-0.4-0.8-0.9-0.8
		c-0.1,0-0.3,0-0.4,0.1c0,0,0,0,0,0C225.3,89.8,223.7,90.2,222.1,90.2z M222.9,88.1c1.6,0,2.9-0.5,3.8-1.4c0.6-0.6,0.9-1.4,0.9-2.3
		c0-0.8-0.3-1.6-0.9-2.3c-0.9-0.9-2.2-1.4-3.8-1.4h-0.1c-1.6,0-3,0.5-3.9,1.5c-0.6,0.7-1,1.5-1,2.3c0,0.8,0.3,1.5,0.9,2.1
		c0.9,0.9,2.4,1.5,3.9,1.5H222.9L222.9,88.1z"/>
	<path class="st3" d="M160.4,90.2c-2,0-3.5-0.5-4.9-1.5c-1-0.8-1.6-2.1-1.6-3.6V79c0,0,0,0,0,0h3.1c0,0,0,0,0,0v5.3
		c0,0.9,0.1,1.8,0.6,2.5c0.6,0.8,1.8,1.3,3.2,1.3c3.9,0,3.9-2.9,3.9-3.8V79c0,0,0,0,0,0h3.1c0,0,0,0,0,0v10.9c0,0,0,0,0,0h-2.8
		c0,0,0,0,0,0c0-0.4-0.3-0.8-0.7-0.8c-0.1,0-0.2,0-0.4,0.1C163,90.1,161.5,90.2,160.4,90.2z"/>
	<path class="st3" d="M200.7,89.9C200.7,89.9,200.7,89.8,200.7,89.9l0-5.4c0-0.9-0.1-1.8-0.6-2.5c-0.6-0.8-1.8-1.3-3.2-1.3
		c-3.9,0-3.9,2.9-3.9,3.8v5.3c0,0,0,0,0,0h-3.1c0,0,0,0,0,0V79c0,0,0,0,0,0h2.8c0,0,0,0,0,0c0,0.4,0.3,0.8,0.7,0.8
		c0.1,0,0.2,0,0.4-0.1c1.2-0.9,2.7-1.1,3.7-1.1c2,0,3.5,0.5,4.9,1.5c1,0.8,1.6,2.1,1.6,3.6v6.2c0,0,0,0,0,0H200.7z"/>
	<path class="st3" d="M208,89.9C208,89.9,208,89.8,208,89.9l0-9.1h-1.8c0,0,0,0,0,0V79c0,0,0,0,0,0h1.8v-3.8c0,0,0,0,0,0h3.1
		c0,0,0,0,0,0v3.8h2.2c0,0,0,0,0,0v1.8c0,0,0,0,0,0h-2.2v9c0,0,0,0,0,0H208z"/>
	<path class="st3" d="M143,89.9C143,89.9,143,89.8,143,89.9l0-5.5l-7-8.7c0,0,0,0,0,0c0,0,0,0,0,0c0,0,0,0,0-0.1c0,0,0-0.1,0-0.2
		c0-0.2,0.1-0.3,0.3-0.4c0,0,0,0,0.1,0h3.3c0,0,0,0,0,0c0.2,0.3,2.4,2.9,4,4.9c0,0,0,0,0,0c0.3,0.4,0.8,0.6,1.3,0.6
		c0.5,0,0.9-0.2,1.2-0.5c0.6-0.7,3.8-4.7,4.1-5c0,0,0,0,0,0h3.3c0,0,0,0,0.1,0c0.2,0,0.3,0.2,0.3,0.4c0,0.1,0,0.1-0.1,0.2
		c0,0,0,0,0,0l0,0l-7,8.7v5.4c0,0,0,0,0,0H143z"/>
	<g>
		<path class="st3" d="M270.1,90.3c-2.2,0-4.2-0.7-5.6-1.9c-1.2-1.1-1.9-2.5-1.9-4c0-1.6,0.6-2.8,1.9-3.9c1.5-1.3,3.4-1.9,5.6-1.9
			c2.1,0,3.9,0.7,5.1,1.9l0.4,0.5V79c0,0,0,0,0,0h2.8c0,0,0,0,0,0v10.9c0,0,0,0,0,0h-2.8c0,0,0,0,0,0v-0.1c0-0.5-0.4-0.8-0.9-0.8
			c-0.1,0-0.3,0-0.4,0.1c0,0,0,0,0,0c0,0,0,0,0,0C273.3,89.8,271.6,90.3,270.1,90.3z M270.8,80.7c-1.6,0-3,0.5-3.9,1.5
			c-0.6,0.7-1,1.5-1,2.3c0,0.8,0.3,1.5,0.9,2.1c0.9,0.9,2.4,1.5,3.9,1.5h0.1c1.6,0,2.9-0.5,3.8-1.4c0.6-0.6,0.9-1.4,0.9-2.3
			c0-0.8-0.3-1.6-0.9-2.3c-0.9-0.9-2.2-1.4-3.8-1.4H270.8z"/>
		<path class="st3" d="M292.6,89.9C292.5,89.9,292.5,89.8,292.6,89.9l0-5.4c0-0.9-0.1-1.8-0.6-2.5c-0.6-0.8-1.8-1.3-3.2-1.3
			c-3.9,0-3.9,2.9-3.9,3.8v5.3c0,0,0,0,0,0h-3.1c0,0,0,0,0,0V79c0,0,0,0,0,0h2.7c0,0,0,0,0,0c0,0.4,0.3,0.8,0.7,0.8
			c0.1,0,0.2,0,0.4-0.1c1.2-0.9,2.7-1.1,3.7-1.1c2,0,3.5,0.5,4.9,1.5c1,0.8,1.6,2.1,1.6,3.6v6.2c0,0,0,0,0,0H292.6z"/>
		<path class="st3" d="M247.9,89.9C247.9,89.9,247.9,89.9,247.9,89.9l-2.3,0c0,0,0,0,0,0v-11c0-1.5,1-2.4,1.4-2.8
			c0.8-0.6,1.6-1,3.3-1c0,0,0,0,0,0h4.4c0,0,0,0,0,0l0,0c3.5,0,5.6,1.4,5.6,3.7c0,1.2-0.9,2.4-2.3,3.2c1.7,0.8,2.7,2.1,2.7,3.6
			c0,1.3-0.6,2.5-1.7,3.2c-1,0.7-2.5,1.2-4.2,1.2c0,0,0,0,0,0H247.9z M249.2,87.4h5.6c1.7-0.1,2.9-1,2.9-2.1c0-1.1-1.2-1.9-2.9-2
			h-5.6l0,0V87.4z M254.9,80.6C254.9,80.6,254.9,80.6,254.9,80.6c1.5-0.1,2.7-0.8,2.7-1.7c0-1-0.9-1.6-2.6-1.7h-4.5v0v0c0,0,0,0,0,0
			c-0.6,0.1-1.1,0.5-1.2,1.2v2.2H254.9z"/>
		<path class="st3" d="M298.6,89.9C298.5,89.9,298.5,89.8,298.6,89.9l0-15.3c0,0,0,0,0,0h3.1c0,0,0,0,0,0V84l6.5-5.5c0,0,0,0,0,0h4
			c0.2,0,0.4,0.2,0.4,0.4c0,0.1,0,0.2-0.1,0.3c0,0-4.4,3.8-5,4.2c-0.2,0.2-0.3,0.5-0.3,0.8c0,0.3,0.1,0.5,0.3,0.7l5,4.4c0,0,0,0,0,0
			c0.1,0.1,0.1,0.2,0.1,0.3c0,0.2-0.2,0.4-0.4,0.4h-4c0,0,0,0,0,0l-4.8-4.2c0,0,0,0,0,0c-0.2-0.2-0.4-0.2-0.6-0.2c-0.5,0-1,0.4-1,1
			v3.4c0,0,0,0,0,0H298.6z"/>
	</g>
</g>
</svg>
