<svg width="207" height="189" viewBox="0 0 207 189" fill="none" xmlns="http://www.w3.org/2000/svg">
<g clip-path="url(#clip0_24189_1229)">
<path d="M102.51 0.960022C107.89 2.51002 112.4 6.55002 114.98 11.53C117.28 15.99 118.09 21.36 116.43 26.1C114.77 30.84 110.4 34.71 105.4 35.08C103.56 35.22 101.5 34.78 100.41 33.29C99.2 31.63 99.71 29.09 101.27 27.76C102.83 26.43 105.16 26.24 107.08 26.95C109 27.67 110.54 29.18 111.67 30.9C115.59 36.9 114.57 45.09 111.03 51.32C107.48 57.55 101.82 62.24 96.28 66.79C88.55 73.14 80.82 79.49 73.08 85.84" stroke="#303035" stroke-width="2" stroke-miterlimit="10"/>
<path d="M5.9 168.23C5.37 164.93 6.7 161.58 9.36 159.55C38.49 137.29 54.44 115.17 54.44 115.17L81.83 70.72C82.73 68.97 84.38 67.71 86.31 67.32C93.08 65.94 98.01 67.72 99.12 74.55L101.04 86.31L126.17 78.93C128.18 78.34 130.15 77.64 132.04 76.74C135.76 74.96 139.19 72.61 142.17 69.73C148.02 64.1 152.77 55.07 151.86 45.42C151.57 42.34 152.85 39.32 155.22 37.34L155.38 37.2C159.35 33.9 165.2 34.27 168.74 38.03C174.35 43.97 185.62 57.34 188.76 68.68L199.52 74.37C202.49 76.31 204.64 79.28 205.53 82.71C208.44 87.6 206.83 93.92 201.95 96.83L159.61 122.02C153.45 125.69 146.9 128.66 140.09 130.89L132.05 133.08C130.29 133.66 128.69 134.63 127.36 135.91L121.49 141.6C116.03 146.9 109.97 151.54 103.43 155.43L69.19 175.8C62.43 179.82 55.2 182.99 47.65 185.18C39.06 187.67 28.18 189.85 20.07 188.19C16.16 187.39 12.76 184.92 10.72 181.48C8.29 177.4 6.65 172.89 5.89 168.2L5.9 168.23Z" fill="#6699FF"/>
<path d="M189.25 68.41C189.25 68.41 137.52 102.14 105.35 134.88C73.1801 167.61 29.2101 183.26 10.1801 181.48" stroke="#303035" stroke-width="2" stroke-miterlimit="10"/>
<path d="M161.55 34.96C161.55 34.96 173.6 50.98 137.33 73.99C134.71 75.65 131.94 77.06 129.06 78.21C123.59 80.4 113.64 83.91 101.03 86.3L93.23 86.79C89.84 87 86.69 88.61 84.54 91.24L58.45 123.7C56.15 126.5 52.83 128.36 49.21 128.53C47.54 128.61 45.73 128.36 43.98 127.48" stroke="#303035" stroke-width="2" stroke-miterlimit="10"/>
<path d="M14.0601 155.47C14.0601 155.47 17.4501 164.42 33.2601 159.12C49.0701 153.82 75.3401 141.06 84.2901 152.95" stroke="#303035" stroke-width="2" stroke-miterlimit="10"/>
<path d="M116.67 123.99C116.67 123.99 93.03 104.32 55 126.73" stroke="#303035" stroke-width="2" stroke-miterlimit="10"/>
<path d="M83.9999 93.14L68.7999 89.27" stroke="#303035" stroke-width="2" stroke-miterlimit="10"/>
<path d="M79.6799 98.22L65.4299 94.48" stroke="#303035" stroke-width="2" stroke-miterlimit="10"/>
<path d="M75.3599 103.29L62.0599 99.7" stroke="#303035" stroke-width="2" stroke-miterlimit="10"/>
<path d="M71.05 108.37L58.7 104.92" stroke="#303035" stroke-width="2" stroke-miterlimit="10"/>
<path d="M66.73 113.44L55.33 110.13" stroke="#303035" stroke-width="2" stroke-miterlimit="10"/>
<path d="M62.41 118.52L51.96 115.35" stroke="#303035" stroke-width="2" stroke-miterlimit="10"/>
<path d="M58.09 123.59L48.6 120.56" stroke="#303035" stroke-width="2" stroke-miterlimit="10"/>
<path d="M176.76 47.41C176.76 47.41 136.8 72.12 132.65 110.17" stroke="#303035" stroke-width="2" stroke-miterlimit="10"/>
<path d="M205.54 82.72C205.54 82.72 155.95 96.69 125.09 138.14" stroke="#303035" stroke-width="2" stroke-miterlimit="10"/>
<path d="M85.32 93.97C75 87.74 66.73 78.19 62.03 67.09C61.13 64.96 60.35 62.71 60.44 60.4C60.53 58.09 61.67 55.7 63.75 54.69C66.18 53.51 69.32 54.62 70.88 56.83C72.44 59.03 72.56 62.03 71.68 64.58C70.8 67.13 69.02 69.28 67.03 71.11C59.28 78.24 48.55 80.85 38.47 83.91C28.39 86.97 17.8 91.27 12.24 100.21C7.47997 107.86 7.02997 118.02 0.719971 124.44" stroke="#303035" stroke-width="2" stroke-miterlimit="10"/>
</g>
<defs>
<clipPath id="clip0_24189_1229">
<rect width="206.99" height="188.79" fill="white"/>
</clipPath>
</defs>
</svg>
