<?xml version="1.0" encoding="UTF-8"?>
<svg id="_圖層_1" xmlns="http://www.w3.org/2000/svg" version="1.1" xmlns:xlink="http://www.w3.org/1999/xlink" viewBox="0 0 160 160">
  <!-- Generator: Adobe Illustrator 29.4.0, SVG Export Plug-In . SVG Version: 2.1.0 Build 152)  -->
  <defs>
    <style>
      .st0 {
        fill: #d4e9ff;
      }

      .st1 {
        fill: #febe55;
      }

      .st2 {
        fill: #fff;
      }

      .st3 {
        fill: #076ed7;
      }

      .st4 {
        fill: none;
      }

      .st5 {
        clip-path: url(#clippath-1);
      }

      .st6 {
        fill: #cee5fd;
      }

      .st7 {
        fill: #353535;
      }

      .st8 {
        fill: #1e8bfa;
      }

      .st9 {
        clip-path: url(#clippath);
      }
    </style>
    <clipPath id="clippath">
      <path class="st4" d="M80,0h0c44.2,0,80,35.8,80,80s-35.8,80-80,80S0,124.2,0,80,35.8,0,80,0Z"/>
    </clipPath>
    <clipPath id="clippath-1">
      <rect class="st4" x="33.2" y="55.1" width="89.3" height="64.1" rx="5.3" ry="5.3"/>
    </clipPath>
  </defs>
  <g class="st9">
    <g>
      <path class="st2" d="M80,0h0c44.2,0,80,35.8,80,80h0c0,44.2-35.8,80-80,80h0C35.8,160,0,124.2,0,80h0C0,35.8,35.8,0,80,0Z"/>
      <rect class="st0" x="-1" y="80" width="162" height="80"/>
    </g>
  </g>
  <g>
    <g>
      <g>
        <rect class="st8" x="33.2" y="55.1" width="89.3" height="64.1" rx="5.3" ry="5.3"/>
        <g class="st5">
          <rect class="st3" x="29.5" y="54.7" width="96.7" height="21.7"/>
        </g>
      </g>
      <g>
        <path class="st2" d="M62.7,62.7h1.7l.8,3.2c.2.8.3,1.5.6,2.2h0c.2-.8.4-1.5.6-2.2l.8-3.2h1.6l-2.1,7h-1.9l-2.1-7Z"/>
        <path class="st2" d="M69.4,67c0-1.7,1.2-2.8,2.5-2.8s2.3,1.1,2.3,2.5,0,.6,0,.7h-3.2c.1.8.7,1.1,1.4,1.1s.8-.1,1.1-.3l.5.9c-.5.4-1.3.6-1.9.6-1.5,0-2.7-1-2.7-2.8ZM72.8,66.4c0-.6-.3-1-.9-1s-.9.3-1,1h1.9Z"/>
        <path class="st2" d="M75.8,64.3h1.3v.9h.2c.4-.7,1-1.1,1.5-1.1s.5,0,.6.1l-.3,1.4c-.2,0-.3,0-.6,0-.4,0-.9.3-1.2,1v3.1h-1.6v-5.3Z"/>
        <path class="st2" d="M80.5,62.7c0-.5.4-.8.9-.8s.9.3.9.8-.4.8-.9.8-.9-.3-.9-.8ZM80.6,64.3h1.6v5.3h-1.6v-5.3Z"/>
        <path class="st2" d="M83.7,64.4h.8c0,0,2.4,0,2.4,0v1.2h-3.2v-1.2ZM84.4,64c0-1.1.5-2,2-2s.8,0,1.1.2l-.3,1.2c-.2,0-.4-.1-.5-.1-.4,0-.6.2-.6.8v5.6h-1.6v-5.6Z"/>
        <path class="st2" d="M88.1,71.6l.3-1.2c0,0,.2,0,.4,0,.5,0,.8-.3.9-.7v-.3c0,0-2-5.2-2-5.2h1.6l.8,2.3c.2.5.3,1,.4,1.5h0c.1-.5.2-1,.4-1.5l.6-2.3h1.5l-1.8,5.4c-.5,1.3-1.1,2-2.3,2s-.5,0-.8-.1Z"/>
      </g>
      <g>
        <g>
          <rect class="st2" x="39.6" y="87.2" width="17.1" height="20.7" rx="1.9" ry="1.9"/>
          <path class="st6" d="M54.8,108.1h-13.4c-1.2,0-2.2-1-2.2-2.2v-16.9c0-1.2,1-2.2,2.2-2.2h13.4c1.2,0,2.2,1,2.2,2.2v16.9c0,1.2-1,2.2-2.2,2.2ZM41.5,87.4c-.9,0-1.6.7-1.6,1.6v16.9c0,.9.7,1.6,1.6,1.6h13.4c.9,0,1.6-.7,1.6-1.6v-16.9c0-.9-.7-1.6-1.6-1.6h-13.4Z"/>
        </g>
        <g>
          <rect class="st2" x="59.4" y="87.2" width="17.1" height="20.7" rx="1.9" ry="1.9"/>
          <path class="st6" d="M74.6,108.1h-13.4c-1.2,0-2.2-1-2.2-2.2v-16.9c0-1.2,1-2.2,2.2-2.2h13.4c1.2,0,2.2,1,2.2,2.2v16.9c0,1.2-1,2.2-2.2,2.2ZM61.3,87.4c-.9,0-1.6.7-1.6,1.6v16.9c0,.9.7,1.6,1.6,1.6h13.4c.9,0,1.6-.7,1.6-1.6v-16.9c0-.9-.7-1.6-1.6-1.6h-13.4Z"/>
        </g>
        <g>
          <rect class="st2" x="79.2" y="87.2" width="17.1" height="20.7" rx="1.9" ry="1.9"/>
          <path class="st6" d="M94.4,108.1h-13.4c-1.2,0-2.2-1-2.2-2.2v-16.9c0-1.2,1-2.2,2.2-2.2h13.4c1.2,0,2.2,1,2.2,2.2v16.9c0,1.2-1,2.2-2.2,2.2ZM81.1,87.4c-.9,0-1.6.7-1.6,1.6v16.9c0,.9.7,1.6,1.6,1.6h13.4c.9,0,1.6-.7,1.6-1.6v-16.9c0-.9-.7-1.6-1.6-1.6h-13.4Z"/>
        </g>
        <g>
          <rect class="st2" x="99" y="87.2" width="17.1" height="20.7" rx="1.9" ry="1.9"/>
          <path class="st6" d="M114.2,108.1h-13.4c-1.2,0-2.2-1-2.2-2.2v-16.9c0-1.2,1-2.2,2.2-2.2h13.4c1.2,0,2.2,1,2.2,2.2v16.9c0,1.2-1,2.2-2.2,2.2ZM100.9,87.4c-.9,0-1.6.7-1.6,1.6v16.9c0,.9.7,1.6,1.6,1.6h13.4c.9,0,1.6-.7,1.6-1.6v-16.9c0-.9-.7-1.6-1.6-1.6h-13.4Z"/>
        </g>
      </g>
      <path class="st7" d="M45.2,99.5c0-1,.7-1.7,1.5-2.1h0c-.6-.5-1.1-1.1-1.1-2,0-1.3,1.1-2.2,2.5-2.2s2.4.9,2.4,2.2-.6,1.5-1.1,1.9h0c.8.5,1.4,1.1,1.4,2.2s-1.1,2.2-2.8,2.2-2.8-.9-2.8-2.3ZM49.4,99.5c0-.9-.9-1.2-2-1.7-.5.4-.9.9-.9,1.6s.7,1.4,1.5,1.4,1.4-.5,1.4-1.2ZM49.3,95.5c0-.7-.4-1.3-1.2-1.3s-1.1.4-1.1,1.1.7,1.2,1.7,1.6c.4-.4.7-.9.7-1.4Z"/>
      <path class="st7" d="M66.1,99.4l1-1.7-1.7-.8.3-1,1.8.4.2-1.9h1.1l.2,1.9,1.8-.4.3,1-1.7.8,1,1.7-.9.6-1.3-1.5-1.3,1.5-.9-.6Z"/>
      <path class="st7" d="M85.6,99.4l1-1.7-1.7-.8.3-1,1.8.4.2-1.9h1.1l.2,1.9,1.8-.4.3,1-1.7.8,1,1.7-.9.6-1.3-1.5-1.3,1.5-.9-.6Z"/>
      <path class="st7" d="M104.7,97.7c0-3.2,1.6-4.5,3.2-4.5s1.7.4,2.2.9l-.8.9c-.3-.4-.8-.6-1.3-.6-1.1,0-1.9.8-1.9,3.3s.7,2.9,1.6,2.9,1.2-.6,1.2-1.6-.5-1.5-1.3-1.5-1.1.3-1.5,1v-1c.4-.7,1.2-1.1,1.8-1.1,1.4,0,2.4.8,2.4,2.6s-1.2,2.7-2.6,2.7-3-1.3-3-4Z"/>
    </g>
    <g>
      <path class="st1" d="M114.5,46.3l.9.5c.3.2.6-.2.5-.5l-1.7-3.7c-.2-.4-.8-.4-1,0l-1.2,2.5c-1.8,3.6-.3,8.1,3.3,9.9l1.2-2.5c-2.3-1.1-3.2-3.9-2.1-6.2Z"/>
      <g>
        <circle class="st7" cx="115.1" cy="65.6" r="16.9" transform="translate(31.1 168.1) rotate(-80.4)"/>
        <g>
          <path class="st2" d="M119.4,61.8c0,2.4-1.9,4.3-4.3,4.2s-4.3-1.9-4.2-4.3,1.9-4.3,4.3-4.2c2.4,0,4.3,1.9,4.2,4.3Z"/>
          <path class="st2" d="M115.1,65c-4.5,0-8.2,3.6-8.2,8.1h16.3c0-4.4-3.6-8.1-8.1-8.1Z"/>
        </g>
      </g>
      <g>
        <path class="st1" d="M125.1,35.6l1.5-.8-.2-1.7c-1.7-.9-3.8-.2-4.6,1.5s-.5,2.7.4,3.8l-2.6,5.1,1.2.6,3-3.7.8-3.6c-.3-.2-.5-.6-.3-1s.6-.5,1-.3h0Z"/>
        <path class="st1" d="M123.1,42.4l1.4-2.8c1.3,0,2.6-.6,3.3-1.9s.2-3.8-1.5-4.7l-1.3,2.4c.3.2.5.6.3,1s-.6.5-1,.3l-3.8,7.3c2.3,1.2,3.1,4,2,6.2-1.1,2-3.4,3-5.6,2.3l-.3,2.8c3.2.8,6.7-.7,8.3-3.8,1.6-3.1.8-7-2-9.2Z"/>
      </g>
    </g>
  </g>
</svg>