<?xml version="1.0" encoding="UTF-8"?>
<svg id="_圖層_1" data-name="圖層 1" xmlns="http://www.w3.org/2000/svg" xmlns:xlink="http://www.w3.org/1999/xlink" viewBox="0 0 160 160">
  <defs>
    <style>
      .cls-1 {
        fill: #d4e9ff;
      }

      .cls-2, .cls-3 {
        fill: #632900;
      }

      .cls-2, .cls-4 {
        fill-rule: evenodd;
      }

      .cls-5 {
        fill: #e53838;
      }

      .cls-6 {
        opacity: .6;
      }

      .cls-7 {
        fill: #fff;
      }

      .cls-8 {
        mask: url(#mask);
      }

      .cls-9 {
        fill: #ff2424;
      }

      .cls-10, .cls-11 {
        fill: none;
      }

      .cls-12 {
        clip-path: url(#clippath-1);
      }

      .cls-13 {
        fill: #cee5fd;
      }

      .cls-14 {
        fill: #e9f3ff;
      }

      .cls-15 {
        clip-path: url(#clippath-3);
      }

      .cls-11 {
        stroke: #ea6f17;
        stroke-linecap: round;
        stroke-linejoin: round;
        stroke-width: .96px;
      }

      .cls-4 {
        fill: #022446;
      }

      .cls-16 {
        clip-path: url(#clippath-2);
      }

      .cls-17 {
        fill: #f29554;
      }

      .cls-18 {
        fill: #1e8bfa;
      }

      .cls-19 {
        clip-path: url(#clippath);
      }
    </style>
    <clipPath id="clippath">
      <path class="cls-10" d="M80,0h0c44.18,0,80,35.82,80,80s-35.82,80-80,80S0,124.18,0,80,35.82,0,80,0Z"/>
    </clipPath>
    <clipPath id="clippath-1">
      <rect class="cls-10" x="57.33" y="46.56" width="37.97" height="37.97"/>
    </clipPath>
    <clipPath id="clippath-2">
      <rect class="cls-10" x="57.33" y="46.56" width="37.97" height="37.97"/>
    </clipPath>
    <mask id="mask" x="57.33" y="46.56" width="43.1" height="50.87" maskUnits="userSpaceOnUse">
      <g id="mask0_13835_218734" data-name="mask0 13835 218734">
        <path class="cls-13" d="M95.3,65.54c0,4.26-1.4,8.19-3.77,11.36-.21.29-.44.57-.67.84-.13.16-.26.31-.4.46-.12.13-.24.27-.36.4-3.46,3.65-8.35,5.93-13.78,5.93s-10.32-2.28-13.78-5.93h0s-.01-.01-.01-.01c-.26-.27-.51-.56-.75-.85-.23-.27-.45-.55-.66-.84-2.37-3.16-3.77-7.1-3.77-11.36,0-10.48,8.5-18.98,18.98-18.98s18.98,8.5,18.98,18.98Z"/>
      </g>
    </mask>
    <clipPath id="clippath-3">
      <rect class="cls-10" x="89.3" y="62" width="44.36" height="41.38"/>
    </clipPath>
  </defs>
  <g class="cls-19">
    <g>
      <path class="cls-7" d="M80,0h0c44.18,0,80,35.82,80,80h0c0,44.18-35.82,80-80,80h0C35.82,160,0,124.18,0,80h0C0,35.82,35.82,0,80,0Z"/>
      <rect class="cls-1" x="-1" y="80" width="162" height="80"/>
    </g>
  </g>
  <g>
    <g>
      <g>
        <path class="cls-7" d="M48.25,39.9c0-4.36,3.54-7.9,7.9-7.9h40.48c4.36,0,7.9,3.54,7.9,7.9v80.21c0,4.36-3.54,7.9-7.9,7.9h-40.48c-4.36,0-7.9-3.54-7.9-7.9V39.9Z"/>
        <path class="cls-4" d="M96.49,35h-40.48c-2.7,0-4.9,2.19-4.9,4.9v80.21c0,2.7,2.19,4.9,4.9,4.9h40.48c2.7,0,4.9-2.19,4.9-4.9V39.9c0-2.7-2.19-4.9-4.9-4.9ZM56.01,32c-4.36,0-7.9,3.54-7.9,7.9v80.21c0,4.36,3.54,7.9,7.9,7.9h40.48c4.36,0,7.9-3.54,7.9-7.9V39.9c0-4.36-3.54-7.9-7.9-7.9h-40.48Z"/>
      </g>
      <g class="cls-12">
        <g class="cls-16">
          <g>
            <path class="cls-13" d="M95.3,65.54c0,4.26-1.4,8.19-3.77,11.36-.21.29-.44.57-.67.84-.13.16-.26.31-.4.46-.12.13-.24.27-.36.4-3.46,3.65-8.35,5.93-13.78,5.93s-10.32-2.28-13.78-5.93h0s-.01-.01-.01-.01c-.26-.27-.51-.56-.75-.85-.23-.27-.45-.55-.66-.84-2.37-3.16-3.77-7.1-3.77-11.36,0-10.48,8.5-18.98,18.98-18.98s18.98,8.5,18.98,18.98Z"/>
            <g class="cls-6">
              <path class="cls-14" d="M92.66,75.19c-2.74,4.65-7.16,7.7-12.04,8.84-.54-1.15-.76-2.45-.6-3.71.26-2.05,1.46-3.89,2.97-5.3,1.5-1.42,3.3-2.48,5.07-3.54.43-.26.91-.58,1.01-1.07.06-.3-.03-.61-.11-.9-.49-1.7-.88-3.47-.63-5.21.25-1.8,1.19-3.5,2.58-4.66.71-.59,1.76-1.21,2.86-1.55,2.29,5.36,2.09,11.7-1.1,17.11Z"/>
              <path class="cls-14" d="M72.05,83.32c-.18.21-.39.41-.61.57-1.63-.44-3.23-1.1-4.76-2-6.78-4-10.16-11.56-9.17-18.9.04-.27.25-1.4.3-1.67-.07.29.05-.29,0,0,.42-1.86,1.14-3.69,2.16-5.42,1.17-1.99,2.65-3.69,4.35-5.07,1.35.41,2.39,2.02,2.61,3.73.19,1.47-.2,2.95-.7,4.34-.16.44-.33.91-.18,1.35.14.43.54.7.92.94,1.89,1.19,3.96,2.24,5.31,4.03,1.5,1.99,1.87,4.78.94,7.09-.77,1.91-2.29,3.39-3.81,4.77-.09.08-.18.17-.2.29-.03.2.16.35.33.46,1.26.78,2.8,1.5,3.18,2.94.23.88-.07,1.85-.66,2.55Z"/>
              <path class="cls-14" d="M90.5,56.89c-1.61,1.37-4.04,1.73-5.93.78-1.05-.53-1.9-1.42-2.45-2.46-.11-.2-.21-.41-.37-.57-.42-.41-1.09-.34-1.68-.34-2.25,0-5.63-1.42-6.44-3.53-.45-1.16.71-2.8.98-4.13,3.82-.35,7.79.46,11.35,2.56,2.49,1.47,4.52,3.42,6.05,5.66-.35.78-.86,1.48-1.51,2.03Z"/>
            </g>
            <g class="cls-8">
              <g>
                <path class="cls-17" d="M81.75,95.45c2.1.44,4.25-1.06,5.13-3,.89-1.94.76-4.19.33-6.28-.25-1.2-.6-2.42-1.38-3.36s-2.08-1.57-3.26-1.24c-1.31.36-2.08,1.69-2.58,2.94-1.26,3.14-3.2,9.92,1.75,10.95Z"/>
                <path class="cls-17" d="M95.28,91.39c-.71-8.48-5.58-10.58-5.58-10.58-2.61-7.62-7.15-9.24-7.15-9.24l-10.15,3.36,12.97,10c-3.18,3.96-1.73,9.15-1.73,9.15l-1.44.54c-.6.22-.98.75-.98,1.35,0,.81.7,1.46,1.55,1.46h6.53c3.5,0,6.25-2.79,5.98-6.04Z"/>
                <path class="cls-17" d="M99.74,78.25c-.91-1.79-1.76-3.2-3.21-4.58-1.23-1.16-3.31-2.42-4.99-2.19-.62.09-1.29.5-1.31,1.11-.02.7.75,1.12,1.39,1.42,2.14.99,4.15,2.49,5.17,4.61,1.02,2.11.83,4.91-.88,6.53-1.2,1.14-2.92,1.55-4.58,1.71l1.21,1.97c.27.44,2.17-.04,2.54-.16.8-.25,1.57-.68,2.25-1.17,2.77-2,3.97-6.2,2.41-9.26Z"/>
                <path class="cls-17" d="M70.13,71.86c-1.59,3.21-1.66,12.22-1.62,17.54,1.96,0,3.93.04,5.89.1l1.44-14.99c-.76-.35-5.71-2.65-5.71-2.65Z"/>
                <path class="cls-17" d="M78.55,71.86c-1.46,3.31-2.25,12.52-2.47,17.83,1.99,0,3.99.04,5.98.12l1.13-12.92c.24-2.71-1.9-5.03-4.64-5.03Z"/>
                <path class="cls-17" d="M80.48,72.31h-9.52v14.11h9.52v-14.11Z"/>
                <path class="cls-11" d="M83.21,80l-1.31,9.59M85.39,84.57c-1.16,1.38-3.18,5.19-1.96,9.37M71.88,85.23c.8.51,3.1,1.44,5.89,1.09"/>
                <path class="cls-17" d="M78.81,58.89s-3.12-.62-5.98,0c0,0-4.11-3.48-5.68-2.86-1,.4-1.3,5.92-1.16,11.1.15,5.19,4.9,7.5,10.37,7.5s9.63-3.42,9.75-8.3c.13-4.87.69-9.29-1.92-10.3-1.14-.44-5.39,2.86-5.39,2.86Z"/>
                <path class="cls-11" d="M72.45,74.19c2.28.46,7.57.73,10.48-1.82"/>
                <path class="cls-7" d="M70.9,59.68c-.3-.29-.69-.49-1.07-.67-.27-.13-.52-.27-.79-.39-.4-.2-.84-.41-1.29-.36-.18,1.04-.23,2.31-.04,3.34,0,.06.03.12.08.15.06.03.13,0,.18-.04.97-.58,1.93-1.17,2.9-1.75.04-.03.08-.05.09-.09.03-.07-.03-.14-.07-.19Z"/>
                <path class="cls-7" d="M84.03,61.74c.1.04.23.08.32.02.06-.03.08-.1.1-.15.44-1.15.53-2.43.24-3.61-.01-.06-.05-.15-.1-.18-.07-.03-.15,0-.23.01-1.86.3-3.52,2.13-3.49,2.19,0,0,2.66,1.51,3.16,1.72Z"/>
                <path class="cls-7" d="M75.74,70.11c2.14,0,3.87-1.29,3.87-2.88s-1.73-2.88-3.87-2.88-3.87,1.29-3.87,2.88,1.73,2.88,3.87,2.88Z"/>
                <path class="cls-3" d="M77.34,67.18c-.51.64-1.11.4-1.58-.08-.02-.35-.02-.24-.01-.59.2-.16.39-.37.54-.59.08-.12.15-.29.07-.4-.03-.05-.09-.07-.14-.09-.43-.16-.92-.14-1.34.06-.06.03-.13.08-.12.15,0,.04.02.06.04.09.15.25.32.51.54.69,0,.41,0,.35.02.76-.32.56-1.03.57-1.36.04-.15-.24-.51-.02-.37.23.46.77,1.47.83,1.98.12.63.55,1.41.71,2.03-.07.18-.22-.12-.55-.3-.32Z"/>
                <path class="cls-3" d="M71.83,64.41c.48,0,.86-.41.86-.91s-.39-.91-.86-.91-.86.41-.86.91.39.91.86.91Z"/>
                <path class="cls-3" d="M79.35,64.41c.48,0,.86-.41.86-.91s-.39-.91-.86-.91-.86.41-.86.91.39.91.86.91Z"/>
                <path class="cls-2" d="M64.03,64.57c.03-.12.15-.2.27-.17l5.01,1.14c.12.03.2.15.17.27-.03.12-.15.2-.27.17l-5.01-1.14c-.12-.03-.2-.15-.17-.27ZM69.49,67.31c.02.12-.06.24-.18.26l-5.01.91c-.12.02-.24-.06-.26-.18-.02-.12.06-.24.18-.26l5.01-.91c.12-.02.24.06.26.18Z"/>
                <path class="cls-2" d="M88.17,64.57c-.03-.12-.15-.2-.27-.17l-5.01,1.14c-.12.03-.2.15-.17.27.03.12.15.2.27.17l5.01-1.14c.12-.03.2-.15.17-.27ZM82.71,67.31c-.02.12.06.24.18.26l5.01.91c.12.02.24-.06.26-.18.02-.12-.06-.24-.18-.26l-5.01-.91c-.12-.02-.24.06-.26.18Z"/>
              </g>
            </g>
          </g>
        </g>
      </g>
      <g>
        <path class="cls-13" d="M89.73,94.15h-26.83c-.55,0-.99-.45-.99-1s.44-1,.99-1h26.83c.55,0,.99.45.99,1s-.44,1-.99,1Z"/>
        <path class="cls-13" d="M89.73,99.15h-26.83c-.55,0-.99-.45-.99-1s.44-1,.99-1h26.83c.55,0,.99.45.99,1s-.44,1-.99,1Z"/>
      </g>
      <g>
        <rect class="cls-18" x="57.84" y="105.16" width="36.94" height="11.78" rx="2.07" ry="2.07"/>
        <g>
          <path class="cls-7" d="M66.02,108.55h1.33l.67,2.59c.17.61.28,1.17.45,1.79h.03c.17-.62.29-1.18.45-1.79l.66-2.59h1.29l-1.68,5.57h-1.51l-1.68-5.57Z"/>
          <path class="cls-7" d="M71.57,111.31c0-1.82,1.03-2.86,2.53-2.86s2.53,1.05,2.53,2.86-1.03,2.91-2.53,2.91-2.53-1.09-2.53-2.91ZM75.34,111.31c0-1.12-.48-1.77-1.24-1.77s-1.24.66-1.24,1.77.48,1.82,1.24,1.82,1.24-.71,1.24-1.82Z"/>
          <path class="cls-7" d="M78.95,109.61h-1.53v-1.06h4.32v1.06h-1.53v4.51h-1.26v-4.51Z"/>
          <path class="cls-7" d="M83.04,108.55h3.49v1.06h-2.23v1.12h1.9v1.06h-1.9v1.28h2.32v1.06h-3.57v-5.57Z"/>
        </g>
      </g>
    </g>
    <g>
      <path class="cls-5" d="M58.59,35.84c0-6.18-5.01-11.18-11.18-11.18s-11.18,5.01-11.18,11.18,5.01,11.18,11.18,11.18c1.22,0,2.39-.2,3.49-.56l3.52,1.63-.18-3.4c2.65-2.04,4.36-5.25,4.36-8.85Z"/>
      <g>
        <path class="cls-7" d="M54.07,35.16c0-.56-.45-1.01-1.01-1.01h-3.37c-.03-.11-.04-.23-.01-.35.06-.32.27-.96.61-1.55.25-.44.35-2.5-.11-2.82-.46-.32-1.09-.2-1.4.26l-.57,2.08-1.13,1.64c-.2.3-1.27,1.52-1.27,1.52v5.5l1.76.51h3.9c.56,0,1.01-.45,1.01-1.01,0-.13-.03-.25-.07-.37.44-.11.77-.5.77-.98,0-.29-.13-.56-.33-.74.46-.09.81-.5.81-.99,0-.3-.13-.56-.33-.74.43-.12.74-.5.74-.97Z"/>
        <rect class="cls-7" x="41.79" y="34.46" width="3.67" height="6.49"/>
      </g>
    </g>
    <g class="cls-15">
      <g>
        <path class="cls-9" d="M97.04,103.38c-2.77,0-5.26-1.42-6.66-3.8-1.4-2.38-1.44-5.24-.1-7.66l14.44-25.95c1.36-2.45,3.95-3.97,6.76-3.97s5.4,1.52,6.76,3.97l14.44,25.95c1.34,2.42,1.31,5.28-.1,7.66s-3.89,3.8-6.66,3.8h-28.88Z"/>
        <path class="cls-7" d="M93.95,93.95l14.44-25.95c1.35-2.42,4.84-2.42,6.18,0l14.44,25.95c1.31,2.35-.4,5.24-3.09,5.24h-28.87c-2.7,0-4.4-2.89-3.09-5.24h0Z"/>
        <path d="M109.16,88.59l-.93-10.24v-.19c0-.49.4-.89.89-.89h4.7c.49,0,.89.4.89.89v.19l-.95,10.24c-.04.44-.41.77-.85.77h-2.91c-.44,0-.81-.33-.85-.77h0ZM109.02,93.42v-2.18c0-.38.31-.68.68-.68h3.53c.38,0,.68.31.68.68v2.18c0,.38-.31.68-.68.68h-3.53c-.38,0-.68-.31-.68-.68Z"/>
      </g>
    </g>
  </g>
</svg>