<svg width="221" height="220" viewBox="0 0 221 220" fill="none" xmlns="http://www.w3.org/2000/svg"><path d="M156.149 71.24v142.577a5.844 5.844 0 01-.96 3.213c-1.156 1.783-3.242 2.97-5.623 2.97H68.337c-3.636 0-6.583-2.768-6.583-6.183V71.239c0-3.415 2.947-6.182 6.583-6.182h81.229c3.636 0 6.583 2.767 6.583 6.182z" fill="#0664C4"/><path d="M151.035 212.737V72.006c0-.903-.774-1.635-1.729-1.635H68.594c-.954 0-1.728.732-1.728 1.635v140.731c0 .902.773 1.634 1.728 1.634h80.712c.955 0 1.729-.732 1.729-1.634z" fill="#fff"/><path d="M139.998 166.602H77.901c-1.454 0-2.633 1.107-2.633 2.473v27.831c0 1.365 1.178 2.473 2.633 2.473h62.097c1.455 0 2.634-1.108 2.634-2.473v-27.831c0-1.366-1.179-2.473-2.634-2.473z" fill="#0664C4"/><path d="M101.212 177.728c-.885-.67-2.214-1.005-4.048-1.005-1.833 0-3.12.118-4.039.263v12.264h2.966v-4.449c.27.037.624.06 1.02.06 1.751 0 3.277-.416 4.298-1.317.791-.688 1.209-1.725 1.209-2.944 0-1.219-.556-2.254-1.406-2.872zm-4.128 4.969c-.437 0-.747-.02-.997-.075v-3.669c.219-.049.634-.095 1.222-.095 1.51 0 2.344.682 2.344 1.826 0 1.259-.982 2.016-2.569 2.016v-.003zm13.266-5.875h-3.916l-4.039 12.429h3.094l.932-3.192h3.806l1.018 3.192h3.224l-4.119-12.429zm-3.495 7.145l.794-2.638c.212-.719.409-1.667.603-2.398h.043c.203.728.437 1.662.664 2.395l.825 2.641h-2.929zm14.55-7.146l-1.332 2.988a50.127 50.127 0 00-1 2.383h-.04a48.52 48.52 0 00-1.018-2.381l-1.348-2.99h-3.427l4.181 7.333v5.096h2.993v-5.192l4.365-7.24h-3.374v.003z" fill="#fff"/><path d="M131.827 117.643a22.467 22.467 0 00-18.92-26.067c-12.564-1.87-24.463 6.767-26.578 19.292a22.467 22.467 0 0018.92 26.067c12.564 1.871 24.464-6.766 26.578-19.292z" fill="#CEE5FD"/><path d="M127.374 120.153l-18.424-18.606-18.42 18.606 3.3 2.883 12.871-13.007v42.505h4.504v-42.496l12.868 12.998 3.301-2.883z" fill="#0664C4"/><path d="M166.385 109c15.464 0 28-12.536 28-28s-12.536-28-28-28-28 12.536-28 28 12.536 28 28 28z" fill="#EA6F17"/><path d="M176.36 80.055a1.44 1.44 0 00-1.339-.932h-1.185v-4.058c0-3.898-3.176-7.068-7.076-7.065-3.898 0-7.068 3.175-7.065 7.076v4.058h-1.183a1.44 1.44 0 00-1.34.937 10.254 10.254 0 00-.647 4.37c.345 5.083 4.468 9.2 9.551 9.536 5.991.395 10.971-4.35 10.968-10.254 0-1.293-.242-2.527-.679-3.668h-.005zm-8.707 8.168a.885.885 0 01-.883.883.886.886 0 01-.883-.883v-2.08a1.978 1.978 0 111.764 0v2.083l.002-.003zm-5.589-13.15c0-2.592 2.104-4.7 4.696-4.703a4.705 4.705 0 014.703 4.695v4.058l-9.396.006V75.07l-.003.002z" fill="#fff"/><path d="M141.966 19.37a8.185 8.185 0 008.185-8.185 8.185 8.185 0 10-8.185 8.185z" fill="#0664C4"/><path d="M24.779 80.471a8.236 8.236 0 100-16.471 8.236 8.236 0 000 16.471z" fill="#054C94"/><path d="M39.528 70.5l-.029 2.499 91.917 8.977.287-2.732L39.528 70.5z" fill="#EA6F17"/><path d="M148.5 22.86L146 24l12 25.998 2.5-1.141-12-25.998z" fill="#D9E3E8"/><path d="M134.061 64.383c-.299 0-.591-.078-.855-.226l-.217-.123a1.752 1.752 0 01-.669-2.38 1.75 1.75 0 012.38-.669l.217.124a1.749 1.749 0 01-.856 3.277v-.003zm-8.934-5.012c-.299 0-.591-.078-.852-.226l-.22-.12a1.752 1.752 0 01-.669-2.38 1.75 1.75 0 012.38-.67l.22.124a1.753 1.753 0 01.669 2.383 1.752 1.752 0 01-1.528.894v-.005zm-8.932-5.01c-.301 0-.593-.078-.854-.225l-.218-.124a1.75 1.75 0 01-.894-1.528c0-.299.078-.589.226-.852a1.743 1.743 0 012.377-.669l.22.124c.408.23.701.601.827 1.053a1.75 1.75 0 01-1.684 2.224v-.003zm-8.934-5.012a1.74 1.74 0 01-.854-.226l-.218-.123a1.75 1.75 0 01-.894-1.529 1.75 1.75 0 012.606-1.52l.217.123a1.75 1.75 0 01-.857 3.275zm-8.934-5.012c-.298 0-.59-.078-.854-.226l-.218-.124a1.75 1.75 0 01-.894-1.528 1.751 1.751 0 012.605-1.52l.218.123c.408.231.701.602.83 1.053.124.449.07.922-.161 1.33a1.748 1.748 0 01-1.526.894v-.002zM80.46 34.315c-.298 0-.59-.078-.851-.226l-.218-.12a1.744 1.744 0 01-.669-2.378 1.742 1.742 0 012.378-.669l.217.124a1.742 1.742 0 01.672 2.38 1.75 1.75 0 01-1.529.894v-.005zm-8.928-5.012c-.299 0-.591-.078-.855-.226l-.217-.121a1.754 1.754 0 01-.895-1.531c0-.298.078-.588.226-.849a1.748 1.748 0 012.38-.671l.218.123a1.75 1.75 0 01-.857 3.274z" fill="#054C94"/><path d="M130.385 18.988l-92.87 40.84 1.115 2.512L131.5 21.5l-1.115-2.512zm-3.438-9.235l-55.106 8.749.051 2.747L127 12.501l-.052-2.748z" fill="#D9E3E8"/><path d="M31.864 57.677a1.755 1.755 0 01-1.889-1.608c-.03-.364.057-.722.244-1.036l.128-.213a1.755 1.755 0 012.4-.601 1.755 1.755 0 01.605 2.4l-.128.213a1.76 1.76 0 01-1.36.845zm5.26-8.789a1.753 1.753 0 01-1.04-.24 1.765 1.765 0 01-.849-1.365c-.03-.364.057-.722.244-1.036l.128-.213a1.752 1.752 0 012.4-.603 1.752 1.752 0 01.604 2.397l-.128.215c-.291.483-.8.8-1.359.845zm5.26-8.789a1.755 1.755 0 01-1.886-1.608c-.03-.361.057-.719.244-1.033l.128-.215a1.752 1.752 0 012.4-.604c.4.24.685.623.797 1.074.115.454.046.924-.196 1.324l-.128.212a1.76 1.76 0 01-1.36.847l.001.003z" fill="#054C94"/><path d="M42.23 98.394a4.395 4.395 0 100-8.789 4.395 4.395 0 000 8.79z" fill="#D9E3E8"/><path d="M63.679 10.835l1.617-2.6-3.057-3.833-2.896.998-3.38-1.868-.698-2.984L50.392 0 49.05 2.752 45.337 3.82l-2.603-1.618a4556.778 4556.778 0 01-3.832 3.057l.998 2.896-1.868 3.381-2.983.698-.549 4.872 2.752 1.343 1.069 3.712-1.618 2.603 3.057 3.832 2.897-.997c1.35.744 2.03 1.123 3.38 1.867l.698 2.984 4.872.548 1.343-2.751 3.712-1.069 2.603 1.617 3.832-3.057-.997-2.896c.747-1.35 1.123-2.03 1.867-3.38l2.984-.698.549-4.873-2.752-1.343-1.069-3.711v-.003zM52.851 22.923a6.685 6.685 0 11-3.702-12.85 6.689 6.689 0 018.277 4.576 6.689 6.689 0 01-4.575 8.277v-.003z" fill="#EA6F17"/></svg>