<svg width="120" height="28" viewBox="0 0 120 28" fill="none" xmlns="http://www.w3.org/2000/svg"><path d="M26.186 4.38c.46.64.21 1.3-.75 1.98-.96.66-1.64.69-2.04.09.02-.08-.38-.59-1.2-1.53-.82-.94-1.36-1.5-1.62-1.68-.56-.56-.39-1.14.51-1.74.9-.62 1.73-.58 2.49.12 1.38 1.16 2.25 2.08 2.61 2.76zm-3.72 9.21c.38-.66 1.09-.76 2.13-.3 1.06.44 1.38 1.02.96 1.74-.9 1.66-2.35 3.49-4.35 5.49.86 2.46 1.74 3.69 2.64 3.69.62 0 .95-.95.99-2.85.1-1.42.64-1.79 1.62-1.11.98.68 1.39 1.57 1.23 2.67-.12 1.48-.5 2.67-1.14 3.57-.62.9-1.63 1.35-3.03 1.35-2.06 0-3.78-1.58-5.16-4.74-1.7 1.42-3.19 2.44-4.47 3.06-.72.4-1.48.12-2.28-.84-.78-.96-.82-1.61-.12-1.95 1.62-.72 3.5-1.96 5.64-3.72-.64-2.34-1.15-5.02-1.53-8.04h-6.09v3.42l3.42-.63c.8-.14 1.24.33 1.32 1.41.1 1.08-.25 1.7-1.05 1.86l-3.69.75v5.13c0 .98-.12 1.73-.36 2.25-.24.54-.66.95-1.26 1.23-1 .5-2.26.72-3.78.66-1.08.02-1.83-.57-2.25-1.77-.42-1.2.03-1.77 1.35-1.71 1.46.08 2.31.01 2.55-.21.1-.08.15-.24.15-.48v-4.35l-4.17.84c-.8.16-1.35-.36-1.65-1.56-.28-1.2.12-1.88 1.2-2.04 1.88-.3 3.42-.56 4.62-.78v-4.02h-4.44c-.82 0-1.23-.56-1.23-1.68 0-1.14.41-1.71 1.23-1.71h4.44V4.8c-1.3.22-2.44.39-3.42.51-.92.1-1.55-.35-1.89-1.35-.34-1-.04-1.56.9-1.68 3.8-.52 6.92-1.18 9.36-1.98.76-.24 1.54.15 2.34 1.17.8 1 .8 1.59 0 1.77l-3.69.93v4.05h5.76c-.2-2.3-.32-4.57-.36-6.81 0-.94.62-1.41 1.86-1.41 1.26 0 1.88.4 1.86 1.2-.04 1.86.07 4.2.33 7.02h6.93c.82 0 1.23.57 1.23 1.71 0 1.12-.41 1.68-1.23 1.68h-6.57c.24 1.8.53 3.49.87 5.07 1.2-1.44 1.96-2.47 2.28-3.09zm25.264 6.06h-7.17l-.39.51c-.3.42-.18.69.36.81 1.4.24 2.9.54 4.5.9l2.7-2.22zM36.75 8.4c-.52 0-.78.25-.78.75v1.26c0 .52.26.78.78.78h2.37V8.4h-2.37zm5.73-4.53v1.71h3.39V3.87h-3.39zm10.35 5.31c0-.52-.26-.78-.78-.78h-2.82v2.79h2.82c.52 0 .78-.25.78-.75V9.18zm-10.35 2.01h3.39V8.4h-3.39v2.79zm14.25 5.52c.82 0 1.23.49 1.23 1.47s-.41 1.47-1.23 1.47h-4.71l-2.7 3.21c2.94.7 5.34 1.35 7.2 1.95.76.22.6.75-.48 1.59-1.06.84-1.89 1.15-2.49.93-1.4-.54-3.97-1.3-7.71-2.28-3 1.4-7.07 2.27-12.21 2.61-1.04.1-1.78-.37-2.22-1.41-.44-1.02-.16-1.55.84-1.59 2.92-.12 5.53-.45 7.83-.99-2.42-.48-3.89-.76-4.41-.84-.98-.2-1.08-.77-.3-1.71.06-.04.43-.53 1.11-1.47h-4.47c-.82 0-1.23-.49-1.23-1.47s.41-1.47 1.23-1.47h6.39l1.5-2.73h-5.82c-.96 0-1.44-.48-1.44-1.44V7.02c0-.96.48-1.44 1.44-1.44h5.04V3.87h-6.66c-.82 0-1.23-.51-1.23-1.53 0-1.04.41-1.56 1.23-1.56h23.67c.82 0 1.23.52 1.23 1.56 0 1.02-.41 1.53-1.23 1.53h-6.9v1.71h5.73c.96 0 1.44.48 1.44 1.44v5.52c0 .96-.48 1.44-1.44 1.44H40.32l1.41.33c1.16.26 1.46.92.9 1.98l-.21.42h7.23l.21-.54c.3-.76 1.02-1 2.16-.72 1.16.28 1.64.7 1.44 1.26h3.27zM70.714 4.2c0-.52-.26-.78-.78-.78h-3.15c-.52 0-.78.26-.78.78v.75h4.71V4.2zm-4.71 4.71h3.93c.52 0 .78-.26.78-.78v-.84h-4.71v1.62zm8.07 1.14c0 .96-.48 1.44-1.44 1.44h-6.63v15.03c0 .82-.58 1.23-1.74 1.23-1.16 0-1.74-.41-1.74-1.23V2.31c0-.96.48-1.44 1.44-1.44h8.67c.96 0 1.44.48 1.44 1.44v7.74zm-.48 8.04h2.79v-2.25h-2.79v2.25zm9.21 1.47c0 .96-.41 1.44-1.23 1.44h-2.07v4.95c0 .82-.52 1.23-1.56 1.23s-1.56-.41-1.56-1.23V21h-2.88c-.44 3.04-1.41 5.02-2.91 5.94-.62.52-1.31.44-2.07-.24-.76-.68-.82-1.27-.18-1.77.98-.52 1.68-1.83 2.1-3.93h-1.8c-.82 0-1.23-.48-1.23-1.44 0-.98.41-1.47 1.23-1.47h1.92v-2.25h-1.5c-.82 0-1.23-.47-1.23-1.41s.41-1.41 1.23-1.41h12.03c.82 0 1.23.47 1.23 1.41s-.41 1.41-1.23 1.41h-1.59v2.25h2.07c.82 0 1.23.49 1.23 1.47zm-3.36-11.37c0 .52.26.78.78.78h4.08V7.29h-4.86v.9zm4.86-3.99c0-.52-.26-.78-.78-.78h-3.3c-.52 0-.78.26-.78.78v.75h4.86V4.2zm2.07-3.33c.96 0 1.44.48 1.44 1.44v21.27c0 .94-.11 1.67-.33 2.19-.2.52-.56.92-1.08 1.2-.82.46-1.9.67-3.24.63-1.12.04-1.86-.53-2.22-1.71-.36-1.18-.04-1.75.96-1.71.48.02 1.07.01 1.77-.03.42 0 .63-.2.63-.6v-12h-6.81c-.96 0-1.44-.48-1.44-1.44v-7.8c0-.96.48-1.44 1.44-1.44h8.88zm22.023 8.94h-2.88c-.52 0-.78.26-.78.78v.84h3.66V9.81zm6.93 1.62v-.84c0-.52-.26-.78-.78-.78h-3.09v1.62h3.87zm-3.87 4.17h3.87v-1.68h-3.87v1.68zm-6.72 0h3.66v-1.68h-3.66v1.68zm0 2.58v3.24c0 .82-.53 1.23-1.59 1.23-1.04 0-1.56-.41-1.56-1.23V8.67c0-.96.48-1.44 1.44-1.44h5.34l-2.91-1.26c-.74-.32-.73-.79.03-1.41.76-.64 1.53-.81 2.31-.51.46.16 1.26.47 2.4.93l2.46-1.62h-9.51c-.82 0-1.23-.44-1.23-1.32 0-.88.41-1.32 1.23-1.32l12.03-.18c.82 0 1.58.28 2.28.84.7.56.76 1.11.18 1.65-.96.94-2.45 2.03-4.47 3.27l1.8.93h2.07c.98 0 1.47.49 1.47 1.47l-.24 12.63c-.16.38-.51.71-1.05.99-.54.26-1.25.38-2.13.36-1.12.02-1.82-.41-2.1-1.29-.28-.88-.01-1.32.81-1.32h1.08c.3.02.45-.12.45-.42v-1.47h-3.87v3.15c0 .82-.51 1.23-1.53 1.23s-1.53-.41-1.53-1.23v-3.15h-3.66zm-6-14.88c.54.6.36 1.23-.54 1.89-.9.66-1.61.68-2.13.06l-2.4-2.97c-.5-.62-.31-1.2.57-1.74.88-.56 1.59-.54 2.13.06l2.37 2.7zm-1.05 10.59c.82-.02 1.51.08 2.07.3.56.2.76.75.6 1.65-.2 1.58-.69 3.3-1.47 5.16.84 1.28 2.01 2.13 3.51 2.55 1.52.4 3.63.61 6.33.63 4.16 0 7.61-.13 10.35-.39.76-.08.94.43.54 1.53-.38 1.1-.93 1.67-1.65 1.71-1.92.14-4.69.21-8.31.21-3.6 0-6.25-.24-7.95-.72-1.7-.48-3.1-1.41-4.2-2.79-.98 1.62-1.92 2.71-2.82 3.27-.66.52-1.38.38-2.16-.42-.76-.8-.82-1.41-.18-1.83 2.16-1.26 3.65-3.6 4.47-7.02.18-.68.01-1.02-.51-1.02h-1.77l-.81.06c-.68.26-1.21-.09-1.59-1.05-.38-.96-.2-1.61.54-1.95l.39-.36c.46-.46 1.21-1.43 2.25-2.91.48-.64.46-.96-.06-.96h-1.86c-.82 0-1.23-.47-1.23-1.41 0-.96.41-1.44 1.23-1.44h4.86l.21-.06c.82-.12 1.41 0 1.77.36.36.36.27.94-.27 1.74-1.2 1.78-2.31 3.32-3.33 4.62-.32.4-.22.59.3.57l.75-.03z" id="我要開通" fill="#fff"/></svg>