<svg xmlns="http://www.w3.org/2000/svg" viewBox="0 0 30.6 30.6"><defs><clipPath id="a"><path fill="none" d="M0 0h28.6v24.07H0z"/></clipPath></defs><path d="M30.27 12.16A15.3 15.3 0 1112.16.33a15.3 15.3 0 0118.11 11.83" fill="#fdd42c"/><path d="M30.27 12.16A15.3 15.3 0 013.47 25 15.3 15.3 0 0026 4.37a15.28 15.28 0 014.26 7.79" fill="#f6b033"/><g clip-path="url(#a)" opacity=".7"><path d="M28.6 7.75a15.32 15.32 0 00-13.78-6.47c.14.56-.86 1.29-2.23 1.65s-2.6.18-2.74-.38a15.3 15.3 0 00-8.74 17.13 15.15 15.15 0 001.65 4.39A15.3 15.3 0 1128.6 7.75" fill="#fff"/></g><path d="M26.55 12.94a11.49 11.49 0 11-13.61-8.89 11.48 11.48 0 0113.61 8.89" fill="#f19748"/><path d="M26.55 12.94a11.49 11.49 0 11-13.61-8.89 11.48 11.48 0 0113.61 8.89" fill="#f19748"/><path d="M26.55 12.94a11.5 11.5 0 01-21.34 7.87A11.5 11.5 0 0026 12a11.35 11.35 0 00-1.2-3.18 11.27 11.27 0 011.75 4.12" fill="#ec784b"/><path d="M4.05 17.66a11.5 11.5 0 0121.34-7.87 11.5 11.5 0 00-20.75 8.85 11.67 11.67 0 001.16 3.14 11.27 11.27 0 01-1.75-4.12" fill="#ec784b"/><path d="M19.53 17a3.29 3.29 0 01-2.07 3.58l.38 1.8-2 .42-.4-1.8a7.2 7.2 0 01-3.29-1.17l1.14-1.74a4 4 0 002.79.77c1-.21 1.5-.82 1.39-1.36-.35-1.62-5.74-.81-6.39-3.91A3.23 3.23 0 0113.14 10l-.38-1.79 2-.43.39 1.84a7.33 7.33 0 013.29 1.15l-1.12 1.74a4.13 4.13 0 00-2.81-.73c-1 .2-1.5.79-1.39 1.33.34 1.62 5.75.8 6.4 3.89" fill="#fdd42c"/></svg>