<svg version="1.1" id="圖層_1" xmlns="http://www.w3.org/2000/svg" x="0" y="0" viewBox="0 0 33 33" xml:space="preserve"><style>.st0{fill:#fff}</style><path class="st0" d="M31.4 10.3c0-1.2-.3-2.5-.7-3.7-.8-2-2.4-3.6-4.4-4.4-1.2-.4-2.4-.7-3.6-.7-1.6-.1-2.1-.1-6.2-.1s-4.6 0-6.2.1c-1.2 0-2.5.3-3.7.7-.9.4-1.8 1-2.6 1.8-.7.7-1.3 1.6-1.7 2.6-.4 1.2-.7 2.4-.7 3.7-.1 1.6-.1 2.1-.1 6.2s0 4.6.1 6.2c0 1.2.3 2.5.7 3.7.4 1 1 1.9 1.7 2.7.7.8 1.6 1.4 2.7 1.7 1.2.4 2.4.7 3.7.7 1.6.1 2.1.1 6.2.1s4.6 0 6.2-.1c1.2 0 2.5-.3 3.6-.7 2-.8 3.6-2.4 4.4-4.4.4-1.2.7-2.4.7-3.7.1-1.6.1-2.1.1-6.2s-.1-4.6-.2-6.2zm-2.7 12.3c0 1-.2 1.9-.5 2.8-.5 1.3-1.5 2.3-2.8 2.8-.9.3-1.8.5-2.8.5-1.6.1-2 .1-6.1.1s-4.5 0-6.1-.1c-1 0-1.9-.2-2.8-.5-.7-.2-1.2-.6-1.7-1.1-.5-.5-.9-1.1-1.1-1.7-.3-.9-.5-1.8-.5-2.8-.1-1.6-.1-2-.1-6.1s0-4.5.1-6.1c0-1 .2-1.9.5-2.8.3-.6.6-1.2 1.2-1.7.4-.5 1-.9 1.7-1.1.9-.3 1.8-.5 2.8-.5 1.6-.1 2.1-.1 6.1-.1s4.5 0 6.1.1c1 0 1.9.2 2.8.5 1.3.5 2.3 1.5 2.8 2.8.3.9.5 1.8.5 2.8.1 1.6.1 2 .1 6.1s-.1 4.5-.2 6.1z"/><path class="st0" d="M16.5 8.8c-4.3 0-7.7 3.4-7.7 7.7s3.4 7.7 7.7 7.7 7.7-3.4 7.7-7.7-3.4-7.7-7.7-7.7zm0 12.7c-2.8 0-5-2.2-5-5s2.2-5 5-5 5 2.2 5 5-2.2 5-5 5z"/><circle class="st0" cx="24.5" cy="8.5" r="1.8"/></svg>