<svg width="1938" height="360" viewBox="0 0 1938 360" fill="none" xmlns="http://www.w3.org/2000/svg"><g clip-path="url(#clip0_1254_2416)"><path d="M1935.47 12.874c-3.75-.986-7.76-1.683-11.93-2.072-6.25-.766-11.86-.836-17.16-.219-10.77 1.076-21.53 5.288-32.91 12.896-9.38 5.845-16.88 14.01-23.17 21.2l-.66.746-.75-.647c-10.93-9.45-61.85-25.482-106.71-12.367-33.89 9.908-56.55 33.627-67.36 70.491l-.37 1.274-1.12-.717c-2.95-1.872-17.82-2.957-32.02 3.525-8.68 3.963-19.53 12.119-21.89 28.41l-.32 2.18-1.44-1.682c-6.45-7.548-27.3-12.557-45.55-7.977-11.91 2.988-27.09 11.133-31.79 32.941l-.28 1.284-1.17-.617c-47.23-24.835-85.73-19.786-109.7-11.183-27.43 9.848-43.36 26.438-45.43 30.252l-.59 1.095-.94-.806c-13.71-11.78-30.41-16.809-49.62-14.917-37.18 3.654-73.77 32.193-85.09 46.662l-.79 1.006-.79-1.006c-20.94-26.786-54.58-42.788-89.97-42.788-43.53 0-83.34 23.978-101.43 61.08l-.56 1.155-.98-.836c-10.38-8.803-23.63-13.652-37.31-13.652-13.68 0-26.281 4.61-36.521 12.975l-.77.627-.64-.757c-17.04-20.393-44.89-32.571-74.51-32.571-14.49 0-28.34 2.778-41.17 8.255l-.7.298-.48-.597c-20.96-26.438-54.42-42.211-89.53-42.211-43.53 0-83.34 23.978-101.43 61.081l-.56 1.155-.98-.837c-10.38-8.802-23.63-13.652-37.31-13.652-13.68 0-26.28 4.611-36.52 12.975l-.77.628-.64-.757c-14.6-17.476-35.28-35.012-77.96-32.512l-.6.04-.31-.518a85.187 85.187 0 00-6.37-9.092c-9.91-12.377-23.53-21.757-38.36-26.417-16.12-4.8-32.92-5.019-47.27-.608l-1.18.359-.11-1.225c-.09-.976-.16-1.952-.23-2.928-.13-1.842-.27-3.744-.53-5.596-.93-7.18-3.43-14.369-7.45-21.389-9.02-15.704-24.78-27.494-43.23-32.363-24.71-6.701-46.75-4.112-67.4 7.907l-1.37.796-.13-1.573c-.33-3.944-9.39-16.062-24.84-24.207-14.37-7.578-37.37-13.314-65.32 2.42l-1.34.756-.15-1.523c-.22-2.28-15.15-25.443-46.58-45.936-32.62-21.26-86.89-41.633-160.34-18.003l-1.04-.518.47 6.94v348.998l1934.961-.837V12.117l-1 .757h.01z" fill="#FFE9C5"/><path d="M162.41 30.72c31.43 20.58 46.35 43.85 46.58 46.13l.15 1.53 1.34-.76c27.95-15.8 50.95-10.04 65.32-2.43 15.45 8.18 24.52 20.35 24.84 24.31l.13 1.58 1.37-.8c20.65-12.07 42.69-14.67 67.4-7.94 18.46 4.89 34.22 16.73 43.23 32.5 4.01 7.05 6.52 14.27 7.45 21.48.25 1.86.39 3.77.53 5.62.07.98.14 1.96.23 2.94l.11 1.23 1.18-.36c14.35-4.43 31.14-4.21 47.27.61 14.83 4.68 28.46 14.1 38.36 26.53 2.33 2.93 4.47 6.01 6.37 9.13l.31.52.6-.04c42.68-2.51 63.36 15.1 77.96 32.65l.64.76.77-.63c10.24-8.4 23.21-13.03 36.52-13.03 13.31 0 26.92 4.87 37.31 13.71l.98.84.56-1.16c18.08-37.26 57.9-61.34 101.43-61.34 35.1 0 68.57 15.85 89.53 42.39l.48.6.7-.3c12.83-5.5 26.68-8.29 41.17-8.29 29.62 0 57.48 12.23 74.51 32.71l.64.76.77-.63c10.24-8.41 23.21-13.03 36.52-13.03 13.31 0 26.92 4.87 37.31 13.71l.98.84.56-1.16c18.08-37.26 57.9-61.34 101.43-61.34 35.39 0 69.03 16.06 89.97 42.97l.79 1.01.79-1.01c11.33-14.53 47.92-43.2 85.09-46.86 19.21-1.9 35.9 3.14 49.62 14.98l.94.81.59-1.1c2.06-3.83 18-20.48 45.43-30.38 23.97-8.65 62.46-13.72 109.7 11.23l1.17.62.28-1.29c4.7-21.91 19.89-30.08 31.79-33.08 18.25-4.6 39.11.44 45.55 8.01l1.44 1.69.32-2.19c2.36-16.37 13.2-24.55 21.89-28.53 14.2-6.51 29.07-5.42 32.02-3.54l1.12.72.37-1.28c10.81-37.02 33.47-60.84 67.36-70.79 44.86-13.18 95.78 2.92 106.71 12.42l.75.65.66-.75c6.29-7.22 13.79-15.42 23.17-21.29 11.38-7.64 22.14-11.87 32.91-12.95 5.3-.62 10.91-.55 17.16.22 4.17.4 8.18 1.1 11.93 2.08l1-.76 1-.76-.73-.2c-4.07-1.12-8.45-1.91-12.98-2.34-6.39-.79-12.15-.86-17.59-.22-11.09 1.11-22.15 5.45-33.78 13.26-9.27 5.8-16.7 13.78-22.95 20.92-12.61-9.76-63.25-25.28-107.81-12.19-34.24 10.06-57.24 33.95-68.38 71.03-5.28-1.98-19.73-2.01-32.76 3.97-8.79 4.03-19.67 12.15-22.71 28.11-8.07-7.2-28.36-11.68-46.14-7.2-12.22 3.08-27.74 11.37-32.97 33.32-86.87-45.13-147.63 7.55-156.02 19.54-13.97-11.67-30.87-16.62-50.24-14.7-36.95 3.64-73.33 31.59-85.68 46.63-21.37-26.79-55.2-42.74-90.77-42.74-43.84 0-83.99 24.03-102.66 61.32-10.59-8.63-23.9-13.36-37.62-13.36-13.72 0-26.55 4.56-37.02 12.87-17.46-20.48-45.57-32.68-75.42-32.68-14.5 0-28.37 2.74-41.26 8.16-21.36-26.66-55.18-42.56-90.62-42.56-43.84 0-83.99 24.03-102.66 61.32-10.59-8.63-23.9-13.36-37.62-13.36-13.72 0-26.55 4.56-37.02 12.87-14.82-17.6-35.83-34.98-78.39-32.65a90.15 90.15 0 00-6.2-8.83c-10.15-12.73-24.12-22.39-39.34-27.2-16.07-4.81-32.8-5.14-47.26-.97-.04-.56-.09-1.12-.13-1.69-.14-1.88-.28-3.82-.54-5.73-.96-7.46-3.55-14.93-7.69-22.21-9.28-16.23-25.49-28.42-44.45-33.44-24.42-6.65-47.2-4.14-67.74 7.46-1.88-5.84-11.69-17.1-25.59-24.45-14.63-7.75-37.93-13.64-66.2 1.88-2.8-6.24-18.69-27.69-47.03-46.26C130.48 7.42 75.52-13.3 1.2 10.82L0 11.6l1.04.52 1.04.52C75.52-11.1 129.8 9.36 162.41 30.73v-.01z" fill="#58393E"/></g><defs><clipPath id="clip0_1254_2416"><path fill="#fff" d="M0 0h1938v360H0z"/></clipPath></defs></svg>