<svg width="1969" height="547" viewBox="0 0 1969 547" fill="none" xmlns="http://www.w3.org/2000/svg"><g clip-path="url(#clip0_1226_919)" fill="#F4CA8F"><path d="M1897.53 397.791h-16.84c-5.58 0-10.13-4.548-10.13-10.093s4.57-10.093 10.13-10.093h77.9c5.58 0 10.13-4.548 10.13-10.093s-4.55-10.128-10.13-10.128h-136.71c-5.56 0-10.13 4.548-10.13 10.093 0 4.093 2.51 8.554 7.73 9.953h3.18l17.19.14c5.58 0 10.13 4.548 10.13 10.093s-4.57 10.093-10.13 10.093h-52.72c-5.56 0-10.13 4.548-10.13 10.093 0 5.546 4.57 10.094 10.13 10.094h110.35c5.58 0 10.13-4.548 10.13-10.094 0-5.545-4.53-10.058-10.08-10.093v.035zM422.532 160.188h-16.84c-5.584 0-10.132-4.548-10.132-10.093s4.566-10.093 10.132-10.093h77.897c5.584 0 10.132-4.549 10.132-10.094 0-5.545-4.548-10.128-10.132-10.128H346.884c-5.567 0-10.133 4.548-10.133 10.093 0 4.094 2.512 8.554 7.727 9.954h3.178l17.191.14c5.585 0 10.133 4.548 10.133 10.093s-4.566 10.093-10.133 10.093h-52.715c-5.566 0-10.132 4.548-10.132 10.093s4.566 10.093 10.132 10.093H422.48c5.584 0 10.132-4.548 10.132-10.093s-4.531-10.058-10.08-10.093v.035zM1442.1 0h136.26c5.55 0 10.1 4.522 10.1 10.036 0 4.07-2.51 8.506-7.7 9.897h-3.17l-17.14.14c-5.56 0-10.1 4.522-10.1 10.036 0 5.514 4.55 10.036 10.1 10.036H1613c5.54 0 10.1 4.522 10.1 10.036 0 5.514-4.56 10.037-10.1 10.037h76.71c5.53 0 10.07 4.505 10.07 10.001 0 5.497-4.54 10.002-10.07 10.002h-95.2c-5.53 0-10.06-4.505-10.06-10.002 0-5.496 4.53-10.001 10.06-10.001h-91.5c-5.57 0-10.1-4.523-10.1-10.037 0-5.514 4.52-10.001 10.05-10.036h16.78c5.57 0 10.1-4.522 10.1-10.036 0-5.514-4.55-10.036-10.1-10.036h-77.64c-5.57 0-10.1-4.523-10.1-10.037C1432 4.522 1436.55 0 1442.1 0zM10.1 466.585h136.259c5.548 0 10.099 4.522 10.099 10.036 0 4.07-2.503 8.506-7.702 9.897h-3.168l-17.135.14c-5.566 0-10.099 4.522-10.099 10.036 0 5.514 4.551 10.036 10.099 10.036h52.544c5.548 0 10.099 4.523 10.099 10.036 0 5.514-4.551 10.037-10.099 10.037h76.714c5.531 0 10.064 4.505 10.064 10.001 0 5.497-4.533 10.002-10.064 10.002h-95.197c-5.531 0-10.064-4.505-10.064-10.002 0-5.496 4.533-10.001 10.064-10.001H71.009c-5.566 0-10.099-4.523-10.099-10.037 0-5.513 4.516-10.001 10.047-10.036h16.785c5.566 0 10.099-4.522 10.099-10.036 0-5.514-4.55-10.036-10.1-10.036H10.1c-5.566 0-10.1-4.523-10.1-10.037 0-5.514 4.551-10.036 10.1-10.036z"/></g><defs><clipPath id="clip0_1226_919"><path fill="#fff" d="M0 0h1968.72v546.806H0z"/></clipPath></defs></svg>