<svg width="220" height="363" viewBox="0 0 220 363" fill="none" xmlns="http://www.w3.org/2000/svg"><g clip-path="url(#clip0_1259_6023)"><path d="M164.536 305.907l.02-.006a15.41 15.41 0 014.583-2.299l.181-.057.151-.12c.56-.457 1.233-.95 1.986-1.122l.048-.015.048-.015.048-.015c.773-.241 1.584.177 2.638.937a52.046 52.046 0 016.081 5.457c2.371 2.498 4.669 5.332 7.011 8.645-.193.154-.388.299-.581.454-4.366 3.802-8.686 7.652-13.304 11.083.33.452.659.905.986 1.347-1.433-1.773-2.805-3.587-4.146-5.369-.805-1.068-1.613-2.147-2.437-3.21-.763-1.071-1.685-2.114-2.589-3.131-2.068-2.33-4.024-4.538-4.445-7.402.31-1.825 1.665-3.694 3.724-5.153l-.003-.009zm16.797-28.503c.994-.069 1.982-.125 2.977-.195 1.53-.163 3.359-.01 3.546 1.565l.032.169c1.223 4.091 1.558 7.548 1.018 10.587-.321 1.692-.736 3.382-2.063 3.796l-.029.009a61.65 61.65 0 01-3.098.882c.743-5.176-.405-12.014-2.383-16.813zm-26.261 14.779l-.016-.12c-1.025-4.395-1.316-8.148-.906-11.471.023-.196.077-.558.784-.779a4.23 4.23 0 01.882-.159 129.87 129.87 0 015.958-.78c5.242-.555 10.626-.894 15.823-1.226l1.016-.065c.167 1.508.381 3.002.497 4.516.464 4.308.005 8.714.237 13.02-.872.126-1.753.222-2.646.281-2.215.188-4.477.055-6.666-.079-1.09-.069-2.186-.125-3.277-.162a139.357 139.357 0 01-7.33-.364c-2.722-.23-4.146-.698-4.349-2.625l-.007.013zm33.828 27.59c-.491-.769-.973-1.54-1.448-2.324.006.019.018.025.034.041.365.567.774 1.173 1.19 1.766 1.254 1.84 2.445 3.574 3.143 5.546.406 1.067.141 2.166-.67 2.89l-.096.093c-2.421 2.819-5.07 5.677-8.515 7.024-2.656 1.09-3.848.425-5.857-1.987-.096-.106-.186-.225-.282-.331 5.049-2.988 9.362-7.465 12.513-12.711l.007-.013-.019.006zM88 165.988c.402.65.947 1.223 1.468 1.784.753.802 1.46 1.556 1.67 2.465-.017.183-.266.459-.483.705l-.1.115a51.799 51.799 0 00-1.415 1.677c-4.485 6.04-8.931 11.03-13.61 15.275l-.119.121c-2.612 2.574-5.314 5.229-8.43 7.164-.944.599-1.962.591-2.738-.015l-.094-.065c-2.234-1.388-4.76-3.439-7.503-6.124a26.83 26.83 0 00-.62-.645c-1.544-1.592-3.138-3.243-2.803-5.159.463-1.705 1.305-3.34 2.206-4.815 3.686 4.193 8.406 7.539 13.035 10.862a67.353 67.353 0 003.216 1.982c1.14-.911 2.225-1.867 3.32-2.826-.46-.329-1.004-.599-1.535-.821a45.942 45.942 0 01-5.023-3.042c-2.825-2.105-5.67-4.244-7.974-6.826a49.513 49.513 0 00-2.52-2.775c-.395.479-.803.952-1.208 1.434 4.274-6.413 9.755-12.05 16.324-16.749.211-.129.47-.304.737-.492 1.56-1.042 3.17-2.13 4.694-1.642 4.117 2.32 7.313 5.146 9.509 8.39l-.004.022zm6.156-40.791l.02.13.058.118c.085.172.46 1.04.005 1.36l-.068.052c-1.967 1.651-4.27 2.966-6.67 4.27-6.646 3.549-12.805 6.371-18.798 8.617-3.705 1.354-3.878 1.303-6.249-1.833-1.47-1.993-4.95-8.313-4.41-11.352.093-.51.29-.855.61-1.07l.144-.108c6.226-5.932 14.68-8.621 22.865-11.226l.343-.107c.366-.072.855-.214 1.358-.35 1.6-.446 3.256-.911 4.402-.126 1.51 1.383 2.703 2.792 3.664 4.325 1.333 2.161 2.277 4.685 2.736 7.297l-.01.003zM74.73 136.429a429.07 429.07 0 00-2.488-4.618c-2.073-3.691-4.113-7.611-6.2-11.213-.037-.052-.067-.115-.094-.17a42.747 42.747 0 00-3.167 1.805c1.39 2.677 2.67 5.4 4.152 8.038 1.268 2.287 2.393 4.114 3.552 6.319.338.513.599 1.249.911 1.947a168.68 168.68 0 003.685-1.484c-.116-.205-.235-.419-.348-.614l-.003-.01zm101.482 110.445c.768-.156 1.585-.326 2.496-.527.321-.047.75-.15 1.204-.271 2.473-.603 3.23-.525 3.506.394 1.273 3.511 2.143 6.937 2.613 10.226.664 4.109-1.214 4.705-1.835 4.899-2.379 1.003-4.789 1.807-7.225 2.494.304-1.645.157-3.16.363-4.848.32-3.578.31-8.581-1.125-12.376l.003.009zm-2.166 17.981a97.78 97.78 0 002.886-.754c-.963.27-1.92.526-2.886.754zm-61.291-17.611c.791.591 1.359 1.168 1.78 1.78 1.153 1.547.511 3.486-.177 5.545-.205.619-.42 1.272-.574 1.886-2.278 6.838-5.352 13.338-9.101 19.253-.108.159-.2.334-.307.493-1.114-.616-2.291-1.097-2.999-1.62-2.504-1.514-4.988-3.096-7.333-4.941-2.029-1.567-3.878-3.4-5.685-5.298-.273-.271-.561-.59-.874-.922 2.049-5.185 4.702-10.045 7.126-14.299.349-.56.68-1.145 1.027-1.745 1.198-2.102 2.43-4.267 4.426-5.256.528.013 1.091.173 1.676.336.585.163 1.202.327 1.861.394 2.925.376 5.94 1.814 9.176 4.397l-.022-.003zm-26.808 20.72c.232.241.45.467.635.692a163.552 163.552 0 003.268 3.359c2.84 2.592 7.695 6.84 12.012 8.458-.888 1.418-1.881 2.734-3.158 3.645-.872.597-1.95.263-3.51-.309l-.462-.17c-3.676-1.441-7.47-3.191-10.071-6.161-1.5-1.721-.181-5.485.773-8.234.232-.669.446-1.291.615-1.826.276-.861.565-1.715.878-2.557-.16.459-.309.924-.444 1.396a34.389 34.389 0 01-.53 1.726l-.007-.019zm56.356-12.222c.097-.732.014-1.502-.063-2.253-.147-1.411-.205-2.335.4-2.88 1.732-.258 3.556-.355 5.32-.444 1.38-.074 2.814-.145 4.212-.298 1.537-.175 3.106-.319 4.665-.459 1.825-.161 3.707-.339 5.546-.556 2.999-.36 6.147-.776 9.57-1.257.077 1.359.277 2.669.271 3.257.198 4.16.563 8.32.567 12.498-.008.547-.015 1.094.108 1.622.017.057.051.099.069.156-4.225.962-8.457 1.6-12.56 2.115-4.766.502-9.421.424-13.842-.219-1.464-.193-2.332-.456-2.51-1.228l-.021-.067-.021-.067a25.684 25.684 0 01-1.736-9.902l.025-.018zm12.989 66.875c-.004.221.011.437.006.658-.022.332-.03.743-.038 1.154-.037 2.232-.164 3.738-1.512 4.221-3.675 1.147-7.56 1.52-11.264 1.03a18.182 18.182 0 00-1.01-.114c-1.922-.186-2.743-.401-2.824-1.298a82.433 82.433 0 01-.6-5.417c.043.374.065.744.115 1.106 4.026.954 12.624-.093 17.143-1.355l-.016.015zm-89.977-85.311l.028-.145c.213-2.004.732-3.968 1.37-5.885 1.098 1.271 2.276 2.36 2.76 2.701 3.48 2.728 7.366 4.711 11.288 6.305.538.178 1.18.46 1.83.697.922-1.345 1.815-2.849 2.677-4.417-.71-.428-1.504-.725-2.15-.984-2.657-1.131-5.724-2.636-8.128-3.929-2.351-1.257-4.672-2.586-6.89-4.157.096-.229.18-.465.276-.694.489-1.252.988-2.539 1.444-3.833 1.328-3.432 2.965-7.085 4.99-11.141 1.534-3.307 2.984-5.781 4.58-7.818.132-.146.3-.377.489-.614.691-.907 1.274-1.591 1.873-1.516 4.862.945 9.312 3.423 13.393 5.963.209.165.498.557.383.96l-.02.1c-.583 3.272-1.542 6.714-2.926 10.539l-1.082 2.778c-2.808 7.255-7.047 18.214-11.952 22.572-.394.248-.924.361-1.572.333-1.808-.054-3.7-.376-5.659-.98-5.65-1.558-7.804-3.662-6.99-6.828l-.012-.007zm72.903-25.941c1.427-2.309 2.386-4.808 3.295-7.27 1.109-2.86 2.228-5.786 2.46-8.771.231.033.461.066.684.112.331.085.804.158 1.302.243 1.472.254 3.455.599 4.05 1.534.319 3.274.322 9.16-2.826 13.242-.891 1.105-2.449 1.183-4.235 1.164-1.68.021-3.333-.04-4.928-.182a29.747 29.747 0 01-.921-.1l.502.032c.202.01.415-.014.617-.004zm-12.586-95.848c.8.515 1.58 1.068 2.366 1.608.39.277.79.55 1.189.823 4.998 3.533 9.479 7.823 13.755 12.23-.882 1.103-1.595 2.613-2.234 3.452-2.296 3.722-5.23 6.774-8.143 9.83.685.718 1.367 1.427 2.052 2.146-.441-.407-.892-.811-1.333-1.218-2.097-1.923-4.266-3.907-6.443-5.816a276.138 276.138 0 00-2.898-2.71c-3.048-2.82-6.202-5.744-8.791-9.043l-.087-.109c-1.882-2.409-2.225-2.836-.465-4.883 2.189-2.757 7.821-7.268 11.029-6.32l.003.01zm12.737 46.789c-.405-.324-.79-.654-1.179-.994.77.588 1.578 1.132 2.349 1.656 1.552 1.045 3.016 2.045 4.247 3.306.457.423.562 1.029.384 2.205-.278 3.91-2.513 7.729-5.832 10.052-3.065 1.993-5.224 1.42-8.379-.602 3.551-4.03 7.003-9.789 8.407-15.632l.003.009zm-29.212-14.899c1.516-1.824 3.894-3.571 5.105-3.215.547.311 1.078.669 1.627 1.053.296.211.599.41.902.609 2.864 1.893 5.666 4.026 8.371 6.084 1.346 1.025 2.696 2.061 4.068 3.068 2.139 1.585 4.243 3.296 6.292 4.961-.675 1.698-1.34 3.393-2.134 5.013-1.919 3.856-4.284 7.359-6.84 10.649.349.279.714.542 1.063.821-5.439-3.499-10.527-7.454-14.931-10.962-.28-.258-.774-.67-1.356-1.159-4.591-3.837-6.79-6.252-6.515-7.186.825-3.703 2.28-6.964 4.345-9.746l.003.01zm6.409 42.311c.114-.004.388.068.561.119l.138.04c.425.119.853.216 1.281.313.236.052.463.107.69.162l.789.215c4.192 1.112 8.524 2.275 12.888 2.999 1.996.32 4.018.591 5.967.863 1.192.162 2.407.328 3.615.506-.313-.028-.638-.063-.95-.091-1.318 4.308-2.51 8.681-4.539 12.823-.591 1.127-1.308 2.22-1.947 3.33-7.004-.895-12.714-2.445-17.738-4.817l-.413-.217c-5.105-2.63-5.518-2.846-4.25-8.354.641-2.881 1.608-6.063 3.895-7.897l.013.006zm30.042-56.36a283.022 283.022 0 00-2.597-3.087 586.76 586.76 0 014.408 4.628l.828.873c.117.142.278.322.439.502 1.17 1.301 1.849 2.168 1.443 3.216-1.405 4.23-4.102 7.47-7.235 8.709l-.039.012c-.9.406-3.968 1.552-5.843-.398-.659-.601-1.315-1.193-1.946-1.771 3.178-2.406 8.543-8.143 10.542-12.684zm13.444 88.825c1.675-.103 3.285-.144 4.904.042.189.035.794.193 1.006.64.588 1.178 1.023 2.572 1.382 4.398.023.275.082.665.131 1.09.36 2.8.91 7.017-1.121 8.363-3.038 1.042-6.342 1.297-9.611 1.426a79.16 79.16 0 003.768-.379c.772-3.938.872-11.009-.459-15.58zm-8.687 73.447c1.947.231 2.765.939 2.981 2.538.386 1.911.554 3.86.717 5.726.072.836.141 1.663.233 2.493l.224 2.434c.299 3.175.578 6.419.711 9.667-5.263.96-10.612 1.78-16.035 1.219a10.47 10.47 0 00-1.381-.03c-.154-2.676-.241-5.341-.329-7.974-.06-1.804-.117-3.599-.195-5.397.006-.515.01-1.04.014-1.565.02-2.992.04-6.088.942-8.904.106-.4.36-.626.828-.772.353-.11.835-.176 1.475-.24l.286-.026c3.263-.452 6.596.227 9.535.818l-.006.013zm-18.804-17.065c1.006.168 1.158.623.994 2.717-.046.59-.096 1.203-.041 1.783.056 2.465.199 5.039.347 7.528.288 5.022.579 10.221.173 15.302-.091.615-.161 1.465-.229 2.355-.106 1.238-.227 2.732-.457 4.144.111-1.155.185-2.33.231-3.424-.217-.058-.424-.119-.658-.13-3.995-.179-8.01-.121-11.989-1.226-1.606-.18-3.357-1.426-4.901-.902.088 1.188.166 2.378.253 3.566.018.257.035.482.056.716.481.301.995.538 1.469.747 4.907 2.062 10.438 3.239 15.345 1.709-.31 1.427-.757 2.645-1.442 3.236-2.873 1.807-7.177 1.002-10.647.356l-.634-.117c-3.638-.751-4.256-2.161-4.333-6.306-.06-1.5-.123-2.978-.173-4.45-.104-2.785-.209-5.675-.382-8.512l-.109-2.669c-.149-3.264-.298-6.632-.041-9.907.347-3.722.712-5.878 4.178-6.687 3.719-.94 7.959-.879 13 .168l-.01.003zm-4.908-52.385c.085-.602.176-1.217.192-1.872l.022-.164c.053-.467.104-.975.299-1.224.581-.286 1.314-.253 2.142-.218.351.016.699.023 1.043.02 4.571.178 9.317.049 13.9-.071 2.803-.078 5.712-.157 8.539-.159 1.559.027 3.146-.091 4.682-.203.247-.015.482-.035.719-.047a122.09 122.09 0 01-3.346.29c.277 1.694.545 3.391.682 5.108.195 3.48-.133 7.029-.258 10.524l-1.472.051-1.598.048c-6.404.122-13.017.246-19.432-.54l-.852-.111c-.972-.126-1.887-.239-2.8-.447-.271-.062-.702-.168-.876-.324-1.227-2.288-1.797-5.158-1.759-8.763-.006-.627.085-1.242.173-1.898z" fill="#F94B4B"/><path d="M63.41 236.848c.412-3.816 1.804-7.382 3.151-10.819.486-1.231.98-2.505 1.428-3.787 1.362-3.525 3.022-7.238 5.062-11.31 1.582-3.426 3.12-6.021 4.841-8.224.14-.159.289-.352.445-.558.769-.993 1.92-2.505 3.776-2.267 2.294.437 4.496 1.217 6.61 2.15.454-.592.92-1.177 1.406-1.737 1.7-2.007 3.682-3.746 5.725-5.389.814-.516 2.285-2.179 3.657-3.12-2.686-12.476-4.514-25.126-3.968-37.918 0-.671.045-1.334.06-1.989a9.067 9.067 0 00-.548.559c-2.847 2.93-5.767 5.727-9.13 8.043 1.464 1.366 2.738 2.833 3.796 4.41.315.509.77.995 1.251 1.495.89.938 1.894 2.007 2.187 3.519l.01.101c.094 1.039-.559 1.767-.986 2.245l-.093.103a39.882 39.882 0 00-1.33 1.578c-4.545 6.12-9.069 11.197-13.82 15.507l-.097.093c-2.693 2.652-5.473 5.394-8.764 7.436a4.945 4.945 0 01-1.188.559c-1.317.411-2.695.191-3.808-.656-2.35-1.456-4.977-3.601-7.833-6.408-.201-.21-.406-.429-.623-.655-1.714-1.769-3.838-3.977-3.308-6.981.713-2.653 2.13-4.991 3.411-6.93 4.454-6.846 10.242-12.841 17.247-17.854.244-.16.487-.32.747-.495 1.81-1.214 4.054-2.72 6.548-1.843l.157.066c1.52.846 2.91 1.774 4.197 2.745 3.255-2.125 6.473-4.302 9.516-6.738.828-.636 1.678-1.236 2.515-1.843.57-9.626 3.056-19.022 6.162-28.14.643-2.002 1.38-3.971 2.146-5.917-3.125 1.267-6.382 2.21-9.579 3.312a23.277 23.277 0 011.75 5.509c.66 1.512.405 2.911-.68 3.7-2.093 1.752-4.485 3.116-6.972 4.479-6.737 3.588-12.967 6.453-19.053 8.738a26.22 26.22 0 01-1.382.473c-3.408 1.063-4.581.423-7.162-2.983-1.523-2.06-5.472-8.947-4.778-12.903.184-1.021.652-1.806 1.399-2.332 6.548-6.211 15.21-8.965 23.577-11.627l.44-.136c.422-.09.874-.221 1.328-.342 1.89-.526 4.24-1.185 6.164.215l.084.068c1.64 1.5 3.01 3.105 4.06 4.789.104.166.18.342.284.508.417-.14.84-.293 1.264-.415.678-.075 6.794-1.993 9.803-2.387 1.955-4.883 4.01-9.714 5.114-14.908.097-.428.169-.87.266-1.298-.988-.95-1.968-1.91-2.959-2.87-3.284-3.207-6.686-6.525-10.238-9.586-1.926-1.809-4.012-3.526-6.026-5.181-1.678-1.383-3.412-2.812-5.118-4.354-.279-.29-.609-.575-.944-.878-1.313-1.152-3.116-2.737-2.585-5.029l.03-.104c.728-2.102 1.816-4.054 2.862-5.94.475-.862.954-1.713 1.414-2.62 3.576-6.27 7.852-12.914 13.102-20.365l1.09-1.44c1.036-1.38 2.111-2.805 3.304-4.151l.197-.209a7.72 7.72 0 01.835-.815c-1.149-1.904-2.346-3.794-3.469-5.716-2.718-4.181-5.63-8.28-7.472-12.943-3.668-8.671 3.434-12.803 8.922-5.013 3.891 6.16 5.998 15.874 5.809 23.967.006.02.031.032.046.048a45.059 45.059 0 001.741 1.584c7.572 6.48 15.591 13.584 22.945 21.682.367.472.937 1.09 1.545 1.729 2.55 2.735 6.041 6.475 3.887 9.744-2.136 2.657-4.13 5.5-6.069 8.251-1.9 2.709-3.864 5.51-5.975 8.148-2.836 3.535-6.086 6.685-9.222 9.727-1.199 1.16-2.399 2.32-3.547 3.474-.265.292-.598.5-.961.613-.305.096-.619.099-.944.064-.394 2.061-.965 4.093-1.589 6.089-.327.867-.673 1.74-1.012 2.6.383.32.704.744 1.077 1.036 2.295 2.217 4.773 4.252 7.099 6.438 2.804-2.026 6.154-3.542 8.766-2.66l.222.109a56.34 56.34 0 012.541 1.732c.39.276.777.543 1.176.817 6.946 4.905 12.849 11.171 18.557 17.216l.862.915c.145.164.291.328.439.502 1.139 1.268 2.7 3.013 1.828 5.223-1.593 4.801-4.63 8.399-8.359 9.876-.405.179-.807.335-1.198.457-2.73.852-5.239.398-6.823-1.255-1.24-1.122-2.471-2.247-3.699-3.362-2.094-1.913-4.251-3.89-6.443-5.815-.956-.917-1.929-1.818-2.901-2.72-3.107-2.875-6.317-5.844-9.008-9.268l-.087-.109c-1.879-2.4-3.237-4.134-.431-7.397.668-.848 1.633-1.85 2.762-2.831-1.518-1.443-3.085-2.84-4.61-4.271-.359-.412-1.659-1.557-2.529-2.668-2.453 6.243-4.962 12.473-6.755 18.95-1.461 4.384-2.466 8.887-3.14 13.444.088.046.173.083.26.129 2.568 1.347 5.249 2.522 7.823 3.856.228-.344.459-.678.703-1.005.424-.52 4.263-5.006 7.434-3.837l.135.062c.67.368 1.285.794 1.884 1.204.281.195.574.397.865.589 2.929 1.936 5.746 4.085 8.482 6.175 1.347 1.026 2.681 2.045 4.04 3.045 2.301 1.702 4.549 3.536 6.713 5.302l1.14.933c.757.581 1.581 1.141 2.377 1.679 1.567 1.061 3.175 2.152 4.511 3.516 1.371 1.238 1.102 3.061.985 3.862-.317 4.425-2.876 8.816-6.701 11.496-.907.587-1.756.988-2.568 1.241-3.293 1.027-5.919-.406-8.501-2.136-6.201-3.796-11.996-8.305-16.998-12.287-.321-.287-.788-.676-1.344-1.152-4.177-3.484-7.87-6.826-7.168-9.213.602-2.702 1.54-5.205 2.805-7.496-2.383-1.362-4.891-2.518-7.128-4.114-.93 7.361-1.004 14.852-.54 22.25.436 8.118 1.996 16.074 3.762 23.987 2.967.782 5.91 1.687 8.884 2.457.767-2.177 1.892-4.246 3.776-5.693l.141-.085c.802-.418 1.576-.188 2.095-.035l.126.034c.38.111.774.198 1.167.285.246.049.495.108.756.173l.812.218c4.147 1.105 8.433 2.252 12.698 2.964 1.961.31 3.974.583 5.911.849 2.243.306 4.561.62 6.894 1.013.362.086.794.161 1.248.24 2.071.359 4.659.799 5.592 2.781l.069.156.022.172c.368 3.53.432 10.151-3.234 14.887-.664.826-1.512 1.299-2.381 1.57-1.202.376-2.455.357-3.419.355a50.162 50.162 0 01-5.108-.188c-9.109-.794-16.214-2.517-22.398-5.449l-.438-.23c-5.58-2.88-6.846-3.815-5.288-10.576.083-.371.176-.746.265-1.13-.836-.231-1.677-.44-2.507-.684-.97-.358-3.334-.951-5.16-1.733.195.861.391 1.722.595 2.58a192.215 192.215 0 008.25 28.706c4.319 1.387 8.838 2.072 13.359 2.496.036-.525.087-1.033.163-1.528.084-.571.157-1.107.173-1.73l.02-.237c.082-.779.2-1.843 1.031-2.573l.163-.114c1.091-.634 2.279-.585 3.329-.546.306.009.616.028.98.019 4.57.178 9.275.051 13.826-.069 2.816-.072 5.734-.154 8.612-.161 1.486.028 3.032-.087 4.518-.194 2.233-.162 4.548-.329 6.918-.052 1.166.212 2.09.857 2.512 1.741.667 1.332 1.162 2.885 1.561 4.971.034.345.09.726.142 1.129.438 3.351 1.098 8.425-2.156 10.382l-.192.092c-.22.068-.436.146-.665.218-3.762 1.172-7.734 1.301-11.579 1.432l-1.63.047c-6.467.121-13.162.25-19.729-.552l-.851-.111c-.972-.127-1.975-.254-2.999-.479-.589-.141-1.483-.355-2.05-1.1l-.083-.131c-1.246-2.282-1.917-5.038-2.042-8.361-3.601-.396-7.173-.968-10.676-1.887-.44-.135-1.161-.33-1.857-.615 2.834 7.307 6.13 14.45 9.941 21.296a201.334 201.334 0 006.908 11.201c.355-.069.77-.083 1.053-.15 2.52-.315 5.053-.623 7.575-.969a59.353 59.353 0 002.906-.456 27.344 27.344 0 01-.044-2.322l.006-.117c.073-.505.009-1.145-.066-1.823-.171-1.623-.378-3.632 1.417-4.863l.189-.132.219-.037c1.916-.304 3.876-.402 5.772-.501 1.349-.075 2.752-.146 4.099-.294 1.547-.178 3.128-.315 4.706-.462 1.812-.167 3.678-.33 5.485-.548a512.52 512.52 0 0010.906-1.442c1.519-.232 3.129-.546 5.273-1.026.33-.051.708-.148 1.109-.241 1.868-.457 4.992-1.222 5.875 1.708 1.296 3.587 2.207 7.147 2.682 10.55.816 5.036-1.656 6.613-3.114 7.078a61.88 61.88 0 01-5.559 2.027c-6.214 1.938-12.585 2.94-18.66 3.714l-.019.006c-4.932.511-9.763.436-14.336-.222-1.18-.156-3.606-.478-4.17-2.691a27.663 27.663 0 01-1.588-6.167c-3.442.487-6.938.729-10.396.791-.139-.009-.291-.024-.43-.033 5.385 8.03 11.298 15.74 17.511 23.167 1.536-.249 3.152-.072 4.721-.079a28.164 28.164 0 01.182-3.65c.151-1.094.87-2.45 3.41-2.666 1.888-.295 3.848-.561 5.987-.788 5.29-.571 10.686-.902 15.905-1.231 2.239-.143 4.468-.283 6.673-.436 3.245-.342 5.372.87 5.69 3.232 1.297 4.362 1.645 8.098 1.055 11.445-.3 1.591-.857 4.541-3.415 5.339a4.147 4.147 0 01-.058.018c-2.835.884-6.6 1.911-10.558 2.151-2.335.204-4.673.064-6.935-.069-1.068-.065-2.135-.13-3.21-.151a142.63 142.63 0 01-7.436-.363 20.708 20.708 0 01-.874-.083 329.652 329.652 0 016.105 6.811 17.345 17.345 0 013.865-1.781c.671-.534 1.552-1.134 2.601-1.398l.048-.015c1.89-.59 3.515.59 4.42 1.24a54.966 54.966 0 016.338 5.681c2.486 2.629 4.898 5.595 7.367 9.11.383.593.783 1.17 1.177 1.759 1.273 1.866 2.595 3.789 3.362 5.98.684 1.788.218 3.756-1.166 5.026-2.56 2.977-5.387 6.005-9.183 7.504l-.114.035c-.271.106-.533.208-.79.288-3.571 1.114-5.499-.704-7.277-2.842-2.308-2.601-4.42-5.409-6.461-8.125a645.701 645.701 0 00-2.44-3.22c-.723-1.01-1.58-1.979-2.475-2.999-2.203-2.497-4.484-5.075-4.946-8.607l-.002-.272c.314-2.151 1.675-4.304 3.78-6.019-.368-.44-.738-.89-1.116-1.328-2.192-2.395-4.385-4.791-6.571-7.2.19.444.333.934.407 1.476.402 1.959.575 3.958.746 5.885.067.817.145 1.641.237 2.471l.227 2.443c.448 4.795.905 9.753.78 14.726-.019.341-.03.711-.034 1.1-.033 2.147-.08 5.084-2.87 6.08l-.134.042c-3.924 1.224-8.081 1.598-12.056 1.078-.274-.04-.587-.068-.912-.103-1.641-.159-4.382-.414-4.628-3.051-.812-5.56-.999-11.232-1.173-16.729-.06-1.804-.12-3.608-.199-5.406l.001-.063.012-1.575c.026-3.14.049-6.394 1.022-9.453.566-2.114 2.734-2.319 4.036-2.442l.235-.021c1.506-.208 3.008-.194 4.47-.074.254-2.143.7-4.272 1.108-6.39-6.077-7.228-11.862-14.726-17.179-22.538-.111 2.465-.864 4.921-1.419 7.304-.429 1.548-.672 3.122-.88 4.705 1.665.131 3.406.373 5.255.761 2.963.5 2.752 3.216 2.62 4.839-.043.537-.084 1.042-.043 1.511.059 2.506.206 5.058.347 7.528.29 5.095.59 10.354.161 15.631-.085.634-.151 1.43-.225 2.301-.301 3.603-.676 8.078-2.871 9.873l-.093.071a8.307 8.307 0 01-2.068.959c-3.198.997-6.945.301-10.081-.282l-.646-.123c-5.384-1.107-5.87-4.245-5.945-8.212a653.87 653.87 0 01-.169-4.441c-.104-2.786-.204-5.656-.383-8.481l-.006-.019c-.027-.893-.063-1.782-.109-2.669-.147-3.327-.305-6.755-.03-10.172.317-3.419.692-7.286 5.703-8.451 1.834-.467 3.787-.688 5.865-.708.336-3.761 1.864-7.223 2.72-10.894.316-1.136.544-2.254.715-3.418-3.011-4.55-5.875-9.198-8.515-13.968-2.603-4.855-4.931-9.869-7.091-14.947-1.229 3.18-2.512 6.356-3.505 9.62 1.866.811 3.757 1.971 5.697 3.524.945.711 1.674 1.436 2.187 2.209 1.748 2.346.828 5.105.095 7.324a27.265 27.265 0 00-.554 1.817c-2.355 7.061-5.495 13.718-9.342 19.789-.506.765-.98 1.594-1.478 2.482-1.353 2.381-2.742 4.846-5.032 6.471a3.625 3.625 0 01-1 .49c-1.527.477-3.113-.108-4.344-.562l-.474-.177c-3.94-1.547-7.992-3.426-10.882-6.714-2.265-2.594-.728-7.001.397-10.212.222-.634.436-1.225.585-1.753 2.174-6.901 5.648-13.263 8.733-18.688l.02-.037c.335-.534.66-1.107.99-1.692 1.327-2.33 2.83-4.968 5.532-6.177l.185-.079.197-.008c.883-.024 1.694.194 2.462.405.528.149 1.032.286 1.55.334.697.086 1.396.245 2.104.433 1.347-3.741 3.078-7.36 4.984-10.856a192.885 192.885 0 01-6.803-19.53c-1.4-5.398-2.772-10.837-4.003-16.298-2.888 2.933-6.205 5.497-8.679 8.751 1.716.9 3.339 1.871 4.86 2.821 1.026.769 1.49 1.987 1.19 3.107-.604 3.372-1.587 6.905-3.017 10.85-.34.86-.7 1.789-1.089 2.79-3.063 7.911-7.247 18.748-12.543 23.396l-.093.071a4.012 4.012 0 01-1.048.504 4.977 4.977 0 01-1.781.2c-1.966-.058-4.047-.414-6.144-1.059-2.476-.684-9.973-2.756-8.39-9.168l.052-.037zm15.13-79.29c-1.524-.488-3.136.59-4.694 1.642-.27.178-.529.353-.737.492-6.569 4.698-12.05 10.335-16.324 16.749-.298.355-.595.709-.865 1.087-.192.259-.374.514-.566.773.047.049.093.097.13.148-.892 1.473-1.743 3.11-2.206 4.815-.335 1.917 1.259 3.567 2.803 5.16.22.235.446.458.62.645 2.744 2.684 5.262 4.748 7.503 6.123l.094.065c.776.607 1.794.614 2.739.016 3.105-1.932 5.814-4.6 8.429-7.165l.12-.121c4.678-4.245 9.124-9.235 13.61-15.274.46-.573.926-1.127 1.414-1.677l.1-.115c.217-.246.475-.526.482-.706-.21-.908-.916-1.662-1.67-2.465-.52-.56-1.065-1.134-1.467-1.783-2.189-3.257-5.385-6.083-9.509-8.39l-.006-.019zm4.865-43.888c-.503.135-.993.278-1.358.35l-.343.107c-8.176 2.602-16.639 5.293-22.865 11.226l-.144.108c-.32.215-.517.559-.61 1.07-.54 3.038 2.94 9.359 4.41 11.352 2.371 3.136 2.544 3.187 6.249 1.832 6.003-2.249 12.152-5.067 18.797-8.617 2.398-1.313 4.7-2.628 6.671-4.269l.068-.053c.455-.32.08-1.187-.005-1.36l-.058-.118-.02-.13c-.458-2.612-1.412-5.132-2.736-7.296-.948-1.527-2.154-2.943-3.664-4.326-1.139-.797-2.796-.332-4.402.127l.01-.003zm28.732-15.654s.011.101.137.135c.009-.003.16.045.267-.083 1.197-1.2 2.403-2.373 3.611-3.535 3.243-3.138 6.309-6.105 9.061-9.54 2.071-2.595 4.014-5.369 5.9-8.052 1.952-2.777 3.969-5.648 6.082-8.276 1.236-1.883-1.64-4.957-3.734-7.205-.663-.715-1.239-1.321-1.613-1.812-7.224-7.95-15.187-15.01-22.715-21.45a41.56 41.56 0 01-1.905-1.742c-.183-.215-.438-.43-.654-.383l-.067.021c-.334.104-.663.459-1.006.838l-.194.217c-1.125 1.263-2.168 2.656-3.184 4-.36.49-.734.972-1.075 1.424C95.864 49.93 91.614 56.524 88.1 62.69a70.944 70.944 0 01-1.427 2.645c-.99 1.796-2.026 3.648-2.695 5.565-.213 1.03.646 1.872 1.962 3.033.388.34.765.673 1.019.95 1.619 1.464 3.337 2.877 5 4.244 2.042 1.678 4.156 3.417 6.097 5.242 3.568 3.078 6.988 6.42 10.297 9.642 1.174 1.142 2.334 2.278 3.502 3.401l.254.246.047.352-.019.006zM101.718 12.71c-5.726-8.386-9.853-2.741-5.747 4.714 2.957 5.887 7.239 10.92 10.407 16.678.324-.038.636-.01.948.082-.445-7.372-2.012-14.949-5.598-21.477l-.01.003zm13.404 113.988l.086.109c2.589 3.299 5.74 6.213 8.791 9.043.985.908 1.96 1.819 2.898 2.71 2.18 1.918 4.349 3.902 6.443 5.816.442.407.883.814 1.334 1.218.139.145.282.299.421.445.01-.003.026-.019.032-.031l1.946 1.771c1.875 1.95 4.941.795 5.843.398l.039-.012c3.13-1.248 5.831-4.479 7.235-8.709.409-1.039-.27-1.906-1.443-3.216-.161-.18-.322-.361-.439-.502l-.828-.873c-1.453-1.537-2.913-3.093-4.407-4.628-.031-.032-.05-.058-.081-.09-4.276-4.407-8.759-8.707-13.755-12.23-.399-.273-.789-.55-1.189-.823a65.227 65.227 0 00-2.366-1.609c-3.204-.938-8.849 3.567-11.028 6.32-1.761 2.047-1.428 2.478.465 4.883l.003.01zm-10.255 30.433c-.265.931 1.924 3.349 6.515 7.186.582.489 1.076.9 1.356 1.159 4.404 3.508 9.492 7.462 14.931 10.962.719.561 1.442 1.132 2.175 1.668.055-.059.107-.128.168-.199 3.158 2.032 5.314 2.596 8.38.603 3.318-2.324 5.54-6.149 5.831-10.052.175-1.186.08-1.795-.384-2.206-1.24-1.258-2.704-2.257-4.246-3.306a57.124 57.124 0 01-2.35-1.655c-.214-.185-.433-.347-.641-.544-.326-.307-.64-.607-.966-.914-.019.037-.027.082-.046.119-2.049-1.665-4.154-3.376-6.293-4.961-1.362-1.011-2.709-2.036-4.068-3.069-2.705-2.057-5.497-4.193-8.37-6.083-.303-.199-.6-.411-.903-.609-.558-.381-1.082-.752-1.627-1.054-1.214-.365-3.601 1.385-5.104 3.216-2.066 2.781-3.521 6.042-4.346 9.745l-.012-.006zm6.854 40.454c-1.268 5.507-.855 5.724 4.253 8.363l.413.217c5.014 2.374 10.734 3.922 17.739 4.817-.03.041-.056.091-.076.128 1.039.074 2.069.151 3.102.206.313.028.609.072.922.1 1.604.139 3.247.203 4.927.182 1.787.018 3.335-.056 4.236-1.164 3.157-4.085 3.145-9.969 2.826-13.242-.596-.935-2.578-1.281-4.051-1.534a32.6 32.6 0 01-1.301-.243c-.23-.033-.461-.066-.684-.112.004-.053.011-.097.015-.151-.823-.089-1.651-.156-2.481-.232a536.911 536.911 0 00-3.615-.507c-1.959-.269-3.981-.539-5.967-.862-4.376-.731-8.706-1.884-12.888-3l-.789-.214c-.227-.055-.463-.107-.69-.162-.428-.097-.866-.191-1.281-.313l-.138-.041c-.173-.051-.441-.135-.561-.118-2.281 1.822-3.257 5.007-3.898 7.888l-.013-.006zm16.579 39.222c.174.156.596.265.876.324.91.198 1.828.32 2.8.447l.852.111c6.415.786 13.037.659 19.431.54l1.599-.048c.487-.016.974-.032 1.471-.051l.006.019c.155-.006.317-.025.469-.041 3.27-.129 6.571-.394 9.611-1.426 2.041-1.349 1.494-5.557 1.122-8.363a21.724 21.724 0 01-.131-1.091c-.36-1.825-.795-3.219-1.382-4.398-.213-.447-.817-.604-1.006-.639-1.619-.187-3.23-.145-4.905-.042l-.006-.019-.855.078c-.238.012-.472.032-.719.047-1.536.112-3.123.23-4.682.203-2.837.004-5.736.081-8.54.159-4.582.12-9.329.249-13.899.071-.345.003-.692-.004-1.043-.02-.838-.032-1.568-.056-2.142.218-.195.249-.253.77-.299 1.224l-.023.164c-.019.645-.107 1.27-.191 1.872-.092.647-.183 1.262-.173 1.898-.038 3.605.532 6.475 1.759 8.763zm15.791 28.805l.021.067.021.067c.178.772 1.049 1.045 2.51 1.228 4.421.643 9.073.711 13.842.219 4.1-.524 8.332-1.163 12.56-2.115l.006.019c.353-.078.697-.186 1.046-.274a73.86 73.86 0 002.925-.765c2.436-.686 4.855-1.493 7.225-2.494.621-.194 2.495-.799 1.835-4.899-.471-3.289-1.34-6.715-2.613-10.225-.286-.917-1.027-1.01-3.506-.394-.458.111-.887.213-1.204.27-.912.201-1.728.372-2.496.527l-.033-.105c-.896.185-1.782.399-2.677.552-.518.088-1.031.154-1.542.23l.006.019a483.83 483.83 0 01-9.57 1.256c-1.836.227-3.721.396-5.546.556-1.559.141-3.127.284-4.665.46-1.407.156-2.831.223-4.212.297-1.763.089-3.587.187-5.319.444-.605.545-.544 1.479-.401 2.88.077.751.16 1.521.064 2.253a25.703 25.703 0 001.737 9.902l-.014.025zm21.217 52.819c.891 1.01 1.826 2.06 2.59 3.131a257.549 257.549 0 012.436 3.21c1.341 1.782 2.713 3.595 4.146 5.369a98.822 98.822 0 001.829 2.405c.045-.025.077-.056.122-.08.096.106.185.225.281.331 2.019 2.408 3.201 3.077 5.857 1.986 3.439-1.334 6.095-4.205 8.515-7.023l.097-.093c.821-.727 1.076-1.823.67-2.891-.699-1.971-1.879-3.708-3.144-5.545-.406-.596-.814-1.202-1.189-1.766-.006-.019-.019-.026-.034-.042-.04-.061-.077-.112-.108-.176l-.009.003c-2.343-3.313-4.641-6.147-7.012-8.645a52.706 52.706 0 00-6.08-5.457c-1.054-.76-1.856-1.181-2.639-.937l-.047.015-.048.015-.048.015c-.762.175-1.427.665-1.986 1.122l-.151.12-.181.057a15.513 15.513 0 00-4.584 2.299l-.019.006c-2.059 1.459-3.404 3.324-3.725 5.152.432 2.862 2.378 5.072 4.446 7.403l.015.016zm-14.801-32.55c-.578-.039-1.156-.079-1.744-.116.996 1.177 1.991 2.354 3 3.506.309.354.628.705.938 1.059a38.786 38.786 0 01-.595-4.392c-.531-.023-1.068-.034-1.602-.066l.003.009zm16.295 9.259c1.087.027 2.187.093 3.277.162 2.189.134 4.451.267 6.665.079a29.832 29.832 0 002.647-.281c.009.029-.001.063.008.092l.009.029a50.534 50.534 0 004.354-.95c.004-.022.005-.053.008-.076a61.65 61.65 0 003.098-.882l.029-.009c1.317-.411 1.742-2.104 2.063-3.796.54-3.039.205-6.496-1.018-10.587l-.032-.168c-.187-1.576-2.016-1.729-3.546-1.565-.995.069-1.983.125-2.977.195a1.028 1.028 0 00-.06-.16c-.897.081-1.784.159-2.684.23a.368.368 0 01.011.101l-1.017.066c-5.199.322-10.573.657-15.822 1.226-2.108.228-4.03.481-5.958.779a4.086 4.086 0 00-.883.16c-.706.22-.761.583-.783.779-.41 3.322-.119 7.076.905 11.47l.017.12c.203 1.927 1.627 2.395 4.349 2.625 2.286.177 4.741.291 7.327.354l.013.007zm-26.205-.323c-.64.063-1.112.127-1.475.24-.468.146-.722.372-.828.771-.902 2.817-.921 5.913-.942 8.904-.004.525-.007 1.05-.014 1.566.079 1.798.138 3.602.195 5.396.085 2.624.172 5.289.329 7.974-.029.009-.063-.001-.095-.002.09 1.061.209 2.114.318 3.169.155 1.806.344 3.622.6 5.417.08.897.902 1.112 2.824 1.298.367.033.723.068 1.01.115 3.704.489 7.589.116 11.264-1.031 1.348-.483 1.475-1.989 1.512-4.221.005-.421.016-.822.038-1.154.005-.221-.001-.439-.006-.658l.143-.044a88.957 88.957 0 00-.176-4.093l-.029.009c-.133-3.248-.411-6.492-.71-9.667l-.225-2.434c-.091-.83-.163-1.667-.233-2.494-.166-1.875-.33-3.814-.717-5.726-.215-1.598-1.024-2.31-2.981-2.537-2.939-.592-6.279-1.258-9.535-.819l-.286.027.019-.006zm6.514-1.854c1.265.193 2.471.434 3.621.662.991.121 1.815.377 2.49.764-.913-1.014-1.823-2.019-2.72-3.049a298.431 298.431 0 01-2.969-3.473 80.324 80.324 0 00-.412 5.093l-.01.003zm-32.677-7.91c-.256 3.275-.107 6.643.042 9.907.036.889.082 1.776.109 2.668.175 2.847.278 5.727.382 8.513.053 1.481.103 2.953.172 4.45.078 4.145.686 5.558 4.334 6.306l.634.116c3.469.647 7.774 1.452 10.646-.355.686-.591 1.13-1.819 1.442-3.236l.105-.033c.042-.338.068-.692.096-1.036.23-1.412.358-2.918.457-4.144.078-.893.148-1.743.23-2.355.405-5.081.117-10.27-.174-15.302-.138-2.492-.287-5.053-.347-7.528-.052-.57-.002-1.183.041-1.783.164-2.094.002-2.546-.994-2.717-5.04-1.047-9.28-1.108-12.999-.168-3.466.809-3.831 2.965-4.179 6.687l.003.01zm-10.804-42.239c-.657-.057-1.264-.223-1.862-.393-.595-.16-1.158-.32-1.676-.337-1.996.99-3.228 3.154-4.426 5.256a45.498 45.498 0 01-1.027 1.745c-2.42 4.264-5.067 9.112-7.126 14.3l-.047-.048-.506 1.467a57.985 57.985 0 00-.878 2.558c-.156.541-.38 1.166-.614 1.825-.965 2.752-2.272 6.522-.774 8.234 2.608 2.957 6.395 4.72 10.07 6.161l.462.17c1.552.575 2.64.906 3.511.309 1.277-.911 2.273-2.217 3.158-3.645.047.016.097.043.154.056.679-1.248 1.308-2.523 1.988-3.636.13-.219.246-.454.373-.682.105-.169.2-.335.307-.494 3.75-5.915 6.821-12.424 9.101-19.253.152-.623.37-1.267.575-1.886.679-2.055 1.33-3.997.177-5.544-.412-.616-.989-1.19-1.781-1.781-3.233-2.574-6.238-4.015-9.175-4.398l.016.016zm-24.035 1.933c4.908-4.348 9.148-15.307 11.952-22.571l1.082-2.779c1.384-3.825 2.343-7.267 2.925-10.538l.021-.101c.116-.403-.164-.797-.383-.96-4.08-2.54-8.53-5.017-13.392-5.963-.61-.072-1.182.61-1.874 1.517-.188.236-.36.458-.49.613-1.595 2.038-3.044 4.511-4.58 7.818-2.017 4.044-3.654 7.697-4.989 11.141-.446 1.291-.955 2.581-1.444 3.834-.096.229-.18.464-.276.693-.518 1.23-1.01 2.473-1.417 3.752.006.019.028.023.034.042-.636 1.927-1.158 3.881-1.37 5.885l-.029.145c-.804 3.163 1.34 5.27 6.99 6.829 1.956.594 3.85.925 5.658.979.66.035 1.191-.078 1.573-.333l.01-.003z" fill="#58393E"/><path d="M108.283 94.048c-3.312-3.23-6.73-6.564-10.297-9.642-1.942-1.825-4.056-3.564-6.098-5.242-1.662-1.367-3.38-2.78-5-4.244-.263-.274-.63-.61-1.019-.95-1.315-1.16-2.172-1.994-1.962-3.033.67-1.917 1.703-3.778 2.696-5.565.491-.876.97-1.759 1.427-2.645 3.514-6.166 7.76-12.77 12.948-20.117.351-.455.714-.935 1.075-1.424 1.016-1.344 2.058-2.737 3.183-4l.194-.217c.343-.38.673-.734 1.007-.838l.067-.02c.216-.047.471.167.653.382.683.678 1.33 1.24 1.905 1.742 7.532 6.45 15.492 13.5 22.716 21.45.373.491.95 1.097 1.613 1.812 2.094 2.248 4.972 5.331 3.734 7.205-2.113 2.628-4.13 5.499-6.082 8.276-1.887 2.683-3.829 5.457-5.9 8.052-2.753 3.435-5.818 6.402-9.061 9.54-1.206 1.172-2.415 2.334-3.611 3.535-.11.118-.258.08-.268.083-.116-.037-.127-.106-.136-.135l-.047-.352-.255-.245a604.215 604.215 0 01-3.501-3.402l.019-.006zm15.346-22.405c1.047-1.343 2.279-2.565 3.139-4.006.342-.987-.332-1.94-.993-2.613-3.899-4.713-8.559-8.738-12.917-13.004a33.389 33.389 0 00-3.336-2.772c-.456-.32-.987-.646-1.567-.423-1.033.416-1.79 1.28-2.555 2.053-4.364 4.986-8.368 10.519-10.829 16.702-1.31 2.85 2.93 5.936 4.584 7.945 2.472 2.487 4.816 5.098 7.182 7.68.883.92 1.754 1.831 2.677 2.706.608.607 1.538.432 2.134-.11 4.681-4.236 8.337-9.44 12.496-14.142l-.015-.016z" fill="#2E61B4"/><path d="M108.998 85.896c-.923-.876-1.794-1.788-2.677-2.706-2.366-2.583-4.71-5.194-7.182-7.68-1.65-2-5.895-5.097-4.584-7.946 2.461-6.183 6.465-11.716 10.829-16.701.765-.773 1.522-1.637 2.555-2.054.58-.222 1.111.104 1.567.423a33.39 33.39 0 013.336 2.772c4.367 4.263 9.018 8.292 12.917 13.004.661.674 1.335 1.627.993 2.613-.85 1.439-2.092 2.664-3.139 4.007-4.159 4.7-7.816 9.905-12.497 14.141-.596.542-1.526.717-2.134.11l.016.017z" fill="#F94B4B"/><path d="M83.114 235.568c.643.25 1.45.553 2.15.985a51.5 51.5 0 01-2.676 4.417c-.662-.244-1.302-.516-1.83-.697-3.92-1.585-7.806-3.568-11.29-6.305-.483-.342-1.66-1.43-2.758-2.701-.006-.019-.028-.023-.034-.042.407-1.279.9-2.522 1.417-3.752 2.218 1.571 4.54 2.9 6.89 4.157 2.404 1.293 5.462 2.801 8.128 3.929l.003.009zm10.919 34.074c2.356 1.843 4.84 3.425 7.334 4.941.717.52 1.884 1.005 2.998 1.621-.131.219-.243.463-.374.682-.682 1.103-1.308 2.388-1.987 3.637-.047-.017-.097-.043-.154-.057-4.317-1.618-9.172-5.865-12.012-8.457-1.115-1.088-2.19-2.219-3.269-3.359a15.172 15.172 0 00-.635-.693c.202-.628.394-1.223.53-1.726.136-.472.284-.937.445-1.396.161-.49.335-.974.506-1.467l.047.049c.31.322.6.65.874.921 1.807 1.898 3.666 3.728 5.685 5.298l.012.006zm78.775-6.308c-.004-4.178-.376-8.326-.567-12.498-.004-.585-.197-1.908-.272-3.257l-.006-.019a540.58 540.58 0 011.542-.229c.895-.154 1.782-.367 2.677-.552l.033.105c1.435 3.795 1.435 8.801 1.125 12.376-.206 1.688-.062 3.193-.363 4.848a74.565 74.565 0 01-2.925.765c-.349.088-.693.195-1.046.274l-.005-.019c-.018-.057-.062-.096-.07-.156-.126-.537-.125-1.072-.108-1.622l-.015-.016zM115.321 311c-.02-.235-.041-.469-.055-.716-.088-1.188-.166-2.379-.253-3.566 1.544-.524 3.294.721 4.9.901 3.98 1.106 7.992 1.038 11.989 1.227.237.02.454.078.659.13a49.606 49.606 0 01-.232 3.424c-.038.347-.054.698-.096 1.035l-.105.033c-4.907 1.53-10.428.351-15.344-1.709-.474-.209-.997-.443-1.469-.747l.006-.012zm39.535-88.472c1.118-.076 2.227-.181 3.346-.289l.855-.078.006.019c1.331 4.571 1.232 11.641.459 15.58-1.259.162-2.51.28-3.768.379-.155.006-.317.025-.469.041l-.006-.019c.125-3.496.456-7.035.259-10.524-.147-1.714-.405-3.414-.682-5.109zm-21.462-57.529c.785-1.617 1.46-3.315 2.135-5.013.02-.038.03-.072.046-.119.327.306.64.607.966.913.205.188.427.36.641.544.396.327.784.667 1.18.994-1.395 5.84-4.85 11.59-8.408 15.632-.055.059-.107.128-.168.199-.733-.536-1.456-1.107-2.175-1.668-.359-.276-.714-.542-1.063-.821 2.559-3.28 4.911-6.79 6.84-10.649l.006-.012zm7.162 29.851c.313.028.638.063.95.091.831.077 1.658.143 2.482.232-.004.054-.012.098-.016.152-.232 2.984-1.355 5.9-2.46 8.77-.909 2.462-1.875 4.973-3.295 7.27-.203-.01-.415.014-.617.004-.171-.009-.332-.022-.502-.032a144.581 144.581 0 01-3.102-.206c.029-.04.046-.087.075-.128.648-1.113 1.358-2.194 1.947-3.33 2.029-4.142 3.221-8.515 4.538-12.823zm.144-61.208c.636-.848 1.352-2.349 2.234-3.452.031.032.049.058.08.09a294.791 294.791 0 012.597 3.087c-2.002 4.532-7.377 10.272-10.542 12.684a.068.068 0 00-.032.031c-.14-.145-.282-.3-.422-.445-.685-.718-1.367-1.428-2.052-2.146 2.913-3.056 5.857-6.111 8.143-9.83l-.006-.019zm37.902 143.943s-.011-.069-.01-.101c.896-.081 1.784-.158 2.683-.229.015.047.036.114.06.159 1.979 4.799 3.13 11.646 2.384 16.813-.004.022-.004.053-.008.075-1.443.377-2.889.713-4.355.95l-.009-.029c-.009-.028.002-.063-.007-.092-.233-4.306.226-8.712-.237-13.019-.126-1.512-.343-3.015-.498-4.517l-.003-.01zm-23.369 40.913l.028-.009a87.57 87.57 0 01.177 4.093l-.143.045c-4.519 1.262-13.117 2.31-17.144 1.355-.043-.374-.074-.741-.115-1.106-.109-1.055-.23-2.117-.317-3.169.028-.009.063.001.094.002a9.63 9.63 0 011.382.03c5.423.561 10.771-.259 16.034-1.219l.004-.022zm31.515-.757c.192-.154.388-.299.581-.453l.009-.003c.04.061.077.112.108.176.472.774.963 1.543 1.447 2.324l-.006.013c-3.151 5.246-7.464 9.723-12.513 12.711-.045.025-.077.056-.122.08a88.26 88.26 0 01-1.829-2.404c-.329-.453-.666-.893-.986-1.348 4.619-3.43 8.938-7.281 13.304-11.083l.007-.013zM60.463 177.813c2.303 2.582 5.15 4.721 7.974 6.826a48.665 48.665 0 005.023 3.042c.53.222 1.076.492 1.534.821-1.084.956-2.178 1.915-3.319 2.826a73.761 73.761 0 01-3.216-1.982c-4.626-3.313-9.35-6.669-13.035-10.862-.046-.049-.093-.097-.13-.148.192-.259.371-.525.566-.774.273-.368.57-.722.865-1.087.396-.479.803-.952 1.208-1.434.878.899 1.72 1.82 2.52 2.775l.01-.003zm10.012-41.22c-1.159-2.205-2.277-4.045-3.552-6.319-1.483-2.638-2.761-5.361-4.151-8.039a42.736 42.736 0 013.166-1.804c.037.051.058.118.095.169 2.09 3.612 4.12 7.536 6.2 11.213.836 1.541 1.663 3.085 2.487 4.619.113.195.232.409.349.614a132.572 132.572 0 01-3.686 1.485c-.312-.699-.573-1.435-.91-1.948l.002.01z" fill="#ECB85C"/></g><defs><clipPath id="clip0_1259_6023"><path fill="#fff" transform="scale(-1 1) rotate(17.32 -59.27 -389.14)" d="M0 0h124.17v340.71H0z"/></clipPath></defs></svg>