<svg width="1706" height="815" viewBox="0 0 1706 815" fill="none" xmlns="http://www.w3.org/2000/svg"><g clip-path="url(#clip0_1254_1169)" fill="#D93636"><path d="M1550.01 0c-2.49.06-4.36 2.02 0 11.32 4.36-9.3 2.49-11.26 0-11.32zm-19.1 7.91c-1.72 1.8-1.66 4.51 8 8-3.49-9.66-6.2-9.72-8-8zm-7.91 19.1c.06 2.49 2.02 4.36 11.32 0-9.3-4.37-11.26-2.49-11.32 0zm7.91 19.09c1.8 1.72 4.51 1.66 8-8-9.66 3.49-9.72 6.2-8 8zm19.1 7.91c2.49-.06 4.36-2.02 0-11.32-4.36 9.3-2.49 11.26 0 11.32zm19.09-7.91c1.72-1.8 1.66-4.51-8-8 3.49 9.66 6.2 9.72 8 8zm7.91-19.09c-.06-2.49-2.02-4.36-11.32 0 9.3 4.36 11.26 2.49 11.32 0zm-7.91-19.1c-1.8-1.72-4.51-1.66-8 8 9.66-3.49 9.72-6.2 8-8z"/></g><g clip-path="url(#clip1_1254_1169)" fill="#D93636"><path d="M138.009 242c-2.49.06-4.36 2.02 0 11.32 4.36-9.3 2.49-11.26 0-11.32zm-19.1 7.91c-1.72 1.8-1.66 4.51 8 8-3.49-9.66-6.2-9.72-8-8zM111 269.01c.06 2.49 2.02 4.36 11.32 0-9.3-4.37-11.26-2.49-11.32 0zm7.909 19.09c1.8 1.72 4.51 1.66 8-8-9.66 3.49-9.72 6.2-8 8zm19.1 7.91c2.49-.06 4.36-2.02 0-11.32-4.36 9.3-2.49 11.26 0 11.32zm19.091-7.91c1.72-1.8 1.66-4.51-8-8 3.49 9.66 6.2 9.72 8 8zm7.909-19.09c-.06-2.49-2.02-4.36-11.32 0 9.3 4.36 11.26 2.49 11.32 0zm-7.909-19.1c-1.8-1.72-4.51-1.66-8 8 9.66-3.49 9.72-6.2 8-8z"/></g><g clip-path="url(#clip2_1254_1169)" fill="#D93636"><path d="M1679.01 657c-2.49.06-4.36 2.02 0 11.32 4.36-9.3 2.49-11.26 0-11.32zm-19.1 7.91c-1.72 1.8-1.66 4.51 8 8-3.49-9.66-6.2-9.72-8-8zm-7.91 19.1c.06 2.49 2.02 4.36 11.32 0-9.3-4.37-11.26-2.49-11.32 0zm7.91 19.09c1.8 1.72 4.51 1.66 8-8-9.66 3.49-9.72 6.2-8 8zm19.1 7.91c2.49-.06 4.36-2.02 0-11.32-4.36 9.3-2.49 11.26 0 11.32zm19.09-7.91c1.72-1.8 1.66-4.51-8-8 3.49 9.66 6.2 9.72 8 8zm7.91-19.09c-.06-2.49-2.02-4.36-11.32 0 9.3 4.36 11.26 2.49 11.32 0zm-7.91-19.1c-1.8-1.72-4.51-1.66-8 8 9.66-3.49 9.72-6.2 8-8z"/></g><g clip-path="url(#clip3_1254_1169)" fill="#D93636"><path d="M27.01 761c-2.49.06-4.36 2.02 0 11.32 4.36-9.3 2.49-11.26 0-11.32zm-19.1 7.91c-1.72 1.8-1.66 4.51 8 8-3.49-9.66-6.2-9.72-8-8zM0 788.01c.06 2.49 2.02 4.36 11.32 0-9.3-4.37-11.26-2.49-11.32 0zm7.91 19.09c1.8 1.72 4.51 1.66 8-8-9.66 3.49-9.72 6.2-8 8zm19.1 7.91c2.49-.06 4.36-2.02 0-11.32-4.36 9.3-2.49 11.26 0 11.32zm19.09-7.91c1.72-1.8 1.66-4.51-8-8 3.49 9.66 6.2 9.72 8 8zm7.91-19.09c-.06-2.49-2.02-4.36-11.32 0 9.3 4.36 11.26 2.49 11.32 0zm-7.91-19.1c-1.8-1.72-4.51-1.66-8 8 9.66-3.49 9.72-6.2 8-8z"/></g><defs><clipPath id="clip0_1254_1169"><path fill="#fff" transform="translate(1523)" d="M0 0h54.01v54.01H0z"/></clipPath><clipPath id="clip1_1254_1169"><path fill="#fff" transform="translate(111 242)" d="M0 0h54.01v54.01H0z"/></clipPath><clipPath id="clip2_1254_1169"><path fill="#fff" transform="translate(1652 657)" d="M0 0h54.01v54.01H0z"/></clipPath><clipPath id="clip3_1254_1169"><path fill="#fff" transform="translate(0 761)" d="M0 0h54.01v54.01H0z"/></clipPath></defs></svg>