<svg width="40" height="40" viewBox="0 0 40 40" fill="none" xmlns="http://www.w3.org/2000/svg"><g clip-path="url(#clip0_1265_19047)"><mask id="mask0_1265_19047" style="mask-type:luminance" maskUnits="userSpaceOnUse" x="0" y="0" width="40" height="40"><path d="M40 0H0v40h40V0z" fill="#fff"/></mask><g mask="url(#mask0_1265_19047)" fill-rule="evenodd" clip-rule="evenodd" fill="#58393E"><path d="M17.27 4.21A1.21 1.21 0 0016.06 3H4.21A1.21 1.21 0 003 4.21v11.85c0 .668.542 1.21 1.21 1.21h11.85a1.21 1.21 0 001.21-1.21V4.21zM16.06 0a4.21 4.21 0 014.21 4.21v11.85a4.21 4.21 0 01-4.21 4.21H4.21A4.21 4.21 0 010 16.06V4.21A4.21 4.21 0 014.21 0h11.85z"/><path d="M34.52 4.22A4.206 4.206 0 0138.73.01h932.68a4.206 4.206 0 014.21 4.21v11.84c0 .671.538 1.21 1.21 1.21h15.449l-.954.958a4.199 4.199 0 011.545 3.262V34.7c0 .671.538 1.21 1.21 1.21h11.84c2.33 0 4.21 1.881 4.21 4.21V653.8c0 2.328-1.88 4.21-4.21 4.21h-11.84c-.672 0-1.21.538-1.21 1.21v13.21a4.206 4.206 0 01-4.21 4.21h-11.84c-.672 0-1.21.538-1.21 1.21v11.84a4.206 4.206 0 01-4.21 4.21H38.73a4.206 4.206 0 01-4.21-4.21v-11.84c0-.672-.538-1.21-1.21-1.21H21.47a4.206 4.206 0 01-4.21-4.21v-13.21c0-.672-.538-1.21-1.21-1.21H4.21A4.206 4.206 0 010 653.8V40.11a4.206 4.206 0 014.21-4.21h11.84c.672 0 1.21-.539 1.21-1.21V21.48a4.206 4.206 0 014.21-4.21h11.84c.672 0 1.21-.539 1.21-1.21V4.22zm950.541 16.05h-8.231a4.206 4.206 0 01-4.21-4.21V4.22c0-.672-.538-1.21-1.21-1.21H38.73c-.672 0-1.21.538-1.21 1.21v11.84a4.206 4.206 0 01-4.21 4.21H21.47c-.672 0-1.21.538-1.21 1.21v13.21a4.206 4.206 0 01-4.21 4.21H4.21c-.672 0-1.21.538-1.21 1.21V653.8c0 .671.538 1.21 1.21 1.21h11.84a4.205 4.205 0 014.21 4.21v13.21c0 .671.538 1.21 1.21 1.21h11.84a4.205 4.205 0 014.21 4.21v11.84c0 .671.538 1.21 1.21 1.21H971.4c.672 0 1.21-.539 1.21-1.21v-11.84a4.206 4.206 0 014.21-4.21h11.84c.672 0 1.21-.539 1.21-1.21v-13.21a4.206 4.206 0 014.21-4.21h11.84c.67 0 1.21-.539 1.21-1.21V40.12c0-.672-.54-1.21-1.21-1.21h-11.84a4.206 4.206 0 01-4.21-4.21V21.49c0-.672-.538-1.21-1.21-1.21h-3.609l.01-.01z"/></g></g><defs><clipPath id="clip0_1265_19047"><path fill="#fff" d="M0 0h40v40H0z"/></clipPath></defs></svg>