<svg width="20" height="20" viewBox="0 0 20 20" fill="none" xmlns="http://www.w3.org/2000/svg"><g clip-path="url(#clip0_1265_19040)"><mask id="mask0_1265_19040" style="mask-type:luminance" maskUnits="userSpaceOnUse" x="0" y="0" width="20" height="20"><path d="M20 20V0H0v20h20z" fill="#fff"/></mask><g mask="url(#mask0_1265_19040)" fill-rule="evenodd" clip-rule="evenodd" fill="#58393E"><path d="M314.32 17.813v924.203c0 1.23-.995 2.224-2.225 2.224h-5.352a.222.222 0 00-.225.223v7.714l-.74-.719a2.215 2.215 0 01-1.49.572h-5.971a.222.222 0 00-.225.224v5.347c0 1.23-.996 2.223-2.226 2.223H18.449a2.222 2.222 0 01-2.225-2.223v-5.347a.222.222 0 00-.225-.224h-5.971a2.223 2.223 0 01-2.226-2.224v-5.347a.223.223 0 00-.225-.224H2.225A2.222 2.222 0 010 942.011V17.813c0-1.23.996-2.224 2.225-2.224h5.352c.127 0 .226-.1.226-.223v-5.348c0-1.23.995-2.223 2.225-2.223h5.971c.127 0 .225-.1.225-.224V2.224C16.224.994 17.22 0 18.45 0h277.422c1.229 0 2.225.993 2.225 2.224V7.57c0 .124.098.224.225.224h5.972c1.229 0 2.225.993 2.225 2.223v5.348c0 .124.098.223.225.223h5.352c1.23 0 2.225.994 2.225 2.224zm-9.802 929.63v-2.98c0-1.23.995-2.223 2.225-2.223h5.352c.127 0 .225-.1.225-.224V17.813a.222.222 0 00-.225-.224h-5.352a2.222 2.222 0 01-2.225-2.223v-5.348a.223.223 0 00-.225-.223h-5.972a2.223 2.223 0 01-2.225-2.224V2.224a.222.222 0 00-.225-.224H18.449c-.126 0-.225.1-.225.224V7.57c0 1.23-.995 2.224-2.225 2.224h-5.971c-.127 0-.226.1-.226.223v5.348c0 1.23-.995 2.223-2.225 2.223H2.225c-.127 0-.225.1-.225.224V942.01c0 .124.098.224.225.224h5.352c1.23 0 2.225.993 2.225 2.224v5.347c0 .124.099.224.226.224h5.971c1.23 0 2.225.993 2.225 2.224v5.347c0 .124.099.223.225.223h277.417a.223.223 0 00.226-.223v-5.347c0-1.231.995-2.224 2.225-2.224h5.971c.127 0 .225-.1.225-.224v-2.367l.005.004z"/><path d="M2.225 2A.224.224 0 002 2.224v5.351c0 .123.1.224.225.224h5.357a.224.224 0 00.225-.224V2.224c0-.123-.1-.224-.225-.224H2.225zM0 2.224C0 .994.997 0 2.225 0h5.357C8.81 0 9.807.995 9.807 2.224v5.351c0 1.23-.997 2.224-2.225 2.224H2.225A2.224 2.224 0 010 7.575V2.224z"/></g></g><defs><clipPath id="clip0_1265_19040"><path fill="#fff" d="M0 0h20v20H0z"/></clipPath></defs></svg>