<svg width="343" height="299" viewBox="0 0 343 299" fill="none" xmlns="http://www.w3.org/2000/svg"><g clip-path="url(#clip0_8054_9994)"><path d="M296.769 68.652c-.538-7.119-4.818-14.885-12.652-15.71-2.028-.215-4.063.23-5.832 1.183-.068-1.148-.279-2.276-.695-3.33-.592-1.513-1.483-3.194-3.035-3.903-3.239-1.5-6.874.743-8.548 3.505-.51.837-.885 1.763-1.17 2.695-.13.445-.341 1.026-.422 1.593h-.007c-1.511-.148-3.069.176-4.533.73-5.05 1.911-9.936 4.498-14.707 7.01a225.972 225.972 0 00-31.047 19.7c-.32.243-.47.567-.49.892-4.581 2.04-9.542 4.68-11.924 9.191-.007.007-.007.02-.02.027-.422.23-.763.69-.674 1.284.027.175.048.344.068.52.524 4.68-.449 9.502-2.641 13.662-2.443 4.62-6.254 8.064-10.875 10.468-5.064 2.627-10.78 4.437-16.368 5.552-5.506 1.107-11.304 1.303-16.694-.426-4.887-1.567-9.229-4.66-11.76-9.124a.796.796 0 00-.15-.263c-.007-.007-.007-.021-.007-.027-.068-.122-.15-.223-.204-.345-.354-.709-1.089-.709-1.599-.371-.069-.021-.13-.041-.198-.054a33.91 33.91 0 00-8.909-1.27 33.823 33.823 0 00-5.165.385c-1.763.263-3.682 1.06-5.465.864-.122-.02-.218.007-.299.027-.021 0-.041-.006-.055-.006l-34.369-1.864-8.357-.446c-2.593-.142-5.445-.642-8.017-.122-1.606.325-2.81 1.257-3.736 2.479-2.294-2.965-6.085-4.653-9.841-4.653-.722 0-1.43.067-2.13.189-2.498.459-4.377 2.229-4.526 4.802-.096 1.675.585 3.167 1.558 4.484-2.28-.311-4.594-.169-6.527 1.162-2.947 2.033-4.607 5.943-5.185 9.34-1.212 7.294 2.368 14.594 8.854 18.208 3.75 2.086 8.017 2.917 12.257 3.282.081.007.156.007.231 0a46.784 46.784 0 002.123 6.679c.81 2.013 1.756 4.066 3.655 5.281 2.076 1.351 4.846 1.824 7.2 2.472 2.62.716 5.268 1.358 7.93 1.912 9.595 1.985 19.497 2.796 29.216 1.566a342.994 342.994 0 01-3.396 40.4 346.26 346.26 0 01-4.9 26.623 340.735 340.735 0 01-3.192 13.048c-1.157 4.363-2.545 8.658-3.614 13.034-1.034 4.248-1.613 8.76-.401 13.048 1.007 3.56 3.171 6.828 6.485 8.631 0 .46.252.878.844.987a66.57 66.57 0 004.097.607c-.006.149.021.311.082.487 3.24 8.347 11.862 12.602 20.342 13.763 5.118.696 10.311.547 15.456.352 4.458-.169 9.29-.939 11.876-4.964 1.232-1.891 1.552-4.228.701-6.328-.79-1.966-2.3-3.458-3.907-4.802 2.171-.156 4.336-.311 6.507-.473 18.566-1.499 37.084-3.512 55.548-5.936 1.429-.189 2.845-.392 4.274-.581.224 2.154 1.415 4.14 2.96 5.646 1.586 1.546 3.532 2.323 5.642 2.897 5.138 1.398 10.209 1.324 15.476.905a112.923 112.923 0 0017.892-2.924c2.702-.662 5.397-1.135 7.337-3.289 1.654-1.844 2.573-4.127 1.729-6.551-1.777-5.038-6.847-8.827-11.897-10.212 1.361-2.093 2.478-4.362 3.342-6.632 3.859-10.083 3.689-21.436 3.505-32.059a312.79 312.79 0 00-8.405-66.584 309.002 309.002 0 00-8.031-27.899c7.82-4.572 15.592-9.299 22.581-15.067 3.839-3.147 7.419-6.625 10.536-10.495 3.293-4.093 5.975-8.422 5.308-13.879a23.75 23.75 0 00-.442-2.478v-.02c2.946-2.202 5.56-4.769 7.744-7.734 2.355-3.194 3.982-6.692 3.682-10.738l-.02-.013zM60.394 147.6c-3.914-.351-7.895-1.182-11.298-3.214-3.443-2.06-5.975-5.376-6.99-9.233-1.04-3.977-.34-8.3 1.859-11.778 1.068-1.708 2.497-2.951 4.58-3.181 2.035-.216 4.097.351 6.037.885 1.456.412 2.082-1.844.626-2.249-.075-.02-.143-.041-.204-.054a1.237 1.237 0 00-.3-.466c-1.327-1.256-2.736-2.776-2.668-4.728.068-1.816 1.702-2.593 3.335-2.714 3.464-.264 7.248 1.087 9.222 4.045.081.128.197.23.313.317-.007 0-.007.007-.007.007-.973 1.871-1.783 3.85-2.498 5.835-3.015 8.449-3.682 17.715-2.007 26.522v.006zm22.418 16.533h-.02a139.263 139.263 0 01-10.624-2.634c-2.308-.662-4.601-1.155-5.887-3.356-1.144-1.959-1.858-4.248-2.491-6.403-2.566-8.712-2.6-18.106-.143-26.845a45.65 45.65 0 012.3-6.396c.783-1.742 1.66-4.261 3.478-5.207 1.007-.533 2.205-.493 3.307-.446 1.355.054 2.702.142 4.057.216 2.082.115 4.171.223 6.26.338-2.252 8.219-2.02 16.925-2.055 25.367-.04 8.496.218 17.019 1.81 25.373l.008-.007zm28.876 29.973c2.661 1.512 5.717 2.174 8.752 2.6 4.084.581 8.188.999 12.291 1.33a234.881 234.881 0 0040.181-.189c.007 1.135.15 2.276.49 3.39a14.108 14.108 0 001.491 3.37c-3.907 1.047-8.011 1.088-12.04 1.182-4.383.115-8.779.095-13.169-.02-8.554-.223-17.157-.729-25.657-1.742-4.478-.541-8.922-1.432-13.101-3.148.272-2.255.524-4.518.749-6.787l.013.014zm64.362 12.595a.848.848 0 00.245-.142 16.524 16.524 0 003.089 2.864c6.248 4.437 15.109 3.944 21.806.81 3.688-1.722 6.874-4.633 8.677-8.172.048 0 .082.007.123.007.585-.047 1.157-.121 1.728-.189a631.097 631.097 0 01-1.368 24.637 587.45 587.45 0 01-1.068 12.433c-.204 2.128-.354 4.269-.647 6.383-.252 1.864-1.313 2.823-3.035 3.464-3.662 1.378-7.731 2.08-11.59 2.681a87.099 87.099 0 01-12.502 1.007c-1.586.006-4.159.418-5.336-.892-1.014-1.148-1.089-2.965-1.191-4.396-.293-4.127-.401-8.26-.388-12.393.048-9.381.742-18.748 1.457-28.109v.007zm-.15-12.791c2.219-6.349 8.752-10.691 15.449-10.691.068 0 .129-.007.197-.02 6.173.493 13.326 1.918 16.449 7.834 3.145 5.956-.646 12.838-5.907 16.066-5.438 3.344-12.999 4.438-18.947 1.77-5.757-2.573-9.371-8.834-7.241-14.966v.007zm-3.267 53.292c.232 3.269 1.035 6.95 4.887 7.504 2.103.297 4.348.141 6.472.067a83.534 83.534 0 006.751-.513 87.594 87.594 0 0012.938-2.445c3.437-.925 6.703-2.154 7.241-6.065.626-4.538.946-9.144 1.334-13.696a623.518 623.518 0 001.824-30.438 52.841 52.841 0 001.796-.277 243.43 243.43 0 01.661 28.709 250.166 250.166 0 01-1.035 15.135c-.204 2.067-.245 4.363-1.034 6.321-.837 2.067-2.852 3.046-4.819 3.87-4.43 1.837-9.317 2.459-14.047 2.992-4.791.547-9.643.959-14.469.925-2.327-.006-4.668-.155-6.941-.641-1.811-.392-4.996-.932-5.833-2.823-.837-1.891-.218-4.572-.082-6.551.171-2.526.341-5.059.497-7.598.742-11.319 1.491-22.638 2.233-33.957a31.632 31.632 0 002.654-.419c-.667 8.78-1.307 17.566-1.402 26.373-.048 4.511.054 9.029.374 13.541v-.014zm-19.975 45.506c-2.307 3.566-7.05 3.728-10.882 3.85-8.282.25-17.205.533-24.616-3.755-3.342-1.939-6.214-4.741-7.731-8.321 6.914.507 13.911 0 20.811-.351a1038.13 1038.13 0 0018.444-1.162c-.021.291.095.581.395.831 2.736 2.209 5.955 5.254 3.579 8.915v-.007zm113.179-21.112c.538.892 1.13 1.986 1.014 3.066-.116 1.108-.898 2.189-1.654 2.965-1.701 1.722-4.417 2.033-6.696 2.573-5.023 1.203-10.134 2.087-15.279 2.56-4.533.426-9.154.783-13.646-.101-1.912-.385-4.097-.784-5.778-1.81-1.81-1.121-3.505-3.222-3.675-5.417 7.187-.979 14.347-2.005 21.513-3.093.204.203.49.338.824.338.074 0 .149-.007.224-.02 5.411-.973 9.698-4.269 12.91-8.49.123.102.28.189.47.244 4.049 1.053 7.609 3.606 9.759 7.185h.014zm-7.554-86.999a307.254 307.254 0 012.974 32.559c.422 10.812.871 22.084-1.674 32.68-1.947 8.105-6.656 17.019-14.932 19.896h-.007a1.234 1.234 0 00-.674-.081c-18.225 2.823-36.499 5.295-54.833 7.314-18.273 2.013-36.608 3.58-54.963 4.613-5.063.277-10.133.561-15.197.709-5.016.142-10.045.054-14.986-.81-.048-.264-.225-.513-.565-.689-7.241-3.701-6.84-12.933-5.159-19.619 1.062-4.228 2.382-8.395 3.505-12.609a349.806 349.806 0 008.861-45.297c3.784 1.513 7.786 2.378 11.842 2.945 4.056.567 8.167.831 12.196 1.128 8.909.668 17.851.986 26.78.831 2.369-.048 4.778-.068 7.167-.23-.701 10.704-1.409 21.416-2.11 32.12-.17 2.681-.347 5.376-.524 8.064-.15 2.377-.592 4.923-.177 7.287.796 4.592 6.867 5.504 10.712 5.957 5.016.587 10.168.168 15.184-.277 5.043-.439 10.208-.939 15.088-2.29 4.219-1.161 8.929-2.924 10.188-7.523.613-2.256.715-4.687.932-6.997.266-2.749.477-5.497.647-8.26.721-11.683.572-23.408-.388-35.085 6.452-1.242 12.74-3.235 18.886-5.585 7.438-2.843 14.986-5.936 21.179-11.015.007.095.027.189.041.27l.007-.006zm-.449-2.992c-3.09 2.769-6.622 4.95-10.338 6.801-3.716 1.864-7.616 3.39-11.454 4.849-6.057 2.303-12.271 4.275-18.648 5.47-.497-.223-1.136-.142-1.456.263a70.61 70.61 0 01-5.091.662c.551-1.796.735-3.721.47-5.693a115.38 115.38 0 0024.97-7.22 115.813 115.813 0 0011.624-5.625c3.117-1.736 6.247-3.6 8.827-6.065a245.87 245.87 0 011.096 6.571v-.013zm12.223-70.758c-7.167 6.214-15.306 11.171-23.48 15.966a266.393 266.393 0 00-2.178-6.085c-.517-1.398-2.79-.79-2.266.614a322.257 322.257 0 012.382 6.673c.265.743.517 1.499.769 2.256a311.853 311.853 0 0110.923 41.933c-2.688 2.998-6.18 5.051-9.671 6.99a110.642 110.642 0 01-11.672 5.612 115.15 115.15 0 01-24.065 6.889c-1.129-3.343-3.763-6.052-6.853-7.754-4.063-2.255-8.786-2.829-13.359-3.14-.273-.02-.49.047-.667.149-6.309.513-12.271 4.288-15.225 9.894a15.509 15.509 0 00-1.599 4.666 236.585 236.585 0 01-49.811-.763c-3.927-.486-8.01-1.006-11.352-3.255.245-2.526.449-5.072.64-7.605a345 345 0 00.796-16.364c.007-.783.027-1.573.048-2.357.068-3.674.075-7.341.027-11.015-.02-1.499-2.368-1.499-2.348 0a331.27 331.27 0 01-.041 11.367c-8.058 1.08-16.286.688-24.31-.655a49.389 49.389 0 01-1.477-.264c-1.755-8.496-1.973-17.195-1.932-25.853.04-8.408-.232-17.073 2.103-25.238 11.74.635 23.486 1.27 35.233 1.911.449.021.762-.175.939-.459 1.504 0 2.988-.547 4.451-.81a30.116 30.116 0 015.22-.466 31.44 31.44 0 019.242 1.344c2.416 4.491 6.527 7.773 11.222 9.718 5.54 2.29 11.597 2.526 17.477 1.662 6.187-.912 12.428-2.877 18.076-5.538 5.111-2.405 9.535-5.917 12.455-10.779a26.369 26.369 0 003.539-16.958c.987-1.945 2.627-3.512 4.403-4.762 2.328-1.648 4.927-2.917 7.541-4.052.19-.08.299-.25.367-.425a224.872 224.872 0 0132.089-20.167c2.45 3.66 4.921 7.315 7.289 11.036 2.355 3.721 4.601 7.51 6.601 11.454a123.138 123.138 0 015.289 11.947c1.483 3.897 3.307 8.152 3.538 12.366-.122.115-.231.202-.353.317zm13.196-16.715c-.599 2.452-2.035 4.593-3.539 6.578-2.144 2.823-4.567 5.43-7.139 7.868l-.021.007c-.544-3.647-1.98-7.24-3.266-10.644a130.168 130.168 0 00-5.295-12.143c-4.05-8.124-9.154-15.6-14.19-23.13 1.633-.838 3.28-1.642 4.927-2.425 2.321-1.088 4.696-2.405 7.194-3.06 2.62-.682 4.526.412 6.104 2.452 1.484 1.938 2.75 4.072 4.077 6.125a163.762 163.762 0 014.063 6.558c2.593 4.437 5.05 9.104 6.527 14.04.748 2.506 1.191 5.194.551 7.76l.007.014zm11.175-23.374c-.17 2.053-1.042 3.93-2.13 5.66-2.008 3.18-4.642 5.99-7.616 8.313-1.109-3.505-2.818-6.875-4.499-10.036-2.62-4.91-5.682-9.576-8.745-14.223-1.211-1.837-2.491-3.809-4.451-4.95-.041-.02-.068-.04-.102-.054l-.02-.007a.897.897 0 00-.102-.547c.115-.621.354-1.283.564-1.844a8.243 8.243 0 011.144-2.14c.823-1.074 2.076-1.96 3.444-2.135.646-.08 1.381-.027 1.926.372.612.459 1.007 1.229 1.327 1.897.714 1.5.918 3.188.748 4.83v.02c-.51.52-.98 1.087-1.34 1.722-.763 1.303 1.265 2.478 2.028 1.182 1.905-3.283 6.03-4.296 9.494-3.06 3.831 1.371 6.336 4.903 7.486 8.645.626 2.033 1.014 4.22.844 6.355z" fill="#58393E"/><path d="M152.658 292.709c-2.307 3.566-7.05 3.728-10.882 3.85-8.282.25-17.205.533-24.616-3.755-3.342-1.939-6.214-4.741-7.731-8.321 6.914.507 13.911 0 20.811-.351a1038.13 1038.13 0 0018.444-1.162c-.021.291.095.581.395.831 2.736 2.209 5.955 5.254 3.579 8.915v-.007zm114.193-18.045c-.116 1.107-.898 2.188-1.654 2.964-1.701 1.723-4.417 2.033-6.696 2.574-5.023 1.202-10.134 2.086-15.279 2.559-4.533.426-9.154.784-13.646-.101-1.912-.385-4.097-.784-5.778-1.81-1.81-1.121-3.505-3.222-3.675-5.417 7.187-.979 14.347-2.005 21.513-3.093.204.203.49.338.824.338.074 0 .149-.007.224-.02 5.411-.973 9.698-4.269 12.911-8.49.122.102.279.19.469.244 4.049 1.053 7.609 3.606 9.759 7.185.538.892 1.13 1.986 1.014 3.067h.014z" fill="#58393E"/><path d="M257.834 181.606c-3.09 2.769-6.622 4.95-10.338 6.8-3.716 1.864-7.616 3.391-11.454 4.85-6.057 2.303-12.271 4.275-18.648 5.47-.497-.223-1.136-.142-1.456.263a70.61 70.61 0 01-5.091.662c.551-1.796.735-3.721.47-5.693a115.38 115.38 0 0024.97-7.22 115.813 115.813 0 0011.624-5.625c3.117-1.736 6.248-3.6 8.827-6.065a245.87 245.87 0 011.096 6.571v-.013zm-41.311 48.443a250.98 250.98 0 01-1.034 15.135c-.205 2.067-.245 4.363-1.035 6.321-.837 2.067-2.851 3.046-4.818 3.87-4.431 1.837-9.317 2.459-14.047 2.992-4.791.547-9.644.959-14.469.925-2.328-.006-4.669-.155-6.942-.641-1.81-.392-4.995-.932-5.832-2.823-.838-1.891-.218-4.572-.082-6.551.17-2.526.34-5.059.497-7.598.742-11.319 1.49-22.638 2.232-33.957a31.567 31.567 0 002.654-.419c-.667 8.78-1.306 17.566-1.402 26.373-.047 4.511.055 9.03.375 13.541.231 3.269 1.034 6.949 4.886 7.503 2.103.297 4.349.142 6.472.068a83.014 83.014 0 006.751-.514 87.567 87.567 0 0012.938-2.444c3.437-.926 6.704-2.155 7.241-6.065.626-4.539.946-9.144 1.334-13.696a622.384 622.384 0 001.824-30.439 50.504 50.504 0 001.797-.277c.783 9.55 1.007 19.14.66 28.71v-.014z" fill="#F9C73D"/><path d="M211.718 201.887a631.097 631.097 0 01-1.368 24.637 588.59 588.59 0 01-1.068 12.433c-.204 2.127-.354 4.268-.647 6.382-.252 1.864-1.313 2.823-3.035 3.465-3.662 1.378-7.731 2.08-11.59 2.681a86.954 86.954 0 01-12.502 1.006c-1.586.007-4.159.419-5.336-.891-1.014-1.148-1.089-2.965-1.191-4.397-.293-4.126-.401-8.259-.388-12.393.048-9.38.742-18.748 1.457-28.108a.871.871 0 00.245-.142 16.524 16.524 0 003.089 2.864c6.248 4.437 15.109 3.944 21.806.81 3.689-1.722 6.874-4.633 8.677-8.172.048 0 .082.007.123.007.585-.047 1.157-.122 1.728-.189v.007z" fill="#FEF7E0"/><path d="M207.995 191.04c-3.123-5.916-10.283-7.341-16.449-7.834-.068.007-.129.021-.197.021-6.697 0-13.23 4.342-15.449 10.69-2.13 6.133 1.484 12.393 7.241 14.966 5.955 2.668 13.516 1.574 18.947-1.769 5.261-3.221 9.052-10.11 5.907-16.067v-.007zm-6.907 13.508c-4.186 3.214-10.365 3.944-15.374 2.411-2.498-.763-4.826-2.283-6.132-4.572-1.355-2.385-1.28-5.349-.449-7.902 1.327-4.079 4.58-7.402 8.609-8.874.177-.203.449-.365.796-.399.231-.02.476-.04.721-.054.007 0 .021-.007.028-.007a1.25 1.25 0 01.415-.02c5.689-.351 12.461.669 15.129 6.375 2.13 4.559.122 10.077-3.75 13.048l.007-.006zm-26.195.067c-3.907 1.047-8.011 1.088-12.04 1.182-4.382.115-8.779.095-13.169-.02-8.554-.223-17.157-.73-25.657-1.743-4.478-.54-8.922-1.431-13.101-3.147.272-2.255.524-4.518.749-6.787 2.661 1.513 5.716 2.175 8.752 2.6 4.083.581 8.187 1 12.291 1.33a234.623 234.623 0 0040.181-.189c.006 1.135.149 2.276.49 3.391a14.14 14.14 0 001.49 3.37l.014.013z" fill="#F9C73D"/><path d="M64.913 115.238l-.007.007c-.973 1.871-1.783 3.849-2.498 5.835-3.015 8.449-3.682 17.715-2.008 26.521-3.913-.351-7.894-1.182-11.297-3.214-3.444-2.06-5.975-5.376-6.99-9.233-1.04-3.978-.34-8.3 1.859-11.778 1.068-1.709 2.497-2.951 4.58-3.181 2.035-.216 4.097.351 6.036.885 1.457.412 2.083-1.844.627-2.249-.075-.02-.143-.041-.205-.054a1.23 1.23 0 00-.3-.466c-1.326-1.256-2.735-2.776-2.667-4.728.068-1.816 1.702-2.593 3.335-2.715 3.464-.263 7.248 1.088 9.222 4.046.081.128.197.229.313.317v.007z" fill="#FFCFB3"/><path d="M80.995 138.761c-.041 8.496.217 17.019 1.81 25.373h-.02a128.907 128.907 0 01-5.54-1.269 95.32 95.32 0 01-2.07-.534 169.58 169.58 0 01-3.014-.837c-.64-.19-1.28-.352-1.886-.548-.72-.229-1.415-.493-2.034-.864-.77-.459-1.443-1.06-1.96-1.938-1.144-1.959-1.858-4.248-2.491-6.403-2.566-8.712-2.6-18.106-.143-26.845a45.638 45.638 0 012.3-6.396c.783-1.742 1.66-4.261 3.478-5.207.565-.297 1.19-.419 1.83-.459.49-.027.994-.007 1.477.007.266.006.518.02.783.04 1.089.047 2.185.122 3.28.176.157.006.314.02.47.027.694.04 1.402.074 2.103.115l3.689.195c-2.253 8.22-2.022 16.925-2.056 25.367h-.007z" fill="#F9C73D"/><path d="M294.428 70.759c-.17 2.053-1.042 3.93-2.13 5.66-2.008 3.18-4.642 5.99-7.616 8.313-1.109-3.505-2.818-6.875-4.499-10.036-2.62-4.91-5.682-9.576-8.745-14.223-1.211-1.837-2.491-3.809-4.451-4.95-.041-.02-.068-.04-.102-.054l-.02-.007a.897.897 0 00-.102-.547c.115-.621.354-1.283.564-1.844a8.243 8.243 0 011.144-2.14c.823-1.074 2.076-1.96 3.444-2.135.646-.08 1.381-.027 1.926.372.612.459 1.007 1.229 1.327 1.898.714 1.499.918 3.187.748 4.828v.02c-.51.52-.98 1.088-1.34 1.723-.763 1.303 1.265 2.478 2.028 1.182 1.905-3.283 6.03-4.296 9.494-3.06 3.831 1.371 6.336 4.903 7.486 8.645.626 2.033 1.014 4.22.844 6.355z" fill="#FFCFB3"/><path d="M283.253 94.133c-.17.696-.415 1.378-.701 2.033-.347.777-.749 1.52-1.205 2.235a45.398 45.398 0 01-1.633 2.31 62.616 62.616 0 01-1.674 2.094 49.645 49.645 0 01-1.675 1.911 70.312 70.312 0 01-3.79 3.856l-.021.007c-.544-3.647-1.98-7.24-3.266-10.644a130.168 130.168 0 00-5.295-12.143c-4.05-8.124-9.154-15.6-14.19-23.13.919-.467 1.831-.933 2.763-1.372.66-.337 1.313-.655 1.98-.959.068-.04.123-.067.191-.094 1.089-.514 2.185-1.074 3.308-1.594.741-.338 1.49-.669 2.266-.952a18.057 18.057 0 011.626-.514c2.621-.682 4.526.412 6.105 2.452 1.484 1.938 2.75 4.072 4.077 6.125a163.762 163.762 0 014.063 6.558c2.593 4.437 5.05 9.104 6.526 14.04.749 2.507 1.191 5.194.552 7.76l-.007.021z" fill="#F9C73D"/><path d="M242.14 121.343a330.388 330.388 0 012.382 6.673c.265.743.517 1.499.769 2.256a311.853 311.853 0 0110.923 41.933c-2.688 2.998-6.18 5.051-9.671 6.99a110.642 110.642 0 01-11.672 5.612 115.15 115.15 0 01-24.065 6.889c-1.129-3.343-3.763-6.052-6.853-7.753-4.063-2.256-8.786-2.83-13.36-3.141-.272-.02-.49.047-.667.149-6.308.513-12.27 4.288-15.224 9.894a15.481 15.481 0 00-1.599 4.666 236.585 236.585 0 01-49.811-.763c-3.927-.486-8.01-1.006-11.352-3.255.245-2.526.449-5.072.64-7.605.394-5.45.66-10.9.796-16.363.007-.784.027-1.574.048-2.357.068-3.674.074-7.342.027-11.016-.021-1.499-2.369-1.499-2.348 0a331.27 331.27 0 01-.041 11.367c-8.058 1.08-16.286.689-24.31-.655a46.383 46.383 0 01-1.477-.264c-1.756-8.496-1.973-17.194-1.933-25.853.041-8.408-.23-17.073 2.103-25.238 11.74.635 23.487 1.27 35.234 1.912.449.02.762-.176.939-.46 1.504 0 2.987-.547 4.451-.81a30.099 30.099 0 015.22-.466 31.44 31.44 0 019.242 1.344c2.416 4.491 6.526 7.773 11.222 9.718 5.54 2.29 11.597 2.526 17.477 1.662 6.187-.912 12.427-2.877 18.076-5.538 5.111-2.405 9.535-5.916 12.455-10.779a26.369 26.369 0 003.539-16.958c.986-1.945 2.627-3.512 4.403-4.762 2.327-1.647 4.927-2.917 7.541-4.052.19-.08.299-.25.367-.425a224.937 224.937 0 0125.31-16.52 225.677 225.677 0 016.779-3.647c2.45 3.661 4.92 7.315 7.289 11.036 2.355 3.721 4.6 7.51 6.601 11.454a122.888 122.888 0 015.288 11.947c1.484 3.897 3.308 8.152 3.539 12.366-.122.115-.231.203-.354.317-7.166 6.214-15.306 11.171-23.479 15.966a266.393 266.393 0 00-2.178-6.085c-.517-1.398-2.79-.79-2.266.614z" fill="#F94B4B"/><path d="M260.154 247.23a44.744 44.744 0 01-.415 1.966c-.047.216-.102.425-.15.641-.19.784-.401 1.587-.66 2.377a33.145 33.145 0 01-.987 2.871c-1.191 3.093-2.824 6.091-4.92 8.617a21.617 21.617 0 01-1.906 2.02 19.859 19.859 0 01-2.218 1.823 17.92 17.92 0 01-1.729 1.06c-.796.439-1.633.811-2.518 1.122h-.007s-.027-.007-.047-.021h-.007a1.18 1.18 0 00-.62-.067c-.422.067-.857.128-1.279.196l-2.396.364c-.66.102-1.327.203-1.98.311-.613.094-1.212.176-1.824.27-.64.095-1.286.196-1.926.277-2.328.351-4.655.689-6.989 1.013-.627.095-1.26.189-1.886.27-.837.122-1.674.243-2.504.351-.626.095-1.259.176-1.885.264l-3.26.445c-.64.082-1.28.169-1.906.25-1.626.223-3.246.426-4.866.642-.619.081-1.239.155-1.858.23-1.259.168-2.504.324-3.757.472-.619.081-1.231.156-1.851.23-1.164.149-2.321.29-3.484.419-.64.081-1.28.155-1.913.223-2.742.337-5.471.655-8.214.952-.347.047-.701.081-1.055.121-.34.041-.687.075-1.021.115-1.055.115-2.103.23-3.158.338-.667.074-1.327.148-1.994.216-1.252.128-2.491.263-3.736.385-.619.067-1.252.128-1.879.189-2.068.216-4.144.412-6.213.594-.626.068-1.259.122-1.899.176-1.041.101-2.082.196-3.137.277a66.14 66.14 0 01-1.926.169c-.967.094-1.947.175-2.913.263-.626.047-1.259.101-1.885.149-2.199.189-4.404.351-6.602.52-.667.054-1.341.101-2.008.148-.864.068-1.728.129-2.579.189-.64.048-1.266.095-1.899.129-1.089.081-2.171.148-3.26.223l-1.885.121a288 288 0 01-4.206.25c-.626.047-1.266.081-1.898.115-.293.027-.572.04-.865.054-.429.027-.871.047-1.307.074-.626.027-1.252.068-1.871.095-.721.047-1.45.081-2.171.121-.626.041-1.252.068-1.878.095-2.505.128-5.023.229-7.534.31-.15.007-.293.021-.443.021-.517.02-1.034.027-1.558.027-.79.02-1.586.027-2.382.027-.66 0-1.314-.007-1.974-.027a69.871 69.871 0 01-2.355-.095 43.527 43.527 0 01-1.871-.128 45.716 45.716 0 01-2.716-.297 36.535 36.535 0 01-1.871-.277 1.892 1.892 0 01-.266-.041c-.047-.263-.224-.513-.565-.689a11.014 11.014 0 01-1.429-.864 10.374 10.374 0 01-1.796-1.641h-.007c-1.824-2.134-2.655-4.883-2.886-7.76a23.799 23.799 0 01-.047-2.701c.04-.878.115-1.75.23-2.607.076-.622.171-1.23.293-1.837.144-.757.3-1.493.477-2.202 1.062-4.228 2.382-8.395 3.505-12.609a349.848 349.848 0 008.861-45.296c3.784 1.512 7.786 2.377 11.842 2.944 4.056.568 8.167.831 12.196 1.128 8.908.669 17.851.986 26.78.831 2.368-.048 4.778-.068 7.166-.23-.701 10.705-1.408 21.416-2.109 32.12-.171 2.681-.347 5.376-.524 8.064-.15 2.377-.593 4.923-.177 7.287.796 4.593 6.867 5.504 10.712 5.957 4.124.486 8.337.29 12.488-.047h.007c.898-.075 1.797-.156 2.688-.23 2.777-.243 5.595-.507 8.385-.925h.007a60.877 60.877 0 004.43-.811h.007a42.829 42.829 0 002.253-.56c1.708-.466 3.491-1.034 5.097-1.858l.021-.006c2.368-1.196 4.321-2.925 5.07-5.66.612-2.255.714-4.687.932-6.997.266-2.748.477-5.497.647-8.259.721-11.684.571-23.408-.388-35.085 6.452-1.243 12.74-3.235 18.886-5.585 7.438-2.844 14.986-5.937 21.179-11.015.007.094.027.189.041.27a307.254 307.254 0 012.974 32.559c.388 9.928.796 20.247-1.109 30.074l.04.006z" fill="#F94B4B"/><path d="M70.704 144.306c.722 1.675 1.008 3.39.79 5.22-.245 2.04-.933 3.978-1.307 5.991a13.37 13.37 0 00.095 5.429c-.721-.229-1.415-.493-2.034-.864a16.141 16.141 0 01.17-5.268c.428-2.168 1.28-4.295 1.286-6.524.02-2.161-1.041-3.971-2.021-5.835-1.81-3.458-2.444-7.213-.252-10.698.544-.864 1.238-1.641 1.722-2.552.544-1.054.598-2.128.415-3.269-.34-2.08-1.17-4.032-1.035-6.18.177-2.553 1.287-4.835 2.736-6.922.49-.027.994-.007 1.477.007.265.006.517.02.783.04-.837 1.108-1.6 2.276-2.192 3.532-1.02 2.188-1.096 4.323-.524 6.646.463 1.837 1.041 3.728.552 5.619-.463 1.81-1.858 3.073-2.689 4.687-.939 1.823-1.055 3.951-.395 5.882.593 1.783 1.688 3.343 2.43 5.059h-.007zm7.242-21.065c.347 1.763.612 3.539.197 5.322-.388 1.668-1.266 3.181-1.96 4.734-.844 1.864-1.239 3.883-.844 5.916.354 1.858 1.402 3.411 2.082 5.147 1.539 3.856-.51 7.334-.932 11.17-.272 2.472.068 4.95.762 7.334a89.667 89.667 0 01-2.069-.533c-.612-2.431-.843-4.937-.49-7.463.3-2.134 1.157-4.167 1.416-6.308.272-2.262-.667-3.991-1.586-5.963-1.735-3.721-1.381-7.294.347-10.934.885-1.857 1.729-3.613 1.6-5.734-.13-2.04-.837-4.005-.892-6.058-.075-2.384.538-4.734 1.681-6.794.694.04 1.402.074 2.103.115a11.403 11.403 0 00-1.586 3.626c-.537 2.182-.245 4.248.17 6.423zm204.606-27.075a17.25 17.25 0 01-1.205 2.235 15.968 15.968 0 00-.394-1.222c-.77-2.02-2.151-3.505-3.71-4.957-1.157-1.08-2.327-2.263-2.797-3.81-.565-1.884.279-3.612.586-5.45.313-1.863-.293-3.849-1.559-5.254-1.116-1.25-2.702-1.857-4.083-2.748-1.212-.79-2.273-1.81-2.675-3.235-.551-1.939.157-3.971-.476-5.896-1.219-3.654-4.894-5.585-8.188-7.166a32.025 32.025 0 012.267-.952c3.321 1.722 6.526 3.93 7.738 7.625.299.912.401 1.864.388 2.823-.007 1.155-.252 2.431.265 3.525.715 1.52 2.62 2.202 3.981 3.026 3.07 1.864 4.819 5.22 4.159 8.8-.218 1.202-.763 2.384-.715 3.613.041.885.476 1.668 1.021 2.337 1.143 1.39 2.654 2.43 3.763 3.87a12.429 12.429 0 011.641 2.843l-.007-.007zm-4.512 6.639a49.645 49.645 0 01-1.675 1.911 16.557 16.557 0 00-2.021-6.943c-.959-1.722-2.253-3.093-3.607-4.511-1.279-1.351-2.491-2.83-2.872-4.687-.422-1.986.095-4.073-.442-6.018-.517-1.864-2.219-2.897-3.675-4.005-1.341-1.026-2.498-2.14-3.117-3.748-.735-1.898-.62-3.978-1.11-5.943-.864-3.532-3.981-5.734-6.969-7.557a49.014 49.014 0 011.981-.96c3.09 2.006 6.002 4.492 6.846 8.2.463 2.032.266 4.315 1.266 6.2.892 1.674 2.722 2.62 4.145 3.802 1.49 1.229 2.423 2.742 2.647 4.68.252 2.168-.292 4.457.824 6.45.993 1.782 2.702 3.059 3.974 4.62a17.96 17.96 0 012.92 5.18 17.26 17.26 0 01.871 3.335l.014-.006z" fill="#FEF7E0"/><path d="M194.364 266.802c-5.867.608-10.168 5.282-11.393 10.826.667-.067 1.327-.142 1.994-.216 1.184-4.295 4.383-7.949 8.99-8.692 4.451-.716 9.1 2.053 9.862 6.531.619-.074 1.232-.149 1.851-.23-.912-5.207-5.962-8.766-11.297-8.219h-.007z" fill="#F9C73D"/><path d="M193.608 271.023c-2.654.986-4.689 3.384-5.492 6.058.34-.04.687-.074 1.021-.114.347-.041.701-.075 1.055-.122.714-1.668 1.973-3.073 3.614-3.883 1.109-.547 2.218-.399 3.11.445.721.683 1.143 1.574 1.49 2.486.64-.068 1.28-.142 1.913-.223-.511-1.351-1.096-2.729-2.199-3.701-1.259-1.101-2.912-1.54-4.519-.952l.007.006zm41.433-7.503c-1.905-1.621-4.226-2.256-6.676-1.594-4.989 1.344-6.942 6.376-7.064 11.042a87.085 87.085 0 001.885-.263c.17-3.782 1.613-7.895 5.669-8.982 2.178-.595 3.947.216 5.513 1.722 1.558 1.499 2.865 3.208 3.947 5.072.66-.101 1.327-.203 1.98-.311-1.34-2.472-3.11-4.849-5.26-6.693l.006.007z" fill="#F9C73D"/><path d="M230.72 266.492c-1.457-.021-2.818.682-3.716 1.796-.933 1.162-1.327 2.607-1.307 4.066a93.929 93.929 0 001.885-.27c.028-.905.245-1.817.81-2.546.599-.784 1.484-1.23 2.477-1.182 1.681.074 2.9 1.317 3.703 2.715.639-.081 1.286-.19 1.926-.277-1.13-2.283-3.022-4.275-5.778-4.296v-.006zm-69.752 3.14c-4.26-1.938-9.303-.459-11.896 3.384-1.538 2.282-2.369 5.085-2.777 7.8.626-.041 1.259-.081 1.899-.128.415-2.432 1.232-4.984 2.668-6.963 1.443-1.986 3.75-3.1 6.207-3.087 4.627.021 7.962 4.397 7.118 8.78.64-.047 1.287-.101 1.926-.169.49-3.836-1.504-7.956-5.138-9.617h-.007z" fill="#F9C73D"/><path d="M159.022 274.096c-1.252-.668-2.723-.54-3.961.074-1.191.595-2.096 1.689-2.777 2.803a13.2 13.2 0 00-1.511 3.526c.667-.048 1.341-.095 2.008-.149.293-.878.674-1.709 1.164-2.499.626-.999 1.463-1.985 2.654-2.283 1.096-.27 2.008.277 2.491 1.25.463.925.422 1.985.292 3.012.627-.047 1.26-.101 1.886-.149.095-.925.102-1.843-.143-2.742-.313-1.148-1.035-2.276-2.103-2.843zm-35.063-3.012c-5.989.54-9.174 6.092-10.896 11.231.66.021 1.313.027 1.974.027 1.449-4.153 3.933-8.678 8.656-9.353 2.083-.311 4.458.412 5.731 2.161 1.279 1.783 1.579 4.336 1.579 6.598.619-.027 1.238-.067 1.871-.094-.02-2.715-.462-5.761-2.123-7.848-1.586-1.986-4.281-2.945-6.792-2.722z" fill="#F9C73D"/><path d="M125.613 276.723c-2.845-1.425-5.663.959-7.099 3.235-.469.743-.823 1.54-1.089 2.357.524 0 1.042-.006 1.559-.027.15 0 .293-.006.442-.02.225-.52.49-1.027.797-1.499.673-1.034 1.674-2.155 2.912-2.499.572-.155 1.219-.149 1.736.175.537.345.946.939 1.279 1.473.388.635.688 1.323.81 2.039a91.223 91.223 0 001.879-.094 7.66 7.66 0 00-.572-1.966c-.524-1.181-1.45-2.573-2.648-3.18l-.006.006z" fill="#F9C73D"/><path d="M249.932 253.977c-2.225-1.378-4.927-1.898-7.561-1.695-3.09.25-6.799 1.405-8.214 4.41-.157-.054-.32-.101-.477-.155-4.845-1.54-9.548.243-12.713 3.762-1.477-1.034-2.967-2.04-4.655-2.702-1.409-.56-2.892-.743-4.383-.668l-.02.006c-1.606.817-3.389 1.392-5.098 1.858a50.71 50.71 0 01-2.252.56h-.007a6.39 6.39 0 00-1.688 2.053 13.247 13.247 0 00-2.743-1.242h-.006c-2.791.418-5.608.682-8.385.925-.892.074-1.783.155-2.688.229h-.007c-2.158 1.081-4.131 2.574-5.792 4.289h-.007c-2.382-1.992-5.458-2.992-8.582-2.945a16.804 16.804 0 00-5.192.926c-1.464.493-2.893 1.087-3.866 2.303a13.446 13.446 0 00-3.382-1.959c-2.974-1.182-6.411-1.297-9.413-.081-1.885.777-3.511 1.979-4.913 3.411 0 0 0 .006-.007.006-1.933-2.228-4.751-3.532-7.718-3.599-1.586-.041-3.212.27-4.696.83-1.286.487-2.613 1.088-3.518 2.134a10.674 10.674 0 00-2.478-1.391c-5.002-1.985-10.181-.25-13.972 3.093a10.507 10.507 0 00-6.581-3.41c-2.293-.277-4.573.27-6.533 1.418-1.191-1.438-2.716-2.56-4.553-2.965a22.961 22.961 0 00-.293 1.837c1.355.311 2.471 1.162 3.369 2.249.354.419.674.878.96 1.351.469.79.857 1.621 1.143 2.424.048.129.095.271.129.399.143.398.266.81.368 1.222.204.79.367 1.587.476 2.384.082.541.15 1.081.198 1.621.129 1.547.142 3.114.102 4.66.619.115 1.252.203 1.871.277.055-1.763.041-3.539-.122-5.302.177-.006.354-.02.537-.006.143 0 .273.02.402.027h.075s.02.006.095.02c.449.074.898.176 1.341.297.231.054.469.115.694.189.102.027.197.054.293.081.068.027.122.048.19.068.007.007.021.02.055.04.04.021.081.041.122.041a21.885 21.885 0 00-.966 4.856c.619.054 1.252.101 1.871.128.688-7.037 5.193-14.797 12.74-15.844 3.812-.52 7.562.973 9.651 4.221 2.069 3.208 2.627 7.213 1.933 10.921a61.746 61.746 0 001.899-.115 18.55 18.55 0 00.176-4.268v-.021c.069-.067.13-.121.177-.196a.164.164 0 00.041-.054c.041-.04.075-.081.116-.128.082-.081.156-.155.252-.243.041-.041.081-.074.129-.115a.145.145 0 01.048-.027c.102-.067.197-.128.299-.189.055-.04.123-.067.191-.101.007 0 .054-.027.095-.041a.289.289 0 01.082-.04 1.34 1.34 0 01.17-.054c.252-.095.51-.149.782-.196h.021c.054-.007.116-.02.17-.02.143-.007.272-.021.402-.021h.353c.055.007.123.007.177.021 0 0 .123.006.157.006a.758.758 0 01.122.027c.068.007.13.021.198.041.143.027.279.074.415.121.02.007.048.021.054.027l.171.081c0 .007.122.082.149.095.021.027.123.122.123.122.068.054.143.094.218.128l-.007.02c-.545 1.54-.933 3.134-1.069 4.761l1.885-.121c.402-3.897 2.301-7.638 4.656-10.738 2.205-2.898 5.274-5.282 9.065-5.45 7.894-.365 12.903 6.895 12.488 14.115.64-.055 1.266-.115 1.899-.176a16.538 16.538 0 00-.231-3.708c.027-.067.054-.101.068-.121.04-.021.074-.041.074-.048.171-.054.402-.101.511-.121.64-.095 1.286-.115 1.926-.101a14.27 14.27 0 013.702.547.873.873 0 00.688-.081 24.051 24.051 0 00-.511 2.87.678.678 0 000 .169 87.831 87.831 0 001.879-.189c.789-7.159 6.009-13.697 12.937-15.925 4.124-1.324 8.31-.541 11.617 2.276 3.063 2.6 4.764 6.348 5.629 10.184a171.21 171.21 0 001.858-.23c.006-.04 0-.067-.007-.101a23.31 23.31 0 00-1.429-4.41c.844-.79 2.082-1.006 3.205-1.128 1.205-.128 2.62-.351 3.716.27.041.02.068.02.095.041-.347 1.546-.565 3.12-.714 4.687.626-.081 1.266-.169 1.905-.25.695-6.349 3.281-14.615 10.753-15.547 7.337-.912 12.21 5.734 13.898 11.974.422-.067.857-.128 1.279-.196.231-.04.429-.006.619.068-.517-2.06-1.293-4.1-2.354-5.943.02-.027.047-.048.074-.075-.006.027 0 .021.028-.02.006-.007.027-.007.054-.04.082-.041.17-.081.252-.122.129-.067.367-.149.572-.216a6.445 6.445 0 011.408-.297 6.358 6.358 0 012.273.175c-.122 1.81-.02 3.647.273 5.43.599-.324 1.17-.682 1.728-1.06-.374-2.715-.224-5.518.545-8.138.095-.345.204-.689.34-1.027.197-.567.442-1.121.715-1.668.252-.52.551-1.033.871-1.526.02-.027.041-.068.068-.095 1.899-2.877 4.914-5.119 8.303-5.909.15-.655.292-1.304.415-1.965-4.179.756-7.82 3.241-10.215 6.746l-.055.007zm-139.496 21.524c-.946-.419-2.008-.662-3.035-.804a6.996 6.996 0 00-1.634-.047 22.113 22.113 0 00-.517-2.404c.327-.169.694-.264 1.041-.345a6.374 6.374 0 011.954-.121 5.983 5.983 0 013.334 1.377 20.85 20.85 0 00-1.143 2.337v.007zm2.144-3.924c-1.253-.972-2.743-1.519-4.329-1.661a7.993 7.993 0 00-2.504.202 6.963 6.963 0 00-1.069.338c-.102-.29-.217-.581-.34-.858a13.322 13.322 0 00-.898-1.749c3.491-2.012 7.99-1.222 10.705 1.79a17.574 17.574 0 00-1.558 1.938h-.007zm30.36 3.026c-.783-.547-1.756-.743-2.722-.743-.388 0-.769.027-1.137.081a5.156 5.156 0 00-2.273.939v-.027a16.92 16.92 0 00-.858-2.83c2.58-1.648 5.792-1.77 8.474-.223a28.064 28.064 0 00-1.484 2.803zm2.6-4.512a.827.827 0 01-.096.129c-3.164-1.891-7.214-1.864-10.317.081a12.046 12.046 0 00-1.797-2.452c.749-.925 2.151-1.432 3.233-1.783a11.007 11.007 0 013.832-.54c2.463.115 4.655 1.297 6.227 3.14-.375.46-.735.932-1.082 1.419v.006zm32.701 3.782a.865.865 0 00-.565-.425 15.867 15.867 0 00-4.607-.615c-.722.007-1.477.054-2.178.203-.15.027-.3.074-.442.121a15.09 15.09 0 00-.919-2.323c1.456-.743 3.049-1.155 4.702-1.128 1.042.021 2.076.196 3.09.412.762.156 1.511.318 2.171.696a20.697 20.697 0 00-1.252 3.059zm2.926-5.835c-.265.365-.517.743-.762 1.128h-.007c-.782-.446-1.687-.662-2.579-.851-1.171-.25-2.375-.459-3.587-.473-1.96-.04-3.906.446-5.635 1.344a15.502 15.502 0 00-1.66-2.08.327.327 0 00.102-.115c.748-1.026 2.327-1.465 3.484-1.81 1.436-.439 2.92-.682 4.424-.668 2.552.007 5.077.831 7.03 2.478-.279.345-.551.689-.81 1.047zm36.567-2.154a22.04 22.04 0 00-.422 1.256c-1.367-.615-2.926-.493-4.396-.324-1.388.155-2.77.446-3.906 1.256a21.923 21.923 0 00-1.382-2.229c.987-1.587 2.818-2.33 4.655-2.33 1.109 0 2.198.216 3.24.568.741.243 1.687.655 1.994 1.445.047.128.129.243.217.344v.014zm1.253-2.796c-.143.25-.273.493-.395.743-1.416-1.601-4.056-2.134-6.084-2.182-2.307-.054-4.696.831-6.105 2.668a15.733 15.733 0 00-2.001-1.864c.007-.02.021-.02.027-.041 1.219-2.458 4.261-3.329 6.82-3.599 1.681-.176 3.314 0 4.872.695 1.314.588 2.519 1.419 3.689 2.249-.299.419-.571.865-.823 1.324v.007zm28.121-1.776a8.379 8.379 0 00-2.811-.129c-1.021.122-2.225.372-3.069 1.034a16.507 16.507 0 00-1.613-1.959.925.925 0 00.17-.121c2.157-1.959 5.261-2.33 7.82-1.122a16.77 16.77 0 00-.497 2.29v.007zm1.102-4.08c-3.239-1.431-7.091-.817-9.745 1.594a.969.969 0 00-.177.203 14.46 14.46 0 00-2.403-1.594c1.252-2.31 4.261-3.147 6.745-3.309 2.218-.142 4.491.27 6.356 1.438a18.777 18.777 0 00-.769 1.668h-.007z" fill="#F9C73D"/><path d="M252.838 257.678c-1.211 2.445-1.905 5.322-1.722 8.05a21.48 21.48 0 001.906-2.019 14.44 14.44 0 011.429-5.085c.783-1.554 2.083-2.601 3.491-3.533.375-.952.701-1.911.987-2.87a.208.208 0 01-.041.027c-2.293 1.513-4.798 2.897-6.057 5.43h.007zM97.274 267.815c-.041.905-.02 1.81.047 2.702a12.396 12.396 0 012.886 7.753h.007a9.934 9.934 0 001.796 1.648c.477-4.485-1.279-9.151-4.73-12.103h-.006z" fill="#F9C73D"/><path d="M204.831 191.506c-2.668-5.7-9.44-6.726-15.129-6.375a1.258 1.258 0 00-.415.02c-.007 0-.021.007-.028.007-.245.02-.49.041-.721.054a1.232 1.232 0 00-.796.399c-4.029 1.472-7.289 4.788-8.609 8.874-.824 2.553-.899 5.518.449 7.902 1.306 2.289 3.634 3.809 6.132 4.572 5.002 1.526 11.181.803 15.374-2.411 3.865-2.972 5.88-8.49 3.75-13.048l-.007.006zm-3.961 10.111c-2.947 3.16-7.643 4.079-11.815 3.647-2.348-.244-4.764-1-6.445-2.722-1.722-1.749-2.028-4.167-1.483-6.477.973-4.214 4.396-7.557 8.582-8.611 4.253-.297 8.97.048 11.937 3.418 2.736 3.12 1.905 7.874-.783 10.745h.007z" fill="#58393E"/><path d="M200.87 201.617c-2.947 3.16-7.643 4.079-11.815 3.647-2.348-.243-4.764-1-6.445-2.722-1.722-1.749-2.028-4.167-1.483-6.477.973-4.214 4.396-7.557 8.582-8.611 4.253-.297 8.97.048 11.937 3.418 2.736 3.12 1.905 7.874-.783 10.745h.007z" fill="#C3E9F4"/><path d="M198.44 107.701c-2.443 4.619-6.254 8.064-10.875 10.468-5.064 2.627-10.78 4.437-16.368 5.552-5.506 1.107-11.304 1.303-16.694-.426-4.887-1.567-9.229-4.66-11.76-9.124a.796.796 0 00-.15-.263c-.007-.007-.007-.021-.007-.027 3.314-2.553 7.221-4.127 11.229-5.43.368-.129.742-.243 1.11-.365 2.845-.892 5.717-1.695 8.452-2.668 8.188-2.87 15.905-7.017 24.229-9.543 2.892-.877 5.839-1.52 8.833-1.769a23.257 23.257 0 011.824-.101c.94-.04 1.879-.02 2.818.04.524 4.68-.449 9.503-2.641 13.663v-.007z" fill="#F9C73D"/><path d="M202.204 94.113a12.81 12.81 0 00-1.13-.075c-4.573-.29-9.099.507-13.475 1.838-8.324 2.525-16.041 6.672-24.228 9.542-6.969 2.452-14.837 3.877-20.792 8.463-.265.202-.524.418-.789.634-.912.777-2.246-.54-1.327-1.317.04-.027.074-.067.115-.094 3.315-2.776 7.262-4.539 11.332-5.937 3.988-1.357 8.051-2.498 12.019-3.923 4.274-1.54 8.425-3.343 12.59-5.133 7.956-3.41 16.361-6.619 25.174-5.91.171.02.327.028.497.048 1.191.115 1.205 1.979 0 1.864h.014z" fill="#58393E"/><path d="M198.297 94.275c.021 4.518-.973 9.124-3.334 13.021-2.253 3.728-5.533 6.017-9.426 7.834-4.519 2.107-9.14 4.214-14.068 5.173-4.838.932-9.487.385-14.169-1.026-3.832-1.135-7.609-2.877-9.862-6.301-.666-1.007.96-1.939 1.613-.939 2.403 3.654 6.949 5.052 10.998 6.065 4.526 1.127 8.943 1.046 13.442-.196 4.348-1.202 8.554-3.087 12.583-5.099 3.539-1.763 6.248-4.275 8.017-7.821 1.661-3.309 2.348-7.037 2.328-10.718 0-.054 0-.115.02-.169a23.257 23.257 0 011.824-.101.815.815 0 01.041.27l-.007.007z" fill="#FFAD26"/><path d="M192.887 97.442c-.191-1.182-2.001-.682-1.81.493.598 3.776-2.015 7.085-4.867 9.239-3.11 2.344-6.662 4.309-10.365 5.538-3.709 1.236-7.806 2.411-11.726 1.445-3.559-.871-6.302-3.444-8.888-5.875-.878-.824-2.212.493-1.327 1.317 2.253 2.114 4.594 4.295 7.459 5.565 3.097 1.377 6.459 1.404 9.746.776 3.552-.682 7.214-1.857 10.372-3.613 2.844-1.58 5.812-3.275 8.091-5.626 2.417-2.492 3.866-5.781 3.315-9.259z" fill="#FFAD26"/><path d="M187.02 194.505c-1.715.182-2.654 2.06-2.933 3.559-.143.75-.197 1.56.089 2.29.299.77.932 1.404 1.783 1.533a2.1 2.1 0 001.089-.129c.115 0 .224 0 .333-.013 1.695-.263 2.246-2.431 2.219-3.87-.028-1.459-.728-3.579-2.58-3.377v.007zm3.117-3.917c-.02-.088-.068-.176-.109-.257a.1.1 0 00-.027-.047c-.047-.081-.115-.155-.177-.223-.013-.013-.027-.033-.047-.047a1.318 1.318 0 00-.511-.29.688.688 0 00-.143-.021c-.02 0-.102-.02-.149-.02h-.028c-.081.014-.163.02-.251.034h-.028c-.006 0-.02 0-.027.007-.075.027-.17.067-.245.101-.088.047-.163.115-.238.176 0 0 0 .006-.014.013-.095.047-.19.088-.272.149a1.895 1.895 0 00-.381.317 2.66 2.66 0 00-.211.27c-.061.095-.102.21-.143.311-.054.142-.068.304-.082.452v.108c.014.115.021.23.055.345.068.223.17.392.32.56.068.081.163.142.252.203.095.067.204.108.313.142.108.04.224.047.34.061.116.013.231-.014.347-.034.034 0 .068-.014.102-.027.109-.041.218-.081.313-.142.279-.169.49-.405.667-.675.048-.075.095-.156.129-.237.075-.155.15-.317.198-.486.034-.122.047-.25.061-.378v-.068c0-.101-.02-.216-.041-.31l.027.013z" fill="#FEF7E0"/><path d="M189.423 153.254a2.278 2.278 0 00-2.253-.824 2.248 2.248 0 00-1.763 1.81v.02l-2.239 11.988v.014a.669.669 0 000 .155.42.42 0 00.286.311h.007c2.137.547 4.437.628 6.751.148a14.89 14.89 0 006.125-2.823l.014-.013a.4.4 0 00.129-.392.57.57 0 00-.061-.149l-6.996-10.238m4.328-2.202a.41.41 0 00-.32.486.428.428 0 00.062.142v.007l5.716 8.368a.416.416 0 00.429.169.397.397 0 00.266-.183s0-.006.006-.013a14.592 14.592 0 001.899-10.225v-.014a.417.417 0 00-.49-.317l-7.568 1.573v.007zm-20.73 4.309a.41.41 0 00-.32.486v.021a14.683 14.683 0 005.894 8.617c.088.054.197.081.306.054a.405.405 0 00.32-.324l1.851-9.941a.412.412 0 00-.49-.48l-7.568 1.574.007-.007zm13.686-17.688s-.034 0-.054.007a.409.409 0 00-.32.486l.143.676c.442 2.188 1.388 4.484 2.872 6.787l1.062 1.553a.424.424 0 00.394.176h.028l8.861-1.844a.408.408 0 00.319-.486c-.006-.04-.027-.081-.047-.122v-.006c-2.722-4.566-7.793-7.395-13.244-7.233h-.021m-4.525 1.357a.412.412 0 00-.49-.317c-.021 0-.034.006-.055.013h-.02c-5.064 2.019-8.562 6.632-9.208 11.9v.128a.412.412 0 00.49.318l8.861-1.844s.027-.007.041-.014c0 0 .027-.006.034-.013a.424.424 0 00.238-.297l.34-1.844c.429-2.701.368-5.18-.109-7.368l-.143-.675" fill="#FFC6BD"/><path d="M155.775 30.278c-3.416-2.823-7.806-2.29-11.576-.615a1.145 1.145 0 00-.79.102c-3.79 1.857-6.499 5.97-6.125 10.238.177 2.087 1.11 4.127 2.743 5.477 1.708 1.418 3.954 1.898 6.132 1.939 4.104.08 9.412-1.588 11.25-5.552 1.654-3.566 1.626-8.901-1.634-11.596v.007zm-.04 9.34c-.443 1.668-1.382 2.91-2.893 3.775a12.97 12.97 0 01-4.927 1.628c-3.335.392-7.126-.446-8.106-4.072-.823-3.073.674-6.16 3.07-8.078.149-.02.299-.067.462-.155 2.852-1.662 6.459-3.019 9.671-1.466 3.165 1.54 3.553 5.302 2.723 8.368z" fill="#58393E"/><path d="M259.794 27.252c-.837-6.8-4.996-13.054-11.495-15.675-3.24-1.303-6.854-1.62-10.284-.952-3.627.709-6.669 2.681-9.194 5.315-3.137 3.262-5.785 6.936-9.154 9.989-3.369 3.066-7.336 5.49-11.889 6.334a.53.53 0 00-.157.048c-1.905-3.161-3.831-6.302-5.832-9.395-1.511-2.35-3.158-4.68-5.193-6.625-2.123-2.02-4.655-3.525-7.289-4.809-5.533-2.7-11.331-4.815-17.572-4.977-2.6-.067-5.186.169-7.745.581a1.021 1.021 0 00-.245-.338c-4.009-3.755-8.643-6.483-14.292-6.55-5.703-.068-11.073 2.18-16.027 4.74-2.614 1.351-5.173 2.803-7.82 4.1-2.763 1.344-5.628 2.41-8.555 3.33-4.941 1.526-10.331 2.289-13.754 6.53-3.036 3.755-4.152 8.955-2.546 13.548.055.155.13.277.225.391-4.124 3.262-7.71 7.112-10.317 11.785-3.172 5.687-4.336 12.029-3.505 18.471.32 2.452.87 4.836 1.579 7.193-3.71 1.283-7.596 1.932-11.53 1.817-4.423-.115-8.459-1.398-12.63-2.715-3.778-1.182-7.745-2.087-11.7-1.256-3.763.79-6.451 3.363-8.405 6.544-3.756 6.105-4.505 14.223-.898 20.558 3.512 6.179 10.426 9.759 17.327 10.671 4.819.634 9.698.114 14.408-.959 4.546-1.047 9.324-2.384 13.244-4.978 1.055 2.749 2.654 5.761 5.533 6.848 2.845 1.074 5.703.095 8.112-1.472.388 1.087.769 2.181 1.157 3.262 1.402 3.87 2.818 7.713 4.261 11.562.721 1.938 1.429 3.883 2.198 5.815.619 1.574 1.341 3.059 2.572 4.268.844.831 2.233-.02 1.954-1.134a305.968 305.968 0 00-5.363-18.863 28.57 28.57 0 005.097 2.668c12.441 4.977 26.869 2.714 39.432-.534a213.543 213.543 0 009.787-2.742c1.429 3.215 4.206 5.99 7.044 7.821 4.396 2.843 10.753 3.41 14.544-.763 3.749-4.1 3.634-10.577 2.477-15.676a163.042 163.042 0 004.335-1.857c10.134-4.444 22.132-9.657 27.216-20.16a25.457 25.457 0 001.613-4.335 824.294 824.294 0 015.805 16.762c.395 1.175 1.831 1.034 2.267 0 .735-1.742.115-3.707-.266-5.47-.449-2.107-.932-4.2-1.456-6.28a175.673 175.673 0 00-3.58-12.387 170.268 170.268 0 00-1.654-4.761c2.273-.399 4.533-1.121 6.486-2.303 1.082-.662 2.082-1.54 2.613-2.715.47-1.013.511-2.08.415-3.147.123.02.252.02.395 0 7.534-1.25 15.306-3.12 21.016-8.49 5.064-4.754 8.106-11.71 7.248-18.653l-.013.02zm-56.699 2.546c.143.176.313.29.477.345a442.15 442.15 0 015.444 9.124c-.095.23-.095.513.028.803-17.232-2.43-34.546-.121-51.145 4.863a160.127 160.127 0 00-43.046 20.355 159.57 159.57 0 00-19.628 15.554 138.759 138.759 0 01-2.048-4.93c4.348-8.8 11.352-16.074 19.974-20.808-.081.46-.17.925-.217 1.391-.171 1.48 2.177 1.473 2.348 0 .496-4.464 2.572-8.712 5.778-11.873 1.565-1.546 3.402-2.802 5.39-3.761a20.844 20.844 0 014.764-1.58c.177-.041 1.095-.298 1.429-.264 0 .169-.007.338 0 .513.082 1.493 2.43 1.5 2.348 0-.32-5.93 3.634-10.893 9.181-12.805 4.975-1.715 10.902-.513 13.672 4.248.722 1.25 2.627.203 2.083-1.046 6.554-4.046 15.027-2.877 20.192 2.917 1.008 1.121 2.655-.533 1.661-1.648a16.755 16.755 0 00-1.082-1.1c3.444-1.324 7.153-1.77 10.848-1.763 2.076 0 4.145.142 6.2.344.967.095 1.926.203 2.872.318.864.1 1.872.1 2.471.81l.006-.007zm-98.342-8.989c2.961-4.032 7.99-4.694 12.489-6.065 5.172-1.587 9.943-3.829 14.693-6.382 4.621-2.471 9.378-4.984 14.66-5.666 2.851-.371 5.784-.169 8.473.892 2.293.911 4.308 2.384 6.138 4.004-2.824.595-5.628 1.378-8.377 2.23-12.319 3.808-24.501 8.387-36.214 13.77-4.75 2.188-9.473 4.714-13.74 7.8-1.096-3.606-.354-7.537 1.871-10.583h.007zm-13.4 27.643c4.417-10.164 13.924-16.75 23.609-21.49 10.923-5.35 22.465-9.644 34.001-13.447 5.832-1.931 11.774-3.85 17.919-4.47 6.132-.622 11.917.398 17.559 2.775 2.892 1.223 5.826 2.573 8.385 4.39 2.627 1.857 4.621 4.39 6.377 7.037.762 1.135 1.49 2.303 2.232 3.458-.783-.101-1.559-.142-2.246-.216-2.402-.263-4.819-.466-7.228-.493-4.573-.047-9.119.594-13.318 2.445-5.867-4.073-13.85-4.383-20.05-.426-3.614-4.194-9.773-5.355-15.054-3.538-5.594 1.931-9.923 6.53-10.76 12.244-.626-.007-1.307.142-1.885.25a21.365 21.365 0 00-3.913 1.128 23.392 23.392 0 00-6.895 4.227c-2.96 2.668-5.049 6.085-6.227 9.82-.102.027-.218.054-.326.115-9.052 4.545-16.613 11.852-21.459 20.7-2.81-7.99-4.253-16.364-.721-24.502v-.007zm-3.791 49.382c-3.28 2.215-7.146 3.39-10.957 4.39-3.954 1.047-8.017 1.722-12.121 1.641-6.683-.142-13.802-2.654-17.872-8.199-4.029-5.504-3.852-13-.667-18.863 1.736-3.194 4.172-5.814 7.895-6.476 3.716-.662 7.438.466 10.937 1.594 4.22 1.35 8.364 2.471 12.828 2.532 4.022.068 8.038-.615 11.822-1.938.217.641.449 1.283.687 1.918-3.137 1.074-6.724.952-9.97 1.074-3.832.128-7.718.128-11.502-.622-3.491-.689-6.867-2.087-10.474-2.127-3.171-.027-6.18 1.135-8.2 3.613-3.866 4.741-3.587 12.055-1.042 17.35 1.191 2.479 3.097 4.694 5.54 6.017 2.994 1.628 6.486 1.871 9.834 1.838 8.03-.102 15.94-1.891 23.269-5.1.068.412.143.818.245 1.223a1.11 1.11 0 00-.252.128v.007zm-.143-3.62c-.204-.027-.429 0-.667.101a57.192 57.192 0 01-19.43 4.809c-3.158.203-6.5.344-9.569-.54-2.702-.79-4.839-2.58-6.248-4.998-2.674-4.586-3.287-11.967.572-16.1 4.703-5.025 12.339-.811 17.92-.028 3.804.534 7.656.487 11.494.318 3.185-.142 6.404-.196 9.44-1.195.844 2.127 1.749 4.214 2.654 6.287.007.149.048.29.116.425.02.048.027.095.054.15.313.654.592 1.323.865 1.991-2.573.311-4.819 2.04-6.058 4.296-.769 1.398-1.109 2.924-1.143 4.47v.014zm7.248 10.347c-2.246-.986-3.491-3.978-4.22-6.133-.796-2.357-1.13-5.105.075-7.388.994-1.87 2.777-3.31 4.969-3.31.646 1.797 1.252 3.614 1.912 5.403a57.67 57.67 0 002.396 5.538c.517 1.479 1.041 2.952 1.565 4.438-1.906 1.371-4.417 2.471-6.704 1.452h.007zm89.386 9.353c-2.498 4.073-7.684 4.262-11.57 2.134-2.763-1.512-5.546-4.065-6.941-7.084a9.882 9.882 0 01-.674-1.965c.02-.075.02-.149.02-.23v-.068c-.149-4.801 4.744-7.246 8.671-8.59 2.184-.743 4.621-1.628 6.976-1.27 1.857.29 3.164 1.33 3.913 2.877a7 7 0 01.401 1.034c.116.385.218.783.3 1.181.395 1.824.497 3.782.476 5.619-.02 2.209-.415 4.444-1.579 6.356l.007.006zm33.995-39.164c-3.22 10.867-14.36 16.385-23.936 20.801a204.215 204.215 0 01-7.493 3.282c-.735-1.553-1.858-2.876-3.505-3.626-2.62-1.182-5.533-.777-8.201.02-4.424 1.317-9.916 3.58-11.747 7.956a1.21 1.21 0 00-.823 1.026 9.598 9.598 0 00.19 3.215c-1.626.493-3.259.973-4.893 1.439-12.379 3.505-25.841 6.429-38.615 3.221-3.09-.783-6.078-1.938-8.732-3.701a18.996 18.996 0 01-2.62-2.114 317.398 317.398 0 00-7.589-20.382 32.366 32.366 0 002.525-1.378 34.853 34.853 0 005.942-4.572 34.456 34.456 0 008.207-12.406c.096-.264.102-.493.041-.69a155.552 155.552 0 0116.967-9.84c14.258-7.11 29.713-12.17 45.509-14.52a104.876 104.876 0 0119.676-1.046c.041.074.095.148.156.223 1.552 1.749 3.75 2.748 5.976 3.383 1.089.31 2.198.54 3.307.743.429.081.865.155 1.293.203a845.945 845.945 0 019.263 24.313 24.474 24.474 0 01-.892 4.444l-.006.006zm9.977-17.363c-.946.979-2.321 1.546-3.58 2.012a21.239 21.239 0 01-3.641.953c-.204-.54-.415-1.088-.62-1.628-1.327-4.937-3.532-9.759-5.975-14.284 2.464-1.107 5.37-2.107 8.078-1.479 2.893.669 4.649 3.181 5.493 5.862.462 1.493.714 3.04.898 4.586.177 1.405.422 2.87-.66 3.991l.007-.013zm.544-12.467c-1.456-2.283-3.682-3.951-6.411-4.35-3.144-.459-6.234.56-9.072 1.824-.292-.514-.585-1.013-.871-1.527.116-.276.116-.607-.082-.952-.34-.56-.667-1.12-.993-1.688 5.233-1.108 9.691-4.35 13.475-7.996 2.151-2.067 4.131-4.276 6.2-6.423 2.028-2.107 4.124-4.66 7.146-5.227 2.62-.493 5.615-.345 8.092.661 2.566 1.034 4.471 3.31 5.853 5.62 1.681 2.802 1.184 5.767.245 8.732-.885 2.803-2.076 5.349-4.22 7.415-4.798 4.633-11.699 5.835-18.089 6.592a13.245 13.245 0 00-1.266-2.681h-.007zm23.943-2.33c-5.493 6.274-13.68 8.246-21.609 9.563-.006 0-.02.007-.027.007a31.63 31.63 0 00-.415-2.303c6.152-.743 12.441-1.919 17.457-5.768 2.375-1.837 4.226-4.14 5.41-6.895 1.259-2.952 2.416-6.423 1.994-9.665-.394-2.992-2.375-5.666-4.43-7.78-1.981-2.033-4.601-3.16-7.398-3.552-2.892-.399-6.35-.345-8.943 1.148-2.77 1.6-4.988 4.37-7.152 6.672-4.887 5.18-10.155 10.772-17.505 12.09-.34-.568-.673-1.136-1.014-1.696 7.139-1.492 12.686-6.558 17.314-11.893 2.375-2.742 4.58-5.869 7.718-7.82 2.77-1.716 6.084-2.338 9.317-2.007 6.622.682 11.794 5.552 13.625 11.779 1.871 6.362-.007 13.156-4.336 18.113l-.006.007z" fill="#58393E"/><path d="M185.625 107.559c-.02 2.209-.415 4.444-1.579 6.355-2.497 4.073-7.683 4.262-11.569 2.135-2.764-1.513-5.547-4.066-6.942-7.085a9.882 9.882 0 01-.674-1.965c.02-.075.02-.149.02-.23v-.067c-.149-4.802 4.744-7.247 8.671-8.591 2.185-.743 4.621-1.628 6.976-1.27 1.858.29 3.164 1.33 3.913 2.877.157.325.293.669.402 1.034.115.385.217.783.299 1.182.395 1.823.497 3.782.476 5.619l.007.006z" fill="#58393E" stroke="#58393E" stroke-miterlimit="10"/><path d="M218.939 70.306a24.467 24.467 0 01-.891 4.444c-3.22 10.867-14.36 16.385-23.936 20.801a204.215 204.215 0 01-7.493 3.283c-.735-1.554-1.858-2.877-3.505-3.627-2.62-1.182-5.533-.777-8.201.02-4.424 1.317-9.916 3.58-11.747 7.956-.415.149-.762.493-.823 1.026a9.598 9.598 0 00.19 3.215c-1.626.493-3.259.973-4.893 1.439-12.379 3.505-25.841 6.429-38.615 3.221-3.09-.783-6.078-1.938-8.732-3.701a18.996 18.996 0 01-2.62-2.114 317.418 317.418 0 00-7.589-20.382 32.366 32.366 0 002.525-1.378 34.858 34.858 0 005.942-4.572 34.456 34.456 0 008.207-12.406c.096-.264.102-.493.041-.69a155.552 155.552 0 0116.967-9.84c14.258-7.11 29.713-12.17 45.509-14.52a104.876 104.876 0 0119.676-1.046c.041.074.095.148.156.223 1.552 1.749 3.75 2.748 5.976 3.383 1.089.31 2.198.54 3.307.743.429.081.865.156 1.293.203a845.945 845.945 0 019.263 24.313l-.007.006z" fill="#FFCFB3"/><path d="M87.569 96.483c.068.412.143.818.245 1.223a1.11 1.11 0 00-.252.128c-3.28 2.215-7.146 3.39-10.957 4.39-3.954 1.047-8.017 1.722-12.121 1.641-6.683-.142-13.802-2.654-17.872-8.199-4.029-5.504-3.852-13-.667-18.863 1.736-3.194 4.172-5.814 7.895-6.476 3.716-.662 7.438.466 10.936 1.594 4.22 1.35 8.365 2.471 12.83 2.532 4.021.068 8.037-.614 11.82-1.938.218.641.45 1.283.688 1.918-3.137 1.074-6.724.952-9.97 1.074-3.832.128-7.718.128-11.502-.622-3.491-.689-6.867-2.087-10.474-2.127-3.171-.027-6.18 1.135-8.2 3.613-3.866 4.741-3.587 12.055-1.042 17.35 1.191 2.479 3.097 4.694 5.54 6.018 2.994 1.627 6.486 1.87 9.834 1.837 8.03-.102 15.94-1.891 23.269-5.1v.007z" fill="#F9C73D"/><path d="M93.762 83.456c-.027-.054-.04-.102-.055-.149a1.206 1.206 0 01-.115-.425 198.06 198.06 0 01-2.654-6.288c-3.036 1-6.255 1.053-9.44 1.195-3.838.17-7.69.216-11.495-.317-5.58-.783-13.21-4.998-17.92.027-3.858 4.14-3.245 11.515-.57 16.1 1.408 2.412 3.538 4.201 6.247 4.998 3.07.885 6.41.743 9.569.54a57.195 57.195 0 0019.43-4.808c.231-.101.463-.128.667-.101.04-1.547.374-3.073 1.143-4.471 1.239-2.256 3.485-3.992 6.057-4.296a34.514 34.514 0 00-.864-1.992v-.013zm-22.833 9.333c-2.6 3.046-7.146 3.998-10.835 2.546-1.96-.783-3.879-2.08-4.913-3.95-.947-1.716-1.205-3.722-.912-5.626.462-2.992 2.416-5.64 5.07-7.058.13-.169.32-.297.572-.371.176-.048.367-.095.55-.142.273-.102.538-.216.824-.29.245-.068.463-.048.647.006 3.831-.513 7.745.635 9.936 4.093 2.15 3.41 1.633 7.773-.946 10.792h.007z" fill="#F94B4B"/><path d="M101.378 103.109c-1.906 1.371-4.417 2.471-6.704 1.452-2.246-.986-3.491-3.978-4.22-6.133-.796-2.357-1.13-5.105.075-7.388.994-1.87 2.777-3.31 4.968-3.31.647 1.797 1.253 3.614 1.913 5.404a57.669 57.669 0 002.395 5.537c.518 1.48 1.042 2.952 1.566 4.438h.007z" fill="#FFCFB3"/><path d="M161.213 7.6c-2.824.594-5.628 1.377-8.378 2.228-12.318 3.809-24.5 8.388-36.213 13.77-4.75 2.189-9.473 4.715-13.74 7.8-1.096-3.605-.354-7.536 1.871-10.582 2.961-4.032 7.99-4.694 12.489-6.065 5.172-1.587 9.943-3.829 14.693-6.382 4.621-2.472 9.378-4.984 14.66-5.666 2.851-.372 5.784-.169 8.473.891 2.293.912 4.308 2.384 6.138 4.005h.007z" fill="#58393E"/><path d="M201.442 26.698c-.783-.1-1.559-.141-2.246-.216-2.403-.263-4.819-.466-7.228-.493-4.573-.047-9.12.595-13.319 2.445-5.866-4.072-13.849-4.383-20.049-.425-3.614-4.194-9.773-5.356-15.054-3.54-5.595 1.932-9.923 6.531-10.76 12.245-.626-.007-1.307.142-1.885.25a21.413 21.413 0 00-3.914 1.128 23.387 23.387 0 00-6.894 4.227c-2.96 2.668-5.05 6.085-6.227 9.82-.102.027-.218.054-.327.115-9.051 4.545-16.612 11.852-21.458 20.7-2.81-7.99-4.254-16.364-.721-24.502 4.416-10.164 13.924-16.75 23.609-21.49 10.923-5.35 22.465-9.644 34.001-13.447 5.832-1.931 11.774-3.85 17.919-4.47 6.132-.622 11.917.398 17.559 2.775 2.892 1.223 5.825 2.573 8.384 4.39 2.627 1.857 4.621 4.39 6.377 7.037.763 1.135 1.491 2.303 2.233 3.458v-.007z" fill="#F94B4B"/><path d="M209.023 39.26a294.978 294.978 0 00-3.144-5.308 84.525 84.525 0 00-1.429-2.364c-.279-.486-.586-.973-.871-1.445a.989.989 0 01-.477-.345c-.599-.709-1.606-.709-2.47-.81-.946-.115-1.906-.223-2.872-.317-2.056-.203-4.125-.345-6.2-.345-3.689-.007-7.398.439-10.849 1.763.368.344.736.709 1.083 1.1.993 1.122-.661 2.77-1.661 1.648-5.166-5.794-13.639-6.963-20.192-2.917.544 1.25-1.362 2.29-2.083 1.047-2.77-4.762-8.698-5.964-13.673-4.248-5.546 1.91-9.5 6.875-9.181 12.804.082 1.5-2.266 1.493-2.347 0-.007-.175 0-.344 0-.513-.327-.04-1.253.223-1.43.264a20.883 20.883 0 00-4.764 1.58c-1.994.959-3.824 2.215-5.39 3.762a19.94 19.94 0 00-5.778 11.873c-.17 1.472-2.518 1.479-2.348 0a16.3 16.3 0 01.218-1.392c-8.623 4.735-15.626 12.015-19.975 20.808.3.763.6 1.526.92 2.276.292.716.584 1.405.89 2.094.076.189.15.371.232.56a159.595 159.595 0 0119.628-15.553 160.607 160.607 0 0143.046-20.356c16.592-4.984 33.912-7.294 51.144-4.862a1.04 1.04 0 01-.027-.804zm-51.614 2.614c-1.838 3.97-7.146 5.639-11.25 5.551-2.178-.04-4.424-.52-6.132-1.938a7.31 7.31 0 01-1.946-2.533 7.59 7.59 0 01-.626-1.864 7.207 7.207 0 01-.171-1.08c-.374-4.268 2.328-8.388 6.126-10.239.279-.142.544-.155.789-.101 3.777-1.675 8.16-2.208 11.576.615 1.185.979 1.947 2.302 2.348 3.761.171.622.279 1.27.327 1.918.157 2.053-.245 4.188-1.041 5.91z" fill="#F9C73D"/><path d="M155.735 39.618c-.443 1.668-1.382 2.91-2.893 3.775a12.971 12.971 0 01-4.927 1.628c-3.335.392-7.126-.446-8.106-4.073-.823-3.072.674-6.159 3.07-8.077.149-.02.299-.068.462-.155 2.852-1.662 6.459-3.02 9.671-1.466 3.165 1.54 3.553 5.302 2.723 8.368z" fill="#C3E9F4"/><path d="M252.512 42.59c-5.493 6.274-13.68 8.246-21.609 9.563-.006 0-.02.007-.027.007a31.63 31.63 0 00-.415-2.303c6.152-.743 12.441-1.919 17.457-5.768 2.375-1.837 4.226-4.14 5.41-6.895 1.259-2.952 2.416-6.423 1.994-9.665-.394-2.992-2.375-5.666-4.43-7.78-1.981-2.033-4.601-3.16-7.398-3.552-2.892-.399-6.35-.345-8.943 1.148-2.77 1.6-4.988 4.37-7.152 6.672-4.887 5.18-10.155 10.772-17.505 12.09-.34-.568-.673-1.135-1.014-1.696 7.139-1.492 12.686-6.558 17.314-11.893 2.375-2.742 4.58-5.869 7.718-7.82 2.769-1.716 6.084-2.337 9.317-2.007 6.622.683 11.794 5.552 13.625 11.779 1.871 6.362-.007 13.156-4.336 18.113l-.006.007z" fill="#F9C73D"/><path d="M251.899 24.868c-1.382-2.31-3.287-4.585-5.853-5.619-2.477-1.006-5.472-1.155-8.092-.662-3.022.568-5.118 3.12-7.146 5.228-2.069 2.14-4.049 4.349-6.2 6.422-3.784 3.647-8.241 6.889-13.475 7.997.327.567.66 1.127.994 1.688.197.344.197.669.081.952.293.514.586 1.013.871 1.527 2.838-1.27 5.928-2.283 9.072-1.824 2.736.399 4.962 2.067 6.411 4.35.538.85.939 1.749 1.266 2.68 6.384-.756 13.285-1.958 18.09-6.59 2.143-2.068 3.334-4.614 4.219-7.416.939-2.965 1.436-5.93-.245-8.733h.007zm-4.179 13.474c-3.164 2.634-7.67 3.289-11.392 1.438-3.587-1.783-6.425-6.112-5.52-10.178.865-3.87 3.982-7.699 7.895-8.739.326-.08.612-.04.837.095 2.021-.169 4.029.243 5.907 1.06 2.43 1.054 4.274 2.594 5.2 5.106 1.415 3.856.252 8.57-2.927 11.218z" fill="#F94B4B"/><path d="M228.025 57.387c-.946.98-2.321 1.546-3.58 2.012a21.239 21.239 0 01-3.641.953c-.204-.54-.415-1.088-.619-1.628-1.328-4.937-3.533-9.759-5.976-14.284 2.464-1.107 5.37-2.107 8.078-1.479 2.893.669 4.649 3.181 5.493 5.862.462 1.493.714 3.04.898 4.586.177 1.405.422 2.87-.66 3.991l.007-.013z" fill="#FFCFB3"/><path d="M250.647 27.124c-.933-2.52-2.77-4.052-5.2-5.106-1.878-.817-3.886-1.229-5.907-1.06a1.114 1.114 0 00-.837-.095c-3.913 1.047-7.03 4.876-7.895 8.74-.898 4.065 1.933 8.394 5.52 10.177 3.716 1.857 8.228 1.202 11.392-1.438 3.185-2.648 4.349-7.362 2.927-11.218zm-3.832 8.867c-2.15 2.256-5.567 3.134-8.534 2.094-2.818-.98-5.186-3.83-5.288-6.841-.068-1.837 1.062-3.823 2.157-5.248.824-1.06 1.858-1.938 3.07-2.499a.647.647 0 00.245-.04c1.803-.46 3.634-.23 5.369.398 1.688.608 3.39 1.547 4.233 3.181 1.477 2.83.946 6.625-1.259 8.949l.007.006z" fill="#58393E"/><path d="M248.074 27.043c-.844-1.628-2.545-2.573-4.233-3.181-1.735-.635-3.566-.858-5.37-.399a.74.74 0 01-.245.04c-1.211.561-2.245 1.433-3.069 2.5-1.096 1.425-2.225 3.41-2.157 5.247.102 3.012 2.47 5.862 5.288 6.842 2.967 1.033 6.383.155 8.534-2.094 2.205-2.323 2.736-6.112 1.259-8.948l-.007-.007zm-3.164 6.855a44.45 44.45 0 01-5.248 1.54c-.585.141-1.313-.176-1.449-.81a7.054 7.054 0 00-.157-.609c-.027-.067-.054-.142-.081-.216 0 0-.075-.169-.082-.189-.157-.351-.347-.696-.517-1.047-.415-.85-.742-1.708-.749-2.654 0-.344.15-.635.374-.837.15-.311.443-.547.769-.69a33.141 33.141 0 012.641-.938c.932-.29 2.157-.858 3.022-.196.394.31.551.804.742 1.243.217.486.422.972.619 1.465.34.831.646 1.668.939 2.52.225.634-.252 1.222-.817 1.424l-.006-.006z" fill="#F9C73D"/><path d="M245.726 32.473a46.28 46.28 0 00-.939-2.52 38.895 38.895 0 00-.619-1.465c-.191-.439-.347-.932-.742-1.242-.864-.662-2.096-.095-3.022.195-.891.27-1.776.595-2.64.94-.327.14-.62.384-.769.688a1.114 1.114 0 00-.375.837c.007.953.341 1.81.749 2.655.17.344.354.688.517 1.046.007.02.082.19.082.19a3.803 3.803 0 01.238.824c.129.634.864.952 1.45.81a41.686 41.686 0 005.247-1.54c.565-.203 1.041-.79.816-1.425l.007.007zm-5.601.432a13.51 13.51 0 00-.585-1.23c-.082-.155-.157-.317-.232-.472a2.175 2.175 0 01-.074-.175c-.028-.075-.055-.15-.082-.217-.048-.141-.082-.27-.123-.412.524-.195 1.042-.398 1.566-.567.374-.128.748-.243 1.13-.344l.292-.081c.082.175.177.35.225.472.102.243.279.682.401.986.157.392.3.784.443 1.182-.974.318-1.96.608-2.961.858zM71.882 81.997c-2.192-3.458-6.105-4.606-9.937-4.093a1.16 1.16 0 00-.646-.007c-.293.075-.551.19-.824.29-.19.048-.374.095-.55.143a1.085 1.085 0 00-.573.371c-2.654 1.418-4.607 4.066-5.07 7.058-.292 1.91-.04 3.917.912 5.625 1.035 1.871 2.947 3.168 4.914 3.951 3.689 1.452 8.235.507 10.834-2.546 2.58-3.019 3.097-7.382.947-10.792h-.007zm-1.926 8.165c-1.532 2.62-4.69 3.991-7.684 3.39-1.6-.317-3.212-1.148-4.335-2.336-1.035-1.101-1.463-2.634-1.436-4.127.054-2.917 1.974-5.619 4.689-6.672 2.817-.662 5.914-.392 7.97 1.843 2 2.168 2.266 5.39.796 7.902z" fill="#58393E"/><path d="M69.153 82.26c-2.056-2.235-5.16-2.505-7.97-1.844-2.715 1.054-4.628 3.755-4.689 6.673-.027 1.493.401 3.026 1.436 4.127 1.13 1.195 2.743 2.019 4.335 2.336 2.995.595 6.153-.776 7.684-3.39 1.463-2.52 1.204-5.734-.796-7.902zm-1.988 3.215c-.04.932-.122 1.857-.231 2.776-.048.324-.068.634-.197.932-.17.391-.51.695-.933.803-.497.122-1.068.075-1.579.081-.946.04-1.898.068-2.844.102-.62.02-1.185-.547-1.171-1.162.04-1.553.102-3.1.197-4.653.041-.655.51-1.135 1.17-1.162h.021c.177-.101.388-.175.592-.175 1.069-.027 2.13-.048 3.206-.075.32 0 .626-.006.932.115.395.169.694.473.817.892.13.472.048 1.047.027 1.526h-.007z" fill="#F9C73D"/><path d="M67.138 83.949a1.372 1.372 0 00-.817-.892c-.299-.121-.612-.115-.932-.115-1.068.028-2.13.048-3.205.075-.205 0-.416.074-.592.175h-.02c-.668.027-1.138.514-1.172 1.162a131.645 131.645 0 00-.197 4.653c-.007.615.551 1.182 1.17 1.162.947-.04 1.9-.068 2.846-.102.51-.006 1.082.041 1.578-.08.422-.102.763-.412.933-.804.13-.297.15-.608.197-.932.116-.925.197-1.844.231-2.776.021-.486.103-1.053-.027-1.526h.007zm-2.395 2.728c-.028.338-.055.669-.096 1.006 0 .02 0 .027-.007.048h-.122c-.347.02-.687.027-1.035.04-.292.007-.585.02-.87.027.027-.817.054-1.64.101-2.458.51-.007 1.008-.027 1.511-.04.198 0 .395-.007.592-.007-.02.466-.04.925-.074 1.39v-.006z" fill="#58393E"/><path d="M205.872 33.952c-4.008-1.324-8.228-1.837-12.441-1.452-3.239.297-7.513 1-8.99 4.302-.157.351-.701.54-1.062.425-7.928-2.552-17.041-5.375-24.929-1.27a9.967 9.967 0 00-.327-1.917c7.983-3.823 16.981-1.419 25.039 1.154 1.783-3.018 5.682-3.99 8.976-4.416 4.124-.54 8.31-.25 12.312.803.49.784.966 1.574 1.429 2.364l-.007.007zm-67.791 9.002c-10.005-.216-16.375 8.733-20.628 16.567-.15.29-.49.466-.81.466-2.723-.04-5.234 1.479-7.323 3.066-1.953 1.472-3.662 3.222-5.268 5.052-3.362 3.795-6.37 7.881-9.051 12.17a64.214 64.214 0 01-.892-2.087c2.736-4.228 5.765-8.273 9.14-11.995 3.212-3.538 7.718-7.807 12.829-8.05 4.471-8.138 11.229-16.931 21.383-17.053.13.642.341 1.27.626 1.864h-.006zm9.044-2.309c-.183-.94-.864-1.736-1.864-1.81-.545-.04-1.001.222-1.321.608-.347.27-.578.628-.66 1.067a4.9 4.9 0 00-.116 1.215c.041.858.422 1.743 1.239 2.134.436.21.939.297 1.409.135a2.07 2.07 0 001.075-.857c.47-.73.395-1.682.238-2.5v.008zm-2.783-4.357c-.021-.195-.041-.411-.102-.607a1.24 1.24 0 00-.306-.534 1.09 1.09 0 00-.756-.324 1.1 1.1 0 00-.299.04c-.048.014-.075.028-.109.041h-.007s-.014 0-.02.007a.379.379 0 00-.116.06.932.932 0 00-.429.365 2.21 2.21 0 00-.313 1.135c0 .101.014.196.027.29.027.196.055.304.15.493.136.27.436.514.735.56.225.041.374.055.599-.006.116-.034.238-.081.34-.148.075-.054.163-.109.225-.176a.629.629 0 00.088-.115c.027-.034.068-.08.089-.121.034-.054.054-.115.081-.176.028-.06.062-.128.075-.196.041-.196.061-.385.034-.58l.014-.008z" fill="#FEF7E0"/><path d="M169.87 68.888c-.599.162-1.014.83-.817 1.432.443 1.398.592 2.816.45 4.282a9.284 9.284 0 01-.395 1.81c-.055.128-.055.148-.014.054l-.102.216c-.054.108-.116.202-.177.304a.757.757 0 00-.054.08c-.041.041-.075.088-.116.13-.048.04-.068.06-.075.067-.027.013-.047.033-.075.047-.02.007-.013.007-.02.013-.034.007-.061.02-.095.027h-.082c-.02 0-.041-.013-.095-.02a1.728 1.728 0 01-.511-.33c-.456-.413-.864-.912-1.211-1.385a14.412 14.412 0 01-1.511-2.627c-.02-.055-.068-.17-.109-.277.02-.027.048-.048.068-.075.32-.54.129-1.283-.422-1.593-1.034-.588-2.198.236-2.164 1.364.027.763.51 1.607.844 2.282a14.558 14.558 0 002.593 3.715c.537.554 1.211 1.06 1.987 1.216a2.73 2.73 0 002.253-.54c1.218-.946 1.585-2.574 1.776-4.02a12.348 12.348 0 00-.476-5.361c-.191-.602-.817-.986-1.443-.81h-.007zm28.312-13.048c-.858-1.668-2.532-2.93-4.451-3.005-1.885-.075-3.825 1.141-4.193 3.06-.224 1.16.035 2.268.81 3.173.402.466 1.253.44 1.661 0 .456-.493.422-1.134.007-1.627.007.013.007.006.02.027a1.477 1.477 0 01-.088-.135c-.021-.034-.041-.075-.062-.108-.04-.081-.027-.048.034.094-.054-.067-.081-.23-.102-.31 0-.028-.013-.054-.02-.082-.02-.128-.02-.108 0 .068-.048-.054-.041-.506 0-.574-.027.175-.027.196 0 .06.007-.04.02-.08.027-.12l.034-.156.034-.068.041-.074c.034-.068.109-.25.177-.284-.095.115-.109.135-.054.075.027-.034.054-.068.088-.095.041-.047.102-.108.163-.162.048-.034.089-.06.137-.095.088-.054.176-.1.265-.148.027-.014.034-.02.048-.027.006 0 .013 0 .027-.007.095-.027.197-.06.292-.088.082-.02.177-.047.266-.054h.497c.177 0 .408.088.571.142.028.007.055.02.089.034.088.054.184.094.279.142l.224.142c.041.026.075.053.116.08.157.142.313.277.456.433.061.067.116.135.177.202-.197-.223.048.075.082.122.115.175.218.358.313.54.279.547 1.096.743 1.606.419.558-.358.721-1.013.422-1.594h.007zm-6.316.351c.014-.054.027-.101.054-.114-.034.067-.047.108-.054.114zm-56.719 15.783c-2.164.014-3.92 1.432-4.709 3.37a5.002 5.002 0 00-.163 3.276c.17.587.837 1.006 1.442.81.599-.189 1.001-.803.817-1.431a3.563 3.563 0 01-.095-.392c0-.02 0-.027-.007-.04v-.048c0-.21 0-.405.014-.615 0-.047.013-.148.02-.175.027-.128.061-.263.102-.392.02-.067.048-.135.068-.202 0-.007.055-.142.075-.176.102-.21.231-.412.367-.608l.007-.007a7.458 7.458 0 01.341-.358c.074-.067.149-.135.224-.195-.204.162.129-.081.17-.108.089-.054.177-.102.266-.149.034-.02.075-.034.115-.054.007 0 0 0 .028-.007.19-.047.374-.101.558-.142.054 0 .177-.02.211-.02h.354c.068 0 .136.007.204.014a5.4 5.4 0 00.286.054c.095.02.197.047.292.08.021.007.17.061.238.082.055.027.211.101.232.108.088.047.177.094.265.148.027.02.225.156.238.163.055.047.116.094.171.141.074.068.142.142.211.21.04.047.088.094.129.141v.007c.129.196.252.399.354.608.265.574 1.095.716 1.606.419.592-.345.687-1.02.422-1.594-.844-1.803-2.872-2.945-4.846-2.938l-.007.02zm48.525-21.354c1.211.27 2.409-.304 3.41-.926 1.041-.641 1.994-1.418 2.892-2.242a42.998 42.998 0 002.6-2.6c.864-.939 1.538-2.107 1.232-3.424-.667-2.918-4.608-2.08-6.459-.98-2.225 1.318-3.566 3.52-4.737 5.748-.333.452-.605.959-.708 1.52-.238 1.283.409 2.6 1.763 2.897l.007.007zm7.827-8.746c-.048-.048 0 .06.027.087 0 .055.02.156.013.041v.263c.021-.162-.088.223-.081.203a2 2 0 01-.245.385 1.195 1.195 0 00-.17-1.094c.142.007.279.02.374.06.231.082.129.095.082.048v.007zm-54.453 23.191c.735-1.04.681-2.343-.068-3.282a1.557 1.557 0 00-.184-.263c-1.81-1.939-4.478-3.033-7.139-2.992-1.3.02-2.79.25-3.865 1.033-.545.399-.987.919-1.137 1.587-.197.899.197 1.722.796 2.37 1.872 2.054 4.907 2.837 7.589 3.067 1.517.128 3.089-.223 4.008-1.52zm21.751 12.725c-.463-.02-.878.134-1.259.364a1.078 1.078 0 00-.817.345c-1.218 1.222-1.946 2.748-2.531 4.349-.599 1.64-1.123 3.33-1.395 5.058-.286 1.79-.341 3.613.081 5.39.177.742.429 1.485 1.014 2.012.647.581 1.668.69 2.328.054.558-.54.66-1.431.844-2.14.258-.973.51-1.946.762-2.918.476-1.85.932-3.701 1.375-5.565.217-.932.435-1.857.646-2.79.191-.844.613-1.897.49-2.762a1.601 1.601 0 00-1.538-1.398zm-3.804 14.067a9.766 9.766 0 01-.082-.993c.116.014.232.014.34-.006-.088.337-.177.668-.265 1.006l.007-.007zM192.186 78.1a47.813 47.813 0 00-2.096-1.607c-2.689-1.945-5.608-3.532-8.657-4.822-.449-.338-.926-.662-1.429-.804-.851-.237-1.79.155-2.035 1.047-.204.75.109 1.64.49 2.282.803 1.338 2.232 2.168 3.491 3.013 1.538 1.033 3.076 2.066 4.614 3.093.735.493 1.464.986 2.199 1.472.687.46 1.422.871 2.273.918 1.572.088 3.028-1.323 2.497-2.917-.238-.703-.775-1.223-1.334-1.682l-.013.007z" fill="#58393E"/><path d="M214.924 70.671c-1.688-2.364-4.642-3.363-7.466-2.776-.408.081-.79.203-1.157.352-2.307.661-4.186 2.323-5.472 4.376-1.667 2.654-2.382 6.085-.286 8.712 1.783 2.229 4.757 3.1 7.514 2.553 2.96-.588 5.723-2.749 7.234-5.315 1.436-2.432 1.273-5.599-.367-7.895v-.007zm-.606 3.363a1.08 1.08 0 00-.32-.209 4.36 4.36 0 00-.163-.405v-.02a.888.888 0 00-.232-.561 5.279 5.279 0 00-.292-1.175c.088.121.184.243.265.371a5.75 5.75 0 01.742 2zm-74.298 23.01c-.218-1.58-1.143-2.837-2.402-3.796-2.001-1.52-4.669-2.06-7.139-1.6a.99.99 0 00-.96-.412c-3.233.466-5.397 3.194-6.397 6.098-.946 2.749-1.341 6.268 1.252 8.253 1.089.838 2.43 1.263 3.757 1.553 1.606.358 3.287.716 4.886.122 2.668-.993 5.159-3.35 6.309-5.93.606-1.35.898-2.823.694-4.295v.007z" fill="#FEA386"/><path d="M334.37 27.617a27.132 27.132 0 017.575-3.782c.354-.108.837 0 .96.405.224.75.075 1.54-.531 2.08s-1.525.81-2.266 1.108a33.302 33.302 0 01-4.955 1.513.612.612 0 01-.293-.014c-.633.034-1.143-.85-.496-1.31h.006zm-2.838-3.573a.734.734 0 01.15-1.02c.735-.574 1.565-1.148 2.212-1.769.585-.567 1.089-1.243 1.797-1.675.428-.27.959-.554 1.47-.338.66.277.605 1.067.238 1.554-.551.73-1.273 1.378-2.035 1.89-.844.568-1.769 1.007-2.695 1.433-.034.026-.068.053-.109.08-.313.244-.796.163-1.028-.148v-.007zm-4.491-5.517a.812.812 0 01.136-.406l.333-.472c.055-.136.109-.27.157-.412.15-.399.292-.797.442-1.189.306-.804.647-1.587 1.109-2.316.232-.365.504-.831.926-1.007.293-.121.653-.094.905.101.252.203.361.52.375.831.034.986-.552 1.783-1.096 2.56-.497.702-.994 1.411-1.497 2.114-.096.243-.184.493-.32.716a.862.862 0 01-.443.391c-.292.115-.537.04-.789-.121-.252-.162-.32-.507-.238-.784v-.006z" fill="#58393E"/><path d="M279.537 91.546a.655.655 0 01.47-.02c1.946.567 4.001.973 5.989 1.371l1.817.365c2.497.513 5.138 1.02 8.296 1.587 1.708.304 3.416.6 5.131.885.728.121 1.484.195 2.212.27.3.033.606.06.905.094.402.048.803.102 1.219.156 1.558.209 3.178.432 4.668.121 2.028-.418 2.961-2.14 3.737-3.863.769-1.702 1.415-3.62 2.041-6.044.776-3.006 1.45-6.092 2.103-9.077.266-1.216.531-2.431.803-3.64 1.926-8.577 3.968-17.715 5.874-26.826.265-1.27.578-2.546.884-3.782.477-1.931.967-3.93 1.28-5.923.463-2.917.748-6.605-1.11-9.265-1.905-2.729-5.553-3.688-8.765-4.525-.402-.108-.797-.21-1.178-.311a162.134 162.134 0 00-12.781-2.931 64.707 64.707 0 01-1.109-.216c-1.211-.243-2.464-.493-3.689-.574a82.192 82.192 0 00-1.824-.102 118.49 118.49 0 01-1.551-.087c-.545-.034-1.117-.102-1.715-.162-.912-.102-1.865-.21-2.791-.21-1.701 0-3.307.365-4.342 1.79-1.123 1.54-1.803 3.485-2.45 5.51-.64 1.98-1.109 3.999-1.579 6.066-.673 2.971-1.34 5.95-2.007 8.928l-.96 4.282c-1.007 4.47-2.008 8.941-2.995 13.419-.313 1.418-.605 2.837-.905 4.261-.537 2.574-1.095 5.234-1.735 7.828-.143.574-.3 1.175-.463 1.803-1.456 5.579-3.45 13.217 1.967 16.85 1.354.905 2.92 1.466 4.553 1.972zm22.186-68.994s-.027.047-.04.074a1.111 1.111 0 01-1.014.621c-.055 0-.109 0-.164-.006a1.293 1.293 0 01-1.014-.73 1.043 1.043 0 01.096-1.06c.238-.345.646-.567 1.061-.54.395.013.742.182.953.465.259.352.306.797.116 1.176h.006zm10.304 2.43a.558.558 0 01-.531.359h-.034c-.517 0-.993-.142-1.463-.284-.115-.034-.238-.074-.354-.101l-.17-.047c-.64-.176-1.279-.351-1.919-.52a40.499 40.499 0 00-4.097-.851.865.865 0 01-.715-.554 1.02 1.02 0 01.164-1.006.926.926 0 01.878-.325c1.674.264 3.042.568 4.301.946l.483.142c1.109.317 2.484.716 3.321 1.512a.66.66 0 01.15.723l-.014.007zM289.153 88.13c.518-1.405 2.382-2.411 3.825-1.837.034-.013.068-.034.109-.04 2.273-.311 3.587 1.951 3.382 3.957-.224 2.27-2.933 3.093-4.872 2.506-1.92-.581-3.145-2.661-2.437-4.593l-.007.007zm-12.25-10.218c-.483-1.594-.381-3.242-.197-4.782.197-1.661.469-3.343.728-4.97l.082-.514a280.863 280.863 0 012.041-11.278 271.296 271.296 0 015.438-21.99c.095-.317.184-.635.272-.959.735-2.58 1.491-5.254 3.322-7.26 1.32-1.445 2.831-2.06 5.219-2.134 3.948-.115 7.909.513 10.917 1.074 2.674.5 5.478 1.195 8.575 2.127 1.511.453 3.131.96 4.709 1.614 1.096.453 2.682 1.21 3.744 2.553 1.919 2.438 1.388 5.727.918 8.624-.054.345-.108.683-.163 1.014a277.509 277.509 0 01-1.906 11.143 279.432 279.432 0 01-5.199 22.044c-.17.608-.334 1.229-.497 1.857-.66 2.519-1.347 5.126-2.606 7.388-1.232 2.215-2.893 3.404-5.078 3.614-.769.074-1.544.108-2.313.108-2.954 0-5.935-.487-8.841-.96l-1.361-.222a.76.76 0 01-.422-.21c-3.947-.763-7.194-1.58-10.181-2.553-2.614-.85-6.2-2.026-7.201-5.321v-.007z" fill="#99DBF2"/><path d="M290.27 88.52c.401-1.181 1.633-1.397 2.681-1.053a.59.59 0 00.626-.182c1.096.365 1.654 1.675 1.511 2.81-.177 1.364-1.981 1.701-3.11 1.377-1.212-.344-2.137-1.695-1.708-2.951z" fill="#FEF7E0"/><path d="M271.098 87.19c1.681 3.27 5.05 4.573 8.18 5.491.096.128.225.23.409.284.354.1.701.209 1.048.31.816.25 1.66.507 2.518.71 5.512 1.33 11.127 2.316 16.402 3.214 1.823.31 3.681.513 5.485.716l1.123.128c.783.088 1.647.183 2.532.183 1.027 0 2.082-.129 3.049-.56 1.98-.886 2.953-2.75 3.709-4.431 1.613-3.566 2.463-7.443 3.294-11.19.115-.52.231-1.034.347-1.554l.878-3.897c.741-3.296 1.483-6.592 2.218-9.887.939-4.201 2.049-9.178 3.124-14.203a535.275 535.275 0 011.858-8.294c.259-1.114.51-2.235.762-3.35.763-3.383 1.45-6.97.722-10.4-.715-3.356-3.063-5.882-6.779-7.307-1.749-.669-3.593-1.169-5.376-1.655l-.62-.169a156.968 156.968 0 00-6.826-1.695 168.45 168.45 0 00-6.758-1.37l-.735-.136c-1.136-.21-2.314-.432-3.498-.493a198.095 198.095 0 01-4.002-.243 50.051 50.051 0 01-1.415-.128c-1.007-.102-2.042-.203-3.076-.17-2.131.082-3.839.926-4.955 2.439-1.266 1.722-2.035 3.897-2.654 5.801-1.069 3.276-1.81 6.7-2.525 10.016a343.78 343.78 0 01-.626 2.856l-.688 3.06c-.83 3.687-1.66 7.382-2.477 11.069a942.445 942.445 0 00-3.056 14.216c-.292 1.405-.626 2.83-.952 4.208-.49 2.08-1.001 4.228-1.362 6.368-.544 3.215-.877 6.93.735 10.07l-.013-.007zm8.439 4.356c-1.633-.506-3.199-1.067-4.553-1.972-5.424-3.626-3.423-11.271-1.967-16.85.163-.628.32-1.229.463-1.803.64-2.594 1.198-5.254 1.735-7.828.3-1.418.592-2.843.905-4.261.987-4.478 1.988-8.949 2.995-13.42l.96-4.281c.667-2.978 1.334-5.95 2.007-8.928.47-2.067.939-4.086 1.579-6.065.654-2.026 1.334-3.971 2.45-5.511 1.041-1.425 2.641-1.79 4.342-1.79.926 0 1.879.108 2.791.21.598.067 1.163.128 1.715.162.517.033 1.034.06 1.551.087.606.034 1.219.061 1.824.102 1.225.08 2.478.33 3.689.574.374.074.742.148 1.109.216a162.81 162.81 0 0112.781 2.931c.381.101.776.21 1.178.31 3.219.845 6.86 1.797 8.765 4.526 1.858 2.66 1.566 6.348 1.11 9.266-.313 1.992-.803 3.99-1.28 5.922a105.606 105.606 0 00-.884 3.782c-1.906 9.111-3.948 18.249-5.874 26.826a787.658 787.658 0 00-.803 3.64c-.653 2.985-1.327 6.071-2.103 9.077-.626 2.417-1.272 4.342-2.041 6.044-.776 1.722-1.709 3.445-3.737 3.863-1.49.31-3.103.088-4.668-.121-.409-.054-.817-.108-1.219-.156a40.19 40.19 0 00-.905-.094 41.183 41.183 0 01-2.212-.27 432.412 432.412 0 01-5.131-.885 333.034 333.034 0 01-8.296-1.587c-.599-.122-1.212-.243-1.817-.365-1.988-.392-4.043-.804-5.989-1.37a.698.698 0 00-.47.02z" fill="#58393E"/><path d="M294.979 84.415c2.736.445 5.724.742 8.875.87l.551.028c1.341.067 2.865.142 4.008-.351 2.206-.96 3.097-3.958 3.757-6.146l.082-.277a267.793 267.793 0 005.336-20.713 281.087 281.087 0 002.048-10.482l.245-1.391c.51-2.884 1.041-5.862 1.32-8.8.136-1.398.164-3.174-.775-4.511-.776-1.108-2.083-1.736-3.383-2.25-3.362-1.33-6.833-2.215-9.78-2.897a72.922 72.922 0 00-9.813-1.594h-.062c-1.014-.1-2.048-.195-3.069-.195-.776 0-1.545.054-2.294.209-2.252.466-3.423 3.032-4.103 4.923-.974 2.688-1.722 5.532-2.444 8.28l-.394 1.506a296.149 296.149 0 00-2.553 10.387 273.263 273.263 0 00-3.831 20.687l-.075.5c-.211 1.424-.429 2.89-.245 4.315.197 1.506 1.034 2.735 2.416 3.545 1.171.69 2.511 1.149 3.804 1.594l.273.095c1.783.615 3.579 1.121 5.097 1.54 1.613.439 3.124.824 4.594 1.168a.863.863 0 01.401-.034l.014-.006zm-8.255-30.655c.497.014 1.034.115 1.47.378.184.095.36.203.517.331.647.54.783 1.54.177 2.168-.51.527-1.273.628-1.967.56-.633-.06-1.307-.283-1.81-.668-.66-.5-.81-1.486-.245-2.114.442-.493 1.211-.669 1.851-.655h.007zm6.676-5.045c-.095.493-.667.864-1.17.73-.524-.15-.838-.629-.729-1.155 0-.04.021-.25.028-.216v-.142c0-.075 0-.156-.014-.223v-.034c0-.007 0-.02-.014-.054a1.378 1.378 0 00-.068-.25.54.54 0 00-.061-.128.49.49 0 00-.061-.115c-.007-.034-.096-.128-.123-.169l.062.06c-.062-.06-.245-.303-.334-.31.048.034.075.047.082.061 0 0-.028-.014-.062-.04l-.102-.054a1.74 1.74 0 00-.197-.095l-.014-.007s-.068-.027-.095-.034a3.12 3.12 0 00-.238-.067c-.034 0-.191-.014-.218-.02-.061 0-.129-.007-.19 0-.055 0-.116.006-.177.013h-.021c0 .007-.013 0-.013 0-.041.014-.143.034-.164.04a1.92 1.92 0 00-.265.082.84.84 0 00-.123.067 4.545 4.545 0 00-.388.223l-.115.088c-.034.034-.068.06-.102.094a3.27 3.27 0 00-.361.392c-.02.014-.048.054-.082.088l-.013.02s-.007.014-.021.014c-.007.013-.02.013-.013.027-.014.02-.021.04-.041.067-.191.284-.34.601-.47.925-.19.466-.905.642-1.313.399-.497-.29-.606-.804-.402-1.303.674-1.702 2.314-3.242 4.261-3.154 1.095.047 2.123.52 2.783 1.404.585.79.735 1.83.558 2.783v-.007zm18.539 3.397c-.041 0-.095.02-.129.027-.082.02-.164.047-.252.068-.062.02-.123.047-.191.074-.02 0-.102.054-.136.068a2.482 2.482 0 00-.381.25 1.068 1.068 0 00-.129.114l-.218.216c-.014.02-.089.115-.116.142-.013.02-.013.027-.041.06-.02.041-.054.089-.075.13a5.556 5.556 0 00-.265.526l-.041.135c-.034.108-.061.21-.088.324-.109.493-.654.871-1.164.73-.511-.135-.851-.628-.735-1.155.442-2.006 2.253-3.796 4.424-3.66 1.143.08 2.13.675 2.763 1.613.585.865.748 1.932.803 2.938.027.507-.409 1.006-.933 1.006-.537 0-.98-.391-1.014-.925l-.04-.567c-.014-.074-.021-.155-.035-.23 0-.013-.027-.148-.027-.175a4.617 4.617 0 00-.143-.534 1.32 1.32 0 01-.068-.155.915.915 0 00-.109-.196c-.04-.081-.095-.155-.143-.223a.19.19 0 00-.027-.047c-.013-.007-.02-.02-.041-.04-.068-.061-.129-.129-.197-.19-.02-.013-.15-.094-.15-.101-.061-.034-.122-.074-.183-.108-.014-.007-.13-.054-.157-.068h-.007c-.068-.02-.143-.047-.218-.06-.034-.007-.163-.007-.17-.014-.122 0-.258 0-.381.02l.014.007zm-5.275 8.415c.504-.635 1.416-.79 2.199-.723.109-.02.217-.026.34-.02.817.075 1.647.358 2.259.912.307.277.593.662.674 1.074.109.513-.027 1.047-.435 1.398-.647.547-1.579.641-2.403.567-.782-.074-1.558-.324-2.198-.783-.347-.25-.653-.568-.769-.993-.143-.513.014-1.02.333-1.425v-.007zm-8.799-11.21c.088-.494.673-.859 1.163-.73.531.148.838.628.735 1.161-.047.29-.102.581-.129.865-.007.034-.007.067-.013.094v.163c-.014.141-.014.29-.014.438 0 .136 0 .284.02.42 0 .06.014.127.021.195v.041c.034.141.061.27.109.398.013.054.04.101.061.155 0 .02.013.034.027.048.055.108.129.209.191.31.013.02.027.034.041.04a.666.666 0 00.108.122c.007 0 .021.02.068.04a.35.35 0 01.109.028h.041l.082-.027c.047-.007.082-.027.129-.047h.021c.013 0 .027-.014.034-.014.027-.02.054-.04.068-.04.061-.034.122-.075.183-.115.028-.02.055-.04.089-.061.014 0 .048-.034.075-.054.034-.027.109-.088.129-.108.055-.054.116-.101.177-.162.123-.135.252-.27.368-.419.013 0 .034-.027.04-.047l.014-.027c.054-.068.102-.149.15-.23a6.13 6.13 0 00.265-.506c.014-.027.021-.054.034-.081.027-.081.055-.163.075-.244.048-.189.082-.385.109-.58.061-.5.687-.851 1.157-.723.558.149.796.615.735 1.155-.204 1.736-1.491 3.438-3.124 4.1a2.28 2.28 0 01-1.422.094c-.572-.162-1.001-.54-1.361-.993-.477-.608-.688-1.378-.756-2.134-.075-.837.048-1.695.197-2.512l-.006-.014z" fill="#FEF7E0"/><path d="M284.104 83.233c2.987.98 6.234 1.79 10.181 2.553a.807.807 0 00.422.21l1.361.222c2.906.473 5.887.959 8.841.959.775 0 1.544-.034 2.314-.108 2.184-.216 3.845-1.398 5.077-3.613 1.259-2.263 1.939-4.87 2.606-7.389.163-.628.327-1.25.497-1.857a276.37 276.37 0 005.199-22.044c.708-3.68 1.355-7.429 1.906-11.143.048-.331.102-.669.163-1.013.47-2.897 1.008-6.186-.918-8.624-1.062-1.344-2.641-2.1-3.743-2.553-1.579-.649-3.199-1.162-4.71-1.614-3.097-.932-5.901-1.628-8.575-2.128-3.008-.56-6.969-1.188-10.917-1.074-2.388.075-3.899.69-5.219 2.134-1.831 2.006-2.587 4.674-3.322 7.26-.088.325-.183.642-.272.96a274.54 274.54 0 00-5.438 21.99 269.042 269.042 0 00-2.041 11.278l-.082.513c-.259 1.628-.531 3.31-.728 4.97-.184 1.547-.286 3.189.197 4.782 1.001 3.296 4.587 4.471 7.201 5.322v.007zm19.75 2.053c-3.151-.128-6.139-.425-8.875-.871a.715.715 0 00-.401.033 132.06 132.06 0 01-4.594-1.168c-1.518-.412-3.308-.918-5.098-1.54l-.272-.094c-1.293-.446-2.634-.905-3.804-1.594-1.382-.81-2.219-2.033-2.416-3.546-.191-1.425.027-2.89.245-4.315l.074-.5a269.724 269.724 0 013.832-20.686c.783-3.478 1.64-6.97 2.552-10.387l.395-1.506c.721-2.75 1.47-5.586 2.443-8.28.688-1.891 1.858-4.458 4.104-4.924.742-.155 1.511-.209 2.294-.209 1.02 0 2.055.095 3.069.19h.061c3.233.303 6.534.837 9.814 1.6 2.954.689 6.425 1.567 9.78 2.897 1.293.513 2.606 1.141 3.382 2.249.939 1.337.905 3.113.776 4.511-.279 2.938-.81 5.916-1.32 8.8l-.245 1.392a267.468 267.468 0 01-2.049 10.481 267.327 267.327 0 01-5.335 20.713l-.082.277c-.654 2.189-1.552 5.187-3.757 6.146-1.143.5-2.668.419-4.008.351l-.552-.027-.013.007zm-14.701 2.844c-.707 1.93.518 4.01 2.437 4.592 1.946.587 4.648-.23 4.873-2.506.204-2.013-1.11-4.275-3.383-3.958-.041 0-.075.02-.109.04-1.436-.573-3.307.433-3.824 1.838l.006-.007zm2.825 3.342c-1.212-.344-2.137-1.695-1.708-2.951.401-1.182 1.633-1.398 2.681-1.054a.59.59 0 00.626-.182c1.096.365 1.654 1.675 1.511 2.81-.177 1.364-1.981 1.701-3.11 1.377zm19.518-66.124h-.034c-.517 0-.993-.142-1.463-.284-.115-.034-.238-.074-.354-.101l-.17-.047c-.64-.176-1.279-.352-1.919-.52a40.499 40.499 0 00-4.097-.851.865.865 0 01-.715-.554 1.02 1.02 0 01.164-1.006.926.926 0 01.878-.325c1.674.264 3.042.568 4.301.946l.483.142c1.109.317 2.484.715 3.321 1.512a.66.66 0 01.15.723.56.56 0 01-.531.358l-.014.007zm-9.813-2.723a1.111 1.111 0 01-1.014.621c-.055 0-.109 0-.164-.006a1.293 1.293 0 01-1.014-.73 1.042 1.042 0 01.096-1.06c.238-.344.646-.566 1.061-.54.395.014.742.183.953.466.259.351.306.797.116 1.175-.014.027-.028.047-.041.074h.007z" fill="#58393E"/><path d="M311.81 52.14c-.082.02-.164.047-.252.067-.062.02-.123.047-.191.074-.02 0-.102.054-.136.068a2.488 2.488 0 00-.381.25 1.068 1.068 0 00-.129.114l-.218.216c-.014.02-.089.115-.116.142-.013.02-.013.027-.041.061-.02.04-.054.088-.075.128a5.544 5.544 0 00-.265.527l-.041.135c-.034.108-.061.21-.088.324-.109.493-.654.872-1.164.73-.51-.135-.851-.628-.735-1.155.442-2.006 2.253-3.796 4.424-3.66 1.143.08 2.13.675 2.763 1.614.585.864.748 1.931.803 2.937.027.507-.409 1.007-.933 1.007-.537 0-.98-.392-1.014-.925l-.04-.568c-.014-.074-.021-.155-.034-.23 0-.013-.028-.148-.028-.175a4.624 4.624 0 00-.143-.534c-.006 0-.061-.135-.068-.155a.915.915 0 00-.109-.196c-.04-.08-.095-.155-.143-.223a.186.186 0 00-.027-.047c-.013-.007-.02-.02-.041-.04-.068-.061-.129-.129-.197-.19-.02-.013-.15-.094-.15-.1-.061-.035-.122-.075-.183-.109-.014-.007-.13-.054-.157-.067h-.007c-.068-.02-.143-.048-.218-.061-.034-.007-.163-.007-.17-.014-.122 0-.258 0-.381.02-.041 0-.095.02-.129.028l.014.006zm-12.782-3.553c.531.148.838.628.735 1.161-.047.29-.102.581-.129.865-.007.034-.007.068-.013.095v.162c-.014.141-.014.29-.014.439 0 .135 0 .283.02.418 0 .061.014.129.021.196v.041c.034.142.061.27.109.398.013.054.04.101.061.155 0 .02.013.034.027.048.055.108.129.21.191.31.013.02.027.034.041.04a.662.662 0 00.108.123c.007 0 .021.02.068.04.014 0 .089.014.109.027h.041l.082-.027c.047-.007.082-.027.129-.047h.021c.013 0 .027-.014.034-.014.027-.02.054-.04.068-.04.061-.034.122-.075.183-.115.028-.02.055-.04.089-.06.014 0 .048-.035.075-.055.034-.027.109-.088.129-.108.054-.054.116-.101.177-.162.123-.135.252-.27.368-.419.013 0 .034-.027.04-.047l.014-.027c.054-.068.102-.149.15-.23a6.13 6.13 0 00.265-.506c.014-.027.021-.054.034-.081.027-.081.055-.162.075-.243a5.32 5.32 0 00.109-.581c.061-.5.687-.851 1.157-.723.558.149.796.615.735 1.155-.204 1.736-1.491 3.438-3.124 4.1a2.28 2.28 0 01-1.422.094c-.572-.162-1.001-.54-1.361-.993-.477-.608-.688-1.377-.756-2.134-.075-.837.048-1.695.197-2.512.089-.493.674-.858 1.164-.73l-.007-.013zm-6.798.857c-.524-.148-.838-.628-.729-1.154 0-.04.021-.25.028-.216v-.142c0-.075 0-.156-.014-.223v-.034c0-.007 0-.02-.014-.054a1.378 1.378 0 00-.068-.25.54.54 0 00-.061-.128.49.49 0 00-.061-.115c-.007-.034-.096-.128-.123-.169l.062.06c-.062-.06-.245-.303-.334-.31.048.034.075.047.082.061 0 0-.028-.014-.062-.04l-.102-.054a1.74 1.74 0 00-.197-.095l-.014-.007s-.068-.027-.095-.034a3.12 3.12 0 00-.238-.067c-.034 0-.191-.014-.218-.02-.061 0-.129-.007-.19 0-.055 0-.116.006-.177.013h-.021c0 .007-.013 0-.013 0-.041.014-.143.034-.164.04a1.92 1.92 0 00-.265.082.84.84 0 00-.123.067 4.545 4.545 0 00-.388.223l-.115.088c-.034.034-.068.06-.102.094a3.27 3.27 0 00-.361.392c-.02.014-.048.054-.082.088l-.013.02s-.007.014-.021.014c-.007.013-.02.013-.013.027-.014.02-.021.04-.041.067-.191.284-.34.601-.47.925-.19.466-.905.642-1.313.399-.497-.29-.606-.804-.402-1.303.674-1.702 2.314-3.242 4.261-3.154 1.095.047 2.123.52 2.783 1.404.585.79.735 1.83.558 2.783-.095.493-.667.864-1.17.73v-.008z" fill="#58393E"/><path d="M288.194 54.138c.184.095.36.203.517.331.647.54.783 1.54.177 2.168-.51.527-1.273.628-1.967.56-.633-.06-1.307-.283-1.81-.668-.66-.5-.81-1.486-.245-2.114.442-.493 1.211-.669 1.851-.655.497.014 1.034.115 1.47.378h.007zm20.669 5.666c.109-.02.217-.026.34-.02.817.075 1.647.358 2.259.912.307.277.593.662.674 1.074.109.513-.027 1.047-.435 1.398-.647.547-1.579.641-2.403.567-.782-.074-1.558-.324-2.198-.783-.347-.25-.653-.568-.769-.993-.143-.513.014-1.02.333-1.425.504-.635 1.416-.79 2.199-.723v-.007z" fill="#F56445"/><path d="M38.044 126.327c-22.67 2.344-33.055-4.795-36.465-12.723-1.273-2.958-.885-6.295.694-8.854 1.47-2.384 3.968-4.093 7.112-4.201 17.402-.58 30.23-2.897 42.63-8.928 1.872-.912 3.996-.865 5.888-.162 2.402.898 4.424 2.87 5.07 5.321 3.206 12.231-.633 27.042-24.93 29.547z" fill="#F9C73D"/><path d="M38.044 126.327c-22.67 2.344-33.055-4.795-36.465-12.723a9.413 9.413 0 01-.708-4.721c4.063 7.287 14.517 13.379 35.71 11.191 21.247-2.195 26.848-13.784 25.78-24.84.265.486.476 1.006.619 1.547 3.205 12.23-.633 27.041-24.93 29.546h-.006z" fill="#E89528"/><path d="M57.91 91.459c-6.214-.068-6.439 4.99-19.342 9.961-14.592 5.626-22.554-2.735-27.788 3.33-3.947 4.572-8.507 0-8.507 0 1.47-2.384 3.968-4.093 7.112-4.201 17.402-.58 30.23-2.897 42.63-8.928 1.873-.912 3.996-.865 5.888-.162h.007z" fill="#FFFB76"/><path d="M12.264 124.565c-5.492-2.33-9.453-6.011-11.44-10.644a10.327 10.327 0 01-.776-5.058 10.68 10.68 0 011.626-4.694c1.736-2.708 4.54-4.322 7.69-4.43 18.383-.615 30.64-3.175 42.298-8.84 2.157-1.048 4.764-1.028 7.153.067 2.477 1.127 4.328 3.228 4.954 5.619.912 3.471 1.198 6.841.865 10.015-.382 3.593-1.552 6.828-3.498 9.604-2.029 2.897-4.887 5.288-8.494 7.091-3.94 1.965-8.82 3.262-14.517 3.85-2.946.304-5.75.459-8.405.459-6.853 0-12.699-1.013-17.456-3.026v-.013zm40.12-32.215c-6.153 2.992-12.578 5.14-19.642 6.571-6.676 1.351-14.088 2.128-23.323 2.438-2.6.088-4.92 1.425-6.363 3.681-1.58 2.458-1.858 5.612-.728 8.239 1.823 4.242 5.485 7.632 10.582 9.793 6.337 2.688 14.769 3.512 25.052 2.452 10.494-1.081 17.838-4.532 21.833-10.252 3.369-4.822 4.22-11.312 2.389-18.289-.504-1.925-2.022-3.62-4.05-4.552-1-.46-2.048-.689-3.056-.689a6.17 6.17 0 00-2.688.601l-.007.007z" fill="#58393E"/><path d="M48.729 103.183c-.477-7.713-8.024-15.446-16.593-14.574-14.727 1.499-13.672 17.032-13.175 18.748 7.908 4.565 23.704 2.519 29.768-4.174z" fill="#F9C73D"/><path d="M48.729 103.183c-6.064 6.693-21.867 8.739-29.768 4.174-.136-.473-.313-1.986-.198-3.972.041.73.13 1.263.198 1.507 7.779 4.491 23.187 2.579 29.462-3.85.163.709.265 1.425.306 2.141z" fill="#E89528"/><path d="M32.136 88.609c-7.676.783-11.066 5.382-12.481 9.847a.578.578 0 00.13.574c3.967 4.268 10.93-1.648 9.752-5.39-.116-.365.122-.736.517-.803.606-.102 1.239-.19 1.905-.25 5.125-.466 9.93 1.404 13.421 4.396.565.48 1.402-.162 1.021-.783-2.96-4.734-8.37-8.2-14.258-7.598l-.007.007z" fill="#FFFB76"/><path d="M14.925 104.473c.803 1.263 1.933 2.235 3.083 3.167.109.081.238.183.354.277a.93.93 0 00.184.142c2.892 1.668 6.955 2.56 11.399 2.56 1.531 0 3.11-.108 4.703-.325 2.967-.405 5.839-1.181 8.31-2.248 2.633-1.142 4.75-2.56 6.288-4.221.014-.007.027-.021.034-.027a19.712 19.712 0 001.756-1.77c.558-.642 1.075-1.31 1.463-2.087a.514.514 0 00-.238-.689.531.531 0 00-.674.196 7.31 7.31 0 01-.687.858c-.47.5-.987.959-1.525 1.384-.633-3.768-2.797-7.476-5.968-10.15-3.342-2.817-7.37-4.14-11.352-3.735-4.955.506-8.705 2.58-11.148 6.166-2.729 4.005-3.13 8.996-2.974 11.778-.476-.324-.94-.675-1.368-1.053a7.268 7.268 0 01-.783-.804c-.415-.493-1.17.034-.85.588l-.007-.007zm4.757 2.357c-.238-1.52-.551-7.368 2.573-11.96 2.157-3.168 5.512-5.005 9.963-5.458 3.532-.358 7.126.831 10.127 3.357 3.151 2.654 5.206 6.416 5.54 10.117-2.756 2.863-7.759 5.018-13.462 5.801-5.676.777-11.148.081-14.741-1.857z" fill="#58393E"/><path d="M14.857 109.504a17.22 17.22 0 002.287 1.743c3.743 2.431 8.119 3.843 12.59 4.126 4.465.264 9.045-.716 12.904-2.985.272-.162.537-.324.803-.493.796-.54.217-1.742-.708-1.465-.415.108-.878.249-1.286.371-.708.196-1.416.398-2.13.554a26.75 26.75 0 01-1.702.358 11.43 11.43 0 01-.85.148 31.23 31.23 0 01-12.802-.547A38.36 38.36 0 0119 109.68a37.613 37.613 0 01-3.219-1.493c-.857-.425-1.626.662-.932 1.324l.007-.007zm33.225-.155c1.45.108 2.947-.777 3.587-2.067.21-.439.333-.925.286-1.411a.445.445 0 00-.49-.405.512.512 0 00-.32.168c-.15.156-.266.304-.388.446-.572.682-1.17 1.277-1.899 1.803a86.23 86.23 0 01-.817.568c-.02.02-.095.06-.108.081l-.143.209c-.177.243 0 .601.299.615l-.007-.007z" fill="#FFFB76"/></g><defs><clipPath id="clip0_8054_9994"><path fill="#fff" transform="translate(0 .197)" d="M0 0h343v298.813H0z"/></clipPath></defs></svg>