<svg xmlns="http://www.w3.org/2000/svg" viewBox="0 0 923.94 351.4"><defs><style>.a4b8f61e-0b33-4634-bbf9-f6c49d6b0f41,.b58bd544-7f7c-4cdc-ba03-4d800d881eff,.bd918abf-1b56-42e7-94b0-f7898b335bd7,.fa76ae8c-de17-466f-9d44-ce2cee27b5ec{fill:none;stroke-linejoin:round;}.a4b8f61e-0b33-4634-bbf9-f6c49d6b0f41{stroke:#d9d9d9;stroke-width:0.72px;}.b58bd544-7f7c-4cdc-ba03-4d800d881eff{stroke:#cb0016;}.b58bd544-7f7c-4cdc-ba03-4d800d881eff,.bd918abf-1b56-42e7-94b0-f7898b335bd7,.fa76ae8c-de17-466f-9d44-ce2cee27b5ec{stroke-linecap:round;stroke-width:2px;}.bd918abf-1b56-42e7-94b0-f7898b335bd7{stroke:#9fcfff;}.fa76ae8c-de17-466f-9d44-ce2cee27b5ec{stroke:#164bb5;}.ab88c381-93fd-49e2-8201-1c3fd30a00b0{fill:#666;}.fe93d1d9-3aba-4a4d-94cf-bb9fffc32476{fill:#cb0016;}.bce5a213-a8e1-4c4b-93ae-2c8d2ceed584{fill:#164bb5;}.a23bec9a-f288-4c29-a8a5-dff26f997e69{fill:#83c7ff;}.f53f09e5-0205-4c65-899e-a80b63aab348{fill:#888;}</style></defs><g id="ee1642d4-3644-4bf5-8c65-0544d2d7dda4" data-name="圖層 2"><g id="e18e0365-9692-44b2-a053-4da0aebc3231" data-name="圖層 1"><line class="a4b8f61e-0b33-4634-bbf9-f6c49d6b0f41" x1="29.13" y1="185.04" x2="820.98" y2="185.04"/><polyline class="b58bd544-7f7c-4cdc-ba03-4d800d881eff" points="29.19 184.98 29.59 182.1 30.93 179.82 31.33 180.18 31.73 181.02 32.26 179.46 32.66 178.38 33.99 178.86 34.39 179.46 34.79 181.98 35.19 185.94 35.72 186.54 36.92 186.9 37.45 187.98 37.85 192.3 38.25 190.38 38.65 189.9 39.98 185.82 40.38 185.7 40.92 184.86 41.32 182.7 41.72 184.38 43.05 183.66 43.45 182.82 43.85 181.38 44.38 184.5 44.78 183.18 46.11 185.94 46.51 190.26 46.91 188.7 47.31 188.7 47.84 190.38 49.04 192.78 49.58 192.42 49.98 192.78 50.38 193.14 50.78 192.42 52.11 197.7 52.51 197.58 53.04 197.58 53.44 199.74 53.84 197.22 55.17 193.86 55.57 192.66 56.1 194.94 56.5 193.38 56.9 189.78 58.64 187.5 59.03 186.54 59.57 186.3 59.97 186.9 61.3 188.1 61.7 186.78 62.1 185.46 62.5 184.25 63.03 182.7 64.23 183.9 64.76 186.54 65.16 182.82 65.56 185.82 65.96 186.9 67.3 187.98 67.69 185.34 68.23 185.1 68.63 185.94 69.03 189.66 70.36 195.42 70.76 190.86 71.16 192.54 71.69 193.74 72.09 192.18 73.42 192.66 73.82 194.22 74.22 192.18 74.75 192.66 75.16 190.98 76.49 187.98 76.89 187.14 77.29 186.06 77.69 186.78 78.22 187.62 79.42 189.9 79.95 190.5 80.35 193.26 80.75 195.06 81.15 196.26 82.48 195.54 82.88 193.02 83.41 193.98 83.81 190.38 84.21 187.14 85.95 182.34 86.34 178.02 86.88 177.42 87.28 175.02 89.01 172.25 89.41 170.1 89.81 173.34 90.34 170.1 91.54 169.74 92.07 168.54 92.47 172.62 92.87 172.5 93.27 173.58 95 178.74 95.54 178.98 95.94 189.54 96.34 189.78 97.67 194.46 98.07 191.22 98.6 187.25 99 188.7 99.4 190.86 100.73 190.74 101.13 197.82 101.53 198.06 102.06 206.1 102.47 205.98 103.8 206.58 104.2 203.34 104.6 196.86 105 200.82 105.53 196.26 106.73 199.74 107.26 195.9 107.66 197.58 108.06 192.78 108.46 194.82 109.79 194.7 110.19 200.34 110.72 199.5 111.12 200.58 111.52 202.26 112.86 200.7 113.25 202.74 113.66 204.18 114.19 202.38 115.92 202.26 116.32 200.34 116.72 198.78 117.25 198.06 117.65 196.62 118.98 192.78 119.38 199.5 119.78 200.7 120.18 205.86 120.72 204.18 121.92 208.98 122.45 211.02 122.85 205.62 123.25 204.42 123.65 208.26 124.98 207.54 125.38 212.58 125.91 214.14 126.31 219.78 126.71 224.22 128.44 236.94 128.84 234.18 129.38 223.02 129.78 224.34 132.84 228.42 134.04 221.22 134.57 220.02 134.97 217.02 135.37 219.18 135.77 217.26 137.5 215.1 138.03 215.82 138.43 214.98 138.83 213.06 140.17 211.5 140.56 213.06 141.1 214.38 141.5 213.9 141.9 211.26 143.23 213.06 143.63 212.94 144.03 213.54 144.56 210.66 144.96 211.14 146.29 209.22 146.69 209.34 147.09 209.34 147.49 210.9 148.03 215.7 149.76 210.42 150.16 207.54 150.56 207.42 150.96 209.7 152.29 205.98 152.69 204.9 153.22 203.46 153.62 203.34 154.02 203.94 155.35 201.9 155.75 202.5 156.15 202.02 156.69 204.66 157.09 203.34 158.42 201.54 158.82 202.62 159.22 203.58 159.75 205.86 160.15 210.3 161.48 208.86 161.88 204.9 162.28 207.06 162.68 207.54 163.21 205.02 164.41 203.46 164.94 203.34 165.34 202.98 166.14 202.98 167.48 209.7 167.88 203.34 168.41 201.66 168.81 206.1 169.21 204.9 170.54 200.82 170.94 201.18 171.34 199.38 171.87 199.5 172.27 198.54 173.6 199.62 174 199.38 174.4 201.42 174.8 201.66 175.34 201.66 176.53 198.3 177.07 198.06 177.47 197.1 177.87 199.02 178.27 199.26 179.6 198.9 180 198.3 180.53 200.1 180.93 199.26 181.33 199.14 186.13 201.66 186.53 206.34 187.06 209.22 187.46 209.7 188.79 210.66 189.19 211.5 189.59 210.06 189.99 211.74 190.52 208.62 191.72 208.02 192.25 208.5 192.65 209.46 193.05 210.54 193.45 210.42 194.79 209.1 195.19 208.14 195.72 210.54 196.12 211.26 196.52 215.34 197.85 217.38 198.25 217.86 198.65 212.82 199.18 213.3 199.58 212.1 200.91 208.5 201.31 206.94 201.71 208.38 202.25 210.3 202.65 209.46 203.98 209.94 204.38 211.5 204.78 207.06 205.18 206.34 205.71 208.62 206.91 208.26 207.44 209.22 207.84 210.18 208.24 206.94 208.64 207.42 209.97 201.78 210.37 201.3 210.91 203.1 211.31 201.42 211.71 200.82 213.04 202.86 213.44 203.1 213.84 203.58 214.37 202.74 214.77 202.62 216.5 203.94 216.9 203.94 217.3 209.22 217.83 204.06 219.03 205.26 219.56 203.34 219.96 202.02 220.36 202.02 220.76 202.98 222.1 203.58 222.5 202.62 223.03 204.3 223.43 203.22 223.83 208.86 225.16 213.78 225.56 215.1 226.09 214.98 226.49 215.22 226.89 213.9 228.62 217.02 229.02 214.86 229.56 217.38 229.96 217.38 231.29 215.94 231.69 214.26 232.09 215.58 232.49 215.34 233.02 214.74 234.22 218.58 234.75 217.02 235.15 216.3 235.55 216.42 235.95 213.06 237.28 213.66 237.68 212.94 238.22 213.18 238.62 208.62 239.01 207.9 240.35 205.5 240.75 204.3 241.15 199.62 241.68 197.58 242.08 194.94 243.81 194.34 244.21 195.78 244.61 194.82 245.14 194.94 246.87 193.74 247.27 194.58 247.67 194.1 248.21 194.34 249.41 197.7 249.94 195.18 250.34 196.74 250.74 201.3 251.14 200.46 252.47 200.82 252.87 198.66 253.4 199.62 253.8 199.14 254.2 196.38 255.93 192.18 256.33 190.14 256.87 191.34 257.26 191.82 258.6 190.74 259.4 189.54 259.8 188.58 260.33 188.1 261.53 188.22 262.06 185.46 262.46 184.98 262.86 184.38 263.26 184.14 264.99 179.46 265.52 179.7 265.93 178.98 266.32 178.14 267.66 178.14 268.06 177.78 268.59 179.22 268.99 181.74 269.39 180.06 270.72 179.1 271.12 179.94 271.52 180.9 272.05 181.02 272.45 180.78 273.79 178.98 274.18 178.02 274.58 177.42 274.98 177.54 275.52 179.22 276.72 176.58 277.25 177.54 277.65 178.38 278.05 177.18 278.45 177.06 279.78 175.62 280.18 175.74 280.71 176.7 281.11 176.82 281.51 171.3 282.84 171.9 283.24 170.1 283.64 171.54 284.18 171.78 284.57 173.1 285.91 173.46 286.31 174.06 286.71 174.78 287.11 173.34 287.64 172.86 288.97 174.54 291.9 178.62 292.44 174.06 292.83 177.66 293.24 172.62 293.63 171.66 295.37 169.74 295.9 171.54 296.3 171.78 296.7 170.34 298.03 168.9 298.43 170.58 298.83 169.02 299.36 171.18 299.76 170.7 301.1 175.02 301.49 177.06 301.89 175.25 302.29 179.58 302.83 177.9 304.02 179.7 304.56 178.14 304.96 175.14 305.36 168.42 305.76 168.78 307.09 170.94 308.02 170.46 308.42 171.66 308.82 173.58 310.15 175.62 310.55 179.34 311.09 177.9 311.49 176.94 311.88 176.58 313.62 185.82 314.02 188.22 314.55 194.7 314.95 205.02 316.28 203.46 316.68 206.7 317.08 207.3 317.48 204.3 318.01 211.98 319.21 226.86 319.75 223.62 320.14 227.82 320.55 237.9 320.94 249.66 322.28 254.34 322.68 250.5 323.21 250.26 323.61 249.18 325.34 247.98 325.74 239.94 326.14 221.82 326.67 228.06 327.07 217.5 328.4 219.06 328.8 224.94 329.2 234.06 329.6 237.18 330.14 237.18 331.47 227.1 331.87 222.78 332.27 218.94 332.67 220.86 333.2 218.82 334.4 223.26 334.93 218.1 335.33 217.5 335.73 221.22 336.13 216.78 337.46 219.54 337.86 222.66 338.4 224.22 338.8 221.34 339.19 222.3 340.53 217.02 340.93 217.38 341.86 214.74 342.26 221.1 344.79 222.54 345.32 217.02 346.52 213.42 347.06 214.26 347.45 214.98 347.86 219.66 348.25 218.94 349.59 218.22 349.99 213.42 350.52 212.34 350.92 213.42 351.32 215.94 352.65 211.86 353.05 205.62 353.58 202.5 353.98 196.26 354.38 199.26 355.71 198.42 356.11 195.18 356.51 192.9 357.05 191.94 357.45 189.66 358.78 185.82 359.18 186.3 359.58 187.62 359.98 194.34 360.51 197.46 361.71 204.54 362.24 193.26 362.64 194.34 363.04 195.3 363.44 195.42 364.77 196.02 365.17 194.7 365.71 195.54 366.11 199.14 366.5 196.38 367.84 201.42 368.24 199.5 368.64 202.74 369.17 201.3 369.57 199.62 370.9 195.42 371.3 196.74 371.7 199.26 372.1 198.9 372.63 202.38 373.97 195.78 374.37 196.86 374.76 192.3 375.17 194.1 375.7 194.94 376.9 194.7 377.43 193.62 377.83 195.3 379.96 194.58 380.36 195.9 380.89 199.62 381.29 201.06 381.69 209.22 383.02 204.78 383.42 199.14 383.82 199.26 384.36 200.1 384.76 200.1 386.49 192.66 386.89 189.3 387.29 186.06 387.82 186.18 389.02 188.34 389.55 188.82 389.95 188.22 390.35 190.86 390.75 190.38 392.08 189.9 392.48 186.66 393.02 186.54 393.42 188.1 393.81 189.42 395.15 187.38 395.55 187.86 396.08 187.02 396.48 185.34 396.88 187.86 398.21 189.54 398.61 188.22 399.01 191.34 399.54 187.74 399.94 186.06 401.28 183.66 401.68 185.58 402.07 185.22 402.48 186.78 403.01 186.18 405.14 186.66 405.54 189.66 405.94 189.06 407.27 184.86 407.67 182.1 408.2 187.62 408.6 187.62 409 190.26 410.33 185.58 410.73 183.42 411.13 183.06 411.67 181.98 412.07 183.66 413.4 184.25 413.8 182.94 414.2 184.02 414.6 185.7 415.13 188.1 416.46 184.5 416.86 186.42 417.26 184.38 417.66 187.38 418.19 186.18 419.39 186.66 419.93 187.25 420.33 188.58 420.73 188.46 421.13 194.22 422.46 188.7 423.39 184.86 423.79 180.66 424.19 179.46 425.52 174.78 425.92 170.82 426.32 165.18 426.85 165.42 427.25 169.38 428.58 164.1 428.99 162.9 429.38 165.9 429.78 164.94 430.32 165.3 432.05 158.82 432.45 157.25 432.85 155.22 433.25 153.9 434.58 159.54 434.98 157.62 435.51 156.42 435.91 156.06 436.31 155.82 437.64 158.1 438.04 158.94 438.58 154.98 438.98 154.38 439.38 153.9 440.71 152.22 441.11 153.78 441.51 152.7 442.04 150.9 442.44 150.42 443.77 151.14 444.17 155.7 444.57 155.46 444.97 153.9 445.5 153.66 446.7 150.9 447.24 144.42 447.64 147.3 449.77 148.5 450.17 149.58 450.7 148.5 451.1 142.5 451.5 136.98 453.23 135.9 453.63 135.3 454.16 133.62 454.56 136.25 455.89 138.42 456.3 135.78 456.69 137.46 457.09 135.42 457.63 136.25 458.96 135.66 459.36 138.66 459.76 136.86 460.16 142.25 460.69 147.9 461.89 144.3 462.42 141.54 462.82 136.62 463.22 137.46 463.62 132.06 464.95 125.82 465.35 125.58 465.89 123.9 466.69 122.94 468.02 118.62 468.42 115.14 468.82 115.98 469.35 119.22 469.75 121.5 471.08 120.18 471.88 127.02 472.28 121.98 472.81 133.98 474.01 127.25 474.55 128.7 474.95 127.02 475.35 132.06 475.75 130.14 477.08 130.74 477.48 126.66 478.01 126.06 478.41 126.18 478.81 120.9 480.14 118.25 480.54 115.74 481.07 115.74 481.47 110.94 481.87 111.06 483.2 115.98 483.61 118.62 484 126.78 484.54 122.22 484.94 116.46 486.27 114.78 486.67 113.46 487.07 117.66 487.47 116.7 488 113.7 489.2 111.3 489.73 116.7 490.13 116.1 490.53 118.5 490.93 116.82 492.26 117.78 492.66 116.7 493.2 118.02 493.6 116.34 494 115.98 495.33 117.06 495.73 122.46 496.13 129.06 496.66 122.46 497.06 124.02 498.39 123.66 498.79 127.14 499.19 125.1 500.12 127.86 502.65 121.5 503.19 121.02 504.39 117.06 504.92 125.7 505.32 130.5 505.72 135.3 506.12 129.3 507.45 129.78 507.85 123.66 508.38 125.34 508.78 125.94 509.18 124.02 510.51 122.46 510.92 120.9 511.31 120.3 511.85 121.74 512.25 114.66 513.58 119.22 513.98 118.62 514.38 115.38 514.78 112.02 515.31 112.14 516.51 112.02 517.04 112.02 517.44 113.34 517.84 113.58 518.24 114.06 519.57 113.1 519.97 109.62 520.51 109.98 520.91 112.14 521.31 115.5 522.64 124.5 523.04 112.86 523.57 115.25 523.97 115.38 524.37 112.5 525.7 112.14 526.1 114.54 526.5 115.98 527.03 116.34 527.43 112.98 528.77 114.78 529.17 113.34 529.57 116.58 529.97 119.58 530.5 121.25 531.7 113.58 532.23 110.94 532.63 112.25 533.03 116.46 533.43 118.38 534.76 122.82 535.16 126.42 535.69 123.9 537.83 120.3 538.23 118.02 538.63 121.02 539.16 119.1 539.56 124.02 540.89 117.06 541.29 118.5 541.69 120.3 542.09 118.38 542.62 118.38 544.35 117.18 544.75 112.98 545.15 113.22 545.68 112.25 546.88 118.25 547.42 119.82 547.82 118.5 548.22 123.78 548.62 127.14 549.95 120.3 550.35 117.06 550.88 116.94 551.28 117.3 551.68 118.86 553.01 115.38 553.41 112.86 553.81 108.9 554.35 108.78 554.74 102.54 556.08 97.25 556.48 92.34 556.88 89.82 557.27 92.58 557.81 87.9 559.01 87.18 559.54 83.34 559.94 87.42 560.34 88.62 560.74 86.94 562.47 93.42 563 96.9 563.8 88.14 565.13 87.66 565.53 87.9 566.07 93.18 566.47 94.62 566.87 103.14 568.2 106.02 568.6 110.94 569 112.14 569.53 112.38 569.93 108.06 571.26 100.38 571.66 102.3 572.06 104.34 572.46 101.82 573 95.22 574.19 95.82 574.73 94.98 575.13 94.25 575.53 99.54 575.93 99.3 577.26 100.74 577.66 95.7 578.19 96.42 578.59 100.62 578.99 99.66 580.32 90.66 580.72 92.58 581.65 87.78 582.05 90.54 583.39 91.62 583.79 94.38 584.19 96.54 584.59 94.98 585.12 89.94 586.45 87.78 586.85 86.58 587.25 88.74 587.65 89.1 588.18 87.18 589.38 87.9 590.31 91.98 590.71 90.54 591.11 98.34 592.45 104.94 592.85 109.25 593.38 107.1 593.78 108.66 594.18 103.5 595.51 105.9 595.91 98.58 596.31 95.7 596.84 97.98 597.24 100.86 598.57 100.5 598.97 100.86 599.37 98.22 599.77 92.22 600.3 97.86 601.5 106.02 602.04 100.5 602.44 100.02 602.84 96.18 603.24 96.78 604.57 98.22 604.97 92.94 605.5 94.5 605.9 95.34 608.03 86.82 608.57 84.42 608.96 92.46 609.36 92.22 611.1 93.66 611.5 87.9 612.03 89.94 612.43 95.46 613.76 93.3 614.16 94.25 614.56 106.14 614.96 102.18 615.49 104.94 616.69 105.18 617.22 111.54 617.62 112.62 618.02 121.86 618.42 115.02 619.75 111.66 620.15 111.42 620.69 103.74 621.09 107.22 621.49 105.66 622.82 106.02 623.22 104.58 623.62 101.34 624.15 99.9 625.88 107.1 626.28 111.78 626.68 105.18 627.08 108.18 627.62 109.62 628.95 112.25 629.35 117.9 630.15 123.06 630.68 119.22 631.88 118.25 632.41 116.46 632.81 123.78 633.21 119.34 633.61 126.54 634.94 137.1 635.34 143.22 635.88 142.98 636.27 129.18 636.67 135.54 638.01 133.02 638.41 130.62 638.81 124.38 639.34 115.14 639.74 112.74 641.47 106.38 641.87 96.78 642.27 95.58 642.8 96.3 644 97.62 644.53 93.66 644.93 94.25 645.33 97.98 645.73 98.22 647.07 96.78 647.47 98.1 648 102.42 648.4 107.82 648.8 107.22 650.13 108.42 650.53 113.7 651.06 108.66 651.46 105.42 651.86 107.22 653.19 110.34 653.59 107.58 653.99 103.02 654.52 100.62 654.92 105.42 656.26 111.18 656.66 111.54 657.06 115.25 657.46 107.7 659.19 108.18 660.92 104.7 662.25 112.62 662.65 116.94 663.18 119.82 663.58 124.02 663.98 116.82 665.32 116.1 665.72 115.62 666.12 111.3 666.65 117.06 667.05 113.22 668.38 109.86 668.78 112.25 669.18 112.25 669.58 111.9 670.11 110.58 671.44 103.38 671.84 105.06 672.24 100.5 672.64 103.02 673.18 101.94 674.38 100.74 674.91 99.06 675.31 94.38 675.71 94.14 676.11 99.54 677.44 108.78 677.84 113.7 678.37 118.14 678.77 115.14 679.17 122.22 680.5 124.62 680.9 117.3 681.3 117.78 681.84 118.5 682.24 116.34 683.57 112.25 683.97 108.66 684.37 111.42 684.77 116.34 685.3 121.62 686.5 116.46 687.03 114.18 687.43 119.34 687.83 113.34 688.23 112.62 689.56 106.74 689.96 112.5 690.5 111.3 690.89 110.46 691.29 110.34 693.03 108.18 693.56 99.3 693.96 99.06 694.36 98.34 695.69 101.46 696.09 101.58 696.49 100.86 697.02 100.5 697.42 102.18 698.75 99.06 699.15 106.5 699.55 104.7 699.95 105.06 700.49 101.7 701.68 100.38 702.22 104.34 702.62 105.06 703.42 96.9 704.75 93.78 705.15 94.5 705.68 89.22 706.08 93.06 706.48 92.22 707.81 92.34 708.21 97.14 708.61 98.34 709.14 96.42 709.54 95.58 710.88 102.9 711.28 97.86 711.68 99.18 712.08 104.58 712.61 105.3 713.94 105.66 714.34 106.02 714.74 108.18 715.14 99.42 715.67 98.46 716.87 95.46 717.4 94.38 717.8 102.3 718.2 101.58 718.6 103.86 720.34 102.42 720.87 107.94 721.27 108.66 723 119.34 723.4 117.66 723.8 121.62 724.33 115.14 724.73 122.34 726.06 119.46 726.46 107.46 726.86 105.9 727.26 104.1 727.8 107.34 729.53 114.66 729.93 114.66 730.33 117.06 730.73 108.06 732.06 112.02 732.46 107.82 732.99 107.1 733.39 108.66 733.79 111.42 735.12 109.86 735.52 105.18 736.06 102.9 736.46 105.54 736.86 106.74 738.19 100.14 738.59 97.5 738.99 96.54 739.92 101.34 741.25 97.02 741.65 92.1 742.05 94.25 742.45 96.9 742.98 87.78 744.18 92.22 744.72 90.78 745.12 91.38 745.51 91.74 745.91 91.86 747.25 90.9 747.65 86.1 748.58 81.42 748.98 82.14 750.31 84.9 750.71 87.3 751.11 88.5 751.64 88.02 752.04 94.62 753.37 95.58 753.77 94.98 754.17 95.7 754.57 97.38 755.11 93.3 756.44 94.14 756.84 91.98 757.24 89.46 757.64 90.42 758.17 95.46 759.37 98.82 759.9 104.46 760.3 106.62 760.7 103.74 761.1 105.78 762.43 105.06 762.83 104.22 763.37 104.22 763.76 106.86 764.16 107.82 766.3 111.54 766.83 111.18 767.23 109.25 768.96 108.18 769.36 103.74 769.76 101.46 770.29 102.3 771.49 105.66 772.02 101.94 772.42 95.34 772.82 100.02 773.22 97.62 774.56 94.25 774.96 88.14 775.49 86.82 775.89 87.66 776.29 86.34 777.62 86.7 778.02 89.22 778.55 89.58 778.95 90.78 779.35 88.38 780.68 86.58 781.08 85.74 781.48 86.22 782.02 86.22 782.42 85.38 783.75 87.3 784.15 84.78 784.55 85.86 784.95 83.34 785.48 85.38 786.68 84.18 787.21 85.14 787.61 89.46 788.41 87.42 789.74 86.7 790.14 86.7 790.68 86.1 791.08 86.7 791.48 81.06 792.81 77.1 793.21 75.54 793.61 74.82 794.14 70.98 794.54 79.62 795.87 85.74 796.27 96.42 796.67 94.25 797.07 98.82 797.6 94.14 798.93 99.3 799.73 92.22 800.13 94.14 800.67 94.62 801.87 93.54 802.4 92.22 802.8 86.94 803.2 84.06 803.6 79.38 804.93 77.1 805.33 75.78 805.86 83.46 806.26 88.02 806.66 87.3 807.99 85.02 808.39 81.9 808.79 78.78 809.33 78.78 809.73 76.38 811.06 74.34 811.46 71.46 811.86 71.1 812.26 71.58 812.79 73.5 813.99 73.25 814.52 71.94 814.92 75.54 815.32 73.25 815.72 69.42 817.05 65.34 817.45 65.7 820.12 67.14 820.52 61.62 821.05 64.14"/><polyline class="bd918abf-1b56-42e7-94b0-f7898b335bd7" points="29.19 184.97 29.59 182.22 30.93 180.66 31.33 180.41 31.73 180.66 32.26 179.82 32.66 179.22 33.99 178.62 34.39 179.58 34.79 179.82 35.19 182.58 35.72 184.02 36.92 184.5 37.45 186.3 37.85 190.13 38.25 188.1 38.65 187.38 39.98 183.3 40.38 183.9 40.92 184.38 41.32 181.86 41.72 181.74 43.05 180.9 43.45 180.3 43.85 179.46 44.38 181.25 44.78 182.69 46.11 185.1 46.51 190.25 46.91 189.18 47.31 189.9 47.84 188.58 49.04 193.62 49.58 193.38 49.98 191.34 50.38 192.3 50.78 191.46 52.11 198.54 52.51 200.82 53.04 200.94 53.44 206.34 53.84 202.62 55.17 198.9 55.57 199.38 56.1 201.9 56.5 201.06 56.9 198.3 58.64 195.41 59.03 193.74 59.57 194.46 59.97 196.02 61.3 196.5 61.7 194.58 62.1 193.13 62.5 189.18 63.03 187.62 64.23 188.46 64.76 191.34 65.16 190.02 65.56 192.54 65.96 195.54 67.3 197.58 67.69 196.38 68.23 195.66 68.63 195.3 69.03 198.9 70.36 205.25 70.76 200.69 71.16 203.94 71.69 208.25 72.09 206.58 73.42 209.46 73.82 210.54 74.22 207.78 74.75 206.22 75.16 203.94 76.49 199.86 76.89 199.97 77.29 198.18 77.69 196.74 78.22 197.1 79.42 201.06 79.95 200.94 80.35 202.25 80.75 204.54 81.15 206.58 82.48 206.22 82.88 205.74 83.41 208.25 83.81 205.97 84.21 202.74 85.95 198.06 86.34 194.22 86.88 194.1 87.28 190.62 89.01 185.69 89.41 182.94 89.81 187.38 90.34 185.69 91.54 185.94 92.07 186.41 92.47 190.5 92.87 189.78 93.27 192.66 95 198.41 95.54 197.22 95.94 207.41 96.34 206.1 97.67 210.54 98.07 210.78 98.6 205.02 99 206.46 99.4 208.02 100.73 207.3 101.13 214.02 101.53 212.94 102.06 223.13 102.47 226.38 103.8 229.25 104.2 223.13 104.6 217.02 105 216.78 105.53 213.41 106.73 215.1 107.26 213.54 107.66 213.66 108.06 209.46 108.46 209.58 109.79 210.78 110.19 216.18 110.72 217.74 111.12 216.9 111.52 219.18 112.86 217.5 113.25 219.41 113.66 221.1 114.19 219.18 115.92 218.69 116.32 216.41 116.72 213.66 117.25 211.74 117.65 209.58 118.98 206.58 119.38 212.94 119.78 214.97 120.18 219.78 120.72 219.66 121.92 225.9 122.45 230.22 122.85 225.66 123.25 222.9 123.65 227.22 124.98 229.25 125.38 235.97 125.91 236.46 126.31 244.62 126.71 250.5 128.44 262.86 128.84 257.94 129.38 244.25 129.78 244.97 132.84 248.34 134.04 241.97 134.57 241.13 134.97 240.3 135.37 242.22 135.77 242.34 137.5 239.82 138.03 241.5 138.43 239.94 138.83 237.78 140.17 236.34 140.56 238.02 141.1 240.06 141.5 238.5 141.9 237.3 143.23 238.62 143.63 238.02 144.03 241.25 144.56 238.02 144.96 238.5 146.29 233.1 146.69 231.66 147.09 232.02 147.49 234.06 148.03 238.25 149.76 232.86 150.16 230.46 150.56 230.58 150.96 232.02 152.29 227.22 152.69 226.97 153.22 226.38 153.62 226.13 154.02 227.1 155.35 224.94 155.75 225.54 156.15 225.06 156.69 225.78 157.09 225.06 158.42 222.9 158.82 224.46 159.22 225.18 159.75 227.22 160.15 233.58 161.48 232.74 161.88 228.78 162.28 231.18 162.68 232.62 163.21 230.82 164.41 227.34 164.94 228.9 165.34 227.46 166.14 226.5 167.48 232.86 167.88 225.41 168.41 223.97 168.81 229.13 169.21 227.94 170.54 223.25 170.94 224.1 171.34 221.94 171.87 222.18 172.27 221.46 173.6 222.41 174 223.5 174.4 224.82 174.8 225.18 175.34 225.06 176.53 219.54 177.07 220.5 177.47 219.78 177.87 224.46 178.27 223.5 179.6 223.38 180 222.78 180.53 224.58 180.93 222.3 181.33 223.5 186.13 225.66 186.53 230.34 187.06 235.13 187.46 234.3 188.79 236.82 189.19 237.3 189.59 235.13 189.99 236.1 190.52 232.86 191.72 234.06 192.25 235.13 192.65 235.38 193.05 236.46 193.45 235.74 194.79 234.9 195.19 234.41 195.72 236.22 196.12 237.3 196.52 239.58 197.85 243.54 198.25 241.97 198.65 236.46 199.18 237.9 199.58 235.74 200.91 232.62 201.31 231.41 201.71 232.02 202.25 235.13 202.65 233.94 203.98 235.74 204.38 239.34 204.78 234.54 205.18 233.58 205.71 235.38 206.91 235.02 207.44 235.86 207.84 238.13 208.24 234.66 208.64 235.02 209.97 228.66 210.37 226.97 210.91 227.46 211.31 225.18 211.71 224.69 213.04 227.34 213.44 229.13 213.84 229.38 214.37 227.1 214.77 228.3 216.5 229.02 216.9 230.1 217.3 236.82 217.83 231.41 219.03 232.38 219.56 229.97 219.96 229.62 220.36 227.94 220.76 229.25 222.1 229.25 222.5 227.34 223.03 229.13 223.43 229.5 223.83 236.34 225.16 241.13 225.56 242.34 226.09 242.22 226.49 241.86 226.89 241.25 228.62 244.38 229.02 241.38 229.56 244.25 229.96 244.02 231.29 242.58 231.69 239.58 232.09 241.86 232.49 242.69 233.02 241.97 234.22 246.78 234.75 244.62 235.15 245.58 235.55 245.82 235.95 240.54 237.28 242.82 237.68 241.25 238.22 243.06 238.62 238.13 239.01 238.86 240.35 236.46 240.75 235.86 241.15 232.25 241.68 231.41 242.08 229.74 243.81 228.66 244.21 229.97 244.61 226.74 245.14 225.9 246.87 224.69 247.27 224.82 247.67 223.62 248.21 225.18 249.41 227.22 249.94 224.1 250.34 223.62 250.74 228.66 251.14 228.3 252.47 228.06 252.87 224.69 253.4 224.46 253.8 226.25 254.2 225.54 255.93 221.58 256.33 219.78 256.87 220.97 257.26 220.86 258.6 219.54 259.4 217.5 259.8 217.13 260.33 215.58 261.53 215.34 262.06 213.3 262.46 210.66 262.86 211.02 263.26 211.74 264.99 207.54 265.52 207.3 265.93 206.82 266.32 206.69 267.66 205.38 268.06 204.06 268.59 205.97 268.99 208.86 269.39 205.25 270.72 204.66 271.12 204.66 271.52 206.34 272.05 206.34 272.45 205.97 273.79 204.18 274.18 204.18 274.58 202.5 274.98 203.82 275.52 203.94 276.72 202.38 277.25 204.06 277.65 202.97 278.05 201.9 278.45 200.46 279.78 199.13 280.18 198.54 280.71 199.97 281.11 201.18 281.51 198.54 282.84 198.3 283.24 196.25 283.64 198.18 284.18 198.18 284.57 197.34 285.91 198.78 286.31 198.54 286.71 200.34 287.11 198.18 287.64 196.25 288.97 198.3 291.9 202.62 292.44 197.82 292.83 202.62 293.24 198.41 293.63 198.41 295.37 199.74 295.9 200.22 296.3 201.41 296.7 200.94 298.03 199.02 298.43 198.9 298.83 197.46 299.36 199.5 299.76 201.3 301.1 206.34 301.49 207.3 301.89 207.41 302.29 212.1 302.83 210.3 304.02 213.06 304.56 210.06 304.96 207.41 305.36 203.22 305.76 204.66 307.09 206.58 308.02 207.18 308.42 207.66 308.82 209.46 310.15 213.66 310.55 218.22 311.09 217.13 311.49 218.22 311.88 218.58 313.62 229.38 314.02 230.82 314.55 238.02 314.95 248.69 316.28 241.74 316.68 246.66 317.08 247.74 317.48 247.38 318.01 255.66 319.21 269.58 319.75 265.74 320.14 270.54 320.55 280.02 320.94 290.94 322.28 291.89 322.68 281.82 323.21 283.62 323.61 281.1 325.34 276.54 325.74 270.78 326.14 260.1 326.67 260.21 327.07 249.41 328.4 252.18 328.8 256.02 329.2 265.86 329.6 271.5 330.14 275.21 331.47 267.42 331.87 261.42 332.27 257.82 332.67 257.45 333.2 254.1 334.4 257.58 334.93 254.69 335.33 258.3 335.73 253.38 336.13 253.38 337.46 252.66 337.86 255.18 338.4 257.45 338.8 252.78 339.19 253.13 340.53 250.13 340.93 248.46 341.86 245.82 342.26 249.3 344.79 248.58 345.32 243.78 346.52 238.74 347.06 239.1 347.45 239.34 347.86 245.22 348.25 243.18 349.59 241.74 349.99 238.38 350.52 236.46 350.92 235.97 351.32 237.41 352.65 232.62 353.05 228.41 353.58 226.62 353.98 224.34 354.38 225.3 355.71 224.94 356.11 221.69 356.51 221.46 357.05 221.46 357.45 221.58 358.78 219.3 359.18 219.54 359.58 219.06 359.98 225.18 360.51 229.62 361.71 235.5 362.24 225.66 362.64 225.9 363.04 225.41 363.44 225.41 364.77 225.54 365.17 224.1 365.71 226.13 366.11 228.3 366.5 225.3 367.84 228.3 368.24 228.18 368.64 232.74 369.17 234.66 369.57 232.5 370.9 227.82 371.3 228.18 371.7 230.82 372.1 231.66 372.63 236.58 373.97 229.13 374.37 230.34 374.76 226.38 375.17 228.18 375.7 228.41 376.9 227.22 377.43 224.82 377.83 227.58 379.96 225.66 380.36 226.86 380.89 230.58 381.29 231.78 381.69 240.18 383.02 235.38 383.42 230.94 383.82 230.94 384.36 231.3 384.76 233.1 386.49 227.46 386.89 224.46 387.29 221.82 387.82 221.94 389.02 224.1 389.55 223.25 389.95 222.78 390.35 225.41 390.75 223.97 392.08 223.5 392.48 220.74 393.02 221.1 393.42 222.3 393.81 225.3 395.15 221.94 395.55 222.18 396.08 220.5 396.48 220.25 396.88 222.06 398.21 222.06 398.61 218.58 399.01 220.62 399.54 218.69 399.94 216.18 401.28 212.94 401.68 213.66 402.07 211.02 402.48 209.82 403.01 206.69 405.14 208.25 405.54 211.74 405.94 207.9 407.27 202.13 407.67 201.18 408.2 207.66 408.6 207.66 409 211.74 410.33 206.22 410.73 206.22 411.13 206.58 411.67 204.9 412.07 205.62 413.4 205.74 413.8 205.62 414.2 206.22 414.6 209.22 415.13 211.74 416.46 207.66 416.86 209.34 417.26 207.18 417.66 211.38 418.19 211.74 419.39 213.18 419.93 212.46 420.33 213.18 420.73 214.38 421.13 219.41 422.46 216.78 423.39 213.9 423.79 209.58 424.19 207.78 425.52 205.25 425.92 205.25 426.32 201.78 426.85 203.22 427.25 207.41 428.58 203.82 428.99 205.97 429.38 208.02 429.78 208.62 430.32 206.46 432.05 202.25 432.45 204.06 432.85 202.13 433.25 199.62 434.58 204.9 434.98 201.54 435.51 200.94 435.91 199.86 436.31 199.97 437.64 204.06 438.04 202.74 438.58 200.1 438.98 201.18 439.38 199.25 440.71 197.58 441.11 198.06 441.51 198.06 442.04 198.54 442.44 198.66 443.77 199.02 444.17 205.38 444.57 203.69 444.97 201.54 445.5 199.5 446.7 200.94 447.24 196.38 447.64 198.3 449.77 200.82 450.17 200.82 450.7 199.62 451.1 196.5 451.5 193.13 453.23 193.38 453.63 192.3 454.16 192.78 454.56 196.25 455.89 196.74 456.3 197.1 456.69 196.5 457.09 195.18 457.63 196.5 458.96 194.58 459.36 196.02 459.76 194.46 460.16 195.18 460.69 199.86 461.89 197.69 462.42 193.5 462.82 191.22 463.22 191.22 463.62 188.58 464.95 184.86 465.35 184.5 465.89 184.97 466.69 184.74 468.02 183.54 468.42 184.13 468.82 183.41 469.35 187.62 469.75 189.54 471.08 186.9 471.88 191.58 472.28 189.41 472.81 196.02 474.01 189.54 474.55 190.62 474.95 189.41 475.35 190.02 475.75 188.94 477.08 188.82 477.48 184.13 478.01 184.74 478.41 181.5 478.81 179.34 480.14 174.9 480.54 171.3 481.07 169.62 481.47 167.1 481.87 164.1 483.2 165.06 483.61 169.74 484 177.66 484.54 172.62 484.94 169.02 486.27 167.94 486.67 168.66 487.07 172.38 487.47 172.62 488 170.94 489.2 168.9 489.73 172.97 490.13 168.54 490.53 173.58 490.93 172.5 492.26 171.66 492.66 170.69 493.2 171.66 493.6 170.94 494 170.46 495.33 170.58 495.73 174.9 496.13 181.02 496.66 177.18 497.06 178.62 498.39 178.97 498.79 180.18 499.19 181.25 500.12 181.97 502.65 178.86 503.19 175.97 504.39 174.06 504.92 179.82 505.32 184.38 505.72 189.66 506.12 184.74 507.45 185.82 507.85 181.62 508.38 183.41 508.78 181.5 509.18 180.78 510.51 179.34 510.92 180.3 511.31 181.38 511.85 184.97 512.25 180.06 513.58 182.94 513.98 181.5 514.38 180.06 514.78 177.54 515.31 177.41 516.51 176.69 517.04 174.78 517.44 175.25 517.84 175.02 518.24 175.38 519.57 174.66 519.97 173.58 520.51 172.38 520.91 173.94 521.31 176.22 522.64 182.1 523.04 173.82 523.57 174.54 523.97 175.25 524.37 172.97 525.7 171.3 526.1 173.82 526.5 173.46 527.03 174.9 527.43 171.41 528.77 172.25 529.17 171.66 529.57 174.06 529.97 177.54 530.5 177.9 531.7 171.3 532.23 168.3 532.63 168.41 533.03 172.38 533.43 172.13 534.76 176.58 535.16 178.86 535.69 175.5 537.83 171.18 538.23 168.9 538.63 172.02 539.16 170.58 539.56 174.66 540.89 169.02 541.29 170.46 541.69 173.22 542.09 173.94 542.62 173.82 544.35 171.78 544.75 170.82 545.15 170.58 545.68 170.22 546.88 175.5 547.42 177.9 547.82 175.74 548.22 179.69 548.62 182.1 549.95 176.82 550.35 172.5 550.88 172.5 551.28 171.54 551.68 171.9 553.01 166.86 553.41 165.41 553.81 163.62 554.35 163.25 554.74 159.9 556.08 156.54 556.48 153.78 556.88 150.78 557.27 151.97 557.81 145.97 559.01 143.22 559.54 139.13 559.94 143.46 560.34 144.9 560.74 141.9 562.47 148.5 563 152.58 563.8 144.18 565.13 146.82 565.53 148.97 566.07 152.46 566.47 153.78 566.87 160.5 568.2 162.78 568.6 167.82 569 168.41 569.53 169.25 569.93 165.06 571.26 160.74 571.66 164.46 572.06 166.13 572.46 165.54 573 158.58 574.19 158.58 574.73 156.41 575.13 157.74 575.53 161.46 575.93 161.46 577.26 161.94 577.66 158.69 578.19 159.78 578.59 159.41 578.99 159.54 580.32 153.41 580.72 156.06 581.65 152.82 582.05 155.22 583.39 156.54 583.79 159.66 584.19 160.97 584.59 161.34 585.12 157.25 586.45 156.9 586.85 157.13 587.25 160.5 587.65 161.46 588.18 160.62 589.38 160.62 590.31 164.1 590.71 163.97 591.11 169.38 592.45 176.82 592.85 178.38 593.38 177.06 593.78 179.34 594.18 172.38 595.51 173.46 595.91 164.58 596.31 163.5 596.84 165.18 597.24 168.06 598.57 168.18 598.97 169.74 599.37 168.9 599.77 166.02 600.3 170.22 601.5 178.25 602.04 174.54 602.44 173.58 602.84 171.3 603.24 171.18 604.57 172.97 604.97 168.41 605.5 165.9 605.9 166.86 608.03 164.46 608.57 165.9 608.96 172.74 609.36 173.34 611.1 174.41 611.5 168.66 612.03 171.78 612.43 174.54 613.76 175.5 614.16 177.78 614.56 186.41 614.96 184.13 615.49 184.5 616.69 182.22 617.22 187.86 617.62 188.34 618.02 196.62 618.42 191.22 619.75 186.78 620.15 187.25 620.69 179.82 621.09 182.94 621.49 180.9 622.82 182.34 623.22 181.97 623.62 178.25 624.15 176.34 625.88 180.41 626.28 181.02 626.68 176.94 627.08 179.69 627.62 180.78 628.95 182.82 629.35 186.41 630.15 187.62 630.68 184.86 631.88 180.3 632.41 179.1 632.81 184.97 633.21 183.06 633.61 188.82 634.94 196.13 635.34 201.54 635.88 201.9 636.27 190.86 636.67 194.94 638.01 193.38 638.41 189.66 638.81 188.94 639.34 183.18 639.74 181.5 641.47 181.13 641.87 175.97 642.27 175.86 642.8 175.5 644 176.82 644.53 174.41 644.93 173.1 645.33 176.58 645.73 176.1 647.07 173.58 647.47 172.5 648 176.82 648.4 182.58 648.8 182.1 650.13 184.38 650.53 187.74 651.06 183.3 651.46 181.38 651.86 183.78 653.19 186.18 653.59 183.78 653.99 182.46 654.52 180.66 654.92 184.5 656.26 188.22 656.66 187.02 657.06 189.41 657.46 182.1 659.19 182.22 660.92 180.41 662.25 185.22 662.65 187.13 663.18 188.34 663.58 193.02 663.98 186.9 665.32 188.82 665.72 187.86 666.12 186.3 666.65 188.1 667.05 185.1 668.38 181.74 668.78 186.06 669.18 187.86 669.58 187.02 670.11 184.97 671.44 179.22 671.84 180.9 672.24 176.34 672.64 177.9 673.18 176.46 674.38 175.25 674.91 174.18 675.31 171.06 675.71 171.66 676.11 176.1 677.44 180.66 677.84 183.06 678.37 186.9 678.77 185.82 679.17 189.9 680.5 193.5 680.9 187.25 681.3 188.94 681.84 187.97 682.24 184.02 683.57 181.74 683.97 178.38 684.37 178.5 684.77 181.38 685.3 185.46 686.5 182.34 687.03 181.13 687.43 183.66 687.83 181.62 688.23 180.66 689.56 176.1 689.96 181.5 690.5 180.18 690.89 179.22 691.29 180.06 693.03 178.38 693.56 172.74 693.96 170.46 694.36 169.5 695.69 170.94 696.09 169.5 696.49 170.1 697.02 168.54 697.42 170.58 698.75 166.5 699.15 170.94 699.55 171.54 699.95 170.1 700.49 167.46 701.68 167.1 702.22 168.18 702.62 169.5 703.42 163.74 704.75 163.62 705.15 163.25 705.68 160.38 706.08 161.58 706.48 160.62 707.81 161.69 708.21 163.86 708.61 163.25 709.14 161.22 709.54 160.74 710.88 165.78 711.28 161.94 711.68 162.9 712.08 167.46 712.61 168.9 713.94 169.62 714.34 169.02 714.74 171.3 715.14 165.54 715.67 163.02 716.87 160.97 717.4 159.9 717.8 164.69 718.2 164.34 718.6 166.86 720.34 164.94 720.87 168.3 721.27 168.9 723 175.97 723.4 174.9 723.8 175.86 724.33 170.1 724.73 174.3 726.06 174.06 726.46 165.3 726.86 164.94 727.26 162.54 727.8 164.46 729.53 170.46 729.93 171.18 730.33 174.41 730.73 167.94 732.06 170.58 732.46 166.5 732.99 165.78 733.39 167.94 733.79 169.86 735.12 169.38 735.52 167.46 736.06 165.66 736.46 167.58 736.86 168.66 738.19 164.1 738.59 163.97 738.99 164.34 739.92 167.69 741.25 165.78 741.65 162.78 742.05 162.54 742.45 164.22 742.98 160.74 744.18 164.46 744.72 163.5 745.12 162.54 745.51 160.62 745.91 160.13 747.25 158.58 747.65 155.46 748.58 150.9 748.98 149.94 750.31 152.1 750.71 153.66 751.11 155.69 751.64 156.66 752.04 162.06 753.37 163.13 753.77 164.34 754.17 163.38 754.57 163.97 755.11 161.58 756.44 161.94 756.84 160.62 757.24 158.94 757.64 158.69 758.17 161.82 759.37 162.54 759.9 167.94 760.3 171.06 760.7 167.94 761.1 169.62 762.43 168.18 762.83 165.3 763.37 165.9 763.76 165.18 764.16 164.82 766.3 170.1 766.83 171.3 767.23 170.58 768.96 169.86 769.36 166.62 769.76 166.97 770.29 167.46 771.49 170.22 772.02 167.94 772.42 163.74 772.82 165.06 773.22 162.9 774.56 159.3 774.96 156.18 775.49 155.22 775.89 155.69 776.29 155.46 777.62 154.5 778.02 152.94 778.55 153.66 778.95 154.86 779.35 156.78 780.68 155.34 781.08 154.74 781.48 153.78 782.02 153.06 782.42 153.54 783.75 155.46 784.15 152.22 784.55 153.3 784.95 150.9 785.48 152.46 786.68 150.41 787.21 149.34 787.61 151.86 788.41 149.22 789.74 147.41 790.14 147.06 790.68 145.5 791.08 145.86 791.48 142.62 792.81 141.3 793.21 138.9 793.61 137.22 794.14 133.62 794.54 139.38 795.87 145.02 796.27 154.74 796.67 150.18 797.07 155.69 797.6 152.34 798.93 159.3 799.73 154.13 800.13 153.18 800.67 153.06 801.87 151.5 802.4 152.58 802.8 146.58 803.2 144.9 803.6 142.62 804.93 139.13 805.33 139.86 805.86 147.78 806.26 151.97 806.66 150.66 807.99 148.74 808.39 146.46 808.79 144.3 809.33 143.58 809.73 141.9 811.06 141.78 811.46 139.38 811.86 140.46 812.26 139.74 812.79 139.86 813.99 138.78 814.52 138.18 814.92 142.02 815.32 141.41 815.72 135.9 817.05 133.62 817.45 134.22 820.12 132.54 820.52 129.3 821.05 131.22"/><polyline class="fa76ae8c-de17-466f-9d44-ce2cee27b5ec" points="29.19 184.97 29.59 182.22 30.93 181.02 31.33 181.02 31.73 181.86 32.26 180.66 32.66 179.34 33.99 179.46 34.39 180.3 34.79 182.1 35.19 185.34 35.72 185.69 36.92 185.69 37.45 187.38 37.85 191.82 38.25 190.02 38.65 190.25 39.98 185.58 40.38 185.58 40.92 185.58 41.32 184.38 41.72 185.22 43.05 184.14 43.45 182.69 43.85 181.5 44.38 183.9 44.78 183.18 46.11 186.54 46.51 191.46 46.91 189.9 47.31 190.74 47.84 191.34 49.04 193.86 49.58 193.02 49.98 191.82 50.38 193.25 50.78 192.78 52.11 199.5 52.51 200.22 53.04 199.97 53.44 203.1 53.84 200.82 55.17 197.58 55.57 197.34 56.1 199.74 56.5 198.9 56.9 195.54 58.64 192.9 59.03 191.94 59.57 192.78 59.97 193.74 61.3 194.69 61.7 193.38 62.1 192.78 62.5 189.9 63.03 187.97 64.23 189.54 64.76 191.58 65.16 190.02 65.56 193.02 65.96 194.94 67.3 197.46 67.69 195.9 68.23 197.1 68.63 198.18 69.03 200.69 70.36 207.3 70.76 202.74 71.16 205.14 71.69 207.3 72.09 205.14 73.42 206.1 73.82 206.46 74.22 204.3 74.75 204.3 75.16 202.25 76.49 198.78 76.89 198.78 77.29 196.97 77.69 196.5 78.22 196.74 79.42 199.02 79.95 199.14 80.35 200.69 80.75 203.1 81.15 204.54 82.48 204.3 82.88 202.97 83.41 204.54 83.81 201.9 84.21 199.02 85.95 192.9 86.34 188.69 86.88 188.69 87.28 185.82 89.01 182.82 89.41 180.3 89.81 184.14 90.34 181.5 91.54 181.74 92.07 180.54 92.47 183.06 92.87 184.38 93.27 185.94 95 191.34 95.54 189.9 95.94 199.86 96.34 199.62 97.67 203.94 98.07 203.1 98.6 198.66 99 200.22 99.4 202.14 100.73 201.3 101.13 209.58 101.53 208.97 102.06 217.86 102.47 219.66 103.8 220.86 104.2 217.25 104.6 212.69 105 213.3 105.53 208.38 106.73 211.25 107.26 208.86 107.66 209.34 108.06 204.3 108.46 205.02 109.79 205.38 110.19 211.02 110.72 210.42 111.12 209.82 111.52 211.38 112.86 210.3 113.25 212.22 113.66 214.14 114.19 211.38 115.92 209.82 116.32 207.78 116.72 206.46 117.25 205.5 117.65 204.54 118.98 201.18 119.38 207.9 119.78 209.46 120.18 214.38 120.72 212.34 121.92 217.5 122.45 220.25 122.85 214.86 123.25 212.69 123.65 217.25 124.98 216.78 125.38 222.06 125.91 222.42 126.31 229.97 126.71 235.14 128.44 246.42 128.84 243.3 129.38 231.18 129.78 232.5 132.84 236.1 134.04 229.38 134.57 228.78 134.97 225.54 135.37 227.94 135.77 227.22 137.5 225.18 138.03 226.02 138.43 225.06 138.83 221.82 140.17 220.5 140.56 222.18 141.1 224.1 141.5 222.66 141.9 220.74 143.23 222.54 143.63 221.94 144.03 223.25 144.56 220.74 144.96 221.1 146.29 217.5 146.69 217.14 147.09 217.25 147.49 220.74 148.03 226.25 149.76 220.25 150.16 217.25 150.56 217.14 150.96 219.18 152.29 214.62 152.69 214.14 153.22 213.42 153.62 213.42 154.02 214.25 155.35 212.58 155.75 213.06 156.15 212.46 156.69 214.14 157.09 212.46 158.42 210.3 158.82 212.22 159.22 212.34 159.75 214.5 160.15 219.78 161.48 218.1 161.88 213.78 162.28 216.18 162.68 216.9 163.21 214.25 164.41 212.46 164.94 214.02 165.34 213.06 166.14 211.97 167.48 218.58 167.88 211.02 168.41 209.46 168.81 214.02 169.21 211.97 170.54 208.02 170.94 209.22 171.34 207.78 171.87 208.25 172.27 207.3 173.6 208.02 174 208.74 174.4 210.66 174.8 210.78 175.34 211.38 176.53 207.18 177.07 208.25 177.47 207.9 177.87 211.14 178.27 210.06 179.6 209.69 180 208.86 180.53 210.66 180.93 208.74 181.33 209.69 186.13 214.02 186.53 218.69 187.06 223.5 187.46 223.62 188.79 225.42 189.19 227.1 189.59 225.54 189.99 225.66 190.52 223.38 191.72 223.74 192.25 225.06 192.65 225.42 193.05 226.02 193.45 226.02 194.79 225.78 195.19 225.42 195.72 228.3 196.12 228.9 196.52 231.3 197.85 233.46 198.25 233.1 198.65 227.69 199.18 228.9 199.58 227.82 200.91 224.46 201.31 223.25 201.71 224.1 202.25 226.38 202.65 225.66 203.98 227.82 204.38 229.62 204.78 225.18 205.18 224.1 205.71 226.97 206.91 226.74 207.44 227.1 207.84 228.06 208.24 225.18 208.64 225.18 209.97 219.42 210.37 218.22 210.91 220.38 211.31 218.82 211.71 218.46 213.04 221.46 213.44 222.3 213.84 223.25 214.37 221.82 214.77 222.9 216.5 224.1 216.9 224.46 217.3 230.46 217.83 225.54 219.03 227.22 219.56 224.94 219.96 223.97 220.36 223.14 220.76 224.34 222.1 224.82 222.5 223.38 223.03 225.42 223.43 225.9 223.83 231.66 225.16 235.86 225.56 236.58 226.09 236.58 226.49 236.82 226.89 236.69 228.62 239.34 229.02 237.18 229.56 240.06 229.96 239.46 231.29 237.54 231.69 235.14 232.09 236.82 232.49 236.69 233.02 235.86 234.22 240.18 234.75 237.54 235.15 238.02 235.55 237.54 235.95 233.94 237.28 235.5 237.68 234.54 238.22 235.62 238.62 230.69 239.01 230.22 240.35 227.82 240.75 226.5 241.15 222.42 241.68 220.38 242.08 217.62 243.81 216.66 244.21 217.86 244.61 215.82 245.14 215.69 246.87 214.62 247.27 214.74 247.67 214.14 248.21 214.97 249.41 217.25 249.94 214.5 250.34 215.58 250.74 220.5 251.14 219.9 252.47 219.54 252.87 217.14 253.4 218.1 253.8 218.34 254.2 216.06 255.93 211.62 256.33 209.82 256.87 211.14 257.26 211.38 258.6 210.18 259.4 208.14 259.8 206.94 260.33 205.62 261.53 205.62 262.06 203.58 262.46 203.58 262.86 203.82 263.26 204.42 264.99 199.38 265.52 198.66 265.93 198.18 266.32 197.22 267.66 196.97 268.06 195.06 268.59 196.97 268.99 199.97 269.39 197.58 270.72 197.46 271.12 197.94 271.52 198.66 272.05 199.38 272.45 198.9 273.79 196.5 274.18 196.62 274.58 195.66 274.98 196.38 275.52 198.06 276.72 195.3 277.25 196.97 277.65 197.82 278.05 196.02 278.45 195.54 279.78 193.97 280.18 194.58 280.71 195.54 281.11 196.02 281.51 192.3 282.84 192.9 283.24 191.22 283.64 192.9 284.18 193.62 284.57 193.25 285.91 193.86 286.31 193.62 286.71 195.42 287.11 193.5 287.64 192.54 288.97 195.06 291.9 199.14 292.44 194.22 292.83 198.9 293.24 194.34 293.63 192.78 295.37 192.9 295.9 194.82 296.3 195.06 296.7 194.1 298.03 192.66 298.43 194.82 298.83 193.14 299.36 195.78 299.76 196.25 301.1 201.78 301.49 203.46 301.89 202.5 302.29 206.69 302.83 204.9 304.02 207.18 304.56 204.66 304.96 201.66 305.36 196.14 305.76 197.46 307.09 199.86 308.02 200.82 308.42 201.54 308.82 202.97 310.15 206.22 310.55 209.94 311.09 209.46 311.49 209.58 311.88 210.18 313.62 220.14 314.02 221.82 314.55 228.06 314.95 236.69 316.28 233.94 316.68 237.42 317.08 237.66 317.48 235.86 318.01 243.06 319.21 256.38 319.75 253.74 320.14 256.38 320.55 265.86 320.94 276.9 322.28 281.82 322.68 274.74 323.21 273.18 323.61 269.21 325.34 268.25 325.74 262.5 326.14 249.18 326.67 251.69 327.07 241.74 328.4 241.62 328.8 247.38 329.2 256.14 329.6 260.21 330.14 261.66 331.47 254.46 331.87 249.42 332.27 245.46 332.67 246.66 333.2 244.5 334.4 248.46 334.93 243.66 335.33 243.18 335.73 244.5 336.13 241.5 337.46 242.22 337.86 244.86 338.4 246.18 338.8 242.34 339.19 243.06 340.53 239.46 340.93 238.5 341.86 235.86 342.26 241.14 344.79 241.25 345.32 235.62 346.52 231.54 347.06 232.14 347.45 231.78 347.86 236.69 348.25 234.9 349.59 233.46 349.99 228.78 350.52 226.62 350.92 226.5 351.32 228.9 352.65 224.58 353.05 219.42 353.58 217.62 353.98 214.14 354.38 215.94 355.71 214.86 356.11 211.38 356.51 209.46 357.05 208.5 357.45 207.9 358.78 205.38 359.18 205.74 359.58 205.62 359.98 211.02 360.51 214.02 361.71 220.97 362.24 210.42 362.64 211.86 363.04 212.46 363.44 212.46 364.77 213.42 365.17 211.74 365.71 213.18 366.11 216.18 366.5 213.54 367.84 217.86 368.24 216.18 368.64 219.9 369.17 219.66 369.57 217.97 370.9 213.54 371.3 214.14 371.7 216.66 372.1 216.9 372.63 221.1 373.97 214.74 374.37 216.78 374.76 212.94 375.17 214.86 375.7 216.06 376.9 215.22 377.43 214.74 377.83 216.3 379.96 216.06 380.36 217.62 380.89 220.62 381.29 222.9 381.69 228.9 383.02 223.97 383.42 217.74 383.82 217.97 384.36 218.94 384.76 219.9 386.49 213.9 386.89 210.18 387.29 206.69 387.82 206.69 389.02 209.69 389.55 208.5 389.95 208.02 390.35 210.42 390.75 209.22 392.08 208.38 392.48 205.25 393.02 205.86 393.42 207.42 393.81 209.69 395.15 207.18 395.55 207.66 396.08 205.62 396.48 204.3 396.88 207.18 398.21 207.9 398.61 205.38 399.01 207.54 399.54 204.06 399.94 201.54 401.28 198.9 401.68 200.94 402.07 200.46 402.48 201.3 403.01 199.02 405.14 198.9 405.54 202.02 405.94 200.22 407.27 194.58 407.67 193.97 408.2 199.97 408.6 199.97 409 202.74 410.33 197.46 410.73 196.74 411.13 196.74 411.67 194.34 412.07 195.66 413.4 196.74 413.8 195.78 414.2 196.62 414.6 199.25 415.13 202.02 416.46 198.54 416.86 201.3 417.26 199.14 417.66 202.25 418.19 201.18 419.39 203.34 419.93 203.46 420.33 203.46 420.73 204.18 421.13 209.46 422.46 204.54 423.39 201.9 423.79 198.3 424.19 196.38 425.52 192.66 425.92 189.42 426.32 184.97 426.85 185.94 427.25 189.9 428.58 184.86 428.99 184.86 429.38 186.42 429.78 184.74 430.32 184.25 432.05 178.02 432.45 177.42 432.85 175.86 433.25 174.3 434.58 179.94 434.98 177.06 435.51 176.46 435.91 176.69 436.31 176.69 437.64 179.69 438.04 179.58 438.58 176.22 438.98 178.86 439.38 177.3 440.71 176.1 441.11 177.66 441.51 177.06 442.04 177.06 442.44 177.54 443.77 178.5 444.17 183.42 444.57 182.22 444.97 180.78 445.5 179.58 446.7 178.86 447.24 173.46 447.64 175.74 449.77 178.25 450.17 178.25 450.7 177.78 451.1 172.97 451.5 168.18 453.23 168.54 453.63 166.25 454.16 164.22 454.56 167.46 455.89 169.62 456.3 168.66 456.69 169.25 457.09 167.22 457.63 167.46 458.96 166.25 459.36 167.94 459.76 164.94 460.16 166.62 460.69 171.54 461.89 166.97 462.42 163.97 462.82 160.25 463.22 161.94 463.62 158.46 464.95 152.58 465.35 152.22 465.89 152.34 466.69 152.46 468.02 149.58 468.42 149.58 468.82 150.3 469.35 153.9 469.75 156.18 471.08 154.38 471.88 159.9 472.28 156.66 472.81 166.86 474.01 160.14 474.55 161.46 474.95 159.54 475.35 161.22 475.75 158.58 477.08 159.06 477.48 154.62 478.01 154.38 478.41 152.22 478.81 148.02 480.14 144.42 480.54 143.1 481.07 142.25 481.47 138.18 481.87 136.97 483.2 140.1 483.61 143.94 484 150.42 484.54 145.38 484.94 141.06 486.27 139.5 486.67 139.74 487.07 144.3 487.47 143.82 488 142.14 489.2 140.46 489.73 145.62 490.13 140.94 490.53 143.58 490.93 142.62 492.26 144.06 492.66 144.06 493.2 144.9 493.6 144.3 494 144.06 495.33 144.66 495.73 150.3 496.13 157.62 496.66 151.74 497.06 152.58 498.39 151.38 498.79 152.82 499.19 153.06 500.12 153.78 502.65 150.18 503.19 148.74 504.39 145.86 504.92 154.14 505.32 159.78 505.72 165.3 506.12 158.69 507.45 160.02 507.85 156.42 508.38 159.66 508.78 158.94 509.18 157.74 510.51 156.18 510.92 155.22 511.31 155.1 511.85 156.78 512.25 150.78 513.58 155.34 513.98 154.97 514.38 152.22 514.78 150.06 515.31 149.58 516.51 149.1 517.04 148.74 517.44 149.34 517.84 149.22 518.24 149.82 519.57 148.62 519.97 146.22 520.51 145.86 520.91 148.38 521.31 151.02 522.64 159.18 523.04 149.34 523.57 150.54 523.97 151.14 524.37 148.5 525.7 148.02 526.1 150.54 526.5 151.62 527.03 152.69 527.43 150.42 528.77 150.9 529.17 150.78 529.57 153.54 529.97 156.78 530.5 157.97 531.7 151.02 532.23 148.86 532.63 149.1 533.03 153.18 533.43 154.02 534.76 158.46 535.16 161.46 535.69 158.58 537.83 154.62 538.23 152.58 538.63 156.42 539.16 155.82 539.56 160.38 540.89 153.06 541.29 154.86 541.69 156.18 542.09 155.1 542.62 154.97 544.35 153.9 544.75 151.86 545.15 151.86 545.68 152.1 546.88 157.14 547.42 158.82 547.82 157.25 548.22 161.34 548.62 163.74 549.95 158.46 550.35 154.97 550.88 154.62 551.28 154.38 551.68 155.1 553.01 150.78 553.41 149.82 553.81 146.34 554.35 145.14 554.74 139.62 556.08 135.9 556.48 133.25 556.88 129.9 557.27 132.66 557.81 127.97 559.01 126.9 559.54 123.3 559.94 127.25 560.34 128.1 560.74 126.42 562.47 132.42 563 136.5 563.8 128.82 565.13 130.38 565.53 132.66 566.07 136.74 566.47 138.54 566.87 145.5 568.2 146.58 568.6 150.78 569 151.62 569.53 152.22 569.93 148.97 571.26 144.54 571.66 147.78 572.06 148.5 572.46 145.97 573 139.25 574.19 140.82 574.73 138.9 575.13 139.02 575.53 143.46 575.93 143.22 577.26 144.18 577.66 141.42 578.19 142.5 578.59 142.97 578.99 143.82 580.32 137.46 580.72 140.69 581.65 136.86 582.05 139.14 583.39 140.22 583.79 143.46 584.19 145.14 584.59 144.54 585.12 139.97 586.45 139.62 586.85 140.58 587.25 142.62 587.65 143.22 588.18 141.78 589.38 141.66 590.31 146.46 590.71 145.38 591.11 152.46 592.45 158.58 592.85 161.58 593.38 161.22 593.78 163.5 594.18 157.38 595.51 158.46 595.91 150.54 596.31 149.22 596.84 151.14 597.24 153.54 598.57 152.69 598.97 154.14 599.37 153.18 599.77 148.86 600.3 153.42 601.5 160.38 602.04 155.46 602.44 155.69 602.84 153.3 603.24 153.78 604.57 155.69 604.97 151.25 605.5 151.14 605.9 153.06 608.03 147.9 608.57 146.82 608.96 153.78 609.36 154.74 611.1 156.9 611.5 150.9 612.03 153.9 612.43 158.94 613.76 157.25 614.16 159.42 614.56 168.3 614.96 165.54 615.49 166.97 616.69 165.54 617.22 170.94 617.62 171.78 618.02 180.06 618.42 174.78 619.75 171.42 620.15 171.78 620.69 165.3 621.09 167.22 621.49 164.69 622.82 166.14 623.22 164.34 623.62 161.1 624.15 158.34 625.88 162.06 626.28 162.3 626.68 157.62 627.08 159.9 627.62 160.74 628.95 163.14 629.35 168.42 630.15 172.02 630.68 169.02 631.88 166.14 632.41 163.97 632.81 169.74 633.21 166.02 633.61 172.14 634.94 179.22 635.34 185.69 635.88 186.78 636.27 175.14 636.67 179.46 638.01 177.3 638.41 174.78 638.81 171.18 639.34 163.97 639.74 163.14 641.47 160.97 641.87 154.74 642.27 155.46 642.8 154.25 644 156.06 644.53 153.54 644.93 153.18 645.33 157.5 645.73 158.34 647.07 156.54 647.47 157.14 648 162.9 648.4 168.3 648.8 167.46 650.13 168.54 650.53 172.86 651.06 168.18 651.46 164.58 651.86 167.1 653.19 170.1 653.59 166.74 653.99 164.46 654.52 161.94 654.92 165.18 656.26 169.86 656.66 168.42 657.06 170.94 657.46 164.94 659.19 164.69 660.92 161.46 662.25 166.97 662.65 167.69 663.18 168.3 663.58 171.9 663.98 166.86 665.32 168.18 665.72 167.34 666.12 165.42 666.65 168.42 667.05 166.62 668.38 163.86 668.78 167.58 669.18 167.82 669.58 168.18 670.11 165.66 671.44 160.5 671.84 162.42 672.24 157.38 672.64 159.3 673.18 157.86 674.38 157.02 674.91 155.69 675.31 152.1 675.71 152.94 676.11 156.66 677.44 162.3 677.84 165.66 678.37 169.14 678.77 168.18 679.17 172.25 680.5 176.58 680.9 170.46 681.3 171.18 681.84 170.46 682.24 167.1 683.57 163.38 683.97 159.54 684.37 160.62 684.77 163.97 685.3 167.94 686.5 164.1 687.03 163.14 687.43 166.38 687.83 162.78 688.23 161.46 689.56 158.1 689.96 163.86 690.5 163.14 690.89 162.54 691.29 163.02 693.03 161.58 693.56 154.5 693.96 153.18 694.36 151.74 695.69 152.82 696.09 153.18 696.49 152.94 697.02 152.22 697.42 153.3 698.75 148.97 699.15 153.66 699.55 153.78 699.95 153.66 700.49 151.14 701.68 151.38 702.22 151.97 702.62 152.1 703.42 145.97 704.75 145.25 705.15 145.62 705.68 141.66 706.08 143.82 706.48 143.22 707.81 144.06 708.21 146.58 708.61 147.06 709.14 145.86 709.54 145.74 710.88 151.25 711.28 147.42 711.68 147.54 712.08 152.22 712.61 153.54 713.94 153.54 714.34 154.25 714.74 155.94 715.14 149.58 715.67 147.54 716.87 145.25 717.4 143.82 717.8 150.42 718.2 150.18 718.6 151.86 720.34 150.3 720.87 154.14 721.27 155.34 723 163.38 723.4 161.82 723.8 164.58 724.33 158.69 724.73 163.38 726.06 162.06 726.46 152.22 726.86 151.74 727.26 150.18 727.8 152.82 729.53 158.22 729.93 159.42 730.33 162.18 730.73 155.58 732.06 158.34 732.46 154.5 732.99 153.9 733.39 156.06 733.79 158.22 735.12 158.22 735.52 155.69 736.06 154.14 736.46 155.94 736.86 157.14 738.19 153.18 738.59 152.82 738.99 153.3 739.92 157.97 741.25 155.94 741.65 152.1 742.05 152.94 742.45 154.97 742.98 148.97 744.18 151.62 744.72 150.3 745.12 150.06 745.51 148.14 745.91 147.66 747.25 146.69 747.65 143.69 748.58 139.62 748.98 139.14 750.31 141.3 750.71 142.97 751.11 144.3 751.64 144.42 752.04 149.69 753.37 151.02 753.77 150.42 754.17 150.54 754.57 151.14 755.11 147.66 756.44 148.5 756.84 148.14 757.24 146.46 757.64 146.82 758.17 150.18 759.37 152.58 759.9 157.86 760.3 160.02 760.7 157.74 761.1 159.42 762.43 158.46 762.83 156.42 763.37 156.78 763.76 158.34 764.16 158.69 766.3 164.1 766.83 163.97 767.23 163.62 768.96 163.02 769.36 160.25 769.76 160.38 770.29 161.58 771.49 164.46 772.02 162.18 772.42 157.02 772.82 159.18 773.22 157.74 774.56 154.38 774.96 150.42 775.49 148.62 775.89 148.38 776.29 148.25 777.62 148.02 778.02 148.02 778.55 148.86 778.95 150.42 779.35 151.38 780.68 149.94 781.08 149.22 781.48 148.25 782.02 147.9 782.42 148.14 783.75 149.34 784.15 146.1 784.55 146.82 784.95 144.3 785.48 145.38 786.68 143.58 787.21 143.58 787.61 147.9 788.41 144.78 789.74 143.69 790.14 143.34 790.68 142.38 791.08 143.1 791.48 139.86 792.81 137.82 793.21 136.38 793.61 134.69 794.14 131.1 794.54 136.38 795.87 141.42 796.27 149.94 796.67 147.9 797.07 151.14 797.6 147.66 798.93 153.78 799.73 148.86 800.13 148.74 800.67 149.22 801.87 147.78 802.4 147.06 802.8 141.9 803.2 140.46 803.6 137.94 804.93 134.94 805.33 133.97 805.86 140.46 806.26 143.94 806.66 143.34 807.99 141.54 808.39 138.9 808.79 136.5 809.33 136.14 809.73 134.58 811.06 133.62 811.46 131.46 811.86 132.06 812.26 131.82 812.79 130.86 813.99 130.38 814.52 130.02 814.92 133.02 815.32 132.3 815.72 126.3 817.05 122.34 817.45 123.06 820.12 123.3 820.52 118.97 821.05 120.66"/><path class="ab88c381-93fd-49e2-8201-1c3fd30a00b0" d="M.55,332.71H3.62v.84H.55Z" transform="translate(-0.55 -0.44)"/><path class="ab88c381-93fd-49e2-8201-1c3fd30a00b0" d="M4.48,335.48l.54-.71a2.88,2.88,0,0,0,2.15,1A1.9,1.9,0,0,0,9,333.66a1.77,1.77,0,0,0-1.82-2,2.4,2.4,0,0,0-1.46.51l-.59-.36.28-4.11H9.73v.94H6.41l-.22,2.54a2.48,2.48,0,0,1,1.31-.35,2.51,2.51,0,0,1,2.65,2.8,2.85,2.85,0,0,1-2.88,3A3.7,3.7,0,0,1,4.48,335.48Z" transform="translate(-0.55 -0.44)"/><path class="ab88c381-93fd-49e2-8201-1c3fd30a00b0" d="M11.41,332.07c0-3.06,1.07-4.54,2.75-4.54s2.73,1.49,2.73,4.54-1.06,4.58-2.73,4.58S11.41,335.12,11.41,332.07Zm4.42,0c0-2.57-.68-3.65-1.67-3.65s-1.68,1.08-1.68,3.65.67,3.7,1.68,3.7S15.83,334.66,15.83,332.07Z" transform="translate(-0.55 -0.44)"/><path class="ab88c381-93fd-49e2-8201-1c3fd30a00b0" d="M.55,273.68H3.62v.84H.55Z" transform="translate(-0.55 -0.44)"/><path class="ab88c381-93fd-49e2-8201-1c3fd30a00b0" d="M4.49,276.42,5,275.7a2.9,2.9,0,0,0,2.18,1A1.62,1.62,0,0,0,9,275.07c0-1.05-.71-1.76-2.74-1.76v-.84c1.82,0,2.44-.73,2.44-1.68a1.37,1.37,0,0,0-1.49-1.41,2.71,2.71,0,0,0-1.82.87l-.59-.69a3.53,3.53,0,0,1,2.46-1.06c1.48,0,2.55.79,2.55,2.21a2.18,2.18,0,0,1-1.57,2.12v.05a2.25,2.25,0,0,1,1.87,2.23,2.55,2.55,0,0,1-2.81,2.51A3.65,3.65,0,0,1,4.49,276.42Z" transform="translate(-0.55 -0.44)"/><path class="ab88c381-93fd-49e2-8201-1c3fd30a00b0" d="M11.41,273c0-3.06,1.07-4.54,2.75-4.54S16.89,270,16.89,273s-1.06,4.58-2.73,4.58S11.41,276.09,11.41,273Zm4.42,0c0-2.57-.68-3.65-1.67-3.65s-1.68,1.08-1.68,3.65.67,3.7,1.68,3.7S15.83,275.63,15.83,273Z" transform="translate(-0.55 -0.44)"/><path class="ab88c381-93fd-49e2-8201-1c3fd30a00b0" d="M.55,214.65H3.62v.84H.55Z" transform="translate(-0.55 -0.44)"/><path class="ab88c381-93fd-49e2-8201-1c3fd30a00b0" d="M5.2,217.52h2V211H5.59v-.7a5.6,5.6,0,0,0,1.82-.62h.84v7.88H10v.91H5.2Z" transform="translate(-0.55 -0.44)"/><path class="ab88c381-93fd-49e2-8201-1c3fd30a00b0" d="M11.41,214c0-3.05,1.07-4.53,2.75-4.53S16.89,211,16.89,214s-1.06,4.59-2.73,4.59S11.41,217.06,11.41,214Zm4.42,0c0-2.56-.68-3.64-1.67-3.64s-1.68,1.08-1.68,3.64.67,3.71,1.68,3.71S15.83,216.59,15.83,214Z" transform="translate(-0.55 -0.44)"/><path class="ab88c381-93fd-49e2-8201-1c3fd30a00b0" d="M5.2,158.48h2v-6.56H5.59v-.7a5.37,5.37,0,0,0,1.82-.62h.84v7.88H10v.91H5.2Z" transform="translate(-0.55 -0.44)"/><path class="ab88c381-93fd-49e2-8201-1c3fd30a00b0" d="M11.41,155c0-3.05,1.07-4.53,2.75-4.53s2.73,1.49,2.73,4.53-1.06,4.59-2.73,4.59S11.41,158,11.41,155Zm4.42,0c0-2.56-.68-3.64-1.67-3.64s-1.68,1.08-1.68,3.64.67,3.71,1.68,3.71S15.83,157.56,15.83,155Z" transform="translate(-0.55 -0.44)"/><path class="ab88c381-93fd-49e2-8201-1c3fd30a00b0" d="M4.49,99.32,5,98.6a2.89,2.89,0,0,0,2.18,1A1.62,1.62,0,0,0,9,98c0-1-.71-1.76-2.74-1.76v-.84c1.82,0,2.44-.73,2.44-1.68a1.37,1.37,0,0,0-1.49-1.41,2.71,2.71,0,0,0-1.82.87l-.59-.69A3.49,3.49,0,0,1,7.27,91.4c1.48,0,2.55.79,2.55,2.21a2.19,2.19,0,0,1-1.57,2.12v0A2.25,2.25,0,0,1,10.12,98a2.55,2.55,0,0,1-2.81,2.5A3.64,3.64,0,0,1,4.49,99.32Z" transform="translate(-0.55 -0.44)"/><path class="ab88c381-93fd-49e2-8201-1c3fd30a00b0" d="M11.41,95.93c0-3.05,1.07-4.53,2.75-4.53s2.73,1.49,2.73,4.53-1.06,4.58-2.73,4.58S11.41,99,11.41,95.93Zm4.42,0c0-2.56-.68-3.64-1.67-3.64s-1.68,1.08-1.68,3.64.67,3.71,1.68,3.71S15.83,98.52,15.83,95.93Z" transform="translate(-0.55 -0.44)"/><path class="ab88c381-93fd-49e2-8201-1c3fd30a00b0" d="M4.48,40.32,5,39.6a2.88,2.88,0,0,0,2.15,1A1.89,1.89,0,0,0,9,38.5a1.78,1.78,0,0,0-1.82-2A2.35,2.35,0,0,0,5.76,37l-.59-.36.28-4.11H9.73v.93H6.41L6.19,36a2.57,2.57,0,0,1,1.31-.34,2.51,2.51,0,0,1,2.65,2.79,2.85,2.85,0,0,1-2.88,3A3.7,3.7,0,0,1,4.48,40.32Z" transform="translate(-0.55 -0.44)"/><path class="ab88c381-93fd-49e2-8201-1c3fd30a00b0" d="M11.41,36.9c0-3.06,1.07-4.53,2.75-4.53s2.73,1.49,2.73,4.53-1.06,4.58-2.73,4.58S11.41,40,11.41,36.9Zm4.42,0c0-2.56-.68-3.64-1.67-3.64s-1.68,1.08-1.68,3.64.67,3.71,1.68,3.71S15.83,39.49,15.83,36.9Z" transform="translate(-0.55 -0.44)"/><path class="fe93d1d9-3aba-4a4d-94cf-bb9fffc32476" d="M858.35,4.66V18.43h-2.06v-1h-7.13v1h-2V4.66Zm-9.19,1.92V10h7.13V6.58Zm7.13,8.92V11.91h-7.13V15.5Z" transform="translate(-0.55 -0.44)"/><path class="fe93d1d9-3aba-4a4d-94cf-bb9fffc32476" d="M871.81,8.74a13.65,13.65,0,0,0,4.52,5.8,7.74,7.74,0,0,0-1.52,1.66,10.56,10.56,0,0,1-1.7-1.65v1.39H869.8v2.71h-2V15.94H864.4V14.52a13,13,0,0,1-1.81,1.76,8.65,8.65,0,0,0-1.4-1.55,13.87,13.87,0,0,0,4.5-6h-3.94V6.81h6V3.72h2V6.81h6.06V8.74Zm-4,5.27V8.74h-.11A19.88,19.88,0,0,1,864.82,14Zm4.88,0a20,20,0,0,1-2.79-5.27h-.07V14Z" transform="translate(-0.55 -0.44)"/><path class="fe93d1d9-3aba-4a4d-94cf-bb9fffc32476" d="M886.33,10a10.69,10.69,0,0,0,6,6.85,7.94,7.94,0,0,0-1.42,1.79,12,12,0,0,1-6-6.79,11,11,0,0,1-6,6.81A5.74,5.74,0,0,0,877.46,17a9.58,9.58,0,0,0,5.83-7h-5.53V8h5.85a42.71,42.71,0,0,0,.16-4.27h2.09c0,1.31,0,2.78-.19,4.27H892v2Z" transform="translate(-0.55 -0.44)"/><path class="fe93d1d9-3aba-4a4d-94cf-bb9fffc32476" d="M908.13,16.38v1.76H893.65V16.38h6.28V15.1h-4.66V13.37h4.65v-1h-1.19V9.29h-1.48a4.89,4.89,0,0,1-2.52,3.5,8.82,8.82,0,0,0-1.26-1.33,3.53,3.53,0,0,0,2-2.17h-1.62V7.6h1.81V5.92h-1.26V4.26h7.29V5.92h-1.14V7.6H902V9.29h-1.51v2.8h1.38v1.28h4.65V15.1h-4.65v1.28Zm-9.4-8.78V5.92h-1.35V7.6ZM904.45,10H902.7V4.61h1.75Zm3,.69c0,.88-.17,1.33-.78,1.6a6.52,6.52,0,0,1-2.52.31,7.21,7.21,0,0,0-.56-1.68c.72,0,1.49,0,1.73,0s.31-.06.31-.27V3.88h1.82Z" transform="translate(-0.55 -0.44)"/><path class="fe93d1d9-3aba-4a4d-94cf-bb9fffc32476" d="M924,11a10,10,0,0,1-2.67,4.8A11.84,11.84,0,0,0,924.48,17a7.54,7.54,0,0,0-1.23,1.65A11.09,11.09,0,0,1,919.8,17a13.74,13.74,0,0,1-3.5,1.53,6.39,6.39,0,0,0-.95-1.58,1.38,1.38,0,0,1-.6,1.18,3.6,3.6,0,0,1-2,.36,6.93,6.93,0,0,0-.48-1.78c.5,0,1,0,1.16,0s.24-.07.24-.26V13.3c-.44.28-.84.55-1.24.79l-.47-1.15a19.84,19.84,0,0,1-1,5.71,7.22,7.22,0,0,0-1.53-.86c.84-2.2.88-5.4.88-7.72V4.26h5.07V9.05A3.05,3.05,0,0,0,917.31,6V4.28h5.4v3.5c0,.47,0,.64.22.64h.63a3.58,3.58,0,0,0,.79-.11c0,.46.08,1.09.14,1.52a3.17,3.17,0,0,1-.91.1h-.82c-1.53,0-1.84-.64-1.84-2.18V6H919a4.49,4.49,0,0,1-2.57,4.34,7.42,7.42,0,0,0-1.1-1.18v7.31a2.17,2.17,0,0,1,0,.37,11.6,11.6,0,0,0,3-1.14,11.07,11.07,0,0,1-2.06-3.12l.79-.24h-1.16V10.61h6.54l.35-.08Zm-12-.93c0,.66,0,1.41,0,2.18.48-.16,1-.37,1.67-.61V9.88l-.65.51a14.88,14.88,0,0,0-1-1.22ZM912,6V8l.45-.32c.39.37.82.8,1.18,1.2V6Zm6,6.42a7.55,7.55,0,0,0,1.76,2.27,7.36,7.36,0,0,0,1.73-2.27Z" transform="translate(-0.55 -0.44)"/><path class="ab88c381-93fd-49e2-8201-1c3fd30a00b0" d="M9.41,9.36a13.3,13.3,0,0,1-2.88,1.87c-.16-.15-.51-.44-.7-.59A10.55,10.55,0,0,0,8.61,9Zm2.29-.91v2.07c0,.47-.1.69-.45.83a5.72,5.72,0,0,1-1.7.13,3.22,3.22,0,0,0-.31-.81c.61,0,1.16,0,1.33,0s.2,0,.2-.18v-2a22.35,22.35,0,0,0-4.12.32A5,5,0,0,0,6.43,8,6.17,6.17,0,0,0,8,7.59a20.19,20.19,0,0,0,2.08-.86A14.28,14.28,0,0,0,7.29,7,3.89,3.89,0,0,0,7,6.23a2.46,2.46,0,0,0,.82-.29A11.12,11.12,0,0,0,9.43,5H6.9V.94h8.69V5H10.7a16,16,0,0,1-1.76,1.1L11.61,6c.48-.25,1-.53,1.42-.81l.68.54A31.19,31.19,0,0,1,9.19,7.84l4.9-.23c-.31-.29-.64-.59-.94-.82l.63-.44A13.66,13.66,0,0,1,16.06,8.5L15.4,9c-.17-.21-.37-.46-.62-.73Zm-4-5.82h3v-1h-3Zm0,1.68h3v-1h-3Zm7-2.65H11.61v1h3.11Zm0,1.66H11.61v1h3.11ZM13.29,9a18,18,0,0,1,3,1.7l-.69.53A18.08,18.08,0,0,0,12.66,9.5Z" transform="translate(-0.55 -0.44)"/><path class="ab88c381-93fd-49e2-8201-1c3fd30a00b0" d="M21.6,7.74a14.17,14.17,0,0,0-1.06-1.45v5.16h-.86V6.21A12.23,12.23,0,0,1,18,9.29a5.07,5.07,0,0,0-.46-.82,12.15,12.15,0,0,0,2.08-3.8H17.84V3.83h1.84V2c-.55.1-1.12.19-1.63.25a2.8,2.8,0,0,0-.28-.68A17.21,17.21,0,0,0,21.43.7l.62.67a10,10,0,0,1-1.51.46v2h1.3V3.64h2.91V3H22.47V2.42h2.28V1.79H22.21v-.6h2.54V.53h.89v.66h2.72v.6H25.64v.63h2.42V3H25.64v.65h3v.61H21.9v.42H20.54V5.4c.37.36,1.36,1.37,1.58,1.63Zm3.13,2.33a9.39,9.39,0,0,1-2.84,1.45,5.29,5.29,0,0,0-.58-.58A7.75,7.75,0,0,0,24,9.62Zm-2.09-.51V4.86H28v4.7Zm.82-3.34h3.68V5.46H23.46Zm0,1.37h3.68V6.81H23.46Zm0,1.37h3.68v-.8H23.46Zm3,.7c.8.46,1.72,1,2.29,1.39l-.78.43c-.48-.36-1.35-.92-2.11-1.38Z" transform="translate(-0.55 -0.44)"/><path class="ab88c381-93fd-49e2-8201-1c3fd30a00b0" d="M32.87,8.27H35V9H32.87v2.4H32V9H29.8V8.27H32V7h-2V6.19h1.11a6,6,0,0,0-.56-1.46l.66-.18A4.7,4.7,0,0,1,31.88,6l-.6.21h1.49A12.51,12.51,0,0,0,33.6,4.5l.76.21c-.25.49-.53,1-.8,1.48h1.2V7H32.87ZM35,4.5H29.81V3.72H32V2.52H30.16V1.76H32V.55h.83V1.76h1.81v.76H32.87v1.2H35Zm5.38.78A11,11,0,0,1,38.9,9.17a6,6,0,0,0,1.91,1.51,3.57,3.57,0,0,0-.62.72,6.78,6.78,0,0,1-1.8-1.52,7.14,7.14,0,0,1-1.75,1.63,2.28,2.28,0,0,0-.39-.45v.4h-.82V1.07h4.64V3.38c0,.45-.08.68-.45.81a6.64,6.64,0,0,1-1.89.15,2.61,2.61,0,0,0-.27-.8c.74,0,1.37,0,1.55,0s.24-.05.24-.2V1.89h-3V5.12h3.4l.15,0Zm-4.11,5.48a7,7,0,0,0,1.63-1.58,12,12,0,0,1-1.52-3.32h-.11Zm.87-4.9a10.28,10.28,0,0,0,1.23,2.59,9.35,9.35,0,0,0,1-2.59Z" transform="translate(-0.55 -0.44)"/><path class="ab88c381-93fd-49e2-8201-1c3fd30a00b0" d="M41.75,1.06h4.46v.73H44.87V3.32H46v7.94h-.67v-.68H42.62v.84H42V3.32h1.13V1.79H41.75Zm3.61,8.82V6.66h-.51c-.46,0-.61-.11-.61-.67V4.06h-.55v1a3.32,3.32,0,0,1-.78,2.31,1.51,1.51,0,0,0-.29-.26V9.88ZM42.62,4.06V6.93a2.84,2.84,0,0,0,.58-1.87v-1ZM43.05,8h1.89v.68H43.05Zm1.19-6.17h-.55V3.32h.55Zm1.12,2.27h-.61V6c0,.14,0,.17.14.17h.47ZM47.53.77h.74V5.53c0,2.26-.15,4.33-1.41,6a3.46,3.46,0,0,0-.65-.49A7.08,7.08,0,0,0,47.5,6.76L46.92,7a15.26,15.26,0,0,0-.66-2.72l.56-.22A14.18,14.18,0,0,1,47.5,6.7c0-.37,0-.77,0-1.15Zm4.7,0V11.47h-.77V6.67L51,6.89a16.35,16.35,0,0,0-.82-2.53v6.87h-.71V6.69l-.54.24a15.67,15.67,0,0,0-.64-2.68L48.81,4a15.09,15.09,0,0,1,.67,2.48V1h.71V4.13l.44-.21a14.2,14.2,0,0,1,.83,2.21V.75Z" transform="translate(-0.55 -0.44)"/><path class="ab88c381-93fd-49e2-8201-1c3fd30a00b0" d="M64.54,9H59.66v2.53h-.94V9H53.86V8.13h4.86v-1h.94v1h4.88ZM57,5.83c-.91.5-1.88,1-2.67,1.41l-.44-.72c.74-.3,1.85-.83,2.93-1.35Zm4.11,1.48a2.8,2.8,0,0,0-.33-.64C57.69,7,57.27,7,57,7.15a5.92,5.92,0,0,0-.26-.78,2.43,2.43,0,0,0,1-.58c.22-.2.74-.66,1.31-1.25a7.45,7.45,0,0,0-1.82.24A3.74,3.74,0,0,0,57,4a.89.89,0,0,0,.53-.38,9.36,9.36,0,0,0,.92-1.22H54.1V1.6H59c-.16-.3-.38-.66-.56-.93l.87-.23A8.24,8.24,0,0,1,60,1.6h4.45v.82H59.4a14.8,14.8,0,0,1-1.14,1.46l1.52-.1a9.61,9.61,0,0,0,.8-1l.74.42a23.58,23.58,0,0,1-3,3L60.39,6c-.19-.27-.39-.54-.59-.77L60.46,5a8.87,8.87,0,0,1,1.38,2Zm-6.28-4.4a10.86,10.86,0,0,1,1.83,1.35l-.63.54a10.06,10.06,0,0,0-1.8-1.4Zm8.78,4.45a14.8,14.8,0,0,0-2.35-1.68l.64-.48A14.83,14.83,0,0,1,64.3,6.83Zm.21-4a12.6,12.6,0,0,1-1.79,1.5l-.65-.42A10.82,10.82,0,0,0,63.1,2.87Z" transform="translate(-0.55 -0.44)"/><path class="ab88c381-93fd-49e2-8201-1c3fd30a00b0" d="M67.5,6.83A11.23,11.23,0,0,1,69.26.75l.69.31a11,11,0,0,0-1.54,5.77A11,11,0,0,0,70,12.6l-.69.32A11.27,11.27,0,0,1,67.5,6.83Z" transform="translate(-0.55 -0.44)"/><path class="ab88c381-93fd-49e2-8201-1c3fd30a00b0" d="M72.12,4.36c0-1.76.79-2.76,2-2.76s2,1,2,2.76-.79,2.79-2,2.79S72.12,6.13,72.12,4.36Zm3.17,0c0-1.4-.48-2.09-1.18-2.09S73,3,73,4.36s.48,2.11,1.16,2.11S75.29,5.76,75.29,4.36ZM79.22,1.6H80l-4.85,9.12h-.74Zm-1,6.33c0-1.76.8-2.76,2-2.76s2,1,2,2.76-.79,2.79-2,2.79S78.24,9.71,78.24,7.93Zm3.16,0c0-1.4-.48-2.08-1.16-2.08s-1.18.68-1.18,2.08S79.54,10,80.24,10,81.4,9.34,81.4,7.93Z" transform="translate(-0.55 -0.44)"/><path class="ab88c381-93fd-49e2-8201-1c3fd30a00b0" d="M84.42,12.6A11.17,11.17,0,0,0,86,6.83a11.22,11.22,0,0,0-1.53-5.77l.67-.31a11.08,11.08,0,0,1,1.78,6.08,11.11,11.11,0,0,1-1.78,6.09Z" transform="translate(-0.55 -0.44)"/><path class="fe93d1d9-3aba-4a4d-94cf-bb9fffc32476" d="M854.55,46H849.3V43.25h5.25V37.71h2.83v5.54h5.25V46h-5.25v5.53h-2.83Z" transform="translate(-0.55 -0.44)"/><path class="fe93d1d9-3aba-4a4d-94cf-bb9fffc32476" d="M884.2,50.18h-2.82v6.15H877V50.18H866.92V47l8.83-14.33h5.63v14h2.82ZM877,46.6V41.77c0-1.38.13-3.52.19-4.9h-.13c-.57,1.25-1.21,2.56-1.89,3.84L871.5,46.6Z" transform="translate(-0.55 -0.44)"/><path class="fe93d1d9-3aba-4a4d-94cf-bb9fffc32476" d="M887.72,52.52h5.09v-15h-4.29V34.63a15.11,15.11,0,0,0,5.5-2h3.49V52.52H902v3.81H887.72Z" transform="translate(-0.55 -0.44)"/><path class="fe93d1d9-3aba-4a4d-94cf-bb9fffc32476" d="M906.44,45c0-2.67,1.33-4.2,3.24-4.2s3.26,1.53,3.26,4.2-1.35,4.25-3.26,4.25S906.44,47.63,906.44,45Zm4.63,0c0-2-.62-2.7-1.39-2.7s-1.37.73-1.37,2.7.6,2.75,1.37,2.75S911.07,46.91,911.07,45Zm6.3-4.2h1.56l-7.25,13.83h-1.55Zm-1.25,9.58c0-2.68,1.36-4.21,3.25-4.21s3.25,1.53,3.25,4.21-1.36,4.25-3.25,4.25S916.12,53,916.12,50.33Zm4.63,0c0-2-.61-2.72-1.38-2.72s-1.39.76-1.39,2.72.61,2.74,1.39,2.74S920.75,52.29,920.75,50.33Z" transform="translate(-0.55 -0.44)"/><path class="bce5a213-a8e1-4c4b-93ae-2c8d2ceed584" d="M858.35,86.57v13.76h-2.06v-1h-7.13v1h-2V86.57Zm-9.19,1.92v3.44h7.13V88.49Zm7.13,8.91V93.82h-7.13V97.4Z" transform="translate(-0.55 -0.44)"/><path class="bce5a213-a8e1-4c4b-93ae-2c8d2ceed584" d="M871.81,90.65a13.56,13.56,0,0,0,4.52,5.79,8,8,0,0,0-1.52,1.67,11.48,11.48,0,0,1-1.7-1.65v1.39H869.8v2.71h-2V97.85H864.4V96.43a13.63,13.63,0,0,1-1.81,1.76,9.07,9.07,0,0,0-1.4-1.56,13.84,13.84,0,0,0,4.5-6h-3.94V88.71h6V85.62h2v3.09h6.06v1.94Zm-4,5.27V90.65h-.11a19.88,19.88,0,0,1-2.85,5.27Zm4.88,0a20,20,0,0,1-2.79-5.27h-.07v5.27Z" transform="translate(-0.55 -0.44)"/><path class="bce5a213-a8e1-4c4b-93ae-2c8d2ceed584" d="M891.47,88.38v8h-2v-.8h-3.63v5h-2v-5h-3.62v.88h-1.93V88.38h5.55V85.61h2v2.77Zm-7.66,5.31V90.25h-3.62v3.44Zm5.65,0V90.25h-3.63v3.44Z" transform="translate(-0.55 -0.44)"/><path class="bce5a213-a8e1-4c4b-93ae-2c8d2ceed584" d="M908.13,98.28V100H893.65V98.28h6.28V97h-4.66V95.27h4.65v-1h-1.19V91.19h-1.48a4.88,4.88,0,0,1-2.52,3.51,8.82,8.82,0,0,0-1.26-1.33,3.54,3.54,0,0,0,2-2.18h-1.62V89.51h1.81V87.83h-1.26V86.17h7.29v1.66h-1.14v1.68H902v1.68h-1.51V94h1.38v1.28h4.65V97h-4.65v1.28Zm-9.4-8.77V87.83h-1.35v1.68Zm5.72,2.42H902.7V86.52h1.75Zm3,.69c0,.88-.17,1.33-.78,1.6a6.75,6.75,0,0,1-2.52.3,7.54,7.54,0,0,0-.56-1.68c.72,0,1.49,0,1.73,0s.31-.07.31-.28v-6.8h1.82Z" transform="translate(-0.55 -0.44)"/><path class="bce5a213-a8e1-4c4b-93ae-2c8d2ceed584" d="M924,92.89a10.08,10.08,0,0,1-2.67,4.8,12.57,12.57,0,0,0,3.14,1.19,7.73,7.73,0,0,0-1.23,1.64,10.86,10.86,0,0,1-3.45-1.6,13.41,13.41,0,0,1-3.5,1.54,6.39,6.39,0,0,0-.95-1.58,1.38,1.38,0,0,1-.6,1.18,3.7,3.7,0,0,1-2,.35,6.86,6.86,0,0,0-.48-1.77h1.16c.17,0,.24-.06.24-.25V95.21c-.44.27-.84.54-1.24.79l-.47-1.16a19.91,19.91,0,0,1-1,5.72,7.26,7.26,0,0,0-1.53-.87c.84-2.19.88-5.39.88-7.71V86.17h5.07V91a3,3,0,0,0,1.94-3V86.18h5.4v3.51c0,.46,0,.64.22.64h.63a3.58,3.58,0,0,0,.79-.11c0,.46.08,1.08.14,1.52a3.19,3.19,0,0,1-.91.09h-.82c-1.53,0-1.84-.64-1.84-2.17V87.94H919v0a4.5,4.5,0,0,1-2.57,4.34,7.45,7.45,0,0,0-1.1-1.19v7.32a2.23,2.23,0,0,1,0,.37,11.6,11.6,0,0,0,3-1.14,11.36,11.36,0,0,1-2.06-3.12l.79-.24h-1.16V92.52h6.54l.35-.08ZM912,92c0,.66,0,1.41,0,2.18.48-.16,1-.37,1.67-.61V91.79l-.65.51a13.35,13.35,0,0,0-1-1.22Zm0-4.08v2l.45-.32c.39.37.82.8,1.18,1.21V87.88Zm6,6.42a7.55,7.55,0,0,0,1.76,2.27,7.36,7.36,0,0,0,1.73-2.27Z" transform="translate(-0.55 -0.44)"/><path class="bce5a213-a8e1-4c4b-93ae-2c8d2ceed584" d="M854.55,127.86H849.3v-2.7h5.25v-5.54h2.83v5.54h5.25v2.7h-5.25v5.54h-2.83Z" transform="translate(-0.55 -0.44)"/><path class="bce5a213-a8e1-4c4b-93ae-2c8d2ceed584" d="M867.62,135.52c6.43-5.76,10.24-10.21,10.24-13.86,0-2.4-1.31-3.84-3.55-3.84a6.12,6.12,0,0,0-4.35,2.43l-2.56-2.56c2.18-2.3,4.29-3.58,7.52-3.58,4.48,0,7.45,2.88,7.45,7.29s-3.55,8.9-7.87,13.12c1.19-.12,2.75-.25,3.84-.25h5.15v4H867.62Z" transform="translate(-0.55 -0.44)"/><path class="bce5a213-a8e1-4c4b-93ae-2c8d2ceed584" d="M887.72,134.43h5.09v-15h-4.29v-2.91a15.49,15.49,0,0,0,5.5-2h3.49v19.87H902v3.8H887.72Z" transform="translate(-0.55 -0.44)"/><path class="bce5a213-a8e1-4c4b-93ae-2c8d2ceed584" d="M906.44,126.85c0-2.66,1.33-4.19,3.24-4.19s3.26,1.53,3.26,4.19-1.35,4.25-3.26,4.25S906.44,129.54,906.44,126.85Zm4.63,0c0-2-.62-2.7-1.39-2.7s-1.37.74-1.37,2.7.6,2.76,1.37,2.76S911.07,128.82,911.07,126.85Zm6.3-4.19h1.56l-7.25,13.83h-1.55Zm-1.25,9.58c0-2.69,1.36-4.22,3.25-4.22s3.25,1.53,3.25,4.22-1.36,4.25-3.25,4.25S916.12,134.9,916.12,132.24Zm4.63,0c0-2-.61-2.72-1.38-2.72s-1.39.75-1.39,2.72.61,2.73,1.39,2.73S920.75,134.2,920.75,132.24Z" transform="translate(-0.55 -0.44)"/><path class="a23bec9a-f288-4c29-a8a5-dff26f997e69" d="M858.35,168.09v13.76h-2.06v-1h-7.13v1h-2V168.09ZM849.16,170v3.44h7.13V170Zm7.13,8.91v-3.58h-7.13v3.58Z" transform="translate(-0.55 -0.44)"/><path class="a23bec9a-f288-4c29-a8a5-dff26f997e69" d="M871.81,172.17a13.56,13.56,0,0,0,4.52,5.79,8,8,0,0,0-1.52,1.67,11.48,11.48,0,0,1-1.7-1.65v1.39H869.8v2.71h-2v-2.71H864.4V178a13.63,13.63,0,0,1-1.81,1.76,9.07,9.07,0,0,0-1.4-1.56,13.84,13.84,0,0,0,4.5-6h-3.94v-1.94h6v-3.09h2v3.09h6.06v1.94Zm-4,5.27v-5.27h-.11a19.88,19.88,0,0,1-2.85,5.27Zm4.88,0a20,20,0,0,1-2.79-5.27h-.07v5.27Z" transform="translate(-0.55 -0.44)"/><path class="a23bec9a-f288-4c29-a8a5-dff26f997e69" d="M881.85,171.37c-.55,2.38-1.42,5.36-2.75,7.12a15.29,15.29,0,0,0-1.87-1,15.47,15.47,0,0,0,2.43-6.5Zm4.09-4v12.34c0,1.17-.27,1.7-1,2a9.65,9.65,0,0,1-3.4.37,8.7,8.7,0,0,0-.76-2c1.05,0,2.23,0,2.59,0s.48-.11.48-.42V167.35Zm3.63,3.47a27.68,27.68,0,0,1,3,7.17l-2.08.82a27.76,27.76,0,0,0-2.82-7.28Z" transform="translate(-0.55 -0.44)"/><path class="a23bec9a-f288-4c29-a8a5-dff26f997e69" d="M908.13,179.8v1.76H893.65V179.8h6.28v-1.28h-4.66v-1.73h4.65v-1h-1.19v-3.08h-1.48a4.88,4.88,0,0,1-2.52,3.51,8.82,8.82,0,0,0-1.26-1.33,3.54,3.54,0,0,0,2-2.18h-1.62V171h1.81v-1.68h-1.26v-1.66h7.29v1.66h-1.14V171H902v1.68h-1.51v2.8h1.38v1.28h4.65v1.73h-4.65v1.28Zm-9.4-8.77v-1.68h-1.35V171Zm5.72,2.42H902.7V168h1.75Zm3,.69c0,.88-.17,1.33-.78,1.6a6.75,6.75,0,0,1-2.52.3,7.54,7.54,0,0,0-.56-1.68c.72,0,1.49,0,1.73,0s.31-.07.31-.28v-6.8h1.82Z" transform="translate(-0.55 -0.44)"/><path class="a23bec9a-f288-4c29-a8a5-dff26f997e69" d="M924,174.41a10.08,10.08,0,0,1-2.67,4.8,12.57,12.57,0,0,0,3.14,1.19,7.73,7.73,0,0,0-1.23,1.64,10.86,10.86,0,0,1-3.45-1.6,13.41,13.41,0,0,1-3.5,1.54,6.39,6.39,0,0,0-.95-1.58,1.38,1.38,0,0,1-.6,1.18,3.7,3.7,0,0,1-2,.35,6.86,6.86,0,0,0-.48-1.77h1.16c.17,0,.24-.06.24-.25v-3.19c-.44.27-.84.54-1.24.79l-.47-1.16a19.91,19.91,0,0,1-1,5.72,7.26,7.26,0,0,0-1.53-.87c.84-2.19.88-5.39.88-7.71v-5.81h5.07v4.78a3,3,0,0,0,1.94-3.05V167.7h5.4v3.51c0,.46,0,.64.22.64h.63a3.58,3.58,0,0,0,.79-.11c0,.46.08,1.08.14,1.52a3.19,3.19,0,0,1-.91.09h-.82c-1.53,0-1.84-.64-1.84-2.17v-1.72H919v0a4.5,4.5,0,0,1-2.57,4.34,7.45,7.45,0,0,0-1.1-1.19V180a2.23,2.23,0,0,1,0,.37,11.6,11.6,0,0,0,3-1.14,11.36,11.36,0,0,1-2.06-3.12l.79-.24h-1.16V174h6.54l.35-.08Zm-12-.93c0,.66,0,1.41,0,2.18.48-.16,1-.37,1.67-.61v-1.74l-.65.51a13.35,13.35,0,0,0-1-1.22Zm0-4.08v2l.45-.32c.39.37.82.8,1.18,1.21V169.4Zm6,6.42a7.55,7.55,0,0,0,1.76,2.27,7.36,7.36,0,0,0,1.73-2.27Z" transform="translate(-0.55 -0.44)"/><path class="a23bec9a-f288-4c29-a8a5-dff26f997e69" d="M854.55,209.38H849.3v-2.7h5.25v-5.54h2.83v5.54h5.25v2.7h-5.25v5.54h-2.83Z" transform="translate(-0.55 -0.44)"/><path class="a23bec9a-f288-4c29-a8a5-dff26f997e69" d="M868.87,216H874V201h-4.29v-2.91a15.49,15.49,0,0,0,5.5-2h3.49V216h4.45v3.8H868.87Z" transform="translate(-0.55 -0.44)"/><path class="a23bec9a-f288-4c29-a8a5-dff26f997e69" d="M886.6,213.87a6.9,6.9,0,0,1,4.06-6.18v-.16a6.74,6.74,0,0,1-3.13-5.63c0-3.81,3-6.24,7.13-6.24s6.88,2.53,6.88,6.3a6.89,6.89,0,0,1-3,5.41v.16a6.9,6.9,0,0,1,4,6.34c0,3.58-3.17,6.33-8,6.33C890,220.2,886.6,217.58,886.6,213.87Zm11.49-.16c0-2.47-2.18-3.49-5.25-4.74a5.72,5.72,0,0,0-2.18,4.39c0,2.14,1.76,3.52,4,3.52C896.61,216.88,898.09,215.75,898.09,213.71Zm-.39-11.46a3,3,0,0,0-3.13-3.29,2.75,2.75,0,0,0-2.88,2.94c0,2.24,1.82,3.33,4.32,4.32A5.68,5.68,0,0,0,897.7,202.25Z" transform="translate(-0.55 -0.44)"/><path class="a23bec9a-f288-4c29-a8a5-dff26f997e69" d="M906.44,208.37c0-2.66,1.33-4.19,3.24-4.19s3.26,1.53,3.26,4.19-1.35,4.25-3.26,4.25S906.44,211.06,906.44,208.37Zm4.63,0c0-2-.62-2.7-1.39-2.7s-1.37.74-1.37,2.7.6,2.76,1.37,2.76S911.07,210.34,911.07,208.37Zm6.3-4.19h1.56L911.68,218h-1.55Zm-1.25,9.58c0-2.69,1.36-4.22,3.25-4.22s3.25,1.53,3.25,4.22-1.36,4.25-3.25,4.25S916.12,216.42,916.12,213.76Zm4.63,0c0-2-.61-2.72-1.38-2.72s-1.39.75-1.39,2.72.61,2.73,1.39,2.73S920.75,215.72,920.75,213.76Z" transform="translate(-0.55 -0.44)"/><path class="f53f09e5-0205-4c65-899e-a80b63aab348" d="M14.4,349.51c2.3-2,3.36-3.47,3.36-4.73a1.29,1.29,0,0,0-1.35-1.45,2.05,2.05,0,0,0-1.52.85l-.53-.52a2.8,2.8,0,0,1,2.16-1.08,2,2,0,0,1,2.13,2.17c0,1.46-1.15,2.95-2.87,4.58.38,0,.83-.07,1.2-.07h2v.79H14.4Z" transform="translate(-0.55 -0.44)"/><path class="f53f09e5-0205-4c65-899e-a80b63aab348" d="M20,346.36c0-2.55.89-3.78,2.29-3.78s2.28,1.24,2.28,3.78-.89,3.82-2.28,3.82S20,348.91,20,346.36Zm3.68,0c0-2.14-.56-3-1.39-3s-1.4.9-1.4,3,.56,3.09,1.4,3.09S23.7,348.52,23.7,346.36Z" transform="translate(-0.55 -0.44)"/><path class="f53f09e5-0205-4c65-899e-a80b63aab348" d="M25.88,349.29h1.63v-5.47h-1.3v-.58a4.64,4.64,0,0,0,1.52-.52h.7v6.57H29.9v.76h-4Z" transform="translate(-0.55 -0.44)"/><path class="f53f09e5-0205-4c65-899e-a80b63aab348" d="M31,348.23a2.35,2.35,0,0,1,1.35-2v0a2,2,0,0,1-1-1.69,2,2,0,0,1,4,.07,2.4,2.4,0,0,1-1,1.77v.05a2.14,2.14,0,0,1,1.24,1.92,2,2,0,0,1-2.3,1.9A2.1,2.1,0,0,1,31,348.23Zm3.77,0c0-1-.9-1.35-1.94-1.77a2,2,0,0,0-1,1.66,1.41,1.41,0,0,0,1.53,1.35A1.27,1.27,0,0,0,34.79,348.26Zm-.17-3.67a1.22,1.22,0,0,0-1.25-1.31,1.13,1.13,0,0,0-1.16,1.19c0,.88.79,1.26,1.65,1.6A2,2,0,0,0,34.62,344.59Z" transform="translate(-0.55 -0.44)"/><path class="f53f09e5-0205-4c65-899e-a80b63aab348" d="M39.15,342.12h.66l-3,9.72h-.67Z" transform="translate(-0.55 -0.44)"/><path class="f53f09e5-0205-4c65-899e-a80b63aab348" d="M40.19,349.21l.45-.6a2.41,2.41,0,0,0,1.8.81A1.58,1.58,0,0,0,44,347.69,1.48,1.48,0,0,0,42.48,346a2,2,0,0,0-1.22.43l-.49-.3.23-3.43h3.57v.78H41.8l-.18,2.12a2.21,2.21,0,0,1,3.3,2,2.38,2.38,0,0,1-2.4,2.52A3.11,3.11,0,0,1,40.19,349.21Z" transform="translate(-0.55 -0.44)"/><path class="f53f09e5-0205-4c65-899e-a80b63aab348" d="M173.1,349.51c2.3-2,3.36-3.47,3.36-4.73a1.29,1.29,0,0,0-1.35-1.45,2.05,2.05,0,0,0-1.52.85l-.53-.52a2.8,2.8,0,0,1,2.16-1.08,2,2,0,0,1,2.13,2.17c0,1.46-1.15,2.95-2.87,4.58.38,0,.83-.07,1.2-.07h2v.79H173.1Z" transform="translate(-0.55 -0.44)"/><path class="f53f09e5-0205-4c65-899e-a80b63aab348" d="M178.72,346.36c0-2.55.89-3.78,2.29-3.78s2.28,1.24,2.28,3.78-.89,3.82-2.28,3.82S178.72,348.91,178.72,346.36Zm3.68,0c0-2.14-.56-3-1.39-3s-1.4.9-1.4,3,.56,3.09,1.4,3.09S182.4,348.52,182.4,346.36Z" transform="translate(-0.55 -0.44)"/><path class="f53f09e5-0205-4c65-899e-a80b63aab348" d="M184.58,349.29h1.63v-5.47h-1.3v-.58a4.64,4.64,0,0,0,1.52-.52h.7v6.57h1.47v.76h-4Z" transform="translate(-0.55 -0.44)"/><path class="f53f09e5-0205-4c65-899e-a80b63aab348" d="M190.35,348.86a1.65,1.65,0,0,0,1.23.56c.95,0,1.77-.78,1.84-3.06a2.26,2.26,0,0,1-1.69.91c-1.22,0-2-.79-2-2.31a2.2,2.2,0,0,1,2.1-2.38c1.41,0,2.46,1.16,2.46,3.49,0,3-1.28,4.11-2.66,4.11a2.33,2.33,0,0,1-1.76-.75Zm3.06-3.25c-.1-1.51-.66-2.31-1.6-2.31-.7,0-1.24.66-1.24,1.66s.44,1.63,1.31,1.63A1.94,1.94,0,0,0,193.41,345.61Z" transform="translate(-0.55 -0.44)"/><path class="f53f09e5-0205-4c65-899e-a80b63aab348" d="M197.85,342.12h.66l-3,9.72h-.67Z" transform="translate(-0.55 -0.44)"/><path class="f53f09e5-0205-4c65-899e-a80b63aab348" d="M198.89,349.21l.45-.6a2.41,2.41,0,0,0,1.8.81,1.58,1.58,0,0,0,1.56-1.73,1.48,1.48,0,0,0-1.52-1.67,2,2,0,0,0-1.22.43l-.49-.3.23-3.43h3.57v.78H200.5l-.18,2.12a2.21,2.21,0,0,1,3.3,2,2.38,2.38,0,0,1-2.4,2.52A3.11,3.11,0,0,1,198.89,349.21Z" transform="translate(-0.55 -0.44)"/><path class="f53f09e5-0205-4c65-899e-a80b63aab348" d="M331.8,349.51c2.3-2,3.36-3.47,3.36-4.73a1.29,1.29,0,0,0-1.35-1.45,2.05,2.05,0,0,0-1.52.85l-.53-.52a2.8,2.8,0,0,1,2.16-1.08,2,2,0,0,1,2.13,2.17c0,1.46-1.15,2.95-2.87,4.58.38,0,.83-.07,1.2-.07h2v.79H331.8Z" transform="translate(-0.55 -0.44)"/><path class="f53f09e5-0205-4c65-899e-a80b63aab348" d="M337.42,346.36c0-2.55.89-3.78,2.29-3.78s2.28,1.24,2.28,3.78-.89,3.82-2.28,3.82S337.42,348.91,337.42,346.36Zm3.68,0c0-2.14-.56-3-1.39-3s-1.4.9-1.4,3,.56,3.09,1.4,3.09S341.1,348.52,341.1,346.36Z" transform="translate(-0.55 -0.44)"/><path class="f53f09e5-0205-4c65-899e-a80b63aab348" d="M342.84,349.51c2.3-2,3.36-3.47,3.36-4.73a1.29,1.29,0,0,0-1.35-1.45,2.05,2.05,0,0,0-1.52.85l-.53-.52a2.8,2.8,0,0,1,2.16-1.08,2,2,0,0,1,2.13,2.17c0,1.46-1.15,2.95-2.87,4.58.38,0,.83-.07,1.2-.07h2v.79h-4.61Z" transform="translate(-0.55 -0.44)"/><path class="f53f09e5-0205-4c65-899e-a80b63aab348" d="M348.46,346.36c0-2.55.89-3.78,2.29-3.78s2.28,1.24,2.28,3.78-.89,3.82-2.28,3.82S348.46,348.91,348.46,346.36Zm3.68,0c0-2.14-.56-3-1.39-3s-1.4.9-1.4,3,.56,3.09,1.4,3.09S352.14,348.52,352.14,346.36Z" transform="translate(-0.55 -0.44)"/><path class="f53f09e5-0205-4c65-899e-a80b63aab348" d="M356.55,342.12h.66l-3,9.72h-.67Z" transform="translate(-0.55 -0.44)"/><path class="f53f09e5-0205-4c65-899e-a80b63aab348" d="M357.59,349.21l.45-.6a2.41,2.41,0,0,0,1.8.81,1.58,1.58,0,0,0,1.56-1.73,1.48,1.48,0,0,0-1.52-1.67,2,2,0,0,0-1.22.43l-.49-.3.23-3.43H362v.78H359.2l-.18,2.12a2.21,2.21,0,0,1,3.3,2,2.38,2.38,0,0,1-2.4,2.52A3.11,3.11,0,0,1,357.59,349.21Z" transform="translate(-0.55 -0.44)"/><path class="f53f09e5-0205-4c65-899e-a80b63aab348" d="M490.51,349.51c2.29-2,3.35-3.47,3.35-4.73a1.29,1.29,0,0,0-1.35-1.45,2,2,0,0,0-1.51.85l-.53-.52a2.78,2.78,0,0,1,2.15-1.08,2,2,0,0,1,2.13,2.17c0,1.46-1.15,2.95-2.87,4.58.38,0,.83-.07,1.2-.07h2v.79h-4.6Z" transform="translate(-0.55 -0.44)"/><path class="f53f09e5-0205-4c65-899e-a80b63aab348" d="M496.12,346.36c0-2.55.89-3.78,2.29-3.78s2.28,1.24,2.28,3.78-.89,3.82-2.28,3.82S496.12,348.91,496.12,346.36Zm3.68,0c0-2.14-.56-3-1.39-3s-1.4.9-1.4,3,.56,3.09,1.4,3.09S499.8,348.52,499.8,346.36Z" transform="translate(-0.55 -0.44)"/><path class="f53f09e5-0205-4c65-899e-a80b63aab348" d="M501.54,349.51c2.3-2,3.36-3.47,3.36-4.73a1.29,1.29,0,0,0-1.35-1.45,2,2,0,0,0-1.51.85l-.54-.52a2.8,2.8,0,0,1,2.16-1.08,2,2,0,0,1,2.13,2.17c0,1.46-1.15,2.95-2.87,4.58.38,0,.83-.07,1.2-.07h2v.79h-4.61Z" transform="translate(-0.55 -0.44)"/><path class="f53f09e5-0205-4c65-899e-a80b63aab348" d="M507.55,349.29h1.63v-5.47h-1.3v-.58a4.64,4.64,0,0,0,1.52-.52h.7v6.57h1.47v.76h-4Z" transform="translate(-0.55 -0.44)"/><path class="f53f09e5-0205-4c65-899e-a80b63aab348" d="M515.25,342.12h.66l-3,9.72h-.66Z" transform="translate(-0.55 -0.44)"/><path class="f53f09e5-0205-4c65-899e-a80b63aab348" d="M516.29,349.21l.45-.6a2.41,2.41,0,0,0,1.8.81,1.58,1.58,0,0,0,1.56-1.73,1.48,1.48,0,0,0-1.52-1.67,2,2,0,0,0-1.22.43l-.49-.3.23-3.43h3.57v.78H517.9l-.18,2.12a2.21,2.21,0,0,1,3.3,2,2.38,2.38,0,0,1-2.4,2.52A3.11,3.11,0,0,1,516.29,349.21Z" transform="translate(-0.55 -0.44)"/><path class="f53f09e5-0205-4c65-899e-a80b63aab348" d="M649.21,349.51c2.3-2,3.36-3.47,3.36-4.73a1.29,1.29,0,0,0-1.35-1.45,2.05,2.05,0,0,0-1.52.85l-.53-.52a2.8,2.8,0,0,1,2.16-1.08,2,2,0,0,1,2.13,2.17c0,1.46-1.15,2.95-2.87,4.58.38,0,.83-.07,1.2-.07h2v.79h-4.6Z" transform="translate(-0.55 -0.44)"/><path class="f53f09e5-0205-4c65-899e-a80b63aab348" d="M654.83,346.36c0-2.55.89-3.78,2.29-3.78s2.28,1.24,2.28,3.78-.89,3.82-2.28,3.82S654.83,348.91,654.83,346.36Zm3.68,0c0-2.14-.56-3-1.39-3s-1.4.9-1.4,3,.56,3.09,1.4,3.09S658.51,348.52,658.51,346.36Z" transform="translate(-0.55 -0.44)"/><path class="f53f09e5-0205-4c65-899e-a80b63aab348" d="M660.25,349.51c2.3-2,3.36-3.47,3.36-4.73a1.29,1.29,0,0,0-1.35-1.45,2.05,2.05,0,0,0-1.52.85l-.53-.52a2.8,2.8,0,0,1,2.16-1.08,2,2,0,0,1,2.13,2.17c0,1.46-1.15,2.95-2.87,4.58.38,0,.83-.07,1.2-.07h2v.79h-4.6Z" transform="translate(-0.55 -0.44)"/><path class="f53f09e5-0205-4c65-899e-a80b63aab348" d="M665.82,349.51c2.3-2,3.35-3.47,3.35-4.73a1.28,1.28,0,0,0-1.34-1.45,2.05,2.05,0,0,0-1.52.85l-.53-.52a2.8,2.8,0,0,1,2.16-1.08,2,2,0,0,1,2.12,2.17c0,1.46-1.14,2.95-2.86,4.58.38,0,.83-.07,1.2-.07h2v.79h-4.6Z" transform="translate(-0.55 -0.44)"/><path class="f53f09e5-0205-4c65-899e-a80b63aab348" d="M674,342.12h.66l-3,9.72H671Z" transform="translate(-0.55 -0.44)"/><path class="f53f09e5-0205-4c65-899e-a80b63aab348" d="M675,349.21l.45-.6a2.41,2.41,0,0,0,1.8.81,1.58,1.58,0,0,0,1.55-1.73,1.48,1.48,0,0,0-1.51-1.67,2,2,0,0,0-1.22.43l-.49-.3.23-3.43h3.56v.78h-2.76l-.18,2.12a2.2,2.2,0,0,1,3.29,2,2.38,2.38,0,0,1-2.39,2.52A3.11,3.11,0,0,1,675,349.21Z" transform="translate(-0.55 -0.44)"/><path class="f53f09e5-0205-4c65-899e-a80b63aab348" d="M807.91,349.51c2.3-2,3.36-3.47,3.36-4.73a1.29,1.29,0,0,0-1.35-1.45,2.05,2.05,0,0,0-1.52.85l-.53-.52a2.8,2.8,0,0,1,2.16-1.08,2,2,0,0,1,2.13,2.17c0,1.46-1.15,2.95-2.87,4.58.38,0,.83-.07,1.2-.07h2v.79h-4.61Z" transform="translate(-0.55 -0.44)"/><path class="f53f09e5-0205-4c65-899e-a80b63aab348" d="M813.53,346.36c0-2.55.89-3.78,2.29-3.78s2.28,1.24,2.28,3.78-.89,3.82-2.28,3.82S813.53,348.91,813.53,346.36Zm3.68,0c0-2.14-.56-3-1.39-3s-1.4.9-1.4,3,.56,3.09,1.4,3.09S817.21,348.52,817.21,346.36Z" transform="translate(-0.55 -0.44)"/><path class="f53f09e5-0205-4c65-899e-a80b63aab348" d="M819,349.51c2.3-2,3.36-3.47,3.36-4.73a1.29,1.29,0,0,0-1.35-1.45,2.05,2.05,0,0,0-1.52.85l-.53-.52a2.8,2.8,0,0,1,2.16-1.08,2,2,0,0,1,2.13,2.17c0,1.46-1.15,2.95-2.87,4.58.38,0,.83-.07,1.2-.07h2v.79H819Z" transform="translate(-0.55 -0.44)"/><path class="f53f09e5-0205-4c65-899e-a80b63aab348" d="M824.37,349.18l.46-.6a2.42,2.42,0,0,0,1.82.84,1.35,1.35,0,0,0,1.49-1.36c0-.88-.59-1.47-2.28-1.47v-.7c1.51,0,2-.61,2-1.4a1.15,1.15,0,0,0-1.24-1.18,2.29,2.29,0,0,0-1.52.73l-.49-.58a2.93,2.93,0,0,1,2.05-.88c1.23,0,2.13.66,2.13,1.84a1.83,1.83,0,0,1-1.31,1.77v0a1.88,1.88,0,0,1,1.56,1.86,2.13,2.13,0,0,1-2.35,2.09A3,3,0,0,1,824.37,349.18Z" transform="translate(-0.55 -0.44)"/><path class="f53f09e5-0205-4c65-899e-a80b63aab348" d="M832.66,342.12h.66l-3,9.72h-.67Z" transform="translate(-0.55 -0.44)"/><path class="f53f09e5-0205-4c65-899e-a80b63aab348" d="M833.7,349.21l.45-.6a2.41,2.41,0,0,0,1.8.81,1.58,1.58,0,0,0,1.56-1.73A1.48,1.48,0,0,0,836,346a2,2,0,0,0-1.22.43l-.49-.3.23-3.43h3.57v.78h-2.77l-.18,2.12a2.21,2.21,0,0,1,3.3,2,2.38,2.38,0,0,1-2.4,2.52A3.11,3.11,0,0,1,833.7,349.21Z" transform="translate(-0.55 -0.44)"/></g></g></svg>