<?xml version="1.0" encoding="utf-8"?>
<!-- Generator: Adobe Illustrator 23.0.1, SVG Export Plug-In . SVG Version: 6.00 Build 0)  -->
<svg version="1.1" id="圖層_1" xmlns="http://www.w3.org/2000/svg" xmlns:xlink="http://www.w3.org/1999/xlink" x="0px" y="0px"
	 viewBox="0 0 33 33" style="enable-background:new 0 0 33 33;" xml:space="preserve">
<style type="text/css">
	.st0{fill:#FFFFFF;}
</style>
<title>socialmedia</title>
<path class="st0" d="M29.8,1.5H3.2c-0.9,0-1.7,0.7-1.7,1.6c0,0,0,0,0,0v26.7c0,0.9,0.7,1.7,1.6,1.7c0,0,0,0,0,0h14.4V19.9h-3.9v-4.5
	h3.9V12c0-3.9,2.4-6,5.8-6c1.2,0,2.3,0.1,3.5,0.2v4h-2.4c-1.9,0-2.3,0.9-2.3,2.2v2.9h4.5l-0.6,4.5h-3.9v11.7h7.6
	c0.9,0,1.7-0.7,1.7-1.7l0,0V3.2C31.5,2.2,30.8,1.5,29.8,1.5C29.8,1.5,29.8,1.5,29.8,1.5z"/>
</svg>
