<svg id="bfee7222-f571-4e99-af12-096a5cba24d3" data-name="分離模式" xmlns="http://www.w3.org/2000/svg" viewBox="0 0 52.02 50.33"><defs><style>.ee16e255-c415-42fb-9de7-506b131d5bcb{fill:none;}.a6e8af0d-09a6-454f-bff8-05d271900abf,.ee16e255-c415-42fb-9de7-506b131d5bcb{stroke:#cb0016;stroke-linecap:round;stroke-miterlimit:10;stroke-width:1.5px;}.a6e8af0d-09a6-454f-bff8-05d271900abf{fill:#fff;}</style></defs><polyline class="ee16e255-c415-42fb-9de7-506b131d5bcb" points="31.77 29.6 51.18 34.47 51.18 34.88 41.42 42.23 12.14 34.88 12.14 34.47 21.9 27.12 29.87 29.12"/><polyline class="ee16e255-c415-42fb-9de7-506b131d5bcb" points="51.18 37.87 51.18 39.06 42.23 45.86 12.14 38.26 12.14 37.07"/><polyline class="ee16e255-c415-42fb-9de7-506b131d5bcb" points="51.27 42.17 51.27 43.36 43.05 49.52 12.16 41.77 12.16 40.58"/><polygon class="a6e8af0d-09a6-454f-bff8-05d271900abf" points="21.25 45.08 21.25 37.74 33.18 28.79 42.19 31.05 42.19 31.16 30.38 40.03 30.38 47 30.02 47.29 21.25 45.08"/><path class="ee16e255-c415-42fb-9de7-506b131d5bcb" d="M285.11,717.2c0,2-3.65,3.7-8.14,3.7s-8.13-1.66-8.13-3.7" transform="translate(-268.09 -695.77)"/><path class="ee16e255-c415-42fb-9de7-506b131d5bcb" d="M268.84,721.36v4c0,2,3.64,3.69,8.13,3.69h.84" transform="translate(-268.09 -695.77)"/><path class="ee16e255-c415-42fb-9de7-506b131d5bcb" d="M268.84,725.39v4c0,2,3.64,3.69,8.13,3.69h.82" transform="translate(-268.09 -695.77)"/><path class="ee16e255-c415-42fb-9de7-506b131d5bcb" d="M268.84,729.46v4c0,2,3.64,3.7,8.13,3.7h.82" transform="translate(-268.09 -695.77)"/><path class="ee16e255-c415-42fb-9de7-506b131d5bcb" d="M285.11,717.29v4c0,2-3.65,3.7-8.14,3.7s-8.13-1.66-8.13-3.7v-4c0-2,3.64-3.69,8.13-3.69s8.14,1.65,8.14,3.69" transform="translate(-268.09 -695.77)"/><path class="ee16e255-c415-42fb-9de7-506b131d5bcb" d="M279.41,704.19c0,2,3.64,3.69,8.14,3.69s8.13-1.65,8.13-3.69" transform="translate(-268.09 -695.77)"/><path class="ee16e255-c415-42fb-9de7-506b131d5bcb" d="M295.68,708.35v4c0,2-3.64,3.7-8.13,3.7h-.84" transform="translate(-268.09 -695.77)"/><path class="ee16e255-c415-42fb-9de7-506b131d5bcb" d="M295.68,712.38v4c0,2-3.64,3.7-8.13,3.7h-.82" transform="translate(-268.09 -695.77)"/><path class="ee16e255-c415-42fb-9de7-506b131d5bcb" d="M279.41,704.28" transform="translate(-268.09 -695.77)"/><path class="ee16e255-c415-42fb-9de7-506b131d5bcb" d="M279.41,704.28v4c0,2.05,3.64,3.7,8.14,3.7s8.13-1.65,8.13-3.7v-4" transform="translate(-268.09 -695.77)"/><line class="ee16e255-c415-42fb-9de7-506b131d5bcb" x1="27.59" y1="20.6" x2="27.59" y2="26.74"/><path class="ee16e255-c415-42fb-9de7-506b131d5bcb" d="M298.67,721.91c4.49,0,8.13-1.65,8.13-3.7" transform="translate(-268.09 -695.77)"/><line class="ee16e255-c415-42fb-9de7-506b131d5bcb" x1="38.71" y1="28.37" x2="38.71" y2="22.54"/><path class="ee16e255-c415-42fb-9de7-506b131d5bcb" d="M306.8,710.08c0,2-3.64,3.7-8.13,3.7h-.82" transform="translate(-268.09 -695.77)"/><path class="ee16e255-c415-42fb-9de7-506b131d5bcb" d="M297.88,717.83h.79c4.49,0,8.13-1.62,8.13-3.66v-4c0-2-3.64-3.69-8.13-3.69h-.82" transform="translate(-268.09 -695.77)"/><path class="ee16e255-c415-42fb-9de7-506b131d5bcb" d="M306.8,714.24v4c0,2-3.64,3.69-8.13,3.69h-.78" transform="translate(-268.09 -695.77)"/><line class="ee16e255-c415-42fb-9de7-506b131d5bcb" x1="38.71" y1="22.54" x2="38.71" y2="28.37"/><path class="ee16e255-c415-42fb-9de7-506b131d5bcb" d="M279.41,700.12c0,2,3.64,3.7,8.14,3.7s8.13-1.66,8.13-3.7" transform="translate(-268.09 -695.77)"/><path class="ee16e255-c415-42fb-9de7-506b131d5bcb" d="M279.41,700.21v4c0,2,3.64,3.69,8.14,3.69s8.13-1.65,8.13-3.69v-4c0-2-3.64-3.69-8.13-3.69s-8.14,1.65-8.14,3.69" transform="translate(-268.09 -695.77)"/></svg>