<?xml version="1.0" encoding="utf-8"?>
<!-- Generator: Adobe Illustrator 26.3.1, SVG Export Plug-In . SVG Version: 6.00 Build 0)  -->
<svg version="1.1" id="圖層_1" xmlns="http://www.w3.org/2000/svg" xmlns:xlink="http://www.w3.org/1999/xlink" x="0px" y="0px"
	 viewBox="0 0 335 400" style="enable-background:new 0 0 335 400;" xml:space="preserve">
<style type="text/css">
	.st0{fill:#FFFFFF;}
	.st1{fill:#1B7FED;}
	.st2{fill:#8894A0;}
	.st3{fill:#738293;}
	.st4{fill:#1C0D5B;}
	.st5{fill:#CCCCCC;}
	.st6{fill-rule:evenodd;clip-rule:evenodd;fill:#1B7FED;}
	.st7{fill-rule:evenodd;clip-rule:evenodd;fill:#8894A0;}
	.st8{fill:#B12233;}
	.st9{fill:#3C3B6D;}
</style>
<path class="st0" d="M315.6,0C326.2,0,335,8.6,335,19.3v361.4c0,10.6-8.7,19.3-19.4,19.3H19.4C8.8,400,0,391.4,0,380.7V19.3
	C0,8.7,8.7,0,19.4,0H315.6z"/>
<g>
	<polygon class="st1" points="41.6,277.3 62.1,277.3 62.1,343.8 41.6,343.8 41.6,277.3 	"/>
	<polygon class="st1" points="138.9,225.1 159.4,225.1 159.4,343.8 138.9,343.8 138.9,225.1 	"/>
	<polygon class="st1" points="236.1,143.5 256.6,143.5 256.6,343.8 236.1,343.8 236.1,143.5 	"/>
	<polygon class="st2" points="78.4,313.4 98.9,313.4 98.9,343.8 78.4,343.8 78.4,313.4 	"/>
	<polygon class="st2" points="175.7,288.8 196.2,288.8 196.2,343.8 175.7,343.8 175.7,288.8 	"/>
	<polygon class="st2" points="272.9,291.7 293.4,291.7 293.4,343.8 272.9,343.8 272.9,291.7 	"/>
	<g>
		<path class="st1" d="M35.1,259.1h1.7c0.8,0,1.4-0.2,1.8-0.6c0.4-0.4,0.6-1,0.6-1.6c0-0.7-0.2-1.2-0.6-1.5
			c-0.4-0.4-0.9-0.5-1.6-0.5c-0.6,0-1.1,0.2-1.5,0.5s-0.6,0.8-0.6,1.3h-3.2c0-0.8,0.2-1.6,0.7-2.3c0.5-0.7,1.1-1.2,1.9-1.6
			c0.8-0.4,1.7-0.6,2.7-0.6c1.7,0,3.1,0.4,4,1.2c1,0.8,1.5,1.9,1.5,3.4c0,0.7-0.2,1.4-0.7,2s-1,1.1-1.8,1.4c0.9,0.3,1.6,0.8,2,1.5
			c0.4,0.7,0.7,1.4,0.7,2.3c0,1.4-0.5,2.6-1.6,3.5c-1,0.9-2.4,1.3-4.2,1.3c-1.6,0-2.9-0.4-4-1.3c-1-0.9-1.5-2-1.5-3.4h3.2
			c0,0.6,0.2,1.1,0.7,1.5c0.5,0.4,1,0.6,1.7,0.6c0.8,0,1.4-0.2,1.8-0.6s0.7-0.9,0.7-1.6c0-1.6-0.9-2.4-2.7-2.4h-1.7V259.1z"/>
		<path class="st1" d="M55.9,261.9c0,2.2-0.5,4-1.4,5.1c-0.9,1.2-2.3,1.8-4.1,1.8c-1.8,0-3.1-0.6-4.1-1.7c-0.9-1.2-1.4-2.8-1.4-5v-3
			c0-2.3,0.5-4,1.4-5.2s2.3-1.8,4.1-1.8s3.1,0.6,4.1,1.7c0.9,1.2,1.4,2.8,1.4,5V261.9z M52.7,258.6c0-1.3-0.2-2.3-0.6-2.9
			c-0.4-0.6-0.9-0.9-1.7-0.9c-0.8,0-1.3,0.3-1.7,0.9c-0.4,0.6-0.6,1.5-0.6,2.7v3.9c0,1.3,0.2,2.3,0.5,2.9c0.4,0.6,0.9,1,1.7,1
			c0.8,0,1.4-0.3,1.7-0.9c0.3-0.6,0.5-1.6,0.5-2.8V258.6z"/>
		<path class="st1" d="M58.5,267c0-0.5,0.2-0.9,0.5-1.2c0.3-0.3,0.8-0.5,1.3-0.5c0.5,0,1,0.2,1.3,0.5c0.3,0.3,0.5,0.7,0.5,1.2
			c0,0.5-0.2,0.9-0.5,1.2s-0.8,0.5-1.3,0.5c-0.5,0-1-0.2-1.3-0.5C58.7,268,58.5,267.5,58.5,267z"/>
		<path class="st1" d="M72.3,258.5l-4.4,10.1h-2.4l4.4-9.5h-5.6v-1.8h8V258.5z"/>
	</g>
	<g>
		<path class="st1" d="M123.9,208.5l0.9-8.2h9.1v2.7h-6.4l-0.4,3.5c0.8-0.4,1.6-0.6,2.4-0.6c1.5,0,2.8,0.5,3.6,1.4s1.3,2.3,1.3,4
			c0,1-0.2,2-0.7,2.8s-1.1,1.5-1.9,1.9c-0.8,0.5-1.8,0.7-2.9,0.7c-1,0-1.9-0.2-2.7-0.6c-0.8-0.4-1.5-1-2-1.7
			c-0.5-0.7-0.7-1.5-0.8-2.5h3.2c0.1,0.7,0.3,1.2,0.7,1.6c0.4,0.4,0.9,0.6,1.6,0.6c0.7,0,1.3-0.3,1.7-0.8c0.4-0.5,0.6-1.3,0.6-2.2
			c0-0.9-0.2-1.6-0.7-2.1c-0.5-0.5-1.1-0.7-1.9-0.7c-0.8,0-1.4,0.2-1.9,0.6l-0.3,0.3L123.9,208.5z"/>
		<path class="st1" d="M146.1,210.4h1.8v2.6h-1.8v3.5h-3.2V213h-6.6l-0.1-2l6.8-10.7h3.2V210.4z M139.3,210.4h3.6v-5.7l-0.2,0.4
			L139.3,210.4z"/>
		<path class="st1" d="M150,214.9c0-0.5,0.2-0.9,0.5-1.2c0.3-0.3,0.8-0.5,1.3-0.5c0.5,0,1,0.2,1.3,0.5c0.3,0.3,0.5,0.7,0.5,1.2
			c0,0.5-0.2,0.9-0.5,1.2s-0.8,0.5-1.3,0.5c-0.5,0-1-0.2-1.3-0.5C150.2,215.8,150,215.4,150,214.9z"/>
		<path class="st1" d="M163.8,206.4l-4.4,10.1H157l4.4-9.5h-5.6v-1.8h8V206.4z"/>
		<path class="st1" d="M170.6,211.9c-0.6,0.6-1.3,0.9-2.1,0.9c-1,0-1.8-0.3-2.4-1c-0.6-0.7-0.9-1.6-0.9-2.8c0-0.7,0.2-1.4,0.5-2
			c0.3-0.6,0.8-1.1,1.4-1.4c0.6-0.3,1.2-0.5,2-0.5c0.7,0,1.4,0.2,2,0.6c0.6,0.4,1,0.9,1.4,1.6c0.3,0.7,0.5,1.5,0.5,2.4v0.8
			c0,1.9-0.5,3.4-1.4,4.5c-0.9,1.1-2.3,1.7-4,1.7l-0.6,0v-1.9l0.5,0C169.3,214.6,170.4,213.7,170.6,211.9z M169,211.1
			c0.4,0,0.7-0.1,0.9-0.3c0.3-0.2,0.5-0.4,0.6-0.7v-0.9c0-0.8-0.1-1.4-0.4-1.8c-0.3-0.4-0.7-0.6-1.2-0.6c-0.5,0-0.8,0.2-1.1,0.6
			c-0.3,0.4-0.4,0.9-0.4,1.6c0,0.6,0.1,1.1,0.4,1.5C168.1,210.9,168.5,211.1,169,211.1z"/>
	</g>
	<g>
		<path class="st1" d="M232.8,128.4c-0.8,0.8-1.8,1.2-2.9,1.2c-1.4,0-2.6-0.5-3.4-1.5c-0.9-1-1.3-2.3-1.3-4c0-1.1,0.2-2,0.7-2.9
			c0.5-0.9,1.1-1.6,1.9-2.1c0.8-0.5,1.8-0.7,2.8-0.7c1.1,0,2,0.3,2.8,0.8s1.5,1.3,1.9,2.3c0.5,1,0.7,2.1,0.7,3.4v1.2
			c0,2.7-0.7,4.8-2,6.4s-3.2,2.4-5.7,2.5l-0.8,0v-2.7l0.7,0C231,132.2,232.5,130.9,232.8,128.4z M230.6,127.1c0.5,0,1-0.1,1.3-0.4
			c0.4-0.3,0.7-0.6,0.9-1v-1.3c0-1.1-0.2-1.9-0.6-2.5c-0.4-0.6-1-0.9-1.7-0.9c-0.6,0-1.2,0.3-1.6,0.9c-0.4,0.6-0.6,1.3-0.6,2.2
			c0,0.9,0.2,1.6,0.6,2.2C229.3,126.9,229.9,127.1,230.6,127.1z"/>
		<path class="st1" d="M249.5,134.8h-11.1v-2.2l5.2-5.6c0.7-0.8,1.3-1.5,1.6-2.1s0.5-1.1,0.5-1.7c0-0.7-0.2-1.3-0.5-1.7
			c-0.4-0.4-0.9-0.6-1.6-0.6c-0.7,0-1.3,0.3-1.7,0.8c-0.4,0.5-0.6,1.2-0.6,2h-3.2c0-1,0.2-1.9,0.7-2.7s1.1-1.5,2-1.9
			c0.9-0.5,1.8-0.7,2.9-0.7c1.7,0,3,0.4,3.9,1.2c0.9,0.8,1.4,1.9,1.4,3.4c0,0.8-0.2,1.6-0.6,2.4c-0.4,0.8-1.1,1.8-2.1,2.9l-3.7,3.9
			h7V134.8z"/>
		<path class="st1" d="M251.9,133.3c0-0.5,0.2-0.9,0.5-1.2c0.3-0.3,0.8-0.5,1.3-0.5c0.5,0,1,0.2,1.3,0.5s0.5,0.7,0.5,1.2
			c0,0.5-0.2,0.9-0.5,1.2c-0.3,0.3-0.8,0.5-1.3,0.5c-0.5,0-1-0.2-1.3-0.5C252,134.2,251.9,133.8,251.9,133.3z"/>
		<path class="st1" d="M258.2,129.3l0.7-5.8h6.4v1.9h-4.5l-0.3,2.4c0.5-0.3,1.1-0.4,1.7-0.4c1.1,0,1.9,0.3,2.5,1
			c0.6,0.7,0.9,1.6,0.9,2.8c0,0.7-0.2,1.4-0.5,2c-0.3,0.6-0.8,1-1.3,1.3c-0.6,0.3-1.3,0.5-2,0.5c-0.7,0-1.3-0.1-1.9-0.4
			c-0.6-0.3-1.1-0.7-1.4-1.2c-0.3-0.5-0.5-1.1-0.5-1.7h2.2c0,0.5,0.2,0.8,0.5,1.1s0.7,0.4,1.1,0.4c0.5,0,0.9-0.2,1.2-0.5
			c0.3-0.4,0.4-0.9,0.4-1.6c0-0.6-0.2-1.1-0.5-1.5c-0.3-0.3-0.8-0.5-1.3-0.5c-0.5,0-1,0.1-1.3,0.4l-0.2,0.2L258.2,129.3z"/>
	</g>
	<g>
		<path class="st3" d="M75.5,304.7h-3.2v-12.4l-3.8,1.2v-2.6l6.7-2.4h0.3V304.7z"/>
		<path class="st3" d="M89.9,298.6h1.8v2.6h-1.8v3.5h-3.2v-3.5h-6.6l-0.1-2l6.8-10.7h3.2V298.6z M83.1,298.6h3.6v-5.7l-0.2,0.4
			L83.1,298.6z"/>
		<path class="st3" d="M93.9,303.1c0-0.5,0.2-0.9,0.5-1.2c0.3-0.3,0.8-0.5,1.3-0.5c0.5,0,1,0.2,1.3,0.5c0.3,0.3,0.5,0.7,0.5,1.2
			c0,0.5-0.2,0.9-0.5,1.2s-0.8,0.5-1.3,0.5c-0.5,0-1-0.2-1.3-0.5C94.1,304,93.9,303.6,93.9,303.1z"/>
		<path class="st3" d="M107.6,300c0,1.6-0.3,2.8-1,3.6c-0.6,0.8-1.6,1.2-2.9,1.2c-1.2,0-2.2-0.4-2.8-1.2c-0.7-0.8-1-2-1-3.5V298
			c0-1.6,0.3-2.8,1-3.6c0.7-0.8,1.6-1.2,2.8-1.2s2.2,0.4,2.8,1.2c0.7,0.8,1,2,1,3.5V300z M105.3,297.7c0-0.9-0.1-1.6-0.4-2.1
			c-0.3-0.4-0.7-0.6-1.2-0.6c-0.5,0-0.9,0.2-1.2,0.6c-0.3,0.4-0.4,1-0.4,1.9v2.8c0,0.9,0.1,1.6,0.4,2.1c0.3,0.4,0.7,0.7,1.2,0.7
			c0.6,0,0.9-0.2,1.2-0.6c0.2-0.4,0.4-1.1,0.4-2V297.7z"/>
		<path class="st3" d="M115.8,300.4h1.3v1.8h-1.3v2.5h-2.3v-2.5h-4.6l-0.1-1.4l4.7-7.5h2.3V300.4z M111,300.4h2.5v-4l-0.1,0.3
			L111,300.4z"/>
	</g>
	<g>
		<path class="st3" d="M176.3,280.1h-11.1v-2.2l5.2-5.6c0.7-0.8,1.3-1.5,1.6-2.1s0.5-1.1,0.5-1.7c0-0.7-0.2-1.3-0.5-1.7
			c-0.4-0.4-0.9-0.6-1.6-0.6c-0.7,0-1.3,0.2-1.7,0.8c-0.4,0.5-0.6,1.2-0.6,2h-3.2c0-1,0.2-1.9,0.7-2.7c0.5-0.8,1.1-1.5,2-1.9
			c0.9-0.5,1.8-0.7,2.9-0.7c1.7,0,3,0.4,3.9,1.2c0.9,0.8,1.4,1.9,1.4,3.4c0,0.8-0.2,1.6-0.6,2.4c-0.4,0.8-1.1,1.8-2.1,2.9l-3.7,3.9
			h7V280.1z"/>
		<path class="st3" d="M178.4,272.2l0.9-8.2h9.1v2.7H182l-0.4,3.5c0.8-0.4,1.6-0.6,2.4-0.6c1.5,0,2.8,0.5,3.6,1.4
			c0.9,1,1.3,2.3,1.3,4c0,1-0.2,2-0.7,2.8s-1.1,1.5-1.9,1.9c-0.8,0.5-1.8,0.7-2.9,0.7c-1,0-1.9-0.2-2.7-0.6c-0.8-0.4-1.5-1-2-1.7
			c-0.5-0.7-0.7-1.5-0.8-2.5h3.2c0.1,0.7,0.3,1.2,0.7,1.6c0.4,0.4,0.9,0.6,1.6,0.6c0.7,0,1.3-0.3,1.7-0.8c0.4-0.5,0.6-1.3,0.6-2.2
			c0-0.9-0.2-1.6-0.7-2.1c-0.5-0.5-1.1-0.7-1.9-0.7c-0.8,0-1.4,0.2-1.9,0.6l-0.3,0.3L178.4,272.2z"/>
		<path class="st3" d="M190.9,278.5c0-0.5,0.2-0.9,0.5-1.2c0.3-0.3,0.8-0.5,1.3-0.5c0.5,0,1,0.2,1.3,0.5c0.3,0.3,0.5,0.7,0.5,1.2
			c0,0.5-0.2,0.9-0.5,1.2c-0.3,0.3-0.8,0.5-1.3,0.5c-0.5,0-1-0.2-1.3-0.5C191.1,279.5,190.9,279,190.9,278.5z"/>
		<path class="st3" d="M199.3,273.5h1.2c0.6,0,1-0.1,1.3-0.4c0.3-0.3,0.4-0.7,0.4-1.1c0-0.5-0.1-0.8-0.4-1.1
			c-0.3-0.3-0.6-0.4-1.1-0.4c-0.4,0-0.8,0.1-1.1,0.4s-0.4,0.5-0.4,0.9h-2.3c0-0.6,0.2-1.1,0.5-1.6c0.3-0.5,0.8-0.8,1.3-1.1
			c0.6-0.3,1.2-0.4,1.9-0.4c1.2,0,2.1,0.3,2.8,0.9c0.7,0.6,1,1.4,1,2.4c0,0.5-0.2,1-0.5,1.4c-0.3,0.4-0.7,0.8-1.2,1
			c0.6,0.2,1.1,0.6,1.4,1s0.5,1,0.5,1.6c0,1-0.4,1.8-1.1,2.4c-0.7,0.6-1.7,0.9-2.9,0.9c-1.1,0-2.1-0.3-2.8-0.9
			c-0.7-0.6-1.1-1.4-1.1-2.4h2.3c0,0.4,0.2,0.8,0.5,1c0.3,0.3,0.7,0.4,1.2,0.4c0.5,0,1-0.1,1.3-0.4c0.3-0.3,0.5-0.7,0.5-1.1
			c0-1.1-0.6-1.7-1.9-1.7h-1.2V273.5z"/>
		<path class="st3" d="M211.5,275.6c-0.6,0.6-1.3,0.9-2.1,0.9c-1,0-1.8-0.3-2.4-1c-0.6-0.7-0.9-1.6-0.9-2.8c0-0.7,0.2-1.4,0.5-2
			c0.3-0.6,0.8-1.1,1.4-1.4c0.6-0.3,1.2-0.5,2-0.5c0.7,0,1.4,0.2,2,0.6c0.6,0.4,1,0.9,1.4,1.6c0.3,0.7,0.5,1.5,0.5,2.4v0.8
			c0,1.9-0.5,3.4-1.4,4.5c-0.9,1.1-2.3,1.7-4,1.7l-0.6,0v-1.9l0.5,0C210.2,278.3,211.3,277.3,211.5,275.6z M210,274.7
			c0.4,0,0.7-0.1,0.9-0.3c0.3-0.2,0.5-0.4,0.6-0.7v-0.9c0-0.8-0.1-1.4-0.4-1.8c-0.3-0.4-0.7-0.6-1.2-0.6c-0.5,0-0.8,0.2-1.1,0.6
			c-0.3,0.4-0.4,0.9-0.4,1.6c0,0.6,0.1,1.1,0.4,1.5C209.1,274.5,209.4,274.7,210,274.7z"/>
	</g>
	<g>
		<path class="st3" d="M273.3,283h-11.1v-2.2l5.2-5.6c0.7-0.8,1.3-1.5,1.6-2.1s0.5-1.1,0.5-1.7c0-0.7-0.2-1.3-0.5-1.7
			c-0.4-0.4-0.9-0.6-1.6-0.6c-0.7,0-1.3,0.2-1.7,0.8c-0.4,0.5-0.6,1.2-0.6,2h-3.2c0-1,0.2-1.9,0.7-2.7c0.5-0.8,1.1-1.5,2-1.9
			c0.9-0.5,1.8-0.7,2.9-0.7c1.7,0,3,0.4,3.9,1.2c0.9,0.8,1.4,1.9,1.4,3.4c0,0.8-0.2,1.6-0.6,2.4c-0.4,0.8-1.1,1.8-2.1,2.9l-3.7,3.9
			h7V283z"/>
		<path class="st3" d="M284.4,276.9h1.8v2.6h-1.8v3.5h-3.2v-3.5h-6.6l-0.1-2l6.8-10.7h3.2V276.9z M277.6,276.9h3.6v-5.7l-0.2,0.4
			L277.6,276.9z"/>
		<path class="st3" d="M288.4,281.4c0-0.5,0.2-0.9,0.5-1.2c0.3-0.3,0.8-0.5,1.3-0.5c0.5,0,1,0.2,1.3,0.5c0.3,0.3,0.5,0.7,0.5,1.2
			c0,0.5-0.2,0.9-0.5,1.2c-0.3,0.3-0.8,0.5-1.3,0.5c-0.5,0-1-0.2-1.3-0.5C288.6,282.3,288.4,281.9,288.4,281.4z"/>
		<path class="st3" d="M302.1,278.3c0,1.6-0.3,2.8-1,3.6c-0.6,0.8-1.6,1.2-2.9,1.2c-1.2,0-2.2-0.4-2.8-1.2c-0.7-0.8-1-2-1-3.5v-2.1
			c0-1.6,0.3-2.8,1-3.6c0.7-0.8,1.6-1.2,2.8-1.2s2.2,0.4,2.8,1.2c0.7,0.8,1,2,1,3.5V278.3z M299.8,276c0-0.9-0.1-1.6-0.4-2.1
			c-0.3-0.4-0.7-0.6-1.2-0.6c-0.5,0-0.9,0.2-1.2,0.6c-0.3,0.4-0.4,1-0.4,1.9v2.8c0,0.9,0.1,1.6,0.4,2.1c0.3,0.4,0.7,0.7,1.2,0.7
			c0.6,0,0.9-0.2,1.2-0.6c0.2-0.4,0.4-1.1,0.4-2V276z"/>
		<path class="st3" d="M304,277.4l0.7-5.8h6.4v1.9h-4.5l-0.3,2.4c0.5-0.3,1.1-0.4,1.7-0.4c1.1,0,1.9,0.3,2.5,1
			c0.6,0.7,0.9,1.6,0.9,2.8c0,0.7-0.2,1.4-0.5,2c-0.3,0.6-0.8,1-1.3,1.3c-0.6,0.3-1.3,0.5-2,0.5c-0.7,0-1.3-0.1-1.9-0.4
			c-0.6-0.3-1.1-0.7-1.4-1.2c-0.3-0.5-0.5-1.1-0.5-1.7h2.2c0,0.5,0.2,0.8,0.5,1.1c0.3,0.3,0.7,0.4,1.1,0.4c0.5,0,0.9-0.2,1.2-0.5
			s0.4-0.9,0.4-1.6c0-0.6-0.2-1.1-0.5-1.5c-0.3-0.3-0.8-0.5-1.3-0.5c-0.5,0-1,0.1-1.3,0.4l-0.2,0.2L304,277.4z"/>
	</g>
	<g>
		<g>
			<path class="st4" d="M54.5,373.6h-1.4V364l-2.9,1.1v-1.3l4.1-1.5h0.2V373.6z"/>
			<path class="st4" d="M74.6,371.2h-5.8v3.7h-1.2v-3.7h-7.4v-1.1h2.6v-4.3h4.8v-2.4h-3.9c-0.7,1.2-1.6,2.3-2.4,3.1
				c-0.2-0.2-0.7-0.6-1-0.7c1.5-1.3,2.8-3.4,3.6-5.5l1.2,0.3c-0.2,0.6-0.5,1.1-0.7,1.7h9.5v1.1h-5v2.4h4.7v1.1h-4.7v3.2h5.8V371.2z
				 M67.6,370.1v-3.2H64v3.2H67.6z"/>
			<path class="st4" d="M80.7,363.9c-0.4,0.7-0.9,1.5-1.4,2.2v8.8h-1.1v-7.4c-0.5,0.6-1,1.1-1.5,1.5c-0.1-0.2-0.5-0.8-0.7-1
				c1.4-1.1,2.8-2.7,3.7-4.4L80.7,363.9z M80.4,360.7c-0.9,1.3-2.3,2.8-3.6,3.8c-0.1-0.2-0.5-0.6-0.6-0.9c1.2-0.8,2.5-2.2,3.1-3.3
				L80.4,360.7z M89.2,368.8c-0.7,1.5-1.7,2.7-3,3.7c1.3,0.6,2.7,1.1,4.2,1.4c-0.3,0.3-0.6,0.7-0.7,1c-1.7-0.4-3.2-1-4.5-1.7
				c-1.4,0.8-3,1.4-4.7,1.8c-0.1-0.3-0.4-0.8-0.6-1c1.5-0.3,2.9-0.7,4.2-1.4c-0.6-0.5-1.3-1-1.8-1.6c-0.4,0.4-0.8,0.7-1.3,1.1
				c-0.2-0.2-0.6-0.7-0.8-0.9c0.5-0.3,0.9-0.7,1.4-1.1c-0.3-0.4-0.5-0.8-0.8-1.2l1-0.3c0.2,0.3,0.3,0.6,0.5,0.8
				c0.6-0.6,1.1-1.3,1.5-2c-2.3,0.1-2.7,0.2-3,0.3c0-0.2-0.2-0.8-0.4-1.1c0.5-0.1,1-0.3,1.8-0.8c0.4-0.2,1.1-0.7,2-1.2
				c-2.4,0.1-2.8,0.2-3,0.3c0-0.3-0.2-0.8-0.4-1.1c0.3,0,0.6-0.3,1.1-0.6c0.4-0.3,1.8-1.5,2.8-2.6l1.2,0.5c-1,1-2,1.9-3,2.6l2.8-0.1
				c0.7-0.5,1.5-1.1,2.1-1.7l1.1,0.6c-1.9,1.5-3.8,2.9-5.8,3.9l5-0.3c-0.4-0.5-0.7-0.9-1.1-1.3l0.9-0.5c0.9,1.1,2.1,2.5,2.6,3.4
				l-1,0.6c-0.2-0.4-0.5-0.8-0.8-1.3l-3.5,0.2c-0.2,0.4-0.5,0.9-0.8,1.3h3.9l0.2,0L89.2,368.8z M83.7,369.5
				c-0.2,0.2-0.4,0.5-0.6,0.7c0.6,0.7,1.3,1.2,2.1,1.7c1-0.7,1.8-1.5,2.4-2.4H83.7z"/>
		</g>
	</g>
	<g>
		<g>
			<path class="st4" d="M154.6,373.6h-7.4v-1l3.9-4.4c0.6-0.7,1-1.2,1.2-1.6c0.2-0.4,0.3-0.8,0.3-1.3c0-0.6-0.2-1.1-0.5-1.5
				s-0.8-0.6-1.4-0.6c-0.7,0-1.3,0.2-1.7,0.6c-0.4,0.4-0.6,1-0.6,1.7H147c0-1,0.3-1.9,1-2.5c0.7-0.6,1.6-1,2.7-1
				c1.1,0,1.9,0.3,2.5,0.8c0.6,0.6,0.9,1.3,0.9,2.2c0,1.1-0.7,2.4-2.1,4l-3,3.3h5.7V373.6z"/>
			<path class="st4" d="M172,371.2h-5.8v3.7H165v-3.7h-7.4v-1.1h2.6v-4.3h4.8v-2.4h-3.9c-0.7,1.2-1.6,2.3-2.4,3.1
				c-0.2-0.2-0.7-0.6-1-0.7c1.5-1.3,2.8-3.4,3.6-5.5l1.2,0.3c-0.2,0.6-0.5,1.1-0.7,1.7h9.5v1.1h-5v2.4h4.7v1.1h-4.7v3.2h5.8V371.2z
				 M165,370.1v-3.2h-3.6v3.2H165z"/>
			<path class="st4" d="M178.1,363.9c-0.4,0.7-0.9,1.5-1.4,2.2v8.8h-1.1v-7.4c-0.5,0.6-1,1.1-1.5,1.5c-0.1-0.2-0.5-0.8-0.7-1
				c1.4-1.1,2.8-2.7,3.7-4.4L178.1,363.9z M177.8,360.7c-0.9,1.3-2.3,2.8-3.6,3.8c-0.1-0.2-0.5-0.6-0.6-0.9c1.2-0.8,2.5-2.2,3.1-3.3
				L177.8,360.7z M186.6,368.8c-0.7,1.5-1.7,2.7-3,3.7c1.3,0.6,2.7,1.1,4.2,1.4c-0.3,0.3-0.6,0.7-0.7,1c-1.7-0.4-3.2-1-4.5-1.7
				c-1.4,0.8-3,1.4-4.7,1.8c-0.1-0.3-0.4-0.8-0.6-1c1.5-0.3,2.9-0.7,4.2-1.4c-0.6-0.5-1.3-1-1.8-1.6c-0.4,0.4-0.8,0.7-1.3,1.1
				c-0.2-0.2-0.6-0.7-0.8-0.9c0.5-0.3,0.9-0.7,1.4-1.1c-0.3-0.4-0.5-0.8-0.8-1.2l1-0.3c0.2,0.3,0.3,0.6,0.5,0.8
				c0.6-0.6,1.1-1.3,1.5-2c-2.3,0.1-2.7,0.2-3,0.3c0-0.2-0.2-0.8-0.4-1.1c0.5-0.1,1-0.3,1.8-0.8c0.4-0.2,1.1-0.7,2-1.2
				c-2.4,0.1-2.8,0.2-3,0.3c0-0.3-0.2-0.8-0.4-1.1c0.3,0,0.6-0.3,1.1-0.6c0.4-0.3,1.8-1.5,2.8-2.6l1.2,0.5c-1,1-2,1.9-3,2.6l2.8-0.1
				c0.7-0.5,1.5-1.1,2.1-1.7l1.1,0.6c-1.9,1.5-3.8,2.9-5.8,3.9l5-0.3c-0.4-0.5-0.7-0.9-1.1-1.3l0.9-0.5c0.9,1.1,2.1,2.5,2.6,3.4
				l-1,0.6c-0.2-0.4-0.5-0.8-0.8-1.3l-3.5,0.2c-0.2,0.4-0.5,0.9-0.8,1.3h3.9l0.2,0L186.6,368.8z M181.1,369.5
				c-0.2,0.2-0.4,0.5-0.6,0.7c0.6,0.7,1.3,1.2,2.1,1.7c1-0.7,1.8-1.5,2.4-2.4H181.1z"/>
		</g>
	</g>
	<g>
		<g>
			<path class="st4" d="M246.9,367.3h1.1c0.7,0,1.2-0.2,1.6-0.5c0.4-0.3,0.6-0.8,0.6-1.4c0-1.3-0.7-2-2-2c-0.6,0-1.1,0.2-1.5,0.5
				s-0.6,0.8-0.6,1.4h-1.4c0-0.9,0.3-1.6,1-2.2c0.7-0.6,1.5-0.9,2.5-0.9c1.1,0,1.9,0.3,2.5,0.8c0.6,0.6,0.9,1.4,0.9,2.4
				c0,0.5-0.2,1-0.5,1.4s-0.8,0.8-1.3,1c0.6,0.2,1.1,0.5,1.4,1c0.3,0.5,0.5,1,0.5,1.7c0,1-0.3,1.8-1,2.4c-0.7,0.6-1.5,0.9-2.6,0.9
				s-1.9-0.3-2.6-0.9c-0.7-0.6-1-1.3-1-2.3h1.4c0,0.6,0.2,1.1,0.6,1.4c0.4,0.4,0.9,0.5,1.6,0.5c0.7,0,1.2-0.2,1.6-0.5
				c0.4-0.4,0.6-0.9,0.6-1.6c0-0.7-0.2-1.2-0.6-1.5c-0.4-0.4-1-0.5-1.8-0.5h-1.1V367.3z"/>
			<path class="st4" d="M269.5,371.2h-5.8v3.7h-1.2v-3.7h-7.4v-1.1h2.6v-4.3h4.8v-2.4h-3.9c-0.7,1.2-1.6,2.3-2.4,3.1
				c-0.2-0.2-0.7-0.6-1-0.7c1.5-1.3,2.8-3.4,3.6-5.5l1.2,0.3c-0.2,0.6-0.5,1.1-0.7,1.7h9.5v1.1h-5v2.4h4.7v1.1h-4.7v3.2h5.8V371.2z
				 M262.6,370.1v-3.2H259v3.2H262.6z"/>
			<path class="st4" d="M275.7,363.9c-0.4,0.7-0.9,1.5-1.4,2.2v8.8h-1.1v-7.4c-0.5,0.6-1,1.1-1.5,1.5c-0.1-0.2-0.5-0.8-0.7-1
				c1.4-1.1,2.8-2.7,3.7-4.4L275.7,363.9z M275.3,360.7c-0.9,1.3-2.3,2.8-3.6,3.8c-0.1-0.2-0.5-0.6-0.6-0.9c1.2-0.8,2.5-2.2,3.1-3.3
				L275.3,360.7z M284.2,368.8c-0.7,1.5-1.7,2.7-3,3.7c1.3,0.6,2.7,1.1,4.2,1.4c-0.3,0.3-0.6,0.7-0.7,1c-1.7-0.4-3.2-1-4.5-1.7
				c-1.4,0.8-3,1.4-4.7,1.8c-0.1-0.3-0.4-0.8-0.6-1c1.5-0.3,2.9-0.7,4.2-1.4c-0.6-0.5-1.3-1-1.8-1.6c-0.4,0.4-0.8,0.7-1.3,1.1
				c-0.2-0.2-0.6-0.7-0.8-0.9c0.5-0.3,0.9-0.7,1.4-1.1c-0.3-0.4-0.5-0.8-0.8-1.2l1-0.3c0.2,0.3,0.3,0.6,0.5,0.8
				c0.6-0.6,1.1-1.3,1.5-2c-2.3,0.1-2.7,0.2-3,0.3c0-0.2-0.2-0.8-0.4-1.1c0.5-0.1,1-0.3,1.8-0.8c0.4-0.2,1.1-0.7,2-1.2
				c-2.4,0.1-2.8,0.2-3,0.3c0-0.3-0.2-0.8-0.4-1.1c0.3,0,0.6-0.3,1.1-0.6c0.4-0.3,1.8-1.5,2.8-2.6l1.2,0.5c-1,1-2,1.9-3,2.6l2.8-0.1
				c0.7-0.5,1.5-1.1,2.1-1.7l1.1,0.6c-1.9,1.5-3.8,2.9-5.8,3.9l5-0.3c-0.4-0.5-0.7-0.9-1.1-1.3l0.9-0.5c0.9,1.1,2.1,2.5,2.6,3.4
				l-1,0.6c-0.2-0.4-0.5-0.8-0.8-1.3l-3.5,0.2c-0.2,0.4-0.5,0.9-0.8,1.3h3.9l0.2,0L284.2,368.8z M278.6,369.5
				c-0.2,0.2-0.4,0.5-0.6,0.7c0.6,0.7,1.3,1.2,2.1,1.7c1-0.7,1.8-1.5,2.4-2.4H278.6z"/>
		</g>
	</g>
	<rect x="22.2" y="343.3" class="st5" width="290.6" height="1"/>
	<polygon class="st6" points="62.1,85.1 71.5,85.1 71.5,94.7 62.1,94.7 62.1,85.1 	"/>
	<polygon class="st7" points="194.7,85.1 204.2,85.1 204.2,94.7 194.7,94.7 194.7,85.1 	"/>
	<g>
		<path class="st1" d="M85.8,83.1c1.5,2.2,4.2,4.4,6.7,5.4c-0.2,0.2-0.6,0.7-0.8,1c-2.4-1.1-4.9-3.2-6.6-5.3c-1.6,2-4.3,4.2-6.6,5.4
			c-0.1-0.3-0.5-0.7-0.7-1c2-0.9,4.4-2.7,5.9-4.5H81v-1.1H85.8z M85.8,95.7H92v1.1H78.5v-1.1h6v-2.6h-4.5V92h4.5v-2.4h-3.8v-1.1h8.9
			v1.1h-3.9V92h4.5v1.1h-4.5V95.7z"/>
		<path class="st1" d="M99.1,94c-1.8,0.6-3.7,1.1-5.1,1.6l-0.3-1.1c0.6-0.2,1.3-0.4,2.1-0.6v-4.4h-1.8v-1.1h1.8v-3.5H94v-1.1h4.9
			v1.1H97v3.5h1.6v1.1H97v4l2-0.6L99.1,94z M108.2,88c-0.8,1.1-1.9,2.5-2.8,3.4c0.7,1.5,1.7,2.7,3.3,3.8c-0.3,0.2-0.6,0.6-0.7,0.9
			c-1.8-1.3-2.9-2.8-3.7-4.8v4.5c0,0.7-0.2,1.1-0.6,1.2c-0.5,0.2-1.2,0.3-2.4,0.3c-0.1-0.3-0.3-0.8-0.4-1.1c0.9,0,1.7,0,2,0
			c0.3,0,0.4-0.1,0.4-0.4V92c-1.3,1.3-2.7,2.6-3.7,3.7l-0.7-1c1.1-0.9,2.8-2.5,4.5-3.9v-4.1h-3.9v-1.1h3.9v-2.8h1.1v2.8h4.2v1.1
			h-4.2v0.6c0.2,1.3,0.4,2.4,0.8,3.3c0.8-0.9,1.6-2.1,2.1-3L108.2,88z M100.4,87.5c0.7,0.9,1.5,2.1,1.7,2.9l-1,0.5
			c-0.3-0.8-1-2.1-1.7-3L100.4,87.5z M106.9,85.2c-0.4-0.5-1.2-1.3-1.9-1.8l0.7-0.6c0.7,0.5,1.5,1.2,1.9,1.7L106.9,85.2z"/>
		<path class="st1" d="M117.7,84.7c-0.2,0.8-0.4,1.6-0.6,2.4h5.4v10.2h-1.2v-1h-8v1H112V87.1h3.8c0.2-0.7,0.3-1.6,0.5-2.4h-6.1v-1.2
			H124v1.2H117.7z M121.2,88.2h-8v2.9h8V88.2z M121.2,95.1v-3h-8v3H121.2z"/>
		<path class="st1" d="M134.1,88.4c1.1,3.5,3.2,6.4,6.3,7.7c-0.3,0.3-0.7,0.8-0.9,1.1c-3.1-1.5-5.1-4.3-6.3-7.9
			c-0.8,3.1-2.5,6.1-6.4,7.9c-0.2-0.3-0.6-0.7-0.9-1c4-1.7,5.5-4.8,6.2-7.8h-5.9v-1.2h6.1c0.2-1.7,0.2-3.3,0.2-4.5h1.3
			c0,1.3,0,2.9-0.3,4.5h6.6v1.2H134.1z"/>
		<path class="st1" d="M150.1,83c-0.1,0.2-0.2,0.3-0.4,0.5c2,2.3,4.3,3.7,6.8,4.8c-0.3,0.3-0.6,0.7-0.8,1c-2.4-1.2-4.6-2.6-6.7-4.9
			c-1.7,2.1-4.1,3.8-6.6,4.9c-0.2-0.3-0.5-0.7-0.8-1c2.9-1.2,5.8-3.4,7.4-5.8L150.1,83z M149.8,95.7h6.1v1.1h-13.5v-1.1h2v-5.9h1.2
			v5.9h3V87h1.2v3.7h4.6v1.1h-4.6V95.7z"/>
		<path class="st1" d="M163.6,94.7c-1.1,0.9-3.2,1.7-4.9,2.1c-0.2-0.3-0.5-0.7-0.7-0.9c1.6-0.3,3.7-0.9,4.7-1.6L163.6,94.7z
			 M171.9,92.5v1h-6.4v3.8h-1.2v-3.8h-6.3v-1h6.3v-1.2h-4.8v-0.9h4.8v-1.1h-5.6v-1h3.4c-0.2-0.4-0.5-1.1-0.8-1.5l0.8-0.2h-4.1v-1
			h2.6c-0.2-0.6-0.8-1.6-1.3-2.3l1-0.4c0.6,0.7,1.1,1.7,1.4,2.3l-0.8,0.3h1.9v-2.8h1.1v2.8h1.9v-2.8h1.1v2.8h1.9l-0.6-0.2
			c0.4-0.7,1-1.7,1.2-2.4l1.2,0.3c-0.4,0.8-1,1.7-1.4,2.3h2.5v1h-4.1l1,0.3c-0.4,0.5-0.8,1.1-1.1,1.5h3.7v1h-5.8v1.1h5v0.9h-5v1.2
			H171.9z M162.5,86.5c0.4,0.5,0.7,1.1,0.8,1.6l-0.7,0.2h4.4l-0.6-0.2c0.3-0.4,0.7-1.1,0.9-1.6H162.5z M167.3,94.2
			c1.5,0.5,3.5,1.3,4.6,1.8l-0.7,0.7c-1.1-0.5-3.1-1.3-4.6-1.9L167.3,94.2z"/>
	</g>
	<g>
		<path class="st3" d="M214,91.2v4.5c0,0.7-0.2,1-0.6,1.2c-0.4,0.2-1.1,0.2-2.2,0.2c0-0.3-0.2-0.8-0.4-1.1c0.8,0,1.5,0,1.6,0
			c0.2,0,0.3-0.1,0.3-0.3v-4.1l-2,0.6l-0.4-1.1c0.7-0.2,1.5-0.4,2.4-0.6v-3.4h-2.2v-1.1h2.2v-3.2h1.2v3.2h2v1.1h-2V90l1.5-0.4
			l0.2,1.1L214,91.2z M224,89.9c-0.6,1.9-1.7,3.4-3.1,4.6c1.2,0.7,2.6,1.3,4.2,1.6c-0.3,0.3-0.6,0.7-0.7,1.1c-1.7-0.4-3.2-1.1-4.5-2
			c-1.4,0.9-3,1.6-4.7,2c-0.1-0.3-0.4-0.8-0.6-1.1c1.5-0.3,3-0.9,4.3-1.7c-1.1-1-2-2.2-2.6-3.7l0.2-0.1h-0.6v-1.1h7.1l0.2,0
			L224,89.9z M218.5,85c0,1.4-0.4,3.1-2.4,4.3c-0.1-0.2-0.6-0.7-0.8-0.9c1.8-1,2-2.3,2-3.4v-1.8h5v3.7c0,0.4,0,0.6,0.3,0.6h1.2
			c0.2,0,0.6,0,0.8-0.1c0,0.3,0,0.7,0.1,1c-0.2,0.1-0.5,0.1-0.9,0.1h-1.3c-1.1,0-1.4-0.5-1.4-1.6v-2.6h-2.8V85z M217.5,90.7
			c0.6,1.2,1.4,2.2,2.4,3c1-0.8,1.9-1.8,2.5-3H217.5z"/>
		<path class="st3" d="M231.2,87h-4.6v-1h4.6V87z M232.5,95.2c-1.3,0.8-3.3,1.5-4.9,1.9c-0.2-0.2-0.6-0.7-0.9-0.9
			c1.6-0.3,3.5-0.9,4.7-1.5L232.5,95.2z M230.8,84.5H227v-0.9h3.8V84.5z M228.7,88.2H239v6.4h-10.3V88.2z M229.9,90.1h8V89h-8V90.1z
			 M229.9,92h8v-1.1h-8V92z M229.9,93.8h8v-1.1h-8V93.8z M233.7,84.6c-0.4,0.6-0.8,1.2-1.2,1.6c-0.2-0.2-0.6-0.5-0.9-0.6
			c0.8-0.7,1.5-1.9,1.8-3l1.1,0.2c-0.1,0.3-0.2,0.6-0.3,0.9h5.3l0.2,0l0.8,0.3c-0.4,0.8-0.9,1.7-1.3,2.3l-0.9-0.3
			c0.2-0.3,0.5-0.8,0.7-1.3h-2.5v0.2c0,0.2,0,0.3,0,0.5c0.8,1,2.6,1.6,4.7,1.8c-0.2,0.2-0.5,0.7-0.7,0.9c-1.8-0.3-3.3-0.9-4.3-1.9
			c-0.5,0.8-1.8,1.5-4.6,1.9c-0.1-0.3-0.4-0.7-0.6-0.9c4.1-0.6,4.5-1.6,4.5-2.5v-0.2H233.7z M236.1,94.7c1.7,0.5,3.6,1.2,4.7,1.7
			l-1,0.7c-1-0.5-2.7-1.2-4.5-1.8L236.1,94.7z"/>
		<path class="st3" d="M247.8,92.1c0-0.3-0.1-0.6-0.2-0.9c-3.7,0.6-4.2,0.7-4.5,0.9c-0.1-0.2-0.2-0.8-0.4-1.1c0.3-0.1,0.7-0.5,1.2-1
			c0.3-0.3,0.8-0.9,1.3-1.8c-1.7,0.2-2,0.3-2.2,0.4c-0.1-0.2-0.3-0.8-0.4-1.1c0.3-0.1,0.6-0.4,0.9-0.9c0.3-0.5,1.4-2.3,2.1-4
			l1.1,0.5c-0.7,1.5-1.6,3-2.5,4.2l1.7-0.2c0.4-0.7,0.8-1.4,1.2-2.1l1,0.6c-1.1,1.8-2.3,3.7-3.6,5.1l2.7-0.4c-0.2-0.5-0.4-1-0.6-1.5
			l0.8-0.3c0.5,1.1,1,2.4,1.2,3.2L247.8,92.1z M244.3,93c-0.2,1.4-0.5,2.9-0.8,3.8c-0.2-0.1-0.7-0.3-0.9-0.4c0.4-1,0.6-2.4,0.8-3.7
			L244.3,93z M246,92.7c0.2,1,0.4,2.3,0.4,3.2l-0.9,0.2c0-0.9-0.2-2.2-0.4-3.2L246,92.7z M247.7,92.3c0.3,0.8,0.7,1.9,0.8,2.6
			l-0.9,0.3c-0.1-0.7-0.5-1.8-0.8-2.6L247.7,92.3z M256.6,88.1c-0.4,2.3-1.2,4.2-2.3,5.8c0.8,1,1.7,1.7,2.8,2.2
			c-0.3,0.2-0.6,0.7-0.8,1c-1.1-0.5-2-1.3-2.7-2.3c-0.8,1-1.8,1.8-2.8,2.4c-0.2-0.3-0.5-0.7-0.7-0.9c1.1-0.6,2-1.4,2.9-2.5
			c-0.8-1.3-1.4-2.8-1.8-4.5c-0.3,3.2-0.9,5.7-2.4,7.7c-0.2-0.2-0.7-0.6-1-0.7c2.1-2.6,2.4-6.7,2.5-11.8h-1.6v-1.1h5.6l0.2-0.1
			l0.8,0.1c-0.2,1.3-0.4,3-0.7,4.5h1.1l0.2,0L256.6,88.1z M251.3,84.5c0,1.2-0.1,2.3-0.1,3.4h2.2c0.2-1.1,0.4-2.4,0.6-3.4H251.3z
			 M252,89c0.4,1.4,0.9,2.7,1.6,3.9c0.7-1.1,1.3-2.4,1.6-3.9H252z"/>
		<path class="st3" d="M263.1,83c-0.4,1.1-1,2.2-1.6,3.3v10.9h-1.1V88c-0.5,0.7-1.1,1.4-1.6,2c-0.1-0.3-0.4-0.9-0.7-1.1
			c1.6-1.5,3-3.9,3.9-6.3L263.1,83z M267,95.1c-0.9,0.8-2.5,1.6-3.7,2.1c-0.2-0.2-0.7-0.6-0.9-0.8c1.3-0.4,2.7-1,3.6-1.7L267,95.1z
			 M272.9,86.8v0.9h-10.4v-0.9h4.6v-0.9h-3.5v-0.8h3.5v-0.8h-3.9v-0.8h3.9v-0.9h1.2v0.9h4.1v0.8h-4.1v0.8h3.7v0.8h-3.7v0.9H272.9z
			 M271.9,94.4h-8.1v-6h8.1V94.4z M270.7,89.2H265v1h5.8V89.2z M270.7,90.9H265v1h5.8V90.9z M270.7,92.6H265v1h5.8V92.6z
			 M269.8,94.6c1.1,0.6,2.4,1.4,3.1,2l-1.1,0.7c-0.7-0.6-2-1.5-3.1-2.2L269.8,94.6z"/>
	</g>
</g>
<g>
	<g>
		<path class="st4" d="M134.5,27.7c-0.4,1.3-0.9,2.7-1.5,3.9v14.3h-1.5V34.5c-0.6,1-1.1,1.9-1.8,2.6c-0.1-0.3-0.6-1.2-0.8-1.5
			c1.7-2.1,3.2-5.2,4.1-8.3L134.5,27.7z M146,41c-0.7,1.1-1.9,2-3.4,2.8c1.6,0.5,3.4,0.8,5.2,0.9c-0.3,0.3-0.6,0.8-0.8,1.2
			c-2.2-0.3-4.3-0.7-6.1-1.4c-1.8,0.6-3.9,1.1-6.3,1.4c-0.2-0.3-0.5-0.8-0.8-1.1c2-0.2,3.8-0.6,5.4-1c-0.8-0.4-1.5-0.8-2.1-1.3
			c-0.6,0.4-1.4,0.8-2.1,1.1c-0.2-0.3-0.6-0.7-0.9-0.9c0.8-0.3,1.5-0.7,2.1-1c-0.3-0.3-0.5-0.6-0.8-0.9l1.2-0.5
			c0.2,0.2,0.4,0.5,0.6,0.7c0.7-0.5,1.3-1,1.7-1.5c-0.6-0.1-0.8-0.5-0.8-1.3v-1.2h1.3v1.2c0,0.4,0.1,0.5,0.8,0.5h2.5
			c0.5,0,0.6-0.1,0.6-0.9c0.2,0.2,0.7,0.3,1,0.3c-0.1,1.2-0.5,1.5-1.5,1.5h-2.5c-0.2,0.3-0.5,0.6-0.8,0.9h5.2l0.3-0.1L146,41z
			 M147.9,35.4v2.7h-1.4v-1.8h-5.6c0.7,0.4,1.4,0.9,1.8,1.3l-0.9,0.6c-0.5-0.4-1.3-1.1-2-1.5l0.7-0.5h-4.9v1.8h-1.3v-2.7h2v-5.1h3.6
			c0.1-0.3,0.2-0.7,0.3-1.1h-5.3v-1.2h12.7v1.2h-5.8c-0.1,0.4-0.3,0.7-0.4,1.1h4.7v5.1H147.9z M138.1,37.6c-0.5,0.8-1.3,1.7-2.2,2.3
			l-0.9-0.7c0.8-0.5,1.6-1.4,2.1-2.1L138.1,37.6z M137.8,31.2v0.9h6.8v-0.9H137.8z M144.6,32.9h-6.8v0.9h6.8V32.9z M137.8,35.4h6.8
			v-0.9h-6.8V35.4z M138.2,41.8c0.8,0.6,1.7,1,2.7,1.4c1.2-0.5,2.2-1.1,2.9-1.7h-5.4L138.2,41.8z M146.3,39.9
			c-0.5-0.7-1.5-1.7-2.3-2.4l0.9-0.5c0.9,0.7,1.9,1.7,2.4,2.3L146.3,39.9z"/>
		<path class="st4" d="M152.8,31.4c-0.2,1.1-0.8,2.2-1.8,3.1c-0.2-0.3-0.7-0.8-1-1c1.4-1.1,1.7-2.6,1.7-3.7v-1.7
			c2.1-0.2,4.7-0.5,6-0.9l0.9,0.9c-1.5,0.5-3.6,0.8-5.6,0.9v0.7c0,0.1,0,0.3,0,0.4h6v1.2h-2.3v2.5h-1.4v-2.5H152.8z M157.4,43.4
			c-1.7,1-4.4,2-6.4,2.6c-0.1-0.3-0.5-1-0.8-1.3c2-0.4,4.5-1.2,6-1.9L157.4,43.4z M152.8,34.3h12.8v8.4h-12.8V34.3z M154.3,36.7h9.8
			v-1.4h-9.8V36.7z M154.3,39.1h9.8v-1.4h-9.8V39.1z M154.3,41.6h9.8v-1.5h-9.8V41.6z M168.3,30.2v1.2h-3.2v2.5h-1.4v-2.5h-2.7
			c-0.2,1-0.6,2-1.5,2.8c-0.2-0.2-0.8-0.6-1.1-0.8c1.2-1.2,1.4-2.6,1.4-3.7v-1.5c2.3-0.1,4.9-0.5,6.4-0.9l1,0.9
			c-1.6,0.5-4,0.8-6.1,0.9v0.6c0,0.2,0,0.4,0,0.6H168.3z M161.8,42.8c2.3,0.6,4.7,1.4,6.3,2.1l-0.7,1.1c-1.5-0.7-3.8-1.5-6.1-2.2
			L161.8,42.8z"/>
		<path class="st4" d="M178.4,30.8c-0.3,0.8-0.7,1.6-1,2.3h2.5v1.3h-9.4v-1.3h2.4c-0.1-0.7-0.4-1.6-0.7-2.4l1.2-0.3
			c0.3,0.8,0.7,1.8,0.8,2.5l-0.5,0.1h2.3c0.4-0.8,0.8-1.9,1-2.6L178.4,30.8z M178.9,44c0,0.8-0.2,1.1-0.7,1.4
			c-0.5,0.2-1.4,0.2-2.5,0.2c-0.1-0.4-0.3-1-0.5-1.4c0.9,0,1.6,0,1.9,0c0.2,0,0.3-0.1,0.3-0.3v-2.6c-1.4,0.7-2.8,1.3-4,1.8L173,42
			c1.2-0.4,2.8-1,4.5-1.7v-3.6H173v2.9c0,1.9-0.2,4.5-1.3,6.4c-0.2-0.2-0.8-0.7-1.1-0.8c0.9-1.6,1-3.9,1-5.6v-4h7.3V44z M179.5,30.2
			h-8.7v-1.3h3.9c-0.1-0.5-0.3-1.1-0.6-1.5l1.4-0.3c0.3,0.6,0.6,1.3,0.7,1.9h3.3V30.2z M173.9,37.7c1.1,0.4,2.6,1,3.4,1.4l-0.6,0.9
			c-0.8-0.4-2.2-1.1-3.4-1.5L173.9,37.7z M187,44.5c0.7,0,0.9-0.3,0.9-1.7c0.3,0.2,0.9,0.5,1.3,0.5c-0.2,1.9-0.6,2.4-2.2,2.4h-3.8
			c-1.9,0-2.5-0.4-2.5-2.1v-8.9h5.8v-1.8h-5.8v-5.8h1.5v1.6h6.6v1.3h-6.6v1.7h5.8V36h-5.8v1.3h5.7v1h-5.7v1.3h5.6v1h-5.6v1.3h5.8v1
			h-5.8v0.9c0,0.7,0.2,0.8,1.1,0.8H187z"/>
		<path class="st4" d="M199.5,42.9c-2.9,0.7-6,1.4-8.2,1.8l-0.4-1.4c1.5-0.3,3.7-0.7,5.9-1.2l-1-0.3c0.3-1.1,0.7-2.9,0.9-4.1
			l1.5,0.4c-0.4,1.4-0.8,3-1.2,4l2.4-0.5L199.5,42.9z M199.2,29.7h-8v-1.4h8V29.7z M198.8,37.1h-7v-5.5h7V37.1z M193,42
			c0-1-0.3-2.6-0.8-3.8l1.2-0.3c0.5,1.2,0.8,2.8,0.9,3.8L193,42z M197.4,32.9h-4.3v3h4.3V32.9z M203.7,43.2c-1.1,1-2.9,2.1-4.5,2.7
			c-0.2-0.3-0.7-0.7-1-1c1.6-0.5,3.3-1.6,4.2-2.4L203.7,43.2z M203.3,31.4c0.1-0.6,0.3-1.3,0.4-1.9h-3.9v-1.3h9.8v1.3h-4.3
			c-0.2,0.7-0.4,1.4-0.6,1.9h4.2V42h-8.6V31.4H203.3z M207.5,32.6h-5.7v2h5.7V32.6z M207.5,35.7h-5.7v2h5.7V35.7z M207.5,38.8h-5.7
			v2h5.7V38.8z M206.5,42.5c1.2,0.7,2.7,1.8,3.5,2.5l-1.2,0.8c-0.7-0.7-2.2-1.8-3.4-2.6L206.5,42.5z"/>
		<path class="st4" d="M218.5,43.9c0,0.8-0.2,1.2-0.7,1.5c-0.5,0.2-1.3,0.3-2.5,0.3c-0.1-0.4-0.2-1-0.4-1.4c0.9,0,1.7,0,1.9,0
			c0.2,0,0.3-0.1,0.3-0.4v-5.6c-0.9,0.5-1.7,1-2.5,1.5l-0.6-1.2c-0.1,2.5-0.6,5.2-1.5,7.3c-0.3-0.2-0.9-0.6-1.2-0.7
			c1.4-2.9,1.5-7,1.5-9.9v-7.3h5.7V43.9z M214.2,35.2c0,1,0,2.1-0.1,3.2c0.8-0.3,1.9-0.8,3-1.4v-2.3l-0.8,0.6
			c-0.5-0.7-1.4-1.7-2.2-2.4V35.2z M214.2,29.3v3.2l0.7-0.5c0.8,0.7,1.7,1.6,2.2,2.3v-4.9H214.2z M229.4,36.5
			c-0.8,2.5-2.1,4.5-3.8,6c1.3,0.9,2.8,1.6,4.5,2.1c-0.4,0.3-0.8,0.9-1,1.3c-1.8-0.5-3.4-1.4-4.7-2.4c-1.5,1.1-3.1,1.8-4.9,2.4
			c-0.2-0.4-0.5-1-0.8-1.3c1.6-0.4,3.2-1.1,4.6-2.1c-1.3-1.3-2.3-2.9-3.1-4.8l0.3-0.1h-1v-1.4h8.7l0.2-0.1L229.4,36.5z M223,30.2
			c0,1.8-0.6,4-3,5.4c-0.2-0.3-0.7-0.8-1-1.1c2.2-1.3,2.6-2.9,2.6-4.4v-2.3h6.2v4.8c0,0.6,0,0.7,0.3,0.7h1.1c0.2,0,0.6,0,0.9-0.1
			c0,0.4,0.1,0.9,0.1,1.3c-0.2,0.1-0.6,0.1-1,0.1H228c-1.4,0-1.6-0.6-1.6-2.1v-3.3H223V30.2z M221.8,37.6c0.7,1.5,1.6,2.9,2.8,4
			c1.2-1.1,2.3-2.4,2.9-4H221.8z"/>
		<path class="st4" d="M237.9,27.6c-0.6,1.4-1.2,2.9-2,4.2v14h-1.5V34.1c-0.7,0.9-1.4,1.8-2.1,2.5c-0.2-0.3-0.6-1.1-0.9-1.5
			c2-1.9,3.9-5,5.1-8L237.9,27.6z M243,43.2c-1.2,1-3.2,2.1-4.8,2.7c-0.2-0.3-0.8-0.8-1.2-1.1c1.7-0.5,3.5-1.3,4.6-2.2L243,43.2z
			 M250.6,32.5v1.1h-13.4v-1.1h5.9v-1.1h-4.5v-1h4.5v-1h-5v-1h5v-1.1h1.5v1.1h5.2v1h-5.2v1h4.7v1h-4.7v1.1H250.6z M249.2,42.3h-10.4
			v-7.7h10.4V42.3z M247.7,35.6h-7.4v1.3h7.4V35.6z M247.7,37.8h-7.4v1.3h7.4V37.8z M247.7,40h-7.4v1.3h7.4V40z M246.6,42.6
			c1.4,0.8,3.1,1.8,4,2.6l-1.4,0.8c-0.9-0.8-2.6-2-4-2.8L246.6,42.6z"/>
	</g>
	<g id="XMLID_6321_">
		<g id="XMLID_6369_">
			<path id="XMLID_6382_" class="st0" d="M116.4,43.6c-0.4,0.9-0.8,1.8-1.4,2.6H86.2c-0.5-0.8-1-1.7-1.4-2.6H116.4z"/>
			<path id="XMLID_6381_" class="st8" d="M117.2,41c-0.2,0.9-0.5,1.8-0.9,2.6H84.8c-0.4-0.8-0.6-1.7-0.9-2.6H117.2z"/>
			<path id="XMLID_6380_" class="st0" d="M117.6,38.4c-0.1,0.9-0.2,1.8-0.4,2.6H84c-0.2-0.9-0.3-1.7-0.4-2.6H117.6z"/>
			<path id="XMLID_6379_" class="st8" d="M115,46.3c-0.6,0.9-1.3,1.8-2.1,2.6H88.3c-0.8-0.8-1.5-1.7-2.1-2.6H115z"/>
			<path id="XMLID_6378_" class="st8" d="M109.7,51.5c-2.6,1.7-5.8,2.6-9.1,2.6s-6.5-1-9.1-2.6H109.7z"/>
			<path id="XMLID_6377_" class="st0" d="M112.9,48.9c-1,1-2,1.9-3.2,2.6H91.5c-1.2-0.7-2.3-1.6-3.2-2.6H112.9z"/>
			<path id="XMLID_6376_" class="st0" d="M112.9,25.2H88.3c1-1,2-1.9,3.2-2.6h18.2C110.9,23.3,112,24.2,112.9,25.2z"/>
			<path id="XMLID_6375_" class="st8" d="M109.7,22.6H91.5c0.5-0.3,1.1-0.7,1.7-0.9c0.1,0,0.1,0,0.2-0.1c0.2-0.1,0.4-0.2,0.6-0.3
				c0.1,0,0.2-0.1,0.3-0.1c2-0.8,4.1-1.2,6.4-1.2c0,0,0,0,0,0C103.9,20,107.1,20.9,109.7,22.6z"/>
			<path id="XMLID_6374_" class="st8" d="M115,27.9H86.2c0.1-0.2,0.3-0.5,0.5-0.7c0,0,0,0,0-0.1c0.5-0.7,1-1.3,1.6-1.9h24.6
				C113.7,26,114.4,26.9,115,27.9z"/>
			<path id="XMLID_6373_" class="st8" d="M117.2,33.1H84c0.2-0.9,0.5-1.8,0.9-2.6h31.5C116.7,31.3,117,32.2,117.2,33.1z"/>
			<path id="XMLID_6372_" class="st0" d="M116.4,30.5H84.8c0.1-0.2,0.1-0.3,0.2-0.5c0.2-0.4,0.4-0.8,0.6-1.2
				c0.2-0.3,0.4-0.6,0.6-0.9H115C115.5,28.7,116,29.6,116.4,30.5z"/>
			<path id="XMLID_6371_" class="st0" d="M117.6,35.7H83.6c0-0.1,0-0.2,0-0.3c0-0.3,0.1-0.6,0.1-1c0.1-0.5,0.2-0.9,0.3-1.3h33.3
				C117.4,34,117.6,34.8,117.6,35.7z"/>
			<path id="XMLID_6370_" class="st8" d="M117.7,37.1c0,0.4,0,0.9,0,1.3H83.6c0-0.4,0-0.9,0-1.3c0-0.4,0-0.9,0-1.3h34.1
				C117.7,36.2,117.7,36.6,117.7,37.1z"/>
		</g>
		<g id="XMLID_6322_">
			<path id="XMLID_6368_" class="st9" d="M100.6,20v18.4h-17c0-0.4,0-0.9,0-1.3c0-0.4,0-0.9,0-1.3c0-0.1,0-0.2,0-0.3
				c0-0.3,0.1-0.6,0.1-1c0.1-0.5,0.2-0.9,0.3-1.3c0.2-0.9,0.5-1.8,0.9-2.6c0.1-0.2,0.1-0.3,0.2-0.5c0.2-0.4,0.4-0.8,0.6-1.2
				c0.2-0.3,0.4-0.6,0.6-0.9c0.1-0.2,0.3-0.5,0.5-0.7c0,0,0,0,0-0.1c0.5-0.7,1-1.3,1.6-1.9c1-1,2-1.9,3.2-2.6
				c0.5-0.3,1.1-0.7,1.7-0.9c0.1,0,0.1,0,0.2-0.1c0.2-0.1,0.4-0.2,0.6-0.3c0.1,0,0.2-0.1,0.3-0.1C96.2,20.4,98.3,20,100.6,20z"/>
			<g id="XMLID_6323_">
				<g id="XMLID_6365_">
					<polygon id="XMLID_6367_" class="st0" points="98.4,20.8 98.7,21.6 99.5,21.6 98.8,22 99.1,22.8 98.4,22.3 97.8,22.8 98,22 
						97.4,21.6 98.2,21.6 					"/>
					<path id="XMLID_6366_" class="st0" d="M94.7,22.6l0.1,0.2l-0.2-0.2l-0.4-0.3l-0.4,0.3l-0.2,0.2l0.1-0.2l0.2-0.6l-0.5-0.4
						c0.1,0,0.1,0,0.2-0.1h0.5l0.1-0.3c0.1,0,0.2-0.1,0.3-0.1l0.1,0.4h0.8L94.5,22L94.7,22.6z"/>
				</g>
				<g id="XMLID_6361_">
					<polygon id="XMLID_6364_" class="st0" points="98.4,24.5 98.7,25.3 99.5,25.3 98.8,25.7 99.1,26.5 98.4,26 97.8,26.5 98,25.7 
						97.4,25.3 98.2,25.3 					"/>
					<polygon id="XMLID_6363_" class="st0" points="94.1,24.5 94.3,25.3 95.1,25.3 94.5,25.7 94.7,26.5 94.1,26 93.5,26.5 
						93.7,25.7 93.1,25.3 93.9,25.3 					"/>
					<polygon id="XMLID_6362_" class="st0" points="89.8,24.5 90,25.3 90.8,25.3 90.2,25.7 90.4,26.5 89.8,26 89.1,26.5 89.4,25.7 
						88.8,25.3 89.5,25.3 					"/>
				</g>
				<g id="XMLID_6354_">
					<polygon id="XMLID_6358_" class="st0" points="98.4,28.2 98.7,28.9 99.5,28.9 98.8,29.4 99.1,30.1 98.4,29.7 97.8,30.1 
						98,29.4 97.4,28.9 98.2,28.9 					"/>
					<polygon id="XMLID_6357_" class="st0" points="94.1,28.2 94.3,28.9 95.1,28.9 94.5,29.4 94.7,30.1 94.1,29.7 93.5,30.1 
						93.7,29.4 93.1,28.9 93.9,28.9 					"/>
					<polygon id="XMLID_6356_" class="st0" points="89.8,28.2 90,28.9 90.8,28.9 90.2,29.4 90.4,30.1 89.8,29.7 89.1,30.1 
						89.4,29.4 88.8,28.9 89.5,28.9 					"/>
					<path id="XMLID_6355_" class="st0" d="M85.8,29.4l0.2,0.7l-0.6-0.5L85,30c0.2-0.4,0.4-0.8,0.6-1.2l0,0.1h0.8L85.8,29.4z"/>
				</g>
				<g id="XMLID_6347_">
					<polygon id="XMLID_6353_" class="st0" points="98.4,31.9 98.7,32.6 99.5,32.6 98.8,33.1 99.1,33.8 98.4,33.4 97.8,33.8 
						98,33.1 97.4,32.6 98.2,32.6 					"/>
					<polygon id="XMLID_6352_" class="st0" points="94.1,31.9 94.3,32.6 95.1,32.6 94.5,33.1 94.7,33.8 94.1,33.4 93.5,33.8 
						93.7,33.1 93.1,32.6 93.9,32.6 					"/>
					<polygon id="XMLID_6351_" class="st0" points="89.8,31.9 90,32.6 90.8,32.6 90.2,33.1 90.4,33.8 89.8,33.4 89.1,33.8 
						89.4,33.1 88.8,32.6 89.5,32.6 					"/>
					<polygon id="XMLID_6348_" class="st0" points="85.5,31.9 85.7,32.6 86.5,32.6 85.8,33.1 86.1,33.8 85.5,33.4 84.8,33.8 
						85.1,33.1 84.4,32.6 85.2,32.6 					"/>
				</g>
				<g id="XMLID_6342_">
					<polygon id="XMLID_6346_" class="st0" points="98.4,35.6 98.7,36.3 99.5,36.3 98.8,36.8 99.1,37.5 98.4,37 97.8,37.5 98,36.8 
						97.4,36.3 98.2,36.3 					"/>
					<polygon id="XMLID_6345_" class="st0" points="94.1,35.6 94.3,36.3 95.1,36.3 94.5,36.8 94.7,37.5 94.1,37 93.5,37.5 
						93.7,36.8 93.1,36.3 93.9,36.3 					"/>
					<polygon id="XMLID_6344_" class="st0" points="89.8,35.6 90,36.3 90.8,36.3 90.2,36.8 90.4,37.5 89.8,37 89.1,37.5 89.4,36.8 
						88.8,36.3 89.5,36.3 					"/>
					<polygon id="XMLID_6343_" class="st0" points="85.5,35.6 85.7,36.3 86.5,36.3 85.8,36.8 86.1,37.5 85.5,37 84.8,37.5 
						85.1,36.8 84.4,36.3 85.2,36.3 					"/>
				</g>
				<g id="XMLID_6337_">
					<polygon id="XMLID_6341_" class="st0" points="96.3,33.7 96.5,34.5 97.3,34.5 96.7,34.9 96.9,35.7 96.3,35.2 95.6,35.7 
						95.9,34.9 95.3,34.5 96,34.5 					"/>
					<polygon id="XMLID_6340_" class="st0" points="91.9,33.7 92.2,34.5 93,34.5 92.3,34.9 92.6,35.7 91.9,35.2 91.3,35.7 
						91.6,34.9 90.9,34.5 91.7,34.5 					"/>
					<polygon id="XMLID_6339_" class="st0" points="87.6,33.7 87.9,34.5 88.6,34.5 88,34.9 88.2,35.7 87.6,35.2 87,35.7 87.2,34.9 
						86.6,34.5 87.4,34.5 					"/>
					<path id="XMLID_6338_" class="st0" d="M83.7,34.9l0.2,0.7l-0.3-0.2c0-0.3,0.1-0.6,0.1-1h0.6L83.7,34.9z"/>
				</g>
				<g id="XMLID_6333_">
					<polygon id="XMLID_6336_" class="st0" points="96.3,30 96.5,30.8 97.3,30.8 96.7,31.2 96.9,32 96.3,31.5 95.6,32 95.9,31.2 
						95.3,30.8 96,30.8 					"/>
					<polygon id="XMLID_6335_" class="st0" points="91.9,30 92.2,30.8 93,30.8 92.3,31.2 92.6,32 91.9,31.5 91.3,32 91.6,31.2 
						90.9,30.8 91.7,30.8 					"/>
					<polygon id="XMLID_6334_" class="st0" points="87.6,30 87.9,30.8 88.6,30.8 88,31.2 88.2,32 87.6,31.5 87,32 87.2,31.2 
						86.6,30.8 87.4,30.8 					"/>
				</g>
				<g id="XMLID_6327_">
					<polygon id="XMLID_6332_" class="st0" points="96.3,26.4 96.5,27.1 97.3,27.1 96.7,27.6 96.9,28.3 96.3,27.8 95.6,28.3 
						95.9,27.6 95.3,27.1 96,27.1 					"/>
					<polygon id="XMLID_6329_" class="st0" points="91.9,26.4 92.2,27.1 93,27.1 92.3,27.6 92.6,28.3 91.9,27.8 91.3,28.3 
						91.6,27.6 90.9,27.1 91.7,27.1 					"/>
					<path id="XMLID_6328_" class="st0" d="M88.1,27.9l0.1,0.4l-0.6-0.4l0,0l0,0L87,28.3l0.1-0.4l0.1-0.3l-0.6-0.4c0,0,0,0,0-0.1
						h0.7l0.2-0.7l0.2,0.7h0.8L88,27.6L88.1,27.9z"/>
				</g>
				<g id="XMLID_6324_">
					<polygon id="XMLID_6326_" class="st0" points="96.3,22.7 96.5,23.4 97.3,23.4 96.7,23.9 96.9,24.6 96.3,24.2 95.6,24.6 
						95.9,23.9 95.3,23.4 96,23.4 					"/>
					<polygon id="XMLID_6325_" class="st0" points="91.9,22.7 92.2,23.4 93,23.4 92.3,23.9 92.6,24.6 91.9,24.2 91.3,24.6 
						91.6,23.9 90.9,23.4 91.7,23.4 					"/>
				</g>
			</g>
		</g>
	</g>
</g>
</svg>
