<?xml version="1.0" encoding="utf-8"?>
<!-- Generator: Adobe Illustrator 26.3.1, SVG Export Plug-In . SVG Version: 6.00 Build 0)  -->
<svg version="1.1" id="圖層_1" xmlns="http://www.w3.org/2000/svg" xmlns:xlink="http://www.w3.org/1999/xlink" x="0px" y="0px"
	 viewBox="0 0 1000 360" style="enable-background:new 0 0 1000 360;" xml:space="preserve">
<style type="text/css">
	.st0{fill:#D9EDFF;}
	.st1{fill:#ED6B00;}
	.st2{fill:#FFD400;}
	.st3{fill:#D9D9D9;}
	.st4{fill:#494A66;}
	.st5{fill:#936200;}
	.st6{fill-rule:evenodd;clip-rule:evenodd;fill:#1B7FED;}
	.st7{fill-rule:evenodd;clip-rule:evenodd;fill:#006EAC;}
	.st8{fill-rule:evenodd;clip-rule:evenodd;fill:#C61026;}
	.st9{fill:#FFFFFF;}
</style>
<polygon class="st0" points="251.4,3.8 581.6,22.9 308.9,218.4 "/>
<polygon class="st1" points="75.3,337.3 80.1,336.6 85.1,335.7 89.9,335.1 94.9,334.4 99.7,333.4 104.7,332.5 109.5,331.3 
	114.5,330.6 119.3,329.4 124.3,328.5 129.1,327.6 133.9,326.8 138.8,325.9 143.7,324.8 148.6,324.4 153.4,323.7 158.4,322.4 
	163.2,321.6 168.2,321.7 173,321 178,319.4 182.8,318.8 187.8,317.2 192.6,316.5 197.6,315.7 202.4,314.5 207.4,313.4 212.2,312.6 
	217.2,312.2 222,311.2 227,310.5 231.8,310.2 236.6,309 241.6,309.8 246.4,309.3 251.4,307.6 256.2,308 261.1,306.7 265.9,305 
	270.9,302.7 275.7,301.9 280.7,302.2 285.5,302.2 290.5,300.7 295.3,299.2 300.3,298 305.1,296.7 310.1,297.3 314.9,295.8 
	319.9,294.4 324.7,292.4 329.7,291 334.5,289.2 339.3,287.4 344.3,286.3 349.1,286.4 354.1,284.4 358.9,284.4 363.9,282.4 
	368.7,280.4 373.6,279 378.5,276.9 383.4,276.7 388.2,274.8 393.2,273.1 398,272.7 403,270.4 407.8,268.2 412.8,267.1 417.6,265 
	422.6,265.3 427.4,264.2 432.4,261.3 437.2,259.4 442.2,258.6 447,255.4 451.8,255.3 456.8,254.4 461.6,253.4 466.6,254.2 
	471.4,253 476.4,254.4 481.2,254.1 486.1,249.3 491,249.1 495.9,248.4 500.7,250 505.7,248.6 510.5,245.6 515.5,245 520.3,242.6 
	525.3,241.5 530.1,237.4 535.1,236.5 539.9,235.8 544.9,234.6 549.7,233.5 554.5,230.8 559.5,230.1 564.3,227.6 569.3,227.6 
	574.1,226.3 579.1,223.8 583.9,219.9 588.9,217.4 593.7,215.2 598.6,213.9 603.5,210 608.4,209 613.2,207.6 618.2,203.6 623,206.4 
	628,207 632.8,206.1 637.8,202.3 642.6,200.2 647.6,194.8 652.4,191.6 657.2,190.8 662.2,199.6 667,198.1 672,203.8 676.8,197.2 
	681.8,192.7 686.6,188.5 691.6,183.3 696.4,186.7 701.4,180.9 706.2,177.3 711.1,176.2 716,173.8 720.9,169.6 725.7,165.6 
	730.7,161.5 735.5,162 740.5,168.8 745.3,185.6 750.3,170.7 755.1,165.1 759.9,160 764.9,149.1 769.7,141.6 774.7,145.4 
	779.5,148.5 784.5,131.5 789.3,122.8 794.3,121.3 799.1,116 804.1,106 808.9,97.4 813.9,100.3 818.7,90.8 823.6,89.5 828.5,84 
	833.4,89.4 838.2,83.4 843.2,80.8 848,72 853,80.6 857.8,83.1 862.8,76.3 867.6,91.9 872.4,91.3 877.4,107.7 882.2,93 887.2,94.5 
	892,111.6 897,105.8 901.8,89.4 906.8,99.9 911.6,86.5 916.6,86 921.4,75.6 926.4,72.8 931.2,63.2 936.1,48.8 941,39 945.9,41.4 
	950.7,47.1 955.7,52 955.7,337.3 950.7,337.3 945.9,337.3 941,337.3 936.1,337.3 931.2,337.3 926.4,337.3 921.4,337.3 916.6,337.3 
	911.6,337.3 906.8,337.3 901.8,337.3 897,337.3 892,337.3 887.2,337.3 882.2,337.3 877.4,337.3 872.4,337.3 867.6,337.3 
	862.8,337.3 857.8,337.3 853,337.3 848,337.3 843.2,337.3 838.2,337.3 833.4,337.3 828.5,337.3 823.6,337.3 818.7,337.3 
	813.9,337.3 808.9,337.3 804.1,337.3 799.1,337.3 794.3,337.3 789.3,337.3 784.5,337.3 779.5,337.3 774.7,337.3 769.7,337.3 
	764.9,337.3 759.9,337.3 755.1,337.3 750.3,337.3 745.3,337.3 740.5,337.3 735.5,337.3 730.7,337.3 725.7,337.3 720.9,337.3 
	716,337.3 711.1,337.3 706.2,337.3 701.4,337.3 696.4,337.3 691.6,337.3 686.6,337.3 681.8,337.3 676.8,337.3 672,337.3 667,337.3 
	662.2,337.3 657.2,337.3 652.4,337.3 647.6,337.3 642.6,337.3 637.8,337.3 632.8,337.3 628,337.3 623,337.3 618.2,337.3 
	613.2,337.3 608.4,337.3 603.5,337.3 598.6,337.3 593.7,337.3 588.9,337.3 583.9,337.3 579.1,337.3 574.1,337.3 569.3,337.3 
	564.3,337.3 559.5,337.3 554.5,337.3 549.7,337.3 544.9,337.3 539.9,337.3 535.1,337.3 530.1,337.3 525.3,337.3 520.3,337.3 
	515.5,337.3 510.5,337.3 505.7,337.3 500.7,337.3 495.9,337.3 491,337.3 486.1,337.3 481.2,337.3 476.4,337.3 471.4,337.3 
	466.6,337.3 461.6,337.3 456.8,337.3 451.8,337.3 447,337.3 442.2,337.3 437.2,337.3 432.4,337.3 427.4,337.3 422.6,337.3 
	417.6,337.3 412.8,337.3 407.8,337.3 403,337.3 398,337.3 393.2,337.3 388.2,337.3 383.4,337.3 378.5,337.3 373.6,337.3 
	368.7,337.3 363.9,337.3 358.9,337.3 354.1,337.3 349.1,337.3 344.3,337.3 339.3,337.3 334.5,337.3 329.7,337.3 324.7,337.3 
	319.9,337.3 314.9,337.3 310.1,337.3 305.1,337.3 300.3,337.3 295.3,337.3 290.5,337.3 285.5,337.3 280.7,337.3 275.7,337.3 
	270.9,337.3 265.9,337.3 261.1,337.3 256.2,337.3 251.4,337.3 246.4,337.3 241.6,337.3 236.6,337.3 231.8,337.3 227,337.3 
	222,337.3 217.2,337.3 212.2,337.3 207.4,337.3 202.4,337.3 197.6,337.3 192.6,337.3 187.8,337.3 182.8,337.3 178,337.3 173,337.3 
	168.2,337.3 163.2,337.3 158.4,337.3 153.4,337.3 148.6,337.3 143.7,337.3 138.8,337.3 133.9,337.3 129.1,337.3 124.3,337.3 
	119.3,337.3 114.5,337.3 109.5,337.3 104.7,337.3 99.7,337.3 94.9,337.3 89.9,337.3 85.1,337.3 80.1,337.3 75.3,337.3 75.3,337.3 
	"/>
<polygon class="st2" points="75.3,337.3 75.3,337.3 75.3,337.3 955.7,201.9 955.7,337.3 "/>
<rect x="75.3" y="336.8" class="st3" width="880.4" height="1"/>
<path class="st3" d="M956.2,341.3h-1v-4h1V341.3z M780,341.3h-1v-4h1V341.3z M604,341.3h-1v-4h1V341.3z M427.9,341.3h-1v-4h1V341.3z
	 M251.9,341.3h-1v-4h1V341.3z M75.8,341.3h-1v-4h1V341.3z"/>
<g>
	<g>
		<path class="st4" d="M47.2,336.1c0-3.6,1.2-5.3,3.2-5.3c1.9,0,3.2,1.7,3.2,5.3c0,3.6-1.2,5.4-3.2,5.4
			C48.4,341.4,47.2,339.6,47.2,336.1z M52.3,336.1c0-3-0.8-4.3-1.9-4.3c-1.2,0-2,1.3-2,4.3c0,3,0.8,4.3,2,4.3
			C51.6,340.4,52.3,339.1,52.3,336.1z"/>
	</g>
</g>
<g>
	<g>
		<path class="st4" d="M32.2,265h2.3v-7.7h-1.8v-0.8c0.9-0.2,1.6-0.4,2.1-0.7h1v9.2h2.1v1.1h-5.6V265z"/>
		<path class="st4" d="M39.4,260.9c0-3.6,1.2-5.3,3.2-5.3c1.9,0,3.2,1.7,3.2,5.3c0,3.6-1.2,5.4-3.2,5.4
			C40.7,266.2,39.4,264.4,39.4,260.9z M44.6,260.9c0-3-0.8-4.3-1.9-4.3c-1.2,0-2,1.3-2,4.3c0,3,0.8,4.3,2,4.3
			C43.8,265.2,44.6,263.9,44.6,260.9z"/>
		<path class="st4" d="M47.2,260.9c0-3.6,1.2-5.3,3.2-5.3c1.9,0,3.2,1.7,3.2,5.3c0,3.6-1.2,5.4-3.2,5.4
			C48.4,266.2,47.2,264.4,47.2,260.9z M52.3,260.9c0-3-0.8-4.3-1.9-4.3c-1.2,0-2,1.3-2,4.3c0,3,0.8,4.3,2,4.3
			C51.6,265.2,52.3,263.9,52.3,260.9z"/>
	</g>
</g>
<g>
	<g>
		<path class="st4" d="M31.6,190.1c3.2-2.8,4.7-4.9,4.7-6.6c0-1.2-0.6-2-1.9-2c-0.8,0-1.6,0.5-2.1,1.2l-0.7-0.7
			c0.8-0.9,1.7-1.5,3-1.5c1.8,0,3,1.2,3,3c0,2-1.6,4.1-4,6.4c0.5,0,1.2-0.1,1.7-0.1H38v1.1h-6.5V190.1z"/>
		<path class="st4" d="M39.4,185.7c0-3.6,1.2-5.3,3.2-5.3c1.9,0,3.2,1.7,3.2,5.3c0,3.6-1.2,5.4-3.2,5.4
			C40.7,191,39.4,189.2,39.4,185.7z M44.6,185.7c0-3-0.8-4.3-1.9-4.3c-1.2,0-2,1.3-2,4.3c0,3,0.8,4.3,2,4.3
			C43.8,190,44.6,188.7,44.6,185.7z"/>
		<path class="st4" d="M47.2,185.7c0-3.6,1.2-5.3,3.2-5.3c1.9,0,3.2,1.7,3.2,5.3c0,3.6-1.2,5.4-3.2,5.4
			C48.4,191,47.2,189.2,47.2,185.7z M52.3,185.7c0-3-0.8-4.3-1.9-4.3c-1.2,0-2,1.3-2,4.3c0,3,0.8,4.3,2,4.3
			C51.6,190,52.3,188.7,52.3,185.7z"/>
	</g>
</g>
<g>
	<g>
		<path class="st4" d="M31.4,114.4l0.6-0.8c0.6,0.6,1.4,1.2,2.5,1.2c1.2,0,2.1-0.7,2.1-1.9c0-1.2-0.8-2.1-3.2-2.1v-1
			c2.1,0,2.8-0.9,2.8-2c0-1-0.7-1.6-1.7-1.7c-0.8,0-1.6,0.4-2.1,1l-0.7-0.8c0.8-0.7,1.7-1.2,2.9-1.2c1.7,0,3,0.9,3,2.6
			c0,1.2-0.7,2.1-1.8,2.5v0.1c1.2,0.3,2.2,1.2,2.2,2.6c0,1.8-1.5,2.9-3.3,2.9C33,115.8,32,115.1,31.4,114.4z"/>
		<path class="st4" d="M39.4,110.4c0-3.6,1.2-5.3,3.2-5.3c1.9,0,3.2,1.7,3.2,5.3c0,3.6-1.2,5.4-3.2,5.4
			C40.7,115.8,39.4,114,39.4,110.4z M44.6,110.4c0-3-0.8-4.3-1.9-4.3c-1.2,0-2,1.3-2,4.3c0,3,0.8,4.3,2,4.3
			C43.8,114.8,44.6,113.5,44.6,110.4z"/>
		<path class="st4" d="M47.2,110.4c0-3.6,1.2-5.3,3.2-5.3c1.9,0,3.2,1.7,3.2,5.3c0,3.6-1.2,5.4-3.2,5.4
			C48.4,115.8,47.2,114,47.2,110.4z M52.3,110.4c0-3-0.8-4.3-1.9-4.3c-1.2,0-2,1.3-2,4.3c0,3,0.8,4.3,2,4.3
			C51.6,114.8,52.3,113.5,52.3,110.4z"/>
	</g>
</g>
<g>
	<g>
		<path class="st4" d="M38.3,37.6h-1.4v2.8h-1.2v-2.8h-4.5v-0.8l4.3-6.6h1.4v6.4h1.4V37.6z M35.7,36.6v-3.2c0-0.5,0.1-1.3,0.1-1.9
			h-0.1c-0.3,0.5-0.5,1-0.8,1.5l-2.3,3.5H35.7z"/>
		<path class="st4" d="M39.4,35.2c0-3.6,1.2-5.3,3.2-5.3c1.9,0,3.2,1.7,3.2,5.3c0,3.6-1.2,5.4-3.2,5.4
			C40.7,40.6,39.4,38.8,39.4,35.2z M44.6,35.2c0-3-0.8-4.3-1.9-4.3c-1.2,0-2,1.3-2,4.3c0,3,0.8,4.3,2,4.3
			C43.8,39.6,44.6,38.3,44.6,35.2z"/>
		<path class="st4" d="M47.2,35.2c0-3.6,1.2-5.3,3.2-5.3c1.9,0,3.2,1.7,3.2,5.3c0,3.6-1.2,5.4-3.2,5.4
			C48.4,40.6,47.2,38.8,47.2,35.2z M52.3,35.2c0-3-0.8-4.3-1.9-4.3c-1.2,0-2,1.3-2,4.3c0,3,0.8,4.3,2,4.3
			C51.6,39.6,52.3,38.3,52.3,35.2z"/>
	</g>
</g>
<g>
	<g>
		<path class="st4" d="M27.7,10.4c0-2.4,0.7-4.3,1.8-6.1l0.7,0.3c-1,1.7-1.5,3.7-1.5,5.8s0.5,4.1,1.5,5.8l-0.7,0.3
			C28.3,14.6,27.7,12.7,27.7,10.4z"/>
		<path class="st4" d="M34,5.5h-2.7V4.8H34V4h0.9v0.7h1.5v0.8h-1.5v0.7H34V5.5z M41.3,14.1c0,0.4-0.1,0.6-0.4,0.8
			C40.7,15,40.2,15,39.4,15c0-0.2-0.2-0.5-0.3-0.7c0.6,0,1,0,1.2,0c0.1,0,0.2,0,0.2-0.2v-2.5H37v1.2l1.5-0.1
			c-0.2-0.3-0.3-0.5-0.5-0.8l0.7-0.2c0.5,0.6,1.1,1.5,1.2,2.1l-0.7,0.3c-0.1-0.2-0.2-0.4-0.3-0.7c-1.9,0.1-3.9,0.2-5.3,0.3L33.6,13
			c0.7,0,1.6-0.1,2.6-0.1v-1.3h-3.3V15H32v-3.4h-0.5v-0.7H32v-0.4h0.9v0.4h3.3v-0.7h-3.4V6.5h7.8v3.6H37v0.7h4.3V14.1z M33.6,8h2.6
			V7.1h-2.6V8z M36.2,9.4V8.6h-2.6v0.9H36.2z M41.8,4.8v0.8h-2.7v0.8h-0.9V5.5h-1.4V4.8h1.4V4h0.9v0.7H41.8z M39.7,7.1H37V8h2.6V7.1
			z M39.7,8.6H37v0.9h2.6V8.6z"/>
		<path class="st4" d="M52.6,13.9c0.5,0,0.6-0.3,0.6-2.1c0.2,0.2,0.6,0.3,0.8,0.4c-0.1,2-0.3,2.6-1.4,2.6H51c-1.1,0-1.4-0.3-1.4-1.3
			V9.2h-2.2c-0.2,2.6-0.8,4.7-3.6,5.8c-0.1-0.2-0.4-0.5-0.6-0.7c2.6-1,3-2.8,3.2-5.1h-3V8.3h10.5v0.9h-3.4v4.3
			c0,0.4,0.1,0.5,0.6,0.5H52.6z M52.9,5.8h-8.4V5h8.4V5.8z"/>
		<path class="st4" d="M55.1,16.1c1-1.7,1.5-3.7,1.5-5.8s-0.5-4.1-1.5-5.8l0.7-0.3c1.1,1.8,1.8,3.7,1.8,6.1c0,2.4-0.7,4.3-1.8,6.1
			L55.1,16.1z"/>
	</g>
</g>
<g>
	<path class="st4" d="M62.5,356.1c2.8-2.4,4-4.2,4-5.7c0-1-0.5-1.7-1.6-1.7c-0.7,0-1.3,0.4-1.8,1l-0.6-0.6c0.7-0.8,1.5-1.3,2.6-1.3
		c1.6,0,2.6,1,2.6,2.6c0,1.8-1.4,3.5-3.4,5.5c0.5,0,1-0.1,1.4-0.1H68v0.9h-5.5V356.1z"/>
	<path class="st4" d="M69.2,352.3c0-3.1,1.1-4.5,2.7-4.5c1.7,0,2.7,1.5,2.7,4.5c0,3.1-1.1,4.6-2.7,4.6
		C70.3,356.9,69.2,355.4,69.2,352.3z M73.6,352.3c0-2.6-0.7-3.6-1.7-3.6c-1,0-1.7,1.1-1.7,3.6c0,2.6,0.7,3.7,1.7,3.7
		C73,356,73.6,354.9,73.6,352.3z"/>
	<path class="st4" d="M75.9,352.3c0-3.1,1.1-4.5,2.7-4.5c1.7,0,2.7,1.5,2.7,4.5c0,3.1-1.1,4.6-2.7,4.6
		C77,356.9,75.9,355.4,75.9,352.3z M80.3,352.3c0-2.6-0.7-3.6-1.7-3.6c-1,0-1.7,1.1-1.7,3.6c0,2.6,0.7,3.7,1.7,3.7
		C79.6,356,80.3,354.9,80.3,352.3z"/>
	<path class="st4" d="M82.5,354.5c0-1.2,0.8-2,1.6-2.4v-0.1c-0.6-0.4-1.2-1.1-1.2-2c0-1.3,1-2.2,2.4-2.2c1.5,0,2.4,1,2.4,2.3
		c0,0.9-0.6,1.7-1.2,2.1v0.1c0.8,0.4,1.5,1.1,1.5,2.3c0,1.3-1.1,2.3-2.8,2.3C83.7,356.9,82.5,355.9,82.5,354.5z M87,354.6
		c0-1.2-1.1-1.6-2.3-2.1c-0.7,0.5-1.2,1.2-1.2,2c0,0.9,0.8,1.6,1.8,1.6C86.3,356.1,87,355.5,87,354.6z M86.8,350.2
		c0-0.9-0.6-1.6-1.5-1.6c-0.8,0-1.4,0.6-1.4,1.4c0,1.1,0.9,1.5,2,1.9C86.5,351.4,86.8,350.8,86.8,350.2z"/>
</g>
<g>
	<path class="st4" d="M238.6,356.1c2.8-2.4,4-4.2,4-5.7c0-1-0.5-1.7-1.6-1.7c-0.7,0-1.3,0.4-1.8,1l-0.6-0.6c0.7-0.8,1.5-1.3,2.6-1.3
		c1.6,0,2.6,1,2.6,2.6c0,1.8-1.4,3.5-3.4,5.5c0.5,0,1-0.1,1.4-0.1h2.4v0.9h-5.5V356.1z"/>
	<path class="st4" d="M245.3,352.3c0-3.1,1.1-4.5,2.7-4.5c1.7,0,2.7,1.5,2.7,4.5c0,3.1-1.1,4.6-2.7,4.6
		C246.3,356.9,245.3,355.4,245.3,352.3z M249.7,352.3c0-2.6-0.7-3.6-1.7-3.6c-1,0-1.7,1.1-1.7,3.6c0,2.6,0.7,3.7,1.7,3.7
		C249,356,249.7,354.9,249.7,352.3z"/>
	<path class="st4" d="M252.4,355.8h2v-6.6h-1.6v-0.7c0.8-0.1,1.3-0.3,1.8-0.6h0.8v7.9h1.8v0.9h-4.8V355.8z"/>
	<path class="st4" d="M259.1,355.8h2v-6.6h-1.6v-0.7c0.8-0.1,1.3-0.3,1.8-0.6h0.8v7.9h1.8v0.9h-4.8V355.8z"/>
</g>
<g>
	<path class="st4" d="M414.6,356.1c2.8-2.4,4-4.2,4-5.7c0-1-0.5-1.7-1.6-1.7c-0.7,0-1.3,0.4-1.8,1l-0.6-0.6c0.7-0.8,1.5-1.3,2.6-1.3
		c1.6,0,2.6,1,2.6,2.6c0,1.8-1.4,3.5-3.4,5.5c0.5,0,1-0.1,1.4-0.1h2.4v0.9h-5.5V356.1z"/>
	<path class="st4" d="M421.3,352.3c0-3.1,1.1-4.5,2.7-4.5c1.7,0,2.7,1.5,2.7,4.5c0,3.1-1.1,4.6-2.7,4.6
		C422.4,356.9,421.3,355.4,421.3,352.3z M425.7,352.3c0-2.6-0.7-3.6-1.7-3.6c-1,0-1.7,1.1-1.7,3.6c0,2.6,0.7,3.7,1.7,3.7
		C425.1,356,425.7,354.9,425.7,352.3z"/>
	<path class="st4" d="M428.5,355.8h2v-6.6h-1.6v-0.7c0.8-0.1,1.3-0.3,1.8-0.6h0.8v7.9h1.8v0.9h-4.8V355.8z"/>
	<path class="st4" d="M440.3,354.3h-1.2v2.4h-1v-2.4h-3.8v-0.7l3.7-5.6h1.2v5.5h1.2V354.3z M438.1,353.4v-2.7c0-0.4,0-1.1,0.1-1.6h0
		c-0.2,0.4-0.5,0.9-0.7,1.3l-2,3H438.1z"/>
</g>
<g>
	<path class="st4" d="M590.7,356.1c2.8-2.4,4-4.2,4-5.7c0-1-0.5-1.7-1.6-1.7c-0.7,0-1.3,0.4-1.8,1l-0.6-0.6c0.7-0.8,1.5-1.3,2.6-1.3
		c1.6,0,2.6,1,2.6,2.6c0,1.8-1.4,3.5-3.4,5.5c0.5,0,1-0.1,1.4-0.1h2.4v0.9h-5.5V356.1z"/>
	<path class="st4" d="M597.4,352.3c0-3.1,1.1-4.5,2.7-4.5c1.7,0,2.7,1.5,2.7,4.5c0,3.1-1.1,4.6-2.7,4.6
		C598.4,356.9,597.4,355.4,597.4,352.3z M601.8,352.3c0-2.6-0.7-3.6-1.7-3.6c-1,0-1.7,1.1-1.7,3.6c0,2.6,0.7,3.7,1.7,3.7
		C601.1,356,601.8,354.9,601.8,352.3z"/>
	<path class="st4" d="M604.5,355.8h2v-6.6h-1.6v-0.7c0.8-0.1,1.3-0.3,1.8-0.6h0.8v7.9h1.8v0.9h-4.8V355.8z"/>
	<path class="st4" d="M615,348.9h-4.3v-0.9h5.5v0.7c-2.1,2.7-2.4,4.7-2.6,8.1h-1.1C612.6,353.4,613.2,351.3,615,348.9z"/>
</g>
<g>
	<path class="st4" d="M766.7,356.1c2.8-2.4,4-4.2,4-5.7c0-1-0.5-1.7-1.6-1.7c-0.7,0-1.3,0.4-1.8,1l-0.6-0.6c0.7-0.8,1.5-1.3,2.6-1.3
		c1.6,0,2.6,1,2.6,2.6c0,1.8-1.4,3.5-3.4,5.5c0.5,0,1-0.1,1.4-0.1h2.4v0.9h-5.5V356.1z"/>
	<path class="st4" d="M773.4,352.3c0-3.1,1.1-4.5,2.7-4.5c1.7,0,2.7,1.5,2.7,4.5c0,3.1-1.1,4.6-2.7,4.6
		C774.5,356.9,773.4,355.4,773.4,352.3z M777.8,352.3c0-2.6-0.7-3.6-1.7-3.6c-1,0-1.7,1.1-1.7,3.6c0,2.6,0.7,3.7,1.7,3.7
		C777.2,356,777.8,354.9,777.8,352.3z"/>
	<path class="st4" d="M780,356.1c2.8-2.4,4-4.2,4-5.7c0-1-0.5-1.7-1.6-1.7c-0.7,0-1.3,0.4-1.8,1l-0.6-0.6c0.7-0.8,1.5-1.3,2.6-1.3
		c1.6,0,2.6,1,2.6,2.6c0,1.8-1.4,3.5-3.4,5.5c0.5,0,1-0.1,1.4-0.1h2.4v0.9H780V356.1z"/>
	<path class="st4" d="M786.8,352.3c0-3.1,1.1-4.5,2.7-4.5c1.7,0,2.7,1.5,2.7,4.5c0,3.1-1.1,4.6-2.7,4.6
		C787.8,356.9,786.8,355.4,786.8,352.3z M791.2,352.3c0-2.6-0.7-3.6-1.7-3.6c-1,0-1.7,1.1-1.7,3.6c0,2.6,0.7,3.7,1.7,3.7
		C790.5,356,791.2,354.9,791.2,352.3z"/>
</g>
<g>
	<path class="st4" d="M942.9,356.1c2.8-2.4,4-4.2,4-5.7c0-1-0.5-1.7-1.6-1.7c-0.7,0-1.3,0.4-1.8,1l-0.6-0.6c0.7-0.8,1.5-1.3,2.6-1.3
		c1.6,0,2.6,1,2.6,2.6c0,1.8-1.4,3.5-3.4,5.5c0.5,0,1-0.1,1.4-0.1h2.4v0.9h-5.5V356.1z"/>
	<path class="st4" d="M949.7,352.3c0-3.1,1.1-4.5,2.7-4.5c1.7,0,2.7,1.5,2.7,4.5c0,3.1-1.1,4.6-2.7,4.6
		C950.7,356.9,949.7,355.4,949.7,352.3z M954.1,352.3c0-2.6-0.7-3.6-1.7-3.6c-1,0-1.7,1.1-1.7,3.6c0,2.6,0.7,3.7,1.7,3.7
		C953.4,356,954.1,354.9,954.1,352.3z"/>
	<path class="st4" d="M956.3,356.1c2.8-2.4,4-4.2,4-5.7c0-1-0.5-1.7-1.6-1.7c-0.7,0-1.3,0.4-1.8,1l-0.6-0.6c0.7-0.8,1.5-1.3,2.6-1.3
		c1.6,0,2.6,1,2.6,2.6c0,1.8-1.4,3.5-3.4,5.5c0.5,0,1-0.1,1.4-0.1h2.4v0.9h-5.5V356.1z"/>
	<path class="st4" d="M962.7,355.7l0.6-0.7c0.5,0.5,1.2,1,2.2,1c1,0,1.8-0.6,1.8-1.6c0-1.1-0.7-1.8-2.7-1.8v-0.8
		c1.8,0,2.4-0.7,2.4-1.7c0-0.9-0.6-1.4-1.5-1.4c-0.7,0-1.3,0.4-1.8,0.9l-0.6-0.7c0.7-0.6,1.4-1.1,2.5-1.1c1.5,0,2.6,0.8,2.6,2.2
		c0,1.1-0.6,1.8-1.6,2.1v0c1,0.2,1.9,1,1.9,2.2c0,1.6-1.3,2.5-2.8,2.5C964.2,356.9,963.3,356.3,962.7,355.7z"/>
</g>
<g>
	<path class="st1" d="M607,92.6h6V74.8H608v-3.5c2.8-0.5,4.7-1.3,6.5-2.4h4.1v23.6h5.3v4.5H607V92.6z"/>
	<path class="st1" d="M629.4,92.6h6V74.8h-5.1v-3.5c2.8-0.5,4.7-1.3,6.5-2.4h4.1v23.6h5.3v4.5h-16.9V92.6z"/>
	<path class="st1" d="M650.4,82.9c0-9.7,3.8-14.5,9.5-14.5c5.7,0,9.5,4.8,9.5,14.5s-3.8,14.7-9.5,14.7
		C654.2,97.6,650.4,92.6,650.4,82.9z M664.1,82.9c0-7.9-1.8-10.1-4.2-10.1c-2.4,0-4.3,2.3-4.3,10.1c0,7.9,1.8,10.3,4.3,10.3
		C662.3,93.3,664.1,90.8,664.1,82.9z"/>
	<path class="st1" d="M673.8,94c0-2.1,1.5-3.6,3.5-3.6c2,0,3.5,1.6,3.5,3.6s-1.5,3.6-3.5,3.6C675.2,97.6,673.8,96.1,673.8,94z"/>
	<path class="st1" d="M685.2,90.1c0-3.6,2.2-5.9,4.8-7.3v-0.2c-2.2-1.6-3.7-3.7-3.7-6.7c0-4.5,3.6-7.4,8.5-7.4c5,0,8.2,3,8.2,7.5
		c0,2.8-1.7,5.1-3.6,6.4v0.2c2.6,1.4,4.7,3.7,4.7,7.5c0,4.3-3.8,7.5-9.5,7.5C689.2,97.6,685.2,94.5,685.2,90.1z M698.8,89.9
		c0-2.9-2.6-4.1-6.2-5.6c-1.5,1.2-2.6,3.1-2.6,5.2c0,2.5,2.1,4.2,4.7,4.2C697.1,93.7,698.8,92.4,698.8,89.9z M698.4,76.3
		c0-2.3-1.4-3.9-3.7-3.9c-1.9,0-3.4,1.3-3.4,3.5c0,2.7,2.2,4,5.1,5.1C697.7,79.6,698.4,78,698.4,76.3z"/>
	<path class="st1" d="M710.4,84.6c0-3.6,1.8-5.6,4.3-5.6c2.5,0,4.3,2,4.3,5.6c0,3.6-1.8,5.7-4.3,5.7
		C712.1,90.3,710.4,88.2,710.4,84.6z M716.5,84.6c0-2.6-0.8-3.6-1.8-3.6c-1,0-1.8,1-1.8,3.6s0.8,3.7,1.8,3.7
		C715.7,88.3,716.5,87.2,716.5,84.6z M724.9,79h2.1l-9.7,18.4h-2.1L724.9,79z M723.3,91.8c0-3.6,1.8-5.6,4.3-5.6
		c2.5,0,4.3,2,4.3,5.6c0,3.6-1.8,5.7-4.3,5.7C725.1,97.5,723.3,95.3,723.3,91.8z M729.4,91.8c0-2.6-0.8-3.6-1.8-3.6
		c-1,0-1.8,1-1.8,3.6s0.8,3.6,1.8,3.6C728.6,95.4,729.4,94.4,729.4,91.8z"/>
</g>
<g>
	<path class="st1" d="M604.5,121.9c0-3.1,0.9-5.7,2.4-8.1l0.9,0.4c-1.4,2.3-2,5-2,7.7c0,2.7,0.7,5.4,2,7.7l-0.9,0.4
		C605.3,127.7,604.5,125.1,604.5,121.9z"/>
	<path class="st1" d="M614.1,122.1v4.5c0,0.7-0.2,1-0.6,1.2c-0.4,0.2-1.1,0.2-2.2,0.2c0-0.3-0.2-0.8-0.4-1.1c0.8,0,1.5,0,1.6,0
		c0.2,0,0.3-0.1,0.3-0.3v-4.1l-2,0.6l-0.4-1.2c0.7-0.2,1.5-0.4,2.4-0.6v-3.4h-2.2v-1.1h2.2v-3.2h1.2v3.2h2v1.1h-2v3.1l1.5-0.4
		l0.2,1.1L614.1,122.1z M624.2,120.9c-0.6,1.9-1.7,3.4-3.1,4.6c1.2,0.8,2.6,1.3,4.2,1.6c-0.3,0.3-0.6,0.8-0.8,1.1
		c-1.7-0.4-3.2-1.1-4.5-2c-1.4,0.9-3,1.6-4.7,2c-0.1-0.3-0.4-0.8-0.6-1.1c1.5-0.3,3-0.9,4.3-1.7c-1.1-1-2-2.2-2.6-3.7l0.2-0.1H616
		v-1.1h7.2l0.2,0L624.2,120.9z M618.7,115.9c0,1.4-0.4,3.1-2.4,4.3c-0.1-0.2-0.6-0.7-0.8-0.9c1.8-1,2-2.3,2-3.4v-1.8h5v3.7
		c0,0.4,0,0.6,0.3,0.6h1.2c0.2,0,0.6,0,0.8-0.1c0,0.3,0,0.8,0.1,1c-0.2,0.1-0.5,0.1-0.9,0.1h-1.3c-1.1,0-1.4-0.5-1.4-1.6v-2.6h-2.8
		V115.9z M617.6,121.7c0.6,1.2,1.4,2.2,2.4,3.1c1-0.8,1.9-1.8,2.5-3.1H617.6z"/>
	<path class="st1" d="M631.4,117.9h-4.6v-1h4.6V117.9z M632.7,126.2c-1.3,0.8-3.3,1.5-4.9,2c-0.2-0.2-0.6-0.7-0.9-0.9
		c1.6-0.3,3.6-0.9,4.7-1.5L632.7,126.2z M631,115.4h-3.8v-0.9h3.8V115.4z M628.9,119.2h10.4v6.4h-10.4V119.2z M630.1,121.1h8V120h-8
		V121.1z M630.1,122.9h8v-1.1h-8V122.9z M630.1,124.8h8v-1.1h-8V124.8z M633.9,115.5c-0.4,0.6-0.8,1.2-1.2,1.6
		c-0.2-0.2-0.6-0.5-0.9-0.6c0.8-0.8,1.5-1.9,1.8-3l1.1,0.2c-0.1,0.3-0.2,0.6-0.3,0.9h5.4l0.2,0l0.8,0.3c-0.4,0.8-0.9,1.7-1.3,2.3
		l-0.9-0.3c0.2-0.3,0.5-0.8,0.8-1.3h-2.5v0.2c0,0.2,0,0.3,0,0.5c0.8,1,2.6,1.6,4.7,1.8c-0.2,0.2-0.5,0.7-0.7,0.9
		c-1.8-0.3-3.4-0.9-4.4-1.9c-0.5,0.8-1.8,1.5-4.6,2c-0.1-0.3-0.4-0.7-0.6-0.9c4.1-0.6,4.5-1.6,4.5-2.5v-0.2H633.9z M636.3,125.7
		c1.7,0.5,3.6,1.2,4.7,1.7l-1,0.7c-1-0.5-2.8-1.2-4.5-1.8L636.3,125.7z"/>
	<path class="st1" d="M656.2,118.9c-0.7,2.1-1.6,3.9-2.8,5.4c0.6,1.6,1.3,2.5,2.1,2.5c0.4,0,0.6-0.8,0.8-3c0.3,0.3,0.7,0.5,1,0.6
		c-0.2,2.7-0.7,3.5-1.9,3.5c-1.2,0-2.2-1-2.9-2.6c-1,1-2.1,1.9-3.3,2.7c-0.2-0.2-0.6-0.7-0.9-0.9c1.4-0.8,2.7-1.8,3.7-3
		c-0.6-1.8-1-4.2-1.2-6.7h-5.5v2.1h4.1v0.5c-0.1,3.6-0.2,4.9-0.5,5.3c-0.2,0.3-0.5,0.4-1,0.5c-0.4,0-1.1,0-1.9,0
		c0-0.4-0.1-0.8-0.3-1.1c0.7,0.1,1.4,0.1,1.7,0.1c0.2,0,0.4,0,0.5-0.2c0.2-0.2,0.3-1.2,0.4-4h-2.9v0.1c0,2.2-0.2,5.5-1.7,7.5
		c-0.2-0.2-0.7-0.7-1-0.8c1.3-2,1.5-4.7,1.5-6.8v-4.5h6.7c-0.1-0.9-0.1-1.8-0.1-2.7h1.2c0,0.9,0,1.8,0.1,2.7h5.2v1.2h-5.1
		c0.2,2.1,0.4,4,0.9,5.6c0.9-1.3,1.6-2.7,2-4.3L656.2,118.9z M653.4,113.6c1,0.5,2.2,1.3,2.9,1.8l-0.7,0.8c-0.6-0.6-1.8-1.4-2.8-1.9
		L653.4,113.6z"/>
	<path class="st1" d="M667.6,123.1c1.5,1.5,3.8,2.8,5.8,3.5c-0.3,0.2-0.6,0.7-0.8,1c-2-0.8-4.4-2.4-6-4.1v4.7h-1.2v-4.6
		c-1.5,1.7-3.9,3.3-6,4c-0.2-0.3-0.5-0.7-0.8-1c2.1-0.7,4.4-2,5.8-3.6H659V122h6.4v-1.3h-4.8v-6.3h10.9v6.3h-4.9v1.3h6.4v1.1H667.6z
		 M661.8,117h3.6v-1.6h-3.6V117z M665.4,119.6v-1.6h-3.6v1.6H665.4z M670.3,115.3h-3.6v1.6h3.6V115.3z M670.3,117.9h-3.6v1.6h3.6
		V117.9z"/>
	<path class="st1" d="M676.1,125.5l0.7-1c0.7,0.7,1.6,1.3,2.9,1.3c1.4,0,2.4-0.8,2.4-2.2c0-1.4-0.9-2.4-3.6-2.4v-1.1
		c2.4,0,3.2-1,3.2-2.2c0-1.1-0.8-1.9-2-1.9c-0.9,0-1.8,0.5-2.4,1.2l-0.8-0.9c0.9-0.8,1.9-1.4,3.3-1.4c2,0,3.4,1.1,3.4,2.9
		c0,1.4-0.8,2.4-2.1,2.8v0.1c1.4,0.3,2.5,1.4,2.5,3c0,2.1-1.7,3.3-3.8,3.3C678,127.1,676.8,126.4,676.1,125.5z"/>
	<path class="st1" d="M690.9,116.4h-5.7v-1.2h7.3v0.9c-2.8,3.5-3.3,6.3-3.4,10.9h-1.5C687.8,122.5,688.6,119.6,690.9,116.4z"/>
	<path class="st1" d="M695.1,125c0.5,0.6,1.2,0.9,2,0.9c1.5,0,2.8-1.2,2.9-4.9c-0.7,0.9-1.7,1.5-2.7,1.5c-2,0-3.2-1.3-3.2-3.7
		c0-2.3,1.5-3.8,3.4-3.8c2.3,0,3.9,1.9,3.9,5.6c0,4.8-2,6.6-4.3,6.6c-1.3,0-2.2-0.5-2.8-1.2L695.1,125z M700,119.8
		c-0.2-2.4-1.1-3.7-2.6-3.7c-1.1,0-2,1.1-2,2.7c0,1.6,0.7,2.6,2.1,2.6C698.3,121.4,699.2,120.9,700,119.8z"/>
	<path class="st1" d="M708.4,115.5h-3.6v-1h3.6v-1h1.2v1h2v1h-2v1h-1.2V115.5z M718.2,126.9c0,0.6-0.1,0.8-0.5,1
		c-0.4,0.2-1.1,0.2-2.1,0.2c-0.1-0.3-0.2-0.7-0.4-1c0.8,0,1.4,0,1.5,0c0.2,0,0.3-0.1,0.3-0.2v-3.4h-4.6v1.7l2-0.1
		c-0.2-0.4-0.5-0.7-0.7-1l0.9-0.3c0.7,0.9,1.4,2,1.6,2.8l-0.9,0.3c-0.1-0.3-0.2-0.6-0.4-0.9c-2.6,0.2-5.2,0.3-7,0.4l-0.1-1
		c0.9,0,2.1-0.1,3.5-0.1v-1.7h-4.5v4.6h-1.2v-4.6H705v-1h0.6V122h1.2v0.6h4.5v-1h-4.6v-4.8h10.4v4.8h-4.7v1h5.8V126.9z M707.8,118.8
		h3.5v-1.2h-3.5V118.8z M711.2,120.7v-1.2h-3.5v1.2H711.2z M718.8,114.5v1h-3.6v1H714v-1h-1.9v-1h1.9v-1h1.2v1H718.8z M715.9,117.6
		h-3.5v1.2h3.5V117.6z M715.9,119.6h-3.5v1.2h3.5V119.6z"/>
	<path class="st1" d="M733.2,126.7c0.6,0,0.7-0.4,0.8-2.9c0.3,0.2,0.8,0.4,1.1,0.5c-0.1,2.7-0.4,3.5-1.8,3.5H731
		c-1.4,0-1.8-0.4-1.8-1.8v-5.7h-3c-0.3,3.4-1.1,6.2-4.8,7.7c-0.1-0.3-0.5-0.7-0.8-0.9c3.4-1.3,4-3.8,4.2-6.8h-4v-1.2h14v1.2h-4.5
		v5.7c0,0.5,0.1,0.7,0.8,0.7H733.2z M733.5,115.9h-11.3v-1.1h11.3V115.9z"/>
	<path class="st1" d="M738.1,129.6c1.4-2.3,2-5,2-7.7c0-2.7-0.7-5.4-2-7.7l0.9-0.4c1.5,2.4,2.4,5,2.4,8.1c0,3.2-0.9,5.7-2.4,8.1
		L738.1,129.6z"/>
</g>
<g>
	<path class="st5" d="M805.6,285.3v4.5c0,0.7-0.2,1-0.6,1.2c-0.4,0.2-1.1,0.2-2.2,0.2c0-0.3-0.2-0.8-0.4-1.1c0.8,0,1.5,0,1.6,0
		c0.2,0,0.3-0.1,0.3-0.3v-4.1l-2,0.6l-0.4-1.2c0.7-0.2,1.5-0.4,2.4-0.6V281h-2.2v-1.1h2.2v-3.2h1.2v3.2h2v1.1h-2v3.1l1.5-0.4
		l0.2,1.1L805.6,285.3z M815.6,284c-0.6,1.9-1.7,3.4-3.1,4.6c1.2,0.8,2.6,1.3,4.2,1.6c-0.3,0.3-0.6,0.8-0.8,1.1
		c-1.7-0.4-3.2-1.1-4.5-2c-1.4,0.9-3,1.6-4.7,2c-0.1-0.3-0.4-0.8-0.6-1.1c1.5-0.3,3-0.9,4.3-1.7c-1.1-1-2-2.2-2.6-3.7l0.2-0.1h-0.6
		v-1.1h7.2l0.2,0L815.6,284z M810.1,279c0,1.4-0.4,3.1-2.4,4.3c-0.1-0.2-0.6-0.7-0.8-0.9c1.8-1,2-2.3,2-3.4v-1.8h5v3.7
		c0,0.4,0,0.6,0.3,0.6h1.2c0.2,0,0.6,0,0.8-0.1c0,0.3,0,0.8,0.1,1c-0.2,0.1-0.5,0.1-0.9,0.1h-1.3c-1.1,0-1.4-0.5-1.4-1.6v-2.6h-2.8
		V279z M809.1,284.8c0.6,1.2,1.4,2.2,2.4,3.1c1-0.8,1.9-1.8,2.5-3.1H809.1z"/>
	<path class="st5" d="M822.8,281.1h-4.6v-1h4.6V281.1z M824.1,289.3c-1.3,0.8-3.3,1.5-4.9,2c-0.2-0.2-0.6-0.7-0.9-0.9
		c1.6-0.3,3.6-0.9,4.7-1.5L824.1,289.3z M822.4,278.6h-3.8v-0.9h3.8V278.6z M820.4,282.3h10.4v6.4h-10.4V282.3z M821.5,284.2h8v-1.1
		h-8V284.2z M821.5,286.1h8V285h-8V286.1z M821.5,288h8v-1.1h-8V288z M825.4,278.7c-0.4,0.6-0.8,1.2-1.2,1.6
		c-0.2-0.2-0.6-0.5-0.9-0.6c0.8-0.8,1.5-1.9,1.8-3l1.1,0.2c-0.1,0.3-0.2,0.6-0.3,0.9h5.4l0.2,0l0.8,0.3c-0.4,0.8-0.9,1.7-1.3,2.3
		l-0.9-0.3c0.2-0.3,0.5-0.8,0.8-1.3h-2.5v0.2c0,0.2,0,0.3,0,0.5c0.8,1,2.6,1.6,4.7,1.8c-0.2,0.2-0.5,0.7-0.7,0.9
		c-1.8-0.3-3.4-0.9-4.4-1.9c-0.5,0.8-1.8,1.5-4.6,2c-0.1-0.3-0.4-0.7-0.6-0.9c4.1-0.6,4.5-1.6,4.5-2.5v-0.2H825.4z M827.8,288.8
		c1.7,0.5,3.6,1.2,4.7,1.7l-1,0.7c-1-0.5-2.8-1.2-4.5-1.8L827.8,288.8z"/>
	<path class="st5" d="M843.4,281.2c1.2,2.7,3.2,5.2,5.4,6.5c-0.3,0.3-0.7,0.7-0.9,1c-2.4-1.5-4.4-4.4-5.6-7.5H842v5.9h3.7v1.2H842v3
		h-1.2v-3h-3.7v-1.2h3.7v-5.9h-0.3c-1.2,3.1-3.3,6-5.6,7.5c-0.2-0.3-0.6-0.7-0.8-0.9c2.1-1.3,4.1-3.9,5.3-6.6h-4.8V280h6.3v-3.3h1.2
		v3.3h6.3v1.2H843.4z"/>
	<path class="st5" d="M858,282.5v2.2h5.6v1.1H858v3.9h6.3v1.1h-13.7v-1.1h6.2v-3.9h-5.5v-1.1h5.5v-2.2h-3.5v-0.9
		c-0.8,0.4-1.7,0.8-2.5,1.2c-0.2-0.3-0.5-0.8-0.8-1.1c3-1,5.9-2.8,7.4-5.2l1.1,0.5c-0.1,0.2-0.3,0.4-0.4,0.6
		c1.6,1.7,4.4,3.4,6.8,4.1c-0.3,0.2-0.7,0.7-0.8,1c-0.8-0.3-1.7-0.7-2.6-1.2v1H858z M853.6,286.2c0.6,0.9,1.3,2.1,1.5,2.9l-1,0.4
		c-0.2-0.7-0.9-2-1.5-2.9L853.6,286.2z M861.3,281.4c-1.4-0.8-2.8-1.9-3.9-3c-1.1,1.2-2.3,2.2-3.7,3H861.3z M859.5,289.1
		c0.6-0.8,1.3-2,1.7-2.9l1.1,0.4c-0.6,1-1.3,2.1-1.9,2.9L859.5,289.1z"/>
	<path class="st5" d="M870.1,285.1c0-3.1,0.9-5.7,2.4-8.1l0.9,0.4c-1.4,2.3-2,5-2,7.7c0,2.7,0.7,5.4,2,7.7l-0.9,0.4
		C871,290.8,870.1,288.2,870.1,285.1z"/>
	<path class="st5" d="M877,288.8h2.6v-8.8h-2.1v-0.9c1-0.2,1.8-0.5,2.4-0.8h1.1v10.5h2.4v1.2H877V288.8z"/>
	<path class="st5" d="M885.2,287.2c0-1.6,1.1-2.7,2.2-3.2v-0.1c-0.9-0.6-1.6-1.5-1.6-2.7c0-1.8,1.4-3,3.2-3c2,0,3.2,1.3,3.2,3.1
		c0,1.2-0.9,2.3-1.6,2.8v0.1c1,0.6,2,1.5,2,3.1c0,1.7-1.5,3-3.7,3C886.8,290.3,885.2,289,885.2,287.2z M891.3,287.2
		c0-1.6-1.4-2.2-3.1-2.8c-0.9,0.6-1.6,1.5-1.6,2.7c0,1.2,1,2.2,2.4,2.2C890.4,289.2,891.3,288.4,891.3,287.2z M891,281.3
		c0-1.2-0.7-2.1-2-2.1c-1.1,0-1.9,0.8-1.9,1.9c0,1.4,1.3,2,2.6,2.6C890.6,283,891,282.2,891,281.3z"/>
	<path class="st5" d="M894.2,284.2c0-4.1,1.4-6.1,3.7-6.1c2.2,0,3.6,2,3.6,6.1c0,4.1-1.4,6.1-3.6,6.1
		C895.6,290.3,894.2,288.2,894.2,284.2z M900.1,284.2c0-3.4-0.9-4.9-2.2-4.9c-1.3,0-2.2,1.4-2.2,4.9c0,3.5,0.9,4.9,2.2,4.9
		C899.2,289.1,900.1,287.6,900.1,284.2z"/>
	<path class="st5" d="M908.5,278.7h-3.6v-1h3.6v-1h1.2v1h2v1h-2v1h-1.2V278.7z M918.2,290.1c0,0.6-0.1,0.8-0.5,1
		c-0.4,0.2-1.1,0.2-2.1,0.2c-0.1-0.3-0.2-0.7-0.4-1c0.8,0,1.4,0,1.5,0c0.2,0,0.3-0.1,0.3-0.2v-3.4h-4.6v1.7l2-0.1
		c-0.2-0.4-0.5-0.7-0.7-1l0.9-0.3c0.7,0.9,1.4,2,1.6,2.8l-0.9,0.3c-0.1-0.3-0.2-0.6-0.4-0.9c-2.6,0.2-5.2,0.3-7,0.4l-0.1-1
		c0.9,0,2.1-0.1,3.5-0.1v-1.7h-4.5v4.6h-1.2v-4.6H905v-1h0.6v-0.6h1.2v0.6h4.5v-1h-4.6v-4.8h10.4v4.8h-4.7v1h5.8V290.1z
		 M907.8,281.9h3.5v-1.2h-3.5V281.9z M911.3,283.9v-1.2h-3.5v1.2H911.3z M918.8,277.7v1h-3.6v1H914v-1h-1.9v-1h1.9v-1h1.2v1H918.8z
		 M915.9,280.8h-3.5v1.2h3.5V280.8z M915.9,282.7h-3.5v1.2h3.5V282.7z"/>
	<path class="st5" d="M933.2,289.9c0.6,0,0.7-0.4,0.8-2.9c0.3,0.2,0.8,0.4,1.1,0.5c-0.1,2.7-0.4,3.5-1.8,3.5H931
		c-1.4,0-1.8-0.4-1.8-1.8v-5.7h-3c-0.3,3.4-1.1,6.2-4.8,7.7c-0.1-0.3-0.5-0.7-0.8-0.9c3.4-1.3,4-3.8,4.2-6.8h-4v-1.2h14v1.2h-4.5
		v5.7c0,0.5,0.1,0.7,0.8,0.7H933.2z M933.6,279.1h-11.3v-1.1h11.3V279.1z"/>
	<path class="st5" d="M938.2,292.8c1.4-2.3,2-5,2-7.7c0-2.7-0.7-5.4-2-7.7l0.9-0.4c1.5,2.4,2.4,5,2.4,8.1c0,3.2-0.9,5.7-2.4,8.1
		L938.2,292.8z"/>
</g>
<path class="st6" d="M252.1,4.6V233c62.6-0.4,113.4-51.5,113.4-114.2C365.6,56,314.8,5,252.1,4.6z"/>
<path class="st7" d="M142.5,84.2c-3.6,11.2-5.4,22.8-5.4,34.6c0,62.7,50.8,113.8,113.4,114.2V119.3L142.5,84.2z"/>
<path class="st8" d="M250.6,117.7V4.6C201.5,4.9,158.4,36.2,143,82.7L250.6,117.7z"/>
<g>
	<g>
		<path class="st9" d="M271.6,103.7h5.3v1.2h-11.8v-1.2h5.1v-2.1h-3.8v-1.1h3.8v-1.9h-3.1v-1.1c-0.6,0.4-1.2,0.8-1.8,1.1
			c-0.2-0.3-0.5-0.8-0.8-1.1c1.7-0.7,3.6-2.1,4.9-3.5h-2.2v-1.2h4.5c1.2,1.9,3.6,3.7,5.9,4.6c-0.3,0.3-0.7,0.8-0.9,1.2
			c-0.6-0.3-1.2-0.6-1.8-1v1.1h-3.2v1.9h3.8v1.1h-3.8V103.7z M267.1,97.4h7.6c-1.4-1-2.8-2.2-3.8-3.5
			C270,95.2,268.6,96.4,267.1,97.4z"/>
		<path class="st9" d="M291.2,97.2c-0.7,1-1.6,2.1-2.4,2.9c0.6,1.3,1.5,2.3,2.7,3.1c-0.3,0.2-0.7,0.6-0.8,1c-1.4-1-2.3-2.2-3-3.6
			v3.1c0,0.7-0.2,1.1-0.6,1.3c-0.4,0.2-1.1,0.3-2.2,0.3c-0.1-0.3-0.3-0.9-0.4-1.2c0.8,0,1.4,0,1.6,0c0.2,0,0.3-0.1,0.3-0.3v-2.9
			c-1.1,1.1-2.2,2.1-3.1,3l-0.8-1.1l0.2-0.2c-1.4,0.5-3,1-4.1,1.3l-0.3-1.2c0.5-0.1,1.1-0.3,1.8-0.5v-3.6h-1.5v-1.2h1.5v-2.8h-1.6
			v-1.2h4.3v1.2h-1.5v2.8h1.3v1.2h-1.3v3.3l1.6-0.5l0.2,1c0.9-0.7,2.2-1.8,3.4-2.8v-3.5h-3.3v-1.2h3.3v-2.3h1.3v2.3h3.5v1.2h-3.5
			v0.6c0.2,1,0.4,1.8,0.6,2.5c0.6-0.7,1.3-1.7,1.7-2.4L291.2,97.2z M284.4,96.7c0.6,0.8,1.2,1.8,1.5,2.5l-1.1,0.5
			c-0.2-0.7-0.8-1.8-1.4-2.6L284.4,96.7z M290,94.7c-0.3-0.4-1-1.1-1.6-1.5l0.7-0.7c0.6,0.4,1.3,1,1.7,1.4L290,94.7z"/>
		<path class="st9" d="M296.3,92.7c-0.3,0.9-0.6,1.8-1,2.6v9.9h-1.2v-7.4c-0.4,0.6-0.7,1.1-1.1,1.5c-0.1-0.3-0.5-1-0.7-1.4
			c1.1-1.4,2.1-3.4,2.7-5.5L296.3,92.7z M304.2,101.8c-0.5,0.7-1.2,1.3-2.2,1.8c1,0.3,2.1,0.4,3.3,0.5c-0.2,0.2-0.5,0.7-0.6,1
			c-1.5-0.2-2.9-0.5-4.1-0.9c-1.2,0.4-2.6,0.7-4.2,0.9c-0.1-0.3-0.4-0.7-0.6-1c1.3-0.1,2.4-0.3,3.4-0.6c-0.4-0.2-0.8-0.4-1.1-0.7
			c-0.4,0.3-0.8,0.5-1.3,0.7c-0.2-0.3-0.5-0.6-0.7-0.8c0.5-0.2,0.9-0.4,1.3-0.6c-0.2-0.2-0.3-0.4-0.5-0.6l1-0.4
			c0.1,0.2,0.3,0.3,0.4,0.4c0.4-0.3,0.8-0.6,1.1-0.9c-0.4-0.1-0.5-0.4-0.5-0.9v-0.2c-0.3,0.5-0.8,1.1-1.3,1.4l-0.7-0.6
			c0.5-0.3,1.1-0.9,1.4-1.4l0.7,0.4v-0.3h1.1v0.7c0,0.3,0.1,0.3,0.5,0.3h1.5c0.3,0,0.4-0.1,0.4-0.5c0.2,0.1,0.5,0.2,0.8,0.3
			c-0.2-0.1-0.3-0.3-0.4-0.4l0.7-0.4c0.5,0.5,1.2,1.1,1.5,1.6l-0.7,0.5c-0.2-0.3-0.6-0.8-1-1.2c-0.1,0.8-0.4,1-1.1,1h-1.5
			c-0.1,0.2-0.3,0.3-0.5,0.5h3.2l0.2-0.1L304.2,101.8z M305.4,98v1.9h-1.2v-1.1h-3.3c0.4,0.3,0.8,0.6,1,0.8l-0.7,0.5
			c-0.3-0.3-0.8-0.7-1.2-1l0.5-0.3h-3.2v1.1h-1.1V98h1.3v-3.5h2.4c0.1-0.2,0.1-0.4,0.1-0.6h-3.5v-1h8.7v1h-3.8l-0.3,0.6h3.1V98
			H305.4z M298.6,95.2v0.5h4.3v-0.5H298.6z M302.9,96.3h-4.3v0.5h4.3V96.3z M298.6,98h4.3v-0.5h-4.3V98z M298.9,102.4
			c0.5,0.3,1.1,0.6,1.7,0.9c0.7-0.3,1.3-0.6,1.8-1h-3.3L298.9,102.4z"/>
		<path class="st9" d="M308.7,95.4c-0.2,0.7-0.6,1.5-1.3,2c-0.2-0.2-0.6-0.7-0.9-0.8c1-0.8,1.2-1.8,1.2-2.5V93
			c1.5-0.1,3.2-0.3,4.1-0.6l0.8,0.8c-1,0.3-2.4,0.5-3.7,0.6v0.3c0,0.1,0,0.2,0,0.3h3.9v1h-1.5V97h-1.1v-1.6H308.7z M315,103
			c1.5,0.4,3.1,1,4.1,1.4l-0.6,0.9c-1-0.5-2.6-1.1-4.2-1.5l0.5-0.8h-3.9l0.9,0.5c-1.2,0.7-3,1.4-4.4,1.8c-0.1-0.3-0.4-0.9-0.6-1.1
			c1.3-0.3,3-0.7,4-1.2h-2.3v-5.7h8.8v5.7H315z M309.8,98.9h6.3v-0.8h-6.3V98.9z M309.8,100.5h6.3v-0.8h-6.3V100.5z M309.8,102.1
			h6.3v-0.8h-6.3V102.1z M319.2,94.4v1h-2.1V97l-1.2,0v-1.6h-1.6c-0.1,0.7-0.4,1.3-1,1.8c-0.2-0.2-0.7-0.5-1-0.6
			c0.9-0.8,1-1.8,1-2.6v-1c1.5-0.1,3.3-0.3,4.3-0.6l0.8,0.7c-1.1,0.3-2.6,0.5-4.1,0.6V94c0,0.1,0,0.2,0,0.4H319.2z"/>
		<path class="st9" d="M326,94.9c-0.2,0.5-0.4,1-0.6,1.4h1.6v1.1h-6.4v-1.1h1.5c-0.1-0.4-0.3-1-0.4-1.4l1.1-0.2
			c0.2,0.5,0.4,1.2,0.5,1.6l-0.1,0h1.2c0.2-0.5,0.4-1.2,0.6-1.6L326,94.9z M326.4,103.8c0,0.6-0.1,0.9-0.5,1.1
			c-0.4,0.2-1,0.2-1.8,0.2c-0.1-0.3-0.3-0.8-0.4-1.1c0.5,0,1,0,1.2,0s0.2-0.1,0.2-0.2v-1.5c-0.8,0.4-1.7,0.8-2.4,1.2l-0.4-1
			c-0.1,1-0.3,2.1-0.8,2.9c-0.2-0.2-0.7-0.5-1-0.7c0.6-1.1,0.7-2.6,0.7-3.8v-2.7h5.1V103.8z M326.8,94.6h-6v-1.1h2.5
			c-0.1-0.3-0.2-0.6-0.3-0.9l1.2-0.3c0.2,0.3,0.4,0.8,0.5,1.2h2.2V94.6z M322.4,100.8c0,0.5,0,1-0.1,1.5c0.7-0.2,1.7-0.6,2.8-1v-2.3
			h-2.7V100.8z M323,99.6c0.7,0.2,1.6,0.6,2,0.8l-0.5,0.7c-0.5-0.2-1.4-0.7-2-0.9L323,99.6z M332.6,103.1c0.3,0.1,0.6,0.3,0.9,0.3
			c-0.2,1.3-0.5,1.7-1.6,1.7h-2.4c-1.4,0-1.8-0.3-1.8-1.6v-6h3.8v-1h-3.8v-4.1h1.3v1h4.3v1.1h-4.3v1h3.8v3h-3.8v0.7h3.8v0.8h-3.8
			v0.7h3.7v0.8h-3.7v0.8h3.8v0.8H332.6z M331.8,104c0.4,0,0.5-0.2,0.6-1h-3.4v0.4c0,0.5,0.1,0.6,0.7,0.6H331.8z"/>
		<path class="st9" d="M340.5,103.2c-2,0.5-4.1,0.9-5.6,1.3l-0.3-1.2c1-0.2,2.4-0.5,3.9-0.8l-0.6-0.2c0.2-0.8,0.5-2,0.6-2.8l1.3,0.3
			c-0.3,0.9-0.5,1.9-0.8,2.6l1.5-0.3L340.5,103.2z M340.3,94.2h-5.5V93h5.5V94.2z M339.9,99.2h-4.8v-3.8h4.8V99.2z M335.9,102.5
			c0-0.7-0.2-1.7-0.5-2.5l1.1-0.3c0.3,0.8,0.5,1.8,0.6,2.5L335.9,102.5z M338.8,96.5h-2.5v1.7h2.5V96.5z M343.4,103.4
			c-0.7,0.7-2,1.4-3.1,1.8c-0.2-0.2-0.6-0.6-0.9-0.9c1.1-0.4,2.3-1.1,2.8-1.7L343.4,103.4z M342.9,95.2c0.1-0.4,0.2-0.8,0.2-1.2
			h-2.5V93h6.7v1.1h-2.8c-0.1,0.4-0.3,0.8-0.4,1.2h2.7v7.3H341v-7.3H342.9z M345.7,96.2h-3.5v1.2h3.5V96.2z M345.7,98.3h-3.5v1.2
			h3.5V98.3z M345.7,100.4h-3.5v1.2h3.5V100.4z M345.3,102.8c0.8,0.5,1.8,1.2,2.4,1.7l-1.1,0.7c-0.5-0.5-1.5-1.3-2.3-1.8
			L345.3,102.8z"/>
		<path class="st9" d="M283.5,121.7c0,0.6-0.1,1-0.5,1.2c-0.4,0.2-0.9,0.2-1.8,0.2c0-0.3-0.2-0.9-0.3-1.2c0.5,0,1,0,1.2,0
			c0.2,0,0.2-0.1,0.2-0.3v-3.3l-1.4,0.9l-0.4-0.9c-0.1,1.7-0.4,3.6-0.9,5c-0.2-0.2-0.8-0.5-1.1-0.6c0.9-1.9,0.9-4.7,0.9-6.8v-5h4.1
			V121.7z M280.6,115.8c0,0.6,0,1.3,0,2.1c0.5-0.2,1.1-0.5,1.8-0.7v-1.6l-0.5,0.4c-0.3-0.4-0.8-1-1.2-1.4V115.8z M280.6,112v2
			l0.4-0.3c0.4,0.4,1,0.9,1.3,1.3v-3H280.6z M290.9,116.7c-0.5,1.7-1.3,3.1-2.5,4.1c0.8,0.6,1.8,1,2.9,1.2c-0.3,0.3-0.7,0.8-0.8,1.1
			c-1.2-0.3-2.2-0.9-3.1-1.5c-1,0.7-2,1.1-3.2,1.5c-0.2-0.3-0.4-0.9-0.7-1.1c1-0.3,2-0.7,2.9-1.2c-0.8-0.9-1.5-1.9-2-3l0.5-0.1h-0.9
			v-1.2h5.8l0.2,0L290.9,116.7z M286.6,112.4c0,1.3-0.4,2.8-2.1,3.7c-0.2-0.3-0.6-0.7-0.8-0.9c1.6-0.8,1.8-1.9,1.8-2.8v-1.5h4.4v3.1
			c0,0.4,0,0.5,0.2,0.5h0.7c0.2,0,0.5,0,0.6-0.1l0.1,1c-0.2,0.1-0.5,0.1-0.7,0.1h-0.8c-1.1,0-1.3-0.4-1.3-1.6v-1.9h-2V112.4z
			 M285.7,117.6c0.4,0.9,1,1.7,1.7,2.4c0.7-0.7,1.4-1.5,1.8-2.4H285.7z"/>
		<path class="st9" d="M296.8,110.7c-0.3,0.9-0.8,1.9-1.3,2.8v9.7h-1.3v-7.7c-0.4,0.5-0.8,1.1-1.3,1.5c-0.1-0.3-0.5-1-0.7-1.3
			c1.3-1.3,2.6-3.3,3.3-5.3L296.8,110.7z M300.4,121.4c-0.8,0.7-2.1,1.4-3.2,1.8c-0.2-0.2-0.7-0.7-1-0.9c1.1-0.3,2.3-0.8,3-1.4
			L300.4,121.4z M300.2,111.9h-3.3v-0.9h3.3v-0.7h1.3v0.7h3.4v0.9h-3.4v0.6h3.1v0.8h-3.1v0.6h3.9v0.9h-9V114h3.9v-0.6h-2.9v-0.8h2.9
			V111.9z M297.4,120.7v-5.3h7.1v5.3H297.4z M298.6,117h4.6v-0.7h-4.6V117z M298.6,118.4h4.6v-0.7h-4.6V118.4z M298.6,119.9h4.6
			v-0.7h-4.6V119.9z M302.7,120.8c1,0.5,2.1,1.2,2.7,1.8l-1.2,0.7c-0.6-0.5-1.7-1.4-2.6-1.9L302.7,120.8z"/>
		<path class="st9" d="M311.1,118.9c0-0.2-0.1-0.5-0.2-0.8c-3.1,0.5-3.6,0.6-3.9,0.7c-0.1-0.3-0.3-0.9-0.4-1.2
			c0.3-0.1,0.6-0.4,1.1-0.9c0.2-0.2,0.6-0.7,1.1-1.4c-1.4,0.2-1.7,0.2-1.9,0.3c-0.1-0.2-0.3-0.8-0.4-1.1c0.3-0.1,0.5-0.3,0.8-0.8
			c0.3-0.4,1.3-2,1.9-3.5l1.2,0.5c-0.6,1.2-1.4,2.5-2.1,3.5l1.4-0.1c0.4-0.6,0.7-1.2,1-1.8l1.1,0.7c-0.9,1.5-2,3.1-3.2,4.3l2.1-0.3
			c-0.1-0.4-0.3-0.8-0.4-1.2l1-0.3c0.4,0.9,0.8,2.2,0.9,2.9L311.1,118.9z M308.2,119.5c-0.1,1.2-0.4,2.5-0.7,3.4
			c-0.2-0.1-0.8-0.3-1-0.4c0.3-0.8,0.5-2.1,0.6-3.2L308.2,119.5z M309.9,119.3c0.2,1,0.3,2.2,0.4,3l-1.1,0.2c0-0.8-0.2-2.1-0.4-3
			L309.9,119.3z M311.4,118.9c0.3,0.7,0.6,1.7,0.7,2.3l-1,0.3c-0.1-0.6-0.4-1.6-0.6-2.4L311.4,118.9z M319.4,121.8v1.2h-7.8v-1.2
			h1.2V111h5.7v10.7H319.4z M313.9,112.2v2.3h3.3v-2.3H313.9z M317.2,115.7h-3.3v2.4h3.3V115.7z M313.9,121.8h3.3v-2.5h-3.3V121.8z"
			/>
		<path class="st9" d="M328.3,110.9c-0.1,0.2-0.3,0.4-0.4,0.6c1.7,1.7,3.6,2.7,5.7,3.6c-0.4,0.3-0.7,0.8-0.9,1.2
			c-0.7-0.4-1.5-0.7-2.2-1.1v0.9h-7v-0.7c-0.7,0.4-1.3,0.8-2,1.1c-0.2-0.4-0.6-0.8-1-1.2c2.6-1,5.2-2.8,6.6-5L328.3,110.9z
			 M322.7,117.5h8.8v5.6h-1.4v-0.6H324v0.7h-1.3V117.5z M324,118.7v2.6h6.1v-2.6H324z M330,114.8c-1-0.7-2-1.4-3-2.4
			c-0.8,0.9-1.8,1.7-2.8,2.4H330z"/>
	</g>
</g>
<g>
	<g>
		<path class="st9" d="M290.7,153.3l1.3-1.8c1,1,2.3,1.9,4.1,1.9c2,0,3.5-1.4,3.5-3.8c0-2.4-1.3-3.7-3.4-3.7c-1.1,0-1.8,0.3-2.8,1
			l-1.3-0.9l0.5-8.4h9v2.3H295l-0.4,4.5c0.7-0.4,1.5-0.6,2.4-0.6c3,0,5.4,1.8,5.4,5.6c0,3.9-2.9,6.1-6,6.1
			C293.7,155.6,291.9,154.5,290.7,153.3z"/>
		<path class="st9" d="M304.8,146.4c0-6.1,2.2-9.1,5.7-9.1c3.5,0,5.7,3,5.7,9.1c0,6.1-2.3,9.2-5.7,9.2
			C307.1,155.6,304.8,152.6,304.8,146.4z M313.6,146.4c0-5.1-1.3-6.9-3.1-6.9c-1.8,0-3.1,1.8-3.1,6.9c0,5.1,1.3,7,3.1,7
			C312.4,153.4,313.6,151.5,313.6,146.4z"/>
		<path class="st9" d="M319.3,147.1c0-2.1,1-3.2,2.4-3.2c1.4,0,2.4,1.2,2.4,3.2s-1,3.3-2.4,3.3C320.3,150.3,319.3,149.1,319.3,147.1
			z M323,147.1c0-1.6-0.5-2.3-1.2-2.3c-0.7,0-1.2,0.7-1.2,2.3c0,1.6,0.5,2.3,1.2,2.3C322.5,149.4,323,148.6,323,147.1z M327.7,143.8
			h1l-5.7,10.7h-1L327.7,143.8z M326.6,151.2c0-2.1,1-3.2,2.4-3.2c1.4,0,2.4,1.2,2.4,3.2s-1,3.3-2.4,3.3
			C327.6,154.5,326.6,153.3,326.6,151.2z M330.3,151.2c0-1.6-0.5-2.3-1.2-2.3c-0.7,0-1.2,0.7-1.2,2.3c0,1.6,0.5,2.3,1.2,2.3
			C329.8,153.6,330.3,152.8,330.3,151.2z"/>
	</g>
</g>
<g>
	<g>
		<path class="st9" d="M195.8,78.6c5.2-4.6,7.9-8,7.9-10.9c0-1.9-1-3.2-3-3.2c-1.4,0-2.5,0.9-3.5,2l-1.6-1.5
			c1.5-1.6,3.1-2.6,5.4-2.6c3.2,0,5.3,2.1,5.3,5.3c0,3.4-2.7,6.9-6.5,10.5c0.9-0.1,2-0.2,2.9-0.2h4.4v2.4h-11.4V78.6z"/>
		<path class="st9" d="M209.6,71.3c0-6.1,2.2-9.1,5.7-9.1c3.5,0,5.7,3,5.7,9.1c0,6.1-2.3,9.2-5.7,9.2
			C211.8,80.5,209.6,77.5,209.6,71.3z M218.4,71.3c0-5.1-1.3-6.9-3.1-6.9c-1.8,0-3.1,1.8-3.1,6.9c0,5.1,1.3,7,3.1,7
			C217.1,78.4,218.4,76.4,218.4,71.3z"/>
		<path class="st9" d="M224.1,72c0-2.1,1-3.2,2.4-3.2c1.4,0,2.4,1.2,2.4,3.2s-1,3.3-2.4,3.3C225.1,75.3,224.1,74,224.1,72z
			 M227.7,72c0-1.6-0.5-2.3-1.2-2.3c-0.7,0-1.2,0.7-1.2,2.3c0,1.6,0.5,2.3,1.2,2.3C227.2,74.3,227.7,73.6,227.7,72z M232.5,68.7h1
			l-5.7,10.7h-1L232.5,68.7z M231.4,76.1c0-2.1,1-3.2,2.4-3.2c1.4,0,2.4,1.2,2.4,3.2s-1,3.3-2.4,3.3
			C232.4,79.4,231.4,78.2,231.4,76.1z M235.1,76.1c0-1.6-0.5-2.3-1.2-2.3c-0.7,0-1.2,0.7-1.2,2.3c0,1.6,0.5,2.3,1.2,2.3
			C234.5,78.5,235.1,77.7,235.1,76.1z"/>
	</g>
</g>
<g>
	<g>
		<path class="st9" d="M208.4,39.2V51h-1.4v-0.9h-6.6V51h-1.3V39.2H208.4z M200.5,40.5V44h6.6v-3.4H200.5z M207.1,48.8v-3.6h-6.6
			v3.6H207.1z"/>
		<path class="st9" d="M216.2,49.7c0,0.6-0.1,1-0.5,1.2c-0.4,0.2-0.9,0.2-1.8,0.2c0-0.3-0.2-0.9-0.3-1.2c0.5,0,1,0,1.2,0
			c0.2,0,0.2-0.1,0.2-0.3v-3.3l-1.4,0.9l-0.4-0.9c-0.1,1.7-0.4,3.6-0.9,5c-0.2-0.2-0.8-0.5-1.1-0.6c0.9-1.9,0.9-4.7,0.9-6.8v-5h4.1
			V49.7z M213.3,43.8c0,0.6,0,1.3,0,2.1c0.5-0.2,1.1-0.5,1.8-0.7v-1.6l-0.5,0.4c-0.3-0.4-0.8-1-1.2-1.4V43.8z M213.3,40v2l0.4-0.3
			c0.4,0.4,1,0.9,1.3,1.3v-3H213.3z M223.7,44.7c-0.5,1.7-1.3,3.1-2.5,4.1c0.8,0.6,1.8,1,2.9,1.2c-0.3,0.3-0.7,0.8-0.8,1.1
			c-1.2-0.3-2.2-0.9-3.1-1.5c-1,0.7-2,1.1-3.2,1.5c-0.2-0.3-0.4-0.9-0.7-1.1c1-0.3,2-0.7,2.9-1.2c-0.8-0.9-1.5-1.9-2-3l0.5-0.1h-0.9
			v-1.2h5.8l0.2,0L223.7,44.7z M219.3,40.4c0,1.3-0.4,2.8-2.1,3.7c-0.2-0.3-0.6-0.7-0.8-0.9c1.6-0.8,1.8-1.9,1.8-2.8v-1.5h4.4V42
			c0,0.4,0,0.5,0.2,0.5h0.7c0.2,0,0.5,0,0.6-0.1l0.1,1c-0.2,0.1-0.5,0.1-0.7,0.1h-0.8c-1.1,0-1.3-0.4-1.3-1.6v-1.9h-2V40.4z
			 M218.5,45.6c0.4,0.9,1,1.7,1.7,2.4c0.7-0.7,1.4-1.5,1.8-2.4H218.5z"/>
	</g>
</g>
<g>
	<g>
		<path class="st9" d="M182.3,175.3l1.3-1.8c1,1.1,2.4,1.9,4.2,1.9c2,0,3.4-1.1,3.4-2.9c0-2-1.2-3.2-5.2-3.2v-2
			c3.5,0,4.6-1.3,4.6-3.1c0-1.6-1-2.5-2.7-2.6c-1.4,0-2.5,0.7-3.5,1.7l-1.4-1.7c1.4-1.2,3-2.1,5.1-2.1c3.2,0,5.4,1.6,5.4,4.6
			c0,2-1.2,3.5-3,4.2v0.1c2,0.5,3.6,2,3.6,4.4c0,3.2-2.7,5.1-5.9,5.1C185.3,177.7,183.5,176.6,182.3,175.3z"/>
		<path class="st9" d="M196.5,168.5c0-6.1,2.2-9.1,5.7-9.1c3.5,0,5.7,3,5.7,9.1c0,6.1-2.3,9.2-5.7,9.2
			C198.7,177.7,196.5,174.7,196.5,168.5z M205.3,168.5c0-5.1-1.3-6.9-3.1-6.9c-1.8,0-3.1,1.8-3.1,6.9c0,5.1,1.3,7,3.1,7
			C204,175.5,205.3,173.6,205.3,168.5z"/>
		<path class="st9" d="M211,169.2c0-2.1,1-3.2,2.4-3.2c1.4,0,2.4,1.2,2.4,3.2s-1,3.3-2.4,3.3C211.9,172.4,211,171.2,211,169.2z
			 M214.6,169.2c0-1.6-0.5-2.3-1.2-2.3c-0.7,0-1.2,0.7-1.2,2.3c0,1.6,0.5,2.3,1.2,2.3C214.1,171.5,214.6,170.7,214.6,169.2z
			 M219.3,165.9h1l-5.7,10.7h-1L219.3,165.9z M218.3,173.3c0-2.1,1-3.2,2.4-3.2c1.4,0,2.4,1.2,2.4,3.2s-1,3.3-2.4,3.3
			C219.3,176.6,218.3,175.4,218.3,173.3z M221.9,173.3c0-1.6-0.5-2.3-1.2-2.3c-0.7,0-1.2,0.7-1.2,2.3c0,1.6,0.5,2.3,1.2,2.3
			C221.4,175.7,221.9,174.9,221.9,173.3z"/>
	</g>
</g>
<g>
	<g>
		<path class="st9" d="M192.9,137c1.3,1.2,3,2.9,3.7,4.1l-1.1,0.8c-0.2-0.4-0.5-0.7-0.8-1.1c-7.7,0.4-8.6,0.4-9.2,0.7
			c-0.1-0.3-0.3-0.9-0.4-1.3c0.3-0.1,0.7-0.3,1.1-0.8c0.5-0.5,2.1-2.2,3.1-3.9l1.3,0.6c-1,1.4-2.2,2.8-3.3,3.9l6.5-0.3
			c-0.6-0.7-1.2-1.3-1.8-1.9L192.9,137z M186.1,142.4h9.1v5.9h-1.4v-0.7h-6.4v0.7h-1.3V142.4z M187.4,143.7v2.7h6.4v-2.7H187.4z"/>
		<path class="st9" d="M203.1,146.8c0,0.6-0.1,1-0.5,1.2c-0.4,0.2-0.9,0.2-1.8,0.2c0-0.3-0.2-0.9-0.3-1.2c0.5,0,1,0,1.2,0
			c0.2,0,0.2-0.1,0.2-0.3v-3.3l-1.4,0.9l-0.4-0.9c-0.1,1.7-0.4,3.6-0.9,5c-0.2-0.2-0.8-0.5-1.1-0.6c0.9-1.9,0.9-4.7,0.9-6.8v-5h4.1
			V146.8z M200.2,141c0,0.6,0,1.3,0,2.1c0.5-0.2,1.1-0.5,1.8-0.7v-1.6l-0.5,0.4c-0.3-0.4-0.8-1-1.2-1.4V141z M200.2,137.2v2l0.4-0.3
			c0.4,0.4,1,0.9,1.3,1.3v-3H200.2z M210.6,141.9c-0.5,1.7-1.3,3.1-2.5,4.1c0.8,0.6,1.8,1,2.9,1.2c-0.3,0.3-0.7,0.8-0.8,1.1
			c-1.2-0.3-2.2-0.9-3.1-1.5c-1,0.7-2,1.1-3.2,1.5c-0.2-0.3-0.4-0.9-0.7-1.1c1-0.3,2-0.7,2.9-1.2c-0.8-0.9-1.5-1.9-2-3l0.5-0.1h-0.9
			v-1.2h5.8l0.2,0L210.6,141.9z M206.2,137.6c0,1.3-0.4,2.8-2.1,3.7c-0.2-0.3-0.6-0.7-0.8-0.9c1.6-0.8,1.8-1.9,1.8-2.8v-1.5h4.4v3.1
			c0,0.4,0,0.5,0.2,0.5h0.7c0.2,0,0.5,0,0.6-0.1l0.1,1c-0.2,0.1-0.5,0.1-0.7,0.1h-0.8c-1.1,0-1.3-0.4-1.3-1.6v-1.9h-2V137.6z
			 M205.4,142.8c0.4,0.9,1,1.7,1.7,2.4c0.7-0.7,1.4-1.5,1.8-2.4H205.4z"/>
	</g>
</g>
<g>
	<path class="st1" d="M621.1,21.5c-2.5,5.5-8.4,7.4-15.3,8c-0.2-0.6-0.5-1.5-0.9-2.1c2.8-0.2,5.5-0.6,7.8-1.4
		c-0.5-0.5-1.2-1.1-1.9-1.7c-0.7,0.4-1.5,0.7-2.3,1c-0.3-0.5-0.9-1.3-1.3-1.7c3.7-1.2,6.2-2.9,7.6-4.7l2.3,0.5
		c-0.4,0.4-0.7,0.8-1.1,1.2h3.2l0.4-0.1L621.1,21.5z M618.7,14.9c-2.3,4.1-7.4,6.4-12.6,7.3c-0.2-0.5-0.6-1.4-1-1.9
		c1.8-0.3,3.7-0.7,5.3-1.4c-0.5-0.5-1.1-1.1-1.8-1.6c-0.5,0.3-1.1,0.6-1.6,0.8c-0.3-0.5-1-1.2-1.5-1.5c2.9-1.1,5-2.6,6.2-4l2.3,0.5
		c-0.3,0.3-0.6,0.6-1,1h3.8l0.4-0.1L618.7,14.9z M610.8,16c-0.2,0.1-0.3,0.2-0.5,0.4c0.8,0.5,1.5,1.2,2,1.7c1.2-0.6,2.2-1.3,3-2.1
		H610.8z M613.7,22.6c-0.3,0.2-0.7,0.5-1,0.7c0.7,0.5,1.5,1.2,2.1,1.8c1.2-0.7,2.3-1.5,3-2.5H613.7z"/>
	<path class="st1" d="M636.5,27.2c0.6,0,0.7-0.5,0.8-3.1c0.5,0.4,1.4,0.8,2,0.9c-0.2,3.2-0.8,4.2-2.6,4.2h-2.2c-2,0-2.6-0.7-2.6-2.8
		v-5.5h-2.7c-0.3,3.7-1.2,6.8-5.5,8.6c-0.3-0.5-0.8-1.3-1.3-1.7c3.7-1.4,4.2-3.8,4.5-6.8h-4.1v-2.1H639v2.1h-4.8v5.5
		c0,0.7,0.1,0.8,0.7,0.8H636.5z M637.3,16h-12.8v-2.1h12.8V16z"/>
	<path class="st1" d="M652,15.8c1,1,2.9,1.4,5.3,1.5c-0.4,0.4-0.9,1.2-1.2,1.7c-2-0.3-3.6-0.8-4.7-1.8c-0.7,0.8-2.2,1.5-5.2,1.8
		c-0.1-0.3-0.4-0.8-0.7-1.2h-4.8v-1.6h5.4v1.1c3.4-0.4,3.9-1.2,3.9-1.8v-0.3h-1.1c-0.4,0.6-0.8,1.1-1.3,1.5
		c-0.3-0.3-1.1-0.8-1.6-1.1c1-0.8,1.7-2,2.1-3.2l1.9,0.4c-0.1,0.3-0.2,0.5-0.3,0.8h5.1l0.3-0.1l1.5,0.5c-0.5,1-1.1,2.1-1.7,2.8
		l-1.7-0.6c0.2-0.3,0.4-0.7,0.6-1h-2v0.4V15.8z M652.5,26.4c1.7,0.6,3.4,1.3,4.5,1.9l-1.9,1.2c-1-0.6-2.9-1.5-4.7-2.1l1.1-0.9h-5.1
		l1.6,0.7c-1.5,0.9-3.8,1.8-5.6,2.3c-0.4-0.4-1.1-1.2-1.6-1.6c1.7-0.3,3.7-0.9,4.9-1.5H643v-7.3h12v7.3H652.5z M645.7,15.1h-4.6
		v-1.6h4.6V15.1z M645.1,21.2h7.8v-0.8h-7.8V21.2z M645.1,23.2h7.8v-0.8h-7.8V23.2z M645.1,25.2h7.8v-0.8h-7.8V25.2z"/>
	<path class="st1" d="M675.3,27.3V29h-13.2v-1.7h5.5v-1h-3.8V25c-0.3,0.4-0.7,0.8-1,1.1c-0.1-0.4-0.5-1.3-0.8-1.8
		c-0.2,1.9-0.7,3.9-1.9,5.4c-0.3-0.4-1.2-1.2-1.7-1.4c1.5-1.8,1.6-4.4,1.6-6.2v-3.2h2.4c-0.3-0.3-0.6-0.6-0.9-0.8
		c1.3-0.2,2.7-0.5,4.1-0.8c-1.1-0.3-2.3-0.5-3.4-0.7l1-0.8h-3.1v-1.7h6.3c-0.2-0.3-0.5-0.7-0.7-0.9l1.4-0.7c0.4,0.5,0.9,1.1,1.2,1.6
		h6.2v1.7h-2.6l0.9,0.5c-0.6,0.3-1.4,0.6-2.2,0.9c1.1,0.3,2,0.6,2.8,0.8l-1,0.8h2.6v1.7H662v1.5c0,0.6,0,1.2-0.1,1.9
		c0.9-0.8,1.6-2,2.1-3.2l1.8,0.5c-0.1,0.2-0.2,0.5-0.3,0.7h2.1v-1.1h2.1V22h4.4v1.7h-4.4v0.9h3.9v1.6h-3.9v1H675.3z M667.6,24.6
		v-0.9h-2.9c-0.2,0.3-0.4,0.6-0.6,0.9H667.6z M671.2,18.9c-0.9-0.3-2-0.6-3.1-0.9c-1.3,0.3-2.6,0.6-3.9,0.9H671.2z M664.8,15.8
		c1.1,0.3,2.3,0.5,3.5,0.8c0.9-0.2,1.7-0.5,2.4-0.8H664.8z"/>
	<path class="st1" d="M682.3,23.9c0-0.3-0.1-0.6-0.2-0.9c-3.9,0.6-4.5,0.7-5,0.9c-0.1-0.4-0.4-1.4-0.7-1.9c0.5-0.1,0.9-0.5,1.5-1.2
		c0.2-0.3,0.7-0.8,1.2-1.5c-1.4,0.2-1.9,0.3-2.1,0.4c-0.1-0.4-0.4-1.3-0.6-1.8c0.4-0.1,0.7-0.4,1.1-1c0.4-0.5,1.6-2.5,2.3-4.4
		l1.9,0.8c-0.7,1.5-1.6,3-2.6,4.3l1.3-0.1c0.5-0.8,0.9-1.5,1.3-2.3l1.8,1.1c-1.1,1.8-2.5,3.7-3.9,5.3l2.1-0.3
		c-0.1-0.5-0.3-0.9-0.4-1.3l1.6-0.5c0.5,1.2,1,2.8,1.1,3.8L682.3,23.9z M679,24.8c-0.1,1.6-0.4,3.3-0.8,4.4
		c-0.4-0.2-1.2-0.5-1.7-0.6c0.4-1,0.6-2.7,0.7-4.1L679,24.8z M681.1,24.4c0.2,1.3,0.5,2.8,0.5,3.9l-1.7,0.4c0-1-0.2-2.7-0.4-3.9
		L681.1,24.4z M683.1,23.8c0.4,0.9,0.7,2.1,0.9,2.8l-1.7,0.6c-0.1-0.8-0.5-2-0.8-2.9L683.1,23.8z M693.3,27.2v1.9H683v-1.9h1.4V13.6
		h7.7v13.7H693.3z M686.4,15.5v2.6h3.7v-2.6H686.4z M690.1,20h-3.7v2.6h3.7V20z M686.4,27.2l3.7,0v-2.7h-3.7V27.2z"/>
	<path class="st1" d="M705,13.5c-0.2,0.3-0.4,0.5-0.6,0.8c2.3,2.1,4.7,3.4,7.1,4.2c-0.6,0.5-1.2,1.3-1.5,2c-0.9-0.4-1.7-0.8-2.6-1.3
		v1.2h-9v-0.9c-0.8,0.5-1.6,0.9-2.4,1.3c-0.3-0.6-1-1.4-1.6-2c3.3-1.3,6.7-3.5,8.6-6.3L705,13.5z M697.3,21.9h11.6v7.4h-2.3v-0.7
		h-7.1v0.8h-2.2V21.9z M699.5,23.8v2.8h7.1v-2.8H699.5z M706.2,18.4c-1-0.7-2.1-1.5-3.1-2.6c-0.9,1-1.9,1.8-3,2.6H706.2z"/>
	<path class="st1" d="M716.9,22.8V27c0,1-0.2,1.6-0.8,1.9c-0.6,0.3-1.5,0.4-2.7,0.4c-0.1-0.6-0.3-1.4-0.6-1.9c0.7,0,1.5,0,1.7,0
		c0.3,0,0.3-0.1,0.3-0.3v-3.7l-1.8,0.5l-0.6-2.1c0.7-0.1,1.5-0.3,2.4-0.5V18h-2.1v-2h2.1v-3.4h2.1v3.4h1.9v2h-1.9v2.6l1.3-0.3l0.3,2
		L716.9,22.8z M728.3,20.9c-0.6,2.2-1.7,3.9-3.1,5.2c1.2,0.6,2.6,1.1,4.2,1.4c-0.5,0.5-1,1.4-1.4,2c-1.8-0.4-3.3-1.1-4.6-1.9
		c-1.4,0.9-3.1,1.5-4.9,1.9c-0.2-0.6-0.7-1.5-1-2c1.5-0.3,2.9-0.7,4.2-1.4c-1-1-1.8-2.1-2.5-3.5l0.7-0.2h-1v-2h7.8l0.4-0.1
		L728.3,20.9z M719.3,20.2c-0.3-0.4-1-1.2-1.4-1.5c2.1-1,2.4-2.3,2.4-3.5v-1.9h6.4v3.9c0,0.5,0,0.7,0.3,0.7h1c0.3,0,0.8-0.1,1-0.1
		c0,0.5,0.1,1.3,0.2,1.8c-0.3,0.1-0.7,0.1-1.1,0.1h-1.2c-1.8,0-2.1-0.8-2.1-2.6v-1.9l-2.3,0C722.3,17,721.7,19,719.3,20.2z
		 M721.2,22.4c0.5,1,1.3,1.8,2.2,2.5c0.8-0.7,1.5-1.5,2.1-2.5H721.2z"/>
	<path class="st1" d="M742,15.8c1,1,2.9,1.4,5.3,1.5c-0.4,0.4-0.9,1.2-1.2,1.7c-2-0.3-3.6-0.8-4.7-1.8c-0.7,0.8-2.2,1.5-5.2,1.8
		c-0.1-0.3-0.4-0.8-0.7-1.2h-4.8v-1.6h5.4v1.1c3.4-0.4,3.9-1.2,3.9-1.8v-0.3h-1.1c-0.4,0.6-0.8,1.1-1.3,1.5
		c-0.3-0.3-1.1-0.8-1.6-1.1c1-0.8,1.7-2,2.1-3.2l1.9,0.4c-0.1,0.3-0.2,0.5-0.3,0.8h5.1l0.3-0.1l1.5,0.5c-0.5,1-1.1,2.1-1.7,2.8
		l-1.7-0.6c0.2-0.3,0.4-0.7,0.6-1h-2v0.4V15.8z M742.5,26.4c1.7,0.6,3.4,1.3,4.5,1.9l-1.9,1.2c-1-0.6-2.9-1.5-4.7-2.1l1.1-0.9h-5.1
		l1.6,0.7c-1.5,0.9-3.8,1.8-5.6,2.3c-0.4-0.4-1.1-1.2-1.6-1.6c1.7-0.3,3.7-0.9,4.9-1.5H733v-7.3h12v7.3H742.5z M735.7,15.1h-4.6
		v-1.6h4.6V15.1z M735.1,21.2h7.8v-0.8h-7.8V21.2z M735.1,23.2h7.8v-0.8h-7.8V23.2z M735.1,25.2h7.8v-0.8h-7.8V25.2z"/>
	<path class="st1" d="M748.7,13.3h8.6v1.8H755v1.8h2.1v12.3h-1.7v-0.9h-4.9v1.2H749V16.9h2v-1.8h-2.3L748.7,13.3z M755.5,26.6v-4.1
		h0h-0.7c-0.9,0-1.2-0.3-1.2-1.5v-2.4h-0.8V20c0,1.1-0.2,2.4-1.2,3.2c-0.2-0.2-0.6-0.6-0.9-0.8v4.2H755.5z M750.6,18.6v3.7
		c0.8-0.7,0.9-1.6,0.9-2.4v-1.3H750.6z M751.1,23.8h3.8v1.6h-3.8V23.8z M753.4,15.1h-0.8v1.8h0.8V15.1z M755.5,18.6h-0.8V21
		c0,0.3,0,0.3,0.2,0.3h0.4c0.1,0,0.2,0,0.2,0V18.6z M762.6,27.2c0.6,0,0.7-0.5,0.8-2.8c0.5,0.3,1.4,0.7,1.9,0.8c-0.2,3-0.8,4-2.6,4
		h-2.4c-1.9,0-2.6-0.6-2.6-2.8v-7.3h4.7v-3.6h-4.8v-2h6.9v7.7H760v5.2c0,0.7,0.1,0.8,0.7,0.8H762.6z"/>
	<path class="st1" d="M783,27.5V29h-16.2v-1.5h2.1v-7.3h4.4c0-0.2,0.1-0.5,0.1-0.7h-6.4v-1.6h6.5c0-0.3,0.1-0.5,0.1-0.7h-5.9v-3.9
		h14.2v3.9h-6.2c0,0.2-0.1,0.5-0.1,0.7h6.7v1.6h-7l-0.1,0.7h5.4v7.3H783z M771.9,14.7h-2v1h2V14.7z M771,21.5v0.7h7.7v-0.7H771z
		 M778.7,23.2H771v0.7h7.7V23.2z M771,25.7h7.7V25H771V25.7z M771,27.5h7.7v-0.7H771V27.5z M773.9,15.8h2v-1h-2V15.8z M777.9,15.8
		h2.1v-1h-2.1V15.8z"/>
	<path class="st1" d="M614,50.9c0.7,0.1,1.4,0.1,2.1,0.1c1,0,3.9,0,5.2,0c-0.3,0.5-0.7,1.5-0.8,2.2h-4.5c-3.4,0-5.8-0.6-7.5-3.2
		c-0.6,1.4-1.4,2.6-2.4,3.5c-0.3-0.4-1.3-1.1-1.7-1.4c1.9-1.5,2.8-4,3.2-7l2.2,0.2c-0.1,0.8-0.2,1.5-0.4,2.2
		c0.5,1.5,1.4,2.3,2.4,2.9v-6.1H608v-2.1h9.9v2.1H614v2.1h4.9v2H614V50.9z M607.3,43h-2.1v-4.5h6.7c-0.2-0.5-0.4-1-0.6-1.5l2.2-0.6
		c0.4,0.6,0.7,1.4,0.9,2.1h6.2V43h-2.2v-2.5h-11.1V43z"/>
	<path class="st1" d="M626.7,49.9c-0.6,1.3-1.7,2.7-2.7,3.6c-0.4-0.4-1.2-1-1.7-1.3c0.9-0.7,1.9-1.8,2.4-2.9L626.7,49.9z
		 M631.4,49.2h-8.8v-1.9h1.6v-6.7h-1.4v-1.9h1.4v-1.9h1.9v1.9h2.2v-1.9h2v1.9h1.2v1.9h-1.2v6.7h1.1V49.2z M626.1,40.6v1h2.2v-1
		H626.1z M626.1,44.5h2.2v-1.1h-2.2V44.5z M626.1,47.3h2.2v-1.2h-2.2V47.3z M638.8,51.1c0,1.1-0.2,1.6-0.8,2s-1.5,0.4-2.9,0.4
		c-0.1-0.6-0.3-1.5-0.6-2c0.8,0.1,1.6,0,1.9,0c0.3,0,0.4-0.1,0.4-0.4v-3.5h-2.7c-0.2,2.1-0.6,4.4-1.6,6c-0.3-0.4-1.2-1-1.7-1.2
		c0.1-0.1,0.1-0.2,0.2-0.3l-1.5,0.8c-0.4-0.7-1.2-1.9-1.9-2.7l1.6-0.9c0.6,0.7,1.5,1.7,1.9,2.4c1-2.3,1.1-5.3,1.1-7.6v-6.6h6.7V51.1
		z M636.7,45.6v-2.2h-2.6V44c0,0.5,0,1,0,1.5H636.7z M634.1,39.4v2.1h2.6v-2.1H634.1z"/>
	<path class="st1" d="M650,50.9c0.7,0.1,1.4,0.1,2.1,0.1c1,0,3.9,0,5.2,0c-0.3,0.5-0.7,1.5-0.8,2.2h-4.5c-3.4,0-5.8-0.6-7.5-3.2
		c-0.6,1.4-1.4,2.6-2.4,3.5c-0.3-0.4-1.3-1.1-1.7-1.4c1.9-1.5,2.8-4,3.2-7l2.2,0.2c-0.1,0.8-0.2,1.5-0.4,2.2
		c0.5,1.5,1.4,2.3,2.4,2.9v-6.1H644v-2.1h9.9v2.1H650v2.1h4.9v2H650V50.9z M643.3,43h-2.1v-4.5h6.7c-0.2-0.5-0.4-1-0.6-1.5l2.2-0.6
		c0.4,0.6,0.7,1.4,0.9,2.1h6.2V43h-2.2v-2.5h-11.1V43z"/>
	<path class="st1" d="M665.9,47.9L665.9,47.9l0.1,5.5h-1.9V53h-2.3v0.5H660v-5.2c-0.2,0.1-0.4,0.2-0.6,0.3c-0.2-0.5-0.7-1.3-1-1.7
		c1.1-0.3,2.2-0.8,3.1-1.4c-0.3-0.2-0.6-0.4-0.9-0.6l1.2-1.2l1.2,0.6c0.4-0.3,0.7-0.8,1-1.2h-2.2c-0.5,0.8-1.2,1.4-2,2
		c-0.2-0.5-0.7-1.1-1-1.4c1.4-0.9,2.2-2.1,2.6-3.3l1.6,0.3c-0.1,0.3-0.2,0.5-0.3,0.8h2.3l0.3-0.1l0,0v-1.4h-4.8v1.5h-1.5v-3.2h3.2
		c-0.1-0.4-0.3-0.8-0.4-1.1l1.7-0.6c0.2,0.5,0.5,1.2,0.7,1.7h2.9v3.2h-1.4l0.8,0.6c-0.4,1.1-1.1,2.1-1.8,3c1,0.6,1.9,1.1,2.5,1.6
		L665.9,47.9z M665.3,47.9c-0.6-0.4-1.4-0.9-2.2-1.5c-0.7,0.6-1.5,1.1-2.3,1.5H665.3z M664.1,51.3v-1.8h-2.3v1.8H664.1z M672.6,49.9
		c1,0.6,2.2,1.5,2.9,2.1l-1.2,1.5c-0.6-0.7-2-1.7-3-2.4l1.1-1.2h-2.7l1.3,1.3c-1.1,0.8-2.6,1.7-3.9,2.3c-0.2-0.5-0.6-1.1-0.9-1.6
		c1.1-0.5,2.6-1.4,3.4-2.1h-1.9v-9.5h2.3c0.1-0.4,0.1-0.8,0.2-1.2h-2.9v-1.8h8v1.8h-3.2c-0.1,0.4-0.3,0.9-0.4,1.2h3.1v9.5H672.6z
		 M669.6,43.1h3.2v-1h-3.2V43.1z M669.6,45.7h3.2v-1.1h-3.2V45.7z M669.6,48.3h3.2v-1.1h-3.2V48.3z"/>
	<path class="st1" d="M681.7,41.2h2.9V43h-1.8l1.1,0.3c-0.3,0.6-0.6,1.2-0.9,1.8h1.2v1.8h-2.5v1.4h2.9v1.8h-2.9v3.2h-2v-3.2h-3.1
		v-1.8h3.1v-1.4h-2.7v-1.8h1.3c-0.1-0.5-0.4-1.2-0.6-1.8l1-0.3h-2.1v-1.8h3.1V40h-2.6v-1.8h2.6v-1.5h2v1.5h2.5V40h-2.5V41.2z
		 M681.2,45.1c0.3-0.7,0.6-1.4,0.9-2.1h-2.8c0.3,0.6,0.6,1.3,0.7,1.8l-0.8,0.3H681.2z M693,44c-0.3,2.1-1,4.1-1.9,5.8
		c0.7,0.8,1.5,1.5,2.5,1.9c-0.5,0.4-1.1,1.2-1.4,1.7c-0.8-0.5-1.5-1.1-2.2-1.9c-0.6,0.8-1.3,1.5-2.1,2c-0.2-0.3-0.5-0.6-0.8-1v0.9
		h-1.9v-16h7.4v3.4c0,0.9-0.2,1.4-0.9,1.7c-0.7,0.3-1.7,0.3-3,0.3c-0.1-0.6-0.4-1.3-0.6-1.8c0.9,0,1.9,0,2.1,0
		c0.3,0,0.4-0.1,0.4-0.3v-1.5H687v4.3h4.3l0.3-0.1L693,44z M687,51.6c0.6-0.5,1.2-1.1,1.7-1.8c-0.7-1.1-1.2-2.4-1.7-3.7V51.6z
		 M688.5,45.3c0.3,0.9,0.7,1.9,1.2,2.7c0.4-0.8,0.7-1.7,0.9-2.7H688.5z"/>
	<path class="st1" d="M710.8,37.1v16.4H709v-7.2l-0.5,0.3c-0.1-0.6-0.4-1.4-0.7-2.2v8.6h-1.6v-6.7l-0.6,0.4
		c-0.1-0.6-0.3-1.5-0.6-2.4c0,3.3-0.2,6.7-1.7,9.3c-0.4-0.3-1.1-0.9-1.6-1.1c1-1.8,1.4-3.9,1.5-6.2l-0.9,0.4c-0.1-1-0.5-2.5-0.9-3.7
		v10.1h-1.5v-0.8h-3.6v1.1h-1.4V40.8h1.6V39h-1.9v-1.7h7V39h-1.9v1.7h1.7v2.1l1.1-0.6c0.2,0.6,0.5,1.4,0.6,2.1v-0.1v-7.1h1.7v5.4
		l0.6-0.3c0.2,0.6,0.4,1.2,0.6,1.8v-6.6h1.6v4.9l0.4-0.2c0.3,0.6,0.6,1.2,0.8,1.8v-6.7L710.8,37.1z M699.9,50.6v-4.3h-0.5
		c-0.8,0-1-0.2-1-1.3v-2.6h-0.6V44c0,1-0.2,2.3-0.9,3.2c-0.1-0.1-0.4-0.4-0.6-0.5v3.9H699.9z M696.3,42.5v3.8
		c0.5-0.7,0.6-1.6,0.6-2.3v-1.5H696.3z M696.9,47.8h2.4v1.5h-2.4V47.8z M697.8,40.8h0.6V39h-0.6V40.8z M699.9,42.5h-0.5V45
		c0,0.2,0,0.3,0.2,0.3h0.3h0.1V42.5z"/>
	<path class="st1" d="M723.6,47.3c-0.1-0.3-0.2-0.6-0.3-0.9c-4.3,0.4-5,0.5-5.4,0.7c-0.1-0.3-0.4-1.2-0.6-1.7
		c-1.2,0.6-2.4,1.3-3.5,1.8l-1-1.7c1.1-0.4,2.8-1.1,4.5-1.8l0.4,1.6l-0.3,0.2c0.5-0.1,0.9-0.4,1.5-0.9c0.3-0.2,0.8-0.6,1.4-1.3
		c-1.4,0.1-1.8,0.2-2.1,0.3c-0.1-0.4-0.4-1.2-0.6-1.7c0.3-0.1,0.6-0.3,0.8-0.6c0.2-0.2,0.5-0.7,1-1.3h-6.1v-1.9h6.7
		c-0.2-0.4-0.4-0.7-0.6-1l2.2-0.5c0.4,0.5,0.7,1,1,1.5h6.4V40h-7.4c-0.4,0.6-0.8,1.1-1.2,1.6l1.6-0.1c0.4-0.5,0.8-1,1.2-1.5l1.6,1
		c-1.2,1.4-2.7,2.8-4.1,4l1.9-0.1c-0.2-0.3-0.4-0.6-0.6-0.9l1.6-0.6c0.3,0.4,0.6,0.8,0.8,1.2l1.2-0.9c1.2,0.6,2.8,1.6,3.6,2.3
		l-1.5,1.3c-0.6-0.6-1.8-1.4-2.9-2.1c0.3,0.5,0.6,1,0.7,1.5L723.6,47.3z M729.1,50.1h-7.1v3.3h-2.3v-3.3h-7v-2h7V47h2.3v1.2h7.1
		V50.1z M715.9,43.6c-0.5-0.6-1.7-1.5-2.6-2l1.4-1.1c0.9,0.5,2.2,1.3,2.8,1.9L715.9,43.6z M724.3,42.6c0.7-0.6,1.7-1.5,2.3-2.2
		l1.8,1c-0.8,0.8-1.8,1.6-2.5,2.2L724.3,42.6z"/>
</g>
</svg>
