<?xml version="1.0" encoding="utf-8"?>
<!-- Generator: Adobe Illustrator 26.3.1, SVG Export Plug-In . SVG Version: 6.00 Build 0)  -->
<svg version="1.1" id="圖層_1" xmlns="http://www.w3.org/2000/svg" xmlns:xlink="http://www.w3.org/1999/xlink" x="0px" y="0px"
	 viewBox="0 0 335 400" style="enable-background:new 0 0 335 400;" xml:space="preserve">
<style type="text/css">
	.st0{fill:#FFFFFF;}
	.st1{fill:#006EAC;}
	.st2{fill:#1C0D5B;}
	.st3{fill:#CCCCCC;}
	.st4{fill:#FD0302;}
	.st5{fill:#060593;}
</style>
<path class="st0" d="M315.6,0C326.2,0,335,8.6,335,19.3v361.4c0,10.6-8.7,19.3-19.4,19.3H19.4C8.8,400,0,391.4,0,380.7V19.3
	C0,8.7,8.7,0,19.4,0H315.6z"/>
<g>
	<polygon class="st1" points="60.8,284.4 85.9,284.4 85.9,343.8 60.8,343.8 60.8,284.4 	"/>
	<polygon class="st1" points="155,223.2 180,223.2 180,343.8 155,343.8 155,223.2 	"/>
	<polygon class="st1" points="249.1,134.4 274.2,134.4 274.2,343.8 249.1,343.8 249.1,134.4 	"/>
	<g>
		<path class="st1" d="M59.9,275.8H48.8v-2.2L54,268c0.7-0.8,1.3-1.5,1.6-2.1s0.5-1.1,0.5-1.7c0-0.7-0.2-1.3-0.5-1.7
			c-0.4-0.4-0.9-0.6-1.6-0.6c-0.7,0-1.3,0.2-1.7,0.8c-0.4,0.5-0.6,1.2-0.6,2h-3.2c0-1,0.2-1.9,0.7-2.7c0.5-0.8,1.1-1.5,2-1.9
			c0.9-0.5,1.8-0.7,2.9-0.7c1.7,0,3,0.4,3.9,1.2c0.9,0.8,1.4,1.9,1.4,3.4c0,0.8-0.2,1.6-0.6,2.4c-0.4,0.8-1.1,1.8-2.1,2.9l-3.7,3.9
			h7V275.8z"/>
		<path class="st1" d="M69.5,269.3c-0.8,0.8-1.8,1.2-2.9,1.2c-1.4,0-2.6-0.5-3.4-1.5c-0.9-1-1.3-2.3-1.3-4c0-1.1,0.2-2,0.7-2.9
			s1.1-1.6,1.9-2.1c0.8-0.5,1.8-0.7,2.8-0.7c1.1,0,2,0.3,2.8,0.8c0.8,0.5,1.5,1.3,1.9,2.3c0.5,1,0.7,2.1,0.7,3.4v1.2
			c0,2.7-0.7,4.8-2,6.4s-3.2,2.4-5.7,2.5l-0.8,0v-2.7l0.7,0C67.7,273.1,69.2,271.8,69.5,269.3z M67.3,268.1c0.5,0,1-0.1,1.3-0.4
			c0.4-0.3,0.7-0.6,0.9-1v-1.3c0-1.1-0.2-1.9-0.6-2.5c-0.4-0.6-1-0.9-1.7-0.9c-0.6,0-1.2,0.3-1.6,0.9c-0.4,0.6-0.6,1.3-0.6,2.2
			c0,0.9,0.2,1.6,0.6,2.2S66.6,268.1,67.3,268.1z"/>
		<path class="st1" d="M75.4,274.2c0-0.5,0.2-0.9,0.5-1.2c0.3-0.3,0.8-0.5,1.3-0.5c0.5,0,1,0.2,1.3,0.5c0.3,0.3,0.5,0.7,0.5,1.2
			c0,0.5-0.2,0.9-0.5,1.2s-0.8,0.5-1.3,0.5c-0.5,0-1-0.2-1.3-0.5C75.6,275.1,75.4,274.7,75.4,274.2z"/>
		<path class="st1" d="M89.2,275.8h-7.8v-1.5l3.7-3.9c0.5-0.6,0.9-1,1.1-1.4c0.2-0.4,0.4-0.8,0.4-1.2c0-0.5-0.1-0.9-0.4-1.2
			s-0.6-0.4-1.1-0.4c-0.5,0-0.9,0.2-1.2,0.5s-0.4,0.8-0.4,1.4h-2.3c0-0.7,0.2-1.3,0.5-1.9c0.3-0.6,0.8-1,1.4-1.3
			c0.6-0.3,1.3-0.5,2-0.5c1.2,0,2.1,0.3,2.7,0.8c0.6,0.6,1,1.4,1,2.4c0,0.6-0.1,1.1-0.4,1.7c-0.3,0.6-0.8,1.3-1.5,2l-2.6,2.7h4.9
			V275.8z"/>
		<path class="st1" d="M96.1,275.8h-2.3v-8.7l-2.7,0.8v-1.8l4.7-1.7h0.2V275.8z"/>
	</g>
	<g>
		<path class="st1" d="M143.4,206.5l0.9-8.2h9.1v2.7H147l-0.4,3.5c0.8-0.4,1.6-0.6,2.4-0.6c1.5,0,2.8,0.5,3.6,1.4s1.3,2.3,1.3,4
			c0,1-0.2,2-0.7,2.8s-1.1,1.5-1.9,1.9c-0.8,0.5-1.8,0.7-2.9,0.7c-1,0-1.9-0.2-2.7-0.6c-0.8-0.4-1.5-1-2-1.7
			c-0.5-0.7-0.7-1.5-0.8-2.5h3.2c0.1,0.7,0.3,1.2,0.7,1.6c0.4,0.4,0.9,0.6,1.6,0.6c0.7,0,1.3-0.3,1.7-0.8c0.4-0.5,0.6-1.3,0.6-2.2
			c0-0.9-0.2-1.6-0.7-2.1c-0.5-0.5-1.1-0.7-1.9-0.7c-0.8,0-1.4,0.2-1.9,0.6l-0.3,0.3L143.4,206.5z"/>
		<path class="st1" d="M163.6,208c-0.8,0.8-1.8,1.2-2.9,1.2c-1.4,0-2.6-0.5-3.4-1.5c-0.9-1-1.3-2.3-1.3-4c0-1.1,0.2-2,0.7-2.9
			c0.5-0.9,1.1-1.6,1.9-2.1c0.8-0.5,1.8-0.7,2.8-0.7c1.1,0,2,0.3,2.8,0.8c0.8,0.5,1.5,1.3,1.9,2.3c0.5,1,0.7,2.1,0.7,3.4v1.2
			c0,2.7-0.7,4.8-2,6.4s-3.2,2.4-5.7,2.5l-0.8,0V212l0.7,0C161.9,211.8,163.4,210.5,163.6,208z M161.5,206.8c0.5,0,1-0.1,1.3-0.4
			c0.4-0.3,0.7-0.6,0.9-1v-1.3c0-1.1-0.2-1.9-0.6-2.5c-0.4-0.6-1-0.9-1.7-0.9c-0.6,0-1.2,0.3-1.6,0.9c-0.4,0.6-0.6,1.3-0.6,2.2
			c0,0.9,0.2,1.6,0.6,2.2S160.7,206.8,161.5,206.8z"/>
		<path class="st1" d="M169.6,212.9c0-0.5,0.2-0.9,0.5-1.2c0.3-0.3,0.8-0.5,1.3-0.5c0.5,0,1,0.2,1.3,0.5c0.3,0.3,0.5,0.7,0.5,1.2
			c0,0.5-0.2,0.9-0.5,1.2c-0.3,0.3-0.8,0.5-1.3,0.5c-0.5,0-1-0.2-1.3-0.5C169.7,213.8,169.6,213.4,169.6,212.9z"/>
		<path class="st1" d="M177.9,207.8h1.2c0.6,0,1-0.1,1.3-0.4c0.3-0.3,0.4-0.7,0.4-1.1c0-0.5-0.1-0.8-0.4-1.1
			c-0.3-0.3-0.6-0.4-1.1-0.4c-0.4,0-0.8,0.1-1.1,0.4s-0.4,0.5-0.4,0.9h-2.3c0-0.6,0.2-1.1,0.5-1.6c0.3-0.5,0.8-0.8,1.3-1.1
			c0.6-0.3,1.2-0.4,1.9-0.4c1.2,0,2.1,0.3,2.8,0.9c0.7,0.6,1,1.4,1,2.4c0,0.5-0.2,1-0.5,1.4c-0.3,0.4-0.7,0.8-1.2,1
			c0.6,0.2,1.1,0.6,1.4,1s0.5,1,0.5,1.6c0,1-0.4,1.8-1.1,2.4c-0.7,0.6-1.7,0.9-2.9,0.9c-1.1,0-2.1-0.3-2.8-0.9
			c-0.7-0.6-1.1-1.4-1.1-2.4h2.3c0,0.4,0.2,0.8,0.5,1c0.3,0.3,0.7,0.4,1.2,0.4c0.5,0,1-0.1,1.3-0.4c0.3-0.3,0.5-0.7,0.5-1.1
			c0-1.1-0.6-1.7-1.9-1.7h-1.2V207.8z"/>
		<path class="st1" d="M192.2,206.2c0,0.6-0.1,1-0.4,1.5s-0.7,0.8-1.1,1c0.5,0.3,1,0.6,1.3,1.1c0.3,0.5,0.5,1,0.5,1.6
			c0,1-0.3,1.8-1,2.4c-0.7,0.6-1.6,0.9-2.8,0.9s-2.1-0.3-2.8-0.9c-0.7-0.6-1-1.4-1-2.4c0-0.6,0.2-1.2,0.5-1.6
			c0.3-0.5,0.8-0.8,1.3-1.1c-0.5-0.3-0.9-0.6-1.1-1s-0.4-0.9-0.4-1.5c0-1,0.3-1.7,1-2.3c0.6-0.6,1.5-0.9,2.6-0.9
			c1.1,0,2,0.3,2.6,0.9C191.9,204.4,192.2,205.2,192.2,206.2z M190.2,211.2c0-0.5-0.1-0.9-0.4-1.2c-0.3-0.3-0.7-0.4-1.2-0.4
			c-0.5,0-0.9,0.1-1.1,0.4c-0.3,0.3-0.4,0.7-0.4,1.2c0,0.5,0.1,0.9,0.4,1.2c0.3,0.3,0.7,0.4,1.2,0.4c0.5,0,0.9-0.1,1.1-0.4
			C190,212.1,190.2,211.7,190.2,211.2z M189.9,206.3c0-0.4-0.1-0.8-0.4-1.1c-0.2-0.3-0.6-0.4-1-0.4c-0.4,0-0.7,0.1-1,0.4
			c-0.2,0.3-0.4,0.6-0.4,1.1c0,0.5,0.1,0.8,0.4,1.1s0.6,0.4,1,0.4s0.8-0.1,1-0.4S189.9,206.7,189.9,206.3z"/>
	</g>
	<g>
		<path class="st1" d="M238.3,125.8h-3.2v-12.4l-3.8,1.2V112l6.7-2.4h0.3V125.8z"/>
		<path class="st1" d="M254.5,119.1c0,2.2-0.5,4-1.4,5.1c-0.9,1.2-2.3,1.8-4.1,1.8c-1.8,0-3.1-0.6-4.1-1.7c-0.9-1.2-1.4-2.8-1.4-5
			v-3c0-2.3,0.5-4,1.4-5.2c0.9-1.2,2.3-1.8,4.1-1.8s3.1,0.6,4.1,1.7s1.4,2.8,1.4,5V119.1z M251.3,115.8c0-1.3-0.2-2.3-0.6-2.9
			c-0.4-0.6-0.9-0.9-1.7-0.9c-0.8,0-1.3,0.3-1.7,0.9c-0.4,0.6-0.6,1.5-0.6,2.7v3.9c0,1.3,0.2,2.3,0.5,2.9c0.4,0.6,0.9,1,1.7,1
			c0.8,0,1.4-0.3,1.7-0.9s0.5-1.6,0.5-2.8V115.8z"/>
		<path class="st1" d="M260.1,116.3h1.7c0.8,0,1.4-0.2,1.8-0.6c0.4-0.4,0.6-0.9,0.6-1.6c0-0.7-0.2-1.2-0.6-1.5s-0.9-0.5-1.6-0.5
			c-0.6,0-1.1,0.2-1.5,0.5c-0.4,0.3-0.6,0.8-0.6,1.3h-3.2c0-0.8,0.2-1.6,0.7-2.3s1.1-1.2,1.9-1.6c0.8-0.4,1.7-0.6,2.7-0.6
			c1.7,0,3.1,0.4,4,1.2c1,0.8,1.5,1.9,1.5,3.4c0,0.7-0.2,1.4-0.7,2s-1,1.1-1.8,1.4c0.9,0.3,1.6,0.8,2,1.5c0.4,0.7,0.7,1.4,0.7,2.3
			c0,1.4-0.5,2.6-1.6,3.5c-1,0.9-2.4,1.3-4.2,1.3c-1.6,0-2.9-0.4-4-1.3s-1.5-2-1.5-3.4h3.2c0,0.6,0.2,1.1,0.7,1.5s1,0.6,1.7,0.6
			c0.8,0,1.4-0.2,1.8-0.6c0.4-0.4,0.7-0.9,0.7-1.6c0-1.6-0.9-2.4-2.7-2.4h-1.7V116.3z"/>
		<path class="st1" d="M270.3,124.2c0-0.5,0.2-0.9,0.5-1.2c0.3-0.3,0.8-0.5,1.3-0.5c0.5,0,1,0.2,1.3,0.5s0.5,0.7,0.5,1.2
			c0,0.5-0.2,0.9-0.5,1.2c-0.3,0.3-0.8,0.5-1.3,0.5c-0.5,0-1-0.2-1.3-0.5C270.4,125.2,270.3,124.7,270.3,124.2z"/>
		<path class="st1" d="M283.9,121.1c0,1.6-0.3,2.8-1,3.6c-0.6,0.8-1.6,1.2-2.9,1.2c-1.2,0-2.2-0.4-2.8-1.2c-0.7-0.8-1-2-1-3.5v-2.1
			c0-1.6,0.3-2.8,1-3.6c0.7-0.8,1.6-1.2,2.8-1.2s2.2,0.4,2.8,1.2s1,2,1,3.5V121.1z M281.7,118.8c0-0.9-0.1-1.6-0.4-2.1
			c-0.3-0.4-0.7-0.6-1.2-0.6c-0.5,0-0.9,0.2-1.2,0.6c-0.3,0.4-0.4,1-0.4,1.9v2.8c0,0.9,0.1,1.6,0.4,2.1s0.7,0.7,1.2,0.7
			c0.6,0,0.9-0.2,1.2-0.6c0.2-0.4,0.4-1.1,0.4-2V118.8z"/>
		<path class="st1" d="M291.6,114.4v1.9h-0.2c-1,0-1.8,0.3-2.5,0.8c-0.6,0.5-1,1.2-1.1,2.1c0.6-0.6,1.4-0.9,2.3-0.9
			c1,0,1.8,0.4,2.4,1.1c0.6,0.7,0.9,1.6,0.9,2.8c0,0.7-0.2,1.4-0.5,2s-0.8,1.1-1.4,1.4c-0.6,0.3-1.2,0.5-2,0.5
			c-1.2,0-2.2-0.4-2.9-1.2c-0.7-0.8-1.1-1.9-1.1-3.3v-0.8c0-1.2,0.2-2.3,0.7-3.3c0.5-0.9,1.1-1.7,2-2.2c0.9-0.5,1.9-0.8,3-0.8H291.6
			z M289.4,120c-0.4,0-0.7,0.1-1,0.3c-0.3,0.2-0.5,0.4-0.7,0.8v0.7c0,0.8,0.1,1.3,0.4,1.8s0.7,0.6,1.2,0.6c0.5,0,0.9-0.2,1.2-0.6
			s0.4-0.9,0.4-1.5c0-0.6-0.2-1.1-0.5-1.5S289.9,120,289.4,120z"/>
	</g>
	<g>
		<g>
			<path class="st2" d="M57.8,373.6h-1.4V364l-2.9,1.1v-1.3l4.1-1.5h0.2V373.6z"/>
			<path class="st2" d="M77.8,371.2h-5.8v3.7h-1.2v-3.7h-7.4v-1.1h2.6v-4.3h4.8v-2.4H67c-0.7,1.2-1.6,2.3-2.4,3.1
				c-0.2-0.2-0.7-0.6-1-0.7c1.5-1.3,2.8-3.4,3.6-5.5l1.2,0.3c-0.2,0.6-0.5,1.1-0.7,1.7h9.5v1.1h-5v2.4h4.7v1.1h-4.7v3.2h5.8V371.2z
				 M70.9,370.1v-3.2h-3.6v3.2H70.9z"/>
			<path class="st2" d="M84,363.9c-0.4,0.7-0.9,1.5-1.4,2.2v8.8h-1.1v-7.4c-0.5,0.6-1,1.1-1.5,1.5c-0.1-0.2-0.5-0.8-0.7-1
				c1.4-1.1,2.8-2.7,3.7-4.4L84,363.9z M83.6,360.7c-0.9,1.3-2.3,2.8-3.6,3.8c-0.1-0.2-0.5-0.6-0.6-0.9c1.2-0.8,2.5-2.2,3.1-3.3
				L83.6,360.7z M92.5,368.8c-0.7,1.5-1.7,2.7-3,3.7c1.3,0.6,2.7,1.1,4.2,1.4c-0.3,0.3-0.6,0.7-0.7,1c-1.7-0.4-3.2-1-4.5-1.7
				c-1.4,0.8-3,1.4-4.7,1.8c-0.1-0.3-0.4-0.8-0.6-1c1.5-0.3,2.9-0.7,4.2-1.4c-0.6-0.5-1.3-1-1.8-1.6c-0.4,0.4-0.8,0.7-1.3,1.1
				c-0.2-0.2-0.6-0.7-0.8-0.9c0.5-0.3,0.9-0.7,1.4-1.1c-0.3-0.4-0.5-0.8-0.8-1.2l1-0.3c0.2,0.3,0.3,0.6,0.5,0.8
				c0.6-0.6,1.1-1.3,1.5-2c-2.3,0.1-2.7,0.2-3,0.3c0-0.2-0.2-0.8-0.4-1.1c0.5-0.1,1-0.3,1.8-0.8c0.4-0.2,1.1-0.7,2-1.2
				c-2.4,0.1-2.8,0.2-3,0.3c0-0.3-0.2-0.8-0.4-1.1c0.3,0,0.6-0.3,1.1-0.6c0.4-0.3,1.8-1.5,2.8-2.6l1.2,0.5c-1,1-2,1.9-3,2.6l2.8-0.1
				c0.7-0.5,1.5-1.1,2.1-1.7l1.1,0.6c-1.9,1.5-3.8,2.9-5.8,3.9l5-0.3c-0.4-0.5-0.7-0.9-1.1-1.3l0.9-0.5c0.9,1.1,2.1,2.5,2.6,3.4
				l-1,0.6c-0.2-0.4-0.5-0.8-0.8-1.3l-3.5,0.2c-0.2,0.4-0.5,0.9-0.8,1.3h3.9l0.2,0L92.5,368.8z M86.9,369.5
				c-0.2,0.2-0.4,0.5-0.6,0.7c0.6,0.7,1.3,1.2,2.1,1.7c1-0.7,1.8-1.5,2.4-2.4H86.9z"/>
		</g>
	</g>
	<g>
		<g>
			<path class="st2" d="M154.6,373.6h-7.4v-1l3.9-4.4c0.6-0.7,1-1.2,1.2-1.6c0.2-0.4,0.3-0.8,0.3-1.3c0-0.6-0.2-1.1-0.5-1.5
				s-0.8-0.6-1.4-0.6c-0.7,0-1.3,0.2-1.7,0.6c-0.4,0.4-0.6,1-0.6,1.7H147c0-1,0.3-1.9,1-2.5c0.7-0.6,1.6-1,2.7-1
				c1.1,0,1.9,0.3,2.5,0.8c0.6,0.6,0.9,1.3,0.9,2.2c0,1.1-0.7,2.4-2.1,4l-3,3.3h5.7V373.6z"/>
			<path class="st2" d="M172,371.2h-5.8v3.7H165v-3.7h-7.4v-1.1h2.6v-4.3h4.8v-2.4h-3.9c-0.7,1.2-1.6,2.3-2.4,3.1
				c-0.2-0.2-0.7-0.6-1-0.7c1.5-1.3,2.8-3.4,3.6-5.5l1.2,0.3c-0.2,0.6-0.5,1.1-0.7,1.7h9.5v1.1h-5v2.4h4.7v1.1h-4.7v3.2h5.8V371.2z
				 M165,370.1v-3.2h-3.6v3.2H165z"/>
			<path class="st2" d="M178.1,363.9c-0.4,0.7-0.9,1.5-1.4,2.2v8.8h-1.1v-7.4c-0.5,0.6-1,1.1-1.5,1.5c-0.1-0.2-0.5-0.8-0.7-1
				c1.4-1.1,2.8-2.7,3.7-4.4L178.1,363.9z M177.8,360.7c-0.9,1.3-2.3,2.8-3.6,3.8c-0.1-0.2-0.5-0.6-0.6-0.9c1.2-0.8,2.5-2.2,3.1-3.3
				L177.8,360.7z M186.6,368.8c-0.7,1.5-1.7,2.7-3,3.7c1.3,0.6,2.7,1.1,4.2,1.4c-0.3,0.3-0.6,0.7-0.7,1c-1.7-0.4-3.2-1-4.5-1.7
				c-1.4,0.8-3,1.4-4.7,1.8c-0.1-0.3-0.4-0.8-0.6-1c1.5-0.3,2.9-0.7,4.2-1.4c-0.6-0.5-1.3-1-1.8-1.6c-0.4,0.4-0.8,0.7-1.3,1.1
				c-0.2-0.2-0.6-0.7-0.8-0.9c0.5-0.3,0.9-0.7,1.4-1.1c-0.3-0.4-0.5-0.8-0.8-1.2l1-0.3c0.2,0.3,0.3,0.6,0.5,0.8
				c0.6-0.6,1.1-1.3,1.5-2c-2.3,0.1-2.7,0.2-3,0.3c0-0.2-0.2-0.8-0.4-1.1c0.5-0.1,1-0.3,1.8-0.8c0.4-0.2,1.1-0.7,2-1.2
				c-2.4,0.1-2.8,0.2-3,0.3c0-0.3-0.2-0.8-0.4-1.1c0.3,0,0.6-0.3,1.1-0.6c0.4-0.3,1.8-1.5,2.8-2.6l1.2,0.5c-1,1-2,1.9-3,2.6l2.8-0.1
				c0.7-0.5,1.5-1.1,2.1-1.7l1.1,0.6c-1.9,1.5-3.8,2.9-5.8,3.9l5-0.3c-0.4-0.5-0.7-0.9-1.1-1.3l0.9-0.5c0.9,1.1,2.1,2.5,2.6,3.4
				l-1,0.6c-0.2-0.4-0.5-0.8-0.8-1.3l-3.5,0.2c-0.2,0.4-0.5,0.9-0.8,1.3h3.9l0.2,0L186.6,368.8z M181.1,369.5
				c-0.2,0.2-0.4,0.5-0.6,0.7c0.6,0.7,1.3,1.2,2.1,1.7c1-0.7,1.8-1.5,2.4-2.4H181.1z"/>
		</g>
	</g>
	<g>
		<g>
			<path class="st2" d="M243.5,367.3h1.1c0.7,0,1.2-0.2,1.6-0.5c0.4-0.3,0.6-0.8,0.6-1.4c0-1.3-0.7-2-2-2c-0.6,0-1.1,0.2-1.5,0.5
				s-0.6,0.8-0.6,1.4h-1.4c0-0.9,0.3-1.6,1-2.2c0.7-0.6,1.5-0.9,2.5-0.9c1.1,0,1.9,0.3,2.5,0.8c0.6,0.6,0.9,1.4,0.9,2.4
				c0,0.5-0.2,1-0.5,1.4s-0.8,0.8-1.3,1c0.6,0.2,1.1,0.5,1.4,1c0.3,0.5,0.5,1,0.5,1.7c0,1-0.3,1.8-1,2.4c-0.7,0.6-1.5,0.9-2.6,0.9
				s-1.9-0.3-2.6-0.9c-0.7-0.6-1-1.3-1-2.3h1.4c0,0.6,0.2,1.1,0.6,1.4c0.4,0.4,0.9,0.5,1.6,0.5c0.7,0,1.2-0.2,1.6-0.5
				c0.4-0.4,0.6-0.9,0.6-1.6c0-0.7-0.2-1.2-0.6-1.5c-0.4-0.4-1-0.5-1.8-0.5h-1.1V367.3z"/>
			<path class="st2" d="M266.1,371.2h-5.8v3.7h-1.2v-3.7h-7.4v-1.1h2.6v-4.3h4.8v-2.4h-3.9c-0.7,1.2-1.6,2.3-2.4,3.1
				c-0.2-0.2-0.7-0.6-1-0.7c1.5-1.3,2.8-3.4,3.6-5.5l1.2,0.3c-0.2,0.6-0.5,1.1-0.7,1.7h9.5v1.1h-5v2.4h4.7v1.1h-4.7v3.2h5.8V371.2z
				 M259.1,370.1v-3.2h-3.6v3.2H259.1z"/>
			<path class="st2" d="M272.3,363.9c-0.4,0.7-0.9,1.5-1.4,2.2v8.8h-1.1v-7.4c-0.5,0.6-1,1.1-1.5,1.5c-0.1-0.2-0.5-0.8-0.7-1
				c1.4-1.1,2.8-2.7,3.7-4.4L272.3,363.9z M271.9,360.7c-0.9,1.3-2.3,2.8-3.6,3.8c-0.1-0.2-0.5-0.6-0.6-0.9c1.2-0.8,2.5-2.2,3.1-3.3
				L271.9,360.7z M280.8,368.8c-0.7,1.5-1.7,2.7-3,3.7c1.3,0.6,2.7,1.1,4.2,1.4c-0.3,0.3-0.6,0.7-0.7,1c-1.7-0.4-3.2-1-4.5-1.7
				c-1.4,0.8-3,1.4-4.7,1.8c-0.1-0.3-0.4-0.8-0.6-1c1.5-0.3,2.9-0.7,4.2-1.4c-0.6-0.5-1.3-1-1.8-1.6c-0.4,0.4-0.8,0.7-1.3,1.1
				c-0.2-0.2-0.6-0.7-0.8-0.9c0.5-0.3,0.9-0.7,1.4-1.1c-0.3-0.4-0.5-0.8-0.8-1.2l1-0.3c0.2,0.3,0.3,0.6,0.5,0.8
				c0.6-0.6,1.1-1.3,1.5-2c-2.3,0.1-2.7,0.2-3,0.3c0-0.2-0.2-0.8-0.4-1.1c0.5-0.1,1-0.3,1.8-0.8c0.4-0.2,1.1-0.7,2-1.2
				c-2.4,0.1-2.8,0.2-3,0.3c0-0.3-0.2-0.8-0.4-1.1c0.3,0,0.6-0.3,1.1-0.6c0.4-0.3,1.8-1.5,2.8-2.6l1.2,0.5c-1,1-2,1.9-3,2.6l2.8-0.1
				c0.7-0.5,1.5-1.1,2.1-1.7l1.1,0.6c-1.9,1.5-3.8,2.9-5.8,3.9l5-0.3c-0.4-0.5-0.7-0.9-1.1-1.3l0.9-0.5c0.9,1.1,2.1,2.5,2.6,3.4
				l-1,0.6c-0.2-0.4-0.5-0.8-0.8-1.3l-3.5,0.2c-0.2,0.4-0.5,0.9-0.8,1.3h3.9l0.2,0L280.8,368.8z M275.2,369.5
				c-0.2,0.2-0.4,0.5-0.6,0.7c0.6,0.7,1.3,1.2,2.1,1.7c1-0.7,1.8-1.5,2.4-2.4H275.2z"/>
		</g>
	</g>
	<rect x="22.2" y="343.3" class="st3" width="290.6" height="1"/>
</g>
<g>
	<g>
		<path class="st2" d="M162.4,29.5c2,1.7,4.3,4.2,5.4,5.9l-1.3,0.9c-0.3-0.5-0.7-1.1-1.3-1.8c-11.7,0.7-12.9,0.7-13.7,1
			c-0.1-0.3-0.3-1.1-0.5-1.5c0.5-0.1,1-0.5,1.7-1.2c0.7-0.7,3.1-3.2,4.7-5.8l1.5,0.7c-1.6,2.2-3.4,4.3-5.2,6l10.5-0.5
			c-0.9-1.1-2-2.1-3-3L162.4,29.5z M152.6,37.3h13v8.5h-1.6v-1.1h-9.9v1.1h-1.5V37.3z M154.2,38.8v4.5h9.9v-4.5H154.2z"/>
		<path class="st2" d="M173.2,36c-0.6-0.7-1.9-1.6-2.9-2.2l0.9-1c1.1,0.5,2.4,1.4,3,2L173.2,36z M170.6,44.8
			c0.7-1.6,1.8-4.2,2.6-6.5l1.2,0.8c-0.7,2.1-1.6,4.6-2.4,6.5L170.6,44.8z M173.5,30.7c-0.6-0.7-1.8-1.6-2.8-2.3l0.9-1
			c1,0.6,2.3,1.5,2.9,2.2L173.5,30.7z M175.8,34.7c-0.2,1-0.5,2.1-0.9,2.8c-0.2-0.1-0.6-0.4-0.8-0.5c0.4-0.7,0.6-1.6,0.8-2.5
			L175.8,34.7z M178.5,33.9c-0.1-0.2-0.1-0.4-0.2-0.6c-2.8,0.4-3.3,0.5-3.5,0.6c0-0.2-0.2-0.6-0.3-0.8c0.3,0,0.6-0.3,0.9-0.7
			c0.2-0.2,0.7-0.8,1.3-1.5c-1.3,0.1-1.7,0.2-1.9,0.3c-0.1-0.2-0.2-0.6-0.3-0.8c0.2,0,0.4-0.2,0.6-0.5c0.2-0.3,0.9-1.5,1.3-2.5
			l1,0.3c-0.3,0.9-0.9,1.7-1.4,2.4l1.4-0.1c0.2-0.3,0.4-0.6,0.6-0.9l0.9,0.4c-0.7,1.2-1.6,2.3-2.5,3.3l1.8-0.2
			c-0.1-0.2-0.3-0.5-0.4-0.7l0.8-0.3c0.4,0.6,0.8,1.5,1,2L178.5,33.9z M188,41.8c0,0,0,0.4-0.1,0.6c-0.4,1.8-0.8,2.7-1.4,3.1
			c-0.4,0.3-0.9,0.4-1.5,0.4c-0.6,0-1.8,0-3.1-0.1c0-0.3-0.2-0.8-0.4-1.2c1.3,0.1,2.6,0.1,3.2,0.1c0.5,0,0.7,0,0.9-0.2
			c0.3-0.2,0.6-0.8,0.9-1.8h-10.8c0.3-0.9,0.6-2.1,0.9-3.1h9.2v-1.1h-10v-1h11.4v3h-9.5c-0.1,0.3-0.2,0.7-0.3,1H188z M176.7,37.2
			c0-0.7-0.2-1.7-0.5-2.5l0.8-0.2c0.3,0.8,0.5,1.8,0.5,2.4L176.7,37.2z M178.5,34.1c0.3,0.7,0.6,1.6,0.7,2.2l-0.8,0.3
			c-0.1-0.6-0.4-1.5-0.7-2.3L178.5,34.1z M183.9,30.1H179v-0.9h2.2c-0.1-0.5-0.5-1.1-0.8-1.6l1-0.3c0.3,0.5,0.7,1.2,0.9,1.6
			l-0.9,0.3h2.5V30.1z M179.6,34h3.9v3h-3.9V34z M183.4,31.7h-3.8v-0.9h3.8V31.7z M179.6,32.4h3.8v0.8h-3.8V32.4z M180.6,36.1h1.8
			v-1.4h-1.8V36.1z M185.3,34.6c-0.2,1-0.5,2.1-0.9,2.8c-0.2-0.1-0.6-0.4-0.8-0.5c0.4-0.7,0.6-1.6,0.8-2.5L185.3,34.6z M188.1,34
			c-0.1-0.2-0.2-0.5-0.3-0.8c-2.8,0.4-3.3,0.5-3.6,0.6c-0.1-0.1-0.2-0.6-0.3-0.8c0.3,0,0.6-0.3,1-0.7c0.2-0.2,0.7-0.8,1.3-1.6
			c-1.4,0.1-1.7,0.2-1.9,0.3c-0.1-0.2-0.2-0.6-0.3-0.8c0.2,0,0.4-0.2,0.6-0.5c0.2-0.3,0.9-1.4,1.3-2.5l1,0.3
			c-0.3,0.8-0.9,1.7-1.4,2.4l1.4-0.1c0.2-0.3,0.4-0.6,0.6-0.9l0.9,0.4c-0.7,1.1-1.6,2.3-2.5,3.3l1.8-0.2c-0.1-0.2-0.2-0.5-0.4-0.7
			l0.7-0.3c0.5,0.7,0.9,1.6,1.1,2.2L188.1,34z M186.2,37.4c0-0.7-0.2-1.8-0.5-2.7l0.8-0.2c0.3,0.9,0.5,2,0.5,2.7L186.2,37.4z
			 M188,34.1c0.4,0.8,0.8,1.9,0.9,2.6l-0.8,0.4c-0.1-0.7-0.5-1.8-0.8-2.7L188,34.1z"/>
		<path class="st2" d="M197.8,43.9c0,0.8-0.2,1.2-0.7,1.5c-0.5,0.2-1.3,0.3-2.5,0.3c-0.1-0.4-0.2-1-0.4-1.4c0.9,0,1.7,0,1.9,0
			c0.2,0,0.3-0.1,0.3-0.4v-5.6c-0.9,0.5-1.7,1-2.5,1.5l-0.6-1.2c-0.1,2.5-0.6,5.2-1.5,7.3c-0.3-0.2-0.9-0.6-1.2-0.7
			c1.4-2.9,1.5-7,1.5-9.9v-7.3h5.7V43.9z M193.5,35.2c0,1,0,2.1-0.1,3.2c0.8-0.3,1.9-0.8,3-1.4v-2.3l-0.8,0.6
			c-0.5-0.7-1.4-1.7-2.2-2.4V35.2z M193.5,29.3v3.2l0.7-0.5c0.8,0.7,1.7,1.6,2.2,2.3v-4.9H193.5z M208.8,36.5
			c-0.8,2.5-2.1,4.5-3.8,6c1.3,0.9,2.8,1.6,4.5,2.1c-0.4,0.3-0.8,0.9-1,1.3c-1.8-0.5-3.4-1.4-4.7-2.4c-1.5,1.1-3.1,1.8-4.9,2.4
			c-0.2-0.4-0.5-1-0.8-1.3c1.6-0.4,3.2-1.1,4.6-2.1c-1.3-1.3-2.3-2.9-3.1-4.8l0.3-0.1h-1v-1.4h8.7l0.2-0.1L208.8,36.5z M202.3,30.2
			c0,1.8-0.6,4-3,5.4c-0.2-0.3-0.7-0.8-1-1.1c2.2-1.3,2.6-2.9,2.6-4.4v-2.3h6.2v4.8c0,0.6,0,0.7,0.3,0.7h1.1c0.2,0,0.6,0,0.9-0.1
			c0,0.4,0.1,0.9,0.1,1.3c-0.2,0.1-0.6,0.1-1,0.1h-1.3c-1.4,0-1.6-0.6-1.6-2.1v-3.3h-3.4V30.2z M201.1,37.6c0.7,1.5,1.6,2.9,2.8,4
			c1.2-1.1,2.3-2.4,2.9-4H201.1z"/>
		<path class="st2" d="M221.4,31.6v2.8h6.6v7.2c0,0.9-0.2,1.3-0.9,1.6c-0.7,0.2-1.8,0.3-3.6,0.3c-0.1-0.5-0.3-1.1-0.5-1.5
			c1.4,0,2.6,0,3,0c0.4,0,0.5-0.1,0.5-0.4v-5.7h-5.1v9.9h-1.5v-9.9H215v7.6h-1.5v-9.1h6.3v-2.8h-8.3v-1.5h8.7
			c-0.3-0.8-0.9-1.9-1.4-2.7l1.5-0.5c0.6,0.9,1.3,2.2,1.6,3l-0.3,0.1h8.1v1.5H221.4z"/>
	</g>
	<g id="XMLID_00000080915936158961443200000000636741436450335408_">
		<path id="XMLID_00000019671968013669715870000000552529742445417099_" class="st4" d="M138.2,37.1c0,9.4-7.7,17.1-17.1,17.1
			c-9.4,0-17.1-7.7-17.1-17.1c0-9.4,7.7-17.1,17.1-17.1h2v0.1C131.6,21.1,138.2,28.3,138.2,37.1z"/>
		<g id="XMLID_00000147218391280686326090000003672339036956283552_">
			<path id="XMLID_00000165921840263964956020000003998984899379229607_" class="st5" d="M123.1,20v17.1h-19.1
				c0-9.4,7.7-17.1,17.1-17.1H123.1z"/>
			<g id="XMLID_00000142868171535248649850000017219100843581097100_">
				<g id="XMLID_00000126295786834769530700000006697586576815284639_">
					<path id="XMLID_00000119822964219057667900000014443325176202002582_" class="st0" d="M115.6,26c-0.2,0-0.5-0.1-0.7-0.1
						s-0.5,0-0.7,0.1l0.7-2.6L115.6,26z"/>
					<path id="XMLID_00000093157208471624060410000007974619773474440638_" class="st0" d="M113.9,26.1c-0.5,0.1-0.9,0.4-1.2,0.7
						l-0.7-2.6L113.9,26.1z"/>
					<path id="XMLID_00000017493126638262135380000014481592590934676654_" class="st0" d="M112.4,27c-0.3,0.4-0.6,0.8-0.7,1.2
						l-1.9-1.9L112.4,27z"/>
					<path id="XMLID_00000067209727126216167750000018006970344919934884_" class="st0" d="M111.5,29.3c0,0.2,0,0.5,0.1,0.7
						l-2.6-0.7l2.6-0.7C111.6,28.8,111.5,29,111.5,29.3z"/>
					<path id="XMLID_00000132056121010405487420000001544836316832664741_" class="st0" d="M112.4,31.5l-2.6,0.7l1.9-1.9
						C111.8,30.7,112.1,31.2,112.4,31.5z"/>
					<path id="XMLID_00000146476172590156934160000003400419200700066709_" class="st0" d="M113.9,32.4l-1.9,1.9l0.7-2.6
						C113,32,113.4,32.3,113.9,32.4z"/>
					<path id="XMLID_00000145769700163130306980000014501784394295818147_" class="st0" d="M115.6,32.5l-0.7,2.6l-0.7-2.6
						c0.2,0,0.5,0.1,0.7,0.1S115.3,32.6,115.6,32.5z"/>
					<path id="XMLID_00000109003455582651696320000012182240157529161888_" class="st0" d="M117.8,34.3l-1.9-1.9
						c0.5-0.1,0.9-0.4,1.2-0.7L117.8,34.3z"/>
					<path id="XMLID_00000010268873231682636770000010506462551304540560_" class="st0" d="M119.9,32.2l-2.6-0.7
						c0.3-0.4,0.6-0.8,0.7-1.2L119.9,32.2z"/>
					<path id="XMLID_00000183950030256989671190000014329988592230495640_" class="st0" d="M118.1,30c0-0.2,0.1-0.5,0.1-0.7
						s0-0.5-0.1-0.7l2.6,0.7L118.1,30z"/>
					<path id="XMLID_00000089543531047776905410000013699968212320483721_" class="st0" d="M119.9,26.4l-1.9,1.9
						c-0.1-0.5-0.4-0.9-0.7-1.2L119.9,26.4z"/>
					<path id="XMLID_00000076588505250763171070000000258783015947691933_" class="st0" d="M117.8,24.2l-0.7,2.6
						c-0.4-0.3-0.8-0.6-1.2-0.7L117.8,24.2z"/>
				</g>
				<circle id="XMLID_00000046323929646695027690000013452130477766791845_" class="st0" cx="114.9" cy="29.3" r="2.9"/>
			</g>
		</g>
	</g>
</g>
</svg>
