<?xml version="1.0" encoding="utf-8"?>
<!-- Generator: Adobe Illustrator 26.3.1, SVG Export Plug-In . SVG Version: 6.00 Build 0)  -->
<svg version="1.1" id="圖層_1" xmlns="http://www.w3.org/2000/svg" xmlns:xlink="http://www.w3.org/1999/xlink" x="0px" y="0px"
	 viewBox="0 0 750 1080" style="enable-background:new 0 0 750 1080;" xml:space="preserve">
<style type="text/css">
	.st0{fill:#ED6B00;}
	.st1{fill:#FFD400;}
	.st2{fill:#D9D9D9;}
	.st3{fill:#494A66;}
	.st4{fill:#936200;}
	.st5{fill-rule:evenodd;clip-rule:evenodd;fill:#1B7FED;}
	.st6{fill-rule:evenodd;clip-rule:evenodd;fill:#006EAC;}
	.st7{fill-rule:evenodd;clip-rule:evenodd;fill:#C61026;}
	.st8{fill:#FFFFFF;}
</style>
<polygon class="st0" points="113.5,1012.6 116.8,1010.5 120.2,1008.1 123.4,1006.4 126.8,1004.3 130.1,1001.6 133.5,998.9 
	136.8,995.4 140.2,993.4 143.5,989.9 146.9,987.5 150.2,984.8 153.5,982.7 156.9,980 160.1,976.9 163.5,975.9 166.8,973.8 
	170.2,970.1 173.5,967.7 176.9,968 180.2,966 183.6,961.5 186.9,959.8 190.3,955.3 193.5,953.3 196.9,950.9 200.2,947.5 
	203.6,944.4 206.9,942 210.3,940.9 213.6,938.2 217,936.1 220.3,935.1 223.5,931.7 226.9,934.1 230.2,932.7 233.6,927.9 
	236.9,928.9 240.3,925.2 243.6,920.4 247,913.9 250.3,911.5 253.7,912.5 257,912.5 260.4,908 263.6,903.9 267,900.5 270.3,896.7 
	273.7,898.4 277,894 280.4,890.2 283.7,884.4 287.1,880.3 290.4,875.1 293.6,870 297,866.9 300.3,867.3 303.7,861.4 307,861.4 
	310.4,856 313.7,850.1 317.1,846 320.4,840.2 323.8,839.5 327.1,834 330.5,829.2 333.7,828.2 337.1,821.7 340.4,815.2 343.8,812.1 
	347.1,806.3 350.5,806.9 353.8,803.9 357.2,795.6 360.5,790.2 363.9,787.8 367.1,778.8 370.4,778.5 373.8,775.8 377.1,773 
	380.5,775.4 383.8,772 387.2,775.8 390.5,775.1 393.9,761.4 397.1,760.7 400.5,758.6 403.8,763.4 407.2,759.3 410.5,750.7 
	413.9,749 417.2,742.2 420.6,739.1 423.9,727.4 427.3,724.7 430.6,722.6 434,719.2 437.2,716.1 440.5,708.6 443.9,706.5 
	447.2,699.3 450.6,699.3 453.9,695.6 457.3,688.4 460.6,677.4 464,670.2 467.2,664 470.6,660.3 473.9,649 477.3,646.2 480.6,642.1 
	484,630.8 487.3,638.7 490.7,640.4 494,638 497.4,627 500.7,621.2 504.1,605.8 507.3,596.5 510.6,594.1 514,619.5 517.3,615 
	520.7,631.5 524,612.6 527.4,599.6 530.7,587.6 534.1,572.9 537.3,582.5 540.7,566 544,555.8 547.4,552.7 550.7,545.8 554.1,533.8 
	557.4,522.2 560.8,510.5 564.1,511.9 567.5,531.4 570.8,579.4 574.1,536.9 577.4,520.8 580.7,506.4 584.1,475.2 587.4,453.6 
	590.8,464.6 594.1,473.5 597.5,424.8 600.8,400.2 604.2,395.7 607.4,380.6 610.8,352.2 614.1,327.5 617.5,335.7 620.8,308.7 
	624.2,304.9 627.5,289.1 630.9,304.6 634.2,287.4 637.6,280.2 640.8,254.9 644.2,279.5 647.5,286.7 650.9,267.2 654.2,311.8 
	657.5,310 660.9,357 664.2,314.8 667.6,319.3 670.9,368 674.3,351.5 677.5,304.6 680.9,334.7 684.2,296.3 687.6,295 690.9,265.2 
	694.3,257.3 697.6,229.9 701,188.7 704.3,160.6 707.7,167.5 710.9,183.9 714.3,198 714.3,1012.6 710.9,1012.6 707.7,1012.6 
	704.3,1012.6 701,1012.6 697.6,1012.6 694.3,1012.6 690.9,1012.6 687.6,1012.6 684.2,1012.6 680.9,1012.6 677.5,1012.6 
	674.3,1012.6 670.9,1012.6 667.6,1012.6 664.2,1012.6 660.9,1012.6 657.5,1012.6 654.2,1012.6 650.9,1012.6 647.5,1012.6 
	644.2,1012.6 640.8,1012.6 637.6,1012.6 634.2,1012.6 630.9,1012.6 627.5,1012.6 624.2,1012.6 620.8,1012.6 617.5,1012.6 
	614.1,1012.6 610.8,1012.6 607.4,1012.6 604.2,1012.6 600.8,1012.6 597.5,1012.6 594.1,1012.6 590.8,1012.6 587.4,1012.6 
	584.1,1012.6 580.7,1012.6 577.4,1012.6 574.1,1012.6 570.8,1012.6 567.5,1012.6 564.1,1012.6 560.8,1012.6 557.4,1012.6 
	554.1,1012.6 550.7,1012.6 547.4,1012.6 544,1012.6 540.7,1012.6 537.3,1012.6 534.1,1012.6 530.7,1012.6 527.4,1012.6 524,1012.6 
	520.7,1012.6 517.3,1012.6 514,1012.6 510.6,1012.6 507.3,1012.6 504.1,1012.6 500.7,1012.6 497.4,1012.6 494,1012.6 490.7,1012.6 
	487.3,1012.6 484,1012.6 480.6,1012.6 477.3,1012.6 473.9,1012.6 470.6,1012.6 467.2,1012.6 464,1012.6 460.6,1012.6 457.3,1012.6 
	453.9,1012.6 450.6,1012.6 447.2,1012.6 443.9,1012.6 440.5,1012.6 437.2,1012.6 434,1012.6 430.6,1012.6 427.3,1012.6 
	423.9,1012.6 420.6,1012.6 417.2,1012.6 413.9,1012.6 410.5,1012.6 407.2,1012.6 403.8,1012.6 400.5,1012.6 397.1,1012.6 
	393.9,1012.6 390.5,1012.6 387.2,1012.6 383.8,1012.6 380.5,1012.6 377.1,1012.6 373.8,1012.6 370.4,1012.6 367.1,1012.6 
	363.9,1012.6 360.5,1012.6 357.2,1012.6 353.8,1012.6 350.5,1012.6 347.1,1012.6 343.8,1012.6 340.4,1012.6 337.1,1012.6 
	333.7,1012.6 330.5,1012.6 327.1,1012.6 323.8,1012.6 320.4,1012.6 317.1,1012.6 313.7,1012.6 310.4,1012.6 307,1012.6 
	303.7,1012.6 300.3,1012.6 297,1012.6 293.6,1012.6 290.4,1012.6 287.1,1012.6 283.7,1012.6 280.4,1012.6 277,1012.6 273.7,1012.6 
	270.3,1012.6 267,1012.6 263.6,1012.6 260.4,1012.6 257,1012.6 253.7,1012.6 250.3,1012.6 247,1012.6 243.6,1012.6 240.3,1012.6 
	236.9,1012.6 233.6,1012.6 230.2,1012.6 226.9,1012.6 223.5,1012.6 220.3,1012.6 217,1012.6 213.6,1012.6 210.3,1012.6 
	206.9,1012.6 203.6,1012.6 200.2,1012.6 196.9,1012.6 193.5,1012.6 190.3,1012.6 186.9,1012.6 183.6,1012.6 180.2,1012.6 
	176.9,1012.6 173.5,1012.6 170.2,1012.6 166.8,1012.6 163.5,1012.6 160.1,1012.6 156.9,1012.6 153.5,1012.6 150.2,1012.6 
	146.9,1012.6 143.5,1012.6 140.2,1012.6 136.8,1012.6 133.5,1012.6 130.1,1012.6 126.8,1012.6 123.4,1012.6 120.2,1012.6 
	116.8,1012.6 113.5,1012.6 113.5,1012.6 "/>
<polygon class="st1" points="113.5,1012.6 113.5,1012.6 113.5,1012.6 714.3,626 714.3,1012.6 "/>
<rect x="113.5" y="1011.6" class="st2" width="600.9" height="2"/>
<path class="st2" d="M715.3,1024h-2v-11.4h2V1024z M595.1,1024h-2v-11.4h2V1024z M474.9,1024h-2v-11.4h2V1024z M354.8,1024h-2v-11.4
	h2V1024z M234.6,1024h-2v-11.4h2V1024z M114.5,1024h-2v-11.4h2V1024z"/>
<g>
	<g>
		<path class="st3" d="M57.2,1012.7c0-7.1,2.5-10.6,6.4-10.6c3.9,0,6.4,3.5,6.4,10.6c0,7.1-2.5,10.7-6.4,10.7
			C59.7,1023.4,57.2,1019.8,57.2,1012.7z M67.6,1012.7c0-6-1.6-8.5-3.9-8.5c-2.4,0-3.9,2.5-3.9,8.5c0,6.1,1.6,8.7,3.9,8.7
			C66,1021.3,67.6,1018.7,67.6,1012.7z"/>
	</g>
</g>
<g>
	<g>
		<path class="st3" d="M27.3,805h4.6v-15.3h-3.6v-1.6c1.8-0.3,3.1-0.8,4.3-1.5h2V805h4.1v2.1H27.3V805z"/>
		<path class="st3" d="M41.7,796.8c0-7.1,2.5-10.6,6.4-10.6c3.9,0,6.4,3.5,6.4,10.6c0,7.1-2.5,10.7-6.4,10.7
			C44.2,807.5,41.7,804,41.7,796.8z M52,796.8c0-6-1.6-8.5-3.9-8.5c-2.4,0-3.9,2.5-3.9,8.5c0,6.1,1.6,8.7,3.9,8.7
			C50.4,805.5,52,802.9,52,796.8z"/>
		<path class="st3" d="M57.2,796.8c0-7.1,2.5-10.6,6.4-10.6c3.9,0,6.4,3.5,6.4,10.6c0,7.1-2.5,10.7-6.4,10.7
			C59.7,807.5,57.2,804,57.2,796.8z M67.6,796.8c0-6-1.6-8.5-3.9-8.5c-2.4,0-3.9,2.5-3.9,8.5c0,6.1,1.6,8.7,3.9,8.7
			C66,805.5,67.6,802.9,67.6,796.8z"/>
	</g>
</g>
<g>
	<g>
		<path class="st3" d="M26,590c6.4-5.6,9.4-9.7,9.4-13.3c0-2.4-1.2-4.1-3.8-4.1c-1.7,0-3.1,1-4.3,2.4l-1.5-1.5c1.7-1.8,3.4-3,6.1-3
			c3.7,0,6,2.4,6,6.1c0,4.1-3.2,8.3-8,12.8c1.1-0.1,2.3-0.2,3.4-0.2h5.7v2.2H26V590z"/>
		<path class="st3" d="M41.7,581.1c0-7.1,2.5-10.6,6.4-10.6c3.9,0,6.4,3.5,6.4,10.6c0,7.1-2.5,10.7-6.4,10.7
			C44.2,591.9,41.7,588.3,41.7,581.1z M52,581.1c0-6-1.6-8.5-3.9-8.5c-2.4,0-3.9,2.5-3.9,8.5c0,6.1,1.6,8.7,3.9,8.7
			C50.4,589.8,52,587.2,52,581.1z"/>
		<path class="st3" d="M57.2,581.1c0-7.1,2.5-10.6,6.4-10.6c3.9,0,6.4,3.5,6.4,10.6c0,7.1-2.5,10.7-6.4,10.7
			C59.7,591.9,57.2,588.3,57.2,581.1z M67.6,581.1c0-6-1.6-8.5-3.9-8.5c-2.4,0-3.9,2.5-3.9,8.5c0,6.1,1.6,8.7,3.9,8.7
			C66,589.8,67.6,587.2,67.6,581.1z"/>
	</g>
</g>
<g>
	<g>
		<path class="st3" d="M25.6,373.8l1.3-1.7c1.2,1.3,2.8,2.4,5.1,2.4c2.4,0,4.2-1.5,4.2-3.8c0-2.5-1.7-4.1-6.4-4.1v-2
			c4.2,0,5.7-1.7,5.7-3.9c0-2-1.3-3.2-3.5-3.3c-1.7,0.1-3.1,0.9-4.3,2l-1.4-1.6c1.5-1.4,3.4-2.5,5.7-2.5c3.4,0,6,1.8,6,5.2
			c0,2.5-1.5,4.1-3.7,5v0.1c2.4,0.6,4.4,2.4,4.4,5.2c0,3.7-2.9,5.9-6.6,5.9C29,376.6,26.9,375.3,25.6,373.8z"/>
		<path class="st3" d="M41.7,365.9c0-7.1,2.5-10.6,6.4-10.6c3.9,0,6.4,3.5,6.4,10.6c0,7.1-2.5,10.7-6.4,10.7
			C44.2,376.6,41.7,373.1,41.7,365.9z M52,365.9c0-6-1.6-8.5-3.9-8.5c-2.4,0-3.9,2.5-3.9,8.5c0,6.1,1.6,8.7,3.9,8.7
			C50.4,374.6,52,372,52,365.9z"/>
		<path class="st3" d="M57.2,365.9c0-7.1,2.5-10.6,6.4-10.6c3.9,0,6.4,3.5,6.4,10.6c0,7.1-2.5,10.7-6.4,10.7
			C59.7,376.6,57.2,373.1,57.2,365.9z M67.6,365.9c0-6-1.6-8.5-3.9-8.5c-2.4,0-3.9,2.5-3.9,8.5c0,6.1,1.6,8.7,3.9,8.7
			C66,374.6,67.6,372,67.6,365.9z"/>
	</g>
</g>
<g>
	<g>
		<path class="st3" d="M39.4,154.9h-2.7v5.7h-2.4v-5.7h-8.9v-1.7l8.5-13.2h2.8v12.8h2.7V154.9z M34.3,152.8v-6.3
			c0-1,0.1-2.7,0.2-3.7h-0.1c-0.5,1-1.1,2-1.7,3l-4.7,7H34.3z"/>
		<path class="st3" d="M41.7,150.2c0-7.1,2.5-10.6,6.4-10.6c3.9,0,6.4,3.5,6.4,10.6c0,7.1-2.5,10.7-6.4,10.7
			C44.2,160.9,41.7,157.3,41.7,150.2z M52,150.2c0-6-1.6-8.5-3.9-8.5c-2.4,0-3.9,2.5-3.9,8.5c0,6.1,1.6,8.7,3.9,8.7
			C50.4,158.8,52,156.2,52,150.2z"/>
		<path class="st3" d="M57.2,150.2c0-7.1,2.5-10.6,6.4-10.6c3.9,0,6.4,3.5,6.4,10.6c0,7.1-2.5,10.7-6.4,10.7
			C59.7,160.9,57.2,157.3,57.2,150.2z M67.6,150.2c0-6-1.6-8.5-3.9-8.5c-2.4,0-3.9,2.5-3.9,8.5c0,6.1,1.6,8.7,3.9,8.7
			C66,158.8,67.6,156.2,67.6,150.2z"/>
	</g>
</g>
<g>
	<g>
		<path class="st3" d="M18.2,100.4c0-4.7,1.3-8.6,3.5-12.2l1.4,0.6C21,92.3,20,96.3,20,100.4s1,8.1,3.1,11.5l-1.4,0.6
			C19.5,109,18.2,105.1,18.2,100.4z"/>
		<path class="st3" d="M31,90.8h-5.3v-1.5H31v-1.5h1.8v1.5h2.9v1.5h-2.9v1.5H31V90.8z M45.6,107.9c0,0.8-0.1,1.2-0.8,1.5
			c-0.6,0.3-1.6,0.3-3.1,0.3c-0.1-0.5-0.3-1-0.5-1.5c1.1,0,2,0,2.3,0c0.3,0,0.4-0.1,0.4-0.4v-5h-6.9v2.5l3-0.1
			c-0.3-0.6-0.7-1.1-1.1-1.5l1.3-0.4c1.1,1.3,2.1,3,2.5,4.3l-1.4,0.5c-0.1-0.4-0.3-0.9-0.6-1.4c-3.9,0.3-7.8,0.5-10.5,0.6l-0.1-1.6
			c1.4,0,3.2-0.1,5.2-0.2v-2.6h-6.7v6.9h-1.7v-6.9h-1v-1.5h1v-0.9h1.7v0.9h6.7v-1.5h-6.9v-7.3h15.6v7.3h-7v1.5h8.7V107.9z M30,95.6
			h5.2v-1.7H30V95.6z M35.2,98.6v-1.7H30v1.7H35.2z M46.5,89.3v1.5h-5.4v1.5h-1.8v-1.5h-2.8v-1.5h2.8v-1.5h1.8v1.5H46.5z M42.2,93.9
			h-5.3v1.7h5.3V93.9z M42.2,96.9h-5.3v1.7h5.3V96.9z"/>
		<path class="st3" d="M68.1,107.6c1,0,1.1-0.6,1.2-4.3c0.4,0.3,1.2,0.6,1.7,0.8c-0.2,4.1-0.7,5.2-2.8,5.2h-3.4
			c-2.1,0-2.7-0.6-2.7-2.7v-8.5h-4.5c-0.5,5.1-1.6,9.3-7.1,11.6c-0.2-0.4-0.7-1.1-1.1-1.4c5.1-1.9,6-5.7,6.4-10.2h-6.1v-1.7h21v1.7
			h-6.7v8.5c0,0.8,0.2,1,1.1,1H68.1z M68.6,91.4H51.7v-1.7h16.9V91.4z"/>
		<path class="st3" d="M73.1,112c2.1-3.4,3.1-7.5,3.1-11.5s-1-8.1-3.1-11.5l1.3-0.6c2.2,3.6,3.5,7.5,3.5,12.2
			c0,4.7-1.3,8.6-3.5,12.2L73.1,112z"/>
	</g>
</g>
<g>
	<path class="st3" d="M87.9,1061.5c5.5-4.8,8.1-8.3,8.1-11.3c0-2-1.1-3.5-3.2-3.5c-1.4,0-2.7,0.9-3.6,2l-1.3-1.2
		c1.4-1.6,3-2.6,5.2-2.6c3.1,0,5.1,2.1,5.1,5.2c0,3.5-2.8,7.1-6.9,11c0.9-0.1,2-0.2,2.9-0.2H99v1.9H87.9V1061.5z"/>
	<path class="st3" d="M101.3,1054c0-6.1,2.1-9.1,5.5-9.1c3.3,0,5.5,3,5.5,9.1c0,6.1-2.1,9.2-5.5,9.2
		C103.5,1063.1,101.3,1060.1,101.3,1054z M110.2,1054c0-5.1-1.3-7.3-3.3-7.3c-2,0-3.4,2.2-3.4,7.3c0,5.2,1.3,7.4,3.4,7.4
		C108.8,1061.4,110.2,1059.1,110.2,1054z"/>
	<path class="st3" d="M114.7,1054c0-6.1,2.1-9.1,5.5-9.1c3.3,0,5.5,3,5.5,9.1c0,6.1-2.1,9.2-5.5,9.2
		C116.8,1063.1,114.7,1060.1,114.7,1054z M123.5,1054c0-5.1-1.3-7.3-3.3-7.3c-2,0-3.4,2.2-3.4,7.3c0,5.2,1.3,7.4,3.4,7.4
		C122.1,1061.4,123.5,1059.1,123.5,1054z"/>
	<path class="st3" d="M127.9,1058.4c0-2.4,1.6-4,3.2-4.8v-0.1c-1.3-0.9-2.4-2.2-2.4-4.1c0-2.7,2.1-4.5,4.8-4.5c3,0,4.8,1.9,4.8,4.6
		c0,1.8-1.3,3.4-2.4,4.2v0.1c1.5,0.9,3,2.2,3,4.6c0,2.6-2.2,4.6-5.5,4.6C130.3,1063.1,127.9,1061.2,127.9,1058.4z M136.9,1058.5
		c0-2.4-2.2-3.2-4.7-4.2c-1.4,0.9-2.4,2.3-2.4,4c0,1.9,1.6,3.2,3.7,3.2C135.6,1061.5,136.9,1060.3,136.9,1058.5z M136.5,1049.7
		c0-1.7-1.1-3.1-3-3.1c-1.6,0-2.8,1.2-2.8,2.9c0,2.1,1.9,3,4,3.8C135.9,1052.2,136.5,1051,136.5,1049.7z"/>
</g>
<g>
	<path class="st3" d="M208.3,1061.5c5.5-4.8,8.1-8.3,8.1-11.3c0-2-1.1-3.5-3.2-3.5c-1.4,0-2.7,0.9-3.6,2l-1.3-1.2
		c1.4-1.6,3-2.6,5.2-2.6c3.1,0,5.1,2.1,5.1,5.2c0,3.5-2.8,7.1-6.9,11c0.9-0.1,2-0.2,2.9-0.2h4.9v1.9h-11.1V1061.5z"/>
	<path class="st3" d="M221.7,1054c0-6.1,2.1-9.1,5.5-9.1c3.3,0,5.5,3,5.5,9.1c0,6.1-2.1,9.2-5.5,9.2
		C223.8,1063.1,221.7,1060.1,221.7,1054z M230.5,1054c0-5.1-1.3-7.3-3.3-7.3c-2,0-3.4,2.2-3.4,7.3c0,5.2,1.3,7.4,3.4,7.4
		C229.2,1061.4,230.5,1059.1,230.5,1054z"/>
	<path class="st3" d="M236,1061h3.9v-13.1h-3.1v-1.4c1.6-0.3,2.7-0.7,3.6-1.2h1.7v15.8h3.5v1.8H236V1061z"/>
	<path class="st3" d="M249.3,1061h3.9v-13.1h-3.1v-1.4c1.6-0.3,2.7-0.7,3.6-1.2h1.7v15.8h3.5v1.8h-9.6V1061z"/>
</g>
<g>
	<path class="st3" d="M328,1061.5c5.5-4.8,8.1-8.3,8.1-11.3c0-2-1.1-3.5-3.2-3.5c-1.4,0-2.7,0.9-3.6,2l-1.3-1.2
		c1.4-1.6,3-2.6,5.2-2.6c3.1,0,5.1,2.1,5.1,5.2c0,3.5-2.8,7.1-6.9,11c0.9-0.1,2-0.2,2.9-0.2h4.9v1.9H328V1061.5z"/>
	<path class="st3" d="M341.5,1054c0-6.1,2.1-9.1,5.5-9.1c3.3,0,5.5,3,5.5,9.1c0,6.1-2.1,9.2-5.5,9.2
		C343.6,1063.1,341.5,1060.1,341.5,1054z M350.3,1054c0-5.1-1.3-7.3-3.3-7.3c-2,0-3.4,2.2-3.4,7.3c0,5.2,1.3,7.4,3.4,7.4
		C348.9,1061.4,350.3,1059.1,350.3,1054z"/>
	<path class="st3" d="M355.7,1061h3.9v-13.1h-3.1v-1.4c1.6-0.3,2.7-0.7,3.6-1.2h1.7v15.8h3.5v1.8h-9.6V1061z"/>
	<path class="st3" d="M379.5,1058h-2.3v4.8h-2.1v-4.8h-7.7v-1.4l7.3-11.3h2.4v11h2.3V1058z M375.1,1056.2v-5.4
		c0-0.9,0.1-2.3,0.1-3.2h-0.1c-0.4,0.9-0.9,1.7-1.4,2.6l-4,6H375.1z"/>
</g>
<g>
	<path class="st3" d="M448.4,1061.5c5.5-4.8,8.1-8.3,8.1-11.3c0-2-1.1-3.5-3.2-3.5c-1.4,0-2.7,0.9-3.6,2l-1.3-1.2
		c1.4-1.6,3-2.6,5.2-2.6c3.1,0,5.1,2.1,5.1,5.2c0,3.5-2.8,7.1-6.9,11c0.9-0.1,2-0.2,2.9-0.2h4.9v1.9h-11.1V1061.5z"/>
	<path class="st3" d="M461.8,1054c0-6.1,2.1-9.1,5.5-9.1c3.3,0,5.5,3,5.5,9.1c0,6.1-2.1,9.2-5.5,9.2
		C463.9,1063.1,461.8,1060.1,461.8,1054z M470.6,1054c0-5.1-1.3-7.3-3.3-7.3c-2,0-3.4,2.2-3.4,7.3c0,5.2,1.3,7.4,3.4,7.4
		C469.3,1061.4,470.6,1059.1,470.6,1054z"/>
	<path class="st3" d="M476.1,1061h3.9v-13.1h-3.1v-1.4c1.6-0.3,2.7-0.7,3.6-1.2h1.7v15.8h3.5v1.8h-9.6V1061z"/>
	<path class="st3" d="M496.9,1047.1h-8.5v-1.9h11v1.3c-4.1,5.3-4.9,9.4-5.2,16.3H492C492.3,1056.1,493.5,1051.9,496.9,1047.1z"/>
</g>
<g>
	<path class="st3" d="M568.5,1061.5c5.5-4.8,8.1-8.3,8.1-11.3c0-2-1.1-3.5-3.2-3.5c-1.4,0-2.7,0.9-3.6,2l-1.3-1.2
		c1.4-1.6,3-2.6,5.2-2.6c3.1,0,5.1,2.1,5.1,5.2c0,3.5-2.8,7.1-6.9,11c0.9-0.1,2-0.2,2.9-0.2h4.9v1.9h-11.1V1061.5z"/>
	<path class="st3" d="M582,1054c0-6.1,2.1-9.1,5.5-9.1c3.3,0,5.5,3,5.5,9.1c0,6.1-2.1,9.2-5.5,9.2C584.1,1063.1,582,1060.1,582,1054
		z M590.8,1054c0-5.1-1.3-7.3-3.3-7.3c-2,0-3.4,2.2-3.4,7.3c0,5.2,1.3,7.4,3.4,7.4C589.5,1061.4,590.8,1059.1,590.8,1054z"/>
	<path class="st3" d="M595.2,1061.5c5.5-4.8,8.1-8.3,8.1-11.3c0-2-1.1-3.5-3.2-3.5c-1.4,0-2.7,0.9-3.6,2l-1.3-1.2
		c1.4-1.6,3-2.6,5.2-2.6c3.1,0,5.1,2.1,5.1,5.2c0,3.5-2.8,7.1-6.9,11c0.9-0.1,2-0.2,2.9-0.2h4.9v1.9h-11.1V1061.5z"/>
	<path class="st3" d="M608.6,1054c0-6.1,2.1-9.1,5.5-9.1c3.3,0,5.5,3,5.5,9.1c0,6.1-2.1,9.2-5.5,9.2
		C610.7,1063.1,608.6,1060.1,608.6,1054z M617.4,1054c0-5.1-1.3-7.3-3.3-7.3c-2,0-3.4,2.2-3.4,7.3c0,5.2,1.3,7.4,3.4,7.4
		C616.1,1061.4,617.4,1059.1,617.4,1054z"/>
</g>
<g>
	<path class="st3" d="M688.8,1061.5c5.5-4.8,8.1-8.3,8.1-11.3c0-2-1.1-3.5-3.2-3.5c-1.4,0-2.7,0.9-3.6,2l-1.3-1.2
		c1.4-1.6,3-2.6,5.2-2.6c3.1,0,5.1,2.1,5.1,5.2c0,3.5-2.8,7.1-6.9,11c0.9-0.1,2-0.2,2.9-0.2h4.9v1.9h-11.1V1061.5z"/>
	<path class="st3" d="M702.2,1054c0-6.1,2.1-9.1,5.5-9.1c3.3,0,5.5,3,5.5,9.1c0,6.1-2.1,9.2-5.5,9.2
		C704.3,1063.1,702.2,1060.1,702.2,1054z M711,1054c0-5.1-1.3-7.3-3.3-7.3c-2,0-3.4,2.2-3.4,7.3c0,5.2,1.3,7.4,3.4,7.4
		C709.7,1061.4,711,1059.1,711,1054z"/>
	<path class="st3" d="M715.4,1061.5c5.5-4.8,8.1-8.3,8.1-11.3c0-2-1.1-3.5-3.2-3.5c-1.4,0-2.7,0.9-3.6,2l-1.3-1.2
		c1.4-1.6,3-2.6,5.2-2.6c3.1,0,5.1,2.1,5.1,5.2c0,3.5-2.8,7.1-6.9,11c0.9-0.1,2-0.2,2.9-0.2h4.9v1.9h-11.1V1061.5z"/>
	<path class="st3" d="M728.4,1060.7l1.1-1.4c1,1.1,2.4,2,4.4,2c2.1,0,3.6-1.2,3.6-3.3c0-2.1-1.4-3.5-5.5-3.5v-1.7
		c3.6,0,4.9-1.5,4.9-3.4c0-1.7-1.2-2.8-3-2.8c-1.4,0-2.7,0.8-3.6,1.8l-1.2-1.4c1.3-1.2,2.9-2.1,4.9-2.1c3,0,5.1,1.6,5.1,4.4
		c0,2.1-1.3,3.5-3.1,4.2v0.1c2.1,0.5,3.7,2.1,3.7,4.5c0,3.1-2.5,5-5.6,5C731.2,1063.1,729.5,1062,728.4,1060.7z"/>
</g>
<g>
	<path class="st0" d="M126.2,682h12.1v-35.6h-10.2v-6.9c5.6-1.1,9.5-2.5,13.1-4.7h8.3V682H160v9h-33.8V682z"/>
	<path class="st0" d="M170.9,682H183v-35.6h-10.2v-6.9c5.6-1.1,9.5-2.5,13.1-4.7h8.3V682h10.6v9h-33.8V682z"/>
	<path class="st0" d="M212.8,662.7c0-19.5,7.6-29,19.1-29c11.4,0,19,9.6,19,29s-7.6,29.4-19,29.4C220.4,692.1,212.8,682,212.8,662.7
		z M240.3,662.7c0-15.7-3.6-20.3-8.4-20.3c-4.9,0-8.5,4.6-8.5,20.3c0,15.8,3.6,20.7,8.5,20.7C236.7,683.3,240.3,678.5,240.3,662.7z"
		/>
	<path class="st0" d="M259.6,684.8c0-4.1,3-7.3,6.9-7.3c4,0,7,3.2,7,7.3s-3,7.3-7,7.3C262.6,692.1,259.6,688.9,259.6,684.8z"/>
	<path class="st0" d="M282.5,677c0-7.2,4.4-11.9,9.7-14.7V662c-4.3-3.1-7.4-7.4-7.4-13.4c0-9,7.1-14.8,16.9-14.8
		c10,0,16.3,6,16.3,15c0,5.5-3.5,10.2-7.2,12.8v0.4c5.2,2.8,9.4,7.4,9.4,15c0,8.5-7.5,15-18.9,15C290.6,692.1,282.5,685.8,282.5,677
		z M309.8,676.6c0-5.9-5.2-8.3-12.5-11.2c-3,2.4-5.2,6.2-5.2,10.4c0,5.1,4.2,8.4,9.4,8.4C306.3,684.2,309.8,681.5,309.8,676.6z
		 M308.9,649.4c0-4.6-2.7-7.8-7.4-7.8c-3.8,0-6.8,2.5-6.8,7c0,5.3,4.3,7.9,10.3,10.3C307.6,656,308.9,652.8,308.9,649.4z"/>
	<path class="st0" d="M332.8,666c0-7.1,3.6-11.2,8.6-11.2c5.1,0,8.7,4.1,8.7,11.2c0,7.2-3.6,11.3-8.7,11.3
		C336.4,677.3,332.8,673.1,332.8,666z M345.2,666c0-5.2-1.6-7.2-3.7-7.2c-2.1,0-3.6,2-3.6,7.2s1.6,7.3,3.6,7.3
		C343.5,673.3,345.2,671.2,345.2,666z M362,654.8h4.2l-19.3,36.9h-4.1L362,654.8z M358.7,680.3c0-7.2,3.6-11.2,8.6-11.2
		c5,0,8.7,4.1,8.7,11.2c0,7.1-3.6,11.3-8.7,11.3C362.3,691.7,358.7,687.4,358.7,680.3z M371,680.3c0-5.2-1.6-7.2-3.7-7.2
		c-2.1,0-3.7,2-3.7,7.2s1.6,7.3,3.7,7.3C369.4,687.6,371,685.6,371,680.3z"/>
</g>
<g>
	<path class="st0" d="M120.7,735.1c0-5.5,1.5-10,4.1-14.2l1.6,0.7c-2.4,4-3.6,8.7-3.6,13.5c0,4.8,1.1,9.5,3.6,13.5l-1.6,0.8
		C122.2,745.1,120.7,740.6,120.7,735.1z"/>
	<path class="st0" d="M137.6,735.4v7.9c0,1.2-0.3,1.7-1,2c-0.7,0.3-1.9,0.4-3.8,0.4c-0.1-0.5-0.4-1.4-0.6-1.9c1.3,0.1,2.5,0,2.9,0
		c0.4,0,0.5-0.1,0.5-0.5v-7.2l-3.5,1l-0.6-2c1.1-0.3,2.6-0.7,4.1-1.1v-6h-3.8v-2h3.8v-5.6h2v5.6h3.5v2h-3.5v5.5l2.6-0.8l0.3,1.9
		L137.6,735.4z M155.1,733.2c-1.1,3.4-3.1,6-5.5,8c2.1,1.3,4.6,2.3,7.4,2.9c-0.5,0.4-1,1.3-1.3,1.9c-3-0.7-5.7-1.9-7.8-3.5
		c-2.4,1.7-5.3,2.8-8.2,3.5c-0.2-0.6-0.6-1.5-1-1.9c2.7-0.6,5.3-1.6,7.6-3c-1.9-1.8-3.4-3.9-4.6-6.4l0.3-0.1h-1.1v-2h12.5l0.4-0.1
		L155.1,733.2z M145.6,724.5c0,2.5-0.8,5.5-4.2,7.5c-0.3-0.4-1-1.2-1.3-1.5c3.1-1.7,3.6-4,3.6-6v-3.1h8.8v6.5c0,0.8,0.1,1.1,0.5,1.1
		h2.2c0.4,0,1-0.1,1.4-0.1c0,0.5,0.1,1.3,0.2,1.8c-0.4,0.1-1,0.1-1.5,0.1h-2.4c-1.9,0-2.4-0.8-2.4-2.9v-4.5h-4.9V724.5z
		 M143.7,734.6c1,2,2.5,3.8,4.3,5.4c1.8-1.5,3.4-3.2,4.4-5.4H143.7z"/>
	<path class="st0" d="M167.8,728.1h-8v-1.7h8V728.1z M170,742.5c-2.2,1.3-5.8,2.7-8.5,3.4c-0.4-0.4-1.1-1.2-1.5-1.6
		c2.9-0.6,6.2-1.6,8.2-2.7L170,742.5z M167.1,723.7h-6.7v-1.6h6.7V723.7z M163.5,730.3h18.1v11.2h-18.1V730.3z M165.5,733.6h14v-1.9
		h-14V733.6z M165.5,736.8h14v-1.9h-14V736.8z M165.5,740.1h14v-2h-14V740.1z M172.2,723.9c-0.6,1.1-1.3,2-2.1,2.8
		c-0.3-0.3-1.1-0.8-1.6-1.1c1.5-1.3,2.6-3.3,3.2-5.3l1.9,0.4c-0.2,0.5-0.4,1-0.6,1.5h9.4l0.3-0.1l1.4,0.5c-0.7,1.4-1.6,3.1-2.4,4
		l-1.7-0.6c0.4-0.6,0.9-1.4,1.3-2.2H177v0.4c0,0.3,0,0.6-0.1,0.9c1.5,1.7,4.5,2.8,8.2,3.1c-0.4,0.4-0.9,1.1-1.2,1.7
		c-3.2-0.4-5.9-1.6-7.6-3.3c-0.9,1.4-3.1,2.7-8.1,3.4c-0.2-0.4-0.8-1.2-1.1-1.5c7.3-1,7.9-2.9,7.9-4.3v-0.3H172.2z M176.4,741.7
		c3,0.9,6.3,2.1,8.2,3l-1.8,1.2c-1.8-0.9-4.8-2.1-7.8-3.1L176.4,741.7z"/>
	<path class="st0" d="M211.2,729.9c-1.2,3.6-2.9,6.8-4.9,9.5c1,2.7,2.3,4.3,3.8,4.3c0.8,0,1.1-1.5,1.3-5.2c0.5,0.5,1.2,1,1.8,1.1
		c-0.4,4.8-1.1,6.1-3.3,6.1c-2.2,0-3.8-1.7-5.1-4.6c-1.7,1.8-3.6,3.4-5.8,4.7c-0.3-0.4-1-1.3-1.5-1.7c2.5-1.3,4.7-3.1,6.4-5.2
		c-1-3.2-1.7-7.3-2-11.8h-9.7v3.6h7.1v0.9c-0.1,6.3-0.3,8.6-0.9,9.4c-0.4,0.5-0.9,0.7-1.7,0.8c-0.7,0.1-2,0.1-3.3,0
		c0-0.6-0.3-1.4-0.6-2c1.3,0.1,2.5,0.1,3,0.1c0.4,0,0.7-0.1,0.8-0.3c0.4-0.4,0.5-2.2,0.6-7h-5.1v0.2c0,3.9-0.4,9.6-2.9,13.2
		c-0.4-0.4-1.3-1.1-1.7-1.4c2.3-3.4,2.5-8.2,2.5-11.8v-7.8h11.7c-0.1-1.5-0.1-3.1-0.2-4.7h2.2c0,1.6,0,3.2,0.1,4.7h9.1v2H204
		c0.3,3.7,0.8,7.1,1.5,9.7c1.5-2.2,2.7-4.7,3.6-7.6L211.2,729.9z M206.3,720.5c1.7,0.9,3.9,2.2,5,3.2l-1.3,1.4c-1.1-1-3.2-2.4-5-3.4
		L206.3,720.5z"/>
	<path class="st0" d="M231.2,737.1c2.6,2.6,6.6,4.9,10.1,6.1c-0.5,0.4-1.1,1.2-1.4,1.7c-3.6-1.4-7.7-4.1-10.4-7.1v8.2h-2.2v-8
		c-2.7,3.1-6.8,5.7-10.4,7.1c-0.3-0.5-1-1.3-1.4-1.7c3.6-1.2,7.6-3.6,10.1-6.2h-9.4v-1.9h11.1v-2.4h-8.4v-11.1H238v11.1h-8.6v2.4
		h11.1v1.9H231.2z M221,726.4h6.3v-2.9H221V726.4z M227.3,731v-2.9H221v2.9H227.3z M235.8,723.5h-6.4v2.9h6.4V723.5z M235.8,728.1
		h-6.4v2.9h6.4V728.1z"/>
	<path class="st0" d="M246,741.4l1.3-1.7c1.2,1.3,2.8,2.4,5.1,2.4c2.4,0,4.2-1.5,4.2-3.8c0-2.5-1.7-4.1-6.4-4.1v-2
		c4.2,0,5.7-1.7,5.7-3.9c0-2-1.3-3.2-3.5-3.3c-1.7,0.1-3.1,0.9-4.3,2l-1.4-1.6c1.5-1.4,3.4-2.5,5.7-2.5c3.4,0,6,1.9,6,5.2
		c0,2.5-1.5,4.1-3.7,5v0.1c2.4,0.6,4.4,2.4,4.4,5.2c0,3.7-2.9,5.9-6.6,5.9C249.3,744.2,247.3,742.8,246,741.4z"/>
	<path class="st0" d="M272,725.5h-9.9v-2.2h12.9v1.5c-4.8,6.2-5.7,11-6,19h-2.7C266.6,736,268,731.1,272,725.5z"/>
	<path class="st0" d="M279.2,740.5c0.9,1,2.1,1.6,3.4,1.6c2.7,0,5-2.2,5.2-8.6c-1.2,1.5-3,2.6-4.7,2.6c-3.4,0-5.7-2.2-5.7-6.5
		c0-4,2.7-6.7,5.9-6.7c4,0,6.9,3.2,6.9,9.8c0,8.3-3.6,11.5-7.5,11.5c-2.2,0-3.8-0.9-4.9-2.1L279.2,740.5z M287.8,731.4
		c-0.3-4.2-1.8-6.5-4.5-6.5c-2,0-3.5,1.8-3.5,4.6c0,2.8,1.2,4.6,3.7,4.6C284.9,734.1,286.4,733.3,287.8,731.4z"/>
	<path class="st0" d="M302.6,723.9h-6.2v-1.8h6.2v-1.7h2v1.7h3.4v1.8h-3.4v1.7h-2V723.9z M319.6,743.9c0,1-0.2,1.5-0.9,1.8
		c-0.7,0.3-1.8,0.3-3.6,0.3c-0.1-0.5-0.4-1.2-0.6-1.7c1.3,0,2.4,0,2.7,0c0.3,0,0.4-0.1,0.4-0.4v-5.9h-8.1v2.9l3.5-0.1
		c-0.4-0.6-0.8-1.3-1.2-1.8l1.5-0.5c1.2,1.5,2.5,3.6,2.9,5l-1.6,0.6c-0.1-0.5-0.4-1-0.7-1.7c-4.5,0.3-9.1,0.5-12.3,0.7l-0.2-1.8
		c1.6-0.1,3.8-0.1,6.1-0.2v-3.1h-7.8v8h-2v-8h-1.1v-1.7h1.1v-1h2v1h7.8v-1.7h-8V726h18.2v8.5h-8.2v1.7h10.1V743.9z M301.5,729.5h6.1
		v-2h-6.1V729.5z M307.5,733v-2h-6.1v2H307.5z M320.8,722.1v1.8h-6.4v1.8h-2v-1.8h-3.3v-1.8h3.3v-1.7h2v1.7H320.8z M315.7,727.5
		h-6.2v2h6.2V727.5z M315.7,731h-6.2v2h6.2V731z"/>
	<path class="st0" d="M345.9,743.5c1.1,0,1.3-0.7,1.4-5c0.5,0.4,1.4,0.8,1.9,0.9c-0.2,4.8-0.8,6.1-3.2,6.1h-4
		c-2.5,0-3.2-0.7-3.2-3.1v-10h-5.2c-0.5,6-1.9,10.9-8.3,13.5c-0.3-0.5-0.8-1.3-1.3-1.6c6-2.3,7-6.6,7.4-11.9h-7.1v-2h24.5v2H341v9.9
		c0,0.9,0.2,1.1,1.3,1.1H345.9z M346.5,724.6h-19.7v-2h19.7V724.6z"/>
	<path class="st0" d="M354.6,748.6c2.4-4,3.6-8.7,3.6-13.5c0-4.8-1.2-9.5-3.6-13.5l1.6-0.7c2.6,4.2,4.1,8.7,4.1,14.2
		c0,5.5-1.5,10-4.1,14.2L354.6,748.6z"/>
</g>
<g>
	<path class="st4" d="M447.1,967.9v7.9c0,1.2-0.3,1.7-1,2c-0.7,0.3-1.9,0.4-3.8,0.4c-0.1-0.5-0.4-1.4-0.6-1.9c1.3,0.1,2.5,0,2.9,0
		c0.4,0,0.5-0.1,0.5-0.5v-7.2l-3.5,1l-0.6-2c1.1-0.3,2.6-0.7,4.1-1.1v-6h-3.8v-2h3.8v-5.6h2v5.6h3.5v2h-3.5v5.5l2.6-0.8l0.3,1.9
		L447.1,967.9z M464.7,965.6c-1.1,3.4-3.1,6-5.5,8c2.1,1.3,4.6,2.3,7.4,2.9c-0.5,0.4-1,1.3-1.3,1.9c-3-0.7-5.7-1.9-7.8-3.5
		c-2.4,1.7-5.3,2.8-8.2,3.5c-0.2-0.6-0.6-1.5-1-1.9c2.7-0.6,5.3-1.6,7.6-3c-1.9-1.8-3.4-3.9-4.6-6.4l0.3-0.1h-1.1v-2h12.5l0.4-0.1
		L464.7,965.6z M455.1,957c0,2.5-0.8,5.5-4.2,7.5c-0.3-0.4-1-1.2-1.3-1.5c3.1-1.7,3.6-4,3.6-6v-3.1h8.8v6.5c0,0.8,0.1,1.1,0.5,1.1
		h2.2c0.4,0,1-0.1,1.4-0.1c0,0.5,0.1,1.3,0.2,1.8c-0.4,0.1-1,0.1-1.5,0.1h-2.4c-1.9,0-2.4-0.8-2.4-2.9v-4.5h-4.9V957z M453.2,967.1
		c1,2,2.5,3.8,4.3,5.4c1.8-1.5,3.4-3.2,4.4-5.4H453.2z"/>
	<path class="st4" d="M477.4,960.5h-8v-1.7h8V960.5z M479.6,975c-2.2,1.3-5.8,2.7-8.5,3.4c-0.4-0.4-1.1-1.2-1.5-1.6
		c2.9-0.6,6.2-1.6,8.2-2.7L479.6,975z M476.7,956.1H470v-1.6h6.7V956.1z M473,962.7h18.1v11.2H473V962.7z M475,966h14v-1.9h-14V966z
		 M475,969.3h14v-1.9h-14V969.3z M475,972.6h14v-2h-14V972.6z M481.8,956.3c-0.6,1.1-1.3,2-2.1,2.8c-0.3-0.3-1.1-0.8-1.6-1.1
		c1.5-1.3,2.6-3.3,3.2-5.3l1.9,0.4c-0.2,0.5-0.4,1-0.6,1.5h9.4l0.3-0.1l1.4,0.5c-0.7,1.4-1.6,3.1-2.4,4l-1.7-0.6
		c0.4-0.6,0.9-1.4,1.3-2.2h-4.5v0.4c0,0.3,0,0.6-0.1,0.9c1.5,1.7,4.5,2.8,8.2,3.1c-0.4,0.4-0.9,1.1-1.2,1.7
		c-3.2-0.4-5.9-1.6-7.6-3.3c-0.9,1.4-3.1,2.7-8.1,3.4c-0.2-0.4-0.8-1.2-1.1-1.5c7.3-1,7.9-2.9,7.9-4.3v-0.3H481.8z M486,974.1
		c3,0.9,6.3,2.1,8.2,3l-1.8,1.2c-1.8-0.9-4.8-2.1-7.8-3.1L486,974.1z"/>
	<path class="st4" d="M513.4,960.8c2,4.7,5.5,9.2,9.4,11.3c-0.5,0.4-1.3,1.2-1.6,1.8c-4.1-2.6-7.8-7.6-9.9-13.1H511v10.3h6.5v2.1
		H511v5.2h-2.2v-5.2h-6.5v-2.1h6.5v-10.3h-0.4c-2.2,5.5-5.8,10.4-9.8,13.2c-0.3-0.5-1-1.3-1.5-1.7c3.7-2.3,7.1-6.8,9.2-11.5h-8.5
		v-2.1h11v-5.9h2.2v5.9H522v2.1H513.4z"/>
	<path class="st4" d="M538.9,963.1v3.8h9.8v1.9h-9.8v6.8h11v1.9h-24.1v-1.9h10.9v-6.8h-9.6v-1.9h9.6v-3.8h-6.1v-1.5
		c-1.4,0.8-2.9,1.5-4.5,2c-0.3-0.6-0.9-1.4-1.4-1.9c5.2-1.7,10.4-5,13-9.1l1.9,0.9c-0.2,0.3-0.4,0.7-0.7,1c2.8,3,7.7,5.9,12,7.2
		c-0.5,0.4-1.1,1.3-1.5,1.8c-1.5-0.6-3-1.3-4.5-2.2v1.7H538.9z M531.2,969.4c1.1,1.6,2.2,3.7,2.7,5l-1.8,0.8
		c-0.4-1.3-1.5-3.5-2.6-5.1L531.2,969.4z M544.7,961.2c-2.5-1.5-5-3.4-6.8-5.3c-1.8,2-4.1,3.8-6.6,5.3H544.7z M541.4,974.6
		c1-1.4,2.2-3.6,2.9-5.2l2,0.8c-1,1.8-2.3,3.8-3.3,5.1L541.4,974.6z"/>
	<path class="st4" d="M560.1,967.5c0-5.5,1.5-10,4.1-14.2l1.6,0.7c-2.4,4-3.6,8.7-3.6,13.5c0,4.8,1.1,9.5,3.6,13.5l-1.6,0.8
		C561.6,977.6,560.1,973.1,560.1,967.5z"/>
	<path class="st4" d="M572.2,974.1h4.6v-15.3h-3.6v-1.6c1.8-0.3,3.1-0.8,4.3-1.5h2v18.4h4.1v2.1h-11.3V974.1z"/>
	<path class="st4" d="M586.5,971.2c0-2.7,1.9-4.7,3.8-5.7v-0.1c-1.5-1-2.8-2.6-2.8-4.7c0-3.1,2.4-5.2,5.6-5.2c3.5,0,5.6,2.2,5.6,5.4
		c0,2.2-1.5,4-2.7,5v0.1c1.8,1,3.5,2.6,3.5,5.4c0,3-2.6,5.3-6.4,5.3C589.3,976.6,586.5,974.3,586.5,971.2z M597.1,971.2
		c0-2.7-2.5-3.8-5.4-5c-1.7,1.1-2.8,2.7-2.8,4.7c0,2.2,1.8,3.8,4.3,3.8C595.5,974.7,597.1,973.3,597.1,971.2z M596.6,961
		c0-2-1.3-3.7-3.5-3.7c-1.9,0-3.2,1.3-3.2,3.3c0,2.5,2.2,3.5,4.6,4.5C595.9,963.9,596.6,962.5,596.6,961z"/>
	<path class="st4" d="M602.2,965.9c0-7.1,2.5-10.6,6.4-10.6c3.9,0,6.4,3.5,6.4,10.6c0,7.1-2.5,10.7-6.4,10.7
		C604.7,976.6,602.2,973.1,602.2,965.9z M612.5,965.9c0-6-1.6-8.5-3.9-8.5c-2.4,0-3.9,2.5-3.9,8.5c0,6.1,1.6,8.7,3.9,8.7
		C610.9,974.6,612.5,972,612.5,965.9z"/>
	<path class="st4" d="M627.2,956.3h-6.2v-1.8h6.2v-1.7h2v1.7h3.4v1.8h-3.4v1.7h-2V956.3z M644.2,976.3c0,1-0.2,1.5-0.9,1.8
		c-0.7,0.3-1.8,0.3-3.6,0.3c-0.1-0.5-0.4-1.2-0.6-1.7c1.3,0,2.4,0,2.7,0c0.3,0,0.4-0.1,0.4-0.4v-5.9h-8.1v2.9l3.5-0.1
		c-0.4-0.6-0.8-1.3-1.2-1.8l1.5-0.5c1.2,1.5,2.5,3.6,2.9,5l-1.6,0.6c-0.1-0.5-0.4-1-0.7-1.7c-4.5,0.3-9.1,0.5-12.3,0.7l-0.2-1.8
		c1.6-0.1,3.8-0.1,6.1-0.2v-3.1h-7.8v8h-2v-8h-1.1v-1.7h1.1v-1h2v1h7.8v-1.7h-8v-8.5h18.2v8.5h-8.2v1.7h10.1V976.3z M626.1,962h6.1
		v-2h-6.1V962z M632.1,965.4v-2h-6.1v2H632.1z M645.4,954.6v1.8H639v1.8h-2v-1.8h-3.3v-1.8h3.3v-1.7h2v1.7H645.4z M640.3,960h-6.2v2
		h6.2V960z M640.3,963.4h-6.2v2h6.2V963.4z"/>
	<path class="st4" d="M670.5,975.9c1.1,0,1.3-0.7,1.4-5c0.5,0.4,1.4,0.8,1.9,0.9c-0.2,4.8-0.8,6.1-3.2,6.1h-4
		c-2.5,0-3.2-0.7-3.2-3.1v-10h-5.2c-0.5,6-1.9,10.9-8.3,13.5c-0.3-0.5-0.8-1.3-1.3-1.6c6-2.3,7-6.6,7.4-11.9H649v-2h24.5v2h-7.9v9.9
		c0,1,0.2,1.1,1.3,1.1H670.5z M671.1,957h-19.7v-2h19.7V957z"/>
	<path class="st4" d="M679.2,981c2.4-4,3.6-8.7,3.6-13.5c0-4.8-1.2-9.5-3.6-13.5l1.6-0.7c2.6,4.2,4.1,8.7,4.1,14.2
		c0,5.5-1.5,10-4.1,14.2L679.2,981z"/>
</g>
<g>
	<path class="st5" d="M342.6,14.4v456.9c125.2-0.8,226.9-103,226.9-228.4S467.9,15.2,342.6,14.4z"/>
	<path class="st6" d="M339.5,471.2V243.9l-216.2-70.2c-7.1,22.4-10.7,45.6-10.7,69.1C112.6,368.3,214.3,470.4,339.5,471.2z"/>
	<path class="st7" d="M339.5,240.7V14.4C241.4,15,155.3,77.6,124.3,170.7L339.5,240.7z"/>
	<g>
		<g>
			<path class="st8" d="M381.6,212.6h10.6v2.4h-23.6v-2.4h10.3v-4.1h-7.5v-2.3h7.5v-3.8h-6.3v-2.3c-1.2,0.9-2.5,1.6-3.6,2.2
				c-0.4-0.7-1-1.6-1.6-2.1c3.3-1.5,7.2-4.2,9.9-7.1h-4.5v-2.4h8.9c2.5,3.7,7.2,7.4,11.7,9.2c-0.5,0.5-1.4,1.6-1.8,2.4
				c-1.2-0.6-2.4-1.3-3.6-2v2.2h-6.4v3.8h7.6v2.3h-7.6V212.6z M372.7,200.1h15.2c-2.9-1.9-5.6-4.4-7.6-6.9
				C378.3,195.6,375.5,198.1,372.7,200.1z"/>
			<path class="st8" d="M420.9,199.6c-1.5,2-3.3,4.3-4.7,5.8c1.2,2.6,2.9,4.5,5.5,6.3c-0.6,0.5-1.3,1.3-1.6,2
				c-2.7-2.1-4.6-4.3-5.9-7.3v6.2c0,1.4-0.3,2.1-1.2,2.5c-0.9,0.4-2.2,0.5-4.3,0.5c-0.1-0.7-0.6-1.8-0.9-2.5c1.5,0.1,2.9,0,3.3,0
				c0.4,0,0.6-0.2,0.6-0.6v-5.7c-2.2,2.2-4.4,4.3-6.2,5.9l-1.6-2.3l0.4-0.3c-2.9,1-5.9,1.9-8.3,2.6l-0.6-2.5c1-0.3,2.2-0.6,3.5-1
				v-7.3h-3v-2.4h3v-5.6h-3.2v-2.4h8.7v2.4h-3.1v5.6h2.6v2.4h-2.6v6.6l3.2-1l0.3,2.1c1.8-1.5,4.4-3.6,6.8-5.7v-7h-6.6v-2.4h6.6V190
				h2.5v4.7h7.1v2.4h-7.1v1.1c0.3,1.9,0.7,3.5,1.2,5c1.2-1.5,2.5-3.3,3.4-4.8L420.9,199.6z M407.2,198.6c1.2,1.5,2.4,3.6,2.9,5
				l-2.2,1c-0.4-1.4-1.6-3.5-2.8-5.1L407.2,198.6z M418.4,194.6c-0.7-0.9-2.1-2.2-3.2-3.1l1.5-1.3c1.2,0.8,2.7,2,3.4,2.9
				L418.4,194.6z"/>
			<path class="st8" d="M431,190.7c-0.6,1.7-1.2,3.5-2,5.2v19.7h-2.5v-14.8c-0.7,1.1-1.4,2.2-2.1,3.1c-0.2-0.6-0.9-2.1-1.3-2.7
				c2.2-2.7,4.3-6.9,5.5-11.1L431,190.7z M446.8,209c-1,1.5-2.4,2.7-4.4,3.7c2,0.5,4.2,0.9,6.6,1.1c-0.4,0.5-1,1.4-1.3,2
				c-3-0.3-5.8-0.9-8.2-1.8c-2.4,0.8-5.1,1.5-8.3,1.9c-0.2-0.6-0.8-1.4-1.3-1.9c2.5-0.3,4.8-0.7,6.8-1.2c-0.8-0.4-1.6-0.9-2.3-1.5
				c-0.8,0.5-1.7,1-2.6,1.4c-0.3-0.5-1-1.2-1.5-1.5c0.9-0.4,1.8-0.8,2.6-1.2c-0.4-0.4-0.7-0.8-1-1.2l1.9-0.7
				c0.3,0.3,0.5,0.6,0.8,0.9c0.8-0.6,1.6-1.2,2.1-1.8c-0.7-0.3-1-0.8-1-1.9v-0.4c-0.7,1-1.6,2.1-2.7,2.8l-1.5-1.2
				c1.1-0.6,2.1-1.8,2.8-2.8l1.4,0.7v-0.7h2.1v1.5c0,0.5,0.2,0.6,1,0.6h3c0.6,0,0.8-0.2,0.8-1.1c0.4,0.2,1.1,0.4,1.6,0.5
				c-0.3-0.3-0.6-0.6-0.9-0.8l1.4-0.8c1.1,0.9,2.4,2.3,3.1,3.2l-1.4,1c-0.4-0.7-1.3-1.6-2.1-2.4c-0.2,1.5-0.8,2-2.3,2h-3
				c-0.3,0.4-0.6,0.7-0.9,1h6.4l0.4-0.1L446.8,209z M449.2,201.3v3.8h-2.3v-2.3h-6.7c0.8,0.5,1.6,1.1,2,1.6l-1.5,0.9
				c-0.5-0.6-1.6-1.4-2.4-2l0.9-0.6h-6.4v2.3h-2.2v-3.8h2.7v-7h4.7c0.1-0.4,0.2-0.8,0.3-1.2h-6.9v-1.9h17.3v1.9h-7.6l-0.5,1.2h6.1v7
				H449.2z M435.6,195.7v1h8.6v-1H435.6z M444.2,197.9h-8.6v1.1h8.6V197.9z M435.6,201.3h8.6v-1.1h-8.6V201.3z M436.3,210
				c1,0.6,2.1,1.2,3.4,1.7c1.5-0.6,2.6-1.3,3.5-2h-6.6L436.3,210z"/>
			<path class="st8" d="M455.9,196.1c-0.3,1.5-1.1,2.9-2.6,4.1c-0.3-0.5-1.3-1.4-1.7-1.7c2-1.5,2.3-3.5,2.3-5.1v-2.1
				c2.9-0.2,6.3-0.6,8.2-1.2l1.5,1.6c-2,0.6-4.8,1.1-7.4,1.3v0.6c0,0.2,0,0.4,0,0.7h7.9v2h-2.9v3.1h-2.3v-3.1H455.9z M468.4,211.2
				c3,0.8,6.2,1.9,8.2,2.7l-1.2,1.9c-2-0.9-5.2-2.1-8.4-3l1-1.6h-7.7l1.9,1.1c-2.3,1.3-6,2.7-8.8,3.6c-0.2-0.5-0.9-1.7-1.3-2.2
				c2.6-0.6,5.9-1.5,8-2.4h-4.5v-11.4h17.7v11.4H468.4z M458,203.1h12.5v-1.7H458V203.1z M458,206.3h12.5v-1.6H458V206.3z
				 M458,209.5h12.5v-1.7H458V209.5z M476.8,194.1v2h-4.2v3.2l-2.3,0v-3.2h-3.1c-0.3,1.3-0.9,2.6-2,3.6c-0.4-0.4-1.4-1.1-1.9-1.3
				c1.7-1.6,2-3.6,2-5.2v-2.1c3.1-0.2,6.7-0.6,8.6-1.2l1.7,1.5c-2.1,0.7-5.3,1.1-8.1,1.3v0.5c0,0.2,0,0.5,0,0.8H476.8z"/>
			<path class="st8" d="M490.5,195.1c-0.4,0.9-0.8,1.9-1.2,2.7h3.1v2.2h-12.8v-2.2h3c-0.2-0.8-0.5-1.9-0.8-2.8l2.1-0.5
				c0.4,1,0.8,2.4,1,3.2l-0.1,0h2.3c0.4-1,0.9-2.3,1.1-3.3L490.5,195.1z M491.3,212.8c0,1.2-0.2,1.8-1,2.2c-0.8,0.4-2,0.4-3.5,0.4
				c-0.1-0.7-0.5-1.7-0.8-2.3c1.1,0.1,2,0.1,2.4,0s0.4-0.1,0.4-0.4v-3c-1.7,0.8-3.3,1.6-4.8,2.3l-0.8-2.1c-0.2,2-0.6,4.1-1.5,5.8
				c-0.4-0.4-1.4-1.1-1.9-1.3c1.3-2.2,1.4-5.2,1.4-7.6v-5.5h10.2V212.8z M492,194.4H480v-2.2h5c-0.2-0.6-0.4-1.3-0.6-1.8l2.4-0.6
				c0.3,0.7,0.7,1.7,0.9,2.4h4.3V194.4z M483.2,207c0,1,0,2-0.1,3.1c1.5-0.4,3.4-1.2,5.5-2v-4.6h-5.4V207z M484.5,204.5
				c1.3,0.5,3.1,1.2,4.1,1.7l-1,1.4c-1-0.5-2.7-1.3-4.1-1.8L484.5,204.5z M503.5,211.4c0.6,0.3,1.3,0.5,1.8,0.6
				c-0.3,2.7-1,3.4-3.2,3.4h-4.8c-2.8,0-3.7-0.6-3.7-3.2v-12h7.6v-2.1h-7.6V190h2.5v2h8.6v2.1h-8.6v2h7.5v6.1h-7.5v1.4h7.5v1.6h-7.5
				v1.5h7.4v1.6h-7.4v1.5h7.6v1.6H503.5z M501.9,213.4c0.9,0,1.1-0.3,1.2-2h-6.9v0.8c0,1,0.2,1.1,1.5,1.1H501.9z"/>
			<path class="st8" d="M519.3,211.7c-3.9,0.9-8.2,1.9-11.3,2.6l-0.6-2.4c2-0.4,4.8-0.9,7.7-1.5L514,210c0.4-1.5,0.9-3.9,1.1-5.6
				l2.5,0.6c-0.5,1.8-1,3.7-1.5,5.2l2.9-0.6L519.3,211.7z M518.9,193.8h-11v-2.4h11V193.8z M518.3,203.7h-9.6v-7.6h9.6V203.7z
				 M510.1,210.2c-0.1-1.3-0.4-3.4-1-5.1l2.1-0.5c0.6,1.6,1.1,3.7,1.1,5.1L510.1,210.2z M515.9,198.2h-5.1v3.4h5.1V198.2z
				 M525.2,212c-1.5,1.4-4,2.9-6.1,3.7c-0.4-0.5-1.2-1.2-1.7-1.7c2.1-0.7,4.5-2.2,5.7-3.3L525.2,212z M524.2,195.7
				c0.2-0.8,0.3-1.6,0.4-2.3h-5v-2.2H533v2.2h-5.5c-0.3,0.8-0.5,1.6-0.7,2.3h5.5v14.6h-11.9v-14.6H524.2z M529.8,197.7h-7v2.3h7
				V197.7z M529.8,201.8h-7v2.4h7V201.8z M529.8,206h-7v2.4h7V206z M529,210.8c1.6,1,3.6,2.4,4.7,3.4l-2.1,1.4c-1-1-3-2.5-4.6-3.6
				L529,210.8z"/>
			<path class="st8" d="M405.3,248.6c0,1.2-0.2,2-1,2.4c-0.7,0.4-1.8,0.5-3.5,0.5c-0.1-0.6-0.4-1.8-0.7-2.4c1.1,0,2,0,2.4,0
				c0.3,0,0.4-0.1,0.4-0.5v-6.7l-2.8,1.7l-0.8-1.8c-0.2,3.5-0.7,7.2-1.9,9.9c-0.5-0.4-1.5-1-2.1-1.2c1.7-3.9,1.8-9.4,1.8-13.5v-10
				h8.2V248.6z M399.5,236.9c0,1.3,0,2.7-0.1,4.1c1-0.4,2.2-0.9,3.6-1.5v-3.2l-1.1,0.9c-0.5-0.8-1.5-1.9-2.4-2.9V236.9z
				 M399.5,229.3v3.9l0.9-0.6c0.9,0.8,1.9,1.8,2.6,2.6v-5.9H399.5z M420.3,238.7c-1,3.5-2.7,6.2-4.9,8.2c1.7,1.1,3.6,2,5.8,2.5
				c-0.6,0.5-1.3,1.5-1.7,2.2c-2.4-0.7-4.5-1.7-6.2-3.1c-1.9,1.3-4.1,2.3-6.4,3c-0.3-0.7-0.9-1.7-1.4-2.2c2.1-0.5,4.1-1.3,5.9-2.5
				c-1.7-1.7-3-3.8-4-6.1l0.9-0.3h-1.8v-2.4h11.6l0.4-0.1L420.3,238.7z M411.6,230.1c0,2.5-0.8,5.5-4.3,7.5
				c-0.3-0.5-1.2-1.5-1.7-1.8c3.1-1.6,3.6-3.8,3.6-5.7v-3h8.9v6.3c0,0.8,0,1.1,0.4,1.1h1.3c0.3,0,0.9-0.1,1.3-0.2l0.2,2.1
				c-0.4,0.1-0.9,0.2-1.4,0.2h-1.6c-2.2,0-2.6-0.9-2.6-3.2v-3.8h-4V230.1z M409.9,240.5c0.8,1.8,2,3.4,3.5,4.8
				c1.5-1.3,2.7-2.9,3.6-4.8H409.9z"/>
			<path class="st8" d="M431.9,226.7c-0.7,1.8-1.6,3.7-2.6,5.5v19.4h-2.5v-15.4c-0.8,1.1-1.7,2.1-2.5,3c-0.2-0.6-1-2-1.4-2.6
				c2.6-2.6,5.1-6.5,6.6-10.6L431.9,226.7z M439.1,248c-1.6,1.4-4.3,2.8-6.5,3.6c-0.4-0.5-1.4-1.4-2-1.8c2.2-0.6,4.7-1.7,6-2.8
				L439.1,248z M438.8,229.1h-6.5v-1.7h6.5V226h2.6v1.5h6.8v1.7h-6.8v1.2h6.1v1.7h-6.1v1.3h7.7v1.8H431v-1.8h7.7v-1.3h-5.9v-1.7h5.9
				V229.1z M433.1,246.8v-10.6h14.2v10.6H433.1z M435.6,239.3h9.1v-1.4h-9.1V239.3z M435.6,242.1h9.1v-1.5h-9.1V242.1z M435.6,245.1
				h9.1v-1.5h-9.1V245.1z M443.9,246.9c1.9,1.1,4.1,2.5,5.3,3.5l-2.4,1.4c-1.1-1.1-3.4-2.7-5.3-3.8L443.9,246.9z"/>
			<path class="st8" d="M460.6,243c-0.1-0.4-0.2-1-0.4-1.6c-6.3,0.9-7.3,1.1-7.8,1.5c-0.1-0.5-0.5-1.7-0.8-2.4
				c0.6-0.2,1.3-0.8,2.2-1.8c0.4-0.4,1.3-1.5,2.2-2.8c-2.7,0.3-3.4,0.4-3.8,0.6c-0.1-0.5-0.5-1.6-0.8-2.3c0.5-0.1,1-0.7,1.6-1.5
				c0.6-0.8,2.6-3.9,3.8-7l2.3,1c-1.2,2.5-2.7,5.1-4.3,7.1l2.7-0.2c0.8-1.1,1.5-2.4,2.1-3.6l2.2,1.3c-1.8,3.1-4.1,6.1-6.3,8.6
				l4.1-0.5c-0.2-0.8-0.5-1.7-0.8-2.4l2-0.6c0.8,1.9,1.5,4.3,1.8,5.8L460.6,243z M454.9,244.4c-0.2,2.4-0.7,5-1.3,6.8
				c-0.5-0.3-1.5-0.6-2.1-0.8c0.6-1.7,1-4.1,1.2-6.4L454.9,244.4z M458.1,243.9c0.3,1.9,0.7,4.3,0.8,6l-2.1,0.4
				c-0.1-1.6-0.4-4.1-0.7-6.1L458.1,243.9z M461.2,243.1c0.6,1.5,1.1,3.3,1.4,4.6l-2,0.7c-0.2-1.3-0.8-3.2-1.3-4.7L461.2,243.1z
				 M477.2,248.8v2.4h-15.6v-2.4h2.3v-21.4h11.5v21.4H477.2z M466.2,229.7v4.7h6.6v-4.7H466.2z M472.9,236.7h-6.6v4.8h6.6V236.7z
				 M466.2,248.8h6.6v-4.9h-6.6V248.8z"/>
			<path class="st8" d="M495,227c-0.3,0.4-0.6,0.8-0.9,1.3c3.4,3.4,7.2,5.5,11.4,7.1c-0.7,0.6-1.5,1.5-1.8,2.4
				c-1.5-0.7-2.9-1.5-4.3-2.3v1.8h-14V236c-1.3,0.8-2.7,1.5-4,2.1c-0.4-0.7-1.2-1.7-1.9-2.3c5.2-2,10.4-5.6,13.2-9.9L495,227z
				 M483.8,240.3h17.5v11.2h-2.7v-1.3h-12.1v1.4h-2.6V240.3z M486.4,242.6v5.2h12.1v-5.2H486.4z M498.5,235c-2-1.3-4-2.9-6-4.8
				c-1.6,1.8-3.5,3.4-5.5,4.8H498.5z"/>
		</g>
	</g>
	<g>
		<g>
			<path class="st8" d="M419.7,311.8l2.6-3.6c2,2,4.6,3.8,8.3,3.8c4,0,7-2.8,7-7.5c0-4.7-2.7-7.4-6.7-7.4c-2.3,0-3.6,0.7-5.7,2
				l-2.7-1.8l1.1-16.8h17.9v4.7h-13.1l-0.8,9.1c1.5-0.8,2.9-1.2,4.8-1.2c5.9,0,10.8,3.5,10.8,11.2c0,7.8-5.7,12.2-11.9,12.2
				C425.7,316.5,422.2,314.3,419.7,311.8z"/>
			<path class="st8" d="M448.1,298.1c0-12.2,4.5-18.2,11.4-18.2c6.9,0,11.4,6,11.4,18.2c0,12.3-4.5,18.4-11.4,18.4
				C452.5,316.5,448.1,310.4,448.1,298.1z M465.6,298.1c0-10.1-2.5-13.8-6.1-13.8c-3.6,0-6.1,3.7-6.1,13.8c0,10.2,2.5,14.1,6.1,14.1
				C463.1,312.2,465.6,308.3,465.6,298.1z"/>
			<path class="st8" d="M477.1,299.4c0-4.1,1.9-6.5,4.8-6.5c2.9,0,4.8,2.4,4.8,6.5s-2,6.6-4.8,6.6C479,306,477.1,303.5,477.1,299.4z
				 M484.4,299.4c0-3.2-1-4.6-2.5-4.6c-1.4,0-2.5,1.4-2.5,4.6c0,3.2,1,4.7,2.5,4.7C483.3,304.1,484.4,302.6,484.4,299.4z
				 M493.8,292.9h2l-11.3,21.4h-2L493.8,292.9z M491.7,307.7c0-4.1,2-6.5,4.8-6.5c2.9,0,4.8,2.4,4.8,6.5s-2,6.5-4.8,6.5
				C493.6,314.3,491.7,311.9,491.7,307.7z M499,307.7c0-3.2-1-4.6-2.5-4.6c-1.5,0-2.5,1.4-2.5,4.6c0,3.2,1,4.7,2.5,4.7
				C498,312.4,499,310.9,499,307.7z"/>
		</g>
	</g>
	<g>
		<g>
			<path class="st8" d="M230.1,162.5c10.4-9.2,15.8-16.1,15.8-21.9c0-3.8-2.1-6.5-6-6.5c-2.8,0-5.1,1.8-7,3.9l-3.1-3.1
				c3-3.3,6.1-5.3,10.8-5.3c6.5,0,10.7,4.2,10.7,10.6c0,6.8-5.4,13.9-12.9,21c1.8-0.2,4-0.3,5.8-0.3h8.8v4.7h-22.8V162.5z"/>
			<path class="st8" d="M257.6,147.9c0-12.2,4.5-18.2,11.4-18.2c6.9,0,11.4,6,11.4,18.2c0,12.3-4.5,18.4-11.4,18.4
				C262,166.4,257.6,160.2,257.6,147.9z M275.1,147.9c0-10.1-2.5-13.8-6.1-13.8c-3.6,0-6.1,3.7-6.1,13.8c0,10.2,2.5,14.1,6.1,14.1
				C272.6,162,275.1,158.2,275.1,147.9z"/>
			<path class="st8" d="M286.6,149.2c0-4.1,1.9-6.5,4.8-6.5c2.9,0,4.8,2.4,4.8,6.5c0,4.1-2,6.6-4.8,6.6
				C288.5,155.8,286.6,153.4,286.6,149.2z M293.9,149.2c0-3.2-1-4.6-2.5-4.6c-1.4,0-2.5,1.4-2.5,4.6c0,3.2,1,4.7,2.5,4.7
				C292.8,153.9,293.9,152.4,293.9,149.2z M303.3,142.7h2L294,164.1h-2L303.3,142.7z M301.2,157.6c0-4.1,2-6.5,4.8-6.5
				c2.9,0,4.8,2.4,4.8,6.5s-2,6.5-4.8,6.5C303.1,164.1,301.2,161.7,301.2,157.6z M308.5,157.6c0-3.2-1-4.6-2.5-4.6
				c-1.5,0-2.5,1.4-2.5,4.6c0,3.2,1,4.7,2.5,4.7C307.5,162.2,308.5,160.7,308.5,157.6z"/>
		</g>
	</g>
	<g>
		<g>
			<path class="st8" d="M255.3,83.7v23.5h-2.8v-1.7h-13.2v1.8h-2.7V83.7H255.3z M239.3,86.4v6.8h13.2v-6.8H239.3z M252.5,102.9v-7.1
				h-13.2v7.1H252.5z"/>
			<path class="st8" d="M270.9,104.6c0,1.2-0.2,2-1,2.4c-0.7,0.4-1.8,0.5-3.5,0.5c-0.1-0.6-0.4-1.8-0.7-2.4c1.1,0,2,0,2.4,0
				c0.3,0,0.4-0.1,0.4-0.5v-6.7l-2.8,1.7l-0.8-1.8c-0.2,3.5-0.7,7.2-1.9,9.9c-0.5-0.4-1.5-1-2.1-1.2c1.7-3.9,1.8-9.4,1.8-13.5V83
				h8.2V104.6z M265,92.9c0,1.3,0,2.7-0.1,4.1c1-0.4,2.2-0.9,3.6-1.5v-3.2l-1.1,0.9c-0.5-0.8-1.5-1.9-2.4-2.9V92.9z M265,85.3v3.9
				l0.9-0.6c0.9,0.8,1.9,1.8,2.6,2.6v-5.9H265z M285.8,94.7c-1,3.5-2.7,6.2-4.9,8.2c1.7,1.1,3.6,2,5.8,2.5c-0.6,0.5-1.3,1.5-1.7,2.2
				c-2.4-0.7-4.5-1.7-6.2-3.1c-1.9,1.3-4.1,2.3-6.4,3c-0.3-0.7-0.9-1.7-1.4-2.2c2.1-0.5,4.1-1.3,5.9-2.5c-1.7-1.7-3-3.8-4-6.1
				l0.9-0.3h-1.8v-2.4h11.6l0.4-0.1L285.8,94.7z M277.1,86.1c0,2.5-0.8,5.5-4.3,7.5c-0.3-0.5-1.2-1.5-1.7-1.8
				c3.1-1.6,3.6-3.8,3.6-5.7v-3h8.9v6.3c0,0.8,0,1.1,0.4,1.1h1.3c0.3,0,0.9-0.1,1.3-0.2l0.2,2.1c-0.4,0.1-0.9,0.2-1.4,0.2h-1.6
				c-2.2,0-2.6-0.9-2.6-3.2v-3.8h-4V86.1z M275.4,96.5c0.8,1.8,2,3.4,3.5,4.8c1.5-1.3,2.7-2.9,3.6-4.8H275.4z"/>
		</g>
	</g>
	<g>
		<g>
			<path class="st8" d="M203.1,355.9l2.7-3.6c2.1,2.1,4.7,3.9,8.4,3.9c4,0,6.7-2.2,6.7-5.9c0-3.9-2.5-6.5-10.5-6.5v-4.1
				c7,0,9.3-2.6,9.3-6.2c0-3.1-2.1-5.1-5.4-5.1c-2.7,0-5,1.4-7.1,3.4l-2.9-3.5c2.8-2.5,6-4.3,10.1-4.3c6.3,0,10.8,3.3,10.8,9.1
				c0,4.1-2.4,6.9-6.1,8.3v0.2c4.1,1,7.3,4.1,7.3,8.8c0,6.4-5.3,10.1-11.8,10.1C209,360.7,205.4,358.5,203.1,355.9z"/>
			<path class="st8" d="M231.3,342.3c0-12.2,4.5-18.2,11.4-18.2c6.9,0,11.4,6,11.4,18.2c0,12.3-4.5,18.4-11.4,18.4
				C235.8,360.7,231.3,354.6,231.3,342.3z M248.9,342.3c0-10.1-2.5-13.8-6.1-13.8c-3.6,0-6.1,3.7-6.1,13.8c0,10.2,2.5,14.1,6.1,14.1
				C246.4,356.4,248.9,352.5,248.9,342.3z"/>
			<path class="st8" d="M260.3,343.6c0-4.1,1.9-6.5,4.8-6.5c2.9,0,4.8,2.4,4.8,6.5s-2,6.6-4.8,6.6
				C262.3,350.2,260.3,347.7,260.3,343.6z M267.6,343.6c0-3.2-1-4.6-2.5-4.6c-1.4,0-2.5,1.4-2.5,4.6c0,3.2,1,4.7,2.5,4.7
				C266.6,348.3,267.6,346.8,267.6,343.6z M277.1,337.1h2l-11.3,21.4h-2L277.1,337.1z M274.9,352c0-4.1,2-6.5,4.8-6.5
				c2.9,0,4.8,2.4,4.8,6.5s-2,6.5-4.8,6.5C276.9,358.5,274.9,356.1,274.9,352z M282.3,352c0-3.2-1-4.6-2.5-4.6
				c-1.5,0-2.5,1.4-2.5,4.6c0,3.2,1,4.7,2.5,4.7C281.2,356.6,282.3,355.1,282.3,352z"/>
		</g>
	</g>
	<g>
		<g>
			<path class="st8" d="M224.2,279.2c2.6,2.4,5.9,5.8,7.4,8.1l-2.2,1.6c-0.4-0.7-1-1.5-1.6-2.3c-15.4,0.8-17.2,0.9-18.5,1.3
				c-0.1-0.5-0.6-1.8-0.8-2.6c0.7-0.1,1.4-0.7,2.3-1.6c1-0.9,4.1-4.4,6.2-7.8l2.6,1.1c-2,2.8-4.4,5.5-6.7,7.7l13-0.5
				c-1.2-1.3-2.5-2.7-3.7-3.8L224.2,279.2z M210.5,290.1h18.2V302h-2.8v-1.4h-12.7v1.5h-2.6V290.1z M213.2,292.6v5.4h12.7v-5.4
				H213.2z"/>
			<path class="st8" d="M244.6,299c0,1.2-0.2,2-1,2.4c-0.7,0.4-1.8,0.5-3.5,0.5c-0.1-0.6-0.4-1.8-0.7-2.4c1.1,0,2,0,2.4,0
				c0.3,0,0.4-0.1,0.4-0.5v-6.7l-2.8,1.7l-0.8-1.8c-0.2,3.5-0.7,7.2-1.9,9.9c-0.5-0.4-1.5-1-2.1-1.2c1.7-3.9,1.8-9.4,1.8-13.5v-10
				h8.2V299z M238.8,287.3c0,1.3,0,2.7-0.1,4.1c1-0.4,2.2-0.9,3.6-1.5v-3.2l-1.1,0.9c-0.5-0.8-1.5-1.9-2.4-2.9V287.3z M238.8,279.7
				v3.9l0.9-0.6c0.9,0.8,1.9,1.8,2.6,2.6v-5.9H238.8z M259.5,289c-1,3.5-2.7,6.2-4.9,8.2c1.7,1.1,3.6,2,5.8,2.5
				c-0.6,0.5-1.3,1.5-1.7,2.2c-2.4-0.7-4.5-1.7-6.2-3.1c-1.9,1.3-4.1,2.3-6.4,3c-0.3-0.7-0.9-1.7-1.4-2.2c2.1-0.5,4.1-1.3,5.9-2.5
				c-1.7-1.7-3-3.8-4-6.1l0.9-0.3h-1.8v-2.4h11.6l0.4-0.1L259.5,289z M250.8,280.4c0,2.5-0.8,5.5-4.3,7.5c-0.3-0.5-1.2-1.5-1.7-1.8
				c3.1-1.6,3.6-3.8,3.6-5.7v-3h8.9v6.3c0,0.8,0,1.1,0.4,1.1h1.3c0.3,0,0.9-0.1,1.3-0.2l0.2,2.1c-0.4,0.1-0.9,0.2-1.4,0.2h-1.6
				c-2.2,0-2.6-0.9-2.6-3.2v-3.8h-4V280.4z M249.1,290.9c0.8,1.8,2,3.4,3.5,4.8c1.5-1.3,2.7-2.9,3.6-4.8H249.1z"/>
		</g>
	</g>
</g>
<g>
	<path class="st0" d="M154.3,539.7c-5.1,10.9-16.9,14.7-30.6,16c-0.3-1.2-1-3.1-1.7-4.1c5.7-0.4,11.1-1.2,15.6-2.8
		c-1-1-2.4-2.3-3.7-3.3c-1.4,0.7-3,1.4-4.6,2c-0.5-1-1.7-2.6-2.6-3.3c7.4-2.3,12.4-5.8,15.1-9.3l4.6,1.1c-0.7,0.8-1.4,1.6-2.2,2.4
		h6.4l0.8-0.2L154.3,539.7z M149.5,526.5c-4.6,8.3-14.9,12.7-25.2,14.7c-0.4-1.1-1.2-2.8-2-3.8c3.6-0.5,7.3-1.4,10.6-2.7
		c-1-1-2.3-2.2-3.5-3.2c-1,0.6-2.1,1.1-3.3,1.6c-0.6-1-2-2.4-2.9-3.1c5.8-2.2,10.1-5.2,12.5-8l4.6,1.1c-0.6,0.6-1.3,1.3-1.9,1.9h7.6
		l0.8-0.2L149.5,526.5z M133.7,528.7c-0.3,0.3-0.7,0.5-1,0.7c1.5,1.1,3,2.4,4.1,3.5c2.3-1.2,4.4-2.6,5.9-4.2H133.7z M139.5,542
		c-0.7,0.5-1.4,0.9-2.1,1.4c1.5,1.1,3.1,2.4,4.2,3.6c2.4-1.3,4.5-3,6-5H139.5z"/>
	<path class="st0" d="M185.2,551.1c1.2,0,1.4-0.9,1.6-6.1c0.9,0.8,2.8,1.5,4,1.8c-0.4,6.4-1.5,8.3-5.2,8.3h-4.3
		c-4.1,0-5.1-1.4-5.1-5.6v-11h-5.4c-0.6,7.5-2.3,13.6-10.9,17.1c-0.5-1.1-1.7-2.7-2.7-3.5c7.5-2.8,8.5-7.7,8.9-13.6h-8.1v-4.2h32.1
		v4.2h-9.5v11c0,1.4,0.2,1.6,1.4,1.6H185.2z M186.7,528.7h-25.6v-4.1h25.6V528.7z"/>
	<path class="st0" d="M216,528.5c1.9,1.9,5.8,2.8,10.6,3.1c-0.9,0.8-1.9,2.4-2.4,3.4c-4-0.5-7.2-1.7-9.4-3.6
		c-1.4,1.6-4.4,3-10.4,3.7c-0.3-0.7-0.9-1.6-1.4-2.3h-9.5v-3.3h10.9v2.2c6.9-0.7,7.8-2.3,7.8-3.7v-0.5H210c-0.8,1.2-1.6,2.3-2.5,3.1
		c-0.7-0.6-2.3-1.7-3.2-2.2c1.9-1.6,3.4-4,4.2-6.4l3.7,0.8c-0.2,0.5-0.4,1.1-0.6,1.6h10.2l0.6-0.2l2.9,0.9c-0.9,2-2.2,4.2-3.3,5.7
		l-3.3-1.2c0.4-0.6,0.9-1.3,1.3-2.1h-4v0.7V528.5z M217,549.6c3.3,1.2,6.8,2.7,9,3.7l-3.9,2.3c-2.1-1.2-5.8-3-9.4-4.2l2.2-1.8h-10.2
		l3.1,1.4c-3,1.9-7.6,3.7-11.2,4.7c-0.7-0.8-2.2-2.4-3.2-3.1c3.5-0.6,7.3-1.7,9.8-3h-5.2V535h24.1v14.6H217z M203.5,526.9h-9.2v-3.1
		h9.2V526.9z M202.3,539.1h15.6v-1.5h-15.6V539.1z M202.3,543.1h15.6v-1.5h-15.6V543.1z M202.3,547.1h15.6v-1.6h-15.6V547.1z"/>
	<path class="st0" d="M262.8,551.4v3.5h-26.5v-3.5h10.9v-2.1h-7.6v-2.6c-0.6,0.8-1.4,1.5-2.1,2.2c-0.3-0.8-1.1-2.6-1.7-3.6
		c-0.4,3.7-1.5,7.9-3.9,10.8c-0.6-0.8-2.4-2.3-3.3-2.8c2.9-3.6,3.2-8.7,3.2-12.4v-6.4h4.9c-0.6-0.6-1.3-1.3-1.8-1.7
		c2.6-0.4,5.4-0.9,8.2-1.5c-2.3-0.6-4.6-1.1-6.7-1.5l2-1.5h-6.2v-3.3h12.5c-0.4-0.7-0.9-1.3-1.4-1.9l2.9-1.4
		c0.8,0.9,1.8,2.2,2.4,3.3h12.5v3.3H256l1.7,1.1c-1.3,0.6-2.8,1.2-4.4,1.8c2.1,0.6,4.1,1.2,5.7,1.7l-2,1.7h5.3v3.4h-26.1v3
		c0,1.2,0,2.4-0.2,3.8c1.7-1.7,3.2-4,4.1-6.5l3.6,1.1c-0.2,0.5-0.4,0.9-0.6,1.4h4.2v-2.2h4.2v2.2h8.9v3.3h-8.9v1.9h7.8v3.3h-7.8v2.1
		H262.8z M247.3,546v-1.9h-5.9c-0.4,0.6-0.8,1.3-1.2,1.9H247.3z M254.6,534.5c-1.8-0.6-3.9-1.2-6.2-1.8c-2.6,0.7-5.2,1.3-7.7,1.8
		H254.6z M241.6,528.3c2.3,0.5,4.6,1,7,1.6c1.7-0.5,3.4-1,4.7-1.6H241.6z"/>
	<path class="st0" d="M276.7,544.5c0-0.5-0.2-1.1-0.3-1.8c-7.7,1.2-9,1.4-9.9,1.8c-0.2-0.8-0.9-2.8-1.4-3.9c1-0.2,1.8-1,3-2.3
		c0.5-0.5,1.4-1.5,2.4-2.9c-2.9,0.3-3.7,0.5-4.3,0.8c-0.2-0.8-0.8-2.6-1.3-3.6c0.8-0.2,1.4-0.9,2.2-1.9c0.8-1,3.2-5,4.6-8.9l3.8,1.6
		c-1.4,3-3.2,6.1-5.2,8.6l2.7-0.2c0.9-1.5,1.9-3.1,2.6-4.7l3.6,2.3c-2.2,3.7-4.9,7.4-7.7,10.5l4.1-0.5c-0.3-0.9-0.6-1.8-0.9-2.7
		l3.1-1c0.9,2.4,1.9,5.6,2.3,7.5L276.7,544.5z M270,546.3c-0.2,3.2-0.8,6.7-1.6,8.8c-0.8-0.4-2.4-1-3.3-1.2c0.8-2.1,1.2-5.3,1.4-8.2
		L270,546.3z M274.3,545.5c0.5,2.5,0.9,5.7,1,7.8l-3.5,0.7c0-2.1-0.4-5.4-0.8-7.8L274.3,545.5z M278.3,544.4
		c0.7,1.8,1.4,4.1,1.7,5.7l-3.3,1.2c-0.2-1.6-0.9-4-1.5-5.8L278.3,544.4z M298.7,551.2v3.9h-20.5v-3.8h2.8v-27.4h15.4v27.3H298.7z
		 M284.9,527.7v5.2h7.5v-5.2H284.9z M292.4,536.8h-7.5v5.2h7.5V536.8z M284.9,551.2l7.5,0v-5.4h-7.5V551.2z"/>
	<path class="st0" d="M322.1,523.8c-0.4,0.5-0.8,1.1-1.2,1.6c4.6,4.3,9.4,6.7,14.3,8.5c-1.1,1-2.4,2.6-3,3.9
		c-1.7-0.8-3.5-1.7-5.2-2.7v2.3h-18v-1.8c-1.6,1-3.2,1.9-4.8,2.6c-0.7-1.2-1.9-2.8-3.1-3.9c6.6-2.6,13.4-7,17.2-12.6L322.1,523.8z
		 M306.7,540.6h23.2v14.9h-4.6v-1.4h-14.3v1.6h-4.4V540.6z M311.1,544.4v5.7h14.3v-5.7H311.1z M324.5,533.6
		c-2.1-1.4-4.1-3.1-6.3-5.2c-1.8,1.9-3.8,3.6-5.9,5.2H324.5z"/>
	<path class="st0" d="M345.9,542.3v8.6c0,2.1-0.4,3.1-1.6,3.7c-1.2,0.7-2.9,0.8-5.4,0.8c-0.1-1.1-0.7-2.8-1.2-3.9c1.4,0,2.9,0,3.4,0
		c0.5,0,0.7-0.2,0.7-0.7v-7.5l-3.6,0.9l-1.1-4.1c1.4-0.3,3-0.6,4.8-1v-6.3h-4.3v-4h4.3V522h4.2v6.8h3.8v4h-3.8v5.3l2.6-0.6l0.5,3.9
		L345.9,542.3z M368.7,538.6c-1.3,4.4-3.4,7.8-6.2,10.4c2.4,1.2,5.2,2.2,8.3,2.7c-0.9,1-2.1,2.8-2.7,4c-3.6-0.9-6.7-2.2-9.3-3.9
		c-2.9,1.7-6.2,3-9.8,3.9c-0.4-1.2-1.4-3-2.1-3.9c3.1-0.5,5.9-1.5,8.3-2.7c-2-2-3.6-4.3-5-6.9l1.3-0.5h-2.1v-4h15.6l0.8-0.2
		L368.7,538.6z M350.7,537.1c-0.5-0.8-2.1-2.5-2.8-3.1c4.2-1.9,4.8-4.5,4.8-7v-3.9h12.7v7.9c0,1,0,1.5,0.6,1.5h1.9
		c0.6,0,1.5-0.1,2-0.3c0.1,1.1,0.2,2.6,0.3,3.6c-0.5,0.2-1.4,0.3-2.3,0.3h-2.4c-3.5,0-4.3-1.5-4.3-5.1v-3.8l-4.6,0
		C356.6,530.8,355.6,534.8,350.7,537.1z M354.5,541.6c1.1,1.9,2.6,3.6,4.4,5c1.7-1.4,3.1-3.1,4.2-5H354.5z"/>
	<path class="st0" d="M396,528.5c1.9,1.9,5.8,2.8,10.6,3.1c-0.9,0.8-1.9,2.4-2.4,3.4c-4-0.5-7.2-1.7-9.4-3.6
		c-1.4,1.6-4.4,3-10.4,3.7c-0.3-0.7-0.9-1.6-1.4-2.3h-9.5v-3.3h10.9v2.2c6.9-0.7,7.8-2.3,7.8-3.7v-0.5H390c-0.8,1.2-1.6,2.3-2.5,3.1
		c-0.7-0.6-2.3-1.7-3.2-2.2c1.9-1.6,3.4-4,4.2-6.4l3.7,0.8c-0.2,0.5-0.4,1.1-0.6,1.6h10.2l0.6-0.2l2.9,0.9c-0.9,2-2.2,4.2-3.3,5.7
		l-3.3-1.2c0.4-0.6,0.9-1.3,1.3-2.1h-4v0.7V528.5z M397,549.6c3.3,1.2,6.8,2.7,9,3.7l-3.9,2.3c-2.1-1.2-5.8-3-9.4-4.2l2.2-1.8h-10.2
		l3.1,1.4c-3,1.9-7.6,3.7-11.2,4.7c-0.7-0.8-2.2-2.4-3.2-3.1c3.5-0.6,7.3-1.7,9.8-3h-5.2V535h24.1v14.6H397z M383.5,526.9h-9.2v-3.1
		h9.2V526.9z M382.3,539.1h15.6v-1.5h-15.6V539.1z M382.3,543.1h15.6v-1.5h-15.6V543.1z M382.3,547.1h15.6v-1.6h-15.6V547.1z"/>
	<path class="st0" d="M409.6,523.4h17.1v3.6h-4.5v3.5h4.3v24.6H423v-1.8h-9.7v2.3H410v-25.1h4V527h-4.5L409.6,523.4z M423,550v-8.2
		H423h-1.4c-1.9,0-2.4-0.6-2.4-3V534h-1.6v2.6c0,2.1-0.4,4.7-2.4,6.5c-0.4-0.4-1.3-1.2-1.8-1.5v8.3H423z M413.3,534v7.4
		c1.6-1.4,1.8-3.3,1.8-4.8V534H413.3z M414.4,544.4h7.6v3.2h-7.6V544.4z M418.9,527h-1.5v3.5h1.5V527z M423,534h-1.5v4.6
		c0,0.6,0.1,0.6,0.4,0.6h0.7c0.3,0,0.4,0,0.5-0.1V534z M437.4,551.2c1.3,0,1.5-0.9,1.7-5.7c0.9,0.7,2.7,1.4,3.8,1.7
		c-0.4,6.1-1.5,7.9-5.1,7.9H433c-3.9,0-5.1-1.3-5.1-5.6V535h9.5v-7.3h-9.6v-4.1h13.8v15.4h-9.4v10.5c0,1.4,0.2,1.7,1.5,1.7H437.4z"
		/>
	<path class="st0" d="M478.2,551.7v3h-32.3v-3h4.2v-14.5h8.9c0.1-0.4,0.1-0.9,0.2-1.4h-12.7v-3.1h13.1c0.1-0.5,0.1-1,0.1-1.5h-11.7
		v-7.8h28.4v7.8h-12.4c-0.1,0.5-0.1,1-0.2,1.5h13.4v3.1h-13.9l-0.3,1.4h10.8v14.5H478.2z M455.9,526.2h-4v2.1h4V526.2z M454.1,539.8
		v1.3h15.4v-1.3H454.1z M469.6,543.2h-15.4v1.4h15.4V543.2z M454.1,548.2h15.4v-1.5h-15.4V548.2z M454.1,551.7h15.4v-1.3h-15.4
		V551.7z M459.8,528.3h4.1v-2.1h-4.1V528.3z M467.8,528.3h4.2v-2.1h-4.2V528.3z"/>
	<path class="st0" d="M140.2,598.6c1.3,0.2,2.7,0.3,4.2,0.3c1.9,0,7.9,0,10.3-0.1c-0.6,1-1.3,3.1-1.5,4.4h-9
		c-6.7,0-11.7-1.1-14.9-6.3c-1.2,2.8-2.8,5.1-4.8,6.9c-0.7-0.8-2.5-2.3-3.5-2.8c3.9-2.9,5.7-7.9,6.3-14l4.4,0.4
		c-0.2,1.5-0.5,3-0.8,4.4c1.1,3,2.7,4.7,4.8,5.8v-12.2h-7.7v-4.1h19.8v4.1h-7.7v4.2h9.9v4h-9.9V598.6z M126.8,582.9h-4.2v-9h13.4
		c-0.4-1-0.8-2.1-1.3-3l4.3-1.2c0.7,1.3,1.5,2.9,1.9,4.2h12.5v9h-4.4v-5h-22.1V582.9z"/>
	<path class="st0" d="M165.6,596.6c-1.3,2.6-3.4,5.4-5.3,7.2c-0.8-0.8-2.4-2-3.4-2.6c1.9-1.4,3.7-3.7,4.8-5.8L165.6,596.6z
		 M174.8,595.1h-17.7v-3.7h3.2V578h-2.8v-3.7h2.8v-3.8h3.9v3.8h4.5v-3.8h3.9v3.8h2.4v3.7h-2.4v13.4h2.2V595.1z M164.2,578v2.1h4.5
		V578H164.2z M164.2,585.7h4.5v-2.3h-4.5V585.7z M164.2,591.4h4.5V589h-4.5V591.4z M189.6,598.9c0,2.1-0.4,3.2-1.7,3.9
		s-3.1,0.8-5.8,0.8c-0.1-1.1-0.7-3-1.2-4.1c1.5,0.1,3.3,0.1,3.8,0.1c0.5,0,0.7-0.2,0.7-0.8v-7.1H180c-0.4,4.2-1.3,8.8-3.2,12
		c-0.7-0.8-2.4-2.1-3.4-2.4c0.1-0.2,0.3-0.4,0.4-0.6l-3,1.7c-0.7-1.4-2.4-3.8-3.9-5.4l3.2-1.8c1.3,1.4,3,3.4,3.9,4.9
		c2.1-4.5,2.3-10.6,2.3-15.3v-13.2h13.3V598.9z M185.5,587.9v-4.4h-5.2v1.3c0,0.9,0,2,0,3.1H185.5z M180.3,575.5v4.2h5.2v-4.2H180.3
		z"/>
	<path class="st0" d="M212.2,598.6c1.3,0.2,2.7,0.3,4.2,0.3c1.9,0,7.9,0,10.3-0.1c-0.6,1-1.3,3.1-1.5,4.4h-9
		c-6.7,0-11.7-1.1-14.9-6.3c-1.2,2.8-2.8,5.1-4.8,6.9c-0.7-0.8-2.5-2.3-3.5-2.8c3.9-2.9,5.7-7.9,6.3-14l4.4,0.4
		c-0.2,1.5-0.5,3-0.8,4.4c1.1,3,2.7,4.7,4.8,5.8v-12.2h-7.7v-4.1h19.8v4.1h-7.7v4.2h9.9v4h-9.9V598.6z M198.8,582.9h-4.2v-9h13.4
		c-0.4-1-0.8-2.1-1.3-3l4.3-1.2c0.7,1.3,1.5,2.9,1.9,4.2h12.5v9h-4.4v-5h-22.1V582.9z"/>
	<path class="st0" d="M244,592.6h0.1v11.1h-3.7v-0.9h-4.7v0.9h-3.6v-10.4c-0.4,0.2-0.9,0.4-1.3,0.5c-0.4-1-1.4-2.6-2.1-3.4
		c2.2-0.6,4.4-1.5,6.2-2.8c-0.6-0.4-1.3-0.8-1.9-1.1l2.4-2.5l2.4,1.3c0.8-0.7,1.4-1.5,2-2.4h-4.4c-1,1.5-2.3,2.8-4,4
		c-0.4-0.9-1.4-2.3-2.1-2.8c2.8-1.8,4.4-4.3,5.2-6.7l3.2,0.6c-0.2,0.5-0.4,1.1-0.6,1.6h4.5l0.6-0.1l0,0V577h-9.7v3.1h-3.1v-6.5h6.3
		c-0.3-0.8-0.5-1.6-0.8-2.3l3.4-1.2c0.4,1,0.9,2.3,1.4,3.5h5.8v6.5H243l1.5,1.1c-0.9,2.3-2.1,4.2-3.6,5.9c1.9,1.1,3.9,2.3,5.1,3.1
		L244,592.6z M242.8,592.6c-1.2-0.9-2.8-1.9-4.5-2.9c-1.4,1.2-3,2.1-4.6,2.9H242.8z M240.3,599.4v-3.6h-4.7v3.6H240.3z M257.2,596.5
		c1.9,1.2,4.5,3,5.9,4.2l-2.4,2.9c-1.3-1.3-4-3.4-6-4.7l2.1-2.4h-5.4l2.6,2.7c-2.2,1.7-5.3,3.5-7.7,4.6c-0.4-0.9-1.2-2.3-1.8-3.1
		c2.2-1,5.1-2.7,6.8-4.2h-3.9v-19h4.6c0.1-0.8,0.3-1.7,0.4-2.5h-5.9v-3.6h16.1v3.6h-6.3c-0.2,0.9-0.5,1.7-0.8,2.5h6.2v19H257.2z
		 M251.2,582.9h6.4v-2.1h-6.4V582.9z M251.2,588.1h6.4V586h-6.4V588.1z M251.2,593.3h6.4v-2.1h-6.4V593.3z"/>
	<path class="st0" d="M275.6,579.3h5.8v3.6h-3.5l2.2,0.5c-0.6,1.3-1.3,2.5-1.8,3.6h2.5v3.6h-5v2.9h5.8v3.6h-5.8v6.4h-4v-6.4h-6.2
		v-3.6h6.2v-2.9h-5.4V587h2.6c-0.3-1.1-0.8-2.4-1.3-3.6l2-0.6h-4.1v-3.6h6.2v-2.5h-5.2v-3.5h5.2v-3.1h4v3.1h4.9v3.5h-4.9V579.3z
		 M274.6,587c0.6-1.3,1.3-2.9,1.7-4.2h-5.5c0.6,1.2,1.2,2.7,1.4,3.6l-1.6,0.5H274.6z M298.1,584.7c-0.7,4.2-1.9,8.2-3.7,11.5
		c1.4,1.6,3.1,2.9,4.9,3.9c-0.9,0.8-2.2,2.3-2.8,3.4c-1.6-1-3.1-2.2-4.4-3.7c-1.2,1.6-2.6,2.9-4.1,4.1c-0.4-0.6-1-1.3-1.7-1.9v1.8
		h-3.9v-32h14.9v6.8c0,1.8-0.4,2.9-1.8,3.5c-1.4,0.6-3.3,0.6-5.9,0.6c-0.2-1.2-0.7-2.6-1.2-3.7c1.8,0.1,3.7,0.1,4.3,0.1
		c0.5,0,0.7-0.1,0.7-0.5v-3h-7v8.6h8.6l0.7-0.2L298.1,584.7z M286.2,600c1.3-1,2.4-2.3,3.3-3.6c-1.4-2.2-2.4-4.7-3.3-7.4V600z
		 M289.2,587.3c0.6,1.9,1.5,3.7,2.5,5.4c0.8-1.7,1.4-3.5,1.9-5.4H289.2z"/>
	<path class="st0" d="M333.7,570.9v32.8h-3.6v-14.5l-1.1,0.6c-0.3-1.2-0.8-2.8-1.4-4.4v17.2h-3.2v-13.4l-1.3,0.7
		c-0.2-1.3-0.6-3-1.2-4.7c0,6.7-0.4,13.4-3.3,18.5c-0.7-0.7-2.2-1.7-3.1-2.2c2.1-3.6,2.8-7.8,3-12.3l-1.7,0.9c-0.3-2-1-5-1.7-7.4
		v20.1h-3.1v-1.7h-7.1v2.2h-2.9v-25.1h3.3v-3.5h-3.8v-3.3h14v3.3h-3.9v3.5h3.5v4.1l2.3-1.2c0.4,1.3,0.9,2.7,1.3,4.1v-0.2v-14.3h3.4
		v10.8l1.2-0.6c0.4,1.1,0.9,2.4,1.3,3.6v-13.1h3.2v9.7l0.9-0.5c0.5,1.1,1.1,2.3,1.6,3.5v-13.5L333.7,570.9z M311.9,598v-8.6h-1
		c-1.6,0-2-0.5-2-2.5v-5.1h-1.1v3.1c0,2-0.3,4.6-1.9,6.4c-0.3-0.3-0.7-0.7-1.1-1v7.8H311.9z M304.8,581.7v7.7c1-1.4,1.1-3.2,1.1-4.6
		v-3.1H304.8z M305.9,592.4h4.9v3h-4.9V592.4z M307.8,578.3h1.1v-3.5h-1.1V578.3z M311.9,581.7h-1.1v5c0,0.5,0.1,0.5,0.3,0.5h0.6
		h0.1V581.7z"/>
	<path class="st0" d="M359.3,591.4c-0.1-0.5-0.4-1.1-0.7-1.8c-8.6,0.9-10,1.1-10.9,1.5c-0.2-0.7-0.7-2.5-1.2-3.4
		c-2.4,1.3-4.9,2.6-7,3.6l-2.1-3.4c2.3-0.8,5.7-2.3,9-3.6l0.8,3.1l-0.6,0.4c0.9-0.2,1.8-0.8,3.1-1.8c0.5-0.4,1.6-1.3,2.8-2.5
		c-2.8,0.2-3.6,0.4-4.1,0.6c-0.2-0.8-0.8-2.4-1.2-3.3c0.5-0.1,1.1-0.6,1.7-1.2c0.3-0.4,1.1-1.3,1.9-2.6h-12.3v-3.9h13.4
		c-0.4-0.7-0.8-1.5-1.2-2.1l4.4-1c0.7,0.9,1.5,2.1,2,3.1h12.8v3.9H355c-0.8,1.1-1.6,2.2-2.5,3.2l3.3-0.1c0.8-0.9,1.6-1.9,2.3-2.9
		l3.3,1.9c-2.4,2.9-5.3,5.7-8.2,8l3.8-0.3c-0.4-0.6-0.8-1.3-1.2-1.8l3.1-1.1c0.5,0.7,1.2,1.5,1.7,2.3l2.4-1.9
		c2.3,1.2,5.6,3.2,7.2,4.6l-3.1,2.6c-1.2-1.2-3.6-2.8-5.8-4.1c0.6,1,1.1,2.1,1.4,2.9L359.3,591.4z M370.4,597.1h-14.1v6.6h-4.6v-6.6
		h-14.1v-4h14.1v-2.4h4.6v2.4h14.1V597.1z M343.8,583.9c-1.1-1.2-3.5-2.9-5.3-4.1l2.8-2.3c1.8,1,4.3,2.7,5.5,3.8L343.8,583.9z
		 M360.7,581.9c1.5-1.1,3.5-3.1,4.6-4.5l3.6,2.1c-1.5,1.7-3.5,3.3-5,4.4L360.7,581.9z"/>
</g>
</svg>
