<?xml version="1.0" encoding="utf-8"?>
<!-- Generator: Adobe Illustrator 26.3.1, SVG Export Plug-In . SVG Version: 6.00 Build 0)  -->
<svg version="1.1" id="圖層_1" xmlns="http://www.w3.org/2000/svg" xmlns:xlink="http://www.w3.org/1999/xlink" x="0px" y="0px"
	 viewBox="0 0 300 350" style="enable-background:new 0 0 300 350;" xml:space="preserve">
<style type="text/css">
	.st0{fill:#FFFFFF;}
	.st1{fill:#002362;}
	.st2{fill:#FD0302;}
	.st3{fill:#060593;}
	.st4{fill:#005BAC;}
	.st5{fill:none;stroke:#CCCCCC;stroke-linejoin:round;stroke-miterlimit:10;}
</style>
<g>
	<path class="st0" d="M280,0c9.3,0,17,7.5,17,16.9v316.2c0,9.3-7.6,16.9-17,16.9H20c-9.3,0-17-7.5-17-16.9V16.9C3,7.6,10.6,0,20,0
		H280z"/>
	<g>
		<g>
			<path class="st1" d="M142.8,24.9c1.9,1.7,4.2,4.1,5.3,5.8l-1.3,0.9c-0.3-0.5-0.7-1.1-1.2-1.7c-11.4,0.6-12.6,0.7-13.4,1
				c-0.1-0.3-0.3-1.1-0.5-1.5c0.4-0.1,1-0.5,1.6-1.2c0.7-0.6,3-3.2,4.6-5.6l1.5,0.7c-1.6,2.2-3.4,4.2-5.1,5.9l10.2-0.5
				c-0.9-1-1.9-2.1-2.9-2.9L142.8,24.9z M133.3,32.5H146v8.3h-1.6v-1h-9.7v1.1h-1.5v-8.4H133.3z M134.8,33.9v4.4h9.7v-4.4H134.8z"/>
			<path class="st1" d="M153.3,31.3c-0.6-0.6-1.8-1.5-2.9-2.1l0.8-1c1,0.5,2.3,1.4,2.9,2L153.3,31.3z M150.8,39.9
				c0.7-1.5,1.8-4.1,2.5-6.4l1.2,0.8c-0.7,2.1-1.5,4.5-2.3,6.3L150.8,39.9z M153.7,26.1c-0.5-0.7-1.8-1.6-2.8-2.2l0.9-1
				c1,0.6,2.2,1.5,2.8,2.1L153.7,26.1z M155.9,30c-0.2,1-0.5,2.1-0.9,2.8c-0.2-0.1-0.5-0.4-0.7-0.5c0.4-0.7,0.6-1.6,0.8-2.5
				L155.9,30z M158.6,29.2c-0.1-0.2-0.1-0.4-0.2-0.6c-2.7,0.4-3.2,0.5-3.5,0.6c0-0.2-0.2-0.6-0.3-0.8c0.3,0,0.6-0.3,0.9-0.7
				c0.2-0.2,0.7-0.8,1.2-1.5c-1.3,0.1-1.6,0.2-1.8,0.3c-0.1-0.2-0.2-0.6-0.3-0.8c0.2,0,0.4-0.2,0.6-0.5c0.2-0.3,0.9-1.4,1.2-2.5
				l0.9,0.3c-0.3,0.8-0.9,1.7-1.3,2.3l1.3-0.1c0.2-0.3,0.4-0.6,0.5-0.9l0.9,0.4c-0.7,1.1-1.6,2.3-2.5,3.2l1.8-0.2
				c-0.1-0.2-0.3-0.4-0.4-0.7l0.8-0.3c0.4,0.6,0.8,1.5,1,2L158.6,29.2z M167.9,36.9c0,0,0,0.4-0.1,0.6c-0.4,1.7-0.8,2.6-1.3,3
				c-0.4,0.3-0.8,0.4-1.5,0.4c-0.6,0-1.8,0-3.1-0.1c0-0.3-0.2-0.8-0.4-1.1c1.3,0.1,2.6,0.1,3.1,0.1c0.4,0,0.6,0,0.8-0.2
				c0.3-0.2,0.6-0.7,0.9-1.7h-10.5c0.3-0.8,0.6-2,0.9-3h9v-1H156v-1h11v3h-9.3c-0.1,0.3-0.2,0.7-0.3,1H167.9z M156.8,32.4
				c0-0.6-0.2-1.7-0.4-2.5l0.8-0.2c0.3,0.8,0.5,1.8,0.5,2.4L156.8,32.4z M158.5,29.4c0.3,0.7,0.6,1.6,0.7,2.1l-0.8,0.3
				c-0.1-0.6-0.4-1.5-0.7-2.2L158.5,29.4z M163.9,25.5H159v-0.9h2.1c-0.1-0.5-0.5-1.1-0.8-1.6l1-0.3c0.3,0.5,0.7,1.2,0.9,1.6
				l-0.9,0.3h2.5L163.9,25.5L163.9,25.5z M159.6,29.3h3.8v2.9h-3.8V29.3z M163.3,27.1h-3.7v-0.8h3.7V27.1z M159.7,27.7h3.7v0.8h-3.7
				V27.7z M160.6,31.4h1.8v-1.3h-1.8V31.4z M165.2,29.9c-0.2,1-0.5,2-0.9,2.8c-0.2-0.1-0.6-0.4-0.8-0.5c0.4-0.7,0.6-1.6,0.8-2.4
				L165.2,29.9z M167.9,29.3c-0.1-0.2-0.2-0.5-0.3-0.7c-2.7,0.4-3.2,0.5-3.5,0.6c-0.1-0.1-0.2-0.6-0.3-0.8c0.3,0,0.6-0.3,0.9-0.7
				c0.2-0.2,0.7-0.8,1.2-1.5c-1.3,0.1-1.7,0.2-1.9,0.3c-0.1-0.2-0.2-0.6-0.3-0.8c0.2,0,0.4-0.2,0.6-0.5c0.2-0.3,0.9-1.4,1.2-2.5
				l0.9,0.3c-0.3,0.8-0.8,1.7-1.3,2.3l1.3-0.1c0.2-0.3,0.4-0.6,0.5-0.9l0.9,0.4c-0.7,1.1-1.6,2.2-2.5,3.2l1.7-0.2
				c-0.1-0.2-0.2-0.4-0.4-0.6l0.7-0.3c0.4,0.7,0.9,1.5,1,2.1L167.9,29.3z M166,32.6c0-0.7-0.2-1.8-0.5-2.7l0.8-0.2
				c0.3,0.9,0.5,1.9,0.5,2.6L166,32.6z M167.8,29.4c0.4,0.8,0.8,1.9,0.9,2.5l-0.8,0.4c-0.1-0.7-0.4-1.8-0.8-2.6L167.8,29.4z"/>
			<path class="st1" d="M177.4,39c0,0.8-0.2,1.2-0.6,1.5c-0.5,0.2-1.2,0.3-2.5,0.3c-0.1-0.4-0.2-1-0.4-1.4c0.9,0,1.6,0,1.9,0
				c0.2,0,0.3-0.1,0.3-0.4v-5.4c-0.8,0.5-1.7,1-2.4,1.5l-0.6-1.2c-0.1,2.5-0.5,5.1-1.5,7.1c-0.3-0.2-0.9-0.6-1.2-0.7
				c1.3-2.8,1.4-6.8,1.4-9.7v-7.1h5.5V39H177.4z M173.2,30.5c0,0.9,0,2-0.1,3.1c0.8-0.3,1.8-0.8,2.9-1.3V30l-0.8,0.6
				c-0.4-0.6-1.3-1.6-2.1-2.4v2.3H173.2z M173.2,24.7v3.1l0.7-0.5c0.8,0.7,1.7,1.6,2.2,2.2v-4.8H173.2z M188.1,31.7
				c-0.8,2.5-2,4.4-3.7,5.9c1.3,0.9,2.7,1.6,4.4,2c-0.4,0.3-0.8,0.9-1,1.3c-1.7-0.5-3.3-1.3-4.6-2.4c-1.4,1-3,1.8-4.8,2.3
				c-0.2-0.4-0.5-1-0.8-1.3c1.6-0.4,3.1-1.1,4.5-2c-1.3-1.3-2.3-2.8-3-4.6l0.3-0.1h-1v-1.4h8.4l0.2-0.1L188.1,31.7z M181.8,25.6
				c0,1.8-0.5,3.9-3,5.3c-0.2-0.3-0.7-0.8-1-1c2.2-1.2,2.5-2.9,2.5-4.3v-2.2h6.1V28c0,0.5,0,0.7,0.3,0.7h1.1c0.2,0,0.6,0,0.9-0.1
				c0,0.4,0.1,0.9,0.1,1.2c-0.2,0.1-0.6,0.1-0.9,0.1h-1.2c-1.3,0-1.6-0.6-1.6-2v-3.2h-3.3L181.8,25.6L181.8,25.6z M180.6,32.8
				c0.6,1.5,1.6,2.8,2.7,3.9c1.2-1.1,2.2-2.4,2.8-3.9H180.6z"/>
			<path class="st1" d="M200.4,27v2.7h6.5v7c0,0.9-0.2,1.3-0.8,1.6c-0.7,0.2-1.8,0.3-3.5,0.3c-0.1-0.5-0.3-1.1-0.5-1.5
				c1.4,0,2.6,0,2.9,0c0.4,0,0.5-0.1,0.5-0.4v-5.5h-5v9.7H199v-9.7h-4.7v7.4h-1.5v-8.9h6.2V27h-8.1v-1.5h8.5
				c-0.3-0.8-0.9-1.8-1.3-2.6l1.4-0.4c0.6,0.9,1.3,2.2,1.6,3l-0.3,0.1h7.9V27H200.4z"/>
		</g>
		<g id="XMLID_5127_">
			<path id="XMLID_5145_" class="st2" d="M120.3,32c0,8.3-6.7,15-15,15s-15-6.7-15-15s6.7-15,15-15h1.7v0.1
				C114.5,18,120.3,24.3,120.3,32z"/>
			<g id="XMLID_5128_">
				<path id="XMLID_5144_" class="st3" d="M107.1,17v15H90.3c0-8.3,6.7-15,15-15H107.1z"/>
				<g id="XMLID_5129_">
					<g id="XMLID_5131_">
						<path id="XMLID_5143_" class="st0" d="M100.4,22.3c-0.2,0-0.4-0.1-0.6-0.1s-0.4,0-0.6,0.1l0.6-2.3L100.4,22.3z"/>
						<path id="XMLID_5142_" class="st0" d="M98.9,22.4c-0.4,0.1-0.8,0.3-1.1,0.6l-0.6-2.3L98.9,22.4z"/>
						<path id="XMLID_5141_" class="st0" d="M97.6,23.2c-0.3,0.3-0.5,0.7-0.6,1.1l-1.6-1.7L97.6,23.2z"/>
						<path id="XMLID_5140_" class="st0" d="M96.9,25.2c0,0.2,0,0.4,0.1,0.6l-2.3-0.6l2.3-0.6C96.9,24.7,96.9,24.9,96.9,25.2z"/>
						<path id="XMLID_5139_" class="st0" d="M97.6,27.1l-2.3,0.6L97,26C97.1,26.5,97.4,26.8,97.6,27.1z"/>
						<path id="XMLID_5138_" class="st0" d="M98.9,27.9l-1.7,1.7l0.6-2.3C98.1,27.6,98.5,27.8,98.9,27.9z"/>
						<path id="XMLID_5137_" class="st0" d="M100.4,28l-0.6,2.3L99.2,28c0.2,0,0.4,0.1,0.6,0.1C100,28.1,100.2,28.1,100.4,28z"/>
						<path id="XMLID_5136_" class="st0" d="M102.4,29.6l-1.7-1.7c0.4-0.1,0.8-0.3,1.1-0.6L102.4,29.6z"/>
						<path id="XMLID_5135_" class="st0" d="M104.2,27.7l-2.3-0.6c0.3-0.3,0.5-0.7,0.6-1.1L104.2,27.7z"/>
						<path id="XMLID_5134_" class="st0" d="M102.6,25.8c0-0.2,0.1-0.4,0.1-0.6s0-0.4-0.1-0.6l2.3,0.6L102.6,25.8z"/>
						<path id="XMLID_5133_" class="st0" d="M104.2,22.6l-1.7,1.7c-0.1-0.4-0.3-0.8-0.6-1.1L104.2,22.6z"/>
						<path id="XMLID_5132_" class="st0" d="M102.4,20.7l-0.6,2.3c-0.3-0.3-0.7-0.5-1.1-0.6L102.4,20.7z"/>
					</g>
					<circle id="XMLID_5130_" class="st0" cx="99.8" cy="25.2" r="2.6"/>
				</g>
			</g>
		</g>
	</g>
	<g>
		<polygon class="st4" points="54.4,249.1 80.4,249.1 80.4,301.2 54.4,301.2 		"/>
		<polygon class="st4" points="137,195.4 163,195.4 163,301.2 137,301.2 		"/>
		<polygon class="st4" points="219.6,117.5 245.6,117.5 245.6,301.2 219.6,301.2 		"/>
		<g>
			<path class="st4" d="M55.6,241.5h-9.7v-1.9l4.6-4.9c0.6-0.7,1.1-1.3,1.4-1.8s0.5-1,0.5-1.5c0-0.6-0.2-1.1-0.5-1.5
				s-0.8-0.5-1.4-0.5c-0.6,0-1.1,0.2-1.5,0.7s-0.6,1-0.6,1.7h-2.8c0-0.9,0.2-1.7,0.6-2.4s1-1.3,1.8-1.7s1.6-0.6,2.6-0.6
				c1.5,0,2.6,0.4,3.4,1.1s1.2,1.7,1.2,3c0,0.7-0.2,1.4-0.5,2.1s-1,1.6-1.9,2.5l-3.2,3.4h6.1L55.6,241.5L55.6,241.5z"/>
			<path class="st4" d="M64,235.8c-0.7,0.7-1.6,1.1-2.6,1.1c-1.3,0-2.3-0.4-3-1.3s-1.1-2-1.1-3.5c0-0.9,0.2-1.8,0.6-2.6
				s1-1.4,1.7-1.8s1.5-0.6,2.5-0.6c0.9,0,1.8,0.2,2.5,0.7s1.3,1.1,1.7,2s0.6,1.9,0.6,3v1c0,2.4-0.6,4.2-1.8,5.6s-2.8,2.1-5,2.2h-0.7
				v-2.4H60C62.4,239.2,63.8,238,64,235.8z M62.1,234.8c0.5,0,0.8-0.1,1.2-0.4s0.6-0.5,0.7-0.8v-1.2c0-1-0.2-1.7-0.5-2.2
				s-0.9-0.8-1.5-0.8s-1,0.3-1.4,0.8s-0.5,1.2-0.5,1.9c0,0.8,0.2,1.4,0.5,1.9S61.4,234.8,62.1,234.8z"/>
			<path class="st4" d="M69.2,240.1c0-0.4,0.2-0.8,0.5-1.1s0.7-0.4,1.1-0.4c0.5,0,0.8,0.1,1.1,0.4s0.5,0.6,0.5,1.1
				c0,0.4-0.1,0.8-0.4,1.1s-0.7,0.4-1.2,0.4s-0.8-0.1-1.1-0.4S69.2,240.6,69.2,240.1z"/>
			<path class="st4" d="M81.3,241.5h-6.8v-1.4l3.2-3.4c0.4-0.5,0.8-0.9,1-1.3c0.2-0.4,0.3-0.7,0.3-1c0-0.4-0.1-0.8-0.3-1
				c-0.2-0.3-0.5-0.4-1-0.4c-0.4,0-0.8,0.2-1.1,0.5c-0.3,0.3-0.4,0.7-0.4,1.2h-2c0-0.6,0.1-1.2,0.4-1.7s0.7-0.9,1.2-1.2
				s1.1-0.4,1.8-0.4c1,0,1.8,0.2,2.4,0.7s0.9,1.2,0.9,2.1c0,0.5-0.1,1-0.4,1.5s-0.7,1.1-1.3,1.8l-2.3,2.4h4.3v1.6L81.3,241.5
				L81.3,241.5z"/>
			<path class="st4" d="M87.4,241.5h-2v-7.6l-2.4,0.7V233l4.1-1.5h0.2v10H87.4z"/>
		</g>
		<g>
			<path class="st4" d="M128.8,180.8l0.8-7.2h8v2.4H132l-0.4,3.1c0.7-0.4,1.4-0.5,2.1-0.5c1.4,0,2.4,0.4,3.2,1.3s1.2,2,1.2,3.5
				c0,0.9-0.2,1.7-0.6,2.5c-0.4,0.7-0.9,1.3-1.7,1.7s-1.6,0.6-2.6,0.6c-0.9,0-1.7-0.2-2.4-0.5s-1.3-0.8-1.7-1.5
				c-0.4-0.6-0.7-1.4-0.7-2.2h2.8c0.1,0.6,0.3,1.1,0.6,1.4c0.4,0.3,0.8,0.5,1.4,0.5c0.6,0,1.1-0.2,1.5-0.7c0.3-0.5,0.5-1.1,0.5-1.9
				c0-0.8-0.2-1.4-0.6-1.9s-1-0.6-1.7-0.6s-1.2,0.2-1.6,0.5l-0.3,0.3L128.8,180.8z"/>
			<path class="st4" d="M146.6,182.1c-0.7,0.7-1.6,1.1-2.6,1.1c-1.3,0-2.3-0.4-3-1.3s-1.1-2-1.1-3.5c0-0.9,0.2-1.8,0.6-2.6
				s1-1.4,1.7-1.8s1.5-0.6,2.5-0.6c0.9,0,1.8,0.2,2.5,0.7s1.3,1.1,1.7,2s0.6,1.9,0.6,3v1c0,2.4-0.6,4.2-1.8,5.6
				c-1.2,1.4-2.8,2.1-5,2.2H142v-2.4h0.6C145.1,185.4,146.4,184.3,146.6,182.1z M144.7,181c0.5,0,0.8-0.1,1.2-0.4s0.6-0.5,0.7-0.8
				v-1.2c0-1-0.2-1.7-0.5-2.2s-0.9-0.8-1.5-0.8s-1,0.3-1.4,0.8s-0.5,1.2-0.5,1.9c0,0.8,0.2,1.4,0.5,1.9S144.1,181,144.7,181z"/>
			<path class="st4" d="M151.8,186.4c0-0.4,0.2-0.8,0.5-1.1s0.7-0.4,1.1-0.4c0.5,0,0.8,0.1,1.1,0.4c0.3,0.3,0.5,0.6,0.5,1.1
				c0,0.4-0.1,0.8-0.4,1.1c-0.3,0.3-0.7,0.4-1.2,0.4s-0.8-0.1-1.1-0.4C151.9,187.2,151.8,186.8,151.8,186.4z"/>
			<path class="st4" d="M159.1,181.9h1.1c0.5,0,0.9-0.1,1.1-0.4s0.4-0.6,0.4-1s-0.1-0.7-0.4-0.9c-0.2-0.2-0.6-0.3-1-0.3
				s-0.7,0.1-1,0.3s-0.4,0.5-0.4,0.8h-2c0-0.5,0.1-1,0.4-1.4c0.3-0.4,0.7-0.7,1.2-1c0.5-0.2,1.1-0.3,1.7-0.3c1.1,0,1.9,0.3,2.5,0.8
				s0.9,1.2,0.9,2.1c0,0.5-0.1,0.9-0.4,1.3s-0.6,0.7-1.1,0.9c0.6,0.2,1,0.5,1.3,0.9s0.4,0.9,0.4,1.4c0,0.9-0.3,1.6-1,2.1
				c-0.6,0.5-1.5,0.8-2.6,0.8c-1,0-1.8-0.3-2.4-0.8c-0.6-0.5-0.9-1.2-0.9-2.1h2c0,0.4,0.1,0.7,0.4,0.9c0.3,0.2,0.6,0.4,1,0.4
				c0.5,0,0.8-0.1,1.1-0.4c0.3-0.2,0.4-0.6,0.4-1c0-1-0.5-1.5-1.6-1.5h-1L159.1,181.9L159.1,181.9z"/>
			<path class="st4" d="M171.7,180.5c0,0.5-0.1,0.9-0.4,1.3s-0.6,0.7-1,0.9c0.5,0.2,0.9,0.6,1.1,1s0.4,0.9,0.4,1.4
				c0,0.9-0.3,1.6-0.9,2.1s-1.4,0.8-2.5,0.8s-1.9-0.3-2.5-0.8s-0.9-1.2-0.9-2.1c0-0.6,0.1-1,0.4-1.4s0.7-0.7,1.1-1
				c-0.4-0.2-0.8-0.5-1-0.9s-0.4-0.8-0.4-1.3c0-0.8,0.3-1.5,0.8-2s1.3-0.8,2.3-0.8s1.7,0.2,2.3,0.7
				C171.4,178.9,171.7,179.6,171.7,180.5z M169.9,184.9c0-0.4-0.1-0.8-0.4-1s-0.6-0.4-1-0.4s-0.8,0.1-1,0.4s-0.4,0.6-0.4,1
				s0.1,0.8,0.4,1s0.6,0.4,1,0.4s0.8-0.1,1-0.4C169.8,185.7,169.9,185.3,169.9,184.9z M169.7,180.6c0-0.4-0.1-0.7-0.3-0.9
				s-0.5-0.4-0.9-0.4s-0.7,0.1-0.9,0.3s-0.3,0.5-0.3,0.9s0.1,0.7,0.3,1s0.5,0.4,0.9,0.4s0.7-0.1,0.9-0.4
				C169.6,181.3,169.7,181,169.7,180.6z"/>
		</g>
		<g>
			<path class="st4" d="M212.1,109.9h-2.8V99.1l-3.4,1v-2.3l5.9-2.1h0.3V109.9z"/>
			<path class="st4" d="M226.4,104.1c0,2-0.4,3.5-1.2,4.5s-2,1.6-3.6,1.6c-1.5,0-2.7-0.5-3.6-1.5s-1.2-2.5-1.3-4.4v-2.6
				c0-2,0.4-3.5,1.2-4.5s2-1.5,3.6-1.5s2.7,0.5,3.6,1.5s1.2,2.5,1.3,4.4V104.1z M223.6,101.2c0-1.2-0.2-2-0.5-2.6s-0.8-0.8-1.5-0.8
				s-1.2,0.3-1.5,0.8s-0.5,1.3-0.5,2.4v3.5c0,1.2,0.2,2,0.5,2.6s0.8,0.8,1.5,0.8s1.2-0.3,1.5-0.8s0.5-1.4,0.5-2.5V101.2z"/>
			<path class="st4" d="M231.2,101.6h1.5c0.7,0,1.2-0.2,1.6-0.5s0.5-0.8,0.5-1.4s-0.2-1-0.5-1.3s-0.8-0.5-1.4-0.5
				c-0.5,0-1,0.1-1.4,0.4S231,99,231,99.5h-2.8c0-0.7,0.2-1.4,0.6-2s1-1,1.7-1.4s1.5-0.5,2.4-0.5c1.5,0,2.7,0.4,3.5,1.1
				s1.3,1.7,1.3,3c0,0.7-0.2,1.2-0.6,1.8s-0.9,1-1.6,1.3c0.8,0.3,1.4,0.7,1.8,1.3s0.6,1.2,0.6,2c0,1.3-0.5,2.3-1.4,3
				s-2.1,1.1-3.7,1.1c-1.4,0-2.6-0.4-3.5-1.1s-1.4-1.7-1.4-3h2.8c0,0.5,0.2,1,0.6,1.3s0.9,0.5,1.5,0.5c0.7,0,1.2-0.2,1.6-0.5
				s0.6-0.8,0.6-1.4c0-1.4-0.8-2.1-2.3-2.1h-1.5L231.2,101.6L231.2,101.6z"/>
			<path class="st4" d="M240.2,108.5c0-0.4,0.2-0.8,0.5-1.1s0.7-0.4,1.1-0.4c0.5,0,0.8,0.1,1.1,0.4s0.5,0.6,0.5,1.1
				c0,0.4-0.1,0.8-0.4,1.1s-0.7,0.4-1.2,0.4s-0.8-0.1-1.1-0.4S240.2,109,240.2,108.5z"/>
			<path class="st4" d="M252.2,105.8c0,1.4-0.3,2.4-0.9,3.2s-1.4,1.1-2.5,1.1s-1.9-0.4-2.5-1.1s-0.9-1.7-0.9-3.1v-1.8
				c0-1.4,0.3-2.4,0.9-3.2c0.6-0.7,1.4-1.1,2.5-1.1s1.9,0.4,2.5,1.1s0.9,1.7,0.9,3.1V105.8z M250.2,103.8c0-0.8-0.1-1.4-0.3-1.8
				s-0.6-0.6-1.1-0.6s-0.8,0.2-1,0.5c-0.2,0.4-0.3,0.9-0.4,1.7v2.4c0,0.8,0.1,1.4,0.3,1.8s0.6,0.6,1.1,0.6s0.8-0.2,1-0.6
				s0.3-1,0.3-1.7L250.2,103.8L250.2,103.8z"/>
			<path class="st4" d="M258.9,99.9v1.6h-0.2c-0.9,0-1.6,0.2-2.2,0.7c-0.5,0.5-0.9,1.1-1,1.9c0.5-0.5,1.2-0.8,2-0.8
				c0.9,0,1.6,0.3,2.1,0.9s0.8,1.4,0.8,2.4c0,0.6-0.1,1.2-0.4,1.8c-0.3,0.5-0.7,0.9-1.2,1.2c-0.5,0.3-1.1,0.4-1.7,0.4
				c-1,0-1.9-0.4-2.5-1.1s-1-1.7-1-2.9v-0.7c0-1.1,0.2-2,0.6-2.9c0.4-0.8,1-1.5,1.8-1.9c0.8-0.5,1.6-0.7,2.7-0.7L258.9,99.9
				L258.9,99.9z M257,104.9c-0.3,0-0.6,0.1-0.9,0.2s-0.5,0.4-0.6,0.7v0.6c0,0.7,0.1,1.2,0.4,1.5s0.6,0.6,1.1,0.6
				c0.4,0,0.8-0.2,1-0.5c0.3-0.3,0.4-0.8,0.4-1.3s-0.1-1-0.4-1.3S257.5,104.9,257,104.9z"/>
		</g>
		<g>
			<g>
				<path class="st1" d="M53.7,327.4h-1.3V319l-2.5,0.9v-1.1l3.6-1.4h0.2V327.4z"/>
				<path class="st1" d="M71.3,325.3h-5.1v3.2h-1.1v-3.2h-6.5v-1H61v-3.8h4.2v-2.1h-3.4c-0.6,1.1-1.4,2-2.1,2.8
					c-0.2-0.2-0.6-0.5-0.9-0.7c1.3-1.1,2.5-3,3.2-4.8l1.1,0.3c-0.2,0.5-0.4,1-0.6,1.5h8.3v1h-4.4v2.1h4.1v1h-4.1v2.8h5.1v0.9
					L71.3,325.3L71.3,325.3z M65.2,324.3v-2.8h-3.1v2.8H65.2z"/>
				<path class="st1" d="M76.7,318.9c-0.4,0.7-0.8,1.3-1.2,1.9v7.7h-1V322c-0.4,0.5-0.9,0.9-1.3,1.3c-0.1-0.2-0.4-0.7-0.6-0.9
					c1.2-1,2.5-2.4,3.2-3.9L76.7,318.9z M76.4,316.1c-0.8,1.2-2,2.5-3.1,3.3c-0.1-0.2-0.4-0.6-0.6-0.8c1-0.7,2.2-1.9,2.7-2.9
					L76.4,316.1z M84.2,323.2c-0.6,1.3-1.5,2.4-2.7,3.2c1.1,0.5,2.4,1,3.7,1.2c-0.2,0.2-0.5,0.6-0.6,0.9c-1.5-0.3-2.8-0.8-4-1.5
					c-1.3,0.7-2.7,1.2-4.1,1.6c-0.1-0.3-0.3-0.7-0.5-0.9c1.3-0.2,2.6-0.7,3.7-1.2c-0.6-0.4-1.1-0.9-1.6-1.4
					c-0.4,0.3-0.7,0.6-1.1,0.9c-0.1-0.2-0.5-0.6-0.7-0.8c0.4-0.3,0.8-0.6,1.2-0.9c-0.3-0.3-0.5-0.7-0.7-1.1l0.9-0.3
					c0.1,0.3,0.3,0.5,0.4,0.7c0.5-0.5,1-1.1,1.3-1.8c-2,0.1-2.4,0.2-2.6,0.3c0-0.2-0.2-0.7-0.3-1c0.4-0.1,0.9-0.3,1.6-0.7
					c0.3-0.2,1-0.6,1.8-1.1c-2.1,0.1-2.5,0.2-2.7,0.3c0-0.2-0.2-0.7-0.3-1c0.3,0,0.6-0.2,0.9-0.5c0.4-0.3,1.6-1.3,2.5-2.3l1,0.4
					c-0.8,0.9-1.8,1.7-2.7,2.3l2.5-0.1c0.6-0.5,1.3-1,1.8-1.5l1,0.5c-1.7,1.4-3.4,2.5-5.1,3.4l4.4-0.2c-0.3-0.4-0.6-0.8-1-1.2
					L83,319c0.8,0.9,1.8,2.2,2.3,3l-0.9,0.5c-0.2-0.3-0.4-0.7-0.7-1.1l-3.1,0.2c-0.2,0.4-0.4,0.8-0.7,1.1h3.4h0.2L84.2,323.2z
					 M79.3,323.7c-0.2,0.2-0.3,0.4-0.5,0.6c0.5,0.6,1.1,1.1,1.8,1.5c0.9-0.6,1.6-1.3,2.1-2.1H79.3z"/>
			</g>
		</g>
		<g>
			<g>
				<path class="st1" d="M138.7,327.4h-6.5v-0.9l3.4-3.8c0.5-0.6,0.9-1,1.1-1.4c0.2-0.4,0.3-0.7,0.3-1.1c0-0.5-0.2-0.9-0.5-1.3
					s-0.7-0.5-1.3-0.5s-1.1,0.2-1.5,0.5c-0.3,0.4-0.5,0.9-0.5,1.5H132c0-0.9,0.3-1.7,0.9-2.2s1.4-0.8,2.4-0.8c0.9,0,1.7,0.2,2.2,0.7
					s0.8,1.1,0.8,1.9c0,1-0.6,2.1-1.9,3.5l-2.7,2.9h5V327.4z"/>
				<path class="st1" d="M153.9,325.3h-5.1v3.2h-1.1v-3.2h-6.5v-1h2.3v-3.8h4.2v-2.1h-3.4c-0.6,1.1-1.4,2-2.1,2.8
					c-0.2-0.2-0.6-0.5-0.9-0.7c1.3-1.1,2.5-3,3.2-4.8l1.1,0.3c-0.2,0.5-0.4,1-0.6,1.5h8.3v1h-4.4v2.1h4.1v1h-4.1v2.8h5.1v0.9
					L153.9,325.3L153.9,325.3z M147.8,324.3v-2.8h-3.1v2.8H147.8z"/>
				<path class="st1" d="M159.3,318.9c-0.3,0.7-0.8,1.3-1.2,1.9v7.7h-1V322c-0.4,0.5-0.9,0.9-1.3,1.3c-0.1-0.2-0.4-0.7-0.6-0.9
					c1.2-1,2.5-2.4,3.2-3.9L159.3,318.9z M159,316.1c-0.8,1.2-2,2.5-3.1,3.3c-0.1-0.2-0.4-0.6-0.6-0.8c1-0.7,2.2-1.9,2.7-2.9
					L159,316.1z M166.8,323.2c-0.6,1.3-1.5,2.4-2.7,3.2c1.1,0.5,2.4,1,3.7,1.2c-0.2,0.2-0.5,0.6-0.6,0.9c-1.5-0.3-2.8-0.8-4-1.5
					c-1.3,0.7-2.7,1.2-4.1,1.6c-0.1-0.3-0.3-0.7-0.5-0.9c1.3-0.2,2.6-0.7,3.7-1.2c-0.6-0.4-1.1-0.9-1.6-1.4
					c-0.4,0.3-0.7,0.6-1.1,0.9c-0.1-0.2-0.5-0.6-0.7-0.8c0.4-0.3,0.8-0.6,1.2-0.9c-0.3-0.3-0.5-0.7-0.7-1.1l0.9-0.3
					c0.1,0.3,0.3,0.5,0.4,0.7c0.5-0.5,1-1.1,1.3-1.8c-2,0.1-2.4,0.2-2.6,0.3c0-0.2-0.2-0.7-0.3-1c0.4-0.1,0.9-0.3,1.6-0.7
					c0.3-0.2,1-0.6,1.8-1.1c-2.1,0.1-2.5,0.2-2.7,0.3c0-0.2-0.2-0.7-0.3-1c0.3,0,0.6-0.2,0.9-0.5c0.4-0.3,1.6-1.3,2.5-2.3l1,0.4
					c-0.8,0.9-1.8,1.7-2.7,2.3l2.5-0.1c0.6-0.5,1.3-1,1.8-1.5l1,0.5c-1.7,1.4-3.4,2.5-5.1,3.4l4.4-0.2c-0.3-0.4-0.6-0.8-1-1.2
					l0.8-0.4c0.8,0.9,1.8,2.2,2.3,3l-0.9,0.5c-0.2-0.3-0.4-0.7-0.7-1.1l-3.1,0.2c-0.2,0.4-0.4,0.8-0.7,1.1h3.4h0.2L166.8,323.2z
					 M161.9,323.7c-0.2,0.2-0.3,0.4-0.5,0.6c0.5,0.6,1.1,1.1,1.8,1.5c0.9-0.6,1.6-1.3,2.1-2.1H161.9z"/>
			</g>
		</g>
		<g>
			<g>
				<path class="st1" d="M216.7,321.8h1c0.6,0,1.1-0.2,1.4-0.5s0.5-0.7,0.5-1.2c0-1.2-0.6-1.8-1.7-1.8c-0.5,0-1,0.2-1.3,0.5
					s-0.5,0.7-0.5,1.2h-1.3c0-0.8,0.3-1.4,0.9-2c0.6-0.5,1.3-0.8,2.2-0.8s1.7,0.2,2.2,0.7s0.8,1.2,0.8,2.1c0,0.4-0.1,0.9-0.4,1.3
					s-0.7,0.7-1.1,0.9c0.5,0.2,1,0.5,1.3,0.9s0.4,0.9,0.4,1.5c0,0.9-0.3,1.6-0.9,2.1c-0.6,0.5-1.3,0.8-2.3,0.8
					c-0.9,0-1.7-0.3-2.3-0.8s-0.9-1.2-0.9-2h1.3c0,0.5,0.2,0.9,0.5,1.3s0.8,0.5,1.4,0.5c0.6,0,1.1-0.2,1.4-0.5
					c0.3-0.3,0.5-0.8,0.5-1.4s-0.2-1-0.5-1.3s-0.9-0.5-1.5-0.5h-1L216.7,321.8L216.7,321.8z"/>
				<path class="st1" d="M236.6,325.3h-5.1v3.2h-1.1v-3.2H224v-1h2.3v-3.8h4.2v-2.1H227c-0.6,1.1-1.4,2-2.1,2.8
					c-0.2-0.2-0.6-0.5-0.9-0.7c1.3-1.1,2.5-3,3.2-4.8l1,0.3c-0.2,0.5-0.4,1-0.6,1.5h8.3v1h-4.4v2.1h4.1v1h-4.1v2.8h5.1V325.3z
					 M230.4,324.3v-2.8h-3.1v2.8H230.4z"/>
				<path class="st1" d="M242,318.9c-0.3,0.7-0.8,1.3-1.2,1.9v7.7h-1V322c-0.4,0.5-0.9,0.9-1.3,1.3c-0.1-0.2-0.4-0.7-0.6-0.9
					c1.2-1,2.5-2.4,3.2-3.9L242,318.9z M241.6,316.1c-0.8,1.2-2,2.5-3.1,3.3c-0.1-0.2-0.4-0.6-0.6-0.8c1-0.7,2.2-1.9,2.7-2.9
					L241.6,316.1z M249.4,323.2c-0.6,1.3-1.5,2.4-2.7,3.2c1.1,0.5,2.4,1,3.7,1.2c-0.2,0.2-0.5,0.6-0.6,0.9c-1.5-0.3-2.8-0.8-4-1.5
					c-1.3,0.7-2.7,1.2-4.1,1.6c-0.1-0.3-0.3-0.7-0.5-0.9c1.3-0.2,2.6-0.7,3.7-1.2c-0.6-0.4-1.1-0.9-1.6-1.4
					c-0.4,0.3-0.7,0.6-1.1,0.9c-0.1-0.2-0.5-0.6-0.7-0.8c0.4-0.3,0.8-0.6,1.2-0.9c-0.3-0.3-0.5-0.7-0.7-1.1l0.9-0.3
					c0.1,0.3,0.3,0.5,0.4,0.7c0.5-0.5,1-1.1,1.3-1.8c-2,0.1-2.4,0.2-2.6,0.3c0-0.2-0.2-0.7-0.3-1c0.4-0.1,0.9-0.3,1.6-0.7
					c0.3-0.2,1-0.6,1.8-1.1c-2.1,0.1-2.5,0.2-2.7,0.3c0-0.2-0.2-0.7-0.3-1c0.3,0,0.6-0.2,0.9-0.5c0.4-0.3,1.6-1.3,2.5-2.3l1,0.4
					c-0.8,0.9-1.8,1.7-2.7,2.3l2.5-0.1c0.6-0.5,1.3-1,1.8-1.5l1,0.5c-1.7,1.4-3.4,2.5-5.1,3.4l4.4-0.2c-0.3-0.4-0.6-0.8-1-1.2
					l0.8-0.4c0.8,0.9,1.8,2.2,2.3,3l-0.9,0.5c-0.2-0.3-0.4-0.7-0.7-1.1l-3.1,0.2c-0.2,0.4-0.4,0.8-0.7,1.1h3.4h0.2L249.4,323.2z
					 M244.5,323.7c-0.2,0.2-0.3,0.4-0.5,0.6c0.5,0.6,1.1,1.1,1.8,1.5c0.9-0.6,1.6-1.3,2.1-2.1H244.5z"/>
			</g>
		</g>
		<line class="st5" x1="22.5" y1="301.2" x2="277.5" y2="301.2"/>
	</g>
</g>
</svg>
