<?xml version="1.0" encoding="utf-8"?>
<!-- Generator: Adobe Illustrator 26.3.1, SVG Export Plug-In . SVG Version: 6.00 Build 0)  -->
<svg version="1.1" id="圖層_1" xmlns="http://www.w3.org/2000/svg" xmlns:xlink="http://www.w3.org/1999/xlink" x="0px" y="0px"
	 viewBox="0 0 750 1080" style="enable-background:new 0 0 750 1080;" xml:space="preserve">
<style type="text/css">
	.st0{fill:#B8C9D8;}
	.st1{fill:#0D70E5;}
	.st2{fill:#5EAFFF;}
	.st3{fill:#ED6B00;}
	.st4{fill:#494A66;}
	.st5{fill:#D9D9D9;}
	.st6{fill:#FFFFFF;}
</style>
<g>
	<rect x="125.7" y="696.3" class="st0" width="6" height="2"/>
	<path class="st0" d="M649,698.3h-11.8v-2H649V698.3z M625.5,698.3h-11.8v-2h11.8V698.3z M602,698.3h-11.8v-2H602V698.3z
		 M578.5,698.3h-11.8v-2h11.8V698.3z M555,698.3h-11.8v-2H555V698.3z M531.4,698.3h-11.8v-2h11.8V698.3z M507.9,698.3h-11.8v-2h11.8
		V698.3z M484.4,698.3h-11.8v-2h11.8V698.3z M460.9,698.3h-11.8v-2h11.8V698.3z M437.4,698.3h-11.8v-2h11.8V698.3z M413.9,698.3
		h-11.8v-2h11.8V698.3z M390.4,698.3h-11.8v-2h11.8V698.3z M366.9,698.3h-11.8v-2h11.8V698.3z M343.3,698.3h-11.8v-2h11.8V698.3z
		 M319.8,698.3h-11.8v-2h11.8V698.3z M296.3,698.3h-11.8v-2h11.8V698.3z M272.8,698.3H261v-2h11.8V698.3z M249.3,698.3h-11.8v-2
		h11.8V698.3z M225.8,698.3H214v-2h11.8V698.3z M202.3,698.3h-11.8v-2h11.8V698.3z M178.8,698.3H167v-2h11.8V698.3z M155.2,698.3
		h-11.8v-2h11.8V698.3z"/>
	<rect x="660.8" y="696.3" class="st0" width="6" height="2"/>
</g>
<path class="st1" d="M129.5,1015.4H128c-1.7,0-3-1.3-3-3s1.3-3,3-3h1.2l14.5-3.5c0.2-0.1,0.5-0.1,0.7-0.1h1.2l42.7-10.2l1.2-0.6
	c0.2-0.1,0.4-0.1,0.5-0.2l13.1-3.2l1.2-0.6c0.2-0.1,0.4-0.2,0.6-0.2l7.2-1.7l1.1-0.6c0.2-0.1,0.4-0.2,0.7-0.2l7.2-1.7l1.2-0.6
	c0.2-0.1,0.4-0.2,0.6-0.2l5.7-1.4l1.2-0.6c0.2-0.1,0.4-0.1,0.5-0.2l4.2-1l1.2-0.6c0.2-0.1,0.4-0.1,0.5-0.2l2.7-0.7l1.2-0.6
	c0.2-0.1,0.4-0.2,0.6-0.2l4.2-1l1.2-0.6c0.2-0.1,0.4-0.2,0.6-0.2l2.6-0.6l1.3-0.6c0.2-0.1,0.4-0.2,0.6-0.2l2.7-0.6l1.1-0.6
	c0.2-0.1,0.4-0.2,0.7-0.2l2.7-0.6l1.2-0.6c0.2-0.1,0.4-0.1,0.5-0.2l2.7-0.7l1.2-0.6c0.2-0.1,0.4-0.1,0.5-0.2l1.1-0.3l1.3-0.6
	c0.2-0.1,0.4-0.2,0.6-0.2l2.7-0.6l1.1-0.6c0.2-0.1,0.4-0.2,0.7-0.2l1.2-0.3l1.2-0.6c0.2-0.1,0.4-0.2,0.6-0.2l1.2-0.3l1.1-0.6
	c0.2-0.1,0.4-0.2,0.7-0.2l1.2-0.3l1.2-0.6c0.2-0.1,0.4-0.2,0.6-0.2l2.6-0.6l1.3-0.6c0.2-0.1,0.4-0.2,0.6-0.2l1.2-0.3l1.2-0.6
	c0.2-0.1,0.4-0.1,0.5-0.2l1.1-0.3l1.3-0.6c0.2-0.1,0.4-0.2,0.6-0.2l1.2-0.3l2.6-1.3c0.2-0.1,0.4-0.2,0.7-0.2l1.2-0.3l1.2-0.6
	c0.2-0.1,0.4-0.2,0.6-0.2l1.2-0.3l1.1-0.6c0.2-0.1,0.4-0.2,0.7-0.2l1.2-0.3l1.2-0.6c0.2-0.1,0.4-0.2,0.6-0.2l1.2-0.3l2.7-1.3
	c0.2-0.1,0.4-0.2,0.6-0.2l1.2-0.3l2.6-1.3c0.2-0.1,0.4-0.2,0.7-0.2l1.2-0.3l1.2-0.6c0.2-0.1,0.4-0.2,0.6-0.2l1.2-0.3l4.2-2
	c0.2-0.1,0.4-0.2,0.6-0.2l1.2-0.3l2.7-1.3c0.2-0.1,0.4-0.2,0.6-0.2l1.2-0.3l2.7-1.3c0.2-0.1,0.4-0.2,0.6-0.2l1.2-0.3l5.7-2.7
	c0.2-0.1,0.4-0.2,0.6-0.2l1.2-0.3l5.7-2.7c0.2-0.1,0.4-0.1,0.5-0.2l1.1-0.3l8.8-4.2c0.2-0.1,0.4-0.2,0.6-0.2l1.2-0.3l30.8-14.8
	l1.3-0.9c0.1-0.1,0.3-0.2,0.5-0.3l8.7-4.2l1.3-0.9c0.1-0.1,0.3-0.2,0.5-0.3l5.7-2.7l1.3-0.9c0.1-0.1,0.3-0.2,0.5-0.3l2.7-1.3
	l1.3-0.9c0.1-0.1,0.3-0.2,0.5-0.3l4.2-2l1.3-0.9c0.1-0.1,0.3-0.2,0.5-0.3l2.8-1.3l1.2-0.9c0.2-0.1,0.3-0.2,0.5-0.3l1.3-0.6l1.3-0.9
	c0.1-0.1,0.3-0.2,0.5-0.3l2.7-1.3l1.3-0.9c0.1-0.1,0.3-0.2,0.5-0.3l1.3-0.6l1.3-0.9c0.1-0.1,0.2-0.2,0.4-0.2l1.2-0.6l1.3-0.9
	c0.1-0.1,0.3-0.2,0.5-0.3l2.8-1.3l2.8-2c0.1-0.1,0.3-0.2,0.5-0.3l1.3-0.6l1.3-0.9c0.1-0.1,0.2-0.2,0.4-0.2l1.2-0.6l1.3-0.9
	c0.1-0.1,0.3-0.2,0.5-0.3l1.2-0.6l1.2-0.9c0.2-0.1,0.3-0.2,0.5-0.3l1.3-0.6l2.8-2c0.1-0.1,0.2-0.2,0.4-0.2l1.2-0.6l2.9-2
	c0.1-0.1,0.3-0.2,0.5-0.3l1.2-0.6l4.3-3.1c0.1-0.1,0.3-0.2,0.5-0.3l1.2-0.6l4.3-3.1c0.1-0.1,0.3-0.2,0.5-0.3l1.2-0.6l7.2-5.2
	c0.2-0.1,0.3-0.2,0.5-0.3l1.3-0.6l23.5-16.9l1.4-1.3c0.1-0.1,0.2-0.2,0.3-0.3l7.2-5.2l1.4-1.3c0.1-0.1,0.2-0.2,0.3-0.3l4.3-3.1
	l1.4-1.3c0.1-0.1,0.2-0.2,0.3-0.3l2.8-2l1.2-1.2c0.1-0.1,0.3-0.2,0.4-0.3l2.9-2l1.4-1.3c0.1-0.1,0.2-0.1,0.3-0.2l1.3-1l1.4-1.3
	c0.1-0.1,0.2-0.2,0.3-0.3l1.3-0.9l1.4-1.3c0.1-0.1,0.2-0.1,0.3-0.2l1.3-1l1.4-1.3c0.1-0.1,0.2-0.2,0.3-0.3l1.3-1l1.4-1.3
	c0.1-0.1,0.2-0.1,0.3-0.2l1.3-1l1.4-1.3c0.1-0.1,0.2-0.2,0.3-0.3l1.3-0.9l2.7-2.6c0.1-0.1,0.3-0.2,0.4-0.3l1.3-1l2.9-2.7
	c0.1-0.1,0.2-0.1,0.2-0.2l1.3-1l2.9-2.7c0.1-0.1,0.2-0.2,0.3-0.3l1.3-0.9l5.9-5.6c0.1-0.1,0.2-0.1,0.3-0.2l1.3-1L592,776l1.4-1.7
	c0.1-0.1,0.1-0.2,0.2-0.2l5.9-5.6l1.4-1.7c0.1-0.1,0.2-0.2,0.2-0.2l2.8-2.7l1.4-1.7c0.1-0.1,0.2-0.2,0.2-0.2l2.9-2.7l1.3-1.6
	c0.1-0.1,0.2-0.2,0.3-0.3l1.4-1.3l1.4-1.7c0.1-0.1,0.2-0.2,0.2-0.2l1.4-1.3l1.3-1.6c0.1-0.1,0.2-0.2,0.3-0.3l1.4-1.3l1.4-1.7
	c0.1-0.1,0.1-0.2,0.2-0.2l1.4-1.3l1.3-1.6c0.1-0.1,0.2-0.2,0.3-0.3l1.4-1.3l2.9-3.4c0.1-0.1,0.1-0.1,0.2-0.2l1.3-1.3l3-3.5
	c0.1-0.1,0.2-0.2,0.2-0.2l1.4-1.3l5.8-7c0.1-0.1,0.2-0.2,0.3-0.3l1.4-1.3l14.8-17.6l1.3-2c0.1-0.1,0.1-0.2,0.2-0.3l5.9-7.1l1.4-2
	c1-1.4,2.8-1.7,4.2-0.7c1.4,1,1.7,2.8,0.7,4.2l-1.5,2.1l-6,7.2l-1.3,2c-0.1,0.1-0.1,0.2-0.2,0.3l-15,17.9c-0.1,0.1-0.1,0.2-0.2,0.2
	l-1.4,1.3l-5.8,7c-0.1,0.1-0.2,0.2-0.3,0.3l-1.4,1.3l-2.9,3.4c-0.1,0.1-0.1,0.1-0.2,0.2l-1.3,1.3l-3,3.5c-0.1,0.1-0.1,0.2-0.2,0.2
	l-1.4,1.3l-1.3,1.6c-0.1,0.1-0.2,0.2-0.3,0.3l-1.4,1.3l-1.4,1.7c-0.1,0.1-0.1,0.2-0.2,0.2l-1.4,1.3l-1.3,1.6
	c-0.1,0.1-0.2,0.2-0.3,0.3l-1.4,1.3l-1.4,1.7c-0.1,0.1-0.2,0.2-0.2,0.2l-1.4,1.3l-1.3,1.6c-0.1,0.1-0.2,0.2-0.3,0.3l-2.9,2.7
	l-1.4,1.7c-0.1,0.1-0.1,0.1-0.2,0.2l-2.9,2.8l-1.4,1.7c-0.1,0.1-0.2,0.2-0.2,0.2l-5.9,5.6l-1.4,1.7c-0.1,0.1-0.1,0.1-0.2,0.2
	l-22.5,21.5c-0.1,0.1-0.2,0.1-0.3,0.2l-1.3,1l-5.8,5.5c-0.1,0.1-0.3,0.2-0.4,0.3l-1.3,0.9l-2.9,2.7c-0.1,0.1-0.2,0.1-0.2,0.2l-1.3,1
	l-2.9,2.7c-0.1,0.1-0.2,0.2-0.3,0.3l-1.3,0.9l-2.8,2.7c-0.1,0.1-0.2,0.2-0.3,0.3l-1.3,0.9l-1.4,1.3c-0.1,0.1-0.2,0.1-0.3,0.2l-1.3,1
	l-1.4,1.3c-0.1,0.1-0.2,0.2-0.3,0.3l-1.3,1l-1.4,1.3c-0.1,0.1-0.2,0.1-0.3,0.2l-1.3,1l-1.4,1.3c-0.1,0.1-0.2,0.2-0.3,0.3l-1.3,0.9
	l-1.4,1.3c-0.1,0.1-0.2,0.1-0.3,0.2l-1.3,1l-1.4,1.3c-0.1,0.1-0.2,0.2-0.3,0.3l-2.8,2l-1.2,1.2c-0.1,0.1-0.3,0.2-0.4,0.3l-2.9,2
	l-1.4,1.3c-0.1,0.1-0.2,0.1-0.2,0.2l-4.4,3.1L520,847c-0.1,0.1-0.2,0.1-0.3,0.2l-7.3,5.3l-1.4,1.3c-0.1,0.1-0.2,0.2-0.3,0.3
	l-23.9,17.2c-0.1,0.1-0.3,0.2-0.5,0.3l-1.2,0.6l-7.2,5.2c-0.2,0.1-0.3,0.2-0.5,0.3l-1.3,0.6l-4.2,3c-0.2,0.1-0.3,0.2-0.5,0.3
	l-1.3,0.6l-4.2,3c-0.2,0.1-0.3,0.2-0.5,0.3l-1.3,0.6l-2.8,2c-0.1,0.1-0.3,0.2-0.4,0.2l-1.2,0.6l-2.9,2c-0.1,0.1-0.3,0.2-0.5,0.3
	l-1.2,0.6l-1.2,0.9c-0.2,0.1-0.3,0.2-0.5,0.3l-1.3,0.6l-1.3,0.9c-0.1,0.1-0.3,0.2-0.4,0.2l-1.2,0.6l-1.3,0.9
	c-0.1,0.1-0.3,0.2-0.5,0.3l-1.3,0.6l-2.7,1.9c-0.2,0.1-0.3,0.2-0.5,0.3l-2.8,1.3l-1.3,0.9c-0.1,0.1-0.3,0.2-0.4,0.2l-1.2,0.6
	l-1.3,0.9c-0.1,0.1-0.3,0.2-0.5,0.3l-1.3,0.6l-1.3,0.9c-0.1,0.1-0.2,0.2-0.4,0.2l-2.8,1.3l-1.3,0.9c-0.1,0.1-0.3,0.2-0.5,0.3
	l-1.2,0.6l-1.2,0.9c-0.2,0.1-0.3,0.2-0.5,0.3l-2.8,1.3l-1.3,0.9c-0.1,0.1-0.3,0.2-0.4,0.2l-4.3,2.1l-1.3,0.9
	c-0.1,0.1-0.2,0.2-0.4,0.2l-2.8,1.3l-1.3,0.9c-0.1,0.1-0.3,0.2-0.5,0.3l-5.7,2.7l-1.3,0.9c-0.1,0.1-0.3,0.2-0.4,0.2l-8.8,4.2
	l-1.3,0.9c-0.1,0.1-0.3,0.2-0.5,0.3l-31.3,15c-0.2,0.1-0.4,0.2-0.7,0.2l-1.2,0.3l-8.7,4.2c-0.2,0.1-0.4,0.1-0.5,0.2l-1.1,0.3
	l-5.6,2.7c-0.2,0.1-0.4,0.2-0.7,0.2l-1.2,0.3l-5.7,2.7c-0.2,0.1-0.4,0.2-0.6,0.2l-1.2,0.3l-2.6,1.3c-0.2,0.1-0.4,0.2-0.7,0.2
	l-1.2,0.3l-2.6,1.3c-0.2,0.1-0.4,0.2-0.7,0.2l-1.2,0.3l-4.1,2c-0.2,0.1-0.4,0.2-0.7,0.2l-1.2,0.3l-1.2,0.6c-0.2,0.1-0.4,0.2-0.6,0.2
	l-1.2,0.3l-2.7,1.3c-0.2,0.1-0.4,0.2-0.6,0.2l-1.2,0.3l-2.6,1.3c-0.2,0.1-0.4,0.2-0.7,0.2l-1.2,0.3l-1.2,0.6
	c-0.2,0.1-0.4,0.2-0.6,0.2l-1.2,0.3l-1.1,0.6c-0.2,0.1-0.4,0.2-0.7,0.2l-1.2,0.3l-1.2,0.6c-0.2,0.1-0.4,0.2-0.6,0.2l-1.2,0.3
	l-2.7,1.3c-0.2,0.1-0.4,0.2-0.6,0.2l-1.2,0.3l-1.2,0.6c-0.2,0.1-0.4,0.1-0.5,0.2l-1.1,0.3l-1.3,0.6c-0.2,0.1-0.4,0.2-0.6,0.2
	l-1.2,0.3l-1.2,0.6c-0.2,0.1-0.4,0.1-0.5,0.2l-2.7,0.7l-1.2,0.6c-0.2,0.1-0.4,0.2-0.6,0.2l-1.2,0.3l-1.1,0.6
	c-0.2,0.1-0.4,0.2-0.7,0.2l-1.2,0.3l-1.2,0.6c-0.2,0.1-0.4,0.2-0.6,0.2l-1.2,0.3l-1.1,0.6c-0.2,0.1-0.4,0.2-0.7,0.2l-2.7,0.6
	l-1.2,0.6c-0.2,0.1-0.4,0.1-0.5,0.2l-1.1,0.3l-1.3,0.6c-0.2,0.1-0.4,0.2-0.6,0.2l-2.6,0.6l-1.3,0.6c-0.2,0.1-0.4,0.2-0.6,0.2
	l-2.7,0.6l-1.1,0.6c-0.2,0.1-0.4,0.2-0.7,0.2l-2.7,0.6l-1.2,0.6c-0.2,0.1-0.4,0.1-0.6,0.2l-2.7,0.7l-1.2,0.6
	c-0.2,0.1-0.4,0.2-0.6,0.2l-4.2,1l-1.2,0.6c-0.2,0.1-0.4,0.2-0.6,0.2l-2.6,0.6l-1.3,0.6c-0.2,0.1-0.4,0.2-0.6,0.2l-4.1,1l-1.3,0.6
	c-0.2,0.1-0.4,0.2-0.6,0.2l-5.7,1.4l-1.2,0.6c-0.2,0.1-0.4,0.2-0.6,0.2l-7.2,1.7l-1.1,0.6c-0.2,0.1-0.4,0.2-0.7,0.2l-7.2,1.7
	l-1.2,0.6c-0.2,0.1-0.4,0.2-0.6,0.2l-13.1,3.1l-1.3,0.6c-0.2,0.1-0.4,0.2-0.6,0.2l-43.4,10.4c-0.2,0.1-0.5,0.1-0.7,0.1h-1.1
	l-14.6,3.5C129.9,1015.4,129.7,1015.4,129.5,1015.4z"/>
<path class="st2" d="M128,1015.4c-1.1,0-2.2-0.6-2.7-1.7c-0.7-1.5-0.1-3.3,1.4-4l5.9-2.8c0.2-0.1,0.4-0.2,0.7-0.2l1.2-0.3l5.7-2.7
	c0.2-0.1,0.4-0.2,0.6-0.2l1.2-0.3l10.2-4.9c0.2-0.1,0.4-0.2,0.6-0.2l1.2-0.3l24.8-11.9l1.3-0.9c0.1-0.1,0.3-0.2,0.5-0.3l10.2-4.9
	l1.3-0.9c0.1-0.1,0.3-0.2,0.5-0.3l5.7-2.7l1.3-0.9c0.1-0.1,0.3-0.2,0.4-0.2l4.3-2.1l1.3-0.9c0.1-0.1,0.2-0.2,0.4-0.2l2.8-1.3
	l1.3-0.9c0.1-0.1,0.3-0.2,0.5-0.3l2.7-1.3l1.3-0.9c0.1-0.1,0.3-0.2,0.5-0.3l2.8-1.3l1.2-0.9c0.2-0.1,0.3-0.2,0.5-0.3l1.3-0.6
	l1.3-0.9c0.1-0.1,0.3-0.2,0.5-0.3l2.7-1.3l1.3-0.9c0.1-0.1,0.3-0.2,0.5-0.3l1.3-0.6l1.3-0.9c0.1-0.1,0.3-0.2,0.4-0.2l1.2-0.6
	l1.3-0.9c0.1-0.1,0.3-0.2,0.5-0.3l1.3-0.6l1.3-0.9c0.1-0.1,0.3-0.2,0.4-0.2l1.2-0.6l1.3-0.9c0.1-0.1,0.3-0.2,0.5-0.3l1.3-0.6
	l1.3-0.9c0.1-0.1,0.3-0.2,0.4-0.2l1.2-0.6l2.9-2c0.1-0.1,0.3-0.2,0.5-0.3l1.2-0.6l2.8-2c0.1-0.1,0.3-0.2,0.5-0.3l1.3-0.6l2.7-1.9
	c0.2-0.1,0.3-0.2,0.5-0.3l1.3-0.6l2.8-2c0.1-0.1,0.3-0.2,0.4-0.2l1.2-0.6l5.8-4.2c0.1-0.1,0.3-0.2,0.5-0.3l1.3-0.6l7.3-5.2
	c0.1-0.1,0.2-0.2,0.4-0.2l1.2-0.6l19.1-13.7l1.4-1.3c0.1-0.1,0.2-0.2,0.3-0.3l8.7-6.3l1.4-1.3c0.1-0.1,0.2-0.2,0.3-0.3l4.3-3.1
	l1.4-1.3c0.1-0.1,0.2-0.2,0.3-0.3l2.8-2l1.2-1.2c0.1-0.1,0.3-0.2,0.4-0.3l2.9-2l1.4-1.3c0.1-0.1,0.2-0.1,0.2-0.2l2.8-2.1l1.4-1.3
	c0.1-0.1,0.2-0.1,0.3-0.2l1.3-1l1.4-1.3c0.1-0.1,0.2-0.2,0.3-0.3l1.3-1l1.4-1.3c0.1-0.1,0.2-0.1,0.2-0.2l1.3-1l1.4-1.3
	c0.1-0.1,0.2-0.2,0.3-0.3l1.3-0.9l1.4-1.3c0.1-0.1,0.2-0.1,0.3-0.2l1.3-1l2.9-2.7c0.1-0.1,0.2-0.2,0.3-0.3l1.3-0.9l2.8-2.7
	c0.1-0.1,0.2-0.2,0.3-0.3l1.3-1l4.3-4.1c0.1-0.1,0.2-0.2,0.3-0.3l1.3-1l5.8-5.6c0.1-0.1,0.2-0.2,0.3-0.3l1.3-0.9l19.1-18.3l1.4-1.7
	c0.1-0.1,0.1-0.2,0.2-0.2l5.9-5.6l1.4-1.7c0.1-0.1,0.1-0.1,0.2-0.2l4.4-4.2l1.4-1.7c0.1-0.1,0.1-0.1,0.2-0.2l1.3-1.3l1.4-1.7
	c0.1-0.1,0.1-0.2,0.2-0.2l2.9-2.7l1.3-1.6c0.1-0.1,0.2-0.2,0.3-0.3l1.4-1.3l1.4-1.7c0.1-0.1,0.1-0.2,0.2-0.2l1.4-1.3l1.3-1.6
	c0.1-0.1,0.2-0.2,0.3-0.3l1.4-1.3l1.4-1.7c0.1-0.1,0.1-0.2,0.2-0.2l1.4-1.3l2.9-3.5c0.1-0.1,0.1-0.2,0.2-0.2l1.4-1.3l4.4-5.2
	c0.1-0.1,0.2-0.2,0.2-0.2l1.4-1.3l5.9-7c0.1-0.1,0.1-0.2,0.2-0.2l1.4-1.3l11.8-14.1l1.3-2c0.1-0.1,0.1-0.2,0.2-0.3l7.4-8.8l1.4-2
	l3-3.7l1.4-2c0.1-0.1,0.1-0.1,0.2-0.2l2.9-3.5l1.4-2c0.1-0.1,0.1-0.1,0.2-0.2l1.4-1.7l1.4-2l1.5-1.9l1.4-2c0.1-0.1,0.1-0.1,0.2-0.2
	l1.4-1.7l2.8-4.1c0.1-0.1,0.1-0.2,0.2-0.3l1.4-1.7l3-4.2l1.5-1.9l4.5-6.3l1.5-1.9l13.3-19.1l1.5-2.4c0-0.1,0.1-0.1,0.1-0.2l5.9-8.5
	l1.5-2.4l3-4.4l1.5-2.4l1.5-2.2l1.5-2.4c0-0.1,0.1-0.1,0.1-0.2l1.5-2.1l1.5-2.4l1.5-2.2l1.5-2.4c0-0.1,0.1-0.1,0.1-0.2l1.5-2.1
	l2.8-4.8c0-0.1,0.1-0.2,0.2-0.2l1.5-2.1l7.4-12.4c0-0.1,0.1-0.1,0.1-0.2l1.4-2l17.8-30.6l1.4-2.7c0-0.1,0.1-0.1,0.1-0.2l1.5-2.5
	l1.4-2.7l1.5-2.5l1.4-2.8c0-0.1,0.1-0.1,0.1-0.2l1.5-2.5l1.4-2.7l1.5-2.5l4.4-8.5l1.5-2.5l22.3-43.5l1.4-3.1c0-0.1,0.1-0.1,0.1-0.2
	l1.5-2.9l1.5-3.1l1.5-2.9l2.9-6.4l1.6-3l4.4-9.5l1.6-3l5.9-12.7l2.9-6.7l4.6-9.7l1.3-3.4l1.6-3.4l1.5-3.5l1.6-3.3l1.3-3.4l1.6-3.4
	l10.4-24.5l1.5-3.2l2.9-7.4l6-14.3l1.5-3.9l3.1-7.2l1.4-3.8l1.6-3.7c0.6-1.5,2.4-2.2,3.9-1.6c1.5,0.6,2.2,2.4,1.6,3.9l-1.5,3.6
	l-1.4,3.8l-3.1,7.3l-2.9,7.4l-6,14.3l-1.5,3.9c0,0.1-0.1,0.1-0.1,0.2l-1.5,3.2l-10.4,24.5l-1.6,3.3l-1.3,3.4l-1.6,3.4l-1.5,3.5
	l-1.6,3.3l-1.3,3.4l-6,13l-1.5,3.5l-6,13l-1.6,3l-4.4,9.5l-1.6,3l-2.8,6.2c0,0.1-0.1,0.1-0.1,0.2l-1.5,2.9l-1.5,3.1l-1.5,2.9
	l-1.4,3.1c0,0.1-0.1,0.1-0.1,0.2l-1.5,2.9l-1.5,3.1l-4.5,8.7l-1.5,3.1L579,578.9c0,0.1-0.1,0.1-0.1,0.2l-1.5,2.5l-4.3,8.4
	c0,0.1-0.1,0.1-0.1,0.2l-1.5,2.5l-1.4,2.7l-1.5,2.5l-1.4,2.8c0,0.1-0.1,0.1-0.1,0.2l-1.5,2.5l-1.4,2.7l-1.5,2.5l-1.4,2.8
	c0,0.1-0.1,0.1-0.1,0.2l-3,5l-2.9,5.3l-6,10l-1.5,2.8l-4.5,7.6c0,0.1-0.1,0.2-0.2,0.2l-1.5,2.1L534,657c0,0.1-0.1,0.1-0.1,0.2
	l-1.4,2l-2.9,4.9c0,0.1-0.1,0.1-0.1,0.2l-1.5,2.1l-1.5,2.4l-1.5,2.2l-1.5,2.4c0,0.1-0.1,0.1-0.1,0.2l-1.5,2.1l-1.5,2.4l-1.5,2.2
	l-1.5,2.4c0,0.1-0.1,0.1-0.1,0.2l-2.9,4.2l-1.5,2.4c0,0.1-0.1,0.1-0.1,0.2l-5.9,8.5l-1.5,2.4c0,0.1-0.1,0.1-0.1,0.2L492,720.1
	l-1.5,1.9l-4.5,6.3l-1.5,1.9l-2.9,4.2c-0.1,0.1-0.1,0.1-0.2,0.2l-1.4,1.7l-2.9,4.2c-0.1,0.1-0.1,0.1-0.2,0.2l-1.4,1.7l-1.4,2
	l-1.5,1.9l-1.4,2c-0.1,0.1-0.1,0.1-0.2,0.2l-1.4,1.7l-1.4,2l-3,3.7l-1.4,2c-0.1,0.1-0.1,0.1-0.2,0.2l-2.9,3.5l-1.4,2
	c-0.1,0.1-0.1,0.1-0.2,0.2l-7.4,8.8l-1.3,2c-0.1,0.1-0.1,0.2-0.2,0.3l-11.9,14.2c-0.1,0.1-0.2,0.2-0.3,0.3l-1.4,1.3l-5.9,7
	c-0.1,0.1-0.1,0.2-0.2,0.2l-1.4,1.3l-4.4,5.2c-0.1,0.1-0.1,0.2-0.2,0.2l-1.4,1.3l-2.8,3.4c-0.1,0.1-0.2,0.2-0.3,0.3l-1.4,1.3
	l-1.4,1.7c-0.1,0.1-0.1,0.2-0.2,0.2l-1.4,1.3l-1.3,1.6c-0.1,0.1-0.2,0.2-0.3,0.3l-1.4,1.3l-1.4,1.7c-0.1,0.1-0.1,0.2-0.2,0.2
	l-1.4,1.3l-1.3,1.6c-0.1,0.1-0.2,0.2-0.3,0.3l-2.9,2.7l-1.4,1.7c-0.1,0.1-0.1,0.1-0.2,0.2l-1.3,1.3l-1.4,1.7
	c-0.1,0.1-0.2,0.2-0.2,0.2l-4.3,4.1l-1.4,1.7c-0.1,0.1-0.1,0.2-0.2,0.2l-5.9,5.6l-1.4,1.7c-0.1,0.1-0.1,0.1-0.2,0.2l-19.4,18.6
	c-0.1,0.1-0.3,0.2-0.4,0.3L366,864l-5.8,5.6c-0.1,0.1-0.2,0.2-0.3,0.3l-1.3,0.9l-4.3,4.1c-0.1,0.1-0.2,0.2-0.3,0.3l-1.3,1l-2.7,2.6
	c-0.1,0.1-0.3,0.2-0.4,0.3l-1.3,1l-2.9,2.7c-0.1,0.1-0.2,0.1-0.2,0.2l-1.3,1l-1.4,1.3c-0.1,0.1-0.2,0.2-0.3,0.3l-1.3,0.9l-1.4,1.3
	c-0.1,0.1-0.2,0.1-0.3,0.2l-1.3,1l-1.4,1.3c-0.1,0.1-0.2,0.2-0.3,0.3l-1.3,0.9l-1.4,1.3c-0.1,0.1-0.2,0.1-0.3,0.2l-1.3,1l-1.4,1.3
	c-0.1,0.1-0.2,0.2-0.3,0.3l-2.7,2l-1.4,1.3c-0.1,0.1-0.2,0.2-0.3,0.3l-2.8,2l-1.2,1.2c-0.1,0.1-0.3,0.2-0.4,0.3l-2.9,2l-1.4,1.3
	c-0.1,0.1-0.2,0.1-0.3,0.2l-4.4,3.2l-1.4,1.3c-0.1,0.1-0.2,0.1-0.3,0.2l-8.8,6.4l-1.4,1.3c-0.1,0.1-0.2,0.2-0.3,0.3l-19.5,13.9
	c-0.1,0.1-0.3,0.2-0.4,0.2l-1.2,0.6l-7.3,5.2c-0.1,0.1-0.3,0.2-0.5,0.3l-1.3,0.6l-5.8,4.1c-0.1,0.1-0.3,0.2-0.4,0.2l-1.2,0.6l-2.9,2
	c-0.1,0.1-0.3,0.2-0.5,0.3l-1.2,0.6l-2.8,2c-0.1,0.1-0.3,0.2-0.5,0.3l-1.3,0.6l-2.7,1.9c-0.2,0.1-0.3,0.2-0.5,0.3l-1.3,0.6l-2.8,2
	c-0.1,0.1-0.2,0.2-0.4,0.2l-1.2,0.6l-1.3,0.9c-0.1,0.1-0.3,0.2-0.5,0.3l-1.3,0.6l-1.3,0.9c-0.1,0.1-0.3,0.2-0.4,0.2l-1.2,0.6
	l-1.3,0.9c-0.1,0.1-0.3,0.2-0.5,0.3l-1.3,0.6l-1.3,0.9c-0.1,0.1-0.3,0.2-0.4,0.2l-1.2,0.6l-1.3,0.9c-0.1,0.1-0.3,0.2-0.5,0.3
	l-1.3,0.6l-1.3,0.9c-0.1,0.1-0.3,0.2-0.4,0.2l-2.8,1.3l-1.3,0.9c-0.1,0.1-0.3,0.2-0.5,0.3l-1.2,0.6l-1.2,0.9
	c-0.2,0.1-0.3,0.2-0.5,0.3l-2.8,1.3l-1.3,0.9c-0.1,0.1-0.3,0.2-0.4,0.2l-2.8,1.3l-1.3,0.9c-0.1,0.1-0.3,0.2-0.5,0.3l-2.7,1.3
	l-1.3,0.9c-0.1,0.1-0.3,0.2-0.5,0.3l-4.2,2l-1.3,0.9c-0.1,0.1-0.3,0.2-0.5,0.3l-5.7,2.7l-1.3,0.9c-0.1,0.1-0.3,0.2-0.4,0.2
	l-10.3,4.9L182,991c-0.1,0.1-0.2,0.2-0.4,0.2l-25.3,12.2c-0.2,0.1-0.4,0.2-0.7,0.2l-1.2,0.3l-10.1,4.8c-0.2,0.1-0.4,0.2-0.7,0.2
	l-1.2,0.3l-5.7,2.7c-0.2,0.1-0.4,0.2-0.6,0.2l-1.2,0.3l-5.7,2.7C128.8,1015.4,128.4,1015.4,128,1015.4z"/>
<path class="st3" d="M128,1015.1c-0.9,0-1.9-0.4-2.5-1.3c-1-1.4-0.6-3.2,0.7-4.2l3-2.1c0.1-0.1,0.3-0.2,0.5-0.3l1.2-0.6l2.8-2
	c0.1-0.1,0.3-0.2,0.5-0.3l1.3-0.6l4.2-3.1c0.1-0.1,0.3-0.2,0.5-0.3l1.2-0.6l4.3-3.1c0.1-0.1,0.3-0.2,0.5-0.3l1.2-0.6l10.3-7.4
	c0.1-0.1,0.3-0.2,0.5-0.3l1.2-0.6l13-9.4l1.4-1.3c0.1-0.1,0.2-0.2,0.3-0.3l10.2-7.3l1.4-1.3c0.1-0.1,0.2-0.2,0.3-0.3l4.3-3.1
	l1.4-1.3c0.1-0.1,0.2-0.2,0.3-0.3l2.8-2l1.2-1.2c0.1-0.1,0.3-0.2,0.4-0.3l2.8-2l1.2-1.2c0.1-0.1,0.3-0.2,0.4-0.3l2.9-2l1.4-1.3
	c0.1-0.1,0.2-0.1,0.3-0.2l1.3-1l1.4-1.3c0.1-0.1,0.2-0.2,0.3-0.3l1.3-0.9l1.4-1.3c0.1-0.1,0.2-0.1,0.3-0.2l1.3-1l1.4-1.3
	c0.1-0.1,0.2-0.2,0.3-0.3l1.3-0.9l1.4-1.3c0.1-0.1,0.2-0.1,0.2-0.2l1.3-1l1.4-1.3c0.1-0.1,0.2-0.2,0.3-0.3l1.3-0.9l2.7-2.6
	c0.1-0.1,0.3-0.2,0.4-0.3l1.3-1l2.9-2.7c0.1-0.1,0.2-0.1,0.3-0.2l1.3-1l5.8-5.5c0.1-0.1,0.3-0.2,0.4-0.3l1.3-1l10.2-9.8
	c0.1-0.1,0.3-0.2,0.4-0.3l1.3-1l2.7-2.6l1.3-1.6c0.1-0.1,0.2-0.2,0.3-0.3l11.8-11.3l1.4-1.7c0.1-0.1,0.1-0.2,0.2-0.2l4.3-4.2
	l1.4-1.7c0.1-0.1,0.1-0.2,0.2-0.2l2.8-2.7l1.4-1.7c0.1-0.1,0.1-0.2,0.2-0.2l2.9-2.7l1.3-1.6c0.1-0.1,0.2-0.2,0.3-0.3l1.4-1.3
	l1.4-1.7c0.1-0.1,0.1-0.2,0.2-0.2l1.4-1.3l1.3-1.6c0.1-0.1,0.2-0.2,0.3-0.3l1.4-1.3l2.9-3.4c0.1-0.1,0.1-0.1,0.2-0.2l1.3-1.3
	l1.4-1.7c0.1-0.1,0.1-0.2,0.2-0.2l1.4-1.3l2.8-3.4c0.1-0.1,0.2-0.2,0.3-0.3l1.4-1.3l5.9-7c0.1-0.1,0.1-0.2,0.2-0.2l1.4-1.3
	l17.7-21.2l1.3-2c0.1-0.1,0.1-0.2,0.2-0.3l4.4-5.2l1.3-2c0.1-0.1,0.1-0.2,0.2-0.3l3-3.5l1.4-2l3-3.7l1.4-2c0.1-0.1,0.1-0.1,0.2-0.2
	l1.4-1.6l1.3-2c0.1-0.1,0.1-0.2,0.2-0.3l1.4-1.7l1.4-2c0.1-0.1,0.1-0.1,0.2-0.2l1.4-1.7l1.3-2c0.1-0.1,0.1-0.2,0.2-0.3l1.4-1.7
	l4.3-6.2c0.1-0.1,0.1-0.2,0.2-0.3l1.4-1.7l4.3-6.2c0.1-0.1,0.1-0.2,0.2-0.3l1.4-1.7l13.3-19.1l1.5-2.4l4.5-6.5l1.3-2.4
	c0-0.1,0.1-0.2,0.2-0.3l3-4.2l1.5-2.4l3-4.4l1.5-2.4c0-0.1,0.1-0.1,0.1-0.2l1.4-2l1.3-2.4c0-0.1,0.1-0.2,0.2-0.2l1.5-2.1l3-4.9
	l1.5-2.2l3-4.9c0-0.1,0.1-0.1,0.1-0.2l1.4-2l17.8-29.9l1.4-2.7c0-0.1,0.1-0.1,0.1-0.2l4.5-7.4l1.4-2.7c0-0.1,0.1-0.1,0.1-0.2
	l1.5-2.5l1.4-2.7l1.5-2.5l1.4-2.7c0-0.1,0.1-0.1,0.1-0.2l1.5-2.5l1.4-2.7l1.5-2.5l2.9-5.7l1.5-2.5l17.9-34.2l1.4-3.1
	c0-0.1,0.1-0.1,0.1-0.2l3-5.7l2.9-6l1.6-2.9l1.5-3.1l1.5-2.9l2.9-6.4l1.6-3l5.9-12.7l1.5-2.9l6-12.8l1.3-3.4l6-13l1.5-3.5l1.6-3.3
	l4.4-10.3l1.6-3.3l2.9-7l1.6-3.3l14.8-35.6l1.5-3.9l3.1-7.2l1.4-3.8l1.6-3.7l1.5-3.8l1.6-3.7l2.9-7.8l1.6-3.7l11.9-31.4l2.9-8.2
	l1.5-4l1.5-4.2l1.5-4l1.4-4.2l1.6-4.1l14.9-42.4l1.5-4.6l3.1-8.6l1.4-4.5l1.6-4.4l1.5-4.6l1.5-4.4l6-18.5l4.5-13.6l2.9-9.6l3.1-9.3
	l4.4-14.6l1.5-4.7l4.4-14.9l1.5-4.7l4.4-14.9l34.3-122.8c0.4-1.6,2.1-2.5,3.7-2.1c1.6,0.4,2.6,2.1,2.1,3.7L648,143.8l-1.5,5.1
	L630,205.4l-1.5,4.7l-4.4,14.9l-1.5,4.7l-4.4,14.6l-4.5,13.9l-1.5,5l-10.4,32.2l-1.6,4.4l-1.5,4.6l-1.5,4.4l-1.4,4.5l-3.1,8.7
	l-2.9,8.9l-13.5,38.3l-1.5,4l-1.4,4.2l-1.6,4.1l-1.5,4.2l-2.9,7.9l-1.5,4.3l-12,31.5l-1.6,3.7l-2.9,7.7l-1.6,3.7l-1.5,3.8l-1.6,3.7
	l-1.4,3.8l-3.1,7.3l-2.9,7.4l-13.5,32.2l-1.6,3.3l-2.9,7l-1.6,3.4l-4.4,10.3l-1.6,3.3l-2.9,6.7l-4.6,9.7l-1.3,3.4l-6,13
	c0,0.1-0.1,0.1-0.1,0.2l-1.5,2.9l-5.9,12.7l-1.6,3l-2.8,6.2c0,0.1-0.1,0.1-0.1,0.2l-1.5,2.9l-1.5,3.1l-3,5.8l-1.5,3.2l-3.1,5.7
	l-1.4,3.1c0,0.1-0.1,0.1-0.1,0.2L455,646.1c0,0.1-0.1,0.1-0.1,0.2l-1.5,2.5l-2.8,5.5c0,0.1-0.1,0.1-0.1,0.2l-1.5,2.5l-1.4,2.7
	l-1.5,2.5l-1.4,2.7c0,0.1-0.1,0.1-0.1,0.2l-1.5,2.5l-1.4,2.7l-1.5,2.5l-1.4,2.8c0,0.1-0.1,0.1-0.1,0.2l-4.5,7.4l-1.4,2.7
	c0,0.1-0.1,0.1-0.1,0.2l-17.9,29.9c0,0.1-0.1,0.2-0.2,0.3l-1.5,2.1l-3,4.9l-1.5,2.2l-3,4.9c0,0.1-0.1,0.1-0.1,0.2l-1.4,2l-1.3,2.4
	c0,0.1-0.1,0.2-0.2,0.2l-1.5,2.1l-1.5,2.4c0,0.1-0.1,0.1-0.1,0.2l-2.9,4.2l-1.5,2.4c0,0.1-0.1,0.1-0.1,0.2l-3,4.2l-1.3,2.4
	c0,0.1-0.1,0.2-0.2,0.2l-4.4,6.4l-1.5,2.4c0,0.1-0.1,0.1-0.1,0.2L371,781.9c-0.1,0.1-0.1,0.1-0.2,0.2l-1.4,1.6l-4.4,6.4
	c-0.1,0.1-0.1,0.1-0.2,0.2l-1.4,1.7l-4.4,6.4c-0.1,0.1-0.1,0.1-0.2,0.2l-1.4,1.7l-1.3,2c-0.1,0.1-0.1,0.2-0.2,0.3l-1.4,1.7l-1.4,2
	c-0.1,0.1-0.1,0.1-0.2,0.2l-1.4,1.7l-1.3,2c-0.1,0.1-0.1,0.2-0.2,0.3l-1.4,1.7l-1.4,2c-0.1,0.1-0.1,0.1-0.2,0.2l-2.9,3.5l-1.4,2
	c-0.1,0.1-0.1,0.1-0.2,0.2l-2.9,3.4l-1.3,2c-0.1,0.1-0.1,0.2-0.2,0.3l-4.4,5.2l-1.3,2c-0.1,0.1-0.1,0.2-0.2,0.3l-17.9,21.4
	c-0.1,0.1-0.1,0.2-0.2,0.2l-1.4,1.3l-5.9,7c-0.1,0.1-0.1,0.2-0.2,0.2l-1.4,1.3l-2.9,3.5c-0.1,0.1-0.1,0.2-0.2,0.2l-1.4,1.3l-1.4,1.7
	c-0.1,0.1-0.1,0.1-0.2,0.2l-1.3,1.3l-3,3.5c-0.1,0.1-0.1,0.2-0.2,0.2l-1.4,1.3l-1.3,1.6c-0.1,0.1-0.2,0.2-0.3,0.3l-1.4,1.3l-1.4,1.7
	c-0.1,0.1-0.1,0.2-0.2,0.2l-1.4,1.3l-1.3,1.6c-0.1,0.1-0.2,0.2-0.3,0.3l-2.9,2.7l-1.4,1.7c-0.1,0.1-0.1,0.1-0.2,0.2l-2.9,2.8
	l-1.4,1.7c-0.1,0.1-0.1,0.2-0.2,0.2l-4.3,4.2l-1.4,1.7c-0.1,0.1-0.1,0.2-0.2,0.2L258.7,913l-1.3,1.6c-0.1,0.1-0.2,0.2-0.3,0.3
	l-3,2.9c-0.1,0.1-0.2,0.2-0.3,0.3l-1.3,0.9l-10.3,9.9c-0.1,0.1-0.2,0.2-0.3,0.3l-1.3,0.9l-5.9,5.6c-0.1,0.1-0.2,0.1-0.2,0.2l-1.3,1
	l-2.9,2.7c-0.1,0.1-0.2,0.2-0.3,0.3l-1.3,0.9l-2.8,2.7c-0.1,0.1-0.2,0.2-0.3,0.3l-1.3,0.9l-1.4,1.3c-0.1,0.1-0.2,0.1-0.3,0.2l-1.3,1
	l-1.4,1.3c-0.1,0.1-0.2,0.2-0.3,0.3l-1.3,0.9l-1.4,1.3c-0.1,0.1-0.2,0.1-0.3,0.2l-1.3,1l-1.4,1.3c-0.1,0.1-0.2,0.2-0.3,0.3l-1.3,1
	l-1.4,1.3c-0.1,0.1-0.2,0.1-0.2,0.2l-1.3,1l-1.4,1.3c-0.1,0.1-0.2,0.2-0.3,0.3l-2.8,2l-1.2,1.2c-0.1,0.1-0.3,0.2-0.4,0.3l-2.8,2
	l-1.2,1.2c-0.1,0.1-0.3,0.2-0.4,0.3l-2.9,2l-1.4,1.3c-0.1,0.1-0.2,0.1-0.2,0.2l-4.4,3.1l-1.4,1.3c-0.1,0.1-0.2,0.1-0.3,0.2
	l-10.3,7.4l-1.4,1.3c-0.1,0.1-0.2,0.1-0.3,0.2l-13.4,9.6c-0.2,0.1-0.3,0.2-0.5,0.3l-1.3,0.6l-10.2,7.3c-0.2,0.1-0.3,0.2-0.5,0.3
	l-1.3,0.6l-4.2,3c-0.2,0.1-0.3,0.2-0.5,0.3l-1.3,0.6l-4.2,3.1c-0.1,0.1-0.3,0.2-0.5,0.3l-1.3,0.6l-2.7,1.9c-0.2,0.1-0.3,0.2-0.5,0.3
	l-1.3,0.6l-2.8,2C129.2,1014.9,128.6,1015.1,128,1015.1z"/>
<g>
	<g>
		<path class="st4" d="M74.9,1012.8c0-7.1,2.5-10.6,6.4-10.6c3.9,0,6.4,3.5,6.4,10.6c0,7.1-2.5,10.7-6.4,10.7
			C77.4,1023.5,74.9,1020,74.9,1012.8z M85.2,1012.8c0-6-1.6-8.5-3.9-8.5c-2.4,0-3.9,2.5-3.9,8.5c0,6.1,1.6,8.7,3.9,8.7
			C83.6,1021.5,85.2,1018.9,85.2,1012.8z"/>
	</g>
</g>
<g>
	<g>
		<path class="st4" d="M21.5,705.7h4.6v-15.3h-3.6v-1.6c1.8-0.3,3.1-0.8,4.3-1.5h2v18.4h4.1v2.1H21.5V705.7z"/>
		<path class="st4" d="M36.1,711.6c1.7-0.8,2.8-2.1,2.8-3.8c-0.1,0-0.2,0-0.3,0c-1,0-1.9-0.6-1.9-1.8c0-1.1,0.9-1.8,1.9-1.8
			c1.3,0,2.2,1.1,2.2,3c0,2.7-1.6,4.8-4.1,5.9L36.1,711.6z"/>
		<path class="st4" d="M43.8,697.5c0-7.1,2.5-10.6,6.4-10.6c3.9,0,6.4,3.5,6.4,10.6c0,7.1-2.5,10.7-6.4,10.7
			C46.3,708.2,43.8,704.6,43.8,697.5z M54.1,697.5c0-6-1.6-8.5-3.9-8.5c-2.4,0-3.9,2.5-3.9,8.5c0,6.1,1.6,8.7,3.9,8.7
			C52.5,706.1,54.1,703.5,54.1,697.5z"/>
		<path class="st4" d="M59.3,697.5c0-7.1,2.5-10.6,6.4-10.6c3.9,0,6.4,3.5,6.4,10.6c0,7.1-2.5,10.7-6.4,10.7
			C61.8,708.2,59.3,704.6,59.3,697.5z M69.6,697.5c0-6-1.6-8.5-3.9-8.5c-2.4,0-3.9,2.5-3.9,8.5c0,6.1,1.6,8.7,3.9,8.7
			C68.1,706.1,69.6,703.5,69.6,697.5z"/>
		<path class="st4" d="M74.9,697.5c0-7.1,2.5-10.6,6.4-10.6c3.9,0,6.4,3.5,6.4,10.6c0,7.1-2.5,10.7-6.4,10.7
			C77.4,708.2,74.9,704.6,74.9,697.5z M85.2,697.5c0-6-1.6-8.5-3.9-8.5c-2.4,0-3.9,2.5-3.9,8.5c0,6.1,1.6,8.7,3.9,8.7
			C83.6,706.1,85.2,703.5,85.2,697.5z"/>
	</g>
</g>
<g>
	<g>
		<path class="st4" d="M20.3,391c6.4-5.6,9.4-9.7,9.4-13.3c0-2.4-1.2-4.1-3.8-4.1c-1.7,0-3.1,1-4.3,2.4l-1.5-1.5
			c1.7-1.8,3.4-3,6.1-3c3.7,0,6,2.4,6,6.1c0,4.1-3.2,8.3-8,12.8c1.1-0.1,2.3-0.2,3.4-0.2h5.7v2.2H20.3V391z"/>
		<path class="st4" d="M36.1,396.4c1.7-0.8,2.8-2.1,2.8-3.8c-0.1,0-0.2,0-0.3,0c-1,0-1.9-0.6-1.9-1.8c0-1.1,0.9-1.8,1.9-1.8
			c1.3,0,2.2,1.1,2.2,3c0,2.7-1.6,4.8-4.1,5.9L36.1,396.4z"/>
		<path class="st4" d="M43.8,382.2c0-7.1,2.5-10.6,6.4-10.6c3.9,0,6.4,3.5,6.4,10.6c0,7.1-2.5,10.7-6.4,10.7
			C46.3,392.9,43.8,389.4,43.8,382.2z M54.1,382.2c0-6-1.6-8.5-3.9-8.5c-2.4,0-3.9,2.5-3.9,8.5c0,6.1,1.6,8.7,3.9,8.7
			C52.5,390.9,54.1,388.3,54.1,382.2z"/>
		<path class="st4" d="M59.3,382.2c0-7.1,2.5-10.6,6.4-10.6c3.9,0,6.4,3.5,6.4,10.6c0,7.1-2.5,10.7-6.4,10.7
			C61.8,392.9,59.3,389.4,59.3,382.2z M69.6,382.2c0-6-1.6-8.5-3.9-8.5c-2.4,0-3.9,2.5-3.9,8.5c0,6.1,1.6,8.7,3.9,8.7
			C68.1,390.9,69.6,388.3,69.6,382.2z"/>
		<path class="st4" d="M74.9,382.2c0-7.1,2.5-10.6,6.4-10.6c3.9,0,6.4,3.5,6.4,10.6c0,7.1-2.5,10.7-6.4,10.7
			C77.4,392.9,74.9,389.4,74.9,382.2z M85.2,382.2c0-6-1.6-8.5-3.9-8.5c-2.4,0-3.9,2.5-3.9,8.5c0,6.1,1.6,8.7,3.9,8.7
			C83.6,390.9,85.2,388.3,85.2,382.2z"/>
	</g>
</g>
<g>
	<g>
		<path class="st4" d="M19.9,77.4l1.3-1.7c1.2,1.3,2.8,2.4,5.1,2.4c2.4,0,4.2-1.5,4.2-3.8c0-2.5-1.7-4.1-6.4-4.1v-2
			c4.2,0,5.7-1.7,5.7-3.9c0-2-1.3-3.2-3.5-3.3c-1.7,0.1-3.1,0.9-4.3,2l-1.4-1.6c1.5-1.4,3.4-2.5,5.7-2.5c3.4,0,6,1.8,6,5.2
			c0,2.5-1.5,4.1-3.7,5v0.1c2.4,0.6,4.4,2.4,4.4,5.2c0,3.7-2.9,5.9-6.6,5.9C23.3,80.2,21.2,78.8,19.9,77.4z"/>
		<path class="st4" d="M36.1,83.6c1.7-0.8,2.8-2.1,2.8-3.8c-0.1,0-0.2,0-0.3,0c-1,0-1.9-0.6-1.9-1.8c0-1.1,0.9-1.8,1.9-1.8
			c1.3,0,2.2,1.1,2.2,3c0,2.7-1.6,4.8-4.1,5.9L36.1,83.6z"/>
		<path class="st4" d="M43.8,69.5c0-7.1,2.5-10.6,6.4-10.6c3.9,0,6.4,3.5,6.4,10.6c0,7.1-2.5,10.7-6.4,10.7
			C46.3,80.2,43.8,76.6,43.8,69.5z M54.1,69.5c0-6-1.6-8.5-3.9-8.5c-2.4,0-3.9,2.5-3.9,8.5c0,6.1,1.6,8.7,3.9,8.7
			C52.5,78.1,54.1,75.5,54.1,69.5z"/>
		<path class="st4" d="M59.3,69.5c0-7.1,2.5-10.6,6.4-10.6c3.9,0,6.4,3.5,6.4,10.6c0,7.1-2.5,10.7-6.4,10.7
			C61.8,80.2,59.3,76.6,59.3,69.5z M69.6,69.5c0-6-1.6-8.5-3.9-8.5c-2.4,0-3.9,2.5-3.9,8.5c0,6.1,1.6,8.7,3.9,8.7
			C68.1,78.1,69.6,75.5,69.6,69.5z"/>
		<path class="st4" d="M74.9,69.5c0-7.1,2.5-10.6,6.4-10.6c3.9,0,6.4,3.5,6.4,10.6c0,7.1-2.5,10.7-6.4,10.7
			C77.4,80.2,74.9,76.6,74.9,69.5z M85.2,69.5c0-6-1.6-8.5-3.9-8.5c-2.4,0-3.9,2.5-3.9,8.5c0,6.1,1.6,8.7,3.9,8.7
			C83.6,78.1,85.2,75.5,85.2,69.5z"/>
	</g>
</g>
<rect x="125.7" y="1012" class="st5" width="541" height="2"/>
<g>
	<rect x="124.7" y="1013" class="st5" width="2" height="12.4"/>
	<rect x="214.9" y="1013" class="st5" width="2" height="12.4"/>
	<rect x="305.1" y="1013" class="st5" width="2" height="12.4"/>
	<rect x="395.2" y="1013" class="st5" width="2" height="12.4"/>
	<rect x="485.4" y="1013" class="st5" width="2" height="12.4"/>
	<rect x="575.6" y="1013" class="st5" width="2" height="12.4"/>
	<rect x="665.8" y="1013" class="st5" width="2" height="12.4"/>
</g>
<g>
	<g>
		<path class="st4" d="M694.8,975v6.7c0,1-0.3,1.5-0.9,1.8c-0.6,0.3-1.6,0.3-3.2,0.3c-0.1-0.5-0.3-1.2-0.6-1.7c1.2,0,2.2,0,2.5,0
			c0.3,0,0.5-0.1,0.5-0.5v-6.2l-3,0.9l-0.5-1.7c1-0.2,2.2-0.6,3.6-1v-5.2h-3.3V967h3.3v-4.8h1.8v4.8h3v1.7h-3v4.7l2.2-0.6l0.2,1.6
			L694.8,975z M709.8,973.1c-1,2.9-2.6,5.1-4.7,6.9c1.8,1.1,4,2,6.4,2.5c-0.4,0.4-0.9,1.1-1.1,1.6c-2.6-0.6-4.8-1.6-6.7-3
			c-2.1,1.4-4.5,2.4-7,3c-0.2-0.5-0.6-1.2-0.9-1.6c2.3-0.5,4.5-1.3,6.5-2.5c-1.6-1.5-3-3.4-3.9-5.5l0.2-0.1h-0.9v-1.7h10.7l0.3-0.1
			L709.8,973.1z M701.6,965.7c0,2.1-0.6,4.7-3.6,6.4c-0.2-0.4-0.8-1-1.2-1.3c2.6-1.5,3.1-3.4,3.1-5.1V963h7.6v5.5
			c0,0.7,0.1,0.9,0.5,0.9h1.8c0.4,0,0.9,0,1.2-0.1c0,0.5,0.1,1.1,0.1,1.5c-0.3,0.1-0.8,0.1-1.3,0.1h-2c-1.7,0-2-0.7-2-2.5v-3.8h-4.2
			V965.7z M700.1,974.3c0.8,1.8,2.1,3.3,3.6,4.6c1.6-1.2,2.9-2.8,3.7-4.6H700.1z"/>
		<path class="st4" d="M720.7,968.7h-6.9v-1.4h6.9V968.7z M722.6,981.1c-1.9,1.2-4.9,2.3-7.3,2.9c-0.3-0.4-0.9-1-1.3-1.3
			c2.4-0.5,5.3-1.4,7-2.3L722.6,981.1z M720.1,965h-5.7v-1.4h5.7V965z M717,970.6h15.5v9.6H717V970.6z M718.7,973.4h12v-1.6h-12
			V973.4z M718.7,976.2h12v-1.6h-12V976.2z M718.7,979h12v-1.7h-12V979z M724.5,965.2c-0.5,0.9-1.2,1.8-1.8,2.4
			c-0.3-0.3-1-0.7-1.3-0.9c1.2-1.1,2.2-2.8,2.8-4.6l1.6,0.4c-0.1,0.5-0.3,0.9-0.5,1.3h8l0.3-0.1l1.2,0.4c-0.6,1.2-1.4,2.6-2,3.5
			l-1.4-0.5c0.4-0.5,0.8-1.2,1.1-1.9h-3.8v0.3c0,0.2,0,0.5-0.1,0.8c1.3,1.4,3.9,2.4,7,2.6c-0.3,0.3-0.8,1-1,1.4
			c-2.7-0.4-5-1.3-6.5-2.8c-0.8,1.2-2.7,2.3-6.9,2.9c-0.2-0.4-0.6-1-1-1.3c6.2-0.8,6.8-2.5,6.8-3.7v-0.2H724.5z M728.1,980.4
			c2.6,0.8,5.4,1.8,7.1,2.6l-1.6,1c-1.5-0.8-4.1-1.8-6.7-2.7L728.1,980.4z"/>
		<path class="st4" d="M711.4,1007.4h-8.7v5.5h-1.8v-5.5h-11.1v-1.7h3.9v-6.4h7.1v-3.6h-5.8c-1.1,1.8-2.4,3.5-3.6,4.7
			c-0.3-0.3-1.1-0.9-1.5-1.1c2.3-2,4.3-5.1,5.4-8.3l1.8,0.4c-0.3,0.8-0.7,1.7-1.1,2.5h14.3v1.7h-7.6v3.6h7v1.7h-7v4.8h8.7V1007.4z
			 M700.9,1005.6v-4.8h-5.4v4.8H700.9z"/>
		<path class="st4" d="M724.3,1006.7c-0.2,1.1-0.7,2.1-2.1,3.2c1.1,0.5,2,1,2.8,1.4l-1.2,1c-0.8-0.5-1.8-1-3-1.6
			c-1.5,0.8-3.7,1.5-6.7,2.1c-0.1-0.4-0.5-0.9-0.7-1.2c2.5-0.4,4.4-1,5.8-1.6c-1.2-0.5-2.5-1-3.7-1.3c0.4-0.5,0.8-1,1.2-1.6
			l-2.8,0.1l-0.2-1.3c1.1,0,2.4-0.1,3.9-0.1c0.4-0.6,0.7-1.3,1.1-1.9h-3.9v-3.9h4.5v-1h-3.9v-2.6h-1.6v-1.4h1.6v-2.4h3.9v-1.7h1.4
			v1.7h4.1v2.4h1.6v1.4h-1.6v2.6h-4.1v1h4.7v3.9h-5.1c-0.3,0.6-0.6,1.2-1,1.8c1.2,0,2.4-0.1,3.6-0.2v-0.2v-0.9h1.5v0.9v0.1l1.2-0.1
			l0,1.2L724.3,1006.7z M716.3,1002.7h3v-1.5h-3V1002.7z M717,993.9v1.3h2.3v-1.3H717z M719.3,997.8v-1.4H717v1.4H719.3z
			 M718.5,1007c-0.2,0.4-0.5,0.7-0.7,1.1c1,0.3,2,0.7,3,1.1c1.2-0.8,1.8-1.6,2-2.4L718.5,1007z M720.8,993.9v1.3h2.5v-1.3H720.8z
			 M723.2,997.8v-1.4h-2.5v1.4H723.2z M720.8,1001.2v1.5h3.1v-1.5H720.8z M733.8,997.1c-0.5,3.6-1.1,6.6-2.2,9.2
			c1.1,2.2,2.3,3.9,4.1,5c-0.4,0.3-0.8,0.8-1.1,1.3c-1.6-1.1-2.8-2.6-3.8-4.5c-1.1,2-2.5,3.6-4.3,4.9c-0.1-0.3-0.6-1-1-1.3
			c2-1.3,3.5-3.1,4.5-5.4c-0.8-1.9-1.3-4-1.8-6.3c-0.4,1-0.8,1.9-1.3,2.6c-0.3-0.2-0.9-0.8-1.2-1.1c1.6-2.5,2.5-6.4,3.1-10.3
			l1.5,0.2c-0.2,1.4-0.5,2.8-0.8,4.1h5.9v1.6H733.8z M729.2,997.1c0.4,2.5,0.9,5,1.6,7.1c0.7-2.1,1.1-4.4,1.4-7.1H729.2z"/>
	</g>
</g>
<g>
	<path class="st4" d="M120.2,1054.1c0-6.1,2.1-9.1,5.5-9.1c3.3,0,5.5,3,5.5,9.1c0,6.1-2.1,9.2-5.5,9.2
		C122.4,1063.3,120.2,1060.2,120.2,1054.1z M129.1,1054.1c0-5.1-1.3-7.3-3.3-7.3c-2,0-3.4,2.2-3.4,7.3c0,5.2,1.3,7.4,3.4,7.4
		C127.7,1061.5,129.1,1059.3,129.1,1054.1z"/>
</g>
<g>
	<path class="st4" d="M210.2,1060.9l1.1-1.4c1,1,2.3,1.9,4.3,1.9c2.1,0,3.7-1.6,3.7-4.1c0-2.5-1.4-4-3.6-4c-1.2,0-1.9,0.4-2.9,1
		l-1.2-0.7l0.6-8.2h8.6v1.9H214l-0.4,5.1c0.8-0.4,1.6-0.7,2.6-0.7c2.9,0,5.3,1.7,5.3,5.6s-2.8,6-5.8,6
		C213,1063.3,211.4,1062.1,210.2,1060.9z"/>
</g>
<g>
	<path class="st4" d="M294.3,1061.1h3.9V1048h-3.1v-1.4c1.6-0.3,2.7-0.7,3.6-1.2h1.7v15.8h3.5v1.8h-9.6V1061.1z"/>
	<path class="st4" d="M306.7,1054.1c0-6.1,2.1-9.1,5.5-9.1c3.3,0,5.5,3,5.5,9.1c0,6.1-2.1,9.2-5.5,9.2
		C308.8,1063.3,306.7,1060.2,306.7,1054.1z M315.5,1054.1c0-5.1-1.3-7.3-3.3-7.3c-2,0-3.4,2.2-3.4,7.3c0,5.2,1.3,7.4,3.4,7.4
		C314.2,1061.5,315.5,1059.3,315.5,1054.1z"/>
</g>
<g>
	<path class="st4" d="M384.5,1061.1h3.9V1048h-3.1v-1.4c1.6-0.3,2.7-0.7,3.6-1.2h1.7v15.8h3.5v1.8h-9.6V1061.1z"/>
	<path class="st4" d="M396.4,1060.9l1.1-1.4c1,1,2.3,1.9,4.3,1.9c2.1,0,3.7-1.6,3.7-4.1c0-2.5-1.4-4-3.6-4c-1.2,0-1.9,0.4-2.9,1
		l-1.2-0.7l0.6-8.2h8.6v1.9h-6.6l-0.4,5.1c0.8-0.4,1.6-0.7,2.6-0.7c2.9,0,5.3,1.7,5.3,5.6s-2.8,6-5.8,6
		C399.2,1063.3,397.6,1062.1,396.4,1060.9z"/>
</g>
<g>
	<path class="st4" d="M474.1,1061.7c5.5-4.8,8.1-8.3,8.1-11.3c0-2-1.1-3.5-3.2-3.5c-1.4,0-2.7,0.9-3.6,2l-1.3-1.2
		c1.4-1.6,3-2.6,5.2-2.6c3.1,0,5.1,2.1,5.1,5.2c0,3.5-2.8,7.1-6.9,11c0.9-0.1,2-0.2,2.9-0.2h4.9v1.9h-11.1V1061.7z"/>
	<path class="st4" d="M487.5,1054.1c0-6.1,2.1-9.1,5.5-9.1c3.3,0,5.5,3,5.5,9.1c0,6.1-2.1,9.2-5.5,9.2
		C489.7,1063.3,487.5,1060.2,487.5,1054.1z M496.4,1054.1c0-5.1-1.3-7.3-3.3-7.3c-2,0-3.4,2.2-3.4,7.3c0,5.2,1.3,7.4,3.4,7.4
		C495,1061.5,496.4,1059.3,496.4,1054.1z"/>
</g>
<g>
	<path class="st4" d="M564.3,1061.7c5.5-4.8,8.1-8.3,8.1-11.3c0-2-1.1-3.5-3.2-3.5c-1.4,0-2.7,0.9-3.6,2l-1.3-1.2
		c1.4-1.6,3-2.6,5.2-2.6c3.1,0,5.1,2.1,5.1,5.2c0,3.5-2.8,7.1-6.9,11c0.9-0.1,2-0.2,2.9-0.2h4.9v1.9h-11.1V1061.7z"/>
	<path class="st4" d="M577.2,1060.9l1.1-1.4c1,1,2.3,1.9,4.3,1.9c2.1,0,3.7-1.6,3.7-4.1c0-2.5-1.4-4-3.6-4c-1.2,0-1.9,0.4-2.9,1
		l-1.2-0.7l0.6-8.2h8.6v1.9h-6.6l-0.4,5.1c0.8-0.4,1.6-0.7,2.6-0.7c2.9,0,5.3,1.7,5.3,5.6s-2.8,6-5.8,6
		C580.1,1063.3,578.4,1062.1,577.2,1060.9z"/>
</g>
<g>
	<path class="st4" d="M654.1,1060.9l1.1-1.4c1,1.1,2.4,2,4.4,2c2.1,0,3.6-1.2,3.6-3.3c0-2.1-1.4-3.5-5.5-3.5v-1.7
		c3.6,0,4.9-1.5,4.9-3.4c0-1.7-1.2-2.8-3-2.8c-1.4,0-2.7,0.8-3.6,1.8l-1.2-1.4c1.3-1.2,2.9-2.1,4.9-2.1c3,0,5.1,1.6,5.1,4.4
		c0,2.1-1.3,3.5-3.1,4.2v0.1c2.1,0.5,3.7,2.1,3.7,4.5c0,3.1-2.5,5-5.6,5C657,1063.3,655.3,1062.1,654.1,1060.9z"/>
	<path class="st4" d="M667.9,1054.1c0-6.1,2.1-9.1,5.5-9.1c3.3,0,5.5,3,5.5,9.1c0,6.1-2.1,9.2-5.5,9.2
		C670.1,1063.3,667.9,1060.2,667.9,1054.1z M676.8,1054.1c0-5.1-1.3-7.3-3.3-7.3c-2,0-3.4,2.2-3.4,7.3c0,5.2,1.3,7.4,3.4,7.4
		C675.4,1061.5,676.8,1059.3,676.8,1054.1z"/>
</g>
<g>
	<g>
		<path class="st4" d="M26.1,28.7c-1.5,1.4-3.9,2.8-5.8,3.7c-0.3-0.3-1-0.9-1.4-1.2c2-0.8,4.2-2,5.6-3.2L26.1,28.7z M30.7,26.9V31
			c0,0.9-0.2,1.4-0.9,1.7C29.1,33,28,33,26.4,33c-0.1-0.5-0.4-1.2-0.6-1.6c1.2,0,2.3,0,2.7,0c0.3,0,0.4-0.1,0.4-0.4v-4
			c-6.6,0.3-7.6,0.4-8.3,0.6c0-0.3-0.3-1.2-0.4-1.6c0.8,0,1.8-0.4,3.1-0.9c0.7-0.2,2.3-0.9,4.1-1.7c-4.5,0.3-5.1,0.4-5.6,0.6
			c-0.1-0.3-0.3-1.2-0.5-1.6c0.5,0,1-0.3,1.6-0.6c0.5-0.2,1.8-0.9,3.1-1.8h-5.1v-8.2h17.4V20h-9.8c-1.2,0.8-2.4,1.6-3.5,2.2l5.3-0.3
			c1-0.5,1.9-1.1,2.8-1.6l1.4,1.1c-3,1.7-6.1,3.1-9,4.2l9.8-0.5c-0.6-0.6-1.3-1.2-1.9-1.6l1.3-0.9c1.7,1.2,3.6,3.1,4.6,4.3l-1.3,1
			c-0.3-0.4-0.7-0.9-1.2-1.5L30.7,26.9z M22.8,15.3h6v-1.9h-6V15.3z M22.8,18.6h6v-2h-6V18.6z M36.7,13.3h-6.2v1.9h6.2V13.3z
			 M36.7,16.6h-6.2v2h6.2V16.6z M33.9,28.1c2,0.9,4.6,2.4,6,3.4l-1.4,1.1c-1.3-1-3.8-2.5-5.9-3.5L33.9,28.1z"/>
		<path class="st4" d="M50.5,25.5c-0.4-0.7-1.3-1.9-2.1-2.9v10.3h-1.7V22.4c-1,2.4-2.2,4.7-3.4,6.2c-0.2-0.5-0.6-1.2-0.9-1.6
			c1.5-1.7,3.2-4.8,4.1-7.6H43v-1.7h3.7V14c-1.1,0.2-2.2,0.4-3.3,0.5c-0.1-0.4-0.3-1-0.6-1.4c2.6-0.4,5.6-1,7.3-1.8l1.2,1.3
			c-0.9,0.4-1.9,0.6-3,0.9v4H51v-0.4h5.8V16h-4.6v-1.2h4.6v-1.2h-5.1v-1.2h5.1v-1.3h1.8v1.3H64v1.2h-5.4v1.2h4.8V16h-4.8v1.3h6v1.2
			H51.1v0.8h-2.7v1.5c0.7,0.7,2.7,2.7,3.2,3.3L50.5,25.5z M56.7,30.1c-1.4,1.2-3.7,2.3-5.7,2.9c-0.3-0.3-0.8-0.9-1.2-1.2
			c2-0.6,4.2-1.7,5.3-2.6L56.7,30.1z M52.6,29.1v-9.4h10.7v9.4H52.6z M54.2,22.4h7.4v-1.5h-7.4V22.4z M54.2,25.2h7.4v-1.6h-7.4V25.2
			z M54.2,27.9h7.4v-1.6h-7.4V27.9z M60.2,29.3c1.6,0.9,3.5,2,4.6,2.8L63.3,33c-1-0.7-2.7-1.8-4.2-2.8L60.2,29.3z"/>
		<path class="st4" d="M73.8,17.6h-6.9v-1.4h6.9V17.6z M75.7,30c-1.9,1.2-4.9,2.3-7.3,2.9c-0.3-0.4-0.9-1-1.3-1.3
			c2.4-0.5,5.3-1.4,7-2.3L75.7,30z M73.2,13.9h-5.7v-1.4h5.7V13.9z M70.1,19.5h15.5v9.6H70.1V19.5z M71.8,22.3h12v-1.6h-12V22.3z
			 M71.8,25.1h12v-1.6h-12V25.1z M71.8,27.9h12v-1.7h-12V27.9z M77.6,14.1c-0.5,0.9-1.2,1.8-1.8,2.4c-0.3-0.3-1-0.7-1.3-0.9
			c1.2-1.1,2.2-2.8,2.8-4.6l1.6,0.4c-0.1,0.5-0.3,0.9-0.5,1.3h8l0.3-0.1l1.2,0.4c-0.6,1.2-1.4,2.6-2,3.5L84.4,16
			c0.4-0.5,0.8-1.2,1.1-1.9h-3.8v0.3c0,0.2,0,0.5-0.1,0.8c1.3,1.4,3.9,2.4,7,2.6c-0.3,0.3-0.8,1-1,1.4c-2.7-0.4-5-1.3-6.5-2.8
			c-0.8,1.2-2.7,2.3-6.9,2.9c-0.2-0.4-0.6-1-1-1.3c6.2-0.8,6.8-2.5,6.8-3.7v-0.2H77.6z M81.2,29.3c2.6,0.8,5.4,1.8,7.1,2.6l-1.6,1
			c-1.5-0.8-4.1-1.8-6.7-2.7L81.2,29.3z"/>
		<path class="st4" d="M94.4,20.8v3.6c0,2.7-0.4,6.4-2.6,8.9c-0.3-0.3-1-0.9-1.3-1.2c1.9-2.2,2.2-5.3,2.2-7.7v-5h3
			c-0.2-0.3-0.6-0.7-0.9-0.9c1.9-0.4,4.1-0.8,6.1-1.4c-1.8-0.5-3.7-1-5.4-1.4l1.1-0.9h-3.8v-1.5h8.9c-0.4-0.6-0.9-1.2-1.3-1.8
			l1.3-0.6c0.6,0.7,1.4,1.7,1.8,2.4h8v1.5h-3.6l1,0.6c-1.1,0.6-2.3,1.1-3.7,1.6c1.8,0.5,3.4,1.1,4.6,1.5l-1,0.9h3.5v1.5H94.4z
			 M112.6,30.7v1.5H94.9v-1.5h7.8v-2.4h-5.6v-1.4h5.6v-2.1h-5c-0.7,1.2-1.5,2.2-2.3,3c-0.2-0.3-0.6-1.2-0.9-1.5
			c1.3-1.2,2.5-3.1,3.2-5l1.5,0.4c-0.2,0.6-0.4,1.1-0.7,1.6h4.2v-2h1.8v2h6.5v1.5h-6.5v2.1h5.9v1.4h-5.9v2.4H112.6z M108.2,19.3
			c-1.4-0.5-3.1-1.1-5.1-1.7c-2.2,0.7-4.4,1.2-6.5,1.7H108.2z M97.2,14.7c1.9,0.5,4,1,6,1.6c1.5-0.5,2.9-1,4-1.6H97.2z"/>
		<path class="st4" d="M126.5,19.8v3.3h8.4v1.6h-8.4v5.9h9.5v1.7h-20.6v-1.7h9.3v-5.9h-8.2v-1.6h8.2v-3.3h-5.2v-1.3
			c-1.2,0.7-2.5,1.3-3.8,1.8c-0.3-0.5-0.7-1.2-1.2-1.6c4.5-1.5,8.9-4.3,11.2-7.8l1.6,0.8c-0.2,0.3-0.4,0.6-0.6,0.9
			c2.4,2.5,6.6,5,10.2,6.2c-0.4,0.4-1,1.1-1.2,1.6c-1.2-0.5-2.6-1.1-3.9-1.8v1.5H126.5z M119.9,25.3c0.9,1.3,1.9,3.1,2.3,4.3
			l-1.6,0.6c-0.3-1.1-1.3-3-2.2-4.3L119.9,25.3z M131.5,18.2c-2.2-1.3-4.3-2.9-5.8-4.5c-1.6,1.7-3.5,3.3-5.6,4.5H131.5z M128.7,29.7
			c0.8-1.2,1.9-3.1,2.5-4.4l1.7,0.6c-0.9,1.5-2,3.2-2.8,4.3L128.7,29.7z"/>
		<path class="st4" d="M148.3,25.7l-0.2-0.1v7.2h-1.6v-0.7h-4.3v0.7h-1.5v-7c-0.4,0.2-0.8,0.4-1.2,0.6c-0.2-0.4-0.6-1.2-0.9-1.5
			c1.6-0.6,3.3-1.5,4.7-2.6c-0.6-0.4-1.2-0.8-1.8-1.1l1-1.1c0.6,0.3,1.2,0.7,1.9,1.1c0.7-0.8,1.4-1.7,1.8-2.6h-3.4
			c-0.7,1.1-1.6,2.1-2.7,3c-0.2-0.4-0.7-1-1-1.2c1.8-1.3,3-3.2,3.6-4.8l1.4,0.3c-0.2,0.5-0.3,0.9-0.6,1.4h3.5l0.3-0.1l0.9,0.7
			c-0.6,1.6-1.5,3-2.5,4.2c1.4,0.9,2.8,1.8,3.7,2.4L148.3,25.7z M140.6,17.4h-1.4v-4h4.3c-0.2-0.6-0.5-1.2-0.7-1.8l1.4-0.5
			c0.3,0.7,0.8,1.6,1,2.3h4v4h-1.4v-2.5h-7.2V17.4z M148.1,25.6c-0.9-0.6-2.2-1.5-3.5-2.4c-1,1-2.2,1.8-3.3,2.4H148.1z M146.5,30.7
			V27h-4.3v3.6H146.5z M154.6,30c-1.4,1.1-3.4,2.4-5,3.1c-0.2-0.4-0.6-1-0.8-1.3c1.5-0.7,3.5-1.9,4.6-2.9L154.6,30z M153.9,16.1
			c0.2-0.7,0.3-1.6,0.5-2.4h-4.3v-1.5h10.4v1.5h-4.4c-0.2,0.8-0.5,1.7-0.7,2.4h4.3v12.4h-9V16.1H153.9z M158,17.5h-5.6v2.2h5.6V17.5
			z M158,21.1h-5.6v2.3h5.6V21.1z M158,24.8h-5.6V27h5.6V24.8z M156.7,28.8c1.3,0.8,3,2.1,3.9,3l-1,1.3c-0.8-0.9-2.6-2.2-3.9-3.1
			L156.7,28.8z"/>
		<path class="st4" d="M166.3,23.7c0-4.7,1.3-8.6,3.5-12.2l1.4,0.6c-2.1,3.4-3.1,7.5-3.1,11.5s1,8.1,3.1,11.5l-1.4,0.6
			C167.6,32.2,166.3,28.4,166.3,23.7z"/>
		<path class="st4" d="M179.5,26.2c-0.6,1.7-1.6,3.6-2.5,4.8c-0.3-0.2-0.9-0.7-1.2-0.9c0.9-1.1,1.8-2.8,2.3-4.3L179.5,26.2z
			 M182.4,24.5v8.3h-1.8v-8.3h-4.8V23h4.8v-2.5h-4.9V19h6.6c0.5-1.1,1-2.7,1.3-3.8l1.6,0.3c-0.4,1.2-0.9,2.4-1.3,3.5h3v1.5h-4.6V23
			h4.3v1.5H182.4z M186.7,15h-10.5v-1.5h4.7c-0.3-0.7-0.7-1.5-1.1-2.2l1.7-0.5c0.5,0.8,1,1.8,1.3,2.6h3.8V15z M178.6,18.9
			c-0.1-0.9-0.5-2.3-0.9-3.3l1.4-0.3c0.5,1,0.9,2.4,1,3.3L178.6,18.9z M184.7,25.7c0.8,1.2,1.6,2.7,2,3.8l-1.3,0.7
			c-0.4-1-1.2-2.7-2-3.8L184.7,25.7z M197.5,20.8h-2.6v12.1h-1.7V20.8h-3.3v0.8c0,3.4-0.3,8.1-2.5,11.2c-0.3-0.3-1-0.9-1.4-1.1
			c2-2.9,2.2-7,2.2-10.2v-8.3c2.7-0.4,5.8-1.2,7.5-1.9l1.4,1.3c-2,0.7-4.7,1.3-7.2,1.7v4.6h7.7V20.8z"/>
		<path class="st4" d="M214.4,13.8c2.3,2,5.1,5,6.3,7l-1.5,1.1c-0.4-0.6-0.9-1.3-1.5-2.1c-13.7,0.8-15.1,0.8-16,1.2
			c-0.1-0.4-0.4-1.3-0.6-1.8c0.5-0.1,1.2-0.6,1.9-1.4c0.9-0.8,3.6-3.8,5.5-6.8l1.8,0.8c-1.9,2.6-4,5.1-6.1,7.1l12.2-0.6
			c-1.1-1.2-2.3-2.5-3.5-3.5L214.4,13.8z M203,22.9h15.3v10h-1.9v-1.2h-11.6v1.3H203V22.9z M204.8,24.6v5.3h11.6v-5.3H204.8z"/>
		<path class="st4" d="M243.9,14.9c-0.6,1.8-1.5,3.4-2.6,4.6c1.2,1.1,2.6,1.9,4.2,2.5c-0.3,0.3-0.8,0.9-1,1.2
			c-1.7-0.6-3.1-1.5-4.3-2.7c-1.2,1-2.6,1.8-4.2,2.4c-0.2-0.4-0.6-1.1-0.9-1.4c1.6-0.5,3-1.2,4.1-2.2c-0.8-1-1.5-2.1-2-3.3
			c-0.4,0.6-0.9,1-1.4,1.5c-0.2-0.3-0.7-0.8-1.1-1.1v6.1h-1.4v-6.4h-3V23h-1.2v-6.8h-3v7.1h-1.4V15h4.2v-4h1.6v4h4.2v1.4
			c1.6-1.3,2.8-3.2,3.4-5.4l1.5,0.3c-0.2,0.7-0.5,1.5-0.8,2.1h6.5v1.4H243.9z M226.5,14.9c-0.3-0.7-1-1.9-1.6-2.8l1.2-0.6
			c0.7,0.8,1.4,1.9,1.7,2.7L226.5,14.9z M243.1,29.8c0,0.9-0.2,1.4-1,1.6c-0.8,0.3-2,0.3-4,0.3c-0.1-0.5-0.4-1.1-0.6-1.5
			c1.5,0,2.9,0,3.3,0c0.4,0,0.5-0.1,0.5-0.4v-3.7h-6V33h-1.8v-6.9h-5.5v5.7h-1.8v-7.2h7.3v-1.5h1.8v1.5h7.7V29.8z M228.5,17.3
			c-0.2,1.4-0.6,2.9-1.1,3.9c-0.2-0.1-0.6-0.4-1-0.5c0.6-1,0.8-2.3,1-3.6L228.5,17.3z M231.9,17.1c0.5,1.2,0.9,2.8,1,3.7l-1,0.3
			c-0.1-1-0.5-2.6-1-3.8L231.9,17.1z M234.9,12.1c-0.7,1-1.4,2.1-2.1,2.8l-1.1-0.5c0.6-0.8,1.3-2.1,1.7-2.9L234.9,12.1z M238.2,14.9
			c0.5,1.3,1.2,2.5,2,3.5c0.9-1,1.6-2.1,2-3.5H238.2z"/>
		<path class="st4" d="M253.5,14h-5.3v-1.5h5.3V11h1.8v1.5h2.9V14h-2.9v1.5h-1.8V14z M268.1,31.1c0,0.8-0.1,1.2-0.8,1.5
			c-0.6,0.3-1.6,0.3-3.1,0.3c-0.1-0.5-0.3-1-0.5-1.5c1.1,0,2,0,2.3,0c0.3,0,0.4-0.1,0.4-0.4v-5h-6.9v2.5l3-0.1
			c-0.3-0.6-0.7-1.1-1.1-1.5l1.3-0.4c1.1,1.3,2.1,3,2.5,4.3l-1.4,0.5c-0.1-0.4-0.3-0.9-0.6-1.4c-3.9,0.3-7.8,0.5-10.5,0.6l-0.1-1.6
			c1.4,0,3.2-0.1,5.2-0.2v-2.6H251v6.9h-1.7v-6.9h-1v-1.5h1v-0.9h1.7v0.9h6.7v-1.5h-6.9v-7.3h15.6v7.3h-7v1.5h8.7V31.1z M252.5,18.9
			h5.2v-1.7h-5.2V18.9z M257.7,21.8v-1.7h-5.2v1.7H257.7z M269,12.5V14h-5.4v1.5h-1.8V14H259v-1.5h2.8V11h1.8v1.5H269z M264.7,17.2
			h-5.3v1.7h5.3V17.2z M264.7,20.1h-5.3v1.7h5.3V20.1z"/>
		<path class="st4" d="M290.6,30.8c1,0,1.1-0.6,1.2-4.3c0.4,0.3,1.2,0.6,1.7,0.8c-0.2,4.1-0.7,5.2-2.8,5.2h-3.4
			c-2.1,0-2.7-0.6-2.7-2.7v-8.5h-4.5c-0.5,5.1-1.6,9.3-7.1,11.6c-0.2-0.4-0.7-1.1-1.1-1.4c5.1-1.9,6-5.7,6.4-10.2h-6.1v-1.7h21v1.7
			h-6.7v8.5c0,0.8,0.2,1,1.1,1H290.6z M291.1,14.6h-16.9v-1.7h16.9V14.6z"/>
		<path class="st4" d="M298,35.2c2.1-3.4,3.1-7.5,3.1-11.5s-1-8.1-3.1-11.5l1.3-0.6c2.2,3.6,3.5,7.5,3.5,12.2
			c0,4.7-1.3,8.6-3.5,12.2L298,35.2z"/>
	</g>
</g>
<circle class="st1" cx="665.9" cy="697.3" r="12"/>
<circle class="st2" cx="504.4" cy="697.3" r="12"/>
<circle class="st3" cx="422.8" cy="697.3" r="12"/>
<g>
	<path class="st3" d="M521.5,560.5h-460c-5.5,0-10-4.5-10-10v-100c0-5.5,4.5-10,10-10h460c5.5,0,10,4.5,10,10v100
		C531.5,556,527.1,560.5,521.5,560.5z"/>
	<g>
		<path class="st6" d="M102.8,468.8c-1.5,2.4-3.3,4.7-4.9,6.4c-0.6-0.5-1.9-1.4-2.7-1.8c2.9-2.5,5.7-6.6,7.3-10.5l3,0.9
			c-0.4,0.8-0.7,1.6-1.2,2.4h19.1v2.7H102.8z M120,481.3c-0.1,1.7-0.2,3.2-0.3,4.4h3.7v2.6h-4c-0.2,1.5-0.5,2.3-0.9,2.8
			c-0.6,0.9-1.4,1.2-2.4,1.3c-1,0.1-2.6,0.1-4.2,0c0-0.7-0.3-1.7-0.7-2.4c1.5,0.1,2.9,0.2,3.5,0.2c0.5,0,0.8-0.1,1.2-0.5
			c0.2-0.3,0.4-0.7,0.5-1.5H98.7c0.4-1.9,0.8-4.4,1.2-7h-4.4v-2.7h4.9c0.3-2.4,0.6-4.8,0.8-6.9h19.3c0,0,0,1,0,1.3
			c-0.1,2.1-0.1,3.9-0.2,5.5h4.5v2.7H120z M102.9,481.2c-0.2,1.6-0.4,3.1-0.6,4.5h8.6c-1.3-1.1-3.2-2.4-4.9-3.2l1.3-1.3H102.9z
			 M103.8,474.3c-0.2,1.4-0.4,2.9-0.6,4.4h8.2c-1.3-1.1-3.2-2.2-4.8-3l1.4-1.3H103.8z M116.8,485.7c0.1-1.2,0.2-2.7,0.3-4.5h-8.9
			c1.9,0.9,3.9,2.3,5,3.3l-1.1,1.2H116.8z M117.2,478.7c0-1.3,0.1-2.8,0.1-4.4h-8.5c1.8,0.9,3.9,2.1,4.9,3.1l-1.2,1.2H117.2z"/>
		<path class="st6" d="M152.4,488.4c0,1.9-0.5,2.8-1.8,3.3c-1.3,0.5-3.5,0.6-6.8,0.6c-0.2-0.9-0.8-2.3-1.3-3.1
			c2.5,0.1,5.1,0.1,5.8,0.1c0.7,0,1-0.3,1-0.9v-5.6h-14.5c-0.8,3.6-2.4,7.1-5.5,9.7c-0.4-0.6-1.6-1.7-2.3-2.2
			c5-4.3,5.5-10.6,5.5-15.6v-10.1h19.9V488.4z M149.3,479.9v-4.7h-13.8c0,1.5-0.1,3.1-0.3,4.7H149.3z M135.5,467.6v4.7h13.8v-4.7
			H135.5z"/>
		<path class="st6" d="M170.9,470.1c-1.1,2.4-2.4,4.8-4,6.9v15.5h-3v-11.9c-1.1,1.1-2.2,2-3.4,2.8c-0.3-0.8-1-2.1-1.5-2.8
			c3.7-2.5,6.6-6.3,8.6-10.5H160v-2.8h8.8c0.5-1.4,1-2.8,1.3-4.2l3.1,0.7c-0.4,1.1-0.8,2.3-1.2,3.4H188v2.8H170.9z M188.5,484.1
			h-8.1v5.1c0,1.6-0.3,2.4-1.5,2.8c-1.2,0.4-3,0.5-5.6,0.4c-0.1-0.8-0.5-2-0.9-2.8c1.9,0.1,3.8,0.1,4.3,0.1c0.6,0,0.7-0.2,0.7-0.6
			v-5.1H169v-2.8h8.5v-2.4c1.3-0.8,2.8-1.9,4-3h-9.9v-2.7h12.6l0.6-0.2l1.9,1.5c-1.7,1.8-4,3.7-6.2,5.2v1.6h8.1V484.1z"/>
		<path class="st6" d="M194.1,487.1l1.8-2.4c1.4,1.4,3.1,2.6,5.6,2.6c2.7,0,4.5-1.5,4.5-3.9c0-2.6-1.7-4.3-7-4.3v-2.7
			c4.6,0,6.2-1.8,6.2-4.1c0-2.1-1.4-3.4-3.6-3.4c-1.8,0-3.4,0.9-4.7,2.2l-1.9-2.3c1.9-1.7,4-2.8,6.8-2.8c4.2,0,7.2,2.2,7.2,6.1
			c0,2.7-1.6,4.6-4.1,5.5v0.2c2.7,0.7,4.9,2.7,4.9,5.9c0,4.3-3.6,6.8-7.9,6.8C198.1,490.4,195.7,488.9,194.1,487.1z"/>
		<path class="st6" d="M212.9,478.1c0-8.2,3-12.1,7.6-12.1c4.6,0,7.6,4,7.6,12.1c0,8.2-3,12.3-7.6,12.3
			C215.9,490.4,212.9,486.3,212.9,478.1z M224.6,478.1c0-6.8-1.7-9.2-4.1-9.2c-2.4,0-4.1,2.5-4.1,9.2c0,6.8,1.7,9.4,4.1,9.4
			C223,487.4,224.6,484.9,224.6,478.1z"/>
		<path class="st6" d="M231.4,494.3c2.2-0.9,3.5-2.5,3.5-4.4c-0.1,0-0.2,0-0.4,0c-1.3,0-2.5-0.8-2.5-2.4c0-1.4,1.2-2.4,2.6-2.4
			c1.8,0,2.8,1.5,2.8,4c0,3.4-2,6-5.2,7.2L231.4,494.3z"/>
		<path class="st6" d="M240.7,478.1c0-8.2,3-12.1,7.6-12.1c4.6,0,7.6,4,7.6,12.1c0,8.2-3,12.3-7.6,12.3
			C243.7,490.4,240.7,486.3,240.7,478.1z M252.4,478.1c0-6.8-1.7-9.2-4.1-9.2c-2.4,0-4.1,2.5-4.1,9.2c0,6.8,1.7,9.4,4.1,9.4
			C250.7,487.4,252.4,484.9,252.4,478.1z"/>
		<path class="st6" d="M258.9,478.1c0-8.2,3-12.1,7.6-12.1c4.6,0,7.6,4,7.6,12.1c0,8.2-3,12.3-7.6,12.3
			C261.9,490.4,258.9,486.3,258.9,478.1z M270.7,478.1c0-6.8-1.7-9.2-4.1-9.2c-2.4,0-4.1,2.5-4.1,9.2c0,6.8,1.7,9.4,4.1,9.4
			C269,487.4,270.7,484.9,270.7,478.1z"/>
		<path class="st6" d="M277.2,478.1c0-8.2,3-12.1,7.6-12.1c4.6,0,7.6,4,7.6,12.1c0,8.2-3,12.3-7.6,12.3
			C280.2,490.4,277.2,486.3,277.2,478.1z M288.9,478.1c0-6.8-1.7-9.2-4.1-9.2c-2.4,0-4.1,2.5-4.1,9.2c0,6.8,1.7,9.4,4.1,9.4
			C287.2,487.4,288.9,484.9,288.9,478.1z"/>
		<path class="st6" d="M323.5,489.1c1.2,0,1.4-0.8,1.5-5.6c0.7,0.5,2,1.1,2.8,1.3c-0.3,5.5-1.1,7.1-4.1,7.1h-4.3c-3.2,0-4-1-4-4.1
			v-10.7H310c-0.6,6.8-2,12.3-9.5,15.3c-0.3-0.8-1.2-1.8-1.9-2.4c6.7-2.5,7.8-7.3,8.2-12.9h-7.7v-2.9h28.1v2.9h-8.7v10.7
			c0,1.2,0.2,1.3,1.3,1.3H323.5z M324.5,468.3h-22.5v-2.9h22.5V468.3z"/>
		<path class="st6" d="M105.6,523.7c-1,0.3-2.1,0.6-3.1,0.9v8.4c0,1.5-0.3,2.3-1.2,2.7c-0.9,0.5-2.3,0.5-4.5,0.5
			c-0.1-0.7-0.5-2-0.9-2.7c1.4,0,2.8,0,3.1,0c0.4,0,0.6-0.2,0.6-0.6v-7.5l-3.7,1l-0.8-2.8c1.3-0.3,2.8-0.7,4.5-1.1v-6.3h-4.1v-2.8
			h4.1v-6.2h2.9v6.2h3.7v2.8h-3.7v5.6l2.7-0.7L105.6,523.7z M122.6,521.7c-1.2,3.9-3.3,6.9-5.9,9.2c2.3,1.3,5,2.3,8,2.9
			c-0.6,0.6-1.4,1.9-1.9,2.8c-3.3-0.8-6.2-2-8.6-3.7c-2.7,1.7-5.8,2.9-9,3.7c-0.3-0.8-0.9-2.1-1.5-2.7c2.9-0.6,5.7-1.5,8.1-2.9
			c-2-1.9-3.6-4.2-4.9-6.8l0.8-0.3h-1.6V521h14.1l0.5-0.1L122.6,521.7z M111.8,511.8c0,3-0.9,6.5-5,8.6c-0.4-0.6-1.4-1.8-1.9-2.2
			c3.6-1.8,4.1-4.3,4.1-6.5v-3.5h10.5v7.2c0,0.9,0.1,1.2,0.6,1.2h2.1c0.5,0,1.2-0.1,1.7-0.2c0,0.8,0.1,1.8,0.2,2.5
			c-0.4,0.2-1.2,0.2-1.9,0.2h-2.4c-2.6,0-3.2-1.1-3.2-3.8V511h-4.9V511.8z M109.8,523.8c1.1,2.1,2.6,3.9,4.5,5.4
			c1.8-1.5,3.3-3.3,4.4-5.4H109.8z"/>
		<path class="st6" d="M147.3,511.9c0,0.2,0,0.5-0.1,0.8c1.7,1.8,5.2,2.8,9.4,3.1c-0.6,0.6-1.3,1.7-1.6,2.4
			c-3.6-0.5-6.6-1.7-8.6-3.5c-1.2,1.5-3.7,2.8-9.2,3.6c-0.3-0.7-1-1.7-1.5-2.2h-8.1v-2.3h9.3v2.1c6.9-0.9,7.7-2.7,7.7-4.1v-0.4h-2.7
			c-0.7,1.2-1.5,2.2-2.3,3c-0.5-0.4-1.6-1.2-2.2-1.5c1.7-1.4,3-3.7,3.7-5.9l2.7,0.6c-0.2,0.5-0.4,1.1-0.6,1.6h10l0.4-0.1l2,0.7
			c-0.8,1.7-1.9,3.6-2.8,4.7l-2.3-0.8c0.4-0.6,0.9-1.4,1.3-2.2h-4.4V511.9z M147.1,531.3c3.3,1.1,6.9,2.4,9,3.5l-2.7,1.6
			c-2-1.1-5.3-2.5-8.6-3.6l1.9-1.5h-9.6l2.7,1.2c-2.6,1.6-6.6,3.1-9.8,4c-0.5-0.6-1.6-1.7-2.2-2.2c3.3-0.6,7-1.7,9.2-3h-5.2v-12.9
			h20.9v12.9H147.1z M136.1,511.1h-7.8v-2.2h7.8V511.1z M134.7,522.1h15v-1.8h-15V522.1z M134.7,525.7h15v-1.8h-15V525.7z
			 M134.7,529.4h15v-1.9h-15V529.4z"/>
		<path class="st6" d="M164,528.2c-0.5,2.8-1.3,5.8-2.1,7.7c-0.6-0.3-1.8-0.7-2.6-0.9c0.9-1.9,1.6-4.8,2-7.3L164,528.2z
			 M170.5,526.3c-0.1-0.5-0.2-1.1-0.4-1.7c-7.8,1.2-9,1.5-9.7,1.9c-0.2-0.5-0.6-2-1-2.8c0.8-0.2,1.6-0.9,2.7-2
			c0.5-0.5,1.6-1.7,2.8-3.3c-3.5,0.4-4.3,0.6-4.7,0.8c-0.2-0.6-0.6-1.9-1-2.7c0.6-0.1,1.2-0.7,2-1.7c0.8-0.9,3.2-4.5,4.7-7.9
			l2.7,1.2c-1.5,2.8-3.4,5.7-5.3,8l3.4-0.3c0.9-1.2,1.8-2.6,2.5-3.9l2.5,1.6c-2.2,3.3-4.8,6.6-7.5,9.3l4.9-0.7
			c-0.3-0.9-0.6-1.9-1-2.7l2.4-0.6c0.9,2.1,1.8,4.9,2.1,6.6L170.5,526.3z M167.6,527.5c0.4,2.2,0.9,5.1,1.1,7l-2.5,0.7
			c-0.1-2-0.5-4.9-0.9-7.1L167.6,527.5z M171.3,526.7c0.8,1.9,1.7,4.3,2,6l-2.3,0.9c-0.4-1.6-1.2-4.1-1.9-6.1L171.3,526.7z
			 M187.7,512.9c0,0,0,1.1,0,1.5c-0.4,14-0.8,18.8-2,20.3c-0.8,1.1-1.6,1.4-2.8,1.5c-1.1,0.2-3,0.1-4.8,0c-0.1-0.8-0.4-2.1-1-2.9
			c2,0.2,3.7,0.2,4.5,0.2c0.6,0,1-0.1,1.3-0.5c0.9-1,1.3-5.6,1.7-17.3h-8.5c-0.8,1.7-1.6,3.2-2.5,4.5c-0.6-0.4-1.9-1.3-2.6-1.7
			c2.2-2.7,3.9-7,4.9-11.3l2.9,0.6c-0.4,1.8-1,3.5-1.6,5.2H187.7z M180.1,528.1c-1-1.9-3.3-4.9-5.5-6.9l2.1-1.5
			c2.1,2,4.6,4.8,5.6,6.7L180.1,528.1z"/>
		<path class="st6" d="M195.9,530.9h5.2v-16.4h-4.2v-2.3c2.2-0.4,3.8-1,5.1-1.8h2.8v20.5h4.6v3h-13.4V530.9z"/>
		<path class="st6" d="M225.9,514.7c-0.9-1-2.3-1.8-3.7-1.8c-3,0-5.5,2.3-5.7,9c1.4-1.7,3.4-2.7,5.1-2.7c4,0,6.6,2.4,6.6,7.4
			c0,4.7-3.2,7.7-7,7.7c-4.5,0-8.1-3.7-8.1-11.7c0-9.1,4.3-12.7,8.9-12.7c2.6,0,4.5,1.1,5.9,2.5L225.9,514.7z M224.9,526.6
			c0-3-1.3-4.7-3.9-4.7c-1.4,0-3,0.7-4.4,2.8c0.4,4.7,2.1,6.9,4.6,6.9C223.3,531.5,224.9,529.7,224.9,526.6z"/>
		<path class="st6" d="M263.3,529.4h-11.2v7.1H249v-7.1h-14.6v-2.9h5.2v-8.5h9.4v-4.4h-7.3c-1.4,2.4-3,4.5-4.6,6.1
			c-0.6-0.5-1.9-1.5-2.6-1.9c2.9-2.5,5.5-6.6,7-10.9l3,0.8c-0.4,1-0.8,2-1.2,3h18.5v2.9h-9.7v4.4h8.9v2.8h-8.9v5.7h11.2V529.4z
			 M249,526.5v-5.7h-6.4v5.7H249z"/>
		<path class="st6" d="M276.3,531c-2.1,1.8-5.2,3.7-7.7,4.9c-0.5-0.5-1.6-1.5-2.3-2c2.6-1,5.4-2.6,7.2-4.1L276.3,531z M282.5,528.6
			v4.9c0,1.4-0.3,2.1-1.4,2.6c-1.1,0.4-2.6,0.4-4.7,0.4c-0.2-0.8-0.6-2-1.1-2.7c1.5,0,3,0,3.5,0c0.4,0,0.6-0.1,0.6-0.4v-4.6
			c-8.3,0.4-9.6,0.5-10.7,0.8c-0.1-0.5-0.4-1.8-0.7-2.6c1.1-0.1,2.4-0.5,4.2-1.2c0.9-0.3,2.7-1,4.9-2c-5.2,0.4-6.2,0.5-6.8,0.7
			c-0.1-0.5-0.5-1.8-0.8-2.5c0.6-0.1,1.3-0.4,2.2-0.8c0.6-0.3,2.1-1,3.7-2h-6.2v-11.2h23.3v11.2h-12.8c-1.4,0.9-2.8,1.8-4.2,2.5
			l6.4-0.3c1.2-0.6,2.5-1.4,3.7-2.1l2.2,1.7c-3.7,2.1-7.5,3.9-11.2,5.3l11.3-0.4c-0.7-0.7-1.5-1.3-2.2-1.9l2.1-1.4
			c2.3,1.6,4.9,4.1,6.1,5.7l-2.2,1.7c-0.4-0.6-1-1.2-1.6-1.9L282.5,528.6z M272.1,512.6h7.2v-2.2h-7.2V512.6z M272.1,517h7.2v-2.2
			h-7.2V517z M289.7,510.4h-7.5v2.2h7.5V510.4z M289.7,514.8h-7.5v2.2h7.5V514.8z M286.8,529.8c2.6,1.2,6,3.1,7.7,4.4l-2.3,1.7
			c-1.6-1.3-5-3.3-7.6-4.6L286.8,529.8z"/>
		<path class="st6" d="M308.4,526.7c-0.4-0.8-1.4-2.2-2.3-3.5v13.2h-2.9v-12.7c-1.2,2.8-2.6,5.5-4,7.2c-0.3-0.8-1-2-1.5-2.8
			c2-2.2,4-6.1,5.2-9.6h-4.4v-2.8h4.6v-4.3c-1.4,0.3-2.8,0.4-4,0.6c-0.1-0.7-0.5-1.7-0.9-2.3c3.4-0.5,7.4-1.4,9.7-2.3l2,2.3
			c-1.2,0.4-2.5,0.8-3.9,1.2v4.9h3.2v-0.5h7.5v-1.4h-5.9V512h5.9v-1.4h-6.5v-1.9h6.5v-1.6h3v1.6h6.9v1.9h-6.9v1.4h6.2v1.9h-6.2v1.4
			h7.7v2h-18v1.4h-3.4v1.6c1.1,0.9,3.5,3.5,4.1,4.2L308.4,526.7z M325.8,531.4h-10.7l2.2,1.4c-1.9,1.5-5.1,3-7.6,3.8
			c-0.4-0.6-1.3-1.4-1.9-1.9c2.5-0.7,5.4-2.1,6.9-3.3h-3.4v-12.7h14.4V531.4z M323,520.5h-8.9v1.7h8.9V520.5z M323,524.1h-8.9v1.8
			h8.9V524.1z M323,527.7h-8.9v1.8h8.9V527.7z M321.8,531.4c2.1,1.2,4.6,2.7,6.1,3.7l-2.6,1.4c-1.2-1-3.5-2.5-5.4-3.7L321.8,531.4z"
			/>
		<path class="st6" d="M359.2,522.5h-12.8v14h-3.2v-14h-12.6v-2.9h12.6v-7.1c-3.4,0.4-6.9,0.8-10.1,1.1c-0.1-0.8-0.5-2-0.8-2.7
			c7.7-0.7,16.5-1.9,21.5-3.5l2.3,2.5c-2.8,0.8-6.2,1.5-9.8,2.1v7.5h12.8V522.5z"/>
		<path class="st6" d="M369.8,511.4h-6.9v-2.5h6.9v-1.8h2.9v1.8h3.6v2.5h-3.6v1.7h-2.9V511.4z M389.6,533.6c0,1.3-0.2,2-1.1,2.4
			c-0.9,0.4-2.2,0.4-4.1,0.4c-0.1-0.7-0.5-1.6-0.8-2.3l-0.6,0.2c-0.1-0.5-0.3-1.1-0.5-1.8c-4.9,0.3-9.9,0.6-13.4,0.8l-0.2-2.6
			c1.8-0.1,4-0.2,6.5-0.3v-3h-8.2v8.9h-2.9v-8.9h-1.2v-2.4h1.2v-1h2.9v1h8.2v-1.7h-9v-9.9h21.1v9.9h-9.3v1.7h11.4V533.6z
			 M369.3,517.5h6.1v-1.9h-6.1V517.5z M375.4,521.4v-1.9h-6.1v1.9H375.4z M390.9,508.9v2.5h-7.1v1.7h-2.9v-1.7h-3.5v-2.5h3.5v-1.8
			h2.9v1.8H390.9z M384.5,515.6h-6.3v1.9h6.3V515.6z M384.5,519.4h-6.3v1.9h6.3V519.4z M384,534c1.1,0,2,0,2.3,0
			c0.4,0,0.5-0.1,0.5-0.4v-6.1h-8.5v2.9l3.3-0.2c-0.4-0.6-0.7-1.2-1.1-1.8l2.2-0.6c1.2,1.8,2.5,4.1,2.9,5.8L384,534z"/>
		<path class="st6" d="M403.3,522.1c-0.7,3-1.8,6.1-3.1,8.6c0.5,0.3,1.1,0.8,1.9,1.3c2.2,1.3,5.1,1.5,8.8,1.5
			c3.9,0,9.3-0.3,12.8-0.7c-0.4,0.8-0.9,2.3-0.9,3.1c-2.5,0.2-8.3,0.4-12,0.4c-4.2,0-6.9-0.4-9.3-1.7c-1.3-0.7-2.4-1.9-3.1-1.9
			c-0.7,0-1.8,2.1-2.7,4l-2-2.8c1.3-1.7,2.7-3.1,3.8-3.6c0.9-1.7,1.7-3.9,2.2-6h-4.4c0.8-1.9,1.8-4.4,2.6-6.8h-3.8v-2.7h7.5
			c-0.7,2.2-1.7,4.8-2.5,6.9h2.3l0.4-0.1L403.3,522.1z M398,513.5c-0.4-1.4-1.2-3.6-1.7-5.2l2.7-0.7c0.6,1.6,1.3,3.7,1.8,5
			L398,513.5z M413.8,526.8c0,0.8,0,1.9,0.1,2.5c-6.9,1.7-8,2-8.7,2.5c-0.2-0.7-0.7-1.8-1.2-2.3c0.5-0.3,1.2-0.8,1.2-2.1v-19h1.9v0
			h13.2v12l0.2-0.2l2.3,1.8c-1.5,1.1-3.3,2.3-4.9,3.2c1.8,1.5,3.3,3,4.4,4.3l-2.2,1.7c-1.9-2.4-5.9-6.1-9.3-8.5l2-1.5
			c1,0.8,2.1,1.6,3.2,2.5c1.4-0.9,3-2.1,4.2-3.1h-12v7.5L413.8,526.8z M417.5,510.9h-9.3v2.4h9.3V510.9z M417.5,518v-2.5h-9.3v2.5
			H417.5z"/>
		<path class="st6" d="M436.9,508.2c-0.9,2.3-2.1,4.6-3.4,6.8v21.4h-2.9v-17.1c-1,1.3-2.1,2.6-3.3,3.6c-0.3-0.7-1.2-2.4-1.8-3.1
			c3.4-3,6.5-7.7,8.4-12.5L436.9,508.2z M448,517.9c1.9,4.8,5,9.6,8.2,12.2c-0.7,0.6-1.7,1.6-2.2,2.4c-2.8-2.7-5.5-7-7.5-11.7v15.6
			h-2.9v-14.8c-2,4.4-4.7,8.5-7.7,11.1c-0.5-0.7-1.5-1.8-2.2-2.4c3.4-2.6,6.6-7.5,8.5-12.5h-7.2V515h8.5v-7.4h2.9v7.4h8.8v2.9H448z"
			/>
		<path class="st6" d="M474.4,519.2v3.9h10.7v2.7h-10.7v7.1h12.3v2.7h-27.5v-2.7h12v-7.1h-10.6v-2.7h10.6v-3.9h-6.7v-1.7
			c-1.5,0.8-3,1.5-4.6,2c-0.4-0.9-1.2-2-2-2.8c6-1.8,11.8-5.3,14.8-10.1l2.8,1.2c-0.3,0.4-0.5,0.8-0.8,1.2c3.1,3.1,8.5,6.2,13.3,7.6
			c-0.7,0.6-1.6,1.8-2,2.6c-1.6-0.6-3.2-1.3-4.8-2.2v2H474.4z M465.5,526.1c1.2,1.7,2.5,4,3,5.5l-2.6,1.1c-0.4-1.5-1.7-3.9-2.8-5.7
			L465.5,526.1z M479.7,516.5c-2.5-1.5-4.9-3.3-6.8-5.2c-1.9,2-4,3.7-6.4,5.2H479.7z M476.8,531.8c1.1-1.5,2.4-4,3.1-5.7l2.9,1.1
			c-1.2,2-2.6,4.2-3.7,5.6L476.8,531.8z"/>
	</g>
</g>
<g>
	<path class="st2" d="M611.5,390.5h-460c-5.5,0-10-4.5-10-10v-100c0-5.5,4.5-10,10-10h460c5.5,0,10,4.5,10,10v100
		C621.5,386,617.1,390.5,611.5,390.5z"/>
	<g>
		<path class="st6" d="M192.8,298.8c-1.5,2.4-3.3,4.7-4.9,6.4c-0.6-0.5-1.9-1.4-2.7-1.8c2.9-2.5,5.7-6.6,7.3-10.5l3,0.9
			c-0.4,0.8-0.7,1.6-1.2,2.4h19.1v2.7H192.8z M210,311.3c-0.1,1.7-0.2,3.2-0.3,4.4h3.7v2.6h-4c-0.2,1.5-0.5,2.3-0.9,2.8
			c-0.6,0.9-1.4,1.2-2.4,1.3c-1,0.1-2.6,0.1-4.2,0c0-0.7-0.3-1.7-0.7-2.4c1.5,0.1,2.9,0.2,3.5,0.2c0.5,0,0.8-0.1,1.2-0.5
			c0.2-0.3,0.4-0.7,0.5-1.5h-17.8c0.4-1.9,0.8-4.4,1.2-7h-4.4v-2.7h4.9c0.3-2.4,0.6-4.8,0.8-6.9h19.3c0,0,0,1,0,1.3
			c-0.1,2.1-0.1,3.9-0.2,5.5h4.5v2.7H210z M192.9,311.2c-0.2,1.6-0.4,3.1-0.6,4.5h8.6c-1.3-1.1-3.2-2.4-4.9-3.2l1.3-1.3H192.9z
			 M193.8,304.3c-0.2,1.4-0.4,2.9-0.6,4.4h8.2c-1.3-1.1-3.2-2.2-4.8-3l1.4-1.3H193.8z M206.8,315.7c0.1-1.2,0.2-2.7,0.3-4.5h-8.9
			c1.9,0.9,3.9,2.3,5,3.3l-1.1,1.2H206.8z M207.2,308.7c0-1.3,0.1-2.8,0.1-4.4h-8.5c1.8,0.9,3.9,2.1,4.9,3.1l-1.2,1.2H207.2z"/>
		<path class="st6" d="M242.4,318.4c0,1.9-0.5,2.8-1.8,3.3c-1.3,0.5-3.5,0.6-6.8,0.6c-0.2-0.9-0.8-2.3-1.3-3.1
			c2.5,0.1,5.1,0.1,5.8,0.1c0.7,0,1-0.3,1-0.9v-5.6h-14.5c-0.8,3.6-2.4,7.1-5.5,9.7c-0.4-0.6-1.6-1.7-2.3-2.2
			c5-4.3,5.5-10.6,5.5-15.6v-10.1h19.9V318.4z M239.3,309.9v-4.7h-13.8c0,1.5-0.1,3.1-0.3,4.7H239.3z M225.5,297.6v4.7h13.8v-4.7
			H225.5z"/>
		<path class="st6" d="M260.9,300.1c-1.1,2.4-2.4,4.8-4,6.9v15.5h-3v-11.9c-1.1,1.1-2.2,2-3.4,2.8c-0.3-0.8-1-2.1-1.5-2.8
			c3.7-2.5,6.6-6.3,8.6-10.5H250v-2.8h8.8c0.5-1.4,1-2.8,1.3-4.2l3.1,0.7c-0.4,1.1-0.8,2.3-1.2,3.4H278v2.8H260.9z M278.5,314.1
			h-8.1v5.1c0,1.6-0.3,2.4-1.5,2.8c-1.2,0.4-3,0.5-5.6,0.4c-0.1-0.8-0.5-2-0.9-2.8c1.9,0.1,3.8,0.1,4.3,0.1c0.6,0,0.7-0.2,0.7-0.6
			v-5.1H259v-2.8h8.5v-2.4c1.3-0.8,2.8-1.9,4-3h-9.9v-2.7h12.6l0.6-0.2l1.9,1.5c-1.7,1.8-4,3.7-6.2,5.2v1.6h8.1V314.1z"/>
		<path class="st6" d="M284.6,317.8c6.9-6.1,10.5-10.7,10.5-14.6c0-2.6-1.4-4.3-4-4.3c-1.9,0-3.4,1.2-4.6,2.6l-2.1-2
			c2-2.2,4.1-3.5,7.2-3.5c4.3,0,7.1,2.8,7.1,7.1c0,4.5-3.6,9.3-8.6,14c1.2-0.1,2.7-0.2,3.8-0.2h5.9v3.1h-15.2V317.8z"/>
		<path class="st6" d="M302.9,308.1c0-8.2,3-12.1,7.6-12.1c4.6,0,7.6,4,7.6,12.1c0,8.2-3,12.3-7.6,12.3
			C305.9,320.4,302.9,316.3,302.9,308.1z M314.6,308.1c0-6.8-1.7-9.2-4.1-9.2c-2.4,0-4.1,2.5-4.1,9.2c0,6.8,1.7,9.4,4.1,9.4
			C313,317.4,314.6,314.9,314.6,308.1z"/>
		<path class="st6" d="M321.4,324.3c2.2-0.9,3.5-2.5,3.5-4.4c-0.1,0-0.2,0-0.4,0c-1.3,0-2.5-0.8-2.5-2.4c0-1.4,1.2-2.4,2.6-2.4
			c1.8,0,2.8,1.5,2.8,4c0,3.4-2,6-5.2,7.2L321.4,324.3z"/>
		<path class="st6" d="M330.7,308.1c0-8.2,3-12.1,7.6-12.1c4.6,0,7.6,4,7.6,12.1c0,8.2-3,12.3-7.6,12.3
			C333.7,320.4,330.7,316.3,330.7,308.1z M342.4,308.1c0-6.8-1.7-9.2-4.1-9.2c-2.4,0-4.1,2.5-4.1,9.2c0,6.8,1.7,9.4,4.1,9.4
			C340.7,317.4,342.4,314.9,342.4,308.1z"/>
		<path class="st6" d="M348.9,308.1c0-8.2,3-12.1,7.6-12.1c4.6,0,7.6,4,7.6,12.1c0,8.2-3,12.3-7.6,12.3
			C351.9,320.4,348.9,316.3,348.9,308.1z M360.7,308.1c0-6.8-1.7-9.2-4.1-9.2c-2.4,0-4.1,2.5-4.1,9.2c0,6.8,1.7,9.4,4.1,9.4
			C359,317.4,360.7,314.9,360.7,308.1z"/>
		<path class="st6" d="M367.2,308.1c0-8.2,3-12.1,7.6-12.1c4.6,0,7.6,4,7.6,12.1c0,8.2-3,12.3-7.6,12.3
			C370.2,320.4,367.2,316.3,367.2,308.1z M378.9,308.1c0-6.8-1.7-9.2-4.1-9.2c-2.4,0-4.1,2.5-4.1,9.2c0,6.8,1.7,9.4,4.1,9.4
			C377.2,317.4,378.9,314.9,378.9,308.1z"/>
		<path class="st6" d="M413.5,319.1c1.2,0,1.4-0.8,1.5-5.6c0.7,0.5,2,1.1,2.8,1.3c-0.3,5.5-1.1,7.1-4.1,7.1h-4.3c-3.2,0-4-1-4-4.1
			v-10.7H400c-0.6,6.8-2,12.3-9.5,15.3c-0.3-0.8-1.2-1.8-1.9-2.4c6.7-2.5,7.8-7.3,8.2-12.9h-7.7v-2.9h28.1v2.9h-8.7v10.7
			c0,1.2,0.2,1.3,1.3,1.3H413.5z M414.5,298.3h-22.5v-2.9h22.5V298.3z"/>
		<path class="st6" d="M195.6,353.7c-1,0.3-2.1,0.6-3.1,0.9v8.4c0,1.5-0.3,2.3-1.2,2.7c-0.9,0.5-2.3,0.5-4.5,0.5
			c-0.1-0.7-0.5-2-0.9-2.7c1.4,0,2.8,0,3.1,0c0.4,0,0.6-0.2,0.6-0.6v-7.5l-3.7,1l-0.8-2.8c1.3-0.3,2.8-0.7,4.5-1.1v-6.3h-4.1v-2.8
			h4.1v-6.2h2.9v6.2h3.7v2.8h-3.7v5.6l2.7-0.7L195.6,353.7z M212.6,351.7c-1.2,3.9-3.3,6.9-5.9,9.2c2.3,1.3,5,2.3,8,2.9
			c-0.6,0.6-1.4,1.9-1.9,2.8c-3.3-0.8-6.2-2-8.6-3.7c-2.7,1.7-5.8,2.9-9,3.7c-0.3-0.8-0.9-2.1-1.5-2.7c2.9-0.6,5.7-1.5,8.1-2.9
			c-2-1.9-3.6-4.2-4.9-6.8l0.8-0.3h-1.6V351h14.1l0.5-0.1L212.6,351.7z M201.8,341.8c0,3-0.9,6.5-5,8.6c-0.4-0.6-1.4-1.8-1.9-2.2
			c3.6-1.8,4.1-4.3,4.1-6.5v-3.5h10.5v7.2c0,0.9,0.1,1.2,0.6,1.2h2.1c0.5,0,1.2-0.1,1.7-0.2c0,0.8,0.1,1.8,0.2,2.5
			c-0.4,0.2-1.2,0.2-1.9,0.2h-2.4c-2.6,0-3.2-1.1-3.2-3.8V341h-4.9V341.8z M199.8,353.8c1.1,2.1,2.6,3.9,4.5,5.4
			c1.8-1.5,3.3-3.3,4.4-5.4H199.8z"/>
		<path class="st6" d="M237.3,341.9c0,0.2,0,0.5-0.1,0.8c1.7,1.8,5.2,2.8,9.4,3.1c-0.6,0.6-1.3,1.7-1.6,2.4
			c-3.6-0.5-6.6-1.7-8.6-3.5c-1.2,1.5-3.7,2.8-9.2,3.6c-0.3-0.7-1-1.7-1.5-2.2h-8.1v-2.3h9.3v2.1c6.9-0.9,7.7-2.7,7.7-4.1v-0.4h-2.7
			c-0.7,1.2-1.5,2.2-2.3,3c-0.5-0.4-1.6-1.2-2.2-1.5c1.7-1.4,3-3.7,3.7-5.9l2.7,0.6c-0.2,0.5-0.4,1.1-0.6,1.6h10l0.4-0.1l2,0.7
			c-0.8,1.7-1.9,3.6-2.8,4.7l-2.3-0.8c0.4-0.6,0.9-1.4,1.3-2.2h-4.4V341.9z M237.1,361.3c3.3,1.1,6.9,2.4,9,3.5l-2.7,1.6
			c-2-1.1-5.3-2.5-8.6-3.6l1.9-1.5h-9.6l2.7,1.2c-2.6,1.6-6.6,3.1-9.8,4c-0.5-0.6-1.6-1.7-2.2-2.2c3.3-0.6,7-1.7,9.2-3h-5.2v-12.9
			h20.9v12.9H237.1z M226.1,341.1h-7.8v-2.2h7.8V341.1z M224.7,352.1h15v-1.8h-15V352.1z M224.7,355.7h15v-1.8h-15V355.7z
			 M224.7,359.4h15v-1.9h-15V359.4z"/>
		<path class="st6" d="M254,358.2c-0.5,2.8-1.3,5.8-2.1,7.7c-0.6-0.3-1.8-0.7-2.6-0.9c0.9-1.9,1.6-4.8,2-7.3L254,358.2z
			 M260.5,356.3c-0.1-0.5-0.2-1.1-0.4-1.7c-7.8,1.2-9,1.5-9.7,1.9c-0.2-0.5-0.6-2-1-2.8c0.8-0.2,1.6-0.9,2.7-2
			c0.5-0.5,1.6-1.7,2.8-3.3c-3.5,0.4-4.3,0.6-4.7,0.8c-0.2-0.6-0.6-1.9-1-2.7c0.6-0.1,1.2-0.7,2-1.7c0.8-0.9,3.2-4.5,4.7-7.9
			l2.7,1.2c-1.5,2.8-3.4,5.7-5.3,8l3.4-0.3c0.9-1.2,1.8-2.6,2.5-3.9l2.5,1.6c-2.2,3.3-4.8,6.6-7.5,9.3l4.9-0.7
			c-0.3-0.9-0.6-1.9-1-2.7l2.4-0.6c0.9,2.1,1.8,4.9,2.1,6.6L260.5,356.3z M257.6,357.5c0.4,2.2,0.9,5.1,1.1,7l-2.5,0.7
			c-0.1-2-0.5-4.9-0.9-7.1L257.6,357.5z M261.3,356.7c0.8,1.9,1.7,4.3,2,6l-2.3,0.9c-0.4-1.6-1.2-4.1-1.9-6.1L261.3,356.7z
			 M277.7,342.9c0,0,0,1.1,0,1.5c-0.4,14-0.8,18.8-2,20.3c-0.8,1.1-1.6,1.4-2.8,1.5c-1.1,0.2-3,0.1-4.8,0c-0.1-0.8-0.4-2.1-1-2.9
			c2,0.2,3.7,0.2,4.5,0.2c0.6,0,1-0.1,1.3-0.5c0.9-1,1.3-5.6,1.7-17.3h-8.5c-0.8,1.7-1.6,3.2-2.5,4.5c-0.6-0.4-1.9-1.3-2.6-1.7
			c2.2-2.7,3.9-7,4.9-11.3l2.9,0.6c-0.4,1.8-1,3.5-1.6,5.2H277.7z M270.1,358.1c-1-1.9-3.3-4.9-5.5-6.9l2.1-1.5
			c2.1,2,4.6,4.8,5.6,6.7L270.1,358.1z"/>
		<path class="st6" d="M284.6,361.8c6.9-6.1,10.5-10.7,10.5-14.6c0-2.6-1.4-4.3-4-4.3c-1.9,0-3.4,1.2-4.6,2.6l-2.1-2
			c2-2.2,4.1-3.5,7.2-3.5c4.3,0,7.1,2.8,7.1,7.1c0,4.5-3.6,9.3-8.6,14c1.2-0.1,2.7-0.2,3.8-0.2h5.9v3.1h-15.2V361.8z"/>
		<path class="st6" d="M302.9,352.1c0-8.2,3-12.1,7.6-12.1c4.6,0,7.6,4,7.6,12.1c0,8.2-3,12.3-7.6,12.3
			C305.9,364.4,302.9,360.3,302.9,352.1z M314.6,352.1c0-6.8-1.7-9.2-4.1-9.2c-2.4,0-4.1,2.5-4.1,9.2c0,6.8,1.7,9.4,4.1,9.4
			C313,361.4,314.6,358.9,314.6,352.1z"/>
		<path class="st6" d="M353.3,359.4h-11.2v7.1H339v-7.1h-14.6v-2.9h5.2v-8.5h9.4v-4.4h-7.3c-1.4,2.4-3,4.5-4.6,6.1
			c-0.6-0.5-1.9-1.5-2.6-1.9c2.9-2.5,5.5-6.6,7-10.9l3,0.8c-0.4,1-0.8,2-1.2,3h18.5v2.9h-9.7v4.4h8.9v2.8h-8.9v5.7h11.2V359.4z
			 M339,356.5v-5.7h-6.4v5.7H339z"/>
		<path class="st6" d="M366.3,361c-2.1,1.8-5.2,3.7-7.7,4.9c-0.5-0.5-1.6-1.5-2.3-2c2.6-1,5.4-2.6,7.2-4.1L366.3,361z M372.5,358.6
			v4.9c0,1.4-0.3,2.1-1.4,2.6c-1.1,0.4-2.6,0.4-4.7,0.4c-0.2-0.8-0.6-2-1.1-2.7c1.5,0,3,0,3.5,0c0.4,0,0.6-0.1,0.6-0.4v-4.6
			c-8.3,0.4-9.6,0.5-10.7,0.8c-0.1-0.5-0.4-1.8-0.7-2.6c1.1-0.1,2.4-0.5,4.2-1.2c0.9-0.3,2.7-1,4.9-2c-5.2,0.4-6.2,0.5-6.8,0.7
			c-0.1-0.5-0.5-1.8-0.8-2.5c0.6-0.1,1.3-0.4,2.2-0.8c0.6-0.3,2.1-1,3.7-2h-6.2v-11.2h23.3v11.2h-12.8c-1.4,0.9-2.8,1.8-4.2,2.5
			l6.4-0.3c1.2-0.6,2.5-1.4,3.6-2.1l2.2,1.7c-3.7,2.1-7.5,3.9-11.2,5.3l11.3-0.4c-0.7-0.7-1.5-1.3-2.2-1.9l2.1-1.4
			c2.3,1.6,4.9,4.1,6.1,5.7l-2.2,1.7c-0.4-0.6-1-1.2-1.6-1.9L372.5,358.6z M362.1,342.6h7.2v-2.2h-7.2V342.6z M362.1,347h7.2v-2.2
			h-7.2V347z M379.7,340.4h-7.5v2.2h7.5V340.4z M379.7,344.8h-7.5v2.2h7.5V344.8z M376.8,359.8c2.6,1.2,6,3.1,7.7,4.4l-2.3,1.7
			c-1.6-1.3-5-3.3-7.6-4.6L376.8,359.8z"/>
		<path class="st6" d="M398.4,356.7c-0.4-0.8-1.4-2.2-2.3-3.5v13.2h-2.9v-12.7c-1.2,2.8-2.6,5.5-4,7.2c-0.3-0.8-1-2-1.5-2.8
			c2-2.2,4-6.1,5.2-9.6h-4.4v-2.8h4.6v-4.3c-1.4,0.3-2.8,0.4-4,0.6c-0.1-0.7-0.5-1.7-0.9-2.3c3.4-0.5,7.4-1.4,9.7-2.3l2,2.3
			c-1.2,0.4-2.5,0.8-3.9,1.2v4.9h3.2v-0.5h7.5v-1.4h-5.9V342h5.9v-1.4h-6.5v-1.9h6.5v-1.6h3v1.6h6.9v1.9h-6.9v1.4h6.2v1.9h-6.2v1.4
			h7.7v2h-18v1.4h-3.4v1.6c1.1,0.9,3.5,3.5,4.1,4.2L398.4,356.7z M415.8,361.4h-10.7l2.2,1.4c-1.9,1.5-5.1,3-7.6,3.8
			c-0.4-0.6-1.3-1.4-1.9-1.9c2.5-0.7,5.4-2.1,6.9-3.3h-3.4v-12.7h14.4V361.4z M413,350.5h-8.9v1.7h8.9V350.5z M413,354.1h-8.9v1.8
			h8.9V354.1z M413,357.7h-8.9v1.8h8.9V357.7z M411.8,361.4c2.1,1.2,4.6,2.7,6.1,3.7l-2.6,1.4c-1.2-1-3.5-2.5-5.4-3.7L411.8,361.4z"
			/>
		<path class="st6" d="M449.2,352.5h-12.8v14h-3.2v-14h-12.6v-2.9h12.6v-7.1c-3.4,0.4-6.9,0.8-10.1,1.1c-0.1-0.8-0.5-2-0.8-2.7
			c7.7-0.7,16.5-1.9,21.5-3.5l2.3,2.5c-2.8,0.8-6.2,1.5-9.8,2.1v7.5h12.8V352.5z"/>
		<path class="st6" d="M459.8,341.4h-6.9v-2.5h6.9v-1.8h2.9v1.8h3.6v2.5h-3.6v1.7h-2.9V341.4z M479.6,363.6c0,1.3-0.2,2-1.1,2.4
			c-0.9,0.4-2.2,0.4-4.1,0.4c-0.1-0.7-0.5-1.6-0.8-2.3l-0.6,0.2c-0.1-0.5-0.3-1.1-0.5-1.8c-4.9,0.3-9.9,0.6-13.4,0.8l-0.2-2.6
			c1.8-0.1,4-0.2,6.5-0.3v-3h-8.2v8.9h-2.9v-8.9h-1.2v-2.4h1.2v-1h2.9v1h8.2v-1.7h-9v-9.9h21.1v9.9h-9.3v1.7h11.4V363.6z
			 M459.3,347.5h6.1v-1.9h-6.1V347.5z M465.4,351.4v-1.9h-6.1v1.9H465.4z M480.9,338.9v2.5h-7.1v1.7h-2.9v-1.7h-3.5v-2.5h3.5v-1.8
			h2.9v1.8H480.9z M474.5,345.6h-6.3v1.9h6.3V345.6z M474.5,349.4h-6.3v1.9h6.3V349.4z M474,364c1.1,0,2,0,2.3,0
			c0.4,0,0.5-0.1,0.5-0.4v-6.1h-8.5v2.9l3.3-0.2c-0.4-0.6-0.7-1.2-1.1-1.8l2.2-0.6c1.2,1.8,2.5,4.1,2.9,5.8L474,364z"/>
		<path class="st6" d="M493.3,352.1c-0.7,3-1.8,6.1-3.1,8.6c0.5,0.3,1.1,0.8,1.9,1.3c2.2,1.3,5.1,1.5,8.8,1.5
			c3.9,0,9.3-0.3,12.8-0.7c-0.4,0.8-0.9,2.3-0.9,3.1c-2.5,0.2-8.3,0.4-12,0.4c-4.2,0-6.9-0.4-9.3-1.7c-1.3-0.7-2.4-1.9-3.1-1.9
			c-0.7,0-1.8,2.1-2.7,4l-2-2.8c1.3-1.7,2.7-3.1,3.8-3.6c0.9-1.7,1.7-3.9,2.2-6h-4.4c0.8-1.9,1.8-4.4,2.6-6.8h-3.8v-2.7h7.5
			c-0.7,2.2-1.7,4.8-2.5,6.9h2.3l0.4-0.1L493.3,352.1z M488,343.5c-0.4-1.4-1.2-3.6-1.7-5.2l2.7-0.7c0.6,1.6,1.3,3.7,1.8,5
			L488,343.5z M503.8,356.8c0,0.8,0,1.9,0.1,2.5c-6.9,1.7-8,2-8.7,2.5c-0.2-0.7-0.7-1.8-1.2-2.3c0.5-0.3,1.2-0.8,1.2-2.1v-19h1.9v0
			h13.2v12l0.2-0.2l2.3,1.8c-1.5,1.1-3.3,2.3-4.9,3.2c1.8,1.5,3.3,3,4.4,4.3l-2.2,1.7c-1.9-2.4-5.9-6.1-9.3-8.5l2-1.5
			c1,0.8,2.1,1.6,3.2,2.5c1.4-0.9,3-2.1,4.2-3.1h-12v7.5L503.8,356.8z M507.5,340.9h-9.3v2.4h9.3V340.9z M507.5,348v-2.5h-9.3v2.5
			H507.5z"/>
		<path class="st6" d="M526.9,338.2c-0.9,2.3-2.1,4.6-3.4,6.8v21.4h-2.9v-17.1c-1,1.3-2.1,2.6-3.3,3.6c-0.3-0.7-1.2-2.4-1.8-3.1
			c3.4-3,6.5-7.7,8.4-12.5L526.9,338.2z M538,347.9c1.9,4.8,5,9.6,8.2,12.2c-0.7,0.6-1.7,1.6-2.2,2.4c-2.8-2.7-5.5-7-7.5-11.7v15.6
			h-2.9v-14.8c-2,4.4-4.7,8.5-7.7,11.1c-0.5-0.7-1.5-1.8-2.2-2.4c3.4-2.6,6.6-7.5,8.5-12.5h-7.2V345h8.5v-7.4h2.9v7.4h8.8v2.9H538z"
			/>
		<path class="st6" d="M564.4,349.2v3.9h10.7v2.7h-10.7v7.1h12.3v2.7h-27.5v-2.7h12v-7.1h-10.6v-2.7h10.6v-3.9h-6.7v-1.7
			c-1.5,0.8-3,1.5-4.6,2c-0.4-0.9-1.2-2-2-2.8c6-1.8,11.8-5.3,14.8-10.1l2.8,1.2c-0.3,0.4-0.5,0.8-0.8,1.2c3.1,3.1,8.5,6.2,13.3,7.6
			c-0.7,0.6-1.6,1.8-2,2.6c-1.6-0.6-3.2-1.3-4.8-2.2v2H564.4z M555.5,356.1c1.2,1.7,2.5,4,3,5.5l-2.6,1.1c-0.4-1.5-1.7-3.9-2.8-5.7
			L555.5,356.1z M569.7,346.5c-2.5-1.5-4.9-3.3-6.8-5.2c-1.9,2-4,3.7-6.4,5.2H569.7z M566.8,361.8c1.1-1.5,2.4-4,3.1-5.7l2.9,1.1
			c-1.2,2-2.6,4.2-3.7,5.6L566.8,361.8z"/>
	</g>
</g>
<g>
	<path class="st1" d="M701.5,220.5h-460c-5.5,0-10-4.5-10-10v-100c0-5.5,4.5-10,10-10h460c5.5,0,10,4.5,10,10v100
		C711.5,216,707.1,220.5,701.5,220.5z"/>
	<g>
		<path class="st6" d="M282.8,128.8c-1.5,2.4-3.3,4.7-4.9,6.4c-0.6-0.5-1.9-1.4-2.7-1.8c2.9-2.5,5.7-6.6,7.3-10.5l3,0.9
			c-0.4,0.8-0.7,1.6-1.2,2.4h19.1v2.7H282.8z M300,141.3c-0.1,1.7-0.2,3.2-0.3,4.4h3.7v2.6h-4c-0.2,1.5-0.5,2.3-0.9,2.8
			c-0.6,0.9-1.4,1.2-2.4,1.3c-1,0.1-2.6,0.1-4.2,0c0-0.7-0.3-1.7-0.7-2.4c1.5,0.1,2.9,0.2,3.5,0.2c0.5,0,0.8-0.1,1.2-0.5
			c0.2-0.3,0.4-0.7,0.5-1.5h-17.8c0.4-1.9,0.8-4.4,1.2-7h-4.4v-2.7h4.9c0.3-2.4,0.6-4.8,0.8-6.9h19.3c0,0,0,1,0,1.3
			c-0.1,2.1-0.1,3.9-0.2,5.5h4.5v2.7H300z M282.9,141.2c-0.2,1.6-0.4,3.1-0.6,4.5h8.6c-1.3-1.1-3.2-2.4-4.9-3.2l1.3-1.3H282.9z
			 M283.8,134.3c-0.2,1.4-0.4,2.9-0.6,4.4h8.2c-1.3-1.1-3.2-2.2-4.8-3l1.4-1.3H283.8z M296.8,145.7c0.1-1.2,0.2-2.7,0.3-4.5h-8.9
			c1.9,0.9,3.9,2.3,5,3.3l-1.1,1.2H296.8z M297.2,138.7c0-1.3,0.1-2.8,0.1-4.4h-8.5c1.8,0.9,3.9,2.1,4.9,3.1l-1.2,1.2H297.2z"/>
		<path class="st6" d="M332.4,148.4c0,1.9-0.5,2.8-1.8,3.3c-1.3,0.5-3.5,0.6-6.8,0.6c-0.2-0.9-0.8-2.3-1.3-3.1
			c2.5,0.1,5.1,0.1,5.8,0.1c0.7,0,1-0.3,1-0.9v-5.6h-14.5c-0.8,3.6-2.4,7.1-5.5,9.7c-0.4-0.6-1.6-1.7-2.3-2.2
			c5-4.3,5.5-10.6,5.5-15.6v-10.1h19.9V148.4z M329.3,139.9v-4.7h-13.8c0,1.5-0.1,3.1-0.3,4.7H329.3z M315.5,127.6v4.7h13.8v-4.7
			H315.5z"/>
		<path class="st6" d="M350.9,130.1c-1.1,2.4-2.4,4.8-4,6.9v15.5h-3v-11.9c-1.1,1.1-2.2,2-3.4,2.8c-0.3-0.8-1-2.1-1.5-2.8
			c3.7-2.5,6.6-6.3,8.6-10.5H340v-2.8h8.8c0.5-1.4,1-2.8,1.3-4.2l3.1,0.7c-0.4,1.1-0.8,2.3-1.2,3.4H368v2.8H350.9z M368.5,144.1
			h-8.1v5.1c0,1.6-0.3,2.4-1.5,2.8c-1.2,0.4-3,0.5-5.6,0.4c-0.1-0.8-0.5-2-0.9-2.8c1.9,0.1,3.8,0.1,4.3,0.1c0.6,0,0.7-0.2,0.7-0.6
			v-5.1H349v-2.8h8.5v-2.4c1.3-0.8,2.8-1.9,4-3h-9.9v-2.7h12.6l0.6-0.2l1.9,1.5c-1.7,1.8-4,3.7-6.2,5.2v1.6h8.1V144.1z"/>
		<path class="st6" d="M375.9,146.9h5.2v-16.4h-4.2v-2.3c2.2-0.4,3.8-1,5.1-1.8h2.8v20.5h4.6v3h-13.4V146.9z"/>
		<path class="st6" d="M392.9,138.1c0-8.2,3-12.1,7.6-12.1c4.6,0,7.6,4,7.6,12.1c0,8.2-3,12.3-7.6,12.3
			C395.9,150.4,392.9,146.3,392.9,138.1z M404.6,138.1c0-6.8-1.7-9.2-4.1-9.2c-2.4,0-4.1,2.5-4.1,9.2c0,6.8,1.7,9.4,4.1,9.4
			C403,147.4,404.6,144.9,404.6,138.1z"/>
		<path class="st6" d="M411.4,154.3c2.2-0.9,3.5-2.5,3.5-4.4c-0.1,0-0.2,0-0.4,0c-1.3,0-2.5-0.8-2.5-2.4c0-1.4,1.2-2.4,2.6-2.4
			c1.8,0,2.8,1.5,2.8,4c0,3.4-2,6-5.2,7.2L411.4,154.3z"/>
		<path class="st6" d="M420.7,138.1c0-8.2,3-12.1,7.6-12.1c4.6,0,7.6,4,7.6,12.1c0,8.2-3,12.3-7.6,12.3
			C423.7,150.4,420.7,146.3,420.7,138.1z M432.4,138.1c0-6.8-1.7-9.2-4.1-9.2c-2.4,0-4.1,2.5-4.1,9.2c0,6.8,1.7,9.4,4.1,9.4
			C430.7,147.4,432.4,144.9,432.4,138.1z"/>
		<path class="st6" d="M438.9,138.1c0-8.2,3-12.1,7.6-12.1c4.6,0,7.6,4,7.6,12.1c0,8.2-3,12.3-7.6,12.3
			C441.9,150.4,438.9,146.3,438.9,138.1z M450.7,138.1c0-6.8-1.7-9.2-4.1-9.2c-2.4,0-4.1,2.5-4.1,9.2c0,6.8,1.7,9.4,4.1,9.4
			C449,147.4,450.7,144.9,450.7,138.1z"/>
		<path class="st6" d="M457.2,138.1c0-8.2,3-12.1,7.6-12.1c4.6,0,7.6,4,7.6,12.1c0,8.2-3,12.3-7.6,12.3
			C460.2,150.4,457.2,146.3,457.2,138.1z M468.9,138.1c0-6.8-1.7-9.2-4.1-9.2c-2.4,0-4.1,2.5-4.1,9.2c0,6.8,1.7,9.4,4.1,9.4
			C467.2,147.4,468.9,144.9,468.9,138.1z"/>
		<path class="st6" d="M503.5,149.1c1.2,0,1.4-0.8,1.5-5.6c0.7,0.5,2,1.1,2.8,1.3c-0.3,5.5-1.1,7.1-4.1,7.1h-4.3c-3.2,0-4-1-4-4.1
			v-10.7H490c-0.6,6.8-2,12.3-9.5,15.3c-0.3-0.8-1.2-1.8-1.9-2.4c6.7-2.5,7.8-7.3,8.2-12.9h-7.7v-2.9h28.1v2.9h-8.7v10.7
			c0,1.2,0.2,1.3,1.3,1.3H503.5z M504.5,128.3h-22.5v-2.9h22.5V128.3z"/>
		<path class="st6" d="M285.6,183.7c-1,0.3-2.1,0.6-3.1,0.9v8.4c0,1.5-0.3,2.3-1.2,2.7c-0.9,0.5-2.3,0.5-4.5,0.5
			c-0.1-0.7-0.5-2-0.9-2.7c1.4,0,2.8,0,3.1,0c0.4,0,0.6-0.2,0.6-0.6v-7.5l-3.7,1l-0.8-2.8c1.3-0.3,2.8-0.7,4.5-1.1v-6.3h-4.1v-2.8
			h4.1v-6.2h2.9v6.2h3.7v2.8h-3.7v5.6l2.7-0.7L285.6,183.7z M302.6,181.7c-1.2,3.9-3.3,6.9-5.9,9.2c2.3,1.3,5,2.3,8,2.9
			c-0.6,0.6-1.4,1.9-1.9,2.8c-3.3-0.8-6.2-2-8.6-3.7c-2.7,1.7-5.8,2.9-9,3.7c-0.3-0.8-0.9-2.1-1.5-2.7c2.9-0.6,5.7-1.5,8.1-2.9
			c-2-1.9-3.6-4.2-4.9-6.8l0.8-0.3h-1.6V181h14.1l0.5-0.1L302.6,181.7z M291.8,171.8c0,3-0.9,6.5-5,8.6c-0.4-0.6-1.4-1.8-1.9-2.2
			c3.6-1.8,4.1-4.3,4.1-6.5v-3.5h10.5v7.2c0,0.9,0.1,1.2,0.6,1.2h2.1c0.5,0,1.2-0.1,1.7-0.2c0,0.8,0.1,1.8,0.2,2.5
			c-0.4,0.2-1.2,0.2-1.9,0.2h-2.4c-2.6,0-3.2-1.1-3.2-3.8V171h-4.9V171.8z M289.8,183.8c1.1,2.1,2.6,3.9,4.5,5.4
			c1.8-1.5,3.3-3.3,4.4-5.4H289.8z"/>
		<path class="st6" d="M327.3,171.9c0,0.2,0,0.5-0.1,0.8c1.7,1.8,5.2,2.8,9.4,3.1c-0.6,0.6-1.3,1.7-1.6,2.4
			c-3.6-0.5-6.6-1.7-8.6-3.5c-1.2,1.5-3.7,2.8-9.2,3.6c-0.3-0.7-1-1.7-1.5-2.2h-8.1v-2.3h9.3v2.1c6.9-0.9,7.7-2.7,7.7-4.1v-0.4h-2.7
			c-0.7,1.2-1.5,2.2-2.3,3c-0.5-0.4-1.6-1.2-2.2-1.5c1.7-1.4,3-3.7,3.7-5.9l2.7,0.6c-0.2,0.5-0.4,1.1-0.6,1.6h10l0.4-0.1l2,0.7
			c-0.8,1.7-1.9,3.6-2.8,4.7l-2.3-0.8c0.4-0.6,0.9-1.4,1.3-2.2h-4.4V171.9z M327.1,191.3c3.3,1.1,6.9,2.4,9,3.5l-2.7,1.6
			c-2-1.1-5.3-2.5-8.6-3.6l1.9-1.5h-9.6l2.7,1.2c-2.6,1.6-6.6,3.1-9.8,4c-0.5-0.6-1.6-1.7-2.2-2.2c3.3-0.6,7-1.7,9.2-3h-5.2v-12.9
			h20.9v12.9H327.1z M316.1,171.1h-7.8v-2.2h7.8V171.1z M314.7,182.1h15v-1.8h-15V182.1z M314.7,185.7h15v-1.8h-15V185.7z
			 M314.7,189.4h15v-1.9h-15V189.4z"/>
		<path class="st6" d="M344,188.2c-0.5,2.8-1.3,5.8-2.1,7.7c-0.6-0.3-1.8-0.7-2.6-0.9c0.9-1.9,1.6-4.8,2-7.3L344,188.2z
			 M350.5,186.3c-0.1-0.5-0.2-1.1-0.4-1.7c-7.8,1.2-9,1.5-9.7,1.9c-0.2-0.5-0.6-2-1-2.8c0.8-0.2,1.6-0.9,2.7-2
			c0.5-0.5,1.6-1.7,2.8-3.3c-3.5,0.4-4.3,0.6-4.7,0.8c-0.2-0.6-0.6-1.9-1-2.7c0.6-0.1,1.2-0.7,2-1.7c0.8-0.9,3.2-4.5,4.7-7.9
			l2.7,1.2c-1.5,2.8-3.4,5.7-5.3,8l3.4-0.3c0.9-1.2,1.8-2.6,2.5-3.9l2.5,1.6c-2.2,3.3-4.8,6.6-7.5,9.3l4.9-0.7
			c-0.3-0.9-0.6-1.9-1-2.7l2.4-0.6c0.9,2.1,1.8,4.9,2.1,6.6L350.5,186.3z M347.6,187.5c0.4,2.2,0.9,5.1,1.1,7l-2.5,0.7
			c-0.1-2-0.5-4.9-0.9-7.1L347.6,187.5z M351.3,186.7c0.8,1.9,1.7,4.3,2,6l-2.3,0.9c-0.4-1.6-1.2-4.1-1.9-6.1L351.3,186.7z
			 M367.7,172.9c0,0,0,1.1,0,1.5c-0.4,14-0.8,18.8-2,20.3c-0.8,1.1-1.6,1.4-2.8,1.5c-1.1,0.2-3,0.1-4.8,0c-0.1-0.8-0.4-2.1-1-2.9
			c2,0.2,3.7,0.2,4.5,0.2c0.6,0,1-0.1,1.3-0.5c0.9-1,1.3-5.6,1.7-17.3h-8.5c-0.8,1.7-1.6,3.2-2.5,4.5c-0.6-0.4-1.9-1.3-2.6-1.7
			c2.2-2.7,3.9-7,4.9-11.3l2.9,0.6c-0.4,1.8-1,3.5-1.6,5.2H367.7z M360.1,188.1c-1-1.9-3.3-4.9-5.5-6.9l2.1-1.5
			c2.1,2,4.6,4.8,5.6,6.7L360.1,188.1z"/>
		<path class="st6" d="M374.1,191.1l1.8-2.4c1.4,1.4,3.1,2.6,5.6,2.6c2.7,0,4.5-1.5,4.5-3.9c0-2.6-1.7-4.3-7-4.3v-2.7
			c4.6,0,6.2-1.8,6.2-4.1c0-2.1-1.4-3.4-3.6-3.4c-1.8,0-3.4,0.9-4.7,2.2l-1.9-2.3c1.9-1.7,4-2.8,6.8-2.8c4.2,0,7.2,2.2,7.2,6.1
			c0,2.7-1.6,4.6-4.1,5.5v0.2c2.7,0.7,4.9,2.7,4.9,5.9c0,4.3-3.6,6.8-7.9,6.8C378.1,194.4,375.7,192.9,374.1,191.1z"/>
		<path class="st6" d="M392.9,182.1c0-8.2,3-12.1,7.6-12.1c4.6,0,7.6,4,7.6,12.1c0,8.2-3,12.3-7.6,12.3
			C395.9,194.4,392.9,190.3,392.9,182.1z M404.6,182.1c0-6.8-1.7-9.2-4.1-9.2c-2.4,0-4.1,2.5-4.1,9.2c0,6.8,1.7,9.4,4.1,9.4
			C403,191.4,404.6,188.9,404.6,182.1z"/>
		<path class="st6" d="M443.3,189.4h-11.2v7.1H429v-7.1h-14.6v-2.9h5.2v-8.5h9.4v-4.4h-7.3c-1.4,2.4-3,4.5-4.6,6.1
			c-0.6-0.5-1.9-1.5-2.6-1.9c2.9-2.5,5.5-6.6,7-10.9l3,0.8c-0.4,1-0.8,2-1.2,3h18.5v2.9h-9.7v4.4h8.9v2.8h-8.9v5.7h11.2V189.4z
			 M429,186.5v-5.7h-6.4v5.7H429z"/>
		<path class="st6" d="M456.3,191c-2.1,1.8-5.2,3.7-7.7,4.9c-0.5-0.5-1.6-1.5-2.3-2c2.6-1,5.4-2.6,7.2-4.1L456.3,191z M462.5,188.6
			v4.9c0,1.4-0.3,2.1-1.4,2.6c-1.1,0.4-2.6,0.4-4.7,0.4c-0.2-0.8-0.6-2-1.1-2.7c1.5,0,3,0,3.5,0c0.4,0,0.6-0.1,0.6-0.4v-4.6
			c-8.3,0.4-9.6,0.5-10.7,0.8c-0.1-0.5-0.4-1.8-0.7-2.6c1.1-0.1,2.4-0.5,4.2-1.2c0.9-0.3,2.7-1,4.9-2c-5.2,0.4-6.2,0.5-6.8,0.7
			c-0.1-0.5-0.5-1.8-0.8-2.5c0.6-0.1,1.3-0.4,2.2-0.8c0.6-0.3,2.1-1,3.7-2h-6.2v-11.2h23.3v11.2h-12.8c-1.4,0.9-2.8,1.8-4.2,2.5
			l6.4-0.3c1.2-0.6,2.5-1.4,3.7-2.1l2.2,1.7c-3.7,2.1-7.5,3.9-11.2,5.3l11.3-0.4c-0.7-0.7-1.5-1.3-2.2-1.9l2.1-1.4
			c2.3,1.6,4.9,4.1,6.1,5.7l-2.2,1.7c-0.4-0.6-1-1.2-1.6-1.9L462.5,188.6z M452.1,172.6h7.2v-2.2h-7.2V172.6z M452.1,177h7.2v-2.2
			h-7.2V177z M469.7,170.4h-7.5v2.2h7.5V170.4z M469.7,174.8h-7.5v2.2h7.5V174.8z M466.8,189.8c2.6,1.2,6,3.1,7.7,4.4l-2.3,1.7
			c-1.6-1.3-5-3.3-7.6-4.6L466.8,189.8z"/>
		<path class="st6" d="M488.4,186.7c-0.4-0.8-1.4-2.2-2.3-3.5v13.2h-2.9v-12.7c-1.2,2.8-2.6,5.5-4,7.2c-0.3-0.8-1-2-1.5-2.8
			c2-2.2,4-6.1,5.2-9.6h-4.4v-2.8h4.6v-4.3c-1.4,0.3-2.8,0.4-4,0.6c-0.1-0.7-0.5-1.7-0.9-2.3c3.4-0.5,7.4-1.4,9.7-2.3l2,2.3
			c-1.2,0.4-2.5,0.8-3.9,1.2v4.9h3.2v-0.5h7.5v-1.4h-5.9V172h5.9v-1.4h-6.5v-1.9h6.5v-1.6h3v1.6h6.9v1.9h-6.9v1.4h6.2v1.9h-6.2v1.4
			h7.7v2h-18v1.4h-3.4v1.6c1.1,0.9,3.5,3.5,4.1,4.2L488.4,186.7z M505.8,191.4h-10.7l2.2,1.4c-1.9,1.5-5.1,3-7.6,3.8
			c-0.4-0.6-1.3-1.4-1.9-1.9c2.5-0.7,5.4-2.1,6.9-3.3h-3.4v-12.7h14.4V191.4z M503,180.5h-8.9v1.7h8.9V180.5z M503,184.1h-8.9v1.8
			h8.9V184.1z M503,187.7h-8.9v1.8h8.9V187.7z M501.8,191.4c2.1,1.2,4.6,2.7,6.1,3.7l-2.6,1.4c-1.2-1-3.5-2.5-5.4-3.7L501.8,191.4z"
			/>
		<path class="st6" d="M539.2,182.5h-12.8v14h-3.2v-14h-12.6v-2.9h12.6v-7.1c-3.4,0.4-6.9,0.8-10.1,1.1c-0.1-0.8-0.5-2-0.8-2.7
			c7.7-0.7,16.5-1.9,21.5-3.5l2.3,2.5c-2.8,0.8-6.2,1.5-9.8,2.1v7.5h12.8V182.5z"/>
		<path class="st6" d="M549.8,171.4h-6.9v-2.5h6.9v-1.8h2.9v1.8h3.6v2.5h-3.6v1.7h-2.9V171.4z M569.6,193.6c0,1.3-0.2,2-1.1,2.4
			c-0.9,0.4-2.2,0.4-4.1,0.4c-0.1-0.7-0.5-1.6-0.8-2.3l-0.6,0.2c-0.1-0.5-0.3-1.1-0.5-1.8c-4.9,0.3-9.9,0.6-13.4,0.8l-0.2-2.6
			c1.8-0.1,4-0.2,6.5-0.3v-3h-8.2v8.9h-2.9v-8.9h-1.2v-2.4h1.2v-1h2.9v1h8.2v-1.7h-9v-9.9h21.1v9.9h-9.3v1.7h11.4V193.6z
			 M549.3,177.5h6.1v-1.9h-6.1V177.5z M555.4,181.4v-1.9h-6.1v1.9H555.4z M570.9,168.9v2.5h-7.1v1.7h-2.9v-1.7h-3.5v-2.5h3.5v-1.8
			h2.9v1.8H570.9z M564.5,175.6h-6.3v1.9h6.3V175.6z M564.5,179.4h-6.3v1.9h6.3V179.4z M564,194c1.1,0,2,0,2.3,0
			c0.4,0,0.5-0.1,0.5-0.4v-6.1h-8.5v2.9l3.3-0.2c-0.4-0.6-0.7-1.2-1.1-1.8l2.2-0.6c1.2,1.8,2.5,4.1,2.9,5.8L564,194z"/>
		<path class="st6" d="M583.3,182.1c-0.7,3-1.8,6.1-3.1,8.6c0.5,0.3,1.1,0.8,1.9,1.3c2.2,1.3,5.1,1.5,8.8,1.5
			c3.9,0,9.3-0.3,12.8-0.7c-0.4,0.8-0.9,2.3-0.9,3.1c-2.5,0.2-8.3,0.4-12,0.4c-4.2,0-6.9-0.4-9.3-1.7c-1.3-0.7-2.4-1.9-3.1-1.9
			c-0.7,0-1.8,2.1-2.7,4l-2-2.8c1.3-1.7,2.7-3.1,3.8-3.6c0.9-1.7,1.7-3.9,2.2-6h-4.4c0.8-1.9,1.8-4.4,2.6-6.8h-3.8v-2.7h7.5
			c-0.7,2.2-1.7,4.8-2.5,6.9h2.3l0.4-0.1L583.3,182.1z M578,173.5c-0.4-1.4-1.2-3.6-1.7-5.2l2.7-0.7c0.6,1.6,1.3,3.7,1.8,5
			L578,173.5z M593.8,186.8c0,0.8,0,1.9,0.1,2.5c-6.9,1.7-8,2-8.7,2.5c-0.2-0.7-0.7-1.8-1.2-2.3c0.5-0.3,1.2-0.8,1.2-2.1v-19h1.9v0
			h13.2v12l0.2-0.2l2.3,1.8c-1.5,1.1-3.3,2.3-4.9,3.2c1.8,1.5,3.3,3,4.4,4.3l-2.2,1.7c-1.9-2.4-5.9-6.1-9.3-8.5l2-1.5
			c1,0.8,2.1,1.6,3.2,2.5c1.4-0.9,3-2.1,4.2-3.1h-12v7.5L593.8,186.8z M597.5,170.9h-9.3v2.4h9.3V170.9z M597.5,178v-2.5h-9.3v2.5
			H597.5z"/>
		<path class="st6" d="M616.9,168.2c-0.9,2.3-2.1,4.6-3.4,6.8v21.4h-2.9v-17.1c-1,1.3-2.1,2.6-3.3,3.6c-0.3-0.7-1.2-2.4-1.8-3.1
			c3.4-3,6.5-7.7,8.4-12.5L616.9,168.2z M628,177.9c1.9,4.8,5,9.6,8.2,12.2c-0.7,0.6-1.7,1.6-2.2,2.4c-2.8-2.7-5.5-7-7.5-11.7v15.6
			h-2.9v-14.8c-2,4.4-4.7,8.5-7.7,11.1c-0.5-0.7-1.5-1.8-2.2-2.4c3.4-2.6,6.6-7.5,8.5-12.5h-7.2V175h8.5v-7.4h2.9v7.4h8.8v2.9H628z"
			/>
		<path class="st6" d="M654.4,179.2v3.9h10.7v2.7h-10.7v7.1h12.3v2.7h-27.5v-2.7h12v-7.1h-10.6v-2.7h10.6v-3.9h-6.7v-1.7
			c-1.5,0.8-3,1.5-4.6,2c-0.4-0.9-1.2-2-2-2.8c6-1.8,11.8-5.3,14.8-10.1l2.8,1.2c-0.3,0.4-0.5,0.8-0.8,1.2c3.1,3.1,8.5,6.2,13.3,7.6
			c-0.7,0.6-1.6,1.8-2,2.6c-1.6-0.6-3.2-1.3-4.8-2.2v2H654.4z M645.5,186.1c1.2,1.7,2.5,4,3,5.5l-2.6,1.1c-0.4-1.5-1.7-3.9-2.8-5.7
			L645.5,186.1z M659.7,176.5c-2.5-1.5-4.9-3.3-6.8-5.2c-1.9,2-4,3.7-6.4,5.2H659.7z M656.8,191.8c1.1-1.5,2.4-4,3.1-5.7l2.9,1.1
			c-1.2,2-2.6,4.2-3.7,5.6L656.8,191.8z"/>
	</g>
</g>
<path class="st3" d="M422.8,698.3c-0.2,0-0.4-0.1-0.6-0.2c-0.5-0.3-0.6-0.9-0.2-1.4l0.6-0.8c0.3-0.5,0.9-0.6,1.4-0.2
	c0.5,0.3,0.6,0.9,0.2,1.4l-0.6,0.8C423.4,698.1,423.1,698.3,422.8,698.3z M428,691c-0.2,0-0.4-0.1-0.6-0.2c-0.5-0.3-0.6-0.9-0.2-1.4
	l1.2-1.6c0.3-0.5,0.9-0.6,1.4-0.2c0.5,0.3,0.6,0.9,0.2,1.4l-1.2,1.6C428.6,690.8,428.3,691,428,691z M433.8,682.8
	c-0.2,0-0.4-0.1-0.6-0.2c-0.4-0.3-0.6-0.9-0.2-1.4l1.2-1.6c0.3-0.5,0.9-0.6,1.4-0.2s0.6,0.9,0.2,1.4l-1.2,1.6
	C434.4,682.6,434.1,682.8,433.8,682.8z M439.5,674.6c-0.2,0-0.4-0.1-0.6-0.2c-0.5-0.3-0.6-0.9-0.2-1.4l1.2-1.6
	c0.3-0.5,0.9-0.6,1.4-0.2c0.5,0.3,0.6,0.9,0.2,1.4l-1.2,1.6C440.2,674.5,439.9,674.6,439.5,674.6z M445.3,666.5
	c-0.2,0-0.4-0.1-0.6-0.2c-0.5-0.3-0.6-0.9-0.2-1.4l1.2-1.6c0.3-0.5,0.9-0.6,1.4-0.2c0.5,0.3,0.6,0.9,0.2,1.4l-1.2,1.6
	C445.9,666.3,445.6,666.5,445.3,666.5z M451.1,658.3c-0.2,0-0.4-0.1-0.6-0.2c-0.5-0.3-0.6-0.9-0.2-1.4l1.2-1.6
	c0.3-0.5,0.9-0.6,1.4-0.2c0.5,0.3,0.6,0.9,0.2,1.4l-1.2,1.6C451.7,658.2,451.4,658.3,451.1,658.3z M456.9,650.2
	c-0.2,0-0.4-0.1-0.6-0.2c-0.5-0.3-0.6-0.9-0.2-1.4l1.2-1.6c0.3-0.5,0.9-0.6,1.4-0.2c0.5,0.3,0.6,0.9,0.2,1.4l-1.2,1.6
	C457.5,650,457.2,650.2,456.9,650.2z M462.7,642c-0.2,0-0.4-0.1-0.6-0.2c-0.5-0.3-0.6-0.9-0.2-1.4l1.2-1.6c0.3-0.5,0.9-0.6,1.4-0.2
	c0.5,0.3,0.6,0.9,0.2,1.4l-1.2,1.6C463.3,641.8,463,642,462.7,642z M468.4,633.8c-0.2,0-0.4-0.1-0.6-0.2c-0.5-0.3-0.6-0.9-0.2-1.4
	l1.2-1.6c0.3-0.5,0.9-0.6,1.4-0.2c0.5,0.3,0.6,0.9,0.2,1.4l-1.2,1.6C469.1,633.7,468.8,633.8,468.4,633.8z M474.2,625.7
	c-0.2,0-0.4-0.1-0.6-0.2c-0.5-0.3-0.6-0.9-0.2-1.4l1.2-1.6c0.3-0.5,0.9-0.6,1.4-0.2c0.5,0.3,0.6,0.9,0.2,1.4l-1.2,1.6
	C474.8,625.5,474.5,625.7,474.2,625.7z M480,617.5c-0.2,0-0.4-0.1-0.6-0.2c-0.5-0.3-0.6-0.9-0.2-1.4l1.2-1.6
	c0.3-0.5,0.9-0.6,1.4-0.2c0.5,0.3,0.6,0.9,0.2,1.4l-1.2,1.6C480.6,617.4,480.3,617.5,480,617.5z M485.8,609.3
	c-0.2,0-0.4-0.1-0.6-0.2c-0.5-0.3-0.6-0.9-0.2-1.4l1.2-1.6c0.3-0.5,0.9-0.6,1.4-0.2c0.5,0.3,0.6,0.9,0.2,1.4l-1.2,1.6
	C486.4,609.2,486.1,609.3,485.8,609.3z M491.6,601.2c-0.2,0-0.4-0.1-0.6-0.2c-0.5-0.3-0.6-0.9-0.2-1.4l1.2-1.6
	c0.3-0.5,0.9-0.6,1.4-0.2c0.5,0.3,0.6,0.9,0.2,1.4l-1.2,1.6C492.2,601,491.9,601.2,491.6,601.2z M497.3,593c-0.2,0-0.4-0.1-0.6-0.2
	c-0.5-0.3-0.6-0.9-0.2-1.4l1.2-1.6c0.3-0.5,0.9-0.6,1.4-0.2c0.5,0.3,0.6,0.9,0.2,1.4l-1.2,1.6C498,592.9,497.7,593,497.3,593z
	 M503.1,584.9c-0.2,0-0.4-0.1-0.6-0.2c-0.5-0.3-0.6-0.9-0.2-1.4l1.2-1.6c0.3-0.5,0.9-0.6,1.4-0.2c0.5,0.3,0.6,0.9,0.2,1.4l-1.2,1.6
	C503.7,584.7,503.4,584.9,503.1,584.9z M508.9,576.7c-0.2,0-0.4-0.1-0.6-0.2c-0.5-0.3-0.6-0.9-0.2-1.4l1.2-1.6
	c0.3-0.5,0.9-0.6,1.4-0.2c0.5,0.3,0.6,0.9,0.2,1.4l-1.2,1.6C509.5,576.6,509.2,576.7,508.9,576.7z M514.7,568.5
	c-0.2,0-0.4-0.1-0.6-0.2c-0.5-0.3-0.6-0.9-0.2-1.4l1.2-1.6c0.3-0.5,0.9-0.6,1.4-0.2c0.5,0.3,0.6,0.9,0.2,1.4l-1.2,1.6
	C515.3,568.4,515,568.5,514.7,568.5z M520.5,560.4c-0.2,0-0.4-0.1-0.6-0.2c-0.5-0.3-0.6-0.9-0.2-1.4l1.2-1.6
	c0.3-0.5,0.9-0.6,1.4-0.2c0.5,0.3,0.6,0.9,0.2,1.4l-1.2,1.6C521.1,560.2,520.8,560.4,520.5,560.4z"/>
<path class="st2" d="M504.4,698.9c-0.1,0-0.2,0-0.3-0.1c-0.5-0.2-0.8-0.8-0.6-1.3l0.2-0.5c0.2-0.5,0.8-0.8,1.3-0.6
	c0.5,0.2,0.8,0.8,0.6,1.3l-0.2,0.5C505.2,698.6,504.9,698.9,504.4,698.9z M507.3,690.9c-0.1,0-0.2,0-0.3-0.1
	c-0.5-0.2-0.8-0.8-0.6-1.3l0.7-1.9c0.2-0.5,0.8-0.8,1.3-0.6c0.5,0.2,0.8,0.8,0.6,1.3l-0.7,1.9C508.1,690.6,507.7,690.9,507.3,690.9z
	 M510.6,681.4c-0.1,0-0.2,0-0.3-0.1c-0.5-0.2-0.8-0.8-0.6-1.3l0.7-1.9c0.2-0.5,0.8-0.8,1.3-0.6s0.8,0.8,0.6,1.3l-0.7,1.9
	C511.4,681.2,511,681.4,510.6,681.4z M513.9,672c-0.1,0-0.2,0-0.3-0.1c-0.5-0.2-0.8-0.8-0.6-1.3l0.7-1.9c0.2-0.5,0.8-0.8,1.3-0.6
	c0.5,0.2,0.8,0.8,0.6,1.3l-0.7,1.9C514.7,671.7,514.3,672,513.9,672z M517.2,662.6c-0.1,0-0.2,0-0.3-0.1c-0.5-0.2-0.8-0.8-0.6-1.3
	l0.7-1.9c0.2-0.5,0.8-0.8,1.3-0.6c0.5,0.2,0.8,0.8,0.6,1.3l-0.7,1.9C518,662.3,517.6,662.6,517.2,662.6z M520.5,653.1
	c-0.1,0-0.2,0-0.3-0.1c-0.5-0.2-0.8-0.8-0.6-1.3l0.7-1.9c0.2-0.5,0.8-0.8,1.3-0.6c0.5,0.2,0.8,0.8,0.6,1.3l-0.7,1.9
	C521.3,652.9,520.9,653.1,520.5,653.1z M523.8,643.7c-0.1,0-0.2,0-0.3-0.1c-0.5-0.2-0.8-0.8-0.6-1.3l0.7-1.9
	c0.2-0.5,0.8-0.8,1.3-0.6c0.5,0.2,0.8,0.8,0.6,1.3l-0.7,1.9C524.6,643.4,524.3,643.7,523.8,643.7z M527.2,634.3
	c-0.1,0-0.2,0-0.3-0.1c-0.5-0.2-0.8-0.8-0.6-1.3l0.7-1.9c0.2-0.5,0.8-0.8,1.3-0.6c0.5,0.2,0.8,0.8,0.6,1.3l-0.7,1.9
	C528,634,527.6,634.3,527.2,634.3z M530.5,624.8c-0.1,0-0.2,0-0.3-0.1c-0.5-0.2-0.8-0.8-0.6-1.3l0.7-1.9c0.2-0.5,0.8-0.8,1.3-0.6
	c0.5,0.2,0.8,0.8,0.6,1.3l-0.7,1.9C531.3,624.6,530.9,624.8,530.5,624.8z M533.8,615.4c-0.1,0-0.2,0-0.3-0.1
	c-0.5-0.2-0.8-0.8-0.6-1.3l0.7-1.9c0.2-0.5,0.7-0.8,1.3-0.6c0.5,0.2,0.8,0.8,0.6,1.3l-0.7,1.9C534.6,615.1,534.2,615.4,533.8,615.4z
	 M537.1,606c-0.1,0-0.2,0-0.3-0.1c-0.5-0.2-0.8-0.8-0.6-1.3l0.7-1.9c0.2-0.5,0.7-0.8,1.3-0.6c0.5,0.2,0.8,0.8,0.6,1.3l-0.7,1.9
	C537.9,605.7,537.5,606,537.1,606z M540.4,596.5c-0.1,0-0.2,0-0.3-0.1c-0.5-0.2-0.8-0.8-0.6-1.3l0.7-1.9c0.2-0.5,0.7-0.8,1.3-0.6
	c0.5,0.2,0.8,0.8,0.6,1.3l-0.7,1.9C541.2,596.3,540.8,596.5,540.4,596.5z M543.7,587.1c-0.1,0-0.2,0-0.3-0.1
	c-0.5-0.2-0.8-0.8-0.6-1.3l0.7-1.9c0.2-0.5,0.7-0.8,1.3-0.6c0.5,0.2,0.8,0.8,0.6,1.3l-0.7,1.9C544.5,586.8,544.2,587.1,543.7,587.1z
	 M547.1,577.7c-0.1,0-0.2,0-0.3-0.1c-0.5-0.2-0.8-0.8-0.6-1.3l0.7-1.9c0.2-0.5,0.7-0.8,1.3-0.6c0.5,0.2,0.8,0.8,0.6,1.3L548,577
	C547.9,577.4,547.5,577.7,547.1,577.7z M550.4,568.2c-0.1,0-0.2,0-0.3-0.1c-0.5-0.2-0.8-0.8-0.6-1.3l0.7-1.9
	c0.2-0.5,0.7-0.8,1.3-0.6c0.5,0.2,0.8,0.8,0.6,1.3l-0.7,1.9C551.2,568,550.8,568.2,550.4,568.2z M553.7,558.8c-0.1,0-0.2,0-0.3-0.1
	c-0.5-0.2-0.8-0.8-0.6-1.3l0.7-1.9c0.2-0.5,0.8-0.8,1.3-0.6c0.5,0.2,0.8,0.8,0.6,1.3l-0.7,1.9C554.5,558.5,554.1,558.8,553.7,558.8z
	 M557,549.4c-0.1,0-0.2,0-0.3-0.1c-0.5-0.2-0.8-0.8-0.6-1.3l0.7-1.9c0.2-0.5,0.8-0.8,1.3-0.6c0.5,0.2,0.8,0.8,0.6,1.3l-0.7,1.9
	C557.8,549.1,557.4,549.4,557,549.4z M560.3,539.9c-0.1,0-0.2,0-0.3-0.1c-0.5-0.2-0.8-0.8-0.6-1.3l0.7-1.9c0.2-0.5,0.8-0.8,1.3-0.6
	c0.5,0.2,0.8,0.8,0.6,1.3l-0.7,1.9C561.1,539.7,560.7,539.9,560.3,539.9z M563.6,530.5c-0.1,0-0.2,0-0.3-0.1
	c-0.5-0.2-0.8-0.8-0.6-1.3l0.7-1.9c0.2-0.5,0.8-0.8,1.3-0.6c0.5,0.2,0.8,0.8,0.6,1.3l-0.7,1.9C564.4,530.2,564.1,530.5,563.6,530.5z
	 M567,521.1c-0.1,0-0.2,0-0.3-0.1c-0.5-0.2-0.8-0.8-0.6-1.3l0.7-1.9c0.2-0.5,0.8-0.8,1.3-0.6c0.5,0.2,0.8,0.8,0.6,1.3l-0.7,1.9
	C567.8,520.8,567.4,521.1,567,521.1z M570.3,511.6c-0.1,0-0.2,0-0.3-0.1c-0.5-0.2-0.8-0.8-0.6-1.3l0.7-1.9c0.2-0.5,0.8-0.8,1.3-0.6
	c0.5,0.2,0.8,0.8,0.6,1.3l-0.7,1.9C571.1,511.4,570.7,511.6,570.3,511.6z M573.6,502.2c-0.1,0-0.2,0-0.3-0.1
	c-0.5-0.2-0.8-0.8-0.6-1.3l0.7-1.9c0.2-0.5,0.8-0.8,1.3-0.6c0.5,0.2,0.8,0.8,0.6,1.3l-0.7,1.9C574.4,501.9,574,502.2,573.6,502.2z
	 M576.9,492.8c-0.1,0-0.2,0-0.3-0.1c-0.5-0.2-0.8-0.8-0.6-1.3l0.7-1.9c0.2-0.5,0.8-0.8,1.3-0.6c0.5,0.2,0.8,0.8,0.6,1.3l-0.7,1.9
	C577.7,492.5,577.3,492.8,576.9,492.8z M580.2,483.3c-0.1,0-0.2,0-0.3-0.1c-0.5-0.2-0.8-0.8-0.6-1.3l0.7-1.9
	c0.2-0.5,0.8-0.8,1.3-0.6c0.5,0.2,0.8,0.8,0.6,1.3l-0.7,1.9C581,483.1,580.6,483.3,580.2,483.3z M583.5,473.9c-0.1,0-0.2,0-0.3-0.1
	c-0.5-0.2-0.8-0.8-0.6-1.3l0.7-1.9c0.2-0.5,0.8-0.8,1.3-0.6c0.5,0.2,0.8,0.8,0.6,1.3l-0.7,1.9C584.3,473.6,584,473.9,583.5,473.9z
	 M586.9,464.5c-0.1,0-0.2,0-0.3-0.1c-0.5-0.2-0.8-0.8-0.6-1.3l0.7-1.9c0.2-0.5,0.7-0.8,1.3-0.6c0.5,0.2,0.8,0.8,0.6,1.3l-0.7,1.9
	C587.7,464.2,587.3,464.5,586.9,464.5z M590.2,455c-0.1,0-0.2,0-0.3-0.1c-0.5-0.2-0.8-0.8-0.6-1.3l0.7-1.9c0.2-0.5,0.7-0.8,1.3-0.6
	c0.5,0.2,0.8,0.8,0.6,1.3l-0.7,1.9C591,454.8,590.6,455,590.2,455z M593.5,445.6c-0.1,0-0.2,0-0.3-0.1c-0.5-0.2-0.8-0.8-0.6-1.3
	l0.7-1.9c0.2-0.5,0.7-0.8,1.3-0.6c0.5,0.2,0.8,0.8,0.6,1.3l-0.7,1.9C594.3,445.3,593.9,445.6,593.5,445.6z M596.8,436.1
	c-0.1,0-0.2,0-0.3-0.1c-0.5-0.2-0.8-0.8-0.6-1.3l0.7-1.9c0.2-0.5,0.7-0.8,1.3-0.6c0.5,0.2,0.8,0.8,0.6,1.3l-0.7,1.9
	C597.6,435.9,597.2,436.1,596.8,436.1z M600.1,426.7c-0.1,0-0.2,0-0.3-0.1c-0.5-0.2-0.8-0.8-0.6-1.3l0.7-1.9
	c0.2-0.5,0.7-0.8,1.3-0.6c0.5,0.2,0.8,0.8,0.6,1.3l-0.7,1.9C600.9,426.5,600.5,426.7,600.1,426.7z M603.4,417.3
	c-0.1,0-0.2,0-0.3-0.1c-0.5-0.2-0.8-0.8-0.6-1.3l0.7-1.9c0.2-0.5,0.7-0.8,1.3-0.6c0.5,0.2,0.8,0.8,0.6,1.3l-0.7,1.9
	C604.2,417,603.8,417.3,603.4,417.3z M606.8,407.8c-0.1,0-0.2,0-0.3-0.1c-0.5-0.2-0.8-0.8-0.6-1.3l0.7-1.9c0.2-0.5,0.7-0.8,1.3-0.6
	c0.5,0.2,0.8,0.8,0.6,1.3l-0.7,1.9C607.6,407.6,607.2,407.8,606.8,407.8z M610.1,398.4c-0.1,0-0.2,0-0.3-0.1
	c-0.5-0.2-0.8-0.8-0.6-1.3l0.7-1.9c0.2-0.5,0.8-0.8,1.3-0.6c0.5,0.2,0.8,0.8,0.6,1.3l-0.7,1.9C610.9,398.2,610.5,398.4,610.1,398.4z
	 M613.4,389c-0.1,0-0.2,0-0.3-0.1c-0.5-0.2-0.8-0.8-0.6-1.3l0.7-1.9c0.2-0.5,0.8-0.8,1.3-0.6c0.5,0.2,0.8,0.8,0.6,1.3l-0.7,1.9
	C614.2,388.7,613.8,389,613.4,389z"/>
<path class="st1" d="M666.8,698.3C666.7,698.3,666.7,698.3,666.8,698.3c-0.6,0-1-0.5-1-1.1l0.2-2c0-0.5,0.5-1,1.1-0.9
	c0.6,0,1,0.5,0.9,1.1l-0.2,2C667.7,697.9,667.3,698.3,666.8,698.3z M667.5,688.3C667.5,688.3,667.5,688.3,667.5,688.3
	c-0.6,0-1-0.5-1-1.1l0.2-2c0-0.5,0.5-1,1.1-0.9c0.6,0,1,0.5,0.9,1.1l-0.2,2C668.5,687.9,668,688.3,667.5,688.3z M668.3,678.3
	C668.2,678.3,668.2,678.3,668.3,678.3c-0.6,0-1-0.5-1-1.1l0.2-2c0-0.6,0.5-1,1.1-0.9c0.5,0,1,0.5,0.9,1.1l-0.2,2
	C669.2,677.9,668.8,678.3,668.3,678.3z M669,668.4C669,668.4,669,668.4,669,668.4c-0.6,0-1-0.5-1-1.1l0.2-2c0-0.6,0.6-1,1.1-0.9
	c0.6,0,1,0.5,0.9,1.1l-0.2,2C670,668,669.5,668.4,669,668.4z M669.8,658.4C669.8,658.4,669.7,658.4,669.8,658.4c-0.6,0-1-0.5-1-1.1
	l0.2-2c0-0.6,0.6-1,1.1-0.9c0.6,0,1,0.5,0.9,1.1l-0.2,2C670.7,658,670.3,658.4,669.8,658.4z M670.5,648.4
	C670.5,648.4,670.5,648.4,670.5,648.4c-0.6,0-1-0.5-1-1.1l0.2-2c0-0.6,0.6-0.9,1.1-0.9c0.6,0,1,0.5,0.9,1.1l-0.2,2
	C671.5,648,671.1,648.4,670.5,648.4z M671.3,638.5C671.3,638.5,671.2,638.5,671.3,638.5c-0.6,0-1-0.5-1-1.1l0.2-2
	c0-0.6,0.6-1,1.1-0.9c0.6,0,1,0.5,0.9,1.1l-0.2,2C672.2,638.1,671.8,638.5,671.3,638.5z M672,628.5C672,628.5,672,628.5,672,628.5
	c-0.6,0-1-0.5-1-1.1l0.2-2c0-0.6,0.6-0.9,1.1-0.9c0.6,0,1,0.5,0.9,1.1l-0.2,2C673,628.1,672.6,628.5,672,628.5z M672.8,618.5
	C672.8,618.5,672.8,618.5,672.8,618.5c-0.6,0-1-0.5-1-1.1l0.2-2c0-0.6,0.6-1,1.1-0.9c0.6,0,1,0.5,0.9,1.1l-0.2,2
	C673.8,618.1,673.3,618.5,672.8,618.5z M673.6,608.5C673.5,608.5,673.5,608.5,673.6,608.5c-0.6,0-1-0.5-1-1.1l0.2-2
	c0-0.6,0.6-1,1.1-0.9c0.6,0,1,0.5,0.9,1.1l-0.2,2C674.5,608.1,674.1,608.5,673.6,608.5z M674.3,598.6
	C674.3,598.6,674.3,598.6,674.3,598.6c-0.6,0-1-0.5-1-1.1l0.2-2c0-0.6,0.6-0.9,1.1-0.9c0.6,0,1,0.5,0.9,1.1l-0.2,2
	C675.3,598.2,674.8,598.6,674.3,598.6z M675.1,588.6C675,588.6,675,588.6,675.1,588.6c-0.6,0-1-0.5-1-1.1l0.2-2c0-0.6,0.6-1,1.1-0.9
	c0.6,0,1,0.5,0.9,1.1l-0.2,2C676,588.2,675.6,588.6,675.1,588.6z M675.8,578.6C675.8,578.6,675.8,578.6,675.8,578.6
	c-0.6,0-1-0.5-1-1.1l0.2-2c0-0.6,0.6-1,1.1-0.9c0.6,0,1,0.5,0.9,1.1l-0.2,2C676.8,578.2,676.3,578.6,675.8,578.6z M676.6,568.7
	C676.6,568.7,676.5,568.7,676.6,568.7c-0.6,0-1-0.5-1-1.1l0.2-2c0-0.6,0.6-0.9,1.1-0.9c0.6,0,1,0.5,0.9,1.1l-0.2,2
	C677.5,568.3,677.1,568.7,676.6,568.7z M677.3,558.7C677.3,558.7,677.3,558.7,677.3,558.7c-0.6,0-1-0.5-1-1.1l0.2-2
	c0-0.6,0.6-1,1.1-0.9c0.6,0,1,0.5,0.9,1.1l-0.2,2C678.3,558.3,677.9,558.7,677.3,558.7z M678.1,548.7
	C678.1,548.7,678,548.7,678.1,548.7c-0.6,0-1-0.5-1-1.1l0.2-2c0-0.5,0.5-1,1.1-0.9c0.5,0,1,0.5,0.9,1.1l-0.2,2
	C679.1,548.3,678.6,548.7,678.1,548.7z M678.9,538.7C678.8,538.7,678.8,538.7,678.9,538.7c-0.6,0-1-0.5-1-1.1l0.2-2
	c0-0.6,0.5-1,1.1-0.9c0.5,0,1,0.5,0.9,1.1l-0.2,2C679.8,538.3,679.4,538.7,678.9,538.7z M679.6,528.8
	C679.6,528.8,679.6,528.8,679.6,528.8c-0.6,0-1-0.5-1-1.1l0.2-2c0-0.6,0.5-1,1.1-0.9c0.6,0,1,0.5,0.9,1.1l-0.2,2
	C680.6,528.4,680.1,528.8,679.6,528.8z M680.4,518.8C680.3,518.8,680.3,518.8,680.4,518.8c-0.6,0-1-0.5-1-1.1l0.2-2
	c0-0.6,0.5-1,1.1-0.9c0.6,0,1,0.5,0.9,1.1l-0.2,2C681.3,518.4,680.9,518.8,680.4,518.8z M681.1,508.8
	C681.1,508.8,681.1,508.8,681.1,508.8c-0.6,0-1-0.5-1-1.1l0.2-2c0-0.6,0.5-1,1.1-0.9c0.5,0,1,0.5,0.9,1.1l-0.2,2
	C682.1,508.4,681.6,508.8,681.1,508.8z M681.9,498.9C681.9,498.9,681.8,498.9,681.9,498.9c-0.6,0-1-0.5-1-1.1l0.2-2
	c0-0.6,0.5-1,1.1-0.9c0.5,0,1,0.5,0.9,1.1l-0.2,2C682.8,498.5,682.4,498.9,681.9,498.9z M682.6,488.9
	C682.6,488.9,682.6,488.9,682.6,488.9c-0.6,0-1-0.5-1-1.1l0.2-2c0-0.6,0.5-1,1.1-0.9c0.6,0,1,0.5,0.9,1.1l-0.2,2
	C683.6,488.5,683.2,488.9,682.6,488.9z M683.4,478.9C683.4,478.9,683.3,478.9,683.4,478.9c-0.6,0-1-0.5-1-1.1l0.2-2
	c0-0.6,0.5-1,1.1-0.9c0.6,0,1,0.5,0.9,1.1l-0.2,2C684.3,478.5,683.9,478.9,683.4,478.9z M684.1,468.9
	C684.1,468.9,684.1,468.9,684.1,468.9c-0.6,0-1-0.5-1-1.1l0.2-2c0-0.6,0.5-1,1.1-0.9c0.5,0,1,0.5,0.9,1.1l-0.2,2
	C685.1,468.5,684.7,468.9,684.1,468.9z M684.9,459C684.9,459,684.8,459,684.9,459c-0.6,0-1-0.5-1-1.1l0.2-2c0-0.6,0.5-1,1.1-0.9
	c0.5,0,1,0.5,0.9,1.1l-0.2,2C685.9,458.6,685.4,459,684.9,459z M685.7,449C685.6,449,685.6,449,685.7,449c-0.6,0-1-0.5-1-1.1l0.2-2
	c0-0.6,0.5-1,1.1-0.9c0.6,0,1,0.5,0.9,1.1l-0.2,2C686.6,448.6,686.2,449,685.7,449z M686.4,439C686.4,439,686.4,439,686.4,439
	c-0.6,0-1-0.5-1-1.1l0.2-2c0-0.6,0.5-1,1.1-0.9c0.6,0,1,0.5,0.9,1.1l-0.2,2C687.4,438.6,686.9,439,686.4,439z M687.2,429.1
	C687.1,429.1,687.1,429.1,687.2,429.1c-0.6,0-1-0.5-1-1.1l0.2-2c0-0.6,0.5-1,1.1-0.9c0.5,0,1,0.5,0.9,1.1l-0.2,2
	C688.1,428.7,687.7,429.1,687.2,429.1z M687.9,419.1C687.9,419.1,687.9,419.1,687.9,419.1c-0.6,0-1-0.5-1-1.1l0.2-2
	c0-0.6,0.5-1,1.1-0.9c0.5,0,1,0.5,0.9,1.1l-0.2,2C688.9,418.7,688.4,419.1,687.9,419.1z M688.7,409.1
	C688.7,409.1,688.6,409.1,688.7,409.1c-0.6,0-1-0.5-1-1.1l0.2-2c0-0.6,0.5-1,1.1-0.9c0.6,0,1,0.5,0.9,1.1l-0.2,2
	C689.6,408.7,689.2,409.1,688.7,409.1z M689.4,399.1C689.4,399.1,689.4,399.1,689.4,399.1c-0.6,0-1-0.5-1-1.1l0.2-2
	c0-0.6,0.5-1,1.1-0.9c0.6,0,1,0.5,0.9,1.1l-0.2,2C690.4,398.7,690,399.1,689.4,399.1z M690.2,389.2
	C690.2,389.2,690.1,389.2,690.2,389.2c-0.6,0-1-0.5-1-1.1l0.2-2c0-0.6,0.5-1,1.1-0.9c0.5,0,1,0.5,0.9,1.1l-0.2,2
	C691.1,388.8,690.7,389.2,690.2,389.2z M690.9,379.2C690.9,379.2,690.9,379.2,690.9,379.2c-0.6,0-1-0.5-1-1.1l0.2-2
	c0-0.6,0.6-0.9,1.1-0.9c0.6,0,1,0.5,0.9,1.1l-0.2,2C691.9,378.8,691.5,379.2,690.9,379.2z M691.7,369.2
	C691.7,369.2,691.7,369.2,691.7,369.2c-0.6,0-1-0.5-1-1.1l0.2-2c0-0.6,0.6-1,1.1-0.9c0.6,0,1,0.5,0.9,1.1l-0.2,2
	C692.7,368.8,692.2,369.2,691.7,369.2z M692.5,359.3C692.4,359.3,692.4,359.3,692.5,359.3c-0.6,0-1-0.5-1-1.1l0.2-2
	c0-0.6,0.6-1,1.1-0.9c0.6,0,1,0.5,0.9,1.1l-0.2,2C693.4,358.9,693,359.3,692.5,359.3z M693.2,349.3
	C693.2,349.3,693.2,349.3,693.2,349.3c-0.6,0-1-0.5-1-1.1l0.2-2c0-0.6,0.6-0.9,1.1-0.9c0.6,0,1,0.5,0.9,1.1l-0.2,2
	C694.2,348.9,693.7,349.3,693.2,349.3z M694,339.3C693.9,339.3,693.9,339.3,694,339.3c-0.6,0-1-0.5-1-1.1l0.2-2c0-0.6,0.6-1,1.1-0.9
	c0.6,0,1,0.5,0.9,1.1l-0.2,2C694.9,338.9,694.5,339.3,694,339.3z M694.7,329.3C694.7,329.3,694.7,329.3,694.7,329.3
	c-0.6,0-1-0.5-1-1.1l0.2-2c0-0.6,0.6-1,1.1-0.9c0.6,0,1,0.5,0.9,1.1l-0.2,2C695.7,328.9,695.2,329.3,694.7,329.3z M695.5,319.4
	C695.5,319.4,695.4,319.4,695.5,319.4c-0.6,0-1-0.5-1-1.1l0.2-2c0-0.6,0.6-0.9,1.1-0.9c0.6,0,1,0.5,0.9,1.1l-0.2,2
	C696.4,319,696,319.4,695.5,319.4z M696.2,309.4C696.2,309.4,696.2,309.4,696.2,309.4c-0.6,0-1-0.5-1-1.1l0.2-2c0-0.6,0.6-1,1.1-0.9
	c0.6,0,1,0.5,0.9,1.1l-0.2,2C697.2,309,696.8,309.4,696.2,309.4z M697,299.4C697,299.4,696.9,299.4,697,299.4c-0.6,0-1-0.5-1-1.1
	l0.2-2c0-0.6,0.6-1,1.1-0.9c0.6,0,1,0.5,0.9,1.1l-0.2,2C697.9,299,697.5,299.4,697,299.4z M697.8,289.5
	C697.7,289.5,697.7,289.5,697.8,289.5c-0.6,0-1-0.5-1-1.1l0.2-2c0-0.6,0.6-1,1.1-0.9c0.6,0,1,0.5,0.9,1.1l-0.2,2
	C698.7,289.1,698.3,289.5,697.8,289.5z M698.5,279.5C698.5,279.5,698.5,279.5,698.5,279.5c-0.6,0-1-0.5-1-1.1l0.2-2
	c0-0.6,0.6-1,1.1-0.9c0.6,0,1,0.5,0.9,1.1l-0.2,2C699.5,279.1,699,279.5,698.5,279.5z M699.3,269.5
	C699.2,269.5,699.2,269.5,699.3,269.5c-0.6,0-1-0.5-1-1.1l0.2-2c0-0.6,0.5-1,1.1-0.9c0.6,0,1,0.5,0.9,1.1l-0.2,2
	C700.2,269.1,699.8,269.5,699.3,269.5z M700,259.5C700,259.5,700,259.5,700,259.5c-0.6,0-1-0.5-1-1.1l0.2-2c0-0.6,0.5-1,1.1-0.9
	c0.5,0,1,0.5,0.9,1.1l-0.2,2C701,259.1,700.5,259.5,700,259.5z M700.8,249.6C700.8,249.6,700.7,249.6,700.8,249.6
	c-0.6,0-1-0.5-1-1.1l0.2-2c0-0.6,0.5-1,1.1-0.9c0.5,0,1,0.5,0.9,1.1l-0.2,2C701.7,249.2,701.3,249.6,700.8,249.6z M701.5,239.6
	C701.5,239.6,701.5,239.6,701.5,239.6c-0.6,0-1-0.5-1-1.1l0.2-2c0-0.6,0.5-1,1.1-0.9c0.6,0,1,0.5,0.9,1.1l-0.2,2
	C702.5,239.2,702,239.6,701.5,239.6z M702.3,229.6C702.3,229.6,702.2,229.6,702.3,229.6c-0.6,0-1-0.5-1-1.1l0.2-2
	c0-0.6,0.5-1,1.1-0.9c0.6,0,1,0.5,0.9,1.1l-0.2,2C703.2,229.2,702.8,229.6,702.3,229.6z M703,219.7C703,219.7,703,219.7,703,219.7
	c-0.6,0-1-0.5-1-1.1l0.2-2c0-0.6,0.5-1,1.1-0.9c0.5,0,1,0.5,0.9,1.1l-0.2,2C704,219.3,703.6,219.7,703,219.7z"/>
</svg>
