<?xml version="1.0" encoding="utf-8"?>
<!-- Generator: Adobe Illustrator 26.3.1, SVG Export Plug-In . SVG Version: 6.00 Build 0)  -->
<svg version="1.1" id="圖層_1" xmlns="http://www.w3.org/2000/svg" xmlns:xlink="http://www.w3.org/1999/xlink" x="0px" y="0px"
	 viewBox="0 0 300 350" style="enable-background:new 0 0 300 350;" xml:space="preserve">
<style type="text/css">
	.st0{fill:#FFFFFF;}
	.st1{fill:#002362;}
	.st2{fill:#B12233;}
	.st3{fill:#3C3B6D;}
	.st4{fill:#009FE8;}
	.st5{fill:#8894A0;}
	.st6{fill:#738293;}
	.st7{fill:none;stroke:#CCCCCC;stroke-linejoin:round;stroke-miterlimit:10;}
	.st8{fill-rule:evenodd;clip-rule:evenodd;fill:#009FE8;}
	.st9{fill-rule:evenodd;clip-rule:evenodd;fill:#8894A0;}
</style>
<g>
	<path class="st0" d="M280,0c9.3,0,17,7.5,17,16.9v316.2c0,9.3-7.6,16.9-17,16.9H20c-9.3,0-17-7.5-17-16.9V16.9C3,7.6,10.6,0,20,0
		H280z"/>
	<g>
		<g>
			<path class="st1" d="M115.6,23.1c-0.4,1.3-0.9,2.6-1.4,3.8v13.9h-1.4v-11c-0.5,1-1.1,1.8-1.7,2.6c-0.1-0.3-0.5-1.1-0.8-1.5
				c1.6-2,3.1-5.1,4-8.1L115.6,23.1z M126.9,36.1c-0.7,1.1-1.9,2-3.3,2.7c1.5,0.4,3.3,0.7,5.1,0.9c-0.3,0.3-0.6,0.8-0.8,1.2
				c-2.1-0.3-4.2-0.7-6-1.4c-1.7,0.6-3.8,1.1-6.1,1.4c-0.2-0.3-0.5-0.8-0.8-1.1c2-0.2,3.7-0.6,5.2-1c-0.7-0.4-1.4-0.8-2-1.3
				c-0.6,0.4-1.3,0.8-2.1,1.1c-0.2-0.3-0.6-0.7-0.9-0.9c0.7-0.3,1.4-0.7,2-1c-0.3-0.3-0.5-0.6-0.8-0.9l1.2-0.4
				c0.2,0.2,0.4,0.5,0.6,0.7c0.7-0.5,1.2-1,1.7-1.5c-0.6-0.1-0.8-0.5-0.8-1.2v-1.2h1.2v1.2c0,0.4,0.1,0.4,0.8,0.4h2.5
				c0.5,0,0.6-0.1,0.6-0.9c0.2,0.2,0.7,0.3,1,0.3c-0.1,1.1-0.5,1.4-1.5,1.4h-2.4c-0.2,0.3-0.5,0.6-0.8,0.9h5l0.3-0.1L126.9,36.1z
				 M128.7,30.7v2.7h-1.3v-1.7h-5.5c0.6,0.4,1.4,0.9,1.8,1.3l-0.8,0.6c-0.4-0.4-1.3-1.1-1.9-1.4l0.7-0.4h-4.8v1.7h-1.3v-2.7h2v-5
				h3.5c0.1-0.3,0.2-0.7,0.3-1H116v-1.1h12.4v1.1h-5.7c-0.1,0.4-0.3,0.7-0.4,1h4.5v5L128.7,30.7L128.7,30.7z M119.2,32.8
				c-0.5,0.8-1.2,1.7-2.1,2.2l-0.9-0.7c0.8-0.5,1.6-1.3,2-2L119.2,32.8z M118.8,26.6v0.9h6.7v-0.9H118.8z M125.5,28.2h-6.7v0.9h6.7
				V28.2z M118.8,30.7h6.7v-0.9h-6.7V30.7z M119.2,36.9c0.7,0.5,1.6,1,2.7,1.4c1.2-0.5,2.2-1,2.9-1.6h-5.2L119.2,36.9z M127.2,35.1
				c-0.4-0.7-1.4-1.7-2.3-2.4l0.8-0.5c0.8,0.7,1.8,1.6,2.3,2.3L127.2,35.1z"/>
			<path class="st1" d="M133.5,26.7c-0.2,1.1-0.7,2.2-1.8,3c-0.2-0.3-0.7-0.8-1-0.9c1.4-1.1,1.6-2.5,1.6-3.6v-1.6
				c2.1-0.2,4.5-0.5,5.9-0.9l0.9,0.9c-1.4,0.4-3.5,0.8-5.5,0.9v0.7c0,0.1,0,0.3,0,0.4h5.8v1.1h-2.2v2.4h-1.4v-2.4H133.5z
				 M137.9,38.5c-1.6,0.9-4.3,1.9-6.2,2.5c-0.1-0.3-0.5-1-0.7-1.3c1.9-0.4,4.4-1.1,5.8-1.9L137.9,38.5z M133.5,29.6H146v8.2h-12.5
				V29.6z M134.9,32h9.5v-1.4h-9.5V32z M134.9,34.3h9.5v-1.4h-9.5V34.3z M134.9,36.7h9.5v-1.5h-9.5V36.7z M148.6,25.6v1.1h-3.1v2.5
				h-1.4v-2.5h-2.6c-0.2,1-0.6,1.9-1.4,2.7c-0.2-0.2-0.8-0.6-1.1-0.8c1.2-1.1,1.4-2.5,1.4-3.6v-1.5c2.2-0.1,4.8-0.4,6.2-0.9l1,0.9
				c-1.6,0.5-3.9,0.8-5.9,0.9V25c0,0.2,0,0.4,0,0.6H148.6z M142.3,37.8c2.3,0.6,4.6,1.4,6.1,2l-0.7,1.1c-1.4-0.6-3.7-1.5-6-2.1
				L142.3,37.8z"/>
			<path class="st1" d="M158.4,26.1c-0.3,0.8-0.7,1.6-1,2.3h2.5v1.3h-9.1v-1.3h2.3c-0.1-0.7-0.4-1.6-0.7-2.3l1.2-0.3
				c0.3,0.8,0.7,1.8,0.8,2.4l-0.5,0.1h2.2c0.4-0.8,0.8-1.8,1-2.6L158.4,26.1z M159,39.1c0,0.7-0.2,1.1-0.7,1.4
				c-0.5,0.2-1.3,0.2-2.4,0.2c-0.1-0.4-0.3-1-0.5-1.3c0.8,0,1.6,0,1.8,0s0.3-0.1,0.3-0.3v-2.6c-1.4,0.6-2.7,1.2-3.9,1.8l-0.5-1.2
				c1.1-0.4,2.7-1,4.4-1.6V32h-4.3v2.8c0,1.9-0.2,4.4-1.2,6.2c-0.2-0.2-0.8-0.7-1.1-0.8c0.9-1.6,1-3.8,1-5.4v-3.9h7.1L159,39.1
				L159,39.1z M159.5,25.6h-8.4v-1.3h3.8c-0.1-0.5-0.3-1.1-0.6-1.5l1.3-0.3c0.3,0.6,0.5,1.3,0.7,1.8h3.2V25.6z M154,32.9
				c1.1,0.4,2.5,0.9,3.3,1.3l-0.6,0.9c-0.8-0.4-2.2-1-3.3-1.4L154,32.9z M166.9,39.5c0.7,0,0.8-0.3,0.9-1.6c0.3,0.2,0.9,0.4,1.3,0.5
				c-0.2,1.8-0.6,2.3-2.1,2.3h-3.7c-1.9,0-2.4-0.4-2.4-2V30h5.6v-1.8h-5.6v-5.6h1.4v1.6h6.4v1.2h-6.4V27h5.6v4.1h-5.6v1.2h5.6v1
				h-5.6v1.2h5.5v1h-5.5v1.3h5.7v1h-5.7v0.8c0,0.6,0.2,0.8,1.1,0.8L166.9,39.5L166.9,39.5z"/>
			<path class="st1" d="M179,38c-2.8,0.7-5.8,1.3-8,1.8l-0.4-1.4c1.5-0.3,3.6-0.7,5.8-1.2l-1-0.3c0.3-1.1,0.7-2.8,0.9-4l1.4,0.4
				c-0.4,1.3-0.8,2.9-1.2,3.9l2.3-0.5L179,38z M178.8,25.1H171v-1.4h7.8V25.1z M178.3,32.3h-6.8V27h6.8V32.3z M172.7,37.1
				c0-1-0.3-2.5-0.8-3.7l1.2-0.3c0.5,1.2,0.8,2.7,0.8,3.7L172.7,37.1z M176.9,28.2h-4.2v2.9h4.2V28.2z M183.1,38.3
				c-1.1,1-2.8,2.1-4.4,2.6c-0.2-0.3-0.7-0.7-1-1c1.5-0.5,3.2-1.5,4.1-2.4L183.1,38.3z M182.7,26.8c0.1-0.6,0.3-1.3,0.4-1.9h-3.8
				v-1.3h9.6v1.3h-4.2c-0.2,0.7-0.4,1.3-0.6,1.9h4.1v10.4h-8.3V26.8H182.7z M186.8,27.9h-5.6v1.9h5.6V27.9z M186.8,30.9h-5.6v2h5.6
				V30.9z M186.8,34h-5.6v2h5.6V34z M185.9,37.6c1.2,0.7,2.7,1.7,3.4,2.5l-1.2,0.8c-0.7-0.7-2.2-1.8-3.4-2.5L185.9,37.6z"/>
			<path class="st1" d="M197.6,39c0,0.8-0.2,1.2-0.6,1.5c-0.5,0.2-1.2,0.3-2.5,0.3c-0.1-0.4-0.2-1-0.4-1.4c0.9,0,1.6,0,1.9,0
				c0.2,0,0.3-0.1,0.3-0.4v-5.4c-0.8,0.5-1.7,1-2.4,1.5l-0.6-1.2c-0.1,2.5-0.5,5.1-1.5,7.1c-0.3-0.2-0.9-0.6-1.2-0.7
				c1.3-2.8,1.4-6.8,1.4-9.7v-7.1h5.5V39H197.6z M193.4,30.5c0,0.9,0,2-0.1,3.1c0.8-0.3,1.8-0.8,2.9-1.3V30l-0.8,0.6
				c-0.4-0.6-1.3-1.6-2.1-2.4v2.3H193.4z M193.4,24.7v3.1l0.7-0.5c0.8,0.7,1.7,1.6,2.2,2.2v-4.8H193.4z M208.2,31.7
				c-0.8,2.5-2,4.4-3.7,5.9c1.3,0.9,2.7,1.6,4.4,2c-0.4,0.3-0.8,0.9-1,1.3c-1.7-0.5-3.3-1.3-4.6-2.4c-1.4,1-3,1.8-4.8,2.3
				c-0.2-0.4-0.5-1-0.8-1.3c1.6-0.4,3.1-1.1,4.5-2c-1.3-1.3-2.3-2.8-3-4.6l0.3-0.1h-1v-1.4h8.4l0.2-0.1L208.2,31.7z M201.9,25.6
				c0,1.8-0.5,3.9-3,5.3c-0.2-0.3-0.7-0.8-1-1c2.2-1.2,2.5-2.9,2.5-4.3v-2.2h6.1V28c0,0.5,0,0.7,0.3,0.7h1.1c0.2,0,0.6,0,0.9-0.1
				c0,0.4,0.1,0.9,0.1,1.2c-0.2,0.1-0.6,0.1-0.9,0.1h-1.2c-1.3,0-1.6-0.6-1.6-2v-3.2h-3.3L201.9,25.6L201.9,25.6z M200.7,32.8
				c0.6,1.5,1.6,2.8,2.7,3.9c1.2-1.1,2.2-2.4,2.8-3.9H200.7z"/>
			<path class="st1" d="M216.4,23.1c-0.5,1.4-1.2,2.8-2,4.1v13.7H213V29.4c-0.7,0.9-1.4,1.8-2.1,2.5c-0.2-0.3-0.6-1.1-0.8-1.4
				c2-1.9,3.8-4.8,4.9-7.8L216.4,23.1z M221.4,38.3c-1.2,1-3.1,2-4.7,2.6c-0.2-0.3-0.8-0.8-1.2-1c1.6-0.5,3.4-1.3,4.5-2.1
				L221.4,38.3z M228.8,27.8v1.1h-13v-1.1h5.8v-1.1h-4.4v-1h4.4v-1h-4.9v-1h4.9v-1.1h1.5v1.1h5.1v1h-5.1v1h4.6v1h-4.6v1.1H228.8z
				 M227.5,37.4h-10.1v-7.5h10.1V37.4z M226.1,30.9h-7.3v1.2h7.3V30.9z M226.1,33h-7.3v1.2h7.3V33z M226.1,35.1h-7.3v1.3h7.3V35.1z
				 M224.9,37.7c1.4,0.8,3,1.8,3.9,2.5l-1.3,0.8c-0.8-0.7-2.5-1.9-3.9-2.7L224.9,37.7z"/>
		</g>
		<g id="XMLID_6321_">
			<g id="XMLID_6369_">
				<path id="XMLID_6382_" class="st0" d="M99.1,37.8c-0.3,0.8-0.7,1.6-1.2,2.3H72.6c-0.5-0.7-0.9-1.5-1.2-2.3H99.1z"/>
				<path id="XMLID_6381_" class="st2" d="M99.9,35.5c-0.2,0.8-0.4,1.6-0.8,2.3H71.4c-0.3-0.7-0.6-1.5-0.8-2.3H99.9z"/>
				<path id="XMLID_6380_" class="st0" d="M100.2,33.2c-0.1,0.8-0.2,1.6-0.4,2.3H70.7c-0.2-0.8-0.3-1.5-0.4-2.3H100.2z"/>
				<path id="XMLID_6379_" class="st2" d="M97.9,40.1c-0.5,0.8-1.1,1.6-1.8,2.3H74.5c-0.7-0.7-1.3-1.5-1.8-2.3H97.9z"/>
				<path id="XMLID_6378_" class="st2" d="M93.3,44.7c-2.3,1.5-5.1,2.3-8,2.3s-5.7-0.8-8-2.3H93.3z"/>
				<path id="XMLID_6377_" class="st0" d="M96.1,42.4c-0.8,0.9-1.8,1.7-2.8,2.3h-16c-1-0.7-2-1.4-2.8-2.3
					C74.5,42.4,96.1,42.4,96.1,42.4z"/>
				<path id="XMLID_6376_" class="st0" d="M96.1,21.6H74.5c0.8-0.9,1.8-1.7,2.8-2.3h16C94.3,20,95.2,20.7,96.1,21.6z"/>
				<path id="XMLID_6375_" class="st2" d="M93.3,19.3h-16c0.5-0.3,1-0.6,1.5-0.8c0,0,0.1,0,0.1-0.1c0.2-0.1,0.3-0.2,0.5-0.2
					c0.1,0,0.2-0.1,0.2-0.1c1.8-0.7,3.7-1.1,5.7-1.1l0,0C88.2,17,91,17.8,93.3,19.3z"/>
				<path id="XMLID_6374_" class="st2" d="M97.9,23.9H72.6c0.1-0.2,0.3-0.4,0.4-0.6c0,0,0,0,0-0.1c0.4-0.6,0.9-1.1,1.4-1.6H96
					C96.8,22.3,97.4,23.1,97.9,23.9z"/>
				<path id="XMLID_6373_" class="st2" d="M99.9,28.5H70.7c0.2-0.8,0.4-1.6,0.8-2.3h27.7C99.4,27,99.7,27.7,99.9,28.5z"/>
				<path id="XMLID_6372_" class="st0" d="M99.1,26.2H71.4c0.1-0.1,0.1-0.3,0.2-0.4c0.2-0.4,0.3-0.7,0.5-1s0.3-0.6,0.5-0.8h25.3
					C98.4,24.7,98.8,25.4,99.1,26.2z"/>
				<path id="XMLID_6371_" class="st0" d="M100.2,30.8H70.3c0-0.1,0-0.2,0-0.3c0-0.3,0.1-0.6,0.1-0.8c0.1-0.4,0.1-0.8,0.2-1.2h29.2
					C100.1,29.3,100.2,30.1,100.2,30.8z"/>
				<path id="XMLID_6370_" class="st2" d="M100.3,32c0,0.4,0,0.8,0,1.2h-30c0-0.4,0-0.8,0-1.2c0-0.4,0-0.8,0-1.2h29.9
					C100.3,31.2,100.3,31.6,100.3,32z"/>
			</g>
			<g id="XMLID_6322_">
				<path id="XMLID_6368_" class="st3" d="M85.3,17v16.2h-15c0-0.4,0-0.8,0-1.2c0-0.4,0-0.8,0-1.2c0-0.1,0-0.2,0-0.3
					c0-0.3,0.1-0.6,0.1-0.8c0.1-0.4,0.1-0.8,0.2-1.2c0.2-0.8,0.4-1.6,0.8-2.3c0.1-0.1,0.1-0.3,0.2-0.4c0.2-0.4,0.3-0.7,0.5-1
					s0.3-0.6,0.5-0.8c0.1-0.2,0.3-0.4,0.4-0.6c0,0,0,0,0-0.1c0.4-0.6,0.9-1.1,1.4-1.6c0.8-0.9,1.8-1.7,2.8-2.3
					c0.5-0.3,1-0.6,1.5-0.8c0,0,0.1,0,0.1-0.1c0.2-0.1,0.3-0.2,0.5-0.2c0.1,0,0.2-0.1,0.2-0.1C81.4,17.4,83.3,17,85.3,17z"/>
				<g id="XMLID_6323_">
					<g id="XMLID_6365_">
						<polygon id="XMLID_6367_" class="st0" points="83.4,17.8 83.6,18.4 84.3,18.4 83.7,18.8 83.9,19.5 83.4,19.1 82.8,19.5 
							83,18.8 82.5,18.4 83.2,18.4 						"/>
						<path id="XMLID_6366_" class="st0" d="M80.1,19.3l0.1,0.2L80.1,19.3l-0.4-0.2l-0.3,0.2L79,19.5l0.1-0.2l0.2-0.5l-0.5-0.3
							c0,0,0.1,0,0.1-0.1h0.4l0.1-0.2c0.1,0,0.2-0.1,0.2-0.1l0.1,0.3h0.7l-0.5,0.4L80.1,19.3z"/>
					</g>
					<g id="XMLID_6361_">
						<polygon id="XMLID_6364_" class="st0" points="83.4,21 83.6,21.6 84.3,21.6 83.7,22 83.9,22.7 83.4,22.3 82.8,22.7 83,22 
							82.5,21.6 83.2,21.6 						"/>
						<polygon id="XMLID_6363_" class="st0" points="79.6,21 79.8,21.6 80.5,21.6 79.9,22 80.1,22.7 79.6,22.3 79,22.7 79.2,22 
							78.7,21.6 79.4,21.6 						"/>
						<polygon id="XMLID_6362_" class="st0" points="75.8,21 76,21.6 76.7,21.6 76.1,22 76.3,22.7 75.8,22.3 75.2,22.7 75.4,22 
							74.9,21.6 75.6,21.6 						"/>
					</g>
					<g id="XMLID_6354_">
						<polygon id="XMLID_6358_" class="st0" points="83.4,24.2 83.6,24.9 84.3,24.9 83.7,25.3 83.9,25.9 83.4,25.5 82.8,25.9 
							83,25.3 82.5,24.9 83.2,24.9 						"/>
						<polygon id="XMLID_6357_" class="st0" points="79.6,24.2 79.8,24.9 80.5,24.9 79.9,25.3 80.1,25.9 79.6,25.5 79,25.9 
							79.2,25.3 78.7,24.9 79.4,24.9 						"/>
						<polygon id="XMLID_6356_" class="st0" points="75.8,24.2 76,24.9 76.7,24.9 76.1,25.3 76.3,25.9 75.8,25.5 75.2,25.9 
							75.4,25.3 74.9,24.9 75.6,24.9 						"/>
						<path id="XMLID_6355_" class="st0" d="M72.3,25.3l0.2,0.6L72,25.5l-0.4,0.3c0.2-0.4,0.3-0.7,0.5-1v0.1h0.7L72.3,25.3z"/>
					</g>
					<g id="XMLID_6347_">
						<polygon id="XMLID_6353_" class="st0" points="83.4,27.5 83.6,28.1 84.3,28.1 83.7,28.5 83.9,29.2 83.4,28.8 82.8,29.2 
							83,28.5 82.5,28.1 83.2,28.1 						"/>
						<polygon id="XMLID_6352_" class="st0" points="79.6,27.5 79.8,28.1 80.5,28.1 79.9,28.5 80.1,29.2 79.6,28.8 79,29.2 
							79.2,28.5 78.7,28.1 79.4,28.1 						"/>
						<polygon id="XMLID_6351_" class="st0" points="75.8,27.5 76,28.1 76.7,28.1 76.1,28.5 76.3,29.2 75.8,28.8 75.2,29.2 
							75.4,28.5 74.9,28.1 75.6,28.1 						"/>
						<polygon id="XMLID_6348_" class="st0" points="72,27.5 72.2,28.1 72.9,28.1 72.3,28.5 72.5,29.2 72,28.8 71.4,29.2 71.6,28.5 
							71.1,28.1 71.8,28.1 						"/>
					</g>
					<g id="XMLID_6342_">
						<polygon id="XMLID_6346_" class="st0" points="83.4,30.7 83.6,31.3 84.3,31.3 83.7,31.7 83.9,32.4 83.4,32 82.8,32.4 83,31.7 
							82.5,31.3 83.2,31.3 						"/>
						<polygon id="XMLID_6345_" class="st0" points="79.6,30.7 79.8,31.3 80.5,31.3 79.9,31.7 80.1,32.4 79.6,32 79,32.4 79.2,31.7 
							78.7,31.3 79.4,31.3 						"/>
						<polygon id="XMLID_6344_" class="st0" points="75.8,30.7 76,31.3 76.7,31.3 76.1,31.7 76.3,32.4 75.8,32 75.2,32.4 75.4,31.7 
							74.9,31.3 75.6,31.3 						"/>
						<polygon id="XMLID_6343_" class="st0" points="72,30.7 72.2,31.3 72.9,31.3 72.3,31.7 72.5,32.4 72,32 71.4,32.4 71.6,31.7 
							71.1,31.3 71.8,31.3 						"/>
					</g>
					<g id="XMLID_6337_">
						<polygon id="XMLID_6341_" class="st0" points="81.5,29.1 81.7,29.7 82.4,29.7 81.8,30.1 82,30.8 81.5,30.4 80.9,30.8 
							81.1,30.1 80.6,29.7 81.3,29.7 						"/>
						<polygon id="XMLID_6340_" class="st0" points="77.7,29.1 77.9,29.7 78.6,29.7 78,30.1 78.2,30.8 77.7,30.4 77.1,30.8 
							77.3,30.1 76.8,29.7 77.5,29.7 						"/>
						<polygon id="XMLID_6339_" class="st0" points="73.9,29.1 74.1,29.7 74.8,29.7 74.2,30.1 74.4,30.8 73.9,30.4 73.3,30.8 
							73.5,30.1 73,29.7 73.7,29.7 						"/>
						<path id="XMLID_6338_" class="st0" d="M70.4,30.1l0.2,0.6l-0.3-0.2c0-0.3,0.1-0.6,0.1-0.8H71L70.4,30.1z"/>
					</g>
					<g id="XMLID_6333_">
						<polygon id="XMLID_6336_" class="st0" points="81.5,25.8 81.7,26.5 82.4,26.5 81.8,26.9 82,27.5 81.5,27.1 80.9,27.5 
							81.1,26.9 80.6,26.5 81.3,26.5 						"/>
						<polygon id="XMLID_6335_" class="st0" points="77.7,25.8 77.9,26.5 78.6,26.5 78,26.9 78.2,27.5 77.7,27.1 77.1,27.5 
							77.3,26.9 76.8,26.5 77.5,26.5 						"/>
						<polygon id="XMLID_6334_" class="st0" points="73.9,25.8 74.1,26.5 74.8,26.5 74.2,26.9 74.4,27.5 73.9,27.1 73.3,27.5 
							73.5,26.9 73,26.5 73.7,26.5 						"/>
					</g>
					<g id="XMLID_6327_">
						<polygon id="XMLID_6332_" class="st0" points="81.5,22.6 81.7,23.3 82.4,23.3 81.8,23.7 82,24.3 81.5,23.9 80.9,24.3 
							81.1,23.7 80.6,23.3 81.3,23.3 						"/>
						<polygon id="XMLID_6329_" class="st0" points="77.7,22.6 77.9,23.3 78.6,23.3 78,23.7 78.2,24.3 77.7,23.9 77.1,24.3 
							77.3,23.7 76.8,23.3 77.5,23.3 						"/>
						<path id="XMLID_6328_" class="st0" d="M74.3,23.9l0.1,0.4l-0.5-0.4l0,0l0,0l-0.5,0.4l0.1-0.4l0.1-0.3l-0.5-0.3c0,0,0,0,0-0.1
							h0.6l0.2-0.6l0.2,0.6h0.7l-0.6,0.4L74.3,23.9z"/>
					</g>
					<g id="XMLID_6324_">
						<polygon id="XMLID_6326_" class="st0" points="81.5,19.4 81.7,20 82.4,20 81.8,20.4 82,21.1 81.5,20.7 80.9,21.1 81.1,20.4 
							80.6,20 81.3,20 						"/>
						<polygon id="XMLID_6325_" class="st0" points="77.7,19.4 77.9,20 78.6,20 78,20.4 78.2,21.1 77.7,20.7 77.1,21.1 77.3,20.4 
							76.8,20 77.5,20 						"/>
					</g>
				</g>
			</g>
		</g>
	</g>
	<g>
		<polygon class="st4" points="38.9,242.9 58.1,242.9 58.1,301.2 38.9,301.2 		"/>
		<polygon class="st4" points="124.3,197.1 143.4,197.1 143.4,301.2 124.3,301.2 		"/>
		<polygon class="st4" points="209.7,125.4 228.7,125.4 228.7,301.2 209.7,301.2 		"/>
		<polygon class="st5" points="71.3,274.6 90.3,274.6 90.3,301.2 71.3,301.2 		"/>
		<polygon class="st5" points="156.6,253 175.8,253 175.8,301.2 156.6,301.2 		"/>
		<polygon class="st5" points="241.9,255.5 261.1,255.5 261.1,301.2 241.9,301.2 		"/>
		<g>
			<path class="st4" d="M33.8,226.9h1.5c0.7,0,1.2-0.2,1.6-0.5s0.5-0.8,0.5-1.4c0-0.6-0.2-1-0.5-1.3s-0.8-0.5-1.4-0.5
				c-0.5,0-1,0.1-1.4,0.4s-0.5,0.7-0.5,1.2h-2.8c0-0.7,0.2-1.4,0.6-2s1-1,1.7-1.4s1.5-0.5,2.4-0.5c1.5,0,2.7,0.4,3.5,1.1
				s1.3,1.7,1.3,3c0,0.7-0.2,1.2-0.6,1.8s-0.9,1-1.6,1.3c0.8,0.3,1.4,0.7,1.8,1.3s0.6,1.2,0.6,2c0,1.3-0.5,2.3-1.4,3
				s-2.1,1.1-3.7,1.1c-1.4,0-2.6-0.4-3.5-1.1s-1.4-1.7-1.4-3h2.8c0,0.5,0.2,1,0.6,1.3s0.9,0.5,1.5,0.5c0.7,0,1.2-0.2,1.6-0.5
				s0.6-0.8,0.6-1.4c0-1.4-0.8-2.1-2.3-2.1h-1.5C33.8,229.2,33.8,226.9,33.8,226.9z"/>
			<path class="st4" d="M52.1,229.4c0,2-0.4,3.5-1.2,4.5s-2,1.6-3.6,1.6c-1.5,0-2.7-0.5-3.6-1.5s-1.2-2.5-1.3-4.4V227
				c0-2,0.4-3.5,1.2-4.5s2-1.5,3.6-1.5s2.7,0.5,3.6,1.5s1.2,2.5,1.3,4.4V229.4z M49.3,226.5c0-1.2-0.2-2-0.5-2.6
				c-0.3-0.5-0.8-0.8-1.5-0.8s-1.2,0.3-1.5,0.8s-0.5,1.3-0.5,2.4v3.5c0,1.2,0.2,2,0.5,2.6s0.8,0.8,1.5,0.8s1.2-0.3,1.5-0.8
				s0.5-1.4,0.5-2.5V226.5z"/>
			<path class="st4" d="M54.3,233.9c0-0.4,0.2-0.8,0.5-1.1s0.7-0.4,1.1-0.4c0.5,0,0.8,0.1,1.1,0.4s0.5,0.6,0.5,1.1
				c0,0.4-0.1,0.8-0.4,1.1s-0.7,0.4-1.2,0.4s-0.8-0.1-1.1-0.4S54.3,234.3,54.3,233.9z"/>
			<path class="st4" d="M66.4,226.4l-3.8,8.9h-2.1l3.9-8.4h-4.9v-1.6h7L66.4,226.4L66.4,226.4z"/>
		</g>
		<g>
			<path class="st4" d="M111.7,182.5l0.8-7.2h8v2.4h-5.7l-0.4,3.1c0.7-0.4,1.4-0.5,2.1-0.5c1.4,0,2.4,0.4,3.2,1.3s1.2,2,1.2,3.5
				c0,0.9-0.2,1.7-0.6,2.5s-0.9,1.3-1.7,1.7s-1.6,0.6-2.6,0.6c-0.9,0-1.7-0.2-2.4-0.5s-1.3-0.8-1.7-1.5s-0.7-1.4-0.7-2.2h2.8
				c0.1,0.6,0.3,1.1,0.6,1.4s0.8,0.5,1.4,0.5s1.1-0.2,1.5-0.7s0.5-1.1,0.5-1.9c0-0.8-0.2-1.4-0.6-1.9s-1-0.6-1.7-0.6
				s-1.2,0.2-1.6,0.5l-0.3,0.3L111.7,182.5z"/>
			<path class="st4" d="M131.2,184.1h1.6v2.3h-1.6v3.1h-2.8v-3.1h-5.8l-0.1-1.8l5.9-9.4h2.9L131.2,184.1L131.2,184.1z M125.2,184.1
				h3.1v-5l-0.2,0.3L125.2,184.1z"/>
			<path class="st4" d="M134.7,188.1c0-0.4,0.2-0.8,0.5-1.1s0.7-0.4,1.1-0.4c0.5,0,0.8,0.1,1.1,0.4s0.5,0.6,0.5,1.1
				c0,0.4-0.1,0.8-0.4,1.1s-0.7,0.4-1.2,0.4s-0.8-0.1-1.1-0.4S134.7,188.5,134.7,188.1z"/>
			<path class="st4" d="M146.7,180.6l-3.8,8.9h-2.1l3.9-8.4h-4.9v-1.6h7L146.7,180.6L146.7,180.6z"/>
			<path class="st4" d="M152.7,185.5c-0.5,0.5-1.1,0.8-1.8,0.8c-0.9,0-1.6-0.3-2.1-0.9c-0.5-0.6-0.8-1.4-0.8-2.4
				c0-0.7,0.1-1.2,0.4-1.8s0.7-1,1.2-1.3s1.1-0.5,1.7-0.5c0.7,0,1.2,0.2,1.8,0.5c0.5,0.3,0.9,0.8,1.2,1.4c0.3,0.6,0.4,1.3,0.4,2.1
				v0.7c0,1.7-0.4,3-1.2,3.9s-2,1.5-3.5,1.5h-0.5v-1.6h0.4C151.6,187.9,152.5,187,152.7,185.5z M151.4,184.8c0.3,0,0.6-0.1,0.8-0.2
				c0.2-0.2,0.4-0.4,0.5-0.6v-0.8c0-0.7-0.1-1.2-0.4-1.6c-0.3-0.4-0.6-0.6-1-0.6s-0.7,0.2-1,0.5s-0.4,0.8-0.4,1.4
				c0,0.5,0.1,1,0.4,1.3S150.9,184.8,151.4,184.8z"/>
		</g>
		<g>
			<path class="st4" d="M207.3,112.2c-0.7,0.7-1.6,1.1-2.6,1.1c-1.3,0-2.3-0.4-3-1.3c-0.8-0.9-1.1-2-1.1-3.5c0-0.9,0.2-1.8,0.6-2.6
				c0.4-0.8,1-1.4,1.7-1.8s1.5-0.6,2.5-0.6c0.9,0,1.8,0.2,2.5,0.7s1.3,1.1,1.7,2s0.6,1.9,0.6,3v1c0,2.4-0.6,4.2-1.8,5.6
				s-2.8,2.1-5,2.2h-0.7v-2.4h0.6C205.7,115.5,207.1,114.4,207.3,112.2z M205.4,111.1c0.5,0,0.8-0.1,1.2-0.4
				c0.3-0.2,0.6-0.5,0.7-0.8v-1.2c0-1-0.2-1.7-0.5-2.2c-0.4-0.5-0.9-0.8-1.5-0.8s-1,0.3-1.4,0.8s-0.5,1.2-0.5,1.9
				c0,0.8,0.2,1.4,0.5,1.9C204.2,110.9,204.7,111.1,205.4,111.1z"/>
			<path class="st4" d="M222,117.9h-9.7V116l4.6-4.9c0.6-0.7,1.1-1.3,1.4-1.8s0.5-1,0.5-1.5c0-0.6-0.2-1.1-0.5-1.5s-0.8-0.5-1.4-0.5
				c-0.6,0-1.1,0.2-1.5,0.7c-0.4,0.4-0.6,1-0.6,1.7H212c0-0.9,0.2-1.7,0.6-2.4c0.4-0.7,1-1.3,1.8-1.7c0.8-0.4,1.6-0.6,2.6-0.6
				c1.5,0,2.6,0.4,3.4,1.1s1.2,1.7,1.2,3c0,0.7-0.2,1.4-0.5,2.1c-0.4,0.7-1,1.6-1.9,2.5l-3.2,3.4h6.1v2.3
				C222.1,117.9,222,117.9,222,117.9z"/>
			<path class="st4" d="M224,116.5c0-0.4,0.2-0.8,0.5-1.1s0.7-0.4,1.1-0.4c0.5,0,0.8,0.1,1.1,0.4s0.5,0.6,0.5,1.1
				c0,0.4-0.1,0.8-0.4,1.1c-0.3,0.3-0.7,0.4-1.2,0.4s-0.8-0.1-1.1-0.4C224.2,117.3,224,116.9,224,116.5z"/>
			<path class="st4" d="M229.6,113l0.6-5.1h5.6v1.6h-4l-0.2,2.1c0.5-0.3,1-0.4,1.5-0.4c0.9,0,1.7,0.3,2.2,0.9s0.8,1.4,0.8,2.5
				c0,0.6-0.1,1.2-0.4,1.7c-0.3,0.5-0.7,0.9-1.2,1.2s-1.1,0.4-1.8,0.4c-0.6,0-1.2-0.1-1.7-0.4c-0.5-0.2-0.9-0.6-1.2-1
				s-0.5-0.9-0.5-1.5h2c0,0.4,0.2,0.7,0.4,1c0.2,0.2,0.6,0.3,1,0.3s0.8-0.2,1-0.5s0.4-0.8,0.4-1.4s-0.1-1-0.4-1.3
				c-0.3-0.3-0.7-0.5-1.2-0.5s-0.8,0.1-1.1,0.4l-0.2,0.2L229.6,113z"/>
		</g>
		<g>
			<path class="st6" d="M69.3,266.9h-2.8V256l-3.4,1v-2.3l5.9-2.1h0.3V266.9z"/>
			<path class="st6" d="M81.9,261.6h1.6v2.3h-1.6v3.1h-2.8v-3.1h-5.8l-0.1-1.8l5.9-9.4H82L81.9,261.6L81.9,261.6z M76,261.6h3.1v-5
				l-0.2,0.3L76,261.6z"/>
			<path class="st6" d="M85.4,265.5c0-0.4,0.2-0.8,0.5-1.1s0.7-0.4,1.1-0.4c0.5,0,0.8,0.1,1.1,0.4s0.5,0.6,0.5,1.1
				c0,0.4-0.1,0.8-0.4,1.1S87.5,267,87,267s-0.8-0.1-1.1-0.4S85.4,266,85.4,265.5z"/>
			<path class="st6" d="M97.4,262.8c0,1.4-0.3,2.4-0.9,3.2s-1.4,1-2.5,1s-1.9-0.4-2.5-1.1s-0.9-1.7-0.9-3.1V261
				c0-1.4,0.3-2.4,0.9-3.2s1.4-1.1,2.5-1.1s1.9,0.4,2.5,1.1s0.9,1.7,0.9,3.1V262.8z M95.4,260.8c0-0.8-0.1-1.4-0.3-1.8
				s-0.6-0.6-1.1-0.6s-0.8,0.2-1,0.5s-0.3,0.9-0.4,1.7v2.4c0,0.8,0.1,1.4,0.3,1.8s0.6,0.6,1.1,0.6s0.8-0.2,1-0.6s0.3-1,0.3-1.7
				L95.4,260.8L95.4,260.8z"/>
			<path class="st6" d="M104.6,263.2h1.1v1.6h-1.1v2.2h-2v-2.2h-4.1l-0.1-1.2l4.1-6.6h2L104.6,263.2L104.6,263.2z M100.5,263.2h2.2
				v-3.5l-0.1,0.2L100.5,263.2z"/>
		</g>
		<g>
			<path class="st6" d="M157.8,245.4H148v-1.9l4.6-4.9c0.6-0.7,1.1-1.3,1.4-1.8s0.5-1,0.5-1.5c0-0.6-0.2-1.1-0.5-1.5
				s-0.8-0.5-1.4-0.5c-0.6,0-1.1,0.2-1.5,0.7c-0.4,0.4-0.6,1-0.6,1.7h-2.8c0-0.9,0.2-1.7,0.6-2.4s1-1.3,1.8-1.7s1.6-0.6,2.6-0.6
				c1.5,0,2.6,0.4,3.4,1.1s1.2,1.7,1.2,3c0,0.7-0.2,1.4-0.5,2.1c-0.4,0.7-1,1.6-1.9,2.5l-3.2,3.4h6.1L157.8,245.4L157.8,245.4z"/>
			<path class="st6" d="M159.6,238.4l0.8-7.2h8v2.4h-5.7l-0.4,3.1c0.7-0.4,1.4-0.5,2.1-0.5c1.4,0,2.4,0.4,3.2,1.3
				c0.8,0.8,1.2,2,1.2,3.5c0,0.9-0.2,1.7-0.6,2.5c-0.4,0.7-0.9,1.3-1.7,1.7s-1.6,0.6-2.6,0.6c-0.9,0-1.7-0.2-2.4-0.5
				s-1.3-0.8-1.7-1.5c-0.4-0.6-0.7-1.4-0.7-2.2h2.8c0.1,0.6,0.3,1.1,0.6,1.4c0.4,0.3,0.8,0.5,1.4,0.5c0.6,0,1.1-0.2,1.5-0.7
				c0.3-0.5,0.5-1.1,0.5-1.9c0-0.8-0.2-1.4-0.6-1.9c-0.4-0.4-1-0.6-1.7-0.6s-1.2,0.2-1.6,0.5l-0.3,0.3L159.6,238.4z"/>
			<path class="st6" d="M170.6,244c0-0.4,0.2-0.8,0.5-1.1s0.7-0.4,1.1-0.4c0.5,0,0.8,0.1,1.1,0.4s0.5,0.6,0.5,1.1
				c0,0.4-0.1,0.8-0.4,1.1c-0.3,0.3-0.7,0.4-1.2,0.4s-0.8-0.1-1.1-0.4C170.7,244.8,170.6,244.4,170.6,244z"/>
			<path class="st6" d="M177.9,239.5h1.1c0.5,0,0.9-0.1,1.1-0.4c0.2-0.3,0.4-0.6,0.4-1s-0.1-0.7-0.4-0.9s-0.6-0.3-1-0.3
				s-0.7,0.1-1,0.3s-0.4,0.5-0.4,0.8h-2c0-0.5,0.1-1,0.4-1.4c0.3-0.4,0.7-0.7,1.2-1c0.5-0.2,1.1-0.3,1.7-0.3c1.1,0,1.9,0.3,2.5,0.8
				s0.9,1.2,0.9,2.1c0,0.5-0.1,0.9-0.4,1.3c-0.3,0.4-0.6,0.7-1.1,0.9c0.6,0.2,1,0.5,1.3,0.9s0.4,0.9,0.4,1.4c0,0.9-0.3,1.6-1,2.1
				c-0.6,0.5-1.5,0.8-2.6,0.8c-1,0-1.8-0.3-2.4-0.8c-0.6-0.5-0.9-1.2-0.9-2.1h2c0,0.4,0.1,0.7,0.4,0.9s0.6,0.4,1,0.4
				c0.5,0,0.8-0.1,1.1-0.4c0.3-0.2,0.4-0.6,0.4-1c0-1-0.5-1.5-1.6-1.5h-1L177.9,239.5L177.9,239.5z"/>
			<path class="st6" d="M188.6,241.4c-0.5,0.5-1.1,0.8-1.8,0.8c-0.9,0-1.6-0.3-2.1-0.9c-0.5-0.6-0.8-1.4-0.8-2.4
				c0-0.7,0.1-1.2,0.4-1.8c0.3-0.5,0.7-1,1.2-1.3s1.1-0.5,1.7-0.5c0.7,0,1.2,0.2,1.8,0.5c0.5,0.3,0.9,0.8,1.2,1.4
				c0.3,0.6,0.4,1.3,0.4,2.1v0.7c0,1.7-0.4,3-1.2,3.9s-2,1.5-3.5,1.5h-0.5v-1.6h0.4C187.5,243.7,188.4,242.9,188.6,241.4z
				 M187.3,240.6c0.3,0,0.6-0.1,0.8-0.2c0.2-0.2,0.4-0.4,0.5-0.6V239c0-0.7-0.1-1.2-0.4-1.6c-0.3-0.4-0.6-0.6-1-0.6s-0.7,0.2-1,0.5
				c-0.3,0.4-0.4,0.8-0.4,1.4c0,0.5,0.1,1,0.4,1.3C186.5,240.4,186.8,240.6,187.3,240.6z"/>
		</g>
		<g>
			<path class="st6" d="M242.9,247.9h-9.7V246l4.6-4.9c0.6-0.7,1.1-1.3,1.4-1.8s0.5-1,0.5-1.5c0-0.6-0.2-1.1-0.5-1.5
				s-0.8-0.5-1.4-0.5c-0.6,0-1.1,0.2-1.5,0.7c-0.4,0.4-0.6,1-0.6,1.7h-2.8c0-0.9,0.2-1.7,0.6-2.4c0.4-0.7,1-1.3,1.8-1.7
				s1.6-0.6,2.6-0.6c1.5,0,2.6,0.4,3.4,1.1s1.2,1.7,1.2,3c0,0.7-0.2,1.4-0.5,2.1c-0.4,0.7-1,1.6-1.9,2.5l-3.2,3.4h6.1v2.3
				L242.9,247.9L242.9,247.9z"/>
			<path class="st6" d="M252.6,242.5h1.6v2.3h-1.6v3.1h-2.8v-3.1H244l-0.1-1.8l5.9-9.4h2.9L252.6,242.5L252.6,242.5z M246.7,242.5
				h3.1v-5l-0.2,0.3L246.7,242.5z"/>
			<path class="st6" d="M256.1,246.5c0-0.4,0.2-0.8,0.5-1.1s0.7-0.4,1.1-0.4c0.5,0,0.8,0.1,1.1,0.4s0.5,0.6,0.5,1.1
				c0,0.4-0.2,0.8-0.4,1.1c-0.3,0.3-0.7,0.4-1.2,0.4s-0.8-0.1-1.1-0.4C256.2,247.3,256.1,246.9,256.1,246.5z"/>
			<path class="st6" d="M268.1,243.8c0,1.4-0.3,2.4-0.9,3.2c-0.6,0.7-1.4,1.1-2.5,1.1s-1.9-0.4-2.5-1.1s-0.9-1.7-0.9-3.1V242
				c0-1.4,0.3-2.4,0.9-3.2c0.6-0.7,1.4-1.1,2.5-1.1s1.9,0.4,2.5,1.1c0.6,0.7,0.9,1.7,0.9,3.1V243.8z M266.1,241.8
				c0-0.8-0.1-1.4-0.3-1.8s-0.6-0.6-1.1-0.6s-0.8,0.2-1,0.5c-0.2,0.4-0.3,0.9-0.4,1.7v2.4c0,0.8,0.1,1.4,0.3,1.8
				c0.2,0.4,0.6,0.6,1.1,0.6s0.8-0.2,1-0.6c0.2-0.4,0.3-1,0.3-1.7v-2.3L266.1,241.8L266.1,241.8z"/>
			<path class="st6" d="M269.8,243l0.6-5.1h5.6v1.6h-4l-0.2,2.1c0.5-0.3,1-0.4,1.5-0.4c0.9,0,1.7,0.3,2.2,0.9
				c0.5,0.6,0.8,1.4,0.8,2.5c0,0.6-0.1,1.2-0.4,1.7s-0.7,0.9-1.2,1.2s-1.1,0.4-1.8,0.4c-0.6,0-1.2-0.1-1.7-0.4
				c-0.5-0.2-0.9-0.6-1.2-1c-0.3-0.4-0.5-0.9-0.5-1.5h2c0,0.4,0.2,0.7,0.4,1c0.2,0.2,0.6,0.3,1,0.3s0.8-0.2,1-0.5s0.4-0.8,0.4-1.4
				c0-0.6-0.1-1-0.4-1.3s-0.7-0.5-1.2-0.5s-0.8,0.1-1.1,0.4l-0.2,0.2L269.8,243z"/>
		</g>
		<g>
			<g>
				<path class="st1" d="M50.9,327.4h-1.3V319l-2.5,0.9v-1.1l3.6-1.4h0.2V327.4z"/>
				<path class="st1" d="M68.4,325.3h-5.1v3.2h-1.1v-3.2h-6.5v-1H58v-3.8h4.2v-2.1h-3.4c-0.6,1.1-1.4,2-2.1,2.8
					c-0.2-0.2-0.6-0.5-0.9-0.7c1.3-1.1,2.5-3,3.2-4.8l1.1,0.3c-0.2,0.5-0.4,1-0.6,1.5h8.3v1h-4.4v2.1h4.1v1h-4.1v2.8h5.1L68.4,325.3
					L68.4,325.3z M62.3,324.3v-2.8h-3.1v2.8H62.3z"/>
				<path class="st1" d="M73.8,318.9c-0.4,0.7-0.8,1.3-1.2,1.9v7.7h-1V322c-0.4,0.5-0.9,0.9-1.3,1.3c-0.1-0.2-0.4-0.7-0.6-0.9
					c1.2-1,2.5-2.4,3.2-3.9L73.8,318.9z M73.5,316.1c-0.8,1.2-2,2.5-3.1,3.3c-0.1-0.2-0.4-0.6-0.6-0.8c1-0.7,2.2-1.9,2.7-2.9
					L73.5,316.1z M81.3,323.2c-0.6,1.3-1.5,2.4-2.7,3.2c1.1,0.5,2.4,1,3.7,1.2c-0.2,0.2-0.5,0.6-0.6,0.9c-1.5-0.3-2.8-0.8-4-1.5
					c-1.3,0.7-2.7,1.2-4.1,1.6c-0.1-0.3-0.3-0.7-0.5-0.9c1.3-0.2,2.6-0.7,3.7-1.2c-0.6-0.4-1.1-0.9-1.6-1.4
					c-0.4,0.3-0.7,0.6-1.1,0.9c-0.1-0.2-0.5-0.6-0.7-0.8c0.4-0.3,0.8-0.6,1.2-0.9c-0.3-0.3-0.5-0.7-0.7-1.1l0.9-0.3
					c0.1,0.3,0.3,0.5,0.4,0.7c0.5-0.5,1-1.1,1.3-1.8c-2,0.1-2.4,0.2-2.6,0.3c0-0.2-0.2-0.7-0.3-1c0.4-0.1,0.9-0.3,1.6-0.7
					c0.3-0.2,1-0.6,1.8-1.1c-2.1,0.1-2.5,0.2-2.7,0.3c0-0.2-0.2-0.7-0.3-1c0.3,0,0.6-0.2,0.9-0.5c0.4-0.3,1.6-1.3,2.5-2.3l1,0.4
					c-0.8,0.9-1.8,1.7-2.7,2.3l2.5-0.1c0.6-0.5,1.3-1,1.8-1.5l1,0.5c-1.7,1.4-3.4,2.5-5.1,3.4l4.4-0.2c-0.3-0.4-0.6-0.8-1-1.2
					l0.8-0.4c0.8,0.9,1.8,2.2,2.3,3l-0.9,0.5c-0.2-0.3-0.4-0.7-0.7-1.1l-3.1,0.2c-0.2,0.4-0.4,0.8-0.7,1.1h3.4h0.2L81.3,323.2z
					 M76.4,323.7c-0.2,0.2-0.3,0.4-0.5,0.6c0.5,0.6,1.1,1.1,1.8,1.5c0.9-0.6,1.6-1.3,2.1-2.1H76.4z"/>
			</g>
		</g>
		<g>
			<g>
				<path class="st1" d="M138.7,327.4h-6.5v-0.9l3.4-3.8c0.5-0.6,0.9-1,1.1-1.4c0.2-0.4,0.3-0.7,0.3-1.1c0-0.5-0.2-0.9-0.5-1.3
					s-0.7-0.5-1.3-0.5s-1.1,0.2-1.5,0.5c-0.3,0.4-0.5,0.9-0.5,1.5H132c0-0.9,0.3-1.7,0.9-2.2s1.4-0.8,2.4-0.8c0.9,0,1.7,0.2,2.2,0.7
					s0.8,1.1,0.8,1.9c0,1-0.6,2.1-1.9,3.5l-2.7,2.9h5V327.4z"/>
				<path class="st1" d="M153.9,325.3h-5.1v3.2h-1.1v-3.2h-6.5v-1h2.3v-3.8h4.2v-2.1h-3.4c-0.6,1.1-1.4,2-2.1,2.8
					c-0.2-0.2-0.6-0.5-0.9-0.7c1.3-1.1,2.5-3,3.2-4.8l1.1,0.3c-0.2,0.5-0.4,1-0.6,1.5h8.3v1h-4.4v2.1h4.1v1h-4.1v2.8h5.1v0.9
					L153.9,325.3L153.9,325.3z M147.8,324.3v-2.8h-3.1v2.8H147.8z"/>
				<path class="st1" d="M159.3,318.9c-0.4,0.7-0.8,1.3-1.2,1.9v7.7h-1V322c-0.4,0.5-0.9,0.9-1.3,1.3c-0.1-0.2-0.4-0.7-0.6-0.9
					c1.2-1,2.5-2.4,3.2-3.9L159.3,318.9z M159,316.1c-0.8,1.2-2,2.5-3.1,3.3c-0.1-0.2-0.4-0.6-0.6-0.8c1-0.7,2.2-1.9,2.7-2.9
					L159,316.1z M166.8,323.2c-0.6,1.3-1.5,2.4-2.7,3.2c1.1,0.5,2.4,1,3.7,1.2c-0.2,0.2-0.5,0.6-0.6,0.9c-1.5-0.3-2.8-0.8-4-1.5
					c-1.3,0.7-2.7,1.2-4.1,1.6c-0.1-0.3-0.3-0.7-0.5-0.9c1.3-0.2,2.6-0.7,3.7-1.2c-0.6-0.4-1.1-0.9-1.6-1.4
					c-0.4,0.3-0.7,0.6-1.1,0.9c-0.1-0.2-0.5-0.6-0.7-0.8c0.4-0.3,0.8-0.6,1.2-0.9c-0.3-0.3-0.5-0.7-0.7-1.1l0.9-0.3
					c0.1,0.3,0.3,0.5,0.4,0.7c0.5-0.5,1-1.1,1.3-1.8c-2,0.1-2.4,0.2-2.6,0.3c0-0.2-0.2-0.7-0.3-1c0.4-0.1,0.9-0.3,1.6-0.7
					c0.3-0.2,1-0.6,1.8-1.1c-2.1,0.1-2.5,0.2-2.7,0.3c0-0.2-0.2-0.7-0.3-1c0.3,0,0.6-0.2,0.9-0.5c0.4-0.3,1.6-1.3,2.5-2.3l1,0.4
					c-0.8,0.9-1.8,1.7-2.7,2.3l2.5-0.1c0.6-0.5,1.3-1,1.8-1.5l1,0.5c-1.7,1.4-3.4,2.5-5.1,3.4l4.4-0.2c-0.3-0.4-0.6-0.8-1-1.2
					l0.8-0.4c0.8,0.9,1.8,2.2,2.3,3l-0.9,0.5c-0.2-0.3-0.4-0.7-0.7-1.1l-3.1,0.2c-0.2,0.4-0.4,0.8-0.7,1.1h3.4h0.2L166.8,323.2z
					 M161.9,323.7c-0.2,0.2-0.3,0.4-0.5,0.6c0.5,0.6,1.1,1.1,1.8,1.5c0.9-0.6,1.6-1.3,2.1-2.1H161.9z"/>
			</g>
		</g>
		<g>
			<g>
				<path class="st1" d="M219.7,321.8h1c0.6,0,1.1-0.2,1.4-0.5s0.5-0.7,0.5-1.2c0-1.2-0.6-1.8-1.7-1.8c-0.5,0-1,0.2-1.3,0.5
					s-0.5,0.7-0.5,1.2h-1.3c0-0.8,0.3-1.4,0.9-2c0.6-0.5,1.3-0.8,2.2-0.8s1.7,0.2,2.2,0.7s0.8,1.2,0.8,2.1c0,0.4-0.1,0.9-0.4,1.3
					s-0.7,0.7-1.1,0.9c0.5,0.2,1,0.5,1.3,0.9s0.4,0.9,0.4,1.5c0,0.9-0.3,1.6-0.9,2.1c-0.6,0.5-1.3,0.8-2.3,0.8
					c-0.9,0-1.7-0.3-2.3-0.8s-0.9-1.2-0.9-2h1.3c0,0.5,0.2,0.9,0.5,1.3s0.8,0.5,1.4,0.5c0.6,0,1.1-0.2,1.4-0.5
					c0.3-0.3,0.5-0.8,0.5-1.4s-0.2-1-0.5-1.3s-0.9-0.5-1.5-0.5h-1L219.7,321.8L219.7,321.8z"/>
				<path class="st1" d="M239.6,325.3h-5.1v3.2h-1.1v-3.2H227v-1h2.3v-3.8h4.2v-2.1H230c-0.6,1.1-1.4,2-2.1,2.8
					c-0.2-0.2-0.6-0.5-0.9-0.7c1.3-1.1,2.5-3,3.2-4.8l1,0.3c-0.2,0.5-0.4,1-0.6,1.5h8.3v1h-4.4v2.1h4.1v1h-4.1v2.8h5.1V325.3z
					 M233.4,324.3v-2.8h-3.1v2.8H233.4z"/>
				<path class="st1" d="M245,318.9c-0.3,0.7-0.8,1.3-1.2,1.9v7.7h-1V322c-0.4,0.5-0.9,0.9-1.3,1.3c-0.1-0.2-0.4-0.7-0.6-0.9
					c1.2-1,2.5-2.4,3.2-3.9L245,318.9z M244.7,316.1c-0.8,1.2-2,2.5-3.1,3.3c-0.1-0.2-0.4-0.6-0.6-0.8c1-0.7,2.2-1.9,2.7-2.9
					L244.7,316.1z M252.4,323.2c-0.6,1.3-1.5,2.4-2.7,3.2c1.1,0.5,2.4,1,3.7,1.2c-0.2,0.2-0.5,0.6-0.6,0.9c-1.5-0.3-2.8-0.8-4-1.5
					c-1.3,0.7-2.7,1.2-4.1,1.6c-0.1-0.3-0.3-0.7-0.5-0.9c1.3-0.2,2.6-0.7,3.7-1.2c-0.6-0.4-1.1-0.9-1.6-1.4
					c-0.4,0.3-0.7,0.6-1.1,0.9c-0.1-0.2-0.5-0.6-0.7-0.8c0.4-0.3,0.8-0.6,1.2-0.9c-0.3-0.3-0.5-0.7-0.7-1.1l0.9-0.3
					c0.1,0.3,0.3,0.5,0.4,0.7c0.5-0.5,1-1.1,1.3-1.8c-2,0.1-2.4,0.2-2.6,0.3c0-0.2-0.2-0.7-0.3-1c0.4-0.1,0.9-0.3,1.6-0.7
					c0.3-0.2,1-0.6,1.8-1.1c-2.1,0.1-2.5,0.2-2.7,0.3c0-0.2-0.2-0.7-0.3-1c0.3,0,0.6-0.2,0.9-0.5c0.4-0.3,1.6-1.3,2.5-2.3l1,0.4
					c-0.8,0.9-1.8,1.7-2.7,2.3l2.5-0.1c0.6-0.5,1.3-1,1.8-1.5l1,0.5c-1.7,1.4-3.4,2.5-5.1,3.4l4.4-0.2c-0.3-0.4-0.6-0.8-1-1.2
					l0.8-0.4c0.8,0.9,1.8,2.2,2.3,3l-0.9,0.5c-0.2-0.3-0.4-0.7-0.7-1.1l-3.1,0.2c-0.2,0.4-0.4,0.8-0.7,1.1h3.4h0.2L252.4,323.2z
					 M247.6,323.7c-0.2,0.2-0.3,0.4-0.5,0.6c0.5,0.6,1.1,1.1,1.8,1.5c0.9-0.6,1.6-1.3,2.1-2.1H247.6z"/>
			</g>
		</g>
		<line class="st7" x1="22.5" y1="301.2" x2="277.5" y2="301.2"/>
		<polygon class="st8" points="57.5,74.2 65.8,74.2 65.8,82.6 57.5,82.6 		"/>
		<polygon class="st9" points="173.9,74.2 182.2,74.2 182.2,82.6 173.9,82.6 		"/>
		<g>
			<path class="st4" d="M78.3,72.4c1.3,1.9,3.7,3.8,5.9,4.7c-0.2,0.2-0.6,0.6-0.7,0.9c-2.1-1-4.3-2.8-5.8-4.7
				c-1.4,1.8-3.8,3.7-5.8,4.8c-0.1-0.3-0.4-0.6-0.6-0.8c1.7-0.8,3.8-2.4,5.2-3.9H74v-1H78.3z M78.3,83.5h5.5v1H71.9v-1h5.3v-2.3
				h-3.9v-0.9h3.9v-2.1h-3.3v-0.9h7.8v0.9h-3.4v2.1h4v0.9h-4V83.5z"/>
			<path class="st4" d="M90,82c-1.6,0.5-3.2,1-4.5,1.4l-0.2-1c0.5-0.1,1.1-0.3,1.8-0.5V78h-1.6v-1h1.6v-3h-1.7v-1h4.3v1h-1.6v3h1.4
				v1h-1.4v3.6l1.7-0.5L90,82z M98,76.7c-0.7,1-1.7,2.2-2.4,3c0.6,1.4,1.5,2.4,2.9,3.3c-0.2,0.2-0.5,0.5-0.7,0.8
				c-1.6-1.2-2.6-2.5-3.2-4.2v3.9c0,0.6-0.2,0.9-0.5,1.1c-0.4,0.2-1,0.2-2.1,0.2c-0.1-0.3-0.2-0.7-0.4-1c0.8,0,1.5,0,1.7,0
				s0.3-0.1,0.3-0.3v-3.3c-1.1,1.2-2.3,2.3-3.3,3.2l-0.6-0.9c1-0.8,2.5-2.2,3.9-3.5v-3.6h-3.4v-1h3.4V72h1v2.4h3.7v1h-3.7V76
				c0.2,1.1,0.4,2.1,0.7,2.9c0.7-0.8,1.4-1.8,1.9-2.6L98,76.7z M91.1,76.3c0.6,0.8,1.3,1.9,1.5,2.6l-0.9,0.4
				c-0.3-0.7-0.9-1.8-1.5-2.6L91.1,76.3z M96.8,74.3c-0.3-0.5-1-1.1-1.7-1.5l0.6-0.5c0.6,0.4,1.3,1,1.7,1.5L96.8,74.3z"/>
			<path class="st4" d="M106.3,73.8c-0.2,0.7-0.4,1.4-0.5,2.1h4.7v9h-1.1V84h-7v0.9h-1v-9h3.4c0.1-0.6,0.3-1.4,0.4-2.1h-5.4v-1h12.1
				v1H106.3z M109.4,76.9h-7v2.5h7V76.9z M109.4,83v-2.6h-7V83H109.4z"/>
			<path class="st4" d="M120.7,77.1c1,3.1,2.8,5.6,5.5,6.7c-0.3,0.2-0.6,0.7-0.8,1c-2.7-1.3-4.5-3.8-5.6-6.9
				c-0.7,2.7-2.2,5.4-5.6,6.9c-0.2-0.3-0.5-0.6-0.8-0.9c3.5-1.5,4.9-4.2,5.4-6.9h-5.2v-1.1h5.3c0.2-1.5,0.2-2.9,0.2-4h1.1
				c0,1.1,0,2.5-0.2,4h5.8V77L120.7,77.1C120.7,77,120.7,77.1,120.7,77.1z"/>
			<path class="st4" d="M134.7,72.4c-0.1,0.2-0.2,0.3-0.3,0.4c1.8,2,3.8,3.2,6,4.2c-0.2,0.2-0.5,0.6-0.7,0.9c-2.1-1-4.1-2.2-5.9-4.3
				c-1.5,1.8-3.6,3.3-5.8,4.3c-0.2-0.3-0.4-0.6-0.7-0.9c2.6-1,5.1-3,6.5-5.1L134.7,72.4z M134.5,83.5h5.4v1H128v-1h1.8v-5.2h1v5.2
				h2.6v-7.6h1.1v3.2h4V80h-4L134.5,83.5L134.5,83.5z"/>
			<path class="st4" d="M146.6,82.6c-1,0.8-2.8,1.5-4.3,1.8c-0.1-0.3-0.4-0.6-0.6-0.8c1.4-0.2,3.2-0.8,4.1-1.4L146.6,82.6z
				 M153.9,80.7v0.9h-5.6v3.3h-1v-3.3h-5.5v-0.9h5.5v-1.1H143v-0.8h4.2v-1h-4.9V77h3c-0.1-0.4-0.4-0.9-0.7-1.3l0.7-0.2h-3.6v-0.9
				h2.3c-0.2-0.6-0.7-1.4-1.1-2l0.9-0.3c0.5,0.6,1,1.5,1.2,2.1l-0.7,0.3h1.7v-2.5h1v2.5h1.7v-2.5h1v2.5h1.7l-0.6-0.2
				c0.4-0.6,0.8-1.5,1.1-2.1l1.1,0.3c-0.4,0.7-0.9,1.5-1.2,2h2.2v0.9h-3.6l0.9,0.3c-0.3,0.5-0.7,0.9-1,1.3h3.2V78h-5.1v1h4.4v0.8
				h-4.4v1.1h5.5L153.9,80.7L153.9,80.7z M145.6,75.4c0.3,0.4,0.6,1,0.7,1.4l-0.6,0.2h3.9l-0.5-0.2c0.3-0.4,0.6-1,0.8-1.4H145.6z
				 M149.8,82.2c1.3,0.4,3.1,1.1,4.1,1.6l-0.6,0.7c-0.9-0.4-2.7-1.2-4-1.7L149.8,82.2z"/>
		</g>
		<g>
			<path class="st6" d="M190.8,79.5v3.9c0,0.6-0.2,0.9-0.5,1c-0.3,0.2-0.9,0.2-1.9,0.2c0-0.3-0.2-0.7-0.3-1c0.7,0,1.3,0,1.4,0
				c0.2,0,0.3-0.1,0.3-0.3v-3.6l-1.8,0.5l-0.3-1c0.6-0.1,1.3-0.3,2.1-0.6v-3h-1.9v-1h1.9V72h1v2.8h1.7v1h-1.7v2.7l1.3-0.4l0.1,1
				L190.8,79.5z M199.6,78.4c-0.6,1.7-1.5,3-2.7,4c1.1,0.7,2.3,1.1,3.7,1.4c-0.2,0.2-0.5,0.7-0.7,1c-1.5-0.4-2.8-1-3.9-1.8
				c-1.2,0.8-2.6,1.4-4.1,1.8c-0.1-0.3-0.3-0.7-0.5-1c1.3-0.3,2.6-0.8,3.8-1.5c-1-0.9-1.7-2-2.3-3.2L193,79h-0.5v-1h6.3h0.2
				L199.6,78.4z M194.8,74.1c0,1.2-0.4,2.7-2.1,3.7c-0.1-0.2-0.5-0.6-0.7-0.8c1.5-0.9,1.8-2,1.8-3v-1.5h4.4v3.2c0,0.4,0,0.5,0.3,0.5
				h1.1c0.2,0,0.5,0,0.7-0.1c0,0.3,0,0.7,0.1,0.9c-0.2,0.1-0.5,0.1-0.8,0.1h-1.2c-1,0-1.2-0.4-1.2-1.4v-2.2h-2.4L194.8,74.1
				L194.8,74.1z M193.9,79.1c0.5,1,1.2,1.9,2.1,2.7c0.9-0.7,1.7-1.6,2.2-2.7H193.9z"/>
			<path class="st6" d="M205.9,75.8h-4V75h4V75.8z M207,83.1c-1.1,0.7-2.9,1.3-4.3,1.7c-0.2-0.2-0.5-0.6-0.8-0.8
				c1.4-0.3,3.1-0.8,4.1-1.3L207,83.1z M205.6,73.6h-3.3v-0.8h3.3V73.6z M203.7,76.9h9.1v5.6h-9.1V76.9z M204.7,78.6h7v-1h-7V78.6z
				 M204.7,80.2h7v-1h-7V80.2z M204.7,81.9h7v-1h-7V81.9z M208.1,73.8c-0.3,0.5-0.7,1-1,1.4c-0.2-0.2-0.6-0.4-0.8-0.5
				c0.7-0.7,1.3-1.6,1.6-2.7l0.9,0.2c-0.1,0.3-0.2,0.5-0.3,0.8h4.7h0.2l0.7,0.2c-0.3,0.7-0.8,1.5-1.2,2l-0.8-0.3
				c0.2-0.3,0.5-0.7,0.7-1.1h-2.2V74c0,0.1,0,0.3,0,0.5c0.7,0.8,2.3,1.4,4.1,1.5c-0.2,0.2-0.5,0.6-0.6,0.8c-1.6-0.2-2.9-0.8-3.8-1.6
				c-0.5,0.7-1.6,1.3-4,1.7c-0.1-0.2-0.4-0.6-0.6-0.8c3.6-0.5,4-1.4,4-2.2v-0.1C209.7,73.8,208.1,73.8,208.1,73.8z M210.2,82.6
				c1.5,0.5,3.1,1.1,4.1,1.5l-0.9,0.6c-0.9-0.4-2.4-1.1-3.9-1.6L210.2,82.6z"/>
			<path class="st6" d="M220.5,80.4c0-0.2-0.1-0.5-0.2-0.8c-3.2,0.5-3.7,0.6-4,0.8c-0.1-0.2-0.2-0.7-0.3-1c0.3-0.1,0.6-0.4,1-0.9
				c0.2-0.3,0.7-0.8,1.2-1.6c-1.5,0.2-1.8,0.3-2,0.3c-0.1-0.2-0.2-0.7-0.3-1c0.2-0.1,0.5-0.4,0.8-0.8s1.3-2,1.8-3.5l1,0.4
				c-0.6,1.3-1.4,2.6-2.2,3.7l1.5-0.1c0.4-0.6,0.7-1.2,1.1-1.9l0.9,0.5c-0.9,1.6-2,3.2-3.2,4.5l2.4-0.4c-0.2-0.4-0.3-0.9-0.5-1.3
				l0.7-0.3c0.5,0.9,0.9,2.1,1,2.8L220.5,80.4z M217.4,81.1c-0.1,1.2-0.4,2.5-0.7,3.4c-0.2-0.1-0.6-0.2-0.8-0.3
				c0.3-0.9,0.5-2.1,0.7-3.2L217.4,81.1z M218.9,80.9c0.2,0.9,0.3,2,0.4,2.8l-0.8,0.2c0-0.8-0.2-1.9-0.3-2.8L218.9,80.9z
				 M220.4,80.6c0.3,0.7,0.6,1.7,0.7,2.3l-0.8,0.3c-0.1-0.6-0.4-1.6-0.7-2.3L220.4,80.6z M228.2,76.8c-0.4,2-1.1,3.7-2,5.1
				c0.7,0.9,1.5,1.5,2.5,2c-0.2,0.2-0.6,0.6-0.7,0.9c-0.9-0.5-1.7-1.2-2.4-2c-0.7,0.9-1.6,1.6-2.5,2.1c-0.1-0.3-0.4-0.6-0.7-0.8
				c0.9-0.5,1.8-1.2,2.5-2.2c-0.7-1.1-1.2-2.5-1.6-4c-0.3,2.8-0.8,5-2.1,6.8c-0.2-0.2-0.7-0.5-0.9-0.6c1.8-2.3,2.1-5.9,2.2-10.4
				h-1.4v-1h4.9l0.2-0.1l0.7,0.1c-0.2,1.1-0.4,2.7-0.6,3.9h1h0.2L228.2,76.8z M223.6,73.6c0,1.1-0.1,2.1-0.1,3h1.9
				c0.2-0.9,0.4-2.1,0.5-3H223.6z M224.2,77.6c0.3,1.2,0.8,2.4,1.4,3.4c0.6-1,1.1-2.1,1.4-3.4H224.2z"/>
			<path class="st6" d="M233.9,72.3c-0.4,1-0.8,2-1.4,2.9v9.6h-1v-8c-0.5,0.6-1,1.2-1.4,1.7c-0.1-0.2-0.4-0.8-0.6-1
				c1.4-1.3,2.7-3.4,3.5-5.5L233.9,72.3z M237.4,83c-0.8,0.7-2.2,1.4-3.3,1.8c-0.2-0.2-0.6-0.6-0.8-0.7c1.1-0.3,2.4-0.9,3.1-1.5
				L237.4,83z M242.5,75.6v0.8h-9.1v-0.8h4.1v-0.8h-3.1v-0.7h3.1v-0.7H234v-0.7h3.4V72h1v0.8h3.6v0.7h-3.6v0.7h3.2v0.7h-3.2v0.8
				L242.5,75.6L242.5,75.6z M241.6,82.3h-7.1V77h7.1V82.3z M240.6,77.8h-5.1v0.9h5.1V77.8z M240.6,79.3h-5.1v0.9h5.1V79.3z
				 M240.6,80.7h-5.1v0.9h5.1V80.7z M239.8,82.5c1,0.5,2.1,1.3,2.7,1.8l-0.9,0.6c-0.6-0.5-1.8-1.3-2.7-1.9L239.8,82.5z"/>
		</g>
	</g>
</g>
</svg>
