<?xml version="1.0" encoding="utf-8"?>
<!-- Generator: Adobe Illustrator 26.3.1, SVG Export Plug-In . SVG Version: 6.00 Build 0)  -->
<svg version="1.1" id="圖層_1" xmlns="http://www.w3.org/2000/svg" xmlns:xlink="http://www.w3.org/1999/xlink" x="0px" y="0px"
	 viewBox="0 0 300 350" style="enable-background:new 0 0 300 350;" xml:space="preserve">
<style type="text/css">
	.st0{fill:#FFFFFF;}
	.st1{fill:#CCCCCC;}
	.st2{fill:#BB022C;}
	.st3{fill:#002362;}
	.st4{fill:#C61026;}
	.st5{fill:none;stroke:#CCCCCC;stroke-linejoin:round;stroke-miterlimit:10;}
</style>
<g>
	<path class="st0" d="M280,0c9.3,0,17,7.5,17,16.9v316.2c0,9.3-7.6,16.9-17,16.9H20c-9.3,0-17-7.5-17-16.9V16.9C3,7.6,10.6,0,20,0
		L280,0z"/>
	<g>
		<g id="XMLID_6890_">
			<g>
				<path id="XMLID_00000181779049086045914380000008409248192293952445_" class="st0" d="M120.3,31.9c0,8.3-6.7,15-15,15
					s-15-6.7-15-15c0-7.7,5.8-14,13.2-14.9h3.6C114.6,17.9,120.3,24.3,120.3,31.9z"/>
				<path class="st1" d="M105.3,47.4c-8.5,0-15.5-7-15.5-15.5c0-7.8,5.9-14.5,13.6-15.4l3.7,0c7.8,0.9,13.7,7.6,13.7,15.4
					C120.8,40.4,113.8,47.4,105.3,47.4z M107,17.5l-3.5,0c-7.2,0.9-12.7,7.1-12.7,14.4c0,8,6.5,14.5,14.5,14.5s14.5-6.5,14.5-14.5
					C119.8,24.6,114.3,18.4,107,17.5z"/>
			</g>
			<circle id="XMLID_6891_" class="st2" cx="105.3" cy="32" r="9"/>
		</g>
		<g>
			<path class="st3" d="M146.3,23.9v16.6h-1.6v-1.2h-9.9v1.3h-1.5V23.9H146.3z M134.8,25.4v5.4h9.9v-5.4H134.8z M144.7,37.8v-5.6
				h-9.9v5.6H144.7z"/>
			<path class="st3" d="M162.2,28.2c1.4,3.4,4,6.5,6.7,8.1c-0.4,0.3-0.9,0.9-1.1,1.3c-3-1.9-5.5-5.5-7-9.4h-0.3v7.4h4.6v1.5h-4.6
				v3.7H159v-3.7h-4.6v-1.5h4.6v-7.4h-0.3c-1.5,3.9-4.1,7.5-7,9.4c-0.2-0.4-0.7-0.9-1.1-1.2c2.6-1.6,5.1-4.9,6.6-8.2h-6v-1.5h7.9
				v-4.2h1.5v4.2h7.9v1.5H162.2z"/>
			<path class="st3" d="M177.4,39c0,0.8-0.2,1.2-0.6,1.5c-0.5,0.2-1.2,0.3-2.5,0.3c-0.1-0.4-0.2-1-0.4-1.4c0.9,0,1.6,0,1.9,0
				c0.2,0,0.3-0.1,0.3-0.4v-5.4c-0.8,0.5-1.7,1-2.4,1.5l-0.6-1.2c-0.1,2.5-0.5,5.1-1.5,7.1c-0.3-0.2-0.9-0.6-1.2-0.7
				c1.3-2.8,1.4-6.8,1.4-9.7v-7.1h5.5V39H177.4z M173.2,30.4c0,0.9,0,2-0.1,3.1c0.8-0.3,1.8-0.8,2.9-1.3v-2.3l-0.8,0.6
				c-0.4-0.6-1.3-1.6-2.1-2.4v2.3H173.2z M173.2,24.7v3.1l0.7-0.5c0.8,0.7,1.7,1.6,2.2,2.2v-4.8H173.2z M188.1,31.7
				c-0.8,2.5-2,4.4-3.7,5.9c1.3,0.9,2.7,1.6,4.4,2c-0.4,0.3-0.8,0.9-1,1.3c-1.7-0.5-3.3-1.3-4.6-2.4c-1.4,1-3,1.8-4.8,2.3
				c-0.2-0.4-0.5-1-0.8-1.3c1.6-0.4,3.1-1.1,4.5-2c-1.3-1.3-2.3-2.8-3-4.6l0.3-0.1h-1v-1.4h8.4l0.2-0.1L188.1,31.7z M181.8,25.5
				c0,1.8-0.5,3.9-3,5.3c-0.2-0.3-0.7-0.8-1-1c2.2-1.2,2.5-2.9,2.5-4.3v-2.2h6.1V28c0,0.5,0,0.7,0.3,0.7h1.1c0.2,0,0.6,0,0.9-0.1
				c0,0.4,0.1,0.9,0.1,1.2c-0.2,0.1-0.6,0.1-0.9,0.1h-1.2c-1.3,0-1.6-0.6-1.6-2v-3.2h-3.3L181.8,25.5L181.8,25.5z M180.6,32.7
				c0.6,1.5,1.6,2.8,2.7,3.9c1.2-1.1,2.2-2.4,2.8-3.9H180.6z"/>
			<path class="st3" d="M200.4,26.9v2.7h6.5v7c0,0.9-0.2,1.3-0.8,1.6c-0.7,0.2-1.8,0.3-3.5,0.3c-0.1-0.5-0.3-1.1-0.5-1.5
				c1.4,0,2.6,0,2.9,0c0.4,0,0.5-0.1,0.5-0.4v-5.5h-5v9.7H199v-9.7h-4.7v7.4h-1.5v-8.9h6.2v-2.7h-8.1v-1.5h8.5
				c-0.3-0.8-0.9-1.8-1.3-2.6l1.4-0.4c0.6,0.9,1.3,2.2,1.6,3l-0.3,0.1h7.9V27h-8.3V26.9z"/>
		</g>
	</g>
	<g>
		<polygon class="st4" points="51.7,213.4 77.7,213.4 77.7,301.2 51.7,301.2 		"/>
		<polygon class="st4" points="137,177.4 163,177.4 163,301.2 137,301.2 		"/>
		<polygon class="st4" points="222.3,110.4 248.3,110.4 248.3,301.2 222.3,301.2 		"/>
		<g>
			<g>
				<path class="st4" d="M50,205.8h-2.8v-10.9l-3.4,1v-2.3l5.9-2.1H50V205.8z"/>
				<path class="st4" d="M64.3,193.2l-5.5,12.6h-3l5.5-11.9h-7.1v-2.3h10L64.3,193.2L64.3,193.2z"/>
				<path class="st4" d="M66.5,204.4c0-0.4,0.2-0.8,0.5-1.1s0.7-0.4,1.1-0.4c0.5,0,0.8,0.1,1.1,0.4s0.5,0.6,0.5,1.1
					c0,0.4-0.1,0.8-0.4,1.1s-0.7,0.4-1.2,0.4s-0.8-0.1-1.1-0.4S66.5,204.9,66.5,204.4z"/>
				<path class="st4" d="M76.6,205.8h-2v-7.6l-2.4,0.7v-1.6l4.1-1.5h0.2v10H76.6z"/>
				<path class="st4" d="M85.7,202.1h1.1v1.6h-1.1v2.2h-2v-2.2h-4.1l-0.1-1.2l4.1-6.6h2L85.7,202.1L85.7,202.1z M81.5,202.1h2.2
					v-3.5l-0.1,0.2L81.5,202.1z"/>
			</g>
		</g>
		<g>
			<g>
				<path class="st4" d="M138.2,169.8h-9.7v-1.9l4.6-4.9c0.6-0.7,1.1-1.3,1.4-1.8s0.5-1,0.5-1.5c0-0.6-0.2-1.1-0.5-1.5
					s-0.8-0.5-1.4-0.5c-0.6,0-1.1,0.2-1.5,0.7s-0.6,1-0.6,1.7h-2.8c0-0.9,0.2-1.7,0.6-2.4s1-1.3,1.8-1.7s1.6-0.6,2.6-0.6
					c1.5,0,2.6,0.4,3.4,1.1s1.2,1.7,1.2,3c0,0.7-0.2,1.4-0.5,2.1s-1,1.6-1.9,2.5l-3.2,3.4h6.1v2.3H138.2z"/>
				<path class="st4" d="M148.3,164.5h1.6v2.3h-1.6v3.1h-2.8v-3.1h-5.8l-0.1-1.8l5.9-9.4h2.9L148.3,164.5L148.3,164.5z M142.4,164.5
					h3.1v-5l-0.2,0.3L142.4,164.5z"/>
				<path class="st4" d="M151.8,168.5c0-0.4,0.2-0.8,0.5-1.1s0.7-0.4,1.1-0.4c0.5,0,0.8,0.1,1.1,0.4s0.5,0.6,0.5,1.1
					c0,0.4-0.1,0.8-0.4,1.1s-0.7,0.4-1.2,0.4s-0.8-0.1-1.1-0.4S151.8,168.9,151.8,168.5z"/>
				<path class="st4" d="M161.9,169.8h-2v-7.6l-2.4,0.7v-1.6l4.1-1.5h0.2L161.9,169.8L161.9,169.8z"/>
				<path class="st4" d="M172,161l-3.8,8.9H166l3.9-8.4H165v-1.6h7V161z"/>
			</g>
		</g>
		<g>
			<g>
				<path class="st4" d="M216.6,94.4h1.5c0.7,0,1.2-0.2,1.6-0.5s0.5-0.8,0.5-1.4s-0.2-1-0.5-1.3s-0.8-0.5-1.4-0.5
					c-0.5,0-1,0.1-1.4,0.4s-0.5,0.7-0.5,1.2h-2.8c0-0.7,0.2-1.4,0.6-2s1-1,1.7-1.4s1.5-0.5,2.4-0.5c1.5,0,2.7,0.4,3.5,1.1
					s1.3,1.7,1.3,3c0,0.7-0.2,1.2-0.6,1.8s-0.9,1-1.6,1.3c0.8,0.3,1.4,0.7,1.8,1.3s0.6,1.2,0.6,2c0,1.3-0.5,2.3-1.4,3
					s-2.1,1.1-3.7,1.1c-1.4,0-2.6-0.4-3.5-1.1s-1.4-1.7-1.4-3h2.8c0,0.5,0.2,1,0.6,1.3s0.9,0.5,1.5,0.5c0.7,0,1.2-0.2,1.6-0.5
					s0.6-0.8,0.6-1.4c0-1.4-0.8-2.1-2.3-2.1h-1.5L216.6,94.4L216.6,94.4z"/>
				<path class="st4" d="M235,90.1l-5.5,12.6h-3l5.5-11.9h-7.1v-2.3h10v1.6H235z"/>
				<path class="st4" d="M237.1,101.4c0-0.4,0.2-0.8,0.5-1.1s0.7-0.4,1.1-0.4c0.5,0,0.8,0.1,1.1,0.4s0.5,0.6,0.5,1.1
					c0,0.4-0.1,0.8-0.4,1.1s-0.7,0.4-1.2,0.4s-0.8-0.1-1.1-0.4S237.1,101.8,237.1,101.4z"/>
				<path class="st4" d="M249.2,102.8h-6.8v-1.4l3.2-3.4c0.4-0.5,0.8-0.9,1-1.3s0.3-0.7,0.3-1c0-0.4-0.1-0.8-0.3-1
					c-0.2-0.3-0.5-0.4-1-0.4c-0.4,0-0.8,0.2-1.1,0.5s-0.4,0.7-0.4,1.2h-2c0-0.6,0.1-1.2,0.4-1.7c0.3-0.5,0.7-0.9,1.2-1.2
					c0.5-0.3,1.1-0.4,1.8-0.4c1,0,1.8,0.2,2.4,0.7c0.6,0.5,0.9,1.2,0.9,2.1c0,0.5-0.1,1-0.4,1.5s-0.7,1.1-1.3,1.8l-2.3,2.4h4.3v1.6
					H249.2z"/>
				<path class="st4" d="M257,95.5c0,0.5-0.1,0.9-0.4,1.3s-0.6,0.7-1,0.9c0.5,0.2,0.9,0.6,1.1,1c0.3,0.4,0.4,0.9,0.4,1.4
					c0,0.9-0.3,1.6-0.9,2.1s-1.4,0.8-2.5,0.8s-1.9-0.3-2.5-0.8s-0.9-1.2-0.9-2.1c0-0.6,0.1-1,0.4-1.4s0.7-0.7,1.1-1
					c-0.4-0.2-0.8-0.5-1-0.9s-0.4-0.8-0.4-1.3c0-0.8,0.3-1.5,0.8-2c0.6-0.5,1.3-0.8,2.3-0.8s1.7,0.2,2.3,0.7
					C256.7,93.9,257,94.6,257,95.5z M255.2,99.9c0-0.4-0.1-0.8-0.4-1s-0.6-0.4-1-0.4s-0.8,0.1-1,0.4c-0.3,0.3-0.4,0.6-0.4,1
					s0.1,0.8,0.4,1s0.6,0.4,1,0.4s0.8-0.1,1-0.4C255.1,100.7,255.2,100.3,255.2,99.9z M255,95.6c0-0.4-0.1-0.7-0.3-0.9
					c-0.2-0.2-0.5-0.4-0.9-0.4s-0.7,0.1-0.9,0.3s-0.3,0.5-0.3,0.9s0.1,0.7,0.3,1s0.5,0.4,0.9,0.4s0.7-0.1,0.9-0.4
					C254.9,96.3,255,95.9,255,95.6z"/>
			</g>
		</g>
		<g>
			<g>
				<path class="st3" d="M51,327.4h-1.3V319l-2.5,0.9v-1.1l3.6-1.4H51V327.4z"/>
				<path class="st3" d="M68.6,325.2h-5.1v3.2h-1.1v-3.2H56v-1h2.3v-3.8h4.2v-2.1h-3.4c-0.6,1.1-1.4,2-2.1,2.8
					c-0.2-0.2-0.6-0.5-0.9-0.7c1.3-1.1,2.5-3,3.2-4.8l1.1,0.3c-0.2,0.5-0.4,1-0.6,1.5H68v1h-4.4v2.1h4.1v1h-4.1v2.8h5.1L68.6,325.2
					L68.6,325.2z M62.5,324.2v-2.8h-3.1v2.8H62.5z"/>
				<path class="st3" d="M74,318.8c-0.4,0.7-0.8,1.3-1.2,1.9v7.7h-1V322c-0.4,0.5-0.9,0.9-1.3,1.3c-0.1-0.2-0.4-0.7-0.6-0.9
					c1.2-1,2.5-2.4,3.2-3.9L74,318.8z M73.7,316c-0.8,1.2-2,2.5-3.1,3.3c-0.1-0.2-0.4-0.6-0.6-0.8c1-0.7,2.2-1.9,2.7-2.9L73.7,316z
					 M81.5,323.1c-0.6,1.3-1.5,2.4-2.7,3.2c1.1,0.5,2.4,1,3.7,1.2c-0.2,0.2-0.5,0.6-0.6,0.9c-1.5-0.3-2.8-0.8-4-1.5
					c-1.3,0.7-2.7,1.2-4.1,1.6c-0.1-0.3-0.3-0.7-0.5-0.9c1.3-0.2,2.6-0.7,3.7-1.2c-0.6-0.4-1.1-0.9-1.6-1.4
					c-0.4,0.3-0.7,0.6-1.1,0.9c-0.1-0.2-0.5-0.6-0.7-0.8c0.4-0.3,0.8-0.6,1.2-0.9c-0.3-0.3-0.5-0.7-0.7-1.1l0.9-0.3
					c0.1,0.3,0.3,0.5,0.4,0.7c0.5-0.5,1-1.1,1.3-1.8c-2,0.1-2.4,0.2-2.6,0.3c0-0.2-0.2-0.7-0.3-1c0.4-0.1,0.9-0.3,1.6-0.7
					c0.3-0.2,1-0.6,1.8-1.1c-2.1,0.1-2.5,0.2-2.7,0.3c0-0.2-0.2-0.7-0.3-1c0.3,0,0.6-0.2,0.9-0.5c0.4-0.3,1.6-1.3,2.5-2.3l1,0.4
					c-0.8,0.9-1.8,1.7-2.7,2.3l2.5-0.1c0.6-0.5,1.3-1,1.8-1.5l1,0.5c-1.7,1.4-3.4,2.5-5.1,3.4l4.4-0.2c-0.3-0.4-0.6-0.8-1-1.2
					l0.8-0.4c0.8,0.9,1.8,2.2,2.3,3l-0.9,0.5c-0.2-0.3-0.4-0.7-0.7-1.1l-3.1,0.2c-0.2,0.4-0.4,0.8-0.7,1.1h3.4h0.2L81.5,323.1z
					 M76.6,323.7c-0.2,0.2-0.3,0.4-0.5,0.6c0.5,0.6,1.1,1.1,1.8,1.5c0.9-0.6,1.6-1.3,2.1-2.1H76.6z"/>
			</g>
		</g>
		<g>
			<g>
				<path class="st3" d="M138.7,327.4h-6.5v-0.9l3.4-3.8c0.5-0.6,0.9-1,1.1-1.4c0.2-0.4,0.3-0.7,0.3-1.1c0-0.5-0.2-0.9-0.5-1.3
					s-0.7-0.5-1.3-0.5s-1.1,0.2-1.5,0.5c-0.3,0.4-0.5,0.9-0.5,1.5H132c0-0.9,0.3-1.7,0.9-2.2s1.4-0.8,2.4-0.8c0.9,0,1.7,0.2,2.2,0.7
					s0.8,1.1,0.8,1.9c0,1-0.6,2.1-1.9,3.5l-2.7,2.9h5V327.4z"/>
				<path class="st3" d="M153.9,325.2h-5.1v3.2h-1.1v-3.2h-6.5v-1h2.3v-3.8h4.2v-2.1h-3.4c-0.6,1.1-1.4,2-2.1,2.8
					c-0.2-0.2-0.6-0.5-0.9-0.7c1.3-1.1,2.5-3,3.2-4.8l1.1,0.3c-0.2,0.5-0.4,1-0.6,1.5h8.3v1h-4.4v2.1h4.1v1h-4.1v2.8h5.1v0.9H153.9z
					 M147.8,324.2v-2.8h-3.1v2.8H147.8z"/>
				<path class="st3" d="M159.3,318.8c-0.4,0.7-0.8,1.3-1.2,1.9v7.7h-1V322c-0.4,0.5-0.9,0.9-1.3,1.3c-0.1-0.2-0.4-0.7-0.6-0.9
					c1.2-1,2.5-2.4,3.2-3.9L159.3,318.8z M159,316c-0.8,1.2-2,2.5-3.1,3.3c-0.1-0.2-0.4-0.6-0.6-0.8c1-0.7,2.2-1.9,2.7-2.9L159,316z
					 M166.8,323.1c-0.6,1.3-1.5,2.4-2.7,3.2c1.1,0.5,2.4,1,3.7,1.2c-0.2,0.2-0.5,0.6-0.6,0.9c-1.5-0.3-2.8-0.8-4-1.5
					c-1.3,0.7-2.7,1.2-4.1,1.6c-0.1-0.3-0.3-0.7-0.5-0.9c1.3-0.2,2.6-0.7,3.7-1.2c-0.6-0.4-1.1-0.9-1.6-1.4
					c-0.4,0.3-0.7,0.6-1.1,0.9c-0.1-0.2-0.5-0.6-0.7-0.8c0.4-0.3,0.8-0.6,1.2-0.9c-0.3-0.3-0.5-0.7-0.7-1.1l0.9-0.3
					c0.1,0.3,0.3,0.5,0.4,0.7c0.5-0.5,1-1.1,1.3-1.8c-2,0.1-2.4,0.2-2.6,0.3c0-0.2-0.2-0.7-0.3-1c0.4-0.1,0.9-0.3,1.6-0.7
					c0.3-0.2,1-0.6,1.8-1.1c-2.1,0.1-2.5,0.2-2.7,0.3c0-0.2-0.2-0.7-0.3-1c0.3,0,0.6-0.2,0.9-0.5c0.4-0.3,1.6-1.3,2.5-2.3l1,0.4
					c-0.8,0.9-1.8,1.7-2.7,2.3l2.5-0.1c0.6-0.5,1.3-1,1.8-1.5l1,0.5c-1.7,1.4-3.4,2.5-5.1,3.4l4.4-0.2c-0.3-0.4-0.6-0.8-1-1.2
					l0.8-0.4c0.8,0.9,1.8,2.2,2.3,3l-0.9,0.5c-0.2-0.3-0.4-0.7-0.7-1.1l-3.1,0.2c-0.2,0.4-0.4,0.8-0.7,1.1h3.4h0.2L166.8,323.1z
					 M161.9,323.7c-0.2,0.2-0.3,0.4-0.5,0.6c0.5,0.6,1.1,1.1,1.8,1.5c0.9-0.6,1.6-1.3,2.1-2.1H161.9z"/>
			</g>
		</g>
		<g>
			<g>
				<path class="st3" d="M219.4,321.8h1c0.6,0,1.1-0.2,1.4-0.5s0.5-0.7,0.5-1.2c0-1.2-0.6-1.8-1.7-1.8c-0.5,0-1,0.2-1.3,0.5
					s-0.5,0.7-0.5,1.2h-1.3c0-0.8,0.3-1.4,0.9-2c0.6-0.5,1.3-0.8,2.2-0.8s1.7,0.2,2.2,0.7s0.8,1.2,0.8,2.1c0,0.4-0.1,0.9-0.4,1.3
					s-0.7,0.7-1.1,0.9c0.5,0.2,1,0.5,1.3,0.9s0.4,0.9,0.4,1.5c0,0.9-0.3,1.6-0.9,2.1s-1.3,0.8-2.3,0.8s-1.7-0.3-2.3-0.8
					s-0.9-1.2-0.9-2h1.3c0,0.5,0.2,0.9,0.5,1.3s0.8,0.5,1.4,0.5c0.6,0,1.1-0.2,1.4-0.5s0.5-0.8,0.5-1.4s-0.2-1-0.5-1.3
					s-0.9-0.5-1.5-0.5h-1L219.4,321.8L219.4,321.8z"/>
				<path class="st3" d="M239.3,325.2h-5.1v3.2h-1.1v-3.2h-6.5v-1h2.3v-3.8h4.2v-2.1h-3.4c-0.6,1.1-1.4,2-2.1,2.8
					c-0.2-0.2-0.6-0.5-0.9-0.7c1.3-1.1,2.5-3,3.2-4.8l1.1,0.3c-0.2,0.5-0.4,1-0.6,1.5h8.3v1h-4.4v2.1h4.1v1h-4.1v2.8h5.1v0.9H239.3z
					 M233.1,324.2v-2.8H230v2.8H233.1z"/>
				<path class="st3" d="M244.7,318.8c-0.4,0.7-0.8,1.3-1.2,1.9v7.7h-1V322c-0.4,0.5-0.9,0.9-1.3,1.3c-0.1-0.2-0.4-0.7-0.6-0.9
					c1.2-1,2.5-2.4,3.2-3.9L244.7,318.8z M244.3,316c-0.8,1.2-2,2.5-3.1,3.3c-0.1-0.2-0.4-0.6-0.6-0.8c1-0.7,2.2-1.9,2.7-2.9
					L244.3,316z M252.1,323.1c-0.6,1.3-1.5,2.4-2.7,3.2c1.1,0.5,2.4,1,3.7,1.2c-0.2,0.2-0.5,0.6-0.6,0.9c-1.5-0.3-2.8-0.8-4-1.5
					c-1.3,0.7-2.7,1.2-4.1,1.6c-0.1-0.3-0.3-0.7-0.5-0.9c1.3-0.2,2.6-0.7,3.7-1.2c-0.6-0.4-1.1-0.9-1.6-1.4
					c-0.4,0.3-0.7,0.6-1.1,0.9c-0.1-0.2-0.5-0.6-0.7-0.8c0.4-0.3,0.8-0.6,1.2-0.9c-0.3-0.3-0.5-0.7-0.7-1.1l0.9-0.3
					c0.1,0.3,0.3,0.5,0.4,0.7c0.5-0.5,1-1.1,1.3-1.8c-2,0.1-2.4,0.2-2.6,0.3c0-0.2-0.2-0.7-0.3-1c0.4-0.1,0.9-0.3,1.6-0.7
					c0.3-0.2,1-0.6,1.8-1.1c-2.1,0.1-2.5,0.2-2.7,0.3c0-0.2-0.2-0.7-0.3-1c0.3,0,0.6-0.2,0.9-0.5c0.4-0.3,1.6-1.3,2.5-2.3l1,0.4
					c-0.8,0.9-1.8,1.7-2.7,2.3l2.5-0.1c0.6-0.5,1.3-1,1.8-1.5l1,0.5c-1.7,1.4-3.4,2.5-5.1,3.4l4.4-0.2c-0.3-0.4-0.6-0.8-1-1.2
					l0.8-0.4c0.8,0.9,1.8,2.2,2.3,3l-0.9,0.5c-0.2-0.3-0.4-0.7-0.7-1.1l-3.1,0.2c-0.2,0.4-0.4,0.8-0.7,1.1h3.4h0.2L252.1,323.1z
					 M247.2,323.7c-0.2,0.2-0.3,0.4-0.5,0.6c0.5,0.6,1.1,1.1,1.8,1.5c0.9-0.6,1.6-1.3,2.1-2.1H247.2z"/>
			</g>
		</g>
		<line class="st5" x1="22.5" y1="301.2" x2="277.5" y2="301.2"/>
	</g>
</g>
</svg>
