<?xml version="1.0" encoding="utf-8"?>
<!-- Generator: Adobe Illustrator 26.3.1, SVG Export Plug-In . SVG Version: 6.00 Build 0)  -->
<svg version="1.1" id="圖層_1" xmlns="http://www.w3.org/2000/svg" xmlns:xlink="http://www.w3.org/1999/xlink" x="0px" y="0px"
	 viewBox="0 0 1000 360" style="enable-background:new 0 0 1000 360;" xml:space="preserve">
<style type="text/css">
	.st0{fill:#B8C9D8;}
	.st1{fill:#0D70E5;}
	.st2{fill:#5EAFFF;}
	.st3{fill:#ED6B00;}
	.st4{fill:#494A66;}
	.st5{fill:#D9D9D9;}
	.st6{fill:#FFFFFF;}
</style>
<g>
	<rect x="83.7" y="234.9" class="st0" width="3" height="1"/>
	<path class="st0" d="M910.1,235.9h-6v-1h6V235.9z M898.2,235.9h-6v-1h6V235.9z M886.3,235.9h-6v-1h6V235.9z M874.3,235.9h-6v-1h6
		V235.9z M862.4,235.9h-6v-1h6V235.9z M850.4,235.9h-6v-1h6V235.9z M838.5,235.9h-6v-1h6V235.9z M826.6,235.9h-6v-1h6V235.9z
		 M814.6,235.9h-6v-1h6V235.9z M802.7,235.9h-6v-1h6V235.9z M790.8,235.9h-6v-1h6V235.9z M778.8,235.9h-6v-1h6V235.9z M766.9,235.9
		h-6v-1h6V235.9z M755,235.9h-6v-1h6V235.9z M743,235.9h-6v-1h6V235.9z M731.1,235.9h-6v-1h6V235.9z M719.2,235.9h-6v-1h6V235.9z
		 M707.2,235.9h-6v-1h6V235.9z M695.3,235.9h-6v-1h6V235.9z M683.4,235.9h-6v-1h6V235.9z M671.4,235.9h-6v-1h6V235.9z M659.5,235.9
		h-6v-1h6V235.9z M647.6,235.9h-6v-1h6V235.9z M635.6,235.9h-6v-1h6V235.9z M623.7,235.9h-6v-1h6V235.9z M611.8,235.9h-6v-1h6V235.9
		z M599.8,235.9h-6v-1h6V235.9z M587.9,235.9h-6v-1h6V235.9z M576,235.9h-6v-1h6V235.9z M564,235.9h-6v-1h6V235.9z M552.1,235.9h-6
		v-1h6V235.9z M540.2,235.9h-6v-1h6V235.9z M528.2,235.9h-6v-1h6V235.9z M516.3,235.9h-6v-1h6V235.9z M504.4,235.9h-6v-1h6V235.9z
		 M492.4,235.9h-6v-1h6V235.9z M480.5,235.9h-6v-1h6V235.9z M468.6,235.9h-6v-1h6V235.9z M456.6,235.9h-6v-1h6V235.9z M444.7,235.9
		h-6v-1h6V235.9z M432.8,235.9h-6v-1h6V235.9z M420.8,235.9h-6v-1h6V235.9z M408.9,235.9h-6v-1h6V235.9z M396.9,235.9h-6v-1h6V235.9
		z M385,235.9h-6v-1h6V235.9z M373.1,235.9h-6v-1h6V235.9z M361.1,235.9h-6v-1h6V235.9z M349.2,235.9h-6v-1h6V235.9z M337.3,235.9
		h-6v-1h6V235.9z M325.3,235.9h-6v-1h6V235.9z M313.4,235.9h-6v-1h6V235.9z M301.5,235.9h-6v-1h6V235.9z M289.5,235.9h-6v-1h6V235.9
		z M277.6,235.9h-6v-1h6V235.9z M265.7,235.9h-6v-1h6V235.9z M253.7,235.9h-6v-1h6V235.9z M241.8,235.9h-6v-1h6V235.9z M229.9,235.9
		h-6v-1h6V235.9z M217.9,235.9h-6v-1h6V235.9z M206,235.9h-6v-1h6V235.9z M194.1,235.9h-6v-1h6V235.9z M182.1,235.9h-6v-1h6V235.9z
		 M170.2,235.9h-6v-1h6V235.9z M158.3,235.9h-6v-1h6V235.9z M146.3,235.9h-6v-1h6V235.9z M134.4,235.9h-6v-1h6V235.9z M122.5,235.9
		h-6v-1h6V235.9z M110.5,235.9h-6v-1h6V235.9z M98.6,235.9h-6v-1h6V235.9z"/>
	<rect x="916.1" y="234.9" class="st0" width="3" height="1"/>
</g>
<path class="st1" d="M87.1,338.6c-0.8,0-1.5-0.7-1.5-1.5s0.7-1.5,1.5-1.5h2.3l22.9-1.2l2.4,0l66.9-3.3l2.3-0.2l20.7-1l2.3-0.2
	l11.7-0.6l2.1-0.2l11.7-0.6l2.3-0.2l9.3-0.5l2.3-0.2l7-0.4l2.3-0.2l4.6-0.2l2.3-0.2l7-0.4l2.3-0.2l4.6-0.2l2.3-0.2l4.8-0.2l2.1-0.2
	l4.8-0.2l2.3-0.2l4.6-0.2l2.3-0.2l2.3-0.1l2.3-0.2l4.8-0.2l2.1-0.2l2.4-0.1l2.3-0.2l2.4-0.1l2.1-0.2l2.4-0.1l2.3-0.2l4.6-0.2
	l2.3-0.2l2.4-0.1l2.3-0.2l2.3-0.1l2.3-0.2l2.4-0.1l4.5-0.5l2.4-0.1l2.3-0.2l2.4-0.1l2.1-0.2l2.4-0.1l2.3-0.2l2.4-0.1l4.5-0.5
	l2.4-0.1l4.5-0.5l2.4-0.1l2.3-0.2l2.4-0.1l6.8-0.7l2.4-0.1l4.5-0.5l2.4-0.1l4.5-0.5l2.4-0.1l9.2-0.9l2.4-0.1l9.2-0.9l2.3-0.1
	l13.9-1.4l2.4-0.1l48.3-4.8l2.3-0.3l13.8-1.4l2.3-0.3l9.3-0.9l2.3-0.3l4.6-0.5l2.3-0.3l7-0.7l2.3-0.3l4.8-0.5l2.1-0.3l2.4-0.2
	l2.3-0.3l4.6-0.5l2.3-0.3l2.4-0.2l2.3-0.3l2.3-0.2l2.3-0.3l4.8-0.5l4.5-0.7l2.4-0.2l2.3-0.3l2.3-0.2l2.3-0.3l2.4-0.2l2.1-0.3
	l2.4-0.2l4.6-0.7l2.3-0.2l4.6-0.7l2.4-0.2l6.8-1l2.4-0.2l6.8-1l2.4-0.2l11.3-1.7l2.4-0.2l36.9-5.5l2.3-0.4l11.5-1.7l2.3-0.5l6.9-1
	l2.3-0.5l4.8-0.7l2.1-0.4l4.8-0.7l2.3-0.4l2.3-0.4l2.3-0.5l2.4-0.4l2.3-0.4l2.3-0.4l2.3-0.5l2.4-0.4l2.3-0.4l2.3-0.4l2.3-0.5
	l2.4-0.4l4.5-0.9l2.4-0.4l4.6-0.9l2.3-0.4l4.6-0.9l2.4-0.4l9.2-1.8l2.3-0.4l34.5-6.9l2.3-0.6l9.3-1.9l2.3-0.6l4.6-0.9l2.3-0.6
	l4.8-0.9l2.1-0.6l2.4-0.5l2.3-0.6l2.4-0.5l2.1-0.6l2.4-0.5l2.3-0.6l2.4-0.5l2.1-0.6l2.4-0.5l4.6-1.1l2.2-0.5l4.6-1.1l2.4-0.5l9-2.3
	l2.4-0.5l23.1-5.8l2.1-0.7l9.3-2.3l2.3-0.7c0.8-0.2,1.6,0.2,1.9,1c0.2,0.8-0.2,1.6-1,1.9l-2.3,0.7l-9.3,2.3l-2.1,0.7l-23.2,5.8
	l-2.4,0.5l-9,2.3l-2.4,0.5l-4.6,1.1l-2.2,0.5l-4.6,1.1l-2.4,0.5l-2.1,0.6l-2.4,0.5l-2.3,0.6l-2.4,0.5l-2.1,0.6l-2.4,0.5l-2.3,0.6
	l-2.4,0.5l-2.1,0.6l-4.8,0.9l-2.3,0.6l-4.6,0.9l-2.3,0.6l-9.3,1.9l-2.3,0.6l-34.7,6.9l-2.3,0.4l-9.2,1.8l-2.4,0.4l-4.6,0.9l-2.3,0.4
	l-4.6,0.9l-2.4,0.4l-4.5,0.9l-2.4,0.4l-2.3,0.4l-2.3,0.4l-2.3,0.5l-2.4,0.4l-2.3,0.4l-2.3,0.4l-2.3,0.5l-2.4,0.4l-2.3,0.4l-2.3,0.4
	l-2.3,0.5l-4.8,0.7l-2.1,0.4l-4.8,0.7l-2.3,0.4l-7,1.1l-2.3,0.4l-11.5,1.7l-2.3,0.4l-37,5.5l-2.4,0.2l-11.3,1.7l-2.4,0.2l-6.8,1
	l-2.4,0.2l-6.8,1l-2.4,0.2l-4.6,0.7l-2.3,0.2l-4.6,0.7l-2.4,0.2l-2.1,0.3l-2.4,0.2l-2.3,0.3l-2.3,0.2l-2.3,0.3l-2.4,0.2l-4.5,0.7
	l-4.8,0.5l-2.3,0.3l-2.3,0.2l-2.3,0.3l-2.4,0.2l-2.3,0.3l-4.6,0.5l-2.3,0.3l-2.4,0.2l-2.1,0.3l-4.8,0.5l-2.3,0.3l-7,0.7l-2.3,0.3
	l-4.6,0.5l-2.3,0.3l-9.3,0.9l-2.3,0.3l-13.8,1.4l-2.3,0.3l-48.4,4.9l-2.4,0.1l-13.9,1.4l-2.3,0.1l-9.2,0.9l-2.4,0.1l-9.2,0.9
	l-2.4,0.1l-4.5,0.5l-2.4,0.1l-4.5,0.5l-2.4,0.1l-6.8,0.7l-2.4,0.1L378,321l-2.4,0.1l-4.5,0.5l-2.4,0.1l-4.5,0.5l-2.4,0.1l-2.3,0.2
	l-2.4,0.1l-2.1,0.2l-2.4,0.1l-2.3,0.2l-2.4,0.1l-4.5,0.5l-2.4,0.1l-2.3,0.2l-2.3,0.1l-2.3,0.2l-2.4,0.1l-2.3,0.2l-4.6,0.2l-2.3,0.2
	l-2.4,0.1l-2.1,0.2l-2.4,0.1l-2.3,0.2l-2.4,0.1l-2.1,0.2l-4.8,0.2l-2.3,0.2l-2.3,0.1l-2.3,0.2l-4.6,0.2l-2.3,0.2l-4.8,0.2l-2.1,0.2
	l-4.8,0.2l-2.3,0.2l-4.6,0.2l-2.3,0.2l-7,0.4l-2.3,0.2l-4.6,0.2l-2.3,0.2l-7,0.4l-2.3,0.2l-9.3,0.5l-2.3,0.2l-11.7,0.6l-2.1,0.2
	l-11.7,0.6l-2.3,0.2l-20.7,1l-2.3,0.2l-67.1,3.3l-2.4,0l-22.9,1.2L87.1,338.6z"/>
<path class="st2" d="M87.1,338.6c-0.8,0-1.4-0.6-1.5-1.4c-0.1-0.8,0.5-1.6,1.3-1.6l9.2-0.9l2.4-0.1l9.2-0.9l2.4-0.1l16-1.6l2.4-0.1
	l39.1-3.9l2.3-0.3l16.2-1.6l2.3-0.3l9.3-0.9l2.3-0.3l7-0.7l2.3-0.3l4.6-0.5l2.3-0.3l4.6-0.5l2.3-0.3l4.8-0.5l2.1-0.3l2.4-0.2
	l2.3-0.3l4.6-0.5l2.3-0.3l2.4-0.2l2.3-0.3l2.3-0.2l2.3-0.3l2.4-0.2l2.3-0.3l2.3-0.2l2.3-0.3l2.4-0.2l2.3-0.3l2.3-0.2l4.6-0.7
	l2.4-0.2l4.5-0.7l2.4-0.2l4.5-0.7l2.4-0.2l4.6-0.7l2.3-0.2l9.2-1.4l2.4-0.2l11.5-1.7l2.3-0.2l30-4.5l2.3-0.4l13.8-2.1l2.3-0.5l6.9-1
	l2.3-0.5l4.8-0.7l2.1-0.4l4.8-0.7l2.3-0.4l4.6-0.7l2.3-0.4l2.3-0.4l2.3-0.5l2.4-0.4l2.3-0.4l2.3-0.4l2.3-0.5l2.4-0.4l2.3-0.4
	l2.3-0.4l4.6-0.9l2.4-0.4l4.5-0.9l2.4-0.4l6.8-1.4l2.4-0.4l9.2-1.8l2.4-0.4l29.8-6l2.3-0.6l9.3-1.9l2.3-0.6l7-1.4l2.3-0.6l2.2-0.5
	l2.3-0.6l4.8-0.9l2.1-0.6l2.4-0.5l2.3-0.6l2.4-0.5l2.1-0.6l2.4-0.5l2.3-0.6l2.4-0.5l4.5-1.1l2.4-0.5l6.8-1.7l2.4-0.5l9.2-2.3
	l2.4-0.5l18.4-4.6l2.1-0.7l11.7-2.9l2.3-0.7l4.6-1.2l2.3-0.7l4.6-1.2l2.3-0.7l2.4-0.6l2.3-0.7l2.2-0.6l2.3-0.7l2.4-0.6l4.5-1.4
	l2.4-0.6l4.6-1.4l2.2-0.6l7-2.1l2.2-0.6l20.8-6.2l2.3-0.8l9.3-2.8l2.3-0.8l4.6-1.4l2.3-0.8l2.2-0.7l2.3-0.8l2.4-0.7l2.3-0.8l2.2-0.7
	l2.3-0.8l2.4-0.7l4.5-1.6l2.4-0.7l11.5-4l2.4-0.7l2.1-0.8l4.7-1.6l2.3-0.9l2.2-0.8l9.2-3.2l2.3-0.9l4.8-1.6l2.1-0.9l2.4-0.8l2.3-0.9
	l2.4-0.8l2.1-0.9l2.4-0.8l2.3-0.9l2.4-0.8l2.1-0.9l4.7-1.9l2.4-0.8l2.1-0.9l4.7-1.9l2.2-0.9l7.1-2.8l2.2-0.9l2.4-0.9l2.3-1l2.4-0.9
	l2.2-0.9l2.4-0.9l2.3-1l2.4-0.9l2.1-1l2.4-1l2.3-1l2.4-0.9l2.1-1l2.4-1.1l2.4-0.9l2.3-1l2.2-1l2.4-1.1l2.4-0.9l2.3-1l2.2-1l4.7-2.1
	l4.5-2.2l7.1-3.1l2.1-1.1l2.4-1.1l2.3-1.1l2.4-1.1l2.1-1.1l2.4-1.1l11.5-5.6l2.2-1.1l2.4-1.2l2.3-1l4.5-2.4l7.1-3.5l4.5-2.4l4.7-2.3
	l2.1-1.2l2.4-1.2c0.7-0.4,1.6-0.1,2,0.7c0.4,0.7,0.1,1.6-0.7,2l-2.3,1.2l-2.1,1.2l-4.8,2.4l-4.5,2.4l-7.1,3.5l-4.5,2.4
	c0,0-0.1,0-0.1,0.1l-2.3,1l-2.3,1.1l-2.2,1.1l-11.6,5.7l-2.4,1.1l-2.1,1.1l-2.4,1.1l-2.3,1.1l-2.4,1.1l-2.1,1.1l-7.1,3.2l-4.5,2.2
	l-4.7,2.1l-2.2,1l-2.4,1.1l-2.4,0.9l-2.3,1l-2.2,1l-2.4,1.1l-2.4,0.9l-2.3,1l-2.2,1l-2.4,1l-2.3,1l-2.4,0.9l-2.1,1l-2.4,1l-2.3,1
	l-2.4,0.9l-2.2,0.9l-2.4,0.9l-2.3,1l-2.4,0.9l-2.2,0.9l-7.1,2.8l-2.2,0.9l-4.7,1.9l-2.2,0.9l-2.4,0.8l-4.6,1.8l-2.2,0.9l-2.4,0.8
	l-2.3,0.9l-2.4,0.8l-2.1,0.9l-2.4,0.8l-2.3,0.9l-2.4,0.8l-2.1,0.9l-4.8,1.6l-2.3,0.9l-2.2,0.8l-9.2,3.2l-2.3,0.9l-6.9,2.4l-2.4,0.7
	l-11.5,4l-2.4,0.7l-2.1,0.8l-2.4,0.8l-2.4,0.7l-2.3,0.8l-2.2,0.7l-2.3,0.8l-2.4,0.7l-2.3,0.8l-2.2,0.7l-2.3,0.8l-4.6,1.4l-2.3,0.8
	l-9.3,2.8l-2.3,0.8l-20.9,6.2l-2.2,0.6l-7,2.1l-2.2,0.6l-4.6,1.4l-2.4,0.6l-4.5,1.4l-2.4,0.6l-2.3,0.7l-2.2,0.6l-2.3,0.7l-2.4,0.6
	L609,254l-4.6,1.2l-2.3,0.7l-4.6,1.2l-2.3,0.7l-11.6,2.9l-2.1,0.7l-18.5,4.6l-2.4,0.5l-9.2,2.3l-2.4,0.5l-6.8,1.7l-2.4,0.5l-4.5,1.1
	l-2.4,0.5l-2.3,0.6l-2.4,0.5l-2.1,0.6l-2.4,0.5l-2.3,0.6l-2.4,0.5l-2.1,0.6l-4.8,0.9l-2.3,0.6l-2.2,0.5l-2.3,0.6l-6.9,1.4l-2.3,0.6
	l-9.3,1.9l-2.3,0.6l-30,6l-2.4,0.4l-9.2,1.8l-2.4,0.4l-6.8,1.4l-2.4,0.4l-4.5,0.9l-2.4,0.4l-4.6,0.9l-2.3,0.4l-2.3,0.5l-2.4,0.4
	l-2.3,0.4l-2.3,0.4l-2.3,0.5l-2.4,0.4l-2.3,0.4l-2.3,0.4l-2.3,0.5l-4.6,0.7l-2.3,0.5l-4.8,0.7l-2.1,0.4l-4.8,0.7l-2.3,0.4l-7,1.1
	l-2.3,0.4l-13.8,2.1l-2.3,0.4l-30.1,4.5l-2.3,0.2l-11.5,1.7l-2.4,0.2l-9.2,1.4l-2.3,0.2l-4.6,0.7l-2.4,0.2l-4.5,0.7l-2.4,0.2
	l-4.5,0.7l-2.4,0.2l-4.6,0.7l-2.3,0.2l-2.3,0.3l-2.4,0.2l-2.3,0.3l-2.3,0.2l-2.3,0.3l-2.4,0.2l-2.3,0.3l-2.3,0.2l-2.3,0.3l-2.4,0.2
	l-2.3,0.3l-4.6,0.5l-2.3,0.3l-2.4,0.2l-2.1,0.3l-4.8,0.5l-2.3,0.3l-4.6,0.5l-2.3,0.3l-4.6,0.5l-2.3,0.3l-6.9,0.7l-2.3,0.3l-9.3,0.9
	l-2.3,0.3l-16.2,1.6l-2.3,0.3l-39.2,3.9l-2.4,0.1l-16,1.6l-2.4,0.1l-9.2,0.9l-2.4,0.1l-9.2,0.9C87.2,338.6,87.1,338.6,87.1,338.6z"
	/>
<path class="st3" d="M87.1,338.5c-0.7,0-1.4-0.5-1.5-1.3c-0.1-0.8,0.4-1.6,1.3-1.7l4.7-0.7l2.4-0.2l4.5-0.7l2.4-0.2l6.8-1l2.4-0.2
	l6.8-1l2.4-0.2l16.1-2.4l2.4-0.2l20.6-3.1l2.3-0.5l16.2-2.4l2.3-0.5l6.9-1l2.3-0.5l4.8-0.7l2.1-0.4l4.8-0.7l2.1-0.4l4.8-0.7l2.3-0.4
	l2.3-0.4l2.3-0.5l2.4-0.4l2.3-0.4l2.3-0.4l2.3-0.5l2.4-0.4l2.3-0.4l2.3-0.4l2.3-0.5l2.4-0.4l4.5-0.9l2.4-0.4l4.6-0.9l2.3-0.4
	l9.2-1.8l2.4-0.4l16-3.2l2.4-0.4l4.6-0.9l2.1-0.6l18.6-3.7l2.3-0.6l7-1.4l2.3-0.6l4.6-0.9l2.3-0.6l4.8-0.9l2.1-0.6l2.4-0.5l2.3-0.6
	l2.4-0.5l2.1-0.6l2.4-0.5l4.6-1.1l2.2-0.5l2.3-0.6l2.4-0.5l4.5-1.1l2.4-0.5l9.2-2.3l2.4-0.5l27.6-6.9l2.1-0.7l7.1-1.8l2.1-0.7
	l4.8-1.2l2.3-0.7l4.6-1.2l2.3-0.7l2.4-0.6l2.1-0.7l2.4-0.6l2.3-0.7l2.4-0.6l2.1-0.7l2.4-0.6l6.8-2.1l2.4-0.6l6.8-2l2.4-0.6l20.7-6.2
	l2.3-0.8l7-2.1l2.1-0.8l4.8-1.4l2.3-0.8l4.6-1.4l2.3-0.8l2.4-0.7l2.1-0.8l2.4-0.7l4.6-1.6l2.2-0.7l4.7-1.6l2.4-0.7l2.1-0.8l25.5-8.9
	l2.1-0.9l7.1-2.5l2.1-0.9l2.4-0.8l2.3-0.9l2.4-0.8l2.1-0.9l2.4-0.8l2.3-0.9l2.4-0.8l2.1-0.9l2.4-0.9l2.4-0.8l2.1-0.9l7.1-2.8
	l2.2-0.9l7.1-2.8l2.2-0.9l7.1-2.8l2.1-1l4.8-1.9l4.5-1.9l2.4-0.9l2.3-1l2.4-0.9l2.1-1l2.4-1.1l2.4-0.9l2.3-1l2.2-1l4.7-2.1l2.4-0.9
	l2.1-1l7.1-3.1l2.1-1.1l7.1-3.2l4.5-2.2l2.4-1.1l6.8-3.3l2.4-1.1l2.1-1.1l2.4-1.2l2.4-1.1l2.3-1.1l2.2-1.1l7.1-3.5l2.2-1.1l7.1-3.5
	l4.5-2.4l4.7-2.3l2.1-1.2l2.4-1.2l2.3-1.2l2.4-1.2l2.1-1.2l2.4-1.3l2.4-1.2l2.3-1.2l2.2-1.2l7.1-3.8l2.2-1.2l4.7-2.6l4.5-2.6
	l2.4-1.3l2.3-1.4l2.4-1.3l2.1-1.3l2.4-1.3l11.5-6.8l2.2-1.4l7.1-4.2l4.5-2.9l4.7-2.8l2.1-1.4l2.4-1.4l2.3-1.5l2.4-1.4l2.1-1.4
	l14-8.9l4.5-3.1l4.7-3l6.8-4.7l2.4-1.5l2.3-1.6l2.2-1.6l2.4-1.6l2.4-1.5l2.3-1.6l2.2-1.6l2.4-1.6l2.3-1.7l2.4-1.6l2.2-1.6l2.4-1.6
	l9.2-6.8l2.4-1.6l2.1-1.7l7.1-5.2l2.2-1.7l4.7-3.5l6.9-5.4l2.4-1.8l6.9-5.4c0.7-0.5,1.6-0.4,2.1,0.3s0.4,1.6-0.3,2.1l-6.9,5.4
	l-2.4,1.8l-6.9,5.4l-4.7,3.5l-2.2,1.7l-7.1,5.2l-2.2,1.7l-2.4,1.7l-9.2,6.8l-2.4,1.6l-2.2,1.6L868,71l-2.3,1.7l-2.4,1.6l-2.2,1.6
	l-2.4,1.6l-2.4,1.5l-2.3,1.6l-2.2,1.6l-2.4,1.6l-2.4,1.5l-6.8,4.7l-4.7,3l-4.5,3.1l-14,8.9l-2.2,1.5l-2.4,1.4l-2.3,1.5l-2.4,1.4
	l-2.1,1.4l-4.8,2.8l-4.5,2.9l-7.1,4.2l-2.2,1.4l-11.6,6.8l-2.4,1.3l-2.1,1.3l-2.4,1.3l-2.3,1.4l-2.4,1.3l-4.5,2.6l-4.7,2.6l-2.2,1.2
	l-7.1,3.8l-2.2,1.2l-2.4,1.3l-2.4,1.2l-2.3,1.2l-2.2,1.2l-2.4,1.2l-2.3,1.2l-2.4,1.2l-2.1,1.2l-4.8,2.4l-4.5,2.4l-7.1,3.5l-2.2,1.1
	l-7.1,3.5l-2.2,1.1l-2.4,1.2l-2.4,1.1l-2.3,1.1l-2.2,1.1l-2.4,1.1l-6.8,3.3l-2.4,1.1l-4.5,2.2l-7.1,3.1l-2.1,1.1l-7.1,3.2l-2.2,1
	l-2.4,1l-4.6,2.1l-2.2,1l-2.4,1.1l-2.4,0.9l-2.3,1l-2.2,1l-2.4,1l-2.3,1l-2.4,0.9l-4.5,1.9l-4.7,1.9l-2.1,1l-7.1,2.8l-2.2,0.9
	l-7.1,2.8l-2.2,0.9l-7.1,2.8l-2.2,0.9l-2.4,0.8l-2.3,0.9l-2.2,0.9l-2.4,0.8l-2.3,0.9l-2.4,0.8l-2.1,0.9l-2.4,0.8l-2.3,0.9l-2.4,0.8
	l-2.1,0.9l-7.1,2.5l-2.1,0.9l-27.8,9.7l-2.4,0.7l-4.6,1.6l-2.2,0.7l-4.7,1.6l-2.4,0.7l-2.1,0.8l-2.4,0.7l-2.3,0.8l-4.6,1.4l-2.3,0.8
	l-4.8,1.4l-2.1,0.8l-7,2.1l-2.3,0.8l-20.9,6.2l-2.4,0.6l-6.8,2.1l-2.4,0.6l-6.8,2.1l-2.4,0.6l-2.1,0.7l-2.4,0.6l-2.3,0.7L429,272
	l-2.1,0.7l-2.4,0.6l-2.3,0.7l-4.6,1.2l-2.3,0.7l-4.8,1.2l-2.1,0.7l-7.1,1.8l-2.1,0.7l-27.8,6.9l-2.4,0.5l-9.2,2.3l-2.4,0.5l-4.5,1.1
	l-2.4,0.5l-2.3,0.6l-2.2,0.5l-4.6,1.1l-2.4,0.5l-2.1,0.6l-2.4,0.5l-2.3,0.6l-2.4,0.5l-2.1,0.6l-4.8,0.9l-2.3,0.6l-4.6,0.9l-2.3,0.6
	l-7,1.4l-2.3,0.6l-18.5,3.7l-2.1,0.6l-4.8,0.9l-2.4,0.4l-16.1,3.2l-2.4,0.4l-9.2,1.8l-2.3,0.4l-4.6,0.9l-2.4,0.4l-4.5,0.9l-2.4,0.4
	l-2.3,0.4l-2.3,0.4l-2.3,0.5l-2.4,0.4l-2.3,0.4l-2.3,0.4l-2.3,0.5l-2.4,0.4l-2.3,0.4l-2.3,0.4l-2.3,0.5l-4.8,0.7l-2.1,0.4l-4.8,0.7
	l-2.1,0.4l-4.8,0.7l-2.3,0.4l-7,1l-2.3,0.4l-16.2,2.4l-2.3,0.4l-20.7,3.1l-2.4,0.2l-16,2.4l-2.4,0.2l-6.8,1l-2.4,0.2l-6.8,1
	l-2.4,0.2l-4.5,0.7l-2.4,0.2l-4.6,0.7C87.2,338.5,87.2,338.5,87.1,338.5z"/>
<g>
	<g>
		<path class="st4" d="M58.2,332.5c0-3.6,1.2-5.3,3.2-5.3c1.9,0,3.2,1.7,3.2,5.3c0,3.6-1.2,5.4-3.2,5.4
			C59.5,337.9,58.2,336.1,58.2,332.5z M63.4,332.5c0-3-0.8-4.3-1.9-4.3c-1.2,0-2,1.3-2,4.3c0,3,0.8,4.3,2,4.3
			C62.6,336.8,63.4,335.5,63.4,332.5z"/>
	</g>
</g>
<g>
	<g>
		<path class="st4" d="M31.6,239h2.3v-7.7H32v-0.8c0.9-0.2,1.6-0.4,2.1-0.7h1v9.2h2.1v1.1h-5.6V239z"/>
		<path class="st4" d="M38.8,242c0.9-0.4,1.4-1.1,1.4-1.9c-0.1,0-0.1,0-0.2,0c-0.5,0-0.9-0.3-0.9-0.9c0-0.5,0.4-0.9,1-0.9
			c0.7,0,1.1,0.6,1.1,1.5c0,1.3-0.8,2.4-2,2.9L38.8,242z"/>
		<path class="st4" d="M42.7,234.9c0-3.6,1.2-5.3,3.2-5.3c1.9,0,3.2,1.7,3.2,5.3c0,3.6-1.2,5.4-3.2,5.4
			C43.9,240.3,42.7,238.5,42.7,234.9z M47.8,234.9c0-3-0.8-4.3-1.9-4.3c-1.2,0-2,1.3-2,4.3c0,3,0.8,4.3,2,4.3
			C47.1,239.2,47.8,237.9,47.8,234.9z"/>
		<path class="st4" d="M50.5,234.9c0-3.6,1.2-5.3,3.2-5.3c1.9,0,3.2,1.7,3.2,5.3c0,3.6-1.2,5.4-3.2,5.4
			C51.7,240.3,50.5,238.5,50.5,234.9z M55.6,234.9c0-3-0.8-4.3-1.9-4.3c-1.2,0-2,1.3-2,4.3c0,3,0.8,4.3,2,4.3
			C54.8,239.2,55.6,237.9,55.6,234.9z"/>
		<path class="st4" d="M58.2,234.9c0-3.6,1.2-5.3,3.2-5.3c1.9,0,3.2,1.7,3.2,5.3c0,3.6-1.2,5.4-3.2,5.4
			C59.5,240.3,58.2,238.5,58.2,234.9z M63.4,234.9c0-3-0.8-4.3-1.9-4.3c-1.2,0-2,1.3-2,4.3c0,3,0.8,4.3,2,4.3
			C62.6,239.2,63.4,237.9,63.4,234.9z"/>
	</g>
</g>
<g>
	<g>
		<path class="st4" d="M30.9,138.2c3.2-2.8,4.7-4.9,4.7-6.6c0-1.2-0.6-2-1.9-2c-0.8,0-1.6,0.5-2.1,1.2l-0.7-0.7
			c0.8-0.9,1.7-1.5,3-1.5c1.8,0,3,1.2,3,3c0,2-1.6,4.1-4,6.4c0.5,0,1.2-0.1,1.7-0.1h2.8v1.1h-6.5V138.2z"/>
		<path class="st4" d="M38.8,140.8c0.9-0.4,1.4-1.1,1.4-1.9c-0.1,0-0.1,0-0.2,0c-0.5,0-0.9-0.3-0.9-0.9c0-0.5,0.4-0.9,1-0.9
			c0.7,0,1.1,0.6,1.1,1.5c0,1.3-0.8,2.4-2,2.9L38.8,140.8z"/>
		<path class="st4" d="M42.7,133.7c0-3.6,1.2-5.3,3.2-5.3c1.9,0,3.2,1.7,3.2,5.3c0,3.6-1.2,5.4-3.2,5.4
			C43.9,139.1,42.7,137.3,42.7,133.7z M47.8,133.7c0-3-0.8-4.3-1.9-4.3c-1.2,0-2,1.3-2,4.3c0,3,0.8,4.3,2,4.3
			C47.1,138.1,47.8,136.8,47.8,133.7z"/>
		<path class="st4" d="M50.5,133.7c0-3.6,1.2-5.3,3.2-5.3c1.9,0,3.2,1.7,3.2,5.3c0,3.6-1.2,5.4-3.2,5.4
			C51.7,139.1,50.5,137.3,50.5,133.7z M55.6,133.7c0-3-0.8-4.3-1.9-4.3c-1.2,0-2,1.3-2,4.3c0,3,0.8,4.3,2,4.3
			C54.8,138.1,55.6,136.8,55.6,133.7z"/>
		<path class="st4" d="M58.2,133.7c0-3.6,1.2-5.3,3.2-5.3c1.9,0,3.2,1.7,3.2,5.3c0,3.6-1.2,5.4-3.2,5.4
			C59.5,139.1,58.2,137.3,58.2,133.7z M63.4,133.7c0-3-0.8-4.3-1.9-4.3c-1.2,0-2,1.3-2,4.3c0,3,0.8,4.3,2,4.3
			C62.6,138.1,63.4,136.8,63.4,133.7z"/>
	</g>
</g>
<g>
	<g>
		<path class="st4" d="M30.7,37.2l0.6-0.8c0.6,0.6,1.4,1.2,2.5,1.2c1.2,0,2.1-0.7,2.1-1.9c0-1.2-0.8-2.1-3.2-2.1v-1
			c2.1,0,2.8-0.9,2.8-2c0-1-0.7-1.6-1.7-1.7c-0.8,0-1.6,0.4-2.1,1l-0.7-0.8c0.8-0.7,1.7-1.2,2.9-1.2c1.7,0,3,0.9,3,2.6
			c0,1.2-0.7,2.1-1.8,2.5v0.1c1.2,0.3,2.2,1.2,2.2,2.6c0,1.8-1.5,2.9-3.3,2.9C32.4,38.6,31.4,37.9,30.7,37.2z"/>
		<path class="st4" d="M38.8,40.3c0.9-0.4,1.4-1.1,1.4-1.9c-0.1,0-0.1,0-0.2,0c-0.5,0-0.9-0.3-0.9-0.9c0-0.5,0.4-0.9,1-0.9
			c0.7,0,1.1,0.6,1.1,1.5c0,1.3-0.8,2.4-2,2.9L38.8,40.3z"/>
		<path class="st4" d="M42.7,33.3c0-3.6,1.2-5.3,3.2-5.3c1.9,0,3.2,1.7,3.2,5.3c0,3.6-1.2,5.4-3.2,5.4
			C43.9,38.6,42.7,36.8,42.7,33.3z M47.8,33.3c0-3-0.8-4.3-1.9-4.3c-1.2,0-2,1.3-2,4.3c0,3,0.8,4.3,2,4.3
			C47.1,37.6,47.8,36.3,47.8,33.3z"/>
		<path class="st4" d="M50.5,33.3c0-3.6,1.2-5.3,3.2-5.3c1.9,0,3.2,1.7,3.2,5.3c0,3.6-1.2,5.4-3.2,5.4
			C51.7,38.6,50.5,36.8,50.5,33.3z M55.6,33.3c0-3-0.8-4.3-1.9-4.3c-1.2,0-2,1.3-2,4.3c0,3,0.8,4.3,2,4.3
			C54.8,37.6,55.6,36.3,55.6,33.3z"/>
		<path class="st4" d="M58.2,33.3c0-3.6,1.2-5.3,3.2-5.3c1.9,0,3.2,1.7,3.2,5.3c0,3.6-1.2,5.4-3.2,5.4
			C59.5,38.6,58.2,36.8,58.2,33.3z M63.4,33.3c0-3-0.8-4.3-1.9-4.3c-1.2,0-2,1.3-2,4.3c0,3,0.8,4.3,2,4.3
			C62.6,37.6,63.4,36.3,63.4,33.3z"/>
	</g>
</g>
<rect x="83.7" y="336.8" class="st5" width="835.4" height="1"/>
<g>
	<rect x="83.2" y="337.3" class="st5" width="1" height="4"/>
	<rect x="222.4" y="337.3" class="st5" width="1" height="4"/>
	<rect x="361.6" y="337.3" class="st5" width="1" height="4"/>
	<rect x="500.9" y="337.3" class="st5" width="1" height="4"/>
	<rect x="640.1" y="337.3" class="st5" width="1" height="4"/>
	<rect x="779.3" y="337.3" class="st5" width="1" height="4"/>
	<rect x="918.6" y="337.3" class="st5" width="1" height="4"/>
</g>
<g>
	<g>
		<path class="st4" d="M935.3,319.9v3.4c0,0.5-0.1,0.7-0.4,0.9c-0.3,0.1-0.8,0.2-1.6,0.2c0-0.2-0.2-0.6-0.3-0.8c0.6,0,1.1,0,1.2,0
			c0.2,0,0.2-0.1,0.2-0.2v-3.1l-1.5,0.4l-0.3-0.9c0.5-0.1,1.1-0.3,1.8-0.5v-2.6h-1.6v-0.8h1.6v-2.4h0.9v2.4h1.5v0.8h-1.5v2.3
			l1.1-0.3l0.1,0.8L935.3,319.9z M942.8,319c-0.5,1.4-1.3,2.6-2.3,3.4c0.9,0.6,2,1,3.2,1.2c-0.2,0.2-0.4,0.6-0.6,0.8
			c-1.3-0.3-2.4-0.8-3.4-1.5c-1,0.7-2.3,1.2-3.5,1.5c-0.1-0.3-0.3-0.6-0.4-0.8c1.2-0.3,2.3-0.7,3.2-1.3c-0.8-0.8-1.5-1.7-2-2.7
			l0.1,0h-0.5v-0.8h5.4l0.2,0L942.8,319z M938.7,315.2c0,1.1-0.3,2.4-1.8,3.2c-0.1-0.2-0.4-0.5-0.6-0.7c1.3-0.7,1.5-1.7,1.5-2.6
			v-1.3h3.8v2.8c0,0.3,0,0.5,0.2,0.5h0.9c0.2,0,0.4,0,0.6-0.1c0,0.2,0,0.6,0.1,0.8c-0.2,0-0.4,0.1-0.6,0.1h-1c-0.8,0-1-0.3-1-1.2
			v-1.9h-2.1V315.2z M937.9,319.6c0.4,0.9,1.1,1.6,1.8,2.3c0.8-0.6,1.4-1.4,1.9-2.3H937.9z"/>
		<path class="st4" d="M948.2,316.8h-3.4V316h3.4V316.8z M949.2,322.9c-1,0.6-2.5,1.1-3.7,1.5c-0.2-0.2-0.5-0.5-0.7-0.7
			c1.2-0.3,2.7-0.7,3.5-1.2L949.2,322.9z M947.9,314.9h-2.9v-0.7h2.9V314.9z M946.4,317.7h7.8v4.8h-7.8V317.7z M947.3,319.1h6v-0.8
			h-6V319.1z M947.3,320.5h6v-0.8h-6V320.5z M947.3,321.9h6v-0.8h-6V321.9z M950.1,315c-0.3,0.5-0.6,0.9-0.9,1.2
			c-0.1-0.1-0.5-0.4-0.7-0.5c0.6-0.6,1.1-1.4,1.4-2.3l0.8,0.2c-0.1,0.2-0.2,0.4-0.3,0.7h4l0.1,0l0.6,0.2c-0.3,0.6-0.7,1.3-1,1.7
			l-0.7-0.3c0.2-0.3,0.4-0.6,0.6-0.9h-1.9v0.2c0,0.1,0,0.3,0,0.4c0.6,0.7,1.9,1.2,3.5,1.3c-0.2,0.2-0.4,0.5-0.5,0.7
			c-1.4-0.2-2.5-0.7-3.3-1.4c-0.4,0.6-1.3,1.1-3.5,1.5c-0.1-0.2-0.3-0.5-0.5-0.7c3.1-0.4,3.4-1.2,3.4-1.9V315H950.1z M951.9,322.6
			c1.3,0.4,2.7,0.9,3.5,1.3l-0.8,0.5c-0.8-0.4-2.1-0.9-3.4-1.3L951.9,322.6z"/>
		<path class="st4" d="M943.6,336.1h-4.3v2.7h-0.9v-2.7h-5.5v-0.9h2V332h3.6v-1.8h-2.9c-0.5,0.9-1.2,1.7-1.8,2.4
			c-0.2-0.1-0.5-0.4-0.8-0.6c1.1-1,2.1-2.5,2.7-4.1l0.9,0.2c-0.2,0.4-0.4,0.9-0.6,1.3h7.1v0.9h-3.8v1.8h3.5v0.8h-3.5v2.4h4.3V336.1z
			 M938.3,335.2v-2.4h-2.7v2.4H938.3z"/>
		<path class="st4" d="M950,335.7c-0.1,0.5-0.4,1.1-1,1.6c0.5,0.2,1,0.5,1.4,0.7l-0.6,0.5c-0.4-0.2-0.9-0.5-1.5-0.8
			c-0.8,0.4-1.8,0.8-3.4,1c-0.1-0.2-0.2-0.4-0.4-0.6c1.3-0.2,2.2-0.5,2.9-0.8c-0.6-0.3-1.2-0.5-1.8-0.7c0.2-0.2,0.4-0.5,0.6-0.8
			l-1.4,0.1l-0.1-0.7c0.5,0,1.2,0,1.9-0.1c0.2-0.3,0.4-0.6,0.5-0.9h-2v-2h2.3v-0.5h-1.9v-1.3h-0.8v-0.7h0.8v-1.2h1.9v-0.8h0.7v0.8h2
			v1.2h0.8v0.7h-0.8v1.3h-2v0.5h2.3v2h-2.5c-0.1,0.3-0.3,0.6-0.5,0.9c0.6,0,1.2-0.1,1.8-0.1V335v-0.4h0.7v0.5v0.1l0.6,0l0,0.6
			L950,335.7z M946.1,333.8h1.5V333h-1.5V333.8z M946.4,329.3v0.6h1.2v-0.6H946.4z M947.6,331.3v-0.7h-1.2v0.7H947.6z M947.1,335.9
			c-0.1,0.2-0.3,0.4-0.4,0.5c0.5,0.2,1,0.3,1.5,0.6c0.6-0.4,0.9-0.8,1-1.2L947.1,335.9z M948.3,329.3v0.6h1.2v-0.6H948.3z
			 M949.5,331.3v-0.7h-1.2v0.7H949.5z M948.3,333v0.7h1.5V333H948.3z M954.8,331c-0.2,1.8-0.5,3.3-1.1,4.6c0.5,1.1,1.2,2,2,2.5
			c-0.2,0.2-0.4,0.4-0.5,0.6c-0.8-0.5-1.4-1.3-1.9-2.3c-0.5,1-1.2,1.8-2.2,2.5c-0.1-0.2-0.3-0.5-0.5-0.7c1-0.7,1.7-1.6,2.3-2.7
			c-0.4-0.9-0.7-2-0.9-3.2c-0.2,0.5-0.4,0.9-0.6,1.3c-0.1-0.1-0.4-0.4-0.6-0.5c0.8-1.3,1.3-3.2,1.5-5.2l0.8,0.1
			c-0.1,0.7-0.2,1.4-0.4,2.1h2.9v0.8H954.8z M952.5,331c0.2,1.3,0.4,2.5,0.8,3.5c0.3-1,0.6-2.2,0.7-3.5H952.5z"/>
	</g>
</g>
<g>
	<path class="st4" d="M80.9,352.3c0-3.1,1.1-4.5,2.7-4.5c1.7,0,2.7,1.5,2.7,4.5c0,3.1-1.1,4.6-2.7,4.6
		C82,356.9,80.9,355.4,80.9,352.3z M85.3,352.3c0-2.6-0.7-3.6-1.7-3.6c-1,0-1.7,1.1-1.7,3.6c0,2.6,0.7,3.7,1.7,3.7
		C84.7,356,85.3,354.9,85.3,352.3z"/>
</g>
<g>
	<path class="st4" d="M219.9,355.7l0.5-0.7c0.5,0.5,1.1,1,2.2,1c1,0,1.9-0.8,1.9-2.1c0-1.3-0.7-2-1.8-2c-0.6,0-1,0.2-1.5,0.5
		l-0.6-0.4l0.3-4.1h4.3v0.9h-3.3l-0.2,2.5c0.4-0.2,0.8-0.3,1.3-0.3c1.5,0,2.7,0.9,2.7,2.8s-1.4,3-2.9,3
		C221.3,356.9,220.5,356.3,219.9,355.7z"/>
</g>
<g>
	<path class="st4" d="M356.5,355.8h2v-6.6h-1.6v-0.7c0.8-0.1,1.3-0.3,1.8-0.6h0.8v7.9h1.8v0.9h-4.8V355.8z"/>
	<path class="st4" d="M362.7,352.3c0-3.1,1.1-4.5,2.7-4.5c1.7,0,2.7,1.5,2.7,4.5c0,3.1-1.1,4.6-2.7,4.6
		C363.8,356.9,362.7,355.4,362.7,352.3z M367.1,352.3c0-2.6-0.7-3.6-1.7-3.6c-1,0-1.7,1.1-1.7,3.6c0,2.6,0.7,3.7,1.7,3.7
		C366.5,356,367.1,354.9,367.1,352.3z"/>
</g>
<g>
	<path class="st4" d="M495.8,355.8h2v-6.6h-1.6v-0.7c0.8-0.1,1.3-0.3,1.8-0.6h0.8v7.9h1.8v0.9h-4.8V355.8z"/>
	<path class="st4" d="M501.7,355.7l0.5-0.7c0.5,0.5,1.1,1,2.2,1c1,0,1.9-0.8,1.9-2.1c0-1.3-0.7-2-1.8-2c-0.6,0-1,0.2-1.5,0.5
		l-0.6-0.4l0.3-4.1h4.3v0.9h-3.3l-0.2,2.5c0.4-0.2,0.8-0.3,1.3-0.3c1.5,0,2.7,0.9,2.7,2.8s-1.4,3-2.9,3
		C503.1,356.9,502.3,356.3,501.7,355.7z"/>
</g>
<g>
	<path class="st4" d="M634.5,356.1c2.8-2.4,4-4.2,4-5.7c0-1-0.5-1.7-1.6-1.7c-0.7,0-1.3,0.4-1.8,1l-0.6-0.6c0.7-0.8,1.5-1.3,2.6-1.3
		c1.6,0,2.6,1,2.6,2.6c0,1.8-1.4,3.5-3.4,5.5c0.5,0,1-0.1,1.4-0.1h2.4v0.9h-5.5V356.1z"/>
	<path class="st4" d="M641.2,352.3c0-3.1,1.1-4.5,2.7-4.5c1.7,0,2.7,1.5,2.7,4.5c0,3.1-1.1,4.6-2.7,4.6
		C642.3,356.9,641.2,355.4,641.2,352.3z M645.6,352.3c0-2.6-0.7-3.6-1.7-3.6c-1,0-1.7,1.1-1.7,3.6c0,2.6,0.7,3.7,1.7,3.7
		C644.9,356,645.6,354.9,645.6,352.3z"/>
</g>
<g>
	<path class="st4" d="M773.7,356.1c2.8-2.4,4-4.2,4-5.7c0-1-0.5-1.7-1.6-1.7c-0.7,0-1.3,0.4-1.8,1l-0.6-0.6c0.7-0.8,1.5-1.3,2.6-1.3
		c1.6,0,2.6,1,2.6,2.6c0,1.8-1.4,3.5-3.4,5.5c0.5,0,1-0.1,1.4-0.1h2.4v0.9h-5.5V356.1z"/>
	<path class="st4" d="M780.2,355.7l0.5-0.7c0.5,0.5,1.1,1,2.2,1c1,0,1.9-0.8,1.9-2.1c0-1.3-0.7-2-1.8-2c-0.6,0-1,0.2-1.5,0.5
		l-0.6-0.4l0.3-4.1h4.3v0.9h-3.3l-0.2,2.5c0.4-0.2,0.8-0.3,1.3-0.3c1.5,0,2.7,0.9,2.7,2.8s-1.4,3-2.9,3
		C781.6,356.9,780.8,356.3,780.2,355.7z"/>
</g>
<g>
	<path class="st4" d="M912.8,355.7l0.6-0.7c0.5,0.5,1.2,1,2.2,1c1,0,1.8-0.6,1.8-1.6c0-1.1-0.7-1.8-2.7-1.8v-0.8
		c1.8,0,2.4-0.7,2.4-1.7c0-0.9-0.6-1.4-1.5-1.4c-0.7,0-1.3,0.4-1.8,0.9l-0.6-0.7c0.7-0.6,1.4-1.1,2.5-1.1c1.5,0,2.6,0.8,2.6,2.2
		c0,1.1-0.6,1.8-1.6,2.1v0c1,0.2,1.9,1,1.9,2.2c0,1.6-1.3,2.5-2.8,2.5C914.2,356.9,913.3,356.3,912.8,355.7z"/>
	<path class="st4" d="M919.7,352.3c0-3.1,1.1-4.5,2.7-4.5c1.7,0,2.7,1.5,2.7,4.5c0,3.1-1.1,4.6-2.7,4.6
		C920.7,356.9,919.7,355.4,919.7,352.3z M924.1,352.3c0-2.6-0.7-3.6-1.7-3.6c-1,0-1.7,1.1-1.7,3.6c0,2.6,0.7,3.7,1.7,3.7
		C923.4,356,924.1,354.9,924.1,352.3z"/>
</g>
<g>
	<g>
		<path class="st4" d="M33.8,12.9c-0.8,0.7-1.9,1.4-2.9,1.9c-0.2-0.2-0.5-0.4-0.7-0.6c1-0.4,2.1-1,2.8-1.6L33.8,12.9z M36.1,12V14
			c0,0.5-0.1,0.7-0.4,0.8C35.3,15,34.8,15,34,15c0-0.3-0.2-0.6-0.3-0.8c0.6,0,1.2,0,1.3,0c0.2,0,0.2,0,0.2-0.2v-2
			c-3.3,0.2-3.8,0.2-4.1,0.3c0-0.2-0.1-0.6-0.2-0.8c0.4,0,0.9-0.2,1.6-0.4c0.4-0.1,1.2-0.4,2.1-0.9c-2.2,0.1-2.6,0.2-2.8,0.3
			c0-0.2-0.2-0.6-0.3-0.8c0.2,0,0.5-0.1,0.8-0.3c0.3-0.1,0.9-0.5,1.6-0.9h-2.5V4.5H40v4.1h-4.9C34.6,9,34,9.3,33.4,9.6l2.7-0.1
			c0.5-0.3,1-0.5,1.4-0.8l0.7,0.5c-1.5,0.9-3,1.6-4.5,2.1l4.9-0.2c-0.3-0.3-0.6-0.6-0.9-0.8l0.6-0.4c0.8,0.6,1.8,1.5,2.3,2.1
			l-0.7,0.5c-0.2-0.2-0.4-0.5-0.6-0.7L36.1,12z M32.2,6.2h3v-1h-3V6.2z M32.2,7.8h3v-1h-3V7.8z M39.2,5.2h-3.1v1h3.1V5.2z M39.2,6.8
			h-3.1v1h3.1V6.8z M37.7,12.6c1,0.5,2.3,1.2,3,1.7L40,14.8c-0.6-0.5-1.9-1.3-2.9-1.8L37.7,12.6z"/>
		<path class="st4" d="M46,11.3c-0.2-0.3-0.7-1-1.1-1.5V15h-0.9V9.7c-0.5,1.2-1.1,2.4-1.7,3.1c-0.1-0.3-0.3-0.6-0.5-0.8
			c0.8-0.9,1.6-2.4,2.1-3.8h-1.8V7.4h1.8V5.5c-0.6,0.1-1.1,0.2-1.6,0.3c0-0.2-0.2-0.5-0.3-0.7c1.3-0.2,2.8-0.5,3.7-0.9l0.6,0.7
			c-0.4,0.2-1,0.3-1.5,0.5v2h1.3V7.2h2.9V6.5h-2.3V5.9h2.3V5.3h-2.5V4.7h2.5V4.1h0.9v0.7h2.7v0.6h-2.7v0.6h2.4v0.6h-2.4v0.6h3v0.6
			h-6.8v0.4H45v0.7c0.4,0.4,1.4,1.4,1.6,1.6L46,11.3z M49.2,13.6c-0.7,0.6-1.9,1.2-2.8,1.5c-0.1-0.2-0.4-0.4-0.6-0.6
			c1-0.3,2.1-0.8,2.7-1.3L49.2,13.6z M47.1,13.1V8.4h5.3v4.7H47.1z M47.9,9.7h3.7V9h-3.7V9.7z M47.9,11.1h3.7v-0.8h-3.7V11.1z
			 M47.9,12.5h3.7v-0.8h-3.7V12.5z M50.9,13.2c0.8,0.5,1.7,1,2.3,1.4L52.4,15c-0.5-0.4-1.3-0.9-2.1-1.4L50.9,13.2z"/>
		<path class="st4" d="M57.7,7.3h-3.4V6.6h3.4V7.3z M58.6,13.5c-1,0.6-2.5,1.1-3.7,1.5c-0.2-0.2-0.5-0.5-0.7-0.7
			c1.2-0.3,2.7-0.7,3.5-1.2L58.6,13.5z M57.4,5.5h-2.9V4.8h2.9V5.5z M55.8,8.3h7.8v4.8h-7.8V8.3z M56.7,9.7h6V8.9h-6V9.7z
			 M56.7,11.1h6v-0.8h-6V11.1z M56.7,12.5h6v-0.8h-6V12.5z M59.6,5.6C59.3,6,59,6.4,58.7,6.8c-0.1-0.1-0.5-0.4-0.7-0.5
			c0.6-0.6,1.1-1.4,1.4-2.3l0.8,0.2c-0.1,0.2-0.2,0.4-0.3,0.7h4l0.1,0L64.7,5c-0.3,0.6-0.7,1.3-1,1.7L63,6.5
			c0.2-0.3,0.4-0.6,0.6-0.9h-1.9v0.2c0,0.1,0,0.3,0,0.4c0.6,0.7,1.9,1.2,3.5,1.3c-0.2,0.2-0.4,0.5-0.5,0.7c-1.4-0.2-2.5-0.7-3.3-1.4
			C61,7.3,60,7.9,57.9,8.2c-0.1-0.2-0.3-0.5-0.5-0.7c3.1-0.4,3.4-1.2,3.4-1.9V5.6H59.6z M61.4,13.2c1.3,0.4,2.7,0.9,3.5,1.3L64.1,15
			c-0.8-0.4-2.1-0.9-3.4-1.3L61.4,13.2z"/>
		<path class="st4" d="M68,8.9v1.8c0,1.4-0.2,3.2-1.3,4.4c-0.1-0.2-0.5-0.5-0.7-0.6c1-1.1,1.1-2.7,1.1-3.9V8.2h1.5
			c-0.1-0.2-0.3-0.3-0.4-0.4c0.9-0.2,2-0.4,3.1-0.7c-0.9-0.3-1.8-0.5-2.7-0.7l0.5-0.4h-1.9V5.1h4.4c-0.2-0.3-0.4-0.6-0.6-0.9
			l0.6-0.3c0.3,0.4,0.7,0.8,0.9,1.2h4v0.7h-1.8l0.5,0.3c-0.5,0.3-1.2,0.6-1.8,0.8c0.9,0.3,1.7,0.5,2.3,0.7l-0.5,0.4h1.7v0.7H68z
			 M77.1,13.9v0.7h-8.9v-0.7h3.9v-1.2h-2.8v-0.7h2.8v-1.1h-2.5c-0.3,0.6-0.7,1.1-1.1,1.5c-0.1-0.2-0.3-0.6-0.5-0.7
			c0.7-0.6,1.2-1.5,1.6-2.5l0.8,0.2c-0.1,0.3-0.2,0.5-0.3,0.8h2.1v-1H73v1h3.2v0.7H73v1.1h3v0.7h-3v1.2H77.1z M74.9,8.2
			c-0.7-0.3-1.6-0.6-2.5-0.9c-1.1,0.3-2.2,0.6-3.2,0.9H74.9z M69.4,5.9c0.9,0.2,2,0.5,3,0.8c0.8-0.3,1.5-0.5,2-0.8H69.4z"/>
		<path class="st4" d="M84.1,8.4v1.6h4.2v0.8h-4.2v2.9h4.7v0.8H78.5v-0.8h4.7v-2.9H79v-0.8h4.1V8.4h-2.6V7.8
			c-0.6,0.3-1.3,0.6-1.9,0.9C78.5,8.4,78.3,8,78,7.8c2.2-0.7,4.4-2.1,5.6-3.9l0.8,0.4c-0.1,0.1-0.2,0.3-0.3,0.4
			c1.2,1.3,3.3,2.5,5.1,3.1C89,8,88.8,8.4,88.6,8.6c-0.6-0.2-1.3-0.6-1.9-0.9v0.7H84.1z M80.8,11.2c0.5,0.7,1,1.6,1.2,2.1l-0.8,0.3
			c-0.2-0.6-0.6-1.5-1.1-2.2L80.8,11.2z M86.6,7.6c-1.1-0.6-2.1-1.4-2.9-2.3c-0.8,0.9-1.8,1.6-2.8,2.3H86.6z M85.2,13.4
			c0.4-0.6,1-1.5,1.2-2.2l0.8,0.3c-0.4,0.8-1,1.6-1.4,2.2L85.2,13.4z"/>
		<path class="st4" d="M94.9,11.4L94.9,11.4l-0.1,3.6h-0.8v-0.3h-2.1V15h-0.8v-3.5c-0.2,0.1-0.4,0.2-0.6,0.3
			c-0.1-0.2-0.3-0.6-0.5-0.7c0.8-0.3,1.6-0.7,2.3-1.3c-0.3-0.2-0.6-0.4-0.9-0.6L92,8.6c0.3,0.2,0.6,0.3,1,0.6
			c0.4-0.4,0.7-0.8,0.9-1.3h-1.7c-0.4,0.5-0.8,1-1.4,1.5c-0.1-0.2-0.3-0.5-0.5-0.6c0.9-0.6,1.5-1.6,1.8-2.4l0.7,0.1
			c-0.1,0.2-0.2,0.5-0.3,0.7h1.8l0.1,0l0.5,0.3c-0.3,0.8-0.7,1.5-1.3,2.1c0.7,0.4,1.4,0.9,1.8,1.2L94.9,11.4z M91.1,7.2h-0.7v-2h2.2
			c-0.1-0.3-0.2-0.6-0.4-0.9l0.7-0.3c0.2,0.3,0.4,0.8,0.5,1.1h2v2h-0.7V5.9h-3.6V7.2z M94.8,11.3c-0.4-0.3-1.1-0.8-1.8-1.2
			c-0.5,0.5-1.1,0.9-1.7,1.2H94.8z M94.1,13.9V12h-2.1v1.8H94.1z M98.1,13.5c-0.7,0.6-1.7,1.2-2.5,1.5c-0.1-0.2-0.3-0.5-0.4-0.7
			c0.8-0.3,1.7-0.9,2.3-1.5L98.1,13.5z M97.8,6.6c0.1-0.4,0.2-0.8,0.2-1.2h-2.2V4.6h5.2v0.8h-2.2c-0.1,0.4-0.2,0.8-0.3,1.2h2.2v6.2
			h-4.5V6.6H97.8z M99.8,7.3H97v1.1h2.8V7.3z M99.8,9.1H97v1.1h2.8V9.1z M99.8,10.9H97V12h2.8V10.9z M99.2,12.9c0.7,0.4,1.5,1,2,1.5
			l-0.5,0.6c-0.4-0.4-1.3-1.1-2-1.5L99.2,12.9z"/>
		<path class="st4" d="M103.9,10.4c0-2.4,0.7-4.3,1.8-6.1l0.7,0.3c-1,1.7-1.5,3.7-1.5,5.8s0.5,4.1,1.5,5.8l-0.7,0.3
			C104.6,14.6,103.9,12.7,103.9,10.4z"/>
		<path class="st4" d="M110.5,11.6c-0.3,0.9-0.8,1.8-1.2,2.4c-0.1-0.1-0.4-0.3-0.6-0.4c0.5-0.6,0.9-1.4,1.1-2.2L110.5,11.6z
			 M112,10.8V15h-0.9v-4.2h-2.4V10h2.4V8.8h-2.4V8h3.3c0.2-0.6,0.5-1.3,0.6-1.9l0.8,0.2c-0.2,0.6-0.4,1.2-0.7,1.7h1.5v0.8H112V10
			h2.2v0.8H112z M114.1,6h-5.3V5.3h2.4c-0.2-0.4-0.4-0.8-0.5-1.1l0.9-0.2c0.3,0.4,0.5,0.9,0.7,1.3h1.9V6z M110.1,8
			c-0.1-0.4-0.3-1.1-0.5-1.7l0.7-0.2c0.2,0.5,0.4,1.2,0.5,1.6L110.1,8z M113.2,11.4c0.4,0.6,0.8,1.4,1,1.9l-0.6,0.4
			c-0.2-0.5-0.6-1.3-1-1.9L113.2,11.4z M119.5,8.9h-1.3v6h-0.9v-6h-1.6v0.4c0,1.7-0.2,4.1-1.2,5.6c-0.1-0.2-0.5-0.4-0.7-0.5
			c1-1.4,1.1-3.5,1.1-5.1V5.2c1.3-0.2,2.9-0.6,3.7-0.9l0.7,0.7c-1,0.4-2.4,0.7-3.6,0.9v2.3h3.8V8.9z"/>
		<path class="st4" d="M128,5.4c1.2,1,2.5,2.5,3.2,3.5l-0.8,0.5c-0.2-0.3-0.4-0.7-0.7-1c-6.8,0.4-7.5,0.4-8,0.6
			c0-0.2-0.2-0.6-0.3-0.9c0.3,0,0.6-0.3,1-0.7c0.4-0.4,1.8-1.9,2.8-3.4l0.9,0.4c-0.9,1.3-2,2.5-3.1,3.5l6.1-0.3
			c-0.6-0.6-1.2-1.2-1.7-1.8L128,5.4z M122.3,10h7.6v5H129v-0.6h-5.8V15h-0.9V10z M123.2,10.8v2.7h5.8v-2.7H123.2z"/>
		<path class="st4" d="M142.8,6c-0.3,0.9-0.7,1.7-1.3,2.3c0.6,0.6,1.3,1,2.1,1.2c-0.2,0.1-0.4,0.4-0.5,0.6c-0.8-0.3-1.5-0.8-2.2-1.4
			c-0.6,0.5-1.3,0.9-2.1,1.2c-0.1-0.2-0.3-0.5-0.5-0.7c0.8-0.3,1.5-0.6,2.1-1.1c-0.4-0.5-0.7-1-1-1.6c-0.2,0.3-0.4,0.5-0.7,0.7
			c-0.1-0.1-0.4-0.4-0.6-0.5v3.1h-0.7V6.6H136V10h-0.6V6.6h-1.5v3.5h-0.7V6h2.1v-2h0.8v2h2.1v0.7c0.8-0.6,1.4-1.6,1.7-2.7l0.8,0.2
			c-0.1,0.4-0.2,0.7-0.4,1.1h3.3V6H142.8z M134,6c-0.1-0.4-0.5-1-0.8-1.4l0.6-0.3c0.3,0.4,0.7,0.9,0.8,1.3L134,6z M142.4,13.4
			c0,0.5-0.1,0.7-0.5,0.8c-0.4,0.1-1,0.1-2,0.1c0-0.2-0.2-0.5-0.3-0.7c0.8,0,1.5,0,1.7,0c0.2,0,0.3-0.1,0.3-0.2v-1.9h-3V15h-0.9
			v-3.4h-2.8v2.8H134v-3.6h3.6v-0.7h0.9v0.7h3.9V13.4z M135,7.2c-0.1,0.7-0.3,1.5-0.6,2c-0.1-0.1-0.3-0.2-0.5-0.2
			c0.3-0.5,0.4-1.2,0.5-1.8L135,7.2z M136.7,7.1c0.3,0.6,0.5,1.4,0.5,1.9l-0.5,0.1c0-0.5-0.3-1.3-0.5-1.9L136.7,7.1z M138.2,4.6
			c-0.3,0.5-0.7,1.1-1,1.4l-0.5-0.2c0.3-0.4,0.6-1,0.8-1.5L138.2,4.6z M139.9,6c0.2,0.6,0.6,1.2,1,1.8c0.4-0.5,0.8-1.1,1-1.8H139.9z
			"/>
		<path class="st4" d="M147.5,5.5h-2.7V4.8h2.7V4h0.9v0.7h1.5v0.8h-1.5v0.7h-0.9V5.5z M154.8,14.1c0,0.4-0.1,0.6-0.4,0.8
			c-0.3,0.1-0.8,0.1-1.6,0.1c0-0.2-0.2-0.5-0.3-0.7c0.6,0,1,0,1.2,0c0.1,0,0.2,0,0.2-0.2v-2.5h-3.5v1.2l1.5-0.1
			c-0.2-0.3-0.3-0.5-0.5-0.8l0.7-0.2c0.5,0.6,1.1,1.5,1.2,2.1l-0.7,0.3c-0.1-0.2-0.2-0.4-0.3-0.7c-1.9,0.1-3.9,0.2-5.3,0.3l-0.1-0.8
			c0.7,0,1.6-0.1,2.6-0.1v-1.3h-3.3V15h-0.9v-3.4H145v-0.7h0.5v-0.4h0.9v0.4h3.3v-0.7h-3.4V6.5h7.8v3.6h-3.5v0.7h4.3V14.1z M147.1,8
			h2.6V7.1h-2.6V8z M149.6,9.4V8.6h-2.6v0.9H149.6z M155.3,4.8v0.8h-2.7v0.8h-0.9V5.5h-1.4V4.8h1.4V4h0.9v0.7H155.3z M153.1,7.1
			h-2.6V8h2.6V7.1z M153.1,8.6h-2.6v0.9h2.6V8.6z"/>
		<path class="st4" d="M166.1,13.9c0.5,0,0.6-0.3,0.6-2.1c0.2,0.2,0.6,0.3,0.8,0.4c-0.1,2-0.3,2.6-1.4,2.6h-1.7
			c-1.1,0-1.4-0.3-1.4-1.3V9.2h-2.2c-0.2,2.6-0.8,4.7-3.6,5.8c-0.1-0.2-0.4-0.5-0.6-0.7c2.6-1,3-2.8,3.2-5.1h-3V8.3h10.5v0.9H164
			v4.3c0,0.4,0.1,0.5,0.6,0.5H166.1z M166.3,5.8h-8.4V5h8.4V5.8z"/>
		<path class="st4" d="M169.8,16.1c1-1.7,1.5-3.7,1.5-5.8s-0.5-4.1-1.5-5.8l0.7-0.3c1.1,1.8,1.8,3.7,1.8,6.1c0,2.4-0.7,4.3-1.8,6.1
			L169.8,16.1z"/>
	</g>
</g>
<circle class="st1" cx="917.8" cy="235.4" r="6"/>
<circle class="st2" cx="668.4" cy="235.4" r="6"/>
<circle class="st3" cx="542.4" cy="235.4" r="6"/>
<path class="st3" d="M395.7,158.2h-220c-5.5,0-10-4.5-10-10v-40c0-5.5,4.5-10,10-10h220c5.5,0,10,4.5,10,10v40
	C405.7,153.7,401.2,158.2,395.7,158.2z"/>
<g>
	<path class="st6" d="M191.3,112.4c-0.8,1.2-1.6,2.3-2.5,3.2c-0.3-0.3-0.9-0.7-1.3-0.9c1.5-1.2,2.8-3.3,3.7-5.3l1.5,0.4
		c-0.2,0.4-0.4,0.8-0.6,1.2h9.6v1.3H191.3z M199.9,118.6c0,0.9-0.1,1.6-0.2,2.2h1.9v1.3h-2c-0.1,0.7-0.3,1.2-0.4,1.4
		c-0.3,0.4-0.7,0.6-1.2,0.7c-0.5,0-1.3,0-2.1,0c0-0.4-0.2-0.8-0.4-1.2c0.8,0.1,1.4,0.1,1.8,0.1c0.3,0,0.4,0,0.6-0.2
		c0.1-0.1,0.2-0.4,0.3-0.7h-8.9c0.2-1,0.4-2.2,0.6-3.5h-2.2v-1.3h2.4c0.2-1.2,0.3-2.4,0.4-3.4h9.6c0,0,0,0.5,0,0.7
		c0,1-0.1,2-0.1,2.8h2.3v1.3H199.9z M191.3,118.6c-0.1,0.8-0.2,1.6-0.3,2.2h4.3c-0.6-0.5-1.6-1.2-2.5-1.6l0.7-0.6H191.3z
		 M191.8,115.1c-0.1,0.7-0.2,1.5-0.3,2.2h4.1c-0.6-0.5-1.6-1.1-2.4-1.5l0.7-0.7H191.8z M198.3,120.8c0.1-0.6,0.1-1.3,0.2-2.2H194
		c0.9,0.5,2,1.1,2.5,1.7l-0.6,0.6H198.3z M198.5,117.3c0-0.7,0-1.4,0.1-2.2h-4.3c0.9,0.4,1.9,1,2.5,1.6l-0.6,0.6H198.5z"/>
	<path class="st6" d="M216.1,122.2c0,1-0.3,1.4-0.9,1.7c-0.7,0.3-1.8,0.3-3.4,0.3c-0.1-0.4-0.4-1.2-0.6-1.6c1.2,0.1,2.5,0,2.9,0
		c0.4,0,0.5-0.1,0.5-0.5v-2.8h-7.3c-0.4,1.8-1.2,3.6-2.7,4.9c-0.2-0.3-0.8-0.9-1.1-1.1c2.5-2.1,2.7-5.3,2.7-7.8v-5h10V122.2z
		 M214.5,117.9v-2.4h-6.9c0,0.7,0,1.5-0.1,2.4H214.5z M207.7,111.7v2.4h6.9v-2.4H207.7z"/>
	<path class="st6" d="M225.3,113c-0.5,1.2-1.2,2.4-2,3.4v7.7h-1.5v-6c-0.5,0.5-1.1,1-1.7,1.4c-0.2-0.4-0.5-1-0.7-1.4
		c1.9-1.2,3.3-3.2,4.3-5.2h-3.8v-1.4h4.4c0.3-0.7,0.5-1.4,0.7-2.1l1.5,0.4c-0.2,0.6-0.4,1.2-0.6,1.7h8v1.4H225.3z M234.2,120h-4v2.6
		c0,0.8-0.2,1.2-0.8,1.4c-0.6,0.2-1.5,0.2-2.8,0.2c-0.1-0.4-0.3-1-0.4-1.4c0.9,0,1.9,0,2.1,0c0.3,0,0.4-0.1,0.4-0.3V120h-4.2v-1.4
		h4.2v-1.2c0.7-0.4,1.4-0.9,2-1.5h-4.9v-1.3h6.3l0.3-0.1l0.9,0.8c-0.8,0.9-2,1.9-3.1,2.6v0.8h4V120z"/>
	<path class="st6" d="M236.9,121.5l0.9-1.2c0.7,0.7,1.6,1.3,2.8,1.3c1.3,0,2.2-0.7,2.2-2c0-1.3-0.8-2.2-3.5-2.2v-1.4
		c2.3,0,3.1-0.9,3.1-2.1c0-1-0.7-1.7-1.8-1.7c-0.9,0-1.7,0.5-2.4,1.1l-1-1.2c0.9-0.8,2-1.4,3.4-1.4c2.1,0,3.6,1.1,3.6,3
		c0,1.4-0.8,2.3-2,2.8v0.1c1.4,0.3,2.4,1.4,2.4,2.9c0,2.1-1.8,3.4-3.9,3.4C238.9,123.1,237.7,122.4,236.9,121.5z"/>
	<path class="st6" d="M246.4,117c0-4.1,1.5-6.1,3.8-6.1c2.3,0,3.8,2,3.8,6.1c0,4.1-1.5,6.1-3.8,6.1
		C247.9,123.1,246.4,121.1,246.4,117z M252.2,117c0-3.4-0.8-4.6-2-4.6c-1.2,0-2,1.2-2,4.6c0,3.4,0.8,4.7,2,4.7
		C251.4,121.7,252.2,120.4,252.2,117z"/>
	<path class="st6" d="M255.6,125.1c1.1-0.4,1.7-1.2,1.7-2.2c-0.1,0-0.1,0-0.2,0c-0.7,0-1.2-0.4-1.2-1.2c0-0.7,0.6-1.2,1.3-1.2
		c0.9,0,1.4,0.8,1.4,2c0,1.7-1,3-2.6,3.6L255.6,125.1z"/>
	<path class="st6" d="M260.3,117c0-4.1,1.5-6.1,3.8-6.1c2.3,0,3.8,2,3.8,6.1c0,4.1-1.5,6.1-3.8,6.1
		C261.8,123.1,260.3,121.1,260.3,117z M266.1,117c0-3.4-0.8-4.6-2-4.6c-1.2,0-2,1.2-2,4.6c0,3.4,0.8,4.7,2,4.7
		C265.3,121.7,266.1,120.4,266.1,117z"/>
	<path class="st6" d="M269.4,117c0-4.1,1.5-6.1,3.8-6.1c2.3,0,3.8,2,3.8,6.1c0,4.1-1.5,6.1-3.8,6.1
		C270.9,123.1,269.4,121.1,269.4,117z M275.2,117c0-3.4-0.8-4.6-2-4.6c-1.2,0-2,1.2-2,4.6c0,3.4,0.8,4.7,2,4.7
		C274.4,121.7,275.2,120.4,275.2,117z"/>
	<path class="st6" d="M278.5,117c0-4.1,1.5-6.1,3.8-6.1c2.3,0,3.8,2,3.8,6.1c0,4.1-1.5,6.1-3.8,6.1C280,123.1,278.5,121.1,278.5,117
		z M284.4,117c0-3.4-0.8-4.6-2-4.6c-1.2,0-2,1.2-2,4.6c0,3.4,0.8,4.7,2,4.7C283.5,121.7,284.4,120.4,284.4,117z"/>
	<path class="st6" d="M301.7,122.5c0.6,0,0.7-0.4,0.8-2.8c0.4,0.3,1,0.5,1.4,0.6c-0.2,2.8-0.5,3.6-2,3.6h-2.1c-1.6,0-2-0.5-2-2.1
		v-5.3h-2.7c-0.3,3.4-1,6.1-4.8,7.7c-0.2-0.4-0.6-0.9-0.9-1.2c3.3-1.2,3.9-3.6,4.1-6.5h-3.9v-1.4h14.1v1.4h-4.4v5.3
		c0,0.6,0.1,0.7,0.7,0.7H301.7z M302.1,112.1h-11.3v-1.4h11.3V112.1z"/>
	<path class="st6" d="M192.7,139.8c-0.5,0.2-1,0.3-1.6,0.4v4.2c0,0.8-0.2,1.2-0.6,1.4c-0.5,0.2-1.2,0.3-2.3,0.3c0-0.4-0.3-1-0.4-1.3
		c0.7,0,1.4,0,1.6,0c0.2,0,0.3-0.1,0.3-0.3v-3.8l-1.9,0.5l-0.4-1.4c0.6-0.1,1.4-0.3,2.3-0.6V136h-2v-1.4h2v-3.1h1.4v3.1h1.9v1.4
		h-1.9v2.8l1.4-0.4L192.7,139.8z M201.2,138.8c-0.6,2-1.6,3.4-2.9,4.6c1.1,0.7,2.5,1.2,4,1.4c-0.3,0.3-0.7,1-0.9,1.4
		c-1.6-0.4-3.1-1-4.3-1.9c-1.3,0.9-2.9,1.5-4.5,1.9c-0.1-0.4-0.5-1-0.7-1.4c1.5-0.3,2.8-0.8,4-1.5c-1-1-1.8-2.1-2.4-3.4l0.4-0.1H193
		v-1.4h7l0.3,0L201.2,138.8z M195.8,133.8c0,1.5-0.4,3.2-2.5,4.3c-0.2-0.3-0.7-0.9-1-1.1c1.8-0.9,2.1-2.1,2.1-3.3v-1.7h5.3v3.6
		c0,0.4,0,0.6,0.3,0.6h1.1c0.2,0,0.6,0,0.8-0.1c0,0.4,0.1,0.9,0.1,1.2c-0.2,0.1-0.6,0.1-0.9,0.1h-1.2c-1.3,0-1.6-0.5-1.6-1.9v-2.2
		h-2.5V133.8z M194.8,139.8c0.5,1,1.3,2,2.2,2.7c0.9-0.7,1.6-1.6,2.2-2.7H194.8z"/>
	<path class="st6" d="M213.6,133.9c0,0.1,0,0.2,0,0.4c0.9,0.9,2.6,1.4,4.7,1.6c-0.3,0.3-0.7,0.8-0.8,1.2c-1.8-0.3-3.3-0.8-4.3-1.8
		c-0.6,0.7-1.8,1.4-4.6,1.8c-0.1-0.3-0.5-0.8-0.8-1.1h-4.1v-1.2h4.6v1.1c3.5-0.4,3.8-1.3,3.8-2v-0.2h-1.3c-0.4,0.6-0.8,1.1-1.2,1.5
		c-0.2-0.2-0.8-0.6-1.1-0.8c0.8-0.7,1.5-1.8,1.8-2.9l1.3,0.3c-0.1,0.3-0.2,0.5-0.3,0.8h5l0.2-0.1l1,0.3c-0.4,0.8-0.9,1.8-1.4,2.4
		l-1.2-0.4c0.2-0.3,0.4-0.7,0.7-1.1h-2.2V133.9z M213.4,143.6c1.6,0.5,3.4,1.2,4.5,1.7l-1.3,0.8c-1-0.5-2.7-1.2-4.3-1.8l0.9-0.8
		h-4.8l1.3,0.6c-1.3,0.8-3.3,1.6-4.9,2c-0.3-0.3-0.8-0.8-1.1-1.1c1.6-0.3,3.5-0.9,4.6-1.5h-2.6v-6.4h10.4v6.4H213.4z M208,133.5
		h-3.9v-1.1h3.9V133.5z M207.2,139h7.5v-0.9h-7.5V139z M207.2,140.8h7.5v-0.9h-7.5V140.8z M207.2,142.7h7.5v-0.9h-7.5V142.7z"/>
	<path class="st6" d="M221.9,142.1c-0.2,1.4-0.7,2.9-1.1,3.8c-0.3-0.1-0.9-0.3-1.3-0.4c0.4-1,0.8-2.4,1-3.6L221.9,142.1z
		 M225.1,141.1c0-0.2-0.1-0.5-0.2-0.8c-3.9,0.6-4.5,0.8-4.8,0.9c-0.1-0.3-0.3-1-0.5-1.4c0.4-0.1,0.8-0.4,1.3-1
		c0.3-0.3,0.8-0.9,1.4-1.6c-1.7,0.2-2.1,0.3-2.4,0.4c-0.1-0.3-0.3-1-0.5-1.3c0.3,0,0.6-0.4,1-0.8c0.4-0.5,1.6-2.2,2.4-3.9l1.4,0.6
		c-0.8,1.4-1.7,2.8-2.6,4l1.7-0.1c0.4-0.6,0.9-1.3,1.3-2l1.3,0.8c-1.1,1.6-2.4,3.3-3.7,4.7l2.5-0.3c-0.1-0.5-0.3-0.9-0.5-1.4
		l1.2-0.3c0.4,1.1,0.9,2.5,1.1,3.3L225.1,141.1z M223.7,141.7c0.2,1.1,0.5,2.5,0.5,3.5l-1.2,0.3c0-1-0.3-2.4-0.4-3.6L223.7,141.7z
		 M225.5,141.3c0.4,0.9,0.8,2.2,1,3l-1.2,0.4c-0.2-0.8-0.6-2.1-1-3L225.5,141.3z M233.8,134.4c0,0,0,0.5,0,0.8
		c-0.2,7-0.4,9.4-1,10.2c-0.4,0.5-0.8,0.7-1.4,0.8c-0.6,0.1-1.5,0-2.4,0c0-0.4-0.2-1.1-0.5-1.5c1,0.1,1.9,0.1,2.3,0.1
		c0.3,0,0.5,0,0.6-0.3c0.4-0.5,0.7-2.8,0.8-8.6H228c-0.4,0.8-0.8,1.6-1.2,2.2c-0.3-0.2-0.9-0.6-1.3-0.8c1.1-1.4,2-3.5,2.4-5.7
		l1.5,0.3c-0.2,0.9-0.5,1.8-0.8,2.6H233.8z M230,142c-0.5-1-1.7-2.4-2.8-3.5l1-0.8c1.1,1,2.3,2.4,2.8,3.4L230,142z"/>
	<path class="st6" d="M237.9,143.4h2.6v-8.2h-2.1v-1.2c1.1-0.2,1.9-0.5,2.6-0.9h1.4v10.3h2.3v1.5h-6.7V143.4z"/>
	<path class="st6" d="M252.9,135.3c-0.4-0.5-1.2-0.9-1.8-0.9c-1.5,0-2.8,1.1-2.8,4.5c0.7-0.8,1.7-1.4,2.6-1.4c2,0,3.3,1.2,3.3,3.7
		c0,2.3-1.6,3.9-3.5,3.9c-2.2,0-4.1-1.9-4.1-5.9c0-4.5,2.1-6.3,4.4-6.3c1.3,0,2.3,0.6,2.9,1.3L252.9,135.3z M252.3,141.3
		c0-1.5-0.7-2.4-1.9-2.4c-0.7,0-1.5,0.4-2.2,1.4c0.2,2.3,1,3.4,2.3,3.4C251.5,143.7,252.3,142.8,252.3,141.3z"/>
	<path class="st6" d="M271.6,142.7h-5.6v3.5h-1.5v-3.5h-7.3v-1.4h2.6V137h4.7v-2.2h-3.7c-0.7,1.2-1.5,2.2-2.3,3
		c-0.3-0.3-0.9-0.7-1.3-1c1.5-1.3,2.8-3.3,3.5-5.4l1.5,0.4c-0.2,0.5-0.4,1-0.6,1.5h9.3v1.4h-4.8v2.2h4.5v1.4h-4.5v2.8h5.6V142.7z
		 M264.4,141.2v-2.8h-3.2v2.8H264.4z"/>
	<path class="st6" d="M278,143.5c-1.1,0.9-2.6,1.8-3.8,2.4c-0.3-0.3-0.8-0.8-1.1-1c1.3-0.5,2.7-1.3,3.6-2L278,143.5z M281.2,142.3
		v2.4c0,0.7-0.1,1.1-0.7,1.3c-0.5,0.2-1.3,0.2-2.3,0.2c-0.1-0.4-0.3-1-0.5-1.3c0.7,0,1.5,0,1.7,0c0.2,0,0.3,0,0.3-0.2v-2.3
		c-4.2,0.2-4.8,0.2-5.3,0.4c0-0.2-0.2-0.9-0.4-1.3c0.5,0,1.2-0.2,2.1-0.6c0.5-0.1,1.4-0.5,2.4-1c-2.6,0.2-3.1,0.3-3.4,0.4
		c-0.1-0.3-0.3-0.9-0.4-1.3c0.3,0,0.7-0.2,1.1-0.4c0.3-0.1,1.1-0.5,1.9-1h-3.1V132h11.7v5.6h-6.4c-0.7,0.5-1.4,0.9-2.1,1.2l3.2-0.2
		c0.6-0.3,1.2-0.7,1.8-1l1.1,0.9c-1.8,1.1-3.7,2-5.6,2.7l5.7-0.2c-0.4-0.3-0.8-0.7-1.1-0.9l1.1-0.7c1.2,0.8,2.4,2,3.1,2.9l-1.1,0.8
		c-0.2-0.3-0.5-0.6-0.8-0.9L281.2,142.3z M276,134.3h3.6v-1.1H276V134.3z M276,136.5h3.6v-1.1H276V136.5z M284.8,133.2H281v1.1h3.7
		V133.2z M284.8,135.4H281v1.1h3.7V135.4z M283.3,142.9c1.3,0.6,3,1.5,3.9,2.2L286,146c-0.8-0.7-2.5-1.6-3.8-2.3L283.3,142.9z"/>
	<path class="st6" d="M294.1,141.3c-0.2-0.4-0.7-1.1-1.2-1.7v6.6h-1.4v-6.4c-0.6,1.4-1.3,2.7-2,3.6c-0.2-0.4-0.5-1-0.7-1.4
		c1-1.1,2-3.1,2.6-4.8h-2.2v-1.4h2.3v-2.1c-0.7,0.1-1.4,0.2-2,0.3c-0.1-0.3-0.3-0.8-0.4-1.2c1.7-0.2,3.7-0.7,4.8-1.2l1,1.1
		c-0.6,0.2-1.2,0.4-2,0.6v2.4h1.6v-0.3h3.8v-0.7h-2.9V134h2.9v-0.7H295v-1h3.3v-0.8h1.5v0.8h3.5v1h-3.5v0.7h3.1v0.9h-3.1v0.7h3.8v1
		h-9v0.7h-1.7v0.8c0.5,0.5,1.7,1.7,2,2.1L294.1,141.3z M302.8,143.6h-5.3l1.1,0.7c-1,0.8-2.5,1.5-3.8,1.9c-0.2-0.3-0.6-0.7-0.9-1
		c1.2-0.4,2.7-1,3.5-1.7h-1.7v-6.4h7.2V143.6z M301.4,138.2h-4.5v0.9h4.5V138.2z M301.4,140h-4.5v0.9h4.5V140z M301.4,141.8h-4.5
		v0.9h4.5V141.8z M300.8,143.6c1.1,0.6,2.3,1.4,3,1.9l-1.3,0.7c-0.6-0.5-1.7-1.2-2.7-1.9L300.8,143.6z"/>
	<path class="st6" d="M319.5,139.2h-6.4v7h-1.6v-7h-6.3v-1.4h6.3v-3.5c-1.7,0.2-3.4,0.4-5,0.5c0-0.4-0.2-1-0.4-1.3
		c3.8-0.3,8.2-0.9,10.8-1.7l1.2,1.2c-1.4,0.4-3.1,0.8-4.9,1v3.8h6.4V139.2z"/>
	<path class="st6" d="M324.8,133.7h-3.5v-1.2h3.5v-0.9h1.4v0.9h1.8v1.2h-1.8v0.8h-1.4V133.7z M334.7,144.8c0,0.6-0.1,1-0.5,1.2
		c-0.4,0.2-1.1,0.2-2,0.2c-0.1-0.4-0.2-0.8-0.4-1.2l-0.3,0.1c0-0.3-0.1-0.5-0.3-0.9c-2.4,0.2-4.9,0.3-6.7,0.4l-0.1-1.3
		c0.9,0,2-0.1,3.2-0.1v-1.5h-4.1v4.5h-1.4v-4.5h-0.6v-1.2h0.6V140h1.4v0.5h4.1v-0.8h-4.5v-4.9h10.5v4.9H329v0.8h5.7V144.8z
		 M324.5,136.7h3.1v-1h-3.1V136.7z M327.6,138.6v-1h-3.1v1H327.6z M335.3,132.4v1.2h-3.5v0.8h-1.4v-0.8h-1.8v-1.2h1.8v-0.9h1.4v0.9
		H335.3z M332.2,135.8H329v1h3.1V135.8z M332.2,137.7H329v1h3.1V137.7z M331.9,145c0.6,0,1,0,1.2,0c0.2,0,0.2,0,0.2-0.2v-3H329v1.4
		l1.6-0.1c-0.2-0.3-0.4-0.6-0.6-0.9l1.1-0.3c0.6,0.9,1.3,2.1,1.4,2.9L331.9,145z"/>
	<path class="st6" d="M341.6,139c-0.4,1.5-0.9,3.1-1.6,4.3c0.3,0.2,0.6,0.4,1,0.6c1.1,0.7,2.6,0.8,4.4,0.8c2,0,4.6-0.1,6.4-0.4
		c-0.2,0.4-0.4,1.1-0.4,1.5c-1.2,0.1-4.1,0.2-6,0.2c-2.1,0-3.5-0.2-4.6-0.8c-0.6-0.4-1.2-0.9-1.6-0.9c-0.4,0-0.9,1-1.3,2l-1-1.4
		c0.7-0.9,1.3-1.6,1.9-1.8c0.4-0.8,0.8-1.9,1.1-3h-2.2c0.4-0.9,0.9-2.2,1.3-3.4h-1.9v-1.3h3.7c-0.4,1.1-0.8,2.4-1.3,3.5h1.1l0.2-0.1
		L341.6,139z M338.9,134.7c-0.2-0.7-0.6-1.8-0.8-2.6l1.4-0.4c0.3,0.8,0.7,1.8,0.9,2.5L338.9,134.7z M346.8,141.4c0,0.4,0,1,0.1,1.3
		c-3.4,0.8-4,1-4.4,1.2c-0.1-0.3-0.4-0.9-0.6-1.2c0.3-0.1,0.6-0.4,0.6-1.1v-9.5h0.9v0h6.6v6l0.1-0.1l1.1,0.9
		c-0.8,0.5-1.6,1.1-2.4,1.6c0.9,0.8,1.7,1.5,2.2,2.1l-1.1,0.9c-0.9-1.2-3-3-4.6-4.3l1-0.8c0.5,0.4,1.1,0.8,1.6,1.2
		c0.7-0.5,1.5-1.1,2.1-1.6h-6v3.8L346.8,141.4z M348.6,133.4H344v1.2h4.6V133.4z M348.6,137v-1.2H344v1.2H348.6z"/>
	<path class="st6" d="M358.4,132.1c-0.5,1.2-1,2.3-1.7,3.4v10.7h-1.5v-8.6c-0.5,0.7-1.1,1.3-1.6,1.8c-0.2-0.4-0.6-1.2-0.9-1.5
		c1.7-1.5,3.3-3.8,4.2-6.3L358.4,132.1z M363.9,136.9c1,2.4,2.5,4.8,4.1,6.1c-0.4,0.3-0.9,0.8-1.1,1.2c-1.4-1.3-2.7-3.5-3.7-5.8v7.8
		h-1.5v-7.4c-1,2.2-2.4,4.2-3.8,5.5c-0.2-0.4-0.8-0.9-1.1-1.2c1.7-1.3,3.3-3.8,4.3-6.2h-3.6v-1.5h4.3v-3.7h1.5v3.7h4.4v1.5H363.9z"
		/>
	<path class="st6" d="M377.1,137.6v1.9h5.4v1.3h-5.4v3.6h6.1v1.4h-13.7v-1.4h6v-3.6h-5.3v-1.3h5.3v-1.9h-3.3v-0.8
		c-0.8,0.4-1.5,0.7-2.3,1c-0.2-0.4-0.6-1-1-1.4c3-0.9,5.9-2.7,7.4-5l1.4,0.6c-0.1,0.2-0.3,0.4-0.4,0.6c1.6,1.6,4.3,3.1,6.7,3.8
		c-0.3,0.3-0.8,0.9-1,1.3c-0.8-0.3-1.6-0.7-2.4-1.1v1H377.1z M372.7,141c0.6,0.8,1.2,2,1.5,2.8l-1.3,0.6c-0.2-0.8-0.8-2-1.4-2.8
		L372.7,141z M379.8,136.2c-1.2-0.8-2.4-1.6-3.4-2.6c-0.9,1-2,1.9-3.2,2.6H379.8z M378.3,143.9c0.5-0.8,1.2-2,1.6-2.9l1.4,0.5
		c-0.6,1-1.3,2.1-1.9,2.8L378.3,143.9z"/>
</g>
<path class="st2" d="M670.7,128.2h-220c-5.5,0-10-4.5-10-10v-40c0-5.5,4.5-10,10-10h220c5.5,0,10,4.5,10,10v40
	C680.7,123.7,676.2,128.2,670.7,128.2z"/>
<g>
	<path class="st6" d="M466.3,82.4c-0.8,1.2-1.6,2.3-2.5,3.2c-0.3-0.3-0.9-0.7-1.3-0.9c1.5-1.2,2.8-3.3,3.7-5.3l1.5,0.4
		c-0.2,0.4-0.4,0.8-0.6,1.2h9.6v1.3H466.3z M474.9,88.6c0,0.9-0.1,1.6-0.2,2.2h1.9v1.3h-2c-0.1,0.7-0.3,1.2-0.4,1.4
		c-0.3,0.4-0.7,0.6-1.2,0.7c-0.5,0-1.3,0-2.1,0c0-0.4-0.2-0.8-0.4-1.2c0.8,0.1,1.4,0.1,1.8,0.1c0.3,0,0.4,0,0.6-0.2
		c0.1-0.1,0.2-0.4,0.3-0.7h-8.9c0.2-1,0.4-2.2,0.6-3.5h-2.2v-1.3h2.4c0.2-1.2,0.3-2.4,0.4-3.4h9.6c0,0,0,0.5,0,0.7
		c0,1-0.1,2-0.1,2.8h2.3v1.3H474.9z M466.3,88.6c-0.1,0.8-0.2,1.6-0.3,2.2h4.3c-0.6-0.5-1.6-1.2-2.5-1.6l0.7-0.6H466.3z M466.8,85.1
		c-0.1,0.7-0.2,1.5-0.3,2.2h4.1c-0.6-0.5-1.6-1.1-2.4-1.5l0.7-0.7H466.8z M473.3,90.8c0.1-0.6,0.1-1.3,0.2-2.2H469
		c0.9,0.5,2,1.1,2.5,1.7l-0.6,0.6H473.3z M473.5,87.3c0-0.7,0-1.4,0.1-2.2h-4.3c0.9,0.4,1.9,1,2.5,1.6l-0.6,0.6H473.5z"/>
	<path class="st6" d="M491.1,92.2c0,1-0.3,1.4-0.9,1.7c-0.7,0.3-1.8,0.3-3.4,0.3c-0.1-0.4-0.4-1.2-0.6-1.6c1.2,0.1,2.5,0,2.9,0
		c0.4,0,0.5-0.1,0.5-0.5v-2.8h-7.3c-0.4,1.8-1.2,3.6-2.7,4.9c-0.2-0.3-0.8-0.9-1.1-1.1c2.5-2.1,2.7-5.3,2.7-7.8v-5h10V92.2z
		 M489.5,87.9v-2.4h-6.9c0,0.7,0,1.5-0.1,2.4H489.5z M482.7,81.7v2.4h6.9v-2.4H482.7z"/>
	<path class="st6" d="M500.3,83c-0.5,1.2-1.2,2.4-2,3.4v7.7h-1.5v-6c-0.5,0.5-1.1,1-1.7,1.4c-0.2-0.4-0.5-1-0.7-1.4
		c1.9-1.2,3.3-3.2,4.3-5.2h-3.8v-1.4h4.4c0.3-0.7,0.5-1.4,0.7-2.1l1.5,0.4c-0.2,0.6-0.4,1.2-0.6,1.7h8V83H500.3z M509.2,90h-4v2.6
		c0,0.8-0.2,1.2-0.8,1.4c-0.6,0.2-1.5,0.2-2.8,0.2c-0.1-0.4-0.3-1-0.4-1.4c0.9,0,1.9,0,2.1,0c0.3,0,0.4-0.1,0.4-0.3V90h-4.2v-1.4
		h4.2v-1.2c0.7-0.4,1.4-0.9,2-1.5h-4.9v-1.3h6.3l0.3-0.1l0.9,0.8c-0.8,0.9-2,1.9-3.1,2.6v0.8h4V90z"/>
	<path class="st6" d="M512.2,91.9c3.5-3.1,5.3-5.4,5.3-7.3c0-1.3-0.7-2.2-2-2.2c-0.9,0-1.7,0.6-2.3,1.3l-1-1c1-1.1,2-1.8,3.6-1.8
		c2.2,0,3.6,1.4,3.6,3.5c0,2.3-1.8,4.6-4.3,7c0.6-0.1,1.3-0.1,1.9-0.1h2.9v1.6h-7.6V91.9z"/>
	<path class="st6" d="M521.4,87c0-4.1,1.5-6.1,3.8-6.1c2.3,0,3.8,2,3.8,6.1c0,4.1-1.5,6.1-3.8,6.1C522.9,93.1,521.4,91.1,521.4,87z
		 M527.2,87c0-3.4-0.8-4.6-2-4.6c-1.2,0-2,1.2-2,4.6c0,3.4,0.8,4.7,2,4.7C526.4,91.7,527.2,90.4,527.2,87z"/>
	<path class="st6" d="M530.6,95.1c1.1-0.4,1.7-1.2,1.7-2.2c-0.1,0-0.1,0-0.2,0c-0.7,0-1.2-0.4-1.2-1.2c0-0.7,0.6-1.2,1.3-1.2
		c0.9,0,1.4,0.8,1.4,2c0,1.7-1,3-2.6,3.6L530.6,95.1z"/>
	<path class="st6" d="M535.3,87c0-4.1,1.5-6.1,3.8-6.1c2.3,0,3.8,2,3.8,6.1c0,4.1-1.5,6.1-3.8,6.1C536.8,93.1,535.3,91.1,535.3,87z
		 M541.1,87c0-3.4-0.8-4.6-2-4.6c-1.2,0-2,1.2-2,4.6c0,3.4,0.8,4.7,2,4.7C540.3,91.7,541.1,90.4,541.1,87z"/>
	<path class="st6" d="M544.4,87c0-4.1,1.5-6.1,3.8-6.1c2.3,0,3.8,2,3.8,6.1c0,4.1-1.5,6.1-3.8,6.1C545.9,93.1,544.4,91.1,544.4,87z
		 M550.2,87c0-3.4-0.8-4.6-2-4.6c-1.2,0-2,1.2-2,4.6c0,3.4,0.8,4.7,2,4.7C549.4,91.7,550.2,90.4,550.2,87z"/>
	<path class="st6" d="M553.5,87c0-4.1,1.5-6.1,3.8-6.1c2.3,0,3.8,2,3.8,6.1c0,4.1-1.5,6.1-3.8,6.1C555,93.1,553.5,91.1,553.5,87z
		 M559.4,87c0-3.4-0.8-4.6-2-4.6c-1.2,0-2,1.2-2,4.6c0,3.4,0.8,4.7,2,4.7C558.5,91.7,559.4,90.4,559.4,87z"/>
	<path class="st6" d="M576.7,92.5c0.6,0,0.7-0.4,0.8-2.8c0.4,0.3,1,0.5,1.4,0.6c-0.2,2.8-0.5,3.6-2,3.6h-2.1c-1.6,0-2-0.5-2-2.1
		v-5.3h-2.7c-0.3,3.4-1,6.1-4.8,7.7c-0.2-0.4-0.6-0.9-0.9-1.2c3.3-1.2,3.9-3.6,4.1-6.5h-3.9v-1.4h14.1v1.4h-4.4v5.3
		c0,0.6,0.1,0.7,0.7,0.7H576.7z M577.1,82.1h-11.3v-1.4h11.3V82.1z"/>
	<path class="st6" d="M467.7,109.8c-0.5,0.2-1,0.3-1.6,0.4v4.2c0,0.8-0.2,1.2-0.6,1.4c-0.5,0.2-1.2,0.3-2.3,0.3c0-0.4-0.3-1-0.4-1.3
		c0.7,0,1.4,0,1.6,0c0.2,0,0.3-0.1,0.3-0.3v-3.8l-1.9,0.5l-0.4-1.4c0.6-0.1,1.4-0.3,2.3-0.6V106h-2v-1.4h2v-3.1h1.4v3.1h1.9v1.4
		h-1.9v2.8l1.4-0.4L467.7,109.8z M476.2,108.8c-0.6,2-1.6,3.4-2.9,4.6c1.1,0.7,2.5,1.2,4,1.4c-0.3,0.3-0.7,1-0.9,1.4
		c-1.6-0.4-3.1-1-4.3-1.9c-1.3,0.9-2.9,1.5-4.5,1.9c-0.1-0.4-0.5-1-0.7-1.4c1.5-0.3,2.8-0.8,4-1.5c-1-1-1.8-2.1-2.4-3.4l0.4-0.1H468
		v-1.4h7l0.3,0L476.2,108.8z M470.8,103.8c0,1.5-0.4,3.2-2.5,4.3c-0.2-0.3-0.7-0.9-1-1.1c1.8-0.9,2.1-2.1,2.1-3.3v-1.7h5.3v3.6
		c0,0.4,0,0.6,0.3,0.6h1.1c0.2,0,0.6,0,0.8-0.1c0,0.4,0.1,0.9,0.1,1.2c-0.2,0.1-0.6,0.1-0.9,0.1h-1.2c-1.3,0-1.6-0.5-1.6-1.9v-2.2
		h-2.5V103.8z M469.8,109.8c0.5,1,1.3,2,2.2,2.7c0.9-0.7,1.6-1.6,2.2-2.7H469.8z"/>
	<path class="st6" d="M488.6,103.9c0,0.1,0,0.2,0,0.4c0.9,0.9,2.6,1.4,4.7,1.6c-0.3,0.3-0.7,0.8-0.8,1.2c-1.8-0.3-3.3-0.8-4.3-1.8
		c-0.6,0.7-1.8,1.4-4.6,1.8c-0.1-0.3-0.5-0.8-0.8-1.1h-4.1v-1.2h4.6v1.1c3.5-0.4,3.8-1.3,3.8-2v-0.2h-1.3c-0.4,0.6-0.8,1.1-1.2,1.5
		c-0.2-0.2-0.8-0.6-1.1-0.8c0.8-0.7,1.5-1.8,1.8-2.9l1.3,0.3c-0.1,0.3-0.2,0.5-0.3,0.8h5l0.2-0.1l1,0.3c-0.4,0.8-0.9,1.8-1.4,2.4
		l-1.2-0.4c0.2-0.3,0.4-0.7,0.7-1.1h-2.2V103.9z M488.4,113.6c1.6,0.5,3.4,1.2,4.5,1.7l-1.3,0.8c-1-0.5-2.7-1.2-4.3-1.8l0.9-0.8
		h-4.8l1.3,0.6c-1.3,0.8-3.3,1.6-4.9,2c-0.3-0.3-0.8-0.8-1.1-1.1c1.6-0.3,3.5-0.9,4.6-1.5h-2.6v-6.4h10.4v6.4H488.4z M483,103.5
		h-3.9v-1.1h3.9V103.5z M482.2,109h7.5v-0.9h-7.5V109z M482.2,110.8h7.5v-0.9h-7.5V110.8z M482.2,112.7h7.5v-0.9h-7.5V112.7z"/>
	<path class="st6" d="M496.9,112.1c-0.2,1.4-0.7,2.9-1.1,3.8c-0.3-0.1-0.9-0.3-1.3-0.4c0.4-1,0.8-2.4,1-3.6L496.9,112.1z
		 M500.1,111.1c0-0.2-0.1-0.5-0.2-0.8c-3.9,0.6-4.5,0.8-4.8,0.9c-0.1-0.3-0.3-1-0.5-1.4c0.4-0.1,0.8-0.4,1.3-1
		c0.3-0.3,0.8-0.9,1.4-1.6c-1.7,0.2-2.1,0.3-2.4,0.4c-0.1-0.3-0.3-1-0.5-1.3c0.3,0,0.6-0.4,1-0.8c0.4-0.5,1.6-2.2,2.4-3.9l1.4,0.6
		c-0.8,1.4-1.7,2.8-2.6,4l1.7-0.1c0.4-0.6,0.9-1.3,1.3-2l1.3,0.8c-1.1,1.6-2.4,3.3-3.7,4.7l2.5-0.3c-0.1-0.5-0.3-0.9-0.5-1.4
		l1.2-0.3c0.4,1.1,0.9,2.5,1.1,3.3L500.1,111.1z M498.7,111.7c0.2,1.1,0.5,2.5,0.5,3.5l-1.2,0.3c0-1-0.3-2.4-0.4-3.6L498.7,111.7z
		 M500.5,111.3c0.4,0.9,0.8,2.2,1,3l-1.2,0.4c-0.2-0.8-0.6-2.1-1-3L500.5,111.3z M508.8,104.4c0,0,0,0.5,0,0.8
		c-0.2,7-0.4,9.4-1,10.2c-0.4,0.5-0.8,0.7-1.4,0.8c-0.6,0.1-1.5,0-2.4,0c0-0.4-0.2-1.1-0.5-1.5c1,0.1,1.9,0.1,2.3,0.1
		c0.3,0,0.5,0,0.6-0.3c0.4-0.5,0.7-2.8,0.8-8.6H503c-0.4,0.8-0.8,1.6-1.2,2.2c-0.3-0.2-0.9-0.6-1.3-0.8c1.1-1.4,2-3.5,2.4-5.7
		l1.5,0.3c-0.2,0.9-0.5,1.8-0.8,2.6H508.8z M505,112c-0.5-1-1.7-2.4-2.8-3.5l1-0.8c1.1,1,2.3,2.4,2.8,3.4L505,112z"/>
	<path class="st6" d="M512.2,113.9c3.5-3.1,5.3-5.4,5.3-7.3c0-1.3-0.7-2.2-2-2.2c-0.9,0-1.7,0.6-2.3,1.3l-1-1c1-1.1,2-1.8,3.6-1.8
		c2.2,0,3.6,1.4,3.6,3.5c0,2.3-1.8,4.6-4.3,7c0.6-0.1,1.3-0.1,1.9-0.1h2.9v1.6h-7.6V113.9z"/>
	<path class="st6" d="M521.4,109c0-4.1,1.5-6.1,3.8-6.1c2.3,0,3.8,2,3.8,6.1c0,4.1-1.5,6.1-3.8,6.1
		C522.9,115.1,521.4,113.1,521.4,109z M527.2,109c0-3.4-0.8-4.6-2-4.6c-1.2,0-2,1.2-2,4.6c0,3.4,0.8,4.7,2,4.7
		C526.4,113.7,527.2,112.4,527.2,109z"/>
	<path class="st6" d="M546.6,112.7h-5.6v3.5h-1.5v-3.5h-7.3v-1.4h2.6V107h4.7v-2.2h-3.7c-0.7,1.2-1.5,2.2-2.3,3
		c-0.3-0.3-0.9-0.7-1.3-1c1.5-1.3,2.8-3.3,3.5-5.4l1.5,0.4c-0.2,0.5-0.4,1-0.6,1.5h9.3v1.4h-4.8v2.2h4.5v1.4h-4.5v2.8h5.6V112.7z
		 M539.4,111.2v-2.8h-3.2v2.8H539.4z"/>
	<path class="st6" d="M553,113.5c-1.1,0.9-2.6,1.8-3.8,2.4c-0.3-0.3-0.8-0.8-1.1-1c1.3-0.5,2.7-1.3,3.6-2L553,113.5z M556.2,112.3
		v2.4c0,0.7-0.1,1.1-0.7,1.3c-0.5,0.2-1.3,0.2-2.3,0.2c-0.1-0.4-0.3-1-0.5-1.3c0.7,0,1.5,0,1.7,0c0.2,0,0.3,0,0.3-0.2v-2.3
		c-4.2,0.2-4.8,0.2-5.3,0.4c0-0.2-0.2-0.9-0.4-1.3c0.5,0,1.2-0.2,2.1-0.6c0.5-0.1,1.4-0.5,2.4-1c-2.6,0.2-3.1,0.3-3.4,0.4
		c-0.1-0.3-0.3-0.9-0.4-1.3c0.3,0,0.7-0.2,1.1-0.4c0.3-0.1,1.1-0.5,1.9-1h-3.1V102h11.7v5.6h-6.4c-0.7,0.5-1.4,0.9-2.1,1.2l3.2-0.2
		c0.6-0.3,1.2-0.7,1.8-1l1.1,0.9c-1.8,1.1-3.7,2-5.6,2.7l5.7-0.2c-0.4-0.3-0.8-0.7-1.1-0.9l1.1-0.7c1.2,0.8,2.4,2,3.1,2.9l-1.1,0.8
		c-0.2-0.3-0.5-0.6-0.8-0.9L556.2,112.3z M551,104.3h3.6v-1.1H551V104.3z M551,106.5h3.6v-1.1H551V106.5z M559.8,103.2H556v1.1h3.7
		V103.2z M559.8,105.4H556v1.1h3.7V105.4z M558.3,112.9c1.3,0.6,3,1.5,3.9,2.2L561,116c-0.8-0.7-2.5-1.6-3.8-2.3L558.3,112.9z"/>
	<path class="st6" d="M569.1,111.3c-0.2-0.4-0.7-1.1-1.2-1.7v6.6h-1.4v-6.4c-0.6,1.4-1.3,2.7-2,3.6c-0.2-0.4-0.5-1-0.7-1.4
		c1-1.1,2-3.1,2.6-4.8h-2.2v-1.4h2.3v-2.1c-0.7,0.1-1.4,0.2-2,0.3c-0.1-0.3-0.3-0.8-0.4-1.2c1.7-0.2,3.7-0.7,4.8-1.2l1,1.1
		c-0.6,0.2-1.2,0.4-2,0.6v2.4h1.6v-0.3h3.8v-0.7h-2.9V104h2.9v-0.7H570v-1h3.3v-0.8h1.5v0.8h3.5v1h-3.5v0.7h3.1v0.9h-3.1v0.7h3.8v1
		h-9v0.7h-1.7v0.8c0.5,0.5,1.7,1.7,2,2.1L569.1,111.3z M577.8,113.6h-5.3l1.1,0.7c-1,0.8-2.5,1.5-3.8,1.9c-0.2-0.3-0.6-0.7-0.9-1
		c1.2-0.4,2.7-1,3.5-1.7h-1.7v-6.4h7.2V113.6z M576.4,108.2h-4.5v0.9h4.5V108.2z M576.4,110h-4.5v0.9h4.5V110z M576.4,111.8h-4.5
		v0.9h4.5V111.8z M575.8,113.6c1.1,0.6,2.3,1.4,3,1.9l-1.3,0.7c-0.6-0.5-1.7-1.2-2.7-1.9L575.8,113.6z"/>
	<path class="st6" d="M594.5,109.2h-6.4v7h-1.6v-7h-6.3v-1.4h6.3v-3.5c-1.7,0.2-3.4,0.4-5,0.5c0-0.4-0.2-1-0.4-1.3
		c3.8-0.3,8.2-0.9,10.8-1.7l1.2,1.2c-1.4,0.4-3.1,0.8-4.9,1v3.8h6.4V109.2z"/>
	<path class="st6" d="M599.8,103.7h-3.5v-1.2h3.5v-0.9h1.4v0.9h1.8v1.2h-1.8v0.8h-1.4V103.7z M609.7,114.8c0,0.6-0.1,1-0.5,1.2
		c-0.4,0.2-1.1,0.2-2,0.2c-0.1-0.4-0.2-0.8-0.4-1.2l-0.3,0.1c0-0.3-0.1-0.5-0.3-0.9c-2.4,0.2-4.9,0.3-6.7,0.4l-0.1-1.3
		c0.9,0,2-0.1,3.2-0.1v-1.5h-4.1v4.5h-1.4v-4.5h-0.6v-1.2h0.6V110h1.4v0.5h4.1v-0.8h-4.5v-4.9h10.5v4.9H604v0.8h5.7V114.8z
		 M599.5,106.7h3.1v-1h-3.1V106.7z M602.6,108.6v-1h-3.1v1H602.6z M610.3,102.4v1.2h-3.5v0.8h-1.4v-0.8h-1.8v-1.2h1.8v-0.9h1.4v0.9
		H610.3z M607.2,105.8H604v1h3.1V105.8z M607.2,107.7H604v1h3.1V107.7z M606.9,115c0.6,0,1,0,1.2,0c0.2,0,0.2,0,0.2-0.2v-3H604v1.4
		l1.6-0.1c-0.2-0.3-0.4-0.6-0.6-0.9l1.1-0.3c0.6,0.9,1.3,2.1,1.4,2.9L606.9,115z"/>
	<path class="st6" d="M616.6,109c-0.4,1.5-0.9,3.1-1.6,4.3c0.3,0.2,0.6,0.4,1,0.6c1.1,0.7,2.6,0.8,4.4,0.8c2,0,4.6-0.1,6.4-0.4
		c-0.2,0.4-0.4,1.1-0.4,1.5c-1.2,0.1-4.1,0.2-6,0.2c-2.1,0-3.5-0.2-4.6-0.8c-0.6-0.4-1.2-0.9-1.6-0.9c-0.4,0-0.9,1-1.3,2l-1-1.4
		c0.7-0.9,1.3-1.6,1.9-1.8c0.4-0.8,0.8-1.9,1.1-3h-2.2c0.4-0.9,0.9-2.2,1.3-3.4h-1.9v-1.3h3.7c-0.4,1.1-0.8,2.4-1.3,3.5h1.1l0.2-0.1
		L616.6,109z M613.9,104.7c-0.2-0.7-0.6-1.8-0.8-2.6l1.4-0.4c0.3,0.8,0.7,1.8,0.9,2.5L613.9,104.7z M621.8,111.4c0,0.4,0,1,0.1,1.3
		c-3.4,0.8-4,1-4.4,1.2c-0.1-0.3-0.4-0.9-0.6-1.2c0.3-0.1,0.6-0.4,0.6-1.1v-9.5h0.9v0h6.6v6l0.1-0.1l1.1,0.9
		c-0.8,0.5-1.6,1.1-2.4,1.6c0.9,0.8,1.7,1.5,2.2,2.1l-1.1,0.9c-0.9-1.2-3-3-4.6-4.3l1-0.8c0.5,0.4,1.1,0.8,1.6,1.2
		c0.7-0.5,1.5-1.1,2.1-1.6h-6v3.8L621.8,111.4z M623.6,103.4H619v1.2h4.6V103.4z M623.6,107v-1.2H619v1.2H623.6z"/>
	<path class="st6" d="M633.4,102.1c-0.5,1.2-1,2.3-1.7,3.4v10.7h-1.5v-8.6c-0.5,0.7-1.1,1.3-1.6,1.8c-0.2-0.4-0.6-1.2-0.9-1.5
		c1.7-1.5,3.3-3.8,4.2-6.3L633.4,102.1z M638.9,106.9c1,2.4,2.5,4.8,4.1,6.1c-0.4,0.3-0.9,0.8-1.1,1.2c-1.4-1.3-2.7-3.5-3.7-5.8v7.8
		h-1.5v-7.4c-1,2.2-2.4,4.2-3.8,5.5c-0.2-0.4-0.8-0.9-1.1-1.2c1.7-1.3,3.3-3.8,4.3-6.2h-3.6v-1.5h4.3v-3.7h1.5v3.7h4.4v1.5H638.9z"
		/>
	<path class="st6" d="M652.1,107.6v1.9h5.4v1.3h-5.4v3.6h6.1v1.4h-13.7v-1.4h6v-3.6h-5.3v-1.3h5.3v-1.9h-3.3v-0.8
		c-0.8,0.4-1.5,0.7-2.3,1c-0.2-0.4-0.6-1-1-1.4c3-0.9,5.9-2.7,7.4-5l1.4,0.6c-0.1,0.2-0.3,0.4-0.4,0.6c1.6,1.6,4.3,3.1,6.7,3.8
		c-0.3,0.3-0.8,0.9-1,1.3c-0.8-0.3-1.6-0.7-2.4-1.1v1H652.1z M647.7,111c0.6,0.8,1.2,2,1.5,2.8l-1.3,0.6c-0.2-0.8-0.8-2-1.4-2.8
		L647.7,111z M654.8,106.2c-1.2-0.8-2.4-1.6-3.4-2.6c-0.9,1-2,1.9-3.2,2.6H654.8z M653.3,113.9c0.5-0.8,1.2-2,1.6-2.9l1.4,0.5
		c-0.6,1-1.3,2.1-1.9,2.8L653.3,113.9z"/>
</g>
<path class="st1" d="M945.7,98.2h-220c-5.5,0-10-4.5-10-10v-40c0-5.5,4.5-10,10-10h220c5.5,0,10,4.5,10,10v40
	C955.7,93.7,951.2,98.2,945.7,98.2z"/>
<g>
	<path class="st6" d="M741.3,52.4c-0.8,1.2-1.6,2.3-2.5,3.2c-0.3-0.3-0.9-0.7-1.3-0.9c1.5-1.2,2.8-3.3,3.7-5.3l1.5,0.4
		c-0.2,0.4-0.4,0.8-0.6,1.2h9.6v1.3H741.3z M749.9,58.6c0,0.9-0.1,1.6-0.2,2.2h1.9v1.3h-2c-0.1,0.7-0.3,1.2-0.4,1.4
		c-0.3,0.4-0.7,0.6-1.2,0.7c-0.5,0-1.3,0-2.1,0c0-0.4-0.2-0.8-0.4-1.2c0.8,0.1,1.4,0.1,1.8,0.1c0.3,0,0.4,0,0.6-0.2
		c0.1-0.1,0.2-0.4,0.3-0.7h-8.9c0.2-1,0.4-2.2,0.6-3.5h-2.2v-1.3h2.4c0.2-1.2,0.3-2.4,0.4-3.4h9.6c0,0,0,0.5,0,0.7
		c0,1-0.1,2-0.1,2.8h2.3v1.3H749.9z M741.3,58.6c-0.1,0.8-0.2,1.6-0.3,2.2h4.3c-0.6-0.5-1.6-1.2-2.5-1.6l0.7-0.6H741.3z M741.8,55.1
		c-0.1,0.7-0.2,1.5-0.3,2.2h4.1c-0.6-0.5-1.6-1.1-2.4-1.5l0.7-0.7H741.8z M748.3,60.8c0.1-0.6,0.1-1.3,0.2-2.2H744
		c0.9,0.5,2,1.1,2.5,1.7l-0.6,0.6H748.3z M748.5,57.3c0-0.7,0-1.4,0.1-2.2h-4.3c0.9,0.4,1.9,1,2.5,1.6l-0.6,0.6H748.5z"/>
	<path class="st6" d="M766.1,62.2c0,1-0.3,1.4-0.9,1.7c-0.7,0.3-1.8,0.3-3.4,0.3c-0.1-0.4-0.4-1.2-0.6-1.6c1.2,0.1,2.5,0,2.9,0
		c0.4,0,0.5-0.1,0.5-0.5v-2.8h-7.3c-0.4,1.8-1.2,3.6-2.7,4.9c-0.2-0.3-0.8-0.9-1.1-1.1c2.5-2.1,2.7-5.3,2.7-7.8v-5h10V62.2z
		 M764.5,57.9v-2.4h-6.9c0,0.7,0,1.5-0.1,2.4H764.5z M757.7,51.7v2.4h6.9v-2.4H757.7z"/>
	<path class="st6" d="M775.3,53c-0.5,1.2-1.2,2.4-2,3.4v7.7h-1.5v-6c-0.5,0.5-1.1,1-1.7,1.4c-0.2-0.4-0.5-1-0.7-1.4
		c1.9-1.2,3.3-3.2,4.3-5.2h-3.8v-1.4h4.4c0.3-0.7,0.5-1.4,0.7-2.1l1.5,0.4c-0.2,0.6-0.4,1.2-0.6,1.7h8V53H775.3z M784.2,60h-4v2.6
		c0,0.8-0.2,1.2-0.8,1.4c-0.6,0.2-1.5,0.2-2.8,0.2c-0.1-0.4-0.3-1-0.4-1.4c0.9,0,1.9,0,2.1,0c0.3,0,0.4-0.1,0.4-0.3V60h-4.2v-1.4
		h4.2v-1.2c0.7-0.4,1.4-0.9,2-1.5h-4.9v-1.3h6.3l0.3-0.1l0.9,0.8c-0.8,0.9-2,1.9-3.1,2.6v0.8h4V60z"/>
	<path class="st6" d="M787.9,61.4h2.6v-8.2h-2.1v-1.2c1.1-0.2,1.9-0.5,2.6-0.9h1.4v10.3h2.3v1.5h-6.7V61.4z"/>
	<path class="st6" d="M796.4,57c0-4.1,1.5-6.1,3.8-6.1c2.3,0,3.8,2,3.8,6.1c0,4.1-1.5,6.1-3.8,6.1C797.9,63.1,796.4,61.1,796.4,57z
		 M802.2,57c0-3.4-0.8-4.6-2-4.6c-1.2,0-2,1.2-2,4.6c0,3.4,0.8,4.7,2,4.7C801.4,61.7,802.2,60.4,802.2,57z"/>
	<path class="st6" d="M805.6,65.1c1.1-0.4,1.7-1.2,1.7-2.2c-0.1,0-0.1,0-0.2,0c-0.7,0-1.2-0.4-1.2-1.2c0-0.7,0.6-1.2,1.3-1.2
		c0.9,0,1.4,0.8,1.4,2c0,1.7-1,3-2.6,3.6L805.6,65.1z"/>
	<path class="st6" d="M810.3,57c0-4.1,1.5-6.1,3.8-6.1c2.3,0,3.8,2,3.8,6.1c0,4.1-1.5,6.1-3.8,6.1C811.8,63.1,810.3,61.1,810.3,57z
		 M816.1,57c0-3.4-0.8-4.6-2-4.6c-1.2,0-2,1.2-2,4.6c0,3.4,0.8,4.7,2,4.7C815.3,61.7,816.1,60.4,816.1,57z"/>
	<path class="st6" d="M819.4,57c0-4.1,1.5-6.1,3.8-6.1c2.3,0,3.8,2,3.8,6.1c0,4.1-1.5,6.1-3.8,6.1C820.9,63.1,819.4,61.1,819.4,57z
		 M825.2,57c0-3.4-0.8-4.6-2-4.6c-1.2,0-2,1.2-2,4.6c0,3.4,0.8,4.7,2,4.7C824.4,61.7,825.2,60.4,825.2,57z"/>
	<path class="st6" d="M828.5,57c0-4.1,1.5-6.1,3.8-6.1c2.3,0,3.8,2,3.8,6.1c0,4.1-1.5,6.1-3.8,6.1C830,63.1,828.5,61.1,828.5,57z
		 M834.4,57c0-3.4-0.8-4.6-2-4.6c-1.2,0-2,1.2-2,4.6c0,3.4,0.8,4.7,2,4.7C833.5,61.7,834.4,60.4,834.4,57z"/>
	<path class="st6" d="M851.7,62.5c0.6,0,0.7-0.4,0.8-2.8c0.4,0.3,1,0.5,1.4,0.6c-0.2,2.8-0.5,3.6-2,3.6h-2.1c-1.6,0-2-0.5-2-2.1
		v-5.3h-2.7c-0.3,3.4-1,6.1-4.8,7.7c-0.2-0.4-0.6-0.9-0.9-1.2c3.3-1.2,3.9-3.6,4.1-6.5h-3.9v-1.4h14.1v1.4h-4.4v5.3
		c0,0.6,0.1,0.7,0.7,0.7H851.7z M852.1,52.1h-11.3v-1.4h11.3V52.1z"/>
	<path class="st6" d="M742.7,79.8c-0.5,0.2-1,0.3-1.6,0.4v4.2c0,0.8-0.2,1.2-0.6,1.4c-0.5,0.2-1.2,0.3-2.3,0.3c0-0.4-0.3-1-0.4-1.3
		c0.7,0,1.4,0,1.6,0c0.2,0,0.3-0.1,0.3-0.3v-3.8l-1.9,0.5l-0.4-1.4c0.6-0.1,1.4-0.3,2.3-0.6V76h-2v-1.4h2v-3.1h1.4v3.1h1.9V76h-1.9
		v2.8l1.4-0.4L742.7,79.8z M751.2,78.8c-0.6,2-1.6,3.4-2.9,4.6c1.1,0.7,2.5,1.2,4,1.4c-0.3,0.3-0.7,1-0.9,1.4
		c-1.6-0.4-3.1-1-4.3-1.9c-1.3,0.9-2.9,1.5-4.5,1.9c-0.1-0.4-0.5-1-0.7-1.4c1.5-0.3,2.8-0.8,4-1.5c-1-1-1.8-2.1-2.4-3.4l0.4-0.1H743
		v-1.4h7l0.3,0L751.2,78.8z M745.8,73.8c0,1.5-0.4,3.2-2.5,4.3c-0.2-0.3-0.7-0.9-1-1.1c1.8-0.9,2.1-2.1,2.1-3.3v-1.7h5.3v3.6
		c0,0.4,0,0.6,0.3,0.6h1.1c0.2,0,0.6,0,0.8-0.1c0,0.4,0.1,0.9,0.1,1.2c-0.2,0.1-0.6,0.1-0.9,0.1h-1.2c-1.3,0-1.6-0.5-1.6-1.9v-2.2
		h-2.5V73.8z M744.8,79.8c0.5,1,1.3,2,2.2,2.7c0.9-0.7,1.6-1.6,2.2-2.7H744.8z"/>
	<path class="st6" d="M763.6,73.9c0,0.1,0,0.2,0,0.4c0.9,0.9,2.6,1.4,4.7,1.6c-0.3,0.3-0.7,0.8-0.8,1.2c-1.8-0.3-3.3-0.8-4.3-1.8
		c-0.6,0.7-1.8,1.4-4.6,1.8c-0.1-0.3-0.5-0.8-0.8-1.1h-4.1v-1.2h4.6v1.1c3.5-0.4,3.8-1.3,3.8-2v-0.2h-1.3c-0.4,0.6-0.8,1.1-1.2,1.5
		c-0.2-0.2-0.8-0.6-1.1-0.8c0.8-0.7,1.5-1.8,1.8-2.9l1.3,0.3c-0.1,0.3-0.2,0.5-0.3,0.8h5l0.2-0.1l1,0.3c-0.4,0.8-0.9,1.8-1.4,2.4
		l-1.2-0.4c0.2-0.3,0.4-0.7,0.7-1.1h-2.2V73.9z M763.4,83.6c1.6,0.5,3.4,1.2,4.5,1.7l-1.3,0.8c-1-0.5-2.7-1.2-4.3-1.8l0.9-0.8h-4.8
		l1.3,0.6c-1.3,0.8-3.3,1.6-4.9,2c-0.3-0.3-0.8-0.8-1.1-1.1c1.6-0.3,3.5-0.9,4.6-1.5h-2.6v-6.4h10.4v6.4H763.4z M758,73.5h-3.9v-1.1
		h3.9V73.5z M757.2,79h7.5v-0.9h-7.5V79z M757.2,80.8h7.5v-0.9h-7.5V80.8z M757.2,82.7h7.5v-0.9h-7.5V82.7z"/>
	<path class="st6" d="M771.9,82.1c-0.2,1.4-0.7,2.9-1.1,3.8c-0.3-0.1-0.9-0.3-1.3-0.4c0.4-1,0.8-2.4,1-3.6L771.9,82.1z M775.1,81.1
		c0-0.2-0.1-0.5-0.2-0.8c-3.9,0.6-4.5,0.8-4.8,0.9c-0.1-0.3-0.3-1-0.5-1.4c0.4-0.1,0.8-0.4,1.3-1c0.3-0.3,0.8-0.9,1.4-1.6
		c-1.7,0.2-2.1,0.3-2.4,0.4c-0.1-0.3-0.3-1-0.5-1.3c0.3,0,0.6-0.4,1-0.8c0.4-0.5,1.6-2.2,2.4-3.9l1.4,0.6c-0.8,1.4-1.7,2.8-2.6,4
		l1.7-0.1c0.4-0.6,0.9-1.3,1.3-2l1.3,0.8c-1.1,1.6-2.4,3.3-3.7,4.7l2.5-0.3c-0.1-0.5-0.3-0.9-0.5-1.4l1.2-0.3
		c0.4,1.1,0.9,2.5,1.1,3.3L775.1,81.1z M773.7,81.7c0.2,1.1,0.5,2.5,0.5,3.5l-1.2,0.3c0-1-0.3-2.4-0.4-3.6L773.7,81.7z M775.5,81.3
		c0.4,0.9,0.8,2.2,1,3l-1.2,0.4c-0.2-0.8-0.6-2.1-1-3L775.5,81.3z M783.8,74.4c0,0,0,0.5,0,0.8c-0.2,7-0.4,9.4-1,10.2
		c-0.4,0.5-0.8,0.7-1.4,0.8c-0.6,0.1-1.5,0-2.4,0c0-0.4-0.2-1.1-0.5-1.5c1,0.1,1.9,0.1,2.3,0.1c0.3,0,0.5,0,0.6-0.3
		c0.4-0.5,0.7-2.8,0.8-8.6H778c-0.4,0.8-0.8,1.6-1.2,2.2c-0.3-0.2-0.9-0.6-1.3-0.8c1.1-1.4,2-3.5,2.4-5.7l1.5,0.3
		c-0.2,0.9-0.5,1.8-0.8,2.6H783.8z M780,82c-0.5-1-1.7-2.4-2.8-3.5l1-0.8c1.1,1,2.3,2.4,2.8,3.4L780,82z"/>
	<path class="st6" d="M786.9,83.5l0.9-1.2c0.7,0.7,1.6,1.3,2.8,1.3c1.3,0,2.2-0.7,2.2-2c0-1.3-0.8-2.2-3.5-2.2v-1.4
		c2.3,0,3.1-0.9,3.1-2.1c0-1-0.7-1.7-1.8-1.7c-0.9,0-1.7,0.5-2.4,1.1l-1-1.2c0.9-0.8,2-1.4,3.4-1.4c2.1,0,3.6,1.1,3.6,3
		c0,1.4-0.8,2.3-2,2.8v0.1c1.4,0.3,2.4,1.4,2.4,2.9c0,2.1-1.8,3.4-3.9,3.4C788.9,85.1,787.7,84.4,786.9,83.5z"/>
	<path class="st6" d="M796.4,79c0-4.1,1.5-6.1,3.8-6.1c2.3,0,3.8,2,3.8,6.1c0,4.1-1.5,6.1-3.8,6.1C797.9,85.1,796.4,83.1,796.4,79z
		 M802.2,79c0-3.4-0.8-4.6-2-4.6c-1.2,0-2,1.2-2,4.6c0,3.4,0.8,4.7,2,4.7C801.4,83.7,802.2,82.4,802.2,79z"/>
	<path class="st6" d="M821.6,82.7h-5.6v3.5h-1.5v-3.5h-7.3v-1.4h2.6V77h4.7v-2.2h-3.7c-0.7,1.2-1.5,2.2-2.3,3
		c-0.3-0.3-0.9-0.7-1.3-1c1.5-1.3,2.8-3.3,3.5-5.4l1.5,0.4c-0.2,0.5-0.4,1-0.6,1.5h9.3v1.4h-4.8V77h4.5v1.4h-4.5v2.8h5.6V82.7z
		 M814.4,81.2v-2.8h-3.2v2.8H814.4z"/>
	<path class="st6" d="M828,83.5c-1.1,0.9-2.6,1.8-3.8,2.4c-0.3-0.3-0.8-0.8-1.1-1c1.3-0.5,2.7-1.3,3.6-2L828,83.5z M831.2,82.3v2.4
		c0,0.7-0.1,1.1-0.7,1.3c-0.5,0.2-1.3,0.2-2.3,0.2c-0.1-0.4-0.3-1-0.5-1.3c0.7,0,1.5,0,1.7,0c0.2,0,0.3,0,0.3-0.2v-2.3
		c-4.2,0.2-4.8,0.2-5.3,0.4c0-0.2-0.2-0.9-0.4-1.3c0.5,0,1.2-0.2,2.1-0.6c0.5-0.1,1.4-0.5,2.4-1c-2.6,0.2-3.1,0.3-3.4,0.4
		c-0.1-0.3-0.3-0.9-0.4-1.3c0.3,0,0.7-0.2,1.1-0.4c0.3-0.1,1.1-0.5,1.9-1h-3.1V72h11.7v5.6h-6.4c-0.7,0.5-1.4,0.9-2.1,1.2l3.2-0.2
		c0.6-0.3,1.2-0.7,1.8-1l1.1,0.9c-1.8,1.1-3.7,2-5.6,2.7L834,81c-0.4-0.3-0.8-0.7-1.1-0.9l1.1-0.7c1.2,0.8,2.4,2,3.1,2.9l-1.1,0.8
		c-0.2-0.3-0.5-0.6-0.8-0.9L831.2,82.3z M826,74.3h3.6v-1.1H826V74.3z M826,76.5h3.6v-1.1H826V76.5z M834.8,73.2H831v1.1h3.7V73.2z
		 M834.8,75.4H831v1.1h3.7V75.4z M833.3,82.9c1.3,0.6,3,1.5,3.9,2.2L836,86c-0.8-0.7-2.5-1.6-3.8-2.3L833.3,82.9z"/>
	<path class="st6" d="M844.1,81.3c-0.2-0.4-0.7-1.1-1.2-1.7v6.6h-1.4v-6.4c-0.6,1.4-1.3,2.7-2,3.6c-0.2-0.4-0.5-1-0.7-1.4
		c1-1.1,2-3.1,2.6-4.8h-2.2v-1.4h2.3v-2.1c-0.7,0.1-1.4,0.2-2,0.3c-0.1-0.3-0.3-0.8-0.4-1.2c1.7-0.2,3.7-0.7,4.8-1.2l1,1.1
		c-0.6,0.2-1.2,0.4-2,0.6v2.4h1.6v-0.3h3.8v-0.7h-2.9V74h2.9v-0.7H845v-1h3.3v-0.8h1.5v0.8h3.5v1h-3.5V74h3.1v0.9h-3.1v0.7h3.8v1h-9
		v0.7h-1.7v0.8c0.5,0.5,1.7,1.7,2,2.1L844.1,81.3z M852.8,83.6h-5.3l1.1,0.7c-1,0.8-2.5,1.5-3.8,1.9c-0.2-0.3-0.6-0.7-0.9-1
		c1.2-0.4,2.7-1,3.5-1.7h-1.7v-6.4h7.2V83.6z M851.4,78.2h-4.5v0.9h4.5V78.2z M851.4,80h-4.5v0.9h4.5V80z M851.4,81.8h-4.5v0.9h4.5
		V81.8z M850.8,83.6c1.1,0.6,2.3,1.4,3,1.9l-1.3,0.7c-0.6-0.5-1.7-1.2-2.7-1.9L850.8,83.6z"/>
	<path class="st6" d="M869.5,79.2h-6.4v7h-1.6v-7h-6.3v-1.4h6.3v-3.5c-1.7,0.2-3.4,0.4-5,0.5c0-0.4-0.2-1-0.4-1.3
		c3.8-0.3,8.2-0.9,10.8-1.7l1.2,1.2c-1.4,0.4-3.1,0.8-4.9,1v3.8h6.4V79.2z"/>
	<path class="st6" d="M874.8,73.7h-3.5v-1.2h3.5v-0.9h1.4v0.9h1.8v1.2h-1.8v0.8h-1.4V73.7z M884.7,84.8c0,0.6-0.1,1-0.5,1.2
		c-0.4,0.2-1.1,0.2-2,0.2c-0.1-0.4-0.2-0.8-0.4-1.2l-0.3,0.1c0-0.3-0.1-0.5-0.3-0.9c-2.4,0.2-4.9,0.3-6.7,0.4l-0.1-1.3
		c0.9,0,2-0.1,3.2-0.1v-1.5h-4.1v4.5h-1.4v-4.5h-0.6v-1.2h0.6V80h1.4v0.5h4.1v-0.8h-4.5v-4.9h10.5v4.9H879v0.8h5.7V84.8z
		 M874.5,76.7h3.1v-1h-3.1V76.7z M877.6,78.6v-1h-3.1v1H877.6z M885.3,72.4v1.2h-3.5v0.8h-1.4v-0.8h-1.8v-1.2h1.8v-0.9h1.4v0.9
		H885.3z M882.2,75.8H879v1h3.1V75.8z M882.2,77.7H879v1h3.1V77.7z M881.9,85c0.6,0,1,0,1.2,0c0.2,0,0.2,0,0.2-0.2v-3H879v1.4
		l1.6-0.1c-0.2-0.3-0.4-0.6-0.6-0.9l1.1-0.3c0.6,0.9,1.3,2.1,1.4,2.9L881.9,85z"/>
	<path class="st6" d="M891.6,79c-0.4,1.5-0.9,3.1-1.6,4.3c0.3,0.2,0.6,0.4,1,0.6c1.1,0.7,2.6,0.8,4.4,0.8c2,0,4.6-0.1,6.4-0.4
		c-0.2,0.4-0.4,1.1-0.4,1.5c-1.2,0.1-4.1,0.2-6,0.2c-2.1,0-3.5-0.2-4.6-0.8c-0.6-0.4-1.2-0.9-1.6-0.9c-0.4,0-0.9,1-1.3,2l-1-1.4
		c0.7-0.9,1.3-1.6,1.9-1.8c0.4-0.8,0.8-1.9,1.1-3h-2.2c0.4-0.9,0.9-2.2,1.3-3.4h-1.9v-1.3h3.7c-0.4,1.1-0.8,2.4-1.3,3.5h1.1l0.2-0.1
		L891.6,79z M888.9,74.7c-0.2-0.7-0.6-1.8-0.8-2.6l1.4-0.4c0.3,0.8,0.7,1.8,0.9,2.5L888.9,74.7z M896.8,81.4c0,0.4,0,1,0.1,1.3
		c-3.4,0.8-4,1-4.4,1.2c-0.1-0.3-0.4-0.9-0.6-1.2c0.3-0.1,0.6-0.4,0.6-1.1v-9.5h0.9v0h6.6v6l0.1-0.1l1.1,0.9
		c-0.8,0.5-1.6,1.1-2.4,1.6c0.9,0.8,1.7,1.5,2.2,2.1l-1.1,0.9c-0.9-1.2-3-3-4.6-4.3l1-0.8c0.5,0.4,1.1,0.8,1.6,1.2
		c0.7-0.5,1.5-1.1,2.1-1.6h-6V82L896.8,81.4z M898.6,73.4H894v1.2h4.6V73.4z M898.6,77v-1.2H894V77H898.6z"/>
	<path class="st6" d="M908.4,72.1c-0.5,1.2-1,2.3-1.7,3.4v10.7h-1.5v-8.6c-0.5,0.7-1.1,1.3-1.6,1.8c-0.2-0.4-0.6-1.2-0.9-1.5
		c1.7-1.5,3.3-3.8,4.2-6.3L908.4,72.1z M913.9,76.9c1,2.4,2.5,4.8,4.1,6.1c-0.4,0.3-0.9,0.8-1.1,1.2c-1.4-1.3-2.7-3.5-3.7-5.8v7.8
		h-1.5v-7.4c-1,2.2-2.4,4.2-3.8,5.5c-0.2-0.4-0.8-0.9-1.1-1.2c1.7-1.3,3.3-3.8,4.3-6.2h-3.6v-1.5h4.3v-3.7h1.5v3.7h4.4v1.5H913.9z"
		/>
	<path class="st6" d="M927.1,77.6v1.9h5.4v1.3h-5.4v3.6h6.1v1.4h-13.7v-1.4h6v-3.6h-5.3v-1.3h5.3v-1.9h-3.3v-0.8
		c-0.8,0.4-1.5,0.7-2.3,1c-0.2-0.4-0.6-1-1-1.4c3-0.9,5.9-2.7,7.4-5l1.4,0.6c-0.1,0.2-0.3,0.4-0.4,0.6c1.6,1.6,4.3,3.1,6.7,3.8
		c-0.3,0.3-0.8,0.9-1,1.3c-0.8-0.3-1.6-0.7-2.4-1.1v1H927.1z M922.7,81c0.6,0.8,1.2,2,1.5,2.8l-1.3,0.6c-0.2-0.8-0.8-2-1.4-2.8
		L922.7,81z M929.8,76.2c-1.2-0.8-2.4-1.6-3.4-2.6c-0.9,1-2,1.9-3.2,2.6H929.8z M928.3,83.9c0.5-0.8,1.2-2,1.6-2.9l1.4,0.5
		c-0.6,1-1.3,2.1-1.9,2.8L928.3,83.9z"/>
</g>
<path class="st3" d="M542.4,235.9c-0.1,0-0.2,0-0.3-0.1l-0.9-0.5c-0.2-0.1-0.3-0.4-0.2-0.7c0.1-0.2,0.4-0.3,0.7-0.2l0.9,0.5
	c0.2,0.1,0.3,0.4,0.2,0.7C542.7,235.8,542.5,235.9,542.4,235.9z M538,233.4c-0.1,0-0.2,0-0.3-0.1l-0.9-0.5c-0.2-0.1-0.3-0.4-0.2-0.7
	c0.1-0.2,0.4-0.3,0.7-0.2l0.9,0.5c0.2,0.1,0.3,0.4,0.2,0.7C538.4,233.3,538.2,233.4,538,233.4z M533.7,230.9c-0.1,0-0.2,0-0.3-0.1
	l-0.9-0.5c-0.2-0.1-0.3-0.4-0.2-0.7c0.1-0.2,0.4-0.3,0.7-0.2l0.9,0.5c0.2,0.1,0.3,0.4,0.2,0.7C534.1,230.8,533.9,230.9,533.7,230.9z
	 M529.4,228.4c-0.1,0-0.2,0-0.3-0.1l-0.9-0.5c-0.2-0.1-0.3-0.4-0.2-0.7c0.1-0.2,0.4-0.3,0.7-0.2l0.9,0.5c0.2,0.1,0.3,0.4,0.2,0.7
	C529.7,228.3,529.6,228.4,529.4,228.4z M525.1,225.9c-0.1,0-0.2,0-0.3-0.1l-0.9-0.5c-0.2-0.1-0.3-0.4-0.2-0.7
	c0.1-0.2,0.4-0.3,0.7-0.2l0.9,0.5c0.2,0.1,0.3,0.4,0.2,0.7C525.4,225.8,525.2,225.9,525.1,225.9z M520.8,223.3c-0.1,0-0.2,0-0.3-0.1
	l-0.9-0.5c-0.2-0.1-0.3-0.4-0.2-0.7c0.1-0.2,0.4-0.3,0.7-0.2l0.9,0.5c0.2,0.1,0.3,0.4,0.2,0.7C521.1,223.3,520.9,223.3,520.8,223.3z
	 M516.4,220.8c-0.1,0-0.2,0-0.3-0.1l-0.9-0.5c-0.2-0.1-0.3-0.4-0.2-0.7c0.1-0.2,0.4-0.3,0.7-0.2l0.9,0.5c0.2,0.1,0.3,0.4,0.2,0.7
	C516.8,220.7,516.6,220.8,516.4,220.8z M512.1,218.3c-0.1,0-0.2,0-0.3-0.1l-0.9-0.5c-0.2-0.1-0.3-0.4-0.2-0.7
	c0.1-0.2,0.4-0.3,0.7-0.2l0.9,0.5c0.2,0.1,0.3,0.4,0.2,0.7C512.4,218.2,512.3,218.3,512.1,218.3z M507.8,215.8c-0.1,0-0.2,0-0.3-0.1
	l-0.9-0.5c-0.2-0.1-0.3-0.4-0.2-0.7c0.1-0.2,0.4-0.3,0.7-0.2l0.9,0.5c0.2,0.1,0.3,0.4,0.2,0.7C508.1,215.7,508,215.8,507.8,215.8z
	 M503.5,213.3c-0.1,0-0.2,0-0.3-0.1l-0.9-0.5c-0.2-0.1-0.3-0.4-0.2-0.7c0.1-0.2,0.4-0.3,0.7-0.2l0.9,0.5c0.2,0.1,0.3,0.4,0.2,0.7
	C503.8,213.2,503.6,213.3,503.5,213.3z M499.1,210.8c-0.1,0-0.2,0-0.3-0.1l-0.9-0.5c-0.2-0.1-0.3-0.4-0.2-0.7
	c0.1-0.2,0.4-0.3,0.7-0.2l0.9,0.5c0.2,0.1,0.3,0.4,0.2,0.7C499.5,210.7,499.3,210.8,499.1,210.8z M494.8,208.3c-0.1,0-0.2,0-0.3-0.1
	l-0.9-0.5c-0.2-0.1-0.3-0.4-0.2-0.7c0.1-0.2,0.4-0.3,0.7-0.2l0.9,0.5c0.2,0.1,0.3,0.4,0.2,0.7C495.2,208.2,495,208.3,494.8,208.3z
	 M490.5,205.8c-0.1,0-0.2,0-0.3-0.1l-0.9-0.5c-0.2-0.1-0.3-0.4-0.2-0.7c0.1-0.2,0.4-0.3,0.7-0.2l0.9,0.5c0.2,0.1,0.3,0.4,0.2,0.7
	C490.8,205.7,490.7,205.8,490.5,205.8z M486.2,203.2c-0.1,0-0.2,0-0.3-0.1l-0.9-0.5c-0.2-0.1-0.3-0.4-0.2-0.7
	c0.1-0.2,0.4-0.3,0.7-0.2l0.9,0.5c0.2,0.1,0.3,0.4,0.2,0.7C486.5,203.2,486.3,203.2,486.2,203.2z M481.8,200.7c-0.1,0-0.2,0-0.3-0.1
	l-0.9-0.5c-0.2-0.1-0.3-0.4-0.2-0.7c0.1-0.2,0.4-0.3,0.7-0.2l0.9,0.5c0.2,0.1,0.3,0.4,0.2,0.7C482.2,200.6,482,200.7,481.8,200.7z
	 M477.5,198.2c-0.1,0-0.2,0-0.3-0.1l-0.9-0.5c-0.2-0.1-0.3-0.4-0.2-0.7c0.1-0.2,0.4-0.3,0.7-0.2l0.9,0.5c0.2,0.1,0.3,0.4,0.2,0.7
	C477.9,198.1,477.7,198.2,477.5,198.2z M473.2,195.7c-0.1,0-0.2,0-0.3-0.1l-0.9-0.5c-0.2-0.1-0.3-0.4-0.2-0.7
	c0.1-0.2,0.4-0.3,0.7-0.2l0.9,0.5c0.2,0.1,0.3,0.4,0.2,0.7C473.5,195.6,473.4,195.7,473.2,195.7z M468.9,193.2c-0.1,0-0.2,0-0.3-0.1
	l-0.9-0.5c-0.2-0.1-0.3-0.4-0.2-0.7c0.1-0.2,0.4-0.3,0.7-0.2l0.9,0.5c0.2,0.1,0.3,0.4,0.2,0.7C469.2,193.1,469.1,193.2,468.9,193.2z
	 M464.6,190.7c-0.1,0-0.2,0-0.3-0.1l-0.9-0.5c-0.2-0.1-0.3-0.4-0.2-0.7c0.1-0.2,0.4-0.3,0.7-0.2l0.9,0.5c0.2,0.1,0.3,0.4,0.2,0.7
	C464.9,190.6,464.7,190.7,464.6,190.7z M460.2,188.2c-0.1,0-0.2,0-0.3-0.1l-0.9-0.5c-0.2-0.1-0.3-0.4-0.2-0.7
	c0.1-0.2,0.4-0.3,0.7-0.2l0.9,0.5c0.2,0.1,0.3,0.4,0.2,0.7C460.6,188.1,460.4,188.2,460.2,188.2z M455.9,185.7c-0.1,0-0.2,0-0.3-0.1
	l-0.9-0.5c-0.2-0.1-0.3-0.4-0.2-0.7c0.1-0.2,0.4-0.3,0.7-0.2l0.9,0.5c0.2,0.1,0.3,0.4,0.2,0.7C456.2,185.6,456.1,185.7,455.9,185.7z
	 M451.6,183.1c-0.1,0-0.2,0-0.3-0.1l-0.9-0.5c-0.2-0.1-0.3-0.4-0.2-0.7c0.1-0.2,0.4-0.3,0.7-0.2l0.9,0.5c0.2,0.1,0.3,0.4,0.2,0.7
	C451.9,183.1,451.8,183.1,451.6,183.1z M447.3,180.6c-0.1,0-0.2,0-0.3-0.1l-0.9-0.5c-0.2-0.1-0.3-0.4-0.2-0.7
	c0.1-0.2,0.4-0.3,0.7-0.2l0.9,0.5c0.2,0.1,0.3,0.4,0.2,0.7C447.6,180.5,447.4,180.6,447.3,180.6z M442.9,178.1c-0.1,0-0.2,0-0.3-0.1
	l-0.9-0.5c-0.2-0.1-0.3-0.4-0.2-0.7c0.1-0.2,0.4-0.3,0.7-0.2l0.9,0.5c0.2,0.1,0.3,0.4,0.2,0.7C443.3,178,443.1,178.1,442.9,178.1z
	 M438.6,175.6c-0.1,0-0.2,0-0.3-0.1l-0.9-0.5c-0.2-0.1-0.3-0.4-0.2-0.7c0.1-0.2,0.4-0.3,0.7-0.2l0.9,0.5c0.2,0.1,0.3,0.4,0.2,0.7
	C439,175.5,438.8,175.6,438.6,175.6z M434.3,173.1c-0.1,0-0.2,0-0.3-0.1l-0.9-0.5c-0.2-0.1-0.3-0.4-0.2-0.7c0.1-0.2,0.4-0.3,0.7-0.2
	l0.9,0.5c0.2,0.1,0.3,0.4,0.2,0.7C434.6,173,434.5,173.1,434.3,173.1z M430,170.6c-0.1,0-0.2,0-0.3-0.1l-0.9-0.5
	c-0.2-0.1-0.3-0.4-0.2-0.7c0.1-0.2,0.4-0.3,0.7-0.2l0.9,0.5c0.2,0.1,0.3,0.4,0.2,0.7C430.3,170.5,430.1,170.6,430,170.6z
	 M425.6,168.1c-0.1,0-0.2,0-0.3-0.1l-0.9-0.5c-0.2-0.1-0.3-0.4-0.2-0.7c0.1-0.2,0.4-0.3,0.7-0.2l0.9,0.5c0.2,0.1,0.3,0.4,0.2,0.7
	C426,168,425.8,168.1,425.6,168.1z M421.3,165.6c-0.1,0-0.2,0-0.3-0.1l-0.9-0.5c-0.2-0.1-0.3-0.4-0.2-0.7c0.1-0.2,0.4-0.3,0.7-0.2
	l0.9,0.5c0.2,0.1,0.3,0.4,0.2,0.7C421.7,165.5,421.5,165.6,421.3,165.6z M417,163c-0.1,0-0.2,0-0.3-0.1l-0.9-0.5
	c-0.2-0.1-0.3-0.4-0.2-0.7c0.1-0.2,0.4-0.3,0.7-0.2l0.9,0.5c0.2,0.1,0.3,0.4,0.2,0.7C417.3,163,417.2,163,417,163z M412.7,160.5
	c-0.1,0-0.2,0-0.3-0.1l-0.9-0.5c-0.2-0.1-0.3-0.4-0.2-0.7c0.1-0.2,0.4-0.3,0.7-0.2l0.9,0.5c0.2,0.1,0.3,0.4,0.2,0.7
	C413,160.4,412.9,160.5,412.7,160.5z M408.4,158c-0.1,0-0.2,0-0.3-0.1l-0.9-0.5c-0.2-0.1-0.3-0.4-0.2-0.7s0.4-0.3,0.7-0.2l0.9,0.5
	c0.2,0.1,0.3,0.4,0.2,0.7C408.7,157.9,408.5,158,408.4,158z M404,155.5c-0.1,0-0.2,0-0.3-0.1l-0.9-0.5c-0.2-0.1-0.3-0.4-0.2-0.7
	c0.1-0.2,0.4-0.3,0.7-0.2l0.9,0.5c0.2,0.1,0.3,0.4,0.2,0.7C404.4,155.4,404.2,155.5,404,155.5z M399.7,153c-0.1,0-0.2,0-0.3-0.1
	l-0.9-0.5c-0.2-0.1-0.3-0.4-0.2-0.7c0.1-0.2,0.4-0.3,0.7-0.2l0.9,0.5c0.2,0.1,0.3,0.4,0.2,0.7C400.1,152.9,399.9,153,399.7,153z"/>
<path class="st2" d="M668.5,234.7c-0.3,0-0.5-0.2-0.5-0.5v-1c0-0.3,0.2-0.5,0.5-0.5s0.5,0.2,0.5,0.5v1
	C669,234.5,668.7,234.7,668.5,234.7z M668.5,229.7c-0.3,0-0.5-0.2-0.5-0.5v-1c0-0.3,0.2-0.5,0.5-0.5s0.5,0.2,0.5,0.5v1
	C669,229.5,668.7,229.7,668.5,229.7z M668.5,224.7c-0.3,0-0.5-0.2-0.5-0.5v-1c0-0.3,0.2-0.5,0.5-0.5s0.5,0.2,0.5,0.5v1
	C669,224.5,668.7,224.7,668.5,224.7z M668.5,219.7c-0.3,0-0.5-0.2-0.5-0.5v-1c0-0.3,0.2-0.5,0.5-0.5s0.5,0.2,0.5,0.5v1
	C669,219.5,668.7,219.7,668.5,219.7z M668.5,214.7c-0.3,0-0.5-0.2-0.5-0.5v-1c0-0.3,0.2-0.5,0.5-0.5s0.5,0.2,0.5,0.5v1
	C669,214.5,668.7,214.7,668.5,214.7z M668.5,209.7c-0.3,0-0.5-0.2-0.5-0.5v-1c0-0.3,0.2-0.5,0.5-0.5s0.5,0.2,0.5,0.5v1
	C669,209.5,668.7,209.7,668.5,209.7z M668.5,204.7c-0.3,0-0.5-0.2-0.5-0.5v-1c0-0.3,0.2-0.5,0.5-0.5s0.5,0.2,0.5,0.5v1
	C669,204.5,668.7,204.7,668.5,204.7z M668.5,199.7c-0.3,0-0.5-0.2-0.5-0.5v-1c0-0.3,0.2-0.5,0.5-0.5s0.5,0.2,0.5,0.5v1
	C669,199.5,668.7,199.7,668.5,199.7z M668.5,194.7c-0.3,0-0.5-0.2-0.5-0.5v-1c0-0.3,0.2-0.5,0.5-0.5s0.5,0.2,0.5,0.5v1
	C669,194.5,668.7,194.7,668.5,194.7z M668.5,189.7c-0.3,0-0.5-0.2-0.5-0.5v-1c0-0.3,0.2-0.5,0.5-0.5s0.5,0.2,0.5,0.5v1
	C669,189.5,668.7,189.7,668.5,189.7z M668.5,184.7c-0.3,0-0.5-0.2-0.5-0.5v-1c0-0.3,0.2-0.5,0.5-0.5s0.5,0.2,0.5,0.5v1
	C669,184.5,668.7,184.7,668.5,184.7z M668.5,179.7c-0.3,0-0.5-0.2-0.5-0.5v-1c0-0.3,0.2-0.5,0.5-0.5s0.5,0.2,0.5,0.5v1
	C669,179.5,668.7,179.7,668.5,179.7z M668.5,174.7c-0.3,0-0.5-0.2-0.5-0.5v-1c0-0.3,0.2-0.5,0.5-0.5s0.5,0.2,0.5,0.5v1
	C669,174.5,668.7,174.7,668.5,174.7z M668.5,169.7c-0.3,0-0.5-0.2-0.5-0.5v-1c0-0.3,0.2-0.5,0.5-0.5s0.5,0.2,0.5,0.5v1
	C669,169.5,668.7,169.7,668.5,169.7z M668.5,164.7c-0.3,0-0.5-0.2-0.5-0.5v-1c0-0.3,0.2-0.5,0.5-0.5s0.5,0.2,0.5,0.5v1
	C669,164.5,668.7,164.7,668.5,164.7z M668.5,159.7c-0.3,0-0.5-0.2-0.5-0.5v-1c0-0.3,0.2-0.5,0.5-0.5s0.5,0.2,0.5,0.5v1
	C669,159.5,668.7,159.7,668.5,159.7z M668.5,154.7c-0.3,0-0.5-0.2-0.5-0.5v-1c0-0.3,0.2-0.5,0.5-0.5s0.5,0.2,0.5,0.5v1
	C669,154.5,668.7,154.7,668.5,154.7z M668.5,149.7c-0.3,0-0.5-0.2-0.5-0.5v-1c0-0.3,0.2-0.5,0.5-0.5s0.5,0.2,0.5,0.5v1
	C669,149.5,668.7,149.7,668.5,149.7z M668.5,144.7c-0.3,0-0.5-0.2-0.5-0.5v-1c0-0.3,0.2-0.5,0.5-0.5s0.5,0.2,0.5,0.5v1
	C669,144.5,668.7,144.7,668.5,144.7z M668.5,139.7c-0.3,0-0.5-0.2-0.5-0.5v-1c0-0.3,0.2-0.5,0.5-0.5s0.5,0.2,0.5,0.5v1
	C669,139.5,668.7,139.7,668.5,139.7z M668.5,134.7c-0.3,0-0.5-0.2-0.5-0.5v-1c0-0.3,0.2-0.5,0.5-0.5s0.5,0.2,0.5,0.5v1
	C669,134.5,668.7,134.7,668.5,134.7z M668.5,129.7c-0.3,0-0.5-0.2-0.5-0.5v-1c0-0.3,0.2-0.5,0.5-0.5s0.5,0.2,0.5,0.5v1
	C669,129.5,668.7,129.7,668.5,129.7z"/>
<path class="st1" d="M917.8,235.9c-0.3,0-0.5-0.2-0.5-0.5v-1c0-0.3,0.2-0.5,0.5-0.5s0.5,0.2,0.5,0.5v1
	C918.3,235.7,918.1,235.9,917.8,235.9z M917.8,230.9c-0.3,0-0.5-0.2-0.5-0.5v-1c0-0.3,0.2-0.5,0.5-0.5s0.5,0.2,0.5,0.5v1
	C918.3,230.7,918.1,230.9,917.8,230.9z M917.8,225.9c-0.3,0-0.5-0.2-0.5-0.5v-1c0-0.3,0.2-0.5,0.5-0.5s0.5,0.2,0.5,0.5v1
	C918.3,225.7,918.1,225.9,917.8,225.9z M917.8,220.9c-0.3,0-0.5-0.2-0.5-0.5v-1c0-0.3,0.2-0.5,0.5-0.5s0.5,0.2,0.5,0.5v1
	C918.3,220.7,918.1,220.9,917.8,220.9z M917.8,215.9c-0.3,0-0.5-0.2-0.5-0.5v-1c0-0.3,0.2-0.5,0.5-0.5s0.5,0.2,0.5,0.5v1
	C918.3,215.7,918.1,215.9,917.8,215.9z M917.8,210.9c-0.3,0-0.5-0.2-0.5-0.5v-1c0-0.3,0.2-0.5,0.5-0.5s0.5,0.2,0.5,0.5v1
	C918.3,210.7,918.1,210.9,917.8,210.9z M917.8,205.9c-0.3,0-0.5-0.2-0.5-0.5v-1c0-0.3,0.2-0.5,0.5-0.5s0.5,0.2,0.5,0.5v1
	C918.3,205.7,918.1,205.9,917.8,205.9z M917.8,200.9c-0.3,0-0.5-0.2-0.5-0.5v-1c0-0.3,0.2-0.5,0.5-0.5s0.5,0.2,0.5,0.5v1
	C918.3,200.7,918.1,200.9,917.8,200.9z M917.8,195.9c-0.3,0-0.5-0.2-0.5-0.5v-1c0-0.3,0.2-0.5,0.5-0.5s0.5,0.2,0.5,0.5v1
	C918.3,195.7,918.1,195.9,917.8,195.9z M917.8,190.9c-0.3,0-0.5-0.2-0.5-0.5v-1c0-0.3,0.2-0.5,0.5-0.5s0.5,0.2,0.5,0.5v1
	C918.3,190.7,918.1,190.9,917.8,190.9z M917.8,185.9c-0.3,0-0.5-0.2-0.5-0.5v-1c0-0.3,0.2-0.5,0.5-0.5s0.5,0.2,0.5,0.5v1
	C918.3,185.7,918.1,185.9,917.8,185.9z M917.8,180.9c-0.3,0-0.5-0.2-0.5-0.5v-1c0-0.3,0.2-0.5,0.5-0.5s0.5,0.2,0.5,0.5v1
	C918.3,180.7,918.1,180.9,917.8,180.9z M917.8,175.9c-0.3,0-0.5-0.2-0.5-0.5v-1c0-0.3,0.2-0.5,0.5-0.5s0.5,0.2,0.5,0.5v1
	C918.3,175.7,918.1,175.9,917.8,175.9z M917.8,170.9c-0.3,0-0.5-0.2-0.5-0.5v-1c0-0.3,0.2-0.5,0.5-0.5s0.5,0.2,0.5,0.5v1
	C918.3,170.7,918.1,170.9,917.8,170.9z M917.8,165.9c-0.3,0-0.5-0.2-0.5-0.5v-1c0-0.3,0.2-0.5,0.5-0.5s0.5,0.2,0.5,0.5v1
	C918.3,165.7,918.1,165.9,917.8,165.9z M917.8,160.9c-0.3,0-0.5-0.2-0.5-0.5v-1c0-0.3,0.2-0.5,0.5-0.5s0.5,0.2,0.5,0.5v1
	C918.3,160.7,918.1,160.9,917.8,160.9z M917.8,155.9c-0.3,0-0.5-0.2-0.5-0.5v-1c0-0.3,0.2-0.5,0.5-0.5s0.5,0.2,0.5,0.5v1
	C918.3,155.7,918.1,155.9,917.8,155.9z M917.8,150.9c-0.3,0-0.5-0.2-0.5-0.5v-1c0-0.3,0.2-0.5,0.5-0.5s0.5,0.2,0.5,0.5v1
	C918.3,150.7,918.1,150.9,917.8,150.9z M917.8,145.9c-0.3,0-0.5-0.2-0.5-0.5v-1c0-0.3,0.2-0.5,0.5-0.5s0.5,0.2,0.5,0.5v1
	C918.3,145.7,918.1,145.9,917.8,145.9z M917.8,140.9c-0.3,0-0.5-0.2-0.5-0.5v-1c0-0.3,0.2-0.5,0.5-0.5s0.5,0.2,0.5,0.5v1
	C918.3,140.7,918.1,140.9,917.8,140.9z M917.8,135.9c-0.3,0-0.5-0.2-0.5-0.5v-1c0-0.3,0.2-0.5,0.5-0.5s0.5,0.2,0.5,0.5v1
	C918.3,135.7,918.1,135.9,917.8,135.9z M917.8,130.9c-0.3,0-0.5-0.2-0.5-0.5v-1c0-0.3,0.2-0.5,0.5-0.5s0.5,0.2,0.5,0.5v1
	C918.3,130.7,918.1,130.9,917.8,130.9z M917.8,125.9c-0.3,0-0.5-0.2-0.5-0.5v-1c0-0.3,0.2-0.5,0.5-0.5s0.5,0.2,0.5,0.5v1
	C918.3,125.7,918.1,125.9,917.8,125.9z M917.8,120.9c-0.3,0-0.5-0.2-0.5-0.5v-1c0-0.3,0.2-0.5,0.5-0.5s0.5,0.2,0.5,0.5v1
	C918.3,120.7,918.1,120.9,917.8,120.9z M917.8,115.9c-0.3,0-0.5-0.2-0.5-0.5v-1c0-0.3,0.2-0.5,0.5-0.5s0.5,0.2,0.5,0.5v1
	C918.3,115.7,918.1,115.9,917.8,115.9z M917.8,110.9c-0.3,0-0.5-0.2-0.5-0.5v-1c0-0.3,0.2-0.5,0.5-0.5s0.5,0.2,0.5,0.5v1
	C918.3,110.7,918.1,110.9,917.8,110.9z M917.8,105.9c-0.3,0-0.5-0.2-0.5-0.5v-1c0-0.3,0.2-0.5,0.5-0.5s0.5,0.2,0.5,0.5v1
	C918.3,105.7,918.1,105.9,917.8,105.9z M917.8,100.9c-0.3,0-0.5-0.2-0.5-0.5v-1c0-0.3,0.2-0.5,0.5-0.5s0.5,0.2,0.5,0.5v1
	C918.3,100.7,918.1,100.9,917.8,100.9z M917.8,95.9c-0.3,0-0.5-0.2-0.5-0.5v-1c0-0.3,0.2-0.5,0.5-0.5s0.5,0.2,0.5,0.5v1
	C918.3,95.7,918.1,95.9,917.8,95.9z"/>
</svg>
