<?xml version="1.0" encoding="utf-8"?>
<!-- Generator: Adobe Illustrator 26.3.1, SVG Export Plug-In . SVG Version: 6.00 Build 0)  -->
<svg version="1.1" id="圖層_1" xmlns="http://www.w3.org/2000/svg" xmlns:xlink="http://www.w3.org/1999/xlink" x="0px" y="0px"
	 viewBox="0 0 335 400" style="enable-background:new 0 0 335 400;" xml:space="preserve">
<style type="text/css">
	.st0{fill:#FFFFFF;}
	.st1{fill:#C61026;}
	.st2{fill:#1C0D5B;}
	.st3{fill:#CCCCCC;}
	.st4{fill:#BB022C;}
</style>
<path class="st0" d="M315.6,0C326.2,0,335,8.6,335,19.3v361.4c0,10.6-8.7,19.3-19.4,19.3H19.4C8.8,400,0,391.4,0,380.7V19.3
	C0,8.7,8.7,0,19.4,0H315.6z"/>
<g>
	<polygon class="st1" points="57.7,243.8 82.8,243.8 82.8,343.8 57.7,343.8 57.7,243.8 	"/>
	<polygon class="st1" points="155,202.8 180,202.8 180,343.8 155,343.8 155,202.8 	"/>
	<polygon class="st1" points="252.2,126.4 277.3,126.4 277.3,343.8 252.2,343.8 252.2,126.4 	"/>
	<g>
		<path class="st1" d="M53.5,235.1h-3.2v-12.4l-3.8,1.2v-2.6l6.7-2.4h0.3V235.1z"/>
		<path class="st1" d="M69.9,220.7l-6.3,14.4h-3.4l6.3-13.6h-8.1v-2.6h11.4V220.7z"/>
		<path class="st1" d="M72.3,233.6c0-0.5,0.2-0.9,0.5-1.2c0.3-0.3,0.8-0.5,1.3-0.5c0.5,0,1,0.2,1.3,0.5c0.3,0.3,0.5,0.7,0.5,1.2
			c0,0.5-0.2,0.9-0.5,1.2s-0.8,0.5-1.3,0.5c-0.5,0-1-0.2-1.3-0.5C72.5,234.5,72.3,234.1,72.3,233.6z"/>
		<path class="st1" d="M83.8,235.1h-2.3v-8.7l-2.7,0.8v-1.8l4.7-1.7h0.2V235.1z"/>
		<path class="st1" d="M94.2,230.9h1.3v1.8h-1.3v2.5H92v-2.5h-4.6l-0.1-1.4l4.7-7.5h2.3V230.9z M89.5,230.9H92v-4l-0.1,0.3
			L89.5,230.9z"/>
	</g>
	<g>
		<path class="st1" d="M154,194.1h-11.1v-2.2l5.2-5.6c0.7-0.8,1.3-1.5,1.6-2.1s0.5-1.1,0.5-1.7c0-0.7-0.2-1.3-0.5-1.7
			c-0.4-0.4-0.9-0.6-1.6-0.6c-0.7,0-1.3,0.3-1.7,0.8c-0.4,0.5-0.6,1.2-0.6,2h-3.2c0-1,0.2-1.9,0.7-2.7s1.1-1.5,2-1.9
			c0.9-0.5,1.8-0.7,2.9-0.7c1.7,0,3,0.4,3.9,1.2c0.9,0.8,1.4,1.9,1.4,3.4c0,0.8-0.2,1.6-0.6,2.4c-0.4,0.8-1.1,1.8-2.1,2.9l-3.7,3.9
			h7V194.1z"/>
		<path class="st1" d="M165.6,188h1.8v2.6h-1.8v3.5h-3.2v-3.5h-6.6l-0.1-2l6.8-10.7h3.2V188z M158.8,188h3.6v-5.7l-0.2,0.4
			L158.8,188z"/>
		<path class="st1" d="M169.6,192.6c0-0.5,0.2-0.9,0.5-1.2c0.3-0.3,0.8-0.5,1.3-0.5c0.5,0,1,0.2,1.3,0.5s0.5,0.7,0.5,1.2
			c0,0.5-0.2,0.9-0.5,1.2c-0.3,0.3-0.8,0.5-1.3,0.5c-0.5,0-1-0.2-1.3-0.5C169.7,193.5,169.6,193.1,169.6,192.6z"/>
		<path class="st1" d="M181.1,194.1h-2.3v-8.7l-2.7,0.8v-1.8l4.7-1.7h0.2V194.1z"/>
		<path class="st1" d="M192.5,184.1l-4.4,10.1h-2.4l4.4-9.5h-5.6v-1.8h8V184.1z"/>
	</g>
	<g>
		<path class="st1" d="M243.4,108.2h1.7c0.8,0,1.4-0.2,1.8-0.6c0.4-0.4,0.6-0.9,0.6-1.6c0-0.7-0.2-1.2-0.6-1.5s-0.9-0.5-1.6-0.5
			c-0.6,0-1.1,0.2-1.5,0.5c-0.4,0.3-0.6,0.8-0.6,1.3h-3.2c0-0.8,0.2-1.6,0.7-2.3s1.1-1.2,1.9-1.6c0.8-0.4,1.7-0.6,2.7-0.6
			c1.7,0,3.1,0.4,4,1.2c1,0.8,1.5,1.9,1.5,3.4c0,0.7-0.2,1.4-0.7,2s-1,1.1-1.8,1.4c0.9,0.3,1.6,0.8,2,1.5c0.4,0.7,0.7,1.4,0.7,2.3
			c0,1.4-0.5,2.6-1.6,3.5c-1,0.9-2.4,1.3-4.2,1.3c-1.6,0-2.9-0.4-4-1.3s-1.5-2-1.5-3.4h3.2c0,0.6,0.2,1.1,0.7,1.5s1,0.6,1.7,0.6
			c0.8,0,1.4-0.2,1.8-0.6c0.4-0.4,0.7-0.9,0.7-1.6c0-1.6-0.9-2.4-2.7-2.4h-1.7V108.2z"/>
		<path class="st1" d="M264.3,103.3l-6.3,14.4h-3.4l6.3-13.6h-8.1v-2.6h11.4V103.3z"/>
		<path class="st1" d="M266.8,116.1c0-0.5,0.2-0.9,0.5-1.2c0.3-0.3,0.8-0.5,1.3-0.5c0.5,0,1,0.2,1.3,0.5s0.5,0.7,0.5,1.2
			c0,0.5-0.2,0.9-0.5,1.2c-0.3,0.3-0.8,0.5-1.3,0.5c-0.5,0-1-0.2-1.3-0.5C266.9,117,266.8,116.6,266.8,116.1z"/>
		<path class="st1" d="M280.6,117.7h-7.8v-1.5l3.7-3.9c0.5-0.6,0.9-1,1.1-1.4s0.4-0.8,0.4-1.2c0-0.5-0.1-0.9-0.4-1.2
			c-0.3-0.3-0.6-0.4-1.1-0.4c-0.5,0-0.9,0.2-1.2,0.5s-0.4,0.8-0.4,1.4h-2.3c0-0.7,0.2-1.3,0.5-1.9c0.3-0.6,0.8-1,1.4-1.3
			c0.6-0.3,1.3-0.5,2-0.5c1.2,0,2.1,0.3,2.7,0.8c0.6,0.6,1,1.4,1,2.4c0,0.6-0.1,1.1-0.4,1.7s-0.8,1.3-1.5,2l-2.6,2.7h4.9V117.7z"/>
		<path class="st1" d="M289.4,109.4c0,0.6-0.1,1-0.4,1.5s-0.7,0.8-1.1,1c0.5,0.3,1,0.6,1.3,1.1c0.3,0.5,0.5,1,0.5,1.6
			c0,1-0.3,1.8-1,2.4c-0.7,0.6-1.6,0.9-2.8,0.9s-2.1-0.3-2.8-0.9c-0.7-0.6-1-1.4-1-2.4c0-0.6,0.2-1.2,0.5-1.6s0.8-0.8,1.3-1.1
			c-0.5-0.3-0.9-0.6-1.1-1s-0.4-0.9-0.4-1.5c0-1,0.3-1.7,1-2.3s1.5-0.9,2.6-0.9c1.1,0,2,0.3,2.6,0.9
			C289.1,107.6,289.4,108.4,289.4,109.4z M287.4,114.4c0-0.5-0.1-0.9-0.4-1.2c-0.3-0.3-0.7-0.4-1.2-0.4c-0.5,0-0.9,0.1-1.1,0.4
			c-0.3,0.3-0.4,0.7-0.4,1.2c0,0.5,0.1,0.9,0.4,1.2c0.3,0.3,0.7,0.4,1.2,0.4c0.5,0,0.9-0.1,1.1-0.4
			C287.3,115.3,287.4,114.9,287.4,114.4z M287.2,109.5c0-0.4-0.1-0.8-0.4-1.1s-0.6-0.4-1-0.4c-0.4,0-0.7,0.1-1,0.4s-0.4,0.6-0.4,1.1
			c0,0.5,0.1,0.8,0.4,1.1c0.2,0.3,0.6,0.4,1,0.4s0.8-0.1,1-0.4C287,110.3,287.2,109.9,287.2,109.5z"/>
	</g>
	<g>
		<g>
			<path class="st2" d="M54.7,373.6h-1.4V364l-2.9,1.1v-1.3l4.1-1.5h0.2V373.6z"/>
			<path class="st2" d="M74.8,371.2H69v3.7h-1.2v-3.7h-7.4v-1.1H63v-4.3h4.8v-2.4h-3.9c-0.7,1.2-1.6,2.3-2.4,3.1
				c-0.2-0.2-0.7-0.6-1-0.7c1.5-1.3,2.8-3.4,3.6-5.5l1.2,0.3c-0.2,0.6-0.5,1.1-0.7,1.7H74v1.1h-5v2.4h4.7v1.1H69v3.2h5.8V371.2z
				 M67.8,370.1v-3.2h-3.6v3.2H67.8z"/>
			<path class="st2" d="M80.9,363.9c-0.4,0.7-0.9,1.5-1.4,2.2v8.8h-1.1v-7.4c-0.5,0.6-1,1.1-1.5,1.5c-0.1-0.2-0.5-0.8-0.7-1
				c1.4-1.1,2.8-2.7,3.7-4.4L80.9,363.9z M80.6,360.7c-0.9,1.3-2.3,2.8-3.6,3.8c-0.1-0.2-0.5-0.6-0.6-0.9c1.2-0.8,2.5-2.2,3.1-3.3
				L80.6,360.7z M89.4,368.8c-0.7,1.5-1.7,2.7-3,3.7c1.3,0.6,2.7,1.1,4.2,1.4c-0.3,0.3-0.6,0.7-0.7,1c-1.7-0.4-3.2-1-4.5-1.7
				c-1.4,0.8-3,1.4-4.7,1.8c-0.1-0.3-0.4-0.8-0.6-1c1.5-0.3,2.9-0.7,4.2-1.4c-0.6-0.5-1.3-1-1.8-1.6c-0.4,0.4-0.8,0.7-1.3,1.1
				c-0.2-0.2-0.6-0.7-0.8-0.9c0.5-0.3,0.9-0.7,1.4-1.1c-0.3-0.4-0.5-0.8-0.8-1.2l1-0.3c0.2,0.3,0.3,0.6,0.5,0.8
				c0.6-0.6,1.1-1.3,1.5-2c-2.3,0.1-2.7,0.2-3,0.3c0-0.2-0.2-0.8-0.4-1.1c0.5-0.1,1-0.3,1.8-0.8c0.4-0.2,1.1-0.7,2-1.2
				c-2.4,0.1-2.8,0.2-3,0.3c0-0.3-0.2-0.8-0.4-1.1c0.3,0,0.6-0.3,1.1-0.6c0.4-0.3,1.8-1.5,2.8-2.6L86,361c-1,1-2,1.9-3,2.6l2.8-0.1
				c0.7-0.5,1.5-1.1,2.1-1.7l1.1,0.6c-1.9,1.5-3.8,2.9-5.8,3.9l5-0.3c-0.4-0.5-0.7-0.9-1.1-1.3l0.9-0.5c0.9,1.1,2.1,2.5,2.6,3.4
				l-1,0.6c-0.2-0.4-0.5-0.8-0.8-1.3l-3.5,0.2c-0.2,0.4-0.5,0.9-0.8,1.3h3.9l0.2,0L89.4,368.8z M83.9,369.5
				c-0.2,0.2-0.4,0.5-0.6,0.7c0.6,0.7,1.3,1.2,2.1,1.7c1-0.7,1.8-1.5,2.4-2.4H83.9z"/>
		</g>
	</g>
	<g>
		<g>
			<path class="st2" d="M154.6,373.6h-7.4v-1l3.9-4.4c0.6-0.7,1-1.2,1.2-1.6c0.2-0.4,0.3-0.8,0.3-1.3c0-0.6-0.2-1.1-0.5-1.5
				s-0.8-0.6-1.4-0.6c-0.7,0-1.3,0.2-1.7,0.6c-0.4,0.4-0.6,1-0.6,1.7H147c0-1,0.3-1.9,1-2.5c0.7-0.6,1.6-1,2.7-1
				c1.1,0,1.9,0.3,2.5,0.8c0.6,0.6,0.9,1.3,0.9,2.2c0,1.1-0.7,2.4-2.1,4l-3,3.3h5.7V373.6z"/>
			<path class="st2" d="M172,371.2h-5.8v3.7H165v-3.7h-7.4v-1.1h2.6v-4.3h4.8v-2.4h-3.9c-0.7,1.2-1.6,2.3-2.4,3.1
				c-0.2-0.2-0.7-0.6-1-0.7c1.5-1.3,2.8-3.4,3.6-5.5l1.2,0.3c-0.2,0.6-0.5,1.1-0.7,1.7h9.5v1.1h-5v2.4h4.7v1.1h-4.7v3.2h5.8V371.2z
				 M165,370.1v-3.2h-3.6v3.2H165z"/>
			<path class="st2" d="M178.1,363.9c-0.4,0.7-0.9,1.5-1.4,2.2v8.8h-1.1v-7.4c-0.5,0.6-1,1.1-1.5,1.5c-0.1-0.2-0.5-0.8-0.7-1
				c1.4-1.1,2.8-2.7,3.7-4.4L178.1,363.9z M177.8,360.7c-0.9,1.3-2.3,2.8-3.6,3.8c-0.1-0.2-0.5-0.6-0.6-0.9c1.2-0.8,2.5-2.2,3.1-3.3
				L177.8,360.7z M186.6,368.8c-0.7,1.5-1.7,2.7-3,3.7c1.3,0.6,2.7,1.1,4.2,1.4c-0.3,0.3-0.6,0.7-0.7,1c-1.7-0.4-3.2-1-4.5-1.7
				c-1.4,0.8-3,1.4-4.7,1.8c-0.1-0.3-0.4-0.8-0.6-1c1.5-0.3,2.9-0.7,4.2-1.4c-0.6-0.5-1.3-1-1.8-1.6c-0.4,0.4-0.8,0.7-1.3,1.1
				c-0.2-0.2-0.6-0.7-0.8-0.9c0.5-0.3,0.9-0.7,1.4-1.1c-0.3-0.4-0.5-0.8-0.8-1.2l1-0.3c0.2,0.3,0.3,0.6,0.5,0.8
				c0.6-0.6,1.1-1.3,1.5-2c-2.3,0.1-2.7,0.2-3,0.3c0-0.2-0.2-0.8-0.4-1.1c0.5-0.1,1-0.3,1.8-0.8c0.4-0.2,1.1-0.7,2-1.2
				c-2.4,0.1-2.8,0.2-3,0.3c0-0.3-0.2-0.8-0.4-1.1c0.3,0,0.6-0.3,1.1-0.6c0.4-0.3,1.8-1.5,2.8-2.6l1.2,0.5c-1,1-2,1.9-3,2.6l2.8-0.1
				c0.7-0.5,1.5-1.1,2.1-1.7l1.1,0.6c-1.9,1.5-3.8,2.9-5.8,3.9l5-0.3c-0.4-0.5-0.7-0.9-1.1-1.3l0.9-0.5c0.9,1.1,2.1,2.5,2.6,3.4
				l-1,0.6c-0.2-0.4-0.5-0.8-0.8-1.3l-3.5,0.2c-0.2,0.4-0.5,0.9-0.8,1.3h3.9l0.2,0L186.6,368.8z M181.1,369.5
				c-0.2,0.2-0.4,0.5-0.6,0.7c0.6,0.7,1.3,1.2,2.1,1.7c1-0.7,1.8-1.5,2.4-2.4H181.1z"/>
		</g>
	</g>
	<g>
		<g>
			<path class="st2" d="M246.5,367.3h1.1c0.7,0,1.2-0.2,1.6-0.5c0.4-0.3,0.6-0.8,0.6-1.4c0-1.3-0.7-2-2-2c-0.6,0-1.1,0.2-1.5,0.5
				s-0.6,0.8-0.6,1.4h-1.4c0-0.9,0.3-1.6,1-2.2c0.7-0.6,1.5-0.9,2.5-0.9c1.1,0,1.9,0.3,2.5,0.8c0.6,0.6,0.9,1.4,0.9,2.4
				c0,0.5-0.2,1-0.5,1.4s-0.8,0.8-1.3,1c0.6,0.2,1.1,0.5,1.4,1c0.3,0.5,0.5,1,0.5,1.7c0,1-0.3,1.8-1,2.4c-0.7,0.6-1.5,0.9-2.6,0.9
				s-1.9-0.3-2.6-0.9c-0.7-0.6-1-1.3-1-2.3h1.4c0,0.6,0.2,1.1,0.6,1.4c0.4,0.4,0.9,0.5,1.6,0.5c0.7,0,1.2-0.2,1.6-0.5
				c0.4-0.4,0.6-0.9,0.6-1.6c0-0.7-0.2-1.2-0.6-1.5c-0.4-0.4-1-0.5-1.8-0.5h-1.1V367.3z"/>
			<path class="st2" d="M269.2,371.2h-5.8v3.7h-1.2v-3.7h-7.4v-1.1h2.6v-4.3h4.8v-2.4h-3.9c-0.7,1.2-1.6,2.3-2.4,3.1
				c-0.2-0.2-0.7-0.6-1-0.7c1.5-1.3,2.8-3.4,3.6-5.5l1.2,0.3c-0.2,0.6-0.5,1.1-0.7,1.7h9.5v1.1h-5v2.4h4.7v1.1h-4.7v3.2h5.8V371.2z
				 M262.2,370.1v-3.2h-3.6v3.2H262.2z"/>
			<path class="st2" d="M275.4,363.9c-0.4,0.7-0.9,1.5-1.4,2.2v8.8h-1.1v-7.4c-0.5,0.6-1,1.1-1.5,1.5c-0.1-0.2-0.5-0.8-0.7-1
				c1.4-1.1,2.8-2.7,3.7-4.4L275.4,363.9z M275,360.7c-0.9,1.3-2.3,2.8-3.6,3.8c-0.1-0.2-0.5-0.6-0.6-0.9c1.2-0.8,2.5-2.2,3.1-3.3
				L275,360.7z M283.9,368.8c-0.7,1.5-1.7,2.7-3,3.7c1.3,0.6,2.7,1.1,4.2,1.4c-0.3,0.3-0.6,0.7-0.7,1c-1.7-0.4-3.2-1-4.5-1.7
				c-1.4,0.8-3,1.4-4.7,1.8c-0.1-0.3-0.4-0.8-0.6-1c1.5-0.3,2.9-0.7,4.2-1.4c-0.6-0.5-1.3-1-1.8-1.6c-0.4,0.4-0.8,0.7-1.3,1.1
				c-0.2-0.2-0.6-0.7-0.8-0.9c0.5-0.3,0.9-0.7,1.4-1.1c-0.3-0.4-0.5-0.8-0.8-1.2l1-0.3c0.2,0.3,0.3,0.6,0.5,0.8
				c0.6-0.6,1.1-1.3,1.5-2c-2.3,0.1-2.7,0.2-3,0.3c0-0.2-0.2-0.8-0.4-1.1c0.5-0.1,1-0.3,1.8-0.8c0.4-0.2,1.1-0.7,2-1.2
				c-2.4,0.1-2.8,0.2-3,0.3c0-0.3-0.2-0.8-0.4-1.1c0.3,0,0.6-0.3,1.1-0.6c0.4-0.3,1.8-1.5,2.8-2.6l1.2,0.5c-1,1-2,1.9-3,2.6l2.8-0.1
				c0.7-0.5,1.5-1.1,2.1-1.7l1.1,0.6c-1.9,1.5-3.8,2.9-5.8,3.9l5-0.3c-0.4-0.5-0.7-0.9-1.1-1.3l0.9-0.5c0.9,1.1,2.1,2.5,2.6,3.4
				l-1,0.6c-0.2-0.4-0.5-0.8-0.8-1.3l-3.5,0.2c-0.2,0.4-0.5,0.9-0.8,1.3h3.9l0.2,0L283.9,368.8z M278.3,369.5
				c-0.2,0.2-0.4,0.5-0.6,0.7c0.6,0.7,1.3,1.2,2.1,1.7c1-0.7,1.8-1.5,2.4-2.4H278.3z"/>
		</g>
	</g>
	<rect x="22.2" y="343.3" class="st3" width="290.6" height="1"/>
</g>
<g>
	<g id="XMLID_6890_">
		<g>
			<path id="XMLID_00000044159385054165685070000005890398138840454836_" class="st0" d="M138.2,36.4c0,9.4-7.7,17.1-17.1,17.1
				c-9.4,0-17.1-7.7-17.1-17.1c0-8.7,6.6-16,15-17h4.1C131.7,20.4,138.2,27.6,138.2,36.4z"/>
			<path class="st3" d="M121.2,54c-9.7,0-17.6-7.9-17.6-17.6c0-8.9,6.7-16.4,15.5-17.5l4.1,0c8.9,1.1,15.6,8.6,15.6,17.5
				C138.7,46.1,130.9,54,121.2,54z M123.1,19.9l-4,0c-8.3,1-14.5,8.1-14.5,16.5c0,9.1,7.4,16.6,16.6,16.6c9.1,0,16.6-7.4,16.6-16.6
				C137.7,28,131.5,20.9,123.1,19.9z"/>
		</g>
		<circle id="XMLID_6891_" class="st4" cx="121.2" cy="36.4" r="10.2"/>
	</g>
	<g>
		<path class="st2" d="M165.9,27.9v17h-1.6v-1.3h-10.2v1.3h-1.5V27.9H165.9z M154.1,29.4v5.5h10.2v-5.5H154.1z M164.3,42.1v-5.7
			h-10.2v5.7H164.3z"/>
		<path class="st2" d="M182.2,32.3c1.5,3.5,4.1,6.7,6.9,8.3c-0.4,0.3-0.9,0.9-1.2,1.3c-3-1.9-5.7-5.6-7.2-9.6h-0.3v7.6h4.8v1.5h-4.8
			v3.8h-1.6v-3.8h-4.8v-1.5h4.8v-7.6h-0.3c-1.6,4-4.2,7.6-7.2,9.7c-0.2-0.4-0.7-0.9-1.1-1.2c2.7-1.7,5.2-5,6.7-8.4h-6.2v-1.5h8.1
			v-4.3h1.6v4.3h8.1v1.5H182.2z"/>
		<path class="st2" d="M197.8,43.2c0,0.8-0.2,1.2-0.7,1.5c-0.5,0.2-1.3,0.3-2.5,0.3c-0.1-0.4-0.2-1-0.4-1.4c0.9,0,1.7,0,1.9,0
			c0.2,0,0.3-0.1,0.3-0.4v-5.6c-0.9,0.5-1.7,1-2.5,1.5l-0.6-1.2c-0.1,2.5-0.6,5.2-1.5,7.3c-0.3-0.2-0.9-0.6-1.2-0.7
			c1.4-2.9,1.5-7,1.5-9.9v-7.3h5.7V43.2z M193.5,34.5c0,1,0,2.1-0.1,3.2c0.8-0.3,1.9-0.8,3-1.4V34l-0.8,0.6
			c-0.5-0.7-1.4-1.7-2.2-2.4V34.5z M193.5,28.6v3.2l0.7-0.5c0.8,0.7,1.7,1.6,2.2,2.3v-4.9H193.5z M208.8,35.8
			c-0.8,2.5-2.1,4.5-3.8,6c1.3,0.9,2.8,1.6,4.5,2.1c-0.4,0.3-0.8,0.9-1,1.3c-1.8-0.5-3.4-1.4-4.7-2.4c-1.5,1.1-3.1,1.8-4.9,2.4
			c-0.2-0.4-0.5-1-0.8-1.3c1.6-0.4,3.2-1.1,4.6-2.1c-1.3-1.3-2.3-2.9-3.1-4.8l0.3-0.1h-1v-1.4h8.7l0.2-0.1L208.8,35.8z M202.3,29.5
			c0,1.8-0.6,4-3,5.4c-0.2-0.3-0.7-0.8-1-1.1c2.2-1.3,2.6-2.9,2.6-4.4v-2.3h6.2V32c0,0.6,0,0.7,0.3,0.7h1.1c0.2,0,0.6,0,0.9-0.1
			c0,0.4,0.1,0.9,0.1,1.3c-0.2,0.1-0.6,0.1-1,0.1h-1.3c-1.4,0-1.6-0.6-1.6-2.1v-3.3h-3.4V29.5z M201.1,36.9c0.7,1.5,1.6,2.9,2.8,4
			c1.2-1.1,2.3-2.4,2.9-4H201.1z"/>
		<path class="st2" d="M221.4,30.9v2.8h6.6v7.2c0,0.9-0.2,1.3-0.9,1.6c-0.7,0.2-1.8,0.3-3.6,0.3c-0.1-0.5-0.3-1.1-0.5-1.5
			c1.4,0,2.6,0,3,0c0.4,0,0.5-0.1,0.5-0.4v-5.7h-5.1v9.9h-1.5v-9.9H215v7.6h-1.5v-9.1h6.3v-2.8h-8.3v-1.5h8.7
			c-0.3-0.8-0.9-1.9-1.4-2.7l1.5-0.5c0.6,0.9,1.3,2.2,1.6,3l-0.3,0.1h8.1v1.5H221.4z"/>
	</g>
</g>
</svg>
