<?xml version="1.0" encoding="utf-8"?>
<!-- Generator: Adobe Illustrator 26.3.1, SVG Export Plug-In . SVG Version: 6.00 Build 0)  -->
<svg version="1.1" id="content" xmlns="http://www.w3.org/2000/svg" xmlns:xlink="http://www.w3.org/1999/xlink" x="0px" y="0px"
	 viewBox="0 0 180 94" style="enable-background:new 0 0 180 94;" xml:space="preserve">
<style type="text/css">
	.st0{fill:#C2DBFF;}
</style>
<g>
	<g>
		<circle class="st0" cx="5" cy="4.5" r="4.3"/>
		<circle class="st0" cx="33.3" cy="4.5" r="4.3"/>
		<circle class="st0" cx="61.7" cy="4.5" r="4.3"/>
		<circle class="st0" cx="90" cy="4.5" r="4.3"/>
		<circle class="st0" cx="118.3" cy="4.5" r="4.3"/>
		<circle class="st0" cx="146.7" cy="4.5" r="4.3"/>
		<circle class="st0" cx="175" cy="4.5" r="4.3"/>
		<circle class="st0" cx="5" cy="32.8" r="4.3"/>
		<circle class="st0" cx="33.3" cy="32.8" r="4.3"/>
		<circle class="st0" cx="61.7" cy="32.8" r="4.3"/>
		<circle class="st0" cx="90" cy="32.8" r="4.3"/>
		<circle class="st0" cx="118.3" cy="32.8" r="4.3"/>
		<circle class="st0" cx="146.7" cy="32.8" r="4.3"/>
		<circle class="st0" cx="175" cy="32.8" r="4.3"/>
		<circle class="st0" cx="5" cy="61.2" r="4.3"/>
		<circle class="st0" cx="33.3" cy="61.2" r="4.3"/>
		<circle class="st0" cx="61.7" cy="61.2" r="4.3"/>
		<circle class="st0" cx="90" cy="61.2" r="4.3"/>
		<circle class="st0" cx="118.3" cy="61.2" r="4.3"/>
		<circle class="st0" cx="146.7" cy="61.2" r="4.3"/>
		<circle class="st0" cx="175" cy="61.2" r="4.3"/>
		<circle class="st0" cx="5" cy="89.5" r="4.3"/>
		<circle class="st0" cx="33.3" cy="89.5" r="4.3"/>
		<circle class="st0" cx="61.7" cy="89.5" r="4.3"/>
		<circle class="st0" cx="90" cy="89.5" r="4.3"/>
		<circle class="st0" cx="118.3" cy="89.5" r="4.3"/>
		<circle class="st0" cx="146.7" cy="89.5" r="4.3"/>
		<circle class="st0" cx="175" cy="89.5" r="4.3"/>
	</g>
</g>
</svg>
