<?xml version="1.0" encoding="utf-8"?>
<!-- Generator: Adobe Illustrator 26.3.1, SVG Export Plug-In . SVG Version: 6.00 Build 0)  -->
<svg version="1.1" id="content" xmlns="http://www.w3.org/2000/svg" xmlns:xlink="http://www.w3.org/1999/xlink" x="0px" y="0px"
	 viewBox="0 0 190 10" style="enable-background:new 0 0 190 10;" xml:space="preserve">
<style type="text/css">
	.st0{fill:#C2DBFF;}
</style>
<path class="st0" d="M187.1,9.8c-4.8,0-7.3-1.7-9.5-3.2c-2-1.3-3.7-2.5-7.3-2.5s-5.3,1.2-7.3,2.5c-2.2,1.5-4.7,3.2-9.5,3.2
	c-4.8,0-7.3-1.7-9.5-3.2c-2-1.3-3.7-2.5-7.2-2.5s-5.3,1.2-7.2,2.5c-2.2,1.5-4.7,3.2-9.5,3.2c-4.8,0-7.3-1.7-9.5-3.2
	c-2-1.3-3.7-2.5-7.2-2.5c-3.6,0-5.3,1.2-7.2,2.5c-2.2,1.5-4.7,3.2-9.5,3.2s-7.3-1.7-9.5-3.2c-2-1.3-3.7-2.5-7.2-2.5
	s-5.3,1.2-7.2,2.5c-2.2,1.5-4.7,3.2-9.5,3.2c-4.8,0-7.3-1.7-9.5-3.2c-2-1.3-3.7-2.5-7.2-2.5c-3.6,0-5.3,1.2-7.2,2.5
	c-2.2,1.5-4.7,3.2-9.5,3.2c-4.8,0-7.3-1.7-9.5-3.2c-2-1.3-3.7-2.5-7.2-2.5c-1.1,0-2-0.9-2-2s0.9-2,2-2c4.8,0,7.3,1.7,9.5,3.2
	c2,1.3,3.7,2.5,7.2,2.5c3.6,0,5.3-1.2,7.2-2.5c2.2-1.5,4.7-3.2,9.5-3.2c4.8,0,7.3,1.7,9.5,3.2c2,1.3,3.7,2.5,7.2,2.5
	c3.6,0,5.3-1.2,7.2-2.5c2.2-1.5,4.7-3.2,9.5-3.2s7.3,1.7,9.5,3.2c2,1.3,3.7,2.5,7.2,2.5s5.3-1.2,7.2-2.5c2.2-1.5,4.7-3.2,9.5-3.2
	c4.8,0,7.3,1.7,9.5,3.2c2,1.3,3.7,2.5,7.2,2.5c3.6,0,5.3-1.2,7.2-2.5c2.2-1.5,4.7-3.2,9.5-3.2s7.3,1.7,9.5,3.2
	c2,1.3,3.7,2.5,7.2,2.5c3.6,0,5.3-1.2,7.3-2.5c2.2-1.5,4.7-3.2,9.5-3.2s7.3,1.7,9.5,3.2c2,1.3,3.7,2.5,7.3,2.5c1.1,0,2,0.9,2,2
	S188.2,9.8,187.1,9.8z"/>
</svg>
