<?xml version="1.0" encoding="utf-8"?>
<!-- Generator: Adobe Illustrator 26.3.1, SVG Export Plug-In . SVG Version: 6.00 Build 0)  -->
<svg version="1.1" id="圖層_1" xmlns="http://www.w3.org/2000/svg" xmlns:xlink="http://www.w3.org/1999/xlink" x="0px" y="0px"
	 viewBox="0 0 150 130" style="enable-background:new 0 0 150 130;" xml:space="preserve">
<style type="text/css">
	.st0{opacity:0.1;fill:#00ADEE;}
	.st1{opacity:0.1;}
	.st2{fill:#009FE8;}
	.st3{opacity:0.2;fill:#222D3A;}
	.st4{fill:#FFFFFF;}
</style>
<g>
	<path class="st0" d="M36.6,60.5c14.8,0,26.8,12,26.8,26.8c0,14.8-12,26.8-26.8,26.8c-14.8,0-26.8-12-26.8-26.8
		C9.8,72.5,21.8,60.5,36.6,60.5 M36.6,54.5c-18.1,0-32.8,14.7-32.8,32.8s14.7,32.8,32.8,32.8s32.8-14.7,32.8-32.8
		S54.7,54.5,36.6,54.5L36.6,54.5z"/>
	<g class="st1">
		<circle class="st2" cx="124.1" cy="34.9" r="16.1"/>
	</g>
	<g>
		<path class="st3" d="M82.8,113.1c-25.5,6.3-51.4-9.4-57.6-34.9c-6.3-25.5,9.4-51.4,34.9-57.6s51.4,9.4,57.6,34.9
			C124,81,108.3,106.9,82.8,113.1z"/>
		<path class="st4" d="M85,109.4c-25.5,6.3-51.4-9.4-57.6-34.9C21.1,49,36.8,23.1,62.3,16.9s51.4,9.4,57.6,34.9
			C126.2,77.3,110.5,103.2,85,109.4z"/>
		<g>
			<g>
				<g>
					<path class="st2" d="M82.8,100.6c-20.6,5.1-41.5-7.6-46.6-28.2c-5.1-20.6,7.6-41.5,28.2-46.6c20.6-5.1,41.5,7.6,46.6,28.2
						C116.1,74.6,103.5,95.5,82.8,100.6z M65.1,28.1c-19.3,4.7-31.2,24.3-26.5,43.7c4.7,19.3,24.3,31.2,43.7,26.5
						c19.3-4.7,31.2-24.3,26.5-43.7C104,35.2,84.4,23.3,65.1,28.1z"/>
				</g>
				<g>
					<path class="st2" d="M86,38.3c-1.2,0.3-2.5,0.5-3.8,0.5L72,39c-1.4,0-2.7-0.7-3.4-1.8c-0.8-1.2-0.9-2.6-0.3-3.9
						c0.4-0.7,0.9-1.4,1.7-1.8l10.5-5.9c0.6-0.3,1.3-0.1,1.6,0.5c0.3,0.6,12.2,5.5,12.2,5.5c0.6-0.3,1.3-0.1,1.6,0.4
						c0.3,0.6,0.1,1.3-0.4,1.6l-4.9,2.9C89.2,37.3,87.7,37.9,86,38.3z"/>
				</g>
				<g>
					<path class="st2" d="M107.7,80.2c-0.4,0.1-0.8,0-1.2-0.3c-5.5-5.8-10.1-12.3-13.8-19.3l-0.1-0.2c-0.9-1.7-2.9-2.6-4.7-2.1
						c-3.9,1-8.1,0.2-11.4-2l-2.4-1.6c-1.2-0.8-2.1-2-2.6-3.4l-0.4-1.2c-0.6-1.7-0.4-3.7,0.5-5.3c1.6-2.8,5.2-4.1,8.2-2.9l6.3,2.5
						c0.6,0.2,1.3,0.3,1.9,0.3l3.7-0.3c1.5-0.1,2.8-1,3.5-2.4l3-6.3c0.3-0.6,1-0.8,1.6-0.6c0.6,0.3,0.8,1,0.6,1.6
						c0,0,9.6,12.4,11,22.4c1.3,9.5-2.9,14.4-3.1,19.2c0,0.7,0.4,1.2,0,1.7C108.1,80,107.9,80.1,107.7,80.2z"/>
				</g>
				<g>
					<path class="st2" d="M46.9,66.5c-0.9,0.2-1.8,0.1-2.6-0.2l-8.4-3.8c-0.6-0.3-0.9-1-0.6-1.6c0.1-0.3,2.6-8.9,6.3-15.9
						c3.7-7,8.7-12.3,8.9-12.6c0.4-0.5,1.2-0.5,1.7-0.1l3,2.7c0.3,0.2,0.6,0.4,1,0.4l3.5,0.2c1.2,0.1,2.2,0.6,3,1.5
						c0.7,0.9,1,2.1,0.7,3.2l-1.5,6.7c-0.2,0.9-0.7,1.6-1.3,2.2l-6.7,5.6c-0.5,0.4-1,0.7-1.6,0.8l-3.5,0.9c-0.6,0.1-1,0.6-1.1,1.1
						c-0.2,0.6,0,1.1,0.4,1.5l0.7,0.7c0.9,0.9,1.3,2.2,1.1,3.5c-0.2,1.3-1.1,2.4-2.3,2.9C47.4,66.3,47.1,66.4,46.9,66.5z"/>
				</g>
				<path class="st2" d="M67.7,93.7c-1.3,0.3-2.7,0.1-3.8-0.6l-0.7-0.4c-1.1-0.7-1.9-1.7-2.2-2.9l-2.9-10c-0.4-1.2-1.6-2-2.8-1.9
					L54.4,78c-2,0.2-3.9-0.8-4.9-2.5l-0.8-1.4c-0.9-1.5-0.9-3.3-0.1-4.9l0,0l1.1-2.2c0.7-1.3,1.8-2.2,3.2-2.6c1.3-0.3,2.9-0.1,4,0.7
					c0.6,0.4,1.4,0.5,2.1,0.4l4.1-1c1.8-0.4,3.7,0.2,5,1.6l1.5,1.7c0.4,0.4,1,0.6,1.5,0.5c1.3-0.3,2.7,0.1,3.7,1
					c1,1,1.4,2.4,1.1,3.7l-3.6,14.8c-0.1,0.3-0.2,0.6-0.3,0.9l-1,2.2c-0.6,1.3-1.7,2.3-3.1,2.7C67.9,93.7,67.8,93.7,67.7,93.7z"/>
			</g>
		</g>
	</g>
</g>
</svg>
