<?xml version="1.0" encoding="utf-8"?>
<!-- Generator: Adobe Illustrator 26.3.1, SVG Export Plug-In . SVG Version: 6.00 Build 0)  -->
<svg version="1.1" id="圖層_1" xmlns="http://www.w3.org/2000/svg" xmlns:xlink="http://www.w3.org/1999/xlink" x="0px" y="0px"
	 viewBox="0 0 30 26" style="enable-background:new 0 0 30 26;" xml:space="preserve">
<style type="text/css">
	.st0{fill:#FFD400;}
</style>
<path class="st0" d="M30,9.7C29.8,9.1,28.9,9,26.9,9l-0.6,0c-1.4-0.1-2.8-0.1-3.9-0.1l-1.7,0c-0.4,0-0.9,0-1.3,0c-0.9-1.1-2-3-3-4.7
	c-1.9-3.2-2.4-4-3-4c-0.2,0-0.5,0.1-0.6,0.5c-0.4,1.2-0.5,2.7-0.6,4.2c-0.1,1.3-0.2,2.6-0.5,3.9C10.4,8.9,8.9,9,7.4,9
	C5.1,9.2,2.8,9.3,0.7,9.7c0,0-0.1,0-0.1,0C0.1,10,0,10.4,0,10.6c0,1.1,2.4,2.5,9.1,5.4c0.4,0.2,0.9,0.4,1.1,0.5
	c0,0.9-0.2,1.9-0.4,2.8c-0.1,0.5-0.2,1-0.3,1.4c-0.1,0.9-0.2,2-0.4,2.9C9,24.4,8.9,24.9,9,25.3c0.1,0.3,0.4,0.5,0.7,0.5c0,0,0,0,0,0
	c1,0,3.1-1.6,7.4-5.6c0.2-0.2,0.3-0.3,0.4-0.4c0.5,0.2,1.6,0.8,2.5,1.4c2.1,1.3,4.5,2.7,5.9,2.7c0.1,0,0.2,0,0.4,0
	c0.1,0,0.5-0.1,0.7-0.5c0.2-0.4,0-0.8-0.3-1.4c-0.1-0.2-0.2-0.3-0.3-0.6c-0.5-0.9-1-1.8-1.5-2.7c-0.6-1.1-1.3-2.3-1.9-3.6
	c1.3-1.4,3.2-2.5,5-3.6c0.5-0.3,0.9-0.5,1.4-0.8C30,10.3,30,10,30,9.7z M19.3,18.3c0.3-0.5,1-1.1,2.1-1.8c0.4,0.5,1.1,1.9,2.3,4.1
	C21.6,19.8,19.8,18.7,19.3,18.3z M24.8,11.1c-0.5,0.3-1.1,0.6-1.6,1c-0.4,0.3-0.9,0.5-1.3,0.8c-0.3-0.5-0.7-1.2-0.9-1.6
	c0.3,0,0.5,0,0.9,0c0.8,0,1.8-0.1,2.7-0.1C24.6,11.1,24.7,11.1,24.8,11.1z M14.4,4.6c1.1,1.6,1.9,3,2.5,4.1l-2.9,0
	c0.1-0.8,0.2-1.7,0.3-2.6C14.3,5.7,14.3,5.1,14.4,4.6z M20.3,14.4l-0.2,0.2c-1,0.9-2.8,2.3-3.1,2.4c-0.2-0.1-1.9-0.7-4.1-1.8
	c0.1-1.1,0.3-2.7,0.6-4.1c0.6,0,1.4-0.1,2.1-0.1c1.3,0,2.3,0.1,3,0.3c0.2,0.4,0.4,0.8,0.7,1.2C19.6,13,20,13.7,20.3,14.4z
	 M12.2,17.5c0.6,0.1,1.9,0.6,3,1.2c-0.7,0.7-1.8,1.8-3.9,3.5C11.5,20.4,11.8,18.7,12.2,17.5z M9.2,11.2c0.7,0,1.3,0,1.9-0.1
	c-0.1,0.5-0.4,2.4-0.5,2.8c-0.3-0.1-0.6-0.2-0.9-0.3c-1.6-0.6-3.4-1.3-5-2.2C6.1,11.3,7.7,11.3,9.2,11.2z"/>
</svg>
