<?xml version="1.0" encoding="utf-8"?>
<!-- Generator: Adobe Illustrator 26.3.1, SVG Export Plug-In . SVG Version: 6.00 Build 0)  -->
<svg version="1.1" id="圖層_1" xmlns="http://www.w3.org/2000/svg" xmlns:xlink="http://www.w3.org/1999/xlink" x="0px" y="0px"
	 viewBox="0 0 40 40" style="enable-background:new 0 0 40 40;" xml:space="preserve">
<style type="text/css">
	.st0{fill:#FFFFFF;}
	.st1{fill:#B91C0D;}
</style>
<g>
	<circle class="st0" cx="20" cy="20" r="20"/>
	<path class="st1" d="M21.4,20l7.3-7.3c0.4-0.4,0.4-1,0-1.4s-1-0.4-1.4,0L20,18.6l-7.3-7.3c-0.4-0.4-1-0.4-1.4,0s-0.4,1,0,1.4
		l7.3,7.3l-7.3,7.3c-0.4,0.4-0.4,1,0,1.4c0.2,0.2,0.5,0.3,0.7,0.3s0.5-0.1,0.7-0.3l7.3-7.3l7.3,7.3c0.2,0.2,0.5,0.3,0.7,0.3
		s0.5-0.1,0.7-0.3c0.4-0.4,0.4-1,0-1.4L21.4,20z"/>
</g>
</svg>
