<?xml version="1.0" encoding="utf-8"?>
<!-- Generator: Adobe Illustrator 26.3.1, SVG Export Plug-In . SVG Version: 6.00 Build 0)  -->
<svg version="1.1" id="圖層_1" xmlns="http://www.w3.org/2000/svg" xmlns:xlink="http://www.w3.org/1999/xlink" x="0px" y="0px"
	 viewBox="0 0 150 130" style="enable-background:new 0 0 150 130;" xml:space="preserve">
<style type="text/css">
	.st0{opacity:0.1;fill:#0066B2;}
	.st1{opacity:0.1;}
	.st2{fill:#005BAC;}
	.st3{opacity:0.2;fill:#222D3A;}
	.st4{fill:#FFFFFF;}
</style>
<g>
	<path class="st0" d="M108.6,63.1c0.2,0,0.4,0,0.6,0.1l30.1,14.3c0.7,0.3,1,1.2,0.7,1.9l-14.3,30.1c-0.2,0.5-0.8,0.8-1.3,0.8
		c-0.2,0-0.4,0-0.6-0.1L93.7,95.9c-0.7-0.3-1-1.2-0.7-1.9l14.3-30.1C107.6,63.4,108.1,63.1,108.6,63.1 M108.6,57.1
		C108.6,57.1,108.6,57.1,108.6,57.1c-2.8,0-5.5,1.7-6.7,4.2L87.6,91.4c-0.9,1.8-1,3.8-0.3,5.7c0.7,1.9,2,3.4,3.8,4.2l30.1,14.3
		c1,0.5,2.1,0.7,3.2,0.7c2.8,0,5.5-1.7,6.7-4.2L145.4,82c1.8-3.7,0.2-8.1-3.5-9.9l-30.1-14.3C110.8,57.4,109.7,57.1,108.6,57.1
		L108.6,57.1z"/>
	<g class="st1">
		<path class="st2" d="M20.7,41.6L10.1,26c-0.4-0.6-0.3-1.5,0.4-2l15.6-10.6c0.6-0.4,1.5-0.3,2,0.4l10.6,15.6c0.4,0.6,0.3,1.5-0.4,2
			L22.6,42C22,42.4,21.1,42.3,20.7,41.6z"/>
	</g>
	<g>
		<path class="st3" d="M84.5,127.6c-5,0.7-10-2-12-6.7c-0.1-0.2-0.2-0.4-0.3-0.7c-0.3-0.2-0.6-0.5-0.9-0.7c-2.3-2.1-3.6-4.4-4.5-6.1
			c-0.3-0.5-0.6-1.1-0.8-1.4c-0.5-0.7-1.8-1.7-2.5-2.2c-0.3-0.2-1.2-0.6-2.1-0.9c-1.6-0.6-3.9-1.4-6.2-2.9c-2.2-1.5-4-3.3-5.5-4.9
			c-0.9-0.9-1.9-2-2.5-2.4c-0.6-0.4-1.8-1.2-2.9-2.5c-3.7-4.3-3.9-10.6-0.5-16.1c0.2-0.3,0.4-0.7,0.7-1l-1.6-4.6
			c-0.4-1.1-1.5-4.4,0-8.1c0.2-0.4,0.4-0.8,0.6-1.2c-0.1-2.7,0.7-5,2.3-6.9c0.2-0.2,0.4-0.4,0.5-0.6c0.1-1.7,0.6-3.3,1.4-4.8
			c0.1-0.9,0.4-1.8,0.7-2.6c-0.1-1.3-0.1-3.4,0.6-5.7c0.9-2.9,2.7-4.8,3.7-6c0,0,5.3-5.8,5.3-5.9c0-0.3,0.1-0.6,0.2-0.8
			c1-4.8,3.6-8.4,5.5-11c0.9-1.2,2.2-3.1,4.5-4.6c0.9-0.6,1.8-1,2.5-1.4c0.4-1.8,1.1-4.1,3-6.1c1.9-2.1,4.3-3.3,7.1-3.7
			c3.7-0.5,7.6,0.7,10.7,3.2c0.2,0,0.4-0.1,0.6-0.1C92.6,8.1,93.3,8,94,8c0.5-0.3,1-0.6,1.6-0.8c0.9-0.4,1.9-0.7,2.9-0.8
			c4.2-0.6,8.3,1.2,10.6,4.5c2.7,1,5,3,6.3,5.4c1.5,2.9,1.6,6.3,0.2,9.3c-0.5,1.1-1.2,2.1-2.1,3c-1.6,1.7-3.4,2.8-4.8,3.6
			c1.1,2,2.3,4.8,2.2,8.3c-0.1,1.6-0.4,2.8-0.6,3.7c0,0-0.3,1.1-0.4,1.5c0.8,2.4,0.7,4.9-0.3,7.3c0,0.1,0.1,0.2,0.1,0.2
			c0.3,0.9,0.6,2,0.9,3.3c1,5.4-0.5,11.4-4.1,16.7c-0.4,0.6-0.5,1.3-0.5,2c0.1,1.4,0.1,2.5,0,3.5c0,0.3,0,0.7,0,1
			c2.5,6.6,0.6,13.7-4.8,17c-0.4,0.2-0.8,0.4-1.1,0.6c-0.3,0.9-0.8,1.9-1.6,2.9c-1.5,2-3.2,3.1-4.5,3.8c0.3,1.2,0.8,3.1,0.8,5.2
			c0.8,2.3,0.7,4.9-0.4,7.1c0,0,0,0,0,0c-0.2,5.2-4,9.8-9,11C85.1,127.5,84.7,127.5,84.5,127.6C84.5,127.6,84.5,127.6,84.5,127.6z"
			/>
		<path class="st4" d="M81,125c-5,0.7-10-2-12-6.7c-0.1-0.2-0.2-0.4-0.3-0.7c-0.3-0.2-0.6-0.5-0.9-0.7c-2.3-2.1-3.6-4.4-4.5-6.1
			c-0.3-0.5-0.6-1.1-0.8-1.4c-0.5-0.7-1.8-1.7-2.5-2.2c-0.3-0.2-1.2-0.6-2.1-0.9c-1.6-0.6-3.9-1.4-6.2-2.9c-2.2-1.5-4-3.3-5.5-4.9
			c-0.9-0.9-1.9-2-2.5-2.4c-0.6-0.4-1.8-1.2-2.9-2.5c-3.7-4.3-3.9-10.6-0.5-16.1c0.2-0.3,0.4-0.7,0.7-1l-1.6-4.6
			c-0.4-1.1-1.5-4.4,0-8.1c0.2-0.4,0.4-0.8,0.6-1.2c-0.1-2.7,0.7-5,2.3-6.9c0.2-0.2,0.4-0.4,0.5-0.6c0.1-1.7,0.6-3.3,1.4-4.8
			c0.1-0.9,0.4-1.8,0.7-2.6c-0.1-1.3-0.1-3.4,0.6-5.7c0.9-2.9,2.7-4.8,3.7-6c0,0,5.3-5.8,5.3-5.9c0-0.3,0.1-0.6,0.2-0.8
			c1-4.8,3.6-8.4,5.5-11c0.9-1.2,2.2-3.1,4.5-4.6c0.9-0.6,1.8-1,2.5-1.4c0.4-1.8,1.1-4.1,3-6.1c1.9-2.1,4.3-3.3,7.1-3.7
			c3.7-0.5,7.6,0.7,10.7,3.2c0.2,0,0.4-0.1,0.6-0.1c0.7-0.1,1.4-0.2,2.1-0.2c0.5-0.3,1-0.6,1.6-0.8C93,4.2,94,3.9,95,3.8
			c4.2-0.6,8.3,1.2,10.6,4.5c2.7,1,5,3,6.3,5.4c1.5,2.9,1.6,6.3,0.2,9.3c-0.5,1.1-1.2,2.1-2.1,3c-1.6,1.7-3.4,2.8-4.8,3.6
			c1.1,2,2.3,4.8,2.2,8.3c-0.1,1.6-0.4,2.8-0.6,3.7c0,0-0.3,1.1-0.4,1.5c0.8,2.4,0.7,4.9-0.3,7.3c0,0.1,0.1,0.2,0.1,0.2
			c0.3,0.9,0.6,2,0.9,3.3c1,5.4-0.5,11.4-4.1,16.7c-0.4,0.6-0.5,1.3-0.5,2c0.1,1.4,0.1,2.5,0,3.5c0,0.3,0,0.7,0,1
			c2.5,6.6,0.6,13.7-4.8,17c-0.4,0.2-0.8,0.4-1.1,0.6c-0.3,0.9-0.8,1.9-1.6,2.9c-1.5,2-3.2,3.1-4.5,3.8c0.3,1.2,0.8,3.1,0.8,5.2
			c0.8,2.3,0.7,4.9-0.4,7.1c0,0,0,0,0,0c-0.2,5.2-4,9.8-9,11C81.7,124.9,81.3,124.9,81,125C81,125,81,125,81,125z"/>
		<path class="st2" d="M48.7,88.5c2.8,1.8,5.2,5.4,8,7.3c2.9,1.9,6,2,8.7,4.1c1.7,1.2,3.3,2.6,4.5,4.3c1.4,2,2.2,4.4,3.9,6
			c1,0.9,2.4,1.6,3,2.9c0.2,0.5,0.3,1.1,0.5,1.6c0.4,1,1.5,1.5,2.6,1.3c1-0.2,1.8-1.2,1.8-2.3c0-0.8-0.3-1.5-0.3-2.2
			c0-0.8,0.5-1.6,1.2-1.5l-1.1-1.4c1.3-1.7,0.1-4.1-0.4-6.2c-0.7-3.1,0.9-6.6,3.6-8.2c1-0.6,2.1-0.9,2.8-1.8c1-1.3,0.7-3.3,1.8-4.4
			c0.9-0.9,2.4-0.8,3.4-1.4c1.9-1.2,1.8-4.1,1-6.2c-0.9-2.2-0.3-4.4-0.5-6.8c-0.2-2.8,0.5-5.6,2-7.9c2-2.9,3.3-6.5,2.7-10
			c-0.3-1.6-1-3.1-1.2-4.8c-0.2-1.3,0-2.8,0.8-3.8c0.3-0.4,0.3-0.9,0-1.2c-0.8-1.1-0.5-3.1-0.2-4.5c0.1-0.5,0.2-0.9,0.3-1.4
			c0.2-0.7,0.4-1.5,0.4-2.2c0.1-3.5-3.6-6.1-3.4-9.6c0.1-2.1,1.7-3.7,3.4-4.8c1.8-1.2,3.8-2,5.3-3.5c0.1-0.1,0.3-0.3,0.3-0.5
			c0.6-1.3-0.9-2.3-2.1-2.5c-1.1-0.2-2.5-0.3-3-1.4c-0.2-0.5-0.2-1.1-0.4-1.6c-0.4-0.9-1.6-1.1-2.5-0.7c-0.9,0.4-1.5,1.2-2.1,1.9
			l-0.4,0.4c-2.4-2-6.2,0.8-8.9-0.6c-0.8-0.4-1.4-1.1-2-1.7c-1.5-1.4-4-2.2-5.4-0.7c-1.4,1.5-0.6,4.2-1.8,6
			c-1.2,1.8-3.7,1.8-5.4,2.9c-0.9,0.6-1.5,1.5-2.2,2.4c-1.7,2.3-3.4,4.7-4,7.5c-0.2,0.9-0.3,1.8-0.6,2.6c-0.4,1-1.1,1.7-1.8,2.5
			c-1.7,1.9-3.5,3.9-5.2,5.8c-0.7,0.8-1.4,1.6-1.8,2.7C53.8,46,54,47.3,54,48.6c0,0.9-0.2,1.9-0.7,2.6c-0.3,0.4-0.1,1,0.3,1.2
			c0,0.9-0.8,1.4-1.4,2c-0.5,0.6-0.6,2,0.2,2c-1.3,0.5-0.3,2.9-1.4,3.9c-0.5,0.5-1.4,0.5-1.9,1c-0.8,1,0.6,2.7,0.1,3.9
			c-0.3,0.7-1.2,1.1-1.5,1.8c-0.2,0.6,0,1.2,0.2,1.8c0.6,1.8,1.2,3.6,1.8,5.4c0.3,0.9,0.6,1.9,0.6,2.8c0,1.9-1.4,3.5-2.4,5.2
			c-1,1.6-1.6,3.9-0.4,5.4C48,88,48.3,88.2,48.7,88.5L48.7,88.5z"/>
	</g>
</g>
</svg>
