<?xml version="1.0" encoding="utf-8"?>
<!-- Generator: Adobe Illustrator 26.3.1, SVG Export Plug-In . SVG Version: 6.00 Build 0)  -->
<svg version="1.1" id="圖層_1" xmlns="http://www.w3.org/2000/svg" xmlns:xlink="http://www.w3.org/1999/xlink" x="0px" y="0px"
	 viewBox="0 0 34 26" style="enable-background:new 0 0 34 26;" xml:space="preserve">
<style type="text/css">
	.st0{fill:#FFFFFF;}
</style>
<path class="st0" d="M33.9,13.4c0.1-0.2,0.1-0.5,0-0.7c0,0,0-0.1-0.1-0.1c0-0.1,0-0.1-0.1-0.2l-10-12c-0.4-0.4-1-0.5-1.4-0.1
	c-0.4,0.4-0.5,1-0.1,1.4L30.9,12H1c-0.6,0-1,0.4-1,1c0,0.6,0.4,1,1,1h29.9l-8.6,10.4c-0.4,0.4-0.3,1.1,0.1,1.4
	c0.2,0.2,0.4,0.2,0.6,0.2c0.3,0,0.6-0.1,0.8-0.4l10-12c0,0,0.1-0.1,0.1-0.2C33.9,13.4,33.9,13.4,33.9,13.4z"/>
</svg>
