<?xml version="1.0" encoding="utf-8"?>
<!-- Generator: Adobe Illustrator 26.3.1, SVG Export Plug-In . SVG Version: 6.00 Build 0)  -->
<svg version="1.1" id="圖層_1" xmlns="http://www.w3.org/2000/svg" xmlns:xlink="http://www.w3.org/1999/xlink" x="0px" y="0px"
	 viewBox="0 0 150 130" style="enable-background:new 0 0 150 130;" xml:space="preserve">
<style type="text/css">
	.st0{opacity:0.1;fill:#C3212D;}
	.st1{opacity:0.1;}
	.st2{fill:#C61026;}
	.st3{opacity:0.2;fill:#222D3A;}
	.st4{fill:#FFFFFF;}
</style>
<g>
	<path class="st0" d="M115.5,8.5c0.3,0,0.7,0.1,1,0.4l30.8,29.9c0.8,0.8,0.5,2.1-0.6,2.4l-41.3,11.8c-0.1,0-0.3,0.1-0.4,0.1
		c-0.9,0-1.6-0.8-1.4-1.8l10.4-41.7C114.3,8.9,114.9,8.5,115.5,8.5 M115.5,2.5c-3.4,0-6.4,2.3-7.2,5.6L97.9,49.7
		c-0.6,2.2-0.1,4.6,1.3,6.4c1.4,1.8,3.5,2.9,5.8,2.9c0.7,0,1.4-0.1,2-0.3l41.3-11.8c2.5-0.7,4.5-2.8,5.2-5.3c0.6-2.6-0.1-5.3-2-7.1
		L120.7,4.6C119.3,3.2,117.4,2.5,115.5,2.5L115.5,2.5z"/>
	<g class="st1">
		<path class="st2" d="M27.9,53.3L11.7,35.9c-0.7-0.8-2.1-0.5-2.4,0.5l-7,22.8c-0.3,1,0.6,2,1.7,1.8l23.2-5.3
			C28.2,55.4,28.6,54.1,27.9,53.3z"/>
	</g>
	<g>
		<path class="st3" d="M116.4,121.4c-1.1-0.2-2.1-0.5-3-1c-4.1-0.9-19.1-3.7-41.8-7.7c-22.7-4-37.7-6.6-41.9-7.1
			c-1,0.1-2.1,0.1-3.2-0.1c-3.6-0.6-6.6-3-8.1-6.3c-1.2-2.7-1.3-5.7-0.3-8.4c1-2.7,3.1-4.9,5.8-6.1c0.1-0.1,15.1-7.1,27.7-20.4
			C48.9,58,48,51,49.2,44.3c3.3-18.5,21-30.9,39.5-27.6s30.9,21,27.6,39.5c-1.2,6.8-4.5,13-9.2,17.9c7.2,16.8,18.9,28.6,19,28.7
			c4.3,4.2,4.4,11.2,0.1,15.5C123.6,120.8,120,122,116.4,121.4z"/>
		<path class="st4" d="M113.9,117.8c-1.1-0.2-2.1-0.5-3-1c-4.1-0.9-19.1-3.7-41.8-7.7c-22.7-4-37.7-6.6-41.9-7.1
			c-1,0.1-2.1,0.1-3.2-0.1c-3.6-0.6-6.6-3-8.1-6.3c-1.2-2.7-1.3-5.7-0.3-8.4c1-2.7,3.1-4.9,5.8-6.1C21.6,81,36.6,74,49.2,60.7
			c-2.8-6.2-3.7-13.2-2.5-19.9c3.3-18.5,21-30.9,39.5-27.6s30.9,21,27.6,39.5c-1.2,6.8-4.5,13-9.2,17.9c7.2,16.8,18.9,28.6,19,28.7
			c4.3,4.2,4.4,11.2,0.1,15.5C121.1,117.3,117.5,118.5,113.9,117.8z"/>
		<g>
			<circle class="st2" cx="80.2" cy="46.7" r="24.9"/>
			<path class="st2" d="M117.1,105.7c-0.2-0.2-23.1-23-26.7-52.4c-0.1-0.8-0.7-1.4-1.5-1.6l-18.6-3.3c-0.8-0.1-1.6,0.2-1.9,1
				c-13.5,26.4-42.9,39.9-43.2,40c-0.9,0.4-1.3,1.5-0.9,2.4c0.4,0.9,1.5,1.3,2.4,0.9c1-0.4,87.1,14.9,87.8,15.6
				c0.3,0.3,0.6,0.4,0.9,0.5c0.6,0.1,1.2-0.1,1.6-0.5C117.8,107.6,117.8,106.4,117.1,105.7z"/>
			<path class="st4" d="M95.5,72.6c-2.6-5.9-4.3-12.4-5.1-19.3c-0.1-0.8-0.7-1.4-1.5-1.6l-18.6-3.3c-0.8-0.1-1.6,0.2-1.9,1
				c-3.1,6.1-7.3,11.4-11.4,16.3c-2.7,3.3,1.7,4.1,2.6,2.5l2.5,4.8c0.2,0.5,0.7,0.8,1.2,0.9c0.5,0.1,1,0,1.5-0.3l4.9-3.5l3.9,6.3
				c0.3,0.4,0.7,0.7,1.2,0.8s1,0,1.4-0.4l5.8-4.6l3.4,5c0.3,0.4,0.8,0.7,1.3,0.8c0.5,0.1,1-0.1,1.4-0.5l4-3.6
				C93.5,77.1,97.7,77.6,95.5,72.6z"/>
			<path class="st4" d="M87.3,73.5l-3.3-4.9c-0.3-0.4-0.7-0.7-1.2-0.8c-0.5-0.1-1,0.1-1.4,0.4l-5.7,4.5l-3.8-6.2
				c-0.3-0.4-0.7-0.7-1.2-0.8c-0.5-0.1-1,0-1.4,0.3l-4.8,3.4l-2.2-4.2c3.2-3.9,6.3-8.3,8.8-13L87,55.1c0.8,5.4,2.1,10.5,3.8,15.3
				L87.3,73.5z"/>
		</g>
	</g>
</g>
</svg>
