<?xml version="1.0" encoding="utf-8"?>
<!-- Generator: Adobe Illustrator 26.3.1, SVG Export Plug-In . SVG Version: 6.00 Build 0)  -->
<svg version="1.1" id="圖層_1" xmlns="http://www.w3.org/2000/svg" xmlns:xlink="http://www.w3.org/1999/xlink" x="0px" y="0px"
	 viewBox="0 0 34 26" style="enable-background:new 0 0 34 26;" xml:space="preserve">
<style type="text/css">
	.st0{fill:#FFFFFF;}
</style>
<path class="st0" d="M0.1,13.4c-0.1-0.2-0.1-0.5,0-0.7c0,0,0-0.1,0.1-0.1c0-0.1,0-0.1,0.1-0.2l10-12c0.4-0.4,1-0.5,1.4-0.1
	c0.4,0.4,0.5,1,0.1,1.4L3.1,12H33c0.6,0,1,0.4,1,1c0,0.6-0.4,1-1,1H3.1l8.6,10.4c0.4,0.4,0.3,1.1-0.1,1.4C11.5,25.9,11.2,26,11,26
	c-0.3,0-0.6-0.1-0.8-0.4l-10-12c0,0-0.1-0.1-0.1-0.2C0.1,13.4,0.1,13.4,0.1,13.4z"/>
</svg>
