<?xml version="1.0" encoding="utf-8"?>
<!-- Generator: Adobe Illustrator 26.3.1, SVG Export Plug-In . SVG Version: 6.00 Build 0)  -->
<svg version="1.1" id="分離模式" xmlns="http://www.w3.org/2000/svg" xmlns:xlink="http://www.w3.org/1999/xlink" x="0px"
	 y="0px" viewBox="0 0 298 98" style="enable-background:new 0 0 298 98;" xml:space="preserve">
<style type="text/css">
	.st0{fill:#FFFFFF;}
	.st1{fill:#F3F8EC;}
</style>
<g>
	<path class="st0" d="M289.5,67.1c-7.7-3.2-13-3.2-21.3-3.7c-2.3-0.1-10.6,0.8-12.2-0.2c-1.3-0.9-2.7-3.6-3.8-4.9
		c-5.7-7.5-14.9-9.7-23.9-9.3c-1.6,0-2.3-1.2-3.6-2.1c-9.6-5.6-22-8.4-33.5-8.1c-11.2,0.6-23.5,6.1-31,14.6c-4.5,5.1-5,4.5-12.4,3.2
		c-20.1-4.1-68.9,5.2-51.9,28.7c2.6,3.6,9,6.3,14.7,7c8.9,1.1,18.9,2.6,27.9,2.4c5.6-0.2,11.1-2.2,16.7-1.6
		c22.4,2.1,45,6.9,67.6,3.8c9.5-1.6,18.7-4.1,28-5.4c15.1-2.2,28.6,4.2,42.1-5C300.4,81.5,298.3,70.7,289.5,67.1z"/>
	<path class="st1" d="M92.4,8.9c-1.5-0.3-2.9-0.9-4.3-1.8c-4.2-2.8-7.5-5.4-13-6c-5.4-0.5-10.7,1.3-16.1,1
		c-3.4-0.2-6.9-1.5-10.2-1.4c-3.6,0.1-7.7,1.4-11,2.5c-3.1,1-5.2,3.1-8.2,4.4C24,9.9,17.4,9.8,11.4,10.7c-4.3,0.6-11.3,0.8-10.8,5.9
		c0.7,8.1,16.7,4.7,22.7,4.9c8.9,0.3,17.5,3.4,26.7,4c9.2,0.6,14.9-2.2,23.1-4.4c6.2-1.7,13.5-1.1,19.9-1.5c3.6-0.2,15-0.9,16.6-4.1
		c0.8-1.6-0.5-3.6-2.4-4.4C102.4,8.9,97.2,10,92.4,8.9z"/>
</g>
</svg>
