<?xml version="1.0" encoding="utf-8"?>
<!-- Generator: Adobe Illustrator 26.3.1, SVG Export Plug-In . SVG Version: 6.00 Build 0)  -->
<svg version="1.1" id="圖層_1" xmlns="http://www.w3.org/2000/svg" xmlns:xlink="http://www.w3.org/1999/xlink" x="0px" y="0px"
	 viewBox="0 0 145 175" style="enable-background:new 0 0 145 175;" xml:space="preserve">
<style type="text/css">
	.st0{fill:#FBD4A9;}
	.st1{fill:#F6C291;}
	.st2{fill:#3B6E81;}
	.st3{fill:#58A1BD;}
	.st4{fill:#5392AC;}
	.st5{fill:#A4D2D3;}
	.st6{fill:#F5C8C1;}
	.st7{fill:#CDD7DB;}
	.st8{fill:#FBE6DE;}
	.st9{opacity:0.5;fill:#CFDDE1;enable-background:new    ;}
	.st10{fill:#F9E0D4;}
	.st11{fill:#BECBD0;}
	.st12{opacity:0.5;fill:#C1D3D9;enable-background:new    ;}
	.st13{fill:#CFDDE1;}
	.st14{fill:#E9979A;}
	.st15{fill:#DD8486;}
	.st16{fill:#9CCFD0;}
	.st17{fill:#E69295;}
	.st18{fill:#F8D4CD;}
	.st19{fill:#D6EEF5;}
	.st20{fill:#3D7083;}
	.st21{fill:#FBE8E9;}
	.st22{fill:#F4C3C1;}
	.st23{fill:#FFF5F1;}
	.st24{fill:#316073;}
	.st25{fill:#F8D8D9;}
	.st26{fill:url(#SVGID_1_);}
	.st27{fill:#EDB128;}
	.st28{fill:#407589;}
	.st29{fill:#4E8CA5;}
	.st30{fill:#5293AC;}
	.st31{fill:url(#SVGID_00000172436470149593591600000015501378058191873718_);}
	.st32{fill:#FAD5AF;}
	.st33{fill:#396473;}
	.st34{fill:url(#SVGID_00000057864882201667111410000006453704279524107680_);}
	.st35{fill:url(#SVGID_00000057106715630586778380000014893266722319531189_);}
	.st36{fill:url(#SVGID_00000109030901747357197820000004581204464892102300_);}
	.st37{fill:url(#SVGID_00000032608155030497780910000008018736376190846111_);}
	.st38{fill:url(#SVGID_00000097477802155838234460000016091720574318653357_);}
	.st39{fill:#59A1BD;}
	.st40{fill:#3B6C7F;}
	.st41{fill:none;}
</style>
<g>
	<circle class="st0" cx="72.5" cy="102.4" r="72.6"/>
	<path class="st1" d="M18.3,54.2C6.9,67-0.1,83.9-0.1,102.4c0,40.1,32.5,72.6,72.6,72.6s72.6-32.5,72.6-72.6c0-2-0.1-4-0.2-6
		c-13.2,1.6-24.6,6.4-42.8,0.2c-23.2-7.9-39-33.2-66.7-40.1C30.3,55.2,24.6,54.2,18.3,54.2z"/>
	<g>
		<path class="st2" d="M1,114.8c1.7,9.7,5.3,18.8,10.4,26.8c1.1-16.6,2.3-32.9,2.6-35C10.8,106.2,5.2,109,1,114.8z"/>
		<path class="st3" d="M1.8,118.7c2.3,9.8,6.5,19,12.3,26.8v-38.8C14.1,106.7,6.1,110.2,1.8,118.7z"/>
		<path class="st4" d="M5.7,113c0,2.6-0.1,9.4-0.1,17.6c1.1,2.6,2.3,5.1,3.7,7.6v-28.5C9.3,109.7,7.5,111,5.7,113z"/>
		<path class="st5" d="M6.8,133.4c0.4,0.9,0.9,1.8,1.3,2.7v-25.5c0,0-0.5,0.4-1.3,1.2C6.9,114.7,6.9,123.3,6.8,133.4z"/>
		<rect x="11.5" y="117.9" class="st6" width="1.1" height="8.8"/>
	</g>
	<g>
		<path class="st7" d="M143,119.9h-2.6v8.3C141.4,125.5,142.3,122.7,143,119.9z"/>
		<path class="st8" d="M143,119.9h-1.2v4.3C142.3,122.7,142.6,121.3,143,119.9z"/>
	</g>
	<g>
		<path class="st7" d="M123.4,154.2c4.6-4.4,8.5-9.5,11.7-15v-27.8h-11.7L123.4,154.2L123.4,154.2z"/>
		<path class="st8" d="M136.4,136.9v-25.6h-11.7v41.6C129.3,148.1,133.2,142.8,136.4,136.9z"/>
		<g>
			<rect x="126.7" y="114.1" class="st7" width="1.3" height="32.2"/>
			<path class="st9" d="M131.2,114.1h-1.3v32.2h0.4c0.3-0.4,0.5-0.7,0.8-1.1L131.2,114.1L131.2,114.1z"/>
			<path class="st7" d="M134.4,140.4v-26.3h-1.3v28.3C133.5,141.8,133.9,141.1,134.4,140.4z"/>
		</g>
	</g>
	<g>
		<path class="st10" d="M76.8,174.9c3.4-0.2,6.7-0.7,10-1.3v-52.4h-10V174.9z"/>
		<g>
			<rect x="78.6" y="123.6" class="st11" width="1.1" height="27.4"/>
			<rect x="81.3" y="123.6" class="st12" width="1.1" height="27.4"/>
			<rect x="84" y="123.6" class="st11" width="1.1" height="27.4"/>
		</g>
	</g>
	<g>
		<polygon class="st7" points="106.5,105.1 106.5,102.3 106.5,102.3 106.5,101 107.7,101 107.7,100.2 106.5,100.2 100.6,100.2 
			99.5,100.2 99.5,102.3 97.3,102.3 97.3,105.1 91.2,105.1 91.2,165.9 107.9,165.9 107.9,105.1 		"/>
		<polygon class="st8" points="107.7,105.1 107.7,100.2 100.6,100.2 100.6,102.3 98.5,102.3 98.5,105.1 92.8,105.1 92.8,165.9 
			109.5,165.9 109.5,105.1 		"/>
		<rect x="95.4" y="124.8" class="st7" width="8.3" height="2.2"/>
		<rect x="95.4" y="128.6" class="st9" width="8.3" height="2.2"/>
		<rect x="95.4" y="132.4" class="st9" width="8.3" height="2.2"/>
		<rect x="95.4" y="136.2" class="st7" width="8.3" height="2.2"/>
		<rect x="95.4" y="140" class="st7" width="8.3" height="2.2"/>
		<rect x="92.8" y="107.2" class="st7" width="16.7" height="0.9"/>
		<rect x="95.4" y="109.7" class="st7" width="8.3" height="2.2"/>
		<rect x="95.4" y="113.5" class="st9" width="8.3" height="2.2"/>
		<rect x="95.4" y="117.3" class="st7" width="8.3" height="2.2"/>
		<rect x="95.4" y="121.1" class="st9" width="8.3" height="2.2"/>
	</g>
	<g>
		<path class="st8" d="M61.9,116.1v-2.8h-1.1v-2.2h-7.1v2.2h-1.1v2.8h-3.9V171c5.4,1.9,11.2,3.1,17,3.7v-58.5L61.9,116.1L61.9,116.1
			z"/>
		<rect x="48.6" y="132" class="st9" width="17.2" height="1.3"/>
		<rect x="48.6" y="135.2" class="st7" width="17.2" height="1.3"/>
		<rect x="48.6" y="138.4" class="st7" width="17.2" height="1.3"/>
		<rect x="48.6" y="141.5" class="st9" width="17.2" height="1.3"/>
		<rect x="48.6" y="144.7" class="st9" width="17.2" height="1.3"/>
		<rect x="48.6" y="119.4" class="st9" width="17.2" height="1.3"/>
		<rect x="48.6" y="122.6" class="st7" width="17.2" height="1.3"/>
		<rect x="48.6" y="125.7" class="st9" width="17.2" height="1.3"/>
		<rect x="48.6" y="128.9" class="st7" width="17.2" height="1.3"/>
		<rect x="48.6" y="157.4" class="st9" width="17.2" height="1.3"/>
		<rect x="48.6" y="160.5" class="st7" width="17.2" height="1.3"/>
		<rect x="48.6" y="163.7" class="st13" width="17.2" height="1.3"/>
		<rect x="48.6" y="166.8" class="st13" width="17.2" height="1.3"/>
		<path class="st13" d="M48.6,171c0.3,0.1,0.6,0.2,0.8,0.3h16.3V170H48.6V171z"/>
		<rect x="48.6" y="147.9" class="st7" width="17.2" height="1.3"/>
		<rect x="48.6" y="151" class="st9" width="17.2" height="1.3"/>
		<rect x="48.6" y="154.2" class="st7" width="17.2" height="1.3"/>
		<rect x="53.7" y="111.2" class="st13" width="7.1" height="0.7"/>
	</g>
	<g>
		<path class="st14" d="M44.5,169.4l-5.8-66.4H22.6l-4.2,47.8C25.6,158.8,34.5,165.2,44.5,169.4z"/>
		<path class="st15" d="M37,165.8L34.1,103h-8.6l-2.5,52.6C27.3,159.5,31.9,162.9,37,165.8z"/>
		<path class="st16" d="M34.9,164.5l-2-61.6h-6.1l-1.8,54.2C28,159.9,31.4,162.4,34.9,164.5z"/>
		<polygon class="st17" points="38.7,96.5 38.7,94.4 34.1,94.4 34.1,96.5 26.7,96.5 26.7,94.4 22.6,94.4 22.6,103 26.7,103 
			26.7,102.9 34.1,102.9 34.1,103 38.7,103 42,104.3 42,97.8 		"/>
		<path class="st18" d="M42,104.3l-3.3-1.3l5.8,66.4c1.3,0.5,2.6,1.1,4,1.6L42,104.3z"/>
		<polygon class="st19" points="26.6,106.8 33,106.8 33,105.9 26.6,105.9 		"/>
		<polygon class="st19" points="26.5,110.2 33.1,110.2 33.1,109.4 26.5,109.4 		"/>
		<polygon class="st19" points="26.4,113.6 33.2,113.6 33.1,112.7 26.4,112.7 		"/>
		<polygon class="st19" points="26.2,117 33.3,117 33.3,116.1 26.3,116.1 		"/>
		<polygon class="st19" points="26.2,120.3 33.4,120.3 33.4,119.5 26.2,119.5 		"/>
		<polygon class="st19" points="26.1,123.8 33.6,123.8 33.5,122.9 26.1,122.9 		"/>
		<polygon class="st19" points="25.9,127.1 33.6,127.1 33.6,126.3 25.9,126.3 		"/>
		<polygon class="st19" points="25.8,130.5 33.7,130.5 33.7,129.7 25.8,129.7 		"/>
		<polygon class="st19" points="25.7,133.9 33.9,133.9 33.9,133.1 25.8,133.1 		"/>
		<polygon class="st19" points="25.6,137.3 34,137.3 34,136.5 25.6,136.5 		"/>
		<polygon class="st19" points="25.5,140.7 34.1,140.7 34.1,139.8 25.5,139.8 		"/>
		<polygon class="st19" points="25.4,144.1 34.2,144.1 34.2,143.3 25.4,143.3 		"/>
		<polygon class="st19" points="25.3,147.5 34.3,147.5 34.3,146.6 25.3,146.6 		"/>
		<polygon class="st19" points="25.2,150.9 34.5,150.9 34.4,150 25.2,150 		"/>
		<polygon class="st19" points="25,154.2 34.6,154.2 34.5,153.4 25,153.4 		"/>
		<path class="st19" d="M24.9,157.2c0.1,0.1,0.3,0.2,0.5,0.4h9.3v-0.8H25L24.9,157.2z"/>
		<path class="st19" d="M34.8,160.2h-6.2c0.4,0.3,0.7,0.5,1.1,0.8h5.1V160.2z"/>
		<path class="st19" d="M34.9,163.5h-1.5c0.4,0.3,0.9,0.6,1.3,0.8h0.2V163.5z"/>
	</g>
	<g>
		<path class="st5" d="M43.4,168.9h25.4v-3.1H37C39.1,166.9,41.2,168,43.4,168.9z"/>
		<path class="st20" d="M37,165.8h31.8v-1.6H34.4C35.2,164.7,36.1,165.3,37,165.8z"/>
		<g>
			<path class="st21" d="M60.1,158.7h-26c-0.2,0-0.4,0.2-0.4,0.4v4.8c0.2,0.1,0.4,0.2,0.7,0.4h27.1v-4.1
				C61.5,159.3,60.9,158.7,60.1,158.7z"/>
			<path class="st20" d="M58.6,162.8H57c-0.2,0-0.3-0.1-0.3-0.3v-2.2c0-0.2,0.1-0.3,0.3-0.3h1.6c0.2,0,0.3,0.1,0.3,0.3v2.2
				C58.8,162.7,58.7,162.8,58.6,162.8z"/>
			<path class="st20" d="M55,162.8h-1.6c-0.2,0-0.3-0.1-0.3-0.3v-2.2c0-0.2,0.1-0.3,0.3-0.3H55c0.2,0,0.3,0.1,0.3,0.3v2.2
				C55.3,162.7,55.2,162.8,55,162.8z"/>
			<path class="st20" d="M50.2,162.8h-1.6c-0.2,0-0.3-0.1-0.3-0.3v-2.2c0-0.2,0.1-0.3,0.3-0.3h1.6c0.2,0,0.3,0.1,0.3,0.3v2.2
				C50.5,162.7,50.4,162.8,50.2,162.8z"/>
			<path class="st20" d="M46.7,162.8h-1.6c-0.2,0-0.3-0.1-0.3-0.3v-2.2c0-0.2,0.1-0.3,0.3-0.3h1.6c0.2,0,0.3,0.1,0.3,0.3v2.2
				C47,162.7,46.8,162.8,46.7,162.8z"/>
			<path class="st20" d="M41.9,162.8h-1.6c-0.2,0-0.3-0.1-0.3-0.3v-2.2c0-0.2,0.1-0.3,0.3-0.3h1.6c0.2,0,0.3,0.1,0.3,0.3v2.2
				C42.1,162.7,42,162.8,41.9,162.8z"/>
			<path class="st20" d="M38.4,162.8h-1.6c-0.2,0-0.3-0.1-0.3-0.3v-2.2c0-0.2,0.1-0.3,0.3-0.3h1.6c0.2,0,0.3,0.1,0.3,0.3v2.2
				C38.7,162.7,38.5,162.8,38.4,162.8z"/>
		</g>
	</g>
	<g>
		<path class="st22" d="M127.8,147.6H98.5l-6.7,23.9h2.9c13.2-4.3,24.7-12.2,33.4-22.6L127.8,147.6z"/>
		<polygon class="st22" points="126.8,142.1 99.6,142.1 101.1,139.2 125.7,139.2 		"/>
		<path class="st23" d="M85.9,171.5h8.9c2.8-0.9,5.6-2,8.2-3.2v-17.7H92.2L85.9,171.5z"/>
		<path class="st23" d="M123.3,154.3c1.2-1.2,2.3-2.4,3.5-3.7h-3.5V154.3z"/>
		<path class="st24" d="M117.7,155.4h-8.9c-0.6,0-1.1,0.5-1.1,1.1v9.4c4-2.2,7.7-4.7,11.2-7.6v-1.8
			C118.8,156,118.3,155.4,117.7,155.4z"/>
		<path class="st24" d="M113.1,124.1c0,0-5.1,4.4-9.6,8.2c-3.2,2.6-7.6,5.2-10.4,6.4c-0.5,0.2-0.3,0.8,0.2,0.8h39.8
			c0.5,0,0.7-0.6,0.2-0.8c-2.6-1.3-6.5-3.7-9.8-6.4C118.8,128.5,113.1,124.1,113.1,124.1z"/>
		<path class="st25" d="M128.2,149l-0.4-1.3H98.6l-0.7,2.4h29.4C127.6,149.7,127.9,149.3,128.2,149z"/>
		<path class="st24" d="M132,144c-0.9-0.5-1.9-1.1-3-2H98.2c-3.9,2.9-6.2,3.2-9.7,4.7c-0.6,0.2-0.4,1,0.3,1h40.4
			C130.2,146.5,131.1,145.3,132,144z"/>
		
			<linearGradient id="SVGID_1_" gradientUnits="userSpaceOnUse" x1="113.18" y1="239.047" x2="113.18" y2="232.4129" gradientTransform="matrix(1 0 0 1 0 -86)">
			<stop  offset="0" style="stop-color:#E96467"/>
			<stop  offset="6.161749e-02" style="stop-color:#E96769"/>
			<stop  offset="0.6129" style="stop-color:#EC797C"/>
			<stop  offset="1" style="stop-color:#ED8082"/>
		</linearGradient>
		<rect x="111.1" y="146.4" class="st26" width="4.1" height="6.7"/>
		<path class="st27" d="M116,121.2c0-1.6-1.3-2.8-2.8-2.8c-1.6,0-2.8,1.3-2.8,2.8c0,0.9,0.4,1.7,1.1,2.2l-0.3,2.3h4.1l-0.4-2.3
			C115.6,122.9,116,122.1,116,121.2z"/>
	</g>
	<g>
		<path class="st28" d="M65.6,129.9l-0.2-16.3h-9.5l3.1,16.3l-10.7,40.9c5.5,2,11.3,3.3,17.4,3.8V129.9L65.6,129.9z"/>
		<path class="st29" d="M77.7,129.9l3.8-16.3H65.4l0.2,17.4v43.6h0.1c2.3,0.2,4.6,0.3,6.9,0.3c5.9,0,11.6-0.7,17-2L77.7,129.9z"/>
		<polygon class="st30" points="69.7,29.3 68.6,29.3 68.6,19.4 67.7,19.4 67.7,29.3 66.6,29.3 65.7,35 67.7,35 68.6,35 70.6,35 		
			"/>
		<polygon class="st30" points="72.4,45.7 68.2,45.7 63.9,45.7 57.2,48.8 79.2,48.8 		"/>
		
			<linearGradient id="SVGID_00000109724129455506207810000010656333715817606537_" gradientUnits="userSpaceOnUse" x1="68.18" y1="134.7637" x2="68.18" y2="131.7169" gradientTransform="matrix(1 0 0 1 0 -86)">
			<stop  offset="5.181351e-03" style="stop-color:#2E6A86"/>
			<stop  offset="0.2435" style="stop-color:#2E6A86;stop-opacity:0"/>
		</linearGradient>
		<polygon style="fill:url(#SVGID_00000109724129455506207810000010656333715817606537_);" points="72.4,45.7 68.2,45.7 63.9,45.7 
			57.2,48.8 79.2,48.8 		"/>
		<polygon class="st29" points="64.7,48.6 81.5,48.6 77.8,65.3 65.6,65.3 		"/>
		<g>
			<rect x="64.9" y="53.5" class="st0" width="15.9" height="0.6"/>
			<rect x="64.9" y="59.7" class="st0" width="15.7" height="0.6"/>
		</g>
		<g>
			<rect x="64.9" y="53.5" class="st0" width="15.9" height="0.6"/>
			<rect x="64.9" y="59.7" class="st0" width="15.7" height="0.6"/>
		</g>
		<polygon class="st29" points="65.4,65.3 81.5,65.3 77.8,81.2 65.6,81.2 		"/>
		<polygon class="st29" points="65.4,81.2 81.5,81.2 77.8,97.5 65.6,97.5 		"/>
		<polygon class="st29" points="65.4,97.5 81.5,97.5 77.8,113.7 65.6,113.7 		"/>
		<polygon class="st28" points="63.9,45.7 62.5,35 67.6,35 67.6,45.7 		"/>
		<polygon class="st29" points="67.6,35 73.7,35 72.4,45.7 67.6,45.7 		"/>
		<g>
			<rect x="64.9" y="69.8" class="st0" width="15.9" height="0.6"/>
			<rect x="64.9" y="76.1" class="st0" width="15.7" height="0.6"/>
		</g>
		<g>
			<rect x="64.9" y="85.9" class="st0" width="15.6" height="0.6"/>
			<rect x="64.9" y="92.2" class="st0" width="14.1" height="0.6"/>
		</g>
		<g>
			<rect x="64.9" y="102.2" class="st0" width="15.6" height="0.6"/>
			<rect x="64.9" y="108.4" class="st0" width="14.1" height="0.6"/>
		</g>
		<g>
			<rect x="64.9" y="118.4" class="st0" width="15.5" height="0.6"/>
			<rect x="64.9" y="124.7" class="st0" width="14" height="0.6"/>
		</g>
		<polygon class="st28" points="55.8,65.3 65.4,65.3 65.6,81.2 58.9,81.2 		"/>
		<polygon class="st28" points="55.8,81.2 65.4,81.2 65.6,97.5 58.9,97.5 		"/>
		<polygon class="st28" points="55.8,97.5 65.4,97.5 65.6,113.7 58.9,113.7 		"/>
		<polygon class="st28" points="55.8,48.6 64.7,48.6 65.6,65.3 58.9,65.3 		"/>
		<g>
			<polygon class="st30" points="64.9,53.5 56.8,53.5 56.9,54.2 65,54.2 			"/>
			<polygon class="st30" points="65.3,59.7 57.9,59.7 58,60.4 65.4,60.4 			"/>
		</g>
		<g>
			<polygon class="st30" points="67.6,39.2 63.1,39.2 63.1,39.8 67.6,39.8 			"/>
			<polygon class="st30" points="67.6,42.5 63.5,42.5 63.6,43.1 67.6,43.1 			"/>
		</g>
		<g>
			<polygon class="st32" points="67.6,39.2 73.2,39.2 73.1,39.8 67.6,39.8 			"/>
			<polygon class="st32" points="67.6,42.5 72.8,42.5 72.7,43.1 67.6,43.1 			"/>
		</g>
		<g>
			<polygon class="st30" points="65.4,69.8 56.7,69.8 56.9,70.5 65.4,70.5 			"/>
			<polygon class="st30" points="58,76.1 58.1,76.7 65.5,76.7 65.5,76.1 			"/>
		</g>
		<g>
			<polygon class="st30" points="65.4,85.9 56.7,85.9 56.9,86.6 65.4,86.6 			"/>
			<polygon class="st30" points="58,92.1 58.1,92.8 65.5,92.8 65.5,92.1 			"/>
		</g>
		<g>
			<polygon class="st30" points="65.4,102.2 56.7,102.2 56.9,102.8 65.4,102.8 			"/>
			<polygon class="st30" points="58,108.4 58.1,109.1 65.5,109.1 65.5,108.4 			"/>
		</g>
		<g>
			<polygon class="st30" points="65.4,118.4 56.7,118.4 56.9,119 65.4,119 			"/>
			<polygon class="st30" points="58,124.6 58.1,125.3 65.5,125.3 65.5,124.6 			"/>
		</g>
		<polygon class="st33" points="55.8,48.6 81.5,48.6 81.3,49.6 56.1,49.6 		"/>
		<polygon class="st33" points="62.5,35 73.7,35 73.6,36 62.7,36 		"/>
		<polygon class="st33" points="55.8,65.3 81.5,65.3 81.3,66.2 56.1,66.2 		"/>
		<polygon class="st33" points="55.8,81.2 81.5,81.2 81.3,82.2 56.1,82.2 		"/>
		<polygon class="st33" points="55.8,97.5 81.5,97.5 81.3,98.4 56.1,98.4 		"/>
		<polygon class="st33" points="55.8,113.7 81.5,113.7 81.3,114.7 56.1,114.7 		"/>
		
			<linearGradient id="SVGID_00000018947909422291644900000013196477851733797560_" gradientUnits="userSpaceOnUse" x1="68.66" y1="215.9598" x2="68.66" y2="199.6998" gradientTransform="matrix(1 0 0 1 0 -86)">
			<stop  offset="5.181351e-03" style="stop-color:#2E6A86"/>
			<stop  offset="0.2435" style="stop-color:#2E6A86;stop-opacity:0"/>
		</linearGradient>
		<polygon style="fill:url(#SVGID_00000018947909422291644900000013196477851733797560_);" points="55.8,113.7 58.9,129.9 
			77.8,129.8 81.5,113.7 		"/>
		
			<linearGradient id="SVGID_00000154424374627618519100000009859224951705622964_" gradientUnits="userSpaceOnUse" x1="68.66" y1="199.6976" x2="68.66" y2="183.4376" gradientTransform="matrix(1 0 0 1 0 -86)">
			<stop  offset="5.181351e-03" style="stop-color:#2E6A86"/>
			<stop  offset="0.2435" style="stop-color:#2E6A86;stop-opacity:0"/>
		</linearGradient>
		<polygon style="fill:url(#SVGID_00000154424374627618519100000009859224951705622964_);" points="55.8,97.4 58.9,113.7 
			77.8,113.7 81.5,97.4 		"/>
		
			<linearGradient id="SVGID_00000098911974022555324570000003541576900017832605_" gradientUnits="userSpaceOnUse" x1="68.66" y1="183.4506" x2="68.66" y2="167.2693" gradientTransform="matrix(1 0 0 1 0 -86)">
			<stop  offset="5.181351e-03" style="stop-color:#2E6A86"/>
			<stop  offset="0.2435" style="stop-color:#2E6A86;stop-opacity:0"/>
		</linearGradient>
		<polygon style="fill:url(#SVGID_00000098911974022555324570000003541576900017832605_);" points="55.8,81.3 58.9,97.5 77.8,97.5 
			81.5,81.3 		"/>
		
			<linearGradient id="SVGID_00000147216050639189455750000017500382191338908305_" gradientUnits="userSpaceOnUse" x1="68.66" y1="167.2482" x2="68.66" y2="151.2385" gradientTransform="matrix(1 0 0 1 0 -86)">
			<stop  offset="5.181351e-03" style="stop-color:#2E6A86"/>
			<stop  offset="0.2435" style="stop-color:#2E6A86;stop-opacity:0"/>
		</linearGradient>
		<polygon style="fill:url(#SVGID_00000147216050639189455750000017500382191338908305_);" points="55.8,65.3 58.9,81.2 77.8,81.2 
			81.5,65.3 		"/>
		
			<linearGradient id="SVGID_00000145044879296565562980000011219536096346664066_" gradientUnits="userSpaceOnUse" x1="68.66" y1="151.2385" x2="68.66" y2="134.6434" gradientTransform="matrix(1 0 0 1 0 -86)">
			<stop  offset="5.181351e-03" style="stop-color:#2E6A86"/>
			<stop  offset="0.2435" style="stop-color:#2E6A86;stop-opacity:0"/>
		</linearGradient>
		<polygon style="fill:url(#SVGID_00000145044879296565562980000011219536096346664066_);" points="55.8,48.6 58.9,65.3 77.8,65.3 
			81.5,48.6 		"/>
		<path class="st39" d="M72.9,131.3c2.8,0,5.1,3.2,5.1,7.1c0,4-2.3,7.1-5.1,7.1c-2.8,0-5.1-3.2-5.1-7.1S70,131.3,72.9,131.3z"/>
		<path class="st40" d="M72.9,133.1c1.9,0,3.4,2.4,3.4,5.3c0,2.9-1.5,5.3-3.4,5.3c-1.9,0-3.4-2.4-3.4-5.3
			C69.5,135.5,71,133.1,72.9,133.1z"/>
	</g>
	<path class="st41" d="M72.5,29.8c-0.9,0-1.8,0.1-2.7,0.1l-0.1-0.6h-1.1v-9.9h-0.9v9.9h-1.1L66.4,30C29.2,33.2-0.1,64.4-0.1,102.4
		c0,40.1,32.5,72.6,72.6,72.6s72.6-32.5,72.6-72.6S112.6,29.8,72.5,29.8z"/>
</g>
</svg>
