<?xml version="1.0" encoding="utf-8"?>
<!-- Generator: Adobe Illustrator 26.3.1, SVG Export Plug-In . SVG Version: 6.00 Build 0)  -->
<svg version="1.1" id="溯檜橫_1" xmlns="http://www.w3.org/2000/svg" xmlns:xlink="http://www.w3.org/1999/xlink" x="0px"
	 y="0px" viewBox="0 0 255 333" style="enable-background:new 0 0 255 333;" xml:space="preserve">
<style type="text/css">
	.st0{fill:#005BAC;}
	.st1{fill:#C3F0FA;}
	.st2{clip-path:url(#SVGID_00000159453437796332089730000004746632222902804127_);fill:#009FE8;}
	.st3{fill:#009FE8;}
	.st4{clip-path:url(#SVGID_00000067223505763780277050000002363110213175713470_);}
	.st5{clip-path:url(#SVGID_00000012447768023419864670000012658207742146441092_);fill:#FF7D69;}
	.st6{fill:#FFFFFF;}
	.st7{opacity:0.27;}
</style>
<g>
	<g>
		<g>
			<path class="st0" d="M200.6,83.6L200.6,83.6c-1.1,0.1-2.1-0.6-2.2-1.7L196,62c-0.1-1.1,0.6-2.1,1.7-2.2l0,0
				c1.1-0.1,2.1,0.6,2.2,1.7l2.4,19.8C202.4,82.4,201.7,83.4,200.6,83.6z"/>
		</g>
	</g>
	<g>
		<g>
			<path class="st0" d="M206,127.4L206,127.4c-1.1,0.1-2.1-0.6-2.2-1.7l-4.1-33.1c-0.1-1.1,0.6-2.1,1.7-2.2l0,0
				c1.1-0.1,2.1,0.6,2.2,1.7l4.1,33.1C207.8,126.2,207,127.2,206,127.4z"/>
		</g>
	</g>
	<g>
		<g>
			<path class="st1" d="M216.4,313.8L76.9,330.9c-5.7,0.7-10.8-3.3-11.5-9L29.6,30.8c-0.7-5.7,3.3-10.8,9-11.5L178.1,2.1
				c5.7-0.7,10.8,3.3,11.5,9l35.7,291.1C226.1,307.9,222.1,313.1,216.4,313.8z"/>
		</g>
	</g>
	<g>
		<g>
			<g>
				<defs>
					<path id="SVGID_1_" d="M216.6,315.6L77.1,332.8c-6.7,0.8-12.8-4-13.7-10.7L27.7,31c-0.8-6.7,4-12.8,10.7-13.7L177.9,0.2
						c6.7-0.8,12.8,4,13.7,10.7L227.3,302C228.1,308.7,223.3,314.8,216.6,315.6z M38.8,21.1c-4.6,0.6-7.9,4.8-7.4,9.4l35.7,291.1
						c0.6,4.6,4.8,7.9,9.4,7.4l139.5-17.1c4.6-0.6,7.9-4.8,7.4-9.4L187.8,11.4c-0.6-4.6-4.8-7.9-9.4-7.4L38.8,21.1z"/>
				</defs>
				<use xlink:href="#SVGID_1_"  style="overflow:visible;fill:#009FE8;"/>
				<clipPath id="SVGID_00000078014963333945910850000010331264243191781507_">
					<use xlink:href="#SVGID_1_"  style="overflow:visible;"/>
				</clipPath>
				<polygon style="clip-path:url(#SVGID_00000078014963333945910850000010331264243191781507_);fill:#009FE8;" points="68.2,329.8 
					73.8,329.3 68.3,330 				"/>
				<polygon style="clip-path:url(#SVGID_00000078014963333945910850000010331264243191781507_);fill:#009FE8;" points="67.7,325.2 
					202.1,313.6 73.8,329.3 68.2,329.8 				"/>
				<polygon style="clip-path:url(#SVGID_00000078014963333945910850000010331264243191781507_);fill:#009FE8;" points="67.1,320.6 
					224.1,307 224.5,310.8 202.1,313.6 67.7,325.2 				"/>
				<polygon style="clip-path:url(#SVGID_00000078014963333945910850000010331264243191781507_);fill:#009FE8;" points="66.5,316 
					223.5,302.4 224.1,307 67.1,320.6 				"/>
				<polygon style="clip-path:url(#SVGID_00000078014963333945910850000010331264243191781507_);fill:#009FE8;" points="66,311.4 
					222.9,297.8 223.5,302.4 66.5,316 				"/>
				<polygon style="clip-path:url(#SVGID_00000078014963333945910850000010331264243191781507_);fill:#009FE8;" points="65.4,306.8 
					222.4,293.2 222.9,297.8 66,311.4 				"/>
				<polygon style="clip-path:url(#SVGID_00000078014963333945910850000010331264243191781507_);fill:#009FE8;" points="64.8,302.2 
					221.8,288.6 222.4,293.2 65.4,306.8 				"/>
				<polygon style="clip-path:url(#SVGID_00000078014963333945910850000010331264243191781507_);fill:#009FE8;" points="64.3,297.6 
					221.2,284 221.8,288.6 64.8,302.2 				"/>
				<polygon style="clip-path:url(#SVGID_00000078014963333945910850000010331264243191781507_);fill:#009FE8;" points="63.7,292.9 
					220.7,279.4 221.2,284 64.3,297.6 				"/>
				<polygon style="clip-path:url(#SVGID_00000078014963333945910850000010331264243191781507_);fill:#009FE8;" points="63.1,288.3 
					220.1,274.8 220.7,279.4 63.7,292.9 				"/>
				<polygon style="clip-path:url(#SVGID_00000078014963333945910850000010331264243191781507_);fill:#009FE8;" points="62.6,283.7 
					219.5,270.1 220.1,274.8 63.1,288.3 				"/>
				<polygon style="clip-path:url(#SVGID_00000078014963333945910850000010331264243191781507_);fill:#009FE8;" points="62,279.1 
					219,265.5 219.5,270.1 62.6,283.7 				"/>
				<polygon style="clip-path:url(#SVGID_00000078014963333945910850000010331264243191781507_);fill:#009FE8;" points="61.4,274.5 
					218.4,260.9 219,265.5 62,279.1 				"/>
				<polygon style="clip-path:url(#SVGID_00000078014963333945910850000010331264243191781507_);fill:#009FE8;" points="60.9,269.9 
					217.9,256.3 218.4,260.9 61.4,274.5 				"/>
				<polygon style="clip-path:url(#SVGID_00000078014963333945910850000010331264243191781507_);fill:#009FE8;" points="60.3,265.3 
					217.3,251.7 217.9,256.3 60.9,269.9 				"/>
				<polygon style="clip-path:url(#SVGID_00000078014963333945910850000010331264243191781507_);fill:#009FE8;" points="59.7,260.7 
					216.7,247.1 217.3,251.7 60.3,265.3 				"/>
				<polygon style="clip-path:url(#SVGID_00000078014963333945910850000010331264243191781507_);fill:#009FE8;" points="59.2,256.1 
					216.2,242.5 216.7,247.1 59.7,260.7 				"/>
				<polygon style="clip-path:url(#SVGID_00000078014963333945910850000010331264243191781507_);fill:#009FE8;" points="58.6,251.4 
					215.6,237.9 216.2,242.5 59.2,256.1 				"/>
				<polygon style="clip-path:url(#SVGID_00000078014963333945910850000010331264243191781507_);fill:#009FE8;" points="58,246.8 
					215,233.3 215.6,237.9 58.6,251.4 				"/>
				<polygon style="clip-path:url(#SVGID_00000078014963333945910850000010331264243191781507_);fill:#009FE8;" points="57.5,242.2 
					214.5,228.7 215,233.3 58,246.8 				"/>
				<polygon style="clip-path:url(#SVGID_00000078014963333945910850000010331264243191781507_);fill:#009FE8;" points="56.9,237.6 
					213.9,224 214.5,228.7 57.5,242.2 				"/>
				<polygon style="clip-path:url(#SVGID_00000078014963333945910850000010331264243191781507_);fill:#009FE8;" points="56.3,233 
					213.3,219.4 213.9,224 56.9,237.6 				"/>
				<polygon style="clip-path:url(#SVGID_00000078014963333945910850000010331264243191781507_);fill:#009FE8;" points="55.8,228.4 
					212.8,214.8 213.3,219.4 56.3,233 				"/>
				<polygon style="clip-path:url(#SVGID_00000078014963333945910850000010331264243191781507_);fill:#009FE8;" points="55.2,223.8 
					212.2,210.2 212.8,214.8 55.8,228.4 				"/>
				<polygon style="clip-path:url(#SVGID_00000078014963333945910850000010331264243191781507_);fill:#009FE8;" points="54.6,219.2 
					211.6,205.6 212.2,210.2 55.2,223.8 				"/>
				<polygon style="clip-path:url(#SVGID_00000078014963333945910850000010331264243191781507_);fill:#009FE8;" points="54.1,214.6 
					211.1,201 211.6,205.6 54.6,219.2 				"/>
				<polygon style="clip-path:url(#SVGID_00000078014963333945910850000010331264243191781507_);fill:#009FE8;" points="53.5,210 
					210.5,196.4 211.1,201 54.1,214.6 				"/>
				<polygon style="clip-path:url(#SVGID_00000078014963333945910850000010331264243191781507_);fill:#009FE8;" points="52.9,205.3 
					209.9,191.8 210.5,196.4 53.5,210 				"/>
				<polygon style="clip-path:url(#SVGID_00000078014963333945910850000010331264243191781507_);fill:#009FE8;" points="52.4,200.7 
					209.4,187.2 209.9,191.8 52.9,205.3 				"/>
				<polygon style="clip-path:url(#SVGID_00000078014963333945910850000010331264243191781507_);fill:#009FE8;" points="51.8,196.1 
					208.8,182.5 209.4,187.2 52.4,200.7 				"/>
				<polygon style="clip-path:url(#SVGID_00000078014963333945910850000010331264243191781507_);fill:#009FE8;" points="51.2,191.5 
					208.2,177.9 208.8,182.5 51.8,196.1 				"/>
				<polygon style="clip-path:url(#SVGID_00000078014963333945910850000010331264243191781507_);fill:#009FE8;" points="50.7,186.9 
					207.7,173.3 208.2,177.9 51.2,191.5 				"/>
				<polygon style="clip-path:url(#SVGID_00000078014963333945910850000010331264243191781507_);fill:#009FE8;" points="50.1,182.3 
					207.1,168.7 207.7,173.3 50.7,186.9 				"/>
				<polygon style="clip-path:url(#SVGID_00000078014963333945910850000010331264243191781507_);fill:#009FE8;" points="49.6,177.7 
					206.5,164.1 207.1,168.7 50.1,182.3 				"/>
				<polygon style="clip-path:url(#SVGID_00000078014963333945910850000010331264243191781507_);fill:#009FE8;" points="49,173.1 
					206,159.5 206.5,164.1 49.6,177.7 				"/>
				<polygon style="clip-path:url(#SVGID_00000078014963333945910850000010331264243191781507_);fill:#009FE8;" points="48.4,168.5 
					205.4,154.9 206,159.5 49,173.1 				"/>
				<polygon style="clip-path:url(#SVGID_00000078014963333945910850000010331264243191781507_);fill:#009FE8;" points="47.9,163.9 
					204.8,150.3 205.4,154.9 48.4,168.5 				"/>
				<polygon style="clip-path:url(#SVGID_00000078014963333945910850000010331264243191781507_);fill:#009FE8;" points="47.3,159.2 
					204.3,145.7 204.8,150.3 47.9,163.9 				"/>
				<polygon style="clip-path:url(#SVGID_00000078014963333945910850000010331264243191781507_);fill:#009FE8;" points="46.7,154.6 
					203.7,141.1 204.3,145.7 47.3,159.2 				"/>
				<polygon style="clip-path:url(#SVGID_00000078014963333945910850000010331264243191781507_);fill:#009FE8;" points="46.2,150 
					203.1,136.4 203.7,141.1 46.7,154.6 				"/>
				<polygon style="clip-path:url(#SVGID_00000078014963333945910850000010331264243191781507_);fill:#009FE8;" points="45.6,145.4 
					202.6,131.8 203.1,136.4 46.2,150 				"/>
				<polygon style="clip-path:url(#SVGID_00000078014963333945910850000010331264243191781507_);fill:#009FE8;" points="45,140.8 
					202,127.2 202.6,131.8 45.6,145.4 				"/>
				<polygon style="clip-path:url(#SVGID_00000078014963333945910850000010331264243191781507_);fill:#009FE8;" points="44.5,136.2 
					201.4,122.6 202,127.2 45,140.8 				"/>
				<polygon style="clip-path:url(#SVGID_00000078014963333945910850000010331264243191781507_);fill:#009FE8;" points="43.9,131.6 
					200.9,118 201.4,122.6 44.5,136.2 				"/>
				<polygon style="clip-path:url(#SVGID_00000078014963333945910850000010331264243191781507_);fill:#009FE8;" points="43.3,127 
					200.3,113.4 200.9,118 43.9,131.6 				"/>
				<polygon style="clip-path:url(#SVGID_00000078014963333945910850000010331264243191781507_);fill:#009FE8;" points="42.8,122.4 
					199.7,108.8 200.3,113.4 43.3,127 				"/>
				<polygon style="clip-path:url(#SVGID_00000078014963333945910850000010331264243191781507_);fill:#009FE8;" points="42.2,117.7 
					199.2,104.2 199.7,108.8 42.8,122.4 				"/>
				<polygon style="clip-path:url(#SVGID_00000078014963333945910850000010331264243191781507_);fill:#009FE8;" points="41.6,113.1 
					198.6,99.6 199.2,104.2 42.2,117.7 				"/>
				<polygon style="clip-path:url(#SVGID_00000078014963333945910850000010331264243191781507_);fill:#009FE8;" points="41.1,108.5 
					198,95 198.6,99.6 41.6,113.1 				"/>
				<polygon style="clip-path:url(#SVGID_00000078014963333945910850000010331264243191781507_);fill:#009FE8;" points="40.5,103.9 
					197.5,90.3 198,95 41.1,108.5 				"/>
				<polygon style="clip-path:url(#SVGID_00000078014963333945910850000010331264243191781507_);fill:#009FE8;" points="39.9,99.3 
					196.9,85.7 197.5,90.3 40.5,103.9 				"/>
				<polygon style="clip-path:url(#SVGID_00000078014963333945910850000010331264243191781507_);fill:#009FE8;" points="39.4,94.7 
					196.3,81.1 196.9,85.7 39.9,99.3 				"/>
				<polygon style="clip-path:url(#SVGID_00000078014963333945910850000010331264243191781507_);fill:#009FE8;" points="38.8,90.1 
					195.8,76.5 196.3,81.1 39.4,94.7 				"/>
				<polygon style="clip-path:url(#SVGID_00000078014963333945910850000010331264243191781507_);fill:#009FE8;" points="38.2,85.5 
					195.2,71.9 195.8,76.5 38.8,90.1 				"/>
				<polygon style="clip-path:url(#SVGID_00000078014963333945910850000010331264243191781507_);fill:#009FE8;" points="37.7,80.9 
					194.6,67.3 195.2,71.9 38.2,85.5 				"/>
				<polygon style="clip-path:url(#SVGID_00000078014963333945910850000010331264243191781507_);fill:#009FE8;" points="37.1,76.3 
					194.1,62.7 194.6,67.3 37.7,80.9 				"/>
				<polygon style="clip-path:url(#SVGID_00000078014963333945910850000010331264243191781507_);fill:#009FE8;" points="36.5,71.6 
					193.5,58.1 194.1,62.7 37.1,76.3 				"/>
				<polygon style="clip-path:url(#SVGID_00000078014963333945910850000010331264243191781507_);fill:#009FE8;" points="36,67 
					192.9,53.5 193.5,58.1 36.5,71.6 				"/>
				<polygon style="clip-path:url(#SVGID_00000078014963333945910850000010331264243191781507_);fill:#009FE8;" points="35.4,62.4 
					192.4,48.8 192.9,53.5 36,67 				"/>
				<polygon style="clip-path:url(#SVGID_00000078014963333945910850000010331264243191781507_);fill:#009FE8;" points="34.8,57.8 
					191.8,44.2 192.4,48.8 35.4,62.4 				"/>
				<polygon style="clip-path:url(#SVGID_00000078014963333945910850000010331264243191781507_);fill:#009FE8;" points="34.3,53.2 
					191.2,39.6 191.8,44.2 34.8,57.8 				"/>
				<polygon style="clip-path:url(#SVGID_00000078014963333945910850000010331264243191781507_);fill:#009FE8;" points="33.7,48.6 
					190.7,35 191.2,39.6 34.3,53.2 				"/>
				<polygon style="clip-path:url(#SVGID_00000078014963333945910850000010331264243191781507_);fill:#009FE8;" points="33.1,44 
					190.1,30.4 190.7,35 33.7,48.6 				"/>
				<polygon style="clip-path:url(#SVGID_00000078014963333945910850000010331264243191781507_);fill:#009FE8;" points="32.6,39.4 
					189.5,25.8 190.1,30.4 33.1,44 				"/>
				<polygon style="clip-path:url(#SVGID_00000078014963333945910850000010331264243191781507_);fill:#009FE8;" points="32,34.8 
					189,21.2 189.5,25.8 32.6,39.4 				"/>
				<polygon style="clip-path:url(#SVGID_00000078014963333945910850000010331264243191781507_);fill:#009FE8;" points="31.4,30.2 
					188.4,16.6 189,21.2 32,34.8 				"/>
				<polygon style="clip-path:url(#SVGID_00000078014963333945910850000010331264243191781507_);fill:#009FE8;" points="30.9,25.5 
					187.8,12 188.4,16.6 31.4,30.2 				"/>
				<polygon style="clip-path:url(#SVGID_00000078014963333945910850000010331264243191781507_);fill:#009FE8;" points="64.8,17.9 
					187.3,7.4 187.8,12 30.9,25.5 30.5,22.2 				"/>
				<polygon style="clip-path:url(#SVGID_00000078014963333945910850000010331264243191781507_);fill:#009FE8;" points="187.3,7.4 
					64.8,17.9 186.7,3 				"/>
				<polygon style="clip-path:url(#SVGID_00000078014963333945910850000010331264243191781507_);fill:#009FE8;" points="64.4,330.2 
					179.4,320.2 64.9,334.3 				"/>
				<polygon style="clip-path:url(#SVGID_00000078014963333945910850000010331264243191781507_);fill:#009FE8;" points="63.9,325.5 
					228.4,311.3 228.8,314.1 179.4,320.2 64.4,330.2 				"/>
				<polygon style="clip-path:url(#SVGID_00000078014963333945910850000010331264243191781507_);fill:#009FE8;" points="63.3,320.9 
					227.9,306.7 228.4,311.3 63.9,325.5 				"/>
				<polygon style="clip-path:url(#SVGID_00000078014963333945910850000010331264243191781507_);fill:#009FE8;" points="62.7,316.3 
					227.3,302.1 227.9,306.7 63.3,320.9 				"/>
				<polygon style="clip-path:url(#SVGID_00000078014963333945910850000010331264243191781507_);fill:#009FE8;" points="62.2,311.7 
					226.7,297.5 227.3,302.1 62.7,316.3 				"/>
				<polygon style="clip-path:url(#SVGID_00000078014963333945910850000010331264243191781507_);fill:#009FE8;" points="61.6,307.1 
					226.2,292.9 226.7,297.5 62.2,311.7 				"/>
				<polygon style="clip-path:url(#SVGID_00000078014963333945910850000010331264243191781507_);fill:#009FE8;" points="61,302.5 
					225.6,288.3 226.2,292.9 61.6,307.1 				"/>
				<polygon style="clip-path:url(#SVGID_00000078014963333945910850000010331264243191781507_);fill:#009FE8;" points="60.5,297.9 
					225,283.6 225.6,288.3 61,302.5 				"/>
				<polygon style="clip-path:url(#SVGID_00000078014963333945910850000010331264243191781507_);fill:#009FE8;" points="59.9,293.3 
					224.5,279 225,283.6 60.5,297.9 				"/>
				<polygon style="clip-path:url(#SVGID_00000078014963333945910850000010331264243191781507_);fill:#009FE8;" points="59.3,288.7 
					223.9,274.4 224.5,279 59.9,293.3 				"/>
				<polygon style="clip-path:url(#SVGID_00000078014963333945910850000010331264243191781507_);fill:#009FE8;" points="58.8,284.1 
					223.3,269.8 223.9,274.4 59.3,288.7 				"/>
				<polygon style="clip-path:url(#SVGID_00000078014963333945910850000010331264243191781507_);fill:#009FE8;" points="58.2,279.4 
					222.8,265.2 223.3,269.8 58.8,284.1 				"/>
				<polygon style="clip-path:url(#SVGID_00000078014963333945910850000010331264243191781507_);fill:#009FE8;" points="57.6,274.8 
					222.2,260.6 222.8,265.2 58.2,279.4 				"/>
				<polygon style="clip-path:url(#SVGID_00000078014963333945910850000010331264243191781507_);fill:#009FE8;" points="57.1,270.2 
					221.6,256 222.2,260.6 57.6,274.8 				"/>
				<polygon style="clip-path:url(#SVGID_00000078014963333945910850000010331264243191781507_);fill:#009FE8;" points="56.5,265.6 
					221.1,251.4 221.6,256 57.1,270.2 				"/>
				<polygon style="clip-path:url(#SVGID_00000078014963333945910850000010331264243191781507_);fill:#009FE8;" points="55.9,261 
					220.5,246.8 221.1,251.4 56.5,265.6 				"/>
				<polygon style="clip-path:url(#SVGID_00000078014963333945910850000010331264243191781507_);fill:#009FE8;" points="55.4,256.4 
					219.9,242.2 220.5,246.8 55.9,261 				"/>
				<polygon style="clip-path:url(#SVGID_00000078014963333945910850000010331264243191781507_);fill:#009FE8;" points="54.8,251.8 
					219.4,237.5 219.9,242.2 55.4,256.4 				"/>
				<polygon style="clip-path:url(#SVGID_00000078014963333945910850000010331264243191781507_);fill:#009FE8;" points="54.2,247.2 
					218.8,232.9 219.4,237.5 54.8,251.8 				"/>
				<polygon style="clip-path:url(#SVGID_00000078014963333945910850000010331264243191781507_);fill:#009FE8;" points="53.7,242.6 
					218.2,228.3 218.8,232.9 54.2,247.2 				"/>
				<polygon style="clip-path:url(#SVGID_00000078014963333945910850000010331264243191781507_);fill:#009FE8;" points="53.1,237.9 
					217.7,223.7 218.2,228.3 53.7,242.6 				"/>
				<polygon style="clip-path:url(#SVGID_00000078014963333945910850000010331264243191781507_);fill:#009FE8;" points="52.5,233.3 
					217.1,219.1 217.7,223.7 53.1,237.9 				"/>
				<polygon style="clip-path:url(#SVGID_00000078014963333945910850000010331264243191781507_);fill:#009FE8;" points="52,228.7 
					216.5,214.5 217.1,219.1 52.5,233.3 				"/>
				<polygon style="clip-path:url(#SVGID_00000078014963333945910850000010331264243191781507_);fill:#009FE8;" points="51.4,224.1 
					216,209.9 216.5,214.5 52,228.7 				"/>
				<polygon style="clip-path:url(#SVGID_00000078014963333945910850000010331264243191781507_);fill:#009FE8;" points="50.9,219.5 
					215.4,205.3 216,209.9 51.4,224.1 				"/>
				<polygon style="clip-path:url(#SVGID_00000078014963333945910850000010331264243191781507_);fill:#009FE8;" points="50.3,214.9 
					214.9,200.7 215.4,205.3 50.9,219.5 				"/>
				<polygon style="clip-path:url(#SVGID_00000078014963333945910850000010331264243191781507_);fill:#009FE8;" points="49.7,210.3 
					214.3,196.1 214.9,200.7 50.3,214.9 				"/>
				<polygon style="clip-path:url(#SVGID_00000078014963333945910850000010331264243191781507_);fill:#009FE8;" points="49.2,205.7 
					213.7,191.4 214.3,196.1 49.7,210.3 				"/>
				<polygon style="clip-path:url(#SVGID_00000078014963333945910850000010331264243191781507_);fill:#009FE8;" points="48.6,201.1 
					213.2,186.8 213.7,191.4 49.2,205.7 				"/>
				<polygon style="clip-path:url(#SVGID_00000078014963333945910850000010331264243191781507_);fill:#009FE8;" points="48,196.5 
					212.6,182.2 213.2,186.8 48.6,201.1 				"/>
				<polygon style="clip-path:url(#SVGID_00000078014963333945910850000010331264243191781507_);fill:#009FE8;" points="47.5,191.8 
					212,177.6 212.6,182.2 48,196.5 				"/>
				<polygon style="clip-path:url(#SVGID_00000078014963333945910850000010331264243191781507_);fill:#009FE8;" points="46.9,187.2 
					211.5,173 212,177.6 47.5,191.8 				"/>
				<polygon style="clip-path:url(#SVGID_00000078014963333945910850000010331264243191781507_);fill:#009FE8;" points="46.3,182.6 
					210.9,168.4 211.5,173 46.9,187.2 				"/>
				<polygon style="clip-path:url(#SVGID_00000078014963333945910850000010331264243191781507_);fill:#009FE8;" points="45.8,178 
					210.3,163.8 210.9,168.4 46.3,182.6 				"/>
				<polygon style="clip-path:url(#SVGID_00000078014963333945910850000010331264243191781507_);fill:#009FE8;" points="45.2,173.4 
					209.8,159.2 210.3,163.8 45.8,178 				"/>
				<polygon style="clip-path:url(#SVGID_00000078014963333945910850000010331264243191781507_);fill:#009FE8;" points="44.6,168.8 
					209.2,154.6 209.8,159.2 45.2,173.4 				"/>
				<polygon style="clip-path:url(#SVGID_00000078014963333945910850000010331264243191781507_);fill:#009FE8;" points="44.1,164.2 
					208.6,149.9 209.2,154.6 44.6,168.8 				"/>
				<polygon style="clip-path:url(#SVGID_00000078014963333945910850000010331264243191781507_);fill:#009FE8;" points="43.5,159.6 
					208.1,145.3 208.6,149.9 44.1,164.2 				"/>
				<polygon style="clip-path:url(#SVGID_00000078014963333945910850000010331264243191781507_);fill:#009FE8;" points="42.9,155 
					207.5,140.7 208.1,145.3 43.5,159.6 				"/>
				<polygon style="clip-path:url(#SVGID_00000078014963333945910850000010331264243191781507_);fill:#009FE8;" points="42.4,150.4 
					206.9,136.1 207.5,140.7 42.9,155 				"/>
				<polygon style="clip-path:url(#SVGID_00000078014963333945910850000010331264243191781507_);fill:#009FE8;" points="41.8,145.7 
					206.4,131.5 206.9,136.1 42.4,150.4 				"/>
				<polygon style="clip-path:url(#SVGID_00000078014963333945910850000010331264243191781507_);fill:#009FE8;" points="41.2,141.1 
					205.8,126.9 206.4,131.5 41.8,145.7 				"/>
				<polygon style="clip-path:url(#SVGID_00000078014963333945910850000010331264243191781507_);fill:#009FE8;" points="40.7,136.5 
					205.2,122.3 205.8,126.9 41.2,141.1 				"/>
				<polygon style="clip-path:url(#SVGID_00000078014963333945910850000010331264243191781507_);fill:#009FE8;" points="40.1,131.9 
					204.7,117.7 205.2,122.3 40.7,136.5 				"/>
				<polygon style="clip-path:url(#SVGID_00000078014963333945910850000010331264243191781507_);fill:#009FE8;" points="39.5,127.3 
					204.1,113.1 204.7,117.7 40.1,131.9 				"/>
				<polygon style="clip-path:url(#SVGID_00000078014963333945910850000010331264243191781507_);fill:#009FE8;" points="39,122.7 
					203.5,108.5 204.1,113.1 39.5,127.3 				"/>
				<polygon style="clip-path:url(#SVGID_00000078014963333945910850000010331264243191781507_);fill:#009FE8;" points="38.4,118.1 
					203,103.8 203.5,108.5 39,122.7 				"/>
				<polygon style="clip-path:url(#SVGID_00000078014963333945910850000010331264243191781507_);fill:#009FE8;" points="37.8,113.5 
					202.4,99.2 203,103.8 38.4,118.1 				"/>
				<polygon style="clip-path:url(#SVGID_00000078014963333945910850000010331264243191781507_);fill:#009FE8;" points="37.3,108.9 
					201.8,94.6 202.4,99.2 37.8,113.5 				"/>
				<polygon style="clip-path:url(#SVGID_00000078014963333945910850000010331264243191781507_);fill:#009FE8;" points="36.7,104.2 
					201.3,90 201.8,94.6 37.3,108.9 				"/>
				<polygon style="clip-path:url(#SVGID_00000078014963333945910850000010331264243191781507_);fill:#009FE8;" points="36.1,99.6 
					200.7,85.4 201.3,90 36.7,104.2 				"/>
				<polygon style="clip-path:url(#SVGID_00000078014963333945910850000010331264243191781507_);fill:#009FE8;" points="35.6,95 
					200.1,80.8 200.7,85.4 36.1,99.6 				"/>
				<polygon style="clip-path:url(#SVGID_00000078014963333945910850000010331264243191781507_);fill:#009FE8;" points="35,90.4 
					199.6,76.2 200.1,80.8 35.6,95 				"/>
				<polygon style="clip-path:url(#SVGID_00000078014963333945910850000010331264243191781507_);fill:#009FE8;" points="34.4,85.8 
					199,71.6 199.6,76.2 35,90.4 				"/>
				<polygon style="clip-path:url(#SVGID_00000078014963333945910850000010331264243191781507_);fill:#009FE8;" points="33.9,81.2 
					198.4,67 199,71.6 34.4,85.8 				"/>
				<polygon style="clip-path:url(#SVGID_00000078014963333945910850000010331264243191781507_);fill:#009FE8;" points="33.3,76.6 
					197.9,62.4 198.4,67 33.9,81.2 				"/>
				<polygon style="clip-path:url(#SVGID_00000078014963333945910850000010331264243191781507_);fill:#009FE8;" points="32.7,72 
					197.3,57.7 197.9,62.4 33.3,76.6 				"/>
				<polygon style="clip-path:url(#SVGID_00000078014963333945910850000010331264243191781507_);fill:#009FE8;" points="32.2,67.4 
					196.7,53.1 197.3,57.7 32.7,72 				"/>
				<polygon style="clip-path:url(#SVGID_00000078014963333945910850000010331264243191781507_);fill:#009FE8;" points="31.6,62.8 
					196.2,48.5 196.7,53.1 32.2,67.4 				"/>
				<polygon style="clip-path:url(#SVGID_00000078014963333945910850000010331264243191781507_);fill:#009FE8;" points="31,58.1 
					195.6,43.9 196.2,48.5 31.6,62.8 				"/>
				<polygon style="clip-path:url(#SVGID_00000078014963333945910850000010331264243191781507_);fill:#009FE8;" points="30.5,53.5 
					195,39.3 195.6,43.9 31,58.1 				"/>
				<polygon style="clip-path:url(#SVGID_00000078014963333945910850000010331264243191781507_);fill:#009FE8;" points="29.9,48.9 
					194.5,34.7 195,39.3 30.5,53.5 				"/>
				<polygon style="clip-path:url(#SVGID_00000078014963333945910850000010331264243191781507_);fill:#009FE8;" points="29.3,44.3 
					193.9,30.1 194.5,34.7 29.9,48.9 				"/>
				<polygon style="clip-path:url(#SVGID_00000078014963333945910850000010331264243191781507_);fill:#009FE8;" points="28.8,39.7 
					193.3,25.5 193.9,30.1 29.3,44.3 				"/>
				<polygon style="clip-path:url(#SVGID_00000078014963333945910850000010331264243191781507_);fill:#009FE8;" points="28.2,35.1 
					192.8,20.9 193.3,25.5 28.8,39.7 				"/>
				<polygon style="clip-path:url(#SVGID_00000078014963333945910850000010331264243191781507_);fill:#009FE8;" points="27.6,30.5 
					192.2,16.2 192.8,20.9 28.2,35.1 				"/>
				<polygon style="clip-path:url(#SVGID_00000078014963333945910850000010331264243191781507_);fill:#009FE8;" points="27.1,25.9 
					191.6,11.6 192.2,16.2 27.6,30.5 				"/>
				<polygon style="clip-path:url(#SVGID_00000078014963333945910850000010331264243191781507_);fill:#009FE8;" points="26.5,21.3 
					191.1,7 191.6,11.6 27.1,25.9 				"/>
				<polygon style="clip-path:url(#SVGID_00000078014963333945910850000010331264243191781507_);fill:#009FE8;" points="87.6,11.3 
					190.5,2.4 191.1,7 26.5,21.3 26.2,18.9 				"/>
				<polygon style="clip-path:url(#SVGID_00000078014963333945910850000010331264243191781507_);fill:#009FE8;" points="190.5,2.4 
					87.6,11.3 190.1,-1.3 				"/>
			</g>
			<path class="st3" d="M216.6,315.8L77.1,332.9c-6.8,0.8-12.9-4-13.8-10.8L27.6,31c-0.8-6.8,4-12.9,10.8-13.8L177.9,0.1
				c6.8-0.8,12.9,4,13.8,10.8L227.4,302C228.2,308.7,223.4,314.9,216.6,315.8z M38.4,17.5C31.7,18.3,27,24.4,27.8,31l35.7,291.1
				c0.8,6.6,6.9,11.4,13.5,10.6l139.5-17.1c6.6-0.8,11.4-6.9,10.6-13.5L191.4,10.9c-0.8-6.6-6.9-11.4-13.5-10.6L38.4,17.5z
				 M216.2,312L76.7,329.1c-4.7,0.6-9-2.8-9.5-7.5L31.4,30.6c-0.6-4.7,2.8-9,7.5-9.5L178.3,3.9c4.7-0.6,9,2.8,9.5,7.5l35.7,291.1
				C224.2,307.1,220.9,311.4,216.2,312z M38.9,21.3c-4.6,0.6-7.8,4.7-7.3,9.3l35.7,291.1c0.6,4.6,4.7,7.8,9.3,7.3l139.5-17.1
				c4.6-0.6,7.8-4.7,7.3-9.3L187.7,11.4c-0.6-4.6-4.7-7.8-9.3-7.3L38.9,21.3z"/>
		</g>
	</g>
	<g>
		<g>
			<defs>
				<circle id="SVGID_00000177480023783665667700000009097978478770861462_" cx="118.5" cy="83.2" r="50.1"/>
			</defs>
			<use xlink:href="#SVGID_00000177480023783665667700000009097978478770861462_"  style="overflow:visible;fill:#FFFFFF;"/>
			<clipPath id="SVGID_00000167377653069444015600000010411657718041513142_">
				<use xlink:href="#SVGID_00000177480023783665667700000009097978478770861462_"  style="overflow:visible;"/>
			</clipPath>
			<g style="clip-path:url(#SVGID_00000167377653069444015600000010411657718041513142_);">
				
					<ellipse transform="matrix(0.9925 -0.1219 0.1219 0.9925 -16.7123 16.4376)" class="st3" cx="126" cy="144.8" rx="48.7" ry="51.7"/>
				
					<ellipse transform="matrix(0.1094 -0.994 0.994 0.1094 29.2122 183.3147)" class="st3" cx="116.9" cy="75.4" rx="14.9" ry="14.9"/>
			</g>
		</g>
	</g>
	<g>
		<g>
			<defs>
				<path id="SVGID_00000142138065398302764500000001951188264076619197_" d="M158.5,240.8l-42,5.2c-6,0.7-11.5-3.5-12.2-9.5v0
					c-0.7-6,3.5-11.5,9.5-12.2l42-5.2c6-0.7,11.5,3.5,12.2,9.5v0C168.8,234.6,164.5,240.1,158.5,240.8z"/>
			</defs>
			<use xlink:href="#SVGID_00000142138065398302764500000001951188264076619197_"  style="overflow:visible;fill:#FF7D69;"/>
			<clipPath id="SVGID_00000044179474432981972010000016872324413809914552_">
				<use xlink:href="#SVGID_00000142138065398302764500000001951188264076619197_"  style="overflow:visible;"/>
			</clipPath>
			<polygon style="clip-path:url(#SVGID_00000044179474432981972010000016872324413809914552_);fill:#FF7D69;" points="168.2,229.6 
				166.3,217.8 166.7,217.8 			"/>
			<polygon style="clip-path:url(#SVGID_00000044179474432981972010000016872324413809914552_);fill:#FF7D69;" points="168.7,239.6 
				165.3,218 166.3,217.8 168.2,229.6 169.4,239.5 			"/>
			<polygon style="clip-path:url(#SVGID_00000044179474432981972010000016872324413809914552_);fill:#FF7D69;" points="167.7,239.7 
				164.4,218.1 165.3,218 168.7,239.6 			"/>
			<polygon style="clip-path:url(#SVGID_00000044179474432981972010000016872324413809914552_);fill:#FF7D69;" points="166.7,239.8 
				163.4,218.2 164.4,218.1 167.7,239.7 			"/>
			<polygon style="clip-path:url(#SVGID_00000044179474432981972010000016872324413809914552_);fill:#FF7D69;" points="165.8,240 
				162.4,218.3 163.4,218.2 166.7,239.8 			"/>
			<polygon style="clip-path:url(#SVGID_00000044179474432981972010000016872324413809914552_);fill:#FF7D69;" points="164.8,240.1 
				161.4,218.4 162.4,218.3 165.8,240 			"/>
			<polygon style="clip-path:url(#SVGID_00000044179474432981972010000016872324413809914552_);fill:#FF7D69;" points="163.8,240.2 
				160.4,218.6 161.4,218.4 164.8,240.1 			"/>
			<polygon style="clip-path:url(#SVGID_00000044179474432981972010000016872324413809914552_);fill:#FF7D69;" points="162.8,240.3 
				159.4,218.7 160.4,218.6 163.8,240.2 			"/>
			<polygon style="clip-path:url(#SVGID_00000044179474432981972010000016872324413809914552_);fill:#FF7D69;" points="161.8,240.4 
				158.5,218.8 159.4,218.7 162.8,240.3 			"/>
			<polygon style="clip-path:url(#SVGID_00000044179474432981972010000016872324413809914552_);fill:#FF7D69;" points="160.8,240.6 
				157.5,218.9 158.5,218.8 161.8,240.4 			"/>
			<polygon style="clip-path:url(#SVGID_00000044179474432981972010000016872324413809914552_);fill:#FF7D69;" points="159.8,240.7 
				156.5,219 157.5,218.9 160.8,240.6 			"/>
			<polygon style="clip-path:url(#SVGID_00000044179474432981972010000016872324413809914552_);fill:#FF7D69;" points="158.9,240.8 
				155.5,219.2 156.5,219 159.8,240.7 			"/>
			<polygon style="clip-path:url(#SVGID_00000044179474432981972010000016872324413809914552_);fill:#FF7D69;" points="157.9,240.9 
				154.5,219.3 155.5,219.2 158.9,240.8 			"/>
			<polygon style="clip-path:url(#SVGID_00000044179474432981972010000016872324413809914552_);fill:#FF7D69;" points="156.9,241 
				153.5,219.4 154.5,219.3 157.9,240.9 			"/>
			<polygon style="clip-path:url(#SVGID_00000044179474432981972010000016872324413809914552_);fill:#FF7D69;" points="155.9,241.2 
				152.5,219.5 153.5,219.4 156.9,241 			"/>
			<polygon style="clip-path:url(#SVGID_00000044179474432981972010000016872324413809914552_);fill:#FF7D69;" points="154.9,241.3 
				151.6,219.7 152.5,219.5 155.9,241.2 			"/>
			<polygon style="clip-path:url(#SVGID_00000044179474432981972010000016872324413809914552_);fill:#FF7D69;" points="153.9,241.4 
				150.6,219.8 151.6,219.7 154.9,241.3 			"/>
			<polygon style="clip-path:url(#SVGID_00000044179474432981972010000016872324413809914552_);fill:#FF7D69;" points="152.9,241.5 
				149.6,219.9 150.6,219.8 153.9,241.4 			"/>
			<polygon style="clip-path:url(#SVGID_00000044179474432981972010000016872324413809914552_);fill:#FF7D69;" points="152,241.6 
				148.6,220 149.6,219.9 152.9,241.5 			"/>
			<polygon style="clip-path:url(#SVGID_00000044179474432981972010000016872324413809914552_);fill:#FF7D69;" points="151,241.8 
				147.6,220.1 148.6,220 152,241.6 			"/>
			<polygon style="clip-path:url(#SVGID_00000044179474432981972010000016872324413809914552_);fill:#FF7D69;" points="150,241.9 
				146.6,220.3 147.6,220.1 151,241.8 			"/>
			<polygon style="clip-path:url(#SVGID_00000044179474432981972010000016872324413809914552_);fill:#FF7D69;" points="149,242 
				145.6,220.4 146.6,220.3 150,241.9 			"/>
			<polygon style="clip-path:url(#SVGID_00000044179474432981972010000016872324413809914552_);fill:#FF7D69;" points="148,242.1 
				144.7,220.5 145.6,220.4 149,242 			"/>
			<polygon style="clip-path:url(#SVGID_00000044179474432981972010000016872324413809914552_);fill:#FF7D69;" points="147,242.3 
				143.7,220.6 144.7,220.5 148,242.1 			"/>
			<polygon style="clip-path:url(#SVGID_00000044179474432981972010000016872324413809914552_);fill:#FF7D69;" points="146.1,242.4 
				142.7,220.7 143.7,220.6 147,242.3 			"/>
			<polygon style="clip-path:url(#SVGID_00000044179474432981972010000016872324413809914552_);fill:#FF7D69;" points="145.1,242.5 
				141.7,220.9 142.7,220.7 146.1,242.4 			"/>
			<polygon style="clip-path:url(#SVGID_00000044179474432981972010000016872324413809914552_);fill:#FF7D69;" points="144.1,242.6 
				140.7,221 141.7,220.9 145.1,242.5 			"/>
			<polygon style="clip-path:url(#SVGID_00000044179474432981972010000016872324413809914552_);fill:#FF7D69;" points="143.1,242.7 
				139.7,221.1 140.7,221 144.1,242.6 			"/>
			<polygon style="clip-path:url(#SVGID_00000044179474432981972010000016872324413809914552_);fill:#FF7D69;" points="142.1,242.9 
				138.7,221.2 139.7,221.1 143.1,242.7 			"/>
			<polygon style="clip-path:url(#SVGID_00000044179474432981972010000016872324413809914552_);fill:#FF7D69;" points="141.1,243 
				137.8,221.3 138.7,221.2 142.1,242.9 			"/>
			<polygon style="clip-path:url(#SVGID_00000044179474432981972010000016872324413809914552_);fill:#FF7D69;" points="140.1,243.1 
				136.8,221.5 137.8,221.3 141.1,243 			"/>
			<polygon style="clip-path:url(#SVGID_00000044179474432981972010000016872324413809914552_);fill:#FF7D69;" points="139.2,243.2 
				135.8,221.6 136.8,221.5 140.1,243.1 			"/>
			<polygon style="clip-path:url(#SVGID_00000044179474432981972010000016872324413809914552_);fill:#FF7D69;" points="138.2,243.3 
				134.8,221.7 135.8,221.6 139.2,243.2 			"/>
			<polygon style="clip-path:url(#SVGID_00000044179474432981972010000016872324413809914552_);fill:#FF7D69;" points="137.2,243.5 
				133.8,221.8 134.8,221.7 138.2,243.3 			"/>
			<polygon style="clip-path:url(#SVGID_00000044179474432981972010000016872324413809914552_);fill:#FF7D69;" points="136.2,243.6 
				132.8,221.9 133.8,221.8 137.2,243.5 			"/>
			<polygon style="clip-path:url(#SVGID_00000044179474432981972010000016872324413809914552_);fill:#FF7D69;" points="135.2,243.7 
				131.9,222.1 132.8,221.9 136.2,243.6 			"/>
			<polygon style="clip-path:url(#SVGID_00000044179474432981972010000016872324413809914552_);fill:#FF7D69;" points="134.2,243.8 
				130.9,222.2 131.9,222.1 135.2,243.7 			"/>
			<polygon style="clip-path:url(#SVGID_00000044179474432981972010000016872324413809914552_);fill:#FF7D69;" points="133.2,243.9 
				129.9,222.3 130.9,222.2 134.2,243.8 			"/>
			<polygon style="clip-path:url(#SVGID_00000044179474432981972010000016872324413809914552_);fill:#FF7D69;" points="132.3,244.1 
				128.9,222.4 129.9,222.3 133.2,243.9 			"/>
			<polygon style="clip-path:url(#SVGID_00000044179474432981972010000016872324413809914552_);fill:#FF7D69;" points="131.3,244.2 
				127.9,222.6 128.9,222.4 132.3,244.1 			"/>
			<polygon style="clip-path:url(#SVGID_00000044179474432981972010000016872324413809914552_);fill:#FF7D69;" points="130.3,244.3 
				126.9,222.7 127.9,222.6 131.3,244.2 			"/>
			<polygon style="clip-path:url(#SVGID_00000044179474432981972010000016872324413809914552_);fill:#FF7D69;" points="129.3,244.4 
				125.9,222.8 126.9,222.7 130.3,244.3 			"/>
			<polygon style="clip-path:url(#SVGID_00000044179474432981972010000016872324413809914552_);fill:#FF7D69;" points="128.3,244.5 
				125,222.9 125.9,222.8 129.3,244.4 			"/>
			<polygon style="clip-path:url(#SVGID_00000044179474432981972010000016872324413809914552_);fill:#FF7D69;" points="127.3,244.7 
				124,223 125,222.9 128.3,244.5 			"/>
			<polygon style="clip-path:url(#SVGID_00000044179474432981972010000016872324413809914552_);fill:#FF7D69;" points="126.4,244.8 
				123,223.2 124,223 127.3,244.7 			"/>
			<polygon style="clip-path:url(#SVGID_00000044179474432981972010000016872324413809914552_);fill:#FF7D69;" points="125.4,244.9 
				122,223.3 123,223.2 126.4,244.8 			"/>
			<polygon style="clip-path:url(#SVGID_00000044179474432981972010000016872324413809914552_);fill:#FF7D69;" points="124.4,245 
				121,223.4 122,223.3 125.4,244.9 			"/>
			<polygon style="clip-path:url(#SVGID_00000044179474432981972010000016872324413809914552_);fill:#FF7D69;" points="123.4,245.2 
				120,223.5 121,223.4 124.4,245 			"/>
			<polygon style="clip-path:url(#SVGID_00000044179474432981972010000016872324413809914552_);fill:#FF7D69;" points="122.4,245.3 
				119,223.6 120,223.5 123.4,245.2 			"/>
			<polygon style="clip-path:url(#SVGID_00000044179474432981972010000016872324413809914552_);fill:#FF7D69;" points="121.4,245.4 
				118.1,223.8 119,223.6 122.4,245.3 			"/>
			<polygon style="clip-path:url(#SVGID_00000044179474432981972010000016872324413809914552_);fill:#FF7D69;" points="120.4,245.5 
				117.1,223.9 118.1,223.8 121.4,245.4 			"/>
			<polygon style="clip-path:url(#SVGID_00000044179474432981972010000016872324413809914552_);fill:#FF7D69;" points="119.5,245.6 
				116.1,224 117.1,223.9 120.4,245.5 			"/>
			<polygon style="clip-path:url(#SVGID_00000044179474432981972010000016872324413809914552_);fill:#FF7D69;" points="118.5,245.8 
				115.1,224.1 116.1,224 119.5,245.6 			"/>
			<polygon style="clip-path:url(#SVGID_00000044179474432981972010000016872324413809914552_);fill:#FF7D69;" points="117.5,245.9 
				114.1,224.2 115.1,224.1 118.5,245.8 			"/>
			<polygon style="clip-path:url(#SVGID_00000044179474432981972010000016872324413809914552_);fill:#FF7D69;" points="116.5,246 
				113.1,224.4 114.1,224.2 117.5,245.9 			"/>
			<polygon style="clip-path:url(#SVGID_00000044179474432981972010000016872324413809914552_);fill:#FF7D69;" points="115.5,246.1 
				112.2,224.5 113.1,224.4 116.5,246 			"/>
			<polygon style="clip-path:url(#SVGID_00000044179474432981972010000016872324413809914552_);fill:#FF7D69;" points="114.5,246.2 
				111.2,224.6 112.2,224.5 115.5,246.1 			"/>
			<polygon style="clip-path:url(#SVGID_00000044179474432981972010000016872324413809914552_);fill:#FF7D69;" points="113.5,246.4 
				110.2,224.7 111.2,224.6 114.5,246.2 			"/>
			<polygon style="clip-path:url(#SVGID_00000044179474432981972010000016872324413809914552_);fill:#FF7D69;" points="112.6,246.5 
				109.2,224.9 110.2,224.7 113.5,246.4 			"/>
			<polygon style="clip-path:url(#SVGID_00000044179474432981972010000016872324413809914552_);fill:#FF7D69;" points="111.6,246.6 
				108.2,225 109.2,224.9 112.6,246.5 			"/>
			<polygon style="clip-path:url(#SVGID_00000044179474432981972010000016872324413809914552_);fill:#FF7D69;" points="110.6,246.7 
				107.2,225.1 108.2,225 111.6,246.6 			"/>
			<polygon style="clip-path:url(#SVGID_00000044179474432981972010000016872324413809914552_);fill:#FF7D69;" points="109.6,246.8 
				106.2,225.2 107.2,225.1 110.6,246.7 			"/>
			<polygon style="clip-path:url(#SVGID_00000044179474432981972010000016872324413809914552_);fill:#FF7D69;" points="108.6,247 
				105.3,225.3 106.2,225.2 109.6,246.8 			"/>
			<polygon style="clip-path:url(#SVGID_00000044179474432981972010000016872324413809914552_);fill:#FF7D69;" points="107.6,247.1 
				104.3,225.5 105.3,225.3 108.6,247 			"/>
			<polygon style="clip-path:url(#SVGID_00000044179474432981972010000016872324413809914552_);fill:#FF7D69;" points="104.3,225.5 
				107.6,247.1 105.6,247.3 103,225.6 			"/>
		</g>
	</g>
	<g>
		<path class="st6" d="M195,170.3L63.9,186.4c-3,0.4-5.8-1.8-6.2-4.8l-1.6-12.8c-0.4-3,1.8-5.8,4.8-6.2l131.1-16.1
			c3-0.4,5.8,1.8,6.2,4.8l1.6,12.8C200.2,167.2,198,170,195,170.3z"/>
	</g>
	<g>
		<path class="st6" d="M198.8,201L67.7,217.1c-3,0.4-5.8-1.8-6.2-4.8l-1.6-12.8c-0.4-3,1.8-5.8,4.8-6.2l131.1-16.1
			c3-0.4,5.8,1.8,6.2,4.8l1.6,12.8C204,197.9,201.8,200.7,198.8,201z"/>
	</g>
	<g>
		<g>
			<circle class="st1" cx="72.4" cy="204.7" r="3.2"/>
		</g>
		<g>
			
				<ellipse transform="matrix(0.8704 -0.4924 0.4924 0.8704 -89.1431 67.8778)" class="st1" cx="84.3" cy="203.2" rx="3.2" ry="3.2"/>
		</g>
		<g>
			
				<ellipse transform="matrix(0.8704 -0.4924 0.4924 0.8704 -86.8776 73.5565)" class="st1" cx="96.3" cy="201.8" rx="3.2" ry="3.2"/>
		</g>
		<g>
			
				<ellipse transform="matrix(0.8704 -0.4924 0.4924 0.8704 -84.612 79.2353)" class="st1" cx="108.2" cy="200.3" rx="3.2" ry="3.2"/>
		</g>
		<g>
			
				<ellipse transform="matrix(0.8704 -0.4924 0.4924 0.8704 -82.3464 84.914)" class="st1" cx="120.1" cy="198.8" rx="3.2" ry="3.2"/>
		</g>
		<g>
			<circle class="st1" cx="132" cy="197.4" r="3.2"/>
		</g>
		<g>
			
				<ellipse transform="matrix(0.1094 -0.994 0.994 0.1094 -66.5657 317.5377)" class="st1" cx="143.9" cy="195.9" rx="3.2" ry="3.2"/>
		</g>
	</g>
	<g>
		<g>
			<path class="st1" d="M126.9,169.4l-58.4,7.2c-1.5,0.2-2.9-0.9-3.1-2.4l0,0c-0.2-1.5,0.9-2.9,2.4-3.1l58.4-7.2
				c1.5-0.2,2.9,0.9,3.1,2.4l0,0C129.5,167.8,128.5,169.2,126.9,169.4z"/>
		</g>
		<g>
			<path class="st1" d="M171.4,163.9l-32.3,4c-1.5,0.2-2.9-0.9-3.1-2.4l0,0c-0.2-1.5,0.9-2.9,2.4-3.1l32.3-4
				c1.5-0.2,2.9,0.9,3.1,2.4l0,0C174,162.4,172.9,163.7,171.4,163.9z"/>
		</g>
	</g>
	<g class="st7">
		<g>
			<path class="st6" d="M200.6,100.1L60.2,279.8l5.2,42.1c0.7,5.7,5.9,9.7,11.5,9l42.4-5.2l94.2-120.6L200.6,100.1z"/>
		</g>
		<g>
			<path class="st6" d="M200.6,100.1L60.2,279.8l5.2,42.1c0.7,5.7,5.9,9.7,11.5,9l42.4-5.2l94.2-120.6L200.6,100.1z"/>
		</g>
		<g>
			<path class="st6" d="M178.1,2.1l-61.3,7.5l-77.7,99.4l9.9,80.3L189.4,9.7C188.1,4.8,183.3,1.5,178.1,2.1z"/>
		</g>
		<g>
			<path class="st6" d="M178.1,2.1l-61.3,7.5l-77.7,99.4l9.9,80.3L189.4,9.7C188.1,4.8,183.3,1.5,178.1,2.1z"/>
		</g>
	</g>
</g>
</svg>
