<?xml version="1.0" encoding="utf-8"?>
<!-- Generator: Adobe Illustrator 26.3.1, SVG Export Plug-In . SVG Version: 6.00 Build 0)  -->
<svg version="1.1" id="分離模式" xmlns="http://www.w3.org/2000/svg" xmlns:xlink="http://www.w3.org/1999/xlink" x="0px"
	 y="0px" viewBox="0 0 308 80" style="enable-background:new 0 0 308 80;" xml:space="preserve">
<style type="text/css">
	.st0{fill:#FFFFFF;}
</style>
<path class="st0" d="M238.1,77.7c4.5,0.4,9,0.3,13.5-0.4c6.8-1.1,13.3-4,20.2-4.7c6.9-0.7,13.9,0.9,20.8,0.8c5,0,14.5-2.1,15.1-8.5
	c0.6-6.6-8.9-11.8-14.2-13c-5.7-1.3-12-1.4-16.5-5.1c-2.8-2.3-4.4-5.7-6.6-8.6c-4.5-6.1-11.7-10.1-19.2-10.9
	c-3.9-0.4-7.8,0-11.7-0.5c-7.9-1.1-9.9-6.3-14.6-11.5C213.2,2.5,194-0.1,178,4.9c-10.9,3.4-21.8,9.8-32.9,7.3
	c-6.4-1.4-12-5.6-18.1-8.1c-17.9-7.5-38.6,0.2-53.4,13.6c-5.6,5.1-10.8,11-17.4,14.3C43.8,38.3,1.8,27.6,0.3,50.2
	C-1.5,76.8,46.7,66,59.2,66.7c20.8,1.2,40.6,11.2,61.2,12.9c14.6,1.2,29.2-0.3,43.6-2.4c14-2.1,28.6-3.4,42.7-3.3
	C217.2,74,227.6,76.9,238.1,77.7z"/>
</svg>
