<?xml version="1.0" encoding="utf-8"?>
<!-- Generator: Adobe Illustrator 26.3.1, SVG Export Plug-In . SVG Version: 6.00 Build 0)  -->
<svg version="1.1" id="圖層_1" xmlns="http://www.w3.org/2000/svg" xmlns:xlink="http://www.w3.org/1999/xlink" x="0px" y="0px"
	 viewBox="0 0 210 210" style="enable-background:new 0 0 210 210;" xml:space="preserve">
<style type="text/css">
	.st0{fill:#C1E0FF;}
	.st1{fill:#FFFFFF;}
	.st2{fill:#0D70E5;}
	.st3{fill:#EF4E3E;}
</style>
<g>
	<circle class="st0" cx="110" cy="110" r="100"/>
	<g>
		<path class="st1" d="M56.7,111.3c0-41,16-61,40.2-61c24,0,40,20.2,40,61s-16,61.9-40,61.9C72.7,173.2,56.7,152.1,56.7,111.3z
			 M114.7,111.3c0-33.1-7.7-42.7-17.8-42.7c-10.2,0-17.9,9.6-17.9,42.7c0,33.3,7.7,43.5,17.9,43.5
			C107,154.8,114.7,144.6,114.7,111.3z"/>
	</g>
	<path class="st2" d="M54.7,109.3c0-41,16-61,40.2-61c24,0,40,20.2,40,61s-16,61.9-40,61.9C70.7,171.2,54.7,150.1,54.7,109.3z
		 M112.7,109.3c0-33.1-7.7-42.7-17.8-42.7c-10.2,0-17.9,9.6-17.9,42.7c0,33.3,7.7,43.5,17.9,43.5C105,152.8,112.7,142.6,112.7,109.3
		z"/>
	<g>
		<path class="st1" d="M69.5,69.3c-0.1,0-0.3,0-0.4-0.1c-0.4-0.2-0.5-0.7-0.2-1c3.3-5.4,7.5-9.3,12.5-11.7c0.4-0.2,0.8,0,1,0.4
			c0.2,0.4,0,0.8-0.4,1c-4.7,2.3-8.7,6-11.9,11.2C70,69.2,69.8,69.3,69.5,69.3z"/>
		<path class="st1" d="M66.6,75.2c-0.1,0-0.3,0-0.4-0.1c-0.5-0.2-0.7-0.8-0.5-1.3c0.3-0.7,0.6-1.3,0.9-1.9c0.2-0.5,0.8-0.7,1.3-0.5
			c0.5,0.2,0.7,0.8,0.5,1.3c-0.3,0.6-0.6,1.2-0.9,1.9C67.4,75,67,75.2,66.6,75.2z"/>
	</g>
	<g>
		<path class="st2" d="M173.3,86.2H163v4.2c0,1.8-0.5,2.7-1.7,3.1c-1.2,0.5-3.1,0.5-5.8,0.5c-0.2-0.9-0.8-2.2-1.3-3.1
			c1.9,0.1,4.1,0.1,4.7,0.1c0.6,0,0.8-0.2,0.8-0.7v-4.2h-10.3v-3h10.3v-3h-8.5v-3h8.5v-3c-2.7,0.2-5.4,0.4-8,0.5
			c-0.1-0.8-0.5-2.1-0.8-2.7c6.3-0.3,13.4-1,17.7-2.1l2.2,2.6c-2.3,0.6-5,1-7.9,1.4v3.4h8.7v3H163v3h10.3V86.2z"/>
		<path class="st2" d="M156.3,114.2c-0.1-0.4-0.1-0.8-0.2-1.2c-4.6,0.7-5.5,0.9-6,1.2c-0.2-0.5-0.6-1.8-0.9-2.5
			c0.6-0.1,1.1-0.8,1.9-1.7c0.3-0.4,0.9-1.2,1.6-2.3c-1.9,0.2-2.4,0.4-2.8,0.5c-0.1-0.5-0.6-1.8-0.9-2.4c0.5-0.1,0.9-0.6,1.4-1.5
			c0.5-0.7,2-3.7,2.8-6.4l2.5,1c-0.9,2.1-2,4.4-3.2,6.3l1.7-0.1c0.6-1.1,1.2-2.3,1.7-3.5l2.3,1.4c-1.4,2.8-3.2,5.6-5,8l2.4-0.3
			c-0.2-0.7-0.4-1.4-0.6-2l2.1-0.5c0.6,1.8,1.2,4.1,1.4,5.4L156.3,114.2z M152.5,115.3c-0.2,2.4-0.6,5-1.2,6.7
			c-0.5-0.3-1.6-0.6-2.3-0.8c0.6-1.6,0.9-4,1.1-6.3L152.5,115.3z M155,114.9c0.3,1.9,0.5,4.3,0.6,6l-2.2,0.4c0-1.6-0.2-4.1-0.4-6
			L155,114.9z M157.2,114.2c0.5,1.5,1.1,3.4,1.3,4.7l-2,0.7c-0.2-1.3-0.7-3.3-1.2-4.8L157.2,114.2z M168.7,118.3
			c1.7,0.6,3.5,1.2,4.7,1.7l-1.2,2.2c-1.4-0.7-3.6-1.6-5.6-2.3l0.9-1.6h-3.8l1.6,1.5c-2.1,0.9-4.7,1.8-6.6,2.5
			c-0.2-0.6-0.7-1.5-1.1-2.1c1.4-0.5,3.4-1.2,4.9-1.9H159v-7.8h13.2v7.8H168.7z M164.1,101h-6.2v-2h6.2v-1.1h3V99h5.9v2h-5.9v0.9
			h5.1v1.8h-13.3v-1.8h5.2V101z M158,104.4h15v5.3h-15V104.4z M160.5,107.8h1.9v-1.6h-1.9V107.8z M161.7,112.9h7.5v-0.8h-7.5V112.9z
			 M161.7,114.8h7.5V114h-7.5V114.8z M161.7,116.7h7.5v-0.8h-7.5V116.7z M166.4,107.8v-1.6h-1.7v1.6H166.4z M170.3,106.3h-1.7v1.6
			h1.7V106.3z"/>
		<path class="st2" d="M167.4,146.2c2.1,0.7,4.2,1.5,5.6,2.1l-2.3,1.8c-1.7-0.8-4.6-2.1-7.4-3l1-1H158l1.9,0.9
			c-2.1,1.3-5.5,2.5-8.1,3.1c-0.5-0.6-1.6-1.7-2.2-2.2c2.4-0.4,4.9-1,6.8-1.8h-3.4v-7.7c-0.6,0.1-1.2,0.3-1.9,0.4
			c-0.3-0.7-1-1.8-1.5-2.4c3.1-0.4,4.9-1,6.1-1.8h-4.2c0.3-1.3,0.6-3.2,0.8-4.7h5v-1h-5.9V127h5.9v-1.1h2.8v1.1h2.9v-1.1h2.9v1.1
			h5.5v4.7h-5.5v1.1h7.2c0,0,0,0.5,0,0.8c-0.1,1.6-0.3,2.5-0.7,3c-0.4,0.4-0.9,0.6-1.5,0.6c-0.1,0-0.3,0-0.4,0v8.9H167.4z
			 M154.4,132.8h2.5c0.1-0.4,0.2-0.8,0.2-1.1h-2.5L154.4,132.8z M155.9,138v1h11.2v-1H155.9z M155.9,140.7v1.1h11.2v-1.1H155.9z
			 M155.9,144.4h11.2v-1.1h-11.2V144.4z M159.2,134.6c-0.3,0.6-0.7,1.1-1.2,1.6h4.7v-1.6H159.2z M162.8,131.7h-2.9
			c0,0.4-0.1,0.8-0.1,1.1h3V131.7z M159.9,129.9h2.9v-1h-2.9V129.9z M165.7,128.8v1h2.7v-1H165.7z M165.7,134.6v1.6h2.3
			c-0.1-0.3-0.2-0.6-0.4-0.9c0.6,0.1,1.2,0.1,1.5,0.1c0.2,0,0.4,0,0.5-0.2c0.1-0.1,0.2-0.3,0.2-0.7H165.7z"/>
	</g>
	<circle class="st3" cx="30" cy="30" r="30"/>
	<g>
		<g>
			<path class="st1" d="M21.4,11.3c-0.2,0.7-0.5,1.5-0.8,2.2V22h-1.4v-6c-0.3,0.4-0.5,0.7-0.8,1c-0.1-0.3-0.5-1.2-0.7-1.5
				c0.9-1.1,1.8-2.9,2.3-4.6L21.4,11.3z M29.1,17.4H28c0.2,0.2,0.4,0.5,0.5,0.6l-0.8,0.5c-0.1-0.2-0.4-0.6-0.7-0.8
				c-0.1,0.5-0.4,0.7-1,0.7h-1c-0.1,0.1-0.2,0.2-0.3,0.4h2.4l0.2,0l0.9,0.5c-0.4,0.6-0.9,1.1-1.7,1.5c0.8,0.2,1.6,0.3,2.6,0.3
				c-0.3,0.3-0.5,0.7-0.7,1c-1.3-0.1-2.4-0.4-3.4-0.7c-1,0.3-2.2,0.6-3.5,0.8c-0.1-0.3-0.4-0.7-0.7-1c1-0.1,1.9-0.2,2.7-0.4
				c-0.2-0.1-0.5-0.3-0.7-0.4c-0.3,0.2-0.6,0.4-1,0.5c-0.2-0.3-0.5-0.6-0.8-0.8c0.4-0.1,0.7-0.3,1-0.4c-0.2-0.2-0.3-0.3-0.4-0.5
				l1-0.4c0.1,0.1,0.2,0.2,0.3,0.3c0.3-0.2,0.6-0.5,0.8-0.7c-0.2-0.1-0.3-0.3-0.4-0.7c-0.3,0.4-0.6,0.7-0.9,1l-0.8-0.6
				c0.2-0.1,0.4-0.3,0.6-0.5h-1.1v-1.7h1.1v-3h2c0-0.1,0.1-0.3,0.1-0.4h-2.8v-1h7.4v1h-3.2l-0.2,0.4h2.6v3h1V17.4z M27.3,16.7
				c0.2,0.2,0.4,0.3,0.6,0.5v-0.7h-2.3c0.3,0.2,0.5,0.4,0.6,0.6l-0.8,0.5c-0.2-0.2-0.6-0.6-0.9-0.9l0.4-0.2h-2.5v0.8
				c0.2-0.2,0.4-0.4,0.5-0.6l0.6,0.3v-0.2h1.1v0.5c0,0.2,0.1,0.3,0.4,0.3h1.1c0.2,0,0.3-0.1,0.3-0.4c0.1,0.1,0.3,0.1,0.6,0.2
				c-0.1-0.1-0.2-0.2-0.3-0.3L27.3,16.7z M23.5,13.5v0.4h3.3v-0.4H23.5z M26.8,14.4h-3.3v0.4h3.3V14.4z M23.5,15.7h3.3v-0.4h-3.3
				V15.7z M25,20.2c0.5-0.2,0.9-0.4,1.2-0.6l-2.5,0C24.1,19.8,24.6,20,25,20.2z"/>
			<path class="st1" d="M30.7,21c0.5-0.6,0.9-1.4,1.1-2.1l1.2,0.5c-0.3,0.8-0.6,1.7-1.1,2.3L30.7,21z M35.4,12.5h-4.4v-1.1h4.4v-0.6
				h1.5v0.6h4.5v1.1h-4.5v0.5h3.7v3.5h-1.2c0.8,0.4,1.6,1,2.1,1.5l-1,0.8c-0.2-0.2-0.3-0.3-0.6-0.5c-1.1,0-2.3,0-3.4,0.1
				c0.6,0.4,1.1,0.8,1.4,1.2l-1,0.8c-0.4-0.4-1.1-1.1-1.8-1.5l0.6-0.5c-1.7,0-3.3,0-4.6,0.1l-0.1-1.2c1.2,0,2.7,0,4.3,0v-0.7h-3.6
				v-3.5h3.6V12.5z M33.1,14.4h2.3v-0.6h-2.3V14.4z M35.4,15.8v-0.6h-2.3v0.6H35.4z M37.6,20.7c0.5,0,0.6-0.1,0.7-1
				c0.3,0.2,0.9,0.4,1.2,0.4c-0.2,1.4-0.6,1.7-1.8,1.7h-2.3c-1.7,0-2.1-0.3-2.1-1.5V19h1.4v1.4c0,0.3,0.1,0.4,0.8,0.4H37.6z
				 M36.9,13.9v0.6h2.2v-0.6H36.9z M36.9,15.8h2.2v-0.6h-2.2V15.8z M38.4,17.3c-0.2-0.1-0.4-0.2-0.6-0.3l0.5-0.4h-1.5v0.7L38.4,17.3
				z M40.4,18.9c0.6,0.7,1.1,1.7,1.2,2.3l-1.3,0.4c-0.1-0.6-0.6-1.6-1.2-2.4L40.4,18.9z"/>
		</g>
	</g>
	<g>
		<g>
			<path class="st1" d="M23.9,45h4.5V31.9h-3.8v-2.5c2.1-0.4,3.5-0.9,4.8-1.7h3.1V45h3.9v3.3H23.9V45z"/>
		</g>
	</g>
</g>
</svg>
