<?xml version="1.0" encoding="utf-8"?>
<!-- Generator: Adobe Illustrator 26.3.1, SVG Export Plug-In . SVG Version: 6.00 Build 0)  -->
<svg version="1.1" id="圖層_1" xmlns="http://www.w3.org/2000/svg" xmlns:xlink="http://www.w3.org/1999/xlink" x="0px" y="0px"
	 viewBox="0 0 280 312" style="enable-background:new 0 0 280 312;" xml:space="preserve">
<style type="text/css">
	.st0{fill:#ABD9FF;}
	.st1{fill:#8DC6FF;}
	.st2{fill:#F89B25;}
	.st3{fill:#912524;}
	.st4{fill:#F16134;}
	.st5{fill:#FFFFFF;}
	.st6{fill:#8D84BE;}
	.st7{fill:#6B649D;}
	.st8{fill:#446EB4;}
	.st9{fill:#5390CC;}
	.st10{fill:#00A69C;}
	.st11{fill:#FFE576;}
	.st12{fill:#F5E8D8;}
	.st13{fill:#EA5744;}
	.st14{fill:#DD4337;}
	.st15{fill:#518B3F;}
	.st16{fill:#6A97CF;}
	.st17{fill:#6370B4;}
	.st18{fill:#E87454;}
	.st19{fill:#FC866B;}
	.st20{fill:#7DC145;}
	.st21{fill:#4C6C89;}
	.st22{fill:#7E8082;}
	.st23{fill:#929496;}
	.st24{fill:#B1B3B5;}
	.st25{fill:#D0D2D3;}
	.st26{fill:#1EAFAF;}
	.st27{fill:#07928F;}
	.st28{fill:#007872;}
	.st29{fill:#FFD400;}
	.st30{fill:#1C0D5B;}
</style>
<circle class="st0" cx="152.9" cy="171.3" r="121"/>
<path class="st1" d="M112.1,214.2h-10v-32.8H86.5v-35.9H55.8v70.9H40.6v-54.7h-8.3c-0.3,3.2-0.4,6.4-0.4,9.6c0,5.3,0.3,10.6,1,15.7
	v-0.8h3.2v6.1h-2.4c0.2,1.4,0.5,2.7,0.8,4.1h1.6v6.1H36c7.7,29.1,26,53.9,50.5,70v-0.1h13v2h16.8v-5h36.5v-92.4h-40.5V214.2z
	 M36.2,182.2h-3.2v-6.1h3.2V182.2z M36.2,172.1h-3.2V166h3.2V172.1z M81.8,203.4H60v-3.5h21.8V203.4z M81.8,193.7H60v-3.5h21.8
	V193.7z M81.8,184.7H60v-3.5h21.8V184.7z M82,174.9H60.2v-3.5H82V174.9z M82,165.9H60.2v-3.5H82V165.9z M82,155H60.2v-3.5H82V155z"
	/>
<g>
	<path class="st1" d="M250.9,225.5v-66.3h-41.4v37.5H194v-32.7V149v-15h-14.7v15h-25.8v118.1h36v19h1.4
		c30.6-10.1,55.9-32.2,70.2-60.7H250.9z M230.4,189.4h-6v-25.5h6V189.4z M243.2,189.4h-6v-25.5h6V189.4z"/>
	<path class="st1" d="M261.2,225.4c2.9-5.7,5.3-11.6,7.2-17.8h-1.8v-10h4.4c0.4-1.9,0.8-3.8,1.1-5.7h-11V225.4z"/>
</g>
<path class="st2" d="M129.4,8.5c-1.4,1.4-3.7,1.4-5.1,0c-1.4-1.4-1.4-3.7,0-5.1c1.4-1.4,7.9-2.8,7.9-2.8S130.8,7.1,129.4,8.5z"/>
<path class="st3" d="M132.7,5.8c0,3.4-2.7,6.1-6.1,6.1l-1.1-2.5l1.1-1.7L132.7,5.8z"/>
<path class="st4" d="M120.6,5.8c0,3.4,2.7,6.1,6.1,6.1V7.6L120.6,5.8z"/>
<path class="st5" d="M126.7,4.4c0,0.6-0.5,1.1-1.1,1.1c-0.6,0-1.1-0.5-1.1-1.1c0-0.6,0.5-1.1,1.1-1.1C126.2,3.4,126.7,3.8,126.7,4.4
	z"/>
<polygon class="st1" points="85.2,140.1 71.8,115.5 71.8,100.1 68.9,100.1 68.9,115.5 56.7,140.1 "/>
<rect x="208.7" y="144.3" class="st1" width="42.2" height="9.4"/>
<rect x="237.5" y="129.4" class="st1" width="13.3" height="9.4"/>
<path class="st1" d="M267.1,186.3h5.9c0.6-4.9,0.9-9.9,0.9-15c0-2.9-0.1-5.9-0.3-8.8h-6.5V186.3z"/>
<path class="st1" d="M40.2,156.5v-7.9h-6.1c-0.5,2.6-0.9,5.2-1.2,7.9H40.2z"/>
<path class="st6" d="M184.2,177.2h3v46.2h-19.3v57.4h19.3h17.4c3-1.4,6-3,8.9-4.7v-98.9h3v-7.4h-32.3V177.2z"/>
<rect x="194.4" y="171.1" class="st7" width="4.4" height="109.6"/>
<path class="st7" d="M202.9,280.8h1.7c0.9-0.4,1.8-0.9,2.7-1.3V171.1h-4.4V280.8z"/>
<path class="st8" d="M256.7,233.5l-8.1-2.6v14.4C251.6,241.5,254.3,237.6,256.7,233.5z"/>
<path class="st9" d="M255.6,235.4V233l-6.9-2.3v14.6C251.1,242.1,253.4,238.8,255.6,235.4z"/>
<path class="st10" d="M51.4,237.1v-24.2H39.3C42.4,221.4,46.5,229.6,51.4,237.1z"/>
<path class="st11" d="M187.4,281.6h15.4c2.1-0.9,4.1-1.9,6.1-3v-43.8h-21.5V281.6z"/>
<rect x="187.4" y="229.6" class="st12" width="21.5" height="5.1"/>
<rect x="187.4" y="234.7" class="st5" width="5" height="46.8"/>
<path class="st13" d="M219.1,272.6c8.8-5.8,16.8-12.6,23.8-20.4V205h-23.8V272.6z"/>
<path class="st14" d="M233.8,261.3c3.2-2.9,6.3-5.9,9.1-9.1V205h-9.1V261.3z"/>
<path class="st15" d="M205.5,262.5v17.8c9.8-4.7,18.8-10.7,26.9-17.8H205.5z"/>
<g>
	<path class="st16" d="M75.2,264c8.6,7.2,18.3,13.3,28.7,17.9h11.9V157l-40.6,21.9V264z"/>
	<polygon class="st17" points="115.8,157 103.8,163.3 103.8,266.4 115.8,282 	"/>
	<g>
		<rect x="80.7" y="182.5" class="st17" width="31" height="4.9"/>
	</g>
	<g>
		<rect x="80.7" y="194" class="st17" width="31" height="4.9"/>
	</g>
	<g>
		<rect x="80.7" y="205.4" class="st17" width="31" height="4.9"/>
	</g>
</g>
<path class="st18" d="M56.2,244c8.6,11.5,19.3,21.4,31.4,29.2v-44.6H56.2V244z"/>
<rect x="56.2" y="223" class="st5" width="31.4" height="5.6"/>
<path class="st19" d="M78.5,266.7c2.9,2.3,5.9,4.4,9.1,6.4v-44.6h-9.1V266.7z"/>
<path class="st20" d="M74.8,263.7c20.5,17.4,46.9,28,75.8,28.6v-28.6h-43.1v3.8H91.2v-3.8H74.8z"/>
<g>
	<g>
		<path class="st20" d="M214.3,265.5l-54.3,0v24.4h17.2c13.3-2.7,25.8-7.6,37.2-14.3V265.5z"/>
		<path class="st20" d="M219.2,270.4v2.2c1.1-0.7,2.2-1.4,3.2-2.2H219.2z"/>
	</g>
</g>
<path class="st21" d="M152.9,292.3c12.1,0,23.8-1.8,34.8-5.1h-69.6C129.1,290.5,140.8,292.3,152.9,292.3z"/>
<g>
	<rect x="130.7" y="242.4" class="st22" width="44.2" height="4.5"/>
	<rect x="130.7" y="197" class="st23" width="44.2" height="47.7"/>
	<rect x="125.5" y="252.3" class="st24" width="54.7" height="19.2"/>
	<polygon class="st23" points="175,246.9 130.7,246.9 125.5,252.3 180.2,252.3 	"/>
	<rect x="148.9" y="212.9" class="st22" width="8" height="21.9"/>
	<rect x="136" y="212.9" class="st22" width="8" height="21.9"/>
	<rect x="161.3" y="212.9" class="st22" width="7.9" height="21.9"/>
	<rect x="130.7" y="240.2" class="st24" width="44.2" height="4.5"/>
	<rect x="130.7" y="197" class="st22" width="44.2" height="11.4"/>
	<rect x="124.8" y="197" class="st25" width="56.1" height="8.4"/>
	<rect x="125.5" y="263.9" class="st23" width="54.7" height="7.6"/>
	<path class="st24" d="M103,281.6c4.9,2.2,9.9,4.1,15.1,5.7h69.6c5.3-1.6,10.4-3.5,15.3-5.8v-10H103V281.6z"/>
	<path class="st23" d="M201.1,282.3h-96.3c4.3,1.9,8.8,3.5,13.3,4.9h69.6C192.3,285.8,196.8,284.2,201.1,282.3z"/>
	<rect x="103" y="271.5" class="st5" width="100.1" height="2.9"/>
	<g>
		<g>
			<polygon class="st26" points="173.8,151.2 173.8,166.9 172.1,169.5 172.1,188 133.5,188 133.5,182.2 141.3,153.5 170.8,138.9 			
				"/>
			<path class="st27" d="M133.5,183.2c2.9-2.2,6.4-7.1,8.6-10.2c2.1-3.1,7-4.1,11.4-5c4.4-0.9,8.3-2.8,8.3-8.2c0-4.3,0.6-7,2.5-7
				c1.9,0.1,4.5,4.5,4.5,2.1c0-2.1,1.1-4.2,3.1-4.2s1.9,2.6,1.9,2.6v-9.6l-3.1-4.2l-19,1.7l-17.7,28.6L133.5,183.2z"/>
			<path class="st28" d="M181.1,99.4c-2-1.2-1.2-3.1,0-5.2c1.2-2,2.4-3.3,4.4-2.1l-1.6,8.7L179,109l0,2.2c0,0,0,3.7-2.6,6.5
				c-1.5,1.7-6.9,8.7-6.9,8.7l0.6-19.8L181.1,99.4z"/>
			<polygon class="st27" points="185.5,92.1 169.5,81.1 166.8,90.1 170.4,94.6 			"/>
			
				<rect x="160.9" y="88.7" transform="matrix(0.5185 -0.8551 0.8551 0.5185 2.4592 195.8123)" class="st27" width="28.5" height="14.1"/>
			
				<rect x="159.8" y="89.3" transform="matrix(0.5185 -0.8551 0.8551 0.5185 2.4945 194.6053)" class="st26" width="28.5" height="11.6"/>
			<path class="st27" d="M173.7,111.5v32.2l-8.4,6.7l-3.6-23.3v-13l8.7-7.7c0,0,0.7,0.5,1.9,1.4C174,109,173.7,111.5,173.7,111.5z"
				/>
			<path class="st26" d="M170.4,109.5v0.8v32.4c0,0-7.8,4.9-14.1,9c-4.3,2.8-1.7,4,0,4.5c1.7,0.6,4.5,1.8-1.4,4.9
				c-5.9,3.1-12.3,6.2-13.7,8.6c-1.4,2.4-4.2,6.1-6.2,6.5c-2,0.3,2-19.5,2-19.5l7.1-36l5.9-21.9l19.2,3.1L170.4,109.5z"/>
			<polygon class="st28" points="159.4,54.5 159.4,50.8 154.2,48.1 150.4,48.4 151,63.1 151.5,71.8 154.1,73.4 161.7,71.4 
				161.7,68.3 159.4,65.1 159.4,54.5 			"/>
			<path class="st27" d="M159.4,62.8c0,0,0,1.1-2.5,4.1c-2.5,2.9-5.4,3.8-5.4,3.8l10.2,3.3v-6.8L159.4,62.8z"/>
			<path class="st26" d="M133.5,110.5l-2.7,13.2l2.7,6.6v18.2c0,0,12.6-8.8,22.9-26.5v-13c0,0,4.8-3.6,7.4-7.7c0,0,0-5.1,0-6.7
				c0-1.6,2.2-2.2,2.2,0c0,2.2,1.1,9.1,4.5,11.8c0,0,0-12.7,0-19.7c0-7-2.8-13.5-5.1-13.5l-22.1-1.1l-10.4,28.4L133.5,110.5z"/>
			<polygon class="st27" points="133.9,91.3 130.3,85 130.3,77 127.9,74.1 127.9,69.2 136.2,54.5 137.9,55.6 139.8,59.2 142.7,63.3 
				139,77.1 			"/>
			<polygon class="st27" points="143.4,54.3 143.4,66.2 151.5,71.8 151.5,48.3 142.9,49.1 			"/>
			<polygon class="st26" points="156.9,52.9 150.4,59.4 151.5,47.3 156.9,47.3 			"/>
			<polygon class="st5" points="151.5,59.1 146,53.2 146,47.3 151.5,47.3 			"/>
			<path class="st26" d="M151.5,57h-0.9v-5.5c-1.6,0.1-3.2,0.6-4.5,1.4V57c0,3,2.4,5.4,5.4,5.4c0,0,0,0,0,0V57z"/>
			<path class="st27" d="M151.5,57h0.9v-5.5c1.6,0.1,3.2,0.6,4.5,1.4V57c0,3-2.4,5.4-5.4,5.4c0,0,0,0,0,0V57z"/>
			<path class="st27" d="M166.6,50.7l0.8-0.1c0.3,0,0.6-0.2,0.6-0.5c0-0.3-0.3-0.5-0.5-0.5l-0.8-0.1l-7.6-0.6v1.1v1.1L166.6,50.7z"
				/>
			<path class="st27" d="M165.7,45.1l0.7-0.4c0.3-0.2,0.4-0.4,0.3-0.7c-0.1-0.3-0.4-0.3-0.7-0.3l-0.8,0.2l-7.2,2.3l0.4,1l0.4,1
				L165.7,45.1z"/>
			<path class="st26" d="M152,35.2l-0.1-0.8c0-0.3-0.2-0.6-0.5-0.6c-0.3,0-0.5,0.3-0.5,0.5l-0.1,0.8l-0.6,7.6h1.1h1.1L152,35.2z"/>
			<path class="st26" d="M141.7,38.9l-0.6-0.6c-0.2-0.2-0.5-0.3-0.7-0.1c-0.2,0.2-0.2,0.5,0,0.7l0.5,0.6l4.7,5.9l0.8-0.7l0.8-0.7
				L141.7,38.9z"/>
			<path class="st27" d="M161.7,39.4l0.5-0.7c0.2-0.3,0.2-0.6,0-0.7c-0.2-0.2-0.5-0.1-0.7,0.1l-0.6,0.6l-5.2,5.5l0.8,0.7l0.9,0.7
				L161.7,39.4z"/>
			<path class="st26" d="M136.5,49.8l-0.8,0.1c-0.3,0-0.6,0.2-0.6,0.5c0,0.3,0.3,0.5,0.5,0.5l0.8,0.1l7.6,0.6v-1.1v-1.1L136.5,49.8z
				"/>
			<path class="st26" d="M136.9,45.1l-0.7-0.4c-0.3-0.2-0.4-0.4-0.3-0.7c0.1-0.3,0.4-0.3,0.7-0.3l0.8,0.2l7.2,2.3l-0.4,1l-0.4,1
				L136.9,45.1z"/>
			<path class="st28" d="M159.4,51.5c0-3.5-4.1-5.9-8.5-5.9l0.5-3.2c5.1,0,9.2,3.6,9.2,8c0,1.5-0.5,2.9-1.2,4V51.5z"/>
			<path class="st27" d="M143.6,51.5c0-3.5,3.6-5.7,7.9-5.7v-3.4c-5.1,0-9.2,3.6-9.2,8c0,1.5,0.5,2.9,1.2,4V51.5z"/>
			<path class="st27" d="M151.5,48.3v-3.2c4.4,0,7.9,2.9,7.9,6.4v1.8C156,49.4,151.5,48.3,151.5,48.3z"/>
			<path class="st26" d="M151.5,48.3v-3.2c-4.4,0-7.9,2.9-7.9,6.4v1.8C147,49.4,151.5,48.3,151.5,48.3z"/>
			<path class="st28" d="M137.9,55.6c0,0-1.3,9-10,18.5l2.4,2.9c0,0,7.3-10.5,8.3-20.1L137.9,55.6z"/>
			<path class="st28" d="M130.3,85c0,0,6-4.8,9.2-13.5l2.6,3.5l-6.8,13.6l-1.7,2.1L130.3,85z"/>
			<path class="st26" d="M129,105.8l11.6-38.2c0,0,1.6-4.9-0.8-8.4c0,0,4.6,6.2,9.5,9.9c5.3,4,7,4,7,4l-9.3,9.5l-10.2,13.2
				l-4.5,13.3L129,105.8z"/>
			<path class="st26" d="M136.5,57c0.2-1.2,0.3-2.3,0.2-3.3c-0.2-1.9-1.8-2.2-1.8-2.2l-0.2-7.4l-3.1-10.7v-6l-2.8-4.8l-2.5,4.9v16.3
				l2.2,7.7v5.1c-1.5,2.6-5.3,9.7-3.3,13.5C127.1,74.2,135,64.5,136.5,57L136.5,57L136.5,57z"/>
			<path class="st2" d="M129.4,8.5c-1.4,1.4-3.7,1.4-5.1,0c-1.4-1.4-1.4-3.7,0-5.1c1.4-1.4,7.9-2.8,7.9-2.8S130.8,7.1,129.4,8.5z"/>
			<path class="st3" d="M132.7,5.8c0,3.4-2.7,6.1-6.1,6.1l-1.1-2.5l1.1-1.7L132.7,5.8z"/>
			<rect x="124.5" y="20.6" class="st26" width="2.1" height="10.3"/>
			<rect x="124.6" y="25.3" class="st27" width="2.8" height="5.6"/>
			<rect x="126.7" y="20.6" class="st27" width="2.1" height="10.3"/>
			<rect x="122.4" y="17.7" class="st27" width="5" height="3.3"/>
			<rect x="126.7" y="18" class="st28" width="4.2" height="3.1"/>
			<polygon class="st27" points="132.7,19 126.7,19 125.8,12.9 132.7,12.9 			"/>
			<path class="st4" d="M120.6,5.8c0,3.4,2.7,6.1,6.1,6.1V7.6L120.6,5.8z"/>
			<path class="st5" d="M126.7,4.4c0,0.6-0.5,1.1-1.1,1.1c-0.6,0-1.1-0.5-1.1-1.1c0-0.6,0.5-1.1,1.1-1.1
				C126.2,3.4,126.7,3.8,126.7,4.4z"/>
			<path class="st26" d="M124.5,28.9c1.7,0,3.2-1.4,3.2-3.2c0-1.7-1.4-3.2-3.2-3.2h-2.1v6.3H124.5z"/>
			<rect x="120.6" y="12.9" class="st26" width="6.1" height="6.1"/>
			<path class="st28" d="M128.4,56.6c-0.8,1.3-2.2,3.9-3,6.6c0.7-2,2.6-1.9,3.2-0.7c0.6,1.3,0.7-4.3,0.7-4.3S129.4,54.8,128.4,56.6z
				"/>
			<path class="st27" d="M128.4,51.5l1.9,3c0,0-0.2,3.4,1.2,3.4c1.4,0,2.4-1.6,2.4-1.6s-2,7.7-4.1,7.7c-2.1,0-1.3-7.4-1.3-7.4V51.5z
				"/>
			<path class="st26" d="M151.5,70.6c1.4,0.8,8.7,0.5,10.9,0.5c1.8,0,2.8,0.4,4,1.8c1.5,1.6,2.3,4.3,2.3,4.3l-5.2-4h-10.4
				L151.5,70.6z"/>
			<path class="st27" d="M155.9,75c1.3-1,0.1-1.8-1.1-1l0,0c-2.5,1.7-7.7,5.7-13.7,13c-3.8,4.6-9,10.6-11.5,16.7
				c-2.3,5.4,1.1,7.5,3.9,6.8c0,0,0.2-9.9,9.5-21.7C147.1,83.5,152.1,78,155.9,75C155.9,75.1,155.9,75.1,155.9,75z"/>
			<path class="st27" d="M140,106.3c-5.1,10-6.5,16.6-6.5,20.4c0,1.7,0,3.6,0,3.6c-2.7,0.7-3.7-4.2-1.9-9.8
				c1.3-4.2,4.6-10.7,7.8-15.8c3.3-5.3,3.7-5.9,4.3-6.9c0.5-0.7,1.3-0.3,0.8,0.6C143.8,99.6,142.3,101.8,140,106.3z"/>
			<path class="st27" d="M153.4,126.7c-9.7,14.4-19.9,21.8-19.9,21.8v34.7c0,0,3.4-8.2,4.9-19.2c1.5-11.1,3.5-19.4,8.4-25.8
				c4.8-6.2,6.6-9.1,7.7-10.6C155.7,125.8,154.4,125.3,153.4,126.7z"/>
			<path class="st27" d="M165.9,94.6c0-2.2-2.2-1.6-2.2,0c0,1.6,0,6.7,0,6.7c-2.6,4.1-7.4,7.7-7.4,7.7v1.6c3-2.1,5.6-4.9,7-7.2
				c1-1.6,1.4-1.9,1.6-1.3l0,0c1.9,5.3,5.4,7.4,5.4,7.4v-3.1C167,103.7,165.9,96.8,165.9,94.6z"/>
			<path class="st26" d="M188.1,93.7l-2.6-1.7c-2-1.2-4.6-0.6-5.8,1.4c-1.2,2-0.6,4.6,1.4,5.8l2.8,1.5L188.1,93.7z"/>
			<polygon class="st27" points="151,168.5 151,190.6 161.7,190.6 161.7,152.8 158.1,162.4 			"/>
			<rect x="126.5" y="187.4" class="st26" width="52.5" height="6.6"/>
			<rect x="126.5" y="193.9" class="st27" width="52.5" height="3"/>
			<rect x="165.6" y="151.7" class="st27" width="3.1" height="35.6"/>
			<polygon class="st27" points="172.1,169.5 173.7,166.9 173.7,131.5 172.1,131.5 			"/>
		</g>
	</g>
</g>
<rect x="219.1" y="197" class="st13" width="23.5" height="4.2"/>
<rect x="66.6" y="97.9" class="st1" width="7.1" height="3.2"/>
<rect x="224.4" y="209.5" class="st14" width="14.5" height="3.2"/>
<rect x="224.4" y="217.6" class="st14" width="14.5" height="3.2"/>
<rect x="224.4" y="225.7" class="st14" width="14.5" height="3.2"/>
<rect x="224.4" y="233.8" class="st14" width="14.5" height="3.2"/>
<rect x="224.4" y="242" class="st14" width="14.5" height="3.2"/>
<path class="st29" d="M109.2,312c-2.1,0-4.2-0.3-6.2-1c-44.5-14.6-80.3-49.8-95.8-94c-3.6-10.4,1.8-21.7,12.2-25.4
	c10.4-3.6,21.7,1.8,25.4,12.2c11.4,32.6,37.9,58.6,70.7,69.4c10.4,3.4,16.1,14.7,12.7,25.1C125.4,306.7,117.6,312,109.2,312z"/>
<g>
	<path class="st30" d="M26.5,233l4.3,8.8l-2.5,1.2l-10-20.3l2.5-1.2l4.2,8.5l2.9-1.4l-3-6.2l2.5-1.2l3,6.2l2.7-1.3l-2.5-5l2-1
		c-1.2-0.7-2.3-1.4-3.3-2.1c0.5-0.7,1.1-1.9,1.4-2.9c2.4,2.1,5.8,4.1,9,5.3l-1.6-3.2l2.6-1.3l4,8.1c-2,3.5-3.1,8.8-2.6,13.6
		c-0.9-0.3-2.5-0.6-3.5-0.6c0-1.3,0-2.5,0.2-3.8l-2,1l-2.5-5.1l-2.7,1.3l3.1,6.2l-2.5,1.2l-3.1-6.2L26.5,233z M39.2,232.1
		c0.5-3,1.3-5.8,2.4-8.3c-2.6-0.7-5.5-1.9-8.1-3.3L39.2,232.1z"/>
	<path class="st30" d="M58,258.1c-2.3,0.1-4.9,0-6.7-0.2c-1.1,2.3-1.4,4.6-1.2,7.4c-0.9-0.2-2.2-0.3-3.1,0c-0.1-2.8,0.4-5.2,1.3-7.5
		l-3.3,2.6c-1.2,1-2.1,1.3-3.1,0.9c-1-0.4-1.9-1.3-3.2-2.9c0.6-0.6,1.3-1.9,1.7-2.7c0.8,1,1.5,2,1.8,2.3c0.2,0.3,0.5,0.4,0.8,0.1
		l3.4-2.7c-2.6-0.3-5.2-0.7-7.4-1l0.8-2.5c-2.4-1.6-4.9-3.2-6.9-4.6l1.9-2.4c0.8,0.6,1.7,1.2,2.7,1.9l5-4l-1.7-2.1l2.3-1.8l1.7,2.1
		l3.6-2.9l-1.7-2.2l2.3-1.8l5.3,6.6l-2.3,1.8l-1.7-2.1l-3.6,2.9l1.4,1.8l-2.3,1.8l-1.4-1.8l-4.3,3.5l2.3,1.6l-1.2,1.3
		c2.1,0.5,5,1.2,7.8,1.8l4.9-4l-3.8-4.8l2.3-1.8l3.8,4.8l3.3-2.7l1.9,2.4l-3.3,2.7l2.3,2.8c0.2-1,0.2-2.5,0.2-3.7l2.3,0.3
		c0.2,1.3,0.1,3.1-0.1,4.1l-2.1-0.3l1.4,1.8l-2.3,1.8l-4.1-5.1l-0.8,0.7c-1,1.1-1.8,2.2-2.5,3.2c1.6,0,3.4-0.1,4.7-0.4L58,258.1z
		 M51,247.2c-0.5,1.7-1.3,3.8-2,4.9l-2.5-1.3c0.8-1.1,1.7-3.2,2.2-4.9L51,247.2z"/>
	<path class="st30" d="M60.8,275.9c-0.8,1-1.5,1.5-2.4,1.3c-1-0.2-1.9-0.8-3-1.8c0.4-0.7,0.8-1.9,1-2.8c0.6,0.6,1.4,1.2,1.6,1.3
		c0.2,0.2,0.4,0.2,0.6,0l1.3-1.7c-1.5-0.2-2.9-0.5-4.2-0.7l0.7-2c-1.4,1.4-2.9,2.7-4.6,3.3c-0.1-0.7-0.5-2-0.8-2.6
		c2.2-0.9,4.1-3,5.5-4.7l3.3-4.1l7.9,6.3L60.8,275.9z M58.3,267.1c-0.5,0.6-1.1,1.3-1.7,2c1.1,0.4,2.8,1,4.5,1.5l1.1-1.3l-1.9,0.4
		c-0.3-0.8-0.9-2.1-1.5-3.1L58.3,267.1z M60.2,264.7l-1.4,1.7l1.8-0.4c0.6,0.9,1.3,2.2,1.6,3.1l1.4-1.7L60.2,264.7z M68.5,263.6
		l2,1.6l-1.6,2.1l-9.6-7.7l1.6-2.1l1.9,1.5c0.3-0.7,0.6-1.4,0.8-2.1l2.1,1l-2.9-2.3l1.6-2.1l3.4,2.8c0.2-0.5,0.4-1,0.5-1.4l2.7,1.2
		c-0.2,0.7-0.5,1.5-0.7,2.2l3.1,2.5l-1.6,2.1l-3-2.4l1.7,2L68.5,263.6z M71.7,283.9c-1.9,1.9-3.1,2-5,0.5l-3.1-2.5
		c-2.3-1.9-2.6-3.1-0.8-5.3l7.1-8.9l5.4,4.3l0.9-1.1l-5.4-4.3l5.1-6.4l2.4,1.9l-1.1,1.4l6.1,4.9l-1.6,2l-6.1-4.9l-0.9,1.2l5.3,4.2
		l-3.8,4.8l-5.3-4.2l-0.6,0.8l5.3,4.3l-1.1,1.4l-5.3-4.3l-0.7,0.9l5.2,4.2l-1.1,1.4l-5.2-4.2l-0.7,0.9l5.4,4.3l-1.1,1.4
		C71.1,283.1,71.4,283.5,71.7,283.9z M68.1,282.3c0.6,0.5,1,0.4,1.8-0.4l-4.4-3.5l-0.2,0.2c-0.6,0.8-0.6,1,0.3,1.7L68.1,282.3z
		 M66,258.2c-0.3,0.9-0.7,1.9-1,2.6l1.4,1.1c0.8-0.5,1.7-1.1,2.3-1.6L66,258.2z"/>
	<path class="st30" d="M85.4,291c-3.7-0.8-7.8-1.7-10.8-2.4l0.6-3c1.8,0.5,4.1,1.1,6.7,1.8l-0.5-0.4c1-1.2,2.4-3,3.2-4.5l2.5,1.9
		c-1.1,1.2-2.2,2.5-3.2,3.5l2.4,0.6L85.4,291z M77.9,285.4c0.5-1.1,1.1-3.1,1.3-4.6l2.5,0.5c-0.2,1.6-0.6,3.5-1.1,4.6L77.9,285.4z
		 M87.8,283.6l-8.4-4.1l3.3-6.7l8.4,4.1L87.8,283.6z M90.6,293.8c-1.9,0.6-4.7,0.8-6.8,0.6c-0.2-0.7-0.6-1.9-1-2.7
		c2.1,0.3,4.7,0,6.2-0.5L90.6,293.8z M92.4,275.5l-9.6-4.7l1.3-2.6l9.6,4.7L92.4,275.5z M87.5,277.9l-3.5-1.7l-1.1,2.2l3.5,1.7
		L87.5,277.9z M96.1,278.9c0.4-0.5,0.7-1,1-1.5l-3.9-1.9l1.2-2.4l11.5,5.6l-1.2,2.4l-4.5-2.2c-0.4,0.5-0.9,0.9-1.3,1.4l4.4,2.2
		L97.2,295l-10.4-5.1l6.1-12.6L96.1,278.9z M96.3,290.1l-5.1-2.5l-0.7,1.5l5.1,2.5L96.3,290.1z M94.4,294c0.9,1.5,2,3.6,2.5,4.9
		l-3,0.4c-0.4-1.3-1.5-3.5-2.3-5L94.4,294z M98,286.6l-5.1-2.5l-0.7,1.5l5.1,2.5L98,286.6z M99.6,283.2l-5.1-2.5l-0.7,1.5l5.1,2.5
		L99.6,283.2z"/>
</g>
</svg>
