<?xml version="1.0" encoding="utf-8"?>
<!-- Generator: Adobe Illustrator 26.3.1, SVG Export Plug-In . SVG Version: 6.00 Build 0)  -->
<svg version="1.1" id="圖層_1" xmlns="http://www.w3.org/2000/svg" xmlns:xlink="http://www.w3.org/1999/xlink" x="0px" y="0px"
	 viewBox="0 0 290 256" style="enable-background:new 0 0 290 256;" xml:space="preserve">
<style type="text/css">
	.st0{fill:#2185FF;}
	.st1{fill:#85C4FF;}
	.st2{fill:#C0E3FF;}
	.st3{fill:#FFD400;}
	.st4{fill:#F4AE00;}
	.st5{fill:#EF4E3E;}
	.st6{fill:#E23C34;}
	.st7{fill:#F95B53;}
	.st8{fill:#4781E7;}
	.st9{fill:#1C0D5B;}
	.st10{fill:#F4645D;}
	.st11{fill:#EBEBEB;}
	.st12{fill:#0868F4;}
</style>
<g>
	<path class="st0" d="M254.9,94.7c-3.6,11.6-26,50.7-30.4,60.4c9.9,7.5,24.8,6,32.2,1.5c2.4-1.4,4.7-3.5,5.1-6.2
		c0.4-2.8-1.3-5.8-4-6.4c4.9-0.3,9.8-1.2,14.3-3.3c4.5-2.1,8.5-5.3,10.9-9.6c1.5-2.7,2.3-6.3,0.5-8.8c-1.3-1.8-3.6-2.5-5.8-2.4
		c-1.3,0-2.6,0.4-3.8,0.8c4.9-3.3,11.4-9.2,14.1-15c2.1-4.5,3.7-12.1-1.9-16.4c-4-3.1-8.3-2.1-11-1.7L254.9,94.7z"/>
	<path class="st0" d="M160.1,62.5c1.4-4.9-4-10-7.3-11.8c-1.8-1-4.2-1.5-6.2-0.2c-1.2,0.8-1.9,2-2.4,3.2c-1.5,3.6-2.3,7.5-2.1,11.4
		c-0.5-1.3-2.6-1.2-3.9,0c-1.3,1.1-1.9,2.9-2.3,4.5c-1,4.1-0.8,8.6,0.6,12.6c-0.7-0.4-1.5-0.6-2.4-0.2c-1.4,0.6-2.4,2.5-2.8,4.3
		c-1.2,4.4-1,9.2,0.6,13.3c0.3,0.7,2.9,4.6,3.6,4.7C136.4,104.4,158.1,69.5,160.1,62.5z"/>
	<g>
		<path class="st0" d="M246.7,182.8c-1.3-2.5-4.1-3.8-6.5-3.2l5.2,10.1c0.6-0.8,1.3-1.7,1.9-2.5
			C247.6,185.7,247.5,184.2,246.7,182.8z"/>
		<path class="st0" d="M236.2,161.9c-1.2-2.6-3.9-3.9-6.4-3.5c1.6,3.6,3.3,7.1,5.1,10.6C236.9,167.4,237.5,164.5,236.2,161.9z"/>
		<path class="st0" d="M241.4,172.4c-1.3-2.6-4-3.9-6.5-3.3c1.7,3.5,3.5,7,5.3,10.5C242.1,177.9,242.7,174.9,241.4,172.4z"/>
	</g>
	<path class="st1" d="M246.1,190.2c-3.9-13.3-16.8-26.3-19-42.1c-7.1-10.4-35.5-13.4-46.4-6.7c0.3,10.7-8.3,26.9-11.5,37.3
		c-6.4,20.5-6.5,33.9-1,43.8c10.3,18.8,26,15.1,63.6,13.5C252.2,235.2,250.7,206.1,246.1,190.2z"/>
	<path class="st2" d="M177.1,167.3c6.6-9.6,23.8,5.5,23.8,23.2c0,17.7-12.2,34.2-24.5,35.4C164.1,227,166.6,182.6,177.1,167.3z"/>
	<g>
		<g>
			<path class="st3" d="M144.6,115.2c0.1,1.8,0.1,3.6,0,5.3c-0.2,3.9-0.9,8.9-3,12.4c-2,3.2-5.3,2.8-8.7,2.6
				c-26.7-1.8-53.4-2.4-80.2-1.4c-3.8,0.1-8,0.8-11.8,0.5c-0.9-0.1-1.9-0.1-2.7-0.6c-2.5-1.9-1.9-7.6-2-10.3
				c-0.2-9.6,1.2-21.9,6.6-30.2c2.2-3.3,4.7-2.8,8.3-2.1c5.4,1.1,10.7,2.6,15.8,4.6c4.9,1.9,9.6,4.3,13.8,7.3
				c1.9,1.3,3.6,2.8,5.3,4.5c7.5-6,15.6-11.2,24.4-15.5c5.2-2.5,11.6-6,17.4-6.8c4.6-0.6,6.6,2.4,8.9,6
				C141.1,98.5,144.1,106.8,144.6,115.2z"/>
			<path class="st4" d="M144.6,115.2c0.1,1.8,0.1,3.6,0,5.3c-0.2,3.9-0.9,8.9-3,12.4c-2,3.2-5.3,2.8-8.7,2.6
				c-26.7-1.8-53.4-2.4-80.2-1.4c-3.8,0.1-8,0.8-11.8,0.5c-0.9-0.1-1.9-0.1-2.7-0.6c-2.5-1.9-1.9-7.6-2-10.3
				c-0.2-9.6,1.2-21.9,6.6-30.2c2.2-3.3,4.7-2.8,8.3-2.1c5.4,1.1,10.7,2.6,15.8,4.6c4.9,1.9,9.6,4.3,13.8,7.3
				c-6.8-3.6-14.5-5.4-22.2-5.2c-3.7,0.1-7.9,1.1-9.5,4.4c-1.2,2.7-0.2,6,1.8,8.1c2,2.1,4.8,3.3,7.6,4.4c17.4,6.5,36.5,8.4,55,6.6
				C124.1,120.5,134.5,118.3,144.6,115.2z"/>
		</g>
		<g>
			<rect x="5.9" y="139.1" class="st5" width="172.2" height="109.7"/>
			<polygon class="st6" points="178,154.4 5.9,157.1 5.9,139.1 178,139.1 			"/>
			<rect y="128.5" class="st7" width="183.9" height="21.4"/>
		</g>
		<rect x="83.1" y="128.4" class="st3" width="18" height="120.5"/>
	</g>
	<g>
		<g>
			<path class="st0" d="M254.7,193.4c1-2.3,0.3-5.2-2-6.7c-2.2-1.5-5.1-1.1-6.9,0.6C248.9,189.3,251.9,191.2,254.7,193.4z"/>
		</g>
		<g>
			<path class="st0" d="M262.9,200.1c0.7-1.1,0.9-2.3,0.7-3.6c-0.2-1.2-0.9-2.4-1.9-3.3c-2.1-1.7-5.1-1.6-6.9,0.1
				C257.6,195.5,260.4,197.7,262.9,200.1z"/>
		</g>
		<g>
			<path class="st0" d="M269.8,207.9c0.9-0.9,1.3-2.1,1.4-3.4c0.1-1.3-0.5-2.5-1.3-3.6c-1.9-2.1-4.8-2.3-6.9-0.9
				C265.4,202.5,267.8,205,269.8,207.9z"/>
		</g>
		<g>
			<path class="st0" d="M274.4,217c1.1-0.6,1.9-1.6,2.3-2.8c0.2-0.6,0.3-1.3,0.2-1.9c-0.1-0.6-0.3-1.3-0.6-1.9
				c-0.6-1.3-1.7-2.1-2.9-2.6c-1.1-0.4-2.4-0.4-3.6,0.1C271.7,210.7,273.3,213.7,274.4,217z"/>
		</g>
		<g>
			<path class="st0" d="M275.8,227c1.3-0.2,2.3-0.9,3-1.9c0.4-0.5,0.7-1.1,0.8-1.7c0.2-0.6,0.2-1.3,0.1-2c-0.1-0.7-0.3-1.4-0.6-1.9
				c-0.4-0.6-0.8-1-1.3-1.4c-1-0.8-2.2-1.1-3.5-1C275.4,220.2,275.8,223.6,275.8,227z"/>
		</g>
		<g>
			<path class="st0" d="M273.4,236.1c1.1,0.5,2.4,0.5,3.6,0c0.6-0.3,1.1-0.7,1.6-1.2c0.4-0.5,0.7-1.2,1-2c0.1-0.7,0.2-1.5,0.1-2.2
				c-0.2-0.6-0.4-1.2-0.8-1.8c-0.7-1-1.7-1.7-3-2c-0.1,1.7-0.2,3.5-0.5,4.9C274.9,233.4,274.2,234.8,273.4,236.1z"/>
		</g>
		<g>
			<path class="st0" d="M266,242.6c0.8,0.9,2,1.6,3.2,1.6c1.3,0.1,2.6-0.3,3.7-1.2c0.5-0.5,1-1,1.3-1.6c0.3-0.6,0.5-1.3,0.5-1.9
				c0-1.3-0.5-2.5-1.3-3.3C271.6,238.7,269,240.9,266,242.6z"/>
		</g>
		<g>
			<path class="st0" d="M256.5,246.6c1.2,2.2,4,3.3,6.6,2.2c2.6-1.1,3.8-3.9,2.9-6.3C263,244.3,259.8,245.6,256.5,246.6z"/>
		</g>
		<g>
			<path class="st0" d="M246.2,249.2c1,2.3,3.6,3.7,6.2,3.1c2.7-0.6,4.3-3.1,4.1-5.6C253.1,247.7,249.7,248.5,246.2,249.2z"/>
		</g>
		<g>
			<path class="st0" d="M235.6,250.7c0.8,2.4,3.2,4,5.9,3.6c2.7-0.4,4.6-2.6,4.6-5.2C242.7,249.9,239.2,250.4,235.6,250.7z"/>
		</g>
		<g>
			<path class="st0" d="M224.9,251.4c0.6,2.5,2.9,4.3,5.6,4.1c2.7-0.2,4.8-2.3,5-4.8C232.1,251.1,228.5,251.3,224.9,251.4z"/>
		</g>
		<g>
			<path class="st0" d="M214.1,251.5c0.5,2.5,2.8,4.3,5.5,4.3c1.3,0,2.5-0.5,3.5-1.3c1-0.8,1.6-1.9,1.9-3.1l-5.4,0.1
				C217.7,251.5,215.9,251.5,214.1,251.5z"/>
		</g>
		<g>
			<path class="st0" d="M203.4,251.2c0.4,2.5,2.5,4.5,5.2,4.6c2.7,0.1,5-1.8,5.5-4.2C210.6,251.5,207,251.4,203.4,251.2z"/>
		</g>
		<g>
			<path class="st0" d="M192.7,250.2c0.1,1.3,0.7,2.4,1.5,3.3c0.9,0.9,2.1,1.5,3.4,1.6c2.7,0.2,5.1-1.5,5.7-3.9
				C199.8,251,196.3,250.7,192.7,250.2z"/>
		</g>
		<g>
			<path class="st0" d="M182.2,248.4c0,2.6,1.8,4.8,4.5,5.3c2.7,0.4,5.2-1.1,6-3.5C189.2,249.8,185.7,249.2,182.2,248.4z"/>
		</g>
		<g>
			<path class="st0" d="M172,245.7c-0.3,2.5,1.3,5,4,5.7c2.6,0.7,5.3-0.6,6.3-2.9C178.7,247.7,175.3,246.8,172,245.7z"/>
		</g>
		<g>
			<path class="st0" d="M162.1,241.8c-0.6,2.5,0.7,5.1,3.3,6.1c1.3,0.5,2.6,0.5,3.8,0.1c1.2-0.4,2.2-1.2,2.8-2.3
				C168.6,244.6,165.3,243.3,162.1,241.8z"/>
		</g>
		<g>
			<path class="st0" d="M152.8,236.7c-0.4,1.2-0.4,2.5,0,3.6c0.4,1.2,1.3,2.2,2.5,2.8c2.4,1.3,5.3,0.6,6.8-1.4
				C158.9,240.2,155.8,238.6,152.8,236.7z"/>
		</g>
	</g>
	<path class="st1" d="M224.7,168.4c0.4-9.9-21.6-9.8-24.1-9.2c-8.2,1.8-16.6,2-23.3-0.7c-1.1-1-2.2-1.6-3.3-2.7
		c-0.1-0.1-0.2-0.2-0.3-0.2c-0.2,0-0.3,0.3-0.3,0.6c0,0.7,0,1.5,0,2.4c-1.9,0-4.3,0-4.6,0.3c-0.2,0.2,1,1.8,1.5,2.5
		c-0.7,0.3-2.9,1.3-3.1,1.7c-0.1,0.4,1.3,2.6,1.8,3.3c-0.6,0.5-2.1,1.6-2.2,1.9c-0.1,0.6,4.5,2.7,6.1,3.2c0,0,12.4,8.8,25.9,10.1
		C211,182.8,224.4,176.7,224.7,168.4z"/>
	<g>
		<path class="st8" d="M194.3,215.3c12.1,2.1,24.2,13.8,7.5,22.1c-5.3,2.6-14.1,2.3-24,1.2c-6-0.7-9.8,2.9-14.9-1.1
			C158.8,234.2,186.7,214,194.3,215.3z"/>
		<path class="st1" d="M176,216.1c6.6-3.7,16-7.7,23.6-6.4c12.1,2.1,14.3,12.8,10.1,20.1c-4.9,8.6-14.9,9-30.8,7.1
			c-6-0.7-11.2,4.4-16.2,0.4c-4.2-3.4-2.8-8.9,1-17.1c2.3-5,4.4-7.3,7.3-7C173,213.4,174.3,217.1,176,216.1z"/>
		<path class="st8" d="M165.5,214.3c-0.3,0.5,0.8,3.5,1.1,3.7c0.4,0.4,3.4,0.3,4-1c0.7-1.3-0.9-3.4-1.4-3.8
			C168.9,212.9,165.8,213.9,165.5,214.3z"/>
		<path class="st8" d="M162.9,218.7c-0.4,0.5,0.6,3.5,0.8,3.8c0.4,0.4,3.3,0.5,4.1-0.7c0.8-1.2-0.7-3.5-1.1-3.9
			C166.4,217.5,163.2,218.3,162.9,218.7z"/>
		<path class="st8" d="M160.4,224c-0.3,0.6,1.3,3.3,1.6,3.5c0.4,0.3,3.4-0.2,3.9-1.5c0.5-1.3-1.4-3.3-1.9-3.6
			C163.5,222.1,160.6,223.5,160.4,224z"/>
		<path class="st8" d="M158.8,229.5c-0.2,0.6,1.7,3.1,2,3.3c0.5,0.2,3.3-0.6,3.6-2c0.3-1.4-1.8-3-2.3-3.3
			C161.6,227.2,158.9,229,158.8,229.5z"/>
	</g>
	<g>
		<g>
			<path class="st1" d="M253.9,77.2c2.2-3.8,6.4-6.2,10.6-7.5c4.2-1.3,8.7-1.7,12.9-2.7c4.3-1,8.5-2.6,11.4-5.6
				c-2.2,8.6-1,18.6-6.1,26.5c-4.6,7.2-13.6,11.4-22.3,10.4C258.2,91,256,84.3,253.9,77.2z"/>
			<path class="st8" d="M259.1,88.5c1.7-3,4.9-4.8,8-6.1c3.2-1.3,6.5-2.1,9.4-3.9c-0.9,3.2-2.8,6-5.4,8.1c-2.7,2.2-8,4.2-11.4,4.4
				L259.1,88.5z"/>
		</g>
		<g>
			<path class="st1" d="M181.3,53.4c1.3-4.2,0.3-8.7-1.6-12.7c-1.9-3.9-4.6-7.4-6.8-11.2c-2.2-3.8-4-8-3.7-12.4
				c-4.8,8-12.7,14.4-14.9,23.5c-1.9,8,1.1,17,7.5,22.2C168.4,59.5,174.7,56.6,181.3,53.4z"/>
			<path class="st8" d="M169.6,57.2c1-3.1,0.2-6.6-1-9.7c-1.2-3.1-2.8-6-3.5-9.3c-1.7,2.8-2.4,6.1-2.1,9.4c0.3,3.3,2.3,8.3,4.4,10.8
				L169.6,57.2z"/>
		</g>
		<path class="st1" d="M220.5,41.4c-23.1-7.7-43.2-0.6-58.4,15.4c-3.9,4.1-10.5,14.6-16.2,29.3c-4.8,12.4-13.9,15.1-11.1,28.3
			c3.1,14.6,16.3,26,41.1,37.1c18.5,8.3,48.5,17.1,66.7-1.7C267.5,123.9,274,59.2,220.5,41.4z"/>
		<g>
			<path class="st9" d="M171.6,122.9c-1-1.2-1.5-2.6-1.4-3.9c0-0.3,0.3-0.5,0.6-0.5c0.3,0,0.5,0.3,0.5,0.6c-0.1,1.3,0.5,2.8,1.8,3.8
				c1,0.8,2.4,1.4,4.2,1.7c0.3,0.1,0.7,0.1,1,0.1c1.4,0.2,2.9,0.4,4.2,1.2c1.1,0.7,1.8,1.7,2.6,2.6c3.3,3.6,9,4.8,13.5,3
				c0.3-0.1,0.6,0,0.8,0.3c0.1,0.3,0,0.6-0.3,0.7c-4.9,2-11.2,0.7-14.8-3.2c-0.8-0.9-1.5-1.8-2.4-2.4c-1-0.7-2.3-0.9-3.7-1.1
				c-0.3,0-0.7-0.1-1-0.2c-2-0.3-3.6-1-4.8-1.9C172.1,123.4,171.9,123.2,171.6,122.9z"/>
		</g>
		
			<ellipse transform="matrix(0.4766 -0.8791 0.8791 0.4766 -18.5112 186.8523)" class="st10" cx="147.7" cy="109" rx="9.9" ry="11.7"/>
		
			<ellipse transform="matrix(0.4766 -0.8791 0.8791 0.4766 -6.9677 272.3278)" class="st10" cx="225.2" cy="142" rx="11.5" ry="13.6"/>
		<path class="st9" d="M183.2,117.1c-0.1-0.2-0.3-0.5-0.4-0.7c-0.2-0.3-0.4-0.6-0.6-0.9c-0.2-0.3-0.3-0.6-0.4-0.9
			c-0.1-0.4-0.1-0.8,0.4-0.8c0.3,0,0.6,0.3,0.7,0.6c0.1,0.3,0.3,0.7,0.3,1C183.2,115.7,183.2,116.5,183.2,117.1z"/>
		<path class="st9" d="M186.7,119.2c0.3-0.1,0.6-0.1,0.9-0.2c0.4-0.1,0.8-0.1,1.2-0.2c0.4-0.1,0.8-0.2,1.1-0.4
			c0.4-0.2,0.7-0.6,0.4-1c-0.2-0.3-0.7-0.2-1-0.1c-0.4,0.1-0.8,0.3-1.1,0.5C187.9,118,187.1,118.7,186.7,119.2z"/>
		<path class="st3" d="M264.3,61.7c-2.4,0.8-4.7,1.6-6,2c1.7-1.5,10.1-9.3,12.8-21.9c1.6-7.5-3-12.1-7.1-4.7
			c-5.1,9.1-12.9,18.6-18.9,23c-5,3.7-7.7,4.6-8.4,5.9c-0.7,2.4,1.9,8.1,5.9,10.1c8.1,1.3,17.1-3,22.6-8.4
			C268.3,64.6,268.5,60.3,264.3,61.7z"/>
		<path class="st3" d="M176.9,21.5c0.9,1.9,1.8,3.7,2.3,4.8c-0.1-2-0.2-11.9,5.7-21.5c3.4-5.5,8.9-6.8,7.3-0.3
			c-2.2,8.7-2.9,20-1.5,27.3c1.3,6.7,2.8,9.6,2.4,11.3c-1.2,2.8-7.6,5.6-12,3.8c-6.3-5.2-8.8-14.7-8.4-21.9
			C172.9,21.5,175.3,18.4,176.9,21.5z"/>
		<path class="st0" d="M202.4,90.8c-5.5-6.6-16.6-19.4-13.4-37.1c1.9-10.3,8.9-21,20-21.1c10.3-4.8,18.8,4.8,21.3,10.6
			c3.8,8.6,0.7,15.6-4,19.8c1.1,2.8-0.3,6.2-2.1,8.7c-1.8,2.5-4.4,4.3-7.1,5.6C210.8,80.5,206.7,83.5,202.4,90.8z"/>
		<path class="st0" d="M234.5,87.2c-1.5-0.8-6.2-2-7.4-0.1c-1.2,1.9,3.2,5.5,4.5,6.3c1.8,1.2,5.6,2.4,6.9-0.1
			C239.9,90.8,236.4,88.1,234.5,87.2z"/>
		<path class="st0" d="M178.1,66.3c1.6,0.4,6,2.5,5.7,4.7c-0.3,2.2-6,2.1-7.6,1.9c-2.1-0.3-5.8-1.8-5.2-4.6
			C171.7,65.5,176.1,65.8,178.1,66.3z"/>
		<g>
			<path class="st1" d="M196.9,58.5c-2.4-2.3-3.3-6-2.2-9.7c1.2-4.5,5.3-8.5,10.6-10.5c2.2-0.8,4.7-1.2,7.1-1.3
				c0.3,0,0.6,0.3,0.6,0.6c0,0.3-0.3,0.6-0.6,0.6c-2.3,0-4.6,0.4-6.7,1.2c-5,1.8-8.8,5.5-9.9,9.7c-1,3.6,0,7,2.4,9
				c2.1,1.7,4.5,2,6.5,0.9c1.6-0.9,2.6-2.6,2.3-4.3c-0.1-0.7-0.4-1.3-1-1.7c-0.5-0.4-1.2-0.5-1.9-0.4c-0.3,0.1-0.6-0.1-0.7-0.5
				c-0.1-0.3,0.1-0.6,0.5-0.7c1-0.2,2,0,2.8,0.6c0.8,0.6,1.3,1.5,1.5,2.5c0.3,2.1-0.9,4.3-2.9,5.5c-2.4,1.3-5.3,1-7.8-1
				C197.3,58.8,197.1,58.6,196.9,58.5z"/>
		</g>
		<path class="st9" d="M175.9,95.4c-2.6,6.6-5.5,11.5-11.6,9c-5.8-2.4-6.9-6.7-3.9-13.1c1.5-3.1,3.4-6.3,6.1-8.5
			c2.2-1.8,5.7-3.2,8.4-1.6C179.4,83.9,177.4,91.6,175.9,95.4z"/>
		<path class="st9" d="M216.5,111.8c-2.6,6.6-4,12.1,2.1,14.6c5.8,2.4,9.6-0.1,11.9-6.7c1.1-3.3,1.9-6.8,1.5-10.3
			c-0.3-2.9-1.9-6.2-4.9-7C221.9,101.1,218,108,216.5,111.8z"/>
		<path class="st11" d="M176.1,86.7c-0.5,1.2-1.9,1.8-3.2,1.3c-1.2-0.5-1.8-1.9-1.3-3.2c0.5-1.2,1.9-1.8,3.2-1.3
			C176,84,176.6,85.4,176.1,86.7z"/>
		<path class="st11" d="M230.3,108.6c-0.5,1.2-1.9,1.8-3.2,1.3c-1.2-0.5-1.8-1.9-1.3-3.2c0.5-1.2,1.9-1.8,3.2-1.3
			C230.2,105.9,230.8,107.3,230.3,108.6z"/>
	</g>
	<path class="st0" d="M145.9,199.4c5,3,9.9,11.3,11.4,20c1,5.7,0.1,9.6-1.1,11.6c-2.9,4.7-5.8,8-13.7,9.5c-10.3,2-12.3-1.2-17.9-2.6
		c1.7-0.3,3.3-1.1,4.6-2.1c-3.4,0.4-6.8-1.9-9.3-4.3c-2.6-2.3-4.9-5-8.1-6.4c2.4-0.1,5.9-0.9,8,0.2c-2.9-0.9-6.4-5.6-9.9-11.8
		c-2.3-4.1-5.7-5.9-8.8-5.8c5.1-2.1,10.2-4,15.6-5.1c5.4-1.1,11-2.9,16.1-0.9c-1.6-2.1-2.3-4.2-4.5-5.8c8.3,0.4,16.4,3.4,20.4,10.6
		C147.7,202.6,147.1,201.1,145.9,199.4z"/>
	<path class="st12" d="M152.9,222.2c1.1,2.8,0.8,6.6-0.5,9.4c-0.3,0.6-3,3-3.8,3.3c-9.9,2.4-17.3,1.5-21.6-10.4
		c-1.4-4-1.5-8-4.1-9.5c7.4-1.7,11.9-1,15.2,0.6c-0.9-1.1-1.3-2.7-2.5-3.5C139.8,212.1,149,211.9,152.9,222.2z"/>
	<path class="st1" d="M244.8,186.4c-19.8,0-15.3,37-35,41.1c-18.3,3.9-53.4,2.9-73.4-5.1c15.5,20,45,27.9,67.2,29
		c26.2,1.3,62.4,0.5,71.6-17.8C279.5,224.9,274.3,200.9,244.8,186.4z"/>
	<path class="st8" d="M254.1,206.4c-16.4-2.3-23.3,10.7-37.8,14.2c11-3.2,13.9-9.7,23.5-14.4c4.3-2.1,3.5-4.6,4.4-6.8
		C246.3,199.9,249.9,202.4,254.1,206.4z"/>
	<g>
		<path class="st8" d="M265.6,225.3c1,1.8,2.9,2.8,4.9,2.8l-4.7-8.4C264.7,221.4,264.6,223.5,265.6,225.3z"/>
		<path class="st8" d="M252.9,233.3c1,1.8,2.9,2.8,4.9,2.8l-4.7-8.4C252.1,229.4,251.9,231.5,252.9,233.3z"/>
		<path class="st8" d="M248.1,241.1c0.8,1.9,2.5,3.1,4.5,3.3l-3.8-8.9C247.6,237.1,247.3,239.2,248.1,241.1z"/>
		<path class="st8" d="M263.1,235.1c1,1.8,2.9,2.7,4.9,2.7l-4.9-8.3C262.1,231.2,262.1,233.3,263.1,235.1z"/>
		<path class="st8" d="M237.4,237.7c0.9,1.8,2.7,2.9,4.7,3.1l-4.2-8.7C236.8,233.7,236.5,235.8,237.4,237.7z"/>
		<path class="st8" d="M225.8,244.3c0.9,1.8,2.7,2.9,4.7,3.1l-4.2-8.7C225.1,240.3,224.9,242.4,225.8,244.3z"/>
		<path class="st8" d="M235.4,246.8c0.9,1.8,2.7,2.9,4.7,3.1l-4.2-8.7C234.8,242.8,234.5,244.9,235.4,246.8z"/>
		<path class="st8" d="M227.7,233.9c0.9,1.8,2.7,2.9,4.7,3.1l-4.2-8.7C227,230,226.8,232.1,227.7,233.9z"/>
	</g>
</g>
</svg>
