<?xml version="1.0" encoding="utf-8"?>
<!-- Generator: Adobe Illustrator 26.3.1, SVG Export Plug-In . SVG Version: 6.00 Build 0)  -->
<svg version="1.1" id="圖層_1" xmlns="http://www.w3.org/2000/svg" xmlns:xlink="http://www.w3.org/1999/xlink" x="0px" y="0px"
	 viewBox="0 0 2048 322" style="enable-background:new 0 0 2048 322;" xml:space="preserve">
<style type="text/css">
	.st0{fill:#75D45E;}
	.st1{fill:#9498A1;}
	.st2{fill:#BDC2CD;}
	.st3{fill:#EF4E3E;}
	.st4{fill:#F0645D;}
	.st5{fill:#166FDB;}
	.st6{fill:#FFFFFF;}
	.st7{fill:#FF7D69;}
	.st8{fill:#D6E1F2;}
	.st9{fill:#BFCFEA;}
	.st10{opacity:0.2;fill:#222D3A;}
	.st11{fill:#005BAC;}
	.st12{fill:#009FE8;}
	.st13{fill:#C61026;}
	.st14{opacity:0.1;}
	.st15{fill:#FFD753;}
	.st16{fill:#30A763;}
	.st17{fill:#96E287;}
</style>
<g>
	<path class="st0" d="M283,264.6c0.1,0.3,0.3,0.6,0.5,0.8c0,0,0,0.1,0,0.1L397.4,322h643.7c-0.1-0.1-0.1-0.1-0.2-0.2
		c0-0.1,0-0.1,0-0.2c0.4-0.4,0.6-1.2,0.3-1.7c-0.1-0.1-0.1-0.2-0.2-0.3c0-0.2,0-0.4-0.1-0.6c0,0,0,0,0,0c0.2-0.4,0.3-0.8,0.1-1.1
		c0-0.1-0.1-0.1-0.1-0.2c0.1-0.2,0.1-0.5,0-0.7c0.2-0.4,0.4-0.9,0.2-1.3c0,0,0-0.1-0.1-0.1c0.1-0.3,0.2-0.7,0-1
		c0-0.1-0.1-0.2-0.2-0.2c0.1-0.3,0.1-0.5,0-0.7c0-0.1-0.1-0.1-0.1-0.1c0-0.1,0.1-0.2,0.1-0.3c0,0,0,0,0.1-0.1c0.5-0.5,0.8-1.4,0.5-2
		c-0.1-0.2-0.2-0.3-0.4-0.4c0-0.1,0-0.3-0.1-0.4c0-0.1-0.1-0.1-0.1-0.1c0.1-0.3,0.2-0.6,0.1-0.9c0,0,0,0,0,0
		c0.2-0.3,0.3-0.8,0.1-1.1c0,0,0-0.1-0.1-0.1c0.1-0.3,0.2-0.7,0.1-1c0-0.1-0.1-0.1-0.1-0.2c0.1-0.2,0.1-0.4,0.1-0.5
		c0.3-0.4,0.5-1,0.3-1.5c0.2-0.4,0.2-0.9,0.1-1.2c0.1-0.4,0.1-0.8,0-1.1c0,0,0,0,0-0.1c0.1-0.3,0.1-0.7,0-0.9c0-0.1-0.1-0.2-0.2-0.2
		c0,0,0-0.1,0-0.1c0.4-0.5,0.7-1.4,0.4-2c-0.1-0.2-0.2-0.3-0.4-0.5c0.3-0.4,0.5-1.1,0.2-1.6c0-0.1-0.1-0.1-0.1-0.2
		c0.1-0.3,0.1-0.5,0-0.7c0.1-0.3,0.2-0.7,0.1-1c0.2-0.4,0.3-0.9,0.1-1.3c0,0,0,0,0-0.1c0.1-0.3,0.1-0.7,0-1
		c-0.1-0.1-0.2-0.3-0.3-0.3c0,0,0,0,0,0c0.4-0.4,0.7-1.3,0.4-1.9c-0.1-0.2-0.3-0.4-0.5-0.5c0-0.1,0-0.3-0.1-0.4
		c-0.1-0.2-0.3-0.4-0.5-0.4c0-0.1,0-0.3-0.1-0.4c-0.1-0.3-0.5-0.5-0.8-0.5c0-0.1,0-0.1-0.1-0.1c-0.1-0.3-0.4-0.4-0.7-0.5
		c0-0.1,0-0.1-0.1-0.2c-0.2-0.4-0.7-0.6-1.1-0.6c-0.1-0.2-0.3-0.3-0.4-0.3c0-0.2,0-0.3-0.1-0.4c-0.2-0.5-0.8-0.7-1.3-0.6
		c-0.1-0.1-0.4-0.2-0.6-0.2c0-0.1,0-0.2-0.1-0.2c-0.2-0.4-0.6-0.5-1.1-0.5c-0.1-0.3-0.4-0.4-0.7-0.4c0-0.1,0-0.2-0.1-0.2
		c-0.2-0.4-0.7-0.5-1.1-0.5c-0.2-0.3-0.5-0.4-0.8-0.4c0-0.1,0-0.1-0.1-0.2c-0.1-0.3-0.5-0.4-0.8-0.4c0-0.1,0-0.1-0.1-0.2
		c-0.1-0.2-0.4-0.4-0.6-0.4c0-0.1,0-0.1-0.1-0.2c-0.2-0.3-0.4-0.5-0.8-0.6c0,0,0,0,0,0c-0.3-0.6-1.1-0.8-1.8-0.6
		c-0.1-0.1-0.3-0.1-0.4-0.1c0,0,0,0,0,0c-0.2-0.4-0.6-0.5-1-0.5c-0.2-0.4-0.7-0.5-1.2-0.4c-0.1-0.1-0.2-0.2-0.3-0.2
		c0-0.2,0-0.3-0.1-0.5c-0.2-0.4-0.6-0.6-1.1-0.7c-0.3-0.3-0.8-0.5-1.3-0.5c-0.2-0.2-0.6-0.3-0.9-0.3c-0.1-0.1-0.2-0.2-0.4-0.3
		c0-0.1,0-0.3-0.1-0.4c-0.2-0.5-0.7-0.7-1.2-0.7c-0.2-0.2-0.5-0.3-0.8-0.3c0,0,0-0.1,0-0.1c-0.2-0.3-0.5-0.5-0.9-0.5
		c0,0,0-0.1,0-0.1c-0.1-0.1-0.2-0.2-0.3-0.3c0-0.2,0-0.5-0.1-0.6c-0.2-0.5-0.8-0.7-1.4-0.7c-0.2-0.1-0.4-0.2-0.6-0.2
		c-0.2-0.4-0.7-0.6-1.1-0.6c-0.2-0.2-0.5-0.4-0.7-0.4c0,0,0-0.1,0-0.1c-0.2-0.3-0.5-0.5-0.8-0.5c0,0,0-0.1,0-0.1
		c-0.2-0.5-0.8-0.7-1.3-0.6c-0.2-0.2-0.5-0.3-0.8-0.3c-0.2-0.3-0.5-0.5-0.9-0.5c0,0,0,0,0,0c-0.2-0.4-0.7-0.6-1.2-0.5
		c-0.2-0.2-0.4-0.3-0.7-0.4c0-0.1,0-0.1-0.1-0.2c-0.1-0.2-0.3-0.3-0.4-0.4c0-0.1,0-0.3-0.1-0.4c-0.2-0.4-0.6-0.6-1-0.7
		c-0.3-0.4-0.8-0.6-1.3-0.5c-0.1-0.1-0.2-0.1-0.3-0.2c0-0.1,0-0.2-0.1-0.3c-0.3-0.6-1.2-0.8-1.8-0.6c-0.1,0-0.2,0.1-0.3,0.1
		c0,0,0,0,0,0c-0.2-0.4-0.5-0.6-0.9-0.6c-0.2-0.3-0.5-0.5-0.8-0.6c0,0,0,0,0-0.1c-0.2-0.5-0.8-0.7-1.3-0.6c-0.2-0.2-0.4-0.3-0.7-0.3
		c-0.2-0.4-0.6-0.6-1.1-0.6c-0.1-0.2-0.3-0.3-0.4-0.3c0-0.1,0-0.2-0.1-0.3c-0.1-0.3-0.4-0.4-0.6-0.5c0-0.1,0-0.2-0.1-0.2
		c-0.1-0.2-0.2-0.3-0.3-0.3c0-0.2,0-0.3-0.1-0.5c-0.3-0.7-1.3-0.8-1.9-0.6c-0.2,0.1-0.3,0.1-0.4,0.2c-0.1,0-0.3,0-0.4,0.1
		c-0.1-0.2-0.4-0.3-0.6-0.3c0,0,0-0.1,0-0.1c-0.3-0.5-0.9-0.7-1.5-0.5c-0.1-0.1-0.2-0.1-0.3-0.1c0-0.1,0-0.2-0.1-0.2
		c-0.2-0.5-0.8-0.7-1.3-0.7c-0.4-0.3-1-0.4-1.5-0.2c0,0,0,0,0,0c-0.2-0.1-0.5-0.1-0.8,0c0,0-0.1,0-0.1,0.1c-0.1-0.1-0.2-0.1-0.4-0.2
		c0,0,0,0,0-0.1c-0.3-0.6-1.2-0.8-1.8-0.6c-0.1,0-0.2,0.1-0.3,0.2c-0.1,0-0.2,0-0.3,0c-0.2-0.3-0.5-0.4-0.8-0.4
		c-0.3-0.6-1.2-0.7-1.8-0.5c0,0-0.1,0-0.1,0c0-0.1,0-0.2-0.1-0.3c-0.2-0.4-0.6-0.5-1-0.6c0,0,0,0,0,0c-0.1-0.3-0.4-0.4-0.7-0.5
		c0-0.1,0-0.2-0.1-0.3c-0.2-0.3-0.5-0.5-0.9-0.4c0,0,0-0.1,0-0.1c-0.2-0.3-0.5-0.4-0.8-0.4c0,0,0-0.1,0-0.1c-0.2-0.4-0.6-0.5-1-0.5
		c-0.2-0.3-0.6-0.5-0.9-0.4c-0.2-0.4-0.7-0.5-1.1-0.4c-0.1-0.1-0.3-0.2-0.4-0.3c0-0.1,0-0.1-0.1-0.2c-0.3-0.7-1.3-0.8-2-0.6
		c-0.1,0-0.1,0.1-0.2,0.1c-0.1,0-0.2,0-0.3,0c-0.1-0.2-0.3-0.3-0.5-0.4c0,0,0-0.1,0-0.1c-0.2-0.4-0.7-0.7-1.2-0.7
		c-0.1-0.1-0.1-0.1-0.2-0.2c0-0.3,0-0.5-0.1-0.7c-0.1-0.2-0.3-0.4-0.6-0.5c0-0.1,0-0.2-0.1-0.3c-0.1-0.3-0.4-0.5-0.8-0.5
		c0,0,0,0,0,0c-0.3-0.6-1.1-0.7-1.7-0.5c0,0,0,0-0.1,0c-0.1,0-0.1,0-0.2,0c0-0.1,0-0.1-0.1-0.2c-0.3-0.6-1.2-0.8-1.8-0.5
		c-0.1,0-0.2,0.1-0.3,0.2c0,0,0,0,0,0c0-0.1,0-0.3-0.1-0.4c-0.1-0.1-0.1-0.2-0.2-0.3c0.1-0.3,0.1-0.6,0-0.8c0-0.1-0.1-0.2-0.2-0.2
		c0.1-0.3,0-0.6-0.1-0.9c-0.3-0.6-1-0.8-1.7-0.7c-0.2-0.1-0.4-0.1-0.6-0.1c0,0,0,0,0-0.1c-0.1-0.2-0.3-0.3-0.5-0.4
		c0-0.1,0-0.3-0.1-0.4c-0.2-0.3-0.5-0.5-0.9-0.6c-0.2-0.4-0.6-0.6-1.1-0.6c-0.3-0.4-0.8-0.5-1.2-0.5c-0.3-0.2-0.6-0.3-1-0.3
		c-0.2-0.2-0.5-0.3-0.7-0.3c0,0,0,0,0-0.1c-0.1-0.3-0.4-0.4-0.7-0.5c0,0,0-0.1,0-0.1c-0.3-0.7-1.2-0.8-1.9-0.6c-0.3-0.1-0.7-0.1-1,0
		c0,0-0.1,0-0.1,0.1c-0.2-0.1-0.5-0.1-0.7-0.1c-0.1-0.2-0.2-0.3-0.4-0.3c0-0.2,0-0.4-0.1-0.5c-0.1-0.3-0.4-0.5-0.8-0.5
		c0-0.1,0-0.1-0.1-0.2c-0.3-0.6-1-0.7-1.6-0.5c-0.1,0-0.1,0.1-0.2,0.1c-0.1,0-0.1,0-0.2,0c0,0,0-0.1,0-0.1c-0.2-0.4-0.7-0.6-1.1-0.6
		c-0.3-0.3-0.8-0.4-1.3-0.4c-0.2-0.2-0.5-0.2-0.8-0.2c0,0,0,0,0,0c-0.1-0.3-0.4-0.4-0.7-0.4c0,0,0-0.1,0-0.1c-0.3-0.5-1-0.6-1.5-0.5
		c0,0,0,0-0.1,0c-0.3-0.1-0.6-0.2-0.9-0.1c0,0,0,0,0,0c-0.1-0.1-0.2-0.2-0.4-0.2c0-0.1,0-0.3-0.1-0.4c-0.1-0.3-0.4-0.5-0.7-0.5
		c0-0.1,0-0.2-0.1-0.2c-0.1-0.3-0.4-0.5-0.7-0.5c0-0.1,0-0.1-0.1-0.2c-0.1-0.3-0.4-0.4-0.6-0.5c0-0.1,0-0.2-0.1-0.3
		c-0.3-0.5-1-0.7-1.5-0.5c-0.1,0-0.2-0.1-0.3-0.1c0,0,0,0,0,0c-0.3-0.7-1.2-0.8-1.9-0.6c-0.1,0-0.1,0.1-0.2,0.1c-0.2,0-0.4,0-0.6,0
		c-0.1-0.1-0.2-0.1-0.3-0.1c0-0.2,0-0.3-0.1-0.4c-0.2-0.4-0.6-0.6-1-0.6c0,0,0,0,0,0c-0.1-0.2-0.3-0.3-0.5-0.4c0-0.2,0-0.4-0.1-0.5
		c-0.1-0.2-0.2-0.3-0.4-0.4c0-0.2,0-0.4-0.1-0.5c-0.2-0.4-0.7-0.6-1.2-0.6c-0.3-0.3-0.8-0.4-1.2-0.4c-0.2-0.2-0.6-0.3-0.9-0.2
		c0,0,0,0,0,0c-0.1-0.1-0.2-0.3-0.3-0.3c0-0.2,0-0.3-0.1-0.4c-0.3-0.6-1.2-0.8-1.9-0.6c-0.1,0.1-0.3,0.1-0.4,0.2
		c-0.4-0.6-1.2-0.7-1.8-0.5c-0.1,0-0.2,0.1-0.3,0.1c-0.2,0-0.4,0-0.5,0c-0.3-0.2-0.8-0.3-1.2-0.1c0,0-0.1,0-0.1,0
		c-0.1-0.1-0.3-0.1-0.5-0.1c0-0.1,0-0.1-0.1-0.2c0-0.1-0.1-0.2-0.2-0.2c0-0.3,0-0.6-0.1-0.8c-0.3-0.6-1.2-0.8-1.9-0.6c0,0,0,0,0,0
		c-0.2,0-0.3-0.1-0.5,0c-0.1-0.3-0.4-0.4-0.7-0.4c0,0,0-0.1,0-0.1c-0.2-0.4-0.6-0.6-1-0.6c-0.1-0.1-0.2-0.2-0.3-0.3
		c0-0.2,0-0.4-0.1-0.6c-0.1-0.2-0.3-0.4-0.6-0.4c0-0.1,0-0.3-0.1-0.4c-0.2-0.4-0.6-0.5-0.9-0.5c0,0,0,0,0,0
		c-0.2-0.4-0.7-0.6-1.2-0.5c-0.2-0.2-0.4-0.3-0.7-0.3c0-0.1,0-0.1-0.1-0.2c-0.1-0.3-0.5-0.4-0.8-0.5c0,0,0-0.1,0-0.1
		c-0.1-0.3-0.4-0.4-0.7-0.5c0-0.1,0-0.1-0.1-0.2c-0.2-0.5-0.8-0.7-1.3-0.6c-0.1-0.1-0.1-0.1-0.2-0.2c0-0.2,0-0.3-0.1-0.5
		c-0.2-0.3-0.5-0.6-0.9-0.6c-0.2-0.4-0.5-0.6-0.9-0.6c-0.3-0.5-0.9-0.7-1.5-0.6c-0.1-0.1-0.2-0.1-0.3-0.1c0-0.1,0-0.2-0.1-0.3
		c-0.3-0.5-0.9-0.7-1.4-0.6c-0.1-0.1-0.1-0.1-0.2-0.1c0-0.2,0-0.4-0.1-0.5c-0.2-0.5-0.8-0.7-1.3-0.6c-0.4-0.3-0.9-0.3-1.4-0.2
		c0,0-0.1,0-0.1,0c-0.1-0.1-0.3-0.1-0.5-0.1c-0.2-0.4-0.8-0.6-1.3-0.5c-0.3-0.2-0.7-0.3-1-0.2c-0.1-0.1-0.2-0.2-0.3-0.2
		c0-0.2,0-0.3-0.1-0.5c-0.3-0.6-1-0.8-1.6-0.6c-0.3-0.2-0.7-0.2-1-0.1c-0.2-0.2-0.5-0.2-0.7-0.2c0,0,0,0,0,0
		c-0.1-0.3-0.5-0.4-0.8-0.4c0-0.1,0-0.2-0.1-0.2c-0.1-0.1-0.2-0.2-0.3-0.3c0-0.2,0-0.5-0.1-0.7c-0.2-0.4-0.7-0.6-1.2-0.7
		c-0.2-0.3-0.6-0.4-1-0.4c-0.3-0.4-0.9-0.4-1.3-0.3c0,0-0.1,0-0.1,0.1c-0.1,0-0.2-0.1-0.2-0.1c0-0.1,0-0.1-0.1-0.2
		c-0.2-0.4-0.7-0.6-1.2-0.6c-0.1-0.2-0.3-0.3-0.5-0.3c0-0.1,0-0.2-0.1-0.3c-0.2-0.4-0.7-0.6-1.2-0.6c-0.1-0.1-0.2-0.2-0.3-0.2
		c0-0.2,0-0.4-0.1-0.5c-0.1-0.3-0.4-0.4-0.7-0.5c0-0.1,0-0.1-0.1-0.2c-0.2-0.4-0.7-0.7-1.2-0.7c-0.4-0.4-1.1-0.4-1.6-0.3
		c-0.2,0.1-0.4,0.2-0.5,0.4c-0.2-0.4-0.6-0.5-1-0.5c-0.1-0.2-0.3-0.3-0.6-0.4c0-0.1,0-0.3-0.1-0.4c-0.1-0.2-0.3-0.4-0.5-0.5
		c0-0.1,0-0.2-0.1-0.3c-0.3-0.7-1.2-0.8-1.9-0.6c-0.1,0-0.2,0.1-0.3,0.1c0,0,0,0,0,0c-0.3-0.6-1.1-0.7-1.7-0.5c0,0,0,0,0,0
		c0-0.2,0-0.3-0.1-0.4c-0.2-0.4-0.6-0.6-1-0.6c-0.1-0.2-0.3-0.3-0.6-0.4c0-0.1,0-0.3-0.1-0.4c-0.1-0.3-0.4-0.4-0.6-0.5
		c0-0.1,0-0.2-0.1-0.2c-0.2-0.4-0.6-0.6-1.1-0.6c-0.2-0.3-0.6-0.5-1-0.5c-0.3-0.4-0.9-0.5-1.4-0.4c-0.2-0.1-0.4-0.2-0.7-0.2
		c0,0,0,0,0-0.1c-0.2-0.3-0.5-0.4-0.8-0.5c0,0,0,0,0-0.1c-0.2-0.4-0.7-0.6-1.1-0.5c-0.2-0.3-0.6-0.4-0.9-0.4
		c-0.1-0.2-0.4-0.4-0.7-0.4c0,0,0-0.1,0-0.1c-0.3-0.5-0.9-0.7-1.5-0.6c-0.1-0.1-0.3-0.2-0.5-0.2c0,0,0-0.1,0-0.1
		c-0.2-0.3-0.5-0.5-0.9-0.6c0,0,0,0,0,0c-0.2-0.3-0.4-0.5-0.8-0.6c0,0,0-0.1,0-0.1c-0.2-0.4-0.6-0.6-1-0.7c-0.4-0.5-1.2-0.7-1.8-0.4
		c-0.1,0-0.1,0.1-0.2,0.1c-0.2,0-0.3,0-0.5,0c-0.2-0.3-0.6-0.4-1-0.3c-0.3-0.4-1-0.5-1.4-0.3c0,0-0.1,0-0.1,0.1
		c-0.2-0.1-0.5-0.1-0.7,0c-0.1-0.1-0.2-0.2-0.3-0.3c0-0.2,0-0.4-0.1-0.6c-0.3-0.6-1-0.8-1.7-0.6c0,0-0.1,0-0.1-0.1
		c0-0.2,0-0.3-0.1-0.4c-0.2-0.5-0.8-0.6-1.3-0.6c-0.1-0.1-0.1-0.1-0.2-0.2c0-0.2,0-0.4-0.1-0.6c-0.3-0.5-0.9-0.7-1.5-0.7
		c-0.2-0.1-0.5-0.2-0.7-0.2c0,0,0-0.1,0-0.1c-0.1-0.1-0.2-0.2-0.3-0.3c0-0.2,0-0.4-0.1-0.6c-0.3-0.6-1.2-0.8-1.8-0.6
		c-0.1,0-0.2,0.1-0.3,0.1c-0.1,0-0.2,0-0.3,0c-0.1-0.1-0.2-0.2-0.4-0.3c0-0.2,0-0.4-0.1-0.5c-0.2-0.4-0.6-0.6-1.1-0.6
		c-0.1-0.2-0.3-0.4-0.6-0.4c0-0.1,0-0.2-0.1-0.3c-0.2-0.3-0.5-0.5-0.8-0.5c0,0,0-0.1,0-0.1c-0.1-0.2-0.2-0.3-0.4-0.4
		c0-0.2,0-0.4-0.1-0.5c-0.3-0.5-0.9-0.7-1.5-0.7c-0.2-0.1-0.5-0.2-0.7-0.2c0,0,0-0.1,0-0.1c-0.1-0.2-0.3-0.3-0.5-0.4
		c0-0.1,0-0.1-0.1-0.2c-0.2-0.4-0.6-0.6-1-0.6c-0.2-0.3-0.6-0.5-1-0.5c0,0,0,0,0,0c0-0.1-0.1-0.2-0.2-0.2c0-0.3,0-0.6-0.1-0.8
		c-0.2-0.4-0.6-0.6-1.1-0.7c-0.1-0.2-0.2-0.3-0.4-0.3c0-0.2,0-0.4-0.1-0.5c-0.2-0.4-0.5-0.5-0.9-0.6c0,0,0,0,0-0.1
		c-0.1-0.2-0.3-0.4-0.6-0.4c0-0.1,0-0.2-0.1-0.3c-0.2-0.3-0.5-0.5-0.8-0.6c0,0,0,0,0-0.1c-0.2-0.3-0.5-0.5-0.9-0.6
		c-0.3-0.5-0.8-0.7-1.4-0.6c-0.1-0.1-0.3-0.2-0.4-0.2c0-0.1,0-0.2-0.1-0.3c-0.2-0.4-0.6-0.6-1-0.6c-0.3-0.4-1-0.6-1.5-0.4
		c-0.1-0.1-0.3-0.1-0.5-0.1c-0.2-0.3-0.5-0.5-0.8-0.5c-0.3-0.5-0.9-0.7-1.5-0.7c-0.2-0.1-0.3-0.2-0.5-0.2c-0.2-0.5-0.8-0.7-1.3-0.6
		c-0.1-0.1-0.2-0.1-0.3-0.2c0-0.2,0-0.4-0.1-0.5c-0.2-0.3-0.5-0.5-0.8-0.6c0,0,0-0.1,0-0.1c-0.2-0.3-0.5-0.5-0.8-0.5c0,0,0,0,0,0
		c-0.2-0.3-0.5-0.5-0.9-0.5c-0.3-0.5-1.1-0.6-1.7-0.5c-0.2-0.1-0.4-0.1-0.7-0.1c-0.3-0.3-0.7-0.4-1.1-0.3c-0.2-0.2-0.6-0.3-0.9-0.2
		c0,0,0,0,0,0c-0.1-0.1-0.1-0.2-0.2-0.2c0-0.3,0-0.5-0.1-0.7c-0.2-0.5-0.7-0.7-1.3-0.7c-0.2-0.2-0.4-0.3-0.7-0.3c0,0,0,0,0,0
		c-0.2-0.3-0.5-0.5-0.9-0.6c0,0,0,0,0,0c-0.3-0.5-0.9-0.7-1.5-0.6c-0.2-0.1-0.4-0.2-0.7-0.2c0,0,0-0.1,0-0.1
		c-0.1-0.2-0.3-0.4-0.6-0.4c0-0.1,0-0.2-0.1-0.3c-0.2-0.3-0.5-0.5-0.8-0.6c0,0,0,0,0-0.1c-0.2-0.4-0.7-0.6-1.2-0.6
		c-0.1-0.1-0.3-0.2-0.5-0.3c0-0.1,0-0.1-0.1-0.2c-0.2-0.5-0.8-0.7-1.4-0.7c-0.3-0.2-0.7-0.3-1.1-0.3c-0.2-0.2-0.5-0.3-0.8-0.3
		c-0.2-0.2-0.4-0.4-0.7-0.4c0,0,0,0,0-0.1c-0.2-0.4-0.7-0.6-1.1-0.6c-0.1-0.2-0.3-0.3-0.5-0.3c0-0.1,0-0.2-0.1-0.3
		c-0.2-0.3-0.5-0.5-0.8-0.6c0,0,0,0,0,0c-0.2-0.5-0.8-0.7-1.3-0.7c-0.3-0.2-0.6-0.3-1-0.3c-0.1-0.2-0.4-0.3-0.7-0.3
		c0-0.1,0-0.1-0.1-0.2c-0.2-0.4-0.7-0.6-1.2-0.5c-0.1-0.1-0.3-0.2-0.5-0.3c0-0.1,0-0.1-0.1-0.2c-0.3-0.6-1-0.7-1.6-0.6
		c-0.2-0.1-0.5-0.2-0.8-0.1c-0.1-0.2-0.3-0.3-0.5-0.3c0-0.1,0-0.2-0.1-0.2c-0.3-0.6-1-0.8-1.7-0.7c-0.3-0.1-0.6-0.2-0.9-0.1
		c-0.1-0.2-0.4-0.2-0.6-0.3c0-0.1,0-0.2-0.1-0.3c-0.2-0.4-0.6-0.5-1-0.5c0,0,0,0,0,0c-0.1-0.3-0.5-0.4-0.8-0.4c0-0.1,0-0.1-0.1-0.2
		c-0.1-0.3-0.4-0.4-0.7-0.4c0-0.1,0-0.2-0.1-0.2c-0.1-0.3-0.4-0.4-0.6-0.5c0-0.1,0-0.1-0.1-0.2c-0.2-0.4-0.6-0.6-1-0.6
		c-0.3-0.5-0.9-0.6-1.4-0.6c0,0-0.1-0.1-0.1-0.1c0-0.2,0-0.3-0.1-0.5c-0.3-0.7-1.2-0.8-1.9-0.6c-0.2-0.1-0.3-0.1-0.5,0
		c0,0,0-0.1,0-0.1c-0.1-0.2-0.4-0.4-0.7-0.4c0-0.1,0-0.2-0.1-0.3c-0.1-0.2-0.3-0.3-0.5-0.4c0-0.1,0-0.3-0.1-0.4
		c-0.2-0.4-0.6-0.6-1-0.6c-0.4-0.5-1.1-0.6-1.7-0.4c0,0,0,0-0.1,0c-0.1,0-0.2,0-0.3-0.1c-0.2-0.4-0.7-0.6-1.2-0.6
		c-0.1-0.1-0.2-0.1-0.3-0.2c0-0.1,0-0.3-0.1-0.4c-0.2-0.3-0.4-0.5-0.7-0.6c0,0,0-0.1,0-0.1c-0.3-0.7-1.3-0.8-2-0.6
		c-0.1,0-0.2,0.1-0.3,0.1c-0.4-0.5-1.2-0.6-1.8-0.4c0,0-0.1,0-0.1,0c-0.2,0-0.4,0-0.6,0c0,0,0,0,0,0c-0.1-0.1-0.2-0.2-0.3-0.2
		c0-0.1,0-0.2-0.1-0.2c-0.3-0.6-1.1-0.8-1.7-0.6c-0.3-0.1-0.7-0.2-1.1-0.1c0-0.2,0-0.4-0.1-0.5c-0.1-0.2-0.3-0.4-0.5-0.5
		c0-0.2,0-0.3-0.1-0.4c-0.3-0.6-1.1-0.7-1.6-0.5c0,0,0,0,0,0c0-0.2,0-0.3-0.1-0.4c-0.3-0.7-1.3-0.8-1.9-0.6c0,0,0,0,0,0
		c-0.3-0.1-0.7-0.1-1,0c-0.1,0-0.2,0.1-0.3,0.2c-0.2,0-0.4,0-0.6,0c-0.2-0.1-0.4-0.2-0.6-0.2c-0.4-0.4-1-0.6-1.6-0.4
		c-0.4-0.2-0.8-0.2-1.2,0c-0.1,0-0.2,0.1-0.3,0.2c-0.2,0-0.5,0-0.7,0.1c-0.1,0-0.1,0-0.2,0.1c-0.3-0.1-0.6-0.1-0.9,0
		c-0.2,0.1-0.3,0.2-0.4,0.3c-0.1,0-0.2,0-0.3,0c-0.4-0.3-1-0.4-1.5-0.2c-0.3,0.1-0.5,0.3-0.6,0.6c-0.1,0-0.2,0-0.2,0.1
		c-0.4-0.2-0.8-0.2-1.2-0.1c-0.3,0.1-0.4,0.3-0.5,0.5c-0.1,0-0.3,0-0.4,0.1c0,0-0.1,0-0.1,0.1c-0.3-0.1-0.7-0.2-1,0
		c-0.1,0-0.1,0.1-0.2,0.1c-0.3-0.1-0.6,0-0.9,0.1c-0.2,0.1-0.4,0.2-0.5,0.4c-0.2,0-0.3,0-0.5,0.1c-0.3,0.1-0.5,0.3-0.6,0.6
		c-0.1,0-0.2,0-0.3,0.1c-0.2,0.1-0.3,0.1-0.4,0.3c-0.2,0-0.5,0-0.7,0.1c-0.1,0-0.2,0.1-0.3,0.2c-0.2,0-0.5,0-0.7,0.1
		c-0.2,0.1-0.4,0.2-0.5,0.4c-0.1,0-0.3,0-0.4,0.1c-0.4,0.1-0.6,0.5-0.7,0.8c0,0-0.1,0-0.1,0c-0.3,0.1-0.4,0.3-0.5,0.6
		c-0.1,0-0.2,0-0.3,0.1c-0.4-0.1-0.8-0.1-1.2,0c-0.4,0.2-0.7,0.5-0.8,1c-0.1,0.1-0.2,0.1-0.3,0.2c-0.2,0-0.5,0-0.7,0.1
		c-0.3,0.1-0.5,0.4-0.6,0.7c-0.1,0-0.2,0-0.3,0.1c-0.2,0.1-0.3,0.2-0.4,0.3c-0.2,0-0.4,0-0.6,0.1c-0.2,0.1-0.4,0.2-0.5,0.4
		c-0.1,0-0.3,0-0.4,0.1c-0.3,0.1-0.5,0.4-0.6,0.6c-0.3-0.2-0.8-0.2-1.1,0c-0.2,0.1-0.4,0.3-0.5,0.5c-0.1,0-0.3,0-0.4,0.1
		c-0.3,0.1-0.4,0.3-0.5,0.5c-0.1,0-0.3,0-0.4,0.1c-0.3,0.1-0.5,0.4-0.5,0.7c-0.1,0-0.2,0-0.3,0.1c-0.2,0.1-0.3,0.2-0.4,0.3
		c-0.2,0-0.3,0-0.5,0.1c-0.3,0.1-0.5,0.3-0.6,0.5c-0.1,0-0.2,0-0.3,0.1c-0.3,0.1-0.6,0.4-0.7,0.7c-0.1,0-0.1,0-0.2,0
		c-0.3,0.1-0.5,0.4-0.6,0.7c-0.1,0-0.2,0-0.3,0.1c-0.1,0.1-0.3,0.1-0.3,0.2c-0.2,0-0.4,0-0.6,0.1c-0.4,0.1-0.6,0.5-0.7,0.9
		c0,0,0,0,0,0c-0.3,0.1-0.5,0.4-0.6,0.7c-0.1,0-0.1,0-0.2,0.1c-0.2,0.1-0.4,0.2-0.4,0.4c-0.4-0.3-1.1-0.3-1.5-0.2
		c-0.2,0.1-0.4,0.2-0.5,0.3c-0.1,0-0.3,0-0.4,0.1c-0.3,0.1-0.4,0.3-0.5,0.5c-0.1,0-0.3,0-0.4,0.1c-0.1,0-0.2,0.1-0.3,0.2
		c-0.2,0-0.5,0-0.7,0.1c-0.3,0.1-0.4,0.3-0.6,0.5c-0.1,0-0.2,0-0.3,0.1c-0.3,0.1-0.5,0.3-0.6,0.6c-0.1,0-0.2,0-0.3,0.1
		c-0.1,0.1-0.3,0.1-0.4,0.2c-0.2,0-0.4,0-0.6,0.1c-0.2,0.1-0.4,0.2-0.5,0.3c-0.1,0-0.6-1.3-1.2-1.1c-0.1,0-0.7-0.8-1.5-2.4
		c-0.2-0.4-1.9-3-2-3.1c-1.3-1-3.5-2.2-3.5-2.2c-0.2-0.5-1.2-2.4-1.7-2.3c-0.2-0.1-0.8-1.5-1-1.5c0,0,0,0,0,0
		c-0.3-0.5-1.5-1.1-1.6-1.1c0-0.1,0-0.1-0.1-0.2c-0.3-0.7-2.9-1.6-3.2-1.6c-0.4-0.5-1.9-0.6-1.9-0.7c-0.1-0.2-0.6-0.8-0.6-0.9
		c-0.2-0.4-2.6-2.3-3.2-2c-0.1,0-2.1-1.9-2.3-2c-0.1-0.2-0.3-0.4-0.5-0.5c0-0.1-2-2.4-2.2-2.4c0,0-0.8-0.6-0.8-0.7
		c-0.3-0.6-2.3-2-2.3-2.1c-0.1-0.2-0.3-0.3-0.5-0.4c0-0.2-0.9-1.1-0.9-1.1c-0.1-0.2-1.3-1.3-1.7-1.3c-0.2-0.3-1.6-1-1.6-1
		c-0.3-0.7-2.5-1.8-2.6-1.7c-0.2-0.2-2.2-1.3-2.5-1.4c0,0,0-0.1-0.1-0.1c-0.3-0.6-1-0.8-1.7-0.7c-0.3-0.2-0.8-0.2-1.2,0
		c0,0-0.1,0-0.1,0c0,0-0.1,0-0.1,0c-0.2-0.3-0.6-0.4-0.9-0.4c-0.1-0.2-0.3-0.3-0.5-0.4c0-0.1,0-0.3-0.1-0.4c-0.3-0.6-1-0.7-1.6-0.5
		c-0.3-0.2-0.6-0.2-0.9-0.1c0,0,0,0,0,0c-0.2-0.2-0.6-0.3-0.9-0.2c-0.1-0.1-0.3-0.2-0.5-0.3c0-0.1,0-0.2-0.1-0.2
		c-0.1-0.3-0.4-0.5-0.8-0.5c0,0,0-0.1,0-0.1c-0.3-0.6-1.1-0.7-1.7-0.6c-0.2-0.1-0.4-0.1-0.6-0.1c0,0,0,0,0-0.1
		c-0.1-0.2-0.3-0.3-0.6-0.4c0,0,0-0.1,0-0.1c-0.3-0.6-1.2-0.8-1.8-0.6c-0.1,0-0.2,0.1-0.2,0.1c-0.2,0-0.4,0-0.6,0
		c-0.2-0.2-0.5-0.2-0.8-0.2c0,0,0,0,0-0.1c-0.1-0.1-0.2-0.2-0.3-0.3c0-0.2,0-0.5-0.1-0.7c-0.3-0.5-0.9-0.7-1.4-0.6
		c-0.1-0.1-0.3-0.2-0.5-0.2c0,0,0,0,0,0c-0.2-0.4-0.7-0.6-1.2-0.6c-0.2-0.2-0.4-0.3-0.7-0.3c0-0.1,0-0.2-0.1-0.2
		c-0.1-0.3-0.5-0.4-0.8-0.4c-0.3-0.5-1-0.6-1.5-0.5c-0.1,0-0.1,0-0.1,0.1c-0.1,0-0.1,0-0.2-0.1c0,0,0,0,0,0
		c-0.3-0.6-1.2-0.8-1.8-0.6c-0.2,0.1-0.3,0.1-0.4,0.2c-0.2,0-0.4,0-0.6,0.1c-0.2,0.1-0.3,0.1-0.4,0.3c-0.2,0-0.4,0-0.6,0.1
		c-0.4,0.2-0.7,0.5-0.7,0.9c0,0,0,0,0,0c0,0,0,0,0,0c0-0.1,0-0.3-0.1-0.4c-0.3-0.5-0.9-0.6-1.5-0.4c-0.1,0-0.2,0.1-0.2,0.1
		c-0.2-0.1-0.5-0.1-0.7,0c0,0-0.1,0-0.1,0c-0.3-0.2-0.7-0.2-1.1-0.1c-0.1,0-0.1,0.1-0.2,0.1c-0.3-0.1-0.6-0.1-0.9,0
		c-0.2,0.1-0.3,0.2-0.4,0.4c0,0-0.1,0-0.1,0c0,0,0,0,0,0c-0.3-0.6-1.1-0.7-1.6-0.5c-0.1,0-0.1,0-0.2,0.1c0-0.1,0-0.1-0.1-0.2
		c-0.3-0.6-1-0.8-1.6-0.7c-0.3-0.2-0.8-0.2-1.2-0.1c-0.2,0.1-0.4,0.3-0.5,0.5c-0.1,0-0.2,0-0.3,0c-0.4-0.2-0.9-0.2-1.3,0
		c-0.1,0-0.1,0.1-0.2,0.1c-0.3-0.3-0.8-0.5-1.3-0.4c-0.4-0.2-0.9-0.3-1.4-0.1c-0.1,0.1-0.3,0.1-0.4,0.2c-0.2,0-0.4,0-0.6,0.1
		c-0.2,0.1-0.4,0.2-0.5,0.4c-0.2,0-0.3,0-0.5,0.1c-0.2,0.1-0.4,0.3-0.5,0.5c-0.1,0-0.3,0-0.4,0.1c-0.2,0.1-0.3,0.2-0.4,0.4
		c-0.2,0-0.4,0-0.6,0c0,0,0,0-0.1,0c-0.3-0.1-0.8-0.1-1.1,0c-0.3,0.1-0.5,0.3-0.6,0.5c-0.1,0-0.2,0-0.3,0.1
		c-0.1,0.1-0.3,0.1-0.3,0.2c-0.3-0.3-0.7-0.4-1.2-0.4c-0.4-0.3-0.9-0.3-1.4-0.2c-0.1,0-0.2,0.1-0.3,0.2c-0.2,0-0.5,0-0.7,0.1
		c-0.2,0.1-0.4,0.2-0.5,0.4c-0.2,0-0.3,0-0.4,0.1c-0.2,0.1-0.3,0.2-0.4,0.3c-0.2,0-0.4,0-0.6,0.1c-0.4,0.1-0.5,0.4-0.6,0.8
		c-0.1,0-0.1,0-0.2,0c-0.2,0.1-0.3,0.2-0.4,0.4c-0.2,0-0.4,0-0.6,0c-0.1,0-0.2,0.1-0.3,0.2c-0.3-0.1-0.5-0.1-0.8,0
		c-0.2,0.1-0.4,0.3-0.5,0.5c-0.2,0-0.3,0-0.4,0.1c-0.1,0-0.2,0.1-0.3,0.2c-0.1,0-0.3-0.1-0.4-0.1c-0.3-0.4-1-0.5-1.5-0.3
		c-0.3,0.1-0.4,0.3-0.6,0.5c-0.1,0-0.2,0-0.4,0.1c-0.1,0-0.2,0.1-0.3,0.2c-0.3,0-0.6,0-0.8,0.1c-0.2,0.1-0.3,0.2-0.5,0.3
		c-0.2,0-0.4,0-0.5,0.1c-0.2,0.1-0.3,0.2-0.4,0.3c-0.2,0-0.4,0-0.6,0.1c-0.4,0.1-0.6,0.4-0.7,0.8c0,0-0.1,0-0.1,0c0,0-0.1,0-0.1,0.1
		c-0.3-0.1-0.7-0.1-1,0c-0.1,0-0.2,0.1-0.2,0.1c-0.3,0-0.6,0-0.8,0.1c-0.2,0.1-0.3,0.2-0.4,0.3c-0.2,0-0.4,0-0.6,0.1
		c-0.3,0.1-0.5,0.4-0.6,0.7c-0.1,0-0.1,0-0.2,0.1c-0.2,0.1-0.4,0.2-0.5,0.4c-0.2,0-0.3,0-0.5,0.1c-0.2,0.1-0.3,0.2-0.4,0.3
		c-0.2,0-0.4,0-0.5,0.1c0,0-0.1,0-0.1,0c-0.3,0-0.6,0-0.9,0.1c-0.2,0.1-0.3,0.2-0.5,0.3c-0.1,0-0.2,0-0.3,0
		c-0.4-0.2-0.9-0.2-1.3-0.1c-0.1,0-0.2,0.1-0.3,0.2c-0.2,0-0.5,0-0.7,0.1c0,0,0,0-0.1,0c-0.3-0.1-0.7-0.1-1,0c0,0-0.1,0-0.1,0.1
		c-0.3-0.1-0.7,0-1,0.1c-0.4,0.1-0.6,0.4-0.7,0.7c0,0-0.1,0-0.1,0c-0.4,0.1-0.5,0.4-0.6,0.8c-0.1,0-0.1,0-0.2,0
		c-0.1,0-0.2,0.1-0.3,0.2c-0.3,0-0.5,0-0.8,0.1c-0.2,0.1-0.3,0.2-0.4,0.3c-0.2,0-0.4,0-0.6,0.1c-0.3,0.1-0.4,0.3-0.6,0.5
		c-0.1,0-0.2,0-0.4,0.1c0,0-0.1,0-0.1,0.1c-0.3-0.1-0.7-0.1-1,0.1c-0.4,0.1-0.6,0.5-0.7,0.9c0,0,0,0,0,0c-0.2,0.1-0.3,0.2-0.4,0.3
		c-0.2,0-0.4,0-0.5,0.1c-0.3,0.1-0.5,0.3-0.7,0.6c-0.1,0-0.1,0-0.2,0c-0.3,0.1-0.5,0.3-0.6,0.5c-0.1,0-0.2,0-0.3,0.1
		c-0.3,0.1-0.5,0.4-0.6,0.7c-0.1,0-0.1,0-0.2,0c0,0,0,0,0,0c-0.3-0.2-0.8-0.2-1.2-0.1c-0.3,0.1-0.5,0.3-0.6,0.6
		c-0.4-0.3-1-0.4-1.5-0.2c-0.2,0.1-0.3,0.2-0.4,0.3c-0.2,0-0.4,0-0.5,0.1c-0.3,0.1-0.5,0.3-0.6,0.6c-0.1,0-0.2,0-0.3,0.1
		c-0.1,0-0.1,0.1-0.2,0.1c-0.3-0.1-0.6-0.1-0.9,0c-0.4-0.2-0.9-0.2-1.2,0c-0.4,0.1-0.6,0.4-0.7,0.7c0,0-0.1,0-0.1,0
		c-0.3,0.1-0.5,0.3-0.5,0.6c-0.1,0-0.2,0-0.3,0.1c0,0-0.1,0-0.1,0c-0.3-0.1-0.7-0.1-1,0.1c-0.3,0.1-0.4,0.3-0.6,0.5
		c-0.1,0-0.2,0-0.3,0.1c-0.3,0.1-0.5,0.3-0.6,0.6c-0.1,0-0.2,0-0.3,0.1c-0.3,0.1-0.5,0.4-0.6,0.7c0,0,0,0-0.1,0
		c-0.4-0.2-0.9-0.2-1.3,0c-0.2,0.1-0.3,0.2-0.4,0.3c-0.2,0-0.4,0-0.6,0.1c-0.2,0.1-0.3,0.2-0.5,0.3c-0.2,0-0.3,0-0.5,0.1
		c-0.2,0.1-0.3,0.2-0.4,0.3c-0.1,0-0.3,0-0.4,0c-0.4-0.2-0.9-0.3-1.3-0.1c-0.2,0.1-0.4,0.2-0.5,0.4c-0.2,0-0.3,0-0.4,0.1
		c-0.3,0.1-0.5,0.3-0.6,0.5c-0.1,0-0.2,0-0.3,0.1c0,0,0,0-0.1,0c-0.4-0.1-0.7-0.1-1.1,0.1c-0.5,0.2-0.7,0.6-0.8,1.1
		c0,0-0.1,0-0.1,0.1c-0.3-0.1-0.6-0.1-0.9,0c0,0-0.1,0-0.1,0.1c-0.3-0.1-0.7-0.1-1,0c-0.1,0-0.2,0.1-0.3,0.2c-0.3,0-0.5,0-0.8,0.1
		c-0.4,0.1-0.6,0.4-0.7,0.8c-0.1,0-0.1,0-0.2,0c-0.2,0.1-0.4,0.3-0.5,0.5c-0.2,0-0.3,0-0.4,0.1c-0.2,0.1-0.3,0.2-0.4,0.4
		c-0.2,0-0.4,0-0.5,0.1c-0.3,0.1-0.5,0.3-0.6,0.6c-0.1,0-0.2,0-0.3,0.1c-0.1,0-0.2,0.1-0.3,0.2c-0.3,0-0.5,0-0.8,0.1
		c-0.4,0.1-0.6,0.5-0.7,0.8c0,0-0.1,0-0.1,0c-0.3,0.1-0.5,0.3-0.5,0.6c-0.1,0-0.2,0-0.3,0.1c0,0,0,0-0.1,0c-0.3-0.1-0.8-0.1-1.1,0
		c-0.2,0.1-0.3,0.1-0.4,0.3c-0.2,0-0.4,0-0.6,0.1c-0.3,0.1-0.6,0.4-0.7,0.7c0,0-0.1,0-0.1,0c-0.5,0.2-0.7,0.8-0.7,1.3
		c-0.3-0.1-0.6,0-0.9,0.1c-0.2,0.1-0.3,0.2-0.4,0.3c-0.2,0-0.4,0-0.5,0.1c0,0-0.1,0-0.1,0c-0.3-0.1-0.7-0.1-1,0
		c-0.3,0.1-268.2,115.8-268.3,116.1c-0.1,0-0.2,0-0.3,0.1c-0.2,0.1-0.3,0.2-0.4,0.4c-0.2,0-0.3,0-0.5,0.1c-0.3,0.1-0.5,0.4-0.6,0.7
		c0,0-0.1,0-0.1,0c-0.6,0.2-0.8,0.9-0.7,1.5C282.9,263.7,282.9,264.2,283,264.6z"/>
	<g>
		<polygon class="st1" points="647.8,70 647.2,70 647.1,70 647.1,114.9 647.2,114.9 647.8,114.9 649.4,114.9 649.4,70 		"/>
		<path class="st1" d="M650.9,68.3c0-1.4-1.2-2.6-2.6-2.6c-1.4,0-2.6,1.2-2.6,2.6c0,1.4,1.2,2.6,2.6,2.6
			C649.7,70.9,650.9,69.7,650.9,68.3z"/>
		<path class="st2" d="M648.5,67.4c0-0.5-0.4-0.8-0.8-0.8c-0.5,0-0.8,0.4-0.8,0.8c0,0.5,0.4,0.8,0.8,0.8
			C648.1,68.2,648.5,67.8,648.5,67.4z"/>
		<path class="st3" d="M649.4,70.9c0,7.5,0,15.1,0,22.6c12.9,4.1,25.8-13.5,38.7-9.4C675.2,72.5,662.3,82.5,649.4,70.9z"/>
		<path class="st4" d="M681.8,79.9c-10.8-4.8-21.6,0.7-32.4-9c0,5.1,0,10.2,0,15.4C660.2,88.5,671,83.3,681.8,79.9z"/>
	</g>
	<g>
		<polygon class="st1" points="757.9,104.1 757.5,104.1 757.3,104.1 757.3,140 757.5,140 757.9,140 759.2,140 759.2,104.1 		"/>
		<path class="st1" d="M760.4,102.7c0-1.1-0.9-2.1-2.1-2.1c-1.1,0-2.1,0.9-2.1,2.1c0,1.1,0.9,2.1,2.1,2.1
			C759.5,104.8,760.4,103.9,760.4,102.7z"/>
		<path class="st2" d="M758.4,102c0-0.4-0.3-0.7-0.7-0.7c-0.4,0-0.7,0.3-0.7,0.7c0,0.4,0.3,0.7,0.7,0.7
			C758.1,102.6,758.4,102.3,758.4,102z"/>
		<path class="st3" d="M759.2,104.8c0,6,0,12,0,18.1c10.3,3.3,20.6-10.8,31-7.5C779.8,106,769.5,114.1,759.2,104.8z"/>
		<path class="st4" d="M785.1,112c-8.6-3.8-17.3,0.5-25.9-7.2c0,4.1,0,8.2,0,12.3C767.8,118.9,776.5,114.7,785.1,112z"/>
	</g>
	<g>
		<g>
			<polygon class="st5" points="1217.2,271 890.5,271 856.6,0.6 1205.3,0.6 			"/>
			<polygon class="st6" points="820.9,271 1169.6,271 1196.3,58.3 1203.5,0.6 854.8,0.6 847.6,58.3 			"/>
			<polygon class="st7" points="847.6,58.3 1196.3,58.3 1203.5,0.6 854.8,0.6 			"/>
			<g>
				<g>
					<path class="st8" d="M1045.8,110.4h24.7c2.1,0,4-1.7,4.3-3.7l3.8-24.7c0.3-2.1-1.1-3.8-3.2-3.8h-24.7c-2.1,0-4,1.7-4.3,3.8
						l-3.8,24.7C1042.3,108.7,1043.7,110.4,1045.8,110.4z"/>
					<path class="st8" d="M1004.3,110.4h24.7c2.1,0,4-1.7,4.3-3.7l3.8-24.7c0.3-2.1-1.1-3.8-3.2-3.8h-24.7c-2.1,0-4,1.7-4.3,3.8
						l-3.8,24.7C1000.8,108.7,1002.2,110.4,1004.3,110.4z"/>
					<path class="st8" d="M962.9,110.4h24.7c2.1,0,4-1.7,4.3-3.7l3.8-24.7c0.3-2.1-1.1-3.8-3.2-3.8h-24.7c-2.1,0-4,1.7-4.3,3.8
						l-3.8,24.7C959.4,108.7,960.8,110.4,962.9,110.4z"/>
					<path class="st9" d="M1128.6,110.4h24.7c2.1,0,4-1.7,4.3-3.7l3.8-24.7c0.3-2.1-1.1-3.8-3.2-3.8h-24.7c-2.1,0-4,1.7-4.3,3.8
						l-3.8,24.7C1125.2,108.7,1126.6,110.4,1128.6,110.4z"/>
					<path class="st9" d="M1087.2,110.4h24.7c2.1,0,4-1.7,4.3-3.7l3.8-24.7c0.3-2.1-1.1-3.8-3.2-3.8h-24.7c-2.1,0-4,1.7-4.3,3.8
						l-3.8,24.7C1083.7,108.7,1085.1,110.4,1087.2,110.4z"/>
				</g>
				<g>
					<path class="st9" d="M1121.5,156.1h24.7c2.1,0,4-1.7,4.3-3.7l3.8-24.7c0.3-2.1-1.1-3.7-3.2-3.7h-24.7c-2.1,0-4,1.7-4.3,3.7
						l-3.8,24.7C1118.1,154.5,1119.5,156.1,1121.5,156.1z"/>
					<path class="st9" d="M1080.1,156.1h24.7c2.1,0,4-1.7,4.3-3.7l3.8-24.7c0.3-2.1-1.1-3.7-3.2-3.7h-24.7c-2.1,0-4,1.7-4.3,3.7
						l-3.8,24.7C1076.6,154.5,1078,156.1,1080.1,156.1z"/>
					<path class="st8" d="M1038.6,156.1h24.7c2.1,0,4-1.7,4.3-3.7l3.8-24.7c0.3-2.1-1.1-3.7-3.2-3.7h-24.7c-2.1,0-4,1.7-4.3,3.7
						l-3.8,24.7C1035.2,154.5,1036.6,156.1,1038.6,156.1z"/>
					<path class="st8" d="M997.2,156.1h24.7c2.1,0,4-1.7,4.3-3.7l3.8-24.7c0.3-2.1-1.1-3.7-3.2-3.7h-24.7c-2.1,0-4,1.7-4.3,3.7
						l-3.8,24.7C993.7,154.5,995.1,156.1,997.2,156.1z"/>
					<path class="st8" d="M955.8,156.1h24.7c2.1,0,4-1.7,4.3-3.7l3.8-24.7c0.3-2.1-1.1-3.7-3.2-3.7h-24.7c-2.1,0-4,1.7-4.3,3.7
						l-3.8,24.7C952.3,154.5,953.7,156.1,955.8,156.1z"/>
					<path class="st8" d="M914.3,156.1H939c2.1,0,4-1.7,4.3-3.7l3.8-24.7c0.3-2.1-1.1-3.7-3.2-3.7h-24.7c-2.1,0-4,1.7-4.3,3.7
						l-3.8,24.7C910.8,154.5,912.2,156.1,914.3,156.1z"/>
					<path class="st8" d="M872.9,156.1h24.7c2.1,0,4-1.7,4.3-3.7l3.8-24.7c0.3-2.1-1.1-3.7-3.2-3.7h-24.7c-2.1,0-4,1.7-4.3,3.7
						l-3.8,24.7C869.4,154.5,870.8,156.1,872.9,156.1z"/>
				</g>
				<path class="st9" d="M1114.4,201.9h24.7c2.1,0,4-1.7,4.3-3.7l3.8-24.7c0.3-2.1-1.1-3.7-3.2-3.7h-24.7c-2.1,0-4,1.7-4.3,3.7
					l-3.8,24.7C1110.9,200.2,1112.4,201.9,1114.4,201.9z"/>
				<path class="st9" d="M1073,201.9h24.7c2.1,0,4-1.7,4.3-3.7l3.8-24.7c0.3-2.1-1.1-3.7-3.2-3.7H1078c-2.1,0-4,1.7-4.3,3.7
					l-3.8,24.7C1069.5,200.2,1070.9,201.9,1073,201.9z"/>
				<path class="st8" d="M1031.5,201.9h24.7c2.1,0,4-1.7,4.3-3.7l3.8-24.7c0.3-2.1-1.1-3.7-3.2-3.7h-24.7c-2.1,0-4,1.7-4.3,3.7
					l-3.8,24.7C1028,200.2,1029.5,201.9,1031.5,201.9z"/>
				<path class="st8" d="M990.1,201.9h24.7c2.1,0,4-1.7,4.3-3.7l3.8-24.7c0.3-2.1-1.1-3.7-3.2-3.7h-24.7c-2.1,0-4,1.7-4.3,3.7
					l-3.8,24.7C986.6,200.2,988,201.9,990.1,201.9z"/>
				<path class="st8" d="M948.6,201.9h24.7c2.1,0,4-1.7,4.3-3.7l3.8-24.7c0.3-2.1-1.1-3.7-3.2-3.7h-24.7c-2.1,0-4,1.7-4.3,3.7
					l-3.8,24.7C945.2,200.2,946.6,201.9,948.6,201.9z"/>
				<path class="st8" d="M907.2,201.9h24.7c2.1,0,4-1.7,4.3-3.7l3.8-24.7c0.3-2.1-1.1-3.7-3.2-3.7h-24.7c-2.1,0-4,1.7-4.3,3.7
					l-3.8,24.7C903.7,200.2,905.1,201.9,907.2,201.9z"/>
				<path class="st8" d="M865.8,201.9h24.7c2.1,0,4-1.7,4.3-3.7l3.8-24.7c0.3-2.1-1.1-3.7-3.2-3.7h-24.7c-2.1,0-4,1.7-4.3,3.7
					l-3.8,24.7C862.3,200.2,863.7,201.9,865.8,201.9z"/>
				<path class="st9" d="M1107.3,247.6h24.7c2.1,0,4-1.7,4.3-3.7l3.8-24.7c0.3-2.1-1.1-3.7-3.2-3.7h-24.7c-2.1,0-4,1.7-4.3,3.7
					l-3.8,24.7C1103.8,245.9,1105.3,247.6,1107.3,247.6z"/>
				<path class="st9" d="M1065.9,247.6h24.7c2.1,0,4-1.7,4.3-3.7l3.8-24.7c0.3-2.1-1.1-3.7-3.2-3.7h-24.7c-2.1,0-4,1.7-4.3,3.7
					l-3.8,24.7C1062.4,245.9,1063.8,247.6,1065.9,247.6z"/>
				<path class="st8" d="M1024.4,247.6h24.7c2.1,0,4-1.7,4.3-3.7l3.8-24.7c0.3-2.1-1.1-3.7-3.2-3.7h-24.7c-2.1,0-4,1.7-4.3,3.7
					l-3.8,24.7C1020.9,245.9,1022.4,247.6,1024.4,247.6z"/>
				<path class="st8" d="M983,247.6h24.7c2.1,0,4-1.7,4.3-3.7l3.8-24.7c0.3-2.1-1.1-3.7-3.2-3.7H988c-2.1,0-4,1.7-4.3,3.7l-3.8,24.7
					C979.5,245.9,980.9,247.6,983,247.6z"/>
				<path class="st8" d="M941.5,247.6h24.7c2.1,0,4-1.7,4.3-3.7l3.8-24.7c0.3-2.1-1.1-3.7-3.2-3.7h-24.7c-2.1,0-4,1.7-4.3,3.7
					l-3.8,24.7C938,245.9,939.5,247.6,941.5,247.6z"/>
				<path class="st8" d="M900.1,247.6h24.7c2.1,0,4-1.7,4.3-3.7l3.8-24.7c0.3-2.1-1.1-3.7-3.2-3.7h-24.7c-2.1,0-4,1.7-4.3,3.7
					l-3.8,24.7C896.6,245.9,898,247.6,900.1,247.6z"/>
				<path class="st8" d="M858.6,247.6h24.7c2.1,0,4-1.7,4.3-3.7l3.8-24.7c0.3-2.1-1.1-3.7-3.2-3.7h-24.7c-2.1,0-4,1.7-4.3,3.7
					l-3.8,24.7C855.2,245.9,856.6,247.6,858.6,247.6z"/>
			</g>
			<g>
				<rect x="883.9" y="43.3" class="st6" width="29.2" height="4.2"/>
				<rect x="925.4" y="43.3" class="st6" width="29.2" height="4.2"/>
				<rect x="966.9" y="43.3" class="st6" width="29.2" height="4.2"/>
				<rect x="1008.4" y="43.3" class="st6" width="29.2" height="4.2"/>
				<rect x="1049.9" y="43.3" class="st6" width="29.2" height="4.2"/>
				<rect x="1091.4" y="43.3" class="st6" width="29.2" height="4.2"/>
				<rect x="1133" y="43.3" class="st6" width="29.2" height="4.2"/>
			</g>
		</g>
		<g>
			<path class="st10" d="M895.2,139.8c-1.9-0.5-3.2-2.3-3.3-4.2c0-0.1,0-0.2,0-0.3c-0.1-0.1-0.1-0.3-0.2-0.4
				c-0.5-1.1-0.6-2.1-0.7-2.9c0-0.2,0-0.5-0.1-0.6c-0.1-0.3-0.4-0.9-0.6-1.2c-0.1-0.1-0.4-0.4-0.6-0.6c-0.5-0.5-1.2-1.1-1.8-2
				c-0.6-0.9-0.9-1.8-1.2-2.6c-0.2-0.5-0.4-1-0.5-1.2c-0.2-0.2-0.5-0.7-0.7-1.3c-0.7-2.1,0.3-4.4,2.3-5.9c0.1-0.1,0.3-0.2,0.4-0.3
				l0.1-1.9c0-0.5,0.1-1.8,1.2-2.9c0.1-0.1,0.3-0.2,0.4-0.3c0.4-1,1-1.7,1.9-2.1c0.1,0,0.2-0.1,0.3-0.1c0.3-0.6,0.7-1.1,1.2-1.5
				c0.2-0.3,0.4-0.6,0.7-0.8c0.2-0.5,0.5-1.2,1.1-1.9c0.8-0.9,1.7-1.3,2.2-1.6c0,0,2.8-1.3,2.8-1.3c0.1-0.1,0.1-0.2,0.2-0.3
				c1.1-1.6,2.6-2.4,3.7-3.1c0.5-0.3,1.3-0.8,2.3-1c0.4-0.1,0.8-0.1,1.1-0.1c0.4-0.6,1-1.3,2-1.7c1-0.4,2.1-0.5,3.1-0.2
				c1.4,0.4,2.6,1.4,3.3,2.8c0.1,0,0.2,0,0.2,0.1c0.3,0.1,0.5,0.2,0.8,0.3c0.2,0,0.4,0,0.7,0c0.4,0,0.8,0.1,1.2,0.2
				c1.6,0.4,2.8,1.7,3.1,3.2c0.8,0.8,1.3,1.8,1.4,2.9c0.1,1.3-0.4,2.5-1.4,3.4c-0.4,0.3-0.8,0.6-1.2,0.7c-0.8,0.3-1.7,0.5-2.3,0.6
				c0.1,0.9,0.1,2.1-0.5,3.3c-0.3,0.5-0.6,1-0.8,1.2c0,0-0.3,0.4-0.4,0.5c-0.1,1-0.5,1.9-1.2,2.6c0,0,0,0.1,0,0.1
				c0,0.4-0.1,0.8-0.2,1.3c-0.5,2.1-1.9,4-4.1,5.4c-0.2,0.1-0.4,0.4-0.5,0.7c-0.2,0.5-0.4,0.9-0.5,1.3c-0.1,0.1-0.1,0.2-0.2,0.3
				c-0.1,2.8-1.9,5-4.3,5.4c-0.2,0-0.3,0-0.5,0c-0.3,0.3-0.6,0.5-1,0.8c-0.8,0.5-1.6,0.6-2.2,0.7c-0.1,0.5-0.2,1.2-0.5,2
				c-0.1,1-0.5,1.9-1.2,2.5c0,0,0,0,0,0c-0.9,1.8-2.9,2.9-4.9,2.5C895.4,139.9,895.3,139.8,895.2,139.8
				C895.2,139.8,895.2,139.8,895.2,139.8z"/>
			<path class="st6" d="M894.3,138.3c-1.9-0.5-3.2-2.3-3.3-4.2c0-0.1,0-0.2,0-0.3c-0.1-0.1-0.1-0.3-0.2-0.4
				c-0.5-1.1-0.6-2.1-0.7-2.9c0-0.2,0-0.5-0.1-0.6c-0.1-0.3-0.4-0.9-0.6-1.2c-0.1-0.1-0.4-0.4-0.6-0.6c-0.5-0.5-1.2-1.1-1.8-2
				c-0.6-0.9-0.9-1.8-1.2-2.6c-0.2-0.5-0.4-1-0.5-1.2c-0.2-0.2-0.5-0.7-0.7-1.3c-0.7-2.1,0.3-4.4,2.3-5.9c0.1-0.1,0.3-0.2,0.4-0.3
				l0.1-1.9c0-0.5,0.1-1.8,1.2-2.9c0.1-0.1,0.3-0.2,0.4-0.3c0.4-1,1-1.7,1.9-2.1c0.1,0,0.2-0.1,0.3-0.1c0.3-0.6,0.7-1.1,1.2-1.5
				c0.2-0.3,0.4-0.6,0.7-0.8c0.2-0.5,0.5-1.2,1.1-1.9c0.8-0.9,1.7-1.3,2.2-1.6c0,0,2.8-1.3,2.8-1.3c0.1-0.1,0.1-0.2,0.2-0.3
				c1.1-1.6,2.6-2.4,3.7-3.1c0.5-0.3,1.3-0.8,2.3-1c0.4-0.1,0.8-0.1,1.1-0.1c0.4-0.6,1-1.3,2-1.7c1-0.4,2.1-0.5,3.1-0.2
				c1.4,0.4,2.6,1.4,3.3,2.8c0.1,0,0.2,0,0.2,0.1c0.3,0.1,0.5,0.2,0.8,0.3c0.2,0,0.4,0,0.7,0c0.4,0,0.8,0.1,1.2,0.2
				c1.6,0.4,2.8,1.7,3.1,3.2c0.8,0.8,1.3,1.8,1.4,2.9c0.1,1.3-0.4,2.5-1.4,3.4c-0.4,0.3-0.8,0.6-1.2,0.7c-0.8,0.3-1.7,0.5-2.3,0.6
				c0.1,0.9,0.1,2.1-0.5,3.3c-0.3,0.5-0.6,1-0.8,1.2c0,0-0.3,0.4-0.4,0.5c-0.1,1-0.5,1.9-1.2,2.6c0,0,0,0.1,0,0.1
				c0,0.4-0.1,0.8-0.2,1.3c-0.5,2.1-1.9,4-4.1,5.4c-0.2,0.1-0.4,0.4-0.5,0.7c-0.2,0.5-0.4,0.9-0.5,1.3c-0.1,0.1-0.1,0.2-0.2,0.3
				c-0.1,2.8-1.9,5-4.3,5.4c-0.2,0-0.3,0-0.5,0c-0.3,0.3-0.6,0.5-1,0.8c-0.8,0.5-1.6,0.6-2.2,0.7c-0.1,0.5-0.2,1.2-0.5,2
				c-0.1,1-0.5,1.9-1.2,2.5c0,0,0,0,0,0c-0.9,1.8-2.9,2.9-4.9,2.5C894.6,138.4,894.4,138.4,894.3,138.3
				C894.3,138.3,894.3,138.3,894.3,138.3z"/>
			<path class="st11" d="M888.4,120.3c0.7,1.1,1,2.8,1.8,3.8c0.7,1.1,1.8,1.6,2.5,2.8c0.4,0.7,0.8,1.4,1,2.2
				c0.2,0.9,0.1,1.9,0.5,2.7c0.2,0.5,0.6,0.9,0.6,1.5c0,0.2-0.1,0.4-0.1,0.7c0,0.4,0.3,0.8,0.7,0.9c0.4,0.1,0.8-0.2,1-0.5
				c0.1-0.3,0.1-0.6,0.2-0.8s0.4-0.5,0.7-0.4l-0.2-0.7c0.7-0.4,0.6-1.5,0.8-2.3c0.2-1.2,1.3-2.2,2.5-2.4c0.4,0,0.9,0,1.3-0.2
				c0.5-0.3,0.8-1.1,1.3-1.3c0.5-0.2,1,0.1,1.5,0c0.9-0.1,1.3-1.2,1.3-2.1c0-0.9,0.6-1.6,0.9-2.5c0.4-1,1-1.9,1.9-2.5
				c1.2-0.7,2.2-1.8,2.5-3.2c0.1-0.6,0.1-1.3,0.3-1.9c0.1-0.5,0.4-1,0.9-1.2c0.2-0.1,0.2-0.3,0.2-0.4c-0.1-0.5,0.3-1.2,0.6-1.7
				c0.1-0.1,0.2-0.3,0.3-0.4c0.2-0.2,0.4-0.5,0.5-0.7c0.6-1.2-0.4-2.8,0.3-4c0.4-0.7,1.2-1.1,2-1.2c0.8-0.2,1.7-0.1,2.4-0.5
				c0.1,0,0.1-0.1,0.2-0.1c0.4-0.4,0-1-0.4-1.2c-0.4-0.2-0.9-0.5-0.9-1c0-0.2,0.1-0.4,0.1-0.6c0-0.4-0.4-0.6-0.8-0.6
				c-0.4,0-0.7,0.2-1.1,0.4l-0.2,0.1c-0.5-1.1-2.3-0.7-3.1-1.6c-0.2-0.3-0.3-0.6-0.5-0.9c-0.3-0.7-1.1-1.4-1.8-1.1
				c-0.7,0.3-0.9,1.4-1.6,1.9c-0.7,0.5-1.6,0.1-2.4,0.2c-0.4,0.1-0.8,0.3-1.1,0.5c-0.9,0.6-1.9,1.2-2.6,2.1
				c-0.2,0.3-0.4,0.6-0.6,0.8c-0.3,0.3-0.7,0.5-1,0.6c-0.9,0.4-1.8,0.9-2.8,1.3c-0.4,0.2-0.8,0.4-1,0.7c-0.3,0.4-0.5,0.9-0.7,1.4
				c-0.1,0.3-0.4,0.6-0.7,0.8c-0.2,0.1-0.2,0.3-0.1,0.5c-0.1,0.3-0.5,0.4-0.8,0.5c-0.3,0.1-0.5,0.6-0.2,0.8c-0.5,0-0.6,1-1.1,1.2
				c-0.3,0.1-0.6,0-0.8,0.1c-0.5,0.2-0.2,1-0.6,1.4c-0.2,0.2-0.6,0.2-0.8,0.4c-0.2,0.2-0.2,0.4-0.2,0.7c-0.1,0.7-0.1,1.5-0.2,2.2
				c0,0.4-0.1,0.8-0.2,1.1c-0.3,0.7-1,1-1.7,1.5c-0.6,0.4-1.2,1.2-1,1.9C888.2,120,888.3,120.1,888.4,120.3L888.4,120.3z"/>
		</g>
		<g>
			<path class="st10" d="M1016.9,174.3c-1,10.2-10.2,17.7-20.3,16.6c-10.2-1-17.7-10.2-16.6-20.3c1-10.2,10.2-17.7,20.3-16.6
				C1010.4,154.9,1017.9,164.1,1016.9,174.3z"/>
			<path class="st6" d="M1015.8,172.9c-1,10.2-10.2,17.7-20.3,16.6c-10.2-1-17.7-10.2-16.6-20.3c1-10.2,10.2-17.7,20.3-16.6
				C1009.4,153.6,1016.8,162.8,1015.8,172.9z"/>
			<g>
				<g>
					<g>
						<path class="st12" d="M1012.3,172.6c-0.8,8.2-8.2,14.3-16.4,13.4c-8.2-0.8-14.3-8.2-13.4-16.4c0.8-8.2,8.2-14.3,16.4-13.4
							C1007,157,1013.1,164.4,1012.3,172.6z M983.3,169.7c-0.8,7.7,4.9,14.6,12.6,15.4c7.7,0.8,14.6-4.9,15.4-12.6
							c0.8-7.7-4.9-14.6-12.6-15.4C991,156.3,984.1,162,983.3,169.7z"/>
					</g>
					<g>
						<path class="st12" d="M989.8,163.3c-0.1,0.5-0.2,1-0.3,1.5l-1.3,3.8c-0.2,0.5-0.6,0.9-1.1,1c-0.5,0.1-1.1,0-1.5-0.4
							c-0.2-0.2-0.4-0.5-0.4-0.8l-0.8-4.6c0-0.3,0.1-0.5,0.4-0.5c0.3,0,3.6-3.8,3.6-3.8c0-0.3,0.1-0.5,0.4-0.5
							c0.3,0,0.5,0.1,0.5,0.4l0.4,2.2C989.8,162,989.9,162.7,989.8,163.3z"/>
					</g>
					<g>
						<path class="st12" d="M1008,160.8c0,0.2-0.1,0.3-0.3,0.4c-2.8,1.3-5.8,2.1-8.9,2.5l-0.1,0c-0.8,0.1-1.3,0.7-1.4,1.5
							c-0.2,1.6-1,3-2.2,3.9l-0.9,0.7c-0.5,0.3-1,0.5-1.6,0.5l-0.5,0c-0.7,0-1.4-0.3-1.9-0.9c-0.8-0.9-0.8-2.5,0-3.4l1.7-2
							c0.2-0.2,0.3-0.4,0.4-0.7l0.4-1.4c0.2-0.6,0-1.2-0.4-1.6l-1.9-1.9c-0.2-0.2-0.2-0.5,0-0.7c0.2-0.2,0.5-0.2,0.7,0
							c0,0,5.8-1.9,9.7-1.1c3.6,0.8,4.9,2.9,6.7,3.6c0.2,0.1,0.5,0,0.6,0.2C1008,160.6,1008,160.7,1008,160.8z"/>
					</g>
					<g>
						<path class="st12" d="M995,181.4c0,0.3-0.2,0.7-0.4,0.9l-2.5,2.6c-0.2,0.2-0.5,0.2-0.7,0c-0.1-0.1-2.9-2.1-5-4.4
							c-2.1-2.3-3.4-4.8-3.5-4.9c-0.1-0.2,0-0.5,0.2-0.6l1.4-0.7c0.1-0.1,0.2-0.2,0.3-0.3l0.5-1.3c0.2-0.4,0.5-0.7,0.9-0.9
							c0.4-0.1,0.9-0.1,1.3,0.2l2.3,1.4c0.3,0.2,0.5,0.5,0.6,0.8l1.2,3.2c0.1,0.2,0.1,0.5,0.1,0.7l-0.1,1.4c0,0.2,0.1,0.4,0.3,0.6
							c0.2,0.1,0.4,0.1,0.6,0l0.3-0.2c0.5-0.2,1-0.2,1.4,0c0.4,0.3,0.7,0.7,0.8,1.2C995.1,181.2,995.1,181.3,995,181.4z"/>
					</g>
					<path class="st12" d="M1007.8,177.3c-0.1,0.5-0.3,1-0.7,1.3l-0.2,0.2c-0.4,0.3-0.9,0.5-1.4,0.4l-4.1-0.2c-0.5,0-1,0.3-1.1,0.8
						l-0.1,0.3c-0.2,0.8-0.8,1.3-1.5,1.5l-0.6,0.1c-0.7,0.1-1.3-0.1-1.8-0.6l0,0l-0.7-0.7c-0.4-0.4-0.6-1-0.5-1.5
						c0-0.5,0.3-1.1,0.8-1.4c0.2-0.2,0.4-0.4,0.4-0.7l0.2-1.6c0.1-0.7,0.5-1.4,1.2-1.6l0.8-0.3c0.2-0.1,0.4-0.3,0.4-0.5
						c0.1-0.5,0.4-1,0.9-1.2c0.5-0.2,1-0.2,1.5,0.1l5,3.2c0.1,0.1,0.2,0.1,0.3,0.2l0.7,0.6c0.4,0.4,0.6,0.9,0.6,1.5
						C1007.8,177.2,1007.8,177.2,1007.8,177.3z"/>
				</g>
			</g>
		</g>
		<g>
			<path class="st10" d="M1123.1,113.6c-0.4,0.1-0.8,0.2-1.2,0.1c-1.6,0.4-7.4,1.8-16,4.1c-8.7,2.3-14.4,3.9-16,4.4
				c-0.4,0.2-0.7,0.4-1.1,0.5c-1.4,0.4-2.8,0-3.9-0.9c-0.9-0.7-1.4-1.8-1.5-2.9c-0.1-1.1,0.3-2.2,1-3.1c0,0,4.2-5,6.4-11.8
				c-2-1.7-3.5-4.1-4.2-6.6c-1.9-7.1,2.4-14.4,9.4-16.2c7.1-1.9,14.4,2.4,16.2,9.4c0.7,2.6,0.6,5.3-0.3,7.8c5.3,4.8,11.4,7,11.4,7
				c2.2,0.8,3.4,3.2,2.6,5.4C1125.5,112.2,1124.4,113.2,1123.1,113.6z"/>
			<path class="st6" d="M1121.6,112.7c-0.4,0.1-0.8,0.2-1.2,0.1c-1.6,0.4-7.4,1.8-16,4.1c-8.7,2.3-14.4,3.9-16,4.4
				c-0.4,0.2-0.7,0.4-1.1,0.5c-1.4,0.4-2.8,0-3.9-0.9c-0.9-0.7-1.4-1.8-1.5-2.9c-0.1-1.1,0.3-2.2,1-3.1c0,0,4.2-5,6.4-11.8
				c-2-1.7-3.5-4.1-4.2-6.6c-1.9-7.1,2.4-14.4,9.4-16.2s14.4,2.4,16.2,9.4c0.7,2.6,0.6,5.3-0.3,7.8c5.3,4.8,11.4,7,11.4,7
				c2.2,0.8,3.4,3.2,2.6,5.4C1124.1,111.3,1123,112.4,1121.6,112.7z"/>
			<g>
				<circle class="st13" cx="1098" cy="93.1" r="9.7"/>
				<path class="st13" d="M1120.8,107.9c-0.1,0-12-4.3-18.1-14.2c-0.2-0.3-0.5-0.4-0.8-0.3l-7.1,1.9c-0.3,0.1-0.5,0.3-0.5,0.7
					c-0.4,11.6-8.6,21.1-8.7,21.2c-0.3,0.3-0.2,0.7,0.1,1c0.3,0.3,0.7,0.2,1-0.1c0.3-0.3,33.2-9,33.6-8.9c0.1,0,0.3,0.1,0.4,0
					c0.2-0.1,0.4-0.2,0.5-0.4C1121.3,108.4,1121.1,108,1120.8,107.9z"/>
				<path class="st6" d="M1107.7,99.7c-1.9-1.7-3.6-3.7-5-6c-0.2-0.3-0.5-0.4-0.8-0.3l-7.1,1.9c-0.3,0.1-0.5,0.3-0.5,0.7
					c-0.1,2.7-0.7,5.2-1.4,7.6c-0.4,1.6,1.3,1.2,1.3,0.5l1.7,1.3c0.2,0.1,0.4,0.2,0.6,0.1c0.2,0,0.4-0.2,0.5-0.3l1.2-2l2.4,1.6
					c0.2,0.1,0.4,0.1,0.6,0.1s0.4-0.2,0.4-0.4l1.3-2.6l2,1.2c0.2,0.1,0.4,0.1,0.6,0.1c0.2-0.1,0.4-0.2,0.4-0.4l0.8-1.9
					C1107.7,101.7,1109.3,101.2,1107.7,99.7z"/>
				<path class="st6" d="M1104.9,101.4l-2-1.2c-0.2-0.1-0.4-0.1-0.6-0.1c-0.2,0.1-0.3,0.2-0.4,0.4l-1.3,2.5l-2.4-1.6
					c-0.2-0.1-0.4-0.1-0.6-0.1c-0.2,0-0.4,0.2-0.5,0.3l-1.1,2l-1.5-1.1c0.5-1.9,0.9-4,1-6.1l6.1-1.6c1.2,1.8,2.5,3.4,3.9,4.8
					L1104.9,101.4z"/>
			</g>
		</g>
		<g class="st14">
			<path class="st13" d="M1170.2,78.4L1159.6,67c-1-1.1-2.9-0.7-3.3,0.8l-4.6,14.8c-0.4,1.5,0.9,2.9,2.3,2.5l15.1-3.5
				C1170.7,81.3,1171.2,79.5,1170.2,78.4z"/>
		</g>
		<g class="st14">
			<circle class="st12" cx="1039.3" cy="172.4" r="12.6"/>
		</g>
		<g class="st14">
			<path class="st11" d="M868.8,111.2l-9.2-9.2c-0.8-0.8-0.8-2,0-2.8l9.2-9.2c0.8-0.8,2-0.8,2.8,0l9.2,9.2c0.8,0.8,0.8,2,0,2.8
				l-9.2,9.2C870.8,112,869.6,112,868.8,111.2z"/>
		</g>
		<path class="st15" d="M924.1,184.2l-6.9-2.2c-0.4-0.1-0.9-0.1-1.3,0.2l-5.7,4.4c-0.9,0.7-2.2,0-2.2-1.1l0-7.2
			c0-0.4-0.2-0.9-0.6-1.1l-5.9-4.1c-0.9-0.6-0.7-2.1,0.4-2.4l6.9-2.2c0.4-0.1,0.8-0.5,0.9-0.9l2.1-6.9c0.3-1.1,1.7-1.3,2.4-0.4
			l4.2,5.8c0.3,0.4,0.7,0.6,1.1,0.6l7.2-0.2c1.1,0,1.8,1.3,1.1,2.2l-4.3,5.8c-0.3,0.4-0.3,0.8-0.2,1.3l2.4,6.8
			C926.2,183.5,925.2,184.6,924.1,184.2z"/>
		<path class="st15" d="M1141.4,198.3l-5.6-4.5c-0.4-0.3-0.8-0.4-1.2-0.2l-6.9,2.1c-1.1,0.3-2.1-0.7-1.7-1.8l2.5-6.8
			c0.2-0.4,0.1-0.9-0.2-1.3l-4.1-5.9c-0.6-0.9,0.1-2.2,1.2-2.1l7.2,0.3c0.4,0,0.9-0.2,1.1-0.5l4.4-5.7c0.7-0.9,2.1-0.6,2.4,0.5
			l1.9,7c0.1,0.4,0.4,0.8,0.9,0.9l6.8,2.4c1.1,0.4,1.2,1.8,0.3,2.4l-6,4c-0.4,0.2-0.6,0.7-0.6,1.1l-0.2,7.2
			C1143.6,198.4,1142.3,199,1141.4,198.3z"/>
		<path class="st15" d="M1043.1,130.7l-3-3.7c-0.2-0.2-0.5-0.4-0.8-0.3l-4.8,0.3c-0.7,0.1-1.2-0.8-0.8-1.4l2.6-4
			c0.2-0.2,0.2-0.6,0.1-0.8l-1.8-4.4c-0.3-0.7,0.4-1.4,1.1-1.2l4.6,1.3c0.3,0.1,0.6,0,0.8-0.2l3.7-3.1c0.6-0.5,1.4-0.1,1.5,0.7
			l0.2,4.8c0,0.3,0.2,0.6,0.4,0.7l4,2.5c0.6,0.4,0.5,1.3-0.2,1.6l-4.5,1.7c-0.3,0.1-0.5,0.3-0.6,0.6l-1.2,4.6
			C1044.5,131,1043.6,131.2,1043.1,130.7z"/>
	</g>
	<g>
		<path class="st16" d="M1674.1,264.9c0.3-1.2-0.5-2.2-1.6-2.6c-3.2-1.2-183.9-101.7-186.6-103.6c-0.8-0.5-1.8-0.5-2.6,0
			c-2.9-2-5.4-4.4-8.7-5.8c-0.3-0.1-0.7-0.2-1-0.2c-5.1-2.4-9.3-6.2-14.5-8.6c-0.3-0.1-0.6-0.2-0.8-0.2c-2.6-1.6-5.2-3-7.9-4.2
			c-0.5-0.2-1-0.2-1.5-0.1c-0.1-0.2-0.2-0.4-0.4-0.6c-2.3-1.8-5-2.9-7.8-3.9c-2.1-2.2-4.7-4-7.4-5.5c-3.6-2-7.3-3.8-11.3-4.9
			c-0.4-0.1-0.8-0.1-1.2,0c-2.8-1.8-5.6-3.8-8.7-5.1c-1-0.4-2.2-0.1-2.9,0.6c-2.5-1.7-4.8-3.7-7.3-5.2c-0.9-0.5-2-0.3-2.7,0.4
			c-0.8-0.5-1.5-1-2.3-1.5c0-0.1-0.1-0.2-0.2-0.4c-1.5-2-4.6-3.1-6.9-4c-1.3-0.5-2.5-1-3.8-1.5c-1.8-1.1-3.7-2-5.8-2.8
			c-0.5-0.4-1-0.6-1.6-0.6c-1.8-1.1-3.6-2.2-5.5-3.2c-0.1-0.5-0.5-1-1-1.3c-2.2-1.2-4.6-2.1-7-2.9c-3.1-1.3-6.6-2.4-10.1-2.8
			c-0.9-0.3-1.8-0.6-2.8-0.7c-0.3-0.2-0.6-0.3-1-0.3c-0.2,0-0.5,0-0.7,0c-0.4-0.6-1-1-1.9-1.1c-0.6,0-1.3,0-2,0
			c-0.7-0.1-1.4-0.1-2.1-0.1c-0.4-0.5-1.1-0.8-1.7-0.9c-3-0.3-6.4,0-9.2,1.2c-0.9,0.3-1.7,0.6-2.6,0.9c-0.2,0-0.4,0.1-0.6,0.1
			c0,0,0,0-0.1,0c-3.5,0-7.1,0.6-10.4,1.6c-2.3,0.7-4.7,3-6.7,4.5c-0.3,0-0.6,0-0.8,0c-2.7,0.4-5.1,4.2-7.3,5.6
			c-0.3,0-0.6-0.1-0.9,0c-3.2,0.5-6.2,4.5-8.9,6.2c-3.7,0.8-7.3,3.9-10.4,6c0,0-5.4,5.1-5.5,5.1c-2.6,0.6-6.9,5.2-9.1,6.6
			c-0.9,0.6-2,1.3-3,2.1c-0.4,0.2-0.8,0.5-1.2,0.7c-0.7,0.4-6.7,2.5-7.3,2.9c-2.5,0.5-4.3,2.7-6.7,3.9c0,0-4.1,5.6-9,8
			c-3.4,1.7-17.8,13.2-21.1,15.1c0,0-5.8,6.1-8.4,7.7c-3.3,2-4.8,5.1-8,7.2c-0.8,0.5-1.7,1.1-2.5,1.7c-3.5,1-9.4,3.4-12.4,5.2
			c-0.2,0.1-0.4,0.3-0.7,0.4c-1,0-15.9,13.1-16.9,13.3c-2.8,0.6-10.9,8-13.4,9.2c-3.3,1.6-13.7,4.9-16.8,7c-2.1,0.7-4.2,2.9-6.3,3.9
			c-0.4-0.1-26.8,16.7-27.2,16.7c-5,0-11.8,2-15.8,4.5c-0.3,0.2-41.3,20.4-41.6,20.6c-3.6,0.9-7.1,2.7-10.2,4.6
			c-0.2,0.1-0.4,0.3-0.7,0.4c-1.5,0.3-2.9,0.8-4.2,1.5c-0.1,0-0.3,0.1-0.4,0.2c-1.3,0.6-29.6,18.5-30.9,19c-1.3,0.3-2.5,0.7-3.8,1.1
			c-1.4-0.1-2.8,0.2-4.1,0.5c-2.7,0.6-5.3,1.6-7.9,2.8c-2.9,1.3-5.8,2.8-8.5,4.4c-0.7,0.3-1.4,4.5-2,4.8c-5.9,2.3-11.6-0.2-16.6,3.4
			c-2.2,1.6-2.7,4-2.7,4h535.7L1674.1,264.9L1674.1,264.9z"/>
	</g>
	<g>
		<polygon class="st1" points="1335.1,39.5 1334.4,39.5 1334.2,39.5 1334.2,95.6 1334.4,95.6 1335.1,95.6 1337.1,95.6 1337.1,39.5 
					"/>
		<path class="st1" d="M1339,37.4c0-1.8-1.4-3.2-3.2-3.2c-1.8,0-3.2,1.4-3.2,3.2c0,1.8,1.4,3.2,3.2,3.2
			C1337.5,40.6,1339,39.2,1339,37.4z"/>
		<path class="st2" d="M1335.9,36.2c0-0.6-0.5-1-1-1s-1,0.5-1,1c0,0.6,0.5,1,1,1S1335.9,36.7,1335.9,36.2z"/>
		<path class="st3" d="M1337.1,40.6c0,9.4,0,18.8,0,28.2c16.1,5.1,32.3-16.9,48.4-11.8C1369.4,42.5,1353.2,55.1,1337.1,40.6z"/>
		<path class="st4" d="M1377.6,51.9c-13.5-6-27,0.9-40.5-11.3c0,6.4,0,12.8,0,19.2C1350.6,62.6,1364.1,56.1,1377.6,51.9z"/>
	</g>
	<path class="st17" d="M2048,322v-25.1c-1.1-0.3-1.9-0.6-2.3-0.7c-1-0.5-2.1-1-3.2-1.4c-3.3-1.4-6.7-2.7-10.3-3.2
		c-4.1-2.5-41.4-13.7-46.1-14.7c-1.8-0.6-3.7-1.1-5.5-1.6c-2.8-1.6-50.9-14.9-54.1-15.6c-0.9-0.5-1.9-0.9-2.9-1.3
		c-3.8-1.6-7.7-2.9-11.7-3.9c-0.3-0.1-0.7-0.1-0.9,0c-2.4-0.9-4.8-1.7-7.4-2.1c-3.2-1.4-6.5-2.6-10-3.3c-0.1,0-0.2,0-0.3,0
		c-3.6-1.7-7.4-3.3-11.3-4.6c-0.4-0.1-0.9-0.1-1.3,0c-3.2-1.2-6.4-2.2-9.7-3.1c-1.1-0.5-2.1-1-3.2-1.5c-0.2-0.1-0.4-0.2-0.6-0.2
		c-7.3-4.9-16.8-6.4-25.4-8.6c-1.1-0.4-2.1-0.8-3.2-1.2c-4.3-1.5-9.1-2.9-13.8-3.1c-0.2,0-0.4,0-0.6,0.1c-4-2.5-8.9-3.4-13.6-3.5
		c-3.9-0.1-7.8,0.2-11.7,0.9c-0.4-0.4-0.9-0.6-1.6-0.5c-8.1,1-17,2.3-24.1,6.3c-2.2,0.9-4.3,2.1-6.5,3c-0.8,0.3-1.7,0.6-2.5,1
		c-0.5,0.2-0.8,0.5-1,0.9c-0.3,0.1-0.6,0.3-0.9,0.4c-0.3,0.1-0.6,0.2-0.9,0.4c-0.2,0-0.4,0-0.6,0.1c-4,1.2-7.8,2.9-11.5,4.6
		c-1.7,0.6-3.4,1.3-5,2.3c-0.3,0.2-0.5,0.4-0.6,0.6c-0.8,0.3-1.7,0.6-2.5,1c-0.2,0-0.4,0.1-0.6,0.2c-1.1,0.4-2.1,1-3.1,1.6
		c-0.1,0-0.1,0.1-0.2,0.1c-0.8,0.4-1.6,0.7-2.4,1.2c-1.5,0.3-3,0.5-4.6,0.7c-1.1,0.1-2.4,0-3.7,0.1c-1.6-0.1-3.2-0.3-4.9-0.5
		c-0.2-0.1-0.5-0.2-0.7-0.3c-1.8-0.9-3.7-1.7-5.7-2.1c0,0,0,0,0,0c-1.5-0.7-3-1.4-4.7-1.6c-3.1-1.8-6.7-3-10.1-3.9
		c-0.3-0.1-0.6-0.1-0.8-0.1c-2.3-1.2-4.8-2.2-7.3-3.1c-0.4-0.1-0.8-0.1-1.1,0c-1.2-0.6-2.5-1.1-3.7-1.6c-0.9-0.4-1.9-0.8-2.8-1.2
		c-6.9-3.4-13.9-6.7-21.4-8.9c-3.4-1.5-6.9-2.9-10.5-4c-1.1-0.5-2.2-1-3.4-1.4c-1.8-0.7-3.6-1.3-5.4-1.9c-3-1.4-6.1-2.9-9.3-2.9
		c-1.6-0.8-3.3-1.7-5.2-1.9c-0.3,0-0.6,0-0.9,0.1c-1.5-0.8-3.1-1.3-4.8-1.5c-0.4-0.1-0.8,0-1.2,0.2c-1.2-0.4-2.5-0.6-3.9-0.7
		c-0.7,0-1.3,0.4-1.7,1c-0.6,0-1.2,0.2-1.8,0.4c-0.7-0.1-1.5-0.1-2.2-0.1c-0.7,0.1-1.3,0.3-1.7,0.8c-0.1,0-0.2-0.1-0.2-0.1
		c-1.1-0.6-2.7-0.1-3.1,1.1c-0.1,0.3-0.2,0.5-0.3,0.7c0,0,0,0-0.1,0c-0.2,0.1-0.3,0.2-0.5,0.3c0,0-0.1,0-0.1,0c-0.1,0-0.1,0-0.2,0
		c-0.7-0.2-1.5,0-2.1,0.5c-0.2,0-0.4,0-0.7,0c-0.8,0.1-1.3,0.6-1.8,1.1c-0.3,0.1-0.5,0.2-0.8,0.4c-0.3,0-0.7,0.2-1,0.4
		c-0.1,0.1-0.2,0.1-0.2,0.2c-0.5,0.2-0.9,0.5-1.3,0.8c-0.1,0-0.2,0-0.3-0.1c-2.5-0.6-4.4,0.5-4.9,2.8c-0.5,0-1.1,0.1-1.5,0.4
		c-0.1,0.1-0.3,0.2-0.4,0.3c-0.2,0-0.5,0.1-0.7,0.1c-0.6,0.2-1.2,0.3-1.8,0.3c-0.2-0.1-0.5-0.1-0.8-0.2c-0.4-0.1-0.8-0.1-1.1,0
		c-0.1,0-0.3-0.1-0.4-0.1c-1.9-1.1-4-1.8-5.8-3c-0.3-0.2-0.5-0.3-0.9-0.3c-0.1-0.1-0.2-0.1-0.3-0.2c-1.5-1.1-3.1-2.1-4.8-3.1
		c-1.9-2.9-5.1-5.4-8.6-5.9c-1.8-1.5-3.7-2.9-5.4-4.5c-0.6-0.5-1.3-0.6-1.9-0.4c-1.5-1.2-3.1-2.3-4.8-3.2c-0.1,0-0.1-0.1-0.2-0.1
		c-1.2-0.9-2.4-1.8-3.6-2.5c-0.1-0.1-0.2-0.1-0.4-0.2c-0.2-0.2-0.4-0.4-0.7-0.6c-0.5-0.4-1-0.6-1.6-0.5c-1.5-1.3-3-2.6-4.7-3.6
		c-0.1,0-0.1-0.1-0.2-0.1c-1.5-1.5-3.1-2.8-5.1-3.8c-1.1-0.9-2.2-1.7-3.5-2.4c-0.5-0.3-1-0.3-1.5-0.1c-0.1-0.1-0.2-0.1-0.3-0.2
		c-0.8-0.6-1.5-1.3-2.3-1.9c-1-0.8-2-1.7-3-2.5c-2-1.5-4.1-2.6-6.4-3.7c-0.8-0.4-1.5-0.7-2.3-1.1c-1.1-0.8-2.2-1.5-3.2-2.3
		c-1.5-1.1-3.2-0.3-3.6,0.9c-0.1,0.1-0.1,0.1-0.2,0.2c0,0,0,0,0,0.1c-2.4-1.3-4.6-2.9-6.7-4.6c-0.7-0.6-1.6-0.6-2.3-0.2
		c-0.7-0.3-1.5-0.4-2.3,0.2c-2.2,1.6-4.3,3.3-6.7,4.6c0,0,0,0,0-0.1c0-0.1-0.1-0.1-0.2-0.2c-0.4-1.2-2.2-2-3.6-0.9
		c-1.1,0.8-2.2,1.5-3.2,2.3c-0.7,0.4-1.5,0.8-2.3,1.1c-2.3,1.1-4.4,2.2-6.4,3.7c-1,0.8-2,1.6-3,2.5c-0.8,0.6-1.6,1.3-2.3,1.9
		c-0.1,0.1-0.2,0.1-0.3,0.2c-0.5-0.1-1-0.1-1.5,0.1c-1.3,0.7-2.5,1.5-3.5,2.4c-2,1-3.6,2.3-5.1,3.8c-0.1,0-0.1,0.1-0.2,0.1
		c-1.7,1-3.2,2.3-4.7,3.6c-0.5-0.1-1.1,0.1-1.6,0.5c-0.2,0.2-0.4,0.4-0.7,0.6c-0.1,0-0.2,0.1-0.4,0.2c-1.2,0.8-2.4,1.6-3.6,2.5
		c-0.1,0-0.1,0.1-0.2,0.1c-1.7,1-3.3,2-4.8,3.2c-0.6-0.2-1.3-0.2-1.9,0.4c-1.7,1.6-3.6,3-5.4,4.5c-3.5,0.5-6.7,3-8.6,5.9
		c-1.6,1-3.3,2-4.8,3.1c-0.1,0.1-0.2,0.1-0.3,0.2c-0.3,0-0.6,0.2-0.9,0.3c-1.8,1.2-3.9,1.9-5.8,3c-0.1,0-0.3,0.1-0.4,0.1
		c-0.4,0-0.7,0-1.1,0c-0.3,0-0.5,0.1-0.8,0.2c-0.6,0-1.2-0.1-1.8-0.3c-0.2-0.1-0.5-0.1-0.7-0.1c-0.1-0.1-0.3-0.2-0.4-0.3
		c-0.5-0.3-1-0.4-1.5-0.4c-0.5-2.3-2.5-3.4-4.9-2.8c-0.1,0-0.2,0-0.3,0.1c-0.4-0.3-0.9-0.5-1.3-0.8c-0.1-0.1-0.1-0.1-0.2-0.2
		c-0.3-0.3-0.7-0.4-1-0.4c-0.3-0.1-0.5-0.3-0.8-0.4c-0.4-0.5-0.9-0.9-1.8-1.1c-0.2,0-0.4-0.1-0.7,0c-0.5-0.5-1.4-0.7-2.1-0.5
		c-0.1,0-0.1,0-0.2,0c0,0-0.1,0-0.1,0c-0.2-0.1-0.3-0.2-0.5-0.3c0,0,0,0-0.1,0c-0.1-0.2-0.2-0.5-0.3-0.7c-0.3-1.2-2-1.7-3.1-1.1
		c-0.1,0-0.2,0.1-0.2,0.1c-0.4-0.4-1-0.7-1.7-0.8c-0.8-0.1-1.5,0-2.2,0.1c-0.6-0.2-1.2-0.3-1.8-0.4c-0.3-0.6-0.9-1-1.7-1
		c-1.4,0.1-2.7,0.3-3.9,0.7c-0.3-0.2-0.7-0.3-1.2-0.2c-1.7,0.2-3.3,0.7-4.8,1.5c-0.3-0.1-0.6-0.1-0.9-0.1c-1.9,0.2-3.6,1-5.2,1.9
		c-3.2,0-6.3,1.5-9.3,2.9c-1.8,0.6-3.6,1.2-5.4,1.9c-1.1,0.4-2.2,0.9-3.4,1.4c-3.6,1.1-7.1,2.5-10.5,4c-7.5,2.2-14.5,5.5-21.4,8.9
		c-0.9,0.4-1.9,0.8-2.8,1.2c-1.3,0.4-2.5,1-3.7,1.6c-0.4-0.1-0.8-0.1-1.1,0c-2.5,0.8-5,1.9-7.3,3.1c-0.3,0-0.5,0-0.8,0.1
		c-3.4,0.9-7,2.1-10.1,3.9c-1.6,0.3-3.2,0.9-4.7,1.6c0,0,0,0,0,0c-2,0.4-3.9,1.2-5.7,2.1c-0.2,0.1-0.5,0.2-0.7,0.3
		c-1.6,0.2-3.2,0.3-4.9,0.5c-1.3-0.1-2.6,0-3.7-0.1c-1.5-0.1-3-0.4-4.6-0.7c-0.8-0.4-1.6-0.8-2.4-1.2c-0.1,0-0.1-0.1-0.2-0.1
		c-1-0.6-2-1.2-3.1-1.6c-0.2-0.1-0.4-0.1-0.6-0.2c-0.8-0.4-1.7-0.7-2.5-1c-0.1-0.2-0.3-0.4-0.6-0.6c-1.6-0.9-3.2-1.7-5-2.3
		c-3.8-1.7-7.5-3.4-11.5-4.6c-0.2-0.1-0.4-0.1-0.6-0.1c-0.3-0.1-0.6-0.2-0.9-0.4c-0.3-0.1-0.6-0.3-0.9-0.4c-0.2-0.4-0.5-0.7-1-0.9
		c-0.8-0.3-1.6-0.6-2.5-1c-2.2-1-4.2-2.2-6.5-3c-7.1-4-16-5.3-24.1-6.3c-0.6-0.1-1.2,0.1-1.6,0.5c-3.8-0.7-7.8-1-11.7-0.9
		c-4.8,0.2-9.7,1-13.6,3.5c-0.2-0.1-0.4-0.1-0.6-0.1c-4.7,0.2-9.4,1.6-13.8,3.1c-1,0.4-2.1,0.8-3.2,1.2c-8.6,2.2-18.1,3.7-25.4,8.6
		c-0.2,0.1-0.4,0.2-0.6,0.2c-1.1,0.5-2.2,1-3.2,1.5c-3.3,0.9-6.5,1.9-9.7,3.1c-0.4-0.1-0.8-0.1-1.3,0c-3.9,1.3-7.6,2.8-11.3,4.6
		c-0.1,0-0.2,0-0.3,0c-3.5,0.7-6.8,1.9-10,3.3c-2.5,0.5-5,1.2-7.4,2.1c-0.3-0.1-0.6-0.1-0.9,0c-4,1.1-7.9,2.4-11.7,3.9
		c-1,0.4-1.9,0.8-2.9,1.3c-1,0.2-6.4,1.7-13.4,3.6c-9.6-2.3-29.3-4.9-33.2-5.7c-1.8-0.6-21,3.9-22.8,3.4c-2.8-1.6-28.9-4.8-44.9-1.3
		c-0.9-0.5-1.9-0.9-2.9-1.3c-3.8-1.6-7.7-2.9-11.7-3.9c-0.3-0.1-0.7-0.1-0.9,0c-2.4-0.9-4.8-1.7-7.4-2.1c-3.2-1.4-6.5-2.6-10-3.3
		c-0.1,0-0.2,0-0.3,0c-3.6-1.7-7.4-3.3-11.3-4.6c-0.4-0.1-0.9-0.1-1.3,0c-3.2-1.2-6.4-2.2-9.7-3.1c-1.1-0.5-2.1-1-3.2-1.5
		c-0.2-0.1-0.4-0.2-0.6-0.2c-7.3-4.9-16.8-1.8-25.4-4c-1.1-0.4-2.1-0.8-3.2-1.2c-4.3-1.5-9.1-2.9-13.8-3.1c-0.2,0-0.4,0-0.6,0.1
		c-4-2.5-8.9-3.4-13.6-3.5c-3.9-0.1-7.8,0.2-11.7,0.9c-0.4-0.4-0.9-0.6-1.6-0.5c-8.1,1-17,2.3-24.1,6.3c-2.2,0.9-4.3,2.1-6.5,3
		c-0.8,0.3-1.7,0.6-2.5,1c-0.5,0.2-0.8,0.5-1,0.9c-0.3,0.1-0.6,0.3-0.9,0.4c-0.3,0.1-0.6,0.2-0.9,0.4c-0.2,0-0.4,0-0.6,0.1
		c-4,1.2-7.8-1.7-11.5,0c-1.7,0.6-3.4,1.3-5,2.3c-0.3,0.2-0.5,0.4-0.6,0.6c-0.8,0.3-1.7,0.6-2.5,1c-0.2,0-0.4,0.1-0.6,0.2
		c-1.1,0.4-2.1,1-3.1,1.6c-0.1,0-0.1,0.1-0.2,0.1c-0.8,0.4-1.6,0.7-2.4,1.2c-1.5,0.3-3,0.5-4.6,0.7c-1.1,0.1-2.4,0-3.7,0.1
		c-1.6-0.1-3.2-0.3-4.9-0.5c-0.2-0.1-0.5-0.2-0.7-0.3c-1.8-0.9-3.7-1.7-5.7-2.1c0,0,0,0,0,0c-1.5-0.7-3-1.4-4.7-1.6
		c-3.1-1.8-6.7-3-10.1-3.9c-0.3-0.1-0.6-0.1-0.8-0.1c-2.3-1.2-4.8-2.2-7.3-3.1c-0.4-0.1-0.8-0.1-1.1,0c-1.2-0.6-2.5-1.1-3.7-1.6
		c-0.9-0.4-1.9,1.8-2.8,1.4c-6.9-3.4-13.9,8-21.4,5.8c-3.4-1.5-6.9-0.2-10.5-1.4c-1.1-0.5-2.2-1-3.4-1.4c-1.8-0.7-3.6,0-5.4-0.5
		c-3-1.4-6.1-1.6-9.3-1.6c-1.6-0.8-3.3-0.3-5.2-0.5c-0.3,0-0.6,0-0.9,0.1c-1.5-0.8-3.1,1.3-4.8,1.1c-0.4-0.1-0.8,0-1.2,0.2
		c-1.2-0.4-2.5,2-3.9,2c-0.7,0-1.3,0.4-1.7,1c-0.6,0-1.2,0.2-1.8,0.4c-0.7-0.1-1.5-0.1-2.2-0.1c-0.7,0.1-1.3,0.3-1.7,0.8
		c-0.1,0-0.2-0.1-0.2-0.1c-1.1-0.6-2.7,1.2-3.1,2.4c-0.1,0.3-0.2,0.5-0.3,0.7c0,0,0,0-0.1,0c-0.2,0.1-0.3,0.2-0.5,0.3
		c0,0-0.1,0-0.1,0c-0.1,0-0.1,0-0.2,0c-0.7-0.2-1.5,0-2.1,0.5c-0.2,0-0.4,0-0.7,0c-0.8,0.1-0.9-0.8-1.6-0.5c-0.3,0.1-0.8,0-1.1,0.1
		c-0.3,0-0.7,0.2-1,0.4c-0.1,0.1-0.7-0.1-0.7,0c-0.5,0.2-0.8,0-1.2,0.3c-0.1,0-0.2,0-0.3-0.1c-2.5-0.6-2.1-0.1-5.1,0.9
		c-0.5,0-1.8-0.2-1.9-0.1c-0.2,0-1.8-0.2-2.4-0.4c-0.6-0.2-1.5-0.4-2.1-0.4c-0.2-0.1-0.5-0.1-0.8-0.2c-0.4-0.1-0.8-0.1-1.1,0
		c-0.1,0-0.3-0.1-0.4-0.1c-1.9-1.1-1.4-1.8-3.2-3c-0.3-0.2-0.5-0.3-0.9-0.3c-0.1-0.1-0.2-0.1-0.3-0.2c-1.5-1.1-3-0.2-4.6-1.3
		c-1.9-2.9-5.1-1.4-8.6-1.9c-1.8-1.5-3.7-2.9-5.4-4.5c-0.6-0.5-1.3-0.6-1.9-0.4c-1.5-1.2-3.1-2.3-4.8-3.2c-0.1,0-0.1-0.1-0.2-0.1
		c-1.2-0.9-2.4-1.8-3.6-2.5c-0.1-0.1-0.2-0.1-0.4-0.2c-0.2-0.2-0.4-0.4-0.7-0.6c-0.5-0.4-1-0.6-1.6-0.5c-1.5-1.3-3-2.6-4.7-3.6
		c-0.1,0-0.1-0.1-0.2-0.1c-1.5-1.5-3.1-2.8-5.1-3.8c-1.1-0.9-2.2-1.7-3.5-2.4c-0.5-0.3-1-0.3-1.5-0.1c-0.1-0.1-0.2-0.1-0.3-0.2
		c-0.8-0.6-1.5-1.3-2.3-1.9c-1-0.8-2-1.7-3-2.5c-2-1.5-4.1-2.6-6.4-3.7c-0.8-0.4-1.5-0.7-2.3-1.1c-1.1-0.8-2.2-1.5-3.2-2.3
		c-1.5-1.1-3.2-0.3-3.6,0.9c-0.1,0.1-0.1,0.1-0.2,0.2c0,0,0,0,0,0.1c-2.4-1.3-4.6-2.9-6.7-4.6c-0.7-0.6-1.6-0.6-2.3-0.2
		c-0.7-0.3-1.5-0.4-2.3,0.2c-2.2,1.6-4.3,3.3-6.7,4.6c0,0,0,0,0-0.1c0-0.1-0.1-0.1-0.2-0.2c-0.4-1.2-2.2-2-3.6-0.9
		c-1.1,0.8-2.2,1.5-3.2,2.3c-0.7,0.4-1.5,0.8-2.3,1.1c-2.3,1.1-4.4,2.2-6.4,3.7c-1,0.8-2,1.6-3,2.5c-0.8,0.6-1.6,1.3-2.3,1.9
		c-0.1,0.1-0.2,0.1-0.3,0.2c-0.5-0.1-1-0.1-1.5,0.1c-1.3,0.7-2.5,1.5-3.5,2.4c-2,1-3.6,2.3-5.1,3.8c-0.1,0-0.1,0.1-0.2,0.1
		c-1.7,1-3.2,2.3-4.7,3.6c-0.5-0.1-1.1,0.1-1.6,0.5c-0.2,0.2-0.4,0.4-0.7,0.6c-0.1,0-0.2,0.1-0.4,0.2c-1.2,0.8-2.4,1.6-3.6,2.5
		c-0.1,0-0.1,0.1-0.2,0.1c-1.7,1-3.3,2-4.8,3.2c-0.6-0.2-1.3-0.2-1.9,0.4c-1.7,1.6-3.6,3-5.4,4.5c-3.5,0.5-6.7-1-8.6,1.9
		c-1.6,1-3.1,0.1-4.6,1.3c-0.1,0.1-0.2,0.1-0.3,0.2c-0.3,0-0.6,0.2-0.9,0.3c-1.8,1.2-1.4,1.9-3.2,3c-0.1,0-0.3,0.1-0.4,0.1
		c-0.4,0-0.7,0-1.1,0c-0.3,0-0.5,0.1-0.8,0.2c-0.6,0-1.5,0.2-2.1,0.4c-0.6,0.2-2.2,0.4-2.4,0.4c-0.1-0.1-1.4,0.1-1.9,0.1
		c-3-0.9-2.6-1.4-5.1-0.9c-0.1,0-0.2,0-0.3,0.1c-0.4-0.3-0.7-0.1-1.2-0.3c-0.1-0.1-0.7,0.1-0.7,0c-0.3-0.3-0.7-0.4-1-0.4
		c-0.3-0.1-0.8,0-1.1-0.1c-0.7-0.2-0.8,0.7-1.6,0.5c-0.2,0-0.4-0.1-0.7,0c-0.5-0.5-1.4-0.7-2.1-0.5c-0.1,0-0.1,0-0.2,0
		c0,0-0.1,0-0.1,0c-0.2-0.1-0.3-0.2-0.5-0.3c0,0,0,0-0.1,0c-0.1-0.2-0.2-0.5-0.3-0.7c-0.3-1.2-2-3.1-3.1-2.4c-0.1,0-0.2,0.1-0.2,0.1
		c-0.4-0.4-1-0.7-1.7-0.8c-0.8-0.1-1.5,0-2.2,0.1c-0.6-0.2-1.2-0.3-1.8-0.4c-0.3-0.6-0.9-1-1.7-1c-1.4,0.1-2.7-2.4-3.9-2
		c-0.3-0.2-0.7-0.3-1.2-0.2c-1.7,0.2-3.3-1.9-4.8-1.1c-0.3-0.1-0.6-0.1-0.9-0.1c-1.9,0.2-3.6-0.3-5.2,0.5c-3.2,0-6.3,0.2-9.3,1.6
		c-1.8,0.6-3.6-0.2-5.4,0.5c-1.1,0.4-2.2,0.9-3.4,1.4c-3.6,1.1-7.1-0.2-10.5,1.4c-7.5,2.2-14.5-9.2-21.4-5.8
		c-0.9,0.4-1.9-1.8-2.8-1.4c-1.3,0.4-2.5,1-3.7,1.6c-0.4-0.1-0.8-0.1-1.1,0c-2.5,0.8-5,1.9-7.3,3.1c-0.3,0-0.5,0-0.8,0.1
		c-3.4,0.9-7,2.1-10.1,3.9c-1.6,0.3-3.2,0.9-4.7,1.6c0,0,0,0,0,0c-2,0.4-3.9,1.2-5.7,2.1c-0.2,0.1-0.5,0.2-0.7,0.3
		c-1.6,0.2-3.2,0.3-4.9,0.5c-1.3-0.1-2.6,0-3.7-0.1c-1.5-0.1-3-0.4-4.6-0.7c-0.8-0.4-1.6-0.8-2.4-1.2c-0.1,0-0.1-0.1-0.2-0.1
		c-1-0.6-2-1.2-3.1-1.6c-0.2-0.1-0.4-0.1-0.6-0.2c-0.8-0.4-1.7-0.7-2.5-1c-0.1-0.2-0.3-0.4-0.6-0.6c-1.6-0.9-3.2-1.7-5-2.3
		c-3.8-1.7-7.5,1.2-11.5,0c-0.2-0.1-0.4-0.1-0.6-0.1c-0.3-0.1-0.6-0.2-0.9-0.4c-0.3-0.1-0.6-0.3-0.9-0.4c-0.2-0.4-0.5-0.7-1-0.9
		c-0.8-0.3-1.6-0.6-2.5-1c-2.2-1-4.2-2.2-6.5-3c-7.1-4-16-5.3-24.1-6.3c-0.6-0.1-1.2,0.1-1.6,0.5c-3.8-0.7-7.8-1-11.7-0.9
		c-4.8,0.2-9.7,1-13.6,3.5c-0.2-0.1-0.4-0.1-0.6-0.1c-4.7,0.2-9.4,1.6-13.8,3.1c-1,0.4-2.1,0.8-3.2,1.2c-8.6,2.2-18.1-0.9-25.4,4
		c-0.2,0.1-0.4,0.2-0.6,0.2c-1.1,0.5-2.2,1-3.2,1.5c-3.3,0.9-6.5,1.9-9.7,3.1c-0.4-0.1-0.8-0.1-1.3,0c-3.9,1.3-7.6,2.8-11.3,4.6
		c-0.1,0-0.2,0-0.3,0c-3.5,0.7-6.8,1.9-10,3.3c-2.5,0.5-5,1.2-7.4,2.1c-0.3-0.1-0.6-0.1-0.9,0c-4,1.1-7.9,2.4-11.7,3.9
		c-1,0.4-1.9,0.8-2.9,1.3c-16-3.5-42.1-0.3-44.9,1.3c-1.8,0.5-21-3.9-22.8-3.4c-4.8,0.9-33.9,4.7-38,7.2c-3.6,0.5-7,1.8-10.3,3.2
		c-1.1,0.4-2.1,0.9-3.2,1.4c-0.4,0.1-1.2,0.3-2.3,0.7V322H2048z"/>
</g>
</svg>
