<?xml version="1.0" encoding="utf-8"?>
<!-- Generator: Adobe Illustrator 27.8.1, SVG Export Plug-In . SVG Version: 6.00 Build 0)  -->
<svg version="1.1" id="圖層_1" xmlns="http://www.w3.org/2000/svg" xmlns:xlink="http://www.w3.org/1999/xlink" x="0px" y="0px"
	 viewBox="0 0 360 278" style="enable-background:new 0 0 360 278;" xml:space="preserve">
<style type="text/css">
	.st0{fill:#009FE8;}
	.st1{fill:#E1F3FC;}
	.st2{fill:#6DCEF5;}
	.st3{fill:#166FDB;}
	.st4{fill:#FFFFFF;}
	.st5{fill:#F89D1C;}
	.st6{fill:#FBB820;}
	.st7{fill:#FFD753;}
	.st8{fill:#F7981D;}
	.st9{display:none;}
	.st10{display:inline;fill:#166FDB;}
	.st11{display:inline;fill:#EF4E3E;}
	.st12{fill:#EF4E3E;}
</style>
<g>
	<g>
		<path class="st0" d="M351.3,158.1l1.3-1l1.2,1.6c0.2,0.2,0.4,0.4,0.6,0.5c0.1,0,0.2,0.1,0.3,0.1c0.3,0.1,0.7,0,1-0.2l2.9-2.1
			c0.6-0.4,0.7-1.3,0.3-1.9l-4-5.4c-0.4-0.6-1.3-0.7-1.9-0.3l-2.9,2.1c-0.6,0.4-0.7,1.3-0.3,1.9l1.2,1.7l-1.3,1
			c-3.3-4.1-7.6-7.4-12.8-9.5l0.9-2.6l3.8,1.4c0.7,0.2,1.4-0.1,1.7-0.8l1.6-4.5c0.2-0.7-0.1-1.4-0.8-1.7l-10.2-3.7
			c-0.7-0.2-1.4,0.1-1.7,0.8l-1.6,4.5c-0.2,0.7,0.1,1.4,0.8,1.7l3.9,1.4l-0.9,2.6c-16.3-5.1-33.9,3.5-39.8,19.7
			c-6,16.6,2.7,35,19.3,41c16.6,6,35-2.7,41-19.3C358.6,177,356.9,166.3,351.3,158.1z"/>
		<ellipse class="st1" cx="324.7" cy="176.2" rx="27.6" ry="27.6"/>
		<path class="st2" d="M348.2,172C348.2,172,348.2,171.9,348.2,172c-1.5-8.1-7.1-15.2-15.3-18.2l-8.1,22.4L348.2,172z"/>
		<g>
			<g>
				<g>
					<path class="st0" d="M332.3,155.3c-0.3-0.1-0.5-0.5-0.4-0.8l0.7-2c0.1-0.3,0.5-0.5,0.8-0.4s0.5,0.5,0.4,0.8l-0.7,2
						C333,155.3,332.7,155.5,332.3,155.3z"/>
				</g>
				<g>
					<path class="st0" d="M316.2,200.2c-0.3-0.1-0.5-0.5-0.4-0.8l0.7-2c0.1-0.3,0.5-0.5,0.8-0.4s0.5,0.5,0.4,0.8l-0.7,2
						C316.8,200.2,316.5,200.4,316.2,200.2z"/>
				</g>
			</g>
			<g>
				<g>
					<path class="st0" d="M320.6,154.3c-0.2-0.1-0.4-0.3-0.4-0.5l-0.4-2.1c-0.1-0.3,0.2-0.7,0.5-0.7c0.3-0.1,0.7,0.2,0.7,0.5
						l0.4,2.1c0.1,0.3-0.2,0.7-0.5,0.7C320.8,154.4,320.7,154.4,320.6,154.3z"/>
				</g>
				<g>
					<path class="st0" d="M329,201.3c-0.2-0.1-0.4-0.3-0.4-0.5l-0.4-2.1c-0.1-0.3,0.2-0.7,0.5-0.7c0.3-0.1,0.7,0.2,0.7,0.5l0.4,2.1
						c0.1,0.3-0.2,0.7-0.5,0.7C329.2,201.4,329.1,201.4,329,201.3z"/>
				</g>
			</g>
			<g>
				<g>
					<path class="st0" d="M309.9,159.4c-0.1,0-0.2-0.1-0.3-0.2l-1.4-1.6c-0.2-0.3-0.2-0.7,0.1-0.9c0.3-0.2,0.7-0.2,0.9,0.1l1.4,1.6
						c0.2,0.3,0.2,0.7-0.1,0.9C310.3,159.4,310.1,159.4,309.9,159.4z"/>
				</g>
				<g>
					<path class="st0" d="M340.7,195.8c-0.1,0-0.2-0.1-0.3-0.2L339,194c-0.2-0.3-0.2-0.7,0.1-0.9c0.3-0.2,0.7-0.2,0.9,0.1l1.4,1.6
						c0.2,0.3,0.2,0.7-0.1,0.9C341.1,195.9,340.9,195.9,340.7,195.8z"/>
				</g>
			</g>
			<g>
				<g>
					<path class="st0" d="M303.2,169l-2-0.7c-0.3-0.1-0.5-0.5-0.4-0.8s0.5-0.5,0.8-0.4l2,0.7c0.3,0.1,0.5,0.5,0.4,0.8
						C303.9,169,303.5,169.2,303.2,169z"/>
				</g>
				<g>
					<path class="st0" d="M348.1,185.2l-2-0.7c-0.3-0.1-0.5-0.5-0.4-0.8s0.5-0.5,0.8-0.4l2,0.7c0.3,0.1,0.5,0.5,0.4,0.8
						C348.8,185.2,348.4,185.4,348.1,185.2z"/>
				</g>
			</g>
			<g>
				<g>
					<path class="st0" d="M300.1,181.2c-0.2-0.1-0.4-0.3-0.4-0.5c-0.1-0.3,0.2-0.7,0.5-0.7l2.1-0.4c0.3-0.1,0.7,0.2,0.7,0.5
						c0.1,0.3-0.2,0.7-0.5,0.7l-2.1,0.4C300.3,181.2,300.2,181.2,300.1,181.2z"/>
				</g>
				<g>
					<path class="st0" d="M347,172.8c-0.2-0.1-0.4-0.3-0.4-0.5c-0.1-0.3,0.2-0.7,0.5-0.7l2.1-0.4c0.3-0.1,0.7,0.2,0.7,0.5
						c0.1,0.3-0.2,0.7-0.5,0.7l-2.1,0.4C347.3,172.8,347.1,172.8,347,172.8z"/>
				</g>
			</g>
			<g>
				<g>
					<path class="st0" d="M305.6,192.9c-0.1,0-0.2-0.1-0.3-0.2c-0.2-0.3-0.2-0.7,0.1-0.9l1.6-1.4c0.3-0.2,0.7-0.2,0.9,0.1
						c0.2,0.3,0.2,0.7-0.1,0.9l-1.6,1.4C306,192.9,305.8,192.9,305.6,192.9z"/>
				</g>
				<g>
					<path class="st0" d="M342,162.1c-0.1,0-0.2-0.1-0.3-0.2c-0.2-0.3-0.2-0.7,0.1-0.9l1.6-1.4c0.3-0.2,0.7-0.2,0.9,0.1
						c0.2,0.3,0.2,0.7-0.1,0.9l-1.6,1.4C342.5,162.1,342.2,162.1,342,162.1z"/>
				</g>
			</g>
		</g>
		<path class="st3" d="M341,173.2l-13.4,0.8c-0.4-0.6-1-1-1.7-1.3c-1.9-0.7-4,0.3-4.6,2.2c-0.7,1.9,0.3,4,2.2,4.6
			c1.9,0.7,4-0.3,4.6-2.2c0-0.1,0.1-0.2,0.1-0.2L341,173.2z"/>
		<path class="st4" d="M324.2,177.6c-0.8-0.3-1.2-1.2-0.9-2c0.3-0.8,1.2-1.2,2-0.9s1.2,1.2,0.9,2C325.9,177.5,325,177.9,324.2,177.6
			z"/>
	</g>
	<g>
		<ellipse class="st5" cx="27.2" cy="131.6" rx="26.3" ry="26.3"/>
		<circle class="st6" cx="27.2" cy="131.6" r="22.1"/>
		<g>
			<path class="st7" d="M32.7,134.6c-0.5-0.7-1.1-1.1-1.8-1.3c-0.6-0.1-1.5-0.1-2.7,0.2c-1.1,0.3-2.2,0.5-3.2,0.7s-2,0.2-2.9,0.2
				c-0.9-0.1-1.7-0.3-2.5-0.7s-1.5-1.1-2.2-2c-1.1-1.5-1.6-3.1-1.3-4.9c0.3-1.7,1.2-3.3,2.8-4.8l-1.3-1.8c-0.4-0.6-0.3-1.4,0.3-1.9
				l0,0c0.6-0.4,1.4-0.3,1.9,0.3l1.4,1.8c1.8-1,3.6-1.3,5.3-0.9c0.5,0.1,1,0.3,1.5,0.5c1.8,0.9,2,3.4,0.4,4.6l0,0
				c-1,0.7-2.2,0.7-3.2,0c-0.2-0.2-0.5-0.3-0.8-0.4c-0.7-0.2-1.4-0.1-2.1,0.4c-0.6,0.4-0.9,1-0.9,1.6s0.2,1.2,0.7,1.9
				c0.5,0.7,1.1,1,1.7,1.1c0.7,0.1,1.5,0,2.6-0.2c1.1-0.3,2.1-0.5,3.2-0.7c1-0.2,2-0.2,2.9-0.1c0.9,0.1,1.7,0.3,2.5,0.7
				s1.5,1.1,2.2,2c1.1,1.5,1.6,3.1,1.4,4.8c-0.2,1.7-1.1,3.2-2.7,4.6l1.2,1.6c0.4,0.6,0.3,1.4-0.3,1.9l0,0c-0.6,0.4-1.4,0.3-1.9-0.3
				l-1.2-1.6c-2.1,1.3-4.1,1.7-6,1.4c-0.7-0.1-1.5-0.4-2.1-0.8c-1.7-0.9-1.8-3.2-0.3-4.4l0.2-0.2c0.9-0.7,2.2-0.7,3.1,0
				c0.3,0.2,0.7,0.4,1.1,0.5c0.8,0.2,1.7,0,2.5-0.6c0.6-0.5,0.9-1,1-1.6C33.4,135.9,33.2,135.3,32.7,134.6z"/>
		</g>
	</g>
	<g>
		<path class="st3" d="M284.7,197.5c2.8,0,5.4-1.2,7.3-3.3c1.8-2.1,5.2-11,6.5-12.5c1.9-2.2,2.7-5.1,2.3-8l-0.1-0.6
			c0-0.3-0.1-0.6-0.2-0.9c1.7-0.6,3.2-1.6,4.4-3c2-2.3,2.9-5.3,2.4-8.4l-0.1-0.6c-0.4-2.8-1.7-5.2-3.9-7.2c-1.7-1.5-3.8-2.5-5.9-2.9
			c0.2-0.2,0.4-0.5,0.7-0.7c2-2.3,2.8-5.3,2.4-8.4l-0.1-0.6c-0.1-0.6-0.2-1.3-0.4-1.9c1-0.9,1.9-2,2.6-3.3c0.4-0.7,0.8-1.4,1.2-2.1
			c1.2-2,1.7-4.3,1.4-6.6c-0.1-0.7-0.3-1.4-0.5-2c0-0.1,0-0.1-0.1-0.2c-1-2.7-3-4.8-5.5-6c0.5,0.1,1.1,0.3,1.6,0.3
			c0.5,0.1,1.1,0.1,1.6,0.1c2.3,0,4.5-0.7,6.4-1.9c0,0,1.5-1,1.6-1c1.3-0.9,2.4-2,3.1-3.4c0.2-0.3,0.3-0.5,0.5-0.8s0.3-0.5,0.5-0.8
			s0.3-0.5,0.5-0.8s0.3-0.5,0.5-0.8s0.3-0.5,0.5-0.8s0.3-0.5,0.5-0.8s0.3-0.5,0.5-0.8s0.3-0.5,0.5-0.8s0.3-0.5,0.5-0.8
			s0.3-0.5,0.5-0.8s0.3-0.5,0.5-0.8s0.3-0.5,0.5-0.8s0.3-0.5,0.5-0.8s0.3-0.5,0.5-0.8s0.3-0.5,0.5-0.8s0.3-0.5,0.5-0.8
			s0.3-0.5,0.5-0.8s0.3-0.5,0.5-0.8s0.3-0.5,0.5-0.8s0.3-0.5,0.5-0.8s0.3-0.5,0.5-0.8s0.3-0.5,0.5-0.8s0.3-0.5,0.5-0.8
			s0.3-0.5,0.5-0.8s0.3-0.5,0.5-0.8s0.3-0.5,0.5-0.8s0.3-0.5,0.5-0.8s0.3-0.5,0.5-0.8s0.3-0.5,0.5-0.8s0.3-0.5,0.5-0.8
			c1.3-1.8,2-4.1,2-6.5c0-3.3-1.5-6.3-4.1-8.3c-0.1,0-0.1-0.1-0.2-0.1c0.1-0.3,0.3-0.5,0.4-0.8c1.1-1.8,1.6-3.9,1.6-6.2L327.8,31
			c0-2-0.5-3.8-1.4-5.5c0.1-0.2,0.2-0.4,0.2-0.6c0.2-0.3,0.3-0.7,0.5-1s0.3-0.7,0.5-1c1-1.8,1.5-3.8,1.5-6v-0.5c0-3.2-1.2-6-3.3-8.4
			c-2.3-2.4-5.3-3.8-8.7-3.8h-30c-2.2,0-4.2,0.6-6,1.7c-1.6-0.8-3.3-1.2-5.1-1.2h-23.8c-3.2,0-6.2,1.3-8.5,3.6
			c-0.2,0.2-0.4,0.4-0.6,0.7c0,0,0,0,0-0.1c-2.3-2.5-5.3-3.8-8.6-3.8h-12.7c-0.3-0.5-0.7-1-1.1-1.4c-2.2-2.4-5.2-3.8-8.5-3.8h-2.4
			c-3.2,0-6.1,1.2-8.5,3.6c-0.8,0.8-1.4,1.6-1.9,2.5c-0.9-0.2-1.9-0.4-2.9-0.4h-1.7c-0.4-0.6-0.8-1.2-1.3-1.8
			c-2.2-2.5-5.3-3.9-8.6-3.9h-2.1c-3.2,0-6.1,1.2-8.5,3.5c-0.7,0.7-1.3,1.4-1.8,2.2h-2.3c-3.2,0-6.1,1.2-8.5,3.5
			c-2.3,2.2-3.6,5-3.8,8.1v0.6c-0.1,0.7,0,1.5,0,2.2c0,0.3,0,0.7,0.1,1c0,0.3,0,0.7,0.1,1c0,0.3,0,0.7,0.1,1c0,0.3,0,0.7,0.1,1
			c0,0.3,0,0.7,0.1,1c0,0.3,0,0.7,0.1,1c0,0.3,0,0.7,0.1,1v0.1c-1.6,2-2.5,4.3-2.7,6.9v0.4c0,0.3,0,0.6,0,0.9
			c-1.8-1.3-4-2.1-6.3-2.1h-10.7c0-0.3-0.1-0.7-0.1-1c0-0.3-0.1-0.7-0.1-1s-0.1-0.7-0.1-1s-0.1-0.7-0.1-1s-0.1-0.7-0.1-1
			s-0.1-0.7-0.1-1s-0.1-0.7-0.1-1c-0.2-2.3-1.1-4.5-2.6-6.2c-2-2.3-4.8-3.6-7.9-3.6h-2.8c-2.9,0-5.6,1.1-7.8,3.2
			c-1.9,1.9-3.1,4.3-3.5,6.9c0,0.1,0,0.1,0,0.2c-0.3,2.5-0.5,4.7-0.7,6.6h-12.3c-2.2,0-4.3,0.7-6.2,1.9c0,0,0,0,0-0.1
			c-0.1-0.3-0.2-0.7-0.3-1c-0.1-0.3-0.2-0.7-0.3-1c-0.1-0.3-0.2-0.7-0.3-1c-0.1-0.3-0.2-0.7-0.3-1c-0.1-0.3-0.2-0.7-0.3-1
			c-0.1-0.3-0.2-0.7-0.3-1c-0.4-1.7-1.1-3.3-2.3-4.6c-2-2.4-4.9-3.7-8-3.7H44.4c-2.8,0-5.4,1-7.6,3c-2.1,1.9-3.4,4.3-3.7,7.1
			l-0.2,1.6c-0.3,2.1,0,4.1,0.8,5.9c-1.8,0.4-3.5,1.3-5,2.7c-2.1,1.9-3.4,4.3-3.8,7.1l-0.2,1.7c-0.3,2.5,0.2,4.9,1.4,6.9
			c0.1,0.3,0.3,0.6,0.5,0.9c0.1,0.3,0.3,0.6,0.5,0.9c0.1,0.3,0.3,0.6,0.5,0.9c0.1,0.3,0.3,0.6,0.5,0.9c0.1,0.3,0.3,0.6,0.5,0.9
			c0.1,0.3,0.3,0.6,0.5,0.9c0.1,0.3,0.3,0.6,0.5,0.9c0.1,0.3,0.3,0.6,0.5,0.9c0.1,0.3,0.3,0.6,0.5,0.9c0.1,0.3,0.3,0.6,0.5,0.9
			c0.1,0.3,0.3,0.6,0.5,0.9l0,0c-0.1,0.1-0.3,0.2-0.4,0.3c-1.1,0.9-2.4,1.6-3.9,2.3c-2.7,1.2-4.7,3.5-5.6,6.3
			c-0.2,0.6-0.4,1.3-0.4,1.9c-0.3,2.4,0.2,4.7,1.5,6.7c0.2,0.2,0.3,0.5,0.4,0.7V85c0.2,0.2,0.3,0.5,0.4,0.7v0.1
			c0.2,0.2,0.3,0.5,0.4,0.7v0.1c0.2,0.2,0.3,0.5,0.4,0.7v0.1c0.2,0.2,0.3,0.5,0.4,0.7v0.1c0.2,0.2,0.3,0.5,0.4,0.7V89
			c0.2,0.2,0.3,0.5,0.4,0.7v0.1c0.2,0.2,0.3,0.5,0.4,0.7v0.1c0.2,0.2,0.3,0.5,0.4,0.7v0.1c0.2,0.2,0.3,0.5,0.4,0.7v0.1
			c0.2,0.2,0.3,0.5,0.4,0.7V93c0.2,0.2,0.3,0.5,0.4,0.7v0.1c0.2,0.2,0.3,0.5,0.4,0.7v0.1c0.2,0.2,0.3,0.5,0.4,0.7v0.1
			c0.2,0.2,0.3,0.5,0.4,0.7v0.1c0.2,0.2,0.3,0.5,0.4,0.7c0,0,0,0.1,0.1,0.1c0.2,0.2,0.3,0.5,0.4,0.7v0.1c0.2,0.2,0.3,0.5,0.4,0.7
			v0.1c0.2,0.2,0.3,0.5,0.4,0.7v0.1c0.2,0.2,0.3,0.5,0.4,0.7c0,0,0,0.1,0.1,0.1c0.2,0.2,0.3,0.5,0.4,0.7v0.1
			c0.2,0.2,0.3,0.5,0.4,0.7v0.1c0.2,0.2,0.3,0.5,0.4,0.7v0.1c0.2,0.2,0.3,0.5,0.4,0.7v0.1c0.2,0.2,0.3,0.5,0.4,0.7v0.1
			c0.2,0.2,0.3,0.5,0.4,0.7v0.1c0.2,0.2,0.3,0.5,0.4,0.7v0.1c0.2,0.2,0.3,0.5,0.4,0.7v0.1c0.2,0.2,0.3,0.5,0.4,0.7v0.1
			c0.2,0.2,0.3,0.5,0.4,0.7v0.1c0.1,0.2,0.2,0.4,0.4,0.6c0,0.1,0.1,0.1,0.1,0.2c0.3,0.4,0.5,0.8,0.8,1.3c1.2,2.1,3,3.7,5.2,4.5
			c0.9,0.4,1.8,0.6,2.7,0.7c0,0,0,0,0,0.1v0.1c0.6,2.4,1.9,4.6,3.8,6.3c-0.5,1.3-0.8,2.7-0.8,4.1c0,2,0.6,4,1.7,5.6
			c-1.9,0.6-3.6,1.7-5,3.3c-1.7,2-2.6,4.5-2.6,7.1c0,0.5,0.1,1,0.2,1.5L44,146c0.3,2.8,1.5,5.3,3.6,7.2c-2.2,1.9-3.4,4.5-3.4,7.5
			s1.5,5.8,4,7.7c0.8,0.6,1.6,1.1,2.3,1.8c0.2,0.2,0.4,0.3,0.7,0.5c-0.3,0.9-0.4,1.9-0.4,3c0,2.9,1.4,5.5,3.8,7.3
			c0.7,0.5,4.1,10.8,6.4,12.5c0.7,0.5,1.4,1,2.1,1.6c1.8,1.4,4,2.3,6.2,2.5c0.2,0,0.3,0,0.5,0h0.3L284.7,197.5z"/>
		<g>
			<g>
				<path class="st4" d="M72.3,75.9c1.5,0,2.9,0,4.4,0c0.8,0,1.5-0.4,1.9-1.3s0.9-2.7,1.3-5.6c0.1-0.8,0.6-1.5,1.3-1.8
					c0.4-0.2,0.8-0.3,1.2-0.3c0.3,0,0.7,0.1,1,0.3c0.6,0.3,1.1,0.5,1.8,0.8c1,0.4,1.7,1,2.2,2c0.4,0.7,0.6,1.5,0.5,2.3
					c0,0.2,0,0.4-0.1,0.6c-1.1,4.5-2.4,7.6-4,9.3c-1.6,1.7-4,2.6-7.2,2.6c-2.3,0-4.6,0-7,0c-4,0-6.6-0.8-7.8-2.5s-1.5-4.7-1-9.2
					c0.7-5.9,1.4-11.8,2.1-17.7c0-0.3-0.1-0.4-0.4-0.4c-2.4,0-4.9,0-7.3,0c-0.3,0-0.5,0.1-0.6,0.4c-0.5,2.7-1.1,5.1-1.7,7.1
					c-0.6,2-1.4,4.1-2.5,6.3c-1,2.2-2.2,4.2-3.6,5.9c-1.3,1.7-3,3.4-5.1,5s-4.4,3.1-7.1,4.4c-0.5,0.3-1.1,0.4-1.6,0.4
					c-0.4,0-0.8-0.1-1.2-0.3c-0.9-0.3-1.6-1-2.1-1.8c-0.3-0.6-0.7-1.2-1.1-1.8c-0.3-0.5-0.5-1.1-0.4-1.7c0-0.2,0.1-0.4,0.1-0.6
					c0.3-0.9,0.9-1.5,1.7-1.9c2-0.9,3.8-2,5.4-3.2c1.6-1.2,2.8-2.5,3.8-3.7s1.8-2.7,2.6-4.3c0.7-1.7,1.3-3.2,1.7-4.6
					c0.4-1.4,0.8-3.1,1.2-5.2c0-0.3-0.1-0.4-0.4-0.4c-3.1,0-6.2,0-9.3,0c-1,0-1.8-0.4-2.4-1.1c-0.6-0.7-0.9-1.6-0.7-2.6
					c0.1-0.6,0.2-1.1,0.2-1.7c0.1-1,0.6-1.9,1.4-2.6c0.8-0.7,1.7-1.1,2.7-1.1c16.6,0,33.2,0,49.8,0c1,0,1.8,0.4,2.4,1.1
					c0.6,0.7,0.9,1.6,0.8,2.6c-0.1,0.6-0.1,1.1-0.2,1.7c-0.1,1-0.6,1.9-1.4,2.6C87,54.6,86.1,55,85.1,55c-4,0-8,0-12.1,0
					c-0.3,0-0.5,0.1-0.5,0.4c-0.7,5.9-1.4,11.8-2,17.6c-0.1,1.3-0.1,2.1,0.1,2.4C70.7,75.8,71.3,75.9,72.3,75.9z M82,28.4
					c1,0,1.8,0.4,2.4,1.1s0.9,1.6,0.8,2.6c-0.1,0.5-0.1,1.1-0.2,1.6c-0.1,1.1-0.6,1.9-1.4,2.7c-0.8,0.7-1.7,1.1-2.7,1.1
					c-12.6,0-25.2,0-37.8,0c-1,0-1.8-0.4-2.4-1.1c-0.6-0.7-0.9-1.6-0.7-2.7c0.1-0.5,0.1-1.1,0.2-1.6c0.1-1,0.6-1.9,1.4-2.6
					c0.8-0.7,1.7-1.1,2.7-1.1C57,28.4,69.5,28.4,82,28.4z"/>
				<path class="st4" d="M152.4,46.9c-0.1,1-0.5,1.9-1.3,2.6c-0.8,0.7-1.7,1.1-2.6,1.1c-5.8,0-11.6,0-17.3,0c-0.1,0-0.2,0-0.3,0.1
					s-0.1,0.2-0.1,0.3c3.1,11.3,9,19.3,17.7,23.9c0.8,0.4,1.2,1,1.3,1.9c0,0.2,0,0.4,0,0.6c0,0.6-0.3,1.2-0.8,1.7
					c-0.9,1-1.8,2-2.6,3.1c-0.7,0.9-1.5,1.5-2.5,1.8c-0.4,0.1-0.7,0.2-1.1,0.2c-0.6,0-1.2-0.2-1.8-0.5c-3.9-2.3-7.1-5.1-9.8-8.4
					c-3.3-4.1-5.9-9-7.9-14.8c0-0.1-0.1-0.1-0.2-0.1s-0.1,0-0.2,0.1c-4.5,9.9-11.8,17.7-21.8,23.1c-0.6,0.3-1.2,0.5-1.9,0.5
					c-0.3,0-0.7,0-1.1-0.1c-0.9-0.3-1.7-0.9-2.3-1.7c-0.6-0.9-1.2-1.7-1.9-2.5c-0.5-0.5-0.7-1.2-0.6-1.8c0-0.1,0-0.3,0.1-0.4
					c0.2-0.8,0.7-1.5,1.4-1.9c5.2-2.7,9.5-5.9,12.7-9.6c3.8-4.4,6.7-9.4,8.6-15.1c0.1-0.1,0-0.2,0-0.3c-0.1-0.1-0.2-0.1-0.2-0.1
					c-5.6,0-11.2,0-16.9,0c-1,0-1.8-0.4-2.4-1.1c-0.6-0.7-0.9-1.6-0.8-2.6c0.1-0.8,0.2-1.5,0.2-2.3c0.1-1,0.6-1.9,1.4-2.6
					c0.8-0.7,1.7-1.1,2.7-1.1c6.1,0,12.2,0,18.2,0c0.3,0,0.5-0.1,0.6-0.4c0.3-2.3,0.8-6.5,1.5-12.7c0.1-1,0.6-1.9,1.3-2.6
					c0.8-0.7,1.6-1.1,2.7-1.1c0.9,0,1.9,0,2.8,0c1,0,1.8,0.4,2.4,1.1s0.9,1.6,0.8,2.6c-0.4,4.2-0.9,8.4-1.6,12.7
					c-0.1,0.3,0,0.4,0.3,0.4c6.7,0,13.4,0,20.1,0c1,0,1.8,0.4,2.5,1.1c0.7,0.7,1,1.6,0.9,2.6C152.5,45.4,152.5,46.2,152.4,46.9z"/>
				<path class="st7" d="M197.2,23.2c0.2,0.1,0.3,0.2,0.1,0.4c-0.4,0.7-0.8,1.7-1.4,3c-0.5,1.2-1,2.1-1.3,2.8
					c-0.1,0.2-0.1,0.3,0,0.4s0.2,0.2,0.3,0.2c0.6,0,1.2,0,1.7,0c1.3,0,2.3,0.5,3.2,1.4c0.9,1,1.3,2.1,1.2,3.4c0,0.1,0,0.3,0,0.4
					c-0.1,1.3-0.6,2.5-1.6,3.4c-1,1-2.1,1.4-3.4,1.4c-9.6,0-19.3,0-28.9,0c-1.3,0-2.3-0.5-3.2-1.4c-0.9-1-1.2-2.1-1.1-3.4
					c0-0.1,0-0.3,0-0.4c0.1-1.3,0.6-2.5,1.6-3.4c1-1,2.1-1.4,3.4-1.4c0.5,0,1,0,1.4,0s0.6-0.2,0.5-0.6c-0.2-1.5-0.5-3.1-0.9-4.9
					c0-0.3,0-0.5,0.2-0.8c0.1-0.2,0.4-0.4,0.6-0.5c-0.1,0-0.3,0-0.4,0c-1.3,0-2.3-0.5-3.1-1.4s-1.2-2-1.1-3.3c0-0.2,0-0.4,0-0.6
					c0.1-1.3,0.6-2.5,1.6-3.4c1-1,2.1-1.4,3.4-1.4c2.3,0,4.6,0,6.9,0c0.4,0,0.6-0.2,0.7-0.7c0-0.1,0-0.1,0-0.2
					c0.1-1.3,0.6-2.5,1.6-3.4c1-1,2.1-1.4,3.4-1.4c0.7,0,1.4,0,2.1,0c1.3,0,2.3,0.5,3.2,1.4c0.9,1,1.2,2.1,1.2,3.4
					c0,0.1,0,0.1,0,0.2c0,0.4,0.1,0.7,0.5,0.7c2.3,0,4.6,0,6.9,0c1.3,0,2.3,0.5,3.2,1.4c0.9,1,1.3,2.1,1.2,3.4c0,0.7-0.1,1.3-0.1,2
					c0,0.9-0.4,1.7-1,2.3c-0.6,0.6-1.4,0.9-2.3,0.9C197.4,23.2,197.3,23.2,197.2,23.2z M193.5,42.8c1.3,0,2.4,0.5,3.2,1.4
					c0.9,1,1.3,2.1,1.2,3.4c-0.5,9.5-1,18.9-1.5,28.4c-0.1,2.5-0.5,4.5-1.2,6c-0.6,1.5-1.7,2.6-3.3,3.5c-1.5,0.8-3.8,1.4-6.7,1.7
					c-0.2,0-0.3,0-0.5,0c-1.2,0-2.2-0.4-3.1-1.2c-1.1-0.9-1.8-2-2.2-3.4c-0.1-0.4-0.3-0.9-0.4-1.4c-0.2-0.7-0.2-1.4,0-2
					s0.6-1.2,1.2-1.6c0.6-0.4,1.2-0.7,1.9-0.7c0.4-0.1,0.7-0.1,1-0.1c0.9,0,1.3-0.4,1.4-1.2c0.1-1.1,0.1-2.1,0.2-3.2
					c0-0.4-0.2-0.7-0.5-0.7c-2.9,0-5.7,0-8.6,0c-0.4,0-0.7,0.2-0.7,0.7c-0.2,3.3-0.4,6.7-0.6,10c-0.1,1.3-0.6,2.5-1.7,3.4
					c-1,1-2.2,1.4-3.5,1.4c-0.5,0-1.1,0-1.6,0c-1.3,0-2.4-0.5-3.3-1.4c-0.9-1-1.3-2.1-1.2-3.4c0.8-11.6,1.6-23.2,2.5-34.9
					c0.1-1.3,0.6-2.5,1.6-3.4c1-1,2.1-1.4,3.4-1.4C178.2,42.8,185.9,42.8,193.5,42.8z M186,51.8c0-0.4-0.2-0.6-0.5-0.6
					c-2.8,0-5.7,0-8.5,0c-0.4,0-0.7,0.2-0.7,0.6c0,0.5-0.1,1.1-0.1,1.6c0,0.4,0.2,0.6,0.6,0.6c2.8,0,5.7,0,8.5,0
					c0.4,0,0.6-0.2,0.6-0.6C186,52.9,186,52.4,186,51.8z M175.5,63.7c0,0.4,0.2,0.7,0.6,0.7c2.9,0,5.7,0,8.6,0
					c0.4,0,0.6-0.2,0.6-0.7c0-0.5,0.1-1,0.1-1.5c0-0.4-0.2-0.6-0.5-0.6c-2.9,0-5.7,0-8.6,0c-0.4,0-0.7,0.2-0.7,0.6
					C175.6,62.7,175.6,63.2,175.5,63.7z M186.6,23.8c0.1-0.1,0-0.2-0.1-0.4c-0.1-0.1-0.2-0.2-0.3-0.2c-2.4,0-4.7,0-7.1,0
					c-0.1,0-0.2,0.1-0.3,0.2s-0.1,0.3-0.1,0.4c0.6,2.6,1,4.6,1.1,5.8c0,0.2,0,0.4-0.3,0.4c1.9,0,3.8,0,5.7,0
					c-0.4-0.1-0.6-0.4-0.4-0.8C185.7,26.7,186.3,24.9,186.6,23.8z M229.9,67.2c1.3,0,2.4,0.5,3.3,1.4c0.9,1,1.3,2.1,1.3,3.4
					c0,0.3,0,0.7,0,1c0,0.4,0.1,0.6,0.5,0.7c1.2,0.4,2.2,1.2,2.8,2.2c0.4,0.7,0.6,1.4,0.6,2.1c0,0.4-0.1,0.8-0.2,1.2
					c-0.7,2.3-1.7,3.9-2.9,5c-1.9,1.7-4.9,2.6-9.1,2.6c-3.8,0-7.6,0-11.4,0c-5.2,0-8.8-0.9-10.6-2.8s-2.6-5.4-2.3-10.6
					c0.5-10.3,1.1-20.7,1.6-31c0.1-1.3,0.6-2.5,1.6-3.4c1-1,2.1-1.4,3.4-1.4c5,0,9.9,0,14.9,0c0.4,0,0.6-0.2,0.6-0.6
					c0-0.6,0.1-1.2,0.1-1.8c0-0.4-0.2-0.7-0.5-0.7c-5,0-9.9,0-14.9,0c-1.3,0-2.4-0.5-3.2-1.4c-0.9-1-1.3-2.1-1.2-3.4
					c0.3-5.9,0.6-11.7,0.9-17.6c0.1-1.3,0.6-2.5,1.6-3.4c1-1,2.1-1.4,3.3-1.4c0.8,0,1.6,0,2.4,0c1.2,0,2.2,0.5,3,1.4
					c0.8,0.9,1.2,2,1.1,3.3c0,0.4,0.2,0.6,0.5,0.6c5.9,0,11.7,0,17.6,0c1.3,0,2.3,0.5,3.2,1.4c0.9,1,1.3,2.1,1.3,3.4v0.1
					c0,1.3-0.5,2.5-1.5,3.4c-1,1-2.1,1.4-3.3,1.4c-5.9,0-11.8,0-17.6,0c-0.4,0-0.6,0.2-0.6,0.6c0,0.7-0.1,1.4-0.1,2.1
					c0,0.4,0.2,0.7,0.5,0.7c4.9,0,9.7,0,14.6,0c1.3,0,2.3,0.5,3.2,1.4c0.9,1,1.3,2.1,1.3,3.4c-0.1,3.7-0.3,7.5-0.4,11.2
					c0,1.3-0.6,2.5-1.5,3.4c-1,1-2.1,1.4-3.4,1.4c-4.9,0-9.8,0-14.7,0c-0.4,0-0.6,0.2-0.6,0.7c0,0.3,0,0.5,0,0.8
					c0,0.4,0.2,0.7,0.5,0.7c5.5,0,10.9,0,16.4,0c0.9,0,1.7,0.3,2.3,1s0.9,1.5,0.9,2.4c0,1-0.4,1.8-1.1,2.4c-0.7,0.7-1.5,1-2.4,1
					c-5.5,0-10.9,0-16.4,0c-0.4,0-0.6,0.2-0.6,0.6c0,0.4,0,0.9-0.1,1.3c0,0.4,0.2,0.6,0.5,0.6c5.3,0,10.6,0,15.9,0
					c1,0,1.8,0.3,2.4,1c0.6,0.7,0.9,1.5,0.9,2.4c0,1-0.4,1.8-1.1,2.4c-0.7,0.7-1.5,1-2.5,1c-5.3,0-10.7,0-16,0
					c-0.4,0-0.6,0.2-0.6,0.7c0,0.3,0,0.7,0,1c0,0.4,0.2,0.6,0.5,0.6C219.6,67.2,224.8,67.2,229.9,67.2z M217,77.3c2.8,0,5.5,0,8.3,0
					c1,0,1.7-0.2,2.2-0.7c0.4-0.4,0.7-1,1.1-2c0-0.2,0-0.3-0.1-0.4s-0.2-0.2-0.3-0.2c-4.7,0-9.3,0-14,0c-0.4,0-0.6,0.2-0.6,0.6
					c0.1,1.1,0.3,1.8,0.6,2.1C214.6,77.1,215.6,77.3,217,77.3z"/>
				<path class="st7" d="M275.7,67.9c0.3-0.1,0.6-0.1,1-0.1c0.9,0,1.7,0.3,2.5,0.8c1,0.8,1.6,1.8,1.7,3.1c0,0.2,0,0.4,0.1,0.7
					c0,0.2,0,0.4,0,0.7c0,1.2-0.4,2.2-1,3.1c-0.8,1.2-1.9,1.9-3.2,2.2c-7.4,1.8-15.8,3.8-25.2,6c-0.4,0.1-0.8,0.2-1.1,0.2
					c-0.9,0-1.7-0.2-2.5-0.7c-1.1-0.7-1.8-1.7-2.1-3.1c-0.1-0.6-0.2-1.3-0.4-1.9c-0.1-0.4-0.1-0.7-0.1-1.1c0-0.9,0.3-1.7,0.8-2.5
					c0.7-1.1,1.8-1.8,3.1-2c4.4-0.8,9.3-1.8,14.7-3c-0.3-0.1-0.4-0.3-0.3-0.7c0.9-3.6,1.6-7.6,2.2-12c0.2-1.3,0.8-2.4,1.8-3.1
					c0.8-0.6,1.6-0.9,2.5-0.9c0.3,0,0.6,0.1,0.9,0.2c0.7,0.1,1.5,0.3,2.2,0.4c1.3,0.3,2.2,1,2.9,2.1c0.4,0.7,0.6,1.5,0.6,2.3
					c0,0.4-0.1,0.8-0.2,1.2c-1.3,4.4-2.1,7-2.4,7.7c-0.1,0.2,0,0.3,0.1,0.4s0.2,0.1,0.3,0.1C274.8,68.1,275.2,68,275.7,67.9z
					 M276,12.1c1.3,0,2.3,0.5,3.2,1.4c0.9,1,1.4,2.1,1.3,3.4c0,0.5,0,1,0,1.6c0,1.3-0.5,2.5-1.4,3.4c-0.9,1-2,1.4-3.3,1.4
					c-8,0-15.9,0-23.9,0c-1.3,0-2.3-0.5-3.2-1.4c-0.9-1-1.3-2.1-1.3-3.4c0-0.5,0-1,0-1.6c0-1.3,0.5-2.5,1.5-3.4c0.9-1,2-1.4,3.3-1.4
					C260.2,12.1,268.1,12.1,276,12.1z M274,28.1c1.3,0,2.4,0.5,3.3,1.4c0.9,1,1.3,2.1,1.3,3.4c-0.1,4.9-0.1,9.7-0.2,14.6
					c0,1.3-0.5,2.5-1.4,3.4c-0.9,1-2.1,1.4-3.4,1.4c-6.7,0-13.5,0-20.2,0c-1.3,0-2.5-0.5-3.3-1.4c-0.9-1-1.3-2.1-1.3-3.4
					c0.1-4.9,0.3-9.7,0.4-14.6c0-1.3,0.5-2.5,1.4-3.4c0.9-1,2.1-1.4,3.4-1.4C260.7,28.1,267.4,28.1,274,28.1z M260.8,63.3
					c0,0.3,0.1,0.6,0.1,0.9c0,1-0.3,2-1,2.9c-0.8,1.2-1.9,1.9-3.3,2.2c-0.3,0.1-0.5,0.2-0.8,0.2c-0.4,0.1-0.7,0.2-1.1,0.2
					c-0.8,0-1.6-0.2-2.2-0.7c-1-0.8-1.6-1.8-1.7-3.1c-0.2-1.7-0.4-3.4-0.7-5.1c0-0.4-0.1-0.8,0-1.2c0-0.9,0.3-1.7,0.8-2.6
					c0.7-1.2,1.6-1.9,2.9-2.1c0.1,0,0.2-0.1,0.2-0.1c0.5-0.1,0.9-0.2,1.4-0.2c0.8,0,1.6,0.2,2.4,0.7c1.2,0.7,1.9,1.6,2.2,3
					C260.3,60,260.6,61.6,260.8,63.3z M267.4,43c0.4,0,0.6-0.2,0.6-0.6c0-1.4,0.1-2.8,0.1-4.2c0-0.4-0.2-0.6-0.5-0.6
					c-2.7,0-5.3,0-8,0c-0.4,0-0.6,0.2-0.6,0.6c0,1.4-0.1,2.8-0.1,4.2c0,0.4,0.2,0.6,0.5,0.6C262.1,43,264.7,43,267.4,43z
					 M320.7,66.6c0,1.4-0.5,2.5-1.4,3.5c-0.9,0.9-2.1,1.4-3.4,1.4c-7.8,0-15.6,0-23.4,0c-0.1,0-0.2,0.1-0.2,0.2s0,0.2,0.1,0.2
					c1.5,1,3,2,4.4,3c1.1,0.8,1.6,1.8,1.6,3.1c0,1.1-0.5,2-1.4,2.6c-3.3,2.4-6.8,4.6-10.6,6.4c-0.9,0.4-1.8,0.6-2.7,0.6
					c-0.5,0-1-0.1-1.4-0.2c-1.4-0.3-2.6-1-3.6-2.1c-0.3-0.3-0.7-0.7-1-1c-0.6-0.6-0.9-1.3-0.9-2.1c0-0.2,0-0.4,0-0.6
					c0.2-1.1,0.8-1.9,1.8-2.4c4.5-2.2,8.4-4.7,11.6-7.4c0.1-0.1,0.1-0.1,0.1-0.2c-0.1-0.1-0.1-0.2-0.2-0.2c-0.7,0-1.4,0-2.1,0
					c-1.4,0-2.5-0.5-3.4-1.4s-1.4-2.1-1.3-3.5c0.1-11.8,0.3-23.7,0.4-35.5c0-1.3,0.5-2.5,1.4-3.4c0.9-1,2-1.4,3.3-1.4
					c1.6,0,3.3,0,4.9,0c0.4,0,0.7-0.2,0.7-0.6c0.2-1.8,0.3-2.8,0.3-3.1c0.1-0.4-0.1-0.7-0.5-0.7c-2.4,0-4.7,0-7.1,0
					c-1.3,0-2.4-0.5-3.3-1.4s-1.4-2.1-1.3-3.5c0-0.2,0-0.3,0-0.5c0-1.3,0.5-2.5,1.4-3.4c0.9-1,2-1.4,3.3-1.4c10,0,20,0,30,0
					c1.3,0,2.4,0.5,3.3,1.4c0.9,1,1.4,2.1,1.4,3.4c0,0.2,0,0.3,0,0.5c0,1.4-0.4,2.5-1.3,3.5c-0.9,0.9-2,1.4-3.3,1.4c-3,0-6,0-9,0
					c-0.4,0-0.6,0.2-0.7,0.7c-0.3,0.8-0.6,1.9-1,3.1c-0.1,0.2,0,0.3,0,0.4c0.1,0.1,0.2,0.2,0.4,0.2c3,0,6,0,9,0
					c1.3,0,2.4,0.5,3.3,1.4c0.9,1,1.4,2.1,1.4,3.4C320.6,42.9,320.7,54.8,320.7,66.6z M308.6,38.9c0.4,0,0.6-0.2,0.6-0.6
					c0-0.9,0-1.8,0-2.6c0-0.4-0.2-0.6-0.6-0.6c-4.4,0-8.9,0-13.3,0c-0.4,0-0.6,0.2-0.6,0.6c0,0.9,0,1.8,0,2.6c0,0.4,0.2,0.6,0.6,0.6
					C299.7,38.9,304.1,38.9,308.6,38.9z M308.6,50.7c0.4,0,0.6-0.2,0.6-0.6c0-0.9,0-1.7,0-2.6c0-0.4-0.2-0.7-0.6-0.7
					c-4.5,0-8.9,0-13.4,0c-0.4,0-0.6,0.2-0.6,0.7c0,0.9,0,1.7,0,2.6c0,0.4,0.2,0.6,0.6,0.6C299.7,50.7,304.1,50.7,308.6,50.7z
					 M308.6,62.8c0.4,0,0.6-0.2,0.6-0.7c0-0.9,0-1.7,0-2.6c0-0.4-0.2-0.6-0.6-0.6c-4.5,0-9,0-13.5,0c-0.4,0-0.6,0.2-0.6,0.6
					c0,0.9,0,1.7,0,2.6c0,0.4,0.2,0.7,0.6,0.7C299.6,62.8,304.1,62.8,308.6,62.8z M306.2,80.6c-0.9-0.7-1.3-1.5-1.3-2.6
					c0-1.2,0.5-2.1,1.5-2.8c0.3-0.2,0.6-0.4,1-0.6c1.2-0.8,2.5-1.2,3.9-1.2c0.1,0,0.1,0,0.2,0c1.5,0.1,2.8,0.5,4,1.3
					c2.4,1.7,4.5,3.3,6.3,4.7c0.9,0.7,1.3,1.5,1.3,2.6c0,1.4-0.5,2.4-1.6,3.1c-0.6,0.4-1.1,0.7-1.7,1.1c-1,0.7-2,1-3.2,1
					c-0.2,0-0.4,0-0.7-0.1c-1.4-0.1-2.6-0.6-3.7-1.6C310.4,84.1,308.5,82.4,306.2,80.6z"/>
			</g>
			<g>
				<path class="st4" d="M108.4,142.7c0.5,0.6,0.8,1.3,0.8,2.1c0,0.2,0,0.4,0,0.6c-0.1,1-0.6,1.8-1.5,2.3c-0.7,0.5-1.4,1-2.1,1.5
					c-0.6,0.4-1.3,0.6-2,0.6c-0.2,0-0.5,0-0.8-0.1c-1-0.2-1.8-0.7-2.5-1.5c-0.2-0.3-0.4-0.5-0.6-0.7s-0.5-0.3-0.8-0.3
					c-2.9,0.2-7.5,0.4-13.7,0.6c-0.3,0-0.4,0.2-0.4,0.5c0.2,5.1,0.3,10.2,0.5,15.3c0,1.1-0.3,1.9-1,2.7c-0.7,0.7-1.6,1.1-2.6,1.1
					c-0.9,0-1.8,0-2.6,0c-1,0-1.9-0.4-2.6-1.1c-0.8-0.7-1.1-1.6-1.2-2.7c-0.1-5-0.3-10-0.4-15c0-0.3-0.2-0.5-0.4-0.5
					c-6.1,0.3-12.5,0.5-19.2,0.7h-0.1c-1,0-1.8-0.3-2.6-1s-1.2-1.5-1.3-2.6c-0.1-0.7-0.1-1.3-0.2-2c0-0.1-0.1-0.3-0.1-0.4
					c0-0.8,0.3-1.6,0.8-2.3c0.7-0.8,1.5-1.1,2.5-1.1c3.5,0,6.5-0.1,8.9-0.2c0.3,0,0.6-0.1,0.9-0.3c0.8-0.5,1.7-1.2,2.9-2.2
					c0.2-0.2,0.3-0.4,0-0.6c-2.5-2.2-5.4-4.5-8.8-6.8c-0.9-0.6-1.3-1.4-1.3-2.5c0-0.8,0.3-1.5,0.9-2.1c0.6-0.6,1.2-1.2,1.8-1.8
					c0.5-0.5,1.2-0.8,2-0.9c0.1,0,0.2,0,0.4,0c0.6,0,1.2,0.1,1.7,0.4c0.2,0.1,0.3,0.1,0.5-0.1c1.2-1.2,2.3-2.5,3.4-3.9
					c0-0.1,0-0.2,0-0.3c0-0.1-0.1-0.1-0.2-0.1c-3.4,0.2-6.5,0.3-9.3,0.3c0,0,0,0-0.1,0c-1,0-1.9-0.3-2.7-1s-1.4-1.6-1.6-2.7
					c-0.1-0.4-0.2-0.8-0.3-1.2c-0.1-0.3-0.1-0.6-0.1-0.9c0-0.5,0.1-1.1,0.5-1.6c0.5-0.8,1.2-1.1,2.1-1.1c15.5-0.4,28.3-1.5,38.2-3.2
					c0.4-0.1,0.7-0.1,1.1-0.1c0.7,0,1.4,0.1,2.1,0.4c1.1,0.4,2,1,2.7,1.9c0.6,0.7,1.2,1.5,1.9,2.2c0.3,0.4,0.5,0.9,0.5,1.4
					c0,0.3,0,0.5-0.1,0.8c-0.3,0.8-0.8,1.2-1.5,1.4c-5.8,1.1-12.3,2-19.6,2.6c-0.3,0-0.5,0.2-0.7,0.4c-2.8,3.3-5.8,6.6-9,9.6
					c-0.2,0.2-0.2,0.4,0.1,0.6c0.9,0.6,1.8,1.4,2.8,2.2c0.3,0.2,0.5,0.2,0.7,0c3.8-3.4,7.1-6.7,10-10c0.7-0.8,1.5-1.3,2.6-1.5
					c0.3,0,0.6-0.1,0.9-0.1c0.7,0,1.4,0.2,2.1,0.6c0.9,0.5,1.7,0.9,2.6,1.4c0.8,0.4,1.3,1.1,1.5,2c0,0.1,0,0.3,0,0.4
					c0,0.7-0.2,1.4-0.7,1.9c-4.7,4.7-9.9,9.3-15.4,13.7c0,0,0,0.1,0,0.2c0,0.1,0.1,0.1,0.2,0.1c4.2-0.1,8.3-0.2,12.5-0.3
					c0.1,0,0.1,0,0.2-0.1c0-0.1,0-0.2-0.1-0.3s-0.3-0.2-0.4-0.4c-0.6-0.6-0.9-1.3-0.9-2.1c0-0.1,0-0.2,0-0.3
					c0.1-0.9,0.5-1.6,1.2-2.2c0.5-0.3,0.9-0.6,1.4-1c0.8-0.5,1.7-0.8,2.6-0.8c0.1,0,0.3,0,0.4,0c1.1,0.1,2,0.5,2.8,1.3
					C102.5,136.6,105.8,139.9,108.4,142.7z M60.6,152.5c0.8-0.8,1.7-1.3,2.8-1.6c0.5-0.1,0.9-0.2,1.3-0.2c0.6,0,1.2,0.1,1.9,0.3
					c0.9,0.4,1.9,0.7,2.8,1.1c0.8,0.3,1.4,1,1.6,1.8c0.1,0.2,0.1,0.4,0.1,0.6c0,0.6-0.2,1.2-0.6,1.6c-2.8,3-5.9,5.8-9.5,8.5
					c-0.8,0.5-1.7,0.8-2.6,0.8c-0.1,0-0.2,0-0.3,0c-1.1-0.1-2.1-0.5-2.9-1.2c-0.9-0.7-1.7-1.4-2.6-2c-0.6-0.5-1-1.1-1-1.8
					c0-0.9,0.4-1.6,1.1-2C55.7,156.7,58.3,154.7,60.6,152.5z M90.1,156.9c-0.7-0.5-1.1-1.2-1.1-2.1c0-0.9,0.3-1.6,1-2.1
					c0.6-0.4,1.2-0.8,1.8-1.2c0.9-0.7,1.9-1,3-1h0.1c1.1,0,2.1,0.3,3,0.9c3.7,2.4,6.8,4.6,9.3,6.7c0.7,0.6,1.1,1.3,1.1,2.2
					c0,1.1-0.4,1.9-1.2,2.5c-0.8,0.6-1.6,1.2-2.4,1.8c-0.7,0.5-1.5,0.8-2.4,0.8c-0.2,0-0.3,0-0.5,0c-1-0.1-1.9-0.5-2.7-1.3
					C96.7,161.8,93.7,159.4,90.1,156.9z"/>
				<path class="st4" d="M117.5,117.1c-1,0-1.8-0.4-2.6-1.1c-0.7-0.7-1.1-1.6-1.2-2.6c0-0.4,0-0.8-0.1-1.3c0-1,0.3-1.9,0.9-2.6
					c0.7-0.7,1.5-1.1,2.5-1.1c7.9,0,15.9,0,23.8,0c1,0,1.9,0.4,2.6,1.1c0.7,0.7,1.1,1.6,1.2,2.6c0,0.4,0.1,0.8,0.1,1.3
					c0.1,1-0.2,1.9-0.9,2.6c-0.6,0.7-1.5,1.1-2.5,1.1c-2.9,0-5.8,0-8.7,0c-0.3,0-0.5,0.1-0.6,0.4c-0.2,1.2-0.6,2.8-1.2,4.9
					c0,0.1,0,0.2,0,0.3c0.1,0.1,0.2,0.2,0.3,0.2c1.6,0,3.3,0,4.9,0c2.5,0,4.5,0.2,5.9,0.7c0.9,0.3,1.6,0.8,2.1,1.5
					c0.4,0.6,0.6,1.2,0.6,1.8c0,0.2,0,0.4,0,0.6c-1.8,17.8-7.5,30.4-17.2,37.9c-0.7,0.5-1.4,0.7-2.2,0.7c-0.2,0-0.4,0-0.7-0.1
					c-1-0.2-1.9-0.6-2.7-1.4c-0.6-0.6-1.2-1.2-1.8-1.7c-0.6-0.5-0.9-1.2-0.9-2c0-1,0.3-1.7,1-2.2c3.7-2.6,6.8-6,9.2-10
					c0.2-0.3,0.1-0.5-0.2-0.7c-1.6-1.3-3.8-2.9-6.8-4.9c-0.3-0.2-0.5-0.2-0.7,0.1c-0.1,0.2-0.2,0.4-0.4,0.6
					c-0.6,0.8-1.4,1.1-2.4,1.1h-0.1c-1,0-1.8-0.3-2.5-1c-0.4-0.3-0.8-0.7-1.2-1.1c-0.8-0.7-1.3-1.6-1.3-2.7c0-0.9,0.2-1.7,0.7-2.3
					c3.7-5.1,6.5-11.8,8.2-20.3c0-0.1,0-0.2-0.1-0.3c-0.1-0.1-0.2-0.1-0.3-0.1C120.7,117.1,119.1,117.1,117.5,117.1z M135.2,132
					c0-0.3-0.1-0.4-0.4-0.4c-2.1,0-4.3,0-6.4,0c-0.3,0-0.5,0.1-0.7,0.4c-0.3,0.8-0.8,2-1.4,3.4c-0.1,0.3,0,0.5,0.2,0.6
					c2.6,1.6,4.7,2.9,6.3,4c0.3,0.2,0.4,0.1,0.5-0.2C134.1,137.5,134.7,134.9,135.2,132z M151.4,112.9c1,0,1.9,0.4,2.6,1.1
					c0.7,0.7,1.1,1.6,1.2,2.6c0.6,9.5,1.3,19,1.9,28.5c0.1,1.1-0.2,1.9-0.9,2.7c-0.7,0.7-1.5,1.1-2.5,1.1c-0.6,0-1.2,0-1.7,0
					c-1,0-1.9-0.4-2.7-1.1c-0.7-0.7-1.2-1.6-1.2-2.7c-0.6-9.5-1.2-19-1.7-28.5c-0.1-1,0.2-1.9,0.9-2.6c0.6-0.7,1.5-1.1,2.5-1.1
					C150.2,112.9,150.8,112.9,151.4,112.9z M160.1,110.7c-0.1-1.1,0.2-1.9,0.9-2.7c0.7-0.7,1.5-1.1,2.5-1.1c0.6,0,1.2,0,1.8,0
					c1,0,1.8,0.4,2.6,1.1s1.2,1.6,1.3,2.7c1.1,15.3,2.2,30.5,3.3,45.8c0.2,2.6,0.1,4.5-0.4,5.9s-1.4,2.4-2.8,3.2
					c-1.9,1-5,1.6-9.2,1.7H160c-1,0-1.9-0.3-2.8-1c-0.9-0.7-1.5-1.5-1.9-2.6c-0.3-0.8-0.6-1.6-0.9-2.4c-0.1-0.3-0.2-0.6-0.2-0.9
					c0-0.5,0.1-1,0.3-1.4c0.5-0.7,1.1-1.1,1.9-1.1c0,0,0,0,0.1,0c1.5,0,3.3,0.1,5.2,0.1c0.6,0,1.1-0.1,1.3-0.3s0.3-0.6,0.3-1.2
					C162.2,141.2,161.2,126,160.1,110.7z"/>
				<path class="st4" d="M223.2,151.6c0.1,1-0.2,1.9-0.8,2.6c-0.7,0.7-1.5,1.1-2.5,1.1c-2.2,0-4.4,0-6.6,0c-0.3,0-0.4,0.1-0.4,0.4
					c0.1,0.6,0.1,1.1,0.2,1.7c0,0.3,0.2,0.5,0.5,0.5c5.4,0,10.8,0,16.3,0c1,0,2,0.4,2.7,1.1c0.8,0.7,1.2,1.6,1.3,2.7
					c0,0.1,0,0.1,0,0.2c0.1,1-0.2,1.9-0.8,2.6c-0.6,0.7-1.5,1.1-2.5,1.1c-14,0-28,0-42.1,0c-1,0-2-0.4-2.7-1.1
					c-0.8-0.7-1.2-1.6-1.3-2.6c0-0.1,0-0.1,0-0.2c-0.1-1.1,0.2-1.9,0.9-2.7c0.7-0.7,1.5-1.1,2.5-1.1c5.1,0,10.2,0,15.3,0
					c0.3,0,0.4-0.2,0.4-0.5c-0.1-0.6-0.1-1.1-0.2-1.7c0-0.3-0.2-0.4-0.5-0.4c-2.2,0-4.3,0-6.5,0c-1,0-1.8-0.3-2.5-1
					s-1.1-1.5-1.2-2.5c0,0,0-0.1-0.1-0.1s-0.1,0-0.2,0c-1.9,1.6-3.8,3.1-5.8,4.2c-0.6,0.3-1.2,0.4-1.8,0.4c-0.3,0-0.7,0-1.1-0.1
					c-1-0.3-1.9-0.9-2.7-1.7c-0.4-0.5-0.8-1-1.3-1.5s-0.7-1-0.8-1.6c0-0.2,0-0.4,0-0.6c0.1-0.9,0.5-1.5,1.3-1.8
					c2.8-1.4,5.3-3,7.5-4.9c0,0,0-0.1,0-0.2c0-0.1-0.1-0.1-0.2-0.1c-2.3,0-4.6,0-6.9,0c-1,0-1.9-0.4-2.7-1.1
					c-0.8-0.7-1.2-1.6-1.3-2.6c0-0.1,0-0.1,0-0.2c-0.1-1.1,0.2-1.9,0.9-2.7c0.6-0.7,1.5-1.1,2.5-1.1c2.6,0,5.2,0,7.7,0
					c0.3,0,0.4-0.2,0.4-0.5c-0.5-5.9-1-11.8-1.4-17.7c0-0.3-0.2-0.4-0.5-0.4c-1.4,0-2.7,0-4.1,0c-1,0-1.9-0.4-2.6-1.1
					c-0.8-0.7-1.2-1.6-1.3-2.6c0,0,0,0,0-0.1c-0.1-1,0.2-1.9,0.9-2.6s1.5-1.1,2.4-1.1c1.4,0,2.7,0,4.1,0c0.3,0,0.4-0.1,0.4-0.4
					c-0.1-1,0.2-1.9,0.8-2.6s1.4-1.1,2.4-1.1c0.7,0,1.3,0,2,0c1,0,1.9,0.4,2.7,1.1s1.2,1.6,1.3,2.6c0,0.3,0.2,0.4,0.5,0.4
					c5.7,0,11.4,0,17,0c0.3,0,0.4-0.1,0.4-0.4c-0.1-1,0.2-1.9,0.8-2.6s1.4-1,2.4-1c0.8,0,1.5,0,2.3,0c1,0,1.8,0.3,2.6,1
					c0.7,0.7,1.2,1.6,1.3,2.6c0,0.3,0.2,0.4,0.5,0.4c1.4,0,2.7,0,4.1,0c1,0,1.9,0.4,2.7,1.1s1.2,1.6,1.3,2.6c0,0,0,0,0,0.1
					c0.1,1-0.2,1.9-0.8,2.6s-1.4,1.1-2.5,1.1c-1.3,0-2.7,0-4,0c-0.3,0-0.5,0.1-0.4,0.4c0.6,5.9,1.2,11.8,1.8,17.7
					c0,0.3,0.2,0.5,0.5,0.5c2.4,0,4.9,0,7.3,0c1,0,1.9,0.4,2.7,1.1c0.8,0.7,1.2,1.6,1.3,2.7c0,0.1,0,0.1,0,0.2
					c0.1,1-0.2,1.9-0.8,2.6c-0.6,0.7-1.5,1.1-2.5,1.1c-2.1,0-4.1,0-6.2,0c-0.1,0-0.1,0-0.1,0.1s0,0.1,0,0.2c2.4,1.7,5,3.1,7.7,4.4
					c0.8,0.4,1.4,1,1.6,1.8c0.1,0.2,0.1,0.4,0.1,0.6c0.1,0.6-0.1,1.2-0.5,1.6c-0.4,0.5-0.8,1.1-1.1,1.6c-0.6,0.8-1.4,1.4-2.4,1.6
					c-0.3,0.1-0.6,0.1-0.9,0.1c-0.7,0-1.3-0.2-2-0.5c-2.3-1.3-4.4-2.7-6.4-4.4c0,0-0.1-0.1-0.2,0c-0.1,0-0.1,0.1-0.1,0.2
					C223.2,151.3,223.2,151.4,223.2,151.6z M196.3,147.6c-0.1,0-0.1,0.1,0,0.2c0,0.1,0.1,0.1,0.2,0.1c2,0,3.9,0,5.9,0
					c0.2,0,0.4-0.1,0.3-0.4c-0.1-0.8,0.1-1.5,0.7-2.1c0.5-0.6,1.2-0.9,2-0.9c1.2,0,2.4,0,3.6,0c0.8,0,1.5,0.3,2.2,0.9
					c0.6,0.6,1,1.3,1,2.1c0,0.3,0.2,0.4,0.4,0.4c2.3,0,4.7,0,7,0c0.1,0,0.1,0,0.2-0.1c0-0.1,0-0.1,0-0.2c-1.2-1.2-2.3-2.4-3.3-3.6
					c-0.2-0.2-0.5-0.3-0.8-0.3c-5.3,0-10.7,0-16,0c-0.3,0-0.5,0.1-0.7,0.4C198.2,145.3,197.3,146.4,196.3,147.6z M213.9,117.9
					c0-0.3-0.2-0.4-0.5-0.4c-5.7,0-11.4,0-17.1,0c-0.3,0-0.4,0.1-0.4,0.4s0.1,0.7,0.1,1s0.2,0.5,0.5,0.5c5.7,0,11.4,0,17.1,0
					c0.3,0,0.4-0.2,0.4-0.5S214,118.2,213.9,117.9z M197.1,125.8c-0.3,0-0.4,0.1-0.4,0.4s0.1,0.7,0.1,1s0.2,0.5,0.5,0.5
					c5.7,0,11.5,0,17.2,0c0.3,0,0.4-0.2,0.4-0.5s-0.1-0.7-0.1-1s-0.2-0.4-0.5-0.4C208.5,125.8,202.8,125.8,197.1,125.8z
					 M197.8,134.2c-0.3,0-0.4,0.1-0.4,0.4c0,0.3,0.1,0.6,0.1,1c0,0.3,0.2,0.5,0.5,0.5c5.8,0,11.5,0,17.3,0c0.3,0,0.4-0.2,0.4-0.5
					s-0.1-0.6-0.1-1c0-0.3-0.2-0.4-0.5-0.4C209.3,134.2,203.5,134.2,197.8,134.2z"/>
				<path class="st4" d="M285.4,145.9c-0.1,0-0.1,0-0.1,0.1c0,0,0,0.1,0.1,0.1c0.8,0.3,1.6,0.6,2.5,0.9c0.9,0.3,1.6,0.9,2,1.8
					c0.1,0.3,0.2,0.6,0.2,0.9c0.1,0.6,0,1.1-0.3,1.6c-1.8,3-2.9,4.9-3.4,5.7c0,0.1,0,0.2,0,0.3c0.1,0.1,0.1,0.1,0.2,0.1
					c3,0,6.1,0,9.1,0c1,0,2,0.4,2.8,1.1c0.8,0.8,1.3,1.7,1.5,2.7c0,0.2,0.1,0.4,0.1,0.6c0.1,1-0.1,1.9-0.8,2.7
					c-0.6,0.8-1.5,1.1-2.5,1.1c-16,0-32,0-48.1,0c-1,0-2-0.4-2.8-1.1c-0.8-0.8-1.3-1.7-1.4-2.7c0-0.2,0-0.4-0.1-0.6
					c-0.1-1,0.2-1.9,0.8-2.7c0.7-0.8,1.5-1.1,2.5-1.1c2.5,0,4.9,0,7.4,0c0.1,0,0.2,0,0.3-0.1s0.1-0.2,0-0.3c-1-2-2.1-3.9-3.4-5.8
					c-0.4-0.5-0.6-1.1-0.6-1.7c0-0.3,0-0.7,0.1-1c0.2-1,0.7-1.6,1.6-1.9c0.3-0.1,0.6-0.3,0.8-0.4c0,0,0.1-0.1,0-0.1
					c0,0,0-0.1-0.1-0.1c-1.3,0-2.6,0-3.9,0c-1,0-1.9-0.4-2.8-1.1c-0.8-0.8-1.3-1.7-1.4-2.7c0-0.2,0-0.4-0.1-0.6
					c-0.1-1,0.2-1.9,0.8-2.7c0.7-0.8,1.5-1.1,2.5-1.1c4.8,0,9.5,0,14.3,0c0.3,0,0.5-0.2,0.5-0.5c-0.2-1.5-0.3-2.9-0.5-4.4
					c0-0.3-0.2-0.5-0.6-0.5c-2.7,0-5.4,0-8.1,0c-0.7,0-1.3-0.2-1.9-0.7c-0.5-0.5-0.9-1.1-0.9-1.8c0,0,0-0.1-0.1-0.1s-0.1,0-0.2,0
					c-1.5,1.2-3.2,2.4-5.2,3.7c-0.6,0.3-1.1,0.5-1.7,0.5c-0.3,0-0.7-0.1-1-0.2c-1-0.3-1.9-0.8-2.6-1.7c-0.5-0.6-1-1.2-1.6-1.8
					c-0.5-0.6-0.8-1.2-0.9-1.9c0-0.2,0-0.4,0-0.6c0-0.9,0.4-1.6,1.2-2.1c3.9-2.3,7.5-5.3,10.8-8.8c3.2-3.3,5.7-6.5,7.6-9.7
					c1.2-2.1,3-3.2,5.4-3.2c0.8,0,1.6,0,2.4,0c2.4,0,4.4,1,6.2,3c3.5,3.9,7.3,7.5,11.5,10.6c4.1,3.1,8.2,5.6,12.4,7.5
					c0.8,0.4,1.4,1,1.8,1.9c0.1,0.2,0.1,0.5,0.2,0.7c0.1,0.6,0,1.2-0.4,1.8c-0.5,0.8-1,1.6-1.4,2.5c-0.5,0.9-1.2,1.5-2.2,1.8
					c-0.3,0.1-0.6,0.1-0.9,0.1c-0.7,0-1.3-0.2-2-0.5c-2.2-1.3-4.3-2.6-6.4-4c0,0-0.1,0-0.2,0s-0.1,0.1-0.1,0.1
					c0.1,0.8-0.1,1.4-0.5,2c-0.5,0.5-1.1,0.8-1.8,0.8c-2.8,0-5.6,0-8.3,0c-0.3,0-0.4,0.2-0.4,0.5c0.2,1.5,0.4,2.9,0.5,4.4
					c0,0.3,0.2,0.5,0.5,0.5c4.9,0,9.7,0,14.6,0c1,0,1.9,0.4,2.8,1.1c0.8,0.8,1.3,1.7,1.5,2.7c0,0.2,0.1,0.4,0.1,0.6
					c0.1,1-0.1,1.9-0.8,2.7c-0.6,0.8-1.5,1.1-2.5,1.1C288.5,145.9,287,145.9,285.4,145.9z M265,146.4c0-0.3-0.2-0.5-0.6-0.5
					c-1.9,0-3.9,0-5.8,0c-0.1,0-0.2,0-0.2,0.1s0,0.2,0,0.3c1.6,2,3,3.8,4,5.4c0.3,0.5,0.5,1,0.6,1.6c0.1,0.5,0,0.9-0.1,1.4
					c-0.3,1-0.9,1.7-1.9,2.1c-0.3,0.1-0.5,0.3-0.8,0.4c0,0-0.1,0-0.1,0.1s0.1,0.1,0.1,0.1c1.8,0,3.7,0,5.5,0c0.3,0,0.5-0.2,0.5-0.5
					C265.8,153.4,265.4,149.9,265,146.4z M258.3,123.7c-0.1,0-0.1,0.1,0,0.2s0.1,0.1,0.2,0.1c6.1,0,12.2,0,18.4,0
					c0.1,0,0.1,0,0.2-0.1c0-0.1,0-0.2-0.1-0.2c-4.3-3.5-7.8-6.8-10.4-9.9c-0.2-0.3-0.4-0.3-0.5,0C264,117.2,261.5,120.5,258.3,123.7
					z M281.7,146.4c0-0.1,0-0.2-0.1-0.3s-0.2-0.1-0.2-0.1c-1.9,0-3.9,0-5.8,0c-0.3,0-0.4,0.2-0.4,0.5c0.4,3.5,0.9,7,1.3,10.5
					c0,0.3,0.2,0.5,0.5,0.5c1.3,0,2.6,0,3.9,0c0,0,0.1,0,0.1-0.1v-0.1c-0.9-0.3-1.5-0.9-1.8-1.8c-0.1-0.3-0.2-0.6-0.2-0.9
					c-0.1-0.5,0-1,0.3-1.5C280.1,150.9,280.9,148.7,281.7,146.4z"/>
			</g>
		</g>
	</g>
	<path class="st8" d="M291.1,277.9H52.7c-23.5,0-40.9-19-38.8-42.5l0,0c2.1-23.5,22.8-42.5,46.3-42.5h238.4
		c23.5,0,40.9,19,38.8,42.5l0,0C335.3,258.9,314.6,277.9,291.1,277.9z"/>
	<path class="st7" d="M291.1,270.4H52.7c-23.5,0-40.9-19-38.8-42.5l0,0c2.1-23.5,22.8-42.5,46.3-42.5h238.4
		c23.5,0,40.9,19,38.8,42.5l0,0C335.3,251.4,314.6,270.4,291.1,270.4z"/>
	<g class="st9">
		<path class="st10" d="M107.5,213.6c-0.1,0-0.2,0.1-0.2,0.2l-0.2,2.5c0,0.1,0,0.2,0.1,0.2c0.6,0.1,1.2,0.1,1.9,0.1
			c2.6,0,4.6,0,5.9,0l0,0c0.3,0,0.5,0.1,0.7,0.4c0.1,0.2,0.1,0.3,0.1,0.5c0,0.1,0,0.2-0.1,0.4c-0.1,0.3-0.3,0.6-0.4,1
			c-0.2,0.4-0.4,0.7-0.7,1s-0.7,0.4-1.1,0.4h-4.9c-2.3,0-4.1-0.3-5.6-0.8s-2.6-1.5-3.5-2.9h-0.1c0,0-0.1,0-0.1,0.1
			c-0.6,1.2-1.4,2.2-2.2,3c-0.3,0.3-0.6,0.4-1,0.4l0,0c-0.4,0-0.7-0.1-1-0.4c-0.2-0.2-0.5-0.4-0.7-0.6c-0.3-0.2-0.4-0.5-0.3-0.9
			c0-0.3,0.2-0.6,0.4-0.8c1.6-1.5,2.8-3.8,3.5-6.8c0.1-0.4,0.3-0.7,0.6-0.9c0.3-0.2,0.6-0.3,0.9-0.3h0.1l0.9,0.1
			c0.4,0,0.7,0.2,0.9,0.5c0.2,0.2,0.2,0.5,0.2,0.8c0,0.1,0,0.2,0,0.2c-0.1,0.5-0.3,1-0.4,1.4c0,0.1,0,0.2,0,0.3
			c0.4,1.3,1.2,2.3,2.2,3h0.1l0.1-0.1l0.6-7.2c0-0.1,0-0.2-0.1-0.2H101c-0.4,0-0.7-0.1-0.9-0.4s-0.3-0.6-0.3-1v-0.5
			c0-0.4,0.2-0.7,0.5-1s0.6-0.4,1-0.4h10.1c0.4,0,0.7,0.1,0.9,0.4c0.2,0.3,0.3,0.6,0.3,1v0.5c0,0.4-0.2,0.7-0.5,1s-0.6,0.4-1,0.4h-3
			c-0.1,0-0.2,0.1-0.2,0.2l-0.2,2.1c0,0.1,0,0.2,0.1,0.2h4.7c0.4,0,0.7,0.1,0.9,0.4s0.3,0.6,0.3,1v0.5c0,0.4-0.2,0.7-0.5,1
			s-0.6,0.4-1,0.4h-4.7C107.5,214,107.5,213.6,107.5,213.6z M99.5,202.9c-0.1,0-0.2,0.1-0.2,0.2l-0.1,1.6c0,0.4-0.2,0.7-0.5,1
			s-0.6,0.4-1,0.4H97c-0.4,0-0.7-0.1-0.9-0.4c-0.2-0.3-0.3-0.6-0.3-1l0.3-3.7c0-0.4,0.2-0.7,0.5-1s0.6-0.4,1-0.4h7
			c0.1,0,0.2-0.1,0.2-0.2l0.1-0.7c0-0.4,0.2-0.7,0.5-1s0.6-0.4,1-0.4h1c0.4,0,0.7,0.1,0.9,0.4c0.2,0.3,0.4,0.6,0.3,1l-0.1,0.7
			c0,0.1,0,0.2,0.1,0.2h7.1c0.4,0,0.7,0.1,0.9,0.4c0.2,0.3,0.3,0.6,0.3,1l-0.3,3.7c0,0.4-0.2,0.7-0.5,1s-0.6,0.4-1,0.4h-0.8
			c-0.4,0-0.7-0.1-0.9-0.4c-0.2-0.3-0.3-0.6-0.3-1l0.1-1.6c0-0.1,0-0.2-0.2-0.2H99.5z"/>
		<path class="st10" d="M140.1,198.4c0.4,0,0.7,0.1,0.9,0.4c0.2,0.3,0.4,0.6,0.3,1l-1.5,16.8c-0.1,0.8-0.2,1.5-0.4,1.9
			s-0.6,0.8-1.1,1.1c-0.6,0.3-1.5,0.5-2.7,0.6c0,0,0,0-0.1,0c-0.4,0-0.7-0.1-0.9-0.4c-0.3-0.2-0.5-0.6-0.5-1c0-0.2-0.1-0.4-0.1-0.7
			c0-0.1,0-0.2,0-0.3c0-0.2,0.1-0.4,0.2-0.5c0.2-0.3,0.5-0.4,0.8-0.4h0.4c0.1,0,0.2,0,0.4,0s0.2,0,0.2,0c0.2,0,0.3,0,0.4-0.1
			c0.1-0.1,0.1-0.2,0.1-0.4l0.4-4c0-0.1,0-0.2-0.1-0.2h-2.5c-0.1,0-0.2,0.1-0.2,0.2c-0.5,2.7-1.2,4.8-2,6.5
			c-0.2,0.3-0.4,0.5-0.8,0.6c-0.1,0-0.2,0-0.2,0c-0.2,0-0.5-0.1-0.7-0.3c-0.5-0.4-1-0.7-1.4-1c-0.1-0.1-0.2-0.1-0.3,0l-0.6,0.4
			c-0.2,0.1-0.5,0.2-0.7,0.2c-0.1,0-0.2,0-0.3,0c-0.4-0.1-0.6-0.3-0.8-0.6c-0.3-0.4-0.6-0.9-0.9-1.4c-0.2-0.2-0.2-0.4-0.2-0.7
			c0-0.1,0-0.2,0-0.2c0.1-0.4,0.3-0.6,0.7-0.8l0.9-0.5l0,0l0,0H121l0,0l0,0l1.7,0.5c0.3,0.1,0.6,0.3,0.7,0.6
			c0.1,0.1,0.1,0.3,0.1,0.4c0,0.2-0.1,0.4-0.2,0.5c-0.7,0.9-1.4,1.8-2.2,2.6c-0.3,0.3-0.6,0.5-1,0.5H120c-0.4,0-0.7-0.1-1-0.4
			c-0.2-0.1-0.3-0.3-0.5-0.4c-0.3-0.2-0.4-0.5-0.4-0.9c0-0.3,0.2-0.6,0.4-0.8c0.9-0.8,1.6-1.7,2.2-2.6v-0.1c0,0,0,0-0.1,0h-1.2
			c-0.4,0-0.7-0.1-0.9-0.4c-0.2-0.3-0.3-0.6-0.3-1v-0.3c0-0.4,0.2-0.7,0.5-1s0.6-0.4,1-0.4h0.5c0.1,0,0.2-0.1,0.2-0.2l0.7-8.1
			c0-0.1,0-0.2-0.2-0.2h-0.2c-0.4,0-0.7-0.1-0.9-0.4c-0.2-0.3-0.3-0.6-0.3-1v-0.3c0-0.4,0.2-0.7,0.5-1s0.6-0.4,1-0.4h0.2
			c0.1,0,0.2-0.1,0.2-0.2l0.1-0.8c0-0.4,0.2-0.7,0.5-1s0.6-0.4,1-0.4h0.4c0.4,0,0.7,0.1,0.9,0.4c0.3,0.3,0.4,0.6,0.3,1l-0.1,0.8
			c0,0.1,0,0.2,0.1,0.2h1.9c0.1,0,0.2-0.1,0.2-0.2l0.1-0.8c0-0.4,0.2-0.7,0.5-1s0.6-0.4,1-0.4h0.4c0.4,0,0.7,0.1,0.9,0.4
			c0.2,0.3,0.3,0.6,0.3,1l-0.1,0.8c0,0.1,0,0.2,0.2,0.2c0.4,0,0.7,0.1,0.9,0.4c0.2,0.3,0.4,0.6,0.3,1v0.3c0,0.4-0.2,0.7-0.5,1
			s-0.6,0.4-1,0.4c-0.1,0-0.2,0.1-0.2,0.2l-0.7,8.1c0,0.1,0,0.2,0.1,0.2c0.3,0,0.6,0.1,0.8,0.3s0.3,0.5,0.3,0.8v0.5
			c0,0.4-0.2,0.7-0.5,1s-0.6,0.4-1,0.4h-1.1h-0.1v0.1c0.8,1,1.4,1.8,1.8,2.4c0,0,0,0,0.1,0s0.1,0,0.1-0.1c0.6-1.3,1.1-2.8,1.4-4.4
			s0.5-3.4,0.7-5.4l0.7-7.5c0-0.4,0.2-0.7,0.5-1s0.6-0.4,1-0.4h6.5L140.1,198.4L140.1,198.4z M123.7,210.3c-0.1,0-0.2,0.1-0.2,0.2
			l-0.1,0.8c0,0.1,0,0.2,0.1,0.2h1.9c0.1,0,0.2-0.1,0.2-0.2l0.1-0.8c0-0.1,0-0.2-0.1-0.2H123.7z M124,206.6c-0.1,0-0.2,0.1-0.2,0.2
			l-0.1,0.7c0,0.1,0,0.2,0.1,0.2h1.9c0.1,0,0.2-0.1,0.2-0.2l0.1-0.7c0-0.1,0-0.2-0.1-0.2H124z M126.4,203.2c0-0.1,0-0.2-0.1-0.2
			h-1.9c-0.1,0-0.2,0.1-0.2,0.2l-0.1,0.7c0,0.1,0,0.2,0.1,0.2h1.9c0.1,0,0.2-0.1,0.2-0.2L126.4,203.2z M134.5,209
			c0,0.1,0,0.2,0.1,0.2h2.3c0.1,0,0.2-0.1,0.2-0.2l0.2-2c0-0.1,0-0.2-0.1-0.2h-2.3c-0.1,0-0.2,0.1-0.2,0.2v0.3
			C134.6,208,134.6,208.6,134.5,209z M137.8,201.7c0-0.1,0-0.2-0.1-0.2h-2.3c-0.1,0-0.2,0.1-0.2,0.2l-0.2,1.9c0,0.1,0,0.2,0.1,0.2
			h2.3c0.1,0,0.2-0.1,0.2-0.2L137.8,201.7z"/>
		<path class="st10" d="M155.5,213.6c-0.1,0-0.2,0.1-0.2,0.2l-0.2,2.5c0,0.1,0,0.2,0.1,0.2c0.6,0.1,1.2,0.1,1.9,0.1
			c2.6,0,4.6,0,5.9,0l0,0c0.3,0,0.5,0.1,0.7,0.4c0.1,0.2,0.1,0.3,0.1,0.5c0,0.1,0,0.2-0.1,0.4c-0.1,0.3-0.3,0.6-0.4,1
			c-0.2,0.4-0.4,0.7-0.7,1s-0.7,0.4-1.1,0.4h-4.9c-2.3,0-4.1-0.3-5.6-0.8s-2.6-1.5-3.5-2.9h-0.1c0,0-0.1,0-0.1,0.1
			c-0.6,1.2-1.4,2.2-2.2,3c-0.3,0.3-0.6,0.4-1,0.4l0,0c-0.4,0-0.7-0.1-1-0.4c-0.2-0.2-0.5-0.4-0.7-0.6c-0.3-0.2-0.4-0.5-0.3-0.9
			c0-0.3,0.2-0.6,0.4-0.8c1.6-1.5,2.8-3.8,3.5-6.8c0.1-0.4,0.3-0.7,0.6-0.9s0.6-0.3,0.9-0.3h0.1l0.9,0.1c0.4,0,0.7,0.2,0.9,0.5
			c0.2,0.2,0.2,0.5,0.2,0.8c0,0.1,0,0.2,0,0.2c-0.1,0.5-0.3,1-0.4,1.4c0,0.1,0,0.2,0,0.3c0.4,1.3,1.2,2.3,2.2,3h0.1l0.1-0.1l0.6-7.2
			c0-0.1,0-0.2-0.1-0.2H149c-0.4,0-0.7-0.1-0.9-0.4s-0.3-0.6-0.3-1v-0.5c0-0.4,0.2-0.7,0.5-1s0.6-0.4,1-0.4h10.1
			c0.4,0,0.7,0.1,0.9,0.4c0.2,0.3,0.3,0.6,0.3,1v0.5c0,0.4-0.2,0.7-0.5,1s-0.6,0.4-1,0.4h-3c-0.1,0-0.2,0.1-0.2,0.2l-0.2,2.1
			c0,0.1,0,0.2,0.1,0.2h4.7c0.4,0,0.7,0.1,0.9,0.4s0.3,0.6,0.3,1v0.5c0,0.4-0.2,0.7-0.5,1s-0.6,0.4-1,0.4h-4.7L155.5,213.6
			L155.5,213.6z M147.5,202.9c-0.1,0-0.2,0.1-0.2,0.2l-0.1,1.6c0,0.4-0.2,0.7-0.5,1s-0.6,0.4-1,0.4H145c-0.4,0-0.7-0.1-0.9-0.4
			c-0.2-0.3-0.3-0.6-0.3-1l0.3-3.7c0-0.4,0.2-0.7,0.5-1s0.6-0.4,1-0.4h7c0.1,0,0.2-0.1,0.2-0.2l0.1-0.7c0-0.4,0.2-0.7,0.5-1
			s0.6-0.4,1-0.4h1c0.4,0,0.7,0.1,0.9,0.4c0.2,0.3,0.4,0.6,0.3,1l-0.1,0.7c0,0.1,0,0.2,0.1,0.2h7.1c0.4,0,0.7,0.1,0.9,0.4
			c0.2,0.3,0.3,0.6,0.3,1l-0.3,3.7c0,0.4-0.2,0.7-0.5,1s-0.6,0.4-1,0.4h-0.8c-0.4,0-0.7-0.1-0.9-0.4c-0.2-0.3-0.3-0.6-0.3-1l0.1-1.6
			c0-0.1,0-0.2-0.2-0.2H147.5z"/>
		<path class="st10" d="M187.6,202.4c0.4,0,0.7,0.1,0.9,0.4c0.2,0.3,0.4,0.6,0.3,1l-0.9,10.1c0,0.4-0.2,0.7-0.5,1s-0.6,0.4-1,0.4
			h-6.6h-0.1l0,0l1.1,0.8c0.3,0.2,0.4,0.5,0.4,0.9c0,0.3-0.2,0.6-0.4,0.8c-0.9,0.7-1.9,1.3-3,1.8c-0.3,0.1-0.5,0.2-0.8,0.2
			c-0.1,0-0.2,0-0.4,0c-0.4-0.1-0.7-0.3-1-0.6c-0.1-0.2-0.3-0.3-0.4-0.5l0,0c0,0.1-0.1,0.1-0.1,0.1h-5c-0.1,0-0.1,0-0.1,0.1
			c0,0.2-0.1,0.4-0.3,0.6c-0.2,0.2-0.4,0.2-0.6,0.2h-0.7c-0.4,0-0.7-0.1-0.9-0.4s-0.4-0.6-0.3-1l0.4-4.7c-0.1,0-0.2,0-0.2-0.1
			c-0.2-0.4-0.4-0.8-0.7-1.3c-0.1-0.2-0.2-0.4-0.2-0.6c0-0.1,0-0.2,0.1-0.3c0.1-0.3,0.3-0.5,0.6-0.7c1-0.4,1.9-0.9,2.7-1.5l0.1-0.1
			v-0.1l-0.9-0.7c-0.1,0-0.1,0-0.2,0c-0.2,0.1-0.4,0.2-0.6,0.2c-0.2,0-0.4-0.1-0.5-0.3c-0.2-0.2-0.4-0.4-0.5-0.6
			c-0.2-0.2-0.3-0.5-0.3-0.8c0-0.4,0.2-0.7,0.5-0.9c1.1-0.8,2.1-1.8,2.9-2.9c0.2-0.3,0.6-0.6,0.9-0.8c0.2-0.1,0.5-0.2,0.7-0.2
			c0.1,0,0.3,0,0.4,0.1l0.6,0.1c0.2,0.1,0.4,0.2,0.4,0.4c0.1,0.2,0.1,0.4-0.1,0.6c0,0.1,0,0.1,0.1,0.1h1.5h0.1c0.1,0,0.2,0,0.3,0
			c0.2,0,0.4,0,0.5,0.1l0.5,0.3c0.3,0.1,0.5,0.3,0.6,0.6c0,0.1,0,0.3,0,0.4c0,0.1,0,0.3-0.1,0.4c-0.6,1.1-1.3,2.2-2.2,3.2
			c-0.1,0.1-0.1,0.2,0,0.2c0.6,0.4,1.2,0.8,1.7,1.2c0.3,0.2,0.4,0.5,0.5,0.9c0,0.1,0,0.1,0,0.2c0,0.3-0.2,0.6-0.4,0.8l-0.8,0.9
			c-0.1,0.1-0.1,0.2-0.1,0.3l-0.4,4.4v0.1h0.1c1.5-0.7,2.7-1.4,3.6-2.2v-0.1c0,0,0,0-0.1,0h0.3c-0.4,0-0.7-0.1-0.9-0.4
			c-0.2-0.3-0.4-0.6-0.3-1l0.9-10.1c0-0.4,0.2-0.7,0.5-1s0.6-0.4,1-0.4h1.4c0.1,0,0.2-0.1,0.2-0.2c0.1-0.3,0.2-0.6,0.2-0.9
			c0-0.1,0-0.2-0.1-0.2h-3.4c-0.1,0-0.2,0.1-0.2,0.2l-0.1,0.7c0,0.4-0.2,0.7-0.5,1s-0.6,0.4-1,0.4h-0.2c-0.4,0-0.7-0.1-0.9-0.4
			s-0.3-0.6-0.3-0.9c0-0.1,0-0.2-0.1-0.2h-4.9c-0.1,0-0.2,0.1-0.2,0.2c0,0.4-0.2,0.7-0.5,0.9s-0.6,0.4-1,0.4h-0.1
			c-0.4,0-0.7-0.1-0.9-0.4c-0.2-0.3-0.3-0.6-0.3-1l0.1-1.4c0-0.4,0.2-0.7,0.5-1s0.6-0.4,1-0.4h2.2c0.1,0,0.2-0.1,0.2-0.2v-0.2
			c0-0.4,0.2-0.7,0.5-1s0.6-0.4,1-0.4h0.5c0.4,0,0.7,0.1,0.9,0.4c0.2,0.3,0.4,0.6,0.3,1v0.2c0,0.1,0,0.2,0.1,0.2h3.5
			c0.1,0,0.1,0,0.1-0.1c0-0.2,0.1-0.5,0.3-0.7s0.4-0.3,0.7-0.3h9c0.4,0,0.7,0.1,0.9,0.4c0.2,0.3,0.4,0.6,0.3,1v0.2
			c0,0.4-0.2,0.7-0.5,1s-0.6,0.4-1,0.4h-2.3c-0.1,0-0.2,0.1-0.3,0.2c-0.1,0.2-0.3,0.5-0.5,0.9v0.1l0.1,0.1h2.7V202.4z M172.5,216.2
			c0.1,0,0.2-0.1,0.2-0.2l0.1-1.2c0-0.1,0-0.2-0.1-0.2h-1.9c-0.1,0-0.2,0.1-0.2,0.2l-0.1,1.2c0,0.1,0,0.2,0.2,0.2H172.5z M171,211.9
			C171,212,171,212,171,211.9C171,212,171,212,171,211.9l2.9,0.1h0.1c0,0,0,0,0-0.1c-0.2-0.2-0.6-0.5-1.2-1c-0.1-0.1-0.2-0.1-0.3,0
			C171.9,211.4,171.4,211.7,171,211.9z M173.4,206C173.5,206,173.5,206,173.4,206c0-0.1,0-0.1-0.1-0.1h-1.5c-0.1,0-0.2,0-0.3,0.1
			c0,0-0.1,0.1-0.2,0.2c-0.1,0.1-0.1,0.2,0,0.2l0.9,0.6c0.1,0.1,0.2,0,0.3,0C172.9,206.7,173.2,206.4,173.4,206z M184.6,212.7
			c0.1,0,0.2-0.1,0.2-0.2l0.1-0.7c0-0.1,0-0.2-0.1-0.2h-3.5c-0.1,0-0.2,0.1-0.2,0.2l-0.1,0.7c0,0.1,0,0.2,0.2,0.2H184.6z
			 M184.9,209.3c0.1,0,0.2-0.1,0.2-0.2l0.1-0.7c0-0.1,0-0.2-0.1-0.2h-3.5c-0.1,0-0.2,0.1-0.2,0.2l-0.1,0.7c0,0.1,0,0.2,0.2,0.2
			H184.9z M185.2,206c0.1,0,0.2-0.1,0.2-0.2l0.1-0.7c0-0.1,0-0.2-0.1-0.2h-3.5c-0.1,0-0.2,0.1-0.2,0.2l-0.1,0.7c0,0.1,0,0.2,0.2,0.2
			H185.2z M183.7,217.7c-0.2-0.2-0.3-0.5-0.3-0.8c0-0.4,0.2-0.7,0.5-0.8l0.2-0.1c0.3-0.2,0.7-0.3,1.1-0.3h0.1c0.4,0,0.8,0.1,1.1,0.4
			c0.6,0.5,1.1,1,1.6,1.4c0.2,0.2,0.3,0.5,0.3,0.8c0,0.4-0.2,0.7-0.6,0.9l-0.4,0.2c-0.3,0.2-0.6,0.3-0.9,0.3c-0.1,0-0.1,0-0.2,0
			c-0.4-0.1-0.7-0.2-1-0.5C184.7,218.7,184.2,218.2,183.7,217.7z"/>
		<path class="st10" d="M213.3,202.5c0,0.4-0.2,0.7-0.5,1s-0.6,0.4-1,0.4h-11.1c-0.1,0-0.2,0.1-0.3,0.2c-0.9,1.6-2,3.1-3.1,4.6
			c-0.1,0.1-0.1,0.2-0.1,0.3l-0.9,9.9c0,0.4-0.2,0.7-0.5,1s-0.6,0.4-1,0.4H194c-0.4,0-0.7-0.1-0.9-0.4s-0.3-0.6-0.3-1l0.5-6.1v-0.1
			h-0.1c-0.2,0.1-0.3,0.3-0.5,0.4c-0.2,0.1-0.4,0.2-0.6,0.2c-0.1,0-0.2,0-0.3,0c-0.3-0.1-0.5-0.3-0.7-0.6c-0.1-0.3-0.3-0.7-0.4-1
			c-0.1-0.2-0.1-0.5-0.1-0.7c0-0.1,0-0.2,0.1-0.4c0.1-0.4,0.3-0.7,0.7-0.9c1.9-1.4,3.6-3.2,5.1-5.6V204c0,0,0,0-0.1,0H193
			c-0.4,0-0.7-0.1-0.9-0.4c-0.2-0.3-0.4-0.6-0.3-1V202c0-0.4,0.2-0.7,0.5-1s0.6-0.4,1-0.4h4.9c0.1,0,0.2-0.1,0.2-0.2
			c0.2-0.5,0.5-1.1,0.7-1.7c0.1-0.4,0.4-0.6,0.7-0.8c0.2-0.1,0.5-0.2,0.7-0.2c0.1,0,0.2,0,0.3,0l1,0.3c0.4,0.1,0.6,0.3,0.8,0.6
			c0.1,0.2,0.1,0.4,0.1,0.6c0,0.1,0,0.3-0.1,0.4c-0.1,0.3-0.2,0.6-0.4,0.8v0.1l0.1,0.1h9.7c0.4,0,0.7,0.1,0.9,0.4
			c0.2,0.3,0.4,0.6,0.3,1L213.3,202.5z M211.4,211.2c0.4,0,0.7,0.1,0.9,0.4c0.2,0.3,0.3,0.6,0.3,1v0.5c0,0.4-0.2,0.7-0.5,1
			s-0.6,0.4-1,0.4h-3.7c-0.1,0-0.2,0.1-0.2,0.2l-0.2,2c-0.1,0.9-0.2,1.5-0.5,2c-0.2,0.5-0.6,0.8-1.2,1.1c-0.7,0.3-1.7,0.5-3.1,0.5
			l0,0c-0.4,0-0.7-0.1-1-0.4c-0.3-0.2-0.5-0.6-0.5-1c0-0.2-0.1-0.5-0.1-0.7c0-0.1,0-0.2,0-0.3c0-0.2,0.1-0.4,0.2-0.5
			c0.2-0.3,0.5-0.4,0.8-0.4l0,0c0.4,0,0.9,0,1.4,0c0.2,0,0.3,0,0.4-0.1c0.1,0,0.1-0.1,0.1-0.3l0.2-1.9c0-0.1,0-0.2-0.2-0.2h-4.2
			c-0.4,0-0.7-0.1-0.9-0.4c-0.2-0.3-0.3-0.6-0.3-1v-0.5c0-0.4,0.2-0.7,0.5-1s0.6-0.4,1-0.4h4.2c0.1,0,0.2-0.1,0.2-0.2l0.1-0.8
			c0-0.2,0.1-0.5,0.3-0.6c0.2-0.2,0.4-0.3,0.6-0.3c0.1,0,0.2,0,0.2-0.1c0.3-0.2,0.6-0.5,0.9-0.8v-0.1c0,0,0,0-0.1,0h-4.5
			c-0.4,0-0.7-0.1-0.9-0.4c-0.2-0.3-0.4-0.6-0.3-1v-0.4c0-0.4,0.2-0.7,0.5-1s0.6-0.4,1-0.4h7.3c0,0,0.1,0,0.2,0c0.1,0,0.2,0,0.4,0
			c0.3,0,0.5,0.1,0.8,0.3l0.5,0.5c0.3,0.3,0.4,0.6,0.4,1c0,0.3-0.2,0.6-0.4,0.9c-1.2,1.2-2.3,2.2-3.3,3c-0.1,0.1-0.1,0.1-0.1,0.2
			c0,0.1,0,0.2,0.2,0.2H211.4z"/>
		<path class="st10" d="M221.9,202.1c1,0,1.7,0,2.1,0.1c0.3,0,0.5,0.2,0.7,0.4s0.2,0.5,0.2,0.7c-0.3,3.2-1.1,6.4-2.6,9.6
			c0,0.1,0,0.2,0,0.3c0.5,0.5,1,0.9,1.4,1.3c0.3,0.3,0.4,0.7,0.3,1.1c0,0.4-0.2,0.7-0.4,1.1l-0.5,0.6c-0.2,0.3-0.5,0.4-0.9,0.4l0,0
			c-0.3,0-0.6-0.1-0.8-0.4c-0.2-0.3-0.5-0.6-0.9-1c-0.1-0.1-0.1-0.1-0.2,0c-0.9,1.3-2,2.4-3.3,3.3c-0.2,0.2-0.5,0.2-0.7,0.2
			c-0.1,0-0.2,0-0.3,0c-0.4-0.1-0.6-0.3-0.8-0.6c-0.1-0.2-0.2-0.4-0.4-0.5c-0.2-0.2-0.2-0.5-0.2-0.8c0-0.1,0-0.1,0-0.2
			c0.1-0.3,0.3-0.6,0.6-0.8c1-0.7,1.9-1.6,2.7-2.8c0.1-0.1,0.1-0.2,0-0.3l-0.5-0.4h-0.1c0,0.1-0.1,0.2-0.3,0.3
			c-0.1,0.1-0.2,0.1-0.4,0l-1.1-0.6c-0.3-0.2-0.6-0.5-0.7-0.8c-0.1-0.2-0.1-0.5-0.1-0.7c0-0.1,0-0.3,0.1-0.4
			c0.5-1.5,1.1-3.4,1.7-5.6c0-0.1,0-0.2-0.1-0.2h-0.1c-0.4,0-0.7-0.1-0.9-0.4c-0.2-0.3-0.3-0.6-0.3-1v-0.4c0-0.4,0.2-0.7,0.5-1
			s0.6-0.4,1-0.4h0.7c0.1,0,0.2-0.1,0.2-0.2c0.2-0.9,0.5-1.9,0.8-3.1c0.1-0.4,0.3-0.7,0.6-0.9s0.6-0.3,0.9-0.3c0,0,0.1,0,0.2,0h0.5
			c0.4,0,0.7,0.2,0.9,0.5c0.2,0.2,0.2,0.5,0.2,0.8c0,0.1,0,0.2,0,0.2c-0.3,1-0.5,1.9-0.8,2.8c0,0.1,0,0.2,0.1,0.2h1L221.9,202.1
			L221.9,202.1z M221.2,205.5c0-0.1,0-0.2-0.1-0.2H220c-0.1,0-0.2,0.1-0.2,0.2c-0.3,1-0.7,2.5-1.3,4.4c0,0.1,0,0.2,0.1,0.3
			c0.3,0.2,0.6,0.4,0.9,0.7c0.1,0.1,0.2,0,0.2-0.1C220.3,209.2,220.8,207.5,221.2,205.5z M236.1,206.9c0.4,0,0.7,0.1,0.9,0.4
			c0.2,0.3,0.3,0.6,0.3,1v0.5c0,0.4-0.2,0.7-0.5,1s-0.6,0.4-1,0.4h-3.5c-0.1,0-0.2,0.1-0.2,0.2l-0.5,6.1c-0.1,0.8-0.2,1.5-0.5,2
			c-0.2,0.5-0.6,0.9-1.1,1.1c-0.7,0.3-1.6,0.5-2.8,0.6h-0.1c-0.4,0-0.7-0.1-1-0.3s-0.5-0.6-0.6-1c-0.1-0.3-0.1-0.5-0.2-0.8
			c0-0.1,0-0.2,0-0.4s0.1-0.3,0.2-0.5c0.2-0.2,0.4-0.4,0.8-0.4l0,0c0.3,0,0.6,0,0.8,0s0.4,0,0.5,0c0.2,0,0.3,0,0.4-0.1
			c0.1-0.1,0.1-0.2,0.1-0.3l0.5-6.1c0-0.1,0-0.2-0.2-0.2h-3.2c-0.4,0-0.7-0.1-0.9-0.4c-0.2-0.3-0.4-0.6-0.3-1v-0.5
			c0-0.4,0.2-0.7,0.5-1s0.6-0.4,1-0.4h3.2c0.1,0,0.2-0.1,0.2-0.2l0.1-1.5c0-0.2,0.1-0.5,0.3-0.6c0.2-0.2,0.4-0.3,0.7-0.3
			c0.1,0,0.1,0,0.2-0.1c0.6-0.6,1.2-1.4,1.8-2.3v-0.1c0,0,0,0-0.1,0h-5.2c-0.4,0-0.7-0.1-0.9-0.4c-0.2-0.3-0.3-0.6-0.3-1v-0.4
			c0-0.4,0.2-0.7,0.5-1s0.6-0.4,1-0.4h7.4c0.1,0,0.1,0,0.2,0c0.1,0,0.3,0,0.4,0c0.3,0,0.5,0.1,0.8,0.3l0.6,0.5
			c0.3,0.2,0.5,0.6,0.5,0.9c0,0.1,0,0.2,0,0.3c0,0.3-0.1,0.5-0.3,0.8c-1.4,1.8-2.7,3.3-4,4.5c-0.1,0.1-0.1,0.2-0.1,0.3l-0.1,0.7
			c0,0.1,0,0.2,0.2,0.2h3.5L236.1,206.9L236.1,206.9z"/>
		<path class="st10" d="M257.6,207.4c0.1,0,0.3,0,0.4,0c0.2,0,0.5,0,0.7,0.1l0.6,0.2c0.3,0.1,0.5,0.3,0.7,0.6
			c0.1,0.2,0.1,0.4,0.1,0.6c0,0.1,0,0.2-0.1,0.4c-0.9,2.2-2,4.1-3.5,5.7c-0.1,0.1-0.1,0.2,0,0.2c0.9,0.6,2,1.1,3.2,1.5
			c0.3,0.1,0.5,0.3,0.5,0.6c0,0.1,0,0.2,0,0.3c0,0.2-0.1,0.4-0.3,0.6c-0.3,0.3-0.5,0.6-0.8,0.9c-0.3,0.3-0.6,0.6-1,0.7
			c-0.2,0-0.4,0.1-0.5,0.1c-0.2,0-0.4,0-0.6-0.1c-1.3-0.5-2.4-1.2-3.4-2c-0.1-0.1-0.2-0.1-0.3,0c-1.2,0.8-2.4,1.4-3.7,2
			c-0.2,0.1-0.4,0.1-0.5,0.1c-0.2,0-0.4,0-0.5-0.1c-0.3-0.1-0.6-0.4-0.8-0.7c-0.2-0.4-0.5-0.8-0.7-1.1c0,0,0,0-0.1,0
			c0,0,0,0-0.1,0.1c-0.2,0.8-0.6,1.3-1.1,1.7c-0.5,0.3-1.2,0.5-2.1,0.6h-0.1c-0.3,0-0.6-0.1-0.9-0.4c-0.3-0.2-0.5-0.6-0.5-1
			c0-0.2-0.1-0.5-0.1-0.7c0-0.1,0-0.2,0-0.3c0-0.2,0.1-0.4,0.2-0.6c0.2-0.3,0.5-0.4,0.8-0.4c0.1,0,0.1,0,0.3,0s0.2,0,0.2,0
			c0.1,0,0.2,0,0.3-0.1s0.1-0.2,0.1-0.3l0.4-4.2c0-0.1,0-0.2-0.2-0.2h-1.4c-0.1,0-0.2,0.1-0.2,0.2c-0.4,2.7-1,4.9-1.8,6.7
			c-0.1,0.3-0.4,0.5-0.7,0.7c-0.1,0-0.3,0-0.4,0c-0.2,0-0.4-0.1-0.6-0.2c-0.1-0.1-0.2-0.2-0.4-0.2c-0.3-0.2-0.5-0.5-0.7-0.8
			c-0.1-0.2-0.1-0.4-0.1-0.6c0-0.2,0.1-0.3,0.1-0.5c0.9-2.3,1.6-5.7,2-10.3l0.7-7.4c0-0.4,0.2-0.7,0.5-1s0.6-0.4,1-0.4h5.2
			c0.4,0,0.7,0.1,0.9,0.4c0.2,0.3,0.4,0.6,0.3,1l-0.4,5v0.1h0.1c0.6-0.5,1.1-1.1,1.3-1.8s0.4-1.3,0.5-2.1l0.1-1.3
			c0-0.4,0.2-0.7,0.5-1s0.6-0.4,1-0.4h5.9c0.4,0,0.7,0.1,0.9,0.4c0.2,0.3,0.3,0.6,0.3,1l-0.3,3.6c0,0.4,0,0.6,0,0.7
			c0,0.1,0.1,0.1,0.1,0.1h0.2c0.1,0,0.2-0.1,0.2-0.2c0.1-0.1,0.1-0.4,0.2-0.9c0.1-0.3,0.2-0.5,0.5-0.7c0.1-0.1,0.3-0.1,0.4-0.1
			s0.3,0,0.4,0.1c0.1,0,0.2,0.1,0.3,0.1c0.4,0.2,0.7,0.4,0.9,0.7c0.1,0.2,0.2,0.5,0.2,0.8c0,0.1,0,0.2,0,0.3c-0.3,1-0.6,1.8-1.1,2.2
			c-0.4,0.4-1,0.6-1.8,0.6h-1.2c-1.1,0-1.8-0.3-2.1-0.8c-0.4-0.5-0.5-1.5-0.3-2.9l0.1-1.7c0-0.1,0-0.2-0.2-0.2h-1.7
			c-0.1,0-0.2,0.1-0.2,0.2c-0.3,2.2-1,3.8-2.2,5.1c-0.3,0.3-0.6,0.4-0.9,0.4h-0.1c-0.4,0-0.7-0.2-1-0.4c-0.3-0.3-0.6-0.5-0.8-0.8
			h-0.1c0,0-0.1,0-0.1,0.1l-0.9,10.8v0.4v0.1h0.1c1.3-0.4,2.6-1,3.6-1.6c0.1-0.1,0.1-0.2,0.1-0.2c-0.6-0.8-1.1-1.6-1.6-2.4
			c-0.1-0.2-0.1-0.4-0.1-0.6c0-0.1,0-0.2,0.1-0.4c0.2-0.3,0.4-0.6,0.8-0.7l1.4-0.5l0,0l0,0H250c-0.4,0-0.7-0.1-0.9-0.4
			c-0.2-0.3-0.3-0.6-0.3-1v-0.4c0-0.4,0.2-0.7,0.5-1s0.6-0.4,1-0.4h7.4C257.5,207.4,257.5,207.4,257.6,207.4z M243,208.6
			c0,0.1,0,0.2,0.2,0.2h1.2c0.1,0,0.2-0.1,0.2-0.2l0.2-1.8c0-0.1,0-0.2-0.2-0.2h-1.2c-0.1,0-0.2,0.1-0.2,0.2v0.1
			C243.1,207.7,243,208.2,243,208.6z M245.2,201.6c0-0.1,0-0.2-0.2-0.2h-1.2c-0.1,0-0.2,0.1-0.2,0.2l-0.1,1.7c0,0.1,0,0.2,0.2,0.2
			h1.2c0.1,0,0.2-0.1,0.2-0.2L245.2,201.6z M255.5,210.7C255.6,210.7,255.6,210.7,255.5,210.7c0-0.1,0-0.1-0.1-0.1h-3.1h-0.1v0.1
			c0.4,0.8,0.9,1.5,1.5,2.2c0.1,0.1,0.2,0.1,0.2,0C254.5,212.2,255.1,211.5,255.5,210.7z"/>
		<path class="st11" d="M87.7,235.4c0.1,0,0.2,0,0.3,0c0.2,0,0.4,0.1,0.6,0.2l0.6,0.4c0.3,0.2,0.5,0.4,0.6,0.8c0,0.1,0,0.3,0,0.4
			c0,0.2-0.1,0.4-0.2,0.5c-1,1.8-2.2,3.4-3.6,4.8c-0.1,0.1-0.1,0.2,0,0.2c1,0.8,2.2,1.4,3.4,1.9c0.3,0.1,0.5,0.3,0.5,0.6
			c0,0.1,0,0.2,0,0.3c0,0.2-0.1,0.4-0.3,0.6c-0.2,0.2-0.4,0.4-0.6,0.7c-0.3,0.3-0.6,0.5-1,0.7c-0.2,0.1-0.3,0.1-0.5,0.1
			s-0.4-0.1-0.6-0.2c-1.3-0.7-2.5-1.5-3.6-2.4c-0.1-0.1-0.2-0.1-0.3,0c-1.2,0.9-2.6,1.7-4.1,2.4c-0.2,0.1-0.4,0.1-0.6,0.1
			s-0.3,0-0.5-0.1c-0.4-0.1-0.6-0.4-0.9-0.7c0,0,0-0.1-0.1-0.1c-0.1-0.1-0.2-0.1-0.3-0.1l-1.1,0.5c-0.2,0.1-0.4,0.1-0.7,0
			s-0.3-0.3-0.4-0.5c0-0.1-0.1-0.1-0.1-0.1h-0.5c-0.1,0-0.2,0.1-0.2,0.2l-0.1,1.4v0.1h0.1l0.6-0.2c0.2,0,0.3-0.1,0.5-0.1
			s0.4,0,0.6,0.1c0.3,0.2,0.6,0.4,0.7,0.8c0.2,0.6,0.3,1.2,0.5,1.8c0,0.2,0,0.3,0,0.4c0,0.2-0.1,0.4-0.2,0.6
			c-0.2,0.3-0.5,0.6-0.9,0.7c-0.1,0.1-0.3,0.1-0.4,0.1c-0.2,0-0.4-0.1-0.5-0.2c-0.3-0.2-0.5-0.4-0.6-0.8c-0.1-0.5-0.2-1.2-0.4-1.9
			l0,0l0,0l-0.5,5.2c0,0.4-0.2,0.7-0.5,1s-0.6,0.4-1,0.4h-0.3c-0.4,0-0.7-0.1-0.9-0.4c-0.2-0.3-0.4-0.6-0.3-1l0.5-5.4l0,0l0,0
			c-0.3,1.4-0.7,2.7-1.1,3.8c-0.1,0.3-0.4,0.6-0.7,0.7c-0.2,0.1-0.3,0.1-0.5,0.1s-0.4,0-0.5-0.1c0,0-0.1,0-0.1-0.1
			c-0.3-0.2-0.6-0.4-0.7-0.8c-0.1-0.2-0.1-0.4-0.1-0.7c0-0.1,0-0.3,0.1-0.4c0.3-0.8,0.5-1.8,0.8-2.9c0.1-0.4,0.3-0.7,0.6-0.9
			c0.2-0.2,0.5-0.3,0.8-0.3c0.1,0,0.1,0,0.2,0l1.2,0.2c0.1,0,0.2,0,0.2-0.1l0.1-1.2c0-0.1,0-0.2-0.1-0.2l-1.8,0.1h-0.1
			c-0.3,0-0.6-0.1-0.9-0.3s-0.4-0.6-0.4-1v-0.2v-0.1c0-0.3,0.2-0.6,0.4-0.8c0.3-0.3,0.6-0.4,1-0.4h0.3c0.1,0,0.2,0,0.3-0.1
			c0.2-0.3,0.5-0.6,0.7-0.9c0.1-0.1,0.1-0.2,0-0.3c-0.4-0.6-0.9-1.3-1.5-2c-0.2-0.3-0.4-0.6-0.4-1c0-0.1,0-0.1,0-0.2
			c0-0.3,0.2-0.7,0.4-0.9l0.6-0.8c0.1-0.1,0.2-0.2,0.3-0.2c0.1,0,0.3,0,0.3,0.1h0.1c0.5-0.9,1-1.8,1.4-2.7c0.2-0.3,0.4-0.6,0.7-0.8
			c0.2-0.1,0.4-0.1,0.6-0.1s0.3,0,0.4,0.1l0.4,0.1c0.3,0.1,0.5,0.4,0.6,0.7c0,0.2,0.1,0.3,0.1,0.4c0,0.2-0.1,0.4-0.2,0.6
			c-1,1.6-1.7,2.7-2.3,3.5c-0.1,0.1-0.1,0.2,0,0.3s0.1,0.2,0.2,0.3h0.1H72c0.5-0.8,1-1.6,1.5-2.3c0.2-0.3,0.5-0.6,0.9-0.7
			c0.2-0.1,0.3-0.1,0.5-0.1s0.4,0,0.6,0.1l0.3,0.1c0.3,0.2,0.5,0.4,0.6,0.8c0,0.1,0,0.2,0,0.4s-0.1,0.4-0.3,0.6
			c-0.8,1.1-1.6,2.1-2.4,3.1c0,0,0,0,0,0.1c0,0,0,0,0.1,0l0.4-0.2c0.2-0.1,0.4-0.1,0.6-0.1s0.3,0,0.5,0.1c0.4,0.1,0.6,0.4,0.7,0.7
			c0.3,0.8,0.6,1.5,0.7,2.2c0,0.1,0.1,0.1,0.2,0.1c1.4-0.5,2.6-1.2,3.9-2c0.1-0.1,0.1-0.1,0-0.2c-0.3-0.4-0.7-0.9-1.1-1.6
			c-0.1-0.1-0.1-0.1-0.2,0c-0.3,0.3-0.6,0.5-0.8,0.8c-0.3,0.2-0.6,0.4-0.9,0.4h-0.1c-0.4,0-0.7-0.2-0.9-0.5
			c-0.1-0.1-0.2-0.2-0.4-0.4c-0.2-0.2-0.3-0.5-0.3-0.9c0-0.3,0.2-0.6,0.4-0.8c1.6-1.3,2.9-2.9,4-4.8c0.2-0.4,0.5-0.6,0.9-0.8
			c0.3-0.2,0.6-0.2,0.8-0.2c0.1,0,0.2,0,0.3,0l0.6,0.1c0.3,0.1,0.6,0.2,0.7,0.6c0.1,0.2,0.1,0.3,0.1,0.5s-0.1,0.3-0.2,0.5
			c0,0-0.1,0.1-0.1,0.2v0.1c0,0,0,0.1,0.1,0.1h3.4C87.6,235.4,87.7,235.4,87.7,235.4z M72.5,243.4C72.4,243.5,72.4,243.5,72.5,243.4
			c0,0.1,0,0.1,0.1,0.1h1.3c0,0,0.1,0,0.1-0.1v-0.1c-0.2-0.6-0.3-0.9-0.3-1c0,0,0-0.1-0.1-0.1h-0.1
			C73.2,242.5,72.9,242.9,72.5,243.4z M78.3,252.9c-0.3-0.1-0.5-0.3-0.6-0.6c0-0.1,0-0.2,0-0.3c0-0.2,0.1-0.4,0.3-0.6l0.3-0.3
			c0.3-0.3,0.6-0.6,1.1-0.7c0.2-0.1,0.4-0.1,0.6-0.1s0.4,0,0.6,0.1c2.1,0.7,4.1,1.5,6.2,2.5c0.3,0.2,0.5,0.4,0.5,0.8
			c0,0.1,0,0.2,0,0.3c0,0.2-0.1,0.5-0.3,0.7l-0.4,0.5c-0.3,0.3-0.6,0.5-1,0.6c-0.1,0-0.2,0-0.3,0c-0.3,0-0.5-0.1-0.7-0.2
			C82.7,254.6,80.6,253.7,78.3,252.9z M81.2,248.9c-0.3-0.1-0.5-0.4-0.5-0.7c0-0.1,0-0.2,0-0.3c0-0.2,0.1-0.4,0.3-0.6l0.1-0.1
			c0.3-0.3,0.7-0.5,1.1-0.6c0.1,0,0.3,0,0.4,0c0.2,0,0.5,0,0.7,0.1c0.9,0.4,1.7,0.9,2.5,1.3c0.3,0.2,0.5,0.5,0.5,0.8
			c0,0.1,0,0.1,0,0.2c0,0.3-0.1,0.5-0.3,0.8l-0.2,0.3c-0.3,0.3-0.6,0.5-1,0.5c-0.1,0-0.1,0-0.2,0c-0.3,0-0.6-0.1-0.8-0.3
			C82.9,249.8,82,249.3,81.2,248.9z M85.4,238.5C85.4,238.5,85.4,238.4,85.4,238.5c0-0.1,0-0.1-0.1-0.1h-3h-0.1v0.1
			c0.4,0.6,0.8,1.2,1.3,1.8c0.1,0.1,0.2,0.1,0.3,0C84.4,239.8,84.9,239.2,85.4,238.5z"/>
		<path class="st11" d="M110.5,240.5c0.2-0.2,0.4-0.4,0.7-0.5c0.1,0,0.2,0,0.3,0c0.2,0,0.3,0,0.5,0.1l1.2,0.6
			c0.3,0.2,0.5,0.4,0.6,0.8c0,0.1,0,0.2,0,0.3c0,0.2-0.1,0.5-0.3,0.7c-1,1.3-2.2,2.6-3.5,3.8c-0.1,0.1-0.1,0.2-0.1,0.3l-0.4,5
			c-0.1,1-0.3,1.7-0.5,2.2s-0.7,0.9-1.3,1.2c-0.6,0.3-1.2,0.4-1.9,0.5c-0.5,0-1,0.1-1.7,0.1l0,0c-0.4,0-0.7-0.1-1-0.4
			c-0.3-0.3-0.5-0.6-0.5-1c-0.1-0.7-0.4-1.4-0.6-2.1c-0.1-0.1-0.1-0.1-0.2-0.1c-2.3,1.2-4.7,2.1-7.2,3c-0.2,0.1-0.4,0.1-0.5,0.1
			c-0.2,0-0.4,0-0.6-0.1c-0.4-0.1-0.6-0.4-0.9-0.7s-0.4-0.7-0.6-1c-0.1-0.2-0.2-0.4-0.1-0.5c0-0.1,0-0.2,0.1-0.3
			c0.1-0.3,0.3-0.5,0.6-0.6c2.7-0.7,5.1-1.6,7.3-2.7l0,0l0,0c-2.9,0.2-4.9,0.4-6.2,0.4h-0.1c-0.3,0-0.6-0.1-0.9-0.3
			s-0.4-0.6-0.5-0.9l-0.1-0.7c0-0.1,0-0.1,0-0.2c0-0.3,0.1-0.5,0.3-0.8c0.3-0.3,0.6-0.4,1-0.4c0.5,0,1.2,0,1.9-0.1
			c0.1,0,0.2-0.1,0.2-0.2l0.8-9.5c0-0.4,0.2-0.7,0.5-1s0.6-0.4,1-0.4h3.5c0.1,0,0.2-0.1,0.2-0.2c0.1-0.3,0.2-0.6,0.3-0.8
			c0.1-0.4,0.4-0.7,0.7-0.9c0.3-0.2,0.6-0.3,0.9-0.3c0,0,0.1,0,0.2,0l1.6,0.1c0.3,0,0.6,0.2,0.7,0.5c0.1,0.1,0.1,0.3,0.1,0.4
			c0,0.1-0.1,0.3-0.2,0.4c-0.1,0.2-0.2,0.3-0.3,0.5v0.1c0,0,0,0,0.1,0h4.1c0.4,0,0.7,0.1,0.9,0.4c0.2,0.3,0.4,0.6,0.3,1L110.5,240.5
			C110.4,240.5,110.4,240.5,110.5,240.5L110.5,240.5z M99.1,244.8c-0.1,0-0.2,0.1-0.2,0.2l-0.1,0.8c0,0.1,0,0.2,0.1,0.2
			c0.7,0,1.7-0.1,3-0.2c1.4-0.1,2.5-0.1,3.3-0.2c0.1,0,0.2,0,0.3-0.1c0.1-0.1,0.4-0.3,0.8-0.6l0,0l0,0L99.1,244.8L99.1,244.8z
			 M106.5,242.3c0.1,0,0.2-0.1,0.2-0.2l0.1-0.7c0-0.1,0-0.2-0.2-0.2h-7.1c-0.1,0-0.2,0.1-0.2,0.2l-0.1,0.7c0,0.1,0,0.2,0.1,0.2
			H106.5z M107,238.1c0-0.1,0-0.2-0.2-0.2h-7.1c-0.1,0-0.2,0.1-0.2,0.2v0.6c0,0.1,0,0.2,0.1,0.2h7.1c0.1,0,0.2-0.1,0.2-0.2
			L107,238.1z M105.9,251.4l0.2-1.8v-0.1H106c-1.2,0.8-2.5,1.6-3.9,2.3c0,0,0,0,0,0.1c0,0,0,0,0.1,0.1c0.6,0,1.7,0,3.2,0
			C105.6,251.9,105.8,251.7,105.9,251.4z"/>
		<path class="st11" d="M132.3,254.6c-1.9,2.4-4.3,3.6-7.2,3.6s-5.1-1.2-6.6-3.6s-2-5.9-1.7-10.3s1.5-7.9,3.4-10.2s4.3-3.5,7.2-3.5
			s5.1,1.2,6.6,3.5s2.1,5.7,1.7,10.2C135.4,248.7,134.2,252.2,132.3,254.6z M124.2,252.9c0.4,0.3,0.8,0.4,1.3,0.4s1-0.1,1.4-0.4
			c0.4-0.3,0.8-0.7,1.2-1.4c0.4-0.6,0.7-1.6,1-2.8s0.5-2.7,0.7-4.5s0.2-3.2,0.1-4.4c-0.1-1.2-0.2-2.1-0.5-2.7c-0.3-0.6-0.6-1-1-1.3
			c-0.4-0.2-0.8-0.4-1.3-0.4s-1,0.1-1.4,0.4c-0.4,0.2-0.8,0.7-1.2,1.3c-0.4,0.6-0.7,1.5-1,2.7s-0.5,2.7-0.7,4.4
			c-0.2,1.8-0.2,3.3-0.1,4.5s0.2,2.1,0.5,2.8C123.5,252.2,123.8,252.6,124.2,252.9z"/>
		<path class="st11" d="M160.4,245c0.4,0,0.7,0.1,0.9,0.4c0.2,0.3,0.4,0.6,0.3,1l-0.1,0.6c0,0.4-0.2,0.7-0.5,1s-0.6,0.4-1,0.4h-7.7
			c-0.1,0-0.2,0.1-0.2,0.2l-0.3,2.9c-0.1,1-0.3,1.7-0.6,2.2s-0.8,0.9-1.5,1.2c-0.8,0.3-2.2,0.5-4.2,0.6l0,0c-0.4,0-0.7-0.1-1-0.4
			c-0.3-0.2-0.5-0.5-0.6-0.9c-0.1-0.3-0.2-0.6-0.3-0.9c-0.1-0.1-0.1-0.2-0.1-0.4s0.1-0.3,0.2-0.4c0.2-0.2,0.4-0.4,0.7-0.4l0,0
			c0.8,0,1.8,0,2.9,0c0.5,0,0.8-0.2,0.8-0.7l0.2-2.9c0-0.1,0-0.2-0.2-0.2h-7.8c-0.4,0-0.7-0.1-0.9-0.4s-0.4-0.6-0.3-1l0.1-0.6
			c0-0.4,0.2-0.7,0.5-1s0.6-0.4,1-0.4h7.8c0.1,0,0.2-0.1,0.2-0.2l0.2-1.9c0-0.1,0-0.2-0.2-0.2h-6.1c-0.4,0-0.7-0.1-0.9-0.4
			c-0.2-0.3-0.4-0.6-0.3-1l0.1-0.6c0-0.4,0.2-0.7,0.5-1s0.6-0.4,1-0.4h6.1c0.1,0,0.2-0.1,0.2-0.2l0.2-2c0-0.1,0-0.2-0.1-0.2
			c-1.7,0.1-3.6,0.2-5.6,0.3c0,0,0,0-0.1,0c-0.4,0-0.7-0.1-0.9-0.4c-0.3-0.2-0.5-0.6-0.5-1c0-0.1-0.1-0.3-0.1-0.4
			c0-0.1-0.1-0.2,0-0.3c0-0.2,0.1-0.4,0.2-0.6c0.2-0.3,0.5-0.4,0.8-0.4c5.5-0.2,10.1-0.8,13.7-1.5c0.2,0,0.3,0,0.5,0s0.5,0,0.7,0.1
			c0.4,0.1,0.7,0.4,1,0.7l0.6,0.8c0.1,0.2,0.2,0.4,0.2,0.5s0,0.2-0.1,0.3c-0.1,0.3-0.3,0.5-0.6,0.5c-1.8,0.4-3.7,0.7-5.8,0.9
			c-0.1,0-0.2,0.1-0.2,0.2l-0.2,2.3c0,0.1,0,0.2,0.2,0.2h6.3c0.4,0,0.7,0.1,0.9,0.4c0.2,0.3,0.4,0.6,0.3,1l-0.1,0.6
			c0,0.4-0.2,0.7-0.5,1s-0.6,0.4-1,0.4h-6.3c-0.1,0-0.2,0.1-0.2,0.2l-0.2,1.9c0,0.1,0,0.2,0.2,0.2h7.8L160.4,245L160.4,245z"/>
		<path class="st11" d="M171.5,250.1c0,0.1,0,0.2,0,0.4s-0.1,0.4-0.2,0.6c-0.2,0.3-0.5,0.5-0.8,0.6c-0.1,0-0.2,0.1-0.4,0.1
			s-0.3,0-0.5-0.1c-0.3-0.2-0.4-0.4-0.5-0.7c-0.1-0.5-0.2-1-0.3-1.6l0,0l0,0l-0.5,5.4c0,0.4-0.2,0.7-0.5,1s-0.6,0.4-1,0.4h-0.1
			c-0.4,0-0.7-0.1-0.9-0.4c-0.2-0.3-0.3-0.6-0.3-1l0.5-5.2l0,0c-0.3,1.3-0.6,2.5-1,3.5c-0.1,0.3-0.4,0.6-0.7,0.7
			c-0.2,0-0.3,0.1-0.5,0.1s-0.4,0-0.5-0.1c-0.3-0.2-0.5-0.4-0.7-0.8c-0.1-0.2-0.1-0.4-0.1-0.6c0-0.1,0-0.3,0.1-0.4
			c0.3-0.8,0.5-1.8,0.8-2.9c0.1-0.4,0.3-0.7,0.6-0.9c0.2-0.2,0.5-0.3,0.8-0.3c0.1,0,0.1,0,0.2,0l1,0.2c0.1,0,0.2,0,0.2-0.1l0.1-1.1
			c0-0.1,0-0.2-0.2-0.2l-1.3,0.1h-0.1c-0.3,0-0.6-0.1-0.9-0.3c-0.3-0.2-0.4-0.6-0.4-1v-0.1c0-0.1,0-0.1,0-0.2c0-0.3,0.2-0.6,0.4-0.8
			c0.3-0.3,0.6-0.5,1-0.5h0.1c0.1,0,0.2,0,0.3-0.1c0.3-0.4,0.6-0.7,0.8-1.1c0.1-0.1,0.1-0.2,0-0.3c-0.3-0.6-0.8-1.3-1.4-2.1
			c-0.3-0.3-0.4-0.7-0.3-1.2c0-0.4,0.2-0.7,0.4-1l0.7-0.9c0.1-0.1,0.2-0.1,0.3-0.1s0.2,0,0.3,0.1l0,0c0.5-0.9,0.9-1.7,1.3-2.5
			c0.2-0.4,0.4-0.6,0.8-0.8c0.2-0.1,0.4-0.2,0.6-0.2c0.1,0,0.3,0,0.4,0.1l0.3,0.1c0.3,0.1,0.5,0.3,0.6,0.7c0,0.1,0.1,0.3,0.1,0.4
			c0,0.2-0.1,0.4-0.2,0.5c-1,1.6-1.7,2.7-2.3,3.5c-0.1,0.1-0.1,0.2,0,0.3c0,0,0,0.1,0.1,0.1c0,0.1,0.1,0.1,0.1,0.2h0.1
			c0,0,0.1,0,0.1-0.1c0.5-0.7,0.9-1.4,1.3-2.1c0.2-0.3,0.5-0.6,0.8-0.7c0.2-0.1,0.4-0.1,0.5-0.1c0.2,0,0.3,0,0.5,0.1l0.2,0.1
			c0.3,0.1,0.5,0.4,0.6,0.7c0,0.1,0,0.2,0,0.4s-0.1,0.4-0.2,0.6c-0.7,1-1.4,2-2.2,3c0,0,0,0,0,0.1c0,0,0,0,0.1,0h0.1
			c0.2-0.1,0.3-0.1,0.5-0.1s0.4,0,0.6,0.1c0.3,0.1,0.6,0.4,0.7,0.8c0.3,1,0.5,1.9,0.7,2.7c0,0.1,0,0.2,0,0.3c0,0.3-0.1,0.5-0.3,0.7
			c-0.2,0.3-0.5,0.6-0.9,0.7l-0.4,0.2c-0.2,0.1-0.4,0-0.6-0.1c-0.2-0.1-0.3-0.3-0.3-0.5c0-0.1,0-0.1-0.1-0.1h-0.3
			c-0.1,0-0.2,0.1-0.2,0.2l-0.1,1.3v0.1h0.1l0.5-0.1c0.1,0,0.3,0,0.4,0c0.2,0,0.4,0.1,0.6,0.2c0.3,0.2,0.5,0.4,0.6,0.8
			C171.4,249.2,171.5,249.6,171.5,250.1z M167.9,243.5C167.8,243.6,167.8,243.6,167.9,243.5c0,0.1,0,0.1,0.1,0.1l1.2-0.1
			c0.1,0,0.2-0.1,0.1-0.2c0-0.1-0.1-0.2-0.1-0.5c-0.1-0.2-0.1-0.4-0.1-0.5c0,0,0-0.1-0.1-0.1s-0.1,0-0.1,0
			C168.3,243,168,243.4,167.9,243.5z M184,251.3c0,0.4-0.2,0.7-0.5,1s-0.6,0.4-1,0.4h-0.1l0,0l0,0c1,0.5,1.6,0.8,1.9,1
			c0.3,0.1,0.4,0.4,0.4,0.7s-0.2,0.5-0.4,0.7l-0.6,0.3c-0.4,0.2-0.8,0.3-1.2,0.3l0,0c-0.4,0-0.8-0.1-1.1-0.3
			c-0.6-0.4-1.2-0.7-1.8-1.1c-0.3-0.2-0.5-0.4-0.4-0.8c0-0.3,0.2-0.5,0.4-0.7l0,0v-0.1c0,0,0,0-0.1,0h-3.1h-0.1c0,0,0,0,0,0.1
			l0.1,0.1c0.2,0.2,0.3,0.4,0.3,0.7c0,0.4-0.2,0.6-0.5,0.8c-1,0.5-2,0.9-3.1,1.3c-0.2,0.1-0.5,0.1-0.7,0.1s-0.4,0-0.5-0.1
			c-0.4-0.1-0.7-0.3-1-0.6c0,0,0-0.1-0.1-0.1c-0.2-0.2-0.3-0.3-0.2-0.6c0,0,0-0.1,0-0.2c0.1-0.3,0.3-0.5,0.5-0.6
			c0.9-0.3,1.7-0.6,2.4-0.9l0,0l0,0c-0.3,0-0.6-0.1-0.8-0.4c-0.2-0.2-0.3-0.5-0.3-0.8l0.4-5c0-0.4,0.2-0.7,0.5-1s0.6-0.4,1-0.4h8.7
			c0.4,0,0.7,0.1,0.9,0.4c0.2,0.3,0.4,0.6,0.3,1L184,251.3z M173.6,244.6c-0.4,0-0.7-0.1-0.9-0.4s-0.3-0.6-0.3-1l0.2-2.3
			c0-0.4,0.2-0.7,0.5-1s0.6-0.4,1-0.4h10.5c0.4,0,0.7,0.1,0.9,0.4c0.2,0.3,0.4,0.6,0.3,1l-0.2,2.3c0,0.4-0.2,0.7-0.5,1
			s-0.6,0.4-1,0.4H173.6z M177.4,237c0.1,0,0.2-0.1,0.2-0.2v-0.2c0-0.1,0-0.2-0.1-0.2h-3.9c-0.3,0-0.5-0.1-0.7-0.3s-0.3-0.4-0.2-0.7
			c0-0.3,0.1-0.5,0.4-0.7c0.2-0.2,0.5-0.3,0.8-0.3h4c0.1,0,0.1,0,0.1-0.1c0-0.3,0.1-0.5,0.4-0.7c0.2-0.2,0.5-0.3,0.8-0.3h1.4
			c0.3,0,0.5,0.1,0.7,0.3s0.3,0.4,0.2,0.7c0,0.1,0,0.1,0.1,0.1h4.3c0.3,0,0.5,0.1,0.7,0.3s0.3,0.4,0.2,0.7c0,0.3-0.1,0.5-0.4,0.7
			c-0.2,0.2-0.5,0.3-0.7,0.3h-4.2c-0.1,0-0.2,0.1-0.2,0.2v0.2c0,0.1,0,0.2,0.1,0.2h3.3c0.3,0,0.5,0.1,0.7,0.3s0.2,0.4,0.2,0.7
			s-0.1,0.5-0.3,0.7s-0.4,0.3-0.7,0.3h-9.9c-0.3,0-0.5-0.1-0.7-0.3s-0.2-0.4-0.2-0.7s0.1-0.5,0.3-0.7s0.4-0.3,0.7-0.3H177.4z
			 M175.1,242L175.1,242c-0.1,0-0.1,0-0.1,0.1l-0.1,0.7c0,0.1,0,0.2,0.2,0.2h0.5h0.1v-0.1C175.6,242.5,175.4,242.3,175.1,242z
			 M176.5,241.2L176.5,241.2c0-0.1,0-0.1-0.1-0.1h-1.2c-0.1,0-0.2,0.1-0.2,0.2v0.4c0,0.1,0,0.2,0.2,0.1
			C175.8,241.6,176.2,241.5,176.5,241.2z M175.7,250.5c-0.1,0-0.2,0.1-0.2,0.2v0.3c0,0.1,0,0.2,0.2,0.2h5c0.1,0,0.2-0.1,0.2-0.2
			v-0.3c0-0.1,0-0.2-0.2-0.2H175.7z M175.9,248.6c-0.1,0-0.2,0.1-0.2,0.2v0.3c0,0.1,0,0.2,0.2,0.2h5c0.1,0,0.2-0.1,0.2-0.2v-0.3
			c0-0.1,0-0.2-0.2-0.2H175.9z M176,246.7c-0.1,0-0.2,0.1-0.2,0.2v0.2c0,0.1,0,0.2,0.2,0.2h5c0.1,0,0.2-0.1,0.2-0.2v-0.2
			c0-0.1,0-0.2-0.2-0.2H176z M176.2,242.9C176.2,242.9,176.2,243,176.2,242.9C176.2,243,176.2,243,176.2,242.9h6.4
			c0.1,0,0.2-0.1,0.2-0.2l0,0c0-0.1,0-0.2-0.1-0.2h-1.1c-0.9,0-1.4-0.1-1.7-0.3s-0.4-0.5-0.4-1.1c0-0.1-0.1-0.2-0.2-0.2h-0.4
			c-0.1,0-0.2,0.1-0.2,0.2c-0.2,0.4-0.5,0.8-0.8,1C177.4,242.6,176.9,242.8,176.2,242.9z M182.8,241.5c0.1,0,0.2-0.1,0.2-0.2l0,0
			c0-0.1,0-0.2-0.1-0.2H182c-0.1,0-0.2,0.1-0.2,0.2c0,0.1,0.1,0.2,0.3,0.2H182.8z"/>
		<path class="st11" d="M206.4,250.9c0,0.4-0.2,0.7-0.5,1s-0.6,0.4-1,0.4h-1.2l0,0l0,0c1.5,0.5,2.8,1,4,1.5c0.2,0.1,0.3,0.3,0.3,0.5
			s-0.2,0.4-0.4,0.5l-1.4,0.6c-0.4,0.2-0.8,0.2-1.1,0.2c-0.5,0-0.9-0.1-1.4-0.4c-1.1-0.5-2.2-1-3.5-1.5c-0.2-0.1-0.4-0.3-0.4-0.6
			s0.1-0.5,0.4-0.6l0.5-0.3l0,0c0,0,0,0-0.1,0h-5.3l0,0l0,0l0.4,0.2c0.3,0.1,0.4,0.3,0.4,0.7c0,0.3-0.2,0.5-0.4,0.6
			c-1.5,0.7-3.3,1.4-5.2,1.9c-0.2,0-0.4,0.1-0.6,0.1s-0.4,0-0.6-0.1c-0.4-0.1-0.7-0.3-1-0.6c-0.2-0.2-0.3-0.4-0.5-0.6
			c-0.2-0.2-0.2-0.4-0.1-0.7s0.3-0.4,0.6-0.5c1.6-0.3,2.9-0.6,4.2-1l0,0l0,0h-0.9c-0.4,0-0.7-0.1-0.9-0.4c-0.2-0.3-0.4-0.6-0.3-1
			l0.5-5.4c0-0.1,0-0.2-0.2-0.1l0,0c-0.1,0-0.2,0-0.3,0c-0.3,0-0.5-0.1-0.8-0.2c-0.4-0.2-0.6-0.5-0.8-0.8c-0.1-0.1-0.1-0.2-0.2-0.3
			c-0.1-0.2-0.1-0.3-0.1-0.4c0-0.1,0.1-0.2,0.1-0.4c0.1-0.3,0.4-0.4,0.7-0.5c1.9-0.3,3.3-0.7,4.2-1.2c0,0,0,0,0-0.1c0,0,0,0-0.1,0
			h-1.2l0,0c-0.1,0.1-0.1,0.1-0.2,0.1l-1.6-0.1c-0.3,0-0.6-0.2-0.8-0.4c-0.1-0.2-0.1-0.4-0.1-0.5s0-0.2,0.1-0.4
			c0.3-0.6,0.6-1.3,0.9-2c0.1-0.4,0.4-0.7,0.7-1s0.7-0.4,1.1-0.4h2.9c0.1,0,0.2-0.1,0.2-0.2v-0.4c0-0.1,0-0.2-0.2-0.2h-4.1
			c-0.3,0-0.5-0.1-0.7-0.3s-0.3-0.4-0.2-0.7c0-0.3,0.1-0.5,0.4-0.7c0.2-0.2,0.5-0.3,0.7-0.3h4.2c0.1,0,0.1,0,0.1-0.1
			c0-0.2,0.1-0.4,0.3-0.6c0.2-0.2,0.4-0.2,0.6-0.2h1.5c0.2,0,0.4,0.1,0.6,0.2c0.1,0.2,0.2,0.4,0.2,0.6c0,0.1,0,0.1,0.1,0.1h1.9
			c0.1,0,0.1,0,0.1-0.1c0-0.2,0.1-0.4,0.3-0.6c0.2-0.2,0.4-0.2,0.6-0.2h1.7c0.2,0,0.4,0.1,0.5,0.2c0.1,0.2,0.2,0.4,0.2,0.6
			c0,0.1,0,0.1,0.1,0.1h3.5c0.4,0,0.7,0.1,0.9,0.4c0.2,0.3,0.3,0.6,0.3,1l-0.2,1.9c0,0.4-0.2,0.7-0.5,1s-0.6,0.4-1,0.4h-3.4
			c-0.1,0-0.2,0.1-0.2,0.2v0.4c0,0.1,0,0.2,0.2,0.2h5c0.4,0,0.7,0.1,0.9,0.4c0.2,0.2,0.3,0.5,0.3,0.9c-0.1,1.2-0.4,2.1-0.9,2.6
			c-0.4,0.4-0.9,0.6-1.6,0.7h-0.1c-0.1,0-0.2,0.1-0.2,0.2L206.4,250.9z M193.2,238.8c-0.1,0-0.2,0.1-0.2,0.2l-0.2,0.4v0.1l0.1,0.1
			h1.7c0.1,0,0.2-0.1,0.2-0.2c0-0.1,0-0.2,0.1-0.4c0-0.1,0-0.2-0.1-0.2L193.2,238.8L193.2,238.8z M203,249.9c0-0.1,0-0.2-0.2-0.2h-9
			c-0.1,0-0.2,0.1-0.2,0.2v0.4c0,0.1,0,0.2,0.2,0.2h9c0.1,0,0.2-0.1,0.2-0.2V249.9z M203.2,247.5c0-0.1,0-0.2-0.2-0.2h-9
			c-0.1,0-0.2,0.1-0.2,0.2v0.3c0,0.1,0,0.2,0.2,0.2h9c0.1,0,0.2-0.1,0.2-0.2V247.5z M203.4,245c0-0.1,0-0.2-0.2-0.2h-9
			c-0.1,0-0.2,0.1-0.2,0.2v0.3c0,0.1,0,0.2,0.2,0.2h9c0.1,0,0.2-0.1,0.2-0.2V245z M199.9,241.7c0-0.1,0-0.2-0.1-0.2h-2.2
			c-0.1,0-0.2,0.1-0.3,0.2c-0.2,0.4-0.5,0.8-0.8,1.1c0,0,0,0,0,0.1c0,0,0,0,0.1,0h3.1c0.1,0,0.2-0.1,0.2-0.2V241.7z M199.9,239.5
			c0.1,0,0.2-0.1,0.2-0.2v-0.4c0-0.1,0-0.2-0.1-0.2h-1.8c-0.1,0-0.2,0.1-0.2,0.2c0,0,0,0.1,0,0.2c0,0.1,0,0.1,0,0.2
			c0,0.1,0,0.2,0.1,0.2H199.9z M198.4,236.1c-0.1,0-0.2,0.1-0.2,0.2v0.4c0,0.1,0,0.2,0.2,0.2h1.8c0.1,0,0.2-0.1,0.2-0.2v-0.4
			c0-0.1,0-0.2-0.1-0.2H198.4z M206.3,241.7v-0.1h-0.1h-2.8c-0.1,0-0.2,0.1-0.2,0.2l-0.1,1.1c0,0.1,0,0.2,0.2,0.2h1.4
			c0.1,0,0.1,0,0.1-0.1c0-0.2,0-0.3,0.1-0.5c0.1-0.1,0.3-0.2,0.5-0.2c0.1,0,0.2,0,0.3,0c0.2,0,0.3,0,0.4,0c0.1,0,0.2-0.1,0.2-0.3
			C206.3,241.8,206.3,241.7,206.3,241.7z M205.5,236.3c0-0.1,0-0.2-0.1-0.2h-1.5c-0.1,0-0.2,0.1-0.2,0.2v0.4c0,0.1,0,0.2,0.2,0.2
			h1.5c0.1,0,0.2-0.1,0.2-0.2L205.5,236.3z"/>
		<path class="st11" d="M215.8,234.6c0.2-0.4,0.4-0.6,0.8-0.8c0.2-0.1,0.5-0.2,0.7-0.2c0.1,0,0.3,0,0.4,0l0.5,0.2
			c0.4,0.1,0.6,0.3,0.8,0.7c0.1,0.2,0.1,0.4,0.1,0.6c0,0.2,0,0.3-0.1,0.4c-0.5,1.1-1,2.2-1.6,3.2c-0.1,0.1-0.1,0.2-0.1,0.4
			l-1.4,15.6c0,0.4-0.2,0.7-0.5,1s-0.6,0.4-1,0.4h-0.5c-0.4,0-0.7-0.1-0.9-0.4c-0.2-0.3-0.3-0.6-0.3-1l0.8-9.7v-0.1h-0.1
			c0,0,0,0.1-0.1,0.1c-0.2,0.2-0.4,0.3-0.6,0.3h-0.1c-0.3,0-0.5-0.2-0.6-0.5c-0.1-0.5-0.3-0.9-0.4-1.3c-0.1-0.3-0.2-0.6-0.1-0.9
			c0-0.1,0-0.2,0-0.3c0.1-0.4,0.3-0.8,0.5-1.1C213.5,239.3,214.7,237.1,215.8,234.6z M229.5,249.2c0.1,0,0.2,0,0.3,0
			c0.2,0,0.4,0.1,0.6,0.2l0.6,0.3c0.3,0.2,0.4,0.4,0.5,0.7c0,0.1,0,0.1,0,0.2c0,0.2-0.1,0.4-0.3,0.6c-0.6,0.6-1.3,1.2-2.1,1.7
			c0,0,0,0,0,0.1c0,0,0,0,0.1,0c0.9,0.1,1.9,0.2,3,0.3c0.3,0,0.5,0.2,0.5,0.4c0.1,0.1,0.1,0.2,0.1,0.3s-0.1,0.3-0.2,0.4
			c-0.1,0.1-0.2,0.3-0.3,0.4c-0.3,0.4-0.6,0.6-1,0.8c-0.3,0.2-0.6,0.2-1,0.2c-0.1,0-0.2,0-0.2,0c-2-0.2-3.7-0.6-5.1-1.1
			c-0.1,0-0.2,0-0.3,0c-1.5,0.5-3.2,0.9-5.1,1.2c-0.1,0-0.2,0-0.3,0c-0.3,0-0.6-0.1-0.8-0.2c-0.3-0.2-0.6-0.5-0.8-0.8
			c0-0.1-0.1-0.1-0.1-0.2c-0.1-0.1-0.1-0.3-0.1-0.4c0-0.1,0-0.2,0.1-0.4c0.1-0.3,0.4-0.4,0.7-0.4c1.2-0.1,2.3-0.3,3.2-0.5
			c0,0,0.1,0,0.1-0.1s0-0.1,0-0.1c-0.3-0.2-0.6-0.5-0.8-0.7c-0.1-0.1-0.2-0.1-0.3,0s-0.3,0.1-0.4,0.2c-0.2,0.1-0.4,0.1-0.6,0.1
			c-0.2,0-0.3,0-0.5-0.1c-0.4-0.1-0.7-0.3-0.9-0.7l0,0c-0.1-0.2-0.2-0.3-0.2-0.5c0-0.1,0-0.1,0-0.2c0.1-0.3,0.3-0.5,0.6-0.6
			c1.8-0.6,3.2-1.2,4.3-2.1c0.1-0.1,0.1-0.1,0-0.2c-0.2-0.2-0.3-0.5-0.4-0.8c0,0,0-0.1-0.1-0.1s-0.1,0-0.1,0c-0.3,0.4-0.7,0.7-1,1.1
			c-0.3,0.3-0.6,0.4-1,0.4l0,0c-0.4,0-0.7-0.1-1-0.4l0,0c-0.2-0.2-0.3-0.4-0.3-0.7s0.2-0.6,0.4-0.8v-0.1c0,0,0,0-0.1,0H219
			c-0.4,0-0.7-0.1-0.9-0.4c-0.2-0.3-0.4-0.6-0.3-1l0.1-0.8c0-0.4,0.2-0.7,0.5-1s0.6-0.4,1-0.4h0.5c0.1,0,0.2-0.1,0.2-0.2l0.4-4.4
			c0-0.4,0.2-0.7,0.5-1s0.6-0.4,1-0.4h2.3c0.1,0,0.2-0.1,0.2-0.2l0.1-0.3c0-0.1,0-0.2-0.1-0.2h-3.8c-0.3,0-0.6-0.1-0.8-0.4
			c-0.2-0.2-0.3-0.5-0.3-0.9c0-0.3,0.2-0.6,0.4-0.9c0.3-0.2,0.6-0.4,0.9-0.4h12.3c0.3,0,0.6,0.1,0.8,0.4c0.2,0.2,0.3,0.5,0.3,0.9
			c0,0.3-0.2,0.6-0.4,0.9c-0.3,0.2-0.6,0.4-0.9,0.4h-4.6c-0.1,0-0.2,0.1-0.2,0.2l-0.2,0.3v0.1c0,0,0,0,0.1,0h3.4
			c0.4,0,0.7,0.1,0.9,0.4c0.2,0.3,0.3,0.6,0.3,1l-0.4,4.4c0,0.1,0,0.2,0.2,0.2h0.4c0.4,0,0.7,0.1,0.9,0.4c0.2,0.3,0.3,0.6,0.3,1
			l-0.1,0.8c0,0.4-0.2,0.7-0.5,0.9c-0.3,0.3-0.6,0.4-1,0.4h-0.1v0.1c0,0,0,0,0,0.1c0.1,0.2,0.2,0.4,0.2,0.6c0,0.1,0,0.2-0.1,0.3
			c-0.1,0.3-0.3,0.6-0.6,0.7c-0.2,0.1-0.4,0.1-0.6,0.1c-0.1,0-0.2,0-0.4,0c-0.3-0.1-0.6-0.3-0.8-0.6c-0.1-0.2-0.2-0.3-0.3-0.5
			c0,0,0,0-0.1,0s-0.1,0-0.1,0.1c-0.2,0.4-0.5,0.7-0.8,0.9c-0.4,0.2-0.9,0.3-1.5,0.3H226c-0.1,0-0.2,0-0.3,0.1s-0.2,0.2-0.3,0.3v0.1
			c0,0,0,0,0.1,0h4C229.5,249.2,229.5,249.2,229.5,249.2z M220.7,245.3c0.1-0.1,0.1-0.1,0.2,0l1.3,0.7c0.1,0,0.1,0,0.1,0
			c0-0.2,0.1-0.4,0.3-0.5c0.2-0.2,0.3-0.2,0.5-0.2h1.5h0.1c0,0,0,0,0-0.1c-0.1-0.1-0.2-0.1-0.3-0.1h-3.5
			C220.8,245.1,220.7,245.2,220.7,245.3L220.7,245.3z M223.3,242.5c-0.1,0-0.2,0.1-0.2,0.2v0.3c0,0.1,0,0.2,0.2,0.2h5.6
			c0.1,0,0.2-0.1,0.2-0.2v-0.3c0-0.1,0-0.2-0.2-0.2H223.3z M229,241.2c0.1,0,0.2-0.1,0.2-0.2v-0.3c0-0.1,0-0.2-0.2-0.2h-5.6
			c-0.1,0-0.2,0.1-0.2,0.2v0.3c0,0.1,0,0.2,0.2,0.2H229z M229.4,239c0-0.1,0-0.2-0.1-0.2h-5.6c-0.1,0-0.2,0.1-0.2,0.2v0.2
			c0,0.1,0,0.2,0.2,0.2h5.6c0.1,0,0.2-0.1,0.2-0.2L229.4,239z M227.1,251.1L227.1,251.1C227.1,251.1,227.1,251,227.1,251.1l-3.5-0.1
			h-0.1c0,0,0,0,0,0.1c0.4,0.3,1,0.6,1.5,0.8c0.1,0,0.2,0,0.3,0C226.1,251.7,226.6,251.4,227.1,251.1z M225.1,245.6
			C225.1,245.6,225,245.6,225.1,245.6c-0.1,0-0.1,0-0.1,0l-0.1,0.7c0,0.2,0,0.4,0.1,0.5s0.3,0.1,0.5,0.1h0.3h0.1v-0.1
			C225.8,246.4,225.5,246,225.1,245.6z M226.4,246.8L226.4,246.8C226.4,246.9,226.4,246.9,226.4,246.8l0.8,0.1c0.2,0,0.4,0,0.5-0.1
			c0.2-0.2,0.4-0.3,0.6-0.3h0.1c0.3,0.1,0.5,0.2,0.9,0.3l0,0l0,0c-0.1-0.1-0.1-0.3-0.1-0.4c0-0.2,0.1-0.3,0.3-0.4l1.3-0.6l0.1-0.1
			c0-0.1,0-0.1-0.1-0.1h-3l0,0c0,0,0,0,0,0.1c0.1,0.2,0.2,0.4,0.1,0.6s-0.2,0.4-0.4,0.5L226.4,246.8z"/>
		<path class="st11" d="M238.2,254.2c-0.2,0.3-0.5,0.5-0.9,0.6c-0.1,0-0.3,0-0.4,0c-0.2,0-0.5-0.1-0.7-0.2l-0.6-0.4
			c-0.3-0.2-0.5-0.4-0.5-0.8c0-0.1,0-0.2,0-0.3c0-0.2,0.1-0.5,0.3-0.7c0.4-0.6,0.8-1.2,1.1-1.8c0.2-0.3,0.5-0.6,0.8-0.8
			c0.2-0.1,0.4-0.1,0.5-0.1s0.3,0,0.5,0.1l0.5,0.2c0.3,0.2,0.6,0.4,0.7,0.8c0.1,0.2,0.1,0.4,0.1,0.6c0,0.2-0.1,0.3-0.1,0.5
			C239,252.8,238.6,253.6,238.2,254.2z M245,237.7c0.1,0,0.2-0.1,0.2-0.2v-0.4c0-0.1,0-0.2-0.2-0.2h-7c-0.4,0-0.7-0.1-0.9-0.4
			c-0.2-0.3-0.3-0.6-0.3-0.9c0-0.4,0.2-0.7,0.5-1s0.6-0.4,1-0.4h7.1c0.1,0,0.1,0,0.1-0.1c0-0.2,0.1-0.4,0.3-0.6
			c0.2-0.2,0.4-0.3,0.6-0.3h1.9c0.2,0,0.4,0.1,0.6,0.3c0.2,0.2,0.2,0.4,0.2,0.6c0,0.1,0,0.1,0.1,0.1h7.4c0.4,0,0.7,0.1,0.9,0.4
			c0.2,0.3,0.3,0.6,0.3,1s-0.2,0.7-0.5,0.9c-0.3,0.3-0.6,0.4-1,0.4H249c-0.1,0-0.2,0.1-0.2,0.2v0.4c0,0.1,0,0.2,0.1,0.2h5.6
			c0.4,0,0.7,0.1,0.9,0.4c0.3,0.3,0.4,0.6,0.3,1l-0.4,4.6c0,0.4-0.2,0.7-0.5,1s-0.6,0.4-1,0.4h-0.2l0,0c0,0,0,0,0,0.1
			c0.8,0.5,1.6,1.1,2.3,1.7c0.2,0.2,0.3,0.5,0.3,0.8c0,0.4-0.2,0.7-0.6,0.9l-0.5,0.3c-0.2,0.2-0.5,0.2-0.7,0.2h-0.1
			c-0.3,0-0.6-0.2-0.8-0.4c-0.1-0.1-0.2-0.1-0.2-0.1c-2.4,0.1-4.3,0.1-5.6,0.1h-0.1v0.1c0.4,0.3,0.7,0.6,1,0.9
			c0.2,0.2,0.4,0.5,0.3,0.8c0,0.4-0.2,0.8-0.6,1l-0.3,0.2c-0.3,0.2-0.6,0.3-0.9,0.3H247c-0.4,0-0.7-0.2-0.9-0.5
			c-0.4-0.4-0.8-0.9-1.3-1.3c-0.2-0.2-0.3-0.5-0.3-0.8s0.2-0.6,0.4-0.8c0-0.1,0-0.1,0-0.1c-1.7,0-4.2,0.1-7.6,0.1l0,0
			c-0.4,0-0.7-0.1-0.9-0.4c-0.3-0.3-0.4-0.6-0.4-1v-0.1c0-0.4,0.1-0.7,0.4-1c0.3-0.3,0.6-0.4,1-0.4c0,0,1,0,2.7,0s3.1,0,4.1,0
			c0.1,0,0.2-0.1,0.2-0.2l0.1-0.7c0-0.1,0-0.2-0.2-0.2h-5.6c-0.4,0-0.7-0.1-1-0.4c-0.2-0.3-0.3-0.6-0.3-1l0.4-4.6
			c0-0.4,0.2-0.7,0.5-1s0.6-0.4,1-0.4h5.7L245,237.7L245,237.7z M256.6,253.1c0,0.2,0,0.3,0,0.4c0,0.2-0.1,0.4-0.2,0.6
			c-0.2,0.3-0.5,0.6-0.9,0.7l-0.6,0.2c-0.1,0-0.3,0.1-0.4,0.1c-0.2,0-0.4-0.1-0.6-0.2c-0.3-0.2-0.5-0.4-0.6-0.8
			c-0.1-0.4-0.3-0.9-0.4-1.3c0,0,0,0-0.1,0c0,0,0,0-0.1,0c-0.3,1.1-0.8,1.8-1.4,2.2s-1.5,0.6-2.8,0.6h-4.3c-1.8,0-3-0.2-3.6-0.7
			s-0.8-1.4-0.7-2.8l0.1-1c0-0.4,0.2-0.7,0.5-1s0.6-0.4,1-0.4h0.7c0.4,0,0.7,0.1,0.9,0.4c0.2,0.3,0.3,0.6,0.3,1l-0.1,0.9
			c0,0.3,0,0.6,0.2,0.6c0.2,0.1,0.6,0.1,1.3,0.1h3.6c0.3,0,0.6,0,0.7-0.1c0.2-0.1,0.3-0.2,0.4-0.4c0.2-0.3,0.4-0.5,0.7-0.7
			c0.2-0.1,0.4-0.1,0.5-0.1s0.2,0,0.3,0.1c0.3,0.1,0.7,0.3,1.1,0.4h0.1v-0.1c-0.1-0.2-0.1-0.4-0.1-0.5s0-0.3,0.1-0.4
			c0.2-0.3,0.4-0.5,0.7-0.7l0.4-0.1c0.2,0,0.4-0.1,0.6-0.1c0.2,0,0.4,0,0.6,0.1c0.4,0.1,0.7,0.4,0.9,0.7
			C256,251.6,256.3,252.4,256.6,253.1z M240.8,242.9c0,0.1,0,0.2,0.2,0.2h3.6c0.1,0,0.2-0.1,0.2-0.2v-0.4c0-0.1,0-0.2-0.2-0.2H241
			c-0.1,0-0.2,0.1-0.2,0.2V242.9z M241.3,239.6c-0.1,0-0.2,0.1-0.2,0.2v0.4c0,0.1,0,0.2,0.2,0.2h3.6c0.1,0,0.2-0.1,0.2-0.2v-0.4
			c0-0.1,0-0.2-0.2-0.2H241.3z M248.1,245.9c0,0.1,0,0.2,0.1,0.2h1.9l0,0c-0.1-0.1-0.2-0.2-0.2-0.3s0.1-0.3,0.2-0.3l0.4-0.3
			c0,0,0,0,0-0.1l0,0h-2.3c-0.1,0-0.2,0.1-0.2,0.2L248.1,245.9z M251.9,243c0.1,0,0.2-0.1,0.2-0.2v-0.4c0-0.1,0-0.2-0.1-0.2h-3.4
			c-0.1,0-0.2,0.1-0.2,0.2v0.4c0,0.1,0,0.2,0.1,0.2H251.9z M252.3,239.8c0-0.1,0-0.2-0.1-0.2h-3.4c-0.1,0-0.2,0.1-0.2,0.2v0.4
			c0,0.1,0,0.2,0.1,0.2h3.4c0.1,0,0.2-0.1,0.2-0.2V239.8z"/>
		<path class="st11" d="M273.1,237.2c0,0.1,0,0.2,0.1,0.2h6.8c0.4,0,0.7,0.1,1,0.4s0.3,0.6,0.3,1l-0.8,9.7c0,0.4-0.2,0.7-0.5,1
			s-0.6,0.4-1,0.4h-1.3c-0.3,0-0.5-0.1-0.7-0.3s-0.3-0.4-0.2-0.7c0-0.1,0-0.1-0.1-0.1h-4.3c-0.1,0-0.2,0.1-0.2,0.2l-0.5,5.8
			c0,0.4-0.2,0.7-0.5,1s-0.6,0.4-1,0.4h-0.9c-0.4,0-0.7-0.1-0.9-0.4c-0.3-0.3-0.4-0.6-0.3-1l0.5-5.8c0-0.1,0-0.2-0.1-0.2h-4.3
			c-0.1,0-0.2,0-0.2,0.1c0,0.3-0.2,0.6-0.4,0.8c-0.2,0.2-0.5,0.3-0.8,0.3h-1c-0.4,0-0.7-0.1-0.9-0.4c-0.3-0.3-0.4-0.6-0.3-1l0.9-9.8
			c0-0.4,0.2-0.7,0.5-1s0.6-0.4,1-0.4h6.6c0.1,0,0.2-0.1,0.2-0.2l0.2-2.6c0-0.4,0.2-0.7,0.5-1s0.6-0.4,1-0.4h0.9
			c0.4,0,0.7,0.1,0.9,0.4c0.2,0.3,0.4,0.6,0.3,1L273.1,237.2z M264.1,245.1c0,0.1,0,0.2,0.2,0.2h4.3c0.1,0,0.2-0.1,0.2-0.2l0.4-4.1
			c0-0.1,0-0.2-0.1-0.2h-4.3c-0.1,0-0.2,0.1-0.2,0.2L264.1,245.1z M272.4,245.1c0,0.1,0,0.2,0.1,0.2h4.3c0.1,0,0.2-0.1,0.2-0.2
			l0.4-4.1c0-0.1,0-0.2-0.1-0.2H273c-0.1,0-0.2,0.1-0.2,0.2L272.4,245.1z"/>
	</g>
	<g>
		<path class="st3" d="M108.1,221.2c-1,0-1.5-0.5-1.4-1.5l0.5-6.1c-0.3,1.6-0.7,3.1-1.2,4.5c-0.2,0.5-0.5,0.8-0.7,0.9
			c-0.3,0.1-0.7,0-1.1-0.2s-0.7-0.5-0.8-0.7c-0.1-0.3,0-0.6,0.2-1.1c0.3-0.8,0.5-1.8,0.8-2.8c0.1-0.5,0.3-1,0.7-1.2
			c0.4-0.3,0.8-0.3,1.3-0.3l1.1,0.2l0.1-1.6l-1.7,0.2c-1,0.1-1.6-0.4-1.6-1.4c0-1.1,0.5-1.6,1.6-1.7h0.2c0.1-0.1,0.2-0.3,0.4-0.5
			c0.2-0.3,0.4-0.6,0.6-0.7c-0.4-0.8-0.9-1.6-1.6-2.4c-0.2-0.3-0.3-0.7-0.1-1.3c0.1-0.5,0.4-1,0.7-1.4c0.1-0.2,0.3-0.3,0.5-0.4
			c0.2-0.1,0.4-0.1,0.5,0l0,0c0.5-0.9,0.9-1.8,1.3-2.6c0.2-0.5,0.5-0.9,0.8-1c0.3-0.2,0.7-0.1,1.2,0c1.1,0.4,1.2,1.1,0.6,2.2
			c-1,1.7-1.8,2.8-2.3,3.5c0.1,0.1,0.2,0.3,0.4,0.6c0.5-0.7,1-1.5,1.6-2.4c0.5-0.9,1.2-1.2,2.1-0.7c0.5,0.2,0.8,0.5,0.9,0.9
			c0.1,0.3-0.1,0.8-0.5,1.2c-0.1,0.1-0.2,0.2-0.3,0.4c-1,1.2-1.7,2.2-2.2,2.8l1.1-0.5c0.3-0.1,0.6-0.1,0.8,0
			c0.2,0.1,0.4,0.3,0.6,0.6c0.7,1.6,1.1,3.1,1.3,4.5h2.7h0.3c0.1,0,0.2,0,0.3,0l1.2,0.5l0.2-1.9h-3c-0.5,0-0.9-0.1-1.1-0.4
			c-0.3-0.3-0.4-0.7-0.3-1.2l0.6-6.5c0-0.5,0.2-0.9,0.6-1.2c0.3-0.3,0.7-0.4,1.2-0.4h2.2c0.1-0.3,0.2-0.5,0.3-0.6
			c0.5-1.2,1.4-1.8,2.7-1.6c1.4,0.2,1.7,0.9,0.9,2.2h2.3h1.2c0.3,0,0.6,0.1,0.8,0.3c0.2,0.2,0.3,0.5,0.2,0.8l-0.6,7
			c0,0.5-0.2,0.9-0.6,1.2c-0.3,0.3-0.7,0.4-1.2,0.4h-2.8v0.1c0.2,0.9,0.4,1.6,0.7,2.4c0.1-0.1,0.2-0.2,0.4-0.4s0.3-0.3,0.4-0.4
			c0.4-0.5,0.9-0.8,1.2-0.8c0.4-0.1,0.8,0.1,1.3,0.5s0.7,0.8,0.6,1.2s-0.4,0.8-1,1.3c-0.1,0.1-0.3,0.2-0.5,0.4
			c-0.5,0.4-0.8,0.6-1.1,0.8c0.4,0.5,0.9,1,1.3,1.5c0.6,0.4,1,0.8,1.1,1.2s-0.1,1-0.5,1.5s-0.8,0.8-1.2,0.8c-0.4,0-0.8-0.2-1.3-0.6
			c-0.8-0.8-1.4-1.8-2-2.8l-0.1,1.7c-0.1,0.8-0.2,1.4-0.4,1.7c-0.2,0.5-0.5,0.8-1,1s-1.1,0.4-1.9,0.5c-1.1,0-1.8-0.4-1.9-1.3
			c-0.2-1.1,0.3-1.7,1.5-1.7c0.2,0,0.4-0.1,0.4-0.3l0.4-4.2c-1,2.4-2.3,4.3-3.9,5.7c-0.4,0.3-0.8,0.5-1.2,0.5c-0.3,0-0.7-0.2-1-0.6
			c-0.4-0.5-0.6-0.9-0.4-1.3c0.1-0.4,0.5-0.8,1.1-1.2l-1.3,0.4c-0.4,0.1-0.7,0.1-0.9,0c-0.2-0.1-0.3-0.4-0.4-0.7
			c-0.1-0.9-0.2-1.8-0.5-2.7l-0.5,6.1C109.7,220.7,109.1,221.2,108.1,221.2z M109.2,208l1.4-0.1c0-0.1-0.1-0.2-0.1-0.4
			c-0.1-0.3-0.2-0.5-0.3-0.7c-0.1,0.1-0.3,0.3-0.5,0.6c-0.1,0.1-0.1,0.2-0.2,0.3C109.3,207.9,109.2,208,109.2,208z M113.5,216.3
			c0.7-0.7,1.3-1.5,1.8-2.4h-1c-0.2,0-0.4-0.1-0.6-0.2c-0.1-0.1-0.2-0.4-0.2-0.6l0.2-1.8l-1.2,0.5c-0.3,0.1-0.6,0.1-0.8,0
			c-0.2-0.1-0.3-0.3-0.4-0.6c0-0.1,0-0.2,0-0.3l-0.8,0.1l-0.2,2.1l1.3-0.4c0.3-0.1,0.6-0.1,0.9,0s0.4,0.3,0.5,0.6
			c0.1,0.2,0.1,0.6,0.2,1C113.4,215.1,113.5,215.7,113.5,216.3z M118.2,206.8h4.8c0.4,0,0.6-0.2,0.7-0.6V206h-2.9H118v0.5
			C117.8,206.7,117.9,206.8,118.2,206.8z M118.1,203.4h5.7v-0.5c0-0.2-0.1-0.3-0.3-0.3H121h-2.2c-0.4,0-0.6,0.2-0.7,0.6V203.4z"/>
		<path class="st3" d="M131.1,219.9c-1.2,0-1.8-0.6-1.7-1.8s0.8-1.8,2-1.8h6.8l1.5-16.6c0.1-1.3,0.8-1.9,2.1-1.9s1.9,0.6,1.8,1.9
			l-0.4,5h6.7c1.2,0,1.8,0.6,1.7,1.8s-0.8,1.9-2,1.9h-6.7l-0.7,8h8.4c1.2,0,1.8,0.6,1.7,1.8s-0.8,1.8-2,1.8h-9.6L131.1,219.9
			L131.1,219.9z"/>
		<path class="st3" d="M170,221c-2.4,0-4.2-0.2-5.6-0.8c-1.6-0.6-2.9-1.7-3.8-3.2c-0.6,1.1-1.3,2.1-2.1,3c-0.5,0.5-0.9,0.7-1.4,0.8
			c-0.4,0-0.8-0.1-1.3-0.5c-0.6-0.5-0.8-1-0.8-1.4c0-0.5,0.4-1,1-1.5c1.2-1.4,2.1-3.3,2.7-5.7c0.1-0.7,0.4-1.2,0.8-1.6
			c0.4-0.4,0.9-0.6,1.5-0.5c1.2,0.1,1.7,0.8,1.4,2.1c-0.1,0.5-0.3,0.9-0.4,1.2c0.5,1.6,1.3,2.7,2.4,3.4l0.7-7.8H162
			c-1.2,0-1.7-0.6-1.6-1.7c0.1-1.2,0.7-1.7,1.9-1.7h4.9h4.9c1.1,0,1.7,0.6,1.6,1.7c-0.1,1.1-0.7,1.7-1.9,1.7h-3l-0.2,2.5h4.8
			c1.1,0,1.6,0.6,1.6,1.7c-0.1,1.1-0.7,1.7-1.8,1.7h-4.8l-0.3,2.9c0.6,0.1,1.3,0.1,2.1,0.1c2,0,3.7,0,4.9,0c0.9,0,1.5,0.1,1.8,0.4
			c0.3,0.3,0.3,0.9-0.1,1.7c-0.2,0.5-0.5,0.9-0.9,1.2c-0.4,0.2-0.9,0.3-1.5,0.3L170,221L170,221z M158.4,206.5
			c-1.2,0-1.7-0.6-1.6-1.8l0.3-3.3c0-0.5,0.2-0.9,0.6-1.2c0.3-0.3,0.7-0.5,1.2-0.5h7.2v-0.4c0.1-1.3,0.8-1.9,2.1-1.9
			s1.9,0.6,1.8,1.9v0.4h7.3c0.5,0,0.9,0.2,1.1,0.5c0.3,0.3,0.4,0.7,0.3,1.2l-0.3,3.3c-0.1,1.2-0.8,1.9-2,1.9s-1.8-0.6-1.7-1.9
			l0.1-1.5h-7.2H161c-0.4,0-0.6,0.2-0.7,0.6l-0.1,0.9C160.3,205.9,159.6,206.5,158.4,206.5z"/>
		<path class="st3" d="M197.1,219.8c-0.2-0.7-0.1-1.3,0.3-1.6c0.3-0.3,0.9-0.4,1.7-0.4c0.3,0,0.5-0.2,0.5-0.5l0.4-4.3h-2.9
			c-0.5,2.7-1.2,5-2,6.7c-0.2,0.4-0.6,0.7-1,0.8s-0.8-0.1-1.2-0.4c-0.5-0.4-1-0.7-1.3-0.8l-1.1,0.7c-0.3,0.2-0.6,0.2-0.9,0.2
			c-0.3-0.1-0.5-0.2-0.6-0.4c-0.2-0.3-0.5-0.8-0.9-1.5c-0.3-0.5-0.5-0.9-0.4-1.3c0.1-0.4,0.4-0.8,0.9-1l0.8-0.4h-6l1.7,0.5
			c0.5,0.1,0.7,0.4,0.8,0.7c0.1,0.4,0,0.7-0.2,1.2c-0.6,0.9-1.3,1.7-2,2.5c-0.4,0.4-0.8,0.6-1.2,0.6s-0.8-0.1-1.2-0.4
			c-0.5-0.4-0.8-0.9-0.7-1.3c0.1-0.4,0.4-0.9,1-1.4c0.7-0.7,1.3-1.5,1.8-2.3h-1.3c-1,0-1.5-0.5-1.4-1.6c0.1-1,0.7-1.6,1.7-1.6h0.5
			l0.8-8.8h-0.3c-1,0-1.5-0.5-1.4-1.6s0.7-1.6,1.7-1.6h0.3l0.1-0.9c0.1-1.1,0.7-1.6,1.8-1.6s1.6,0.5,1.5,1.6l-0.1,0.9h2.3l0.1-0.8
			c0.1-1.1,0.7-1.6,1.8-1.6s1.6,0.5,1.5,1.6l-0.1,0.8l0,0c1,0,1.5,0.5,1.4,1.6s-0.7,1.6-1.7,1.6l0,0l-0.8,8.8l0,0
			c0.4,0,0.7,0.1,0.9,0.4c0.2,0.3,0.3,0.6,0.2,1c-0.1,1.1-0.7,1.7-1.7,1.7H190c0.6,0.8,1.2,1.5,1.8,2.3c0.2,0.3,0.4,0.3,0.5-0.1
			c0.9-2.2,1.6-5.5,2-9.8l0.7-7.6c0-0.5,0.2-0.9,0.6-1.2s0.7-0.5,1.2-0.5h3.2h3.2c0.5,0,0.9,0.2,1.1,0.5s0.4,0.7,0.3,1.2l-1.5,17.2
			c-0.1,0.9-0.2,1.5-0.5,2c-0.2,0.5-0.6,0.9-1.1,1.2c-0.6,0.3-1.3,0.5-2.3,0.6C198,221.1,197.3,220.7,197.1,219.8z M186.2,212.1h2.3
			l0.1-1.2h-1.1h-1.2L186.2,212.1z M186.5,208.2h2.3l0.1-1.1h-1.1h-1.2L186.5,208.2z M186.9,204.3h1.2h1.1l0.1-1H187L186.9,204.3z
			 M197.6,209.7h2.8l0.2-2.5h-2.7v0.5c0,0.3-0.1,0.6-0.1,1C197.6,209.1,197.6,209.5,197.6,209.7z M198.1,204.1h1.3h1.4l0.2-1.7
			c0-0.4-0.1-0.6-0.5-0.6H199c-0.4,0-0.6,0.2-0.7,0.6L198.1,204.1z"/>
		<path class="st3" d="M221.3,221c-2.4,0-4.2-0.2-5.6-0.8c-1.6-0.6-2.9-1.7-3.8-3.2c-0.6,1.1-1.3,2.1-2.1,3
			c-0.5,0.5-0.9,0.7-1.4,0.8c-0.4,0-0.8-0.1-1.3-0.5c-0.6-0.5-0.8-1-0.8-1.4c0-0.5,0.4-1,1-1.5c1.2-1.4,2.1-3.3,2.7-5.7
			c0.1-0.7,0.4-1.2,0.8-1.6c0.4-0.4,0.9-0.6,1.5-0.5c1.2,0.1,1.7,0.8,1.4,2.1c-0.1,0.5-0.3,0.9-0.4,1.2c0.5,1.6,1.3,2.7,2.4,3.4
			l0.7-7.8h-3.1c-1.2,0-1.7-0.6-1.6-1.7c0.1-1.2,0.7-1.7,1.9-1.7h4.9h4.9c1.1,0,1.7,0.6,1.6,1.7c-0.1,1.1-0.7,1.7-1.9,1.7h-3
			l-0.2,2.5h4.8c1.1,0,1.6,0.6,1.5,1.7c-0.1,1.1-0.7,1.7-1.8,1.7h-4.8l-0.3,2.9c0.6,0.1,1.3,0.1,2.1,0.1c2,0,3.7,0,4.9,0
			c0.9,0,1.5,0.1,1.8,0.4c0.3,0.3,0.3,0.9-0.1,1.7c-0.2,0.5-0.5,0.9-0.9,1.2c-0.4,0.2-0.9,0.3-1.5,0.3L221.3,221L221.3,221z
			 M209.7,206.5c-1.2,0-1.7-0.6-1.6-1.8l0.3-3.3c0-0.5,0.2-0.9,0.6-1.2c0.3-0.3,0.7-0.5,1.2-0.5h7.2v-0.4c0.1-1.3,0.8-1.9,2.1-1.9
			s1.9,0.6,1.8,1.9v0.4h7.3c0.5,0,0.9,0.2,1.1,0.5c0.3,0.3,0.4,0.7,0.3,1.2l-0.3,3.3c-0.1,1.2-0.8,1.9-2,1.9s-1.8-0.6-1.7-1.9
			l0.1-1.5h-7.2h-6.6c-0.4,0-0.6,0.2-0.7,0.6l-0.1,0.9C211.5,205.9,210.9,206.5,209.7,206.5z"/>
		<path class="st3" d="M242.9,220.8c-0.4-0.1-0.6-0.2-0.9-0.5c-0.1-0.1-0.2-0.2-0.4-0.4c-0.1-0.1-0.2-0.2-0.2-0.2v0.1h-6.8
			c-0.5,0-0.9-0.1-1.1-0.4c-0.3-0.3-0.4-0.7-0.3-1.2l0.3-3.8h-0.1c-0.1,0-0.1,0-0.2-0.1c-0.4-0.6-0.5-1.2-0.5-1.9s0.4-1.2,1-1.4
			c0.8-0.4,1.6-0.8,2.4-1.4l-1.2-0.8c-0.5,0.4-1,0.3-1.4-0.1c-0.4-0.5-0.6-0.9-0.6-1.4c0-0.4,0.3-0.9,0.9-1.2c1-0.8,1.8-1.7,2.6-2.7
			c0.2-0.4,0.6-0.6,1-0.8c0.4-0.1,0.9-0.1,1.3,0c0.3,0.1,0.6,0.2,0.7,0.5c0.1,0.2,0.1,0.5,0,0.8h2.5c0.6,0,0.9,0.2,1.1,0.5
			c0.2,0.4,0.2,0.9-0.1,1.5c-0.5,1.1-1.2,2.2-2.1,3.3c0.8,0.5,1.4,1,1.9,1.3c0.3,0.2,0.5,0.6,0.5,1s-0.2,0.8-0.5,1.2l-0.8,0.9
			l-0.4,4.9c1.7-0.8,3.1-1.6,4.1-2.5h-1c-0.6,0-0.8-0.3-0.8-0.8l1-10.9c0-0.5,0.2-0.9,0.6-1.2c0.3-0.3,0.7-0.5,1.2-0.5h1.4
			c0.1-0.5,0.2-1,0.3-1.3h-3.8l-0.1,0.9c-0.1,1-0.6,1.5-1.6,1.5s-1.5-0.5-1.4-1.5l0,0h-4.7c-0.4,0-0.6,0.2-0.7,0.6v0.6
			c0,0.2-0.2,0.4-0.4,0.4h-0.3c-1.4,0-2.1-0.7-2-2.1c0.1-1.4,0.9-2.2,2.3-2.2h1.7v-0.2c0.1-1.1,0.7-1.7,1.8-1.7s1.6,0.6,1.5,1.7v0.2
			h3.9l0.1-0.6c0-0.3,0.2-0.5,0.5-0.5h5.4h4.3c1,0,1.5,0.5,1.4,1.5s-0.6,1.5-1.7,1.5H252c-0.1,0.3-0.4,0.7-0.6,1.3h2.5
			c0.5,0,0.9,0.2,1.1,0.5c0.3,0.3,0.4,0.7,0.3,1.2l-0.9,10.1c0,0.5-0.2,0.9-0.6,1.2c-0.3,0.3-0.7,0.4-1.2,0.4H246l1.3,0.9
			c0.3,0.2,0.5,0.5,0.5,0.9c0,0.3-0.2,0.6-0.5,0.9c-0.9,0.7-2.1,1.4-3.3,2C243.6,220.8,243.3,220.8,242.9,220.8z M236.9,217h0.5h0.7
			c0.3,0,0.5-0.2,0.5-0.5l0.1-1.1h-2.3l-0.1,1C236.3,216.8,236.5,217,236.9,217z M236.8,212.7h3.3c-0.2-0.1-0.4-0.3-0.7-0.6
			c0,0-0.1-0.1-0.2-0.1c-0.3-0.2-0.5-0.4-0.7-0.5C237.8,212,237.2,212.4,236.8,212.7z M238.5,207.6c0-0.1,0.1-0.1,0.2-0.2
			c0.2-0.2,0.3-0.4,0.4-0.5c0.1-0.2,0.3-0.4,0.5-0.7h-1.9c-0.1,0.1-0.2,0.2-0.3,0.3s-0.1,0.1-0.1,0.1L238.5,207.6z M247.7,213.4h1.5
			h1.4c0.4,0,0.6-0.2,0.7-0.6v-0.5h-4l-0.1,0.6C247.2,213.2,247.4,213.4,247.7,213.4z M247.5,209.9h2h2l0.1-1h-4L247.5,209.9z
			 M247.8,206.4h2h2l0.1-0.6c0-0.3-0.1-0.5-0.4-0.5h-3c-0.4,0-0.6,0.2-0.7,0.6L247.8,206.4z M251.5,220.1c-0.1-0.1-0.2-0.2-0.3-0.3
			s-0.2-0.2-0.3-0.3s-0.2-0.2-0.3-0.3s-0.2-0.2-0.3-0.3c-0.9-0.8-0.7-1.5,0.4-2.2c0.7-0.4,1.3-0.4,1.9,0c0.1,0.1,0.1,0.1,0.3,0.2
			c0.7,0.6,1.1,1,1.4,1.2c0.4,0.4,0.6,0.8,0.5,1.1s-0.4,0.7-0.9,1C252.9,220.9,252.1,220.8,251.5,220.1z"/>
		<path class="st12" d="M80.3,255.7c-0.2-0.8-0.1-1.3,0.3-1.7c0.4-0.3,1.1-0.5,2-0.5c0.5,0,0.9,0,1.4,0s0.8-0.2,0.9-0.7l0.3-3.2
			h-7.8c-1.2,0-1.7-0.6-1.6-1.8s0.7-1.8,1.9-1.8h3h4.8l0.2-2.3h-6.2c-1.2,0-1.7-0.6-1.6-1.8c0.1-1.1,0.7-1.7,1.9-1.7H86l0.2-2.4
			c-2,0.2-3.9,0.3-5.9,0.4c-1,0-1.6-0.4-1.8-1.4c-0.1-0.6,0-1.1,0.3-1.4c0.3-0.3,0.8-0.4,1.5-0.5c5.4-0.3,10-0.8,13.7-1.6
			c0.4-0.1,0.8-0.1,1.1,0.1c0.3,0.1,0.5,0.4,0.8,0.8c0.5,0.7,0.7,1.2,0.5,1.6c-0.1,0.4-0.6,0.7-1.5,0.9c-1.5,0.3-3.2,0.5-5.1,0.8
			l-0.2,2.8h6.3c1.1,0,1.7,0.6,1.6,1.7c-0.1,1.2-0.7,1.8-1.9,1.8h-6.3l-0.2,2.3H97c1.2,0,1.7,0.6,1.6,1.8s-0.7,1.8-1.9,1.8h-7.8
			l-0.3,3.2c-0.1,1-0.3,1.8-0.6,2.3c-0.3,0.5-0.8,0.9-1.5,1.2c-0.9,0.4-2.1,0.5-3.8,0.6C81.4,257,80.6,256.6,80.3,255.7z"/>
		<path class="st12" d="M104.9,257c-1,0-1.5-0.5-1.4-1.5l0.5-5.5c-0.3,1.4-0.6,2.7-1.1,3.9c-0.2,0.5-0.4,0.7-0.7,0.8
			c-0.3,0.1-0.6,0-1.1-0.2c-0.4-0.2-0.7-0.5-0.8-0.7c-0.1-0.3,0-0.6,0.2-1.1c0.3-0.8,0.5-1.8,0.8-2.8c0.1-0.6,0.3-1,0.7-1.2
			c0.4-0.3,0.8-0.3,1.3-0.3l0.9,0.1l0.1-1.5l-1.5,0.1c-1,0.1-1.5-0.4-1.5-1.3c0-1,0.5-1.6,1.5-1.6h0.1c0.4-0.5,0.7-0.9,1.1-1.4
			c-0.4-0.7-0.9-1.5-1.6-2.5c-0.2-0.3-0.3-0.8-0.1-1.4c0.2-0.5,0.4-1,0.7-1.4c0.1-0.1,0.2-0.2,0.4-0.3c0.2-0.1,0.3-0.1,0.4,0l0,0
			c0.3-0.6,0.8-1.4,1.3-2.6c0.2-0.5,0.5-0.9,0.8-1c0.3-0.2,0.7-0.2,1.2,0c1,0.3,1.2,1,0.5,2.2c-1,1.6-1.7,2.8-2.2,3.4
			c0,0.1,0.1,0.2,0.2,0.2c0.1,0.2,0.2,0.3,0.2,0.3c0.5-0.7,0.9-1.4,1.4-2.2c0.3-0.5,0.6-0.8,0.9-0.9c0.3-0.1,0.7-0.1,1.2,0.1
			c1,0.4,1.1,1.1,0.4,2.1c-0.5,0.7-1.2,1.7-2.2,3l1-0.3c0.5-0.2,0.9,0,1,0.4c0.4,1.4,0.7,2.6,0.9,3.9c0,0.6-0.4,1.1-1.3,1.4
			c-0.3,0.1-0.6,0.1-0.8,0.1c-0.3-0.1-0.4-0.3-0.4-0.6l0,0h-0.6l-0.2,1.8l1.1-0.3c0.3-0.1,0.5-0.1,0.8,0c0.2,0.1,0.4,0.3,0.4,0.6
			c0.1,0.5,0.3,1.2,0.4,2c0.1,0.7-0.2,1.1-1,1.4c-0.9,0.3-1.4,0-1.5-0.8s-0.2-1.4-0.3-1.8l-0.3,3.6l-0.2,2.1
			C106.5,256.5,105.9,257,104.9,257z M105.9,244.2l1.6-0.1c0-0.1-0.1-0.3-0.2-0.6c-0.1-0.4-0.2-0.6-0.2-0.8
			c-0.1,0.1-0.2,0.2-0.3,0.4c-0.1,0.2-0.2,0.3-0.3,0.4s-0.2,0.2-0.3,0.4C106.1,243.9,106,244.1,105.9,244.2z M109.4,256.3
			c-0.9-0.9-0.7-1.6,0.7-2c0.5-0.2,1.2-0.5,2-0.8h-0.8c-0.4,0-0.6-0.2-0.5-0.6l0.5-5.6c0-0.5,0.2-0.9,0.6-1.2
			c0.3-0.3,0.7-0.5,1.2-0.5h4.3h4.3c0.5,0,0.9,0.1,1.1,0.5c0.3,0.3,0.4,0.7,0.3,1.2l-0.4,4.6c0,0.5-0.2,0.9-0.6,1.2
			c-0.3,0.3-0.7,0.5-1.2,0.5h-0.1c0.7,0.3,1.2,0.6,1.5,0.8c0.7,0.4,1,0.7,0.9,1c0,0.3-0.4,0.7-1.1,1.1c-0.4,0.2-0.7,0.4-1,0.4
			s-0.6-0.1-1-0.3c-0.6-0.4-1.2-0.8-2-1.2c-0.4-0.2-0.6-0.5-0.7-0.8c0-0.3,0.2-0.6,0.6-0.9h0.1h-3.6l0.8,0.5c0.4,0.3,0.4,0.6,0,0.9
			c-1.4,0.7-2.8,1.3-4.2,1.8C110.4,256.9,109.8,256.7,109.4,256.3z M112.1,245.1c-0.5,0-0.9-0.1-1.1-0.5c-0.3-0.3-0.4-0.7-0.3-1.2
			l0.2-2.1c0-0.5,0.2-0.9,0.6-1.2c0.3-0.3,0.7-0.5,1.2-0.5H123c0.5,0,0.9,0.2,1.1,0.5c0.3,0.3,0.4,0.7,0.3,1.2l-0.2,2.1
			c0,0.5-0.2,0.9-0.6,1.2c-0.3,0.3-0.7,0.5-1.2,0.5h-5.2H112.1z M112.8,239.2c-0.7,0-1-0.3-0.9-1s0.4-1,1.1-1h3.1v-0.4
			c0-0.1,0-0.2-0.2-0.2h-4c-0.7,0-1-0.4-1-1.1c0.1-0.7,0.4-1,1.1-1h4.2v-0.1c0-0.4,0.3-0.6,0.7-0.8c0.4-0.2,0.8-0.3,1.2-0.3
			c0.4,0,0.8,0.1,1.1,0.3c0.4,0.2,0.6,0.5,0.5,0.8v0.1h4.5c0.7,0,1,0.3,1,1c-0.1,0.7-0.4,1.1-1.1,1.1h-4c-0.3,0-0.5,0.2-0.5,0.5v0.1
			h3.5c0.7,0,1,0.3,0.9,1s-0.4,1-1.1,1h-5.1L112.8,239.2L112.8,239.2z M113.8,243.4h0.4c-0.1-0.1-0.2-0.3-0.3-0.6
			c-0.2-0.3-0.4-0.4-0.5-0.5l-0.1,0.7C113.3,243.3,113.5,243.4,113.8,243.4z M113.8,242.1c0.3-0.1,0.6-0.2,0.7-0.2
			c0.2-0.1,0.4-0.2,0.6-0.4h-1.2c-0.2,0-0.4,0.1-0.4,0.4v0.1C113.4,242.1,113.5,242.2,113.8,242.1z M114.1,251.9h4.7
			c0.4,0,0.6-0.2,0.6-0.6v-0.1h-2.8h-2.8v0.4C113.9,251.8,114,251.9,114.1,251.9z M114.3,249.9h5c0.2,0,0.3-0.1,0.4-0.3v-0.1
			c0-0.1-0.1-0.2-0.2-0.2H117h-2.4c-0.2,0-0.3,0.1-0.4,0.3v0.1C114.1,249.8,114.1,249.9,114.3,249.9z M114.2,247.9h5.5v-0.4
			c0-0.2-0.1-0.2-0.2-0.2H117h-2.2C114.5,247.3,114.3,247.5,114.2,247.9L114.2,247.9z M114.5,243.4h3.5h3.3c0.1,0,0.2-0.1,0.2-0.2
			v-0.1c0-0.1,0-0.1-0.1-0.1h-1.2c-0.9,0-1.5-0.1-1.8-0.3s-0.4-0.6-0.4-1.3h-0.8c-0.2,0.5-0.5,0.9-0.9,1.2
			C115.9,243,115.3,243.2,114.5,243.4z M120.7,241.9h0.8h0.2v-0.3c0-0.1,0-0.1-0.1-0.1h-1.1v0.1c0,0.1,0,0.2,0,0.2
			C120.5,241.8,120.5,241.9,120.7,241.9z"/>
		<path class="st12" d="M127.9,256.3c-0.6-0.6-0.7-1.1-0.5-1.5c0.2-0.3,0.8-0.6,1.7-0.8c1.3-0.3,2.3-0.6,3.1-0.8h-1.3
			c-0.4,0-0.6-0.1-0.8-0.3s-0.3-0.5-0.2-0.9l0.5-6h-0.1c-0.1,0-0.1,0-0.1,0c-0.9,0.1-1.6-0.2-1.9-0.9c-0.3-0.6-0.3-1.1,0.2-1.5
			c0.4-0.3,1-0.5,1.8-0.7c1.3-0.3,2.3-0.6,3-1.1h-1.5l0,0c0,0.1-0.1,0.1-0.3,0.1c-0.8,0-1.4-0.2-1.8-0.5c-0.5-0.4-0.6-0.8-0.4-1.4
			c0.1-0.2,0.3-0.7,0.5-1.2c0.1-0.3,0.2-0.5,0.3-0.6c0.2-0.4,0.4-0.7,0.7-0.9s0.7-0.3,1.1-0.3h3.2v-0.5c0-0.2-0.1-0.3-0.3-0.3h-4.1
			c-0.7,0-1-0.3-0.9-1s0.4-1,1.1-1h4.4v-0.1c0-0.3,0.2-0.5,0.7-0.7c0.3-0.2,0.7-0.2,1-0.2c0.4,0,0.7,0.1,1,0.2
			c0.4,0.2,0.5,0.4,0.5,0.7v0.1h2.2v-0.1c0-0.3,0.3-0.5,0.7-0.7s0.7-0.2,1.1-0.2c0.4,0,0.7,0.1,1.1,0.2c0.4,0.2,0.6,0.4,0.5,0.7v0.1
			h3.5c0.5,0,0.9,0.1,1.1,0.4c0.3,0.3,0.4,0.7,0.3,1.2l-0.1,1.6c0,0.5-0.2,0.9-0.6,1.2c-0.3,0.3-0.7,0.5-1.2,0.5h-3.5l-0.1,0.8h3.3
			h3.4c0,0.3-0.1,0.6-0.1,0.9c-0.2,1.7-0.6,2.7-1,3.2c-0.4,0.4-0.9,0.6-1.6,0.7h-0.3l-0.6,6.9c0,0.5-0.2,0.9-0.6,1.2
			c-0.3,0.3-0.7,0.5-1.2,0.5h-1.3c0.9,0.3,1.9,0.7,2.9,1.1c0.9,0.4,1.4,0.8,1.3,1.2c-0.1,0.4-0.6,0.8-1.7,1.2
			c-0.4,0.2-0.8,0.3-1,0.3c-0.3,0-0.6-0.1-1-0.3c-0.9-0.4-2-0.9-3.2-1.5c-0.6-0.2-1-0.5-1-0.9s0.2-0.7,0.8-1h0.1H135l1,0.5
			c0.3,0.1,0.4,0.3,0.4,0.4c0,0.2-0.1,0.3-0.3,0.4c-1.7,0.9-3.7,1.7-6,2.3C129.1,257,128.4,256.8,127.9,256.3z M132.6,239.8h2.1
			c0-0.2,0.1-0.3,0.1-0.4c0-0.2,0.1-0.3,0.1-0.4H133L132.6,239.8z M133.6,251.2h4.6h4.8l0.1-0.7h-9.7v0.4
			C133.4,251.1,133.5,251.2,133.6,251.2z M133.6,248.6h4.8h4.8l0.1-0.7h-9.7L133.6,248.6z M133.8,246.1h4.8h4.8l0.1-0.7h-9.7
			L133.8,246.1z M136.2,243.4h3.6l0.1-1.5h-2.7c-0.1,0.2-0.2,0.4-0.5,0.8C136.7,242.9,136.5,243.2,136.2,243.4z M137.9,239.8h2.2
			l0.1-0.8H138c0,0.1,0,0.2,0,0.4C138,239.5,137.9,239.7,137.9,239.8z M138.5,237h1.9v-0.5c0-0.2-0.1-0.3-0.3-0.3h-0.8h-0.7
			c-0.2,0-0.4,0.1-0.4,0.4v0.1C138.2,236.9,138.3,237,138.5,237z M143.2,243.4h1.8c0-0.1-0.1-0.3-0.2-0.6c-0.1-0.2,0-0.3,0.3-0.3
			h0.1c0.1,0,0.1,0,0.1,0c0.2,0,0.3,0,0.5,0s0.4-0.1,0.5-0.2c0.1-0.1,0.1-0.3,0.2-0.5h-3.2L143.2,243.4z M143.8,237h0.9h0.6
			c0.2,0,0.4-0.1,0.4-0.4v-0.1c0-0.2-0.1-0.3-0.3-0.3h-1c-0.4,0-0.6,0.2-0.7,0.6L143.8,237z"/>
		<path class="st12" d="M155.5,257c-1.1,0-1.7-0.6-1.6-1.7l0.8-9.9c-0.4,0.4-0.7,0.5-1.1,0.4c-0.3-0.2-0.6-0.5-0.8-1.1
			c-0.4-1.3-0.3-2.4,0.4-3.2c1.5-1.9,2.7-4.1,3.8-6.4c0.5-1.2,1.3-1.6,2.4-1.3c1.1,0.3,1.4,1,0.9,2.1c-0.4,1-1,2-1.6,3.2l-0.8,9
			l-0.6,7.2C157.2,256.4,156.6,257,155.5,257z M159.1,256.2c-0.3-0.6-0.3-1-0.1-1.3s0.7-0.4,1.5-0.5c1.2-0.2,2.1-0.3,2.7-0.5
			c-0.5-0.4-0.8-0.7-1.1-1c-0.2,0.1-0.4,0.2-0.8,0.3c-0.4,0.2-0.8,0.2-1.1,0.2s-0.6-0.2-0.9-0.5c-0.7-0.9-0.3-1.6,1.3-2.1
			c1.4-0.5,2.6-1.1,3.6-1.9c-0.3-0.2-0.5-0.6-0.5-1.1c-0.5,0.6-0.9,1-1.3,1.4c-0.6,0.5-1.2,0.5-1.8,0c-0.7-0.6-0.7-1.2,0.2-1.8h-0.1
			c-1.1,0-1.6-0.6-1.5-1.8c0.1-1.3,0.8-1.9,2-1.9h0.3l0.4-4.5c0-0.5,0.2-0.9,0.6-1.2c0.3-0.3,0.7-0.5,1.2-0.5h2.4l0.2-0.6h-4.1
			c-0.8,0-1.2-0.4-1.1-1.3c0.1-0.8,0.5-1.2,1.4-1.2h6.3h6.3c0.8,0,1.2,0.4,1.1,1.2c-0.1,0.8-0.5,1.3-1.4,1.3h-4.9l-0.4,0.6h3.5
			c0.5,0,0.9,0.2,1.1,0.5c0.3,0.3,0.4,0.7,0.3,1.2l-0.4,4.5h0.1c0.6,0,1,0.2,1.3,0.6c0.3,0.3,0.4,0.8,0.3,1.5c0,0.5-0.2,0.9-0.5,1.2
			s-0.7,0.5-1.1,0.5l0,0c0,0,0,0,0.1,0.1l0.1,0.1c0.4,0.7,0.2,1.3-0.5,1.6c-0.8,0.4-1.4,0.2-1.8-0.4c0-0.1-0.1-0.2-0.2-0.3
			c-0.1-0.2-0.2-0.3-0.3-0.4c-0.2,0.5-0.5,0.9-0.9,1.1c-0.4,0.2-0.9,0.3-1.6,0.3h-1.6c-0.2,0.2-0.4,0.4-0.6,0.5h5.1
			c0.6,0,1,0.2,1.1,0.5s0,0.9-0.3,1.5c-0.5,0.7-1.2,1.3-2.1,1.9c0.9,0.1,1.6,0.2,2.2,0.3c0.8,0.1,1.4,0.2,1.6,0.5
			c0.2,0.3,0.1,0.8-0.4,1.5s-1.2,1-2.2,0.8c-2.1-0.2-3.9-0.7-5.4-1.2c-1.6,0.5-3.4,1-5.5,1.3C160.1,257.1,159.4,256.8,159.1,256.2z
			 M163.8,246.7v-0.5c0-0.2,0.2-0.4,0.4-0.4h2.2l-0.2-0.2h-2h-1.7c-0.2,0-0.3,0.1-0.3,0.3v0.1l0.1-0.1L163.8,246.7z M164.7,243.6
			h6.1l0.1-0.6h-3.1h-3L164.7,243.6z M164.9,241.6h3h3.1v-0.4c0-0.1-0.1-0.2-0.2-0.2h-5.3C165.2,241,165,241.2,164.9,241.6
			L164.9,241.6z M167,252.8c0.8-0.3,1.5-0.7,2-1h-3.9c0.4,0.2,0.7,0.4,0.9,0.5C166.4,252.6,166.7,252.7,167,252.8z M165.1,239.6h3
			h3.1v-0.4c0-0.1,0-0.2-0.2-0.2h-5.4C165.3,239.1,165.1,239.2,165.1,239.6L165.1,239.6z M167.3,247.5h0.5c-0.1-0.2-0.2-0.4-0.5-0.7
			c-0.1-0.2-0.3-0.4-0.6-0.8l-0.1,0.9c0,0.3,0,0.4,0.1,0.5C166.8,247.4,167,247.5,167.3,247.5z M168,247.5h1c0.2,0,0.4-0.1,0.5-0.2
			c0.1-0.3,0.3-0.4,0.5-0.3c0,0,0.1,0,0.2,0.1c0.1,0,0.1,0.1,0.2,0.1c0.1,0,0.2,0.1,0.4,0.1c0.2,0.1,0.3,0.1,0.4,0.1
			c-0.1-0.1-0.2-0.2-0.3-0.3c-0.1-0.2-0.1-0.3,0.1-0.4l1.8-0.9v-0.2l0,0h-3.3c0.2,0.2,0.3,0.4,0.4,0.5c0.1,0.2,0.1,0.4-0.2,0.6
			L168,247.5z"/>
		<path class="st12" d="M178.9,255.5c-1.1-0.6-1.2-1.5-0.4-2.5c0.3-0.4,0.5-0.8,0.7-1.1c0.5-1.1,1.3-1.5,2.4-1
			c0.9,0.4,1.2,1.1,0.8,2.1c0,0-0.1,0.1-0.1,0.2c-0.2,0.4-0.3,0.6-0.4,0.8c-0.2,0.3-0.4,0.6-0.5,1
			C180.6,255.9,179.8,256.1,178.9,255.5z M190.4,253.2c-0.4,0-0.7-0.2-1-0.6c-0.4-0.4-0.8-0.8-1.3-1.2c-0.3-0.2-0.4-0.5-0.4-0.8
			s0.2-0.6,0.5-0.8h0.1c-1.7,0-4,0.1-7,0.1c-0.5,0-0.9,0-1.2,0c-0.5,0-0.8-0.1-1-0.3s-0.2-0.6-0.2-1.1s0.1-0.9,0.3-1.1
			c0.2-0.3,0.6-0.4,1.1-0.4c0.7,0,1.7,0,3.2,0c1.8,0,3.1,0,4.1,0l0.1-1.1h-5.8c-0.5,0-0.9-0.1-1.1-0.5c-0.3-0.3-0.4-0.7-0.3-1.2
			l0.4-4.5c0-0.5,0.2-0.9,0.6-1.2c0.3-0.3,0.7-0.5,1.2-0.5h5.8l0.1-0.8h-7.4c-0.9,0-1.4-0.5-1.3-1.4c0.1-0.9,0.6-1.4,1.5-1.4h7.4
			l0,0c0-0.3,0.3-0.5,0.8-0.7c0.4-0.2,0.8-0.2,1.2-0.2s0.8,0.1,1.1,0.2c0.4,0.2,0.7,0.4,0.6,0.7l0,0h7.8c0.9,0,1.4,0.5,1.3,1.4
			c-0.1,0.9-0.6,1.4-1.5,1.4h-3.2h-4.6l-0.1,0.8h5.8c0.5,0,0.9,0.2,1.1,0.5c0.3,0.3,0.4,0.7,0.3,1.2L199,244c0,0.5-0.2,0.9-0.6,1.2
			c-0.3,0.3-0.7,0.5-1.2,0.5H197c0.8,0.5,1.6,1.2,2.4,1.8c0.7,0.7,0.5,1.4-0.5,2.1c-0.8,0.6-1.4,0.5-2-0.1c-2.6,0.1-4.7,0.1-6.1,0.1
			c0.4,0.4,0.8,0.7,1.2,1.1c0.3,0.4,0.5,0.7,0.4,1s-0.3,0.6-0.8,1C191.2,253,190.8,253.2,190.4,253.2z M187.5,256.6
			c-1.9,0-3.1-0.3-3.8-0.8c-0.6-0.5-0.8-1.5-0.7-2.9l0.1-0.7c0.1-1.2,0.7-1.8,1.9-1.8s1.7,0.6,1.6,1.8l-0.1,0.7c0,0.3,0,0.6,0.2,0.7
			c0.2,0.1,0.6,0.1,1.3,0.1h3.7c0.5,0,0.9-0.1,1.1-0.4c0.3-1.1,0.7-1.4,1.3-1.1c0.5,0.2,1,0.4,1.6,0.5c-0.2-0.5-0.2-0.8,0-1.2
			c0.2-0.3,0.6-0.6,1.1-0.7c0.4-0.1,0.8-0.1,1.2,0s0.7,0.3,0.9,0.7c0.5,0.9,0.9,1.8,1.1,2.6c0.1,0.5,0,0.9-0.2,1.2s-0.6,0.5-1.1,0.7
			c-0.6,0.2-1.1,0.2-1.5,0.1c-0.4-0.2-0.6-0.6-0.7-1.2c-0.1-0.5-0.3-0.9-0.4-1.2c-0.3,1.2-0.8,2-1.4,2.5c-0.6,0.4-1.6,0.6-2.9,0.6
			h-4.3V256.6z M184.2,243.5h3.7l0.1-0.8h-2h-2v0.5C183.9,243.4,184,243.5,184.2,243.5z M184.1,240.8h4l0.1-0.8h-2h-1.4
			c-0.4,0-0.6,0.2-0.7,0.6L184.1,240.8z M191.3,246.7h2.2l-0.1-0.1c-0.1,0-0.1-0.1-0.1-0.1s-0.1-0.1-0.2-0.1c-0.1-0.1-0.1-0.1,0-0.1
			l1.1-0.7h-2.7L191.3,246.7z M191.6,243.5h1.9h1.4c0.4,0,0.6-0.2,0.7-0.6v-0.2h-3.9L191.6,243.5z M191.8,240.8h1.9h2v-0.5
			c0-0.2-0.1-0.3-0.3-0.3h-3.5L191.8,240.8z"/>
		<path class="st12" d="M213.9,259.2c-3.2,0-5.6-1.3-7.2-3.9c-1.7-2.7-2.3-6.6-1.9-11.6c0.4-5,1.7-8.8,3.9-11.5
			c2.1-2.5,4.7-3.8,7.9-3.8s5.6,1.3,7.3,3.8c1.7,2.7,2.3,6.5,1.9,11.4c-0.4,4.9-1.7,8.8-3.9,11.6
			C219.8,257.9,217.1,259.2,213.9,259.2z M214.4,253.7c1.2,0,2.2-0.7,2.9-2c0.9-1.6,1.5-4.3,1.8-8s0.2-6.4-0.4-7.9
			c-0.5-1.2-1.4-1.8-2.5-1.8c-1.2,0-2.1,0.6-2.8,1.8c-0.9,1.5-1.5,4.2-1.8,7.9c-0.3,3.8-0.2,6.5,0.4,8
			C212.3,253,213.2,253.7,214.4,253.7z"/>
		<path class="st12" d="M229.3,255.7c-0.4-0.6-0.4-1.2,0.1-1.8c0.3-0.5,0.9-0.9,1.8-1.4c1.2-0.8,2.1-1.9,2.7-3.3
			c0.4-1,0.8-2.3,1-4.1h-3.5c-1.2,0-1.7-0.6-1.6-1.8c0.1-1.2,0.7-1.8,1.9-1.8h9.4h9.5c1.2,0,1.7,0.6,1.6,1.8
			c-0.1,1.2-0.7,1.8-1.9,1.8h-4.5l-0.6,7c0,0.5,0,0.8,0.1,0.9s0.3,0.2,0.7,0.2h1.7c0.3,0,0.5-0.1,0.7-0.4c0.2-1,0.5-1.8,0.9-2.3
			c0.5-0.6,1.1-0.8,1.8-0.5c0.4,0.2,0.7,0.7,0.8,1.4c0.1,0.6,0,1.2-0.1,1.8c-0.4,1.2-0.8,2.1-1.4,2.7c-0.6,0.5-1.4,0.7-2.5,0.7h-2.7
			c-1.5,0-2.6-0.3-3.1-1c-0.5-0.6-0.6-1.8-0.5-3.5l0.6-7H239c-0.5,2.6-1.1,4.7-1.8,6.1c-1,2-2.6,3.5-4.6,4.7
			C230.8,256.6,229.8,256.5,229.3,255.7z M234.3,238.4c-1.2,0-1.7-0.6-1.6-1.8c0.1-1.2,0.7-1.8,1.9-1.8h7.1h7.1
			c1.2,0,1.7,0.6,1.6,1.8c-0.1,1.2-0.7,1.8-1.9,1.8H234.3z"/>
		<path class="st12" d="M256,256.9c-0.3,0.1-0.8,0.1-1.3-0.2c-0.5-0.3-0.8-0.5-0.9-0.8c-0.1-0.3-0.1-0.7,0.1-1.2
			c0.7-1.9,1.2-4.5,1.6-7.8c0.1-0.6,0.3-1,0.6-1.4c0.3-0.3,0.8-0.5,1.3-0.5c1,0.1,1.5,0.6,1.4,1.7c-0.1,0.7-0.2,1.2-0.2,1.6
			c0.3,0.9,0.6,1.6,0.9,2.2l0.6-6.7h-3.3c-1.1,0-1.5-0.5-1.4-1.6c0.1-1,0.7-1.6,1.7-1.6h2.6l0.2-1.9H258c-1,0-1.5-0.5-1.4-1.6
			c0.1-1,0.7-1.5,1.7-1.5h1.9v-0.5c0.1-1.1,0.7-1.7,1.8-1.7c1.1,0,1.6,0.6,1.5,1.7v0.5h1.9c1,0,1.5,0.5,1.4,1.5
			c-0.1,1.1-0.7,1.6-1.7,1.6h-1.9l-0.2,1.9h2.5c1,0,1.5,0.5,1.4,1.6s-0.7,1.6-1.7,1.6h-1.9l-0.2,2.1h1.7c1,0,1.5,0.5,1.4,1.5
			s-0.7,1.6-1.7,1.6h-1.7l-0.3,3.6c1,0.2,2.4,0.4,4.3,0.4c2.8,0,5.6,0,8.5,0c0.9,0,1.5,0.1,1.7,0.4c0.2,0.3,0.1,0.9-0.2,1.7
			c-0.2,0.5-0.6,0.9-0.9,1.1c-0.4,0.2-0.8,0.3-1.4,0.3h-3.2h-4.8c-2.3,0-4.1-0.2-5.4-0.6c-1.5-0.5-2.7-1.3-3.5-2.5
			c-0.2,0.7-0.4,1.5-0.7,2.4C256.6,256.4,256.3,256.7,256,256.9z M270.4,251.7c-1.5,0-2.5-0.3-3-0.9c-0.5-0.6-0.7-1.8-0.5-3.6
			l1-11.1c0-0.5,0.2-0.9,0.6-1.2c0.3-0.3,0.7-0.5,1.2-0.5h3.3h3.3c0.5,0,0.9,0.2,1.1,0.5c0.3,0.3,0.4,0.7,0.3,1.2l-0.6,6.5
			c0,0.5-0.2,0.9-0.6,1.2c-0.3,0.3-0.7,0.5-1.2,0.5h-4.7l-0.3,3c-0.1,0.6,0,1,0.1,1.1s0.4,0.2,0.8,0.2h2.3c0.2,0,0.3,0,0.4-0.1
			c0.6-1.8,1.5-2.3,2.7-1.8c0.4,0.2,0.7,0.6,0.7,1.2c0.1,0.5,0,1-0.2,1.6c-0.3,0.8-0.8,1.5-1.3,1.8c-0.6,0.4-1.3,0.5-2.3,0.5
			L270.4,251.7L270.4,251.7z M270.9,240.9h2.2c0.4,0,0.6-0.2,0.7-0.6l0.1-1.1l0.1-1.1c0-0.4-0.1-0.6-0.5-0.6h-1.7
			c-0.4,0-0.6,0.2-0.7,0.6L270.9,240.9z"/>
	</g>
</g>
</svg>
