<?xml version="1.0" encoding="utf-8"?>
<!-- Generator: Adobe Illustrator 26.3.1, SVG Export Plug-In . SVG Version: 6.00 Build 0)  -->
<svg version="1.1" id="圖層_1" xmlns="http://www.w3.org/2000/svg" xmlns:xlink="http://www.w3.org/1999/xlink" x="0px" y="0px"
	 viewBox="0 0 280 312" style="enable-background:new 0 0 280 312;" xml:space="preserve">
<style type="text/css">
	.st0{fill:#FBD4A9;}
	.st1{fill:#F6C291;}
	.st2{fill:#3B6E81;}
	.st3{fill:#58A1BD;}
	.st4{fill:#5392AC;}
	.st5{fill:#A4D2D3;}
	.st6{fill:#F5C8C1;}
	.st7{fill:#CDD7DB;}
	.st8{fill:#FBE6DE;}
	.st9{opacity:0.5;fill:#CFDDE1;enable-background:new    ;}
	.st10{fill:#F9E0D4;}
	.st11{fill:#BECBD0;}
	.st12{opacity:0.5;fill:#C1D3D9;enable-background:new    ;}
	.st13{fill:#CFDDE1;}
	.st14{fill:#E9979A;}
	.st15{fill:#DD8486;}
	.st16{fill:#9CCFD0;}
	.st17{fill:#E69295;}
	.st18{fill:#F8D4CD;}
	.st19{fill:#D6EEF5;}
	.st20{fill:#3D7083;}
	.st21{fill:#FBE8E9;}
	.st22{fill:#F4C3C1;}
	.st23{fill:#FFF5F1;}
	.st24{fill:#316073;}
	.st25{fill:#F8D8D9;}
	.st26{fill:url(#SVGID_1_);}
	.st27{fill:#EDB128;}
	.st28{fill:#407589;}
	.st29{fill:#4E8CA5;}
	.st30{fill:#5293AC;}
	.st31{fill:url(#SVGID_00000106136730014381805440000002509924861305772439_);}
	.st32{fill:#FAD5AF;}
	.st33{fill:#396473;}
	.st34{fill:url(#SVGID_00000058591590314940201930000006039589568945073037_);}
	.st35{fill:url(#SVGID_00000099658613035856982840000015703959616929529999_);}
	.st36{fill:url(#SVGID_00000016076961769279301150000001949593845283782546_);}
	.st37{fill:url(#SVGID_00000104705472752743103660000008587943524504650114_);}
	.st38{fill:url(#SVGID_00000166663625435578250650000014129465455054699432_);}
	.st39{fill:#59A1BD;}
	.st40{fill:#3B6C7F;}
	.st41{fill:none;}
	.st42{fill:#FFD400;}
	.st43{fill:#1C0D5B;}
</style>
<g>
	<circle class="st0" cx="152.9" cy="171.3" r="121"/>
	<path class="st1" d="M62.5,90.9c-19,21.4-30.6,49.6-30.6,80.4c0,66.8,54.2,121,121,121s121-54.2,121-121c0-3.4-0.1-6.7-0.4-10
		c-22,2.6-41,10.6-71.3,0.3c-38.6-13.1-65-55.3-111.2-66.8C82.5,92.6,73.1,91,62.5,90.9z"/>
	<g>
		<path class="st2" d="M33.7,192c2.8,16.2,8.8,31.4,17.4,44.7c1.8-27.6,3.8-54.9,4.4-58.3C50.1,177.6,40.7,182.3,33.7,192z"/>
		<path class="st3" d="M35,198.4c3.8,16.4,10.9,31.6,20.5,44.7v-64.7C55.5,178.4,42.3,184.3,35,198.4z"/>
		<path class="st4" d="M41.6,188.9c0,4.3-0.1,15.6-0.2,29.4c1.8,4.3,3.9,8.5,6.2,12.6v-47.5C47.6,183.4,44.6,185.6,41.6,188.9z"/>
		<path class="st5" d="M43.4,222.9c0.7,1.5,1.5,3,2.2,4.5v-42.5c0,0-0.8,0.6-2.1,2C43.6,191.8,43.5,206.1,43.4,222.9z"/>
		<rect x="51.3" y="197.2" class="st6" width="1.8" height="14.7"/>
	</g>
	<g>
		<path class="st7" d="M270.4,200.4h-4.3v13.9C267.8,209.8,269.2,205.1,270.4,200.4z"/>
		<path class="st8" d="M270.4,200.4h-2v7.1C269.2,205.1,269.8,202.8,270.4,200.4z"/>
	</g>
	<g>
		<path class="st7" d="M237.8,257.6c7.6-7.4,14.1-15.8,19.5-25v-46.4h-19.5L237.8,257.6L237.8,257.6z"/>
		<path class="st8" d="M259.4,228.8v-42.6h-19.5v69.3C247.5,247.5,254.1,238.6,259.4,228.8z"/>
		<g>
			<rect x="243.3" y="190.8" class="st7" width="2.1" height="53.6"/>
			<path class="st9" d="M250.7,190.8h-2.1v53.6h0.7c0.5-0.6,0.9-1.2,1.4-1.9L250.7,190.8L250.7,190.8z"/>
			<path class="st7" d="M256,234.7v-43.9h-2.1V238C254.6,236.9,255.3,235.8,256,234.7z"/>
		</g>
	</g>
	<g>
		<path class="st10" d="M160.1,292.1c5.7-0.3,11.2-1.1,16.6-2.1v-87.3h-16.6V292.1z"/>
		<g>
			<rect x="163" y="206.6" class="st11" width="1.8" height="45.7"/>
			<rect x="167.6" y="206.6" class="st12" width="1.8" height="45.7"/>
			<rect x="172.1" y="206.6" class="st11" width="1.8" height="45.7"/>
		</g>
	</g>
	<g>
		<polygon class="st7" points="209.6,175.8 209.6,171.2 209.6,171.2 209.6,168.9 211.5,168.9 211.5,167.7 209.6,167.7 199.8,167.7 
			197.9,167.7 197.9,171.2 194.3,171.2 194.3,175.8 184,175.8 184,277.1 211.9,277.1 211.9,175.8 		"/>
		<polygon class="st8" points="211.6,175.8 211.6,167.7 199.8,167.7 199.8,171.2 196.3,171.2 196.3,175.8 186.7,175.8 186.7,277.1 
			214.6,277.1 214.6,175.8 		"/>
		<rect x="191" y="208.7" class="st7" width="13.8" height="3.7"/>
		<rect x="191" y="215" class="st9" width="13.8" height="3.7"/>
		<rect x="191" y="221.3" class="st9" width="13.8" height="3.7"/>
		<rect x="191" y="227.6" class="st7" width="13.8" height="3.7"/>
		<rect x="191" y="233.9" class="st7" width="13.8" height="3.7"/>
		<rect x="186.7" y="179.3" class="st7" width="27.9" height="1.5"/>
		<rect x="191" y="183.5" class="st7" width="13.8" height="3.7"/>
		<rect x="191" y="189.8" class="st9" width="13.8" height="3.7"/>
		<rect x="191" y="196.1" class="st7" width="13.8" height="3.7"/>
		<rect x="191" y="202.4" class="st9" width="13.8" height="3.7"/>
	</g>
	<g>
		<path class="st8" d="M135.3,194.2v-4.6h-1.9V186h-11.9v3.6h-1.8v4.6h-6.5v91.4c9,3.1,18.6,5.2,28.4,6.1v-97.5L135.3,194.2
			L135.3,194.2z"/>
		<rect x="113" y="220.7" class="st9" width="28.6" height="2.1"/>
		<rect x="113" y="226" class="st7" width="28.6" height="2.1"/>
		<rect x="113" y="231.3" class="st7" width="28.6" height="2.1"/>
		<rect x="113" y="236.5" class="st9" width="28.6" height="2.1"/>
		<rect x="113" y="241.8" class="st9" width="28.6" height="2.1"/>
		<rect x="113" y="199.6" class="st9" width="28.6" height="2.1"/>
		<rect x="113" y="204.9" class="st7" width="28.6" height="2.1"/>
		<rect x="113" y="210.2" class="st9" width="28.6" height="2.1"/>
		<rect x="113" y="215.4" class="st7" width="28.6" height="2.1"/>
		<rect x="113" y="262.9" class="st9" width="28.6" height="2.1"/>
		<rect x="113" y="268.1" class="st7" width="28.6" height="2.1"/>
		<rect x="113" y="273.4" class="st13" width="28.6" height="2.1"/>
		<rect x="113" y="278.7" class="st13" width="28.6" height="2.1"/>
		<path class="st13" d="M113,285.6c0.5,0.2,1,0.3,1.4,0.5h27.2V284H113V285.6z"/>
		<rect x="113" y="247.1" class="st7" width="28.6" height="2.1"/>
		<rect x="113" y="252.3" class="st9" width="28.6" height="2.1"/>
		<rect x="113" y="257.6" class="st7" width="28.6" height="2.1"/>
		<rect x="121.5" y="186" class="st13" width="11.9" height="1.2"/>
	</g>
	<g>
		<path class="st14" d="M106.2,282.9l-9.7-110.7H69.7l-7,79.7C74.7,265.3,89.5,275.9,106.2,282.9z"/>
		<path class="st15" d="M93.8,276.9l-4.9-104.6H74.6l-4.1,87.6C77.5,266.4,85.3,272.1,93.8,276.9z"/>
		<path class="st16" d="M90.2,274.8l-3.4-102.6H76.6l-3,90.4C78.8,267.2,84.4,271.3,90.2,274.8z"/>
		<polygon class="st17" points="96.5,161.5 96.5,157.9 88.9,157.9 88.9,161.5 76.6,161.5 76.6,157.9 69.7,157.9 69.7,172.3 
			76.6,172.3 76.6,172.2 88.9,172.2 88.9,172.3 96.5,172.3 102,174.5 102,163.7 		"/>
		<path class="st18" d="M102,174.5l-5.5-2.2l9.7,110.7c2.2,0.9,4.4,1.8,6.7,2.6L102,174.5z"/>
		<polygon class="st19" points="76.4,178.6 87,178.6 87,177.2 76.4,177.2 		"/>
		<polygon class="st19" points="76.2,184.3 87.2,184.3 87.2,182.9 76.3,182.9 		"/>
		<polygon class="st19" points="76,189.9 87.4,189.9 87.3,188.5 76.1,188.5 		"/>
		<polygon class="st19" points="75.8,195.6 87.6,195.6 87.5,194.2 75.9,194.2 		"/>
		<polygon class="st19" points="75.7,201.2 87.8,201.2 87.7,199.8 75.7,199.8 		"/>
		<polygon class="st19" points="75.5,206.9 88,206.9 87.9,205.5 75.5,205.5 		"/>
		<polygon class="st19" points="75.3,212.5 88.1,212.5 88.1,211.1 75.3,211.1 		"/>
		<polygon class="st19" points="75.1,218.2 88.3,218.2 88.3,216.8 75.1,216.8 		"/>
		<polygon class="st19" points="74.9,223.8 88.5,223.8 88.5,222.4 75,222.4 		"/>
		<polygon class="st19" points="74.7,229.5 88.7,229.5 88.7,228.1 74.8,228.1 		"/>
		<polygon class="st19" points="74.5,235.1 88.9,235.1 88.9,233.7 74.6,233.7 		"/>
		<polygon class="st19" points="74.4,240.8 89.1,240.8 89.1,239.4 74.4,239.4 		"/>
		<polygon class="st19" points="74.2,246.4 89.3,246.4 89.2,245 74.2,245 		"/>
		<polygon class="st19" points="74,252.1 89.5,252.1 89.4,250.7 74,250.7 		"/>
		<polygon class="st19" points="73.8,257.7 89.7,257.7 89.6,256.3 73.8,256.3 		"/>
		<path class="st19" d="M73.6,262.7c0.2,0.2,0.5,0.4,0.8,0.6h15.5v-1.4H73.7L73.6,262.7z"/>
		<path class="st19" d="M90,267.6H79.7c0.6,0.5,1.2,0.9,1.8,1.4H90V267.6z"/>
		<path class="st19" d="M90.2,273.2h-2.5c0.7,0.5,1.5,1,2.2,1.4h0.3V273.2z"/>
	</g>
	<g>
		<path class="st5" d="M104.4,282.2h42.4V277h-53C97.2,278.8,100.8,280.6,104.4,282.2z"/>
		<path class="st20" d="M93.8,276.9h53v-2.6H89.4C90.8,275.2,92.3,276.1,93.8,276.9z"/>
		<g>
			<path class="st21" d="M132.2,265.1H88.9c-0.3,0-0.6,0.3-0.6,0.6v8c0.4,0.2,0.7,0.4,1.1,0.7h45.2v-6.8
				C134.6,266.1,133.5,265.1,132.2,265.1z"/>
			<path class="st20" d="M129.7,272H127c-0.3,0-0.5-0.2-0.5-0.5v-3.7c0-0.3,0.2-0.5,0.5-0.5h2.7c0.3,0,0.5,0.2,0.5,0.5v3.7
				C130.1,271.8,129.9,272,129.7,272z"/>
			<path class="st20" d="M123.8,272h-2.7c-0.3,0-0.5-0.2-0.5-0.5v-3.7c0-0.3,0.2-0.5,0.5-0.5h2.7c0.3,0,0.5,0.2,0.5,0.5v3.7
				C124.3,271.8,124.1,272,123.8,272z"/>
			<path class="st20" d="M115.8,272h-2.7c-0.3,0-0.5-0.2-0.5-0.5v-3.7c0-0.3,0.2-0.5,0.5-0.5h2.7c0.3,0,0.5,0.2,0.5,0.5v3.7
				C116.2,271.8,116,272,115.8,272z"/>
			<path class="st20" d="M109.9,272h-2.7c-0.3,0-0.5-0.2-0.5-0.5v-3.7c0-0.3,0.2-0.5,0.5-0.5h2.7c0.3,0,0.5,0.2,0.5,0.5v3.7
				C110.4,271.8,110.1,272,109.9,272z"/>
			<path class="st20" d="M101.9,272h-2.7c-0.3,0-0.5-0.2-0.5-0.5v-3.7c0-0.3,0.2-0.5,0.5-0.5h2.7c0.3,0,0.5,0.2,0.5,0.5v3.7
				C102.3,271.8,102.1,272,101.9,272z"/>
			<path class="st20" d="M96,272h-2.7c-0.3,0-0.5-0.2-0.5-0.5v-3.7c0-0.3,0.2-0.5,0.5-0.5H96c0.3,0,0.5,0.2,0.5,0.5v3.7
				C96.5,271.8,96.2,272,96,272z"/>
		</g>
	</g>
	<g>
		<path class="st22" d="M245.1,246.7h-48.8l-11.2,39.8h4.9c22-7.1,41.2-20.3,55.6-37.6L245.1,246.7z"/>
		<polygon class="st22" points="243.4,237.4 198.1,237.4 200.6,232.6 241.5,232.6 		"/>
		<path class="st23" d="M175.2,286.5h14.9c4.7-1.5,9.3-3.3,13.7-5.4v-29.5h-18L175.2,286.5z"/>
		<path class="st23" d="M237.6,257.8c2-2,3.9-4,5.8-6.1h-5.8V257.8z"/>
		<path class="st24" d="M228.2,259.7h-14.8c-1,0-1.9,0.8-1.9,1.9v15.6c6.6-3.6,12.8-7.9,18.6-12.7v-3
			C230,260.6,229.2,259.7,228.2,259.7z"/>
		<path class="st24" d="M220.6,207.4c0,0-8.5,7.4-16,13.7c-5.3,4.4-12.6,8.6-17.4,10.7c-0.8,0.4-0.5,1.4,0.4,1.4H254
			c0.9,0,1.2-1,0.4-1.4c-4.3-2.1-10.8-6.2-16.4-10.7C230.1,214.8,220.6,207.4,220.6,207.4z"/>
		<path class="st25" d="M245.8,248.9l-0.7-2.2h-48.7l-1.2,4h49C244.7,250.1,245.2,249.5,245.8,248.9z"/>
		<path class="st24" d="M252,240.7c-1.5-0.8-3.1-1.9-5-3.3h-51.2c-6.5,4.9-10.4,5.4-16.2,7.8c-1,0.4-0.6,1.6,0.5,1.6h67.4
			C249.1,244.8,250.6,242.8,252,240.7z"/>
		
			<linearGradient id="SVGID_1_" gradientUnits="userSpaceOnUse" x1="220.7" y1="341.7117" x2="220.7" y2="330.6548" gradientTransform="matrix(1 0 0 1 0 -86)">
			<stop  offset="0" style="stop-color:#E96467"/>
			<stop  offset="6.161749e-02" style="stop-color:#E96769"/>
			<stop  offset="0.6129" style="stop-color:#EC797C"/>
			<stop  offset="1" style="stop-color:#ED8082"/>
		</linearGradient>
		<rect x="217.3" y="244.7" class="st26" width="6.8" height="11.1"/>
		<path class="st27" d="M225.4,202.7c0-2.6-2.1-4.7-4.7-4.7s-4.7,2.1-4.7,4.7c0,1.5,0.7,2.9,1.9,3.7l-0.5,3.9h6.8l-0.6-3.9
			C224.7,205.5,225.4,204.2,225.4,202.7z"/>
	</g>
	<g>
		<path class="st28" d="M141.4,217.2l-0.4-27.1h-15.9l5.2,27.1l-17.9,68.1c9.2,3.3,18.9,5.5,29,6.4V217.2L141.4,217.2z"/>
		<path class="st29" d="M161.6,217.2l6.3-27.1H141l0.3,29v72.7h0.1c3.8,0.4,7.6,0.5,11.5,0.5c9.8,0,19.3-1.2,28.3-3.3L161.6,217.2z"
			/>
		<polygon class="st30" points="148.3,49.5 146.4,49.5 146.4,32.9 144.9,32.9 144.9,49.5 143,49.5 141.6,58.9 144.9,58.9 
			146.4,58.9 149.8,58.9 		"/>
		<polygon class="st30" points="152.8,76.8 145.7,76.8 138.6,76.8 127.4,81.9 164,81.9 		"/>
		
			<linearGradient id="SVGID_00000067213949925721664900000007363555755729401256_" gradientUnits="userSpaceOnUse" x1="145.7" y1="167.9062" x2="145.7" y2="162.8281" gradientTransform="matrix(1 0 0 1 0 -86)">
			<stop  offset="5.181351e-03" style="stop-color:#2E6A86"/>
			<stop  offset="0.2435" style="stop-color:#2E6A86;stop-opacity:0"/>
		</linearGradient>
		<polygon style="fill:url(#SVGID_00000067213949925721664900000007363555755729401256_);" points="152.8,76.8 145.7,76.8 
			138.6,76.8 127.4,81.9 164,81.9 		"/>
		<polygon class="st29" points="139.9,81.6 167.9,81.6 161.7,109.4 141.4,109.4 		"/>
		<g>
			<rect x="140.2" y="89.8" class="st0" width="26.5" height="1"/>
			<rect x="140.2" y="100.2" class="st0" width="26.1" height="1"/>
		</g>
		<g>
			<rect x="140.2" y="89.8" class="st0" width="26.5" height="1"/>
			<rect x="140.2" y="100.2" class="st0" width="26.1" height="1"/>
		</g>
		<polygon class="st29" points="141,109.4 167.9,109.4 161.7,136 141.4,136 		"/>
		<polygon class="st29" points="141,136 167.9,136 161.7,163.1 141.4,163.1 		"/>
		<polygon class="st29" points="141,163.1 167.9,163.1 161.7,190.1 141.4,190.1 		"/>
		<polygon class="st28" points="138.6,76.8 136.2,58.9 144.8,58.9 144.8,76.8 		"/>
		<polygon class="st29" points="144.8,58.9 154.9,58.9 152.8,76.8 144.8,76.8 		"/>
		<g>
			<rect x="140.2" y="117" class="st0" width="26.5" height="1"/>
			<rect x="140.2" y="127.4" class="st0" width="26.1" height="1"/>
		</g>
		<g>
			<rect x="140.2" y="143.8" class="st0" width="26" height="1"/>
			<rect x="140.2" y="154.3" class="st0" width="23.5" height="1"/>
		</g>
		<g>
			<rect x="140.2" y="170.9" class="st0" width="26" height="1"/>
			<rect x="140.2" y="181.3" class="st0" width="23.5" height="1"/>
		</g>
		<g>
			<rect x="140.2" y="198" class="st0" width="25.8" height="1"/>
			<rect x="140.2" y="208.4" class="st0" width="23.4" height="1"/>
		</g>
		<polygon class="st28" points="125.1,109.4 141,109.4 141.4,136 130.3,136 		"/>
		<polygon class="st28" points="125.1,136 141,136 141.4,163.1 130.3,163.1 		"/>
		<polygon class="st28" points="125.1,163.1 141,163.1 141.4,190.1 130.3,190.1 		"/>
		<polygon class="st28" points="125.1,81.6 139.9,81.6 141.4,109.4 130.3,109.4 		"/>
		<g>
			<polygon class="st30" points="140.3,89.8 126.7,89.8 126.9,90.9 140.4,90.9 			"/>
			<polygon class="st30" points="140.9,100.2 128.6,100.2 128.8,101.3 141,101.3 			"/>
		</g>
		<g>
			<polygon class="st30" points="144.8,66 137.2,66 137.3,66.9 144.8,66.9 			"/>
			<polygon class="st30" points="144.8,71.5 137.9,71.5 138,72.4 144.8,72.4 			"/>
		</g>
		<g>
			<polygon class="st32" points="144.8,66 154.1,66 153.9,66.9 144.8,66.9 			"/>
			<polygon class="st32" points="144.8,71.5 153.4,71.5 153.3,72.4 144.8,72.4 			"/>
		</g>
		<g>
			<polygon class="st30" points="141.1,117 126.6,117 126.9,118.1 141.1,118.1 			"/>
			<polygon class="st30" points="128.7,127.4 128.9,128.5 141.3,128.5 141.3,127.4 			"/>
		</g>
		<g>
			<polygon class="st30" points="141.1,143.8 126.6,143.8 126.9,144.9 141.1,144.9 			"/>
			<polygon class="st30" points="128.7,154.2 128.9,155.3 141.3,155.3 141.3,154.2 			"/>
		</g>
		<g>
			<polygon class="st30" points="141.1,170.9 126.6,170.9 126.9,171.9 141.1,171.9 			"/>
			<polygon class="st30" points="128.7,181.3 128.9,182.4 141.3,182.4 141.3,181.3 			"/>
		</g>
		<g>
			<polygon class="st30" points="141.1,197.9 126.6,197.9 126.9,199 141.1,199 			"/>
			<polygon class="st30" points="128.7,208.3 128.9,209.4 141.3,209.4 141.3,208.3 			"/>
		</g>
		<polygon class="st33" points="125.1,81.6 167.9,81.6 167.5,83.3 125.5,83.3 		"/>
		<polygon class="st33" points="136.2,58.9 154.9,58.9 154.7,60.6 136.5,60.6 		"/>
		<polygon class="st33" points="125.1,109.4 167.9,109.4 167.5,111 125.5,111 		"/>
		<polygon class="st33" points="125.1,136 167.9,136 167.5,137.7 125.5,137.7 		"/>
		<polygon class="st33" points="125.1,163.1 167.9,163.1 167.5,164.7 125.5,164.7 		"/>
		<polygon class="st33" points="125.1,190.1 167.9,190.1 167.5,191.8 125.5,191.8 		"/>
		
			<linearGradient id="SVGID_00000090975955808572637370000000855319038750257025_" gradientUnits="userSpaceOnUse" x1="146.5" y1="303.233" x2="146.5" y2="276.133" gradientTransform="matrix(1 0 0 1 0 -86)">
			<stop  offset="5.181351e-03" style="stop-color:#2E6A86"/>
			<stop  offset="0.2435" style="stop-color:#2E6A86;stop-opacity:0"/>
		</linearGradient>
		<polygon style="fill:url(#SVGID_00000090975955808572637370000000855319038750257025_);" points="125.1,190.1 130.3,217.2 
			161.7,216.9 167.9,190.1 		"/>
		
			<linearGradient id="SVGID_00000173883235259852781430000011990739362517530768_" gradientUnits="userSpaceOnUse" x1="146.5" y1="276.1293" x2="146.5" y2="249.0293" gradientTransform="matrix(1 0 0 1 0 -86)">
			<stop  offset="5.181351e-03" style="stop-color:#2E6A86"/>
			<stop  offset="0.2435" style="stop-color:#2E6A86;stop-opacity:0"/>
		</linearGradient>
		<polygon style="fill:url(#SVGID_00000173883235259852781430000011990739362517530768_);" points="125.1,163 130.3,190.1 
			161.7,190.1 167.9,163 		"/>
		
			<linearGradient id="SVGID_00000009582772461797141390000009121643596378996155_" gradientUnits="userSpaceOnUse" x1="146.5" y1="249.051" x2="146.5" y2="222.0822" gradientTransform="matrix(1 0 0 1 0 -86)">
			<stop  offset="5.181351e-03" style="stop-color:#2E6A86"/>
			<stop  offset="0.2435" style="stop-color:#2E6A86;stop-opacity:0"/>
		</linearGradient>
		<polygon style="fill:url(#SVGID_00000009582772461797141390000009121643596378996155_);" points="125.1,136.1 130.3,163.1 
			161.7,163.1 167.9,136.1 		"/>
		
			<linearGradient id="SVGID_00000074401862341152673140000004460009499818525340_" gradientUnits="userSpaceOnUse" x1="146.5" y1="222.047" x2="146.5" y2="195.3641" gradientTransform="matrix(1 0 0 1 0 -86)">
			<stop  offset="5.181351e-03" style="stop-color:#2E6A86"/>
			<stop  offset="0.2435" style="stop-color:#2E6A86;stop-opacity:0"/>
		</linearGradient>
		<polygon style="fill:url(#SVGID_00000074401862341152673140000004460009499818525340_);" points="125.1,109.4 130.3,136 
			161.7,136 167.9,109.4 		"/>
		
			<linearGradient id="SVGID_00000144330166093932382360000012388572316414329256_" gradientUnits="userSpaceOnUse" x1="146.5" y1="195.3641" x2="146.5" y2="167.7056" gradientTransform="matrix(1 0 0 1 0 -86)">
			<stop  offset="5.181351e-03" style="stop-color:#2E6A86"/>
			<stop  offset="0.2435" style="stop-color:#2E6A86;stop-opacity:0"/>
		</linearGradient>
		<polygon style="fill:url(#SVGID_00000144330166093932382360000012388572316414329256_);" points="125.1,81.7 130.3,109.4 
			161.7,109.4 167.9,81.7 		"/>
		<path class="st39" d="M153.5,219.5c4.7,0,8.5,5.3,8.5,11.9c0,6.6-3.8,11.9-8.5,11.9s-8.5-5.3-8.5-11.9S148.8,219.5,153.5,219.5z"
			/>
		<path class="st40" d="M153.5,222.5c3.1,0,5.6,4,5.6,8.9s-2.5,8.9-5.6,8.9s-5.6-4-5.6-8.9C147.9,226.4,150.4,222.5,153.5,222.5z"/>
	</g>
	<path class="st41" d="M152.9,50.3c-1.5,0-3,0.1-4.5,0.1l-0.1-1h-1.9V32.9h-1.5v16.5H143l-0.2,1.3C80.7,55.9,31.9,107.9,31.9,171.3
		c0,66.8,54.2,121,121,121s121-54.2,121-121S219.8,50.3,152.9,50.3z"/>
</g>
<path class="st42" d="M109.2,312c-2.1,0-4.2-0.3-6.2-1c-44.5-14.6-80.3-49.8-95.8-94c-3.6-10.4,1.8-21.7,12.2-25.4
	c10.4-3.6,21.7,1.8,25.4,12.2c11.4,32.6,37.9,58.6,70.7,69.4c10.4,3.4,16.1,14.7,12.7,25.1C125.4,306.7,117.6,312,109.2,312z"/>
<g>
	<path class="st43" d="M28.9,219.2l7.8,16.1l-10.5,5.1l-1.5-3.1l1.2-0.6L21,226.6l-1.2,0.6l-1.4-2.9L28.9,219.2z M27.6,223.4
		l-3.8,1.8l4.9,10.1l3.8-1.9L27.6,223.4z M44.4,226.8c-1,3.2-2.6,7.5-4,9.7l-2.9-1.6c0.4-0.6,0.8-1.3,1.2-2.1
		c-6.8-12.4-7.6-14.1-8.7-15.1c0.5-0.4,1.7-1.6,2.3-2.2c0.5,0.5,1.2,0.9,2.3,1.3c1.1,0.5,5.3,1.7,9,1.9l0.2,3.5
		c-3-0.4-6-1.3-8.6-2.3l5.1,9.6c0.6-1.4,1.1-2.9,1.6-4.2L44.4,226.8z"/>
	<path class="st43" d="M32.1,246.8c2.2-0.5,5.7-1.6,8.7-2.7l0.3,2.9c-2.8,1.1-5.8,2.2-8.5,2.9L32.1,246.8z M49.6,262.7
		c0,0-0.6,0.4-1,0.6c-1.9,1-3.1,1.3-4,1.1c-0.8-0.2-1.4-0.7-2.1-1.5c-0.6-0.7-1.5-1.9-2.5-3.3c0.5-0.5,1-1.3,1.3-2.1
		c0.9,1.3,1.9,2.7,2.3,3.2c0.3,0.4,0.6,0.7,0.9,0.8c0.3,0.1,0.8,0,1.6-0.3l-8.4-10.5c1.2-0.4,2.9-1.2,4.3-1.9l7.1,8.9l0.7-0.5
		l-7.6-9.5l1.4-1.1l9.4,11.8l-3.4,2.7l-7.3-9.2l-0.8,0.4L49.6,262.7z M42.5,242.7c0.1-1.1,0-3.2-0.3-4.7H45c0.3,1.5,0.6,3.5,0.5,4.7
		H42.5z M46.4,244.5c-1.2,0.6-2.5,1.2-3.5,1.4c0-0.4,0-1.2-0.1-1.6c1-0.2,2-0.6,2.9-1.2L46.4,244.5z M44.5,247
		c0.6-0.5,1.5-1.5,2.1-2.3l1.1,0.8c-0.5,0.8-1.4,1.8-2,2.3L44.5,247z M49.3,246.4c0.2-0.2,0.3-0.4,0.5-0.7c-2.5-2.3-3-2.8-3.4-3
		c0.2-0.2,0.5-0.9,0.6-1.3c0.3,0.3,0.8,0.4,1.5,0.4c0.3,0,1.2,0.1,2.2,0c-0.9-1-1.3-1.3-1.6-1.4c0.1-0.2,0.5-0.9,0.6-1.3
		c0.3,0.2,0.6,0.3,1.1,0.2c0.5,0,2.3-0.3,3.7-0.9l0.6,1.7c-1,0.3-2.2,0.5-3.3,0.5l0.8,0.9c0.5-0.1,0.9-0.1,1.3-0.2l0.4,1.7
		c-1.5,0.2-3.2,0.3-4.8,0.2l1.1,1.1c0.1-0.2,0.2-0.5,0.3-0.7l1.2,0.7c-0.4,0.9-1,2-1.5,2.7L49.3,246.4z M46.4,248.4
		c0.6-0.5,1.3-1.5,1.8-2.3l1.1,0.7c-0.5,0.8-1.2,1.8-1.6,2.3L46.4,248.4z M50.3,247.7l3.2,4l-3.1,2.5l-3.2-4L50.3,247.7z
		 M48.1,238.8c0.2-1.1,0.2-3.2,0-4.7l2.8,0.1c0.2,1.5,0.5,3.5,0.3,4.7L48.1,238.8z M49.4,250.7l0.8,1l0.9-0.7l-0.8-1L49.4,250.7z
		 M54.3,254.2c-1.2,0.6-2.4,1.2-3.4,1.3c0-0.4,0-1.2-0.1-1.6c0.9-0.1,1.9-0.6,2.9-1.2L54.3,254.2z M54,251.2l-3.1-3.9l1.1-0.9
		l3.1,3.9L54,251.2z M52.1,256.9c0.6-0.5,1.6-1.6,2.3-2.5l1.1,0.8c-0.6,0.9-1.5,1.9-2.2,2.5L52.1,256.9z M55.6,249.9l-3.1-3.9
		l1.1-0.9l3.1,3.9L55.6,249.9z M57.6,249l-3.9-5l1.3-1l1.6,2c0.3-0.5,0.7-1.2,1-1.8l1.6,1.4c-0.3,0.7-0.7,1.5-1,2l-0.9-0.7L59,248
		L57.6,249z M57.1,256.5c-0.5,1-1.3,2.2-1.9,2.7l-1.3-0.7c0.6-0.6,1.5-1.8,2.1-2.8L57.1,256.5z M57.1,256.2c0.2-0.2,0.3-0.5,0.5-0.7
		c-2.5-2.4-3-2.8-3.4-3c0.2-0.2,0.5-0.9,0.6-1.3c0.3,0.3,0.8,0.4,1.5,0.4c0.3,0,1.2,0.1,2.1,0c-0.9-1-1.3-1.3-1.6-1.4
		c0.2-0.2,0.5-0.9,0.6-1.2c0.2,0.2,0.6,0.2,1.1,0.2s2.3-0.2,3.7-0.8l0.6,1.7c-1,0.3-2.2,0.4-3.3,0.5l0.8,0.9
		c0.4-0.1,0.9-0.2,1.3-0.3l0.4,1.7c-1.5,0.2-3.2,0.3-4.8,0.2l1,1.1c0.1-0.2,0.2-0.5,0.3-0.7l1.2,0.7c-0.4,0.9-1,2.1-1.5,2.7
		L57.1,256.2z"/>
	<path class="st43" d="M60.1,275.3c-0.8,1-1.5,1.5-2.5,1.3s-1.9-0.8-3-1.8c0.4-0.7,0.8-1.9,1-2.8c0.6,0.6,1.3,1.2,1.6,1.3
		c0.2,0.2,0.4,0.2,0.6,0l1.4-1.7c-1.5-0.2-2.9-0.5-4.2-0.7l0.7-2c-1.4,1.4-3,2.7-4.6,3.3c-0.1-0.7-0.5-2-0.8-2.7
		c2.3-0.8,4.1-3,5.5-4.7l3.3-4.1l7.8,6.3L60.1,275.3z M57.7,266.5c-0.5,0.6-1.1,1.3-1.7,2c1.1,0.4,2.8,1,4.4,1.5l1.1-1.3l-1.9,0.4
		c-0.3-0.8-0.9-2.1-1.5-3.1L57.7,266.5z M59.6,264.1l-1.4,1.7l1.8-0.4c0.6,0.9,1.3,2.2,1.6,3.1l1.4-1.7L59.6,264.1z M67.9,263.1
		l2,1.6l-1.7,2l-9.6-7.7l1.7-2l1.9,1.6c0.3-0.7,0.6-1.4,0.9-2.1l2.1,1l-2.8-2.3l1.7-2l3.4,2.8c0.2-0.5,0.4-1,0.5-1.4l2.6,1.2
		c-0.2,0.7-0.5,1.5-0.8,2.2l3.1,2.5l-1.7,2l-3-2.4l1.7,2.1L67.9,263.1z M71,283.4c-1.9,1.9-3.1,2-5,0.5l-3.1-2.5
		c-2.3-1.9-2.6-3.1-0.8-5.3l7.1-8.8l5.3,4.3l0.9-1.1l-5.3-4.3l5.1-6.3l2.4,2l-1.1,1.4l6.1,4.9l-1.6,2l-6.1-4.9l-0.9,1.2l5.3,4.3
		l-3.9,4.8l-5.3-4.3l-0.7,0.8l5.3,4.3l-1.2,1.4l-5.3-4.3l-0.7,0.8l5.2,4.2l-1.1,1.4l-5.2-4.2l-0.7,0.8l5.4,4.4l-1.2,1.4
		C70.4,282.6,70.7,283.1,71,283.4z M67.4,281.8c0.6,0.5,0.9,0.4,1.8-0.4l-4.4-3.6l-0.2,0.2c-0.6,0.8-0.6,1,0.3,1.7L67.4,281.8z
		 M65.4,257.7c-0.3,0.9-0.7,1.9-1,2.6l1.4,1.2c0.8-0.5,1.7-1.1,2.3-1.6L65.4,257.7z"/>
	<path class="st43" d="M84.6,290.6c-3.7-0.8-7.8-1.8-10.8-2.5l0.7-3c1.8,0.5,4.1,1.2,6.7,1.8l-0.5-0.4c1-1.2,2.4-3,3.2-4.4l2.5,2
		c-1.1,1.2-2.2,2.5-3.2,3.4l2.4,0.6L84.6,290.6z M77.1,285c0.5-1.1,1.1-3.1,1.3-4.6l2.5,0.5c-0.2,1.6-0.7,3.5-1.1,4.6L77.1,285z
		 M87.1,283.3l-8.4-4.2l3.3-6.7l8.4,4.2L87.1,283.3z M89.8,293.4c-1.9,0.6-4.7,0.8-6.9,0.6c-0.2-0.7-0.6-1.9-1-2.7
		c2.1,0.3,4.7,0.1,6.2-0.4L89.8,293.4z M86.8,277.6l-3.5-1.7l-1.1,2.2l3.5,1.7L86.8,277.6z M91.7,275.2l-9.6-4.7l1.3-2.6l9.6,4.7
		L91.7,275.2z M95.4,278.5c0.4-0.5,0.7-1,1-1.5l-3.9-1.9l1.2-2.4l11.5,5.7l-1.2,2.4l-4.5-2.2c-0.4,0.5-0.9,0.9-1.3,1.3l4.4,2.2
		l-6.2,12.6L86,289.6l6.2-12.6L95.4,278.5z M95.5,289.8l-5.1-2.5l-0.8,1.5l5.1,2.5L95.5,289.8z M93.6,293.7c0.8,1.5,2,3.6,2.5,4.9
		l-3,0.4c-0.4-1.3-1.5-3.5-2.3-5L93.6,293.7z M97.2,286.3l-5.1-2.5l-0.7,1.5l5.1,2.5L97.2,286.3z M98.9,282.9l-5.1-2.5l-0.7,1.5
		l5.1,2.5L98.9,282.9z"/>
</g>
</svg>
