<?xml version="1.0" encoding="utf-8"?>
<!-- Generator: Adobe Illustrator 26.3.1, SVG Export Plug-In . SVG Version: 6.00 Build 0)  -->
<svg version="1.1" id="圖層_1" xmlns="http://www.w3.org/2000/svg" xmlns:xlink="http://www.w3.org/1999/xlink" x="0px" y="0px"
	 viewBox="0 0 145 175" style="enable-background:new 0 0 145 175;" xml:space="preserve">
<style type="text/css">
	.st0{fill:#ABD9FF;}
	.st1{fill:#8DC6FF;}
	.st2{fill:#F89B25;}
	.st3{fill:#912524;}
	.st4{fill:#F16134;}
	.st5{fill:#FFFFFF;}
	.st6{fill:#8D84BE;}
	.st7{fill:#6B649D;}
	.st8{fill:#446EB4;}
	.st9{fill:#5390CC;}
	.st10{fill:#00A69C;}
	.st11{fill:#FFE576;}
	.st12{fill:#F5E8D8;}
	.st13{fill:#EA5744;}
	.st14{fill:#DD4337;}
	.st15{fill:#518B3F;}
	.st16{fill:#6A97CF;}
	.st17{fill:#6370B4;}
	.st18{fill:#E87454;}
	.st19{fill:#FC866B;}
	.st20{fill:#7DC145;}
	.st21{fill:#4C6C89;}
	.st22{fill:#7E8082;}
	.st23{fill:#929496;}
	.st24{fill:#B1B3B5;}
	.st25{fill:#D0D2D3;}
	.st26{fill:#1EAFAF;}
	.st27{fill:#07928F;}
	.st28{fill:#007872;}
</style>
<g>
	<circle class="st0" cx="72.5" cy="102.5" r="72.5"/>
	<path class="st1" d="M48.1,128.2h-6v-19.7h-9.3V87H14.3v42.5H5.2V96.7h-5c-0.2,1.9-0.2,3.8-0.2,5.8c0,3.2,0.2,6.4,0.6,9.4v-0.5h1.9
		v3.7H1.1c0.1,0.8,0.3,1.6,0.5,2.5h1v3.7H2.5c4.6,17.4,15.6,32.3,30.3,41.9v-0.1h7.8v1.2h10.1v-3h21.9v-55.4H48.2v22.3H48.1z
		 M2.6,109H0.7v-3.7h1.9V109z M2.6,103H0.7v-3.7h1.9V103z M29.9,121.7H16.8v-2.1h13.1V121.7z M29.9,115.9H16.8v-2.1h13.1V115.9z
		 M29.9,110.5H16.8v-2.1h13.1V110.5z M30,104.7H17v-2.1H30V104.7z M30,99.3H17v-2.1H30V99.3z M30,92.7H17v-2.1H30V92.7z"/>
	<g>
		<path class="st1" d="M131.2,135V95.2h-24.8v22.5h-9.3V98.1v-9v-9h-8.8v9H72.9v70.8h21.6v11.4h0.8c18.3-6.1,33.5-19.3,42.1-36.4
			L131.2,135L131.2,135z M118.9,113.3h-3.6V98.1h3.6V113.3z M126.6,113.3H123V98.1h3.6V113.3z"/>
		<path class="st1" d="M137.4,134.9c1.7-3.4,3.2-7,4.3-10.7h-1.1v-6h2.6c0.2-1.1,0.5-2.3,0.7-3.4h-6.6L137.4,134.9L137.4,134.9z"/>
	</g>
	<path class="st2" d="M58.4,5c-0.8,0.8-2.2,0.8-3.1,0s-0.8-2.2,0-3.1s4.7-1.7,4.7-1.7S59.3,4.1,58.4,5z"/>
	<path class="st3" d="M60.4,3.3c0,2-1.6,3.7-3.7,3.7l-0.7-1.5l0.7-1L60.4,3.3z"/>
	<path class="st4" d="M53.1,3.3c0,2,1.6,3.7,3.7,3.7V4.4L53.1,3.3z"/>
	<path class="st5" d="M56.8,2.5c0,0.4-0.3,0.7-0.7,0.7c-0.4,0-0.7-0.3-0.7-0.7s0.3-0.7,0.7-0.7C56.5,1.9,56.8,2.1,56.8,2.5z"/>
	<polygon class="st1" points="31.9,83.8 23.9,69.1 23.9,59.8 22.2,59.8 22.2,69.1 14.9,83.8 	"/>
	<rect x="105.9" y="86.3" class="st1" width="25.3" height="5.6"/>
	<rect x="123.2" y="77.4" class="st1" width="8" height="5.6"/>
	<path class="st1" d="M140.9,111.5h3.5c0.4-2.9,0.5-5.9,0.5-9c0-1.7-0.1-3.5-0.2-5.3h-3.9V111.5z"/>
	<path class="st1" d="M5,93.6v-4.7H1.3C1,90.5,0.8,92,0.6,93.6H5z"/>
	<path class="st6" d="M91.3,106h1.8v27.7H81.5v34.4h11.6h10.4c1.8-0.8,3.6-1.8,5.3-2.8V106h1.8v-4.4H91.3L91.3,106L91.3,106z"/>
	<rect x="97.4" y="102.4" class="st7" width="2.6" height="65.7"/>
	<path class="st7" d="M102.5,168.1h1c0.5-0.2,1.1-0.5,1.6-0.8v-65h-2.6V168.1z"/>
	<path class="st8" d="M134.7,139.8l-4.9-1.6v8.6C131.6,144.6,133.3,142.2,134.7,139.8z"/>
	<path class="st9" d="M134,140.9v-1.4l-4.1-1.4v8.7C131.3,144.9,132.7,142.9,134,140.9z"/>
	<path class="st10" d="M11.7,141.9v-14.5H4.4C6.3,132.5,8.7,137.4,11.7,141.9z"/>
	<path class="st11" d="M93.2,168.6h9.2c1.3-0.5,2.5-1.1,3.7-1.8v-26.2H93.2V168.6z"/>
	<rect x="93.2" y="137.4" class="st12" width="12.9" height="3.1"/>
	<rect x="93.2" y="140.5" class="st5" width="3" height="28"/>
	<path class="st13" d="M112.2,163.2c5.3-3.5,10.1-7.5,14.3-12.2v-28.3h-14.3V163.2z"/>
	<path class="st14" d="M121,156.4c1.9-1.7,3.8-3.5,5.5-5.5v-28.3H121V156.4z"/>
	<path class="st15" d="M104,157.1v10.7c5.9-2.8,11.3-6.4,16.1-10.7H104z"/>
	<g>
		<path class="st16" d="M25.9,158c5.2,4.3,11,8,17.2,10.7h7.1V93.9l-24.3,13.1V158z"/>
		<polygon class="st17" points="50.3,93.9 43.1,97.7 43.1,159.5 50.3,168.8 		"/>
		<g>
			<rect x="29.2" y="109.2" class="st17" width="18.6" height="2.9"/>
		</g>
		<g>
			<rect x="29.2" y="116.1" class="st17" width="18.6" height="2.9"/>
		</g>
		<g>
			<rect x="29.2" y="122.9" class="st17" width="18.6" height="2.9"/>
		</g>
	</g>
	<path class="st18" d="M14.6,146.1c5.2,6.9,11.6,12.8,18.8,17.5v-26.7H14.6V146.1z"/>
	<rect x="14.6" y="133.5" class="st5" width="18.8" height="3.4"/>
	<path class="st19" d="M27.9,159.7c1.7,1.4,3.5,2.6,5.5,3.8v-26.7h-5.5V159.7z"/>
	<path class="st20" d="M25.7,157.9C38,168.3,53.8,174.6,71.1,175v-17.1H45.3v2.3h-9.8v-2.3H25.7z"/>
	<g>
		<g>
			<path class="st20" d="M109.3,158.9H76.8v14.6h10.3c8-1.6,15.5-4.6,22.3-8.6L109.3,158.9L109.3,158.9z"/>
			<path class="st20" d="M112.2,161.9v1.3c0.7-0.4,1.3-0.8,1.9-1.3H112.2z"/>
		</g>
	</g>
	<path class="st21" d="M72.5,175c7.2,0,14.3-1.1,20.9-3.1H51.6C58.2,173.9,65.3,175,72.5,175z"/>
	<g>
		<rect x="59.2" y="145.1" class="st22" width="26.5" height="2.7"/>
		<rect x="59.2" y="117.9" class="st23" width="26.5" height="28.6"/>
		<rect x="56.1" y="151" class="st24" width="32.8" height="11.5"/>
		<polygon class="st23" points="85.7,147.8 59.2,147.8 56.1,151 88.9,151 		"/>
		<rect x="70.1" y="127.4" class="st22" width="4.8" height="13.1"/>
		<rect x="62.4" y="127.4" class="st22" width="4.8" height="13.1"/>
		<rect x="77.5" y="127.4" class="st22" width="4.7" height="13.1"/>
		<rect x="59.2" y="143.8" class="st24" width="26.5" height="2.7"/>
		<rect x="59.2" y="117.9" class="st22" width="26.5" height="6.8"/>
		<rect x="55.7" y="117.9" class="st25" width="33.6" height="5"/>
		<rect x="56.1" y="158" class="st23" width="32.8" height="4.6"/>
		<path class="st24" d="M42.6,168.6c2.9,1.3,5.9,2.5,9,3.4h41.7c3.2-1,6.2-2.1,9.2-3.5v-6H42.6V168.6z"/>
		<path class="st23" d="M101.4,169H43.7c2.6,1.1,5.3,2.1,8,2.9h41.7C96.1,171.1,98.8,170.1,101.4,169z"/>
		<rect x="42.6" y="162.5" class="st5" width="60" height="1.7"/>
		<g>
			<g>
				<polygon class="st26" points="85,90.5 85,99.9 84,101.4 84,112.5 60.9,112.5 60.9,109 65.5,91.8 83.2,83.1 				"/>
				<path class="st27" d="M60.9,109.6c1.7-1.3,3.8-4.3,5.2-6.1c1.3-1.9,4.2-2.5,6.8-3c2.6-0.5,5-1.7,5-4.9c0-2.6,0.4-4.2,1.5-4.2
					c1.1,0.1,2.7,2.7,2.7,1.3c0-1.3,0.7-2.5,1.9-2.5s1.1,1.6,1.1,1.6V86l-1.9-2.5l-11.4,1l-10.6,17.1L60.9,109.6z"/>
				<path class="st28" d="M89.4,59.4c-1.2-0.7-0.7-1.9,0-3.1c0.7-1.2,1.4-2,2.6-1.3l-1,5.2l-2.9,4.9v1.3c0,0,0,2.2-1.6,3.9
					c-0.9,1-4.1,5.2-4.1,5.2l0.4-11.9L89.4,59.4z"/>
				<polygon class="st27" points="92,55 82.4,48.5 80.8,53.8 83,56.5 				"/>
				
					<rect x="77.3" y="53" transform="matrix(0.5185 -0.8551 0.8551 0.5185 -7.5778 100.9334)" class="st27" width="17.1" height="8.4"/>
				
					<rect x="76.6" y="53.4" transform="matrix(0.5185 -0.8551 0.8551 0.5185 -7.5834 100.2004)" class="st26" width="17.1" height="7"/>
				<path class="st27" d="M85,66.7V86l-5,4l-2.2-14v-7.8l5.2-4.6c0,0,0.4,0.3,1.1,0.8C85.1,65.2,85,66.7,85,66.7z"/>
				<path class="st26" d="M83,65.5V66v19.4c0,0-4.7,2.9-8.4,5.4c-2.6,1.7-1,2.4,0,2.7c1,0.4,2.7,1.1-0.8,2.9
					c-3.5,1.9-7.4,3.7-8.2,5.2c-0.8,1.4-2.5,3.7-3.7,3.9c-1.2,0.2,1.2-11.7,1.2-11.7l4.3-21.6l3.5-13.1l11.5,1.9L83,65.5z"/>
				<polygon class="st28" points="76.4,32.5 76.4,30.3 73.3,28.7 71,28.9 71.4,37.7 71.7,42.9 73.2,43.8 77.8,42.6 77.8,40.8 
					76.4,38.9 				"/>
				<path class="st27" d="M76.4,37.5c0,0,0,0.7-1.5,2.5c-1.5,1.7-3.2,2.3-3.2,2.3l6.1,2v-4.1L76.4,37.5z"/>
				<path class="st26" d="M60.9,66.1L59.3,74l1.6,4v10.9c0,0,7.5-5.3,13.7-15.9v-7.8c0,0,2.9-2.2,4.4-4.6c0,0,0-3.1,0-4
					s1.3-1.3,1.3,0S81,62,83,63.6c0,0,0-7.6,0-11.8s-1.7-8.1-3.1-8.1l-13.2-0.7l-6.2,17L60.9,66.1z"/>
				<polygon class="st27" points="61.1,54.6 59,50.8 59,46 57.5,44.3 57.5,41.3 62.5,32.5 63.5,33.2 64.7,35.3 66.4,37.8 64.2,46.1 
									"/>
				<polygon class="st27" points="66.8,32.4 66.8,39.5 71.7,42.9 71.7,28.8 66.5,29.3 				"/>
				<polygon class="st26" points="74.9,31.6 71,35.5 71.7,28.2 74.9,28.2 				"/>
				<polygon class="st5" points="71.7,35.3 68.4,31.7 68.4,28.2 71.7,28.2 				"/>
				<path class="st26" d="M71.7,34h-0.5v-3.3c-1,0.1-1.9,0.4-2.7,0.8V34c0,1.8,1.4,3.2,3.2,3.2l0,0V34z"/>
				<path class="st27" d="M71.7,34h0.5v-3.3c1,0.1,1.9,0.4,2.7,0.8V34c0,1.8-1.4,3.2-3.2,3.2l0,0V34z"/>
				<path class="st27" d="M80.7,30.2l0.5-0.1c0.2,0,0.4-0.1,0.4-0.3s-0.2-0.3-0.3-0.3l-0.5-0.1l-4.6-0.4v0.7v0.7L80.7,30.2z"/>
				<path class="st27" d="M80.2,26.9l0.4-0.2c0.2-0.1,0.2-0.2,0.2-0.4C80.7,26,80.5,26,80.3,26l-0.5,0.1l-4.3,1.4l0.2,0.6l0.2,0.6
					L80.2,26.9z"/>
				<path class="st26" d="M72,21l-0.1-0.5c0-0.2-0.1-0.4-0.3-0.4c-0.2,0-0.3,0.2-0.3,0.3l-0.1,0.5l-0.4,4.6h0.7h0.7L72,21z"/>
				<path class="st26" d="M65.8,23.2l-0.4-0.4c-0.1-0.1-0.3-0.2-0.4-0.1s-0.1,0.3,0,0.4l0.3,0.4l2.8,3.5l0.5-0.4l0.5-0.4L65.8,23.2z
					"/>
				<path class="st27" d="M77.8,23.5l0.3-0.4c0.1-0.2,0.1-0.4,0-0.4c-0.1-0.1-0.3-0.1-0.4,0.1L77.3,23l-3.1,3.3l0.5,0.4l0.5,0.4
					L77.8,23.5z"/>
				<path class="st26" d="M62.7,29.7l-0.5,0.1c-0.2,0-0.4,0.1-0.4,0.3c0,0.2,0.2,0.3,0.3,0.3l0.5,0.1l4.6,0.4v-0.7v-0.7L62.7,29.7z"
					/>
				<path class="st26" d="M62.9,26.9l-0.4-0.2c-0.2-0.1-0.2-0.2-0.2-0.4c0.1-0.2,0.2-0.2,0.4-0.2l0.5,0.1l4.3,1.4l-0.2,0.6L67,28.7
					L62.9,26.9z"/>
				<path class="st28" d="M76.4,30.7c0-2.1-2.5-3.5-5.1-3.5l0.3-1.9c3.1,0,5.5,2.2,5.5,4.8c0,0.9-0.3,1.7-0.7,2.4V30.7z"/>
				<path class="st27" d="M66.9,30.7c0-2.1,2.2-3.4,4.7-3.4v-2c-3.1,0-5.5,2.2-5.5,4.8c0,0.9,0.3,1.7,0.7,2.4L66.9,30.7L66.9,30.7z"
					/>
				<path class="st27" d="M71.7,28.8v-1.9c2.6,0,4.7,1.7,4.7,3.8v1.1C74.4,29.5,71.7,28.8,71.7,28.8z"/>
				<path class="st26" d="M71.7,28.8v-1.9c-2.6,0-4.7,1.7-4.7,3.8v1.1C69,29.5,71.7,28.8,71.7,28.8z"/>
				<path class="st28" d="M63.5,33.2c0,0-0.8,5.4-6,11.1L59,46c0,0,4.4-6.3,5-12L63.5,33.2z"/>
				<path class="st28" d="M59,50.8c0,0,3.6-2.9,5.5-8.1l1.6,2.1L62,52.9l-1,1.3L59,50.8z"/>
				<path class="st26" d="M58.2,63.3l7-22.9c0,0,1-2.9-0.5-5c0,0,2.8,3.7,5.7,5.9c3.2,2.4,4.2,2.4,4.2,2.4L69,49.4l-6.1,7.9l-2.7,8
					L58.2,63.3z"/>
				<path class="st26" d="M62.7,34c0.1-0.7,0.2-1.4,0.1-2c-0.1-1.1-1.1-1.3-1.1-1.3l-0.1-4.4l-1.9-6.4v-3.6l-1.7-2.9l-1.5,2.9v9.8
					l1.3,4.6v3.1c-0.9,1.6-3.2,5.8-2,8.1C57,44.3,61.8,38.5,62.7,34L62.7,34L62.7,34z"/>
				<path class="st2" d="M58.4,5c-0.8,0.8-2.2,0.8-3.1,0s-0.8-2.2,0-3.1s4.7-1.7,4.7-1.7S59.3,4.1,58.4,5z"/>
				<path class="st3" d="M60.4,3.3c0,2-1.6,3.7-3.7,3.7l-0.7-1.5l0.7-1L60.4,3.3z"/>
				<rect x="55.5" y="12.2" class="st26" width="1.3" height="6.2"/>
				<rect x="55.5" y="15" class="st27" width="1.7" height="3.4"/>
				<rect x="56.8" y="12.2" class="st27" width="1.3" height="6.2"/>
				<rect x="54.2" y="10.5" class="st27" width="3" height="2"/>
				<rect x="56.8" y="10.6" class="st28" width="2.5" height="1.9"/>
				<polygon class="st27" points="60.4,11.2 56.8,11.2 56.3,7.6 60.4,7.6 				"/>
				<path class="st4" d="M53.1,3.3c0,2,1.6,3.7,3.7,3.7V4.4L53.1,3.3z"/>
				<path class="st5" d="M56.8,2.5c0,0.4-0.3,0.7-0.7,0.7c-0.4,0-0.7-0.3-0.7-0.7s0.3-0.7,0.7-0.7C56.5,1.9,56.8,2.1,56.8,2.5z"/>
				<path class="st26" d="M55.5,17.2c1,0,1.9-0.8,1.9-1.9c0-1-0.8-1.9-1.9-1.9h-1.3v3.8L55.5,17.2L55.5,17.2z"/>
				<rect x="53.1" y="7.6" class="st26" width="3.7" height="3.7"/>
				<path class="st28" d="M57.8,33.8c-0.5,0.8-1.3,2.3-1.8,4c0.4-1.2,1.6-1.1,1.9-0.4c0.4,0.8,0.4-2.6,0.4-2.6S58.4,32.7,57.8,33.8z
					"/>
				<path class="st27" d="M57.8,30.7l1.1,1.8c0,0-0.1,2,0.7,2s1.4-1,1.4-1s-1.2,4.6-2.5,4.6c-1.3,0-0.8-4.4-0.8-4.4L57.8,30.7
					L57.8,30.7z"/>
				<path class="st26" d="M71.7,42.2c0.8,0.5,5.2,0.3,6.5,0.3c1.1,0,1.7,0.2,2.4,1.1c0.9,1,1.4,2.6,1.4,2.6l-3.1-2.4h-6.2L71.7,42.2
					z"/>
				<path class="st27" d="M74.3,44.8c0.8-0.6,0.1-1.1-0.7-0.6l0,0c-1.5,1-4.6,3.4-8.2,7.8c-2.3,2.8-5.4,6.4-6.9,10
					c-1.4,3.2,0.7,4.5,2.3,4.1c0,0,0.1-5.9,5.7-13C69,49.9,72,46.6,74.3,44.8C74.3,44.9,74.3,44.9,74.3,44.8z"/>
				<path class="st27" d="M64.8,63.6c-3.1,6-3.9,9.9-3.9,12.2c0,1,0,2.2,0,2.2c-1.6,0.4-2.2-2.5-1.1-5.9c0.8-2.5,2.8-6.4,4.7-9.5
					c2-3.2,2.2-3.5,2.6-4.1c0.3-0.4,0.8-0.2,0.5,0.4C67,59.5,66.1,60.9,64.8,63.6z"/>
				<path class="st27" d="M72.8,75.8C67,84.4,60.9,88.8,60.9,88.8v20.8c0,0,2-4.9,2.9-11.5c0.9-6.7,2.1-11.6,5-15.5
					c2.9-3.7,4-5.5,4.6-6.4C74.2,75.2,73.4,74.9,72.8,75.8z"/>
				<path class="st27" d="M80.3,56.5c0-1.3-1.3-1-1.3,0s0,4,0,4c-1.6,2.5-4.4,4.6-4.4,4.6v1c1.8-1.3,3.4-2.9,4.2-4.3
					c0.6-1,0.8-1.1,1-0.8l0,0c1.1,3.2,3.2,4.4,3.2,4.4v-1.9C80.9,62,80.3,57.9,80.3,56.5z"/>
				<path class="st26" d="M93.6,56L92,55c-1.2-0.7-2.8-0.4-3.5,0.8c-0.7,1.2-0.4,2.8,0.8,3.5l1.7,0.9L93.6,56z"/>
				<polygon class="st27" points="71.4,100.8 71.4,114.1 77.8,114.1 77.8,91.4 75.6,97.2 				"/>
				<rect x="56.7" y="112.1" class="st26" width="31.5" height="4"/>
				<rect x="56.7" y="116" class="st27" width="31.5" height="1.8"/>
				<rect x="80.1" y="90.8" class="st27" width="1.9" height="21.3"/>
				<polygon class="st27" points="84,101.4 85,99.9 85,78.7 84,78.7 				"/>
			</g>
		</g>
	</g>
	<rect x="112.2" y="117.9" class="st13" width="14.1" height="2.5"/>
	<rect x="20.8" y="58.5" class="st1" width="4.3" height="1.9"/>
	<rect x="115.3" y="125.4" class="st14" width="8.7" height="1.9"/>
	<rect x="115.3" y="130.2" class="st14" width="8.7" height="1.9"/>
	<rect x="115.3" y="135.1" class="st14" width="8.7" height="1.9"/>
	<rect x="115.3" y="139.9" class="st14" width="8.7" height="1.9"/>
	<rect x="115.3" y="144.9" class="st14" width="8.7" height="1.9"/>
</g>
</svg>
