<?xml version="1.0" encoding="utf-8"?>
<!-- Generator: Adobe Illustrator 26.3.1, SVG Export Plug-In . SVG Version: 6.00 Build 0)  -->
<svg version="1.1" id="圖層_1" xmlns="http://www.w3.org/2000/svg" xmlns:xlink="http://www.w3.org/1999/xlink" x="0px" y="0px"
	 viewBox="0 0 210 210" style="enable-background:new 0 0 210 210;" xml:space="preserve">
<style type="text/css">
	.st0{fill:#C1E0FF;}
	.st1{fill:#FFFFFF;}
	.st2{fill:#FFD400;}
	.st3{fill:#0D70E5;}
	.st4{opacity:0.4;fill:#0D70E5;}
	.st5{fill:#5EAFFF;}
	.st6{fill:#EF4E3E;}
</style>
<g>
	<circle class="st0" cx="110" cy="110" r="100"/>
	<g>
		<g>
			<path class="st1" d="M164.6,44.5l-0.9-2.3L54.1,82.1c0.9,2.4-0.4,5-2.7,5.9c-2.4,0.9-5-0.4-5.8-2.7l-15.2,5.5
				c-3,1.1-4.5,4.4-3.4,7.4l7.1,19.4c0,0,0.1,0,0.1,0c5.4-2,11.5,0.8,13.5,6.3c2,5.5-0.8,11.5-6.3,13.5c0,0-0.1,0-0.1,0l6.4,17.6
				c1.1,3,4.4,4.5,7.4,3.4l15.2-5.5c-0.9-2.4,0.4-5,2.7-5.9c2.4-0.9,5,0.4,5.8,2.7l109.7-39.9l-0.7-2c-0.9,0.3-2-0.1-2.3-1.1
				l-0.1-0.2c-0.3-0.9,0.1-2,1.1-2.3l-0.4-1.1c-0.9,0.3-2-0.1-2.3-1.1l-0.1-0.2c-0.3-0.9,0.1-2,1.1-2.3l0.2,0.7
				c-0.9,0.3-2-0.1-2.3-1.1l-0.1-0.2c-0.3-0.9,0.1-2,1.1-2.3l-0.4-1.1c-0.9,0.3-2-0.1-2.3-1.1l-0.1-0.2c-0.3-0.9,0.1-2,1.1-2.3
				l-0.4-1.1c-0.9,0.3-2-0.1-2.3-1.1l-0.1-0.2c-0.3-0.9,0.1-2,1.1-2.3l-0.4-1.1c-0.9,0.3-2-0.1-2.3-1.1l-0.1-0.2
				c-0.3-0.9,0.1-2,1.1-2.3l-0.4-1.1c-0.9,0.3-2-0.1-2.3-1.1l-0.1-0.2c-0.3-0.9,0.1-2,1.1-2.3l-0.4-1.1c-0.9,0.3-2-0.1-2.3-1.1
				l-0.1-0.2c-0.3-0.9,0.1-2,1.1-2.3l-0.4-1.1c-0.9,0.3-2-0.1-2.3-1.1l-0.1-0.2c-0.3-0.9,0.1-2,1.1-2.3l-0.4-1.1
				c-0.9,0.3-2-0.1-2.3-1.1l-0.1-0.2c-0.3-0.9,0.1-2,1.1-2.3l-0.4-1.1c-0.9,0.3-2-0.1-2.3-1.1l-0.1-0.2c-0.3-0.9,0.1-2,1.1-2.3
				l-0.4-1.1c-0.9,0.3-2-0.1-2.3-1.1l-0.1-0.2c-0.3-0.9,0.1-2,1.1-2.3l-0.4-1.1c-0.9,0.3-2-0.1-2.3-1.1l-0.1-0.2
				c-0.3-0.9,0.1-2,1.1-2.3l-0.4-1.1c-0.9,0.3-2-0.1-2.3-1.1l-0.1-0.2C163.2,45.9,163.7,44.9,164.6,44.5z"/>
			<g>
				<path class="st1" d="M184.6,99.3c-0.4,0.1-0.7,0.4-0.9,0.7c0.4,0.1,0.8,0.1,1.1,0L184.6,99.3z"/>
				<path class="st2" d="M45.5,85.2l-15.2,5.5c-3,1.1-4.5,4.4-3.4,7.4l7.1,19.4c0,0,0.1,0,0.1,0c5.4-2,11.5,0.8,13.5,6.3
					c2,5.5-0.8,11.5-6.3,13.5c0,0-0.1,0-0.1,0l6.4,17.6c1.1,3,4.4,4.5,7.4,3.4l15.2-5.5c-0.8-2.3,0.3-4.9,2.6-5.8L51.2,88
					C48.9,88.8,46.4,87.6,45.5,85.2z"/>
			</g>
			<g>
				<path class="st3" d="M88.6,107.6c-6-16.6-2.5-27,7.3-30.6c9.7-3.5,19.2,2.3,25.2,18.8c6,16.5,2.6,27.4-7.1,31
					C104.2,130.3,94.6,124.1,88.6,107.6z M112,99.1c-4.9-13.4-9.4-16.2-13.5-14.7c-4.1,1.5-5.8,6.5-1,19.9
					c4.9,13.5,9.5,16.5,13.7,15C115.3,117.8,117,112.6,112,99.1z"/>
				<path class="st3" d="M127.8,102.9c-1.5-4-0.3-7,2.6-8.1c2.9-1,5.7,0.5,7.2,4.5c1.5,4,0.3,7.1-2.6,8.2
					C132.2,108.6,129.3,107,127.8,102.9z M134.8,100.4c-1.1-2.9-2.4-3.7-3.6-3.3c-1.2,0.4-1.6,1.9-0.6,4.8c1.1,2.9,2.4,3.8,3.6,3.4
					C135.4,104.9,135.9,103.4,134.8,100.4z M141.9,90.7l2.3-0.9l-3.3,24.7l-2.3,0.8L141.9,90.7z M145.3,105.7
					c-1.5-4-0.3-7.1,2.6-8.1c2.8-1,5.7,0.5,7.2,4.5c1.5,4,0.3,7.1-2.6,8.2C149.7,111.4,146.8,109.7,145.3,105.7z M152.3,103.2
					c-1.1-2.9-2.4-3.7-3.6-3.3c-1.2,0.4-1.7,1.9-0.6,4.8c1.1,2.9,2.4,3.8,3.6,3.3C152.8,107.6,153.3,106.1,152.3,103.2z"/>
			</g>
			<g>
				<path class="st3" d="M119.4,72.5l4-1.5l0.4,1.1l-2.7,1l0.6,1.7L124,74l0.4,1.1l-2.3,0.8l1,2.6l-1.3,0.5L119.4,72.5z"/>
				<path class="st3" d="M124.5,70.6l4-1.5l0.4,1.1l-2.7,1l0.5,1.5l2.3-0.8l0.4,1.1l-2.3,0.8l0.6,1.7l2.8-1l0.4,1.1l-4.1,1.5
					L124.5,70.6z"/>
				<path class="st3" d="M129.9,68.7l4-1.5l0.4,1.1l-2.7,1l0.5,1.5l2.3-0.8l0.4,1.1l-2.3,0.8l0.6,1.7l2.8-1l0.4,1.1l-4.1,1.5
					L129.9,68.7z"/>
				<path class="st3" d="M122.6,81.4l4-1.5L127,81l-2.7,1l0.6,1.7l2.3-0.8l0.4,1.1l-2.3,0.8l1,2.6l-1.3,0.5L122.6,81.4z"/>
				<path class="st3" d="M133.7,84.7l-2.2-2l-0.9,0.3l0.9,2.5l-1.3,0.5l-2.4-6.5l2.3-0.8c1.4-0.5,2.6-0.4,3.2,1.1
					c0.4,1,0.1,1.8-0.6,2.3l2.5,2.1L133.7,84.7z M130.2,82.1l0.8-0.3c0.8-0.3,1.2-0.8,0.9-1.5c-0.3-0.7-0.8-0.8-1.6-0.5l-0.8,0.3
					L130.2,82.1z"/>
				<path class="st3" d="M133.8,77.4l4-1.5l0.4,1.1l-2.7,1l0.5,1.5l2.3-0.8l0.4,1.1l-2.3,0.8l0.6,1.7l2.8-1l0.4,1.1l-4.1,1.5
					L133.8,77.4z"/>
				<path class="st3" d="M139.2,75.4l4-1.5l0.4,1.1l-2.7,1l0.5,1.5l2.3-0.8l0.4,1.1l-2.3,0.8l0.6,1.7l2.8-1l0.4,1.1l-4.1,1.5
					L139.2,75.4z"/>
			</g>
			<path class="st4" d="M52.9,159.1c-0.9,0-1.8-0.2-2.6-0.6c-1.5-0.7-2.7-2-3.2-3.5l-6.6-18l0.5-0.2l0.3,0.4l0,0l-0.2-0.5
				c5.2-1.9,7.9-7.6,6-12.8c-1.9-5.2-7.6-7.9-12.8-6l-0.5,0.2l-0.3-0.4l-7.1-19.4c-0.6-1.6-0.5-3.3,0.2-4.8c0.7-1.5,2-2.7,3.5-3.2
				l15.7-5.7l0.2,0.5c0.8,2.1,3.1,3.2,5.2,2.4c2.1-0.8,3.2-3.1,2.4-5.2l-0.2-0.5l110.7-40.3l1.2,3.3l-0.5,0.2
				c-0.3,0.1-0.6,0.4-0.7,0.7s-0.2,0.7,0,1l0.1,0.2c0.1,0.3,0.4,0.6,0.7,0.7c0.3,0.1,0.7,0.2,1,0l0.5-0.2l0.8,2.1l-0.5,0.2
				c-0.7,0.2-1,1-0.8,1.7l0.1,0.2c0.2,0.7,1,1,1.7,0.8l0.5-0.2l0.8,2.1l-0.5,0.2c-0.7,0.2-1,1-0.8,1.7l0.1,0.2c0.2,0.7,1,1,1.7,0.8
				l0.5-0.2l0.8,2.1l-0.5,0.2c-0.3,0.1-0.6,0.4-0.7,0.7s-0.2,0.7,0,1l0.1,0.2c0.2,0.7,1,1,1.7,0.8l0.5-0.2l0.8,2.1l-0.5,0.2
				c-0.3,0.1-0.6,0.4-0.7,0.7s-0.2,0.7,0,1l0.1,0.2c0.1,0.3,0.4,0.6,0.7,0.7c0.3,0.1,0.7,0.2,1,0l0.5-0.2l0.8,2.1l-0.5,0.2
				c-0.7,0.2-1,1-0.8,1.7l0.1,0.2c0.1,0.3,0.4,0.6,0.7,0.7c0.3,0.1,0.7,0.2,1,0l0.5-0.2l0.8,2.1l-0.5,0.2c-0.3,0.1-0.6,0.4-0.7,0.7
				s-0.2,0.7,0,1l0.1,0.2c0.2,0.7,1,1,1.7,0.8l0.5-0.2l0.8,2.1l-0.5,0.2c-0.3,0.1-0.6,0.4-0.7,0.7s-0.2,0.7,0,1l0.1,0.2
				c0.1,0.3,0.4,0.6,0.7,0.7s0.7,0.2,1,0l0.5-0.2l0.8,2.1l-0.5,0.2c-0.7,0.2-1,1-0.8,1.7l0.1,0.2c0.2,0.7,1,1,1.7,0.8l0.5-0.2
				l0.8,2.1l-0.5,0.2c-0.7,0.2-1,1-0.8,1.7l0.1,0.2c0.2,0.7,1,1,1.7,0.8l0.5-0.2l0.8,2.1l-0.5,0.2c-0.3,0.1-0.6,0.4-0.7,0.7
				s-0.2,0.7,0,1l0.1,0.2c0.2,0.7,1,1,1.7,0.8l0.5-0.2l0.8,2.1l-0.5,0.2c-0.3,0.1-0.6,0.4-0.7,0.7c-0.1,0.3-0.2,0.7,0,1l0.1,0.2
				c0.1,0.3,0.3,0.5,0.5,0.7c0.2-0.2,0.5-0.4,0.9-0.6l0.5-0.2l0.6,1.6l-0.5,0.2c-0.3,0.1-0.7,0.2-1,0.1c-0.1,0.3-0.1,0.6,0,0.9
				l0.1,0.2c0.2,0.7,1,1,1.7,0.8l0.5-0.2l0.8,2.1l-0.5,0.2c-0.3,0.1-0.6,0.4-0.7,0.7s-0.2,0.7,0,1l0.1,0.2c0.1,0.3,0.4,0.6,0.7,0.7
				c0.3,0.1,0.7,0.2,1,0l0.5-0.2l1.1,3L78.3,150.3l-0.2-0.5c-0.8-2.1-3.1-3.2-5.2-2.4c-1,0.4-1.8,1.1-2.3,2.1
				c-0.5,1-0.5,2.1-0.1,3.1l0.2,0.5L55,158.7C54.3,159,53.6,159.1,52.9,159.1z M41.7,137.6l6.2,17.1c0.5,1.3,1.4,2.4,2.7,3
				s2.7,0.7,4,0.2l14.8-5.4c-0.3-1.1-0.2-2.3,0.3-3.4c0.6-1.2,1.6-2.2,2.9-2.6c2.5-0.9,5.2,0.3,6.3,2.6l108.8-39.6l-0.4-1.2
				c-0.4,0.1-0.9,0-1.3-0.2c-0.6-0.3-1-0.7-1.2-1.3l-0.1-0.2c-0.2-0.6-0.2-1.2,0.1-1.8c0.2-0.4,0.5-0.7,0.8-1l-0.1-0.3
				c-1,0.1-2.1-0.5-2.4-1.5l-0.1-0.2c-0.2-0.5-0.2-1,0-1.5c-0.4-0.3-0.8-0.7-1-1.2l-0.1-0.2c-0.2-0.6-0.2-1.2,0.1-1.8
				c0.2-0.4,0.5-0.7,0.8-1l-0.1-0.3c-1,0.1-2.1-0.5-2.4-1.5l-0.1-0.2c-0.2-0.6-0.2-1.2,0.1-1.8c0.2-0.4,0.5-0.7,0.8-1l-0.1-0.3
				c-1,0.1-2.1-0.5-2.4-1.5l-0.1-0.2c-0.4-1,0-2.2,0.9-2.7l-0.1-0.3c-1,0.1-2.1-0.5-2.4-1.5l-0.1-0.2c-0.4-1,0-2.2,0.9-2.7l-0.1-0.3
				c-0.4,0.1-0.9,0-1.3-0.2c-0.6-0.3-1-0.7-1.2-1.3l-0.1-0.2c-0.2-0.6-0.2-1.2,0.1-1.8c0.2-0.4,0.5-0.7,0.8-1l-0.1-0.3
				c-1,0.1-2.1-0.5-2.4-1.5l-0.1-0.2c-0.2-0.6-0.2-1.2,0.1-1.8c0.2-0.4,0.5-0.7,0.8-1l-0.1-0.3c-0.4,0.1-0.9,0-1.3-0.2
				c-0.6-0.3-1-0.7-1.2-1.3l-0.1-0.2c-0.4-1,0-2.2,0.9-2.7l-0.1-0.3c-0.4,0.1-0.9,0-1.3-0.2c-0.6-0.3-1-0.7-1.2-1.3l-0.1-0.2
				c-0.2-0.6-0.2-1.2,0.1-1.8c0.2-0.4,0.5-0.7,0.8-1l-0.1-0.3c-1,0.1-2.1-0.5-2.4-1.5l-0.1-0.2c-0.2-0.6-0.2-1.2,0.1-1.8
				c0.2-0.4,0.5-0.7,0.8-1l-0.1-0.3c-1,0.1-2.1-0.5-2.4-1.5l-0.1-0.2c-0.4-1,0-2.2,0.9-2.7l-0.1-0.3c-1,0.1-2.1-0.5-2.4-1.5
				l-0.1-0.2c-0.4-1,0-2.2,0.9-2.7l-0.1-0.3c-0.4,0.1-0.9,0-1.3-0.2c-0.6-0.3-1-0.7-1.2-1.3l-0.1-0.2c-0.2-0.6-0.2-1.2,0.1-1.8
				c0.2-0.4,0.5-0.7,0.8-1l-0.5-1.4L54.7,82.4c0.6,2.5-0.7,5.1-3.2,6c-2.5,0.9-5.2-0.3-6.3-2.6l-14.8,5.4c-1.3,0.5-2.4,1.4-3,2.7
				c-0.6,1.3-0.7,2.7-0.2,4l6.9,18.9c5.6-1.8,11.7,1.1,13.7,6.7C50,129.2,47.2,135.4,41.7,137.6z"/>
		</g>
		<g>
			<path class="st1" d="M169.3,51.6l-0.6-2.4L55.9,79.4c0.7,2.4-0.8,4.9-3.2,5.6c-2.4,0.7-4.9-0.8-5.6-3.2L31.4,86
				c-3.1,0.8-4.9,4-4.1,7l5.3,19.9c0,0,0.1,0,0.1,0c5.6-1.5,11.4,1.8,12.9,7.4c1.5,5.6-1.8,11.4-7.4,12.9c0,0-0.1,0-0.1,0l4.8,18
				c0.8,3.1,4,4.9,7,4.1l15.7-4.2c-0.7-2.4,0.8-4.9,3.2-5.6c2.4-0.7,4.9,0.8,5.6,3.2l112.8-30.2l-0.6-2.1c-1,0.3-1.9-0.3-2.2-1.3
				l-0.1-0.2c-0.3-1,0.3-1.9,1.3-2.2l-0.3-1.2c-1,0.3-1.9-0.3-2.2-1.3l-0.1-0.2c-0.3-1,0.3-1.9,1.3-2.2l0.2,0.7
				c-1,0.3-1.9-0.3-2.2-1.3l-0.1-0.2c-0.3-1,0.3-1.9,1.3-2.2l-0.3-1.2c-1,0.3-1.9-0.3-2.2-1.3l-0.1-0.2c-0.3-1,0.3-1.9,1.3-2.2
				L182,99c-1,0.3-1.9-0.3-2.2-1.3l-0.1-0.2c-0.3-1,0.3-1.9,1.3-2.2l-0.3-1.2c-1,0.3-1.9-0.3-2.2-1.3l-0.1-0.2
				c-0.3-1,0.3-1.9,1.3-2.2l-0.3-1.2c-1,0.3-1.9-0.3-2.2-1.3l-0.1-0.2c-0.3-1,0.3-1.9,1.3-2.2l-0.3-1.2c-1,0.3-1.9-0.3-2.2-1.3
				l-0.1-0.2c-0.3-1,0.3-1.9,1.3-2.2l-0.3-1.2c-1,0.3-1.9-0.3-2.2-1.3l-0.1-0.2c-0.3-1,0.3-1.9,1.3-2.2l-0.3-1.2
				c-1,0.3-1.9-0.3-2.2-1.3l-0.1-0.2c-0.3-1,0.3-1.9,1.3-2.2l-0.3-1.2c-1,0.3-1.9-0.3-2.2-1.3l-0.1-0.2c-0.3-1,0.3-1.9,1.3-2.2
				l-0.3-1.2c-1,0.3-1.9-0.3-2.2-1.3l-0.1-0.2c-0.3-1,0.3-1.9,1.3-2.2l-0.3-1.2c-1,0.3-1.9-0.3-2.2-1.3l-0.1-0.2
				c-0.3-1,0.3-1.9,1.3-2.2l-0.3-1.2c-1,0.3-1.9-0.3-2.2-1.3l-0.1-0.2C167.8,52.9,168.3,51.9,169.3,51.6z"/>
			<g>
				<path class="st1" d="M184.4,108c-0.4,0.1-0.7,0.3-0.9,0.6c0.3,0.1,0.7,0.2,1.1,0.1L184.4,108z"/>
				<path class="st2" d="M47.1,81.8L31.4,86c-3.1,0.8-4.9,4-4.1,7l5.3,19.9c0,0,0.1,0,0.1,0c5.6-1.5,11.4,1.8,12.9,7.4
					c1.5,5.6-1.8,11.4-7.4,12.9c0,0-0.1,0-0.1,0l4.8,18c0.8,3.1,4,4.9,7,4.1l15.7-4.2c-0.6-2.4,0.7-4.8,3.1-5.5L52.5,85.1
					C50.1,85.6,47.7,84.2,47.1,81.8z"/>
			</g>
			<g>
				<path class="st3" d="M88.1,107.9c-4.6-17.1-0.1-27.2,9.9-29.9c10-2.7,18.9,3.9,23.5,20.9c4.6,17,0.2,27.6-9.7,30.2
					C101.7,131.9,92.6,124.9,88.1,107.9z M112.2,101.5c-3.7-13.8-8-16.9-12.2-15.8c-4.3,1.1-6.4,6-2.7,19.8
					c3.7,13.9,8.1,17.3,12.3,16.1C113.9,120.5,115.9,115.3,112.2,101.5z"/>
				<path class="st3" d="M127.6,106.7c-1.1-4.1,0.3-7,3.3-7.8c2.9-0.8,5.7,1,6.8,5.1c1.1,4.1-0.3,7.1-3.3,7.9
					C131.4,112.7,128.7,110.8,127.6,106.7z M134.7,104.8c-0.8-3-2.1-3.9-3.3-3.6c-1.2,0.3-1.8,1.7-1,4.7s2.1,4,3.2,3.7
					C134.9,109.3,135.5,107.8,134.7,104.8z M142.7,95.7l2.4-0.6l-5.5,24.3l-2.4,0.6L142.7,95.7z M144.8,111
					c-1.1-4.1,0.3-7.1,3.3-7.8c2.9-0.8,5.7,1,6.8,5.1c1.1,4.1-0.4,7.1-3.3,7.9C148.6,117,145.9,115.1,144.8,111z M151.9,109.1
					c-0.8-3-2.1-3.9-3.3-3.6c-1.2,0.3-1.8,1.7-1,4.8c0.8,3,2.1,4,3.3,3.6C152.1,113.6,152.7,112.1,151.9,109.1z"/>
			</g>
			<g>
				<path class="st3" d="M121.8,75.6l4.1-1.1l0.3,1.1l-2.8,0.7l0.5,1.7l2.4-0.6l0.3,1.1l-2.4,0.6l0.7,2.7l-1.3,0.4L121.8,75.6z"/>
				<path class="st3" d="M127.1,74.2l4.1-1.1l0.3,1.1l-2.8,0.7l0.4,1.5l2.3-0.6l0.3,1.1l-2.3,0.6l0.5,1.8l2.9-0.8l0.3,1.1l-4.2,1.1
					L127.1,74.2z"/>
				<path class="st3" d="M132.7,72.7l4.1-1.1l0.3,1.1l-2.8,0.7l0.4,1.5l2.3-0.6l0.3,1.1l-2.3,0.6l0.5,1.8l2.9-0.8l0.3,1.1l-4.2,1.1
					L132.7,72.7z"/>
				<path class="st3" d="M124.3,84.8l4.1-1.1l0.3,1.1l-2.8,0.7l0.5,1.7l2.4-0.6l0.3,1.1l-2.4,0.6l0.7,2.7l-1.3,0.4L124.3,84.8z"/>
				<path class="st3" d="M135,89.1l-2-2.2l-0.9,0.2l0.7,2.5l-1.3,0.4l-1.8-6.7l2.3-0.6c1.4-0.4,2.6-0.2,3,1.3c0.3,1-0.1,1.8-0.8,2.3
					l2.3,2.3L135,89.1z M131.7,86.1l0.9-0.2c0.9-0.2,1.2-0.7,1-1.4c-0.2-0.7-0.7-0.8-1.6-0.6l-0.9,0.2L131.7,86.1z"/>
				<path class="st3" d="M135.7,81.7l4.1-1.1l0.3,1.1l-2.8,0.7l0.4,1.5l2.3-0.6l0.3,1.1l-2.3,0.6l0.5,1.8l2.9-0.8l0.3,1.1l-4.2,1.1
					L135.7,81.7z"/>
				<path class="st3" d="M141.3,80.2l4.1-1.1l0.3,1.1l-2.8,0.7l0.4,1.5l2.3-0.6L146,83l-2.3,0.6l0.5,1.8l2.9-0.8l0.3,1.1l-4.2,1.1
					L141.3,80.2z"/>
			</g>
			<path class="st4" d="M48.5,156.1c-2.8,0-5.3-1.8-6-4.6l-5-18.5l0.5-0.1l0.2,0.5l-0.1-0.5c2.6-0.7,4.7-2.3,6.1-4.7
				c1.3-2.3,1.7-5,1-7.6c-0.7-2.6-2.3-4.7-4.7-6.1c-2.3-1.3-5-1.7-7.6-1l-0.5,0.1l-0.2-0.5l-5.3-19.9c-0.9-3.3,1.1-6.8,4.4-7.7
				l16.1-4.3l0.1,0.5c0.6,2.2,2.8,3.5,5,2.9c2.2-0.6,3.4-2.8,2.9-5l-0.1-0.5l0.5-0.1L169,48.6l0.9,3.4l-0.5,0.1
				c-0.7,0.2-1.1,0.9-0.9,1.6l0.1,0.2c0.2,0.7,0.9,1.1,1.6,0.9l0.5-0.1l0.6,2.1l-0.5,0.1c-0.7,0.2-1.1,0.9-0.9,1.6l0.1,0.2
				c0.2,0.7,0.9,1.1,1.6,0.9l0.5-0.1l0.6,2.1l-0.5,0.1c-0.7,0.2-1.1,0.9-0.9,1.6l0.1,0.2c0.1,0.3,0.3,0.6,0.6,0.8
				c0.3,0.2,0.6,0.2,1,0.1l0.5-0.1l0.6,2.1l-0.5,0.1c-0.3,0.1-0.6,0.3-0.8,0.6c-0.2,0.3-0.2,0.6-0.1,1l0.1,0.2
				c0.2,0.7,0.9,1.1,1.6,0.9l0.5-0.1l0.6,2.1l-0.5,0.1c-0.7,0.2-1.1,0.9-0.9,1.6l0.1,0.2c0.2,0.7,0.9,1.1,1.6,0.9l0.5-0.1l0.6,2.1
				l-0.5,0.1c-0.7,0.2-1.1,0.9-0.9,1.6l0.1,0.2c0.2,0.7,0.9,1.1,1.6,0.9l0.5-0.1l0.6,2.1l-0.5,0.1c-0.7,0.2-1.1,0.9-0.9,1.6l0.1,0.2
				c0.1,0.3,0.3,0.6,0.6,0.8c0.3,0.2,0.6,0.2,1,0.1l0.5-0.1l0.6,2.1l-0.5,0.1c-0.3,0.1-0.6,0.3-0.8,0.6c-0.2,0.3-0.2,0.6-0.1,1
				l0.1,0.2c0.2,0.7,0.9,1.1,1.6,0.9l0.5-0.1l0.6,2.1l-0.5,0.1c-0.3,0.1-0.6,0.3-0.8,0.6c-0.2,0.3-0.2,0.6-0.1,1l0.1,0.2
				c0.2,0.7,0.9,1.1,1.6,0.9l0.5-0.1l0.6,2.1l-0.5,0.1c-0.7,0.2-1.1,0.9-0.9,1.6l0.1,0.2c0.2,0.7,0.9,1.1,1.6,0.9l0.5-0.1l0.6,2.1
				l-0.5,0.1c-0.7,0.2-1.1,0.9-0.9,1.6l0.1,0.2c0.1,0.3,0.3,0.6,0.6,0.8s0.6,0.2,1,0.1l0.5-0.1l0.6,2.1l-0.5,0.1
				c-0.3,0.1-0.6,0.3-0.8,0.6c-0.2,0.3-0.2,0.6-0.1,1l0.1,0.2c0.1,0.3,0.3,0.5,0.5,0.7c0.3-0.2,0.6-0.4,0.9-0.5l0.5-0.1l0.4,1.7
				l-0.5,0.1c-0.3,0.1-0.7,0.1-1,0c-0.1,0.3-0.1,0.6-0.1,0.9l0.1,0.2c0.2,0.7,0.9,1.1,1.6,0.9l0.5-0.1l0.6,2.1l-0.5,0.1
				c-0.7,0.2-1.1,0.9-0.9,1.6l0.1,0.2c0.1,0.3,0.3,0.6,0.6,0.8c0.3,0.2,0.6,0.2,1,0.1l0.5-0.1l0.8,3.1l-0.5,0.1L74.1,149.4L74,149
				c-0.3-1.1-1-1.9-1.9-2.5c-0.9-0.5-2-0.7-3.1-0.4c-1,0.3-1.9,1-2.5,1.9c-0.5,0.9-0.7,2-0.4,3.1l0.1,0.5l-16.1,4.3
				C49.6,156,49.1,156.1,48.5,156.1z M38.7,133.6l4.7,17.6c0.7,2.8,3.6,4.5,6.4,3.7l15.2-4.1c-0.2-1.2,0-2.3,0.6-3.4
				c0.7-1.2,1.8-2,3.1-2.4c1.3-0.3,2.7-0.2,3.8,0.5c1,0.6,1.8,1.5,2.2,2.6l111.8-30l-0.3-1.2c-0.4,0-0.9-0.1-1.2-0.3
				c-0.5-0.3-0.9-0.8-1.1-1.4l-0.1-0.2c-0.3-1.1,0.2-2.1,1.1-2.6l-0.1-0.3c-1,0-2-0.6-2.3-1.7l-0.1-0.2c-0.1-0.5-0.1-1.1,0.1-1.5
				c-0.4-0.3-0.7-0.7-0.9-1.3l-0.1-0.2c-0.2-0.6-0.1-1.2,0.2-1.7c0.2-0.4,0.5-0.7,0.9-0.9l-0.1-0.3c-0.4,0-0.9-0.1-1.2-0.3
				c-0.5-0.3-0.9-0.8-1.1-1.4l-0.1-0.2c-0.3-1.1,0.2-2.1,1.1-2.6l-0.1-0.3c-1,0.1-2-0.6-2.3-1.7l-0.1-0.2c-0.3-1.1,0.2-2.1,1.1-2.6
				l-0.1-0.3c-1.1,0-2-0.6-2.3-1.7l-0.1-0.2c-0.2-0.6-0.1-1.2,0.2-1.7c0.2-0.4,0.5-0.7,0.9-0.9l-0.1-0.3c-1,0.1-2-0.6-2.3-1.7
				l-0.1-0.2c-0.2-0.6-0.1-1.2,0.2-1.7c0.2-0.4,0.5-0.7,0.9-0.9l-0.1-0.3c-0.4,0-0.9-0.1-1.2-0.3c-0.5-0.3-0.9-0.8-1.1-1.4l-0.1-0.2
				c-0.3-1.1,0.2-2.1,1.1-2.6l-0.1-0.3c-1,0.1-2-0.6-2.3-1.7l-0.1-0.2c-0.3-1.1,0.2-2.1,1.1-2.6l-0.1-0.3c-1.1,0-2-0.6-2.3-1.7
				l-0.1-0.2c-0.3-1.1,0.2-2.1,1.1-2.6l-0.1-0.3c-1,0.1-2-0.6-2.3-1.7l-0.1-0.2c-0.2-0.6-0.1-1.2,0.2-1.7c0.2-0.4,0.5-0.7,0.9-0.9
				l-0.1-0.3c-0.4,0-0.9-0.1-1.2-0.3c-0.5-0.3-0.9-0.8-1.1-1.4l-0.1-0.2c-0.3-1.1,0.2-2.1,1.1-2.6l-0.1-0.3c-1,0.1-2-0.6-2.3-1.7
				l-0.1-0.2c-0.3-1.1,0.2-2.1,1.1-2.6l-0.1-0.3c-1,0-2-0.6-2.3-1.7l-0.1-0.2c-0.3-1.1,0.2-2.1,1.1-2.6l-0.4-1.5l-111.8,30
				c0.4,2.5-1.1,5-3.7,5.7c-2.5,0.7-5.1-0.7-6-3.1l-15.2,4.1c-2.8,0.7-4.5,3.6-3.7,6.4l5.2,19.4c2.7-0.6,5.5-0.2,8,1.2
				c2.5,1.5,4.4,3.8,5.1,6.7c0.8,2.8,0.4,5.8-1.1,8.4C43.6,131,41.4,132.8,38.7,133.6z"/>
		</g>
		<g>
			<path class="st1" d="M183.5,91.9l0.1-2.5L66.9,85.3c-0.1,2.5-2.2,4.5-4.7,4.4c-2.5-0.1-4.5-2.2-4.4-4.7l-16.2-0.6
				c-3.2-0.1-5.8,2.4-5.9,5.5l-0.7,20.6c0,0,0.1,0,0.1,0c5.8,0.2,10.3,5.1,10.1,10.9c-0.2,5.8-5.1,10.3-10.9,10.1c0,0-0.1,0-0.1,0
				l-0.7,18.7c-0.1,3.2,2.4,5.8,5.5,5.9l16.2,0.6c0.1-2.5,2.2-4.5,4.7-4.4c2.5,0.1,4.5,2.2,4.4,4.7l116.7,4.1l0.1-2.2
				c-1,0-1.8-0.9-1.7-1.9l0-0.2c0-1,0.9-1.8,1.9-1.7l0-1.2c-1,0-1.8-0.9-1.7-1.9l0-0.2c0-1,0.9-1.8,1.9-1.7l0,0.7
				c-1,0-1.8-0.9-1.7-1.9l0-0.2c0-1,0.9-1.8,1.9-1.7l0-1.2c-1,0-1.8-0.9-1.7-1.9l0-0.2c0-1,0.9-1.8,1.9-1.7l0-1.2
				c-1,0-1.8-0.9-1.7-1.9l0-0.2c0-1,0.9-1.8,1.9-1.7l0-1.2c-1,0-1.8-0.9-1.7-1.9l0-0.2c0-1,0.9-1.8,1.9-1.7l0-1.2
				c-1,0-1.8-0.9-1.7-1.9l0-0.2c0-1,0.9-1.8,1.9-1.7l0-1.2c-1,0-1.8-0.9-1.7-1.9l0-0.2c0-1,0.9-1.8,1.9-1.7l0-1.2
				c-1,0-1.8-0.9-1.7-1.9l0-0.2c0-1,0.9-1.8,1.9-1.7l0-1.2c-1,0-1.8-0.9-1.7-1.9l0-0.2c0-1,0.9-1.8,1.9-1.7l0-1.2
				c-1,0-1.8-0.9-1.7-1.9l0-0.2c0-1,0.9-1.8,1.9-1.7l0-1.2c-1,0-1.8-0.9-1.7-1.9l0-0.2c0-1,0.9-1.8,1.9-1.7l0-1.2
				c-1,0-1.8-0.9-1.7-1.9l0-0.2c0-1,0.9-1.8,1.9-1.7l0-1.2c-1,0-1.8-0.9-1.7-1.9l0-0.2C181.7,92.6,182.5,91.9,183.5,91.9z"/>
			<g>
				<path class="st1" d="M181.5,150.2c-0.4,0-0.8,0.1-1.1,0.3c0.3,0.2,0.7,0.4,1.1,0.4L181.5,150.2z"/>
				<path class="st2" d="M57.8,85l-16.2-0.6c-3.2-0.1-5.8,2.4-5.9,5.5l-0.7,20.6c0,0,0.1,0,0.1,0c5.8,0.2,10.3,5.1,10.1,10.9
					c-0.2,5.8-5.1,10.3-10.9,10.1c0,0-0.1,0-0.1,0l-0.7,18.7c-0.1,3.2,2.4,5.8,5.5,5.9l16.2,0.6c0.1-2.5,2.1-4.4,4.6-4.4L62,89.7
					C59.6,89.6,57.7,87.5,57.8,85z"/>
			</g>
			<g>
				<path class="st3" d="M89.3,121.9c0.6-17.6,7.8-26,18.2-25.7c10.3,0.4,16.9,9.3,16.3,26.9c-0.6,17.6-7.8,26.4-18.2,26.1
					C95.3,148.8,88.7,139.5,89.3,121.9z M114.3,122.8c0.5-14.3-2.7-18.5-7-18.7c-4.4-0.2-7.9,3.9-8.4,18.1
					c-0.5,14.3,2.7,18.9,7.1,19C110.3,141.4,113.8,137.1,114.3,122.8z"/>
				<path class="st3" d="M127.5,132.3c0.1-4.2,2.4-6.6,5.4-6.5c3,0.1,5.1,2.6,5,6.9c-0.1,4.3-2.4,6.7-5.4,6.6
					C129.4,139.1,127.3,136.6,127.5,132.3z M134.9,132.6c0.1-3.1-0.8-4.3-2.1-4.4c-1.2,0-2.2,1.1-2.3,4.2c-0.1,3.1,0.8,4.4,2,4.5
					C133.7,136.9,134.8,135.7,134.9,132.6z M145.2,126.2l2.5,0.1L135.3,148l-2.5-0.1L145.2,126.2z M142.6,141.4
					c0.1-4.3,2.4-6.6,5.4-6.5c3,0.1,5.1,2.6,5,6.9c-0.1,4.3-2.4,6.7-5.4,6.6C144.6,148.3,142.5,145.7,142.6,141.4z M150,141.7
					c0.1-3.1-0.8-4.4-2.1-4.4s-2.3,1.1-2.4,4.3s0.8,4.4,2.1,4.4S149.9,144.8,150,141.7z"/>
			</g>
			<g>
				<path class="st3" d="M131.1,100.9l4.3,0.1l0,1.1l-2.9-0.1l-0.1,1.8l2.5,0.1l0,1.2l-2.5-0.1l-0.1,2.8l-1.4,0L131.1,100.9z"/>
				<path class="st3" d="M136.5,101.1l4.2,0.1l0,1.1l-2.9-0.1l-0.1,1.6l2.4,0.1l0,1.2l-2.4-0.1l-0.1,1.8l3,0.1l0,1.2l-4.3-0.2
					L136.5,101.1z"/>
				<path class="st3" d="M142.3,101.3l4.2,0.1l0,1.1l-2.9-0.1l-0.1,1.6l2.4,0.1l0,1.2l-2.4-0.1l-0.1,1.8l3,0.1l0,1.2l-4.3-0.2
					L142.3,101.3z"/>
				<path class="st3" d="M130.7,110.4l4.3,0.1l0,1.1l-2.9-0.1l-0.1,1.8l2.5,0.1l0,1.2l-2.5-0.1l-0.1,2.8l-1.4,0L130.7,110.4z"/>
				<path class="st3" d="M139.7,117.6l-1.3-2.7l-1,0l-0.1,2.6l-1.4,0l0.2-6.9l2.4,0.1c1.4,0,2.6,0.6,2.5,2.2c0,1-0.6,1.7-1.4,1.9
					l1.5,2.9L139.7,117.6z M137.5,113.8l0.9,0c0.9,0,1.4-0.3,1.4-1.1c0-0.7-0.4-1-1.3-1l-0.9,0L137.5,113.8z"/>
				<path class="st3" d="M142.6,110.8l4.2,0.1l0,1.1l-2.9-0.1l-0.1,1.6l2.4,0.1l0,1.2l-2.4-0.1l-0.1,1.8l3,0.1l0,1.2l-4.3-0.2
					L142.6,110.8z"/>
				<path class="st3" d="M148.3,111l4.2,0.1l0,1.1l-2.9-0.1l-0.1,1.6l2.4,0.1l0,1.2l-2.4-0.1l-0.1,1.8l3,0.1l0,1.2l-4.3-0.2
					L148.3,111z"/>
			</g>
			<path class="st4" d="M181.6,161.7l-117.7-4.1l0-0.5c0.1-2.2-1.7-4.1-3.9-4.2c-1.1,0-2.1,0.3-2.9,1.1c-0.8,0.7-1.3,1.7-1.3,2.8
				l0,0.5l-16.7-0.6c-1.7-0.1-3.2-0.8-4.4-2c-1.1-1.2-1.7-2.8-1.7-4.5l0.7-19.2l0.6,0c0.1,0,0.2,0,0.4,0c5.4,0,9.8-4.3,10-9.7
				c0.1-2.7-0.9-5.2-2.7-7.2c-1.8-2-4.3-3.1-7-3.2l-0.5,0l-0.1-0.5L35.1,90c0.1-1.7,0.8-3.2,2-4.3c1.2-1.1,2.8-1.7,4.5-1.7l16.7,0.6
				l0,0.5c-0.1,2.2,1.7,4.1,3.9,4.2c1.1,0,2.1-0.3,2.9-1.1c0.8-0.7,1.3-1.7,1.3-2.8l0-0.5l117.7,4.1l-0.1,3.5l-0.5,0
				c-0.3,0-0.7,0.1-0.9,0.3c-0.3,0.2-0.4,0.6-0.4,0.9l0,0.2c0,0.7,0.5,1.3,1.2,1.3l0.5,0l-0.1,2.2l-0.5,0c-0.7,0-1.3,0.5-1.3,1.2
				l0,0.2c0,0.7,0.5,1.3,1.2,1.3l0.5,0l-0.1,2.2l-0.5,0c-0.3,0-0.7,0.1-0.9,0.3c-0.3,0.2-0.4,0.6-0.4,0.9l0,0.2
				c0,0.7,0.5,1.3,1.2,1.3l0.5,0l-0.1,2.2l-0.5,0c-0.3,0-0.7,0.1-0.9,0.3c-0.3,0.2-0.4,0.6-0.4,0.9l0,0.2c0,0.7,0.5,1.3,1.2,1.3
				l0.5,0l-0.1,2.2l-0.5,0c-0.4,0-0.7,0.1-0.9,0.3c-0.3,0.2-0.4,0.6-0.4,0.9l0,0.2c0,0.3,0.1,0.7,0.3,0.9c0.2,0.3,0.6,0.4,0.9,0.4
				l0.5,0l-0.1,2.2l-0.5,0c-0.3,0-0.7,0.1-0.9,0.3c-0.3,0.2-0.4,0.6-0.4,0.9l0,0.2c0,0.7,0.5,1.3,1.2,1.3l0.5,0l-0.1,2.2l-0.5,0
				c-0.3,0-0.7,0.1-0.9,0.3c-0.3,0.2-0.4,0.6-0.4,0.9l0,0.2c0,0.7,0.5,1.3,1.2,1.3l0.5,0l-0.1,2.2l-0.5,0c-0.3,0-0.7,0.1-0.9,0.3
				c-0.3,0.2-0.4,0.6-0.4,0.9l0,0.2c0,0.7,0.5,1.3,1.2,1.3l0.5,0l-0.1,2.2l-0.5,0c-0.3,0-0.7,0.1-0.9,0.3c-0.3,0.2-0.4,0.6-0.4,0.9
				l0,0.2c0,0.7,0.5,1.3,1.2,1.3l0.5,0l-0.1,2.2l-0.5,0c-0.7,0-1.3,0.5-1.3,1.2l0,0.2c0,0.7,0.5,1.3,1.2,1.3l0.5,0l-0.1,2.2l-0.5,0
				c-0.3,0-0.7,0.1-0.9,0.3c-0.3,0.2-0.4,0.6-0.4,0.9l0,0.2c0,0.7,0.5,1.3,1.2,1.3l0.5,0l-0.1,2.2l-0.5,0c-0.3,0-0.7,0.1-0.9,0.3
				c-0.3,0.2-0.4,0.6-0.4,0.9l0,0.2c0,0.3,0.1,0.6,0.3,0.8c0.3-0.1,0.7-0.2,1-0.2l0.5,0l-0.1,1.7l-0.5,0c-0.4,0-0.7-0.1-1-0.3
				c-0.2,0.2-0.3,0.5-0.3,0.8l0,0.2c0,0.7,0.5,1.3,1.2,1.3l0.5,0l-0.1,2.2l-0.5,0c-0.7,0-1.3,0.5-1.3,1.2l0,0.2
				c0,0.7,0.5,1.3,1.2,1.3l0.5,0L181.6,161.7z M64.9,156.6l115.7,4l0-1.2c-1-0.3-1.7-1.2-1.7-2.3l0-0.2c0-1.1,0.8-2,1.9-2.2l0-0.3
				c-1-0.3-1.7-1.2-1.7-2.3l0-0.2c0-0.5,0.2-1,0.6-1.4c-0.3-0.4-0.5-0.9-0.5-1.4l0-0.2c0-0.6,0.3-1.2,0.7-1.6
				c0.3-0.3,0.7-0.5,1.1-0.6l0-0.3c-1-0.3-1.7-1.2-1.7-2.3l0-0.2c0-0.6,0.3-1.2,0.7-1.6c0.3-0.3,0.7-0.5,1.1-0.6l0-0.3
				c-1-0.3-1.7-1.2-1.7-2.3l0-0.2c0-1.1,0.8-2,1.9-2.2l0-0.3c-1-0.3-1.7-1.2-1.7-2.3l0-0.2c0-0.6,0.3-1.2,0.7-1.6
				c0.3-0.3,0.7-0.5,1.1-0.6l0-0.3c-1-0.3-1.7-1.2-1.7-2.3l0-0.2c0-0.6,0.3-1.2,0.7-1.6c0.3-0.3,0.7-0.5,1.1-0.6l0-0.3
				c-1-0.3-1.7-1.2-1.7-2.3l0-0.2c0-0.6,0.3-1.2,0.7-1.6c0.3-0.3,0.7-0.5,1.1-0.6l0-0.3c-1-0.3-1.7-1.2-1.7-2.3l0-0.2
				c0-0.6,0.3-1.2,0.7-1.6c0.3-0.3,0.7-0.5,1.1-0.6l0-0.3c-0.4-0.1-0.8-0.3-1.1-0.7c-0.4-0.4-0.6-1-0.6-1.6l0-0.2
				c0-0.6,0.3-1.2,0.7-1.6c0.3-0.3,0.7-0.5,1.1-0.6l0-0.3c-1-0.3-1.7-1.2-1.7-2.3l0-0.2c0-0.6,0.3-1.2,0.7-1.6
				c0.3-0.3,0.7-0.5,1.1-0.6l0-0.3c-1-0.3-1.7-1.2-1.7-2.3l0-0.2c0-0.6,0.3-1.2,0.7-1.6c0.3-0.3,0.7-0.5,1.1-0.6l0-0.3
				c-1-0.3-1.7-1.2-1.7-2.3l0-0.2c0-1.1,0.8-2,1.9-2.2l0-0.3c-1-0.3-1.7-1.2-1.7-2.3l0-0.2c0-0.6,0.3-1.2,0.7-1.6
				c0.3-0.3,0.7-0.5,1.1-0.6l0.1-1.5l-115.7-4c-0.2,1.2-0.7,2.2-1.6,3c-1,0.9-2.3,1.4-3.6,1.4c-2.6-0.1-4.7-2.2-4.9-4.7l-15.7-0.5
				c-1.4-0.1-2.7,0.5-3.8,1.4c-1,1-1.6,2.3-1.7,3.7l-0.7,20.1c2.8,0.2,5.4,1.4,7.3,3.5c2,2.2,3,5,2.9,7.9c-0.2,5.9-5.1,10.6-11,10.6
				c0,0,0,0,0,0L34,150.3c0,1.4,0.5,2.7,1.4,3.8c1,1,2.3,1.6,3.7,1.7l15.7,0.5c0.2-1.2,0.7-2.2,1.6-3c1-0.9,2.3-1.4,3.6-1.4
				C62.6,152,64.7,154.1,64.9,156.6z"/>
		</g>
		<g>
			<path class="st1" d="M180.5,76.1l-0.1-2.5L63.8,79.7c0.1,2.5-1.8,4.7-4.3,4.8c-2.5,0.1-4.7-1.8-4.8-4.3L38.5,81
				c-3.2,0.2-5.6,2.9-5.4,6l1.1,20.6c0,0,0.1,0,0.1,0c5.8-0.3,10.7,4.2,11,10c0.3,5.8-4.1,10.7-9.9,11.1c0,0-0.1,0-0.1,0l1,18.7
				c0.2,3.2,2.9,5.6,6,5.4l16.2-0.8c-0.1-2.5,1.8-4.7,4.3-4.8c2.5-0.1,4.7,1.8,4.8,4.3l116.6-6.1l-0.1-2.2c-1,0.1-1.8-0.7-1.9-1.7
				l0-0.2c-0.1-1,0.7-1.8,1.7-1.9l-0.1-1.2c-1,0.1-1.8-0.7-1.9-1.7l0-0.2c-0.1-1,0.7-1.8,1.7-1.9l0,0.7c-1,0.1-1.8-0.7-1.9-1.7
				l0-0.2c-0.1-1,0.7-1.8,1.7-1.9l-0.1-1.2c-1,0.1-1.8-0.7-1.9-1.7l0-0.2c-0.1-1,0.7-1.8,1.7-1.9l-0.1-1.2c-1,0.1-1.8-0.7-1.9-1.7
				l0-0.2c-0.1-1,0.7-1.8,1.7-1.9l-0.1-1.2c-1,0.1-1.8-0.7-1.9-1.7l0-0.2c-0.1-1,0.7-1.8,1.7-1.9l-0.1-1.2c-1,0.1-1.8-0.7-1.9-1.7
				l0-0.2c-0.1-1,0.7-1.8,1.7-1.9l-0.1-1.2c-1,0.1-1.8-0.7-1.9-1.7l0-0.2c-0.1-1,0.7-1.8,1.7-1.9l-0.1-1.2c-1,0.1-1.8-0.7-1.9-1.7
				l0-0.2c-0.1-1,0.7-1.8,1.7-1.9l-0.1-1.2c-1,0.1-1.8-0.7-1.9-1.7l0-0.2c-0.1-1,0.7-1.8,1.7-1.9l-0.1-1.2c-1,0.1-1.8-0.7-1.9-1.7
				l0-0.2c-0.1-1,0.7-1.8,1.7-1.9l-0.1-1.2c-1,0.1-1.8-0.7-1.9-1.7l0-0.2c-0.1-1,0.7-1.8,1.7-1.9l-0.1-1.2c-1,0.1-1.8-0.7-1.9-1.7
				l0-0.2c-0.1-1,0.7-1.8,1.7-1.9l-0.1-1.2c-1,0.1-1.8-0.7-1.9-1.7l0-0.2C178.8,77,179.5,76.1,180.5,76.1z"/>
			<g>
				<path class="st1" d="M183.6,134.3c-0.4,0-0.8,0.2-1,0.4c0.3,0.2,0.7,0.3,1.1,0.3L183.6,134.3z"/>
				<path class="st2" d="M54.7,80.2L38.5,81c-3.2,0.2-5.6,2.9-5.4,6l1.1,20.6c0,0,0.1,0,0.1,0c5.8-0.3,10.7,4.2,11,10
					c0.3,5.8-4.1,10.7-9.9,11.1c0,0-0.1,0-0.1,0l1,18.7c0.2,3.2,2.9,5.6,6,5.4l16.2-0.8c-0.1-2.5,1.7-4.6,4.2-4.8l-3.3-62.6
					C56.9,84.5,54.8,82.6,54.7,80.2z"/>
			</g>
			<g>
				<path class="st3" d="M89.4,114.2c-0.9-17.6,5.5-26.6,15.9-27.1c10.3-0.5,17.7,7.8,18.6,25.3c0.9,17.6-5.5,27-15.8,27.6
					C97.7,140.5,90.3,131.7,89.4,114.2z M114.3,112.9c-0.7-14.3-4.3-18.2-8.6-18c-4.4,0.2-7.5,4.5-6.7,18.8
					c0.8,14.3,4.3,18.6,8.7,18.3C112,131.8,115.1,127.2,114.3,112.9z"/>
				<path class="st3" d="M128.3,121.2c-0.2-4.2,1.8-6.8,4.8-7c3-0.2,5.3,2.2,5.5,6.4c0.2,4.3-1.8,6.9-4.8,7
					C130.8,127.8,128.5,125.4,128.3,121.2z M135.7,120.8c-0.2-3.1-1.2-4.3-2.4-4.2c-1.2,0.1-2.1,1.3-2,4.4c0.2,3.1,1.2,4.3,2.4,4.3
					C135,125.2,135.9,123.9,135.7,120.8z M145.4,113.6l2.5-0.1l-10.4,22.6l-2.5,0.1L145.4,113.6z M144.2,128.9
					c-0.2-4.3,1.8-6.8,4.8-7s5.3,2.2,5.5,6.4c0.2,4.2-1.8,6.9-4.8,7C146.7,135.6,144.4,133.2,144.2,128.9z M151.6,128.6
					c-0.2-3.1-1.2-4.3-2.4-4.2s-2.1,1.3-2,4.4c0.2,3.1,1.2,4.3,2.4,4.2C150.8,133,151.7,131.7,151.6,128.6z"/>
			</g>
			<g>
				<path class="st3" d="M129.1,89.6l4.3-0.2l0.1,1.1l-2.9,0.2l0.1,1.8l2.5-0.1l0.1,1.2l-2.5,0.1l0.1,2.8l-1.4,0.1L129.1,89.6z"/>
				<path class="st3" d="M134.6,89.3l4.2-0.2l0.1,1.1l-2.9,0.1l0.1,1.6l2.4-0.1l0.1,1.2l-2.4,0.1l0.1,1.8l3-0.2l0.1,1.2l-4.3,0.2
					L134.6,89.3z"/>
				<path class="st3" d="M140.3,89l4.2-0.2l0.1,1.1l-2.9,0.1l0.1,1.6l2.4-0.1l0.1,1.2l-2.4,0.1l0.1,1.8l3-0.2l0.1,1.2l-4.3,0.2
					L140.3,89z"/>
				<path class="st3" d="M129.6,99.1l4.3-0.2l0.1,1.1l-2.9,0.2l0.1,1.8l2.5-0.1l0.1,1.2l-2.5,0.1l0.1,2.8L130,106L129.6,99.1z"/>
				<path class="st3" d="M139.2,105.5l-1.6-2.5l-1,0l0.1,2.6l-1.4,0.1l-0.4-6.9l2.4-0.1c1.4-0.1,2.6,0.4,2.7,2
					c0.1,1-0.4,1.7-1.2,2.1l1.8,2.7L139.2,105.5z M136.6,101.9l0.9,0c0.9,0,1.4-0.4,1.3-1.2c0-0.7-0.5-1-1.4-0.9l-0.9,0L136.6,101.9
					z"/>
				<path class="st3" d="M141.5,98.4l4.2-0.2l0.1,1.1l-2.9,0.1l0.1,1.6l2.4-0.1l0.1,1.2l-2.4,0.1l0.1,1.8l3-0.2l0.1,1.2l-4.3,0.2
					L141.5,98.4z"/>
				<path class="st3" d="M147.2,98.1l4.2-0.2l0.1,1.1l-2.9,0.1l0.1,1.6l2.4-0.1l0.1,1.2l-2.4,0.1l0.1,1.8l3-0.2l0.1,1.2l-4.3,0.2
					L147.2,98.1z"/>
			</g>
			<path class="st4" d="M42,153.2c-1.5,0-3-0.6-4.2-1.6c-1.2-1.1-2-2.6-2.1-4.3l-1-19.2l0.5,0l0.1,0.5l0-0.5
				c2.7-0.1,5.1-1.3,6.9-3.3c1.8-2,2.7-4.6,2.6-7.2c-0.3-5.5-5-9.8-10.5-9.5l-0.5,0l-0.1-0.5l-1.1-20.6c-0.2-3.4,2.5-6.4,5.9-6.6
				l16.7-0.9l0,0.5c0.1,2.2,2.1,4,4.3,3.9c1.1-0.1,2.1-0.5,2.8-1.3c0.7-0.8,1.1-1.9,1-2.9l0-0.5l0.5,0l117.1-6.1l0.2,3.5l-0.5,0
				c-0.7,0-1.3,0.6-1.2,1.4l0,0.2c0,0.3,0.2,0.7,0.4,0.9c0.3,0.2,0.6,0.3,0.9,0.3l0.5,0l0.1,2.2l-0.5,0c-0.7,0-1.3,0.6-1.2,1.4
				l0,0.2c0,0.3,0.2,0.7,0.4,0.9c0.3,0.2,0.6,0.4,0.9,0.3l0.5,0l0.1,2.2l-0.5,0c-0.7,0-1.3,0.6-1.2,1.4l0,0.2c0,0.3,0.2,0.7,0.4,0.9
				c0.3,0.2,0.6,0.4,0.9,0.3l0.5,0l0.1,2.2l-0.5,0c-0.7,0-1.3,0.6-1.2,1.4l0,0.2c0,0.3,0.2,0.7,0.4,0.9c0.3,0.2,0.6,0.3,0.9,0.3
				l0.5,0l0.1,2.2l-0.5,0c-0.7,0-1.3,0.6-1.2,1.4l0,0.2c0,0.7,0.7,1.3,1.4,1.2l0.5,0l0.1,2.2l-0.5,0c-0.7,0-1.3,0.6-1.2,1.4l0,0.2
				c0,0.3,0.2,0.7,0.4,0.9c0.3,0.2,0.6,0.3,0.9,0.3l0.5,0l0.1,2.2l-0.5,0c-0.7,0-1.3,0.6-1.2,1.4l0,0.2c0,0.3,0.2,0.7,0.4,0.9
				c0.3,0.2,0.6,0.3,0.9,0.3l0.5,0l0.1,2.2l-0.5,0c-0.7,0-1.3,0.6-1.2,1.4l0,0.2c0,0.3,0.2,0.7,0.4,0.9c0.3,0.2,0.6,0.3,0.9,0.3
				l0.5,0l0.1,2.2l-0.5,0c-0.7,0-1.3,0.6-1.2,1.4l0,0.2c0,0.3,0.2,0.7,0.4,0.9c0.3,0.2,0.6,0.3,0.9,0.3l0.5,0l0.1,2.2l-0.5,0
				c-0.7,0-1.3,0.6-1.2,1.4l0,0.2c0,0.7,0.7,1.3,1.4,1.2l0.5,0l0.1,2.2l-0.5,0c-0.7,0-1.3,0.6-1.2,1.4l0,0.2c0,0.3,0.2,0.7,0.4,0.9
				c0.3,0.2,0.6,0.3,0.9,0.3l0.5,0l0.1,2.2l-0.5,0c-0.7,0-1.3,0.6-1.2,1.4l0,0.2c0,0.3,0.1,0.6,0.3,0.8c0.3-0.2,0.6-0.3,1-0.3l0.5,0
				l0.1,1.7l-0.5,0c-0.4,0-0.7,0-1-0.2c-0.2,0.2-0.3,0.5-0.2,0.8l0,0.2c0,0.7,0.7,1.3,1.4,1.2l0.5,0l0.1,2.2l-0.5,0
				c-0.7,0-1.3,0.6-1.2,1.4l0,0.2c0,0.7,0.7,1.3,1.4,1.2l0.5,0l0.2,3.2l-0.5,0l-117.1,6.1l0-0.5c-0.1-1.1-0.5-2.1-1.3-2.8
				c-0.8-0.7-1.9-1.1-2.9-1c-1.1,0.1-2.1,0.5-2.8,1.3c-0.7,0.8-1.1,1.9-1,2.9l0,0.5l-16.7,0.9C42.2,153.2,42.1,153.2,42,153.2z
				 M35.8,129.1l1,18.2c0.1,1.4,0.7,2.7,1.7,3.6c1,0.9,2.4,1.4,3.8,1.3l15.7-0.8c0.1-1.2,0.5-2.3,1.3-3.2c0.9-1,2.1-1.6,3.5-1.7
				c1.4-0.1,2.6,0.4,3.7,1.3c0.9,0.8,1.4,1.8,1.6,3l115.6-6.1l-0.1-1.2c-1-0.2-1.8-1.1-1.9-2.1l0-0.2c-0.1-1.1,0.7-2,1.7-2.3l0-0.3
				c-1-0.2-1.8-1-1.9-2.1l0-0.2c0-0.5,0.1-1,0.4-1.5c-0.3-0.4-0.5-0.9-0.6-1.4l0-0.2c-0.1-1.1,0.7-2,1.7-2.3l0-0.3
				c-0.4-0.1-0.8-0.3-1.1-0.6c-0.5-0.4-0.7-1-0.8-1.6l0-0.2c-0.1-1.1,0.7-2,1.7-2.3l0-0.3c-1-0.2-1.8-1.1-1.9-2.1l0-0.2
				c-0.1-1.1,0.7-2,1.7-2.3l0-0.3c-0.4-0.1-0.8-0.3-1.1-0.6c-0.5-0.4-0.7-1-0.8-1.6l0-0.2c-0.1-1.1,0.7-2,1.7-2.3l0-0.3
				c-0.4-0.1-0.8-0.3-1.1-0.6c-0.5-0.4-0.7-1-0.8-1.6l0-0.2c-0.1-1.1,0.7-2,1.7-2.3l0-0.3c-0.4-0.1-0.8-0.3-1.1-0.6
				c-0.5-0.4-0.7-1-0.8-1.6l0-0.2c-0.1-1.1,0.7-2,1.7-2.3l0-0.3c-0.4-0.1-0.8-0.3-1.1-0.6c-0.5-0.4-0.7-1-0.8-1.6l0-0.2
				c-0.1-1.1,0.7-2,1.7-2.3l0-0.3c-1-0.2-1.8-1.1-1.9-2.1l0-0.2c-0.1-1.1,0.7-2,1.7-2.3l0-0.3c-0.4-0.1-0.8-0.3-1.1-0.6
				c-0.5-0.4-0.7-1-0.8-1.6l0-0.2c-0.1-1.1,0.7-2,1.7-2.3l0-0.3c-0.4-0.1-0.8-0.3-1.1-0.6c-0.5-0.4-0.7-1-0.8-1.6l0-0.2
				c-0.1-1.1,0.7-2,1.7-2.3l0-0.3c-0.4-0.1-0.8-0.3-1.2-0.6c-0.5-0.4-0.7-1-0.8-1.6l0-0.2c-0.1-1.1,0.7-2,1.7-2.3l0-0.3
				c-0.4-0.1-0.8-0.3-1.2-0.6c-0.5-0.4-0.7-1-0.8-1.6l0-0.2c-0.1-1.1,0.7-2,1.7-2.3l-0.1-1.5L64.3,80.2c-0.1,1.2-0.5,2.3-1.3,3.2
				c-0.9,1-2.1,1.6-3.5,1.7c-2.6,0.1-4.9-1.8-5.3-4.3l-15.7,0.8c-2.9,0.2-5.1,2.6-5,5.5l1.1,20.1c5.9-0.1,10.9,4.5,11.2,10.4
				c0.2,2.9-0.8,5.8-2.8,7.9C41.1,127.6,38.6,128.9,35.8,129.1z"/>
		</g>
		<g>
			<path class="st1" d="M181.2,62.9l-0.4-2.4l-115,20.3c0.4,2.5-1.2,4.9-3.7,5.3c-2.5,0.4-4.8-1.2-5.3-3.7l-16,2.8
				c-3.1,0.6-5.2,3.5-4.7,6.7l3.6,20.3c0,0,0.1,0,0.1,0c5.7-1,11.2,2.8,12.2,8.5c1,5.7-2.8,11.2-8.5,12.2c0,0-0.1,0-0.1,0l3.2,18.4
				c0.6,3.1,3.5,5.2,6.7,4.7l16-2.8c-0.4-2.5,1.2-4.9,3.7-5.3c2.5-0.4,4.8,1.2,5.3,3.7l115-20.3l-0.4-2.1c-1,0.2-1.9-0.5-2.1-1.5
				l0-0.2c-0.2-1,0.5-1.9,1.5-2.1l-0.2-1.2c-1,0.2-1.9-0.5-2.1-1.5l0-0.2c-0.2-1,0.5-1.9,1.5-2.1l0.1,0.7c-1,0.2-1.9-0.5-2.1-1.5
				l0-0.2c-0.2-1,0.5-1.9,1.5-2.1l-0.2-1.2c-1,0.2-1.9-0.5-2.1-1.5l0-0.2c-0.2-1,0.5-1.9,1.5-2.1l-0.2-1.2c-1,0.2-1.9-0.5-2.1-1.5
				l0-0.2c-0.2-1,0.5-1.9,1.5-2.1l-0.2-1.2c-1,0.2-1.9-0.5-2.1-1.5l0-0.2c-0.2-1,0.5-1.9,1.5-2.1l-0.2-1.2c-1,0.2-1.9-0.5-2.1-1.5
				l0-0.2c-0.2-1,0.5-1.9,1.5-2.1l-0.2-1.2c-1,0.2-1.9-0.5-2.1-1.5l0-0.2c-0.2-1,0.5-1.9,1.5-2.1l-0.2-1.2c-1,0.2-1.9-0.5-2.1-1.5
				l0-0.2c-0.2-1,0.5-1.9,1.5-2.1l-0.2-1.2c-1,0.2-1.9-0.5-2.1-1.5l0-0.2c-0.2-1,0.5-1.9,1.5-2.1l-0.2-1.2c-1,0.2-1.9-0.5-2.1-1.5
				l0-0.2c-0.2-1,0.5-1.9,1.5-2.1l-0.2-1.2c-1,0.2-1.9-0.5-2.1-1.5l0-0.2c-0.2-1,0.5-1.9,1.5-2.1l-0.2-1.2c-1,0.2-1.9-0.5-2.1-1.5
				l0-0.2c-0.2-1,0.5-1.9,1.5-2.1l-0.2-1.2c-1,0.2-1.9-0.5-2.1-1.5l0-0.2C179.5,64,180.2,63.1,181.2,62.9z"/>
			<g>
				<path class="st1" d="M191.3,120.3c-0.4,0.1-0.7,0.3-1,0.5c0.3,0.2,0.7,0.2,1.1,0.2L191.3,120.3z"/>
				<path class="st2" d="M56.8,82.3l-16,2.8c-3.1,0.6-5.2,3.5-4.7,6.7l3.6,20.3c0,0,0.1,0,0.1,0c5.7-1,11.2,2.8,12.2,8.5
					c1,5.7-2.8,11.2-8.5,12.2c0,0-0.1,0-0.1,0l3.2,18.4c0.6,3.1,3.5,5.2,6.7,4.7l16-2.8c-0.4-2.4,1.2-4.8,3.6-5.3L61.9,86
					C59.5,86.4,57.2,84.7,56.8,82.3z"/>
			</g>
			<g>
				<path class="st3" d="M95.4,111.9c-3.1-17.4,2.2-27.1,12.5-28.9c10.2-1.8,18.5,5.6,21.5,22.9c3.1,17.3-2.2,27.5-12.3,29.3
					C106.8,137,98.4,129.2,95.4,111.9z M119.9,107.6c-2.5-14.1-6.5-17.6-10.7-16.8c-4.3,0.8-6.9,5.4-4.4,19.5
					c2.5,14.1,6.5,17.9,10.9,17.1C119.9,126.6,122.4,121.7,119.9,107.6z"/>
				<path class="st3" d="M134.8,114.1c-0.7-4.2,0.9-7,3.9-7.5c3-0.5,5.5,1.5,6.3,5.7c0.7,4.2-0.9,7.1-3.9,7.6
					C138.1,120.4,135.6,118.3,134.8,114.1z M142.1,112.8c-0.5-3.1-1.7-4.1-2.9-3.9c-1.2,0.2-1.9,1.5-1.4,4.6s1.7,4.2,2.9,4
					C141.9,117.3,142.6,115.9,142.1,112.8z M150.8,104.5l2.5-0.4l-7.6,23.7l-2.4,0.4L150.8,104.5z M151.5,119.9
					c-0.7-4.2,1-7,3.9-7.5c3-0.5,5.5,1.5,6.3,5.7c0.7,4.2-1,7.1-3.9,7.6C154.8,126.2,152.3,124.1,151.5,119.9z M158.8,118.6
					c-0.5-3.1-1.7-4.1-2.9-3.9c-1.2,0.2-2,1.6-1.4,4.7c0.5,3.1,1.7,4.1,2.9,3.9C158.6,123.1,159.4,121.7,158.8,118.6z"/>
			</g>
			<g>
				<path class="st5" d="M131.8,82.6l4.2-0.7l0.2,1.1l-2.8,0.5l0.3,1.8l2.4-0.4l0.2,1.1l-2.4,0.4l0.5,2.8l-1.4,0.2L131.8,82.6z"/>
				<path class="st5" d="M137.2,81.7l4.2-0.7l0.2,1.1l-2.8,0.5l0.3,1.6l2.4-0.4l0.2,1.1l-2.4,0.4l0.3,1.8l2.9-0.5l0.2,1.1l-4.3,0.8
					L137.2,81.7z"/>
				<path class="st5" d="M142.8,80.7L147,80l0.2,1.1l-2.8,0.5l0.3,1.6l2.4-0.4l0.2,1.1l-2.4,0.4l0.3,1.8l2.9-0.5l0.2,1.1l-4.3,0.8
					L142.8,80.7z"/>
				<path class="st5" d="M133.4,92l4.2-0.7l0.2,1.1l-2.8,0.5l0.3,1.8l2.4-0.4l0.2,1.1l-2.4,0.4l0.5,2.8l-1.4,0.2L133.4,92z"/>
				<path class="st5" d="M143.7,97.2l-1.9-2.3l-0.9,0.2l0.5,2.6l-1.4,0.2l-1.2-6.8l2.4-0.4c1.4-0.3,2.6,0,2.9,1.6
					c0.2,1-0.2,1.7-1,2.2l2.1,2.5L143.7,97.2z M140.7,93.9l0.9-0.2c0.9-0.2,1.3-0.6,1.2-1.3c-0.1-0.7-0.7-0.9-1.5-0.7l-0.9,0.2
					L140.7,93.9z"/>
				<path class="st5" d="M145.1,89.9l4.2-0.7l0.2,1.1l-2.8,0.5l0.3,1.6l2.4-0.4l0.2,1.1l-2.4,0.4l0.3,1.8l2.9-0.5l0.2,1.1l-4.3,0.8
					L145.1,89.9z"/>
				<path class="st5" d="M150.8,88.9l4.2-0.7l0.2,1.1l-2.8,0.5l0.3,1.6L155,91l0.2,1.1l-2.4,0.4l0.3,1.8l2.9-0.5l0.2,1.1l-4.3,0.8
					L150.8,88.9z"/>
			</g>
			<path class="st4" d="M52.3,156.4c-1.3,0-2.5-0.4-3.6-1.1c-1.4-1-2.3-2.4-2.6-4l-3.3-18.9l0.6-0.1c5.4-1,9.1-6.2,8.1-11.6
				c-0.5-2.6-1.9-4.9-4.1-6.5c-2.2-1.5-4.8-2.1-7.5-1.7l-0.5,0.1l-0.2-0.5l-3.6-20.3c-0.6-3.4,1.7-6.6,5.1-7.2l16.5-2.9l0.1,0.5
				c0.2,1.1,0.8,2,1.7,2.6c0.9,0.6,2,0.9,3,0.7c2.2-0.4,3.7-2.5,3.3-4.7l-0.1-0.5l116-20.4l0.6,3.4l-0.5,0.1c-0.7,0.1-1.2,0.8-1,1.5
				l0,0.2c0.1,0.3,0.2,0.6,0.5,0.8c0.3,0.2,0.6,0.3,1,0.2l0.5-0.1l0.4,2.2l-0.5,0.1c-0.3,0.1-0.6,0.2-0.8,0.5
				c-0.2,0.3-0.3,0.6-0.2,1l0,0.2c0.1,0.3,0.2,0.6,0.5,0.8c0.3,0.2,0.6,0.3,1,0.2l0.5-0.1l0.4,2.2l-0.5,0.1c-0.7,0.1-1.2,0.8-1,1.5
				l0,0.2c0.1,0.7,0.8,1.2,1.5,1L184,76l0.4,2.2l-0.5,0.1c-0.3,0.1-0.6,0.2-0.8,0.5c-0.2,0.3-0.3,0.6-0.2,1l0,0.2
				c0.1,0.3,0.2,0.6,0.5,0.8c0.3,0.2,0.6,0.3,1,0.2l0.5-0.1l0.4,2.2l-0.5,0.1c-0.7,0.1-1.2,0.8-1,1.5l0,0.2c0.1,0.7,0.8,1.2,1.5,1
				l0.5-0.1l0.4,2.2l-0.5,0.1c-0.7,0.1-1.2,0.8-1,1.5l0,0.2c0.1,0.3,0.2,0.6,0.5,0.8c0.3,0.2,0.6,0.3,1,0.2l0.5-0.1L187,93l-0.5,0.1
				c-0.3,0.1-0.6,0.2-0.8,0.5s-0.3,0.6-0.2,1l0,0.2c0.1,0.7,0.8,1.2,1.5,1l0.5-0.1l0.4,2.2l-0.5,0.1c-0.7,0.1-1.2,0.8-1,1.5l0,0.2
				c0.1,0.3,0.2,0.6,0.5,0.8c0.3,0.2,0.6,0.3,1,0.2l0.5-0.1l0.4,2.2l-0.5,0.1c-0.3,0.1-0.6,0.2-0.8,0.5s-0.3,0.6-0.2,1l0,0.2
				c0.1,0.7,0.8,1.2,1.5,1l0.5-0.1l0.4,2.2l-0.5,0.1c-0.7,0.1-1.2,0.8-1,1.5l0,0.2c0.1,0.3,0.2,0.6,0.5,0.8c0.3,0.2,0.6,0.3,1,0.2
				l0.5-0.1l0.4,2.2l-0.5,0.1c-0.3,0.1-0.6,0.2-0.8,0.5c-0.2,0.3-0.3,0.6-0.2,1l0,0.2c0.1,0.3,0.2,0.6,0.5,0.8
				c0.3,0.2,0.6,0.3,1,0.2l0.5-0.1l0.4,2.2l-0.5,0.1c-0.7,0.1-1.2,0.8-1,1.5l0,0.2c0.1,0.3,0.2,0.6,0.4,0.7c0.3-0.2,0.6-0.3,0.9-0.4
				l0.5-0.1l0.3,1.7l-0.5,0.1c-0.4,0.1-0.7,0-1-0.1c-0.1,0.2-0.2,0.5-0.1,0.8l0,0.2c0.1,0.7,0.8,1.2,1.5,1.1l0.5-0.1l0.4,2.2
				l-0.5,0.1c-0.7,0.1-1.2,0.8-1,1.5l0,0.2c0.1,0.7,0.8,1.2,1.5,1l0.5-0.1l0.6,3.1L77.8,152l-0.1-0.5c-0.2-1.1-0.8-2-1.7-2.6
				c-0.9-0.6-2-0.9-3-0.7c-1.1,0.2-2,0.8-2.6,1.7c-0.6,0.9-0.9,2-0.7,3l0.1,0.5l-16.5,2.9C53,156.4,52.6,156.4,52.3,156.4z
				 M44,133.2l3.2,17.9c0.2,1.4,1,2.6,2.2,3.4c1.1,0.8,2.5,1.1,3.9,0.9l15.5-2.7c-0.1-1.2,0.2-2.3,0.9-3.3c0.8-1.1,1.9-1.8,3.3-2.1
				c1.3-0.2,2.7,0.1,3.8,0.8c1,0.7,1.7,1.7,2,2.8l114-20.1l-0.2-1.2c-1,0-2-0.8-2.2-1.9l0-0.2c-0.2-1.1,0.4-2.1,1.4-2.5l-0.1-0.3
				c-1,0-2-0.8-2.2-1.9l0-0.2c-0.1-0.5,0-1.1,0.2-1.5c-0.4-0.3-0.7-0.8-0.7-1.3l0-0.2c-0.2-1.1,0.4-2.1,1.4-2.5l-0.1-0.3
				c-0.4,0-0.8-0.2-1.2-0.4c-0.5-0.4-0.8-0.9-0.9-1.5l0-0.2c-0.1-0.6,0-1.2,0.4-1.7c0.3-0.4,0.6-0.6,1-0.8l-0.1-0.3
				c-0.4,0-0.8-0.2-1.2-0.4c-0.5-0.4-0.8-0.9-0.9-1.5l0-0.2c-0.2-1.1,0.4-2.1,1.4-2.5l-0.1-0.3c-1,0-2-0.8-2.2-1.9l0-0.2
				c-0.1-0.6,0-1.2,0.4-1.7c0.3-0.4,0.6-0.6,1-0.8l-0.1-0.3c-0.4,0-0.8-0.2-1.2-0.4c-0.5-0.4-0.8-0.9-0.9-1.5l0-0.2
				c-0.2-1.1,0.4-2.1,1.4-2.5l-0.1-0.3c-1,0-2-0.8-2.2-1.9l0-0.2c-0.1-0.6,0-1.2,0.4-1.7c0.3-0.4,0.6-0.6,1-0.8l-0.1-0.3
				c-0.4,0-0.8-0.2-1.2-0.4c-0.5-0.4-0.8-0.9-0.9-1.5l0-0.2c-0.2-1.1,0.4-2.1,1.4-2.5l-0.1-0.3c-1,0-2-0.8-2.2-1.9l0-0.2
				c-0.2-1.1,0.4-2.1,1.4-2.5L184,82c-0.4,0-0.8-0.2-1.2-0.4c-0.5-0.4-0.8-0.9-0.9-1.5l0-0.2c-0.1-0.6,0-1.2,0.4-1.7
				c0.3-0.4,0.6-0.6,1-0.8l-0.1-0.3c-1,0-2-0.8-2.2-1.9l0-0.2c-0.2-1.1,0.4-2.1,1.4-2.5l-0.1-0.3c-0.4,0-0.8-0.2-1.2-0.4
				c-0.5-0.4-0.8-0.9-0.9-1.5l0-0.2c-0.1-0.6,0-1.2,0.4-1.7c0.3-0.4,0.6-0.6,1-0.8l-0.1-0.3c-0.4,0-0.8-0.2-1.2-0.4
				c-0.5-0.4-0.8-0.9-0.9-1.5l0-0.2c-0.2-1.1,0.4-2.1,1.4-2.5l-0.3-1.5l-114,20.1c0.2,2.6-1.6,4.9-4.2,5.4c-1.3,0.2-2.7-0.1-3.8-0.8
				c-1-0.7-1.7-1.7-2-2.8l-15.5,2.7c-2.8,0.5-4.8,3.2-4.3,6.1l3.5,19.8c2.8-0.4,5.5,0.3,7.8,1.9c2.4,1.7,4,4.2,4.5,7.1
				C53.5,126.4,49.7,132,44,133.2z"/>
		</g>
	</g>
	<circle class="st6" cx="30" cy="30" r="30"/>
	<g>
		<g>
			<path class="st1" d="M21.5,11.2c-0.2,0.7-0.5,1.5-0.8,2.2V22h-1.4v-6c-0.3,0.4-0.5,0.7-0.8,1c-0.1-0.3-0.5-1.2-0.7-1.5
				c0.9-1.1,1.8-2.9,2.3-4.6L21.5,11.2z M29.2,17.4h-1.1c0.2,0.2,0.4,0.5,0.5,0.6l-0.8,0.5c-0.1-0.2-0.4-0.6-0.7-0.8
				c-0.1,0.5-0.4,0.7-1,0.7h-1c-0.1,0.1-0.2,0.2-0.3,0.4h2.4l0.2,0l0.9,0.5c-0.4,0.6-0.9,1.1-1.7,1.5c0.8,0.2,1.6,0.3,2.6,0.3
				c-0.3,0.3-0.5,0.7-0.7,1c-1.3-0.1-2.4-0.4-3.4-0.7c-1,0.3-2.2,0.6-3.5,0.8c-0.1-0.3-0.4-0.7-0.7-1c1-0.1,1.9-0.2,2.7-0.4
				c-0.2-0.1-0.5-0.3-0.7-0.4c-0.3,0.2-0.6,0.4-1,0.5c-0.2-0.3-0.5-0.6-0.8-0.8c0.4-0.1,0.7-0.3,1-0.4c-0.2-0.2-0.3-0.3-0.4-0.5
				l1-0.4c0.1,0.1,0.2,0.2,0.3,0.3c0.3-0.2,0.6-0.5,0.8-0.7c-0.2-0.1-0.3-0.3-0.4-0.7c-0.3,0.4-0.6,0.7-0.9,1l-0.8-0.6
				c0.2-0.1,0.4-0.3,0.6-0.5h-1.1v-1.7h1.1v-3h2c0-0.1,0.1-0.3,0.1-0.4h-2.8v-1H29v1h-3.2l-0.2,0.4h2.6v3h1V17.4z M27.4,16.7
				c0.2,0.2,0.4,0.3,0.6,0.5v-0.7h-2.3c0.3,0.2,0.5,0.4,0.6,0.6l-0.8,0.5c-0.2-0.2-0.6-0.6-0.9-0.9l0.4-0.2h-2.5v0.8
				c0.2-0.2,0.4-0.4,0.5-0.6l0.6,0.3v-0.2h1.1v0.5c0,0.2,0.1,0.3,0.4,0.3H26c0.2,0,0.3-0.1,0.3-0.4c0.1,0.1,0.3,0.1,0.6,0.2
				c-0.1-0.1-0.2-0.2-0.3-0.3L27.4,16.7z M23.6,13.5v0.4h3.3v-0.4H23.6z M26.9,14.4h-3.3v0.4h3.3V14.4z M23.6,15.7h3.3v-0.4h-3.3
				V15.7z M25.1,20.2c0.5-0.2,0.9-0.4,1.2-0.6l-2.5,0C24.2,19.8,24.7,20,25.1,20.2z"/>
			<path class="st1" d="M30.8,21c0.5-0.6,0.9-1.4,1.1-2.1l1.2,0.5c-0.3,0.8-0.6,1.7-1.1,2.3L30.8,21z M35.5,12.5h-4.4v-1.1h4.4v-0.6
				H37v0.6h4.5v1.1H37v0.5h3.7v3.5h-1.2c0.8,0.4,1.6,1,2.1,1.5l-1,0.8c-0.2-0.2-0.3-0.3-0.6-0.5c-1.1,0-2.3,0-3.4,0.1
				c0.6,0.4,1.1,0.8,1.4,1.2l-1,0.8c-0.4-0.4-1.1-1.1-1.8-1.5l0.6-0.5c-1.7,0-3.3,0-4.6,0.1l-0.1-1.2c1.2,0,2.7,0,4.3,0v-0.7h-3.6
				v-3.5h3.6V12.5z M33.2,14.4h2.3v-0.6h-2.3V14.4z M35.5,15.8v-0.6h-2.3v0.6H35.5z M37.7,20.7c0.5,0,0.6-0.1,0.7-1
				c0.3,0.2,0.9,0.4,1.2,0.4c-0.2,1.4-0.6,1.7-1.8,1.7h-2.3c-1.7,0-2.1-0.3-2.1-1.5V19h1.4v1.4c0,0.3,0.1,0.4,0.8,0.4H37.7z
				 M37,13.9v0.6h2.2v-0.6H37z M37,15.8h2.2v-0.6H37V15.8z M38.5,17.3c-0.2-0.1-0.4-0.2-0.6-0.3l0.5-0.4H37v0.7L38.5,17.3z
				 M40.5,18.9c0.6,0.7,1.1,1.7,1.2,2.3l-1.3,0.4c-0.1-0.6-0.6-1.6-1.2-2.4L40.5,18.9z"/>
		</g>
	</g>
	<g>
		<g>
			<path class="st1" d="M23,45.9c5.6-5,9-8.9,9-12.1c0-2.1-1.1-3.4-3.1-3.4c-1.5,0-2.8,1-3.8,2.1l-2.2-2.2c1.9-2,3.8-3.1,6.6-3.1
				c3.9,0,6.5,2.5,6.5,6.4c0,3.8-3.1,7.8-6.9,11.5c1-0.1,2.4-0.2,3.4-0.2h4.5v3.5H23V45.9z"/>
		</g>
	</g>
</g>
</svg>
