<?xml version="1.0" encoding="utf-8"?>
<!-- Generator: Adobe Illustrator 26.3.1, SVG Export Plug-In . SVG Version: 6.00 Build 0)  -->
<svg version="1.1" id="圖層_1" xmlns="http://www.w3.org/2000/svg" xmlns:xlink="http://www.w3.org/1999/xlink" x="0px" y="0px"
	 viewBox="0 0 145 175" style="enable-background:new 0 0 145 175;" xml:space="preserve">
<style type="text/css">
	.st0{fill:#F4CED5;}
	.st1{fill:#FFA9B1;}
	.st2{fill:#E46454;}
	.st3{fill:#5379A3;}
	.st4{fill:#45628F;}
	.st5{fill:#FFFCF7;}
	.st6{fill:#693B17;}
	.st7{fill:#BB3B31;}
	.st8{fill:#6A1308;}
	.st9{fill:#FDF8EF;}
	.st10{fill:#F8EEEC;}
	.st11{fill:#293E47;}
	.st12{fill:#E7E0CB;}
	.st13{fill:#393A46;}
	.st14{fill:#4B6F9B;}
	.st15{fill:#E2E2EE;}
	.st16{fill:#525D92;}
	.st17{fill:#C79EC9;}
	.st18{fill:#2A3821;}
	.st19{fill:#F8F8F8;}
	.st20{fill:#2D3E1F;}
	.st21{fill:#FAD8BE;}
</style>
<g>
	<circle class="st0" cx="72.5" cy="102.4" r="72.5"/>
	<g>
		<path class="st1" d="M38.6,39.3h3.3c0.4,0,0.8,0.4,0.8,0.8v0.5c0,0.4-0.4,0.8-0.8,0.8h-8.4c-1.3,0.8-2.6,1.7-3.9,2.7
			c0.2,0.9,1,1.6,2,1.6h28.5c1.1,0,2.1-1,2.1-2.1v-0.1c0-1.1-1-2.1-2.1-2.1H48.2c-0.4,0-0.8-0.4-0.8-0.8V40c0-0.4,0.4-0.8,0.8-0.8
			h4.4c1.1,0,2.1-1,2.1-2.1v-0.1c0-1.1-1-2.1-2.1-2.1h-6.8c-2.9,1.1-5.6,2.5-8.3,3.9C37.8,39.2,38.2,39.3,38.6,39.3z"/>
		<path class="st1" d="M138.6,72.7H131c-0.4,0-0.8-0.4-0.8-0.8v-0.5c0-0.4,0.4-0.8,0.8-0.8h4.4c0.8,0,1.4-0.4,1.8-1
			c-0.5-1.1-1.1-2.2-1.7-3.2l0,0h-14c-1.1,0-2.1,1-2.1,2.1v0.1c0,1.1,1,2.1,2.1,2.1h3.3c0.4,0,0.8,0.4,0.8,0.8v0.5
			c0,0.4-0.4,0.8-0.8,0.8h-10.2c-1.1,0-2.1,1-2.1,2.1v0.1c0,1.1,1,2.1,2.1,2.1h25.9C139.8,75.5,139.3,74.1,138.6,72.7z"/>
		<path class="st1" d="M34.9,79.7H19.2c-0.5,0-0.8-0.4-0.8-0.8v-0.6c0-0.5,0.4-0.8,0.8-0.8h1.5c1.3,0,2.3-1.1,2.3-2.3V75
			c0-1.3-1.1-2.3-2.3-2.3h-6.1c-0.5,0-0.8-0.4-0.8-0.8s0.4-0.8,0.8-0.8h14.9c1.3,0,2.3-1.1,2.3-2.3v-0.1c0-1.3-1.1-2.3-2.3-2.3H14.6
			c-0.5,0-0.8-0.4-0.8-0.8V65c0-0.5,0.4-0.8,0.8-0.8h5.5c1.3,0,2.3-1.1,2.3-2.3v-0.1c0-1.3-1.1-2.3-2.3-2.3h-5.8
			C11.6,63,9.2,66.9,7.2,71h0.3c0.5,0,0.8,0.4,0.8,0.8c0,0.5-0.4,0.8-0.8,0.8H6.4c-0.7,1.6-1.4,3.2-2,4.8h7.7c0.5,0,0.8,0.4,0.8,0.8
			V79c0,0.5-0.4,0.8-0.8,0.8h-1.3c-1.3,0-2.3,1.1-2.3,2.3v0.1c0,1.3,1.1,2.3,2.3,2.3h24c1.3,0,2.3-1.1,2.3-2.3v-0.1
			C37.2,80.8,36.1,79.7,34.9,79.7z"/>
		<g>
			<path class="st2" d="M107.7,90.7c-0.1,19.5-15.9,35.2-35.4,35.1c-19.5-0.1-35.2-15.9-35.1-35.4c0.1-19.5,15.9-35.2,35.5-35.1
				C92,55.3,107.8,71.2,107.7,90.7z"/>
			<path class="st3" d="M86,96.9c-0.9-1.1-1.4-2.6-3.1-2.6c-0.2,0-0.4,0.1-0.5,0.1c-2.1,0.5-2.3,3.7-4.7,3.7c-2.6,0-2.6-3.8-5.2-3.8
				c-2.6,0-2.6,3.8-5.3,3.8c-2.5,0-2.6-3.2-4.7-3.7c-0.2-0.1-0.3-0.1-0.5-0.1c-1.6,0-2.3,1.5-3.1,2.6c0,0-12.6,28.5-38.2,48.3
				c-1.6,1.2-0.7,3.7,1.3,3.7h101c2,0,2.8-2.5,1.3-3.7C98.6,125.3,86,96.9,86,96.9z"/>
			<path class="st4" d="M124.1,145.2c-9.7-7.5-17.5-16.3-23.5-24.3C89,134,72.2,142.2,53.3,142.2c-8.4,0-16.5-1.7-23.8-4.7
				c-2.8,2.6-5.7,5.2-8.8,7.6c-1.6,1.2-0.7,3.7,1.3,3.7h100.9C124.9,148.9,125.7,146.4,124.1,145.2z"/>
			<path class="st5" d="M66.7,107.7c2.8,0,2.8,4.6,5.6,4.6c2.8,0,2.8-4.6,5.6-4.6c2.8,0,2.8,4.6,5.6,4.6s2.8-4.6,5.6-4.6
				c2.7,0,2.8,4.2,5.3,4.6c-5.8-9-8.7-15.5-8.7-15.5c-0.9-1.1-1.4-2.6-3.1-2.6c-0.2,0-0.4,0.1-0.5,0.1c-2.1,0.5-2.3,3-4.7,3
				c-2.6,0-2.6-3.1-5.2-3.1c-2.6,0-2.6,3.1-5.3,3.1c-2.5,0-2.6-2.6-4.7-3c-0.2-0.1-0.3-0.1-0.5-0.1c-1.6,0-2.3,1.5-3.1,2.6
				c0,0-2.9,6.5-8.7,15.5c2.5-0.4,2.6-4.6,5.3-4.6c2.8,0,2.8,4.6,5.6,4.6C63.9,112.3,63.9,107.7,66.7,107.7z"/>
		</g>
		<g>
			<rect x="11" y="120.3" class="st2" width="3.9" height="6.8"/>
			<rect x="32.5" y="120.3" class="st2" width="3.9" height="6.8"/>
			<path class="st2" d="M11,127.1l-0.2,13.4c1,1.7,2.2,3.4,3.4,5h1.1l-0.3-18.3L11,127.1L11,127.1z"/>
			<polygon class="st2" points="36.7,145.4 32.1,145.4 32.5,127.1 36.4,127.1 			"/>
			<rect x="21.3" y="118.7" class="st6" width="4.9" height="6.2"/>
			<path class="st7" d="M12.9,124.2c-1.1,0-2.2-0.2-3.1-0.6c-0.1-0.1-0.2,0.1-0.2,0.2v1.7h6.7v-1.7c0-0.2-0.1-0.2-0.2-0.2
				C15.1,124,14,124.2,12.9,124.2z"/>
			<path class="st7" d="M34.4,124.2c-1.1,0-2.2-0.2-3.1-0.6c-0.1-0.1-0.2,0.1-0.2,0.2v1.7h6.7v-1.7c0-0.2-0.1-0.2-0.2-0.2
				C36.5,124,35.5,124.2,34.4,124.2z"/>
			<path class="st8" d="M16.4,145.1h-2.5c0.9,1.3,1.9,2.5,2.9,3.7c0.4-0.2,0.7-0.5,0.7-1v-1.6C17.5,145.6,17,145.1,16.4,145.1z"/>
			<path class="st8" d="M37.8,148.9H31c-0.6,0-1.1-0.5-1.1-1.1v-1.6c0-0.6,0.5-1.1,1.1-1.1h6.8c0.6,0,1.1,0.5,1.1,1.1v1.6
				C38.9,148.4,38.4,148.9,37.8,148.9z"/>
			<path class="st7" d="M37.7,118.7H31v0.4c0,0.6,0.5,1.1,1.1,1.1h4.4c0.6,0,1.1-0.5,1.1-1.1V118.7z"/>
			<path class="st7" d="M16.3,118.7H9.6v0.4c0,0.6,0.5,1.1,1.1,1.1h4.4c0.6,0,1.1-0.5,1.1-1.1C16.3,119.2,16.3,118.7,16.3,118.7z"/>
			<rect x="6.2" y="115.6" class="st7" width="34.8" height="1.7"/>
			<path class="st2" d="M41.1,117.2H6.2v0.4c0,0.7,0.5,1.1,1.1,1.1h32.5c0.7,0,1.1-0.5,1.1-1.1L41.1,117.2L41.1,117.2z"/>
			<rect x="6.2" y="125.5" class="st2" width="34.8" height="3.1"/>
			<path class="st8" d="M43,111.3c-1.1,1.2-2.9,2.2-4.7,2.2H9c-1.8,0-3.5-0.9-4.7-2.2H2l1.9,3.4c0.4,0.6,1,1,1.7,1h36.2
				c0.7,0,1.3-0.4,1.7-1l1.9-3.4H43z"/>
			<path class="st9" d="M25.3,124.1H22v-4.7h3.3V124.1z M22.3,123.8H25v-4.1h-2.7V123.8z"/>
		</g>
		<g>
			<rect x="109.6" y="58.3" class="st8" width="4.3" height="90.2"/>
			<path class="st7" d="M120.4,111.2h-16.8l-0.1,0.6c0,0.1-0.8,7.6-3.4,17.2l-0.3,1.1c-1.6,5.6-3.8,11.9-7,17.7l-0.5,1h9.2l1.6-3.4
				c0.3-0.7,0.5-1.5,0.8-2.3c1-3,3.1-5,5.8-5.7h4.4c2.6,0.7,4.6,2.5,5.6,5.3v0.2h0.1c0,0.1,0.1,0.1,0.1,0.1c0.1,0.2,0.2,0.5,0.3,0.8
				c0.2,0.5,0.4,1,0.5,1.5l1.6,3.3h5.8c0.7-0.8,1.4-1.7,2-2.6c-8-16-9.8-34.2-9.8-34.4L120.4,111.2z M119.1,112.6
				c0.1,0.6,0.2,1.6,0.4,2.8l-2.3-2.8H119.1z M119.1,117.1h-5.7l2.8-3.5L119.1,117.1z M110.7,123.5h-6.6l3.4-4L110.7,123.5z
				 M108.5,118.4h7.2l-3.7,4.5L108.5,118.4z M110.7,124.8l-3.1,3.9l-2-4L110.7,124.8z M111.9,125.7l2.9,4.1h-6.1L111.9,125.7z
				 M112.9,124.8h5.4l-2.6,3.9L112.9,124.8z M113.5,123.5l3.1-3.8l3.2,3.8H113.5z M115.2,112.6l-3.1,3.9l-3-3.9H115.2z M110.7,117.1
				h-5.9l3.1-3.7L110.7,117.1z M104.8,112.6h1.9l-2.2,2.7C104.6,114.1,104.7,113.2,104.8,112.6z M104,118.4h2.6l-3.4,4
				C103.5,121,103.7,119.6,104,118.4z M102.6,124.8h1.1l-1.6,1.9C102.3,126,102.5,125.4,102.6,124.8z M101.4,129.7l3.3-3.8l2,4h-5.3
				C101.4,129.8,101.4,129.8,101.4,129.7z M101,131.2h1.6l-2.5,2.6C100.4,132.9,100.7,132,101,131.2z M103.7,132l2.3,4.1h-6.1
				L103.7,132z M98.9,137.6h1.3l-2.1,2.1C98.4,138.9,98.6,138.2,98.9,137.6z M101.1,138.6l1,3.2H98L101.1,138.6z M96.7,143.1h1.6
				l-2.6,2.3C96,144.6,96.3,143.8,96.7,143.1z M95.3,147.5l3.4-2.9l1.4,2.9H95.3z M101.9,145l-0.8,1.6l-1.6-3.4
				c0-0.1-0.1-0.1-0.1-0.1h3.1C102.3,143.7,102.1,144.4,101.9,145z M103.4,141.1l-1.1-3.5h4.3C105.3,138.5,104.2,139.6,103.4,141.1z
				 M104.8,131.2h5.9l-3.5,4.3L104.8,131.2z M114.3,136.2c-0.8-0.2-1.6-0.3-2.3-0.3c-0.8,0-1.6,0.1-2.3,0.3h-1.3l3.6-4.4l3.2,4.4
				H114.3z M113.1,131.2h6.2l-3.1,4.3L113.1,131.2z M117.5,136.2l3.1-4.3l3.2,4.3H117.5z M122.5,138.6l3.2,3.2h-4.1L122.5,138.6z
				 M120.3,140.7c-0.8-1.3-1.8-2.4-2.9-3.2h4L120.3,140.7z M122.1,145c-0.2-0.5-0.4-1-0.5-1.4c-0.1-0.2-0.1-0.3-0.2-0.5h3.2
				l-1.7,3.5L122.1,145z M124,147.5l1.5-2.9l3.2,2.9H124z M127.3,143.1c0.3,0.7,0.6,1.4,0.9,2l-2.3-2h1.2
				C127.1,143.1,127.2,143.1,127.3,143.1z M126,140.2l-2.6-2.6h1.6C125.3,138.5,125.7,139.3,126,140.2z M123.8,134l-2-2.8h1.2
				C123.3,132.1,123.5,133,123.8,134z M122.3,129.8h-5.6l2.8-4.1l2.8,4C122.2,129.8,122.2,129.8,122.3,129.8z M121.8,126.7l-1.3-1.9
				h0.8C121.5,125.4,121.6,126,121.8,126.7z M117.3,118.4h2.8c0.2,1.3,0.5,2.6,0.8,4.1L117.3,118.4z"/>
			<path class="st7" d="M109.3,108.1l2.4-0.1l2.5,0.1V108l5.6-0.1l-0.1-0.8c0,0-0.1-0.3-0.1-0.7c0.1-0.2,0.1-0.5-0.1-0.7l0,0
				c-0.7-4.6-3-20-4.2-39.8v-1.4h-0.1c-0.1-1.1-0.1-2.2-0.2-3.3c0.1-0.2,0.1-0.4,0-0.5v-0.1l-0.1-0.7h-6.1l-0.1,0.6
				c-0.1,0.1-0.1,0.3,0,0.4c-0.1,2.8-0.3,5.4-0.5,8h-0.1v0.8c-0.2,3.2-0.5,6.4-0.8,9.3h-0.1v1.4l0,0c-1.5,16-3.3,26.6-3.4,26.8
				l-0.1,0.8L109.3,108.1L109.3,108.1z M110.8,64.5h-0.9c0-0.4,0.1-0.9,0.1-1.3L110.8,64.5z M110.5,61.3h2.8l-1.4,2.3L110.5,61.3z
				 M113.3,65.9l-1.4,2.3l-1.4-2.3H113.3z M112.8,100.8l1.9-3.2l2,3.2H112.8z M107.1,100.8l2.1-3.4l2,3.4H107.1z M115.2,83.6h-2
				l1.9-2.3C115.1,82.1,115.2,82.8,115.2,83.6z M114.1,84.9l-2,3.1l-2-3.1H114.1z M113.8,90.1L113.8,90.1l-1.8,3.4l-1.7-3.4H113.8z
				 M112.9,94.7l1.5-2.8l1.6,2.8H112.9z M111.1,94.7h-3.2l1.7-2.9L111.1,94.7z M114.1,96l-2,3.4l-2-3.4H114.1z M115.3,96h1.3
				c0.1,0.9,0.2,1.7,0.4,2.5L115.3,96z M115,90.1C115,90.1,115,90.1,115,90.1l0.9-0.1c0.1,0.7,0.2,1.4,0.2,2.1L115,90.1z
				 M113.2,88.7l2.2-3.2c0.1,1.1,0.2,2.2,0.4,3.2H113.2z M113,73.9l1.3-1.8c0.1,0.6,0.1,1.2,0.1,1.8H113z M113.9,67.5
				c0.1,0.5,0.1,1,0.1,1.4h-1L113.9,67.5z M113.7,70.3l-1.9,2.8l-1.8-2.8H113.7z M109.4,71.9l1.3,2h-1.5
				C109.3,73.2,109.3,72.5,109.4,71.9z M113.9,75.2L112,78l-1.9-2.8H113.9z M114.6,76.7c0.1,0.8,0.1,1.6,0.2,2.3h-1.8L114.6,76.7z
				 M114,80.3l-2,2.6l-2-2.6H114z M110.7,83.6h-2.3c0.1-0.8,0.2-1.7,0.2-2.6L110.7,83.6z M108.4,84.9L108.4,84.9l2.4,3.8h-3
				c0.1-1.2,0.2-2.5,0.4-3.8H108.4z M108.9,90.1l-1.5,2.6c0.1-0.8,0.2-1.7,0.3-2.6H108.9z M108.5,96l-1.9,3.1c0.1-1,0.2-2,0.4-3.1
				H108.5z M106.1,102.1h1.1l-1.4,1.8C105.9,103.4,106.1,102.8,106.1,102.1z M114.4,102.2l-2.4,3.1l-2.3-3.1H114.4z M113.5,106.6
				l-0.5,0.1h-0.3l2.8-3.6l2.6,3.2c0,0.1,0.1,0.2,0.1,0.3L113.5,106.6z M116.5,102.2h0.9c0.1,0.5,0.1,1,0.2,1.4L116.5,102.2z
				 M112.9,64.5l0.7-1.1c0,0.4,0.1,0.8,0.1,1.1H112.9z M109.7,67.3l1,1.6h-1.1C109.6,68.4,109.7,67.9,109.7,67.3z M109,76.3l1.9,2.8
				h-2.1C108.9,78.1,109,77.2,109,76.3z M105.5,106.6l2.9-3.7l2.9,3.8h-0.5v-0.1L105.5,106.6z"/>
			<path class="st7" d="M113,11.6h-0.8h-0.8h-0.8c-0.1,2.9-0.2,7-0.4,11.6h3.1C113.2,18.6,113.1,14.5,113,11.6z"/>
			<path class="st10" d="M110.3,23.2c-0.1,4.6-0.3,9.6-0.4,14.1h3.9c-0.1-4.6-0.2-9.6-0.4-14.1H110.3z"/>
			<path class="st7" d="M109.9,37.3c-0.2,8.9-0.4,16.2-0.4,16.2l2,0.1l0,0h0.4h0.4l0,0l2-0.1c0,0-0.2-7.4-0.4-16.2H109.9z"/>
			<rect x="109.4" y="17.4" class="st11" width="4.8" height="1.8"/>
			<rect x="109.4" y="21.9" class="st11" width="4.8" height="1.8"/>
			<rect x="106.5" y="56.7" class="st12" width="10.7" height="3.6"/>
			<rect x="106.5" y="53.2" class="st7" width="10.7" height="3.6"/>
			<path class="st10" d="M107.8,74.6c-0.1,1.5-0.2,3-0.4,4.4h-0.1v1.4l0,0c-0.5,5.8-1.1,10.8-1.7,15H118c-0.7-5.5-1.5-12.6-2.2-20.8
				H107.8z M115.8,88.7h-2.5l2.2-3.2C115.5,86.6,115.6,87.6,115.8,88.7z M112,88.1l-2-3.1h4L112,88.1z M115.2,83.6h-2l1.9-2.3
				C115.1,82.1,115.2,82.8,115.2,83.6z M111.9,82.9l-2-2.6h4.1L111.9,82.9z M114.8,79H113l1.6-2.3C114.7,77.5,114.7,78.2,114.8,79z
				 M113.9,75.2L112,78l-1.9-2.8H113.9z M109,76.3l1.9,2.8h-2.1C108.9,78.1,109,77.2,109,76.3z M108.6,80.9l2.1,2.6h-2.3
				C108.5,82.7,108.6,81.8,108.6,80.9z M108.3,84.9h0.2l0,0l2.4,3.7h-3C108,87.5,108.1,86.3,108.3,84.9z M107.7,90.1h1.2l-1.5,2.6
				C107.5,91.9,107.6,91,107.7,90.1z M107.9,94.7l1.7-2.9l1.6,2.9H107.9z M110.2,90.1h3.5l-0.1,0.1l-1.7,3.3L110.2,90.1z
				 M112.9,94.7l1.5-2.8l1.6,2.8H112.9z M115,90.1C115,90.1,115,90.1,115,90.1l0.9-0.1c0.1,0.7,0.2,1.4,0.2,2.1L115,90.1z"/>
			<polygon class="st10" points="112.7,105.7 100.1,105.7 101.3,112.6 112.7,112.6 122.3,112.6 123.4,105.7 			"/>
			<g>
				<rect x="102" y="107.1" class="st13" width="1.1" height="1.7"/>
				<rect x="102" y="109.6" class="st13" width="1.1" height="1.7"/>
				<rect x="104.3" y="107.1" class="st13" width="1.1" height="1.7"/>
				<rect x="104.3" y="109.6" class="st13" width="1.1" height="1.7"/>
				<rect x="106.6" y="107.1" class="st13" width="1.1" height="1.7"/>
				<rect x="106.6" y="109.6" class="st13" width="1.1" height="1.7"/>
				<rect x="108.9" y="107.1" class="st13" width="1.1" height="1.7"/>
				<rect x="108.9" y="109.6" class="st13" width="1.1" height="1.7"/>
				<rect x="111.2" y="107.1" class="st13" width="1.1" height="1.7"/>
				<rect x="111.2" y="109.6" class="st13" width="1.1" height="1.7"/>
				<rect x="113.5" y="107.1" class="st13" width="1.1" height="1.7"/>
				<rect x="113.5" y="109.6" class="st13" width="1.1" height="1.7"/>
				<rect x="115.8" y="107.1" class="st13" width="1.1" height="1.7"/>
				<rect x="115.8" y="109.6" class="st13" width="1.1" height="1.7"/>
				<rect x="118.2" y="107.1" class="st13" width="1.1" height="1.7"/>
				<rect x="118.2" y="109.6" class="st13" width="1.1" height="1.7"/>
				<rect x="120.5" y="107.1" class="st13" width="1.1" height="1.7"/>
				<rect x="120.5" y="109.6" class="st13" width="1.1" height="1.7"/>
			</g>
			<rect x="107.6" y="57.7" class="st13" width="1.1" height="1.7"/>
			<rect x="109.9" y="57.7" class="st13" width="1.1" height="1.7"/>
			<rect x="112.2" y="57.7" class="st13" width="1.1" height="1.7"/>
			<rect x="114.6" y="57.7" class="st13" width="1.1" height="1.7"/>
		</g>
		<path class="st14" d="M130.1,146.5c-16.7-2.2-35.8-3.4-56.1-3.4c-21.5,0-41.5,1.4-58.7,3.7C28.5,164,49.3,175,72.6,175
			C96,174.9,116.8,163.8,130.1,146.5z"/>
		<g>
			<path class="st15" d="M59.5,128.4c-0.7,1.9,0.4,4.1,2.5,4.9c2.1,0.8,5.2,5,5.9-1.1c0.2-2-0.5-5.1-3-6.4
				C63.8,125.1,60.2,126.5,59.5,128.4z"/>
			<path class="st15" d="M53.3,128.4c0.7,1.9-0.4,4.1-2.5,4.9c-2.1,0.8-5.2,5-5.9-1.1c-0.2-2,0.5-5.1,3-6.4
				C49,125.1,52.5,126.5,53.3,128.4z"/>
			<path class="st15" d="M71.7,143.7c0.1-0.4,0.4-0.8,0.8-0.9c2.7-0.7,2.6-4.9,1.2-6.8c-1.6-2.1-5.3-3-7.4-1.1
				c-1.4,1.3-1.4,3.4-0.8,5c0.2,0.6,0.5,1.1,0.9,1.5h-0.1l-5.3,4.4c0,0,0.2,0.5,0.5,1.2H44.9l-0.2,5.6c-2,1-3.3,3.1-3.3,5.5
				c0,1.5,0.5,2.9,1.4,4c-2.3,0.2-3.4,1.1-3.4,2.1c0,1.2,1.4,2.2,4.6,2.2c0.1,0,0.1,0,0.2,0h23.9c0.2,0,0.4,0,0.5,0
				c3.1,0,4.6-1,4.6-2.2c0-1-1.1-1.9-3.4-2.1c0.9-1.1,1.4-2.5,1.4-4c0-2.5-1.4-4.6-3.5-5.6C70.7,150.1,71.5,145.5,71.7,143.7z"/>
			<path class="st16" d="M60.4,148c-1.1,0.3-2.2,0.5-3.2,0.5c-1.1,0.1-2.3,0-3.4-0.2c-2-0.4-4-1.1-5.6-2.4l0.2,0.6
				c0.2,0.6,0.5,1.2,1,1.6c0.6,0.5,1.4,0.8,2.2,1.1c1.5,0.5,3.1,0.8,4.7,0.8l0,0l0,0c1.8,0,3.7-0.4,5.3-1c0.5-0.2,1.1-0.5,1.6-0.8
				c0.5-0.4,0.8-1,1-1.6l0.2-0.6c0,0.1-0.2,0.2-0.3,0.2c-0.1,0.1-0.2,0.2-0.4,0.2c-0.2,0.1-0.5,0.3-0.7,0.4c-0.5,0.2-1,0.5-1.5,0.7
				C61.3,147.7,60.9,147.8,60.4,148z"/>
			<circle class="st17" cx="56.4" cy="149.7" r="2.1"/>
			<path class="st18" d="M57.1,149.6c0-0.3-0.4-0.4-0.7-0.4c-0.4,0-0.7,0.1-0.7,0.4c0,0.2,0.2,0.4,0.4,0.5l0.1,1.6h0.1
				c0.1,0,0.1,0,0.2,0c0.1,0,0.1,0,0.2,0h0.1l0.1-1.6C56.9,150,57.1,149.8,57.1,149.6z"/>
			<path class="st17" d="M61.1,159.2l-3.7-6.9c-1.4-2.8-4.9-3.8-7.6-2.3l-2.1,1.1c-2.8,1.4-3.8,4.9-2.3,7.6l3.7,6.9
				c1.4,2.8,4.9,3.8,7.6,2.3l2.1-1.1C61.5,165.4,62.5,162,61.1,159.2z"/>
			<path class="st15" d="M53.9,167.7c-0.5,0-1-0.1-1.5-0.2c-1.3-0.4-2.4-1.3-3-2.5l-3.2-6.1c-1.3-2.5-0.4-5.6,2.2-7l1.9-1
				c1.2-0.7,2.6-0.8,3.9-0.4s2.4,1.3,3,2.5l3.2,6.1c1.3,2.5,0.4,5.6-2.2,7l-1.9,1C55.5,167.5,54.7,167.7,53.9,167.7z M52.5,150.7
				c-0.8,0-1.6,0.2-2.2,0.5l-1.9,1c-2.3,1.3-3.2,4.1-2,6.5l3.2,6.1c0.6,1.1,1.6,2,2.8,2.3c1.3,0.4,2.5,0.2,3.7-0.4l1.9-1
				c2.3-1.3,3.2-4.1,2-6.5l-3.2-6.1c-0.6-1.1-1.6-2-2.8-2.3C53.4,150.7,53,150.7,52.5,150.7z"/>
			<path class="st19" d="M54.6,153.8L54.6,153.8c-0.1,0.3-0.4,0.5-1,0.8c-0.1,0.1-0.2,0.1-0.3,0.1c-0.2,0.1-0.5,0-1-0.2
				c-0.4-0.1-0.7-0.2-1.1-0.4c-0.2,0.2-0.4,0.4-0.5,0.5c0.2,0,0.4,0.1,0.4,0.2c0,0,0,0.1,0.1,0.2c0.3-0.2,0.5-0.4,0.6-0.4
				c0.1-0.1,0.2-0.1,0.4-0.1c0.2,0,0.4,0.1,0.4,0.2c0.1,0.1,0,0.2-0.2,0.3c-0.1,0-0.1,0.1-0.2,0.1c-0.1,0.1-0.2,0.1-0.2,0.1
				c-0.2,0.1-0.4,0.2-0.5,0.3c0,0.1,0.2,0.5,0.5,1.2c0.1-0.3,0.2-0.6,0.2-0.8l-0.3-0.2v-0.1c0.1-0.1,0.1-0.1,0.2-0.1
				c0.2-0.1,0.4-0.2,0.7-0.2c0.3-0.1,0.5,0.1,0.6,0.2c0,0.1,0,0.1,0.1,0.1l-0.1,0.2h-0.1c-0.2,0.1-0.5,0.4-0.8,1
				c0.6-0.4,0.9-0.5,0.9-0.5c0.2-0.1,0.5-0.2,0.8-0.2c0.4,0,0.5,0.1,0.7,0.3c0.1,0.2,0.1,0.3-0.1,0.4c-0.1,0.1-0.4,0.1-0.8,0.2
				c-0.5,0.1-1,0.2-1.3,0.4c-0.3,0.2-0.7,0.4-1,0.7c-0.4,0.4-0.6,0.7-0.7,1c-0.1,0-0.2-0.1-0.5-0.2c-0.2-0.1-0.3-0.2-0.5-0.3v-0.1
				c0.3-0.1,0.5-0.1,0.6-0.2c0.2-0.1,0.6-0.4,1.2-1.1l-0.7-1.3c-0.2,0.2-0.4,0.3-0.4,0.4c-0.2,0.2-0.3,0.3-0.3,0.4L50,157
				c-0.1,0-0.4-0.1-0.6-0.4v-0.1l0.2-0.1c0.1-0.1,0.5-0.4,1-0.8v-0.1c-0.1-0.1-0.1-0.2-0.2-0.2c-0.2-0.1-0.3-0.1-0.3-0.1
				c-0.1,0-0.2,0-0.4-0.1c-0.1,0.5-0.2,1-0.4,1.4c-0.2,0.6-0.5,1-0.8,1.1c-0.1,0.1-0.1,0.1-0.2,0.1h-0.1c0.7-1.6,1-3.1,1-4.6
				c-0.1-0.1-0.2-0.2-0.4-0.2l-0.1-0.1c0.1-0.1,0.1-0.1,0.2-0.3c0.1-0.1,0.2-0.2,0.2-0.2c0.1-0.1,0.2-0.1,0.5,0s0.4,0.1,0.4,0.2l0,0
				c-0.1,0.1-0.1,0.2-0.1,0.3c0.9,0.3,1.3,0.4,1.3,0.4c0.5,0.2,1,0.2,1.4,0.3c0.3,0,0.6,0,0.9,0C54.1,153.7,54.3,153.7,54.6,153.8z
				 M50.8,153.9c-0.2-0.1-0.5-0.2-0.8-0.4c0,0.5,0,0.9-0.2,1.3c0.1-0.1,0.2-0.2,0.5-0.5C50.5,154.1,50.6,154,50.8,153.9z
				 M51.1,157.3c0.1,0.1,0.1,0.2,0.1,0.3s-0.1,0.2-0.2,0.2h-0.1c-0.2,0-0.4-0.2-0.5-0.4c-0.2-0.2-0.4-0.4-0.5-0.4l0.1-0.1
				c0.2-0.1,0.4-0.1,0.7-0.1C50.9,157.1,51,157.1,51.1,157.3z"/>
			<path class="st19" d="M52.1,160.9c0,0.2-0.1,0.3-0.2,0.5c-0.1,0.1-0.3,0.2-0.5,0.3c-0.1,0.1-0.2,0-0.5-0.1
				c-0.2-0.1-0.4-0.2-0.5-0.3v-0.1c0.1,0,0.1-0.1,0.2-0.1c0.1-0.1,0.2-0.1,0.2-0.2c0.1-0.1,0.2-0.2,0.2-0.2c0,0,0.1,0,0.1-0.1
				c0.1,0,0.2,0,0.5,0C51.8,160.7,52,160.8,52.1,160.9z M52.9,162.2C52.9,162.2,52.9,162.3,52.9,162.2c-0.1,0.2-0.2,0.5-0.2,0.7
				c-0.1,0.2,0,0.5,0.1,0.7c0.1,0.1,0.1,0.2,0.2,0.2c0.1,0,0.2,0.1,0.4,0.1c0.2,0,0.4,0.1,0.4,0.2c0.1,0.1,0.1,0.2,0.1,0.4
				c-0.4,0.3-0.7,0.5-0.8,0.7h-0.1c0.1-0.2,0.1-0.4,0.1-0.7c-0.2-0.1-0.4-0.4-0.5-0.6c-0.1-0.2-0.2-0.4-0.2-0.6
				c-0.2,0.1-0.3,0.2-0.2,0.2c-0.2,0.1-0.4,0.1-0.6,0l-0.1-0.1c0.2-0.2,0.4-0.5,0.5-0.8c0.1-0.3,0.2-0.5,0.3-0.5
				c0.1,0,0.2,0,0.4,0.1C52.8,162.1,52.9,162.2,52.9,162.2z M59,162.4L59,162.4c-0.2,1-0.4,1.5-0.7,1.6c0,0-0.2,0.1-0.5,0.1
				c-0.4,0.1-0.6,0.1-0.7,0.1c-0.9,0.2-1.7,0.5-2.3,0.8c-0.8,0.4-1.3,0.8-1.5,1.1l-0.1,0.1c-0.1,0-0.1-0.1-0.2-0.2
				c-0.1-0.1-0.1-0.2-0.1-0.4c0-0.1,0-0.3,0-0.4h0.1l0.2,0.1c0.8-0.5,1.3-0.8,1.7-1c0.4-0.2,0.8-0.4,1.1-0.5
				c-0.2-0.2-0.4-0.5-0.5-0.9c-0.6,0.4-1,0.8-1,1.1c-0.1,0-0.3-0.1-0.6-0.4v-0.1c0.1-0.1,0.2-0.1,0.3-0.1c0,0,0.1-0.1,0.2-0.2
				c0.2-0.2,0.5-0.4,0.9-0.8l-0.1-0.2c-0.2,0.1-0.4,0.3-0.7,0.7c-0.2-0.1-0.4-0.3-0.7-0.7s-0.4-0.7-0.6-0.7v-0.1
				c0.1-0.1,0.2-0.1,0.4-0.2c0,0,0.2-0.2,0.8-0.7l-0.1-0.2c-0.5,0.3-0.7,0.5-0.7,0.7c-0.1,0-0.1,0-0.1-0.1c0-0.1-0.1-0.1-0.1-0.2
				l-0.1-0.2l0.1-0.1l0.2-0.1c0.1,0,0.1-0.1,0.3-0.2c0.2-0.1,0.3-0.2,0.3-0.2c-0.1-0.1-0.1-0.1-0.2-0.2c-0.2,0.2-0.4,0.4-0.7,0.5H53
				c0,0,0,0.1,0.1,0.1c0.1,0.2,0.2,0.4,0.2,0.7c0.1,0.4,0.1,0.6-0.1,0.7c-0.1,0.1-0.2,0-0.3-0.1c-0.1-0.1-0.2-0.1-0.2-0.2
				c-0.1-0.1-0.1-0.2-0.1-0.4s0-0.4-0.1-0.5c-0.1-0.1-0.2-0.2-0.3-0.4l0.1-0.1c0.1,0,0.3-0.1,0.4-0.1c0.1-0.1,0.2-0.1,0.4-0.2
				c0.1-0.1,0.2-0.2,0.4-0.3c0.8-0.7,1.3-1.1,1.6-1.2c0.1-0.1,0.4-0.1,0.8-0.1c0.4,0,0.7,0.1,0.7,0.2c0,0.2-0.1,0.4-0.4,0.5
				s-0.5,0.4-0.5,0.5c0.1,0.1-0.1,0.2-0.3,0.4c-0.1,0.1-0.3,0.2-0.5,0.3l0.1,0.2c0.1-0.1,0.4-0.3,0.6-0.4c0.1-0.1,0.4-0.1,0.6-0.1
				c0.3,0,0.4,0.1,0.5,0.2c-0.1,0.1-0.1,0.2-0.2,0.4c0.1,0.3,0.1,0.5,0.1,0.6c0.1,0.2,0.1,0.5,0,0.6c-0.2,0.2-0.4,0.4-0.8,0.5
				l0.1,0.2c0.2-0.1,0.5-0.2,0.7-0.3l0.2-0.2c0.2-0.1,0.4-0.1,0.7-0.1c0.3,0,0.5,0.1,0.6,0.2c0,0.1,0.1,0.1,0.1,0.1
				c-0.1,0.1-0.1,0.2-0.2,0.2c-0.1,0.1-0.4,0.1-0.8,0.1c-0.2,0-0.4,0.1-0.7,0.2c-0.1,0-0.1,0.1-0.2,0.1l0.1,0.1
				c0.2,0.4,0.3,0.7,0.4,1c0.2-0.1,0.5-0.2,0.7-0.3c0.2-0.1,0.4-0.2,0.8-0.4c0.4-0.2,0.6-0.4,0.8-0.4
				C58.7,162.4,58.8,162.4,59,162.4z M54.6,161.2l-0.1-0.2l-0.5,0.4l0.1,0.2h0.1C54.2,161.6,54.4,161.5,54.6,161.2z M55.4,158.8
				c-0.1,0-0.2,0.1-0.5,0.1c-0.3,0.2-0.5,0.4-0.7,0.5l0.2-0.1l0.1,0.1c0.1-0.1,0.2-0.1,0.2-0.1c0.1-0.1,0.3-0.1,0.4-0.1
				C55.2,159.1,55.3,158.9,55.4,158.8z M54.9,161.9l-0.1-0.2c-0.2,0.1-0.4,0.3-0.5,0.4l0.1,0.2C54.6,162.1,54.8,162,54.9,161.9z
				 M55.5,160.4c-0.1,0-0.2,0.1-0.2,0.1c-0.1,0.1-0.2,0.1-0.3,0.2l0.1,0.1c0.1-0.1,0.1-0.1,0.2-0.1c0.1-0.1,0.2-0.1,0.4-0.1
				L55.5,160.4z M55.8,161l-0.1,0.1c-0.1,0.1-0.2,0.1-0.4,0.2l0.1,0.2c0.2-0.1,0.3-0.2,0.5-0.2L55.8,161z"/>
			<path class="st15" d="M50.2,147.7c-1.1-2.7-4.9-4.9-7.6-3.5c-1.9,0.9-2.5,3.1-2.3,5c0.2,3.4,3,5.3,6,4.7
				C49.1,153.3,51.1,150.1,50.2,147.7z"/>
			<path class="st17" d="M60.6,128.7c-0.5,1.4,0.3,3,1.8,3.6c1.6,0.6,3.8,0.5,4.4-0.8c0.5-1.4-0.4-3.8-2.2-4.7
				C63.8,126.3,61.2,127.4,60.6,128.7z"/>
			<path class="st17" d="M52.1,128.7c0.5,1.4-0.3,3-1.8,3.6c-1.6,0.6-3.8,0.5-4.4-0.8s0.4-3.8,2.2-4.7
				C49,126.3,51.6,127.4,52.1,128.7z"/>
			<path class="st15" d="M68.6,138.3c0,6.2-5.5,10.3-12.2,10.3s-12.2-4.1-12.2-10.3c0-6.2,5.5-10.3,12.2-10.3
				C63.2,128,68.6,132.1,68.6,138.3z"/>
			<path class="st19" d="M44.9,151.7c-0.8,0.3-0.5,1.6-0.2,2.2c0.5,0.1,1,0,1.4-0.1c0.1,0,0.3-0.1,0.4-0.1l0,0
				C46.7,152.8,45.8,151.4,44.9,151.7z M45.1,152.9C45.1,152.8,45.1,152.8,45.1,152.9L45.1,152.9z"/>
			<path class="st19" d="M49.3,151.9c-0.1-0.1-0.1-0.1-0.1-0.1c-0.4-0.4-0.8-0.8-1.4-0.8c-0.1,0-0.3,0-0.4,0.1
				c-0.4,0.2-0.4,0.6-0.3,1c0.1,0.5,0.3,1,0.5,1.4C48.3,153,48.8,152.5,49.3,151.9z"/>
			<path class="st19" d="M50.4,149.3L50.4,149.3c-0.4-0.4-0.7-0.7-1.1-0.7c-0.5-0.1-1,0.4-1,0.8c0,0.4,0.4,0.8,0.7,1
				c0.3,0.2,0.6,0.4,1,0.5C50.2,150.4,50.3,149.9,50.4,149.3z"/>
			<path class="st18" d="M51.8,133.1c-1,0-1.9,0.8-1.7,1.7c0.2,0.6,0.8-0.4,1.7-0.4c1,0,1.5,1,1.7,0.4
				C53.7,133.9,52.7,133.1,51.8,133.1z"/>
			<path class="st18" d="M61.1,133.1c1,0,1.9,0.8,1.7,1.7c-0.2,0.6-0.8-0.4-1.7-0.4c-1,0-1.5,1-1.7,0.4
				C59.1,133.9,60.1,133.1,61.1,133.1z"/>
			<path class="st19" d="M49.7,139c-3.1,0-4.3-1.4-4.3-1.4c-0.1-0.1-0.1-0.2,0-0.3s0.2-0.1,0.3,0c0,0,1.2,1.4,4.4,1.3
				c0.1,0,0.2,0.1,0.2,0.2c0,0.1-0.1,0.2-0.2,0.2C49.9,139,49.8,139,49.7,139z"/>
			<path class="st19" d="M48.4,140.5c-1.6,0-2.9-0.4-3-0.4c-0.1-0.1-0.2-0.2-0.1-0.2c0.1-0.1,0.2-0.2,0.2-0.1c0,0,2.3,0.7,4.4,0.2
				c0.1,0,0.2,0.1,0.2,0.2c0,0.1-0.1,0.2-0.2,0.2C49.5,140.5,48.9,140.5,48.4,140.5z"/>
			<path class="st19" d="M46.6,142.3c-0.5,0-0.8-0.1-0.8-0.1c-0.1,0-0.2-0.1-0.2-0.2s0.1-0.2,0.2-0.2c0,0,2.3,0.3,4.1-0.8
				c0.1-0.1,0.2,0,0.3,0.1c0.1,0.1,0,0.2-0.1,0.3C48.9,142.2,47.4,142.3,46.6,142.3z"/>
			<path class="st19" d="M63.2,139c-0.1,0-0.2,0-0.4,0c-0.1,0-0.2-0.1-0.2-0.2s0.1-0.2,0.2-0.2c3.2,0.1,4.4-1.3,4.4-1.3
				c0.1-0.1,0.2-0.1,0.3,0c0.1,0.1,0.1,0.2,0,0.3C67.4,137.7,66.2,139,63.2,139z"/>
			<path class="st19" d="M64.4,140.5c-0.5,0-1.1-0.1-1.7-0.2c-0.1,0-0.2-0.1-0.2-0.2c0-0.1,0.1-0.2,0.2-0.2c2.1,0.5,4.4-0.2,4.4-0.2
				c0.1-0.1,0.2,0,0.2,0.1c0.1,0.1,0,0.2-0.1,0.2C67.3,140.1,66,140.5,64.4,140.5z"/>
			<path class="st19" d="M66.2,142.3c-0.9,0-2.3-0.1-3.6-0.9c-0.1-0.1-0.1-0.2-0.1-0.3c0.1-0.1,0.2-0.1,0.3-0.1
				c1.8,1.1,4.1,0.8,4.1,0.8c0.1,0,0.2,0.1,0.2,0.2s-0.1,0.2-0.2,0.2C67,142.3,66.7,142.3,66.2,142.3z"/>
			<path class="st17" d="M61.1,139c0-0.1-0.1-0.2-0.2-0.2c-0.1,0-0.3,0.2-0.3,0.3c0,1.3-0.8,2.3-1.9,2.3s-2-1.1-2-2.4
				c0-0.1,0-0.2,0-0.4v-0.2h-0.5v0.5v0.1c0,1.3-0.8,2.4-2,2.4c-1.1,0-1.9-1-1.9-2.3c0-0.1-0.2-0.3-0.3-0.3c-0.1,0-0.2,0.1-0.2,0.2
				c-0.1,2,1.1,3.1,2.5,3.1c0.7,0,1.6-0.4,2-1.1c0.1-0.2,0.4-0.2,0.5,0c0.4,0.7,1.3,1.1,2,1.1C59.9,142.1,61.2,141.1,61.1,139z"/>
			<path class="st16" d="M56.4,137.4c-0.7,0-1.3,0.1-1.3,0.7c0,0.6,0.9,1.1,1.3,1.1c0.5,0,1.3-0.5,1.3-1.1
				C57.7,137.4,57.1,137.4,56.4,137.4z"/>
			<path class="st17" d="M41.1,163.7c0.1,0,0.2-0.1,0.1-0.2c0-0.1-0.1-0.2-0.2-0.1c-0.9,0.2-1.2,1-1.3,1.7c0.1,0.2,0.2,0.3,0.4,0.4
				c0,0,0,0,0-0.1C40.1,165.4,40,164,41.1,163.7z"/>
			<path class="st17" d="M42.3,164.3c0.1-0.1,0.2-0.2,0.1-0.3c-0.1-0.1-0.2-0.2-0.3-0.1c-1,0.5-1.2,1.5-1.3,1.9
				c0.1,0.1,0.2,0.1,0.4,0.2C41.3,165.9,41.3,164.8,42.3,164.3z"/>
			<path class="st17" d="M43.4,164.8c0.1-0.1,0.1-0.2,0.1-0.3s-0.2-0.1-0.3-0.1c-0.8,0.6-0.9,1.4-0.9,1.8c0.1,0,0.3,0.1,0.4,0.1
				C42.7,166.1,42.7,165.4,43.4,164.8z"/>
			<path class="st17" d="M71.7,163.3c-0.1,0-0.2,0.1-0.2,0.1c-0.1,0.1,0.1,0.2,0.1,0.2c1.1,0.3,1,1.6,1,1.7v0.1
				c0.2-0.1,0.3-0.2,0.4-0.4C72.9,164.5,72.7,163.6,71.7,163.3z"/>
			<path class="st17" d="M70.6,163.9c-0.1-0.1-0.2,0-0.3,0.1s0,0.2,0.1,0.3c1,0.4,1,1.7,1,1.7c0.1-0.1,0.3-0.1,0.4-0.1
				C71.8,165.5,71.7,164.4,70.6,163.9z"/>
			<path class="st17" d="M69.6,164.5c-0.1-0.1-0.2-0.1-0.3,0.1s-0.1,0.2,0.1,0.3c0.7,0.6,0.7,1.3,0.7,1.5c0.1,0,0.3-0.1,0.4-0.1
				C70.5,165.9,70.3,165.1,69.6,164.5z"/>
			<path class="st19" d="M70.3,134.8c0,0.1,0.1,0.2,0.1,0.2C70.3,135,70.3,134.9,70.3,134.8z"/>
			<path class="st19" d="M70.3,134.7c0,0.1,0,0.2,0,0.2c0,0.2,0.1,0.5,0.2,0.7c0.4,0.5,1.1,0.7,1.6,0.4c0.1-0.1,0.2-0.2,0.4-0.3
				c0.2-0.2,0.3-0.5,0.3-0.7c-0.7-0.5-1.4-0.8-2.3-1C70.3,134.2,70.2,134.5,70.3,134.7z M70.3,135.1c-0.1-0.1-0.1-0.2-0.1-0.2
				C70.3,134.9,70.3,135,70.3,135.1z"/>
			<path class="st19" d="M73.5,135.8c-0.2,0.1-0.4,0.2-0.6,0.4c-0.4,0.4-0.5,1-0.2,1.5c0.4,0.7,1.2,0.9,1.9,0.5
				c-0.1-0.8-0.5-1.7-0.9-2.2C73.6,135.9,73.6,135.9,73.5,135.8z M74,137.9C73.9,137.9,73.9,137.9,74,137.9
				C73.9,137.9,73.9,137.9,74,137.9z"/>
		</g>
		<g>
			<path class="st4" d="M97.9,162.8c0.3-1-13.7-1-13.4-0.1c-0.1,0.3-0.1,0.6-0.1,1c0,2.6,2.9,3.7,6.4,3.7c0.1,0,0.5,0,0.7,0
				c3.5,0,6.5-1,6.5-3.6C98,163.4,97.9,163.1,97.9,162.8z"/>
			<path class="st2" d="M106.3,145c-1.3-11.3-9-13.6-12-13.6c-0.1,0-2.5,0-3.1,0c-0.5,0-3-0.1-3.1,0c-3.1,0-10.7,2.3-12,13.6
				c-0.2,1.1-0.3,2.2-0.3,3.4c0,0.2,0,1.4,0,1.6c-0.2,7.6,4.9,12.9,11.4,14.7c1.3,0.4,2.6,0.5,3.9,0.5c1.4,0,2.7-0.1,4-0.5
				c6.6-1.9,11.7-7.1,11.4-14.7c0-0.2,0-1.4,0-1.6C106.6,147.2,106.5,146.1,106.3,145z"/>
			<path class="st9" d="M101.7,142.9c0-4.3-3.4-7.8-7.7-7.8h-5.7c-4.3,0-7.7,3.5-7.7,7.8c0,0.5-0.1,2.5-0.1,3.1
				c0,3.1,2.4,5.5,5.4,5.5h10.4c3,0,5.4-2.5,5.4-5.5C101.8,145.5,101.7,143.4,101.7,142.9z"/>
			<path class="st9" d="M88.7,142.3c0,1.1-0.8,1.9-1.9,1.9s-1.9-0.9-1.9-1.9c0-1.1,0.9-1.9,1.9-1.9
				C87.9,140.4,88.7,141.3,88.7,142.3z"/>
			<path class="st9" d="M97.5,142.3c0,1.1-0.8,1.9-1.9,1.9s-1.9-0.9-1.9-1.9c0-1.1,0.9-1.9,1.9-1.9S97.5,141.3,97.5,142.3z"/>
			<path class="st20" d="M88,142.3c0,0.7-0.5,1.3-1.3,1.3c-0.7,0-1.3-0.5-1.3-1.3c0-0.7,0.5-1.3,1.3-1.3
				C87.5,141.1,88,141.7,88,142.3z"/>
			<path class="st20" d="M89.9,146.1c0,0.2-0.2,0.4-0.4,0.4c-0.2,0-0.4-0.2-0.4-0.4c0-0.2,0.2-0.4,0.4-0.4
				C89.6,145.8,89.9,145.9,89.9,146.1z"/>
			<path class="st20" d="M93.4,146.1c0,0.2-0.2,0.4-0.4,0.4c-0.2,0-0.4-0.2-0.4-0.4c0-0.2,0.2-0.4,0.4-0.4
				C93.2,145.8,93.4,145.9,93.4,146.1z"/>
			<circle class="st20" cx="95.6" cy="142.3" r="1.3"/>
			<path class="st4" d="M88.7,137.2c0.8,0.8,1.2,1.7,0.7,2.2c-0.4,0.5-1.4,0.2-2.3-0.5c-0.4-0.3-0.8-0.6-1-1c-0.1-0.2-0.1-0.7,0.1-1
				c0.2-0.3,0.5-0.4,0.8-0.4c0.2,0,0.4-0.1,0.5,0C88.1,136.6,88.4,136.9,88.7,137.2z"/>
			<path class="st4" d="M93.7,137.2c-0.8,0.8-1.2,1.7-0.7,2.2c0.4,0.5,1.4,0.2,2.3-0.5c0.4-0.3,0.8-0.6,1-1c0.1-0.2,0.1-0.7-0.1-1
				c-0.2-0.3-0.5-0.4-0.8-0.4c-0.2,0-0.4-0.1-0.5,0C94.2,136.6,94,136.9,93.7,137.2z"/>
			<path class="st20" d="M93.2,142.3c0-1.3,1-2.3,2.3-2.3c1.3,0,2.3,1.1,2.3,2.3c0,1.3-1.1,2.3-2.3,2.3
				C94.3,144.7,93.2,143.7,93.2,142.3z M95.6,140.5c-1,0-1.9,0.8-1.9,1.8c0,1,0.9,1.8,1.9,1.8s1.9-0.8,1.9-1.8
				C97.5,141.4,96.6,140.5,95.6,140.5z"/>
			<path class="st20" d="M84.5,142.3c0-1.3,1-2.3,2.3-2.3c1.3,0,2.3,1.1,2.3,2.3c0,1.3-1.1,2.3-2.3,2.3
				C85.5,144.7,84.5,143.7,84.5,142.3z M86.8,140.5c-1,0-1.9,0.8-1.9,1.8c0,1,0.9,1.8,1.9,1.8s1.9-0.8,1.9-1.8
				C88.7,141.4,87.8,140.5,86.8,140.5z"/>
			<path class="st4" d="M97.5,149.7c0,0-0.1,0-0.1,0c-0.3,0-0.6,0-0.9-0.1c-0.2-0.1-0.5-0.1-0.4-0.4c0.1-0.3,0.5-0.3,0.8-0.5
				c1-0.5,1.7-1.5,1.7-2.6c0-0.6-0.2-1.3,0.2-1.9c0.1-0.1,0.2-0.2,0.3-0.2c0.8-0.1,1.2,1.3,1.3,1.8c0.1,0.8-0.1,1.6-0.5,2.3
				C99.5,149.1,98.5,149.6,97.5,149.7z"/>
			<path class="st4" d="M84.8,149.7c0.1,0,0.1,0,0.1,0c0.3,0,0.6,0,0.9-0.1c0.2-0.1,0.5-0.1,0.4-0.4c0-0.3-0.5-0.3-0.8-0.5
				c-1-0.5-1.7-1.5-1.7-2.6c0-0.6,0.2-1.3-0.2-1.9c-0.1-0.1-0.2-0.2-0.3-0.2c-0.8-0.1-1.2,1.3-1.3,1.8c-0.1,0.8,0.1,1.6,0.5,2.3
				C83,149.1,83.9,149.6,84.8,149.7z"/>
			<path class="st2" d="M94.9,148.6c-0.1-0.1-0.2-0.2-0.4-0.3c-0.2-0.1-0.4-0.2-0.7-0.4c-0.5-0.2-1-0.2-1.4-0.2c-0.3,0-0.6,0-0.9,0
				c-1.1,0.1-2.2,0.1-3.2,0.4c-0.2,0.1-0.4,0.1-0.4,0.3c0,0.2,0.1,0.3,0.2,0.3c0.6,0.1,1.2-0.1,1.8-0.3c0.9-0.2,1.9-0.2,2.8-0.1
				c0.4,0.1,0.7,0.2,1,0.4c0.2,0.1,0.3,0.2,0.5,0.2c0.2,0.1,0.5,0.2,0.6,0C95,148.9,95,148.8,94.9,148.6z"/>
			<path class="st21" d="M103.1,154.5c0.1-0.5,0.1-1.1-0.2-1.4c-0.4-0.5-1.1-0.2-1.4,0.2c-0.4,0.6-0.2,1.4-0.3,2.1
				c-0.1,0.7-0.3,1.4-0.7,2.1c-0.3,0.6-0.7,1.1-1,1.7c-0.1,0.1-0.1,0.4,0,0.5c0.1,0,0.1,0,0.1,0c1-0.2,1.7-1.1,2.2-2
				C102.5,156.7,102.9,155.6,103.1,154.5z"/>
			<path class="st21" d="M79.3,154.5c-0.1-0.5-0.1-1.1,0.2-1.4c0.4-0.5,1.1-0.2,1.4,0.2c0.4,0.6,0.2,1.4,0.3,2.1
				c0.1,0.7,0.3,1.4,0.7,2.1c0.3,0.6,0.7,1.1,1,1.7c0.1,0.1,0.1,0.4-0.1,0.5c-0.1,0-0.1,0-0.1,0c-1-0.2-1.7-1.1-2.2-2
				C79.9,156.7,79.5,155.6,79.3,154.5z"/>
			<path class="st21" d="M96.7,156.6c-0.1-0.5-0.2-1.1-0.4-1.6c-0.2-0.5-0.8-0.9-1.3-0.5c-0.8,0.6-0.7,1.6-0.8,2.5
				c-0.1,0.7-0.1,1.3-0.2,1.9c-0.2,0.6-0.5,1.2-0.7,1.9c-0.1,0.6,0.4,0.7,0.9,0.5c1.1-0.4,1.9-1.3,2.3-2.4
				C96.6,158.2,96.8,157.4,96.7,156.6z"/>
			<path class="st21" d="M85.7,156.6c0.1-0.5,0.2-1.1,0.5-1.6c0.2-0.5,0.8-0.9,1.3-0.5c0.8,0.6,0.7,1.6,0.8,2.5
				c0.1,0.7,0.1,1.3,0.3,1.9c0.2,0.6,0.5,1.2,0.7,1.9c0.1,0.6-0.4,0.7-0.9,0.5c-1.1-0.4-1.9-1.3-2.3-2.4
				C85.7,158.2,85.6,157.4,85.7,156.6z"/>
			<path class="st20" d="M90.5,145.2c-0.1-0.1-0.1-0.1-0.2-0.1c-0.3-0.2-0.7-0.3-1-0.2c-0.2,0-0.4,0.1-0.5,0.2
				c-0.2,0.1-0.3,0.2-0.4,0.4c-0.2,0.2-0.3,0.5-0.3,0.8c0,0.1,0,0.3,0.1,0.4c0,0.1,0.1,0.2,0.1,0.1c0.1,0,0.1-0.1,0.1-0.1
				c0-0.5,0.2-1,0.7-1.3c0.2-0.1,0.5-0.2,0.7-0.2c0.1,0,0.2,0,0.4,0.1c0.1,0.1,0.2,0.1,0.4,0.1C90.4,145.3,90.5,145.3,90.5,145.2
				C90.5,145.3,90.5,145.2,90.5,145.2z"/>
			<path class="st20" d="M91.9,145.2c0.1-0.1,0.1-0.1,0.2-0.1c0.3-0.2,0.7-0.3,1-0.2c0.2,0,0.4,0.1,0.5,0.2c0.2,0.1,0.3,0.2,0.4,0.4
				c0.2,0.2,0.2,0.5,0.3,0.8c0,0.1,0,0.3-0.1,0.4c0,0.1-0.1,0.2-0.1,0.1c-0.1,0-0.1-0.1-0.1-0.1c0-0.5-0.2-1-0.7-1.3
				c-0.2-0.1-0.5-0.2-0.7-0.2c-0.1,0-0.2,0-0.4,0.1c-0.1,0.1-0.2,0.1-0.4,0.1C92,145.3,91.9,145.3,91.9,145.2
				C91.9,145.3,91.9,145.2,91.9,145.2z"/>
			<path class="st21" d="M95.4,132.6c-0.1-0.1-0.2,0-0.4,0c-0.1,0-0.1,0-0.1,0c-0.4,0.1-0.7,0.2-1,0.3c-0.2,0.1-0.5,0.2-0.7,0.2
				c-1.3,0.4-2.6,0.4-3.9,0c-0.2-0.1-0.5-0.2-0.8-0.2c-0.1-0.1-0.2-0.1-0.4-0.1c-0.2-0.1-0.4-0.1-0.6-0.2h-0.1
				c-0.1-0.1-0.3-0.1-0.4,0H87v0.1c0.1,0.1,0.7,0.3,0.9,0.4c0.1,0.1,0.2,0.1,0.3,0.2c1,0.5,2,0.8,3.1,0.8c0.4,0,0.7-0.1,1.1-0.1
				c0.7-0.1,1.3-0.4,1.9-0.7c0.1-0.1,0.2-0.1,0.3-0.2C94.7,133,95.4,132.7,95.4,132.6L95.4,132.6L95.4,132.6z"/>
		</g>
	</g>
</g>
</svg>
