<?xml version="1.0" encoding="utf-8"?>
<!-- Generator: Adobe Illustrator 26.3.1, SVG Export Plug-In . SVG Version: 6.00 Build 0)  -->
<svg version="1.1" id="圖層_1" xmlns="http://www.w3.org/2000/svg" xmlns:xlink="http://www.w3.org/1999/xlink" x="0px" y="0px"
	 viewBox="0 0 280 312" style="enable-background:new 0 0 280 312;" xml:space="preserve">
<style type="text/css">
	.st0{fill:#F4CED5;}
	.st1{fill:#FFA9B1;}
	.st2{fill:#E46454;}
	.st3{fill:#5379A3;}
	.st4{fill:#45628F;}
	.st5{fill:#FFFCF7;}
	.st6{fill:#693B17;}
	.st7{fill:#BB3B31;}
	.st8{fill:#6A1308;}
	.st9{fill:#FDF8EF;}
	.st10{fill:#F8EEEC;}
	.st11{fill:#293E47;}
	.st12{fill:#E7E0CB;}
	.st13{fill:#393A46;}
	.st14{fill:#4B6F9B;}
	.st15{fill:#E2E2EE;}
	.st16{fill:#525D92;}
	.st17{fill:#C79EC9;}
	.st18{fill:#2A3821;}
	.st19{fill:#F8F8F8;}
	.st20{fill:#2D3E1F;}
	.st21{fill:#FAD8BE;}
	.st22{fill:#FFD400;}
	.st23{fill:#1C0D5B;}
</style>
<circle class="st0" cx="152.9" cy="171.3" r="121"/>
<g>
	<path class="st1" d="M96.3,65.9h5.5c0.7,0,1.3,0.6,1.3,1.3V68c0,0.7-0.6,1.3-1.3,1.3H87.8c-2.2,1.4-4.4,2.9-6.5,4.5
		c0.4,1.5,1.7,2.6,3.4,2.6h47.5c1.9,0,3.5-1.6,3.5-3.5v-0.1c0-1.9-1.6-3.5-3.5-3.5h-19.9c-0.7,0-1.3-0.6-1.3-1.3v-0.9
		c0-0.7,0.6-1.3,1.3-1.3h7.4c1.9,0,3.5-1.6,3.5-3.5v-0.1c0-1.9-1.6-3.5-3.5-3.5h-11.4c-4.8,1.9-9.4,4.1-13.8,6.5
		C95,65.7,95.6,65.9,96.3,65.9z"/>
	<path class="st1" d="M263.3,121.7h-12.8c-0.7,0-1.3-0.6-1.3-1.3v-0.9c0-0.7,0.6-1.3,1.3-1.3h7.4c1.3,0,2.4-0.7,3-1.7
		c-0.9-1.8-1.9-3.6-2.9-5.4c0,0,0,0,0,0h-23.4c-1.9,0-3.5,1.6-3.5,3.5v0.1c0,1.9,1.6,3.5,3.5,3.5h5.5c0.7,0,1.3,0.6,1.3,1.3v0.9
		c0,0.7-0.6,1.3-1.3,1.3h-17.1c-1.9,0-3.5,1.6-3.5,3.5v0.1c0,1.9,1.6,3.5,3.5,3.5h43.3C265.3,126.3,264.4,124,263.3,121.7z"/>
	<path class="st1" d="M90.1,133.4H63.9c-0.8,0-1.4-0.6-1.4-1.4v-1c0-0.8,0.6-1.4,1.4-1.4h2.5c2.2,0,3.9-1.8,3.9-3.9v-0.2
		c0-2.2-1.8-3.9-3.9-3.9H56.2c-0.8,0-1.4-0.6-1.4-1.4c0-0.8,0.6-1.4,1.4-1.4h24.9c2.2,0,3.9-1.8,3.9-3.9v-0.2c0-2.2-1.8-3.9-3.9-3.9
		H56.2c-0.8,0-1.4-0.6-1.4-1.4v-0.6c0-0.8,0.6-1.4,1.4-1.4h9.2c2.2,0,3.9-1.8,3.9-3.9v-0.2c0-2.2-1.8-3.9-3.9-3.9h-9.7
		c-4.5,6.1-8.5,12.6-11.8,19.5h0.5c0.8,0,1.4,0.6,1.4,1.4c0,0.8-0.6,1.4-1.4,1.4h-1.8c-1.2,2.6-2.3,5.3-3.3,8h12.8
		c0.8,0,1.4,0.6,1.4,1.4v1c0,0.8-0.6,1.4-1.4,1.4h-2.2c-2.2,0-3.9,1.8-3.9,3.9v0.2c0,2.2,1.8,3.9,3.9,3.9h40.1
		c2.2,0,3.9-1.8,3.9-3.9v-0.2C94,135.2,92.2,133.4,90.1,133.4z"/>
	<g>
		<path class="st2" d="M211.6,151.7c-0.1,32.5-26.6,58.8-59.1,58.6c-32.5-0.1-58.8-26.6-58.6-59.1c0.2-32.5,26.6-58.8,59.2-58.6
			C185.5,92.7,211.8,119.2,211.6,151.7z"/>
		<path class="st3" d="M175.4,162c-1.5-1.8-2.4-4.4-5.2-4.4c-0.3,0-0.6,0.1-0.8,0.2c-3.5,0.8-3.8,6.2-7.9,6.2
			c-4.4,0-4.4-6.4-8.7-6.4c-4.4,0-4.4,6.3-8.8,6.4c-4.1,0-4.4-5.4-7.9-6.2c-0.3-0.1-0.5-0.2-0.8-0.2c-2.7,0-3.8,2.5-5.2,4.4
			c0,0-21.1,47.5-63.7,80.6c-2.6,2-1.2,6.1,2.1,6.1H237c3.3,0,4.7-4.1,2.1-6.1C196.4,209.5,175.4,162,175.4,162z"/>
		<path class="st4" d="M239.1,242.6c-16.2-12.6-29.2-27.2-39.2-40.5c-19.4,21.8-47.5,35.6-79,35.6c-14,0-27.5-2.8-39.7-7.8
			c-4.6,4.4-9.5,8.7-14.7,12.7c-2.6,2-1.2,6.1,2.1,6.1H237C240.3,248.8,241.7,244.7,239.1,242.6z"/>
		<path class="st5" d="M143.3,180.1c4.7,0,4.7,7.7,9.4,7.7c4.7,0,4.7-7.7,9.4-7.7c4.7,0,4.7,7.7,9.4,7.7c4.7,0,4.7-7.7,9.4-7.7
			c4.5,0,4.7,7,8.8,7.7c-9.7-15-14.5-25.8-14.5-25.8c-1.5-1.8-2.4-4.4-5.2-4.4c-0.3,0-0.6,0.1-0.8,0.2c-3.5,0.8-3.8,5-7.9,5
			c-4.4,0-4.4-5.2-8.7-5.2c-4.4,0-4.4,5.2-8.8,5.2c-4.1,0-4.4-4.3-7.9-5c-0.3-0.1-0.5-0.2-0.8-0.2c-2.7,0-3.8,2.5-5.2,4.4
			c0,0-4.8,10.8-14.5,25.8c4.1-0.6,4.3-7.7,8.9-7.7c4.7,0,4.7,7.7,9.4,7.7C138.6,187.8,138.6,180.1,143.3,180.1z"/>
	</g>
	<g>
		<rect x="50.2" y="201.1" class="st2" width="6.5" height="11.4"/>
		<rect x="86.1" y="201.1" class="st2" width="6.5" height="11.4"/>
		<path class="st2" d="M50.2,212.4l-0.4,22.3c1.7,2.8,3.6,5.6,5.6,8.3h1.8l-0.5-30.5H50.2z"/>
		<polygon class="st2" points="93.1,243 85.5,243 86.1,212.4 92.6,212.4 		"/>
		<rect x="67.4" y="198.5" class="st6" width="8.1" height="10.3"/>
		<path class="st7" d="M53.5,207.6c-1.8,0-3.6-0.4-5.2-1c-0.2-0.1-0.4,0.1-0.4,0.3v2.9h11.2v-2.9c0-0.3-0.2-0.4-0.4-0.3
			C57.1,207.2,55.3,207.6,53.5,207.6z"/>
		<path class="st7" d="M89.3,207.6c-1.8,0-3.6-0.4-5.2-1c-0.2-0.1-0.4,0.1-0.4,0.3v2.9h11.2v-2.9c0-0.3-0.2-0.4-0.4-0.3
			C92.9,207.2,91.1,207.6,89.3,207.6z"/>
		<path class="st8" d="M59.2,242.5h-4.1c1.5,2.1,3.1,4.2,4.8,6.2c0.7-0.3,1.2-0.9,1.2-1.7v-2.6C61.1,243.3,60.2,242.5,59.2,242.5z"
			/>
		<path class="st8" d="M95,248.8H83.6c-1,0-1.9-0.8-1.9-1.9v-2.6c0-1,0.8-1.9,1.9-1.9H95c1,0,1.9,0.8,1.9,1.9v2.6
			C96.9,248,96,248.8,95,248.8z"/>
		<path class="st7" d="M94.9,198.5H83.7v0.7c0,1,0.8,1.9,1.9,1.9H93c1,0,1.9-0.9,1.9-1.9V198.5z"/>
		<path class="st7" d="M59.1,198.5H47.9v0.7c0,1,0.8,1.9,1.9,1.9h7.4c1,0,1.9-0.9,1.9-1.9V198.5z"/>
		<rect x="42.3" y="193.2" class="st7" width="58.1" height="2.8"/>
		<path class="st2" d="M100.5,195.9H42.3v0.7c0,1.1,0.9,1.9,1.9,1.9h54.3c1.1,0,1.9-0.9,1.9-1.9V195.9z"/>
		<rect x="42.3" y="209.8" class="st2" width="58.1" height="5.2"/>
		<path class="st8" d="M103.7,186.1c-1.9,2-4.8,3.6-7.8,3.6h-49c-3,0-5.9-1.5-7.8-3.6h-3.9l3.2,5.7c0.6,1,1.6,1.6,2.8,1.6h60.4
			c1.2,0,2.2-0.6,2.8-1.6l3.2-5.7H103.7z"/>
		<path class="st9" d="M74.2,207.5h-5.5v-7.8h5.5V207.5z M69.1,207h4.5v-6.8h-4.5V207z"/>
	</g>
	<g>
		<rect x="214.9" y="97.7" class="st8" width="7.2" height="150.6"/>
		<path class="st7" d="M232.8,186l-28.1,0l-0.1,1c0,0.2-1.3,12.7-5.7,28.7l-0.5,1.8c-2.7,9.4-6.4,19.8-11.6,29.6l-0.9,1.7l15.4,0
			l2.7-5.6c0.5-1.2,0.9-2.5,1.4-3.8c1.7-5,5.2-8.3,9.7-9.5l7.3,0c4.3,1.1,7.6,4.2,9.4,8.9l0,0.4l0.2,0c0,0.1,0.1,0.1,0.1,0.2
			c0.2,0.4,0.3,0.9,0.5,1.3c0.3,0.8,0.6,1.7,0.9,2.5l2.7,5.5l9.7,0c1.2-1.4,2.3-2.8,3.4-4.3c-13.3-26.7-16.3-57.1-16.3-57.4
			L232.8,186z M230.7,188.3c0.1,1,0.3,2.6,0.6,4.7l-3.9-4.7L230.7,188.3z M230.6,195.7l-9.5,0l4.6-5.9L230.6,195.7z M216.6,206.4
			l-11,0l5.7-6.7L216.6,206.4z M213,198l12.1,0l-6.1,7.5L213,198z M216.7,208.6l-5.1,6.5l-3.4-6.6L216.7,208.6z M218.6,210.1
			l4.9,6.9l-10.2,0L218.6,210.1z M220.4,208.6l9,0l-4.4,6.5L220.4,208.6z M221.3,206.4l5.1-6.3l5.4,6.3L221.3,206.4z M224.1,188.3
			l-5.1,6.5l-5-6.5L224.1,188.3z M216.7,195.7l-9.9,0l5.1-6.2L216.7,195.7z M206.8,188.3l3.1,0l-3.7,4.5
			C206.5,190.7,206.7,189.2,206.8,188.3z M205.4,198l4.4,0l-5.7,6.6C204.6,202.2,205,200,205.4,198z M203.2,208.6l1.9,0l-2.7,3.1
			C202.7,210.7,202.9,209.6,203.2,208.6z M201.1,216.8l5.5-6.4l3.4,6.6l-8.9,0C201.1,216.9,201.1,216.9,201.1,216.8z M200.4,219.3
			l2.7,0l-4.1,4.4C199.5,222.2,200,220.7,200.4,219.3z M204.9,220.7l3.8,6.9l-10.1,0L204.9,220.7z M196.9,229.9l2.2,0l-3.5,3.5
			C196.1,232.2,196.5,231,196.9,229.9z M200.7,231.6l1.7,5.3l-6.9,0L200.7,231.6z M193.3,239.2l2.7,0l-4.4,3.8
			C192.1,241.7,192.7,240.4,193.3,239.2z M191,246.5l5.6-4.8l2.3,4.8L191,246.5z M201.9,242.3l-1.3,2.6l-2.6-5.6
			c0-0.1-0.1-0.1-0.1-0.2l5.1,0C202.6,240.2,202.3,241.3,201.9,242.3z M204.4,235.8l-1.9-5.9l7.1,0
			C207.6,231.4,205.8,233.4,204.4,235.8z M206.8,219.3l9.8,0l-5.9,7.1L206.8,219.3z M222.7,227.6c-1.3-0.3-2.6-0.5-3.9-0.5
			c-1.4,0-2.7,0.2-3.9,0.5l-2.2,0l6-7.3l5.4,7.3L222.7,227.6z M220.7,219.3l10.4,0l-5.1,7.1L220.7,219.3z M228,227.6l5.1-7.2
			l5.3,7.2L228,227.6z M236.3,231.6l5.3,5.3l-6.9,0L236.3,231.6z M232.7,235.2c-1.3-2.2-3-4-4.9-5.3l6.6,0L232.7,235.2z
			 M235.6,242.4c-0.3-0.8-0.6-1.6-0.9-2.4c-0.1-0.3-0.2-0.5-0.3-0.8l5.3,0l-2.9,5.8L235.6,242.4z M238.8,246.5l2.5-4.9l5.4,4.9
			L238.8,246.5z M244.3,239.2c0.5,1.1,1,2.3,1.5,3.4l-3.8-3.4l2,0C244.1,239.2,244.2,239.2,244.3,239.2z M242.2,234.3l-4.4-4.4
			l2.7,0C241.1,231.4,241.7,232.9,242.2,234.3z M238.5,223.9l-3.4-4.6l2,0C237.6,220.8,238,222.3,238.5,223.9z M236,217l-9.4,0
			l4.6-6.8l4.6,6.6C235.8,216.9,235.9,216.9,236,217z M235.1,211.8l-2.2-3.1l1.4,0C234.6,209.7,234.8,210.7,235.1,211.8z M227.6,198
			l4.6,0c0.4,2.1,0.8,4.4,1.3,6.9L227.6,198z"/>
		<path class="st7" d="M214.4,180.7l4-0.1l4.1,0.1l0-0.2l9.3-0.2l-0.2-1.3c0,0-0.1-0.5-0.2-1.2c0.1-0.4,0.1-0.8-0.2-1.1l0,0
			c-1.2-7.6-5-33.3-7-66.5l0-2.3l-0.1,0c-0.1-1.8-0.2-3.7-0.3-5.5c0.1-0.3,0.1-0.7,0-0.9c0,0,0-0.1,0-0.1l-0.1-1.1l-10.2,0l-0.1,1
			c-0.1,0.2-0.1,0.5,0,0.7c-0.2,4.6-0.5,9-0.8,13.3l-0.1,0l0,1.3c-0.4,5.4-0.8,10.6-1.3,15.5l-0.2,0l0,2.3l0,0
			c-2.5,26.7-5.5,44.4-5.6,44.7l-0.2,1.3l9.3,0.2L214.4,180.7z M216.8,108l-1.5,0c0-0.7,0.1-1.5,0.1-2.2L216.8,108z M216.3,102.6
			l4.7,0l-2.4,3.9L216.3,102.6z M221,110.3l-2.4,3.9l-2.3-3.9L221,110.3z M220.2,168.6l3.2-5.3l3.3,5.3L220.2,168.6z M210.7,168.6
			l3.5-5.6l3.3,5.6L210.7,168.6z M224.2,139.8l-3.4,0l3.1-3.8C224,137.4,224.1,138.6,224.2,139.8z M222.3,142.1l-3.4,5.1l-3.3-5.1
			L222.3,142.1z M221.9,150.7c0,0-0.1,0.1-0.1,0.1l-2.9,5.5l-2.9-5.6L221.9,150.7z M220.4,158.3l2.5-4.6l2.6,4.6L220.4,158.3z
			 M217.3,158.3l-5.3,0l2.8-4.9L217.3,158.3z M222.3,160.6l-3.4,5.7l-3.3-5.7L222.3,160.6z M224.4,160.6l2.1,0
			c0.2,1.5,0.4,2.9,0.6,4.2L224.4,160.6z M223.9,150.7C223.9,150.7,223.8,150.7,223.9,150.7l1.5-0.1c0.1,1.2,0.3,2.3,0.4,3.5
			L223.9,150.7z M220.9,148.4l3.6-5.4c0.2,1.9,0.4,3.7,0.6,5.4L220.9,148.4z M220.5,123.6l2.1-3c0.1,1,0.2,2,0.2,3L220.5,123.6z
			 M222,113c0.1,0.8,0.1,1.6,0.2,2.4l-1.6,0L222,113z M221.7,117.7l-3.1,4.6l-3-4.6L221.7,117.7z M214.5,120.3l2.2,3.3l-2.5,0
			C214.3,122.5,214.4,121.4,214.5,120.3z M222,125.9l-3.2,4.6l-3.2-4.6L222,125.9z M223.1,128.3c0.1,1.3,0.2,2.6,0.3,3.9l-3,0
			L223.1,128.3z M222.2,134.4l-3.4,4.3l-3.3-4.3L222.2,134.4z M216.7,139.8l-3.9,0c0.1-1.4,0.3-2.9,0.4-4.4L216.7,139.8z
			 M212.8,142.1C212.8,142.1,212.8,142.1,212.8,142.1l4,6.3l-5,0c0.2-2,0.4-4.1,0.7-6.3L212.8,142.1z M213.6,150.7l-2.5,4.4
			c0.2-1.4,0.3-2.9,0.5-4.4L213.6,150.7z M213,160.6l-3.2,5.1c0.2-1.6,0.4-3.3,0.7-5.1L213,160.6z M209,170.8l1.9,0l-2.4,3
			C208.7,172.9,208.9,171.9,209,170.8z M222.9,170.9l-4,5.2l-3.9-5.2L222.9,170.9z M221.3,178.3l-0.8,0.1l-0.5,0l4.6-6l4.3,5.3
			c0,0.2,0.1,0.3,0.1,0.5L221.3,178.3z M226.4,170.9l1.5,0c0.1,0.8,0.2,1.6,0.3,2.3L226.4,170.9z M220.4,108l1.2-1.9
			c0,0.6,0.1,1.3,0.1,1.9L220.4,108z M215,112.7l1.6,2.7l-1.8,0C214.9,114.5,215,113.6,215,112.7z M213.9,127.6l3.1,4.6l-3.5,0
			C213.7,130.7,213.8,129.1,213.9,127.6z M208,178.2l4.9-6.1l4.8,6.4l-0.9,0l0-0.1L208,178.2z"/>
		<path class="st7" d="M220.5,19.7l-1.3,0l-1.4,0l-1.3,0c-0.2,4.9-0.4,11.7-0.6,19.3l5.2,0C220.9,31.4,220.7,24.6,220.5,19.7z"/>
		<path class="st10" d="M216,39c-0.2,7.6-0.5,16-0.7,23.6l6.5,0c-0.2-7.7-0.4-16-0.7-23.6L216,39z"/>
		<path class="st7" d="M215.3,62.6c-0.4,14.8-0.7,27.1-0.7,27.1l3.3,0.1l0,0l0.7,0l0.7,0l0,0l3.3-0.1c0,0-0.3-12.3-0.7-27.1
			L215.3,62.6z"/>
		<rect x="214.5" y="29.4" class="st11" width="8" height="3"/>
		<rect x="214.5" y="36.9" class="st11" width="8" height="3"/>
		<rect x="209.6" y="94.9" class="st12" width="17.8" height="6"/>
		<rect x="209.6" y="89.2" class="st7" width="17.8" height="6"/>
		<path class="st10" d="M211.8,124.8c-0.2,2.5-0.4,5-0.6,7.4l-0.2,0l0,2.3l0,0c-0.9,9.7-1.9,18.1-2.8,25l20.6,0
			c-1.1-9.1-2.5-21-3.6-34.7L211.8,124.8z M225.1,148.4l-4.2,0l3.6-5.4C224.7,144.8,224.9,146.6,225.1,148.4z M218.9,147.3l-3.3-5.1
			l6.7,0L218.9,147.3z M224.2,139.8l-3.4,0l3.1-3.8C224,137.4,224.1,138.6,224.2,139.8z M218.7,138.7l-3.3-4.3l6.8,0L218.7,138.7z
			 M223.5,132.2l-3,0l2.7-3.9C223.3,129.6,223.4,130.9,223.5,132.2z M222,125.9l-3.2,4.6l-3.2-4.6L222,125.9z M213.9,127.6l3.1,4.6
			l-3.5,0C213.7,130.7,213.8,129.1,213.9,127.6z M213.2,135.4l3.5,4.4l-3.9,0C212.9,138.4,213.1,136.9,213.2,135.4z M212.6,142.1
			l0.3,0c0,0,0,0,0,0l4,6.2l-5,0C212.1,146.4,212.3,144.3,212.6,142.1z M211.6,150.7l2,0l-2.5,4.4
			C211.3,153.7,211.4,152.2,211.6,150.7z M212,158.3l2.8-4.9l2.6,4.9L212,158.3z M215.9,150.7l5.9,0c0,0-0.1,0.1-0.1,0.1l-2.9,5.5
			L215.9,150.7z M220.4,158.3l2.5-4.6l2.6,4.6L220.4,158.3z M223.9,150.7C223.9,150.7,223.8,150.7,223.9,150.7l1.5-0.1
			c0.1,1.2,0.3,2.3,0.4,3.5L223.9,150.7z"/>
		<polygon class="st10" points="220,176.8 199,176.8 200.9,188.2 220,188.2 236,188.2 237.9,176.8 		"/>
		<g>
			<rect x="202.1" y="179" class="st13" width="1.9" height="2.8"/>
			<rect x="202.1" y="183.3" class="st13" width="1.9" height="2.8"/>
			<rect x="205.9" y="179" class="st13" width="1.9" height="2.8"/>
			<rect x="205.9" y="183.3" class="st13" width="1.9" height="2.8"/>
			<rect x="209.8" y="179" class="st13" width="1.9" height="2.8"/>
			<rect x="209.8" y="183.3" class="st13" width="1.9" height="2.8"/>
			<rect x="213.6" y="179" class="st13" width="1.9" height="2.8"/>
			<rect x="213.6" y="183.3" class="st13" width="1.9" height="2.8"/>
			<rect x="217.5" y="179" class="st13" width="1.9" height="2.8"/>
			<rect x="217.5" y="183.3" class="st13" width="1.9" height="2.8"/>
			<rect x="221.4" y="179" class="st13" width="1.9" height="2.8"/>
			<rect x="221.4" y="183.3" class="st13" width="1.9" height="2.8"/>
			<rect x="225.2" y="179" class="st13" width="1.9" height="2.8"/>
			<rect x="225.2" y="183.3" class="st13" width="1.9" height="2.8"/>
			<rect x="229.1" y="179" class="st13" width="1.9" height="2.8"/>
			<rect x="229.1" y="183.3" class="st13" width="1.9" height="2.8"/>
			<rect x="233" y="179" class="st13" width="1.9" height="2.8"/>
			<rect x="233" y="183.3" class="st13" width="1.9" height="2.8"/>
		</g>
		<rect x="211.5" y="96.7" class="st13" width="1.9" height="2.8"/>
		<rect x="215.4" y="96.7" class="st13" width="1.9" height="2.8"/>
		<rect x="219.2" y="96.7" class="st13" width="1.9" height="2.8"/>
		<rect x="223.1" y="96.7" class="st13" width="1.9" height="2.8"/>
	</g>
	<path class="st14" d="M249,244.9c-27.8-3.6-59.7-5.6-93.6-5.6c-35.8,0-69.3,2.3-98,6.2c22.1,28.5,56.7,46.9,95.6,46.9
		C192.1,292.3,226.9,273.7,249,244.9z"/>
	<g>
		<path class="st15" d="M131.2,214.7c-1.2,3.2,0.6,6.8,4.1,8.1c3.5,1.3,8.7,8.4,9.8-1.9c0.3-3.4-0.9-8.5-5-10.7
			C138.3,209.2,132.4,211.5,131.2,214.7z"/>
		<path class="st15" d="M120.8,214.7c1.2,3.2-0.6,6.8-4.1,8.1c-3.5,1.3-8.7,8.4-9.8-1.9c-0.3-3.4,0.9-8.5,5-10.7
			C113.7,209.2,119.6,211.5,120.8,214.7z"/>
		<path class="st15" d="M151.6,240.2c0.1-0.7,0.6-1.3,1.3-1.5c4.5-1.2,4.4-8.2,2-11.3c-2.7-3.5-8.9-5-12.3-1.8
			c-2.3,2.1-2.3,5.6-1.3,8.4c0.4,1,0.9,1.8,1.5,2.5l-0.2,0l-8.9,7.3c0,0,0.3,0.8,0.8,2h-27.7l-0.3,9.4c-3.3,1.7-5.5,5.2-5.5,9.2
			c0,2.5,0.9,4.8,2.4,6.6c-3.8,0.4-5.6,1.8-5.6,3.5c0,2,2.4,3.6,7.7,3.6c0.1,0,0.2,0,0.3,0c0,0,39.9,0,39.9,0c0.3,0,0.6,0,0.9,0
			c5.2,0,7.7-1.6,7.7-3.6c0-1.7-1.8-3.2-5.6-3.5c1.5-1.8,2.4-4.1,2.4-6.6c0-4.1-2.4-7.6-5.8-9.3
			C149.9,250.9,151.2,243.1,151.6,240.2z"/>
		<path class="st16" d="M132.7,247.3c-1.8,0.5-3.6,0.8-5.4,0.9c-1.9,0.1-3.8,0-5.6-0.3c-3.4-0.6-6.6-1.9-9.4-4l0.4,1
			c0.4,1,0.9,2,1.7,2.7c1,0.9,2.4,1.4,3.7,1.9c2.5,0.9,5.2,1.3,7.9,1.3c0,0,0,0,0,0c0,0,0,0,0,0c3,0,6.1-0.6,8.9-1.7
			c0.9-0.4,1.8-0.8,2.6-1.4c0.8-0.7,1.3-1.7,1.7-2.7l0.4-1c0,0.1-0.4,0.3-0.5,0.3c-0.2,0.1-0.4,0.3-0.6,0.4
			c-0.4,0.2-0.8,0.5-1.2,0.7c-0.8,0.4-1.6,0.8-2.5,1.2C134.2,246.8,133.5,247,132.7,247.3z"/>
		<circle class="st17" cx="126" cy="250.1" r="3.5"/>
		<path class="st18" d="M127.2,250c0-0.5-0.6-0.6-1.2-0.6c-0.7,0-1.2,0.1-1.2,0.6c0,0.4,0.3,0.7,0.7,0.9l0.1,2.6c0,0,0.1,0,0.1,0
			c0.1,0,0.2,0,0.4,0c0.1,0,0.2,0,0.4,0c0,0,0.1,0,0.1,0l0.1-2.6C126.9,250.7,127.2,250.4,127.2,250z"/>
		<path class="st17" d="M133.8,266.1l-6.1-11.5c-2.4-4.6-8.1-6.4-12.7-3.9l-3.5,1.9c-4.6,2.4-6.4,8.1-3.9,12.7l6.1,11.5
			c2.4,4.6,8.1,6.4,12.7,3.9l3.5-1.9C134.5,276.4,136.2,270.7,133.8,266.1z"/>
		<path class="st15" d="M121.8,280.2c-0.8,0-1.7-0.1-2.5-0.4c-2.2-0.7-4-2.2-5-4.2l-5.4-10.2c-2.2-4.2-0.6-9.4,3.6-11.6l3.1-1.6
			c2-1.1,4.3-1.3,6.5-0.6c2.2,0.7,4,2.2,5,4.2l5.4,10.2c2.2,4.2,0.6,9.4-3.6,11.6l-3.1,1.6C124.5,279.8,123.2,280.2,121.8,280.2z
			 M119.5,251.8c-1.3,0-2.6,0.3-3.7,0.9l-3.1,1.6c-3.9,2.1-5.4,6.9-3.4,10.9l5.4,10.2c1,1.9,2.7,3.3,4.7,3.9
			c2.1,0.6,4.2,0.4,6.1-0.6l3.1-1.6c3.9-2.1,5.4-6.9,3.4-10.9l-5.4-10.2c-1-1.9-2.7-3.3-4.7-3.9
			C121.1,251.9,120.3,251.8,119.5,251.8z"/>
		<path class="st19" d="M123,257l0,0.1c-0.2,0.4-0.7,0.8-1.6,1.2c-0.2,0.1-0.4,0.2-0.5,0.2c-0.3,0.1-0.9,0-1.7-0.3
			c-0.6-0.2-1.2-0.4-1.8-0.6c-0.3,0.4-0.6,0.7-0.9,0.9c0.4,0,0.6,0.1,0.7,0.3c0,0,0,0.1,0.1,0.4c0.5-0.4,0.8-0.6,1-0.7
			c0.2-0.1,0.4-0.1,0.7-0.1c0.3,0,0.6,0.1,0.6,0.3c0.1,0.2,0,0.4-0.3,0.5c-0.1,0-0.2,0.1-0.4,0.2c-0.2,0.1-0.3,0.1-0.4,0.2
			c-0.3,0.2-0.6,0.3-0.8,0.5c0,0.1,0.3,0.8,0.8,2c0.2-0.5,0.3-1,0.4-1.4l-0.5-0.3l0-0.1c0.1-0.1,0.2-0.1,0.4-0.2
			c0.4-0.2,0.7-0.3,1.1-0.4c0.5-0.1,0.8,0.1,1,0.4c0,0.1,0,0.1,0.1,0.2l-0.2,0.3c0,0-0.1,0-0.1,0c-0.4,0.2-0.8,0.7-1.4,1.6
			c1-0.6,1.5-0.8,1.5-0.8c0.4-0.2,0.8-0.3,1.3-0.3c0.6,0,0.9,0.2,1.1,0.5c0.1,0.3,0.1,0.5-0.2,0.6c-0.2,0.1-0.7,0.2-1.4,0.4
			c-0.9,0.2-1.6,0.4-2.1,0.7c-0.5,0.3-1.1,0.7-1.7,1.2c-0.6,0.6-1,1.1-1.2,1.6c-0.1,0-0.4-0.1-0.8-0.3c-0.3-0.2-0.5-0.4-0.8-0.5
			l0-0.1c0.5-0.1,0.8-0.2,1-0.3c0.3-0.2,1-0.7,2-1.8l-1.2-2.2c-0.4,0.3-0.6,0.5-0.7,0.6c-0.4,0.3-0.5,0.5-0.5,0.7l-0.2,0.1
			c-0.2,0-0.6-0.2-1-0.6l0-0.1l0.4-0.2c0.2-0.1,0.8-0.6,1.7-1.4c0,0,0-0.1,0-0.1c-0.1-0.1-0.2-0.3-0.4-0.3c-0.3-0.1-0.5-0.2-0.5-0.2
			c-0.2,0-0.4,0-0.6-0.1c-0.1,0.8-0.4,1.6-0.6,2.3c-0.4,1-0.8,1.6-1.3,1.9c-0.1,0.1-0.2,0.1-0.3,0.1l-0.1,0c1.1-2.6,1.6-5.2,1.6-7.7
			c-0.2-0.2-0.4-0.3-0.7-0.4l-0.1-0.1c0.1-0.1,0.2-0.2,0.4-0.5c0.1-0.2,0.3-0.4,0.4-0.4c0.1-0.1,0.4-0.1,0.8,0
			c0.4,0.1,0.7,0.2,0.7,0.3l0,0c-0.1,0.2-0.2,0.4-0.2,0.5c1.5,0.5,2.2,0.7,2.2,0.7c0.9,0.3,1.7,0.4,2.3,0.5c0.5,0,1,0,1.5,0
			C122.2,256.8,122.6,256.9,123,257z M116.6,257.2c-0.4-0.2-0.9-0.4-1.4-0.7c0,0.8,0,1.5-0.3,2.2c0.1-0.1,0.4-0.4,0.8-0.8
			C116.1,257.5,116.4,257.3,116.6,257.2z M117.2,262.9c0.1,0.2,0.1,0.3,0.1,0.5c0,0.2-0.1,0.3-0.3,0.4l-0.1,0
			c-0.3,0-0.6-0.3-0.9-0.6c-0.4-0.4-0.6-0.6-0.8-0.6l0.1-0.1c0.3-0.1,0.7-0.1,1.1-0.1C116.8,262.5,117.1,262.6,117.2,262.9z"/>
		<path class="st19" d="M118.8,268.9c0,0.3-0.1,0.5-0.3,0.8c-0.2,0.2-0.5,0.4-0.8,0.5c-0.1,0.1-0.4,0-0.9-0.2
			c-0.3-0.2-0.6-0.3-0.8-0.5l0-0.1c0.1,0,0.2-0.1,0.3-0.1c0.1-0.1,0.3-0.2,0.4-0.3c0.2-0.2,0.3-0.3,0.4-0.3c0,0,0.1,0,0.1-0.1
			c0.1,0,0.3,0,0.8,0C118.4,268.6,118.7,268.7,118.8,268.9z M120.2,271.1C120.2,271.1,120.2,271.2,120.2,271.1
			c-0.2,0.4-0.4,0.8-0.4,1.2c-0.1,0.4,0,0.8,0.1,1.1c0.1,0.2,0.2,0.3,0.3,0.3c0.1,0,0.3,0.1,0.7,0.1c0.4,0,0.6,0.1,0.7,0.3
			c0.1,0.1,0.1,0.3,0.1,0.6c-0.7,0.5-1.2,0.9-1.4,1.2h-0.1c0.1-0.4,0.1-0.7,0.1-1.1c-0.4-0.2-0.7-0.6-0.9-1c-0.1-0.3-0.3-0.6-0.3-1
			c-0.3,0.2-0.5,0.3-0.4,0.3c-0.3,0.2-0.6,0.2-1,0l-0.1-0.1c0.4-0.3,0.7-0.8,0.9-1.3c0.2-0.5,0.4-0.8,0.5-0.9c0.1,0,0.4,0,0.7,0.1
			C120,270.9,120.2,271,120.2,271.1z M130.3,271.4L130.3,271.4c-0.3,1.6-0.7,2.5-1.2,2.7c0,0-0.3,0.1-0.9,0.2
			c-0.7,0.1-1,0.2-1.1,0.2c-1.5,0.3-2.9,0.8-3.9,1.3c-1.4,0.7-2.2,1.4-2.5,1.9l-0.2,0.2c-0.1,0-0.2-0.1-0.3-0.3
			c-0.1-0.2-0.2-0.4-0.1-0.7c0-0.2,0-0.5,0-0.7l0.1,0l0.4,0.1c1.3-0.8,2.2-1.4,2.8-1.7c0.6-0.3,1.3-0.6,1.9-0.8
			c-0.3-0.4-0.6-0.9-0.9-1.5c-1,0.7-1.6,1.4-1.7,1.9c-0.2,0-0.5-0.2-1-0.7l0-0.1c0.2-0.1,0.4-0.1,0.5-0.1c0,0,0.2-0.1,0.4-0.4
			c0.3-0.3,0.8-0.7,1.5-1.3l-0.1-0.3c-0.3,0.2-0.7,0.5-1.2,1.1c-0.3-0.1-0.7-0.5-1.1-1.2c-0.4-0.7-0.7-1.1-1-1.2l0-0.1
			c0.2-0.1,0.4-0.2,0.6-0.3c0,0,0.4-0.4,1.3-1.1l-0.2-0.4c-0.8,0.5-1.2,0.9-1.2,1.1c-0.1,0-0.2,0-0.2-0.2c0-0.1-0.1-0.2-0.1-0.3
			l-0.2-0.3l0.1-0.1l0.4-0.2c0.1,0,0.2-0.2,0.5-0.3c0.3-0.2,0.5-0.4,0.5-0.4c-0.1-0.1-0.2-0.2-0.4-0.3c-0.4,0.3-0.7,0.6-1.1,0.9
			l-0.4,0c0,0,0,0.1,0.1,0.1c0.1,0.3,0.3,0.7,0.4,1.2c0.1,0.6,0.1,1-0.1,1.1c-0.1,0.1-0.3,0-0.5-0.1c-0.1-0.1-0.3-0.2-0.3-0.4
			c-0.1-0.1-0.1-0.4-0.1-0.7s0-0.6-0.1-0.8c-0.1-0.2-0.3-0.4-0.5-0.6l0.1-0.1c0.2,0,0.5-0.1,0.7-0.2c0.2-0.1,0.4-0.2,0.6-0.4
			c0.2-0.2,0.4-0.4,0.6-0.5c1.3-1.1,2.2-1.8,2.7-2c0.2-0.1,0.7-0.2,1.3-0.2c0.7,0,1.1,0.1,1.2,0.3c0,0.3-0.2,0.6-0.7,0.9
			c-0.5,0.3-0.8,0.6-0.8,0.8c0.1,0.2-0.1,0.4-0.5,0.6c-0.2,0.1-0.5,0.3-0.9,0.5l0.2,0.4c0.2-0.2,0.6-0.5,1-0.7
			c0.2-0.1,0.6-0.2,1-0.1c0.5,0,0.7,0.2,0.8,0.4c-0.1,0.2-0.2,0.3-0.3,0.6c0.1,0.5,0.2,0.8,0.2,1c0.1,0.4,0.1,0.8,0,1
			c-0.3,0.3-0.7,0.6-1.3,0.8l0.1,0.3c0.4-0.2,0.8-0.4,1.1-0.5l0.3-0.3c0.4-0.1,0.7-0.2,1.1-0.2c0.5,0,0.8,0.1,1,0.4
			c0,0.1,0.1,0.1,0.1,0.2c-0.1,0.2-0.2,0.3-0.4,0.4c-0.2,0.1-0.6,0.2-1.4,0.2c-0.3,0-0.7,0.2-1.2,0.4c-0.1,0-0.2,0.1-0.3,0.1
			l0.1,0.2c0.3,0.6,0.5,1.1,0.6,1.6c0.4-0.1,0.8-0.3,1.2-0.5c0.3-0.2,0.7-0.4,1.3-0.7c0.6-0.3,1-0.6,1.3-0.7
			C129.9,271.4,130.1,271.4,130.3,271.4z M123,269.4l-0.2-0.3l-0.9,0.7l0.2,0.3l0.1,0C122.4,270,122.7,269.8,123,269.4z
			 M124.3,265.3c-0.2,0-0.4,0.1-0.8,0.2c-0.5,0.3-0.9,0.6-1.2,0.9l0.4-0.1l0.2,0.2c0.1-0.1,0.3-0.2,0.4-0.2c0.2-0.1,0.5-0.2,0.7-0.2
			C124.1,265.8,124.2,265.6,124.3,265.3z M123.5,270.5l-0.2-0.4c-0.3,0.2-0.6,0.5-0.9,0.7l0.2,0.3
			C123,270.9,123.3,270.7,123.5,270.5z M124.6,268.1c-0.1,0-0.3,0.1-0.4,0.1c-0.2,0.1-0.3,0.2-0.5,0.4l0.1,0.2
			c0.1-0.1,0.2-0.1,0.3-0.2c0.2-0.1,0.4-0.2,0.6-0.2L124.6,268.1z M125,269.1l-0.2,0.1c-0.2,0.1-0.4,0.2-0.6,0.4l0.1,0.4
			c0.3-0.2,0.5-0.3,0.8-0.4L125,269.1z"/>
		<path class="st15" d="M115.6,246.8c-1.8-4.5-8.1-8.1-12.7-5.9c-3.1,1.5-4.2,5.1-3.9,8.3c0.4,5.6,5,8.8,10,7.8
			C113.8,256.2,117.2,250.8,115.6,246.8z"/>
		<path class="st17" d="M133.1,215.2c-0.9,2.3,0.5,5,3,6c2.6,1,6.4,0.9,7.3-1.4c0.9-2.3-0.6-6.3-3.7-7.9
			C138.4,211.2,134,212.9,133.1,215.2z"/>
		<path class="st17" d="M118.9,215.2c0.9,2.3-0.5,5-3,6c-2.6,1-6.4,0.9-7.3-1.4c-0.9-2.3,0.6-6.3,3.7-7.9
			C113.7,211.2,118,212.9,118.9,215.2z"/>
		<path class="st15" d="M146.4,231.1c0,10.3-9.1,17.2-20.4,17.2c-11.3,0-20.4-6.9-20.4-17.2c0-10.3,9.1-17.2,20.4-17.2
			C137.3,213.9,146.4,220.8,146.4,231.1z"/>
		<path class="st19" d="M106.9,253.5c-1.4,0.5-0.9,2.6-0.3,3.6c0.8,0.1,1.6,0,2.4-0.1c0.2,0,0.5-0.1,0.7-0.2c0,0,0,0,0,0
			C109.8,255.4,108.3,253,106.9,253.5z M107.2,255.5C107.1,255.4,107.1,255.4,107.2,255.5L107.2,255.5z"/>
		<path class="st19" d="M114.2,253.9c-0.1-0.1-0.1-0.2-0.1-0.2c-0.6-0.7-1.4-1.3-2.3-1.4c-0.2,0-0.5,0-0.7,0.1
			c-0.6,0.3-0.7,1-0.5,1.6c0.2,0.8,0.5,1.6,0.9,2.3C112.5,255.6,113.4,254.8,114.2,253.9z"/>
		<path class="st19" d="M116,249.5c0,0-0.1-0.1-0.1-0.1c-0.5-0.5-1.1-1-1.8-1.1c-0.9-0.2-1.7,0.6-1.7,1.4c0,0.7,0.6,1.3,1.2,1.7
			c0.5,0.4,1,0.6,1.6,0.8C115.6,251.4,115.9,250.5,116,249.5z"/>
		<path class="st18" d="M118.3,222.5c-1.6,0-3.2,1.3-2.8,2.8c0.3,1,1.3-0.6,2.8-0.6c1.6,0,2.5,1.7,2.8,0.6
			C121.5,223.8,119.8,222.5,118.3,222.5z"/>
		<path class="st18" d="M133.8,222.5c1.6,0,3.2,1.3,2.8,2.8c-0.3,1-1.3-0.6-2.8-0.6c-1.6,0-2.5,1.7-2.8,0.6
			C130.5,223.8,132.2,222.5,133.8,222.5z"/>
		<path class="st19" d="M114.8,232.4c-5.2,0-7.2-2.3-7.2-2.4c-0.1-0.1-0.1-0.4,0-0.5c0.1-0.1,0.4-0.1,0.5,0c0,0,2,2.3,7.3,2.1
			c0.2,0,0.4,0.1,0.4,0.3c0,0.2-0.1,0.4-0.3,0.4C115.2,232.4,115,232.4,114.8,232.4z"/>
		<path class="st19" d="M112.6,234.9c-2.6,0-4.8-0.7-5-0.7c-0.2-0.1-0.3-0.3-0.2-0.4c0.1-0.2,0.3-0.3,0.4-0.2c0,0,3.9,1.2,7.4,0.4
			c0.2,0,0.4,0.1,0.4,0.3c0,0.2-0.1,0.4-0.3,0.4C114.5,234.8,113.5,234.9,112.6,234.9z"/>
		<path class="st19" d="M109.6,237.9c-0.8,0-1.3-0.1-1.4-0.1c-0.2,0-0.3-0.2-0.3-0.4c0-0.2,0.2-0.3,0.4-0.3c0,0,3.9,0.5,6.9-1.3
			c0.2-0.1,0.4,0,0.5,0.1c0.1,0.2,0,0.4-0.1,0.5C113.5,237.6,111,237.9,109.6,237.9z"/>
		<path class="st19" d="M137.3,232.4c-0.2,0-0.4,0-0.6,0c-0.2,0-0.3-0.2-0.3-0.4c0-0.2,0.2-0.3,0.4-0.3c5.3,0.2,7.3-2.1,7.3-2.1
			c0.1-0.1,0.3-0.2,0.5,0c0.1,0.1,0.2,0.3,0,0.5C144.4,230.2,142.4,232.4,137.3,232.4z"/>
		<path class="st19" d="M139.4,234.9c-0.9,0-1.9-0.1-2.8-0.3c-0.2,0-0.3-0.2-0.3-0.4c0-0.2,0.2-0.3,0.4-0.3c3.5,0.8,7.4-0.4,7.4-0.4
			c0.2-0.1,0.4,0,0.4,0.2c0.1,0.2,0,0.4-0.2,0.4C144.2,234.2,142,234.9,139.4,234.9z"/>
		<path class="st19" d="M142.4,237.9c-1.5,0-3.9-0.2-6-1.5c-0.2-0.1-0.2-0.3-0.1-0.5c0.1-0.2,0.3-0.2,0.5-0.1c3,1.8,6.8,1.3,6.9,1.3
			c0.2,0,0.4,0.1,0.4,0.3c0,0.2-0.1,0.4-0.3,0.4C143.7,237.8,143.2,237.9,142.4,237.9z"/>
		<path class="st17" d="M133.8,232.4c0-0.2-0.2-0.4-0.4-0.4c-0.2,0-0.5,0.3-0.5,0.5c0,2.2-1.4,3.8-3.2,3.8c-1.8,0-3.3-1.8-3.3-4
			c0-0.1,0-0.4,0-0.7v-0.4h-0.8v0.9v0.2c0,2.2-1.4,4-3.3,4c-1.8,0-3.2-1.6-3.2-3.8c0-0.2-0.3-0.5-0.5-0.5s-0.3,0.2-0.4,0.4
			c-0.2,3.3,1.8,5.1,4.1,5.1c1.2,0,2.6-0.6,3.3-1.8c0.2-0.3,0.6-0.3,0.8,0c0.7,1.1,2.1,1.8,3.3,1.8
			C131.9,237.5,134,235.8,133.8,232.4z"/>
		<path class="st16" d="M126,229.6c-1.2,0-2.2,0.1-2.2,1.1c0,1,1.5,1.8,2.2,1.8c0.8,0,2.2-0.8,2.2-1.8
			C128.2,229.7,127.2,229.6,126,229.6z"/>
		<path class="st17" d="M100.5,273.6c0.2,0,0.3-0.2,0.2-0.4c0-0.2-0.2-0.3-0.4-0.2c-1.5,0.4-2,1.7-2.1,2.8c0.2,0.3,0.4,0.5,0.7,0.7
			c0,0,0,0,0-0.1C98.9,276.3,98.7,274.1,100.5,273.6z"/>
		<path class="st17" d="M102.5,274.6c0.2-0.1,0.3-0.3,0.2-0.5c-0.1-0.2-0.3-0.3-0.5-0.2c-1.7,0.8-2,2.5-2.1,3.2
			c0.2,0.1,0.4,0.2,0.7,0.3C100.8,277.2,100.9,275.3,102.5,274.6z"/>
		<path class="st17" d="M104.4,275.4c0.2-0.1,0.2-0.3,0.1-0.5c-0.1-0.2-0.3-0.2-0.5-0.1c-1.4,1-1.5,2.4-1.5,3c0.2,0,0.5,0.1,0.7,0.1
			C103.2,277.5,103.2,276.3,104.4,275.4z"/>
		<path class="st17" d="M151.6,272.9c-0.2,0-0.4,0.1-0.4,0.2c-0.1,0.2,0.1,0.4,0.2,0.4c1.8,0.5,1.6,2.7,1.6,2.8c0,0,0,0.1,0,0.1
			c0.3-0.2,0.5-0.4,0.7-0.7C153.6,274.8,153.2,273.4,151.6,272.9z"/>
		<path class="st17" d="M149.8,273.9c-0.2-0.1-0.4,0-0.5,0.2c-0.1,0.2,0,0.4,0.2,0.5c1.6,0.7,1.7,2.8,1.7,2.8
			c0.2-0.1,0.5-0.2,0.7-0.2C151.8,276.5,151.5,274.7,149.8,273.9z"/>
		<path class="st17" d="M148,274.8c-0.2-0.1-0.4-0.1-0.5,0.1c-0.1,0.2-0.1,0.4,0.1,0.5c1.2,1,1.2,2.2,1.2,2.5c0.2,0,0.5-0.1,0.7-0.1
			C149.5,277.2,149.3,275.9,148,274.8z"/>
		<path class="st19" d="M149.2,225.3c0,0.2,0.1,0.3,0.2,0.4C149.3,225.6,149.2,225.5,149.2,225.3z"/>
		<path class="st19" d="M149.2,225.2c0,0.1,0,0.3,0,0.4c0,0.4,0.1,0.8,0.3,1.2c0.6,0.9,1.8,1.2,2.7,0.7c0.2-0.1,0.4-0.3,0.6-0.5
			c0.3-0.3,0.5-0.8,0.5-1.2c-1.1-0.8-2.4-1.4-3.8-1.7C149.2,224.3,149.1,224.8,149.2,225.2z M149.3,225.8c-0.1-0.1-0.1-0.3-0.2-0.4
			C149.2,225.5,149.3,225.6,149.3,225.8z"/>
		<path class="st19" d="M154.6,227c-0.4,0.1-0.7,0.3-1,0.6c-0.6,0.7-0.8,1.7-0.4,2.5c0.6,1.1,2,1.5,3.1,0.9
			c-0.2-1.4-0.8-2.8-1.5-3.7C154.8,227.2,154.7,227.1,154.6,227z M155.4,230.4C155.3,230.4,155.3,230.4,155.4,230.4
			C155.3,230.4,155.3,230.4,155.4,230.4z"/>
	</g>
	<g>
		<path class="st4" d="M195.3,272c0.5-1.6-22.8-1.7-22.3-0.1c-0.1,0.5-0.1,1-0.1,1.6c0,4.4,4.8,6.1,10.7,6.1c0.2,0,0.9,0,1.1,0
			c5.9,0,10.8-1.6,10.8-6C195.4,273,195.3,272.5,195.3,272z"/>
		<path class="st2" d="M209.3,242.3c-2.2-18.8-15-22.7-20.1-22.7c-0.2,0-4.2,0-5.1,0c-0.9,0-5-0.1-5.2,0c-5.1,0-17.8,3.9-20,22.7
			c-0.3,1.8-0.5,3.7-0.5,5.6c0,0.3,0,2.4,0,2.7c-0.4,12.7,8.2,21.5,19.1,24.6c2.1,0.6,4.3,0.8,6.5,0.8c2.3,0,4.5-0.2,6.6-0.8
			c11-3.1,19.5-11.9,19.1-24.6c0-0.3,0-2.4,0-2.7C209.8,246,209.6,244.1,209.3,242.3z"/>
		<path class="st9" d="M201.6,238.9c0-7.2-5.7-13-12.8-13h-9.5c-7.1,0-12.8,5.8-12.8,13c0,0.8-0.2,4.2-0.2,5.2c0,5.1,4,9.2,9,9.2
			h17.4c5,0,9-4.1,9-9.2C201.8,243.1,201.6,239.7,201.6,238.9z"/>
		<path class="st9" d="M180,237.9c0,1.8-1.4,3.2-3.2,3.2c-1.8,0-3.2-1.5-3.2-3.2c0-1.8,1.5-3.2,3.2-3.2
			C178.6,234.7,180,236.1,180,237.9z"/>
		<path class="st9" d="M194.7,237.9c0,1.8-1.4,3.2-3.2,3.2c-1.8,0-3.2-1.5-3.2-3.2c0-1.8,1.5-3.2,3.2-3.2
			C193.2,234.7,194.7,236.1,194.7,237.9z"/>
		<path class="st20" d="M178.8,237.9c0,1.1-0.9,2.1-2.1,2.1c-1.1,0-2.1-0.9-2.1-2.1c0-1.1,0.9-2.1,2.1-2.1
			C177.9,235.9,178.8,236.8,178.8,237.9z"/>
		<path class="st20" d="M181.9,244.2c0,0.4-0.3,0.6-0.7,0.6c-0.4,0-0.7-0.3-0.7-0.6s0.3-0.6,0.7-0.6
			C181.5,243.6,181.9,243.9,181.9,244.2z"/>
		<path class="st20" d="M187.8,244.2c0,0.4-0.3,0.6-0.7,0.6c-0.4,0-0.7-0.3-0.7-0.6s0.3-0.6,0.7-0.6
			C187.4,243.6,187.8,243.9,187.8,244.2z"/>
		<circle class="st20" cx="191.4" cy="237.9" r="2.1"/>
		<path class="st4" d="M180,229.3c1.4,1.3,2,2.9,1.2,3.7c-0.7,0.8-2.4,0.4-3.8-0.8c-0.6-0.5-1.3-1-1.6-1.7c-0.2-0.4-0.1-1.1,0.2-1.6
			c0.3-0.5,0.9-0.6,1.4-0.7c0.3,0,0.6-0.1,0.9,0C179,228.3,179.5,228.8,180,229.3z"/>
		<path class="st4" d="M188.2,229.3c-1.4,1.3-2,2.9-1.2,3.7c0.7,0.8,2.4,0.4,3.8-0.8c0.6-0.5,1.3-1,1.6-1.7c0.2-0.4,0.1-1.1-0.2-1.6
			c-0.3-0.5-0.9-0.6-1.4-0.7c-0.3,0-0.6-0.1-0.9,0C189.2,228.3,188.7,228.8,188.2,229.3z"/>
		<path class="st20" d="M187.5,237.9c0-2.2,1.7-3.9,3.9-3.9c2.2,0,3.9,1.8,3.9,3.9c0,2.2-1.8,3.9-3.9,3.9
			C189.3,241.8,187.5,240.1,187.5,237.9z M191.4,234.9c-1.7,0-3.2,1.3-3.2,3c0,1.7,1.5,3,3.2,3c1.7,0,3.1-1.3,3.1-3
			C194.6,236.3,193.1,234.9,191.4,234.9z"/>
		<path class="st20" d="M172.9,237.9c0-2.2,1.7-3.9,3.9-3.9c2.1,0,3.9,1.8,3.9,3.9c0,2.2-1.8,3.9-3.9,3.9
			C174.6,241.8,172.9,240.1,172.9,237.9z M176.8,234.9c-1.7,0-3.2,1.3-3.2,3c0,1.7,1.5,3,3.2,3c1.7,0,3.1-1.3,3.1-3
			C179.9,236.3,178.4,234.9,176.8,234.9z"/>
		<path class="st4" d="M194.7,250.2c0,0-0.1,0-0.2,0c-0.5,0-1,0-1.5-0.1c-0.3-0.1-0.8-0.2-0.7-0.6c0.1-0.5,0.8-0.5,1.3-0.8
			c1.6-0.9,2.8-2.5,2.8-4.4c0-1-0.3-2.2,0.4-3.1c0.1-0.1,0.3-0.3,0.5-0.3c1.3-0.2,2,2.2,2.1,3c0.2,1.3-0.1,2.7-0.8,3.8
			C197.9,249.1,196.3,250,194.7,250.2z"/>
		<path class="st4" d="M173.5,250.2c0.1,0,0.1,0,0.2,0c0.5,0,1,0,1.5-0.1c0.3-0.1,0.8-0.2,0.7-0.6c0-0.5-0.8-0.5-1.3-0.8
			c-1.6-0.9-2.8-2.5-2.9-4.4c0-1,0.3-2.2-0.4-3.1c-0.1-0.1-0.3-0.3-0.5-0.3c-1.3-0.2-2,2.2-2.1,3c-0.2,1.3,0.1,2.7,0.8,3.8
			C170.4,249.1,171.9,250,173.5,250.2z"/>
		<path class="st2" d="M190.3,248.4c-0.1-0.2-0.4-0.4-0.6-0.5c-0.3-0.2-0.7-0.4-1.1-0.6c-0.8-0.3-1.6-0.4-2.4-0.4c-0.5,0-1,0-1.5,0
			c-1.8,0.1-3.7,0.1-5.4,0.7c-0.3,0.1-0.6,0.2-0.6,0.5c0,0.3,0.2,0.5,0.4,0.5c1,0.1,2-0.2,3-0.5c1.5-0.4,3.2-0.4,4.7-0.1
			c0.6,0.1,1.1,0.4,1.7,0.6c0.3,0.1,0.5,0.3,0.8,0.4c0.3,0.2,0.8,0.4,1,0C190.4,248.9,190.5,248.6,190.3,248.4z"/>
		<path class="st21" d="M203.9,258.2c0.1-0.8,0.1-1.8-0.4-2.4c-0.6-0.8-1.8-0.3-2.3,0.4c-0.7,1-0.4,2.3-0.5,3.5
			c-0.2,1.2-0.5,2.4-1.1,3.5c-0.5,1-1.2,1.8-1.6,2.8c-0.1,0.2-0.2,0.7,0,0.8c0.1,0,0.2,0,0.2,0c1.7-0.4,2.8-1.9,3.7-3.3
			C203,261.8,203.7,260.1,203.9,258.2z"/>
		<path class="st21" d="M164.3,258.2c-0.1-0.8-0.1-1.8,0.4-2.4c0.7-0.8,1.8-0.3,2.3,0.4c0.7,1,0.4,2.3,0.5,3.5
			c0.2,1.2,0.5,2.4,1.1,3.5c0.5,1,1.2,1.8,1.6,2.8c0.1,0.2,0.2,0.7-0.1,0.8c-0.1,0-0.2,0-0.2,0c-1.7-0.4-2.8-1.9-3.7-3.3
			C165.3,261.8,164.5,260.1,164.3,258.2z"/>
		<path class="st21" d="M193.3,261.7c-0.1-0.9-0.3-1.8-0.7-2.6c-0.4-0.8-1.3-1.5-2.2-0.9c-1.3,1-1.2,2.6-1.3,4.1
			c-0.1,1.1-0.1,2.2-0.4,3.2c-0.3,1-0.9,2-1.1,3.1c-0.2,1,0.7,1.1,1.5,0.9c1.8-0.7,3.2-2.2,3.8-4C193.2,264.4,193.4,263,193.3,261.7
			z"/>
		<path class="st21" d="M174.9,261.7c0.1-0.9,0.3-1.8,0.8-2.6c0.4-0.8,1.3-1.5,2.2-0.9c1.3,1,1.2,2.6,1.3,4.1
			c0.1,1.1,0.1,2.2,0.5,3.2c0.3,1,0.9,2,1.1,3.1c0.2,1-0.7,1.1-1.5,0.9c-1.8-0.7-3.2-2.2-3.8-4C175,264.4,174.8,263,174.9,261.7z"/>
		<path class="st20" d="M182.9,242.6c-0.1-0.1-0.2-0.1-0.3-0.2c-0.5-0.3-1.1-0.5-1.7-0.4c-0.3,0-0.6,0.2-0.9,0.3
			c-0.3,0.2-0.5,0.4-0.7,0.6c-0.3,0.4-0.5,0.8-0.5,1.3c0,0.2,0,0.5,0.1,0.7c0,0.1,0.1,0.3,0.2,0.2c0.1,0,0.1-0.1,0.1-0.2
			c0-0.9,0.4-1.7,1.1-2.1c0.4-0.2,0.8-0.3,1.2-0.3c0.2,0,0.4,0,0.6,0.1c0.2,0.1,0.4,0.2,0.6,0.2c0.1,0,0.2,0,0.2-0.1
			C183,242.8,183,242.7,182.9,242.6z"/>
		<path class="st20" d="M185.3,242.6c0.1-0.1,0.2-0.1,0.3-0.2c0.5-0.3,1.1-0.5,1.7-0.4c0.3,0,0.6,0.2,0.9,0.3
			c0.3,0.2,0.5,0.4,0.7,0.6c0.3,0.4,0.4,0.8,0.5,1.3c0,0.2,0,0.5-0.1,0.7c0,0.1-0.1,0.3-0.2,0.2c-0.1,0-0.1-0.1-0.1-0.2
			c0-0.9-0.3-1.7-1.1-2.1c-0.4-0.2-0.8-0.3-1.2-0.3c-0.2,0-0.4,0-0.6,0.1c-0.2,0.1-0.4,0.2-0.6,0.2c-0.1,0-0.2,0-0.2-0.1
			C185.2,242.8,185.2,242.7,185.3,242.6z"/>
		<path class="st21" d="M191.1,221.7c-0.2-0.1-0.4,0-0.7,0c-0.1,0-0.1,0-0.1,0c-0.6,0.1-1.2,0.3-1.7,0.5c-0.4,0.1-0.8,0.3-1.2,0.4
			c-2.1,0.6-4.3,0.6-6.5,0c-0.4-0.1-0.9-0.3-1.3-0.4c-0.2-0.1-0.4-0.1-0.6-0.2c-0.3-0.1-0.7-0.2-1-0.3c0,0-0.1,0-0.1,0
			c-0.2-0.1-0.5-0.2-0.7,0l-0.1,0l0,0.1c0.1,0.1,1.1,0.5,1.5,0.7c0.2,0.1,0.4,0.2,0.5,0.3c1.6,0.9,3.4,1.3,5.1,1.3
			c0.6,0,1.2-0.1,1.8-0.2c1.1-0.2,2.1-0.6,3.1-1.1c0.2-0.1,0.3-0.2,0.5-0.3c0.4-0.2,1.5-0.7,1.6-0.8L191.1,221.7L191.1,221.7z"/>
	</g>
</g>
<path class="st22" d="M109.2,312c-2.1,0-4.2-0.3-6.2-1c-44.5-14.6-80.3-49.8-95.8-94c-3.6-10.4,1.8-21.7,12.2-25.4
	c10.4-3.6,21.7,1.8,25.4,12.2c11.4,32.6,37.9,58.6,70.7,69.4c10.4,3.4,16.1,14.7,12.7,25.1C125.4,306.7,117.6,312,109.2,312z"/>
<g>
	<path class="st23" d="M47.2,230.6l-20.6,9.9l-1.5-3.1l1.5-0.7l-5.1-10.6l-1.6,0.8l-1.4-2.9l20.6-10L47.2,230.6z M29.6,235.3
		l5.4-2.6l-5.1-10.6l-5.4,2.6L29.6,235.3z M37.7,218.3l-5.1,2.5l5.1,10.6l5.1-2.5L37.7,218.3z"/>
	<path class="st23" d="M54,251c-2,3.7-3.2,8.1-2.9,11.8c-1-0.2-2.7-0.3-3.7-0.2c0-1.3,0.1-2.6,0.4-3.9l-1.8,1.4l-3.4-4.3l-3.5,2.8
		L37,256l3.5-2.8l-3.5-4.4l1.9-1.5c-1.4-0.1-2.8-0.2-4.2-0.5c0.3-0.9,0.6-2.5,0.6-3.4c3.6,1.1,8.2,0.9,12.4-0.4l-4-5.1l2.5-2
		l6.2,7.8l4-3.2l2.1,2.6l-4,3.2l6.2,7.8l-2.5,2L54,251z M43,251.2l6.8-5.4l-0.1-0.1c-3.3,1.1-6.6,1.7-9.8,1.8L43,251.2z M48,257.6
		c0.8-3,2.2-6.1,4-9.1l-0.1-0.1l-6.8,5.4L48,257.6z"/>
	<path class="st23" d="M60.1,275.3c-0.8,1-1.5,1.5-2.5,1.3c-1-0.2-1.9-0.8-3-1.8c0.4-0.7,0.8-1.9,1-2.8c0.6,0.6,1.3,1.2,1.6,1.3
		c0.2,0.2,0.4,0.2,0.6,0l1.4-1.7c-1.5-0.2-2.9-0.5-4.2-0.7l0.7-2c-1.4,1.4-3,2.7-4.6,3.3c-0.1-0.7-0.5-2-0.8-2.7
		c2.3-0.8,4.1-3,5.5-4.7l3.3-4.1l7.8,6.3L60.1,275.3z M57.7,266.5c-0.5,0.6-1.1,1.3-1.7,2c1.1,0.4,2.8,1,4.4,1.5l1.1-1.3l-1.9,0.4
		c-0.3-0.8-0.9-2.1-1.5-3.1L57.7,266.5z M59.6,264.1l-1.4,1.7l1.8-0.4c0.6,0.9,1.3,2.2,1.6,3.1l1.4-1.7L59.6,264.1z M67.8,263.1
		l2,1.6l-1.7,2l-9.6-7.7l1.7-2l1.9,1.6c0.3-0.7,0.6-1.4,0.9-2.1l2.1,1l-2.8-2.3l1.7-2l3.4,2.8c0.2-0.5,0.4-1,0.5-1.4l2.6,1.2
		c-0.2,0.7-0.5,1.5-0.8,2.2l3.1,2.5l-1.7,2l-3-2.4l1.7,2.1L67.8,263.1z M70.9,283.3c-1.9,1.9-3.1,2-5,0.5l-3.1-2.5
		c-2.3-1.9-2.6-3.1-0.8-5.3l7.1-8.8l5.3,4.3l0.9-1.1l-5.3-4.3l5.1-6.3l2.4,2l-1.1,1.4l6.1,4.9l-1.6,2L75,265l-0.9,1.2l5.3,4.3
		l-3.9,4.8l-5.3-4.3l-0.7,0.8l5.3,4.3l-1.2,1.4l-5.3-4.3l-0.7,0.8l5.2,4.2l-1.1,1.4l-5.2-4.2l-0.7,0.8l5.4,4.4l-1.2,1.4
		C70.4,282.6,70.7,283,70.9,283.3z M67.3,281.7c0.6,0.5,0.9,0.4,1.8-0.4l-4.4-3.6l-0.2,0.2c-0.6,0.8-0.6,1,0.3,1.7L67.3,281.7z
		 M65.4,257.6c-0.3,0.9-0.7,1.9-1,2.6l1.4,1.2c0.8-0.5,1.7-1.1,2.3-1.6L65.4,257.6z"/>
	<path class="st23" d="M84.5,290.6c-3.7-0.8-7.8-1.8-10.8-2.5l0.7-3c1.8,0.5,4.1,1.2,6.7,1.8l-0.5-0.4c1-1.2,2.4-3,3.2-4.4l2.5,2
		c-1.1,1.2-2.2,2.5-3.2,3.4l2.4,0.6L84.5,290.6z M77.1,285c0.5-1.1,1.1-3.1,1.3-4.6l2.5,0.5c-0.2,1.6-0.7,3.5-1.1,4.6L77.1,285z
		 M87.1,283.3l-8.4-4.2l3.3-6.7l8.4,4.2L87.1,283.3z M89.8,293.4c-1.9,0.6-4.7,0.8-6.8,0.5c-0.2-0.7-0.6-1.9-1-2.7
		c2.1,0.3,4.7,0.1,6.2-0.4L89.8,293.4z M86.8,277.6l-3.5-1.7l-1.1,2.2l3.5,1.7L86.8,277.6z M91.7,275.2l-9.6-4.7l1.3-2.6l9.6,4.7
		L91.7,275.2z M95.4,278.5c0.4-0.5,0.7-1,1-1.5l-3.9-1.9l1.2-2.4l11.5,5.7l-1.2,2.4l-4.4-2.2c-0.4,0.5-0.9,0.9-1.3,1.3l4.4,2.2
		l-6.2,12.6L86,289.6l6.2-12.6L95.4,278.5z M95.5,289.8l-5.1-2.5l-0.8,1.5l5.1,2.5L95.5,289.8z M93.5,293.7c0.8,1.5,2,3.6,2.5,4.9
		l-3,0.4c-0.4-1.3-1.5-3.5-2.3-5L93.5,293.7z M97.2,286.3l-5.1-2.5l-0.7,1.5l5.1,2.5L97.2,286.3z M98.9,282.9l-5.1-2.5l-0.7,1.5
		l5.1,2.5L98.9,282.9z"/>
</g>
</svg>
