<?xml version="1.0" encoding="utf-8"?>
<!-- Generator: Adobe Illustrator 26.3.1, SVG Export Plug-In . SVG Version: 6.00 Build 0)  -->
<svg version="1.1" id="圖層_1" xmlns="http://www.w3.org/2000/svg" xmlns:xlink="http://www.w3.org/1999/xlink" x="0px" y="0px"
	 viewBox="0 0 250 250" style="enable-background:new 0 0 250 250;" xml:space="preserve">
<style type="text/css">
	.st0{fill:#E6F3FE;}
	.st1{fill-rule:evenodd;clip-rule:evenodd;fill:#FCE8E8;}
	.st2{fill:#FCE8E8;}
	.st3{fill:#281616;}
	.st4{fill:#3B47BC;}
	.st5{fill-rule:evenodd;clip-rule:evenodd;fill:#281616;}
	.st6{fill-rule:evenodd;clip-rule:evenodd;fill:#FFFFFF;}
	.st7{fill-rule:evenodd;clip-rule:evenodd;fill:#FFE1DA;}
	.st8{fill-rule:evenodd;clip-rule:evenodd;fill:#FF8685;}
	.st9{fill-rule:evenodd;clip-rule:evenodd;fill:#412F2F;}
	.st10{fill-rule:evenodd;clip-rule:evenodd;fill:#FFD3CA;}
	.st11{fill:#FF8685;}
	.st12{fill:#FFE1DA;}
	.st13{fill-rule:evenodd;clip-rule:evenodd;fill:#3B47BC;}
	.st14{fill-rule:evenodd;clip-rule:evenodd;fill:#F8CA7A;}
</style>
<g>
	<circle class="st0" cx="125" cy="125" r="125"/>
</g>
<g>
	<path class="st1" d="M70.57,151.53c-7.72,21.1-12.63,43.08-1.9,47.51c21.71,8.96,34.65-82.81,31.32-90.33
		C91.84,90.26,72.59,146.01,70.57,151.53z"/>
	<path class="st2" d="M51.59,187.29c-1.88,2.02-11.93,12.83-18.03,22.92c3.61,3.87,7.46,7.52,11.54,10.91
		c17.92-8.64,50.96-30.53,40.66-48.16C79.35,162.02,64.73,173.19,51.59,187.29z"/>
	<path class="st3" d="M128.74,249.94l-0.21-24.5c0,0-32.54-36.23-39.7-16.03l2.54,36c10.7,2.98,21.98,4.58,33.64,4.58
		C126.25,250,127.49,249.98,128.74,249.94z"/>
	<path class="st4" d="M117.64,225.44l4.54,24.53c0.94,0.02,1.88,0.04,2.83,0.04c11.66,0,22.95-1.6,33.67-4.59l-4.43-36
		C143.16,189.21,117.64,225.44,117.64,225.44z"/>
	<path class="st4" d="M100.66,209.51c0,0,5.48,27.44,14.69,40.12c3.18,0.24,6.4,0.37,9.65,0.37c3.18,0,6.33-0.12,9.45-0.35
		c10.27-12.62,18-39.87,18-39.87l-10.44-6.13L100.66,209.51z"/>
	<path class="st5" d="M116.05,47.55c0,0,0.05-2.52,2.56-1.2c0.32,0.17,0.48-0.08,0.58-0.62h0v-0.01l0-0.02
		c0.01-0.08,0.03-0.16,0.04-0.24c3.92-25.19,30.97,13.2,40.67-4.7c-0.6,2.94-2.46,6.67-5.96,10.02
		c-8.56,8.21-19.91,10.45-26.07,8.49C121.69,57.3,116.17,55.08,116.05,47.55z"/>
	<path class="st6" d="M117.24,55.88c-0.95,2.04-2.02,3.84-3.04,4.59c-3,2.19-3.93-5.95-4.31-9.05c-0.38-3.1-1.1-7.71,1.17-7.8
		c0.64-0.02,1.66,0.24,2.81,0.64c0.53-3.33-1.23-16.7,12.96-14.07c11.23,2.08,18.21,9.37,23.65,4.95c5.44-4.42,6.69,6.03-1.87,14.24
		c-8.56,8.21-19.91,10.45-26.07,8.49C120.67,57.28,118.86,56.66,117.24,55.88z"/>
	<path class="st5" d="M149.14,47.88c0,0-3.3,11.15-6.3,13.33c-3,2.19-3.93-5.95-4.31-9.05c-0.38-3.1-1.1-7.71,1.17-7.8
		C141.99,44.28,149.14,47.88,149.14,47.88z"/>
	<polygon class="st7" points="121.85,60.88 114.37,65.24 113.08,101.93 138.01,104.64 135.56,72.82 	"/>
	<polygon class="st8" points="133.74,104.17 138.01,104.64 135.56,72.82 130.56,68.47 129.92,68.86 	"/>
	<path class="st9" d="M122.13,60.88l-3.73,2.18c-1.28,12.51,6.58,27.76,18.88,28.41l-1.44-18.64L122.13,60.88z"/>
	<path class="st10" d="M145.09,39.25c-0.66,2.1,3.62,44.24-10.33,44.76c-13.95,0.52-22.7-17.58-19.89-30.91
		C117.67,39.77,145.09,39.25,145.09,39.25z"/>
	<path class="st7" d="M128.55,82.94c-10.22-4.03-16.05-18.63-13.69-29.85c0.59-2.79,2.26-5.02,4.52-6.8c2.41,0.52,4.39,1,4.39,1
		s-2.46,17.32,0.96,21.57C127.33,72.09,128,78.83,128.55,82.94z"/>
	<path class="st8" d="M145.09,39.25c-0.26,0.83,0.25,7.92,0.1,16.22c-7.72,4.62-16.38,5.38-21.49,3.49
		c-3.49-1.29-6.78-2.64-9.01-4.92c0.05-0.32,0.11-0.64,0.18-0.95C117.67,39.77,145.09,39.25,145.09,39.25z"/>
	<path class="st8" d="M145.09,39.25c-0.63,2.02,3.3,41.13-8.84,44.52c0.01-0.17,0.07-0.35,0.21-0.53c2.07-2.8,0.58-4.9,0.23-6.51
		c-0.34-1.61-0.09-2.53,0.4-3.68c0.5-1.14-0.31-0.94-0.34-1.85c-0.03-0.92,1.03-1.24,1-1.8c-0.03-0.56-0.52-1.92-0.16-2.63
		c0.36-0.72,3.25-0.61,3.6-1.68c0.36-1.07-2.59-19.98-2.72-20.96l4.31-4.75C144.22,39.27,145.09,39.25,145.09,39.25z"/>
	<path class="st9" d="M111.82,46.68c0,0,0.05-2.52,2.56-1.2c2.24,1.17-3.14-17.85,13.55-14.76c11.23,2.08,18.21,9.37,23.65,4.95
		c5.44-4.42,6.69,6.03-1.87,14.24s-19.91,10.45-26.07,8.49C117.46,56.44,111.93,54.21,111.82,46.68z"/>
	<path class="st5" d="M111.82,46.68c0,0,0.05-2.52,2.56-1.2c0.32,0.17,0.48-0.08,0.58-0.62h0v-0.01l0-0.02
		c0.01-0.08,0.03-0.16,0.04-0.24c3.92-25.19,30.97,13.2,40.67-4.7c-0.6,2.94-2.46,6.67-5.96,10.02
		c-8.56,8.21-19.91,10.45-26.07,8.49C117.46,56.44,111.93,54.21,111.82,46.68z"/>
	<path class="st5" d="M121.59,47.66c0,0-3.3,11.15-6.3,13.33c-3,2.19-3.93-5.95-4.31-9.05c-0.38-3.1-1.1-7.71,1.17-7.8
		C114.43,44.07,121.59,47.66,121.59,47.66z"/>
	<path class="st7" d="M115.59,59.04c0,0-2.14-4.91-4.52-3.85c-2.38,1.06-0.36,11.96,2.52,12.75
		C116.49,68.72,118.15,65.49,115.59,59.04z"/>
	<path class="st6" d="M166.65,109.84l-29.26-16.95c0,0-18.65,9.85-24.19,1.06c-5.45,3.3-22.51,9.79-25.51,18.93
		c-9.41,28.7-0.32,91.89,1.71,110.01c0.75,6.74,60.61,7.7,66.06,1.47c2.53-2.89-3.43-38.88,1.76-59.7
		C163.24,140.54,166.65,109.84,166.65,109.84z"/>
	<polygon class="st1" points="85.77,179.46 92.45,182.95 116.38,151.65 118.67,146.37 98.13,135.63 94.6,140.25 79.09,175.97 	"/>
	<path class="st1" d="M151.52,196.07c-0.64-7.97-1.44-18.59-0.33-28.94c-3.58-0.33-7.29-0.52-11.02-0.63
		c-3.19-0.09-20.53-0.56-33.31,1.82c-1.45,5.77-3.15,12.54-4.29,17.13C113.82,189.91,134.31,195.3,151.52,196.07z"/>
	<path class="st1" d="M139.92,227.98c7.89-0.64,13.97-1.83,15.54-3.63c2.53-2.89-3.43-38.88,1.76-59.7
		c3.4-13.64,8.11-28.18,11.57-38.26l-5.7-3.66c0,0-24.01,31.27-25.08,54.62C136.95,200.72,139.28,220.25,139.92,227.98z"/>
	<path class="st9" d="M116.04,46.88c0.02,0.05,5.68,16.21,25.57,3.76l0.27,0.45c-20.44,12.79-26.32-3.96-26.34-4.01L116.04,46.88z"
		/>
	<path class="st5" d="M109.27,43.14c0.01-0.01,4-2.15,5.78,2.1l-0.49,0.22c-1.57-3.73-5.05-1.86-5.06-1.85L109.27,43.14z"/>
	<path class="st5" d="M111.67,41.03c0.01,0,4.39,0.61,3.23,5.19l-0.52-0.11c1.02-4.02-2.8-4.56-2.81-4.56L111.67,41.03z"/>
	<path class="st8" d="M130.82,70.05c0.01,0,4.88,1.26,7.68-0.05l0.21,0.48c-2.99,1.39-8.02,0.09-8.03,0.09L130.82,70.05z"/>
	<path class="st8" d="M131.43,69.89c0,0-0.61,0.44-0.41,0.97l-0.5,0.21c-0.34-0.9,0.65-1.63,0.65-1.63L131.43,69.89z"/>
	<path class="st6" d="M116.79,67.66c-0.01-0.1,0.06-0.19,0.16-0.21c0.1-0.02,0.19,0.05,0.2,0.15c0,0.03,0.97,9.32,10,14.05
		c0.09,0.04,0.12,0.15,0.07,0.24c-0.05,0.09-0.16,0.12-0.25,0.08C117.78,77.15,116.8,67.68,116.79,67.66z"/>
	<path class="st8" d="M111.68,57.3c1.91,2.25,2.91,4.17,3.34,5.59c1,3.27-1.04,3.8-1.94-0.77l0.47-0.11
		c0.64,3.62,1.81,3.32,1.02,0.92c-0.42-1.27-1.38-3.13-3.25-5.31L111.68,57.3z"/>
	<path class="st8" d="M123.98,64.83c2.01-0.34,3.85,1,4.12,2.99c0.26,2-1.16,3.9-3.17,4.24c-2.01,0.34-3.85-1-4.12-2.99
		C120.55,67.07,121.97,65.17,123.98,64.83z"/>
	<path class="st5" d="M131.12,60.36c0.51-0.01,0.91,0.4,0.9,0.91c-0.01,0.51-0.44,0.93-0.95,0.93c-0.51,0.01-0.91-0.4-0.9-0.91
		C130.18,60.78,130.61,60.36,131.12,60.36z"/>
	<polygon class="st5" points="127.76,60 132.85,59.96 132.82,60.84 127.74,60.88 	"/>
	<polygon class="st5" points="140.99,59.89 145.36,59.48 145.42,60.35 141.05,60.75 	"/>
	<path class="st5" d="M142.34,60.37c0.51-0.05,0.95,0.31,0.98,0.82c0.03,0.51-0.35,0.96-0.86,1.02c-0.51,0.05-0.95-0.31-0.98-0.82
		C141.45,60.88,141.83,60.42,142.34,60.37z"/>
	<path class="st6" d="M162.14,165.13c0.59,22.2,6.14,31.31,17.86,30.44c23.69-1.78-4.25-78.51-10.16-83.7
		c-5.14-4.51-10.61-3.15-12.32,4.67C154.4,130.77,162.04,161.39,162.14,165.13z"/>
	<path d="M141.07,236.38l-0.85,0.95l11.05,9.9c0.51-0.11,1.03-0.22,1.54-0.33L141.07,236.38z"/>
	<path class="st3" d="M42.53,210.34c-3.11-1.55-6.49-1.27-8.42,0.47c3.46,3.66,7.14,7.12,11.02,10.34c0.77-0.49,1.39-1.15,1.78-1.97
		C48.33,216.2,46.37,212.25,42.53,210.34z"/>
	<path class="st11" d="M33.4,210.04c3.46,3.73,7.15,7.24,11.04,10.52c0.11-0.32,0.21-0.64,0.28-0.94
		C45.68,215.34,38.12,209.66,33.4,210.04z"/>
	<path class="st12" d="M33.12,209.74c1.22,1.32,2.46,2.62,3.74,3.88c0.09-0.94-0.17-1.91-0.83-2.68
		C35.27,210.06,34.18,209.65,33.12,209.74z"/>
	<path class="st6" d="M147.83,163.72c21.99,4.27,43.16,11.64,40.9,24.08c-3.77,20.75-57.54,0.28-78.76-11.56
		c1.15-4.36,2.86-10.81,4.32-16.29C127.17,159.72,144.62,163.1,147.83,163.72z"/>
	<path class="st1" d="M174.44,170.64c-0.09-0.03-30.12-11.79-57.36-12.46l0.02,1.27c27.01,0.67,56.85,12.35,56.93,12.38
		L174.44,170.64z"/>
	<path class="st13" d="M142.89,94.75c-0.07,0.05-22.86,17.18-33.76,0l-1.07,0.68c11.65,18.34,35.52,0.39,35.59,0.34L142.89,94.75z"
		/>
	
		<rect x="83.12" y="132.57" transform="matrix(0.2869 -0.9579 0.9579 0.2869 -57.2941 189.4334)" class="st13" width="30.96" height="1.27"/>
	<g>
		<path class="st14" d="M115.26,149.72l-25.51,28.09c-0.5,0.55-1.36,0.6-1.91,0.09l-16.81-15.26c-0.55-0.5-0.6-1.36-0.09-1.91
			l25.51-28.09c0.5-0.55,1.36-0.6,1.91-0.09l16.81,15.26C115.72,148.31,115.77,149.16,115.26,149.72z"/>
	</g>
	<path class="st7" d="M103.61,159.44c-0.02-0.59-4.65-8.74-4.65-8.74s-15.19,3.09-15.91,4.02c-0.72,0.93,2.73,11.45,4.03,12.54
		c1.31,1.09,10.32,2.65,10.32,2.65L103.61,159.44z"/>
	<path class="st8" d="M98.8,150.78c0.06-0.03,0.11-0.05,0.16-0.07c1.82-0.65,17.92,12.48,17.92,12.48
		c3.1,9.55-1.03,11.46-2.64,11.97l-16.85-5.24C91.61,160.96,98.8,150.78,98.8,150.78z"/>
	<path class="st13" d="M161.31,114.58c-0.03,0.03-9.57,10.03-0.19,47.9l1.23-0.3c-9.22-37.2-0.13-46.71-0.1-46.74L161.31,114.58z"/>
</g>
</svg>
