<?xml version="1.0" encoding="utf-8"?>
<!-- Generator: Adobe Illustrator 26.3.1, SVG Export Plug-In . SVG Version: 6.00 Build 0)  -->
<svg version="1.1" id="圖層_1" xmlns="http://www.w3.org/2000/svg" xmlns:xlink="http://www.w3.org/1999/xlink" x="0px" y="0px"
	 viewBox="0 0 250 250" style="enable-background:new 0 0 250 250;" xml:space="preserve">
<style type="text/css">
	.st0{fill:#D3EAFF;}
	.st1{fill-rule:evenodd;clip-rule:evenodd;fill:#FFFFFF;}
	.st2{fill:#281616;}
	.st3{fill:#3B47BC;}
	.st4{fill-rule:evenodd;clip-rule:evenodd;fill:#281616;}
	.st5{fill-rule:evenodd;clip-rule:evenodd;fill:#FFE1DA;}
	.st6{fill-rule:evenodd;clip-rule:evenodd;fill:#FF8685;}
	.st7{fill-rule:evenodd;clip-rule:evenodd;fill:#412F2F;}
	.st8{fill-rule:evenodd;clip-rule:evenodd;fill:#FFD3CA;}
	.st9{fill-rule:evenodd;clip-rule:evenodd;fill:#FCE8E8;}
	.st10{fill-rule:evenodd;clip-rule:evenodd;fill:#3B47BC;}
	.st11{fill-rule:evenodd;clip-rule:evenodd;fill:#005BAC;}
	.st12{clip-path:url(#SVGID_00000130629869476764734460000004356161329969389213_);fill:#FFFFFF;}
</style>
<g>
	<circle class="st0" cx="125" cy="125" r="125"/>
</g>
<g>
	<path class="st1" d="M44.94,162.55c12.79,19.7,78.02-48.42,77.05-56.59C117.85,71.03,36.85,150.11,44.94,162.55z"/>
	<path class="st1" d="M66.25,132.96c-1.39,19.23-5.77,37.1-17.63,32.59c-19.79-7.53-6.14-47.89,2.4-64.93
		c5.89-2.06,10.45-2.15,14.8,2.47C67.54,114.88,66.45,130.15,66.25,132.96z"/>
	<path class="st2" d="M148.59,247.77l-0.15-17.78c0,0-32.54-36.23-39.7-16.03l2.49,35.28c4.52,0.5,9.12,0.76,13.77,0.76
		C133.07,250,140.95,249.23,148.59,247.77z"/>
	<path class="st3" d="M175.4,227.21c-12.73-20.2-36.03,2.78-36.03,2.78l4.95,18.52c12.63-1.96,24.64-5.81,35.72-11.26
		C178.82,233.49,177.31,230.46,175.4,227.21z"/>
	<path class="st3" d="M120.95,214.06c0,0,5.74,21.82,14.08,35.54c9.69-0.77,19.07-2.65,28.02-5.5c6.07-13.27,9.71-29.77,9.71-29.77
		l-10.83-6.13L120.95,214.06z"/>
	<path class="st4" d="M160.04,56.96c0,0,0.6-2.52-2.18-1.51c-0.36,0.13-0.45-0.14-0.4-0.68l0,0l0-0.01l0-0.02
		c0.01-0.08,0.02-0.16,0.03-0.25c2.66-25.6-33.48,9.39-38.3-9.64c-0.17,3,0.68,6.95,3.22,10.72c6.21,9.22,16.66,12.85,23.15,11.64
		C152.05,66,157.99,64.46,160.04,56.96z"/>
	<path class="st1" d="M156.74,64.72c0.4,2.2,0.97,4.19,1.78,5.16c2.35,2.82,5.35-4.82,6.51-7.73c1.16-2.91,3.05-7.19,0.86-7.81
		c-0.61-0.18-1.68-0.16-2.89-0.05c0.34-3.35,5.49-15.85-8.97-16.67c-11.45-0.65-20.1,4.74-24.24-0.82
		c-4.15-5.56-8.05,4.25-1.84,14.21c6.21,9.96,16.66,14.82,23.15,14.39C153.06,65.26,154.97,65.09,156.74,64.72z"/>
	<path class="st4" d="M127.81,49.42c0,0,0.34,11.56,2.69,14.38c2.35,2.82,5.35-4.82,6.51-7.73c1.16-2.91,3.05-7.19,0.86-7.81
		C135.68,47.64,127.81,49.42,127.81,49.42z"/>
	<polygon class="st5" points="148.67,67.1 156.14,71.47 157.43,108.15 132.51,110.86 134.96,79.05 	"/>
	<polygon class="st6" points="136.77,110.4 132.51,110.86 134.96,79.05 139.95,74.7 140.59,75.09 	"/>
	<path class="st7" d="M150.62,66.73l3.51,2.44c0.1,12.55-8.16,27.14-20.48,26.89l0.9-18.31L150.62,66.73z"/>
	<path class="st8" d="M133.96,42.05c0.1,2.19-14.88,41.91-1.46,45.71c13.42,3.8,26.56-11.61,27.26-25.16
		C160.47,49.05,133.96,42.05,133.96,42.05z"/>
	<path class="st5" d="M138.8,88.2c10.96-1.48,20.37-14.2,20.96-25.61c0.15-2.84-0.9-5.38-2.65-7.64c-2.48-0.07-4.52-0.07-4.52-0.07
		s-2.07,17.33-6.47,20.62C142.78,78,140.4,84.36,138.8,88.2z"/>
	<path class="st6" d="M133.96,42.05c0.04,0.86-2.28,7.6-4.26,15.66c6.31,6.29,14.53,9.08,19.98,8.47c3.72-0.42,7.27-0.95,10.02-2.62
		c0.03-0.32,0.06-0.64,0.07-0.96C160.47,49.05,133.96,42.05,133.96,42.05z"/>
	<path class="st6" d="M133.96,42.05c0.1,2.1-13.77,38.97-2.85,45.13c0.04-0.17,0.02-0.36-0.07-0.56c-1.29-3.2,0.7-4.88,1.44-6.35
		c0.75-1.47,0.74-2.42,0.55-3.65c-0.19-1.22,0.55-0.83,0.81-1.71c0.26-0.88-0.68-1.44-0.51-1.97c0.18-0.54,1-1.73,0.84-2.51
		c-0.16-0.78-3-1.36-3.07-2.48c-0.07-1.12,7.65-18.7,8.03-19.61l-2.97-5.62C134.8,42.27,133.96,42.05,133.96,42.05z"/>
	<path class="st7" d="M164.38,57.12c0,0,0.6-2.45-2.18-1.77c-2.48,0.61,7.63-16.51-9.37-17.48c-11.45-0.65-20.1,4.74-24.24-0.82
		c-4.15-5.56-8.05,4.25-1.84,14.21c6.21,9.96,16.66,14.82,23.15,14.39C156.39,65.21,162.33,64.37,164.38,57.12z"/>
	<path class="st4" d="M164.38,57.12c0,0,0.6-2.45-2.18-1.77c-0.35,0.09-0.45-0.19-0.4-0.73l0,0v-0.01l0-0.02
		c0.01-0.07,0.02-0.16,0.03-0.24c2.66-25.29-33.48,5.42-38.3-14.19c-0.17,2.98,0.68,7.03,3.22,11.1
		c6.21,9.96,16.66,14.82,23.15,14.39C156.39,65.21,162.33,64.37,164.38,57.12z"/>
	<path class="st4" d="M154.63,55.75c0,0,0.34,11.56,2.69,14.38c2.35,2.82,5.35-4.82,6.51-7.73c1.16-2.91,3.05-7.19,0.86-7.81
		C162.51,53.97,154.63,55.75,154.63,55.75z"/>
	<path class="st5" d="M157.53,68.17c0,0,3.34-4.24,5.38-2.65c2.04,1.59-2.72,11.64-5.72,11.72
		C154.18,77.31,153.39,73.8,157.53,68.17z"/>
	<path class="st1" d="M186.56,114.4L157.3,97.45c0,0-18.64,9.85-24.19,1.06c-16.07-3.21-24.68-1.54-31.14,1.98
		c-4.14,2.26,6.78,13.44,5.63,16.96c-9.41,28.7-0.32,91.89,1.71,110.01c0.75,6.74,60.61,7.7,66.06,1.47
		c2.53-2.89-3.43-38.88,1.76-59.7C183.16,145.09,186.56,114.4,186.56,114.4z"/>
	<path class="st9" d="M159.84,232.54c7.89-0.64,15.95-2.09,17.52-3.88c0.55-3.65-5.41-38.63-0.22-59.45
		c3.4-13.64,8.11-28.18,11.57-38.26l-5.7-3.66c0,0-24.01,31.27-25.08,54.62C156.87,205.27,159.19,224.8,159.84,232.54z"/>
	<path class="st7" d="M160.22,56.31c-0.03,0.04-9.69,14.32-25.81-2.42l-0.37,0.37c16.58,17.21,26.59,2.41,26.62,2.37L160.22,56.31z"
		/>
	<path class="st4" d="M167.76,54.3c-0.01-0.01-3.33-3.03-6.15,0.66l0.42,0.33c2.48-3.24,5.38-0.6,5.39-0.59L167.76,54.3z"/>
	<path class="st4" d="M165.97,51.69c-0.01,0-4.42-0.45-4.47,4.25l0.53,0.02c0.04-4.13,3.89-3.74,3.9-3.74L165.97,51.69z"/>
	<path class="st6" d="M139.91,75.2c-0.01,0-5.06,0.06-7.45-1.87l-0.32,0.41c2.55,2.05,7.77,1.99,7.78,1.99L139.91,75.2z"/>
	<path class="st6" d="M139.37,74.91c0,0,0.48,0.57,0.15,1.03l0.43,0.32c0.57-0.79-0.21-1.72-0.21-1.73L139.37,74.91z"/>
	<path class="st1" d="M154.15,76.21c0.04-0.09-0.01-0.2-0.1-0.24c-0.09-0.04-0.2,0.01-0.23,0.1c-0.01,0.03-3.33,8.78-13.32,11.21
		c-0.1,0.02-0.15,0.12-0.13,0.22c0.02,0.1,0.12,0.16,0.22,0.14C150.76,85.16,154.14,76.24,154.15,76.21z"/>
	<path class="st6" d="M161.78,67.41c-2.43,1.72-3.9,3.35-4.68,4.61c-1.81,2.93,0.03,3.92,2.09-0.29l-0.42-0.22
		c-1.55,3.34-2.61,2.79-1.22,0.65c0.73-1.13,2.14-2.7,4.52-4.36L161.78,67.41z"/>
	<path class="st6" d="M147.89,71.77c-1.87-0.81-4,0.05-4.77,1.92c-0.77,1.87,0.12,4.04,1.99,4.85c1.87,0.81,4-0.05,4.77-1.92
		C150.65,74.76,149.76,72.58,147.89,71.77z"/>
	<path class="st4" d="M141.82,65.45c-0.49-0.13-0.99,0.17-1.1,0.67c-0.12,0.5,0.19,1,0.68,1.13c0.49,0.13,0.99-0.17,1.1-0.67
		C142.62,66.08,142.32,65.58,141.82,65.45z"/>
	<polygon class="st4" points="145.46,66.21 140.53,64.97 140.33,65.82 145.26,67.07 	"/>
	<polygon class="st4" points="132.65,62.97 128.5,61.54 128.22,62.36 132.36,63.79 	"/>
	<path class="st4" d="M130.94,62.53c-0.48-0.17-1,0.07-1.17,0.56c-0.16,0.48,0.09,1.01,0.57,1.19c0.48,0.17,1-0.08,1.16-0.56
		C131.68,63.24,131.42,62.71,130.94,62.53z"/>
	<path class="st1" d="M182.05,169.69c0.59,22.2,6.15,31.31,17.86,30.44c23.69-1.78-4.24-78.51-10.16-83.7
		c-5.14-4.51-10.61-3.15-12.32,4.67C174.32,135.32,181.95,165.94,182.05,169.69z"/>
	<path d="M160.99,240.93l-0.85,0.95l2.59,2.32c0.47-0.15,0.94-0.3,1.4-0.46L160.99,240.93z"/>
	<path class="st4" d="M65.92,102.3c0.18,3.29-3.14,6.09-7.42,6.26c-4.28,0.17-7.9-2.37-8.08-5.66c-0.18-3.29,3.14-6.09,7.42-6.26
		C62.12,96.48,65.74,99.01,65.92,102.3z"/>
	<path class="st6" d="M54.04,84.41c0,0-3.44,11.62-1.9,17.05c1.41,4.95,14.03,5.96,16.03,1.28c2.2-5.13,0.22-17.18,0.22-17.18
		L54.04,84.41z"/>
	<path class="st10" d="M162.8,99.31c-0.06,0.05-22.86,17.18-33.77,0l-1.07,0.68c11.65,18.34,35.52,0.39,35.59,0.34L162.8,99.31z"/>
	<path class="st10" d="M181.23,119.13c-0.03,0.03-9.57,10.03-0.19,47.9l1.23-0.3c-9.22-37.2-0.13-46.71-0.1-46.74L181.23,119.13z"/>
	<path class="st9" d="M189.3,181.63c-4.69,13.51-1.29,19.05,10.62,18.52c24.11-1.08,14.41-47.77,9.73-50.93
		c-4.07-2.75-9.86-1.91-13.43,2.84C189.73,160.72,190.09,179.35,189.3,181.63z"/>
	<path class="st6" d="M209.6,140.1c0.57,0.49,1.44,0.42,1.94-0.17l4.55-4.91l0,0l0.01-0.02l0.04-0.05c0.58-0.68,0.5-1.7-0.17-2.28
		c-0.68-0.58-1.7-0.5-2.28,0.17l-0.04,0.05l-0.01,0.02l0,0l-4.16,5.24C208.97,138.74,209.03,139.61,209.6,140.1z"/>
	<path class="st4" d="M197.65,149.17c-1.4,2.98,0.63,6.82,4.54,8.58c3.91,1.76,8.21,0.76,9.61-2.22c1.4-2.98-0.63-6.83-4.54-8.58
		C203.36,145.19,199.05,146.19,197.65,149.17z"/>
	<path class="st6" d="M215.37,137.03c0,0-1.16,12.06-4.62,16.52c-3.16,4.06-15.24,0.28-15.35-4.82c-0.12-5.58,6.23-16.02,6.23-16.02
		L215.37,137.03z"/>
	<path class="st6" d="M199.78,136.04l-0.04,0.12c-0.34,1.05,0.23,2.16,1.28,2.49c1.05,0.32,2.18-0.26,2.53-1.31l0.04-0.13l5.26-17.9
		c0.04-0.13,0.08-0.26,0.1-0.4c0.09-0.66-0.3-1.29-0.94-1.49c-0.7-0.22-1.46,0.16-1.74,0.85c-0.01,0.03-0.02,0.06-0.03,0.09
		L199.78,136.04z"/>
	<g>
		<path class="st5" d="M196.31,132.82c-0.77-0.02-1.43,0.59-1.46,1.36c-0.01,0.22,0.03,0.43,0.12,0.61c0.61,2.81-0.5,6.66-0.7,7.35
			l-0.01,0.03l-0.01,0.02l0,0.01l-0.01,0.02l0,0.02v0l0,0.01l0,0c-0.04,0.15-0.07,0.31-0.08,0.48c-0.04,1.09,0.82,1.99,1.91,2.02
			c0.96,0.02,1.78-0.63,2.01-1.53l0-0.01c1.27-4.27-0.41-9.58-0.52-9.55h0C197.35,133.17,196.87,132.83,196.31,132.82z"/>
		<path class="st5" d="M195.18,149.32c0.02,0.19,0.06,0.37,0.11,0.54l0,0.01h0c0.41,1.4,1.69,2.43,3.24,2.46
			c1.94,0.04,3.57-1.49,3.64-3.41c0.03-0.74-0.18-1.43-0.55-2l0,0c-0.05-0.08-0.1-0.16-0.16-0.23l-3.3-4.6
			c-0.35-0.68-1.06-1.15-1.9-1.17c-1.23-0.03-2.26,0.94-2.31,2.16c0,0.09,0,0.17,0.01,0.26c0.01,0.18,0.05,0.35,0.1,0.51
			L195.18,149.32z"/>
	</g>
	<path class="st5" d="M208.49,139.62c0.86,0.26,1.77-0.24,2.03-1.11l2.58-7.52l0-0.01l0.01-0.02l0.02-0.07
		c0.31-1.02-0.27-2.09-1.29-2.4c-1.02-0.31-2.09,0.27-2.4,1.29l-0.02,0.07l-0.01,0.02l0,0.01l-2,7.7
		C207.15,138.44,207.63,139.36,208.49,139.62z"/>
	<path class="st5" d="M206.03,138.32c-0.88-0.17-1.45-1.04-1.27-1.93l1.23-7.86v-0.01l0-0.02l0.01-0.07
		c0.21-1.04,1.22-1.72,2.26-1.52c1.04,0.2,1.72,1.22,1.52,2.26l-0.02,0.07l0,0.02l0,0.01l-1.82,7.74
		C207.77,137.91,206.91,138.5,206.03,138.32z"/>
	<path class="st5" d="M212.56,141.72c0.72,0.22,1.49-0.2,1.71-0.94l2.17-6.33l0-0.01l0.01-0.02l0.02-0.06
		c0.26-0.86-0.23-1.76-1.08-2.02c-0.86-0.26-1.76,0.23-2.02,1.08l-0.02,0.06l0,0.02l0,0l-1.69,6.48
		C211.43,140.73,211.84,141.5,212.56,141.72z"/>
	<path class="st10" d="M103.3,104.74c0.02,0.01,7.96,3.68,3.48,18.14c-4.28,13.82-2.48,43.44-2.47,43.53l-1.27,0.07
		c0-0.09-1.82-29.93,2.53-43.97c4.15-13.41-2.78-16.61-2.8-16.62L103.3,104.74z"/>
	<g>
		<path class="st11" d="M90.27,90.41l-55.79,4.88c-1.1,0.1-2.07-0.72-2.17-1.82L29.39,60.1c-0.1-1.1,0.72-2.07,1.82-2.17L87,53.05
			c1.1-0.1,2.07,0.72,2.17,1.82l2.92,33.37C92.18,89.35,91.37,90.32,90.27,90.41z"/>
		<g>
			<g>
				<defs>
					<path id="SVGID_1_" d="M59.34,75.15l-2.7,8.66c0,0,0,0,0,0l0,0l0,0c-0.01,0.04-0.02,0.08-0.01,0.12
						c0.01,0.11,0.08,0.2,0.17,0.25c0,0,0.01,0.01,0.01,0.01c1.5,0.58,3.16,0.84,4.87,0.69c1.71-0.15,3.3-0.69,4.67-1.53
						c0,0,0,0,0.01,0c0.09-0.06,0.15-0.16,0.14-0.28c0-0.04-0.01-0.08-0.03-0.11c0,0,0-0.01,0-0.01l-4.1-7.94c0,0,0-0.01-0.01-0.01
						c-0.29-0.58-0.92-0.96-1.61-0.9C60.08,74.15,59.56,74.58,59.34,75.15 M50.26,75.01c-0.16,0.01-0.29,0.16-0.27,0.32
						c0,0,0,0.01,0,0.01c0.31,2.71,1.61,5.08,3.49,6.78c0,0,0,0,0.01,0.01c0.06,0.05,0.14,0.08,0.22,0.07
						c0.12-0.01,0.23-0.1,0.26-0.21l0,0l2.21-7.08l0,0l0-0.01l0,0c0.01-0.04,0.02-0.07,0.01-0.11c-0.01-0.17-0.16-0.29-0.33-0.27
						L50.26,75.01z M65.61,73.67c-0.17,0.01-0.29,0.16-0.27,0.33c0,0.04,0.02,0.08,0.03,0.12l3.4,6.59l0,0
						c0.05,0.1,0.17,0.17,0.29,0.16c0.08-0.01,0.15-0.05,0.2-0.1c0,0,0.01-0.01,0.01-0.01c1.56-2,2.42-4.56,2.26-7.28
						c0,0,0-0.01,0-0.01l0,0c-0.01-0.17-0.16-0.29-0.33-0.27L65.61,73.67z M57.92,63.64c0,0-0.01,0-0.01,0
						c-3.83,1.03-6.76,4.09-7.69,7.86c0,0,0,0,0,0.01c-0.01,0.03-0.01,0.06-0.01,0.09c0.01,0.17,0.16,0.29,0.33,0.27l6.56-0.57
						c0.01,0,0.01,0,0.02,0c0.11-0.02,0.2-0.1,0.24-0.21l0.41-1.31c0.55-1.93,0.72-3.74,0.56-5.37l0,0l-0.04-0.5
						c-0.01-0.17-0.16-0.29-0.33-0.27C57.95,63.63,57.94,63.64,57.92,63.64 M61.37,63.64l0.04,0.5l0,0
						c0.13,1.63,0.61,3.39,1.49,5.19l0.63,1.22c0.05,0.09,0.13,0.15,0.23,0.16l0,0c0,0,0,0,0,0c0.01,0,0.02,0,0.03,0c0,0,0,0,0,0
						c0.01,0,0.02,0,0.03,0l6.56-0.57c0.17-0.01,0.29-0.16,0.27-0.33c0-0.03-0.01-0.06-0.02-0.09c0,0,0,0,0,0
						c-1.57-3.56-4.99-6.06-8.94-6.41c0,0-0.01,0-0.01,0c-0.01,0-0.03,0-0.04,0C61.48,63.33,61.35,63.47,61.37,63.64"/>
				</defs>
				<use xlink:href="#SVGID_1_"  style="overflow:visible;fill:#FFFFFF;"/>
				<clipPath id="SVGID_00000085232529369680703380000006190639729111325871_">
					<use xlink:href="#SVGID_1_"  style="overflow:visible;"/>
				</clipPath>
				
					<rect x="49.92" y="63.43" transform="matrix(0.9962 -0.0872 0.0872 0.9962 -6.2335 5.5761)" style="clip-path:url(#SVGID_00000085232529369680703380000006190639729111325871_);fill:#FFFFFF;" width="21.64" height="21.48"/>
			</g>
		</g>
	</g>
	<g>
		<path class="st5" d="M73.29,87.64c0.72,0.28,1.1,1.08,0.84,1.81c-0.07,0.21-0.19,0.38-0.34,0.52c-1.62,2.38-2.03,6.36-2.1,7.08
			l0,0.03l0,0.02l0,0.01l0,0.02l0,0.02l0,0l0,0.01l0,0c-0.02,0.16-0.05,0.32-0.11,0.47c-0.37,1.03-1.5,1.54-2.53,1.15
			c-0.9-0.34-1.42-1.26-1.29-2.17l0-0.01c0.42-4.44,3.97-8.73,4.06-8.66l0,0C72.2,87.58,72.76,87.44,73.29,87.64z"/>
		<path class="st5" d="M68.16,103.36c-0.09,0.16-0.19,0.32-0.31,0.46l-0.01,0.01l0,0c-0.9,1.14-2.47,1.62-3.93,1.07
			c-1.81-0.69-2.75-2.71-2.1-4.53c0.25-0.7,0.7-1.26,1.26-1.65l0,0c0.08-0.05,0.16-0.1,0.23-0.15l4.78-3.03
			c0.58-0.5,1.42-0.67,2.2-0.37c1.15,0.43,1.74,1.72,1.33,2.87c-0.03,0.08-0.06,0.16-0.1,0.24c-0.08,0.16-0.18,0.31-0.29,0.44
			L68.16,103.36z"/>
	</g>
</g>
</svg>
