<?xml version="1.0" encoding="utf-8"?>
<!-- Generator: Adobe Illustrator 26.3.1, SVG Export Plug-In . SVG Version: 6.00 Build 0)  -->
<svg version="1.1" id="圖層_1" xmlns="http://www.w3.org/2000/svg" xmlns:xlink="http://www.w3.org/1999/xlink" x="0px" y="0px"
	 viewBox="0 0 249 20" style="enable-background:new 0 0 249 20;" xml:space="preserve">
<style type="text/css">
	.st0{fill:url(#SVGID_1_);}
	.st1{fill:url(#SVGID_00000020359531275567479150000003330343650869729211_);}
	.st2{fill:url(#SVGID_00000135680212132371973550000014422451276285847738_);}
	.st3{fill:url(#SVGID_00000025415023540510697980000009231554175944569262_);}
	.st4{fill:url(#SVGID_00000144307217243065968760000016459699309376209299_);}
	.st5{fill:#0066B2;}
	.st6{fill:url(#SVGID_00000141436459526359842080000014032593699604820654_);}
	.st7{fill:url(#SVGID_00000140706728364947545650000013547243388492663445_);}
	.st8{fill:url(#SVGID_00000009586070943362831440000007629112580011577020_);}
	.st9{fill:url(#SVGID_00000088838728730042163350000010874471335147512504_);}
	.st10{fill:url(#SVGID_00000024682543319122913150000005101095482790594443_);}
	.st11{fill:#005BAC;}
</style>
<g>
	<g>
		
			<linearGradient id="SVGID_1_" gradientUnits="userSpaceOnUse" x1="-272.5451" y1="322.8517" x2="-272.2596" y2="322.8517" gradientTransform="matrix(0 70.0508 70.0508 0 -22611.2812 19091.9941)">
			<stop  offset="0" style="stop-color:#034EA1"/>
			<stop  offset="1" style="stop-color:#00ADEE"/>
		</linearGradient>
		<path class="st0" d="M8.5,0C4.8,0.6,1.9,3.2,0.7,6.7c0,0,0,0,0,0c0,0,0,0.1,0,0.1C0.7,6.9,0.8,7,1,7h6.1c0,0,0,0,0,0
			C7.2,7,7.3,7,7.3,6.9l0.5-1.2c0.7-1.7,1-3.4,1-4.9h0V0.3C8.8,0.1,8.7,0,8.5,0C8.5,0,8.5,0,8.5,0C8.5,0,8.5,0,8.5,0z"/>
		
			<linearGradient id="SVGID_00000149352934442957308570000006280678372496244157_" gradientUnits="userSpaceOnUse" x1="-272.5451" y1="322.9301" x2="-272.2596" y2="322.9301" gradientTransform="matrix(0 70.0508 70.0508 0 -22611.2812 19091.9941)">
			<stop  offset="0" style="stop-color:#034EA1"/>
			<stop  offset="1" style="stop-color:#00ADEE"/>
		</linearGradient>
		<path style="fill:url(#SVGID_00000149352934442957308570000006280678372496244157_);" d="M14.7,19c0.1,0,0.1-0.1,0.1-0.2
			c0,0,0-0.1,0-0.1c0,0,0,0,0,0l-3.2-7.7c0,0,0,0,0,0c-0.2-0.6-0.8-1-1.4-1c-0.6,0-1.1,0.4-1.4,0.9l-3.2,7.8c0,0,0,0,0,0l0,0v0
			c0,0,0,0.1,0,0.1c0,0.1,0.1,0.2,0.1,0.2c0,0,0,0,0,0c1.3,0.7,2.9,1,4.5,1C11.8,20,13.3,19.6,14.7,19C14.7,19,14.7,19,14.7,19z"/>
		
			<linearGradient id="SVGID_00000147210971064765750130000017768942062595854210_" gradientUnits="userSpaceOnUse" x1="-272.5451" y1="323.0086" x2="-272.2596" y2="323.0086" gradientTransform="matrix(0 70.0508 70.0508 0 -22611.2812 19091.9941)">
			<stop  offset="0" style="stop-color:#034EA1"/>
			<stop  offset="1" style="stop-color:#00ADEE"/>
		</linearGradient>
		<path style="fill:url(#SVGID_00000147210971064765750130000017768942062595854210_);" d="M11.7,0.3v0.5h0c0,1.5,0.3,3.2,1,4.9
			l0.5,1.2C13.1,7,13.2,7,13.3,7h0c0,0,0,0,0,0c0,0,0,0,0,0c0,0,0,0,0,0c0,0,0,0,0,0h6.1c0.2,0,0.3-0.1,0.3-0.3c0,0,0-0.1,0-0.1
			c0,0,0,0,0,0c-1.2-3.4-4.1-6-7.8-6.7c0,0,0,0,0,0c0,0,0,0,0,0C11.8,0,11.7,0.1,11.7,0.3z"/>
		
			<linearGradient id="SVGID_00000001661353927281908780000017156359850584558510_" gradientUnits="userSpaceOnUse" x1="-272.5451" y1="323.0325" x2="-272.2596" y2="323.0325" gradientTransform="matrix(0 70.0508 70.0508 0 -22611.2812 19091.9941)">
			<stop  offset="0" style="stop-color:#034EA1"/>
			<stop  offset="1" style="stop-color:#00ADEE"/>
		</linearGradient>
		<path style="fill:url(#SVGID_00000001661353927281908780000017156359850584558510_);" d="M20,9.9h-5.2c-0.2,0-0.3,0.1-0.3,0.3
			c0,0,0,0.1,0,0.1l2.6,6.4v0c0,0.1,0.1,0.2,0.3,0.2c0.1,0,0.1,0,0.2-0.1c0,0,0,0,0,0c1.6-1.7,2.6-4,2.7-6.6c0,0,0,0,0,0v0
			C20.3,10,20.2,9.9,20,9.9z"/>
		
			<linearGradient id="SVGID_00000078025902128891616120000013923899121651831710_" gradientUnits="userSpaceOnUse" x1="-272.5451" y1="322.8277" x2="-272.2596" y2="322.8277" gradientTransform="matrix(0 70.0508 70.0508 0 -22611.2812 19091.9941)">
			<stop  offset="0" style="stop-color:#034EA1"/>
			<stop  offset="1" style="stop-color:#00ADEE"/>
		</linearGradient>
		<path style="fill:url(#SVGID_00000078025902128891616120000013923899121651831710_);" d="M5.7,9.9H0.4c-0.2,0-0.3,0.1-0.3,0.3
			c0,0,0,0,0,0c0.1,2.5,1.1,4.8,2.7,6.6c0,0,0,0,0,0C2.9,16.8,3,16.9,3,16.9c0.1,0,0.2-0.1,0.3-0.2h0l2.6-6.4v0l0,0v0
			c0,0,0-0.1,0-0.1C6,10,5.8,9.9,5.7,9.9z"/>
		<path class="st5" d="M29,4.5h14.6c0,0,0,0,0,0V2.8c0,0,0,0,0,0h-0.1H29c0,0,0,0,0,0L29,4.5C28.9,4.4,29,4.5,29,4.5"/>
		<path class="st5" d="M44,15.7c0-0.2-0.1-0.3-0.3-0.3h0v0l-4.6,0c-0.3,0-0.6-0.3-0.7-0.5c0,0,0-0.1,0-0.2l0-7l5.5,0c0,0,0,0,0,0
			V6.2c0,0,0,0,0,0h-0.1H28.6c0,0,0,0,0,0v1.6c0,0,0,0,0,0h4.8c0,0.1-3.8,7.2-4.8,8.9c0,0,0,0,0,0c0,0,0,0.1,0,0.1
			c0,0.2,0.1,0.3,0.3,0.3h1.5c0,0,0,0,0,0c0,0,5-9.2,5-9.3h1.2v6.9c0,1.3,1,2.4,2.3,2.4l3.5,0C43.2,17.1,43.9,16.5,44,15.7
			C44,15.8,44,15.8,44,15.7C44,15.8,44,15.7,44,15.7"/>
		<path class="st5" d="M64.7,6.4c0-0.2-0.1-0.3-0.3-0.3h-7.2V2.4c0,0,0,0,0,0h-0.1h-1.6c0,0,0,0,0,0v3.8h-6.7c0,0,0,0,0,0v1.6
			c0,0,0,0,0,0h6.2c0,0.1-5.1,7.1-6.4,8.9c0,0,0,0,0,0c0,0,0,0.1,0,0.1c0,0.2,0.1,0.3,0.3,0.3h1.6c0,0,0,0,0,0l5.5-7.5
			c0.3-0.4,0.8-0.4,1.1,0c0,0,5.5,7.5,5.5,7.5c0,0,0,0,0,0h1.6c0.2,0,0.3-0.1,0.3-0.3c0-0.1,0-0.1-0.1-0.2c0,0,0,0,0,0
			c-1.3-1.8-6.3-8.8-6.4-8.8c0.1,0,5.3,0,5.3,0C63.9,7.8,64.6,7.2,64.7,6.4C64.7,6.5,64.7,6.5,64.7,6.4C64.7,6.4,64.7,6.4,64.7,6.4"
			/>
		<path class="st5" d="M84.7,11.8c0.1,0,0.1-0.1,0.1-0.2c0-0.2-0.1-0.3-0.3-0.3v0h-1.4c0,0,0,0,0,0l-0.9,1l-1.3-2.2l2.2,0
			c0,0,0,0,0.1,0c0.2,0,0.8,0,1.3-0.5c0.6-0.6,0.6-1.2,0.6-1.3V4.6c0,0,0.1-0.7-0.6-1.3c-0.5-0.4-1-0.5-1.3-0.5c-0.1,0-0.1,0-0.1,0
			h-6.1c0,0,0,0,0,0v1.6c0,0.1,0,0.1,0,0.1v12.5c0,0,0,0,0,0c0,0,0,0,0,0h1.5c0,0,0,0,0,0c0.1,0,0.3,0,0.5-0.1c0.8-0.1,1.6-1,1.6-1
			c0,0,0.2-0.2,0.9-0.9l0.2-0.2l1.3,2.2c0,0,0,0,0,0h1.4c0.2,0,0.3-0.1,0.3-0.3c0-0.1,0-0.1,0-0.1l-1.8-3L84.7,11.8z M78.5,4.3H83
			c0,0,0,0,0,0c0,0,0.1,0,0.2,0.1c0.1,0.1,0.1,0.2,0.1,0.2v1.2h-4.8V4.3z M78.5,7.3h4.8l0,1.2c0,0,0,0.1-0.1,0.2
			c-0.1,0.1-0.1,0.1-0.2,0.1c0,0,0,0,0,0h-4.5V7.3z M78.5,16.2v-6h0.4l2,3.4L78.5,16.2z"/>
		<path class="st5" d="M76.5,8.4L75.4,4c0,0,0-0.1,0-0.1l0-0.1c0,0,0,0,0,0c-0.2-0.6-0.8-1-1.4-1h-4.2c0,0,0,0,0,0c0,0,0,0,0,0v1.5
			c0,0,0,0,0,0l-1.1,4.1l0,0c0,0,0,0,0,0.1c0,0.2,0.1,0.3,0.3,0.3c0,0,0,0,0,0h1.2c0,0,0,0,0,0l0.3-1.1h1.4V10h-2.3c0,0,0,0,0,0v1.5
			c0,0,0,0,0,0h2.3v4.1h-0.1L71,12.9c0,0,0,0,0,0h-1.1v0c-0.2,0-0.3,0.1-0.3,0.3c0,0,0,0,0,0.1v0l0.6,2.4h-0.9c0,0,0,0,0,0v1.5
			c0,0,0,0,0,0l5.4,0c0.8,0,1.4-0.5,1.5-1.2v0c0,0,0,0,0-0.1c0-0.2-0.1-0.3-0.3-0.3v0H75l0.6-2.4l0,0c0,0,0,0,0-0.1
			c0-0.2-0.1-0.3-0.3-0.3v0h-1.1c0,0,0,0,0,0l-0.7,2.7h-0.1v-4.1h2.3c0,0,0,0,0,0V10c0,0,0,0,0,0h-2.3V7.6h1.4L75,8.8c0,0,0,0,0,0
			h1.2v0C76.4,8.8,76.5,8.7,76.5,8.4C76.5,8.5,76.5,8.5,76.5,8.4L76.5,8.4z M70.8,6.1l0.4-1.7h2.7l0.4,1.7H70.8z"/>
		<path class="st5" d="M95.2,4.5h10c0,0,0,0,0,0V2.9c0,0,0,0,0,0h-10c0,0,0,0,0,0L95.2,4.5C95.1,4.5,95.2,4.5,95.2,4.5"/>
		<path class="st5" d="M88.9,7.7h1.4c0,0,0,0,0,0c0.8-0.9,2.6-3.1,3.8-4.5c0,0,0,0,0,0c0,0,0-0.1,0-0.2c0-0.2-0.1-0.3-0.3-0.3h-1.5
			c0,0,0,0,0,0l-3.7,4.5c0,0-0.1,0.1-0.1,0.2C88.7,7.6,88.8,7.7,88.9,7.7"/>
		<path class="st5" d="M94.1,6.4h-1.5c0,0,0,0,0,0L88.9,11c0,0-0.1,0.1-0.1,0.2c0,0.2,0.1,0.3,0.3,0.3l0,0h1.4c0,0,0,0,0,0
			c0.2-0.3,0.5-0.5,0.7-0.9v6.5c0,0,0,0,0,0h1.6c0,0,0,0,0,0V8.6c0.6-0.7,1.1-1.3,1.4-1.7c0,0,0,0,0,0c0,0,0.1-0.1,0.1-0.2
			C94.4,6.6,94.3,6.4,94.1,6.4"/>
		<path class="st5" d="M105.4,6.7c0-0.2-0.1-0.3-0.3-0.3h-10c0,0,0,0,0,0V8c0,0,0,0,0,0c0,0,0,0,0,0l6.1,0c0,1.9,0,7.4,0,7.4
			c0,0.2-0.1,0.2-0.3,0.2l-2.9,0v0c-0.2,0-0.3,0.1-0.3,0.3c0,0,0,0,0,0c0,0,0,0,0,0c0.1,0.7,0.8,1.2,1.5,1.2l1.7,0c0,0,0,0,0.1,0
			c0.2,0,0.8,0,1.3-0.5c0.6-0.5,0.5-1.3,0.5-1.3l0,0V8c0,0,0,0,0,0h1C104.7,8,105.3,7.5,105.4,6.7C105.4,6.8,105.4,6.8,105.4,6.7
			C105.4,6.7,105.4,6.7,105.4,6.7"/>
	</g>
	<g>
		
			<linearGradient id="SVGID_00000116216283532548354350000013428891584083169678_" gradientUnits="userSpaceOnUse" x1="-272.545" y1="324.9868" x2="-272.2595" y2="324.9868" gradientTransform="matrix(0 70.0493 70.0493 0 -22610.8066 19091.5918)">
			<stop  offset="0" style="stop-color:#034EA1"/>
			<stop  offset="1" style="stop-color:#00ADEE"/>
		</linearGradient>
		<path style="fill:url(#SVGID_00000116216283532548354350000013428891584083169678_);" d="M158.8,19c0.1,0,0.1-0.1,0.1-0.2
			c0,0,0-0.1,0-0.1v0c0,0,0,0,0,0l-3.2-7.7c0,0,0,0,0,0c-0.2-0.6-0.8-1-1.4-1c-0.6,0-1.1,0.4-1.4,0.9l-3.2,7.8v0l0,0v0
			c0,0,0,0.1,0,0.1c0,0.1,0.1,0.2,0.1,0.2c0,0,0,0,0,0c1.3,0.7,2.9,1,4.5,1C155.9,20,157.4,19.6,158.8,19
			C158.8,19,158.8,19,158.8,19z"/>
		
			<linearGradient id="SVGID_00000137853789870012726560000007161036183179581064_" gradientUnits="userSpaceOnUse" x1="-272.545" y1="324.9084" x2="-272.2595" y2="324.9084" gradientTransform="matrix(0 70.0493 70.0493 0 -22610.8066 19091.5918)">
			<stop  offset="0" style="stop-color:#034EA1"/>
			<stop  offset="1" style="stop-color:#00ADEE"/>
		</linearGradient>
		<path style="fill:url(#SVGID_00000137853789870012726560000007161036183179581064_);" d="M152.5,0c-3.6,0.6-6.6,3.2-7.8,6.7
			c0,0,0,0,0,0c0,0,0,0.1,0,0.1c0,0.2,0.1,0.3,0.3,0.3h6.1c0,0,0,0,0,0c0.1,0,0.2-0.1,0.2-0.2l0.5-1.2c0.7-1.7,1-3.4,1-4.9h0V0.3
			C152.9,0.1,152.7,0,152.5,0C152.6,0,152.6,0,152.5,0C152.5,0,152.5,0,152.5,0z"/>
		
			<linearGradient id="SVGID_00000041295235599874745330000007978008932726788756_" gradientUnits="userSpaceOnUse" x1="-272.545" y1="325.0653" x2="-272.2595" y2="325.0653" gradientTransform="matrix(0 70.0493 70.0493 0 -22610.8066 19091.5918)">
			<stop  offset="0" style="stop-color:#034EA1"/>
			<stop  offset="1" style="stop-color:#00ADEE"/>
		</linearGradient>
		<path style="fill:url(#SVGID_00000041295235599874745330000007978008932726788756_);" d="M155.7,0.3v0.5h0c0,1.5,0.3,3.2,1,4.9
			l0.5,1.2v0c0,0.1,0.1,0.1,0.2,0.2c0,0,0,0,0,0c0,0,0,0,0,0h0c0,0,0,0,0,0h6.1c0.2,0,0.3-0.1,0.3-0.3c0,0,0-0.1,0-0.1c0,0,0,0,0,0
			c-1.2-3.4-4.1-6-7.8-6.7c0,0,0,0,0,0c0,0,0,0,0,0C155.9,0,155.7,0.1,155.7,0.3z"/>
		
			<linearGradient id="SVGID_00000016055292908694791160000007153423372216698032_" gradientUnits="userSpaceOnUse" x1="-272.545" y1="324.8844" x2="-272.2595" y2="324.8844" gradientTransform="matrix(0 70.0493 70.0493 0 -22610.8066 19091.5918)">
			<stop  offset="0" style="stop-color:#034EA1"/>
			<stop  offset="1" style="stop-color:#00ADEE"/>
		</linearGradient>
		<path style="fill:url(#SVGID_00000016055292908694791160000007153423372216698032_);" d="M149.7,9.9h-5.2c-0.2,0-0.3,0.1-0.3,0.3
			c0,0,0,0,0,0c0.1,2.5,1.1,4.8,2.7,6.6c0,0,0,0,0,0c0.1,0.1,0.1,0.1,0.2,0.1c0.1,0,0.2-0.1,0.3-0.2v0l2.6-6.4l0,0v0
			c0,0,0-0.1,0-0.1C150,10,149.9,9.9,149.7,9.9z"/>
		
			<linearGradient id="SVGID_00000029762716847600636350000010819537546682149027_" gradientUnits="userSpaceOnUse" x1="-272.545" y1="325.0892" x2="-272.2595" y2="325.0892" gradientTransform="matrix(0 70.0493 70.0493 0 -22610.8066 19091.5918)">
			<stop  offset="0" style="stop-color:#034EA1"/>
			<stop  offset="1" style="stop-color:#00ADEE"/>
		</linearGradient>
		<path style="fill:url(#SVGID_00000029762716847600636350000010819537546682149027_);" d="M164.1,9.9h-5.2c-0.2,0-0.3,0.1-0.3,0.3
			c0,0,0,0.1,0,0.1l2.6,6.4c0,0.1,0.1,0.2,0.3,0.2c0.1,0,0.1,0,0.2-0.1c0,0,0,0,0,0c1.6-1.7,2.6-4,2.7-6.6v0v0
			C164.4,10,164.2,9.9,164.1,9.9z"/>
		<path class="st5" d="M218,5h-1.6V2.5c0,0,0,0,0,0h-1.6c0,0,0,0,0,0V5h-2.1c0,0,0,0,0,0v1.5c0,0,0,0,0,0h2.1v3.7l-0.2,0.1
			c0,0-0.7,0.4-1.9,1.1c0,0,0,0,0,0v1.3h0c0,0.1,0.1,0.3,0.3,0.3c0,0,0.1,0,0.1,0c0,0,0,0,0,0h0l1.7-1l0,2.9c0,0.3-0.2,0.6-0.4,0.6
			l-1.5,0c0,0,0,0,0,0c0,0,0,0,0,0v1.5c0,0,0,0,0,0c0,0,1.7,0,1.7,0c1-0.1,1.8-1,1.8-2.2c0,0,0,0,0,0l0-3.8l1.6-1c0,0,0,0,0,0V8.8h0
			c0-0.2-0.1-0.3-0.3-0.3c0,0-0.1,0-0.1,0h0l-1.2,0.7V6.6h1.6c0,0,0,0,0,0L218,5C218.1,5,218.1,5,218,5"/>
		<path class="st5" d="M228.5,6.6C228.5,6.6,228.5,6.6,228.5,6.6l-0.3,0c-0.5,0-0.5,0-0.5,0h0c0,0-0.1,0-0.2-0.1
			c-0.1-0.1-0.1-0.1-0.1-0.2V5.9c0,0,0,0,0,0V4.5c0,0,0-0.7-0.6-1.3c-0.5-0.4-1.1-0.5-1.3-0.5c0,0-0.1,0-0.1,0h-4.2c0,0,0,0,0,0
			h-2.3c0,0,0,0,0,0v1.7c0,0,0,0,0,0l0,3.4c0,0,0,0,0,0c0,0,0,0,0,0h1.6c0,0,0,0,0,0V4.3h4.9c0,0,0,0,0,0c0,0,0.1,0,0.2,0.1
			c0.1,0.1,0.1,0.1,0.1,0.2c0,0,0,0,0,0v0.3c0,0,0,0,0,0l0,1.4c0,0-0.1,0.7,0.5,1.3c0.5,0.5,1.1,0.5,1.3,0.5c0,0,0.1,0,0.1,0l0.8,0
			c0,0,0,0,0,0L228.5,6.6C228.5,6.6,228.5,6.6,228.5,6.6"/>
		<path class="st5" d="M228,9.9c-0.5-1-1.7-1-1.7-1H221c0,0,0,0,0,0h-1.6c0,0,0,0,0,0c-0.2,0-0.3,0.1-0.3,0.3c0,0,0,0,0,0
			c0,0,0,0,0,0c0.1,0.7,0.8,1.2,1.5,1.2h0.4c0,0,0,0,0,0h5.3c0,0,0.1,0,0.2,0.1c0,0,0,0.1,0,0.1c0,0.1,0,0.1-0.1,0.1
			c0,0-1,0.8-2.3,1.8c0,0,0,0,0,0c0,0,0,0,0,0c0,0,0,0-0.1,0.1l0,0c-0.1,0.1-0.3,0.1-0.4,0.1c-0.2,0-0.3,0-0.5-0.1l-1.9-1.6
			c0,0,0,0,0,0h-1.6v0c-0.2,0-0.3,0.1-0.3,0.3c0,0.1,0,0.2,0.1,0.2l0,0l2.9,2.4l-3.5,2.7c-0.1,0-0.1,0.1-0.1,0.2
			c0,0.2,0.1,0.3,0.3,0.3h0h1.7c0,0,0,0,0,0l2.8-2.1l2.6,2.1c0,0,0,0,0,0h1.6c0.2,0,0.3-0.1,0.3-0.3c0-0.1,0-0.2-0.1-0.2l0,0
			l-3.1-2.6l2.8-2.1C227.7,11.8,228.6,11,228,9.9"/>
		<path class="st5" d="M173,4.5h14.6c0,0,0,0,0,0V2.8c0,0,0,0,0,0h-0.1H173c0,0,0,0,0,0L173,4.5C173,4.4,173,4.5,173,4.5"/>
		<path class="st5" d="M188.1,15.7c0-0.2-0.1-0.3-0.3-0.3h0l-4.6,0c-0.3,0-0.6-0.3-0.7-0.5c0,0,0-0.1,0-0.2l0-7l5.5,0c0,0,0,0,0,0
			V6.2c0,0,0,0,0,0H188h-15.3c0,0,0,0,0,0v1.6c0,0,0,0,0,0h4.8c0,0.1-3.8,7.2-4.8,8.9c0,0,0,0,0,0c0,0,0,0.1,0,0.1
			c0,0.2,0.1,0.3,0.3,0.3h1.5c0,0,0,0,0,0c0,0,5-9.2,5-9.3h1.2v6.9c0,1.3,1,2.4,2.3,2.4l3.5,0C187.3,17.1,188,16.5,188.1,15.7
			L188.1,15.7C188.1,15.8,188.1,15.7,188.1,15.7"/>
		<path class="st5" d="M208.8,6.4c0-0.2-0.1-0.3-0.3-0.3h-7.2V2.4c0,0,0,0,0,0h-0.1h-1.6c0,0,0,0,0,0v3.8h-6.7c0,0,0,0,0,0v1.6
			c0,0,0,0,0,0h6.2c0,0.1-5.1,7.1-6.4,8.9c0,0,0,0,0,0c0,0,0,0.1,0,0.1c0,0.2,0.1,0.3,0.3,0.3h1.6c0,0,0,0,0,0l5.5-7.5
			c0.3-0.4,0.8-0.4,1.1,0c0,0,5.5,7.5,5.5,7.5c0,0,0,0,0,0h1.6c0.2,0,0.3-0.1,0.3-0.3c0-0.1,0-0.1-0.1-0.2c0,0,0,0,0,0
			c-1.3-1.8-6.3-8.8-6.4-8.8c0.1,0,5.3,0,5.3,0C208,7.8,208.7,7.2,208.8,6.4L208.8,6.4C208.8,6.4,208.8,6.4,208.8,6.4"/>
		<path class="st5" d="M238,8h9.8c0,0,0,0,0,0V6.4c0,0,0,0,0,0H238c0,0,0,0,0,0L238,8C238,7.9,238,8,238,8"/>
		<path class="st5" d="M238,10.6C238,10.6,238,10.6,238,10.6l9.8,0c0,0,0,0,0,0V9.1c0,0,0,0,0,0H238c0,0,0,0,0,0V10.6z"/>
		<path class="st5" d="M247.7,12.4c-0.5-0.5-1.1-0.5-1.3-0.5c0,0,0,0-0.1,0h-8.7c0,0,0,0,0,0c0,0,0,0,0,0l0,5.2c0,0,0,0,0,0
			c0,0,0,0,0,0l8.7,0l0,0h0.1c0,0,0,0,0,0c0.2,0,0.8-0.1,1.2-0.5c0.6-0.6,0.6-1.2,0.6-1.3v-1.7C248.2,13.6,248.3,12.9,247.7,12.4
			 M246.6,15.5c-0.1,0.1-0.1,0.1-0.2,0.1c0,0,0,0,0,0c0,0,0,0,0,0c0,0,0,0,0,0h-7.2v-2.2h7.2c0,0,0,0,0,0c0,0,0.1,0,0.2,0.1
			c0.1,0.1,0.1,0.2,0.1,0.2v1.7C246.6,15.4,246.6,15.5,246.6,15.5"/>
		<path class="st5" d="M236.8,2.6L236.8,2.6h-1.3c0,0,0,0,0,0L232.3,9v0c0,0,0,0.1,0,0.1c0,0.2,0.1,0.3,0.3,0.3v0h1.3c0,0,0,0,0,0
			l0.5-1v8.7c0,0,0,0,0,0h1.6c0,0,0,0,0,0v-12l1.1-2.1l0,0c0,0,0-0.1,0-0.1C237.1,2.7,237,2.6,236.8,2.6"/>
		<path class="st5" d="M248.8,4c0-0.2-0.1-0.3-0.3-0.3v0h-5.2V2.6c0,0,0,0,0,0h-1.4c0,0,0,0,0,0v1.1h-4.2c0,0,0,0,0,0v1.5
			c0,0,0,0,0,0c0,0,0,0,0,0l9.7,0C248.1,5.2,248.7,4.7,248.8,4C248.8,4,248.8,4,248.8,4C248.8,4,248.8,4,248.8,4"/>
	</g>
	<path class="st11" d="M125.5,10l3.5-3.5c0.2-0.2,0.2-0.5,0-0.7c-0.2-0.2-0.5-0.2-0.7,0l-3.5,3.5l-3.5-3.5c-0.2-0.2-0.5-0.2-0.7,0
		s-0.2,0.5,0,0.7l3.5,3.5l-3.5,3.5c-0.2,0.2-0.2,0.5,0,0.7c0.1,0.1,0.2,0.1,0.4,0.1s0.3,0,0.4-0.1l3.5-3.5l3.5,3.5
		c0.1,0.1,0.2,0.1,0.4,0.1s0.3,0,0.4-0.1c0.2-0.2,0.2-0.5,0-0.7L125.5,10z"/>
</g>
</svg>
