<?xml version="1.0" encoding="utf-8"?>
<!-- Generator: Adobe Illustrator 29.8.2, SVG Export Plug-In . SVG Version: 9.03 Build 0)  -->
<svg version="1.0" id="圖層_1" xmlns="http://www.w3.org/2000/svg" xmlns:xlink="http://www.w3.org/1999/xlink" x="0px" y="0px"
	 viewBox="0 0 40 40" style="enable-background:new 0 0 40 40;" xml:space="preserve">
<style type="text/css">
	.st0{fill:#FFFFFF;}
</style>
<g>
	<g>
		<g>
			<path class="st0" d="M4,37c-0.3,0-0.5-0.1-0.7-0.3c-0.4-0.4-0.4-1,0-1.4l32-32c0.4-0.4,1-0.4,1.4,0s0.4,1,0,1.4l-32,32
				C4.5,36.9,4.3,37,4,37z"/>
		</g>
	</g>
	<g>
		<g>
			<path class="st0" d="M36,37c-0.3,0-0.5-0.1-0.7-0.3l-32-32c-0.4-0.4-0.4-1,0-1.4s1-0.4,1.4,0l32,32c0.4,0.4,0.4,1,0,1.4
				C36.5,36.9,36.3,37,36,37z"/>
		</g>
	</g>
</g>
</svg>
