<svg id="圖層_1" data-name="圖層 1" xmlns="http://www.w3.org/2000/svg" viewBox="0 0 33 66"><defs><style>.cls-1{fill:#fff;}.cls-2{fill:#898f9c;}</style></defs><title>socialmedia</title><path class="cls-1" d="M31.83,41.75A4,4,0,0,0,29,38.9c-2.49-.67-12.5-.67-12.5-.67s-10,0-12.5.67a4,4,0,0,0-2.83,2.85A42.07,42.07,0,0,0,.5,49.5a42.07,42.07,0,0,0,.67,7.75A4,4,0,0,0,4,60.1c2.49.67,12.5.67,12.5.67s10,0,12.5-.67a4,4,0,0,0,2.83-2.85,42.07,42.07,0,0,0,.67-7.75A42.07,42.07,0,0,0,31.83,41.75ZM13.23,54.26V44.74l8.36,4.76Z"/><path class="cls-2" d="M31.83,8.75A4,4,0,0,0,29,5.9c-2.49-.67-12.5-.67-12.5-.67s-10,0-12.5.67A4,4,0,0,0,1.17,8.75,42.07,42.07,0,0,0,.5,16.5a42.07,42.07,0,0,0,.67,7.75A4,4,0,0,0,4,27.1c2.49.67,12.5.67,12.5.67s10,0,12.5-.67a4,4,0,0,0,2.83-2.85,42.07,42.07,0,0,0,.67-7.75A42.07,42.07,0,0,0,31.83,8.75ZM13.23,21.26V11.74l8.36,4.76Z"/></svg>