<svg width="1180" height="229" viewBox="0 0 1180 229" fill="none" xmlns="http://www.w3.org/2000/svg">
<g clip-path="url(#clip0_32_1182)">
<g opacity="0.5">
<path d="M590.949 36.2397C590.91 36.2397 590.878 36.2397 590.84 36.2397C590.802 36.2397 590.77 36.2397 590.731 36.2397C245.838 36.2654 51.9071 107.674 51.9071 107.674L469.138 210.326H712.938L1129.93 107.674C1129.93 107.674 935.842 36.2654 590.949 36.2397Z" stroke="white" stroke-width="2" stroke-miterlimit="10"/>
<path d="M589.741 132.383C560.859 132.383 537.061 138.424 536.582 145.997C536.096 153.712 559.888 160.067 589.735 160.067C619.582 160.067 643.38 153.712 642.901 145.997C642.428 138.424 618.63 132.383 589.748 132.383H589.741ZM589.735 158.4C562.392 158.4 540.473 152.795 540.869 146.004C541.258 139.321 563.184 133.96 589.741 133.96C616.299 133.96 638.224 139.321 638.614 146.004C639.004 152.686 617.084 158.4 589.735 158.4Z" fill="white"/>
<path d="M572.582 216.373H525.555L527.299 191.619H573.048L572.575 216.373H572.582ZM529.235 215.071H569.017L569.528 192.863H530.711L529.229 215.071H529.235Z" fill="white"/>
<path d="M655.032 216.373H608.006L607.521 191.619H653.276L655.039 216.373H655.032ZM611.565 215.071H651.353L649.858 192.863H611.041L611.565 215.071Z" fill="white"/>
<path d="M599.912 203.656C599.931 205.567 595.625 207.119 590.291 207.119C584.956 207.119 580.644 205.567 580.663 203.656C580.682 201.745 584.995 200.219 590.284 200.219C595.574 200.219 599.886 201.758 599.912 203.656Z" fill="white"/>
<path d="M263.86 126.707C337.438 99.5676 458.098 82.2462 589.76 82.2462C721.422 82.2462 842.537 99.6317 916.056 126.868L918.714 126.233C844.479 98.6954 722.643 81.1304 589.76 81.1304C456.878 81.1304 335.457 98.6377 261.171 126.085L263.86 126.707Z" fill="white"/>
<path d="M1180 63.8731L1176.97 62.6739L838.946 144.58L598.008 92.8596L590.067 91.1282V91.1153H590.042H590.016L587.556 91.654L341.054 144.567L3.02818 62.6675L0 63.8667L509.418 187.611C499.79 191.606 493.894 196.377 493.338 201.546C491.734 216.476 534.94 228.994 589.709 228.994C644.478 228.994 687.697 216.476 686.1 201.546C685.551 196.416 679.731 191.677 670.231 187.694L1180 63.8603V63.8731ZM680.088 201.553C681.449 215.103 640.92 226.429 589.716 226.429C538.511 226.429 497.989 215.103 499.356 201.553C499.892 196.23 506.85 191.363 518.074 187.457L512.976 186.232L360.596 149.313L375.264 146.087L360.481 142.284L577.322 95.6365L590.022 99.3367V99.3495L590.048 99.3431H590.073V99.3367L602.742 95.6429L819.538 142.284L804.755 146.087L819.423 149.313L663.983 186.976L664.027 187.002L661.747 187.585C672.761 191.472 679.571 196.288 680.101 201.553H680.088Z" fill="white"/>
<path d="M1049.97 33.2769C929.964 15.2308 775.84 0.654183 590.962 0.641357C590.91 0.641357 590.859 0.641357 590.808 0.641357C590.757 0.641357 590.706 0.641357 590.655 0.641357C404.907 0.654183 250.234 15.3655 130.02 33.5334" stroke="white" stroke-width="2" stroke-miterlimit="10"/>
</g>
</g>
<defs>
<clipPath id="clip0_32_1182">
<rect width="1180" height="229" fill="white"/>
</clipPath>
</defs>
</svg>
