<svg width="202" height="202" viewBox="0 0 202 202" fill="none" xmlns="http://www.w3.org/2000/svg">
<g opacity="0.46">
<path d="M148.946 152.985C178.247 125.915 180.534 80.6953 154.054 51.9849C127.574 23.2744 82.3542 21.9449 53.0536 49.0152C23.7529 76.0855 21.4663 121.305 47.9464 150.015C74.4265 178.726 119.646 180.055 148.946 152.985Z" stroke="white" stroke-width="3.71" stroke-miterlimit="10"/>
<path d="M117.875 127.806C118.663 121.773 117.138 115.351 115.046 109.239C113.462 104.632 111.509 100.085 109.248 95.6577C112.605 92.4968 115.983 89.3558 119.37 86.2248C121.582 84.1906 123.794 82.1564 126.015 80.1322C130.807 84.39 134.783 89.6649 137.234 95.2988C139.266 99.9754 145.891 98.7588 144.277 93.8429C141.926 86.6934 137.742 80.0425 132.342 74.5781C133.966 73.1622 135.54 71.6864 136.815 70.0212C139.246 66.8602 135.261 61.2563 131.405 63.3802C129.044 64.6765 126.922 66.4913 124.87 68.336C123.196 67.1993 121.462 66.1423 119.669 65.2349C109.218 59.9002 90.8658 56.6594 88.7038 70.6494C87.857 76.1137 90.537 81.7675 93.5658 86.7931C94.861 88.937 96.1761 91.0609 97.4414 93.1848C96.8337 93.7632 96.216 94.3515 95.6082 94.9298C89.9792 100.314 84.4198 105.779 78.9402 111.313C78.5815 111.682 78.2228 112.051 77.8641 112.42C75.0346 108.122 72.7631 103.565 70.6509 98.8386C68.0506 93.0452 60.0105 94.511 61.8836 100.643C63.8164 106.985 67.4329 113.357 71.5177 118.941C71.169 119.3 70.8104 119.659 70.4617 120.028C69.1665 121.374 67.8813 122.73 66.596 124.096C65.0219 125.771 63.3182 127.157 62.9396 129.65C62.4813 132.622 65.4602 135.733 68.4192 135.115C70.7705 134.626 71.9163 133.1 73.4506 131.485C74.8454 130.019 76.2402 128.544 77.635 127.078C77.7346 126.968 77.8343 126.868 77.9339 126.759C81.1818 130.279 84.7585 133.509 88.7038 136.072C94.4724 139.801 101.417 141.865 107.414 140.28C113.263 138.734 117.088 133.948 117.885 127.796L117.875 127.806ZM98.2584 75.1764C97.6607 69.9414 104.326 69.9314 108.221 70.7391C111.539 71.4271 114.827 72.7135 117.955 74.4385C116.321 75.8644 114.677 77.2804 113.053 78.7262C110.055 81.3886 107.096 84.1008 104.156 86.843C101.706 83.1735 98.6968 79.0952 98.2584 75.1864V75.1764ZM100.749 130.957C94.3828 130.488 88.6341 125.323 84.091 120.387C84.5293 119.938 84.9678 119.47 85.4062 119.021C90.9655 113.337 96.6045 107.743 102.323 102.229C102.662 102.947 102.991 103.665 103.3 104.393C106.448 111.772 114.11 131.934 100.749 130.957Z" fill="white"/>
<path d="M23.3267 62.1536C40.9214 26.3362 83.5829 11.2794 118.613 28.51C119.161 28.7793 119.699 29.0784 120.237 29.3676L131.495 34.8818L131.316 35.2407C131.246 35.2009 131.176 35.161 131.106 35.1311C96.0666 17.8904 53.415 32.9573 35.8204 68.7747C19.4014 102.209 30.6396 141.895 60.7079 161.05L54.9095 158.208C19.8697 140.968 5.73211 97.9611 23.3267 62.1536Z" stroke="white" stroke-width="3.71" stroke-linecap="round" stroke-linejoin="round"/>
</g>
</svg>
