<svg viewBox="0 0 311 69" fill="none" xmlns="http://www.w3.org/2000/svg">
<g clip-path="url(#clip0_28_1065)">
<path d="M276.757 59.4714C195.919 59.4714 115.081 59.4714 34.2434 59.4714C27.5974 42.0572 20.9648 25.346 14.3652 9.52858C108.084 -2.21456 202.916 -2.21456 296.635 9.52858C290.035 25.346 283.403 42.0572 276.757 59.4714Z" fill="url(#paint0_linear_28_1065)"/>
<path d="M269.123 67.5543C268.759 67.344 267.374 66.5226 267.348 66.5029L267.222 66.4174C266.97 66.2531 266.705 66.0691 266.44 65.8786L266.228 65.734C265.227 64.9651 264.339 63.9991 264.691 62.7637C265.201 60.9434 266.659 60.766 267.361 60.6806C267.838 60.6214 268.182 60.582 268.593 60.2534C269.965 59.0377 276.849 46.69 278.208 43.792C278.44 43.3057 278.87 42.3134 279.414 41.0583C281.898 35.3477 287.073 23.4666 292.407 14.4243L299.232 2.85856C300.551 0.617705 302.982 -0.473152 305.149 0.203705L305.249 0.236562L306.189 0.683419C306.395 0.781991 307.727 1.5377 307.925 1.64942C308.171 1.79399 308.416 1.94513 308.654 2.10942L309.509 2.70742L309.589 2.7797C311.239 4.32399 311.464 6.96571 310.145 9.20656L303.32 20.7723C297.986 29.8146 290.075 40.1054 286.278 45.0537C285.443 46.138 284.787 46.9989 284.469 47.4326C282.594 50.0283 275.093 62.0146 274.689 63.8151C274.603 64.3146 274.742 64.6431 274.928 65.09C275.206 65.7603 275.789 67.1534 274.338 68.4611C273.066 69.6046 271.343 68.724 270.084 68.08C270.025 68.0471 269.958 68.0143 269.899 67.988L269.793 67.9354C269.793 67.9354 269.561 67.8237 269.263 67.6529L269.123 67.574V67.5543Z" fill="#123B68"/>
<path d="M302.035 20.01L308.86 8.44428C309.721 6.97885 309.807 5.00743 308.568 3.84428L307.806 3.312C307.455 3.06228 307.084 2.84543 306.693 2.66143L304.712 1.61C303.082 1.104 301.392 2.13571 300.531 3.60114L293.706 15.1669C287.186 26.2134 280.825 41.7286 279.566 44.4097C278.307 47.0909 271.158 60.1023 269.534 61.3969C267.911 62.6914 266.586 61.5546 266.135 63.1514C265.95 63.8086 267.301 64.6694 268.209 65.2806C268.209 65.2806 269.554 66.0823 269.892 66.2729C270.223 66.47 270.455 66.5817 270.455 66.5817C271.436 67.068 272.781 67.85 273.344 67.344C274.583 66.2269 272.88 65.5763 273.225 63.5391C273.569 61.4954 281.521 48.9506 283.257 46.552C284.999 44.1469 295.515 31.0566 302.035 20.01Z" fill="#C6D9E4"/>
<path d="M266.407 62.5863C266.294 62.7243 266.201 62.9017 266.128 63.1514C265.943 63.8086 267.295 64.6694 268.202 65.2806C268.202 65.2806 269.547 66.0823 269.885 66.2728C270.217 66.47 270.449 66.5817 270.449 66.5817C271.429 67.068 272.774 67.85 273.338 67.344C273.55 67.1534 273.669 66.9826 273.735 66.8117C270.462 65.5894 267.308 63.3749 266.407 62.5797V62.5863Z" fill="#7598AD"/>
<path d="M302.035 20.01L308.86 8.44427C309.721 6.97884 309.807 5.00741 308.568 3.84427L307.806 3.31198C307.992 4.42912 306.779 7.18255 303.453 12.9457C298.801 21.0088 290.85 34.4803 287.179 39.1066C283.509 43.7328 280.726 48.7731 278.042 53.4257C275.358 58.0783 273.086 62.0211 272.271 63.434C271.522 64.7286 273.159 66.5686 272.642 67.5083C272.927 67.5477 273.172 67.5148 273.344 67.3571C274.583 66.24 272.88 65.5894 273.225 63.5523C273.569 61.5086 281.521 48.9637 283.257 46.5651C284.999 44.16 295.515 31.0697 302.035 20.0231V20.01Z" fill="#7598AD"/>
<path d="M277.426 48.484C277.426 48.484 281.918 41.3014 283.972 36.4977C286.026 31.6874 289.605 23.9463 298.782 8.03685C302.28 1.96485 303.115 2.3 304.44 1.55085C302.89 1.22228 301.333 2.22114 300.518 3.60771L293.693 15.1734C287.173 26.22 280.812 41.7351 279.553 44.4163C279.222 45.126 278.433 46.6309 277.419 48.4906L277.426 48.484Z" fill="white"/>
<path d="M41.87 67.5543C42.2344 67.344 43.6192 66.5226 43.6458 66.5028L43.7716 66.4174C44.0234 66.2531 44.2885 66.0691 44.5535 65.8786L44.7656 65.734C45.7661 64.9651 46.654 63.9991 46.3028 62.7637C45.7926 60.9434 44.3349 60.766 43.6325 60.6806C43.1554 60.6214 42.8109 60.582 42.4001 60.2534C41.0285 59.0377 34.144 46.69 32.7857 43.792C32.5538 43.3057 32.1231 42.3134 31.5797 41.0583C29.095 35.3477 23.92 23.4666 18.5861 14.4243L11.7612 2.85199C10.4426 0.617701 8.01089 -0.473156 5.84417 0.197129L5.74478 0.229986L4.80388 0.676843C4.59847 0.775415 3.26664 1.53113 3.06786 1.64284C2.82269 1.78741 2.57753 1.93856 2.33899 2.10284L1.48423 2.70084L1.40472 2.77313C-0.238538 4.31741 -0.463824 6.95913 0.854759 9.19999L7.67958 20.7657C13.0136 29.808 20.925 40.0988 24.7218 45.0471C25.5567 46.1314 26.2126 46.9923 26.5307 47.426C28.4059 50.0217 35.9065 62.008 36.3107 63.8086C36.3969 64.308 36.2577 64.6366 36.0722 65.0834C35.7939 65.7537 35.2108 67.1468 36.6619 68.4546C37.9341 69.598 39.6569 68.7174 40.9158 68.0734C40.9755 68.0406 41.0417 68.0077 41.1013 67.9814L41.2074 67.9288C41.2074 67.9288 41.4393 67.8171 41.7375 67.6463L41.8766 67.5674L41.87 67.5543Z" fill="#123B68"/>
<path d="M8.96501 20.01L2.14019 8.45084C1.2788 6.98542 1.19266 5.01399 2.43173 3.85084L3.19373 3.31856C3.54491 3.06884 3.91597 2.85199 4.3069 2.66799L6.28809 1.61656C7.9181 1.11056 9.60774 2.14227 10.4691 3.6077L17.294 15.1734C23.814 26.22 30.175 41.7351 31.4339 44.4163C32.6929 47.0974 39.8424 60.1088 41.4658 61.4034C43.0891 62.698 44.4144 61.5611 44.8649 63.158C45.0505 63.8151 43.6987 64.676 42.791 65.2871C42.791 65.2871 41.4459 66.0888 41.108 66.2794C40.7767 66.4766 40.5447 66.5883 40.5447 66.5883C39.5641 67.0746 38.219 67.8566 37.6558 67.3506C36.4167 66.2334 38.1196 65.5828 37.7751 63.5457C37.4305 61.502 29.4792 48.9571 27.7432 46.5586C26.0006 44.1534 15.485 31.0631 8.96501 20.0166V20.01Z" fill="#C6D9E4"/>
<path d="M44.5933 62.5863C44.7059 62.7243 44.7987 62.9017 44.8716 63.1514C45.0571 63.8086 43.7054 64.6694 42.7976 65.2806C42.7976 65.2806 41.4526 66.0823 41.1146 66.2728C40.7833 66.47 40.5514 66.5817 40.5514 66.5817C39.5708 67.068 38.2257 67.85 37.6625 67.344C37.4504 67.1534 37.3312 66.9826 37.2649 66.8117C40.5382 65.5894 43.6922 63.3749 44.5933 62.5797V62.5863Z" fill="#7598AD"/>
<path d="M8.96501 20.01L2.14019 8.45086C1.2788 6.98543 1.19266 5.014 2.43173 3.85086L3.19373 3.31857C3.0082 4.43572 4.22077 7.18914 7.54704 12.9523C12.1985 21.0154 20.1498 34.4869 23.8206 39.1131C27.4914 43.7394 30.2744 48.7797 32.9579 53.4323C35.6415 58.0849 37.9142 62.0277 38.7292 63.4406C39.4779 64.7351 37.8413 66.5751 38.3581 67.5149C38.0732 67.5543 37.8281 67.5214 37.6558 67.3637C36.4167 66.2466 38.1196 65.596 37.7751 63.5589C37.4305 61.5151 29.4792 48.9703 27.7432 46.5717C26.0006 44.1666 15.485 31.0763 8.96501 20.0297V20.01Z" fill="#7598AD"/>
<path d="M33.5675 48.484C33.5675 48.484 29.0751 41.3014 27.021 36.4977C24.9669 31.6874 21.3889 23.9463 12.2118 8.03683C8.70663 1.96483 7.87174 2.29998 6.55316 1.54426C8.10366 1.21569 9.66078 2.21455 10.4758 3.60112L17.3006 15.1668C23.8206 26.2134 30.1816 41.7285 31.4406 44.4097C31.7719 45.1194 32.5604 46.6243 33.5742 48.484H33.5675Z" fill="white"/>
</g>
<defs>
<linearGradient id="paint0_linear_28_1065" x1="14.3652" y1="30.0972" x2="296.635" y2="30.0972" gradientUnits="userSpaceOnUse">
<stop stop-color="#1A5698"/>
<stop offset="1" stop-color="#184E8A"/>
</linearGradient>
<clipPath id="clip0_28_1065">
<rect width="311" height="69" fill="white"/>
</clipPath>
</defs>
</svg>
