<svg width="100%" height="auto" viewBox="0 0 768 449" fill="none" xmlns="http://www.w3.org/2000/svg">
<mask id="mask0_19_473" style="mask-type:alpha" maskUnits="userSpaceOnUse" x="-130" y="0" width="1028" height="449">
<path fill-rule="evenodd" clip-rule="evenodd" d="M898 0H-130V349L384 449L898 349V0Z" fill="url(#paint0_linear_19_473)"/>
</mask>
<g mask="url(#mask0_19_473)">
<path d="M332.947 455.386C335.264 466.594 341.061 488.575 352.794 531.561C363.045 569.1 374.623 611.513 375.548 622.032C370.865 628.652 353.007 655.786 349.568 671.401C349.552 671.483 349.536 671.573 349.527 671.655C346.498 698.387 345.876 715.715 345.753 722.228C340.832 721.581 329.746 720.434 313.084 720.434C302.939 720.434 292.278 720.868 281.356 721.728C277.95 681.363 283.174 629.848 296.487 572.516C305.829 532.323 319.233 489.32 332.931 455.378M334.241 445.703C309.407 504.083 270.302 631.077 279.088 724.415C292.139 723.317 303.52 722.932 313.075 722.932C335.821 722.932 348.201 725.12 348.201 725.12C348.201 725.12 348.054 706.654 351.992 671.942C355.234 657.228 372.83 629.963 378.078 622.761C377.415 604.156 331.441 452.273 334.233 445.703H334.241Z" fill="#123B68"/>
<path d="M626.652 742.349C610.006 741.464 456.477 733.206 435.23 728.077C435.18 728.069 435.14 728.061 435.09 728.053C402.839 724.03 388.371 677.25 379.733 649.297C377.35 641.58 375.287 634.911 373.363 630.725C372.331 627.136 343.142 525.679 338.974 495.743C334.806 465.75 334.192 452.961 334.11 449.611L431.684 423.353C435.402 427.949 458.417 456.656 464.034 469.994C464.051 470.027 464.059 470.059 464.075 470.084C470.544 482.496 472.533 498.094 469.831 515.192C467.67 528.833 462.421 543.555 455.437 555.59C455.306 555.811 455.249 556.074 455.273 556.336C455.478 558.507 456.01 562.964 456.739 569.133C459.523 592.654 465.32 641.604 463.453 652.984C463.42 653.164 463.437 653.353 463.486 653.525C464.116 655.778 466.761 660.546 472.238 662.463L472.828 662.659C479.501 664.896 481.081 665.429 482.555 665.429C483.087 665.429 483.554 665.355 484.094 665.265C485.118 665.101 486.657 664.847 490.17 664.847C491.316 664.847 492.61 664.871 494.01 664.929C515.814 665.764 613.199 699.739 622.755 703.082L626.66 742.349H626.652Z" fill="white"/>
<path d="M431.225 424.762C436.146 430.874 457.549 457.795 462.879 470.477C462.904 470.543 462.936 470.6 462.969 470.666C469.315 482.84 471.263 498.168 468.594 515.004C466.457 528.497 461.266 543.072 454.347 554.976C454.085 555.426 453.971 555.951 454.02 556.467C454.225 558.654 454.757 563.111 455.486 569.288C458.261 592.752 464.042 641.588 462.208 652.795C462.15 653.156 462.167 653.525 462.265 653.877C462.347 654.172 464.361 661.045 471.837 663.659L472.41 663.855C479.402 666.199 480.86 666.69 482.53 666.69C483.16 666.69 483.701 666.6 484.274 666.51C485.256 666.346 486.738 666.108 490.153 666.108C491.283 666.108 492.56 666.133 493.944 666.19C515.101 667.001 608.573 699.469 621.575 704.016L625.259 741.046C602.702 739.842 456.141 731.862 435.507 726.881C435.417 726.857 435.327 726.84 435.229 726.832C421.506 725.12 409.945 715.559 399.866 697.609C391.146 682.076 385.472 663.708 380.903 648.945C378.52 641.244 376.457 634.575 374.517 630.307C373.108 625.408 344.32 525.228 340.193 495.587C336.361 468.028 335.543 455.034 335.371 450.577L431.209 424.787M432.126 421.96L332.833 448.677C332.833 448.677 332.693 459.761 337.729 495.932C342.003 526.695 372.175 631.175 372.175 631.175C381.091 650.469 392.939 724.071 434.918 729.306C457.647 734.795 628.019 743.692 628.019 743.692L623.892 702.189C623.892 702.189 517.312 664.593 494.034 663.7C492.527 663.642 491.242 663.618 490.145 663.618C484.749 663.618 483.832 664.2 482.522 664.2C481.212 664.2 479.525 663.618 472.614 661.299C466.883 659.292 464.926 654.164 464.656 653.205C467.022 638.778 457.524 567.076 456.493 556.237C468.995 534.715 479.902 497.783 465.164 469.519C458.941 454.731 432.126 421.944 432.126 421.944V421.96Z" fill="#123B68"/>
<path d="M393.201 432.414C393.201 432.414 413.073 573.36 428.605 642.833C444.146 712.307 465.663 708.423 492.904 711.209" stroke="#C9D1DC" stroke-width="3.03" stroke-linejoin="round"/>
<path d="M388.076 147.582C387.281 144.321 385.284 141.175 382.221 139.635C378.218 137.611 373.706 139.75 369.637 138.103C369.506 138.046 369.391 138.062 369.293 138.103C369.064 138.062 368.818 138.152 368.736 138.439C366.337 147.066 363.938 155.725 362.759 164.614C361.998 170.374 361.498 178.796 369.391 179.295C375.999 179.713 381.665 173.692 384.498 168.342C387.65 162.378 389.689 154.259 388.068 147.582H388.076Z" fill="#2874C5"/>
<path d="M467.121 131.877C459.826 106.643 424.111 109.421 404.796 110.256C383.205 113.353 375.516 133.269 371.267 152.874C369.908 159.15 368.901 165.393 367.902 171.045C366.354 182.31 364.561 191.756 373.06 201.096C381.289 210.132 415.98 210.296 427.484 207.601C429.621 207.937 442.05 200.047 444.163 195.828C449.673 184.842 453.521 171.594 458.418 160.297C462.553 150.744 470.29 142.044 467.121 131.868V131.877Z" fill="#F6D7B9" stroke="#013B83" stroke-width="2.41" stroke-miterlimit="10"/>
<path d="M551.546 289.887C547.903 290.256 544.308 291.583 541.131 293.435C538.233 295.131 535.662 297.244 533.672 299.497C533.197 300.038 532.714 300.571 532.239 301.111C522.07 312.532 512.949 321.912 507.782 330.187C506.472 332.284 505.424 334.316 504.655 336.29C504.638 336.348 504.606 336.421 504.581 336.479C503.607 339.068 502.534 341.845 502.174 344.614C501.977 346.261 502.452 347.891 504.344 348.506C506.554 349.235 509.256 348.358 511.279 347.473C511.508 347.383 511.713 347.285 511.926 347.187C513.833 346.302 516.658 344.352 519.008 342.566C520.154 341.698 521.178 340.87 521.931 340.239C529.194 334.005 535.498 327.418 541.68 320.29C543.53 318.152 544.275 314.686 546.412 312.769C547.346 311.934 548.345 311.115 549.327 310.287C553.02 307.174 556.688 303.905 557.654 299.088C558.432 295.155 557.007 289.33 551.546 289.896V289.887Z" fill="#123B68" stroke="#123B68" stroke-width="2.25" stroke-miterlimit="10"/>
<path d="M541 358.001C544.75 353.02 548.23 347.703 552.455 343.107C548.393 335.053 544.365 326.984 540.468 318.857C537.643 312.983 534.884 307.067 532.231 301.103C522.062 312.524 512.94 321.904 507.774 330.179C506.464 332.276 505.416 334.308 504.646 336.282C504.63 336.34 504.597 336.413 504.572 336.471C506.685 340.207 508.912 343.877 511.27 347.465C516.813 355.977 523.011 364.055 529.799 371.642C532.796 366.652 537.856 362.163 540.992 358.001H541Z" fill="#F6D7B9"/>
<path d="M334.56 447.013C333.52 443.45 330.359 432.283 328.845 423.263C326.012 406.386 325.889 388.838 325.774 371.871C325.651 353.544 325.52 334.594 321.983 316.358C321.967 316.259 321.934 316.161 321.885 316.071C321.754 315.792 321.631 315.514 321.5 315.243L321.23 314.645C321.197 314.572 321.156 314.506 321.115 314.449C311.568 300.997 309.833 278.942 309.89 275.157C309.947 270.995 310.103 266.547 310.807 262.295C311.085 260.558 311.446 258.968 311.904 257.412C312.395 255.741 313.05 254.028 313.853 252.316C317.742 243.968 324.538 236.685 330.024 231.269C338.22 223.191 346.858 217.71 355.717 214.991C358.018 214.286 360.515 213.909 362.93 213.54C366.337 213.032 369.857 212.5 373.108 211.042C376.94 209.313 380.149 206.626 383.252 204.029C384.464 203.013 385.709 201.972 386.962 201.014C395.534 194.452 403.051 193.78 413.449 192.846L413.899 192.805C414.997 193.821 417.486 197.024 417.518 197.983C415.578 203.111 413.646 208.248 411.705 213.377L410.338 217.014C410.19 217.407 410.248 217.858 410.501 218.194C410.739 218.513 411.107 218.702 411.5 218.702C411.525 218.702 411.558 218.702 411.582 218.702C411.582 218.702 412.393 218.636 412.565 218.628C418.092 218.284 423.708 218.112 429.251 218.112C440.28 218.112 451.399 218.8 462.306 220.144C462.355 220.144 462.404 220.152 462.461 220.152C462.731 220.152 463.002 220.062 463.214 219.898C463.288 219.841 463.37 219.8 463.452 219.767C463.763 219.66 464.205 219.611 464.819 219.611C465.229 219.611 465.646 219.636 466.047 219.652C466.399 219.668 466.743 219.685 467.055 219.693C468.602 219.709 470.182 219.8 471.762 219.955C474.432 220.209 477.101 220.652 479.705 221.258C481.588 221.7 483.618 222.044 485.764 222.413C490.562 223.232 495.515 224.084 499.2 226.051C510.09 231.859 516.722 240.24 521.569 246.352C523.223 248.441 524.656 250.243 525.949 251.538C531.411 257.002 537.854 260.869 546.239 263.72C547.712 264.22 549.186 264.695 550.668 265.178C556.089 266.932 561.689 268.734 566.667 271.659C564.866 281.703 558.176 290.043 545.649 297.859C545.592 297.9 545.534 297.941 545.485 297.982C529.806 311.893 514.298 329.474 502.827 346.318C494.459 340.042 486.198 329.597 479.533 321.167L478.165 319.438C475.791 316.448 474.145 313.515 472.843 311.041C472.63 310.639 472.221 310.385 471.771 310.377C471.762 310.377 471.746 310.377 471.738 310.377C471.304 310.377 470.895 310.606 470.665 310.983C467.071 316.988 462.969 322.854 459.006 328.524L458.49 329.261C449.058 342.754 440.968 355.133 437.562 369.929C435.638 378.286 431.266 398.628 429.898 407.771C428.801 415.111 427.95 421.059 427.647 423.173L334.552 447.013H334.56Z" fill="white"/>
<path d="M413.433 194.083C414.367 195.083 415.841 196.983 416.217 197.909C414.424 202.644 412.639 207.38 410.854 212.115L409.176 216.555C408.873 217.35 409.004 218.243 409.503 218.923C409.978 219.562 410.723 219.931 411.509 219.931C411.567 219.931 411.616 219.931 411.673 219.931C411.837 219.923 412.001 219.906 412.164 219.898C412.328 219.882 412.484 219.873 412.647 219.865C418.15 219.521 423.742 219.349 429.252 219.349C440.232 219.349 451.302 220.029 462.151 221.373C462.249 221.389 462.356 221.389 462.454 221.389C462.97 221.389 463.485 221.225 463.911 220.922C464.026 220.889 464.288 220.848 464.82 220.848C465.189 220.848 465.598 220.873 465.991 220.889C466.359 220.906 466.72 220.922 467.047 220.93C468.562 220.947 470.118 221.037 471.649 221.184C474.261 221.438 476.881 221.864 479.427 222.462C481.351 222.913 483.39 223.265 485.56 223.634C490.26 224.437 495.115 225.272 498.619 227.14C509.28 232.826 515.822 241.084 520.603 247.114C522.282 249.236 523.731 251.063 525.082 252.406C530.683 258.01 537.282 261.975 545.855 264.884C547.337 265.392 548.851 265.875 550.309 266.35C555.614 268.062 560.658 269.693 565.292 272.281C563.336 281.58 556.851 289.396 545.003 296.786C544.888 296.859 544.774 296.941 544.667 297.04C529.25 310.721 513.996 327.926 502.549 344.524C494.665 338.281 486.862 328.417 480.516 320.397L479.149 318.668C476.84 315.751 475.227 312.892 473.949 310.467C473.532 309.673 472.713 309.165 471.812 309.14C471.788 309.14 471.763 309.14 471.747 309.14C470.871 309.14 470.06 309.599 469.61 310.353C466.04 316.317 461.963 322.15 458.016 327.795L457.484 328.557C447.978 342.156 439.823 354.642 436.359 369.659C434.427 378.032 430.055 398.407 428.679 407.591C427.705 414.136 426.919 419.568 426.55 422.173L335.437 445.506C334.176 441.107 331.457 431.193 330.09 423.058C327.273 406.28 327.151 388.78 327.036 371.863C326.913 353.478 326.782 334.463 323.22 316.12C323.179 315.915 323.114 315.727 323.032 315.538C322.909 315.268 322.786 314.998 322.664 314.727L322.385 314.113C322.32 313.974 322.246 313.843 322.156 313.711C312.806 300.538 311.103 278.877 311.16 275.157C311.217 271.036 311.365 266.653 312.069 262.467C312.339 260.795 312.683 259.255 313.133 257.74C313.608 256.134 314.238 254.479 315.016 252.816C318.824 244.648 325.521 237.471 330.933 232.138C338.982 224.199 347.456 218.825 356.119 216.162C358.338 215.482 360.68 215.13 363.152 214.753C366.64 214.229 370.243 213.688 373.657 212.156C377.645 210.354 380.92 207.609 384.088 204.955C385.341 203.906 386.52 202.915 387.748 201.973C396.002 195.656 402.961 195.009 413.45 194.067M414.285 191.486C403.191 192.485 395.347 193.01 386.234 199.982C381.796 203.373 377.784 207.543 372.626 209.87C367.238 212.295 360.999 212.033 355.374 213.762C345.36 216.842 336.583 223.044 329.173 230.352C323.016 236.422 316.515 243.665 312.748 251.751C311.946 253.471 311.258 255.233 310.734 257.019C310.243 258.674 309.874 260.353 309.604 262.057C308.884 266.366 308.728 270.774 308.663 275.108C308.597 279.95 310.595 301.718 320.125 315.137C320.347 315.612 320.559 316.096 320.78 316.571C327.576 351.545 321.722 388.223 327.642 423.443C329.492 434.479 333.725 448.496 333.725 448.496L428.794 424.148C428.794 424.148 429.776 417.192 431.16 407.926C432.478 399.078 436.793 378.916 438.807 370.183C442.263 355.191 450.86 342.386 459.547 329.949C463.739 323.952 467.997 317.898 471.771 311.598C473.27 314.441 474.924 317.283 477.225 320.184C484.184 328.966 493.404 340.96 502.697 347.711C502.82 347.801 502.942 347.842 503.065 347.842C503.221 347.842 503.368 347.768 503.475 347.621C514.88 330.728 530.281 313.146 546.354 298.883C556.728 292.411 565.947 284.038 568.027 271.38C568.06 271.159 568.003 270.938 567.798 270.815C561.256 266.858 553.87 264.941 546.69 262.508C539.059 259.911 532.607 256.355 526.883 250.628C522.004 245.746 514.766 232.883 499.839 224.92C494.304 221.962 486.141 221.438 480.041 220.013C477.364 219.39 474.654 218.939 471.935 218.677C470.33 218.522 468.726 218.431 467.121 218.415C466.449 218.407 465.647 218.333 464.869 218.333C464.231 218.333 463.608 218.382 463.101 218.554C462.871 218.628 462.683 218.743 462.511 218.874C451.499 217.514 440.404 216.826 429.301 216.826C423.709 216.826 418.125 216.998 412.541 217.342C412.214 217.358 411.886 217.391 411.55 217.416C413.949 211.05 416.348 204.684 418.756 198.319C419.378 196.664 414.67 191.478 414.301 191.478L414.285 191.486Z" fill="#123B68"/>
<path d="M393.972 218.014C392.801 218.62 391.614 219.226 390.427 219.832C390.304 219.439 389.674 219.324 389.6 219.808C389.575 219.963 389.559 220.136 389.526 220.291C383.066 223.601 376.606 226.903 370.138 230.188C365.798 232.383 361.549 234.178 356.644 234.522C352.64 234.8 348.612 234.514 344.624 235.038C334.496 236.357 325.67 241.248 317.809 247.466C315.934 250.612 314.1 254.495 312.831 259.059C322.665 250.26 334.046 242.952 347.572 242.329C351.51 242.157 355.473 242.428 359.371 241.731C363.137 241.068 366.6 239.388 369.998 237.668C376.123 234.563 382.247 231.433 388.372 228.295C387.905 231.515 387.43 234.727 386.972 237.946C386.89 238.495 387.741 238.733 387.823 238.176C388.323 234.727 388.822 231.269 389.322 227.82C390.82 227.058 392.327 226.288 393.825 225.51C394.333 225.256 393.89 224.502 393.383 224.756C392.073 225.42 390.771 226.092 389.477 226.755C389.756 224.797 390.042 222.831 390.329 220.881C391.688 220.176 393.047 219.488 394.414 218.792C394.914 218.53 394.48 217.776 393.964 218.03L393.972 218.014Z" fill="#B4E2FA"/>
<path d="M425.888 199.703C425.749 199.286 425.594 198.876 425.413 198.466C425.192 197.95 424.939 197.393 424.644 196.844C424.054 195.009 422.834 193.469 420.673 192.486C412.862 188.914 403.945 194.984 398.345 199.99C394.496 203.415 391.18 207.38 388.233 211.599C385.875 214.974 383.754 218.522 381.773 222.094C376.868 230.958 372.807 240.347 370.203 250.153C368.304 257.33 366.371 265.801 367.337 273.47C367.485 274.666 367.706 275.837 368.001 276.984C369.982 284.513 376.565 288.192 384.098 286.594C392.31 284.849 398.787 278.369 403.552 271.815C408.645 264.802 412.812 256.929 416.636 249.113C417.152 248.04 417.668 246.967 418.192 245.893C423.047 235.775 426.928 224.978 427.419 213.672C427.616 209.1 427.46 204.086 425.888 199.695V199.703Z" fill="#123B68" stroke="#123B68" stroke-width="2.25" stroke-miterlimit="10"/>
<path d="M816.798 1.43382C813.244 -6.47205 811.337 -8.21707 801.085 -14.2304C797.172 -16.5244 792.758 -17.8024 788.837 -15.5331C786.102 -13.9437 783.744 -11.8874 780.1 -8.90525C773.255 -3.27693 698.926 64.7627 634.226 124.331C594.401 161.001 558.227 194.468 543.67 208.183C540.787 206.003 536.579 206.478 533.828 209.092C529.128 213.573 535.58 218.661 538.667 221.651C541.623 224.51 546.756 229.311 550.85 225.362C553.257 223.044 553.012 220.004 551.538 217.538C563.075 208.043 604.374 176.813 651.101 141.667C725.25 85.8996 813.031 20.244 817.101 15.8282C820.843 11.7483 819.082 6.48047 816.814 1.43382H816.798Z" fill="#F37E4C" stroke="#123B68" stroke-width="2.71" stroke-miterlimit="10"/>
<path d="M562.32 168.129C518.359 184.342 468.455 179.615 425.199 200.006C420.352 202.128 415.685 204.807 410.936 207.413C403.632 209.575 395.633 210.272 388.231 211.591C376.4 229.828 366.296 251.202 367.336 273.461C382.025 266.498 395.305 256.724 410.69 251.169C420.401 247.581 430.464 245.008 440.551 242.715C449.312 240.716 458.384 238.684 465.663 233.244C484.085 225.191 538.387 201.514 553.1 193.157C549.833 189.684 562.246 170.996 562.311 168.121L562.32 168.129Z" fill="#F6D7B9" stroke="#123B68" stroke-width="2.41" stroke-miterlimit="10"/>
<path d="M577.091 265.785C577.599 272.961 578.213 280.155 578.655 287.364C579.269 297.507 580.055 307.657 580.727 317.808C581.382 328.04 582.258 338.42 581.775 348.645C581.324 357.804 578.95 364.596 575.437 373.042C573.644 377.327 571.614 381.505 569.477 385.634C568.093 388.289 566.66 391.918 563.139 392.508C559.668 393.082 555.41 390.607 552.463 389.084C548.721 387.158 545.208 384.848 541.925 382.292C535.162 377.049 529.398 372.715 524.215 366.079C521.701 362.859 518.524 359.361 516.829 355.682C515.536 352.856 516.837 350.546 519.171 348.776C525.41 344.008 533.549 340.927 541.507 339.191C541.139 332.989 541.016 326.779 541.237 320.585C541.548 312.155 542.473 303.741 544.25 295.508C546.092 286.963 549.048 278.721 550.964 270.201C551.382 268.333 551.742 266.457 552.045 264.572" fill="#F6D7B9"/>
<path d="M467.227 169.849C466.63 166.089 462.167 165.466 459.121 165.958C453.636 166.851 448.273 168.661 442.975 170.292C441.534 170.734 440.093 171.127 438.578 171.177C437.309 171.218 436.032 170.955 434.754 171.111C433.428 171.275 432.355 171.791 431.586 172.815C431.43 172.815 431.266 172.872 431.168 173.045C430.014 175.044 429.883 177.493 431.324 179.41C431.954 180.246 432.855 180.901 433.829 181.27C435.59 181.925 435.27 181.467 435.532 183.564C436.024 187.537 440.576 191.486 443.827 188.307C444.711 191.289 448.051 192.871 451.13 191.978C454.34 191.044 455.854 187.627 455.101 184.555C458.671 185.063 462.175 185.391 464.607 181.966C466.376 179.468 466.04 176.223 463.928 174.265C465.975 173.897 467.612 172.225 467.235 169.841L467.227 169.849Z" fill="#123B68"/>
<path d="M436.981 133.867C436.507 131.557 435.54 129.296 433.207 128.387C431.144 127.584 428.916 128.043 427.279 129.443C427.156 129.23 426.894 129.108 426.632 129.28C424.741 130.484 422.481 132.122 422.874 134.687C422.988 135.416 423.291 136.014 423.832 136.505C424.651 137.259 424.896 136.882 425.297 138.119C425.731 139.471 425.06 139.651 424.544 140.856C423.807 142.593 423.75 144.846 425.044 146.345C426.714 148.286 430.734 148.532 433.084 148.631C435.712 148.737 436.179 146.189 436.646 144.051C437.374 140.716 437.677 137.235 436.99 133.859L436.981 133.867Z" fill="#123B68"/>
<path d="M599.37 147.008C594.458 147.008 590.896 148.139 587.121 149.851C579.72 153.202 566.21 163.131 558.915 166.728C555.197 168.555 551.496 170.423 547.812 172.315C545.364 173.577 542.506 174.642 541.827 177.6C541.188 180.401 542.564 183.064 544.414 185.071C547.378 188.291 553.118 193.165 553.118 193.165C553.118 193.165 587.948 167.408 592.64 160.157C594.638 158.363 596.644 156.545 598.339 154.546C599.37 153.333 601.188 147.017 599.362 147.017L599.37 147.008Z" fill="#123B68"/>
<path d="M468.137 125.872C464.624 117.785 458.09 111.526 450.82 107.766C442.263 103.334 432.675 102.097 423.325 102.006C414.228 101.916 400.981 103.014 392.58 107.283C383.598 111.846 376.466 119.662 371.881 129.067C371.791 129.083 371.709 129.099 371.619 129.116C370.989 129.239 371.259 130.296 371.881 130.181C387.389 127.24 402.143 125.101 417.119 126.715C420.23 127.543 423.669 128.362 426.125 130.205C429.458 132.721 430.113 137.104 429.908 141.02C429.761 143.887 429.343 146.746 429.04 149.606C428.36 152.768 427.82 155.717 427.632 157.905C427.075 164.156 427.411 171.627 431.636 176.387C435.934 181.229 443.058 181.663 448.584 179.607C454.725 177.321 463.904 172.447 466.778 166.122C470.192 158.601 471.559 150.376 471.346 142.068C471.551 136.628 470.356 131.033 468.129 125.888L468.137 125.872Z" fill="#2874C5"/>
<path d="M378.586 134.646C396.558 119.276 423.815 130.607 427.074 130.893C425.093 128.968 414.637 122.553 407.997 119.817C400.005 116.524 391.989 113.533 383.417 112.354C375.761 111.297 366.665 111.133 359.59 114.885C353.531 118.097 351.288 123.02 352.901 128.804C355.677 138.742 369.784 147.115 372.142 147.746C373.837 143.15 374.779 137.914 378.586 134.654V134.646Z" fill="#123B68"/>
<path d="M394.495 180.655C390.557 180.926 386.807 177.681 384.457 174.765C384.129 174.355 384.424 173.741 384.956 173.741C390.573 173.7 396.165 173.249 401.7 172.389C402.208 172.307 402.593 172.84 402.363 173.298C400.562 176.961 397.508 180.451 394.495 180.655Z" fill="#DC685F"/>
<path d="M458.852 153.948C457.886 149.769 451.294 150.449 447.07 153.063C444.941 154.374 442.271 156.004 441.354 158.085C440.609 159.773 440.413 161.985 441.911 163.328C443.59 164.844 446.308 164.401 448.298 163.91C452.408 162.886 460.014 158.945 458.86 153.948H458.852Z" fill="#B4E2FA"/>
<path d="M613.642 170.857C612.872 167.17 611.243 163.549 609.687 160.133C608.115 156.676 606.42 152.997 604.144 149.949C602.801 148.155 601.008 146.705 598.65 147.107C595.514 147.639 592.206 149.982 589.513 151.572C583.593 155.07 578.099 159.314 573.211 164.155C567.471 169.841 562.575 176.354 558.735 183.457C558.432 184.023 559.291 184.522 559.594 183.957C560.266 182.712 560.978 181.499 561.715 180.295C561.789 180.369 561.887 180.426 562.01 180.442C563.942 180.672 565.907 180.811 567.7 180.131C567.831 180.205 567.987 180.221 568.159 180.115C572.899 177.026 577.73 181.024 579.9 185.178C580.825 186.947 582.61 189.618 580.686 191.117C579.916 191.715 578.877 192.256 578.451 193.19C577.583 195.074 579.294 196.32 580.932 196.754C583.609 197.458 587.179 197.475 589.488 195.771C591.33 194.411 592.141 192.617 592.337 190.626C594.671 190.847 597.045 190.667 598.576 188.594C599.452 187.414 599.895 185.956 600.083 184.449C601.843 185.505 604.087 185.784 605.864 184.539C607.337 183.506 607.902 181.901 608.041 180.172C609.548 180.303 611.038 179.754 612.16 178.542C614.068 176.477 614.174 173.47 613.634 170.865L613.642 170.857Z" fill="#123B68"/>
<path d="M580.317 182.45C579.769 179.771 578.573 177.321 575.896 176.092C573.571 175.027 570.615 175.256 568.126 175.101C564.818 174.896 561.494 174.601 558.178 174.486C555.074 174.38 550.137 175.33 550.407 179.484C550.457 180.287 550.784 180.95 551.243 181.507C548.36 181.671 546.084 183.22 546.928 186.865C547.124 187.709 547.468 188.348 547.943 188.873C547.378 188.873 546.821 188.946 546.289 189.094C544.676 189.544 543.415 191.232 542.948 192.797C542.449 194.476 542.907 195.689 543.751 196.721C540.672 196.754 537.381 197.827 537.651 201.415C537.544 203.087 537.97 204.766 537.987 206.47C537.987 206.708 538.208 206.978 538.47 206.962C538.674 206.929 538.879 206.904 539.084 206.896C539.157 206.888 539.239 206.872 539.313 206.864C539.673 206.806 543.006 207.781 543.669 208.215C543.841 208.084 545.151 207.756 545.306 207.593C548.41 209.067 552.045 210.747 552.045 210.747C552.045 210.747 547.812 224.06 548.975 228.836C550.915 236.799 555.582 241.313 557.105 242.108C558.038 243.96 560.757 229.352 561.879 230.532C563.827 232.58 566.415 231.646 568.895 231.531C573.055 231.327 572.269 237.954 576.346 237.135C576.592 237.086 582.635 188.348 580.326 182.45H580.317Z" fill="#123B68"/>
<path d="M592.591 189.97C590.913 184.399 588.735 179 586 173.856C583.92 169.939 581.636 165.311 577.149 163.82C576.543 163.615 576.281 164.581 576.887 164.778C581.529 166.327 583.912 171.881 585.959 175.928C588.276 180.516 590.143 185.309 591.633 190.224C591.822 190.839 592.78 190.577 592.591 189.962V189.97Z" fill="white"/>
<path d="M599.542 183.326C597.635 177.706 595.555 172.078 592.984 166.728C591.084 162.779 588.702 158.24 583.92 157.61C583.29 157.528 583.29 158.519 583.92 158.609C589.046 159.281 591.445 165.581 593.254 169.718C595.244 174.257 596.988 178.91 598.584 183.597C598.789 184.203 599.747 183.941 599.542 183.334V183.326Z" fill="white"/>
<path d="M608.016 177.641C606.485 172.414 604.897 167.154 602.44 162.271C600.361 158.134 597.519 153.415 593.139 151.432C592.558 151.17 592.05 152.03 592.639 152.293C597.11 154.316 599.91 159.281 601.957 163.541C604.168 168.129 605.633 173.036 607.058 177.911C607.238 178.525 608.196 178.263 608.016 177.649V177.641Z" fill="white"/>
<path d="M551.226 216.252C549.335 212.574 546.085 208.199 542.089 206.667C538.593 205.323 534.196 206.388 532.771 210.157C531.977 212.254 532.28 214.327 533.115 216.252C534.401 219.636 537.25 222.708 539.886 224.838C542.883 227.263 547.165 229.18 550.629 226.493C553.953 223.921 552.889 219.472 551.226 216.244V216.252Z" fill="#F37E4C" stroke="#123B68" stroke-width="2.71" stroke-miterlimit="10"/>
<path d="M335.699 312.188C335.142 312.188 334.675 311.786 334.569 311.205C334.454 310.582 334.774 309.992 335.347 309.763C347.637 304.888 359.689 299.047 371.185 292.394C371.373 292.28 371.594 292.222 371.807 292.222C372.356 292.222 372.847 292.616 372.994 293.165C373.142 293.705 372.921 294.246 372.429 294.525C360.844 301.226 348.644 307.133 336.157 312.081C336.01 312.139 335.855 312.171 335.707 312.171L335.699 312.188Z" fill="#123B68"/>
<path d="M562.321 168.129C545.675 173.847 531.911 176.862 514.177 179.607C514.136 179.648 514.103 179.697 514.078 179.738C514.021 179.787 513.972 179.828 513.923 179.885C513.841 179.967 513.816 180.041 513.792 180.131C507.741 188.586 505.522 199.556 508.159 209.69C508.437 210.763 508.748 212.992 509.927 213.68H509.935C528.841 205.168 546.911 196.795 553.101 193.157C549.834 189.684 562.247 170.996 562.313 168.121L562.321 168.129Z" fill="#123B68"/>
<path d="M572.907 174.732C567.389 174.028 561.24 174.2 555.729 174.896C552.299 175.33 549.458 177.591 550.604 181.327C550.62 181.393 550.653 181.434 550.686 181.483C547.345 182.491 545.83 185.44 547.296 188.905C543.685 189.274 541.221 193.092 542.76 196.533C539.067 197.213 536.685 199.04 537.536 202.907C537.675 203.529 538.633 203.267 538.494 202.644C536.431 193.223 560.814 198.933 564.908 199.81C565.53 199.941 565.8 198.982 565.17 198.851C562.198 198.22 550.956 195.468 543.71 196.393C543.71 196.32 543.702 196.238 543.661 196.156C542.179 193.026 544.881 189.946 547.943 189.864C549.9 189.807 551.922 190.118 553.863 190.282C558.104 190.634 562.329 191.093 566.529 191.83C567.151 191.937 567.422 190.978 566.791 190.872C563.606 190.314 560.413 189.905 557.195 189.585C554.313 189.307 551.267 188.815 548.344 188.864C548.344 188.864 548.344 188.856 548.344 188.848C546.862 185.809 548.131 183.031 551.48 182.286C553.494 181.835 555.803 182.081 557.842 182.212C561.805 182.458 565.727 183.105 569.632 183.801C570.255 183.916 570.525 182.958 569.894 182.843C564.187 181.819 557.94 180.508 552.135 181.196C551.938 181.221 551.758 181.253 551.578 181.286C551.586 181.221 551.578 181.155 551.562 181.073C549.711 175.027 558.702 175.658 562.206 175.527C566.071 175.379 570.664 174.912 574.406 176.027C579.138 177.428 580.203 182.54 580.448 186.865C580.686 190.945 580.481 195.017 579.941 199.064C579.859 199.695 580.85 199.695 580.94 199.064C581.963 191.347 583.732 176.125 572.899 174.732H572.907Z" fill="white"/>
<path d="M577.665 223.445H554.927C553.732 237.307 554.247 250.964 552.045 264.556C556.147 265.703 560.552 266.137 564.441 266.358C568.682 266.596 572.916 266.399 577.091 265.785C576.092 251.62 575.528 237.496 577.665 223.454V223.445Z" fill="#123B68"/>
<path d="M572.203 251.571C572.129 253.152 572.637 258.256 571.237 259.206C570.483 259.722 567.921 259.329 566.938 259.337C565.661 259.354 564.392 259.354 563.114 259.337C560.298 259.288 557.424 259.231 554.624 258.903C553.838 258.813 552.937 258.772 552.233 258.387C551.111 257.773 550.595 255.757 550.669 254.479C550.743 253.201 551.234 251.817 551.496 250.563C551.684 249.662 551.709 247.827 552.233 247.081C553.428 245.369 555.762 245.82 557.522 245.836C562.484 245.869 567.438 245.91 572.399 245.942C572.342 247.819 572.285 249.703 572.195 251.579L572.203 251.571Z" fill="#123B68"/>
<path d="M536.618 173.61C532.459 174.454 527.825 174.863 523.813 176.264C521.324 177.133 520.464 179.23 519.637 181.548C516.902 189.209 515.527 197.278 515.396 205.397C515.387 206.036 516.378 206.036 516.395 205.397C516.395 205.381 516.395 205.364 516.395 205.348C519.784 204.275 523.174 203.185 526.425 201.743C528.537 200.809 531.141 200.031 531.485 197.475C532.017 193.518 532.041 189.618 532.999 185.694C533.957 181.753 535.382 177.968 537.175 174.339C537.372 173.938 537.052 173.52 536.61 173.61H536.618Z" fill="#123B68"/>
<path d="M535.972 176.805C533.335 180.115 531.968 184.039 531.444 188.209C531.092 190.995 531.362 193.772 531.133 196.541C530.961 198.556 529.659 198.548 527.907 199.163C526.548 199.638 525.188 200.129 523.837 200.629C522.486 201.129 521.135 201.637 519.793 202.161C519.195 202.39 518.597 202.628 518.008 202.866C517.066 203.243 516.55 203.914 515.977 202.964C514.937 201.235 515.723 197.254 515.92 195.304C516.485 189.749 518.081 184.416 521.029 179.648C521.365 179.099 520.505 178.599 520.169 179.148C516.1 185.735 514.561 193.428 514.7 201.104C514.716 201.981 514.397 203.98 515.437 204.521C516.305 204.971 517.476 204.152 518.278 203.832C522.74 202.063 527.26 200.416 531.812 198.884C532.017 198.819 532.181 198.63 532.181 198.401C532.009 191.183 531.96 183.449 536.692 177.51C537.085 177.01 536.389 176.305 535.988 176.805H535.972Z" fill="white"/>
<path d="M572.31 247.319C572.31 247.057 572.081 246.811 571.81 246.819C565.972 247.122 560.192 246.426 554.411 245.672C553.781 245.59 553.781 246.59 554.411 246.672C557.94 247.13 561.477 247.597 565.031 247.802C565.997 247.859 566.963 247.9 567.938 247.909C568.363 247.909 570.5 247.663 570.844 247.868C571.827 248.457 571.319 251.628 571.327 252.636C571.327 253.439 571.327 254.25 571.327 255.053C571.327 255.536 571.565 257.543 571.327 257.953C570.803 258.887 566.988 258.706 565.866 258.739C561.977 258.854 558.104 258.412 554.272 257.797C553.642 257.699 553.38 258.657 554.01 258.756C559.439 259.624 565.219 260.337 570.672 259.288C572.244 258.985 572.293 258.518 572.318 256.986C572.375 253.766 572.31 250.538 572.302 247.311L572.31 247.319Z" fill="white"/>
<path d="M816.798 1.43393C813.244 -6.47194 811.975 -8.98707 801.724 -15.0004C797.81 -17.2944 792.759 -17.8023 788.837 -15.533C786.102 -13.9436 783.744 -11.8873 780.1 -8.90515C773.255 -3.27683 698.926 64.7628 634.227 124.331C640.662 129.149 646.328 135.088 651.093 141.667C725.242 85.8997 813.023 20.2442 817.093 15.8283C820.834 11.7484 819.074 6.48057 816.806 1.43393H816.798Z" fill="url(#paint1_linear_19_473)" stroke="#123B68" stroke-width="2.71" stroke-miterlimit="10"/>
<path d="M465.671 281.056C465.393 281.293 465.106 281.539 464.828 281.785C448.272 296.065 434.206 313.163 423.177 332.071C408.873 356.6 399.858 384.012 396.091 412.138C395.952 413.203 395.813 414.26 395.698 415.333C395.649 415.693 395.6 416.054 395.567 416.414C397.95 415.693 400.324 414.956 402.707 414.219C402.756 413.858 402.814 413.498 402.855 413.129C404.533 401.102 407.161 389.207 410.78 377.598C418.763 352.012 431.626 327.959 448.772 307.346C454.282 300.726 460.226 294.475 466.572 288.667C466.842 288.413 467.12 288.159 467.399 287.913C466.793 285.636 466.22 283.35 465.671 281.064V281.056Z" fill="#B4E2FA"/>
<path d="M416.832 139.725C416.832 139.725 409.717 139.791 406.63 140.725C403.543 141.659 400.121 142.724 399.244 141.995C398.368 141.265 397.664 137.669 400.366 136.628C403.068 135.588 409.021 134.457 413.565 135.662C418.109 136.866 418.781 139.332 416.832 139.733V139.725Z" fill="#123B68"/>
<path d="M375.852 140.045C375.852 140.045 380.863 140.733 382.755 141.88C384.646 143.035 386.742 144.338 387.585 143.723C388.429 143.109 390.042 139.758 388.445 138.537C386.857 137.317 382.992 135.727 379.414 136.473C375.828 137.218 374.6 139.496 375.852 140.045Z" fill="#123B68"/>
<path d="M389.189 152.391C388.829 151.973 388.264 151.785 387.773 152.121C387.355 152.399 387.142 153.12 387.503 153.538C389.345 155.66 388.608 158.576 386.774 160.428C385.816 161.395 384.44 161.878 383.573 162.935C382.68 164.025 382.525 165.794 383.72 166.736C384.752 167.547 386.741 166.843 385.89 166.024C384.113 164.328 386.225 163.418 386.602 163.164C387.773 162.402 388.772 161.419 389.517 160.231C391.007 157.872 391.081 154.562 389.189 152.383V152.391Z" fill="#123B68"/>
<path d="M384.94 155.742C384.432 158.486 382.565 160.428 380.805 160.067C379.069 159.707 378.93 157.241 379.446 154.57C379.962 151.916 380.928 149.999 382.656 150.285C384.383 150.572 385.448 153.014 384.94 155.742Z" fill="#123B68"/>
<path d="M409.963 154.275C409.488 157.257 406.548 159.371 404.444 158.986C402.372 158.601 401.947 155.938 402.43 153.046C402.913 150.171 404.116 148.09 406.172 148.385C408.259 148.688 410.429 151.318 409.963 154.283V154.275Z" fill="#123B68"/>
<path d="M547.141 216.588C546.142 214.647 544.422 212.328 542.31 211.517C540.459 210.812 538.134 211.37 537.381 213.36C536.955 214.475 537.119 215.564 537.561 216.588C538.241 218.374 539.747 220.005 541.139 221.127C542.719 222.413 544.987 223.421 546.821 222.004C548.582 220.644 548.017 218.292 547.141 216.58V216.588Z" fill="#F6AB69"/>
<path d="M471.829 305.454C471.288 305.454 470.83 305.126 470.65 304.618C468.873 299.375 467.26 294.066 465.852 288.847C465.197 286.398 464.624 284.145 464.099 281.949C462.265 274.313 460.775 266.449 459.662 258.584C459.613 258.215 459.711 257.855 459.956 257.576C460.202 257.289 460.579 257.117 460.955 257.117C461.537 257.117 462.003 257.527 462.085 258.108C463.166 265.744 464.607 273.404 466.376 280.884C466.892 283.071 467.456 285.308 468.095 287.717C469.544 293.14 471.19 298.572 473 303.864C473.122 304.249 473.073 304.634 472.852 304.946C472.623 305.265 472.238 305.454 471.821 305.454H471.829Z" fill="#123B68"/>
<path d="M353.753 231.712C353.262 231.712 352.795 231.409 352.59 230.95C352.394 230.516 352.476 230.024 352.795 229.664C358.698 222.978 365.093 216.555 371.823 210.575C372.044 210.378 372.315 210.272 372.593 210.272C373.076 210.272 373.526 210.599 373.707 211.083C373.895 211.591 373.764 212.148 373.363 212.5C366.804 218.325 360.508 224.65 354.654 231.294C354.416 231.564 354.089 231.712 353.745 231.712H353.753Z" fill="#013B83"/>
<path d="M539.902 272.044C539.722 272.044 539.542 272.003 539.37 271.929C527.105 266.293 514.029 263.139 500.527 262.549C499.831 262.516 499.324 261.967 499.34 261.263C499.356 260.583 499.864 260.075 500.536 260.075C514.447 260.681 527.875 263.925 540.492 269.726C541.008 269.963 541.27 270.488 541.155 271.028C541.024 271.618 540.5 272.052 539.902 272.052V272.044Z" fill="#123B68"/>
<path d="M339.145 419.003C338.736 419.003 338.351 418.815 338.114 418.495C337.893 418.192 337.835 417.799 337.958 417.43C343.731 399.562 351.894 382.579 362.21 366.939C362.448 366.587 362.816 366.382 363.234 366.382C363.701 366.382 364.151 366.644 364.364 367.054C364.568 367.439 364.544 367.889 364.298 368.266C354.08 383.75 346.015 400.537 340.316 418.159C340.144 418.683 339.686 419.019 339.137 419.019L339.145 419.003Z" fill="#123B68"/>
<path d="M435.124 421.862C433.543 418.503 433.24 412.047 432.888 406.599C423.366 409.647 413.737 412.375 404.067 414.923C395.143 417.299 386.185 419.519 377.219 421.739C373.846 422.575 370.424 423.419 366.968 424.271C361.057 425.713 355.063 427.146 349.086 428.465C345.5 429.252 341.922 429.997 338.36 430.677C335.044 431.316 331.744 431.89 328.478 432.398C329.501 436.24 331.867 444.974 332.85 448.66C336.354 448.119 339.834 447.505 343.322 446.841C346.122 446.301 348.906 445.735 351.682 445.129C352.509 444.949 353.327 444.769 354.146 444.58C359.951 443.319 365.74 441.991 371.529 440.607C383.852 437.69 396.133 434.536 408.349 431.218C411.043 430.481 413.745 429.735 416.439 428.99C422.916 427.187 429.376 425.278 435.787 423.222C435.557 422.772 435.353 422.329 435.132 421.87L435.124 421.862Z" fill="#F37E4C" stroke="#123B68" stroke-width="2.71" stroke-linejoin="round"/>
<path d="M409.086 433.389C396.878 436.707 384.588 439.861 372.265 442.778C371.741 441.049 371.283 439.296 370.783 437.543C369.735 433.848 367.533 426.778 366.517 423.075C369.973 422.231 373.395 421.379 376.769 420.543C385.734 418.323 394.692 416.103 403.616 413.727C405.328 419.044 407.866 427.892 409.086 433.389Z" fill="#F6AB69" stroke="#123B68" stroke-width="2.71" stroke-miterlimit="10"/>
<path d="M354.769 446.424C353.942 446.612 353.123 446.792 352.304 446.973C349.529 447.579 346.745 448.144 343.945 448.685C342.553 444.818 340.105 437.6 339.073 433.627C338.614 432.16 338.164 430.686 337.738 429.219C341.3 428.539 344.886 427.794 348.464 427.007C350.028 432.414 352.976 441.082 354.769 446.424Z" fill="#F6AB69" stroke="#123B68" stroke-width="2.71" stroke-miterlimit="10"/>
<path d="M506.938 340.624C508.666 343.287 514.815 352.741 516.674 355.314C516.723 355.437 516.764 355.559 516.821 355.682C518.516 359.353 521.685 362.859 524.206 366.079C529.389 372.707 535.154 377.04 541.917 382.292C545.2 384.848 548.713 387.158 552.454 389.084C555.402 390.607 559.66 393.09 563.131 392.508C566.652 391.918 568.085 388.297 569.469 385.635C571.606 381.505 573.636 377.319 575.429 373.042C578.942 364.596 581.316 357.812 581.767 348.645C582.258 338.421 581.382 328.049 580.719 317.808C580.055 307.649 579.269 297.507 578.647 287.364C578.213 280.155 577.591 272.97 577.083 265.785C576.084 251.62 575.519 237.496 577.656 223.454H554.919C553.723 237.316 554.239 250.973 552.037 264.564C551.726 266.448 551.374 268.316 550.956 270.192C549.032 278.713 546.084 286.963 544.242 295.499C544.242 295.499 537.332 324.452 538.175 357.132" stroke="#123B68" stroke-width="2.41" stroke-linecap="round" stroke-linejoin="round"/>
<path d="M422.792 281.277L417.421 288.273C417.396 288.298 417.38 288.331 417.372 288.372C417.339 288.47 417.363 288.585 417.421 288.659C417.421 288.659 417.421 288.659 417.429 288.667C418.403 289.805 419.64 290.748 421.105 291.37C422.571 291.993 424.241 292.239 425.838 292.091C425.944 292.075 426.043 292.001 426.075 291.886C426.092 291.845 426.092 291.804 426.092 291.764C426.092 291.764 426.092 291.764 426.092 291.755L425.527 282.236C425.527 282.236 425.527 282.227 425.527 282.219C425.494 281.531 425.068 280.933 424.421 280.736C423.824 280.556 423.193 280.785 422.784 281.261M415.57 278.139C415.448 278.106 415.308 278.197 415.259 278.344C415.259 278.344 415.259 278.344 415.259 278.352C414.604 280.859 414.768 283.374 415.587 285.545C415.587 285.545 415.587 285.545 415.587 285.554C415.611 285.619 415.66 285.676 415.726 285.701C415.824 285.734 415.931 285.701 415.988 285.611L420.196 279.933C420.221 279.901 420.237 279.868 420.246 279.835C420.295 279.671 420.221 279.507 420.082 279.466L415.562 278.139H415.57ZM429.195 282.137C429.023 282.088 428.843 282.186 428.785 282.367C428.769 282.408 428.769 282.457 428.769 282.498L429.285 290.641C429.293 290.772 429.375 290.895 429.506 290.944C429.588 290.977 429.678 290.969 429.752 290.944C429.752 290.944 429.76 290.944 429.768 290.944C432.273 289.658 434.402 287.389 435.532 284.398C435.532 284.398 435.532 284.39 435.532 284.382C435.598 284.194 435.491 283.997 435.303 283.94L429.195 282.145V282.137ZM426.059 269.349C426.059 269.349 426.051 269.349 426.042 269.349C422.243 269.439 418.731 271.667 416.717 274.944C416.7 274.969 416.692 275.001 416.684 275.026C416.635 275.182 416.708 275.337 416.839 275.37L422.333 276.787H422.35C422.456 276.804 422.563 276.755 422.628 276.656L423.488 275.493C424.732 273.732 425.609 271.954 426.124 270.242L426.288 269.709C426.345 269.537 426.255 269.373 426.1 269.34C426.083 269.34 426.075 269.34 426.059 269.34M429.342 270.242L429.17 270.79C428.597 272.552 428.319 274.526 428.401 276.681L428.491 278.156C428.491 278.262 428.556 278.352 428.646 278.401C428.646 278.401 428.663 278.401 428.671 278.41C428.671 278.41 428.687 278.41 428.704 278.418L435.851 280.261C436.048 280.31 436.253 280.196 436.318 280.007C436.335 279.974 436.335 279.933 436.335 279.901C436.302 275.354 433.731 271.479 429.801 269.979C429.801 269.979 429.793 269.979 429.784 269.979C429.768 269.979 429.76 269.979 429.743 269.971C429.571 269.938 429.391 270.061 429.334 270.242" fill="url(#paint2_linear_19_473)"/>
<mask id="mask1_19_473" style="mask-type:luminance" maskUnits="userSpaceOnUse" x="414" y="269" width="23" height="24">
<path d="M422.792 281.277L417.421 288.273C417.396 288.298 417.38 288.331 417.372 288.372C417.339 288.47 417.364 288.585 417.421 288.659C417.421 288.659 417.421 288.659 417.429 288.667C418.404 289.805 419.64 290.748 421.105 291.37C422.571 291.993 424.241 292.239 425.838 292.091C425.944 292.075 426.043 292.001 426.075 291.886C426.092 291.845 426.092 291.804 426.092 291.764C426.092 291.764 426.092 291.764 426.092 291.755L425.527 282.236C425.527 282.236 425.527 282.227 425.527 282.219C425.494 281.531 425.068 280.933 424.422 280.736C423.824 280.556 423.193 280.785 422.784 281.261M415.571 278.139C415.448 278.106 415.309 278.197 415.259 278.344C415.259 278.344 415.259 278.344 415.259 278.352C414.604 280.859 414.768 283.374 415.587 285.545C415.587 285.545 415.587 285.545 415.587 285.554C415.611 285.619 415.661 285.676 415.726 285.701C415.824 285.734 415.931 285.701 415.988 285.611L420.197 279.933C420.221 279.901 420.238 279.868 420.246 279.835C420.295 279.671 420.221 279.507 420.082 279.466L415.562 278.139H415.571ZM429.195 282.137C429.023 282.088 428.843 282.186 428.786 282.367C428.769 282.408 428.769 282.457 428.769 282.498L429.285 290.641C429.293 290.772 429.375 290.895 429.506 290.944C429.588 290.977 429.678 290.969 429.752 290.944C429.752 290.944 429.76 290.944 429.768 290.944C432.274 289.658 434.402 287.389 435.532 284.398C435.532 284.398 435.532 284.39 435.532 284.382C435.598 284.194 435.491 283.997 435.303 283.94L429.195 282.145V282.137ZM426.059 269.349C426.059 269.349 426.051 269.349 426.043 269.349C422.244 269.439 418.731 271.667 416.717 274.944C416.7 274.969 416.692 275.001 416.684 275.026C416.635 275.182 416.709 275.337 416.84 275.37L422.334 276.787H422.35C422.456 276.804 422.563 276.755 422.628 276.656L423.488 275.493C424.733 273.732 425.609 271.954 426.125 270.242L426.288 269.709C426.346 269.537 426.256 269.373 426.1 269.34C426.084 269.34 426.075 269.34 426.059 269.34M429.342 270.242L429.17 270.79C428.597 272.552 428.319 274.526 428.401 276.681L428.491 278.156C428.491 278.262 428.556 278.352 428.646 278.401C428.646 278.401 428.663 278.401 428.671 278.41C428.671 278.41 428.687 278.41 428.704 278.418L435.852 280.261C436.048 280.31 436.253 280.196 436.318 280.007C436.335 279.974 436.335 279.933 436.335 279.901C436.302 275.354 433.731 271.479 429.801 269.979C429.801 269.979 429.793 269.979 429.785 269.979C429.768 269.979 429.76 269.979 429.744 269.971C429.572 269.938 429.392 270.061 429.334 270.242" fill="white"/>
</mask>
<g mask="url(#mask1_19_473)">
<path d="M439.912 271.724L431.61 295.786L412.557 287.79L418.239 268.021L439.912 271.724Z" fill="url(#paint3_linear_19_473)"/>
</g>
</g>
<defs>
<linearGradient id="paint0_linear_19_473" x1="384" y1="449" x2="384" y2="349" gradientUnits="userSpaceOnUse">
<stop stop-color="#FAE4B7"/>
<stop offset="0.31" stop-color="#F8DA9F"/>
<stop offset="0.82" stop-color="#F6CD7D"/>
</linearGradient>
<linearGradient id="paint1_linear_19_473" x1="726.74" y1="-16.9994" x2="726.74" y2="141.675" gradientUnits="userSpaceOnUse">
<stop stop-color="#FAE4B7"/>
<stop offset="0.43" stop-color="#F7C48B"/>
<stop offset="0.82" stop-color="#F6AB69"/>
</linearGradient>
<linearGradient id="paint2_linear_19_473" x1="414.858" y1="280.753" x2="436.351" y2="280.753" gradientUnits="userSpaceOnUse">
<stop stop-color="#004096"/>
<stop offset="1" stop-color="#009EE7"/>
</linearGradient>
<linearGradient id="paint3_linear_19_473" x1="428.456" y1="268.522" x2="422.177" y2="292.979" gradientUnits="userSpaceOnUse">
<stop stop-color="#004096"/>
<stop offset="1" stop-color="#009EE7"/>
</linearGradient>
</defs>
</svg>
