<?xml version="1.0" encoding="utf-8"?>
<!-- Generator: Adobe Illustrator 28.0.0, SVG Export Plug-In . SVG Version: 6.00 Build 0)  -->
<svg version="1.1" id="_內文" xmlns="http://www.w3.org/2000/svg" xmlns:xlink="http://www.w3.org/1999/xlink" x="0px" y="0px"
	 viewBox="0 0 360 400" style="enable-background:new 0 0 360 400;" xml:space="preserve">
<style type="text/css">
	.st0{fill:#6BC0C0;}
	.st1{fill:#123B68;}
	.st2{fill:#FFFFFF;stroke:#123B68;stroke-width:2.2;stroke-miterlimit:10;}
	.st3{fill:#2870B2;}
	.st4{fill:#F1F1F1;}
	.st5{fill:#B4E2FA;stroke:#123B68;stroke-width:2.2;stroke-linecap:round;stroke-linejoin:round;}
	.st6{fill:#E5F2F9;}
	.st7{fill:#FFFFFF;stroke:#123B68;stroke-width:2.2;stroke-linecap:round;stroke-linejoin:round;}
	.st8{fill:#434244;}
	.st9{fill-rule:evenodd;clip-rule:evenodd;fill:#FFFFFF;}
	.st10{fill:none;stroke:#FFFFFF;stroke-width:1.48;stroke-linecap:round;stroke-linejoin:round;}
	.st11{fill:#B4E2FA;}
	.st12{fill:#FFFFFF;}
	.st13{opacity:0.3;fill:#BDD5E6;enable-background:new    ;}
	.st14{fill:#FFD571;stroke:#123B68;stroke-width:3;stroke-linecap:round;stroke-linejoin:round;}
	.st15{enable-background:new    ;}
</style>
<g>
	<g>
		<g>
			<path class="st0" d="M88.8,31.3h155.2c3.8,0,6.8,3,6.8,6.8v101.7c0,3.8-3.1,6.8-6.8,6.8H88.8c-3.8,0-6.8-3.1-6.8-6.8V38.1
				C82,34.3,85.1,31.3,88.8,31.3z"/>
			<path class="st1" d="M244.1,32.4c3.1,0,5.7,2.6,5.7,5.7v101.7c0,3.1-2.6,5.7-5.7,5.7H88.8c-3.1,0-5.7-2.6-5.7-5.7V38.1
				c0-3.1,2.6-5.7,5.7-5.7L244.1,32.4 M244,30.2H88.8c-4.4,0-7.9,3.5-7.9,7.9v101.7c0,4.4,3.5,7.9,7.9,7.9H244
				c4.4,0,7.9-3.5,7.9-7.9V38.1C251.9,33.7,248.4,30.2,244,30.2C244,30.2,244,30.2,244,30.2z"/>
		</g>
		<path class="st2" d="M220.1,48H99.7c-3.2,0-5.8,2.6-5.8,5.8v72.7c0,3.2,2.6,5.8,5.8,5.8h133.5c3.2,0,5.8-2.6,5.8-5.8V53.8
			c0-3.2-2.6-5.8-5.8-5.8H220.1L220.1,48z"/>
		<g>
			<g>
				<path class="st3" d="M75.1,160.4c-4.6,0-8.3-3.7-8.3-8.3v-4.4c0-0.6,0.5-1.1,1.1-1.1h197c0.6,0,1.1,0.5,1.1,1.1v4.4
					c0,4.6-3.7,8.3-8.3,8.3H75.1z"/>
				<path class="st1" d="M264.9,147.7v4.4c0,4-3.2,7.2-7.2,7.2H75.1c-4,0-7.2-3.2-7.2-7.2v-4.4H264.9 M264.9,145.5h-197
					c-1.2,0-2.2,1-2.2,2.2v4.4c0,5.2,4.2,9.4,9.4,9.4h182.6c5.2,0,9.4-4.2,9.4-9.4v-4.4C267.1,146.5,266.1,145.5,264.9,145.5
					L264.9,145.5z"/>
			</g>
			<g>
				<path class="st4" d="M151.9,147.7h29v1.7c0,0.8-0.6,1.4-1.4,1.4h-26.1c-0.8,0-1.4-0.6-1.4-1.4V147.7L151.9,147.7z"/>
				<path class="st5" d="M179.5,153.4h-26.1c-2.2,0-3.9-1.8-3.9-3.9v-1.7c0-1.4,1.1-2.5,2.5-2.5h29c1.4,0,2.5,1.1,2.5,2.5v1.7
					C183.4,151.6,181.7,153.4,179.5,153.4L179.5,153.4z"/>
			</g>
		</g>
		<circle class="st1" cx="166.4" cy="38.5" r="3.2"/>
		<path class="st6" d="M110.8,61.8h46.5c0.9,0,1.6,0.7,1.6,1.6v56.2c0,0.9-0.7,1.6-1.6,1.6h-46.5c-0.9,0-1.6-0.7-1.6-1.6V63.3
			C109.2,62.5,109.9,61.8,110.8,61.8z"/>
		<path class="st6" d="M169.8,61.8h48.4c0.4,0,0.8,0.4,0.8,0.8v6.1c0,0.4-0.4,0.8-0.8,0.8h-48.4c-0.4,0-0.8-0.4-0.8-0.8v-6.1
			C169,62.1,169.3,61.8,169.8,61.8z"/>
		<path class="st6" d="M169.8,79h42c0.4,0,0.8,0.4,0.8,0.8v6.1c0,0.4-0.4,0.8-0.8,0.8h-42c-0.4,0-0.8-0.4-0.8-0.8v-6.1
			C169,79.3,169.3,79,169.8,79z"/>
		<path class="st6" d="M169.8,96.2h48.4c0.4,0,0.8,0.4,0.8,0.8v6.1c0,0.4-0.4,0.8-0.8,0.8h-48.4c-0.4,0-0.8-0.4-0.8-0.8V97
			C169,96.5,169.3,96.2,169.8,96.2z"/>
	</g>
	<g>
		<path class="st7" d="M240.9,42.5l57.2,10.8c3.1,0.6,5.1,3.5,4.5,6.6l-20.5,108.5c-0.6,3.1-3.5,5.1-6.6,4.5l-57.2-10.8
			c-3.1-0.6-5.1-3.5-4.5-6.6L234.3,47C234.8,44,237.8,42,240.9,42.5z"/>
		<g>
			<path class="st4" d="M232.7,55.2L301,68.1l-19,100.7c-0.5,2.9-3.3,4.8-6.2,4.2L217.9,162c-2.9-0.5-4.8-3.3-4.2-6.2L232.7,55.2
				L232.7,55.2z"/>
			<path class="st8" d="M233.9,56.9l-18.7,99.2c-0.4,2.1,1,4.1,3,4.4l57.8,10.9c2.1,0.4,4-1,4.4-3l18.7-99.2L233.9,56.9L233.9,56.9z
				"/>
		</g>
		<path class="st5" d="M296,66.1l-63.1-11.9l-9.3,49.2l-2.7,14.2l-7.3,38.8c-0.5,2.6,1.2,5,3.8,5.5l59,11.1c2.6,0.5,5-1.2,5.5-3.8
			l19.3-102.2L296,66.1L296,66.1z"/>
		<g>
			<path class="st1" d="M257.4,51.9c0.2-1.3,1.5-2.2,2.9-2s2.2,1.5,2,2.8s-1.5,2.2-2.9,2S257.2,53.3,257.4,51.9z"/>
			<path class="st1" d="M278,56.8l-13.3-2.5c-0.5-0.1-0.9-0.6-0.8-1.2l0,0c0.1-0.5,0.6-0.9,1.2-0.8l13.3,2.5
				c0.5,0.1,0.9,0.6,0.8,1.2l0,0C279.1,56.6,278.6,57,278,56.8z"/>
		</g>
		<circle class="st1" cx="248.7" cy="157.9" r="4"/>
		<g>
			<g>
				<path class="st9" d="M256,125.8L256,125.8c-2.1-0.3-3.4-2.2-2.9-4.2l3.7-16.6c0.5-2.1,2.5-3.5,4.6-3.2l0,0
					c2.1,0.3,3.4,2.2,2.9,4.2l-3.7,16.6C260.1,124.7,258.1,126.1,256,125.8L256,125.8z"/>
				<line class="st10" x1="262.5" y1="96.1" x2="254.6" y2="131.5"/>
			</g>
			<g>
				<path class="st9" d="M241.7,112.4L241.7,112.4c-2.1-0.3-3.4-2.2-2.9-4.2l2.4-10.7c0.5-2.1,2.5-3.5,4.6-3.2l0,0
					c2.1,0.3,3.4,2.2,2.9,4.2l-2.4,10.7C245.9,111.3,243.8,112.7,241.7,112.4z"/>
				<line class="st10" x1="246.7" y1="89.9" x2="240.7" y2="116.8"/>
			</g>
			<g>
				<path class="st9" d="M274.3,114.8L274.3,114.8c-2.1-0.3-3.4-2.2-2.9-4.2l2.4-10.7c0.5-2.1,2.5-3.5,4.6-3.2l0,0
					c2.1,0.3,3.4,2.2,2.9,4.2l-2.4,10.7C278.5,113.7,276.4,115.1,274.3,114.8z"/>
				<line class="st10" x1="279.3" y1="92.3" x2="273.3" y2="119.2"/>
			</g>
		</g>
	</g>
</g>
<g>
	<g>
		<path class="st11" d="M186,398.1c-0.4,0-0.7,0-1-0.1c-0.1,0-0.1,0-0.1,0L46.8,360.9c-3.5-0.5-6.5-3-8.1-6.9l-4.7-9.2
			c-0.5-1.2-0.8-2.3-0.9-3.5L12.1,192.7c-0.6-4.1,0.6-8.3,3.1-11.1c1.9-2.2,4.4-3.4,7.1-3.4H340c4,0,7.5,2.7,9.2,7l3.8,9.3
			c1,2.4,1.3,5,0.9,7.6l-21.2,148.9c-0.8,5.5-4.5,9.7-9,10.3L187.2,398c-0.1,0-0.1,0-0.1,0C186.7,398.1,186.4,398.1,186,398.1
			L186,398.1z"/>
		<path class="st1" d="M340,179.3c3.5,0,6.6,2.4,8.2,6.3l3.8,9.3c0.9,2.2,1.2,4.6,0.8,7l-21.2,148.9c-0.7,5-4,8.9-8.1,9.4
			l-136.5,36.9c-0.3,0-0.6,0.1-0.9,0.1s-0.6,0-0.9-0.1L47,359.9c-3.1-0.4-5.9-2.7-7.3-6.2l-4.8-9.3c-0.4-1-0.7-2-0.8-3.1L13.2,192.6
			c-1-6.9,3.3-13.3,9-13.3L340,179.3 M340,177.1H22.2c-3,0-5.8,1.3-7.9,3.8c-2.7,3.1-3.9,7.6-3.3,12l20.9,148.6
			c0.2,1.3,0.5,2.5,1,3.6c0,0.1,0,0.1,0.1,0.2l4.7,9.2c1.7,4.1,5,6.9,8.9,7.5l138,37c0.1,0,0.2,0,0.3,0.1c0.4,0,0.8,0.1,1.2,0.1
			s0.8,0,1.2-0.1c0.1,0,0.2,0,0.3-0.1l136.4-36.8c5-0.7,9-5.3,9.9-11.2L355,202.1c0.4-2.8,0.1-5.6-1-8.1l-3.8-9.3
			C348.3,180,344.4,177,340,177.1L340,177.1L340,177.1z"/>
	</g>
	<g>
		<path class="st12" d="M178.4,381.7c-0.4,0-0.7,0-1-0.1c-0.1,0-0.1,0-0.1,0L41,344.8c-4.5-0.6-8.2-4.8-9-10.3L12.1,192.7
			c-0.6-4.1,0.6-8.3,3.1-11.1c1.9-2.2,4.4-3.4,7.1-3.4h312.5c2.6,0,5.2,1.2,7.1,3.4c2.5,2.9,3.6,7,3.1,11.1L325,334.5
			c-0.8,5.5-4.5,9.7-9,10.3l-136.4,36.8c0,0-0.1,0-0.1,0C179.1,381.7,178.7,381.7,178.4,381.7L178.4,381.7z"/>
		<path class="st1" d="M334.8,179.3c5.7,0,10,6.4,9,13.3l-19.9,141.8c-0.7,5-4,8.9-8.1,9.4l-136.5,36.9c-0.3,0-0.6,0.1-0.9,0.1
			s-0.6,0-0.9-0.1L41.2,343.7c-4.1-0.5-7.4-4.3-8.1-9.4L13.2,192.6c-1-6.9,3.3-13.3,9-13.3L334.8,179.3 M334.8,177.1H22.2
			c-3,0-5.8,1.3-7.9,3.8c-2.7,3.1-3.9,7.6-3.3,12l19.9,141.8c0.8,5.9,4.9,10.5,9.9,11.2l136.1,36.8c0.1,0,0.2,0,0.3,0.1
			c0.4,0,0.8,0.1,1.2,0.1s0.8,0,1.2-0.1c0.1,0,0.2,0,0.3-0.1l136.4-36.8c5-0.7,9-5.3,9.9-11.2L346,192.9c0.6-4.4-0.6-8.9-3.3-12
			C340.5,178.4,337.7,177.1,334.8,177.1L334.8,177.1L334.8,177.1z"/>
	</g>
	<g>
		<path class="st13" d="M59.2,191.3l-1.4,11l2.3,0.4l1-8.3c1.4,2.3,2.8,4.8,4.1,7.6l-2.6,12l2.2,0.7l2-9.2c1.2,2.8,2.4,5.8,3.5,9
			l-4.3,9.2l2,1.4l3.4-7.2c0.7,2.4,1.4,4.9,2.1,7.5l-4.9,9.1l1.9,1.6l3.9-7.1c0.6,2.9,1.2,5.9,1.7,9.1l-5.7,8.5l1.8,1.8l4.5-6.7
			c0.4,3.2,0.7,6.5,0.9,10l-6.5,7.2l1.5,2.1l5.1-5.7c0.1,2.5,0.2,5.1,0.2,7.8c0,0.4,0,0.8,0,1.3l-7.1,7.1l1.4,2.2l5.6-5.6
			c-0.1,3.7-0.4,7.3-0.8,10.8l-7.9,5.8l1.2,2.4l6.3-4.6c-0.4,3-1,5.8-1.6,8.6l-9.2,4.9l0.9,2.6l7.5-4c-0.7,2.9-1.5,5.6-2.3,8.2
			l-9.2,2.9l0.6,2.8l7.5-2.4c-1.2,3.4-2.4,6.5-3.7,9.5l-8.7,1.5l0.3,2.8l6.9-1.2c-1.4,2.9-2.8,5.7-4.2,8.2l-9.1-0.1v2.8l7.5,0.1
			c-4.1,6.9-8.1,12-10.8,15.1l6,0.7c2.3-3,5.1-6.7,7.9-11.3l0.9,9l2.3-0.3l-1.2-12c1.6-2.8,3.2-5.8,4.8-9.1l2.1,9.5l2.2-0.8
			l-2.7-12.2c1.2-2.7,2.3-5.5,3.3-8.4l2.6,8.2l2.1-1l-3.4-10.9c0.8-2.6,1.6-5.3,2.3-8.1l3.4,7.3l2-1.4l-4.5-9.6
			c0.8-3.4,1.4-6.9,2-10.5l4.8,7.6l1.8-1.7l-6.1-9.7c0.4-3.8,0.8-7.6,0.9-11.7l5.7,6.8l1.6-2l-7.2-8.6c0-0.5,0-1,0-1.5
			c0-2.9-0.1-5.6-0.2-8.3l6.2,6.7l1.5-2.1l-7.9-8.6c-0.2-3.6-0.6-6.9-1-10.2L88,246l1.2-2.4l-8.6-6.8c-0.5-3.4-1.1-6.6-1.7-9.6
			l7.2,4.5l1-2.5l-9.1-5.6c-0.7-2.8-1.4-5.5-2.2-8l7.6,4l0.9-2.6l-9.7-5.1c-1.1-3.1-2.2-5.9-3.4-8.6l7.2,1.2l0.3-2.8l-8.9-1.5
			c-1.7-3.6-3.4-6.8-5.2-9.7l8.1,0.3l0.1-2.8l-10-0.4c-2.1-3.2-4.2-5.9-6.2-8.1h-7.1C52.1,181.8,55.6,185.7,59.2,191.3L59.2,191.3z"
			/>
		<path class="st13" d="M297.8,191.3l1.4,11l-2.3,0.4l-1-8.3c-1.4,2.3-2.8,4.8-4.1,7.6l2.6,12l-2.2,0.7l-2-9.2
			c-1.2,2.8-2.4,5.8-3.5,9l4.3,9.2l-2,1.4l-3.4-7.2c-0.7,2.4-1.4,4.9-2.1,7.5l4.9,9.1l-1.9,1.6l-3.9-7.1c-0.6,2.9-1.2,5.9-1.6,9.1
			l5.7,8.5l-1.8,1.8l-4.5-6.7c-0.4,3.2-0.7,6.5-0.9,10l6.5,7.2l-1.5,2.1l-5.1-5.7c-0.1,2.5-0.2,5.1-0.2,7.8c0,0.4,0,0.8,0,1.3
			l7.1,7.1l-1.5,2.2l-5.6-5.6c0.1,3.7,0.4,7.3,0.9,10.8l7.9,5.8l-1.2,2.4l-6.3-4.6c0.4,3,1,5.8,1.6,8.6l9.2,4.9l-0.9,2.6l-7.5-4
			c0.7,2.9,1.5,5.6,2.3,8.2l9.2,2.9l-0.6,2.8l-7.5-2.4c1.2,3.4,2.4,6.5,3.7,9.5l8.7,1.5l-0.3,2.8l-6.9-1.2c1.4,2.9,2.8,5.7,4.2,8.2
			l9.1-0.1v2.8l-7.5,0.1c4.1,6.9,8.1,12,10.8,15.1l-6,0.7c-2.4-3-5.1-6.7-7.9-11.3l-0.9,9l-2.3-0.3l1.1-12c-1.6-2.8-3.2-5.8-4.8-9.1
			l-2.1,9.5l-2.2-0.8l2.7-12.2c-1.2-2.7-2.3-5.5-3.4-8.4l-2.6,8.2l-2.1-1l3.4-10.9c-0.8-2.6-1.6-5.3-2.3-8.1l-3.5,7.3l-2-1.4
			l4.5-9.6c-0.8-3.4-1.4-6.9-2-10.5l-4.8,7.6l-1.8-1.7l6.1-9.7c-0.4-3.8-0.8-7.6-0.9-11.7l-5.7,6.8l-1.6-2l7.2-8.6c0-0.5,0-1,0-1.5
			c0-2.9,0.1-5.6,0.2-8.3l-6.2,6.7l-1.5-2.1l7.9-8.6c0.2-3.6,0.5-6.9,1-10.2L269,246l-1.2-2.4l8.5-6.8c0.5-3.4,1.1-6.6,1.7-9.6
			l-7.2,4.5l-1-2.5l9.1-5.6c0.7-2.8,1.4-5.5,2.2-8l-7.6,4l-0.9-2.6l9.7-5.1c1.1-3.1,2.2-5.9,3.4-8.6l-7.2,1.2l-0.3-2.8l8.9-1.5
			c1.7-3.6,3.5-6.8,5.2-9.7l-8.1,0.3l-0.1-2.8l10-0.4c2.1-3.2,4.2-5.9,6.1-8.1h7.1C304.9,181.8,301.4,185.7,297.8,191.3L297.8,191.3
			z"/>
	</g>
</g>
<g>
	<g>
		<path class="st14" d="M113,200.6c-11.9,2.1-23.8,4.7-35.5,7.8c-3.2,0.9-6.3-1.4-5.8-4.2c0.9-4.6,1.9-9.3,2.9-13.9
			c0.3-1.1-0.1-2.3-1-3.1c-4.2-4-8.4-7.9-12.8-11.8c-2.3-2-1-5.4,2.6-6.4c13.3-3.6,26.8-6.6,40.4-8.9c2.8-0.5,5.3,0.9,5.8,2.9
			c2.3,11,4.7,22,7.1,33.1C117.1,198.1,115.4,200.2,113,200.6L113,200.6z"/>
		<path class="st1" d="M96.7,182c5.7,6.1,11.1,12.3,16.3,18.5c0,0,3.4-1.2,3.8-3.5c0.4-2.3-0.4-7.7-0.4-7.7
			C116.4,189.3,103.1,190.1,96.7,182L96.7,182z"/>
		<path class="st14" d="M256.4,200.6c11.9,2.1,23.8,4.7,35.5,7.8c3.2,0.9,6.3-1.4,5.8-4.2c-0.9-4.6-1.9-9.3-2.9-13.9
			c-0.3-1.1,0.1-2.3,1-3.1c4.2-4,8.4-7.9,12.8-11.8c2.3-2,1-5.4-2.6-6.4c-13.3-3.6-26.8-6.6-40.4-8.9c-2.8-0.5-5.3,0.9-5.8,2.9
			c-2.4,11-4.7,22-7.1,33.1C252.3,198.1,254,200.2,256.4,200.6L256.4,200.6z"/>
		<path class="st1" d="M272.2,183.9c-5.5,5.4-10.8,11-15.8,16.6c0,0-3.4-1.2-3.8-3.5c-0.4-2.3,0.4-7.7,0.4-7.7
			C253.1,189.3,265.8,192,272.2,183.9L272.2,183.9z"/>
		<path class="st14" d="M251.3,189.1c-43.8-6.9-88.7-6.9-132.6-0.1c-10,1.5-19.8-3.5-22-11.8c-0.9-3.4-1.8-6.9-2.7-10.4
			c-2.2-8.2,5.1-16.8,16.5-18.6c49.3-7.6,99.8-7.6,149.1,0.1c11.4,1.8,18.7,10.4,16.4,18.6c-0.9,3.5-1.8,6.9-2.7,10.4
			C271,185.6,261.2,190.6,251.3,189.1L251.3,189.1z"/>
	</g>
	<g class="st15">
		<path class="st1" d="M136.7,169.9c-0.3-0.6-0.9-1.4-1.5-2.2l0.7,8.5l-2.4,0.2l-0.6-7.5c-0.6,1.7-1.2,3.2-1.9,4.3
			c-0.3-0.7-0.9-1.7-1.4-2.3c1.1-1.4,2-3.8,2.6-5.9l-2.8,0.2l-0.2-2.3l3.2-0.3l-0.2-2.4c-0.8,0.2-1.6,0.4-2.3,0.5
			c-0.1-0.6-0.5-1.3-0.8-1.9c2.4-0.6,4.9-1.4,6.6-2.3l1.6,1.9c-0.8,0.4-1.7,0.7-2.6,1l0.2,2.9l2.8-0.2l0.2,2.3l-2.8,0.2l0,0.2
			c0.7,0.5,2.5,2.4,3,2.8L136.7,169.9z M147.1,170l0.4,5.3l-2.4,0.2l-0.4-4.8l-6.2,1.6l-0.6-2.3l6.6-1.7l-1-12.3l2.4-0.2l1,11.8
			l2-0.5l0.6,2.3L147.1,170z M141.6,167.5c-0.7-0.9-2.3-2.1-3.6-2.9l1.5-1.6c1.3,0.7,2.9,1.9,3.7,2.7L141.6,167.5z M141.7,161.9
			c-0.7-0.9-2.1-2.1-3.4-2.9l1.5-1.6c1.2,0.8,2.8,1.9,3.5,2.7L141.7,161.9z"/>
	</g>
	<g class="st15">
		<path class="st1" d="M160.1,166.2c-0.7,0.2-1.5,0.5-2.2,0.7l0.2,5c0,1.2-0.2,1.8-0.9,2.2c-0.7,0.4-1.7,0.5-3.2,0.6
			c-0.1-0.6-0.5-1.6-0.8-2.2c0.8,0,1.7,0,2-0.1c0.3,0,0.4-0.1,0.4-0.4l-0.2-4.3l-2,0.6l-0.7-2.3c0.8-0.2,1.7-0.4,2.7-0.7l-0.1-3.7
			l-2.4,0.1l-0.1-2.3l2.4-0.1l-0.1-4l2.5-0.1l0.1,4l2.1-0.1l0.1,2.3l-2.1,0.1l0.1,3.1l1.9-0.6L160.1,166.2z M171.6,162.9
			c-0.7,2.9-1.9,5.3-3.7,7.1c1.4,0.9,3.1,1.5,4.9,1.9c-0.5,0.5-1.2,1.6-1.5,2.2c-2.1-0.5-3.8-1.3-5.3-2.4c-1.6,1.2-3.4,2.1-5.4,2.8
			c-0.3-0.7-0.9-1.7-1.4-2.2c1.8-0.5,3.5-1.2,4.9-2.2c-1.3-1.4-2.3-3-3.2-4.9l0.6-0.2l-1.1,0l-0.1-2.2l4.1-0.2l-0.1-2.5l-4.5,0.2
			l-0.1-2.3l4.5-0.2l-0.1-3l2.5-0.1l0.1,3l4.7-0.2l0.1,2.3L167,160l0.1,2.5l2.5-0.1l0.4-0.1L171.6,162.9z M163.4,164.9
			c0.6,1.4,1.5,2.6,2.6,3.6c1.1-1.1,1.9-2.4,2.5-3.8L163.4,164.9z"/>
	</g>
	<g class="st15">
		<path class="st1" d="M195,170.6l0,2.4l-18.4,0l0-2.4l1.9,0l0-12.7l-1.7,0l0-2.4l17.4,0l0,2.4l-13.1,0l0,2.2l11.5,0l0,7.9l-11.5,0
			l0,2.6L195,170.6z M181.1,162.5l0,3l8.9,0l0-3L181.1,162.5z"/>
	</g>
	<g class="st15">
		<path class="st1" d="M201.8,162.5c-0.3,0.7-0.7,1.4-1.2,2c-0.3-0.5-1.1-1.5-1.5-1.8c1.3-1.6,1.5-3.8,1.6-5.4l0.1-2.1l7.6,0.3
			l-0.1,4.2l-5.5-0.2c0,0.3-0.1,0.5-0.2,0.8l5.8,0.2l-0.1,4.2l-6.4-0.2L201.8,162.5z M218.4,172l-8.3-0.3l0,0.6
			c0,1.1-0.3,1.6-1.2,1.8c-0.8,0.3-2,0.2-3.6,0.2c-0.1-0.6-0.4-1.4-0.7-1.9c1,0.1,2.3,0.1,2.6,0.1c0.4,0,0.5-0.1,0.5-0.4l0-0.6
			l-8.3-0.3l0.1-1.7l8.3,0.3l0-0.7l-6.7-0.2l0.1-1.6l6.7,0.2l0-0.7c-2,0-4,0-5.8-0.1c0-0.4-0.2-1.1-0.4-1.4c4.6,0.1,10,0.1,13.1-0.2
			l1.4,1.4c-1.7,0.2-3.7,0.3-5.8,0.3l0,0.8l6.9,0.2l-0.1,1.6l-6.9-0.2l0,0.7l8.3,0.3L218.4,172z M202.9,157l0,0.5l0,0.5l3.1,0.1l0-1
			L202.9,157z M203.8,163.1l2.4,0.1l0-1.1l-2.4-0.1L203.8,163.1z M214.7,165.1l-2.3-0.1l0-1.4l-3.3-0.1l0.1-1.6l3.3,0.1l0-1
			l-3.8-0.1l0.1-1.6l2,0.1c-0.1-0.4-0.3-0.9-0.4-1.3l1.5-0.2l-2.6-0.1l0.1-1.6l3.3,0.1c-0.1-0.3-0.2-0.7-0.3-1l2.3-0.4
			c0.2,0.4,0.3,0.9,0.5,1.4l3.2,0.1l-0.1,1.6l-2.8-0.1l1.6,0.3l-0.6,1.3l2.3,0.1l-0.1,1.6l-3.9-0.1l0,1l3.3,0.1l-0.1,1.6l-3.3-0.1
			L214.7,165.1z M212.2,157.8c0.2,0.5,0.4,1.1,0.5,1.6l1.8,0.1c0.2-0.5,0.4-1.1,0.6-1.5L212.2,157.8z"/>
	</g>
	<g class="st15">
		<path class="st1" d="M225.1,169.7c-0.2,1.9-0.7,3.8-1.3,5.1c-0.4-0.3-1.4-0.7-1.9-0.8c0.5-1.2,0.9-3.1,1.1-4.7L225.1,169.7z
			 M229,168.9c0-0.3-0.1-0.7-0.1-1c-4.5,0.4-5.3,0.5-5.8,0.7c-0.1-0.4-0.4-1.6-0.7-2.3c0.6-0.1,1.1-0.5,1.8-1.2
			c0.3-0.3,0.9-0.8,1.5-1.6c-1.7,0.1-2.2,0.2-2.5,0.3c-0.1-0.5-0.4-1.5-0.6-2.2c0.4-0.1,0.8-0.5,1.3-1c0.5-0.6,2-2.8,3-5l2.1,1.1
			c-0.9,1.7-2.1,3.4-3.3,4.8l1.6,0c0.6-0.8,1.2-1.7,1.7-2.6l2,1.5c-1.4,2.1-3.1,4.1-4.9,5.8l2.4-0.1c-0.1-0.6-0.3-1.1-0.4-1.6
			l1.9-0.5c0.5,1.4,0.9,3.3,1,4.5L229,168.9z M227.6,169.4c0.2,1.5,0.3,3.3,0.3,4.6l-2,0.3c0.1-1.2-0.1-3.1-0.2-4.6L227.6,169.4z
			 M229.9,168.9c0.4,1.1,0.6,2.4,0.8,3.4l-2,0.5c0-0.9-0.4-2.4-0.7-3.5L229.9,168.9z M241.5,173.6l-0.1,2.2l-11.9-0.8l0.1-2.2
			l1.6,0.1l1-15.9l9,0.6l-1,15.9L241.5,173.6z M233.5,173.1l4.4,0.3l0.2-3.2l-4.4-0.3L233.5,173.1z M238.4,165l-4.4-0.3l-0.2,3
			l4.4,0.3L238.4,165z M234.4,159.5l-0.2,3l4.4,0.3l0.2-3L234.4,159.5z"/>
	</g>
</g>
</svg>
