<?xml version="1.0" encoding="utf-8"?>
<!-- Generator: Adobe Illustrator 28.0.0, SVG Export Plug-In . SVG Version: 6.00 Build 0)  -->
<svg version="1.1" id="_內文" xmlns="http://www.w3.org/2000/svg" xmlns:xlink="http://www.w3.org/1999/xlink" x="0px" y="0px"
	 viewBox="0 0 360 400" style="enable-background:new 0 0 360 400;" xml:space="preserve">
<style type="text/css">
	.st0{fill:#F1A65C;stroke:#123B68;stroke-width:2.2;stroke-miterlimit:10;}
	.st1{fill:#123B68;}
	.st2{fill:none;stroke:#123B68;stroke-width:2.2;stroke-linecap:round;stroke-linejoin:round;}
	.st3{fill:#FFD571;stroke:#123B68;stroke-width:2.2;stroke-miterlimit:10;}
	.st4{fill:#FBEE8F;stroke:#123B68;stroke-width:2.2;stroke-linejoin:round;}
	.st5{fill:#B4E2FA;}
	.st6{fill:#FFFFFF;}
	.st7{opacity:0.3;fill:#BDD5E6;enable-background:new    ;}
	.st8{fill:#FFD571;stroke:#123B68;stroke-width:3;stroke-linecap:round;stroke-linejoin:round;}
	.st9{enable-background:new    ;}
</style>
<g>
	<g>
		<path class="st0" d="M272.3,110.1c1.7,27.9-9.2,45.7-57.7,45.6c-44.2,0-62.3-14.8-59.3-45.7c3-30.3,27.6-56.2,58.5-56.2
			C244.9,53.8,270.5,79.1,272.3,110.1z"/>
		<path class="st0" d="M194.1,50.5c0,0-3.5-7.6-5.9-14c-2.3-6.5-1.2-13.9,6.9-13.7c8.1,0.1,12-4.8,14.6-7.3s8-1.9,10.9,2.1
			c3,4,8.2,5,14.2,5.2c6,0.3,7.3,12.4,3.8,16.5c-3.5,4.1-5.9,11.3-5.9,11.3L194.1,50.5L194.1,50.5z"/>
		<path class="st1" d="M194.5,49.4h37.1c2.4,0,4.4,1.9,4.4,4.3v0c0,2.4-1.9,4.3-4.4,4.3h-37.1c-2.4,0-4.4-1.9-4.4-4.3v0
			C190.2,51.3,192.1,49.4,194.5,49.4z"/>
		<path class="st1" d="M216.9,131c-0.8,0-1.5-0.4-1.9-0.9c-0.6-0.8-0.5-1.7-0.5-2.7V127c0-0.9,0.1-1.7,0.1-2.6l0-1.2l-1.1-0.3
			c-3.3-0.8-6.3-1.9-8.6-3.3c-1.2-0.7-1.1-1.6-1-2c0.2-0.9,1.2-1.5,2.2-1.5c0.4,0,0.8,0.1,1.2,0.3c2.2,1,4.1,1.7,5.8,2.2l1.7,0.5
			l0.1-1.8c0.2-3.6,0.4-7.3,0.6-10.9l0.1-1.4l-3.7-1.1c-2.5-0.7-5.5-1.9-7.1-4.2c-1.1-1.6-1.3-3.2-0.7-4.8c1.3-3.4,6.2-6.2,10.1-7.2
			c0.6-0.2,1.3-0.3,2.1-0.5l1-0.2l0.1-1c0.1-0.8,0.3-2,0.6-3.1c0.2-0.7,0.8-1.1,1.6-1.1c1,0,2.1,0.6,2.1,1.7c0.1,0.6,0.1,1.2,0,2
			l-0.1,1.4l1.4,0.1c3.4,0.3,6.7,1.4,9.6,3c1,0.5,0.9,1.2,0.8,1.5c-0.2,0.7-0.9,1.2-1.8,1.2c-0.3,0-0.6-0.1-1-0.2
			c-2.4-1.1-5.3-1.7-8.2-1.8l-1.3-0.1l-0.4,4.7c-0.2,2-0.3,4-0.5,6l-0.1,1l1,0.4c2,0.8,4,1.7,5.8,2.7c2.2,1.2,5.3,3.1,7.2,5.8
			c1.8,2.5,1.9,5.4,0.3,7.8c-1.5,2.3-4.5,4-8.1,4.6c-1.3,0.2-2.6,0.3-4.1,0.3c-0.6,0-1.1,0-1.7-0.1l-1.5-0.1l-0.1,3.8
			c0,0.9,0,1.7-0.6,2.5C218.2,130.7,217.6,131,216.9,131L216.9,131z M219.8,108.6c-0.2,3.3-0.4,6.7-0.5,9.9l-0.1,1.4l1.4,0.1
			c0.6,0,1.1,0.1,1.6,0.1c3.1,0,5.4-0.6,7-1.9c1.2-0.9,1.7-2,1.6-3.1c-0.4-2.9-5.1-5.8-9.1-7.6l-1.9-0.9L219.8,108.6L219.8,108.6z
			 M214.8,91.8c-1.1,0.4-2.1,0.8-3.1,1.4c-0.5,0.3-2.9,1.8-3,3.5c-0.1,0.7,0.2,1.3,0.8,1.8c1.2,1.1,3.1,1.6,4.8,2l1.6,0.4l0.1-1.6
			c0.1-1.5,0.3-3.1,0.4-4.6l0.4-3.7L214.8,91.8L214.8,91.8z"/>
	</g>
	<g>
		<path class="st0" d="M196.4,123.5c0.1-2,0-4,0-5.9v-11.1c0-6.9,0,1.6,0-5.3v-1.7h-79.6c0,5.1,0-5.2,0-0.1c0,7.4-0.1,14.9-0.1,22.3
			c0,10,6.4,17.8,14.8,22.5c9.2,5.2,20.2,7.2,30.7,6.3c0.5,0,1-0.1,1.5-0.1c9.8-1.1,20-4.7,26.7-12.1c1.8-1.9,3.3-4.2,4.3-6.6
			C196,129.1,196.4,126.3,196.4,123.5L196.4,123.5z"/>
		<path class="st2" d="M196,119.5c-6.9,13-21.4,17.9-35.3,19.2c-15.9,0.7-34.6-4.9-43.4-19.1"/>
		
			<ellipse transform="matrix(3.036402e-02 -0.9995 0.9995 3.036402e-02 53.5305 251.9409)" class="st3" cx="156.6" cy="98.4" rx="27.3" ry="39.8"/>
		<path class="st1" d="M163,105.4c0.2-2.1-0.4-4-1.2-5.8c-0.6-1.3-1.4-2.5-2.2-3.6c1.2-1.6,2.4-3.1,3.6-4.7c0.8-1,1.6-2,2.4-3.1
			c1.8,0.7,3.3,1.8,4.2,3.3c0.8,1.2,3.2-0.2,2.6-1.6c-0.9-2-2.5-3.6-4.5-4.6c0.6-0.7,1.1-1.4,1.6-2.2c0.9-1.4-0.6-2.7-2-1.4
			c-0.9,0.8-1.6,1.7-2.4,2.7c-0.6-0.1-1.3-0.2-1.9-0.2c-3.9-0.2-10.6,1.5-11.3,6.5c-0.3,1.9,0.8,3.4,1.9,4.6c0.5,0.5,1,1,1.5,1.5
			c-0.2,0.3-0.4,0.6-0.7,0.9c-2,2.7-4,5.3-5.9,8c-0.1,0.2-0.3,0.4-0.4,0.5c-1.1-1-1.9-2.2-2.8-3.4c-1-1.5-3.9,0.2-3.2,1.9
			c0.8,1.8,2.1,3.4,3.7,4.6c-0.1,0.2-0.2,0.3-0.4,0.5c-0.5,0.7-0.9,1.3-1.4,1.9c-0.6,0.8-1.2,1.5-1.3,2.4c-0.1,1.1,1,1.6,2.1,1
			c0.9-0.5,1.3-1.2,1.8-2c0.5-0.7,1-1.4,1.5-2.1c0-0.1,0.1-0.1,0.1-0.2c1.2,0.7,2.6,1.2,4,1.5c2.1,0.4,4.7,0,6.9-1.5
			C161.4,109.7,162.8,107.6,163,105.4L163,105.4z M155.4,90.9c-0.3-1.7,2.2-2.7,3.6-3c1.2-0.3,2.4-0.3,3.6-0.3
			c-0.6,0.7-1.2,1.4-1.8,2.2c-1.1,1.3-2.1,2.7-3.2,4.1C156.7,93,155.6,92.1,155.4,90.9L155.4,90.9z M156.8,109.1
			c-2.3,0.8-4.5,0-6.2-1c0.2-0.2,0.3-0.4,0.5-0.7c2-2.7,4-5.5,6-8.2l0,0c0.1,0.2,0.3,0.4,0.4,0.6
			C158.7,101.8,161.7,107.3,156.8,109.1z"/>
	</g>
	<g>
		<path class="st0" d="M141.5,136.5c0-1.2,0-2.4,0-3.6v-12.6H92.7c0,3.1,0,10.6,0,15.2c0,6.1,3.9,10.9,9.1,13.8
			c5.6,3.2,12.4,4.4,18.8,3.9c0.3,0,0.6-0.1,0.9-0.1c6-0.7,12.2-2.9,16.4-7.4c1.1-1.2,2-2.6,2.6-4
			C141.2,139.9,141.4,138.2,141.5,136.5L141.5,136.5z"/>
		<path class="st2" d="M141.2,132.9c-4.2,8-13.1,10.9-21.6,11.8c-9.8,0.4-21.2-3-26.6-11.7"/>
		
			<ellipse transform="matrix(3.036417e-02 -0.9995 0.9995 3.036417e-02 -6.3659 233.3301)" class="st3" cx="117.1" cy="119.9" rx="16.7" ry="24.4"/>
		<path class="st1" d="M116.7,126.8c1.3-1,2.1-2.4,2.6-3.8c0.4-1.1,0.7-2.1,0.8-3.2c1.5-0.2,3.1-0.3,4.6-0.5c1-0.1,2-0.2,3-0.3
			c0.6,1.4,0.8,2.8,0.4,4.2c-0.3,1.1,1.8,1.7,2.3,0.6c0.6-1.6,0.6-3.4,0.1-5c0.7-0.1,1.4-0.2,2.1-0.3c1.3-0.3,1.1-1.8-0.3-1.9
			c-0.9-0.1-1.8,0-2.8,0.1c-0.3-0.4-0.6-0.8-0.9-1.2c-2-2.3-6.6-5.1-9.8-2.8c-1.2,0.9-1.5,2.3-1.6,3.6c0,0.6,0,1.1-0.1,1.7
			c-0.3,0-0.6,0.1-0.8,0.1c-2.6,0.3-5.2,0.7-7.7,1c-0.2,0-0.3,0.1-0.5,0.1c0-1.1,0.2-2.3,0.4-3.4c0.3-1.4-2.2-2.1-2.8-0.7
			c-0.6,1.4-0.7,3-0.6,4.6c-0.2,0-0.3,0.1-0.5,0.1c-0.6,0.1-1.2,0.2-1.8,0.3c-0.8,0.1-1.5,0.2-2.1,0.6c-0.7,0.5-0.4,1.4,0.6,1.7
			c0.8,0.2,1.4,0.1,2.1-0.1c0.7-0.1,1.3-0.2,2-0.3c0.1,0,0.1,0,0.1,0c0.3,1.1,0.7,2.1,1.4,3c1,1.4,2.6,2.6,4.6,3.1
			C113.4,128.3,115.3,127.9,116.7,126.8L116.7,126.8z M120.7,114.7c0.8-1,2.7-0.2,3.6,0.4c0.8,0.5,1.5,1.2,2.1,1.9
			c-0.7,0.1-1.4,0.1-2.2,0.2c-1.3,0.1-2.7,0.3-4,0.4C120.2,116.6,120.1,115.5,120.7,114.7L120.7,114.7z M111.3,125.3
			c-1.7-0.9-2.4-2.5-2.8-4c0.2,0,0.4-0.1,0.6-0.1c2.6-0.4,5.2-0.7,7.9-1.1l0,0c0,0.2-0.1,0.3-0.1,0.5
			C116.4,122.5,114.9,127.2,111.3,125.3z"/>
	</g>
	<path class="st4" d="M275.9,39L275.9,39c0.1,4.1,3.7,10.4,7.8,10.3l0,0c-4.1,0.1-7.3,6.6-7.1,10.7l0,0c-0.1-4.1-3.7-10.4-7.8-10.2
		l0,0C272.9,49.6,276.1,43.2,275.9,39L275.9,39z"/>
	<path class="st4" d="M97.6,60.3L97.6,60.3c0.1,4.1,3.7,10.4,7.8,10.3l0,0c-4.1,0.1-7.3,6.6-7.1,10.7l0,0
		c-0.1-4.1-3.7-10.4-7.8-10.2l0,0C94.6,70.9,97.8,64.4,97.6,60.3L97.6,60.3z"/>
</g>
<g>
	<g>
		<path class="st5" d="M186,398.1c-0.4,0-0.7,0-1-0.1c-0.1,0-0.1,0-0.1,0L46.8,360.9c-3.5-0.5-6.5-3-8.1-6.9l-4.7-9.2
			c-0.5-1.2-0.8-2.3-0.9-3.5L12.1,192.7c-0.6-4.1,0.6-8.3,3.1-11.1c1.9-2.2,4.4-3.4,7.1-3.4H340c4,0,7.5,2.7,9.2,7l3.8,9.3
			c1,2.4,1.3,5,0.9,7.6l-21.2,148.9c-0.8,5.5-4.5,9.7-9,10.3L187.2,398c-0.1,0-0.1,0-0.1,0C186.7,398.1,186.4,398.1,186,398.1
			L186,398.1z"/>
		<path class="st1" d="M340,179.3c3.5,0,6.6,2.4,8.2,6.3l3.8,9.3c0.9,2.2,1.2,4.6,0.8,7l-21.2,148.9c-0.7,5-4,8.9-8.1,9.4
			l-136.5,36.9c-0.3,0-0.6,0.1-0.9,0.1s-0.6,0-0.9-0.1L47,359.9c-3.1-0.4-5.9-2.7-7.3-6.2l-4.8-9.3c-0.4-1-0.7-2-0.8-3.1L13.2,192.6
			c-1-6.9,3.3-13.3,9-13.3L340,179.3 M340,177.1H22.2c-3,0-5.8,1.3-7.9,3.8c-2.7,3.1-3.9,7.6-3.3,12l20.9,148.6
			c0.2,1.3,0.5,2.5,1,3.6c0,0.1,0,0.1,0.1,0.2l4.7,9.2c1.7,4.1,5,6.9,8.9,7.5l138,37c0.1,0,0.2,0,0.3,0.1c0.4,0,0.8,0.1,1.2,0.1
			s0.8,0,1.2-0.1c0.1,0,0.2,0,0.3-0.1l136.4-36.8c5-0.7,9-5.3,9.9-11.2L355,202.1c0.4-2.8,0.1-5.6-1-8.1l-3.8-9.3
			C348.3,180,344.4,177,340,177.1L340,177.1L340,177.1z"/>
	</g>
	<g>
		<path class="st6" d="M178.4,381.7c-0.4,0-0.7,0-1-0.1c-0.1,0-0.1,0-0.1,0L41,344.8c-4.5-0.6-8.2-4.8-9-10.3L12.1,192.7
			c-0.6-4.1,0.6-8.3,3.1-11.1c1.9-2.2,4.4-3.4,7.1-3.4h312.5c2.6,0,5.2,1.2,7.1,3.4c2.5,2.9,3.6,7,3.1,11.1L325,334.5
			c-0.8,5.5-4.5,9.7-9,10.3l-136.4,36.8c0,0-0.1,0-0.1,0C179.1,381.7,178.7,381.7,178.4,381.7L178.4,381.7z"/>
		<path class="st1" d="M334.8,179.3c5.7,0,10,6.4,9,13.3l-19.9,141.8c-0.7,5-4,8.9-8.1,9.4l-136.5,36.9c-0.3,0-0.6,0.1-0.9,0.1
			s-0.6,0-0.9-0.1L41.2,343.7c-4.1-0.5-7.4-4.3-8.1-9.4L13.2,192.6c-1-6.9,3.3-13.3,9-13.3L334.8,179.3 M334.8,177.1H22.2
			c-3,0-5.8,1.3-7.9,3.8c-2.7,3.1-3.9,7.6-3.3,12l19.9,141.8c0.8,5.9,4.9,10.5,9.9,11.2l136.1,36.8c0.1,0,0.2,0,0.3,0.1
			c0.4,0,0.8,0.1,1.2,0.1s0.8,0,1.2-0.1c0.1,0,0.2,0,0.3-0.1l136.4-36.8c5-0.7,9-5.3,9.9-11.2L346,192.9c0.6-4.4-0.6-8.9-3.3-12
			C340.5,178.4,337.7,177.1,334.8,177.1L334.8,177.1L334.8,177.1z"/>
	</g>
	<g>
		<path class="st7" d="M59.2,191.3l-1.4,11l2.3,0.4l1-8.3c1.4,2.3,2.8,4.8,4.1,7.6l-2.6,12l2.2,0.7l2-9.2c1.2,2.8,2.4,5.8,3.5,9
			l-4.3,9.2l2,1.4l3.4-7.2c0.7,2.4,1.4,4.9,2.1,7.5l-4.9,9.1l1.9,1.6l3.9-7.1c0.6,2.9,1.2,5.9,1.7,9.1l-5.7,8.5l1.8,1.8l4.5-6.7
			c0.4,3.2,0.7,6.5,0.9,10l-6.5,7.2l1.5,2.1l5.1-5.7c0.1,2.5,0.2,5.1,0.2,7.8c0,0.4,0,0.8,0,1.3l-7.1,7.1l1.4,2.2l5.6-5.6
			c-0.1,3.7-0.4,7.3-0.8,10.8l-7.9,5.8l1.2,2.4l6.3-4.6c-0.4,3-1,5.8-1.6,8.6l-9.2,4.9l0.9,2.6l7.5-4c-0.7,2.9-1.5,5.6-2.3,8.2
			l-9.2,2.9l0.6,2.8l7.5-2.4c-1.2,3.4-2.4,6.5-3.7,9.5l-8.7,1.5l0.3,2.8l6.9-1.2c-1.4,2.9-2.8,5.7-4.2,8.2l-9.1-0.1v2.8l7.5,0.1
			c-4.1,6.9-8.1,12-10.8,15.1l6,0.7c2.3-3,5.1-6.7,7.9-11.3l0.9,9l2.3-0.3l-1.2-12c1.6-2.8,3.2-5.8,4.8-9.1l2.1,9.5l2.2-0.8
			l-2.7-12.2c1.2-2.7,2.3-5.5,3.3-8.4l2.6,8.2l2.1-1l-3.4-10.9c0.8-2.6,1.6-5.3,2.3-8.1l3.4,7.3l2-1.4l-4.5-9.6
			c0.8-3.4,1.4-6.9,2-10.5l4.8,7.6l1.8-1.7l-6.1-9.7c0.4-3.8,0.8-7.6,0.9-11.7l5.7,6.8l1.6-2l-7.2-8.6c0-0.5,0-1,0-1.5
			c0-2.9-0.1-5.6-0.2-8.3l6.2,6.7l1.5-2.1l-7.9-8.6c-0.2-3.6-0.6-6.9-1-10.2L88,246l1.2-2.4l-8.6-6.8c-0.5-3.4-1.1-6.6-1.7-9.6
			l7.2,4.5l1-2.5l-9.1-5.6c-0.7-2.8-1.4-5.5-2.2-8l7.6,4l0.9-2.6l-9.7-5.1c-1.1-3.1-2.2-5.9-3.4-8.6l7.2,1.2l0.3-2.8l-8.9-1.5
			c-1.7-3.6-3.4-6.8-5.2-9.7l8.1,0.3l0.1-2.8l-10-0.4c-2.1-3.2-4.2-5.9-6.2-8.1h-7.1C52.1,181.8,55.6,185.7,59.2,191.3L59.2,191.3z"
			/>
		<path class="st7" d="M297.8,191.3l1.4,11l-2.3,0.4l-1-8.3c-1.4,2.3-2.8,4.8-4.1,7.6l2.6,12l-2.2,0.7l-2-9.2
			c-1.2,2.8-2.4,5.8-3.5,9l4.3,9.2l-2,1.4l-3.4-7.2c-0.7,2.4-1.4,4.9-2.1,7.5l4.9,9.1l-1.9,1.6l-3.9-7.1c-0.6,2.9-1.2,5.9-1.6,9.1
			l5.7,8.5l-1.8,1.8l-4.5-6.7c-0.4,3.2-0.7,6.5-0.9,10l6.5,7.2l-1.5,2.1l-5.1-5.7c-0.1,2.5-0.2,5.1-0.2,7.8c0,0.4,0,0.8,0,1.3
			l7.1,7.1l-1.5,2.2l-5.6-5.6c0.1,3.7,0.4,7.3,0.9,10.8l7.9,5.8l-1.2,2.4l-6.3-4.6c0.4,3,1,5.8,1.6,8.6l9.2,4.9l-0.9,2.6l-7.5-4
			c0.7,2.9,1.5,5.6,2.3,8.2l9.2,2.9l-0.6,2.8l-7.5-2.4c1.2,3.4,2.4,6.5,3.7,9.5l8.7,1.5l-0.3,2.8l-6.9-1.2c1.4,2.9,2.8,5.7,4.2,8.2
			l9.1-0.1v2.8l-7.5,0.1c4.1,6.9,8.1,12,10.8,15.1l-6,0.7c-2.4-3-5.1-6.7-7.9-11.3l-0.9,9l-2.3-0.3l1.1-12c-1.6-2.8-3.2-5.8-4.8-9.1
			l-2.1,9.5l-2.2-0.8l2.7-12.2c-1.2-2.7-2.3-5.5-3.4-8.4l-2.6,8.2l-2.1-1l3.4-10.9c-0.8-2.6-1.6-5.3-2.3-8.1l-3.5,7.3l-2-1.4
			l4.5-9.6c-0.8-3.4-1.4-6.9-2-10.5l-4.8,7.6l-1.8-1.7l6.1-9.7c-0.4-3.8-0.8-7.6-0.9-11.7l-5.7,6.8l-1.6-2l7.2-8.6c0-0.5,0-1,0-1.5
			c0-2.9,0.1-5.6,0.2-8.3l-6.2,6.7l-1.5-2.1l7.9-8.6c0.2-3.6,0.5-6.9,1-10.2L269,246l-1.2-2.4l8.5-6.8c0.5-3.4,1.1-6.6,1.7-9.6
			l-7.2,4.5l-1-2.5l9.1-5.6c0.7-2.8,1.4-5.5,2.2-8l-7.6,4l-0.9-2.6l9.7-5.1c1.1-3.1,2.2-5.9,3.4-8.6l-7.2,1.2l-0.3-2.8l8.9-1.5
			c1.7-3.6,3.5-6.8,5.2-9.7l-8.1,0.3l-0.1-2.8l10-0.4c2.1-3.2,4.2-5.9,6.1-8.1h7.1C304.9,181.8,301.4,185.7,297.8,191.3L297.8,191.3
			z"/>
	</g>
</g>
<g>
	<g>
		<path class="st8" d="M113,200.6c-11.9,2.1-23.8,4.7-35.5,7.8c-3.2,0.9-6.3-1.4-5.8-4.2c0.9-4.6,1.9-9.3,2.9-13.9
			c0.3-1.1-0.1-2.3-1-3.1c-4.2-4-8.4-7.9-12.8-11.8c-2.3-2-1-5.4,2.6-6.4c13.3-3.6,26.8-6.6,40.4-8.9c2.8-0.5,5.3,0.9,5.8,2.9
			c2.3,11,4.7,22,7.1,33.1C117.1,198.1,115.4,200.2,113,200.6L113,200.6z"/>
		<path class="st1" d="M96.7,182c5.7,6.1,11.1,12.3,16.3,18.5c0,0,3.4-1.2,3.8-3.5c0.4-2.3-0.4-7.7-0.4-7.7
			C116.4,189.3,103.1,190.1,96.7,182L96.7,182z"/>
		<path class="st8" d="M256.4,200.6c11.9,2.1,23.8,4.7,35.5,7.8c3.2,0.9,6.3-1.4,5.8-4.2c-0.9-4.6-1.9-9.3-2.9-13.9
			c-0.3-1.1,0.1-2.3,1-3.1c4.2-4,8.4-7.9,12.8-11.8c2.3-2,1-5.4-2.6-6.4c-13.3-3.6-26.8-6.6-40.4-8.9c-2.8-0.5-5.3,0.9-5.8,2.9
			c-2.4,11-4.7,22-7.1,33.1C252.3,198.1,254,200.2,256.4,200.6L256.4,200.6z"/>
		<path class="st1" d="M272.2,183.9c-5.5,5.4-10.8,11-15.8,16.6c0,0-3.4-1.2-3.8-3.5c-0.4-2.3,0.4-7.7,0.4-7.7
			C253.1,189.3,265.8,192,272.2,183.9L272.2,183.9z"/>
		<path class="st8" d="M251.3,189.1c-43.8-6.9-88.7-6.9-132.6-0.1c-10,1.5-19.8-3.5-22-11.8c-0.9-3.4-1.8-6.9-2.7-10.4
			c-2.2-8.2,5.1-16.8,16.5-18.6c49.3-7.6,99.8-7.6,149.1,0.1c11.4,1.8,18.7,10.4,16.4,18.6c-0.9,3.5-1.8,6.9-2.7,10.4
			C271,185.6,261.2,190.6,251.3,189.1L251.3,189.1z"/>
	</g>
	<g class="st9">
		<path class="st1" d="M140.5,164.5l0.2,2.2l6.7-0.6l0.2,2.2l-3.3,0.3l2.2,0.6c-0.6,1.2-1.3,2.6-1.9,3.5l4.5-0.4l0.2,2.3l-18.1,1.5
			l-0.2-2.3l4.1-0.3c-0.4-0.9-1.2-2.3-2-3.2l1.6-0.8l-3,0.3l-0.2-2.2l6.7-0.6l-0.2-2.2l-4.2,0.4l-0.1-1c-0.8,0.5-1.7,0.9-2.6,1.4
			c-0.4-0.7-1.2-1.6-1.8-2.2c3.8-1.5,7.4-3.9,9.1-7.2l2.5,0.9c-0.2,0.3-0.3,0.6-0.5,0.9c2.2,1.7,5.7,3.1,9,3.7
			c-0.5,0.6-1.2,1.6-1.5,2.3c-1-0.3-2-0.6-2.9-1l0.1,1.2L140.5,164.5z M135,169.5c0.8,1,1.7,2.3,2.1,3.2l-1.7,0.9l3.1-0.3l-0.3-4.1
			L135,169.5z M142.6,162.1c-1.4-0.7-2.7-1.5-3.8-2.4c-0.9,1.1-2,2.1-3.2,3L142.6,162.1z M140.8,169l0.3,4.1l2.6-0.2l-1.5-0.5
			c0.6-1,1.2-2.5,1.5-3.6L140.8,169z"/>
	</g>
	<g class="st9">
		<path class="st1" d="M152.6,156l10.4-0.4l0.1,2.1l-10.4,0.4L152.6,156z M163.2,172.1c0,0.9-0.1,1.4-0.6,1.8
			c-0.5,0.3-1.3,0.4-2.3,0.4c-0.1-0.5-0.3-1.3-0.6-1.8c0.5,0,1.1,0,1.3,0c0.2,0,0.2-0.1,0.2-0.3l-0.2-6.4l-5.8,0.2l0.3,8.8l-1.9,0.1
			l-0.4-10.6l9.7-0.4L163.2,172.1z M162.3,163.1l-8.4,0.3l-0.2-4.6l8.4-0.3L162.3,163.1z M156.7,168.9c-0.2-0.6-0.6-1.5-1-2.2
			l1.3-0.5c0.5,0.7,0.9,1.5,1.1,2.1L156.7,168.9z M159.1,170.4l0.1,3.5l-1.8,0.1l-0.1-3.5l-1.5,0.1l-0.1-1.5l2.3-0.1
			c0.4-0.9,0.8-2,1-2.9l1.5,0.5c-0.4,0.7-0.7,1.6-1.1,2.3l0.9,0l0.1,1.5L159.1,170.4z M160,160.3l-4.1,0.2l0,1.2l4.1-0.2L160,160.3z
			 M170.9,174.2c-0.1-0.5-0.2-1-0.3-1.6c-2.2,0.5-4.5,1-6.3,1.4l-0.6-2.2c0.9-0.1,1.9-0.3,3.1-0.6l-0.1-3.8l-2.8,0.1l-0.3-8.6
			l2.8-0.1l-0.1-3.7l2.2-0.1l0.1,3.7l2.9-0.1l0.3,8.6l-2.9,0.1l0.1,3.5l1.1-0.2c-0.2-0.7-0.4-1.5-0.7-2.1l1.7-0.4
			c0.7,1.8,1.4,4.2,1.7,5.6L170.9,174.2z M165.5,165.2l1.3,0l-0.2-4.4l-1.3,0L165.5,165.2z M169.6,160.7l-1.2,0l0.2,4.4l1.2,0
			L169.6,160.7z"/>
	</g>
	<g class="st9">
		<path class="st1" d="M185.1,171.6c0,1.1-0.2,1.6-0.9,2c-0.7,0.4-1.6,0.4-2.8,0.4c-0.1-0.7-0.5-1.6-0.8-2.2c0.7,0,1.4,0,1.6,0
			c0.3,0,0.3-0.1,0.3-0.3l0-1.7c-1,0.6-2,1.1-3,1.6l-0.6-1.6c-0.1,1.5-0.5,3.1-1.2,4.3c-0.4-0.4-1.3-1-1.8-1.2c1-1.6,1-3.9,1-5.6
			l0-4.2l8,0L185.1,171.6z M183.8,160.2l2.1,0l0,2.1l-9.7,0l0-2.1l2,0c-0.1-0.6-0.3-1.2-0.5-1.7l1.8-0.4l-2.9,0l0-2.1l3.5,0
			c-0.1-0.4-0.3-0.8-0.4-1.2l2.2-0.5c0.2,0.5,0.5,1.2,0.6,1.7l3.1,0l0,2.1l-3.1,0l2,0.4L183.8,160.2z M179.2,167.4
			c0,0.6,0,1.3-0.1,2c0.9-0.3,2.2-0.8,3.5-1.3v-1.4l-1,1.2c-0.6-0.3-1.6-0.8-2.5-1.2V167.4z M179.2,165l0,1.8l0.9-1.1
			c0.8,0.3,1.9,0.8,2.5,1.1l0-1.7L179.2,165z M179.5,158.1c0.3,0.7,0.5,1.5,0.6,2.1l1.4,0c0.2-0.7,0.5-1.5,0.6-2.1L179.5,158.1z
			 M195.7,171.1c-0.2,2.1-0.9,2.8-2.8,2.8l-3.2,0c-2.4,0-3.1-0.6-3.1-2.9l0-9l5.4,0l0-1.2l-5.4,0l0-6.4l2.5,0l0,1.4l6.2,0l0,2
			l-6.2,0l0,1.2l5.4,0l0,4.9l-5.4,0v0.8l5.4,0l0,1.4l-5.4,0v0.9l5.3,0l0,1.4l-5.3,0v0.9l5.5,0l0,1.4
			C195,171,195.4,171.1,195.7,171.1z M192.7,171.9c0.6,0,0.8-0.2,0.9-1.1l-4.5,0v0.2c0,0.8,0.1,0.9,1,0.9L192.7,171.9z"/>
	</g>
	<g class="st9">
		<path class="st1" d="M208.1,171.5c-3,0.6-6.2,1.3-8.6,1.7l-0.5-2.3c1.4-0.2,3.4-0.5,5.4-0.9l-0.5-0.1c0.3-1.2,0.7-2.9,0.9-4.3
			l2.4,0.6c-0.4,1.2-0.8,2.5-1.2,3.5l1.9-0.3L208.1,171.5z M208.2,158.1l-8.4-0.3l0.1-2.3l8.4,0.3L208.2,158.1z M207.5,165.4
			l-7.4-0.3l0.2-5.9l7.4,0.3L207.5,165.4z M200.9,169.9c0-1-0.2-2.6-0.6-3.8l2-0.4c0.4,1.2,0.7,2.7,0.7,3.7L200.9,169.9z
			 M205.4,161.4l-3.1-0.1l-0.1,2l3.1,0.1L205.4,161.4z M212.8,171.8c-1.2,1-3.1,2.1-4.8,2.6c-0.3-0.5-1.1-1.2-1.6-1.7
			c1.6-0.5,3.4-1.5,4.3-2.4L212.8,171.8z M211.9,159.3c0.1-0.5,0.2-0.9,0.3-1.4l-3.5-0.1l0.1-2.1l10.1,0.3l-0.1,2.1l-3.9-0.1
			c-0.2,0.5-0.3,1-0.5,1.4l3.9,0.1l-0.4,11.1l-9.1-0.3l0.4-11.1L211.9,159.3z M215.7,167.4l-4.5-0.2l0,1.3l4.5,0.2L215.7,167.4z
			 M215.8,164.3l-4.5-0.2l0,1.3l4.5,0.2L215.8,164.3z M215.9,161.3l-4.5-0.2l0,1.3l4.5,0.2L215.9,161.3z M215.6,170.8
			c1.1,0.8,2.6,1.9,3.4,2.7l-2,1.3c-0.7-0.8-2.2-2-3.3-2.9L215.6,170.8z"/>
	</g>
	<g class="st9">
		<path class="st1" d="M225.1,169.7c-0.2,1.9-0.7,3.8-1.3,5.1c-0.4-0.3-1.4-0.7-1.9-0.8c0.5-1.2,0.9-3.1,1.1-4.7L225.1,169.7z
			 M229,168.9c0-0.3-0.1-0.7-0.1-1c-4.5,0.4-5.3,0.5-5.8,0.7c-0.1-0.4-0.4-1.6-0.7-2.3c0.6-0.1,1.1-0.5,1.8-1.2
			c0.3-0.3,0.9-0.8,1.5-1.6c-1.7,0.1-2.2,0.2-2.5,0.3c-0.1-0.5-0.4-1.5-0.6-2.2c0.4-0.1,0.8-0.5,1.3-1c0.5-0.6,2-2.8,3-5l2.1,1.1
			c-0.9,1.7-2.1,3.4-3.3,4.8l1.6,0c0.6-0.8,1.2-1.7,1.7-2.6l2,1.5c-1.4,2.1-3.1,4.1-4.9,5.8l2.4-0.1c-0.1-0.6-0.3-1.1-0.4-1.6
			l1.9-0.5c0.5,1.4,0.9,3.3,1,4.5L229,168.9z M227.6,169.4c0.2,1.5,0.3,3.3,0.3,4.6l-2,0.3c0.1-1.2-0.1-3.1-0.2-4.6L227.6,169.4z
			 M229.9,168.9c0.4,1.1,0.6,2.4,0.8,3.4l-2,0.5c0-0.9-0.4-2.4-0.7-3.5L229.9,168.9z M241.5,173.6l-0.1,2.2l-11.9-0.8l0.1-2.2
			l1.6,0.1l1-15.9l9,0.6l-1,15.9L241.5,173.6z M233.5,173.1l4.4,0.3l0.2-3.2l-4.4-0.3L233.5,173.1z M238.4,165l-4.4-0.3l-0.2,3
			l4.4,0.3L238.4,165z M234.4,159.5l-0.2,3l4.4,0.3l0.2-3L234.4,159.5z"/>
	</g>
</g>
</svg>
