<svg xmlns="http://www.w3.org/2000/svg" xmlns:xlink="http://www.w3.org/1999/xlink" width="64.527" height="72.61" viewBox="0 0 64.527 72.61">
  <defs>
    <clipPath id="clip-path">
      <rect id="Rectangle_677" data-name="Rectangle 677" width="64.527" height="72.61" fill="none"/>
    </clipPath>
  </defs>
  <g id="Group_1680" data-name="Group 1680" transform="translate(0 0)">
    <path id="Path_5332" data-name="Path 5332" d="M27.764,39.02H20.711L6.6,13.158l32.915,2.351Z" transform="translate(8.923 17.777)" fill="#fff"/>
    <g id="Group_1679" data-name="Group 1679" transform="translate(0 0)">
      <g id="Group_1678" data-name="Group 1678" clip-path="url(#clip-path)">
        <path id="Path_5333" data-name="Path 5333" d="M26.693,26.139l-15.62.024a1.3,1.3,0,0,0,0,2.577l15.62-.024a1.3,1.3,0,0,0,0-2.577" transform="translate(13.438 35.315)" fill="#888"/>
        <path id="Path_5334" data-name="Path 5334" d="M26.693,27.67l-15.623.024a1.3,1.3,0,0,0,0,2.581l1.672,0,1.686,3.421s.813,1.1,1.234,1.218,5.224.649,6.712-.009a2.447,2.447,0,0,0,1.291-1.31c.44-.842,1.359-2.565,1.773-3.339l1.253,0a1.3,1.3,0,0,0,0-2.581" transform="translate(13.442 37.383)" fill="#888"/>
        <path id="Path_5335" data-name="Path 5335" d="M26.688,24.607l-15.62.024a1.3,1.3,0,0,0,0,2.579l15.62-.021a1.3,1.3,0,0,0,0-2.581" transform="translate(13.435 33.245)" fill="#888"/>
        <path id="Path_5336" data-name="Path 5336" d="M29.723,20.59l-3.95-1.968a1.671,1.671,0,0,0-2.255.609l-.012.024a1.667,1.667,0,0,0,.609,2.255l3.95,1.968a1.641,1.641,0,0,0,2.462-1.556,1.493,1.493,0,0,0-.8-1.331" transform="translate(31.489 24.891)" fill="#f9bf24"/>
        <path id="Path_5337" data-name="Path 5337" d="M8.086,19.232a1.671,1.671,0,0,0-2.262-.585q-1.975.991-3.943,1.98a1.472,1.472,0,0,0-.79,1.328,1.688,1.688,0,0,0,.214.955,1.66,1.66,0,0,0,2.264.585q1.971-.991,3.943-1.977A1.673,1.673,0,0,0,8.1,19.253l-.012-.021" transform="translate(1.471 24.913)" fill="#f9bf24"/>
        <path id="Path_5338" data-name="Path 5338" d="M29.746,10.511l-4.317.908a1.448,1.448,0,0,0-.922.644,1.414,1.414,0,0,0-.219.5,1.854,1.854,0,0,0-.026.879l.012.054a1.418,1.418,0,0,0,1.392,1.192,1.679,1.679,0,0,0,.635-.028q2.148-.48,4.3-.964c2.085-.468,1.215-3.625-.858-3.188" transform="translate(32.726 14.144)" fill="#f9bf24"/>
        <path id="Path_5339" data-name="Path 5339" d="M7.548,13.262a1.442,1.442,0,0,0-1.164-1.777q-2.151-.48-4.3-.962A1.667,1.667,0,0,0,.053,11.684l-.012.054A1.666,1.666,0,0,0,1.2,13.765l4.317.91a1.673,1.673,0,0,0,2.031-1.413" transform="translate(0.001 14.158)" fill="#f9bf24"/>
        <path id="Path_5340" data-name="Path 5340" d="M25.782,3.431,25.749,3.4a1.669,1.669,0,0,0-2.337.014q-1.375,1.728-2.746,3.454a1.685,1.685,0,0,0,.016,2.337.876.876,0,0,0,.12.106A1.648,1.648,0,0,0,23.024,9.2Q24.41,7.481,25.8,5.766a1.669,1.669,0,0,0-.016-2.335" transform="translate(27.295 3.958)" fill="#f9bf24"/>
        <path id="Path_5341" data-name="Path 5341" d="M10.247,6.871Q8.875,5.143,7.5,3.42a1.672,1.672,0,0,0-2.337.014l-.033.028A1.67,1.67,0,0,0,5.145,5.8Q6.534,7.51,7.926,9.225a1.411,1.411,0,0,0,1.267.466,1.77,1.77,0,0,0,1.07-.484,1.536,1.536,0,0,0,.451-.919,1.935,1.935,0,0,0-.468-1.415" transform="translate(6.288 3.978)" fill="#f9bf24"/>
        <path id="Path_5342" data-name="Path 5342" d="M14.7,0,14.68,0a1.672,1.672,0,0,0-1.672,1.641l.007,4.413a1.672,1.672,0,0,0,1.646,1.662h.024a1.563,1.563,0,0,0,1.1-.411,1.5,1.5,0,0,0,.56-1.232q0-2.2-.007-4.411A1.671,1.671,0,0,0,14.7,0" transform="translate(17.575 0)" fill="#f9bf24"/>
        <path id="Path_5343" data-name="Path 5343" d="M16.64,15.515a.777.777,0,0,0,.087-.726c-.1-.162-.2-.242-.3-.242-.23,0-.548.32-.7.621a2.4,2.4,0,0,0-.118,1.476,3.183,3.183,0,0,0,1.034-1.129" transform="translate(21.003 19.652)" fill="#f9bf24"/>
        <path id="Path_5344" data-name="Path 5344" d="M13.871,15.214a1.118,1.118,0,0,0,.026-.851c-.021-.038-.045-.054-.108-.056a.7.7,0,0,0-.237.061,1.363,1.363,0,0,0-.689.717,2.117,2.117,0,0,0-.1,1.7c.04-.047.08-.094.12-.143a7.187,7.187,0,0,0,.992-1.425" transform="translate(17.059 19.328)" fill="#f9bf24"/>
        <path id="Path_5345" data-name="Path 5345" d="M11.04,19.495a101.446,101.446,0,0,1,5.6,15.5l2.368,0a102.671,102.671,0,0,1,5.172-14.668,6.81,6.81,0,0,1-3.444-3.839,6.824,6.824,0,0,1-3.334.482,6.312,6.312,0,0,1-2.457-.691,13.058,13.058,0,0,1-3.91,3.219" transform="translate(14.916 21.989)" fill="#f9bf24"/>
        <path id="Path_5346" data-name="Path 5346" d="M9.873,16.44c-.033,0-.068-.007-.1-.007-.2,0-.426.08-.468.249a1.01,1.01,0,0,0,.237.846,2.344,2.344,0,0,0,1.665.86.847.847,0,0,0,.136-.009c-.125-.259-.254-.513-.386-.771-.263-.538-.595-1.1-1.081-1.168" transform="translate(12.537 22.201)" fill="#f9bf24"/>
        <path id="Path_5347" data-name="Path 5347" d="M18.85,16.625l-.007,0c-.054,0-.212.066-.578.663l-.026.047c-.228.454-.456.917-.694,1.408a1.918,1.918,0,0,0,1.208-.515,1.221,1.221,0,0,0,.3-.957c-.031-.447-.146-.614-.2-.644" transform="translate(23.704 22.458)" fill="#f9bf24"/>
        <path id="Path_5348" data-name="Path 5348" d="M25.788,4.893a21.043,21.043,0,0,0-8.755,40.163l.007,4.088a1.241,1.241,0,0,0,1.246,1.241l5.276-.007a98.342,98.342,0,0,0-5.473-15.028,3.484,3.484,0,0,1-3.1-.83,3.128,3.128,0,0,1-1.1-2.346,1.667,1.667,0,0,1,.823-1.3,2.072,2.072,0,0,1,1.11-.341,3.157,3.157,0,0,1,2.53,1.954q.254.5.5,1.006a10.61,10.61,0,0,0,3.451-2.807,3.043,3.043,0,0,1-.543-1.394,4.311,4.311,0,0,1,1.006-3.009,1.773,1.773,0,0,1,2.541-.39,1.838,1.838,0,0,1,.811,1.265c.15,1.147-.844,2.363-1.568,3.252-.035.04-.068.078-.1.118a3.236,3.236,0,0,0,.665.209,5.815,5.815,0,0,0,3.23-.1c.155-.059.306-.122.456-.19-.061-.31-.111-.616-.139-.915a3.159,3.159,0,0,1,1.138-3,1.977,1.977,0,0,1,1.241-.444,1.454,1.454,0,0,1,1.091.442,2.132,2.132,0,0,1,.654,1.728,4.069,4.069,0,0,1-1.773,2.591c-.143.1-.294.207-.447.3a5.25,5.25,0,0,0,2.692,3.226c.308-.651.621-1.293.938-1.918a.78.78,0,0,1,.078-.125c.275-.418.992-1.359,1.876-1.361a1.344,1.344,0,0,1,.9.364,2.7,2.7,0,0,1,.541,2.934,3.023,3.023,0,0,1-3.026,1.841c-.155,0-.308-.007-.463-.021a100.052,100.052,0,0,0-5.076,14.278l4.4-.007a1.244,1.244,0,0,0,1.246-1.246l-.007-4.086A21.043,21.043,0,0,0,25.788,4.893" transform="translate(6.454 6.61)" fill="#f9bf24"/>
      </g>
    </g>
  </g>
</svg>
