<svg xmlns="http://www.w3.org/2000/svg" xmlns:xlink="http://www.w3.org/1999/xlink" width="257.406" height="79.479" viewBox="0 0 257.406 79.479">
  <defs>
    <clipPath id="clip-path">
      <rect id="Rectangle_649" data-name="Rectangle 649" width="79.479" height="79.479" fill="none"/>
    </clipPath>
    <clipPath id="clip-path-2">
      <rect id="Rectangle_651" data-name="Rectangle 651" width="168.761" height="65.574" fill="none"/>
    </clipPath>
  </defs>
  <g id="Group_1682" data-name="Group 1682" transform="translate(-698.939 -3132.737)">
    <g id="Group_1583" data-name="Group 1583" transform="translate(698.939 3132.737)">
      <g id="Group_1582" data-name="Group 1582" transform="translate(0 0)" clip-path="url(#clip-path)">
        <path id="Path_4885" data-name="Path 4885" d="M79.479,39.738A39.739,39.739,0,1,1,39.74,0,39.738,39.738,0,0,1,79.479,39.738" transform="translate(0 0.001)" fill="#eeeeef"/>
        <path id="Path_4886" data-name="Path 4886" d="M75.083,38.186A36.9,36.9,0,1,1,38.189,1.292,36.894,36.894,0,0,1,75.083,38.186Z" transform="translate(1.552 1.553)" fill="none" stroke="#595757" stroke-miterlimit="10" stroke-width="0.5"/>
        <path id="Path_4887" data-name="Path 4887" d="M5.651,30.09a4.954,4.954,0,0,1,.689-2.384,5.595,5.595,0,0,1,4.03-2.67,4.944,4.944,0,0,1,2.472.291l-.145.1a5.477,5.477,0,0,0-4.361.92A5.484,5.484,0,0,0,5.787,30Z" transform="translate(6.788 30.017)" fill="#595757"/>
        <path id="Path_4888" data-name="Path 4888" d="M13.228,31.434a1.4,1.4,0,0,1,.11.557.834.834,0,0,1,0,.376c-.084.088-.2.079-.365-.026a5.467,5.467,0,0,1-2.19.2,10.8,10.8,0,0,0,1.825,2.736.882.882,0,0,0-.161.134.739.739,0,0,0-.271-.128,1.116,1.116,0,0,0-.467.1c-.121.073-.211.084-.26.037A9.023,9.023,0,0,1,10.23,32.93a3.876,3.876,0,0,1-.145-.506,10.254,10.254,0,0,1-3.859-1.9l.07-.112a10.927,10.927,0,0,0,3.678,1.356,6.657,6.657,0,0,1,.231-2.329l-.013-.013a3.711,3.711,0,0,0-.645-.5,3.078,3.078,0,0,0,.172-.394,5.231,5.231,0,0,0,.632.718l2.223,2.107a1.982,1.982,0,0,1,.654.086m2.056-1.946c.392.779.553,1.2.486,1.277q-.1.086-.515-.284a4.092,4.092,0,0,1-1.818-.02l.955.9a1.563,1.563,0,0,1,.744.042,1.719,1.719,0,0,1,.1.568c.02.361.011.564-.035.61-.062.066-.161.04-.293-.077a1.573,1.573,0,0,0-.209-.141,5.571,5.571,0,0,1-1.178-.284.522.522,0,0,1-.033-.139,3.224,3.224,0,0,0,.812-.357l-3.951-3.746-.035.04q-.776.816-1.343.317c-.216-.207-.258-.387-.123-.544a.537.537,0,0,1,.24-.167,1.706,1.706,0,0,1,.522.022,1.483,1.483,0,0,0,1.092-.387c.062.068.095.1.1.108a5.22,5.22,0,0,1-.31.438l2.758,2.617a4.563,4.563,0,0,0,2.034-.8m-4.9.112a6.561,6.561,0,0,0,.125,2.217,4.83,4.83,0,0,0,1.952-.247Zm1.4-2.956a2.01,2.01,0,0,1,.341.63.857.857,0,0,1-.106.885.574.574,0,0,1-.42.2.439.439,0,0,1-.277-.145q-.178-.168.053-.541a2.085,2.085,0,0,0,.24-.568,2.922,2.922,0,0,0,.051-.451,1.02,1.02,0,0,0,.119-.013m4.537,2.225a3.573,3.573,0,0,1,.167,1.237c-.046.048-.117.033-.2-.051-.15-.192-.275-.343-.372-.458a33.136,33.136,0,0,1-4.574-3.65.542.542,0,0,0,.081-.145,22.5,22.5,0,0,0,4.9,3.066m-3.128-.986a2.2,2.2,0,0,1,.332.623.853.853,0,0,1-.1.889.508.508,0,0,1-.418.194.373.373,0,0,1-.277-.13c-.119-.112-.1-.295.057-.55a2.5,2.5,0,0,0,.236-.559,2.278,2.278,0,0,0,.046-.451c.031,0,.07-.011.123-.015" transform="translate(7.479 30.995)" fill="#595757"/>
        <path id="Path_4889" data-name="Path 4889" d="M11.2,32.226l.467.493,1.035.5c.295-.106.475-.143.544-.11a1.025,1.025,0,0,1,.293.42c.11.218.15.359.119.42-.02.04-.079.066-.178.075a2.119,2.119,0,0,0-.3.064l-.451.929c-.139.365-.236.608-.293.718-.077.163-.244.18-.506.062-.185-.09-.262-.185-.233-.286l.207-.425L10.9,34.6l-.211.434c-.1.136-.266.147-.5.033-.143-.07-.222-.141-.233-.209.2-.418.407-.821.616-1.213l.385-.788a2.994,2.994,0,0,0,.249-.632M11,34.383l1.006.491.685-1.409-1.006-.486Zm2.8-2.547a.354.354,0,0,1,.1.145,2.076,2.076,0,0,1,.218.656c-.035.07-.068.095-.106.077l-1.662-.808a4.078,4.078,0,0,0-.8-.308,2.467,2.467,0,0,0,.042-.361,8.825,8.825,0,0,0,.852.469l.759.368c.174-.086.337-.161.489-.22a.174.174,0,0,1,.1-.018m.553-1.041a.334.334,0,0,1,.1.145,2.242,2.242,0,0,1,.216.665c-.035.068-.07.095-.106.077l-1.7-.825a3.5,3.5,0,0,0-.8-.3,2.891,2.891,0,0,0,.051-.376,6.652,6.652,0,0,0,.85.478l.788.383q.274-.132.5-.225a.169.169,0,0,1,.1-.018m.689-1.041a.326.326,0,0,1,.106.156,2.631,2.631,0,0,1,.258.788c-.033.066-.068.086-.11.068L13,29.651a4.1,4.1,0,0,0-.795-.31c.018-.1.033-.227.048-.379a5.708,5.708,0,0,0,.845.489l1.23.6c.209-.108.407-.2.592-.275.062-.022.1-.029.123-.018m-1.191-1.783a1.811,1.811,0,0,1,.484.5.875.875,0,0,1,.152.885.511.511,0,0,1-.317.3.424.424,0,0,1-.282-.053c-.154-.075-.192-.255-.117-.544a2.086,2.086,0,0,0,.046-.627,1.78,1.78,0,0,0-.077-.409l.11-.053m5.309,2.492a2.948,2.948,0,0,1,.458.966c-.026.053-.081.059-.169.015-.18-.112-.328-.2-.436-.28a4.564,4.564,0,0,1-1.433.013l-1.1,2.258c.271.075.541.145.814.214.478-.381.748-.555.817-.522a1.981,1.981,0,0,1,.4.5c.183.306.262.482.24.528-.029.062-.086.077-.165.044q-1.38-.307-2.228-.508l-1.208,2.492a.347.347,0,0,0,.178.438l.61.3q.34.165.66-.4a11.418,11.418,0,0,0,.735-1.059.66.66,0,0,0,.136.088L16.919,36.7a.487.487,0,0,0-.035.431.417.417,0,0,1,.088.427c-.084.176-.288.236-.612.18a3.746,3.746,0,0,1-.916-.321c-.315-.152-.517-.258-.6-.31q-.825-.469-.5-1.173l1.186-2.443a8.546,8.546,0,0,0-1.206-.233,2.8,2.8,0,0,1-.062-.5,8.743,8.743,0,0,0,1.4.46L16.739,31a10.194,10.194,0,0,1-1.219-.4.7.7,0,0,0,.031-.147,6.986,6.986,0,0,0,3.617.015" transform="translate(11.952 33.599)" fill="#595757"/>
        <path id="Path_4890" data-name="Path 4890" d="M15.7,31.658a3.366,3.366,0,0,0-.869-.057c-.035-.123-.068-.28-.106-.478a8.791,8.791,0,0,0,1.1.284l.187-1.286c.02-.251.033-.5.04-.733.244.07.5.147.781.236.2.066.293.134.282.207-.007.046-.055.068-.15.073-.15.031-.227.062-.231.088l-.218,1.5c.236-.308.381-.458.431-.449s.106.11.2.313a1.769,1.769,0,0,1,.141.4c-.013.079-.048.119-.112.114l-.7-.1-.1.656q.72.68.643,1.189a.273.273,0,0,1-.125.218.254.254,0,0,1-.172.024c-.163-.022-.253-.214-.271-.577a2.652,2.652,0,0,0-.119-.539l-.407,2.774c-.106.841-.181,1.437-.225,1.783-.02.13-.2.172-.533.121-.165-.022-.24-.084-.225-.181.055-.3.154-.918.3-1.858l.269-1.847a6.488,6.488,0,0,1-1.274,1.761.212.212,0,0,1-.092-.128,12.289,12.289,0,0,0,1.554-3.5m6.042,2.71c.051.009.147.11.293.31a1.082,1.082,0,0,1,.242.374c-.013.079-.051.119-.114.114l-2.091-.306c.013.181.031.339.051.469.051.216.1.416.158.6a4.162,4.162,0,0,0,.656-.755c.517.4.766.656.748.768-.007.04-.051.055-.134.042a1.669,1.669,0,0,0-.328-.031,3.549,3.549,0,0,1-.691.577,1.633,1.633,0,0,0,.621.682c.167,0,.385-.339.654-1.017a1.372,1.372,0,0,0,.132.053q-.092.31-.24,1.1a.532.532,0,0,0,.108.39.444.444,0,0,1,.088.291c-.022.141-.192.189-.506.143a2.353,2.353,0,0,1-1.444-1.308c-.088.04-.174.077-.26.11a6.569,6.569,0,0,1-2.479.55.912.912,0,0,0-.077-.123,7,7,0,0,0,2.131-.784,3.661,3.661,0,0,0,.484-.277,1.878,1.878,0,0,1-.1-.284,6.325,6.325,0,0,1-.222-1.283L18.274,34.6a4.253,4.253,0,0,1-.119.46,1.926,1.926,0,0,1,.42.262.9.9,0,0,1,.462.832.318.318,0,0,1-.147.24.258.258,0,0,1-.178.024.543.543,0,0,1-.462-.519,2.211,2.211,0,0,0-.2-.55,3.444,3.444,0,0,1-2.019,2.043.268.268,0,0,0-.048-.092,4.176,4.176,0,0,0,1.607-2.791,3.108,3.108,0,0,0-.834-.051c-.037-.117-.073-.275-.114-.478a7.077,7.077,0,0,0,.991.249,7.392,7.392,0,0,0,.092-.821c.7.2,1.037.341,1.024.427s-.128.1-.359.086c-.024.154-.046.295-.07.425L19.4,34.5a18.438,18.438,0,0,1,.218-3.383c.018-.24.042-.5.079-.786a2.166,2.166,0,0,0,.033-.456q1.066.363,1.046.508c-.009.062-.147.125-.418.189a25.448,25.448,0,0,0-.3,4.024l1.125.163c.3-.269.486-.4.561-.394m-3.434-4.44c.592.266.883.447.867.544-.009.055-.152.077-.427.059a3.618,3.618,0,0,1-.8.924c.185.04.374.077.566.11a4.017,4.017,0,0,0,.273-.553c.46.26.685.418.678.473s-.119.081-.317.075a5.474,5.474,0,0,1-1.263,1.224c.284.035.583.077.9.123a2.042,2.042,0,0,0-.121-.478c.02-.015.046-.031.075-.051q.594.522.537.922a.324.324,0,0,1-.163.271.269.269,0,0,1-.2.04c-.081-.011-.117-.154-.11-.431a.308.308,0,0,1,0-.064,6.536,6.536,0,0,1-1.341.24c-.042.1-.073.152-.092.161s-.026.031-.055.026a2.823,2.823,0,0,1-.128-.852c.143.015.291.033.445.055a6.518,6.518,0,0,0,.726-.92,6.428,6.428,0,0,1-.718.132q-.063.145-.092.158c-.007.022-.026.031-.055.026a2.809,2.809,0,0,1-.13-.843l.376.108a5.487,5.487,0,0,0,.575-1.481m2.947.275q.888.416.867.553c-.007.051-.15.073-.427.068a3.783,3.783,0,0,1-.856.986c.22.037.445.075.669.106a4.216,4.216,0,0,0,.291-.557c.511.284.759.46.748.528q-.02.076-.33.073a5.691,5.691,0,0,1-1.367,1.191c.3.037.614.081.938.128a1.378,1.378,0,0,0-.141-.462c.024-.013.059-.033.106-.055.449.368.652.691.612.969a.339.339,0,0,1-.18.293.319.319,0,0,1-.227.046c-.095-.013-.143-.165-.141-.456a1.015,1.015,0,0,0,0-.141,6.836,6.836,0,0,1-1.013.2,1.189,1.189,0,0,1,.282.154c.211.154.3.315.277.484a.4.4,0,0,1-.165.3.325.325,0,0,1-.231.029c-.084-.013-.128-.11-.13-.288a1.138,1.138,0,0,0-.07-.359,1.028,1.028,0,0,0-.156-.293c-.057,0-.123.009-.194.015a.538.538,0,0,1-.092.161c-.009.015-.026.022-.055.018a2.866,2.866,0,0,1-.139-.845l.436.062a6.048,6.048,0,0,0,.781-.944,5.241,5.241,0,0,1-.814.158,1.4,1.4,0,0,1-.084.152.037.037,0,0,1-.046.02,2.475,2.475,0,0,1-.128-.781c.123.022.244.044.365.062a5.89,5.89,0,0,0,.619-1.569" transform="translate(16.991 35.303)" fill="#595757"/>
        <path id="Path_4891" data-name="Path 4891" d="M19.315,32.389a3.462,3.462,0,0,0-.847.2,3.213,3.213,0,0,1-.249-.423,7.8,7.8,0,0,0,1.12-.07l-.2-1.257c-.055-.247-.117-.484-.18-.711.253,0,.526-.007.817-.007.209,0,.321.04.332.114,0,.046-.035.084-.123.114-.134.073-.2.123-.194.152l.236,1.512L20.125,32c.161-.385.271-.581.335-.59.044-.007.147.073.306.238a1.225,1.225,0,0,1,.286.332c.013.077-.013.125-.073.141l-.909.141.108.7c.711.284,1.094.6,1.147.944a.339.339,0,0,1-.086.335.331.331,0,0,1-.2.11c-.183.026-.337-.134-.464-.486a2.231,2.231,0,0,0-.343-.572l.42,2.694c.141.841.247,1.433.31,1.776.022.132-.134.222-.471.273-.169.029-.262-.007-.277-.1q-.043-.456-.255-1.867L19.7,34.392a5.093,5.093,0,0,1-.777,1.7A.218.218,0,0,1,18.78,36a10.476,10.476,0,0,0,.535-3.61m6.306-.731a.773.773,0,0,1,.187.075c.31.2.469.328.48.4.013.086-.009.13-.064.139l-2.353.368.106.689.764-.119c.225-.284.365-.431.427-.44a1.468,1.468,0,0,1,.414.134c.26.134.4.236.412.3a.2.2,0,0,1-.1.2,1.427,1.427,0,0,0-.185.2l.229,1.477.051-.007c.11-.407.192-.612.242-.621.031,0,.11.088.244.275a1.768,1.768,0,0,1,.24.363c.011.084-.013.134-.084.152l-.652.1.119.773a.994.994,0,0,1-.735,1.142q-.208,0-.231-.145a.79.79,0,0,0-.361-.372,3.031,3.031,0,0,0-.74-.163.694.694,0,0,0,0-.139,9.7,9.7,0,0,0,1.039-.092c.2-.031.286-.1.273-.209l-.108-.678-2.534.394.238,1.512c-.007.183-.152.295-.434.337-.172.029-.28.015-.328-.033-.09-.579-.169-1.14-.238-1.688a2.978,2.978,0,0,0-.7.169,3.1,3.1,0,0,1-.247-.412,7.084,7.084,0,0,0,.9-.057l-.2-1.281a5.657,5.657,0,0,0-.22-.975l.808.169.909-.141-.108-.689-.687.108a5.111,5.111,0,0,0-1.285.3,3.847,3.847,0,0,0-.282-.409,8.836,8.836,0,0,0,1.413-.143l-.106-.68a2.723,2.723,0,0,0-.762.189,3.093,3.093,0,0,1-.251-.423,6.018,6.018,0,0,0,.969-.055l-.092-.594a5.274,5.274,0,0,0-1.063.227c-.062-.108-.141-.244-.238-.416a9.233,9.233,0,0,0,1.255-.09l-.015-.112a7.426,7.426,0,0,0-.2-.927q1.258-.013,1.281.132.017.1-.132.158c-.158.1-.236.176-.233.229l.064.407.841-.132-.02-.117a6.815,6.815,0,0,0-.2-.927c.839-.009,1.266.033,1.281.13.011.068-.031.121-.13.161-.161.1-.238.176-.236.227l.064.409.4-.064c.209-.346.348-.526.423-.544.055-.009.183.059.376.2a1.616,1.616,0,0,1,.343.286c.013.09-.018.143-.088.161l-1.411.22.1.63.282-.046c.189-.306.317-.467.385-.484s.169.053.341.192a1.032,1.032,0,0,1,.3.264c.013.079-.011.125-.073.141l-1.2.187.106.689.577-.09a2.563,2.563,0,0,1,.368-.493.265.265,0,0,1,.059,0m-2.391,2.01-.85.132.117.748.847-.132Zm-.572,1.915.852-.13-.13-.817-.85.132ZM23.7,31.419l-.1-.63-.839.132.1.627Zm.15.942-.108-.687-.841.13.108.689Zm1.175,1.794-.117-.748-.9.139.117.748Zm-.74,1.175.9-.139-.125-.819-.9.143Z" transform="translate(21.885 35.413)" fill="#595757"/>
        <path id="Path_4892" data-name="Path 4892" d="M28.53,31.245a1.377,1.377,0,0,1,.53.02c.266.048.418.1.449.172.024.044.007.114-.048.207a.888.888,0,0,0-.1.273l.649,1.3c.28.5.458.817.53.966.086.169-.007.324-.275.464-.207.1-.335.11-.394.022l-.222-.445L27,35.549c.075.134.143.264.211.385.024.165-.119.328-.438.486-.158.079-.26.075-.306-.011q-.343-.73-.773-1.583l-.473-.947a12.509,12.509,0,0,1-1.706,1.968.581.581,0,0,0-.123-.09,17.05,17.05,0,0,0,1.952-3.016,7.123,7.123,0,0,0,.909-3.581l-1.853.927a8.093,8.093,0,0,1-.508,1.352c.759-.266,1.239-.238,1.437.081a.826.826,0,0,1,.095.288.347.347,0,0,1-.192.383c-.088.044-.282-.024-.586-.207a2.138,2.138,0,0,0-.839-.35,7.761,7.761,0,0,1-1.083,1.6.75.75,0,0,0-.18-.015,7,7,0,0,0,1.063-4.235,3.814,3.814,0,0,1,1.305-.114c.057.106-.057.247-.337.418a4.792,4.792,0,0,1-.112.546l1.653-.828a1.826,1.826,0,0,1,.3-.687,1.356,1.356,0,0,1,.561.064c.385.09.592.167.627.233s-.081.222-.361.434A9.181,9.181,0,0,1,25.8,32.978c-.026.048-.048.095-.07.128h.059l2.5-1.252c.079-.359.156-.564.236-.608m-2.672,2.078.572,1.14c.136.277.293.57.464.889l2.652-1.33-1.021-2.036Z" transform="translate(27.083 34.006)" fill="#595757"/>
        <path id="Path_4893" data-name="Path 4893" d="M26.095,30.363a10.565,10.565,0,0,1-.737.854,1.309,1.309,0,0,0-.134-.086,5.079,5.079,0,0,0,.925-2.408,3.345,3.345,0,0,1,1.153-.1c.042.046.024.108-.053.183-.185.136-.332.249-.445.332a3.368,3.368,0,0,1-.3.632l1.076,1.114.172-.165a5.359,5.359,0,0,1-.037-.586c0-.062,0-.1.02-.114a.293.293,0,0,1,.178-.053,2.406,2.406,0,0,1,.751.024c.053.053.064.1.029.13l-.958.925.39.4c.812-.2,1.358-.152,1.631.132a.445.445,0,0,1,.158.374.439.439,0,0,1-.132.249c-.123.117-.357.059-.7-.178a2.27,2.27,0,0,0-.729-.337l2.1,2.175q.36.32.825.8c.073.075.009.216-.185.429-.161.154-.266.207-.317.154-.154-.185-.438-.491-.861-.929l-1.481-1.536a4.908,4.908,0,0,1,.339,2.186c-.02.018-.059.011-.114-.022a8.275,8.275,0,0,0-1.292-2.888c-.112-.172-.2-.3-.266-.4l-.1.1a3.9,3.9,0,0,0-.566.641,2.8,2.8,0,0,0-.326-.167,7.578,7.578,0,0,0,.735-.636l.229-.22Zm3.3-4.781a3.1,3.1,0,0,1,1.063-.1c.033.042.026.09-.02.15-.123.1-.244.2-.365.293a16.627,16.627,0,0,1-2.705,3.088.575.575,0,0,1-.095-.086,15.438,15.438,0,0,0,2.122-3.348m-1.536,3.273q.9-.271,1.191.033c.2.207.214.4.044.568a.3.3,0,0,1-.475-.009,1.244,1.244,0,0,0-.214-.174c-.1-.059-.207-.123-.332-.194a1.233,1.233,0,0,0-.24-.1.653.653,0,0,1,.026-.121m.92-1.125c.572-.158.958-.134,1.153.068s.22.4.048.572a.3.3,0,0,1-.478-.015,1.536,1.536,0,0,0-.2-.172c-.095-.068-.2-.139-.313-.214a1.074,1.074,0,0,0-.233-.108.611.611,0,0,1,.026-.132m.167,2.562.605-.253.7-.678a4.644,4.644,0,0,0-.627-.566c.636-.462.988-.663,1.05-.6.048.051.042.114-.015.2-.07.158-.09.253-.053.291l.167.172.577-.555c-.031-.379-.026-.586.015-.625a2.517,2.517,0,0,1,.385-.11c.271-.037.431-.037.48,0a.207.207,0,0,1,.037.2,1.181,1.181,0,0,0-.046.249l1.338,1.387c-.15-.436-.209-.674-.176-.715s.165,0,.407.075a1.72,1.72,0,0,1,.44.172c.055.057.062.11.022.158l-.515.5.759.786a.961.961,0,0,1,.136,1.281c-.121.081-.214.088-.282.018a.691.691,0,0,0-.5-.1,2.308,2.308,0,0,0-.671.269.743.743,0,0,0-.084-.112,8.723,8.723,0,0,0,.74-.619q.2-.191.086-.31l-.693-.718-1.763,1.7,1.29,1.338c.09.141.042.306-.147.489-.121.114-.214.165-.277.147q-.716-.743-1.374-1.448c-.218.227-.324.352-.31.372-.11-.046-.253-.117-.434-.214a3.5,3.5,0,0,0,.524-.4l-.98-1.015a7.9,7.9,0,0,0-.812-.768m2.135-.079-.656-.68-.59.568.658.68Zm-1.142-3.821a8.074,8.074,0,0,1,.79-.357c.181-.077.286-.1.319-.079s.029.1-.022.189c-.079.123-.132.211-.163.264a1.888,1.888,0,0,1-.009,1.442l-.11.046a3.845,3.845,0,0,0-.806-1.506M31.283,31.6l.59-.568-.627-.647-.588.564Zm.971-2.525L31.6,28.4l-.656.632.656.682Zm-.489.806.627.649.656-.632-.627-.649Z" transform="translate(30.298 30.589)" fill="#595757"/>
        <path id="Path_4894" data-name="Path 4894" d="M32.048,25.8a5.3,5.3,0,0,1,1.726,1.779,4.928,4.928,0,0,1,.711,2.379l-.136-.09a5.5,5.5,0,0,0-2.58-3.636,5.491,5.491,0,0,0-4.369-.878l-.147-.095a4.965,4.965,0,0,1,2.47-.315,5.34,5.34,0,0,1,2.327.856" transform="translate(32.735 29.909)" fill="#595757"/>
        <ellipse id="Ellipse_45" data-name="Ellipse 45" cx="23.174" cy="23.174" rx="23.174" ry="23.174" transform="translate(16.565 16.566)" fill="none" stroke="#595757" stroke-miterlimit="10" stroke-width="0.471"/>
        <path id="Path_4895" data-name="Path 4895" d="M4.313,20.357,4.8,19.6l.53-2.476c-.453-.048-.929-.119-1.426-.216l-.24,1.12A7.6,7.6,0,0,0,3.5,19c-.117.013-.26.029-.434.051a5.9,5.9,0,0,0,.352-1.14l.192-.891c-.24-.231-.354-.4-.343-.506.018-.079.132-.194.346-.341.222-.174.372-.255.447-.238.046.009.084.07.114.187.055.295.121.449.2.467.275.057.623.114,1.039.167l.445-2.08c-.249-.352-.365-.564-.352-.625a2.182,2.182,0,0,1,.3-.359c.238-.22.4-.326.473-.315a.234.234,0,0,1,.172.172.924.924,0,0,0,.11.277l4.246.909a1.145,1.145,0,0,1,.973,1.193c-.066.163-.154.229-.269.2a.859.859,0,0,0-.559.249,3.062,3.062,0,0,0-.493.744.942.942,0,0,0-.152-.051c.154-.471.266-.869.337-1.191.044-.214,0-.335-.132-.363l-4.4-.944-.469,2.192a3.612,3.612,0,0,0,3.093-1.448.551.551,0,0,1,.156.068.811.811,0,0,0,.233.348,1.793,1.793,0,0,0,.273.2.2.2,0,0,1,.1.158,4.263,4.263,0,0,1-2.941,1.094c-.081,0-.158,0-.236,0,.163.077.31.154.438.229a3.773,3.773,0,0,1,1.906,2.611.251.251,0,0,0-.112.02,4.343,4.343,0,0,0-1.79-1.891,5.485,5.485,0,0,0-1.292-.583l-.431,2.01,5.43,1.167c.187.081.247.273.183.57-.042.2-.1.3-.167.326-.98-.211-1.933-.423-2.862-.641L5.75,20.6a11.279,11.279,0,0,0-1.437-.244" transform="translate(3.686 16.069)" fill="#595757"/>
        <path id="Path_4896" data-name="Path 4896" d="M5.694,11.961a1.451,1.451,0,0,1,.249-.13c.508-.183.808-.251.9-.2a.1.1,0,0,1,.044.15l-.85,1.435,1.924,1.138.139-.236c-.26-.416-.381-.663-.359-.746a1.443,1.443,0,0,1,.55-.117,3.38,3.38,0,0,1,.354-.026,12.03,12.03,0,0,0-2.538-2.351c.564-.625.883-.913.964-.867s.062.218-.048.517a7.149,7.149,0,0,1,1.019,1.032l.777-1.314a2.764,2.764,0,0,1-.242-.718.069.069,0,0,1,.013-.055A1.365,1.365,0,0,1,9,9.3a1.49,1.49,0,0,1,.572-.1c.07.044.1.084.09.125l-.4.669a9.547,9.547,0,0,1,2.406,2.487,4.12,4.12,0,0,1,.216.363.793.793,0,0,0,.147-.024,5.252,5.252,0,0,0,2.087-.962c.033.026.075.064.123.106a.823.823,0,0,0-.092.365.673.673,0,0,0,.108.321c.1.136.125.24.092.308a2.3,2.3,0,0,1-.977.368,4.768,4.768,0,0,1-1.206.187,4.893,4.893,0,0,1-.178,3.271.357.357,0,0,1-.145-.035,6.024,6.024,0,0,0-.409-3.26,7.375,7.375,0,0,1-2.624-.8,7.1,7.1,0,0,1,.579,1.378.284.284,0,0,1-.119.044,6.432,6.432,0,0,0-.471-.678l-.623,1.057L10.5,15.86q.248-.736.478-1.484l.143.015a18.182,18.182,0,0,1-.709,3.834.937.937,0,0,0,.282.271c.07.053.088.11.055.165q-.066.112-.8.02a3.7,3.7,0,0,0-.608-.07c.088-.18.174-.361.258-.537l-2.82-1.666a4.873,4.873,0,0,0-.8-.4q.756-.948.878-.876c.059.035.073.1.037.2-.029.174-.02.275.026.3L9.9,17.392c.108-.26.209-.515.308-.764L5.624,13.921l-.354.6a3.254,3.254,0,0,0-.462.988,3.733,3.733,0,0,0-.515-.046,4.067,4.067,0,0,0,.6-.845l1-1.693a3.691,3.691,0,0,1-.253-.891.651.651,0,0,1,.053-.07m2.954.467a5.463,5.463,0,0,0,2.468.524.362.362,0,0,0-.031-.048,9.209,9.209,0,0,0-2.239-2.195l-.634,1.07a6.691,6.691,0,0,1,.436.649" transform="translate(5.156 11.044)" fill="#595757"/>
        <path id="Path_4897" data-name="Path 4897" d="M9.523,8.412a.4.4,0,0,1,.2-.048,2.6,2.6,0,0,1,.834.088c.048.055.055.1.02.13L8.024,10.8a3.986,3.986,0,0,0-.6.612c-.088-.057-.2-.121-.343-.194a5.464,5.464,0,0,0,.795-.592L9.523,9.2a4.692,4.692,0,0,1-.029-.667c0-.064.009-.1.029-.117m-2.254.933c.63-.442,1.087-.522,1.369-.24a1.015,1.015,0,0,1,.172.264.346.346,0,0,1-.106.416c-.059.051-.242.015-.55-.108A2.452,2.452,0,0,0,7.3,9.462a.207.207,0,0,0-.031-.117m.762,1.981a1.907,1.907,0,0,1,.685-.2,1.062,1.062,0,0,1,.958.324.562.562,0,0,1,.167.449.426.426,0,0,1-.167.264c-.117.1-.308.031-.581-.211a2.936,2.936,0,0,0-.59-.385,1.853,1.853,0,0,0-.456-.095.53.53,0,0,1-.015-.141M9.6,9.748c.773-.348,1.2-.478,1.272-.387.051.055-.048.216-.3.478a4.1,4.1,0,0,1,.172,1.6l.594-.515a3.653,3.653,0,0,1-.015-.652c0-.068.015-.108.035-.123a.373.373,0,0,1,.189-.037,2.279,2.279,0,0,1,.832.07c.046.055.055.1.024.123L9.548,12.781a4.634,4.634,0,0,0-.621.621c-.088-.057-.2-.119-.324-.187a7,7,0,0,0,.792-.608l1.173-1.017A7.371,7.371,0,0,0,9.6,9.748m.216,3.879.817-.3L11.936,12.2q0-.525.1-.614a1.224,1.224,0,0,1,.541-.117c.275-.022.44,0,.489.053a.213.213,0,0,1,.018.209,1.015,1.015,0,0,0-.042.3l.817.94c.339.339.552.559.645.667.128.145.077.326-.156.533-.178.154-.3.194-.385.123l-.346-.4L12.22,15.1l.251.286c.092.161.029.335-.187.524-.139.121-.244.169-.313.154-.339-.392-.66-.779-.96-1.164l-.654-.753a3.091,3.091,0,0,0-.546-.522M11.92,5.612a1.571,1.571,0,0,1,.528-.051c.324,0,.511.024.557.077s.037.112-.013.187a2.19,2.19,0,0,0-.174.35,10.83,10.83,0,0,1,.352,2.5,2.986,2.986,0,0,1,2.8.614,1.316,1.316,0,0,1,.136,1.842.218.218,0,0,1-.282-.011.791.791,0,0,0-.568-.185,1.283,1.283,0,0,0-.414.1.354.354,0,0,0-.077-.13,2.143,2.143,0,0,0,.548-.324.567.567,0,0,0-.007-.869A2.469,2.469,0,0,0,13.034,8.8,7.2,7.2,0,0,0,12,6.349l-.9.779,4.682,5.4c.084.169.015.348-.2.537-.134.114-.238.163-.306.147q-1.218-1.41-2.355-2.771l-1.554-1.8c-.68-.757-1.092-1.2-1.239-1.321l.773-.284.913-.79a1.165,1.165,0,0,1,.11-.643m.152,9.315,1.393-1.208-1.259-1.455-1.4,1.208Z" transform="translate(8.505 6.68)" fill="#595757"/>
        <path id="Path_4898" data-name="Path 4898" d="M10.793,6.177q1.344-.423,1.587.048a1.131,1.131,0,0,1,.095.343.4.4,0,0,1-.255.42c-.092.04-.284-.042-.577-.238a2.345,2.345,0,0,0-.872-.42.3.3,0,0,0,.022-.154M11.185,8.3c.8-.249,1.277-.211,1.444.108a1.114,1.114,0,0,1,.086.348.4.4,0,0,1-.26.412c-.081.035-.249-.055-.5-.269a2.348,2.348,0,0,0-.781-.449.211.211,0,0,0,.013-.15m2.065-.993c.011.022.059.02.152,0q.1.891.266,2.366a11.37,11.37,0,0,0,.253,1.622,3.679,3.679,0,0,0,.374.647,2.853,2.853,0,0,1,.363.528c.106.255.018.442-.264.559a.49.49,0,0,1-.718-.275c-.053-.13-.147-.425-.282-.885-.112-.273-.247-.423-.4-.445a1.736,1.736,0,0,0-.493.013,1,1,0,0,1-.037-.158c.081-.031.161-.062.233-.086a.756.756,0,0,0,.489-.729Zm-.31-2.012q1.595.178,1.869.839a.447.447,0,0,1,.011.416.418.418,0,0,1-.216.2c-.2.081-.42-.073-.678-.456a2.418,2.418,0,0,0-1.046-.865,1.069,1.069,0,0,1,.059-.13m1.673-1.219q1.241-.327,1.3-.178c.024.064,0,.125-.086.187-.134.139-.192.233-.178.284l.843,2.03.856-.357c.163-.361.271-.553.326-.572a1.989,1.989,0,0,1,.475.04q.479.116.528.211a.253.253,0,0,1-.044.238,1.95,1.95,0,0,0-.165.249l1.4,3.359a1.1,1.1,0,0,1-.484,1.413c-.145.035-.24,0-.282-.1a.733.733,0,0,0-.445-.313,2.425,2.425,0,0,0-.755-.02.733.733,0,0,0-.042-.145,7.847,7.847,0,0,0,.962-.315c.2-.084.277-.183.229-.3l-.445-1.065L15.92,9.84l.819,1.972c.04.2-.081.359-.365.475-.185.077-.306.092-.363.048q-.512-1.232-.969-2.4l-.654-1.574a7.826,7.826,0,0,0-.55-1.156l.775-.026,1.149-.48-.729-1.752a6.9,6.9,0,0,0-.42-.874m.678,4.248,2.688-1.118-.416-1L14.872,7.32Zm.541,1.3,2.688-1.118-.447-1.074L15.385,8.553Zm.883-6.036a3.248,3.248,0,0,1,1.277.262c.026.066-.013.121-.117.163s-.209.09-.321.145A6.07,6.07,0,0,1,16.8,5.889a.254.254,0,0,1-.119-.075,5.277,5.277,0,0,0,.033-2.223" transform="translate(12.938 4.314)" fill="#595757"/>
        <path id="Path_4899" data-name="Path 4899" d="M15.3,3.26l.861.266,1.021-.07a1.238,1.238,0,0,1,.475-.4,1.393,1.393,0,0,1,.471.286c.255.194.385.324.39.387s-.04.121-.132.152c-.176.081-.293.141-.35.174A9.653,9.653,0,0,1,17,6.016,2.876,2.876,0,0,1,18.524,8.14a1.2,1.2,0,0,1-.918,1.418c-.088,0-.152-.059-.189-.183a.794.794,0,0,0-.3-.491,1.235,1.235,0,0,0-.348-.169.249.249,0,0,0,.026-.154,2.166,2.166,0,0,0,.5.029.432.432,0,0,0,.4-.522,2.806,2.806,0,0,0-.867-2.021,7.465,7.465,0,0,0,.456-2.384l-1.085.075.511,7.3c-.024.185-.18.286-.475.308-.183.013-.293-.009-.33-.064q-.135-1.905-.236-3.729l-.169-2.439A17.227,17.227,0,0,0,15.3,3.26m7.112.469a1.258,1.258,0,0,1,.229.125c.405.295.61.486.616.575s-.02.128-.079.13l-2.985.209c.011.229.022.528.044.9.02.288.026.561.022.821l1.382-.1c.231-.3.381-.453.445-.464a.857.857,0,0,1,.42.2c.251.172.376.3.381.381a.163.163,0,0,1-.1.176,1.782,1.782,0,0,0-.2.216,15.077,15.077,0,0,1-.209,2.855,1.228,1.228,0,0,1-.966,1.015.192.192,0,0,1-.214-.169c-.013-.183-.156-.359-.434-.528a2.825,2.825,0,0,0-.6-.233.639.639,0,0,0,.007-.167,7.6,7.6,0,0,0,1.074.051c.2-.015.339-.189.416-.526A11.008,11.008,0,0,0,21.8,6.584l-1.55.11Q20.168,10,17.767,11a.85.85,0,0,0-.062-.147q1.918-1.423,1.671-4.992c-.011-.218-.026-.561-.048-1.032a3.844,3.844,0,0,0-1.153.2c-.07-.156-.15-.308-.236-.46a6.23,6.23,0,0,0,1.319,0l2.536-.176a2.608,2.608,0,0,1,.546-.667.269.269,0,0,1,.073,0M19.338,2.8q1.4.089,1.519,1.01a.992.992,0,0,1-.02.31.37.37,0,0,1-.337.273c-.106.007-.273-.178-.5-.559a3.063,3.063,0,0,0-.711-.925.222.222,0,0,0,.046-.11" transform="translate(18.377 3.364)" fill="#595757"/>
        <path id="Path_4900" data-name="Path 4900" d="M27.135,7.8a1.291,1.291,0,0,1,.152.167c.244.343.359.55.339.627s-.064.108-.134.092l-2.4-.621a11.736,11.736,0,0,1-2.3.385l2.316.6c.321-.229.53-.335.627-.315a1.516,1.516,0,0,1,.427.4c.183.229.266.385.244.464-.018.062-.077.108-.183.143a1.179,1.179,0,0,0-.308.141l-.3,1.169c-.081.46-.141.755-.174.885-.055.211-.242.28-.561.2-.247-.062-.359-.154-.339-.277l.07-.275-3.044-.781-.075.288c-.033.128-.218.156-.559.084-.255-.064-.376-.141-.359-.227q.129-.406.4-1.464l.258-1c-.566-.018-1.151-.064-1.752-.132a.32.32,0,0,0-.035-.117,20.091,20.091,0,0,0,4.257-.528L21.8,7.223a10.162,10.162,0,0,0-1.985-.392c-.018-.169-.042-.339-.077-.513a19.749,19.749,0,0,0,2.283.689l.687.174.192-.753-.768-.2a3.723,3.723,0,0,0-1.162-.187,2.735,2.735,0,0,0-.1-.508,6.372,6.372,0,0,0,1.217.405l.88.225a7.882,7.882,0,0,0,.163-.843q1.2.492,1.16.63c-.02.079-.086.117-.194.112q-.281.03-.31.112l-.051.187.7.18a2.876,2.876,0,0,1,.608-.372l.066.018a1.521,1.521,0,0,1,.147.174c.24.341.352.55.332.623s-.064.121-.128.1l-1.794-.46-.194.753.762.2a7.817,7.817,0,0,0,2.459-1.164q.9.707.858.878c-.024.046-.073.062-.15.042l-.291-.075a9.19,9.19,0,0,1-1.519.667l.874.227a2.276,2.276,0,0,1,.614-.372.26.26,0,0,1,.055.022M21.359,2.981l.579.4L27.1,4.713a1.222,1.222,0,0,1,.561-.238,1.329,1.329,0,0,1,.4.385c.169.214.244.357.227.434-.013.051-.073.09-.176.117a1.907,1.907,0,0,0-.31.141l-.119.462a3.4,3.4,0,0,1-.037.363c-.051.187-.225.244-.53.174-.227-.059-.332-.143-.317-.247l.022-.086L21.746,4.914l-.046.169c-.079.167-.262.216-.546.141-.176-.044-.275-.1-.291-.174.084-.326.176-.638.277-.94l.163-.634a1.4,1.4,0,0,0,.055-.5m.482,6.632L21.8,9.75c-.051.247-.108.519-.174.821l3.044.784.242-.951Zm1.1-4.631.266-1.035-1.138-.291L21.8,4.689ZM22.12,8.519l-.225.872,3.079.79.222-.872Zm2.734-3.042L25.12,4.44,23.993,4.15l-.269,1.035ZM26.881,6l.264-1.035-1.237-.319-.266,1.035Z" transform="translate(23.361 3.581)" fill="#595757"/>
        <path id="Path_4901" data-name="Path 4901" d="M30.88,11.191a2.042,2.042,0,0,1,.1.233c.154.478.2.759.15.843-.042.066-.09.077-.145.044l-1.6-1.035a3.534,3.534,0,0,1-.59.44,3.04,3.04,0,0,1-.806.352q1.459,1.436,1.114,2.085a.645.645,0,0,1-.2.216.276.276,0,0,1-.3-.044,6.566,6.566,0,0,1-.762-1.374,7.238,7.238,0,0,0-.519-.777,7.92,7.92,0,0,1-4.482-1.569,1.006,1.006,0,0,1,.035-.134,8.019,8.019,0,0,0,3.971,1.092q-.462-.551-1.039-1.145a.78.78,0,0,1-.363.092.444.444,0,0,1-.231-.1c-.346-.22-.484-.387-.414-.5a16.89,16.89,0,0,0,1.618-.555l-.269-.172a10.582,10.582,0,0,0-1.71-.98,2.945,2.945,0,0,0,.075-.506A19.833,19.833,0,0,0,26.359,9l.363.233a3.814,3.814,0,0,0,.955-.581q.868.878.779,1.021c-.046.073-.222.033-.522-.119-.15.066-.293.125-.436.183l2.485,1.6a3.535,3.535,0,0,1,.825-.2.407.407,0,0,1,.07.055m1.508-2.628A.9.9,0,0,1,32.5,8.8c.15.473.2.753.143.836-.042.064-.09.079-.143.044L29.944,8.035a4.086,4.086,0,0,0,.751,1.345,8.6,8.6,0,0,0,1.4,1.475c-.04.062-.075.1-.1.11a.633.633,0,0,0-.427.062,2.52,2.52,0,0,1-.238.192c-.062.059-.112.075-.158.044A4.384,4.384,0,0,1,30.05,9.415a5.431,5.431,0,0,1-.33-1.523l-.051-.035-.07.112c-.194.332-.44.726-.735,1.186-.07.108-.251.077-.539-.095q-.34-.221-.271-.343c.165-.225.447-.643.845-1.261l.009-.015a1.133,1.133,0,0,1-.343.092A8.316,8.316,0,0,1,24.78,7.39a1.559,1.559,0,0,1-.022-.18,7.22,7.22,0,0,0,3.2-.3.485.485,0,0,0,.147-.066l-.341-.218a10.212,10.212,0,0,0-1.673-.955,4.122,4.122,0,0,0,.081-.5,18.677,18.677,0,0,0,1.792,1.261l1.127.726.473-.735q-1.093-.631-2.441-1.5c.007-.011.026-.055.066-.134q3.827,2.007,5.091,2.067c.315.68.44,1.065.379,1.16-.037.057-.1.062-.176.013-.114-.11-.218-.211-.315-.31a14.8,14.8,0,0,1-1.847-.867l-.5.779L31.5,8.715a3.331,3.331,0,0,1,.825-.2.368.368,0,0,1,.062.053m-6.405,1.8q.786.6,1.378,1.12a2.112,2.112,0,0,0,.724-.341,3.064,3.064,0,0,0,.528-.363L27.2,9.864q-.475.2-.995.387c-.086.046-.158.081-.22.112" transform="translate(27.437 5.75)" fill="#595757"/>
        <path id="Path_4902" data-name="Path 4902" d="M28.377,10.206l.216.665.74.922a1.058,1.058,0,0,1,.55.136,1.1,1.1,0,0,1,.086.517c0,.253-.018.4-.075.445-.037.029-.1.026-.2-.009a1.4,1.4,0,0,0-.306-.073l-.828.663c-.291.277-.484.458-.586.537-.143.114-.308.059-.5-.167-.13-.165-.161-.288-.09-.368l.379-.3-.715-.9-.385.31c-.154.084-.313.02-.484-.192-.1-.13-.143-.229-.123-.3q.558-.449,1.107-.852l.7-.561a3.179,3.179,0,0,0,.511-.478m-1.136,1.915.718.9,1.252-1-.715-.9Zm3.722-1.127a.327.327,0,0,1,.031.178,2.106,2.106,0,0,1-.086.707c-.064.048-.106.057-.132.024l-1.184-1.481a4.271,4.271,0,0,0-.6-.638,2.732,2.732,0,0,0,.2-.317,8.4,8.4,0,0,0,.581.812l.541.676c.2,0,.385,0,.55.009.062.007.092.018.1.031m5.576,1.087a2.882,2.882,0,0,1,0,1.1c-.044.037-.1.018-.163-.059-.117-.185-.209-.337-.282-.453a4.717,4.717,0,0,1-1.332-.616l-2.012,1.609c.216.187.438.374.658.557.612-.141.94-.183.993-.123a2.073,2.073,0,0,1,.145.638c.035.363.033.561-.009.6s-.114.033-.174-.033c-.764-.594-1.376-1.079-1.842-1.453L30.3,15.618a.359.359,0,0,0-.029.486l.436.544c.161.2.423.178.786-.077a11.458,11.458,0,0,0,1.147-.656.76.76,0,0,0,.09.141l-1.024.823a.5.5,0,0,0-.229.383.425.425,0,0,1-.1.434c-.158.125-.372.09-.649-.1a3.864,3.864,0,0,1-.709-.7c-.222-.28-.365-.464-.42-.555-.372-.53-.357-.969.048-1.308l2.179-1.743a8.248,8.248,0,0,0-1.017-.746,3.385,3.385,0,0,1,.161-.491,9.516,9.516,0,0,0,1.1,1.043l1.988-1.587A9.589,9.589,0,0,1,33.1,10.6a.967.967,0,0,0,.095-.121,7.143,7.143,0,0,0,3.344,1.607m-4.6-1.809a.437.437,0,0,1,.026.18,2.287,2.287,0,0,1-.092.707c-.062.053-.108.062-.132.029L30.527,9.671a3.884,3.884,0,0,0-.61-.634,2.456,2.456,0,0,0,.211-.326,7.589,7.589,0,0,0,.579.817l.561.7c.209,0,.4,0,.564.011a.2.2,0,0,1,.106.031m1.1-.663a.371.371,0,0,1,.026.192,2.521,2.521,0,0,1-.11.845c-.055.044-.1.051-.128.013l-1.64-2.047a4.242,4.242,0,0,0-.6-.636c.064-.088.132-.2.211-.328a6.033,6.033,0,0,0,.57.823l.876,1.094c.244-.007.467,0,.671.007.066.007.108.018.123.037m-.317-2.177a1.848,1.848,0,0,1,.225.68A.894.894,0,0,1,32.691,9a.5.5,0,0,1-.423.134.432.432,0,0,1-.24-.169c-.106-.136-.066-.324.132-.557a2.2,2.2,0,0,0,.321-.561,1.911,1.911,0,0,0,.106-.414Z" transform="translate(31.293 8.928)" fill="#595757"/>
        <path id="Path_4903" data-name="Path 4903" d="M33.885,12.441a3.709,3.709,0,0,0-.376-.812c.092-.09.218-.2.379-.328a8.356,8.356,0,0,0,.284,1.127l1.25-.462c.238-.106.462-.216.68-.326.055.255.114.528.172.821.042.209.024.33-.046.357-.046.018-.09-.018-.141-.1-.1-.121-.165-.174-.194-.163l-1.457.537c.394.062.6.117.619.167s-.048.15-.189.332a1.623,1.623,0,0,1-.284.324c-.079.026-.13.013-.158-.046l-.251-.678-.636.236c-.174.654-.425,1.041-.757,1.162a.263.263,0,0,1-.255-.009.242.242,0,0,1-.11-.136c-.057-.161.07-.337.39-.53a2.633,2.633,0,0,0,.425-.374l-2.7,1-1.719.674c-.125.046-.249-.092-.37-.42-.059-.158-.042-.258.053-.293.3-.1.9-.31,1.823-.645l1.794-.663a6.637,6.637,0,0,1-2.21-.284.218.218,0,0,1,.066-.147,12.589,12.589,0,0,0,3.92-.319m.528,6.777c.02.048-.026.189-.136.416a1.09,1.09,0,0,1-.218.4q-.116.043-.158-.046l-.753-2.036c-.156.1-.291.2-.4.28-.172.15-.324.293-.462.434a4.268,4.268,0,0,0,1.006.22c-.106.66-.216,1.01-.326,1.052-.04.015-.073-.02-.106-.1a1.805,1.805,0,0,0-.13-.306,3.8,3.8,0,0,1-.861-.343,1.684,1.684,0,0,0-.31.9c.084.154.493.18,1.237.088,0,.044.009.092.018.145q-.324.073-1.105.324a.561.561,0,0,0-.3.288.452.452,0,0,1-.22.225c-.136.048-.264-.079-.376-.387a2.419,2.419,0,0,1,.464-1.944c-.077-.057-.152-.117-.225-.181a6.823,6.823,0,0,1-1.715-1.961.881.881,0,0,0,.075-.132,7.009,7.009,0,0,0,1.754,1.534,3.638,3.638,0,0,0,.484.3,2.579,2.579,0,0,1,.209-.229,6.467,6.467,0,0,1,1.05-.828L32.5,16.21a4.159,4.159,0,0,1-.473.117,2.162,2.162,0,0,1-.026.511.934.934,0,0,1-.526.823.32.32,0,0,1-.288-.015.243.243,0,0,1-.108-.147.561.561,0,0,1,.24-.674,2.187,2.187,0,0,0,.4-.447,3.533,3.533,0,0,1-2.833-.817.31.31,0,0,0,.062-.088,4.284,4.284,0,0,0,3.3.077,3.4,3.4,0,0,0-.363-.779c.086-.088.211-.2.374-.337a6.538,6.538,0,0,0,.262,1.015,7.314,7.314,0,0,0,.784-.319c.163.726.2,1.1.119,1.134s-.156-.068-.255-.284c-.147.057-.288.1-.418.147l.39,1.05A19,19,0,0,1,36.3,15.708c.225-.1.475-.207.751-.313a2.543,2.543,0,0,0,.425-.2q.2,1.139.055,1.193c-.059.02-.187-.073-.379-.284a26.188,26.188,0,0,0-3.771,1.706l.4,1.092c.39.139.6.244.632.313m2.313-5.278c.051.665.031,1.015-.064,1.05-.057.02-.143-.1-.262-.354a3.739,3.739,0,0,1-1.23-.271c.055.187.117.374.18.564a3.719,3.719,0,0,0,.63-.026q-.01.812-.092.845c-.057.015-.13-.068-.222-.249a5.675,5.675,0,0,1-1.726-.539c.108.275.22.566.335.876a2.113,2.113,0,0,0,.372-.343.634.634,0,0,1,.081.044c-.119.526-.308.839-.568.933a.335.335,0,0,1-.324-.011.294.294,0,0,1-.136-.165c-.031-.077.084-.183.335-.315a.147.147,0,0,1,.057-.026,7.067,7.067,0,0,1-.876-1.092.482.482,0,0,1-.189,0c-.022,0-.04-.009-.051-.037a2.982,2.982,0,0,1,.7-.533c.059.134.114.277.167.427a7.072,7.072,0,0,0,1.189.2,5.747,5.747,0,0,1-.469-.581.491.491,0,0,1-.192,0,.051.051,0,0,1-.053-.037,3,3,0,0,1,.7-.533c.026.128.057.26.088.392a5.63,5.63,0,0,0,1.616-.211m1.2,2.793c.042.669.015,1.019-.073,1.052-.051.018-.141-.1-.271-.352a3.8,3.8,0,0,1-1.312-.288c.075.22.152.438.233.658a4.447,4.447,0,0,0,.645-.013c0,.6-.04.911-.1.936s-.13-.075-.231-.264a5.786,5.786,0,0,1-1.743-.645c.112.291.229.594.343.907a1.33,1.33,0,0,0,.35-.354q.036.026.1.066c-.108.588-.3.931-.568,1.03a.345.345,0,0,1-.357-.02.32.32,0,0,1-.152-.178c-.033-.095.079-.209.341-.352a1,1,0,0,0,.123-.073,7.63,7.63,0,0,1-.676-.812,1.356,1.356,0,0,1,0,.328.54.54,0,0,1-.3.489.414.414,0,0,1-.348,0,.343.343,0,0,1-.139-.194c-.031-.081.035-.169.2-.26a1.245,1.245,0,0,0,.288-.238,1.187,1.187,0,0,0,.185-.286c-.031-.051-.066-.106-.108-.167a.641.641,0,0,1-.192,0c-.018,0-.033-.013-.042-.04s.218-.214.693-.539l.156.42a6.007,6.007,0,0,0,1.237.24,5.541,5.541,0,0,1-.541-.654c-.095,0-.154,0-.181,0a.041.041,0,0,1-.04-.033c-.013-.033.2-.2.643-.5.04.121.079.242.123.359a6.043,6.043,0,0,0,1.719-.214" transform="translate(34.119 13.575)" fill="#595757"/>
        <path id="Path_4904" data-name="Path 4904" d="M35.427,16.828a3.665,3.665,0,0,0-.1-.889,3.407,3.407,0,0,1,.462-.2,7.636,7.636,0,0,0-.07,1.149l1.305-.04c.26-.026.508-.057.746-.095-.026.26-.057.537-.1.834-.026.214-.081.319-.156.321-.048,0-.081-.044-.1-.136q-.086-.221-.132-.218l-1.569.051,0,.1c.372.211.557.35.559.414,0,.048-.092.143-.282.284a1.444,1.444,0,0,1-.372.249c-.084,0-.128-.026-.136-.092l-.031-.942-.722.02q-.568,1.037-1.107,1.052a.355.355,0,0,1-.33-.132.341.341,0,0,1-.086-.216c-.007-.189.178-.328.553-.416a2.178,2.178,0,0,0,.627-.277l-2.8.09c-.878.04-1.495.07-1.853.092-.136,0-.209-.165-.22-.513,0-.176.044-.266.143-.269q.466.01,1.933-.026l1.739-.055a5.244,5.244,0,0,1-1.631-1.008.214.214,0,0,1,.11-.128,10.757,10.757,0,0,0,3.61,1m-.051,6.518a.623.623,0,0,1-.1.18c-.238.291-.392.436-.462.438-.088,0-.132-.024-.134-.084L34.6,21.437l-.715.024.024.792c.262.262.394.425.4.491a1.636,1.636,0,0,1-.192.4c-.167.249-.288.374-.359.383a.213.213,0,0,1-.189-.128,1.421,1.421,0,0,0-.174-.214l-1.534.046,0,.055c.4.163.6.273.6.324,0,.031-.1.1-.313.216a1.811,1.811,0,0,1-.4.2c-.088,0-.139-.033-.145-.1l-.02-.68-.806.024a1.016,1.016,0,0,1-1.07-.891c.02-.143.079-.216.178-.22a.8.8,0,0,0,.425-.324,2.99,2.99,0,0,0,.258-.731.883.883,0,0,0,.141.013c-.031.431-.044.788-.035,1.072,0,.2.066.3.178.3l.7-.022-.084-2.63-1.569.051c-.183-.029-.28-.192-.291-.484q-.007-.267.079-.33c.6-.018,1.182-.029,1.748-.029a2.978,2.978,0,0,0-.086-.731,3.14,3.14,0,0,1,.453-.2,6.67,6.67,0,0,0-.059.931L33.082,19a5.457,5.457,0,0,0,1.021-.1l-.275.8.031.942.715-.022-.024-.713a5.259,5.259,0,0,0-.139-1.349,3.8,3.8,0,0,0,.451-.233,9.152,9.152,0,0,0-.033,1.457l.707-.022a3.134,3.134,0,0,0-.095-.8,2.76,2.76,0,0,1,.46-.2,6.027,6.027,0,0,0-.066.991l.619-.02a5.526,5.526,0,0,0-.1-1.109c.114-.051.266-.114.453-.192a9.185,9.185,0,0,0-.066,1.292l.114,0a6.9,6.9,0,0,0,.971-.086q-.145,1.284-.3,1.29c-.068,0-.119-.048-.147-.154-.081-.174-.147-.264-.2-.266l-.425.013.029.872.123,0a6.593,6.593,0,0,0,.969-.084c-.1.858-.194,1.288-.295,1.29-.07,0-.119-.046-.145-.152-.081-.174-.152-.264-.2-.269l-.423.015.011.412c.326.255.493.423.5.5,0,.059-.081.18-.253.361a1.475,1.475,0,0,1-.337.31c-.092,0-.143-.033-.152-.108L36.541,22.2l-.652.018.009.293c.288.233.438.383.447.453s-.077.167-.238.326a1.124,1.124,0,0,1-.308.275c-.081,0-.128-.029-.136-.092l-.037-1.246-.718.024.02.6a2.485,2.485,0,0,1,.456.438.259.259,0,0,1-.007.059M31.751,19.83l.029.885.845-.029-.026-.88Zm.053,1.695.029.936.847-.026-.029-.936Zm1.827-.872-.026-.88-.779.024.029.883Zm-.722,1.772.777-.024-.029-.933-.777.022Zm1.974-.971.715-.022-.029-.876-.713.024Zm.98-.031.654-.022-.029-.872-.654.02Z" transform="translate(35.463 18.905)" fill="#595757"/>
        <path id="Path_4905" data-name="Path 4905" d="M13.75,14.5a.5.5,0,0,1,.222.117,3.229,3.229,0,0,1,.693.74c0,.088-.031.132-.086.132H11.657a5.118,5.118,0,0,0-1.052.084c-.035-.121-.086-.271-.147-.447a6.611,6.611,0,0,0,1.2.086h1.479a5.778,5.778,0,0,1,.5-.627c.051-.055.088-.084.117-.084m-2.87,4.761.874.328H12.9c.262-.416.447-.63.553-.636a1.5,1.5,0,0,1,.541.308c.251.176.372.308.372.394,0,.07-.059.134-.18.192a1.253,1.253,0,0,0-.286.222v1.4q.053.819.053,1.063c0,.22-.172.335-.522.341-.269,0-.405-.066-.414-.192v-.564h-1.18v.575c-.042.2-.227.306-.552.306-.2,0-.33-.033-.372-.106,0-.572.015-1.136.042-1.688V20.089a3.491,3.491,0,0,0-.075-.83m2.6-3.284q.053,0,.192.125a3.6,3.6,0,0,1,.658.665c0,.1-.031.145-.095.145H12.137a4.341,4.341,0,0,0-1.054.1,3.66,3.66,0,0,0-.147-.449,8.2,8.2,0,0,0,1.2.077h.742a5.616,5.616,0,0,1,.469-.564c.057-.066.1-.1.128-.1M13.42,17.41a.455.455,0,0,1,.214.117,4,4,0,0,1,.7.707c0,.095-.031.143-.095.143H12.156a4.955,4.955,0,0,0-1.052.086,3.127,3.127,0,0,0-.15-.427,9.449,9.449,0,0,0,1.2.066h.627c.178-.236.343-.438.5-.608a.236.236,0,0,1,.136-.084m-1.71-4.369a1.738,1.738,0,0,1,.711.3,1.09,1.09,0,0,1,.6.922.643.643,0,0,1-.225.533.5.5,0,0,1-.361.108c-.141,0-.236-.185-.286-.555a3.537,3.537,0,0,0-.211-.744,2.83,2.83,0,0,0-.33-.445c.029-.029.064-.07.106-.119m.128,8.781h1.18V19.865h-1.18ZM15.2,19.4c.106.007.163.009.169.009a5.864,5.864,0,0,1,.106.925c0,.988-.242,1.492-.733,1.521-.339,0-.515-.117-.53-.35a.621.621,0,0,1,.075-.33,2.452,2.452,0,0,1,.394-.447A2.278,2.278,0,0,0,15.2,19.4m4.094-6.166a3.945,3.945,0,0,1,.53.33c.284.233.431.39.447.467a.2.2,0,0,1-.119.2c-.077.048-.174.114-.286.192q-.053,2.638-.616,3.168a1.525,1.525,0,0,1-1.043.522c-.084,0-.132-.057-.147-.172a.792.792,0,0,0-.328-.511,2.309,2.309,0,0,0-.491-.286c.009-.042.022-.1.042-.169a4.321,4.321,0,0,0,.682.084c.412,0,.623-.117.636-.35a10.483,10.483,0,0,0,.266-2.571H17.695a6.366,6.366,0,0,1-.244,1.541,3.655,3.655,0,0,1-2.679,2.71.5.5,0,0,0-.106-.139,4.177,4.177,0,0,0,1.946-2.785,6.86,6.86,0,0,0,.158-1.327h-.5a5.269,5.269,0,0,0-1.475.106,4.084,4.084,0,0,1-.172-.489,7.967,7.967,0,0,0,1.691.128h2.426c.295-.434.48-.649.553-.649M15.8,14.668a.426.426,0,0,1,.158.022,4.027,4.027,0,0,1-.055.678c-.1.887-.35,1.33-.733,1.33-.326,0-.486-.134-.486-.405a.593.593,0,0,1,.264-.372,2.151,2.151,0,0,0,.852-1.252m.009,4.253c.993.163,1.488.295,1.488.392s-.18.22-.541.341v1.754c0,.288.158.445.478.467h.319a.809.809,0,0,0,.755-.372,4.614,4.614,0,0,0,.361-1.182c.106.009.169.011.192.011v1.138a.245.245,0,0,0,.192.222c.147.088.225.18.225.277q-.023.479-.885.63a3.308,3.308,0,0,1-.744.084,4.07,4.07,0,0,1-.955-.066c-.537-.026-.808-.491-.808-1.389V19.951a4.5,4.5,0,0,0-.075-1.03m.861-.958c1.1.106,1.684.407,1.732.9a.808.808,0,0,1-.062.341.389.389,0,0,1-.383.3c-.136,0-.321-.18-.566-.544a2.927,2.927,0,0,0-.784-.869.277.277,0,0,0,.062-.128m2.3,1.391a2.111,2.111,0,0,1,.819.414,1.6,1.6,0,0,1,.649,1.268.643.643,0,0,1-.192.5.517.517,0,0,1-.341.1c-.211,0-.357-.251-.434-.757a4.308,4.308,0,0,0-.288-.986,2.354,2.354,0,0,0-.308-.414c.029-.037.059-.075.095-.119" transform="translate(12.561 15.666)" fill="#595757"/>
        <path id="Path_4906" data-name="Path 4906" d="M24.157,13.2a1.571,1.571,0,0,1,.3.192q.809.68.808.858c0,.1-.035.15-.106.15h-1.6v7.268q-.01.991-1.338,1.129c-.143,0-.216-.075-.225-.225a1.366,1.366,0,0,0-.192-.425c-.04-.163-.453-.317-1.23-.469v-.192c.537.037,1.087.055,1.647.055.2,0,.31-.04.319-.117V14.4h-4.38a11.838,11.838,0,0,0-2.391.139,4.014,4.014,0,0,0-.244-.575,20.194,20.194,0,0,0,2.626.117h5.08a4.55,4.55,0,0,1,.808-.891.489.489,0,0,1,.117.011m-7.365,2.5,1.05.4h1.831c.288-.33.482-.5.583-.508a1.646,1.646,0,0,1,.586.328c.26.2.392.343.392.436,0,.07-.064.139-.192.2a1.4,1.4,0,0,0-.361.255v1.9q.063,1.093.064,1.422c0,.242-.187.365-.564.372-.284,0-.431-.066-.447-.2v-.691H17.908v.658c-.051.242-.266.363-.649.363q-.34,0-.416-.119c0-.766.015-1.512.044-2.243V16.821a5.02,5.02,0,0,0-.095-1.127m2.943.68H17.908V19.32h1.827Z" transform="translate(18.65 15.841)" fill="#595757"/>
        <path id="Path_4907" data-name="Path 4907" d="M20.6,17.914l.891.339h1.754c.284-.339.478-.513.586-.519a1.641,1.641,0,0,1,.583.319c.269.2.405.343.405.436,0,.07-.053.136-.158.2a1.029,1.029,0,0,0-.277.244v1.924c.033.744.053,1.226.053,1.444,0,.242-.192.365-.575.372-.282,0-.429-.066-.436-.2v-.616H21.638v.533q-.086.33-.608.33c-.218,0-.35-.04-.39-.117,0-.737.007-1.462.029-2.168V18.986a4.763,4.763,0,0,0-.073-1.072m1.041,3.645h1.787V18.531H21.638Zm.572-8.2.874.328h3.678c.282-.317.478-.482.583-.486a1.585,1.585,0,0,1,.586.317c.26.2.394.343.394.436,0,.073-.064.139-.183.2a1.447,1.447,0,0,0-.341.242v1.49q.066.862.066,1.116c0,.24-.187.365-.564.372-.284,0-.431-.068-.447-.2V16.7H23.243v.427c-.042.218-.24.328-.594.328-.22,0-.352-.035-.394-.106,0-.63.015-1.25.042-1.858V14.28a3.589,3.589,0,0,0-.086-.925m1.032,3.071h3.614V13.961H23.243ZM28.812,17.7a1.662,1.662,0,0,1,.586.319c.269.2.405.343.405.436,0,.064-.051.132-.15.2a1.3,1.3,0,0,0-.255.244v1.946q.053,1.116.053,1.444c0,.236-.189.359-.572.372-.277,0-.425-.066-.436-.2v-.605h-1.86v.575c-.044.22-.244.33-.6.33-.22,0-.35-.037-.392-.117,0-.744.009-1.47.031-2.179V19.019a4.916,4.916,0,0,0-.075-1.083l.872.328h1.807c.284-.368.48-.557.583-.564m-2.23,3.859h1.86V18.542h-1.86Z" transform="translate(24.741 15.853)" fill="#595757"/>
        <path id="Path_4908" data-name="Path 4908" d="M10.232,26.243V19.534H11.55L14.3,24.013V19.534h1.259v6.709h-1.36l-2.705-4.374v4.374Z" transform="translate(12.29 23.465)" fill="#595757"/>
        <path id="Path_4909" data-name="Path 4909" d="M13.3,26.243V19.534h4.6V20.67H14.66v1.587h2.8v1.136h-2.8v2.851Z" transform="translate(15.981 23.465)" fill="#595757"/>
        <path id="Path_4910" data-name="Path 4910" d="M22.09,26.243H20.616L20.03,24.72H17.347l-.553,1.523H15.357l2.615-6.709H19.4Zm-2.5-2.655L18.67,21.1l-.9,2.49Z" transform="translate(18.447 23.465)" fill="#595757"/>
        <rect id="Rectangle_648" data-name="Rectangle 648" width="2.525" height="1.288" transform="translate(41.096 46.632)" fill="#595757"/>
        <path id="Path_4911" data-name="Path 4911" d="M20.161,26.243V19.534h2.853a4.876,4.876,0,0,1,1.563.18,1.55,1.55,0,0,1,.779.643,1.931,1.931,0,0,1,.293,1.057,1.787,1.787,0,0,1-.445,1.248,2.13,2.13,0,0,1-1.327.621,3.139,3.139,0,0,1,.726.561,7.957,7.957,0,0,1,.77,1.09l.819,1.31H24.574l-.982-1.459a9.185,9.185,0,0,0-.713-.988,1.052,1.052,0,0,0-.407-.277,2.21,2.21,0,0,0-.682-.077h-.273v2.8Zm1.356-3.872h1a5.318,5.318,0,0,0,1.217-.081.74.74,0,0,0,.381-.284.9.9,0,0,0,.136-.506.8.8,0,0,0-.18-.546.847.847,0,0,0-.511-.262c-.11-.018-.44-.022-.991-.022H21.517Z" transform="translate(24.217 23.465)" fill="#595757"/>
        <path id="Path_4912" data-name="Path 4912" d="M23.232,19.534h2.476a4.8,4.8,0,0,1,1.277.13A2.225,2.225,0,0,1,28,20.28a2.938,2.938,0,0,1,.641,1.087,4.923,4.923,0,0,1,.22,1.585,4.455,4.455,0,0,1-.2,1.431,3,3,0,0,1-.718,1.184,2.446,2.446,0,0,1-.953.535,4.1,4.1,0,0,1-1.2.141H23.232Zm1.354,1.136v4.444H25.6a3.576,3.576,0,0,0,.819-.066,1.184,1.184,0,0,0,.546-.28,1.391,1.391,0,0,0,.354-.647,4.316,4.316,0,0,0,.139-1.226,3.961,3.961,0,0,0-.139-1.2,1.489,1.489,0,0,0-.385-.649,1.272,1.272,0,0,0-.625-.317,6.258,6.258,0,0,0-1.114-.064Z" transform="translate(27.906 23.465)" fill="#595757"/>
      </g>
    </g>
    <g id="Group_1585" data-name="Group 1585" transform="translate(787.584 3139.689)">
      <g id="Group_1584" data-name="Group 1584" transform="translate(0 0)" clip-path="url(#clip-path-2)">
        <path id="Path_4913" data-name="Path 4913" d="M167.026,65.574H1.735A1.736,1.736,0,0,1,0,63.838V1.738A1.738,1.738,0,0,1,1.735,0h165.29a1.736,1.736,0,0,1,1.735,1.738v62.1a1.735,1.735,0,0,1-1.735,1.735" transform="translate(0 0.001)" fill="#eeeeef"/>
        <path id="Path_4914" data-name="Path 4914" d="M60.753,6.152a.5.5,0,0,1,.22.115A3.19,3.19,0,0,1,61.658,7c0,.087-.03.13-.085.13H58.685a5.057,5.057,0,0,0-1.04.083c-.035-.12-.085-.267-.146-.441a6.532,6.532,0,0,0,1.185.085h1.461a5.71,5.71,0,0,1,.491-.62c.05-.054.087-.083.115-.083m-2.836,4.7.863.324h1.133c.259-.411.441-.622.546-.628a1.485,1.485,0,0,1,.535.3c.248.174.368.3.368.389,0,.07-.059.133-.178.189a1.237,1.237,0,0,0-.283.22v1.385q.052.809.052,1.05c0,.217-.17.331-.515.337-.265,0-.4-.065-.409-.189V13.68H58.864v.568c-.041.2-.224.3-.546.3-.2,0-.326-.033-.368-.1,0-.565.015-1.122.041-1.668v-1.1a3.449,3.449,0,0,0-.074-.82m2.564-3.245q.052,0,.189.124a3.556,3.556,0,0,1,.65.657c0,.1-.03.144-.094.144H59.159a4.288,4.288,0,0,0-1.042.1,3.616,3.616,0,0,0-.146-.444,8.1,8.1,0,0,0,1.187.076h.733a5.55,5.55,0,0,1,.463-.557c.057-.065.1-.1.126-.1m-.054,1.418a.449.449,0,0,1,.211.115,3.949,3.949,0,0,1,.694.7c0,.094-.03.141-.094.141H59.179a4.895,4.895,0,0,0-1.04.085,3.09,3.09,0,0,0-.148-.422,9.334,9.334,0,0,0,1.187.065h.62c.176-.233.339-.433.494-.6a.234.234,0,0,1,.135-.083m-1.69-4.317a1.717,1.717,0,0,1,.7.3,1.077,1.077,0,0,1,.589.911.635.635,0,0,1-.222.526.5.5,0,0,1-.357.107c-.139,0-.233-.183-.283-.548a3.5,3.5,0,0,0-.209-.735,2.8,2.8,0,0,0-.326-.439c.028-.028.063-.07.1-.117m.126,8.675h1.166V11.454H58.864Zm3.319-2.394c.1.007.161.009.167.009a5.793,5.793,0,0,1,.1.913c0,.976-.239,1.474-.724,1.5-.335,0-.509-.115-.524-.346a.614.614,0,0,1,.074-.326,2.422,2.422,0,0,1,.389-.441,2.251,2.251,0,0,0,.513-1.311M66.227,4.9a3.9,3.9,0,0,1,.524.326c.281.231.426.385.441.461a.2.2,0,0,1-.117.2c-.076.048-.172.113-.283.189q-.052,2.606-.609,3.129a1.506,1.506,0,0,1-1.031.515c-.083,0-.13-.057-.146-.17a.783.783,0,0,0-.324-.5,2.281,2.281,0,0,0-.485-.283c.009-.041.022-.1.041-.167a4.269,4.269,0,0,0,.674.083c.407,0,.615-.115.628-.346a10.358,10.358,0,0,0,.263-2.54H64.65a6.289,6.289,0,0,1-.241,1.522,3.611,3.611,0,0,1-2.647,2.677.489.489,0,0,0-.1-.137A4.127,4.127,0,0,0,63.58,7.106,6.778,6.778,0,0,0,63.737,5.8h-.5a5.206,5.206,0,0,0-1.457.1,4.035,4.035,0,0,1-.17-.483,7.872,7.872,0,0,0,1.67.126h2.4c.291-.428.474-.642.546-.642M62.782,6.319a.421.421,0,0,1,.157.022,3.978,3.978,0,0,1-.054.67c-.1.876-.346,1.314-.724,1.314-.322,0-.481-.133-.481-.4a.585.585,0,0,1,.261-.368,2.126,2.126,0,0,0,.842-1.237m.009,4.2c.981.161,1.47.291,1.47.387s-.178.217-.535.337v1.733c0,.285.157.439.472.461h.315a.8.8,0,0,0,.746-.368,4.558,4.558,0,0,0,.357-1.168c.1.009.167.011.189.011v1.124a.242.242,0,0,0,.189.22c.146.087.222.178.222.274q-.023.473-.874.622a3.268,3.268,0,0,1-.735.083,4.021,4.021,0,0,1-.944-.065c-.531-.026-.8-.485-.8-1.372V11.538a4.447,4.447,0,0,0-.074-1.018m.85-.946c1.092.1,1.664.4,1.711.892a.8.8,0,0,1-.061.337.384.384,0,0,1-.378.294c-.135,0-.318-.178-.559-.537A2.891,2.891,0,0,0,63.58,9.7a.274.274,0,0,0,.061-.126m2.268,1.374a2.085,2.085,0,0,1,.809.409,1.581,1.581,0,0,1,.642,1.253.635.635,0,0,1-.189.491.511.511,0,0,1-.337.1c-.209,0-.352-.248-.428-.748a4.257,4.257,0,0,0-.285-.974,2.326,2.326,0,0,0-.3-.409c.028-.037.059-.074.094-.117" transform="translate(67.545 5.536)" fill="#595757"/>
        <path id="Path_4915" data-name="Path 4915" d="M71.1,4.867a1.816,1.816,0,0,1,.3.189q.8.672.8.85c0,.1-.033.146-.1.146H70.509v7.183q-.01.979-1.324,1.116c-.139,0-.211-.074-.22-.222a1.378,1.378,0,0,0-.189-.42q-.062-.241-1.218-.463v-.189c.533.037,1.076.054,1.627.054.2,0,.309-.039.318-.115V6.052H65.174a11.613,11.613,0,0,0-2.362.139,4.247,4.247,0,0,0-.244-.568,19.991,19.991,0,0,0,2.6.115h5.017a4.347,4.347,0,0,1,.8-.881.6.6,0,0,1,.113.009M63.822,7.335l1.037.4h1.807c.287-.328.478-.5.578-.5a1.626,1.626,0,0,1,.576.326c.259.2.387.339.387.431,0,.07-.061.137-.189.2a1.422,1.422,0,0,0-.357.252v1.879q.065,1.08.065,1.407c0,.239-.185.361-.557.368-.281,0-.428-.065-.441-.2V11.21H64.922v.65c-.048.239-.263.357-.639.357-.224,0-.361-.037-.411-.115,0-.757.015-1.494.043-2.216V8.448a4.959,4.959,0,0,0-.094-1.113m2.908.672H64.924v2.91h1.805Z" transform="translate(73.5 5.707)" fill="#595757"/>
        <path id="Path_4916" data-name="Path 4916" d="M67.641,9.53l.881.335h1.733c.281-.335.472-.507.578-.513a1.678,1.678,0,0,1,.576.313c.265.2.4.341.4.433,0,.07-.054.135-.159.2a1.135,1.135,0,0,0-.274.244v1.9c.035.735.054,1.209.054,1.427,0,.237-.189.361-.568.368-.281,0-.424-.065-.431-.2v-.609H68.667v.526c-.054.217-.254.326-.6.326-.217,0-.346-.039-.387-.115,0-.729.009-1.444.03-2.144V10.589a4.854,4.854,0,0,0-.072-1.059m1.026,3.6h1.766V10.138H68.667Zm.568-8.105.863.324h3.634c.276-.313.47-.476.576-.483a1.622,1.622,0,0,1,.578.315c.257.2.387.339.387.431,0,.07-.061.137-.181.2a1.449,1.449,0,0,0-.335.239V7.524c.043.568.063.935.063,1.1,0,.237-.183.361-.555.368-.281,0-.428-.067-.444-.2V8.331H70.255v.422c-.043.215-.237.324-.589.324-.215,0-.346-.035-.387-.1,0-.622.015-1.235.041-1.838v-1.2a3.658,3.658,0,0,0-.085-.913m1.02,3.034h3.571V5.624H70.255Zm5.5,1.259a1.642,1.642,0,0,1,.578.315c.265.2.4.339.4.431,0,.063-.048.13-.146.2a1.219,1.219,0,0,0-.252.241v1.922c.033.735.052,1.211.052,1.427,0,.233-.189.354-.568.368-.274,0-.418-.065-.431-.2v-.6H73.552v.568c-.041.217-.239.326-.587.326-.22,0-.346-.039-.389-.117q0-1.1.033-2.151V10.621a5.011,5.011,0,0,0-.074-1.07l.859.324h1.788c.278-.363.472-.55.576-.557m-2.205,3.812h1.838V10.149H73.552Z" transform="translate(79.458 5.718)" fill="#595757"/>
        <path id="Path_4917" data-name="Path 4917" d="M57.276,17.833V11.2h1.3L61.29,15.63V11.2h1.244v6.628H61.19l-2.673-4.321v4.321Z" transform="translate(67.282 13.163)" fill="#595757"/>
        <path id="Path_4918" data-name="Path 4918" d="M60.348,17.833V11.2h4.545v1.122H61.687v1.568h2.768v1.122H61.687v2.816Z" transform="translate(70.891 13.163)" fill="#595757"/>
        <path id="Path_4919" data-name="Path 4919" d="M69.052,17.833H67.6l-.578-1.5H64.366l-.546,1.5H62.4L64.984,11.2H66.4Zm-2.466-2.623-.913-2.46-.894,2.46Z" transform="translate(73.301 13.163)" fill="#595757"/>
        <rect id="Rectangle_650" data-name="Rectangle 650" width="2.494" height="1.272" transform="translate(142.908 27.958)" fill="#595757"/>
        <path id="Path_4920" data-name="Path 4920" d="M67.2,17.833V11.2h2.818a4.817,4.817,0,0,1,1.544.178,1.531,1.531,0,0,1,.77.635,1.908,1.908,0,0,1,.289,1.044,1.766,1.766,0,0,1-.439,1.233,2.1,2.1,0,0,1-1.311.613,3.1,3.1,0,0,1,.718.555,7.862,7.862,0,0,1,.761,1.076l.809,1.294h-1.6l-.97-1.442a9.076,9.076,0,0,0-.7-.976,1.039,1.039,0,0,0-.4-.274,2.183,2.183,0,0,0-.674-.076h-.27v2.768Zm1.34-3.825h.989a5.254,5.254,0,0,0,1.2-.08.731.731,0,0,0,.376-.281.884.884,0,0,0,.135-.5.8.8,0,0,0-.178-.539.837.837,0,0,0-.5-.259c-.109-.017-.435-.022-.979-.022H68.544Z" transform="translate(78.945 13.163)" fill="#595757"/>
        <path id="Path_4921" data-name="Path 4921" d="M70.276,11.2h2.447a4.74,4.74,0,0,1,1.261.128,2.2,2.2,0,0,1,1,.609,2.9,2.9,0,0,1,.633,1.074,4.864,4.864,0,0,1,.217,1.566A4.4,4.4,0,0,1,75.63,16a2.969,2.969,0,0,1-.709,1.17,2.417,2.417,0,0,1-.942.528,4.05,4.05,0,0,1-1.185.139H70.276Zm1.337,1.122v4.391h1a3.533,3.533,0,0,0,.809-.065,1.169,1.169,0,0,0,.539-.276,1.374,1.374,0,0,0,.35-.639,4.263,4.263,0,0,0,.137-1.211,3.913,3.913,0,0,0-.137-1.181,1.471,1.471,0,0,0-.381-.642,1.256,1.256,0,0,0-.618-.313,6.183,6.183,0,0,0-1.1-.063Z" transform="translate(82.553 13.163)" fill="#595757"/>
        <path id="Path_4922" data-name="Path 4922" d="M14.858,7.608l1.053.4h3.184q-.088-.855-.111-1.809H17.542a8.773,8.773,0,0,0-1.231.057c-.046-.141-.1-.315-.178-.522a7.632,7.632,0,0,0,1.5.133h1.144c.222-.354.4-.539.533-.555q.157,0,.509.333c.274.228.413.391.413.487,0,.061-.07.124-.2.189-.348.15-.522.27-.522.365q0,.532.067,1.322h2.673c.37-.4.6-.6.676-.6a3.008,3.008,0,0,1,.522.276c.333.239.5.4.513.5a.3.3,0,0,1-.17.254,1.183,1.183,0,0,0-.311.209v5.458a1.439,1.439,0,0,1-1.209,1.511c-.213-.039-.322-.13-.322-.278a1.08,1.08,0,0,0-.455-.622,3.942,3.942,0,0,0-1.044-.411,1,1,0,0,0,.024-.2,14.768,14.768,0,0,0,1.553.1c.274,0,.409-.085.409-.254V8.3H19.614a4.551,4.551,0,0,0,2.6,3.419.714.714,0,0,1-.046.209,1.072,1.072,0,0,0-.365.378,3.03,3.03,0,0,0-.178.387.232.232,0,0,1-.165.167A5.357,5.357,0,0,1,19.34,9.529c-.024-.1-.041-.194-.057-.289-.052.222-.109.42-.167.6a4.728,4.728,0,0,1-2.705,3.029.309.309,0,0,0-.057-.135,5.427,5.427,0,0,0,1.853-2.694A6.97,6.97,0,0,0,18.585,8.3H16v6.979c-.05.252-.27.376-.652.376-.252,0-.4-.039-.444-.12,0-1.259.009-2.486.033-3.686V9.44a14.04,14.04,0,0,0-.076-1.831" transform="translate(17.454 6.241)" fill="#595757"/>
        <path id="Path_4923" data-name="Path 4923" d="M24.537,5.542a1.457,1.457,0,0,1,.3.187q.786.646.787.844c0,.1-.043.146-.133.146H23.4V9.524h.344q.421-.819.576-.866c.052,0,.211.174.476.52a3.92,3.92,0,0,1,.257.368A15.252,15.252,0,0,0,25.97,5.3q1.549.31,1.551.489c0,.111-.194.2-.587.276a9.311,9.311,0,0,1-.465,1.764h1.918a3.4,3.4,0,0,1,.622-.722.087.087,0,0,1,.065-.02,1.682,1.682,0,0,1,.457.333,1.878,1.878,0,0,1,.476.555c0,.1-.026.161-.076.176h-.976A11.95,11.95,0,0,1,27.8,12.342a4.567,4.567,0,0,1-.257.463,1.017,1.017,0,0,0,.124.146A6.625,6.625,0,0,0,30.041,14.6c-.009.05-.02.115-.035.2a.991.991,0,0,0-.455.133.866.866,0,0,0-.278.322c-.087.191-.181.291-.276.3a2.923,2.923,0,0,1-1.022-.822A6.1,6.1,0,0,1,27,13.538a6.115,6.115,0,0,1-3.649,1.9.393.393,0,0,1-.054-.178,7.561,7.561,0,0,0,3.262-2.529,9.268,9.268,0,0,1-.811-3.351,9,9,0,0,1-1.12,1.511.4.4,0,0,1-.122-.1,8.613,8.613,0,0,0,.433-.944H23.4v3.384c.635-.135,1.272-.278,1.907-.435.03.07.054.124.078.17a23.031,23.031,0,0,1-4.6,1.685,1.14,1.14,0,0,0-.111.476c-.015.113-.063.167-.144.167-.113,0-.289-.285-.533-.857a5.263,5.263,0,0,0-.311-.7l.744-.065V9.556a6.588,6.588,0,0,0-.078-1.12c1,.139,1.509.27,1.509.387,0,.089-.063.146-.189.165-.209.085-.313.159-.313.224v4.349l1.022-.154V6.718H21.5a4.058,4.058,0,0,0-1.364.13,4.6,4.6,0,0,0-.278-.587,5.206,5.206,0,0,0,1.3.111h2.473a4.366,4.366,0,0,1,.8-.842.473.473,0,0,1,.109.011m1.387,3.493a6.869,6.869,0,0,0,1.009,3.008.261.261,0,0,0,.033-.065,11.585,11.585,0,0,0,.944-3.83H26.344a7.928,7.928,0,0,1-.42.887" transform="translate(23.117 6.222)" fill="#595757"/>
        <path id="Path_4924" data-name="Path 4924" d="M28.708,7.572q1.53.453,1.531.676c0,.1-.226.165-.676.211a5.239,5.239,0,0,1-1.155,1.666H29.4a4.68,4.68,0,0,1,.522-.633c.059-.061.1-.089.133-.089a.482.482,0,0,1,.211.122,2.831,2.831,0,0,1,.733.748c0,.094-.026.139-.078.139h-4.75a5.887,5.887,0,0,0-1.1.078c-.035-.124-.089-.27-.154-.446a8.532,8.532,0,0,0,1.253.08h1.953a9.339,9.339,0,0,0,.589-2.553m1.033-1.333a.562.562,0,0,1,.231.124,3.347,3.347,0,0,1,.722.772c0,.094-.03.137-.089.137H26.355a5.1,5.1,0,0,0-1.076.089,4.843,4.843,0,0,0-.165-.465,7.147,7.147,0,0,0,1.242.087H29.1a6.371,6.371,0,0,1,.52-.655c.05-.059.094-.089.124-.089m-4.019,5.193,1.022.389h2.175c.287-.333.487-.5.6-.5a1.458,1.458,0,0,1,.609.335c.283.2.424.359.424.455,0,.074-.054.144-.157.209a1.156,1.156,0,0,0-.287.257V14.14c.043.6.065.987.065,1.163,0,.246-.2.372-.589.378-.294,0-.45-.065-.465-.2v-.663H26.8v.476c-.043.228-.248.344-.609.344-.231,0-.37-.037-.424-.111,0-.652.015-1.283.046-1.9V12.376a3.869,3.869,0,0,0-.089-.944m.2-3.649a2.478,2.478,0,0,1,.822.365,1.346,1.346,0,0,1,.644,1.1.741.741,0,0,1-.211.568.565.565,0,0,1-.378.111c-.191,0-.318-.226-.376-.679a3.8,3.8,0,0,0-.244-.852,2.473,2.473,0,0,0-.357-.468.917.917,0,0,1,.1-.144m.911-2.507c.961.1,1.461.4,1.5.9a1.294,1.294,0,0,1-.054.389.433.433,0,0,1-.444.309c-.1,0-.241-.185-.435-.552a3.067,3.067,0,0,0-.633-.909.292.292,0,0,0,.07-.135M26.8,14.529h2.318V12.111H26.8Zm7.522-8.975a2.165,2.165,0,0,1,.544.387c.311.267.465.444.465.533s-.057.137-.165.167a2.773,2.773,0,0,0-.455.187,13.488,13.488,0,0,1-1.72,2.664,3.733,3.733,0,0,1,2.153,2.884,1.651,1.651,0,0,1-1.387,1.864A.276.276,0,0,1,33.5,14a1,1,0,0,0-.387-.644,1.736,1.736,0,0,0-.476-.244.427.427,0,0,0,.033-.189,2.65,2.65,0,0,0,.789.144c.47-.03.709-.3.709-.833A3.1,3.1,0,0,0,32.755,9.5,9.088,9.088,0,0,0,33.788,6.32h-1.5V15.3q-.088.346-.633.346c-.22,0-.359-.037-.409-.111q0-2.342.043-4.571V7.984C31.27,6.7,31.239,5.946,31.2,5.709l.968.365h1.518c.3-.333.507-.5.633-.52" transform="translate(29.265 6.198)" fill="#595757"/>
        <path id="Path_4925" data-name="Path 4925" d="M30.245,8.52c1.042.1,1.583.372,1.62.822a1.353,1.353,0,0,1-.065.444.508.508,0,0,1-.5.354q-.166,0-.457-.555a2.991,2.991,0,0,0-.685-.9.3.3,0,0,0,.087-.167m2.875-.154c0,.03.059.052.176.067q-.31,1.086-.831,2.873a13.928,13.928,0,0,0-.487,2.007,4.642,4.642,0,0,0,.117.933,3.674,3.674,0,0,1,.172.787c0,.348-.2.522-.581.522a.612.612,0,0,1-.7-.665c0-.178.03-.565.1-1.166,0-.37-.087-.607-.257-.709a2.183,2.183,0,0,0-.576-.222,1.007,1.007,0,0,1,.033-.2c.111,0,.215,0,.309.011a.955.955,0,0,0,.922-.611Zm-2.31-2.5c1.179.1,1.783.376,1.82.82a1.437,1.437,0,0,1-.054.444.5.5,0,0,1-.5.368c-.128,0-.315-.185-.557-.552a2.921,2.921,0,0,0-.809-.911.33.33,0,0,0,.1-.167m2.916.011q1.765.979,1.766,1.877a.553.553,0,0,1-.189.487.517.517,0,0,1-.341.122q-.4,0-.568-.855A3.014,3.014,0,0,0,33.6,6c.037-.039.083-.078.13-.124m2.534-.609c1.063.146,1.594.289,1.594.42,0,.089-.061.15-.187.178-.224.1-.335.176-.344.246V8.877h1.163c.363-.341.583-.511.655-.511a2.756,2.756,0,0,1,.535.278c.333.244.5.409.507.5a.312.312,0,0,1-.163.254,2.93,2.93,0,0,0-.313.211v4.573a1.383,1.383,0,0,1-1.24,1.407q-.281-.046-.281-.254a.928.928,0,0,0-.365-.578,3.151,3.151,0,0,0-.863-.387.949.949,0,0,0,.022-.187,10.362,10.362,0,0,0,1.264.1c.274,0,.411-.08.411-.235V12.593h-3.66v2.686c-.054.25-.272.374-.657.374-.25,0-.4-.039-.441-.12q0-1.677.033-3.251V10.14a10.507,10.507,0,0,0-.076-1.607l.907.344h1.566V6.491a9.375,9.375,0,0,0-.065-1.22m-1.266,5.258h3.66V9.164h-3.66Zm0,1.775h3.66V10.838h-3.66Zm3.938-6.578q1.35.754,1.35.922c0,.087-.07.13-.211.13s-.287,0-.441.011a7.583,7.583,0,0,1-1.707,1.644.287.287,0,0,1-.1-.144,6.69,6.69,0,0,0,1.111-2.564" transform="translate(35.427 6.193)" fill="#595757"/>
        <path id="Path_4926" data-name="Path 4926" d="M35.595,5.488l1.057.409h1.285a1.5,1.5,0,0,1,.633-.455,1.8,1.8,0,0,1,.563.4c.3.267.455.439.455.522s-.059.146-.178.176c-.228.089-.381.152-.455.189a12.036,12.036,0,0,1-1.464,2.364,3.59,3.59,0,0,1,1.718,2.794,1.505,1.505,0,0,1-1.272,1.7c-.113-.009-.183-.089-.224-.244a.987.987,0,0,0-.331-.644,1.465,1.465,0,0,0-.424-.244A.306.306,0,0,0,37,12.266a2.979,2.979,0,0,0,.62.076.541.541,0,0,0,.544-.62,3.534,3.534,0,0,0-.907-2.607,9.411,9.411,0,0,0,.774-2.951H36.671v9.2c-.046.228-.252.344-.62.344-.228,0-.37-.037-.411-.111q0-2.394.033-4.693V7.828a22.13,22.13,0,0,0-.078-2.34M44.47,6.695a2.029,2.029,0,0,1,.278.178c.483.409.72.665.72.779s-.037.154-.109.154H41.6c-.007.289-.015.665-.022,1.131,0,.361-.015.707-.043,1.031h1.74q.476-.532.6-.542a1.132,1.132,0,0,1,.509.287c.3.237.446.407.446.511a.208.208,0,0,1-.146.211,2.512,2.512,0,0,0-.276.254,19.012,19.012,0,0,1-.511,3.562,1.549,1.549,0,0,1-1.3,1.187.245.245,0,0,1-.254-.235q0-.343-.5-.7a3.191,3.191,0,0,0-.729-.344.8.8,0,0,0,.02-.211,9.02,9.02,0,0,0,1.342.154c.257,0,.441-.2.57-.622a14.12,14.12,0,0,0,.422-3.26H41.508q-.4,4.14-3.493,5.18a1.255,1.255,0,0,0-.07-.189Q40.477,13.6,40.477,9.1c0-.274.017-.709.033-1.3a4.832,4.832,0,0,0-1.466.144c-.074-.2-.157-.4-.254-.6a7.7,7.7,0,0,0,1.655.122h3.195a3.256,3.256,0,0,1,.742-.789.4.4,0,0,1,.089.011M40.7,5.266q1.752.232,1.818,1.4a1.232,1.232,0,0,1-.054.387.454.454,0,0,1-.444.311q-.2,0-.576-.744a3.89,3.89,0,0,0-.811-1.22.344.344,0,0,0,.067-.133" transform="translate(41.814 6.187)" fill="#595757"/>
        <path id="Path_4927" data-name="Path 4927" d="M50.014,9.563a1.323,1.323,0,0,1,.233.157c.409.341.609.557.609.655s-.043.157-.13.157H47.607a15.2,15.2,0,0,1-2.673,1.187H47.94c.318-.378.541-.57.665-.578a1.909,1.909,0,0,1,.644.354c.3.224.444.385.444.489,0,.08-.059.159-.178.233a1.593,1.593,0,0,0-.331.265V14c.041.585.065.963.065,1.133,0,.272-.209.413-.622.42-.318,0-.485-.076-.5-.233v-.354H44.179v.378c0,.161-.22.254-.657.276-.331,0-.5-.057-.509-.167.022-.354.035-.992.035-1.907v-1.3c-.7.157-1.422.287-2.175.387a.453.453,0,0,0-.08-.13,25.517,25.517,0,0,0,5.015-1.975H43.336a12.675,12.675,0,0,0-2.542.144c-.074-.2-.159-.4-.254-.6a25.328,25.328,0,0,0,3,.12h.885V9.219h-1a4.664,4.664,0,0,0-1.472.135,3.574,3.574,0,0,0-.278-.589,7.911,7.911,0,0,0,1.607.111h1.142A8.688,8.688,0,0,0,44.356,7.8c1.072.146,1.609.281,1.609.4,0,.1-.067.17-.2.2-.224.08-.339.159-.346.233v.244h.909a3.826,3.826,0,0,1,.622-.644h.087a1.827,1.827,0,0,1,.235.167c.4.339.6.559.6.655,0,.111-.039.165-.12.165H45.421V10.2h.987A9.714,9.714,0,0,0,49.038,8.01c.881.385,1.32.65,1.32.8-.015.065-.07.1-.165.1h-.378A12.146,12.146,0,0,1,48.172,10.2H49.3a3.057,3.057,0,0,1,.633-.644.393.393,0,0,1,.078.011M41.472,5.5l.833.311h6.7c.3-.3.5-.457.609-.465a1.7,1.7,0,0,1,.611.344c.272.209.411.359.411.455,0,.067-.061.135-.178.2a2.232,2.232,0,0,0-.333.267v.6a3.627,3.627,0,0,1,.067.455c0,.246-.2.37-.589.378-.3,0-.45-.067-.465-.2V7.734H42.548v.222c-.043.231-.252.344-.622.344-.231,0-.365-.039-.411-.122q0-.633.046-1.233v-.82a1.75,1.75,0,0,0-.089-.622m2.551.6H42.548V7.444h1.474Zm.113,7.033h3.993V12H44.136Zm0,.289V13.6c.013.315.028.668.043,1.053h3.947V13.425ZM46.509,6.1H45.043V7.444h1.466Zm2.629,0H47.528V7.444h1.609Z" transform="translate(47.621 6.283)" fill="#595757"/>
        <path id="Path_4928" data-name="Path 4928" d="M28.72,13.356a1.271,1.271,0,0,1,.276.178c.483.4.722.663.722.789,0,.094-.041.144-.124.144H25.778a5.221,5.221,0,0,0,1.709.909,10.736,10.736,0,0,0,2.486.6.328.328,0,0,1-.035.189.8.8,0,0,0-.409.354,2.507,2.507,0,0,1-.122.368c-.022.1-.067.157-.133.157a5.518,5.518,0,0,1-2.44-1.187,6.87,6.87,0,0,1-1.387-1.387h-.078v.165c.024.483.035,1.066.035,1.755,0,.161-.211.25-.635.265-.339,0-.513-.061-.522-.178.024-.346.035-.983.035-1.907v-.024a1.324,1.324,0,0,1-.3.333,10.493,10.493,0,0,1-4.095,2.431,1.969,1.969,0,0,1-.141-.176,9.089,9.089,0,0,0,3.173-2.5.783.783,0,0,0,.111-.165h-.511A12.625,12.625,0,0,0,20.1,14.6a4.8,4.8,0,0,0-.254-.587,23.018,23.018,0,0,0,2.749.111h1.688v-1.1q-1.585.075-3.606.076c0-.015-.007-.076-.022-.189q5.412-.486,6.789-1.285,1.187.754,1.187.966c0,.089-.059.133-.178.133-.191-.037-.374-.074-.544-.113a18.447,18.447,0,0,1-2.54.346v1.166h2.518a4.239,4.239,0,0,1,.733-.779.47.47,0,0,1,.1.011m.2,3.806a2.268,2.268,0,0,1,.265.178c.487.4.733.663.733.789,0,.094-.041.144-.124.144H27.4a4.257,4.257,0,0,1-.32.863,3.93,3.93,0,0,1-.611.922q2.518.519,2.6,1.442a.835.835,0,0,1-.067.365c-.052.1-.165.157-.344.157a8.288,8.288,0,0,1-1.742-.931,9.023,9.023,0,0,0-1.074-.468q-1.869,1.377-5.8,1.4a1.162,1.162,0,0,1-.057-.167A10.074,10.074,0,0,0,24.914,20.3c-.578-.18-1.2-.346-1.875-.5-.165.222-.27.335-.322.344a.59.59,0,0,1-.311.057c-.52,0-.776-.083-.776-.246.546-.637.989-1.2,1.331-1.685h-.4a13.492,13.492,0,0,0-2.475.13,3.821,3.821,0,0,0-.265-.587,24.433,24.433,0,0,0,2.829.113h.544a4.862,4.862,0,0,0,.611-1.266c1.013.222,1.518.4,1.518.544,0,.109-.209.189-.633.233-.109.17-.22.333-.331.489h3.717a4.164,4.164,0,0,1,.733-.779.66.66,0,0,1,.111.011m-5.737,2.464c.829.065,1.568.148,2.22.244a2.734,2.734,0,0,0,.533-.852,4,4,0,0,0,.309-.744H24.127q-.369.532-.789,1.087c-.059.1-.109.191-.154.265" transform="translate(23.194 13.659)" fill="#595757"/>
        <path id="Path_4929" data-name="Path 4929" d="M28.589,13.119a.423.423,0,0,1,.211.122,3.291,3.291,0,0,1,.744.772c0,.094-.028.137-.087.137h-3.3a5.235,5.235,0,0,0-1.1.089c-.035-.126-.089-.283-.154-.465a7.429,7.429,0,0,0,1.253.089h1.766c.183-.244.361-.463.533-.657.057-.059.1-.087.13-.087m-.209,1.6a.435.435,0,0,1,.2.111,2.868,2.868,0,0,1,.622.648q0,.15-.078.15h-2.44a4.6,4.6,0,0,0-1.1.1,3.662,3.662,0,0,0-.157-.465,8.714,8.714,0,0,0,1.255.076h1.133c.161-.207.313-.389.455-.544.05-.05.089-.076.111-.076m-.057,1.518a.464.464,0,0,1,.2.113,2.708,2.708,0,0,1,.62.637c0,.1-.026.15-.076.15H26.682a5.416,5.416,0,0,0-1.1.087,3.55,3.55,0,0,0-.157-.444,10.28,10.28,0,0,0,1.255.067h1.087c.157-.2.3-.378.444-.533.052-.05.087-.078.111-.078m-2.808,1.92.822.309h1.487c.281-.285.468-.431.563-.431a1.337,1.337,0,0,1,.578.322c.25.194.376.333.376.422,0,.059-.057.122-.165.189a2.237,2.237,0,0,0-.311.241v1.333c.046.5.065.835.065,1,0,.226-.185.346-.552.354-.267,0-.411-.07-.435-.2v-.611H26.5v.622c-.035.213-.224.32-.565.32-.207,0-.337-.035-.387-.111,0-.6.011-1.183.033-1.751V19.032a3.719,3.719,0,0,0-.067-.876m.689-6.435a2.317,2.317,0,0,1,.842.311,1.135,1.135,0,0,1,.679.944.647.647,0,0,1-.2.52.546.546,0,0,1-.354.1c-.224,0-.372-.189-.444-.565a2.728,2.728,0,0,0-.3-.755,2.448,2.448,0,0,0-.322-.431c.028-.039.063-.08.1-.124m.3,9.053h1.442v-2.02H26.5Zm7.268-9.153c.718.489,1.076.776,1.076.866s-.063.111-.189.111q-.411-.042-.665-.078a5.868,5.868,0,0,1-1.653.822v3.238q.532-.1,1.063-.209c.341-.711.559-1.066.657-1.066a2.5,2.5,0,0,1,.744.354q.574.378.574.476c0,.089-.054.139-.165.146q-1.775.421-2.873.665V20.52c.065.274.217.409.455.409h.876c.326,0,.507-.276.544-.833a14.394,14.394,0,0,0,.254-1.64,1.1,1.1,0,0,0,.211.022v1.653a.626.626,0,0,0,.2.522c.228.126.344.272.344.444,0,.252-.2.437-.609.555a4.841,4.841,0,0,1-1.244.146c-.452,0-.742-.009-.876-.024-.813-.05-1.227-.411-1.242-1.074V17.193a10.245,10.245,0,0,0-1.531.409,3.942,3.942,0,0,1-.354-.544,11.5,11.5,0,0,0,1.885-.254v-3.2a13.141,13.141,0,0,1-1.642.224,1.084,1.084,0,0,0-.046-.189,9.047,9.047,0,0,0,4.206-2.02" transform="translate(29.258 13.652)" fill="#595757"/>
        <path id="Path_4930" data-name="Path 4930" d="M31.469,14.632a4.6,4.6,0,0,0-1.12.087,5.8,5.8,0,0,1-.222-.587,11.365,11.365,0,0,0,1.453.157V12.611c-.022-.324-.05-.639-.089-.942.324.043.674.1,1.044.154.267.046.4.115.4.211,0,.059-.059.1-.176.122-.185.067-.278.117-.278.157v1.951c.244-.435.4-.655.468-.655.05,0,.154.122.311.365a2.136,2.136,0,0,1,.254.478c0,.1-.041.159-.124.165h-.909v.857c.694.485,1.044.953,1.044,1.4a.347.347,0,0,1-.122.3.313.313,0,0,1-.213.065c-.213,0-.365-.228-.455-.687a3.255,3.255,0,0,0-.254-.665V19.5q.036,1.641.046,2.32c0,.17-.22.254-.655.254-.215,0-.324-.063-.324-.189q.023-.59.035-2.429v-2.41a8.431,8.431,0,0,1-1.3,2.488.287.287,0,0,1-.144-.144,15.751,15.751,0,0,0,1.331-4.76m8.223,2.329q.1,0,.431.346a1.375,1.375,0,0,1,.378.431c0,.1-.041.159-.122.167H37.649c.052.228.1.424.154.585.1.267.207.513.311.733a5.309,5.309,0,0,0,.7-1.087c.733.415,1.1.7,1.1.844,0,.052-.054.078-.165.078a2.094,2.094,0,0,0-.422.022,4.748,4.748,0,0,1-.776.866,2.127,2.127,0,0,0,.92.755c.215-.03.428-.5.644-1.42.052.015.111.028.178.043-.039.274-.07.757-.1,1.442a.7.7,0,0,0,.211.478.553.553,0,0,1,.165.354c0,.185-.207.278-.62.278a3.042,3.042,0,0,1-2.086-1.4c-.1.065-.209.126-.313.185a8.556,8.556,0,0,1-3.06,1.168.869.869,0,0,0-.124-.146,8.934,8.934,0,0,0,2.575-1.4,4.875,4.875,0,0,0,.568-.446,2.236,2.236,0,0,1-.178-.344,8.379,8.379,0,0,1-.524-1.6h-1.5a5.751,5.751,0,0,1-.065.609,2.622,2.622,0,0,1,.587.254q.744.411.744.979a.4.4,0,0,1-.144.333.328.328,0,0,1-.224.065.708.708,0,0,1-.687-.576,2.707,2.707,0,0,0-.354-.665,4.429,4.429,0,0,1-2.2,2.984.348.348,0,0,0-.078-.111,5.375,5.375,0,0,0,1.531-3.86A3.945,3.945,0,0,0,33.346,18a5.77,5.77,0,0,1-.235-.589,8.341,8.341,0,0,0,1.309.133,10.046,10.046,0,0,0-.033-1.063c.924.124,1.387.244,1.387.354,0,.1-.15.154-.444.178,0,.2,0,.383-.013.555h1.409a23.724,23.724,0,0,1-.354-4.36c-.024-.311-.037-.652-.043-1.022a2.662,2.662,0,0,0-.046-.589c.955.18,1.431.331,1.431.457,0,.083-.167.187-.5.322a33.352,33.352,0,0,0,.365,5.193h1.466c.331-.4.546-.6.644-.611m-5.217-5.026q1.21.343,1.211.533c0,.074-.178.126-.533.154a4.727,4.727,0,0,1-.855,1.333q.365.02.744.033a4.781,4.781,0,0,0,.244-.757c.635.246.955.4.955.478s-.137.126-.389.154a7.17,7.17,0,0,1-1.387,1.8c.37-.007.763-.011,1.177-.011a2.516,2.516,0,0,0-.244-.589c.022-.02.05-.046.089-.076q.855.555.855,1.074a.412.412,0,0,1-.157.378.366.366,0,0,1-.254.089c-.1,0-.178-.178-.222-.533a.375.375,0,0,1-.011-.076,8.828,8.828,0,0,1-1.666.555.58.58,0,0,1-.087.22.061.061,0,0,1-.067.046,3.667,3.667,0,0,1-.322-1.063c.185-.009.376-.013.576-.013a8.548,8.548,0,0,0,.757-1.309,8.122,8.122,0,0,1-.889.3.532.532,0,0,1-.089.22.058.058,0,0,1-.065.046,3.68,3.68,0,0,1-.322-1.055c.163.024.328.046.5.067a7.049,7.049,0,0,0,.455-2m3.817-.2q1.21.365,1.211.544c0,.065-.178.124-.533.165a4.919,4.919,0,0,1-.909,1.42c.287.009.578.011.874.011a5.163,5.163,0,0,0,.267-.763q1.054.4,1.053.533c-.007.065-.144.117-.409.154a7.474,7.474,0,0,1-1.52,1.777q.587-.013,1.22-.013A1.709,1.709,0,0,0,39.278,15c.03-.024.07-.05.124-.089.644.385.963.759.963,1.122a.446.446,0,0,1-.176.409.437.437,0,0,1-.278.1c-.126,0-.215-.185-.265-.555a1.722,1.722,0,0,0-.035-.178,9.051,9.051,0,0,1-1.253.444,1.488,1.488,0,0,1,.389.146c.3.154.444.344.444.565a.524.524,0,0,1-.154.411.451.451,0,0,1-.289.076c-.113,0-.185-.115-.224-.344a1.469,1.469,0,0,0-.154-.441,1.308,1.308,0,0,0-.254-.346c-.074.015-.154.033-.244.057a.672.672,0,0,1-.089.22c-.007.024-.03.035-.067.035a3.808,3.808,0,0,1-.333-1.053h.568a7.866,7.866,0,0,0,.82-1.355,6.845,6.845,0,0,1-1.009.354c-.039.111-.063.183-.078.211s-.026.033-.057.033a3.192,3.192,0,0,1-.309-.974c.161.007.32.011.476.011a7.548,7.548,0,0,0,.5-2.12" transform="translate(35.39 13.627)" fill="#595757"/>
        <path id="Path_4931" data-name="Path 4931" d="M36.766,14.588a4.631,4.631,0,0,0-1.122.087,4.386,4.386,0,0,1-.233-.587,10.425,10.425,0,0,0,1.442.133V12.579c-.022-.324-.05-.637-.087-.942.324.043.672.1,1.042.154.265.046.4.115.4.211,0,.059-.059.1-.178.124-.185.065-.278.117-.278.154v1.975h.124c.281-.459.463-.687.544-.687.059,0,.174.12.344.365a1.811,1.811,0,0,1,.3.476c0,.1-.041.161-.124.165H37.751v.911q1.279.757,1.277,1.433a.446.446,0,0,1-.176.409.437.437,0,0,1-.278.1c-.235,0-.4-.237-.5-.709a2.74,2.74,0,0,0-.322-.8v3.516q.023,1.654.046,2.329c0,.172-.217.257-.655.257-.222,0-.335-.063-.335-.189q.036-.587.046-2.429V17.217a6.544,6.544,0,0,1-1.331,2.007.271.271,0,0,1-.157-.144,13.443,13.443,0,0,0,1.4-4.493m8.188.322a.845.845,0,0,1,.22.133c.354.311.533.511.533.6,0,.109-.035.165-.111.165H42.522v.9h1c.341-.318.55-.476.633-.476a2.091,2.091,0,0,1,.5.254c.3.222.459.376.465.465a.269.269,0,0,1-.165.235,1.9,1.9,0,0,0-.278.209v1.931h.067c.22-.494.365-.744.431-.744.039,0,.124.135.254.4a2.124,2.124,0,0,1,.235.511c0,.111-.046.17-.135.176h-.852v1.011a1.281,1.281,0,0,1-1.166,1.309q-.267-.046-.267-.235a1.014,1.014,0,0,0-.385-.544,4.125,4.125,0,0,0-.911-.354.777.777,0,0,0,.022-.176c.542.057.989.087,1.344.087.259,0,.387-.07.387-.211v-.887H40.393v1.975c-.046.231-.252.346-.622.346-.222,0-.359-.039-.411-.111,0-.757.011-1.487.035-2.2a3.981,3.981,0,0,0-.922.078,4.1,4.1,0,0,1-.233-.576,8.449,8.449,0,0,0,1.166.111V17.617a6.958,6.958,0,0,0-.089-1.287l1,.376H41.5v-.9h-.9a6.569,6.569,0,0,0-1.7.124,5.251,5.251,0,0,0-.278-.578,11.842,11.842,0,0,0,1.831.1v-.887a3.5,3.5,0,0,0-1.009.089,3.9,3.9,0,0,1-.233-.589,7.469,7.469,0,0,0,1.242.122v-.776a7.138,7.138,0,0,0-1.4.076c-.061-.146-.135-.339-.224-.574a12.1,12.1,0,0,0,1.62.13V12.9a9.025,9.025,0,0,0-.065-1.22c1.072.157,1.607.3,1.607.422,0,.089-.065.148-.2.178-.22.1-.335.178-.344.244v.533h1.1V12.9a9.024,9.024,0,0,0-.065-1.22c1.072.157,1.609.3,1.609.422,0,.089-.067.148-.2.178-.222.1-.337.178-.344.244v.533h.52c.335-.4.548-.6.644-.611.074,0,.224.113.444.333a2,2,0,0,1,.378.435c0,.117-.048.18-.144.187H43.555v.82h.365c.3-.354.5-.535.587-.544s.207.1.4.311a1.341,1.341,0,0,1,.333.4c0,.1-.041.157-.122.165H43.555v.9h.755a3.207,3.207,0,0,1,.563-.555.3.3,0,0,1,.08.011M41.5,17H40.393v.976H41.5Zm-1.109,2.329H41.5V18.261H40.393ZM42.555,13.4h-1.1v.82h1.1Zm0,1.155h-1.1v.9h1.1ZM43.7,17H42.522v.976H43.7Zm-1.177,2.329H43.7V18.261H42.522Z" transform="translate(41.543 13.671)" fill="#595757"/>
        <path id="Path_4932" data-name="Path 4932" d="M7.66,30.411a6.2,6.2,0,0,1-2.022-2.377,7.019,7.019,0,0,1,0-6.076A6.189,6.189,0,0,1,7.66,19.57v.213A6.907,6.907,0,0,0,5.594,25,6.9,6.9,0,0,0,7.66,30.206Z" transform="translate(5.81 22.99)" fill="#595757"/>
        <path id="Path_4933" data-name="Path 4933" d="M14.047,21.139c1.029.374,1.546.622,1.546.746-.009.107-.248.17-.715.185A5.152,5.152,0,0,1,13.2,23.625h1.655q.519-.571.713-.6a2.083,2.083,0,0,1,.581.431c.335.311.5.507.5.585,0,.115-.113.176-.335.185a1.909,1.909,0,0,0-.315.052,7.218,7.218,0,0,1-1.318.757.56.56,0,0,1-.152-.1,3.97,3.97,0,0,0,.433-1.029H8.121v.067c0,.942-.318,1.427-.953,1.448-.372,0-.568-.13-.583-.391a.718.718,0,0,1,.076-.357,2.206,2.206,0,0,1,.5-.431,1.889,1.889,0,0,0,.659-1.3L8,22.955a6.457,6.457,0,0,1,.1.67h4.778a5.745,5.745,0,0,0,1.17-2.486m-.2,3.558a1.707,1.707,0,0,1,.583.409,1.1,1.1,0,0,1,.326.346c0,.152-.12.248-.357.291a6.912,6.912,0,0,1-1.827,2.077,13.728,13.728,0,0,0,4.03.92,1.069,1.069,0,0,0-.03.259.916.916,0,0,0-.357.12,1.38,1.38,0,0,0-.337.5c-.05.172-.117.259-.2.259a11.239,11.239,0,0,1-3.264-1.22,5.29,5.29,0,0,1-.574-.335,12.809,12.809,0,0,1-5.167,1.6l-.033-.161a13.777,13.777,0,0,0,4.53-1.946,8.379,8.379,0,0,1-1.805-2.325H9.344a4.711,4.711,0,0,0-1.026.1,3.21,3.21,0,0,0-.185-.509,6.436,6.436,0,0,0,1.2.109h3.849a2.383,2.383,0,0,1,.67-.485m.6-5.017q1.223.842,1.222.983c0,.087-.076.13-.226.13-.3-.043-.548-.078-.737-.1a41.334,41.334,0,0,1-7.329.626.884.884,0,0,0-.052-.2,28.206,28.206,0,0,0,7.122-1.437M8.391,21.57a2.574,2.574,0,0,1,.857.283,1.07,1.07,0,0,1,.668.9.706.706,0,0,1-.2.552.554.554,0,0,1-.378.109c-.209,0-.35-.18-.422-.541a2.751,2.751,0,0,0-.27-.724,4.073,4.073,0,0,0-.346-.455,1.139,1.139,0,0,0,.1-.12m1.277,3.914A8.2,8.2,0,0,0,11.7,27.4a6.044,6.044,0,0,0,1.568-1.914Zm1.081-4a2.681,2.681,0,0,1,.844.281q.682.378.681.9a.649.649,0,0,1-.215.539.476.476,0,0,1-.368.12c-.2,0-.344-.183-.422-.55A2.973,2.973,0,0,0,11,22.059a2.707,2.707,0,0,0-.346-.455c.024-.03.054-.07.1-.12" transform="translate(7.737 23.119)" fill="#595757"/>
        <path id="Path_4934" data-name="Path 4934" d="M15.247,21.18a.394.394,0,0,1,.2.12,3.186,3.186,0,0,1,.724.748c0,.091-.028.137-.087.137h-3.21a5,5,0,0,0-1.07.087c-.037-.126-.085-.276-.152-.455a7.376,7.376,0,0,0,1.222.087H14.6c.178-.237.352-.45.518-.639.059-.057.1-.085.13-.085m-.207,1.557a.431.431,0,0,1,.2.107,2.747,2.747,0,0,1,.6.633c0,.1-.026.146-.076.146H13.386a4.474,4.474,0,0,0-1.068.1,4.287,4.287,0,0,0-.152-.455,8.922,8.922,0,0,0,1.22.076h1.1c.157-.2.307-.378.441-.531.052-.05.087-.074.109-.074m-.052,1.479a.464.464,0,0,1,.194.109,2.7,2.7,0,0,1,.607.622c0,.1-.026.146-.076.146H13.386a4.967,4.967,0,0,0-1.068.087,3.867,3.867,0,0,0-.152-.433,10.317,10.317,0,0,0,1.22.065h1.061c.152-.2.294-.368.433-.518.05-.052.087-.078.109-.078m-2.736,1.872.8.3H14.5c.274-.281.457-.42.55-.42a1.3,1.3,0,0,1,.563.313c.244.187.368.324.368.411,0,.057-.054.12-.163.183a2.186,2.186,0,0,0-.3.237v1.3q.065.737.065.972c0,.224-.181.341-.542.348-.259,0-.4-.065-.42-.194v-.6H13.214v.607c-.035.207-.22.311-.552.311-.2,0-.326-.037-.378-.109,0-.581.011-1.153.035-1.707v-1.1a3.833,3.833,0,0,0-.065-.852m.67-6.272a2.214,2.214,0,0,1,.82.3,1.1,1.1,0,0,1,.661.916.626.626,0,0,1-.2.511.542.542,0,0,1-.346.1c-.215,0-.359-.183-.431-.55a2.583,2.583,0,0,0-.294-.735,2.254,2.254,0,0,0-.313-.422c.028-.037.063-.076.1-.12m.291,8.823h1.4V26.674h-1.4Zm7.081-8.921c.7.476,1.048.759,1.048.844s-.061.107-.183.107c-.267-.026-.483-.052-.648-.074a5.75,5.75,0,0,1-1.611.8v3.158c.348-.067.692-.135,1.037-.207.331-.692.546-1.04.639-1.04a2.5,2.5,0,0,1,.724.348q.561.369.561.463c0,.087-.054.135-.163.141-1.153.274-2.083.489-2.8.65v3.48c.065.267.213.4.444.4H20.2q.476,0,.528-.809a13.625,13.625,0,0,0,.248-1.6,1.073,1.073,0,0,0,.207.02v1.611a.6.6,0,0,0,.194.509c.226.124.335.267.335.433,0,.244-.2.424-.594.539a4.534,4.534,0,0,1-1.211.141c-.439,0-.724-.007-.852-.022-.794-.052-1.2-.4-1.211-1.05V25.147a9.832,9.832,0,0,0-1.492.4A4.371,4.371,0,0,1,16,25.019a11.269,11.269,0,0,0,1.84-.25V21.657a12.521,12.521,0,0,1-1.6.213.919.919,0,0,0-.043-.183,8.816,8.816,0,0,0,4.1-1.968" transform="translate(13.693 23.165)" fill="#595757"/>
        <path id="Path_4935" data-name="Path 4935" d="M18.05,22.652a4.608,4.608,0,0,0-1.092.085c-.063-.144-.137-.333-.215-.572a10.824,10.824,0,0,0,1.416.152V20.684c-.022-.318-.048-.624-.087-.918.318.041.657.094,1.02.15.257.043.387.111.387.207,0,.057-.059.1-.174.117-.18.065-.27.115-.27.152v1.9q.356-.639.457-.639c.048,0,.148.12.3.357a1.929,1.929,0,0,1,.25.465c0,.1-.039.154-.117.163h-.887v.833c.676.476,1.016.929,1.016,1.361a.333.333,0,0,1-.117.291.31.31,0,0,1-.207.065c-.211,0-.357-.224-.444-.672a3.134,3.134,0,0,0-.248-.648V27.4c.02,1.07.035,1.82.041,2.262,0,.165-.211.248-.637.248q-.313,0-.313-.183.02-.574.033-2.368V25.007A8.229,8.229,0,0,1,16.9,27.43a.259.259,0,0,1-.141-.139,15.315,15.315,0,0,0,1.3-4.639m8.012,2.27c.063,0,.207.111.42.335a1.339,1.339,0,0,1,.37.42q0,.153-.117.163H24.072c.05.224.1.415.152.572.1.259.2.5.3.713a5.131,5.131,0,0,0,.681-1.059q1.073.607,1.072.822c0,.052-.057.076-.165.076a1.929,1.929,0,0,0-.407.022,4.6,4.6,0,0,1-.759.844,2.05,2.05,0,0,0,.9.735c.211-.028.422-.489.626-1.383.052.015.109.028.176.041-.037.267-.07.735-.1,1.407a.685.685,0,0,0,.2.465.532.532,0,0,1,.163.346c0,.178-.2.27-.607.27a2.97,2.97,0,0,1-2.031-1.364c-.1.065-.2.128-.3.185a8.262,8.262,0,0,1-2.984,1.133.9.9,0,0,0-.12-.139,8.652,8.652,0,0,0,2.51-1.361,4.788,4.788,0,0,0,.552-.433,2.741,2.741,0,0,1-.174-.337,8.256,8.256,0,0,1-.509-1.555H21.79a4.983,4.983,0,0,1-.063.594,2.538,2.538,0,0,1,.574.25q.721.4.722.95a.379.379,0,0,1-.141.324.284.284,0,0,1-.215.067A.683.683,0,0,1,22,27.463a2.754,2.754,0,0,0-.348-.648,4.319,4.319,0,0,1-2.142,2.908.331.331,0,0,0-.076-.109,5.243,5.243,0,0,0,1.494-3.76,3.928,3.928,0,0,0-1.05.085c-.063-.137-.139-.328-.226-.574a8.328,8.328,0,0,0,1.277.13c0-.546-.011-.894-.03-1.037.9.124,1.348.237,1.348.346,0,.094-.144.15-.433.172,0,.2,0,.376-.011.542h1.374a22.978,22.978,0,0,1-.346-4.249c-.022-.3-.037-.633-.043-.994a2.687,2.687,0,0,0-.043-.574q1.393.261,1.394.446c0,.078-.163.183-.485.311a31.873,31.873,0,0,0,.357,5.061h1.427c.322-.389.533-.587.626-.594m-5.082-4.9q1.178.333,1.179.518c0,.072-.172.124-.518.15a4.475,4.475,0,0,1-.833,1.3c.237.015.481.026.724.033a4.81,4.81,0,0,0,.237-.735c.622.237.933.394.933.465s-.135.122-.381.15a6.988,6.988,0,0,1-1.353,1.753c.361-.007.744-.011,1.148-.011a2.622,2.622,0,0,0-.239-.574c.024-.022.052-.046.087-.074.555.359.835.709.835,1.046a.4.4,0,0,1-.154.368.348.348,0,0,1-.25.087c-.1,0-.172-.172-.215-.518a.355.355,0,0,1-.011-.076,8.332,8.332,0,0,1-1.62.542.562.562,0,0,1-.087.217.059.059,0,0,1-.063.041,3.5,3.5,0,0,1-.315-1.037c.181-.007.368-.011.563-.011a8.354,8.354,0,0,0,.735-1.277,7.717,7.717,0,0,1-.868.294.506.506,0,0,1-.085.215.061.061,0,0,1-.065.043,3.644,3.644,0,0,1-.313-1.029c.159.024.322.046.487.065a6.867,6.867,0,0,0,.441-1.944m3.723-.2c.781.237,1.174.413,1.174.531,0,.063-.17.12-.518.161a4.839,4.839,0,0,1-.883,1.383c.276.009.561.013.85.013a5.365,5.365,0,0,0,.259-.748q1.028.388,1.029.52c-.009.065-.144.115-.4.152a7.138,7.138,0,0,1-1.479,1.729c.381-.007.776-.011,1.19-.011a1.727,1.727,0,0,0-.261-.55c.03-.022.07-.052.12-.087.628.374.939.739.939,1.092a.431.431,0,0,1-.172.4.4.4,0,0,1-.27.1c-.124,0-.211-.178-.261-.539a1.35,1.35,0,0,0-.033-.174,8.921,8.921,0,0,1-1.222.433,1.484,1.484,0,0,1,.378.141c.289.15.433.335.433.552a.506.506,0,0,1-.15.4.418.418,0,0,1-.283.078c-.107,0-.181-.113-.215-.337a1.43,1.43,0,0,0-.152-.433,1.269,1.269,0,0,0-.248-.335c-.072.015-.15.033-.237.054a.78.78,0,0,1-.085.217c-.009.022-.03.03-.067.03a3.647,3.647,0,0,1-.324-1.026h.552a7.6,7.6,0,0,0,.8-1.32,6.34,6.34,0,0,1-.983.346c-.037.109-.063.178-.074.207a.053.053,0,0,1-.057.033,3.183,3.183,0,0,1-.3-.953c.157.009.311.011.461.011a7.416,7.416,0,0,0,.491-2.064" transform="translate(19.668 23.141)" fill="#595757"/>
        <path id="Path_4936" data-name="Path 4936" d="M23.213,22.61a4.521,4.521,0,0,0-1.094.085,4.282,4.282,0,0,1-.226-.572,10.418,10.418,0,0,0,1.4.13v-1.6c-.022-.315-.05-.622-.085-.916.315.041.652.094,1.016.15.259.041.387.113.387.207,0,.057-.057.1-.172.117-.181.065-.27.115-.27.152v1.922h.12c.274-.446.45-.67.528-.67.057,0,.17.12.335.357a1.759,1.759,0,0,1,.291.465c0,.1-.039.154-.12.163H24.174v.885q1.243.737,1.242,1.4a.431.431,0,0,1-.172.4.406.406,0,0,1-.272.1c-.228,0-.391-.231-.485-.692a2.723,2.723,0,0,0-.313-.776v3.425c.013,1.074.028,1.829.043,2.27,0,.165-.213.248-.637.248-.217,0-.326-.059-.326-.183q.033-.574.043-2.368V25.172A6.418,6.418,0,0,1,22,27.129a.271.271,0,0,1-.15-.141,13.234,13.234,0,0,0,1.364-4.378m7.977.311a.949.949,0,0,1,.215.13c.346.3.522.5.522.585,0,.107-.037.163-.109.163H28.823v.874H29.8c.331-.311.535-.465.615-.465a2.07,2.07,0,0,1,.487.248c.3.217.446.368.455.455a.261.261,0,0,1-.163.228,1.679,1.679,0,0,0-.27.207v1.879h.065c.215-.483.357-.724.42-.724.037,0,.12.128.25.391a2.122,2.122,0,0,1,.226.5c0,.109-.041.165-.13.172H30.92v.983a1.245,1.245,0,0,1-1.135,1.277c-.174-.026-.261-.1-.261-.226a.957.957,0,0,0-.378-.528,3.618,3.618,0,0,0-.885-.348.759.759,0,0,0,.022-.174,11.606,11.606,0,0,0,1.307.087c.254,0,.378-.067.378-.2V27.56H26.746v1.925c-.043.222-.246.335-.607.335-.215,0-.35-.035-.4-.109,0-.733.011-1.448.03-2.14a3.714,3.714,0,0,0-.9.076,3.785,3.785,0,0,1-.226-.563,7.768,7.768,0,0,0,1.133.109V25.559a6.5,6.5,0,0,0-.087-1.253l.976.368h1.155V23.8h-.876a6.537,6.537,0,0,0-1.653.117,5.119,5.119,0,0,0-.27-.561,11.251,11.251,0,0,0,1.783.1v-.866a3.689,3.689,0,0,0-.985.085A3.746,3.746,0,0,1,25.6,22.1a6.743,6.743,0,0,0,1.211.12v-.757a6.505,6.505,0,0,0-1.364.078c-.057-.146-.13-.333-.215-.563a12.05,12.05,0,0,0,1.579.128v-.139a8.553,8.553,0,0,0-.065-1.19c1.044.15,1.566.289,1.566.411,0,.087-.063.144-.191.174-.217.094-.331.172-.337.237v.518h1.07v-.15a8.227,8.227,0,0,0-.065-1.19c1.046.15,1.568.289,1.568.411,0,.087-.063.144-.194.174-.217.094-.328.172-.335.237v.518h.507c.326-.387.533-.585.626-.594.072,0,.217.109.433.324a1.828,1.828,0,0,1,.368.424c0,.113-.046.176-.139.183H29.828v.8h.357c.3-.346.485-.522.572-.531s.2.1.389.3a1.336,1.336,0,0,1,.326.389c0,.1-.041.154-.12.161H29.828v.879h.735a3.366,3.366,0,0,1,.55-.544.267.267,0,0,1,.076.011m-3.362,2.033H26.746v.95h1.081Zm-1.081,2.27h1.081V26.187H26.746Zm2.107-5.772h-1.07v.8h1.07Zm0,1.122h-1.07v.876h1.07Zm1.113,2.379H28.823v.95h1.144Zm-1.144,2.27h1.144V26.187H28.823Z" transform="translate(25.666 23.183)" fill="#595757"/>
        <path id="Path_4937" data-name="Path 4937" d="M35.362,25.055a1.816,1.816,0,0,1,.585.326c.272.2.409.35.409.444,0,.063-.057.133-.172.2a1.179,1.179,0,0,0-.272.25v1.827c.035.713.054,1.174.054,1.381,0,.239-.191.361-.572.37-.289,0-.441-.065-.455-.2v-.626H31.221c.007.194.013.378.02.55-.063.2-.32.3-.765.3-.224,0-.335-.061-.335-.185.013-.679.02-1.416.02-2.216V26.16a15.675,15.675,0,0,1-3.025,1.253.843.843,0,0,0-.087-.172,21.047,21.047,0,0,0,3.893-2.294,8.965,8.965,0,0,0,3.036-3.512H31.371a10.148,10.148,0,0,1-1.329,1.233q1.5.192,1.566.9a1.041,1.041,0,0,1-.052.376.435.435,0,0,1-.433.326c-.122,0-.3-.187-.539-.563a2.69,2.69,0,0,0-.746-.863,10.015,10.015,0,0,1-2.12,1.19.817.817,0,0,0-.2-.12,8.787,8.787,0,0,0,3.58-4.162,4.842,4.842,0,0,1,1.535.6c0,.15-.207.244-.615.281-.139.2-.283.381-.433.552h2.325c.4-.4.637-.6.724-.6a1.69,1.69,0,0,1,.594.387c.383.32.574.524.574.615,0,.109-.217.2-.65.283a11.5,11.5,0,0,1-3.836,3.6c-.059.041-.109.078-.152.107l.065.033h3.525c.285-.361.487-.544.6-.552m-4.173.833v1.6c0,.389.007.807.022,1.259h3.73V25.888Z" transform="translate(31.773 23.2)" fill="#595757"/>
        <path id="Path_4938" data-name="Path 4938" d="M33.672,21.187a13.28,13.28,0,0,1-1.416.13,1.828,1.828,0,0,0-.043-.2,6.415,6.415,0,0,0,2.94-1.372q1.125.789,1.124.92c0,.078-.067.12-.2.12l-.692-.087a4.352,4.352,0,0,1-.822.311v1.949h.3a7.345,7.345,0,0,1,.476-.563c.052-.057.091-.087.12-.087a.384.384,0,0,1,.207.109,3.184,3.184,0,0,1,.659.674c0,.1-.028.148-.087.148H34.559v.7q1.364.8,1.361,1.546a.573.573,0,0,1-.183.476.536.536,0,0,1-.335.107c-.217,0-.376-.257-.476-.768a2.859,2.859,0,0,0-.368-.942v3.795c.028.4.041.889.041,1.448,0,.13-.18.207-.539.228-.283,0-.422-.048-.422-.141.022-.294.033-.824.033-1.588V25.426a6.158,6.158,0,0,1-1.6,2.27c-.035,0-.063-.039-.087-.12a10.332,10.332,0,0,0,1.353-3.74c.05-.252.085-.45.109-.594h-.174a5,5,0,0,0-1.07.087,3.473,3.473,0,0,0-.152-.433,10.872,10.872,0,0,0,1.222.065h.4Zm2.638,2.423.768.3h1.231a5.984,5.984,0,0,0-.074-1.059c.979.135,1.47.263,1.47.378,0,.087-.061.139-.185.161-.2.08-.3.152-.3.217v.3h1c.3-.368.491-.552.563-.552a3.452,3.452,0,0,1,.444.239c.281.2.426.341.431.422a.252.252,0,0,1-.139.215,1.2,1.2,0,0,0-.259.185v2.42c.244-.524.4-.792.465-.8.05,0,.15.139.3.42a2.276,2.276,0,0,1,.252.541c0,.1-.041.154-.12.161h-.9v1.372a1.2,1.2,0,0,1-.994,1.277c-.18-.028-.272-.1-.272-.226a.85.85,0,0,0-.368-.528,2.984,2.984,0,0,0-.844-.348.759.759,0,0,0,.022-.174,9.9,9.9,0,0,0,1.213.087c.228,0,.346-.067.346-.2V27.166H37.284V29.5c-.046.209-.233.313-.563.313-.209,0-.335-.035-.378-.109,0-.863.007-1.7.022-2.507a1.746,1.746,0,0,0-.6.065c-.059-.137-.126-.328-.207-.572a4.61,4.61,0,0,0,.822.1V25.015a9.771,9.771,0,0,0-.065-1.4m4.519-3.871c.7.483,1.048.763,1.048.844-.007.063-.057.1-.15.12-.2-.015-.4-.033-.585-.057A21.036,21.036,0,0,1,36,21.081a.967.967,0,0,1-.011-.163,19.327,19.327,0,0,0,4.843-1.179m-4.247,1.62c.7.361,1.048.72,1.048,1.072s-.152.546-.455.552a.373.373,0,0,1-.422-.424,1.924,1.924,0,0,0-.043-.346c-.037-.135-.078-.291-.128-.463a1.7,1.7,0,0,0-.13-.3.739.739,0,0,1,.13-.089m1.727,2.855H37.282V25.4h1.026Zm-1.024,2.627H38.31V25.709H37.284Zm1.111-5.7q.985.538.985,1.068c0,.37-.152.557-.455.563a.378.378,0,0,1-.422-.431,2.514,2.514,0,0,0-.03-.337c-.03-.144-.063-.3-.1-.465a1.357,1.357,0,0,0-.12-.3,1.073,1.073,0,0,1,.139-.1m1.97,3.069H39.219V25.4h1.146Zm-1.148,2.627h1.146V25.709H39.217Zm1.4-5.891a9.412,9.412,0,0,1,1.026.368c.231.087.35.154.357.207s-.063.113-.183.15c-.181.043-.309.076-.381.1a2.389,2.389,0,0,1-1.264,1.3l-.141-.057a4.8,4.8,0,0,0,.585-2.064" transform="translate(37.572 23.188)" fill="#595757"/>
        <path id="Path_4939" data-name="Path 4939" d="M39.76,25a6.7,6.7,0,0,1-.692,3.038,6.224,6.224,0,0,1-2.022,2.377v-.2A6.909,6.909,0,0,0,39.11,25a6.909,6.909,0,0,0-2.064-5.211V19.57a6.2,6.2,0,0,1,2.022,2.39A6.684,6.684,0,0,1,39.76,25" transform="translate(43.518 22.99)" fill="#595757"/>
      </g>
    </g>
  </g>
</svg>
