<svg xmlns="http://www.w3.org/2000/svg" xmlns:xlink="http://www.w3.org/1999/xlink" width="319.94" height="112.008" viewBox="0 0 319.94 112.008">
  <defs>
    <clipPath id="clip-path">
      <rect id="Rectangle_122" data-name="Rectangle 122" width="239.696" height="49.008" transform="translate(0 0)" fill="none"/>
    </clipPath>
    <clipPath id="clip-path-2">
      <rect id="Rectangle_121" data-name="Rectangle 121" width="319.94" height="51.832" transform="translate(0 0)" fill="none"/>
    </clipPath>
  </defs>
  <g id="Group_1668" data-name="Group 1668" transform="translate(-27.53 -93.113)">
    <g id="Group_1145" data-name="Group 1145" transform="translate(67.652 156.112)">
      <g id="Group_862" data-name="Group 862" clip-path="url(#clip-path)">
        <path id="Path_24" data-name="Path 24" d="M31.336,18.566a2.272,2.272,0,0,1,.51-.057,2.353,2.353,0,0,1,.793.141l.821.34a1.774,1.774,0,0,1,1.161,1.643,1.848,1.848,0,0,1-.056.453,24.525,24.525,0,0,1-4.956,9.884c-.095.113-.085.2.028.255A23.7,23.7,0,0,0,35.1,33.349a.958.958,0,0,1,.708.679,1.069,1.069,0,0,1,.057.34.973.973,0,0,1-.227.623q-.51.679-1.02,1.445a2.243,2.243,0,0,1-1.076.934,2.326,2.326,0,0,1-.793.142,2.289,2.289,0,0,1-.594-.085,25.647,25.647,0,0,1-6.2-2.861.275.275,0,0,0-.368,0,25.908,25.908,0,0,1-5.1,2.691,1.55,1.55,0,0,1-.652.142,1.906,1.906,0,0,1-.651-.114,2.136,2.136,0,0,1-1.048-.906l-.623-.963a1.132,1.132,0,0,1-.227-.68,1.338,1.338,0,0,1,.057-.368,1.034,1.034,0,0,1,.708-.764,20.416,20.416,0,0,0,4.078-1.983c.132-.075.152-.16.057-.255A22.7,22.7,0,0,1,18.536,26.1a.068.068,0,0,0-.085-.042.065.065,0,0,0-.057.07,21.076,21.076,0,0,1-5.381,10.224,1.248,1.248,0,0,1-.906.4.652.652,0,0,1-.2-.028,1.6,1.6,0,0,1-1.077-.623q-.424-.539-.906-1.076A1.661,1.661,0,0,1,9.5,33.887a1.68,1.68,0,0,1,.482-1.19q4.956-5.07,4.956-15.179V16.073a.2.2,0,0,0-.227-.226H12.248a1.692,1.692,0,0,1-1.67-1.671v-.765a1.591,1.591,0,0,1,.5-1.189,1.623,1.623,0,0,1,1.174-.482h13a.527.527,0,0,0,.17-.028,3.25,3.25,0,0,1,.737-.085,2.86,2.86,0,0,1,.566.057l.991.141a1.612,1.612,0,0,1,1.076.652,1.541,1.541,0,0,1,.312.934,2.013,2.013,0,0,1-.028.312q-.4,2.039-.963,4.644c-.038.132.018.2.17.2h3.058Zm-7.278-2.521c.019-.132-.038-.2-.17-.2H19.5a.2.2,0,0,0-.226.226v.793a1.4,1.4,0,0,0,.057.4,23.2,23.2,0,0,0,6.343,11.13c.114.113.217.113.312,0a18.067,18.067,0,0,0,3.455-5.636.14.14,0,0,0-.142-.2H27.23a.135.135,0,0,0-.142.113,1.13,1.13,0,0,1-.467.666.989.989,0,0,1-.779.155l-1.784-.255a1.378,1.378,0,0,1-1.02-.651,1.416,1.416,0,0,1-.254-.821,2.571,2.571,0,0,1,.028-.368q.765-2.974,1.246-5.353" fill="#eb6d6c"/>
        <path id="Path_25" data-name="Path 25" d="M49.614,12.052a1.645,1.645,0,0,1,1.671,1.671V30.658a1.629,1.629,0,0,1-.482,1.176,1.594,1.594,0,0,1-1.189.495H45.819a.175.175,0,0,0-.2.2v.822A1.694,1.694,0,0,1,43.95,35.02h-.567a1.694,1.694,0,0,1-1.671-1.671V13.723a1.593,1.593,0,0,1,.5-1.19,1.63,1.63,0,0,1,1.175-.481Zm-2.238,3.936a.175.175,0,0,0-.2-.2H45.819a.175.175,0,0,0-.2.2v3.965c0,.152.066.227.2.227h1.359c.132,0,.2-.075.2-.227ZM45.621,28.364c0,.152.066.227.2.227h1.359c.132,0,.2-.075.2-.227V24.031a.175.175,0,0,0-.2-.2H45.819a.175.175,0,0,0-.2.2Zm22.656-7.618a1.645,1.645,0,0,1-1.671,1.671H65.9a.2.2,0,0,0-.227.227V24.23c0,.131.076.2.227.2h.566a1.592,1.592,0,0,1,1.19.5,1.628,1.628,0,0,1,.481,1.175v.311a1.643,1.643,0,0,1-1.671,1.671H65.9a.2.2,0,0,0-.227.227v5.3a6.2,6.2,0,0,1-.339,2.294,2.47,2.47,0,0,1-1.275,1.274,8.668,8.668,0,0,1-3.313.651H60.63a1.839,1.839,0,0,1-1.161-.424,2.388,2.388,0,0,1-.793-1.162q-.112-.4-.255-.793a1,1,0,0,1-.085-.4,1.155,1.155,0,0,1,.2-.623,1,1,0,0,1,.878-.453H60.97a.8.8,0,0,0,.468-.1.427.427,0,0,0,.127-.354V28.308a.2.2,0,0,0-.227-.227H53.494a1.643,1.643,0,0,1-1.671-1.671V26.1a1.628,1.628,0,0,1,.481-1.175,1.593,1.593,0,0,1,1.19-.5h7.844c.152,0,.227-.067.227-.2V22.644a.2.2,0,0,0-.227-.227H53.494a1.643,1.643,0,0,1-1.671-1.671v-.34a1.63,1.63,0,0,1,.481-1.175,1.593,1.593,0,0,1,1.19-.5h4.248c.151,0,.226-.066.226-.2v-1.5c0-.132-.075-.2-.226-.2H54.287a1.694,1.694,0,0,1-1.671-1.671v-.283a1.593,1.593,0,0,1,.5-1.19,1.628,1.628,0,0,1,1.175-.481h3.455a.2.2,0,0,0,.226-.227V11.967a1.629,1.629,0,0,1,.482-1.176,1.592,1.592,0,0,1,1.189-.5h.793a1.6,1.6,0,0,1,1.19.5,1.632,1.632,0,0,1,.481,1.176v1.019a.2.2,0,0,0,.227.227h3.653a1.632,1.632,0,0,1,1.176.481,1.6,1.6,0,0,1,.5,1.19v.283a1.692,1.692,0,0,1-1.671,1.671H62.33c-.152,0-.227.066-.227.2v1.5c0,.132.075.2.227.2h4.276a1.59,1.59,0,0,1,1.189.5,1.626,1.626,0,0,1,.482,1.175ZM58.563,31.253a1.5,1.5,0,0,1,.255.821,1.748,1.748,0,0,1-.057.425,1.646,1.646,0,0,1-.821,1.02l-.736.424a1.547,1.547,0,0,1-.737.2,2.207,2.207,0,0,1-.481-.057,1.661,1.661,0,0,1-.963-.793,23.644,23.644,0,0,0-1.359-1.982,1.477,1.477,0,0,1-.284-.878,1.423,1.423,0,0,1,.029-.283,1.294,1.294,0,0,1,.679-.963l.454-.284a2.147,2.147,0,0,1,1.019-.254,2.052,2.052,0,0,1,.34.028,1.867,1.867,0,0,1,1.189.651,18.816,18.816,0,0,1,1.473,1.926" fill="#eb6d6c"/>
        <path id="Path_26" data-name="Path 26" d="M80.126,24.682c0-.038-.015-.051-.042-.042a.065.065,0,0,0-.043.071V30.63a.868.868,0,0,0,.085.4,4.531,4.531,0,0,0,2.039,1.813,8.925,8.925,0,0,0,3.314.679q1.7.085,4.248.085.935,0,1.982-.028,3.909-.029,7.052-.227h.085a.972.972,0,0,1,.821.425,1.065,1.065,0,0,1,.2.623,1.334,1.334,0,0,1-.056.368c-.114.3-.217.614-.312.935a2.3,2.3,0,0,1-.764,1.176,2.1,2.1,0,0,1-1.275.495q-3.512.141-6.6.141-2.917,0-5.438-.113a12.747,12.747,0,0,1-4.148-.779A7.053,7.053,0,0,1,78.4,34.453a.161.161,0,0,0-.284,0q-1.075,1.019-2.294,2.1a1.2,1.2,0,0,1-.793.312,2,2,0,0,1-.311-.028,1.272,1.272,0,0,1-.878-.708l-.538-1.19a1.806,1.806,0,0,1-.17-.764,1.954,1.954,0,0,1,.085-.567,1.894,1.894,0,0,1,.793-1.076q.906-.594,1.812-1.274a.381.381,0,0,0,.17-.34V25.645a.175.175,0,0,0-.2-.2H74.66a1.591,1.591,0,0,1-1.189-.5,1.629,1.629,0,0,1-.482-1.175v-.538a1.645,1.645,0,0,1,1.671-1.671h3.71a1.628,1.628,0,0,1,1.175.481,1.593,1.593,0,0,1,.5,1.19v.226a.115.115,0,0,0,.057.114.189.189,0,0,0,.141,0Q81.259,23.1,85.224,21a.348.348,0,0,0,.2-.312v-1.7a.141.141,0,0,0-.2-.142l-1.218.425a1.353,1.353,0,0,1-.481.085,1.51,1.51,0,0,1-.68-.17,1.474,1.474,0,0,1-.708-.991,29.5,29.5,0,0,0-.963-2.945,1.306,1.306,0,0,1-.142-.6,1.677,1.677,0,0,1,.142-.651,1.556,1.556,0,0,1,.906-.822l.17-.056a1.8,1.8,0,0,1,.623-.114,2.025,2.025,0,0,1,.736.142,1.735,1.735,0,0,1,.935.934q.453.993.821,1.955a.026.026,0,0,0,.029.028.025.025,0,0,0,.028-.028V12.051a1.591,1.591,0,0,1,.5-1.189,1.628,1.628,0,0,1,1.175-.481h.368a1.643,1.643,0,0,1,1.671,1.67v8.61A31.814,31.814,0,0,1,88.977,24a18.057,18.057,0,0,1-.6,2.987,9.268,9.268,0,0,1-1.345,2.832,9.8,9.8,0,0,1-2.265,2.28,1.629,1.629,0,0,1-.935.312,2.054,2.054,0,0,1-.34-.029,1.9,1.9,0,0,1-1.161-.679c-.151-.152-.3-.312-.453-.482a1.2,1.2,0,0,1-.368-.878,1.293,1.293,0,0,1,.538-1.1,7.461,7.461,0,0,0,2.775-3.823c.019-.038.015-.067-.014-.085a.051.051,0,0,0-.071,0q-.763.537-1.727,1.189a1.5,1.5,0,0,1-.822.255,1.431,1.431,0,0,1-.4-.057,1.367,1.367,0,0,1-.963-.736Zm-.453-10.365a1.4,1.4,0,0,1,.4.991.623.623,0,0,1-.028.2,1.594,1.594,0,0,1-.651,1.133l-.822.623a1.5,1.5,0,0,1-.906.312,1.517,1.517,0,0,1-.283-.028,1.594,1.594,0,0,1-1.076-.623,24.291,24.291,0,0,0-2.1-2.294,1.4,1.4,0,0,1,.113-2.153l.539-.4a2.07,2.07,0,0,1,1.274-.425h.057a2.071,2.071,0,0,1,1.3.51q1.247,1.133,2.181,2.152M96.3,32.527H93.89q-2.181,0-2.917-1.006t-.737-3.893V12.051a1.588,1.588,0,0,1,.5-1.189,1.626,1.626,0,0,1,1.174-.481h.369a1.643,1.643,0,0,1,1.67,1.67v4.7c0,.038.015.056.042.056s.043-.01.043-.028q.539-1.275.963-2.577a1.776,1.776,0,0,1,.822-.991,1.543,1.543,0,0,1,.736-.2,1.623,1.623,0,0,1,.51.085l1.047.34a1.2,1.2,0,0,1,.822.793,1.377,1.377,0,0,1,.085.482,1.346,1.346,0,0,1-.17.651q-1.332,2.266-1.614,2.69a1.872,1.872,0,0,1-1.077.85,2.344,2.344,0,0,1-.623.085,2.252,2.252,0,0,1-.764-.142l-.623-.255a.132.132,0,0,0-.127.014.14.14,0,0,0-.072.128v2.351a.065.065,0,0,0,.042.07.127.127,0,0,0,.1-.014,1.767,1.767,0,0,1,1.076-.481h.17a1.667,1.667,0,0,1,.963.311A29.367,29.367,0,0,1,98.9,22.926a1.422,1.422,0,0,1,.539,1.133,1.631,1.631,0,0,1-.51,1.19l-.34.311a1.568,1.568,0,0,1-1.105.453H97.4A1.685,1.685,0,0,1,96.24,25.5q-.935-.877-2.124-1.813a.125.125,0,0,0-.113,0,.091.091,0,0,0-.057.085v3.852a3.439,3.439,0,0,0,.114,1.147c.075.16.255.24.538.24h1.359q.368,0,.51-.481a1.2,1.2,0,0,1,.651-.821,1.088,1.088,0,0,1,.538-.142,1.008,1.008,0,0,1,.453.113,1.068,1.068,0,0,0,.227.085,2.294,2.294,0,0,1,1.076.906,1.5,1.5,0,0,1,.255.822,1.706,1.706,0,0,1-.057.425,3.694,3.694,0,0,1-1.174,2.01,3.447,3.447,0,0,1-2.139.6" fill="#eb6d6c"/>
        <path id="Path_27" data-name="Path 27" d="M120.664,32.131c0,.132.075.2.227.2h9.119A1.692,1.692,0,0,1,131.681,34v.793a1.692,1.692,0,0,1-1.671,1.671H106.957a1.69,1.69,0,0,1-1.671-1.671V34a1.69,1.69,0,0,1,1.671-1.671h9.062c.152,0,.227-.066.227-.2V27.543c0-.132-.075-.2-.227-.2h-5.607a1.69,1.69,0,0,1-1.671-1.671v-.708a1.692,1.692,0,0,1,1.671-1.671h5.607a.2.2,0,0,0,.227-.227V19.047c0-.132-.075-.2-.227-.2h-5.1a.366.366,0,0,0-.34.2q-.765,1.359-1.416,2.379a1.416,1.416,0,0,1-1.076.651.93.93,0,0,1-.227.029,1.656,1.656,0,0,1-1.019-.34,11.325,11.325,0,0,0-1.048-.708,1.391,1.391,0,0,1-.652-.963,1.517,1.517,0,0,1-.028-.283,1.352,1.352,0,0,1,.312-.85,21.49,21.49,0,0,0,1.925-3.228A32.492,32.492,0,0,0,109,11.6a1.776,1.776,0,0,1,.793-1.048,1.684,1.684,0,0,1,.878-.255,1.754,1.754,0,0,1,.425.057l1.076.255a1.462,1.462,0,0,1,1.019.736,1.386,1.386,0,0,1,.227.736,1.358,1.358,0,0,1-.085.482q-.312.906-.708,1.982a.148.148,0,0,0,.014.142.15.15,0,0,0,.128.056h3.285c.132,0,.2-.075.2-.226V11.344a1.692,1.692,0,0,1,1.671-1.671h1.076a1.692,1.692,0,0,1,1.671,1.671v3.172a.2.2,0,0,0,.227.226h7.589a1.692,1.692,0,0,1,1.671,1.671v.765a1.69,1.69,0,0,1-1.671,1.671h-7.589c-.152,0-.227.066-.227.2v4.021a.2.2,0,0,0,.227.227h6.428a1.694,1.694,0,0,1,1.671,1.671v.708a1.692,1.692,0,0,1-1.671,1.671h-6.428c-.152,0-.227.066-.227.2Z" fill="#eb6d6c"/>
        <path id="Path_28" data-name="Path 28" d="M145.568,16.13c-.132,0-.2.075-.2.226V17.4c0,.152.066.227.2.227h2.719a1.626,1.626,0,0,1,1.174.481,1.589,1.589,0,0,1,.5,1.19v.141a1.591,1.591,0,0,1-.5,1.19,1.626,1.626,0,0,1-1.174.481h-.255c-.019.019-.019.028,0,.028a.684.684,0,0,1,.481.4.717.717,0,0,1,0,.623q-.141.312-.382.893c-.161.386-.279.665-.354.835a.18.18,0,0,0,0,.141.113.113,0,0,0,.113.057,1.6,1.6,0,0,1,1.586,1.586v.255a1.626,1.626,0,0,1-.481,1.174,1.594,1.594,0,0,1-1.19.5h-2.237a.175.175,0,0,0-.2.2v1.331a.175.175,0,0,0,.2.2h1.954a1.592,1.592,0,0,1,1.189.5A1.629,1.629,0,0,1,149.193,31v.17a1.646,1.646,0,0,1-1.671,1.671h-1.954c-.132,0-.2.075-.2.226v3.059a1.59,1.59,0,0,1-.5,1.189,1.625,1.625,0,0,1-1.175.482h-.538a1.645,1.645,0,0,1-1.671-1.671V33.065a.2.2,0,0,0-.227-.226h-2.18a1.627,1.627,0,0,1-1.176-.482,1.592,1.592,0,0,1-.495-1.189V31a1.69,1.69,0,0,1,1.671-1.671h2.18c.152,0,.227-.066.227-.2V27.8c0-.132-.075-.2-.227-.2h-2.407a1.694,1.694,0,0,1-1.671-1.671v-.2a1.644,1.644,0,0,1,1.643-1.642c.151,0,.208-.067.17-.2a15.288,15.288,0,0,0-.482-1.728.879.879,0,0,1,.07-.637.729.729,0,0,1,.468-.383v-.028h-.878a1.645,1.645,0,0,1-1.671-1.671V19.3a1.645,1.645,0,0,1,1.671-1.671h3.087a.2.2,0,0,0,.227-.227V16.356a.2.2,0,0,0-.227-.226H139.2a1.629,1.629,0,0,1-1.176-.482,1.592,1.592,0,0,1-.5-1.189v-.113a1.69,1.69,0,0,1,1.671-1.671h2.067c.152,0,.227-.067.227-.2v-.339a1.643,1.643,0,0,1,1.671-1.671h.538a1.628,1.628,0,0,1,1.175.481,1.592,1.592,0,0,1,.5,1.19v.339a.176.176,0,0,0,.2.2h1.671a1.69,1.69,0,0,1,1.671,1.671v.113a1.592,1.592,0,0,1-.5,1.189,1.629,1.629,0,0,1-1.176.482Zm-.368,7.958a.026.026,0,0,0,.028-.029.683.683,0,0,1-.453-.368.746.746,0,0,1-.057-.566q.283-.877.538-1.784a.156.156,0,0,0-.028-.156.176.176,0,0,0-.142-.071H141.8a.121.121,0,0,0-.1.071.127.127,0,0,0-.014.127,17.014,17.014,0,0,1,.566,1.785.73.73,0,0,1-.085.594.788.788,0,0,1-.509.368v.029Zm15.264-2.549a1.858,1.858,0,0,1,.454-.057,1.816,1.816,0,0,1,.708.142l.679.255a1.507,1.507,0,0,1,.85.679,1.6,1.6,0,0,1,.2.765,2.013,2.013,0,0,1-.028.312,30.13,30.13,0,0,1-2.492,7.9.33.33,0,0,0,.056.368,13.379,13.379,0,0,0,2.181,1.869,1.394,1.394,0,0,1,.595.963v.2a1.359,1.359,0,0,1-.34.907,7.607,7.607,0,0,0-.6.736,1.774,1.774,0,0,1-1.416.708,1.387,1.387,0,0,1-.878-.311,17.458,17.458,0,0,1-1.727-1.615.161.161,0,0,0-.284,0q-.68.822-1.359,1.5a1.4,1.4,0,0,1-.991.4.528.528,0,0,1-.17-.029,1.684,1.684,0,0,1-1.133-.594l-.538-.538a.093.093,0,0,0-.113-.029.091.091,0,0,0-.057.085v.029a1.643,1.643,0,0,1-1.671,1.67h-.453a1.632,1.632,0,0,1-1.176-.481,1.594,1.594,0,0,1-.5-1.189V13.156a1.69,1.69,0,0,1,1.671-1.671h9.232a1.6,1.6,0,0,1,1.19.495,1.632,1.632,0,0,1,.481,1.176v3.767a5.352,5.352,0,0,1-.34,2.124,2.286,2.286,0,0,1-1.274,1.161,9.383,9.383,0,0,1-3.285.538.081.081,0,0,1-.057.028,1.841,1.841,0,0,1-1.218-.453,2.216,2.216,0,0,1-.764-1.161c-.057-.151-.1-.293-.142-.425a1.008,1.008,0,0,1-.085-.4,1.088,1.088,0,0,1,.227-.652,1.007,1.007,0,0,1,.878-.453H158.4a1.112,1.112,0,0,0,.453-.1.327.327,0,0,0,.113-.3V15.365c0-.151-.066-.226-.2-.226h-4.474a.2.2,0,0,0-.227.226v5.976a.2.2,0,0,0,.227.226h6.032a.453.453,0,0,0,.141-.028m-6.315,5.834a.081.081,0,0,0-.057-.028.025.025,0,0,0-.028.028v6.684a.091.091,0,0,0,.057.085.093.093,0,0,0,.113-.029,14.612,14.612,0,0,0,1.812-2.067.261.261,0,0,0,.029-.34,30.612,30.612,0,0,1-1.926-4.333m5.041-2.294c.019-.132-.038-.2-.17-.2h-2.067a.14.14,0,0,0-.142.2A17.112,17.112,0,0,0,158.086,28a.08.08,0,0,0,.1.043c.048-.01.071-.033.071-.071a20.526,20.526,0,0,0,.935-2.889" fill="#eb6d6c"/>
        <path id="Path_29" data-name="Path 29" d="M173.532,12.023a1.882,1.882,0,0,1,.906-.962,1.593,1.593,0,0,1,.765-.2,1.891,1.891,0,0,1,.538.085l.765.255a1.542,1.542,0,0,1,.963.821,1.565,1.565,0,0,1,.141.652,1.523,1.523,0,0,1-.113.566q-.877,2.1-1.926,4.107a.7.7,0,0,0-.113.4V36.181a1.646,1.646,0,0,1-1.671,1.671h-.651a1.631,1.631,0,0,1-1.176-.482,1.594,1.594,0,0,1-.5-1.189V23.975a.066.066,0,0,0-.042-.071.132.132,0,0,0-.1.014,2.823,2.823,0,0,0-.17.255,1,1,0,0,1-.764.34h-.17a1.116,1.116,0,0,1-.822-.623q-.368-.765-.736-1.473a2.434,2.434,0,0,1-.255-1.1v-.284a2.393,2.393,0,0,1,.566-1.3,29.14,29.14,0,0,0,4.56-7.7m18.012,7.392c.018-.132-.047-.2-.2-.2h-2.578c-.151,0-.226.066-.226.2V33.292a7.423,7.423,0,0,1-.312,2.407,2.6,2.6,0,0,1-1.161,1.388,7.021,7.021,0,0,1-2.888.765h-.142a1.8,1.8,0,0,1-1.133-.4,2.211,2.211,0,0,1-.765-1.161c-.113-.358-.236-.718-.368-1.076a1.234,1.234,0,0,1-.085-.425,1.024,1.024,0,0,1,.2-.595.987.987,0,0,1,.877-.481h1.077a.655.655,0,0,0,.424-.1.5.5,0,0,0,.114-.382V19.415c0-.132-.075-.2-.227-.2H181.8a.354.354,0,0,0-.312.17q-.765,1.416-1.586,2.634a1.427,1.427,0,0,1-1.076.594.315.315,0,0,1-.142.029,1.438,1.438,0,0,1-1.019-.4q-.425-.339-.821-.68a1.423,1.423,0,0,1-.595-1.076.822.822,0,0,1-.029-.2,1.621,1.621,0,0,1,.34-.991,24.432,24.432,0,0,0,3.54-7.279A1.774,1.774,0,0,1,180.9,11a1.689,1.689,0,0,1,.878-.255,1.432,1.432,0,0,1,.4.057l.906.2a1.569,1.569,0,0,1,.991.736,1.43,1.43,0,0,1,.227.765,1.541,1.541,0,0,1-.085.481q-.367,1.133-.765,2.153a.132.132,0,0,0,.014.127.119.119,0,0,0,.1.071h8.78a.484.484,0,0,0,.141-.028,2.844,2.844,0,0,1,1.133,0l.935.17a1.51,1.51,0,0,1,.991.623,1.383,1.383,0,0,1,.311.878,1.04,1.04,0,0,1-.028.254q-.282,1.983-.708,3.994a1.736,1.736,0,0,1-1.642,1.387,2.043,2.043,0,0,1-.34-.028l-.283-.057a1.7,1.7,0,0,1-1.1-.708,1.65,1.65,0,0,1-.34-1.019v-.227q.086-.594.142-1.161M179.2,25.277a1.658,1.658,0,0,1,.765-1.047,1.473,1.473,0,0,1,.878-.284,2.6,2.6,0,0,1,.368.029l.793.17a1.556,1.556,0,0,1,1.048.736,1.5,1.5,0,0,1,.255.821,1.748,1.748,0,0,1-.057.425,29.727,29.727,0,0,1-2.549,6.6,1.382,1.382,0,0,1-.963.708,2.156,2.156,0,0,1-.34.028,1.609,1.609,0,0,1-.906-.283q-.368-.228-.765-.482a1.6,1.6,0,0,1-.708-.991,2.94,2.94,0,0,1-.028-.4,1.627,1.627,0,0,1,.227-.822,20.886,20.886,0,0,0,1.982-5.211m10.422.85a1.754,1.754,0,0,1-.113-.6,1.564,1.564,0,0,1,.141-.651,1.546,1.546,0,0,1,.935-.85l.6-.2a1.828,1.828,0,0,1,2.265.991A37.53,37.53,0,0,1,195.367,31a1.433,1.433,0,0,1,.057.4,1.874,1.874,0,0,1-1.331,1.784l-.907.34a1.843,1.843,0,0,1-.453.056,1.338,1.338,0,0,1-.679-.2,1.388,1.388,0,0,1-.652-.963,36.865,36.865,0,0,0-1.784-6.287" fill="#eb6d6c"/>
        <path id="Path_30" data-name="Path 30" d="M211.238,23.3a1.781,1.781,0,0,1,.567-1.19,1.712,1.712,0,0,1,1.218-.481h1.387a1.546,1.546,0,0,1,1.558,1.529q0,.2-.085,1.133a.939.939,0,0,0,.028.4,14.572,14.572,0,0,0,1.756,4.659,8.523,8.523,0,0,0,3.272,2.945,15.851,15.851,0,0,0,5.479,1.571.891.891,0,0,1,.736.567.991.991,0,0,1,.085.4.948.948,0,0,1-.17.538q-.339.567-.679,1.161a2.407,2.407,0,0,1-1.02,1.02,1.933,1.933,0,0,1-.963.255,2.929,2.929,0,0,1-.4-.028,16.949,16.949,0,0,1-6.131-2.224,11.2,11.2,0,0,1-3.753-4.092.114.114,0,0,0-.2,0,10.656,10.656,0,0,1-3.512,3.582,21.083,21.083,0,0,1-6.032,2.479,1.542,1.542,0,0,1-.482.085,1.79,1.79,0,0,1-.849-.227,2.121,2.121,0,0,1-.991-.963q-.312-.537-.652-1.048a1.154,1.154,0,0,1-.2-.623,1.425,1.425,0,0,1,.057-.4.957.957,0,0,1,.736-.652,22.644,22.644,0,0,0,3.017-.906,17.356,17.356,0,0,0,2.265-1.048,6.227,6.227,0,0,0,1.613-1.289A10.254,10.254,0,0,0,209.992,29a6.151,6.151,0,0,0,.68-1.7,15.992,15.992,0,0,0,.368-1.884q.113-.878.2-2.124m-6.91.793a1.88,1.88,0,0,1,.963-.906,1.549,1.549,0,0,1,.651-.142,1.594,1.594,0,0,1,.6.113l.623.255a1.537,1.537,0,0,1,.906.878,1.486,1.486,0,0,1,.142.623,1.546,1.546,0,0,1-.142.651,16.274,16.274,0,0,1-2.322,3.8,1.711,1.711,0,0,1-1.218.623h-.2a2.018,2.018,0,0,1-1.161-.368l-.765-.538a1.2,1.2,0,0,1-.538-1.048,1.4,1.4,0,0,1,.4-.991,12.315,12.315,0,0,0,2.067-2.945m5.183-4.843a1.166,1.166,0,0,1,.255.708,1.433,1.433,0,0,1-.057.4,1.275,1.275,0,0,1-.821.821l-1.048.368a1.9,1.9,0,0,1-.651.113,1.759,1.759,0,0,1-.68-.141,2.136,2.136,0,0,1-1.076-.878,36.817,36.817,0,0,0-2.577-3.4,2.053,2.053,0,0,1-.085-2.6q1.131-1.5,2.01-2.861a2.473,2.473,0,0,1,1.076-.934,2.357,2.357,0,0,1,.878-.17,2.331,2.331,0,0,1,.51.057L208.35,11a1.117,1.117,0,0,1,.821.708.962.962,0,0,1,.113.425.976.976,0,0,1-.226.623q-.567.822-2.351,2.973a.224.224,0,0,0,.028.312,36.716,36.716,0,0,1,2.776,3.2m7.958-.453a1.1,1.1,0,0,1,.283.708,1.338,1.338,0,0,1-.057.368,1.115,1.115,0,0,1-.764.793l-1.02.368a2.148,2.148,0,0,1-.679.113,2.428,2.428,0,0,1-.709-.113,2.173,2.173,0,0,1-1.1-.821,40.816,40.816,0,0,0-2.747-3.285,1.819,1.819,0,0,1-.057-2.464q1.189-1.444,2.124-2.747a2.679,2.679,0,0,1,1.161-.878,2.284,2.284,0,0,1,.85-.17,2.852,2.852,0,0,1,.566.057l1.162.283a1.035,1.035,0,0,1,.764.708.934.934,0,0,1,.085.368,1.015,1.015,0,0,1-.255.651q-.51.653-2.464,2.8a.2.2,0,0,0,.029.312,29.315,29.315,0,0,1,2.832,2.945m8.241.453a1.057,1.057,0,0,1,.283.736.982.982,0,0,1-.056.312,1.117,1.117,0,0,1-.737.821l-1.048.368a2.025,2.025,0,0,1-.736.142,2.659,2.659,0,0,1-.651-.085,2.327,2.327,0,0,1-1.133-.821,36.939,36.939,0,0,0-3.342-3.6,1.694,1.694,0,0,1-.51-1.246,1.6,1.6,0,0,1,.453-1.133q1.417-1.557,2.578-3.059a2.487,2.487,0,0,1,1.161-.849,2.407,2.407,0,0,1,.821-.142,3.011,3.011,0,0,1,.6.057l1.218.34a1.035,1.035,0,0,1,.764.708,1.059,1.059,0,0,1,.057.34,1.017,1.017,0,0,1-.255.651q-.537.594-2.8,2.974a.177.177,0,0,0,0,.283,36.423,36.423,0,0,1,3.342,3.2M223.586,28.7a2.271,2.271,0,0,1-1.133.878,2.326,2.326,0,0,1-.793.142,2.708,2.708,0,0,1-.651-.085l-.623-.17a1.192,1.192,0,0,1-.821-.765,1.057,1.057,0,0,1-.114-.481,1.162,1.162,0,0,1,.2-.623,29.531,29.531,0,0,0,1.558-3.2,1.951,1.951,0,0,1,1.813-1.246,1.747,1.747,0,0,1,.424.057l1.416.311a1.193,1.193,0,0,1,.85.708,1.037,1.037,0,0,1,.142.51,1.142,1.142,0,0,1-.17.595q-1.049,1.812-2.1,3.37" fill="#eb6d6c"/>
        <line id="Line_126" data-name="Line 126" x2="239.696" transform="translate(0 1)" fill="none" stroke="#eb6d6c" stroke-miterlimit="10" stroke-width="2"/>
        <line id="Line_127" data-name="Line 127" x2="239.696" transform="translate(0 48.008)" fill="none" stroke="#eb6d6c" stroke-miterlimit="10" stroke-width="2"/>
      </g>
    </g>
    <g id="Group_1146" data-name="Group 1146" transform="translate(27.53 93.113)">
      <g id="Group_860" data-name="Group 860" clip-path="url(#clip-path-2)">
        <path id="Path_10" data-name="Path 10" d="M25.916,51.832h0A25.916,25.916,0,1,0,0,25.916,25.916,25.916,0,0,0,25.916,51.832" fill="#eb6d6c"/>
        <path id="Path_11" data-name="Path 11" d="M38.915,25.095a1.692,1.692,0,0,1-1.671,1.671H34.525a.245.245,0,0,0-.255.2,18.573,18.573,0,0,1-3.03,5.777c-.095.114-.075.2.057.255q2.973,1.218,5.1,2.351a1.13,1.13,0,0,1,.652.906v.2a1.2,1.2,0,0,1-.368.878L35.6,38.4a1.91,1.91,0,0,1-1.246.567A1.375,1.375,0,0,1,34.1,39a2.076,2.076,0,0,1-1.1-.311,55.366,55.366,0,0,0-5.211-2.606.368.368,0,0,0-.368.028,27.232,27.232,0,0,1-9.884,3.314,2.342,2.342,0,0,1-.368.028,2.092,2.092,0,0,1-.991-.255,2.631,2.631,0,0,1-1.048-.991q-.284-.51-.623-1.019a.9.9,0,0,1-.057-.963.832.832,0,0,1,.737-.538,28.594,28.594,0,0,0,7.334-1.615c.039,0,.057-.018.057-.056a.088.088,0,0,0-.057-.085q-1.416-.539-2.209-.793c-.075-.019-.123,0-.141.056a1.038,1.038,0,0,1-.5.425.831.831,0,0,1-.637.029L16.91,33.11a1.194,1.194,0,0,1-.821-.765,1.075,1.075,0,0,1-.114-.482,1.294,1.294,0,0,1,.17-.623q1.218-2.1,2.408-4.3a.1.1,0,0,0-.015-.114.145.145,0,0,0-.127-.056H14.588a1.692,1.692,0,0,1-1.671-1.671v-.652a1.694,1.694,0,0,1,1.671-1.67H20.45a.318.318,0,0,0,.312-.17l1.1-2.379a1.971,1.971,0,0,1,.963-.991,1.881,1.881,0,0,1,.935-.255,1.743,1.743,0,0,1,.424.056l1.19.255a1.2,1.2,0,0,1,.906.68,1.16,1.16,0,0,1,.028,1.161q-.255.537-.708,1.473a.105.105,0,0,0,.014.113.124.124,0,0,0,.1.057H37.244a1.694,1.694,0,0,1,1.671,1.67ZM17.9,18.355c-.151,0-.226.066-.226.2V20A1.645,1.645,0,0,1,16,21.668h-.935A1.645,1.645,0,0,1,13.4,20v-3.88a1.623,1.623,0,0,1,.482-1.174,1.588,1.588,0,0,1,1.189-.5h8.27a.175.175,0,0,0,.2-.2v-.481A1.69,1.69,0,0,1,25.208,12.1H26.4a1.69,1.69,0,0,1,1.671,1.671v.481a.176.176,0,0,0,.2.2h8.552a1.591,1.591,0,0,1,1.19.5,1.626,1.626,0,0,1,.481,1.174V20a1.643,1.643,0,0,1-1.671,1.671H35.658A1.645,1.645,0,0,1,33.987,20V18.553c0-.132-.075-.2-.226-.2Zm11.47,8.609a.128.128,0,0,0-.028-.142.191.191,0,0,0-.142-.056H23.792a.316.316,0,0,0-.312.17q-.537,1.018-1.359,2.549c-.057.131-.019.216.113.254q2.067.622,4.5,1.5a.323.323,0,0,0,.34-.085,11.03,11.03,0,0,0,2.294-4.191" fill="#fff"/>
        <path id="Path_12" data-name="Path 12" d="M70.6,51.832h0A25.916,25.916,0,1,0,44.685,25.916,25.917,25.917,0,0,0,70.6,51.832" fill="#eb6d6c"/>
        <path id="Path_13" data-name="Path 13" d="M81.291,30.646c-.038,0-.062.013-.07.043s0,.051.042.07l.453.368a1.083,1.083,0,0,1,.481.935,1.037,1.037,0,0,1-.538.963q-1.332.82-2.747,1.529a.09.09,0,0,0-.057.085.091.091,0,0,0,.057.085A16.021,16.021,0,0,0,82.9,36.055a.955.955,0,0,1,.737.623,1.334,1.334,0,0,1,.056.368,1.023,1.023,0,0,1-.2.595l-.453.68a2.473,2.473,0,0,1-1.076.934,2,2,0,0,1-.85.2,2.33,2.33,0,0,1-.51-.056,15.334,15.334,0,0,1-6.187-3.1,15.387,15.387,0,0,1-3.9-5.452q-.084-.2-.255-.057a16.8,16.8,0,0,1-2.633,1.756.311.311,0,0,0-.2.312v1.982c0,.132.076.2.227.2l2.974-.339a.621.621,0,0,1,.2-.029,1.435,1.435,0,0,1,.963.368,1.482,1.482,0,0,1,.538,1.19,1.661,1.661,0,0,1-.425,1.133,1.719,1.719,0,0,1-1.133.623q-2.832.4-8.751,1.1h-.226a1.655,1.655,0,0,1-1.02-.34,1.573,1.573,0,0,1-.651-1.1l-.029-.142a1.68,1.68,0,0,1,.1-.836,1.417,1.417,0,0,1,.51-.665,1.721,1.721,0,0,1,.806-.311q1.105-.113,1.728-.17c.132,0,.2-.075.2-.227v-.736a.161.161,0,0,0-.056-.113.131.131,0,0,0-.142-.029q-1.275.4-2.691.708a1.844,1.844,0,0,1-.453.057,2.052,2.052,0,0,1-.934-.227,2.858,2.858,0,0,1-1.133-.934c-.075-.095-.151-.189-.227-.283a.993.993,0,0,1-.2-.567,1.337,1.337,0,0,1,.057-.368.827.827,0,0,1,.708-.566,32.151,32.151,0,0,0,5.749-1.53c.018,0,.023-.009.014-.028a.045.045,0,0,0-.042-.028H58.89a1.485,1.485,0,0,1-1.1-.467,1.554,1.554,0,0,1-.453-1.119v-.227a1.286,1.286,0,0,1,.383-.949,1.255,1.255,0,0,1,.92-.382.137.137,0,0,0,.1-.042.079.079,0,0,0,.014-.1,7.59,7.59,0,0,0-.821-1.3,1.4,1.4,0,0,1-.284-.821v-.255a1.837,1.837,0,0,1,.567-.992,3.256,3.256,0,0,0,.765-1.217.153.153,0,0,0-.014-.142.15.15,0,0,0-.128-.057h-.057a1.558,1.558,0,1,1,0-3.115H64.27a.2.2,0,0,0,.227-.226v-.907a.2.2,0,0,0-.227-.226H62.005c-.019,0-.029.018-.029.056a.345.345,0,0,1-.311.312H60.136a1.593,1.593,0,0,1-1.19-.5,1.628,1.628,0,0,1-.481-1.175V14.135a1.645,1.645,0,0,1,1.671-1.671h.17a1.623,1.623,0,0,1,1.174.482,1.59,1.59,0,0,1,.5,1.189v.623c0,.151.067.227.2.227H64.27a.2.2,0,0,0,.227-.227V13.8a1.628,1.628,0,0,1,.481-1.175,1.593,1.593,0,0,1,1.19-.5h.623a1.59,1.59,0,0,1,1.189.5,1.625,1.625,0,0,1,.482,1.175V24.953a1.645,1.645,0,0,1-1.671,1.671h-.623A1.643,1.643,0,0,1,64.5,24.953V22.8a.2.2,0,0,0-.227-.227H63.109a.246.246,0,0,0-.255.2,6.686,6.686,0,0,1-1.147,2.747,6.238,6.238,0,0,1-2.534,1.9.048.048,0,0,0-.015.057.049.049,0,0,0,.043.028h9.317a.15.15,0,0,0,.17-.17,1.405,1.405,0,0,1,.439-1.048,1.44,1.44,0,0,1,1.034-.424h1.331a1.45,1.45,0,0,1,1.473,1.472c0,.114.066.17.2.17h9.261a1.475,1.475,0,0,1,1.1.468,1.573,1.573,0,0,1,0,2.209,1.485,1.485,0,0,1-1.1.467Zm-7.052-8.78c.132,0,.2-.075.2-.226V19.2c0-.151-.066-.226-.2-.226H70.812a1.645,1.645,0,0,1-1.67-1.671v-.17a1.628,1.628,0,0,1,.481-1.175,1.591,1.591,0,0,1,1.189-.5h3.427a.175.175,0,0,0,.2-.2V13.8a1.7,1.7,0,0,1,1.671-1.671h.85A1.694,1.694,0,0,1,78.629,13.8v1.473a.175.175,0,0,0,.2.2h3.4a1.694,1.694,0,0,1,1.67,1.671v.17a1.59,1.59,0,0,1-.5,1.189,1.623,1.623,0,0,1-1.174.482h-3.4c-.132,0-.2.075-.2.226V21.64c0,.151.066.226.2.226h2.747a1.645,1.645,0,0,1,1.671,1.671v.142a1.645,1.645,0,0,1-1.671,1.671h-10a1.625,1.625,0,0,1-1.175-.482,1.59,1.59,0,0,1-.5-1.189v-.142a1.591,1.591,0,0,1,.5-1.189,1.629,1.629,0,0,1,1.175-.482ZM79,30.759a.066.066,0,0,0,.015-.07c-.01-.03-.025-.043-.043-.043H74.636a.114.114,0,0,0-.114.056.127.127,0,0,0,0,.114,9.232,9.232,0,0,0,1.3,1.7.242.242,0,0,0,.34.056q1.587-.934,2.832-1.812" fill="#fff"/>
        <path id="Path_14" data-name="Path 14" d="M115.285,51.832h0A25.916,25.916,0,1,0,89.369,25.916a25.916,25.916,0,0,0,25.916,25.916" fill="#eb6d6c"/>
        <path id="Path_15" data-name="Path 15" d="M107.072,13.738a1.877,1.877,0,0,1,.934-.935,1.755,1.755,0,0,1,.737-.17,1.982,1.982,0,0,1,.566.085l.736.227a1.552,1.552,0,0,1,.935.821,1.438,1.438,0,0,1,0,1.246q-.878,1.928-1.812,3.682a.693.693,0,0,0-.114.4V37.923a1.6,1.6,0,0,1-.5,1.19,1.632,1.632,0,0,1-1.176.481h-.651a1.645,1.645,0,0,1-1.671-1.671v-12.8a.088.088,0,0,0-.057-.085.056.056,0,0,0-.085.028q-.339.4-.708.821a.958.958,0,0,1-.962.312,1.109,1.109,0,0,1-.822-.652q-.312-.707-.679-1.359a2.373,2.373,0,0,1-.255-1.076,1.675,1.675,0,0,1,.028-.312,2.249,2.249,0,0,1,.566-1.274,29.567,29.567,0,0,0,4.985-7.788M121.94,34.61a.175.175,0,0,0,.2.2h5.268a1.594,1.594,0,0,1,1.189.5,1.629,1.629,0,0,1,.482,1.176v.68a1.629,1.629,0,0,1-.482,1.176,1.594,1.594,0,0,1-1.189.5H111.943a1.6,1.6,0,0,1-1.19-.5,1.632,1.632,0,0,1-.481-1.176v-.68a1.632,1.632,0,0,1,.481-1.176,1.6,1.6,0,0,1,1.19-.5h5.494a.175.175,0,0,0,.2-.2V30.135c0-.151-.066-.226-.2-.226h-3.965a1.625,1.625,0,0,1-1.175-.482,1.59,1.59,0,0,1-.5-1.189v-.623a1.593,1.593,0,0,1,.5-1.19,1.628,1.628,0,0,1,1.175-.481h3.965c.132,0,.2-.075.2-.227V21.866c0-.152-.066-.227-.2-.227h-4.9a1.632,1.632,0,0,1-1.176-.481,1.6,1.6,0,0,1-.5-1.19v-.651a1.69,1.69,0,0,1,1.671-1.671h5.324a.065.065,0,0,0,.07-.042c.01-.029,0-.053-.042-.071q-1.273-.878-2.407-1.586a1.28,1.28,0,0,1-.651-.963.924.924,0,0,1-.029-.227,1.2,1.2,0,0,1,.368-.877l.51-.567a2.272,2.272,0,0,1,1.246-.68,2.749,2.749,0,0,1,.368-.028,2.149,2.149,0,0,1,1.02.255q2.266,1.247,3.88,2.351a1.4,1.4,0,0,1,.623,1.076v.141a1.486,1.486,0,0,1-.425,1.048.092.092,0,0,0-.028.113.088.088,0,0,0,.085.057h4.531a1.592,1.592,0,0,1,1.189.5,1.629,1.629,0,0,1,.482,1.176v.651a1.645,1.645,0,0,1-1.671,1.671h-4.843c-.132,0-.2.075-.2.227v3.851c0,.152.066.227.2.227h4.05a1.645,1.645,0,0,1,1.671,1.671v.623a1.646,1.646,0,0,1-1.671,1.671h-4.05c-.132,0-.2.075-.2.226Z" fill="#fff"/>
        <path id="Path_16" data-name="Path 16" d="M159.97,51.832h0a25.916,25.916,0,1,0-25.916-25.916A25.916,25.916,0,0,0,159.97,51.832" fill="#eb6d6c"/>
        <path id="Path_17" data-name="Path 17" d="M147.722,29a1.076,1.076,0,1,1,0-2.152h24.5a1.076,1.076,0,1,1,0,2.152ZM172.87,14.474a1.294,1.294,0,0,1,.4.948,1.249,1.249,0,0,1-.4.936,1.3,1.3,0,0,1-.934.382h-.567a.262.262,0,0,0-.283.2,10.482,10.482,0,0,1-1.869,3.229c-.075.094-.057.179.057.254a19.712,19.712,0,0,0,3.2,1.1.891.891,0,0,1,.708.623,1.334,1.334,0,0,1,.056.368,1.023,1.023,0,0,1-.2.595l-.17.226a2.637,2.637,0,0,1-1.133.907,1.806,1.806,0,0,1-.764.17,1.756,1.756,0,0,1-.6-.114,14.9,14.9,0,0,1-3.71-1.756.329.329,0,0,0-.368,0,15.374,15.374,0,0,1-3.172,1.416,1.647,1.647,0,0,1-1.331-.056,2.291,2.291,0,0,1-1.1-.878,1.03,1.03,0,0,1-.2-.6,1.338,1.338,0,0,1,.057-.368.952.952,0,0,1,.708-.651,17.686,17.686,0,0,0,2.662-.935c.113-.075.123-.16.028-.255a13.644,13.644,0,0,1-1.1-1.5c-.075-.095-.152-.1-.227-.028a1.307,1.307,0,0,1-.963.4,1.575,1.575,0,0,1-1.019-.368l-.68-.51a.078.078,0,0,0-.113-.014.273.273,0,0,0-.085.1q-.227,4.276-.935,5.183a2.417,2.417,0,0,1-1.642.85,13.36,13.36,0,0,1-1.7.085.774.774,0,0,1-.524-.213.891.891,0,0,1-.3-.524c0-.056-.038-.085-.113-.085h-4.361a1.6,1.6,0,0,1-1.19-.5,1.632,1.632,0,0,1-.481-1.176V20.761c0-.018-.019-.028-.057-.028a.42.42,0,0,1-.4.127.677.677,0,0,1-.4-.24q-.255-.312-.595-.68a1.079,1.079,0,0,1-.368-.821,1.183,1.183,0,0,1,.453-.963,8.188,8.188,0,0,0,1.643-1.9.614.614,0,0,1,.651-.311c.038.018.057.01.057-.029v-.254c0-.152-.066-.227-.2-.227h-1.3a1.161,1.161,0,1,1,0-2.322h1.416a.075.075,0,0,0,.085-.085.731.731,0,0,1,.227-.538.763.763,0,0,1,.566-.227h1.869a.775.775,0,0,1,.765.765c0,.056.038.085.113.085h1.586c.075,0,.113-.029.113-.085a.775.775,0,0,1,.765-.765h1.926a.765.765,0,0,1,.566.227.735.735,0,0,1,.227.538.075.075,0,0,0,.085.085h1.359a1.161,1.161,0,1,1,0,2.322h-1.388c-.038,0-.056.028-.056.085a.611.611,0,0,1-.2.467.643.643,0,0,1-.453.184h-2.209a.6.6,0,0,1-.439-.184.635.635,0,0,1-.184-.467.075.075,0,0,0-.085-.085h-1.642a.075.075,0,0,0-.085.085.63.63,0,0,1-.652.651h-1.387V16.2l.793.113a.265.265,0,0,1,.17.127.163.163,0,0,1,0,.184c-.019.019-.01.029.028.029H159.7a.15.15,0,0,1,.17.17h.029a11.606,11.606,0,0,0,2.492-3.257,2.156,2.156,0,0,1,.963-.963,1.954,1.954,0,0,1,.878-.227,1.856,1.856,0,0,1,.453.057l.424.085a1.03,1.03,0,0,1,.708.538.958.958,0,0,1,.029.878c-.038.1-.01.142.085.142h6a1.275,1.275,0,0,1,.934.4M153.7,19.26a1.592,1.592,0,0,1,1.19.5,1.628,1.628,0,0,1,.481,1.175V21.7a.175.175,0,0,0,.071.141.158.158,0,0,0,.156.029.754.754,0,0,0,.283-.227,8.867,8.867,0,0,0,.453-2.775c0-.132-.075-.2-.226-.2h-5.3a.455.455,0,0,0-.368.169l-.227.284a.056.056,0,0,0-.028.085.089.089,0,0,0,.085.056Zm-1.359,20.419a1.628,1.628,0,0,1-1.175-.481,1.593,1.593,0,0,1-.5-1.19V36a1.592,1.592,0,0,1,.5-1.19,1.628,1.628,0,0,1,1.175-.481h15.321a1.632,1.632,0,0,1,1.176.481A1.6,1.6,0,0,1,169.33,36v2.01a1.6,1.6,0,0,1-.495,1.19,1.632,1.632,0,0,1-1.176.481h-2.124a.385.385,0,0,1-.283-.113.352.352,0,0,1-.113-.255c0-.038-.01-.057-.029-.057H154.689c-.019,0-.029.019-.029.057a.352.352,0,0,1-.113.255.385.385,0,0,1-.283.113Zm.142-17.9c.151,0,.226-.067.226-.2v-.34c0-.132-.075-.2-.226-.2h-1.19a.176.176,0,0,0-.2.2v.34a.175.175,0,0,0,.2.2Zm15.6,7.845a.878.878,0,1,1,0,1.755H151.97a.878.878,0,1,1,0-1.755ZM151.97,33.732a.878.878,0,1,1,0-1.756h16.114a.878.878,0,1,1,0,1.756Zm.3-7.647a.856.856,0,0,1,0-1.246.9.9,0,0,1,.637-.255h14.161a.9.9,0,0,1,.637.255.856.856,0,0,1,0,1.246.9.9,0,0,1-.637.255H152.9a.9.9,0,0,1-.637-.255m12.872,10.422c0-.151-.067-.226-.2-.226H154.858c-.131,0-.2.075-.2.226v.567a.175.175,0,0,0,.2.2h10.083a.175.175,0,0,0,.2-.2Zm2.407-19.569a.148.148,0,0,0,0-.127.11.11,0,0,0-.113-.071h-2.266a.108.108,0,0,0-.113.071.148.148,0,0,0,0,.127,10.747,10.747,0,0,0,1.3,1.5c.094.1.188.085.283-.028a6.737,6.737,0,0,0,.906-1.473" fill="#fff"/>
        <path id="Path_18" data-name="Path 18" d="M204.655,51.832h0a25.916,25.916,0,1,0-25.916-25.916,25.916,25.916,0,0,0,25.916,25.916" fill="#eb6d6c"/>
        <path id="Path_19" data-name="Path 19" d="M218.022,25.151a1.63,1.63,0,0,1-.481,1.175,1.592,1.592,0,0,1-1.19.5h-4.078a.066.066,0,0,0-.071.042.065.065,0,0,0,.015.071,19.566,19.566,0,0,0,5.267,2.577.96.96,0,0,1,.68.708.982.982,0,0,1,.056.312,1.016,1.016,0,0,1-.254.651q-.567.679-1.048,1.388a1.162,1.162,0,0,1-.581.466,1.029,1.029,0,0,1-.694.015c-.075-.019-.113.01-.113.085v4.928a1.591,1.591,0,0,1-.5,1.189,1.629,1.629,0,0,1-1.175.482h-1.444a.726.726,0,0,1-.737-.737c0-.056-.038-.085-.113-.085H209.3a.075.075,0,0,0-.085.085.694.694,0,0,1-.227.525.766.766,0,0,1-.538.212h-1.218a1.646,1.646,0,0,1-1.671-1.671V31.381a1.629,1.629,0,0,1,.482-1.176,1.594,1.594,0,0,1,1.189-.5h1.9a.065.065,0,0,0,.07-.056.082.082,0,0,0-.014-.085,17.437,17.437,0,0,1-2.662-2.606.462.462,0,0,0-.34-.141h-2.973a.559.559,0,0,0-.368.141,23.233,23.233,0,0,1-3.031,2.634.067.067,0,0,0-.014.071c.009.028.024.042.043.042h2.039a1.594,1.594,0,0,1,1.189.5,1.633,1.633,0,0,1,.482,1.176v6.684a1.646,1.646,0,0,1-1.671,1.671h-1.416a.726.726,0,0,1-.737-.737.075.075,0,0,0-.085-.085h-2.294a.076.076,0,0,0-.085.085.693.693,0,0,1-.226.525.733.733,0,0,1-.51.212h-1.218a1.646,1.646,0,0,1-1.671-1.671v-5.1c0-.057-.038-.075-.113-.057a.994.994,0,0,1-.68-.013,1.075,1.075,0,0,1-.538-.44q-.425-.651-.934-1.3a1.1,1.1,0,0,1-.283-.708.982.982,0,0,1,.056-.312,1.037,1.037,0,0,1,.68-.765,23.02,23.02,0,0,0,4.7-2.435c.038-.019.052-.042.042-.071a.064.064,0,0,0-.07-.042h-3.455a1.692,1.692,0,0,1-1.671-1.671v-.312a1.592,1.592,0,0,1,.495-1.189,1.629,1.629,0,0,1,1.176-.482h7.391a.378.378,0,0,0,.34-.17q.255-.339.652-.934a.077.077,0,0,0,.013-.114.117.117,0,0,0-.1-.056h-6.571a1.692,1.692,0,0,1-1.671-1.671V14.842a1.694,1.694,0,0,1,1.671-1.671h6.967a1.694,1.694,0,0,1,1.671,1.671v5.692a.263.263,0,0,0,.2.284l2.039.708a.153.153,0,0,0,.142-.014.15.15,0,0,0,.057-.128V14.842a1.694,1.694,0,0,1,1.67-1.671h6.967a1.694,1.694,0,0,1,1.671,1.671v5.381a1.692,1.692,0,0,1-1.671,1.671h-7.873a.314.314,0,0,0-.311.17c-.245.471-.407.774-.482.906a.158.158,0,0,0,0,.128c.019.047.047.07.085.07h10.45a1.645,1.645,0,0,1,1.671,1.671Zm-18.861-6.513a.2.2,0,0,0,.226-.228V16.655a.2.2,0,0,0-.226-.227h-2.039c-.132,0-.2.075-.2.227V18.41c0,.153.066.228.2.228Zm.34,16.85a.2.2,0,0,0,.226-.227V33.335c0-.132-.075-.2-.226-.2h-2.039a.176.176,0,0,0-.2.2v1.926c0,.151.067.227.2.227Zm9.714-.227c0,.151.066.227.2.227h2.039a.2.2,0,0,0,.226-.227V33.335c0-.132-.075-.2-.226-.2h-2.039a.175.175,0,0,0-.2.2Zm.651-18.833a.2.2,0,0,0-.227.227V18.41a.2.2,0,0,0,.227.228H211.9c.132,0,.2-.075.2-.228V16.655c0-.152-.066-.227-.2-.227Z" fill="#fff"/>
        <path id="Path_20" data-name="Path 20" d="M249.339,51.832h0a25.916,25.916,0,1,0-25.916-25.916,25.916,25.916,0,0,0,25.916,25.916" fill="#eb6d6c"/>
        <path id="Path_21" data-name="Path 21" d="M262.353,18.893a1.646,1.646,0,0,1-1.671,1.671h-6.91c-.132,0-.2.075-.2.226q-.057,1.614-.114,2.464c0,.152.067.227.2.227h5.834a1.583,1.583,0,0,1,1.161.481,1.617,1.617,0,0,1,.481,1.19,91.136,91.136,0,0,1-.481,9.232,8.309,8.309,0,0,1-.907,3.6,3.653,3.653,0,0,1-1.1,1.019,4.422,4.422,0,0,1-1.388.453,9.529,9.529,0,0,1-1.982.2h-.028a1.678,1.678,0,0,1-1.19-.482,2.276,2.276,0,0,1-.708-1.189q-.143-.51-.311-1.02a1.122,1.122,0,0,1-.057-.368,1.023,1.023,0,0,1,.2-.595.9.9,0,0,1,.793-.424h.057c.358.018.7.028,1.019.028a1.3,1.3,0,0,0,.991-.425q.6-.765.822-7.7c.018-.132-.047-.2-.2-.2h-3.342a.245.245,0,0,0-.255.2,20.437,20.437,0,0,1-1.969,6.557,12.748,12.748,0,0,1-4.262,4.686,1.393,1.393,0,0,1-.821.283,1.419,1.419,0,0,1-.4-.056,2.058,2.058,0,0,1-1.1-.737,6.7,6.7,0,0,0-.566-.708,1.35,1.35,0,0,1-.34-.906v-.17a1.394,1.394,0,0,1,.6-.963,10.782,10.782,0,0,0,2.01-1.685,8.327,8.327,0,0,0,1.4-2.081,19.016,19.016,0,0,0,.906-2.251,14.076,14.076,0,0,0,.537-2.649q.185-1.557.256-2.818t.1-3.186c0-.151-.067-.226-.2-.226H247.57a1.645,1.645,0,0,1-1.671-1.671V17.449a.026.026,0,0,0-.029-.029.081.081,0,0,0-.056.029q-.935,3.314-1.643,5.409a.447.447,0,0,0,.085.4,9.194,9.194,0,0,1,1.784,5.579q0,3.031-1.472,4.078a4.159,4.159,0,0,1-1.756.68,1.042,1.042,0,0,1-.255.028.533.533,0,0,1-.17.029,1.451,1.451,0,0,1-1.019-.425,2.189,2.189,0,0,1-.652-1.19,9.511,9.511,0,0,0-.4-1.387c-.019-.038-.038-.052-.057-.043a.048.048,0,0,0-.028.043v7.391a1.6,1.6,0,0,1-.495,1.19,1.632,1.632,0,0,1-1.176.481H238a1.643,1.643,0,0,1-1.67-1.671V15.07A1.643,1.643,0,0,1,238,13.4h5.041a.463.463,0,0,0,.142-.029.982.982,0,0,1,.312-.056,1.2,1.2,0,0,1,.651.2l.963.538a2.116,2.116,0,0,1,.934,1.02,2.57,2.57,0,0,1,.142.821,2.86,2.86,0,0,1-.057.566.148.148,0,0,0,.015.142.146.146,0,0,0,.127.057h5.409a.176.176,0,0,0,.2-.2v-2.69a1.694,1.694,0,0,1,1.671-1.671h.85a1.692,1.692,0,0,1,1.671,1.671v2.69a.176.176,0,0,0,.2.2h4.418a1.59,1.59,0,0,1,1.189.5,1.623,1.623,0,0,1,.482,1.174Zm-21.92-1.756a.175.175,0,0,0-.2.2V29.74a.2.2,0,0,0,.212.212c.142.009.326.014.552.014a1.313,1.313,0,0,0,.793-.226,1.8,1.8,0,0,0,.453-1.473,7.144,7.144,0,0,0-.849-3.37,4.854,4.854,0,0,1-.6-2.209,3.744,3.744,0,0,1,.085-.793q.481-2.011.991-4.56c.019-.132-.038-.2-.17-.2Z" fill="#fff"/>
        <path id="Path_22" data-name="Path 22" d="M294.024,51.832h0a25.916,25.916,0,1,0-25.916-25.916,25.916,25.916,0,0,0,25.916,25.916" fill="#eb6d6c"/>
        <path id="Path_23" data-name="Path 23" d="M291.185,25.095a1.781,1.781,0,0,1,.567-1.19,1.712,1.712,0,0,1,1.218-.481h1.387a1.546,1.546,0,0,1,1.558,1.529q0,.2-.085,1.133a.94.94,0,0,0,.028.4,14.572,14.572,0,0,0,1.756,4.659,8.523,8.523,0,0,0,3.272,2.945,15.851,15.851,0,0,0,5.479,1.571.891.891,0,0,1,.736.567.992.992,0,0,1,.085.4.948.948,0,0,1-.17.538q-.339.567-.679,1.161a2.407,2.407,0,0,1-1.02,1.02,1.933,1.933,0,0,1-.963.255,2.929,2.929,0,0,1-.4-.028,16.95,16.95,0,0,1-6.131-2.224,11.2,11.2,0,0,1-3.753-4.092.114.114,0,0,0-.2,0,10.656,10.656,0,0,1-3.512,3.582,21.083,21.083,0,0,1-6.032,2.479,1.542,1.542,0,0,1-.482.085A1.79,1.79,0,0,1,283,39.17a2.121,2.121,0,0,1-.991-.963q-.312-.537-.652-1.048a1.154,1.154,0,0,1-.2-.623,1.425,1.425,0,0,1,.057-.4.957.957,0,0,1,.736-.652,22.645,22.645,0,0,0,3.017-.906,17.356,17.356,0,0,0,2.265-1.048,6.227,6.227,0,0,0,1.613-1.289,10.251,10.251,0,0,0,1.091-1.443,6.15,6.15,0,0,0,.68-1.7,15.992,15.992,0,0,0,.368-1.884q.113-.877.2-2.124m-6.91.793a1.88,1.88,0,0,1,.963-.906,1.549,1.549,0,0,1,.651-.142,1.594,1.594,0,0,1,.6.113l.623.255a1.537,1.537,0,0,1,.906.878,1.486,1.486,0,0,1,.142.623,1.546,1.546,0,0,1-.142.651,16.275,16.275,0,0,1-2.322,3.8,1.711,1.711,0,0,1-1.218.623h-.2a2.018,2.018,0,0,1-1.161-.368l-.765-.538a1.2,1.2,0,0,1-.538-1.048,1.4,1.4,0,0,1,.4-.991,12.314,12.314,0,0,0,2.067-2.945m5.183-4.843a1.166,1.166,0,0,1,.255.708,1.433,1.433,0,0,1-.057.4,1.275,1.275,0,0,1-.821.821l-1.048.368a1.9,1.9,0,0,1-.651.113,1.759,1.759,0,0,1-.68-.141,2.136,2.136,0,0,1-1.076-.878,36.819,36.819,0,0,0-2.577-3.4,2.053,2.053,0,0,1-.085-2.6q1.131-1.5,2.01-2.861a2.473,2.473,0,0,1,1.076-.934,2.357,2.357,0,0,1,.878-.17,2.331,2.331,0,0,1,.51.057l1.105.283a1.117,1.117,0,0,1,.821.708.963.963,0,0,1,.113.425.976.976,0,0,1-.226.623q-.567.822-2.351,2.973a.224.224,0,0,0,.028.312,36.719,36.719,0,0,1,2.776,3.2m7.958-.453a1.1,1.1,0,0,1,.283.708,1.338,1.338,0,0,1-.057.368,1.115,1.115,0,0,1-.764.793l-1.02.368a2.148,2.148,0,0,1-.679.113,2.428,2.428,0,0,1-.709-.113,2.173,2.173,0,0,1-1.1-.821,40.813,40.813,0,0,0-2.747-3.285,1.819,1.819,0,0,1-.057-2.464q1.189-1.445,2.124-2.747a2.679,2.679,0,0,1,1.161-.878,2.284,2.284,0,0,1,.85-.17,2.853,2.853,0,0,1,.566.057l1.162.283a1.035,1.035,0,0,1,.764.708.934.934,0,0,1,.085.368,1.015,1.015,0,0,1-.255.651q-.51.652-2.464,2.8a.2.2,0,0,0,.029.312,29.318,29.318,0,0,1,2.832,2.945m8.241.453a1.057,1.057,0,0,1,.283.736.982.982,0,0,1-.056.312,1.117,1.117,0,0,1-.737.821l-1.048.368a2.025,2.025,0,0,1-.736.142,2.659,2.659,0,0,1-.651-.085,2.327,2.327,0,0,1-1.133-.821,36.939,36.939,0,0,0-3.342-3.6,1.7,1.7,0,0,1-.51-1.246,1.6,1.6,0,0,1,.453-1.133q1.418-1.557,2.578-3.059a2.487,2.487,0,0,1,1.161-.849,2.407,2.407,0,0,1,.821-.142,3.011,3.011,0,0,1,.6.057l1.218.34a1.035,1.035,0,0,1,.764.708,1.059,1.059,0,0,1,.057.34,1.017,1.017,0,0,1-.255.651q-.537.594-2.8,2.974a.177.177,0,0,0,0,.283,36.425,36.425,0,0,1,3.342,3.2M303.533,30.5a2.271,2.271,0,0,1-1.133.878,2.326,2.326,0,0,1-.793.142,2.708,2.708,0,0,1-.651-.085l-.623-.17a1.192,1.192,0,0,1-.821-.765,1.058,1.058,0,0,1-.114-.481,1.162,1.162,0,0,1,.2-.623,29.531,29.531,0,0,0,1.558-3.2,1.951,1.951,0,0,1,1.813-1.246,1.747,1.747,0,0,1,.424.057l1.416.311a1.193,1.193,0,0,1,.85.708,1.037,1.037,0,0,1,.142.51,1.142,1.142,0,0,1-.17.6q-1.049,1.812-2.1,3.37" fill="#fff"/>
      </g>
    </g>
  </g>
</svg>
