<svg xmlns="http://www.w3.org/2000/svg" xmlns:xlink="http://www.w3.org/1999/xlink" width="610.828" height="388.154" viewBox="0 0 610.828 388.154">
  <defs>
    <clipPath id="clip-path">
      <rect id="Rectangle_659" data-name="Rectangle 659" width="610.828" height="289.408" fill="none"/>
    </clipPath>
    <clipPath id="clip-path-3">
      <rect id="Rectangle_656" data-name="Rectangle 656" width="21.248" height="58.858" fill="none"/>
    </clipPath>
    <clipPath id="clip-path-4">
      <rect id="Rectangle_657" data-name="Rectangle 657" width="8.234" height="25.458" fill="none"/>
    </clipPath>
    <clipPath id="clip-path-5">
      <rect id="Rectangle_517" data-name="Rectangle 517" width="223.308" height="118.317" fill="none"/>
    </clipPath>
    <clipPath id="clip-path-6">
      <rect id="Rectangle_518" data-name="Rectangle 518" width="187.501" height="158.021" fill="none"/>
    </clipPath>
  </defs>
  <g id="Group_1681" data-name="Group 1681" transform="translate(-509.172 -171.708)">
    <g id="Group_1622" data-name="Group 1622" transform="translate(509.172 270.455)">
      <g id="Group_1621" data-name="Group 1621" clip-path="url(#clip-path)">
        <g id="Group_1620" data-name="Group 1620">
          <g id="Group_1619" data-name="Group 1619" clip-path="url(#clip-path)">
            <path id="Path_5113" data-name="Path 5113" d="M607.718,261.678c-2.126-56.973-14.01-117-45.092-165.672-29.08-45.536-75.458-74.394-127.345-87.3C374.855-6.32,311.865.5,251.327,11.184,194.338,21.244,135.7,33.095,91.185,72.731,46.241,112.75,5.459,169.715.02,231.089a3.6,3.6,0,0,0,1.209,3.229c-1.556,13.134-1.5,29.471,6.381,38.814a12.025,12.025,0,0,0,2.3,2.075,4.074,4.074,0,0,0,4,3.066q242.063,4.895,484.194,1.488,34.583-.492,69.165-1.156c13.615-.26,32.848,2.543,42.5-9.537,1.912-2.392,1.228-6.856-2.053-7.389m-113.939,9.427c-5.74.079-11.479.131-17.219.2q21.415-.745,42.83-1.565a4.781,4.781,0,0,0-.694.962c-8.3.131-16.611.283-24.918.4" transform="translate(0 0)" fill="#fff"/>
            <path id="Path_5114" data-name="Path 5114" d="M448.2,100.761C443.047,83.3,427.07,78.6,411.068,74.8a271.7,271.7,0,0,0-136.784,3.017c-10.643,3.053-21.5,7.085-29.726,14.017a41.616,41.616,0,0,0-12.679,13.139,16.771,16.771,0,0,0-3.98,14.99c1.932,9.182,8.967,11.151,14.446,17.32,5.032,5.666-2.513,11.32-.063,18.182,2.344,6.553,8.828,8.942,15.229,9.727,23.8,2.924,48.342,2.969,72.284,4.411,23.774,1.43,48.521,4.979,72.323,3.508,16.984-1.05,34.146-7.606,41.834-23.845,6.45-13.628,8.53-33.979,4.247-48.506" transform="translate(149.159 44.251)" fill="#fff"/>
            <path id="Path_5115" data-name="Path 5115" d="M230.828,97.513c-.136-.06-.27-.113-.194-.6a8.886,8.886,0,0,1,1.377-3.1,27.936,27.936,0,0,1,6.278-6.715,64.368,64.368,0,0,1,15.378-9.01A74.961,74.961,0,0,1,266.15,74.1a140.469,140.469,0,0,1,16.1-2.356c11.874-1.265,26.174-2.26,43.353-2.654,17.177-.341,37.239-.086,60.571,1.469,5.826.394,11.878.851,18.1,1.422q4.666.437,9.5.894c1.659.2,3.353.371,5.043.629,1.664.459,3.4.742,5.043,1.373a38.129,38.129,0,0,1,17.31,12.669,57.994,57.994,0,0,1,9.783,20.485,74.049,74.049,0,0,1,2.258,22.082,36.21,36.21,0,0,1-21.568,32.716,67.639,67.639,0,0,1-17.515,5.253,145.4,145.4,0,0,1-16.755,1.707c-5.368.313-10.535.55-15.518.738-9.962.394-19.178.619-27.7.767-34.1.543-57.142-.2-72.66-1.4-7.762-.575-13.634-1.339-18.08-1.967-4.422-.874-7.459-1.291-9.451-2.041-4.013-1.262-4.187-1.594-4.1-1.876s.171-.5,3.839.222c3.633.773,11.118,1.947,26.257,2.912s37.969,1.558,72.2.9c8.558-.161,17.828-.43,27.865-.82q7.527-.3,15.624-.745c5.4-.344,10.956-.672,16.628-1.571a67.782,67.782,0,0,0,16.941-4.8A32.743,32.743,0,0,0,449.7,130.31a70.582,70.582,0,0,0-2.129-21.389,54.152,54.152,0,0,0-7.656-17.144,36.412,36.412,0,0,0-12.874-11.714,24.137,24.137,0,0,0-3.848-1.709,32.7,32.7,0,0,0-8.065-1.821c-1.339-.177-2.773-.3-4.177-.437-5.619-.54-11.076-1.076-16.358-1.46-21.144-1.7-39.8-2.315-56.185-2.356-16.389-.065-30.512.53-42.643,1.336-6.063.435-11.634.894-16.737,1.445a103.973,103.973,0,0,0-13.773,2.088,73.144,73.144,0,0,0-19.149,7.343,53.381,53.381,0,0,0-10.172,7.152,27.176,27.176,0,0,0-4.008,4.568c-.684.975-.944,1.366-1.1,1.3" transform="translate(151.203 45.215)" fill="#595757"/>
            <path id="Path_5116" data-name="Path 5116" d="M264.473,113.111c-11.258,1.366-23.616-10.646-33.706-14.979-9.494-4.075-19.409-6.992-29.312-9.886-2.262-.661-4.237,2.444-2.374,4.08,4.833,4.243,10.684,5.775,14.578,11.3,6.283,8.911,4.9,20.7,3.051,30.827A122.25,122.25,0,0,1,202.958,171.8l-7.485,6.268c-2.411,2.02,1.058,5.455,3.452,3.452.055-.046.109-.094.166-.139a1.811,1.811,0,0,0,.788.671l14.566,6.27a2.572,2.572,0,0,0,2.836-.482q1.237.517,2.47,1.028a2.35,2.35,0,0,0,2.374-.627c18.123-22.037,35.92-44.484,44.7-72.043.439-1.378-.788-3.28-2.353-3.089" transform="translate(127.629 57.8)" fill="#f5e8e8"/>
            <path id="Path_5117" data-name="Path 5117" d="M232.186,141.035a14.319,14.319,0,0,1-1.762-3.3,2.467,2.467,0,0,0,.22-.935c.038-.983.076-2.051.1-3.167a2.578,2.578,0,0,0,.626-1.406c.719-6.654.78-12.747-2.518-18.126a23.922,23.922,0,0,0-1-2.647c-.081-.5-.134-.992-.222-1.49a2.006,2.006,0,0,0-1.594-1.634,13.318,13.318,0,0,0-.942-1.156c-5.613-6.037-18.148-7.275-25.638-8.508a2.554,2.554,0,0,0-1.432.187,32.613,32.613,0,0,0-11.638-.556c-3.715.6-6.32,2.326-9.353,4.442-.228.161-.445.313-.672.47a2.5,2.5,0,0,0-1.783.546A92.693,92.693,0,0,1,154.392,115.9a1.969,1.969,0,0,0-1.166,1.932c-.675.278-1.368.535-2.066.786a2.477,2.477,0,0,0-4.008-.988c-4.3,4.058-3.773,9.376.667,12.747-4.293,24.969,38.332,35.256,56.8,32.1,8.283-1.416,16.679-5.553,24.426-8.84,2.863-1.215,8.225-2.3,8.224-6.5,0-3.51-3.219-3.578-5.086-6.1" transform="translate(94.54 64.252)" fill="#fce7d6"/>
            <path id="Path_5118" data-name="Path 5118" d="M158.482,111.177a2.376,2.376,0,0,0-2.277,1.669,26.332,26.332,0,0,0-1.131,5.227l-.017.038.01,0c-.027.219-.075.429-.1.647a2.414,2.414,0,0,0,2.116,2.4,2.493,2.493,0,0,0,2.677-1.748c.051-.118.1-.235.151-.354a2.78,2.78,0,0,0,1.237-2.076,9.193,9.193,0,0,1,.651-2.407c.083-.2.166-.394.248-.589.871-2.068-1.919-3.667-3.568-2.8" transform="translate(101.602 72.737)" fill="#fff"/>
            <path id="Path_5119" data-name="Path 5119" d="M177.58,119.237a2.248,2.248,0,0,0-1.392,2.1l-.119,5.2c-.053,2.325,3.484,3.455,4.548,1.232,1-2.083,2.109-4.651,2.076-7.012a2.775,2.775,0,0,0-5.113-1.52" transform="translate(115.44 77.347)" fill="#fff"/>
            <path id="Path_5120" data-name="Path 5120" d="M173.593,119.2a4.1,4.1,0,0,0-1.485-2.959,2.485,2.485,0,0,0-3.833.493,25.164,25.164,0,0,0-3.29,7.694,45.471,45.471,0,0,0-2.459,5.285l0,.012a2.646,2.646,0,0,0-.662,4.589q2.019,1.455,4.038,2.909c1.72,1.24,3.586-.52,3.606-2.272a2.05,2.05,0,0,0,.728-.892c.083-.194.157-.391.238-.584l.007,0,.01-.038a77.322,77.322,0,0,0,3.921-11.671,2.727,2.727,0,0,0-.816-2.568" transform="translate(105.427 75.769)" fill="#fff"/>
            <path id="Path_5121" data-name="Path 5121" d="M247.3,118.605c-2.833-10.828-12.82-13.206-16.634-22.3-8.778-20.941-25.416-25.446-46.43-18.626-25.173,8.169-36.764,23.621-40.842,48.87a2.774,2.774,0,0,0-.389,2.4l0,.033a2.649,2.649,0,0,0,3.94,2.644c8.288,2.351,19.125-6.45,24.828-10.859,11.752-9.086,23.457-6.441,36.7-2.99,4.189,1.093,9.025,2.046,12.957,3.964,5.609,2.735,8.649,5.563,10.336,9.121a70.113,70.113,0,0,1,2.129,12.316,2.47,2.47,0,0,0,.434,1.194c-.4,3.291-1.093,6.6-1.8,9.848-.255,1.169.344,2.8,1.705,3,4.992.75-1.416,10.848-3.724,14.273-.023.022-.051.023-.075.043l-1.027.588a2.26,2.26,0,0,0-2.652-1.022c-3.853,1.508-7.543,3.142-11.242,5.013a2.27,2.27,0,0,0-.584.421c-.247-.01-.48-.04-.73-.046-2.752-.065-3.313,4.094-.649,4.795,5.217,1.369,8.475,10.143,14.287,5.909.066-.048.1-.108.162-.157a11.024,11.024,0,0,0,5.053-2.982c8.295-7.631,12.729-19.134,14.52-30,1.838-11.143,2.626-24.385-.267-35.444" transform="translate(93.681 48.994)" fill="#a0857a"/>
            <path id="Path_5122" data-name="Path 5122" d="M151.114,131.7c-.869-2.823-2.869-6.742-2.023-9.687a2.15,2.15,0,0,0-.609-2.368c-.007-.023,0-.048-.01-.07-.018-.048-.038-.1-.058-.147a2.483,2.483,0,0,0-3.584-1.459c-1.661.909-2.477,3.018-3.176,4.679-.669,1.586,1.058,3.225,2.6,3.065a61.834,61.834,0,0,0,2.149,7.285c.922,3,5.634,1.719,4.707-1.3" transform="translate(92.78 77.13)" fill="#a0857a"/>
            <path id="Path_5123" data-name="Path 5123" d="M181.833,81.482a35.639,35.639,0,0,0-6.679-1.359,5.456,5.456,0,0,0-5.7-2.245,7.756,7.756,0,0,0-5.383,3.757,4.3,4.3,0,0,0-.324.871c-1.735,1.5-2.821,3.75-2.742,7.081a1.091,1.091,0,0,0,.046.2A210.643,210.643,0,0,1,147.6,108.222c-9.27,11.426-19.451,22.07-29.613,32.693-.048.05-.056.116-.093.171-.083.015-.164.022-.247.038a1.226,1.226,0,0,0,.325,2.4,27.954,27.954,0,0,1,2.884-.008l19.577,4.677a1.187,1.187,0,0,0,.919-.124c3.512.728,7.278,1.1,10.58-.328a10.347,10.347,0,0,0,1.363-.728,1,1,0,0,0,1.518-.1c7.177-8.977,2.033-20.178,4.184-30.484a67.822,67.822,0,0,1,10.245-23.361,38.072,38.072,0,0,1,12.879-9.351c1.015-.454.626-1.949-.291-2.23" transform="translate(76.57 50.993)" fill="#f5e8e8"/>
            <path id="Path_5124" data-name="Path 5124" d="M332.208,173.883c-8.359-4.823-19.161-10.477-29.409-10.843a5.266,5.266,0,0,0-6.388-1.543,27.429,27.429,0,0,0-5.813,3.666,10.4,10.4,0,0,1-5.674.354c-5.056-1.214-5.48-4.21-8.563-7.513-2.52-2.7-3.134-3.879-7.157-5.258-9.77-3.351-19.721-5.833-29.519-9.042a80.923,80.923,0,0,0-11.941-5.253c-3.162-1.046-5.275-.949-8.57-.886-9.643.187-17.2-2.4-19.025-13.113a4.706,4.706,0,0,0-3.409-3.409c-12.6-2.144-25.491-3.449-38.1-.57-14.259,3.255-27.562,11.575-40.532,18q-44.176,21.892-88.353,43.786a4.054,4.054,0,0,0-2.46,4.068c-3.31,4.364-4.788,9.841-1.207,14.947,5.917,8.441,23.492,7.263,32.679,8.2,34.5,3.5,69.238,1.71,103.8.321,34.79-1.4,69.549-1.508,104.36-.836,16.623.32,33.244.757,49.867,1.139,8.891.2,21.153,2.389,25.443-6.149a5.013,5.013,0,0,0,6.78-1.462c7.676-11.212-8.275-23.678-16.813-28.6" transform="translate(15.745 77.9)" fill="#f0dedb"/>
            <g id="Group_1615" data-name="Group 1615" transform="translate(155.589 229.633)" style="mix-blend-mode: multiply;isolation: isolate">
              <g id="Group_1614" data-name="Group 1614">
                <g id="Group_1613" data-name="Group 1613" clip-path="url(#clip-path-3)">
                  <path id="Path_5125" data-name="Path 5125" d="M111.691,139.147C93.779,152,90.959,176.2,96.564,195.833c.859,3.017,5.571,1.734,4.705-1.3-4.892-17.148-3.156-39.666,12.886-51.173,2.53-1.815.1-6.051-2.464-4.215" transform="translate(-93.975 -138.696)" fill="#dbdcdc"/>
                </g>
              </g>
            </g>
            <g id="Group_1618" data-name="Group 1618" transform="translate(145.114 244.287)" style="mix-blend-mode: multiply;isolation: isolate">
              <g id="Group_1617" data-name="Group 1617">
                <g id="Group_1616" data-name="Group 1616" clip-path="url(#clip-path-4)">
                  <path id="Path_5126" data-name="Path 5126" d="M91.412,148.807a39.24,39.24,0,0,0-3.373,22.429c.421,3.1,5.124,1.78,4.707-1.3a33.267,33.267,0,0,1,2.881-18.669c1.32-2.83-2.886-5.311-4.215-2.464" transform="translate(-87.647 -147.547)" fill="#dbdcdc"/>
                </g>
              </g>
            </g>
            <path id="Path_5127" data-name="Path 5127" d="M163.232,83.656c.82.74,1.48,1.343-23.052,29.552-6.018,6.922-10.6,12.109-14.111,15.987-3.5,3.975-6.08,6.374-7.4,8.169-1.381,1.8-1.982,2.863-2.452,3.348-.45.5-.715.454-.974.358s-.465-.167-.4-.8a11.036,11.036,0,0,1,1.621-4.028c1.26-2.238,3.753-4.83,7.07-8.793,3.449-3.984,8.048-9.292,14.181-16.371,21.53-24.755,24.7-28.166,25.52-27.424" transform="translate(75.289 54.791)" fill="#595757"/>
            <path id="Path_5128" data-name="Path 5128" d="M211.52,175.4c-.909-.626-1.644-1.137,18.972-32.323,5.058-7.651,8.922-13.394,11.891-17.7,2.945-4.4,5.189-7.118,6.265-9.07,1.132-1.965,1.589-3.1,1.992-3.641.381-.553.651-.543.919-.482s.482.1.5.737a11.07,11.07,0,0,1-1.079,4.205c-.955,2.384-3.084,5.282-5.853,9.648-2.9,4.4-6.76,10.267-11.909,18.09-18.093,27.368-20.79,31.164-21.7,30.537" transform="translate(138.452 73.539)" fill="#595757"/>
            <path id="Path_5129" data-name="Path 5129" d="M156.493,79.883a1.688,1.688,0,0,1-1.707-.076,5.482,5.482,0,0,0-1.767-.449,4.861,4.861,0,0,0-3.419,1.056,10.376,10.376,0,0,0-2.346,3.479,21.367,21.367,0,0,1-1.126,2.265c-.618.98-1.109.916-1.647.785s-.849-.2-.75-1.331a12.86,12.86,0,0,1,.623-2.7,11.2,11.2,0,0,1,3.1-4.952,7.279,7.279,0,0,1,5.528-1.7,5.2,5.2,0,0,1,3.212,1.485c1.136,1.389.747,1.964.3,2.131" transform="translate(94.227 49.981)" fill="#595757"/>
            <path id="Path_5130" data-name="Path 5130" d="M166.22,79.979c-.033,1.061-.063,2.111-7.576,1.555-7.359-.7-7.353-1.755-7.207-2.808.156-1.134.161-1.137,7.482-.439,6.422.492,7.338.556,7.3,1.692" transform="translate(99.268 51.016)" fill="#595757"/>
            <path id="Path_5131" data-name="Path 5131" d="M181.847,148.932c-.119.5-.228,1.005-3.654.482a64.382,64.382,0,0,1-7.984-1.9,55.825,55.825,0,0,1-14.8-6.518c-5.846-3.8-9.508-8.378-10.075-12.914a15.273,15.273,0,0,1,.333-5.25,27.018,27.018,0,0,1,.95-3.255c1.209-3.3,1.672-3.295,2.194-3.182s.82.222.129,3.571a23.664,23.664,0,0,0-.74,7.5c.329,3.156,3.4,7.419,8.9,10.921a56.481,56.481,0,0,0,12.666,5.906c3.444,1.189,5.984,1.95,7.8,2.535,3.637,1.146,4.4,1.588,4.282,2.114" transform="translate(95.224 76.291)" fill="#595757"/>
            <path id="Path_5132" data-name="Path 5132" d="M149.87,126.918c-.267.421-.527.934-2.189.088a9.82,9.82,0,0,1-3.181-3.023,12.806,12.806,0,0,1-2.262-8.3,9.532,9.532,0,0,1,1.651-4.866,6.28,6.28,0,0,1,3.414-2.4,6.09,6.09,0,0,1,4.734.485c1.722,1.166,1.24,1.748.952,2.091-.363.442-.512.512-1.715.131a5.3,5.3,0,0,0-2.982.045,3.564,3.564,0,0,0-1.863,1.368,6.8,6.8,0,0,0-1.088,3.4,11.055,11.055,0,0,0,1.311,5.962,14.876,14.876,0,0,0,2.1,2.934c1.152,1.235,1.407,1.614,1.113,2.093" transform="translate(93.242 70.915)" fill="#595757"/>
            <path id="Path_5133" data-name="Path 5133" d="M202.228,139.791c-.459.109-1.108.3-1.728-2.52a25.579,25.579,0,0,1-.094-6.6,45.493,45.493,0,0,0-.381-12.052c-.882-5.1-1.76-8.987-3.134-11.219a8.513,8.513,0,0,0-4.043-3.637c-1.093-.46-1.748-.541-2.119-.737a.821.821,0,0,1-.522-.662c-.055-.258-.109-.46.255-.687a4.224,4.224,0,0,1,2.816-.227,9.472,9.472,0,0,1,5.97,4.217,18.321,18.321,0,0,1,2.315,5.325,69.151,69.151,0,0,1,1.538,7.141,41.277,41.277,0,0,1,.329,11.7c-.346,2.927-.576,4.919-.626,6.349-.075,2.828-.012,3.464-.576,3.608" transform="translate(124.685 66.441)" fill="#595757"/>
            <path id="Path_5134" data-name="Path 5134" d="M147.833,121.871c-.071-.253-.136-.5.444-.917s1.81-.97,4.19-2.167a69.917,69.917,0,0,0,10.7-6.748C168.06,108.516,174,102.872,183.12,96.6c4.543-3,8.939-5.384,13.571-5.78a25.119,25.119,0,0,1,11.148,1.659,13.638,13.638,0,0,1,6.629,5.09,12.314,12.314,0,0,1,2.058,5.306,7.432,7.432,0,0,1-.965,5.2c-.5.642-.743.565-.982.455s-.424-.21-.351-.828a11.973,11.973,0,0,0,.028-4.134,10.922,10.922,0,0,0-7.167-8.24,22.865,22.865,0,0,0-9.9-1.469c-3.71.23-7.95,2.394-12.335,5.328-7.762,5.295-13.316,10.33-18.118,13.845a61.8,61.8,0,0,1-11.442,7.048,25.156,25.156,0,0,1-5.884,1.96c-1.129.182-1.51.084-1.581-.169" transform="translate(96.898 59.498)" fill="#595757"/>
            <path id="Path_5135" data-name="Path 5135" d="M186.722,102.086c-.575.091-.873-.114-1.7-.545a15.309,15.309,0,0,0-2.772-.949,33.184,33.184,0,0,0-6.187-1.189,26.352,26.352,0,0,0-9.234.829c-1.354.323-1.676.01-1.964-.447-.28-.432-.483-.714.851-1.624,1.321-.793,4.465-2.351,10.621-1.859a25.9,25.9,0,0,1,6.28,1.33,21.2,21.2,0,0,1,2,.806,6.445,6.445,0,0,1,1.527.975,2.75,2.75,0,0,1,1.088,2.04c-.031.48-.263.611-.515.632" transform="translate(107.964 63.08)" fill="#595757"/>
            <path id="Path_5136" data-name="Path 5136" d="M189.951,104.933c-.553,0-.947-.073-1.424-1.225a18.4,18.4,0,0,0-1.262-2.538,10.616,10.616,0,0,0-3.866-3.722,31.849,31.849,0,0,0-5.373-2.189c-1.378-.447-2.315-.717-2.942-.95-1.253-.455-1.334-.866-1.343-1.414-.018-.507-.013-.874,1.493-.932a14.692,14.692,0,0,1,3.416.439,24.864,24.864,0,0,1,6.267,2.33,12.048,12.048,0,0,1,4.613,4.507,9.157,9.157,0,0,1,1.224,3.565c.126,1.781-.313,2.149-.8,2.131" transform="translate(113.914 60.295)" fill="#595757"/>
            <path id="Path_5137" data-name="Path 5137" d="M179.649,90.871c.3.44.55.828-1.479,2.7-1.987,1.929-6.287,5.295-13.969,13.2l-8.707,9.136c-1.089,1.123-1.974,2.02-2.808,2.818a12.546,12.546,0,0,1-2.315,1.729c-1.364.781-2.45.773-2.9.5a.562.562,0,0,1-.272-.79,1.4,1.4,0,0,1,.308-.586c.127-.162.447-.235,1.4-.97a36.74,36.74,0,0,0,4.31-4.543c2.088-2.326,4.861-5.445,8.755-9.467,6.838-7.038,11.346-10.525,13.972-12.295,2.649-1.76,3.424-1.861,3.709-1.44" transform="translate(96.47 59.445)" fill="#595757"/>
            <path id="Path_5138" data-name="Path 5138" d="M146.214,117.031c-.5-.161-.959-.3-.886-1.634.106-1.323.68-3.894,2.879-8.611,2.224-4.6,3.844-6.677,4.816-7.613,1-.922,1.422-.7,1.864-.409s.692.455.159,1.6c-.5,1.159-1.854,3.265-4.028,7.758-1.854,3.959-2.684,6.315-3.313,7.583-.613,1.277-.987,1.488-1.492,1.328" transform="translate(95.281 64.59)" fill="#595757"/>
            <path id="Path_5139" data-name="Path 5139" d="M144.224,129.5c-.518.1-.983.21-1.8-2.7a32.368,32.368,0,0,1-.772-7.114,47.2,47.2,0,0,1,7.864-26.247,31.727,31.727,0,0,1,4.571-5.53c2.32-2.031,2.732-1.75,3.106-1.386s.583.589-1.225,2.793c-.838,1.157-2.2,2.806-3.884,5.53a50.6,50.6,0,0,0-5.439,11.941,52.433,52.433,0,0,0-2,18.654c.209,3.2.126,3.957-.422,4.063" transform="translate(92.871 56.559)" fill="#595757"/>
            <path id="Path_5140" data-name="Path 5140" d="M225.816,104.422c-.248-.086-.483-.175-.493-.947a42.108,42.108,0,0,0,.207-5.015c-.152-2.732-1.283-6.985-6.28-11.118a38.217,38.217,0,0,0-4.258-3.1,32.609,32.609,0,0,0-5.429-2.73,48.919,48.919,0,0,0-14.869-3.21,57.24,57.24,0,0,0-25.913,4.407,75.446,75.446,0,0,0-12.247,6.634c-4.957,3.383-4.932,3.556-5.532,3.31-.449-.051-.853-1.161,3.853-4.977a58.836,58.836,0,0,1,40.035-12.482c10.715.687,19,4.124,24.249,8.3,5.431,3.937,8.131,8.851,8.523,12.525a13.458,13.458,0,0,1-.776,7.025c-.517,1.174-.821,1.467-1.07,1.379" transform="translate(98.838 49.236)" fill="#595757"/>
            <path id="Path_5141" data-name="Path 5141" d="M197.528,133.06c-.288-.459-.475-.851.253-1.806a20.812,20.812,0,0,0,3.957-6.939c1.235-4.4,1.1-6.952,1.488-8.192.3-1.273.762-1.356,1.291-1.384s.836-.053,1.053,1.242a17.426,17.426,0,0,1,.141,3.126,23.194,23.194,0,0,1-1,6.142c-1.518,4.619-3.821,6.654-5.088,7.533-1.349.863-1.836.71-2.093.278" transform="translate(129.344 75.224)" fill="#595757"/>
            <path id="Path_5142" data-name="Path 5142" d="M202.977,124.679c.316-.358.689-.9,2.007.227a6.1,6.1,0,0,1,1.7,3.636,9.235,9.235,0,0,1-2.44,7.22,12.228,12.228,0,0,1-6.209,3.82,8.77,8.77,0,0,1-3.765.2c-1.591-.353-1.545-.917-1.5-1.416.056-.545.109-.773,1.381-.93a16.336,16.336,0,0,0,2.94-.621,10.663,10.663,0,0,0,4.8-3.089,7.139,7.139,0,0,0,1.9-4.462,6.6,6.6,0,0,0-.508-2.664c-.512-1.142-.666-1.485-.3-1.916" transform="translate(126.382 81.452)" fill="#595757"/>
            <path id="Path_5143" data-name="Path 5143" d="M192.137,112.206c.22,1.03.389,1.869-7.116,3.833-7.368,1.922-7.768,1.144-8.081.136s-.358-1.149,7.293-3.149c6.7-1.75,7.686-1.851,7.9-.82" transform="translate(115.947 73.135)" fill="#595757"/>
            <path id="Path_5144" data-name="Path 5144" d="M165.032,112.875c-.717.72-1.421,1.432-4.982-2.538-3.384-3.99-2.647-4.667-1.836-5.282.869-.661.881-.661,4.184,3.235,2.974,3.339,3.4,3.818,2.634,4.585" transform="translate(103.286 68.665)" fill="#595757"/>
            <path id="Path_5145" data-name="Path 5145" d="M169.363,141.122c-.523-.2-.955-.384-.176-3.523.377-1.573,1.056-3.886,2.008-7.364.472-1.74,1.015-3.772,1.586-6.156.273-1.189.626-2.5.793-3.73a7.268,7.268,0,0,0,.048-1.8,3.97,3.97,0,0,0-.171-.81,2.831,2.831,0,0,0-.192-.464v0a2.543,2.543,0,0,0-.531.063,3.191,3.191,0,0,0-1.247.689,11.789,11.789,0,0,0-2.164,2.667c-1.313,2-2.344,3.78-3.2,5.33-1.705,3.109-2.719,5.29-3.472,6.742-1.457,2.924-1.919,2.922-2.46,2.743-.507-.164-.868-.273.1-3.44a51.1,51.1,0,0,1,3.018-7.258,64.656,64.656,0,0,1,3.24-5.725,15.135,15.135,0,0,1,2.775-3.477,6.483,6.483,0,0,1,2.556-1.411,5.178,5.178,0,0,1,1.74-.162,3.027,3.027,0,0,1,2.07,1.041,4.5,4.5,0,0,1,.811,1.479,7.081,7.081,0,0,1,.321,1.281,9.329,9.329,0,0,1,.05,2.359,26.406,26.406,0,0,1-.742,3.76c-.55,2.22-1.094,4.157-1.6,5.849-1.025,3.382-1.909,5.788-2.608,7.492-1.414,3.4-2.045,4.023-2.546,3.826" transform="translate(104.692 74.756)" fill="#595757"/>
            <path id="Path_5146" data-name="Path 5146" d="M170.839,131.9c-.159.528-.295,1.01-1.146,1.126-.839.094-2.439-.137-5.3-1.464-2.785-1.348-3.98-2.434-4.45-3.154a1.258,1.258,0,0,1,.109-1.623c.31-.457.49-.715,1.194-.462.714.237,1.932,1.028,4.543,2.293,4.637,2.065,5.387,2.152,5.05,3.283" transform="translate(104.704 82.761)" fill="#595757"/>
            <path id="Path_5147" data-name="Path 5147" d="M184.446,122.409c-.584.108-.959-.022-1.77-1.6-.21-.354-.546-.763-.8-.823a.866.866,0,0,0-.429.026,2.58,2.58,0,0,0-.833.391,5,5,0,0,0-.964.988,5.911,5.911,0,0,0-.421.621c-.007.02.013-.025-.012.045l-.091.265-.187.543a21.141,21.141,0,0,0-1.349,4.664c-.091,1.353.841,2.182,1.23,2.093a2.769,2.769,0,0,0,1.944-1.417,20.349,20.349,0,0,0,2.171-3.83c.634-1.7.9-1.922,1.51-1.967.467-.066,1.075-.108.922,2.334a12.766,12.766,0,0,1-1.95,5,5.766,5.766,0,0,1-4.376,3.086,4.212,4.212,0,0,1-3.541-1.659,5.643,5.643,0,0,1-1.167-3.758,17.749,17.749,0,0,1,1.394-5.1c.124-.334.243-.657.361-.97l.19-.512a3.079,3.079,0,0,1,.4-.712,9.029,9.029,0,0,1,1.4-1.609,5.639,5.639,0,0,1,1.79-1.111,4.408,4.408,0,0,1,1.979-.291,3.417,3.417,0,0,1,2.724,1.964,4.441,4.441,0,0,1,.454,2.689c-.109.469-.308.621-.583.651" transform="translate(114.297 76.77)" fill="#595757"/>
            <path id="Path_5148" data-name="Path 5148" d="M163.672,115.14c-.584.108-.959-.022-1.77-1.6-.209-.354-.546-.762-.8-.821a.848.848,0,0,0-.431.025,2.6,2.6,0,0,0-.833.391,5.043,5.043,0,0,0-.964.988,6.084,6.084,0,0,0-.421.621c-.007.02.013-.025-.012.045l-.089.265-.187.543a21.074,21.074,0,0,0-1.351,4.662c-.091,1.356.841,2.184,1.23,2.094a2.769,2.769,0,0,0,1.944-1.417,20.307,20.307,0,0,0,2.171-3.83c.634-1.7.9-1.922,1.51-1.967.467-.066,1.076-.108.922,2.334a12.766,12.766,0,0,1-1.95,5,5.763,5.763,0,0,1-4.376,3.086,4.212,4.212,0,0,1-3.541-1.659,5.633,5.633,0,0,1-1.166-3.758,17.7,17.7,0,0,1,1.392-5.1c.124-.333.243-.656.361-.97l.19-.513a3.1,3.1,0,0,1,.4-.71,9.03,9.03,0,0,1,1.4-1.609,5.64,5.64,0,0,1,1.79-1.111,4.409,4.409,0,0,1,1.979-.291A3.426,3.426,0,0,1,163.8,111.8a4.448,4.448,0,0,1,.452,2.689c-.109.469-.308.621-.583.651" transform="translate(100.677 72.004)" fill="#595757"/>
            <path id="Path_5149" data-name="Path 5149" d="M209.423,131.1c.394.283.917.606-.712,3.048a19.79,19.79,0,0,1-5.058,4.738,30.779,30.779,0,0,1-12.537,4.745,43.938,43.938,0,0,1-13.076-.093,39.606,39.606,0,0,1-6.581-1.517c-2.73-.942-2.7-1.459-2.584-1.964s.194-.786,2.916-.364c1.361.19,3.387.57,6.429.921a47.489,47.489,0,0,0,12.427-.061,31.2,31.2,0,0,0,10.5-3.566,28.083,28.083,0,0,0,5.152-3.714c2.147-2.02,2.657-2.507,3.129-2.174" transform="translate(110.698 85.891)" fill="#595757"/>
            <path id="Path_5150" data-name="Path 5150" d="M201.047,168.254c-.474-.372-.7-.621,2.02-5.169a65.24,65.24,0,0,0,5.31-11.33,78.752,78.752,0,0,0,4.336-23.959,128.8,128.8,0,0,0-.281-13.818,30.824,30.824,0,0,0-2.227-9.753,17.235,17.235,0,0,0-3.969-5.828,16.732,16.732,0,0,0-3.884-2.858c-2.285-1.228-3.644-1.586-4.306-1.932-.676-.323-.729-.57-.724-.849s.033-.5.785-.6a11.1,11.1,0,0,1,4.972,1,17.582,17.582,0,0,1,4.758,2.882,19.175,19.175,0,0,1,4.984,6.566,31.52,31.52,0,0,1,2.793,10.878,124.9,124.9,0,0,1,.356,14.427,78.987,78.987,0,0,1-3.949,22.734,55.924,55.924,0,0,1-5.782,12.06,27.539,27.539,0,0,1-3.795,4.8c-.811.783-1.184.914-1.4.738" transform="translate(129.376 60.416)" fill="#595757"/>
            <path id="Path_5151" data-name="Path 5151" d="M295.02,186.582a36.772,36.772,0,0,0-9.848-10.76,60.08,60.08,0,0,0-11.5-6.791,144.486,144.486,0,0,0-17.083-6.321c-13.2-4.308-30.3-8.894-51.585-15.939a293.242,293.242,0,0,1-31.378-12.335c-8.806-4.118-16.146-8.457-23.08-11.05a86.6,86.6,0,0,0-30.313-5.866,53.851,53.851,0,0,0-11.364.841c-1.6.343-1.566.558-1.533.833s.19.52,1.954.571c1.76.084,5.138-.129,11.6.23a90.769,90.769,0,0,1,29.287,6.543c6.558,2.583,13.706,6.884,22.588,11.043a292.874,292.874,0,0,0,31.2,12.28c12.225,4.094,23.038,7.22,32.464,10.02,9.426,2.782,17.5,5.192,24.343,7.4a101.28,101.28,0,0,1,16.663,6.782,50,50,0,0,1,17.32,14.821c.98,1.265,1.214,1.157,1.459,1.026.219-.111.116-.975-1.2-3.325" transform="translate(70.371 77.051)" fill="#595757"/>
            <path id="Path_5152" data-name="Path 5152" d="M195.01,142.088a4.973,4.973,0,0,0-4.272-.363c-3.427-4.907-14.244-5.487-13.4,2.066a6.393,6.393,0,0,0,3.013,4.618,6.271,6.271,0,0,0,3.141,2.075,6.877,6.877,0,0,0,3.426.03,7.252,7.252,0,0,0,5.278-1.235,4.432,4.432,0,0,0,4.207-2.527,3.737,3.737,0,0,0-1.4-4.664" transform="translate(116.244 90.526)" fill="#fce7d6"/>
            <path id="Path_5153" data-name="Path 5153" d="M180.347,140.79a.679.679,0,0,1-.146-.882,4.719,4.719,0,0,1,2.793-2,9.533,9.533,0,0,1,3.757-.455,12.308,12.308,0,0,1,2.493.454c.818.229,1.709.477,2.681.75.974.293,2.027.626,3.164,1.043q.852.308,1.77.7.459.2.935.421a4.464,4.464,0,0,1,1.25.864,4.327,4.327,0,0,1,1.281,2.99,4.524,4.524,0,0,1-1.2,3.141,20.664,20.664,0,0,1-4.073,3.566c-6.5,4.56-14.007,2.5-16.836-.912a9.514,9.514,0,0,1-1.9-2.6,5.7,5.7,0,0,1-.5-2.866,8.174,8.174,0,0,1,1.28-3.694,6.819,6.819,0,0,1,2.363-2.492.733.733,0,0,1,.93.076c.507.364.467.515-1.022,3.361a7.762,7.762,0,0,0-.74,2.662,3.526,3.526,0,0,0,.277,1.527,4,4,0,0,0,.464.76,12.483,12.483,0,0,0,.848.939,8.357,8.357,0,0,0,5.243,2.573,11.122,11.122,0,0,0,7.773-2.038,18.431,18.431,0,0,0,3.093-2.6c.184-.2.483-.528.538-.618a1.13,1.13,0,0,0,.189-.382,1.186,1.186,0,0,0-.048-.785,1.118,1.118,0,0,0-.493-.536c-.366-.194-.929-.452-1.386-.644-.957-.412-1.889-.762-2.768-1.076-1.742-.619-3.359-1.136-4.628-1.536a9.518,9.518,0,0,0-3.053-.384,11.038,11.038,0,0,0-3.255.7c-.6.2-.886.2-1.075-.018" transform="translate(115.261 90.107)" fill="#595757"/>
            <path id="Path_5154" data-name="Path 5154" d="M150.164,130.328a4.975,4.975,0,0,0-.118-.98,4.335,4.335,0,0,0-.048-1.083,4.7,4.7,0,0,0-2.084-2.94c-.1-.114-.2-.228-.3-.331a6.8,6.8,0,0,0-1.656-1.179,6.837,6.837,0,0,0-.767-.589c-1.538-.944-3.883-2.041-5.735-1.671a5.143,5.143,0,0,0-6.528,4.474c-.429,4.114,3.253,7.669,6.982,8.7a6.571,6.571,0,0,0,3.252.056c.147.056.3.118.444.169,3.649,1.267,7.306-.922,6.561-4.623" transform="translate(87.131 79.547)" fill="#fce7d6"/>
            <path id="Path_5155" data-name="Path 5155" d="M151.543,135.468a.8.8,0,0,1-.267-.853,13.346,13.346,0,0,0,.48-2.69,9.431,9.431,0,0,0-.4-2.9,6.7,6.7,0,0,0-.738-1.725,3.514,3.514,0,0,0-1.5-1.245c-1.586-.748-3.868-1.5-6.283-2.427a12.75,12.75,0,0,0-3.757-.767,4.832,4.832,0,0,0-3.348,1.47,4.917,4.917,0,0,0-1.565,3.207,4.163,4.163,0,0,0,.238,1.714c.172.6.285,1.2.467,1.745a2.75,2.75,0,0,0,.632,1.046,6.542,6.542,0,0,0,1.192.8,17.954,17.954,0,0,0,2.664,1.257,21,21,0,0,0,7.7,1.285A20.607,20.607,0,0,0,150,135.2a.914.914,0,0,1,.891.27c.184.189.377.359.01.856a5.239,5.239,0,0,1-3.356,1.47,18.851,18.851,0,0,1-8.954-.725,19.407,19.407,0,0,1-3.23-1.371,11.284,11.284,0,0,1-1.8-1.139,5.577,5.577,0,0,1-1.581-2.174,19.984,19.984,0,0,1-.685-2.283c-.1-.4-.22-.783-.306-1.22a7.237,7.237,0,0,1-.065-1.457,8.112,8.112,0,0,1,2.6-5.5,8.282,8.282,0,0,1,4.858-2.293,12.475,12.475,0,0,1,4.462.623c2.47.778,4.452,1.719,6.29,2.419a10.57,10.57,0,0,1,2.671,1.536,6.09,6.09,0,0,1,1.742,2.452,10.818,10.818,0,0,1,.735,4.068,6.216,6.216,0,0,1-1.545,4.333c-.651.613-1.02.583-1.2.4" transform="translate(85.834 78.43)" fill="#595757"/>
            <path id="Path_5156" data-name="Path 5156" d="M257.9,115.741c-.4.4-.762.7-4.083-1.828-.886-.573-1.96-1.321-3.3-2.255-1.424-.831-3.007-1.983-5.09-3.123a159.5,159.5,0,0,0-17.462-8.729c-7.633-3.306-13.54-5.492-17.989-7.159s-7.47-2.762-9.487-3.58c-4.035-1.618-4.063-2.113-3.906-2.652.149-.522.245-.853,4.4.235,2.076.55,5.164,1.465,9.739,3.017s10.641,3.73,18.54,7.152c13.83,6.025,21.091,11.023,24.838,14.2a19.266,19.266,0,0,1,3.417,3.465c.531.725.571,1.058.374,1.252" transform="translate(128.866 56.34)" fill="#595757"/>
            <path id="Path_5157" data-name="Path 5157" d="M140.76,126.094a1.286,1.286,0,0,1-.707-1.414,5.4,5.4,0,0,1,.652-1.591,16.43,16.43,0,0,0,1.275-2.518c.742-2.354,1.217-3.869,1.753-4.437a1.3,1.3,0,0,1,1.546-.4c.536.126.843.2.854.927a19.132,19.132,0,0,1-1.091,5.027,10.4,10.4,0,0,1-1.687,2.96,9.4,9.4,0,0,1-1.179,1.3c-.618.528-.975.48-1.417.151" transform="translate(91.809 75.819)" fill="#595757"/>
            <path id="Path_5158" data-name="Path 5158" d="M237.39,118.781c-.472-.288-.9-.551-.371-2.1a24.433,24.433,0,0,1,1.618-3.459c.44-.783.957-1.7,1.556-2.762a14.744,14.744,0,0,0,1.669-3.29c.23-1-.147-1.685-.457-1.8a3.5,3.5,0,0,0-2.043-.035,15.268,15.268,0,0,1-2.4.295,6.576,6.576,0,0,1-1.747-.207c-1.78-.553-1.619-1.177-1.5-1.674.142-.561.242-.76,1.586-.785a12.292,12.292,0,0,0,1.265-.119c.5-.07,1.086-.235,2.018-.472a6.269,6.269,0,0,1,4.144.073,4.11,4.11,0,0,1,2.131,2.308,5.4,5.4,0,0,1,.174,3.167,13.381,13.381,0,0,1-1.866,3.83c-.593.944-1.114,1.773-1.573,2.5-.927,1.452-1.626,2.488-2.171,3.207-1.089,1.439-1.566,1.613-2.035,1.325" transform="translate(153.193 66.903)" fill="#595757"/>
            <path id="Path_5159" data-name="Path 5159" d="M154.122,120.1c.031.275.043.538-.99.914a47.489,47.489,0,0,0-6.9,2.929c-3.806,1.906-9.1,5.937-17.84,10.778-4.354,2.422-9.532,5.089-15.737,7.838-6.224,2.788-13.436,5.392-21.611,8.586-15.709,6.866-27.287,12.851-36.166,17.1-8.853,4.287-14.863,7.108-18.956,8.939-8.186,3.664-8.7,3.363-8.949,2.869s-.386-.777,7.412-4.849c3.9-2.036,9.783-5.018,18.631-9.451,8.854-4.383,20.558-10.528,36.777-17.623,7.174-2.8,13.707-5.172,19.285-7.53,5.608-2.373,10.439-4.689,14.619-6.853,8.4-4.291,14.03-8.037,18.484-10.47a27.579,27.579,0,0,1,9.459-3.455c1.869-.209,2.459.025,2.482.273" transform="translate(17.634 78.509)" fill="#595757"/>
            <path id="Path_5160" data-name="Path 5160" d="M102.332,193.379a.67.67,0,0,1-.9.106,7.144,7.144,0,0,1-2.5-2.656,20.218,20.218,0,0,1-2.889-9.406c-.391-4.642.326-10.937,3.129-18.5a72.713,72.713,0,0,1,8.316-16.343,53.115,53.115,0,0,1,6.033-7.422c2.936-2.858,3.449-2.556,3.835-2.2.421.391.591.566-1.811,3.613-1.172,1.546-2.98,3.828-5.361,7.472a79.19,79.19,0,0,0-7.947,15.987,46.049,46.049,0,0,0-3.185,15.643,24.191,24.191,0,0,0,1.47,8.788c.765,1.9,1.371,3.023,1.712,3.707.325.7.306,1.03.1,1.21" transform="translate(62.908 89.651)" fill="#595757"/>
            <path id="Path_5161" data-name="Path 5161" d="M90.609,167.909c-.551,0-1.051,0-1.389-1.3-.28-1.286-.52-3.964.642-9.073,1.262-4.985,2.672-7.267,3.52-8.308.9-1.031,1.364-.838,1.858-.591s.772.4.4,1.568c-.32,1.187-1.412,3.382-2.606,8.093-.959,4.146-1.075,6.585-1.333,7.939-.23,1.361-.531,1.671-1.089,1.669" transform="translate(58.347 97.329)" fill="#595757"/>
            <path id="Path_5162" data-name="Path 5162" d="M173.793,40.4,162.62,57.32l8.219-.667-5.49,10.54L181.77,52.651,170.12,52.5Z" transform="translate(106.624 26.487)" fill="#fcd25b"/>
            <path id="Path_5163" data-name="Path 5163" d="M236.157,42.82,216.342,62.894l11.4,1.31L217.4,77.1l26.332-15.409-15.855-3.359Z" transform="translate(141.847 28.075)" fill="#fcd25b"/>
            <path id="Path_5164" data-name="Path 5164" d="M106.491,62.782a1.619,1.619,0,0,0-.919-1.513c-3.108-1.531-6.944-1.752-10.321-2.386a1.781,1.781,0,0,0-2.094,1.4,1.784,1.784,0,0,0-.831,1.387q-1.649,20.65-5.23,41.037a1.807,1.807,0,0,0,1.773,2.192,17.917,17.917,0,0,1,5.555.767,1.6,1.6,0,0,0,1.76-.644c.22-.147.523-.29.586-.586C99.3,92.576,105.592,71,106.491,62.782" transform="translate(57.083 38.584)" fill="#eb6d6c"/>
            <path id="Path_5165" data-name="Path 5165" d="M94.875,96.746q.012-1.724.03-3.449a4.327,4.327,0,0,0-.364-2.5c-.924-1.392-3.326-1.176-4.941-1.19-.073-.065-.166-.134-.232-.2a1.8,1.8,0,0,0-3.02,1.318l-.033,2.2a24.91,24.91,0,0,0-.3,3.5,1.8,1.8,0,0,0,1.823,1.735,18.82,18.82,0,0,1,4.846.364,1.806,1.806,0,0,0,2.194-1.775" transform="translate(56.395 58.302)" fill="#eb6d6c"/>
            <path id="Path_5166" data-name="Path 5166" d="M125.857,61.994a1.614,1.614,0,0,0-.765-1.6c-2.94-1.833-6.737-2.432-10.033-3.4a1.783,1.783,0,0,0-2.224,1.184,1.783,1.783,0,0,0-.964,1.3Q108.184,79.867,102.6,99.8a1.807,1.807,0,0,0,1.548,2.356,17.957,17.957,0,0,1,5.452,1.313,1.6,1.6,0,0,0,1.815-.467c.233-.124.55-.237.641-.523,3.692-11.55,12.09-32.4,13.8-40.486" transform="translate(67.221 37.32)" fill="#eb6d6c"/>
            <path id="Path_5167" data-name="Path 5167" d="M109.494,94.862q.186-1.714.373-3.429a4.33,4.33,0,0,0-.114-2.527c-.783-1.477-3.194-1.5-4.8-1.674-.068-.071-.152-.151-.212-.219a1.8,1.8,0,0,0-3.136,1.012l-.25,2.187a24.621,24.621,0,0,0-.647,3.449,1.8,1.8,0,0,0,1.642,1.906,19.02,19.02,0,0,1,4.785.843,1.8,1.8,0,0,0,2.358-1.548" transform="translate(66.026 56.651)" fill="#eb6d6c"/>
            <path id="Path_5168" data-name="Path 5168" d="M146.168,63.747a1.617,1.617,0,0,0-.508-1.7c-2.621-2.267-6.278-3.447-9.386-4.912a1.782,1.782,0,0,0-2.379.826A1.781,1.781,0,0,0,132.74,59.1q-6.8,19.567-15.406,38.393a1.809,1.809,0,0,0,1.164,2.57,17.9,17.9,0,0,1,5.182,2.141,1.6,1.6,0,0,0,1.866-.179c.25-.086.579-.149.714-.419,5.437-10.838,16.966-30.131,19.908-37.857" transform="translate(76.808 37.343)" fill="#eb6d6c"/>
            <path id="Path_5169" data-name="Path 5169" d="M122.694,94.251q.45-1.664.9-3.33a4.332,4.332,0,0,0,.278-2.515c-.545-1.58-2.924-1.975-4.48-2.4-.056-.081-.127-.172-.177-.25a1.8,1.8,0,0,0-3.255.513l-.584,2.123A24.46,24.46,0,0,0,114.2,91.7a1.8,1.8,0,0,0,1.328,2.136,18.956,18.956,0,0,1,4.6,1.575,1.8,1.8,0,0,0,2.57-1.164" transform="translate(74.843 55.686)" fill="#eb6d6c"/>
            <path id="Path_5170" data-name="Path 5170" d="M252.5,96.637V94.874h19.4v1.763h-8.427v1.907h6.1v1.724h-6.1v2.194c1,.083,2.177.123,3.485.123,1.916,0,3.548-.04,4.856-.081l-.566,1.825c-1.526,0-2.919-.02-4.139-.04-3.614-.022-6.075-.288-7.4-.78a6.7,6.7,0,0,1-2.851-2.46,12,12,0,0,1-3.136,3.527l-1.351-1.6a10.807,10.807,0,0,0,4.008-5.825l1.959.308c-.219.738-.457,1.416-.719,2.071a5.756,5.756,0,0,0,2.917,2.419c.262.083.545.146.872.225V96.637ZM269,93.683H255.481v-7.4H269Zm-2.046-5.74h-9.431v1.27h9.431Zm0,2.81h-9.431v1.27h9.431Z" transform="translate(165.467 56.571)" fill="#595757"/>
            <path id="Path_5171" data-name="Path 5171" d="M272.773,86.672a24.5,24.5,0,0,1-2.157,4.553v13.719h-2.023V94.035c-.632.737-1.285,1.434-1.983,2.133l-.674-2.093a21.944,21.944,0,0,0,4.9-8.263Zm5.268,2.646a27.284,27.284,0,0,0-1.2-2.83l2.048-.513a31.877,31.877,0,0,1,1.176,3.343h5.555v1.907h-5.555v4.389h4.967v1.844h-4.967v4.881H286.1v1.907H271.945v-1.907h6.032V97.459h-5.028V95.614h5.028V91.225h-5.705V89.318Z" transform="translate(174.363 56.263)" fill="#595757"/>
            <path id="Path_5172" data-name="Path 5172" d="M280.931,92.7l-1.086-1.272a5.236,5.236,0,0,0,2.22-2.83l1.7.286-.109.349H290.3c0,2.48-.174,4-.522,4.532a2.426,2.426,0,0,1-.283.329l.914-.124a8.379,8.379,0,0,1,.589,1.147h8.383v1.394H280.5V95.121h8.537c-.132-.224-.262-.43-.394-.636a2.853,2.853,0,0,1-.74.1h-.891l-.154-.49h-4.573V91.554a8.683,8.683,0,0,1-1.351,1.147m4.094-6.808v2.83h-1.7v-.636h-2.853V86.654h2.853v-.76ZM297.7,105.068h-2v-.553h-11.28v.553h-2.025v-4.02H297.7Zm-10.191-11.73a.8.8,0,0,0,.762-.533,9.665,9.665,0,0,0,.2-2.257h-5.442c-.154.227-.3.452-.459.657h4.444v2.132Zm9.406,5.023H283.131V97.255h13.783Zm0,1.887H283.131V99.121h13.783Zm-11.388-8.1h-1.743v1h1.743ZM295.7,102.3H284.418v.985H295.7Zm-7.6-16.4v.76h2.788v1.434H288.1v.7h-1.7V85.894Zm3.311,5.023-1.089-1.27a7.2,7.2,0,0,0,2.222-3.836l1.786.306c-.088.349-.2.679-.306,1.007h5.313v1.54h-1.479a8.228,8.228,0,0,1-1.243,2.808,31.609,31.609,0,0,1,2.81,1.846l-1.328,1.23a25.486,25.486,0,0,0-2.613-1.868,9.809,9.809,0,0,1-4.051,1.848l-.717-1.477a9.06,9.06,0,0,0,3.245-1.313c-.545-.328-1.111-.637-1.7-.944l1.2-1.066c.588.286,1.156.6,1.677.882a5.66,5.66,0,0,0,.935-1.947h-2.742a8.324,8.324,0,0,1-1.917,2.253" transform="translate(183.483 56.263)" fill="#595757"/>
            <path id="Path_5173" data-name="Path 5173" d="M302.212,95.034a14,14,0,0,1-4.181,2.851h4.813v6.7h-1.83v-.8h-3.159v.8h-1.808v-5.9c-.478.164-.957.306-1.435.45l-.937-1.6a18.621,18.621,0,0,0,5.813-2.5h-5.421V93.311h7.272a6.884,6.884,0,0,0,.894-1.455l1.98.205a13.4,13.4,0,0,1-.652,1.25h4.879q-.425-.643-.849-1.169l1.611-.493h-4.444v-5.33h7.187v5.33h-2.591a10.574,10.574,0,0,1,1.111,1.662H313.4v1.724h-5.1a42.238,42.238,0,0,1,5.641,2.788l-1.285,1.435c-.3-.225-.609-.429-.871-.616v5.947h-1.83v-.8h-3.528v.8h-1.828v-6.7h6.008a43.209,43.209,0,0,0-5.6-2.851Zm.522-3.386h-6.99v-5.33h6.99Zm-1.873-3.667h-3.245v2.05h3.245Zm.154,11.5h-3.157v2.646h3.157Zm8.949,0h-3.528v2.646h3.528Zm.108-11.5h-3.44v2.05h3.44Z" transform="translate(192.551 56.596)" fill="#595757"/>
            <path id="Path_5174" data-name="Path 5174" d="M316.332,94.289a6.738,6.738,0,0,0-.478-.78l2-.286a6.905,6.905,0,0,1,.455,1.066h7.056v1.455h-3.134a8.1,8.1,0,0,1-.523,1.045h5.225v1.5H307.8v-1.5h5.075c-.2-.368-.392-.717-.611-1.045h-2.9V94.289Zm-2.156-4.861a4.886,4.886,0,0,1-1.589,3.118,9.3,9.3,0,0,1-4.159,1.661l-.609-1.311a8.555,8.555,0,0,0,3.55-1.253c.063-.06.129-.1.174-.142-1,.142-1.984.247-2.94.306l-.3-1.045a20.2,20.2,0,0,0,1.851-1.373l-1.937.123-.22-1.086A9.765,9.765,0,0,0,310.212,86l1.417.411a13.271,13.271,0,0,1-1.831,2.05l1.5-.123c.435-.45.869-.924,1.263-1.374l1.457.513a24.733,24.733,0,0,1-3.44,3.118l1.765-.247a5.436,5.436,0,0,0,.349-1.088Zm9.843,15.585H322.08v-.656H312.7v.656h-1.96v-6.05h13.283Zm-1.939-4.82h-9.386v.861h9.386Zm0,2.03h-9.386v.821h9.386Zm-7.775-8.858-.412-1.147c.435-.123.654-.308.654-.576V86.782h2.113a7.46,7.46,0,0,0-.5-.717l1.677-.267a7.072,7.072,0,0,1,.479.983H320.6V90.7h-1.066a12.879,12.879,0,0,1,1.523,2.277l-1.349.573c-.152-.326-.306-.614-.435-.881-1.482.267-3.136.493-4.967.7m.545,3.424h4.922a5.922,5.922,0,0,0,.523-1.045h-5.99c.176.328.371.677.545,1.045m4.227-9H316.07v.535h3.007Zm-3.007,1.969h3.007v-.6H316.07Zm0,.944v1.313c.914-.124,1.763-.267,2.548-.391-.152-.224-.283-.409-.414-.573l1.176-.349Zm10.561-4.245V87.5c-.349.634-.719,1.311-1.132,2.01a4.075,4.075,0,0,1,1.242,2.131,1.386,1.386,0,0,1-.48,1.151,4.87,4.87,0,0,1-2.351.45l-.478-1.394a6.235,6.235,0,0,0,.783.061,2.018,2.018,0,0,0,.632-.081c.108-.043.174-.1.174-.187a2.72,2.72,0,0,0-1.242-1.886,14.866,14.866,0,0,0,1.111-2.05h-1.853v6.07h-1.609V86.455Z" transform="translate(201.809 56.255)" fill="#595757"/>
            <path id="Path_5175" data-name="Path 5175" d="M336.114,88.428H322.178V86.542h16.788v1.886a53,53,0,0,1-6.793,4.861v8.818c0,1.435-.762,2.152-2.263,2.152-1.331,0-2.484-.04-3.465-.123l-.565-1.887a30.052,30.052,0,0,0,3.46.184c.5,0,.765-.243.765-.7V92.305a47.639,47.639,0,0,0,6.008-3.878" transform="translate(211.239 56.742)" fill="#595757"/>
            <path id="Path_5176" data-name="Path 5176" d="M342.989,99.341a1.325,1.325,0,0,1,.457,1.046,1.4,1.4,0,0,1-.457,1.066,1.8,1.8,0,0,1-1.156.411,1.57,1.57,0,0,1-1.111-.43,1.338,1.338,0,0,1-.479-1.046,1.283,1.283,0,0,1,.479-1.046,1.553,1.553,0,0,1,1.111-.411,1.624,1.624,0,0,1,1.156.411m.217-12.118-.5,10.5h-1.722l-.5-10.5Z" transform="translate(223.084 57.189)" fill="#595757"/>
            <path id="Path_5177" data-name="Path 5177" d="M256.359,105.808v-2.586h2v2.586h2.5v1.72h-2.5v2.359h2.9v1.8h-2.591v2.3h2.2v1.743h-2.2V119.4c1.24.411,3.94.636,8.078.636q3.758,0,5.618-.123l-.349,1.927h-4.79c-5.248,0-8.515-.308-9.821-.924a6.968,6.968,0,0,1-2.656-2.336,23.667,23.667,0,0,1-1.154,3.649l-1.437-1.209a28.393,28.393,0,0,0,1.457-8.368l1.81.227c-.045,1.106-.109,2.152-.24,3.177a8.808,8.808,0,0,0,1.5,2.073v-6.441h-4.071v-1.8h3.745v-2.359H253.18v-1.72Zm15.4,5.638v1.7h-3.942V114.5h4.442v1.8h-4.442v3.323h-2v-3.323h-4.464v-1.8h4.464v-1.353h-3.919v-1.7Zm-.478-.922h-8.95V103.8h8.95Zm-1.917-5.126h-5.118v1.027h5.118Zm0,2.522h-5.118v1.023h5.118Z" transform="translate(165.329 67.678)" fill="#595757"/>
            <path id="Path_5178" data-name="Path 5178" d="M268.344,107.367a30.667,30.667,0,0,1-.72,5.821l-1.676-.429a24.936,24.936,0,0,0,.785-5.5Zm2.7,14.722h-2.025V103.306h2.025Zm3.136-10.8-1.677.387a28.473,28.473,0,0,0-1.414-4.45l1.523-.47a30.665,30.665,0,0,1,1.568,4.533m3.483-5.066v-2.934h2v2.934h4.639v6.152h1.48v1.907h-6.73a11.847,11.847,0,0,1-5.965,7.792l-1.262-1.6a9.864,9.864,0,0,0,5.225-6.192H273.09V112.37h4.376a17.845,17.845,0,0,0,.2-2.709v-1.618h-3.7v-1.826Zm2,3.013a24.028,24.028,0,0,1-.217,3.139H282.3v-4.326h-2.634Zm.022,7.013,1.351-1.23a43.273,43.273,0,0,1,5.268,5.783l-1.48,1.394a47.745,47.745,0,0,0-5.139-5.947" transform="translate(174.371 67.719)" fill="#595757"/>
            <path id="Path_5179" data-name="Path 5179" d="M286.39,103.21v2.666h3.2v1.765h-3.2v2.583h3.484v1.806h-3.025v2.46h2.9v1.763h-2.9V119.7a47.944,47.944,0,0,0,7.338.391c2.613,0,4.573-.041,5.858-.124l-.349,1.868h-5.051c-5.1,0-8.275-.288-9.538-.821a6.262,6.262,0,0,1-2.591-2.093,20.816,20.816,0,0,1-1.132,3.323l-1.589-1.313a22.273,22.273,0,0,0,1.677-7.813l1.828.205a28.883,28.883,0,0,1-.326,3.487,6.878,6.878,0,0,0,1.873,2.03V112.03h-4.311v-1.806h3.811v-2.583H280.9v-1.765h3.44V103.21Zm12.282,8.346h-5.748v4.492c0,.409.283.616.869.616h2.7a.97.97,0,0,0,.851-.555,8.428,8.428,0,0,0,.326-2.255l1.937.593a13.67,13.67,0,0,1-.478,2.667,1.984,1.984,0,0,1-1.98,1.373h-4.205c-1.369,0-2.046-.573-2.046-1.7V104.523h7.775Zm-1.96-5.29h-3.79v3.527h3.79Z" transform="translate(183.448 67.671)" fill="#595757"/>
            <path id="Path_5180" data-name="Path 5180" d="M302.647,107.173H294.83v-1.868h7.816V103.3h2.089v2.008h7.841v1.868h-7.841v5.474a22.56,22.56,0,0,0,8.994,6.747l-1.131,1.825a25.148,25.148,0,0,1-7.863-5.76V122.1h-2.089v-6.6a24.84,24.84,0,0,1-7.816,5.8l-1.089-1.763a23,23,0,0,0,8.906-6.787Zm-6.926,7.565-1.283-1.477a9.916,9.916,0,0,0,3.591-5.555l1.917.306A15.78,15.78,0,0,1,298.9,110.8a17.439,17.439,0,0,1,2.722,1.684l-1.089,1.619a16.7,16.7,0,0,0-2.546-1.783,11.285,11.285,0,0,1-2.267,2.417m11.432-.594-1.262-1.517a9.151,9.151,0,0,0,2.962-4.881l1.939.308a14.114,14.114,0,0,1-.916,2.583,20.113,20.113,0,0,1,3.134,2.031l-1.174,1.662a17.572,17.572,0,0,0-2.854-2.154,10.011,10.011,0,0,1-1.829,1.967" transform="translate(192.594 67.728)" fill="#595757"/>
            <path id="Path_5181" data-name="Path 5181" d="M326.513,121.166l-1.763,1.147c-.328-.555-.676-1.108-1.025-1.68q-7.545.643-14.285.983l-.369-1.578c1.785-.9,3.636-3.076,5.508-6.479h-6.9v-1.907h8.71v-3.387H309.05v-1.884h7.338v-3.1h2.089v3.1h7.3v1.884h-7.3v3.387h8.691v1.907h-10.3a23.963,23.963,0,0,1-4.247,6.232c4.684-.329,8.015-.6,10.018-.78-.871-1.23-1.828-2.48-2.876-3.793l1.656-1a56.878,56.878,0,0,1,5.1,6.952" transform="translate(201.731 67.72)" fill="#595757"/>
            <path id="Path_5182" data-name="Path 5182" d="M330.4,110.884v-4.04c-1.7,1.886-4.356,3.426-7.949,4.656l-1.111-1.724a22.181,22.181,0,0,0,7.3-3.013h-6.25v-1.806H330.4v-1.722h2v1.722h8.015v1.806H332.4v.43c3.29.82,6.273,1.7,8.931,2.644l-1.329,1.4c-2.482-1.007-5.008-1.887-7.6-2.667v2.318h5.662v7.75H324.733v-7.75Zm10.388,10.767H321.947v-1.785h18.836Zm-4.725-9.045h-9.321v1.374h9.321Zm0,3.015h-9.321v1.293h9.321Z" transform="translate(210.687 67.687)" fill="#595757"/>
            <path id="Path_5183" data-name="Path 5183" d="M343.728,106.877c.176-.349.328-.7.482-1.046-2.048.1-4.268.164-6.623.164L337,104.4a89.019,89.019,0,0,0,15.5-1.147l.959,1.536a61.357,61.357,0,0,1-7.23.924c-.152.409-.3.8-.455,1.169h7.816v1.661h-8.644c-.22.348-.416.7-.632,1.027h10.538v1.72H343.1c-.306.349-.589.7-.872,1.027h10.561v9.9h-1.959v-.78H341.4v.78h-1.96v-7.26a36.185,36.185,0,0,1-3.2,2.318l-1.111-1.661a29.956,29.956,0,0,0,5.421-4.328h-4.854v-1.72h6.336c.262-.349.523-.7.74-1.027h-5.9v-1.661Zm7.1,7.012H341.4v1h9.431Zm-9.431,3.447h9.431v-.964H341.4Zm0,2.52h9.431V118.81H341.4Z" transform="translate(219.73 67.696)" fill="#595757"/>
            <path id="Path_5184" data-name="Path 5184" d="M255.022,152.446q0-5.352,2.022-8.126a6.8,6.8,0,0,1,10.982.028q2.049,2.8,2.048,8.1,0,5.349-2.048,8.237a6.656,6.656,0,0,1-10.965,0q-2.039-2.886-2.038-8.237m10.26,0a24.75,24.75,0,0,0-.212-3.525,6.513,6.513,0,0,0-.613-2.162,2.772,2.772,0,0,0-.861-1.017,1.957,1.957,0,0,0-1.076-.293,1.878,1.878,0,0,0-1.06.293,2.756,2.756,0,0,0-.836,1.017,6.846,6.846,0,0,0-.6,2.162,25.073,25.073,0,0,0-.207,3.525,25.663,25.663,0,0,0,.207,3.566,7.793,7.793,0,0,0,.586,2.217,2.826,2.826,0,0,0,.838,1.088,1.837,1.837,0,0,0,1.071.318,1.856,1.856,0,0,0,1.076-.318,3.036,3.036,0,0,0,.861-1.088,7.054,7.054,0,0,0,.613-2.217,25.332,25.332,0,0,0,.212-3.566" transform="translate(167.208 92.807)" fill="#76a4ca"/>
            <path id="Path_5185" data-name="Path 5185" d="M269.076,163.022a1.992,1.992,0,0,1-1.464-.6,2.052,2.052,0,0,1,0-2.9,1.992,1.992,0,0,1,1.464-.6h2.174a.245.245,0,0,0,.278-.278v-11.54a.246.246,0,0,0-.278-.278h-2.063a1.54,1.54,0,0,1-1.129-.46,1.5,1.5,0,0,1-.459-1.1,1.849,1.849,0,0,1,.43-1.2,2.02,2.02,0,0,1,1.1-.7,13.314,13.314,0,0,0,2.063-.725,9.177,9.177,0,0,1,3.54-.864,1.854,1.854,0,0,1,1.868,1.868v15a.246.246,0,0,0,.28.278h1.477a2.046,2.046,0,0,1,2.063,2.048,1.973,1.973,0,0,1-.6,1.45,2,2,0,0,1-1.464.6Z" transform="translate(175.07 92.961)" fill="#76a4ca"/>
            <path id="Path_5186" data-name="Path 5186" d="M281.238,151.044a2.836,2.836,0,0,1-2.161-.906,3.39,3.39,0,0,1,0-4.488,2.846,2.846,0,0,1,2.161-.9,2.885,2.885,0,0,1,2.174.9,3.346,3.346,0,0,1,0,4.488,2.875,2.875,0,0,1-2.174.906m0,10.424a2.847,2.847,0,0,1-2.161-.9,3.388,3.388,0,0,1,0-4.487,2.838,2.838,0,0,1,2.161-.907,2.876,2.876,0,0,1,2.174.907,3.344,3.344,0,0,1,0,4.487,2.885,2.885,0,0,1-2.174.9" transform="translate(182.423 94.904)" fill="#76a4ca"/>
            <path id="Path_5187" data-name="Path 5187" d="M287.331,163.022a1.992,1.992,0,0,1-1.464-.6,2.052,2.052,0,0,1,0-2.9,1.992,1.992,0,0,1,1.464-.6H289.5a.245.245,0,0,0,.278-.278v-11.54a.246.246,0,0,0-.278-.278h-2.063a1.54,1.54,0,0,1-1.129-.46,1.5,1.5,0,0,1-.459-1.1,1.849,1.849,0,0,1,.43-1.2,2.015,2.015,0,0,1,1.1-.7,13.316,13.316,0,0,0,2.063-.725,9.177,9.177,0,0,1,3.54-.864,1.854,1.854,0,0,1,1.868,1.868v15a.246.246,0,0,0,.28.278h1.477a2.046,2.046,0,0,1,2.063,2.048,1.973,1.973,0,0,1-.6,1.45,2,2,0,0,1-1.464.6Z" transform="translate(187.039 92.961)" fill="#76a4ca"/>
            <path id="Path_5188" data-name="Path 5188" d="M297.8,162.285a1.547,1.547,0,0,1-.78-1.283v-.166a1.842,1.842,0,0,1,.528-1.311,1.969,1.969,0,0,1,1.366-.667,1.9,1.9,0,0,1,.334-.03,2.827,2.827,0,0,1,1.283.308,4.182,4.182,0,0,0,1.588.334q3.735,0,4.07-5.909c0-.058-.018-.089-.056-.1a.11.11,0,0,0-.111.04,5.563,5.563,0,0,1-1.853,1.381,4.806,4.806,0,0,1-2.022.515,6.127,6.127,0,0,1-4.515-1.685,6.71,6.71,0,0,1-1.7-4.977,6.8,6.8,0,0,1,7-7.189,7.175,7.175,0,0,1,2.94.613,7.662,7.662,0,0,1,2.523,1.854,8.656,8.656,0,0,1,1.8,3.371,18.709,18.709,0,0,1-.028,9.909,9.663,9.663,0,0,1-1.867,3.553,7.927,7.927,0,0,1-2.676,2.035,7.515,7.515,0,0,1-3.164.682,8.632,8.632,0,0,1-4.654-1.28m5.323-10.454a3.3,3.3,0,0,0,2.844-1.755.606.606,0,0,0,.109-.5q-.584-4.237-3.036-4.237a2.217,2.217,0,0,0-1.785.836,3.954,3.954,0,0,0-.7,2.563,3.353,3.353,0,0,0,.7,2.356,2.442,2.442,0,0,0,1.868.738" transform="translate(194.028 92.807)" fill="#76a4ca"/>
            <path id="Path_5189" data-name="Path 5189" d="M327.395,163.021a3.032,3.032,0,0,1-1.922-.654,3.12,3.12,0,0,1-1.116-1.685l-.556-2.258a.31.31,0,0,0-.336-.278h-5.742a.307.307,0,0,0-.333.278l-.558,2.258a3.129,3.129,0,0,1-1.116,1.685,3.036,3.036,0,0,1-1.922.654h-.334a1.757,1.757,0,0,1-1.785-1.755,1.9,1.9,0,0,1,.084-.556l5.156-16.615a3.122,3.122,0,0,1,1.185-1.672,3.262,3.262,0,0,1,1.965-.641h1.253a3.219,3.219,0,0,1,1.937.641,3.119,3.119,0,0,1,1.184,1.672L329.6,160.71a1.474,1.474,0,0,1,.111.556,1.653,1.653,0,0,1-.363,1.03,1.693,1.693,0,0,1-1.449.725Zm-8.891-9.085a.224.224,0,0,0,.028.194.189.189,0,0,0,.165.084h3.791a.192.192,0,0,0,.167-.084.236.236,0,0,0,.028-.194l-.391-1.535q-.278-1.113-.836-3.442t-.808-3.33a.086.086,0,0,0-.083-.055c-.038,0-.056.017-.056.055q-1.115,4.738-1.616,6.772Z" transform="translate(204.352 92.961)" fill="#76a4ca"/>
            <path id="Path_5190" data-name="Path 5190" d="M325.129,160.737V144.209a2.428,2.428,0,0,1,2.424-2.426h.671a3.358,3.358,0,0,1,1.979.627,3.482,3.482,0,0,1,1.282,1.659l2.536,6.884q.166.529.363,1.171c.129.427.268.9.419,1.421s.268.93.361,1.227a.1.1,0,0,0,.1.056c.046,0,.071-.018.071-.056q.221-.668.6-1.95c.252-.854.44-1.478.571-1.868l2.426-6.884a3.321,3.321,0,0,1,1.253-1.659,3.358,3.358,0,0,1,1.979-.627h.7a2.428,2.428,0,0,1,2.426,2.426v16.5a2.328,2.328,0,0,1-4.656,0v-4.962a71.96,71.96,0,0,1,.642-7.3c.018-.038.01-.055-.028-.055a.085.085,0,0,0-.083.055l-1.757,5.017L337.03,159.9a1.923,1.923,0,0,1-.738.962,2.043,2.043,0,0,1-2.285,0,1.9,1.9,0,0,1-.738-.962l-2.4-6.439-1.7-5.017a.083.083,0,0,0-.083-.055c-.036,0-.046.017-.027.055a72.157,72.157,0,0,1,.639,7.3v4.99a2.285,2.285,0,1,1-4.57,0" transform="translate(213.174 92.961)" fill="#76a4ca"/>
            <path id="Path_5191" data-name="Path 5191" d="M66.443,109.74l27.27,25.436-10.242,1.608,15.56,20.444L67.287,133.906l13.206-2.2Z" transform="translate(43.564 71.952)" fill="#fcd25b"/>
          </g>
        </g>
      </g>
    </g>
    <g id="Group_1624" data-name="Group 1624" transform="translate(395.231 -202.927) rotate(-2)">
      <g id="Group_1199" data-name="Group 1199" transform="matrix(0.995, 0.105, -0.105, 0.995, 376.204, 388)">
        <g id="Group_1198" data-name="Group 1198" transform="translate(0 0)" clip-path="url(#clip-path-5)">
          <path id="Path_3943" data-name="Path 3943" d="M67.756.053c.21.277.4.528-3.943,4.143-4.288,3.68-13.228,10.585-30.181,25.483C17.113,44.43,9.161,52.451,4.92,56.342.73,60.287.359,60.224.107,59.981s-.394-.381,3.488-4.5c1.958-2.043,4.919-5.088,9.485-9.529s10.728-10.286,19.19-17.808C47.154,15.032,56.14,8.121,61.2,4.272,66.3.457,67.552-.217,67.756.053" transform="translate(3.337 0)" fill="#595757"/>
          <path id="Path_3944" data-name="Path 3944" d="M25.806.131c.391.575.707,1.041-12.113,10.168C1.113,19.254.535,18.973.12,18.415S-.354,17.778,12.5,8.626C23.761.612,25.414-.444,25.806.131" transform="translate(14.157 39.223)" fill="#595757"/>
          <path id="Path_3945" data-name="Path 3945" d="M60.324.237c.061.342.114.652-3.639,1.561-3.749.94-11.317,2.41-26.378,5.7-14.764,3.3-22.25,5.141-26.114,5.887-3.858.774-4.079.508-4.168.173s-.141-.528,3.569-1.617C7.311,10.888,14.776,8.866,29.865,5.5,43.088,2.6,50.7,1.231,54.989.538c4.293-.676,5.274-.64,5.335-.3" transform="translate(28.855 100.52)" fill="#595757"/>
          <path id="Path_3946" data-name="Path 3946" d="M72.775.293c.035.346.064.659-4.48,1.352C63.757,2.377,54.633,3.4,36.459,5.974c-17.822,2.6-26.867,4.18-31.512,4.774-4.64.627-4.869.353-4.933.009s-.1-.535,4.4-1.487C8.921,8.359,17.959,6.6,36.166,3.942,52.121,1.674,61.278.744,66.429.29c5.154-.433,6.312-.338,6.345,0" transform="translate(41.76 107.194)" fill="#595757"/>
          <path id="Path_3947" data-name="Path 3947" d="M4.23,14.069A54.525,54.525,0,0,1,0,7.988l.553-.453L2,7.9a27.855,27.855,0,0,1,3.618,6.29Zm3.112,9.988-1.26-.44L5.9,23.371A71.054,71.054,0,0,0,6.769.217L7.178,0,8.467.433l.354.979.443,5.917.269.51-.3,5.607a39.409,39.409,0,0,0,12.263,4.4l.779.242.3.735-1.083.525A52.677,52.677,0,0,1,10.9,15.98l-.8-.672-.924.228A34.71,34.71,0,0,1,8.139,23.43ZM15.75,11.331,14.388,10.6l-.16-.654.178-.216-.64-2.61.131-.174-.474-1.931-.5-1.348a1.4,1.4,0,0,1,.994-.417l1.218.507.277.654-.1.2.759,3.1-.158.182.44,1.794-.244,1.472Z" transform="translate(0 76.552)" fill="#595757"/>
          <path id="Path_3948" data-name="Path 3948" d="M7.021,13.94A19.3,19.3,0,0,1,0,9.406,15.148,15.148,0,0,0,2.354,3.729l.187-.652,1.041-.571A1.6,1.6,0,0,1,4.73,3.662L2.8,9.643q3.215,1.95,5.563,3.652a1.63,1.63,0,0,1-1.339.645m4.4,13.824-1.341-.421-.356-.979a22.965,22.965,0,0,0,.62-6.292l-.79.194-.45.284A8.962,8.962,0,0,1,4.65,18.614L3.07,16.869a1.1,1.1,0,0,1,1.2-.64l1.274.38,2.78,2.286,2,.519.72-5.882.9-.336.774.1.634.825a18.963,18.963,0,0,0-.718,5.536l1.424.748.072.3a27.679,27.679,0,0,0,9.416,2.073l.355.863-1.576.387a20.486,20.486,0,0,1-9.726-2.4l-.779,5.753Zm.8-16.714A56.251,56.251,0,0,0,5.746,7.336l-.06-.246,2.149-2.4L8.447,3.07l1.339-.532.913.9L8.914,6.615l.159.652L12.318,8.98l.945,1.383Zm8.045-1.627a4.687,4.687,0,0,1-3.538-1.264l-.3-.5-1.015-.27a11.264,11.264,0,0,1-2.87-3.591A21.048,21.048,0,0,1,15.909,0l1.085.311.262.6L15.313,4.154,15.52,5l3.965,3,1.134.039.363.777Zm-1.83,8.634-.922-.349-.241-.979.353-6.2.558-.308,1.182.229.411.618a31.076,31.076,0,0,1-.423,6.5Z" transform="translate(24.015 66.504)" fill="#595757"/>
          <path id="Path_3949" data-name="Path 3949" d="M4.23,14.068A54.2,54.2,0,0,1,0,7.987l.553-.452L2,7.9a27.881,27.881,0,0,1,3.618,6.29Zm3.112,9.989-1.26-.439L5.9,23.37A71.054,71.054,0,0,0,6.769.216L7.178,0,8.467.435l.354.979.443,5.914.269.51-.3,5.608a39.4,39.4,0,0,0,12.263,4.4l.779.242.3.736-1.083.523a52.677,52.677,0,0,1-10.6-3.367l-.8-.669-.924.227a34.7,34.7,0,0,1-1.034,7.892ZM15.75,11.33,14.388,10.6l-.16-.654.178-.214-.64-2.611.131-.175-.474-1.931-.5-1.347a1.4,1.4,0,0,1,.994-.417l1.218.507.277.653-.1.2.759,3.1-.158.183.44,1.793-.244,1.474Z" transform="translate(50.114 64.262)" fill="#595757"/>
          <path id="Path_3950" data-name="Path 3950" d="M7.021,13.938A19.3,19.3,0,0,1,0,9.406,15.173,15.173,0,0,0,2.354,3.728l.187-.652L3.582,2.5A1.6,1.6,0,0,1,4.73,3.662L2.8,9.643q3.215,1.95,5.563,3.649a1.619,1.619,0,0,1-1.339.646m4.4,13.825-1.341-.421-.356-.979a22.978,22.978,0,0,0,.62-6.293l-.79.194-.45.283A8.96,8.96,0,0,1,4.65,18.613L3.07,16.869a1.1,1.1,0,0,1,1.2-.641l1.274.38,2.78,2.287,2,.517.72-5.883.9-.335.774.1.634.826a18.958,18.958,0,0,0-.718,5.536l1.424.748.072.3a27.7,27.7,0,0,0,9.416,2.072l.355.864-1.577.385a20.471,20.471,0,0,1-9.725-2.4l-.781,5.753Zm.8-16.715A56.423,56.423,0,0,0,5.746,7.335l-.06-.245,2.149-2.4.611-1.621,1.339-.529.913.9L8.914,6.615l.159.652,3.245,1.711.945,1.383Zm8.045-1.627a4.7,4.7,0,0,1-3.538-1.263l-.3-.506-1.015-.269a11.268,11.268,0,0,1-2.87-3.592A21,21,0,0,1,15.909,0l1.085.311.262.6L15.313,4.152l.207.842L19.485,8l1.134.037.363.778Zm-1.83,8.635-.922-.352-.241-.979.353-6.195.558-.31,1.181.23.412.618a31.086,31.086,0,0,1-.423,6.5Z" transform="translate(74.128 54.214)" fill="#595757"/>
          <path id="Path_3951" data-name="Path 3951" d="M2.041,14.491,1.034,14.02l-.688-2.8A32.766,32.766,0,0,1,.605.173L1.311,0,2.43.331l.547,1.048a38.032,38.032,0,0,0-.368,10.61l.449,1.821Zm2.4,7.886-1.083-.77-.478-1.958.3-1.112,1.375-.51.88.533.174.707-.023.613.264.366L5.383,22Z" transform="translate(107.66 52.133)" fill="#595757"/>
          <path id="Path_3952" data-name="Path 3952" d="M11.491,28.164l-.812-.26-.533-.994a5.492,5.492,0,0,0,.509-2.042,18.023,18.023,0,0,0-.049-2.538l-.95.232q-.881.531-1.836,1.1a4.918,4.918,0,0,1-2,.675l-1.333-1.2L4.18,20.561,3.9,20.023a5.722,5.722,0,0,1,2.483-2.395,15.9,15.9,0,0,0,3.125-2.123l.257-2.832-1.023-.293a8.69,8.69,0,0,1-1.955,1.313q-1.055.519-1.987,1.064a6.473,6.473,0,0,0-.711,1.92A1.732,1.732,0,0,1,3.233,18L1.891,17.46l-.12-.489.1-.514.3-.074,2.255-6.2L1.5,8.219,1.332,7.54l-.011-.748L0,5.877a10.181,10.181,0,0,1,3.695-2.16,22.043,22.043,0,0,0,4.221-2,3.337,3.337,0,0,0,1.142.251,4.736,4.736,0,0,0,1.39-.152A7.735,7.735,0,0,1,12.127.611a5.117,5.117,0,0,1,1.954-.55l.982.709-.2.481-1.142.28a1.763,1.763,0,0,0-1.069.926l-.012.895L17.7,4.821A5.791,5.791,0,0,0,19.06,2.312,6.4,6.4,0,0,1,19.926.155L20.552,0l.922.352.395.911L19.714,5.395a6.455,6.455,0,0,0,3.158.825,5.84,5.84,0,0,1,2.75.578l.357.749a.957.957,0,0,1-.533.3l-.76.187L21.34,7.445a10.763,10.763,0,0,0-.71,2.149,4.619,4.619,0,0,0,.048,2.078l.96.86,1.736.382.112.463-.355.779-.409.1a6.38,6.38,0,0,1-1.432-.14,4.825,4.825,0,0,1-1.461-.621,2.711,2.711,0,0,1-.794-1.117,12.763,12.763,0,0,1-.439-1.433l-.013-1.7-1.439.121-2.077,1.4.09,1.189.839,2.59-.133.522-.951.232-.725-.369-.41-.966-.3-2.635L12.541,8.94a.831.831,0,0,1,.5-.322c.22-.053.4-.1.546-.134a2.459,2.459,0,0,0,.843.268A2.762,2.762,0,0,0,15.5,8.676L17.348,7.5l.033-1.16q-2.043-.568-3.89-1.05a8.245,8.245,0,0,1-3.485-1.986l-.68.168L7.8,7.6l-.326.079L6.2,11.995l.68-.166a8.365,8.365,0,0,0,1.994-1.095,3.355,3.355,0,0,1,1.89-.7l1.051.637.079.327a4.078,4.078,0,0,0-.363,1.571,6.829,6.829,0,0,0,.217,1.951l.716,1.035a9.469,9.469,0,0,1-3.021,2.2,8.694,8.694,0,0,0-3.193,2.673l.178,1.426,1.269.121a8.647,8.647,0,0,0,2.118-1.3,3.79,3.79,0,0,1,2.094-.917l.871,1.083a23.291,23.291,0,0,0-.256,3.423c0,1.161-.018,2.285-.04,3.365ZM5.285,8.615Q5.7,7.594,6.149,6.56A4.944,4.944,0,0,0,6.5,4.169l-.813.2q-.874.559-1.846,1.057A7.766,7.766,0,0,0,2.069,6.667l-.092.8L3.407,7.9,5.038,9.023ZM19.26,26.461l-1.457-1a6.321,6.321,0,0,1,1.135-1.891,3.857,3.857,0,0,0,.88-2.351l-3.285-1.642L14.851,19.3l-.343-.461a8.64,8.64,0,0,1,3.958-2.14q2.527-.69,5.025-1.3l.889.331.12.489-1.869,4.954,3.084,1.291.308.673-.674.425-3.833-.935-1.1,2.923a2.839,2.839,0,0,1-.488.652.849.849,0,0,1-.669.266M20.8,19.713l.723-.7.095-1.61-2.514.445-.4,1.192.9.847.189-.047.074.3.76-.188Z" transform="translate(121.699 41.089)" fill="#595757"/>
          <path id="Path_3953" data-name="Path 3953" d="M6.343,24.211a1.613,1.613,0,0,1-1.257-1.48l1.646-.693,2.529-.621,1.572-.758.218-.285-1.26-5.139-.367-.2-2.339.574L5.7,14.769l-.074-.3.947-.722,1.635-.141.915-.743.2-.34-.459-1.875.1-.2-.5-2.041-.555-.381L5.543,8.61l-.117.23L3.549,9.3l-.678.4.371,4.577.369.919-.186.881-1.006.246-1.206-.8L.967,14.518.647,7.1,0,4.465l.908-.54,1.408.461.221.9L2.63,7.306l.63.336L5.19,7.168l.151-.209,2.146-.527.356-.548L6.663,1.071,6.447.665,7.035,0,8.67.206,9.1,1.369l-.136.147L9.83,5.051l1.642.117.137-.264,3.4-.834.8.091.574.812a5.572,5.572,0,0,1-2.537,1.285l-.231-.117-1.958.48-1.083.64-.1,1.723.72,2.937a1.934,1.934,0,0,0,2.308.126l.709-.4L15.8,12l.289.708-1.111,1.109-2.533.015-.516,1.654.939,3.835.352.6,1.833-.276.131-.178,2.038-.5,1.988-.831,1.559.25.23.348-.556.913L19.3,20.14l-4.486,1.1-.118.231-1.9.465-.123.2-2.474.607Z" transform="translate(151.369 38.941)" fill="#595757"/>
          <path id="Path_3954" data-name="Path 3954" d="M4.23,14.068A54.572,54.572,0,0,1,0,7.987l.553-.452L2,7.9A27.734,27.734,0,0,1,5.615,14.19Zm3.113,9.989-1.26-.442-.175-.245A71.023,71.023,0,0,0,6.769.216L7.178,0,8.467.435l.355.979.443,5.914.269.51-.3,5.608a39.389,39.389,0,0,0,12.262,4.4l.779.242.3.735-1.081.525a52.641,52.641,0,0,1-10.6-3.367l-.8-.669-.925.227a34.767,34.767,0,0,1-1.033,7.892ZM15.75,11.33,14.39,10.6l-.161-.653.178-.217-.641-2.608.131-.175-.473-1.931-.5-1.347a1.4,1.4,0,0,1,.994-.417l1.221.507.275.653-.1.2.759,3.1-.157.182.44,1.8-.243,1.473Z" transform="translate(175.394 33.534)" fill="#595757"/>
          <path id="Path_3955" data-name="Path 3955" d="M7.019,13.94A19.3,19.3,0,0,1,0,9.407,15.14,15.14,0,0,0,2.353,3.729l.187-.652,1.042-.571A1.594,1.594,0,0,1,4.73,3.664L2.8,9.644q3.215,1.948,5.565,3.65a1.639,1.639,0,0,1-1.342.645m4.4,13.825-1.342-.422-.355-.979a22.879,22.879,0,0,0,.618-6.292l-.787.194-.45.284A8.962,8.962,0,0,1,4.65,18.614L3.068,16.87a1.1,1.1,0,0,1,1.2-.641l1.276.38L8.322,18.9l2,.516.718-5.882.9-.336.773.1.637.826a18.871,18.871,0,0,0-.718,5.535l1.424.748.071.3a27.684,27.684,0,0,0,9.416,2.072l.355.864-1.576.385a20.464,20.464,0,0,1-9.726-2.4l-.781,5.754Zm.8-16.715A56.424,56.424,0,0,0,5.746,7.336l-.061-.244,2.151-2.4L8.447,3.07l1.34-.53.911.9L8.913,6.616l.16.652L12.318,8.98l.943,1.383Zm8.045-1.627a4.691,4.691,0,0,1-3.539-1.264l-.3-.5-1.017-.269a11.287,11.287,0,0,1-2.87-3.592A21.144,21.144,0,0,1,15.909,0l1.084.312.263.6L15.313,4.154,15.52,5l3.965,3,1.134.037.364.778Zm-1.831,8.634-.923-.349-.239-.979.353-6.2.558-.31,1.18.23.412.618a30.927,30.927,0,0,1-.423,6.5Z" transform="translate(199.411 23.484)" fill="#595757"/>
        </g>
      </g>
      <g id="Group_1201" data-name="Group 1201" transform="translate(176.336 404.354)">
        <g id="Group_1200" data-name="Group 1200" transform="translate(0 0)" clip-path="url(#clip-path-6)">
          <path id="Path_3956" data-name="Path 3956" d="M56.115,114.041c4.245,6.944,12.2,11.469,18.873,15.716a71.69,71.69,0,0,0,28.271,10.9c13.615,2,27.188.062,40.007-4.359a37.46,37.46,0,0,0,15.19-6.511l.113-.057a3.39,3.39,0,0,0,1.181-1.013,25.521,25.521,0,0,0,7.911-13.551c1.947-8.042,3.74-18.432,1.508-26.574-2.206-8.042-8.845-13.553-15.163-18.458-.1-.077-.2-.126-.3-.19-7.294-15.888-29.311-19.651-45.449-19.988-8.8-.185-17.294,2.211-25.422,5.387-7.23,2.824-16.189,5.637-21.38,11.756-9.339,11.012-13.07,34.3-5.34,46.946" transform="translate(15.629 15.027)" fill="#fff"/>
          <path id="Path_3957" data-name="Path 3957" d="M94.979,47.413a2.753,2.753,0,0,1,1-.042,2.47,2.47,0,0,1,.842.091A2.666,2.666,0,0,1,98.632,48.8a2.448,2.448,0,0,1,.069,2.275c-.069.126-.159.229-.237.345a2.186,2.186,0,0,1-.855,1.042,2.806,2.806,0,0,1-1.015.386,3.332,3.332,0,0,1-.657.148,2.962,2.962,0,0,1-3.229-2.58,2.866,2.866,0,0,1,2.27-3" transform="translate(27.892 14.245)" fill="#eb6d6c"/>
          <path id="Path_3958" data-name="Path 3958" d="M110.619,59.227c3.624-1.294,6.729-1.752,9.988.618,1.444,1.05,1.091,3.922-.755,4.353-.4.094-.79.206-1.186.3-4.886,1.761-9.763,3.549-14.661,5.275-.794.281-1.553.529-2.3.747a11.749,11.749,0,0,1-4.4,1.746c-2.05.159-4.016-1.006-5.855-1.791-1.084-.462-4.212-1.581-1.6-3.205,4.548-2.832,17.114-6.736,20.776-8.043" transform="translate(26.726 17.499)" fill="#5e8fcb"/>
          <path id="Path_3959" data-name="Path 3959" d="M85.509,62.287c-.929,6.538,6.765,10.532,11.829,12.448,7.459,2.82,17.134,4.1,24.753,1.125,2.431-.951,4.91-2.507,5.816-5.094.851-2.431-.09-4.906-1.633-6.823-4.829-6-14.052-8.285-21.337-8.95A30.336,30.336,0,0,0,91.91,56.259c-2.819,1.035-5.752,2.872-6.4,6.028-.385,1.869,2.483,2.669,2.87.791.432-2.1,2.45-3.253,4.323-3.949a25.338,25.338,0,0,1,9.184-1.322c6.757.1,14.369,1.773,19.867,5.912,1.525,1.147,3.4,2.865,3.506,4.916.1,1.977-1.682,3.268-3.27,4.046-5.933,2.9-13.862,2.029-20.006.41a29.357,29.357,0,0,1-9.935-4.429c-1.634-1.2-3.995-3.281-3.668-5.583.265-1.873-2.6-2.682-2.87-.791" transform="translate(25.705 16.491)" fill="#b4b4b5"/>
          <path id="Path_3960" data-name="Path 3960" d="M113.874,80.569a17.722,17.722,0,0,1,7.544-2.954,3.729,3.729,0,0,1,.461-.023,37.234,37.234,0,0,0,3.49-1.821,3.418,3.418,0,0,1,1.309-.471c2.507-.967,5.633,2.378,3.571,5.153a26.219,26.219,0,0,1-8.392,7.35,3.623,3.623,0,0,1-4.971-1.637c-.018,0-.034.01-.052.014-3.315.848-6.164-3.4-2.959-5.611" transform="translate(33.841 22.605)" fill="#dbdcdc"/>
          <path id="Path_3961" data-name="Path 3961" d="M83.271,78.615a3.523,3.523,0,0,1,0-.794,7.579,7.579,0,0,1,.769-2.6A3.227,3.227,0,0,1,89,74.146a4.116,4.116,0,0,1,1.49,2.305,3.252,3.252,0,0,1,1.977.2,43.265,43.265,0,0,0,15.794,3.294c3.942.065,4.671,6.007,1,6.335a3.536,3.536,0,0,1-2.837,3.671c-3.972.82-7.689-.126-11.4-1.553s-8.1-2.913-11.216-5.417a3.205,3.205,0,0,1-1.088-2.992,4.771,4.771,0,0,1,.559-1.372" transform="translate(24.873 22.084)" fill="#dbdcdc"/>
          <path id="Path_3962" data-name="Path 3962" d="M71.954,66.267A3.184,3.184,0,0,1,75.8,64.61a3.133,3.133,0,0,1,2.137,2.34,2.58,2.58,0,0,1,.68.791A3.378,3.378,0,0,1,81.3,72.454c-.872,1.928-3.213,2.5-5.135,2.106A5.91,5.91,0,0,1,74.1,73.7a3.309,3.309,0,0,1-2.779-3.713l.16-1.225a6.465,6.465,0,0,1,.477-2.5" transform="translate(21.449 19.397)" fill="#dbdcdc"/>
          <path id="Path_3963" data-name="Path 3963" d="M57.14,85.545l1.1,1.617a2.962,2.962,0,0,1,.432,2.637c.09.238.182.475.274.709,13.227,17.161,34.37,23.188,54.8,26.936a115.611,115.611,0,0,0,46.921-9.336,3.562,3.562,0,0,1,.57-.177c.255-.273.52-.533.769-.812a3.233,3.233,0,0,1,5.06.22l.859,1.306c1.742,2.647-.952,5.431-3.32,5a51.9,51.9,0,0,1-31.84,14.855c-1.934.258-3.858.4-5.778.485a88.617,88.617,0,0,1-44.236-7.883c-.835-.388-1.692-.8-2.564-1.225a67.827,67.827,0,0,1-8.147-4.448c-8.566-5.245-16.675-12.375-18.709-21.641a44.51,44.51,0,0,1-1.8-5.287c-.891-3.319,3.437-6.157,5.612-2.96" transform="translate(15.468 25.317)" fill="#f7f7f7"/>
          <path id="Path_3964" data-name="Path 3964" d="M127.573,72.661a3.272,3.272,0,0,1,3.494,2.874,46.71,46.71,0,0,1,.894,8.356,3.284,3.284,0,0,1-2.874,3.5,3.227,3.227,0,0,1-3.494-2.874,46.736,46.736,0,0,0-.894-8.357,3.224,3.224,0,0,1,2.874-3.494" transform="translate(37.506 21.857)" fill="#f7f7f7"/>
          <path id="Path_3965" data-name="Path 3965" d="M68.414,64.966a57.714,57.714,0,0,1,4.808-5.937c2.071-2.236,6.24-.637,5.6,2.608l-.156.79a2.977,2.977,0,0,1-1.94,2.33c-.246.288-.5.566-.741.857a3.131,3.131,0,0,1-.7,1.491A19.752,19.752,0,0,1,72.7,69.642a3.175,3.175,0,0,1-4.18-.471,3.251,3.251,0,0,1-.107-4.206" transform="translate(20.368 17.447)" fill="#f7f7f7"/>
          <path id="Path_3966" data-name="Path 3966" d="M103.067,102.744c15.478-1.206,31.105-3.825,43.52-13.828,3.211-2.587,6.878,2.655,3.684,5.23-13.227,10.658-30.074,13.68-46.583,14.967-4.106.32-4.729-6.048-.621-6.368" transform="translate(30.172 26.542)" fill="#f7f7f7"/>
          <path id="Path_3967" data-name="Path 3967" d="M88.152,53.961c0-.13,0-.327-2.1-.267a34.446,34.446,0,0,0-4.942.6,42.151,42.151,0,0,0-9.273,2.9,38.523,38.523,0,0,0-6.2,3.6,30.14,30.14,0,0,0-6.352,6.343,30.8,30.8,0,0,0-4.72,9.878A84.26,84.26,0,0,0,52.2,89.812q-.24,1.735-.489,3.544-.139.9-.277,1.816-.1.97-.191,1.959a25.5,25.5,0,0,0,1,8.1,37.794,37.794,0,0,0,9.366,15.392c9.2,9.266,23.227,15.59,39.651,18.671a114.357,114.357,0,0,0,23.065,2.251,69.872,69.872,0,0,0,20.157-3.053,48.685,48.685,0,0,0,8.532-3.557,41.6,41.6,0,0,0,7.176-4.768,19.254,19.254,0,0,0,5.243-6.192,33.542,33.542,0,0,0,2.6-6.96c1.186-4.569,1.95-8.756,2.68-12.643a56.12,56.12,0,0,0,1.051-10.842,26.572,26.572,0,0,0-1.607-8.915,23.684,23.684,0,0,0-3.986-6.144,55.849,55.849,0,0,0-7.226-6.882c-1.917-1.538-3.292-2.5-4.243-3.13-1.915-1.249-2.137-1.2-2.214-1.082s-.137.194,1.483,1.483c.805.649,2.029,1.6,3.8,3.113a64.177,64.177,0,0,1,6.815,6.627,26.444,26.444,0,0,1,3.86,5.628,22.016,22.016,0,0,1,1.82,8.253c.276,6.342-1.444,14.056-3.515,23.106a37.367,37.367,0,0,1-2.317,6.762,17.558,17.558,0,0,1-4.58,5.958,44.95,44.95,0,0,1-15.209,8.374,68.247,68.247,0,0,1-19.942,3.151,112.07,112.07,0,0,1-23.115-2.213,99.806,99.806,0,0,1-19.673-5.79,60.3,60.3,0,0,1-15.656-9.244,39.947,39.947,0,0,1-10.187-12.278,30.273,30.273,0,0,1-1.5-3.363q-.31-.851-.614-1.687c-.168-.568-.293-1.142-.44-1.705a24.529,24.529,0,0,1-.595-3.371c-.07-.555-.044-1.11-.073-1.657a8.634,8.634,0,0,1,.039-1.622q.078-.8.155-1.592.123-.823.243-1.634.219-1.616.429-3.177c.267-2.08.529-4.069.822-5.979a49.612,49.612,0,0,1,2.58-10.313,27.654,27.654,0,0,1,10.015-12.79,36.831,36.831,0,0,1,10.039-4.99,49.607,49.607,0,0,1,6.674-1.686c3.289-.579,4.316-.609,4.306-.778" transform="translate(15.411 16.152)" fill="#595757"/>
          <path id="Path_3968" data-name="Path 3968" d="M88.152,53.961c0-.13,0-.327-2.1-.267a34.446,34.446,0,0,0-4.942.6,42.151,42.151,0,0,0-9.273,2.9,38.523,38.523,0,0,0-6.2,3.6,30.14,30.14,0,0,0-6.352,6.343,30.8,30.8,0,0,0-4.72,9.878A84.26,84.26,0,0,0,52.2,89.812q-.24,1.735-.489,3.544-.139.9-.277,1.816-.1.97-.191,1.959a25.5,25.5,0,0,0,1,8.1,37.794,37.794,0,0,0,9.366,15.392c9.2,9.266,23.227,15.59,39.651,18.671a114.357,114.357,0,0,0,23.065,2.251,69.872,69.872,0,0,0,20.157-3.053,48.685,48.685,0,0,0,8.532-3.557,41.6,41.6,0,0,0,7.176-4.768,19.254,19.254,0,0,0,5.243-6.192,33.542,33.542,0,0,0,2.6-6.96c1.186-4.569,1.95-8.756,2.68-12.643a56.12,56.12,0,0,0,1.051-10.842,26.572,26.572,0,0,0-1.607-8.915,23.684,23.684,0,0,0-3.986-6.144,55.849,55.849,0,0,0-7.226-6.882c-1.917-1.538-3.292-2.5-4.243-3.13-1.915-1.249-2.137-1.2-2.214-1.082s-.137.194,1.483,1.483c.805.649,2.029,1.6,3.8,3.113a64.177,64.177,0,0,1,6.815,6.627,26.444,26.444,0,0,1,3.86,5.628,22.016,22.016,0,0,1,1.82,8.253c.276,6.342-1.444,14.056-3.515,23.106a37.367,37.367,0,0,1-2.317,6.762,17.558,17.558,0,0,1-4.58,5.958,44.95,44.95,0,0,1-15.209,8.374,68.247,68.247,0,0,1-19.942,3.151,112.07,112.07,0,0,1-23.115-2.213,99.806,99.806,0,0,1-19.673-5.79,60.3,60.3,0,0,1-15.656-9.244,39.947,39.947,0,0,1-10.187-12.278,30.273,30.273,0,0,1-1.5-3.363q-.31-.851-.614-1.687c-.168-.568-.293-1.142-.44-1.705a24.529,24.529,0,0,1-.595-3.371c-.07-.555-.044-1.11-.073-1.657a8.634,8.634,0,0,1,.039-1.622q.078-.8.155-1.592.123-.823.243-1.634.219-1.616.429-3.177c.267-2.08.529-4.069.822-5.979a49.612,49.612,0,0,1,2.58-10.313,27.654,27.654,0,0,1,10.015-12.79,36.831,36.831,0,0,1,10.039-4.99,49.607,49.607,0,0,1,6.674-1.686C87.135,54.16,88.163,54.13,88.152,53.961Z" transform="translate(15.411 16.152)" fill="none" stroke="#595757" stroke-miterlimit="10" stroke-width="0.485"/>
          <path id="Path_3969" data-name="Path 3969" d="M105.393,50.147c-.009.147-.013.276,1.24.492,1.246.255,3.782.466,8.7,1.612a63.325,63.325,0,0,1,9.162,2.812c.924.336,1.869.741,2.846,1.2,1,.423,2,.942,3.04,1.5,1.067.519,2.084,1.22,3.195,1.876a37,37,0,0,1,3.227,2.4,20.7,20.7,0,0,1,5.646,6.858,10.337,10.337,0,0,1,1.085,4.679,9.158,9.158,0,0,1-1.544,4.85,14.152,14.152,0,0,1-4.093,3.91A21.726,21.726,0,0,1,135.2,83.8a25.244,25.244,0,0,1-2.967,1.189,45,45,0,0,1-13.824,2.117,64.474,64.474,0,0,1-25.384-4.982C86.106,79.174,80.617,75.169,77.8,70.5a10.666,10.666,0,0,1-1.657-7,9.956,9.956,0,0,1,2.7-5.406,21.174,21.174,0,0,1,7.987-4.968,54.147,54.147,0,0,1,8.849-2.313c1.362-.272,1.449-.42,1.436-.563s-.021-.258-1.307-.211a33.924,33.924,0,0,0-8.862,1.673A29.346,29.346,0,0,0,82.859,53.4a18.762,18.762,0,0,0-4.6,3.173,11.743,11.743,0,0,0-3.521,5.98,11.933,11.933,0,0,0,1.339,8.171,23.531,23.531,0,0,0,6.348,7.185,44.473,44.473,0,0,0,9.528,5.581,62.585,62.585,0,0,0,12.079,3.853,65.517,65.517,0,0,0,14.4,1.474,48.861,48.861,0,0,0,12.72-1.715,24.07,24.07,0,0,0,10.251-5.4l.987-.993c.277-.376.553-.748.826-1.12l.4-.557c.113-.2.208-.411.312-.614l.6-1.225.363-1.3.173-.644c.029-.219.039-.44.059-.658q.047-.658.094-1.3c-.014-.428-.085-.851-.126-1.272A15.442,15.442,0,0,0,141,63.833a31.867,31.867,0,0,0-5.976-5.1c-1-.691-2.025-1.241-2.979-1.833l-2.876-1.467a58.731,58.731,0,0,0-9.844-3.545,57.072,57.072,0,0,0-11.2-1.878c-2.076-.108-2.718,0-2.725.135" transform="translate(22.417 15.034)" fill="#595757"/>
          <path id="Path_3970" data-name="Path 3970" d="M105.393,50.147c-.009.147-.013.276,1.24.492,1.246.255,3.782.466,8.7,1.612a63.325,63.325,0,0,1,9.162,2.812c.924.336,1.869.741,2.846,1.2,1,.423,2,.942,3.04,1.5,1.067.519,2.084,1.22,3.195,1.876a37,37,0,0,1,3.227,2.4,20.7,20.7,0,0,1,5.646,6.858,10.337,10.337,0,0,1,1.085,4.679,9.158,9.158,0,0,1-1.544,4.85,14.152,14.152,0,0,1-4.093,3.91A21.726,21.726,0,0,1,135.2,83.8a25.244,25.244,0,0,1-2.967,1.189,45,45,0,0,1-13.824,2.117,64.474,64.474,0,0,1-25.384-4.982C86.106,79.174,80.617,75.169,77.8,70.5a10.666,10.666,0,0,1-1.657-7,9.956,9.956,0,0,1,2.7-5.406,21.174,21.174,0,0,1,7.987-4.968,54.147,54.147,0,0,1,8.849-2.313c1.362-.272,1.449-.42,1.436-.563s-.021-.258-1.307-.211a33.924,33.924,0,0,0-8.862,1.673A29.346,29.346,0,0,0,82.859,53.4a18.762,18.762,0,0,0-4.6,3.173,11.743,11.743,0,0,0-3.521,5.98,11.933,11.933,0,0,0,1.339,8.171,23.531,23.531,0,0,0,6.348,7.185,44.473,44.473,0,0,0,9.528,5.581,62.585,62.585,0,0,0,12.079,3.853,65.517,65.517,0,0,0,14.4,1.474,48.861,48.861,0,0,0,12.72-1.715,24.07,24.07,0,0,0,10.251-5.4l.987-.993c.277-.376.553-.748.826-1.12l.4-.557c.113-.2.208-.411.312-.614l.6-1.225.363-1.3.173-.644c.029-.219.039-.44.059-.658q.047-.658.094-1.3c-.014-.428-.085-.851-.126-1.272A15.442,15.442,0,0,0,141,63.833a31.867,31.867,0,0,0-5.976-5.1c-1-.691-2.025-1.241-2.979-1.833l-2.876-1.467a58.731,58.731,0,0,0-9.844-3.545,57.072,57.072,0,0,0-11.2-1.878C106.042,49.9,105.4,50.01,105.393,50.147Z" transform="translate(22.417 15.034)" fill="none" stroke="#595757" stroke-miterlimit="10" stroke-width="0.485"/>
          <path id="Path_3971" data-name="Path 3971" d="M135.115,85.911c.277.057.552.124.968-1.1a15.719,15.719,0,0,0,.61-3,27.256,27.256,0,0,0,.04-6,6.361,6.361,0,0,0-1.4-3.41,7.67,7.67,0,0,0-2.1-1.759,9.29,9.29,0,0,0-2.975-1.089c-1.313-.212-1.419.055-1.5.327s-.107.425,1.034.875a16.252,16.252,0,0,1,2.53,1.21,5.354,5.354,0,0,1,2.717,4.061,39.66,39.66,0,0,1-.148,8.11c-.138,1.383-.065,1.717.225,1.78" transform="translate(38.729 20.903)" fill="#595757"/>
          <path id="Path_3972" data-name="Path 3972" d="M135.115,85.911c.277.057.552.124.968-1.1a15.719,15.719,0,0,0,.61-3,27.256,27.256,0,0,0,.04-6,6.361,6.361,0,0,0-1.4-3.41,7.67,7.67,0,0,0-2.1-1.759,9.29,9.29,0,0,0-2.975-1.089c-1.313-.212-1.419.055-1.5.327s-.107.425,1.034.875a16.252,16.252,0,0,1,2.53,1.21,5.354,5.354,0,0,1,2.717,4.061,39.66,39.66,0,0,1-.148,8.11C134.752,85.514,134.824,85.849,135.115,85.911Z" transform="translate(38.729 20.903)" fill="none" stroke="#595757" stroke-miterlimit="10" stroke-width="0.485"/>
          <path id="Path_3973" data-name="Path 3973" d="M125.431,83.626c.578.039,1.046.068,1.569-4.8.514-4.774.06-4.937-.513-5.021s-.654-.1-1.185,4.839c-.464,4.324-.449,4.943.129,4.981" transform="translate(37.602 22.201)" fill="#595757"/>
          <path id="Path_3974" data-name="Path 3974" d="M125.431,83.626c.578.039,1.046.068,1.569-4.8.514-4.774.06-4.937-.513-5.021s-.654-.1-1.185,4.839C124.838,82.969,124.853,83.588,125.431,83.626Z" transform="translate(37.602 22.201)" fill="none" stroke="#595757" stroke-miterlimit="10" stroke-width="0.485"/>
          <path id="Path_3975" data-name="Path 3975" d="M129.881,88.718c.288.03.548.057.847-.976a20.342,20.342,0,0,0,.485-2.477,32.509,32.509,0,0,0,.436-4.972,10.211,10.211,0,0,0-1.2-5.012,5.769,5.769,0,0,0-1.837-2.055c-1.038-.6-1.229-.306-1.363-.081-.16.267-.187.36.467,1.011a7.331,7.331,0,0,1,1.277,1.8,9.638,9.638,0,0,1,.944,4.358,43.393,43.393,0,0,1-.277,4.34c-.1,1.137-.16,1.963-.176,2.559-.033,1.194.105,1.473.393,1.5" transform="translate(38.258 21.925)" fill="#595757"/>
          <path id="Path_3976" data-name="Path 3976" d="M129.881,88.718c.288.03.548.057.847-.976a20.342,20.342,0,0,0,.485-2.477,32.509,32.509,0,0,0,.436-4.972,10.211,10.211,0,0,0-1.2-5.012,5.769,5.769,0,0,0-1.837-2.055c-1.038-.6-1.229-.306-1.363-.081-.16.267-.187.36.467,1.011a7.331,7.331,0,0,1,1.277,1.8,9.638,9.638,0,0,1,.944,4.358,43.393,43.393,0,0,1-.277,4.34c-.1,1.137-.16,1.963-.176,2.559C129.456,88.409,129.594,88.688,129.881,88.718Z" transform="translate(38.258 21.925)" fill="none" stroke="#595757" stroke-miterlimit="10" stroke-width="0.485"/>
          <path id="Path_3977" data-name="Path 3977" d="M129.478,86.37c.082.277.14.533.736.541a7.009,7.009,0,0,0,5.452-5.243c.022-.6-.229-.693-.5-.784s-.435-.135-.682.28a9.571,9.571,0,0,1-4.534,4.469c-.471.272-.552.454-.471.738" transform="translate(38.949 24.318)" fill="#595757"/>
          <path id="Path_3978" data-name="Path 3978" d="M129.478,86.37c.082.277.14.533.736.541a7.009,7.009,0,0,0,5.452-5.243c.022-.6-.229-.693-.5-.784s-.435-.135-.682.28a9.571,9.571,0,0,1-4.534,4.469C129.478,85.9,129.4,86.086,129.478,86.37Z" transform="translate(38.949 24.318)" fill="none" stroke="#595757" stroke-miterlimit="10" stroke-width="0.485"/>
          <path id="Path_3979" data-name="Path 3979" d="M124.909,81.047a2.993,2.993,0,0,1,.259.22s.031.052-.023.225c-.02.1-.052.092.01.222a14.473,14.473,0,0,0,2.531,2.659,19.117,19.117,0,0,0,2.734,2.339.67.67,0,0,0,.922-.068c.22-.186.349-.291.064-.762a16.5,16.5,0,0,0-2.558-2.76,22.563,22.563,0,0,0-2.7-2.252,1.371,1.371,0,0,0-.959-.29.445.445,0,0,0-.354.269.191.191,0,0,0,.074.2" transform="translate(37.559 24.239)" fill="#595757"/>
          <path id="Path_3980" data-name="Path 3980" d="M124.909,81.047a2.993,2.993,0,0,1,.259.22s.031.052-.023.225c-.02.1-.052.092.01.222a14.473,14.473,0,0,0,2.531,2.659,19.117,19.117,0,0,0,2.734,2.339.67.67,0,0,0,.922-.068c.22-.186.349-.291.064-.762a16.5,16.5,0,0,0-2.558-2.76,22.563,22.563,0,0,0-2.7-2.252,1.371,1.371,0,0,0-.959-.29.445.445,0,0,0-.354.269A.191.191,0,0,0,124.909,81.047Z" transform="translate(37.559 24.239)" fill="none" stroke="#595757" stroke-miterlimit="10" stroke-width="0.485"/>
          <path id="Path_3981" data-name="Path 3981" d="M116.591,87.447c.04.286.065.548.952.6a14.01,14.01,0,0,0,10.238-5.9c.415-.8.217-.982-.009-1.159s-.363-.274-.938.286a18.933,18.933,0,0,1-9.235,5.442c-.864.263-1.047.437-1.008.731" transform="translate(35.078 24.326)" fill="#595757"/>
          <path id="Path_3982" data-name="Path 3982" d="M116.591,87.447c.04.286.065.548.952.6a14.01,14.01,0,0,0,10.238-5.9c.415-.8.217-.982-.009-1.159s-.363-.274-.938.286a18.933,18.933,0,0,1-9.235,5.442C116.736,86.979,116.552,87.153,116.591,87.447Z" transform="translate(35.078 24.326)" fill="none" stroke="#595757" stroke-miterlimit="10" stroke-width="0.485"/>
          <path id="Path_3983" data-name="Path 3983" d="M118.259,94.953c.263.069.567.172.946-.925a7.464,7.464,0,0,0,.273-2.714,13.706,13.706,0,0,0-1.391-5.051,26.836,26.836,0,0,0-2.608-4.311,10.769,10.769,0,0,0-1.761-2c-.921-.729-1.155-.51-1.339-.308-.2.225-.277.317.333,1.116.3.407.748,1.016,1.395,2.022a36.654,36.654,0,0,1,2.435,4.206,13.481,13.481,0,0,1,1.435,6.482c-.043,1.119-.014,1.4.282,1.48" transform="translate(33.768 23.905)" fill="#595757"/>
          <path id="Path_3984" data-name="Path 3984" d="M118.259,94.953c.263.069.567.172.946-.925a7.464,7.464,0,0,0,.273-2.714,13.706,13.706,0,0,0-1.391-5.051,26.836,26.836,0,0,0-2.608-4.311,10.769,10.769,0,0,0-1.761-2c-.921-.729-1.155-.51-1.339-.308-.2.225-.277.317.333,1.116.3.407.748,1.016,1.395,2.022a36.654,36.654,0,0,1,2.435,4.206,13.481,13.481,0,0,1,1.435,6.482C117.934,94.592,117.962,94.873,118.259,94.953Z" transform="translate(33.768 23.905)" fill="none" stroke="#595757" stroke-miterlimit="10" stroke-width="0.485"/>
          <path id="Path_3985" data-name="Path 3985" d="M99.976,95.113c.285.048.548.072.929-.868a45.335,45.335,0,0,1,3.269-6.33c2.139-3.523,2.867-5.686,2.97-6.8.1-1.128-.163-1.206-.442-1.266s-.448-.086-.775.848A35.982,35.982,0,0,1,102.7,87.05a21.205,21.205,0,0,0-2.933,6.494c-.221,1.229-.062,1.53.209,1.569" transform="translate(29.986 24.018)" fill="#595757"/>
          <path id="Path_3986" data-name="Path 3986" d="M99.976,95.113c.285.048.548.072.929-.868a45.335,45.335,0,0,1,3.269-6.33c2.139-3.523,2.867-5.686,2.97-6.8.1-1.128-.163-1.206-.442-1.266s-.448-.086-.775.848A35.982,35.982,0,0,1,102.7,87.05a21.205,21.205,0,0,0-2.933,6.494C99.545,94.773,99.7,95.074,99.976,95.113Z" transform="translate(29.986 24.018)" fill="none" stroke="#595757" stroke-miterlimit="10" stroke-width="0.485"/>
          <path id="Path_3987" data-name="Path 3987" d="M100.966,91.722c-.082.277-.165.526,1.068,1.071a17.159,17.159,0,0,0,3.058.874,30.946,30.946,0,0,0,12.252-.082,17.193,17.193,0,0,0,3.056-.918c1.25-.566,1.21-.831,1.124-1.106s-.142-.432-1.4-.155c-.634.116-1.568.346-2.988.585a37.51,37.51,0,0,1-5.888.539,42.51,42.51,0,0,1-8.427-.873c-1.421-.264-1.773-.22-1.859.065" transform="translate(30.366 27.458)" fill="#595757"/>
          <path id="Path_3988" data-name="Path 3988" d="M100.966,91.722c-.082.277-.165.526,1.068,1.071a17.159,17.159,0,0,0,3.058.874,30.946,30.946,0,0,0,12.252-.082,17.193,17.193,0,0,0,3.056-.918c1.25-.566,1.21-.831,1.124-1.106s-.142-.432-1.4-.155c-.634.116-1.568.346-2.988.585a37.51,37.51,0,0,1-5.888.539,42.51,42.51,0,0,1-8.427-.873C101.4,91.393,101.052,91.437,100.966,91.722Z" transform="translate(30.366 27.458)" fill="none" stroke="#595757" stroke-miterlimit="10" stroke-width="0.485"/>
          <path id="Path_3989" data-name="Path 3989" d="M82.474,89.618c.272.073.546.161.956-.823.372-.969.915-3.132.412-7.254a14.048,14.048,0,0,1-.2-4.3,8.374,8.374,0,0,1,.679-2.033c.415-.859.333-1.051.112-1.266-.187-.191-.35-.372-1.123.466a5.93,5.93,0,0,0-1.214,2.4,12.833,12.833,0,0,0,.052,4.945,26.89,26.89,0,0,1,.087,6.438c-.111,1.078-.048,1.352.241,1.431" transform="translate(24.634 22.198)" fill="#595757"/>
          <path id="Path_3990" data-name="Path 3990" d="M82.474,89.618c.272.073.546.161.956-.823.372-.969.915-3.132.412-7.254a14.048,14.048,0,0,1-.2-4.3,8.374,8.374,0,0,1,.679-2.033c.415-.859.333-1.051.112-1.266-.187-.191-.35-.372-1.123.466a5.93,5.93,0,0,0-1.214,2.4,12.833,12.833,0,0,0,.052,4.945,26.89,26.89,0,0,1,.087,6.438C82.122,89.265,82.185,89.539,82.474,89.618Z" transform="translate(24.634 22.198)" fill="none" stroke="#595757" stroke-miterlimit="10" stroke-width="0.485"/>
          <path id="Path_3991" data-name="Path 3991" d="M70.416,82.741c.3.008.519-.017.81-1.078a19.083,19.083,0,0,1,.836-2.417,10.757,10.757,0,0,1,2.872-3.909,34.75,34.75,0,0,1,4.23-2.773,13.8,13.8,0,0,0,2.27-1.634c.877-.856.712-1.11.537-1.324-.19-.232-.277-.333-1.216.228-.48.273-1.184.691-2.31,1.3a27.165,27.165,0,0,0-4.618,2.907,11.2,11.2,0,0,0-3.062,4.15,9.744,9.744,0,0,0-.756,2.872c-.094,1.384.137,1.683.406,1.683" transform="translate(21.058 20.887)" fill="#595757"/>
          <path id="Path_3992" data-name="Path 3992" d="M70.416,82.741c.3.008.519-.017.81-1.078a19.083,19.083,0,0,1,.836-2.417,10.757,10.757,0,0,1,2.872-3.909,34.75,34.75,0,0,1,4.23-2.773,13.8,13.8,0,0,0,2.27-1.634c.877-.856.712-1.11.537-1.324-.19-.232-.277-.333-1.216.228-.48.273-1.184.691-2.31,1.3a27.165,27.165,0,0,0-4.618,2.907,11.2,11.2,0,0,0-3.062,4.15,9.744,9.744,0,0,0-.756,2.872C69.916,82.442,70.146,82.741,70.416,82.741Z" transform="translate(21.058 20.887)" fill="none" stroke="#595757" stroke-miterlimit="10" stroke-width="0.485"/>
          <path id="Path_3993" data-name="Path 3993" d="M70.838,78.89c-.225.172-.458.332.14,1.341.614.963,2.15,2.9,6.128,5.184a42.548,42.548,0,0,0,7.085,3.32c1.1.341,1.259.125,1.389-.134s.2-.406-.757-.99c-.934-.61-3.017-1.542-6.862-3.675a27.6,27.6,0,0,1-5.747-4.251c-.869-.833-1.133-.978-1.376-.795" transform="translate(21.242 23.715)" fill="#595757"/>
          <path id="Path_3994" data-name="Path 3994" d="M70.838,78.89c-.225.172-.458.332.14,1.341.614.963,2.15,2.9,6.128,5.184a42.548,42.548,0,0,0,7.085,3.32c1.1.341,1.259.125,1.389-.134s.2-.406-.757-.99c-.934-.61-3.017-1.542-6.862-3.675a27.6,27.6,0,0,1-5.747-4.251C71.346,78.853,71.082,78.707,70.838,78.89Z" transform="translate(21.242 23.715)" fill="none" stroke="#595757" stroke-miterlimit="10" stroke-width="0.485"/>
          <path id="Path_3995" data-name="Path 3995" d="M72.8,68.211a.628.628,0,0,0,.89.04,7.092,7.092,0,0,0,2.019-2.962,7.1,7.1,0,0,0,.765-3.473c-.092-.544-.35-.6-.635-.647s-.449-.073-.623.369c-.2.433-.36,1.357-1.076,3.074-.658,1.488-1.184,2.26-1.4,2.747s-.172.674.06.851" transform="translate(21.841 18.397)" fill="#595757"/>
          <path id="Path_3996" data-name="Path 3996" d="M72.8,68.211a.628.628,0,0,0,.89.04,7.092,7.092,0,0,0,2.019-2.962,7.1,7.1,0,0,0,.765-3.473c-.092-.544-.35-.6-.635-.647s-.449-.073-.623.369c-.2.433-.36,1.357-1.076,3.074-.658,1.488-1.184,2.26-1.4,2.747S72.565,68.034,72.8,68.211Z" transform="translate(21.841 18.397)" fill="none" stroke="#595757" stroke-miterlimit="10" stroke-width="0.485"/>
          <path id="Path_3997" data-name="Path 3997" d="M66.5,71.249c.306,0,.515-.033.8-1.108a15.885,15.885,0,0,1,3.743-6.718,15.829,15.829,0,0,1,3.731-3.367,14.62,14.62,0,0,1,2.382-1.038c1.1-.4,1.13-.641,1.084-.935-.043-.278-.055-.47-1.272-.341a8.755,8.755,0,0,0-2.872.859,14.974,14.974,0,0,0-4.341,3.7c-2.815,3.213-3.534,5.829-3.665,7.221-.112,1.427.151,1.735.411,1.726" transform="translate(19.875 17.361)" fill="#595757"/>
          <path id="Path_3998" data-name="Path 3998" d="M66.5,71.249c.306,0,.515-.033.8-1.108a15.885,15.885,0,0,1,3.743-6.718,15.829,15.829,0,0,1,3.731-3.367,14.62,14.62,0,0,1,2.382-1.038c1.1-.4,1.13-.641,1.084-.935-.043-.278-.055-.47-1.272-.341a8.755,8.755,0,0,0-2.872.859,14.974,14.974,0,0,0-4.341,3.7c-2.815,3.213-3.534,5.829-3.665,7.221C65.972,70.95,66.235,71.259,66.5,71.249Z" transform="translate(19.875 17.361)" fill="none" stroke="#595757" stroke-miterlimit="10" stroke-width="0.485"/>
          <path id="Path_3999" data-name="Path 3999" d="M66.8,67.433c-.146.219-.372.5.229.89.66.324,1.669.445,3.788.2a8.249,8.249,0,0,0,3.447-1.056.8.8,0,0,0,.418-.792c.007-.277-.012-.492-.649-.476-.647.035-1.484.359-3.442.631-1.663.209-2.749.213-3.138.261a.7.7,0,0,0-.653.338" transform="translate(20.048 19.918)" fill="#595757"/>
          <path id="Path_4000" data-name="Path 4000" d="M66.8,67.433c-.146.219-.372.5.229.89.66.324,1.669.445,3.788.2a8.249,8.249,0,0,0,3.447-1.056.8.8,0,0,0,.418-.792c.007-.277-.012-.492-.649-.476-.647.035-1.484.359-3.442.631-1.663.209-2.749.213-3.138.261A.7.7,0,0,0,66.8,67.433Z" transform="translate(20.048 19.918)" fill="none" stroke="#595757" stroke-miterlimit="10" stroke-width="0.485"/>
          <path id="Path_4001" data-name="Path 4001" d="M66.632,71.832c.31-.026.5-.072.66-1.668a22.185,22.185,0,0,1,.7-3.693,15.489,15.489,0,0,1,3.5-6.261,15.765,15.765,0,0,1,5.857-3.983c1.648-.636,2.849-.909,3.645-1.154,1.607-.455,1.65-.7,1.608-.991s-.056-.47-1.734-.294a19.235,19.235,0,0,0-3.959.892,16.212,16.212,0,0,0-6.672,4.371,15.98,15.98,0,0,0-3.6,6.316,14.458,14.458,0,0,0-.618,4.147c.043,1.953.354,2.349.613,2.318" transform="translate(19.864 16.163)" fill="#595757"/>
          <path id="Path_4002" data-name="Path 4002" d="M66.632,71.832c.31-.026.5-.072.66-1.668a22.185,22.185,0,0,1,.7-3.693,15.489,15.489,0,0,1,3.5-6.261,15.765,15.765,0,0,1,5.857-3.983c1.648-.636,2.849-.909,3.645-1.154,1.607-.455,1.65-.7,1.608-.991s-.056-.47-1.734-.294a19.235,19.235,0,0,0-3.959.892,16.212,16.212,0,0,0-6.672,4.371,15.98,15.98,0,0,0-3.6,6.316,14.458,14.458,0,0,0-.618,4.147C66.062,71.467,66.373,71.863,66.632,71.832Z" transform="translate(19.864 16.163)" fill="none" stroke="#595757" stroke-miterlimit="10" stroke-width="0.485"/>
          <path id="Path_4003" data-name="Path 4003" d="M73.781,75.044a.828.828,0,0,0,.284-.862,27.79,27.79,0,0,1-.55-3.653c-.056-2.11.1-3.238-.014-3.832-.087-.6-.338-.671-.623-.725s-.448-.086-.641.476a12.782,12.782,0,0,0-.428,4.159,8.459,8.459,0,0,0,1.011,3.964c.436.671.786.682.963.474" transform="translate(21.603 19.841)" fill="#595757"/>
          <path id="Path_4004" data-name="Path 4004" d="M73.781,75.044a.828.828,0,0,0,.284-.862,27.79,27.79,0,0,1-.55-3.653c-.056-2.11.1-3.238-.014-3.832-.087-.6-.338-.671-.623-.725s-.448-.086-.641.476a12.782,12.782,0,0,0-.428,4.159,8.459,8.459,0,0,0,1.011,3.964C73.254,75.241,73.6,75.252,73.781,75.044Z" transform="translate(21.603 19.841)" fill="none" stroke="#595757" stroke-miterlimit="10" stroke-width="0.485"/>
          <path id="Path_4005" data-name="Path 4005" d="M83.073,80.956c-.144.25-.282.474,1.025,1.428a25.3,25.3,0,0,0,3.32,1.9A46.248,46.248,0,0,0,101.563,88.5a25.236,25.236,0,0,0,3.831.229c1.647-.081,1.713-.342,1.729-.63s.018-.454-1.538-.647c-.775-.12-1.944-.239-3.68-.523a57.017,57.017,0,0,1-7.048-1.592,65.209,65.209,0,0,1-9.626-3.815c-1.595-.752-2.009-.825-2.158-.568" transform="translate(24.968 24.318)" fill="#595757"/>
          <path id="Path_4006" data-name="Path 4006" d="M83.073,80.956c-.144.25-.282.474,1.025,1.428a25.3,25.3,0,0,0,3.32,1.9A46.248,46.248,0,0,0,101.563,88.5a25.236,25.236,0,0,0,3.831.229c1.647-.081,1.713-.342,1.729-.63s.018-.454-1.538-.647c-.775-.12-1.944-.239-3.68-.523a57.017,57.017,0,0,1-7.048-1.592,65.209,65.209,0,0,1-9.626-3.815C83.636,80.772,83.222,80.7,83.073,80.956Z" transform="translate(24.968 24.318)" fill="none" stroke="#595757" stroke-miterlimit="10" stroke-width="0.485"/>
          <path id="Path_4007" data-name="Path 4007" d="M121.4,90.327c-.219.131-.544.346,0,1.012a3.234,3.234,0,0,0,1.622.879,3.193,3.193,0,0,0,1.666-.044c.585-.172,1.072-.384,1.7-.622,1.2-.475,2.1-.86,2.766-1.179a4.037,4.037,0,0,0,1.467-.98.816.816,0,0,0,.225-.791.523.523,0,0,0-.334-.251.637.637,0,0,0-.687.029c-.256.169-1.643.6-4.064,1.582l-1.409.553a1.969,1.969,0,0,1-.844.151,4.415,4.415,0,0,1-1.22-.293c-.518-.206-.61-.2-.883-.047" transform="translate(36.436 26.557)" fill="#595757"/>
          <path id="Path_4008" data-name="Path 4008" d="M121.4,90.327c-.219.131-.544.346,0,1.012a3.234,3.234,0,0,0,1.622.879,3.193,3.193,0,0,0,1.666-.044c.585-.172,1.072-.384,1.7-.622,1.2-.475,2.1-.86,2.766-1.179a4.037,4.037,0,0,0,1.467-.98.816.816,0,0,0,.225-.791.523.523,0,0,0-.334-.251.637.637,0,0,0-.687.029c-.256.169-1.643.6-4.064,1.582l-1.409.553a1.969,1.969,0,0,1-.844.151,4.415,4.415,0,0,1-1.22-.293C121.763,90.168,121.67,90.173,121.4,90.327Z" transform="translate(36.436 26.557)" fill="none" stroke="#595757" stroke-miterlimit="10" stroke-width="0.485"/>
          <path id="Path_4009" data-name="Path 4009" d="M121.846,91.408c.066-.311-.117-.493-.12-.93a.878.878,0,0,1,.086-.421,1.588,1.588,0,0,1,.54-.488c.306-.19.836-.412,1.437-.706s1.255-.621,2-.894a4.586,4.586,0,0,1,3.237-.186,2.506,2.506,0,0,1,1.206.918c.343.539.457.713.774.76.142.029.252.059.364-.073a1.265,1.265,0,0,0,.1-1.051,3.09,3.09,0,0,0-1.715-1.985,5.738,5.738,0,0,0-4.552.013,17.558,17.558,0,0,0-1.946.885c-.545.286-.991.5-1.462.777a3.2,3.2,0,0,0-1.156,1.1,1.917,1.917,0,0,0-.23,1.375,1.385,1.385,0,0,0,1.02,1.149c.327.036.411-.108.424-.239" transform="translate(36.214 25.843)" fill="#595757"/>
          <path id="Path_4010" data-name="Path 4010" d="M121.846,91.408c.066-.311-.117-.493-.12-.93a.878.878,0,0,1,.086-.421,1.588,1.588,0,0,1,.54-.488c.306-.19.836-.412,1.437-.706s1.255-.621,2-.894a4.586,4.586,0,0,1,3.237-.186,2.506,2.506,0,0,1,1.206.918c.343.539.457.713.774.76.142.029.252.059.364-.073a1.265,1.265,0,0,0,.1-1.051,3.09,3.09,0,0,0-1.715-1.985,5.738,5.738,0,0,0-4.552.013,17.558,17.558,0,0,0-1.946.885c-.545.286-.991.5-1.462.777a3.2,3.2,0,0,0-1.156,1.1,1.917,1.917,0,0,0-.23,1.375,1.385,1.385,0,0,0,1.02,1.149C121.748,91.684,121.833,91.539,121.846,91.408Z" transform="translate(36.214 25.843)" fill="none" stroke="#595757" stroke-miterlimit="10" stroke-width="0.485"/>
          <path id="Path_4011" data-name="Path 4011" d="M127.943,91.545c.362.157.823.347,1.24-1.4.261-1.746-.235-1.774-.63-1.761-.468,0-.4.017-.628,1.519-.294,1.3-.407,1.466.018,1.644" transform="translate(38.411 26.591)" fill="#595757"/>
          <path id="Path_4012" data-name="Path 4012" d="M127.943,91.545c.362.157.823.347,1.24-1.4.261-1.746-.235-1.774-.63-1.761-.468,0-.4.017-.628,1.519C127.631,91.2,127.517,91.367,127.943,91.545Z" transform="translate(38.411 26.591)" fill="none" stroke="#595757" stroke-miterlimit="10" stroke-width="0.485"/>
          <path id="Path_4013" data-name="Path 4013" d="M120.333,91.161c-.173.039-.507.088-.177.937a3.049,3.049,0,0,0,1.5,1.341,4.686,4.686,0,0,0,1.608.441,6.725,6.725,0,0,0,2.128-.243,13.752,13.752,0,0,0,4.813-2.127c.61-.49.526-.682.419-.866s-.168-.289-.836-.005a30.359,30.359,0,0,1-4.712,1.757,4.35,4.35,0,0,1-2.7.031,3.558,3.558,0,0,1-1.3-.718c-.449-.438-.506-.6-.745-.548" transform="translate(36.11 27.218)" fill="#595757"/>
          <path id="Path_4014" data-name="Path 4014" d="M120.333,91.161c-.173.039-.507.088-.177.937a3.049,3.049,0,0,0,1.5,1.341,4.686,4.686,0,0,0,1.608.441,6.725,6.725,0,0,0,2.128-.243,13.752,13.752,0,0,0,4.813-2.127c.61-.49.526-.682.419-.866s-.168-.289-.836-.005a30.359,30.359,0,0,1-4.712,1.757,4.35,4.35,0,0,1-2.7.031,3.558,3.558,0,0,1-1.3-.718C120.63,91.27,120.573,91.109,120.333,91.161Z" transform="translate(36.11 27.218)" fill="none" stroke="#595757" stroke-miterlimit="10" stroke-width="0.485"/>
          <path id="Path_4015" data-name="Path 4015" d="M120.377,92.33a.749.749,0,0,0,.427-.415c.088-.219.095-.48.341-1.384.479-1.842.147-1.966-.273-2.075s-.479-.125-.967,1.752a2.855,2.855,0,0,0-.055,1.881c.172.345.343.341.527.241" transform="translate(36.021 26.602)" fill="#595757"/>
          <path id="Path_4016" data-name="Path 4016" d="M120.377,92.33a.749.749,0,0,0,.427-.415c.088-.219.095-.48.341-1.384.479-1.842.147-1.966-.273-2.075s-.479-.125-.967,1.752a2.855,2.855,0,0,0-.055,1.881C120.022,92.434,120.194,92.43,120.377,92.33Z" transform="translate(36.021 26.602)" fill="none" stroke="#595757" stroke-miterlimit="10" stroke-width="0.485"/>
          <path id="Path_4017" data-name="Path 4017" d="M122.417,93.019a2.8,2.8,0,0,1,.445-.332c.131-.025.206-.044.385-.645.3-1.042-.035-1.159-.453-1.277s-.476-.135-.779.928a5.513,5.513,0,0,0-.148.6,1.06,1.06,0,0,0,.046.57c.155.329.35.289.5.156" transform="translate(36.662 27.292)" fill="#595757"/>
          <path id="Path_4018" data-name="Path 4018" d="M122.417,93.019a2.8,2.8,0,0,1,.445-.332c.131-.025.206-.044.385-.645.3-1.042-.035-1.159-.453-1.277s-.476-.135-.779.928a5.513,5.513,0,0,0-.148.6,1.06,1.06,0,0,0,.046.57C122.068,93.192,122.263,93.152,122.417,93.019Z" transform="translate(36.662 27.292)" fill="none" stroke="#595757" stroke-miterlimit="10" stroke-width="0.485"/>
          <path id="Path_4019" data-name="Path 4019" d="M52.762,81.319c-.139.042-.272.078-.035,1.093a27.067,27.067,0,0,0,2.639,6.813A44.026,44.026,0,0,0,68.73,103.782c7.691,5.412,19.335,10.806,35.733,13.8a147.917,147.917,0,0,0,21.464,2.287c3.149.157,6.082-.016,8.807-.126,2.716-.285,5.236-.494,7.529-.976a60.683,60.683,0,0,0,6.294-1.462,53.112,53.112,0,0,0,5.1-1.838c1.536-.588,2.836-1.322,4.037-1.912,1.154-.687,2.206-1.261,3.074-1.888a22.733,22.733,0,0,0,5.639-5.1c.666-.941.567-1.1.454-1.181s-.183-.146-.9.553a34.369,34.369,0,0,1-5.514,4.4,40.391,40.391,0,0,1-6.845,3.57,52.743,52.743,0,0,1-11.107,3.2,73.241,73.241,0,0,1-16.159,1.1,147.537,147.537,0,0,1-21.562-2.295c-14.15-2.656-24.786-6.923-32.257-11.558a47.841,47.841,0,0,1-14.4-13.214l-.925-1.34a7.7,7.7,0,0,1-.769-1.249l-1.176-2.2a11.017,11.017,0,0,1-.851-1.75l-.558-1.35c-.649-1.521-.935-1.968-1.073-1.928" transform="translate(15.825 24.466)" fill="#595757"/>
          <path id="Path_4020" data-name="Path 4020" d="M52.762,81.319c-.139.042-.272.078-.035,1.093a27.067,27.067,0,0,0,2.639,6.813A44.026,44.026,0,0,0,68.73,103.782c7.691,5.412,19.335,10.806,35.733,13.8a147.917,147.917,0,0,0,21.464,2.287c3.149.157,6.082-.016,8.807-.126,2.716-.285,5.236-.494,7.529-.976a60.683,60.683,0,0,0,6.294-1.462,53.112,53.112,0,0,0,5.1-1.838c1.536-.588,2.836-1.322,4.037-1.912,1.154-.687,2.206-1.261,3.074-1.888a22.733,22.733,0,0,0,5.639-5.1c.666-.941.567-1.1.454-1.181s-.183-.146-.9.553a34.369,34.369,0,0,1-5.514,4.4,40.391,40.391,0,0,1-6.845,3.57,52.743,52.743,0,0,1-11.107,3.2,73.241,73.241,0,0,1-16.159,1.1,147.537,147.537,0,0,1-21.562-2.295c-14.15-2.656-24.786-6.923-32.257-11.558a47.841,47.841,0,0,1-14.4-13.214l-.925-1.34a7.7,7.7,0,0,1-.769-1.249l-1.176-2.2a11.017,11.017,0,0,1-.851-1.75l-.558-1.35C53.186,81.726,52.9,81.278,52.762,81.319Z" transform="translate(15.825 24.466)" fill="none" stroke="#595757" stroke-miterlimit="10" stroke-width="0.485"/>
          <path id="Path_4021" data-name="Path 4021" d="M92.493,49.852c-.245.108-.572.194-.366.835a2.207,2.207,0,0,0,1.051,1.076,5.6,5.6,0,0,0,2.539.576c2.131.1,3.359-.744,3.649-1.277a1.062,1.062,0,0,0,.225-.617.445.445,0,0,0-.1-.245.379.379,0,0,0-.329-.157c-.2.043-.193.127-.221.185a.259.259,0,0,0,.022.2c.047.066.107.044.122.017.044-.086.029-.074.029-.074.035-.009-.072.038.035.059.027.021.018.026,0-.016-.007-.017,0-.035,0-.026l-.009.008-.033.02h0a.34.34,0,0,1-.206-.1l-.065-.056-.02-.02,0,0-.191-.211h0l-.008,0-.062.029a4.75,4.75,0,0,1-2.789.572,4.437,4.437,0,0,1-2.546-.64.659.659,0,0,0-.73-.14" transform="translate(27.699 14.982)" fill="#595757"/>
          <path id="Path_4022" data-name="Path 4022" d="M92.493,49.852c-.245.108-.572.194-.366.835a2.207,2.207,0,0,0,1.051,1.076,5.6,5.6,0,0,0,2.539.576c2.131.1,3.359-.744,3.649-1.277a1.062,1.062,0,0,0,.225-.617.445.445,0,0,0-.1-.245.379.379,0,0,0-.329-.157c-.2.043-.193.127-.221.185a.259.259,0,0,0,.022.2c.047.066.107.044.122.017.044-.086.029-.074.029-.074.035-.009-.072.038.035.059.027.021.018.026,0-.016-.007-.017,0-.035,0-.026l-.009.008-.033.02h0a.34.34,0,0,1-.206-.1l-.065-.056-.02-.02,0,0-.191-.211h0l-.008,0-.062.029a4.75,4.75,0,0,1-2.789.572,4.437,4.437,0,0,1-2.546-.64A.659.659,0,0,0,92.493,49.852Z" transform="translate(27.699 14.982)" fill="none" stroke="#595757" stroke-miterlimit="10" stroke-width="0.485"/>
          <path id="Path_4023" data-name="Path 4023" d="M92.5,51.1c.29.044.539.059.834-.5a8.894,8.894,0,0,1,.635-1.136,1.855,1.855,0,0,1,1.83-.7,3.85,3.85,0,0,1,2.114.883,2.873,2.873,0,0,1,.65.9c.208.463.379.6.675.675.245.073.524.151.613-.745a2.813,2.813,0,0,0-.714-1.872,4.832,4.832,0,0,0-3.178-1.547A3.4,3.4,0,0,0,92.8,48.332a3.737,3.737,0,0,0-.674,1.754c-.077.8.095.97.373,1.013" transform="translate(27.712 14.152)" fill="#595757"/>
          <path id="Path_4024" data-name="Path 4024" d="M92.5,51.1c.29.044.539.059.834-.5a8.894,8.894,0,0,1,.635-1.136,1.855,1.855,0,0,1,1.83-.7,3.85,3.85,0,0,1,2.114.883,2.873,2.873,0,0,1,.65.9c.208.463.379.6.675.675.245.073.524.151.613-.745a2.813,2.813,0,0,0-.714-1.872,4.832,4.832,0,0,0-3.178-1.547A3.4,3.4,0,0,0,92.8,48.332a3.737,3.737,0,0,0-.674,1.754C92.046,50.888,92.218,51.056,92.5,51.1Z" transform="translate(27.712 14.152)" fill="none" stroke="#595757" stroke-miterlimit="10" stroke-width="0.485"/>
          <path id="Path_4025" data-name="Path 4025" d="M144.2,91.125a.89.89,0,0,1-.269-.1,36.177,36.177,0,0,1-3.125,2.563,40.094,40.094,0,0,1-8.83,4.833,60.331,60.331,0,0,1-8.83,2.689c-2.318.531-4.02.834-5.241,1.08-2.446.472-2.978.688-2.939.981s.072.557,2.316.42a46.418,46.418,0,0,0,5.288-.715,54.344,54.344,0,0,0,10.04-2.867,38,38,0,0,0,9.037-5.045,24.221,24.221,0,0,0,3.929-3.7c-.459-.029-.916-.074-1.375-.142" transform="translate(34.59 27.388)" fill="#595757"/>
          <path id="Path_4026" data-name="Path 4026" d="M144.2,91.125a.89.89,0,0,1-.269-.1,36.177,36.177,0,0,1-3.125,2.563,40.094,40.094,0,0,1-8.83,4.833,60.331,60.331,0,0,1-8.83,2.689c-2.318.531-4.02.834-5.241,1.08-2.446.472-2.978.688-2.939.981s.072.557,2.316.42a46.418,46.418,0,0,0,5.288-.715,54.344,54.344,0,0,0,10.04-2.867,38,38,0,0,0,9.037-5.045,24.221,24.221,0,0,0,3.929-3.7C145.116,91.238,144.659,91.193,144.2,91.125Z" transform="translate(34.59 27.388)" fill="none" stroke="#595757" stroke-miterlimit="10" stroke-width="0.485"/>
          <path id="Path_4027" data-name="Path 4027" d="M106.7,100.826a.655.655,0,0,0,.259.8,8.172,8.172,0,0,0,5.522.2.663.663,0,0,0,.336-.779c-.066-.622-.07-.529-3.043-.544-2.6-.15-2.963-.274-3.074.332" transform="translate(32.094 30.199)" fill="#595757"/>
          <path id="Path_4028" data-name="Path 4028" d="M106.7,100.826a.655.655,0,0,0,.259.8,8.172,8.172,0,0,0,5.522.2.663.663,0,0,0,.336-.779c-.066-.622-.07-.529-3.043-.544C107.177,100.345,106.814,100.22,106.7,100.826Z" transform="translate(32.094 30.199)" fill="none" stroke="#595757" stroke-miterlimit="10" stroke-width="0.485"/>
          <path id="Path_4029" data-name="Path 4029" d="M65.346,88.788c.212-.208.371-.381-.319-1.421-.674-1.025-2.144-3.075-4.889-7.238a14.33,14.33,0,0,1-2.625-7.748c-.021-1.212-.177-1.343-.479-1.422-.254-.072-.493-.147-.795,1.207a8.917,8.917,0,0,0,.066,3.234,16.175,16.175,0,0,0,2.383,5.633c4.913,7.467,6.339,8.138,6.657,7.755" transform="translate(16.886 21.34)" fill="#595757"/>
          <path id="Path_4030" data-name="Path 4030" d="M65.346,88.788c.212-.208.371-.381-.319-1.421-.674-1.025-2.144-3.075-4.889-7.238a14.33,14.33,0,0,1-2.625-7.748c-.021-1.212-.177-1.343-.479-1.422-.254-.072-.493-.147-.795,1.207a8.917,8.917,0,0,0,.066,3.234,16.175,16.175,0,0,0,2.383,5.633C63.6,88.5,65.029,89.172,65.346,88.788Z" transform="translate(16.886 21.34)" fill="none" stroke="#595757" stroke-miterlimit="10" stroke-width="0.485"/>
          <path id="Path_4031" data-name="Path 4031" d="M75.124,8.279,86.867,35.693,79.053,32.9,84.69,49.181,69.472,26.172,80.834,29.05Z" transform="translate(20.903 2.491)" fill="#fcd25b"/>
          <path id="Path_4032" data-name="Path 4032" d="M131.4,0,114.956,24.9l8.27-.67-8.27,18.824,20.32-24.1-10.687.765Z" transform="translate(34.588 0)" fill="#fcd25b"/>
          <path id="Path_4033" data-name="Path 4033" d="M0,36.7,47.8,60.618,34.37,66.979,64.046,88.785,10.953,69.58,28.217,61.2Z" transform="translate(0 11.041)" fill="#fcd25b"/>
        </g>
      </g>
    </g>
  </g>
</svg>
