<svg id="Group_1302" data-name="Group 1302" xmlns="http://www.w3.org/2000/svg" xmlns:xlink="http://www.w3.org/1999/xlink" width="33.615" height="42.111" viewBox="0 0 33.615 42.111">
  <defs>
    <clipPath id="clip-path">
      <rect id="Rectangle_347" data-name="Rectangle 347" width="33.615" height="42.111" fill="none"/>
    </clipPath>
  </defs>
  <g id="Group_984" data-name="Group 984" clip-path="url(#clip-path)">
    <path id="Path_1277" data-name="Path 1277" d="M32.7,12.925a2.256,2.256,0,0,0,.215-.914,10.838,10.838,0,0,0-4.85-8.669,2.3,2.3,0,0,0-1.025-.923C20.438-.781,12.7-.3,5.656.968A2.037,2.037,0,0,0,4.117,2.13,2.673,2.673,0,0,0,3.085,5.755,129.055,129.055,0,0,0,3.832,19.78c.422,5.039-.405,10.086-.026,15.059.561,7.335,5.158,6.412,11.2,6.489,4.781.062,13.644,2.617,17.116-1.849a2.562,2.562,0,0,0,1.431-2.208A98.847,98.847,0,0,0,32.7,12.925" transform="translate(-0.33 0)" fill="#eb6d6c"/>
    <path id="Path_1278" data-name="Path 1278" d="M.877,5.37c.768,0,1.391,0,1.391,16.467C2.268,38,1.645,38.3.877,38.3S0,38.3,0,21.837C0,7.417.109,5.37.877,5.37" transform="translate(0 -0.64)" fill="#595757"/>
    <path id="Path_1279" data-name="Path 1279" d="M.945,42.758a.648.648,0,0,1,.555.211,3.36,3.36,0,0,0,.987.891A1.494,1.494,0,0,0,3,44a1.348,1.348,0,0,0,.3,0l.538-.038c.765-.05,1.684-.092,2.787-.129,2.2-.07,5.144-.109,9.064-.109,3.846,0,6.749.039,8.94.109,1.1.036,2.014.078,2.782.129l1.045.08a1.568,1.568,0,0,0,.546-.014,2.969,2.969,0,0,0,1.2-.677.661.661,0,0,1,.6-.132c.185.04.347.058.368.408a2.309,2.309,0,0,1-1.364,1.921,2.964,2.964,0,0,1-1.175.331l-1.083.04-2.787.045-9.064.03-8.242-.03-2.753-.045L3.6,45.885a3.876,3.876,0,0,1-1.181-.171,2.827,2.827,0,0,1-1.5-1.187,2.174,2.174,0,0,1-.345-1.081c0-.551.195-.691.373-.689" transform="translate(-0.068 -5.094)" fill="#595757"/>
    <path id="Path_1280" data-name="Path 1280" d="M30.786,38.328c-.191-.033-.36-.094-.5-.535a15.561,15.561,0,0,1-.442-3.4c-.126-1.946-.228-4.864-.3-9.242-.023-2.189-.049-4.743-.081-7.722q-.009-2.234-.021-4.8,0-1.283-.005-2.651l0-.623a.843.843,0,0,0-.07-.284.828.828,0,0,0-.168-.244l-.48-.412-4.1-3.494-.918-.786a.83.83,0,0,0-.467-.184l-2.216-.014-7.644-.081c-4.35-.07-7.286-.173-9.269-.3l-.7-.048A2.043,2.043,0,0,0,2.951,3.5a1.626,1.626,0,0,0-.686.239,2.4,2.4,0,0,0-.713.706c-.265.41-.4.5-.609.484-.173,0-.388.019-.385-.646a2.418,2.418,0,0,1,.632-1.447,2.874,2.874,0,0,1,1.128-.776,2.915,2.915,0,0,1,.847-.186l.728-.03c1.946-.062,4.864-.1,9.242-.122L20.857,1.7l2.316,0a3.1,3.1,0,0,1,1.8.565c.307.23.375.309.561.461l.484.412,4.174,3.55.512.44a3.078,3.078,0,0,1,.947,1.685,3.929,3.929,0,0,1,.058.824q0,1.21,0,2.355,0,2.288-.005,4.322c-.009,2.715-.016,5.1-.023,7.2-.022,4.2-.06,7.236-.122,9.424a41.237,41.237,0,0,1-.265,4.311c-.1.753-.329,1.16-.506,1.079" transform="translate(-0.067 -0.203)" fill="#595757"/>
    <path id="Path_1281" data-name="Path 1281" d="M33.581,8.4c0,.384,0,.731-.754.983a8.05,8.05,0,0,1-1.792.3c-.424.035-.919.062-1.5.08l-.929.022-.514.005a4.059,4.059,0,0,1-1.023-.063,1.753,1.753,0,0,1-1.242-1.319A4.666,4.666,0,0,1,25.8,7.5c0-.152.009-.3.012-.442.018-.57.046-1.061.081-1.482a8.208,8.208,0,0,1,.3-1.8c.251-.768.6-.8.983-.8s.6,0,.727.755a14.454,14.454,0,0,1,.122,1.791c.007.425.014.919.023,1.5l0,.449c0,.094,0,.026,0,.048h0l2.669.029a16.689,16.689,0,0,1,1.827.122c.847.122,1.035.343,1.035.727" transform="translate(-3.073 -0.356)" fill="#595757"/>
    <path id="Path_1282" data-name="Path 1282" d="M13.168,30.914a2.766,2.766,0,0,1,.9-2.1,3.159,3.159,0,0,1,2.256-.848,3.16,3.16,0,0,1,2.256.848,2.766,2.766,0,0,1,.9,2.1,2.715,2.715,0,0,1-.9,2.1,3.218,3.218,0,0,1-2.256.821,3.216,3.216,0,0,1-2.256-.821,2.715,2.715,0,0,1-.9-2.1m1.277-6.154-.861-6.781-.078-2.164a2.037,2.037,0,0,1,.6-1.6,2.116,2.116,0,0,1,1.564-.665H17a2.114,2.114,0,0,1,1.564.665,2.037,2.037,0,0,1,.6,1.6l-.078,2.164-.861,6.781a1.941,1.941,0,0,1-.639,1.187,1.867,1.867,0,0,1-2.5,0,1.938,1.938,0,0,1-.64-1.187" transform="translate(-1.569 -1.614)" fill="#fff"/>
  </g>
</svg>
