<svg xmlns="http://www.w3.org/2000/svg" xmlns:xlink="http://www.w3.org/1999/xlink" width="83.989" height="78.598" viewBox="0 0 83.989 78.598">
  <defs>
    <clipPath id="clip-path">
      <rect id="Rectangle_531" data-name="Rectangle 531" width="83.989" height="78.598" fill="none"/>
    </clipPath>
    <clipPath id="clip-path-3">
      <rect id="Rectangle_527" data-name="Rectangle 527" width="4.938" height="7.67" fill="none"/>
    </clipPath>
    <clipPath id="clip-path-4">
      <rect id="Rectangle_528" data-name="Rectangle 528" width="11.69" height="18.813" fill="none"/>
    </clipPath>
    <clipPath id="clip-path-5">
      <rect id="Rectangle_529" data-name="Rectangle 529" width="12.687" height="10.525" fill="none"/>
    </clipPath>
  </defs>
  <g id="Group_1669" data-name="Group 1669" transform="translate(0)">
    <g id="Group_1267" data-name="Group 1267" transform="translate(0)" clip-path="url(#clip-path)">
      <g id="Group_1266" data-name="Group 1266" transform="translate(0 0)">
        <g id="Group_1265" data-name="Group 1265" clip-path="url(#clip-path)">
          <path id="Path_4259" data-name="Path 4259" d="M4.209,43.749c.472-2.4,2.428-4.834,3.573-6.955a.945.945,0,0,1,.573-.494c.005-.08.012-.159.017-.238.093-1.312,2.149-1.322,2.055,0-.381,5.355-.9,10.639-3.281,15.528a1.037,1.037,0,0,1-1.878-.245c-.395-2.283-1.519-5.259-1.059-7.6" transform="translate(69.346 0.959)" fill="#afcdb0"/>
          <path id="Path_4260" data-name="Path 4260" d="M.7,43.394a1.039,1.039,0,0,1,1.754-.726c1.159,1.288,2.262,2.618,3.341,3.967L4.328,34.72a1.036,1.036,0,0,1,1.754-.726c2.7,3.334,6.247,6.725,7.556,10.9a.891.891,0,0,1-.325,1.037c.123.753.261,1.5.425,2.256a.977.977,0,0,1-.69,1.214c.006.21,0,.418.009.628a1.028,1.028,0,0,1-1.853.588c.271.606.549,1.21.8,1.828.262.65.617,1.4.954,2.179.194-1.252.476-2.5.663-3.558.149-3.008.4-6,.779-8.992a1.055,1.055,0,0,1,.1-.305c.079-.658.155-1.315.242-1.973a1.118,1.118,0,0,1,.231-.533c-.142-.374-.271-.75-.42-1.122-.492-1.227,1.494-1.76,1.981-.547a47.6,47.6,0,0,1,3.382,20.6c1.75-4.289,3.471-9.011,6.32-12.665l.016-.034.005,0c.053-.069.1-.144.155-.212a.807.807,0,0,1,.769-.325,1.075,1.075,0,0,1,1.68,1.065,29.819,29.819,0,0,1-5.851,12.809.8.8,0,0,1-1.11.222,1.243,1.243,0,0,1-.079.142l-.28.4a1.164,1.164,0,0,1-1.823,0,.868.868,0,0,1-.6.491c-2.155.382-4.526,1.5-5.7-.3-1.056.893-3.359.158-4.766-.021-3.54-.45-4.139-1.89-5.552-5.156A25.4,25.4,0,0,1,.7,43.394" transform="translate(54.41 0.922)" fill="#afcdb0"/>
          <path id="Path_4261" data-name="Path 4261" d="M3.428,58.825A2.742,2.742,0,0,1,3.2,57.011a1.035,1.035,0,0,1,1.981,0c.061.329.12.658.181.986C6.549,59.274,13.794,59.684,15,59.71a36.784,36.784,0,0,0,10.071-1.292c.058-.427.117-.854.167-1.282.155-1.3,2.211-1.313,2.055,0-.384,3.233-.837,6.457-1.407,9.663-.392,2.2-.406,5.859-2.088,7.557a3.334,3.334,0,0,1-.363.283l-.01.043a.979.979,0,0,1-1.346.642,19.358,19.358,0,0,1-5.018.47,28.831,28.831,0,0,1-9.773-.882.986.986,0,0,1-.7-1.021c-1.154-1.489-1.082-3.653-1.422-5.52Q4.3,63.6,3.428,58.825" transform="translate(53.46 1.536)" fill="#f19a8c"/>
          <path id="Path_4262" data-name="Path 4262" d="M56.543,17.1a2.631,2.631,0,0,1,.7-1.284A2.8,2.8,0,0,1,59.429,15c.471.022,2.426.388,2.6.9a4.259,4.259,0,0,1-.209-.925c-1.127-2.1-1.129-6.37,1.855-7.047a2.147,2.147,0,0,1,.805-.025,8.812,8.812,0,0,1,1.355-6.479c2.04-2.619,4.706-1.207,6.643.922A9.187,9.187,0,0,1,75.6,6.213c2.665.343,5.765,1.466,6.069,4.6.157,1.621-.777,3.184-2.037,4.585a25.807,25.807,0,0,1-4.247,5.12,1.009,1.009,0,0,1-1.242.114,1.95,1.95,0,0,1-1.18.322,50.015,50.015,0,0,1,.786,5.214,10.76,10.76,0,0,1-1.663,4.6c-.2.356-.49.745-.9.753.052-.655-.537-1.162-1.069-1.548L66.53,27.363a29.273,29.273,0,0,0-3.183-2.108c-2.066-1.124-4.53-1.856-5.831-3.816a6.083,6.083,0,0,1-.973-4.34" transform="translate(-55.686 0)" fill="#cfe5b7"/>
          <path id="Path_4263" data-name="Path 4263" d="M71.921,18.631c1.743-1.029,4.37-1.893,6.246-.777a3.237,3.237,0,0,1,.775.639.906.906,0,0,1,1.086.707,9.653,9.653,0,0,1-.374,6.29,1.035,1.035,0,0,1-.146.241c2.691,8.059-7.324,13.632-12.361,17.678a5.887,5.887,0,0,1-1.216.822,5.96,5.96,0,0,1-1.915.4,9.352,9.352,0,0,1-3.427,0,8.289,8.289,0,0,1-1.872-1.241c-1.5-.942-2.941-1.866-4.386-2.869-1.24-.862-2.312-1.394-3.038-2.848a14.565,14.565,0,0,1-1.554-5.7,4.8,4.8,0,0,1,1.056-2.954,1.119,1.119,0,0,1,.466-.382,1.236,1.236,0,0,1,.71.039c1.77.458,3.6.844,5,2.095a35.214,35.214,0,0,1,2.947,3.117l2.629,3.017c-.133-1.95.794-3.791,1.569-5.585,1.067-2.471,1.545-5.246,2.913-7.571a14.52,14.52,0,0,1,4.9-5.12" transform="translate(-47.493 0.474)" fill="#cfe5b7"/>
          <path id="Path_4264" data-name="Path 4264" d="M63.321,49.812q4.235-.022,8.464-.291A9.528,9.528,0,0,0,75.6,48.38c.758-.355,1.942-.41,2.054.709a66.949,66.949,0,0,1-.054,14.606c-.295,2.482-.273,6.851-2.088,8.793-1.06,1.133-4.047,2.305-5.672,2.725a17.833,17.833,0,0,1-6.33.252c-1.764-.2-4.375.045-4.583-2.231-.078-.852.114-1.715-.008-2.56a7.523,7.523,0,0,0-.564-1.736,47.416,47.416,0,0,1-3.426-14.676,13.919,13.919,0,0,1,.949-5.552c.093-.3,2.893.691,3.269.806a14.526,14.526,0,0,0,4.178.3" transform="translate(-50.432 1.317)" fill="#8d979c"/>
          <path id="Path_4265" data-name="Path 4265" d="M72.087,44.671l.584.087c1.272.186,2.279.087,3.28,1.1a1.077,1.077,0,0,1,.1.139l.536-.036c1.176-.08,1.365,1.709.273,2.018-2,.563-3.862,1.448-5.956,1.49-3.155.064-6.31-.031-9.465-.124a17.489,17.489,0,0,1-3.827-.4c-.817-.21-1.718-.673-1.848-1.506a1.666,1.666,0,0,1,.7-1.505,4.461,4.461,0,0,1,1.59-.684,31.859,31.859,0,0,1,9.671-1.087,40.2,40.2,0,0,1,4.365.505" transform="translate(-50.861 1.207)" fill="#b9bdbd"/>
          <path id="Path_4266" data-name="Path 4266" d="M31.51,35.559l.026.009a1.068,1.068,0,0,1,1.064.155c.464.363,1,.714,1.487,1.1-.144-.228-.288-.457-.42-.693-.73-1.3-2.134-4.187-.565-5.426a1.485,1.485,0,0,1,1.674-.158c1.507.083,2.914,2.553,3.106,3.733a4.419,4.419,0,0,1,.007,1.147A9.564,9.564,0,0,1,38,37.221c.223-.414.457-.824.717-1.221.535-.816,1.974-.444,1.944.455a.863.863,0,0,1,.418.577,1.963,1.963,0,0,1,.013.817,1.156,1.156,0,0,1,.515.112c.631-.511,1.817-.3,1.7.7-.005.037-.013.072-.018.109a1,1,0,0,1,.058.381,10.68,10.68,0,0,1-1.19,4.386,12.306,12.306,0,0,1,1.7-.278A.991.991,0,0,1,44.751,43l.876.176c.94.189.909,1.415.246,1.878a5.58,5.58,0,0,1-2.353.94c-.158.144-.318.286-.473.435a1.044,1.044,0,0,1-1.7-1.071c-.007-.007-.016-.011-.024-.018a1.063,1.063,0,0,1-.252-.459,1.03,1.03,0,0,1-1.3-1.231c.121-.528.268-1.049.406-1.572,0-.022-.015-.041-.018-.064-.006-.058-.006-.114-.012-.171a.96.96,0,0,1-.6-1.17l.008-.03c-.069.163-.15.318-.215.483a1.071,1.071,0,0,1-1.2.663,1.014,1.014,0,0,1-1.773-.756,1.37,1.37,0,0,1-.7-.037,2.041,2.041,0,0,1-.629-.363,1.058,1.058,0,0,1-.648.078c-1.759-.386-3-2.292-4.027-3.643-.549-.721.36-1.771,1.16-1.509" transform="translate(6.626 0.831)" fill="#a0c7a0"/>
          <path id="Path_4267" data-name="Path 4267" d="M41.873,39.819A4.6,4.6,0,0,1,42.407,41a1.035,1.035,0,0,1,.116.217q.558,1.848,1.117,3.7a.966.966,0,0,1,.012.1,1.819,1.819,0,0,1,.127-.316,1.036,1.036,0,0,1,1.774,0,9,9,0,0,1,1.039,4.349,1.023,1.023,0,0,1-2.018.193,1.048,1.048,0,0,1-.162-.275,10.33,10.33,0,0,1-.9-3.231,1.078,1.078,0,0,1-1.666.062.987.987,0,0,1-.379-.353,10.069,10.069,0,0,1-1.51-5.109,1.037,1.037,0,0,1,1.915-.519" transform="translate(-3.656 1.076)" fill="#a0c7a0"/>
          <path id="Path_4268" data-name="Path 4268" d="M43.937,46.464a4.531,4.531,0,0,1,3.3,1.9,1.011,1.011,0,0,1,1.725.034,8.666,8.666,0,0,1,.925,4.5.99.99,0,0,1-.462.785,3.675,3.675,0,0,1,.658.569.979.979,0,0,1,.2,1,1.073,1.073,0,0,1-1.538.868,12.354,12.354,0,0,0-2.652-.964,1.036,1.036,0,0,1,0-1.982,3.766,3.766,0,0,1,1.669-.141,4.928,4.928,0,0,1-.929-3.1,1.052,1.052,0,0,1-1.272-.415,2.148,2.148,0,0,0-.228-.254.872.872,0,0,1-1.253.21c-.579-.4-1.367-.888-1.543-1.614-.221-.9.6-1.461,1.4-1.392" transform="translate(-10.009 1.271)" fill="#a0c7a0"/>
          <path id="Path_4269" data-name="Path 4269" d="M41.956,56.565a1.725,1.725,0,0,1,1.569.073,8.951,8.951,0,0,1,1.612.844c1.1.728.069,2.509-1.036,1.774-.084-.055-.173-.1-.257-.152a.931.931,0,0,1-1.392-.008,3.724,3.724,0,0,0-.476-.277,1.519,1.519,0,0,1-.473-.569,1.286,1.286,0,0,1,.452-1.685" transform="translate(-4.11 1.543)" fill="#a0c7a0"/>
          <path id="Path_4270" data-name="Path 4270" d="M30.412,52.963c.052-.071.111-.136.164-.205l0,0,2.508-3.184a.847.847,0,0,1,1.009-.252,1.909,1.909,0,0,1-1.267-1.186c-.446-1.247,1.538-1.785,1.982-.547-.133-.369-.17-.151.063-.173a3.853,3.853,0,0,1,.624.039l1.542.1c1.312.089,1.322,2.144,0,2.055a11.813,11.813,0,0,1-2.942-.292,1.182,1.182,0,0,1,.753.873,1.074,1.074,0,0,1-.27,1.488c-.239.167-.452.372-.677.56a.917.917,0,0,1,.5.631c.211.825.45,1.642.7,2.453a1.018,1.018,0,0,1,.146-.362l1.248-1.922a1.091,1.091,0,0,1,.941-.459,1.015,1.015,0,0,1,1.275-.236,1.034,1.034,0,0,1,.369,1.405,8.773,8.773,0,0,0-1.358,2.673c0,.005-.006.01-.008.016.429-.055.859-.111,1.287-.187,1.293-.231,1.848,1.749.547,1.981a31.4,31.4,0,0,1-3.857.45.869.869,0,0,1-.945-.707,1.017,1.017,0,0,1-1.166-.679c-.166-.482-.317-.969-.47-1.455a.927.927,0,0,1-.515-.64,6.765,6.765,0,0,1-.2-1.438c-.054.069-.122.127-.175.2l-.191.243c-.715.906-2.307-.306-1.614-1.245" transform="translate(12.634 1.283)" fill="#a0c7a0"/>
          <path id="Path_4271" data-name="Path 4271" d="M31.1,62.852a1.044,1.044,0,0,1,1.509-.614,17.292,17.292,0,0,0,1.929.7.989.989,0,0,1,.449-.08A81.214,81.214,0,0,0,47.911,62.4l0-.016c.247-1.3,2.227-.748,1.981.546-.632,3.329-1.147,8.332-3.1,11.2-1.586,2.32-6.138,1.559-8.449,1.506-2.7-.062-4.081-.1-5.069-2.744-1.054-2.815-2.887-7.007-2.176-10.034" transform="translate(2.29 1.686)" fill="#d1c8bf"/>
          <path id="Path_4272" data-name="Path 4272" d="M32.075,60.235a9.245,9.245,0,0,1,3.539-1.455,9.394,9.394,0,0,1,1.85.176A20.421,20.421,0,0,0,41.5,58.5a12.066,12.066,0,0,1,7.464,1.682,1.028,1.028,0,0,1-1.037,1.774,11.31,11.31,0,0,0-3.474-1.307c-1.887-.4-2.694.162-4.438.515-2.39.483-4.525-.534-6.909.848a1.028,1.028,0,0,1-1.037-1.774" transform="translate(2.087 1.598)" fill="#e6dfd8"/>
          <path id="Path_4273" data-name="Path 4273" d="M33.841,60.77h.005a.967.967,0,0,1,.305-.126,30.96,30.96,0,0,1,10.82-.176c.374.052.749.118,1.123.183a.912.912,0,0,1,.3-.061.925.925,0,0,1,.9.591l.011.021a1.08,1.08,0,0,1,.041.15.967.967,0,0,1,.043.266v0a1.152,1.152,0,0,1-.059.356c-.007.024-.021.043-.03.067a1.042,1.042,0,0,1-1.189.68c-.043-.008-.086-.013-.13-.022-3.741,1.043-7.587.333-11.391.156-.1.022-.2.038-.305.061a.977.977,0,0,1-.85-.187,1.033,1.033,0,0,1,.412-1.962" transform="translate(2.858 1.644)" fill="#b8a28d"/>
          <path id="Path_4274" data-name="Path 4274" d="M32.344,65.682c4.607,1.11,11.569,2.271,15.967-.145,1.16-.637,2.2,1.136,1.037,1.774-5,2.748-12.262,1.625-17.55.351-1.284-.309-.741-2.291.547-1.981" transform="translate(2.22 1.789)" fill="#bdb4ad"/>
          <path id="Path_4275" data-name="Path 4275" d="M4.568,58.465c5.512,2.022,15.624,3.262,20.95.043,1.08-.652,2.044.911,1.166,1.655a.99.99,0,0,1-.7,1.017c-6.146,2.012-14.758,3.552-20.809.482a.869.869,0,0,1-.5-1c-.219-.074-.44-.139-.659-.22-1.231-.451-.7-2.438.547-1.981" transform="translate(53.548 1.596)" fill="#cf7a71"/>
          <g id="Group_1258" data-name="Group 1258" transform="translate(74.363 46.257)" style="mix-blend-mode: multiply;isolation: isolate">
            <g id="Group_1257" data-name="Group 1257" transform="translate(0)">
              <g id="Group_1256" data-name="Group 1256" clip-path="url(#clip-path-3)">
                <path id="Path_4276" data-name="Path 4276" d="M5.644,48.384c.542-1.028,1.362-1.856,1.939-2.86a1.028,1.028,0,0,1,1.774,1.038c-.515.9-1.242,1.641-1.76,2.537a9.116,9.116,0,0,0-1.029,2.857c-.256,1.3-2.237.747-1.982-.547a11.066,11.066,0,0,1,1.058-3.025" transform="translate(-4.563 -45.025)" fill="#eeeeef"/>
              </g>
            </g>
          </g>
          <g id="Group_1261" data-name="Group 1261" transform="translate(55.596 42.542)" style="mix-blend-mode: multiply;isolation: isolate">
            <g id="Group_1260" data-name="Group 1260" transform="translate(0)">
              <g id="Group_1259" data-name="Group 1259" clip-path="url(#clip-path-4)">
                <path id="Path_4277" data-name="Path 4277" d="M18.143,50.256c1.39,2.91,2.946,6.136,5.949,7.639-1.434-3.369-1.414-7.041-1.252-10.718a1.026,1.026,0,0,1,.052-.21.956.956,0,0,1-1.511-.239,10.288,10.288,0,0,0-1.993-2.575.9.9,0,0,1-.189-1.139c-.731-.9.614-2.176,1.546-1.325,2.669,2.44,5.775,4.318,7.13,7.837.475,1.235-1.511,1.77-1.982.547a7.775,7.775,0,0,0-1.04-1.845c-.13,3.516-.062,7.018,1.772,10.154a1.042,1.042,0,0,1-1.474,1.369.8.8,0,0,1-1.083.392c-3.954-1.606-5.942-5.171-7.7-8.85-.567-1.188,1.2-2.231,1.774-1.038" transform="translate(-16.258 -41.409)" fill="#eeeeef"/>
              </g>
            </g>
          </g>
          <g id="Group_1264" data-name="Group 1264" transform="translate(18.803 23.136)" style="mix-blend-mode: multiply;isolation: isolate">
            <g id="Group_1263" data-name="Group 1263" transform="translate(0)">
              <g id="Group_1262" data-name="Group 1262" clip-path="url(#clip-path-5)">
                <path id="Path_4278" data-name="Path 4278" d="M51.145,31.776c.778-2.712,1.7-6.137,4.131-7.866a8.719,8.719,0,0,1,7.987-.742c1.188.579.148,2.352-1.038,1.774a6.2,6.2,0,0,0-6.769,1.7,17.677,17.677,0,0,0-2.329,5.677,1.029,1.029,0,0,1-1.982-.547" transform="translate(-51.101 -22.52)" fill="#eeeeef"/>
              </g>
            </g>
          </g>
          <path id="Path_4279" data-name="Path 4279" d="M2.808,56.545l.054-.046.8-.67c.445.006.685.523.758.962.162.987.447,1.239,1.387,1.505a30.5,30.5,0,0,0,7.317.965,43.381,43.381,0,0,0,6.118-.24,27.318,27.318,0,0,0,3.685-.666,11.4,11.4,0,0,0,1.878-.664,4.413,4.413,0,0,0,.8-.488.9.9,0,0,0,.317-.439c.028-.173-.82-.895-.878-.816l.774-1.057c1.384.866,1.955,2.174.651,3.376a5.625,5.625,0,0,1-1.112.678,12.567,12.567,0,0,1-2.158.749,27.888,27.888,0,0,1-3.946.682,42.125,42.125,0,0,1-6.384.163A25.2,25.2,0,0,1,5.3,59.211C4.71,58.988,2.2,57.6,2.645,56.736a.657.657,0,0,1,.162-.191" transform="translate(54.122 1.502)" fill="#595757"/>
          <path id="Path_4280" data-name="Path 4280" d="M2.7,74.57c.2.113.379.231,1.05-.76.611-1,1.615-3.2,2.358-7.774A37.764,37.764,0,0,0,6.7,58.06c-.093-1.178-.312-1.229-.542-1.234s-.358-.013-.487,1.115c-.158,1.123-.229,3.4-.916,7.875A38.075,38.075,0,0,1,2.968,73c-.438,1.151-.481,1.446-.269,1.568" transform="translate(74.613 1.555)" fill="#595757"/>
          <path id="Path_4281" data-name="Path 4281" d="M26.685,74.724c.2-.113.379-.231.02-1.28a49.9,49.9,0,0,1-1.8-7.629c-.676-4.385-.832-6.659-1.068-7.8-.211-1.148-.411-1.185-.646-1.179s-.372.014-.39,1.169a52.579,52.579,0,0,0,.751,8.032,27,27,0,0,0,2.043,7.433c.617,1.19.906,1.368,1.094,1.256" transform="translate(33.657 1.555)" fill="#595757"/>
          <path id="Path_4282" data-name="Path 4282" d="M7.032,74.628c-.063.224-.125.425.814.831a19.747,19.747,0,0,0,7,1.1,19.694,19.694,0,0,0,6.95-1.048c.962-.4.936-.615.875-.838s-.1-.351-1.061-.18a37.06,37.06,0,0,1-6.76.693,37,37,0,0,1-6.4-.654c-1.082-.184-1.351-.137-1.416.092" transform="translate(54.1 2.036)" fill="#595757"/>
          <path id="Path_4283" data-name="Path 4283" d="M6.426,61.873c-.014.115-.027.22.911.41a40.318,40.318,0,0,0,6.674.646,19.381,19.381,0,0,0,6.622-.864c.923-.35.918-.464.884-.573s-.059-.173-.967.062a25.623,25.623,0,0,1-6.531.689c-3.31-.078-5.2-.367-6.268-.433-1.067-.088-1.312-.053-1.325.063" transform="translate(55.863 1.68)" fill="#595757"/>
          <path id="Path_4284" data-name="Path 4284" d="M.077,58.994c.162.149.344.32,1.166-.475A13.467,13.467,0,0,0,2.9,56.42,23.826,23.826,0,0,0,5.325,51.8,26.747,26.747,0,0,0,6.49,46.792a22.562,22.562,0,0,0,.242-2.633,1.66,1.66,0,0,0-.2-1.105.262.262,0,0,0-.365-.026.588.588,0,0,0-.221.181c-.052.057-.09.143-.227.734-.121.538-.263,1.351-.486,2.557a33.5,33.5,0,0,1-1.2,4.821,27.918,27.918,0,0,1-2,4.034C1.453,56.361.989,57.061.664,57.57,0,58.572-.1,58.828.077,58.994" transform="translate(77.255 1.175)" fill="#595757"/>
          <path id="Path_4285" data-name="Path 4285" d="M.651,57.457c.227.049.435.084.827-.924l.953-2.36a26.159,26.159,0,0,1,5.316-8.137c.814-.872,1.409-1.42,1.785-1.826.78-.778.7-.975.563-1.165s-.208-.3-1.155.312a16.939,16.939,0,0,0-2.049,1.713,23.669,23.669,0,0,0-3.311,4A20.87,20.87,0,0,0,.592,55.871c-.255,1.24-.159,1.541.06,1.586" transform="translate(73.355 1.173)" fill="#595757"/>
          <path id="Path_4286" data-name="Path 4286" d="M8.764,35.387c-.2.122-.371.242.277,1.629.291.712.8,1.738,1.4,3.337a35.6,35.6,0,0,1,1.869,6.753,35.683,35.683,0,0,1,.439,6.9c-.045,1.7-.185,2.843-.232,3.624-.158,1.552.028,1.664.256,1.716s.355.087.749-1.447a25,25,0,0,0,.509-3.72,32,32,0,0,0-.367-7.3,29,29,0,0,0-3.449-9.846C9.3,35.51,8.949,35.27,8.764,35.387" transform="translate(61.067 0.967)" fill="#595757"/>
          <path id="Path_4287" data-name="Path 4287" d="M15.459,58.9c.228-.114.333-.2-.031-1.567a18.933,18.933,0,0,1-.488-3.323,44.951,44.951,0,0,1,.232-6.669,62.558,62.558,0,0,1,1.02-6.54c.343-1.59.574-2.665.731-3.393.3-1.462.135-1.581-.09-1.657s-.354-.122-.873,1.274a32.094,32.094,0,0,0-1,3.391,49.03,49.03,0,0,0-1.153,6.789,40.9,40.9,0,0,0-.2,6.281,13.969,13.969,0,0,0,.664,3.64c.6,1.641,1.012,1.872,1.185,1.773" transform="translate(52.97 0.977)" fill="#595757"/>
          <path id="Path_4288" data-name="Path 4288" d="M15.325,45.014c-.181.146-.34.284.092,1.08a61.579,61.579,0,0,1,2.94,5.5,61.6,61.6,0,0,1,2.032,5.841c.3.874.509.885.739.851s.362-.048.289-.981a22.031,22.031,0,0,0-1.8-6.26,21.881,21.881,0,0,0-3.168-5.293c-.688-.793-.946-.878-1.122-.735" transform="translate(46.997 1.23)" fill="#595757"/>
          <path id="Path_4289" data-name="Path 4289" d="M21.857,60.054c.2-.127.36-.251.028-1.1a27.717,27.717,0,0,1-1.707-6.115,27.831,27.831,0,0,1-.107-6.3c.073-.93-.1-1.034-.331-1.1s-.353-.113-.669.825a16.23,16.23,0,0,0-.251,6.771,16.31,16.31,0,0,0,1.992,6.1c.59.937.864,1.048,1.045.925" transform="translate(42.797 1.242)" fill="#595757"/>
          <path id="Path_4290" data-name="Path 4290" d="M20.945,40.73c-.115.2-.209.391.406.937.294.294.767.672,1.415,1.3A16.482,16.482,0,0,1,25.129,45.8a16.557,16.557,0,0,1,1.6,3.268c.313.841.468,1.431.616,1.826.255.8.465.821.7.8s.365-.028.334-.91a10.112,10.112,0,0,0-.4-2.047,14.355,14.355,0,0,0-1.7-3.683,12.6,12.6,0,0,0-4.1-4.075c-.866-.481-1.128-.448-1.236-.253" transform="translate(34.171 1.11)" fill="#595757"/>
          <path id="Path_4291" data-name="Path 4291" d="M28.532,59.512c.192-.133.356-.259-.166-1.337-.239-.552-.654-1.341-1.175-2.571a32.083,32.083,0,0,1-2.6-10.535c-.112-1.324-.113-2.221-.157-2.832-.04-1.221-.235-1.3-.468-1.328s-.364-.051-.56,1.186a18.331,18.331,0,0,0-.106,2.957,28.49,28.49,0,0,0,.8,5.686,24.339,24.339,0,0,0,3.151,7.583c.791,1.16,1.1,1.319,1.281,1.192" transform="translate(31.355 1.119)" fill="#595757"/>
          <path id="Path_4292" data-name="Path 4292" d="M4.879,33.33c-.231.029-.438.06-.484,1-.081.937.081,2.785-.156,6.462-.291,3.605-.726,5.408-.786,6.363a3.371,3.371,0,0,0,.007.785.463.463,0,0,0,.107.318c.068.088.123.186.318.112a.741.741,0,0,0,.327-.34,3.617,3.617,0,0,0,.23-.568A27.971,27.971,0,0,0,5.608,40.89a27.944,27.944,0,0,0-.151-6.315c-.179-1.06-.351-1.274-.577-1.245" transform="translate(74.755 0.912)" fill="#595757"/>
          <path id="Path_4293" data-name="Path 4293" d="M4.284,44.239c.248.025.4.008.723-.659.32-.635,1.1-2.02,2.767-4.725,1.67-2.623,2.627-3.892,3.008-4.626A2.059,2.059,0,0,0,10.895,34a.323.323,0,0,1,.041-.11c.043-.063.075-.041.075-.041s-.031,0-.055-.017a1.115,1.115,0,0,1-.114-.188.411.411,0,0,1-.033-.408c0-.057-.055-.132-.259-.086a1.3,1.3,0,0,0-.543.4,30.21,30.21,0,0,0-3.393,4.581,22.015,22.015,0,0,0-2.5,4.859c-.234.987-.037,1.249.174,1.255" transform="translate(68.865 0.906)" fill="#595757"/>
          <path id="Path_4294" data-name="Path 4294" d="M15.537,32.511c-.107.207-.194.4.541.971.354.307.918.7,1.705,1.367a21.21,21.21,0,0,1,2.958,3,21.315,21.315,0,0,1,2.23,3.5c.472.908.737,1.55.958,1.973.4.86.614.853.84.8s.356-.084.164-1.05a12.663,12.663,0,0,0-.766-2.2,18.1,18.1,0,0,0-2.353-3.874,15.922,15.922,0,0,0-4.907-4.213c-.987-.5-1.271-.467-1.372-.268" transform="translate(43.072 0.886)" fill="#595757"/>
          <path id="Path_4295" data-name="Path 4295" d="M24.914,45.259c.227-.055.428-.111.4-.9,0-.794-.3-2.321-.4-5.4-.047-3.03.186-4.568.148-5.375a2.58,2.58,0,0,0-.066-.593.415.415,0,0,0-.336-.3.267.267,0,0,0-.268.122.209.209,0,0,0-.026.134.221.221,0,0,0,.087.149c.058.047.123.01.116-.02a.2.2,0,0,0-.037-.093s0,0,.017.031c.009.015.005.035.009.026s.073-.027.1-.021-.07-.026-.067-.048a.046.046,0,0,1,0,.025c-.04.095-.006.015-.014.038a.161.161,0,0,1-.067.035.723.723,0,0,1-.232.028l-.136-.008c0,.005-.005-.007-.011.015-.023.075-.047.16-.075.258a21.1,21.1,0,0,0-.506,5.626,21.139,21.139,0,0,0,.7,5.3c.265.871.452,1.028.672.973" transform="translate(34.493 0.894)" fill="#595757"/>
          <path id="Path_4296" data-name="Path 4296" d="M43.223,60.623a.963.963,0,0,1,.225-.676,4.94,4.94,0,0,1,2.642-1.468,18.943,18.943,0,0,1,2.516-.525.7.7,0,0,0,.192.538,2.153,2.153,0,0,0,.689.565c.029.012.055.014.083.024a20.864,20.864,0,0,0-4.067.665,3.985,3.985,0,0,0-1.769.846c-.166.2-.268.241-.387.231-.058,0-.106-.045-.124-.2" transform="translate(-9.981 1.585)" fill="#595757"/>
          <path id="Path_4297" data-name="Path 4297" d="M30.628,60.83c.126-.01.212.063.41.269a4.338,4.338,0,0,0,1.872.853,24.98,24.98,0,0,0,5.75.718,34.614,34.614,0,0,0,4.807-.2,21.077,21.077,0,0,0,2.886-.524,8.857,8.857,0,0,0,1.458-.514,3.382,3.382,0,0,0,.6-.366,1.217,1.217,0,0,0,.2-.236,1.068,1.068,0,0,0-.211-.243,3.242,3.242,0,0,0-.615-.37,8.855,8.855,0,0,0-1.489-.517,21.525,21.525,0,0,0-2.933-.521,34.145,34.145,0,0,0-4.515-.188.636.636,0,0,0,.107-.855c-.1-.151-.211-.287-.321-.427.286-.013.577-.025.883-.031a31.467,31.467,0,0,1,4.717.246,19.137,19.137,0,0,1,2.824.57,8.418,8.418,0,0,1,1.535.595,3.713,3.713,0,0,1,.8.546,1.724,1.724,0,0,1,.59,1.2,1.778,1.778,0,0,1-.7,1.3,4.516,4.516,0,0,1-.908.555,10.02,10.02,0,0,1-1.728.6,22.033,22.033,0,0,1-3.137.541,33.167,33.167,0,0,1-5.059.126,19.7,19.7,0,0,1-6.013-1.071c-1.236-.462-1.851-1.092-1.973-1.573-.078-.484.067-.479.167-.477" transform="translate(2.738 1.578)" fill="#595757"/>
          <path id="Path_4298" data-name="Path 4298" d="M30.661,74.821c.2.113.379.231.941-.545.515-.786,1.331-2.532,1.919-6.151a26.476,26.476,0,0,0,.417-6.312c-.106-.933-.324-.974-.554-.979s-.359-.013-.477.874c-.14.883-.2,2.68-.741,6.2a31.966,31.966,0,0,1-1.381,5.645c-.326.9-.334,1.149-.125,1.27" transform="translate(18.645 1.664)" fill="#595757"/>
          <path id="Path_4299" data-name="Path 4299" d="M49.715,74.974c.2-.113.379-.231.127-1.065a48.721,48.721,0,0,1-1.364-6c-.531-3.449-.674-5.241-.893-6.139-.2-.9-.4-.93-.635-.925s-.371.014-.4.929a38.4,38.4,0,0,0,.574,6.355,20.6,20.6,0,0,0,1.641,5.891c.506.943.759,1.072.95.959" transform="translate(-13.801 1.664)" fill="#595757"/>
          <path id="Path_4300" data-name="Path 4300" d="M34.162,74.853c-.062.224-.124.424.611.778a14.408,14.408,0,0,0,5.546.925,14.362,14.362,0,0,0,5.507-.881c.755-.348.721-.56.661-.783s-.1-.351-.857-.232a31.828,31.828,0,0,1-5.305.525A31.748,31.748,0,0,1,35.3,74.69c-.853-.128-1.072-.065-1.137.163" transform="translate(2.413 2.041)" fill="#595757"/>
          <path id="Path_4301" data-name="Path 4301" d="M31.052,65.273c-.074.22-.151.417.944.922a21.774,21.774,0,0,0,8.217,1.418c4.715-.024,7.081-.952,8.164-1.549,1.082-.645.974-.9.863-1.08-.127-.212-.177-.281-1.2.1a22.672,22.672,0,0,1-7.816,1.156,31.16,31.16,0,0,1-4.8-.4c-1.222-.19-2.093-.391-2.725-.523-1.255-.29-1.569-.269-1.647-.044" transform="translate(2.818 1.773)" fill="#595757"/>
          <path id="Path_4302" data-name="Path 4302" d="M60.156,73.6a37,37,0,0,0,6.4.654,36.961,36.961,0,0,0,6.76-.693c.961-.172,1-.044,1.061.18s.086.437-.875.838a19.7,19.7,0,0,1-6.951,1.048,19.745,19.745,0,0,1-7-1.1c-.939-.406-.876-.607-.814-.831s.334-.275,1.416-.092" transform="translate(-50.731 2.01)" fill="#595757"/>
          <path id="Path_4303" data-name="Path 4303" d="M65.719,53.166a40.3,40.3,0,0,1-6.674-.646c-.939-.19-.926-.294-.911-.41s.257-.151,1.324-.063c1.067.067,2.959.354,6.269.433a25.612,25.612,0,0,0,6.53-.689c.908-.234.932-.172.968-.062s.039.223-.885.574a19.406,19.406,0,0,1-6.621.863" transform="translate(-48.968 1.412)" fill="#595757"/>
          <path id="Path_4304" data-name="Path 4304" d="M49.564,30.121c.042-.082.082-.136.123-.208-.081-.062-.1-.208.042-.553a3.428,3.428,0,0,1,1.561-1.516,5.77,5.77,0,0,1,4.606-.258c.106.036.211.088.315.13-.305-.186-.6-.363-.926-.578a22.358,22.358,0,0,1-4.257-3.686,5.871,5.871,0,0,1-1.469-2.644,1.647,1.647,0,0,1,.078-1.152.3.3,0,0,1,.327-.145c.278.007.226.3.715,1.339A8.346,8.346,0,0,0,52.3,22.923,26.065,26.065,0,0,0,56.053,26a25.66,25.66,0,0,0,4.709,2.508c1.205.488,2.033.754,2.582.942.135.044.251.084.353.122-.006-.154-.011-.292-.017-.451-.031-.612-.06-1.162-.087-1.683-.615-.263-1.923-1.275-5.083-4.215-5.112-4.757-4.856-5.032-4.54-5.372s1,.2,5.474,4.367c2.154,2.005,3.386,3.167,4.075,3.874-.029-.5-.054-.952-.076-1.354-.378-.609-.886-1.535-1.743-2.817a17.667,17.667,0,0,0-4.207-4.544,11.4,11.4,0,0,0-2.8-1.491c-.114.084-.295.08-.6-.176a4.1,4.1,0,0,0-2.107-.018,2.382,2.382,0,0,0-1.287.926,2.683,2.683,0,0,0-.447,1.013,3.9,3.9,0,0,0-.01,1.067.352.352,0,0,1-.172.334c-.085.067-.233.057-.46-.227a2.247,2.247,0,0,1-.277-1.886,3.484,3.484,0,0,1,.823-1.519,3.583,3.583,0,0,1,2.106-1.1,4.909,4.909,0,0,1,.829-.061,5.5,5.5,0,0,1-.2-.606,5,5,0,0,1,.266-3.305,5.182,5.182,0,0,1,2.569-2.553,4.21,4.21,0,0,1,1.819-.4c.026-.295.059-.56.1-.768.256-1.186.5-1.132.719-1.1.249.041.274.336.293,1.579a15.3,15.3,0,0,0,.277,2.66,16.875,16.875,0,0,0,1.517,4.417,22,22,0,0,0,2.873,4.319c.82.967,1.424,1.56,1.815,1.968.793.808.729.894.576,1.079s-.322.334-1.321-.358a13.347,13.347,0,0,1-2.1-1.907,19.882,19.882,0,0,1-3.075-4.489,15.757,15.757,0,0,1-1.64-5.3c-.042-.383-.061-.723-.069-1.039a6.384,6.384,0,0,0-1.275.523A4.317,4.317,0,0,0,54.4,10.9a4.146,4.146,0,0,0-.2,2.678,6.309,6.309,0,0,0,.275.835,11.284,11.284,0,0,1,3.816,1.851,17.472,17.472,0,0,1,4.541,5.044c.2.323.369.618.525.9,0-.014,0-.034,0-.048.03-1.007.238-1.036.468-1.064s.4.2.6,1.316a55.591,55.591,0,0,1,.619,6.648c.036.884.058,1.655.071,2.356.165-.635.38-1.358.674-2.2.34-.918.655-1.661.947-2.29-.062-.552-.063-1.462-.239-3-.1-.684-.2-1.238-.289-1.691a1.411,1.411,0,0,1-.249-.035.289.289,0,0,1-.24-.284c-.021-.114.053-.224.313-.352l.036-.016a5.813,5.813,0,0,1-.143-.9,1.045,1.045,0,0,1,.021-.323,2.808,2.808,0,0,1-.728-.82c-.658-1.007-1.684-3.3-2.2-7.852-.477-4.619-.754-6.827-.9-7.967s.05-1.2.273-1.264.446.171.826,1.448a48.11,48.11,0,0,1,1.162,7.62,26.316,26.316,0,0,0,1.794,7.628,3.892,3.892,0,0,1,.3.83.413.413,0,0,1,.242.157c.048-.166.1-.349.174-.558.272-.88.748-2.16,1.253-4.08a16.255,16.255,0,0,0,.32-7.867c-.809-3.356-2.779-5.385-4.442-6.032a3.355,3.355,0,0,0-2.143-.214,2.712,2.712,0,0,0-1.229.749c-.571.6-.835,1-1.038,1.139a.3.3,0,0,1-.4.047c-.1-.054-.133-.2-.015-.561A4.35,4.35,0,0,1,60.423.888,3.46,3.46,0,0,1,62.46.061a5.224,5.224,0,0,1,2.8.661,9.915,9.915,0,0,1,4.547,6.566,14.9,14.9,0,0,1,.295,5,20.976,20.976,0,0,1-.741,3.646,29.893,29.893,0,0,1-1.545,4.109c-.182.385-.326.67-.446.891l.053-.028A11.243,11.243,0,0,0,70.1,18.84a22.2,22.2,0,0,0,1.736-2.019,19.746,19.746,0,0,0,1.864-2.812,6.388,6.388,0,0,0,.848-3.392,3.808,3.808,0,0,0-.95-2.277,4.737,4.737,0,0,0-2.624-1.505c-.637-.121-.969-.1-1.142-.154a.259.259,0,0,1-.221-.25.29.29,0,0,1,.158-.353,2.372,2.372,0,0,1,1.442-.253,5.123,5.123,0,0,1,3.418,1.742,4.981,4.981,0,0,1,1.271,3.014,7.629,7.629,0,0,1-.982,4.059c-2.981,5.117-5.825,6.885-7.387,7.374a15.2,15.2,0,0,1,.339,1.738c.04.35.065.662.083.955.083-.127.161-.242.226-.337.035-.046.065-.081.1-.12.054-.124.106-.242.171-.383a17.754,17.754,0,0,1,2.112-3.488,10.725,10.725,0,0,1,2.327-2.206,8.3,8.3,0,0,1,3.874-1.481,5.752,5.752,0,0,1,4.526,1.444,4.523,4.523,0,0,1,1.367,3.418,9.471,9.471,0,0,1-.414,2.449,15.9,15.9,0,0,1-.517,1.532,2.2,2.2,0,0,1-1.1,1.31.57.57,0,0,1-.15.032c.045.091.089.176.136.285a7.2,7.2,0,0,1,.458,3.638,14.128,14.128,0,0,1-2.908,6.227,22.129,22.129,0,0,1-4.873,4.853,15.565,15.565,0,0,1-3.053,1.767,2.979,2.979,0,0,1-1.312.342c-.011.205-.023.408-.036.6.431.04.865.083,1.317.144a24.006,24.006,0,0,1,3.551.717,10.462,10.462,0,0,1,1.911.741,4.535,4.535,0,0,1,.974.663,2.006,2.006,0,0,1,.689,1.382,1.7,1.7,0,0,1-.222.772,9.483,9.483,0,0,1,.123,1.159,88.908,88.908,0,0,1-.458,11.855c-.639,6.818-1.593,10.2-2.326,11.8-.8,1.588-1.04,1.441-1.224,1.336-.1-.058-.136-.2-.063-.528s.277-.831.5-1.74a66.189,66.189,0,0,0,1.745-11c.593-6.755.645-10.161.793-11.853,0-.036.005-.062.007-.1a5.983,5.983,0,0,1-.816.474,12.515,12.515,0,0,1-2.158.75,28.014,28.014,0,0,1-3.945.681,42.143,42.143,0,0,1-6.385.163,25.172,25.172,0,0,1-7.574-1.328,5.273,5.273,0,0,1-2.028-1.213c.031.192.063.406.093.671.225,1.723.363,5.124.945,11.752a74,74,0,0,0,1.788,11.634c.465,1.567.346,1.667.126,1.788-.2.255-2.184-1.336-3.279-13.293-.6-6.819-.618-10.237-.616-11.945.027-1.711.167-1.716.4-1.719a.4.4,0,0,1,.111.014c.031-.123.1-.138.163-.136.129-.011.2.072.436.362a5.006,5.006,0,0,0,2.376,1.171,30.572,30.572,0,0,0,7.318.964,43.387,43.387,0,0,0,6.118-.24,26.986,26.986,0,0,0,3.684-.666,11.364,11.364,0,0,0,1.878-.664,4.387,4.387,0,0,0,.8-.488.9.9,0,0,0,.317-.439.9.9,0,0,0-.332-.45,4.291,4.291,0,0,0-.821-.493,11.224,11.224,0,0,0-1.916-.666,27.148,27.148,0,0,0-3.745-.661c-.126-.014-.242-.021-.367-.033-.1.975-.2,1.655-.284,2.107-.2.984-.332.965-.562.934s-.434-.1-.459-1.112c-.022-.455,0-1.118.039-2.04-.3-.021-.587-.031-.877-.045a.233.233,0,0,1-.181.1.29.29,0,0,1-.316-.127c-.292-.01-.572-.016-.851-.021l0,.055c1.147.523,1.114.647,1.039.843-.065.168-.171.307-.99.14V46.8c-.074,2.257-.269,2.236-.693,2.169-.49-.071-.741-.165-.678-2.174,0-.147,0-.263,0-.39-.505-.154-1.122-.354-1.879-.615a27.676,27.676,0,0,0-6.4.972,4.556,4.556,0,0,0-2.244,1.163c-.19.274-.286.323-.407.312-.058,0-.1-.057-.117-.237a1.177,1.177,0,0,1,.29-.8,6.289,6.289,0,0,1,3.3-1.782,23.861,23.861,0,0,1,2.94-.614,15.237,15.237,0,0,1-1.948-.976,19.006,19.006,0,0,1-3.521-2.864,31.239,31.239,0,0,1-3.061-3.386,9.841,9.841,0,0,1-1.628-3.171,6.023,6.023,0,0,1,.283-4.285m30.731-3.786a4.631,4.631,0,0,0,.482-1.242,15.672,15.672,0,0,0,.579-3.635A3.194,3.194,0,0,0,80.3,19.079a4.46,4.46,0,0,0-3.421-1.019,7.284,7.284,0,0,0-3.59,1.485,11.076,11.076,0,0,0-2.137,2.166,37.7,37.7,0,0,0-2.07,3.173c-.021.033-.036.054-.055.086-.246.739-.953,2.035-1.944,4.708-.716,2.081-1.041,3.423-1.277,4.262.418-.193,1.015-.448,1.858-.884,1.078-.579,1.684-.987,2.069-1.213.223-.522.468-1.06.75-1.621.2-.4.4-.775.605-1.136-1.29,1.465-2.061,2.316-2.561,2.758-.685.62-.851.49-1.034.346-.338-.263.07-1.111,4.29-5.976a58.879,58.879,0,0,1,4.444-4.65c.7-.6.792-.51.956-.346s.29.337-.252,1.105c-.281.407-.757.982-1.484,1.817a3.9,3.9,0,0,1,1.273-.346,3.769,3.769,0,0,1,1.239.119,3.432,3.432,0,0,1,1.581.909,1.982,1.982,0,0,1,.65,1.57c.016.025.035.059.052.085a.483.483,0,0,1,.045-.142M68.66,34.8c.087-.29.182-.587.286-.894-.123.074-.256.151-.4.229.018.093.037.188.055.3s.036.237.054.367m1.533,7.688A28.563,28.563,0,0,0,72.97,40.5a23.53,23.53,0,0,0,4.079-4.278A13.619,13.619,0,0,0,79.8,30.533,7.891,7.891,0,0,0,79.6,27.4c-.287-.95-.35-1.215-.27-1.339a2.472,2.472,0,0,0-.548-.542,2.737,2.737,0,0,0-2.982-.125c-1.355.715-2.674,2.739-4.082,5.447a30.635,30.635,0,0,0-2.443,6.784c-.115.489-.208.922-.288,1.325.009.307.017.625.023.964.886-1.118,2.212-2.791,3.968-5.466a81.4,81.4,0,0,0,4.067-7.233c.549-1.055.672-1,.885-.912s.391.215.028,1.4a34,34,0,0,1-3.829,7.488A35.015,35.015,0,0,1,69,41.619c-.012.613-.029,1.179-.051,1.7.237-.187.626-.442,1.243-.829m-2.574-.144-.053-.046c-.088-.082-.1-.2.013-.438-.014-.317-.015-.72.008-1.256.011-.193.028-.412.047-.637-.024-2.714-.115-4.347-.108-5.325a5.162,5.162,0,0,1-1.957.543.889.889,0,0,1-.239-.04.375.375,0,0,1-.249.149c-.018.325-.038.6-.058.82-.107,1-.239,1-.472.99s-.441-.055-.561-1.074c-.118-.893-.147-2.529-.258-5.539a5.5,5.5,0,0,1-.727-.06,14.339,14.339,0,0,1-2.791-.753,21.88,21.88,0,0,1-2.376-1.041,16.139,16.139,0,0,1,3.713,4.075A32.726,32.726,0,0,1,65.341,40a26.923,26.923,0,0,1,1.169,4.057c.027.144.044.259.065.38.32.01.647.028.981.046.023-.624.045-1.332.063-2.146m-16.887-7.7c.621,1.57,2.1,3.279,4.2,5.345a18.353,18.353,0,0,0,3.322,2.726,19.761,19.761,0,0,0,2.922,1.4l1.015.4c.547-.037,1.122-.066,1.728-.082-.921-.907-2.35-2.494-4.643-5.254-5.633-6.967-5.236-7.27-4.893-7.532.389-.3,1.039.6,5.954,6.662,2.96,3.558,4.387,5.251,5.029,6.109.063,0,.12,0,.184,0-.024-.071-.045-.128-.07-.207-.292-.831-.663-2.076-1.386-3.852a35.5,35.5,0,0,0-3.675-6.867,17.569,17.569,0,0,0-2.857-3.37,6.811,6.811,0,0,0-2.735-1.506,4.949,4.949,0,0,0-3.585.457c-.084.048-.146.092-.218.139a1.058,1.058,0,0,1-.1.27,6.34,6.34,0,0,0-.581,1.553,6.073,6.073,0,0,0,.384,3.609" transform="translate(-49.029 0.001)" fill="#595757"/>
          <path id="Path_4305" data-name="Path 4305" d="M33.879,60.18c-.02.2-.081.515.572.526a2.37,2.37,0,0,0,1.21-.519c.424-.328.955-.793,1.651-1.436,2.726-2.529,2.5-2.839,2.171-3.162s-.381-.37-3.089,2.143a27,27,0,0,1-2.14,1.947c-.267.185-.339.256-.375.5" transform="translate(9.518 1.516)" fill="#595757"/>
          <path id="Path_4306" data-name="Path 4306" d="M39.9,61.082c.232-.016.442-.032.506-1.359.086-1.328-.017-3.965,0-9.237.065-5.173.2-7.808.143-9.161-.043-1.353-.247-1.422-.479-1.441s-.364-.033-.548,1.287a84.791,84.791,0,0,0-.488,9.3,84.127,84.127,0,0,0,.307,8.816c.163,1.489.325,1.808.554,1.792" transform="translate(3.306 1.091)" fill="#595757"/>
          <path id="Path_4307" data-name="Path 4307" d="M39.394,52.674c-.209.1-.4.192-.288.765a13.681,13.681,0,0,0,1.673,3.587,13.61,13.61,0,0,0,2.328,3.161c.455.382.638.275.827.141s.3-.213.039-.707-.88-1.4-2.014-3.295c-1.926-3.347-2.118-3.869-2.565-3.652" transform="translate(-0.279 1.44)" fill="#595757"/>
          <path id="Path_4308" data-name="Path 4308" d="M35.665,51.664c.4.24.72.436,2.911-3.188,2.149-3.556,1.868-3.819,1.47-4.059s-.454-.274-2.644,3.349c-1.918,3.173-2.134,3.657-1.736,3.9" transform="translate(7.198 1.213)" fill="#595757"/>
          <path id="Path_4309" data-name="Path 4309" d="M39.538,45.168c-.4.174-.84.363,1.2,4.555,2.089,4.069,2.545,3.909,2.925,3.691.427-.242.4-.229-1.7-4.3-1.763-3.605-1.978-4.135-2.424-3.942" transform="translate(-0.158 1.235)" fill="#595757"/>
          <path id="Path_4310" data-name="Path 4310" d="M32.833,44.9c.236-.109.324-.2.129-1.331a7.837,7.837,0,0,1,.043-2.673,6.473,6.473,0,0,1,.776-2.048,4.679,4.679,0,0,1,.794-1.014c.323-.289.682-.4.8-.294.171.054.437.575.572,1a4.9,4.9,0,0,1-.1,3.347A5.729,5.729,0,0,1,34.321,44c-.887.741-.941.866-.838,1.11.041.109.071.2.252.2a2.357,2.357,0,0,0,1.114-.415,5.563,5.563,0,0,0,2.144-2.4,5.892,5.892,0,0,0,.551-2.666,5.989,5.989,0,0,0-.285-1.676,5.493,5.493,0,0,0-.367-.886,2.176,2.176,0,0,0-.87-.936,1.733,1.733,0,0,0-1.255-.134,2.57,2.57,0,0,0-.9.453,4.613,4.613,0,0,0-1.049,1.193,7.091,7.091,0,0,0-.972,2.293,6.859,6.859,0,0,0,.005,3.222c.416,1.456.814,1.638.982,1.544" transform="translate(13.921 0.988)" fill="#595757"/>
          <path id="Path_4311" data-name="Path 4311" d="M41.977,39.906c.183-.171.276-.289-.59-1.58a21.515,21.515,0,0,1-1.75-3.208,8.957,8.957,0,0,1-.8-2.786c-.064-1,.5-2.155,1.718-2.014a3.075,3.075,0,0,1,2.369,2.172,10.91,10.91,0,0,1,.709,2.842,8.45,8.45,0,0,1-.217,3.5,10.073,10.073,0,0,1-.541,1.224.337.337,0,0,0,.028.4c.07.092.121.17.345.078a2.542,2.542,0,0,0,1.073-1.194,7.608,7.608,0,0,0,.605-4.018,11.581,11.581,0,0,0-.72-3.271,5.986,5.986,0,0,0-1.136-1.892,3.708,3.708,0,0,0-2.4-1.21,2.8,2.8,0,0,0-2.359.887,3.416,3.416,0,0,0-.819,2.021,7.125,7.125,0,0,0,.7,3.156,14.646,14.646,0,0,0,2.013,3.46c1.182,1.44,1.625,1.579,1.774,1.432" transform="translate(0.52 0.791)" fill="#595757"/>
          <path id="Path_4312" data-name="Path 4312" d="M45.7,46.276c-.088-.074-.225-.077-.293-.159a5.041,5.041,0,0,0-.3-.554,14.692,14.692,0,0,1-1.042-2,6.727,6.727,0,0,1-.486-1.733c-.095-.615.045-1.529.418-1.741.093-.051.172-.062.425.166a5.438,5.438,0,0,1,.636.846,6.654,6.654,0,0,1,.769,1.609,4.9,4.9,0,0,1,.183,2.089c-.149.9-.113,1.037.11,1.172.1.064.172.117.308.034a1.747,1.747,0,0,0,.557-.856,4.607,4.607,0,0,0,.106-2.7,7.125,7.125,0,0,0-.859-2.019,6.608,6.608,0,0,0-.828-1.127,2.087,2.087,0,0,0-.852-.546,1.56,1.56,0,0,0-1.257.151,2.316,2.316,0,0,0-.985,1.448,4.339,4.339,0,0,0-.1,1.321,6.47,6.47,0,0,0,.508,2,8.333,8.333,0,0,0,1.347,2.225,5.227,5.227,0,0,0,.546.551,1.06,1.06,0,0,0,.667.257.506.506,0,0,0,.475-.254c.039-.106,0-.157-.046-.187" transform="translate(-6.606 1.058)" fill="#595757"/>
          <path id="Path_4313" data-name="Path 4313" d="M32.006,48.071c-.111-.02-.226-.07-.332.059s-.077.516.214.84a4.349,4.349,0,0,0,1.452,1.153,3.238,3.238,0,0,0,1.687.342,2.568,2.568,0,0,0,2.087-1.28,1.574,1.574,0,0,0,.152-1.168,1.392,1.392,0,0,0-.489-.7,1.886,1.886,0,0,0-.564-.3,4.012,4.012,0,0,0-.88-.171,9.236,9.236,0,0,0-1.3-.053,5.648,5.648,0,0,0-1.55.23c-.643.221-.627.437-.6.652s.055.34.655.352c.3.009.746,0,1.412.028.333.018.72.047,1.168.111a3.363,3.363,0,0,1,.623.126c.192.07.219.128.2.107a.371.371,0,0,1-.049.143,1.216,1.216,0,0,1-.86.555,1.923,1.923,0,0,1-.963-.073,5.723,5.723,0,0,1-1.33-.691c-.352-.221-.4-.25-.467-.229s-.157-.006-.273-.035" transform="translate(14.193 1.28)" fill="#595757"/>
          <path id="Path_4314" data-name="Path 4314" d="M31.015,55.66c.241,0,.419-.028.625-.651a9.771,9.771,0,0,1,.564-1.39,4.568,4.568,0,0,1,.663-.973.749.749,0,0,1,.829-.3c.063.041.09.067.1.218a1.436,1.436,0,0,1-.109.547,5.27,5.27,0,0,1-.568,1.044,9.482,9.482,0,0,1-.976,1.142c-.47.474-.439.653-.33.87.095.2.162.36.867.015a4.8,4.8,0,0,0,1.418-1.19,5.628,5.628,0,0,0,.825-1.337,2.724,2.724,0,0,0,.24-1.116,1.6,1.6,0,0,0-.821-1.4,2,2,0,0,0-2.3.413,4.43,4.43,0,0,0-.876,1.241,4.952,4.952,0,0,0-.521,1.811c-.046.879.146,1.061.364,1.054" transform="translate(17.338 1.393)" fill="#595757"/>
          <path id="Path_4315" data-name="Path 4315" d="M36.874,57.319c.163-.178.267-.327-.055-.894A14.112,14.112,0,0,1,36.13,55.1a6.558,6.558,0,0,1-.379-1.155c-.106-.439-.174-1.073-.038-1.216a.253.253,0,0,1,.09-.083v0c.015.012-.029-.031.039.028a3,3,0,0,1,.214.238,8.21,8.21,0,0,1,.714.994c.365.6.563,1.043.725,1.338.306.6.5.607.733.564s.381-.058.276-.8a5.894,5.894,0,0,0-.575-1.669,7.508,7.508,0,0,0-.8-1.251c-.093-.113-.171-.219-.313-.366a1.5,1.5,0,0,0-.687-.414,1.35,1.35,0,0,0-.908.1,1.6,1.6,0,0,0-.65.563,2.057,2.057,0,0,0-.3,1.219,4.929,4.929,0,0,0,.123.874,6.39,6.39,0,0,0,.451,1.331,5.42,5.42,0,0,0,1.023,1.51c.609.6.864.58,1.008.415" transform="translate(10.246 1.403)" fill="#595757"/>
          <path id="Path_4316" data-name="Path 4316" d="M29.719,57.962c-.011.089.077-.267-.2-.129a.264.264,0,0,0-.122.205.456.456,0,0,0,.124.325,2.4,2.4,0,0,0,.391.329,4.164,4.164,0,0,0,1.743.595,5.762,5.762,0,0,0,3.538-.7,2.213,2.213,0,0,0,.573-.442,1.413,1.413,0,0,0,.356-.82,1.617,1.617,0,0,0-.529-1.313,2.644,2.644,0,0,0-1.684-.625,2.856,2.856,0,0,0-1.884.576c-.632.57-.424.787-.281.937.17.181.241.22.749-.012a2.778,2.778,0,0,1,1.279-.219,1.631,1.631,0,0,1,.878.309.3.3,0,0,1,.111.221c-.006.022.009-.005-.016.031a.94.94,0,0,1-.229.163,5.039,5.039,0,0,1-2.5.621,6.573,6.573,0,0,1-1.5-.2l-.428-.1L30.01,57.7a.067.067,0,0,0-.018,0l-.08.129c-.124.159-.088.122-.18.164.072.005-.01-.011-.009-.038s0,0,0,0" transform="translate(17.666 1.515)" fill="#595757"/>
          <path id="Path_4317" data-name="Path 4317" d="M44.672,54.02c.132-.217.151-.36-.243-.928a4.606,4.606,0,0,1-.632-1.5,7.162,7.162,0,0,1-.16-1.422,6.97,6.97,0,0,1,.016-.866,1.069,1.069,0,0,1,.071-.275h0l0,0a1.105,1.105,0,0,1,.232.222,5,5,0,0,1,.461.688,5.228,5.228,0,0,1,.481,1.275,7.428,7.428,0,0,1,.173,1.689c-.007.752.12.862.354.944.2.075.381.15.652-.7a4.963,4.963,0,0,0,.1-2.1,5.8,5.8,0,0,0-.54-1.689,5.906,5.906,0,0,0-.6-.939,2.449,2.449,0,0,0-.537-.516,1.41,1.41,0,0,0-1.074-.243l-.049.012a1.316,1.316,0,0,0-.789.577,1.978,1.978,0,0,0-.268.716,3.316,3.316,0,0,0-.052.575c0,.155.005.306.007.452a8.1,8.1,0,0,0,.187,1.589,4.245,4.245,0,0,0,.99,1.973c.774.754,1.134.643,1.216.463" transform="translate(-5.684 1.303)" fill="#595757"/>
          <path id="Path_4318" data-name="Path 4318" d="M47.933,54.531c-.059.1-.074.217-.126.309a.281.281,0,0,1-.111.1c-.014.013-.061.013-.049.016-.048-.025-.053-.006-.1,0l-.506.151a4.58,4.58,0,0,1-.856.152,3.425,3.425,0,0,1-1.159-.106,1.861,1.861,0,0,1-1.094-.709c-.086-.172-.065-.2-.042-.264a.806.806,0,0,1,.347-.269,3.033,3.033,0,0,1,1.091-.271,4.635,4.635,0,0,1,1.439.161c.625.177.776.1.929-.1.137-.163.272-.313-.417-.8a3.7,3.7,0,0,0-1.9-.547,4.007,4.007,0,0,0-1.662.31,2.109,2.109,0,0,0-.994.808,1.618,1.618,0,0,0,.014,1.647,2.539,2.539,0,0,0,.84.871,3.943,3.943,0,0,0,.88.407,4.189,4.189,0,0,0,1.553.175,4.062,4.062,0,0,0,1.9-.616,1.285,1.285,0,0,0,.551-.636.757.757,0,0,0-.071-.666c-.228-.3-.431-.213-.457-.117" transform="translate(-8.185 1.432)" fill="#595757"/>
          <path id="Path_4319" data-name="Path 4319" d="M48.806,49.881c.067-.216.133-.439-.458-.725-.283-.148-.751-.268-1.24-.522a1.524,1.524,0,0,1-.594-.562c-.133-.267-.14-.444.045-.625a2.141,2.141,0,0,1,1.931-.087,5.661,5.661,0,0,1,1.1.577c.464.316.641.272.846.142.186-.113.349-.2-.053-.808a3.5,3.5,0,0,0-1.33-1.068,3.916,3.916,0,0,0-1.4-.377,2.675,2.675,0,0,0-2.029.615,1.748,1.748,0,0,0-.561,1.078,1.859,1.859,0,0,0,.177,1.037,2.556,2.556,0,0,0,1.042,1.1,4.25,4.25,0,0,0,1.625.461c.679.064.818-.014.9-.238" transform="translate(-12.93 1.253)" fill="#595757"/>
          <path id="Path_4320" data-name="Path 4320" d="M29.6,45.892c.042.228.079.436.613.493a6.176,6.176,0,0,0,1.236-.042,9.587,9.587,0,0,0,1.057-.163,3.065,3.065,0,0,0,1.521-.781,2.042,2.042,0,0,0,.572-1.835,1.568,1.568,0,0,0-.44-.788,2.047,2.047,0,0,0-.536-.366,3.15,3.15,0,0,0-.839-.279,1.172,1.172,0,0,0-.782.13c-.379.242-.395.568-.324.679s.191.124.3.139c.279.034.229-.016.4.145-.014.006.089.022.588.3.214.126.292.216.308.312a.761.761,0,0,1-.232.61,3.389,3.389,0,0,1-1.613.595,12.382,12.382,0,0,0-1.214.3c-.556.177-.659.33-.616.559" transform="translate(18.947 1.152)" fill="#595757"/>
          <path id="Path_4321" data-name="Path 4321" d="M45.8,39.442c.143-.18.28-.351-.04-.771a9.091,9.091,0,0,0-.786-.8,2.9,2.9,0,0,1-.482-.6,1.338,1.338,0,0,1-.211-.781c.039-.459.556-.693.941-.757a2.868,2.868,0,0,1,.847-.006,1.175,1.175,0,0,0,.717-.072c.1-.049.191-.082.209-.2a.755.755,0,0,0-.353-.588,2.251,2.251,0,0,0-1.47-.419,2.658,2.658,0,0,0-1.229.351,2.053,2.053,0,0,0-1.023,1.537,2.49,2.49,0,0,0,.342,1.511,3.322,3.322,0,0,0,.706.856,5.361,5.361,0,0,0,1.048.712c.481.247.636.212.785.031" transform="translate(-7.094 0.942)" fill="#595757"/>
          <path id="Path_4322" data-name="Path 4322" d="M39.159,40.872c-.156-.172-.3-.327-.542-.311a3.036,3.036,0,0,0-1.138.558,5.576,5.576,0,0,0-.931.532.871.871,0,0,0-.234.579c-.029.23-.054.364.2.455a2.247,2.247,0,0,0,1.654-.38,3.191,3.191,0,0,0,1.082-.924c.121-.207.067-.338-.089-.51" transform="translate(7.386 1.109)" fill="#595757"/>
          <path id="Path_4323" data-name="Path 4323" d="M34.366,36.233a.761.761,0,0,0,.614.191,2.648,2.648,0,0,1,1.249-.1,2.636,2.636,0,0,1,.956.8.775.775,0,0,0,.612.213c.226,0,.382.012.411-.371a1.717,1.717,0,0,0-.236-.85,2.3,2.3,0,0,0-2.894-1.034,1.775,1.775,0,0,0-.729.519c-.255.344-.167.508.016.634" transform="translate(10.653 0.955)" fill="#595757"/>
          <path id="Path_4324" data-name="Path 4324" d="M40.155,39.075c-.177.15-.346.277-.235.631a3.151,3.151,0,0,0,1.812,1.543,3.155,3.155,0,0,0,2.351.22.51.51,0,0,0,.306-.609c-.017-.231-.034-.364-.305-.424a8.779,8.779,0,0,1-1.819-.451,8.769,8.769,0,0,1-1.521-.917c-.263-.165-.408-.142-.589.008" transform="translate(-1.382 1.066)" fill="#595757"/>
          <path id="Path_4325" data-name="Path 4325" d="M39.306,43.666a.659.659,0,0,0,.24.6c.208.181.629.271,1.324.753.648.517.864.89,1.1,1.041a.667.667,0,0,0,.648.07c.223-.062.355-.088.328-.417a3.437,3.437,0,0,0-3.214-2.467c-.364.046-.43.194-.423.421" transform="translate(0.662 1.183)" fill="#595757"/>
          <path id="Path_4326" data-name="Path 4326" d="M34.85,48.989a.914.914,0,0,0-.274.556c-.025.21.106.46.115.921-.031.449-.167.7-.155.906a.919.919,0,0,0,.24.575c.138.182.218.3.465.181A2.118,2.118,0,0,0,35.39,48.9a.343.343,0,0,0-.539.085" transform="translate(12.447 1.335)" fill="#595757"/>
          <path id="Path_4327" data-name="Path 4327" d="M37.586,54.377c-.048.227-.1.43.04.612.139.166.522.347,1.244.179.7-.2.95-.539.993-.755s-.1-.386-.255-.561-.247-.27-.375-.26-.3.13-.708.248c-.723.135-.83.051-.94.537" transform="translate(5.557 1.466)" fill="#595757"/>
          <path id="Path_4328" data-name="Path 4328" d="M35.553,53.96c.234-.029.428-.078.56-.488.072-.2.142-.5.289-.915a4.637,4.637,0,0,1,.9-1.546A4.089,4.089,0,0,1,38.7,50a2.553,2.553,0,0,1,.686-.18c.232-.051.451.007.663-.108.106-.046.194-.076.217-.192s-.026-.362-.378-.605a1.893,1.893,0,0,0-1.537-.156,4.485,4.485,0,0,0-2.069,1.338,4.324,4.324,0,0,0-1.207,3.2c.072.6.258.7.475.665" transform="translate(7.685 1.331)" fill="#595757"/>
          <path id="Path_4329" data-name="Path 4329" d="M45.2,59.039c.191-.119.4-.231.106-.911a5,5,0,0,0-1.026-1.411,3.389,3.389,0,0,0-1.383-.9,2.209,2.209,0,0,0-.574-.095,1.829,1.829,0,0,0-.677.113,1.778,1.778,0,0,0-1.09,1.071,1.493,1.493,0,0,0-.01.894,2.191,2.191,0,0,0,.3.595,3.888,3.888,0,0,0,.688.747,3.818,3.818,0,0,0,1.419.727,3.093,3.093,0,0,0,1.878-.033c.752-.316.64-.584.561-.777-.1-.231-.146-.294-.7-.249a3.508,3.508,0,0,1-1.309-.157,2.969,2.969,0,0,1-.953-.525,2.849,2.849,0,0,1-.44-.486c-.145-.215-.137-.287-.126-.3a.429.429,0,0,1,.216-.2.545.545,0,0,1,.342-.046,1.867,1.867,0,0,1,.808.411,11.405,11.405,0,0,1,1.105,1.043c.491.524.668.615.872.49" transform="translate(-3.05 1.525)" fill="#595757"/>
        </g>
      </g>
    </g>
  </g>
</svg>
