<svg id="Group_1689" data-name="Group 1689" xmlns="http://www.w3.org/2000/svg" xmlns:xlink="http://www.w3.org/1999/xlink" width="94.07" height="231.896" viewBox="0 0 94.07 231.896">
  <defs>
    <clipPath id="clip-path">
      <rect id="Rectangle_525" data-name="Rectangle 525" width="94.07" height="231.896" fill="none"/>
    </clipPath>
  </defs>
  <g id="Group_1230" data-name="Group 1230" clip-path="url(#clip-path)">
    <path id="Path_4112" data-name="Path 4112" d="M36.2,233.322a.887.887,0,0,0-.88-.88c-.918.077-1.909.085-2.873.171a3.159,3.159,0,0,0-2.176.4.864.864,0,0,0-.34,1.131.689.689,0,0,0-.213.855c.1.241.195.488.292.736a30.068,30.068,0,0,0,.779,4.215,8.279,8.279,0,0,1-1.831,3.073,9.728,9.728,0,0,0-2.134,4.416c-.1.592.393,1.344,1.083,1.083a16.421,16.421,0,0,0,7.053-5.731c2.037-2.633,1.236-6.306,1.241-9.469" transform="translate(-3.205 -27.785)" fill="#f2d5bd"/>
    <path id="Path_4113" data-name="Path 4113" d="M75.751,249.953c-1.671-.852-3.165-1.311-4.627-2.622a28.166,28.166,0,0,1-3.926-4.644.889.889,0,0,0-1.641.445c-.474,4.748,1.56,9.549,6.333,10.964,1.779,1.41,3.856,2.692,5.594,2.7a.9.9,0,0,0,.88-.88c.174-1.739-.964-5.123-2.614-5.965" transform="translate(-7.828 -28.96)" fill="#cab7a6"/>
    <path id="Path_4114" data-name="Path 4114" d="M71.549,231.626c-.122-.727-1.013-.749-1.471-.388a10.989,10.989,0,0,1-3.506,1.853.928.928,0,0,0-.134.072.89.89,0,0,0-1.388.92,37.16,37.16,0,0,0,4.541,10.465.888.888,0,0,0,1.641-.445c.232-4.048.992-8.461.316-12.477" transform="translate(-7.772 -27.614)" fill="#f2d5bd"/>
    <path id="Path_4115" data-name="Path 4115" d="M66.439,239.879a.619.619,0,0,1-.825-.094,7.386,7.386,0,0,1-1.43-2.717c-1.109-3.248-.613-3.442-.1-3.6.552-.168.558-.149,1.645,3.039,1.035,2.739,1.244,3.124.713,3.368" transform="translate(-7.593 -27.902)" fill="#595757"/>
    <path id="Path_4116" data-name="Path 4116" d="M73.3,239.81c.233-.151.445-.286,1.388.843.472.565,1.127,1.446,2.059,2.8a10.852,10.852,0,0,1,1.527,2.706,2.827,2.827,0,0,1-2.444,3.835,4.44,4.44,0,0,1-2.4-.43,10.163,10.163,0,0,1-1.653-.979,12.443,12.443,0,0,1-2.243-2.044,10.346,10.346,0,0,1-1.892-3.114c-.5-1.479-.208-1.625.032-1.714.278-.1.371-.121,1.037,1.087a14.5,14.5,0,0,0,1.9,2.642,12.368,12.368,0,0,0,2.037,1.785,4.808,4.808,0,0,0,2.965,1.144,1.514,1.514,0,0,0,1.006-.524,1.2,1.2,0,0,0,.18-.92,6.364,6.364,0,0,0-1.016-2.125c-.839-1.332-1.433-2.306-1.84-3.02-.814-1.428-.877-1.819-.644-1.97" transform="translate(-8.053 -28.654)" fill="#595757"/>
    <path id="Path_4117" data-name="Path 4117" d="M66.674,250c-.178.195-.355.434-.923.062a3.061,3.061,0,0,1-.956-1.237,6.059,6.059,0,0,1-.492-2.9,12.8,12.8,0,0,1,.449-2.673,3.217,3.217,0,0,1,.667-1.417.738.738,0,0,1,.641-.3.565.565,0,0,1,.315.243.537.537,0,0,1,.129.649,6.716,6.716,0,0,0-.232,1.071,23.109,23.109,0,0,0-.331,2.5,5.631,5.631,0,0,0,.66,3.136c.245.465.264.644.074.86" transform="translate(-7.685 -28.872)" fill="#595757"/>
    <path id="Path_4118" data-name="Path 4118" d="M75.222,243.027c.2-.188.387-.364,1.962,1.064a48.6,48.6,0,0,1,3.527,3.624c.4.452.828.962,1.258,1.537.415.555.891,1.159,1.348,1.9A6.648,6.648,0,0,1,84.34,253.9a4.82,4.82,0,0,1-.892,3.393,4.184,4.184,0,0,1-3.109,1.639,9.834,9.834,0,0,1-2.786-.385,7.263,7.263,0,0,1-1.229-.431l-.98-.5c-.622-.331-1.191-.651-1.705-.966a25.943,25.943,0,0,1-4.124-3.041c-1.594-1.507-1.445-1.78-1.272-1.978.192-.219.271-.3,1.941.932a46.391,46.391,0,0,0,4.113,2.69q.757.435,1.665.9l.954.468a5.252,5.252,0,0,0,.964.34,9.294,9.294,0,0,0,2.319.342,2.557,2.557,0,0,0,1.943-1,3.121,3.121,0,0,0,.593-1.955,4.326,4.326,0,0,0-.531-1.888,13.266,13.266,0,0,0-1.051-1.65l-.554-.762-.514-.677c-1.4-1.738-2.515-2.963-3.274-3.867-1.542-1.8-1.793-2.291-1.587-2.481" transform="translate(-8.145 -29.036)" fill="#595757"/>
    <path id="Path_4119" data-name="Path 4119" d="M70.439,49.254C69,46.773,66.23,46.737,63.747,47.291c.328-4.325-.127-8.988-2.371-12.756-2.111-3.546-6.22-4.909-9.972-6.094C44.042,26.118,33.3,26.148,27.387,32a.9.9,0,0,0-.8.254c-4.51,4.338-5.1,10.068-4.534,15.832a.927.927,0,0,0-.333-.233c-2.674-1.151-4.935,1.014-4.751,3.768.2,3.044,2.752,6.242,5.33,7.679a.957.957,0,0,0,.684.081,10.342,10.342,0,0,0,3.193,5.093C29.605,67.425,34.034,67.995,38.4,68a7.469,7.469,0,0,1,.231,3.651A5.95,5.95,0,0,0,38.986,74c.261.979-.107,3.1,1.612,2.921.705-.074,1.324-.8,1.846-1.2L45.538,73.3c.761-.593,2.1-1.281,2.547-2.167.414-.829.058-2.02-.04-2.879,4.289-.836,8.652-1.873,12.272-4.413a21.585,21.585,0,0,0,3.525-3.289c1.618-1.771,3.534-3.149,5.166-4.881s2.7-4.219,1.43-6.42M22.486,57.095c-.154-.112-.294-.235-.438-.356a.828.828,0,0,0,.025-.591c-.086-.258-.176-.516-.266-.774a.846.846,0,0,0,.542.272c.042.485.083.97.152,1.447l-.016,0" transform="translate(-2.028 -3.228)" fill="#f2d5bd"/>
    <path id="Path_4120" data-name="Path 4120" d="M36.113,72.8c-1.4-.209-2.864-.446-4.308-.773a40.77,40.77,0,0,1-6.468-3.668,19.391,19.391,0,0,1-3.781-4.645.915.915,0,0,0-1.156-.4,4.974,4.974,0,0,0-1.955-1.1c.372-1.2-1.512-1.715-1.884-.518-.733,2.36-4.466,4.273-3.876,6.966.374,1.706,1.8,1.931,3.348,2.077,2.137.2,4.3-.056,6.412.516,2.064.561,3.429,1.988,5.2,2.944,2.729,1.472,5.479,1.183,8.466.482.888-.209.973-1.738,0-1.883" transform="translate(-1.509 -7.294)" fill="#a19285"/>
    <path id="Path_4121" data-name="Path 4121" d="M79.226,61.37c-.226-2.809-1.249-5.184-.843-8.191.2-1.48.576-2.305-.332-3.729-.643-1.007-1.868-1.546-2.64-2.424C72.03,43.172,74,41.412,74.215,37.9a15.6,15.6,0,0,0-1.22-6.488c.332-3.078-4.135-8.9-5.36-10.581a20.632,20.632,0,0,0-10.88-7.384,4.749,4.749,0,0,0,2.922-5.27,5.379,5.379,0,0,0-.243-.976.912.912,0,0,0,.083-.662C58.47,2.252,54.159.862,50.1,1.526c-5.725-.142-11.7,3.886-8.592,10.352a.926.926,0,0,0,.1.136c-8.724.913-17.41,4.826-19.219,13.531a.941.941,0,0,0,.313.928,8.362,8.362,0,0,0,.549,1.831c-.076.071-.158.136-.232.209a.92.92,0,0,0,.164,1.456,12.227,12.227,0,0,0-2.658,2.25.885.885,0,0,0-.1.059,10.134,10.134,0,0,0-3.46,7.875c.087,2.464.857,4.441,3.619,4.106a1,1,0,0,0,.942-1.236c-.619-4.386.978-8.461,3.453-12.01a.81.81,0,0,0,.057-.873.993.993,0,0,0,.593-1.317c4.907-3.915,12.132-5.322,18.241-4.844,6.915.541,15.272,2.933,18.693,9.452a1,1,0,0,0,.118.419,13.592,13.592,0,0,1,1.464,9.283,1.014,1.014,0,0,0,.38,1.032,1.248,1.248,0,0,1,1.1-.5c3.308.438,7.474,3.67,4.931,7.256a1.487,1.487,0,0,1-1.116.647,7.125,7.125,0,0,1-.794.726q-1.3,1.129-2.6,2.25a23.765,23.765,0,0,0-2.358,2.8c-2.9,3.79-7.864,7.158-12.736,7.712a1.006,1.006,0,0,0-.847.67c-.136-.011-.272-.026-.409-.036-1.254-.1-1.247,1.852,0,1.953a102.666,102.666,0,0,0,10.272.785c3.167-.048,6.228,1.044,9.4.61,4.8-.656,10.343-1.6,9.855-7.67" transform="translate(-2.027 -0.164)" fill="#a19285"/>
    <path id="Path_4122" data-name="Path 4122" d="M46.353,64.375a1.006,1.006,0,0,0-1.3.309,2.188,2.188,0,0,0-1.02-.264.977.977,0,0,0,0,1.954c.136,0,.26.124.374.19a3.009,3.009,0,0,0,.667.307,1.564,1.564,0,0,0,1.485-.3,1.365,1.365,0,0,0-.208-2.2" transform="translate(-5.151 -7.682)" fill="#fff"/>
    <path id="Path_4123" data-name="Path 4123" d="M38.712,71.684c-.881-.113-2.111-.234-3.759-.575A20.058,20.058,0,0,1,28.9,68.738c-.663-.4-1.329-.789-1.85-1.177a6.662,6.662,0,0,1-1.32-1.233,10.073,10.073,0,0,1-1.519-2.552,17.813,17.813,0,0,1-.983-3.515c-.254-1.533-.308-1.521-.542-1.52-.2,0-.466.066-.4,1.743a13.009,13.009,0,0,0,.857,3.839,10.262,10.262,0,0,0,1.668,2.869,7.98,7.98,0,0,0,1.532,1.429c.6.437,1.22.806,1.916,1.222a19.642,19.642,0,0,0,7.129,2.569,23.246,23.246,0,0,0,3.251.276c-.228.171-.37.6-.341,1.7a3.125,3.125,0,0,1-.071.7,2.034,2.034,0,0,0-.059.332,1.4,1.4,0,0,0,.087.622c.063.213.206.361.593.179a1.425,1.425,0,0,0,.574-.6,2.581,2.581,0,0,0,.265-1.218c-.029-1.14-.07-1.565-.2-1.724,1.356-.062,1.377-.257,1.385-.457.011-.225-.387-.337-2.157-.533" transform="translate(-2.663 -7.022)" fill="#595757"/>
    <path id="Path_4124" data-name="Path 4124" d="M69.139,38.612s-.066-.19-.2-.486-.313-.71-.519-1.178a15.5,15.5,0,0,0-1.7-2.843c-1.231-1.572-2.432-2.051-2.657-1.338-.291.724,1.024,1.053,2.421,3.234a16.529,16.529,0,0,1,1.043,1.968,16.677,16.677,0,0,1,.918,2.313,11.99,11.99,0,0,1,.607,3.645c-.033,1.242.171,3.261.829,2.8.357-.241.554-2.316.254-4.3a16.777,16.777,0,0,0-1-3.815" transform="translate(-7.653 -3.878)" fill="#595757"/>
    <path id="Path_4125" data-name="Path 4125" d="M76.431,50.643a4.806,4.806,0,0,0-5.5-.88c-1.162.6-1.05.807-.935.956.137.2.254.238,1.356-.086a4.8,4.8,0,0,1,2.515-.074A3.956,3.956,0,0,1,75.6,51.59l.416.456c.1.173.207.351.315.536s.143.412.227.624c.041.225.069.461.091.706a5.585,5.585,0,0,1-.8,2.67,12.252,12.252,0,0,1-1.313,1.82A18.02,18.02,0,0,1,72.566,60.3a4.949,4.949,0,0,0-.759.7.325.325,0,0,0-.025.345c.016.058.076.1.182.114a3.77,3.77,0,0,0-.205,2,3.572,3.572,0,0,0,.977,1.833c.508.54,1.147,1.11,1.715,1.807a1.416,1.416,0,0,1,.409,1,1.875,1.875,0,0,1-.423.9c-.1.142-.217.27-.32.4s-.234.309-.334.461a1.752,1.752,0,0,0-.217,1.055,2.335,2.335,0,0,0,.735,1.367,4.267,4.267,0,0,0,.766.607c.871.512.947.362.993.268.07-.118-.153-.234-.944-.91a3.734,3.734,0,0,1-.6-.675,1.334,1.334,0,0,1-.267-1.023,1.35,1.35,0,0,1,.309-.588,9.952,9.952,0,0,0,.617-.787,2.145,2.145,0,0,0,.4-1.213,2.315,2.315,0,0,0-.564-1.293c-.655-.8-1.3-1.354-1.8-1.888a2.951,2.951,0,0,1-.807-1.5,3.653,3.653,0,0,1,.224-1.967,6.274,6.274,0,0,0,.853-.457,11.4,11.4,0,0,0,2.273-2.015A10.133,10.133,0,0,0,77.1,56.894a6.815,6.815,0,0,0,.685-1.827c.01.1.178.222.913.742a4.317,4.317,0,0,1,.738.7,2.015,2.015,0,0,1,.5,1.258,5.451,5.451,0,0,1-.7,1.92c-.186.378-.4.78-.6,1.249a3.038,3.038,0,0,0-.283,1.714,2.954,2.954,0,0,0,.913,1.521,7.863,7.863,0,0,0,1.143.886,8.436,8.436,0,0,1,1.694,1.3,2.094,2.094,0,0,1,.306,2.212c-.389,1.005-.365,1.056-.244,1.125.05.033.125,0,.276-.188a3.451,3.451,0,0,0,.615-1.161,2.543,2.543,0,0,0,.108-1.278,2.757,2.757,0,0,0-.91-1.508A16.336,16.336,0,0,0,80.541,64.3a3.309,3.309,0,0,1-1.492-1.779,2.393,2.393,0,0,1,.247-1.337c.186-.433.4-.843.591-1.235s.36-.767.5-1.126a2.786,2.786,0,0,0,.213-1.148,2.6,2.6,0,0,0-.753-1.633,4.347,4.347,0,0,0-.9-.714c-.954-.519-1.09-.439-1.131-.352a5.31,5.31,0,0,0,.112-1.084,4.523,4.523,0,0,0-1.491-3.246" transform="translate(-8.359 -5.89)" fill="#595757"/>
    <path id="Path_4126" data-name="Path 4126" d="M17.954,58.362a7.732,7.732,0,0,0,2.2,1.663c1.072.448,1.155.252,1.263.049.115-.22-.092-.426-1.02-1.138a10.176,10.176,0,0,1-1.764-1.745,7.3,7.3,0,0,1-1.532-3.88,5.385,5.385,0,0,1,.408-2.522,3.842,3.842,0,0,1,1.12-1.454,3.175,3.175,0,0,1,2.01-.68c.157.006.28.011.389.012.078.6.152,1.128.2,1.6.163,1.372.264,2.28.292,2.854s-.012.854.036,1.04a.289.289,0,0,0,.247.237c.106.027.205-.011.344-.236A3.135,3.135,0,0,0,22.5,52.7a23.964,23.964,0,0,0-.127-3.053c-.1-1.347-.389-3.037-.375-5.122a16.225,16.225,0,0,1,.914-5.4,13.075,13.075,0,0,1,1.225-2.5c.641-.975.6-.977.44-1.159-.122-.151-.368-.321-1.268.659a9.153,9.153,0,0,0-1.547,2.653,15.828,15.828,0,0,0-1.041,5.732,28.193,28.193,0,0,0,.192,3.185c-.086-.023-.168-.048-.272-.067a3.61,3.61,0,0,0-2.032.265c-.083-.147-.184-.336-.3-.584a7.681,7.681,0,0,1-.539-2.118A12.863,12.863,0,0,1,19.014,40.6a10.889,10.889,0,0,1,2.04-2.813,11.364,11.364,0,0,1,1.361-1.16c.612-.439.588-.462.534-.581-.044-.1-.14-.219-.867.16a7.262,7.262,0,0,0-1.531,1.139,10.6,10.6,0,0,0-2.171,2.935,10.443,10.443,0,0,0-.7,1.762c0-.092.008-.173.011-.267a12.511,12.511,0,0,1,.187-1.266,7.6,7.6,0,0,1,2.28-4.039,10.611,10.611,0,0,1,1.979-1.436c.912-.5.878-.556.814-.78-.05-.19-.175-.435-1.3-.055A7.628,7.628,0,0,0,19.3,35.639a8.382,8.382,0,0,0-2.661,4.6c-.7,4.582.263,6.944,1.044,7.9.062.074.119.126.177.184-.021.015-.041.026-.063.041a4.917,4.917,0,0,0-1.527,1.921,6.559,6.559,0,0,0-.519,3.115,8.078,8.078,0,0,0,2.207,4.959" transform="translate(-1.88 -4.064)" fill="#595757"/>
    <path id="Path_4127" data-name="Path 4127" d="M32.778,74.916c-.4.029-.851.043-1.356.042a1.936,1.936,0,0,0,.293-.346,1.365,1.365,0,0,0,.21-1.055,1.125,1.125,0,0,0-.218-.493c-.144-.171-.217-.129-.306-.053a.341.341,0,0,0-.155.322,1.259,1.259,0,0,1-.128.895,4.5,4.5,0,0,1-.733.707c-.314-.013-.654-.034-1.005-.061a2.856,2.856,0,0,0,.34-.269,2.893,2.893,0,0,0,.239-.273c.064-.122.128-.256.188-.4a1.654,1.654,0,0,0-.081-1.01,3.754,3.754,0,0,0-1.048-1.374,4.354,4.354,0,0,0-.682-.505c-.312-.175-.357-.114-.419-.012s-.107.2.121.457c.113.131.294.306.548.568a3.744,3.744,0,0,1,.819,1.123.893.893,0,0,1-.238,1.051c-.133.1-.241.193-.33.275s-.188.124-.253.177a.928.928,0,0,0-.122.115c-.405-.04-.822-.085-1.27-.141-1.263-.157-2.638-.391-4.295-.717h0c.039-.021.064-.033.107-.057a4.012,4.012,0,0,0,1.09-1.045,1.929,1.929,0,0,0,.33-1.22,2.6,2.6,0,0,0-.637-1.405c-.8-.929-1.618-1.4-1.889-1.808a.694.694,0,0,1,.066-.871c.31-.377.314-.4.239-.509-.053-.085-.164-.235-.67.192a1.292,1.292,0,0,0-.35.566,1.236,1.236,0,0,0,.178,1.017c.454.645,1.2,1.051,1.879,1.864a1.438,1.438,0,0,1,.167,1.99,3.238,3.238,0,0,1-.5.555,3.735,3.735,0,0,1-.388.355,1.579,1.579,0,0,0-.29.309c-.216-.022-.428-.055-.649-.066a3.566,3.566,0,0,0,.455-.589,3,3,0,0,0,.337-2.448,2.561,2.561,0,0,0-.447-.825,2.88,2.88,0,0,0-.817-.647c-.6-.342-1.278-.618-1.964-1.012-.785-.437-1.344-.975-1.417-1.535a1.651,1.651,0,0,1,.477-1.4,4.237,4.237,0,0,1,1.794-.939c.869-.232.866-.249.854-.382-.007-.106-.056-.268-1.037-.123a4.816,4.816,0,0,0-.91.253,3.433,3.433,0,0,0-1.223.77,2.336,2.336,0,0,0-.641,1.978A3.154,3.154,0,0,0,18.786,68.9c.845.479,1.622.777,2.184,1.131a1.814,1.814,0,0,1,.841,1.275,2.849,2.849,0,0,1-.421,1.925c-.16.276-.278.447-.35.566-.292-.005-.583-.016-.884-.008-.478.012-.966.041-1.465.083l-1.16.115h0l.021-.08a2.212,2.212,0,0,0,.054-.471,2.154,2.154,0,0,0-.063-.539,3.449,3.449,0,0,0-2.53-2.228,3.82,3.82,0,0,1-1.754-1.228,3.075,3.075,0,0,1-.586-1.683,1.307,1.307,0,0,1,.073-.667,2.187,2.187,0,0,1,.365-.585,8.115,8.115,0,0,1,1.009-.993,21.625,21.625,0,0,0,1.739-1.536,2.949,2.949,0,0,0,.738-1.44,1.951,1.951,0,0,0-.009-.842c-.1-.344-.212-.337-.309-.306s-.179.087-.252.39a2.823,2.823,0,0,1-.952,1.62c-.422.365-1.04.783-1.785,1.374a7.726,7.726,0,0,0-1.183,1.136,3.205,3.205,0,0,0-.521.924,2.213,2.213,0,0,0-.113.622,5.422,5.422,0,0,0,.016.547,4.245,4.245,0,0,0,.873,2.3,5.16,5.16,0,0,0,2.3,1.582,3.852,3.852,0,0,1,1.083.522,1.351,1.351,0,0,1,.564.82,1.2,1.2,0,0,1,.023.238l-.014.118a1.4,1.4,0,0,1-.082.225c-.04.052.017.063-.1.149l-.317.243-.32.243c-.069.074-.033.126-.054.19-.015.12-.035.268-.036.313s-.021.168,0,.161c.033.057.055.02.068-.01.041-.011.045.16.129.215.15.174.761.122,1.337.038l1.226-.144L19,75.126q.812-.062,1.568-.072a12.286,12.286,0,0,1,2.773.247,46.7,46.7,0,0,0,4.707.654,18.764,18.764,0,0,0,5.732-.2,3.666,3.666,0,0,0,1.961-.929c.213-.241.143-.319.079-.406-.18-.243-.482.285-3.039.5" transform="translate(-1.371 -7.336)" fill="#595757"/>
    <line id="Line_411" data-name="Line 411" transform="translate(75.759 65.723)" fill="#595757"/>
    <path id="Path_4128" data-name="Path 4128" d="M80.322,63.192a5.406,5.406,0,0,0,.13-2.81,3.737,3.737,0,0,0-.614-1.29,7.722,7.722,0,0,1-.639-.872,2.774,2.774,0,0,1-.328-1.739,13.315,13.315,0,0,1,.351-1.9c.145-.617.337-1.216.444-1.9a4.787,4.787,0,0,0-.082-1.986,5.264,5.264,0,0,0-.784-1.647,26.461,26.461,0,0,0-1.9-2.227,11.645,11.645,0,0,1-1.379-1.77,7.434,7.434,0,0,1-.83-3.107,22.468,22.468,0,0,1,.081-3.1,1.119,1.119,0,0,0-.02-.356c.011-.033.025-.062.035-.1q.085-.279.173-.571a2.723,2.723,0,0,0,.051-.734c0-.423,0-.864,0-1.326a22.2,22.2,0,0,0-.225-3.014,24.008,24.008,0,0,0-2.248-7.323,25.544,25.544,0,0,0-6.179-7.946A28.24,28.24,0,0,0,59,12.955a2.251,2.251,0,0,0,.251-.217l.564-.52c.176-.227.362-.492.568-.784a6.023,6.023,0,0,0,0-5.872,9.991,9.991,0,0,0-2.846-3.473A10.252,10.252,0,0,0,55.2.719,10.778,10.778,0,0,0,52.247.036C47.389-.3,43.833,1.809,42.253,4.107,40.708,6.461,40.684,8.556,41.159,9.8a4.029,4.029,0,0,0,.7,1.163c-.372.039-.745.077-1.108.129a24.6,24.6,0,0,0-10.154,3.628,22.273,22.273,0,0,0-3.343,2.619,17.82,17.82,0,0,0-1.3,1.333,10.981,10.981,0,0,0-1.068,1.337,10.349,10.349,0,0,0-1.963,4.946,8.514,8.514,0,0,0,.295,3.25,6.869,6.869,0,0,0,.659,1.539c.377.6.49.547.569.488.1-.067.119-.153-.107-.836a11.309,11.309,0,0,1-.405-1.589,8.492,8.492,0,0,1-.008-3.027,9.656,9.656,0,0,1,1.4-3.465,6.488,6.488,0,0,0-.118,1.281,3.469,3.469,0,0,0,.644,2.121l.25.3.257.193a1.182,1.182,0,0,0,.407.225c.461.156.492.048.539-.062s-.022-.229-.4-.466a3.62,3.62,0,0,1-.612-.7,3.47,3.47,0,0,1-.38-1.619,7.711,7.711,0,0,1,.256-1.934c.08-.327.152-.571.208-.762a19.375,19.375,0,0,1,2.014-2.034,7.6,7.6,0,0,0-.954,3.528,7.156,7.156,0,0,0,.387,2.305,4.122,4.122,0,0,0,.831,1.588,3.476,3.476,0,0,0,.818.689,10.742,10.742,0,0,0-3.281,3.207c-.59,1-.541,1.544-.082,1.438.474-.077.928-.716,1.941-1.742a14.556,14.556,0,0,1,5.316-3.452,22.059,22.059,0,0,1,4.853-1.137,42.323,42.323,0,0,1,5.638-.12,29.82,29.82,0,0,1,8.276,1.352c1.315.464,3.038,1.1,4.267,1.661.612.284,1.119.519,1.439.623s.482.034.343-.269a7.247,7.247,0,0,0-2.708-2A23.175,23.175,0,0,0,49.54,23.6a43.775,43.775,0,0,0-8.64-.69s-.431-.01-1.16.031a25.685,25.685,0,0,0-2.9.286c-.516.075-1.057.185-1.606.317a.7.7,0,0,0-.195-.144,5.3,5.3,0,0,1-.937-.635,2.9,2.9,0,0,1-.987-2.117,6.774,6.774,0,0,1,1.422-4.082,10.878,10.878,0,0,1,3.807-3.088,19.119,19.119,0,0,1,2.361-1.008c.2-.069.351-.122.481-.169.6-.078,1.227-.136,1.862-.181l-.069.041a8.781,8.781,0,0,0-2.305,2.1,8,8,0,0,0-1.4,2.847,5.99,5.99,0,0,0-.189,1.612c.025.683.135.68.254.683s.2-.158.3-.872a8.394,8.394,0,0,1,1.6-3.84,9.059,9.059,0,0,1,2.146-2c.242-.162.449-.29.637-.4a6.1,6.1,0,0,0-1.116,1.338,7.2,7.2,0,0,0-.858,2.052A4.614,4.614,0,0,0,41.88,16.8c-.011.478.1.49.217.509s.209-.084.34-.575A9.741,9.741,0,0,1,43.511,14a5.093,5.093,0,0,1,2.072-1.978c.632,0,1.274,0,1.932.03,1.481.068,3.045.174,4.636.39a7.1,7.1,0,0,1,1.1,1.275,4.566,4.566,0,0,1,.766,3.131,9.344,9.344,0,0,1-1.154,3.225c-.416.742-.747,1.207-.961,1.522-.438.623-.387.681-.3.775s.3.013.9-.659a9.784,9.784,0,0,0,1.1-1.59,8.964,8.964,0,0,0,1.118-3.2,5.069,5.069,0,0,0-.956-3.635,5.914,5.914,0,0,0-.6-.7c.516.087,1.033.18,1.551.3.172.041.334.1.5.138A9.1,9.1,0,0,1,56.4,14.272a5.121,5.121,0,0,1,1.131,3.774,7.314,7.314,0,0,1-1.73,3.732A13.2,13.2,0,0,1,54.238,23.3c-.721.582-.7.642-.636.759.049.1.33.083,1.238-.537A8.924,8.924,0,0,0,56.567,21.9a7.515,7.515,0,0,0,1.67-3.774A5.645,5.645,0,0,0,56.879,13.8c-.135-.158-.261-.289-.387-.419A24,24,0,0,1,61.509,15.6a27.711,27.711,0,0,1,3.766,2.621c.036.106.085.234.151.4a7.816,7.816,0,0,1,.475,1.749,6.121,6.121,0,0,1-.431,3.363,9.326,9.326,0,0,1-2.009,2.89c-.314.3-.562.574-.787.779s-.417.359-.562.494c-.578.538-.519.63-.451.728s.266.035,1.015-.485a11.835,11.835,0,0,0,1.5-1.276,9.421,9.421,0,0,0,1.947-2.858,6.486,6.486,0,0,0,.423-3.8,6.659,6.659,0,0,0-.318-1.13c.132.125.275.245.4.372A23.956,23.956,0,0,1,68.86,21.9a9.038,9.038,0,0,1-.2,1.233,7.765,7.765,0,0,1-1.021,2.4,10.317,10.317,0,0,1-1.745,2.028c-.49.442-.827.728-1.058.916-.446.4-.393.492-.329.593s.225.077.821-.279a9.37,9.37,0,0,0,2.91-2.876,7.566,7.566,0,0,0,1.084-2.688A6.176,6.176,0,0,0,69.4,22.6a23.445,23.445,0,0,1,2.953,5.36,20.66,20.66,0,0,1,1,3.263l0,.008c-.144.366-.35.911-.711,1.691a15.928,15.928,0,0,1-1.789,2.992A15.075,15.075,0,0,1,66.9,39.488c-.642.433-.6.534-.548.642s.254.078,1.07-.314a12.407,12.407,0,0,0,3.993-3.473,14.6,14.6,0,0,0,1.857-3.2c.124-.3.219-.553.3-.79.106.616.186,1.207.25,1.77a13.5,13.5,0,0,1-1.137,2.96A9.929,9.929,0,0,1,70.364,39.9c-.4.358-.347.456-.285.558s.21.088.766-.236a7.654,7.654,0,0,0,2.462-2.81,13.065,13.065,0,0,0,.643-1.442c.005.221.011.456.015.667q.009.346.017.675a.975.975,0,0,1,0,.222l-.08.3a12.227,12.227,0,0,1-.742,2.051A8.89,8.89,0,0,1,71.464,42.3c-.511.523-.888.848-1.129,1.079-.489.454-.439.538-.378.63s.394,0,1.32-.63A8.647,8.647,0,0,0,73,41.8a8.491,8.491,0,0,0,.821-1.2,12.855,12.855,0,0,0-.07,1.606,7.685,7.685,0,0,0,.948,3.6,14.964,14.964,0,0,0,1.507,1.956A19.309,19.309,0,0,1,77.933,49.9a3.608,3.608,0,0,1,.49,2.782c-.108.513-.3,1.149-.453,1.783a12.189,12.189,0,0,0-.361,2.088,3.9,3.9,0,0,0,.573,2.429c.205.347.546.726.689.934a2.549,2.549,0,0,1,.364.854,4.209,4.209,0,0,1-.151,2.11,7.567,7.567,0,0,1-.432,1.1,2.547,2.547,0,0,0-.262.829,2.032,2.032,0,0,0,0,.49,2.142,2.142,0,0,0,.048.245l.035.119.019.055h-.013q-.366,0-.726.025a10.58,10.58,0,0,0-1.417.186c-.22.041-.438.094-.653.156-.036-.073-.093-.167-.183-.311a2.9,2.9,0,0,1-.326-.708,1.238,1.238,0,0,1,.2-1.112l.018-.026.008-.018a6.85,6.85,0,0,0,.449-1.053,2.063,2.063,0,0,0-.012-1.529,2.672,2.672,0,0,0-1.349-1.14c-.524-.257-1.078-.489-1.622-.814a4.356,4.356,0,0,1-1.83-1.846,2.724,2.724,0,0,1-.059-1.874,7.005,7.005,0,0,1,1.157-2.144c.65-.83.639-.837.547-.937-.07-.078-.215-.171-1,.649a6.147,6.147,0,0,0-1.359,2.315,3.318,3.318,0,0,0,.094,2.309,4.99,4.99,0,0,0,2.09,2.139c.6.357,1.187.6,1.683.842a2.032,2.032,0,0,1,1.028.812,1.459,1.459,0,0,1-.013,1.039,6.956,6.956,0,0,1-.369.939l.025-.04a1.762,1.762,0,0,0-.332,1.065,1.969,1.969,0,0,0,.2.79,2.294,2.294,0,0,0,.561.726c.022.018.033.022.053.036a12.849,12.849,0,0,0-1.56.644,12.949,12.949,0,0,1-4.2,1.372,15.061,15.061,0,0,1-3.849-.032c-.877-.124-1.734-.272-2.561-.394-.111-.132-.233-.285-.378-.476a4.89,4.89,0,0,1-.782-1.4,1.981,1.981,0,0,1,.071-1.577,2.6,2.6,0,0,1,.515-.67c.267-.256.239-.288.181-.4s-.131-.217-.538,0a2.1,2.1,0,0,0-.76.78,2.541,2.541,0,0,0-.145,2.081,4.832,4.832,0,0,0,.867,1.523,19.233,19.233,0,0,0-5.346-.013,8.947,8.947,0,0,1-3.388-.123l-1.159-.286a3.525,3.525,0,0,0-1-.195,2.651,2.651,0,0,0-1.093.174c-.028-.061-.12-.257-.192-.46-.18-.525-.193-.806-.281-.941a.249.249,0,0,0-.051-.057l.084,0a23.205,23.205,0,0,0,3.885-.561,21.824,21.824,0,0,0,6.3-2.636c.7-.409,1.328-.818,1.918-1.2.3-.227.6-.438.87-.662.252-.245.507-.471.728-.711a9.932,9.932,0,0,0,1.794-2.813,13.072,13.072,0,0,0,1.008-3.784c.139-1.638-.063-1.663-.26-1.66-.235,0-.357.065-.707,1.6a17.169,17.169,0,0,1-1.177,3.437,9.417,9.417,0,0,1-1.625,2.413l-.625.589-.738.544c-.571.368-1.178.759-1.837,1.146a22.211,22.211,0,0,1-6.567,2.715c-1.7.385-2.865.539-3.641.668-1.558.245-1.558.424-1.547.645.007.159.265.282,1.248.288a.429.429,0,0,0-.107.1,1.523,1.523,0,0,0,.018,1.347,2.186,2.186,0,0,0,.512.852.873.873,0,0,0,.714.264c.41-.119.263-.387.212-.592l0-.006c.14-.006.313-.015.566-.017a3.316,3.316,0,0,1,1.329.308,12.012,12.012,0,0,0,2.642.694,9.783,9.783,0,0,0,1.845.039c.706-.063,1.3-.161,2.039-.161a28.167,28.167,0,0,1,5.134.486,17.547,17.547,0,0,0,7.15.181,18.135,18.135,0,0,0,4.015-1.528,7.653,7.653,0,0,1,2.014-.611A10.01,10.01,0,0,1,78,67.014L78.282,67l.365,0a1.122,1.122,0,0,0,.994-.456,1.148,1.148,0,0,0,.09-1.173c-.14-.357-.085-.475.083-.855a8.541,8.541,0,0,0,.509-1.325M59.907,9.807a6.525,6.525,0,0,1-.339,1.035l-.454.767a11.621,11.621,0,0,1-.916,1.019c-.768-.289-1.572-.538-2.4-.76a3.144,3.144,0,0,0,.648-.309,5.993,5.993,0,0,0,2-1.764,6.741,6.741,0,0,0,1.143-2.68c.018-.1.028-.179.042-.266.007.018.018.039.026.058a5.091,5.091,0,0,1,.254,2.9m-.755-3.972c-.044.286-.106.667-.228,1.182a6.733,6.733,0,0,1-1.057,2.363,6.082,6.082,0,0,1-1.83,1.644,4.164,4.164,0,0,0,.514-.575,7.035,7.035,0,0,0,1.411-3,7.2,7.2,0,0,0-.2-3.475,8.741,8.741,0,0,1,1.391,1.856M56.767,3.078c.1.272.214.6.328,1a7.062,7.062,0,0,1,.172,3.245,7,7,0,0,1-1.425,2.96c-.274.308-.5.564-.69.779l-.509.487-.031.033c-.307-.066-.61-.122-.913-.176.026-.027.05-.049.078-.079a6.308,6.308,0,0,0,1.075-1.8,8.542,8.542,0,0,0,.518-3.582,6.666,6.666,0,0,0-2.11-4.464,8.714,8.714,0,0,1,3.509,1.605m-4.631-1.77c.026,0,.051.007.077.01A8.373,8.373,0,0,1,53.45,2.664,6.533,6.533,0,0,1,54.661,5.99a8.809,8.809,0,0,1-.13,2.085,5.926,5.926,0,0,1-.428,1.5,7.2,7.2,0,0,1-.934,1.624l-.068.084a44.215,44.215,0,0,0-4.9-.466l-.149-.092a6.906,6.906,0,0,1-1.5-1.3,6.529,6.529,0,0,1-1.4-3.108,3.942,3.942,0,0,1,.936-3.42,6.259,6.259,0,0,1,.953-.873,11.965,11.965,0,0,1,1.886-.541,4.488,4.488,0,0,0-.432.729,6.254,6.254,0,0,0-.52,2.988A9.967,9.967,0,0,0,48.6,8.173a7.454,7.454,0,0,0,.638,1.4c.328.561.424.512.534.46s.108-.225-.135-.888c-.136-.327-.283-.792-.489-1.431a10.724,10.724,0,0,1-.462-2.543,6.03,6.03,0,0,1,.437-2.723,4.871,4.871,0,0,1,.656-1.1,11.272,11.272,0,0,1,2.361-.044M43.661,4.645a7.762,7.762,0,0,1,.367-.748,8.212,8.212,0,0,1,1.137-.889,4.736,4.736,0,0,0-.545,1.057,4.468,4.468,0,0,0-.165,2.39,6.808,6.808,0,0,0,1.852,3.694c.12.116.231.205.344.3-.35-.157-.772-.417-1.345-.757A4.826,4.826,0,0,1,43.5,7.61a4.047,4.047,0,0,1,.162-2.965M42.034,9.374A4.4,4.4,0,0,1,42.059,7.4a7.712,7.712,0,0,1,.563-1.573,4.3,4.3,0,0,0,.214,2.036A5.143,5.143,0,0,0,45.205,10.4c.261.136.48.256.684.357q-1.617,0-3.131.119a3.966,3.966,0,0,1-.725-1.5m-8.065,6.775a8.076,8.076,0,0,0-1.324,2.725,5.045,5.045,0,0,0-.133,2.315,3.232,3.232,0,0,0,1.6,2.253,4.691,4.691,0,0,0,.59.242c-.5.133-1,.281-1.5.446A18.217,18.217,0,0,0,30.057,25.6a3.083,3.083,0,0,1-1.078-1,6.541,6.541,0,0,1-.831-3.208,7.442,7.442,0,0,1,1.014-3.555A10.571,10.571,0,0,1,30,16.576c.479-.349.983-.692,1.523-1.025a22.375,22.375,0,0,1,6.558-2.674c-.034.017-.063.027-.1.044a11,11,0,0,0-4.011,3.228" transform="translate(-2.735 0)" fill="#595757"/>
    <path id="Path_4129" data-name="Path 4129" d="M30.6,43.215c-2.414.65-2.508,2.043-2.508,2.043-.06.25.186,1.068.976.325s2.461-.882,3.621-.882,2.183.232,2.089-.511-1.764-1.624-4.179-.975" transform="translate(-3.356 -5.139)" fill="#595757"/>
    <path id="Path_4130" data-name="Path 4130" d="M59.562,45.7c.709.82,1.038.031,1-.224,0,0,.05-1.395-2.285-2.288s-4.088-.188-4.256.541.871.6,2.026.722,2.8.429,3.512,1.248" transform="translate(-6.456 -5.112)" fill="#595757"/>
    <path id="Path_4131" data-name="Path 4131" d="M32.457,51.485c-1.809,0-2.644,1.483-2.644,3.311s.794,3.311,2.644,3.311c2.073,0,2.644-1.483,2.644-3.311s-.776-3.311-2.644-3.311" transform="translate(-3.564 -6.154)" fill="#595757"/>
    <path id="Path_4132" data-name="Path 4132" d="M55.954,58.108c2.073,0,2.643-1.483,2.643-3.311s-.776-3.311-2.643-3.311c-1.809,0-2.645,1.483-2.645,3.311s.794,3.311,2.645,3.311" transform="translate(-6.372 -6.154)" fill="#595757"/>
    <path id="Path_4133" data-name="Path 4133" d="M40.232,57.476a2.281,2.281,0,0,0,.282,1.535A2.467,2.467,0,0,0,42.46,60.19c.5-.015.529-.211.577-.422s-.041-.35-.427-.546a3.664,3.664,0,0,1-.713-.46,1.17,1.17,0,0,1-.406-1.071.83.83,0,0,1,.3-.546,1.447,1.447,0,0,1,.556-.186c.4-.062.713-.053.912-.073.408-.026.419-.136.461-.351s.064-.419-.4-.609l-.01,0a7.689,7.689,0,0,0-.159-1.282c-.369-1.823-.465-1.8-.875-1.7-.429.1-.726.217-.379,1.936.07.387.135.674.2.9a2.186,2.186,0,0,0-1.022.328,2.021,2.021,0,0,0-.847,1.366" transform="translate(-4.805 -6.324)" fill="#595757"/>
    <path id="Path_4134" data-name="Path 4134" d="M72.221,68.756a1.544,1.544,0,0,0-.548-.815,2.094,2.094,0,0,0-.528-.3c-.584-.2-.618-.084-.637.022-.028.128-.005.2.438.475a1.325,1.325,0,0,1,.633.807,1.35,1.35,0,0,1-.181.83,8.492,8.492,0,0,1-.785,1.124,3.042,3.042,0,0,0-.674,1.477,2.006,2.006,0,0,0,.3,1.248,3.3,3.3,0,0,0,.988,1c.5.3.556.205.628.109s0-.228-.422-.646a3.428,3.428,0,0,1-.7-.967c-.229-.452-.14-1.055.448-1.8.655-.812,1.272-1.713,1.038-2.561" transform="translate(-8.359 -8.072)" fill="#595757"/>
    <path id="Path_4135" data-name="Path 4135" d="M47.325,64.092a.269.269,0,0,0-.225.057l-.022-.057c-.017-.047-.041-.127-.034-.1h-.055L46.86,64a20.645,20.645,0,0,1-2.178.217,20.68,20.68,0,0,1-2.306-.164c-.336-.018-.367.088-.418.277a.474.474,0,0,0,0,.323,1.511,1.511,0,0,0,.034.35,3.049,3.049,0,0,0,.677,1.263,4.137,4.137,0,0,0,2.4,1.372,2.082,2.082,0,0,0,1.816-.427,2.376,2.376,0,0,0,.663-1.175,3.629,3.629,0,0,0,.114-1.415c-.066-.346-.235-.5-.343-.526m-2.052,2.4a3.453,3.453,0,0,1-1.834-1c-.08-.084-.148-.163-.212-.239a7.636,7.636,0,0,0,1.476.118,6.386,6.386,0,0,0,2.011-.325,6.035,6.035,0,0,1-.257.83c-.222.448-.394.747-1.183.617" transform="translate(-5.012 -7.648)" fill="#595757"/>
    <path id="Path_4136" data-name="Path 4136" d="M59.739,89.457a1.082,1.082,0,0,0-.995-.188.887.887,0,0,0-.976.208c-7.59,7.414-7.391,18.5-12.415,27.288-3.133-.037-6.076.912-9.161,1.469A84.708,84.708,0,0,1,23.206,119.5a.856.856,0,0,0-1.241-.27l-.6.393a8.7,8.7,0,0,1-3.715-3.9.921.921,0,0,0-.207-.281c.013-.076.019-.151.036-.227.27-1.226-1.613-1.749-1.884-.519a7.4,7.4,0,0,0,.023,3.372,17.288,17.288,0,0,1-2.533-2.284.931.931,0,0,0-.208-.151c-.063-1.111-1.853-1.072-1.937.129-.231,3.326.291,5.91,3.332,7.693a18.023,18.023,0,0,0,10.71,2.186.952.952,0,0,0,.552-.233c6.124.736,12.275,1.155,18.438,1.438,5.3.244,7.766-1.544,10.936-5.74,4.524-5.985,7.758-13.532,7.667-20.959.995-4.033.7-7.91-2.838-10.683" transform="translate(-1.302 -10.663)" fill="#f2d5bd"/>
    <path id="Path_4137" data-name="Path 4137" d="M17.311,106.788a1.417,1.417,0,0,0-.573-.812,1.45,1.45,0,0,0-.463-.142l.341.053a.982.982,0,0,0-.2-1.534c-1.127-.509-2.24-.12-3.413.149-.794.181-1.786.341-2.692.608.063-.064.126-.129.192-.188.937-.843-.448-2.221-1.381-1.381a6.638,6.638,0,0,0-2.082,6.73c.539,1.956,2.064,3.893,4.276,3.679a5.807,5.807,0,0,0,4.894-4.188,16.072,16.072,0,0,1,.954-1.949,1.649,1.649,0,0,0,.147-1.026" transform="translate(-0.814 -12.346)" fill="#f2d5bd"/>
    <path id="Path_4138" data-name="Path 4138" d="M23.142,74.323a12.163,12.163,0,0,0-1.462-.679,9.318,9.318,0,0,0-.873-.409c-1.63-.65-1.634-.473-3.069.227A14.876,14.876,0,0,0,15.07,75.7c-.16.1-.32.2-.481.291a17.473,17.473,0,0,1-8.68,2.3.866.866,0,0,0-.822.5.96.96,0,0,0-.617.6A23.651,23.651,0,0,0,2.953,87.1a1.1,1.1,0,0,0-.423.363c-1,1.426-3.362,4.757-.5,5.919A1.92,1.92,0,0,0,4.4,93.035a11.782,11.782,0,0,0,7.3,4.548,14.974,14.974,0,0,0,3.138.181.93.93,0,0,0,.539.148,10.213,10.213,0,0,0,4.126-.947l.009-.006c4.8-1.076,9-3.924,9.864-8.6a1.015,1.015,0,0,0,.668-.84,12.993,12.993,0,0,0-6.9-13.2" transform="translate(-0.079 -8.706)" fill="#fce7d6"/>
    <path id="Path_4139" data-name="Path 4139" d="M29.519,109.332a5.784,5.784,0,0,0-3.464-4.158,2.136,2.136,0,0,0-2.961,1.4c-1.468,2.7,1.221,7.513,4.437,6.851,1.829-.376,2.309-2.512,1.988-4.1" transform="translate(-2.711 -12.551)" fill="#fce7d6"/>
    <path id="Path_4140" data-name="Path 4140" d="M37.811,104.332c-.958-1.339-3.1-3.295-4.908-2.748a2.194,2.194,0,0,0-1.3.932,1.048,1.048,0,0,0-.2.2c-1.133,1.543.151,3.7,1.229,4.908a3.728,3.728,0,0,0,4.535,1.083c1.69-.934,1.665-2.944.64-4.379" transform="translate(-3.701 -12.132)" fill="#fce7d6"/>
    <path id="Path_4141" data-name="Path 4141" d="M17.042,71.442a17.453,17.453,0,0,0-7.1,2,3.348,3.348,0,0,0-1,.673s0,.009-.009.013a.931.931,0,0,0-.9.206A21.7,21.7,0,0,0,5.8,76.627a.99.99,0,0,0,.69,1.668,21.579,21.579,0,0,0,7.1-1.906,9.49,9.49,0,0,0,4.295-3.478.982.982,0,0,0-.843-1.469" transform="translate(-0.663 -8.539)" fill="#717071"/>
    <path id="Path_4142" data-name="Path 4142" d="M60.078,86.868A13.482,13.482,0,0,1,55.8,83.353a.926.926,0,0,0-1.257-.084,3,3,0,0,0-.068-1.751c-.391-1.061-2.56-3.385-3.885-3.458a2.553,2.553,0,0,0-1.339.394c-1.7.325-3.679,2.483-4.811,3.736-.434.072-.806-.008-1.5.033a7.7,7.7,0,0,0-2.1.473.972.972,0,0,0,.018-.509,11.989,11.989,0,0,0-.954-2.844.729.729,0,0,0-.287-.326c-.059-.124-.1-.248-.167-.373a.956.956,0,0,0-1.744.215,1.057,1.057,0,0,0-.727.319.867.867,0,0,0-1.1.73.951.951,0,0,0-1.488.219c-.631-.932-2.17,0-1.611,1.079A11.105,11.105,0,0,1,34.1,86.039c.009.277,0,.55.015.829a1.014,1.014,0,0,0,.063.274.8.8,0,0,0-.27.5,9.876,9.876,0,0,1-1.024,3.577,1,1,0,0,0,.35,1.336c3.167,2,9.758,7.113,9.047,11.612a1,1,0,0,0,.682,1.2,9.589,9.589,0,0,1,5.468,3.4.983.983,0,0,0,1.632-.431c1.757-7.347,3.731-14.954,10.018-19.779a.99.99,0,0,0,0-1.687" transform="translate(-3.903 -9.331)" fill="#fffdef"/>
    <path id="Path_4143" data-name="Path 4143" d="M14.548,101.9c-.342,0-.682,0-1.024-.02-.046,0-.247-.032-.37-.04a.986.986,0,0,0-1.757.57c-.014,1.573,2.076,1.458,3.151,1.444a.977.977,0,0,0,0-1.954" transform="translate(-1.362 -12.13)" fill="#cae7e3"/>
    <path id="Path_4144" data-name="Path 4144" d="M45.266,113.124a5.388,5.388,0,0,0-7.8-2.339l-.078.038.008.011c-.069.048-.14.09-.206.143h0a10.018,10.018,0,0,1-4.046.122l-.657-.217-1.819-.932a.984.984,0,0,0-1.82.493c0,1.294-2.788,2.688-4.084,3.762a13.831,13.831,0,0,0-2.184-1.319,8.329,8.329,0,0,1-1.43-1.418c-.418-.622-1.639-.664-1.785.233-.007.077-.029.15-.04.225a7.476,7.476,0,0,0-.836-.894.991.991,0,0,0-1.668.691c-.107.9-1.245,1.586-2.1,2.288a14.237,14.237,0,0,1-2.294.569c-.9.138-.864,1.371-.233,1.786a3.378,3.378,0,0,0,.573.325,6.3,6.3,0,0,1,.873,1.679.981.981,0,0,0,1.919-.26c.009-.447-.027-.917.006-1.377a.8.8,0,0,0,.7.089,1.222,1.222,0,0,1,1.59.248,4.43,4.43,0,0,0,.985,2.071.852.852,0,0,0,.82.255.857.857,0,0,0,.149.63l.368.554a1.126,1.126,0,0,0,.954.469,12.647,12.647,0,0,0,4.175.858,47.173,47.173,0,0,0,7.837-1.036,36.174,36.174,0,0,1,7.326-.752,7.856,7.856,0,0,0,2.477.157c2.4-.828,3.14-5.031,2.323-7.155" transform="translate(-1.403 -13.086)" fill="#cae7e3"/>
    <path id="Path_4145" data-name="Path 4145" d="M39.791,101.342a.98.98,0,0,0-.338-.247,9.478,9.478,0,0,0-1.992-2.084c-.411-1.963-2.313-3.454-3.975-4.4A.978.978,0,0,0,32.5,96.3a6.957,6.957,0,0,1,2.942,2.661c.247.534.184.886.544,1.355.785,1.025,1.733,1.457,2.334,2.719.231.486,1.243,3.247.244,3.414a.978.978,0,0,0-.682,1.2c.011.029.022.057.033.085a1.028,1.028,0,0,0,.942.717c1.334.111,2.384-1.529,2.611-2.658a5.226,5.226,0,0,0-1.675-4.453" transform="translate(-3.828 -11.294)" fill="#cae7e3"/>
    <path id="Path_4146" data-name="Path 4146" d="M32.7,99.917c-1.07-1.391-2.1-3.821-4.13-3.059-3.151,1.182-5.388,3.776-8.672,4.483-.053.009-.1.024-.156.032s-.113.017-.168.026c-.181.026-.375.037-.562.056a2.375,2.375,0,0,0-2.408-.423.977.977,0,0,0,.519,1.883l.188,1.344a.992.992,0,0,0,.583,1.434l.5.27c-.239,1.432-.085,3.552,1.786,3.179.8-.159.913-.637,1.168-1.285a9.669,9.669,0,0,1,.766-2.353c1.179-1.756,3.777-1.848,5.455-.637a.982.982,0,0,0,1.47-.843,3.6,3.6,0,0,1,3.071-2.672.983.983,0,0,0,.584-1.435" transform="translate(-1.902 -11.561)" fill="#92d0d2"/>
    <path id="Path_4147" data-name="Path 4147" d="M71.4,205.633c.152,1.183.35,2.366.571,3.549-.143-1.577-.158-2.671.059-2.892a.982.982,0,0,0-.543-1.637c-.212-1.1-.406-2.2-.6-3.295.165,1.425.334,2.851.517,4.275" transform="translate(-8.474 -24.07)" fill="#d5dcdd"/>
    <path id="Path_4148" data-name="Path 4148" d="M63.791,198.244c-1.084-8.217-1.742-16.488-3.011-24.682-1.183-7.642-2.379-15.348-4.1-22.889-1.493-6.531-2.6-13.409-6.379-19.093a.488.488,0,0,1-.082-.27.86.86,0,0,0-.2.022,15.72,15.72,0,0,1-4.177.893.968.968,0,0,0-.269.08c-4.128-.3-10.742-.394-11.7-.45a.81.81,0,0,0-.791.41c-3.951-.482-7.9-1.057-11.883-1.15a1.052,1.052,0,0,0-1.668.4c-.312.82-.6,1.644-.862,2.47-6.39,14.678-3.274,29.984.3,45.03q.938,8.688,2.139,17.347c.06.427,4.006,23.664,4.4,23.677,5.1.172,6.255,1.583,11.884.132.753-.194-.613-18.383-.763-19.109-.246-1.192-1.694-34.593-1.241-44.41,3.5,8.134,8.578,30.468,11.831,38.713,1.064,2.7,6.338,24.283,9.319,25.5,2.36.964,7.892-2.107,10.363-2.3.116-.009.19-.164.239-.42-.2-6.689-2.47-13.281-3.342-19.9" transform="translate(-1.79 -15.643)" fill="#d5dcdd"/>
    <path id="Path_4149" data-name="Path 4149" d="M11.494,84.584a.461.461,0,0,0-.656-.191,6.512,6.512,0,0,0-1.05.812.449.449,0,0,0,.033.692.437.437,0,0,0,.673.245c.137-.085.26-.192.393-.284a.452.452,0,0,0,.287-.051,1.124,1.124,0,0,0,.556-.683.411.411,0,0,0-.236-.539" transform="translate(-1.152 -10.079)" fill="#595757"/>
    <path id="Path_4150" data-name="Path 4150" d="M24.573,78.943c-.031-.286-.261-.546-.587-.409-.04.017-.076.036-.114.054l0,0-.028.018a5.478,5.478,0,0,0-.873.468.471.471,0,0,0-.166.2l-.03.018c-.439.281-.158,1.118.376.893l.994-.419h.023a.483.483,0,0,0,.422-.242c.007-.011.013-.024.019-.035a.507.507,0,0,0-.033-.54" transform="translate(-2.696 -9.383)" fill="#595757"/>
    <path id="Path_4151" data-name="Path 4151" d="M20.732,82.344c-.066-.619-1.043-.625-.976,0a1.867,1.867,0,0,1-2.664,1.639c-.52-.357-1.009.49-.493.843,1.625,1.113,4.34-.543,4.134-2.481" transform="translate(-1.958 -9.787)" fill="#595757"/>
    <path id="Path_4152" data-name="Path 4152" d="M4.809,94.974c.143.081.365.173,0,.8a2.209,2.209,0,0,1-1.474.944,2.311,2.311,0,0,1-1.535-.25A3.8,3.8,0,0,1,.483,95.082,3.347,3.347,0,0,1,0,93.238a2.669,2.669,0,0,1,.48-1.416,1.975,1.975,0,0,1,1.576-.858.806.806,0,0,1,.65.228.275.275,0,0,1,.025.273c-.052.2-.092.222-.525.306a1.454,1.454,0,0,0-.858.593,2.036,2.036,0,0,0,.073,2.172,3.22,3.22,0,0,0,.806.937,1.324,1.324,0,0,0,.773.25,1.775,1.775,0,0,0,1.071-.371c.447-.352.56-.479.735-.379" transform="translate(0 -10.873)" fill="#595757"/>
    <path id="Path_4153" data-name="Path 4153" d="M10.758,72.632c.068.188.086.3-.891.873a14.182,14.182,0,0,0-2.141,1.586,13.4,13.4,0,0,0-3.059,4.16,20.189,20.189,0,0,0-1.606,4.908A10.679,10.679,0,0,0,2.884,86.8c.1,1.128.051,1.225-.146,1.293-.147.058-.334.128-.652-1.092-.27-1.212-.39-3.837,1.6-8.227A13.6,13.6,0,0,1,6.677,74.66,10.176,10.176,0,0,1,9.1,72.973c1.256-.576,1.606-.495,1.654-.342" transform="translate(-0.231 -8.669)" fill="#595757"/>
    <path id="Path_4154" data-name="Path 4154" d="M20.812,99.552c.061.161.143.349-1.054.86a12.459,12.459,0,0,1-2.994.754,16.059,16.059,0,0,1-6.007-.341A6.673,6.673,0,0,1,7.588,99.29,8.112,8.112,0,0,1,6.04,97.149a9.982,9.982,0,0,1-1.112-2.915,2.382,2.382,0,0,1,.04-1.224c.08-.18.167-.186.26-.184.217,0,.2.02.48,1.142a12.819,12.819,0,0,0,1.188,2.616,7.877,7.877,0,0,0,1.384,1.888,5.7,5.7,0,0,0,2.741,1.3,16.216,16.216,0,0,0,5.119.43,19.138,19.138,0,0,0,2.941-.448c1.347-.323,1.661-.386,1.733-.2" transform="translate(-0.583 -11.096)" fill="#595757"/>
    <path id="Path_4155" data-name="Path 4155" d="M18.5,72.387c.139.107.3.218-.257,1.064A8.985,8.985,0,0,1,16.6,75.2a9.847,9.847,0,0,1-1.677,1.15q-.518.28-1.134.54l-.635.252c-.138.047-.415.187-.628.276A17.842,17.842,0,0,1,8.135,78.7a11.908,11.908,0,0,1-2.379.154C4.735,78.789,4.7,78.6,4.7,78.425s0-.277.951-.384c.474-.063,1.188-.13,2.241-.331a19.776,19.776,0,0,0,4.2-1.287c.831-.391,1.506-.584,2.094-.9a9.655,9.655,0,0,0,1.469-.887,15.788,15.788,0,0,0,1.737-1.469c.755-.745.954-.9,1.109-.783" transform="translate(-0.562 -8.649)" fill="#595757"/>
    <path id="Path_4156" data-name="Path 4156" d="M18.718,72.016c-.064.173-.129.327-.539.312a26.988,26.988,0,0,0-2.72-.179c-1.514.084-2.261.34-2.68.359-.415.045-.5-.1-.58-.265s-.124-.262.255-.489a6.874,6.874,0,0,1,2.967-.692,6.856,6.856,0,0,1,2.852.438c.452.2.509.347.445.516" transform="translate(-1.452 -8.494)" fill="#595757"/>
    <path id="Path_4157" data-name="Path 4157" d="M23.6,96.947c-.076-.188-.107-.278,1.744-1.337.458-.271,1.031-.609,1.726-1.061a11.4,11.4,0,0,0,2.258-1.867,10.37,10.37,0,0,0,2.089-3.456,10.111,10.111,0,0,0,.421-5.313,13.66,13.66,0,0,0-.875-2.735,15.7,15.7,0,0,0-1.031-2.321,12.891,12.891,0,0,0-2.473-3.2,11.163,11.163,0,0,0-4.185-2.52c-1.006-.316-1.565-.368-1.851-.463-.289-.079-.314-.167-.316-.259s-.006-.165.275-.222a5.232,5.232,0,0,1,1.976.121A10.6,10.6,0,0,1,28.045,74.8a13.479,13.479,0,0,1,2.779,3.448,15.848,15.848,0,0,1,1.132,2.48l.537,1.39a12.518,12.518,0,0,1,.418,1.589A11.085,11.085,0,0,1,30.7,92.666a12.662,12.662,0,0,1-4.252,3.289c-2.2,1.108-2.778,1.145-2.84.991" transform="translate(-2.523 -8.624)" fill="#595757"/>
    <path id="Path_4158" data-name="Path 4158" d="M10.9,105.084a.426.426,0,0,1-.255-.507,1.713,1.713,0,0,0,.016-.547c-.018-.091-.081-.173-.1-.169a.6.6,0,0,0-.344.047,6.152,6.152,0,0,0-1.666,1.015.458.458,0,0,1-.577.031c-.157-.089-.262-.143-.107-.485a2.614,2.614,0,0,1,.535-.7,3.868,3.868,0,0,1,1.481-.893,1.5,1.5,0,0,1,1.163.033,1.2,1.2,0,0,1,.607.847,1.479,1.479,0,0,1-.216,1.076c-.245.357-.377.341-.535.256" transform="translate(-0.931 -12.285)" fill="#595757"/>
    <path id="Path_4159" data-name="Path 4159" d="M16.531,105.7c-.122-.15-.188-.269.144-.761l.134-.21c.05-.079.116-.182.1-.184a.077.077,0,0,0-.082-.094c-.018,0-.259-.064-.415-.082a4.466,4.466,0,0,0-.6-.044,9.244,9.244,0,0,0-1.552.141,18.616,18.616,0,0,0-4,1.268c-.593.225-.705.115-.811-.04s-.171-.245.356-.643a10.178,10.178,0,0,1,4.273-1.658,6.572,6.572,0,0,1,2.861.027,1.646,1.646,0,0,1,.694.361.883.883,0,0,1,.287.67,1.012,1.012,0,0,1-.237.588,2.662,2.662,0,0,1-.252.28c-.576.539-.806.517-.909.381" transform="translate(-1.122 -12.342)" fill="#595757"/>
    <path id="Path_4160" data-name="Path 4160" d="M17.678,106.71c-.069.176-.139.309-.548.311-.2.007-.5-.015-.917.013a5.91,5.91,0,0,0-.77.139c-.3.058-.641.114-1.066.218-1.628.36-2.389.6-2.825.666s-.524-.062-.61-.228-.139-.261.248-.508a9.944,9.944,0,0,1,2.945-.991,16.739,16.739,0,0,1,1.88-.315,3.331,3.331,0,0,1,1.162.171c.513.193.568.361.5.524" transform="translate(-1.301 -12.673)" fill="#595757"/>
    <path id="Path_4161" data-name="Path 4161" d="M17.923,107.5c.07-.07.13-.166.277-.113.128.047.4.378.1.9a1.391,1.391,0,0,1-.524.449c-.21.109-.4.193-.659.3a17.723,17.723,0,0,1-2.02.688,11.283,11.283,0,0,1-3.467.552c-.525-.043-.564-.209-.59-.39s-.038-.286.438-.416,1.442-.278,3.326-.793c.818-.229,1.452-.44,1.949-.607l.63-.213a1.354,1.354,0,0,0,.251-.116.72.72,0,0,0,.293-.245" transform="translate(-1.318 -12.835)" fill="#595757"/>
    <path id="Path_4162" data-name="Path 4162" d="M17.58,108.375a.336.336,0,0,1,.264-.007c.092.046.207.184.222.505a1.886,1.886,0,0,1-.569,1.255,5.693,5.693,0,0,1-2.029,1.289,8.44,8.44,0,0,1-3.362.645c-.5-.039-.547-.2-.576-.383s-.046-.285.414-.422a28.083,28.083,0,0,0,3.12-.851,6.6,6.6,0,0,0,1.6-.9,2.169,2.169,0,0,0,.571-.671c.144-.3.158-.407.35-.466" transform="translate(-1.377 -12.951)" fill="#595757"/>
    <path id="Path_4163" data-name="Path 4163" d="M7.5,105.688c.182.1.245.164-.024,1.21a10.07,10.07,0,0,0-.249,2.537,5.912,5.912,0,0,0,.4,2.014,3.321,3.321,0,0,0,1.718,1.839,2.446,2.446,0,0,0,1.248.215c.379-.059.891-.183,1.285-.261a9.364,9.364,0,0,0,1.985-.695,4.658,4.658,0,0,0,1.884-1.473,1.274,1.274,0,0,0,.143-.783.331.331,0,0,1,.087-.294c.061-.063.114-.134.288-.008a1.211,1.211,0,0,1,.273,1.311,2.648,2.648,0,0,1-.722,1.081,6.274,6.274,0,0,1-1.411,1.035,9.568,9.568,0,0,1-2.222.856c-.451.094-.844.2-1.431.3a3.476,3.476,0,0,1-1.848-.293,4.283,4.283,0,0,1-2.125-2.106,6.008,6.008,0,0,1-.551-2.222,8.035,8.035,0,0,1,.342-2.888c.454-1.293.8-1.46.932-1.377" transform="translate(-0.743 -12.631)" fill="#595757"/>
    <path id="Path_4164" data-name="Path 4164" d="M11.647,101.2l-.07.115c-.026.042-.042.081-.033.058s-.034-.01.074.115c.043.054.169.117.08.073h0l.1.041v.086c0,.03-.005.063-.009.1a3.51,3.51,0,0,1-.14.554c-.267.918-.522.9-.9.823-.349-.065-.45-.087-.142-1.15a4.482,4.482,0,0,1,.2-.543,1.541,1.541,0,0,1,.234-.372.5.5,0,0,1,.531-.148.154.154,0,0,1,.065.247" transform="translate(-1.247 -12.064)" fill="#595757"/>
    <path id="Path_4165" data-name="Path 4165" d="M18.2,118.122a1.024,1.024,0,0,1-.541-.118.538.538,0,0,0-.45.013c-.21.1-.473.361-.593,1.079a11.551,11.551,0,0,0-.147,2.537c-.006.391-.141.471-.317.537s-.277.112-.465-.29a5.2,5.2,0,0,1-.14-2.987,2.276,2.276,0,0,1,1.117-1.755,1.376,1.376,0,0,1,.861-.127,1.221,1.221,0,0,1,.574.286.77.77,0,0,1,.291.64.19.19,0,0,1-.191.183" transform="translate(-1.842 -13.985)" fill="#595757"/>
    <path id="Path_4166" data-name="Path 4166" d="M22.451,122.955c-.236.279-.414.533-2.726-1.371a3.243,3.243,0,0,1-1.426-2.41c.037-.45.233-.458.409-.468s.276-.005.387.273a4.068,4.068,0,0,0,1.343,1.783c1.978,1.63,2.254,1.91,2.014,2.193" transform="translate(-2.187 -14.189)" fill="#595757"/>
    <path id="Path_4167" data-name="Path 4167" d="M16.457,122.776c-.1.126-.282.316-1.532-.905a25.928,25.928,0,0,1-2.619-3.171,3.656,3.656,0,0,0-.323-.448.156.156,0,0,0-.163.014c-.022.039-.006-.019-.05.121l-.117.409c-.077.279-.137.573-.195.88a8.305,8.305,0,0,0,.252,4.182,7.306,7.306,0,0,0,.446,1.042,2.609,2.609,0,0,0,.592.739,6.54,6.54,0,0,0,1.629.983,17.914,17.914,0,0,0,3.088,1.011c1.834.4,3.113.575,3.962.726,1.705.276,1.767.388,1.767.586,0,.17-.016.332-1.75.239a33.1,33.1,0,0,1-4.078-.529,17.511,17.511,0,0,1-3.346-1.021,7.514,7.514,0,0,1-1.95-1.151,3.708,3.708,0,0,1-.858-1.048,8.318,8.318,0,0,1-.528-1.219,8.981,8.981,0,0,1-.357-4.227,10.862,10.862,0,0,1,.378-1.727,2.969,2.969,0,0,1,.17-.465,1.134,1.134,0,0,1,.5-.481,1.187,1.187,0,0,1,1.23.108,2.636,2.636,0,0,1,.52.664l.342.5c.23.32.442.617.639.891l1.036,1.37c1.172,1.493,1.444,1.764,1.318,1.921" transform="translate(-1.222 -14.009)" fill="#595757"/>
    <path id="Path_4168" data-name="Path 4168" d="M12.1,117.373c-.33.124-.664.252-.957-.866-.231-1.11.121-1.166.472-1.2.38-.04.382-.036.587.953.218.857.254.981-.1,1.115" transform="translate(-1.324 -13.782)" fill="#595757"/>
    <path id="Path_4169" data-name="Path 4169" d="M36.97,108.756c.022-.213.07-.262,1.369-.417a7.691,7.691,0,0,0,1.2-.291,2.023,2.023,0,0,0,1.271-.919,3.628,3.628,0,0,0,.344-2.319,9.165,9.165,0,0,0-1.232-3.183,17.346,17.346,0,0,0-3.9-4.643A24.157,24.157,0,0,0,33.435,95.1c-1.174-.725-1.185-.863-1.106-1.044.067-.158.121-.3,1.418.284A15.034,15.034,0,0,1,36.6,96.132a17.133,17.133,0,0,1,4.27,4.953,10.556,10.556,0,0,1,1.277,3.156,4.977,4.977,0,0,1-.171,2.809,3.159,3.159,0,0,1-.635,1.055,2.655,2.655,0,0,1-.907.62,5.6,5.6,0,0,1-1.486.371,4.354,4.354,0,0,1-1.624-.077c-.289-.085-.364-.175-.35-.264" transform="translate(-3.861 -11.227)" fill="#595757"/>
    <path id="Path_4170" data-name="Path 4170" d="M31.819,106.258c-.072.16-.129.349-.47.276a1.206,1.206,0,0,1-.634-.472,2.065,2.065,0,0,1-.375-1.45,2.675,2.675,0,0,1,.49-1.293,1.59,1.59,0,0,1,.545-.506c.409-.163.46.093.5.245a1.319,1.319,0,0,1,.057.354,4.066,4.066,0,0,0-.513,1.307,1.538,1.538,0,0,0,.342,1.1.383.383,0,0,1,.055.437" transform="translate(-3.625 -12.283)" fill="#595757"/>
    <path id="Path_4171" data-name="Path 4171" d="M32.393,107.956c-.048.176-.077.347-.265.409-.166.051-.6,0-.935-.617-.3-.62-.024-1.109.187-1.188s.332.065.458.188a3.4,3.4,0,0,1,.231.257c.06.031.017.038.1.265.223.337.321.3.223.687" transform="translate(-3.713 -12.735)" fill="#595757"/>
    <path id="Path_4172" data-name="Path 4172" d="M33.683,109.428c-.026.181-.043.35-.2.447-.145.07-.478.182-1.072-.25-.57-.515-.462-1.056-.327-1.207.151-.173.32-.1.49-.048a1.1,1.1,0,0,1,.324.142c.061.027.045.116.21.277.175.14.384.189.478.27s.12.185.094.368" transform="translate(-3.823 -12.947)" fill="#595757"/>
    <path id="Path_4173" data-name="Path 4173" d="M37.975,109.464a.387.387,0,0,1,.088.561,1.926,1.926,0,0,1-.575.591,3.24,3.24,0,0,1-1.545.572,2.639,2.639,0,0,1-1.646-.357,1.667,1.667,0,0,1-.618-.615c-.166-.343-.019-.456.121-.569a.3.3,0,0,1,.44-.03,2.339,2.339,0,0,0,1.6.487,4.123,4.123,0,0,0,1.609-.633c.272-.152.39-.141.526-.008" transform="translate(-4.017 -13.073)" fill="#595757"/>
    <path id="Path_4174" data-name="Path 4174" d="M38.471,108.109c-.175-.089-.274-.17-.147-.836a6.1,6.1,0,0,0,.081-1.561,4.123,4.123,0,0,0-1.234-2.624,3.885,3.885,0,0,0-2.591-1.145,4.133,4.133,0,0,0-1.5.225c-.615.242-.735.211-.87.061-.113-.114-.247-.247.432-.755a3.573,3.573,0,0,1,1.875-.551,4.663,4.663,0,0,1,3.413,1.389,4.889,4.889,0,0,1,1.465,3.016,4.508,4.508,0,0,1-.211,1.927c-.323.848-.574.937-.717.855" transform="translate(-3.84 -12.063)" fill="#595757"/>
    <path id="Path_4175" data-name="Path 4175" d="M33.921,104.787c-.065-.006-.245-.008-.185-.009,0,0-.005-.006-.029.039a.4.4,0,0,0-.032.17c-.015.272-.425.323-.855.732s-.521.674-.679.8a.586.586,0,0,1-.49.132c-.18-.012-.3-.013-.319-.266a2.01,2.01,0,0,1,.76-1.475,2.363,2.363,0,0,1,1.359-.646.568.568,0,0,1,.581.236c.112.253-.039.3-.111.287" transform="translate(-3.745 -12.462)" fill="#595757"/>
    <path id="Path_4176" data-name="Path 4176" d="M34.5,106.614c.124.136.238.258.185.47s-.246.538-.946.983a1.6,1.6,0,0,1-1.447.252c-.219-.121-.2-.3-.188-.476s.028-.285.16-.343a4.478,4.478,0,0,0,.919-.367c.455-.283.714-.529.9-.611a.3.3,0,0,1,.416.092" transform="translate(-3.836 -12.728)" fill="#595757"/>
    <path id="Path_4177" data-name="Path 4177" d="M36.048,108.049c.173.006.379-.018.423.3.021.332-.235.871-1.045,1.315a1.8,1.8,0,0,1-1.564.2c-.226-.122-.213-.294-.2-.476s.024-.287.187-.343a4.943,4.943,0,0,0,1.071-.342,3.8,3.8,0,0,0,.762-.578.67.67,0,0,1,.369-.077" transform="translate(-4.023 -12.916)" fill="#595757"/>
    <path id="Path_4178" data-name="Path 4178" d="M29.049,107.019a.569.569,0,0,1-.455-.263,2.213,2.213,0,0,0-.875-.939,12.082,12.082,0,0,0-1.4-.389,1.428,1.428,0,0,1-.406-.3c-.109-.115-.247-.263.175-.488a1.926,1.926,0,0,1,.757-.114,3.094,3.094,0,0,1,1.371.321,1.993,1.993,0,0,1,1.193,1.749c-.032.4-.185.454-.356.423" transform="translate(-3.084 -12.495)" fill="#595757"/>
    <path id="Path_4179" data-name="Path 4179" d="M30.236,108.377a1.075,1.075,0,0,1-.431-.217,1.5,1.5,0,0,1-.263-.416.707.707,0,0,1-.169-.352,2.619,2.619,0,0,1-.149-.449c-.039-.173-.08-.294.131-.371a1.087,1.087,0,0,1,1.114.6,1.2,1.2,0,0,1,.151,1.083c-.092.178-.213.175-.385.118" transform="translate(-3.49 -12.737)" fill="#595757"/>
    <path id="Path_4180" data-name="Path 4180" d="M30.782,110.268a.689.689,0,0,1-.384-.3,2.043,2.043,0,0,1-.07-.63,1.642,1.642,0,0,1-.067-.436,1.676,1.676,0,0,1,.06-.477c.046-.174.065-.294.286-.267a1.153,1.153,0,0,1,.8,1.04,1.378,1.378,0,0,1-.232,1.037c-.115.127-.226.108-.393.032" transform="translate(-3.617 -12.928)" fill="#595757"/>
    <path id="Path_4181" data-name="Path 4181" d="M28.069,114.068a.441.441,0,0,1,.174-.533A6.924,6.924,0,0,0,29.7,112.37a3.283,3.283,0,0,0,.572-1.622.477.477,0,0,1,.371-.426c.169-.059.284-.107.429.241a2.109,2.109,0,0,1,.111.876,2.888,2.888,0,0,1-.625,1.6,3.366,3.366,0,0,1-1.961,1.245c-.39.06-.495-.041-.532-.217" transform="translate(-3.352 -13.183)" fill="#595757"/>
    <path id="Path_4182" data-name="Path 4182" d="M26.648,113.35c-.015.169-.013.387-.807.35a3.88,3.88,0,0,1-1.763-.643,4.735,4.735,0,0,1-2.05-3.029,4.527,4.527,0,0,1,.664-3.561,3.269,3.269,0,0,1,1.486-1.219c.8-.247.87,0,.909.151.05.2.041.246-.485.554a3.432,3.432,0,0,0-1.029,1.036,3.7,3.7,0,0,0-.481,2.813,3.969,3.969,0,0,0,1.358,2.257,4.837,4.837,0,0,0,1.349.779c.687.253.864.312.849.512" transform="translate(-2.62 -12.568)" fill="#595757"/>
    <path id="Path_4183" data-name="Path 4183" d="M26.5,107.815c-.009,0-.063.155-.165.141-.14-.006-.226-.279-.136-.455a1.379,1.379,0,0,1,.345-.48,2.3,2.3,0,0,1,.938-.505,1.586,1.586,0,0,1,1.593.26c.17.205.078.359-.007.519s-.143.247-.295.245a2.627,2.627,0,0,0-1,.026,4.972,4.972,0,0,0-.933.452l-.017.006,0,0h0c-.314-.342-.086-.1-.157-.171l.013.013.026.025a.37.37,0,0,0-.061-.034.242.242,0,0,0-.143-.029c-.021.012.014-.018.005-.014" transform="translate(-3.127 -12.723)" fill="#595757"/>
    <path id="Path_4184" data-name="Path 4184" d="M27.691,109.675a.482.482,0,0,1,.05-.5,3.529,3.529,0,0,1,1.03-.569,9.883,9.883,0,0,1,.9-.5.6.6,0,0,1,.5.088c.16.086.263.134.192.358a2.141,2.141,0,0,1-1.1,1.027,3.108,3.108,0,0,1-1.241.371c-.214,0-.283-.093-.331-.271" transform="translate(-3.305 -12.919)" fill="#595757"/>
    <path id="Path_4185" data-name="Path 4185" d="M27.832,111.725a1.088,1.088,0,0,1,.334-.365,1.322,1.322,0,0,1,.291-.143,5.076,5.076,0,0,0,.665-.3c.538-.322.759-.571.962-.644a.531.531,0,0,1,.507.07c.16.087.26.136.188.365a2.422,2.422,0,0,1-1.12,1.155,2.082,2.082,0,0,1-1.587.319c-.343-.133-.34-.311-.241-.453" transform="translate(-3.32 -13.177)" fill="#595757"/>
    <path id="Path_4186" data-name="Path 4186" d="M21.922,110.292c.227.321.339.494-1.778,2.21-2.018,1.753-2.207,1.647-2.484,1.368-.243-.242-.345-.35,1.785-2.2,1.914-1.565,2.279-1.662,2.477-1.377" transform="translate(-2.096 -13.169)" fill="#595757"/>
    <path id="Path_4187" data-name="Path 4187" d="M25.976,114.859c.149.109.284.207.076.7A14.937,14.937,0,0,1,24,118.6a4.856,4.856,0,0,1-3.254,1.973c-.591.005-.616-.193-.636-.366-.02-.191-.018-.271.412-.424a5.9,5.9,0,0,0,2.657-1.9c1.1-1.34,1.7-2.247,2.1-2.661.391-.436.552-.478.7-.37" transform="translate(-2.403 -13.724)" fill="#595757"/>
    <path id="Path_4188" data-name="Path 4188" d="M49.447,117.575c-.182-.056-.317-.115-.239-.9a10.758,10.758,0,0,0,.049-1.82,5.009,5.009,0,0,0-1.3-3.064,6.347,6.347,0,0,0-2.881-1.743,9.624,9.624,0,0,0-1.789-.313c-.79-.062-.852-.168-.9-.358-.046-.165-.057-.327.809-.458a6.019,6.019,0,0,1,2.071.124,6.883,6.883,0,0,1,3.489,2.011,5.618,5.618,0,0,1,1.5,3.391,6.588,6.588,0,0,1-.174,2.105c-.263.934-.47,1.081-.63,1.028" transform="translate(-5.065 -13.015)" fill="#595757"/>
    <path id="Path_4189" data-name="Path 4189" d="M39.94,121.151c-.181-.029-.345-.068-.322-1.182a11.044,11.044,0,0,0-.276-2.546,4.14,4.14,0,0,0-3.19-3.126c-4.294-1.1-6.155.6-7.043,1.165-.888.674-.995.662-1.158.541-.134-.094-.268-.227.561-1.107a7.158,7.158,0,0,1,2.41-1.573,6.663,6.663,0,0,1,2.4-.456,11.549,11.549,0,0,1,3.126.383A5.679,5.679,0,0,1,39,114.679a4.86,4.86,0,0,1,1.192,2.006,7.382,7.382,0,0,1,.264,2.915c-.161,1.323-.351,1.58-.518,1.551" transform="translate(-3.329 -13.492)" fill="#595757"/>
    <path id="Path_4190" data-name="Path 4190" d="M15.979,103.465c-.335.082-.709.17-.741-.708.056-.861.429-.777.762-.686.372.1.364.1.326.7.011.525.024.6-.347.691" transform="translate(-1.821 -12.195)" fill="#595757"/>
    <path id="Path_4191" data-name="Path 4191" d="M20.788,111.121c-.017.183-.026.351-.261.445a2.2,2.2,0,0,1-1.567-.269,3.151,3.151,0,0,1-.864-.592,1.333,1.333,0,0,1-.348-.518c-.075-.365.178-.39.329-.429a2.124,2.124,0,0,1,.339-.047c.015-.018.114.052.291.175a5.142,5.142,0,0,0,.723.429c.58.269.943.332,1.137.426a.318.318,0,0,1,.221.378" transform="translate(-2.12 -13.114)" fill="#595757"/>
    <path id="Path_4192" data-name="Path 4192" d="M35.238,100.688c-.059-.072-.089-.158-.145-.218s-.121-.021-.226-.173a12.044,12.044,0,0,0-1.512-2.242,12.462,12.462,0,0,0-2.106-1.668c-.336-.247-.312-.411-.256-.588s.082-.28.528-.188a5.686,5.686,0,0,1,2.629,1.7A5.554,5.554,0,0,1,35.6,99.9a.96.96,0,0,1-.045.7c-.146.207-.282.154-.319.082" transform="translate(-3.701 -11.425)" fill="#595757"/>
    <path id="Path_4193" data-name="Path 4193" d="M39.472,77.727c.048.221.07.4-.264.661a8.762,8.762,0,0,1-.85.571,10.553,10.553,0,0,1-1.96.9,7.236,7.236,0,0,1-3.189.537c-.486-.082-.52-.284-.545-.5s-.036-.343.385-.47c.415-.144,1.282-.239,2.917-.8,1.421-.5,2.152-.969,2.739-1.107.562-.136.729-.009.767.2" transform="translate(-3.903 -9.26)" fill="#595757"/>
    <path id="Path_4194" data-name="Path 4194" d="M42.448,83.121c-.408.169-.739.308-1.643-2.183-.887-2.445-.561-2.6-.139-2.729s.482-.151,1.366,2.284c.773,2.131.824,2.458.416,2.627" transform="translate(-4.81 -9.343)" fill="#595757"/>
    <path id="Path_4195" data-name="Path 4195" d="M51.814,76.706c.15.16.293.307-.144.9a18.223,18.223,0,0,1-3.795,3.291c-1.145.816-2,1.394-2.7,1.818a5.663,5.663,0,0,1-1.636.714c-.777.151-.853-.08-.908-.282-.061-.222-.077-.314.49-.61a14.386,14.386,0,0,0,1.342-.82l2.655-1.88c2.006-1.437,3.068-2.329,3.706-2.791s.839-.5.993-.338" transform="translate(-5.092 -9.158)" fill="#595757"/>
    <path id="Path_4196" data-name="Path 4196" d="M41.845,84.577c.248.365.449.662-3.14,3.095-.9.6-1.515,1.02-2.125,1.345a1.988,1.988,0,0,1-1.562.208,1.2,1.2,0,0,1-.392-.234.7.7,0,0,1-.2-.249c-.048-.1-.1-.175-.022-.284a.88.88,0,0,1,.669-.216,1.285,1.285,0,0,0,.358-.041,2.005,2.005,0,0,0,.508-.231c.433-.272,1.146-.786,2.03-1.378,3.142-2.131,3.623-2.381,3.871-2.015" transform="translate(-4.108 -10.093)" fill="#595757"/>
    <path id="Path_4197" data-name="Path 4197" d="M47.942,91.558c-.155.158-.293.3-.759.041a10.061,10.061,0,0,1-2.525-2.585,10.053,10.053,0,0,1-1.749-3.13c-.123-.53.047-.637.241-.741s.307-.161.6.239.78,1.263,1.948,2.852c1.041,1.378,1.723,2.092,2.054,2.545s.341.621.185.78" transform="translate(-5.124 -10.169)" fill="#595757"/>
    <path id="Path_4198" data-name="Path 4198" d="M58.9,82.361c-.1.191-.185.4-.726.241a7.737,7.737,0,0,1-2.853-2.27,15.338,15.338,0,0,1-2.267-2.679c-.1-.358-.174-.405-.131-.659.018-.111.023-.208.138-.269a.393.393,0,0,1,.271-.011,1.183,1.183,0,0,1,.409.235,34.784,34.784,0,0,1,2.516,2.477,27.957,27.957,0,0,0,2.293,2.25c.389.336.448.482.349.686" transform="translate(-6.325 -9.168)" fill="#595757"/>
    <path id="Path_4199" data-name="Path 4199" d="M57.639,82.317c.175.134.338.252-.078,1.022a19.162,19.162,0,0,1-4.019,4.53,19.153,19.153,0,0,1-5,3.332c-.834.316-.957.153-1.065-.039s-.167-.3.522-.782a48.635,48.635,0,0,0,4.686-3.495,48.82,48.82,0,0,0,3.908-3.918c.645-.689.866-.786,1.045-.651" transform="translate(-5.667 -9.834)" fill="#595757"/>
    <path id="Path_4200" data-name="Path 4200" d="M65.159,87.563c-.224.381-.4.69-3.505-1.126-3.043-1.782-2.921-2.125-2.7-2.507s.254-.435,3.356,1.381c2.715,1.59,3.069,1.87,2.846,2.251" transform="translate(-7.035 -10.007)" fill="#595757"/>
    <path id="Path_4201" data-name="Path 4201" d="M48.627,117.96c-.2-.1-.365-.179.356-2.1.358-.96.933-2.383,1.8-4.514s2.047-4.97,3.422-8.8c.338-.939.619-1.826.865-2.655a25.366,25.366,0,0,1,.7-2.437,21.692,21.692,0,0,1,1.842-3.7,15.637,15.637,0,0,1,3.19-3.864,3.12,3.12,0,0,1,1.774-.875c.32.006.342.109.361.217s.022.2-.15.321a6.885,6.885,0,0,0-1.235.986,18.266,18.266,0,0,0-2.823,3.733,22.268,22.268,0,0,0-1.721,3.546,23.19,23.19,0,0,0-.677,2.375c-.254.889-.549,1.819-.9,2.791-1.219,3.409-2.32,6.012-3.189,8.053s-1.546,3.5-2.052,4.537c-1.019,2.079-1.374,2.482-1.567,2.386" transform="translate(-5.792 -10.64)" fill="#595757"/>
    <path id="Path_4202" data-name="Path 4202" d="M67.782,106.347c-.207-.085-.382-.164-.059-1.351.171-.586.422-1.46.8-2.771a18.569,18.569,0,0,0,.756-5.41,10.809,10.809,0,0,0-1.42-5.033,9.721,9.721,0,0,0-1.705-2.145,5.666,5.666,0,0,1-.767-.791.327.327,0,0,1-.013-.364c.086-.174.177-.366,1.317.324a7.781,7.781,0,0,1,2.161,2.257,11.256,11.256,0,0,1,1.733,5.709,17.181,17.181,0,0,1-.741,5.3,22.583,22.583,0,0,1-1.037,2.854c-.578,1.278-.825,1.5-1.024,1.419" transform="translate(-7.809 -10.557)" fill="#595757"/>
    <path id="Path_4203" data-name="Path 4203" d="M51.288,131.059c.061.183.166.463-1.386.93a15.794,15.794,0,0,1-3.749.432c-1.754.04-4.083.077-7.2.026a58.3,58.3,0,0,1-10.808-.91c-1.562-.349-1.585-.565-1.554-.78s.052-.337,1.589-.206c1.54.107,4.6.488,10.8.593l6.525.054a35.54,35.54,0,0,0,3.684-.092c1.663-.177,2.025-.283,2.106-.047" transform="translate(-3.177 -15.599)" fill="#595757"/>
    <path id="Path_4204" data-name="Path 4204" d="M66.385,110.415c.2.091.384.172-.069,1.525-.232.674-.618,1.669-1.284,3.128a57.937,57.937,0,0,1-3.079,5.845,37.031,37.031,0,0,1-3.849,5.3,19.7,19.7,0,0,1-2.46,2.39c-1.176.886-1.345.762-1.49.6s-.225-.265.754-1.251a42.043,42.043,0,0,0,5.931-7.713c2.5-4.22,3.609-6.831,4.362-8.226.726-1.414.981-1.686,1.184-1.595" transform="translate(-6.463 -13.197)" fill="#595757"/>
    <path id="Path_4205" data-name="Path 4205" d="M45.789,120.891c.041.217.08.413-1.326.813a62.6,62.6,0,0,1-10.06,1.541c-11.356.912-11.561.6-11.62.165s-.018-.54,11.5-1.463c5.032-.474,7.875-.926,9.483-1.12s1.983-.154,2.024.065" transform="translate(-2.722 -14.427)" fill="#595757"/>
    <path id="Path_4206" data-name="Path 4206" d="M24.911,214.139c-.719-4.694-5.184-38.945-7.642-53.531a85,85,0,0,1-1.322-10.982,46.124,46.124,0,0,1,.432-8.242,48.78,48.78,0,0,1,2.39-9.589c.255-.711.474-1.285.656-1.758q-.441-.053-.88-.115c-.228.475-.486,1.047-.777,1.753a42.069,42.069,0,0,0-2.637,9.8,45.482,45.482,0,0,0-.46,8.381,84.86,84.86,0,0,0,1.313,10.966c2.807,16.661,7.376,50.892,8.22,55.033s1.042,4.107,1.259,4.07.168-1.093-.551-5.787" transform="translate(-1.75 -15.53)" fill="#595757"/>
    <path id="Path_4207" data-name="Path 4207" d="M70.883,212.681c-.78-4.8-7.81-62.378-12.1-73.286a47.384,47.384,0,0,0-3.936-8.334c-.126.038-.254.075-.387.12a.467.467,0,0,1-.507-.135c-.065.049-.129.1-.193.153a54.029,54.029,0,0,1,3.963,8.871C62.408,151.8,69.3,210.2,70.2,214.425c.916,4.227,1.113,4.195,1.331,4.159s.151-1.113-.649-5.9" transform="translate(-6.426 -15.665)" fill="#595757"/>
    <path id="Path_4208" data-name="Path 4208" d="M58.356,223.416c-.207.077-.394.146-1.69-2.847s-18.032-61.054-19.079-64.207-.905-3.34-.7-3.421.323-.127,1.55,2.891,17.479,59.81,18.717,63.258,1.409,4.248,1.2,4.325" transform="translate(-4.392 -18.279)" fill="#595757"/>
    <path id="Path_4209" data-name="Path 4209" d="M40.147,223.667c-.344.018-.329-6.392-.581-12.569-.731-18-1.766-50.932-1.422-50.95s1.389-3.222,2.437,50.9c.312,16.081-.091,12.6-.434,12.621" transform="translate(-4.551 -19.139)" fill="#595757"/>
    <path id="Path_4210" data-name="Path 4210" d="M35.241,150.789c-.215.052-.409.1-.828-1.019a57.4,57.4,0,0,1-1.965-8.074,57.337,57.337,0,0,1-1.119-8.167c-.024-1.217.169-1.286.388-1.316s.343-.046.576,1.112.571,3.493,1.437,8.128c.814,4.049,1.278,6.36,1.54,7.662.236,1.307.187,1.621-.029,1.674" transform="translate(-3.745 -15.803)" fill="#595757"/>
    <path id="Path_4211" data-name="Path 4211" d="M35.813,150.476c-.21-.085-.372-.167-.146-1.242a26.524,26.524,0,0,0,.531-7.615c-.143-2.165-.362-3.808-.487-5.056s-.191-2.1-.2-2.676c-.014-1.154.179-1.224.4-1.255s.343-.048.569,1.057c.112.552.25,1.383.436,2.636s.435,2.934.586,5.217a18.925,18.925,0,0,1-.77,7.583c-.457,1.234-.732,1.432-.917,1.352" transform="translate(-4.245 -15.853)" fill="#595757"/>
    <path id="Path_4212" data-name="Path 4212" d="M39.23,231.838c.067.188.133.356-.578.733a9.15,9.15,0,0,1-1.789.622,16.9,16.9,0,0,1-7.287.164,9.07,9.07,0,0,1-1.821-.544c-.741-.348-.71-.529-.651-.718s.1-.3.837-.148a23.664,23.664,0,0,0,5.236.55,23.677,23.677,0,0,0,4.938-.693c.829-.188,1.044-.158,1.114.033" transform="translate(-3.237 -27.694)" fill="#595757"/>
    <path id="Path_4213" data-name="Path 4213" d="M73,229.87c.11.166.215.313-.385.851a9.124,9.124,0,0,1-1.586,1.035,16.922,16.922,0,0,1-7.035,1.911,9.074,9.074,0,0,1-1.9-.091c-.8-.158-.816-.342-.8-.541s.021-.313.777-.345a23.714,23.714,0,0,0,5.215-.724,23.731,23.731,0,0,0,4.625-1.86c.761-.382.976-.405,1.09-.235" transform="translate(-7.326 -27.466)" fill="#595757"/>
    <path id="Path_4214" data-name="Path 4214" d="M37.13,242.634a.9.9,0,0,0-1.2.316,5.736,5.736,0,0,0-.652,1.86.839.839,0,0,0-.808.208A52.745,52.745,0,0,1,30.2,248.6a8.276,8.276,0,0,1-1.742,1.288,6.406,6.406,0,0,1-3.882-.285c.046-.088.092-.175.136-.263.513-1.008-1.005-1.9-1.521-.889-.107.211-.225.431-.348.653a1.2,1.2,0,0,0-1.29.472,3.578,3.578,0,0,0-.545,1.788.836.836,0,0,0-.119,1c.025.047.051.085.077.13,0,.165.011.32.021.478a4.879,4.879,0,0,0-.092,2.96,3.53,3.53,0,0,0,4.49,2.256,5.2,5.2,0,0,0,1.135-.481c4.751-.186,15.446-12.113,10.605-15.077" transform="translate(-2.475 -28.989)" fill="#cab7a6"/>
    <path id="Path_4215" data-name="Path 4215" d="M30.748,240.84c-.534.112-1.035.145-1.608-4.121a19.455,19.455,0,0,1-.328-3.685c.054-.555.284-.645.553-.72s.423-.12.644.412a18.853,18.853,0,0,1,.755,3.764c.5,3.759.533,4.241-.015,4.35" transform="translate(-3.442 -27.765)" fill="#595757"/>
    <path id="Path_4216" data-name="Path 4216" d="M38.139,241.554c-.582-.037-.929-.072-.836-4.386a19.41,19.41,0,0,1,.2-3.751c.141-.56.39-.6.667-.625s.434-.036.563.512a20.081,20.081,0,0,1,.211,3.877c-.072,3.874-.271,4.408-.8,4.372" transform="translate(-4.457 -27.826)" fill="#595757"/>
    <path id="Path_4217" data-name="Path 4217" d="M37.068,242c.22.166.427.318-.348,1.639A24.405,24.405,0,0,1,34.6,246.6a24.116,24.116,0,0,1-2.116,2.256c-.444.407-.933.831-1.491,1.25a7.06,7.06,0,0,1-2.093,1.164,3.522,3.522,0,0,1-2.648-.155,2.625,2.625,0,0,1-1.458-2.059,3.849,3.849,0,0,1,.345-1.951,7.612,7.612,0,0,1,.742-1.32,18.513,18.513,0,0,1,2.345-2.846c1.152-1.084,1.394-.927,1.592-.748s.3.283-.586,1.47c-.435.6-1.115,1.477-2.007,2.876a4.17,4.17,0,0,0-.837,2.275.992.992,0,0,0,.567.829,1.906,1.906,0,0,0,1.454.064,9.1,9.1,0,0,0,2.678-1.771,24.922,24.922,0,0,0,1.941-1.889c1.079-1.17,1.814-2.082,2.368-2.72,1.1-1.288,1.448-1.5,1.671-1.334" transform="translate(-2.962 -28.921)" fill="#595757"/>
    <path id="Path_4218" data-name="Path 4218" d="M21.783,257.729a.454.454,0,0,1-.373.159,1.275,1.275,0,0,1-.759-.582,4.41,4.41,0,0,1-.789-2.391,7.654,7.654,0,0,1,1.32-4.566,24.727,24.727,0,0,1,2.762-3.458,17.581,17.581,0,0,1,1.611-1.591c.758-.622.973-.489,1.186-.311s.335.28-.2,1.063c-.269.392-.7.954-1.374,1.78a36.689,36.689,0,0,0-2.589,3.379,7.006,7.006,0,0,0-1.169,3.328,5.333,5.333,0,0,0,.221,1.934c.284.842.389,1.057.157,1.256" transform="translate(-2.372 -29.267)" fill="#595757"/>
    <path id="Path_4219" data-name="Path 4219" d="M36.691,242.143a.333.333,0,0,1,.332-.289,1.91,1.91,0,0,1,1.469.8,3.851,3.851,0,0,1,.814,1.654,4.68,4.68,0,0,1,.122,1.25,5.058,5.058,0,0,1-.3,1.473,9.794,9.794,0,0,1-1.892,3.043c-.865,1-1.841,2.064-2.972,3.315a29.573,29.573,0,0,1-3.176,3.147,11.184,11.184,0,0,1-3.016,1.81,6.983,6.983,0,0,1-4.281.357,2.681,2.681,0,0,1-1.456-.789.355.355,0,0,1-.041-.457.307.307,0,0,1,.328-.209c.2.008.563.119,1.288.224a6.936,6.936,0,0,0,3.487-.514A10.054,10.054,0,0,0,30,255.34a30.211,30.211,0,0,0,3.047-3.05c1.948-2.2,3.672-3.826,4.386-5.24a4.178,4.178,0,0,0,.538-1.886,3.558,3.558,0,0,0-.244-1.365,3.294,3.294,0,0,0-.823-1.2c-.2-.2-.262-.321-.217-.459" transform="translate(-2.657 -28.91)" fill="#595757"/>
    <path id="Path_4220" data-name="Path 4220" d="M73.96,238.527c-.561.091-.934.217-1.808-3.364a8.139,8.139,0,0,1-.345-3.253c.122-.506.374-.542.649-.57s.433-.039.572.383.3,1.287.718,3.063c.765,3.118.756,3.651.214,3.741" transform="translate(-8.577 -27.652)" fill="#595757"/>
    <path id="Path_4221" data-name="Path 4221" d="M100.327,215.289c-1.018-.031-2.019,1.072-2.488,1.862a5.8,5.8,0,0,0-.682,1.878c-.018.012-.038.015-.055.029-.89.726-.709,1.618-.128,2.449a.846.846,0,0,0,.408.505,10.734,10.734,0,0,0,2.339,1.863c.888.519,1.562.741,2.3-.108a5.526,5.526,0,0,0,1.159-3.311c.067-1.537-.831-5.107-2.856-5.168" transform="translate(-11.534 -25.735)" fill="#a19285"/>
    <path id="Path_4222" data-name="Path 4222" d="M96.975,209.94c-.237-.631-.829-.961-1.165-1.558-.652-1.159-.8-2.406-1.6-3.52-4.688-6.578-29.655-9.716-27.254,3.038a.74.74,0,0,0,.35.524c.084,1.929-.237,2.923,1.836,4.674,1.972,1.667,4.671,4.36,7.224,5.2a12.092,12.092,0,0,0,4.1.462c5.208.815,11.015-.355,14.831-4.179,1.283-1.285,2.362-2.817,1.676-4.643" transform="translate(-7.985 -23.803)" fill="#fce7d6"/>
    <path id="Path_4223" data-name="Path 4223" d="M79.178,212.406a.768.768,0,0,0-1.21-.5.91.91,0,0,0-1.277.776,6.319,6.319,0,0,0,.878,3.523.891.891,0,0,0,1.609-.21,10.447,10.447,0,0,0,0-3.588" transform="translate(-9.167 -25.315)" fill="#fff"/>
    <path id="Path_4224" data-name="Path 4224" d="M100.952,199.124a19.077,19.077,0,0,0-1.919-4.546.855.855,0,0,0,.118-.992,18.529,18.529,0,0,0-17.332-10.012.846.846,0,0,0-.8.633c-1.176.03-2.356.115-3.525.242a.905.905,0,0,0-.781.629,16.982,16.982,0,0,0-1.7.609c-2.11.9-4.564,2.394-5.145,4.8-.025.1-.035.195-.051.291a.8.8,0,0,0-1.024.122c-3.544,3.51-2.987,8.462-3.716,13.012-.175,1.094,1.44,1.595,1.7.469a8.982,8.982,0,0,1,1.871-3.719c.52-.645,1.506-1.325,1.849-2.086a1.751,1.751,0,0,0,.145-.861,24.2,24.2,0,0,0,2.546,2.92,11.937,11.937,0,0,0,8.019,3.76.745.745,0,0,0,.752-.447,14.28,14.28,0,0,0,1.479.4.86.86,0,0,0,.965-.454c.379.142.762.277,1.149.4a.772.772,0,0,0,1.011-.518c.314.169.63.336.952.494a.913.913,0,0,0,1.212-.4,48.361,48.361,0,0,0,4.752,1.82.793.793,0,0,0,.1.056l.028.008c1.163,1.8,4.2,2.066,4.406,4.308a.894.894,0,0,0,1.5.622c3.016-2.681,2.41-8.044,1.435-11.565" transform="translate(-7.777 -21.942)" fill="#a19285"/>
    <path id="Path_4225" data-name="Path 4225" d="M73.994,220.052c-.108-.18-.225-.339-.339-.5a2.834,2.834,0,0,0-.506-1.252c-.97-1.285-3.161-2.355-4.474-3.211-2.025-1.319-4.114-2.515-6.251-3.641a.992.992,0,0,0-.124-.043c-.171-.276-.348-.548-.542-.809-.67-.9-2.2-.021-1.521.889,1.94,2.6,2.719,6.04,4.475,8.812a33.289,33.289,0,0,0,5.892,6.895.89.89,0,0,0,1.471-.388,40.528,40.528,0,0,0,1.583-5.569.817.817,0,0,0,.337-1.179" transform="translate(-7.18 -25.128)" fill="#fce7d6"/>
    <path id="Path_4226" data-name="Path 4226" d="M85.125,253.026c-.254-.978-.394-2.53-1.194-3.28a2.481,2.481,0,0,0-1.406-.558,3.428,3.428,0,0,0-2.289-.047,1.375,1.375,0,0,0-.63.394,1.247,1.247,0,0,0-1.237,1.337c0,.114,0,.227,0,.34a1.288,1.288,0,0,0,.449,1.018,16.717,16.717,0,0,1,1.165,3.545c.186,1.141-.723,1.986-.64,3.1.2,2.662,3.387,1.35,4.392.081.031-.039.055-.089.085-.129a1.491,1.491,0,0,0,1.268-.044c1.978-.863.392-4.392.037-5.756" transform="translate(-9.368 -29.761)" fill="#fce7d6"/>
    <path id="Path_4227" data-name="Path 4227" d="M98.634,252.163c-.379-1.263-.615-3.15-1.484-4.177-1.078-1.274-4.025-.94-4.963.515a1.514,1.514,0,0,0-1.066,2.091,33.94,33.94,0,0,1,1.67,4.357,7.368,7.368,0,0,1,.559,2.083,1.654,1.654,0,0,1-.495,1.182,1.406,1.406,0,0,0,.836,2.056c2.013.364,5.108-2.082,5.608-4.07.338-1.345-.286-2.775-.666-4.037" transform="translate(-10.875 -29.549)" fill="#fce7d6"/>
    <path id="Path_4228" data-name="Path 4228" d="M98.5,235.458c-1.777-4-2.821-8.189-4.451-12.211a7.871,7.871,0,0,0-1.619-2.959.141.141,0,0,1-.017.008,22.57,22.57,0,0,1-5.579.6A10.645,10.645,0,0,1,84.9,222.4c-.7.283-1.538-.333-2.309-.274-.135.033-.289.057-.43.088-1.2-.117-2.284.136-3.349-.368a1.384,1.384,0,0,0-.831-.106,2.007,2.007,0,0,1-.6-.924c-.674-.007-1.343-.026-2.016-.1a.451.451,0,0,1-.253-.107,17.665,17.665,0,0,0-.094,2.978c-.1.216-.21.424-.3.655a1.329,1.329,0,0,0-.086.531,1.619,1.619,0,0,0-.093.454c-.01.187,0,.365,0,.547a1.406,1.406,0,0,0-.295.307c-3.581,5.653-.332,11.675-1.5,17.8a1.422,1.422,0,0,0,1.35,1.771,92.157,92.157,0,0,0,23.248-2.206c5.267-1.248,2.972-3.9,1.155-7.993" transform="translate(-8.667 -26.332)" fill="#face8f"/>
    <path id="Path_4229" data-name="Path 4229" d="M70.884,226.961c-.131.152-.3.357-2-1.111a34.693,34.693,0,0,1-3.635-3.866c-.8-.972-1.7-2.129-2.673-3.538a32.693,32.693,0,0,1-3-5.147,8.449,8.449,0,0,1-.544-1.623,2.759,2.759,0,0,1-.044-.991,1.232,1.232,0,0,1,.871-1.005,2.006,2.006,0,0,1,1.042.027,5.039,5.039,0,0,1,.733.237,12.621,12.621,0,0,1,1.24.576,37.765,37.765,0,0,1,3.744,2.336c2.043,1.43,3.346,2.484,4.21,3.215,1.718,1.477,1.649,1.7,1.515,1.867s-.2.262-2-1.009c-.9-.63-2.238-1.607-4.288-2.984a43.152,43.152,0,0,0-3.685-2.247,12.154,12.154,0,0,0-1.131-.527,4.867,4.867,0,0,0-.578-.2,2.588,2.588,0,0,0-.4-.066v0a1.754,1.754,0,0,0,.038.486,7.127,7.127,0,0,0,.468,1.386,43.039,43.039,0,0,0,4.864,7.716c1.436,1.875,2.562,3.162,3.379,4.077,1.649,1.814,2.028,2.2,1.872,2.384" transform="translate(-7.048 -25.057)" fill="#595757"/>
    <path id="Path_4230" data-name="Path 4230" d="M75.19,219.493c.214-.025.431-.043.593.606a10.386,10.386,0,0,1-.3,4.54,10.246,10.246,0,0,1-1.839,4.121c-.446.507-.626.42-.815.308s-.3-.18-.062-.747a22.639,22.639,0,0,0,1.455-3.992,24.489,24.489,0,0,0,.583-3.984c.064-.682.16-.829.383-.851" transform="translate(-8.683 -26.236)" fill="#595757"/>
    <path id="Path_4231" data-name="Path 4231" d="M72.716,230.454c.407-.011.9.021.55,7.821-.173,3.816-.239,5.736-.35,6.725s-.3,1.038-.518,1.05-.348.022-.46-.964a52.133,52.133,0,0,1,.029-6.867c.318-6.82.286-7.759.748-7.766" transform="translate(-8.588 -27.547)" fill="#595757"/>
    <path id="Path_4232" data-name="Path 4232" d="M72.455,247.889c.114-.014.2.011.346.156a.8.8,0,0,0,.332.2c.094.033.5.008.924.042a87.432,87.432,0,0,0,12.5-.363,106.494,106.494,0,0,0,12.29-1.845c1.777-.384,1.907-.249,1.983-.033.073.2.125.342-1.615.947a60.042,60.042,0,0,1-12.54,2.225,57.808,57.808,0,0,1-12.064.122c-.513-.063-.929-.158-1.257-.224a1.652,1.652,0,0,1-.547-.185,1.066,1.066,0,0,1-.362-.356c-.265-.512-.075-.693.006-.687" transform="translate(-8.644 -29.386)" fill="#595757"/>
    <path id="Path_4233" data-name="Path 4233" d="M103.487,242.929a.455.455,0,0,1,.011-.36.548.548,0,0,0,.009-.3c-.018-.03-.194-.4-.323-.733-.578-1.446-1.521-4.4-3.884-10.139-2.368-5.612-3.755-8.4-4.342-9.873-.6-1.469-.47-1.609-.275-1.718s.313-.168,1.1,1.188a92.5,92.5,0,0,1,4.712,9.9,76.613,76.613,0,0,1,3.456,9.8c.11.428.192.775.249,1.054.014.07.026.136.039.2a1.057,1.057,0,0,1,.022.306.937.937,0,0,1-.162.457c-.355.431-.608.3-.616.215" transform="translate(-11.298 -26.269)" fill="#595757"/>
    <path id="Path_4234" data-name="Path 4234" d="M80.648,258.373c-.422.126-.763.228-2.112-4.294-1.324-4.438-1.007-4.624-.586-4.749s.481-.144,1.83,4.378c1.182,3.959,1.29,4.54.868,4.666" transform="translate(-9.274 -29.8)" fill="#595757"/>
    <path id="Path_4235" data-name="Path 4235" d="M84.692,249.069c.219-.018.418-.033.7,1.249.143.641.306,1.606.5,3.056.092.726.2,1.573.324,2.56q.044.37.09.768a2.605,2.605,0,0,1-.048,1.1,4.212,4.212,0,0,1-1.154,1.819,9.643,9.643,0,0,1-.743.667l-.34.276c-.026.024-.124.1-.229.176l-.238.139a7.72,7.72,0,0,1-1.63.6,5.464,5.464,0,0,1-1.54.19,1.849,1.849,0,0,1-1.529-.718,1.494,1.494,0,0,1,.006-1.515,3.715,3.715,0,0,1,.55-.8,7.121,7.121,0,0,1,.971-.911c1.111-.82,1.3-.646,1.423-.482.143.183.189.247-.7,1.144-.212.228-.485.511-.77.877a3.737,3.737,0,0,0-.381.6.56.56,0,0,0-.1.4c0,.027.148.142.5.151a4.28,4.28,0,0,0,1.19-.158,6.935,6.935,0,0,0,1.366-.5c.059-.027.093-.054.141-.079a.958.958,0,0,0,.106-.081l.36-.295a8.552,8.552,0,0,0,.659-.591,3.311,3.311,0,0,0,.777-1.1A2,2,0,0,0,85,256.5c-.094-.913-.177-1.717-.25-2.423-.141-1.413-.23-2.438-.275-3.177-.089-1.477,0-1.812.22-1.83" transform="translate(-9.402 -29.772)" fill="#595757"/>
    <path id="Path_4236" data-name="Path 4236" d="M93.993,257.752c-.415.147-.751.266-2.3-4.114-1.519-4.3-1.212-4.5-.8-4.644s.474-.167,2.022,4.211c1.356,3.835,1.489,4.4,1.074,4.547" transform="translate(-10.825 -29.759)" fill="#595757"/>
    <path id="Path_4237" data-name="Path 4237" d="M97.667,247.317c.217-.036.411-.068.785,1.261.188.665.42,1.67.742,3.178.161.753.35,1.631.57,2.655l.383,1.623a2.114,2.114,0,0,1-.1,1.325,3.25,3.25,0,0,1-.712,1.02,15.154,15.154,0,0,1-1.51,1.2,5.358,5.358,0,0,1-1.582.985,6.533,6.533,0,0,1-1.522.483,2.344,2.344,0,0,1-1.642-.211,2.3,2.3,0,0,1-.359-.336,1.762,1.762,0,0,1-.205-.447,1.728,1.728,0,0,1,.017-.766,3.4,3.4,0,0,1,.434-.954,6.587,6.587,0,0,1,.879-1.1c1.041-1.012,1.254-.858,1.4-.712.165.165.216.221-.59,1.27a10.674,10.674,0,0,0-.67,1.018,2.829,2.829,0,0,0-.285.662c-.046.245-.022.294.022.312a1,1,0,0,0,.71.038,5.386,5.386,0,0,0,1.238-.4,4.55,4.55,0,0,0,1.242-.755c.613-.522,1.072-.759,1.506-1.2a1.286,1.286,0,0,0,.5-.982l-.014-.106-.047-.193-.093-.386q-.083-.378-.163-.733c-.2-.949-.36-1.781-.493-2.514-.265-1.466-.428-2.53-.527-3.3-.2-1.539-.124-1.9.092-1.934" transform="translate(-11.054 -29.562)" fill="#595757"/>
    <path id="Path_4238" data-name="Path 4238" d="M70.884,226.961c-.131.152-.3.357-2-1.111a34.693,34.693,0,0,1-3.635-3.866c-.8-.972-1.7-2.129-2.673-3.538a32.693,32.693,0,0,1-3-5.147,8.449,8.449,0,0,1-.544-1.623,2.759,2.759,0,0,1-.044-.991,1.232,1.232,0,0,1,.871-1.005,2.006,2.006,0,0,1,1.042.027,5.039,5.039,0,0,1,.733.237,12.621,12.621,0,0,1,1.24.576,37.765,37.765,0,0,1,3.744,2.336c2.043,1.43,3.346,2.484,4.21,3.215,1.718,1.477,1.649,1.7,1.515,1.867s-.2.262-2-1.009c-.9-.63-2.238-1.607-4.288-2.984a43.152,43.152,0,0,0-3.685-2.247,12.154,12.154,0,0,0-1.131-.527,4.867,4.867,0,0,0-.578-.2,2.588,2.588,0,0,0-.4-.066v0a1.754,1.754,0,0,0,.038.486,7.127,7.127,0,0,0,.468,1.386,43.039,43.039,0,0,0,4.864,7.716c1.436,1.875,2.562,3.162,3.379,4.077,1.649,1.814,2.028,2.2,1.872,2.384" transform="translate(-7.048 -25.057)" fill="#595757"/>
    <path id="Path_4239" data-name="Path 4239" d="M75.19,219.493c.214-.025.431-.043.593.606a10.386,10.386,0,0,1-.3,4.54,10.246,10.246,0,0,1-1.839,4.121c-.446.507-.626.42-.815.308s-.3-.18-.062-.747a22.639,22.639,0,0,0,1.455-3.992,24.489,24.489,0,0,0,.583-3.984c.064-.682.16-.829.383-.851" transform="translate(-8.683 -26.236)" fill="#595757"/>
    <path id="Path_4240" data-name="Path 4240" d="M72.716,230.454c.407-.011.9.021.55,7.821-.173,3.816-.239,5.736-.35,6.725s-.3,1.038-.518,1.05-.348.022-.46-.964a52.133,52.133,0,0,1,.029-6.867c.318-6.82.286-7.759.748-7.766" transform="translate(-8.588 -27.547)" fill="#595757"/>
    <path id="Path_4241" data-name="Path 4241" d="M72.455,247.889c.114-.014.2.011.346.156a.8.8,0,0,0,.332.2c.094.033.5.008.924.042a87.432,87.432,0,0,0,12.5-.363,106.494,106.494,0,0,0,12.29-1.845c1.777-.384,1.907-.249,1.983-.033.073.2.125.342-1.615.947a60.042,60.042,0,0,1-12.54,2.225,57.808,57.808,0,0,1-12.064.122c-.513-.063-.929-.158-1.257-.224a1.652,1.652,0,0,1-.547-.185,1.066,1.066,0,0,1-.362-.356c-.265-.512-.075-.693.006-.687" transform="translate(-8.644 -29.386)" fill="#595757"/>
    <path id="Path_4242" data-name="Path 4242" d="M103.487,242.929a.455.455,0,0,1,.011-.36.548.548,0,0,0,.009-.3c-.018-.03-.194-.4-.323-.733-.578-1.446-1.521-4.4-3.884-10.139-2.368-5.612-3.755-8.4-4.342-9.873-.6-1.469-.47-1.609-.275-1.718s.313-.168,1.1,1.188a92.5,92.5,0,0,1,4.712,9.9,76.613,76.613,0,0,1,3.456,9.8c.11.428.192.775.249,1.054.014.07.026.136.039.2a1.057,1.057,0,0,1,.022.306.937.937,0,0,1-.162.457c-.355.431-.608.3-.616.215" transform="translate(-11.298 -26.269)" fill="#595757"/>
    <path id="Path_4243" data-name="Path 4243" d="M80.648,258.373c-.422.126-.763.228-2.112-4.294-1.324-4.438-1.007-4.624-.586-4.749s.481-.144,1.83,4.378c1.182,3.959,1.29,4.54.868,4.666" transform="translate(-9.274 -29.8)" fill="#595757"/>
    <path id="Path_4244" data-name="Path 4244" d="M84.692,249.069c.219-.018.418-.033.7,1.249.143.641.306,1.606.5,3.056.092.726.2,1.573.324,2.56q.044.37.09.768a2.605,2.605,0,0,1-.048,1.1,4.212,4.212,0,0,1-1.154,1.819,9.643,9.643,0,0,1-.743.667l-.34.276c-.026.024-.124.1-.229.176l-.238.139a7.72,7.72,0,0,1-1.63.6,5.464,5.464,0,0,1-1.54.19,1.849,1.849,0,0,1-1.529-.718,1.494,1.494,0,0,1,.006-1.515,3.715,3.715,0,0,1,.55-.8,7.121,7.121,0,0,1,.971-.911c1.111-.82,1.3-.646,1.423-.482.143.183.189.247-.7,1.144-.212.228-.485.511-.77.877a3.737,3.737,0,0,0-.381.6.56.56,0,0,0-.1.4c0,.027.148.142.5.151a4.28,4.28,0,0,0,1.19-.158,6.935,6.935,0,0,0,1.366-.5c.059-.027.093-.054.141-.079a.958.958,0,0,0,.106-.081l.36-.295a8.552,8.552,0,0,0,.659-.591,3.311,3.311,0,0,0,.777-1.1A2,2,0,0,0,85,256.5c-.094-.913-.177-1.717-.25-2.423-.141-1.413-.23-2.438-.275-3.177-.089-1.477,0-1.812.22-1.83" transform="translate(-9.402 -29.772)" fill="#595757"/>
    <path id="Path_4245" data-name="Path 4245" d="M93.993,257.752c-.415.147-.751.266-2.3-4.114-1.519-4.3-1.212-4.5-.8-4.644s.474-.167,2.022,4.211c1.356,3.835,1.489,4.4,1.074,4.547" transform="translate(-10.825 -29.759)" fill="#595757"/>
    <path id="Path_4246" data-name="Path 4246" d="M97.667,247.317c.217-.036.411-.068.785,1.261.188.665.42,1.67.742,3.178.161.753.35,1.631.57,2.655l.383,1.623a2.114,2.114,0,0,1-.1,1.325,3.25,3.25,0,0,1-.712,1.02,15.154,15.154,0,0,1-1.51,1.2,5.358,5.358,0,0,1-1.582.985,6.533,6.533,0,0,1-1.522.483,2.344,2.344,0,0,1-1.642-.211,2.3,2.3,0,0,1-.359-.336,1.762,1.762,0,0,1-.205-.447,1.728,1.728,0,0,1,.017-.766,3.4,3.4,0,0,1,.434-.954,6.587,6.587,0,0,1,.879-1.1c1.041-1.012,1.254-.858,1.4-.712.165.165.216.221-.59,1.27a10.674,10.674,0,0,0-.67,1.018,2.829,2.829,0,0,0-.285.662c-.046.245-.022.294.022.312a1,1,0,0,0,.71.038,5.386,5.386,0,0,0,1.238-.4,4.55,4.55,0,0,0,1.242-.755c.613-.522,1.072-.759,1.506-1.2a1.286,1.286,0,0,0,.5-.982l-.014-.106-.047-.193-.093-.386q-.083-.378-.163-.733c-.2-.949-.36-1.781-.493-2.514-.265-1.466-.428-2.53-.527-3.3-.2-1.539-.124-1.9.092-1.934" transform="translate(-11.054 -29.562)" fill="#595757"/>
    <path id="Path_4247" data-name="Path 4247" d="M67.378,212.828c0-.708.02-1.4.02-2.113.01-.549-.117-.575-.351-.617s-.452-.063-.7.49a6.615,6.615,0,0,0-.49,1.607,3.125,3.125,0,0,1,1.516.634" transform="translate(-7.873 -25.112)" fill="#595757"/>
    <path id="Path_4248" data-name="Path 4248" d="M77.5,204.41a13.981,13.981,0,0,1-3.123-2.03,13.358,13.358,0,0,1-2.663-3.1,5.515,5.515,0,0,1-.829-1.753,5.233,5.233,0,0,0-.128-.622c-.046-.106-.134-.139-.247-.175a.33.33,0,0,0-.357.038,1.234,1.234,0,0,0-.307.952,4.857,4.857,0,0,0,.777,2.3c.026.048.057.1.085.145a.7.7,0,0,0-.519.173,14.268,14.268,0,0,0-2.361,2.412,4.975,4.975,0,0,0-1.373,3.367c.08.553.318.548.548.563s.362-.1.522-.542a8.3,8.3,0,0,1,1.4-2.525,23.846,23.846,0,0,0,2.115-2.655,1.4,1.4,0,0,0,.063-.147,13.559,13.559,0,0,0,6.214,4.967,8.564,8.564,0,0,0,2.243.558c.978.061,1.006-.167,1.048-.4.042-.246-.168-.385-1.117-.712a18.464,18.464,0,0,1-2-.811" transform="translate(-7.942 -23.512)" fill="#595757"/>
    <path id="Path_4249" data-name="Path 4249" d="M91.311,203.74a20.509,20.509,0,0,1-2.766-3.053c-.371-.466-.49-.4-.695-.283s-.383.241-.175.878a11.186,11.186,0,0,0,6.635,5.707c.651.1.722-.1.81-.318s-.008-.4-.581-.74a20.587,20.587,0,0,1-3.229-2.191" transform="translate(-10.469 -23.945)" fill="#595757"/>
    <path id="Path_4250" data-name="Path 4250" d="M97.419,208.373a.622.622,0,0,0,.515.509c.211.069.428-.005.548-.59a6.052,6.052,0,0,0-.6-2.994,10.817,10.817,0,0,0-1.388-2.737c-.284-.342-.4-.269-.6-.149a.551.551,0,0,0-.3.689,20.268,20.268,0,0,0,.987,2.692,22.391,22.391,0,0,1,.843,2.581" transform="translate(-11.424 -24.183)" fill="#595757"/>
    <path id="Path_4251" data-name="Path 4251" d="M71.365,210.34a3.912,3.912,0,0,0,.8-.173l.13-.054a1.463,1.463,0,0,1,.164-.07.882.882,0,0,0,.264-.177.578.578,0,0,0,.174-.408.474.474,0,0,0-.109-.32.385.385,0,0,0-.174-.116.335.335,0,0,0-.219.005.354.354,0,0,0-.153.1c-.009-.037-.018-.069-.027-.116l-.02-.136c-.007-.011-.018,0-.026-.006a2.43,2.43,0,0,0-.249,0c-.189.011-.43.039-.734.079-1.395.185-1.386.251-1.324.72s.139.847,1.507.666m.985-.955.022-.01c-.01,0-.018,0,0,.017v0l-.011,0-.009-.009m0,.007h0Zm.039-.024-.009,0c.017-.01.024-.015.009,0" transform="translate(-8.348 -24.967)" fill="#595757"/>
    <path id="Path_4252" data-name="Path 4252" d="M85.917,210.006c-.2.431-.331.791,1.171,1.389,1.531.61,1.651.242,1.8-.208s-.009-.583-1.289-1.092c-1.462-.582-1.491-.52-1.687-.09" transform="translate(-10.256 -25.063)" fill="#595757"/>
    <path id="Path_4253" data-name="Path 4253" d="M65.272,201.986a14.79,14.79,0,0,1,.785-4.2,14.217,14.217,0,0,1,2.218-4.128,10.253,10.253,0,0,1,1.588-1.715,6.632,6.632,0,0,0,.625-.487.3.3,0,0,0,.039-.306.323.323,0,0,0-.239-.28,1.561,1.561,0,0,0-1.07.237A7.274,7.274,0,0,0,67.2,192.9a13.755,13.755,0,0,0-2.469,4.434,14.243,14.243,0,0,0-.787,5.079,9.725,9.725,0,0,0,.416,2.605c.376,1.051.6.982.82.925.245-.064.269-.344.158-1.489a17.923,17.923,0,0,1-.07-2.469" transform="translate(-7.643 -22.813)" fill="#595757"/>
    <path id="Path_4254" data-name="Path 4254" d="M102.185,198.11a21.768,21.768,0,0,0-2.043-5.885,19.671,19.671,0,0,0-4.947-6.211,16.241,16.241,0,0,0-8.236-3.418,19.056,19.056,0,0,0-6.692.392,22.517,22.517,0,0,0-4.514,1.591,13.177,13.177,0,0,0-2.793,1.686,3.928,3.928,0,0,0-1.647,2.694c-.006.477.107.475.218.484s.22-.032.4-.424a4.848,4.848,0,0,1,1.822-2.04,15.707,15.707,0,0,1,2.7-1.395,22.773,22.773,0,0,1,4.3-1.361,18.02,18.02,0,0,1,6.164-.243,14.967,14.967,0,0,1,7.391,3.118,17.505,17.505,0,0,1,3.021,3.227,19.793,19.793,0,0,1,1.992,3.341,21.8,21.8,0,0,1,1.788,6.014,21.242,21.242,0,0,1,.2,4.512,23.38,23.38,0,0,1-.375,3.02c-.149.786-.3,1.371-.392,1.817a7.1,7.1,0,0,0-.205.947c-.05.417.053.464.162.51s.268-.108.578-.717a7.694,7.694,0,0,0,.535-1.3,17.475,17.475,0,0,0,.608-2.238,21.216,21.216,0,0,0-.037-8.12" transform="translate(-8.524 -21.811)" fill="#595757"/>
    <path id="Path_4255" data-name="Path 4255" d="M100.722,216.893a15.428,15.428,0,0,0-1.146-1.148c-.512-.445-.612-.354-.786-.194s-.315.325.035.935a12.307,12.307,0,0,0,.931,1.3,2.849,2.849,0,0,1,.8,2.26,6.006,6.006,0,0,1-.525,1.477l-.564,1.158c-.2.392-.372.672-.514.895a5.611,5.611,0,0,1-1.183-.213,5.193,5.193,0,0,1-2.011-1.081,3.411,3.411,0,0,1-1.138-2.059,3.794,3.794,0,0,1,.022-1.2,2.014,2.014,0,0,0,.04-.3c.02-.022.041-.038.061-.061a7.817,7.817,0,0,0,1.182-1.821c.086-.189.15-.349.2-.495a3.023,3.023,0,0,0,1.591-.394,3.173,3.173,0,0,0,1.063-4.524,2.9,2.9,0,0,0-1.181-.965,2.686,2.686,0,0,0-1.764-.181c-.735.249-.631.446-.536.636.1.23.239.346.734.4a2.8,2.8,0,0,1,1.035.347,1.7,1.7,0,0,1,.85,1.613,1.926,1.926,0,0,1-1.028,1.625,3.314,3.314,0,0,1-.819.316,1.567,1.567,0,0,0-.136-.077c-.21-.109-.381-.07-.674.328a26.72,26.72,0,0,1-1.569,2.268,5.484,5.484,0,0,1-2.168,1.521c-.317.138-.335.255-.313.46a4.959,4.959,0,0,0-1.567-.008,64.765,64.765,0,0,1-8.206.342,18.44,18.44,0,0,1-5.587-.725,7.29,7.29,0,0,0-.019,1.079c.1.383-.031.206.333.4a5.307,5.307,0,0,0,1.455.276,30.268,30.268,0,0,0,3.761.37,37.385,37.385,0,0,0,5.894-.232,23.088,23.088,0,0,0,2.973-.524c.823-.225,1.075-.4,1.144-.552a.721.721,0,0,0,.406.133,2.926,2.926,0,0,0,1.528-.443,3.815,3.815,0,0,0,0,.6,4.39,4.39,0,0,0,1.5,2.885,5.742,5.742,0,0,0,2.891,1.38,4.233,4.233,0,0,0,.824.05c.009.015.013.029.022.043.1.191.388.276,1.079-.285.024-.02.05-.048.075-.07a.6.6,0,0,0,.158-.151,6.091,6.091,0,0,0,.873-1.191c.2-.336.388-.695.608-1.139a6.232,6.232,0,0,0,.582-1.682,3.4,3.4,0,0,0-.336-2.157,5.975,5.975,0,0,0-.874-1.22" transform="translate(-9.061 -25.127)" fill="#595757"/>
    <path id="Path_4256" data-name="Path 4256" d="M83.554,204.187a8.11,8.11,0,0,1-1.1-1.954c-.14-.3-.276-.28-.508-.238a.51.51,0,0,0-.508.515,4.6,4.6,0,0,0,3.4,4.077c.428.011.493-.195.578-.416s.048-.374-.247-.6a8.139,8.139,0,0,1-1.611-1.388" transform="translate(-9.734 -24.143)" fill="#595757"/>
    <path id="Path_4257" data-name="Path 4257" d="M86.56,204.371a13.561,13.561,0,0,1-1.118-1.651c-.17-.241-.3-.2-.524-.124s-.426.151-.448.532a4.515,4.515,0,0,0,3.05,3.495c.375.026.465-.171.572-.381s.1-.364-.143-.591a13.884,13.884,0,0,1-1.389-1.279" transform="translate(-10.097 -24.21)" fill="#595757"/>
    <path id="Path_4258" data-name="Path 4258" d="M78.289,217.574c2.561.119,2.293-4.2,2.15-5.788a.55.55,0,0,0-.077-.241.53.53,0,0,0-.581-.408,6.948,6.948,0,0,1-3.141-.406.593.593,0,0,0-.757.748c-.25,1.837-.239,5.973,2.406,6.1m-1.327-5.563a8.177,8.177,0,0,0,2.38.274c.084,1.249.171,4.508-1.287,4.086-1.281-.372-1.222-3.063-1.093-4.36" transform="translate(-9.059 -25.185)" fill="#595757"/>
  </g>
</svg>
