<svg xmlns="http://www.w3.org/2000/svg" xmlns:xlink="http://www.w3.org/1999/xlink" width="96.359" height="75.34" viewBox="0 0 96.359 75.34">
  <defs>
    <clipPath id="clip-path">
      <rect id="Rectangle_286" data-name="Rectangle 286" width="96.359" height="75.34" fill="rgba(0,0,0,0)"/>
    </clipPath>
  </defs>
  <g id="Group_926" data-name="Group 926" transform="translate(0)">
    <g id="Group_925" data-name="Group 925" transform="translate(0 0)" clip-path="url(#clip-path)">
      <path id="Path_975" data-name="Path 975" d="M92.912,39a23.685,23.685,0,0,0-2.242-4.44C88.011,29,83.5,25.3,78.127,22.891a62.475,62.475,0,0,0-12.5-5.821A54.136,54.136,0,0,0,28.508,18.2a65.72,65.72,0,0,0-6.947,3.254c-5.773,1.694-10.937,4.471-14.646,9.036a2.784,2.784,0,0,0-1.62,1.292,16.243,16.243,0,0,0-1.776,4.077,2.691,2.691,0,0,0-.855,2.959c.021.078.045.153.067.229A7.511,7.511,0,0,0,1.4,44.565c.715,5.858,5.736,10.689,10.336,13.814a2.575,2.575,0,0,0,2.792.1c.4.345.8.685,1.2,1.015a3.213,3.213,0,0,0,1.485.651c.251.229.485.467.741.691,2.475,2.17,6.456-.562,4.687-3.616a15.969,15.969,0,0,1-1.686-3.953c1.608.672,3.875.079,4.178-1.866.557-3.571,10.21-4.473,12.981-4.915A129.115,129.115,0,0,1,52.34,45.169a48.051,48.051,0,0,1,11.223.441c3.466,1.5,6.559,3.637,8.409,6.734a14.876,14.876,0,0,1-1.08,7.713c-1.04,2.623,2.3,4.425,4.384,3.37C84.777,58.619,97.742,52,92.912,39M13.488,46.836a3.157,3.157,0,0,0,.135-.786c.053-1.286.149-2.568.233-3.851a2.461,2.461,0,0,0,.2.345c-.029,1.746,0,3.488.061,5.229-.218-.306-.415-.627-.627-.937" transform="translate(0.257 2.776)" fill="#eeeeef"/>
      <path id="Path_976" data-name="Path 976" d="M66.735,50.29C65.164,43.608,54.77,41.366,49.07,40.7a36.584,36.584,0,0,0-19.487,3.092,2.808,2.808,0,0,0-4.5-.52c-4.4,4.638-6.963,10.426-2.1,15.815,4.294,4.755,11.2,6.838,17.443,6.653a2.817,2.817,0,0,0,2.152-1.006,24.337,24.337,0,0,0,12.11-.664c5.933-1.843,13.792-6.341,12.044-13.781M46.466,59.265c-.289-.013-.637-.05-1.012-.1a2.8,2.8,0,0,0,.461-.285,17.511,17.511,0,0,0,2.5.358,18.084,18.084,0,0,1-1.952.027m12.888-4.344A8.869,8.869,0,0,1,56.23,57.3a6.358,6.358,0,0,0,1.486-1.479c1.817-1.384,2.549-3.317,1.831-5.229.992,1.117,1.2,2.534-.193,4.327" transform="translate(3.943 7.839)" fill="#c8c9ca"/>
      <path id="Path_977" data-name="Path 977" d="M15.974,39.932a20.914,20.914,0,0,0-6.346-2.013A3.088,3.088,0,0,0,5.956,40c-.382,1.393.478,3.45,2.086,3.671a16.231,16.231,0,0,1,4.92,1.411,3.063,3.063,0,0,0,4.084-1.071,3.012,3.012,0,0,0-1.071-4.083" transform="translate(1.137 7.339)" fill="#eb6d65"/>
      <path id="Path_978" data-name="Path 978" d="M48.082,30.224c-11.23-.632-23.095,1.711-29.456,11.848-.819,1.3,1.245,2.5,2.062,1.2,5.1-8.12,14.224-10.682,23.354-10.769,9.381-.09,22.936,1.712,24.1,13.456.15,1.515,2.539,1.53,2.388,0-1.14-11.5-12.4-15.174-22.446-15.74" transform="translate(3.573 5.838)" fill="#dbdcdc"/>
      <path id="Path_979" data-name="Path 979" d="M96.227,29C90.024,9.691,66.12,4.08,48.107,4.811,30.494,5.527,9.038,9.7.491,27.065c-.677,1.374,1.382,2.585,2.062,1.2,7.9-16.047,27.241-19.881,43.5-20.959,17.3-1.146,41.794,3.42,47.867,22.32.469,1.456,2.774.833,2.3-.635" transform="translate(0.069 0.92)" fill="#eeeeef"/>
      <line id="Line_214" data-name="Line 214" y2="17.973" transform="translate(95.677 26.688)" fill="none" stroke="#595757" stroke-miterlimit="10" stroke-width="1.139"/>
      <path id="Path_980" data-name="Path 980" d="M27.019,65.59C11.346,61.242.569,52.192.569,41.731c0-14.7,21.266-26.608,47.5-26.608s47.5,11.913,47.5,26.608c0,10.794-11.475,20.088-27.965,24.261" transform="translate(0.11 2.931)" fill="rgba(0,0,0,0)" stroke="#595757" stroke-miterlimit="10" stroke-width="1.139"/>
      <path id="Path_981" data-name="Path 981" d="M.576,26.686C1.043,12.218,22.126.569,48.067.569c26.233,0,47.5,11.913,47.5,26.608" transform="translate(0.112 0.11)" fill="rgba(0,0,0,0)" stroke="#595757" stroke-miterlimit="10" stroke-width="1.139"/>
      <path id="Path_982" data-name="Path 982" d="M.576,30.1C1.043,15.627,22.126,3.978,48.067,3.978c26.233,0,47.5,11.913,47.5,26.608" transform="translate(0.112 0.771)" fill="rgba(0,0,0,0)" stroke="#595757" stroke-miterlimit="10" stroke-width="1.139"/>
      <line id="Line_215" data-name="Line 215" y2="18.754" transform="translate(0.68 26.242)" fill="none" stroke="#595757" stroke-miterlimit="10" stroke-width="1.139"/>
      <path id="Path_983" data-name="Path 983" d="M68.536,53.256C68.536,60.849,57.549,67,43.995,67S19.452,60.849,19.452,53.256,30.441,39.509,43.995,39.509,68.536,45.664,68.536,53.256Z" transform="translate(3.769 7.656)" fill="rgba(0,0,0,0)" stroke="#595757" stroke-miterlimit="10" stroke-width="1.139"/>
      <path id="Path_984" data-name="Path 984" d="M19.456,45.483C19.7,38.008,30.59,31.989,43.994,31.989c13.554,0,24.542,6.155,24.542,13.747" transform="translate(3.77 6.199)" fill="rgba(0,0,0,0)" stroke="#595757" stroke-miterlimit="10" stroke-width="1.139"/>
      <path id="Path_985" data-name="Path 985" d="M19.454,48.309c.241-7.475,11.134-13.494,24.538-13.494,13.554,0,24.542,6.155,24.542,13.747" transform="translate(3.77 6.746)" fill="rgba(0,0,0,0)" stroke="#595757" stroke-miterlimit="10" stroke-width="1.139"/>
      <path id="Path_986" data-name="Path 986" d="M19.454,50.789c.241-7.475,11.134-13.494,24.538-13.494,13.554,0,24.542,6.155,24.542,13.747" transform="translate(3.77 7.227)" fill="rgba(0,0,0,0)" stroke="#595757" stroke-miterlimit="10" stroke-width="1.139"/>
      <line id="Line_216" data-name="Line 216" y2="9.286" transform="translate(72.306 51.626)" fill="none" stroke="#595757" stroke-miterlimit="10" stroke-width="1.139"/>
      <line id="Line_217" data-name="Line 217" y2="9.69" transform="translate(23.222 51.396)" fill="none" stroke="#595757" stroke-miterlimit="10" stroke-width="1.139"/>
      <line id="Line_218" data-name="Line 218" y2="8.978" transform="translate(32.34 41.242)" fill="none" stroke="#595757" stroke-miterlimit="10" stroke-width="1.139"/>
      <line id="Line_219" data-name="Line 219" y2="8.978" transform="translate(48.178 38.188)" fill="none" stroke="#595757" stroke-miterlimit="10" stroke-width="1.139"/>
      <line id="Line_220" data-name="Line 220" y2="8.978" transform="translate(64.009 41.242)" fill="none" stroke="#595757" stroke-miterlimit="10" stroke-width="1.139"/>
      <path id="Path_987" data-name="Path 987" d="M38.842,49.834c0,.362-.563.654-1.258.654s-1.257-.292-1.257-.654.562-.654,1.257-.654,1.258.292,1.258.654" transform="translate(7.039 9.53)" fill="#595757"/>
      <path id="Path_988" data-name="Path 988" d="M43.65,49.834c0,.362-.563.654-1.258.654s-1.257-.292-1.257-.654.562-.654,1.257-.654,1.258.292,1.258.654" transform="translate(7.971 9.53)" fill="#595757"/>
      <path id="Path_989" data-name="Path 989" d="M45.477,48.291c0,.362-.563.654-1.258.654s-1.257-.292-1.257-.654.562-.654,1.257-.654,1.258.292,1.258.654" transform="translate(8.325 9.231)" fill="#595757"/>
      <path id="Path_990" data-name="Path 990" d="M41.361,48.291c0,.362-.563.654-1.258.654s-1.257-.292-1.257-.654.562-.654,1.257-.654,1.258.292,1.258.654" transform="translate(7.527 9.231)" fill="#595757"/>
      <path id="Path_991" data-name="Path 991" d="M47.806,50.041c0,.362-.563.654-1.258.654s-1.257-.292-1.257-.654.562-.654,1.257-.654,1.258.292,1.258.654" transform="translate(8.776 9.57)" fill="#595757"/>
      <path id="Path_992" data-name="Path 992" d="M48.055,53.612c0,.362-.563.654-1.258.654s-1.257-.292-1.257-.654.562-.654,1.257-.654,1.258.292,1.258.654" transform="translate(8.824 10.262)" fill="#595757"/>
      <path id="Path_993" data-name="Path 993" d="M50.811,49.108c0,.362-.563.654-1.258.654S48.3,49.47,48.3,49.108s.562-.654,1.257-.654,1.258.292,1.258.654" transform="translate(9.358 9.389)" fill="#595757"/>
      <path id="Path_994" data-name="Path 994" d="M51.216,54.778c0,.362-.563.654-1.258.654S48.7,55.14,48.7,54.778s.562-.654,1.257-.654,1.258.292,1.258.654" transform="translate(9.437 10.488)" fill="#595757"/>
      <path id="Path_995" data-name="Path 995" d="M53.973,48.291c0,.362-.563.654-1.258.654s-1.257-.292-1.257-.654.562-.654,1.257-.654,1.258.292,1.258.654" transform="translate(9.971 9.231)" fill="#595757"/>
      <path id="Path_996" data-name="Path 996" d="M31.458,50.041c0,.362.563.654,1.258.654s1.257-.292,1.257-.654-.562-.654-1.257-.654-1.258.292-1.258.654" transform="translate(6.096 9.57)" fill="#595757"/>
      <path id="Path_997" data-name="Path 997" d="M28.453,49.108c0,.362.563.654,1.258.654s1.257-.292,1.257-.654-.562-.654-1.257-.654-1.258.292-1.258.654" transform="translate(5.513 9.389)" fill="#595757"/>
      <path id="Path_998" data-name="Path 998" d="M25.291,48.291c0,.362.563.654,1.258.654s1.257-.292,1.257-.654-.562-.654-1.257-.654-1.258.292-1.258.654" transform="translate(4.901 9.231)" fill="#595757"/>
      <path id="Path_999" data-name="Path 999" d="M54.416,56.032c0,.362-.563.654-1.258.654s-1.257-.292-1.257-.654.562-.654,1.257-.654,1.258.292,1.258.654" transform="translate(10.057 10.731)" fill="#595757"/>
      <path id="Path_1000" data-name="Path 1000" d="M32.355,53.612c0,.362.563.654,1.258.654s1.257-.292,1.257-.654-.562-.654-1.257-.654-1.258.292-1.258.654" transform="translate(6.269 10.262)" fill="#595757"/>
      <path id="Path_1001" data-name="Path 1001" d="M29.194,54.778c0,.362.563.654,1.258.654s1.257-.292,1.257-.654-.562-.654-1.257-.654-1.258.292-1.258.654" transform="translate(5.657 10.488)" fill="#595757"/>
      <path id="Path_1002" data-name="Path 1002" d="M25.993,56.032c0,.362.563.654,1.258.654s1.257-.292,1.257-.654-.562-.654-1.257-.654-1.258.292-1.258.654" transform="translate(5.037 10.731)" fill="#595757"/>
      <path id="Path_1003" data-name="Path 1003" d="M41.361,45.94c0,.362-.563.654-1.258.654s-1.257-.292-1.257-.654.562-.654,1.257-.654,1.258.292,1.258.654" transform="translate(7.527 8.775)" fill="#595757"/>
      <path id="Path_1004" data-name="Path 1004" d="M41.361,43.59c0,.362-.563.654-1.258.654s-1.257-.292-1.257-.654.562-.654,1.257-.654,1.258.292,1.258.654" transform="translate(7.527 8.32)" fill="#595757"/>
      <path id="Path_1005" data-name="Path 1005" d="M41.361,59.479c0,.362-.563.654-1.258.654s-1.257-.292-1.257-.654.562-.654,1.257-.654,1.258.292,1.258.654" transform="translate(7.527 11.399)" fill="#595757"/>
      <path id="Path_1006" data-name="Path 1006" d="M41.361,57.128c0,.362-.563.654-1.258.654s-1.257-.292-1.257-.654.562-.654,1.257-.654,1.258.292,1.258.654" transform="translate(7.527 10.943)" fill="#595757"/>
      <path id="Path_1007" data-name="Path 1007" d="M41.361,54.778c0,.362-.563.654-1.258.654s-1.257-.292-1.257-.654.562-.654,1.257-.654,1.258.292,1.258.654" transform="translate(7.527 10.488)" fill="#595757"/>
      <path id="Path_1008" data-name="Path 1008" d="M47,46.488c0,.362-.563.654-1.258.654s-1.257-.292-1.257-.654.562-.654,1.257-.654S47,46.126,47,46.488" transform="translate(8.62 8.882)" fill="#595757"/>
      <path id="Path_1009" data-name="Path 1009" d="M48.7,44.513c0,.362-.563.654-1.258.654s-1.257-.292-1.257-.654.562-.654,1.257-.654,1.258.292,1.258.654" transform="translate(8.95 8.499)" fill="#595757"/>
      <path id="Path_1010" data-name="Path 1010" d="M33.786,48.291c0,.362.563.654,1.258.654s1.257-.292,1.257-.654-.562-.654-1.257-.654-1.258.292-1.258.654" transform="translate(6.547 9.231)" fill="#595757"/>
      <path id="Path_1011" data-name="Path 1011" d="M32.263,46.488c0,.362.563.654,1.258.654s1.257-.292,1.257-.654-.562-.654-1.257-.654-1.258.292-1.258.654" transform="translate(6.252 8.882)" fill="#595757"/>
      <path id="Path_1012" data-name="Path 1012" d="M30.56,44.513c0,.362.563.654,1.258.654s1.257-.292,1.257-.654-.562-.654-1.257-.654-1.258.292-1.258.654" transform="translate(5.922 8.499)" fill="#595757"/>
      <path id="Path_1013" data-name="Path 1013" d="M38.842,53.358c0,.362-.563.654-1.258.654s-1.257-.292-1.257-.654.562-.654,1.257-.654,1.258.292,1.258.654" transform="translate(7.039 10.213)" fill="#595757"/>
      <path id="Path_1014" data-name="Path 1014" d="M43.65,53.358c0,.362-.563.654-1.258.654s-1.257-.292-1.257-.654.562-.654,1.257-.654,1.258.292,1.258.654" transform="translate(7.971 10.213)" fill="#595757"/>
      <path id="Path_1015" data-name="Path 1015" d="M34.463,55.326c0,.362.562.654,1.257.654s1.257-.292,1.257-.654-.562-.654-1.257-.654-1.257.292-1.257.654" transform="translate(6.678 10.594)" fill="#595757"/>
      <path id="Path_1016" data-name="Path 1016" d="M32.355,56.938c0,.362.563.654,1.258.654s1.257-.292,1.257-.654-.562-.654-1.257-.654-1.258.292-1.258.654" transform="translate(6.269 10.906)" fill="#595757"/>
      <path id="Path_1017" data-name="Path 1017" d="M30.248,58.508c0,.362.563.654,1.258.654s1.257-.292,1.257-.654-.562-.654-1.257-.654-1.258.292-1.258.654" transform="translate(5.861 11.211)" fill="#595757"/>
      <path id="Path_1018" data-name="Path 1018" d="M45.1,55.326c0,.362-.563.654-1.258.654s-1.257-.292-1.257-.654.562-.654,1.257-.654,1.258.292,1.258.654" transform="translate(8.251 10.594)" fill="#595757"/>
      <path id="Path_1019" data-name="Path 1019" d="M47.206,56.938c0,.362-.563.654-1.258.654s-1.257-.292-1.257-.654.562-.654,1.257-.654,1.258.292,1.258.654" transform="translate(8.66 10.906)" fill="#595757"/>
      <path id="Path_1020" data-name="Path 1020" d="M49.313,58.508c0,.362-.563.654-1.258.654S46.8,58.87,46.8,58.508s.562-.654,1.257-.654,1.258.292,1.258.654" transform="translate(9.068 11.211)" fill="#595757"/>
      <path id="Path_1021" data-name="Path 1021" d="M46.152,51.792c0,.362-.563.654-1.258.654s-1.257-.292-1.257-.654.562-.654,1.257-.654,1.258.292,1.258.654" transform="translate(8.456 9.909)" fill="#595757"/>
      <path id="Path_1022" data-name="Path 1022" d="M49.757,51.792c0,.362-.563.654-1.258.654s-1.257-.292-1.257-.654.562-.654,1.257-.654,1.258.292,1.258.654" transform="translate(9.154 9.909)" fill="#595757"/>
      <path id="Path_1023" data-name="Path 1023" d="M53.363,51.792c0,.362-.563.654-1.258.654s-1.257-.292-1.257-.654.562-.654,1.257-.654,1.258.292,1.258.654" transform="translate(9.853 9.909)" fill="#595757"/>
      <path id="Path_1024" data-name="Path 1024" d="M56.968,51.792c0,.362-.563.654-1.258.654s-1.257-.292-1.257-.654.562-.654,1.257-.654,1.258.292,1.258.654" transform="translate(10.551 9.909)" fill="#595757"/>
      <path id="Path_1025" data-name="Path 1025" d="M25.977,51.792c0,.362-.563.654-1.258.654s-1.257-.292-1.257-.654.562-.654,1.257-.654,1.258.292,1.258.654" transform="translate(4.546 9.909)" fill="#595757"/>
      <path id="Path_1026" data-name="Path 1026" d="M29.582,51.792c0,.362-.563.654-1.258.654s-1.257-.292-1.257-.654.562-.654,1.257-.654,1.258.292,1.258.654" transform="translate(5.245 9.909)" fill="#595757"/>
      <path id="Path_1027" data-name="Path 1027" d="M33.187,51.792c0,.362-.563.654-1.258.654s-1.257-.292-1.257-.654.562-.654,1.257-.654,1.258.292,1.258.654" transform="translate(5.943 9.909)" fill="#595757"/>
      <path id="Path_1028" data-name="Path 1028" d="M36.734,51.792c0,.362-.563.654-1.258.654s-1.257-.292-1.257-.654.562-.654,1.257-.654,1.258.292,1.258.654" transform="translate(6.631 9.909)" fill="#595757"/>
      <path id="Path_1029" data-name="Path 1029" d="M17.436,43.291c-.557,2.038-3.623,2.974-6.847,2.093S5.2,42.134,5.758,40.1,9.381,37.123,12.606,38,17.993,41.253,17.436,43.291Z" transform="translate(1.099 7.3)" fill="rgba(0,0,0,0)" stroke="#595757" stroke-miterlimit="10" stroke-width="1.018"/>
    </g>
  </g>
</svg>
