<svg xmlns="http://www.w3.org/2000/svg" xmlns:xlink="http://www.w3.org/1999/xlink" width="96.759" height="75.34" viewBox="0 0 96.759 75.34">
  <defs>
    <clipPath id="clip-path">
      <rect id="Rectangle_287" data-name="Rectangle 287" width="96.759" height="75.34" fill="rgba(0,0,0,0)"/>
    </clipPath>
  </defs>
  <g id="Group_928" data-name="Group 928" transform="translate(0)">
    <g id="Group_927" data-name="Group 927" transform="translate(0 0)" clip-path="url(#clip-path)">
      <path id="Path_1030" data-name="Path 1030" d="M91.37,32.516C83.82,19.61,63.707,17.194,50.285,16.122,36.17,14.994,18.124,17.93,7.829,28.628A20.909,20.909,0,0,0,1.687,45.111,15.935,15.935,0,0,0,6.965,55.172,27.562,27.562,0,0,0,20.821,63.9a3.022,3.022,0,0,0,3.671-3.672,53.178,53.178,0,0,1-.886-6.014c4.08-5.968,12.519-9.087,19.568-10.644,5.391.666,33.048,4.931,28.845,14.285a3.3,3.3,0,0,0-.2.593l-.364.2c-3.4,1.793-.387,6.947,3.012,5.155,11.262-5.94,25.206-17.092,16.9-31.285" transform="translate(0.308 3.08)" fill="#eeeeef"/>
      <path id="Path_1031" data-name="Path 1031" d="M65.372,48.942c-2.962-4.628-7.882-8.863-13.188-7.69-9.082-2.984-21.1-1.9-26,4.216-3.343,1.751-4.62,4.358-4.518,7.1a2.423,2.423,0,0,0-.008,1.609q.706,1.977,1.412,3.954a2.95,2.95,0,0,0,1.957,1.9,14.934,14.934,0,0,0,6.394,4.329c6.4,2.058,18.154,3.339,25.5-.516a2.4,2.4,0,0,0,1.179-.178c.24-.1.467-.22.7-.332l.013.031c6.3-2.718,10.758-7.875,6.567-14.423M42.535,60.028a33.423,33.423,0,0,1-7.653-.914,14.147,14.147,0,0,1-2.524-.758,2.243,2.243,0,0,0,0-.3c-.23-2.4-.58-4.7.442-6.654a57.085,57.085,0,0,1,11.7-2.457,29.426,29.426,0,0,1,7.59.245,21.348,21.348,0,0,1,3.411.923,5.269,5.269,0,0,1,.966,4.995c-1.557,5.3-9.246,5.065-13.928,4.918" transform="translate(4.17 7.684)" fill="#c8c9ca"/>
      <path id="Path_1032" data-name="Path 1032" d="M15.333,39.342c-.643-.277-1.3-.511-1.954-.726q-.321-.251-.64-.5a3.262,3.262,0,0,0-2.111-.874,3.165,3.165,0,0,0-1.466.4c-.1-.014-.2-.036-.3-.049-1.6-.212-2.984,1.523-2.984,2.984a2.992,2.992,0,0,0,2.74,2.935c.073.058.137.122.215.174a13.826,13.826,0,0,0,3.978,1.848,2.9,2.9,0,0,0,1.715-.055c1.517.408,3.5-.259,3.782-2.016.324-2.021-.751-4.067-2.974-4.12" transform="translate(1.139 7.216)" fill="#eb6d65"/>
      <path id="Path_1033" data-name="Path 1033" d="M46.041,29.966c-11.114-.678-21.958,3.7-27.619,13.6a1.2,1.2,0,0,0,2.062,1.2c4.665-8.153,13.075-12.159,22.312-12.49,6.155-.221,24.927,2.407,25.414,10.892.088,1.527,2.476,1.538,2.388,0-.548-9.557-17.2-12.753-24.556-13.2" transform="translate(3.537 5.794)" fill="#dbdcdc"/>
      <path id="Path_1034" data-name="Path 1034" d="M73.813,7.927C61.481,3.338,47.461,3.058,34.487,4.686a1.154,1.154,0,0,0-1.074-.326,58.6,58.6,0,0,0-33.1,19.2C-.7,24.714.986,26.41,2,25.247A56.46,56.46,0,0,1,32.318,7.042a1.233,1.233,0,0,0,.867.2c11.247-1.587,22.954-1.509,34.037,1.19a53.251,53.251,0,0,1,14.671,6.137c1.707,1.014,3.476,2.025,5.08,3.19a14.854,14.854,0,0,1,4.595,4.16,4.391,4.391,0,0,0,2.28,3.754,1.225,1.225,0,0,0-.694,1.7c.027.057.056.115.085.171a1.225,1.225,0,0,0,1.348.549l.227-.033a1.2,1.2,0,0,0,.876-1.151c.68-9.711-14.81-16.353-21.876-18.982" transform="translate(0 0.733)" fill="#eeeeef"/>
      <line id="Line_221" data-name="Line 221" y2="17.973" transform="translate(96.079 26.688)" fill="none" stroke="#595757" stroke-miterlimit="10" stroke-width="1.139"/>
      <path id="Path_1035" data-name="Path 1035" d="M27.355,65.59C11.682,61.242.906,52.192.906,41.731c0-14.7,21.266-26.608,47.5-26.608S95.9,27.036,95.9,41.731c0,10.794-11.475,20.088-27.965,24.261" transform="translate(0.176 2.931)" fill="rgba(0,0,0,0)" stroke="#595757" stroke-miterlimit="10" stroke-width="1.139"/>
      <path id="Path_1036" data-name="Path 1036" d="M.912,26.686C1.379,12.218,22.462.569,48.4.569c26.233,0,47.5,11.913,47.5,26.608" transform="translate(0.177 0.11)" fill="rgba(0,0,0,0)" stroke="#595757" stroke-miterlimit="10" stroke-width="1.139"/>
      <path id="Path_1037" data-name="Path 1037" d="M.912,30.1C1.379,15.627,22.462,3.978,48.4,3.978c26.233,0,47.5,11.913,47.5,26.608" transform="translate(0.177 0.771)" fill="rgba(0,0,0,0)" stroke="#595757" stroke-miterlimit="10" stroke-width="1.139"/>
      <line id="Line_222" data-name="Line 222" y2="18.754" transform="translate(1.081 26.242)" fill="none" stroke="#595757" stroke-miterlimit="10" stroke-width="1.139"/>
      <path id="Path_1038" data-name="Path 1038" d="M68.872,53.256C68.872,60.849,57.885,67,44.331,67S19.788,60.849,19.788,53.256,30.777,39.509,44.331,39.509,68.872,45.664,68.872,53.256Z" transform="translate(3.834 7.656)" fill="rgba(0,0,0,0)" stroke="#595757" stroke-miterlimit="10" stroke-width="1.139"/>
      <path id="Path_1039" data-name="Path 1039" d="M19.792,45.483c.241-7.475,11.134-13.494,24.538-13.494,13.554,0,24.542,6.155,24.542,13.747" transform="translate(3.835 6.199)" fill="rgba(0,0,0,0)" stroke="#595757" stroke-miterlimit="10" stroke-width="1.139"/>
      <path id="Path_1040" data-name="Path 1040" d="M19.791,48.309c.241-7.475,11.134-13.494,24.538-13.494,13.554,0,24.542,6.155,24.542,13.747" transform="translate(3.835 6.746)" fill="rgba(0,0,0,0)" stroke="#595757" stroke-miterlimit="10" stroke-width="1.139"/>
      <path id="Path_1041" data-name="Path 1041" d="M19.791,50.789c.241-7.475,11.134-13.494,24.538-13.494,13.554,0,24.542,6.155,24.542,13.747" transform="translate(3.835 7.227)" fill="rgba(0,0,0,0)" stroke="#595757" stroke-miterlimit="10" stroke-width="1.139"/>
      <line id="Line_223" data-name="Line 223" y2="9.286" transform="translate(72.707 51.626)" fill="none" stroke="#595757" stroke-miterlimit="10" stroke-width="1.139"/>
      <line id="Line_224" data-name="Line 224" y2="9.69" transform="translate(23.623 51.396)" fill="none" stroke="#595757" stroke-miterlimit="10" stroke-width="1.139"/>
      <line id="Line_225" data-name="Line 225" y2="8.978" transform="translate(32.742 41.242)" fill="none" stroke="#595757" stroke-miterlimit="10" stroke-width="1.139"/>
      <line id="Line_226" data-name="Line 226" y2="8.978" transform="translate(48.58 38.188)" fill="none" stroke="#595757" stroke-miterlimit="10" stroke-width="1.139"/>
      <line id="Line_227" data-name="Line 227" y2="8.978" transform="translate(64.41 41.242)" fill="none" stroke="#595757" stroke-miterlimit="10" stroke-width="1.139"/>
      <path id="Path_1042" data-name="Path 1042" d="M18.371,43.448c-.557,2.038-3.757,2.938-7.147,2.01s-5.687-3.331-5.13-5.368,3.757-2.937,7.147-2.01S18.929,41.41,18.371,43.448Z" transform="translate(1.165 7.308)" fill="rgba(0,0,0,0)" stroke="#595757" stroke-miterlimit="10" stroke-width="1.043"/>
      <path id="Path_1043" data-name="Path 1043" d="M50.131,52.4c0,2.236-3.723,4.048-8.316,4.048S33.5,54.635,33.5,52.4s3.723-4.048,8.316-4.048,8.316,1.812,8.316,4.048" transform="translate(6.491 9.369)" fill="#e95550"/>
      <ellipse id="Ellipse_25" data-name="Ellipse 25" cx="8.316" cy="4.048" rx="8.316" ry="4.048" transform="translate(39.991 57.72)" fill="rgba(0,0,0,0)" stroke="#595757" stroke-miterlimit="10" stroke-width="0.967"/>
      <path id="Path_1044" data-name="Path 1044" d="M54.041,52.561c0,3.6-5.229,6.511-11.68,6.511s-11.679-2.915-11.679-6.511,5.229-6.511,11.679-6.511S54.041,48.965,54.041,52.561Z" transform="translate(5.945 8.923)" fill="rgba(0,0,0,0)" stroke="#595757" stroke-miterlimit="10" stroke-width="1"/>
    </g>
  </g>
</svg>
