<svg id="Group_892" data-name="Group 892" xmlns="http://www.w3.org/2000/svg" xmlns:xlink="http://www.w3.org/1999/xlink" width="213.438" height="61.534" viewBox="0 0 213.438 61.534">
  <defs>
    <clipPath id="clip-path">
      <rect id="Rectangle_139" data-name="Rectangle 139" width="213.438" height="61.534" fill="none"/>
    </clipPath>
  </defs>
  <g id="Group_891" data-name="Group 891" transform="translate(0 0)" clip-path="url(#clip-path)">
    <path id="Path_497" data-name="Path 497" d="M195.9,51.034H9.42c-4.044,0-7.323-2.9-7.323-6.472V11.139c0-3.574,3.279-6.472,7.323-6.472H195.9c4.046,0,7.323,2.9,7.323,6.472V44.562c0,3.574-3.277,6.472-7.323,6.472" transform="translate(1.624 2.649)" fill="#ee848a"/>
    <path id="Path_498" data-name="Path 498" d="M199.74,47.365H13.265c-4.044,0-7.323-2.9-7.323-6.47V7.47C5.942,3.9,9.221,1,13.265,1H199.74c4.044,0,7.323,2.9,7.323,6.47V40.9c0,3.573-3.279,6.47-7.323,6.47" transform="translate(4.601 0.567)" fill="#fff"/>
    <rect id="Rectangle_138" data-name="Rectangle 138" width="201.121" height="46.365" rx="4.127" transform="translate(10.543 1.568)" fill="none" stroke="#ee848a" stroke-miterlimit="10" stroke-width="2"/>
    <path id="Path_499" data-name="Path 499" d="M8.268,33.645s0,7.061-8.268,8.919c17.364,1.858,21.085-9.51,21.085-9.51Z" transform="translate(0 18.765)" fill="#ee848a"/>
  </g>
</svg>
