<svg xmlns="http://www.w3.org/2000/svg" xmlns:xlink="http://www.w3.org/1999/xlink" width="58.288" height="24" viewBox="0 0 58.288 24">
  <defs>
    <clipPath id="clip-path">
      <rect id="Rectangle_475" data-name="Rectangle 475" width="58.288" height="24" fill="none"/>
    </clipPath>
  </defs>
  <g id="Group_1118" data-name="Group 1118" transform="translate(0 0)">
    <g id="Group_1117" data-name="Group 1117" transform="translate(0 0)" clip-path="url(#clip-path)">
      <path id="Path_3235" data-name="Path 3235" d="M58.211,4.505a3.79,3.79,0,0,0-.047-.882c.274-1.3-.2-2.983-1.429-2.983L45.94.451a1.12,1.12,0,0,0-.477.108A2.169,2.169,0,0,0,44.8.451L30.625,0a2.01,2.01,0,0,0-.469.068A1.187,1.187,0,0,0,29.772,0H19.3a1.137,1.137,0,0,0-.477.108A2.169,2.169,0,0,0,18.155,0H3.735A2,2,0,0,0,2.614.327,1.794,1.794,0,0,0,.854,1.341,2.466,2.466,0,0,0,.47,3.018C.09,5.877.461,8.681.342,11.584.2,14.907-.26,18,.195,21.325a1.73,1.73,0,0,0,1.09,1.508,2,2,0,0,0,1.424.614c2.529.07,5.047.222,7.563.5a43.362,43.362,0,0,0,6.2-.2,14.8,14.8,0,0,0,2.061-.305.126.126,0,0,1,.021,0,48.039,48.039,0,0,1,5.494.5,22.934,22.934,0,0,0,4.5-.2,8.594,8.594,0,0,0,1.421-.285c2.4.075,4.8.22,7.192.487a43.359,43.359,0,0,0,6.2-.2,14.782,14.782,0,0,0,2.061-.305.126.126,0,0,1,.021,0,48.039,48.039,0,0,1,5.494.5,22.934,22.934,0,0,0,4.5-.2c1.886-.279,2.726-.053,2.817-1.887a5.973,5.973,0,0,0,.023-1.012c-.007-4.307-.158-6.26-.08-9.022.075-2.659.114-4.668.012-7.323" transform="translate(0 0)" fill="#595757"/>
    </g>
  </g>
</svg>
