<svg id="Group_1090" data-name="Group 1090" xmlns="http://www.w3.org/2000/svg" xmlns:xlink="http://www.w3.org/1999/xlink" width="76.355" height="54.691" viewBox="0 0 76.355 54.691">
  <defs>
    <clipPath id="clip-path">
      <rect id="Rectangle_460" data-name="Rectangle 460" width="76.355" height="54.691" fill="none"/>
    </clipPath>
  </defs>
  <g id="Group_1090-2" data-name="Group 1090" clip-path="url(#clip-path)">
    <path id="Path_2937" data-name="Path 2937" d="M127.86,51.74a1.981,1.981,0,0,0,.358.43.992.992,0,0,0,.921.577,8.252,8.252,0,0,0,2.54.55,8.682,8.682,0,0,0,4.844-1.135,1.108,1.108,0,0,0,.491-1.207q-.811-4.795-2.062-9.49a1.028,1.028,0,0,0-1.52-.625.883.883,0,0,0-1.211.171,17.618,17.618,0,0,0-3.742,7.8c-.582.905-1.2,1.953-.619,2.926" transform="translate(-89.407 -28.494)" fill="#fff"/>
    <path id="Path_2938" data-name="Path 2938" d="M98.251,2.712a1.067,1.067,0,0,1,1.04-.275c.779.309.979.9,1.316,1.614l.978,2.062c.586,1.237-1.256,2.323-1.846,1.079-.4-.839-.751-1.767-1.205-2.6a1.151,1.151,0,0,1-.283-1.882" transform="translate(-68.571 -1.672)" fill="#dbdcdc"/>
    <path id="Path_2939" data-name="Path 2939" d="M181.426,11.359a21.223,21.223,0,0,0,2.892-1.952,1.1,1.1,0,0,1,1.512,0,1.077,1.077,0,0,1,0,1.512,24.474,24.474,0,0,1-3.325,2.286,1.07,1.07,0,0,1-1.079-1.846" transform="translate(-126.728 -6.379)" fill="#dbdcdc"/>
    <path id="Path_2940" data-name="Path 2940" d="M225.734,49.121a3.148,3.148,0,0,0,.667,1.3,1.941,1.941,0,0,0,.173.169,3.255,3.255,0,0,0,.633,1.011,2.3,2.3,0,0,0,3.334.052,4.593,4.593,0,0,0,1.429-4.3c-.338-1.075-2.251-2.03-2.134-3.061a.882.882,0,0,0-.19-.7l1.69-2.8a1.07,1.07,0,0,0-1.846-1.079l-3.06,5.078a1.1,1.1,0,0,0-.945.471,4.272,4.272,0,0,0-.761,1.779c0,.008-.006.015-.008.023s0,.024,0,.037a4.779,4.779,0,0,0-.074,1,1.057,1.057,0,0,0,1.1,1.03m3.4.96a2.684,2.684,0,0,0,.251-.387,4.758,4.758,0,0,0,.489-1.8c.14.266.114.534-.106,1.111a3.971,3.971,0,0,1-.634,1.074" transform="translate(-157.362 -27.456)" fill="#dbdcdc"/>
    <path id="Path_2941" data-name="Path 2941" d="M47.507,86.376c2.291-3.572,6.087-1.25,8.953.3,4.562,2.466,8.963,5.522,14.1,6.678,2.515.566,4.775-.174,7.192.067a4.423,4.423,0,0,1,1.4.375c.075-.007.143-.027.221-.029a21.1,21.1,0,0,0,5.505-.924,2.558,2.558,0,0,1,2.157.232q4.5-5.28,8.7-10.806c2.187-2.888,7.141-.05,4.923,2.877Q95,92.62,88.833,99.678a2.817,2.817,0,0,1-.67.879l-.412.368a3.561,3.561,0,0,1-.352.274l-.069,5.441a3.2,3.2,0,0,1-2.382,4.691,47.526,47.526,0,0,1-9.882-.255,3.721,3.721,0,0,1-1.18-.354,29.847,29.847,0,0,1-3.43.075,3.036,3.036,0,0,1-.791-.15c-2.206.108-4.41.292-6.609.566-1.814.226-3.278-2.006-2.749-3.608a58.8,58.8,0,0,1,3.508-8.412A112.7,112.7,0,0,1,48.53,90.276a2.9,2.9,0,0,1-1.023-3.9" transform="translate(-32.999 -56.786)" fill="#717071"/>
    <path id="Path_2942" data-name="Path 2942" d="M196.225,95.851a2.166,2.166,0,0,1,3.023,0c.155.178.315.351.486.513q.115.108.234.21c.039.035.08.068.121.1l.06.05c.325.2.978.514,1.05.546a2.144,2.144,0,0,1,.767,2.925,2.2,2.2,0,0,1-2.925.767,8.056,8.056,0,0,1-2.817-2.089,2.18,2.18,0,0,1,0-3.023" transform="translate(-137.033 -66.714)" fill="#fcd369"/>
    <path id="Path_2943" data-name="Path 2943" d="M63.379,102a20.419,20.419,0,0,0,2.762-4.173,2.138,2.138,0,1,1,3.692,2.158,24.877,24.877,0,0,1-3.431,5.039,2.157,2.157,0,0,1-3.023,0,2.18,2.18,0,0,1,0-3.023" transform="translate(-43.971 -67.801)" fill="#fcd369"/>
    <path id="Path_2944" data-name="Path 2944" d="M101,149.616c2.147-1.245,5.757-.442,8.3-.215,4.818.43,9.594.995,14.459,1.128,2.742.075,2.756,2.976,0,2.9-3.406-.094-6.769-.38-10.142-.706-2.083-.2-4.161-.426-6.252-.588q-1.366-.109-2.738-.183a7.023,7.023,0,0,1-1.311-.009c-1.976.489-4.185-1.245-2.318-2.328" transform="translate(-70.26 -104.335)" fill="#fcd369"/>
    <path id="Path_2945" data-name="Path 2945" d="M97.067,57.24c2.877,1.306,6.308,1.227,9.559,1.339,1.039.106,2.052.172,3.01.212a11.725,11.725,0,0,0,5.145-.241,1.034,1.034,0,0,0,.831-.046c.276-.133.568-.276.869-.428l.282-.038a.843.843,0,0,0,.691-.478c.407-.227.814-.474,1.2-.741a1.084,1.084,0,0,0,.714-.533,5.487,5.487,0,0,0,1.92-2.579,7.669,7.669,0,0,0-.041-3.382,1.067,1.067,0,0,0,.662-.919c.051-.606.083-1.206.105-1.806.039-.906.061-1.812.046-2.726a.949.949,0,0,0-.062-.3c-.022-.462-.049-.924-.088-1.39a1.237,1.237,0,0,0-.714-.962c.023-.179.038-.359.064-.538a1.115,1.115,0,0,0-.39-1.031c.062-.541.131-1.082.218-1.626a1.179,1.179,0,0,0-1.4-1.315.916.916,0,0,0-.532-.872c-5.2-2.731-12.108-5.036-18.058-3.822C95.5,34.158,94,39.9,93.323,44.832c-.086.629-.147,1.257-.192,1.882-.053.174-.1.347-.15.521a.911.911,0,0,0-.364.8c.012.2.033.409.052.613-.573,3.453.324,6.746,4.4,8.595M110.417,36.4a23.928,23.928,0,0,1,2.216,10.844,1.083,1.083,0,0,0-.49.251c-.2.177-.393.33-.586.486a.871.871,0,0,0-.6.008,24.724,24.724,0,0,0-2.894,1.318c-2.3-.967-4.727-2.356-5.224-3.769-1.092-3.106,1.827-7.875,3.573-10.33a1.15,1.15,0,0,0,.081-.141,28.034,28.034,0,0,1,3.84.654,1.1,1.1,0,0,0,.088.679" transform="translate(-64.808 -22.895)" fill="#dbdcdc"/>
    <path id="Path_2946" data-name="Path 2946" d="M83.325,38.705s-13.431,9.7-3.374,16.285" transform="translate(-53.391 -27.114)" fill="#f9bf11"/>
    <path id="Path_2947" data-name="Path 2947" d="M77.648,54.145l.874-1.335c-2.195-1.437-3.33-3.129-3.374-5.028-.114-4.9,6.709-9.892,6.778-9.942l-.935-1.294c-.309.223-7.57,5.534-7.439,11.27.056,2.457,1.434,4.586,4.1,6.329" transform="translate(-51.524 -25.602)" fill="#595757"/>
    <path id="Path_2948" data-name="Path 2948" d="M190.538,46.877s11.478,11.947.4,16.626" transform="translate(-133.477 -32.839)" fill="#f9bf11"/>
    <path id="Path_2949" data-name="Path 2949" d="M189.907,62.946c2.93-1.238,4.667-3.087,5.162-5.494,1.156-5.62-5.038-12.144-5.3-12.419l-1.151,1.105c.059.061,5.878,6.2,4.889,11-.384,1.86-1.8,3.322-4.22,4.343Z" transform="translate(-132.131 -31.547)" fill="#595757"/>
    <path id="Path_2950" data-name="Path 2950" d="M97.535,8.314A16.812,16.812,0,0,1,94.88,7.049c-1.526-.933-2.507-4.732-2.6-5.758A1.135,1.135,0,0,1,92.841.179C94.172-.593,97.23,1.37,97.26,1.391c1.17.815,2.448,4.087,2.692,4.735l.142.377-.219.338a4.671,4.671,0,0,1-1.72,1.442l-.3.147ZM96.348,2.7a8.3,8.3,0,0,0-2.4-1.066c.258,1.323,1.1,3.644,1.766,4.053a14.754,14.754,0,0,0,2.033,1,3.435,3.435,0,0,0,.547-.422A11.739,11.739,0,0,0,96.348,2.7" transform="translate(-64.644 0)" fill="#595757"/>
    <path id="Path_2951" data-name="Path 2951" d="M175.768,13.545a4.683,4.683,0,0,1-1.346-1.8l-.137-.379.225-.335c.385-.575,2.376-3.469,3.7-4,.033-.013,3.457-1.224,4.578-.171a1.135,1.135,0,0,1,.288,1.21c-.32.978-2.142,4.453-3.841,5.014a16.915,16.915,0,0,1-2.873.626l-.335.04ZM178.8,8.522a11.75,11.75,0,0,0-2.706,3.023,3.437,3.437,0,0,0,.437.536,14.787,14.787,0,0,0,2.207-.506c.745-.246,2.091-2.315,2.644-3.543a8.156,8.156,0,0,0-2.582.49" transform="translate(-122.092 -4.51)" fill="#595757"/>
    <path id="Path_2952" data-name="Path 2952" d="M108.868,91.079a11.027,11.027,0,0,0,7.825-3.475,9.052,9.052,0,0,0,2.3-8.03l-1.569.295a7.4,7.4,0,0,1-1.9,6.648,9.354,9.354,0,0,1-7.516,2.916c-.7-.048-1.332-.088-1.941-.127a56.6,56.6,0,0,1-10.216-1.274l-.124-.019a7.8,7.8,0,0,1-6.308-3.79,8.607,8.607,0,0,1-.626-7.664l-1.46-.646a10.248,10.248,0,0,0,.716,9.13A9.354,9.354,0,0,0,95.546,89.6a58.067,58.067,0,0,0,10.422,1.3c.607.038,1.237.078,1.9.122a8.706,8.706,0,0,0,1,.057" transform="translate(-60.651 -53.181)" fill="#595757"/>
    <path id="Path_2953" data-name="Path 2953" d="M189.826,61.072c.007-.193.167-4.76-.014-7.047-.012-.146-.021-.324-.032-.532a22.851,22.851,0,0,0-.551-4.242l-1.552.372a21.147,21.147,0,0,1,.509,3.954c.012.225.022.418.035.575.174,2.2.011,6.816.01,6.863Z" transform="translate(-131.473 -34.502)" fill="#595757"/>
    <path id="Path_2954" data-name="Path 2954" d="M90.482,50.882A39.562,39.562,0,0,1,92.265,44a28.469,28.469,0,0,1,1.414-3.741l-1.45-.668a29.074,29.074,0,0,0-1.484,3.925A39.951,39.951,0,0,0,88.9,50.7Z" transform="translate(-62.275 -27.733)" fill="#595757"/>
    <path id="Path_2955" data-name="Path 2955" d="M110.193,60.291c-.119,1.026-.8,1.789-1.526,1.706s-1.216-.983-1.1-2.009.8-1.79,1.526-1.706,1.216.983,1.1,2.009" transform="translate(-75.343 -40.824)" fill="#595757"/>
    <path id="Path_2956" data-name="Path 2956" d="M171.738,67.405c-.119,1.026-.8,1.789-1.526,1.706s-1.216-.983-1.1-2.009.8-1.79,1.526-1.706,1.216.983,1.1,2.009" transform="translate(-118.457 -45.808)" fill="#595757"/>
    <path id="Path_2957" data-name="Path 2957" d="M114.189,14.5c5.067.586,9.523,2.3,12.58,5.756a.513.513,0,0,0,.888-.419c-.974-5.851-6.413-11.852-12.619-12.569-6.815-.788-12.862,3.635-15.172,9.351a.512.512,0,0,0,.768.609c3.763-2.658,8.49-3.314,13.554-2.728" transform="translate(-69.932 -5.026)" fill="#f9bf11"/>
    <path id="Path_2958" data-name="Path 2958" d="M124.306,18.914c-2.682-3.028-6.745-4.876-12.075-5.492s-9.7.255-13,2.588a1.31,1.31,0,0,1-1.969-1.56c2.243-5.552,8.461-10.719,16-9.845,6.248.723,12.221,6.658,13.315,13.232a1.293,1.293,0,0,1-.728,1.389,1.322,1.322,0,0,1-.572.131,1.3,1.3,0,0,1-.973-.441M99.14,14.16c3.514-2.154,7.975-2.937,13.276-2.323s9.449,2.384,12.379,5.273c-1.286-4.934-6.031-10.263-11.712-10.92a13.029,13.029,0,0,0-1.488-.086A14.289,14.289,0,0,0,99.14,14.16" transform="translate(-68.067 -3.158)" fill="#595757"/>
    <path id="Path_2959" data-name="Path 2959" d="M137.515,10.227l.766-2.738c.43-1.841,1.6-2.89,2.854-2.745l.554.064c1.242.144,2.231,1.319,2.125,3.291l.156,2.81" transform="translate(-96.333 -3.315)" fill="#f9bf11"/>
    <path id="Path_2960" data-name="Path 2960" d="M141.572,9.224l1.473-.082-.154-2.771c.12-2.529-1.352-3.857-2.778-4.022l-.555-.064c-1.68-.195-3.148,1.136-3.656,3.309L135.144,8.3l1.42.4.766-2.738c.337-1.438,1.159-2.321,2.059-2.21l.555.064c.971.112,1.549,1.1,1.472,2.519l0,.04Z" transform="translate(-94.672 -1.587)" fill="#595757"/>
    <path id="Path_2961" data-name="Path 2961" d="M125.645,28.406l1.527-.464c-.093-.306-2.4-7.513-12.831-8.718A16.537,16.537,0,0,0,99.9,24.916l1.257.984a15.214,15.214,0,0,1,13.006-5.09c9.406,1.087,11.468,7.532,11.488,7.6" transform="translate(-69.979 -13.387)" fill="#595757"/>
    <path id="Path_2962" data-name="Path 2962" d="M121.943,48.721l-.341-.329.131-.455c.5-1.747,3.146-10.527,5.932-11.835a1.818,1.818,0,0,1,1.538-.045c3.054,1.34,3.992,10.752,4.149,12.625l.031.367-.262.259a8.276,8.276,0,0,1-5.289,2.108,8.408,8.408,0,0,1-5.889-2.695M128.571,37.5c-.034-.014-.091-.04-.237.029-1.594.748-3.816,6.572-4.952,10.38,3.982,3.529,7.4,1.292,8.365.511-.4-4.255-1.606-10.231-3.177-10.92" transform="translate(-85.186 -25.154)" fill="#595757"/>
    <path id="Path_2963" data-name="Path 2963" d="M171.71,89.96a.468.468,0,0,0,.4-.221l.942-1.509a.469.469,0,1,0-.8-.5l-.942,1.509a.469.469,0,0,0,.4.718" transform="translate(-119.959 -61.305)" fill="#eb6d65"/>
    <path id="Path_2964" data-name="Path 2964" d="M177.846,90.67a.467.467,0,0,0,.4-.221l.943-1.509a.469.469,0,1,0-.8-.5l-.943,1.509a.469.469,0,0,0,.4.718" transform="translate(-124.258 -61.802)" fill="#eb6d65"/>
    <path id="Path_2965" data-name="Path 2965" d="M98.105,81.452a.467.467,0,0,0,.4-.221l.942-1.508a.469.469,0,1,0-.8-.5l-.942,1.508a.469.469,0,0,0,.4.718" transform="translate(-68.397 -55.345)" fill="#eb6d65"/>
    <path id="Path_2966" data-name="Path 2966" d="M104.241,82.162a.468.468,0,0,0,.4-.221l.942-1.509a.469.469,0,1,0-.8-.5l-.942,1.509a.469.469,0,0,0,.4.718" transform="translate(-72.695 -55.843)" fill="#eb6d65"/>
    <path id="Path_2967" data-name="Path 2967" d="M110.932,49.454a4.61,4.61,0,0,0-1.538-.761c-.593-.068-1.019.244-.08.683s2.4.791,1.618.078" transform="translate(-76.193 -34.104)" fill="#595757"/>
    <path id="Path_2968" data-name="Path 2968" d="M168.463,53.15a4.612,4.612,0,0,1,1.618-.571c.6,0,.982.364,0,.688s-2.476.5-1.616-.116" transform="translate(-117.833 -36.833)" fill="#595757"/>
    <path id="Path_2969" data-name="Path 2969" d="M135.293,96.053s.416-1.876,1.754-1.8c.77.045,3.152,4.532.474,5.377s-2.229-3.58-2.229-3.58" transform="translate(-94.757 -66.027)" fill="#595757"/>
    <path id="Path_2970" data-name="Path 2970" d="M180.83,97.756c4.2-4.353,11.87-14.37,13.526-16.622l-.018-.051a11.13,11.13,0,0,0-2.961-3.381,4.8,4.8,0,0,0-1.856,1.185l-1.177-1.078a6.3,6.3,0,0,1,2.764-1.688c1.524-.389,4.423,3.517,4.751,4.475a1.369,1.369,0,0,1-.1,1.323c-1.391,1.912-9.418,12.423-13.781,16.944ZM194.469,80.98h0" transform="translate(-126.677 -53.306)" fill="#595757"/>
    <path id="Path_2971" data-name="Path 2971" d="M63.883,106.81l.773-1.4c-6.3-3.488-13.111-7.6-14.523-8.977a18.6,18.6,0,0,0,2.2-4.393l.7.2a49.6,49.6,0,0,1,8.31,3.231l.67-1.449a51.032,51.032,0,0,0-8.537-3.316c-.322-.093-.643-.186-.982-.289a1.391,1.391,0,0,0-1.1.126,1.057,1.057,0,0,0-.5.722,15.15,15.15,0,0,1-2.195,4.4.934.934,0,0,0-.335.818c.043.452.172,1.828,15.522,10.322" transform="translate(-33.876 -63.304)" fill="#595757"/>
    <path id="Path_2972" data-name="Path 2972" d="M118.574,122.164a.8.8,0,0,0,.053-1.594,48.894,48.894,0,0,1-5.455-.663c-.795-.165-1.316-.434-1.48-.761a.71.71,0,0,1,0-.567.806.806,0,0,0-.372-1.06.79.79,0,0,0-1.055.345,2.311,2.311,0,0,0-.02,1.96,3.409,3.409,0,0,0,2.587,1.643,49.405,49.405,0,0,0,5.686.7l.054,0" transform="translate(-77.082 -82.268)" fill="#595757"/>
    <path id="Path_2973" data-name="Path 2973" d="M150.9,126.3c.259,0,.523,0,.786-.016a3.4,3.4,0,0,0,2.826-1.153,2.309,2.309,0,0,0,.331-1.931.8.8,0,0,0-1.531.45.708.708,0,0,1-.1.557,2.112,2.112,0,0,1-1.579.483,25.435,25.435,0,0,1-3.893-.2.8.8,0,1,0-.223,1.58,26.8,26.8,0,0,0,3.384.23" transform="translate(-102.861 -85.91)" fill="#595757"/>
    <path id="Path_2974" data-name="Path 2974" d="M45.16,94.868l.5-1.516-.112-.037a3.761,3.761,0,0,1-1.015-.424s0-.028.009-.072a15.279,15.279,0,0,1,2.294-3.963,2.368,2.368,0,0,1,1.044.7l1.168-1.087a3.609,3.609,0,0,0-2.228-1.21h-.012a1.538,1.538,0,0,0-1.158.524,15.34,15.34,0,0,0-2.685,4.783c-.237,1.5,1.106,1.94,2.086,2.262Z" transform="translate(-30.078 -61.13)" fill="#595757"/>
    <path id="Path_2975" data-name="Path 2975" d="M218.618,78.7a3.6,3.6,0,0,0,1.745-1.855,1.538,1.538,0,0,0-.209-1.254,15.372,15.372,0,0,0-3.932-3.824c-1.394-.615-2.161.571-2.724,1.437l-.062.1,1.338.871.063-.1a3.765,3.765,0,0,1,.671-.874s.028.009.069.027a15.3,15.3,0,0,1,3.241,3.235,2.343,2.343,0,0,1-.95.828Z" transform="translate(-149.518 -50.154)" fill="#595757"/>
    <path id="Path_2976" data-name="Path 2976" d="M206.917,98.094l.938-1.292a38.964,38.964,0,0,1-3.915-3.529l-1.147,1.11a39.9,39.9,0,0,0,4.124,3.711" transform="translate(-142.062 -65.34)" fill="#595757"/>
    <path id="Path_2977" data-name="Path 2977" d="M198.292,104.706l.8-1.379c-1.207-.7-3.469-3.729-3.938-4.439l-1.331.88c.025.038,2.717,3.92,4.466,4.939" transform="translate(-135.781 -69.274)" fill="#595757"/>
    <path id="Path_2978" data-name="Path 2978" d="M62.5,105.107a22.121,22.121,0,0,0,4.3-7.238l-1.513-.508a20.855,20.855,0,0,1-3.956,6.653Z" transform="translate(-42.969 -68.204)" fill="#595757"/>
    <path id="Path_2979" data-name="Path 2979" d="M73.622,109.707a29.665,29.665,0,0,0,3.545-7.335l-.7-.26-.755-.392-.062.156a28.613,28.613,0,0,1-3.326,6.9Z" transform="translate(-50.665 -71.259)" fill="#595757"/>
    <path id="Path_2980" data-name="Path 2980" d="M222.068,53.232a.8.8,0,0,1,.656-.919c1.141-.191,3.862-.908,4.477-3.435.44-1.9-1.948-3.533-1.97-3.549a.8.8,0,0,1-.141-1.21c1.126-1.2,1.6-2.572,1.416-3.2-.046-.153-.142-.321-.514-.41-.94-.238-2.41,1.678-3.29,2.82-.82,1.064-1.238,1.583-1.763,1.74a2.085,2.085,0,0,0-1.321,1.263,4.626,4.626,0,0,0-.236,2.634.8.8,0,0,1-.488,1.415c-.413.029-.95-.228-1.137-1.41-.278-1.757.208-4.636,2.67-5.414a10.019,10.019,0,0,0,1.011-1.2c1.263-1.638,2.994-3.886,4.933-3.4a2.17,2.17,0,0,1,1.664,1.5c.376,1.252-.285,2.845-1.224,4.087.94.836,2.439,2.554,1.944,4.7-.584,2.4-2.74,4.135-5.767,4.641a.8.8,0,0,1-.918-.656m-3.209-4.444h0Z" transform="translate(-152.496 -27.246)" fill="#595757"/>
    <path id="Path_2981" data-name="Path 2981" d="M226.817,59.444a.763.763,0,0,0,.157-.016,2.5,2.5,0,0,0,2.013-2.637,2.656,2.656,0,0,0-.959-1.974,3.089,3.089,0,0,0-2.239-.546.8.8,0,0,0,.243,1.578,1.492,1.492,0,0,1,1.013.225,1.11,1.11,0,0,1,.35.825.91.91,0,0,1-.734.965.8.8,0,0,0,.156,1.581" transform="translate(-157.699 -37.998)" fill="#595757"/>
    <path id="Path_2982" data-name="Path 2982" d="M137.161,138.416a.8.8,0,0,0,.794-.727c.367-4.066.549-14.746.556-15.2a.8.8,0,0,0-.785-.811h-.013a.8.8,0,0,0-.8.785c0,.11-.189,11.074-.55,15.082a.8.8,0,0,0,.723.866c.024,0,.049,0,.073,0" transform="translate(-95.526 -85.24)" fill="#595757"/>
    <path id="Path_2983" data-name="Path 2983" d="M89.679,146.183a.8.8,0,0,0,.785-.661c.877-5.014,4.175-13.3,4.208-13.38a.8.8,0,1,0-1.481-.593c-.138.346-3.393,8.519-4.3,13.7a.8.8,0,0,0,.649.923.78.78,0,0,0,.138.013" transform="translate(-62.263 -91.803)" fill="#595757"/>
    <path id="Path_2984" data-name="Path 2984" d="M179.358,150.888a.8.8,0,0,0,.8-.793,80.164,80.164,0,0,0-1.02-11.664.8.8,0,0,0-1.574.262,80.286,80.286,0,0,1,1,11.392.8.8,0,0,0,.792.8Z" transform="translate(-124.379 -96.508)" fill="#595757"/>
    <path id="Path_2985" data-name="Path 2985" d="M123.865,156.9h.406a.8.8,0,0,0,0-1.6,1.835,1.835,0,0,1-.4,0,98.685,98.685,0,0,1-23.7-2.718.8.8,0,0,0-.426,1.538,100.349,100.349,0,0,0,24.13,2.776" transform="translate(-69.458 -106.871)" fill="#595757"/>
    <path id="Path_2986" data-name="Path 2986" d="M123.889,146.109h.431a.8.8,0,0,0,0-1.6,1.737,1.737,0,0,1-.416,0c-13.7,0-22.677-2.569-22.767-2.6a.8.8,0,0,0-.447,1.533c.375.109,9.267,2.66,23.2,2.66" transform="translate(-70.132 -99.395)" fill="#595757"/>
    <path id="Path_2987" data-name="Path 2987" d="M17.26,77.712,18,76.3c-1.755-.924-3.781-3.864-2.834-6.188A3.415,3.415,0,0,1,17,68.038a5.221,5.221,0,0,1,4,.554c1.665.77,3.03,3.856,3.415,4.98l1.51-.516c-.164-.479-1.674-4.719-4.256-5.913-2.061-.953-3.831-1.15-5.257-.59a4.98,4.98,0,0,0-2.725,2.955c-1.314,3.227,1.193,6.953,3.569,8.2" transform="translate(-9.337 -46.405)" fill="#595757"/>
    <path id="Path_2988" data-name="Path 2988" d="M25.648,78.709l-4.5.426a1.041,1.041,0,0,1-1.135-.938l-.951-9.8A1.041,1.041,0,0,1,20,67.26l4.5-.426a1.041,1.041,0,0,1,1.135.939l.951,9.8a1.041,1.041,0,0,1-.938,1.135" transform="translate(-13.351 -46.816)" fill="#f9bf11"/>
    <path id="Path_2989" data-name="Path 2989" d="M18.012,77.648a1.828,1.828,0,0,1-.659-1.243L16.4,66.6a1.838,1.838,0,0,1,1.658-2l4.5-.426a1.843,1.843,0,0,1,2,1.655l.951,9.8a1.84,1.84,0,0,1-1.658,2l-4.5.427c-.059.005-.118.008-.177.008a1.824,1.824,0,0,1-1.169-.422m5.694-1.6a.24.24,0,0,0,.165-.087.237.237,0,0,0,.055-.175l-.951-9.8a.236.236,0,0,0-.265-.218l-4.5.426a.241.241,0,0,0-.218.262l.951,9.8a.241.241,0,0,0,.087.165.215.215,0,0,0,.178.054l4.5-.427Z" transform="translate(-11.485 -44.948)" fill="#595757"/>
    <path id="Path_2990" data-name="Path 2990" d="M19.088,58.452c.027,0,.054,0,.081,0a.844.844,0,0,0,.761-.919l-.323-3.409a.844.844,0,0,0-1.681.159l.323,3.409a.845.845,0,0,0,.839.765" transform="translate(-12.555 -37.376)" fill="#595757"/>
    <path id="Path_2991" data-name="Path 2991" d="M24.793,73.182l3.162-.253.212,2.081-3.2.342Z" transform="translate(-17.369 -51.088)" fill="#595757"/>
    <path id="Path_2992" data-name="Path 2992" d="M27.308,86.106a.472.472,0,1,1-.428-.513.472.472,0,0,1,.428.513" transform="translate(-18.47 -59.959)" fill="#595757"/>
    <path id="Path_2993" data-name="Path 2993" d="M31.35,85.669a.472.472,0,1,1-.428-.513.472.472,0,0,1,.428.513" transform="translate(-21.301 -59.653)" fill="#595757"/>
    <path id="Path_2994" data-name="Path 2994" d="M35.391,85.251a.472.472,0,1,1-.428-.513.472.472,0,0,1,.428.513" transform="translate(-24.132 -59.36)" fill="#595757"/>
    <path id="Path_2995" data-name="Path 2995" d="M27.8,90.706a.472.472,0,1,1-.428-.513.472.472,0,0,1,.428.513" transform="translate(-18.817 -63.182)" fill="#595757"/>
    <path id="Path_2996" data-name="Path 2996" d="M31.846,90.269a.472.472,0,1,1-.428-.513.472.472,0,0,1,.428.513" transform="translate(-21.649 -62.876)" fill="#595757"/>
    <path id="Path_2997" data-name="Path 2997" d="M35.887,89.851a.472.472,0,1,1-.428-.513.472.472,0,0,1,.428.513" transform="translate(-24.48 -62.583)" fill="#595757"/>
    <path id="Path_2998" data-name="Path 2998" d="M28.55,95.365a.472.472,0,1,1-.428-.513.472.472,0,0,1,.428.513" transform="translate(-19.34 -66.446)" fill="#595757"/>
    <path id="Path_2999" data-name="Path 2999" d="M32.592,94.928a.472.472,0,1,1-.428-.513.472.472,0,0,1,.428.513" transform="translate(-22.171 -66.139)" fill="#595757"/>
    <path id="Path_3000" data-name="Path 3000" d="M36.633,94.51A.473.473,0,1,1,36.2,94a.473.473,0,0,1,.428.513" transform="translate(-25.002 -65.847)" fill="#595757"/>
    <path id="Path_3001" data-name="Path 3001" d="M2.819,48.59a.844.844,0,0,0,.474-1.543L1.318,45.71a.844.844,0,0,0-.946,1.4l1.975,1.337a.84.84,0,0,0,.473.146" transform="translate(0 -31.92)" fill="#595757"/>
    <path id="Path_3002" data-name="Path 3002" d="M13.612,36.9a.825.825,0,0,0,.264-.043.843.843,0,0,0,.538-1.066l-.822-2.5a.844.844,0,0,0-1.6.528l.822,2.5a.844.844,0,0,0,.8.58" transform="translate(-8.369 -22.911)" fill="#595757"/>
    <path id="Path_3003" data-name="Path 3003" d="M26.537,37.136a.845.845,0,0,0,.814-.623L28.1,33.75a.844.844,0,0,0-1.629-.443l-.751,2.764a.845.845,0,0,0,.815,1.066" transform="translate(-17.998 -22.896)" fill="#595757"/>
  </g>
</svg>
