<svg xmlns="http://www.w3.org/2000/svg" xmlns:xlink="http://www.w3.org/1999/xlink" width="101.847" height="18.849" viewBox="0 0 101.847 18.849">
  <defs>
    <clipPath id="clip-path">
      <rect id="Rectangle_285" data-name="Rectangle 285" width="101.276" height="13.567" fill="none"/>
    </clipPath>
  </defs>
  <g id="Group_924" data-name="Group 924" transform="translate(0.71) rotate(3)">
    <g id="Group_922" data-name="Group 922" transform="translate(0 0)" clip-path="url(#clip-path)">
      <path id="Path_974" data-name="Path 974" d="M0,13.444c0-.035.008-.065.21-.074a4.613,4.613,0,0,0,1.372-.254,8.438,8.438,0,0,0,3.281-2.241c.171-.18.343-.375.516-.587a2.345,2.345,0,0,0,.444-.682A1.285,1.285,0,0,0,5.316,8.1a.674.674,0,0,0-.751.054,1.131,1.131,0,0,0-.457.841,1.078,1.078,0,0,0,.383.927,1.552,1.552,0,0,0,.487.189,5.472,5.472,0,0,0,.565.13,6.261,6.261,0,0,0,5.023-1.533,6.65,6.65,0,0,0,.6-.565,1.628,1.628,0,0,0,.444-.627,1.071,1.071,0,0,0-.523-1.254.665.665,0,0,0-.633.158.764.764,0,0,0-.306.64.8.8,0,0,0,.3.661,3.15,3.15,0,0,0,.817.19,11.056,11.056,0,0,0,3.863-.025,6.732,6.732,0,0,0,3.785-2.11c.14-.143.264-.323.392-.476a.044.044,0,0,0,.017-.05.561.561,0,0,0-.03-.087.391.391,0,0,0-.309.01,2.187,2.187,0,0,0-.49.246,6.3,6.3,0,0,0-.962.79c-.169.174-.278.267-.32.424a.81.81,0,0,0-.007.494.58.58,0,0,0,.267.355,4.484,4.484,0,0,0,.559.227,6.505,6.505,0,0,0,1.218.266,10.31,10.31,0,0,0,2.587-.044,12.041,12.041,0,0,0,2.653-.665,8.053,8.053,0,0,0,1.288-.617,3.177,3.177,0,0,0,1.063-.95,1.031,1.031,0,0,0,.123-.288.527.527,0,0,0,.017-.133.171.171,0,1,0,0-.021.542.542,0,0,0-.417-.245,1.9,1.9,0,0,0-1.282.328,2.642,2.642,0,0,0-.94,1.22,2.561,2.561,0,0,0-.262,1.574.983.983,0,0,0,1.057.621,14.016,14.016,0,0,0,1.6-.075A15.585,15.585,0,0,0,30,8.014a9,9,0,0,0,1.585-.681,5.718,5.718,0,0,0,.726-.5c.1-.1.233-.2.312-.3a.717.717,0,0,0,.155-.293c.132-.439-.259-1.073-.629-.978a.593.593,0,0,0-.293.159,1.554,1.554,0,0,0-.279.262.665.665,0,0,0-.014.628.446.446,0,0,0,.2.216c.077.039.271.09.4.135a7.94,7.94,0,0,0,.886.225,8.2,8.2,0,0,0,1.828.125A6.8,6.8,0,0,0,36.7,6.693a3.735,3.735,0,0,0,1.615-.96,1.621,1.621,0,0,0,.2-.316s0,0,0-.006L38.5,5.3a.856.856,0,0,0-.044-.19c-.017-.045.007-.027-.025-.016a.949.949,0,0,0-.276.274,3.127,3.127,0,0,0-.454.947,1.287,1.287,0,0,0-.025.892A1.762,1.762,0,0,0,39.2,8.14a4.822,4.822,0,0,0,1.967-.3A13.162,13.162,0,0,0,45.01,5.758a3.172,3.172,0,0,0,.728-.777c.029-.038.014-.046.023-.058s-.017-.015.036-.013c-.043-.017-.012-.036-.021-.055a.452.452,0,0,0-.016-.172c-.014-.062-.057-.1-.188-.134a1.757,1.757,0,0,0-.934.19c-.19.088-.276.122-.328.222a.548.548,0,0,0-.072.355.372.372,0,0,0,.15.275l.477.267a5.9,5.9,0,0,0,1.043.373,5.281,5.281,0,0,0,2.194.052,5.657,5.657,0,0,0,2.118-.869,6.092,6.092,0,0,0,.94-.781c.148-.148.28-.318.422-.475l.3-.411-.115.013a1.447,1.447,0,0,0-.242.064,1.729,1.729,0,0,0-.834.588,1.2,1.2,0,0,0,.01.956,1.932,1.932,0,0,0,.65.863,2.264,2.264,0,0,0,1.982.2,8.876,8.876,0,0,0,2.059-.821,4.726,4.726,0,0,0,.9-.655,2.316,2.316,0,0,0,.343-.385.679.679,0,0,0,.093-.379.733.733,0,0,0-.4-.647c-.189-.091-.476.064-.6.284a.821.821,0,0,0,.016.787.632.632,0,0,0,.286.252l.482.211a6.849,6.849,0,0,0,1.982.457A6.9,6.9,0,0,0,62.34,4.7a6,6,0,0,0,1.6-1.218,1.106,1.106,0,0,0,0-1.531.831.831,0,0,0-1.288.294A2.165,2.165,0,0,0,62.634,4.1a2.041,2.041,0,0,0,1.239,1.2,3.33,3.33,0,0,0,1.69.09,7.777,7.777,0,0,0,3.231-1.439,8.909,8.909,0,0,0,.707-.582.922.922,0,0,0,.367-.614c.081-.5-.242-1.039-.638-1a.6.6,0,0,0-.535.241,1.047,1.047,0,0,0-.173.675.851.851,0,0,0,.259.593,2.68,2.68,0,0,0,.667.332,7.044,7.044,0,0,0,3.069.225,10.77,10.77,0,0,0,2.944-.769,3.978,3.978,0,0,0,1.234-.777.7.7,0,0,0,.145-.22c.007-.051.02-.027,0-.068.017.012-.036-.042-.077-.08a1,1,0,0,0-.123-.1.819.819,0,0,0-.254-.13,1.167,1.167,0,0,0-.6.022.7.7,0,0,0-.458.292,1.013,1.013,0,0,0,.008,1.128,7.709,7.709,0,0,0,2.259,1.607,7.137,7.137,0,0,0,4.918.446A6.894,6.894,0,0,0,84.684,4.1a7.351,7.351,0,0,0,.923-.784,1.845,1.845,0,0,0,.428-1.041,1.612,1.612,0,0,0-.244-1.049.757.757,0,0,0-.76-.316c-.548.075-.823,1.008-.565,1.618a.935.935,0,0,0,.618.594,7.092,7.092,0,0,0,.948.264,10.17,10.17,0,0,0,1.884.212,6.446,6.446,0,0,0,3.393-.755,3.271,3.271,0,0,0,.64-.546c.091-.106.163-.233.245-.344a.522.522,0,0,0,.074-.271c.019-.1-.191-.271-.4-.3a.555.555,0,0,0-.538.183,1.3,1.3,0,0,0-.173,1.348c.18.385.685.511,1.1.668a6.655,6.655,0,0,0,2.518.229A9.734,9.734,0,0,0,98.883,2.5a4.488,4.488,0,0,0,.752-.574,1.239,1.239,0,0,0,.423-.7.352.352,0,0,0-.1-.28,1.472,1.472,0,0,0-.291-.243,1.367,1.367,0,0,0-.647-.2.945.945,0,0,0-1.012.513,1.376,1.376,0,0,0,.043,1.153,1.431,1.431,0,0,0,.694.575,5.722,5.722,0,0,0,.686.3,7.057,7.057,0,0,0,1.557.346c.249.033.282.062.282.1s0,.066-.2.1a4.053,4.053,0,0,1-1.436-.114,4.779,4.779,0,0,1-1.516-.642,1.66,1.66,0,0,1-.575-1.363,1.752,1.752,0,0,1,.241-.875,1.158,1.158,0,0,1,.686-.523A1.724,1.724,0,0,1,100.079.4a2.044,2.044,0,0,1,.187.184.915.915,0,0,1,.179.35,1.128,1.128,0,0,1-.076.774,2.556,2.556,0,0,1-.722.883,9.227,9.227,0,0,1-4.1,1.728,8.144,8.144,0,0,1-2.624.056A5.342,5.342,0,0,1,91.5,3.958a1.448,1.448,0,0,1-.732-.623,1.958,1.958,0,0,1-.233-1.157,1.976,1.976,0,0,1,.425-1.086,1.028,1.028,0,0,1,.973-.374,1.158,1.158,0,0,1,.49.207.937.937,0,0,1,.376.683,1.282,1.282,0,0,1-.177.75,4.59,4.59,0,0,1-.32.448,5.09,5.09,0,0,1-3.523,1.462,9.372,9.372,0,0,1-4.032-.535,1.672,1.672,0,0,1-.879-1.176A2.415,2.415,0,0,1,84.04.933a1.266,1.266,0,0,1,2.375.149,2.694,2.694,0,0,1-.7,3.056,7.3,7.3,0,0,1-2.238,1.457,7.463,7.463,0,0,1-5.294.161,8.248,8.248,0,0,1-2.605-1.464c-.2-.191-.388-.325-.614-.566a1.776,1.776,0,0,1-.412-1.049,1.934,1.934,0,0,1,.267-1.135,1.3,1.3,0,0,1,.8-.6A1.722,1.722,0,0,1,76.477.9a1.351,1.351,0,0,1,.438.2,1.791,1.791,0,0,1,.387.366,1.034,1.034,0,0,1,.115.844,1.394,1.394,0,0,1-.315.536,3.2,3.2,0,0,1-.718.562A9.691,9.691,0,0,1,73.3,4.487a9.108,9.108,0,0,1-3.321.053,4.736,4.736,0,0,1-.853-.248,2.1,2.1,0,0,1-.872-.563,1.961,1.961,0,0,1,.191-2.5,1.08,1.08,0,0,1,.532-.249,1.2,1.2,0,0,1,.543.015,1.384,1.384,0,0,1,.863.9,2.041,2.041,0,0,1,0,1.417,1.647,1.647,0,0,1-.365.568c-.134.132-.249.234-.38.344a8.707,8.707,0,0,1-3.423,1.839,4.753,4.753,0,0,1-1.95.155,2.715,2.715,0,0,1-1.87-1.144,3.448,3.448,0,0,1-.512-2.65,2.1,2.1,0,0,1,.722-1.18A1.3,1.3,0,0,1,63.791,1a1.526,1.526,0,0,1,.97.97A2.114,2.114,0,0,1,64.7,3.56a2.927,2.927,0,0,1-.821,1.014,9.065,9.065,0,0,1-.921.663,7.427,7.427,0,0,1-4.177,1.129,7.357,7.357,0,0,1-2.181-.41c-.178-.066-.358-.126-.533-.21a2.023,2.023,0,0,1-.575-.323,1.714,1.714,0,0,1-.441-1.673A1.486,1.486,0,0,1,55.493,3a1.115,1.115,0,0,1,.7-.285A1.278,1.278,0,0,1,57.316,3.8a1.746,1.746,0,0,1-.038.967,1.852,1.852,0,0,1-.448.685,5.089,5.089,0,0,1-1.014.807,8.992,8.992,0,0,1-2.226.938,2.908,2.908,0,0,1-2.482-.2A2.683,2.683,0,0,1,50.152,5.8a2.629,2.629,0,0,1-.2-.872,2.673,2.673,0,0,1,.02-.469,1.463,1.463,0,0,1,.183-.505,2.238,2.238,0,0,1,1.174-.911,2.159,2.159,0,0,1,.335-.092l.183-.02c.072,0,.187.024.278.035.395.057.583.609.379,1.032a5.063,5.063,0,0,1-.82,1.135,7.067,7.067,0,0,1-.893.8,6.272,6.272,0,0,1-2,1,5.788,5.788,0,0,1-4.166-.335l-.481-.264a1.132,1.132,0,0,1-.493-.669,1.416,1.416,0,0,1,.5-1.564,3.127,3.127,0,0,1,1.046-.372,1.326,1.326,0,0,1,.6.037.906.906,0,0,1,.572.636,1.466,1.466,0,0,1-.047.931,2.5,2.5,0,0,1-.388.562,6.305,6.305,0,0,1-.832.736,13.3,13.3,0,0,1-1.74,1.1,9.386,9.386,0,0,1-3.695,1.223A2.841,2.841,0,0,1,37.73,8.4a2.118,2.118,0,0,1-.7-1.061,2.574,2.574,0,0,1,.1-1.377,4.132,4.132,0,0,1,.511-1.076,2.138,2.138,0,0,1,.407-.447.621.621,0,0,1,.747-.043,1.287,1.287,0,0,1,.335.744l.021.165c.007.088.025.178.024.267L39,5.964a2.666,2.666,0,0,1-.759.824A6.4,6.4,0,0,1,34.8,7.826a8.443,8.443,0,0,1-1.713-.118c-.283-.036-.559-.122-.838-.182l-.41-.132-.2-.065a1.037,1.037,0,0,1-.263-.143,1.5,1.5,0,0,1-.523-1.218,1.545,1.545,0,0,1,.174-.7,1.367,1.367,0,0,1,.2-.272l.189-.164a1.089,1.089,0,0,1,.97-.353,1.28,1.28,0,0,1,.851.741,1.863,1.863,0,0,1,.129,1.294,1.809,1.809,0,0,1-.634.913,6.319,6.319,0,0,1-1.449.912,12.848,12.848,0,0,1-2.986.907,16.536,16.536,0,0,1-2.952.291,1.808,1.808,0,0,1-1.556-.571,1.811,1.811,0,0,1-.371-1.051,3.256,3.256,0,0,1,.123-1.02,4.991,4.991,0,0,1,.783-1.627,2.779,2.779,0,0,1,1.311-.932,1.725,1.725,0,0,1,1.536.118,1,1,0,0,1,.356.453.718.718,0,0,1,.063.385,1.314,1.314,0,0,1-.034.293,2.1,2.1,0,0,1-.437.867,6.019,6.019,0,0,1-2.39,1.517,12.24,12.24,0,0,1-2.456.657A9,9,0,0,1,17.511,8.3c-.1-.047-.176-.07-.293-.137a1.115,1.115,0,0,1-.32-.276,1.588,1.588,0,0,1-.316-.863,1.692,1.692,0,0,1,.184-.913,2.485,2.485,0,0,1,.47-.549,6.8,6.8,0,0,1,.946-.768A1.58,1.58,0,0,1,19.4,4.437a.643.643,0,0,1,.381.342,1.245,1.245,0,0,1,.122.562c.072.231-.125.373-.2.487l-.191.238a6.676,6.676,0,0,1-.819.843,6.8,6.8,0,0,1-1.821,1.163,8.944,8.944,0,0,1-3.742.7,13.32,13.32,0,0,1-1.763-.15c-.29-.038-.558-.093-.854-.152a1.208,1.208,0,0,1-.823-.858,1.772,1.772,0,0,1,.1-1.311,1.372,1.372,0,0,1,.385-.455A1.672,1.672,0,0,1,10.6,5.61c.69-.235,1.361.388,1.526,1.143a1.888,1.888,0,0,1-.1,1.175,1.737,1.737,0,0,1-.284.446l-.282.3a7.99,7.99,0,0,1-1.193,1.01,6.445,6.445,0,0,1-4.907,1.117,4.589,4.589,0,0,1-.553-.141l-.27-.087a1.274,1.274,0,0,1-.3-.17,1.785,1.785,0,0,1-.015-2.622A1.059,1.059,0,0,1,5.28,7.514a1.769,1.769,0,0,1,1,1.928,1.948,1.948,0,0,1-.436.951c-.173.219-.349.419-.522.608a9.574,9.574,0,0,1-1.961,1.64,5.25,5.25,0,0,1-2.626.926c-.544,0-.744-.1-.74-.123" transform="translate(0 0)" fill="#595757"/>
    </g>
  </g>
</svg>
