<svg xmlns="http://www.w3.org/2000/svg" xmlns:xlink="http://www.w3.org/1999/xlink" width="310.893" height="3.641" viewBox="0 0 310.893 3.641">
  <defs>
    <clipPath id="clip-path">
      <rect id="Rectangle_136" data-name="Rectangle 136" width="3.641" height="310.893" fill="none"/>
    </clipPath>
  </defs>
  <g id="Group_886" data-name="Group 886" transform="translate(0 3.641) rotate(-90)">
    <g id="Group_885" data-name="Group 885" clip-path="url(#clip-path)">
      <path id="Path_491" data-name="Path 491" d="M1.7,152.6c1.5-1.209,1.853-3.5.351-4.706a3.021,3.021,0,0,1,0-4.705,3.019,3.019,0,0,0,0-4.7,3.021,3.021,0,0,1,0-4.705,3.019,3.019,0,0,0,0-4.7,3.021,3.021,0,0,1,0-4.7,3.019,3.019,0,0,0,0-4.7,3.02,3.02,0,0,1,0-4.7,3.02,3.02,0,0,0,0-4.705,3.02,3.02,0,0,1,0-4.7,3.02,3.02,0,0,0,0-4.705,3.02,3.02,0,0,1,0-4.7,3.02,3.02,0,0,0,0-4.705,3.02,3.02,0,0,1,0-4.7c1.5-1.209,1.15-3.927-.351-5.136" fill="none" stroke="#888" stroke-miterlimit="10" stroke-width="0.792"/>
      <path id="Path_492" data-name="Path 492" d="M2.726,82.742a3,3,0,0,0-.9-1.2,3.021,3.021,0,0,1,0-4.705,3.019,3.019,0,0,0,0-4.7,3.02,3.02,0,0,1,0-4.7,3.02,3.02,0,0,0,0-4.7,3.02,3.02,0,0,1,0-4.7,3.02,3.02,0,0,0,0-4.7,3.02,3.02,0,0,1,0-4.7,3.019,3.019,0,0,0,0-4.7,3.021,3.021,0,0,1,0-4.705,3.019,3.019,0,0,0,0-4.7,3.021,3.021,0,0,1,0-4.7,3.019,3.019,0,0,0,0-4.7,3.021,3.021,0,0,1,0-4.7,3.019,3.019,0,0,0,0-4.7,3.02,3.02,0,0,1,0-4.7,3.02,3.02,0,0,0,0-4.7,3.02,3.02,0,0,1,0-4.7L3.393.308" fill="none" stroke="#888" stroke-miterlimit="10" stroke-width="0.792"/>
      <path id="Path_493" data-name="Path 493" d="M1.522,228.84h0a3.019,3.019,0,0,0,0-4.7,3.021,3.021,0,0,1,0-4.705,3.019,3.019,0,0,0,0-4.7,3.021,3.021,0,0,1,0-4.705,3.019,3.019,0,0,0,0-4.7,3.021,3.021,0,0,1,0-4.7,3.019,3.019,0,0,0,0-4.7,3.02,3.02,0,0,1,0-4.7,3.02,3.02,0,0,0,0-4.705,3.02,3.02,0,0,1,0-4.7,3.02,3.02,0,0,0,0-4.705,3.02,3.02,0,0,1,0-4.7,3.019,3.019,0,0,0,0-4.7,3.021,3.021,0,0,1,0-4.705,3.019,3.019,0,0,0,0-4.7c-1.5-1.209-1.328-4.46.173-5.668" fill="none" stroke="#888" stroke-miterlimit="10" stroke-width="0.792"/>
      <path id="Path_494" data-name="Path 494" d="M2.421,310.742a3,3,0,0,0-.9-1.2,3.021,3.021,0,0,1,0-4.705,3.019,3.019,0,0,0,0-4.7,3.02,3.02,0,0,1,0-4.7,3.02,3.02,0,0,0,0-4.7,3.02,3.02,0,0,1,0-4.7,3.02,3.02,0,0,0,0-4.705,3.02,3.02,0,0,1,0-4.7,3.019,3.019,0,0,0,0-4.7,3.021,3.021,0,0,1,0-4.7,3.019,3.019,0,0,0,0-4.7,3.021,3.021,0,0,1,0-4.7,3.019,3.019,0,0,0,0-4.7,3.021,3.021,0,0,1,0-4.705,3.019,3.019,0,0,0,0-4.7,3.02,3.02,0,0,1,0-4.7,3.02,3.02,0,0,0,0-4.705c-1.5-1.209-1.328-4.459.174-5.668" fill="none" stroke="#888" stroke-miterlimit="10" stroke-width="0.792"/>
    </g>
  </g>
</svg>
