<svg width="114" height="112" viewBox="0 0 114 112" fill="none" xmlns="http://www.w3.org/2000/svg"><g clip-path="url(#clip0_1259_5059)"><path d="M25.59 19.53c.44-.38.88-.77 1.31-1.16-.45.38-.89.76-1.33 1.14 0 0 .01 0 .02.01v.01zM94.001 8.41c-.97-.69-1.96-1.34-2.97-1.92.77.5 1.47 1 2.24 1.55.23.13.49.24.73.37zm13.62 24.86c.04.21.09.42.13.63-.04-.49-.07-.98-.12-1.47.01.28.02.56 0 .84h-.01zM97.45 11.26a31.67 31.67 0 00-2.39-2.07c-.19-.15-.38-.28-.58-.43.09.1.18.21.23.35.9.73 1.82 1.43 2.74 2.15zm1.448 42.11c.01-.06.03-.12.04-.18-.03.09-.07.19-.11.28.02-.04.05-.07.07-.1zm-50.39-20.14c.11-.12.2-.24.3-.37-.07.06-.14.12-.23.15l-.28.31c-.22.24-.44.49-.65.73.29-.27.58-.55.86-.83v.01z" fill="#F9BA55"/><path d="M99.592 28.41c-3.67-13.89-16.18-21.22-30.04-21.18-25.97.12-51.8 21.11-58.92 45.8-6.38 22.22 5.65 41.37 29.49 41.5 21.65-.19 41.97-14.21 53-32.34 5.95-10 9.46-22.27 6.46-33.77l.01-.01zm-48.22-16.12c1.17-.34 2.92-.84 3.36.74.41 1.67-1.41 2.02-2.63 2.25-1.1.48-2.68.47-2.89-1.02-.17-1.33 1.12-1.77 2.16-1.98v.01zm-7.36 3.57c1.72-1 3.28 1.7 1.53 2.67-3.11 1.72-6.05 3.72-8.97 5.73-1.69 1.19-3.42 2.34-4.88 3.81-.45 1.03-1.81 1.58-2.67.68-3.11-2.86 12.67-11.28 14.99-12.89zm16.02 73.38c-1.15.69-3.01 1.78-3.77.03-.66-1.8 1.62-2.23 2.73-2.98 1.09-1 3.15-.91 3.17.89 0 1.2-1.31 1.51-2.12 2.06h-.01zm18.64-12.63c-1.67 1.84-3.42 3.61-5.46 5.04-2.29 1.37-4.39 3.77-7.01 4.29-1.3-.16-1.78-2.04-.66-2.77 2.55-1.64 5.08-3.34 7.44-5.25 1.65-1.17 2.68-3.07 4.4-4.11 1.75-.73 2.96 1.94 1.29 2.79v.01zm3.73-34.56c-.07.54-.57 1.26-1.15 1.05.08.23.03.49-.14.68-3.2 3.58-6.06 7.44-9.11 11.14-1.83 2.22-3.69 4.41-5.58 6.57-2.39 2.76-4.55 5.62-6.84 8.45-1.75 2.17-3.46 4.38-5.32 6.46-.5.58-1.01 1.16-1.55 1.7-.21.21-.51.26-.77.15-.18.15-.43.2-.72.07-2.44-1.24-4.85-2.52-7.36-3.61-2.57-1.18-5.03-2.56-7.59-3.77a73.34 73.34 0 01-7.5-3.94c-2.1-1.15-4.22-2.27-6.21-3.61a.694.694 0 01-.27-1.21.413.413 0 01-.11-.07c-.29-.21-.38-.65-.16-.94.9-1.14 1.79-2.28 2.66-3.34.95-1.16 1.91-2.27 2.89-3.4 3.64-4.37 7.54-8.5 11.39-12.68 3.17-3.63 6.47-7.15 9.59-10.81.14-.18.31-.27.49-.28l.57-.63a.73.73 0 01.69-.4c.04-.04.08-.08.13-.12.59-.35 1.3.04 1.89.2a399.56 399.56 0 0119.99 6.91c3.08 1.24 6.05 2.76 9.06 4.17.5.23 1.08.61 1 1.25l.03.01zm26.27-11.89s0 .06.01.09h.02c0-.03-.02-.05-.03-.08v-.01zM21.34 98.9c-.18-.08-.37-.16-.54-.24.16.11.33.21.49.32.02-.03.03-.06.05-.08z" fill="#F9BA55"/><path d="M60.979 88.63h-.01v.01l.01-.01zm21.052-10.75l.66-.51c.48-.5.96-1 1.43-1.51-.68.69-1.38 1.36-2.09 2.02zM9.76 50.77c-.12.38-.23.75-.33 1.14.04.08.05.16.07.24.16-.54.33-1.07.5-1.6-.07.09-.16.16-.25.22h.01zm44.931 48.68c.54-.14 1.08-.3 1.62-.45-.5.11-.99.23-1.49.33-.03.04-.09.08-.13.12zm-32.6-69.96c-.13.2-.27.4-.4.6.18-.22.37-.43.56-.65-.05.01-.1.04-.16.05zM10.3 49.59v.08l.09-.24c-.03.05-.05.1-.08.16h-.01zm2.419 33.08c.12.13.25.26.38.39-.12-.17-.25-.34-.36-.51 0 .04 0 .08-.01.12h-.01zm92.23-60.46c.95 2.5 1.7 5.07 2.3 7.66a36.19 36.19 0 00-2.3-7.66zM78.172 88.32c1.19-.85 2.36-1.73 3.5-2.64-.89.68-1.79 1.35-2.7 1.99-.26.22-.53.43-.8.65zM31.129 59.53a.813.813 0 01-.02-.31c-.08.09-.16.19-.23.28.22.21.45.4.7.59a.886.886 0 01-.08-.17.677.677 0 01-.37-.39zM5.871 82.11c-.6-1.33-1.16-2.69-1.66-4.07.5 1.5 1.09 2.93 1.76 4.29h.01c-.04-.07-.07-.14-.11-.21v-.01z" fill="#F9BA55"/><path d="M60.972 88.63c.06-.02.11-.04.17-.05.01 0 .02-.01.03-.02-.18.07-.37.1-.57.11.12 0 .25-.02.37-.04zM36.39 46.54c-.57.62-1.15 1.23-1.71 1.85.57-.57 1.14-1.14 1.73-1.69-.01-.05-.01-.1-.02-.16zM47.389 72.9s.05.03.07.04v-.07s-.02-.01-.03-.02c-.02.01-.03.03-.05.04l.01.01zM2.44 61.81c-.04.44-.07.89-.1 1.34.06-.44.09-.89.1-1.34zm29.73-1.28c.94.63 1.96 1.15 3 1.63-.72-.38-1.43-.77-2.15-1.17-.28-.16-.57-.31-.86-.46h.01zm4.49.76c-.09.01-.18.01-.27 0 .08.04.15.08.23.12 0-.04.03-.08.05-.12h-.01zM51.348 45.1c.16-.21.32-.41.47-.62-.19.21-.37.4-.49.56 0 .02 0 .04.02.06zm20.573-.08c-.08.1-.16.2-.23.3.12-.15.24-.3.37-.45-.02 0-.03 0-.05-.01 0 0 0 .02-.01.02-.02.05-.04.09-.07.14h-.01z" fill="#F9BA55"/><path d="M31.69 28.08c1.46-1.47 3.2-2.62 4.88-3.81 2.92-2.01 5.87-4.01 8.97-5.73 1.74-.98.18-3.68-1.53-2.67-2.33 1.61-18.11 10.03-14.99 12.89.86.91 2.22.35 2.67-.68zm20.41-12.8c1.23-.23 3.05-.59 2.63-2.25-.44-1.59-2.2-1.08-3.36-.74-1.04.21-2.33.65-2.16 1.98.21 1.49 1.79 1.5 2.89 1.02v-.01zm25.281 58.54c-1.72 1.04-2.75 2.94-4.4 4.11-2.36 1.9-4.89 3.61-7.44 5.25-1.11.73-.63 2.61.66 2.77 2.62-.53 4.72-2.93 7.01-4.29 2.05-1.43 3.8-3.19 5.46-5.04 1.67-.86.46-3.52-1.29-2.79v-.01zM58.982 86.29c-1.11.75-3.38 1.18-2.73 2.98.76 1.75 2.63.66 3.77-.03.81-.56 2.12-.87 2.12-2.06-.02-1.8-2.07-1.89-3.17-.89h.01zm2.16 2.29c-.06.02-.11.04-.17.05-.12.02-.24.04-.37.04.2 0 .39-.04.57-.11-.01 0-.02.01-.03.02z" fill="#FFCF83"/><path d="M36.661 61.29c.15-.44.54-.77.82-1.13 1.23-1.41 2.73-2.75 3.96-4.08 3.16-3.79 6.87-7.09 9.9-10.98 0-.02 0-.04-.02-.06.12-.16.3-.35.49-.56.14-.19.29-.37.42-.55a.716.716 0 01-.21-.35c-.42-1.56-.69-3.16-.91-4.76 0-.25-.07-.55-.1-.84-2.64 2.67-4.97 5.63-7.45 8.45-2.87 3.16-5.59 6.46-8.3 9.77-.82 1.01-1.61 2.04-2.47 3.01-.03.03-.06.07-.1.1.52.29 1.05.56 1.58.85.69.39 1.39.77 2.09 1.14.09.01.18.02.27 0l.03-.01zm26.73-19.23c-3.63-1.51-7.27-3.04-11.02-4.24.16 1.79.45 3.42.88 5.12.05 0 .09.02.14.04 3.52 1.28 6.92 2.83 10.3 4.42 1.01.47 2.01.97 3.09 1.26.15.05.26.12.34.22l.79-.91c.87-1.08 1.74-2.15 2.57-3.25-2.32-1-4.75-1.71-7.09-2.65v-.01zm34.861 30.51c-.39-.39-.78-.78-1.16-1.18a71.4 71.4 0 01-2.58 3.37c1.94 1.7 3.76 3.53 5.66 5.28.8-1.08 1.58-2.18 2.32-3.31-1.44-1.36-2.84-2.77-4.24-4.17v.01zM73.84 93.05a.803.803 0 01-.13-.24c-1.2.72-2.41 1.41-3.64 2.06 1.33 1.57 2.72 2.87 4.17 4.28.73.69 1.48 1.35 2.23 2.02 1.23-.71 2.45-1.46 3.65-2.25-2.13-1.91-4.14-3.96-6.27-5.86l-.01-.01zm21.391-7c-.89-.87-1.77-1.75-2.65-2.62-1.03-1.01-2.06-2.03-3.03-3.1-.22.22-.43.44-.65.66-.98.97-1.99 1.92-3.03 2.85.18.15.34.33.52.49.65.67 1.4 1.44 2.01 2.05 1.1 1.1 2.2 2.19 3.34 3.25 1.2-1.16 2.37-2.35 3.5-3.59l-.01.01zm5.98-20.05c-.11-.11-.23-.24-.34-.39a71.68 71.68 0 01-3 4.69c.14.09.27.22.37.35 1.65 1.66 3.3 3.32 4.99 4.93 1-1.6 1.94-3.23 2.8-4.89-1.62-1.55-3.27-3.08-4.82-4.7V66zM70.47 104.25c1.62-.75 3.2-1.55 4.75-2.4-.9-.8-1.79-1.6-2.65-2.44-1.25-1.28-2.62-2.49-3.69-3.92-1.59.81-3.21 1.56-4.86 2.25 1.59 1.45 3.16 2.92 4.87 4.23.53.43 1.06.85 1.59 1.29.35.32.26.75 0 .99h-.01zm-12.788 4.44a68.44 68.44 0 006.1-1.76c-.82-.58-1.64-1.17-2.44-1.78-1.86-1.41-3.5-3.1-5.26-4.62-1.76.49-3.53.91-5.32 1.24 1.72 1.45 3.34 3.04 5.1 4.45.61.5 1.22.99 1.83 1.49.35.32.26.74 0 .99l-.01-.01zm53.928-58.98c-1.07-1.31-2.1-2.64-3.22-3.9-.3 1.67-.68 3.32-1.14 4.96.22.14.4.34.59.52 1.27 1.31 2.44 2.7 3.62 4.08.35-1.8.62-3.61.78-5.45-.21.05-.44 0-.64-.21h.01zm-2.908 14.12c-1.21-1.17-2.36-2.38-3.53-3.58-.33-.35-.67-.69-.98-1.07-.79 1.75-1.65 3.47-2.59 5.15.06.04.12.07.17.13.21.45.55.78.9 1.13 1.31 1.3 2.65 2.58 3.99 3.85.88-1.79 1.66-3.61 2.35-5.47a.637.637 0 01-.31-.15v.01zm-81.593 38.81c4.2 2.39 8.57 4.71 13.26 5.88-2.37-2.04-4.58-4.29-7.05-6.2a45.58 45.58 0 01-3.07-.49c-3.25-.7-6.21-1.7-8.91-2.93-.02.03-.04.05-.05.08 1.89 1.28 3.84 2.48 5.83 3.65l-.01.01zm83.83-45.82c-1.34-1.56-2.65-3.14-4.07-4.61 0 0-.02-.02-.03-.02a62.01 62.01 0 01-2.05 5.63c.05.04.1.08.14.14.4.56.9 1.05 1.38 1.55 1.1 1.11 2.1 2.15 3.17 3.21a57.99 57.99 0 001.66-5.75c-.06-.04-.13-.08-.19-.14l-.01-.01zm-53.901 52.02a.945.945 0 01-.24-.13c-2.64-2.03-5-4.38-7.59-6.47-.22 0-.38-.05-.51-.13-1.89.29-3.8.48-5.71.58 1.68 1.64 3.51 3.14 5.28 4.67.96.81 1.93 1.58 2.87 2.31.81-.02 1.63-.07 2.43-.15 1.16-.19 2.31-.43 3.46-.69l.01.01zM109.18 37.3c.08.04.16.09.22.16.87.99 1.67 2.04 2.48 3.08-.72-3.24-1.87-6.39-2.9-9.55-.09-.25-.19-.5-.28-.75h-.02c.07.42.13.85.18 1.28.23 1.93.33 3.86.32 5.78zm-60.19 72.36c-1.56-1.25-3.09-2.54-4.59-3.87-1.07-1.01-2.24-1.96-3.26-3.03-1.79.03-3.59-.02-5.39-.17 2.47 2.16 4.87 4.5 7.43 6.48.29.04.57.1.86.13 1.65.24 3.3.41 4.95.47v-.01zm20.612-5.39c-1.07-.89-2.17-1.74-3.24-2.63-1.08-.9-2.1-1.85-3.12-2.82-.19-.18-.39-.35-.59-.52-1.66.66-3.35 1.25-5.05 1.77.02.01.03.03.05.05 1.48 1.39 2.96 2.77 4.56 4.02 1.02.77 2.07 1.52 3.12 2.26 1.61-.59 3.18-1.25 4.74-1.96-.15 0-.32-.03-.47-.16v-.01zm39.69-64.86a.951.951 0 00-.15-.2 48.19 48.19 0 01-.47 4.95c1.34 1.34 2.49 2.87 3.68 4.34.1-1.72.12-3.45.04-5.2v-.02a.486.486 0 01-.14-.11c-.99-1.25-1.96-2.51-2.95-3.76h-.01zM80.48 88.29c1.02.93 2.05 1.86 3.07 2.79 1.08.98 2.18 1.94 3.29 2.89a79.06 79.06 0 003.92-3.41c-1.93-1.81-3.76-3.68-5.6-5.56-.11-.08-.21-.19-.29-.29a84.87 84.87 0 01-4.42 3.56c0 .01.02.02.03.03v-.01zm10.678-8.18c1.63 1.68 3.3 3.3 4.96 4.94 1.12-1.27 2.21-2.58 3.24-3.92-1.91-1.76-3.75-3.6-5.7-5.32-1.02 1.22-2.08 2.4-3.17 3.55.24.26.45.58.67.76v-.01zM76.399 93.57c1.61 1.54 3.2 3.09 4.87 4.57a78.91 78.91 0 004.51-3.31c-1.93-1.66-3.82-3.38-5.71-5.09-.21-.19-.51-.42-.69-.67a77.695 77.695 0 01-4.57 3.08c.04.03.08.06.11.1.49.44 1 .87 1.48 1.33v-.01z" fill="#E99547"/><path d="M47.65 34.06c-3.16 3.52-6.29 7.08-9.48 10.58-.6.63-1.19 1.27-1.78 1.91 0 .05 0 .11.02.16-.59.55-1.16 1.13-1.73 1.69-3.04 3.35-5.99 6.78-8.9 10.24-.9 1.1-1.77 2.21-2.65 3.33-.04.06-.09.1-.15.14 0 0 .02 0 .03.01 2.95 1.88 6.05 3.45 9.05 5.23 2.46 1.38 5.08 2.45 7.58 3.75 4.01 2.11 8.18 3.87 12.17 6.01 1.16-1.21 2.29-2.55 3.35-3.81 3.62-4.39 7.03-8.96 10.76-13.27 4.07-4.59 7.71-9.31 11.55-14.05.87-1.05 1.73-2.11 2.66-3.11.18-.2.46-.25.71-.17-.07-.2-.05-.43.09-.61v-.01c-3.75-1.79-7.45-3.69-11.39-5.04-6.12-2.28-12.3-4.41-18.55-6.32-.08.02-.15.02-.22.01-.17.28-.46.53-.64.75-.42.46-.85.91-1.28 1.37 0 .01-.02.01-.03.02-.1.12-.19.25-.3.37l-.86.83-.01-.01zm-.19 38.88s-.05-.03-.07-.04c.02-.01.03-.03.05-.04 0 0 .02.01.03.02v.07l-.01-.01zM63.62 40.7c2.71 1.1 5.55 1.9 8.2 3.14.44.23.43.72.19 1.02.02 0 .03 0 .05.01-.12.15-.25.31-.37.45-.7.94-1.43 1.85-2.16 2.77-3.22 3.94-6.71 7.66-9.92 11.6-1.74 2.12-3.41 4.3-5.18 6.4-.57.68-1.16 1.35-1.76 2-.1.11-.23.17-.36.2-.02.55-.8 1.01-1.37.79-2.92-1.15-5.9-2.17-8.73-3.55-2.41-1-4.74-2.16-7.04-3.38-1.04-.48-2.07-1-3-1.63-.14-.08-.28-.15-.41-.23a.668.668 0 01-.18-.2 9.51 9.51 0 01-.7-.59c.08-.09.16-.19.23-.28.03-.19.12-.36.28-.47.45-.45.86-.93 1.25-1.43 2.21-2.77 4.48-5.5 6.77-8.2 1.84-2.18 3.81-4.24 5.62-6.45 1.89-2.27 3.85-4.48 5.96-6.55.26-.26.72-.19.95.07.04.05.07.1.1.15 1.26.2 2.43.8 3.64 1.2 2.68.97 5.32 2.03 7.95 3.15l-.01.01z" fill="#FFCE80"/><path d="M25.57 19.52C15.62 28.27 7.92 39.53 4.21 52.26c-.88 3.11-1.48 6.32-1.76 9.56 0 .45-.03.89-.1 1.34-.25 4.29.1 8.6 1.21 12.75.19.73.41 1.44.65 2.14.5 1.38 1.06 2.74 1.66 4.07.04.07.07.14.11.21h-.01c6.19 12.53 19.35 19.15 33.71 19.13 5.04 0 10.08-.71 15.02-2.01.04-.04.1-.08.13-.12.5-.1.99-.22 1.49-.33 7.72-2.23 15.15-5.91 21.86-10.68.27-.22.54-.43.8-.65.92-.64 1.82-1.31 2.7-1.99 13.38-10.7 23.28-25.82 25.73-42.14.29-2.11.45-4.22.47-6.35.02-1.1-.04-2.19-.12-3.29-.05-.21-.09-.42-.13-.63.03-.28.02-.56 0-.84-.1-.86-.22-1.72-.38-2.57-.61-2.58-1.36-5.16-2.3-7.66-.57-1.34-1.21-2.65-1.94-3.91-.11-.14-.21-.28-.26-.43a32.06 32.06 0 00-5.3-6.61c-.92-.71-1.84-1.42-2.74-2.15a.929.929 0 00-.23-.35c-.16-.12-.32-.24-.49-.36-.24-.13-.5-.25-.73-.37a60.16 60.16 0 00-2.24-1.55c-13.24-7.62-30.3-6.08-44.1-.36-7.2 3.02-14 7.19-20.03 12.25-.43.39-.87.78-1.31 1.16 0 0-.01 0-.02-.01l.01.01zM73.95 6.14C91.03 7.8 102.71 21 102.01 38.2c-.18 5.16-1.28 10.2-3.06 15-.01.06-.03.12-.04.18-.02.04-.05.07-.07.1-2.83 7.49-7.34 14.41-12.71 20.3-.65.71-1.33 1.4-2.01 2.09-.47.51-.95 1.01-1.43 1.51l-.66.51C69.81 89.25 53.44 96.97 36.6 95.71c-9.36-.66-18.18-5.17-23.5-12.64-.13-.13-.25-.26-.38-.39.01-.04 0-.08.01-.12a27.238 27.238 0 01-3.22-6.4C6.76 68.38 7.19 60 9.49 52.15c-.02-.08-.04-.16-.07-.24.1-.38.21-.76.33-1.14.09-.07.18-.14.25-.22.1-.29.18-.58.28-.87 0-.03.01-.05 0-.08.03-.05.05-.1.08-.16.98-2.77 2.17-5.45 3.54-8 2.15-3.97 4.77-7.78 7.77-11.35.13-.2.27-.4.4-.6.06 0 .11-.03.16-.05 12.81-14.87 32.22-25.13 51.7-23.3h.02z" fill="#FFCE80"/><path d="M51.93 36.2c-.23-.26-.68-.33-.95-.07-2.11 2.07-4.07 4.28-5.96 6.55-1.81 2.21-3.78 4.27-5.62 6.45-2.29 2.71-4.55 5.44-6.77 8.2-.4.49-.8.98-1.25 1.43-.16.11-.25.28-.28.47-.02.1-.02.21.02.31.06.19.2.32.37.39.02.06.039.11.079.17.04.07.1.14.18.2.13.09.27.16.41.23.28.15.57.3.86.46.71.39 1.43.78 2.15 1.17 2.3 1.23 4.63 2.39 7.04 3.38 2.83 1.38 5.8 2.4 8.73 3.55.57.22 1.35-.24 1.37-.79.14-.02.26-.09.36-.2.61-.65 1.19-1.32 1.76-2 1.77-2.1 3.44-4.28 5.18-6.4 3.21-3.94 6.71-7.66 9.92-11.6.72-.92 1.46-1.83 2.16-2.77.08-.1.16-.2.23-.3.03-.04.05-.09.07-.14 0 0 0-.02.01-.02.24-.3.25-.78-.19-1.02-2.66-1.25-5.49-2.04-8.2-3.14-2.62-1.12-5.27-2.18-7.95-3.15-1.2-.4-2.38-1-3.64-1.2-.03-.05-.06-.11-.1-.15l.01-.01zM34.3 60.15c-.53-.29-1.06-.56-1.58-.85.03-.03.059-.07.099-.1.86-.97 1.65-2 2.47-3.01 2.71-3.31 5.42-6.61 8.3-9.77 2.48-2.82 4.81-5.78 7.45-8.45.03.3.09.59.1.84.22 1.6.48 3.2.91 4.76.04.15.12.27.21.35-.14.19-.28.37-.42.55-.16.21-.31.42-.47.62-3.03 3.89-6.74 7.19-9.9 10.98-1.23 1.33-2.73 2.67-3.96 4.08-.28.36-.68.69-.82 1.13-.01.04-.04.08-.05.12-.08-.04-.15-.08-.23-.12-.7-.37-1.4-.75-2.09-1.14l-.02.01zm3.43 1.83s.09-.1.12-.16c1.46-1.9 3.34-3.42 4.92-5.21.93-1.03 1.82-2.1 2.76-3.12 2.79-2.86 5.62-5.7 7.93-8.97.02-.02.03-.04.04-.06 1.87.72 3.74 1.43 5.55 2.27 2.4 1.04 4.7 2.35 7.19 3.17-4.15 4.8-8.28 9.57-12.21 14.58-.76.92-1.54 1.83-2.35 2.71-.12.13-.18.29-.18.45a.596.596 0 00-.301.14c-2.01-.86-4.11-1.5-6.11-2.39-2.45-1.09-4.94-2.19-7.37-3.4l.01-.01zm29.4-13.1a.773.773 0 00-.34-.22c-1.08-.3-2.081-.79-3.091-1.26-3.38-1.59-6.79-3.14-10.3-4.42-.05-.02-.1-.03-.14-.04-.43-1.7-.72-3.33-.88-5.12 3.74 1.2 7.39 2.73 11.02 4.24 2.34.94 4.77 1.65 7.09 2.65-.83 1.1-1.7 2.17-2.57 3.25-.26.31-.53.61-.79.91v.01z" fill="#C8612F"/><path d="M81.399 40.81c-3.01-1.42-5.97-2.93-9.06-4.17-6.61-2.47-13.27-4.8-19.99-6.91-.6-.16-1.3-.55-1.89-.2-.05.04-.1.08-.13.12a.73.73 0 00-.69.4c-.19.22-.38.43-.57.63-.18.01-.35.09-.49.28-3.13 3.66-6.42 7.18-9.59 10.81-3.85 4.18-7.75 8.32-11.39 12.68-.98 1.13-1.94 2.24-2.89 3.4-.88 1.06-1.77 2.2-2.66 3.34-.23.29-.13.73.16.94.04.03.07.05.11.07-.37.3-.38 1 .27 1.21 1.99 1.34 4.11 2.45 6.21 3.61a72.31 72.31 0 007.5 3.94c2.55 1.21 5.02 2.59 7.59 3.77 2.51 1.09 4.93 2.37 7.36 3.61.28.14.54.08.72-.07.25.11.56.06.77-.15.54-.55 1.04-1.13 1.55-1.7 1.86-2.08 3.57-4.29 5.32-6.46 2.29-2.83 4.45-5.69 6.84-8.45 1.89-2.16 3.76-4.35 5.58-6.57 3.05-3.7 5.91-7.56 9.11-11.14.17-.19.22-.45.14-.68.57.21 1.08-.52 1.15-1.05.09-.63-.49-1.02-1-1.25l-.03-.01zm-32.81-7.8c.09-.03.16-.08.23-.15.01 0 .02-.01.03-.02.43-.45.86-.91 1.28-1.37.19-.21.47-.47.64-.75.07 0 .14 0 .22-.01 6.25 1.91 12.43 4.04 18.55 6.32 3.93 1.35 7.64 3.25 11.39 5.04v.01a.7.7 0 00-.09.61.699.699 0 00-.71.17c-.93 1-1.79 2.06-2.66 3.11-3.84 4.74-7.48 9.45-11.55 14.05-3.73 4.31-7.14 8.88-10.76 13.27-1.07 1.26-2.2 2.6-3.35 3.81-3.99-2.14-8.17-3.9-12.17-6.01-2.5-1.31-5.12-2.38-7.58-3.75-3-1.78-6.1-3.35-9.05-5.23-.01 0-.02 0-.03-.01.06-.04.11-.09.15-.14.88-1.12 1.76-2.23 2.65-3.33 2.91-3.46 5.86-6.89 8.9-10.24.57-.62 1.14-1.24 1.71-1.85.59-.64 1.18-1.28 1.78-1.91 3.19-3.5 6.31-7.06 9.48-10.58.22-.24.43-.49.65-.73l.28-.31h.01z" fill="#C8612F"/><path d="M21.68 30.09c-3 3.56-5.62 7.38-7.77 11.35a57.985 57.985 0 00-3.54 8l-.09.24c-.1.29-.19.58-.28.87-.17.53-.35 1.06-.5 1.6-2.3 7.85-2.73 16.23.02 24.01.8 2.32 1.9 4.46 3.22 6.4l.36.51c5.32 7.47 14.14 11.98 23.5 12.64 16.85 1.27 33.22-6.45 45.43-17.82.71-.66 1.41-1.33 2.09-2.02.68-.69 1.36-1.38 2.01-2.09 5.36-5.89 9.87-12.8 12.71-20.3.04-.09.07-.19.11-.28 1.79-4.8 2.89-9.84 3.06-15 .7-17.19-10.98-30.39-28.06-32.06-19.48-1.83-38.89 8.44-51.7 23.3-.19.22-.38.43-.56.65h-.01zm18.45 64.43c-23.84-.13-35.88-19.27-29.49-41.5 7.12-24.69 32.95-45.67 58.92-45.8 13.86-.04 26.36 7.29 30.04 21.18 3 11.5-.51 23.77-6.46 33.77-11.03 18.13-31.35 32.15-53 32.34l-.01.01z" fill="#C8612F"/><path d="M113.75 43.46v-.07c-.03-.48-.06-.95-.1-1.43a.68.68 0 00-.16-.39c-.11-.57-.23-1.15-.37-1.71-1.05-4.03-2.35-8-3.81-11.9-1.35-3.54-2.66-7.21-5-10.24-.06-.08-.13-.15-.2-.23C98.71 8.52 89.39 2.36 78.35.63 48.56-3.92 17.8 17.13 5.86 43.82c-7.71 16.99-6.44 35.77 4.77 47.53.02.07.05.14.1.21 1.47 1.8 3.27 3.32 5 4.88 1.05.92 2.13 1.82 3.28 2.62 4.57 3.15 9.44 6.09 14.5 8.43 1.27.58 2.57 1.1 3.88 1.59 1.71.62 3.49 1 5.29 1.28.03.02.05.04.08.06.25.13.47.13.64.05.06 0 .12.02.18.03.08.06.15.13.22.2.59.03 1.18.05 1.78.05.07 0 .15.02.22.03 1.64.19 3.3.28 4.95.27.1.07.19.15.28.23.33.25.79.07.97-.26 2.17-.1 4.33-.41 6.44-1 .12-.03.21-.08.29-.15 7.98-1.93 15.6-5.41 22.51-10 .51.29 1.05-.18.98-.67 1.67-1.14 3.29-2.34 4.87-3.61.2-.05.37-.19.45-.38 5.99-4.89 11.29-10.64 15.58-16.92 1.48-2.21 2.84-4.51 4.08-6.89.39-.09.67-.53.48-.93 4.17-8.36 6.61-17.62 6.12-26.98l-.05-.03zM46.93 6.13c13.8-5.72 30.86-7.26 44.1.36 1.02.58 2.01 1.23 2.97 1.92.16.12.32.24.49.36.19.14.39.28.58.43.84.65 1.63 1.34 2.39 2.07a32.06 32.06 0 015.3 6.61c.05.15.14.29.26.43.73 1.26 1.37 2.56 1.94 3.91a36.19 36.19 0 012.3 7.66c.16.85.28 1.71.38 2.57.05.49.09.98.12 1.47.08 1.09.13 2.19.12 3.29a48.07 48.07 0 01-.47 6.35C104.95 59.88 95.05 75 81.68 85.7c-1.14.92-2.31 1.8-3.5 2.64-6.7 4.77-14.13 8.45-21.86 10.68-.54.16-1.08.31-1.62.45-4.94 1.29-9.98 2-15.02 2.01-14.36.02-27.52-6.6-33.71-19.13-.67-1.36-1.26-2.79-1.76-4.29-.23-.7-.45-1.41-.65-2.14-1.11-4.15-1.45-8.46-1.21-12.75a51.445 51.445 0 011.86-10.9c3.71-12.73 11.41-23.99 21.36-32.74.44-.39.88-.77 1.33-1.14A78.719 78.719 0 0146.93 6.14v-.01zm61.74 24.03s.02.05.03.08c.09.25.18.5.28.75 1.03 3.16 2.18 6.3 2.9 9.55-.81-1.04-1.61-2.08-2.48-3.08a.691.691 0 00-.22-.16c.01-1.92-.09-3.84-.32-5.78-.05-.43-.11-.86-.18-1.28 0-.03 0-.06-.01-.09v.01zm3.71 13.13c.08 1.74.06 3.48-.04 5.2-1.2-1.47-2.35-3-3.68-4.34.24-1.64.4-3.29.47-4.95.06.07.11.14.15.2.99 1.25 1.96 2.51 2.95 3.76.04.05.09.07.14.11v.02h.01zm-47.05 63.1c-1.05-.74-2.09-1.48-3.12-2.26-1.6-1.25-3.08-2.63-4.56-4.02-.02-.01-.03-.03-.05-.05 1.7-.52 3.39-1.11 5.05-1.77.2.17.4.34.59.52 1.02.96 2.04 1.92 3.12 2.82 1.07.89 2.17 1.75 3.24 2.63.16.13.32.17.47.16-1.55.7-3.13 1.36-4.74 1.96v.01zm-14.18 3.29c-.94-.73-1.91-1.5-2.87-2.31-1.77-1.54-3.59-3.04-5.28-4.67 1.91-.1 3.82-.29 5.71-.58.12.08.29.13.51.13 2.58 2.09 4.95 4.44 7.59 6.47.08.07.16.11.24.13-1.15.26-2.3.5-3.46.69-.81.08-1.62.13-2.43.15l-.01-.01zm-7.97-.62c-2.57-1.98-4.96-4.32-7.43-6.48 1.8.15 3.6.21 5.39.17 1.02 1.07 2.19 2.02 3.26 3.03 1.5 1.33 3.03 2.62 4.59 3.87-1.65-.06-3.3-.23-4.95-.47-.29-.03-.57-.09-.86-.13v.01zM85.17 85c1.84 1.88 3.67 3.75 5.6 5.56a79.06 79.06 0 01-3.92 3.41c-1.11-.95-2.21-1.91-3.29-2.89-1.02-.93-2.05-1.86-3.07-2.79 0-.01-.02-.02-.03-.03 1.52-1.14 2.99-2.33 4.42-3.56.08.11.19.21.29.29V85zm-5.79 4.06c.19.26.48.48.69.67 1.89 1.71 3.77 3.43 5.71 5.09a84.03 84.03 0 01-4.51 3.31c-1.67-1.47-3.26-3.03-4.87-4.57-.48-.46-.99-.89-1.48-1.33-.03-.04-.07-.07-.11-.1 1.56-.97 3.08-2 4.57-3.08v.01zM93.66 75.8c1.95 1.72 3.79 3.56 5.7 5.32a75.669 75.669 0 01-3.24 3.92c-1.66-1.64-3.33-3.27-4.96-4.94-.22-.18-.43-.49-.67-.76 1.09-1.15 2.15-2.33 3.17-3.55v.01zm.86-1.03c.89-1.1 1.75-2.22 2.58-3.37.38.4.77.78 1.16 1.18 1.41 1.4 2.8 2.81 4.24 4.17-.74 1.12-1.51 2.23-2.32 3.31-1.9-1.75-3.72-3.58-5.66-5.28v-.01zM57.69 107.7c-.61-.5-1.22-.99-1.83-1.49-1.76-1.41-3.38-3-5.1-4.45 1.79-.34 3.56-.75 5.32-1.24 1.76 1.52 3.4 3.21 5.26 4.62.8.61 1.62 1.2 2.44 1.78-2 .68-4.04 1.28-6.1 1.76.26-.24.36-.67 0-.99l.01.01zm12.79-4.44c-.52-.44-1.06-.86-1.59-1.29-1.71-1.31-3.28-2.78-4.87-4.23 1.65-.69 3.27-1.44 4.86-2.25 1.07 1.44 2.44 2.65 3.69 3.92.85.84 1.75 1.64 2.65 2.44a78.16 78.16 0 01-4.75 2.4c.26-.24.36-.67 0-.99h.01zm5.99-2.09c-.74-.67-1.5-1.33-2.23-2.02-1.45-1.41-2.84-2.71-4.17-4.28 1.23-.65 2.45-1.34 3.64-2.06.03.09.07.17.13.24 2.14 1.9 4.14 3.96 6.27 5.86-1.2.79-2.42 1.54-3.65 2.25l.01.01zm15.26-11.53c-1.14-1.06-2.24-2.15-3.34-3.25-.62-.62-1.36-1.39-2.01-2.05-.17-.16-.33-.34-.52-.49 1.04-.93 2.05-1.88 3.03-2.85.22-.22.43-.44.65-.66.97 1.07 2 2.08 3.03 3.1.89.87 1.76 1.75 2.65 2.62a84.67 84.67 0 01-3.5 3.59l.01-.01zm11.5-14.05c-1.7-1.61-3.34-3.27-4.99-4.93a1.75 1.75 0 00-.37-.35 71.68 71.68 0 003-4.69c.11.14.23.27.34.39 1.56 1.62 3.2 3.15 4.82 4.7-.86 1.67-1.8 3.3-2.8 4.89v-.01zm-.56-9.99c-.35-.35-.7-.68-.9-1.13-.05-.06-.11-.09-.17-.13.94-1.68 1.8-3.4 2.59-5.15.31.37.65.71.98 1.07 1.18 1.2 2.33 2.4 3.53 3.58.1.09.21.13.31.15-.69 1.86-1.47 3.68-2.35 5.47-1.34-1.28-2.68-2.55-3.99-3.85v-.01zm6.8-2.89c-1.07-1.05-2.07-2.09-3.17-3.21-.47-.5-.97-.99-1.38-1.55a.62.62 0 00-.14-.14 58.4 58.4 0 002.05-5.63s.02.01.03.02c1.43 1.48 2.74 3.06 4.07 4.61.06.06.12.1.19.14-.45 1.95-1 3.87-1.66 5.75l.01.01zm-1.63-11.43c-.19-.17-.37-.38-.59-.52.46-1.64.84-3.29 1.14-4.96 1.12 1.26 2.15 2.6 3.22 3.9.19.22.43.26.64.21-.16 1.83-.43 3.65-.78 5.45-1.18-1.38-2.35-2.78-3.62-4.08h-.01zM21.34 98.9a42.34 42.34 0 008.91 2.93c1.02.2 2.05.35 3.07.49 2.47 1.91 4.68 4.15 7.05 6.2-4.69-1.17-9.07-3.49-13.26-5.88-1.98-1.17-3.93-2.37-5.83-3.65-.16-.11-.33-.21-.49-.32l.54.24.01-.01z" fill="#C8612F"/></g><defs><clipPath id="clip0_1259_5059"><path fill="#fff" transform="translate(.969 .009)" d="M0 0h112.893v111.388H0z"/></clipPath></defs></svg>