<svg width="89" height="86" viewBox="0 0 89 86" fill="none" xmlns="http://www.w3.org/2000/svg"><g clip-path="url(#clip0_1259_4928)"><path d="M75.42 70.77c-.24-.4.11-.74.44-.92 5.46-3.57 6.14-10.69 4.85-16.57-4.36-19.34-24.66-38.63-43.02-45.11-8.01-2.88-19.94-4.21-24.51 4.73-3.81 8.15.47 18.54 4.7 25.76 9.19 15.72 31.35 34.35 50.4 33.56 1.57-.11 3.07-.38 4.55-.88.58-.2 1.15-.44 1.64-.68.3-.2.74-.25.94.11.08.13.09.3.04.45l.39-.18a.58.58 0 01-.43-.26l.01-.01zm2.12-9.91c.43-1.6 2.92-.91 2.46.68-.26 1.49-1.77 4.21-3.19 2.04-.37-.98.6-1.77.73-2.72zM36.12 9.12c-.1-.09-.21-.16-.34-.22.83.4 1.99.53 2.45 1.42.47 1-.68 2.16-1.67 1.67-4.51-1.25-2.1-4.12-.44-2.87zM17.9 14.59c-.18.65-.76 1.21-1.48 1.09-2.18-.55-.53-3.05.45-4.03 1.69-1.71 4.01-2.63 6.31-3.17 1.68-.23 6.8-1.68 7.1.77 0 .67-.58 1.31-1.28 1.28-3.87-.12-8.92.45-11.11 4.06h.01zm39.79 47.12c-.25.28-.5.71-.93.63a.485.485 0 01-.21-.08c-.18.13-.43.16-.67-.04-3.77-2.89-7.09-6.3-10.59-9.49A381.75 381.75 0 0131.73 39.3c-1.42-1.48-3.05-2.8-4.35-4.36-.15-.2-.11-.46.03-.64-.07-.43.49-.79.71-1.15.56-.71 1.11-1.42 1.67-2.12 1.88-2.26 3.73-4.54 5.67-6.75 1.87-2.13 3.67-4.31 5.51-6.47.34-.33.7-1.08 1.2-1.02a.54.54 0 01.57.15c2.4 2.37 4.93 4.61 7.34 6.97 4.09 4.09 8.22 8.16 12.46 12.1 1.72 1.63 3.37 3.33 5.03 5.03.99.96 2.04 1.85 3.02 2.82.26.24.22.57.04.78.01.13-.03.27-.14.4-1.85 2.4-3.74 4.71-5.65 7.05-1.77 2.25-3.44 4.58-5.09 6.92-.64.95-1.33 1.85-2.08 2.71l.02-.01zm14.51 8.78c-2.23.98-4.69.99-7.08.95-1.65.01-1.66-2.57 0-2.56 1.42 0 2.86.06 4.27-.19 3.2-.3 5.48-3.94 6.78-2.5 1.51 2.07-2.55 3.54-3.97 4.29v.01zM14.668 43.2c.22.35.44.7.67 1.05-.19-.32-.4-.64-.57-.97-.03-.02-.06-.05-.09-.08h-.01z" fill="#F9BA55"/><path d="M62.37 44.65s.05-.08.07-.12c-.08-.08-.16-.15-.24-.23.06.12.11.24.16.35h.01zM46.96 34.5s.08.07.11.1c-.03-.04-.07-.07-.1-.11h-.02l.01.01zm39.979 21.47c-.15-1.12-.36-2.24-.63-3.35.14.7.26 1.41.35 2.12 0 .44.14.84.28 1.24v-.01zM52.288 10.14c.67.43.35 1.56-.44 1.61.56.57.05 1.6-.74 1.49-1.39-.48-2.56-1.52-3.92-2.12-.06.01-.12 0-.18 0 5.46 2.99 10.67 6.86 15.31 11.19-.29-.53-.3-1.06.37-1.49.15-.53.88-.81 1.33-.47.87.69 1.6 1.55 2.39 2.33-1.06-1.27-2.26-2.42-3.44-3.57-.36-.39-.24-.91.08-1.22-3.68-3.15-7.63-6-11.75-8.41.32.22.65.44.98.65l.01.01zm30.643 32.98c-.07-.16-.15-.31-.22-.47v.05c.08.14.14.28.22.42zM55.39 76.18c.66.21 1.32.4 1.98.58l-.03-.1c-.66-.14-1.31-.3-1.95-.48zm-11.2-51.03l.12.12c0-.04-.01-.07 0-.11-.1-.05-.19-.1-.26-.16.01.03.04.05.05.08.03.02.07.04.1.07h-.01zm18.779 20.63c.1-.13.2-.25.29-.38l-.03-.03c-.09.14-.18.28-.26.42v-.01zM41.29 64.34c.3.19.61.37.91.55-.34-.22-.68-.45-1.02-.67.03.04.07.08.1.12h.01zm9.09-13.74l-.63-.57c.2.2.41.39.63.57z" fill="#F9BA55"/><path d="M29.01 10.53c.7.03 1.28-.6 1.28-1.28-.29-2.45-5.42-1-7.1-.77-2.31.54-4.62 1.46-6.31 3.17-.99.98-2.64 3.48-.45 4.03.72.12 1.3-.44 1.48-1.09 2.19-3.61 7.24-4.17 11.11-4.06h-.01zM36.558 12c1 .48 2.14-.68 1.67-1.67-.45-.89-1.62-1.02-2.45-1.42.12.06.24.13.34.22-1.66-1.25-4.07 1.62.44 2.87zM76.17 66.19c-1.3-1.45-3.58 2.19-6.78 2.5-1.41.25-2.84.19-4.27.19-1.66-.01-1.65 2.57 0 2.56 2.39.04 4.85.03 7.08-.95 1.42-.75 5.48-2.22 3.97-4.29v-.01zM80 61.54c.46-1.59-2.03-2.28-2.46-.68-.13.95-1.1 1.74-.73 2.72 1.43 2.18 2.93-.54 3.19-2.04z" fill="#FFCF83"/><path d="M1.51 30.15c1-1.36 2-2.72 2.95-4.11.46-.68.9-1.38 1.3-2.1.07-.12.19-.2.31-.24-.09-.67-.16-1.34-.22-2.01-.03-.42-.02-.82-.02-1.23-1.11 1.43-2.19 2.88-3.24 4.35-.36.41-.7 1.39-1.36 1.04-.02.84 0 1.68.06 2.52.05.6.13 1.19.21 1.78h.01zm10.36 21.54c.62-.91 1.22-1.82 1.84-2.72.53-.79 1.09-1.57 1.65-2.34.04-.05.09-.09.14-.12-.68-.99-1.34-1.99-1.97-3.01-.12.19-.25.38-.37.57-.68 1-1.4 1.96-2.12 2.92-.67.89-1.33 1.8-1.98 2.71-.01.03-.04.05-.06.08.65 1.05 1.33 2.09 2.04 3.11.28-.4.56-.8.83-1.2zm14.8 17.93c.38-.58.76-1.16 1.14-1.71.83-1.23 1.69-2.45 2.58-3.64.19-.2.39-.56.62-.81-.98-.82-1.93-1.67-2.86-2.52-1.39 1.81-2.73 3.69-4.09 5.54-.16.29-.57.35-.82.15-.25-.19-.27-.53-.09-.78.68-.96 1.39-1.9 2.09-2.84.71-.93 1.36-1.91 2.08-2.84a90.61 90.61 0 01-2.43-2.36c-.07.11-.15.21-.23.29-.51.62-1.03 1.23-1.54 1.86-.65.81-1.25 1.66-1.84 2.52-.32.47-.63.95-.94 1.42 2.04 2.03 4.17 3.95 6.35 5.73l-.02-.01zM9.978 46.55c1.01-1.35 2.07-2.68 2.9-4.15-.5-.85-.99-1.71-1.45-2.59-.13.12-.26.23-.34.36.02-.03.03-.03.05-.06-.72.79-1.34 1.59-1.97 2.44-.59.79-1.16 1.58-1.72 2.39-.17.25-.55.27-.78.09a.555.555 0 01-.09-.78c1.17-1.65 2.36-3.34 3.71-4.84.17-.17.38-.44.61-.64-.6-1.19-1.17-2.4-1.68-3.63l-.03.03c-1.5 1.78-2.72 3.77-4.07 5.66-.14.2-.29.4-.43.59 1.04 2.49 2.29 4.94 3.71 7.33.52-.74 1.05-1.48 1.59-2.2h-.01zM5.29 32.01c.66-.91 1.19-1.92 1.9-2.8a42.54 42.54 0 01-.88-4.03c-1.03 1.71-2.22 3.32-3.39 4.94-.38.52-.77 1.04-1.15 1.56.24 1.36.55 2.72.93 4.07.86-1.25 1.74-2.49 2.6-3.74h-.01zm15.988 28.5c.69-.95 1.44-1.86 2.2-2.76.2-.19.38-.53.6-.75-.71-.73-1.4-1.46-2.08-2.21l-.57-.66c-.33.65-.77 1.24-1.16 1.84-.51.76-1.1 1.6-1.59 2.32-.51.75-1.02 1.51-1.51 2.29.77.85 1.56 1.69 2.36 2.51.57-.87 1.14-1.74 1.75-2.58zM56.16 84.03c.7-.97 1.41-1.93 2.1-2.91.65-.85 1.19-1.83 1.97-2.56-1.2-.25-2.4-.53-3.58-.86-.15.2-.34.39-.45.56-.55.69-1.11 1.37-1.68 2.04-.75.89-1.48 1.8-2.18 2.73-.08.11-.16.23-.25.34 1.31.36 2.63.67 3.96.91a.6.6 0 01.1-.25h.01zm7.099-1.98c.74-.91 1.49-1.81 2.24-2.71-1.41-.13-2.82-.33-4.21-.59.03.18-.02.37-.21.52-.85.8-1.42 1.87-2.13 2.8-.57.81-1.16 1.6-1.73 2.4 1.3.19 2.59.32 3.88.37.69-.95 1.44-1.85 2.16-2.78v-.01zm-9.9-2.1c.72-.86 1.45-1.73 2.15-2.62-1.05-.32-2.1-.68-3.13-1.06-.01.12-.04.24-.11.34-1.13 1.79-2.52 3.41-3.77 5.13-.09.12-.18.26-.28.39.93.33 1.87.64 2.82.92a.55.55 0 01.1-.25c.71-.98 1.46-1.92 2.23-2.85h-.01zm-6.171 1.69c.63-.86 1.28-1.71 1.92-2.56.72-.96 1.47-1.9 2.12-2.92 0-.11.04-.2.09-.29-.93-.37-1.85-.76-2.76-1.17-.19.24-.5.44-.66.67-.71.83-1.38 1.69-2.05 2.55-.64.83-1.26 1.67-1.86 2.52 1.02.45 2.08.88 3.15 1.28.02-.03.02-.06.04-.09l.01.01zM37.12 70.78c.38-.46.77-.93 1.14-1.41.06-.08.12-.16.16-.25.01-.02.04-.04.05-.06-.88-.59-1.75-1.19-2.6-1.81-.16.27-.39.51-.57.76-.36.45-.74.89-1.1 1.34-.75.92-1.5 1.83-2.23 2.76-.25.32-.5.65-.74.98.89.63 1.78 1.24 2.67 1.83 1-1.44 2.11-2.79 3.23-4.14h-.01zM5.349 38.52c.67-.96 1.33-1.94 2.02-2.88.43-.57.86-1.15 1.38-1.64-.44-1.13-.84-2.28-1.2-3.44-.46.69-.88 1.41-1.36 2.08-.94 1.39-1.92 2.74-2.87 4.12-.06.12-.15.2-.26.27.33 1.06.69 2.11 1.1 3.16.39-.56.79-1.11 1.18-1.67h.01zm37.319 33.16c-1.11-.64-2.21-1.3-3.29-2-.04.09-.09.18-.16.26-.51.7-1.09 1.35-1.63 2.02-.76.92-1.5 1.85-2.21 2.8-.18.19-.35.52-.55.77 1.15.73 2.31 1.42 3.46 2.07a.94.94 0 01.12-.18c1.32-1.91 2.66-3.82 4.15-5.61.03-.05.07-.09.11-.13zm4.67 2.67s.08-.09.13-.14c-1.26-.6-2.5-1.25-3.72-1.93-.08.1-.19.18-.31.2-1.45 1.72-2.82 3.68-4.08 5.5-.03.05-.06.09-.1.14.36.19.72.39 1.08.58.85.44 1.74.86 2.64 1.28.68-.99 1.4-1.94 2.13-2.89.73-.93 1.44-1.87 2.24-2.74h-.01zM34.94 66.56c-1.04-.78-2.06-1.58-3.06-2.4-.52.63-.99 1.29-1.46 1.95-.64.89-1.25 1.79-1.87 2.69-.34.5-.67 1.01-1 1.51.92.73 1.85 1.45 2.78 2.13.28-.38.57-.76.86-1.13 1.1-1.4 2.24-2.77 3.37-4.14.16-.19.31-.39.4-.61h-.02zM1.69 21.77c-.19.97-.3 1.94-.37 2.93.63-.88 1.25-1.77 1.89-2.64.7-.96 1.43-1.89 2.15-2.84.18-.2.33-.44.5-.65.1-2.13.44-4.08 1.01-5.82-1.11 1.55-2.2 3.12-3.23 4.73-.52.79-.96 1.63-1.48 2.42-.19.62-.35 1.24-.48 1.88l.01-.01zm67.081 59.48c.48-.62.97-1.23 1.44-1.86-1.13.08-2.31.09-3.51.03 0 .21-.11.42-.3.56-.75.91-1.5 1.81-2.25 2.72-.57.71-1.13 1.43-1.69 2.15 1.48-.01 2.94-.14 4.38-.4a.555.555 0 010-.68c.63-.86 1.28-1.69 1.93-2.53v.01zM17.9 50.87c.14-.13.27-.33.41-.52-.74-.95-1.47-1.92-2.17-2.9-1.13 1.52-2.18 3.13-3.24 4.69-.35.51-.69 1.02-1.04 1.52-.04.06-.1.11-.16.14.61.85 1.25 1.7 1.9 2.53.67-.91 1.37-1.81 2.07-2.7.74-.93 1.47-1.86 2.23-2.77v.01zm60.31 27.12c.34-.37.69-.74 1.03-1.11-.77.43-1.6.79-2.45 1.12.15.22.16.54-.12.75-.81.94-1.56 1.93-2.31 2.91.11-.09.22-.19.33-.28 1.3-1.06 2.42-2.14 3.51-3.39h.01zM20.26 53.96c.03-.27.24-.52.49-.62-.58-.68-1.16-1.38-1.72-2.08-.02.02-.04.05-.06.07-.58.68-1.14 1.38-1.7 2.08-.72.91-1.44 1.82-2.14 2.74-.26.27-.51.82-.86 1.03.69.86 1.4 1.7 2.13 2.53.49-.77 1.01-1.53 1.52-2.29.78-1.16 1.6-2.29 2.34-3.47v.01zm54.57 25.29c.22-.28.41-.55.61-.8-1.22.37-2.49.65-3.83.82-.06.25-.26.51-.44.71-.48.63-.97 1.26-1.46 1.88-.61.79-1.22 1.58-1.82 2.38 1.43-.32 2.83-.77 4.18-1.38.02-.07.05-.13.09-.19.88-1.15 1.78-2.28 2.66-3.43l.01.01zm-18.482-40.7c-4.02-3.99-8.16-7.86-12.18-11.85-.16 1.51-.42 3.01-.64 4.52 0 .03-.01.05-.02.08.13.05.25.15.35.33 1.01.98 2.05 1.93 3.1 2.87h.02c.03.04.07.07.1.11 2.42 2.17 4.9 4.27 7.26 6.51 2.13 2.09 4.26 4.2 6.16 6.51.22-.33.43-.66.63-1 .41-.66.82-1.32 1.24-1.97-.05-.12-.1-.23-.16-.35-1.9-1.96-3.92-3.82-5.86-5.75v-.01zM37.54 36.07c.79-.8 1.59-1.59 2.35-2.42.84-.93 1.7-1.84 2.56-2.74.15-.96.29-1.91.42-2.79.06-.46.13-.91.18-1.37-.41.51-.83 1.02-1.26 1.52-.72.86-1.5 1.65-2.28 2.45-1.07 1.1-2.09 2.23-3.01 3.46-.26.31-.45.67-.7.99.44.44.89.88 1.33 1.31.14-.14.29-.27.41-.41z" fill="#E99547"/><path d="M62.98 19.12c1.18 1.15 2.37 2.3 3.44 3.57-.79-.79-1.52-1.64-2.39-2.33-.45-.34-1.19-.06-1.33.47-.67.43-.65.96-.37 1.49 6.15 5.73 11.32 12.26 14.81 18.61.31.57.6 1.16.9 1.75.03.07.07.13.1.2 3.15 6.38 5.47 13.73 3.54 20.73-.22.76-.51 1.5-.86 2.21-1.04 2.09-2.64 3.9-4.62 5.14-.1.07-.22.08-.33.06l-.39.18c-.04.13-.12.25-.24.31-4.54 2.31-9.88 2.16-14.76 1.16-6.05-1.35-11.95-3.94-17.49-7.33-.16-.09-.32-.19-.48-.29-.09-.06-.19-.11-.29-.17-.3-.18-.61-.37-.91-.55-.03-.04-.07-.08-.1-.12-9.11-5.97-17.09-14.1-22.76-22.6-4.63-7.22-8.64-15.72-7.65-24.5 1.1-8.59 8.26-12.66 16.44-12.22 6.62.4 13.38 2.71 19.8 6.22h.18c1.36.6 2.53 1.64 3.92 2.12.79.11 1.3-.93.74-1.49.79-.05 1.11-1.18.44-1.61-.33-.21-.65-.43-.98-.65-8.72-5.11-18.14-8.21-27.13-7.81-8.49.47-15.32 5.3-16.87 13.93-1.54 9.34 2.12 19.17 7.37 27.6.03.02.06.06.09.08.18.33.38.65.57.97a81.07 81.07 0 007.03 9.28c8.29 9.34 20.26 18.58 33.02 22.64.65.18 1.3.34 1.95.48 0 .03.02.07.03.1 4.19 1.15 8.44 1.72 12.67 1.52 8.3-.49 15.07-5.16 16.73-13.59.56-2.91.56-5.84.17-8.73-.14-.4-.27-.8-.28-1.24-.09-.71-.21-1.42-.35-2.12-.77-3.27-1.97-6.47-3.38-9.49a8.46 8.46 0 00-.22-.42v-.05c-.14-.29-.27-.57-.41-.86-4.07-8.24-10.95-16.8-19.24-23.9-.32.31-.44.83-.08 1.22l-.03.03z" fill="#FFCE80"/><path d="M57.911 59.69c1.69-2.39 3.41-4.77 5.15-7.13 1.74-2.26 3.65-4.43 5.37-6.69.38-.49.77-.98 1.15-1.46-.68-.64-1.38-1.27-2.07-1.9-2.03-1.96-3.93-4.03-5.99-5.95-3.9-3.62-7.73-7.38-11.49-11.15-2.16-2.19-4.48-4.21-6.68-6.35-.36-.35-.72-.69-1.09-1.04-3.62 4.27-7.28 8.51-10.87 12.81-.75.9-1.47 1.82-2.19 2.74-.22.23-.46.66-.74.93.13.17.26.34.38.44 2.94 2.78 5.74 5.7 8.55 8.6 3.41 3.36 6.82 6.73 10.35 9.97 1.75 1.6 3.45 3.27 5.22 4.86 1.16 1.02 2.35 2.01 3.58 2.96.48-.53.92-1.08 1.36-1.64h.01zm-3.61-5.42c-1.3-1.24-2.61-2.45-3.92-3.67l-.63-.57c-1.05-.96-2.1-1.92-3.15-2.89-3.84-3.69-7.72-7.35-11.5-11.1-.34-.3-.79-.77-.34-1.18.04-.03.08-.06.12-.08 0-.2.11-.4.24-.57.51-.76 1.09-1.46 1.68-2.17 1.06-1.27 2.27-2.41 3.4-3.63 1.03-1.14 2-2.34 2.94-3.56.25-.32.76-.19.91.15.08.06.16.12.26.16v.11c4.23 4.24 8.57 8.28 12.84 12.51 2.42 2.4 4.96 4.68 7.25 7.21.46.55-.33 1.27-.84.73l-.3-.33c-.1.13-.2.26-.29.38-.59.93-1.17 1.87-1.79 2.79.06.3-.17.59-.45.65-.36.51-.74 1.01-1.15 1.49-.67.85-1.34 1.69-2.01 2.53-.34.42-.67.85-1.05 1.25-.24.33-.74.55-1.05.19-.01-.02-.03-.03-.04-.05a.53.53 0 01-.17-.65c-.02 0-.04-.01-.06-.02-.09.35-.52.62-.89.3l-.01.02z" fill="#FFCE80"/><path d="M55.19 53.97c.05-.18.01-.37-.16-.54-2.15-2.02-4.27-4.05-6.48-5.99-3.57-3.36-7.11-6.75-10.62-10.18.07-.09.15-.17.23-.23 1.61-1.59 3.12-3.27 4.68-4.91.04.09.11.17.2.26 2.55 2.52 5.32 4.79 7.97 7.2 3.11 2.82 6.16 5.74 8.82 9-.06.08-.12.17-.19.25-.98 1.27-2.01 2.55-3.01 3.81-.27.34-.55.69-.84 1.01-.26-.02-.45.14-.54.35-.09.22-.06.48.17.65.01.02.02.03.04.05.32.36.82.14 1.05-.19.37-.4.71-.83 1.05-1.25.67-.84 1.34-1.69 2.01-2.53.4-.48.79-.98 1.15-1.49.28-.06.51-.34.45-.65.62-.91 1.2-1.85 1.79-2.79.09-.14.17-.28.26-.42l.03.03.3.33c.5.54 1.3-.19.84-.73-2.29-2.53-4.83-4.81-7.25-7.21-4.27-4.23-8.6-8.27-12.84-12.51l-.12-.12c-.03-.03-.07-.05-.1-.07 0-.03-.03-.05-.05-.08-.15-.34-.66-.47-.91-.15-.94 1.21-1.91 2.42-2.94 3.56-1.13 1.22-2.34 2.35-3.4 3.63-.58.7-1.17 1.41-1.68 2.17-.13.16-.23.37-.24.57-.04.02-.08.05-.12.08-.45.42 0 .89.34 1.18 3.79 3.75 7.66 7.41 11.5 11.1 1.05.97 2.1 1.93 3.15 2.89l.63.57c1.32 1.21 2.63 2.43 3.92 3.67.38.32.8.05.89-.3l.02-.02zM36.5 34.18c.92-1.22 1.95-2.36 3.01-3.46.78-.8 1.57-1.6 2.28-2.45.43-.5.84-1.01 1.26-1.52-.05.46-.11.91-.18 1.37-.13.88-.28 1.84-.42 2.79-.86.9-1.72 1.81-2.56 2.74-.76.83-1.56 1.62-2.35 2.42-.12.14-.27.28-.41.41-.45-.44-.89-.87-1.33-1.31.24-.32.43-.68.7-.99zm25.87 10.47c-.42.65-.84 1.31-1.24 1.97-.2.34-.42.67-.63 1-1.9-2.31-4.03-4.41-6.16-6.51-2.36-2.24-4.84-4.34-7.26-6.51-.04-.03-.08-.07-.11-.1-1.05-.94-2.09-1.89-3.1-2.87-.1-.18-.22-.29-.35-.33 0-.03.02-.05.02-.08.22-1.5.48-3.01.64-4.52 4.02 3.99 8.16 7.87 12.18 11.85 1.94 1.93 3.96 3.78 5.86 5.75.08.08.16.15.24.23-.03.04-.05.08-.07.12h-.02z" fill="#C8612F"/><path d="M70.51 45.02c.11-.13.15-.27.14-.4.18-.21.22-.54-.04-.78-.98-.96-2.04-1.85-3.02-2.82-1.66-1.69-3.31-3.4-5.03-5.03-4.24-3.94-8.37-8-12.46-12.1-2.41-2.36-4.93-4.6-7.34-6.97-.18-.19-.39-.22-.57-.15-.5-.06-.86.69-1.2 1.02-1.83 2.16-3.64 4.34-5.51 6.47-1.94 2.21-3.79 4.49-5.67 6.75-.56.7-1.12 1.42-1.67 2.12-.22.36-.78.72-.71 1.15-.14.18-.18.44-.03.64 1.3 1.55 2.93 2.87 4.35 4.36 4.38 4.56 8.94 9.1 13.56 13.43 3.5 3.19 6.82 6.6 10.59 9.49.24.19.49.17.67.04.06.04.13.07.21.08.43.08.68-.36.93-.63.75-.86 1.44-1.77 2.08-2.71 1.65-2.34 3.32-4.67 5.09-6.92 1.91-2.34 3.79-4.65 5.65-7.05l-.02.01zM52.97 58.37c-1.76-1.59-3.46-3.26-5.22-4.86-3.53-3.24-6.94-6.61-10.35-9.97-2.82-2.9-5.61-5.82-8.55-8.6-.13-.1-.25-.27-.38-.44.28-.27.53-.7.74-.93.72-.92 1.44-1.84 2.19-2.74 3.58-4.3 7.24-8.54 10.87-12.81.36.35.73.69 1.09 1.04 2.2 2.14 4.52 4.17 6.68 6.35 3.76 3.77 7.59 7.52 11.49 11.15 2.06 1.91 3.96 3.99 5.99 5.95.69.63 1.39 1.26 2.07 1.9-.39.49-.78.97-1.15 1.46-1.72 2.26-3.63 4.43-5.37 6.69-1.74 2.36-3.46 4.74-5.15 7.13-.44.56-.89 1.11-1.36 1.64-1.22-.95-2.42-1.94-3.58-2.96h-.01z" fill="#C8612F"/><path d="M10.78 17.12c-.99 8.78 3.02 17.28 7.65 24.5 5.67 8.5 13.65 16.63 22.76 22.6.34.22.67.46 1.02.67.09.06.19.11.29.17.16.1.32.19.48.29 5.53 3.39 11.44 5.98 17.49 7.33 4.87 1 10.22 1.15 14.76-1.16.13-.06.2-.18.24-.31.04-.15.03-.31-.04-.45-.2-.35-.64-.31-.94-.11-.49.24-1.06.48-1.64.68-1.48.5-2.98.76-4.55.88-19.05.8-41.21-17.83-50.4-33.56-4.23-7.21-8.51-17.6-4.7-25.76 4.57-8.94 16.5-7.61 24.51-4.73 18.36 6.49 38.66 25.77 43.02 45.11 1.3 5.88.61 13-4.85 16.57-.34.18-.68.52-.44.92.09.15.26.24.43.26.11.01.23 0 .33-.06 1.99-1.24 3.58-3.05 4.62-5.14v-.01c.35-.71.64-1.45.86-2.21 1.92-7-.39-14.35-3.54-20.73-.03-.07-.06-.13-.1-.2-.29-.59-.59-1.18-.9-1.75-3.49-6.35-8.66-12.88-14.81-18.61-4.65-4.33-9.85-8.2-15.31-11.19C40.61 7.6 33.84 5.3 27.22 4.9c-8.18-.44-15.34 3.62-16.44 12.22z" fill="#C8612F"/><path d="M88.3 58.73c-.82-12.74-7.92-24.21-16.18-33.58C61.97 14.02 48.95 4.76 34.09 1.39c-10.28-2.35-19.98-.2-24.9 6.73-.14 0-.29.07-.41.22-1.44 1.65-2.59 3.53-3.9 5.28-.99 1.44-1.97 2.89-2.87 4.38-.2.33-.38.67-.59 1-.31.22-.37.81-.5 1.16-.47 1.67-.71 3.39-.78 5.11v.03c0 .18-.01.36-.02.54v.18c-.02 1.59.09 3.17.31 4.74.04.25.1.5.14.75-.02.13 0 .27.07.39.57 3.11 1.51 6.24 2.78 9.34a.21.21 0 00-.04.06c-.18.24-.15.59.09.78.1.08.22.11.35.11C8.33 52.68 16.46 62.8 26.14 70.66c.03.17.11.32.26.41.1.06.21.07.32.06 10.27 8.2 22.2 13.85 33.34 14.74 4.62.32 9.44-.27 13.54-2.51.53.18 1.08-.62 1.51-.89 2.37-1.89 4.37-4.2 6.38-6.46.56-.66 1.06-1.38 1.71-1.97.22-.15.44-.39.46-.64 3.22-3.53 4.96-8.51 4.64-14.67zm-6-16.93c.14.28.27.57.41.86.07.16.15.31.22.47 1.41 3.02 2.61 6.21 3.38 9.49.26 1.11.47 2.23.63 3.35.39 2.89.39 5.83-.17 8.73-1.67 8.43-8.43 13.1-16.73 13.59-4.22.19-8.48-.38-12.67-1.52-.66-.18-1.32-.37-1.98-.58-12.76-4.06-24.74-13.31-33.02-22.64a81.07 81.07 0 01-7.03-9.28c-.22-.35-.45-.7-.67-1.05-5.25-8.43-8.9-18.26-7.37-27.6C8.85 6.99 15.69 2.16 24.17 1.69c8.99-.4 18.42 2.7 27.13 7.81 4.12 2.41 8.07 5.27 11.75 8.41 8.29 7.1 15.17 15.66 19.24 23.9l.01-.01zm-7.61 39.58c-.11.09-.22.19-.33.28.75-.99 1.5-1.98 2.31-2.91.28-.21.27-.53.12-.75.85-.32 1.67-.69 2.45-1.12-.34.37-.69.74-1.03 1.11a28.144 28.144 0 01-3.51 3.39h-.01zm-6.8 2.86c.59-.8 1.2-1.59 1.82-2.38.49-.63.98-1.25 1.46-1.88.17-.2.38-.46.44-.71 1.34-.17 2.62-.45 3.83-.82-.2.25-.39.52-.61.8-.88 1.15-1.78 2.28-2.66 3.43-.04.06-.08.12-.09.19-1.35.61-2.75 1.06-4.18 1.38l-.01-.01zm-27.56-5.53c-.36-.19-.72-.38-1.08-.58.03-.05.07-.09.1-.14 1.26-1.82 2.63-3.78 4.08-5.5.13-.03.24-.1.31-.2 1.23.68 2.46 1.33 3.72 1.93-.05.05-.09.09-.13.14-.8.87-1.51 1.81-2.24 2.74-.73.95-1.45 1.91-2.13 2.89-.9-.42-1.79-.84-2.64-1.28h.01zM14.27 57.18c.34-.21.59-.76.86-1.03.7-.92 1.42-1.83 2.14-2.74.56-.7 1.12-1.4 1.7-2.08.02-.02.04-.05.06-.07.56.7 1.14 1.4 1.72 2.08-.25.1-.47.35-.49.62-.74 1.18-1.56 2.31-2.34 3.47-.51.75-1.03 1.51-1.52 2.29a83.86 83.86 0 01-2.13-2.53v-.01zM3.65 17.48c1.03-1.61 2.11-3.17 3.23-4.73-.57 1.75-.91 3.7-1.01 5.82-.18.21-.33.44-.5.65-.72.94-1.45 1.88-2.15 2.84-.64.87-1.26 1.76-1.89 2.64.07-.98.18-1.96.37-2.93.13-.63.29-1.26.48-1.88.52-.79.95-1.63 1.48-2.42l-.01.01zm63.2 66.98c-1.44.25-2.9.38-4.38.4.55-.72 1.12-1.44 1.69-2.15.74-.91 1.49-1.82 2.25-2.72.19-.13.3-.34.3-.56 1.2.06 2.38.05 3.51-.03-.47.62-.96 1.24-1.44 1.86-.65.84-1.31 1.67-1.93 2.53-.15.21-.14.48 0 .68v-.01zm-28.56-6.87a78.94 78.94 0 01-3.46-2.07c.2-.24.37-.57.55-.77.71-.96 1.46-1.88 2.21-2.8.54-.67 1.12-1.32 1.63-2.02a.76.76 0 00.16-.26c1.08.7 2.18 1.36 3.29 2-.04.04-.08.08-.11.13-1.49 1.78-2.83 3.69-4.15 5.61-.05.05-.08.12-.12.18zm-7.97-5.15c-.93-.68-1.86-1.4-2.78-2.13a117.922 117.922 0 012.87-4.2c.48-.66.95-1.32 1.46-1.95 1 .82 2.02 1.62 3.06 2.4-.09.23-.24.42-.4.61-1.12 1.38-2.27 2.74-3.37 4.14-.29.37-.58.75-.86 1.13h.02zM11.7 53.8c.06-.03.12-.08.16-.14.35-.51.7-1.01 1.04-1.52 1.07-1.56 2.11-3.17 3.24-4.69.7.99 1.43 1.95 2.17 2.9-.14.19-.27.39-.41.52-.76.91-1.5 1.84-2.23 2.77-.7.89-1.4 1.78-2.07 2.7-.65-.83-1.28-1.68-1.9-2.53v-.01zM1.24 25.84c.66.35 1-.63 1.36-1.04 1.05-1.47 2.13-2.93 3.24-4.35 0 .41 0 .81.02 1.23.05.67.13 1.34.22 2.01-.13.04-.24.12-.31.24a32 32 0 01-1.3 2.1c-.95 1.39-1.95 2.76-2.95 4.11-.08-.59-.15-1.19-.21-1.78-.05-.84-.08-1.68-.06-2.52h-.01zm1.67 4.28c1.17-1.61 2.36-3.23 3.39-4.94.23 1.36.52 2.71.88 4.03-.7.88-1.23 1.89-1.9 2.8-.86 1.25-1.74 2.49-2.6 3.74a41.91 41.91 0 01-.93-4.07c.39-.52.77-1.04 1.15-1.56h.01zm.42 6.65c.95-1.38 1.93-2.74 2.87-4.12.49-.67.9-1.39 1.36-2.08.35 1.16.76 2.31 1.2 3.44-.52.49-.95 1.07-1.38 1.64-.7.94-1.35 1.92-2.02 2.88-.39.56-.78 1.11-1.18 1.67-.41-1.05-.77-2.1-1.1-3.16.11-.07.2-.15.26-.27h-.01zm1.77 4.06c1.36-1.88 2.57-3.88 4.07-5.66l.03-.03c.51 1.23 1.08 2.44 1.68 3.63-.23.2-.45.47-.61.64-1.35 1.5-2.54 3.19-3.71 4.84-.18.24-.15.6.09.78.23.18.61.16.78-.09.56-.8 1.13-1.6 1.72-2.39a32.821 32.821 0 011.92-2.38c.08-.12.21-.24.34-.36.46.87.95 1.74 1.45 2.59-.83 1.47-1.89 2.8-2.9 4.15-.55.72-1.07 1.46-1.59 2.2a58.625 58.625 0 01-3.71-7.33c.14-.2.29-.4.43-.59h.01zm3.96 8.87c.64-.92 1.3-1.82 1.98-2.71.73-.96 1.44-1.92 2.12-2.92.12-.19.25-.38.37-.57.63 1.02 1.29 2.02 1.97 3.01-.05.03-.1.07-.14.12-.57.77-1.12 1.54-1.65 2.34-.62.91-1.23 1.82-1.84 2.72-.27.4-.55.8-.83 1.2-.71-1.02-1.39-2.06-2.04-3.11.02-.03.04-.05.06-.08zm9.61 8.59c.49-.72 1.08-1.57 1.59-2.32.4-.6.84-1.19 1.16-1.84l.57.66c.68.74 1.37 1.48 2.08 2.21-.22.22-.39.56-.6.75-.76.91-1.51 1.81-2.2 2.76-.61.84-1.19 1.71-1.75 2.58-.8-.82-1.59-1.66-2.36-2.51.48-.77.99-1.53 1.51-2.29zm2.59 4.17c.59-.86 1.19-1.7 1.84-2.52.5-.63 1.03-1.24 1.54-1.86.08-.09.16-.19.23-.29.79.8 1.6 1.58 2.43 2.36-.71.93-1.37 1.9-2.08 2.84-.7.95-1.41 1.89-2.09 2.84-.18.25-.15.59.09.78.25.2.66.14.82-.15 1.36-1.84 2.7-3.72 4.09-5.54.93.86 1.89 1.7 2.86 2.52-.23.26-.42.61-.62.81-.89 1.19-1.74 2.41-2.58 3.64-.38.56-.76 1.14-1.14 1.71a89.71 89.71 0 01-6.35-5.73c.31-.48.63-.95.94-1.42l.02.01zm9.96 10.63c.24-.33.49-.66.74-.98.73-.93 1.48-1.85 2.23-2.76.37-.45.74-.89 1.1-1.34.18-.25.41-.49.57-.76.85.62 1.72 1.22 2.6 1.81-.02.02-.04.03-.05.06-.04.09-.1.17-.16.25-.37.48-.75.94-1.14 1.41-1.12 1.35-2.23 2.71-3.23 4.14-.89-.58-1.78-1.2-2.67-1.83h.01zm14.64 4.84c.67-.86 1.34-1.73 2.05-2.55.16-.23.47-.43.66-.67.91.41 1.83.8 2.76 1.17-.05.08-.09.18-.09.29-.65 1.01-1.4 1.96-2.12 2.92-.65.85-1.29 1.7-1.92 2.56-.02.03-.03.06-.04.09-1.07-.41-2.12-.83-3.15-1.28.6-.85 1.22-1.69 1.86-2.52l-.01-.01zm2.35 4.2c.1-.13.19-.27.28-.39 1.24-1.72 2.63-3.34 3.77-5.13.07-.11.1-.23.11-.34 1.04.39 2.08.74 3.13 1.06-.7.89-1.42 1.75-2.15 2.62-.77.93-1.52 1.87-2.23 2.85a.6.6 0 00-.1.25c-.95-.28-1.89-.59-2.82-.92h.01zm4.14.9c.7-.93 1.43-1.84 2.18-2.73.57-.67 1.13-1.35 1.68-2.04.11-.18.3-.36.45-.56 1.18.33 2.38.62 3.58.86-.79.73-1.33 1.71-1.97 2.56-.69.98-1.4 1.94-2.1 2.91-.05.08-.08.16-.1.25-1.33-.24-2.65-.55-3.96-.91.09-.11.17-.23.25-.34h-.01zm6.6-.97c.7-.93 1.27-2 2.13-2.8.19-.15.24-.34.21-.52 1.39.26 2.8.46 4.21.59-.75.9-1.5 1.8-2.24 2.71-.72.92-1.47 1.83-2.16 2.78a33.94 33.94 0 01-3.88-.37c.58-.8 1.17-1.59 1.73-2.4v.01z" fill="#C8612F"/></g><defs><clipPath id="clip0_1259_4928"><path fill="#fff" transform="translate(.117 .475)" d="M0 0h88.22v85.476H0z"/></clipPath></defs></svg>