<svg width="63" height="102" viewBox="0 0 63 102" fill="none" xmlns="http://www.w3.org/2000/svg"><g clip-path="url(#clip0_1259_4978)"><path d="M21.859 53.98c-.02-.06-.02-.11-.02-.17a154.94 154.94 0 01-5.79 6.97c2.07-2.15 4.06-4.39 5.81-6.81v.01zM14.81 31.54h-.02c-.06.07-.13.14-.2.21h.04c.04-.08.1-.15.17-.2l.01-.01zm2.39 49.02s.04-.02.06-.04c.02-.02.04-.05.06-.07-.04.04-.07.08-.11.11h-.01zM30.71 7.53c-1.03-.1-2.08-.12-3.18-.06 1.06-.03 2.12-.01 3.18.06zM18.83 65.42c-.12.05-.24.1-.36.13-.8 1.03-1.57 2.07-2.35 3.11.2-.24.41-.48.61-.72.72-.83 1.41-1.67 2.1-2.52zM.998 17.7c-.09.06-.18.12-.27.17-.41.38-.83.75-1.24 1.13 1.02-.79 2.06-1.56 3.11-2.29-.54.33-1.07.66-1.6.99zm9.572 67.57c.45-.22.89-.45 1.34-.67-.51.22-1.03.44-1.55.64.07 0 .14.01.21.03zm8.27-57.01c-.66-.35-1.33-.69-2-1.04.75.46 1.46.94 1.9 1.14.03-.04.06-.07.1-.1zm14.57 19.17c-.97.97-1.79 2.05-2.56 3.17.82-1.02 1.63-2.05 2.47-3.06.03-.04.06-.07.09-.11zm7.35-37.12c-.07-.06-.15-.11-.22-.16-.08 0-.17 0-.26-.02.32.17.64.34.94.52-.15-.11-.3-.23-.45-.34h-.01zm4.2 67.74c-.82.95-1.66 1.87-2.52 2.78.93-.89 1.82-1.81 2.66-2.77-.05 0-.09 0-.14-.01zm.67-.6c.57-.69 1.09-1.41 1.59-2.15-.53.67-1.07 1.33-1.62 1.99.02.05.03.11.03.16zm-48.901 24.43s-.01.05-.02.07c.61.07 1.22.11 1.84.1.95 0 1.9-.07 2.84-.14-.67.03-1.34.06-2.01.06-.88 0-1.77-.03-2.66-.09h.01z" fill="#F9BA55"/><path d="M-16.231 37.76c-.12.19-.25.39-.37.58-6.1 9.76-10.52 21.66-8.07 33.21 2.57 11.27 12.2 16.54 23.27 15.41 17.27-1.9 32.72-14.77 42.04-28.86 3.87-5.99 7.04-12.72 8.45-19.76.7-3.48.97-7.03.69-10.61-.49-6.22-3.44-12.47-8.81-15.85-6.03-3.91-13.72-3.92-20.49-2.23-15.33 4.02-28.09 15.09-36.71 28.11zm27.33-23.12c.79-.28 1.59-.55 2.39-.81 1.66-.49 2.4 2.15.71 2.59-4.12 1.13-7.75 3.43-11.02 6.14-.96.68-1.68 2.48-3.08 1.71-3.46-2.28 8.99-9.12 10.99-9.62l.01-.01zm14.09 60.25c-2.37 2.24-5.23 3.84-7.94 5.63-.02.01-.04.03-.06.04-.79.63-2.21.11-2.18-1.04.05-1.67 6.36-4.3 7.89-6.17 1.17-1.68 3.67-.06 2.29 1.55v-.01zm7.57-7.73c-.99.96-1.62 2.72-3.06 2.97-.73 0-1.34-.61-1.34-1.34.2-1.34 1.6-2.14 2.28-3.27 1.05-1.38 3.2.27 2.13 1.64h-.01zm-4.16-35.18c3.66 1.92 7.42 3.65 11.1 5.55.42.23.86.46 1.21.79 0 0 .02.02.02.03.43.47-.1 1.15-.62.94v.08c.13 0 .26.03.36.11.26.2.29.56.11.82-.72.99-1.49 1.94-2.26 2.88-3.21 3.76-6.33 7.59-9.39 11.47-2.35 2.91-4.75 5.77-7.11 8.68-1.52 1.97-3.11 3.89-4.72 5.78-.78.93-1.55 1.87-2.36 2.77-.39.39-.87 1.23-1.47.69a.564.564 0 01-.15-.36c-.25.18-.53.27-.84.25.17.08.34.17.51.24.14.07.26.16.32.31.22.44-.28.98-.74.78-4.39-2.08-8.72-4.29-12.94-6.72-2.18-1.23-4.43-2.32-6.67-3.44-1.81-.94-3.58-1.98-5.41-2.9-.23-.12-.47-.24-.68-.39-.37-.28-.27-.74 0-.95a.523.523 0 01-.49-.21c-.31-.39-.08-.89.18-1.25.53-.78 1.1-1.52 1.68-2.26.2-.26.48-.28.71-.17.04-.08.09-.15.14-.22-.9-.51.21-1.54.55-2.09 1.16-1.47 2.4-2.9 3.59-4.35 1.62-1.94 3.21-3.9 4.8-5.85 1.22-1.56 2.47-3.1 3.71-4.64 1.08-1.34 2.16-2.69 3.22-4.05 1.93-2.48 4.17-4.68 6.43-6.86.09-.08.19-.13.28-.16.15-.27.4-.53.56-.74.26-.29.53-.57.82-.83.31-.34.76-.61 1.13-.19.15.19.15.38.08.56.17.02.33.07.47.17.19.04.39.1.6.19a.467.467 0 00-.1-.05c-.45-.22-1.04-.72-.58-1.22.3-.31.71-.17.98.1 1.02.6 2.11 1.08 3.15 1.62 3.24 1.76 6.5 3.48 9.82 5.1v-.01zm-6.73-19.07c.26 1.95-3.71 2.43-3.72.35 0-1.72 3.48-2.17 3.72-.35zm30.331-.42s-.05-.1-.08-.15c.1.22.21.45.31.67-.08-.17-.15-.35-.23-.52zm-1.241 14.44v-.03c-.11-.63-.24-1.26-.41-1.88.17.87.29 1.75.38 2.64 0-.24.02-.49.03-.73z" fill="#F9BA55"/><path d="M9.12 37.32c-.7.77-1.38 1.55-2.04 2.36v.06l1.17-1.41c.29-.34.58-.68.86-1.02l.01.01zm38.82 23.45c-.14.24-.29.47-.44.71.16-.23.3-.47.44-.71zM29.849 80.01s-.04.06-.05.09c.05-.04.09-.08.13-.11-.03 0-.05.01-.07.02h-.01zm-3.22 12.27l.04.04c.83-.51 1.66-1.04 2.48-1.6-.84.52-1.68 1.04-2.52 1.55v.01zM49.11 7.56c-.13-.17-.25-.34-.39-.51-.37-.38-.77-.72-1.19-1.05.57.47 1.06 1.03 1.57 1.56h.01zm4.599 5.38l.21.48c.03-.02.07-.04.1-.06-.06-.08-.12-.17-.18-.25-.04-.06-.08-.11-.12-.17h-.01zm-51 42.35c.23-.29.47-.57.7-.87.58-.77 1.14-1.55 1.7-2.33-.09.09-.18.19-.29.27-.75.95-1.43 1.94-2.11 2.93zm4.711-6.48c-.39.49-.7 1-1.01 1.5.47-.64.93-1.29 1.42-1.92 1.34-1.66 2.68-3.33 4.05-4.97h-.04c-1.6 1.68-2.98 3.57-4.42 5.39zm18.18 44.1c-.52.32-1.04.63-1.56.95.54-.3 1.07-.6 1.6-.91a.138.138 0 00-.04-.03v-.01zm10.219-51.82c0 .06 0 .13-.01.19.05-.06.1-.13.15-.19h-.14z" fill="#F9BA55"/><path d="M.1 24.25c1.4.77 2.12-1.03 3.08-1.71 3.27-2.71 6.9-5.01 11.02-6.14 1.69-.44.95-3.08-.71-2.59-.8.27-1.6.53-2.39.81-2.01.5-14.45 7.34-10.99 9.62l-.01.01zm18.06-10.99c0 2.08 3.97 1.6 3.72-.35-.24-1.82-3.71-1.37-3.72.35zm4.75 60.08c-1.53 1.87-7.83 4.51-7.89 6.17-.03 1.16 1.39 1.67 2.18 1.04.04-.03.08-.07.11-.11-.02.02-.03.05-.06.07 2.71-1.79 5.57-3.39 7.94-5.63 1.38-1.61-1.12-3.23-2.29-1.55l.01.01z" fill="#FFCF83"/><path d="M17.2 80.56s.04-.03.06-.04c-.02.02-.04.02-.06.04zm13.44-15.04c-.68 1.13-2.08 1.92-2.28 3.27 0 .73.61 1.34 1.34 1.34 1.44-.25 2.07-2.01 3.06-2.97 1.07-1.37-1.08-3.02-2.13-1.64h.01z" fill="#FFCF83"/><path d="M-.45 59.09c.51-.58 1.01-1.16 1.51-1.74.57-.67 1.11-1.37 1.65-2.06.68-.99 1.36-1.98 2.11-2.93.1-.09.19-.18.29-.27.43-.6.87-1.18 1.31-1.78.31-.5.62-1.01 1.01-1.5 1.44-1.82 2.82-3.71 4.42-5.39h.04l.6-.72c1.26-1.55 2.69-2.95 4.09-4.36l.51-.51c.27-.26.62-.19.82.01.14-.01.29.03.42.15.22.12.44.24.67.36 2.15 1.15 4.3 2.3 6.4 3.53.82.48 1.63.97 2.43 1.38.12.06.24.13.32.24.8-1.12 1.59-2.24 2.37-3.37-.11.01-.22 0-.34-.06-1.1-.58-2.22-1.15-3.33-1.72-1.01-.52-2.02-1.04-3.01-1.59-2.7-1.54-5.48-2.91-8.37-4.02.68 1.43 1.46 2.76 2.12 4.2.28.7-.75 1.16-1.08.45-.65-1.39-1.39-2.73-2.08-4.09l-.06-.12a146.16 146.16 0 00-3.34 3.69c-.41.49-.83.98-1.24 1.48-2.78 3.3-5.58 6.59-8.23 10.01-1.53 2.04-3.08 4.06-4.61 6.09-.25.34-.48.69-.73 1.03v.05a.21.21 0 00-.06.04c-.39.55-.79 1.1-1.17 1.66-.04.07-.09.14-.13.21 1.34.8 2.71 1.57 4.08 2.33a.72.72 0 00.24-.1c.05-.22.21-.43.37-.58zM61.5 22.98c-.02-.08-.03-.17-.05-.25 0 0 0 .02-.01.02.02.07.04.15.06.23zm-5.88-4.76c1.53 1.43 3.05 2.87 4.53 4.35-.13-.44-.26-.88-.41-1.31-1.67-2.78-3.82-5.27-5.72-7.9-.04.02-.07.04-.1.06.68 1.56 1.25 3.16 1.71 4.8h-.01zm3.3 33.15c-1.55-1.46-3.05-3.03-4.67-4.4-.35 1.09-.74 2.18-1.16 3.26.38.37.77.72 1.16 1.08 1.18 1.09 2.35 2.2 3.53 3.29.24-.63.48-1.27.7-1.9.15-.44.3-.89.44-1.34v.01zm-3.081-9.4c-.05-.06-.11-.11-.16-.17-.3 1.33-.64 2.66-1.05 3.99.05.03.1.06.14.1.37.29.71.6 1.06.91 1.2 1.06 2.32 2.21 3.47 3.32.37-1.24.71-2.49 1-3.77-1.53-1.42-2.99-2.92-4.47-4.39l.01.01zm1.04-16.95c.15 1.51.23 3.02.23 4.54.47.01.89.65 1.23.94 1.12 1.17 2.28 2.3 3.44 3.44 0-1.48-.08-2.95-.24-4.41-.1-.02-.2-.06-.29-.14-1.43-1.48-2.95-2.88-4.37-4.37zm.401 12.25c-.2-.21-.43-.41-.65-.62-.08.57-.16 1.13-.26 1.69-.12.72-.27 1.43-.42 2.15.14.05.27.15.34.28.37.39.75.76 1.13 1.14 1.05 1.04 2.1 2.09 3.17 3.11.28-1.36.52-2.73.71-4.12-1.39-1.16-2.71-2.4-4.03-3.63h.01zm3.209-12.69c-.85-.91-1.76-1.78-2.65-2.65-.56-.54-1.13-1.07-1.7-1.6.23 1.07.42 2.15.57 3.25.23-.05.49.02.65.31 1.31 1.32 2.64 2.62 3.96 3.93-.15-1.03-.35-2.05-.59-3.06a.807.807 0 01-.24-.17v-.01zm1.269 10.78a.52.52 0 01-.35-.15c-1.47-1.39-2.86-2.86-4.31-4.27-.04 1.41-.13 2.81-.28 4.21.11.09.21.2.3.33.38.4.78.77 1.18 1.15 1.05.98 2.1 1.95 3.18 2.89.04-.39.09-.78.12-1.17.09-.99.13-1.99.16-2.99zM57.309 58.8c-.03.08-.07.15-.1.23.03-.07.07-.15.1-.23zm-14.359 10c-.09-.1-.18-.2-.28-.3-.89 1.15-1.79 2.27-2.74 3.37 1.55 1.6 3.2 3.11 4.87 4.6.9-1.08 1.78-2.18 2.62-3.31a70.728 70.728 0 01-4.46-4.37l-.01.01zm2.278-3.77h-.01c-.59.86-1.19 1.7-1.82 2.54 1.48 1.64 3.07 3.19 4.71 4.67.69-.95 1.35-1.91 2-2.88-1.65-1.41-3.2-2.94-4.88-4.32v-.01zm2.712-4.26c-.14.24-.28.48-.44.71-.53.87-1.08 1.72-1.64 2.57.32.26.64.51.95.79 1.33 1.16 2.61 2.37 3.94 3.52.69-1.07 1.34-2.14 1.97-3.23-1.64-1.4-3.18-2.91-4.78-4.36zm-7.402 20.41a.5.5 0 01-.36-.15c-1.58-1.47-3.08-3.02-4.62-4.52-.84.82-1.7 1.62-2.57 2.41.03.03.06.04.08.07 1.58 1.61 3.23 3.16 4.79 4.81.92-.85 1.82-1.72 2.69-2.61l-.01-.01zm-1.289-8.31s-.08-.08-.11-.12c-.89 1-1.81 1.98-2.75 2.94 1.53 1.49 3.03 3.03 4.59 4.49.12.11.16.24.17.36.99-1.04 1.96-2.1 2.89-3.18-1.64-1.45-3.25-2.94-4.79-4.49zM51.26 57.08c-.22-.26-.57-.54-.83-.85-.59 1.18-1.23 2.35-1.89 3.51.35.31.69.63 1.04.94 1.25 1.14 2.47 2.31 3.74 3.42.63-1.13 1.23-2.28 1.8-3.43-1.29-1.19-2.58-2.38-3.85-3.59h-.01zm1.36-5.68c-.5 1.22-1.04 2.43-1.62 3.64.22.19.33.54.58.73 1.32 1.31 2.69 2.56 4.05 3.82.6-1.26 1.15-2.53 1.67-3.81-1.57-1.44-3.12-2.92-4.68-4.37v-.01zm-32.1 36.75a.691.691 0 01-.16-.22c-1.08.6-2.17 1.15-3.28 1.68.03.1.04.22.02.36 1.37 1.63 3.01 3.01 4.61 4.4.21.21.22.45.13.65.74-.37 1.47-.76 2.19-1.16.52-.32 1.04-.63 1.56-.95-1.69-1.6-3.39-3.18-5.08-4.77l.01.01zm7.78-5.39c-1.05.79-2.11 1.55-3.2 2.27a2110.78 2110.78 0 005.23 4.87c1-.71 1.98-1.44 2.95-2.2-1.68-1.63-3.45-3.17-4.98-4.94zm-12.41 7.4c-1.16.52-2.34.99-3.52 1.43 1.87 1.75 3.75 3.49 5.66 5.19 1.06-.44 2.1-.92 3.14-1.42a.636.636 0 01-.26-.13c-.86-.8-4.51-3.77-5.02-5.06v-.01zm-9.912 3.37c-1.21.28-2.43.5-3.66.68 1.93 1.98 4.09 3.73 6.13 5.59 1.1-.24 2.19-.5 3.27-.81a107.98 107.98 0 00-5.62-5.07.533.533 0 01-.12-.39zm26.181-13.79s-.02-.04-.04-.06c-.95.82-1.92 1.61-2.91 2.38.11.14.23.28.35.41 1.49 1.55 3.07 3.01 4.63 4.5.95-.77 1.88-1.56 2.79-2.38-1.57-1.66-3.22-3.22-4.82-4.85zM.98 100.82c-1.5-1.4-3-2.8-4.47-4.23-.58-.55-1.13-1.12-1.69-1.68a.497.497 0 01-.13-.19 43.03 43.03 0 01-5.17-.41c.11.12.22.23.33.34a151.3 151.3 0 003.94 4.07c.66.66 1.33 1.3 2 1.95 1.71.18 3.45.22 5.19.14v.01zm28.37-10.23c-1.75-1.63-3.51-3.26-5.26-4.9-.9.58-1.8 1.13-2.72 1.66 1.76 1.64 3.51 3.28 5.26 4.93.84-.51 1.68-1.03 2.52-1.55.07-.04.13-.09.2-.14zm-18.2 1.45c-1.33.46-2.68.84-4.04 1.19.41.29.76.68 1.15.99 1.55 1.42 3.16 2.79 4.64 4.29.03.03.03.07.05.1 1.31-.4 2.6-.86 3.88-1.36-1.92-1.71-3.8-3.46-5.68-5.21zM2 95.58c-.27-.31-.8-.73-1.08-1.16-1.54.18-3.09.28-4.64.31.2.2.41.4.61.6 1.87 1.83 3.78 3.61 5.69 5.4 1.5-.14 2.98-.35 4.46-.62-1.69-1.49-3.38-2.98-5.03-4.52L2 95.58z" fill="#E99547"/><path d="M38.77 38.34c-.62-.32-1.27-.61-1.89-.94-2.14-1.06-4.3-2.07-6.43-3.17-2.16-1.13-4.35-2.2-6.53-3.3-1.7-.88-3.39-1.78-5.08-2.68-.03.03-.07.06-.1.1-.45-.21-1.15-.69-1.9-1.14-.5-.26-1-.53-1.51-.79-.21-.08-.41-.15-.6-.19a.99.99 0 00-.47-.17c-.08.19-.24.36-.41.48-.31.29-.61.6-.89.92-.23.3-.42.73-.75.79-1.61 1.56-3.23 3.12-4.71 4.8-1.48 1.71-2.82 3.53-4.24 5.28-.13.17-.27.33-.41.5-3.16 3.9-6.26 7.84-9.5 11.67-1.07 1.31-2.21 2.57-3.2 3.95-.27.4-.44 1.05-1.06.81-.05.07-.1.15-.14.22.29.14.49.5.24.86-.6.78-1.22 1.55-1.74 2.38.02.09.04.17.08.25-.03.15-.01.3.03.43h.01c2.15 1.13 4.26 2.32 6.42 3.44 3.37 1.61 6.63 3.41 9.88 5.26 2.54 1.39 5.16 2.65 7.76 3.93.28.14.57.27.85.41.31.03.59-.07.84-.25-.02-.54.82-1.07 1.09-1.49.59-.68 1.16-1.37 1.74-2.06.77-1.04 1.55-2.08 2.35-3.11.12-.03.24-.08.36-.13.88-1.09 1.75-2.18 2.62-3.28 1.57-1.93 3.2-3.82 4.75-5.77 1.58-1.9 3.11-3.84 4.65-5.77.77-1.12 1.59-2.2 2.56-3.17.96-1.18 1.95-2.34 2.93-3.5.18-.22.36-.43.54-.64a81.72 81.72 0 002.97-3.71c.11-.15.28-.21.46-.22v-.08a.593.593 0 01-.2-.12c-.41-.32-.87-.58-1.33-.82l-.04.02zM21.84 53.82c0 .06 0 .11.02.17-1.75 2.42-3.74 4.66-5.81 6.81-.77.87-1.54 1.73-2.34 2.58-.94 1.05-1.89 2.09-2.87 3.1-.45.39-.98 1.41-1.65.85a.594.594 0 01-.17-.45c-1.97-1.06-3.91-2.18-5.81-3.36-3.04-1.77-6.16-3.4-9.17-5.22-.16-.13-.24-.28-.25-.43-.46-.39 0-.93.26-1.33C-3.09 52.41 0 48.43 3.13 44.5c1.32-1.58 2.64-3.17 3.96-4.75v-.06c.65-.82 1.34-1.6 2.04-2.36l1.17-1.38c.81-.94 1.64-1.86 2.49-2.77.4-.43.8-.87 1.21-1.29.16-.17.4-.2.6-.13.07-.07.13-.14.2-.21h.02c.19-.15.48-.19.77.01 3.56 1.24 6.83 3.1 10.13 4.89 1.22.65 2.46 1.27 3.68 1.9.43.22.87.45 1.29.68.18.09.27.24.3.38.4-.63 1.38-.1 1.01.59-1.01 1.53-2.08 3.02-3.15 4.51-2.29 3.14-4.61 6.26-7.02 9.31h.01zm13.98-12.73h.14c-.05.06-.1.13-.15.19 0-.06 0-.13.01-.19z" fill="#FFCE80"/><path d="M-25.02 86.6c.77.64 1.56 1.24 2.37 1.79 1.03.69 2.09 1.32 3.16 1.85 7.28 3.68 15.75 4.09 23.61 2.49 9.48-1.97 18.19-6.55 25.67-12.64.01-.03.04-.06.05-.09h.01c.03 0 .05-.01.07-.02 3.13-2.56 6.05-5.38 8.71-8.39 7.94-8.96 14.42-20.94 16.57-33.25 1.5-8.58.88-17.32-2.79-25.33-.11-.22-.21-.44-.31-.67-.86-1.69-1.86-3.29-3.01-4.78-.52-.53-1-1.09-1.57-1.56-.14-.11-.27-.23-.42-.33-5.36-3.04-11.72-4.3-18.1-3.83-21.16 1.69-40.6 17.4-51.29 36.5-.16.29-.32.59-.48.89-.18.36-.37.71-.53 1.07-.13.18-.23.38-.34.57-2.83 5.53-4.92 11.29-6.1 17.05-.97 4.77-1.35 9.76-.9 14.64.1.6.22 1.19.35 1.78-.05.03-.09.09-.13.14.55 3.91 1.67 7.7 3.5 11.21.38.32.79.62 1.21.89.2-.13.48-.15.68.02h.01zm7.04-48.26c.27-.44.55-.88.83-1.31 4.06-6.31 9.87-12.77 16.64-18.04.41-.38.83-.75 1.24-1.13.09-.06.18-.12.27-.17.53-.33 1.07-.66 1.6-.99 7.64-5.29 16.27-8.95 24.92-9.23 1.1-.07 2.15-.05 3.18.06 1.44.09 2.88.28 4.31.58 1.95.46 3.68 1.15 5.26 2.01.09.02.18.02.26.02.07.06.15.11.22.16.16.11.3.23.45.34 5.16 3.19 8.19 8.44 9.34 14.38.16.62.3 1.24.41 1.88v.03c0 .24-.02.49-.03.73.26 2.66.19 5.41-.23 8.14-.12.85-.27 1.7-.44 2.54-2.08 10.41-7.53 19.98-14.37 28.01-6.2 7.21-14.64 14.18-23.98 18.25-.44.23-.89.45-1.34.67-.07-.02-.14-.02-.21-.03C4.2 87.68-2.29 88.82-8.76 87.9c-5.99-.93-10.48-3.92-13.45-8.07-.09-.11-.18-.21-.26-.32-.02-.06-.05-.11-.08-.17-3.18-4.72-4.48-10.83-3.89-17.12 0-.16-.02-.31-.03-.47.05-.22.1-.44.14-.66.88-8.09 4.08-15.88 8.34-22.76l.01.01z" fill="#FFCE80"/><path d="M-26.39 61.75c-.02.16-.03.32-.04.48-.59 6.29.72 12.4 3.89 17.12.11.16.22.33.34.49 2.98 4.15 7.46 7.15 13.45 8.07 6.46.91 12.96-.23 19.11-2.66.52-.21 1.04-.42 1.55-.64 9.34-4.07 17.79-11.04 23.98-18.25 6.85-8.03 12.29-17.6 14.37-28.01.17-.84.32-1.69.44-2.54.42-2.73.49-5.48.23-8.14-.09-.89-.21-1.77-.38-2.64-1.15-5.94-4.18-11.19-9.34-14.38-.3-.19-.62-.35-.94-.52-1.58-.86-3.31-1.55-5.26-2.01-1.43-.3-2.87-.48-4.31-.58-1.06-.07-2.12-.09-3.18-.06-8.65.28-17.29 3.94-24.92 9.23-1.06.73-2.1 1.5-3.11 2.29-6.77 5.27-12.58 11.73-16.64 18.04-.28.43-.56.87-.83 1.31-4.25 6.89-7.46 14.67-8.34 22.76-.02.21-.05.43-.07.64zm67.36-49.87c5.36 3.39 8.31 9.64 8.81 15.85.28 3.58.01 7.13-.69 10.61-1.42 7.03-4.58 13.76-8.45 19.76C31.32 72.19 15.87 85.06-1.4 86.96c-11.07 1.13-20.7-4.14-23.27-15.41-2.45-11.54 1.97-23.45 8.07-33.21.12-.2.24-.39.37-.58C-7.61 24.74 5.15 13.67 20.48 9.65c6.77-1.68 14.46-1.68 20.49 2.23z" fill="#C8612F"/><path d="M39.84 39.58c-.94 1.27-1.95 2.5-2.97 3.71-.18.21-.36.43-.54.64-.98 1.16-1.97 2.32-2.93 3.5-.03.04-.06.07-.09.11-.84 1.01-1.65 2.03-2.47 3.06-1.54 1.93-3.07 3.87-4.65 5.77-1.55 1.95-3.18 3.84-4.75 5.77-.87 1.1-1.74 2.2-2.62 3.28-.69.85-1.38 1.69-2.1 2.52-.2.24-.41.48-.61.72-.58.69-1.15 1.38-1.74 2.06-.27.42-1.11.95-1.09 1.49 0 .12.04.24.15.36.6.53 1.08-.31 1.47-.69.81-.9 1.58-1.84 2.36-2.77 1.61-1.9 3.21-3.81 4.72-5.78 2.36-2.9 4.76-5.77 7.11-8.68 3.06-3.88 6.18-7.71 9.39-11.47.78-.94 1.54-1.9 2.26-2.88.19-.26.15-.62-.11-.82a.57.57 0 00-.36-.11c-.17 0-.35.07-.46.22l.03-.01zm-7.831.41c.37-.69-.61-1.21-1.01-.59a.557.557 0 00-.3-.38c-.43-.23-.86-.46-1.29-.68-1.23-.63-2.46-1.25-3.68-1.9-3.3-1.79-6.58-3.65-10.13-4.89-.29-.2-.58-.16-.77-.01-.07.06-.13.12-.17.2h-.04c-.21-.07-.44-.04-.6.13-.41.43-.81.86-1.21 1.29-.84.91-1.67 1.83-2.49 2.77l-1.17 1.38c-.29.34-.58.68-.86 1.02l-1.17 1.41c-1.32 1.58-2.64 3.17-3.96 4.75-3.13 3.93-6.22 7.91-9.08 12.04-.27.39-.72.94-.26 1.33.01.15.09.3.25.43 3.01 1.82 6.13 3.45 9.17 5.22 1.9 1.18 3.84 2.3 5.81 3.36 0 .17.05.34.17.45.67.56 1.2-.46 1.65-.85.98-1.01 1.93-2.06 2.87-3.1.79-.85 1.57-1.71 2.34-2.58 2-2.27 3.92-4.6 5.79-6.97 2.4-3.05 4.72-6.17 7.02-9.31 1.07-1.49 2.14-2.98 3.15-4.51l-.03-.01zm-37.15 17.45c.05-.07.09-.15.13-.21.37-.56.78-1.11 1.17-1.66l.06-.09c.25-.34.48-.7.73-1.03 1.53-2.04 3.08-4.06 4.61-6.09 2.64-3.42 5.44-6.71 8.23-10.01.41-.49.83-.98 1.24-1.48 1.09-1.25 2.2-2.48 3.34-3.69l.06.12c.69 1.37 1.43 2.71 2.08 4.09.33.7 1.36.25 1.08-.45-.66-1.44-1.44-2.77-2.12-4.2 2.89 1.11 5.68 2.48 8.37 4.02.99.55 2 1.07 3.01 1.59 1.11.57 2.22 1.13 3.33 1.72.12.06.24.08.34.06-.78 1.13-1.57 2.26-2.37 3.37a.775.775 0 00-.32-.24c-.8-.42-1.61-.9-2.43-1.38-2.1-1.23-4.25-2.38-6.4-3.53-.22-.12-.44-.24-.67-.36a.575.575 0 00-.42-.15c-.2-.21-.55-.28-.82-.01l-.51.51c-1.41 1.42-2.83 2.81-4.09 4.36l-.6.72c-1.37 1.64-2.71 3.3-4.05 4.97-.49.63-.95 1.28-1.42 1.92-.43.59-.88 1.18-1.31 1.78-.56.78-1.12 1.56-1.7 2.33-.22.3-.47.58-.7.87-.54.69-1.08 1.39-1.65 2.06-.5.58-1 1.17-1.51 1.74-.16.16-.32.36-.37.58-.02.07-.02.15-.01.23-.08-.04-.15-.09-.23-.13a164.8 164.8 0 01-4.08-2.33zm16.72 6.55c-.61.66-1.22 1.31-1.84 1.95-1.33-.72-2.67-1.45-3.98-2.22-1.9-1.19-3.85-2.29-5.81-3.38.14-.05.26-.15.32-.3.13-.17.29-.33.43-.5.8-.92 1.6-1.84 2.36-2.79 1.96-2.44 3.7-5.05 5.6-7.54 1.15-1.43 2.3-2.86 3.46-4.28 1.69-2.14 3.57-4.09 5.51-6.02 1.14.72 2.41 1.27 3.58 1.97 2.1 1.1 4.1 2.37 6.18 3.48.02.01.05.02.07.03-1.95 2.68-3.95 5.33-5.95 7.97-3.15 4.01-6.5 7.87-9.96 11.62l.03.01zm4.041-38.73c-.28-.26-.68-.41-.98-.1-.45.5.13 1 .58 1.22.03.02.07.04.1.05.51.26 1.01.52 1.51.79.67.35 1.34.69 2 1.04 1.69.9 3.38 1.8 5.08 2.68 2.18 1.1 4.37 2.17 6.53 3.3 2.12 1.09 4.29 2.11 6.43 3.17.61.33 1.26.62 1.89.94.46.24.92.5 1.33.82.07.06.13.1.2.12.52.2 1.06-.47.62-.94 0 0-.02-.02-.02-.03-.35-.33-.79-.56-1.21-.79-3.68-1.89-7.43-3.63-11.1-5.55-3.32-1.61-6.58-3.34-9.82-5.1-1.05-.55-2.13-1.02-3.15-1.62h.01zm-4 46.78c-2.6-1.28-5.21-2.54-7.76-3.93-3.24-1.84-6.51-3.65-9.88-5.26-2.15-1.12-4.27-2.31-6.42-3.44h-.01a.588.588 0 00-.38-.12c.16-.11.27-.3.24-.52 0-.01.02-.02.03-.04.52-.83 1.14-1.6 1.74-2.38.25-.36.05-.72-.24-.86a.554.554 0 00-.71.17c-.57.74-1.15 1.49-1.68 2.26-.25.36-.49.86-.18 1.25.12.17.31.23.49.21-.28.21-.38.66 0 .95.21.15.45.27.68.39 1.83.92 3.59 1.96 5.41 2.9 2.24 1.12 4.49 2.21 6.67 3.44 4.22 2.42 8.54 4.64 12.94 6.72.46.2.96-.34.74-.78-.06-.15-.18-.24-.32-.31l-.51-.24c-.28-.14-.57-.27-.85-.41zM-9.861 54.46c.98-1.38 2.13-2.63 3.2-3.95 3.24-3.83 6.34-7.77 9.5-11.67l.41-.5c1.42-1.75 2.76-3.58 4.24-5.28 1.49-1.68 3.1-3.24 4.71-4.8.33-.06.52-.49.75-.79.28-.33.57-.63.89-.92.17-.12.33-.29.41-.48.08-.18.07-.37-.08-.56-.37-.43-.82-.16-1.13.19-.29.26-.56.54-.82.83-.16.2-.41.46-.56.74-.1.02-.19.07-.28.16-2.26 2.18-4.5 4.38-6.43 6.86-1.06 1.36-2.14 2.71-3.22 4.05-1.24 1.54-2.49 3.08-3.71 4.64-1.6 1.95-3.19 3.91-4.8 5.85-1.19 1.45-2.43 2.87-3.59 4.35-.34.55-1.45 1.58-.55 2.09.62.24.79-.42 1.06-.81z" fill="#C8612F"/><path d="M61.44 22.75s0-.02.01-.02c.15-.18.19-.43.08-.65-.43-.91-.99-1.77-1.55-2.6-1.28-1.9-2.7-3.69-4.07-5.52-1.41-1.86-2.74-3.78-4.3-5.51-1.22-1.29-2.36-2.72-3.84-3.72 0 0-.02-.02-.02-.03-.04-.02-.07-.04-.11-.06l-.24-.15a.818.818 0 00-.19-.09C42.02 1.59 35.96.33 30.04.62 7.21 1.91-12.76 18.74-23.62 38.34c-.78 1.4-1.51 2.82-2.19 4.24-.66 1.42-1.28 2.87-1.86 4.34-.16.41-.32.82-.47 1.23-3.29 8.87-4.84 18.48-3.24 27.85.94 5.88 3.35 11.19 6.91 15.45a28.603 28.603 0 0012.7 8.78c.05.04.09.09.13.13.19.17.39.18.56.12 1.52.49 3.11.86 4.75 1.1.5.07 1 .1 1.51.15.18.18.36.36.55.54.4.36.88.06.96-.33 0-.02.01-.05.02-.07.89.05 1.77.09 2.66.09.67 0 1.34-.03 2.01-.06.25-.01.5-.02.75-.04.2.1.41.07.57-.05 12.85-.97 25.13-7.42 35.17-16.51.33.02.63-.25.63-.58a84.787 84.787 0 006.45-6.67c.05 0 .1.02.14.01.3-.03.54-.31.53-.61 0-.05-.01-.11-.03-.16.55-.66 1.09-1.32 1.62-1.99 4.06-5.14 7.46-10.67 9.99-16.27.03-.08.07-.15.1-.23.43-.95.83-1.91 1.2-2.86.04-.06.07-.13.08-.21.09-.23.19-.46.27-.69 2-5.21 3.42-10.93 3.9-16.69.44-5.21.1-10.44-1.27-15.37-.02-.07-.04-.15-.06-.23h.02zm-91.85 51.73c-.09-.64-.16-1.28-.22-1.92-.45-4.88-.07-9.87.9-14.64 1.19-5.76 3.28-11.52 6.1-17.05.28-.55.58-1.1.88-1.64.16-.3.31-.59.48-.89 10.69-19.1 30.13-34.81 51.29-36.5 6.39-.47 12.74.79 18.1 3.83.15.1.28.22.42.33.42.32.81.67 1.19 1.05l.39.51c1.15 1.5 2.15 3.09 3.01 4.78.03.05.05.1.08.15.08.17.15.35.23.52 3.67 8.01 4.28 16.75 2.79 25.33-2.15 12.32-8.63 24.29-16.57 33.25a75.106 75.106 0 01-8.71 8.39c-.05.04-.09.07-.13.11-7.48 6.08-16.19 10.67-25.67 12.64-7.86 1.61-16.34 1.19-23.61-2.49-1.07-.54-2.14-1.17-3.16-1.85-.81-.55-1.61-1.15-2.37-1.79-.19-.16-.47-.15-.68-.02-.05.03-.1.07-.14.12-.2.26-.14.62.1.82.01.01.03.02.05.04 1.57 1.31 3.26 2.44 5.05 3.39 0 .05.02.11.04.16 1.05 1.42 2.37 2.65 3.57 3.93.97.99 1.95 1.97 2.94 2.94-4.43-2.05-8.32-5.2-11.19-9.51-.19-.28-.35-.57-.53-.85-.4-.64-.77-1.28-1.11-1.94-1.83-3.51-2.95-7.3-3.5-11.21l-.02.01zm86.05-14.9c-1.36-1.26-2.74-2.51-4.05-3.82-.25-.19-.36-.54-.58-.73.58-1.2 1.12-2.42 1.62-3.64 1.56 1.46 3.11 2.93 4.68 4.37a74.65 74.65 0 01-1.67 3.81v.01zm-2.33 4.52c-1.27-1.11-2.5-2.28-3.74-3.42-.35-.31-.69-.63-1.04-.94.66-1.16 1.3-2.33 1.89-3.51.26.31.61.6.83.85 1.27 1.21 2.56 2.41 3.85 3.59a86.58 86.58 0 01-1.8 3.43h.01zm-5.2 8.13c-1.64-1.48-3.23-3.03-4.71-4.67.62-.83 1.23-1.68 1.82-2.54h.01c1.67 1.39 3.23 2.91 4.88 4.32-.64.97-1.31 1.93-2 2.88v.01zM37.85 83.79c-1.55-1.64-3.2-3.19-4.79-4.81-.02-.03-.05-.04-.08-.07.88-.78 1.73-1.58 2.57-2.41 1.54 1.51 3.05 3.05 4.62 4.52.12.1.24.14.36.15-.88.89-1.78 1.76-2.69 2.61l.01.01zm-11.17 8.53l-.04-.04c-1.75-1.65-3.5-3.29-5.26-4.93.92-.53 1.82-1.08 2.72-1.66 1.75 1.64 3.5 3.27 5.26 4.9-.07.04-.13.09-.2.14-.81.55-1.64 1.08-2.48 1.6v-.01zm-13.73 6.3s-.03-.07-.05-.1c-1.47-1.5-3.08-2.87-4.64-4.29-.39-.31-.74-.7-1.15-.99 1.36-.35 2.7-.73 4.04-1.19 1.88 1.76 3.77 3.5 5.68 5.21-1.28.5-2.57.95-3.88 1.36zm-10.38 2.1c-1.91-1.79-3.82-3.57-5.69-5.4-.2-.2-.41-.4-.61-.6 1.55-.03 3.1-.12 4.64-.31.28.44.82.85 1.08 1.16 1.64 1.54 3.34 3.03 5.03 4.52-1.47.27-2.96.48-4.46.62l.01.01zm-8.71-.3c-1.73-.28-3.42-.7-5.05-1.26a59.2 59.2 0 01-1.15-1.09c-2-1.96-3.99-3.91-5.87-5.97 1.88.8 3.83 1.42 5.84 1.86.03.09.07.17.14.23.45.42.86.87 1.28 1.32 1.56 1.68 3.18 3.31 4.81 4.91zm67.92-66.48c-1.16-1.13-2.31-2.27-3.44-3.44-.34-.29-.76-.93-1.23-.94 0-1.52-.08-3.03-.23-4.54 1.42 1.48 2.94 2.88 4.37 4.37.09.08.19.12.29.14.15 1.46.23 2.93.24 4.41zm-7.54 17.37c-.39-.36-.78-.71-1.16-1.08.42-1.08.8-2.17 1.16-3.26 1.63 1.37 3.12 2.94 4.67 4.4-.14.45-.29.9-.44 1.34-.22.63-.46 1.27-.7 1.9-1.18-1.09-2.35-2.2-3.53-3.29v-.01zm1.59-4.51c-.35-.31-.7-.62-1.06-.91-.04-.04-.09-.06-.14-.1.4-1.33.75-2.66 1.05-3.99.06.06.11.11.16.17 1.48 1.47 2.94 2.97 4.47 4.39-.3 1.27-.63 2.53-1 3.77-1.16-1.11-2.27-2.25-3.47-3.32l-.01-.01zM30.08 89.68c-1.66-1.55-3.32-3.09-4.98-4.64a68.93 68.93 0 003.2-2.27c1.53 1.77 3.3 3.31 4.98 4.94-.96.76-1.95 1.49-2.95 2.2a6.21 6.21 0 01-.25-.23zM8.45 99.8c-2.04-1.87-4.21-3.61-6.13-5.59 1.23-.19 2.45-.4 3.66-.68-.01.14.02.28.12.39 1.93 1.62 3.8 3.32 5.62 5.07-1.08.31-2.17.57-3.27.81zm9.58-3.02c-1.91-1.7-3.79-3.44-5.66-5.19 1.18-.44 2.36-.91 3.52-1.43.51 1.28 4.17 4.26 5.02 5.06.08.07.17.11.26.13-1.03.5-2.08.98-3.14 1.42v.01zm16.16-9.81c-1.56-1.49-3.13-2.95-4.63-4.5-.12-.13-.24-.27-.35-.41.99-.77 1.96-1.55 2.91-2.38.02.02.02.04.04.06 1.59 1.63 3.25 3.19 4.82 4.85-.91.82-1.84 1.61-2.79 2.38zm16.56-18.61c-1.33-1.15-2.61-2.36-3.94-3.52-.31-.27-.63-.53-.95-.79.57-.85 1.11-1.71 1.64-2.57.14-.24.3-.47.44-.71 1.6 1.44 3.15 2.95 4.78 4.36a81.84 81.84 0 01-1.97 3.23zm6.68-26.45c-.38-.38-.76-.75-1.13-1.14a.589.589 0 00-.34-.28 48.074 48.074 0 00.68-3.84c.22.21.44.4.65.62 1.32 1.23 2.64 2.47 4.03 3.63-.19 1.38-.42 2.75-.71 4.12-1.07-1.02-2.12-2.07-3.17-3.11h-.01zm.87-5.29c-.4-.38-.8-.75-1.18-1.15-.09-.13-.19-.24-.3-.33.15-1.4.24-2.8.28-4.21 1.45 1.41 2.83 2.89 4.31 4.27.11.1.23.14.35.15-.03 1-.07 1.99-.16 2.99-.03.39-.08.78-.12 1.17-1.08-.94-2.13-1.91-3.18-2.89zm-.93-12.74c-.16-.29-.42-.36-.65-.31-.15-1.09-.34-2.17-.57-3.25.57.53 1.14 1.06 1.7 1.6.9.87 1.8 1.74 2.65 2.65.07.08.15.13.24.17.24 1.01.44 2.03.59 3.06-1.31-1.32-2.65-2.61-3.96-3.93v.01zm2.37-2.62c.15.43.28.88.41 1.31-1.48-1.48-3-2.92-4.53-4.35-.46-1.64-1.02-3.25-1.71-4.8-.07-.16-.13-.32-.21-.48.04.06.08.11.12.17.06.08.12.17.18.25 1.9 2.63 4.04 5.12 5.72 7.9h.02zm-63.95 79.42c-.67-.65-1.34-1.3-2-1.95-1.34-1.33-2.66-2.69-3.94-4.07-.11-.12-.22-.23-.33-.34 1.73.24 3.45.38 5.17.41.03.07.07.13.13.19.56.56 1.11 1.13 1.69 1.68 1.47 1.43 2.97 2.83 4.47 4.23-1.74.08-3.48.04-5.19-.14v-.01zm26.05-5.66c.09-.2.08-.45-.13-.65-1.6-1.4-3.24-2.77-4.61-4.4.02-.14.01-.26-.02-.36 1.11-.53 2.2-1.08 3.28-1.68.03.08.08.16.16.22 1.69 1.59 3.4 3.17 5.08 4.77.01.01.02.02.04.03-.53.31-1.06.62-1.6.91-.73.4-1.46.79-2.19 1.16h-.01zm19.31-14.48a.574.574 0 00-.17-.36c-1.56-1.46-3.06-3-4.59-4.49.94-.95 1.86-1.94 2.75-2.94.04.04.08.08.11.12 1.54 1.55 3.15 3.04 4.79 4.49-.93 1.09-1.9 2.15-2.89 3.18zm3.64-4.07c-1.66-1.49-3.31-3-4.87-4.6.95-1.1 1.86-2.23 2.74-3.37.1.1.19.2.28.3 1.42 1.52 2.91 2.98 4.46 4.37-.84 1.12-1.72 2.23-2.62 3.31l.01-.01z" fill="#C8612F"/></g><defs><clipPath id="clip0_1259_4978"><path fill="#fff" transform="translate(-32.016 .58)" d="M0 0h94.946v101.852H0z"/></clipPath></defs></svg>