<svg width="107" height="80" viewBox="0 0 107 80" fill="none" xmlns="http://www.w3.org/2000/svg"><g clip-path="url(#clip0_1259_4818)"><path d="M63.52 31.92s.01 0 .02-.01c-.04 0-.07 0-.11-.02.03 0 .06.02.09.03zM36.6 44.12c.06.07.11.14.17.21 0 0 .01 0 .02-.01.08-.09.18-.16.28-.24-.17.04-.32.05-.47.03v.01zm66.739-28.53c-.05-.15-.09-.3-.14-.45-.02.16-.05.33-.08.49a.78.78 0 01.22-.04zM4.45 67.73s.02.05.03.07c.01 0 .03-.01.04-.02-.02-.02-.05-.04-.07-.06v.01z" fill="#F9BA55"/><path d="M93.3 9.25c-4.81-4.12-13.25-3.13-19.07-2.14-10.54 2.08-20.57 6.2-29.97 11.39-2.71 1.5-5.37 3.08-7.98 4.74-10.23 6.75-20.87 15.07-26.93 25.9-4.65 8.72-2.09 15.15 8.2 15.95 3.96.22 8.2-.2 12.57-1.11-.91-.05-1.82-.19-2.71-.48-1.03-.74-.49-2.52.75-2.61.76.05 1.45.27 2.23.15 3-.14 5.88-1.04 8.72-1.94.9-.3 1.79-.6 2.68-.93 1.22-.49 2.12.67 1.98 1.66 13.07-5.1 25.89-13.1 34.58-20.41 6.48-5.6 13.01-11.92 16.26-19.98 1.31-3.35 1.57-7.62-1.33-10.19h.02zM78.38 30.18c-.19.19-.46.23-.68.13.07.22.02.48-.22.68-.35.23-.67.52-1.04.71a.666.666 0 01-.61-.03c-1.75 1.16-3.59 2.22-5.33 3.39-2.25 1.49-4.43 3.08-6.74 4.48-3.55 2.06-6.94 4.36-10.42 6.55-1.73 1.05-3.41 2.16-5.16 3.18-1.77 1-3.63 1.86-5.35 2.95-1.36.84-2.7 1.72-4.05 2.58-.16.1-.32.21-.48.31-.47.25-.89.67-1.43.72a.653.653 0 01-.64-.65c0-.29.21-.56.49-.62.03-.02.07-.04.1-.06-.04-.01-.07-.03-.11-.05-1.07-.68-1.88-1.67-2.71-2.61-1.83-2-3.85-3.82-5.68-5.83-1.48-1.67-3.12-3.17-4.66-4.78-.57-.61.3-1.49.91-.9.16.16.32.33.48.49-.4-.79-.62-1.77.15-2.1-.01-.01-.03-.02-.04-.03a.659.659 0 01.12-.9c1.01-.78 2.1-1.44 3.21-2.06 2.72-1.54 5.53-3.01 8.11-4.75 1.12-.75 2.24-1.52 3.37-2.24.99-.64 2-1.25 3.01-1.85 3.67-2.17 7.45-4.15 11.18-6.21 1.14-.62 2.28-1.24 3.46-1.78.41-.24.98-.38 1.22.17.06.14.05.28.02.41.11.01.22.05.32.1-.01-.41.36-.83.88-.63 3.67 1.53 7.23 3.3 10.56 5.48 1.92 1.04 3.87 2.03 5.66 3.29.72.48 1.45.96 2.09 1.56.26.24.23.67 0 .91l.01-.01zm-.78-19.01c-2.31.29-4.58.89-6.8 1.58-1.85.18-5.18 3.21-6.36 1.2-1.69-3.23 10.6-5.32 12.81-5.71 1.89-.24 2.25 2.72.35 2.93zm8.36.57c-1.15-.26-2.98-.34-2.75-1.99.33-1.79 2.35-1.17 3.58-.84 1.84.52.99 3.38-.83 2.83zm-24.5 46.77c-.51.28-1.01.56-1.52.83.51-.26 1.03-.52 1.54-.78 0-.02-.02-.03-.02-.05z" fill="#F9BA55"/><path d="M58.29 24.81h.02a.5.5 0 01.24-.19c-.07-.03-.14-.07-.21-.1l-.21.09c.05.04.1.09.13.15 0 .02.02.03.03.05zm-6.42 6.76c.08-.04.16-.09.24-.13.25-.13.49-.27.74-.41.02-.05.04-.1.07-.14-.16.1-.33.2-.49.3-.19.12-.38.25-.56.38zM82.33 4.92s-.04.01-.06.02h.23c-.06 0-.12-.02-.17-.03v.01zm12.93 4.57l-.02-.02s.02.03.03.04V9.5l-.01-.01zm-.13 12.24c.03-.11.05-.22.08-.33-.06.13-.11.25-.17.38.03-.01.06-.03.08-.04l.01-.01zM20.38 33.75c1.94-1.79 3.98-3.53 6.12-5.2-2.22 1.53-4.23 3.3-6.12 5.2zM68.4 48.52c.33-.26.67-.51 1-.76-1.83 1.22-3.69 2.39-5.57 3.52 1.54-.89 3.07-1.79 4.57-2.75v-.01zM1.47 58.82v.3s.01 0 .02-.01c-.01-.1-.01-.19-.02-.29zm-.17 4.93c-.1-.24-.26-.49-.31-.75-.54-1.4-.8-2.94-.79-4.59-.39 3.9.52 7.78 3.48 11.3.2.23.41.46.61.69-.86-1.71-1.59-3.5-2.35-5.25-.21-.47-.42-.93-.64-1.39v-.01zm81.23-21.14c.56-.47 1.11-.95 1.65-1.43-.53.43-1.07.87-1.59 1.31l-.06.12zM36.37 32.7c.18-.12.37-.24.55-.36.02-.02.03-.04.04-.06-.22.14-.45.28-.68.42h.09zm-6.6 3.79c.18-.05.37-.07.55-.02.7-.48 1.39-.96 2.09-1.44-.86.49-1.72.96-2.58 1.43-.02 0-.03.02-.05.03h-.01zm29.29-.34l.1-.13c-.53.34-1.06.68-1.6 1.02.5-.3 1-.59 1.5-.89zm-27.01 2.34s0 .05-.02.08c.09.05.16.12.23.19.01-.02.03-.03.05-.05-.09-.05-.17-.12-.26-.21v-.01zM6.37 52.81l-.06.52c.08-.3.16-.61.26-.92-.07.13-.13.27-.2.4zm61.71-23.42c.25.11.36.31.38.52.07-.1.16-.19.25-.27-1.47-.73-2.94-1.47-4.41-2.22.83.47 1.66.94 2.51 1.38.42.21.84.41 1.27.59zM30.52 65.34s.05-.01.07-.02c.03-.05.07-.09.11-.13-.48.1-.95.2-1.43.29.41-.03.83-.1 1.24-.15l.01.01zM76.8 29.92c.09-.04.17-.07.26-.08-.08-.07-.18-.12-.26-.19.01.09.02.18 0 .26v.01zM51.79 45.54c.84-.52 1.67-1.06 2.51-1.6h-.14c-.78.54-1.57 1.07-2.37 1.6z" fill="#F9BA55"/><path d="M77.25 8.24c-2.22.39-14.51 2.48-12.81 5.71 1.18 2.01 4.51-1.03 6.36-1.2 2.22-.69 4.49-1.28 6.8-1.58 1.9-.21 1.54-3.17-.35-2.93zm9.54.67c-1.23-.33-3.26-.94-3.58.84-.23 1.65 1.6 1.72 2.75 1.99 1.82.55 2.68-2.31.83-2.83zM41.8 58.17c-.88.33-1.78.63-2.68.93-2.84.91-5.72 1.8-8.72 1.94-.78.12-1.47-.11-2.23-.15-1.24.1-1.78 1.87-.75 2.61.89.29 1.79.43 2.71.48 2.48-.51 5.01-1.18 7.55-1.98 2.03-.64 4.07-1.37 6.1-2.16.14-1-.77-2.16-1.98-1.66v-.01z" fill="#FFCF83"/><path d="M57.69 25.83c-3.37 1.93-6.73 3.87-10.08 5.83-1.92 1.18-3.86 2.31-5.85 3.36-.4.21-.81.43-1.21.63-2.2 1.13-4.32 2.43-6.49 3.62-.29.14-.59.34-.9.44.12.08.21.21.25.4.38.53.82 1.02 1.23 1.52.67.82 1.3 1.66 1.94 2.49.14.01.3 0 .47-.03.28-.2.59-.38.81-.56.96-.66 1.93-1.28 2.9-1.92l.61-.4c2.79-1.98 5.69-3.75 8.65-5.46 2.59-1.74 5.39-3.13 8-4.82.29-.16.56-.09.74.08 0-.02 0-.04-.01-.06-.21-1.2-.45-2.33-.74-3.5-.06-.41-.29-1.06-.33-1.61l.01-.01zm-4.84 5.2c-.25.14-.49.27-.74.41-.08.04-.16.09-.24.13.19-.13.38-.25.56-.38.16-.1.33-.2.49-.3a.61.61 0 00-.07.14zm6.16-5.11c.13.87.39 1.72.57 2.58.14.65.27 1.31.39 1.96 1.15.46 2.25 1.07 3.44 1.42h.02c.04.01.07 0 .11.02.71-.44 1.4-.88 2.08-1.33.27-.18.53-.36.79-.55-1.96-.97-3.83-2.13-5.73-3.2-.55-.31-1.09-.63-1.66-.9h-.01zm44.599 3.55c-1.16-2.08-2.05-4.29-3-6.47-.66 1.37-1.41 2.69-2.22 3.98-.07.11-.14.21-.2.32 1.15 2.01 2.24 4.06 3.46 6.04.08.14.09.29.05.43.8-1.3 1.54-2.65 2.18-4.03-.1-.05-.2-.13-.28-.26l.01-.01zM67.54 57.69c-.32-.49-.64-.97-.99-1.45a.801.801 0 01-.25-.49v-.03c-1.23.74-2.48 1.47-3.76 2.18.39.62.62 1.36.99 1.99.8 1.57 1.73 3.08 2.74 4.53.05.08.08.15.1.23 1.37-.77 2.72-1.56 4.06-2.38-.98-1.52-1.9-3.09-2.89-4.6v.02zm-21.77 8.45a.55.55 0 01-.24-.21c-1.26.48-2.51.93-3.77 1.36.3.54.61 1.07.9 1.61.9 1.69 1.78 3.39 2.74 5.05.02.03.02.07.03.1 1.46-.49 2.91-1.01 4.37-1.57-1.44-2.05-2.68-4.23-4.02-6.34h-.01zm-7.02 9.92c-.7-1.15-1.39-2.32-2.05-3.5-.54-1.08-1.27-2.1-1.7-3.23-1.28.33-2.55.63-3.82.9.02.03.04.05.05.08 1.38 2.13 2.41 4.45 3.54 6.72.22-.05.44-.09.66-.14 1.1-.25 2.21-.53 3.32-.82v-.01zm-5.72 1.33l.45-.09c-1.03-2.09-2.03-4.26-3.26-6.2-.1-.23-.32-.38-.46-.58-1.84.35-3.65.62-5.44.8.3.8.63 1.59 1 2.36.73 1.41 1.51 2.79 2.34 4.14.06.11.08.22.08.32 1.88-.19 3.68-.46 5.29-.75zm67.861-43.15c-.17-.05-.28-.17-.37-.31-.59-.97-1.17-1.96-1.73-2.95-.47-.82-.92-1.66-1.38-2.49-.87 1.27-1.8 2.5-2.77 3.69.1.16.18.33.28.48.5.87.96 1.76 1.41 2.66.59 1.18 1.14 2.38 1.76 3.54a54.44 54.44 0 003.39-4.74.58.58 0 01-.58.11l-.01.01zm-7.461 9.91l-.01-.01c-1.29-2.14-2.57-4.31-3.68-6.54-1.17 1.18-2.36 2.33-3.57 3.45.28.43.56.86.82 1.31 1.02 1.71 1.95 3.48 2.96 5.19 1.2-1.12 2.36-2.25 3.48-3.4zm-67 34.11c-1.33-2.18-2.58-4.42-3.44-6.84-1.68.13-3.34.2-4.96.17.13.24.24.49.37.69.75 1.45 1.49 3.05 2.2 4.46.22.44.44.87.67 1.31.06.11.08.23.07.35 1.7.06 3.42 0 5.09-.14zm55.88-31.29c-.29-.59-.75-1.19-.8-1.86-1.27 1.04-2.6 2.08-4 3.13.23.04.44.19.52.43.43.81.88 1.62 1.31 2.44.45.83.92 1.65 1.42 2.46.24.39.48.78.73 1.16 1.27-.97 2.51-1.96 3.72-2.96-.97-1.59-1.95-3.18-2.89-4.79l-.01-.01zm-5.52 1.8c-1.5 1.1-3.05 2.19-4.67 3.27.06.05.12.12.17.21.49.97 1.02 1.92 1.57 2.86.7 1.2 1.39 2.41 2.15 3.57 1.51-1.03 2.99-2.1 4.44-3.18-.99-1.57-1.94-3.17-2.8-4.82-.18-.5-.91-1.32-.86-1.91zM40.9 68.4c-.12-.23-.27-.45-.37-.69-1.3.43-2.6.83-3.9 1.19-.14.04-.27.07-.41.11.27.64.66 1.24.99 1.85.86 1.55 1.75 3.09 2.67 4.6.05.09.08.18.09.26 1.41-.39 2.82-.81 4.23-1.27-1.15-1.99-2.17-4.06-3.3-6.06v.01zm24.33-3.22c-1.3-1.88-2.48-3.84-3.43-5.92-.09-.24-.21-.47-.32-.7-.51.26-1.03.52-1.54.78-.86.46-1.73.9-2.61 1.35.04.05.09.11.12.17.57.85 1.06 1.76 1.53 2.67.68 1.31 1.32 2.66 2.13 3.9 0 .01 0 .03.02.04 1.41-.71 2.8-1.44 4.18-2.2-.03-.03-.06-.04-.08-.07v-.02zm19.09-22.44c-.64.57-1.31 1.14-1.99 1.71.42.11.79.5.6.97.99 1.88 2.16 3.68 3.26 5.5.95-.81 1.89-1.63 2.81-2.47-1.29-2.16-2.42-4.41-3.79-6.52-.3.27-.59.54-.89.81zm12.65-3.24c-1.11-2.07-2.03-4.23-3.21-6.26-.99 1.16-2.02 2.29-3.08 3.39.25.56.55 1.1.84 1.63.92 1.66 1.85 3.33 2.84 4.95l.18-.18c.95-1.05 1.89-2.12 2.8-3.22a.61.61 0 01-.36-.3l-.01-.01zm6.371-23.91c-.07 0-.14.02-.22.04-.1.63-.23 1.27-.4 1.89a33.67 33.67 0 01-1.5 4.12c.51.3.72 1.4.99 1.86.71 1.64 1.41 3.28 2.25 4.86.12-.3.26-.59.37-.9.21-.58.4-1.18.57-1.77v-.08c-.21-3.43-1.08-6.75-2.07-10.02h.01zM67.42 55.28c.41.5.75 1.05 1.11 1.59 1.03 1.57 1.98 3.19 3 4.77 1.16-.72 2.31-1.46 3.44-2.22a83.996 83.996 0 01-3.8-6.56c-.02-.05-.03-.1-.04-.14-1.26.83-2.55 1.64-3.86 2.44.06.03.11.07.16.12h-.01zm-15.86 9.48c-.17-.38-.39-.71-.62-1.05-1.36.6-2.72 1.18-4.09 1.72.23.32.42.73.61 1 .39.64.77 1.28 1.16 1.91a72.28 72.28 0 002.28 3.5c.04.06.06.12.08.18 1.34-.53 2.68-1.09 4.01-1.67-1.27-1.79-2.44-3.64-3.43-5.6v.01zM17.6 73.52c-.25-.49-.5-.99-.8-1.46a.677.677 0 01-.25-.5v-.04a38.8 38.8 0 01-4.09-.4c-.53-.09-1.03-.2-1.53-.32 1.21 2.19 2.41 4.38 3.58 6.6 1.72.51 3.57.8 5.45.93-.82-1.59-1.59-3.2-2.38-4.81h.02zM6.9 72.35c.12.03.24.11.34.24.18.26.37.52.58.76 1.35 1.52 3.03 2.61 4.91 3.39-.75-1.41-1.51-2.83-2.29-4.22-.37-.74-.9-1.45-1.21-2.22-1.84-.62-3.42-1.47-4.72-2.51-.01 0-.03.01-.04.02.42.95.86 1.89 1.35 2.81.34.6.69 1.17 1.06 1.74l.02-.01zm45.25-9.19c.34.47.57 1.17.82 1.52.89 1.73 1.95 3.35 3.07 4.94.05.08.08.15.1.22 1.29-.58 2.58-1.18 3.86-1.81-1.41-2.17-2.36-4.69-3.83-6.77-1.32.65-2.66 1.28-4.01 1.89l-.01.01z" fill="#E99547"/><path d="M34.39 50.38c.98 1 1.78 2.2 2.97 2.97.26.17.34.42.3.65.24-.15.48-.31.72-.46.22-.14.43-.29.65-.43a84.38 84.38 0 018.07-4.7c1.58-.93 3.14-1.89 4.69-2.86a75.6 75.6 0 002.37-1.6h.14c1.07-.69 2.15-1.37 3.21-2.07 2.28-1.5 4.67-2.82 6.97-4.29 2.57-1.66 5.03-3.48 7.63-5.08 1.25-.77 2.5-1.53 3.7-2.36.25-.18.51-.16.71-.03.06-.04.12-.08.18-.13.04-.03.07-.04.11-.06.02-.09.01-.17 0-.26-2.29-1.76-4.87-3.01-7.37-4.45-3.1-2.04-6.46-3.63-9.87-5.08a.615.615 0 01-.38-.55c-.1-.05-.2-.08-.32-.1-.05.19-.17.35-.36.43-2.8 1.26-5.41 2.88-8.13 4.3-2.56 1.38-5.13 2.81-7.63 4.32-1.13.68-2.24 1.38-3.33 2.1-.81.56-1.63 1.11-2.45 1.64-.02.02-.03.04-.04.06-.18.12-.37.24-.55.36h-.08c-1.28.8-2.57 1.58-3.89 2.33-.69.48-1.39.96-2.09 1.44-.18-.05-.37-.03-.55.02-.89.5-1.77 1-2.6 1.54-.6.28-1.31 1.33-1.95.69-.78.33-.56 1.31-.15 2.1 1.7 1.71 3.42 3.41 5.03 5.21 1.4 1.48 2.9 2.87 4.3 4.35h-.01zm12.84-19.99c2.31-1.39 4.69-2.67 7.01-4.05 1.04-.61 2.09-1.23 3.15-1.81.25-.14.55-.09.75.09l.21-.09c.07.03.14.07.21.1.31-.14.75-.03 1.07.17 1.59.83 3.13 1.74 4.68 2.63 1.47.75 2.94 1.49 4.41 2.22-.1.08-.18.17-.25.27.03.37-.27.76-.7.71-.02.02-.05.04-.07.06-1.03.78-2.13 1.47-3.22 2.16-1.69 1.09-3.46 2.05-5.18 3.09-.04.03-.08.05-.12.08-.03.05-.07.08-.1.13-.5.3-1 .59-1.5.89-1.14.73-2.28 1.45-3.45 2.13-3.59 2-7.05 4.23-10.61 6.29-1.19.69-2.38 1.38-3.6 2.02-.01 0-.02 0-.03.01-.61.25-1.49 1.04-1.93.19 0-.02-.02-.04-.02-.06a.642.642 0 01-.28-.17c-1.32-1.51-2.5-3.14-3.75-4.71-.42-.53-.85-1.04-1.28-1.56-.24-.29-.49-.61-.47-.95 0-.26.14-.44.31-.54-.31-.17-.41-.62-.22-.92 0 0 .01 0 .01-.02-.07-.07-.13-.14-.23-.19 0-.03.01-.05.02-.08a1 1 0 00.26.21c.19-.24.5-.2.75-.34 1.18-.62 2.32-1.29 3.47-1.96 1.81-1.03 3.66-2 5.49-2.99 1.77-.96 3.52-1.95 5.22-3.03l-.01.02z" fill="#FFCE80"/><path d="M15.619 70.24c6.83.42 14.07-.69 21.23-2.74 11.67-3.34 23.16-9.19 32.39-15.07 4.56-3 9.07-6.25 13.28-9.82l.06-.12c.53-.44 1.06-.87 1.59-1.31 5.85-5.18 11.04-11.04 14.85-17.86 2.74-5.11 4.8-12.1.67-17.02-5.78-6.44-17.53-5.34-25.28-3.97-10.23 2.05-20.06 5.74-29.31 10.57-7.15 3.74-13.95 8.16-20.32 13.04C15.96 33 6.96 41.53 2.73 52.18c-.91 2.45-1.31 4.66-1.26 6.63 0 .1.01.19.02.29 0 0-.01 0-.02.01.05 1.23.29 2.37.68 3.41.03.05.06.11.07.18.01.03.02.06.03.08.08.2.18.39.27.58.02.05.05.1.07.15 2.05 3.95 6.72 6.24 13.02 6.72l.01.01zm4.76-36.49c1.89-1.9 3.9-3.67 6.12-5.2 5.61-4.38 11.79-8.31 18-11.64 5.93-3.18 11.89-5.81 17.41-7.77 6.02-2 13.42-4.17 20.36-4.2.02 0 .04-.01.06-.02.06 0 .12.02.17.03 3.06 0 6.02.44 8.73 1.49 1.81.8 3.11 1.84 4.01 3.03l.02.02v.01c2.43 3.29 1.76 7.78-.05 11.89-.03.11-.05.22-.08.33-.03.02-.06.03-.08.04a30.57 30.57 0 01-3.11 5.24c-6.11 8.28-13.97 15.04-22.53 20.74-.33.26-.67.51-1 .76-1.5.96-3.03 1.87-4.57 2.75-2.9 1.73-5.85 3.37-8.82 4.92-4.95 2.48-11.11 5.19-17.53 7.2-2.24.7-4.5 1.31-6.76 1.81-.04.04-.08.09-.11.13-.02 0-.05.01-.07.02-.41.05-.83.11-1.24.15-5.44 1.06-10.78 1.35-15.44.29-7.22-1.82-8.92-6.92-7.53-12.45l.06-.52c.07-.13.13-.27.2-.4.5-1.61 1.24-3.24 2.18-4.83 2.95-4.88 6.97-9.52 11.64-13.84l-.04.02z" fill="#FFCE80"/><path d="M6.31 53.33c-1.39 5.53.31 10.64 7.53 12.45 4.66 1.05 10 .76 15.44-.29.48-.09.95-.19 1.43-.29 2.26-.49 4.53-1.1 6.76-1.81 6.42-2.01 12.58-4.72 17.53-7.2a162.9 162.9 0 008.82-4.92c1.88-1.13 3.74-2.3 5.57-3.52 8.56-5.71 16.42-12.46 22.53-20.74a30.57 30.57 0 003.11-5.24c.06-.12.11-.25.17-.38 1.82-4.11 2.48-8.6.05-11.89 0-.01-.02-.03-.03-.04-.89-1.19-2.19-2.23-4.01-3.03-2.71-1.05-5.67-1.48-8.73-1.49h-.23c-6.93.03-14.33 2.19-20.36 4.2-5.52 1.96-11.48 4.59-17.41 7.77-6.21 3.33-12.39 7.25-18 11.64a97.334 97.334 0 00-6.12 5.2c-4.67 4.31-8.69 8.96-11.64 13.84-.94 1.59-1.68 3.22-2.18 4.83-.09.31-.18.61-.26.92l.03-.01zm72.06-13.91c-8.69 7.31-21.51 15.31-34.58 20.41a98.74 98.74 0 01-6.1 2.16c-2.54.8-5.07 1.47-7.55 1.98-4.37.9-8.62 1.32-12.57 1.11-10.29-.8-12.85-7.23-8.2-15.95 6.06-10.83 16.7-19.15 26.93-25.9 2.6-1.65 5.26-3.24 7.98-4.74 9.4-5.19 19.43-9.32 29.97-11.39 5.82-1 14.25-1.98 19.07 2.14 2.9 2.58 2.64 6.84 1.33 10.19-3.26 8.07-9.78 14.39-16.26 19.98l-.02.01z" fill="#C8612F"/><path d="M76.29 27.72c-1.79-1.27-3.74-2.25-5.66-3.29-3.33-2.18-6.89-3.95-10.56-5.48-.52-.2-.89.22-.88.63 0 .22.11.43.38.55 3.41 1.45 6.77 3.04 9.87 5.08 2.49 1.44 5.08 2.69 7.37 4.45.09.07.18.12.26.19-.08 0-.17.03-.26.08-.04.02-.07.03-.11.06-.06.04-.12.09-.18.13a.637.637 0 00-.71.03c-1.2.83-2.45 1.59-3.7 2.36-2.61 1.6-5.07 3.42-7.63 5.08-2.3 1.47-4.69 2.79-6.97 4.29-1.06.71-2.14 1.39-3.21 2.07-.83.54-1.67 1.08-2.51 1.6-1.55.97-3.11 1.92-4.69 2.86a84.378 84.378 0 00-8.07 4.7c-.22.14-.43.29-.65.43-.24.15-.48.31-.72.46.04-.23-.04-.48-.3-.65-1.19-.77-1.99-1.97-2.97-2.97-1.4-1.48-2.9-2.87-4.3-4.35-1.62-1.8-3.33-3.5-5.03-5.21-.16-.16-.32-.33-.48-.49-.61-.59-1.48.29-.91.9 1.54 1.61 3.18 3.11 4.66 4.78 1.82 2.01 3.85 3.83 5.68 5.83.83.94 1.64 1.93 2.71 2.61.04.02.07.04.11.05-.03.02-.07.04-.1.06-.28.07-.49.33-.49.62 0 .36.3.63.64.65.54-.05.96-.47 1.43-.72.16-.1.32-.2.48-.31 1.35-.86 2.69-1.74 4.05-2.58 1.73-1.09 3.58-1.95 5.35-2.95 1.75-1.02 3.44-2.13 5.16-3.18 3.47-2.19 6.86-4.49 10.42-6.55 2.31-1.4 4.49-2.99 6.74-4.48 1.74-1.17 3.58-2.22 5.33-3.39.05.03.11.06.17.07.15.05.3.03.44-.04.37-.19.69-.48 1.04-.71.24-.2.29-.45.22-.68.23.09.49.05.68-.13.24-.24.26-.67 0-.91-.64-.59-1.37-1.07-2.09-1.56l-.01.01z" fill="#C8612F"/><path d="M36.52 36.41c-1.15.66-2.29 1.34-3.47 1.96-.25.14-.56.1-.75.34-.01.02-.03.03-.05.05 0 0-.01 0-.01.02-.2.3-.1.75.22.92a.59.59 0 00-.31.54c-.02.34.23.66.47.95.42.52.86 1.03 1.28 1.56 1.25 1.57 2.43 3.2 3.75 4.71.09.09.19.15.28.17 0 .02.01.04.02.06.43.85 1.32.06 1.93-.19.01 0 .02 0 .03-.01 1.22-.63 2.41-1.33 3.6-2.02 3.56-2.06 7.01-4.29 10.61-6.29 1.17-.68 2.31-1.41 3.45-2.13.53-.34 1.06-.68 1.6-1.02.04-.03.08-.05.12-.08 1.72-1.05 3.49-2.01 5.18-3.09 1.09-.69 2.19-1.38 3.22-2.16.03-.02.05-.04.07-.06.43.06.73-.33.7-.71-.01-.21-.13-.41-.38-.52-.43-.19-.85-.38-1.27-.59-.85-.44-1.68-.9-2.51-1.38-1.55-.89-3.09-1.81-4.68-2.63-.32-.21-.76-.31-1.07-.17-.09.04-.17.1-.24.19h-.02c0-.02-.02-.03-.03-.05-.03-.06-.08-.1-.13-.15-.2-.18-.5-.23-.75-.09-1.06.58-2.1 1.2-3.15 1.81-2.32 1.38-4.69 2.67-7.01 4.05-1.7 1.08-3.46 2.06-5.22 3.03-1.83 1-3.67 1.97-5.49 2.99l.01-.01zm22.24-5.47s0 .04.01.06c-.18-.17-.45-.24-.74-.08-2.62 1.69-5.41 3.08-8 4.82-2.95 1.71-5.86 3.49-8.65 5.46-.2.14-.4.27-.61.4-.97.64-1.94 1.27-2.9 1.92-.22.19-.53.36-.81.56-.1.08-.2.15-.28.24 0 0-.01 0-.01.01-.06-.07-.11-.14-.17-.21-.64-.83-1.28-1.67-1.94-2.49-.41-.5-.85-.99-1.23-1.52a.662.662 0 00-.25-.4c.31-.1.62-.3.9-.44 2.17-1.19 4.28-2.49 6.49-3.62.41-.21.81-.42 1.21-.63 1.99-1.06 3.93-2.18 5.85-3.36 3.35-1.96 6.71-3.9 10.08-5.83.04.56.27 1.21.33 1.61.28 1.17.53 2.3.74 3.5h-.02zM42.48 44.58c-.78.45-1.56.9-2.36 1.34-.38.21-.77.41-1.15.61-.1.05-.2.09-.31.14l-.09-.12c-.34-.39-.66-.78-.98-1.18.03-.02.05-.05.07-.08.93-.71 1.89-1.34 2.87-1.98.6-.39 1.19-.77 1.79-1.19 2.61-1.84 5.33-3.52 8.1-5.11 2.68-1.79 5.56-3.24 8.27-4.98.29-.18.36-.45.3-.69.06.05.13.09.21.12.26.24.73.35 1.04.51.63.27 1.25.57 1.89.82-.7.42-1.41.84-2.12 1.24-2.31 1.35-4.5 2.9-6.82 4.22-3.63 2-7.09 4.28-10.69 6.33h-.02zm23.14-14.01c-.68.45-1.37.89-2.08 1.33 0 0-.01 0-.02.01l-.09-.03h-.02c-1.19-.35-2.29-.96-3.44-1.42-.12-.66-.25-1.31-.39-1.96-.18-.86-.44-1.71-.57-2.58.57.27 1.11.6 1.66.9 1.9 1.07 3.77 2.23 5.73 3.2-.26.19-.53.37-.79.55h.01zm-38.46 7.46c.83-.55 1.72-1.05 2.6-1.54.02 0 .03-.02.05-.03.87-.47 1.73-.95 2.58-1.43 1.31-.75 2.61-1.52 3.89-2.33.23-.14.45-.28.68-.42.83-.53 1.65-1.08 2.45-1.64 1.09-.72 2.2-1.42 3.33-2.1 2.5-1.52 5.07-2.94 7.63-4.32 2.72-1.42 5.33-3.04 8.13-4.3.19-.08.31-.25.36-.43.04-.13.04-.27-.02-.41-.24-.55-.81-.41-1.22-.17-1.18.54-2.32 1.15-3.46 1.78-3.73 2.06-7.51 4.04-11.18 6.21-1.01.6-2.02 1.22-3.01 1.85-1.14.73-2.25 1.49-3.37 2.24-2.58 1.74-5.39 3.21-8.11 4.75-1.11.62-2.2 1.28-3.21 2.06-.27.22-.34.62-.12.9.01.02.03.02.04.03.64.64 1.35-.41 1.95-.69l.01-.01z" fill="#C8612F"/><path d="M105.839 19.94c-.56-2.58-1.36-5.1-2.19-7.6-.17-.58-.45-1.19-.46-1.82a.608.608 0 00-.29-.67c-.68-2.59-2.19-4.92-4.67-6.54-7.26-4.67-17.54-3.5-25.64-1.91-9.49 2.06-18.62 5.54-27.25 9.97-5.2 2.67-10.23 5.7-15.06 8.97C19.02 28.25 6.73 38.71 1.53 51.75.62 54.12.19 56.35.19 58.41c0 1.65.25 3.19.79 4.59.05.26.22.51.31.75.21.46.43.92.64 1.39.76 1.76 1.48 3.54 2.35 5.25a24.53 24.53 0 001.8 3.04c.11.14.24.22.37.25 2.05 2.76 5.31 4.36 8.59 5.16 6.09 1.3 13 .96 20.18-.54 20.46-4.27 43.16-17.92 55.51-29.65 6.78-6.49 13.47-13.92 16.06-23.16.06-.22 0-.45-.14-.61-.13-1.67-.47-3.31-.81-4.95v.01zM2.529 63.38c-.09-.19-.19-.39-.27-.58a.689.689 0 00-.03-.08.484.484 0 00-.07-.18c-.4-1.04-.63-2.17-.68-3.41v-.3c-.04-1.97.35-4.18 1.26-6.63 4.23-10.65 13.24-19.18 22.05-26.24 6.37-4.88 13.17-9.3 20.32-13.04C54.36 8.09 64.19 4.4 74.42 2.35 82.17.98 93.91-.12 99.7 6.32c4.14 4.91 2.07 11.9-.67 17.02-3.81 6.81-9 12.68-14.85 17.86-.55.48-1.1.96-1.65 1.43-4.22 3.57-8.73 6.82-13.28 9.82-9.23 5.87-20.72 11.73-32.39 15.07-7.17 2.05-14.4 3.16-21.23 2.74-6.3-.48-10.97-2.77-13.02-6.72-.02-.05-.04-.1-.07-.15l-.01-.01zm102.32-35.92c-.11.3-.25.6-.37.9-.84-1.57-1.54-3.22-2.25-4.86-.27-.46-.48-1.56-.99-1.86.58-1.33 1.09-2.7 1.5-4.12.18-.63.3-1.26.4-1.89.03-.16.06-.33.08-.49.05.15.09.3.14.45.99 3.27 1.86 6.59 2.07 10.02v.08c-.17.6-.36 1.19-.57 1.77h-.01zm-10.49 15.75c-.99-1.61-1.92-3.29-2.84-4.95-.29-.54-.59-1.07-.84-1.63a75.9 75.9 0 003.08-3.39c1.18 2.03 2.11 4.19 3.21 6.26.09.17.22.26.36.3-.91 1.1-1.84 2.18-2.8 3.22l-.18.18.01.01zm-8.17 7.71c-1.1-1.82-2.26-3.62-3.26-5.5.19-.47-.19-.86-.6-.97.68-.57 1.35-1.14 1.99-1.71.3-.27.59-.54.89-.81 1.37 2.11 2.49 4.37 3.79 6.52-.92.83-1.86 1.65-2.81 2.47zM61.13 67.46s0-.03-.02-.04c-.81-1.24-1.45-2.59-2.13-3.9-.47-.91-.97-1.81-1.53-2.67-.03-.06-.08-.11-.12-.17.87-.44 1.75-.89 2.61-1.35.51-.27 1.01-.55 1.52-.83 0 .02.02.03.02.05.11.23.23.46.32.7.95 2.08 2.13 4.04 3.43 5.92.02.03.05.05.08.07-1.38.76-2.78 1.5-4.18 2.2v.02zm-10.15 4.57c-.02-.06-.04-.12-.08-.18a72.28 72.28 0 01-2.28-3.5c-.39-.64-.77-1.27-1.16-1.91-.2-.27-.38-.67-.61-1 1.37-.54 2.74-1.12 4.09-1.72.23.34.45.67.62 1.05.99 1.96 2.16 3.81 3.43 5.6-1.33.58-2.67 1.14-4.01 1.67v-.01zm-11 3.7a.58.58 0 00-.09-.26c-.92-1.51-1.81-3.05-2.67-4.6-.33-.62-.71-1.21-.99-1.85.14-.04.27-.07.41-.11 1.3-.36 2.6-.77 3.9-1.19.09.24.24.46.37.69 1.14 2 2.16 4.06 3.3 6.06-1.41.46-2.82.88-4.23 1.27v-.01zm-35.53-8s.05.04.07.06c1.3 1.04 2.88 1.89 4.72 2.51.31.77.84 1.48 1.21 2.22.78 1.4 1.53 2.81 2.29 4.22-1.88-.78-3.57-1.87-4.91-3.39-.2-.25-.4-.5-.58-.76a.634.634 0 00-.34-.24c-.37-.57-.73-1.14-1.06-1.74-.49-.91-.93-1.86-1.35-2.81-.01-.02-.02-.05-.03-.07h-.02zm66.71-14.88c1.17 2.24 2.44 4.43 3.8 6.56-1.13.76-2.28 1.49-3.44 2.22-1.02-1.58-1.97-3.2-3-4.77-.36-.53-.7-1.09-1.11-1.59a.61.61 0 00-.16-.12c1.32-.8 2.61-1.62 3.86-2.44.01.05.01.09.04.14h.01zM14.53 77.39c-1.17-2.21-2.37-4.41-3.58-6.6.5.12 1 .23 1.53.32 1.33.21 2.7.33 4.09.4v.04c0 .2.1.38.25.5.3.47.55.96.8 1.46.79 1.6 1.56 3.22 2.38 4.81-1.88-.13-3.72-.42-5.45-.93h-.02zm6.74.65c-.22-.44-.45-.87-.67-1.31-.71-1.41-1.45-3.01-2.2-4.46-.13-.19-.24-.45-.37-.69 1.62.03 3.28-.04 4.96-.17.86 2.41 2.11 4.65 3.44 6.84-1.67.13-3.38.2-5.09.14 0-.12-.02-.24-.07-.35zm6.39-.22c-.83-1.35-1.61-2.74-2.34-4.14-.37-.77-.7-1.56-1-2.36 1.79-.18 3.61-.46 5.44-.8.15.19.36.34.46.58 1.23 1.94 2.23 4.11 3.26 6.2-.15.03-.3.07-.45.09-1.62.28-3.41.55-5.29.75 0-.1-.02-.21-.08-.32zm3.58-7.52s-.03-.05-.05-.08c1.27-.26 2.54-.56 3.82-.9.43 1.13 1.16 2.15 1.7 3.23.66 1.18 1.35 2.34 2.05 3.5-1.11.29-2.21.58-3.32.82-.22.05-.44.09-.66.14-1.13-2.26-2.16-4.59-3.54-6.72v.01zm14.15 3.65c-.95-1.66-1.83-3.36-2.74-5.05-.29-.54-.6-1.07-.9-1.61 1.26-.43 2.52-.88 3.77-1.36.06.09.14.16.24.21 1.34 2.1 2.58 4.28 4.02 6.34-1.45.56-2.91 1.08-4.37 1.57-.01-.03-.01-.06-.03-.1h.01zm10.75-4.1c-.02-.07-.04-.15-.1-.22-1.12-1.59-2.18-3.21-3.07-4.94-.25-.35-.48-1.05-.82-1.52 1.35-.61 2.69-1.24 4.01-1.89 1.47 2.07 2.42 4.6 3.83 6.77a112.7 112.7 0 01-3.86 1.81l.01-.01zm10.14-5.41c-1-1.45-1.93-2.96-2.74-4.53-.37-.64-.6-1.37-.99-1.99 1.27-.71 2.53-1.44 3.76-2.18v.03c.02.18.11.36.25.49.35.47.66.96.99 1.45.99 1.51 1.91 3.08 2.89 4.6-1.34.82-2.69 1.61-4.06 2.38a.766.766 0 00-.1-.23v-.02zm9.73-5.76c-.76-1.16-1.45-2.37-2.15-3.57-.54-.94-1.08-1.89-1.57-2.86a.916.916 0 00-.17-.21c1.62-1.08 3.17-2.18 4.67-3.27-.06.59.67 1.4.86 1.91.86 1.65 1.81 3.25 2.8 4.82-1.45 1.09-2.93 2.15-4.44 3.18zm4.74-5.11c-.49-.81-.97-1.63-1.42-2.46-.44-.81-.88-1.62-1.31-2.44a.672.672 0 00-.52-.43c1.4-1.04 2.73-2.09 4-3.13.05.67.51 1.27.8 1.86.94 1.61 1.92 3.2 2.89 4.79a120.68 120.68 0 01-3.72 2.96c-.24-.39-.49-.77-.73-1.16l.01.01zm6.24-11.21c-.26-.44-.54-.88-.82-1.31 1.21-1.12 2.4-2.27 3.57-3.45 1.12 2.24 2.4 4.4 3.68 6.54l.01.01a93.365 93.365 0 01-3.48 3.4c-1.01-1.72-1.94-3.48-2.96-5.19zm11.09-3.49c-.62-1.16-1.18-2.36-1.76-3.54-.45-.9-.91-1.79-1.41-2.66-.1-.15-.18-.32-.28-.48.98-1.2 1.9-2.43 2.77-3.69.46.83.91 1.67 1.38 2.49.56.99 1.14 1.98 1.73 2.95.09.15.21.26.37.31.21.08.42.02.58-.11a52.39 52.39 0 01-3.39 4.74l.01-.01zm3.63-5.1c.04-.14.03-.29-.05-.43-1.22-1.98-2.31-4.03-3.46-6.04.07-.11.14-.21.2-.32.81-1.29 1.56-2.61 2.22-3.98.95 2.18 1.84 4.39 3 6.47.07.13.17.21.28.26-.64 1.39-1.37 2.73-2.18 4.03l-.01.01z" fill="#C8612F"/></g><defs><clipPath id="clip0_1259_4818"><path fill="#fff" d="M0 0h107v80H0z"/></clipPath></defs></svg>