<svg width="114" height="110" viewBox="0 0 114 110" fill="none" xmlns="http://www.w3.org/2000/svg"><g clip-path="url(#clip0_1259_4879)"><path d="M80.51 56.59s.06-.1.1-.15l-.31-.31c.08.16.15.31.21.46zM67.63 12.5c.86.55.45 1.99-.56 2.06.71.72.06 2.04-.94 1.91-1.78-.61-3.28-1.95-5.01-2.71-.08.02-.15.01-.23.01 6.98 3.82 13.63 8.77 19.56 14.3-.36-.68-.38-1.35.47-1.9.19-.68 1.12-1.03 1.7-.6 1.11.89 2.05 1.97 3.05 2.98-1.36-1.62-2.89-3.09-4.39-4.57-.46-.5-.3-1.17.1-1.56-4.71-4.03-9.77-7.68-15.04-10.77.42.29.85.58 1.28.85h.01zM53.58 81.75c.38.24.76.46 1.14.69-.41-.26-.81-.52-1.21-.78.02.03.05.06.07.09zm58.32-10.7c-.19-1.44-.47-2.87-.8-4.29.17.9.33 1.8.45 2.71 0 .56.18 1.07.35 1.58zm-5.12-16.41c-.09-.2-.19-.4-.29-.6v.07c.1.18.18.36.28.53h.01zM65.19 64.2c-.27-.25-.54-.49-.81-.74.26.25.53.5.81.74zm6.4 32.68c.84.27 1.69.52 2.54.75a.495.495 0 01-.04-.13c-.84-.18-1.67-.39-2.5-.62zm-14.31-65.2c.05.05.11.1.16.16 0-.05-.01-.09 0-.14-.12-.05-.22-.12-.31-.18 0 .02.02.05.03.07.04.02.09.05.13.09h-.01zm43.249 22.4c.04.08.08.16.12.25a5.92 5.92 0 01-.12-.25zM81.27 58.04c.13-.16.25-.33.38-.49l-.04-.04c-.11.18-.22.35-.34.53z" fill="#F9BA55"/><path d="M97.18 89.96c-.31-.51.14-.95.57-1.17 6.97-4.56 7.85-13.66 6.19-21.17-5.57-24.71-31.51-49.36-54.97-57.64-10.24-3.68-25.48-5.37-31.31 6.04-4.87 10.42.6 23.69 6.01 32.91C35.42 69.02 63.72 92.82 88.06 91.8c2.01-.14 3.93-.48 5.81-1.12.75-.26 1.48-.56 2.1-.87.38-.26.94-.32 1.2.14.1.17.11.38.06.57.17-.07.34-.15.5-.23a.7.7 0 01-.55-.34v.01zm2.71-12.65c.55-2.04 3.73-1.16 3.15.87-.34 1.91-2.26 5.39-4.08 2.6-.48-1.25.77-2.26.93-3.47zM46.97 11.2c-.13-.12-.27-.21-.43-.28 1.06.51 2.55.68 3.13 1.81.6 1.27-.87 2.76-2.14 2.14-5.76-1.6-2.68-5.26-.56-3.67zm-23.28 6.99c-.23.83-.97 1.55-1.89 1.4-2.79-.7-.68-3.9.58-5.15 2.16-2.18 5.12-3.36 8.07-4.05 2.14-.29 8.69-2.15 9.07.99 0 .86-.74 1.67-1.63 1.63-4.94-.15-11.39.57-14.19 5.18h-.01zm50.84 60.2c-.32.35-.64.91-1.19.81a.644.644 0 01-.27-.11c-.23.17-.55.2-.86-.05-4.81-3.69-9.05-8.05-13.53-12.13-5.9-5.54-11.72-11.34-17.32-17.16-1.81-1.9-3.9-3.58-5.55-5.57-.19-.26-.14-.59.04-.82-.09-.55.63-1.01.91-1.47.71-.91 1.42-1.82 2.14-2.72 2.4-2.89 4.77-5.8 7.24-8.63 2.38-2.72 4.69-5.51 7.03-8.27.44-.42.9-1.38 1.54-1.3.23-.08.5-.04.73.2 3.07 3.03 6.3 5.88 9.37 8.9 5.23 5.23 10.5 10.42 15.92 15.46 2.2 2.08 4.31 4.26 6.43 6.42 1.26 1.23 2.6 2.37 3.86 3.6.34.31.29.73.06 1 .02.17-.03.35-.17.52-2.37 3.06-4.78 6.01-7.22 9.01-2.27 2.87-4.39 5.86-6.5 8.84-.82 1.21-1.7 2.37-2.66 3.47zM93.07 89.6c-2.85 1.26-5.99 1.26-9.04 1.22-2.11.02-2.12-3.28 0-3.27 1.82 0 3.65.08 5.45-.25 4.09-.38 7.01-5.04 8.66-3.19 1.93 2.65-3.26 4.53-5.07 5.48v.01z" fill="#F9BA55"/><path d="M60.81 43.62s.1.09.15.13c-.04-.05-.09-.09-.13-.14h-.02v.01zM19.57 54.75c.19.31.39.62.58.92-.16-.27-.32-.55-.47-.82-.04-.03-.08-.07-.12-.1h.01z" fill="#F9BA55"/><path d="M37.88 13c.89.04 1.63-.77 1.63-1.63-.37-3.13-6.92-1.28-9.07-.99-2.95.69-5.9 1.87-8.07 4.05-1.26 1.25-3.37 4.44-.58 5.15.92.15 1.66-.56 1.89-1.4 2.8-4.61 9.25-5.33 14.19-5.18h.01zm9.64 1.87c1.27.62 2.74-.87 2.14-2.14-.58-1.13-2.07-1.3-3.13-1.81.16.07.3.16.43.28-2.13-1.59-5.2 2.08.56 3.67zm50.62 69.25c-1.66-1.85-4.57 2.8-8.66 3.19-1.8.32-3.63.24-5.45.25-2.12-.02-2.11 3.28 0 3.27 3.06.04 6.2.04 9.04-1.22 1.81-.96 7-2.84 5.07-5.48v-.01zm4.901-5.94c.59-2.03-2.6-2.91-3.15-.87-.16 1.21-1.41 2.22-.93 3.47 1.82 2.78 3.74-.69 4.08-2.6z" fill="#FFCF83"/><path d="M61.11 103.86c.8-1.1 1.63-2.19 2.46-3.27.92-1.23 1.88-2.43 2.71-3.73 0-.13.05-.25.11-.36-1.19-.47-2.36-.96-3.53-1.49-.24.3-.64.56-.84.84-.91 1.06-1.77 2.16-2.62 3.26-.82 1.06-1.61 2.13-2.38 3.22 1.31.58 2.65 1.13 4.02 1.65.02-.04.03-.09.06-.13l.01.01zM15.98 65.59c.79-1.16 1.56-2.32 2.35-3.48.68-1.01 1.39-2 2.11-2.98.05-.07.11-.11.17-.15-.87-1.26-1.72-2.54-2.52-3.84-.15.25-.31.49-.47.73-.86 1.27-1.78 2.5-2.71 3.73-.86 1.14-1.7 2.29-2.53 3.47-.02.04-.04.07-.06.11a84.23 84.23 0 002.6 3.96c.36-.51.71-1.03 1.06-1.54v-.01zm-2.42-6.57c1.29-1.72 2.65-3.42 3.7-5.3-.64-1.09-1.27-2.19-1.86-3.31-.17.15-.33.3-.44.46.03-.03.04-.04.06-.07-.91 1-1.71 2.03-2.52 3.12-.75 1-1.48 2.02-2.19 3.05-.22.32-.7.35-1 .12-.31-.23-.36-.69-.12-1 1.49-2.11 3.01-4.27 4.74-6.19.21-.22.49-.56.78-.82-.77-1.52-1.49-3.07-2.14-4.64l-.04.04c-1.92 2.27-3.47 4.82-5.2 7.23l-.55.76c1.33 3.19 2.93 6.31 4.74 9.37.67-.95 1.34-1.89 2.04-2.81v-.01zm14.45 17.83c.89-1.22 1.85-2.38 2.81-3.53.26-.24.48-.67.76-.96-.91-.93-1.79-1.87-2.66-2.82-.24-.28-.48-.56-.73-.84-.42.83-.98 1.58-1.49 2.35-.65.97-1.41 2.05-2.03 2.97-.65.96-1.31 1.93-1.92 2.92.98 1.09 1.98 2.16 3.01 3.2.73-1.11 1.47-2.21 2.25-3.28v-.01zm20.23 13.12c.49-.59.98-1.18 1.45-1.8.08-.1.15-.2.21-.32.02-.03.04-.04.06-.07a93.98 93.98 0 01-3.319-2.32c-.2.34-.49.65-.72.96l-1.41 1.71c-.96 1.17-1.91 2.34-2.84 3.53-.32.41-.65.83-.96 1.25 1.13.81 2.27 1.59 3.42 2.34 1.28-1.84 2.7-3.57 4.12-5.29l-.01.01zM7.58 40.45c.85-1.16 1.52-2.46 2.42-3.58-.46-1.7-.83-3.41-1.12-5.15-1.32 2.19-2.84 4.25-4.34 6.31-.49.66-.98 1.33-1.47 2 .31 1.74.7 3.48 1.19 5.2 1.1-1.6 2.22-3.18 3.32-4.78zm27.31 48.04c.49-.74.97-1.47 1.46-2.19 1.07-1.57 2.16-3.13 3.29-4.66.24-.26.49-.71.78-1.04-1.25-1.05-2.46-2.12-3.66-3.22-1.78 2.31-3.48 4.71-5.22 7.06-.21.37-.73.45-1.05.19-.32-.25-.34-.68-.12-1 .87-1.22 1.78-2.43 2.67-3.63.9-1.19 1.74-2.43 2.65-3.61-1.06-.99-2.09-2-3.1-3.01-.09.13-.19.26-.29.37-.65.8-1.32 1.58-1.96 2.38-.83 1.04-1.6 2.12-2.35 3.21-.41.6-.81 1.21-1.21 1.82 2.6 2.59 5.32 5.04 8.11 7.32v.01zm20.44 2.65a90.7 90.7 0 01-4.2-2.57c-.05.12-.12.23-.21.32-.66.89-1.39 1.72-2.08 2.58-.97 1.17-1.92 2.36-2.83 3.58-.23.25-.44.67-.7.98 1.47.94 2.95 1.82 4.42 2.65.04-.08.09-.16.15-.23 1.69-2.45 3.4-4.88 5.31-7.16.04-.06.09-.11.14-.16v.01zM2.75 38.06c1.28-1.73 2.55-3.48 3.77-5.26.59-.87 1.14-1.77 1.67-2.68.09-.16.24-.26.4-.31-.11-.85-.21-1.71-.28-2.57a40.7 40.7 0 01-.06-1.53 167.61 167.61 0 00-4.1 5.52c-.46.52-.89 1.78-1.74 1.33-.02 1.07 0 2.14.08 3.21.07.76.16 1.52.27 2.28l-.01.01zm78.9 66.32c.94-1.16 1.89-2.3 2.84-3.45-1.8-.17-3.59-.41-5.36-.73a.66.66 0 01-.27.63c-1.09 1.02-1.82 2.38-2.72 3.57-.73 1.04-1.48 2.05-2.23 3.08 1.66.25 3.31.41 4.96.47.88-1.22 1.84-2.38 2.77-3.56l.01-.01zm-6.39-1.19c.83-1.09 1.51-2.33 2.52-3.27-1.53-.32-3.06-.68-4.57-1.11-.19.25-.43.49-.58.72-.7.88-1.42 1.75-2.14 2.61-.96 1.14-1.89 2.3-2.78 3.49-.1.14-.21.3-.32.44 1.67.46 3.37.85 5.06 1.16.02-.11.06-.22.13-.32.89-1.24 1.81-2.47 2.69-3.72h-.01zm-13.95-8.65c.05-.06.11-.11.16-.17-1.61-.76-3.2-1.58-4.77-2.45-.1.12-.24.21-.39.25-1.85 2.2-3.61 4.7-5.22 7.02-.03.06-.07.12-.11.18.46.25.91.5 1.37.73 1.09.56 2.22 1.11 3.37 1.64.87-1.26 1.79-2.49 2.73-3.7.93-1.18 1.84-2.39 2.86-3.5zM2.97 27.36c-.25 1.23-.38 2.48-.47 3.74.8-1.12 1.59-2.26 2.41-3.37.9-1.22 1.83-2.42 2.75-3.62.22-.25.41-.54.62-.8.13-2.73.58-5.22 1.31-7.46-1.42 1.98-2.81 3.98-4.12 6.04-.67 1-1.23 2.08-1.89 3.09-.24.79-.45 1.59-.62 2.4l.01-.02zM26.7 68.49c.03-.34.31-.66.63-.79-.74-.87-1.48-1.76-2.2-2.66-.03.03-.05.06-.08.09-.74.88-1.46 1.76-2.17 2.66-.92 1.16-1.84 2.32-2.74 3.5-.34.35-.65 1.05-1.09 1.32.88 1.09 1.79 2.18 2.72 3.24.63-.99 1.29-1.96 1.94-2.93.99-1.48 2.04-2.92 2.99-4.43zm61.99 34.87c.61-.79 1.23-1.57 1.84-2.37-1.45.1-2.95.12-4.49.04 0 .27-.14.54-.38.71-.96 1.16-1.92 2.31-2.87 3.48-.72.91-1.45 1.82-2.16 2.75 1.89-.02 3.76-.18 5.6-.5-.2-.25-.21-.6-.01-.87.8-1.09 1.63-2.17 2.47-3.23v-.01zm-65-38.82c.18-.17.35-.43.53-.67-.95-1.22-1.88-2.45-2.77-3.71-1.44 1.95-2.78 4-4.14 6-.44.65-.88 1.3-1.33 1.95a.52.52 0 01-.21.18c.79 1.09 1.59 2.17 2.43 3.24.86-1.16 1.75-2.31 2.65-3.44.94-1.19 1.88-2.38 2.85-3.54l-.01-.01zM69 101.7c.92-1.1 1.84-2.2 2.72-3.32a68.96 68.96 0 01-3.98-1.35c-.02.14-.07.28-.15.41-1.45 2.29-3.22 4.36-4.81 6.55-.11.15-.23.33-.36.5 1.19.43 2.39.82 3.6 1.19.02-.12.05-.23.13-.34.91-1.25 1.87-2.46 2.85-3.64zm27.42-.9c.29-.35.53-.7.78-1.02-1.55.47-3.18.83-4.9 1.05-.07.32-.33.65-.56.91-.61.81-1.24 1.6-1.87 2.4-.79 1.01-1.58 2.03-2.34 3.06 1.83-.41 3.63-.99 5.36-1.77.02-.09.06-.18.12-.26 1.12-1.47 2.28-2.91 3.4-4.38l.01.01zM7.66 48.77c.86-1.23 1.69-2.47 2.59-3.68.55-.73 1.1-1.47 1.76-2.09a61.83 61.83 0 01-1.53-4.4c-.59.88-1.12 1.8-1.74 2.66-1.2 1.77-2.46 3.5-3.66 5.27-.07.15-.2.26-.33.35.42 1.36.89 2.71 1.41 4.05.5-.71 1-1.43 1.5-2.15v-.01zM45.45 84.6c-1.33-1-2.63-2.02-3.91-3.07-.66.8-1.26 1.64-1.87 2.48-.81 1.13-1.6 2.29-2.39 3.44-.43.64-.86 1.29-1.28 1.93 1.17.93 2.35 1.85 3.55 2.72.36-.49.73-.96 1.1-1.44 1.4-1.79 2.86-3.53 4.3-5.29.2-.24.38-.48.5-.77zm55.29 14.59c.44-.48.88-.95 1.32-1.42-.99.54-2.04 1.01-3.13 1.43.19.28.2.69-.15.97-1.04 1.2-1.99 2.46-2.95 3.72.14-.12.29-.24.43-.36 1.66-1.35 3.09-2.74 4.49-4.33l-.01-.01zM48.79 45.63c1.01-1.02 2.03-2.03 3-3.09 1.07-1.19 2.17-2.35 3.27-3.5.19-1.22.37-2.44.54-3.57.08-.58.16-1.16.23-1.75-.53.66-1.06 1.3-1.6 1.94-.92 1.09-1.92 2.11-2.92 3.13-1.36 1.4-2.68 2.85-3.85 4.42-.33.4-.58.86-.89 1.27.57.56 1.14 1.12 1.7 1.68.18-.17.37-.34.52-.53zm24.03 3.17c-5.14-5.09-10.43-10.04-15.56-15.15-.21 1.93-.54 3.85-.82 5.77 0 .03-.01.07-.03.1.16.06.32.2.45.43 1.29 1.26 2.62 2.47 3.96 3.67h.02c.04.05.09.09.13.14 3.09 2.77 6.26 5.46 9.27 8.32 2.72 2.67 5.45 5.37 7.87 8.31.28-.42.55-.84.81-1.28.52-.84 1.05-1.69 1.59-2.52-.06-.15-.13-.31-.21-.46-2.43-2.51-5-4.87-7.48-7.33z" fill="#E99547"/><path d="M81.28 23.98c1.51 1.48 3.03 2.95 4.39 4.57-1-1-1.94-2.09-3.05-2.98-.58-.43-1.52-.08-1.7.6-.85.55-.84 1.22-.47 1.9 7.86 7.32 14.47 15.66 18.93 23.78.39.73.769 1.48 1.149 2.24.04.08.08.16.12.25 4.03 8.15 6.99 17.55 4.53 26.49-.28.97-.65 1.92-1.1 2.82-1.33 2.67-3.37 4.98-5.91 6.56-.13.08-.28.1-.42.08-.17.08-.33.15-.5.23-.05.17-.15.32-.31.4-5.8 2.95-12.63 2.76-18.86 1.48-8.09-1.81-15.99-5.32-23.34-9.97l-1.14-.69c-.02-.03-.05-.06-.07-.09-11.67-7.63-21.88-18.06-29.14-28.94-5.91-9.22-11.04-20.08-9.78-31.3 1.4-10.98 10.55-16.17 21-15.61 8.46.51 17.1 3.46 25.3 7.95.08 0 .15 0 .23-.01 1.73.77 3.23 2.1 5.01 2.71 1.01.14 1.66-1.18.94-1.91 1.01-.07 1.42-1.5.56-2.06-.43-.27-.86-.56-1.28-.85C55.24 5.12 43.21 1.15 31.73 1.67c-10.84.61-19.58 6.78-21.56 17.8-1.96 11.93 2.71 24.49 9.42 35.26.04.03.08.07.12.1.15.28.31.55.47.82 2.86 4.48 6.06 8.63 9.25 12.27 10.59 11.93 25.89 23.74 42.19 28.93.83.23 1.66.44 2.5.62.01.04.02.09.04.13 5.35 1.46 10.79 2.19 16.19 1.95 10.61-.63 19.25-6.59 21.38-17.36.71-3.71.71-7.46.21-11.16-.18-.51-.35-1.02-.35-1.58-.12-.91-.27-1.81-.45-2.71-.98-4.18-2.52-8.26-4.32-12.12-.09-.18-.18-.36-.28-.53v-.07c-.17-.37-.35-.73-.53-1.1-5.2-10.53-13.99-21.47-24.58-30.54-.41.4-.56 1.06-.1 1.56l-.05.04z" fill="#FFCE80"/><path d="M74.81 75.81a540.3 540.3 0 016.58-9.11c2.22-2.89 4.67-5.66 6.86-8.55.48-.63.98-1.25 1.47-1.87-.87-.82-1.76-1.63-2.64-2.43-2.6-2.51-5.02-5.15-7.66-7.6-4.99-4.63-9.88-9.43-14.68-14.24-2.76-2.79-5.72-5.38-8.53-8.12-.46-.45-.93-.88-1.39-1.33-4.63 5.46-9.31 10.87-13.89 16.37-.96 1.15-1.87 2.33-2.79 3.5-.28.29-.59.84-.95 1.19.17.22.33.44.49.56 3.75 3.55 7.33 7.28 10.93 10.98 4.36 4.3 8.72 8.6 13.23 12.74 2.24 2.05 4.41 4.18 6.66 6.21 1.48 1.31 3.01 2.57 4.57 3.79.61-.68 1.18-1.39 1.74-2.1v.01zm-4.61-6.93c-1.65-1.58-3.33-3.13-5.01-4.68-.27-.24-.54-.49-.81-.74l-4.02-3.69c-4.91-4.71-9.86-9.39-14.7-14.18-.44-.38-1.01-.98-.43-1.51.05-.04.1-.07.15-.1 0-.25.14-.52.3-.72.65-.97 1.4-1.87 2.14-2.77 1.36-1.63 2.9-3.08 4.34-4.64 1.32-1.46 2.55-3 3.76-4.55.33-.42 1.02-.25 1.2.21.09.07.19.13.31.18v.14c5.41 5.41 10.95 10.58 16.4 15.98 3.09 3.07 6.34 5.98 9.26 9.22.59.7-.42 1.63-1.07.93-.13-.14-.25-.28-.38-.42-.13.16-.25.33-.38.49-.75 1.19-1.5 2.39-2.29 3.56.08.39-.22.75-.58.83-.46.65-.95 1.29-1.47 1.91-.85 1.08-1.71 2.16-2.57 3.24-.43.54-.86 1.09-1.34 1.6-.3.42-.94.71-1.35.24-.02-.02-.03-.04-.05-.06a.689.689 0 01-.22-.83c-.03 0-.05-.02-.08-.02-.12.45-.66.79-1.14.39l.03-.01z" fill="#FFCE80"/><path d="M71.34 68.5c.06-.23.02-.48-.21-.68-2.74-2.58-5.46-5.17-8.28-7.66-4.56-4.3-9.09-8.63-13.57-13.01.09-.11.19-.22.3-.3 2.06-2.03 3.99-4.17 5.97-6.27.05.11.14.22.25.33 3.26 3.22 6.8 6.12 10.19 9.2 3.97 3.61 7.87 7.34 11.27 11.5-.08.11-.16.21-.24.32-1.25 1.63-2.56 3.25-3.85 4.87-.35.44-.7.88-1.07 1.29a.696.696 0 00-.69.44c-.11.28-.07.62.22.83.01.02.03.04.05.06.41.46 1.04.18 1.35-.24.47-.51.9-1.06 1.34-1.6.86-1.08 1.72-2.15 2.57-3.24.52-.62 1-1.26 1.47-1.91.36-.08.65-.44.58-.83.79-1.17 1.54-2.37 2.29-3.56.11-.18.22-.36.34-.53l.04.04c.13.14.25.28.38.42.64.69 1.66-.24 1.07-.93-2.92-3.23-6.17-6.15-9.26-9.22-5.46-5.41-10.99-10.57-16.4-15.98-.05-.05-.11-.1-.16-.16a.508.508 0 00-.13-.09c0-.03-.02-.05-.03-.07-.18-.46-.87-.64-1.2-.21-1.21 1.55-2.44 3.09-3.76 4.55-1.44 1.55-2.99 3.01-4.34 4.64-.75.9-1.49 1.8-2.14 2.77-.16.21-.3.47-.3.72-.05.03-.1.06-.15.1-.58.53 0 1.13.43 1.51 4.84 4.79 9.79 9.47 14.7 14.18l4.02 3.69c.27.25.54.49.81.74 1.68 1.55 3.36 3.1 5.01 4.68.48.4 1.03.07 1.14-.39h-.01zM46.56 44.48c.31-.41.56-.87.89-1.27 1.17-1.56 2.49-3.02 3.85-4.42 1-1.02 2-2.04 2.92-3.13.54-.64 1.08-1.29 1.6-1.94-.07.58-.15 1.17-.23 1.75-.16 1.13-.35 2.35-.54 3.57-1.1 1.15-2.2 2.31-3.27 3.5-.97 1.06-1.99 2.07-3 3.09-.15.18-.34.35-.52.53-.57-.56-1.14-1.12-1.7-1.68zm33.95 12.11c-.54.83-1.07 1.67-1.59 2.52-.26.43-.53.86-.81 1.28-2.43-2.95-5.15-5.64-7.87-8.31-3.01-2.86-6.18-5.55-9.27-8.32-.05-.04-.1-.09-.15-.13-1.34-1.2-2.67-2.41-3.96-3.67-.13-.23-.29-.37-.45-.43l.03-.1c.28-1.92.61-3.84.82-5.77 5.13 5.1 10.42 10.05 15.56 15.15 2.48 2.46 5.05 4.82 7.48 7.33l.31.31c-.03.05-.06.1-.1.15v-.01z" fill="#C8612F"/><path d="M90.91 57.07c.14-.17.19-.35.17-.52.23-.27.28-.69-.06-1-1.26-1.23-2.6-2.37-3.86-3.6-2.12-2.17-4.23-4.34-6.43-6.42-5.42-5.03-10.69-10.23-15.92-15.46-3.08-3.02-6.31-5.88-9.37-8.9-.23-.24-.5-.28-.73-.2-.64-.08-1.1.88-1.54 1.3-2.34 2.76-4.65 5.55-7.03 8.27-2.47 2.82-4.84 5.74-7.24 8.63-.72.9-1.43 1.81-2.14 2.72-.28.46-1 .92-.91 1.47-.18.23-.23.56-.04.82 1.65 1.99 3.75 3.67 5.55 5.57 5.6 5.82 11.42 11.62 17.32 17.16 4.48 4.08 8.72 8.43 13.53 12.13.3.25.63.21.86.05.08.06.17.09.27.11.55.1.86-.45 1.19-.81.96-1.1 1.84-2.26 2.66-3.47 2.11-2.99 4.24-5.97 6.5-8.84 2.44-3 4.85-5.95 7.22-9.01zM68.5 74.12c-2.25-2.04-4.42-4.16-6.66-6.21-4.51-4.14-8.87-8.44-13.23-12.74-3.6-3.71-7.17-7.43-10.93-10.98-.16-.12-.32-.35-.49-.56.36-.35.67-.9.95-1.19.92-1.18 1.84-2.36 2.79-3.5 4.58-5.5 9.26-10.91 13.89-16.37.46.44.93.88 1.39 1.33 2.81 2.74 5.77 5.32 8.53 8.12 4.8 4.81 9.7 9.61 14.68 14.24 2.63 2.44 5.06 5.09 7.66 7.6.89.81 1.77 1.61 2.64 2.43-.49.62-.99 1.24-1.47 1.87-2.19 2.89-4.64 5.66-6.86 8.55a489.38 489.38 0 00-6.58 9.11c-.56.71-1.13 1.42-1.74 2.1a97.656 97.656 0 01-4.57-3.79v-.01z" fill="#C8612F"/><path d="M14.59 21.42c-1.26 11.22 3.86 22.08 9.78 31.3 7.26 10.88 17.47 21.31 29.14 28.94.4.26.8.53 1.21.78 7.35 4.64 15.25 8.16 23.34 9.97 6.23 1.28 13.06 1.47 18.86-1.48.16-.08.26-.23.31-.4a.71.71 0 00-.06-.57c-.26-.45-.82-.4-1.2-.14-.62.31-1.35.61-2.1.87-1.89.64-3.8.98-5.81 1.12-24.34 1.02-52.65-22.78-64.39-42.87-5.41-9.22-10.87-22.49-6.01-32.91 5.83-11.42 21.08-9.72 31.31-6.04 23.46 8.29 49.4 32.93 54.971 57.64 1.66 7.51.78 16.61-6.19 21.17-.43.22-.87.66-.57 1.17.11.19.33.31.55.34.15.02.29 0 .42-.08 2.54-1.58 4.58-3.89 5.91-6.56v-.01c.45-.91.82-1.85 1.1-2.82 2.46-8.94-.5-18.34-4.53-26.49a5.92 5.92 0 01-.12-.25c-.38-.76-.76-1.51-1.15-2.24-4.46-8.12-11.07-16.46-18.93-23.78-5.94-5.53-12.59-10.47-19.56-14.3-8.19-4.49-16.83-7.44-25.3-7.95-10.45-.56-19.6 4.63-21 15.61l.02-.02z" fill="#C8612F"/><path d="M92.97 31.69C80 17.46 63.37 5.63 44.38 1.33c-13.14-3-25.52-.26-31.82 8.59-.18 0-.37.09-.52.28-1.83 2.11-3.31 4.51-4.98 6.75-1.26 1.84-2.51 3.69-3.67 5.59-.25.42-.49.85-.75 1.27-.4.28-.47 1.03-.63 1.48-.59 2.13-.9 4.33-1 6.54v.04c0 .23-.02.46-.02.69v.22c-.03 2.03.12 4.05.4 6.06.05.32.12.64.18.96-.03.17 0 .35.09.5.73 3.97 1.93 7.97 3.55 11.93-.02.03-.04.05-.06.08-.23.31-.19.75.12 1 .13.1.29.14.44.14 5.76 13.4 16.15 26.33 28.51 36.38.03.21.15.41.33.52.13.08.27.09.41.08 13.12 10.48 28.36 17.7 42.6 18.83 5.9.41 12.06-.35 17.3-3.21.67.23 1.38-.79 1.93-1.13 3.03-2.42 5.58-5.36 8.15-8.25.72-.84 1.36-1.76 2.18-2.51.29-.2.56-.49.59-.82 4.11-4.51 6.34-10.87 5.93-18.74-1.04-16.28-10.12-30.93-20.67-42.9v-.01zm13 21.26c.18.36.35.73.53 1.1.1.2.19.4.29.6 1.8 3.86 3.33 7.94 4.32 12.12.33 1.42.61 2.85.8 4.29.5 3.7.5 7.44-.21 11.16-2.13 10.77-10.77 16.73-21.38 17.36-5.4.25-10.83-.48-16.19-1.95-.85-.23-1.69-.48-2.54-.75-16.3-5.19-31.6-17-42.19-28.93-3.19-3.64-6.38-7.8-9.25-12.27-.2-.31-.39-.61-.58-.92-6.7-10.77-11.38-23.33-9.42-35.26C12.13 8.48 20.87 2.3 31.71 1.7c11.48-.52 23.51 3.45 34.64 9.96 5.27 3.08 10.33 6.74 15.04 10.77 10.6 9.07 19.38 20.01 24.58 30.54v-.02zm-9.72 50.57c-.14.12-.29.24-.43.36.96-1.26 1.92-2.53 2.95-3.72.35-.27.35-.68.15-.97 1.09-.41 2.14-.88 3.13-1.43-.44.47-.88.95-1.32 1.42-1.4 1.59-2.82 2.98-4.49 4.33l.01.01zm-8.71 3.69c.76-1.03 1.55-2.05 2.34-3.06.62-.8 1.25-1.6 1.87-2.4.22-.26.48-.59.56-.91 1.71-.22 3.34-.58 4.9-1.05-.26.32-.5.67-.78 1.02-1.12 1.47-2.28 2.91-3.4 4.38-.06.08-.1.17-.12.26-1.74.78-3.53 1.36-5.36 1.77l-.01-.01zm-20.16-1.14c.11-.14.22-.3.32-.44.9-1.19 1.83-2.35 2.78-3.49.72-.86 1.45-1.73 2.14-2.61.15-.22.39-.46.58-.72 1.51.43 3.03.79 4.57 1.11-1 .94-1.69 2.18-2.52 3.27-.88 1.25-1.79 2.48-2.69 3.72-.07.1-.11.21-.13.32-1.7-.31-3.39-.7-5.06-1.16h.01zm-15.03-5.96c-.45-.24-.91-.49-1.37-.73.04-.06.08-.12.11-.18 1.61-2.32 3.37-4.82 5.22-7.02.16-.03.29-.12.39-.25 1.57.87 3.15 1.69 4.77 2.45-.06.06-.11.12-.16.17-1.02 1.11-1.93 2.31-2.86 3.5-.93 1.22-1.86 2.44-2.73 3.7-1.15-.53-2.28-1.08-3.37-1.64zM19.06 72.6c.44-.27.75-.97 1.09-1.32.9-1.18 1.82-2.34 2.74-3.5.71-.9 1.43-1.78 2.17-2.66.03-.03.05-.06.08-.09.72.9 1.46 1.78 2.2 2.66-.32.13-.6.45-.63.79-.95 1.51-1.99 2.95-2.99 4.43-.66.96-1.31 1.94-1.94 2.93-.93-1.06-1.83-2.14-2.72-3.24zM5.48 21.88c1.31-2.05 2.7-4.06 4.12-6.04-.74 2.24-1.18 4.73-1.31 7.46-.22.26-.4.55-.62.8-.92 1.21-1.85 2.4-2.75 3.62-.82 1.11-1.61 2.24-2.41 3.37.09-1.25.23-2.5.47-3.74.17-.81.37-1.61.62-2.4.66-1.01 1.22-2.08 1.89-3.09l-.01.02zm80.75 85.59c-1.84.32-3.71.48-5.6.5.71-.92 1.43-1.84 2.16-2.75.95-1.17 1.91-2.32 2.87-3.48.24-.17.38-.44.38-.71 1.54.08 3.04.06 4.49-.04-.6.8-1.23 1.58-1.84 2.37-.83 1.07-1.67 2.14-2.47 3.23-.2.27-.18.62.01.87v.01zm-36.5-8.79a93.85 93.85 0 01-4.42-2.65c.26-.31.47-.73.7-.98.91-1.22 1.86-2.41 2.83-3.58.69-.86 1.43-1.69 2.08-2.58.09-.09.16-.21.21-.32 1.38.89 2.78 1.75 4.2 2.57-.05.05-.1.1-.14.16-1.91 2.28-3.62 4.72-5.31 7.16-.06.07-.11.15-.15.23v-.01zM39.55 92.1c-1.19-.87-2.37-1.78-3.55-2.72a151.698 151.698 0 013.67-5.37c.61-.83 1.21-1.68 1.87-2.48 1.28 1.05 2.58 2.08 3.91 3.07-.12.28-.3.53-.5.77-1.44 1.76-2.9 3.5-4.3 5.29-.37.47-.75.95-1.1 1.44zM15.76 68.29c.08-.04.15-.1.21-.18.45-.65.89-1.29 1.33-1.95 1.36-2 2.7-4.05 4.14-6 .9 1.26 1.83 2.49 2.77 3.71-.18.24-.35.5-.53.67-.97 1.16-1.91 2.35-2.85 3.54-.9 1.14-1.79 2.28-2.65 3.44-.83-1.06-1.64-2.15-2.43-3.24l.01.01zM2.41 32.56c.84.45 1.27-.81 1.74-1.33 1.33-1.86 2.7-3.71 4.1-5.52.01.5.03 1.01.06 1.53.07.86.17 1.72.28 2.57-.16.05-.31.15-.4.31-.52.91-1.07 1.81-1.67 2.68-1.22 1.78-2.49 3.52-3.77 5.26-.1-.76-.2-1.52-.27-2.28-.07-1.07-.1-2.14-.08-3.21l.01-.01zm2.13 5.47c1.5-2.06 3.02-4.13 4.34-6.31.29 1.74.66 3.46 1.12 5.15-.9 1.12-1.58 2.42-2.42 3.58-1.1 1.6-2.23 3.18-3.32 4.78a56.51 56.51 0 01-1.19-5.2c.49-.66.98-1.33 1.47-2zm.54 8.49c1.21-1.77 2.46-3.5 3.66-5.27.62-.85 1.15-1.78 1.74-2.66.45 1.48.97 2.95 1.53 4.4-.66.63-1.22 1.37-1.76 2.09-.89 1.2-1.73 2.45-2.59 3.68-.49.72-.99 1.43-1.5 2.15-.52-1.34-.99-2.69-1.41-4.05.14-.08.26-.2.33-.35v.01zm2.26 5.19c1.73-2.41 3.29-4.96 5.2-7.23l.04-.04c.65 1.57 1.38 3.11 2.14 4.64-.3.26-.57.6-.78.82-1.73 1.92-3.25 4.08-4.74 6.19-.23.3-.19.76.12 1 .29.23.78.2 1-.12.72-1.03 1.45-2.04 2.19-3.05.81-1.08 1.61-2.11 2.52-3.12-.02.03-.03.04-.06.07.1-.16.27-.31.44-.46.59 1.12 1.21 2.22 1.86 3.31-1.06 1.88-2.42 3.58-3.7 5.3-.7.92-1.37 1.87-2.04 2.81-1.81-3.05-3.41-6.18-4.74-9.37.18-.25.37-.5.55-.76v.01zm5.06 11.34c.82-1.17 1.66-2.33 2.53-3.47.93-1.23 1.85-2.46 2.71-3.73.16-.24.32-.48.47-.73.8 1.3 1.65 2.58 2.52 3.84-.06.04-.13.09-.17.15-.72.98-1.43 1.97-2.11 2.98-.79 1.16-1.57 2.32-2.35 3.48-.35.51-.7 1.02-1.06 1.54-.91-1.3-1.77-2.63-2.6-3.96.02-.04.05-.07.06-.11v.01zm12.28 10.97c.62-.92 1.38-2 2.03-2.97.51-.77 1.07-1.52 1.49-2.35.24.28.48.56.73.84.87.95 1.75 1.89 2.66 2.82-.28.29-.5.72-.76.96-.96 1.16-1.93 2.31-2.81 3.53-.78 1.07-1.52 2.17-2.25 3.28a113.79 113.79 0 01-3.01-3.2c.61-.99 1.27-1.96 1.92-2.92v.01zm3.31 5.33c.75-1.1 1.52-2.18 2.35-3.21.64-.81 1.31-1.59 1.96-2.38.1-.11.2-.23.29-.37 1.01 1.02 2.05 2.02 3.1 3.01-.91 1.18-1.74 2.43-2.65 3.61-.9 1.21-1.8 2.41-2.67 3.63-.23.31-.2.75.12 1 .32.26.84.18 1.05-.19 1.74-2.35 3.44-4.75 5.22-7.06 1.19 1.09 2.41 2.17 3.66 3.22-.29.33-.54.78-.78 1.04a108.53 108.53 0 00-3.29 4.66c-.49.72-.97 1.44-1.46 2.19-2.79-2.28-5.51-4.73-8.11-7.32.4-.61.8-1.22 1.21-1.82v-.01zM40.7 92.93c.31-.42.63-.83.96-1.25.93-1.19 1.89-2.36 2.84-3.53l1.41-1.71c.23-.31.52-.62.72-.96 1.09.79 2.2 1.57 3.32 2.32-.02.02-.04.04-.06.07-.05.12-.13.22-.21.32-.47.61-.96 1.2-1.45 1.8-1.43 1.72-2.84 3.46-4.12 5.29-1.14-.75-2.28-1.53-3.42-2.34l.01-.01zm18.71 6.19c.85-1.1 1.71-2.21 2.62-3.26.2-.29.59-.55.84-.84 1.17.53 2.34 1.02 3.53 1.49-.06.11-.11.22-.11.36-.83 1.29-1.79 2.5-2.71 3.73-.83 1.08-1.65 2.17-2.46 3.27-.03.04-.04.08-.06.13a80.41 80.41 0 01-4.02-1.65 80.81 80.81 0 012.38-3.22l-.01-.01zm3.01 5.37c.13-.17.25-.35.36-.5 1.59-2.19 3.37-4.26 4.81-6.55.08-.13.13-.27.15-.41 1.32.49 2.65.94 3.98 1.35-.89 1.12-1.8 2.23-2.72 3.32-.98 1.19-1.95 2.39-2.85 3.64a.83.83 0 00-.13.34 60.66 60.66 0 01-3.6-1.19zm13.72-.1c.9-1.19 1.62-2.55 2.72-3.57.23-.18.3-.41.27-.63 1.77.32 3.56.57 5.36.73-.95 1.15-1.9 2.3-2.84 3.45-.93 1.18-1.89 2.34-2.77 3.56-1.65-.06-3.31-.22-4.96-.47.74-1.03 1.5-2.04 2.23-3.08l-.01.01z" fill="#C8612F"/></g><defs><clipPath id="clip0_1259_4879"><path fill="#fff" transform="translate(.986 .16)" d="M0 0h112.702v109.203H0z"/></clipPath></defs></svg>