<svg width="170" height="111" viewBox="0 0 170 111" fill="none" xmlns="http://www.w3.org/2000/svg"><path d="M46.788 108.493c19.728 1.41 37.949-7.42 56.655-12.07 8.732-2.17 17.898-3.29 26.882-2.16 4.461.56 8.892 1.7 13 3.62 3.561 1.66 12.515 5.19 11.746 3.46-1.002-2.26-6.91-8.66-7.163-13.6-.415-7.9 8.266-15.45 12.636-20.99 4.492-5.69 7.942-12.04 7.75-19.62-.192-7.43-3.46-14.58-7.861-20.39-20.619-27.26-58.214-27.63-88.11-23.02-15.792 2.43-32.82 4.73-46.852 13-12.231 7.21-20.649 19.65-23.208 33.94-5.13 28.62 16.561 55.83 44.525 57.83z" fill="#D93636"/><mask id="mask0_1290_28143" style="mask-type:luminance" maskUnits="userSpaceOnUse" x="0" y="0" width="170" height="111"><path d="M51.037 110.142c-1.447 0-2.893-.05-4.36-.15-13.73-.98-26.7-8.01-35.582-19.28C2.01 79.182-1.754 64.492.765 50.402c2.651-14.82 11.372-27.57 23.917-34.97 13.608-8.02 29.623-10.48 45.102-12.85l2.297-.35c42.613-6.57 72.752 1.38 89.576 23.62 3.592 4.75 7.932 12.3 8.155 21.25.232 8.98-4.502 16.05-8.074 20.58-.951 1.21-2.084 2.49-3.288 3.84-4.158 4.69-9.328 10.53-9.034 16.15.162 3.02 3.035 7.1 4.947 9.81.971 1.37 1.73 2.45 2.094 3.27.324.73.192 1.5-.354 2.02-1.588 1.53-8.185-1.07-13.435-3.53-3.723-1.74-7.942-2.91-12.546-3.49-7.941-.99-16.551-.3-26.324 2.13-5.342 1.33-10.755 3.04-15.995 4.69-11.837 3.73-24.028 7.58-36.786 7.58l.02-.01zM99.114 3.012c-8.205 0-17.058.73-26.558 2.19l-2.296.35c-15.196 2.33-30.918 4.73-44.01 12.46-11.786 6.95-19.98 18.95-22.49 32.91-2.367 13.25 1.174 27.08 9.733 37.94 8.346 10.6 20.527 17.21 33.406 18.13 13.77.98 27.104-3.22 40.003-7.29 5.281-1.67 10.745-3.39 16.178-4.74 10.137-2.52 19.121-3.24 27.447-2.2 4.917.62 9.449 1.88 13.466 3.75 2.499 1.17 5.999 2.54 8.336 3.27l-.424-.6c-2.236-3.16-5.282-7.49-5.484-11.37-.354-6.83 5.261-13.18 9.783-18.28 1.174-1.32 2.277-2.57 3.177-3.71 5.231-6.62 7.588-12.55 7.436-18.66-.202-8.16-4.219-15.12-7.557-19.53-12.404-16.4-32.577-24.65-60.126-24.65l-.02.03z" fill="#fff"/></mask><g mask="url(#mask0_1290_28143)"><path d="M166.938 21.742l-2.215-18.73h2.215v18.73z" fill="#FFE499"/><path d="M166.938 31.212l-3.338-28.2h1.123l2.215 18.73v9.47z" fill="#FFE499"/><path d="M166.938 40.682l-4.461-37.67h1.123l3.338 28.2v9.47z" fill="#FFE498"/><path d="M166.938 50.162l-5.584-47.15h1.123l4.461 37.67v9.48z" fill="#FFE397"/><path d="M166.938 59.632l-6.708-56.62h1.123l5.585 47.15v9.47z" fill="#FFE396"/><path d="M166.938 69.102l-7.831-66.09h1.123l6.708 56.62v9.47z" fill="#FFE295"/><path d="M166.938 78.572l-8.954-75.56h1.123l7.831 66.09v9.47z" fill="#FFE294"/><path d="M166.938 88.042l-10.077-85.03h1.123l8.954 75.56v9.47z" fill="#FEE193"/><path d="M166.938 97.512l-11.19-94.5h1.113l10.077 85.03v9.47z" fill="#FEE192"/><path d="M166.937 100.052l-.809.09-11.503-97.13h1.123l11.189 94.5v2.54z" fill="#FEE091"/><path d="M166.128 100.142l-1.103.13-11.523-97.26h1.123l11.503 97.13z" fill="#FEE090"/><path d="M165.025 100.272l-1.113.13-11.533-97.39h1.123l11.523 97.26z" fill="#FEDF8F"/><path d="M163.912 100.402l-1.102.13-11.554-97.52h1.123l11.533 97.39z" fill="#FEDF8E"/><path d="M162.81 100.532l-1.103.12-11.574-97.64h1.123l11.554 97.52z" fill="#FEDE8D"/><path d="M161.709 100.652l-1.113.13-11.584-97.77h1.123l11.574 97.64z" fill="#FEDE8C"/><path d="M160.596 100.782l-1.103.13-11.604-97.9h1.123l11.584 97.77z" fill="#FEDD8B"/><path d="M159.493 100.912l-1.113.13-11.614-98.03h1.123l11.604 97.9z" fill="#FEDD8A"/><path d="M158.38 101.042l-1.103.13-11.634-98.16h1.123l11.614 98.03z" fill="#FEDC89"/><path d="M157.277 101.172l-1.113.13-11.644-98.29h1.123l11.634 98.16z" fill="#FEDC88"/><path d="M156.164 101.302l-1.103.12-11.665-98.41h1.123l11.645 98.29z" fill="#FDDB87"/><path d="M155.061 101.422l-1.102.13-11.686-98.54h1.123l11.665 98.41z" fill="#FDDB86"/><path d="M153.959 101.552l-1.113.13-11.696-98.67h1.123l11.686 98.54z" fill="#FDDA85"/><path d="M152.845 101.682l-1.102.13-11.706-98.8h1.113l11.695 98.67z" fill="#FDDA84"/><path d="M151.743 101.812l-1.113.13-11.716-98.93h1.123l11.706 98.8z" fill="#FDD983"/><path d="M150.63 101.942l-1.103.12-11.736-99.05h1.123l11.716 98.93z" fill="#FDD982"/><path d="M149.527 102.062l-1.113.13-11.746-99.18h1.123l11.736 99.05z" fill="#FDD881"/><path d="M148.414 102.192l-1.103.13-11.766-99.31h1.123l11.746 99.18z" fill="#FDD880"/><path d="M147.311 102.322l-1.103.13-11.786-99.44h1.123l11.766 99.31z" fill="#FDD77F"/><path d="M146.208 102.452l-1.113.13-11.796-99.57h1.123l11.786 99.44z" fill="#FDD77E"/><path d="M145.095 102.582l-1.102.13-11.817-99.7h1.123l11.796 99.57z" fill="#FDD67D"/><path d="M143.992 102.712l-1.112.12-11.827-99.82h1.123l11.816 99.7z" fill="#FDD67C"/><path d="M142.88 102.832l-1.103.13-11.847-99.95h1.123l11.827 99.82z" fill="#FCD57B"/><path d="M141.777 102.962l-1.113.13-11.857-100.08h1.123l11.847 99.95z" fill="#FCD57A"/><path d="M140.664 103.092l-1.103.13-11.877-100.21h1.123l11.857 100.08z" fill="#FCD479"/><path d="M139.561 103.222l-1.103.13-11.897-100.34h1.123l11.877 100.21z" fill="#FCD478"/><path d="M138.458 103.352l-1.113.12-11.907-100.46h1.122l11.898 100.34z" fill="#FCD377"/><path d="M137.345 103.472l-1.103.13-11.918-100.59h1.113l11.908 100.46z" fill="#FCD376"/><path d="M136.242 103.602l-1.113.13-11.928-100.72h1.123l11.918 100.59z" fill="#FCD275"/><path d="M135.131 103.732l-1.103.13L122.08 3.012h1.123l11.928 100.72z" fill="#FCD274"/><path d="M134.028 103.862l-1.113.13-11.958-100.98h1.123l11.948 100.85z" fill="#FCD173"/><path d="M132.915 103.992l-1.102.13-11.979-101.11h1.123l11.958 100.98z" fill="#FCD172"/><path d="M131.813 104.122l-1.103.12-11.999-101.23h1.123l11.979 101.11z" fill="#FCD071"/><path d="M130.71 104.242l-1.113.13-12.009-101.36h1.123l11.999 101.23z" fill="#FBD070"/><path d="M129.597 104.372l-1.103.13-12.029-101.49h1.123l12.009 101.36z" fill="#FBCF6F"/><path d="M128.494 104.502l-1.113.13-12.039-101.62h1.123l12.029 101.49z" fill="#FBCF6E"/><path d="M127.381 104.632l-1.103.13-12.059-101.75h1.123l12.039 101.62z" fill="#FBCE6D"/><path d="M126.278 104.762l-1.113.12-12.069-101.87h1.123l12.059 101.75z" fill="#FBCE6C"/><path d="M125.165 104.882l-1.102.13-12.09-102h1.123l12.069 101.87z" fill="#FBCD6B"/><path d="M124.063 105.012l-1.103.13-12.11-102.13h1.123l12.09 102z" fill="#FBCD6A"/><path d="M122.96 105.142l-1.113.13-12.12-102.26h1.123l12.11 102.13z" fill="#FBCC69"/><path d="M121.847 105.272l-1.103.13-12.14-102.39h1.123l12.12 102.26z" fill="#FBCC68"/><path d="M120.744 105.402l-1.113.13L107.49 3.012h1.113l12.141 102.39z" fill="#FBCB67"/><path d="M119.631 105.532l-1.103.12-12.161-102.64h1.123l12.141 102.52z" fill="#FBCB66"/><path d="M118.528 105.652l-1.113.13-12.171-102.77h1.123l12.161 102.64z" fill="#FBCA65"/><path d="M117.415 105.782l-1.103.13-12.191-102.9h1.123l12.171 102.77z" fill="#FACA64"/><path d="M116.312 105.912l-1.103.13-12.211-103.03h1.123l12.191 102.9z" fill="#FAC963"/><path d="M115.209 106.042l-1.113.13-12.221-103.16h1.123l12.211 103.03z" fill="#FAC962"/><path d="M114.096 106.172l-1.102.12-12.242-103.28h1.123l12.221 103.16z" fill="#FAC861"/><path d="M112.994 106.292l-1.113.13L99.629 3.012h1.123l12.242 103.28z" fill="#FAC860"/><path d="M111.881 106.422l-1.103.13L98.506 3.012h1.123l12.252 103.41z" fill="#FAC75F"/><path d="M110.778 106.552l-1.113.13L97.383 3.012h1.123l12.272 103.54z" fill="#FAC75E"/><path d="M109.665 106.682l-1.103.13L96.26 3.012h1.123l12.282 103.67z" fill="#FAC65D"/><path d="M108.562 106.812l-1.103.12L95.137 3.012h1.123l12.302 103.8z" fill="#FAC65C"/><path d="M107.459 106.932l-1.113.13L94.014 3.012h1.123l12.322 103.92z" fill="#FAC55B"/><path d="M106.346 107.062l-1.102.13L92.891 3.012h1.123l12.332 104.05z" fill="#FAC55A"/><path d="M105.245 107.192l-1.113.13L91.779 3.012h1.113l12.353 104.18z" fill="#FAC459"/><path d="M104.132 107.322l-1.103.13L90.656 3.012h1.123l12.353 104.31z" fill="#F9C458"/><path d="M103.029 107.452l-1.112.13L89.533 3.012h1.123l12.373 104.44z" fill="#F9C357"/><path d="M101.916 107.582l-1.102.12L88.41 3.012h1.123l12.383 104.57z" fill="#F9C356"/><path d="M100.814 107.702l-1.103.13L87.287 3.012h1.123l12.404 104.69z" fill="#F9C255"/><path d="M99.71 107.832l-1.112.13L86.164 3.012h1.123l12.424 104.82z" fill="#F9C254"/><path d="M98.598 107.962l-.192.02h-.931L85.04 3.012h1.123l12.434 104.95z" fill="#F9C153"/><path d="M96.362 107.982L83.918 3.012h1.123l12.434 104.97h-1.113z" fill="#F9C152"/><path d="M95.239 107.982L82.795 3.012h1.123l12.444 104.97h-1.123z" fill="#F9C051"/><path d="M94.116 107.982L81.672 3.012h1.123l12.444 104.97h-1.123z" fill="#F9C050"/><path d="M92.993 107.982L80.549 3.012h1.123l12.444 104.97h-1.123z" fill="#F9BF4F"/><path d="M91.87 107.982L79.426 3.012h1.123l12.444 104.97H91.87z" fill="#F9BF4E"/><path d="M90.747 107.982L78.303 3.012h1.123l12.444 104.97h-1.123z" fill="#F9BF4D"/><path d="M89.624 107.982L77.18 3.012h1.123l12.444 104.97h-1.123z" fill="#F8BE4B"/><path d="M88.5 107.982L76.066 3.012h1.113l12.444 104.97H88.5z" fill="#F8BE4A"/><path d="M87.377 107.982L74.943 3.012h1.123L88.5 107.982h-1.123z" fill="#F8BD49"/><path d="M86.254 107.982L73.82 3.012h1.123l12.434 104.97h-1.123z" fill="#F8BD48"/><path d="M85.131 107.982L72.697 3.012h1.123l12.434 104.97h-1.123z" fill="#F8BC47"/><path d="M84.008 107.982L71.574 3.012h1.123l12.434 104.97h-1.123z" fill="#F8BC46"/><path d="M82.885 107.982L70.46 3.132l1.062-.12h.05l12.435 104.97h-1.123z" fill="#F8BB45"/><path d="M81.763 107.983L69.359 3.263l1.103-.13 12.424 104.85h-1.123z" fill="#F8BB44"/><path d="M80.65 107.982L68.246 3.392l1.113-.13 12.404 104.72H80.65z" fill="#F8BA43"/><path d="M79.526 107.983L67.143 3.513l1.102-.12 12.404 104.59h-1.123z" fill="#F8BA42"/><path d="M78.404 107.982L66.041 3.642l1.103-.13 12.383 104.47h-1.123z" fill="#F8B941"/><path d="M77.28 107.983L64.929 3.773l1.113-.13 12.363 104.34H77.28z" fill="#F7B940"/><path d="M76.157 107.981L63.824 3.901l1.103-.13 12.353 104.21h-1.123z" fill="#F7B83F"/><path d="M75.035 107.982L62.713 4.032l1.113-.13 12.333 104.08h-1.124z" fill="#F7B83E"/><path d="M73.912 107.981L61.609 4.161l1.103-.13 12.323 103.95h-1.123z" fill="#F7B73D"/><path d="M72.788 107.982L60.496 4.282l1.113-.12 12.302 103.82h-1.123z" fill="#F7B73C"/><path d="M71.666 107.981L59.395 4.411l1.102-.13 12.293 103.7h-1.124z" fill="#F7B63B"/><path d="M70.543 107.982L58.29 4.542l1.103-.13 12.272 103.57h-1.123z" fill="#F7B63A"/><path d="M69.42 107.981L57.177 4.671l1.113-.13 12.251 103.44H69.42z" fill="#F7B539"/><path d="M68.298 107.982L56.076 4.802l1.103-.13 12.242 103.31h-1.123z" fill="#F7B538"/><path d="M67.174 107.983L54.963 4.923l1.113-.12 12.221 103.18h-1.123z" fill="#F7B437"/><path d="M66.05 107.982L53.86 5.052l1.102-.13 12.211 103.06H66.05z" fill="#F7B436"/><path d="M64.937 107.983l-12.19-102.8 1.112-.13 12.191 102.93h-1.113z" fill="#F7B335"/><path d="M63.815 107.982L51.645 5.312l1.102-.13 12.191 102.8h-1.123z" fill="#F6B334"/><path d="M62.692 107.982L50.54 5.442l1.103-.13 12.17 102.67h-1.122z" fill="#F6B233"/><path d="M61.568 107.981L49.428 5.571l1.113-.13 12.15 102.54h-1.123z" fill="#F6B232"/><path d="M60.446 107.982L48.326 5.692l1.103-.12 12.14 102.41h-1.123z" fill="#F6B131"/><path d="M59.323 107.981L47.213 5.821l1.113-.13 12.12 102.29h-1.123z" fill="#F6B130"/><path d="M58.2 107.982L46.11 5.952l1.102-.13 12.11 102.16H58.2z" fill="#F6B02F"/><path d="M57.078 107.981l-12.08-101.9 1.113-.13 12.09 102.03h-1.123z" fill="#F6B02E"/><path d="M55.954 107.982L43.894 6.212l1.103-.13 12.08 101.9h-1.123z" fill="#F6AF2D"/><path d="M54.83 107.981L42.791 6.331l1.103-.12 12.06 101.77H54.83z" fill="#F6AF2C"/><path d="M53.709 107.982L41.679 6.462l1.114-.13 12.039 101.65h-1.123z" fill="#F6AE2B"/><path d="M52.585 107.981L40.576 6.591l1.103-.13 12.03 101.52h-1.124z" fill="#F6AE2A"/><path d="M51.462 107.982l-12-101.26 1.114-.13 12.009 101.39h-1.123z" fill="#F6AD29"/><path d="M50.338 107.983L38.359 6.853l1.103-.13 11.999 101.26h-1.123z" fill="#F5AD28"/><path d="M49.217 107.982L37.248 6.972l1.113-.12 11.979 101.13h-1.123z" fill="#F5AC27"/><path d="M48.103 107.983L36.144 7.103l1.103-.13 11.969 101.01h-1.113z" fill="#F5AC26"/><path d="M46.98 107.982L35.04 7.232l1.103-.13 11.958 100.88H46.98z" fill="#F5AB25"/><path d="M45.858 107.982L33.93 7.362l1.113-.13 11.938 100.75h-1.123z" fill="#F5AB24"/><path d="M44.734 107.981L32.826 7.491l1.103-.13 11.928 100.62h-1.123z" fill="#F5AA23"/><path d="M43.61 107.982L31.714 7.622l1.113-.13 11.908 100.49H43.61z" fill="#F5AA22"/><path d="M42.489 107.981L30.61 7.741l1.103-.12 11.898 100.36h-1.123z" fill="#F5A921"/><path d="M41.365 107.982L29.498 7.872l1.113-.13 11.877 100.24h-1.123z" fill="#F5A920"/><path d="M40.242 107.981L28.395 8.001l1.102-.13 11.868 100.11h-1.123z" fill="#F5A81F"/><path d="M39.12 107.982L27.293 8.132l1.103-.13 11.847 99.98H39.12z" fill="#F5A81E"/><path d="M37.996 107.983L26.18 8.263l1.113-.13 11.826 99.85h-1.123z" fill="#F4A71D"/><path d="M36.873 107.982l-11.797-99.6 1.103-.12 11.817 99.72h-1.123z" fill="#F4A71C"/><path d="M35.75 107.983L23.962 8.513l1.113-.13 11.796 99.6H35.75z" fill="#F4A61B"/><path d="M34.627 107.982L22.861 8.642l1.103-.13 11.787 99.47h-1.123z" fill="#F4A61A"/><path d="M33.504 107.983L21.748 8.773l1.113-.13 11.766 99.34h-1.123z" fill="#F4A519"/><path d="M32.39 107.981L20.646 8.901l1.102-.13 11.756 99.21h-1.112z" fill="#F4A518"/><path d="M31.269 107.982L19.543 9.032l1.103-.13 11.746 99.08h-1.123z" fill="#F4A417"/><path d="M30.145 107.981L18.43 9.151l1.113-.12 11.725 98.95h-1.123z" fill="#F4A416"/><path d="M29.021 107.982l-11.695-98.7 1.103-.13 11.716 98.83h-1.123z" fill="#F4A315"/><path d="M27.9 107.981L16.215 9.411l1.113-.13 11.695 98.7H27.9z" fill="#F4A314"/><path d="M26.776 107.982L15.111 9.542l1.103-.13 11.685 98.57h-1.123z" fill="#F4A213"/><path d="M25.653 107.981L13.998 9.671l1.113-.13 11.665 98.44h-1.123z" fill="#F4A212"/><path d="M24.531 107.982L12.897 9.792l1.102-.12 11.655 98.31h-1.123z" fill="#F3A111"/><path d="M23.407 107.981L11.793 9.921l1.103-.13 11.634 98.19h-1.123z" fill="#F3A110"/><path d="M22.284 107.982L10.68 10.052l1.113-.13 11.614 98.06h-1.123z" fill="#F3A00F"/><path d="M21.162 107.983l-11.584-97.8 1.103-.13 11.604 97.93h-1.123z" fill="#F3A00E"/><path d="M20.039 107.982L8.465 10.312l1.113-.13 11.584 97.8h-1.123z" fill="#F39F0D"/><path d="M18.915 107.982L7.361 10.442l1.103-.13 11.574 97.67h-1.123z" fill="#F39F0C"/><path d="M17.792 107.981L6.248 10.561l1.113-.12 11.554 97.54h-1.123z" fill="#F39E0B"/><path d="M16.68 107.982L5.146 10.692l1.103-.13 11.544 97.42H16.68z" fill="#F39E0A"/><path d="M15.556 107.981L4.043 10.821l1.103-.13 11.533 97.29h-1.123z" fill="#F39D09"/><path d="M14.433 107.982L2.93 10.952l1.113-.13 11.513 97.16h-1.123z" fill="#F39D08"/><path d="M13.311 107.981l-11.483-96.9 1.103-.13 11.503 97.03h-1.123z" fill="#F39C07"/><path d="M12.188 107.982L1.383 16.842v-5.71l.445-.05 11.483 96.9h-1.123z" fill="#F39C06"/><path d="M11.065 107.982l-9.682-81.67v-9.47l10.805 91.14h-1.123z" fill="#F29B05"/><path d="M9.942 107.982l-8.56-72.2v-9.47l9.683 81.67H9.942z" fill="#F29B04"/><path d="M8.819 107.981l-7.436-62.73v-9.47l8.559 72.2H8.819z" fill="#F29A03"/><path d="M7.696 107.982l-6.313-53.26v-9.47l7.436 62.73H7.696z" fill="#F29A02"/><path d="M6.573 107.983l-5.19-43.79v-9.47l6.313 53.26H6.573z" fill="#F29901"/><path d="M5.45 107.981l-4.067-34.32v-9.47l5.19 43.79H5.45zM1.383 73.662l4.067 34.32H1.383v-34.32z" fill="#F29900"/><path d="M170.053 47.962l-6.201-52.29h6.201v52.29z" fill="#FFE499"/><path d="M170.055 57.442l-7.325-61.77h1.123l6.202 52.29v9.48z" fill="#FFE499"/><path d="M170.055 66.912l-8.448-71.24h1.123l7.325 61.77v9.47z" fill="#FFE498"/><path d="M170.055 76.382l-9.571-80.71h1.123l8.448 71.24v9.47z" fill="#FFE397"/><path d="M170.055 85.852l-10.694-90.18h1.123l9.571 80.71v9.47z" fill="#FFE396"/><path d="M170.055 95.322l-11.817-99.65h1.123l10.694 90.18v9.47z" fill="#FFE295"/><path d="M170.055 104.452h-.04l-12.9-108.78h1.123l11.817 99.65v9.13z" fill="#FFE294"/><path d="M170.014 104.452l-1.113.13-12.899-108.91h1.113l12.899 108.78z" fill="#FEE193"/><path d="M168.901 104.582l-1.103.13-12.919-109.04h1.123l12.899 108.91z" fill="#FEE192"/><path d="M167.798 104.712l-1.113.12-12.929-109.16h1.123l12.919 109.04z" fill="#FEE091"/><path d="M166.685 104.832l-1.102.13-12.95-109.29h1.123l12.929 109.16z" fill="#FEE090"/><path d="M165.583 104.962l-1.113.13-12.96-109.42h1.123l12.95 109.29z" fill="#FEDF8F"/><path d="M164.47 105.092l-1.103.13-12.98-109.55h1.123l12.96 109.42z" fill="#FEDF8E"/><path d="M163.367 105.222l-1.103.13-13-109.68h1.123l12.98 109.55z" fill="#FEDE8D"/><path d="M162.264 105.352l-1.113.13-13.01-109.81h1.123l13 109.68z" fill="#FEDE8C"/><path d="M161.151 105.482l-1.103.12-13.03-109.93h1.123l13.01 109.81z" fill="#FEDD8B"/><path d="M160.048 105.602l-1.113.13-13.04-110.06h1.123l13.03 109.93z" fill="#FEDD8A"/><path d="M158.935 105.732l-1.102.13-13.062-110.19h1.123l13.041 110.06z" fill="#FEDC89"/><path d="M157.833 105.862l-1.113.13-13.072-110.32h1.123l13.062 110.19z" fill="#FEDC88"/><path d="M156.72 105.992l-1.103.13-13.092-110.45h1.123l13.072 110.32z" fill="#FDDB87"/><path d="M155.617 106.122l-1.103.12-13.112-110.57h1.123l13.092 110.45z" fill="#FDDB86"/><path d="M154.514 106.242l-1.113.13-13.112-110.7h1.113l13.112 110.57z" fill="#FDDA85"/><path d="M153.401 106.372l-1.103.13-13.132-110.83h1.123l13.112 110.7z" fill="#FDDA84"/><path d="M152.298 106.502l-1.113.13-13.142-110.96h1.123l13.132 110.83z" fill="#FDD983"/><path d="M151.185 106.632l-1.103.13L136.92-4.328h1.123l13.142 110.96z" fill="#FDD982"/><path d="M150.084 106.762l-1.113.12-13.172-111.21h1.123l13.162 111.09z" fill="#FDD881"/><path d="M148.971 106.882l-1.103.13-13.192-111.34h1.123l13.172 111.21z" fill="#FDD880"/><path d="M147.868 107.012l-1.102.13-13.213-111.47h1.123l13.192 111.34z" fill="#FDD77F"/><path d="M146.766 107.142l-1.113.13-13.223-111.6h1.123l13.213 111.47z" fill="#FDD77E"/><path d="M145.653 107.272l-1.103.13-13.243-111.73h1.123l13.223 111.6z" fill="#FDD67D"/><path d="M144.55 107.402l-1.113.13-13.253-111.86h1.123l13.243 111.73z" fill="#FDD67C"/><path d="M143.437 107.532l-1.103.12-13.273-111.98h1.123l13.253 111.86z" fill="#FCD57B"/><path d="M142.334 107.652l-1.113.13-13.283-112.11h1.122l13.274 111.98z" fill="#FCD57A"/><path d="M141.221 107.782l-1.103.13-13.304-112.24h1.123l13.284 112.11z" fill="#FCD479"/><path d="M140.118 107.912l-1.102.13-13.325-112.37h1.123l13.304 112.24z" fill="#FCD478"/><path d="M139.015 108.042l-1.113.13-13.324-112.5h1.113l13.324 112.37z" fill="#FCD377"/><path d="M137.902 108.172l-1.103.12-13.344-112.62h1.123l13.324 112.5z" fill="#FCD376"/><path d="M136.799 108.292l-1.112.13-13.355-112.75h1.123l13.344 112.62z" fill="#FCD275"/><path d="M135.687 108.422l-1.103.13-13.375-112.88h1.123l13.355 112.75z" fill="#FCD274"/><path d="M134.584 108.552l-1.113.13-13.385-113.01h1.123l13.375 112.88z" fill="#FCD173"/><path d="M133.471 108.682l-1.103.13-13.405-113.14h1.123l13.385 113.01z" fill="#FCD172"/><path d="M132.368 108.812l-1.103.13L117.84-4.328h1.123l13.405 113.14z" fill="#FCD071"/><path d="M131.265 108.942l-1.113.12-13.435-113.39h1.123l13.425 113.27z" fill="#FBD070"/><path d="M130.152 109.062l-1.103.13-13.455-113.52h1.123l13.435 113.39z" fill="#FBCF6F"/><path d="M129.049 109.192l-1.112.13-13.466-113.65h1.123l13.455 113.52z" fill="#FBCF6E"/><path d="M127.936 109.322l-1.102.13-13.486-113.78h1.123l13.465 113.65z" fill="#FBCE6D"/><path d="M126.834 109.452l-1.113.13-13.496-113.91h1.123l13.486 113.78z" fill="#FBCE6C"/><path d="M125.721 109.582l-1.103.12-13.516-114.03h1.123l13.496 113.91z" fill="#FBCD6B"/><path d="M124.618 109.702l-1.103.13-13.536-114.16h1.123l13.516 114.03z" fill="#FBCD6A"/><path d="M123.515 109.832l-1.113.13-13.547-114.29h1.123l13.537 114.16z" fill="#FBCC69"/><path d="M122.404 109.962l-1.103.13-13.557-114.42h1.113l13.547 114.29z" fill="#FBCC68"/><path d="M121.301 110.092l-.486.06h-.637L106.621-4.328h1.123l13.557 114.42z" fill="#FBCB67"/><path d="M119.055 110.152L105.498-4.328h1.123l13.557 114.48h-1.123z" fill="#FBCB66"/><path d="M117.942 110.152L104.375-4.328h1.123l13.557 114.48h-1.113z" fill="#FBCA65"/><path d="M116.819 110.152L103.252-4.328h1.123l13.567 114.48h-1.123z" fill="#FACA64"/><path d="M115.696 110.152L102.129-4.328h1.123l13.567 114.48h-1.123z" fill="#FAC963"/><path d="M114.573 110.152L101.006-4.328h1.123l13.567 114.48h-1.123z" fill="#FAC962"/><path d="M113.45 110.152L99.883-4.328h1.123l13.567 114.48h-1.123z" fill="#FAC861"/><path d="M112.327 110.152L98.76-4.328h1.123l13.567 114.48h-1.123z" fill="#FAC860"/><path d="M111.204 110.152L97.637-4.308l.222-.02h.9l13.568 114.48h-1.123z" fill="#FAC75F"/><path d="M110.08 110.151L96.533-4.179l1.103-.13 13.567 114.46h-1.123z" fill="#FAC75E"/><path d="M108.958 110.152L95.432-4.048l1.102-.13 13.547 114.33h-1.123z" fill="#FAC65D"/><path d="M107.835 110.151L94.318-3.919l1.113-.13 13.527 114.2h-1.123z" fill="#FAC65C"/><path d="M106.711 110.152L93.215-3.788l1.103-.13 13.516 114.07h-1.123z" fill="#FAC55B"/><path d="M105.588 110.151L92.102-3.659l1.112-.13 13.497 113.94h-1.123z" fill="#FAC55A"/><path d="M104.466 110.152L91-3.538l1.103-.12 13.486 113.81h-1.123z" fill="#FAC459"/><path d="M103.342 110.151L89.887-3.409 91-3.54l13.465 113.69h-1.123z" fill="#F9C458"/><path d="M102.229 110.152L88.783-3.278l1.103-.13 13.456 113.56h-1.113z" fill="#F9C357"/><path d="M101.107 110.153L87.682-3.147l1.102-.13 13.446 113.43h-1.123z" fill="#F9C356"/><path d="M99.984 110.152L86.568-3.018l1.113-.13 13.426 113.3h-1.123z" fill="#F9C255"/><path d="M98.86 110.152L85.465-2.898l1.103-.12 13.415 113.17H98.86z" fill="#F9C254"/><path d="M97.738 110.152L84.353-2.768l1.113-.13 13.395 113.05h-1.123z" fill="#F9C153"/><path d="M96.615 110.152L83.25-2.638l1.103-.13 13.385 112.92h-1.123z" fill="#F9C152"/><path d="M95.491 110.151L82.137-2.509l1.113-.13 13.364 112.79h-1.123z" fill="#F9C051"/><path d="M94.368 110.152L81.032-2.378l1.103-.13 13.355 112.66h-1.123z" fill="#F9C050"/><path d="M93.246 110.151L79.932-2.249l1.102-.13 13.335 112.53h-1.123z" fill="#F9BF4F"/><path d="M92.122 110.152L78.818-2.128l1.113-.12 13.314 112.4h-1.123z" fill="#F9BF4E"/><path d="M90.999 110.151L77.715-1.999l1.103-.13 13.304 112.28h-1.123z" fill="#F9BF4D"/><path d="M89.877 110.152L76.604-1.868l1.112-.13L91 110.152h-1.123z" fill="#F8BE4B"/><path d="M88.753 110.153L75.5-1.737l1.103-.13 13.273 112.02h-1.123z" fill="#F8BE4A"/><path d="M87.63 110.152L74.387-1.608l1.113-.13 13.253 111.89H87.63z" fill="#F8BD49"/><path d="M86.508 110.153L73.285-1.487l1.103-.12 13.243 111.76h-1.123z" fill="#F8BD48"/><path d="M85.394 110.152L72.182-1.358l1.102-.13 13.223 111.64h-1.113z" fill="#F8BC47"/><path d="M84.271 110.153L71.068-1.227l1.113-.13 13.213 111.51h-1.123z" fill="#F8BC46"/><path d="M83.15 110.151L69.966-1.099l1.103-.13 13.202 111.38H83.15z" fill="#F8BB45"/><path d="M82.026 110.152L68.854-.968l1.112-.13 13.183 111.25h-1.123z" fill="#F8BB44"/><path d="M80.902 110.151L67.75-.839l1.103-.13 13.172 111.12h-1.123z" fill="#F8BA43"/><path d="M79.779 110.152L66.637-.718l1.113-.12 13.152 110.99h-1.123z" fill="#F8BA42"/><path d="M78.657 110.151L65.535-.589l1.103-.13 13.142 110.87h-1.123z" fill="#F8B941"/><path d="M77.533 110.152L64.432-.458l1.102-.13 13.122 110.74h-1.123z" fill="#F7B940"/><path d="M76.41 110.151L63.318-.329l1.113-.13 13.102 110.61H76.41z" fill="#F7B83F"/><path d="M75.288 110.152L62.217-.198l1.103-.13 13.091 110.48h-1.123z" fill="#F7B83E"/><path d="M74.165 110.153L61.103-.077l1.113-.12 13.072 110.35h-1.123z" fill="#F7B73D"/><path d="M73.04 110.152L60 .052l1.103-.13 13.06 110.23h-1.122z" fill="#F7B73C"/><path d="M71.92 110.153L58.889.183l1.113-.13 13.04 110.1H71.92z" fill="#F7B63B"/><path d="M70.796 110.152L57.786.312l1.102-.13 13.03 109.97h-1.122z" fill="#F7B63A"/><path d="M69.682 110.153l-13-109.71 1.102-.13 13.011 109.84h-1.113z" fill="#F7B539"/><path d="M68.56 110.151L55.57.571l1.113-.13 13 109.71h-1.122z" fill="#F7B538"/><path d="M67.437 110.152L54.467.692l1.103-.12 12.99 109.58h-1.123z" fill="#F7B437"/><path d="M66.314 110.151L53.354.821l1.112-.13 12.97 109.46h-1.123z" fill="#F7B436"/><path d="M65.192 110.152L52.252.952l1.103-.13 12.96 109.33h-1.123z" fill="#F7B335"/><path d="M64.068 110.151L51.138 1.081l1.114-.13 12.94 109.2h-1.124z" fill="#F6B334"/><path d="M62.944 110.152L50.035 1.212l1.103-.13 12.93 109.07h-1.123z" fill="#F6B233"/><path d="M61.823 110.151L48.933 1.331l1.103-.12 12.91 108.94h-1.123z" fill="#F6B232"/><path d="M60.7 110.152L47.82 1.462l1.113-.13 12.89 108.82h-1.124z" fill="#F6B131"/><path d="M59.576 110.151L46.716 1.591l1.104-.13 12.879 108.69h-1.123z" fill="#F6B130"/><path d="M58.452 110.152L45.603 1.722l1.113-.13 12.86 108.56h-1.124z" fill="#F6B02F"/><path d="M57.33 110.153L44.502 1.853l1.103-.13 12.848 108.43H57.33z" fill="#F6B02E"/><path d="M56.207 110.152L43.389 1.972l1.113-.12 12.828 108.3h-1.123z" fill="#F6AF2D"/><path d="M55.083 110.153L42.285 2.103l1.103-.13 12.818 108.18h-1.123z" fill="#F6AF2C"/><path d="M53.972 110.152L41.184 2.232l1.102-.13 12.798 108.05h-1.112z" fill="#F6AE2B"/><path d="M52.848 110.152L40.07 2.362l1.113-.13 12.788 107.92h-1.123z" fill="#F6AE2A"/><path d="M51.724 110.151L38.967 2.491l1.103-.13 12.777 107.79h-1.123z" fill="#F6AD29"/><path d="M50.601 110.152L37.853 2.622l1.113-.13 12.758 107.66h-1.123z" fill="#F5AD28"/><path d="M49.48 110.151L36.751 2.741l1.103-.12 12.747 107.53H49.48z" fill="#F5AC27"/><path d="M48.356 110.152L35.639 2.872l1.113-.13 12.727 107.41h-1.123z" fill="#F5AC26"/><path d="M47.232 110.151L34.535 3.001l1.103-.13 12.717 107.28h-1.123z" fill="#F5AB25"/><path d="M46.11 110.152L33.434 3.132l1.102-.13 12.697 107.15H46.11z" fill="#F5AB24"/><path d="M44.987 110.153L32.32 3.263l1.113-.13 12.677 107.02h-1.123z" fill="#F5AA23"/><path d="M43.863 110.152L31.217 3.382l1.103-.12 12.666 106.89h-1.123z" fill="#F5AA22"/><path d="M42.742 110.153L30.106 3.513l1.112-.13 12.647 106.77h-1.123z" fill="#F5A921"/><path d="M41.618 110.152L29.002 3.642l1.103-.13 12.636 106.64h-1.123z" fill="#F5A920"/><path d="M40.495 110.153L27.889 3.773l1.113-.13 12.616 106.51h-1.123z" fill="#F5A81F"/><path d="M39.373 110.151L26.787 3.901l1.103-.13 12.606 106.38h-1.123z" fill="#F5A81E"/><path d="M38.26 110.152L25.683 4.032l1.102-.13 12.586 106.25h-1.113z" fill="#F4A71D"/><path d="M37.136 110.151l-12.566-106 1.113-.12 12.576 106.12h-1.123z" fill="#F4A71C"/><path d="M36.014 110.152L23.469 4.282l1.102-.13 12.566 106h-1.123z" fill="#F4A61B"/><path d="M34.89 110.151L22.356 4.411l1.113-.13 12.546 105.87H34.89z" fill="#F4A61A"/><path d="M33.767 110.152L21.252 4.542l1.103-.13 12.535 105.74h-1.123z" fill="#F4A519"/><path d="M32.643 110.151L20.14 4.671l1.113-.13 12.514 105.61h-1.123z" fill="#F4A518"/><path d="M31.522 110.152L19.037 4.792l1.103-.12 12.505 105.48h-1.123z" fill="#F4A417"/><path d="M30.398 110.151L17.934 4.921l1.102-.13 12.485 105.36h-1.123z" fill="#F4A416"/><path d="M29.274 110.152L16.82 5.052l1.113-.13 12.464 105.23h-1.123z" fill="#F4A315"/><path d="M28.153 110.153L15.719 5.183l1.103-.13 12.454 105.1h-1.123z" fill="#F4A314"/><path d="M27.03 110.152L14.604 5.312l1.113-.13 12.434 104.97H27.03z" fill="#F4A213"/><path d="M25.905 110.153L13.502 5.443l1.103-.13 12.424 104.84h-1.123z" fill="#F4A212"/><path d="M24.784 110.151L12.391 5.561l1.113-.12 12.403 104.71h-1.123z" fill="#F3A111"/><path d="M23.66 110.153L11.287 5.693l1.103-.13 12.393 104.59H23.66z" fill="#F3A110"/><path d="M22.537 110.151L10.184 5.821l1.102-.13 12.374 104.46h-1.123z" fill="#F3A00F"/><path d="M21.425 110.152L9.072 5.952l1.113-.13 12.353 104.33h-1.113z" fill="#F3A00E"/><path d="M20.302 110.151L7.969 6.081l1.103-.13 12.352 104.2h-1.122z" fill="#F39F0D"/><path d="M19.178 110.152L6.855 6.202l1.113-.12 12.333 104.07h-1.123z" fill="#F39F0C"/><path d="M18.056 110.151L5.754 6.331l1.103-.13 12.322 103.95h-1.123z" fill="#F39E0B"/><path d="M16.933 110.152L4.64 6.462l1.112-.13 12.303 103.82h-1.123z" fill="#F39E0A"/><path d="M15.81 110.151L3.536 6.591l1.103-.13 12.292 103.69H15.81z" fill="#F39D09"/><path d="M14.685 110.152L2.434 6.722l1.102-.13 12.272 103.56h-1.123z" fill="#F39D08"/><path d="M13.564 110.153L1.322 6.853l1.113-.13 12.252 103.43h-1.123z" fill="#F39C07"/><path d="M12.44 110.152L.22 6.972l1.103-.12 12.241 103.3H12.44z" fill="#F39C06"/><path d="M11.317 110.153L-.895 7.103l1.113-.13 12.222 103.18h-1.123z" fill="#F29B05"/><path d="M10.194 110.152L-1.754 9.292v-2.09l.86-.1 12.211 103.05h-1.123z" fill="#F29B04"/><path d="M9.071 110.151l-10.825-91.39v-9.47l11.948 100.86H9.071z" fill="#F29A03"/><path d="M7.948 110.152l-9.702-81.92v-9.47l10.825 91.39H7.948z" fill="#F29A02"/><path d="M6.825 110.152l-8.579-72.45v-9.47l9.702 81.92H6.825z" fill="#F29901"/><path d="M5.713 110.151l-7.467-62.98v-9.47l8.58 72.45H5.712z" fill="#F29900"/><path d="M-1.754 47.172l7.467 62.98h-7.467v-62.98z" fill="#F29900"/></g><path d="M20.494 40.883c-.243-1.36.668-2.51 2.206-2.77 1.507-.26 2.762.51 3.004 1.87.233 1.33-.678 2.48-2.185 2.74-1.538.27-2.782-.51-3.025-1.84zm3.52 18l-2.316-13.09c-.07-.4.152-.71.556-.78l3.207-.56c.405-.07.719.15.79.55l2.316 13.09c.071.4-.151.71-.556.78l-3.207.56c-.405.07-.718-.15-.79-.55zm5.485-7.68c-.85-4.77 2.246-8.19 6.323-8.9 1.538-.27 2.833-.02 3.986.52.334.16.455.5.263.86l-1.002 2.02c-.212.39-.576.51-.96.36a2.55 2.55 0 00-1.367-.15c-2.023.35-2.994 2.08-2.57 4.48.426 2.37 1.984 3.67 3.795 3.36.678-.12 1.274-.47 1.78-.91.364-.31.78-.3 1.073.06l1.436 1.65c.213.27.223.62-.02.85-1.184 1.19-2.762 1.85-4.138 2.09-4.097.71-7.75-1.52-8.59-6.29h-.01zm13.94.86c-.516-2.91 1.406-4.94 6.515-6.51.365-.12.587-.46.385-.81-.374-.7-1.103-1.05-2.287-.84-1.001.17-1.942.66-3.015 1.51-.343.25-.738.21-.991-.13l-1.295-1.64c-.253-.31-.202-.68.111-.93 1.589-1.24 3.36-2.2 5.413-2.56 3.774-.65 6.273 1.06 7.072 5.56l1.335 7.52c.071.4-.152.71-.556.78l-2.54.44a.677.677 0 01-.738-.4l-.091-.2c-.182-.41-.496-.44-.8-.11-.94.99-2.063 1.7-3.44 1.94-2.7.47-4.663-1.23-5.088-3.62h.01zm7.952-1.54a.43.43 0 00.06-.29l-.293-1.68c-.05-.27-.263-.39-.526-.32-2.438.83-3.106 1.77-2.934 2.73.152.83.84 1.12 1.78.96.86-.15 1.387-.63 1.923-1.4h-.01zm7.336 1.699c-.333-.16-.445-.5-.293-.86l.961-1.95c.182-.39.556-.48.941-.33 1.234.56 2.327.75 3.328.58 1.184-.21 1.62-.72 1.498-1.44-.152-.85-1.629-1.01-3.207-1.34-1.872-.39-4.138-1.21-4.553-3.58-.486-2.75 1.457-4.98 4.826-5.56 1.993-.35 3.622.06 4.957.65.364.16.486.52.294.88l-.972 1.87c-.162.33-.536.45-.89.32-.93-.36-1.821-.56-2.63-.42-1.022.18-1.477.61-1.356 1.31.152.85 1.558.94 3.156 1.21 1.933.38 4.138 1.07 4.604 3.68.465 2.64-1.275 5.06-5.24 5.74-1.7.29-3.785 0-5.424-.77v.01zm13.363-1.659l-3.349-18.9c-.07-.4.152-.71.557-.78l3.207-.56c.405-.07.718.15.79.55l.738 4.19.121 1.3c.081.78.435.86.971.33.8-.8 1.852-1.5 3.248-1.74 3.187-.55 4.937 1.48 5.575 5.08l1.456 8.24c.071.4-.151.71-.556.78l-3.207.56c-.405.07-.719-.15-.79-.55l-1.365-7.71c-.344-1.97-.992-2.44-2.125-2.24-.94.16-1.477.64-2.124 1.5a.658.658 0 00-.132.52l1.538 8.67c.07.4-.152.71-.556.78l-3.208.56c-.404.07-.718-.15-.789-.55v-.03zm24.2-4.18l-3.105-17.52c-.07-.4.152-.71.556-.78l6.02-1.04c4.178-.72 7.922.14 8.751 4.81.789 4.48-2.367 7.06-6.414 7.76l-1.538.27c-.404.07-.627.38-.556.78l.87 4.93c.071.4-.152.71-.557.78l-3.237.56c-.405.07-.718-.15-.79-.55zm3.37-10.04l1.588-.28c2.236-.39 3.106-1.61 2.782-3.45-.333-1.89-1.669-2.35-3.874-1.97l-1.457.25c-.243.04-.375.23-.334.47l.82 4.64c.04.24.232.37.475.33v.01zm12.162 3.89c-.516-2.91 1.406-4.94 6.515-6.51.364-.12.587-.46.385-.81-.375-.7-1.103-1.05-2.287-.84-1.001.17-1.942.67-3.015 1.51-.344.25-.738.21-.991-.13l-1.295-1.64c-.253-.31-.203-.68.111-.93 1.588-1.24 3.359-2.2 5.413-2.56 3.773-.65 6.272 1.06 7.072 5.56l1.335 7.52c.071.4-.152.71-.556.78l-2.54.44a.676.676 0 01-.738-.4l-.091-.2c-.183-.41-.496-.44-.8-.11-.941.99-2.064 1.7-3.439 1.94-2.702.47-4.664-1.23-5.089-3.63l.01.01zm7.962-1.55c.04-.06.081-.18.061-.29l-.294-1.68c-.05-.27-.263-.39-.526-.32-2.438.83-3.106 1.77-2.934 2.73.142.83.84 1.12 1.781.96.86-.15 1.386-.62 1.922-1.4h-.01zm9.651 8.23c-.414.02-.657-.27-.627-.69l.132-2.41c0-.3.222-.48.526-.48h.495l.051-.01c1.346-.23 1.922-1.07 2.094-2.15l.041-.53c0-.14-.021-.3-.101-.42l-7.437-11.99c-.313-.5-.111-.92.486-1.02l3.106-.54a.71.71 0 01.728.34l2.793 5.23c.667 1.23 1.194 2.51 1.831 3.89l.131-.02c.051-1.44.142-2.83.223-4.24l.587-5.79c.03-.31.263-.54.566-.59l2.884-.5c.566-.1.87.21.799.77l-2.317 14.39c-.769 3.95-2.013 6.04-5.473 6.64-.617.11-1.113.14-1.538.13l.02-.01zm-69.332 33.22l.273 1.55c.07.4-.152.71-.557.78l-4.178.72c-.405.07-.627.38-.556.78l.202 1.12c.283 1.6.111 2.51-.961 3.19-.982.58-2.287.89-3.906 1.17a.724.724 0 01-.799-.44c-.202-.52-.495-1.04-.769-1.52-.354-.57-.182-1.01.496-1.1l1.831-.32c.405-.1.526-.17.466-.49l-.172-.99c-.071-.4-.385-.62-.79-.55l-3.884.67c-.81.14-.86.48-.172.94l.627.41c.314.22.354.6.08.92l-1.395 1.7c-.304.33-.688.34-1.042.07-.87-.67-2.084-1.43-3.228-2.03-.303-.17-.364-.46-.131-.72.232-.26.152-.41-.203-.35l-3.723.64c-.404.07-.718-.15-.789-.55l-.273-1.55c-.07-.4.152-.71.556-.78l13.406-2.32c.192-.03.303-.19.263-.4-.03-.19-.193-.3-.385-.26-4.512.92-8.782 1.74-12.15 2.35a.675.675 0 01-.79-.52l-.273-1.24c-.1-.39.152-.74.557-.81 2.165-.35 4.836-.81 7.719-1.31.212-.04.324-.19.293-.41-.03-.19-.192-.3-.384-.26l-6.151 1.06c-.405.07-.718-.15-.79-.55l-1.102-6.21c-.07-.4.152-.71.556-.78l6.182-1.07a.314.314 0 00.243-.37.303.303 0 00-.344-.24l-8.226 1.42c-.404.07-.718-.15-.789-.55l-.242-1.39c-.071-.4.151-.71.556-.78l7.85-1.36c.406-.07.618-.44.547-.84-.07-.4.142-.77.547-.84l2.316-.4c.405-.07.729.2.8.6.07.4.394.67.799.6l7.82-1.35c.405-.07.719.15.79.55l.242 1.39c.071.4-.151.71-.556.78l-8.175 1.41c-.192.03-.303.19-.273.35.03.19.192.3.384.26l6.556-1.13c.405-.07.719.15.79.55l1.112 6.27c.071.37-.131.65-.485.71-.375.07-.385.2-.05.34.626.25 1.203.51 1.72.75.485.22.556.65.212 1.04l-.972 1.13c-.232.26-.587.29-.89.13l-.395-.21c-.121-.06-.293-.09-.455-.06l-.779.16h-.05c-.182.07-.294.22-.253.44.04.24.202.35.445.31l4.482-.78c.404-.07.718.15.789.55l-.02.02zm-18.98-6.42c.03.19.192.3.384.26l3.046-.53c.162-.03.273-.18.242-.37a.302.302 0 00-.344-.24l-3.045.53c-.192.03-.303.19-.273.35h-.01zm.84 2.91l3.025-.52a.305.305 0 00.263-.38c-.04-.19-.192-.3-.385-.26l-3.025.52a.305.305 0 00-.263.38c.03.19.192.3.385.26zm10.026-5.09l-3.268.56c-.192.03-.304.19-.273.35.03.19.192.3.384.26l3.268-.56c.162-.03.273-.18.243-.37a.297.297 0 00-.344-.24h-.01zm.82 2.88c-.031-.19-.193-.3-.385-.26l-3.238.56a.305.305 0 00-.263.38c.03.19.192.3.385.26l3.237-.56a.305.305 0 00.263-.38zm-1.559 2.8l-1.538.27c-.212.04-.323.19-.293.38.04.21.192.32.415.29l1.669-.29c.212-.04.202-.12 0-.17l-.06-.02c-.173-.05-.223-.18-.082-.31.122-.1.081-.18-.11-.15zm21.843-1.471c-.102.18-.03.28.182.24l10.876-1.88c.354-.06.607.12.637.47.03.19.04.4.07.54.668 4.58.76 6.49.314 7.28-.354.69-.88 1-1.456 1.19-.446.16-1.134.33-1.923.44-.273.05-.465-.09-.556-.34-.071-.23-.304-.3-.526-.16l-.8.5h-.05c-.152.09-.304.03-.354-.12v-.05c-.122-.15-.304-.23-.486-.17-3.389.78-6.799 1.48-9.51 2.06a.654.654 0 01-.81-.49l-.242-.92c-.101-.42.111-.76.546-.84l4.3-.83c.212-.04.324-.19.293-.41-.04-.21-.192-.32-.414-.29l-2.783.48c-.404.07-.718-.15-.789-.55l-.131-.75c-.06-.32-.233-.37-.476-.19-.212.2-.495.2-.738.05l-.071-.07a3.008 3.008 0 00-.324-.25c-.475-.36-.84-.16-.84.42-.09 1.67-.333 3.27-.779 4.72-.141.44-.536.59-.96.38-.628-.25-1.397-.5-2.044-.69-.496-.13-.698-.48-.526-.95 1.295-4.13.495-9.43-.162-13.16l-1.204-6.8c-.071-.4.151-.71.556-.78l19.476-3.37c.404-.07.718.15.789.55l.708 3.97c.07.4-.152.71-.556.78l-15.864 2.75c-.405.07-.627.38-.556.78l.263 1.49c.333 1.89.688 4.2.799 6.57.07.87.526 1.09 1.113.47.354-.36.678-.72.95-1.07.294-.38.142-.6-.343-.52l-.132.02c-.405.07-.718-.15-.789-.55l-.385-2.19c-.07-.4.152-.71.557-.78l14.62-2.53c.404-.07.718.15.788.55l.385 2.19c.07.4-.152.71-.557.78l-9.57 1.66a.698.698 0 00-.466.33l-.02.03-.03.01zm5.362-12.41l-12.839 2.22a.377.377 0 00-.314.44c.04.21.233.35.446.31l12.838-2.22a.379.379 0 00.314-.44.388.388 0 00-.445-.31zm-6.243 5.42c.071.4-.151.74-.556.81l-3.966.69c-.405.07-.728-.18-.8-.58-.07-.4.153-.74.557-.81l3.966-.69c.405-.07.729.18.8.58zm-4.977 2.84c-.071-.4.151-.74.556-.81l3.966-.69c.405-.07.729.18.8.58.07.4-.152.74-.557.81l-3.966.69c-.405.07-.728-.18-.8-.58zm3.197 2.49c.04.24.233.37.475.33l.698-.12a.378.378 0 00.304-.47.38.38 0 00-.445-.31l-.698.12c-.243.04-.375.23-.334.44v.01zm2.135 4.06l-.921.16a.403.403 0 00-.233.12c-.07.07-.111.16-.182.22-.162.19-.111.3.152.25l1.264-.22c.162-.03.253-.15.223-.31s-.152-.25-.314-.22h.01zm-.152 2.61l.536-.09a.305.305 0 00.263-.38c-.03-.19-.192-.3-.385-.26l-.536.09a.305.305 0 00-.263.38c.03.19.192.3.385.26zm3.733-10.02l-2.054.35c-.404.07-.718-.15-.789-.55l-.395-2.21c-.07-.4.152-.71.557-.78l2.054-.35c.404-.07.718.15.789.55l.394 2.21c.071.4-.151.71-.556.78zm-1.477 2.62c.04.24.232.37.475.33l.729-.13a.378.378 0 00.303-.47.38.38 0 00-.445-.31l-.728.13c-.243.04-.375.23-.334.44v.01zm5.716 7.36c-.111.02-.121.08-.06.15l.525.6c.071.1.223.15.355.13l.212-.04c.273-.05.395-.12.526-.34l.04-.06c.152-.41.091-1.5-.263-4.16-.02-.27-.212-.4-.475-.36l-5.049.87c-.161.03-.252.15-.222.31s.152.25.314.22l3.267-.56c.243-.04.435.09.476.33l.486 2.72c.02.11-.03.17-.132.19zm-4.057-.97c.03.19.192.3.385.26l.536-.09a.305.305 0 00.263-.38c-.03-.19-.192-.3-.385-.26l-.536.09a.305.305 0 00-.263.38zm.718 2.21l.698-.15c.132-.02.152-.11.071-.21-.1-.09-.09-.2.03-.28l.102-.07c.151-.08.141-.13-.04-.1l-.972.17a.305.305 0 00-.263.38c.03.19.192.3.384.26h-.01zm5.686-15.02c.071.4-.152.74-.556.81l-4.209.73c-.405.07-.728-.18-.8-.58-.07-.4.153-.74.547-.81l4.209-.73c.404-.07.728.18.799.58h.01zm-5.22 2.88c-.071-.4.151-.74.556-.81l4.209-.73c.405-.07.728.18.8.58.07.4-.153.74-.557.81l-4.209.73c-.405.07-.728-.18-.8-.58zm1.447 2.8c.04.24.232.37.475.33l.759-.13c.212-.04.344-.23.303-.47a.388.388 0 00-.445-.31l-.759.13c-.242.04-.374.23-.334.44v.01zm10.573-14.529l2.246.27c.394.04.647.35.576.75a41.697 41.697 0 01-.9 4.36c-.02.03-.01.08 0 .11l-.02.2 3.065 17.33c.071.4-.151.71-.556.78l-2.185.38c-.405.07-.719-.15-.79-.55l-1.83-10.32c-.092-.51-.294-.53-.537-.07-.253.46-.617.46-.86-.02-.506-.79-1.194-1.88-1.74-2.61-.182-.22-.172-.52-.05-.76 1.345-2.46 2.377-5.88 2.832-9.26.04-.39.364-.64.759-.6l-.01.01zm18.585 13.91h.05l1.447.48c.415.15.587.5.385.9-.274.51-.597 1.01-.962 1.48-.687.81-.495 1.27.577 1.19.577-.05 1.184-.09 1.781-.17.87-.1 1.143.32.779 1.1-.213.5-.425 1.04-.597 1.51a.755.755 0 01-.577.48h-.05c-2.469.19-4.725.17-6.759-.17a.665.665 0 00-.435.07c-1.75.94-3.783 1.73-6.07 2.45a.71.71 0 01-.8-.25c-.252-.34-.596-.69-.93-1.02-.546-.56-.435-1.02.314-1.23a73.24 73.24 0 002.944-.95c.445-.16.455-.44.02-.66l-.273-.15a.784.784 0 00-.81 0c-.293.22-.627.41-.95.6-.304.16-.618.11-.88-.09l-.061-.04c-.213-.24-.466-.44-.729-.67-.678-.52-.678-1.01.111-1.42 1.589-.8 2.813-1.7 3.693-2.56.284-.27.192-.64-.03-.93-.253-.34-.455-.39-.668-.02-.324.52-.698 1.06-1.093 1.54a.67.67 0 01-.809.14l-1.356-.73c-.404-.23-.445-.61-.11-.92.333-.3.212-.5-.244-.42l-.404.07c-.405.07-.719-.15-.79-.55l-.424-2.4c-.071-.4.151-.71.556-.78l.89-.15c.405-.07.628-.38.557-.78l-.87-4.93c-.071-.4.151-.71.556-.78l3.126-.54c.193-.03.304-.19.354-.36v-.05c0-.16-.141-.28-.333-.25l-4.533.78c-.405.07-.718-.15-.789-.55l-.213-1.23c-.07-.4.152-.71.557-.78l14.376-2.49c.405-.07.719.15.789.55l.213 1.23c.071.4-.152.71-.557.78l-5.372.93c-.212.04-.354.2-.435.38v.05c-.071.18.031.3.253.26l4.259-.74c.405-.07.719.15.79.55l.87 4.93c.071.4.384.62.789.55l.698-.12c.405-.07.718.15.789.55l.425 2.4c.071.4-.202.72-.607.79-.486.08-.607.33-.243.65l.101.09c.304.28.253.67-.091.92l-1.052.81a.752.752 0 01-.991-.1l-.304-.31c-.475-.47-.799-.3-1.163.2-.334.44-.931.71-1.872.88l-1.346.23a.81.81 0 00-.445.3c-.152.22-.131.38.112.34l4.016-.7.395-.15a.832.832 0 01.445-.02h.01zm-9.834-1.87c.263.09.405-.04.364-.31v-.05c-.05-.24.081-.43.324-.47l2.054-.35c.081-.01.101-.07.03-.14h-.03a.446.446 0 00-.294-.05l-3.773.65c-.112.02-.172.11-.152.22l.03.19.061-.12 1.386.45v-.02zm5.767-8.7l-5.747.99c-.192.03-.273.16-.253.32.03.19.162.27.344.24l5.747-.99c.162-.03.253-.15.222-.34-.03-.16-.151-.25-.313-.22zm.667 2.2c-.03-.19-.192-.3-.384-.26l-5.665.98a.305.305 0 00-.264.38c.03.19.193.3.385.26l5.665-.98a.304.304 0 00.263-.38zm-5.959 3.09c.03.19.193.3.385.26l5.666-.98a.305.305 0 00.263-.38c-.031-.19-.193-.3-.385-.26l-5.665.98a.305.305 0 00-.264.38zm2.813 2.84l.081.45c.091.53.243.56.83.46l.273-.05c.162-.03.202-.12.071-.23a8.841 8.841 0 00-.951-.82c-.223-.15-.344-.08-.304.19zm2.752 5.16l-1.811.31c-.678.12-.708.37-.041.56l.962.25c.111 0 .222-.01.323-.06l.79-.55c.566-.4.445-.63-.233-.51h.01zm-.567-4.47l.486-.08c.273-.05.405-.1.475-.27.142-.3.284-.46.628-.41l.718.12c.253.01.293-.05.101-.21-.222-.15-.232-.35 0-.49l1.477-1.08c.081-.04.091-.13.081-.18 0-.05-.071-.1-.131-.09l-2.752.48c-.354.06-.405.23-.142.46a.68.68 0 01.132.12c.172.16.152.39-.041.53l-1.153.89c-.223.18-.202.28.121.23v-.02zm17.026-13.39c-.041-.24-.233-.37-.476-.33l-8.012 1.39c-.405.07-.719-.15-.789-.55l-.264-1.49c-.07-.4.152-.71.557-.78l7.901-1.37c.294-.05.476-.3.425-.6-.05-.29.122-.54.425-.6l2.833-.49c.293-.05.546.12.597.42.05.29.303.47.607.42l8.255-1.43c.405-.07.719.15.79.55l.263 1.49c.07.4-.152.71-.557.78l-8.336 1.44c-.273.05-.405.23-.364.48.05.27.232.4.505.35l6.587-1.14c.404-.07.718.15.789.55l1.143 6.45c.071.4-.152.71-.557.78l-.273.05c-.566.1-.586.29-.07.54 1.021.45 2.003.94 2.782 1.41.404.26.455.66.121 1l-1.295 1.35c-.263.27-.637.3-.961.08l-.374-.24a.707.707 0 00-.496-.11l-4.411.85c-.961.19-1.032.59-.192 1.1.283.17.556.34.819.52.314.22.324.6.081.92l-1.295 1.49c-.303.33-.688.34-1.042.07-.779-.61-1.872-1.3-2.914-1.83-.404-.23-.465-.58-.162-.91.274-.32.193-.5-.242-.43-3.096.59-6 1.12-8.367 1.56-.375.07-.698-.15-.789-.52l-.385-1.69c-.101-.42.122-.73.557-.81 2.185-.38 4.836-.81 7.668-1.3.355-.06.527-.31.466-.66-.061-.35-.314-.52-.668-.46l-6.475 1.12c-.405.07-.718-.15-.789-.55l-1.143-6.45c-.071-.4.152-.71.556-.78l6.637-1.15c.243-.04.374-.23.334-.5v.01zm-3.915 20.11l-2.196-.8c-.475-.17-.597-.56-.405-1 .486-1.02.85-2.24 1.063-3.4.091-.43.404-.68.84-.58l2.114.46c.374.07.597.39.526.76-.223 1.41-.587 2.96-1.113 4.23-.162.33-.496.47-.829.34v-.01zm.242-16.5v.05c.051.24.243.37.486.33l3.369-.58c.243-.04.374-.23.334-.47v-.05c-.051-.24-.243-.37-.486-.33l-3.369.58c-.243.04-.374.23-.334.47zm.982 3.15l3.369-.58c.243-.04.374-.23.334-.47v-.03c-.051-.24-.233-.37-.476-.33l-3.369.58c-.243.04-.374.23-.334.47v.03c.051.24.233.37.476.33zm19.394 9.23l-2.043 1.04c-.405.21-.8.06-.982-.35v-.05c-.131-.2-.253-.45-.415-.7-.455-.83-.789-.69-1.021.2-.395 1.39-1.427 1.98-3.481 2.33l-4.583.79c-3.935.68-5.089-.03-5.594-2.85l-.324-1.84c-.071-.4.152-.71.556-.78l2.317-.4c.405-.07.718.15.789.55l.314 1.79c.131.75.415.78 1.821.54l3.854-.67c.759-.13 1.083-.35 1.103-1.13.041-.7.385-.97 1.052-.82.314.06.638.14.951.17.516.08.668-.17.344-.58-.344-.38-.273-.78.182-.99l1.862-.96a.684.684 0 01.769.12c1.153 1.15 2.236 2.55 2.812 3.77.172.33.041.68-.293.82h.01zm-8.822-14.8l-3.187.55c-.243.04-.374.23-.334.47v.05c.051.24.243.37.486.33l3.187-.55c.243-.04.374-.23.334-.47v-.05c-.051-.24-.243-.37-.486-.33zm.981 3.16v-.03c-.05-.24-.232-.37-.475-.33l-3.187.55c-.243.04-.374.23-.334.47v.03c.051.24.233.37.476.33l3.187-.55c.242-.04.374-.23.333-.47zm-2.944 4.25l1.488-.26c.212-.04.232-.12.02-.2-.213-.1-.233-.23-.071-.4l.212-.2c.314-.27.233-.42-.172-.35l-1.669.29c-.243.04-.374.23-.334.47l.061.32c.04.24.233.37.476.33h-.011z" fill="#fff"/></svg>