<svg width="154" height="233" viewBox="0 0 154 233" fill="none" xmlns="http://www.w3.org/2000/svg"><g clip-path="url(#clip0_1259_4800)" fill-rule="evenodd" clip-rule="evenodd"><path d="M141.161 116.88c.95 7.67-1.22 15.42-3.5 22.69-1.42 4.46-3.73 8.61-7.53 11.46.91 3.63-3.42 5.23-5.95 6.63-5.7 3.07-11.6 5.72-17.16 9.04-8.06 4.19-15.97 8.87-24.52 11.96-8.7 4.61-18.73 7.17-28.51 4.89-2.42-.53-4.88-1.14-7.06-2.31-5.05-.56-9.8-2.46-13.9-5.48a5.433 5.433 0 01-2.02-1.81c-8.95-4.64-15.38-13.3-18.26-22.88-2.96-2.27-2.06-10.66-2.41-14.32-.17-11.55 2.2-23.05 6.42-33.76.68-1.69 1.56-3.32 2.73-4.72 1.04-1.21 2.64-1.46 4-1 .62-2.96 4.51-3.29 6.71-4.74 2.09-.89 4.03-2.26 6.23-2.86 7.74-3.96 15.86-7.52 23.76-10.96 4.92-2.52 9.73-5.26 14.83-7.42 2.6-1.11 5.18-2.27 7.66-3.62 2.95-2.06 6.4-3.19 10.02-2.81 9.74.65 19.71 3.1 27.15 9.75 4.33 3.69 9.36 6.93 12.35 11.89 1.75 3.12 3.24 6.37 4.85 9.56 1.87 1.28 2.6 4.16 3.16 6.22.93 4.7 1.16 9.5.84 14.27.03.11.06.22.09.34l.02-.01z" fill="#F94B4B"/><path d="M18.08 96.18c-4.39-5.84 4.49-14.78 9.66-17.03.86-2.91 8.37-5.84 11.1-7.53 6.21-3.09 12.76-5.4 19.24-7.88 1.91-.73 3.82-1.43 5.72-2.18 1.62-1.41 3.52-2.52 5.56-3.2 4.93-1.16 18.88-4.59 16.62 4.62 2.59 4.12-5.14 8.48-8.47 6.5-.77.4-1.55.8-2.33 1.19-1.64 3.05-7.56 4.92-10.58 6.8-7.34 3.65-14.9 6.85-22.5 9.91-3.09 2.74-7.33 4.02-10.96 5.96-3.66 1.21-9.52 5.68-13.05 2.84h-.01zm59.16 93.03c-2.39.1-5.79-.08-6.72-2.76-.67-1.94.81-3.98 2.79-4.2 7.36-1.16 13.55-5.53 20.14-8.72.33-.6.86-1.01 1.44-1.35 3.44-1.93 7.031-3.55 10.611-5.2 6.52-2.72 12.6-6.55 18.97-9.43 3.04-6.15 9.55-2.75 6.26 2 .17 5.18-4.91 9-8.51 12.06-2.13 1.29-4.23 4.1-6.97 3.37-8.46 5.29-17.57 9.48-27.08 12.5-3.44.81-7.47 3.3-10.93 1.73zm12.001-75.38c3.63 1.58 6.16 3.97 5.09 8.22-1.02 5.3-1.7 10.95-3.78 15.92-.82 5.51 1.49 13.87-7.47 10.26-3.49-1.36-6.72-3.3-10.09-4.92-1.45-.82-3.4-1.2-4.17-2.83-1.68-.64-3.36-1.3-5.05-1.92-1.17-.2-2.46-.51-3.15-1.58-2.36-3.82 1.62-12.21 2.11-16.72.84-2.95 1.55-5.96 1.99-9.01.19-5.37 2.07-8.76 7.61-5.28 6.18.83 11.4 5.14 16.89 7.85l.02.01z" fill="#FEBA55"/><path d="M23.52 87.62c.14-1.64 1.62-2.89 3.26-2.75 1.64.14 2.89 1.62 2.75 3.26-.14 1.64-1.62 2.89-3.26 2.75-1.64-.14-2.89-1.62-2.75-3.26zm16.43-4.33c-3.24-.74-2.97-5.44.23-6 4.87-.6 4.53 6.83-.23 6zm12.66-10.5c.14-1.64 1.62-2.89 3.26-2.75 1.64.14 2.89 1.62 2.75 3.26-.14 1.64-1.62 2.89-3.26 2.75-1.64-.14-2.89-1.62-2.75-3.26zm15.881-6.1c.14-1.64 1.62-2.89 3.26-2.75 1.64.14 2.89 1.62 2.75 3.26-.14 1.64-1.62 2.89-3.26 2.75-1.64-.14-2.89-1.62-2.75-3.26zM80.55 183.78c.14-1.64 1.62-2.89 3.26-2.75 1.64.14 2.89 1.62 2.75 3.26-.14 1.64-1.62 2.89-3.26 2.75-1.64-.14-2.89-1.62-2.75-3.26zm12.74-5.69c.14-1.64 1.62-2.89 3.26-2.75 1.64.14 2.89 1.62 2.75 3.26-.14 1.64-1.62 2.89-3.26 2.75-1.64-.14-2.89-1.62-2.75-3.26zm13.631-6.6c.14-1.64 1.62-2.89 3.26-2.75 1.64.14 2.89 1.62 2.75 3.26-.14 1.64-1.62 2.89-3.26 2.75-1.64-.14-2.89-1.62-2.75-3.26zm12.439-7.62c.14-1.64 1.62-2.89 3.26-2.75 1.64.14 2.89 1.62 2.75 3.26-.14 1.64-1.62 2.89-3.26 2.75-1.64-.14-2.89-1.62-2.75-3.26z" fill="#F25252"/><path d="M86.971 122.05c1.19.99 1.47 2.83.52 4.09-.58 3.67-1.37 7.33-2.2 10.96-.3 3.05-3.61 5.07-5.8 2.36-.2-.31-.36-.63-.47-.96-.07-.06-.13-.13-.19-.2-2.9-.3-7.87-1.99-9-4.92-2.66-1.15-1.96-4.36-1.37-6.59.46-2.65 1.21-5.25 1.53-7.92.19-1.36.03-2.82.72-4.06 2.27-2.97 4.76-1.01 6.46 1.34 3.48-.78 7.52 4.02 9.79 5.92l.01-.02z" fill="#FEF7E0"/><path d="M19.03 99.17c-7.4-7.15-1.66-14.51 6.8-20.61-.05.11-.1.21-.15.32-.17.18-.32.38-.45.6-.2.35-.3.78-.43 1.16-.1.3-.19.6-.28.89-.14.47-.28.94-.43 1.41-4.97 4.2-7.88 8.98-4.26 13.73.29-.06.53-.07.74-.05-.02.51.03 1.02.1 1.51.04.32.1.64.17.95-.28.23-.64.36-1.05.33-.24-.02-.5-.1-.78-.26l.02.02zM86.9 66.24c-.1-.41-.3-.8-.61-1.11-.08-.08-.16-.15-.24-.22-.23-1.72.37-4.54-2.82-5.96-4.31-1.52-8.77-.77-13.01.62-.26-.48-.67-.87-1.19-1.07-.56-.21-1.13-.41-1.74-.41-.43 0-.85.08-1.22.25h-.08c7.69-2.79 15.48-4.2 20.37-.23 1.67 1.27 3.93 8.14.61 8.16-.02 0-.04-.01-.06-.02l-.01-.01z" fill="#58393E"/><path d="M28 174.34c-15.4-11-22.23-31.84-18.68-50.13.54-4.4 6.69-26.53 10.86-26.72.18.08.33.18.45.28.01.12.03.25.05.37.05.39.12.79.23 1.17-.48 1.41-2.22 3.15-2.48 4.27-1.95 3.95-3.37 8.04-4.61 12.23-8.41 24.97 1.8 54.66 28.22 62.95 8.24 2.13 16.78 4.39 25.32 3.37.45.06.9.12 1.36.17.13.02.26.03.38.05.08.01.17.03.25.04.28.04.57.09.85.13.08.15.14.31.16.47.14 2.71-8.6 1.63-10.56 1.79-11.14-1.28-22.65-3.58-31.81-10.43l.01-.01zm100.74-20.14c-1.82-1.35 2.81-4.73 3.43-6.32a49.62 49.62 0 005.3-10.42c9.12-26.2-.88-54.27-26.1-66.75-4.63-2.15-9.45-4.31-14.57-4.89-2.1-.19-4.21-.18-6.31-.12-1.2-.15-2.95.91-3.62-.53-.93-3.1 7.53-1.72 9.31-1.89 4.7.23 9.09 2.1 13.39 3.85 21.32 9.26 34.67 29.65 33.68 53-.66 9.99-2.98 20.09-8.61 28.5-1.18 1.33-4.06 6.91-5.9 5.56v.01z" fill="#58393E"/><path d="M69.031 183.3c-.02-.41.1-.7.31-.92h.02c.56.09 1.13.18 1.69.25.32.27.68.49 1.03.71 0 .01.02.03.03.05.08.19.18.38.3.55-.89.22-1.65.33-2.22.28-.69-.06-1.11-.35-1.16-.93v.01z" fill="#58393E"/><path d="M77.232 191.23c-3.84-.46-8.09-2.53-8.56-6.79.05-2.01 2.66-1.6 2.56.28 5.03 9.1 20.04 1.5 26.99-1.6 5.46-2.56 11.08-5.15 16.22-8.28 4.6-3.29 10.08-5.66 13.72-10.1 1.99-2.72 2.45-6.54 1.15-9.66-.6-1.48 1.78-2.39 2.32-.88 4.88 12.63-9.96 18.66-18.41 24.24-10.19 4.85-24.7 14.14-36 12.79h.01zM20.922 83.91c-1.49-1.18.98-5.13 1.1-6.89 2.23-9.6 4.6-19.18 7.15-28.7.76-1.41.54-4.81 2.75-4.46.64.22.99.93.78 1.57-1.44 4.11-2.38 8.22-3.41 12.42-1.73 6.34-3.23 12.73-4.7 19.14-.75 1.51-1.26 8.42-3.68 6.93l.01-.01z" fill="#58393E"/><path d="M72.38 58.57c-6.96-2.64-14.11-4.74-21.02-7.54-6.32-2.35-13.26-3.62-19.33-6.34-.86-1.2.73-2.67 1.83-1.7 9.9 2.72 19.51 6.3 29.21 9.63 3.45.98 6.69 2.52 10.1 3.6 1.52.49.73 2.88-.79 2.35z" fill="#58393E"/><path d="M31.431 45.58c-11.56-15.14-19.38-32.77-24.8-50.95-.52-1.5 1.84-2.35 2.35-.81 3.94 12.76 8.59 25.35 15.52 36.82 2.58 3.99 4.92 8.14 7.71 11.99.64.87 2.08 1.97.97 3.05-.49.44-1.32.42-1.75-.09v-.01zm55.85 183.66c-2.2-12.39-3.65-25.3-7.25-37.51-.9-1 .35-2.62 1.55-1.92 1.59 1.62 1.48 4.37 2.2 6.46 1.82 7.82 3.35 15.72 4.55 23.67-.15 1.84 2.94 11.42-1.05 9.31v-.01zm-6.43-37.11h.21c-.14 0-.28 0-.41-.05.02 0 .03.01.05.02.05 0 .11.02.16.03h-.01zm14.73 37.21c-2.08-13.11-4.56-26.13-8.67-38.72-.27-1.57 2.2-1.99 2.45-.4 3.34 10.31 5.77 20.87 7.45 31.58-.09 1.9 2.54 8.1.2 8.56-.66.11-1.31-.35-1.43-1.03v.01zm15.029 2.85c-8.49-13.43-13.08-28.95-16.74-44.28-.27-1.59 2.23-1.99 2.45-.38 3 12.81 6.87 25.55 12.87 37.3.5 1.88 5.04 6.46 3.13 7.74-.57.36-1.35.18-1.71-.39v.01zm9.46-3.36c-9.68-12.59-15.79-27.9-18.82-43.42-.09-.67.34-1.31 1.03-1.42 1.68-.18 1.46 1.82 1.71 2.94 2.56 11.03 6.52 21.95 12.16 31.75 1.76 2.98 3.71 5.85 5.83 8.58 1.02 1.22-.9 2.84-1.91 1.58v-.01zm8.72-9.37c-9.23-11.17-17.5-24.47-21.13-38.41 1.5-1.93 2.64.74 2.96 2.07 3.13 8.35 7.03 16.41 11.91 23.88 2.52 3.77 5.2 7.45 8.18 10.88 1.03 1.21-.89 2.83-1.91 1.58h-.01zm7.722-7.33c-5.64-4.92-10.35-10.83-14.02-17.34-2.8-5.76-6.91-11.71-7.39-18.17.48-1.34 2.62-.8 2.38.61 2.27 8.32 6.68 16 11.52 23.09 2.67 3.67 5.81 6.99 9.2 10 1.18 1.07-.52 2.92-1.7 1.81h.01zm7.288-6.44c-10.23-8.28-18.32-19.38-22.86-31.74-.47-2.45 2.41-2.37 2.78.38 2.79 7.24 7 13.95 11.91 19.89 2.91 3.43 6.11 6.65 9.62 9.46 1.3.92-.15 2.98-1.45 2.02v-.01zm8.18-8.58c-10.74-6.66-19.34-17.12-25.65-27.9-.08-1.41 2.09-1.74 2.44-.37 4.53 7.12 9.89 13.76 15.94 19.64 2.57 2.45 5.34 4.72 8.45 6.44 1.42.75.22 2.97-1.18 2.18v.01zm-151.05-55c-1.98-10.11-.78-21.1 3.27-30.55.63-1.4 2.84-.51 2.29.95-.63 1.05-1.09 2.39-1.43 3.48-1.17 4.03-1.94 8.17-2.4 12.34-.51 4.45-.16 8.94.71 13.32.31 1.56-2.15 2.05-2.44.45v.01zm2.87 13.82c-.39-1.77-3.4-5.94-.62-6.73 1.89.12 1.6 3.61 2.58 4.98 1.22 1.58-.77 3.58-1.96 1.76v-.01zM29.451 31.25c-1.65-3.36-14.45-23.4-9.14-24.76 1.02.09 1.2 1.09 1.14 1.93.25 1.67.83 3.26 1.43 4.83 1.8 4.37 4.07 8.53 6.36 12.65.51 1.77 3.57 4.03 1.93 5.72-.55.36-1.37.21-1.72-.37zm113.8 62.87c-3.36-12.25-12.5-21.92-23.63-27.67-1.57-.48-.77-2.95.79-2.36 6.87 3.53 13.23 8.6 18.07 14.63 1.39 1.14 11.47 20.25 4.77 15.4zm4.41 13.66c-.14-.95-.29-1.9-.52-2.83.01.05.03.11.04.16-.27-.94-.81-2.33.47-2.76 2.38-.31 1.94 3.43 2.45 4.98.3 1.58-2.17 2.04-2.44.45z" fill="#58393E"/><path d="M71.402 183.96c-.45-.56-1.06-.95-1.76-1.09-.21-.04-.42-.1-.62-.15-.79-.18-1.59-.31-2.37-.52.64-.06 1.28-.14 1.92-.24-13.48-3.06-25.31-12.38-33.49-23.29-3.16-4.2-5-9.18-6.73-14.09-3.9-9.98-5.36-20.76-4.2-31.42.54-4.31 1.93-12.76 4.52-17.58-.84.4-1.67.81-2.5 1.22-1.08.29-3.42 1.83-5.17 2.25-.1.41-.32.86-.6 1.32.01-.19.01-.37.01-.56v-.27c.02-.22.02-.45-.02-.68 0-.06-.02-.11-.03-.16-.02-.24-.05-.47-.08-.71-.04-.45-.1-.9-.18-1.34h.09c.38-.11.78-.21 1.09-.38 4.71-1.92 9.18-4.4 13.81-6.51 13.85-6.82 27.83-13.39 41.8-19.95 2.94-1.72 6.02-3.1 8.61-5.31.15-.17.32-.28.5-.34v-.1c.11.14.23.27.36.39.7.68 1.5 1.26 2.46 1.47-.3.05-.59.08-.85.05-.2.15-.44.25-.74.29-1.12.81-2.26 1.58-3.41 2.33 5.21 1.27 14.63 6.29 15.61 7.19 20.62 13.4 30.43 31.72 30.18 56.34-.52 7.61-1.44 15.33-4.15 22.51-.04.07-.08.14-.12.22.79-.42 1.59-.81 2.4-1.16.42.19.7.39.86.61-.01.34 0 .67.02 1.01-.93 1.69-5.88 3.69-6.8 4.58-8.84 5.36-18.2 9.77-27.51 14.24-2.55.82-16.88 9.01-22.75 10.03-.04-.06-.08-.12-.13-.17l-.03-.03zm3.08-3.35c1.13-.42 2.24-.89 3.33-1.39 1.39-.67 2.77-1.33 4.16-1.99-26.7-17.46-44.55-54.52-40.28-86.18.15-.56.17-1.23.25-1.87-3.25 1.57-6.51 3.13-9.76 4.69.12.51-.1 1.04-.53 1.32-.6.87-.96 1.88-1.36 2.85-1.38 3.65-2.49 7.4-3.14 11.26-2.82 15.79.98 32.1 8.6 46.02 6.27 9.35 15.21 16.84 25.37 21.57 4.02 1.83 8.03 3.06 12.41 3.22h.09c.39.03.67.23.85.49l.01.01zm-27.32-93.96c-.84.42-1.69.83-2.54 1.24 0 .02.01.03.02.05.03 1.64-.63 3.33-.69 5.02-2.58 24.13 7.46 50.02 23.31 68.06 3.55 3.65 7.04 7.38 10.95 10.65 1.95 1.77 4.34 2.78 6.26 4.38 4.15-1.97 8.29-3.92 12.43-5.92-.22-.1-.41-.27-.55-.55-2.65-6.39-6.03-12.44-8.84-18.75a.774.774 0 01-.32-.15c-.29.13-.65.14-1.02-.07-9.18-4.24-18.47-8.67-27.57-12.85-.07-.14-.12-.27-.15-.39-.09-.08-.18-.18-.25-.31-.83-2.16.07-4.63.3-6.86 1.24-8.2 3.32-16.23 5.75-24.14.51-1.18.45-2.77 1.41-3.66.01 0 .02-.01.03-.02-3.26-6.7-7.2-13.13-10.28-19.87-2.79 1.3-5.55 2.65-8.24 4.12l-.01.02zm10.48-5.15c.03.07.05.14.07.21 2.71 5.37 5.48 10.7 8.37 15.98.61 1.44 1.7 2.86 2.2 4.37 7 2.43 13.31 6.6 20.02 9.74 2.19 1.13 4.36 2.29 6.52 3.47.98.56 2.8 1.27 1.91 2.67-.11.16-.25.28-.41.37.29.22.47.58.42 1.05-.17 1.16-.36 2.32-.54 3.48-.47 2.19-3.66 20.62-6.79 26.34.35.47.55 1.16.76 1.66 2.88 5.78 5.84 11.66 8.38 17.58.17.31.2.6.13.87 3.57-1.73 7.12-3.5 10.64-5.33v-.13c3.06-27.89-10.49-57.67-30.29-76.87-3.8-3.47-7.85-6.68-12.15-9.51-.02-.01-.03-.02-.05-.04-3.06 1.38-6.13 2.72-9.18 4.11l-.01-.02zm11.83-5.31s.1.07.15.1c21.45 14.54 35.72 38.4 40.99 63.55 1.73 7.45 2.03 15.13 1.31 22.73.35-.19.7-.37 1.05-.56 3.03-1.39 5.88-3.31 8.75-5.09.37-1.11 1.27-2.36 1.42-3.26 1.43-3.72 2.28-7.64 2.88-11.57 2.36-13.17.62-26.73-4.64-38.97-4.6-10.13-12.89-17.92-21.83-24.23-5.54-4.15-12.15-6.55-18.64-8.55-3.69 2.16-7.54 4.05-11.44 5.86v-.01zm-8.34 53.32c-.35 2.21-.81 4.18-.76 6.38.02.03.03.07.04.1.18.05.36.13.52.23 6.28 2.53 12.24 5.75 18.44 8.46 2.65 1.3 5.09 2.51 7.69 3.63 1.99-4.35 3.09-8.87 4.07-13.51 1.25-5.19 2.43-10.4 3.14-15.7.04-.47.29-.77.61-.94-9.02-4.83-18.13-9.96-27.53-13.86-2.5 8.29-4.91 16.62-6.21 25.2l-.01.01zM22.87 83.15c.67-1.18 1.27-2.41 1.73-3.68 7.7-5.85 18.27-10.65 22.99-13.12 5.05-2.04 12.81-6.22 20.4-8.71a18.426 18.426 0 003.06.6c.64.07 1.3.12 1.94.14.67.01 1.33-.02 2 0-3.45.55-6.85 1.88-10.03 3.18-7.22 2.83-14.33 5.93-21.23 9.48-4.71 2.74-16.74 8.22-22.43 14.64.58-.8 1.08-1.64 1.57-2.51v-.02zm3.682 5.94c2.29.31 1.89-3.57-.38-2.56.06 1.1-1.44 1.88.38 2.56zm1.92-4.94c4.5 2.46 1.01 9.67-3.68 6.83-2.07-1-2.38-5.12.22-5.5-.15-1.71 2.31-1.83 3.46-1.33z" fill="#B93F25"/><path d="M40.391 81.74c3.66-.46 2.46-5.46-.58-2.81.01.1 0 .21 0 .31-.07.41-.32.72-.65.89-.35.87.37 1.61 1.24 1.6l-.01.01zm4.8-2.52c.27 2.88-2.95 5.57-5.73 4.88-2.69-.37-3.86-4.12-1.9-5.96 1.2-3.73 7.46-2.91 7.64 1.08h-.01zm10.471-4.72c3 .15 1.67-3.07-.53-3.16-.75.18-.83 1.19-1.38 1.65-.15 1.17 1.01 1.38 1.92 1.51h-.01zm4.25-1.69c.26 2.53-2.17 4.69-4.65 4.14-5.39-.4-4.96-6.56-.65-8.04 2.32-.35 4.92 1.61 5.3 3.9zM71.74 68.1c2.68.02 2.01-4.74-.49-2.61-.13.38-.61.49-.67.9.06.64.39 1.66 1.16 1.7v.01zm3.62-3.98c1.88 2.99-.85 7.17-4.37 6.37-2.8-.57-4.16-5.42-1.23-6.71 1.3-1.93 4.52-1.71 5.6.35v-.01zm11.901 58.19c-.31.16-.69.19-1.09-.03-3.95-2.32-7.64-5.08-11.75-7.15-.53-.42-1.69-.94-2.73-1.54-.85 6.09-2.26 12.12-3.03 18.19.95.51 1.45 1.13 1.64 1.71.82.35 1.69 1.07 2.41 1.26 1.94.86 3.91 1.64 5.82 2.59 1.48.93 3.19 1.47 4.63 2.29.33-1.09 1-2.29 1.08-3.11 1.41-4.65 2.37-9.4 3.02-14.21zm1.56-1.46c2.07.02-.24 7.58-.35 9.11-.77 3.61-1.78 7.16-2.93 10.66-.09.74-.55 1.49-1.3 1.5-.33.28-.78.41-1.22.22-2.58-1.14-5.03-2.56-7.6-3.72-1.3-.87-6.36-2.04-7.04-3.8-.08-.06-.15-.13-.23-.2-3.07-1.78-1.76-4.93-1.22-7.76.67-3.38 1.13-6.79 1.74-10.18.48-1.19.11-3.88 1.08-4.87-.15-.47.02-.96.67-1.47 1.25-.45 2.07 1.07 3.17 1.46 3.2 1.9 6.55 3.54 9.61 5.66 1.34.93 2.66 1.89 4.12 2.63.4.21.6.53.64.88.26-.13.57-.18.86-.12zm-5.731 64.2c2.73-.08 1.34-3.16-.77-2.06-.14.13-.2.31-.34.44.58.62-.05 1.65 1.19 1.62h-.08zm2.38-4.12c3.81 2.42.36 7.9-3.59 6.38-1.5-.44-2.82-2.55-1.7-3.92-1.4-2.79 3.51-3.83 5.29-2.46zm10.18-1.39c2.72-.08 2.09-3.92-.82-2.26.16.39.12.86-.11 1.21.03.39.31.82.58 1 .12.02.24.04.35.05zm.9-5.19c5.801.88 3.13 9.46-2.24 7.39-1.9-.67-3.26-4.71-.65-5.2-.63-1.61 1.67-2.28 2.89-2.19zm12.06-1.72s-.05-.09-.07-.14c.02.05.05.09.07.14zm1.15.56c-.47-.08-.95-.31-1.23-.7a.717.717 0 01-.07-.25c.23-.35.29-.81.12-1.2.8-1.03 2.25-.59 2.77.5 0 .79-.78 1.67-1.59 1.65zm2.46-4.36c3.63 2.22.34 7.91-3.4 6.69-2.1-.38-4.13-3.61-1.96-5.09-.37-.8.29-1.52.92-1.95 1.34-1 3.17-.54 4.44.34v.01zm9.89-3.17c2.5-.26 1.94-3.29-.58-2.62.31.74-.59 1.35-.23 2.08.06.19.31.35.4.46.14.05.29.09.45.11l-.03-.02-.01-.01zm3.22-3.9c3.33 3.7-3.07 9.03-5.99 4.9-.97-1.3-.9-4.55 1.23-4.45-.37-2.61 3.73-1.88 4.76-.45z" fill="#B93F25"/></g><defs><clipPath id="clip0_1259_4800"><path fill="#fff" transform="translate(0 -7)" d="M0 0h153.8v239.77H0z"/></clipPath></defs></svg>