<svg width="600" height="550" viewBox="0 0 600 550" fill="none" xmlns="http://www.w3.org/2000/svg"><g clip-path="url(#clip0_1263_17904)"><path d="M404.448 207.36s90.53 24.39 110.35 127.93c19.76 103.22-32.73 176.96-201.2 177.42-168.49-.44-221-74.19-201.23-177.42 19.82-103.54 110.35-127.93 110.35-127.93l4.41-12.28s-63.88-51.48-59.47-68.44c4.41-16.96 57.82 13.45 88.11 0s84.8-11.76 115.09-5.3c30.29 6.47 50.66 2.37 50.66 2.37s19.82-11.7 34.69-1.17c14.87 10.53-29.19 52.65-55.35 70.78l3.59 14.04z" fill="#F94B4B"/><path d="M313.599 514.2c-87.33-.23-147.92-20.13-180.08-59.15-24.56-29.79-32.17-70.18-22.62-120.05 10.33-53.95 40.06-86.17 63.18-103.7 22.49-17.05 43.3-23.9 47.5-25.17l3.79-10.56c-9.58-7.78-63.52-52.5-59.15-69.31 2.5-9.64 16.7-6.59 34.68-2.72 17.45 3.76 39.16 8.43 54.27 1.72 31.63-14.05 86.88-11.61 116.01-5.39 27.89 5.95 47.5 2.82 49.82 2.41 2.44-1.38 21.32-11.42 36.08-.97 2.42 1.71 3.64 4.18 3.62 7.34-.09 17.27-38 51.14-58.13 65.3l3.12 12.21c4.39 1.34 25.07 8.21 47.41 25.14 23.12 17.53 52.85 49.75 63.18 103.7 9.55 49.87 1.94 90.26-22.62 120.05-32.16 39.01-92.74 58.92-180.05 59.15h-.01zm-135.96-391.35c-4.61 0-7.74 1.11-8.53 4.16-3.41 13.15 41.4 52.75 58.96 66.9l.83.67-5.03 14.03-.76.2c-.22.06-22.73 6.28-47.33 24.96-22.66 17.21-51.8 48.84-61.94 101.8-9.37 48.95-1.97 88.51 21.99 117.58 31.57 38.3 91.38 57.83 177.77 58.06 86.36-.23 146.17-19.77 177.74-58.06 23.97-29.07 31.36-68.63 21.99-117.58-10.14-52.96-39.28-84.59-61.94-101.8-24.6-18.68-47.1-24.9-47.33-24.96l-.85-.23-4.06-15.9.86-.59c23.47-16.28 57.62-49.08 57.69-63.45.01-2.15-.76-3.74-2.36-4.88-13.89-9.83-32.87 1.13-33.06 1.24l-.22.13-.25.05c-.84.17-21.03 4.08-51.27-2.37-27.91-5.96-83.49-8.43-114.17 5.2-16 7.11-38.25 2.32-56.12-1.53-8.75-1.88-16.84-3.63-22.61-3.63z" fill="#58393E"/><path d="M355.199 175.27c-1.12 0-2.34-.1-3.69-.33-5.16-.86-10.83-2.13-16.83-3.48-17.02-3.82-38.19-8.57-65.14-7.97-29.61.66-44.64-.9-48.73-5.05-.84-.86-1.25-1.84-1.21-2.94.03-.9.41-1.67 1.11-2.29 2.32-2.04 7.95-1.98 12.27-1.58 1.11.1 1.77-.71 1.99-1.44.22-.72.13-1.8-.83-2.43-1.04-.69-2.43-1.33-4.12-1.9-3.11-1.06-8.92-2.2-15.65-3.53-14.11-2.79-31.67-6.25-36.98-11.34-2.61-2.5-3.66-4.71-3.11-6.58.81-2.77 4.79-3.57 4.96-3.6l.23 1.18s-3.43.7-4.04 2.77c-.41 1.39.56 3.25 2.79 5.38 5.07 4.84 22.43 8.27 36.39 11.03 6.77 1.34 12.62 2.49 15.8 3.57 1.8.61 3.28 1.3 4.4 2.04 1.24.82 1.75 2.3 1.31 3.77-.45 1.51-1.76 2.43-3.25 2.29-5.77-.54-9.81-.08-11.37 1.29-.45.4-.68.87-.71 1.43-.03.76.25 1.43.86 2.05 3.74 3.8 19.39 5.33 47.85 4.7 27.1-.61 48.35 4.17 65.43 8 5.98 1.34 11.63 2.61 16.76 3.47 10.27 1.71 12.78-4.02 15.2-9.56 1.99-4.54 4.04-9.24 10.63-8.04 4.05.74 7.99 2.2 11.79 3.62 8.89 3.31 17.3 6.43 25.7-.27 6.49-5.17 5.29-12.7 4.13-19.99-.99-6.24-1.93-12.13 1.91-16.23l.88.82c-3.44 3.67-2.55 9.28-1.6 15.22 1.16 7.27 2.47 15.51-4.56 21.11-8.94 7.12-17.65 3.88-26.87.45-3.75-1.4-7.64-2.84-11.59-3.56-5.65-1.03-7.27 2.67-9.32 7.34-2.19 5-4.63 10.59-12.81 10.59l.02-.01z" fill="#000"/><mask id="mask0_1263_17904" style="mask-type:luminance" maskUnits="userSpaceOnUse" x="174" y="0" width="248" height="175"><path d="M179.368 121.39s-9.26 1.8-1.55 9.16c7.71 7.37 42.77 11.46 52.41 14.74 1.88.64 3.26 1.31 4.26 1.97 1.11.74 1.39 2.02 1.07 3.1-.33 1.1-1.29 1.99-2.62 1.87-4.71-.44-12.58-.59-12.73 3.29-.21 5.46 12.72 8.19 49.33 7.37 36.61-.82 62.43 8.19 82.08 11.46 19.65 3.27 12.33-20.06 25.82-17.6 13.49 2.46 25.64 13.05 37.97 3.23 12.33-9.82-1.96-27.68 6.1-36.27 0 0 4.2-127.77-87.64-123.61-91.84 4.16-151.67 51.91-154.5 121.29z" fill="#fff"/></mask><g mask="url(#mask0_1263_17904)"><path d="M210.549 159.16c0 15.41 13.58 27.91 30.34 27.91 16.76 0 30.34-12.49 30.34-27.91v-9.7c-10.27 0-20.07 14.41-30.34 14.41s-20.38-14.41-30.34-14.41v9.7z" fill="#FFC05A"/><path d="M240.889 188.57c-17.56 0-31.84-13.19-31.84-29.41v-11.2h1.5c5.46 0 10.83 3.8 16.04 7.48 4.82 3.41 9.8 6.93 14.3 6.93s9.55-3.52 14.29-6.92c5.13-3.68 10.43-7.49 16.04-7.49h1.5v11.2c0 16.21-14.28 29.41-31.84 29.41h.01zm-28.84-37.49v8.08c0 14.56 12.94 26.41 28.84 26.41s28.84-11.85 28.84-26.41v-8.09c-4.2.63-8.56 3.77-12.79 6.81-5.13 3.68-10.43 7.49-16.04 7.49-5.61 0-10.83-3.8-16.03-7.48-4.29-3.03-8.71-6.16-12.8-6.81h-.02z" fill="#58393E"/><path d="M240.889 121.55c-16.76 0-30.34 12.49-30.34 27.91s13.58 27.91 30.34 27.91c16.76 0 30.34-12.49 30.34-27.91s-13.58-27.91-30.34-27.91zm0 36.89l-12.12-10.36 12.12-10.36 12.66 10.36-12.66 10.36z" fill="#FFC05A"/><path d="M240.889 178.87c-17.56 0-31.84-13.19-31.84-29.41s14.28-29.41 31.84-29.41c17.56 0 31.84 13.19 31.84 29.41s-14.28 29.41-31.84 29.41zm0-55.82c-15.9 0-28.84 11.85-28.84 26.41s12.94 26.41 28.84 26.41 28.84-11.85 28.84-26.41-12.94-26.41-28.84-26.41zm-.02 37.34l-14.41-12.31 14.41-12.31 15.05 12.31-15.05 12.31zm-9.79-12.31l9.83 8.4 10.27-8.4-10.27-8.4-9.83 8.4z" fill="#58393E"/><path d="M234.6 153.07l6.29-5.65 6.57 5.65 6.09-4.99-12.66-10.36-12.12 10.36 5.83 4.99z" fill="#FFC05A"/><path d="M234.629 155.06l-8.17-6.98 14.41-12.31 15.05 12.31-8.49 6.94-6.52-5.61-6.28 5.64v.01zm6.24-9.64l6.61 5.69 3.7-3.03-10.27-8.4-9.83 8.4 3.5 2.99 6.29-5.65z" fill="#58393E"/><path d="M365.529 153.39c0 15.41 13.58 27.91 30.34 27.91 16.76 0 30.34-12.49 30.34-27.91v-9.7c-10.27 0-20.07 14.41-30.34 14.41s-20.38-14.41-30.34-14.41v9.7z" fill="#FFC05A"/><path d="M395.869 182.79c-17.56 0-31.84-13.19-31.84-29.41v-11.2h1.5c5.46 0 10.83 3.8 16.04 7.48 4.82 3.41 9.8 6.93 14.3 6.93s9.55-3.52 14.29-6.93c5.13-3.68 10.43-7.49 16.04-7.49h1.5v11.2c0 16.21-14.28 29.41-31.84 29.41l.01.01zm-28.84-37.48v8.08c0 14.56 12.94 26.41 28.84 26.41s28.84-11.85 28.84-26.41v-8.09c-4.2.64-8.56 3.77-12.79 6.81-5.13 3.68-10.43 7.49-16.04 7.49-5.61 0-10.83-3.8-16.03-7.48-4.29-3.03-8.71-6.16-12.8-6.81h-.02z" fill="#58393E"/><path d="M395.869 115.78c-16.76 0-30.34 12.49-30.34 27.91s13.58 27.91 30.34 27.91c16.76 0 30.34-12.49 30.34-27.91s-13.58-27.91-30.34-27.91zm0 36.88l-12.12-10.36 12.12-10.36 12.66 10.36-12.66 10.36z" fill="#FFC05A"/><path d="M395.869 173.09c-17.56 0-31.84-13.19-31.84-29.41s14.28-29.41 31.84-29.41c17.56 0 31.84 13.19 31.84 29.41s-14.28 29.41-31.84 29.41zm0-55.81c-15.9 0-28.84 11.85-28.84 26.41s12.94 26.41 28.84 26.41 28.84-11.85 28.84-26.41-12.94-26.41-28.84-26.41zm-.02 37.34l-14.41-12.31 14.41-12.31 15.05 12.31-15.05 12.31zm-9.79-12.32l9.83 8.4 10.27-8.4-10.27-8.4-9.83 8.4z" fill="#58393E"/><path d="M389.586 147.29l6.28-5.65 6.57 5.65 6.1-4.99-12.67-10.35-12.12 10.35 5.84 4.99z" fill="#FFC05A"/><path d="M389.607 149.28l-8.169-6.98 14.41-12.31 15.049 12.31-8.489 6.94-6.52-5.61-6.281 5.64v.01zm6.241-9.63l6.609 5.69 3.701-3.03-10.27-8.4-9.831 8.4 3.5 2.99 6.291-5.65z" fill="#58393E"/><path d="M338.578 126.05c.14 10.3 14.11 18.42 31.19 18.16 17.08-.27 30.81-8.83 30.67-19.13l-.17-12.19-29.29 13.47-32.57-12.5.17 12.19z" fill="#FFC05A"/><path d="M368.939 145.71c-11 0-20.99-3.35-26.85-9.05-3.22-3.13-4.96-6.79-5.01-10.59l-.2-14.41 34.05 13.07 30.81-14.17.2 14.5c.15 11.1-14.27 20.37-32.15 20.65h-.85zm-28.86-19.68c.04 2.99 1.46 5.92 4.1 8.48 5.37 5.22 15.17 8.35 25.57 8.19 16.23-.25 29.33-8.15 29.19-17.61l-.14-9.89-27.77 12.77-31.09-11.93.14 9.98v.01z" fill="#58393E"/><path d="M400.269 112.88c-.14-10.3-14.11-18.42-31.19-18.16-17.08.27-30.81 8.83-30.67 19.13.14 10.3 14.11 18.42 31.19 18.16 17.08-.27 30.81-8.83 30.67-19.13zm-29.98 6.3l-11.67-6.57 9.79-6.53 11.6 6.04-9.73 7.06h.01z" fill="#FFC05A"/><path d="M368.769 133.52c-11 0-20.99-3.35-26.85-9.05-3.22-3.13-4.96-6.79-5.01-10.59-.15-11.1 14.27-20.37 32.15-20.65 11.33-.18 21.69 3.2 27.7 9.04 3.22 3.13 4.96 6.79 5.01 10.59.15 11.1-14.27 20.37-32.15 20.65h-.85v.01zm1.11-37.3h-.77c-16.23.25-29.33 8.15-29.19 17.61.04 2.99 1.46 5.92 4.1 8.48 5.37 5.22 15.17 8.36 25.57 8.19 16.23-.25 29.32-8.15 29.19-17.61-.04-2.99-1.46-5.92-4.1-8.48-5.24-5.09-14.69-8.2-24.79-8.2l-.01.01zm.51 24.74l-14.63-8.24 12.57-8.38 14.54 7.57-12.47 9.05h-.01zm-8.9-8.45l8.7 4.9 6.99-5.07-8.66-4.51-7.02 4.68h-.01z" fill="#58393E"/><path d="M366.049 116.8l3.87-2.94 4.22 2.53 5.88-4.26-11.6-6.04-9.79 6.53 7.42 4.18z" fill="#FFC05A"/><path d="M366.18 118.59l-10.42-5.86 12.57-8.38 14.54 7.57-8.65 6.27-4.2-2.52-3.84 2.92zm-4.69-6.08l4.44 2.5 3.89-2.96 4.24 2.55 3.11-2.26-8.66-4.51-7.02 4.68z" fill="#58393E"/><path d="M315.17 190.05c10.43 10.71 28.33 9.03 39.97-3.77 11.65-12.8 12.63-31.85 2.2-42.57l-6.57-6.74c-7.14 7.84-4.2 25.34-11.34 33.19-6.92 7.6-23.92 5.55-30.84 13.15 2.19 2.25 4.38 4.5 6.57 6.74h.01z" fill="#FFC05A"/><path d="M332.199 198.6c-6.97 0-13.39-2.65-18.11-7.5l-7.55-7.76.95-1.04c3.78-4.15 10.09-5.61 16.19-7.03 5.66-1.31 11.51-2.67 14.65-6.12 3.27-3.59 4.3-9.81 5.3-15.83 1.07-6.44 2.17-13.11 6.04-17.36l1.07-1.18 7.68 7.89c10.96 11.25 9.98 31.27-2.17 44.62-6.41 7.04-15.01 11.16-23.59 11.31h-.46zm-21.47-15.26l5.51 5.66c4.24 4.36 10.06 6.71 16.37 6.59 7.76-.13 15.57-3.89 21.42-10.33 11.1-12.2 12.11-30.37 2.24-40.51l-5.37-5.52c-2.5 3.68-3.42 9.21-4.31 14.57-1.07 6.44-2.17 13.11-6.04 17.36-3.78 4.15-10.09 5.61-16.19 7.03-5.09 1.18-10.34 2.4-13.63 5.15z" fill="#58393E"/><path d="M310.81 140.74c-11.65 12.8-12.63 31.85-2.2 42.57 10.43 10.71 28.33 9.03 39.97-3.77 11.65-12.8 12.63-31.85 2.2-42.57-10.43-10.71-28.33-9.03-39.97 3.77zm24.96 25.64l-15.43 2.06 1.42-16.45 15.81-2.47-1.79 16.87-.01-.01z" fill="#FFC05A"/><path d="M325.64 191.86c-6.97 0-13.39-2.65-18.11-7.5-10.96-11.25-9.98-31.27 2.17-44.62 6.41-7.04 15.01-11.16 23.59-11.31 7.14-.12 13.74 2.54 18.57 7.5 10.96 11.25 9.98 31.27-2.17 44.62-6.41 7.04-15.01 11.16-23.59 11.31h-.46zm-13.72-50.11c-11.1 12.2-12.11 30.37-2.24 40.51 4.24 4.36 10.06 6.7 16.37 6.59 7.76-.13 15.57-3.89 21.42-10.33 11.1-12.2 12.11-30.37 2.24-40.51-4.24-4.36-10.05-6.69-16.37-6.59-7.76.13-15.57 3.89-21.42 10.33zm6.76 28.42l1.68-19.49 18.9-2.95-2.13 19.98-18.46 2.46h.01zm4.46-16.89l-1.16 13.42 12.41-1.65 1.46-13.75-12.72 1.99.01-.01z" fill="#58393E"/><path d="M327.76 167.449l.55-8.73 8.39-1.09.86-8.12-15.81 2.47-1.42 16.46 7.43-.99z" fill="#FFC05A"/><path d="M318.68 170.169l1.68-19.49 18.9-2.95-1.2 11.24-8.33 1.08-.55 8.721-10.5 1.399zm4.46-16.89l-1.16 13.42 4.35-.58.55-8.73 8.44-1.1.53-5-12.72 1.99h.01z" fill="#58393E"/><path d="M267.058 186.54c6.1 8 21.81 5.24 35.09-6.18 13.28-11.42 19.1-27.16 13-35.16l-7.22-9.48-15.21 29.81-32.89 11.53 7.22 9.48h.01z" fill="#FFC05A"/><path d="M277.698 192.62c-.72 0-1.43-.04-2.12-.11-4.17-.44-7.52-2.19-9.71-5.06l-8.47-11.12 34.27-12.02 16.02-31.4 8.67 11.38c6.67 8.76.86 25.1-13.22 37.21-8.13 6.99-17.66 11.12-25.42 11.12h-.02zm-15.41-14.82l5.97 7.84c1.7 2.23 4.27 3.54 7.64 3.89 7.31.77 16.99-3.18 25.28-10.3 12.67-10.89 18.41-25.75 12.79-33.12l-5.78-7.58-14.4 28.22-31.5 11.05z" fill="#58393E"/><path d="M307.928 135.72c-6.1-8-21.81-5.24-35.09 6.18-13.28 11.42-19.1 27.16-13.01 35.16 6.1 8 21.81 5.24 35.09-6.18 13.28-11.42 19.1-27.16 13-35.16h.01zm-19.91 24.62l-12.99 2.49 3.91-11.56 12.64-2.86-3.55 11.93h-.01z" fill="#FFC05A"/><path d="M270.479 183.14c-.72 0-1.43-.04-2.12-.11-4.17-.44-7.52-2.19-9.71-5.06-6.67-8.76-.86-25.1 13.22-37.21 8.89-7.64 19.45-11.86 27.55-11.01 4.17.44 7.52 2.19 9.71 5.06 6.67 8.76.86 25.1-13.22 37.21-8.13 6.99-17.66 11.12-25.42 11.12h-.01zm26.77-50.49c-7.04 0-15.82 3.86-23.42 10.39-12.67 10.89-18.41 25.75-12.79 33.12 1.7 2.23 4.27 3.54 7.64 3.89 7.31.77 16.99-3.18 25.28-10.3 12.67-10.89 18.4-25.75 12.79-33.12-1.7-2.23-4.27-3.54-7.64-3.89-.6-.06-1.22-.09-1.86-.09zm-24.47 32.14l5-14.8 15.96-3.61-4.54 15.26-16.42 3.14v.01zm7.3-12.25l-2.81 8.33 9.57-1.83 2.56-8.6-9.32 2.11v-.01z" fill="#58393E"/><path d="M283.3 161.25l1.33-4.86 4.8-.77 2.14-7.21-12.64 2.86-3.91 11.56 8.28-1.58z" fill="#FFC05A"/><path d="M272.78 164.79l5-14.8 15.96-3.61-3.15 10.57-4.77.77-1.33 4.82-11.72 2.24.01.01zm7.3-12.25l-2.81 8.33 4.83-.92 1.34-4.88 4.82-.78 1.15-3.85-9.32 2.11-.01-.01zm72.54-133.1a49.78 49.78 0 005.82-14.35c.15-.65-.13-1.52-.89-1.68-1.41-.3-2.84.09-3.74 1.27-.9 1.18-1.26 2.89-1.69 4.28a60.73 60.73 0 00-2.05 9.24c-.03.18 0 .36.07.53.03 1.16 1.73 1.95 2.47.71h.01zm6.969 4.62c.63.39 1.45.18 1.85-.42.94-1.42 1.87-3.02 2.92-4.29.95-1.15 2.11-2.17 2.81-3.52.43-.82.87-1.83.4-2.73-.61-1.16-2.04-.95-2.88-.2-1.25 1.12-2.34 2.53-3.16 3.99-.92 1.62-1.58 3.37-2.23 5.12-.04.07-.09.14-.13.2-.4.61-.18 1.47.42 1.85zm10.79 7.36c.26-.04.51-.13.72-.31.27-.23.55-.46.82-.68.24-.12.48-.24.73-.35.7-.33 1.41-.65 2.12-.98 1.43-.67 2.81-1.41 4.08-2.36.64-.48 1.45-1.04 1.71-1.83.19-.55.08-1.2-.32-1.63-.41-.43-1-.58-1.58-.55-1.82.08-3.19 1.27-4.53 2.38-1.22 1.01-2.44 2.02-3.66 3.04-.43.21-.87.41-1.26.68-.31.22-.54.5-.65.86-.17.55.01.98.34 1.42.33.44.97.51 1.47.32l.01-.01z" fill="#58393E"/><path d="M370.1 215.41c14.52-8.4 10.78-28.46 8.05-43.1-.31-1.65-.6-3.23-.86-4.73-1.17-6.81-2.12-13.77-3.04-20.5-.51-3.72-1.01-7.44-1.56-11.14a8510.36 8510.36 0 00-5.26-35.14l-1.7-11.22c-1.18-7.79-2.35-15.58-3.55-23.37-.83-5.41-1.68-10.71-2.96-15.92-1.31-5.34-2.7-10.47-5.29-14.65-2.4-3.86-6.44-5.09-10.8-5.39-2.36-.16-4.82-.06-7.17.04-1.55.07-3.01.13-4.41.12-1.33 0-2.66-.03-3.98-.05-1.56-.03-3.13-.05-4.69-.06-3.15 0-6.4.42-9.55.82-.96.12-1.92.25-2.88.36-11.13 1.31-22.3 3.09-33.22 5.29-1 .2-2.02.4-3.07.6-8.38 1.6-17.88 3.41-23.25 10.12-5.23 6.54-5.15 16.1-4.49 23.7.45 5.2 1.35 10.44 2.22 15.5.56 3.24 1.13 6.59 1.59 9.91 3.26 23.83 6.85 47.76 10.25 70.22.48 3.18.94 6.35 1.4 9.54 1.13 7.81 2.31 15.89 3.76 23.77 1.17 6.35 2.49 11.42 4.15 15.94 1.69 4.58 3.76 9.18 8.88 10.63 3.76 1.06 7.93.78 11.96.52 1.06-.07 2.11-.14 3.14-.19l2.33-.09c1.88-.06 3.82-.13 5.71-.31 4.43-.43 8.86-.89 13.29-1.38 8.19-.9 15.03-1.74 21.51-2.63 1.56-.21 3.14-.42 4.71-.62 5.16-.66 10.49-1.35 15.57-2.47.43-.1.85-.04 1.2.14 4.27-1.02 8.38-2.19 12.01-4.28v.02zm-43.33 3.37c-4.98 1.15-11.62-1.39-11.8-7.18-.15-5.12 3.52-10.61 9.18-9.43.1.02.18.07.26.11 3.71-1.2 8.22 1.67 9.27 5.31 1.44 5-2 10.05-6.92 11.18l.01.01zm20.44-22.69c-7.67 1.95-15.95 3.45-25.99 4.69-.29.25-.67.41-1.09.45l-3.46.33c-7.37.69-14.94 1.4-22.35.89-1.94-.13-3.88-.35-5.79-.68-5.44-.92-9.4-4.2-12.1-10.02-2.76-5.94-4.02-12.65-5.24-19.14-.3-1.61-.6-3.21-.92-4.78-3.83-18.75-6.92-37.8-9.2-56.63a692.29 692.29 0 01-2.84-28.5c-.07-.84-.14-1.7-.22-2.58-.67-7.41-1.44-15.82 3.81-21.65 2.9-3.22 7-4.86 9.84-5.81 4.08-1.37 8.23-2.38 12.1-3.26 7.93-1.81 15.09-3.08 21.89-3.88 7.64-.9 17.69-1.8 27.57-.83 5.98.59 9.66 2.42 12.72 6.3 4.24 5.38 5.68 12.27 7.06 18.92.17.83.35 1.66.52 2.48 4.03 18.66 7.33 37.68 9.79 56.54 1.25 9.57 2.31 19.29 3.16 28.86l.12 1.32c.37 4.16.75 8.45.96 12.69.19 3.93.17 8.12-1.33 12.06-3.09 8.16-12.29 10.5-19 12.2l-.01.03z" fill="#99DBF2"/><path d="M382.759 183.03c-.53-5.48-1.43-11-2.31-16.34-.58-3.54-1.18-7.19-1.66-10.8-1.57-11.73-3.31-24-5.17-36.47-1.41-9.47-2.85-18.94-4.29-28.42l-1.19-7.86c-.37-2.44-.72-4.89-1.07-7.34-1.22-8.5-2.47-17.29-4.58-25.75-1.23-4.92-2.78-10.55-5.65-15.12-2.53-4.02-6.68-6.45-12-7.02-2.58-.26-5.21-.19-7.74-.1-1.2.04-2.39.08-3.58.08-3.36 0-6.72-.03-10.08-.09-2.98-.05-5.98.3-8.87.64l-1.86.21c-5.71.64-11.49 1.41-17.19 2.29-5.81.9-11.67 1.94-17.43 3.1l-1.58.32c-4.56.91-9.27 1.85-13.79 3.24-9.58 2.96-15.9 8.94-18.28 17.31-2.44 8.55-1.34 17.74-.01 26.42.44 2.87.89 5.74 1.33 8.61 1.08 6.97 2.2 14.18 3.2 21.29 1.82 12.89 3.72 25.65 5.35 36.44 1.28 8.46 2.56 16.92 3.85 25.38l1.52 10c.2 1.32.4 2.65.59 3.98 1.42 9.62 2.89 19.56 6.3 28.86 1.61 4.38 3.73 9.27 8.53 11.85 2.35 1.26 4.97 1.77 7.55 1.95 2.22.15 4.42.06 6.39-.03l2.84-.12c4.55-.19 9.26-.38 13.88-.85 13.39-1.36 27.64-2.88 41.7-5.28 2.18-.37 4.34-.87 6.44-1.36.89-.21 1.79-.41 2.69-.61.46-.1.82-.34 1.08-.65 8.01-1.77 16.69-4.5 21.48-12.46 4.6-7.65 4.41-17.1 3.61-25.32v.02zm-25.74 36.78c-5.1 1.12-10.45 1.81-15.62 2.48-1.58.2-3.16.41-4.73.62-6.51.89-13.36 1.73-21.58 2.63-4.44.49-8.88.95-13.33 1.39-1.89.18-3.84.25-5.72.31-.78.03-1.56.05-2.34.09-1.03.05-2.09.12-3.15.19-4.04.27-8.23.55-11.99-.52-5.14-1.45-7.22-6.06-8.91-10.66-1.67-4.54-2.99-9.62-4.16-15.99-1.46-7.9-2.63-16-3.77-23.84-.46-3.19-.93-6.38-1.41-9.56-3.41-22.53-7.01-46.53-10.28-70.42-.46-3.33-1.03-6.69-1.59-9.94-.87-5.08-1.77-10.33-2.22-15.54-.66-7.62-.74-17.21 4.5-23.77 5.38-6.73 14.91-8.54 23.31-10.15 1.05-.2 2.08-.4 3.08-.6 10.95-2.21 22.16-4 33.32-5.31.96-.11 1.92-.24 2.89-.36 3.16-.41 6.42-.83 9.57-.83 1.57 0 3.14.03 4.7.06 1.33.02 2.66.05 4 .05 1.41 0 2.87-.06 4.42-.12 2.36-.1 4.82-.21 7.19-.04 4.38.3 8.42 1.53 10.83 5.4 2.6 4.19 4 9.34 5.31 14.69 1.28 5.22 2.13 10.53 2.97 15.96 1.2 7.81 2.38 15.63 3.56 23.44l1.7 11.25c1.78 11.74 3.55 23.49 5.28 35.24.55 3.72 1.05 7.45 1.56 11.18.92 6.75 1.87 13.73 3.05 20.56.26 1.5.56 3.09.86 4.74 2.74 14.69 6.49 34.8-8.07 43.23-3.63 2.1-7.76 3.27-12.04 4.29-.35-.18-.76-.24-1.2-.14l.01-.01z" fill="#58393E"/><path d="M321.02 200.06c3.89-.64 7.89-1.38 12.16-2.24 4.02-.81 8.78-1.82 13.53-3.11l.73-.2c3.45-.93 7.02-1.9 10.18-3.49 3.74-1.88 6.139-4.94 6.929-8.85.75-3.69.451-7.59.151-11.35l-.1-1.32a717.66 717.66 0 00-6.21-54.91c-1.41-9.25-3-18.57-4.75-27.67l-.76-4.03c-1.38-7.33-2.8-14.91-4.85-22.13-1.44-5.08-4.02-12.02-9.78-13.65-1.91-.54-3.901-.82-5.921-.96-2.65-.18-5.349-.12-8.009-.06h-.17c-8.46.2-17.15 1.01-25.81 2.42-7.8 1.27-16.99 2.95-25.97 5.84-3.46 1.12-6.98 2.53-9.2 5.29-2.69 3.34-2.92 8-2.83 11.69.2 7.75 1.03 15.65 1.84 23.3l.39 3.68c.96 9.32 2.11 18.69 3.42 27.83 2.67 18.68 6.069 37.26 10.119 55.24l.171.74c1.31 5.85 3.1 13.87 8.65 16.78 2.89 1.51 6.86 1.58 10.36 1.65l1.44.03c8.23.22 16.05-.01 23.24-.69.39-.04.74.02 1.04.16l.01.01z" fill="#FEF7E0"/><path d="M366.2 183.89c1.49-3.94 1.52-8.12 1.33-12.06-.21-4.24-.59-8.54-.96-12.69l-.12-1.32c-.84-9.58-1.91-19.29-3.16-28.86a693.708 693.708 0 00-9.79-56.54c-.18-.82-.35-1.64-.52-2.48-1.39-6.66-2.82-13.54-7.06-18.92-3.06-3.88-6.75-5.71-12.72-6.3-9.87-.98-19.92-.07-27.57.83-6.8.8-13.96 2.07-21.89 3.88-3.87.88-8.02 1.89-12.1 3.26-2.83.95-6.94 2.59-9.84 5.81-5.25 5.83-4.48 14.23-3.81 21.65.08.88.16 1.74.22 2.58.75 9.49 1.7 19.08 2.84 28.5 2.27 18.82 5.37 37.87 9.2 56.63.32 1.57.62 3.16.92 4.78 1.22 6.49 2.48 13.2 5.24 19.14 2.7 5.82 6.66 9.1 12.1 10.02 1.92.33 3.85.54 5.79.68 7.41.51 14.98-.2 22.35-.89l3.46-.33c.42-.04.8-.2 1.09-.45 10.04-1.25 18.32-2.74 25.99-4.69 6.71-1.7 15.9-4.04 19-12.2l.01-.03zm-70.65 15.56c-3.45-.07-7.37-.14-10.21-1.63-5.47-2.87-7.24-10.77-8.53-16.54l-.16-.73c-3.99-17.72-7.34-36.04-9.97-54.44-1.29-9.01-2.42-18.24-3.37-27.43l-.38-3.63c-.79-7.54-1.62-15.32-1.81-22.96-.09-3.63.14-8.23 2.79-11.52 2.19-2.72 5.65-4.11 9.06-5.21 8.85-2.85 17.9-4.51 25.59-5.76 8.54-1.38 17.1-2.19 25.44-2.38h.16c2.62-.07 5.28-.13 7.89.05 2 .14 3.96.42 5.84.95 5.68 1.61 8.22 8.45 9.64 13.45 2.02 7.12 3.42 14.59 4.78 21.81l.75 3.97c1.72 8.98 3.29 18.15 4.68 27.27a712.43 712.43 0 016.12 54.11l.1 1.3c.29 3.71.59 7.55-.15 11.19-.78 3.86-3.14 6.87-6.83 8.72-3.12 1.57-6.64 2.52-10.04 3.44l-.71.19c-4.69 1.28-9.37 2.27-13.34 3.07-4.22.85-8.15 1.57-11.99 2.2-.3-.13-.64-.19-1.03-.15-7.09.67-14.8.9-22.91.68l-1.42-.03.01.01zm-6.89-155.43h.08c1.22.09 2.37-.11 3.49-.31l.85-.15.41-.06c1.53-.24 3.06-.48 4.6-.7 3.51-.5 6.71-.82 9.79-.99.81-.04 1.45-.39 1.77-.96.35-.63.25-1.41-.25-1.99-.46-.54-1.2-.82-2.02-.77-3.98.25-7.25.61-10.28 1.14l-1.15.19c-2.66.44-5.97.99-8.04 2.42-.47.32-.65.89-.45 1.39.18.44.64.75 1.21.79h-.01zm23.269-4.11c.06.15.13.29.22.43.42.61 1.06.97 1.79 1.02h.33c.93-.05 1.78-.58 2.2-1.38.38-.72.37-1.53-.04-2.24-.44-.76-1.26-1.27-2.13-1.28-.82-.03-1.57.28-2.04.84-.59.69-.75 1.63-.42 2.45.02.05.05.11.07.16h.02z" fill="#58393E"/><path d="M308.55 110.4l-5.09 17.6c-.02.07-.03.15-.02.24.02.22.17.4.36.49a21.646 21.646 0 009.88 1.2 21.79 21.79 0 009.36-3.28h.01c.18-.12.29-.34.26-.57a.44.44 0 00-.07-.22v-.02l-8.62-15.86s0-.02-.01-.02c-.61-1.17-1.9-1.9-3.29-1.74a3.316 3.316 0 00-2.77 2.18zm-18.34.1a.61.61 0 00-.539.66v.02a21.794 21.794 0 007.339 13.54l.02.01c.12.1.28.15.45.13a.63.63 0 00.52-.43l4.15-14.38v-.01c.02-.07.031-.15.021-.23a.614.614 0 00-.671-.54l-11.29 1.23zm30.94-3.35a.62.62 0 00-.54.67c0 .08.04.16.07.23l7.15 13.16a.6.6 0 00.6.31c.16-.02.31-.1.4-.22 0 0 .01-.02.02-.02 3.06-4.11 4.7-9.31 4.26-14.79v-.02a.606.606 0 00-.67-.54l-11.29 1.23v-.01zm-15.93-19.92h-.03c-7.69 2.24-13.48 8.54-15.19 16.2v.01c-.01.06-.02.12 0 .19.04.33.341.58.671.54l13.229-1.44h.04c.23-.04.41-.21.47-.43l.77-2.67c1.02-3.92 1.3-7.58.91-10.86l-.11-1.02a.613.613 0 00-.67-.54c-.03 0-.05 0-.08.02m6.94-.15l.11 1.02c.33 3.29 1.38 6.81 3.22 10.42l1.32 2.44c.1.17.27.29.47.31h.11l13.23-1.44c.33-.04.571-.34.541-.67 0-.06-.021-.13-.051-.18-3.32-7.12-10.32-12.03-18.32-12.57h-.11a.62.62 0 00-.54.67" fill="#2E61B4" opacity=".7"/><path d="M316.309 160.47c-5.78 8.27.66 23.74 14.37 34.56 13.72 10.82 29.52 12.89 35.3 4.62l6.84-9.79-30.97-8.22-18.71-30.96-6.84 9.79h.01z" fill="#FFC05A"/><path d="M354.468 206.219c-7.6 0-16.59-3.6-24.72-10.01-14.55-11.48-21-27.55-14.67-36.59l8.16-11.68 19.58 32.41 32.46 8.61-8.07 11.55c-2.08 2.97-5.38 4.87-9.55 5.49-1.03.15-2.1.23-3.19.23v-.01zm-36.93-44.89c-5.32 7.61.99 22.2 14.07 32.52 8.53 6.73 18.35 10.25 25.61 9.17 3.38-.5 5.91-1.92 7.53-4.24l5.61-8.03-29.48-7.82-17.83-29.5-5.52 7.9h.01z" fill="#58393E"/><path d="M372.818 189.86c5.78-8.27-.66-23.74-14.37-34.56-13.72-10.82-29.52-12.89-35.3-4.62-5.78 8.27.66 23.74 14.37 34.56 13.72 10.82 29.52 12.89 35.3 4.62zm-27.4-14.36l-5.5-12.75 11.51 1.14 5.76 12.29-11.76-.68h-.01z" fill="#FFC05A"/><path d="M361.308 196.43c-7.6 0-16.59-3.6-24.72-10.01-14.55-11.48-21-27.55-14.67-36.59 2.08-2.97 5.38-4.87 9.55-5.49 8.18-1.21 18.61 2.45 27.91 9.79 14.55 11.48 21 27.55 14.67 36.59-2.08 2.97-5.38 4.87-9.55 5.49-1.03.15-2.1.23-3.19.23v-.01zm-26.71-49.32c-.93 0-1.83.06-2.69.19-3.38.5-5.91 1.92-7.53 4.24-5.32 7.61.99 22.2 14.07 32.52 8.53 6.73 18.35 10.25 25.61 9.17 3.38-.5 5.91-1.92 7.53-4.24 5.32-7.61-.99-22.2-14.07-32.52-7.52-5.93-16.03-9.36-22.92-9.36zm25.01 30.72l-15.2-.88-6.88-15.94 14.9 1.48 7.18 15.34zm-13.18-3.77l8.33.48-4.33-9.24-8.13-.81 4.13 9.56v.01z" fill="#58393E"/><path d="M343.408 170.87l4.76.16 1.9 4.74 7.11.41-5.76-12.29-11.51-1.14 3.5 8.12z" fill="#FFC05A"/><path d="M359.607 177.83l-10.57-.61-1.89-4.72-4.73-.16-4.89-11.33 14.9 1.48 7.18 15.34zm-8.5-3.5l3.65.21-4.33-9.24-8.13-.81 2.12 4.91 4.78.16 1.91 4.76v.01z" fill="#58393E"/></g><path d="M355.199 176.17c-1.17 0-2.44-.11-3.83-.34-5.19-.86-10.87-2.14-16.88-3.49-16.97-3.81-38.09-8.56-64.92-7.95-38.29.86-46.51-2.39-49.39-5.32-1.02-1.04-1.52-2.25-1.47-3.6.04-1.14.53-2.15 1.42-2.93 2.06-1.8 6.41-2.41 12.95-1.8.73.07.98-.6 1.05-.8.05-.16.24-.95-.46-1.42-.97-.64-2.29-1.25-3.92-1.8-3.05-1.04-8.83-2.18-15.53-3.5-14.22-2.81-31.92-6.3-37.43-11.57-2.88-2.75-4-5.27-3.35-7.49.95-3.23 5.17-4.14 5.65-4.23l.57 2.95c-.75.15-2.98.87-3.35 2.14-.3 1.03.61 2.62 2.55 4.47 4.88 4.66 22.83 8.21 35.94 10.8 6.8 1.34 12.68 2.5 15.92 3.6 1.87.64 3.42 1.36 4.61 2.14 1.55 1.03 2.23 2.95 1.68 4.78-.58 1.93-2.27 3.11-4.2 2.93-5.36-.5-9.36-.1-10.69 1.07-.27.23-.39.47-.4.79-.02.51.17.94.61 1.38 3.55 3.61 18.99 5.06 47.19 4.43 27.2-.61 48.52 4.18 65.65 8.02 5.97 1.34 11.61 2.61 16.71 3.46 9.58 1.59 11.84-3.57 14.23-9.03 2.03-4.64 4.32-9.9 11.62-8.57 4.13.75 8.1 2.23 11.94 3.66 9.02 3.36 16.82 6.26 24.83-.13 6.08-4.84 4.97-11.79 3.8-19.14-.98-6.18-2-12.57 2.14-16.98l2.19 2.05c-3.14 3.35-2.28 8.74-1.37 14.46 1.2 7.51 2.55 16.03-4.89 21.96-9.34 7.44-18.69 3.96-27.74.59-3.72-1.38-7.56-2.81-11.43-3.52-4.73-.86-6.11 1.75-8.33 6.82-2.2 5.02-4.86 11.13-13.64 11.13l-.03-.02z" fill="#58393E"/><path d="M317.24 481.32c-.37 0-.75-.08-1.09-.25-14.93-7.25-90.93-46.82-120.77-113.71a2.5 2.5 0 010-2.04c29.86-66.97 105.86-106.48 120.79-113.72.69-.33 1.49-.33 2.18 0 14.93 7.25 90.94 46.83 120.77 113.72a2.5 2.5 0 010 2.04c-29.87 66.97-105.86 106.47-120.79 113.71-.34.17-.72.25-1.09.25zM200.4 366.35c28.77 63.21 99.99 101.37 116.83 109.69 16.85-8.3 88.05-46.41 116.86-109.69-28.76-63.22-99.99-101.39-116.83-109.7-16.85 8.31-88.06 46.42-116.86 109.7z" fill="#fff"/><path d="M289.749 412.7h-.52l-1.91-1.08c-.86-1.34-1.36-2.93-1.5-4.75l-.41-43.73c-5.44 7.06-8.89 11.84-10.34 14.32l-2.48 2.53-2.22.21-1.86-1.03c-.62-1-.95-2.1-.98-3.31v-.62c3.38-5.38 11.53-15.94 24.45-31.68l-19.59.88-2.22-1.29c-.62-1-.93-2.08-.93-3.26 0-.41.31-1.38.93-2.89 2.48-1 5.1-1.48 7.86-1.45h3.51c1.96 0 3.89-.03 5.79-.1-3.76-5.65-6.05-9.04-6.87-10.18l-.21-2.43.93-2.12c.86-.69 1.86-1.03 3-1.03h.52l2.12 1.24 4.45 5.84c1.76 2.03 2.77 4.43 3.05 7.18l-.41 1.5h8.06c2.03.34 3.05 1.4 3.05 3.15 0 .55-.1 1.19-.31 1.91l-11.73 14.63c2.62 1.96 5.3 3.67 8.04 5.12 2.74 1.45 5.21 3.34 7.42 5.69l.21 2.43-.98 2.12c-.79.69-1.71 1.03-2.74 1.03l-.93-.1-11.01-6.56.62 44.76-.93 2.02c-.79.72-1.76 1.08-2.89 1.08l-.04-.03zm19.69-1.24c-1.1-.14-2.07-.55-2.89-1.24-.83-.96-1.17-2.21-1.03-3.72l1.03-2.07c2.07-.83 4.31-1.24 6.72-1.24h7.34c-.69-1.38-.97-2.76-.83-4.13l1.03-2.07c.96-.83 2.21-1.17 3.72-1.03l2.07 1.03c1.24 1.93 2.14 4.07 2.69 6.41l10.44.41c.69-2.21 1.52-4.41 2.48-6.62.96-.83 2.2-1.17 3.72-1.03l2.07 1.03c.96 1.24 1.31 2.69 1.03 4.34l-.62 2.48h9.3l2.07 1.03c.83.96 1.17 2.21 1.03 3.72l-1.03 2.07c-.97.69-2 1.1-3.1 1.24l-47.24-.62v.01zm4.96-53.44c-2.96.28-4.65-.43-5.07-2.12-.41-1.69-.86-10.04-1.34-25.07.28-2 1-3.12 2.17-3.36 1.17-.24 5.27-.36 12.3-.36-.28-2.62.21-4.96 1.45-7.03.96-.83 2.2-1.17 3.72-1.03l2.07 1.03c.96 1.24 1.31 2.76 1.03 4.55l-.21 2.27h8.06c-.28-2.34.17-4.41 1.34-6.2.96-.83 2.2-1.17 3.72-1.03l2.07 1.03c1.1 1.79 1.45 3.86 1.03 6.2 6-.07 9.91-.17 11.73-.31 1.83-.14 2.81.88 2.95 3.05.14 2.17.14 10.53 0 25.07.28 2.48-1.03 3.62-3.93 3.41l-43.11-.1h.02zm-2.27 12.2c-1.1-.14-2.07-.55-2.89-1.24-.83-.96-1.17-2.2-1.03-3.72l1.03-2.07c1.1-.96 2.48-1.45 4.13-1.45l42.9.21 2.07 1.03c.83.96 1.17 2.21 1.03 3.72l-1.03 2.07c-.97.69-2 1.1-3.1 1.24l-43.11.21zm6.92 24.29c-2.83.28-4.34-.36-4.55-1.91-.21-1.55-.59-6.74-1.14-15.56-.07-2.55.47-3.91 1.6-4.08 1.14-.17 13.11-.19 35.92-.05 2.62.21 3.89 1.16 3.83 2.84-.07 1.69-.41 4.74-1.03 9.15-.62 4.41-.97 7.08-1.03 8.01-.07.93-.76 1.53-2.07 1.81-1.31.28-11.82.21-31.53-.21zm3.62-55.62l-.21-5.79-6 .21.21 5.79 6-.21zm.21 13.13v-7.03l-6 .21.21 6.82h5.79zm22.43 34.12l.62-5.17-24.29-.21.41 5.58 23.26-.21v.01zm-6.72-47.25v-6h-8.06l.21 6h7.86-.01zm-.62 12.72l.41-6.62h-7.44v6.82l7.03-.21v.01zm15.4 0v-6.82l-6.82.21-.41 6.62h7.24l-.01-.01zm-.2-12.72l-.21-6h-6.2v6h6.41z" fill="#fff"/><path d="M400.86 193.32s-29.84 15.02-85.73 15.02-88.01-13.26-88.01-13.26l-10.23-8.58s-45.66 47.09 98.23 47.31c133.66.21 103.17-53.99 103.17-53.99l-17.44 13.5h.01z" fill="#FFC05A"/><path d="M315.91 235.31h-.78c-62.51-.1-97.93-8.94-105.25-26.29-5.07-12.01 5.49-23.1 5.95-23.57.55-.56 1.44-.61 2.04-.1l10.04 8.43c2.85 1.12 34.63 13.07 87.23 13.07s82.79-13.77 84.93-14.8l17.32-13.41c.34-.27.79-.37 1.22-.28.43.09.8.35 1.01.73.31.54 7.41 13.5-.56 27.11-11.32 19.32-46.02 29.12-103.14 29.12l-.01-.01zm-98.84-46.72c-2.3 2.85-7.92 11.02-4.42 19.27 4.7 11.09 26.29 24.32 102.49 24.44 70.25.13 93.86-14.95 101.3-27.6 5.59-9.5 2.79-18.89 1.29-22.56l-15.95 12.35c-.08.06-.16.11-.24.15-.3.15-30.81 15.18-86.4 15.18s-88.25-13.24-88.58-13.38c-.14-.06-.27-.14-.39-.24l-9.09-7.63-.01.02z" fill="#58393E"/><path d="M227.44 194.53c-3.28.86-6.01 3.23-7.66 6.15-1.92 3.41-2.31 7.45-1.6 11.25.19 1.03.48 2.05.85 3.03s.87 2.02 1.05 3.12c.13.8 1.13 1.25 1.85 1.05.85-.23 1.18-1.04 1.05-1.85-.19-1.17-.72-2.22-1.12-3.32a18.04 18.04 0 01-.83-3.15c-.34-2.02-.24-4.13.32-6.1.96-3.39 3.5-6.39 6.91-7.29 1.87-.49 1.07-3.38-.8-2.89h-.02zm18.64 6.639c-2.89 2.79-5.62 5.69-6.96 9.56-1.2 3.46-1.28 7.361-.32 10.881.28 1.02.66 2.01 1.11 2.96.22.46.46.91.72 1.34.11.18.23.34.32.53.06.13-.06-.001.04.089.02.09.03.1.02.03-.04-.22.03-.43.21-.63-1.4 1.33.72 3.451 2.12 2.121 1.68-1.59-.27-3.7-.96-5.25a14.581 14.581 0 01-1.19-4.821c-.26-3.47.55-6.89 2.53-9.78 1.26-1.83 2.89-3.38 4.48-4.91 1.39-1.34-.73-3.46-2.12-2.12zm21.949 4.261c-5.11 4.97-6.94 12.93-5.04 19.73.61 2.18 1.78 4.05 2.71 6.09.34.74 1.4.92 2.05.54.76-.44.88-1.31.54-2.05-.74-1.62-1.67-3.06-2.2-4.69-.5-1.55-.75-2.98-.81-4.54-.12-3.04.49-6.12 1.85-8.81.81-1.61 1.76-2.92 3.03-4.15 1.39-1.35-.74-3.47-2.12-2.12h-.01zm25.201 3.1c-5.81 6.84-6.33 17.19-.96 24.45.48.65 1.3.98 2.05.54.64-.38 1.02-1.4.54-2.05-4.53-6.13-4.5-14.94.49-20.82.52-.62.61-1.52 0-2.12-.54-.54-1.59-.62-2.12 0zm24.45-.3c-5.24 7.72-4.41 18.45 1.92 25.29 1.31 1.42 3.43-.71 2.12-2.12-5.46-5.9-5.93-15.06-1.45-21.65.46-.67.13-1.66-.54-2.05-.74-.43-1.6-.13-2.05.54v-.01zm27.179-1.27c-3.95 5.88-3.84 13.79-.98 20.09.92 2.03 2.17 3.89 3.62 5.58.53.62 1.58.54 2.12 0 .61-.61.53-1.5 0-2.12-5.12-5.99-6.68-15.31-2.17-22.04.45-.67.13-1.66-.54-2.05-.74-.43-1.6-.14-2.05.54z" fill="#58393E"/><path d="M407.439 209.909c13.69 9.77 27.65 20.23 42.77 27.41 12.29 5.84 28.9 9.67 38.12-3.82 5.51-8.07 7.24-19.4 3.49-28.66-5.72-14.14-20.39-21.23-33.93-23.48-9.72-1.61-19.65-1.8-29.41-.51-7.52.99-15.09 2.9-21.53 7.13l3.14 8.74c9.91-1.43 19.9-2.81 29.87-2.09 9.97.72 20.04 3.69 27.96 10.17 1.67 1.37 3.33 3.05 3.74 5.25.73 3.94-3.1 7.46-6.86 7.74-3.77.27-7.32-1.67-10.69-3.47-11.94-6.4-24.79-11.87-38.16-11.67l-8.5 7.27-.01-.01z" fill="#FFC05A"/><path d="M406.679 211.199c6.82 4.87 13.59 9.82 20.56 14.48 6.97 4.66 14.07 9.01 21.59 12.63 5.58 2.69 11.46 4.83 17.64 5.59 5.85.72 12.05-.079 17.01-3.439 5.79-3.92 9.39-10.611 10.93-17.311 1.66-7.22.96-14.78-2.38-21.43-2.97-5.9-7.74-10.71-13.28-14.24-5.54-3.53-11.61-5.76-17.9-7.08-8.32-1.75-17-2.229-25.47-1.709-8.47.52-16.59 1.789-24.14 5.209-1.76.8-3.46 1.73-5.08 2.78-.52.34-.92 1.06-.69 1.69 1.05 2.91 2.09 5.83 3.14 8.74.3.84.99 1.171 1.85 1.051 11.02-1.59 22.32-3.181 33.44-1.631 4.77.66 9.53 1.881 13.93 3.851 2.24 1 4.39 2.179 6.42 3.549 1.79 1.21 3.81 2.581 5.04 4.391s1.22 3.459.17 5.099c-.96 1.5-2.8 2.64-4.54 2.84-2.31.26-4.82-.62-6.95-1.64-2.43-1.17-4.78-2.52-7.18-3.73-9.51-4.8-19.66-8.799-30.37-9.619-1.34-.1-2.69-.151-4.04-.151-.59 0-1.05.061-1.52.451l-.18.149c-.75.63-1.48 1.27-2.23 1.9-1.9 1.62-3.8 3.251-5.69 4.871l-.39.34c-.62.53-.54 1.579 0 2.119.61.61 1.5.53 2.12 0l7.43-6.349c.36-.31.72-.611 1.07-.921l-1.06.44c8.87-.11 17.56 2.311 25.67 5.761 4.14 1.76 8.17 3.789 12.13 5.919 3.96 2.13 8.28 4.36 12.73 3.2 3.6-.94 6.9-4.27 6.77-8.17-.15-4.36-4.18-7.28-7.46-9.49-7-4.72-15.31-7.15-23.65-8.03-9.61-1.02-19.28.091-28.79 1.431-1.22.17-2.44.349-3.66.519l1.85 1.05c-1.05-2.91-2.09-5.829-3.14-8.739l-.69 1.689c6.42-4.18 13.98-6.089 21.5-7.019 8.49-1.05 17.15-1.021 25.63.149 6.28.87 12.53 2.48 18.13 5.26s10.42 6.441 13.93 11.341c1.88 2.62 3.38 5.49 4.29 8.56.99 3.31 1.29 6.729 1.05 10.179-.47 6.48-3.05 13.361-7.67 17.981-1.93 1.92-4.35 3.439-6.81 4.289a22 22 0 01-4.24.991c-.16.02-.31.029-.47.049-.37.04-.73.06-1.1.08-.72.04-1.43.05-2.15.03-2.91-.06-5.45-.489-8.32-1.239-1.42-.37-2.83-.801-4.21-1.291-.68-.24-1.35-.49-2.02-.75-.67-.26-1.33-.53-1.84-.75-7.05-3.04-13.73-6.98-20.18-11.11-6.88-4.41-13.53-9.17-20.17-13.93-1.61-1.16-3.23-2.32-4.84-3.47-.66-.47-1.67-.12-2.05.54-.44.75-.12 1.58.54 2.05h-.01z" fill="#58393E"/><path d="M403.401 222.48s38.66 45.669 45.98 146.819c0 0 12.77 12.181 25.54-5.459 0 0-6.57-110.61-57.52-147.84l-14.01 6.48h.01z" fill="#FFC05A"/><path d="M459.771 374.889c-6.61 0-11.22-4.32-11.42-4.51a1.53 1.53 0 01-.46-.98c-7.19-99.41-45.25-145.5-45.63-145.96-.3-.36-.42-.84-.32-1.29.1-.46.41-.84.83-1.04l14.01-6.48c.5-.23 1.07-.17 1.52.15 26.68 19.5 41.06 59.02 48.43 88.73 7.95 32.07 9.68 59.95 9.7 60.23.02.35-.08.69-.28.97-4.5 6.21-9.54 9.61-14.99 10.11-.47.04-.93.06-1.38.06l-.01.01zm-8.94-6.32c1.24 1 5.16 3.74 10.08 3.28 4.41-.42 8.61-3.26 12.48-8.45-.59-8.33-8.8-110.11-56.16-145.66l-11.48 5.32c6.6 8.8 38.44 55.5 45.09 145.52l-.01-.01z" fill="#58393E"/><path d="M390.971 185.36c7.55-15.91 28.12-10.56 34.18 3.39 3.74 8.63 4.46 20.22.82 28.96-3.46 8.32-13.28 11.81-22.04 8.83-11.26-3.82-15.59-15.91-15.72-26.23-.07-5.3.71-10.61 2.77-14.95h-.01z" fill="#FFC05A"/><path d="M410.2 229.08a21.1 21.1 0 01-6.76-1.12c-12.13-4.12-16.6-16.97-16.74-27.63-.08-6.03.93-11.43 2.91-15.61 3.25-6.85 9.22-10.71 16.41-10.59 8.55.14 16.98 5.91 20.5 14.03 4.15 9.55 4.47 21.38.83 30.13-2.8 6.73-9.68 10.8-17.15 10.8v-.01zm-17.87-43.07c-1.79 3.77-2.7 8.71-2.62 14.29.12 9.63 4.05 21.22 14.71 24.83 8.28 2.81 17.14-.7 20.18-7.99 3.29-7.91 2.97-19.08-.81-27.78-3.07-7.07-10.39-12.1-17.8-12.22-6.02-.09-10.88 3.05-13.65 8.88l-.01-.01z" fill="#58393E"/><path d="M382.369 227.589s11.66 50.19 3.75 108.52c-.14 1.06 12.46 18.58 28.65 1.36 0 0 1.5-88.89-17.44-114.3l-14.97 4.43.01-.01z" fill="#FFC05A"/><path d="M400.421 346.51c-2.67 0-5.02-.7-6.97-1.63-4.86-2.31-9.04-7.29-8.81-8.98 7.78-57.39-3.61-107.48-3.73-107.98-.18-.77.27-1.55 1.04-1.78l14.97-4.43c.6-.18 1.25.04 1.63.54 19.03 25.53 17.79 111.57 17.73 115.23 0 .37-.15.73-.41 1-5.72 6.08-11.02 8.02-15.45 8.02v.01zm-12.76-10.55c.72 1.37 4.63 6.19 10.37 7.31 5.04.98 10.18-1.18 15.26-6.42.08-7.64.47-87.27-16.54-111.95l-12.61 3.73c1.77 8.5 10.57 54.88 3.52 107.33z" fill="#58393E"/><path d="M385.951 233.53c11.19 1.16 20.94-9.79 19.02-23.34-1.86-13.16-9.6-26.33-23.85-26-9.33.22-14.25 8.69-15.2 17.7-1.13 10.79 2.57 21.96 11.29 28.17 2.89 2.06 5.86 3.16 8.74 3.46v.01z" fill="#FFC05A"/><path d="M387.561 235.12c-.59 0-1.17-.03-1.76-.09-3.28-.34-6.46-1.6-9.46-3.73-8.62-6.13-13.18-17.46-11.91-29.55.91-8.63 5.81-18.79 16.66-19.04 15.84-.36 23.56 14.47 25.37 27.29 1.04 7.38-1.1 14.45-5.88 19.41-3.55 3.69-8.22 5.72-13.02 5.72v-.01zm-1.45-3.08c4.48.46 8.97-1.26 12.31-4.72 4.13-4.29 5.98-10.45 5.07-16.91-1.64-11.6-8.48-25.03-22.33-24.71-8.89.21-12.93 8.58-13.74 16.36-1.16 11.02 2.93 21.29 10.67 26.8 2.57 1.83 5.27 2.9 8.03 3.19l-.01-.01z" fill="#58393E"/><path d="M384.368 208.349s-5.57-14.01-35.31-7.3c-29.74 6.71-65.93 55.03-36.86 79.01 29.12 24.02 58.55.99 61.65-27.97 1.91-17.84 8.05-26 10.53-32.25 2.48-6.25 0-11.49 0-11.49h-.01zm-58.29 53.94c-4.63-5.63-3.96-14.05 4.25-26.55 8.25-12.55 18.66-20.53 35.29-18.4-.42 5.64-7.54 17.7-9.39 30.46-2.55 17.56-15.73 23.86-25.16 18.53-2.04-1.15-3.72-2.49-5-4.05l.01.01z" fill="#FFC05A"/><path d="M337.199 291.6c-8.73 0-17.64-3.51-25.97-10.38-9.8-8.09-13.3-19.44-10.11-32.83 5.11-21.43 27.35-44.24 47.6-48.8 30.1-6.79 36.57 7.09 37.02 8.16.26.57 2.62 6.09.02 12.65-.6 1.5-1.37 3.06-2.26 4.85-2.84 5.72-6.74 13.55-8.18 27-1.79 16.76-11.89 31.24-25.73 36.88-4.03 1.65-8.2 2.46-12.4 2.46l.01.01zm26.41-90.85c-3.94 0-8.63.5-14.22 1.77-19.28 4.35-40.46 26.11-45.34 46.57-2.03 8.5-2.09 20.58 9.1 29.82 11.43 9.43 23.98 12.08 35.32 7.45 12.63-5.15 22.23-18.99 23.88-34.43 1.5-13.99 5.53-22.1 8.47-28.02.86-1.74 1.61-3.24 2.16-4.62 2.21-5.58.06-10.25.04-10.3-.01-.03-.02-.05-.03-.08-.07-.16-3.7-8.17-19.37-8.17l-.01.01zm-25.6 68.92c-2.65 0-5.27-.68-7.67-2.04-2.23-1.26-4.05-2.74-5.41-4.4-5.41-6.57-4.05-15.84 4.16-28.32 9.83-14.95 21.51-21.01 36.74-19.06.79.1 1.37.8 1.31 1.6-.2 2.65-1.61 6.25-3.4 10.8-2.21 5.64-4.97 12.65-6 19.77-1.37 9.45-5.94 16.72-12.53 19.95-2.32 1.14-4.76 1.7-7.18 1.7h-.02zm22.37-51.18c-11.65 0-20.67 5.72-28.79 18.07-7.39 11.24-8.81 19.34-4.35 24.77 1.13 1.37 2.67 2.61 4.58 3.69 3.7 2.1 8.09 2.19 12.05.25 5.69-2.79 9.66-9.24 10.89-17.69 1.08-7.46 3.91-14.65 6.18-20.43 1.31-3.34 2.48-6.32 2.97-8.5-1.2-.11-2.38-.17-3.53-.17v.01z" fill="#58393E"/><path d="M365.629 217.34s16.08 2.53 19.33-7.25z" fill="#FFC05A"/><path d="M370.13 219.14c-2.6 0-4.51-.29-4.73-.32a1.5 1.5 0 01-1.25-1.71c.13-.82.89-1.38 1.71-1.25.15.02 14.87 2.21 17.68-6.24a1.5 1.5 0 011.9-.95 1.5 1.5 0 01.95 1.9c-2.44 7.34-10.84 8.58-16.25 8.58l-.01-.01zm68.592-9.61c1.03 3.18 1.87 6.55.81 9.78a9.538 9.538 0 01-5.06 5.7c-.74.34-.92 1.4-.54 2.05.44.76 1.31.88 2.05.54 3.04-1.4 5.3-4.18 6.38-7.31 1.31-3.8.45-7.84-.75-11.55-.25-.77-1.04-1.27-1.85-1.05-.76.21-1.3 1.07-1.05 1.85l.01-.01zm16.117 7.569c1.06 3.32 2.28 6.98 1.44 10.49-.72 3.01-2.74 5.76-5.24 7.54-.66.47-.97 1.31-.54 2.05.38.65 1.39 1.01 2.05.54 3.08-2.19 5.61-5.42 6.57-9.12 1.07-4.14-.13-8.35-1.39-12.3-.25-.77-1.04-1.27-1.85-1.05-.76.21-1.29 1.07-1.05 1.85h.01zm12.933 2.301c6.55 4.44 8.82 13.5 5.65 20.67-.33.74-.22 1.61.54 2.05.64.37 1.72.21 2.05-.54 3.04-6.89 2.17-14.93-2.5-20.87-1.2-1.52-2.63-2.81-4.23-3.9-.67-.45-1.66-.13-2.05.54-.43.74-.13 1.6.54 2.05zm4.069-11.98c2.29-2.57 5.45-3.66 8.86-3.37 3.41.29 6.62 2.02 9.44 3.92.67.45 1.66.129 2.05-.541.43-.74.14-1.599-.54-2.049-3.36-2.25-7.09-4.061-11.18-4.341-4.09-.28-8.04 1.221-10.75 4.261-.54.6-.6 1.53 0 2.12.55.55 1.58.61 2.12 0zm-9.872-9.45c-.75-.83-.75-2.2-.46-3.39.33-1.37 1.009-2.65 1.889-3.79 1.77-2.31 4.291-3.86 7.141-4.37.8-.14 1.249-1.12 1.049-1.85-.23-.84-1.05-1.19-1.85-1.05-3.7.66-6.93 2.95-9.09 5.98-2.16 3.03-3.539 7.56-.799 10.59.54.6 1.57.55 2.12 0 .6-.6.54-1.52 0-2.12zm-18.187-18.14c-3.85 3.44-4.77 9.38-2.63 13.97.34.73 1.4.92 2.05.54.75-.44.88-1.31.54-2.05-1.56-3.35-.66-7.82 2.16-10.34.6-.54.55-1.57 0-2.12-.6-.6-1.52-.54-2.12 0zm-42.494 15.21c1.74-3.29 4.35-6.04 7.64-7.81 3.56-1.91 7.78-2.47 11.71-1.57.79.18 1.62-.24 1.85-1.05.21-.76-.25-1.66-1.05-1.85-4.67-1.07-9.6-.45-13.85 1.78-3.78 1.98-6.89 5.22-8.88 8.98-.38.72-.18 1.63.54 2.05.68.4 1.67.18 2.05-.54l-.01.01zm6.501 14.99c1.8-2.43 5.05-3.66 7.87-4.38 3.28-.84 6.75-.93 10.07-.24.79.16 1.62-.23 1.85-1.05.2-.74-.25-1.68-1.05-1.85-3.93-.82-8-.74-11.88.3-3.61.96-7.17 2.64-9.45 5.7-.48.65-.11 1.68.54 2.05.76.45 1.57.11 2.05-.54v.01zm-28.839-8.901c3.96-5.31 10.55-8.35 17.08-7.86.81.06 1.5-.73 1.5-1.5 0-.86-.69-1.44-1.5-1.5-7.69-.57-15.12 3.25-19.67 9.35-.49.65-.11 1.68.54 2.05.77.45 1.57.11 2.05-.54z" fill="#58393E"/><path d="M386.981 215.819c4.4-4.13 11.22-4.97 16.41-1.98 1.68.96 3.19-1.63 1.51-2.59-6.39-3.67-14.7-2.56-20.05 2.45-1.41 1.32.71 3.44 2.12 2.12h.01zm-26.551.711c2.11-1.94 4.14-4.05 4.86-6.92.72-2.87.21-5.97-.33-8.88-.15-.8-1.11-1.25-1.85-1.05-.84.23-1.2 1.05-1.05 1.85.44 2.36.92 4.91.33 7.29-.59 2.38-2.36 4-4.08 5.59-.6.55-.56 1.57 0 2.12.59.59 1.52.55 2.12 0zm-16.6 4.969c.66-1.62 1.09-3.19.84-4.95-.21-1.53-.76-3.01-1.49-4.37-1.33-2.48-3.43-4.59-5.94-5.86-.72-.37-1.63-.19-2.05.54-.39.67-.19 1.68.54 2.05 2.03 1.03 3.66 2.62 4.77 4.62.57 1.02 1 2.13 1.2 3.29.24 1.39-.24 2.62-.76 3.89-.31.75.33 1.65 1.05 1.85.86.24 1.54-.29 1.85-1.05l-.01-.01zm-10.589 11.021c.13-3.6-1.7-7.08-4.63-9.15-1.53-1.08-3.35-1.59-5.21-1.64-1.16-.04-2.32.12-3.47.27-1.04.14-2.1.25-3.09.65-.75.3-1.28 1-1.05 1.85.2.71 1.09 1.35 1.85 1.05 1.6-.64 3.58-.8 5.29-.82 1.55-.02 2.8.31 4.03 1.14 2.12 1.43 3.37 4.1 3.28 6.66-.07 1.93 2.93 1.93 3 0v-.01zm-7.982 17.44c-2.47-2.67-5.17-5.441-8.82-6.351-1.98-.49-4.01-.44-6.02-.16-1.89.27-3.87.681-5.55 1.621-1.89 1.06-3.14 2.829-3.41 4.979-.1.81.76 1.5 1.5 1.5.89 0 1.4-.69 1.5-1.5.18-1.45 1.76-2.459 3.17-2.919 1.94-.63 4.05-.981 6.1-.901 4.07.16 6.81 3.041 9.41 5.841 1.32 1.42 3.43-.711 2.12-2.121v.011zm1.27 11.57c-2-.53-4.28.21-6.22.74-1.84.5-3.65 1.22-5.17 2.38-2.67 2.04-4.49 5.12-5.09 8.43-.35 1.96-.33 3.93.14 5.86.47 1.93 3.35 1.08 2.89-.8-.77-3.18.06-6.88 2.15-9.44 1.14-1.4 2.48-2.37 4.2-3.01 1.03-.38 2.1-.65 3.17-.9.98-.23 2.12-.63 3.12-.37 1.87.5 2.66-2.4.8-2.89h.01zm12.19 5.68c-2.11.5-3.46 2.37-4.29 4.25-1.05 2.37-1.82 4.9-1.43 7.51.34 2.26 1.37 4.51 2.54 6.45 1.17 1.94 2.59 3.63 4.26 5.08.61.53 1.52.6 2.12 0 .54-.54.61-1.59 0-2.12-2.78-2.42-5-5.72-5.86-9.33-.48-2.04.12-4.05.9-5.94.53-1.3 1.32-2.72 2.56-3.02 1.88-.45 1.08-3.34-.8-2.89v.01zm10.511-2.84c.02 3.84 1.87 7.56 5.03 9.76s7.75 2.34 11.18.41c1.68-.95.17-3.54-1.51-2.59a7.671 7.671 0 01-8.15-.41c-2.26-1.58-3.53-4.46-3.55-7.17 0-1.93-3.01-1.93-3 0zm7.619-18.591c1.2 3.35 3.96 6.05 7.44 6.96 1.81.47 3.69.39 5.47-.16 1.06-.33 2.09-.79 3.09-1.27 1.09-.52 2.18-1.32 1.77-2.71-.54-1.85-3.44-1.06-2.89.8l.04.14v-.8c.39-.37.48-.49.26-.36-.09.05-.18.1-.28.14-.17.08-.34.16-.52.25-.33.16-.66.31-1 .45-.76.32-1.56.59-2.37.74-1.21.23-2.24.08-3.36-.29-2.12-.71-4-2.55-4.76-4.69-.27-.76-1.02-1.27-1.85-1.05-.74.2-1.32 1.08-1.05 1.85h.01zm4.482-17.1c.96 3.83 5.33 5.28 8.81 5.67 3.72.42 7.56-.63 10.32-3.21 1.41-1.32-.71-3.44-2.12-2.12-2.12 1.98-4.99 2.61-7.82 2.37-1.22-.1-2.79-.48-3.85-.99-1.21-.59-2.14-1.32-2.44-2.51-.47-1.87-3.36-1.08-2.89.8l-.01-.01zm24.727 20.291c3.29 2.93 8.7 2.51 12.56 1.03 2.03-.78 3.88-1.87 5.53-3.29.83-.71 1.65-1.52 2.28-2.41.45-.64.63-1.49.21-2.2a1.793 1.793 0 00-2.05-.82c-1.85.53-1.06 3.43.8 2.89l.13-.04h-.8l.13.05-.66-.39.1.11-.39-.66.04.15v-.8c-.03.2-.41.52-.57.7-.27.29-.54.57-.83.83-.55.51-1.12.98-1.75 1.4-1.26.85-2.61 1.51-4.05 1.95-1.44.44-2.86.65-4.39.61-1.44-.03-3.04-.25-4.16-1.25-.6-.54-1.52-.6-2.12 0-.55.55-.61 1.58 0 2.12l-.01.02zm2.852 19.37c3.48 2.29 7.79 3.13 11.88 2.29 4.09-.84 7.23-3.16 9.63-6.27.49-.64.1-1.68-.54-2.05-.77-.45-1.56-.11-2.05.54a13.4 13.4 0 01-7.83 4.89c-3.31.68-6.77-.15-9.56-1.99-.68-.45-1.66-.13-2.05.54-.43.73-.14 1.61.54 2.05h-.02zm1.489 20.22c3.83 2.13 7.84 3.95 12.32 3.35 3.87-.52 7.51-2.56 9.91-5.65.5-.64.62-1.5 0-2.12-.52-.52-1.62-.64-2.12 0-2.03 2.6-4.97 4.39-8.19 4.82-3.72.49-7.14-1.18-10.41-2.99-1.69-.94-3.2 1.65-1.51 2.59zm-1.62 19.12c2.07 3.25 5.53 5.33 9.3 5.98 3.77.65 7.94.38 11.46-1.11 1.92-.81 3.52-2.02 4.74-3.71.47-.66.11-1.67-.54-2.05-.76-.44-1.58-.12-2.05.54-2.15 2.99-6.5 3.63-9.95 3.64-3.98.02-8.13-1.3-10.36-4.8-.43-.68-1.33-.96-2.05-.54-.68.4-.98 1.37-.54 2.05h-.01zm-.759 20.02c3.41 2.28 7.32 3.89 11.44 4.17 3.74.25 7.54-.83 10.59-3 1.78-1.27 3.28-2.81 4.51-4.61.46-.67.13-1.66-.54-2.05-.74-.43-1.59-.13-2.05.54-1.72 2.51-4.27 4.5-7.14 5.46-3.25 1.09-6.67.81-9.87-.3-1.93-.67-3.74-1.66-5.43-2.79-.67-.45-1.66-.13-2.05.54-.43.74-.14 1.6.54 2.05v-.01zm28.279-85.86c3.38.32 6.79-.28 9.91-1.61 2.9-1.24 6.31-3.24 7.31-6.43.58-1.85-2.32-2.64-2.89-.8-.35 1.12-1.32 1.94-2.26 2.6-1.15.81-2.39 1.52-3.7 2.04a17.962 17.962 0 01-8.36 1.19c-.81-.08-1.5.74-1.5 1.5 0 .87.69 1.42 1.5 1.5l-.01.01zm8.19 17.33c2.2.63 4.49.39 6.68-.17 1.95-.5 3.91-1.14 5.75-1.95 1.84-.81 3.33-1.99 4.47-3.63 1.14-1.64 1.76-3.52 2.23-5.4.47-1.88-2.42-2.67-2.89-.8-.39 1.56-.88 3.08-1.76 4.43-.88 1.35-2.12 2.19-3.56 2.8-1.54.66-3.19 1.16-4.81 1.59-1.75.47-3.54.74-5.32.23-1.86-.53-2.65 2.36-.8 2.89l.01.01zm7.12 18.629c4.46.47 9.14-.38 12.99-2.74 3.53-2.18 6.23-5.49 7.62-9.4.27-.76-.31-1.64-1.05-1.85-.83-.23-1.57.28-1.85 1.05-1.14 3.22-3.49 5.96-6.4 7.71-3.4 2.04-7.4 2.65-11.31 2.24-.81-.08-1.5.75-1.5 1.5 0 .88.69 1.41 1.5 1.5v-.01zm6.5 19.691c2.37.2 4.81.6 7.19.46 2.15-.12 4.21-.85 6-2.05 3.73-2.51 6.05-6.42 8.23-10.24.96-1.68-1.63-3.19-2.59-1.51-1.91 3.33-3.89 6.97-7.16 9.16-1.5 1.01-3.13 1.63-4.95 1.66-2.23.04-4.5-.29-6.72-.48-.81-.07-1.5.74-1.5 1.5 0 .87.69 1.43 1.5 1.5zm5.232 21.15c3.93 2.34 9.36 1.97 13.51.41 2.18-.82 4.16-1.98 5.94-3.47 1.78-1.49 3.21-3.31 3.7-5.54.17-.79-.24-1.62-1.05-1.85-.75-.21-1.67.25-1.85 1.05-.4 1.83-1.67 3.19-3.09 4.35a16.08 16.08 0 01-4.65 2.64c-3.36 1.23-7.8 1.73-11-.18-1.66-.99-3.17 1.6-1.51 2.59zm3.449 20.81c3.69 1.72 7.75 2.26 11.76 1.49 3.52-.68 6.78-2.47 9.37-4.92 1.48-1.39 2.74-3.03 3.74-4.8.39-.7.18-1.65-.54-2.05-.89-.5-1.77-.33-2.54.3-.63.51-.53 1.59 0 2.12.62.62 1.49.52 2.12 0l.12-.1-.66.39-.56-.12-.54-2.05c-1.87 3.29-4.83 6.09-8.34 7.48-3.99 1.57-8.53 1.49-12.43-.32-.73-.34-1.62-.21-2.05.54-.38.65-.2 1.71.54 2.05l.01-.01zm1.798 17.289c3.36 2.31 7.56 3.45 11.62 3.07 4.06-.38 7.55-2.03 10.47-4.66 1.61-1.45 2.97-3.2 4-5.1.92-1.7-1.67-3.21-2.59-1.51-3.19 5.88-9.76 9.48-16.45 8.03-2.01-.43-3.85-1.25-5.54-2.41-.67-.46-1.66-.13-2.05.54-.43.74-.13 1.59.54 2.05v-.01zM199.399 243.18c-9.03 5.9-17.41 12.8-24.9 20.56-2.11 2.19-4.15 4.44-6.12 6.76-.52.62-.61 1.52 0 2.12.54.54 1.59.62 2.12 0 6.84-8.05 14.56-15.37 23.03-21.69 2.41-1.8 4.87-3.52 7.39-5.16.68-.44.96-1.33.54-2.05-.39-.67-1.37-.98-2.05-.54h-.01zm66.08-63.64c15.1-1.29 30.33-1 45.37.87 4.21.52 8.4 1.18 12.57 1.96.8.15 1.619-.22 1.849-1.05.2-.73-.249-1.7-1.049-1.85a219.855 219.855 0 00-45.88-3.65c-4.29.11-8.58.35-12.86.72-.81.07-1.5.64-1.5 1.5 0 .76.69 1.57 1.5 1.5zm174.391-53.23c-2.61.09-5.06 1.16-6.98 2.91-1.92 1.75-3.13 4.13-3.46 6.72-.1.78.76 1.53 1.5 1.5.9-.04 1.39-.66 1.5-1.5-.05.36 0-.02.02-.1.02-.12.05-.25.08-.37.06-.27.14-.53.22-.79.04-.12.08-.24.13-.35.02-.06.05-.12.07-.18-.06.15-.07.17-.03.07a14 14 0 01.34-.67c.13-.24.27-.47.43-.7l.22-.31c.18-.26-.15.17.07-.1.33-.39.66-.76 1.04-1.1.09-.08.19-.17.29-.25.03-.02.36-.28.09-.08.2-.15.41-.3.62-.43.42-.27.87-.51 1.33-.72-.31.14.04-.01.11-.04.12-.04.24-.09.36-.13.24-.08.48-.15.72-.21l.43-.09c.04 0 .44-.07.24-.04-.2.03.19-.02.24-.02.15-.01.29-.02.44-.02.78-.03 1.54-.67 1.5-1.5-.04-.83-.66-1.53-1.5-1.5h-.02zM132.589 374.28c-.81 8.13-.47 16.35.92 24.4a91.974 91.974 0 007.32 23.29c3.46 7.4 7.56 13.68 12.59 19.66s10.33 10.8 16.36 15.19c6.03 4.39 12.62 8 19.55 10.79.85.34 1.71.67 2.58.99.76.28 1.64-.31 1.85-1.05.23-.84-.28-1.57-1.05-1.85-6.76-2.48-13.2-5.83-19.15-9.89a89.574 89.574 0 01-16.27-14.3 87.419 87.419 0 01-12.54-18.35c-3.59-7.04-6.18-14.58-7.78-22.31a87.868 87.868 0 01-1.37-26.57c.08-.81-.75-1.5-1.5-1.5-.88 0-1.42.69-1.5 1.5h-.01zm371.589 55.19c.12-1.07.171-1.97.171-2.81 0-17.78-16.59-30.2-40.35-30.2s-40.351 12.42-40.351 30.2c0 .84.061 1.74.171 2.81-4.95 4.27-7.56 9.45-7.56 14.99 0 6.72 3.92 12.97 11.06 17.61 3.01 1.96 6.62 3.63 10.72 4.96-1.08 6.99-3.561 11.5-7.391 13.42-.81.41-1.699.71-2.639.88-.55.11-1.111.16-1.651.18-3.04.09-6.079-1.36-9.569-4.48-.61-.54-1.221-1.07-1.831-1.55a42.677 42.677 0 00-5.769-3.9l-.03-.02a39.316 39.316 0 00-4.551-2.15 39.407 39.407 0 00-10.099-2.48c-2.21-.25-4.451-.34-6.651-.29h-.079c-1.55.04-3.101.16-4.601.36-.64.08-1.29.18-1.94.3-4.45.8-8.479 2.29-11.979 4.44-.43.27-.86.54-1.29.83-1.28.86-2.62 1.87-4.07 3.06-1.17.96-2.29 1.95-3.33 2.88l-1.051.94c-1.4 1.25-2.849 2.54-4.289 3.74-1.19.98-2.38 1.71-3.55 2.17-1.47.58-2.88.74-4.3.49-1.04-.18-2.1-.59-3.15-1.22-.32-.19-.63-.4-.95-.62-2.22-1.59-4.42-4.13-6.37-7.35-.55-.9-1.091-1.88-1.611-2.92l-.09-.17c-2.55-5.1-4.169-10.68-5.289-14.98a5.733 5.733 0 00-5.54-4.28c-2.16 0-4.18 1.25-5.13 3.18-.41.84-.81 1.71-1.18 2.58-3.87 9.21-4.81 19.97-2.64 30.28 1.7 8.12 5.25 15.77 10.25 22.13 3.43 4.36 6.86 7.64 10.45 10.01.23.2.48.39.75.58.27.18.539.36.829.53l.731.41c.46.25.94.49 1.41.71.09.04.19.09.21.1l.25.11c.12.06.24.11.35.16.21.09.43.19.62.26.16.06.309.12.459.18.16.06.321.12.491.18l.229.08c.16.06.321.11.471.16l.679.22c.44.13.891.26 1.271.35l1.5.33c.13.03.26.05.37.07l.2.03c.1.02.199.03.289.05l.151.02a26.838 26.838 0 003.84.27c.98 0 1.97-.05 2.95-.16.84-.09 1.69-.22 2.48-.39h.1l.02-.02c2.52-.51 4.93-1.37 7.17-2.55 1.28-.67 2.58-1.46 3.98-2.43.59-.41 1.18-.83 1.76-1.27.96-.72 1.92-1.48 2.74-2.12l1.64-1.31c3.32-2.65 6.349-4.96 9.799-6.37.53-.22 1.091-.42 1.661-.59.35-.11.7-.21 1.06-.29l.1-.02c.53-.13 1.09-.22 1.65-.29 3.85-.46 8.03.5 12.44 2.87.59.32 1.189.66 1.769 1.02l.491.31c.52.33 1.029.67 1.609 1.09l.25.17c5.2 3.63 11.04 6.54 17.37 8.65.86.29 1.741.56 2.621.82.43.12.86.25 1.28.36.89.24 1.78.47 2.64.67 7.29 1.7 12.6 1.8 13.76 1.8h.07c.83 0 1.729-.02 2.759-.08l1.301-.1.59-.06.47-.05.479-.06.391-.05c.17-.02.34-.05.5-.08l.31-.05c.41-.07.819-.14 1.209-.22.23-.05.471-.09.701-.14.15-.03.29-.06.43-.1l.39-.09c.12-.03.24-.06.34-.08l1.24-.33c.38-.11.75-.22 1.13-.34.49-.16.98-.32 1.47-.5.24-.09.469-.18.759-.29l.651-.26c.47-.19.93-.4 1.4-.62l.669-.32.681-.34.259-.13c.16-.08.321-.17.481-.26l.119-.07c.54-.3 1.091-.61 1.611-.94.16-.1.32-.2.47-.29h.08l.049-.08c.24-.15.481-.31.731-.48.27-.18.539-.37.799-.55.36-.25.711-.56 1.061-.91 17.65-13.46 22.78-41.04 24.18-52.46 3.94-1.32 7.409-2.95 10.329-4.84 7.12-4.62 11.041-10.88 11.041-17.6 0-5.54-2.62-10.73-7.56-14.99l.019-.01zm-62.889 35.26c-4.77-1.35-8.901-3.14-12.271-5.33-6.28-4.08-9.599-9.25-9.599-14.94 0-5.03 2.64-9.72 7.65-13.56l.12-.09-.05-.32a22.5 22.5 0 01-.32-3.83c0-15.91 15.29-27.03 37.18-27.03s37.179 11.11 37.179 27.03c0 1.27-.11 2.55-.32 3.83l-.049.32.119.09c5 3.84 7.65 8.53 7.65 13.56 0 5.7-3.319 10.86-9.599 14.94-3.14 2.04-6.961 3.74-11.371 5.06l-.159.05-.021.17c-.04.43-.089.88-.149 1.36-1.3 11.01-6.15 38.01-23.12 50.88l-.06.06c-.24.26-.511.49-.801.7-.25.17-.489.34-.739.51-.24.16-.47.31-.72.47l-.481.3c-.48.3-.979.59-1.479.86-.18.1-.371.2-.551.3l-.259.14c-.2.1-.411.21-.611.31l-.619.3c-.42.19-.84.38-1.27.56l-.65.26c-.22.08-.44.17-.66.25-.44.16-.89.31-1.34.46-.34.11-.68.21-1.03.31l-.901.24-.229.06c-.09.02-.181.04-.271.07l-.31.07c-.16.04-.31.07-.47.11-.22.05-.429.09-.649.13-.37.07-.74.14-1.11.2l-.29.05c-.15.02-.31.05-.46.07l-.801.1c-.12.02-.25.03-.38.04-.2.02-.399.04-.669.07l-1.15.09c-.84.05-1.71.07-2.56.08-.06-.01-5.52.05-13.11-1.72-.83-.19-1.68-.41-2.53-.64-.4-.11-.811-.22-1.231-.35-.83-.24-1.67-.5-2.5-.78-6.05-2.01-11.63-4.79-16.59-8.26l-.259-.18c-.55-.39-1.111-.77-1.681-1.13-.17-.11-.349-.22-.519-.33-.64-.39-1.291-.77-1.951-1.12-4.99-2.68-9.809-3.77-14.319-3.22-.68.08-1.36.2-2 .35l-.121.03c-.42.1-.84.22-1.25.34-.65.2-1.3.43-1.93.69-3.82 1.56-7.05 4.02-10.57 6.83l-1.629 1.3c-.8.63-1.73 1.37-2.66 2.06-.55.41-1.11.81-1.67 1.2-1.29.89-2.48 1.62-3.65 2.23-2 1.05-4.16 1.81-6.41 2.27-.73.15-1.48.27-2.24.35-1.25.14-2.51.18-3.75.11-.76-.04-1.52-.11-2.28-.22l-.54-.09c-.1-.02-.2-.03-.35-.06l-.381-.07s-.059-.01-.099-.02l-.22-.05c-.11-.02-.21-.05-.33-.07l-.21-.05c-.39-.1-.781-.2-1.171-.32l-.209-.07-.41-.13c-.12-.04-.251-.08-.381-.13l-.209-.07c-.14-.05-.281-.1-.421-.16-.13-.05-.27-.1-.4-.16l-.569-.24-.29-.13c-.07-.03-.15-.07-.22-.1l-.19-.09c-.43-.2-.85-.42-1.26-.64l-.3-.16c-.12-.07-.23-.13-.35-.2-.21-.13-.42-.26-.62-.39-.17-.12-.34-.25-.5-.39l-.13-.11c-3.39-2.2-6.62-5.29-9.89-9.45-4.7-5.98-8.03-13.18-9.64-20.82-2.03-9.69-1.161-19.78 2.459-28.4.34-.81.711-1.62 1.101-2.4.42-.86 1.32-1.42 2.29-1.42 1.16 0 2.18.79 2.47 1.91 1.16 4.44 2.84 10.22 5.52 15.58l.11.22c.55 1.09 1.13 2.13 1.72 3.1 2.55 4.19 5.37 7.24 8.4 9.05 1.39.83 2.809 1.37 4.229 1.62 1.98.35 4 .13 6-.66 1.48-.58 2.96-1.48 4.41-2.67 1.5-1.23 2.97-2.55 4.4-3.82l1.041-.93c1.02-.9 2.12-1.87 3.24-2.79 1.82-1.5 3.42-2.66 5.01-3.65 3.61-2.23 7.87-3.67 12.66-4.3a42.63 42.63 0 014.269-.33c2.06-.05 4.17.04 6.29.27 3.24.36 6.371 1.13 9.291 2.28 1.42.56 2.819 1.22 4.169 1.97a38.907 38.907 0 017.061 5.06c4.12 3.69 7.859 5.37 11.759 5.29a13.453 13.453 0 005.641-1.39c5.02-2.52 8.14-8.21 9.27-16.92.04-.32.08-.66.11-1l.06-.57-.2-.06.01-.04z" fill="#58393E"/><path d="M433.568 504.97c-.47.25-.93.48-1.4.68-.51.23-1.02.43-1.51.61-2.81 1-5.73 1.3-8.65 1.08l7.39 15.09.07.14c7.72 1.8 13.17 1.73 13.17 1.73.87 0 1.73-.03 2.57-.08.1 0 .2-.01.3-.02.13 0 .27-.02.4-.03l.39-.03c.04 0 .08 0 .12-.01l.61-.06c.13-.01.26-.03.38-.04.14-.02.28-.03.43-.05.13-.02.25-.03.38-.05.16-.02.31-.05.46-.07.1-.01.19-.03.29-.05.38-.06.75-.13 1.12-.2.22-.04.44-.09.65-.13.16-.03.32-.07.48-.11.11-.02.21-.05.31-.07.09-.02.19-.04.28-.07l.24-.06c.07-.02.13-.03.2-.05.12-.03.24-.06.35-.09.12-.03.23-.07.35-.1.35-.1.69-.2 1.03-.31.46-.15.9-.3 1.35-.46.22-.08.44-.17.66-.25.11-.04.22-.09.33-.13.11-.04.22-.09.32-.13.43-.18.86-.37 1.28-.56.11-.05.21-.1.31-.15.1-.05.21-.1.31-.15.21-.1.41-.2.62-.31.09-.05.18-.09.26-.14.19-.1.37-.2.56-.3l-.11-.06-26.31-15.01h.01zm-13.921 2.09c-.06 0-.13-.02-.19-.03-.81-.14-1.61-.31-2.4-.52-3.53-.92-6.94-2.47-9.98-4.3l-.53 10.19v.12c5.6 3.92 11.39 6.54 16.64 8.29.85.28 1.69.54 2.51.78.42.12.83.24 1.23.35l-.07-.15-7.21-14.73zm-51.968 1.83c-.65.75-1.29 1.54-1.93 2.37l-.31.4c-.48.61-.98 1.18-1.48 1.72-3.35 3.57-7.09 5.63-10.76 6.73l2.84 3.67.08.11c2.25-.45 4.44-1.22 6.48-2.29 1.27-.67 2.49-1.43 3.67-2.24.57-.39 1.12-.8 1.68-1.21.9-.67 1.78-1.37 2.67-2.07l-.04-.1-2.89-7.08-.01-.01zm-16.611 11.75c-.94.19-1.86.33-2.77.42-.75.08-1.48.12-2.2.13-3.18.07-8.18-1.01-8.2-1.01.01.01.07.06.09.08.17.15.34.28.53.41.21.14.42.28.64.41.12.07.24.14.35.2.1.06.2.11.31.17a30.347 30.347 0 001.46.74c.08.04.15.07.23.1.09.04.19.09.28.13l.57.24c.14.06.27.11.4.16.14.06.28.11.43.16.07.03.14.05.21.08.14.05.28.1.42.14.11.04.21.07.32.1.09.03.18.06.27.08.39.12.78.23 1.18.32l.23.06c.11.02.21.05.32.07.08.02.15.03.22.05.04 0 .07.02.11.02.07.01.14.03.21.04.07.01.14.03.22.04.1.02.2.04.3.05.08.01.16.03.23.04l.22.03c.04 0 .08.01.12.02.75.11 1.51.18 2.27.22 1.26.06 2.53.02 3.79-.11l-.09-.12-2.69-3.48.02.01zm125.19-39.78l-27.87-1.54c-.56 2.31-1.22 4.6-1.99 6.84-.75 2.17-1.61 4.31-2.57 6.4l28.6 6.3c1.87-6.3 3.07-12.6 3.83-18.01v.01zm-4.421 19.93l-28.91-6.37c-.88 1.74-1.84 3.45-2.9 5.09-1.04 1.62-2.67 3.09-4.48 4.29l26.32 15.02.1.06c.24-.15.48-.31.72-.47.25-.17.5-.34.75-.52.31-.22.6-.48.86-.76.22-.24.43-.51.6-.79 2.94-4.72 5.19-10.1 6.93-15.54l.01-.01zm4.691-21.92c.63-4.91.9-8.91 1.01-11.24-4.26.78-8.79 1.19-13.54 1.19s-9.31-.41-13.58-1.19c-.2.86-.21 1.83-.33 2.67a88.6 88.6 0 01-1.24 7.04l27.68 1.53zm-71.931 32.22l.52-10.1c-.13-.08-.26-.16-.4-.24-.64-.39-1.29-.75-1.94-1.08-5.07-2.61-10.37-3.61-15.66-2.8l.83 9.59v.12c4.93-.59 9.81.85 14.18 3.2.66.35 1.3.72 1.93 1.11.17.11.35.22.52.33v-.12l.02-.01zm-18.619-4.29l-.83-9.56c-.78.19-1.56.41-2.33.68-.63.22-1.27.46-1.9.73-4.02 1.73-7.98 4.56-11.77 8.59l3.03 7.43.04.1c3.3-2.63 6.63-5.2 10.51-6.79.62-.26 1.26-.48 1.91-.68.41-.13.82-.24 1.23-.34.04 0 .08-.02.11-.03v-.13z" fill="#FEF7E0"/><path d="M402.248 474.93c-2.11 6.95 2.79 14.59 10.93 17.06 8.14 2.47 16.46-1.17 18.56-8.12.08-.27.15-.54.21-.81-1.12.56-2.27.93-3.41 1.14-.73.14-1.43.21-2.13.23-2.23 3.58-7.21 5.24-12.09 3.76-5.69-1.72-9.1-7.06-7.63-11.91.24-.78.59-1.51 1.03-2.16a34.93 34.93 0 00-4.2-1.98c-.54.86-.98 1.79-1.28 2.8l.01-.01z" fill="#178EC2"/><path d="M414.327 488.19c4.89 1.48 9.86-.19 12.09-3.76-4.45.1-8.22-2.21-11.59-5.22-2.24-2-4.6-3.7-7.1-5.09-.45.66-.8 1.38-1.03 2.16-1.47 4.85 1.94 10.19 7.63 11.91z" fill="#163B5E"/><path d="M378.548 483.32c6.13-2.58 9.79-8.3 9.3-13.76-1.44.04-2.87.15-4.3.33.57 3.93-2.02 8.14-6.45 10-4.25 1.79-8.86.86-11.36-2-1.1.91-2.18 1.85-3.25 2.8 3.63 3.91 10.09 5.14 16.05 2.63h.01z" fill="#178EC2"/><path d="M377.108 479.9c4.43-1.87 7.01-6.07 6.45-10-4.51.59-8.91 1.96-12.76 4.33-1.78 1.1-3.44 2.34-5.04 3.66 2.5 2.86 7.11 3.79 11.36 2l-.01.01z" fill="#163B5E"/><path d="M329.108 481.78c-.31 5.97 5.1 11.11 12.1 11.48 4.87.26 9.22-1.87 11.52-5.19-1.9.74-3.86 1-5.87.65-1.55.9-3.45 1.39-5.48 1.28-4.88-.26-8.67-3.84-8.45-8.02.08-1.42.6-2.73 1.46-3.82a41.52 41.52 0 01-1.71-3.09c-.04-.07-.07-.15-.11-.22-2.03 1.8-3.33 4.21-3.47 6.92l.01.01z" fill="#178EC2"/><path d="M332.939 481.99c-.22 4.17 3.56 7.76 8.45 8.02 2.03.11 3.93-.38 5.48-1.28-1.37-.24-2.75-.76-4.15-1.59-3.4-2.03-6.18-5.45-8.31-8.96-.86 1.09-1.39 2.4-1.46 3.82l-.01-.01z" fill="#163B5E"/><path d="M490.829 445.54c0-6.84 4.26-12.67 10.27-15.01.21-1.26.33-2.56.33-3.87 0-15.06-14.23-27.28-37.43-27.28s-37.43 12.21-37.43 27.28c0 1.31.11 2.61.33 3.87 6.01 2.34 10.27 8.17 10.27 15.01 0 6.05-3.34 11.32-8.27 14.07 3.34 2.17 7.48 3.99 12.34 5.36-.05.46-.09.93-.14 1.36-1.28 9.95-5.03 14.67-9.13 16.72-.06.27-.13.54-.21.81-2.11 6.95-10.42 10.59-18.56 8.12-8.14-2.47-13.04-10.11-10.93-17.06.31-1 .74-1.94 1.28-2.8a36.587 36.587 0 00-9.35-2.3c-2.08-.23-4.2-.33-6.33-.28.49 5.46-3.17 11.18-9.3 13.76-5.96 2.51-12.42 1.28-16.05-2.63-1.8 1.6-3.58 3.22-5.43 4.75-1.4 1.15-2.85 2.04-4.34 2.63-2.3 3.33-6.65 5.45-11.52 5.19-7-.37-12.41-5.51-12.1-11.48.14-2.71 1.44-5.13 3.47-6.92-2.46-4.93-4.11-10.22-5.5-15.54a2.815 2.815 0 00-2.72-2.1c-1.06 0-2.04.6-2.51 1.56-.39.79-.76 1.6-1.1 2.42-3.77 8.97-4.47 19.06-2.48 28.55 1.59 7.58 4.89 14.83 9.68 20.92 2.86 3.63 6.13 7.02 9.95 9.51.02 0 5.01 1.08 8.2 1.01.72-.01 1.45-.06 2.2-.13.91-.09 1.83-.23 2.77-.42l2.69 3.48.09.12c.76-.08 1.51-.2 2.26-.35l-.08-.11-2.84-3.67c3.67-1.1 7.41-3.15 10.76-6.73.5-.54 1-1.11 1.48-1.72.1-.13.21-.26.31-.4.64-.83 1.28-1.62 1.93-2.37l2.89 7.08.04.1c.55-.43 1.09-.87 1.63-1.3l-.04-.1-3.03-7.43c3.78-4.03 7.74-6.86 11.77-8.59.63-.27 1.26-.52 1.9-.73.78-.27 1.55-.49 2.33-.68l.83 9.56v.12c.67-.16 1.33-.27 1.99-.35v-.12l-.84-9.59c5.29-.81 10.59.19 15.66 2.8.65.33 1.3.69 1.94 1.08.13.08.26.16.4.24l-.52 10.1v.12c.56.36 1.12.74 1.66 1.12.09.06.18.13.27.19v-.12l.54-10.19c3.05 1.84 6.45 3.38 9.98 4.3.8.21 1.6.38 2.4.52l.19.03 7.21 14.73.07.15c.87.24 1.72.45 2.54.64l-.07-.14-7.39-15.09c2.92.22 5.84-.09 8.65-1.08.49-.18 1-.38 1.51-.61.46-.21.93-.44 1.4-.68l26.31 15.01.11.06c.51-.28 1.01-.57 1.49-.87.16-.1.33-.2.49-.31l-.1-.06-26.32-15.02c1.81-1.2 3.44-2.67 4.48-4.29 1.06-1.64 2.02-3.34 2.9-5.09l28.91 6.37c-1.74 5.44-3.99 10.82-6.93 15.54-.17.28-.38.55-.6.79.01 0 .02-.02.04-.03 16.99-12.88 21.86-39.84 23.19-51.02.06-.49.11-.94.15-1.37 4.47-1.34 8.31-3.06 11.43-5.09-4.93-2.75-8.27-8.02-8.27-14.07l-.05.04zm-35.2-9.32c-.87 0-1.57-.71-1.57-1.57 0-1.67-.75-2.79-1.87-2.79s-1.87 1.12-1.87 2.79c0 .87-.71 1.57-1.57 1.57-.86 0-1.57-.71-1.57-1.57 0-3.44 2.11-5.93 5.02-5.93 2.91 0 5.02 2.49 5.02 5.93 0 .87-.71 1.57-1.57 1.57h-.02zm-5.39-17.2h-.13l-3.86-.29c-.92-.07-1.61-.87-1.54-1.79.07-.92.86-1.61 1.79-1.54l3.86.29a1.667 1.667 0 01-.12 3.33zm27.64 0h-.13a1.668 1.668 0 01-.12-3.33l3.86-.29a1.669 1.669 0 11.25 3.33l-3.86.29zm2.95 15.63c0 .87-.71 1.57-1.57 1.57-.86 0-1.57-.71-1.57-1.57 0-1.67-.75-2.79-1.87-2.79s-1.87 1.12-1.87 2.79c0 .87-.71 1.57-1.57 1.57-.86 0-1.57-.71-1.57-1.57 0-3.44 2.11-5.93 5.02-5.93 2.91 0 5.02 2.49 5.02 5.93h-.02zm-7.69 15.24c1.25.96 2.84 1.18 4.25.59l1.62-1.02c.33-.21.71-.27 1.09-.18.38.09.7.31.9.64.42.68.22 1.57-.46 1.99l-1.75 1.1c-.06.04-.12.07-.19.1-2.4 1.05-5.15.7-7.24-.92-1.98-1.53-4.87-3.37-7.38-3.42-2.49.06-5.38 1.89-7.36 3.42-1.31 1.01-2.84 1.53-4.39 1.53-.96 0-1.93-.2-2.85-.6a1.14 1.14 0 01-.19-.1l-1.75-1.1c-.33-.21-.55-.53-.64-.9-.09-.37-.02-.76.18-1.09.21-.33.53-.56.9-.64.37-.09.76-.02 1.09.18l1.69 1.06c1.35.56 2.94.34 4.19-.62 2.33-1.8 5.81-3.97 9.11-4.03 3.36.06 6.83 2.23 9.16 4.03l.02-.02zm-23.05 20.41c.11-.85.13-1.81.33-2.67-1.76-.33-3.48-.71-5.15-1.17-.53-.15-.85-.7-.7-1.23.15-.53.7-.85 1.23-.7 5.52 1.52 11.64 2.29 18.2 2.29 6.56 0 12.68-.77 18.2-2.29.53-.15 1.08.17 1.23.7.15.53-.17 1.08-.7 1.23-1.68.46-3.41.85-5.19 1.17-.11 2.32-.38 6.33-1.01 11.24l-27.68-1.53a88.6 88.6 0 001.24-7.04zm-6.26 22.27a67.81 67.81 0 002.57-6.4c.78-2.25 1.43-4.53 1.99-6.84l27.87 1.54c-.77 5.41-1.96 11.71-3.83 18.01l-28.6-6.3v-.01z" fill="#52BDE2"/><path d="M437.16 445.54c0-6.84-4.26-12.67-10.27-15.01 0 .06.02.11.03.17-5.02 3.86-7.74 8.61-7.74 13.76 0 5.78 3.43 11.07 9.72 15.15 4.93-2.75 8.27-8.02 8.27-14.07h-.01zm63.92-14.84c0-.06.02-.11.03-.17-6.01 2.34-10.27 8.17-10.27 15.01 0 6.05 3.34 11.32 8.27 14.07 6.28-4.08 9.72-9.37 9.72-15.15 0-5.15-2.72-9.9-7.74-13.76h-.01z" fill="#FEA386"/><path d="M454.86 449.89c-1.25.96-2.84 1.18-4.19.62l-1.69-1.06c-.33-.21-.72-.27-1.09-.18-.38.09-.7.31-.9.64-.21.33-.27.72-.18 1.09.09.37.31.7.64.9l1.75 1.1c.06.04.12.07.19.1.93.4 1.89.6 2.85.6 1.55 0 3.08-.52 4.39-1.53 1.98-1.53 4.87-3.37 7.36-3.42 2.51.06 5.4 1.89 7.38 3.42 2.09 1.62 4.84 1.97 7.24.92.06-.03.13-.06.19-.1l1.75-1.1a1.444 1.444 0 10-1.53-2.45l-1.62 1.02c-1.42.6-3.01.38-4.25-.59-2.33-1.8-5.81-3.97-9.16-4.03-3.3.06-6.78 2.23-9.11 4.03l-.02.02z" fill="#58393E"/><path d="M463.998 468.82c4.75 0 9.28-.4 13.54-1.19a62.5 62.5 0 005.19-1.17c.53-.15.85-.7.7-1.23-.15-.53-.7-.85-1.23-.7-5.52 1.52-11.64 2.29-18.2 2.29-6.56 0-12.68-.77-18.2-2.29-.53-.15-1.08.17-1.23.7-.15.53.17 1.08.7 1.23 1.66.46 3.38.84 5.15 1.17 4.27.79 8.82 1.19 13.58 1.19z" fill="#178EC2"/><path d="M483.277 416.94c-.07-.92-.87-1.61-1.79-1.54l-3.86.29a1.667 1.667 0 00.12 3.33h.13l3.86-.29c.92-.07 1.61-.87 1.54-1.79zm-32.907-1.25l-3.86-.29a1.669 1.669 0 10-.25 3.33l3.86.29h.13a1.668 1.668 0 00.12-3.33zm1.81 13.03c-2.91 0-5.02 2.49-5.02 5.93 0 .87.71 1.57 1.57 1.57.86 0 1.57-.71 1.57-1.57 0-1.67.75-2.79 1.87-2.79s1.87 1.12 1.87 2.79c0 .87.71 1.57 1.57 1.57.86 0 1.57-.71 1.57-1.57 0-3.44-2.11-5.93-5.02-5.93h.02zm18.617 5.93c0 .87.71 1.57 1.57 1.57.86 0 1.57-.71 1.57-1.57 0-1.67.75-2.79 1.87-2.79s1.87 1.12 1.87 2.79c0 .87.71 1.57 1.57 1.57.86 0 1.57-.71 1.57-1.57 0-3.44-2.11-5.93-5.02-5.93-2.91 0-5.02 2.49-5.02 5.93h.02z" fill="#58393E"/><path d="M425.473 388.531s4.02 8.22 7.68 9.38c5.03 1.42 21.66 5.86 29.53 4.87l4.04 6.45s7.28-5.45 7.65-6.38c0 0 12.08-.6 13.82-2.2 0 0 4.68-12.05 4.68-25.94 0 0-2.55-5.88-6.24-8.36" fill="#F9C73D"/><path d="M466.711 410.72c-.09 0-.18 0-.28-.03-.41-.08-.77-.32-1-.68l-3.55-5.66c-8.17.58-22.99-3.27-29.16-5-4.2-1.33-8.18-9.26-8.62-10.16-.36-.74-.06-1.64.69-2.01.74-.36 1.64-.06 2.01.69 1.45 2.96 4.57 7.91 6.78 8.61 4.83 1.36 21.32 5.76 28.89 4.81.58-.07 1.15.2 1.46.69l3.17 5.06c2.7-2.06 5.43-4.27 5.93-4.89.25-.46.72-.77 1.25-.8 5.09-.25 11.12-.97 12.66-1.68.81-2.25 4.35-12.79 4.41-24.63-.53-1.14-2.73-5.53-5.57-7.44-.69-.46-.87-1.39-.41-2.08.46-.69 1.39-.87 2.08-.41 4 2.69 6.66 8.75 6.77 9.01.08.19.12.39.12.6 0 14.01-4.58 25.98-4.78 26.48-.08.21-.21.41-.38.56-1.83 1.67-10 2.33-14.09 2.55-.83.87-2.76 2.57-7.5 6.12-.26.2-.58.3-.9.3l.02-.01z" fill="#58393E"/><path d="M438.722 357.7s-9.5-.71-11.48.99c-1.98 1.7-4.78 8.57-4.66 14.98.12 6.41.55 13.36 3.81 15.2 3.26 1.84 23.81 6.94 36.71 8.79 0 0 .57 3.26 0 5.24 0 0 3.26.14 8.08-5.1 0 0 10.91.28 13.18-2.69 0 0 5.1-21.83 2.13-28.2-2.97-6.37-47.76-9.21-47.76-9.21h-.01z" fill="#FEF7E0"/><path d="M463.12 404.41h-.09a1.503 1.503 0 01-1.38-1.91c.27-.95.21-2.44.1-3.51-12.42-1.89-32.51-6.76-36.11-8.8-3.97-2.24-4.43-9.37-4.57-16.48-.12-6.49 2.68-14.01 5.18-16.15 2.28-1.95 10.18-1.53 12.56-1.35 10.72.68 45.91 3.41 49.02 10.07 3.11 6.66-1.49 26.89-2.02 29.18-.05.21-.14.4-.27.57-2.38 3.12-10.8 3.32-13.74 3.29-4.64 4.83-8.01 5.09-8.69 5.09h.01zm-28.53-45.36c-3.18 0-5.81.29-6.38.78-1.48 1.27-4.25 7.64-4.13 13.82.08 4 .23 12.34 3.04 13.93 2.83 1.6 23 6.72 36.18 8.61.64.09 1.15.59 1.27 1.23.04.25.3 1.81.27 3.49 1.21-.56 3.02-1.71 5.22-4.1.29-.32.7-.5 1.14-.48 4.66.12 10.3-.58 11.77-1.91 1.42-6.22 4.36-22.11 2.14-26.86-1.61-3.44-25.39-7.01-46.5-8.35h-.02c-1.36-.1-2.73-.15-4.01-.15l.01-.01z" fill="#58393E"/><path d="M471.742 399.16s2.16 3.35 2.5 4.12z" fill="#FEF7E0"/><path d="M474.24 404.78c-.58 0-1.13-.33-1.37-.9-.18-.41-1.38-2.35-2.38-3.91-.45-.7-.25-1.62.45-2.07.7-.45 1.62-.25 2.07.45.52.81 2.25 3.52 2.61 4.33a1.507 1.507 0 01-1.37 2.11l-.01-.01z" fill="#58393E"/><path d="M483.328 395.68s2.02 2.56 2.59 4.26z" fill="#FEF7E0"/><path d="M485.909 401.44c-.63 0-1.21-.4-1.42-1.03-.4-1.19-1.83-3.15-2.34-3.81-.51-.65-.4-1.59.25-2.11.65-.51 1.59-.4 2.11.25.22.28 2.2 2.82 2.84 4.72a1.5 1.5 0 01-.95 1.9c-.16.05-.32.08-.47.08h-.02z" fill="#58393E"/><path d="M437.088 385.58c-.26-.07-.47-.2-.65-.39-.14-.22-.2-.46-.2-.73l2.37-16.25c.09-1.17.4-1.78.92-1.81.52-.04 1.1-.01 1.74.07.64.09 1.29.21 1.94.37.65.16 1.3.37 1.93.64.63.27 1.24.75 1.83 1.43.59.68.98 1.27 1.16 1.76.18.49.25 1.12.21 1.87-.04.75-.14 1.42-.3 2-.15.58-.37 1.11-.65 1.59s-.94 1.07-1.97 1.78-2.09 1.19-3.16 1.42c-1.08.24-2.18.21-3.31-.08l-.77 5.68-.31.46c-.25.13-.51.2-.78.19zm5.95-8.53c.49-.17.96-.4 1.42-.71.46-.31.85-.66 1.17-1.07.32-.41.54-.89.65-1.44.11-.55.15-1.13.11-1.72-.04-.6-.38-1.23-1.04-1.91-.66-.67-1.34-1.14-2.05-1.38-.71-.25-1.61-.38-2.71-.4l-1.31 8.91c1.28.14 2.13.17 2.56.07.42-.09.82-.21 1.21-.36l-.01.01zm15.011 11.14l-.46-.31c-.19-1.06-.31-2.14-.36-3.24-.05-1.1-.1-2.19-.16-3.26l-4.49-.66c-.37.75-.69 1.54-.95 2.35s-.52 1.78-.77 2.9l-.31.46c-.29.16-.61.2-.97.12l-.46-.31c-.19-.33-.24-.68-.16-1.07.76-2.62 1.75-5.15 2.96-7.58 1.22-2.44 2.52-4.84 3.91-7.2.53-.55 1.01-.5 1.46.15.79 2.79 1.29 5.63 1.52 8.5.23 2.87.38 5.74.46 8.6l-.31.46c-.26.17-.56.21-.92.12l.01-.03zm-1.11-8.79c-.06-1.01-.17-1.96-.31-2.85-.15-.89-.36-1.74-.66-2.54-.49.77-.91 1.56-1.28 2.38-.36.82-.75 1.63-1.16 2.45l3.4.56h.01zm9.219 10.1l-.46-.31c-.14-.22-.2-.46-.2-.73l1.38-9.78c-1.77-3.91-2.9-6.76-3.39-8.52l.31-.46c.29-.16.61-.2.97-.12l.46.31c.41 1.12.9 2.22 1.45 3.29.56 1.07 1.02 2.16 1.41 3.28l4.99-5.55c.33-.22.69-.27 1.07-.15l.46.31c.17.26.21.56.13.92l-.31.46-5.58 6.73-1.43 9.75-.31.46c-.26.17-.57.21-.94.12l-.01-.01z" fill="#58393E" stroke="#58393E" stroke-miterlimit="10"/><path d="M557.21 500.34c25.16 2.62 36.69-5.36 40.47-14.23 1.41-3.31.98-7.04-.77-9.9-1.63-2.66-4.4-4.58-7.9-4.7-19.31-.65-33.55-3.24-47.32-9.99-2.08-1.02-4.43-.97-6.53-.18-2.67 1.01-4.91 3.21-5.63 5.95-3.56 13.68.7 30.24 27.67 33.04l.01.01z" fill="#F9C73D"/><path d="M557.21 500.34c25.16 2.62 36.69-5.36 40.47-14.23.73-1.71.97-3.52.78-5.28-4.51 8.15-16.11 14.96-39.63 12.52-23.58-2.45-29.8-15.42-28.61-27.78-.3.54-.53 1.13-.69 1.73-3.56 13.68.7 30.24 27.67 33.04h.01z" fill="#E89528"/><path d="M535.172 461.35c6.89-.07 7.15 5.58 21.47 11.14 16.2 6.29 25.04-3.06 30.84 3.72 4.38 5.12 9.44 0 9.44 0-1.63-2.66-4.4-4.58-7.9-4.7-19.31-.65-33.55-3.24-47.32-9.99-2.08-1.02-4.43-.97-6.53-.18v.01z" fill="#FFFB76"/><path d="M557.081 501.63c-12.31-1.28-21-5.45-25.81-12.4-4.11-5.92-5.17-13.83-2.97-22.26.72-2.78 2.86-5.22 5.71-6.53 2.76-1.27 5.77-1.29 8.27-.07 12.89 6.31 26.45 9.17 46.79 9.85 3.62.12 6.84 1.99 8.84 5.13 2.13 3.35 2.51 7.67.97 11.26-2.25 5.28-6.71 9.47-12.9 12.11-5.33 2.28-11.87 3.42-19.53 3.42-2.96 0-6.08-.17-9.37-.51zm-15.95-38.94c-1.8-.88-4-.84-6.05.1-2.15.99-3.76 2.8-4.29 4.84-2 7.69-1.08 14.84 2.6 20.14 4.37 6.3 12.43 10.1 23.96 11.3 11.35 1.18 20.64.27 27.61-2.71 5.57-2.38 9.56-6.09 11.54-10.75 1.2-2.82.91-6.22-.78-8.86-1.53-2.41-3.99-3.84-6.75-3.94-20.73-.7-34.6-3.63-47.84-10.11v-.01z" fill="#58393E"/><path d="M545.363 474.45c.53-8.63 8.91-17.28 18.41-16.3 16.34 1.68 15.18 19.05 14.63 20.97-8.77 5.11-26.31 2.81-33.04-4.67z" fill="#F9C73D"/><path d="M545.363 474.45c6.73 7.48 24.27 9.78 33.04 4.67.15-.53.35-2.22.22-4.44-.05.82-.14 1.41-.22 1.68-8.63 5.03-25.74 2.89-32.7-4.31-.18.79-.3 1.59-.34 2.39v.01z" fill="#E89528"/><path d="M563.77 458.15c8.52.88 12.28 6.02 13.85 11.01.07.22.02.47-.14.64-4.4 4.78-12.13-1.84-10.82-6.03.13-.4-.13-.82-.57-.9-.67-.12-1.38-.21-2.11-.28-5.69-.52-11.02 1.57-14.9 4.92-.63.54-1.56-.18-1.13-.87 3.29-5.29 9.29-9.17 15.82-8.5v.01z" fill="#FFFB76"/><path d="M540.961 470.94c.79 1.64 2.02 2.97 3.28 4.24.09.09.18.18.29.27 3.41 3.7 9.37 6.36 16.41 7.33 1.78.24 3.55.36 5.26.36 4.89 0 9.39-.97 12.64-2.8.05-.02.1-.05.15-.08l.06-.03c.12-.07.22-.15.31-.25 1.03-.83 1.99-1.72 2.85-2.73.31-.38.61-.77.87-1.22.23-.39.1-.89-.29-1.12a.83.83 0 00-1.06.2c-.25.29-.54.56-.85.83-.29.25-.6.48-.92.7.07-3.27-.53-8.48-3.39-12.72-2.78-4.11-7.03-6.48-12.65-7.06-4.52-.47-9.1 1.05-12.89 4.27-3.43 2.91-5.82 6.91-6.65 11.01-.73-.59-1.42-1.24-1.97-1.98-.57-.85-1.84-.15-1.44.78h-.01zm5.73 3.05c.41-3.99 2.62-8.02 6-10.88 3.25-2.76 7.14-4.06 10.95-3.67 4.82.5 8.45 2.49 10.78 5.94 3.25 4.8 3.06 11.05 2.82 12.91-3.92 2.06-9.82 2.79-15.95 1.94-6.17-.85-11.57-3.17-14.6-6.25v.01z" fill="#58393E"/><path d="M581.613 479.78c-7.3 3.34-14.86 4.9-22.85 3.74l-.47-.06-.46-.08c-.56-.09-1.31-.21-1.87-.33-1.27-.23-2.53-.57-3.8-.84-1.41-.34-2.26 1.46-1.11 2.33 1.16.85 2.4 1.58 3.71 2.16 7.97 3.67 17.71 2.48 25-2.19 1.22-.78 2.39-1.67 3.42-2.69.95-.96 0-2.53-1.29-2.14l-.27.09-.01.01zm-35.332.46s-.08-.09-.1-.11c-.26-.25-.54-.48-.81-.72-.61-.52-1.1-1.01-1.67-1.54-.31-.28-.6-.58-.96-.81a.731.731 0 00-1.03.18c-.15.21-.15.48-.17.72-.02.44.09.87.26 1.27.63 1.44 2.22 2.42 3.78 2.37.13 0 .32-.04.45-.05.3-.04.5-.32.46-.61 0-.03-.21-.65-.22-.7h.01z" fill="#FFFB76"/><path d="M342.489 484.11c-.35-.84-.74-1.68-1.14-2.51-.95-1.93-2.96-3.17-5.12-3.17-2.6 0-4.87 1.76-5.53 4.27-1.08 4.14-2.65 9.53-5.11 14.47a38.135 38.135 0 01-1.63 2.96c-2.15 3.55-4.58 6.2-7.02 7.65-.25.15-.5.29-.75.41-.75.37-1.5.62-2.24.75-1.18.21-2.37.1-3.62-.32l-.2-.06c-.05-.02-.1-.03-.16-.05l-.07-.07h-.11c-1.08-.44-2.19-1.12-3.3-2.03-1.4-1.15-2.79-2.4-4.13-3.6l-1.04-.92c-1-.89-2.09-1.85-3.23-2.78-1.88-1.55-3.54-2.75-5.21-3.78a29.53 29.53 0 00-5.03-2.48c-2.64-1.03-5.5-1.74-8.5-2.13-1.46-.19-2.96-.3-4.47-.35-2.14-.06-4.34.04-6.53.29-3.42.38-6.73 1.19-9.82 2.41-1.5.59-2.99 1.29-4.42 2.09-2.58 1.43-5.08 3.22-7.42 5.31-3.31 2.96-6.26 4.36-9.15 4.29-.51-.01-1.03-.07-1.56-.17-.45-.08-.88-.2-1.3-.34-.42-.14-.82-.31-1.21-.5l-.07-.04c-3.19-1.64-5.41-5.21-6.58-10.63 3.76-1.27 7.07-2.83 9.86-4.64 6.94-4.51 10.77-10.61 10.77-17.17 0-5.39-2.53-10.43-7.31-14.58.11-1 .16-1.84.16-2.64 0-17.31-16.13-29.39-39.22-29.39s-39.22 12.09-39.22 29.39c0 .8.05 1.64.16 2.64-4.78 4.15-7.31 9.19-7.31 14.58 0 6.57 3.82 12.67 10.77 17.17 2.9 1.88 6.36 3.49 10.29 4.79 1.88 13.07 7.37 36.42 23.08 48.4.36.36.72.68 1.09.94.26.18.52.37.78.54.25.17.51.34.76.5.17.11.34.22.5.32a36 36 0 001.58.92c.19.11.39.21.58.31l.28.15c.21.11.43.22.68.34l.64.3c.44.2.89.4 1.33.58l.71.28a47.078 47.078 0 002.12.75c.36.12.73.22 1.11.33l.35.1c.05.02.09.03.12.03l.38.1c.11.03.22.06.35.09l.6.14c.17.04.35.08.51.12.23.05.46.1.68.14.39.08.79.15 1.15.21l2.06.28c.11.01.22.02.35.04l.88.08.68.05c.81.05 1.68.08 2.64.08.59 0 5.97 0 13.46-1.75.83-.19 1.69-.41 2.57-.65a80.532 80.532 0 003.78-1.14c6.16-2.05 11.83-4.87 16.86-8.39l.3-.21c.49-.34.98-.68 1.49-1l.47-.3c.57-.35 1.15-.68 1.71-.99 4.24-2.28 8.25-3.2 11.93-2.76.49.06 1 .15 1.52.27l.11-.49.05.52c.34.08.68.18 1.02.28.53.16 1.07.36 1.59.57 3.31 1.35 6.23 3.58 9.43 6.14l1.58 1.26c.88.7 1.76 1.39 2.65 2.06.56.42 1.14.83 1.71 1.23 1.36.94 2.62 1.71 3.86 2.36 2.21 1.16 4.59 2 7.06 2.5.8.16 1.63.29 2.47.38.95.1 1.92.15 2.87.15.42 0 .84 0 1.26-.03.71-.03 1.42-.1 2.11-.19l.87-.12 1.9-.4c.44-.11.87-.23 1.32-.36l.64-.2c.16-.05.32-.11.51-.18l.18-.06.45-.17c.16-.06.31-.12.43-.17.22-.09.43-.18.67-.28l.46-.21c.1-.04.19-.09.28-.13.47-.22.93-.46 1.38-.7l.73-.41c.27-.16.54-.33.81-.52.25-.18.5-.37.68-.53 3.52-2.32 6.85-5.51 10.18-9.74 4.85-6.17 8.29-13.6 9.95-21.48 2.1-10.01 1.19-20.46-2.57-29.4zm-176.84-26.41c-.21-1.22-.31-2.45-.31-3.66 0-15.25 14.69-25.89 35.72-25.89s35.72 10.65 35.72 25.89c0 1.21-.1 2.44-.31 3.66l.49.08-.52.08-.05.3.24.18c4.77 3.67 7.3 8.13 7.3 12.92 0 5.42-3.17 10.34-9.17 14.24-3.16 2.05-7.03 3.74-11.5 5.04l-.42.12.06.43c1.19 8.08 4.21 13.38 8.99 15.78 1.06.53 2.21.92 3.43 1.15.72.14 1.44.21 2.14.23 3.82.07 7.51-1.56 11.56-5.18 2.14-1.92 4.42-3.55 6.78-4.86 1.3-.72 2.64-1.36 4.01-1.89 2.8-1.1 5.81-1.84 8.92-2.19 2.03-.23 4.07-.32 6.05-.26 1.39.04 2.77.14 4.11.32 4.6.6 8.68 1.99 12.15 4.12 1.54.95 3.07 2.06 4.82 3.51 1.12.92 2.21 1.88 3.13 2.7l1.02.91c1.38 1.23 2.8 2.5 4.25 3.69 1.42 1.17 2.88 2.05 4.34 2.62 1.98.78 3.98 1 5.95.65 1.41-.25 2.82-.79 4.18-1.6 2.97-1.77 5.73-4.75 8.22-8.84.58-.95 1.14-1.96 1.7-3.08l.08-.15c2.6-5.21 4.23-10.83 5.36-15.13.26-.98 1.14-1.66 2.15-1.66.84 0 1.62.48 1.98 1.23.38.76.73 1.54 1.05 2.31 3.48 8.3 4.33 18.01 2.37 27.33-1.54 7.36-4.75 14.29-9.27 20.04-3.15 4-6.26 6.98-9.51 9.09l-.11.08v.03s-.02 0-.03.01c-.15.13-.31.25-.46.36-.19.13-.39.25-.59.37-.11.07-.22.13-.33.19l-.29.16c-.4.22-.8.42-1.21.61l-.66.3c-.18.08-.36.15-.55.23-.13.05-.25.1-.38.15l-1.56.54c-.37.11-.74.21-1.13.31l-.55.13-1.51.27c-.7.1-1.42.17-2.15.21-1.19.05-2.39.02-3.59-.11-.72-.08-1.44-.19-2.14-.33-2.15-.43-4.22-1.16-6.13-2.17-1.12-.58-2.26-1.28-3.5-2.14-.54-.38-1.08-.76-1.61-1.16-.87-.65-1.72-1.32-2.57-1.99l-1.58-1.26c-3.42-2.73-6.56-5.12-10.29-6.64a22.484 22.484 0 00-3.11-1.02l-.11-.03a18.006 18.006 0 00-4.21-.48c-3.76 0-7.71 1.1-11.77 3.28-.63.34-1.27.71-1.9 1.09l-.51.32c-.56.35-1.1.72-1.71 1.15l-.19.13c-4.77 3.34-10.15 6.01-15.98 7.96-.82.27-1.62.52-2.42.75-.4.12-.79.23-1.18.33-.84.23-1.65.43-2.44.62-7.31 1.71-12.58 1.67-12.63 1.66-.82 0-1.65-.02-2.45-.07l-3.6-.4c-.36-.06-.71-.12-1.06-.19l-2.72-.65c-.33-.09-.66-.19-.98-.3-.43-.14-.86-.29-1.29-.44l-.63-.24-.62-.25c-.41-.17-.82-.35-1.22-.53l-.6-.28c-.2-.1-.39-.19-.58-.29l-.26-.13c-.18-.09-.35-.19-.53-.29-.48-.26-.96-.54-1.43-.83-.16-.09-.31-.19-.46-.29-.23-.15-.46-.29-.68-.45-.24-.16-.48-.33-.71-.5-.28-.2-.53-.42-.75-.66l-.11-.1c-16-12.14-20.8-37.67-22.12-48.08l-.04-.33-.31-.09c-4.37-1.28-8.15-2.95-11.24-4.96-6-3.9-9.17-8.82-9.17-14.24 0-4.78 2.52-9.25 7.3-12.92l.21-.35-.05-.3-.03.02z" fill="#58393E"/><path d="M338.66 482.93a2.717 2.717 0 00-5.06.53c-1.35 5.14-2.94 10.27-5.32 15.04 1.96 1.74 3.22 4.08 3.36 6.7.3 5.78-4.94 10.75-11.71 11.11-4.71.25-8.92-1.81-11.15-5.03-1.45-.57-2.85-1.43-4.2-2.54-1.79-1.48-3.51-3.05-5.25-4.59-3.51 3.78-9.76 4.97-15.53 2.54-5.93-2.5-9.48-8.03-9-13.31-2.06-.05-4.11.04-6.12.27-3.2.36-6.22 1.1-9.05 2.22.53.83.95 1.74 1.24 2.71 2.04 6.73-2.69 14.12-10.58 16.51-7.88 2.39-15.92-1.13-17.96-7.86-.08-.26-.15-.52-.21-.79-3.85-1.93-7.38-6.32-8.72-15.4 4.57-1.32 8.48-3.05 11.64-5.1-4.78-2.66-8.01-7.76-8.01-13.62 0-6.61 4.12-12.26 9.94-14.52.21-1.22.32-2.47.32-3.75 0-14.58-13.77-26.39-36.22-26.39s-36.22 11.82-36.22 26.39c0 1.27.11 2.52.32 3.75 5.82 2.26 9.94 7.91 9.94 14.52 0 5.86-3.23 10.95-8.01 13.62 3.1 2.01 6.92 3.71 11.37 5.02 1.44 11.33 6.34 36.3 22.32 48.42.01 0 .02.02.04.03-.22-.23-.41-.49-.58-.76-2.84-4.57-5.03-9.77-6.71-15.04l27.99-6.17c.85 1.69 1.76 3.34 2.78 4.93 1.01 1.56 2.59 2.99 4.34 4.15l-25.47 14.53-.1.06c.15.1.31.2.47.3.47.29.95.57 1.45.84l.11-.06 25.46-14.52c.45.24.9.46 1.35.66.5.22.99.42 1.46.59 2.71.97 5.54 1.26 8.37 1.05l-7.15 14.6-.07.14c.8-.19 1.62-.39 2.46-.62l.07-.14 6.98-14.26c.06 0 .12-.02.19-.03.78-.13 1.55-.3 2.32-.5 3.42-.89 6.71-2.39 9.66-4.16l.51 9.86v.12l.27-.18c.53-.37 1.07-.74 1.62-1.09v-.12l-.51-9.78c.13-.08.26-.16.38-.24.62-.38 1.24-.72 1.87-1.05 4.91-2.53 10.04-3.49 15.15-2.71l-.8 9.28v.12c.63.08 1.27.19 1.9.34v-.12l.81-9.25c.75.18 1.51.4 2.26.65.61.21 1.23.45 1.84.71 3.89 1.67 7.72 4.41 11.39 8.31l-2.93 7.19-.04.09c.53.42 1.05.84 1.58 1.26l.04-.09 2.79-6.85c.63.73 1.25 1.49 1.87 2.29.1.13.2.26.3.38.47.59.95 1.14 1.43 1.66 3.24 3.46 6.86 5.45 10.41 6.51l-2.74 3.55-.08.1c.72.15 1.45.26 2.19.34l.09-.11 2.6-3.37c.91.19 1.8.32 2.68.41.72.07 1.43.11 2.13.13 3.08.07 7.91-.97 7.93-.98 3.7-2.4 6.87-5.69 9.63-9.2 4.64-5.9 7.83-12.91 9.37-20.25 1.93-9.18 1.25-18.95-2.4-27.63-.33-.79-.69-1.57-1.07-2.34l-.02-.01zm-149.03-18.14c-1.84 0-3.34-1.59-3.34-4.22s1.49-4.22 3.34-4.22c1.85 0 3.34 1.59 3.34 4.22s-1.49 4.22-3.34 4.22zm-1.88-18.15h-.12l-3.73-.28c-.89-.07-1.56-.84-1.49-1.73.07-.89.84-1.56 1.73-1.49l3.73.28a1.613 1.613 0 01-.12 3.22zm26.75 0h-.12c-.84 0-1.54-.65-1.61-1.49-.07-.89.6-1.66 1.49-1.73l3.73-.28c.89-.07 1.66.6 1.73 1.49.07.89-.6 1.66-1.49 1.73l-3.73.28zm1.33 13.93c0 2.63-1.49 4.22-3.34 4.22-1.85 0-3.34-1.59-3.34-4.22s1.49-4.22 3.34-4.22c1.85 0 3.34 1.59 3.34 4.22zm-6.19 16.28c1.33 1.03 3.03 1.26 4.55.62l1.63-1.02a.975.975 0 011.34.31c.28.45.15 1.05-.31 1.34l-1.7 1.06s-.08.05-.13.07c-.84.37-1.72.55-2.59.55-1.41 0-2.8-.47-3.98-1.39-1.97-1.52-4.85-3.35-7.39-3.4-2.54.06-5.42 1.88-7.39 3.4-1.92 1.49-4.38 1.8-6.57.84-.04-.02-.09-.04-.13-.07l-1.7-1.06a.98.98 0 01-.31-1.34c.28-.46.88-.59 1.33-.31l1.63 1.02c1.52.64 3.21.41 4.55-.62 2.21-1.71 5.48-3.75 8.56-3.81h.04c3.08.06 6.35 2.1 8.56 3.81h.01zm-27.38 14.5c.14-.52.67-.82 1.19-.68 5.34 1.47 11.27 2.21 17.61 2.21s12.27-.75 17.61-2.21a.965.965 0 011.19.68.965.965 0 01-.68 1.19c-1.51.42-3.07.77-4.67 1.07.02.15.03.31.05.45.31 2.29.72 4.56 1.21 6.81l-26.8 1.48c-.44-3.44-.7-6.42-.85-8.66-1.78-.32-3.52-.71-5.2-1.17a.97.97 0 01-.68-1.19l.02.02zm10.69 30.37c-1.81-6.1-2.97-12.19-3.71-17.43l26.98-1.49c.54 2.23 1.17 4.45 1.92 6.62.72 2.1 1.56 4.17 2.5 6.2l-27.68 6.1h-.01z" fill="#52BDE2"/><path d="M241.738 529.93c-2.82.21-5.65-.08-8.37-1.05-.48-.17-.97-.37-1.46-.59-.45-.2-.9-.42-1.35-.66l-25.46 14.52-.11.06c.18.1.36.19.54.29.08.04.17.09.26.13l.6.3.3.15c.1.05.2.1.3.14.41.19.82.37 1.24.54.1.04.21.09.31.13.11.04.21.08.32.12.21.08.43.16.64.24.43.16.86.31 1.31.45.33.11.66.21 1 .3l.34.09.34.09c.06.02.13.03.19.05l.23.06c.09.02.18.04.27.07.1.02.2.05.3.07.15.04.31.07.46.1.21.04.42.09.63.13.36.07.72.14 1.08.19.09.02.19.03.28.04.15.02.3.05.45.07.12.02.24.03.37.05.14.02.27.04.41.05.12.02.25.03.37.04l.59.06c.04 0 .08 0 .12.01l.38.03c.13 0 .26.02.39.03.1 0 .19.01.29.02.81.05 1.64.08 2.49.08 0 0 5.28.07 12.75-1.67l.07-.14 7.15-14.6-.02.01zm33.752-10.16c-5.12-.78-10.24.18-15.15 2.71-.63.32-1.25.67-1.87 1.05-.13.08-.26.15-.38.24l.51 9.78v.12c.17-.11.34-.21.51-.32.61-.38 1.24-.74 1.87-1.08 4.23-2.27 8.95-3.66 13.71-3.09v-.12l.81-9.28-.01-.01zm32.848 22.5c-3.55-1.06-7.17-3.05-10.41-6.51-.49-.52-.97-1.07-1.43-1.66-.1-.13-.2-.25-.3-.38-.62-.8-1.24-1.57-1.87-2.29l-2.79 6.85-.04.09c.85.68 1.71 1.35 2.58 2 .54.4 1.08.79 1.62 1.17 1.15.79 2.32 1.53 3.55 2.17 1.97 1.03 4.09 1.78 6.27 2.22l.08-.1 2.74-3.55v-.01zm-79.699-15.78c-1.75-1.16-3.33-2.59-4.34-4.15-1.02-1.58-1.93-3.24-2.78-4.93l-27.99 6.17c1.68 5.27 3.86 10.47 6.71 15.04.17.27.36.53.58.76.25.27.53.52.83.73.24.17.48.34.72.5.23.15.46.31.7.46l.1-.06 25.47-14.53v.01zm27.56-1.541c-2.95 1.78-6.24 3.27-9.66 4.16-.77.2-1.54.37-2.32.5-.06.01-.12.02-.19.03l-6.98 14.26-.07.14c.39-.11.79-.22 1.19-.34.8-.23 1.61-.48 2.43-.76 5.08-1.69 10.68-4.23 16.11-8.02v-.12l-.52-9.86.01.01zm-68.06-31.239c.15 2.24.41 5.21.85 8.66l26.8-1.48c-.49-2.26-.9-4.53-1.21-6.81-.02-.15-.03-.3-.05-.45-4.22.8-8.73 1.21-13.46 1.21s-8.86-.38-12.93-1.12v-.01zm127.05 49.61c-.69-.01-1.4-.06-2.13-.13-.88-.09-1.77-.22-2.68-.41l-2.6 3.37-.09.11a23.66 23.66 0 005.87-.1c.04 0 .08-.01.12-.02.07 0 .14-.02.21-.03.08-.01.15-.02.23-.04.1-.02.19-.03.29-.05.07-.01.14-.03.21-.04.07-.01.14-.03.21-.04.03 0 .07-.01.1-.02.07-.01.14-.03.22-.05.1-.02.21-.05.31-.07.07-.02.15-.03.22-.05.39-.09.77-.2 1.14-.31.09-.03.18-.05.26-.08.1-.03.2-.07.31-.1.14-.04.27-.09.41-.14.07-.02.13-.05.2-.07.14-.05.27-.1.41-.15l.39-.15c.19-.08.37-.15.56-.23l.27-.12c.07-.03.15-.07.22-.1a23.654 23.654 0 001.42-.72c.1-.05.2-.11.3-.16.11-.06.23-.13.34-.2.21-.12.42-.25.62-.39.18-.12.35-.25.51-.4.02-.02.07-.06.08-.07-.02 0-4.85 1.04-7.93.98v-.02zm-98.961-40.52l-26.98 1.49c.74 5.23 1.9 11.33 3.71 17.43l27.68-6.1c-.94-2.02-1.77-4.09-2.5-6.2-.75-2.17-1.37-4.39-1.92-6.62h.01zm73.722 34.21l2.93-7.19c-3.66-3.89-7.49-6.64-11.39-8.31-.61-.26-1.22-.5-1.84-.71-.75-.26-1.5-.48-2.26-.65l-.8 9.25v.12s.06.02.1.03c.4.1.8.21 1.19.33.63.19 1.24.42 1.85.66 3.75 1.54 6.97 4.02 10.17 6.57l.04-.09.01-.01z" fill="#F5EFE1"/><path d="M250.289 515.07c7.88-2.39 12.62-9.78 10.58-16.51-.3-.97-.72-1.88-1.24-2.71-1.4.55-2.75 1.19-4.07 1.92.43.63.77 1.34 1 2.09 1.42 4.7-1.88 9.86-7.38 11.52-4.73 1.43-9.54-.18-11.7-3.64-.67-.01-1.35-.09-2.06-.22-1.1-.21-2.21-.56-3.3-1.11.06.26.13.53.21.79 2.04 6.73 10.08 10.25 17.96 7.86v.01z" fill="#178EC2"/><path d="M249.179 511.39c5.5-1.67 8.81-6.83 7.38-11.52-.23-.76-.57-1.46-1-2.09a37.889 37.889 0 00-6.87 4.93c-3.25 2.91-6.91 5.15-11.21 5.05 2.16 3.46 6.97 5.08 11.7 3.64v-.01z" fill="#163B5E"/><path d="M283.799 506.67c5.77 2.43 12.02 1.24 15.53-2.54-1.04-.92-2.08-1.83-3.14-2.71-2.42 2.77-6.88 3.67-10.99 1.94-4.28-1.81-6.79-5.87-6.24-9.68-1.38-.18-2.77-.29-4.16-.32-.48 5.29 3.07 10.82 9 13.31z" fill="#178EC2"/><path d="M285.188 503.36c4.11 1.73 8.57.83 10.99-1.94-1.55-1.28-3.16-2.49-4.88-3.55-3.73-2.3-7.98-3.62-12.35-4.19-.55 3.8 1.95 7.87 6.24 9.68z" fill="#163B5E"/><path d="M319.929 516.3c6.77-.36 12.01-5.33 11.71-11.11-.14-2.62-1.39-4.96-3.36-6.7-.03.07-.07.14-.11.21-.5.98-1.05 1.99-1.65 2.99.83 1.06 1.34 2.32 1.42 3.7.21 4.04-3.45 7.51-8.17 7.76-1.97.1-3.81-.37-5.3-1.24-1.94.34-3.84.1-5.68-.62 2.23 3.22 6.44 5.28 11.15 5.03l-.01-.02z" fill="#178EC2"/><path d="M327.929 505.38c-.07-1.38-.58-2.64-1.42-3.7-2.06 3.4-4.76 6.71-8.05 8.67-1.35.81-2.69 1.31-4.01 1.54 1.5.88 3.34 1.35 5.3 1.24 4.73-.25 8.39-3.72 8.17-7.76l.01.01z" fill="#163B5E"/><path d="M175.099 472.3c0-6.61-4.12-12.26-9.94-14.52 0 .05.02.11.03.16-4.86 3.74-7.49 8.34-7.49 13.32 0 5.6 3.32 10.71 9.4 14.66 4.78-2.66 8.01-7.76 8.01-13.62h-.01zm51.93 0c0 5.86 3.23 10.95 8.01 13.62 6.08-3.95 9.4-9.06 9.4-14.66 0-4.98-2.63-9.58-7.49-13.32 0-.05.02-.11.03-.16-5.82 2.26-9.94 7.91-9.94 14.52h-.01z" fill="#FEA386"/><path d="M189.629 456.35c-1.84 0-3.34 1.59-3.34 4.22s1.49 4.22 3.34 4.22c1.85 0 3.34-1.59 3.34-4.22s-1.49-4.22-3.34-4.22zm19.529 4.22c0 2.63 1.49 4.22 3.34 4.22 1.85 0 3.34-1.59 3.34-4.22s-1.49-4.22-3.34-4.22c-1.85 0-3.34 1.59-3.34 4.22zm-8.109 12.48c-3.08.06-6.35 2.1-8.56 3.81-1.33 1.03-3.03 1.26-4.55.62l-1.63-1.02a.961.961 0 00-1.33.31.973.973 0 00.31 1.34l1.7 1.06s.08.05.13.07c2.19.96 4.65.65 6.57-.84 1.97-1.52 4.85-3.35 7.39-3.4 2.54.06 5.42 1.88 7.39 3.4 1.19.92 2.58 1.39 3.98 1.39.87 0 1.75-.18 2.59-.55.04-.02.09-.04.13-.07l1.7-1.06a.98.98 0 00.31-1.34.98.98 0 00-1.34-.31l-1.63 1.02c-1.52.64-3.21.41-4.55-.62-2.21-1.71-5.48-3.75-8.56-3.81h-.05z" fill="#58393E"/><path d="M182.938 492.54c1.68.46 3.42.85 5.2 1.17 4.07.74 8.391 1.12 12.931 1.12 4.54 0 9.239-.41 13.459-1.21 1.6-.3 3.16-.66 4.67-1.07a.97.97 0 00-.51-1.87c-5.34 1.47-11.27 2.21-17.61 2.21s-12.27-.75-17.61-2.21a.965.965 0 00-1.19.68.966.966 0 00.681 1.19l-.021-.01z" fill="#178EC2"/><path d="M219.719 444.63c-.07-.89-.84-1.56-1.73-1.49l-3.73.28a1.613 1.613 0 00.12 3.22h.12l3.73-.28c.89-.07 1.56-.84 1.49-1.73zm-31.85-1.21l-3.73-.28c-.89-.07-1.66.6-1.73 1.49-.07.89.6 1.66 1.49 1.73l3.73.28h.12c.84 0 1.54-.65 1.61-1.49.07-.89-.6-1.66-1.49-1.73zm12.739-5.16s-.1 0-.16-.01c-.06 0-.13 0-.17-.02a.976.976 0 01-.17-.07l-.14-.07c-1.67-.79-8.09-5.54-19.61-14.52-11.21-8.74-17.59-13.95-18.94-15.48-.16-.13-.28-.3-.35-.5-.02-.04-.03-.08-.04-.12 0-.03-.02-.11-.02-.15 0-.1 0-.18.01-.26 0 .02 0-.07.02-.18.04-.13.1-.25.19-.36.53-1.05 2.66-4.34 14.01-19.67 2.14-3.25 6.77-5.87 12.67-7.17 7.37-1.62 11.68-.48 14.01.79.04.01.1.03.16.06 16.6 8.81 20.04 10.81 21.08 11.54a1.098 1.098 0 01.62.65c0 .03.04.12.05.15 0 .04.01.09.01.14.02.17 0 .37-.08.54-.51 1.92-4 9.28-10.67 22.49-6.52 12.9-10.28 19.97-11.5 21.59-.04.09-.1.17-.17.24-.02.02-.09.1-.12.11-.04.04-.05.05-.09.08-.03.02-.1.05-.15.08a.919.919 0 01-.44.11l-.01.01zm-1.94-2.39s.1.07.14.1c-.02-.04-.05-.07-.07-.11h-.07v.01zm-15.71-22.61c7.46 7.95 13.7 17.31 16.75 21.89.17.25.32.48.47.7.18-.74.39-1.65.64-2.7 1.33-5.63 3.52-14.94 6.42-25.24l-24.27 5.35h-.01zm-16.33-3.57c6.81 5.64 21.48 17.09 29.34 22.91-3.43-4.68-9.22-12.16-15.86-19l-13.49-3.91h.01zm43.25-2.69c-2.57 9.06-5.01 18.36-6.63 24.63 4.79-9.4 12.6-25.84 16.28-33.89l-9.65 9.26zm-28.94 5.73c.09.09.18.18.26.27-.01-.09 0-.18.02-.27 0-.02.02-.05.03-.07l-.31.07zm10.29-17.51l-9.24 16.05 25.07-5.53-15.83-10.52zm-27.31 11.92l15.43 3.89-2.02-14.68-13.42 10.8.01-.01zm15.63-11.52l1.85 13.5 7.54-13.04c-4.29.62-7.36.17-9.4-.46h.01zm-16.29 12.59c.07.06.15.13.22.2v-.15l-.22-.06v.01zm45.21-1.55l.05.05c.06.06.1.14.13.22l.09-.33c-.02 0-.03.01-.05.01l-.22.05zm-46.03.12s0 .01-.01.02h.01v-.02zm46.73-.79v.03l.04-.03h-.04zm-4.47-15.54l4.69 13.89 12.24-10.76-16.93-3.13zm-10.78 4.52l12.78 8.57-4.39-13c-2.05 1.84-4.96 3.38-8.39 4.43zm-19.53-3.12c-2.86 3.88-5.92 8.09-8.13 11.2l10.17-8.91c-.96-.67-1.66-1.46-2.04-2.29zm47.53 3.08s.02.05.02.07c.02-.05.04-.09.06-.14l-.08.07zm-44.14-.32a.574.574 0 01.44.19.606.606 0 01.4-.65c-.23-.1-.44-.2-.65-.31.02.05.03.1.04.16.02.19-.06.38-.2.51l-.11.09h.07l.01.01zm16.81-13.43c-1.89 0-3.98.24-6.19.73-5.26 1.16-8.22 3.11-9.78 4.55-1.81 1.66-2.44 3.3-2.26 4.12.43 1.94 5.28 4.86 14.57 2.81 5.07-1.12 8.02-2.97 9.6-4.32 2.11-1.8 2.64-3.43 2.43-4.36-.17-.75-.83-1.51-1.87-2.12l.18-.58-.29.52s-.04-.03-.06-.04c-1.58-.88-3.77-1.32-6.34-1.32l.01.01zm26.58 11.1l.12.02s-.09-.06-.14-.08c0 .02.02.04.02.06zm-16.78-4.21l12.16 2.83c-3.81-2.08-8.6-4.65-11.25-6.06.07 1.03-.24 2.13-.91 3.24v-.01zm-29.74 1.81c.06 0 .11 0 .17.02.13.04.24.12.31.22.03-.59.23-1.24.57-1.91-.43.58-.85 1.14-1.25 1.7.06-.02.13-.03.2-.03zm27.93-1.03s.09 0 .13.01c.21.05.37.2.44.39l.08.25c.02-.08.07-.16.12-.23.06-.07.15-.13.23-.17l-.31-.07a.61.61 0 01-.43-.38c-.02-.07-.04-.14-.04-.21-.11.13-.22.27-.34.4h.11l.01.01zm-.07-6.74c.56.44.99.93 1.28 1.45.02-.12.08-.24.18-.33.1-.09.22-.15.35-.16-.58-.31-1.19-.63-1.81-.96z" fill="#58393E"/><path d="M175.928 387.39l-14.1 20.25s34.86 30.59 38.68 30.01c3.82-.58 23.77-43.04 22.73-44.66-1.04-1.62-21.03-11.05-21.03-11.05" fill="#F9C73D"/><path d="M200.298 439.17c-1.35 0-4.74-1.32-21.52-15.15-9.1-7.5-17.85-15.18-17.94-15.25-.57-.5-.68-1.36-.24-1.98l14.1-20.25c.47-.68 1.41-.85 2.09-.37.68.47.85 1.41.37 2.09l-13.33 19.15c15.7 13.73 33.12 27.82 36.41 28.72 3.77-2.83 20.2-37.01 21.46-42.5-2.13-1.52-11.55-6.27-20.14-10.33a1.506 1.506 0 01-.72-2c.35-.75 1.25-1.07 2-.72 9.3 4.39 20.6 9.97 21.65 11.6.5.78.97 1.51-4.67 14.01-3.22 7.13-7.07 14.94-10.3 20.9-6.33 11.66-7.88 11.9-8.8 12.04-.13.02-.27.04-.44.04h.02z" fill="#58393E"/><path d="M180.789 413.65c-.11 0-.21-.01-.32-.03-.6-.13-1.07-.62-1.16-1.23l-2.4-15.37-13.85 11.5c-.64.53-1.58.44-2.11-.2-.53-.64-.44-1.58.2-2.11l15.88-13.19c.42-.35.98-.44 1.49-.25s.87.64.95 1.17l2.21 14.17 9.36-14.1c.22-.33.57-.57.96-.64.39-.08.8 0 1.13.24l12.58 8.65-4.51-13.44c-.17-.52-.05-1.09.32-1.49.37-.4.93-.57 1.46-.45l19.46 4.68c.81.19 1.3 1 1.11 1.81-.19.81-1 1.3-1.81 1.11l-16.83-4.05 5.07 15.13c.21.61 0 1.29-.52 1.67-.52.38-1.22.4-1.75.04l-15.03-10.33-10.65 16.05c-.28.42-.75.67-1.25.67l.01-.01z" fill="#58393E"/><path d="M200.158 438.25c-.45 0-.89-.21-1.18-.57l-18.79-23.69-18.26-4.61c-.8-.2-1.29-1.02-1.09-1.82.2-.8 1.02-1.29 1.82-1.09l18.75 4.73c.32.08.6.26.81.52l17.26 21.77 7.47-27.51c.07-.27.22-.51.42-.7l13.75-12.95a1.5 1.5 0 012.06 2.18l-13.44 12.66-8.14 29.96a1.508 1.508 0 01-1.45 1.11l.01.01z" fill="#58393E"/><path d="M181.049 414.16c-.68 0-1.3-.47-1.46-1.16-.19-.81.31-1.61 1.12-1.8l26.5-6.15c.81-.19 1.61.31 1.8 1.12.19.81-.31 1.61-1.12 1.8l-26.5 6.15c-.11.03-.23.04-.34.04z" fill="#58393E"/><path d="M191.644 395.38c7.775-1.965 13.221-6.947 12.165-11.129-1.057-4.182-8.216-5.98-15.991-4.015-7.775 1.964-13.221 6.947-12.165 11.129 1.057 4.181 8.216 5.979 15.991 4.015z" fill="#FFFB76"/><path d="M185.488 397.7c-5.82 0-10.35-2.2-11.3-5.95-1.28-5.06 4.54-10.75 13.25-12.95 8.71-2.2 16.53.04 17.81 5.11.65 2.58-.49 5.38-3.21 7.87-2.48 2.27-6.04 4.07-10.04 5.08-2.26.57-4.47.84-6.51.84zm-8.39-6.69c.73 2.89 6.73 4.81 14.17 2.93 3.52-.89 6.63-2.45 8.75-4.38 1.84-1.69 2.69-3.48 2.33-4.92-.73-2.89-6.73-4.81-14.16-2.93-7.44 1.88-11.8 6.41-11.07 9.31l-.02-.01z" fill="#58393E"/><path d="M66.96 524.45c-40.07 4.41-58.44-9.02-64.46-23.96-2.25-5.57-1.56-11.85 1.23-16.67 2.6-4.48 7.01-7.71 12.57-7.91 30.76-1.09 53.44-5.46 75.36-16.81 3.31-1.71 7.06-1.63 10.399-.3 4.25 1.7 7.82 5.4 8.96 10.02 5.66 23.03-1.12 50.92-44.07 55.63h.01z" fill="#F9C73D"/><path d="M66.96 524.45c-40.07 4.41-58.44-9.02-64.46-23.96-1.16-2.87-1.54-5.93-1.25-8.88 7.18 13.72 25.66 25.19 63.12 21.07 37.559-4.13 47.459-25.96 45.569-46.77.47.92.84 1.9 1.09 2.91 5.66 23.03-1.12 50.92-44.07 55.63z" fill="#E89528"/><path d="M102.069 458.81c-10.98-.12-11.38 9.39-34.19 18.75-25.8 10.59-39.87-5.15-49.12 6.26-6.98 8.61-15.03 0-15.03 0 2.6-4.48 7.01-7.71 12.57-7.91 30.76-1.09 53.44-5.46 75.36-16.81 3.31-1.71 7.06-1.63 10.4-.3l.01.01z" fill="#FFFB76"/><path d="M112.149 468.54c-1.12-4.55-4.47-8.48-8.96-10.51-4.05-1.84-8.44-1.82-12.06.05-20.65 10.69-42.35 15.52-74.87 16.68-5.24.19-9.99 2.97-13.02 7.64-3.53 5.44-4.23 12.54-1.82 18.51 3.49 8.64 10.42 15.51 20.06 19.86 8.38 3.78 18.68 5.68 30.76 5.68 4.68 0 9.63-.29 14.84-.86 9.76-1.07 18.17-3.4 25-6.92 6.25-3.22 11.26-7.48 14.88-12.66 3.66-5.24 5.9-11.38 6.66-18.26.67-6.08.17-12.54-1.47-19.21zm-7.08 36.16c-7.24 10.36-20.1 16.62-38.24 18.61-18.22 2-33.15.44-44.4-4.63-9.08-4.1-15.61-10.54-18.87-18.62-2.13-5.29-1.52-11.57 1.61-16.39 2.66-4.09 6.62-6.43 11.17-6.59 16.31-.58 29.4-2.04 41.19-4.58 12.46-2.69 23.8-6.73 34.66-12.35 2.98-1.54 6.64-1.54 10.04 0 3.85 1.75 6.72 5.1 7.67 8.96 3.37 13.68 1.65 26.32-4.84 35.6l.01-.01z" fill="#58393E"/><path d="M85.84 480.87c-.84-14.52-14.19-29.09-29.33-27.44-26.03 2.83-24.17 32.07-23.29 35.31 13.98 8.6 41.9 4.74 52.62-7.86v-.01z" fill="#F9C73D"/><path d="M85.84 480.87c-10.72 12.6-38.65 16.46-52.63 7.86-.24-.89-.55-3.74-.35-7.47.08 1.38.22 2.37.35 2.84 13.75 8.46 40.99 4.86 52.08-7.25.29 1.33.47 2.68.55 4.03v-.01z" fill="#E89528"/><path d="M56.509 453.43c-13.57 1.48-19.56 10.13-22.07 18.54-.11.37-.03.79.22 1.08 7.01 8.04 19.32-3.1 17.24-10.15-.2-.68.21-1.38.91-1.51 1.07-.19 2.19-.35 3.37-.47 9.06-.88 17.55 2.64 23.73 8.28 1 .91 2.48-.31 1.8-1.47-5.23-8.91-14.8-15.44-25.2-14.31v.01z" fill="#FFFB76"/><path d="M91.06 473.95c-.35.58-.77 1.14-1.22 1.68-.93 1.08-1.97 2.08-3.06 3.02-.47-3.37-1.57-6.78-3.23-9.98-1.99-3.82-4.74-7.28-7.96-10-5.71-4.83-12.53-7.1-19.2-6.37-8.38.91-14.8 4.55-19.07 10.81-3.65 5.35-4.96 11.58-5.42 15.87-.31 2.95-.29 5.51-.16 7.35-.45-.33-.9-.67-1.33-1.02-1.07-.87-2.13-1.83-2.94-2.93a.736.736 0 00-1.24.79c.4.68.87 1.3 1.36 1.89.49.59 1.02 1.13 1.55 1.66 1.02.99 2.08 1.92 3.2 2.79.08.09.16.16.26.22 3.53 2.17 7.92 3.63 13.06 4.33 2.22.3 4.54.45 6.91.45 2.74 0 5.55-.2 8.34-.61 5.22-.76 10.28-2.22 14.63-4.22 4.64-2.14 8.35-4.79 11.04-7.9.03-.02.05-.04.08-.06.26-.23.58-.55.83-.79 1.87-1.89 3.68-3.87 4.86-6.28.37-.85-.8-1.47-1.29-.69v-.01zm-56.81 14.06c-.45-2.73-1.15-14.63 4.98-23.61 3.88-5.68 9.73-8.98 17.41-9.82 6.03-.66 12.23 1.42 17.46 5.84 5.97 5.06 9.99 12.7 10.56 20.06-10.32 11.6-36.72 15.54-50.41 7.53z" fill="#58393E"/><path d="M27.57 490.66c10.64 6.35 23.39 9.49 35.71 7.46 3.32-.53 6.64-1.38 9.83-2.47.72-.24 1.57-.55 2.29-.8 1.29-.4 2.13 1.3 1 2.08-13.44 8.83-31.41 7.91-44.87-.45-1.91-1.18-3.76-2.49-5.41-4.02-1.02-1.01.24-2.58 1.45-1.8z" fill="#FFFB76"/><path d="M84.449 491.12c.11-.08.32-.2.44-.27 1.3-.78 2.53-1.7 3.52-2.84.56-.63 1.05-1.31 1.53-2.02.11-.16.22-.33.35-.5.21-.27.6-.32.88-.11.15.12.23.29.24.47.01.42-.03.85-.13 1.26-.29 1.26-1.01 2.41-1.96 3.28-.95.87-2.1 1.48-3.35 1.76-.42.09-.85.14-1.28.13-.52 0-.79-.66-.4-1.01l.17-.16-.01.01z" fill="#F9E5DC"/><path d="M95.36 547.76c32.02 3.33 46.69-6.82 51.5-18.11 1.8-4.21 1.25-8.96-.98-12.6-2.07-3.39-5.6-5.82-10.05-5.98-24.58-.83-42.69-4.12-60.21-12.71-2.64-1.29-5.64-1.23-8.31-.23-3.39 1.28-6.25 4.08-7.16 7.57-4.52 17.41.89 38.49 35.21 42.05v.01z" fill="#F9C73D"/><path d="M95.36 547.76c32.02 3.33 46.69-6.82 51.5-18.11.93-2.17 1.23-4.48 1-6.72-5.74 10.37-20.5 19.04-50.43 15.93-30.01-3.12-37.92-19.62-36.41-35.35-.38.69-.67 1.43-.87 2.2-4.52 17.41.89 38.49 35.21 42.05z" fill="#E89528"/><path d="M67.309 498.14c8.77-.09 9.09 7.1 27.32 14.18 20.61 8 31.86-3.9 39.25 4.74 5.57 6.51 12.01 0 12.01 0-2.07-3.39-5.6-5.82-10.05-5.98-24.58-.83-42.69-4.12-60.21-12.71-2.64-1.29-5.64-1.23-8.31-.23h-.01z" fill="#FFFB76"/><path d="M107.12 549.56c-3.75 0-7.71-.22-11.87-.65-8.04-.84-14.94-2.68-20.51-5.48-5.1-2.57-9.13-5.96-11.99-10.09-2.74-3.95-4.4-8.55-4.94-13.67-.47-4.52-.06-9.32 1.22-14.26.88-3.4 3.5-6.39 6.99-7.99 3.38-1.55 7.06-1.58 10.1-.09 16.47 8.07 33.78 11.71 59.74 12.59 4.44.15 8.4 2.45 10.86 6.3a15.18 15.18 0 012.29 6.68c.24 2.47-.14 4.96-1.09 7.2-2.81 6.6-8.4 11.84-16.16 15.15-6.72 2.87-14.98 4.31-24.65 4.31h.01zm-35.81-51.01c-1.43 0-2.9.33-4.32.98-2.87 1.32-5.01 3.74-5.72 6.47-2.58 9.92-1.38 19.17 3.38 26.02 5.65 8.14 16.02 13.05 30.84 14.59 14.52 1.51 26.43.34 35.38-3.49 7.2-3.08 12.37-7.89 14.94-13.93 1.59-3.74 1.2-8.23-1.03-11.73-2.04-3.2-5.31-5.11-8.99-5.24-13.04-.44-23.51-1.54-32.94-3.47-9.97-2.04-19.05-5.1-27.74-9.35a8.669 8.669 0 00-3.8-.86v.01z" fill="#58393E"/><path d="M80.28 514.82c.67-10.98 11.33-21.99 23.43-20.74 20.8 2.14 19.31 24.24 18.61 26.69-11.17 6.5-33.48 3.58-42.05-5.94l.01-.01z" fill="#F9C73D"/><path d="M80.27 514.82c8.56 9.52 30.88 12.44 42.05 5.94.19-.67.44-2.83.28-5.65-.06 1.04-.18 1.79-.28 2.14-10.98 6.39-32.75 3.68-41.61-5.48-.23 1.01-.38 2.03-.44 3.05z" fill="#E89528"/><path d="M103.71 494.07c10.84 1.12 15.63 7.66 17.63 14.02.09.28.03.59-.18.82-5.6 6.08-15.43-2.34-13.77-7.67.16-.51-.17-1.04-.73-1.14-.86-.15-1.75-.27-2.69-.35-7.24-.67-14.02 2-18.96 6.26-.8.69-1.98-.23-1.44-1.11 4.18-6.73 11.82-11.67 20.14-10.81v-.02z" fill="#FFFB76"/><path d="M126.819 515.82c-.32.4-.7.78-1.1 1.15-.61.54-1.26 1.04-1.93 1.5.22-3.96-.35-11.06-4.21-16.77-3.45-5.1-8.75-8.06-15.75-8.77-5.62-.58-11.31 1.31-16.03 5.32-4.49 3.81-7.54 9.09-8.43 14.45-.76-.61-1.49-1.27-2.15-1.97-.36-.39-.69-.8-.97-1.22a.731.731 0 00-.95-.28c-.36.18-.52.62-.34.98.54 1.11 1.28 2.05 2.06 2.97.78.89 1.6 1.73 2.48 2.52.02.02.03.03.05.04 2.17 2.37 5.16 4.39 8.88 6.01 3.49 1.52 7.55 2.63 11.74 3.21 2.25.31 4.47.46 6.64.46 6.27 0 12.01-1.27 16.1-3.64.1-.06.18-.12.26-.2.17-.13.35-.28.5-.39 1.63-1.32 3.21-2.71 4.35-4.51.46-.79-.61-1.54-1.2-.84v-.02zm-26.34 6.83c-8.06-1.11-15.12-4.18-19.01-8.25.47-5.27 3.37-10.62 7.82-14.4 4.24-3.59 9.31-5.29 14.3-4.78 6.29.65 11.02 3.26 14.07 7.77 4.41 6.53 3.98 14.86 3.64 17.02-5.08 2.76-12.8 3.75-20.82 2.64z" fill="#58393E"/><path d="M128.109 523.82c-1 .92-2.1 1.74-3.23 2.48-5.28 3.46-11.46 5.47-17.78 5.87-6.31.38-12.78-1.02-18.23-4.25-.38-.23-.76-.46-1.14-.7-1.13-.76-.31-2.48 1-2.09.58.16 1.24.35 1.81.53 1 .28 2 .56 3.01.79.72.18 1.69.38 2.41.51.34.07.86.16 1.21.21 5.99 1.01 12.19.73 18.08-.78 2.36-.6 4.76-1.4 7.01-2.33 1.54-.63 3.07-1.35 4.54-2.13 1.21-.6 2.3.94 1.32 1.88l-.01.01zm-46.919-.22c-2.05.15-4.16-1.1-5.07-2.95-.3-.63-.47-1.32-.41-2.01.03-.35.34-.61.7-.58.19.02.34.11.45.24.21.22.37.43.55.63.81.97 1.65 1.82 2.68 2.56.36.26.78.55 1.16.81.03.03.13.09.15.12l.21.3c.25.34 0 .86-.42.87v.01z" fill="#FFFB76"/></g><defs><clipPath id="clip0_1263_17904"><path fill="#fff" d="M0 0h599.81v549.56H0z"/></clipPath></defs></svg>