<svg width="170" height="111" viewBox="0 0 170 111" fill="none" xmlns="http://www.w3.org/2000/svg"><path d="M46.788 108.493c19.728 1.41 37.95-7.42 56.656-12.07 8.731-2.17 17.897-3.29 26.881-2.16 4.462.56 8.893 1.7 13 3.62 3.562 1.66 12.515 5.19 11.746 3.46-1.001-2.26-6.91-8.66-7.163-13.6-.414-7.9 8.266-15.45 12.637-20.99 4.492-5.69 7.942-12.04 7.749-19.62-.192-7.43-3.46-14.58-7.861-20.39-20.639-27.28-58.234-27.64-88.13-23.03-15.792 2.43-32.82 4.73-46.852 13-12.231 7.21-20.639 19.65-23.198 33.94-5.13 28.62 16.561 55.83 44.525 57.83l.01.01z" fill="#F45727"/><mask id="mask0_1290_32387" style="mask-type:luminance" maskUnits="userSpaceOnUse" x="0" y="0" width="170" height="111"><path d="M51.037 110.142c-1.447 0-2.893-.05-4.36-.15-13.73-.98-26.7-8.01-35.582-19.28C2.01 79.172-1.754 64.482.765 50.402c2.651-14.82 11.372-27.57 23.917-34.97 13.608-8.02 29.623-10.47 45.102-12.85l2.297-.35c42.613-6.57 72.752 1.38 89.576 23.62 3.592 4.75 7.932 12.3 8.155 21.25.232 8.99-4.502 16.05-8.074 20.58-.951 1.21-2.084 2.49-3.288 3.84-4.158 4.69-9.328 10.53-9.034 16.15.162 3.02 3.035 7.1 4.947 9.81.971 1.37 1.73 2.45 2.094 3.27.324.73.192 1.5-.354 2.02-1.588 1.53-8.185-1.08-13.435-3.53-3.723-1.74-7.942-2.91-12.546-3.49-7.941-1-16.561-.3-26.324 2.13-5.342 1.33-10.755 3.04-15.995 4.69-11.837 3.73-24.028 7.58-36.786 7.58l.02-.01zM99.114 3.002c-8.205 0-17.058.73-26.558 2.19l-2.296.35c-15.196 2.33-30.918 4.73-44.01 12.46-11.786 6.95-19.98 18.95-22.49 32.92-2.367 13.25 1.174 27.08 9.733 37.94 8.346 10.6 20.527 17.21 33.396 18.13 13.77.98 27.104-3.22 40.003-7.29 5.281-1.67 10.745-3.39 16.177-4.74 10.138-2.52 19.122-3.24 27.448-2.2 4.917.62 9.449 1.88 13.466 3.75 2.499 1.17 5.999 2.54 8.336 3.27l-.425-.6c-2.235-3.16-5.281-7.49-5.483-11.37-.354-6.83 5.261-13.18 9.783-18.28 1.174-1.32 2.277-2.57 3.177-3.71 5.23-6.62 7.588-12.55 7.436-18.66-.202-8.16-4.219-15.12-7.557-19.53-12.404-16.4-32.577-24.65-60.126-24.65l-.01.02z" fill="#fff"/></mask><g mask="url(#mask0_1290_32387)"><path d="M166.938 21.742l-2.215-18.74h2.215v18.74z" fill="#FFE499"/><path d="M166.938 31.212L163.6 3.002h1.123l2.215 18.74v9.47z" fill="#FFE499"/><path d="M166.938 40.682l-4.461-37.68h1.123l3.338 28.21v9.47z" fill="#FFE498"/><path d="M166.938 50.152l-5.584-47.15h1.123l4.461 37.68v9.47z" fill="#FFE397"/><path d="M166.938 59.622l-6.708-56.62h1.123l5.585 47.15v9.47z" fill="#FFE396"/><path d="M166.938 69.102l-7.831-66.1h1.123l6.708 56.62v9.48z" fill="#FFE295"/><path d="M166.938 78.572l-8.954-75.57h1.123l7.831 66.1v9.47z" fill="#FFE294"/><path d="M166.938 88.042l-10.077-85.04h1.123l8.954 75.57v9.47z" fill="#FEE193"/><path d="M166.938 97.512l-11.19-94.51h1.113l10.077 85.04v9.47z" fill="#FEE192"/><path d="M166.937 100.052l-.809.09-11.503-97.14h1.123l11.189 94.51v2.54z" fill="#FEE091"/><path d="M166.128 100.142l-1.103.13-11.523-97.27h1.123l11.503 97.14z" fill="#FEE090"/><path d="M165.025 100.272l-1.113.13-11.533-97.4h1.123l11.523 97.27z" fill="#FEDF8F"/><path d="M163.912 100.402l-1.102.12-11.554-97.52h1.123l11.533 97.4z" fill="#FEDF8E"/><path d="M162.81 100.522l-1.103.13-11.574-97.65h1.123l11.554 97.52z" fill="#FEDE8D"/><path d="M161.709 100.652l-1.113.13-11.584-97.78h1.123l11.574 97.65z" fill="#FEDE8C"/><path d="M160.596 100.782l-1.103.13-11.604-97.91h1.123l11.584 97.78z" fill="#FEDD8B"/><path d="M159.493 100.912l-1.113.13-11.614-98.04h1.123l11.604 97.91z" fill="#FEDD8A"/><path d="M158.38 101.042l-1.103.12-11.634-98.16h1.123l11.614 98.04z" fill="#FEDC89"/><path d="M157.277 101.162l-1.113.13-11.644-98.29h1.123l11.634 98.16z" fill="#FEDC88"/><path d="M156.164 101.292l-1.103.13-11.665-98.42h1.123l11.645 98.29z" fill="#FDDB87"/><path d="M155.061 101.422l-1.102.13-11.686-98.55h1.123l11.665 98.42z" fill="#FDDB86"/><path d="M153.959 101.552l-1.113.13-11.696-98.68h1.123l11.686 98.55z" fill="#FDDA85"/><path d="M152.845 101.682l-1.102.13-11.706-98.81h1.113l11.695 98.68z" fill="#FDDA84"/><path d="M151.743 101.812l-1.113.12-11.716-98.93h1.123l11.706 98.81z" fill="#FDD983"/><path d="M150.63 101.932l-1.103.13-11.736-99.06h1.123l11.716 98.93z" fill="#FDD982"/><path d="M149.527 102.062l-1.113.13-11.746-99.19h1.123l11.736 99.06z" fill="#FDD881"/><path d="M148.414 102.192l-1.103.13-11.766-99.32h1.123l11.746 99.19z" fill="#FDD880"/><path d="M147.311 102.322l-1.103.13-11.786-99.45h1.123l11.766 99.32z" fill="#FDD77F"/><path d="M146.208 102.452l-1.113.12-11.796-99.57h1.123l11.786 99.45z" fill="#FDD77E"/><path d="M145.095 102.572l-1.102.13-11.817-99.7h1.123l11.796 99.57z" fill="#FDD67D"/><path d="M143.992 102.702l-1.112.13-11.827-99.83h1.123l11.816 99.7z" fill="#FDD67C"/><path d="M142.88 102.832l-1.103.13-11.847-99.96h1.123l11.827 99.83z" fill="#FCD57B"/><path d="M141.777 102.962l-1.113.13-11.857-100.09h1.123l11.847 99.96z" fill="#FCD57A"/><path d="M140.664 103.092l-1.103.13-11.877-100.22h1.123l11.857 100.09z" fill="#FCD479"/><path d="M139.561 103.222l-1.103.12-11.897-100.34h1.123l11.877 100.22z" fill="#FCD478"/><path d="M138.458 103.342l-1.113.13-11.907-100.47h1.122l11.898 100.34z" fill="#FCD377"/><path d="M137.345 103.472l-1.103.13-11.918-100.6h1.113l11.908 100.47z" fill="#FCD376"/><path d="M136.242 103.602l-1.113.13-11.928-100.73h1.123l11.918 100.6z" fill="#FCD275"/><path d="M135.131 103.732l-1.103.13L122.08 3.002h1.123l11.928 100.73z" fill="#FCD274"/><path d="M134.028 103.862l-1.113.12-11.958-100.98h1.123l11.948 100.86z" fill="#FCD173"/><path d="M132.915 103.982l-1.102.13-11.979-101.11h1.123l11.958 100.98z" fill="#FCD172"/><path d="M131.813 104.112l-1.103.13-11.999-101.24h1.123l11.979 101.11z" fill="#FCD071"/><path d="M130.71 104.242l-1.113.13-12.009-101.37h1.123l11.999 101.24z" fill="#FBD070"/><path d="M129.597 104.372l-1.103.13-12.029-101.5h1.123l12.009 101.37z" fill="#FBCF6F"/><path d="M128.494 104.502l-1.113.13-12.039-101.63h1.123l12.029 101.5z" fill="#FBCF6E"/><path d="M127.381 104.632l-1.103.12-12.059-101.75h1.123l12.039 101.63z" fill="#FBCE6D"/><path d="M126.278 104.752l-1.113.13-12.069-101.88h1.123l12.059 101.75z" fill="#FBCE6C"/><path d="M125.165 104.882l-1.102.13-12.09-102.01h1.123l12.069 101.88z" fill="#FBCD6B"/><path d="M124.063 105.012l-1.103.13-12.11-102.14h1.123l12.09 102.01z" fill="#FBCD6A"/><path d="M122.96 105.142l-1.113.13-12.12-102.27h1.123l12.11 102.14z" fill="#FBCC69"/><path d="M121.847 105.272l-1.103.12-12.14-102.39h1.123l12.12 102.27z" fill="#FBCC68"/><path d="M120.744 105.392l-1.113.13L107.49 3.002h1.113l12.141 102.39z" fill="#FBCB67"/><path d="M119.631 105.522l-1.103.13-12.161-102.65h1.123l12.141 102.52z" fill="#FBCB66"/><path d="M118.528 105.652l-1.113.13-12.171-102.78h1.123l12.161 102.65z" fill="#FBCA65"/><path d="M117.415 105.782l-1.103.13-12.191-102.91h1.123l12.171 102.78z" fill="#FACA64"/><path d="M116.312 105.912l-1.103.12-12.211-103.03h1.123l12.191 102.91z" fill="#FAC963"/><path d="M115.209 106.032l-1.113.13-12.221-103.16h1.123l12.211 103.03z" fill="#FAC962"/><path d="M114.096 106.162l-1.102.13-12.242-103.29h1.123l12.221 103.16z" fill="#FAC861"/><path d="M112.994 106.292l-1.113.13L99.629 3.002h1.123l12.242 103.29z" fill="#FAC860"/><path d="M111.881 106.422l-1.103.13L98.506 3.002h1.123l12.252 103.42z" fill="#FAC75F"/><path d="M110.778 106.552l-1.113.13L97.383 3.002h1.123l12.272 103.55z" fill="#FAC75E"/><path d="M109.665 106.682l-1.103.12L96.26 3.002h1.123l12.282 103.68z" fill="#FAC65D"/><path d="M108.562 106.802l-1.103.13L95.137 3.002h1.123l12.302 103.8z" fill="#FAC65C"/><path d="M107.459 106.932l-1.113.13L94.014 3.002h1.123l12.322 103.93z" fill="#FAC55B"/><path d="M106.346 107.062l-1.102.13L92.891 3.002h1.123l12.332 104.06z" fill="#FAC55A"/><path d="M105.245 107.192l-1.113.13L91.779 3.002h1.113l12.353 104.19z" fill="#FAC459"/><path d="M104.132 107.322l-1.103.12L90.656 3.002h1.123l12.353 104.32z" fill="#F9C458"/><path d="M103.029 107.442l-1.112.13L89.533 3.002h1.123l12.373 104.44z" fill="#F9C357"/><path d="M101.916 107.572l-1.102.13L88.41 3.002h1.123l12.383 104.57z" fill="#F9C356"/><path d="M100.814 107.702l-1.103.13L87.287 3.002h1.123l12.404 104.7z" fill="#F9C255"/><path d="M99.71 107.832l-1.112.13L86.164 3.002h1.123l12.424 104.83z" fill="#F9C254"/><path d="M98.598 107.962l-.192.02h-.931L85.04 3.002h1.123l12.434 104.96z" fill="#F9C153"/><path d="M96.362 107.982L83.918 3.002h1.123l12.434 104.98h-1.113z" fill="#F9C152"/><path d="M95.239 107.982L82.795 3.002h1.123l12.444 104.98h-1.123z" fill="#F9C051"/><path d="M94.116 107.982L81.672 3.002h1.123l12.444 104.98h-1.123z" fill="#F9C050"/><path d="M92.993 107.982L80.549 3.002h1.123l12.444 104.98h-1.123z" fill="#F9BF4F"/><path d="M91.87 107.982L79.426 3.002h1.123l12.444 104.98H91.87z" fill="#F9BF4E"/><path d="M90.747 107.982L78.303 3.002h1.123l12.444 104.98h-1.123z" fill="#F9BF4D"/><path d="M89.624 107.982L77.18 3.002h1.123l12.444 104.98h-1.123z" fill="#F8BE4B"/><path d="M88.5 107.982L76.066 3.002h1.113l12.444 104.98H88.5z" fill="#F8BE4A"/><path d="M87.377 107.982L74.943 3.002h1.123L88.5 107.982h-1.123z" fill="#F8BD49"/><path d="M86.254 107.982L73.82 3.002h1.123l12.434 104.98h-1.123z" fill="#F8BD48"/><path d="M85.131 107.982L72.697 3.002h1.123l12.434 104.98h-1.123z" fill="#F8BC47"/><path d="M84.008 107.982L71.574 3.002h1.123l12.434 104.98h-1.123z" fill="#F8BC46"/><path d="M82.885 107.982L70.46 3.132l1.062-.13h.05l12.435 104.98h-1.123z" fill="#F8BB45"/><path d="M81.763 107.983L69.359 3.263l1.103-.13 12.424 104.85h-1.123z" fill="#F8BB44"/><path d="M80.65 107.982L68.246 3.382l1.113-.12 12.404 104.72H80.65z" fill="#F8BA43"/><path d="M79.526 107.983L67.143 3.513l1.102-.13 12.404 104.6h-1.123z" fill="#F8BA42"/><path d="M78.404 107.982L66.041 3.642l1.103-.13 12.383 104.47h-1.123z" fill="#F8B941"/><path d="M77.28 107.983L64.929 3.773l1.113-.13 12.363 104.34H77.28z" fill="#F7B940"/><path d="M76.157 107.981L63.824 3.901l1.103-.13 12.353 104.21h-1.123z" fill="#F7B83F"/><path d="M75.035 107.982L62.713 4.022l1.113-.12 12.333 104.08h-1.124z" fill="#F7B83E"/><path d="M73.912 107.981L61.609 4.151l1.103-.13 12.323 103.96h-1.123z" fill="#F7B73D"/><path d="M72.788 107.982L60.496 4.282l1.113-.13 12.302 103.83h-1.123z" fill="#F7B73C"/><path d="M71.666 107.981L59.395 4.411l1.102-.13 12.293 103.7h-1.124z" fill="#F7B63B"/><path d="M70.543 107.982L58.29 4.542l1.103-.13 12.272 103.57h-1.123z" fill="#F7B63A"/><path d="M69.42 107.981L57.177 4.671l1.113-.13 12.251 103.44H69.42z" fill="#F7B539"/><path d="M68.298 107.982L56.076 4.792l1.103-.12 12.242 103.31h-1.123z" fill="#F7B538"/><path d="M67.174 107.981L54.963 4.921l1.113-.13 12.221 103.19h-1.123z" fill="#F7B437"/><path d="M66.05 107.982L53.86 5.052l1.102-.13 12.211 103.06H66.05z" fill="#F7B436"/><path d="M64.937 107.983l-12.19-102.8 1.112-.13 12.191 102.93h-1.113z" fill="#F7B335"/><path d="M63.815 107.982L51.645 5.312l1.102-.13 12.191 102.8h-1.123z" fill="#F6B334"/><path d="M62.692 107.983L50.54 5.433l1.103-.12 12.17 102.67h-1.122z" fill="#F6B233"/><path d="M61.568 107.982L49.428 5.562l1.113-.13 12.15 102.55h-1.123z" fill="#F6B232"/><path d="M60.446 107.983L48.326 5.693l1.103-.13 12.14 102.42h-1.123z" fill="#F6B131"/><path d="M59.323 107.981L47.213 5.821l1.113-.13 12.12 102.29h-1.123z" fill="#F6B130"/><path d="M58.2 107.982L46.11 5.952l1.102-.13 12.11 102.16H58.2z" fill="#F6B02F"/><path d="M57.078 107.981L44.998 6.071l1.113-.12 12.09 102.03h-1.123z" fill="#F6B02E"/><path d="M55.954 107.982L43.894 6.202l1.103-.13 12.08 101.91h-1.123z" fill="#F6AF2D"/><path d="M54.83 107.981L42.791 6.331l1.103-.13 12.06 101.78H54.83z" fill="#F6AF2C"/><path d="M53.709 107.982L41.679 6.462l1.114-.13 12.039 101.65h-1.123z" fill="#F6AE2B"/><path d="M52.585 107.981L40.576 6.591l1.103-.13 12.03 101.52h-1.124z" fill="#F6AE2A"/><path d="M51.462 107.982l-12-101.26 1.114-.13 12.009 101.39h-1.123z" fill="#F6AD29"/><path d="M50.338 107.983L38.359 6.843l1.103-.12 11.999 101.26h-1.123z" fill="#F5AD28"/><path d="M49.217 107.982L37.248 6.972l1.113-.13 11.979 101.14h-1.123z" fill="#F5AC27"/><path d="M48.103 107.983L36.144 7.103l1.103-.13 11.969 101.01h-1.113z" fill="#F5AC26"/><path d="M46.98 107.982L35.04 7.232l1.103-.13 11.958 100.88H46.98z" fill="#F5AB25"/><path d="M45.858 107.982L33.93 7.362l1.113-.13 11.938 100.75h-1.123z" fill="#F5AB24"/><path d="M44.734 107.981L32.826 7.481l1.103-.12 11.928 100.62h-1.123z" fill="#F5AA23"/><path d="M43.61 107.982L31.714 7.612l1.113-.13 11.908 100.5H43.61z" fill="#F5AA22"/><path d="M42.489 107.981L30.61 7.741l1.103-.13 11.898 100.37h-1.123z" fill="#F5A921"/><path d="M41.365 107.982L29.498 7.872l1.113-.13 11.877 100.24h-1.123z" fill="#F5A920"/><path d="M40.242 107.981L28.395 8.001l1.102-.13 11.868 100.11h-1.123z" fill="#F5A81F"/><path d="M39.12 107.982L27.293 8.132l1.103-.13 11.847 99.98H39.12z" fill="#F5A81E"/><path d="M37.996 107.983L26.18 8.253l1.113-.12 11.826 99.85h-1.123z" fill="#F4A71D"/><path d="M36.873 107.982l-11.797-99.6 1.103-.13 11.817 99.73h-1.123z" fill="#F4A71C"/><path d="M35.75 107.983L23.962 8.513l1.113-.13 11.796 99.6H35.75z" fill="#F4A61B"/><path d="M34.627 107.982L22.861 8.642l1.103-.13 11.787 99.47h-1.123z" fill="#F4A61A"/><path d="M33.504 107.983L21.748 8.773l1.113-.13 11.766 99.34h-1.123z" fill="#F4A519"/><path d="M32.39 107.981L20.646 8.891l1.102-.12 11.756 99.21h-1.112z" fill="#F4A518"/><path d="M31.269 107.983L19.543 9.023l1.103-.13 11.746 99.09h-1.123z" fill="#F4A417"/><path d="M30.145 107.981L18.43 9.151l1.113-.13 11.725 98.96h-1.123z" fill="#F4A416"/><path d="M29.021 107.982l-11.695-98.7 1.103-.13 11.716 98.83h-1.123z" fill="#F4A315"/><path d="M27.9 107.981L16.215 9.411l1.113-.13 11.695 98.7H27.9z" fill="#F4A314"/><path d="M26.776 107.982L15.111 9.542l1.103-.13 11.685 98.57h-1.123z" fill="#F4A213"/><path d="M25.653 107.981L13.998 9.661l1.113-.12 11.665 98.44h-1.123z" fill="#F4A212"/><path d="M24.531 107.982L12.897 9.792l1.102-.13 11.655 98.32h-1.123z" fill="#F3A111"/><path d="M23.407 107.981L11.793 9.921l1.103-.13 11.634 98.19h-1.123z" fill="#F3A110"/><path d="M22.284 107.982L10.68 10.052l1.113-.13 11.614 98.06h-1.123z" fill="#F3A00F"/><path d="M21.162 107.983l-11.584-97.8 1.103-.13 11.604 97.93h-1.123z" fill="#F3A00E"/><path d="M20.039 107.982L8.465 10.302l1.113-.12 11.584 97.8h-1.123z" fill="#F39F0D"/><path d="M18.915 107.983L7.361 10.433l1.103-.13 11.574 97.68h-1.123z" fill="#F39F0C"/><path d="M17.792 107.982L6.248 10.562l1.113-.13 11.554 97.55h-1.123z" fill="#F39E0B"/><path d="M16.68 107.983L5.146 10.693l1.103-.13 11.544 97.42H16.68z" fill="#F39E0A"/><path d="M15.556 107.981L4.043 10.821l1.103-.13 11.533 97.29h-1.123z" fill="#F39D09"/><path d="M14.433 107.982L2.93 10.952l1.113-.13 11.513 97.16h-1.123z" fill="#F39D08"/><path d="M13.311 107.981L1.828 11.071l1.103-.12 11.503 97.03h-1.123z" fill="#F39C07"/><path d="M12.188 107.982L1.383 16.832v-5.71l.445-.05 11.483 96.91h-1.123z" fill="#F39C06"/><path d="M11.065 107.982l-9.682-81.68v-9.47l10.805 91.15h-1.123z" fill="#F29B05"/><path d="M9.942 107.983l-8.56-72.21v-9.47l9.683 81.68H9.942z" fill="#F29B04"/><path d="M8.819 107.981l-7.436-62.73v-9.48l8.559 72.21H8.819z" fill="#F29A03"/><path d="M7.696 107.982l-6.313-53.26v-9.47l7.436 62.73H7.696z" fill="#F29A02"/><path d="M6.573 107.983l-5.19-43.79v-9.47l6.313 53.26H6.573z" fill="#F29901"/><path d="M5.45 107.981l-4.067-34.32v-9.47l5.19 43.79H5.45zM1.383 73.662l4.067 34.32H1.383v-34.32z" fill="#F29900"/><path d="M170.053 47.962l-6.201-52.29h6.201v52.29z" fill="#FFE499"/><path d="M170.055 57.432l-7.325-61.76h1.123l6.202 52.29v9.47z" fill="#FFE499"/><path d="M170.055 66.902l-8.448-71.23h1.123l7.325 61.76v9.47z" fill="#FFE498"/><path d="M170.055 76.382l-9.571-80.71h1.123l8.448 71.23v9.48z" fill="#FFE397"/><path d="M170.055 85.852l-10.694-90.18h1.123l9.571 80.71v9.47z" fill="#FFE396"/><path d="M170.055 95.322l-11.817-99.65h1.123l10.694 90.18v9.47z" fill="#FFE295"/><path d="M170.055 104.442l-.04.01-12.9-108.78h1.123l11.817 99.65v9.12z" fill="#FFE294"/><path d="M170.014 104.452l-1.113.12-12.899-108.9h1.113l12.899 108.78z" fill="#FEE193"/><path d="M168.901 104.572l-1.103.13-12.919-109.03h1.123l12.899 108.9z" fill="#FEE192"/><path d="M167.798 104.702l-1.113.13-12.929-109.16h1.123l12.919 109.03z" fill="#FEE091"/><path d="M166.685 104.832l-1.102.13-12.95-109.29h1.123l12.929 109.16z" fill="#FEE090"/><path d="M165.583 104.962l-1.113.13-12.96-109.42h1.123l12.95 109.29z" fill="#FEDF8F"/><path d="M164.47 105.092l-1.103.13-12.98-109.55h1.123l12.96 109.42z" fill="#FEDF8E"/><path d="M163.367 105.222l-1.103.12-13-109.67h1.123l12.98 109.55z" fill="#FEDE8D"/><path d="M162.264 105.342l-1.113.13-13.01-109.8h1.123l13 109.67z" fill="#FEDE8C"/><path d="M161.151 105.472l-1.103.13-13.03-109.93h1.123l13.01 109.8z" fill="#FEDD8B"/><path d="M160.048 105.602l-1.113.13-13.04-110.06h1.123l13.03 109.93z" fill="#FEDD8A"/><path d="M158.935 105.732l-1.102.13-13.062-110.19h1.123l13.041 110.06z" fill="#FEDC89"/><path d="M157.833 105.862l-1.113.12-13.072-110.31h1.123l13.062 110.19z" fill="#FEDC88"/><path d="M156.72 105.982l-1.103.13-13.092-110.44h1.123l13.072 110.31z" fill="#FDDB87"/><path d="M155.617 106.112l-1.103.13-13.112-110.57h1.123l13.092 110.44z" fill="#FDDB86"/><path d="M154.514 106.242l-1.113.13-13.112-110.7h1.113l13.112 110.57z" fill="#FDDA85"/><path d="M153.401 106.372l-1.103.13-13.132-110.83h1.123l13.112 110.7z" fill="#FDDA84"/><path d="M152.298 106.502l-1.113.13-13.142-110.96h1.123l13.132 110.83z" fill="#FDD983"/><path d="M151.185 106.632l-1.103.12L136.92-4.328h1.123l13.142 110.96z" fill="#FDD982"/><path d="M150.084 106.752l-1.113.13-13.172-111.21h1.123l13.162 111.08z" fill="#FDD881"/><path d="M148.971 106.882l-1.103.13-13.192-111.34h1.123l13.172 111.21z" fill="#FDD880"/><path d="M147.868 107.012l-1.102.13-13.213-111.47h1.123l13.192 111.34z" fill="#FDD77F"/><path d="M146.766 107.142l-1.113.13-13.223-111.6h1.123l13.213 111.47z" fill="#FDD77E"/><path d="M145.653 107.272l-1.103.12-13.243-111.72h1.123l13.223 111.6z" fill="#FDD67D"/><path d="M144.55 107.392l-1.113.13-13.253-111.85h1.123l13.243 111.72z" fill="#FDD67C"/><path d="M143.437 107.522l-1.103.13-13.273-111.98h1.123l13.253 111.85z" fill="#FCD57B"/><path d="M142.334 107.652l-1.113.13-13.283-112.11h1.122l13.274 111.98z" fill="#FCD57A"/><path d="M141.221 107.782l-1.103.13-13.304-112.24h1.123l13.284 112.11z" fill="#FCD479"/><path d="M140.118 107.912l-1.102.13-13.325-112.37h1.123l13.304 112.24z" fill="#FCD478"/><path d="M139.015 108.042l-1.113.12-13.324-112.49h1.113l13.324 112.37z" fill="#FCD377"/><path d="M137.902 108.162l-1.103.13-13.344-112.62h1.123l13.324 112.49z" fill="#FCD376"/><path d="M136.799 108.292l-1.112.13-13.355-112.75h1.123l13.344 112.62z" fill="#FCD275"/><path d="M135.687 108.422l-1.103.13-13.375-112.88h1.123l13.355 112.75z" fill="#FCD274"/><path d="M134.584 108.552l-1.113.13-13.385-113.01h1.123l13.375 112.88z" fill="#FCD173"/><path d="M133.471 108.682l-1.103.12-13.405-113.13h1.123l13.385 113.01z" fill="#FCD172"/><path d="M132.368 108.802l-1.103.13L117.84-4.328h1.123l13.405 113.13z" fill="#FCD071"/><path d="M131.265 108.932l-1.113.13-13.435-113.39h1.123l13.425 113.26z" fill="#FBD070"/><path d="M130.152 109.062l-1.103.13-13.455-113.52h1.123l13.435 113.39z" fill="#FBCF6F"/><path d="M129.049 109.192l-1.112.13-13.466-113.65h1.123l13.455 113.52z" fill="#FBCF6E"/><path d="M127.936 109.322l-1.102.12-13.486-113.77h1.123l13.465 113.65z" fill="#FBCE6D"/><path d="M126.834 109.442l-1.113.13-13.496-113.9h1.123l13.486 113.77z" fill="#FBCE6C"/><path d="M125.721 109.572l-1.103.13-13.516-114.03h1.123l13.496 113.9z" fill="#FBCD6B"/><path d="M124.618 109.702l-1.103.13-13.536-114.16h1.123l13.516 114.03z" fill="#FBCD6A"/><path d="M123.517 109.832l-1.113.13-13.537-114.29h1.113l13.537 114.16z" fill="#FBCC69"/><path d="M122.404 109.962l-1.103.13-13.557-114.42h1.123l13.537 114.29z" fill="#FBCC68"/><path d="M121.301 110.092l-.496.05h-.627L106.621-4.328h1.123l13.557 114.42z" fill="#FBCB67"/><path d="M119.055 110.142L105.498-4.328h1.123l13.557 114.47h-1.123z" fill="#FBCB66"/><path d="M117.942 110.142L104.375-4.328h1.123l13.557 114.47h-1.113z" fill="#FBCA65"/><path d="M116.819 110.142L103.252-4.328h1.123l13.567 114.47h-1.123z" fill="#FACA64"/><path d="M115.696 110.142L102.129-4.328h1.123l13.567 114.47h-1.123z" fill="#FAC963"/><path d="M114.573 110.142L101.006-4.328h1.123l13.567 114.47h-1.123z" fill="#FAC962"/><path d="M113.45 110.142L99.883-4.328h1.123l13.567 114.47h-1.123z" fill="#FAC861"/><path d="M112.327 110.142L98.76-4.328h1.123l13.567 114.47h-1.123z" fill="#FAC860"/><path d="M111.204 110.142L97.637-4.308l.222-.02h.9l13.568 114.47h-1.123z" fill="#FAC75F"/><path d="M110.08 110.141L96.533-4.179l1.103-.13 13.567 114.45h-1.123z" fill="#FAC75E"/><path d="M108.958 110.142L95.432-4.048l1.102-.13 13.547 114.32h-1.123z" fill="#FAC65D"/><path d="M107.835 110.141L94.318-3.919l1.113-.13 13.527 114.19h-1.123z" fill="#FAC65C"/><path d="M106.711 110.142L93.215-3.788l1.103-.13 13.516 114.06h-1.123z" fill="#FAC55B"/><path d="M105.588 110.141L92.102-3.669l1.112-.12 13.497 113.93h-1.123z" fill="#FAC55A"/><path d="M104.466 110.142L91-3.538l1.103-.13 13.486 113.81h-1.123z" fill="#FAC459"/><path d="M103.342 110.141L89.887-3.409 91-3.54l13.465 113.68h-1.123z" fill="#F9C458"/><path d="M102.229 110.142L88.783-3.278l1.103-.13 13.456 113.55h-1.113z" fill="#F9C357"/><path d="M101.107 110.143L87.682-3.147l1.102-.13 13.446 113.42h-1.123z" fill="#F9C356"/><path d="M99.984 110.142L86.568-3.018l1.113-.13 13.426 113.29h-1.123z" fill="#F9C255"/><path d="M98.86 110.142L85.465-2.898l1.103-.12 13.415 113.16H98.86z" fill="#F9C254"/><path d="M97.738 110.142L84.353-2.768l1.113-.13 13.395 113.04h-1.123z" fill="#F9C153"/><path d="M96.615 110.142L83.25-2.638l1.103-.13 13.385 112.91h-1.123z" fill="#F9C152"/><path d="M95.491 110.141L82.137-2.509l1.113-.13 13.364 112.78h-1.123z" fill="#F9C051"/><path d="M94.368 110.142L81.032-2.378l1.103-.13 13.355 112.65h-1.123z" fill="#F9C050"/><path d="M93.246 110.141L79.932-2.259l1.102-.12 13.335 112.52h-1.123z" fill="#F9BF4F"/><path d="M92.122 110.142L78.818-2.128l1.113-.13 13.314 112.4h-1.123z" fill="#F9BF4E"/><path d="M90.999 110.141L77.715-1.999l1.103-.13 13.304 112.27h-1.123z" fill="#F9BF4D"/><path d="M89.877 110.142L76.604-1.868l1.112-.13L91 110.142h-1.123z" fill="#F8BE4B"/><path d="M88.753 110.143L75.5-1.737l1.103-.13 13.273 112.01h-1.123z" fill="#F8BE4A"/><path d="M87.63 110.142L74.387-1.618l1.113-.12 13.253 111.88H87.63z" fill="#F8BD49"/><path d="M86.508 110.143L73.285-1.487l1.103-.13 13.243 111.76h-1.123z" fill="#F8BD48"/><path d="M85.394 110.142L72.182-1.358l1.102-.13 13.223 111.63h-1.113z" fill="#F8BC47"/><path d="M84.271 110.143L71.068-1.227l1.113-.13 13.213 111.5h-1.123z" fill="#F8BC46"/><path d="M83.15 110.141L69.966-1.099l1.103-.13 13.202 111.37H83.15z" fill="#F8BB45"/><path d="M82.026 110.142L68.854-.968l1.112-.13 13.183 111.24h-1.123z" fill="#F8BB44"/><path d="M80.902 110.141L67.75-.849l1.103-.12 13.172 111.11h-1.123z" fill="#F8BA43"/><path d="M79.779 110.142L66.637-.718l1.113-.13 13.152 110.99h-1.123z" fill="#F8BA42"/><path d="M78.657 110.141L65.535-.589l1.103-.13 13.142 110.86h-1.123z" fill="#F8B941"/><path d="M77.533 110.142L64.432-.458l1.102-.13 13.122 110.73h-1.123z" fill="#F7B940"/><path d="M76.41 110.141L63.318-.329l1.113-.13 13.102 110.6H76.41z" fill="#F7B83F"/><path d="M75.288 110.142L62.217-.208l1.103-.12 13.091 110.47h-1.123z" fill="#F7B83E"/><path d="M74.165 110.141L61.103-.079l1.113-.13 13.072 110.35h-1.123z" fill="#F7B73D"/><path d="M73.04 110.142L60 .052l1.103-.13 13.06 110.22h-1.122z" fill="#F7B73C"/><path d="M71.92 110.143L58.889.183l1.113-.13 13.04 110.09H71.92z" fill="#F7B63B"/><path d="M70.796 110.142L57.786.312l1.102-.13 13.03 109.96h-1.122z" fill="#F7B63A"/><path d="M69.682 110.143l-13-109.7 1.102-.13 13.011 109.83h-1.113z" fill="#F7B539"/><path d="M68.56 110.141L55.57.561l1.113-.12 13 109.7h-1.122z" fill="#F7B538"/><path d="M67.437 110.143L54.467.693l1.103-.13 12.99 109.58h-1.123z" fill="#F7B437"/><path d="M66.314 110.141L53.354.821l1.112-.13 12.97 109.45h-1.123z" fill="#F7B436"/><path d="M65.192 110.142L52.252.952l1.103-.13 12.96 109.32h-1.123z" fill="#F7B335"/><path d="M64.068 110.141L51.138 1.081l1.114-.13 12.94 109.19h-1.124z" fill="#F6B334"/><path d="M62.944 110.142L50.035 1.202l1.103-.12 12.93 109.06h-1.123z" fill="#F6B233"/><path d="M61.823 110.141L48.933 1.331l1.103-.13 12.91 108.94h-1.123z" fill="#F6B232"/><path d="M60.7 110.142L47.82 1.462l1.113-.13 12.89 108.81h-1.124z" fill="#F6B131"/><path d="M59.576 110.141L46.716 1.591l1.104-.13 12.879 108.68h-1.123z" fill="#F6B130"/><path d="M58.452 110.142L45.603 1.722l1.113-.13 12.86 108.55h-1.124z" fill="#F6B02F"/><path d="M57.33 110.143L44.502 1.853l1.103-.13 12.848 108.42H57.33z" fill="#F6B02E"/><path d="M56.207 110.142L43.389 1.972l1.113-.12 12.828 108.29h-1.123z" fill="#F6AF2D"/><path d="M55.083 110.143L42.285 2.103l1.103-.13 12.818 108.17h-1.123z" fill="#F6AF2C"/><path d="M53.972 110.142L41.184 2.232l1.102-.13 12.798 108.04h-1.112z" fill="#F6AE2B"/><path d="M52.848 110.142L40.07 2.362l1.113-.13 12.788 107.91h-1.123z" fill="#F6AE2A"/><path d="M51.724 110.141L38.967 2.491l1.103-.13 12.777 107.78h-1.123z" fill="#F6AD29"/><path d="M50.601 110.142L37.853 2.612l1.113-.12 12.758 107.65h-1.123z" fill="#F5AD28"/><path d="M49.48 110.141L36.751 2.741l1.103-.13 12.747 107.53H49.48z" fill="#F5AC27"/><path d="M48.356 110.142L35.639 2.872l1.113-.13 12.727 107.4h-1.123z" fill="#F5AC26"/><path d="M47.232 110.141L34.535 3.001l1.103-.13 12.717 107.27h-1.123z" fill="#F5AB25"/><path d="M46.11 110.142L33.434 3.132l1.102-.13 12.697 107.14H46.11z" fill="#F5AB24"/><path d="M44.987 110.143L32.32 3.263l1.113-.13 12.677 107.01h-1.123z" fill="#F5AA23"/><path d="M43.863 110.142L31.217 3.382l1.103-.12 12.666 106.88h-1.123z" fill="#F5AA22"/><path d="M42.742 110.143L30.106 3.513l1.112-.13 12.647 106.76h-1.123z" fill="#F5A921"/><path d="M41.618 110.142L29.002 3.642l1.103-.13 12.636 106.63h-1.123z" fill="#F5A920"/><path d="M40.495 110.143L27.889 3.773l1.113-.13 12.616 106.5h-1.123z" fill="#F5A81F"/><path d="M39.373 110.141L26.787 3.901l1.103-.13 12.606 106.37h-1.123z" fill="#F5A81E"/><path d="M38.26 110.142L25.683 4.022l1.102-.12 12.586 106.24h-1.113z" fill="#F4A71D"/><path d="M37.136 110.141L24.57 4.151l1.113-.13 12.576 106.12h-1.123z" fill="#F4A71C"/><path d="M36.014 110.142L23.469 4.282l1.102-.13 12.566 105.99h-1.123z" fill="#F4A61B"/><path d="M34.89 110.141L22.356 4.411l1.113-.13 12.546 105.86H34.89z" fill="#F4A61A"/><path d="M33.767 110.142L21.252 4.542l1.103-.13 12.535 105.73h-1.123z" fill="#F4A519"/><path d="M32.643 110.141L20.14 4.671l1.113-.13 12.514 105.6h-1.123z" fill="#F4A518"/><path d="M31.522 110.142L19.037 4.792l1.103-.12 12.505 105.47h-1.123z" fill="#F4A417"/><path d="M30.398 110.141L17.934 4.921l1.102-.13 12.485 105.35h-1.123z" fill="#F4A416"/><path d="M29.274 110.142L16.82 5.052l1.113-.13 12.464 105.22h-1.123z" fill="#F4A315"/><path d="M28.153 110.143L15.719 5.183l1.103-.13 12.454 105.09h-1.123z" fill="#F4A314"/><path d="M27.03 110.142L14.604 5.312l1.113-.13 12.434 104.96H27.03z" fill="#F4A213"/><path d="M25.905 110.143L13.502 5.433l1.103-.12 12.424 104.83h-1.123z" fill="#F4A212"/><path d="M24.784 110.142L12.391 5.562l1.113-.13 12.403 104.71h-1.123z" fill="#F3A111"/><path d="M23.66 110.143L11.287 5.693l1.103-.13 12.393 104.58H23.66z" fill="#F3A110"/><path d="M22.537 110.141L10.184 5.821l1.102-.13 12.374 104.45h-1.123z" fill="#F3A00F"/><path d="M21.425 110.142L9.072 5.952l1.113-.13 12.353 104.32h-1.113z" fill="#F3A00E"/><path d="M20.302 110.141L7.969 6.071l1.103-.12 12.352 104.19h-1.122z" fill="#F39F0D"/><path d="M19.178 110.142L6.855 6.202l1.113-.13 12.333 104.07h-1.123z" fill="#F39F0C"/><path d="M18.056 110.141L5.754 6.331l1.103-.13 12.322 103.94h-1.123z" fill="#F39E0B"/><path d="M16.933 110.142L4.64 6.462l1.112-.13 12.303 103.81h-1.123z" fill="#F39E0A"/><path d="M15.81 110.141L3.536 6.591l1.103-.13 12.292 103.68H15.81z" fill="#F39D09"/><path d="M14.685 110.142L2.434 6.722l1.102-.13 12.272 103.55h-1.123z" fill="#F39D08"/><path d="M13.564 110.143L1.322 6.843l1.113-.12 12.252 103.42h-1.123z" fill="#F39C07"/><path d="M12.44 110.142L.22 6.972l1.103-.13 12.241 103.3H12.44z" fill="#F39C06"/><path d="M11.317 110.143L-.895 7.103l1.113-.13 12.222 103.17h-1.123z" fill="#F29B05"/><path d="M10.194 110.142L-1.754 9.292v-2.09l.86-.1 12.211 103.04h-1.123z" fill="#F29B04"/><path d="M9.071 110.141l-10.825-91.38v-9.47l11.948 100.85H9.071z" fill="#F29A03"/><path d="M7.948 110.142l-9.702-81.91v-9.47l10.825 91.38H7.948z" fill="#F29A02"/><path d="M6.825 110.142l-8.579-72.44v-9.47l9.702 81.91H6.825z" fill="#F29901"/><path d="M5.713 110.141l-7.467-62.97v-9.47l8.58 72.44H5.712z" fill="#F29900"/><path d="M-1.754 47.172l7.467 62.97h-7.467v-62.97z" fill="#F29900"/></g><path d="M38.775 53.741l.193 1.09c.07.4.384.62.789.55l7.82-1.35c.405-.07.719.15.79.55l.343 1.92c.071.4-.151.71-.556.78l-20.578 3.56c-.405.07-.718-.15-.79-.55l-.343-1.92c-.071-.4.151-.71.556-.78l7.477-1.29c.404-.07.627-.38.556-.78l-.192-1.09c-.07-.4-.385-.62-.79-.55l-5.422.94c-.405.07-.718-.15-.79-.55l-.323-1.84c-.07-.4.152-.71.557-.78l5.422-.94c.405-.07.628-.38.557-.78l-.182-1.04c-.071-.4-.385-.62-.79-.55l-4.016.7c-.405.07-.718-.15-.79-.55l-.07-.37c-.111-.61-.496-.74-.971-.33-.385.34-.749.65-1.133.97-.314.25-.719.21-.992-.08-.475-.5-1.072-1.02-1.659-1.5-.455-.36-.475-.8-.01-1.18 3.571-2.76 6.515-6.71 7.83-9.79.071-.21.294-.38.506-.42l3.187-.55a.69.69 0 01.617.2c3.157 3.08 7.173 5.33 11.15 6.29.617.17.768.58.475 1.1-.395.73-.759 1.51-1.073 2.27-.161.36-.495.52-.88.37-.445-.14-.92-.34-1.396-.53-.566-.23-.89.02-.779.63l.06.35c.072.4-.15.71-.556.78l-4.208.73c-.405.07-.628.38-.557.78l.182 1.04c.071.4.385.62.79.55l5.503-.95c.405-.07.718.15.79.55l.323 1.84c.07.4-.152.71-.556.78l-5.504.95c-.405.07-.627.38-.556.78l-.01-.01zm-8.164-8.29l9.176-1.59c.729-.13.759-.43.111-.79-2.053-1.1-3.945-2.37-5.341-3.64-.253-.2-.526-.16-.668.14-.87 1.66-2.145 3.45-3.673 5.17-.455.55-.323.83.405.7l-.01.01zm42.006 4.252l1.295-.22c.405-.07.718.15.79.55l.323 1.81c.07.4-.152.71-.557.78l-22.196 3.84c-.405.07-.719-.15-.79-.55l-.323-1.81c-.071-.4.151-.71.556-.78l1.295-.22c.405-.07.627-.38.557-.78l-.729-4.11c-.07-.4.152-.71.557-.78l2.296-.4c.698-.12.87-.56.374-1.03l-.06-.04c-.162-.14-.324-.27-.526-.43-.577-.45-.577-.92.01-1.35.374-.26.688-.53.971-.8.374-.39.273-.79-.202-.98a.29.29 0 00-.122-.04c-.04-.05-.121-.03-.182-.08-.415-.15-.769.02-.9.43-.577 1.75-1.366 3.29-2.358 4.61-.242.34-.627.36-.97.14-.537-.37-1.286-.79-1.903-1.15-.516-.27-.597-.69-.232-1.14 1.73-2.14 2.66-4.94 2.954-8.12.04-.53-.284-.8-.77-.72l-2.265.39c-.405.07-.719-.15-.79-.55l-.293-1.65c-.07-.4.152-.71.556-.78l16.45-2.85c.486-.08.81.19.81.66 0 .91-.03 1.85-.07 2.76 0 .49.303.77.819.68l3.53-.61c.405-.07.699.15.74.56l.06.65c.334 4.06.273 6.08-.344 6.98-.516.83-1.214 1.17-2.084 1.43-.627.19-1.599.39-2.681.55-.374.07-.668-.13-.81-.49a9.632 9.632 0 00-.637-1.4c-.394-.67-.222-1.12.557-1.22.566-.07 1.052-.15 1.355-.21.375-.07.668-.17.87-.43.223-.29.355-.97.355-2.1 0-.47-.324-.71-.78-.63l-.677.12c-.274.05-.456.24-.466.49-.01.25-.202.42-.455.43l-2.317.1c-.465.03-.748-.28-.718-.76.08-.95.111-2.05.131-3.18.02-.5-.303-.77-.789-.69l-4.988.86c-.323.06-.536.29-.536.59-.03.31.142.47.466.41l2.67-.46.314-.11.111-.02h.193l.05-.01 1.194.15c.344.05.607.31.587.67-.03 1.55-.233 2.93-.516 4.13-.101.35.04.68.374.84a25.7 25.7 0 011.589.8c.374.21.435.58.222.92l-.94 1.43c-.213.37-.587.43-.962.22-.344-.22-.748-.45-1.173-.68-.334-.19-.678-.07-.91.21-.274.35-.567.7-.901 1.04-.86.81-.76 1.07.404.86l11.22-1.94c.405-.07.719.15.79.55l.728 4.11c.07.4.384.62.789.55h.01zM58.19 38.843l-1.973.34c-.162.03-.283.16-.334.33-.02.2-.06.42-.11.62-.112.49 0 .52.292.11l.314-.44a.467.467 0 01.476-.14c.354.1.738.26 1.123.38.263.09.495 0 .556-.29.03-.14.05-.31.111-.49.05-.31-.121-.5-.465-.44l.01.02zm-1.447 11.3l.324 1.84c.04.24.233.37.476.33l.617-.11c.243-.04.374-.23.334-.47l-.324-1.84c-.04-.24-.233-.37-.476-.33l-.617.11c-.243.04-.374.23-.334.47zm5.828-1.42l-.678.12c-.243.04-.374.23-.334.47l.324 1.84c.04.24.232.37.475.33l.678-.12c.243-.04.374-.23.334-.47l-.324-1.84c-.04-.24-.232-.37-.475-.33zm4.856-.84l-.678.12c-.243.04-.374.23-.334.47l.324 1.84c.04.24.233.37.475.33l.678-.12c.243-.04.375-.23.334-.47l-.323-1.84c-.041-.24-.233-.37-.476-.33zm13.73-1.642l-.709-3.97c-.07-.4-.384-.62-.789-.55l-3.773.65c-.405.07-.719-.15-.79-.55l-.323-1.84c-.071-.4.151-.71.556-.78l3.774-.65c.405-.07.627-.38.556-.78l-.708-3.97c-.07-.4.152-.71.557-.78l1.993-.35c.404-.07.718.15.789.55l.708 3.97c.07.4.384.62.79.55l3.803-.66c.405-.07.718.15.79.55l.323 1.84c.07.4-.152.71-.556.78l-3.804.66c-.405.07-.628.38-.557.78l.708 3.97c.071.4-.151.71-.556.78l-1.993.35c-.405.07-.718-.15-.79-.55zm11.685.732l-3.106-17.52c-.071-.4.151-.71.556-.78l6.02-1.04c4.178-.72 7.921.14 8.751 4.81.789 4.48-2.367 7.06-6.414 7.76l-1.538.27c-.405.07-.627.38-.556.78l.87 4.93c.07.4-.152.71-.557.78l-3.237.56c-.405.07-.719-.15-.79-.55zm3.369-10.04l1.588-.28c2.236-.39 3.106-1.61 2.782-3.45-.334-1.89-1.67-2.35-3.875-1.97l-1.457.25c-.242.04-.374.23-.333.47l.82 4.64c.04.24.232.37.475.33v.01zm23.804 5.499l-1.427-3.16a.7.7 0 00-.738-.39l-4.614.8a.695.695 0 00-.556.62l-.253 3.45a.696.696 0 01-.557.62l-3.237.56c-.536.09-.87-.21-.799-.74l2.428-18.47c.03-.31.243-.54.536-.59l4.502-.78c.293-.05.577.09.708.37l8.63 16.56c.253.48.041.87-.496.97l-3.399.59a.71.71 0 01-.739-.4l.011-.01zm-6.506-6.43l2.863-.5c.294-.05.425-.27.284-.57l-.456-1.02c-.627-1.32-1.315-2.85-1.952-4.28-.405-.89-.708-.84-.779.14l-.344 4.67-.111 1.12c-.031.31.172.49.495.44zm16.209 4.59l-1.042-5.87-.091-.2s-.01-.08-.051-.1l-7.163-10.14c-.374-.54-.192-.96.425-1.06l3.369-.58c.274-.05.547.07.698.32l2.095 3.51c.445.8.91 1.54 1.386 2.34.587.94 1.072.86 1.295-.22.202-.91.384-1.77.556-2.68l.739-4c.06-.26.273-.49.546-.53l3.288-.57c.617-.11.931.22.759.86l-3.278 11.94s-.01.08 0 .11l-.02.22 1.042 5.87c.071.4-.152.71-.557.78l-3.207.56c-.404.07-.718-.15-.789-.55v-.01zM60.103 80.131l.273 1.55c.07.4-.152.71-.557.78l-4.178.72c-.405.07-.627.38-.556.78l.202 1.12c.283 1.6.111 2.51-.961 3.19-.982.58-2.287.89-3.906 1.17a.724.724 0 01-.799-.44c-.202-.52-.495-1.04-.769-1.52-.354-.57-.182-1.01.496-1.1l1.831-.32c.405-.1.526-.17.466-.49l-.172-.99c-.071-.4-.385-.62-.79-.55l-3.884.67c-.81.14-.86.48-.172.94l.627.41c.314.22.354.6.08.92l-1.395 1.7c-.304.33-.688.34-1.042.07-.87-.67-2.084-1.43-3.228-2.03-.303-.17-.364-.46-.131-.72.232-.26.152-.41-.203-.35l-3.723.64c-.404.07-.718-.15-.789-.55l-.273-1.55c-.07-.4.152-.71.556-.78l13.406-2.32c.192-.03.303-.19.263-.4-.03-.19-.193-.3-.385-.26-4.512.92-8.782 1.74-12.15 2.35a.675.675 0 01-.79-.52l-.273-1.24c-.1-.39.152-.74.557-.81 2.165-.35 4.836-.81 7.719-1.31.212-.04.324-.19.293-.41-.03-.19-.192-.3-.384-.26l-6.151 1.06c-.405.07-.718-.15-.79-.55l-1.102-6.21c-.07-.4.152-.71.556-.78l6.182-1.07a.314.314 0 00.243-.37.303.303 0 00-.344-.24l-8.226 1.42c-.404.07-.718-.15-.789-.55l-.242-1.39c-.071-.4.151-.71.556-.78l7.85-1.36c.406-.07.618-.44.547-.84-.07-.4.142-.77.547-.84l2.316-.4c.405-.07.729.2.8.6.07.4.394.67.799.6l7.82-1.35c.405-.07.719.15.79.55l.242 1.39c.071.4-.151.71-.556.78l-8.175 1.41c-.192.03-.303.19-.273.35.03.19.192.3.384.26l6.556-1.13c.405-.07.719.15.79.55l1.112 6.27c.071.37-.131.65-.485.71-.375.07-.385.2-.05.34.626.25 1.203.51 1.72.75.485.22.556.65.212 1.04l-.972 1.13c-.232.26-.587.29-.89.13l-.395-.21c-.121-.06-.293-.09-.455-.06l-.779.16h-.05c-.182.07-.294.22-.253.44.04.24.202.35.445.31l4.482-.78c.404-.07.718.15.789.55l-.02.02zm-18.98-6.42c.03.19.192.3.384.26l3.046-.53c.162-.03.273-.18.242-.37a.302.302 0 00-.344-.24l-3.045.53c-.192.03-.303.19-.273.35h-.01zm.84 2.91l3.025-.52a.305.305 0 00.263-.38c-.04-.19-.192-.3-.385-.26l-3.025.52a.305.305 0 00-.263.38c.03.19.192.3.385.26zm10.026-5.09l-3.268.56c-.192.03-.304.19-.273.35.03.19.192.3.384.26l3.268-.56c.162-.03.273-.18.243-.37a.297.297 0 00-.344-.24h-.01zm.82 2.88c-.031-.19-.193-.3-.385-.26l-3.238.56a.305.305 0 00-.263.38c.03.19.192.3.385.26l3.237-.56a.305.305 0 00.263-.38zm-1.559 2.8l-1.538.27c-.212.04-.323.19-.293.38.04.21.192.32.415.29l1.669-.29c.212-.04.202-.12 0-.17l-.06-.02c-.173-.05-.223-.18-.082-.31.122-.1.081-.18-.11-.15zm21.843-1.469c-.102.18-.03.28.182.24l10.876-1.88c.354-.06.607.12.637.47.03.19.04.4.07.54.668 4.58.76 6.49.314 7.28-.354.69-.88 1-1.456 1.19-.446.16-1.134.33-1.923.44-.273.05-.465-.09-.556-.34-.071-.23-.304-.3-.526-.16l-.8.5h-.05c-.152.09-.304.03-.354-.12v-.05c-.122-.15-.304-.23-.486-.17-3.389.78-6.799 1.48-9.51 2.06a.654.654 0 01-.81-.49l-.242-.92c-.101-.42.111-.76.546-.84l4.3-.83c.212-.04.324-.19.293-.41-.04-.21-.192-.32-.414-.29l-2.783.48c-.404.07-.718-.15-.789-.55l-.131-.75c-.06-.32-.233-.37-.476-.19-.212.2-.495.2-.738.05l-.071-.07a3.008 3.008 0 00-.324-.25c-.475-.36-.84-.16-.84.42-.09 1.67-.333 3.27-.779 4.72-.141.44-.536.59-.96.38-.628-.25-1.397-.5-2.044-.69-.496-.13-.698-.48-.526-.95 1.295-4.13.495-9.43-.162-13.16l-1.204-6.8c-.071-.4.151-.71.556-.78l19.476-3.37c.404-.07.718.15.789.55l.708 3.97c.07.4-.152.71-.556.78l-15.864 2.75c-.405.07-.627.38-.556.78l.263 1.49c.333 1.89.688 4.2.799 6.57.07.87.526 1.09 1.113.47.354-.36.678-.72.95-1.07.294-.38.142-.6-.343-.52l-.132.02c-.405.07-.718-.15-.789-.55l-.385-2.19c-.07-.4.152-.71.557-.78l14.62-2.53c.404-.07.718.15.788.55l.385 2.19c.07.4-.152.71-.557.78l-9.57 1.66a.698.698 0 00-.466.33l-.02.03-.03.01zm5.362-12.42l-12.839 2.22a.377.377 0 00-.314.44c.04.21.233.35.446.31l12.838-2.22a.379.379 0 00.314-.44.388.388 0 00-.445-.31zm-6.243 5.42c.071.4-.151.74-.556.81l-3.966.69c-.405.07-.728-.18-.8-.58-.07-.4.153-.74.557-.81l3.966-.69c.405-.07.729.18.8.58zm-4.977 2.84c-.071-.4.151-.74.556-.81l3.966-.69c.405-.07.729.18.8.58.07.4-.152.74-.557.81l-3.966.69c-.405.07-.728-.18-.8-.58zm3.197 2.5c.04.24.233.37.475.33l.698-.12a.378.378 0 00.304-.47.38.38 0 00-.445-.31l-.698.12c-.243.04-.375.23-.334.44v.01zm2.135 4.06l-.921.16a.403.403 0 00-.233.12c-.07.07-.111.16-.182.22-.162.19-.111.3.152.25l1.264-.22c.162-.03.253-.15.223-.31s-.152-.25-.314-.22h.01zm-.152 2.61l.536-.09a.305.305 0 00.263-.38c-.03-.19-.192-.3-.385-.26l-.536.09a.305.305 0 00-.263.38c.03.19.192.3.385.26zm3.733-10.02l-2.054.35c-.404.07-.718-.15-.789-.55l-.395-2.21c-.07-.4.152-.71.557-.78l2.054-.35c.404-.07.718.15.789.55l.394 2.21c.071.4-.151.71-.556.78zm-1.477 2.62c.04.24.232.37.475.33l.729-.13a.378.378 0 00.303-.47.38.38 0 00-.445-.31l-.728.13c-.243.04-.375.23-.334.44v.01zm5.716 7.36c-.111.02-.121.08-.06.15l.525.6c.071.1.223.15.355.13l.212-.04c.273-.05.395-.12.526-.34l.04-.06c.152-.41.091-1.5-.263-4.16-.02-.27-.212-.4-.475-.36l-5.049.87c-.161.03-.252.15-.222.31s.152.25.314.22l3.267-.56c.243-.04.435.09.476.33l.486 2.72c.02.11-.03.17-.132.19zm-4.057-.97c.03.19.192.3.385.26l.536-.09a.305.305 0 00.263-.38c-.03-.19-.192-.3-.385-.26l-.536.09a.305.305 0 00-.263.38zm.718 2.21l.698-.15c.132-.02.152-.11.071-.21-.1-.09-.09-.2.03-.28l.102-.07c.151-.08.141-.13-.04-.1l-.972.17a.305.305 0 00-.263.38c.03.19.192.3.384.26h-.01zm5.686-15.03c.071.4-.152.74-.556.81l-4.209.73c-.405.07-.728-.18-.8-.58-.07-.4.153-.74.547-.81l4.209-.73c.404-.07.728.18.799.58h.01zm-5.22 2.89c-.071-.4.151-.74.556-.81l4.209-.73c.405-.07.728.18.8.58.07.4-.153.74-.557.81l-4.209.73c-.405.07-.728-.18-.8-.58zm1.447 2.8c.04.24.232.37.475.33l.759-.13c.212-.04.344-.23.303-.47a.388.388 0 00-.445-.31l-.759.13c-.242.04-.374.23-.334.44v.01zm10.573-14.531l2.246.27c.394.04.647.35.576.75a41.697 41.697 0 01-.9 4.36c-.02.03-.01.08 0 .11l-.02.2 3.065 17.33c.071.4-.151.71-.556.78l-2.185.38c-.405.07-.719-.15-.79-.55l-1.83-10.32c-.092-.51-.294-.53-.537-.07-.253.46-.617.46-.86-.02-.506-.79-1.194-1.88-1.74-2.61-.182-.22-.172-.52-.05-.76 1.345-2.46 2.377-5.88 2.832-9.26.04-.39.364-.64.759-.6l-.01.01zm18.585 13.9h.05l1.447.48c.415.15.587.5.385.9-.274.51-.597 1.01-.962 1.48-.687.81-.495 1.27.577 1.19.577-.05 1.184-.09 1.781-.17.87-.1 1.143.32.779 1.1-.213.5-.425 1.04-.597 1.51a.755.755 0 01-.577.48h-.05c-2.469.19-4.725.17-6.759-.17a.665.665 0 00-.435.07c-1.75.94-3.783 1.73-6.07 2.45a.71.71 0 01-.8-.25c-.252-.34-.596-.69-.93-1.02-.546-.56-.435-1.02.314-1.23a73.24 73.24 0 002.944-.95c.445-.16.455-.44.02-.66l-.273-.15a.784.784 0 00-.81 0c-.293.22-.627.41-.95.6-.304.16-.618.11-.88-.09l-.061-.04c-.213-.24-.466-.44-.729-.67-.678-.52-.678-1.01.111-1.42 1.589-.8 2.813-1.7 3.693-2.56.284-.27.192-.64-.03-.93-.253-.34-.455-.39-.668-.02-.324.52-.698 1.06-1.093 1.54a.67.67 0 01-.809.14l-1.356-.73c-.404-.23-.445-.61-.11-.92.333-.3.212-.5-.244-.42l-.404.07c-.405.07-.719-.15-.79-.55l-.424-2.4c-.071-.4.151-.71.556-.78l.89-.15c.405-.07.628-.38.557-.78l-.87-4.93c-.071-.4.151-.71.556-.78l3.126-.54c.193-.03.304-.19.354-.36v-.05c0-.16-.141-.28-.333-.25l-4.533.78c-.405.07-.718-.15-.789-.55l-.213-1.23c-.07-.4.152-.71.557-.78l14.376-2.49c.405-.07.719.15.789.55l.213 1.23c.071.4-.152.71-.557.78l-5.372.93c-.212.04-.354.2-.435.38v.05c-.071.18.031.3.253.26l4.259-.74c.405-.07.719.15.79.55l.87 4.93c.071.4.384.62.789.55l.698-.12c.405-.07.718.15.789.55l.425 2.4c.071.4-.202.72-.607.79-.486.08-.607.33-.243.65l.101.09c.304.28.253.67-.091.92l-1.052.81a.752.752 0 01-.991-.1l-.304-.31c-.475-.47-.799-.3-1.163.2-.334.44-.931.71-1.872.88l-1.346.23a.81.81 0 00-.445.3c-.152.22-.131.38.112.34l4.016-.7.395-.15a.832.832 0 01.445-.02h.01zm-9.834-1.87c.263.09.405-.04.364-.31v-.05c-.05-.24.081-.43.324-.47l2.054-.35c.081-.01.101-.07.03-.14h-.03a.446.446 0 00-.294-.05l-3.773.65c-.112.02-.172.11-.152.22l.03.19.061-.12 1.386.45v-.02zm5.767-8.69l-5.747.99c-.192.03-.273.16-.253.32.03.19.162.27.344.24l5.747-.99c.162-.03.253-.15.222-.34-.03-.16-.151-.25-.313-.22zm.667 2.19c-.03-.19-.192-.3-.384-.26l-5.665.98a.305.305 0 00-.264.38c.03.19.193.3.385.26l5.665-.98a.304.304 0 00.263-.38zm-5.959 3.1c.03.19.193.3.385.26l5.666-.98a.305.305 0 00.263-.38c-.031-.19-.193-.3-.385-.26l-5.665.98a.305.305 0 00-.264.38zm2.813 2.84l.081.45c.091.53.243.56.83.46l.273-.05c.162-.03.202-.12.071-.23a8.84 8.84 0 00-.951-.82c-.223-.15-.344-.08-.304.19zm2.752 5.15l-1.811.31c-.678.12-.708.37-.041.56l.962.25c.111 0 .222-.01.323-.06l.79-.55c.566-.4.445-.63-.233-.51h.01zm-.567-4.46l.486-.08c.273-.05.405-.1.475-.27.142-.3.284-.46.628-.41l.718.12c.253.01.293-.05.101-.21-.222-.15-.232-.35 0-.49l1.477-1.08c.081-.04.091-.13.081-.18 0-.05-.071-.1-.131-.09l-2.752.48c-.354.06-.405.23-.142.46a.68.68 0 01.132.12c.172.16.152.39-.041.53l-1.153.89c-.223.18-.202.28.121.23v-.02zm17.026-13.388c-.041-.24-.233-.37-.476-.33l-8.012 1.39c-.405.07-.719-.15-.789-.55l-.264-1.49c-.07-.4.152-.71.557-.78l7.901-1.37c.294-.05.476-.3.425-.6-.05-.29.122-.54.425-.6l2.833-.49c.293-.05.546.12.597.42.05.29.303.47.607.42l8.255-1.43c.405-.07.719.15.79.55l.263 1.49c.07.4-.152.71-.557.78l-8.336 1.44c-.273.05-.405.23-.364.48.05.27.232.4.505.35l6.587-1.14c.404-.07.718.15.789.55l1.143 6.45c.071.4-.152.71-.557.78l-.273.05c-.566.1-.586.29-.07.54 1.021.45 2.003.94 2.782 1.41.404.26.455.66.121 1l-1.295 1.35c-.263.27-.637.3-.961.08l-.374-.24a.707.707 0 00-.496-.11l-4.411.85c-.961.19-1.032.59-.192 1.1.283.17.556.34.819.52.314.22.324.6.081.92l-1.295 1.49c-.303.33-.688.34-1.042.07-.779-.61-1.872-1.3-2.914-1.83-.404-.23-.465-.58-.162-.91.274-.32.193-.5-.242-.43-3.096.59-6 1.12-8.367 1.56-.375.07-.698-.15-.789-.52l-.385-1.69c-.101-.42.122-.73.557-.81 2.185-.38 4.836-.81 7.668-1.3.355-.06.527-.31.466-.66-.061-.35-.314-.52-.668-.46l-6.475 1.12c-.405.07-.718-.15-.789-.55l-1.143-6.45c-.071-.4.152-.71.556-.78l6.637-1.15c.243-.04.374-.23.334-.5v.01zm-3.915 20.11l-2.196-.8c-.475-.17-.597-.56-.405-1 .486-1.02.85-2.24 1.063-3.4.091-.43.404-.68.84-.58l2.114.46c.374.07.597.39.526.76-.223 1.41-.587 2.96-1.113 4.23-.162.33-.496.47-.829.34v-.01zm.242-16.51v.05c.051.24.243.37.486.33l3.369-.58c.243-.04.374-.23.334-.47v-.05c-.051-.24-.243-.37-.486-.33l-3.369.58c-.243.04-.374.23-.334.47zm.982 3.16l3.369-.58c.243-.04.374-.23.334-.47v-.03c-.051-.24-.233-.37-.476-.33l-3.369.58c-.243.04-.374.23-.334.47v.03c.051.24.233.37.476.33zm19.394 9.23l-2.043 1.04c-.405.21-.8.06-.982-.35v-.05c-.131-.2-.253-.45-.415-.7-.455-.83-.789-.69-1.021.2-.395 1.39-1.427 1.98-3.481 2.33l-4.583.79c-3.935.68-5.089-.03-5.594-2.85l-.324-1.84c-.071-.4.152-.71.556-.78l2.317-.4c.405-.07.718.15.789.55l.314 1.79c.131.75.415.78 1.821.54l3.854-.67c.759-.13 1.083-.35 1.103-1.13.041-.7.385-.97 1.052-.82.314.06.638.14.951.17.516.08.668-.17.344-.58-.344-.38-.273-.78.182-.99l1.862-.96a.684.684 0 01.769.12c1.153 1.15 2.236 2.55 2.812 3.77.172.33.041.68-.293.82h.01zm-8.822-14.8l-3.187.55c-.243.04-.374.23-.334.47v.05c.051.24.243.37.486.33l3.187-.55c.243-.04.374-.23.334-.47v-.05c-.051-.24-.243-.37-.486-.33zm.981 3.16v-.03c-.05-.24-.232-.37-.475-.33l-3.187.55c-.243.04-.374.23-.334.47v.03c.051.24.233.37.476.33l3.187-.55c.242-.04.374-.23.333-.47zm-2.944 4.24l1.488-.26c.212-.04.232-.12.02-.2-.213-.1-.233-.23-.071-.4l.212-.2c.314-.27.233-.42-.172-.35l-1.669.29c-.243.04-.374.23-.334.47l.061.32c.04.24.233.37.476.33h-.011z" fill="#fff"/></svg>