<svg width="430" height="159" viewBox="0 0 430 159" fill="none" xmlns="http://www.w3.org/2000/svg"><path fill-rule="evenodd" clip-rule="evenodd" d="M374.382 8.95c-.77-1.81-.02-4.06-.41-6.02-.54-1.05-.25-2.6 1.21-2.52 2.78 1.04 1.33 5.4 1.66 7.76-.04 1.2-1.73 1.72-2.46.78zm11.027 5.65c-1.89-.7-7.58-.05-6.71-3.19.96-1.73 5.42.61 7.32.46 1.77.36 1.14 3.14-.61 2.72v.01zm-12.61 8.28c.18-1.89.39-3.77.55-5.65.15-1.84 3.02-1.53 2.77.3-.61 1.89.56 6.66-2.05 6.86-.75-.06-1.34-.75-1.27-1.51zm-7.559-9.77c.05-1.99 5.26-1.68 4.95.37-.05 1.99-5.26 1.68-4.95-.37zM8.209 81.59c.48-1.67-.59-5.2 1.86-5.36 2.39.58.73 3.88.92 5.6-.14 1.8-2.95 1.56-2.78-.24zm10.379 6.19c-.65-.12-1.29-.23-1.94-.34.06 0 .12.02.19.03-1.26-.3-3.59.11-3.52-1.79.64-2.49 4.12-.65 5.89-.63 1.77.37 1.14 3.13-.61 2.72l-.01.01zM7.789 94.21c.16-1.86.46-7.01 3.39-5.38 1.17 1.06-.94 3.7-.61 5.62-.14 1.8-2.95 1.56-2.78-.24zm-5.58-6.16c-1.8-.14-1.56-2.95.24-2.78 1.4.33 4.19-.35 4.18 1.78-.36 2.11-2.98.96-4.42 1zm413.88 55.9c.32-2.37-.88-5.27.2-7.35 3.7-1.67 2.18 5.26 2.59 7.21.1 1.8-2.72 1.95-2.79.14zm12.048 5.89c-1.76-.59-5.86.43-5.76-2.27.94-2.23 4.15-.33 5.99-.51 1.8.15 1.56 2.96-.24 2.78h.01zm-13.88 7.42c.43-1.71-.72-5.34 1.78-5.53 2.41.61.71 3.99 1 5.77-.13 1.8-2.94 1.56-2.78-.24zm-7.849-8.56c-1.8-.14-1.56-2.95.24-2.78 1.7.53 5.32-.62 5.5 1.87-.61 2.41-3.98.73-5.74.91z" fill="#58393E"/></svg>