<svg width="466" height="349" viewBox="0 0 466 349" fill="none" xmlns="http://www.w3.org/2000/svg"><mask id="mask0_1280_9287" style="mask-type:luminance" maskUnits="userSpaceOnUse" x="0" y="0" width="466" height="349"><path d="M465.31 0H0v348.48h465.31V0z" fill="#fff"/></mask><g mask="url(#mask0_1280_9287)"><mask id="mask1_1280_9287" style="mask-type:luminance" maskUnits="userSpaceOnUse" x="127" y="278" width="332" height="70"><path d="M458.93 278H127v69.58h331.93V278z" fill="#fff"/></mask><g mask="url(#mask1_1280_9287)"><path d="M266.519 289.29c-.21.61-.4 1.21-.62 1.74h6.03v11.66h-1.44v-1.08h-9.67v1.08h-1.38v-11.66h4.97c.17-.55.34-1.19.46-1.74h-7.58v-1.31h4.89c-.38-.64-1.02-1.5-1.61-2.14l1.23-.53c.68.66 1.44 1.59 1.78 2.24l-.81.44h5c.61-.78 1.31-1.86 1.72-2.63l1.54.4c-.51.8-1.12 1.59-1.69 2.24h4.78v1.31h-7.58l-.02-.02zm3.96 2.99h-9.67v1.88h9.67v-1.88zm0 3.02h-9.67v1.93h9.67v-1.93zm0 5.06v-2.01h-9.67v2.01h9.67zm8.473-12.76c-.59.81-1.27 1.55-1.95 2.12-.19-.25-.68-.7-.99-.95 1.17-.87 2.27-2.2 2.9-3.54l1.25.36c-.15.3-.3.59-.47.89h4.81v1.12h-5.55zm12.15 5.18h2.03v1.08h-2.03v2.29h-5.84v1.12h6.33v1.1h-6.33v1.19h7.56v1.12h-7.56v2.01h-1.4v-2.01h-7.39v-1.12h7.39v-1.19h-6.18v-1.1h6.18v-1.12h-5.61v-1.06h5.61v-1.23h-7.71v-1.08h7.71v-1.1h-5.46v-1.06h5.46v-1.04h1.4v1.04h5.84v2.16zm-10.29-5.14c.57.53 1.31 1.29 1.65 1.76l-.95.74c-.36-.49-1.06-1.27-1.63-1.86l.93-.64zm12.39-1.14v1.12h-6.59c-.49.68-1.06 1.31-1.63 1.78-.23-.23-.76-.64-1.06-.85 1.06-.8 2.01-2.03 2.54-3.32l1.31.34c-.13.32-.29.63-.46.93h5.89zm-7.94 6.28h4.43v-1.1h-4.43v1.1zm4.43 1.08h-4.43v1.23h4.43v-1.23zm.04-3.74c-.34-.51-1.04-1.27-1.65-1.84l.99-.64c.57.51 1.31 1.25 1.67 1.72l-1 .76h-.01zm8.578 3.72c-.76-.53-2.33-1.44-3.47-2.05l.76-1.02c1.12.55 2.69 1.38 3.49 1.91l-.78 1.16zm-2.84 7.63c1-1.44 2.5-3.92 3.58-6.06l1.02.93c-1 1.99-2.31 4.34-3.43 6.08l-1.17-.95zm1.21-15.84c1.12.62 2.65 1.52 3.45 2.07l-.85 1.12c-.76-.57-2.27-1.54-3.41-2.22l.82-.97h-.01zm14.38 15.28c0 .8-.17 1.21-.74 1.44-.57.23-1.52.23-2.96.23-.04-.38-.25-.95-.44-1.35 1.08.06 2.07.06 2.35.04.3-.02.4-.09.4-.38v-3.54c-2.25.59-4.6 1.16-6.39 1.57l-.47-1.21c1.74-.36 4.34-.93 6.86-1.53v-4.13h-7.11v3.92c0 2.08-.19 4.89-1.31 6.8-.23-.25-.78-.68-1.08-.83.97-1.72 1.06-4.09 1.06-5.97v-5.21h4.26v-5.38h1.38v5.38h4.17v10.16l.02-.01zm-8.41-10.83c-.28-.97-1.1-2.46-1.9-3.54l1.17-.55c.83 1.06 1.69 2.5 1.99 3.47l-1.27.62h.01zm1.04 3.21c1.69.32 3.79 1 4.91 1.57l-.55 1.02c-1.1-.61-3.2-1.33-4.91-1.69l.55-.91v.01zm8.04-6.84c-.64 1.23-1.46 2.62-2.14 3.54l-1.21-.51c.68-.97 1.55-2.48 2.01-3.58l1.35.55h-.01zm9.239 14.02c-1.55.87-3.94 1.72-5.86 2.22-.21-.28-.7-.81-1-1.06 1.93-.36 4.25-1.02 5.59-1.72l1.27.57v-.01zm4.55-.59c1.97.57 4.04 1.29 5.33 1.84l-1.06.87c-1.27-.59-3.41-1.38-5.57-2.03l.7-.68h-8.4v-6.01c-.49.15-1.06.28-1.69.42a5.35 5.35 0 00-.66-1.1c2.39-.44 3.77-1.04 4.57-1.76h-3.22c.17-.83.36-2.01.47-2.99h3.77v-1.08h-4.62v-.93h4.62v-1.04h1.29v1.04h2.92v-1.04h1.33v1.04h4.23v2.94h-4.23v1.14h5.4s-.02.28-.04.46c-.11 1.02-.23 1.57-.49 1.82-.25.23-.53.32-.91.34-.13 0-.3.02-.49.02v6.75h-3.24l-.01-.02zm-8.42-10.52c-.06.4-.11.78-.17 1.14h2.5c.17-.36.25-.74.28-1.14h-2.62.01zm10.26 4.32h-9.48v1.18h9.48v-1.18zm0 2.05h-9.48v1.16h9.48v-1.16zm-9.48 3.24h9.48v-1.19h-9.48v1.19zm2.56-7.54c-.28.49-.72.95-1.35 1.35h8.47c-.04-.21-.13-.44-.23-.61.57.06 1.08.08 1.29.08.21 0 .34-.02.44-.13.09-.09.17-.29.23-.68h-4v1.31h-1.33v-1.31h-3.52v-.01zm3.52-2.07h-2.96c-.02.4-.08.78-.19 1.14h3.15v-1.14zm-2.92-.92h2.92v-1.08h-2.92v1.08zm4.25-1.08v1.08h2.94v-1.08h-2.94zm24.549 11.69h-7.69v2.2c0 .78-.23 1.1-.89 1.31-.64.17-1.74.17-3.43.17-.08-.38-.3-.83-.47-1.17 1.27.04 2.56.04 2.88.02.36-.02.46-.09.46-.36v-2.16h-7.62v-1.23h7.62v-1.14c1.27-.26 2.67-.66 3.85-1.14h-9.7v-1.16h11.94l.3-.08.95.8c-1.61.93-3.77 1.71-5.88 2.22v.49h7.69v1.23h-.01zm-.22-10.8h-16.37v-1.23h7.6c-.19-.49-.44-1.06-.66-1.5l1.4-.28c.3.53.62 1.23.83 1.78h7.2v1.23zm-13.99 5v-3.79h11.75v3.79h-11.75zm1.38-1.04h8.91v-1.71h-8.91v1.71z" fill="#58393E"/><path d="M354.48 302.02c-1.55 0-2.32-.88-2.32-1.94 0-.84.35-1.52 1.08-2.14l4-3.49c1.1-.99 1.7-1.7 1.7-2.76 0-.97-.82-1.79-2.05-1.79s-2.3.88-2.83 2.03l-2.47-1.39c.95-2.1 2.94-3.67 5.57-3.67 2.96 0 5.02 2.05 5.02 4.53 0 1.88-.75 3.23-2.12 4.42l-3.67 3.23h6.19v2.98h-8.09l-.01-.01zm10.137-7.43c0-4.49 2.54-7.73 6.32-7.73 3.78 0 6.32 3.25 6.32 7.73s-2.52 7.73-6.32 7.73c-3.8 0-6.32-3.4-6.32-7.73zm9.32 0c0-2.61-1.33-4.44-3-4.44s-3 1.83-3 4.44c0 2.45 1.35 4.44 3 4.44s3-1.99 3-4.44zm5.024-3.38c0-2.45 1.41-4.22 3.54-4.22s3.51 1.77 3.51 4.22c0 2.45-1.41 4.2-3.51 4.2-2.1 0-3.54-1.79-3.54-4.2zm4.84 0c0-1.24-.53-2.1-1.3-2.1s-1.33.86-1.33 2.1c0 1.24.53 2.08 1.33 2.08s1.3-.88 1.3-2.08zm-.99 10.81l7.53-14.87h3.14l-7.51 14.87h-3.16zm7.51-4c0-2.45 1.41-4.24 3.54-4.24s3.51 1.79 3.51 4.24-1.41 4.2-3.51 4.2c-2.1 0-3.54-1.79-3.54-4.2zm4.84 0c0-1.26-.53-2.12-1.3-2.12s-1.33.86-1.33 2.12c0 1.26.53 2.08 1.33 2.08s1.3-.91 1.3-2.08z" fill="#D93636"/><path d="M415.249 286.16v16.51h-1.5v-1.02h-12.79v1.02h-1.42v-16.51h15.71zm-1.5 14.16v-12.75h-12.79v12.75h12.79zm-2.75-9.82v6.84h-7.32v-6.84h7.32zm-1.38 1.27h-4.59v4.32h4.59v-4.32zm14.64-2.63c-.59-.51-1.72-1.29-2.71-1.91-.97 1.27-2.18 2.44-3.39 3.28-.09-.28-.42-.97-.62-1.23 1.48-.95 3.05-2.45 3.9-4.04l1.16.4c-.11.21-.25.42-.38.64.95.57 2.08 1.31 2.69 1.78l-.64 1.08h-.01zm-.46 12.98c-.15-.42-.38-.93-.66-1.52-3.71 1.54-4.23 1.8-4.57 2.07-.08-.3-.28-.91-.49-1.19.28-.11.68-.38.68-1.06v-9.32h5.42v6.33h-4.17v3.24l2.65-1.02c-.25-.51-.51-.99-.76-1.44l.99-.4c.7 1.19 1.57 2.84 1.97 3.77l-1.06.55v-.01zm-3.79-9.97v1.5h2.92v-1.5h-2.92zm2.92 4.19v-1.63h-2.92v1.63h2.92zm-2.84-7.43h3.2v1.02h-3.2v-1.02zm9.02 11.24c-.82.99-2.18 1.97-3.37 2.56-.19-.27-.68-.74-.97-.97 1.14-.49 2.37-1.19 3.07-2.01l1.27.42zm.13-10.43h-3.53v-3.13h3.53v-1.25h1.29v1.25h3.62v3.13h-3.62v.93h4.43v1.08h-10.14v-1.08h4.42v-.93zm-3.46 9.76v-6.9h8.26v6.9h-8.26zm3.46-10.68v-1.29h-2.33v1.29h2.33zm-2.19 5.78h5.67v-1.08h-5.67v1.08zm0 1.99h5.67v-1.12h-5.67v1.12zm0 2.02h5.67v-1.16h-5.67v1.16zm3.48-11.08v1.29h2.37v-1.29h-2.37zm1.06 12.07c1.27.74 2.65 1.67 3.51 2.37l-1.02.76c-.8-.7-2.12-1.67-3.32-2.41l.83-.72z" fill="#58393E"/><path d="M234.47 278h-91.58c-8.776 0-15.89 7.112-15.89 15.885s7.114 15.885 15.89 15.885h91.58c8.776 0 15.89-7.112 15.89-15.885S243.246 278 234.47 278z" fill="#18ABD3"/><path d="M157.609 292.9c-.99 2.56-2.52 4.53-4.49 6.05 1.84.74 4.02 1.27 6.52 1.54-.49.53-1.14 1.57-1.42 2.22-2.96-.42-5.4-1.16-7.45-2.27-2.27 1.19-4.93 1.95-7.77 2.41-.19-.59-.78-1.67-1.21-2.16 2.52-.32 4.83-.87 6.82-1.71-1.42-1.16-2.58-2.6-3.54-4.34l1.02-.36h-2.48v-2.22h5.95v-2.2h-6.88v-2.24h6.88v-2.48h2.35v2.48h6.92v2.24h-6.92v2.2h3.73l.4-.08 1.57.93v-.01zm-10.19 1.36c.83 1.4 1.99 2.6 3.47 3.52 1.44-.91 2.62-2.08 3.45-3.52h-6.92zm20.14-8.32c-.51 1.27-1.1 2.56-1.8 3.83v13.02h-2.31v-9.5c-.44.55-.89 1.06-1.33 1.52-.25-.55-.93-1.8-1.33-2.35 1.8-1.72 3.53-4.45 4.53-7.24l2.24.72zm11.01 5.53h-2.08v8.6c0 1.46-.34 2.05-1.25 2.39-.93.36-2.35.4-4.43.38-.13-.64-.53-1.65-.87-2.24 1.46.06 3.13.06 3.56.04.47 0 .64-.15.64-.57v-8.6h-7.22v-2.27h7.22v-3.87h2.35v3.87h2.08v2.27zm-8.36 6.85c-.47-1.16-1.59-3.11-2.44-4.55l2.01-.93c.85 1.38 2.03 3.24 2.6 4.38l-2.16 1.1h-.01zm12.943-.82c-.47 1.36-1.25 2.92-1.91 3.88-.34-.28-1.06-.78-1.48-1.02.64-.89 1.27-2.18 1.67-3.35l1.72.49zm2.65-1.1v6.29h-2.18v-6.29h-3.53v-1.9h3.53v-1.46h-3.64v-1.86h1.84c-.09-.57-.32-1.38-.55-1.97l1.55-.38h-2.56v-1.84h3.24c-.17-.51-.38-1.04-.57-1.5l2.25-.55c.28.63.63 1.4.85 2.05h2.71v1.84h-2.37l1.54.3c-.28.72-.57 1.46-.85 2.05h1.97v1.86h-3.24v1.46h2.94v1.9h-2.94.01zm-2.73-7.56c.28.62.53 1.44.62 1.97l-1.36.38h2.73c.28-.68.62-1.65.81-2.35h-2.8zm14.42 4.61h-1.76v9.31h-2.2v-9.31h-1.76v.23c0 2.79-.25 6.69-1.86 9.12-.38-.4-1.27-1.12-1.74-1.35.36-.55.64-1.17.85-1.84l-1.34.83c-.3-.76-.95-1.97-1.48-2.84l1.48-.8c.51.76 1.1 1.76 1.42 2.48.53-1.82.59-3.87.59-5.61v-6.75c2.07-.38 4.36-.97 5.74-1.61l1.72 1.65c-1.55.63-3.53 1.08-5.38 1.42v2.98h5.72v2.09zm18.105 6.7c0 1.1-.19 1.71-.87 2.08-.64.38-1.61.44-3.01.44-.08-.62-.38-1.63-.66-2.22.81.06 1.71.04 1.99.02.28 0 .38-.09.38-.36v-3.7h-2.97c-.28 2.31-.87 4.72-2.14 6.48-.4-.36-1.31-.93-1.84-1.16-.11.13-.25.25-.42.34-.59.34-1.44.4-2.65.4-.06-.57-.34-1.48-.61-2.01.66.04 1.38.04 1.63.04.23-.02.3-.09.3-.34v-3.75h-2.54c-.23 2.29-.74 4.7-1.84 6.44-.4-.34-1.29-.91-1.82-1.14 1.61-2.48 1.72-6.18 1.72-8.95v-6.82h6.58v14.21c0 .51-.04.91-.15 1.23 1.71-2.63 1.86-6.31 1.86-9.08v-6.37h7.07v14.19l-.01.03zm-10.87-5.74v-2.24h-2.39v.59c0 .53 0 1.06-.04 1.65h2.43zm-2.39-6.4v2.18h2.39v-2.18h-2.39zm11.08 6.4v-2.24h-2.75v.15c0 .64-.02 1.35-.06 2.08h2.8l.01.01zm-2.74-6.4v2.18h2.75v-2.18h-2.75zm22.522 4.64c-.7 2.56-1.84 4.57-3.33 6.16 1.52.87 3.32 1.52 5.44 1.9-.49.47-1.16 1.44-1.46 2.05-2.27-.49-4.17-1.29-5.78-2.39-1.46 1.06-3.17 1.88-5.02 2.44-.29-.57-.83-1.46-1.27-1.91 1.67-.42 3.2-1.1 4.51-2.01-.99-1.02-1.84-2.2-2.52-3.58-.87 2.5-2.18 4.98-4.23 6.84-.47-.59-1.19-1.17-1.93-1.59 3.28-2.69 4.53-6.97 5.04-10.42h-4.32v-2.2h4.59c.09-1.23.11-2.24.15-2.82h2.35c-.04.68-.08 1.67-.19 2.82h9.57v2.2h-9.82c-.09.63-.21 1.27-.36 1.95h6.63l.42-.09 1.54.66-.01-.01zm-7.69 1.61c.64 1.21 1.46 2.29 2.5 3.18.89-.89 1.65-1.97 2.18-3.18h-4.68z" fill="#fff"/><path d="M263.36 327.7c-.59.97-1.31 1.93-2.08 2.86v9.97h-1.4v-8.41c-.72.74-1.44 1.42-2.14 1.97-.21-.28-.7-.89-.99-1.17 1.95-1.38 4-3.56 5.31-5.71l1.31.49h-.01zm-.74-4c-1.23 1.67-3.17 3.51-4.85 4.7-.21-.3-.59-.85-.83-1.12 1.57-1.06 3.39-2.77 4.34-4.11l1.35.53h-.01zm11.62 7.15h-2.86v7.83c0 .87-.21 1.31-.83 1.54-.64.21-1.71.21-3.56.21-.06-.38-.25-.97-.46-1.37 1.35.04 2.6.04 2.96.02.36-.02.47-.09.47-.42v-7.81h-6.33v-1.34h10.61v1.34zm-.55-5.2h-9.25v-1.33h9.25v1.33zm19.17 1.92s-.02.53-.02.72c-.21 7.94-.38 10.57-1.02 11.37-.32.49-.7.64-1.27.7-.53.08-1.42.06-2.29 0-.04-.38-.19-.97-.4-1.33.91.08 1.74.09 2.1.09.32 0 .49-.06.68-.3.44-.55.66-3.05.85-9.93h-2.71c-.23 5.04-1.1 9.17-4.44 11.67-.21-.3-.7-.78-1.04-1 .3-.21.57-.44.83-.66-2.88.34-5.82.66-7.94.89l-.21-1.23c1.14-.09 2.56-.23 4.11-.38v-1.63h-3.58v-1.08h3.58v-1.16h-3.54v-5.63h3.54v-1.19H276v-1.1h4.09v-1.25c-1.21.09-2.44.17-3.56.21-.06-.3-.19-.76-.34-1.04 2.8-.15 6.22-.49 8.17-.93l.7 1.08c-1.02.23-2.31.4-3.7.55v1.38h4.02v1.1h-4.02v1.19h3.68v5.63h-3.68v1.16h3.71v1.08h-3.71v1.5c1.23-.11 2.52-.25 3.79-.4v.09c1.65-2.24 2.14-5.29 2.31-8.85h-2.22v-1.33h2.25c.04-1.33.04-2.71.04-4.15h1.33c0 1.42 0 2.82-.04 4.15h4.02l.02.01zm-15.14 3.45h2.39v-1.36h-2.39v1.36zm2.38 2.31v-1.38h-2.39v1.38h2.39zm1.27-3.68v1.36h2.48v-1.36h-2.48zm2.49 2.3h-2.48v1.38h2.48v-1.38zm26.07-1.05c-1.08 2.58-2.8 4.53-4.98 6.01 2.07 1.06 4.51 1.78 7.33 2.12-.3.34-.68.95-.87 1.36-3.05-.47-5.69-1.33-7.83-2.62-2.35 1.31-5.1 2.16-7.96 2.71-.13-.38-.51-1.02-.78-1.35 2.69-.44 5.25-1.14 7.45-2.24-1.8-1.31-3.2-2.97-4.23-5.02l.42-.15h-2.01v-1.38h6.33v-2.9h-7.18v-1.38h7.18v-2.88h1.44v2.88h7.22v1.38h-7.22v2.9h4.43l.28-.06.97.61.01.01zm-10.39.84c.95 1.78 2.31 3.26 4.09 4.42 1.8-1.14 3.26-2.58 4.25-4.42h-8.34zm20.478-8c-.57 1.42-1.23 2.82-2.01 4.13v12.56h-1.4v-10.39c-.61.85-1.27 1.63-1.91 2.29-.17-.32-.61-1.06-.87-1.38 1.93-1.84 3.73-4.72 4.81-7.66l1.38.44v.01zm11.01 5.04h-2.39v9.78c0 1.06-.3 1.5-1 1.71-.74.23-2.01.25-4.06.23-.08-.36-.34-1-.55-1.38 1.59.06 3.15.06 3.6.04.42-.04.59-.15.59-.59v-9.78h-7.64v-1.4h7.64v-3.98h1.42v3.98h2.39v1.4-.01zm-7.5 7.28c-.57-1.17-1.78-3.2-2.75-4.72l1.21-.57c.99 1.46 2.24 3.43 2.84 4.59l-1.31.7h.01zm12.252-10.65c-.59.81-1.27 1.55-1.95 2.12-.19-.25-.68-.7-.99-.95 1.17-.87 2.27-2.2 2.9-3.54l1.25.36c-.15.3-.3.59-.47.89h4.81v1.12h-5.55zm12.15 5.17h2.03v1.08h-2.03v2.29h-5.84v1.12h6.33v1.1h-6.33v1.19h7.56v1.12h-7.56v2.01h-1.4v-2.01h-7.39v-1.12h7.39v-1.19h-6.18v-1.1h6.18v-1.12h-5.61v-1.06h5.61v-1.23h-7.71v-1.08h7.71v-1.1h-5.46v-1.06h5.46v-1.04h1.4v1.04h5.84v2.16zm-10.29-5.13c.57.53 1.31 1.29 1.65 1.76l-.95.74c-.36-.49-1.06-1.27-1.63-1.86l.93-.64zm12.39-1.14v1.12h-6.59c-.49.68-1.06 1.31-1.63 1.78-.23-.23-.76-.64-1.06-.85 1.06-.8 2.01-2.03 2.54-3.32l1.31.34c-.13.32-.29.63-.46.93h5.89zm-7.94 6.27h4.43v-1.1h-4.43v1.1zm4.44 1.08h-4.43v1.23h4.43v-1.23zm.04-3.73c-.34-.51-1.04-1.27-1.65-1.84l.99-.64c.57.51 1.31 1.25 1.67 1.72l-1 .76h-.01zm8.159-2.52c-.59.81-1.27 1.55-1.95 2.12-.19-.25-.68-.7-.99-.95 1.17-.87 2.27-2.2 2.9-3.54l1.25.36c-.15.3-.3.59-.47.89h4.81v1.12h-5.55zm12.14 5.17h2.03v1.08h-2.03v2.29h-5.84v1.12h6.33v1.1h-6.33v1.19h7.56v1.12h-7.56v2.01h-1.4v-2.01h-7.39v-1.12h7.39v-1.19h-6.18v-1.1h6.18v-1.12h-5.61v-1.06h5.61v-1.23h-7.71v-1.08h7.71v-1.1h-5.46v-1.06h5.46v-1.04h1.4v1.04h5.84v2.16zm-10.29-5.13c.57.53 1.31 1.29 1.65 1.76l-.95.74c-.36-.49-1.06-1.27-1.63-1.86l.93-.64zm12.4-1.14v1.12h-6.59c-.49.68-1.06 1.31-1.63 1.78-.23-.23-.76-.64-1.06-.85 1.06-.8 2.01-2.03 2.54-3.32l1.31.34c-.13.32-.29.63-.46.93h5.89zm-7.94 6.27h4.43v-1.1h-4.43v1.1zm4.43 1.08h-4.43v1.23h4.43v-1.23zm.04-3.73c-.34-.51-1.04-1.27-1.65-1.84l.99-.64c.57.51 1.31 1.25 1.67 1.72l-1 .76h-.01zm22.224 8.92h-7.69v2.2c0 .78-.23 1.1-.89 1.31-.64.17-1.74.17-3.43.17-.08-.38-.3-.83-.47-1.17 1.27.04 2.56.04 2.88.02.36-.02.46-.09.46-.36v-2.16h-7.62v-1.23h7.62v-1.14c1.27-.26 2.67-.66 3.85-1.14h-9.7v-1.16h11.94l.3-.08.95.8c-1.61.93-3.77 1.71-5.88 2.22v.49h7.69v1.23h-.01zm-.22-10.8h-16.37v-1.23h7.6c-.19-.49-.44-1.06-.66-1.5l1.4-.28c.3.53.62 1.23.83 1.78h7.2v1.23zm-13.99 5.01v-3.79h11.75v3.79h-11.75zm1.38-1.05h8.91v-1.71h-8.91v1.71z" fill="#58393E"/><path d="M389.931 338.25c-.18-.2-.18-.46-.02-.69l1.08-1.48c.22-.31.55-.33.84-.09.84.66 1.77 1.08 2.78 1.08 1.46 0 2.39-.6 2.39-1.77 0-1.26-.62-2.05-3.42-2.14-.33 0-.55-.22-.55-.55v-1.52c0-.33.22-.55.55-.57 2.21-.11 2.94-.88 2.94-2.03 0-1.06-.62-1.66-1.77-1.66-.88 0-1.59.35-2.36.95-.26.2-.57.18-.79-.09l-1.17-1.44c-.22-.24-.2-.55.07-.75 1.33-1.02 2.76-1.59 4.42-1.59 3.25 0 5.37 1.5 5.37 4.31 0 1.55-.84 2.76-2.52 3.42v.11c1.72.53 3 1.79 3 3.8 0 2.92-2.65 4.55-5.77 4.55-2.28 0-3.93-.73-5.06-1.86l-.01.01zm12.87-9.23c0-2.45 1.41-4.22 3.54-4.22s3.51 1.77 3.51 4.22c0 2.45-1.41 4.2-3.51 4.2-2.1 0-3.54-1.79-3.54-4.2zm4.84 0c0-1.24-.53-2.1-1.3-2.1s-1.33.86-1.33 2.1c0 1.24.53 2.08 1.33 2.08s1.3-.88 1.3-2.08zm-1 10.8l7.53-14.87h3.14l-7.51 14.87h-3.16zm7.51-4c0-2.45 1.41-4.24 3.54-4.24s3.51 1.79 3.51 4.24-1.41 4.2-3.51 4.2c-2.1 0-3.54-1.79-3.54-4.2zm4.84 0c0-1.26-.53-2.12-1.3-2.12s-1.33.86-1.33 2.12c0 1.26.53 2.08 1.33 2.08s1.3-.91 1.3-2.08z" fill="#D93636"/><path d="M439.077 323.97v16.51h-1.5v-1.02h-12.79v1.02h-1.42v-16.51h15.71zm-1.5 14.15v-12.75h-12.79v12.75h12.79zm-2.75-9.81v6.84h-7.32v-6.84h7.32zm-1.38 1.27h-4.59v4.32h4.59v-4.32zm14.64-2.64c-.59-.51-1.72-1.29-2.71-1.91-.97 1.27-2.18 2.44-3.39 3.28-.09-.28-.42-.97-.62-1.23 1.48-.95 3.05-2.45 3.9-4.04l1.16.4c-.11.21-.25.42-.38.64.95.57 2.08 1.31 2.69 1.78l-.64 1.08h-.01zm-.45 12.98c-.15-.42-.38-.93-.66-1.52-3.71 1.54-4.23 1.8-4.57 2.07-.08-.3-.28-.91-.49-1.19.29-.11.68-.38.68-1.06v-9.32h5.42v6.33h-4.17v3.24l2.65-1.02c-.25-.51-.51-.99-.76-1.44l.99-.4c.7 1.19 1.57 2.84 1.97 3.77l-1.06.55v-.01zm-3.79-9.96v1.5h2.92v-1.5h-2.92zm2.92 4.18v-1.63h-2.92v1.63h2.92zm-2.85-7.42h3.2v1.02h-3.2v-1.02zm9.02 11.23c-.82.99-2.18 1.97-3.37 2.56-.19-.27-.68-.74-.97-.97 1.14-.49 2.37-1.19 3.07-2.01l1.27.42zm.14-10.42h-3.53v-3.13h3.53v-1.25h1.29v1.25h3.62v3.13h-3.62v.93h4.43v1.08h-10.14v-1.08h4.42v-.93zm-3.47 9.76v-6.9h8.26v6.9h-8.26zm3.47-10.69v-1.29h-2.33v1.29h2.33zm-2.2 5.78h5.67v-1.08h-5.67v1.08zm0 1.99h5.67v-1.12h-5.67v1.12zm0 2.03h5.67v-1.16h-5.67v1.16zm3.48-11.09v1.29h2.37v-1.29h-2.37zm1.07 12.08c1.27.74 2.65 1.67 3.51 2.37l-1.02.76c-.8-.7-2.12-1.67-3.32-2.41l.83-.72z" fill="#58393E"/><path d="M234.47 315.81h-91.58c-8.776 0-15.89 7.112-15.89 15.885s7.114 15.885 15.89 15.885h91.58c8.776 0 15.89-7.112 15.89-15.885s-7.114-15.885-15.89-15.885z" fill="#5975CE"/><path d="M183.152 335.31c-.47 1.36-1.25 2.92-1.91 3.88-.34-.28-1.06-.78-1.48-1.02.64-.89 1.27-2.18 1.67-3.35l1.72.49zm2.65-1.1v6.29h-2.18v-6.29h-3.53v-1.9h3.53v-1.46h-3.64v-1.86h1.84c-.09-.57-.32-1.38-.55-1.97l1.55-.38h-2.56v-1.84h3.24c-.17-.51-.38-1.04-.57-1.5l2.25-.55c.28.63.63 1.4.85 2.05h2.71v1.84h-2.37l1.54.3c-.28.72-.57 1.46-.85 2.05h1.97v1.86h-3.24v1.46h2.94v1.9h-2.94.01zm-2.73-7.56c.28.62.53 1.44.62 1.97l-1.36.38h2.73c.28-.68.62-1.65.81-2.35h-2.8zm14.42 4.6h-1.76v9.31h-2.2v-9.31h-1.76v.23c0 2.79-.25 6.69-1.86 9.12-.38-.4-1.27-1.12-1.74-1.35.36-.55.64-1.18.85-1.84l-1.34.83c-.3-.76-.95-1.97-1.48-2.84l1.48-.8c.51.76 1.1 1.76 1.42 2.48.53-1.82.59-3.87.59-5.61v-6.75c2.07-.38 4.36-.97 5.74-1.61l1.72 1.65c-1.55.63-3.53 1.08-5.38 1.42v2.98h5.72v2.09zm18.105 6.71c0 1.1-.19 1.71-.87 2.08-.64.38-1.61.44-3.01.44-.08-.62-.38-1.63-.66-2.22.81.06 1.71.04 1.99.02.28 0 .38-.09.38-.36v-3.7h-2.97c-.28 2.31-.87 4.72-2.14 6.48-.4-.36-1.31-.93-1.84-1.16-.11.13-.25.25-.42.34-.59.34-1.44.4-2.65.4-.06-.57-.34-1.48-.61-2.01.66.04 1.38.04 1.63.04.23-.02.3-.09.3-.34v-3.75h-2.54c-.23 2.29-.74 4.7-1.84 6.44-.4-.34-1.29-.91-1.82-1.14 1.61-2.48 1.72-6.18 1.72-8.95v-6.82h6.58v14.21c0 .51-.04.91-.15 1.23 1.71-2.63 1.86-6.31 1.86-9.08v-6.37h7.07v14.19l-.01.03zm-10.87-5.74v-2.24h-2.39v.59c0 .53 0 1.06-.04 1.65h2.43zm-2.39-6.41v2.18h2.39v-2.18h-2.39zm11.08 6.41v-2.24h-2.75v.15c0 .64-.02 1.35-.06 2.08h2.8l.01.01zm-2.74-6.41v2.18h2.75v-2.18h-2.75zm22.522 4.65c-.7 2.56-1.84 4.57-3.33 6.16 1.52.87 3.32 1.52 5.44 1.9-.49.47-1.16 1.44-1.46 2.05-2.27-.49-4.17-1.29-5.78-2.39-1.46 1.06-3.17 1.88-5.02 2.44-.29-.57-.83-1.46-1.27-1.91 1.67-.42 3.2-1.1 4.51-2.01-.99-1.02-1.84-2.2-2.52-3.58-.87 2.5-2.18 4.98-4.23 6.84-.47-.59-1.19-1.17-1.93-1.59 3.28-2.69 4.53-6.97 5.04-10.42h-4.32v-2.2h4.59c.09-1.23.11-2.24.15-2.82h2.35c-.04.68-.08 1.67-.19 2.82h9.57v2.2h-9.82c-.09.63-.21 1.27-.36 1.95h6.63l.42-.09 1.54.66-.01-.01zm-7.69 1.61c.64 1.21 1.46 2.29 2.5 3.18.89-.89 1.65-1.97 2.18-3.18h-4.68zm-67.131-3.69c-.3 2.79-.801 5.16-1.631 7.14.74 1.44 1.721 2.6 2.991 3.35-.44.32-.991 1.04-1.271 1.54-1.14-.76-2.01-1.76-2.75-2.99-.85 1.35-1.97 2.44-3.39 3.35-.13-.32-.509-.93-.849-1.36l-1.21 1.04c-.64-.42-1.5-.87-2.45-1.31-1.25.57-2.96 1.06-5.31 1.4-.15-.44-.531-1.08-.82-1.44 1.669-.23 2.98-.51 4-.85-.85-.34-1.72-.64-2.52-.87.27-.3.569-.68.829-1.1l-1.709.09-.17-1.5c.83-.04 1.82-.08 2.92-.13.25-.38.47-.8.66-1.18h-2.79v-3.43h3.39v-.53h-2.88v-1.99h-1.44v-1.59h1.44v-1.91h2.88v-1.16h1.71v1.16h3.05v1.91h1.29v1.59h-1.29v1.99h-3.05v.53h3.47v1.38c1.25-2.03 1.88-5.25 2.22-8.51l1.89.25c-.13 1.06-.28 2.12-.49 3.15h4.49v1.97h-1.231l.021.01zm-13.61 3.83h1.55v-.7h-1.55v.7zm.53-6.67v.61h1.02v-.61h-1.02zm1.029 2.65v-.68h-1.019v.68h1.019zm-.509 8.49c.63.21 1.269.44 1.899.68.7-.42 1.101-.89 1.331-1.35l-2.88.15-.341.51-.009.01zm5.149-.77c-.17.76-.589 1.52-1.439 2.24.68.3 1.29.61 1.82.87 1.52-.89 2.619-2.08 3.369-3.62-.44-1.14-.809-2.41-1.119-3.77-.21.49-.45.97-.72 1.38-.28-.34-.971-1.06-1.381-1.38v1.95h-3.789c-.19.36-.4.72-.61 1.1l2.22-.11v-.66h1.759v.59l.611-.04-.02 1.42-.701.04v-.01zm-2.939-10.37v.61h1.1v-.61h-1.1zm1.1 2.65v-.68h-1.1v.68h1.1zm-1.1 3.32v.7h1.52v-.7h-1.52zm6.67-3.13c.23 1.61.55 3.15.97 4.55.4-1.35.64-2.86.81-4.55h-1.78zm13.382-.81c-.64 1.36-1.4 2.67-2.29 3.88v9.17h-2.27v-6.61c-.57.51-1.14.97-1.78 1.4-.23-.59-.72-1.59-1.06-2.16 2.05-1.34 3.7-3.41 4.85-5.68h-4.17v-2.16h5.14c.3-.83.57-1.65.78-2.46l2.35.57c-.19.64-.42 1.25-.64 1.89h9.21v2.16h-10.12zm10.38 8.34h-4.49v2.37c0 1.14-.19 1.72-1 2.07-.8.3-1.91.34-3.43.32-.08-.64-.34-1.52-.63-2.16.95.06 2.07.06 2.37.06.32-.02.42-.09.42-.34v-2.31h-4.81v-2.1h4.81v-1.33c.59-.36 1.21-.87 1.8-1.4h-5.14v-2.03h7.2l.47-.13 1.42 1.16a23.93 23.93 0 01-3.49 3.01v.72h4.49v2.1l.01-.01z" fill="#fff"/></g><mask id="mask2_1280_9287" style="mask-type:luminance" maskUnits="userSpaceOnUse" x="0" y="0" width="466" height="267"><path d="M465.31 0H0v266.66h465.31V0z" fill="#fff"/></mask><g mask="url(#mask2_1280_9287)"><path d="M91.95 5.81c-.08-.04-.16-.07-.24-.11v.01c.08.03.15.07.23.1h.01z" fill="#F9BA55"/><path d="M272.428 17.98c-1.65 0-3.03 1.85-3.03 4.47 0 2.47 1.36 4.47 3.03 4.47 1.67 0 3.03-2 3.03-4.47 0-2.63-1.34-4.47-3.03-4.47zm24.373 2.72v.07s.02-.04 0-.07zm77.217-2.72c-1.65 0-3.03 1.85-3.03 4.47 0 2.47 1.36 4.47 3.03 4.47 1.67 0 3.03-2 3.03-4.47 0-2.63-1.34-4.47-3.03-4.47zm24.373 2.72v.07s.02-.04 0-.07z" fill="#58393E"/><path d="M453.02 11.17c-1.18 0-2.46.36-3.79 1.07l-2.19 1.15c-1.07-1.2-2.7-1.94-4.59-1.94h-7.48c-1.93 0-3.5 1.57-3.5 3.5v3c0 1.69 1.2 3.1 2.79 3.43-.05.29-.08.57-.08.87v.11c0 .25.03.49.08.73l-1.13.6c-.87-.59-1.91-.93-3.03-.93-.56 0-1.1.08-1.6.24-.3-.92-.75-1.77-1.33-2.49.8-1.13 1.21-2.31 1.21-3.53 0-3.15-2.56-5.53-5.95-5.53h-7.48c-1.93 0-3.5 1.57-3.5 3.5v3c0 1.69 1.2 3.1 2.79 3.43-.05.28-.08.57-.08.87v.1c0 .25.03.49.08.73l-1.13.6a5.372 5.372 0 00-4.25-.79c-.28-1.08-.73-2.06-1.39-2.86.52-.61.83-1.4.83-2.26v-2.83c0-1.93-1.57-3.5-3.5-3.5h-9.24c-1.07 0-2.01.49-2.65 1.24-1.41-.96-3.14-1.53-5.05-1.53-2.69 0-5.15 1.11-6.93 3-1.74-1.88-4.13-3-6.89-3s-5.31 1.18-7.06 3.17c-1.55-1.94-4.01-3.17-6.83-3.17-3.82 0-7.19 2.2-8.8 5.75-.18.41-.28.83-.31 1.26h-7.81c-.45 0-.87.09-1.26.24v-1.66c0-3.24-2.27-5.59-5.39-5.59-1.18 0-2.46.36-3.79 1.07l-4.14 2.18a3.5 3.5 0 00-1.52 4.62l1.49 3.09c.41.86 1.16 1.51 2.06 1.81.34.11.69.17 1.04.17v2.8c-.59-2.38-2.72-4.14-5.27-4.14-.88 0-1.71.21-2.44.58v-6.59c0-3.24-2.27-5.59-5.39-5.59-1.18 0-2.46.36-3.79 1.07l-4.14 2.18a3.5 3.5 0 00-1.52 4.62l1.49 3.09a3.498 3.498 0 003.11 1.98v2.8c-.59-2.38-2.72-4.14-5.27-4.14-.42 0-.82.05-1.22.14-.28-1.08-.73-2.06-1.39-2.86.52-.61.83-1.4.83-2.26v-2.83c0-1.93-1.57-3.5-3.5-3.5h-9.24c-1.07 0-2.01.49-2.65 1.24-1.41-.96-3.14-1.53-5.05-1.53-2.69 0-5.15 1.11-6.93 3-1.74-1.88-4.13-3-6.89-3s-5.31 1.18-7.06 3.17c-1.55-1.94-4.01-3.17-6.83-3.17-3.82 0-7.19 2.2-8.8 5.75-.75 1.65-.11 3.6 1.47 4.49l1.89 1.06-.77.67c-1.92 1.63-2.33 3.53-2.33 4.83 0 3.11 2.51 5.46 5.84 5.46h8.15c1.2 0 2.26-.61 2.89-1.53a9.159 9.159 0 005.55 1.84c2.47 0 4.68-.94 6.37-2.54 1.04 1.36 2.75 2.23 4.76 2.23h8.15c.87 0 1.66-.33 2.27-.86 1.39.74 3.01 1.15 4.76 1.15 2.19 0 4.15-.7 5.66-1.88a5.45 5.45 0 004.07 1.84c2.54 0 4.68-1.77 5.27-4.14v.4c0 1.93 1.57 3.5 3.5 3.5h3.25c.96 0 1.83-.39 2.46-1.01.95.79 2.16 1.26 3.48 1.26 2.55 0 4.68-1.77 5.27-4.14v.4c0 1.93 1.57 3.5 3.5 3.5h3.25c1.93 0 3.5-1.57 3.5-3.5v-2.18c.39.15.82.24 1.26.24h8.19c.07 0 .13-.02.2-.02 0 3.11 2.51 5.45 5.84 5.45h8.15c1.2 0 2.26-.61 2.89-1.53a9.159 9.159 0 005.55 1.84c2.47 0 4.68-.94 6.37-2.54 1.04 1.36 2.75 2.23 4.76 2.23h8.15c.87 0 1.66-.33 2.27-.86 1.39.74 3.01 1.15 4.76 1.15 2.19 0 4.15-.7 5.66-1.88a5.45 5.45 0 004.07 1.84c1.62 0 3.02-.69 4.01-1.79 1.61 1.19 3.62 1.86 5.89 1.86 2.27 0 4.39-.76 5.94-2.03 1 1.2 2.51 1.96 4.19 1.96 1.59 0 3.02-.69 4.01-1.79 1.61 1.19 3.62 1.86 5.89 1.86 3.75 0 6.82-1.95 8.16-4.88v1.07c0 1.93 1.57 3.5 3.5 3.5h3.25c1.93 0 3.5-1.57 3.5-3.5V16.75c0-3.24-2.27-5.59-5.39-5.59l-.03.01zM255.84 29.94c-1.56 0-2.34-.89-2.34-1.96 0-.85.36-1.54 1.09-2.16l4.03-3.52c1.11-1 1.71-1.71 1.71-2.78 0-.98-.82-1.8-2.07-1.8s-2.31.89-2.85 2.05l-2.49-1.4c.96-2.11 2.96-3.69 5.61-3.69 2.98 0 5.05 2.07 5.05 4.56 0 1.89-.76 3.25-2.14 4.45l-3.69 3.25h6.23v3h-8.15.01zm16.59.31c-3.81 0-6.37-3.43-6.37-7.79 0-4.36 2.56-7.79 6.37-7.79s6.37 3.27 6.37 7.79-2.54 7.79-6.37 7.79zm11.13-.31c-1.56 0-2.34-.89-2.34-1.96 0-.85.36-1.54 1.09-2.16l4.03-3.52c1.11-1 1.71-1.71 1.71-2.78 0-.98-.82-1.8-2.07-1.8s-2.31.89-2.85 2.05l-2.49-1.4c.96-2.11 2.96-3.69 5.61-3.69 2.98 0 5.05 2.07 5.05 4.56 0 1.89-.76 3.25-2.14 4.45l-3.69 3.25h6.23v3h-8.15.01zm15.18.29c-2.4 0-4.36-1.07-5.3-2.92l2.65-1.67c.49 1.11 1.45 1.76 2.65 1.76s2.14-.85 2.14-1.98c0-1.36-.89-1.94-2.36-1.94h-2.11c-1.54 0-2.45-.91-2.45-2.43v-6.1h9.24v2.83l-6.39.02v2.89h2.25c3.12 0 5.01 1.45 5.01 4.52 0 3.07-2.18 5.01-5.32 5.01l-.01.01zm9.72-.05c-1.09 0-1.96-.89-1.96-1.96 0-1.07.87-1.96 1.96-1.96 1.09 0 1.94.89 1.94 1.96 0 1.07-.87 1.96-1.94 1.96zm12.02-.24h-3.25V18.77s-.04.02-.07.04l-3.38 1.8-1.49-3.09 4.14-2.18c.71-.38 1.49-.67 2.16-.67 1.14 0 1.89.76 1.89 2.09v13.18zm5.95.24c-1.09 0-1.96-.89-1.96-1.96 0-1.07.87-1.96 1.96-1.96 1.09 0 1.94.89 1.94 1.96 0 1.07-.87 1.96-1.94 1.96zm12.02-.24h-3.25V18.77s-.04.02-.07.04l-3.38 1.8-1.49-3.09 4.14-2.18c.71-.38 1.49-.67 2.16-.67 1.14 0 1.89.76 1.89 2.09v13.18zm12.95-5.43h-8.19v-2.83h8.19v2.83zm6.03 5.43c-1.56 0-2.34-.89-2.34-1.96 0-.85.36-1.54 1.09-2.16l4.03-3.52c1.11-1 1.71-1.71 1.71-2.78 0-.98-.82-1.8-2.07-1.8s-2.31.89-2.85 2.05l-2.49-1.4c.96-2.11 2.96-3.69 5.61-3.69 2.98 0 5.05 2.07 5.05 4.56 0 1.89-.76 3.25-2.14 4.45l-3.69 3.25h6.23v3h-8.15.01zm16.59.31c-3.81 0-6.37-3.43-6.37-7.79 0-4.36 2.56-7.79 6.37-7.79s6.37 3.27 6.37 7.79-2.54 7.79-6.37 7.79zm8.79-2.27c0-.85.36-1.54 1.09-2.16l4.03-3.52c1.11-1 1.71-1.71 1.71-2.78 0-.98-.82-1.8-2.07-1.8s-2.31.89-2.85 2.05l-2.49-1.4c.96-2.11 2.96-3.69 5.61-3.69 2.98 0 5.05 2.07 5.05 4.56 0 1.89-.76 3.25-2.14 4.45l-3.69 3.25h6.23v3h-8.15c-1.56 0-2.34-.89-2.34-1.96h.01zm17.52 2.25c-2.4 0-4.36-1.07-5.3-2.92l2.65-1.67c.49 1.11 1.45 1.76 2.65 1.76s2.14-.85 2.14-1.98c0-1.36-.89-1.94-2.36-1.94H398c-1.54 0-2.45-.91-2.45-2.43v-6.1h9.24v2.83l-6.39.02v2.89h2.25c3.12 0 5.01 1.45 5.01 4.52 0 3.07-2.18 5.01-5.32 5.01l-.01.01zm9.73-.05c-1.09 0-1.96-.89-1.96-1.96 0-1.07.87-1.96 1.96-1.96 1.09 0 1.94.89 1.94 1.96 0 1.07-.87 1.96-1.94 1.96zm9.9.07c-2.52 0-4.5-1.09-5.54-3.29l2.8-1.49c.49 1.22 1.54 1.85 2.78 1.85 1.24 0 2.18-.78 2.18-1.91 0-1.07-.87-1.74-2.11-1.74h-.8c-1 0-1.6-.67-1.62-1.4 0-.53.29-1.02.76-1.51l2.6-2.58c.07-.04.11-.07.11-.16 0-.04-.04-.04-.09-.04h-6.1v-3h7.48c1.6 0 2.45.94 2.45 2.03 0 .69-.38 1.38-1.05 2.09l-2.29 2.31h.29c1.91 0 3.56 1.71 3.56 4.05 0 2.76-2.23 4.81-5.41 4.81v-.02zm10.13-.07c-1.09 0-1.96-.89-1.96-1.96 0-1.07.87-1.96 1.96-1.96 1.09 0 1.94.89 1.94 1.96 0 1.07-.87 1.96-1.94 1.96zm9.9.07c-2.52 0-4.5-1.09-5.54-3.29l2.8-1.49c.49 1.22 1.54 1.85 2.78 1.85 1.24 0 2.18-.78 2.18-1.91 0-1.07-.87-1.74-2.11-1.74h-.8c-1 0-1.6-.67-1.62-1.4 0-.53.29-1.02.76-1.51l2.6-2.58c.07-.04.11-.07.11-.16 0-.04-.04-.04-.09-.04h-6.1v-3h7.48c1.6 0 2.45.94 2.45 2.03 0 .69-.38 1.38-1.05 2.09l-2.29 2.31h.29c1.91 0 3.56 1.71 3.56 4.05 0 2.76-2.23 4.81-5.41 4.81v-.02zm14.92-.31h-3.25V18.77s-.04.02-.07.04l-3.38 1.8-1.49-3.09 4.14-2.18c.71-.38 1.49-.67 2.16-.67 1.14 0 1.89.76 1.89 2.09v13.18z" fill="#58393E"/><path d="M263.99 26.93h-6.23l3.69-3.25c1.38-1.2 2.14-2.56 2.14-4.45 0-2.49-2.07-4.56-5.05-4.56-2.65 0-4.65 1.58-5.61 3.69l2.49 1.4c.53-1.16 1.58-2.05 2.85-2.05s2.07.82 2.07 1.8c0 1.07-.6 1.78-1.71 2.78l-4.03 3.52c-.73.62-1.09 1.31-1.09 2.16 0 1.07.78 1.96 2.34 1.96H264v-3h-.01zm14.801-4.47c0-4.52-2.54-7.79-6.37-7.79s-6.37 3.27-6.37 7.79 2.56 7.79 6.37 7.79 6.37-3.43 6.37-7.79zm-6.36 4.47c-1.67 0-3.03-2-3.03-4.47 0-2.63 1.38-4.47 3.03-4.47s3.03 1.85 3.03 4.47c0 2.47-1.36 4.47-3.03 4.47zm19.27 3.01v-3h-6.23l3.69-3.25c1.38-1.2 2.14-2.56 2.14-4.45 0-2.49-2.07-4.56-5.05-4.56-2.65 0-4.65 1.58-5.61 3.69l2.49 1.4c.53-1.16 1.58-2.05 2.85-2.05s2.07.82 2.07 1.8c0 1.07-.6 1.78-1.71 2.78l-4.03 3.52c-.73.62-1.09 1.31-1.09 2.16 0 1.07.78 1.96 2.34 1.96h8.15-.01zm7.349-9.24h-2.25v.07-2.96l6.39-.02v-2.83h-9.24v6.1c0 1.51.91 2.43 2.45 2.43h2.11c1.47 0 2.36.58 2.36 1.94 0 1.13-.91 1.98-2.14 1.98s-2.16-.65-2.65-1.76l-2.65 1.67c.93 1.85 2.89 2.92 5.3 2.92 3.14 0 5.32-2.07 5.32-5.01s-1.89-4.52-5.01-4.52l.01-.01zm9.41 5.56c-1.09 0-1.96.89-1.96 1.96 0 1.07.87 1.96 1.96 1.96 1.09 0 1.94-.89 1.94-1.96 0-1.07-.87-1.96-1.94-1.96zm10.129-11.59c-.67 0-1.45.29-2.16.67l-4.14 2.18 1.49 3.09 3.38-1.8s.04-.04.07-.04v11.17h3.25V16.76c0-1.33-.76-2.09-1.89-2.09zm7.844 11.59c-1.09 0-1.96.89-1.96 1.96 0 1.07.87 1.96 1.96 1.96 1.09 0 1.94-.89 1.94-1.96 0-1.07-.87-1.96-1.94-1.96zm10.129-11.59c-.67 0-1.45.29-2.16.67l-4.14 2.18 1.49 3.09 3.38-1.8s.04-.04.07-.04v11.17h3.25V16.76c0-1.33-.76-2.09-1.89-2.09zm14.839 7.01h-8.19v2.83h8.19v-2.83zm14.179 5.25h-6.23l3.69-3.25c1.38-1.2 2.14-2.56 2.14-4.45 0-2.49-2.07-4.56-5.05-4.56-2.65 0-4.65 1.58-5.61 3.69l2.49 1.4c.53-1.16 1.58-2.05 2.85-2.05s2.07.82 2.07 1.8c0 1.07-.6 1.78-1.71 2.78l-4.03 3.52c-.73.62-1.09 1.31-1.09 2.16 0 1.07.78 1.96 2.34 1.96h8.15v-3h-.01zm14.801-4.47c0-4.52-2.54-7.79-6.37-7.79s-6.37 3.27-6.37 7.79 2.56 7.79 6.37 7.79 6.37-3.43 6.37-7.79zm-6.36 4.47c-1.67 0-3.03-2-3.03-4.47 0-2.63 1.38-4.47 3.03-4.47s3.03 1.85 3.03 4.47c0 2.47-1.36 4.47-3.03 4.47zm19.269 3.01v-3h-6.23l3.69-3.25c1.38-1.2 2.14-2.56 2.14-4.45 0-2.49-2.07-4.56-5.05-4.56-2.65 0-4.65 1.58-5.61 3.69l2.49 1.4c.53-1.16 1.58-2.05 2.85-2.05s2.07.82 2.07 1.8c0 1.07-.6 1.78-1.71 2.78l-4.03 3.52c-.73.62-1.09 1.31-1.09 2.16 0 1.07.78 1.96 2.34 1.96h8.15-.01zm7.35-9.24h-2.25v.07-2.96l6.39-.02v-2.83h-9.24v6.1c0 1.51.91 2.43 2.45 2.43h2.11c1.47 0 2.36.58 2.36 1.94 0 1.13-.91 1.98-2.14 1.98s-2.16-.65-2.65-1.76l-2.65 1.67c.93 1.85 2.89 2.92 5.3 2.92 3.14 0 5.32-2.07 5.32-5.01s-1.89-4.52-5.01-4.52l.01-.01zm11.35 7.52c0-1.07-.87-1.96-1.94-1.96-1.07 0-1.96.89-1.96 1.96 0 1.07.87 1.96 1.96 1.96 1.09 0 1.94-.89 1.94-1.96zm13.382-2.78c0-2.34-1.65-4.05-3.56-4.05h-.29l2.29-2.31c.67-.71 1.05-1.4 1.05-2.09 0-1.09-.85-2.03-2.45-2.03h-7.48v3h6.1s.09 0 .09.04c0 .09-.04.11-.11.16l-2.6 2.58c-.47.49-.76.98-.76 1.51.02.73.62 1.4 1.62 1.4h.8c1.25 0 2.11.67 2.11 1.74 0 1.13-.96 1.91-2.18 1.91-1.22 0-2.29-.62-2.78-1.85l-2.8 1.49c1.05 2.2 3.03 3.29 5.54 3.29 3.18 0 5.41-2.05 5.41-4.81v.02zm6.661 2.78c0-1.07-.87-1.96-1.94-1.96-1.07 0-1.96.89-1.96 1.96 0 1.07.87 1.96 1.96 1.96 1.09 0 1.94-.89 1.94-1.96zm9.806-6.83h-.29l2.29-2.31c.67-.71 1.05-1.4 1.05-2.09 0-1.09-.85-2.03-2.45-2.03h-7.48v3h6.1s.09 0 .09.04c0 .09-.04.11-.11.16l-2.6 2.58c-.47.49-.76.98-.76 1.51.02.73.62 1.4 1.62 1.4h.8c1.25 0 2.11.67 2.11 1.74 0 1.13-.96 1.91-2.18 1.91-1.22 0-2.29-.62-2.78-1.85l-2.8 1.49c1.05 2.2 3.03 3.29 5.54 3.29 3.18 0 5.41-2.05 5.41-4.81 0-2.34-1.65-4.05-3.56-4.05v.02zm11.184-6.72c-.67 0-1.45.29-2.16.67l-4.14 2.18 1.49 3.09 3.38-1.8s.04-.04.07-.04v11.17h3.25V16.76c0-1.33-.76-2.09-1.89-2.09z" fill="#fff"/><path d="M452.77 232.81c-.27-.56-.27-1.21.01-1.77l9.83-19.85a8.97 8.97 0 00-.42-8.76 9.006 9.006 0 00-4.32-3.62c-.19-.47-.41-.93-.68-1.38a8.96 8.96 0 00-7.66-4.26h-67.99v-1.46c0-1.54-.77-2.88-1.95-3.65.1-.38.16-.77.16-1.19v-3.99a4.33 4.33 0 001.32-3.14v-1.72c0-.7-.16-1.36-.44-1.94.03-.19.04-.39.04-.59v-8.38c0-2.44-1.91-4.35-4.34-4.35h-.66v-.65c0-2.44-1.91-4.35-4.34-4.35h-.74c-.77-1.19-2.1-1.96-3.65-1.96h-1.69c-.54 0-1.05.09-1.52.26-.47-.17-.98-.26-1.52-.26h-1.69c-1.55 0-2.89.77-3.65 1.96h-.5c-.58 0-1.14.11-1.64.31-.5-.2-1.06-.31-1.64-.31h-8.58c-2.22 0-3.99 1.6-4.28 3.73l-.09-.03c.05-.6 0-1.2-.21-1.77-.45-1.25-1.48-2.22-2.89-2.66l-2.17-.65c1.35.29 2.72.44 4.13.44 11.02 0 16.8-4.29 20.02-16.13 1.04 2.06 1.96 4.21 2.6 6.15.76 2.28 2.51 3.82 4.74 4.28.09.24.18.49.26.72.97 2.93 3.59 4.66 6.75 4.42 15.65-1.64 28.72-4.2 39.95-7.82 11.25 3.98 24.04 6.61 39.1 8.05l.56.02c2.37 0 4.64-1.33 5.79-3.39l.1-.19c1.18-2.47 2.89-5.35 4.72-7.92 2.28-3.3 1.92-5.72 1.22-7.17-.58-1.19-1.84-2.6-4.49-3.18-.07-.72-.27-1.33-.51-1.82-.7-1.43-2.34-3.18-6.24-3.43-2-.16-3.96-.35-5.89-.55 2.9-2.86 5.38-5.82 7.49-8.94 1.01-1.39 1.4-3.03 1.09-4.64-.33-1.72-1.4-3.22-3.07-4.25l-2.04-1.21h7.03c3.61 0 6.34-2.73 6.34-6.34v-3.86c0-2.94-1.81-5.3-4.43-6.07.3-.75.46-1.57.46-2.45v-3.18c0-1.67-.58-3.15-1.56-4.26.98-1.11 1.56-2.59 1.56-4.26v-3.18c0-1.01-.21-1.95-.6-2.78 2.14-1 3.55-3.14 3.55-5.74v-3.75c0-3.19-2.13-5.69-5.11-6.23-.54-2.99-3.04-5.11-6.23-5.11h-.28c-.71-.86-1.88-1.76-3.8-2.17-.06-.55-.2-1.08-.42-1.59-.46-1.02-1.68-2.83-4.7-3.44l-6.52-1.03c-2.52-.52-4.96.51-6.41 2.6-.81-.98-1.93-1.7-3.27-2.07l-6.43-1.92-.27-.07c-3.31-.71-6.33.89-7.5 3.94a73.201 73.201 0 01-3.96 8.33 5.25 5.25 0 00-.43-.53 4.59 4.59 0 00-.21-.6c-.43-1.01-1.59-2.79-4.62-3.42a5.37 5.37 0 00-.38-1.58c-.43-1.02-1.6-2.82-4.68-3.43l-6.59-1.25-.12-.02c-3.1-.48-5.87 1.07-7.06 3.93l-.06.17s-.01.03-.02.05c-.09-.25-.2-.49-.32-.73-.81-1.55-2.29-2.66-4.08-3.11l-6.21-1.69c-3.26-.93-6.52.72-7.76 3.96-2.15 5.76-5.21 11.17-8.74 15.6-.64-.39-1.36-.67-2.14-.82-.3-1.63-1.19-3-2.46-3.92-.37-1.19-1.12-2.26-2.2-3.08-.87-.7-1.85-1.44-2.9-2.19a6.298 6.298 0 00-2.1-2.81c-3.44-2.77-8.48-6.07-13.51-8.85l-.13-.07c-2.49-1.25-5.39-.76-7.39 1.23l-3.98 3.98c-.75-2.68-3.14-4.54-6.14-4.54H303.4c-3.64 0-6.39 2.75-6.39 6.39 0 2.85.1 5.82.21 8.74H259.4c-3.64 0-6.39 2.75-6.39 6.39v30.03c0 15.29-.82 31.02-6.79 42.55-.05.11-.1.21-.14.32-.1-.03-.2-.05-.3-.07-.67-3.08-3.24-5.18-6.61-5.18h-.39c0-.14.02-.27.02-.41 3.09-.66 5.19-3.25 5.19-6.63v-18.17c0-1.06-.21-2.03-.59-2.9 3.37-.47 5.72-3.14 5.72-6.71v-6.71c0-2.46-1.12-4.5-2.92-5.68.85-1.13 1.34-2.57 1.34-4.19V46.59c0-3.37-2.1-5.95-5.18-6.61-.67-3.08-3.24-5.18-6.61-5.18h-58.32c-3.07 0-5.47 1.74-6.39 4.36-.92-2.63-3.32-4.36-6.39-4.36h-33.44c-3.94 0-6.79 2.86-6.79 6.79v8.82c0 3.37 2.1 5.95 5.18 6.61.21.95.59 1.8 1.13 2.52h-2.41c-3.94 0-6.79 2.86-6.79 6.79v9.08c0 2.89 1.55 5.2 3.93 6.22-1.54 1.21-2.48 3.11-2.48 5.37v10.4a6.656 6.656 0 00-2.11-2.54l-8.03-6.19-.19-.14c-1.68-1.12-3.85-1.5-5.69-1.01l-1.86.42H62.53c-3.94 0-6.79 2.86-6.79 6.79v10.14c0 3.37 2.1 5.95 5.18 6.61.67 3.08 3.24 5.18 6.61 5.18h16.78c-.23.29-.45.58-.69.88l-.12.12-.95.03c-3.63 0-6.26 2.58-6.26 6.13v7.3H62.04c.16-1.95.31-3.94.44-5.99.25-3.27-1.86-6.11-5.15-7.02-.57-2.48-2.55-4.45-5.31-5.09l-7.58-1.1-.79-.13-1.26-.04 1.76-9.71.03-.16c.25-1.88-.21-3.7-1.29-5.12-.94-1.24-2.28-2.1-3.83-2.47a6.58 6.58 0 00-1.17-2.53c-1.09-1.44-2.73-2.37-4.62-2.63l-10.51-1.07h-.1c-3.69-.27-6.74 2.21-7.26 5.84l-.73 4.76c-.67 4.38-1.37 8.9-2.13 13.47H6.88c-3.94 0-6.79 2.86-6.79 6.79v10.14c0 3.37 2.1 5.95 5.18 6.61a6.497 6.497 0 002.07 3.55c-2.13 10.52-4.22 19.59-6.2 26.96-.85 3.12.63 6.36 3.53 7.74l1.47.78a6.58 6.58 0 003.53 4.22l5.69 3.02c-2.89 3.55-6.07 6.52-9.62 8.97-2.52 1.68-3.29 3.66-3.49 5.02-.2 1.38-.03 3.52 1.95 5.93 1.98 2.38 3.93 5.1 5.35 7.46l.12.19c.97 1.4 2.24 2.35 3.62 2.83.45.68.88 1.34 1.26 1.98l.12.19c1.45 2.09 3.56 3.2 5.73 3.2 1.31 0 2.64-.41 3.86-1.25a70.12 70.12 0 0017.4-16.87c.59.6 1.23 1.08 1.9 1.44.99 1.06 1.84 2.05 2.54 2.96l.13.16c1.55 1.79 3.52 2.74 5.56 2.67 2.01-.07 3.89-1.13 5.27-2.99l6.85-9.08.12-.17a6.864 6.864 0 00-.28-8.04l-.12-.15a84.367 84.367 0 00-6.56-6.71c-1.1-1.19-2.24-2.38-3.44-3.54 1.91-5.38 3.5-11.29 4.82-17.88 1.21 1.22 2.91 1.95 4.9 1.95h12.96v43.15c0 6.45-.56 13.34-1.45 18-1.68 8.75-5.13 11.88-8.18 14.65-.81.74-1.58 1.43-2.3 2.21l-.09.1c-3.08 3.57-2.84 7.83.58 10.85 1.11.98 2.32 2.14 3.54 3.36.4.58.88 1.13 1.46 1.64.3.26.6.54.91.83.66.71 1.3 1.42 1.91 2.11.64.75 1.3 1.29 1.95 1.68 1.05 1.1 2.09 2.22 3.05 3.32 1.68 1.98 3.53 2.5 4.8 2.58.14 0 .27.01.4.01 1.58 0 3.15-.62 4.46-1.78 11.77-9.6 18.23-23.03 19.21-39.94l.03-62.78H126c3.94 0 6.79-2.86 6.79-6.79v-9.37c1.27.66 2.42.9 3.4.9.43 0 .81-.05 1.17-.12v8.48c0 5.01-5.14 12.69-7.76 15.51l-.09.1c-2.63 3.05-2.41 6.84.52 9.42 1.21 1.07 2.59 2.42 3.91 3.81.31.42.67.82 1.09 1.19.02.02.05.04.07.06l.79.88c.48.57 1.03 1.03 1.62 1.4 1.16 1.16 2.33 2.4 3.38 3.6 1.14 1.35 2.64 2.15 4.23 2.26.12 0 .24.01.36.01 1.4 0 2.78-.54 3.93-1.55 6.81-5.56 14.9-15.47 14.9-31.14v-20.77c.76.36 1.61.6 2.52.67v5.22c0 3.37 2.1 5.94 5.18 6.61.67 3.08 3.24 5.18 6.61 5.18h65.56c3.94 0 6.79-2.86 6.79-6.79v-2.88c.5 1.22 1.39 2.33 2.64 3.2 2.4 1.57 5.31 4.03 7.85 6.23.65.63 1.36 1.12 2.1 1.46h-4.9c-.77 0-1.49.19-2.11.53-.62-.34-1.34-.53-2.11-.53h-10c-2.19 0-3.94 1.54-4.27 3.62a4.58 4.58 0 00-.9-1.08l-2.39-2.18a4.405 4.405 0 00-3.71-1h-.46l-.76.39c-1.41.73-3.41 1.48-5.57 2.08l-.62-.16c-1.07-.28-2.15-.19-3.07.25-.25-.04-.5-.06-.76-.06h-.99c-.63-1.62-2.18-2.74-4.05-2.74h-2.84c-1.87 0-3.42 1.12-4.05 2.74h-.99c-2.44 0-4.34 1.91-4.34 4.35v2.06c0 .81.21 1.57.59 2.21-.62.75-.99 1.72-.99 2.79v2.1c0 .7.16 1.36.44 1.94-.22.52-.34 1.1-.34 1.71v2.2c0 1.21.47 2.29 1.25 3.07-1.03.82-1.63 1.95-1.71 3.18-.08 1.27.4 2.5 1.33 3.43.47.5 1 1.06 1.36 1.52l.07.09c.65.77 1.5 1.28 2.44 1.49.21.7.58 1.35 1.13 1.89.08.09.16.17.25.26h-79.58c-3.14 0-6 1.59-7.66 4.26-1.66 2.67-1.81 5.94-.42 8.76l9.83 19.85c.28.56.28 1.2.01 1.77l-10.03 20.94a8.962 8.962 0 00.5 8.7 8.933 8.933 0 004.29 3.57c.2.49.43.97.71 1.43a8.957 8.957 0 007.63 4.21H454.7c3.12 0 5.97-1.57 7.63-4.21a8.962 8.962 0 00.5-8.7l-10.03-20.94-.03.04zm-96.93-110.34a6.73 6.73 0 00-3.7-4.37c-1.63-.73-3.56-1.89-5.74-3.46-.54-.39-1.07-.7-1.6-.98 3.34-6.45 6.29-13.37 8.79-20.72.64-1.75.56-3.54-.22-5.06-.8-1.56-2.27-2.69-4.22-3.21l-.22-.05c-.02-.11-.04-.21-.07-.32h4.99c2.09 0 3.87-.9 5.02-2.36.76.93 1.72 1.56 2.82 1.8v14.73c0 1.86.73 3.48 1.92 4.62-1.1 1.13-1.76 2.69-1.76 4.47v6.82c0 3.19 2.13 5.69 5.11 6.23.54 2.99 3.04 5.11 6.23 5.11h4c.19.21.4.41.62.61l1 .86h.04c.42.37.86.73 1.32 1.09-4.67.71-10.01 1.34-16.22 1.92-1.26.1-2.27.39-3.08.78.05-.37.1-.73.15-1.11v-.13c.27-2.79-1.29-5.45-3.9-6.63-.41-.18-.85-.4-1.3-.63l.02-.01zm-235.81 5.48a7.191 7.191 0 00-.13 3.19h-9.23c3.53-4.14 7.33-9 11.37-14.55-.48 4.24-1.15 8.01-2.02 11.35l.01.01zm58.61-3.01c.3.11.62.2.94.27.32 1.46 1.06 2.7 2.12 3.6.11.24.22.48.32.72.15.36.31.73.48 1.09h-3.87v-5.69l.01.01zm92.87 29.1c2.44-4.63 4.46-9.99 6.03-16.01 1.05 2.3 3.26 3.79 5.89 3.79 2.1 0 4.12-.06 5.98-.18 1.93 2.01 4.13 4.56 6.06 7.06.73.89 1.6 1.55 2.54 1.96.84.99 1.67 2.02 2.46 3.04 2.22 2.71 5.74 3.28 8.56 1.4 3.78-2.48 7.43-5.37 11.15-8.8.45.4.91.79 1.38 1.15 3.47 4.39 7.51 7.29 11.94 8.59-1.95-.31-3.82.66-4.68 2.51l-.06.14c-.14.35-.29.69-.45 1.02-.41-.67-.87-1.35-1.36-1.99a4.305 4.305 0 00-5.03-1.39l-2.45.97a4.47 4.47 0 00-2.23 1.96c-.77-.66-1.49-1.21-1.99-1.59-1.55-1.21-3.74-1.2-5.34.05l-2.14 1.7c-.67.54-1.14 1.24-1.42 2a4.294 4.294 0 00-2.94-1.14h-11.3c.04-1.18-.36-2.28-1.15-3.11-.82-.87-1.95-1.35-3.2-1.35h-3.21c-2.39 0-4.26 1.83-4.31 4.18v.28h-3.33c-1.24 0-2.33.5-3.12 1.3v-.2c0-2.44-1.91-4.34-4.34-4.34h-.94c1.2-.58 2.24-1.58 3.01-2.98l-.01-.02z" fill="#58393E"/><path d="M449.531 196.671h-318.66c-4.09 0-6.76 4.3-4.94 7.96l9.83 19.85c.75 1.52.76 3.3.03 4.83l-10.03 20.94c-1.75 3.66.92 7.9 4.98 7.9h318.93c4.06 0 6.73-4.24 4.98-7.9l-10.03-20.94c-.73-1.53-.72-3.31.03-4.83l9.83-19.85c1.82-3.67-.85-7.96-4.94-7.96h-.01z" fill="#D93636"/><path d="M172.289 228.731l.34.04s.11 0 .15.04l2.16.79c.45.19.72.64.57 1.13-.79 2.61-1.89 4.8-3.25 6.69-.38.53-.26 1.1.3 1.4.95.49 2.04.95 3.14 1.29 1.02.3 1.21.95.57 1.78-.53.64-1.06 1.4-1.47 2.04-.23.42-.68.61-1.1.45-1.85-.57-3.48-1.36-4.95-2.34-.38-.23-.83-.23-1.17 0-1.29.95-2.68 1.66-4.16 2.34-.49.23-.98 0-1.25-.45l-.76-1.25c-.57-.79-.98-.64-.98.34v.68c0 .57-.38.95-.95.95h-3.1c-.57 0-.95-.38-.95-.95v-.61c0-.6-.42-.98-1.02-.95-3.21.23-6.43.45-9.11.68-.57.04-.98-.3-1.02-.87l-.19-2.53c-.04-.61.3-.98.91-1.02.34-.04.72-.04 1.1-.08h.08c.49 0 .83-.38.83-.91v-8.47c0-.57-.38-.95-.95-.95h-.76c-.57 0-.95-.38-.95-.95v-2.19c0-.57.38-.95.95-.95h30.48c.57 0 .95.38.95.95v2.19c0 .57-.38.95-.95.95h-14.41c-.57 0-.95.38-.95.95v10.17c0 .79.49 1.17 1.25.83.72-.34 1.44-.72 2.08-1.13.53-.34.57-.87.23-1.36-.68-.91-1.25-1.89-1.82-2.91-.3-.61-.04-1.13.61-1.32l.3-.08c.79-.23.79-.38-.08-.38h-.98c-.57 0-.95-.38-.95-.95v-2.04c0-.57.38-.95.95-.95h9.68l.45-.11h.15v.02zm.19-16.11v9.45c0 .57-.38.95-.95.95h-22.04c-.57 0-.94-.38-.94-.95v-9.45c0-.57.38-.95.94-.95h22.04c.57 0 .95.38.95.95zm-17.47 15.39h-2.83c-.27 0-.45.19-.45.42 0 .26.19.45.45.45h2.83c.23 0 .42-.19.42-.45 0-.23-.19-.42-.42-.42zm-3.29 4.88c0 .3.19.49.49.49h2.72c.3 0 .49-.19.49-.49s-.19-.49-.49-.49h-2.72c-.3 0-.49.19-.49.49zm.57 5.1l2.68-.11c.26-.04.45-.23.45-.53 0-.26-.19-.45-.45-.45h-2.68c-.34 0-.57.23-.57.57 0 .34.23.57.57.53v-.01zm14.97-22.61c0-.26-.15-.42-.42-.42h-12.89c-.26 0-.42.15-.42.42s.15.42.42.42h12.89c.26 0 .42-.15.42-.42zm0 3.93c0-.26-.19-.45-.45-.45h-12.82c-.26 0-.45.19-.45.45s.19.45.45.45h12.82c.26 0 .45-.19.45-.45zm1.29 13.46h-1.55c-.57 0-.76.34-.45.83.26.38.53.76.83 1.13.27.34.64.3.87 0 .26-.38.53-.76.76-1.13.3-.49.11-.83-.45-.83h-.01zm31.313-19.511h11.5c.57 0 .95.38.95.95v2.53c0 .57-.38.95-.95.95h-29.83c-.57 0-.95-.38-.95-.95v-2.53c0-.57.38-.95.95-.95h11.04c.57 0 .95-.38.95-.95v-.91c0-.57.38-.95.95-.95h3.52c.57 0 .95.38.95.95v.91c0 .57.38.95.95.95h-.03zm11.42 15.69v10.44c0 2.23-.42 3.63-1.93 4.39-1.32.68-2.95.79-4.92.83-.49 0-.87-.34-.98-.79l-.3-1.25v-.08c-.19-.34-.49-.61-.91-.61h-7.49c-.49 0-.79.3-.79.79 0 .45-.3.76-.76.76h-2.76c-.57 0-.95-.38-.95-.95v-7.98c0-.57.38-.95.95-.95h11.91c.57 0 .95.38.95.95v4.35c0 .53.38.91.91.95.45 0 .91 0 1.17-.04h.08c.38 0 .61-.11.61-.49v-6.05c0-.57-.38-.95-.95-.95h-17.17c-.57 0-.95.38-.95.95v10.51c0 .57-.38.95-.95.95h-3.21c-.57 0-.95-.38-.95-.95v-14.78c0-.57.38-.95.95-.95h27.49c.57 0 .95.38.95.95zm-4.88-9.3V226c0 .57-.38.95-.95.95h-18.07c-.57 0-.95-.38-.95-.95v-6.35c0-.57.38-.95.95-.95h18.07c.57 0 .95.38.95.95zm-5.26 3.33v-.3c0-.34-.23-.57-.57-.57h-8.62c-.34 0-.57.23-.57.57v.3c0 .34.23.57.57.57h8.62c.34 0 .57-.23.57-.57zm-2.38 14.94v-.38c0-.34-.23-.57-.57-.57h-3.67c-.34 0-.57.23-.57.57v.38c0 .34.23.57.57.57h3.67c.34 0 .57-.23.57-.57zm49.947-2.99v2.5c0 .57-.38.95-.95.95h-11.83c-.53 0-.87.34-.87.87v.87c0 2.42-.72 3.48-2.68 4.08-1.78.49-4.08.53-6.84.53-.42 0-.79-.3-.91-.72-.23-.64-.49-1.32-.79-1.97-.42-.98-.08-1.55.98-1.51 1.59.04 3.29.04 3.71.04.72-.04.98-.19.98-.72v-.76c0-.42-.3-.72-.72-.72h-11.8c-.57 0-.95-.38-.95-.95v-2.5c0-.57.38-.95.95-.95h11.95c.34 0 .57-.23.57-.57 0-.34.23-.57.57-.57h1.55l.23-.08h.08c.34-.11.68-.26 1.02-.38.72-.3.64-.53-.11-.53h-12.25c-.57 0-.95-.38-.95-.95v-2.08c0-.57.38-.95.95-.95h20.23l.72-.15c.26-.04.61.04.79.23l1.89 1.66c.57.53.49 1.13-.15 1.51-.72.42-1.44.83-2.23 1.21-2 1.06-1.89 1.63.38 1.63h5.56c.57 0 .95.38.95.95l-.03.03zm-.68-21.06v2.46c0 .57-.38.95-.95.95h-29.49c-.57 0-.95-.38-.95-.95v-2.46c0-.57.38-.95.95-.95h10.89c.57 0 .95-.38.95-.95v-.49c0-.57.38-.95.95-.95h3.63c.57 0 .95.38.95.95v.49c0 .57.38.95.95.95h11.19c.57 0 .95.38.95.95h-.02zm-4.54 12.97h-21.97c-.57 0-.95-.38-.95-.95v-6.39c0-.57.38-.95.95-.95h21.97c.57 0 .95.38.95.95v6.39c0 .57-.38.95-.95.95zm-17.69-4.24v.19c0 .34.23.57.57.57h11.95c.34 0 .57-.23.57-.57v-.19c0-.34-.23-.57-.57-.57h-11.95c-.34 0-.57.23-.57.57z" fill="#fff"/><path d="M250.694 232.54c0-3.14 1.08-5.68 3.27-9.5l5.76-10.019h8.86l-5.25 9.29c5.63.21 9.93 3.65 9.93 9.5 0 6.41-4.51 10.919-11.31 10.919-6.8 0-11.27-4.73-11.27-10.19h.01zm14.83-.429c0-1.81-1.46-3.61-3.66-3.61s-3.66 1.89-3.66 3.7c0 2.059 1.46 3.699 3.66 3.699s3.66-1.72 3.66-3.78v-.009z" fill="url(#paint0_linear_1280_9287)"/><path d="M274.551 227.55c0-8.94 5.12-15.18 12.94-15.18 7.82 0 12.94 6.24 12.94 15.18s-5.12 15.18-12.94 15.18c-7.82 0-12.94-6.62-12.94-15.18zm17.72 0c0-4.3-2.24-7.01-4.77-7.01-2.53 0-4.77 2.71-4.77 7.01 0 3.91 2.24 7.01 4.77 7.01 2.53 0 4.77-3.1 4.77-7.01z" fill="url(#paint1_linear_1280_9287)"/><path d="M302.594 227.55c0-8.94 5.12-15.18 12.94-15.18 7.82 0 12.94 6.24 12.94 15.18s-5.12 15.18-12.94 15.18c-7.82 0-12.94-6.62-12.94-15.18zm17.71 0c0-4.3-2.24-7.01-4.77-7.01-2.53 0-4.77 2.71-4.77 7.01 0 3.91 2.24 7.01 4.77 7.01 2.53 0 4.77-3.1 4.77-7.01z" fill="url(#paint2_linear_1280_9287)"/><path d="M358.189 239.161c.91 0 1.17-.64 1.36-3.97.04-1.17.68-1.44 1.66-.95.79.38 1.66.72 2.46.95.45.15.72.53.68 1.02-.53 6.01-1.85 7.83-5.67 7.83h-3.86c-4.58 0-5.71-1.66-5.71-6.47v-9.07c0-.57-.38-.95-.95-.95h-2.87c-.53 0-.91.34-.95.87-.68 6.73-2.34 12.29-10.13 15.77-.49.19-.98 0-1.25-.45a15.76 15.76 0 00-1.7-2.34c-.6-.72-.49-1.32.38-1.74 5.63-2.57 6.66-6.43 7.07-11.08.04-.6-.34-1.02-.95-1.02h-5.63c-.57 0-.95-.38-.95-.95v-3.18c0-.57.38-.94.95-.94h30.59c.57 0 .95.38.95.94v3.18c0 .57-.38.95-.95.95h-7.26c-.57 0-.95.38-.95.95v9.04c0 1.44.15 1.62 1.17 1.62h2.5l.01-.01zm2.05-25.33v3.14c0 .57-.38.95-.95.95h-23.82c-.57 0-.95-.38-.95-.95v-3.14c0-.57.38-.95.95-.95h23.82c.57 0 .95.38.95.95z" fill="url(#paint3_linear_1280_9287)"/><path d="M368.63 211.601h29.38c.57 0 .95.38.95.95v31.16c0 .57-.38.95-.95.95h-3.82c-.57 0-.95-.38-.95-.95s-.38-.98-.95-.98h-18.26c-.57 0-.95.42-.95.98s-.38.95-.95.95h-3.52c-.57 0-.95-.38-.95-.95v-31.16c0-.57.38-.95.95-.95h.02zm5.03 26.28h19.02c.34 0 .57-.23.57-.57v-19.78c0-.34-.23-.57-.57-.57h-19.02c-.34 0-.57.23-.57.57v19.78c0 .34.23.57.57.57zm2.88-17.47h13.27c.57 0 .95.38.95.95v12.21c0 .57-.38.95-.95.95h-13.27c-.57 0-.95-.38-.95-.95v-12.21c0-.57.38-.95.95-.95zm8.96 9.07v-3.97c0-.34-.23-.57-.57-.57h-3.86c-.34 0-.57.23-.57.57v3.97c0 .34.23.57.57.57h3.86c.34 0 .57-.23.57-.57zm49.741 12.099c-.82-.63-1.82-1.34-2.82-2-.82-.56-.71-.89.26-.89h.71c.56 0 .93-.37.93-.93v-11.84c0-.56-.37-.93-.93-.93h-14.4c-.56 0-.93.37-.93.93v11.84c0 .56.37.93.93.93h.33c.74 0 .82.3.19.67-.67.41-2.85 1.34-3.21 1.54-.53.29-.82.61-.43 1.1.71.71 1.48 1.56 2.04 2.19.26.33.71.45 1.08.26 2-.93 4.16-2.3 5.75-3.79.59-.59.41-1.22-.37-1.48-.85-.3-.89-.48 0-.48h3.08c.78 0 .89.3.26.78-.63.48-.59 1.08.04 1.52 1.45 1.04 3.01 2.3 4.04 3.23.33.3.74.33 1.11.15l2.26-1.3c.67-.41.74-1 .07-1.48l.01-.02zm-6.16-5.64h-5.94c-.33 0-.52-.19-.52-.52 0-.3.19-.48.52-.48h5.94c.3 0 .48.19.48.48 0 .33-.19.52-.48.52zm0-3.63h-5.97c-.3 0-.48-.19-.48-.48s.19-.48.48-.48h5.97c.3 0 .48.19.48.48s-.19.48-.48.48zm0-3.56h-5.97c-.3 0-.48-.19-.48-.48s.19-.48.48-.48h5.97c.3 0 .48.19.48.48s-.19.48-.48.48zm-5.791-7.98h-5.79c-.56 0-.93.37-.93.93v1.48c0 .56.37.93.93.93h17.18c.56 0 .93-.37.93-.93v-1.48c0-.56-.37-.93-.93-.93h-5.83c-.3 0-.48-.19-.48-.48 0-.26.19-.45.48-.45h4.82c.56 0 .93-.37.93-.93v-4.82c0-.56-.37-.93-.93-.93h-4.38c-.56 0-.93-.37-.93-.93v-.3c0-.56-.37-.93-.93-.93h-2.78c-.56 0-.93.37-.93.93v.3c0 .56-.37.93-.93.93h-3.93c-.56 0-.93.37-.93.93v4.82c0 .56.37.93.93.93h4.42c.26 0 .45.19.45.45 0 .3-.19.48-.45.48h.01zm5.64-4.83h.78c.3 0 .52.22.52.52 0 .33-.22.56-.52.56h-.78c-.33 0-.56-.22-.56-.56 0-.3.22-.52.56-.52zm-5.71 1.08h-.56c-.33 0-.56-.22-.56-.56 0-.3.22-.52.56-.52h.56c.3 0 .52.22.52.52 0 .33-.22.56-.52.56z" fill="#fff"/><path d="M416.973 237.9c-1.08-1.42-2.77-3.04-4.25-4.31-.3-.27-.71-.23-1.01.04l-1.66 1.46c-.51.46-.51 1.08-.03 1.54.13.13.36.34.19.5-.17.16-1.94 1.61-1.94 1.2v-5.44c0-.26.19-.45.48-.45h6.2c.56 0 .93-.37.93-.93v-9.05c0-.56-.37-.93-.93-.93h-8.09c-.93 0-1.11-.45-.48-1.11.19-.22.37-.45.56-.67l.07-.07c.19-.26.37-.19.37.19 0 .41.26.67.67.67h4.75c.48 0 .78-.3.78-.78 0-.48.15-.52.41-.11l.11.15c.3.52.71.56 1.08.15l1.97-2.15c.26-.33.3-.74.07-1.08-1.15-1.74-3.15-3.86-4.9-5.46a.967.967 0 00-.63-.26h-3.64c-.37 0-.74.22-.89.56-.96 2.15-2.45 4.56-4.53 6.61-.52.52-.48 1.08.07 1.56.59.48 1.26 1.11 1.74 1.67l-.07.15-.07.07c-.07.07-.11.15-.11.26v21.56c0 .56.37.93.93.93h2.22c2.47 0 5.63-3.76 5.82-3.87.19-.11.4.11.51.25.43.53.84.62 1.28.19l1.9-1.77c.41-.35.44-.88.13-1.27h-.01zm-8.26-13.24h2.6c.26 0 .45.19.45.45s-.19.45-.45.45h-2.6c-.26 0-.45-.19-.45-.45s.19-.45.45-.45zm.03 3.75h2.56c.26 0 .45.19.45.45 0 .3-.19.48-.45.48h-2.56c-.3 0-.48-.19-.48-.48 0-.26.19-.45.48-.45zm.75-12.13c.19-.26.33-.52.48-.74.22-.41.59-.45.89-.11.22.3.48.56.71.85.45.52.26.89-.45.89h-1.15c-.63 0-.82-.33-.48-.89z" fill="#fff"/><path d="M120.928 134.641h-20.27c-1.58 0-2.63-1.05-2.63-2.63v-1.32c0-.79.4-1.71.92-2.24 7.24-7.77 14.61-17.77 20.54-26.33 1.05-1.58.66-3.42-.79-4.48l-8.03-6.19c-.79-.53-1.97-.79-2.9-.53l-1.71.4-.66.13h-42.92c-1.97 0-3.29 1.32-3.29 3.29v10.14c0 1.97 1.32 3.29 3.29 3.29h25.94c3.55 0 4.74 1.98 2.77 5-1.71 2.5-3.42 4.74-5 6.71l-.26.26c-.53.66-1.32 1.05-2.24 1.05h-1.19c-1.71 0-2.76 1.05-2.76 2.63v7.5c0 1.98-1.32 3.29-3.29 3.29h-18.17c-1.97 0-3.29 1.32-3.29 3.29v10.53c0 1.98 1.32 3.29 3.29 3.29h18.17c1.97 0 3.29 1.32 3.29 3.29v48.36c0 6.43-.53 13.54-1.51 18.66-2.34 12.21-8.06 15.04-11.35 18.58-1.79 2.07-1.79 4.15.26 5.95 2.81 2.49 5.87 5.67 8.17 8.3 1.4 1.66 3.19 1.8 4.72.41 7.68-6.24 16.81-17.24 17.99-37.47l.03-62.78c0-1.98 1.32-3.29 3.29-3.29h19.62c1.97 0 3.29-1.32 3.29-3.29v-10.53c0-1.97-1.32-3.29-3.29-3.29l-.03.02z" fill="url(#paint4_linear_1280_9287)"/><path d="M46.15 174.26c-1.05-.92-1.45-2.5-1.05-3.82 4.87-13.56 7.5-30.15 8.82-50.55.13-1.71-1.05-3.03-2.76-3.42l-7.37-1.05-.79-.13h-.53l-2.11.4h-4.34c-2.37 0-3.69-1.58-3.16-3.95l2.76-15.27c.26-1.97-.92-3.55-2.9-3.82l-10.4-1.05c-1.84-.13-3.29 1.05-3.55 2.9-.92 5.92-1.84 12.11-2.9 18.43-.4 1.71-1.58 2.76-3.29 2.76H6.79c-1.97 0-3.29 1.32-3.29 3.29v10.14c0 1.97 1.32 3.29 3.29 3.29h1.45c2.37 0 3.69 1.58 3.16 3.95-2.24 11.32-4.61 21.99-6.98 30.81-.4 1.45.26 3.03 1.71 3.69l10.93 5.79c.92.53 1.58.13 1.84-.79.26-.79.79-1.05 1.45-.66l.26.26.4.13.26.26c.92.92 1.19 2.11.4 3.29-3.95 6.06-8.56 10.93-14.09 14.74-2.37 1.58-2.63 3.55-.79 5.79 1.98 2.37 4.08 5.27 5.66 7.9 1.19 1.71 3.03 2.24 4.74 1.05a66.913 66.913 0 0016.85-16.46c1.45-1.97 3.42-2.24 5.13-.4 1.71 1.71 3.29 3.42 4.61 5.13 1.71 1.97 3.82 1.97 5.4-.13l6.85-9.08c.79-1.19.79-2.76-.13-3.95a83.485 83.485 0 00-9.74-9.48l-.01.01zm-10.4-39.63c-1.05 8.82-2.63 16.98-5 24.49-.53 1.58-1.84 1.98-3.16.92-1.05-.79-1.97-1.45-3.03-2.11-.66-.53-1.05-1.32-.92-2.11 1.71-6.98 3.29-14.35 4.74-21.85.13-.92.92-1.58 1.84-1.58h3.55c1.32 0 2.11.92 1.98 2.24z" fill="url(#paint5_linear_1280_9287)"/><path d="M166.848 63.041h-38.57c-1.97 0-3.29 1.32-3.29 3.29v9.08c0 1.97 1.32 3.29 3.29 3.29h9.22c1.97 0 3.29 1.32 3.29 3.29v71.34c0 6.6-6.19 15.2-8.69 17.89-1.36 1.58-1.36 3.15.19 4.52 2.13 1.89 4.46 4.31 6.21 6.3 1.07 1.26 2.43 1.37 3.59.32 5.36-4.36 13.67-13.4 13.67-28.48v-41.2l-.09.07v-30.77c0-1.97 1.32-3.29 3.29-3.29h7.9c1.98 0 3.29-1.32 3.29-3.29v-9.08c0-1.98-1.32-3.29-3.29-3.29l-.01.01z" fill="url(#paint6_linear_1280_9287)"/><path d="M164.609 38.29h-33.44a3.29 3.29 0 00-3.29 3.29v8.82a3.29 3.29 0 003.29 3.29h33.44a3.29 3.29 0 003.29-3.29v-8.82a3.29 3.29 0 00-3.29-3.29z" fill="url(#paint7_linear_1280_9287)"/><path d="M166.86 83.581h-4.48a3.29 3.29 0 00-3.29 3.29v40.16a3.29 3.29 0 003.29 3.29h4.48a3.29 3.29 0 003.29-3.29v-40.16a3.29 3.29 0 00-3.29-3.29z" fill="url(#paint8_linear_1280_9287)"/><path d="M134.067 133.611c2.9-11.06 3.42-23.83 3.42-34.89V87c0-1.97-1.32-3.29-3.29-3.29h-4.48c-1.97 0-3.29 1.32-3.29 3.29v11.45c0 9.48-.53 20.8-3.03 30.41-.4 1.45.13 2.9 1.32 3.95h.26c1.05.66 2.24 1.58 3.29 2.5 2.63 1.98 4.87 1.45 5.79-1.71l.01.01z" fill="url(#paint9_linear_1280_9287)"/><path d="M177.392 77.52h58.32c1.97 0 3.29-1.32 3.29-3.29V41.58c0-1.97-1.32-3.29-3.29-3.29h-58.32c-1.97 0-3.29 1.32-3.29 3.29v32.65c0 1.98 1.32 3.29 3.29 3.29zm43.57-28.57h1.05c1.19 0 1.98.79 1.98 1.98s-.79 1.97-1.98 1.97h-1.05c-1.18 0-1.97-.79-1.97-1.97s.79-1.98 1.97-1.98zm0 13.96h1.19c1.05 0 1.84.79 1.84 1.84 0 1.19-.79 1.98-1.84 1.98h-1.19c-1.18 0-1.97-.79-1.97-1.98 0-1.05.79-1.84 1.97-1.84zm-15.66-13.96h1.45c1.18 0 1.97.79 1.97 1.98s-.79 1.97-1.97 1.97h-1.45c-1.19 0-1.98-.79-1.98-1.97s.79-1.98 1.98-1.98zm0 13.96h1.58c1.05 0 1.84.79 1.84 1.84 0 1.19-.79 1.98-1.84 1.98h-1.58c-1.19 0-1.98-.79-1.98-1.98 0-1.05.79-1.84 1.98-1.84zm-15.01-13.96h.79c1.19 0 1.98.79 1.98 1.98s-.79 1.97-1.98 1.97h-.79c-1.19 0-1.98-.79-1.98-1.97s.79-1.98 1.98-1.98zm0 13.96h.92c1.05 0 1.84.79 1.84 1.84 0 1.19-.79 1.98-1.84 1.98h-.92c-1.19 0-1.98-.79-1.98-1.98 0-1.05.79-1.84 1.98-1.84z" fill="url(#paint10_linear_1280_9287)"/><path d="M237.29 80.81H176.2a3.29 3.29 0 00-3.29 3.29v6.72a3.29 3.29 0 003.29 3.29h61.09a3.29 3.29 0 003.29-3.29V84.1a3.29 3.29 0 00-3.29-3.29z" fill="url(#paint11_linear_1280_9287)"/><path d="M239.13 134.131h-7.77c-3.29 0-4.48-1.98-2.9-4.87.4-.66.79-1.45 1.32-2.11v-.26c1.05-1.84.26-3.55-1.84-4.08-2.24-.53-2.24-.92 0-.92h4.21c1.98 0 3.29-1.32 3.29-3.29v-18.17c0-1.98-1.32-3.29-3.29-3.29H181.2c-1.97 0-3.29 1.32-3.29 3.29v18.17c0 1.97 1.32 3.29 3.29 3.29h5.13c1.97 0 2.11.4.13.92-2.11.53-2.76 2.11-1.84 3.95.53 1.05.92 2.24 1.45 3.16v.26c.92 2.24-.4 3.95-3.03 3.95h-9.48c-1.97 0-3.29 1.32-3.29 3.29v6.58c0 1.97 1.32 3.29 3.29 3.29h65.56c1.98 0 3.29-1.32 3.29-3.29v-6.58c0-1.97-1.32-3.29-3.29-3.29h.01zm-24.88-9.74c-.92 2.76-2.24 5.66-3.29 8.16-.26.66 0 1.19.66 1.32.66.13.66.26 0 .26h-10.01c-.79 0-.79-.13 0-.4.66-.13 1.05-.79.92-1.45-.66-2.24-1.71-4.87-2.9-7.37-.92-1.84-.26-3.03 1.84-3.03h11.06c1.58 0 2.37 1.05 1.71 2.5l.01.01zm5.66-14.74c0 1.18-.79 1.97-1.97 1.97h-23.17c-1.19 0-1.98-.79-1.98-1.97v-.26c0-1.18.79-1.97 1.98-1.97h23.17c1.18 0 1.97.79 1.97 1.97v.26z" fill="url(#paint12_linear_1280_9287)"/><path d="M453.141 91.78h-10c-.91 0-1.48-.57-1.48-1.48 0-.8.57-1.36 1.48-1.36h6.02c1.7 0 2.84-1.14 2.84-2.84v-3.18c0-1.7-1.14-2.84-2.84-2.84h-6.02c-.91 0-1.48-.57-1.48-1.48 0-.8.57-1.36 1.48-1.36h6.02c1.7 0 2.84-1.14 2.84-2.84v-3.18c0-1.7-1.14-2.84-2.84-2.84h-6.02c-.91 0-1.48-.57-1.48-1.48 0-.8.57-1.36 1.48-1.36h8.97c1.7 0 2.84-1.14 2.84-2.84v-3.75c0-1.7-1.14-2.84-2.84-2.84h-6.25c-2.27 0-3.07-1.25-1.82-3.29 1.14-1.93.45-3.52-1.82-3.98l-6.48-1.02c-1.48-.34-2.73.45-3.29 1.93-.45 1.48-1.14 3.07-1.82 4.66-.34 1.02-1.48 1.7-2.61 1.7-1.25 0-1.82-.8-1.36-1.93.34-.68.57-1.48.91-2.27.68-1.7-.11-3.18-1.82-3.64l-6.47-1.93c-1.59-.34-2.95.34-3.52 1.82-1.82 4.54-4.2 9.2-6.93 13.29-1.48 2.27-2.61 1.82-2.61-.91v-1.59c0-1.7-1.14-2.84-2.84-2.84h-2.5c-2.27 0-2.95-1.25-1.7-3.18 1.25-1.93.68-3.41-1.59-3.86l-6.59-1.25c-1.48-.23-2.73.45-3.29 1.82-.57 1.59-1.36 3.29-2.16 4.88-.45 1.02-1.48 1.59-2.5 1.59h-1.02c-1.59 0-2.27-1.02-1.7-2.5l.68-1.82c.68-1.82-.11-3.29-1.93-3.75l-6.25-1.7c-1.59-.45-2.95.34-3.52 1.82-2.84 7.61-7.16 14.65-12.16 19.88-1.25 1.25-1.36 2.73-.34 4.09 1.59 2.27 3.41 5.11 4.54 7.27.68 1.14 1.7 1.25 2.5.45.91-.91 1.36-.8 1.36.45v18.18c0 1.7 1.14 2.84 2.84 2.84h36.24c1.7 0 2.84-1.14 2.84-2.84v-3.86c0-1.7-1.14-2.84-2.84-2.84h-7.5c-.91 0-1.48-.57-1.48-1.48 0-.8.57-1.36 1.48-1.36h4.66c1.7 0 2.84-1.14 2.84-2.84v-3.18c0-1.7-1.14-2.84-2.84-2.84h-4.66c-.91 0-1.48-.57-1.48-1.48 0-.8.57-1.36 1.48-1.36h6.36c.68 0 1.14-.45 1.14-1.14s.23-.8.68-.23l2.84 4.09c.68 1.14 1.7 1.25 2.61.34.8-.91 1.36-.8 1.36.45v17.72c0 1.7 1.14 2.84 2.84 2.84h38.51c1.7 0 2.84-1.14 2.84-2.84v-3.86c0-1.7-1.14-2.84-2.84-2.84l.01.01zm-71.57 0h-1.82c-.91 0-1.48-.57-1.48-1.48 0-.8.57-1.36 1.48-1.36h1.82c.8 0 1.36.57 1.36 1.36 0 .91-.57 1.48-1.36 1.48zm0-11.7h-1.82c-.91 0-1.48-.57-1.48-1.48 0-.8.57-1.36 1.48-1.36h1.82c.8 0 1.36.57 1.36 1.36 0 .91-.57 1.48-1.36 1.48zm0-11.7h-1.82c-.91 0-1.48-.57-1.48-1.48 0-.8.57-1.36 1.48-1.36h1.82c.8 0 1.36.57 1.36 1.36 0 .91-.57 1.48-1.36 1.48zm23.17-1.48l-.8.91c-.23.34-.8.57-1.25.57h-5.91c-.91 0-1.48-.57-1.48-1.48 0-.8.57-1.36 1.48-1.36h7.27c1.02 0 1.36.57.68 1.36h.01zm23.18 24.88h-1.59c-.91 0-1.48-.57-1.48-1.48 0-.8.57-1.36 1.48-1.36h1.59c.8 0 1.36.57 1.36 1.36 0 .91-.57 1.48-1.36 1.48zm0-11.7h-1.59c-.91 0-1.48-.57-1.48-1.48 0-.8.57-1.36 1.48-1.36h1.59c.8 0 1.36.57 1.36 1.36 0 .91-.57 1.48-1.36 1.48zm0-11.7h-1.59c-.91 0-1.48-.57-1.48-1.48 0-.8.57-1.36 1.48-1.36h1.59c.8 0 1.36.57 1.36 1.36 0 .91-.57 1.48-1.36 1.48z" fill="url(#paint13_linear_1280_9287)"/><path d="M453.291 132.901c-5.79-.45-11.36-1.14-16.59-1.82-4.32-.57-4.66-2.61-1.36-5.34 4.54-3.75 8.63-7.95 11.93-12.84 1.02-1.36.57-2.95-.91-3.86l-7.27-4.32c-.57-.34-1.36-.45-1.93-.34l-1.7.34h-67.25c-1.7 0-2.84 1.14-2.84 2.84v6.82c0 1.7 1.14 2.84 2.84 2.84h12.5c2.73 0 2.73.91.34 1.93-2.27 1.02-2.73 2.95-.91 4.54.073 0 .15.037.23.11.8.8 1.82 1.59 2.95 2.5 3.29 2.5 2.95 4.54-1.25 5.23-5.68.91-11.7 1.59-17.84 2.16-2.95.23-3.86 1.93-2.5 4.66 1.25 2.39 2.39 5 3.18 7.38.45 1.36 1.59 2.16 3.07 2.05 14.09-1.48 27.49-3.86 39.42-7.72.57-.23 1.25-.23 1.82 0 11.47 4.09 24.2 6.59 38.51 7.95h.23c1.02 0 2.16-.57 2.73-1.59 1.25-2.61 3.07-5.68 5-8.41 2.04-2.95 1.36-4.88-2.39-5.11h-.01zm-35.21-12.84c-2.5 1.48-5.34 2.95-8.41 4.2-.34.11-.8.11-1.14 0-3.41-1.25-6.48-2.73-9.32-4.2-2.61-1.59-2.27-2.84.91-2.84h17.04c3.07 0 3.52 1.25.91 2.84h.01z" fill="url(#paint14_linear_1280_9287)"/><path d="M332.929 80.54l10.39 2.54c1.73.46 2.66 1.85 1.96 3.7-4.27 12.59-9.93 24.14-16.86 34.07-.58.81-.69 1.85-.35 2.66 2.31 5.54 4.74 8.55 7.16 8.55 1.73 0 3-3.7 3.7-12.24.35-3.93 2.19-4.62 5.43-2.31 2.08 1.5 4.27 2.89 6.35 3.81 1.27.58 1.96 1.85 1.85 3.12-2.54 19.63-7.62 23.91-18.59 23.91-6.24 0-11.55-3.46-15.82-9.59-1.39-1.85-3.12-2.08-4.74-.58-3.58 3.35-7.28 6.35-11.32 9.01-1.39.92-2.89.58-3.93-.69-1.96-2.54-4.62-5.66-7.04-8.08-1.62-1.85-1.39-3.58.69-4.85 6-3.7 11.43-8.2 16.28-13.4.58-.69.81-1.73.58-2.66-3.23-11.32-5.31-24.94-6.58-39.03-.12-1.62-1.27-2.66-2.89-2.66h-22.98c-1.73 0-2.89 1.15-2.89 2.89v4.62c0 1.73 1.16 2.89 2.89 2.89h21.13c1.62 0 2.77 1.16 2.66 2.77v2.77c-.35 22.4-.81 32.57-3.47 36.03-2.43 3.12-4.97 4.27-8.2 4.97-2.42.35-5.89.58-9.93.58-1.62 0-2.77-1.15-3-2.77-.23-1.62-.58-3.23-1.04-4.85-1.27-4.27-3.12-3.81-3.93.69-1.5 7.62-3.81 14.9-7.04 21.02-1.16 2.08-3 2.19-4.62.58-2.54-2.19-5.66-4.85-8.32-6.58-1.5-1.04-1.96-2.66-1.15-4.27 6.7-12.93 7.16-30.72 7.16-44.12V63.01c0-1.73 1.16-2.89 2.89-2.89h38.46c1.85 0 3-1.15 2.89-3-.12-3.12-.23-6.24-.23-9.24 0-1.73 1.16-2.89 2.89-2.89h10.97c1.73 0 2.89 1.15 2.89 2.89 0 3.12 0 6.24.12 9.47 0 1.62 1.16 2.77 2.77 2.77h3.46c3.7 0 4.27-1.5 1.15-3.7l-2.77-1.96c-1.85-1.15-2.08-3-.46-4.5l5.43-5.43c.92-.92 2.19-1.16 3.35-.58 4.39 2.43 9.47 5.66 13.05 8.55 1.39 1.04 1.5 2.66.23 4.04l-.69.69c-1.62 1.73-1.15 2.89 1.27 2.89h4.74c1.73 0 2.89 1.15 2.89 2.89v9.93c0 1.73-1.16 2.89-2.89 2.89h-27.48c-1.85 0-3 1.27-2.77 3.12.46 4.85 1.04 9.7 1.73 14.09.69 4.85 3 5.2 4.85.81 1.62-3.7 3-7.39 4.27-11.2.46-1.62 1.85-2.43 3.47-2.08l-.02-.03zm-50.23 20.09h-7.85c-.93 0-1.62.69-1.73 1.62-.23 4.62-.58 9.47-1.16 14.44-.12 1.04.46 1.85 1.5 1.85 2.54.23 4.74.35 6.24.35 1.39 0 2.43-.35 3.23-1.39.92-1.27 1.39-5.43 1.5-15.13 0-1.04-.69-1.73-1.73-1.73v-.01z" fill="url(#paint15_linear_1280_9287)"/><path d="M221.418 182.89l-1.45 1.83c-.41.47-.98.41-1.39-.07-.47-.54-.88-.47-.88.27v3.99c0 .51-.34.84-.84.84h-2.84c-.51 0-.84-.34-.84-.84v-2.03c0-1.45-.58-1.66-1.55-.57-.37.41-.71.78-1.08 1.12-.41.34-.88.27-1.22-.14-.47-.61-1.08-1.25-1.62-1.82-.47-.47-.47-1.01.1-1.45 1.25-.98 2.53-2.26 3.62-3.68.54-.71.27-1.25-.68-1.25h-2.06c-.51 0-.85-.34-.85-.84v-2.2c0-.51.34-.85.85-.85h3.65c.51 0 .85-.34.85-.84v-.27c0-.51-.34-.84-.85-.84h-3.75c-.51 0-.84-.34-.84-.85v-2.1c0-.51.34-.84.84-.84h.78c.57 0 .91-.37.78-.95a8.12 8.12 0 00-.3-1.15c-.17-.47.03-.88.58-1.01.51-.14.51-.2-.03-.2h-1.39c-.51 0-.84-.34-.84-.85v-2.06c0-.51.34-.85.84-.85h3.35c.51 0 .85-.34.85-.84v-1.05c0-.51.34-.84.84-.84h2.84c.51 0 .84.34.84.84v1.05c0 .51.34.84.85.84h3.35c.51 0 .84.34.84.85v2.06c0 .51-.34.85-.84.85h-1.05c-.44 0-.44.07 0 .13.41.07.57.37.37.74v.07c-.17.44-.34.78-.51 1.15-.34.74 0 1.22.78 1.22h.61c.51 0 .84.34.84.84v2.1c0 .51-.34.85-.84.85h-3.55c-.51 0-.85.34-.85.84v.27c0 .51.34.84.85.84h3.21c.51 0 .85.34.85.85v2.2c0 .51-.34.84-.85.84h-1.59c-1.49 0-1.66.57-.47 1.42l1.55 1.18c.44.34.51.81.17 1.22l-.03-.02zm-4.8-16.76h-2.57c-.44 0-.61.27-.47.71.2.61.41 1.25.51 1.79.03.27-.1.47-.37.54l-.27.07c-.44.14-.41.2.03.2h3.79c.58 0 .61-.07.03-.2l-.41-.07c-.34-.07-.51-.34-.37-.64.2-.57.41-1.18.57-1.79.1-.37-.1-.61-.47-.61zm11.56.5v2.3c0 .51.34.84.84.84h7.94c.51 0 .84.34.84.85v2.64c0 .51-.34.84-.84.84h-1.01c-.51 0-.84.34-.84.85v13.86c0 .51-.34.85-.84.85h-2.84c-.51 0-.85-.34-.85-.85v-13.86c0-.51-.34-.85-.84-.85h-.74c-.47 0-.81.34-.84.81-.17 4.36-.98 10.04-4.12 14.03-.41.54-.98.47-1.42-.03-.51-.57-1.15-1.18-1.76-1.66-.51-.41-.61-.95-.2-1.45 2.84-3.82 3.11-8.79 3.11-12.84v-10.07c0-.68.44-.98 1.08-.81l1.15.3s.1.03.13.03h.47c2.57-.68 5.1-1.59 6.93-2.54h.07c.3-.14.68-.1.95.14l2.33 2.13c.57.51.47 1.05-.2 1.35-2.43.98-5.21 1.72-7.81 2.33-.41.07-.68.41-.68.81h-.01z" fill="url(#paint16_linear_1280_9287)"/><path d="M270.278 161.36v23.15c0 2.13-.3 3.38-1.55 4.16-1.12.68-2.57.85-4.5.88-.47 0-.81-.3-.88-.74-.17-.78-.41-1.66-.68-2.43-.27-.85.07-1.32.95-1.32.64.03 1.25.03 1.52 0h.07c.44 0 .57-.17.57-.61v-4.63c0-.51-.34-.84-.84-.84h-2.43c-.44 0-.78.3-.84.74-.51 3.38-1.39 6.79-3.04 9.43-.3.51-.81.54-1.28.2-.68-.47-1.55-.98-2.3-1.39-.27-.14-.57-.03-.81.17-.1.1-.24.2-.41.3l-.07.03c-.98.54-2.26.74-3.85.78-.44 0-.78-.3-.88-.74-.14-.71-.37-1.52-.64-2.23s.03-1.12.74-1.08h1.25c.41 0 .54-.14.54-.54v-4.83c0-.51-.34-.84-.84-.84h-1.79c-.47 0-.81.3-.84.74-.41 3.35-1.12 6.69-2.5 9.33-.3.51-.81.57-1.28.24-.64-.44-1.39-.88-2.1-1.25-.51-.27-.68-.78-.37-1.28 2.2-4.26 2.37-10.11 2.37-14.53v-10.85c0-.51.34-.85.84-.85h10c.51 0 .84.34.84.85v23.32l-.03.71c0 .41.1.44.27.07 2.13-4.39 2.3-10 2.3-14.26v-9.83c0-.51.34-.85.84-.85h10.82c.51 0 .84.34.84.85l-.01-.03zm-21.96 13.49h2.1c.3 0 .51-.2.51-.51v-2.06c0-.3-.2-.51-.51-.51h-2.4c-.14 0-.2.07-.2.2v.2c0 .68 0 1.39-.03 2.13 0 .34.2.54.54.54l-.01.01zm2.09-10.14h-2.1c-.3 0-.51.2-.51.51v1.99c0 .3.2.51.51.51h2.1c.3 0 .51-.2.51-.51v-1.99c0-.3-.2-.51-.51-.51zm12.24 10.14h2.64c.3 0 .51-.2.51-.51v-2.06c0-.3-.2-.51-.51-.51h-2.57c-.3 0-.51.2-.51.51 0 .64-.03 1.32-.07 2.03-.03.34.17.54.51.54zm2.63-10.14h-2.57c-.3 0-.51.2-.51.51v1.99c0 .3.2.51.51.51h2.57c.3 0 .51-.2.51-.51v-1.99c0-.3-.2-.51-.51-.51z" fill="url(#paint17_linear_1280_9287)"/><path d="M298.968 170.991l2.3.98c.41.17.61.54.47.98-1.05 3.48-2.5 6.42-4.43 8.79-.41.51-.3 1.01.27 1.28 1.76.84 3.72 1.49 5.95 1.99.98.2 1.15.78.54 1.55-.61.77-1.22 1.72-1.66 2.5-.2.34-.57.51-.95.41-3.11-.78-5.78-1.86-8.08-3.31-.27-.2-.68-.2-.95 0a28.879 28.879 0 01-6.73 3.31c-.44.14-.84-.03-1.05-.41-.37-.71-.88-1.49-1.39-2.2-.51-.71-.34-1.25.47-1.52 1.69-.54 3.24-1.25 4.66-2.1.51-.3.54-.81.17-1.28-.71-.84-1.39-1.79-2.03-2.77-.61-.95-1.18-.91-1.62.14-1.32 3.08-3.11 6.05-5.58 8.58-.41.41-.91.34-1.28-.07-.68-.71-1.49-1.42-2.4-2.03-.57-.41-.64-.95-.1-1.45 4.5-4.23 6.42-10 7.33-15.11.1-.57-.24-.98-.81-.98h-5.21c-.51 0-.84-.34-.84-.85v-2.84c0-.51.34-.85.84-.85h5.88c.47 0 .81-.3.81-.78.07-1.12.1-2.1.13-2.91 0-.47.34-.78.81-.78h3.21c.54 0 .88.34.84.88 0 .78-.07 1.66-.13 2.67-.03.54.3.91.88.91h14.06c.51 0 .84.34.84.85v2.84c0 .51-.34.85-.84.85h-14.77c-.44 0-.78.27-.85.68-.03.37-.1.71-.17 1.08-.1.61.2 1.01.85 1.01h9.46l.54-.1c.17-.03.37-.03.51.03l.05.03zm-4.12 4.57h-4.66c-.51 0-.71.3-.41.74.74 1.15 1.59 2.2 2.57 3.18.24.2.51.2.71-.03.85-.98 1.59-2.03 2.23-3.18.24-.41.03-.71-.44-.71z" fill="url(#paint18_linear_1280_9287)"/><path d="M317.119 172.55v9.02c0 .13.03.3.13.44 1.18 1.86 3.31 2.57 6.39 2.7 3.51.17 9.8.1 14.4-.24.88-.03 1.22.44.91 1.25-.3.85-.61 1.86-.81 2.74a.92.92 0 01-.81.68c-4.06.2-10 .27-13.79.07-3.48-.17-5.88-.81-7.91-2.81-.37-.37-.84-.41-1.22-.07-.91.78-1.83 1.59-2.91 2.47-.51.41-1.01.27-1.28-.3l-1.49-3.21c-.2-.44-.07-.88.34-1.08 1.01-.61 2.1-1.25 3.14-1.99.2-.14.34-.41.34-.68v-4.66c0-.51-.34-.84-.85-.84h-1.62c-.51 0-.84-.34-.84-.85v-2.64c0-.51.34-.84.84-.84h6.19c.51 0 .84.34.84.84h.01zm.1-7.23l-2.37 1.96c-.44.37-.95.27-1.28-.17-.91-1.15-2.33-2.5-3.65-3.62-.47-.41-.47-.95.03-1.35l2.13-1.69c.3-.24.71-.27 1.01-.03 1.49 1.12 3.18 2.53 4.26 3.79.3.34.27.81-.13 1.12v-.01zm20.68 9.97h-5.07c-.88 0-1.18.51-.64 1.18 1.22 1.52 2.91 2.74 5.1 3.48.91.3 1.08.88.44 1.62-.54.68-1.08 1.45-1.49 2.1-.2.37-.61.54-1.01.41-2.57-.98-4.5-2.47-5.98-4.5-.47-.68-1.01-.68-1.55-.03-1.32 1.66-3.21 3.18-5.95 4.46-.41.2-.81.07-1.08-.3-.44-.54-1.01-1.18-1.59-1.72-.64-.68-.54-1.25.3-1.59 2.77-1.18 4.33-2.57 5.17-4.02.37-.61.03-1.08-.71-1.08h-4.93c-.51 0-.84-.34-.84-.85v-2.47c0-.51.34-.84.84-.84h5.85c.51 0 .84-.34.84-.85v-.64c0-.51-.34-.84-.84-.84h-4.7c-.51 0-.84-.34-.84-.85v-2.4c0-.51.34-.85.84-.85h.61c.74 0 1.05-.47.71-1.15-.27-.57-.61-1.18-.98-1.76-.34-.54-.17-1.05.41-1.28l2.4-.95c.34-.14.74-.03.95.24.84 1.12 1.66 2.43 2.13 3.55.17.41-.03.81-.47 1.01-.47.2-.47.34 0 .34h4.7c.47 0 .47-.1.03-.27-.44-.14-.57-.51-.34-.91.68-1.05 1.32-2.37 1.79-3.52.2-.44.61-.64 1.08-.51l2.94.88c.64.2.81.71.44 1.28l-1.18 1.69c-.61.84-.34 1.35.68 1.35h.81c.51 0 .84.34.84.85v2.4c0 .51-.34.85-.84.85h-5.64c-.51 0-.84.34-.84.84v.64c0 .51.34.85.84.85h6.79c.51 0 .84.34.84.84v2.47c0 .51-.34.85-.84.85h-.02z" fill="url(#paint19_linear_1280_9287)"/><path d="M343.273 173.771c0-.51.34-.84.85-.84h1.15c.51 0 .84.34.84.84v3.01c0 2.84-.13 6.12-.88 8.96-.24.81-.81.95-1.49.44-.27-.24-.58-.47-.84-.64h-.07c-.3-.27-.44-.64-.34-1.01.64-2.47.78-5.37.78-7.81v-2.95zm-.37-2.98v-2.33c0-.51.34-.85.84-.85h9.9c.51 0 .85.34.85.85v2.33c0 .51-.34.84-.85.84h-2.03c-.51 0-.84.34-.84.85v16.46c0 .51-.34.85-.85.85h-2.13c-.51 0-.84-.34-.84-.85v-16.46c0-.51-.34-.85-.85-.85h-2.37c-.51 0-.84-.34-.84-.84h.01zm11.02-8.68v2.26c0 .51-.34.85-.84.85h-8.58c-.51 0-.84-.34-.84-.85v-2.26c0-.51.34-.85.84-.85h8.58c.51 0 .84.34.84.85zm-2.27 21.93v-10.31c0-.51.34-.85.85-.85h1.15c.51 0 .85.34.85.85v10.31c0 .51-.34.84-.85.84h-1.15c-.51 0-.85-.34-.85-.84zm18.56 1.83h1.99c.51 0 .84.34.84.85v1.69c0 .51-.34.84-.84.84h-16.83c-.51 0-.84-.34-.84-.84v-1.69c0-.51.34-.85.84-.85h2.43c.68 0 1.01-.44.78-1.01v-.07c-.13-.24-.24-.54-.37-.81-.24-.47-.07-.88.47-1.01.51-.13.47-.24-.03-.24h-1.32c-.51 0-.84-.34-.84-.84v-4.66c0-.51.34-.84.84-.84h13.08c.51 0 .84.34.84.84v4.66c0 .51-.34.84-.84.84h-1.08c-.57 0-.57.1 0 .24.54.14.74.57.47 1.05v.07c-.14.17-.24.37-.34.54-.41.74-.1 1.25.74 1.25l.01-.01zm2.36-12.85v1.72c0 .51-.34.85-.85.85h-15.68c-.51 0-.85-.34-.85-.85v-1.72c0-.51.34-.84.85-.84h15.68c.51 0 .85.34.85.84zm-.4-10.91v8.38c0 .51-.34.84-.84.84h-14.97c-.51 0-.84-.34-.84-.84v-8.38c0-.51.34-.85.84-.85h2.47c.51 0 .84-.34.84-.84v-.27c0-.51.34-.85.84-.85h1.69c.51 0 .84.34.84.85v.44c0 .41.27.68.68.68.41 0 .68-.27.68-.68v-.44c0-.51.34-.85.84-.85h1.69c.51 0 .84.34.84.85v.27c0 .51.34.84.84.84h2.7c.51 0 .84.34.84.85h.02zm-13.01 2.4c0 .3.2.51.51.51h.2c.3 0 .51-.2.51-.51s-.2-.51-.51-.51h-.2c-.3 0-.51.2-.51.51zm0 3.54c0 .3.2.51.51.51h.24c.27 0 .47-.2.47-.51 0-.27-.2-.47-.47-.47h-.24c-.3 0-.51.2-.51.47zm1.14 11.46v.07c0 .3.2.51.51.51h5.95c.3 0 .51-.2.51-.51v-.07c0-.3-.2-.51-.51-.51h-5.95c-.3 0-.51.2-.51.51zm5.08 3.21h-2.84c-.54 0-.71.3-.47.78.3.64.57 1.32.74 1.89.03.17-.07.34-.24.37-.2.07-.2.1 0 .1h2.57c.17 0 .17-.03 0-.07-.17-.03-.24-.17-.17-.34.27-.64.61-1.39.85-2.1.17-.37-.03-.64-.44-.64v.01zm-1.86-17.71h.37c.3 0 .51-.2.51-.51s-.2-.51-.51-.51h-.37c-.3 0-.51.2-.51.51s.2.51.51.51zm.4 2.57h-.41c-.3 0-.51.2-.51.47 0 .3.2.51.51.51h.41c.27 0 .47-.2.47-.51 0-.27-.2-.47-.47-.47zm4.4-3.07c0-.3-.2-.51-.51-.51h-.27c-.3 0-.51.2-.51.51s.2.51.51.51h.27c.3 0 .51-.2.51-.51zm0 3.54c0-.27-.2-.47-.47-.47h-.3c-.3 0-.51.2-.51.47 0 .3.2.51.51.51h.3c.27 0 .47-.2.47-.51z" fill="url(#paint20_linear_1280_9287)"/></g></g><defs><linearGradient id="paint0_linear_1280_9287" x1="261.854" y1="210.621" x2="262.044" y2="243.88" gradientUnits="userSpaceOnUse"><stop stop-color="#fff"/><stop offset="1" stop-color="#FFF1B4"/></linearGradient><linearGradient id="paint1_linear_1280_9287" x1="287.401" y1="210.47" x2="287.591" y2="243.73" gradientUnits="userSpaceOnUse"><stop stop-color="#fff"/><stop offset="1" stop-color="#FFF1B4"/></linearGradient><linearGradient id="paint2_linear_1280_9287" x1="315.434" y1="210.31" x2="315.624" y2="243.57" gradientUnits="userSpaceOnUse"><stop stop-color="#fff"/><stop offset="1" stop-color="#FFF1B4"/></linearGradient><linearGradient id="paint3_linear_1280_9287" x1="347.469" y1="210.131" x2="347.649" y2="243.391" gradientUnits="userSpaceOnUse"><stop stop-color="#fff"/><stop offset="1" stop-color="#FFF1B4"/></linearGradient><linearGradient id="paint4_linear_1280_9287" x1="89.598" y1="86.301" x2="89.598" y2="220.291" gradientUnits="userSpaceOnUse"><stop stop-color="#fff"/><stop offset="1" stop-color="#FFF1B4"/></linearGradient><linearGradient id="paint5_linear_1280_9287" x1="30.05" y1="92.871" x2="30.05" y2="211.47" gradientUnits="userSpaceOnUse"><stop stop-color="#fff"/><stop offset="1" stop-color="#FFF1B4"/></linearGradient><linearGradient id="paint6_linear_1280_9287" x1="147.568" y1="29.401" x2="147.568" y2="158.791" gradientUnits="userSpaceOnUse"><stop stop-color="#fff"/><stop offset="1" stop-color="#FFF1B4"/></linearGradient><linearGradient id="paint7_linear_1280_9287" x1="147.899" y1="32.21" x2="147.899" y2="150.81" gradientUnits="userSpaceOnUse"><stop stop-color="#fff"/><stop offset="1" stop-color="#FFF1B4"/></linearGradient><linearGradient id="paint8_linear_1280_9287" x1="164.62" y1="32.211" x2="164.62" y2="150.811" gradientUnits="userSpaceOnUse"><stop stop-color="#fff"/><stop offset="1" stop-color="#FFF1B4"/></linearGradient><linearGradient id="paint9_linear_1280_9287" x1="130.387" y1="32.211" x2="130.387" y2="150.811" gradientUnits="userSpaceOnUse"><stop stop-color="#fff"/><stop offset="1" stop-color="#FFF1B4"/></linearGradient><linearGradient id="paint10_linear_1280_9287" x1="206.552" y1="32.21" x2="206.552" y2="150.81" gradientUnits="userSpaceOnUse"><stop stop-color="#fff"/><stop offset="1" stop-color="#FFF1B4"/></linearGradient><linearGradient id="paint11_linear_1280_9287" x1="206.74" y1="32.21" x2="206.74" y2="150.81" gradientUnits="userSpaceOnUse"><stop stop-color="#fff"/><stop offset="1" stop-color="#FFF1B4"/></linearGradient><linearGradient id="paint12_linear_1280_9287" x1="206.35" y1="32.211" x2="206.35" y2="150.811" gradientUnits="userSpaceOnUse"><stop stop-color="#fff"/><stop offset="1" stop-color="#FFF1B4"/></linearGradient><linearGradient id="paint13_linear_1280_9287" x1="406.051" y1="46.77" x2="406.051" y2="149.11" gradientUnits="userSpaceOnUse"><stop stop-color="#fff"/><stop offset="1" stop-color="#FFF1B4"/></linearGradient><linearGradient id="paint14_linear_1280_9287" x1="408.961" y1="46.771" x2="408.961" y2="149.111" gradientUnits="userSpaceOnUse"><stop stop-color="#fff"/><stop offset="1" stop-color="#FFF1B4"/></linearGradient><linearGradient id="paint15_linear_1280_9287" x1="300.749" y1="56.89" x2="300.749" y2="135.54" gradientUnits="userSpaceOnUse"><stop stop-color="#fff"/><stop offset="1" stop-color="#FFF1B4"/></linearGradient><linearGradient id="paint16_linear_1280_9287" x1="222.578" y1="160.88" x2="222.578" y2="184.98" gradientUnits="userSpaceOnUse"><stop stop-color="#fff"/><stop offset="1" stop-color="#FFE5D9"/></linearGradient><linearGradient id="paint17_linear_1280_9287" x1="255.658" y1="160.88" x2="255.658" y2="184.98" gradientUnits="userSpaceOnUse"><stop stop-color="#fff"/><stop offset="1" stop-color="#FFE5D9"/></linearGradient><linearGradient id="paint18_linear_1280_9287" x1="289.818" y1="160.881" x2="289.818" y2="184.981" gradientUnits="userSpaceOnUse"><stop stop-color="#fff"/><stop offset="1" stop-color="#FFE5D9"/></linearGradient><linearGradient id="paint19_linear_1280_9287" x1="323.849" y1="160.88" x2="323.849" y2="184.98" gradientUnits="userSpaceOnUse"><stop stop-color="#fff"/><stop offset="1" stop-color="#FFE5D9"/></linearGradient><linearGradient id="paint20_linear_1280_9287" x1="357.753" y1="160.881" x2="357.753" y2="184.981" gradientUnits="userSpaceOnUse"><stop stop-color="#fff"/><stop offset="1" stop-color="#FFE5D9"/></linearGradient></defs></svg>