<svg width="290" height="238" viewBox="0 0 290 238" fill="none" xmlns="http://www.w3.org/2000/svg"><g clip-path="url(#clip0_1282_9459)"><mask id="mask0_1282_9459" style="mask-type:luminance" maskUnits="userSpaceOnUse" x="0" y="0" width="290" height="238"><path d="M290 0H0v237.936h290V0z" fill="#fff"/></mask><g mask="url(#mask0_1282_9459)"><mask id="mask1_1282_9459" style="mask-type:luminance" maskUnits="userSpaceOnUse" x="0" y="0" width="290" height="167"><path d="M290 0H0v166.193h290V0z" fill="#fff"/></mask><g mask="url(#mask1_1282_9459)"><path d="M57.306 3.62c-.05-.024-.1-.043-.15-.068v.006c.05.02.094.044.144.063h.006z" fill="#F9BA55"/><path d="M169.791 11.206c-1.029 0-1.889 1.153-1.889 2.786 0 1.54.848 2.786 1.889 2.786s1.888-1.247 1.888-2.786c0-1.64-.835-2.786-1.888-2.786zm15.189 1.695v.044s.013-.025 0-.044zm48.127-1.695c-1.028 0-1.888 1.153-1.888 2.786 0 1.54.847 2.786 1.888 2.786s1.889-1.247 1.889-2.786c0-1.64-.836-2.786-1.889-2.786zm15.186 1.695v.044s.012-.025 0-.044z" fill="#58393E"/><path d="M282.341 6.962c-.735 0-1.533.224-2.362.667l-1.365.716c-.667-.748-1.682-1.209-2.86-1.209h-4.662a2.183 2.183 0 00-2.181 2.182v1.87c0 1.053.747 1.931 1.738 2.137a3.14 3.14 0 00-.05.542v.069c0 .156.019.305.05.455l-.704.374a3.346 3.346 0 00-1.888-.58c-.349 0-.686.05-.998.15a4.88 4.88 0 00-.828-1.552c.498-.704.754-1.44.754-2.2 0-1.963-1.596-3.447-3.709-3.447h-4.661a2.184 2.184 0 00-2.182 2.182v1.87c0 1.053.748 1.931 1.739 2.137-.031.175-.05.355-.05.542v.063c0 .155.019.305.05.454l-.704.374a3.35 3.35 0 00-2.649-.492c-.174-.673-.455-1.284-.866-1.782.324-.38.517-.873.517-1.409V9.311a2.183 2.183 0 00-2.181-2.181h-5.759c-.667 0-1.253.305-1.652.773a5.556 5.556 0 00-3.147-.954c-1.677 0-3.21.692-4.319 1.87a5.754 5.754 0 00-4.294-1.87 5.84 5.84 0 00-4.4 1.976c-.966-1.21-2.499-1.976-4.257-1.976-2.381 0-4.481 1.371-5.485 3.584a2.353 2.353 0 00-.193.785h-4.867c-.281 0-.542.056-.786.15v-1.035c0-2.02-1.414-3.484-3.359-3.484-.735 0-1.533.225-2.362.667l-2.58 1.359a2.18 2.18 0 00-.947 2.88l.928 1.925c.256.536.723.941 1.284 1.128.212.069.43.106.648.106v1.745a3.386 3.386 0 00-3.284-2.58 3.35 3.35 0 00-1.521.361v-4.107c0-2.02-1.415-3.484-3.359-3.484-.736 0-1.533.225-2.362.667l-2.58 1.359a2.181 2.181 0 00-.948 2.88l.929 1.925a2.179 2.179 0 001.938 1.234v1.745a3.387 3.387 0 00-4.045-2.493c-.174-.673-.455-1.284-.866-1.782.324-.38.517-.873.517-1.409V9.311a2.183 2.183 0 00-2.181-2.181h-5.759a2.16 2.16 0 00-1.651.773 5.56 5.56 0 00-3.148-.954 5.899 5.899 0 00-4.319 1.87 5.752 5.752 0 00-4.294-1.87c-1.72 0-3.309.736-4.4 1.976-.966-1.21-2.499-1.976-4.257-1.976-2.381 0-4.481 1.371-5.484 3.584a2.178 2.178 0 00.916 2.798l1.178.66-.48.418c-1.197 1.016-1.452 2.2-1.452 3.01 0 1.939 1.564 3.404 3.639 3.404h5.08c.748 0 1.408-.38 1.801-.954a5.707 5.707 0 003.459 1.147 5.71 5.71 0 003.97-1.583c.648.847 1.714 1.39 2.967 1.39h5.079c.542 0 1.035-.206 1.415-.536a6.285 6.285 0 002.966.716c1.365 0 2.587-.436 3.528-1.171a3.397 3.397 0 002.537 1.146c1.583 0 2.916-1.103 3.284-2.58v.25c0 1.202.979 2.18 2.181 2.18h2.026a2.18 2.18 0 001.533-.629 3.376 3.376 0 002.169.786 3.395 3.395 0 003.285-2.58v.249c0 1.203.978 2.181 2.181 2.181h2.025a2.184 2.184 0 002.182-2.181v-1.359c.243.093.511.15.785.15h5.104c.044 0 .081-.013.125-.013 0 1.938 1.564 3.397 3.64 3.397h5.079a2.18 2.18 0 001.801-.954 5.71 5.71 0 003.459 1.147 5.71 5.71 0 003.97-1.583c.648.848 1.714 1.39 2.967 1.39h5.079a2.15 2.15 0 001.415-.536 6.287 6.287 0 002.967.716c1.365 0 2.586-.436 3.527-1.171a3.398 3.398 0 002.537 1.147 3.32 3.32 0 002.499-1.116c1.003.742 2.256 1.16 3.671 1.16s2.736-.474 3.702-1.266a3.391 3.391 0 002.611 1.222c.991 0 1.883-.43 2.5-1.116 1.003.742 2.256 1.16 3.67 1.16 2.338 0 4.251-1.216 5.086-3.042v.667c0 1.203.979 2.181 2.181 2.181h2.026a2.183 2.183 0 002.181-2.181v-8.215c0-2.019-1.414-3.484-3.359-3.484l-.019.007zM159.451 18.66c-.972 0-1.459-.555-1.459-1.222 0-.53.225-.96.68-1.346l2.511-2.194c.692-.623 1.066-1.065 1.066-1.732 0-.611-.511-1.122-1.29-1.122s-1.44.555-1.776 1.278l-1.552-.873c.598-1.315 1.845-2.3 3.496-2.3 1.858 0 3.148 1.29 3.148 2.842 0 1.178-.474 2.026-1.334 2.774l-2.3 2.025h3.883v1.87h-5.079.006zm10.339.193c-2.374 0-3.97-2.138-3.97-4.855 0-2.717 1.596-4.855 3.97-4.855 2.375 0 3.97 2.038 3.97 4.855 0 2.817-1.583 4.855-3.97 4.855zm6.937-.193c-.972 0-1.458-.555-1.458-1.222 0-.53.224-.96.679-1.346l2.512-2.194c.691-.623 1.065-1.065 1.065-1.732 0-.611-.511-1.122-1.29-1.122s-1.439.555-1.776 1.278l-1.552-.873c.598-1.315 1.845-2.3 3.497-2.3 1.857 0 3.147 1.29 3.147 2.842 0 1.178-.474 2.026-1.334 2.774l-2.3 2.025h3.883v1.87h-5.079.006zm9.461.18c-1.496 0-2.718-.666-3.303-1.82l1.651-1.04c.306.692.904 1.097 1.652 1.097.748 0 1.334-.53 1.334-1.234 0-.848-.555-1.21-1.471-1.21h-1.315c-.96 0-1.527-.566-1.527-1.514V9.318h5.758v1.763l-3.982.013v1.8h1.402c1.945 0 3.123.905 3.123 2.818s-1.359 3.122-3.316 3.122l-.006.007zm6.058-.03c-.68 0-1.222-.555-1.222-1.222 0-.667.542-1.222 1.222-1.222.679 0 1.209.555 1.209 1.222a1.22 1.22 0 01-1.209 1.221zm7.491-.15h-2.025v-6.962s-.025.013-.044.025l-2.107 1.122-.928-1.926 2.58-1.358c.442-.237.929-.418 1.346-.418.711 0 1.178.474 1.178 1.303v8.214zm3.708.15a1.223 1.223 0 01-1.221-1.222c0-.667.542-1.222 1.221-1.222.68 0 1.209.555 1.209 1.222a1.22 1.22 0 01-1.209 1.221zm7.492-.15h-2.026v-6.962s-.025.013-.043.025l-2.107 1.122-.929-1.926 2.581-1.358c.442-.237.928-.418 1.346-.418.71 0 1.178.474 1.178 1.303v8.214zm8.071-3.384h-5.105v-1.764h5.105v1.764zm3.758 3.384c-.972 0-1.459-.555-1.459-1.222 0-.53.225-.96.68-1.346l2.511-2.194c.692-.623 1.066-1.065 1.066-1.732 0-.611-.511-1.122-1.29-1.122s-1.44.555-1.776 1.278l-1.552-.873c.598-1.315 1.845-2.3 3.496-2.3 1.858 0 3.148 1.29 3.148 2.842 0 1.178-.474 2.026-1.334 2.774l-2.3 2.025h3.883v1.87h-5.079.006zm10.339.193c-2.374 0-3.97-2.138-3.97-4.855 0-2.717 1.596-4.855 3.97-4.855 2.375 0 3.97 2.038 3.97 4.855 0 2.817-1.583 4.855-3.97 4.855zm5.479-1.415c0-.53.224-.96.679-1.346l2.512-2.194c.691-.623 1.065-1.065 1.065-1.732 0-.611-.511-1.122-1.29-1.122s-1.439.555-1.776 1.278l-1.552-.873c.598-1.315 1.845-2.3 3.497-2.3 1.857 0 3.147 1.29 3.147 2.842 0 1.178-.474 2.026-1.334 2.774l-2.3 2.025h3.883v1.87h-5.079c-.972 0-1.459-.555-1.459-1.222h.007zm10.919 1.403c-1.496 0-2.718-.667-3.303-1.82l1.651-1.041c.306.692.904 1.097 1.652 1.097.748 0 1.334-.53 1.334-1.234 0-.848-.555-1.21-1.471-1.21h-1.315c-.96 0-1.527-.566-1.527-1.514V9.318h5.758v1.763l-3.982.013v1.8h1.402c1.945 0 3.123.905 3.123 2.818s-1.359 3.122-3.316 3.122l-.006.007zm6.064-.032a1.224 1.224 0 01-1.222-1.221c0-.667.543-1.222 1.222-1.222.679 0 1.209.555 1.209 1.222a1.22 1.22 0 01-1.209 1.221zm6.17.044c-1.571 0-2.805-.68-3.453-2.05l1.745-.929c.306.76.96 1.153 1.733 1.153.773 0 1.359-.486 1.359-1.19 0-.667-.543-1.085-1.315-1.085h-.499c-.623 0-.997-.417-1.01-.872 0-.33.181-.636.474-.941l1.62-1.608c.044-.025.069-.044.069-.1 0-.025-.025-.025-.056-.025h-3.802v-1.87h4.662c.997 0 1.527.586 1.527 1.265 0 .43-.237.86-.655 1.303l-1.427 1.44h.181c1.19 0 2.219 1.065 2.219 2.524 0 1.72-1.39 2.998-3.372 2.998v-.013zm6.313-.044a1.223 1.223 0 01-1.221-1.221c0-.667.542-1.222 1.221-1.222.68 0 1.21.555 1.21 1.222 0 .667-.543 1.221-1.21 1.221zm6.171.044c-1.571 0-2.805-.68-3.453-2.05l1.745-.929c.305.76.96 1.153 1.732 1.153.773 0 1.359-.486 1.359-1.19 0-.667-.542-1.085-1.315-1.085h-.499c-.623 0-.997-.417-1.009-.872 0-.33.181-.636.473-.941l1.621-1.608c.044-.025.068-.044.068-.1 0-.025-.024-.025-.056-.025h-3.801v-1.87h4.661c.998 0 1.527.586 1.527 1.265 0 .43-.236.86-.654 1.303l-1.427 1.44h.181c1.19 0 2.218 1.065 2.218 2.524 0 1.72-1.39 2.998-3.371 2.998v-.013zm9.298-.193h-2.025v-6.962s-.025.013-.044.025l-2.106 1.122-.929-1.926 2.58-1.358c.443-.237.929-.418 1.346-.418.711 0 1.178.474 1.178 1.303v8.214z" fill="#58393E"/><path d="M164.53 16.784h-3.883l2.3-2.025c.86-.748 1.333-1.596 1.333-2.774 0-1.552-1.29-2.842-3.147-2.842-1.651 0-2.898.985-3.496 2.3l1.552.872c.33-.723.984-1.277 1.776-1.277.791 0 1.29.51 1.29 1.122 0 .666-.374 1.109-1.066 1.732l-2.511 2.194c-.455.386-.68.816-.68 1.346 0 .667.486 1.222 1.459 1.222h5.079v-1.87h-.006zm9.224-2.786c0-2.817-1.583-4.855-3.97-4.855-2.387 0-3.972 2.038-3.972 4.855 0 2.817 1.597 4.855 3.972 4.855 2.374 0 3.97-2.138 3.97-4.855zm-3.964 2.786c-1.041 0-1.89-1.246-1.89-2.786 0-1.639.861-2.786 1.89-2.786 1.028 0 1.888 1.153 1.888 2.786 0 1.54-.847 2.786-1.888 2.786zm12.009 1.876v-1.87h-3.883l2.3-2.025c.86-.748 1.334-1.596 1.334-2.774 0-1.551-1.29-2.842-3.147-2.842-1.652 0-2.898.985-3.497 2.3l1.552.873c.33-.723.985-1.278 1.776-1.278.792 0 1.29.511 1.29 1.122 0 .667-.373 1.11-1.065 1.732l-2.512 2.194c-.455.387-.679.817-.679 1.347 0 .666.486 1.221 1.458 1.221h5.08-.007zm4.583-5.759h-1.403v.044V11.1l3.983-.012V9.324h-5.759v3.802c0 .94.567 1.514 1.527 1.514h1.315c.916 0 1.471.361 1.471 1.21 0 .703-.567 1.233-1.334 1.233-.766 0-1.346-.405-1.652-1.097l-1.651 1.041c.58 1.153 1.801 1.82 3.303 1.82 1.957 0 3.316-1.29 3.316-3.123 0-1.832-1.178-2.817-3.123-2.817l.007-.006zm5.863 3.465c-.679 0-1.222.555-1.222 1.222 0 .667.543 1.221 1.222 1.221.679 0 1.209-.554 1.209-1.221a1.22 1.22 0 00-1.209-1.222zm6.314-7.223c-.417 0-.903.18-1.346.418l-2.58 1.358.928 1.926 2.107-1.122s.025-.025.044-.025v6.962h2.025v-8.214c0-.83-.474-1.303-1.178-1.303zm4.885 7.223a1.223 1.223 0 000 2.443c.68 0 1.209-.554 1.209-1.221a1.22 1.22 0 00-1.209-1.222zm6.314-7.223c-.417 0-.903.18-1.346.418l-2.58 1.358.929 1.926 2.106-1.122s.025-.025.044-.025v6.962h2.025v-8.214c0-.83-.473-1.303-1.178-1.303zm9.249 4.369h-5.105v1.763h5.105v-1.763zm8.839 3.272h-3.883l2.3-2.025c.86-.748 1.334-1.596 1.334-2.774 0-1.552-1.29-2.842-3.147-2.842-1.652 0-2.899.985-3.497 2.3l1.552.872c.33-.723.985-1.277 1.776-1.277.792 0 1.29.51 1.29 1.122 0 .666-.374 1.109-1.065 1.732l-2.512 2.194c-.455.386-.679.816-.679 1.346 0 .667.486 1.222 1.458 1.222h5.079v-1.87h-.006zm9.223-2.786c0-2.817-1.583-4.855-3.97-4.855-2.387 0-3.97 2.038-3.97 4.855 0 2.817 1.595 4.855 3.97 4.855 2.374 0 3.97-2.138 3.97-4.855zm-3.964 2.786c-1.041 0-1.888-1.246-1.888-2.786 0-1.639.86-2.786 1.888-2.786 1.029 0 1.889 1.153 1.889 2.786 0 1.54-.848 2.786-1.889 2.786zm12.011 1.876v-1.87h-3.883l2.3-2.025c.86-.748 1.333-1.596 1.333-2.774 0-1.551-1.29-2.842-3.147-2.842-1.652 0-2.898.985-3.496 2.3l1.552.873c.33-.723.984-1.278 1.776-1.278.791 0 1.29.511 1.29 1.122 0 .667-.374 1.11-1.066 1.732l-2.512 2.194c-.455.387-.679.817-.679 1.347 0 .666.486 1.221 1.459 1.221h5.079-.006zm4.582-5.759h-1.402v.044V11.1l3.982-.012V9.324h-5.759v3.802c0 .94.568 1.514 1.527 1.514h1.315c.917 0 1.471.361 1.471 1.21 0 .703-.567 1.233-1.334 1.233-.766 0-1.346-.405-1.651-1.097l-1.652 1.041c.58 1.153 1.801 1.82 3.303 1.82 1.957 0 3.316-1.29 3.316-3.123 0-1.832-1.178-2.817-3.122-2.817l.006-.006zm7.072 4.687a1.22 1.22 0 00-1.209-1.222c-.666 0-1.221.555-1.221 1.222 0 .667.542 1.221 1.221 1.221.68 0 1.209-.554 1.209-1.221zm8.34-1.733c0-1.458-1.029-2.524-2.219-2.524h-.181l1.427-1.44c.418-.442.655-.872.655-1.302 0-.68-.53-1.265-1.527-1.265h-4.662v1.87h3.802s.056 0 .056.024c0 .056-.025.069-.069.1l-1.62 1.608c-.293.305-.474.61-.474.941.013.455.387.873 1.01.873h.498c.78 0 1.316.417 1.316 1.084 0 .704-.599 1.19-1.359 1.19-.761 0-1.427-.386-1.733-1.152l-1.745.928c.655 1.371 1.889 2.05 3.453 2.05 1.982 0 3.372-1.277 3.372-2.997v.012zm4.149 1.733a1.22 1.22 0 00-1.209-1.222c-.667 0-1.222.555-1.222 1.222 0 .667.542 1.221 1.222 1.221.679 0 1.209-.554 1.209-1.221zm6.116-4.257h-.18l1.427-1.44c.417-.442.654-.872.654-1.302 0-.68-.53-1.265-1.527-1.265h-4.662v1.87h3.802s.056 0 .056.024c0 .056-.025.069-.068.1l-1.621 1.608c-.293.305-.473.61-.473.941.012.455.386.873 1.009.873h.499c.779 0 1.315.417 1.315 1.084 0 .704-.598 1.19-1.359 1.19-.76 0-1.427-.386-1.732-1.152l-1.745.928c.654 1.371 1.888 2.05 3.452 2.05 1.982 0 3.372-1.277 3.372-2.997 0-1.459-1.028-2.524-2.219-2.524v.012zm6.965-4.188c-.417 0-.903.18-1.346.418l-2.58 1.358.929 1.926 2.106-1.122s.025-.025.044-.025v6.962h2.025v-8.214c0-.83-.473-1.303-1.178-1.303z" fill="#fff"/><path d="M282.183 145.097a1.25 1.25 0 01.006-1.103l6.127-12.372a5.589 5.589 0 00-.262-5.459 5.608 5.608 0 00-2.692-2.256 6.175 6.175 0 00-.424-.86 5.585 5.585 0 00-4.774-2.655H237.79v-.91c0-.96-.48-1.795-1.216-2.275.063-.237.1-.48.1-.742v-2.487a2.698 2.698 0 00.823-1.957v-1.072c0-.436-.1-.847-.274-1.209a2.46 2.46 0 00.025-.367v-5.223a2.68 2.68 0 00-2.705-2.711h-.412v-.405a2.68 2.68 0 00-2.705-2.711h-.461a2.68 2.68 0 00-2.275-1.222h-1.053c-.336 0-.654.056-.947.162a2.776 2.776 0 00-.947-.162h-1.054c-.966 0-1.801.48-2.275 1.222h-.311a2.75 2.75 0 00-1.022.193 2.765 2.765 0 00-1.022-.193h-5.348a2.665 2.665 0 00-2.667 2.324l-.056-.018c.031-.374 0-.748-.131-1.104-.281-.779-.923-1.383-1.801-1.657l-1.353-.405c.842.18 1.695.274 2.574.274 6.868 0 10.471-2.674 12.477-10.053.649 1.284 1.222 2.624 1.621 3.833.473 1.42 1.564 2.38 2.954 2.667.056.15.112.306.162.449.605 1.826 2.237 2.904 4.207 2.755 9.754-1.022 17.899-2.618 24.898-4.874 7.012 2.48 14.983 4.12 24.369 5.017l.349.013a4.187 4.187 0 003.609-2.113l.062-.119c.735-1.539 1.801-3.334 2.942-4.936 1.421-2.056 1.196-3.565.76-4.468-.361-.742-1.147-1.62-2.798-1.982a3.318 3.318 0 00-.318-1.135c-.436-.89-1.459-1.981-3.889-2.137-1.247-.1-2.468-.218-3.671-.343 1.807-1.783 3.353-3.627 4.668-5.572.629-.866.873-1.888.679-2.892-.205-1.072-.872-2.006-1.913-2.648l-1.271-.754h4.381c2.25 0 3.951-1.702 3.951-3.952v-2.406c0-1.832-1.128-3.303-2.761-3.783a4.08 4.08 0 00.287-1.527v-1.982c0-1.04-.361-1.963-.972-2.654.611-.692.972-1.615.972-2.655v-1.982c0-.63-.131-1.216-.374-1.733 1.334-.623 2.213-1.957 2.213-3.577v-2.338c0-1.988-1.328-3.546-3.185-3.882-.337-1.864-1.895-3.185-3.883-3.185h-.174c-.443-.536-1.172-1.097-2.369-1.353a3.386 3.386 0 00-.262-.99c-.286-.636-1.047-1.764-2.929-2.145l-4.063-.641c-1.571-.325-3.092.317-3.995 1.62-.505-.61-1.203-1.06-2.038-1.29l-4.008-1.197-.168-.043c-2.063-.443-3.945.554-4.674 2.455a45.692 45.692 0 01-2.468 5.192 3.387 3.387 0 00-.268-.33 3.053 3.053 0 00-.131-.374c-.268-.63-.991-1.74-2.88-2.132a3.36 3.36 0 00-.236-.985c-.268-.635-.998-1.757-2.917-2.137l-4.107-.78-.075-.012c-1.932-.299-3.659.667-4.4 2.45l-.038.105s-.006.02-.012.032a4.144 4.144 0 00-.2-.455c-.504-.966-1.427-1.658-2.542-1.939l-3.871-1.053c-2.031-.58-4.063.449-4.836 2.468-1.34 3.59-3.247 6.962-5.447 9.723a4.013 4.013 0 00-1.334-.511 3.852 3.852 0 00-1.533-2.444 3.848 3.848 0 00-1.371-1.92 39.497 39.497 0 00-1.808-1.364 3.922 3.922 0 00-1.308-1.751c-2.144-1.727-5.285-3.783-8.42-5.516l-.081-.044c-1.552-.779-3.36-.473-4.606.767l-2.481 2.48c-.467-1.67-1.957-2.829-3.826-2.829h-6.837c-2.269 0-3.983 1.714-3.983 3.982 0 1.777.063 3.628.131 5.448h-23.571c-2.268 0-3.982 1.713-3.982 3.982v18.716c0 9.53-.511 19.333-4.232 26.519-.031.069-.062.13-.087.2-.063-.02-.125-.032-.187-.044-.418-1.92-2.02-3.229-4.12-3.229h-.243c0-.087.012-.168.012-.255 1.926-.412 3.235-2.026 3.235-4.132V65.708c0-.66-.131-1.265-.368-1.807 2.101-.293 3.565-1.957 3.565-4.182v-4.182c0-1.533-.698-2.804-1.82-3.54.53-.704.836-1.602.836-2.611V29.037c0-2.1-1.309-3.708-3.229-4.12-.417-1.92-2.019-3.228-4.119-3.228H110.58c-1.913 0-3.409 1.084-3.982 2.717-.574-1.639-2.07-2.717-3.983-2.717H81.774c-2.456 0-4.232 1.782-4.232 4.232v5.497c0 2.1 1.309 3.708 3.229 4.12a4.04 4.04 0 00.704 1.57h-1.502c-2.456 0-4.232 1.782-4.232 4.232v5.659c0 1.8.966 3.24 2.45 3.876-.96.754-1.546 1.939-1.546 3.347v6.482a4.148 4.148 0 00-1.315-1.583l-5.005-3.858-.118-.087c-1.047-.698-2.4-.935-3.547-.63l-1.159.262H38.97c-2.456 0-4.232 1.782-4.232 4.232v6.32c0 2.1 1.309 3.708 3.228 4.119.418 1.92 2.02 3.228 4.12 3.228h10.458c-.143.181-.28.362-.43.549l-.075.075-.592.018c-2.262 0-3.901 1.608-3.901 3.82v4.55h-8.882c.1-1.215.194-2.455.275-3.733.155-2.038-1.16-3.808-3.21-4.375-.355-1.546-1.59-2.773-3.31-3.172l-4.724-.686-.492-.08-.785-.026 1.097-6.051.018-.1c.156-1.172-.13-2.306-.804-3.191a4.188 4.188 0 00-2.387-1.54 4.103 4.103 0 00-.729-1.576c-.68-.898-1.701-1.477-2.88-1.64l-6.55-.666h-.062c-2.3-.169-4.2 1.377-4.524 3.64l-.455 2.966c-.418 2.73-.854 5.547-1.328 8.395H4.286c-2.455 0-4.231 1.783-4.231 4.232v6.32c0 2.1 1.308 3.708 3.228 4.12a4.049 4.049 0 001.29 2.212C3.246 93.324 1.943 98.977.71 103.57a4.12 4.12 0 002.2 4.824l.916.486a4.099 4.099 0 002.2 2.63l3.547 1.883c-1.802 2.212-3.783 4.063-5.996 5.59-1.57 1.047-2.05 2.281-2.175 3.129-.125.86-.019 2.194 1.215 3.696 1.234 1.483 2.45 3.178 3.335 4.649l.074.118c.605.873 1.396 1.465 2.256 1.764.28.424.549.835.786 1.234l.075.119c.903 1.302 2.218 1.994 3.57 1.994.817 0 1.646-.256 2.406-.779a43.71 43.71 0 0010.845-10.514c.367.374.766.673 1.184.897a25.87 25.87 0 011.583 1.845l.081.1c.966 1.115 2.194 1.707 3.465 1.664 1.253-.044 2.425-.704 3.285-1.864l4.269-5.659.075-.106a4.278 4.278 0 00-.175-5.011l-.075-.093a52.63 52.63 0 00-4.088-4.182 54.4 54.4 0 00-2.144-2.206c1.19-3.353 2.181-7.037 3.004-11.144.754.76 1.814 1.216 3.054 1.216h8.077v26.892c0 4.02-.349 8.314-.904 11.219-1.047 5.453-3.197 7.404-5.098 9.13-.505.461-.984.891-1.433 1.378l-.056.062c-1.92 2.225-1.77 4.88.361 6.762a50.626 50.626 0 012.207 2.094c.249.362.548.704.91 1.022.186.162.373.337.567.518.41.442.81.885 1.19 1.315.399.467.81.804 1.215 1.047a62.782 62.782 0 011.901 2.069c1.047 1.234 2.2 1.558 2.992 1.608.087 0 .168.006.249.006.985 0 1.963-.386 2.78-1.109 7.335-5.984 11.361-14.354 11.972-24.893l.019-39.127h12.097c2.456 0 4.232-1.782 4.232-4.231v-5.84c.791.411 1.508.56 2.119.56.268 0 .504-.03.729-.074v5.285c0 3.122-3.204 7.909-4.836 9.666l-.056.063c-1.64 1.901-1.502 4.263.324 5.871a40.67 40.67 0 012.436 2.374c.194.262.418.511.68.742.012.012.03.025.043.037l.493.549c.299.355.642.642 1.01.872a47.05 47.05 0 012.106 2.244c.71.841 1.645 1.34 2.636 1.408.075 0 .15.007.225.007.872 0 1.732-.337 2.449-.966 4.244-3.466 9.286-9.642 9.286-19.408V86.057a4.47 4.47 0 001.571.418v3.253c0 2.1 1.309 3.702 3.228 4.12.418 1.92 2.019 3.228 4.12 3.228h40.859c2.456 0 4.232-1.782 4.232-4.232V91.05c.312.76.867 1.452 1.646 1.995 1.495.978 3.309 2.511 4.892 3.883.405.392.848.698 1.309.91h-3.054c-.48 0-.929.118-1.315.33a2.724 2.724 0 00-1.315-.33h-6.232a2.66 2.66 0 00-2.662 2.256 2.828 2.828 0 00-.561-.674l-1.489-1.358a2.746 2.746 0 00-2.312-.623h-.287l-.474.243c-.879.455-2.125.922-3.471 1.296l-.387-.1c-.667-.174-1.34-.118-1.913.156a2.984 2.984 0 00-.474-.037h-.617a2.675 2.675 0 00-2.524-1.708h-1.77a2.677 2.677 0 00-2.524 1.708h-.617c-1.521 0-2.705 1.19-2.705 2.711v1.284c0 .505.131.978.368 1.377a2.715 2.715 0 00-.617 1.739v1.309c0 .436.1.847.274 1.209a2.733 2.733 0 00-.212 1.066v1.371c0 .754.293 1.427.779 1.913-.642.511-1.016 1.215-1.065 1.982-.05.791.249 1.558.828 2.138.293.311.624.66.848.947l.044.056c.405.48.935.798 1.52.929.131.436.362.841.705 1.178.05.056.099.106.155.162H81.587c-1.957 0-3.74.991-4.774 2.655a5.588 5.588 0 00-.262 5.459l6.127 12.372c.174.349.174.747.006 1.103l-6.251 13.05a5.587 5.587 0 00.311 5.423 5.567 5.567 0 002.674 2.224c.125.306.268.605.443.892a5.583 5.583 0 004.755 2.624h198.77a5.581 5.581 0 004.755-2.624 5.585 5.585 0 00.312-5.422l-6.251-13.051-.019.025zm-60.411-68.769a4.192 4.192 0 00-2.305-2.723c-1.016-.455-2.219-1.178-3.578-2.157a8.236 8.236 0 00-.997-.61 93.612 93.612 0 005.478-12.914c.399-1.09.349-2.206-.137-3.153-.499-.973-1.415-1.677-2.63-2.001l-.137-.031a2.373 2.373 0 00-.044-.2h3.11c1.303 0 2.412-.56 3.129-1.47.474.58 1.072.972 1.757 1.121v9.18c0 1.16.455 2.17 1.197 2.88-.686.704-1.097 1.677-1.097 2.786v4.25c0 1.989 1.328 3.547 3.185 3.883.336 1.864 1.895 3.185 3.883 3.185h2.493c.118.13.249.255.386.38l.623.536h.025c.262.23.536.455.823.68-2.911.442-6.239.835-10.109 1.196-.785.062-1.415.243-1.92.486.032-.23.063-.455.094-.692v-.08c.168-1.74-.804-3.397-2.431-4.133a15.8 15.8 0 01-.81-.392l.012-.006zM74.806 79.745c-.18.667-.2 1.34-.08 1.988h-5.753c2.2-2.58 4.568-5.61 7.086-9.068-.3 2.642-.717 4.992-1.26 7.074l.007.006zm36.528-1.876c.187.068.387.125.586.168.2.91.661 1.683 1.321 2.244.069.15.138.299.2.448.093.225.193.456.299.68h-2.412v-3.546l.006.006zm57.881 18.136c1.52-2.886 2.779-6.226 3.758-9.978.654 1.434 2.032 2.362 3.671 2.362 1.308 0 2.567-.037 3.727-.112a56.313 56.313 0 013.776 4.4 4.27 4.27 0 001.583 1.222 55.152 55.152 0 011.534 1.894c1.383 1.69 3.577 2.044 5.335.873 2.355-1.546 4.63-3.347 6.949-5.485.28.25.567.493.86.717 2.162 2.736 4.68 4.543 7.441 5.354-1.215-.194-2.38.411-2.916 1.564l-.038.087c-.087.218-.181.43-.28.636a14.777 14.777 0 00-.848-1.24 2.683 2.683 0 00-3.135-.867l-1.527.605a2.8 2.8 0 00-1.39 1.221 25.81 25.81 0 00-1.24-.99c-.966-.755-2.331-.748-3.328.03l-1.334 1.06c-.417.337-.71.773-.885 1.247a2.673 2.673 0 00-1.832-.71h-7.043a2.644 2.644 0 00-.716-1.94 2.701 2.701 0 00-1.995-.84h-2c-1.49 0-2.655 1.14-2.686 2.605v.174h-2.076c-.773 0-1.452.312-1.944.81v-.124a2.675 2.675 0 00-2.705-2.705h-.586c.748-.362 1.396-.985 1.876-1.857l-.006-.013z" fill="#58393E"/><path d="M280.162 122.573H81.56c-2.549 0-4.213 2.68-3.079 4.961l6.127 12.372c.467.947.474 2.056.018 3.01l-6.25 13.05c-1.091 2.282.573 4.924 3.103 4.924h198.77c2.531 0 4.195-2.642 3.104-4.924l-6.251-13.05a3.445 3.445 0 01.019-3.01l6.126-12.372c1.134-2.287-.53-4.961-3.079-4.961h-.006z" fill="#D93636"/><path d="M107.374 142.554l.212.025s.069 0 .094.025l1.346.493c.28.118.449.398.355.704-.492 1.626-1.178 2.991-2.025 4.169-.237.331-.163.686.187.873.592.305 1.271.592 1.956.804.636.187.755.592.356 1.109-.331.399-.661.873-.916 1.272-.144.261-.424.38-.686.28a11.752 11.752 0 01-3.085-1.458.669.669 0 00-.729 0c-.804.592-1.671 1.034-2.593 1.458-.305.143-.611 0-.779-.28l-.474-.779c-.355-.493-.61-.399-.61.211v.424c0 .356-.237.592-.593.592h-1.93c-.356 0-.593-.236-.593-.592v-.38c0-.374-.261-.611-.635-.592-2 .143-4.008.28-5.678.424-.355.025-.61-.187-.636-.542l-.118-1.577c-.025-.38.187-.611.567-.636.212-.025.449-.025.686-.05h.05c.305 0 .517-.237.517-.567v-5.279c0-.355-.237-.592-.592-.592h-.474c-.355 0-.592-.237-.592-.592v-1.365c0-.355.237-.592.592-.592h18.996c.356 0 .592.237.592.592v1.365c0 .355-.236.592-.592.592h-8.981c-.355 0-.592.237-.592.592v6.339c0 .492.306.729.779.517.449-.212.898-.449 1.297-.704.33-.212.355-.543.143-.848-.424-.567-.779-1.178-1.134-1.814-.187-.38-.025-.704.38-.822l.187-.05c.492-.144.492-.237-.05-.237h-.611c-.355 0-.592-.237-.592-.592v-1.271c0-.356.237-.593.592-.593H107l.281-.068h.093v.012zm.119-10.04v5.89c0 .355-.237.592-.592.592H93.164c-.355 0-.585-.237-.585-.592v-5.89c0-.355.236-.592.585-.592h13.737c.355 0 .592.237.592.592zm-10.888 9.592H94.84c-.168 0-.28.118-.28.261 0 .162.118.281.28.281h1.764c.143 0 .261-.119.261-.281a.263.263 0 00-.261-.261zm-2.05 3.041c0 .187.118.305.305.305h1.695c.187 0 .305-.118.305-.305s-.118-.305-.305-.305H94.86c-.187 0-.306.118-.306.305zm.354 3.179l1.67-.069a.316.316 0 00.281-.33.272.272 0 00-.28-.281h-1.67a.337.337 0 00-.356.355c0 .212.144.356.355.331v-.006zm9.33-14.092c0-.162-.093-.262-.261-.262h-8.034c-.162 0-.262.094-.262.262s.094.262.262.262h8.034c.162 0 .261-.094.261-.262zm0 2.449a.271.271 0 00-.28-.28h-7.99a.271.271 0 00-.28.28c0 .162.118.281.28.281h7.99c.162 0 .28-.119.28-.281zm.804 8.389h-.966c-.355 0-.473.212-.28.518.162.236.33.473.517.704.168.212.399.187.542 0 .162-.237.331-.474.474-.704.187-.306.069-.518-.28-.518h-.007zm19.512-12.159h7.167c.356 0 .592.237.592.592v1.577c0 .355-.236.592-.592.592h-18.591c-.355 0-.592-.237-.592-.592v-1.577c0-.355.237-.592.592-.592h6.881c.355 0 .592-.237.592-.592v-.567c0-.356.237-.592.592-.592h2.194c.355 0 .592.236.592.592v.567c0 .355.237.592.592.592h-.019zm7.118 9.779v6.506c0 1.39-.262 2.263-1.203 2.736-.823.424-1.839.493-3.067.518a.627.627 0 01-.61-.493l-.187-.779v-.05c-.119-.212-.306-.38-.568-.38h-4.668c-.305 0-.492.187-.492.492 0 .281-.187.474-.474.474h-1.72c-.355 0-.592-.237-.592-.592v-4.973c0-.356.237-.593.592-.593h7.423c.355 0 .592.237.592.593v2.711c0 .33.237.567.567.592.281 0 .567 0 .729-.025h.05c.237 0 .38-.069.38-.306v-3.77c0-.355-.236-.592-.592-.592h-10.701c-.355 0-.592.237-.592.592v6.55c0 .355-.237.592-.592.592h-2c-.356 0-.592-.237-.592-.592v-9.211c0-.356.236-.593.592-.593h17.132c.356 0 .593.237.593.593zm-3.042-5.797v3.958c0 .355-.237.592-.592.592h-11.262c-.355 0-.592-.237-.592-.592v-3.958c0-.355.237-.592.592-.592h11.262c.355 0 .592.237.592.592zm-3.278 2.076v-.187a.336.336 0 00-.355-.355h-5.373a.336.336 0 00-.355.355v.187c0 .212.143.355.355.355h5.373a.336.336 0 00.355-.355zm-1.483 9.311v-.237c0-.212-.144-.355-.356-.355h-2.287a.336.336 0 00-.355.355v.237c0 .212.143.355.355.355h2.287c.212 0 .356-.143.356-.355zm31.132-1.864v1.559c0 .355-.237.592-.592.592h-7.373c-.33 0-.542.212-.542.542v.542c0 1.508-.449 2.169-1.671 2.543-1.109.305-2.542.33-4.263.33a.604.604 0 01-.567-.448 15.113 15.113 0 00-.492-1.228c-.262-.611-.05-.966.611-.941.991.025 2.05.025 2.312.025.449-.025.611-.119.611-.449v-.474a.432.432 0 00-.449-.449h-7.354c-.356 0-.592-.236-.592-.592v-1.558c0-.355.236-.592.592-.592h7.447c.212 0 .356-.143.356-.355s.143-.355.355-.355h.966l.143-.05h.05c.212-.069.424-.162.636-.237.449-.187.399-.33-.069-.33h-7.634c-.356 0-.592-.237-.592-.592v-1.297c0-.355.236-.592.592-.592h12.608l.448-.093c.163-.025.381.025.493.143l1.178 1.035c.355.33.305.704-.094.941-.448.261-.897.517-1.39.754-1.246.66-1.177 1.016.237 1.016h3.466c.355 0 .592.237.592.592l-.019.018zm-.424-13.125v1.533c0 .355-.237.592-.592.592h-18.379c-.356 0-.592-.237-.592-.592v-1.533c0-.355.236-.592.592-.592h6.787c.355 0 .592-.237.592-.592v-.305c0-.356.237-.593.592-.593h2.262c.356 0 .592.237.592.593v.305c0 .355.237.592.592.592h6.974c.356 0 .593.237.593.592h-.013zm-2.829 8.083h-13.693c-.355 0-.592-.236-.592-.592v-3.982c0-.355.237-.592.592-.592h13.693c.355 0 .592.237.592.592v3.982c0 .356-.237.592-.592.592zm-11.026-2.642v.118c0 .212.144.356.356.356h7.447a.338.338 0 00.356-.356v-.118c0-.212-.144-.355-.356-.355h-7.447c-.212 0-.356.143-.356.355z" fill="#fff"/><path d="M156.237 144.929c0-1.957.673-3.54 2.038-5.921l3.59-6.245h5.521l-3.272 5.79c3.509.131 6.189 2.275 6.189 5.921 0 3.995-2.811 6.806-7.049 6.806s-7.024-2.948-7.024-6.351h.007zm9.242-.268c0-1.128-.91-2.25-2.281-2.25s-2.281 1.178-2.281 2.306c0 1.284.91 2.306 2.281 2.306s2.281-1.072 2.281-2.356v-.006z" fill="url(#paint0_linear_1282_9459)"/><path d="M171.105 141.819c0-5.572 3.191-9.461 8.065-9.461s8.065 3.889 8.065 9.461c0 5.572-3.191 9.461-8.065 9.461s-8.065-4.126-8.065-9.461zm11.044 0c0-2.68-1.396-4.369-2.973-4.369-1.576 0-2.972 1.689-2.972 4.369 0 2.437 1.396 4.369 2.972 4.369 1.577 0 2.973-1.932 2.973-4.369z" fill="url(#paint1_linear_1282_9459)"/><path d="M188.582 141.819c0-5.572 3.191-9.461 8.065-9.461s8.065 3.889 8.065 9.461c0 5.572-3.191 9.461-8.065 9.461s-8.065-4.126-8.065-9.461zm11.038 0c0-2.68-1.396-4.369-2.973-4.369s-2.973 1.689-2.973 4.369c0 2.437 1.396 4.369 2.973 4.369s2.973-1.932 2.973-4.369z" fill="url(#paint2_linear_1282_9459)"/><path d="M223.233 149.055c.568 0 .73-.399.848-2.474.025-.729.424-.898 1.035-.592.492.237 1.034.448 1.533.592.28.093.449.33.424.635-.331 3.746-1.153 4.88-3.534 4.88h-2.406c-2.854 0-3.559-1.034-3.559-4.032v-5.653c0-.355-.236-.592-.592-.592h-1.788c-.331 0-.568.212-.592.542-.424 4.195-1.459 7.66-6.314 9.829-.305.118-.611 0-.779-.281a9.894 9.894 0 00-1.059-1.458c-.374-.449-.306-.823.236-1.084 3.509-1.602 4.151-4.008 4.407-6.906.025-.374-.212-.636-.592-.636h-3.509c-.355 0-.592-.236-.592-.592v-1.982c0-.355.237-.585.592-.585h19.065c.355 0 .592.236.592.585v1.982c0 .356-.237.592-.592.592h-4.525c-.355 0-.592.237-.592.593v5.634c0 .897.093 1.009.729 1.009h1.558l.006-.006zm1.278-15.787v1.957c0 .356-.237.592-.592.592h-14.846c-.355 0-.592-.236-.592-.592v-1.957c0-.355.237-.592.592-.592h14.846c.355 0 .592.237.592.592z" fill="url(#paint3_linear_1282_9459)"/><path d="M229.741 131.878h18.311c.355 0 .592.237.592.592v19.421c0 .355-.237.592-.592.592h-2.381c-.355 0-.592-.237-.592-.592 0-.356-.237-.611-.592-.611h-11.38c-.355 0-.592.262-.592.611s-.237.592-.592.592h-2.194c-.355 0-.592-.237-.592-.592V132.47c0-.355.237-.592.592-.592h.012zm3.135 16.379h11.854a.336.336 0 00.355-.355v-12.328a.336.336 0 00-.355-.355h-11.854a.336.336 0 00-.355.355v12.328c0 .212.143.355.355.355zm1.795-10.888h8.27c.356 0 .593.237.593.592v7.61c0 .355-.237.592-.593.592h-8.27c-.355 0-.592-.237-.592-.592v-7.61c0-.355.237-.592.592-.592zm5.584 5.653v-2.474c0-.212-.143-.356-.355-.356h-2.406c-.212 0-.355.144-.355.356v2.474c0 .212.143.355.355.355h2.406a.336.336 0 00.355-.355zm31 7.541a31.387 31.387 0 00-1.758-1.246c-.511-.349-.442-.555.162-.555h.443c.349 0 .579-.231.579-.58v-7.379c0-.349-.23-.579-.579-.579h-8.975c-.349 0-.58.23-.58.579v7.379c0 .349.231.58.58.58h.206c.461 0 .511.187.118.418-.418.255-1.776.835-2.001.959-.33.181-.511.381-.268.686.443.442.923.972 1.272 1.365.162.206.442.28.673.162 1.246-.58 2.593-1.434 3.584-2.362.367-.368.255-.761-.231-.923-.53-.187-.555-.299 0-.299h1.92c.486 0 .554.187.162.486-.393.3-.368.673.025.948a31.42 31.42 0 012.517 2.013.599.599 0 00.692.093l1.409-.81c.417-.255.461-.623.043-.922l.007-.013zm-3.84-3.515h-3.702c-.205 0-.324-.118-.324-.324 0-.187.119-.299.324-.299h3.702c.187 0 .3.118.3.299 0 .206-.119.324-.3.324zm0-2.262h-3.72c-.187 0-.299-.119-.299-.299 0-.181.118-.3.299-.3h3.72c.187 0 .3.119.3.3 0 .18-.119.299-.3.299zm0-2.219h-3.72c-.187 0-.299-.118-.299-.299s.118-.299.299-.299h3.72c.187 0 .3.118.3.299s-.119.299-.3.299zm-3.606-4.974h-3.608c-.349 0-.58.231-.58.58v.922c0 .349.231.58.58.58h10.707c.349 0 .58-.231.58-.58v-.922c0-.349-.231-.58-.58-.58h-3.634c-.186 0-.299-.118-.299-.299 0-.162.119-.28.299-.28h3.005c.349 0 .579-.231.579-.58v-3.004c0-.349-.23-.579-.579-.579h-2.73c-.349 0-.58-.231-.58-.58v-.187c0-.349-.231-.58-.58-.58h-1.732c-.349 0-.58.231-.58.58v.187c0 .349-.23.58-.579.58h-2.45c-.349 0-.579.23-.579.579v3.004c0 .349.23.58.579.58h2.755c.162 0 .28.118.28.28 0 .187-.118.299-.28.299h.006zm3.515-3.01h.486c.187 0 .325.137.325.324 0 .206-.138.349-.325.349h-.486c-.205 0-.349-.137-.349-.349 0-.187.137-.324.349-.324zm-3.558.673h-.349c-.206 0-.349-.137-.349-.349 0-.187.137-.324.349-.324h.349c.187 0 .324.137.324.324 0 .206-.137.349-.324.349z" fill="#fff"/><path d="M259.869 148.27c-.673-.885-1.726-1.895-2.648-2.687-.187-.168-.443-.143-.63.025l-1.035.91c-.317.287-.317.673-.018.96.081.081.224.212.118.312-.106.099-1.209 1.003-1.209.748v-3.391c0-.162.119-.28.299-.28h3.864c.349 0 .58-.231.58-.58v-5.64c0-.349-.231-.58-.58-.58h-5.042c-.579 0-.691-.28-.299-.692.119-.137.231-.28.349-.417l.044-.044c.118-.162.23-.118.23.119 0 .255.162.417.418.417h2.96c.3 0 .487-.187.487-.486s.093-.324.255-.069l.069.094c.187.324.442.349.673.093l1.227-1.34c.163-.205.187-.461.044-.673-.717-1.084-1.963-2.405-3.054-3.403a.603.603 0 00-.392-.162h-2.269a.617.617 0 00-.555.349c-.598 1.34-1.527 2.842-2.823 4.12-.324.324-.299.673.044.972.367.299.785.692 1.084 1.041l-.044.094-.043.043a.216.216 0 00-.069.162v13.437c0 .349.231.58.58.58h1.383c1.54 0 3.509-2.343 3.628-2.412.118-.069.249.069.318.156.268.33.523.386.797.118l1.185-1.103a.554.554 0 00.081-.791h-.007zm-5.148-8.252h1.621c.162 0 .28.118.28.28a.272.272 0 01-.28.281h-1.621a.272.272 0 01-.28-.281c0-.162.118-.28.28-.28zm.019 2.337h1.596c.162 0 .28.118.28.28 0 .187-.118.3-.28.3h-1.596c-.187 0-.299-.119-.299-.3 0-.162.118-.28.299-.28zm.467-7.56c.119-.162.206-.324.3-.461.137-.256.367-.281.554-.069.137.187.299.349.443.53.28.324.162.555-.281.555h-.716c-.393 0-.511-.206-.3-.555z" fill="#fff"/><path d="M75.366 83.914H62.733c-.985 0-1.64-.655-1.64-1.64v-.822c0-.493.25-1.066.574-1.396 4.512-4.843 9.106-11.075 12.802-16.41.654-.985.41-2.132-.493-2.792l-5.004-3.858c-.493-.33-1.228-.492-1.808-.33l-1.066.249-.41.08h-26.75c-1.228 0-2.05.824-2.05 2.051v6.32c0 1.228.822 2.05 2.05 2.05h16.166c2.213 0 2.955 1.234 1.727 3.117a68.286 68.286 0 01-3.116 4.181l-.162.163c-.33.41-.823.654-1.396.654h-.742c-1.066 0-1.72.654-1.72 1.64v4.673c0 1.234-.823 2.05-2.05 2.05H36.32c-1.228 0-2.05.824-2.05 2.051v6.563c0 1.234.822 2.05 2.05 2.05h11.324c1.228 0 2.05.823 2.05 2.051v30.14c0 4.007-.33 8.439-.94 11.63-1.459 7.609-5.024 9.373-7.074 11.579-1.116 1.29-1.116 2.587.162 3.709 1.751 1.552 3.658 3.533 5.092 5.173.872 1.034 1.988 1.121 2.942.255 4.786-3.889 10.476-10.745 11.212-23.353l.018-39.127c0-1.234.823-2.05 2.05-2.05h12.229c1.227 0 2.05-.823 2.05-2.05v-6.563c0-1.228-.823-2.05-2.05-2.05l-.019.012z" fill="url(#paint4_linear_1282_9459)"/><path d="M28.76 108.606c-.654-.573-.903-1.558-.654-2.381 3.036-8.45 4.675-18.79 5.497-31.504.081-1.066-.654-1.889-1.72-2.132l-4.593-.654-.492-.081h-.33l-1.316.249h-2.704c-1.478 0-2.3-.985-1.97-2.462l1.72-9.517c.162-1.227-.573-2.212-1.807-2.38l-6.482-.655c-1.147-.08-2.05.654-2.212 1.808-.574 3.69-1.147 7.547-1.808 11.486-.25 1.066-.985 1.72-2.05 1.72H4.23c-1.228 0-2.05.823-2.05 2.05v6.32c0 1.228.822 2.05 2.05 2.05h.904c1.477 0 2.3.985 1.97 2.462-1.397 7.055-2.874 13.705-4.35 19.202a1.944 1.944 0 001.065 2.3l6.812 3.609c.573.33.985.081 1.147-.493.162-.492.492-.654.903-.411l.162.162.25.081.162.162c.573.573.741 1.315.249 2.051-2.462 3.776-5.335 6.812-8.781 9.186-1.478.985-1.64 2.213-.493 3.609 1.234 1.477 2.543 3.284 3.528 4.923.741 1.066 1.888 1.396 2.954.655a41.699 41.699 0 0010.501-10.259c.904-1.228 2.132-1.396 3.198-.249 1.065 1.066 2.05 2.131 2.873 3.197 1.066 1.228 2.38 1.228 3.365-.081l4.27-5.659a2.098 2.098 0 00-.081-2.462 52.025 52.025 0 00-6.07-5.908l-.007.006zm-6.48-24.699c-.655 5.497-1.64 10.583-3.117 15.263-.33.985-1.147 1.234-1.97.574a25.2 25.2 0 00-1.888-1.315c-.411-.33-.654-.823-.573-1.315 1.066-4.35 2.05-8.944 2.954-13.618a1.15 1.15 0 011.147-.985h2.212c.823 0 1.315.574 1.234 1.396z" fill="url(#paint5_linear_1282_9459)"/><path d="M103.987 39.29H79.949c-1.228 0-2.05.822-2.05 2.05v5.659c0 1.228.822 2.05 2.05 2.05h5.746c1.228 0 2.05.823 2.05 2.05v44.463c0 4.113-3.857 9.473-5.415 11.15-.848.984-.848 1.963.118 2.817 1.328 1.178 2.78 2.686 3.87 3.926.667.785 1.515.854 2.238.199 3.34-2.717 8.52-8.351 8.52-17.75V70.228l-.056.044V51.094c0-1.228.822-2.05 2.05-2.05h4.924c1.234 0 2.05-.823 2.05-2.051v-5.66c0-1.233-.823-2.05-2.05-2.05l-.007.006z" fill="url(#paint6_linear_1282_9459)"/><path d="M102.591 23.864H81.75a2.05 2.05 0 00-2.05 2.05v5.498a2.05 2.05 0 002.05 2.05h20.841a2.05 2.05 0 002.05-2.05v-5.497a2.05 2.05 0 00-2.05-2.05z" fill="url(#paint7_linear_1282_9459)"/><path d="M103.991 52.09h-2.792a2.05 2.05 0 00-2.05 2.051v25.03a2.05 2.05 0 002.05 2.05h2.792a2.05 2.05 0 002.05-2.05V54.14a2.05 2.05 0 00-2.05-2.05z" fill="url(#paint8_linear_1282_9459)"/><path d="M83.556 83.272c1.808-6.894 2.132-14.852 2.132-21.745v-7.305c0-1.227-.823-2.05-2.05-2.05h-2.793c-1.227 0-2.05.823-2.05 2.05v7.136c0 5.909-.33 12.964-1.889 18.953-.249.904.081 1.808.823 2.462h.162c.654.411 1.396.985 2.05 1.558 1.64 1.234 3.036.904 3.61-1.066l.005.007z" fill="url(#paint9_linear_1282_9459)"/><path d="M110.554 48.314h36.348c1.228 0 2.05-.823 2.05-2.05v-20.35c0-1.227-.822-2.05-2.05-2.05h-36.348c-1.227 0-2.05.823-2.05 2.05v20.35c0 1.233.823 2.05 2.05 2.05zm27.155-17.806h.654c.742 0 1.234.492 1.234 1.234s-.492 1.228-1.234 1.228h-.654c-.735 0-1.228-.493-1.228-1.228s.493-1.234 1.228-1.234zm0 8.7h.742a1.12 1.12 0 011.146 1.147c0 .742-.492 1.234-1.146 1.234h-.742c-.735 0-1.228-.492-1.228-1.234 0-.654.493-1.147 1.228-1.147zm-9.76-8.7h.904c.735 0 1.227.492 1.227 1.234s-.492 1.228-1.227 1.228h-.904c-.742 0-1.234-.493-1.234-1.228s.492-1.234 1.234-1.234zm0 8.7h.985a1.12 1.12 0 011.146 1.147c0 .742-.492 1.234-1.146 1.234h-.985c-.742 0-1.234-.492-1.234-1.234 0-.654.492-1.147 1.234-1.147zm-9.355-8.7h.493c.741 0 1.234.492 1.234 1.234s-.493 1.228-1.234 1.228h-.493c-.741 0-1.234-.493-1.234-1.228s.493-1.234 1.234-1.234zm0 8.7h.574a1.12 1.12 0 011.146 1.147c0 .742-.492 1.234-1.146 1.234h-.574c-.741 0-1.234-.492-1.234-1.234 0-.654.493-1.147 1.234-1.147z" fill="url(#paint10_linear_1282_9459)"/><path d="M147.886 50.364h-38.074a2.05 2.05 0 00-2.05 2.05v4.189a2.05 2.05 0 002.05 2.05h38.074a2.05 2.05 0 002.05-2.05v-4.188a2.05 2.05 0 00-2.05-2.05z" fill="url(#paint11_linear_1282_9459)"/><path d="M149.034 83.596h-4.843c-2.051 0-2.792-1.234-1.807-3.035.249-.412.492-.904.822-1.316v-.162c.655-1.146.162-2.212-1.147-2.542-1.396-.33-1.396-.574 0-.574h2.624c1.234 0 2.051-.823 2.051-2.05V62.592c0-1.234-.823-2.05-2.051-2.05h-31.754c-1.228 0-2.05.823-2.05 2.05v11.325c0 1.227.822 2.05 2.05 2.05h3.197c1.228 0 1.315.25.081.574-1.315.33-1.72 1.315-1.146 2.461.33.655.573 1.396.903 1.97v.162c.574 1.396-.249 2.462-1.888 2.462h-5.908c-1.228 0-2.051.822-2.051 2.05v4.101c0 1.228.823 2.05 2.051 2.05h40.859c1.234 0 2.051-.822 2.051-2.05v-4.1c0-1.229-.823-2.051-2.051-2.051h.007zm-15.507-6.07c-.573 1.72-1.396 3.527-2.05 5.085-.162.411 0 .742.411.823.412.08.412.162 0 .162h-6.238c-.493 0-.493-.081 0-.25.411-.08.654-.492.573-.903-.411-1.396-1.066-3.035-1.807-4.594-.574-1.146-.163-1.888 1.146-1.888h6.893c.985 0 1.477.654 1.066 1.558l.006.006zm3.528-9.187c0 .735-.493 1.228-1.228 1.228h-14.44c-.742 0-1.234-.493-1.234-1.228v-.162c0-.736.492-1.228 1.234-1.228h14.44c.735 0 1.228.492 1.228 1.228v.162z" fill="url(#paint12_linear_1282_9459)"/><path d="M282.412 57.201h-6.233c-.567 0-.922-.355-.922-.922 0-.499.355-.848.922-.848h3.752c1.06 0 1.77-.71 1.77-1.77V51.68c0-1.06-.71-1.77-1.77-1.77h-3.752c-.567 0-.922-.355-.922-.922 0-.499.355-.848.922-.848h3.752c1.06 0 1.77-.71 1.77-1.77v-1.981c0-1.06-.71-1.77-1.77-1.77h-3.752c-.567 0-.922-.356-.922-.923 0-.498.355-.848.922-.848h5.591c1.059 0 1.77-.71 1.77-1.77V36.74c0-1.06-.711-1.77-1.77-1.77h-3.895c-1.415 0-1.914-.779-1.135-2.05.711-1.203.281-2.194-1.134-2.48l-4.039-.636c-.922-.212-1.701.28-2.05 1.203-.28.922-.71 1.913-1.134 2.904-.212.636-.923 1.06-1.627 1.06-.779 0-1.134-.5-.848-1.203.212-.424.356-.923.568-1.415.423-1.06-.069-1.982-1.135-2.269l-4.032-1.203c-.991-.212-1.839.212-2.194 1.134-1.134 2.83-2.617 5.734-4.319 8.283-.922 1.415-1.627 1.135-1.627-.567v-.99c0-1.06-.71-1.77-1.77-1.77h-1.558c-1.414 0-1.838-.78-1.059-1.983.779-1.202.424-2.125-.991-2.405l-4.107-.78c-.923-.143-1.702.281-2.051 1.135-.355.99-.847 2.05-1.346 3.041-.28.636-.922.991-1.558.991h-.636c-.991 0-1.415-.635-1.059-1.558l.424-1.134c.423-1.134-.069-2.05-1.203-2.337l-3.896-1.06c-.991-.28-1.838.212-2.193 1.134-1.77 4.743-4.463 9.131-7.579 12.39-.779.78-.848 1.702-.212 2.55.991 1.414 2.125 3.184 2.83 4.53.423.711 1.059.78 1.558.281.567-.567.847-.499.847.28v11.331c0 1.06.711 1.77 1.77 1.77h22.587c1.059 0 1.77-.71 1.77-1.77v-2.406c0-1.06-.711-1.77-1.77-1.77h-4.675c-.567 0-.922-.355-.922-.922 0-.499.355-.848.922-.848h2.905c1.059 0 1.77-.71 1.77-1.77V51.68c0-1.06-.711-1.77-1.77-1.77h-2.905c-.567 0-.922-.355-.922-.922 0-.499.355-.848.922-.848h3.964c.424 0 .711-.28.711-.71 0-.43.143-.499.423-.144l1.77 2.55c.424.71 1.06.779 1.627.212.499-.568.848-.5.848.28v11.044c0 1.06.71 1.77 1.77 1.77h24.001c1.059 0 1.77-.71 1.77-1.77v-2.406c0-1.06-.711-1.77-1.77-1.77l.006.006zm-44.605 0h-1.135c-.567 0-.922-.355-.922-.922 0-.499.355-.848.922-.848h1.135c.498 0 .847.355.847.848 0 .567-.355.922-.847.922zm0-7.292h-1.135c-.567 0-.922-.355-.922-.922 0-.499.355-.848.922-.848h1.135c.498 0 .847.356.847.848 0 .567-.355.922-.847.922zm0-7.291h-1.135c-.567 0-.922-.356-.922-.923 0-.498.355-.848.922-.848h1.135c.498 0 .847.356.847.848 0 .567-.355.922-.847.922zm14.44-.923l-.499.567c-.143.212-.498.355-.779.355h-3.683c-.567 0-.922-.355-.922-.922 0-.498.355-.848.922-.848h4.531c.636 0 .848.356.424.848h.006zm14.447 15.506h-.991c-.567 0-.923-.355-.923-.922 0-.499.356-.848.923-.848h.991c.498 0 .847.355.847.848 0 .567-.355.922-.847.922zm0-7.292h-.991c-.567 0-.923-.355-.923-.922 0-.499.356-.848.923-.848h.991c.498 0 .847.356.847.848 0 .567-.355.922-.847.922zm0-7.291h-.991c-.567 0-.923-.356-.923-.923 0-.498.356-.848.923-.848h.991c.498 0 .847.356.847.848 0 .567-.355.922-.847.922z" fill="url(#paint13_linear_1282_9459)"/><path d="M282.503 82.829c-3.608-.28-7.08-.71-10.339-1.134-2.693-.356-2.904-1.627-.848-3.329 2.83-2.337 5.379-4.954 7.435-8.002.636-.848.356-1.839-.567-2.406l-4.531-2.692a1.848 1.848 0 00-1.202-.212l-1.06.212h-41.913c-1.059 0-1.77.71-1.77 1.77v4.25c0 1.06.711 1.77 1.77 1.77h7.791c1.701 0 1.701.568.211 1.203-1.414.636-1.701 1.839-.567 2.83.046 0 .094.023.144.068.498.499 1.134.991 1.838 1.558 2.051 1.558 1.839 2.83-.779 3.26-3.54.567-7.292.99-11.118 1.346-1.839.144-2.406 1.203-1.559 2.904.78 1.49 1.49 3.117 1.982 4.6.281.847.991 1.346 1.914 1.278 8.781-.923 17.133-2.406 24.568-4.812a1.548 1.548 0 011.134 0c7.149 2.55 15.083 4.107 24.001 4.955h.144c.635 0 1.346-.355 1.701-.991.779-1.627 1.913-3.54 3.116-5.242 1.272-1.838.848-3.04-1.489-3.184h-.007zm-21.944-8.003a39.897 39.897 0 01-5.241 2.618 1.256 1.256 0 01-.711 0c-2.125-.78-4.038-1.701-5.808-2.618-1.627-.99-1.415-1.77.567-1.77h10.62c1.913 0 2.194.78.567 1.77h.006z" fill="url(#paint14_linear_1282_9459)"/><path d="M207.495 50.196l6.475 1.583c1.078.287 1.658 1.153 1.222 2.306-2.662 7.847-6.189 15.045-10.508 21.234-.362.505-.43 1.153-.218 1.658 1.439 3.452 2.954 5.328 4.462 5.328 1.078 0 1.87-2.306 2.306-7.628.218-2.45 1.365-2.88 3.384-1.44 1.296.935 2.661 1.801 3.958 2.375a1.957 1.957 0 011.153 1.944c-1.583 12.234-4.749 14.902-11.586 14.902-3.889 0-7.199-2.156-9.86-5.977-.866-1.153-1.944-1.296-2.954-.361-2.231 2.087-4.537 3.957-7.055 5.615-.867.573-1.801.361-2.45-.43-1.221-1.583-2.879-3.528-4.387-5.036-1.01-1.153-.866-2.231.43-3.023 3.739-2.306 7.124-5.11 10.146-8.351.362-.43.505-1.078.362-1.658-2.013-7.055-3.31-15.543-4.101-24.325-.075-1.01-.792-1.658-1.801-1.658h-14.322c-1.079 0-1.802.717-1.802 1.801v2.88c0 1.078.723 1.801 1.802 1.801h13.169c1.009 0 1.726.723 1.657 1.726v1.727c-.218 13.96-.504 20.299-2.162 22.455-1.515 1.945-3.098 2.661-5.111 3.098-1.508.218-3.671.361-6.189.361-1.009 0-1.726-.717-1.869-1.726a22.964 22.964 0 00-.648-3.023c-.792-2.661-1.945-2.375-2.45.43-.935 4.75-2.374 9.286-4.387 13.1-.723 1.297-1.87 1.365-2.88.362-1.583-1.365-3.527-3.023-5.185-4.1-.935-.65-1.222-1.659-.717-2.662 4.176-8.059 4.463-19.146 4.463-27.497V39.27c0-1.079.723-1.802 1.801-1.802h23.97c1.153 0 1.869-.716 1.801-1.87-.075-1.944-.144-3.888-.144-5.758 0-1.078.723-1.801 1.802-1.801h6.836c1.079 0 1.802.716 1.802 1.8 0 1.945 0 3.89.074 5.903 0 1.01.723 1.726 1.727 1.726h2.156c2.306 0 2.661-.934.717-2.306l-1.726-1.221c-1.153-.717-1.297-1.87-.287-2.805l3.384-3.384c.573-.573 1.365-.723 2.088-.361 2.736 1.514 5.902 3.527 8.133 5.328.867.648.935 1.658.144 2.518l-.43.43c-1.01 1.078-.717 1.801.791 1.801h2.954c1.078 0 1.801.717 1.801 1.802v6.188c0 1.079-.723 1.801-1.801 1.801h-17.126c-1.153 0-1.87.792-1.727 1.945.287 3.023.648 6.046 1.078 8.782.43 3.022 1.87 3.24 3.023.504a81.248 81.248 0 002.661-6.98c.287-1.01 1.153-1.515 2.163-1.296l-.012-.019zm-31.306 12.52h-4.892c-.58 0-1.01.43-1.078 1.01a136.59 136.59 0 01-.723 9c-.075.648.286 1.153.934 1.153 1.583.143 2.955.218 3.889.218.867 0 1.515-.218 2.013-.866.574-.792.867-3.384.935-9.43 0-.648-.43-1.078-1.078-1.078v-.006z" fill="url(#paint15_linear_1282_9459)"/><path d="M137.995 113.985l-.903 1.141c-.256.293-.611.255-.867-.044-.293-.336-.548-.293-.548.168v2.487c0 .318-.212.524-.524.524h-1.77c-.317 0-.523-.212-.523-.524v-1.265c0-.904-.362-1.035-.966-.355-.231.255-.443.486-.673.698-.256.212-.549.168-.761-.088-.293-.38-.673-.779-1.009-1.134-.293-.293-.293-.629.062-.904a13.096 13.096 0 002.256-2.293c.337-.443.168-.779-.424-.779h-1.283c-.318 0-.53-.212-.53-.524v-1.371c0-.318.212-.53.53-.53h2.274c.318 0 .53-.211.53-.523v-.168c0-.318-.212-.524-.53-.524h-2.337c-.318 0-.523-.212-.523-.53v-1.308c0-.318.212-.524.523-.524h.486c.356 0 .567-.231.486-.592a4.856 4.856 0 00-.187-.717c-.105-.293.019-.548.362-.629.318-.087.318-.125-.019-.125h-.866c-.318 0-.524-.212-.524-.53v-1.283c0-.318.212-.53.524-.53h2.088c.318 0 .53-.212.53-.524v-.654c0-.318.211-.524.523-.524h1.77c.318 0 .524.212.524.524v.654c0 .318.212.524.529.524h2.088c.318 0 .524.212.524.53v1.283c0 .318-.212.53-.524.53h-.654c-.274 0-.274.044 0 .081.255.044.355.231.23.461v.044c-.106.274-.211.486-.317.717-.212.461 0 .76.486.76h.38c.318 0 .523.212.523.524v1.308c0 .318-.212.53-.523.53h-2.213c-.317 0-.529.212-.529.524v.168c0 .318.212.523.529.523h2.001c.318 0 .53.212.53.53v1.371c0 .318-.212.524-.53.524h-.991c-.929 0-1.035.355-.293.885l.966.735c.274.212.318.505.106.761l-.019-.013zm-2.991-10.445h-1.602c-.274 0-.38.168-.293.442.125.38.256.779.318 1.116.019.168-.062.293-.231.336l-.168.044c-.274.087-.255.125.019.125h2.362c.361 0 .38-.044.019-.125l-.256-.044c-.212-.043-.318-.212-.231-.399.125-.355.256-.735.356-1.115.062-.231-.063-.38-.293-.38zm7.204.311v1.434c0 .318.212.523.524.523h4.949c.317 0 .523.212.523.53v1.645c0 .318-.212.524-.523.524h-.63c-.318 0-.523.212-.523.53v8.638c0 .318-.212.53-.524.53h-1.77c-.318 0-.53-.212-.53-.53v-8.638c0-.318-.212-.53-.523-.53h-.461c-.293 0-.505.212-.524.505-.106 2.717-.611 6.257-2.568 8.744-.255.336-.611.293-.885-.019a9.038 9.038 0 00-1.097-1.034c-.317-.256-.38-.593-.124-.904 1.77-2.381 1.938-5.478 1.938-8.003v-6.276c0-.423.274-.61.673-.504l.717.187s.062.018.081.018h.293c1.601-.424 3.178-.991 4.319-1.583h.043a.55.55 0 01.593.087l1.452 1.328c.355.318.293.654-.125.841-1.514.611-3.247 1.072-4.867 1.452a.503.503 0 00-.424.505h-.007z" fill="url(#paint16_linear_1282_9459)"/><path d="M168.447 100.567v14.428c0 1.327-.187 2.106-.966 2.592-.698.424-1.602.53-2.804.549a.532.532 0 01-.549-.461 13.2 13.2 0 00-.424-1.515c-.168-.53.044-.823.592-.823.399.019.779.019.948 0h.043c.275 0 .356-.106.356-.38v-2.885c0-.318-.212-.524-.524-.524h-1.514a.515.515 0 00-.524.461c-.318 2.107-.866 4.232-1.895 5.877-.187.318-.504.337-.797.125a16.933 16.933 0 00-1.434-.866c-.168-.087-.355-.019-.505.106a1.317 1.317 0 01-.255.187l-.044.018c-.611.337-1.408.462-2.399.487-.274 0-.486-.187-.549-.462a8.847 8.847 0 00-.399-1.389c-.168-.443.019-.699.462-.674h.779c.255 0 .336-.087.336-.336v-3.01c0-.318-.212-.524-.523-.524h-1.116c-.293 0-.505.187-.523.461-.256 2.088-.698 4.17-1.559 5.815-.187.318-.504.355-.797.15a12.761 12.761 0 00-1.309-.779c-.318-.169-.424-.486-.231-.798 1.371-2.655 1.477-6.301 1.477-9.056v-6.762c0-.318.212-.53.524-.53h6.232c.318 0 .524.212.524.53v14.534l-.019.443c0 .255.062.274.168.043 1.328-2.736 1.434-6.232 1.434-8.887v-6.127c0-.318.212-.529.523-.529h6.744c.318 0 .523.211.523.529l-.006-.018zm-13.686 8.407h1.309c.187 0 .317-.125.317-.318v-1.284c0-.187-.124-.317-.317-.317h-1.496c-.087 0-.125.043-.125.124v.125c0 .424 0 .866-.019 1.327 0 .212.125.337.337.337l-.006.006zm1.302-6.32h-1.308c-.187 0-.318.125-.318.318v1.241c0 .187.124.317.318.317h1.308c.187 0 .318-.124.318-.317v-1.241c0-.187-.124-.318-.318-.318zm7.629 6.32h1.645c.187 0 .318-.125.318-.318v-1.284c0-.187-.125-.317-.318-.317h-1.602c-.187 0-.317.124-.317.317 0 .399-.019.823-.044 1.266-.019.211.106.336.318.336zm1.639-6.32h-1.602c-.187 0-.318.125-.318.318v1.241c0 .187.125.317.318.317h1.602c.187 0 .318-.124.318-.317v-1.241c0-.187-.125-.318-.318-.318z" fill="url(#paint17_linear_1282_9459)"/><path d="M186.326 106.568l1.434.611c.255.106.38.337.292.611-.654 2.169-1.558 4.001-2.761 5.478-.255.318-.186.63.169.798 1.097.524 2.318.929 3.708 1.24.611.125.717.486.337.966-.381.48-.761 1.072-1.035 1.558a.524.524 0 01-.592.256c-1.938-.486-3.602-1.159-5.036-2.063a.514.514 0 00-.592 0 18.034 18.034 0 01-4.194 2.063.532.532 0 01-.655-.256c-.23-.442-.548-.928-.866-1.371-.318-.442-.212-.779.293-.947a13.847 13.847 0 002.904-1.309c.318-.187.337-.505.106-.798a17.617 17.617 0 01-1.265-1.726c-.38-.592-.735-.567-1.01.087-.822 1.92-1.938 3.771-3.477 5.348-.256.255-.568.212-.798-.044a9.18 9.18 0 00-1.496-1.265c-.355-.256-.399-.592-.062-.904 2.804-2.636 4.001-6.232 4.568-9.417.062-.355-.149-.611-.505-.611h-3.247c-.318 0-.523-.212-.523-.53v-1.77c0-.317.212-.529.523-.529h3.665c.293 0 .505-.187.505-.486.043-.698.062-1.309.081-1.814 0-.293.212-.486.505-.486h2c.337 0 .549.212.524.548 0 .486-.044 1.035-.081 1.664-.019.337.187.567.548.567h8.763c.318 0 .523.212.523.53v1.77c0 .318-.212.53-.523.53h-9.205c-.275 0-.487.168-.53.424-.019.23-.062.442-.106.673-.062.38.125.629.53.629h5.896l.336-.062a.593.593 0 01.318.019l.031.018zm-2.568 2.849h-2.904c-.318 0-.442.187-.256.461.462.717.991 1.371 1.602 1.982.15.124.318.124.443-.019.529-.611.991-1.265 1.39-1.982.149-.255.018-.442-.275-.442z" fill="url(#paint18_linear_1282_9459)"/><path d="M197.638 107.54v5.622a.48.48 0 00.081.274c.736 1.16 2.063 1.602 3.983 1.683 2.187.106 6.107.062 8.974-.149.549-.019.761.274.567.779a16.06 16.06 0 00-.504 1.707.574.574 0 01-.505.424c-2.531.125-6.233.168-8.595.044-2.169-.106-3.664-.505-4.93-1.752-.23-.23-.523-.255-.76-.043-.567.486-1.14.991-1.814 1.539-.317.256-.629.168-.797-.187l-.929-2c-.125-.275-.044-.549.212-.674.629-.38 1.309-.779 1.957-1.24a.532.532 0 00.212-.424v-2.904c0-.318-.212-.523-.53-.523h-1.01c-.317 0-.523-.212-.523-.53v-1.646c0-.317.212-.523.523-.523h3.858c.318 0 .524.212.524.523h.006zm.062-4.506l-1.477 1.222c-.274.231-.592.168-.797-.106-.568-.717-1.453-1.558-2.275-2.256-.293-.256-.293-.592.018-.841l1.328-1.054c.187-.15.442-.168.629-.018.929.698 1.982 1.576 2.655 2.362.187.212.169.504-.081.698v-.007zm12.889 6.214h-3.16c-.548 0-.735.318-.399.736.761.947 1.814 1.707 3.179 2.168.567.187.673.549.274 1.01a15.83 15.83 0 00-.929 1.309.52.52 0 01-.629.255c-1.602-.61-2.805-1.539-3.727-2.804-.293-.424-.629-.424-.966-.019-.823 1.035-2.001 1.982-3.708 2.78-.256.124-.505.043-.673-.187-.275-.337-.63-.736-.991-1.072-.399-.424-.337-.779.187-.991 1.726-.736 2.698-1.602 3.222-2.506.23-.38.018-.673-.443-.673h-3.072c-.318 0-.524-.212-.524-.529v-1.54c0-.318.212-.523.524-.523h3.646c.318 0 .523-.212.523-.53v-.399c0-.318-.212-.523-.523-.523h-2.93c-.317 0-.523-.212-.523-.53v-1.496c0-.318.212-.53.523-.53h.381c.461 0 .654-.293.442-.716a9.996 9.996 0 00-.611-1.097c-.212-.337-.106-.655.256-.798l1.496-.592a.515.515 0 01.592.15c.523.697 1.034 1.514 1.327 2.212.106.255-.018.505-.293.629-.293.125-.293.212 0 .212h2.93c.292 0 .292-.062.018-.168-.274-.087-.355-.318-.212-.567.424-.655.823-1.477 1.116-2.194a.544.544 0 01.673-.318l1.832.549c.399.124.505.442.275.797l-.736 1.054c-.38.523-.212.841.424.841h.505c.318 0 .523.212.523.53v1.496c0 .317-.212.529-.523.529h-3.515c-.318 0-.524.212-.524.524v.399c0 .318.212.529.524.529h4.232c.317 0 .523.212.523.524v1.539c0 .318-.212.53-.523.53h-.013z" fill="url(#paint19_linear_1282_9459)"/><path d="M213.936 108.301c0-.318.212-.524.53-.524h.716c.318 0 .524.212.524.524v1.876c0 1.77-.081 3.814-.549 5.584-.149.505-.505.592-.928.274a4.685 4.685 0 00-.524-.398h-.043c-.187-.169-.275-.399-.212-.63.399-1.539.486-3.347.486-4.867v-1.839zm-.231-1.857v-1.452c0-.318.212-.53.524-.53h6.17c.318 0 .53.212.53.53v1.452c0 .318-.212.523-.53.523h-1.265c-.318 0-.524.212-.524.53v10.259c0 .317-.212.529-.53.529h-1.327c-.318 0-.524-.212-.524-.529v-10.259c0-.318-.212-.53-.529-.53h-1.478c-.317 0-.523-.212-.523-.523h.006zm6.868-5.41v1.409c0 .317-.212.529-.523.529h-5.348c-.317 0-.523-.212-.523-.529v-1.409c0-.318.212-.53.523-.53h5.348c.318 0 .523.212.523.53zm-1.414 13.668v-6.426c0-.318.211-.53.529-.53h.717c.318 0 .53.212.53.53v6.426c0 .318-.212.523-.53.523h-.717c-.318 0-.529-.212-.529-.523zm11.567 1.14h1.24c.318 0 .524.212.524.53v1.053c0 .318-.212.524-.524.524h-10.489c-.318 0-.524-.212-.524-.524v-1.053c0-.318.212-.53.524-.53h1.514c.424 0 .63-.274.487-.629v-.044c-.081-.149-.15-.336-.231-.505-.15-.293-.044-.548.293-.629.318-.081.293-.15-.019-.15h-.822c-.318 0-.524-.212-.524-.523v-2.905c0-.317.212-.523.524-.523h8.152c.317 0 .523.212.523.523v2.905c0 .318-.212.523-.523.523h-.674c-.355 0-.355.063 0 .15.337.087.462.355.293.654v.044c-.087.106-.149.23-.212.336-.255.462-.062.779.462.779l.006-.006zm1.471-8.008v1.072c0 .317-.212.529-.53.529h-9.772c-.318 0-.53-.212-.53-.529v-1.072c0-.318.212-.524.53-.524h9.772c.318 0 .53.212.53.524zm-.25-6.8v5.223c0 .318-.211.523-.523.523h-9.33c-.318 0-.524-.212-.524-.523v-5.223c0-.318.212-.53.524-.53h1.539c.318 0 .524-.212.524-.523v-.168c0-.318.212-.53.523-.53h1.054c.318 0 .523.212.523.53v.274c0 .255.169.423.424.423.256 0 .424-.168.424-.423v-.275c0-.317.212-.53.523-.53h1.054c.317 0 .523.213.523.53v.169c0 .318.212.523.524.523h1.682c.318 0 .524.212.524.53h.012zm-8.108 1.496c0 .187.125.318.318.318h.125c.187 0 .317-.125.317-.318s-.124-.318-.317-.318h-.125c-.187 0-.318.125-.318.318zm0 2.206c0 .187.125.318.318.318h.15c.168 0 .292-.125.292-.318a.285.285 0 00-.292-.293h-.15c-.187 0-.318.125-.318.293zm.711 7.142v.044c0 .187.124.318.317.318h3.709c.187 0 .318-.125.318-.318v-.044c0-.187-.125-.317-.318-.317h-3.709c-.187 0-.317.124-.317.317zm3.166 2.001h-1.77c-.337 0-.443.187-.293.486.187.399.355.823.461 1.178.019.106-.044.212-.15.231-.124.043-.124.062 0 .062h1.602c.106 0 .106-.019 0-.044-.106-.018-.15-.106-.106-.212.168-.398.38-.866.53-1.308.106-.231-.019-.399-.274-.399v.006zm-1.16-11.038h.231c.187 0 .318-.124.318-.317 0-.194-.125-.318-.318-.318h-.231c-.187 0-.317.124-.317.318 0 .193.124.317.317.317zm.25 1.602h-.256c-.187 0-.318.125-.318.293 0 .187.125.318.318.318h.256c.168 0 .293-.125.293-.318a.285.285 0 00-.293-.293zm2.742-1.913c0-.187-.125-.318-.318-.318h-.168c-.187 0-.318.125-.318.318s.125.318.318.318h.168c.187 0 .318-.125.318-.318zm0 2.206a.285.285 0 00-.293-.293h-.187c-.187 0-.318.125-.318.293 0 .187.125.318.318.318h.187c.168 0 .293-.125.293-.318z" fill="url(#paint20_linear_1282_9459)"/></g><mask id="mask2_1282_9459" style="mask-type:luminance" maskUnits="userSpaceOnUse" x="2" y="178" width="286" height="60"><path d="M287.5 178.193H2.5v59.742h285v-59.742z" fill="#fff"/></mask><g mask="url(#mask2_1282_9459)"><path d="M122.292 187.888c-.18.523-.343 1.038-.532 1.493h5.177v10.012h-1.236v-.927h-8.303v.927h-1.185v-10.012h4.268c.146-.472.291-1.021.394-1.493h-6.508v-1.125h4.199a12.206 12.206 0 00-1.383-1.838l1.057-.455c.583.567 1.236 1.365 1.528 1.924l-.696.377h4.293a17.4 17.4 0 001.477-2.258l1.323.344a16.434 16.434 0 01-1.451 1.923h4.104v1.125h-6.509l-.017-.017zm3.4 2.567h-8.302v1.614h8.302v-1.614zm0 2.593h-8.302v1.657h8.302v-1.657zm0 4.344v-1.725h-8.302v1.725h8.302zm7.274-10.956a10.431 10.431 0 01-1.675 1.821c-.163-.215-.583-.601-.85-.816 1.005-.747 1.949-1.889 2.49-3.04l1.074.309c-.129.258-.258.507-.404.765h4.13v.961h-4.765zm10.432 4.448h1.743v.927h-1.743v1.966h-5.014v.962h5.435v.945h-5.435v1.021h6.491v.962h-6.491v1.726h-1.202v-1.726h-6.346v-.962h6.346v-1.021h-5.307v-.945h5.307v-.962h-4.817v-.91h4.817v-1.056h-6.62v-.927h6.62v-.945h-4.689v-.91h4.689v-.893h1.202v.893h5.014v1.855zm-8.835-4.413c.489.455 1.125 1.107 1.416 1.511l-.815.635c-.309-.421-.91-1.09-1.4-1.597l.799-.549zm10.638-.979v.961h-5.658a8.332 8.332 0 01-1.4 1.529c-.197-.198-.652-.55-.91-.73.91-.687 1.726-1.743 2.181-2.851l1.125.292a6.973 6.973 0 01-.395.799h5.057zm-6.817 5.392h3.803v-.945h-3.803v.945zm3.803.927h-3.803v1.056h3.803v-1.056zm.035-3.211c-.292-.438-.893-1.09-1.417-1.58l.85-.549c.489.438 1.125 1.073 1.434 1.476l-.859.653h-.008zm7.367 3.194c-.653-.455-2.001-1.236-2.98-1.76l.653-.876c.962.472 2.31 1.185 2.996 1.64l-.669.996zm-2.439 6.551c.859-1.236 2.147-3.365 3.074-5.203l.876.799c-.859 1.708-1.983 3.726-2.945 5.22l-1.005-.816zm1.039-13.6c.962.532 2.276 1.305 2.962 1.777l-.729.962c-.653-.49-1.949-1.322-2.928-1.906l.704-.833h-.009zm12.347 13.12c0 .686-.146 1.038-.635 1.236-.49.197-1.305.197-2.542.197-.034-.326-.214-.815-.378-1.159.928.052 1.778.052 2.018.035.258-.018.344-.078.344-.327v-3.039c-1.932.506-3.95.996-5.487 1.348l-.403-1.039c1.494-.309 3.726-.799 5.89-1.314v-3.546h-6.105v3.366c0 1.786-.163 4.199-1.125 5.839-.197-.215-.67-.584-.927-.713.833-1.477.91-3.512.91-5.126v-4.473h3.658v-4.62h1.185v4.62h3.58v8.723l.017-.008zm-7.221-9.299c-.24-.833-.944-2.112-1.631-3.04l1.004-.472c.713.91 1.451 2.147 1.709 2.979l-1.09.533h.008zm.893 2.756c1.451.275 3.254.859 4.216 1.348l-.472.876c-.945-.524-2.748-1.142-4.216-1.451l.472-.782v.009zm6.903-5.873c-.549 1.056-1.253 2.25-1.837 3.039l-1.039-.437c.584-.833 1.331-2.13 1.726-3.074l1.159.472h-.009zm7.931 12.037c-1.33.747-3.383 1.477-5.031 1.907a7.018 7.018 0 00-.859-.911c1.657-.309 3.649-.875 4.8-1.476l1.09.489v-.009zm3.907-.506c1.692.489 3.469 1.108 4.577 1.58l-.911.747c-1.09-.507-2.927-1.185-4.782-1.743l.601-.584h-7.212v-5.16c-.421.128-.911.24-1.451.36a4.602 4.602 0 00-.567-.944c2.052-.378 3.237-.893 3.924-1.511h-2.765a31.96 31.96 0 00.404-2.568h3.237v-.927h-3.967v-.798h3.967v-.893h1.107v.893h2.507v-.893h1.142v.893h3.632v2.524h-3.632v.979h4.637s-.017.24-.035.395c-.094.875-.197 1.348-.42 1.562-.215.198-.455.275-.782.292-.111 0-.257.017-.42.017v5.796h-2.782l-.009-.017zm-7.229-9.033c-.052.344-.095.67-.146.979h2.146c.146-.309.215-.635.241-.979h-2.25.009zm8.809 3.709h-8.14v1.014h8.14v-1.014zm0 1.761h-8.14v.996h8.14v-.996zm-8.14 2.782h8.14v-1.022h-8.14v1.022zm2.198-6.474c-.24.42-.618.815-1.159 1.159h7.273a1.752 1.752 0 00-.198-.524c.49.051.928.069 1.108.069.18 0 .292-.018.378-.112.077-.077.146-.249.197-.584h-3.434v1.125h-1.142v-1.125h-3.023v-.008zm3.023-1.778h-2.542c-.017.344-.068.67-.163.979h2.705v-.979zm-2.507-.79h2.507v-.927h-2.507v.927zm3.649-.927v.927h2.524v-.927h-2.524zm21.08 10.038h-6.603v1.889c0 .669-.197.944-.764 1.124-.55.146-1.494.146-2.945.146-.069-.326-.258-.712-.404-1.004 1.091.034 2.198.034 2.473.017.309-.017.395-.077.395-.309v-1.855h-6.543v-1.056h6.543v-.979c1.09-.223 2.293-.566 3.306-.979h-8.329v-.996h10.252l.258-.068.815.687c-1.382.798-3.237 1.468-5.048 1.906v.421h6.602v1.056h-.008zm-.189-9.273h-14.056v-1.057h6.526c-.163-.42-.378-.91-.567-1.287l1.202-.241c.258.455.533 1.056.713 1.528h6.182v1.057zm-12.012 4.293v-3.254h10.089v3.254h-10.089zm1.185-.893h7.65v-1.469h-7.65v1.469z" fill="#58393E"/><path d="M197.817 198.818c-1.331 0-1.992-.756-1.992-1.666 0-.721.301-1.305.928-1.838l3.434-2.996c.945-.85 1.46-1.46 1.46-2.37 0-.833-.704-1.537-1.76-1.537s-1.975.756-2.43 1.743l-2.121-1.193c.816-1.803 2.524-3.151 4.782-3.151 2.542 0 4.311 1.76 4.311 3.889 0 1.614-.644 2.773-1.821 3.795l-3.151 2.773h5.315v2.559h-6.946l-.009-.008zm8.706-6.38c0-3.855 2.181-6.637 5.427-6.637 3.245 0 5.426 2.79 5.426 6.637 0 3.846-2.163 6.637-5.426 6.637-3.263 0-5.427-2.919-5.427-6.637zm8.003 0c0-2.241-1.142-3.812-2.576-3.812-1.434 0-2.576 1.571-2.576 3.812 0 2.103 1.159 3.812 2.576 3.812s2.576-1.709 2.576-3.812zm4.31-2.902c0-2.104 1.211-3.623 3.039-3.623 1.829 0 3.014 1.519 3.014 3.623s-1.21 3.606-3.014 3.606c-1.803 0-3.039-1.537-3.039-3.606zm4.156 0c0-1.065-.455-1.803-1.117-1.803-.661 0-1.142.738-1.142 1.803s.456 1.786 1.142 1.786c.687 0 1.117-.756 1.117-1.786zm-.85 9.282l6.465-12.768h2.696l-6.448 12.768h-2.713zm6.448-3.435c0-2.103 1.21-3.64 3.039-3.64 1.829 0 3.014 1.537 3.014 3.64 0 2.104-1.211 3.606-3.014 3.606-1.803 0-3.039-1.537-3.039-3.606zm4.155 0c0-1.082-.455-1.82-1.116-1.82s-1.142.738-1.142 1.82.455 1.786 1.142 1.786c.687 0 1.116-.781 1.116-1.786z" fill="#D93636"/><path d="M249.993 185.2v14.175h-1.288v-.875h-10.982v.875h-1.219V185.2h13.489zm-1.288 12.158V186.41h-10.982v10.948h10.982zm-2.361-8.432v5.873h-6.285v-5.873h6.285zm-1.185 1.091h-3.941v3.709h3.941v-3.709zm12.572-2.258c-.507-.438-1.477-1.108-2.327-1.64-.833 1.09-1.872 2.095-2.911 2.816-.077-.24-.36-.833-.532-1.056 1.271-.816 2.619-2.104 3.349-3.469l.996.344c-.095.18-.215.36-.327.549.816.49 1.786 1.125 2.31 1.528l-.55.928h-.008zm-.395 11.145a15.027 15.027 0 00-.567-1.306c-3.185 1.323-3.632 1.546-3.924 1.778-.068-.258-.24-.782-.42-1.022.24-.094.583-.326.583-.91v-8.002h4.654v5.435h-3.58v2.782l2.275-.876c-.215-.438-.438-.85-.653-1.237l.851-.343c.601 1.022 1.348 2.438 1.691 3.237l-.91.472v-.008zm-3.254-8.561v1.288h2.507v-1.288h-2.507zm2.507 3.598v-1.4h-2.507v1.4h2.507zm-2.439-6.38h2.748v.876h-2.748v-.876zm7.745 9.651c-.704.85-1.872 1.692-2.893 2.198-.164-.232-.584-.635-.833-.833.979-.42 2.035-1.021 2.636-1.726l1.09.361zm.112-8.955h-3.031v-2.688h3.031v-1.073h1.107v1.073h3.109v2.688h-3.109v.798h3.804v.928h-8.706v-.928h3.795v-.798zm-2.971 8.38v-5.925h7.092v5.925h-7.092zm2.971-9.17v-1.108h-2.001v1.108h2.001zm-1.881 4.963h4.869v-.928h-4.869v.928zm0 1.708h4.869v-.961h-4.869v.961zm0 1.735h4.869v-.996h-4.869v.996zm2.988-9.514v1.108h2.035v-1.108h-2.035zm.91 10.364c1.091.635 2.276 1.434 3.014 2.035l-.876.652c-.686-.601-1.82-1.434-2.85-2.069l.712-.618z" fill="#58393E"/><path d="M94.775 178.193H16.143c-7.535 0-13.643 6.107-13.643 13.639 0 7.533 6.108 13.64 13.643 13.64h78.632c7.535 0 13.644-6.107 13.644-13.64 0-7.532-6.109-13.639-13.644-13.639z" fill="#18ABD3"/><path d="M28.782 190.987c-.85 2.198-2.163 3.89-3.855 5.195 1.58.635 3.452 1.09 5.599 1.322-.421.455-.98 1.348-1.22 1.906-2.541-.361-4.636-.996-6.396-1.949-1.95 1.022-4.233 1.674-6.672 2.069-.163-.506-.67-1.434-1.039-1.854 2.164-.275 4.147-.747 5.856-1.469-1.22-.996-2.215-2.232-3.04-3.726l.876-.309h-2.13v-1.906h5.11v-1.889h-5.908v-1.923h5.908v-2.13h2.017v2.13h5.942v1.923h-5.942v1.889h3.203l.343-.069 1.348.799v-.009zm-8.749 1.168a8.87 8.87 0 002.98 3.022c1.236-.781 2.25-1.786 2.962-3.022h-5.942zm17.292-7.144a29.811 29.811 0 01-1.546 3.288v11.179h-1.983v-8.156c-.378.472-.764.91-1.142 1.305-.215-.473-.799-1.546-1.142-2.018 1.545-1.477 3.03-3.821 3.89-6.216l1.922.618zm9.453 4.748h-1.786v7.384c0 1.254-.292 1.76-1.073 2.052-.799.309-2.018.344-3.804.326-.112-.549-.455-1.416-.747-1.923 1.254.052 2.688.052 3.057.034.403 0 .55-.128.55-.489v-7.384h-6.2v-1.949h6.2v-3.323h2.017v3.323h1.786v1.949zM39.6 195.64c-.404-.996-1.365-2.67-2.095-3.906l1.726-.799c.73 1.185 1.743 2.782 2.232 3.761l-1.855.944H39.6zm11.112-.703c-.404 1.167-1.074 2.507-1.64 3.331-.292-.24-.91-.67-1.271-.876.55-.764 1.09-1.872 1.434-2.876l1.477.421zm2.275-.945v5.401h-1.872v-5.401h-3.03v-1.631h3.03v-1.254H47.99v-1.597h1.58a9.249 9.249 0 00-.473-1.691l1.331-.327H48.23v-1.579h2.782a20.244 20.244 0 00-.49-1.288l1.933-.473c.24.541.54 1.202.73 1.761h2.326v1.579h-2.035l1.322.258c-.24.618-.489 1.254-.73 1.76h1.692v1.597h-2.782v1.254h2.525v1.631h-2.525.009zm-2.344-6.491c.24.532.455 1.236.532 1.691l-1.168.327h2.344c.24-.584.533-1.417.696-2.018h-2.404zm12.381 3.958h-1.511v7.994h-1.89v-7.994h-1.51v.198c0 2.395-.215 5.744-1.597 7.83-.327-.343-1.09-.961-1.494-1.159.309-.472.55-1.005.73-1.58l-1.151.713c-.258-.653-.816-1.692-1.27-2.439l1.27-.686c.438.652.944 1.511 1.22 2.129.454-1.563.506-3.323.506-4.817v-5.796c1.777-.326 3.743-.832 4.928-1.382l1.477 1.417c-1.33.541-3.03.927-4.62 1.219v2.559h4.912v1.794zm15.551 5.753c0 .944-.164 1.468-.748 1.786-.549.326-1.382.378-2.584.378-.069-.533-.326-1.4-.567-1.906.696.051 1.469.034 1.71.017.24 0 .325-.078.325-.309v-3.177h-2.55c-.24 1.983-.747 4.052-1.837 5.564-.344-.31-1.125-.799-1.58-.996a1.228 1.228 0 01-.36.291c-.507.292-1.237.344-2.276.344-.052-.489-.292-1.271-.524-1.726.567.034 1.185.034 1.4.034.197-.017.257-.077.257-.291v-3.22h-2.18c-.198 1.966-.636 4.035-1.58 5.529-.344-.292-1.108-.781-1.563-.979 1.382-2.129 1.477-5.306 1.477-7.684v-5.856h5.65v12.201c0 .438-.035.781-.13 1.056 1.469-2.258 1.598-5.418 1.598-7.796v-5.47h6.07v12.184l-.008.026zm-9.334-4.929v-1.923H67.19v.507c0 .455 0 .91-.034 1.416h2.086zm-2.052-5.495v1.872h2.052v-1.872H67.19zm9.514 5.495v-1.923h-2.361v.129c0 .55-.018 1.159-.052 1.786h2.404l.009.008zm-2.353-5.495v1.872h2.361v-1.872h-2.36zm19.337 3.984c-.601 2.199-1.58 3.924-2.86 5.29 1.305.747 2.851 1.305 4.671 1.631-.42.403-.996 1.236-1.253 1.76-1.95-.421-3.58-1.108-4.963-2.052-1.254.91-2.722 1.614-4.31 2.095-.25-.489-.713-1.254-1.09-1.64 1.433-.361 2.747-.944 3.872-1.726a11.979 11.979 0 01-2.164-3.074c-.747 2.147-1.872 4.276-3.632 5.873-.404-.506-1.022-1.004-1.657-1.365 2.816-2.31 3.89-5.984 4.327-8.947H80.92v-1.889h3.941c.077-1.056.094-1.923.129-2.421h2.018c-.035.584-.07 1.434-.164 2.421h8.217v1.889H86.63a22.57 22.57 0 01-.31 1.675h5.693l.36-.078 1.323.567-.008-.009zm-6.603 1.383c.55 1.039 1.253 1.966 2.146 2.73a8.976 8.976 0 001.872-2.73h-4.018z" fill="#fff"/><path d="M119.582 220.867c-.507.833-1.125 1.657-1.786 2.456v8.56h-1.202v-7.221c-.618.636-1.237 1.219-1.838 1.692-.18-.241-.601-.765-.85-1.005 1.675-1.185 3.435-3.057 4.559-4.903l1.125.421h-.008zm-.636-3.434c-1.056 1.433-2.721 3.013-4.164 4.035-.18-.257-.507-.73-.713-.962 1.348-.91 2.911-2.378 3.727-3.528l1.159.455h-.009zm9.977 6.139h-2.455v6.723c0 .747-.181 1.124-.713 1.322-.549.18-1.468.18-3.057.18a4.402 4.402 0 00-.394-1.176c1.159.034 2.232.034 2.541.017.309-.017.404-.077.404-.361v-6.705h-5.435v-1.151h9.109v1.151zm-.472-4.465h-7.942v-1.142h7.942v1.142zm16.46 1.648s-.017.455-.017.619c-.18 6.817-.326 9.075-.876 9.762-.274.421-.601.549-1.09.601-.455.069-1.219.052-1.966 0-.035-.326-.163-.833-.344-1.142.782.069 1.494.077 1.803.077.275 0 .421-.051.584-.257.378-.473.567-2.619.73-8.526h-2.327c-.197 4.327-.944 7.873-3.812 10.02a4.04 4.04 0 00-.893-.859c.258-.18.489-.378.713-.567-2.473.292-4.997.567-6.818.765l-.18-1.057c.979-.077 2.198-.197 3.529-.326v-1.399h-3.074v-.928h3.074v-.996h-3.04v-4.834h3.04v-1.021h-3.512v-.945h3.512v-1.073a81.38 81.38 0 01-3.057.18c-.051-.257-.163-.652-.292-.893 2.404-.129 5.341-.42 7.015-.798l.601.927c-.876.197-1.983.343-3.177.472v1.185h3.452v.945h-3.452v1.021h3.16v4.834h-3.16v.996h3.186v.928h-3.186v1.288c1.056-.095 2.164-.215 3.254-.344v.077c1.417-1.923 1.838-4.542 1.984-7.598h-1.906v-1.142h1.932c.034-1.142.034-2.327.034-3.564h1.142c0 1.22 0 2.422-.034 3.564h3.451l.017.008zm-12.999 2.963h2.052v-1.168h-2.052v1.168zm2.043 1.983v-1.185h-2.052v1.185h2.052zm1.091-3.16v1.168h2.129v-1.168h-2.129zm2.138 1.975h-2.13v1.185h2.13v-1.185zm22.382-.902c-.927 2.216-2.404 3.89-4.276 5.161 1.777.91 3.872 1.528 6.294 1.82a5.724 5.724 0 00-.747 1.168c-2.619-.404-4.886-1.142-6.723-2.25-2.018 1.125-4.379 1.855-6.835 2.327-.112-.326-.438-.876-.67-1.159 2.31-.378 4.508-.979 6.397-1.924-1.545-1.124-2.748-2.55-3.632-4.31l.361-.129h-1.726v-1.184h5.435v-2.49h-6.165v-1.185h6.165v-2.473h1.236v2.473h6.2v1.185h-6.2v2.49h3.804l.24-.052.833.524.009.008zm-8.921.722c.816 1.528 1.983 2.799 3.512 3.795 1.545-.979 2.799-2.216 3.649-3.795h-7.161zm17.584-6.869c-.49 1.219-1.056 2.421-1.726 3.546v10.784h-1.202v-8.921c-.524.73-1.09 1.4-1.64 1.966-.146-.274-.524-.91-.747-1.184 1.657-1.58 3.203-4.053 4.13-6.577l1.185.377v.009zm9.453 4.327h-2.052v8.398c0 .91-.257 1.288-.858 1.468-.636.197-1.726.215-3.486.197-.069-.309-.292-.858-.473-1.185 1.366.052 2.705.052 3.091.035.361-.035.507-.129.507-.507v-8.397h-6.56v-1.202h6.56v-3.417h1.219v3.417h2.052v1.202-.009zm-6.439 6.251c-.49-1.005-1.529-2.747-2.362-4.053l1.039-.489c.85 1.254 1.924 2.945 2.439 3.941l-1.125.601h.009zm10.52-9.144a10.46 10.46 0 01-1.675 1.82c-.163-.215-.584-.601-.85-.816 1.005-.747 1.949-1.889 2.49-3.039l1.074.309a17.1 17.1 0 01-.404.764h4.13v.962h-4.765zm10.432 4.439h1.743v.927h-1.743v1.966h-5.015v.962h5.436v.944h-5.436v1.022h6.492v.962h-6.492v1.726h-1.202v-1.726h-6.345v-.962h6.345v-1.022h-5.306v-.944h5.306v-.962h-4.816v-.91h4.816v-1.056h-6.62v-.927h6.62v-.945h-4.688v-.91h4.688v-.893h1.202v.893h5.015v1.855zm-8.835-4.405c.489.455 1.124 1.108 1.416 1.511l-.815.636c-.309-.421-.91-1.091-1.4-1.598l.799-.549zm10.638-.979v.962h-5.658a8.327 8.327 0 01-1.4 1.528c-.197-.197-.652-.549-.91-.73.91-.687 1.726-1.743 2.181-2.85l1.125.292a6.96 6.96 0 01-.395.798h5.057zm-6.818 5.384h3.804v-.945h-3.804v.945zm3.813.927h-3.804v1.056h3.804v-1.056zm.034-3.203c-.292-.438-.893-1.09-1.417-1.58l.85-.549c.49.438 1.125 1.073 1.434 1.477l-.858.652h-.009zm7.005-2.163c-.506.695-1.09 1.33-1.674 1.82-.163-.215-.584-.601-.85-.816 1.004-.747 1.949-1.889 2.49-3.039l1.073.309c-.129.257-.258.506-.403.764h4.129v.962h-4.765zm10.424 4.439h1.743v.927h-1.743v1.966h-5.015v.962h5.435v.944h-5.435v1.022h6.492v.962h-6.492v1.726h-1.202v-1.726h-6.345v-.962h6.345v-1.022h-5.306v-.944h5.306v-.962h-4.816v-.91h4.816v-1.056h-6.62v-.927h6.62v-.945h-4.688v-.91h4.688v-.893h1.202v.893h5.015v1.855zm-8.835-4.405c.489.455 1.124 1.108 1.416 1.511l-.815.636c-.309-.421-.911-1.091-1.4-1.598l.799-.549zm10.646-.979v.962h-5.658a8.323 8.323 0 01-1.399 1.528c-.198-.197-.653-.549-.911-.73.911-.687 1.726-1.743 2.181-2.85l1.125.292a6.8 6.8 0 01-.395.798h5.057zm-6.817 5.384h3.804v-.945h-3.804v.945zm3.804.927h-3.804v1.056h3.804v-1.056zm.034-3.203c-.292-.438-.893-1.09-1.417-1.58l.85-.549c.49.438 1.125 1.073 1.434 1.477l-.858.652h-.009zm19.079 7.659h-6.603v1.889c0 .67-.197.945-.764 1.125-.549.146-1.494.146-2.945.146-.069-.326-.258-.713-.404-1.005 1.091.035 2.198.035 2.473.017.309-.017.395-.077.395-.309v-1.854h-6.542v-1.056h6.542v-.979a19.523 19.523 0 003.306-.979h-8.329v-.996h10.252l.258-.069.815.687c-1.382.799-3.237 1.468-5.048 1.906v.421h6.603v1.056h-.009zm-.189-9.273h-14.055v-1.056h6.525c-.163-.421-.378-.91-.567-1.288l1.202-.24c.258.455.533 1.056.713 1.528h6.182v1.056zm-12.012 4.302v-3.254h10.089v3.254h-10.089zm1.185-.902h7.65v-1.468h-7.65v1.468z" fill="#58393E"/><path d="M228.255 229.925c-.155-.171-.155-.395-.017-.592l.927-1.271c.189-.266.472-.283.721-.077.721.567 1.52.927 2.387.927 1.254 0 2.052-.515 2.052-1.52 0-1.081-.532-1.76-2.936-1.837-.284 0-.472-.189-.472-.472v-1.305c0-.284.188-.473.472-.49 1.897-.094 2.524-.755 2.524-1.743 0-.91-.532-1.425-1.52-1.425-.755 0-1.365.3-2.026.816-.223.171-.489.154-.678-.078l-1.005-1.236c-.189-.206-.172-.472.06-.644 1.142-.876 2.37-1.365 3.795-1.365 2.791 0 4.611 1.288 4.611 3.7 0 1.331-.721 2.37-2.164 2.937v.094c1.477.455 2.576 1.537 2.576 3.263 0 2.507-2.275 3.907-4.954 3.907-1.958 0-3.374-.627-4.345-1.597l-.008.008zM239.309 222c0-2.103 1.21-3.623 3.039-3.623 1.829 0 3.014 1.52 3.014 3.623 0 2.104-1.211 3.606-3.014 3.606-1.803 0-3.039-1.536-3.039-3.606zm4.155 0c0-1.064-.455-1.803-1.116-1.803s-1.142.739-1.142 1.803c0 1.065.455 1.786 1.142 1.786.687 0 1.116-.755 1.116-1.786zm-.858 9.273l6.465-12.767h2.696l-6.448 12.767h-2.713zm6.448-3.434c0-2.104 1.211-3.641 3.039-3.641 1.829 0 3.014 1.537 3.014 3.641 0 2.103-1.211 3.606-3.014 3.606-1.803 0-3.039-1.537-3.039-3.606zm4.156 0c0-1.082-.455-1.82-1.117-1.82-.661 0-1.142.738-1.142 1.82s.455 1.786 1.142 1.786c.687 0 1.117-.782 1.117-1.786z" fill="#D93636"/><path d="M270.458 217.664v14.176h-1.288v-.876h-10.982v.876h-1.219v-14.176h13.489zm-1.288 12.149v-10.947h-10.982v10.947h10.982zm-2.362-8.423v5.873h-6.285v-5.873h6.285zm-1.184 1.091h-3.941v3.709h3.941v-3.709zm12.568-2.267c-.507-.438-1.477-1.107-2.327-1.64-.833 1.091-1.872 2.095-2.911 2.817-.077-.241-.36-.833-.532-1.056 1.271-.816 2.619-2.104 3.348-3.469l.996.343c-.094.18-.214.361-.326.55.816.489 1.786 1.124 2.31 1.528l-.55.927h-.008zm-.387 11.145a15.11 15.11 0 00-.566-1.305c-3.186 1.322-3.632 1.546-3.924 1.777-.069-.257-.241-.781-.421-1.021.249-.095.584-.327.584-.911v-8.002h4.654v5.435h-3.581v2.782l2.276-.876c-.215-.438-.438-.85-.653-1.236l.85-.343c.601 1.021 1.348 2.438 1.692 3.236l-.911.473v-.009zm-3.254-8.552v1.288h2.507v-1.288h-2.507zm2.507 3.589v-1.399h-2.507v1.399h2.507zm-2.447-6.371h2.748v.876h-2.748v-.876zm7.745 9.643c-.704.85-1.872 1.691-2.893 2.198-.164-.232-.584-.636-.833-.833.978-.421 2.035-1.022 2.636-1.726l1.09.361zm.12-8.947h-3.031v-2.688h3.031v-1.073h1.108v1.073h3.108v2.688h-3.108v.798h3.804v.928h-8.707v-.928h3.795v-.798zm-2.979 8.38v-5.924h7.092v5.924h-7.092zm2.979-9.179v-1.107h-2v1.107h2zm-1.889 4.963h4.869v-.927h-4.869v.927zm0 1.709h4.869v-.962h-4.869v.962zm0 1.743h4.869v-.996h-4.869v.996zm2.988-9.522v1.107h2.035v-1.107h-2.035zm.919 10.372c1.09.635 2.275 1.434 3.014 2.035l-.876.652c-.687-.601-1.82-1.434-2.851-2.069l.713-.618z" fill="#58393E"/><path d="M94.775 210.658H16.143c-7.535 0-13.643 6.106-13.643 13.639 0 7.532 6.108 13.639 13.643 13.639h78.632c7.535 0 13.644-6.107 13.644-13.639 0-7.533-6.109-13.639-13.644-13.639z" fill="#5975CE"/><path d="M50.712 227.401c-.404 1.168-1.074 2.507-1.64 3.331-.292-.24-.91-.669-1.271-.875.55-.765 1.09-1.872 1.434-2.877l1.477.421zm2.275-.945v5.401h-1.872v-5.401h-3.03v-1.631h3.03v-1.254H47.99v-1.597h1.58a9.271 9.271 0 00-.473-1.691l1.331-.326H48.23v-1.58h2.782a20.244 20.244 0 00-.49-1.288l1.933-.472c.24.541.54 1.202.73 1.76h2.326v1.58h-2.035l1.322.257c-.24.618-.489 1.254-.73 1.76h1.692v1.597h-2.782v1.254h2.525v1.631h-2.525.009zm-2.344-6.491c.24.533.455 1.237.532 1.692l-1.168.326h2.344c.24-.584.533-1.417.696-2.018h-2.404zm12.381 3.95h-1.511v7.994h-1.89v-7.994h-1.51v.197c0 2.396-.215 5.745-1.597 7.831-.327-.343-1.09-.962-1.494-1.159.309-.472.55-1.013.73-1.58l-1.151.713c-.258-.653-.816-1.692-1.27-2.439l1.27-.687c.438.653.944 1.511 1.22 2.13.454-1.563.506-3.323.506-4.817v-5.796c1.777-.326 3.743-.833 4.928-1.382l1.477 1.417c-1.33.54-3.03.927-4.62 1.219v2.558h4.912v1.795zm15.551 5.761c0 .945-.164 1.469-.748 1.786-.549.326-1.382.378-2.584.378-.069-.532-.326-1.4-.567-1.906.696.051 1.469.034 1.71.017.24 0 .325-.077.325-.309v-3.177h-2.55c-.24 1.983-.747 4.053-1.837 5.564-.344-.309-1.125-.799-1.58-.996a1.215 1.215 0 01-.36.292c-.507.292-1.237.343-2.276.343-.052-.489-.292-1.27-.524-1.726.567.035 1.185.035 1.4.035.197-.017.257-.077.257-.292v-3.22h-2.18c-.198 1.966-.636 4.036-1.58 5.53-.344-.292-1.108-.782-1.563-.979 1.382-2.13 1.477-5.307 1.477-7.685v-5.856h5.65v12.201c0 .438-.035.782-.13 1.056 1.469-2.258 1.598-5.417 1.598-7.796v-5.469h6.07v12.184l-.008.025zm-9.334-4.928v-1.923H67.19v.506c0 .455 0 .91-.034 1.417h2.086zm-2.052-5.504v1.872h2.052v-1.872H67.19zm9.514 5.504v-1.923h-2.361v.128c0 .55-.018 1.159-.052 1.786h2.404l.009.009zm-2.353-5.504v1.872h2.361v-1.872h-2.36zm19.337 3.993c-.601 2.198-1.58 3.924-2.86 5.289 1.305.747 2.851 1.305 4.671 1.631-.42.404-.996 1.237-1.253 1.76-1.95-.42-3.58-1.107-4.963-2.052-1.254.91-2.722 1.615-4.31 2.095-.25-.489-.713-1.253-1.09-1.64 1.433-.36 2.747-.944 3.872-1.725a11.979 11.979 0 01-2.164-3.074c-.747 2.146-1.872 4.276-3.632 5.873-.404-.507-1.022-1.005-1.657-1.366 2.816-2.309 3.89-5.984 4.327-8.946H80.92v-1.889h3.941c.077-1.056.094-1.924.129-2.422h2.018c-.035.584-.07 1.434-.164 2.422h8.217v1.889H86.63c-.078.541-.18 1.09-.31 1.674h5.693l.36-.077 1.323.566-.008-.008zm-6.603 1.382c.55 1.039 1.253 1.966 2.146 2.731a8.993 8.993 0 001.872-2.731h-4.018zm-57.64-3.168c-.258 2.395-.687 4.43-1.4 6.13.635 1.237 1.477 2.233 2.567 2.877-.378.274-.85.893-1.09 1.322-.979-.653-1.726-1.511-2.361-2.567-.73 1.159-1.692 2.095-2.911 2.876-.112-.275-.438-.798-.73-1.168l-1.039.893c-.55-.36-1.288-.747-2.103-1.124-1.074.489-2.542.91-4.56 1.202-.128-.378-.455-.928-.704-1.237 1.434-.197 2.559-.438 3.435-.73a23.334 23.334 0 00-2.164-.747c.232-.257.49-.583.713-.944l-1.469.077-.146-1.288c.713-.034 1.563-.068 2.508-.111a10.1 10.1 0 00.566-1.014h-2.395v-2.945h2.91v-.455H16.6v-1.708h-1.237v-1.365H16.6v-1.64h2.473v-.996h1.468v.996h2.619v1.64h1.107v1.365H23.16v1.708h-2.62v.455h2.98v1.185c1.073-1.743 1.614-4.507 1.906-7.306l1.623.214c-.112.91-.24 1.82-.42 2.705h3.855v1.691h-1.057l.018.009zm-11.686 3.288h1.33v-.601h-1.33v.601zm.455-5.727v.524h.876v-.524h-.876zm.884 2.276v-.584h-.876v.584h.876zm-.438 7.289c.541.181 1.09.378 1.632.584.6-.36.944-.764 1.142-1.159l-2.473.129-.292.438-.009.008zm4.422-.661c-.146.653-.506 1.305-1.236 1.924.584.257 1.107.523 1.563.747 1.305-.765 2.25-1.786 2.893-3.109a23.6 23.6 0 01-.962-3.237c-.18.421-.386.833-.618 1.185-.24-.292-.833-.91-1.185-1.185v1.675h-3.254c-.163.309-.343.618-.524.944l1.907-.094v-.567h1.51v.507l.524-.035-.017 1.219-.6.035v-.009zm-2.524-8.904v.524h.944v-.524h-.944zm.944 2.276v-.584h-.944v.584h.944zm-.944 2.85v.601h1.305v-.601h-1.305zm5.727-2.687a27.03 27.03 0 00.833 3.907c.343-1.16.55-2.456.695-3.907h-1.528zm11.488-.696a19.967 19.967 0 01-1.966 3.332v7.873h-1.95v-5.675a13.72 13.72 0 01-1.528 1.202 15.445 15.445 0 00-.91-1.855c1.76-1.15 3.177-2.928 4.164-4.877h-3.58v-1.854h4.413c.258-.713.49-1.417.67-2.112l2.018.489c-.164.549-.361 1.073-.55 1.623h7.908v1.854h-8.689zm8.912 7.161H42.83v2.035c0 .979-.163 1.477-.859 1.777-.687.258-1.64.292-2.945.275-.068-.549-.292-1.305-.54-1.854a35.75 35.75 0 002.034.051c.275-.017.36-.077.36-.292v-1.983h-4.13v-1.803h4.13v-1.142c.506-.309 1.039-.747 1.545-1.202h-4.413v-1.743h6.182l.404-.112 1.219.996a20.537 20.537 0 01-2.997 2.585v.618h3.856v1.803l.008-.009z" fill="#fff"/></g></g></g><defs><linearGradient id="paint0_linear_1282_9459" x1="163.192" y1="131.267" x2="163.31" y2="151.996" gradientUnits="userSpaceOnUse"><stop stop-color="#fff"/><stop offset="1" stop-color="#FFF1B4"/></linearGradient><linearGradient id="paint1_linear_1282_9459" x1="179.114" y1="131.174" x2="179.233" y2="151.903" gradientUnits="userSpaceOnUse"><stop stop-color="#fff"/><stop offset="1" stop-color="#FFF1B4"/></linearGradient><linearGradient id="paint2_linear_1282_9459" x1="196.584" y1="131.075" x2="196.703" y2="151.804" gradientUnits="userSpaceOnUse"><stop stop-color="#fff"/><stop offset="1" stop-color="#FFF1B4"/></linearGradient><linearGradient id="paint3_linear_1282_9459" x1="216.552" y1="130.962" x2="216.664" y2="151.691" gradientUnits="userSpaceOnUse"><stop stop-color="#fff"/><stop offset="1" stop-color="#FFF1B4"/></linearGradient><linearGradient id="paint4_linear_1282_9459" x1="55.84" y1="53.786" x2="55.84" y2="137.294" gradientUnits="userSpaceOnUse"><stop stop-color="#fff"/><stop offset="1" stop-color="#FFF1B4"/></linearGradient><linearGradient id="paint5_linear_1282_9459" x1="18.727" y1="57.881" x2="18.727" y2="131.797" gradientUnits="userSpaceOnUse"><stop stop-color="#fff"/><stop offset="1" stop-color="#FFF1B4"/></linearGradient><linearGradient id="paint6_linear_1282_9459" x1="91.971" y1="18.324" x2="91.971" y2="98.965" gradientUnits="userSpaceOnUse"><stop stop-color="#fff"/><stop offset="1" stop-color="#FFF1B4"/></linearGradient><linearGradient id="paint7_linear_1282_9459" x1="92.177" y1="20.075" x2="92.177" y2="93.991" gradientUnits="userSpaceOnUse"><stop stop-color="#fff"/><stop offset="1" stop-color="#FFF1B4"/></linearGradient><linearGradient id="paint8_linear_1282_9459" x1="102.595" y1="20.075" x2="102.595" y2="93.991" gradientUnits="userSpaceOnUse"><stop stop-color="#fff"/><stop offset="1" stop-color="#FFF1B4"/></linearGradient><linearGradient id="paint9_linear_1282_9459" x1="81.263" y1="20.075" x2="81.263" y2="93.991" gradientUnits="userSpaceOnUse"><stop stop-color="#fff"/><stop offset="1" stop-color="#FFF1B4"/></linearGradient><linearGradient id="paint10_linear_1282_9459" x1="128.728" y1="20.075" x2="128.728" y2="93.991" gradientUnits="userSpaceOnUse"><stop stop-color="#fff"/><stop offset="1" stop-color="#FFF1B4"/></linearGradient><linearGradient id="paint11_linear_1282_9459" x1="128.846" y1="20.075" x2="128.846" y2="93.991" gradientUnits="userSpaceOnUse"><stop stop-color="#fff"/><stop offset="1" stop-color="#FFF1B4"/></linearGradient><linearGradient id="paint12_linear_1282_9459" x1="128.604" y1="20.075" x2="128.604" y2="93.991" gradientUnits="userSpaceOnUse"><stop stop-color="#fff"/><stop offset="1" stop-color="#FFF1B4"/></linearGradient><linearGradient id="paint13_linear_1282_9459" x1="253.063" y1="29.149" x2="253.063" y2="92.932" gradientUnits="userSpaceOnUse"><stop stop-color="#fff"/><stop offset="1" stop-color="#FFF1B4"/></linearGradient><linearGradient id="paint14_linear_1282_9459" x1="254.875" y1="29.149" x2="254.875" y2="92.931" gradientUnits="userSpaceOnUse"><stop stop-color="#fff"/><stop offset="1" stop-color="#FFF1B4"/></linearGradient><linearGradient id="paint15_linear_1282_9459" x1="187.439" y1="35.456" x2="187.439" y2="84.474" gradientUnits="userSpaceOnUse"><stop stop-color="#fff"/><stop offset="1" stop-color="#FFF1B4"/></linearGradient><linearGradient id="paint16_linear_1282_9459" x1="138.718" y1="100.268" x2="138.718" y2="115.288" gradientUnits="userSpaceOnUse"><stop stop-color="#fff"/><stop offset="1" stop-color="#FFE5D9"/></linearGradient><linearGradient id="paint17_linear_1282_9459" x1="159.335" y1="100.267" x2="159.335" y2="115.288" gradientUnits="userSpaceOnUse"><stop stop-color="#fff"/><stop offset="1" stop-color="#FFE5D9"/></linearGradient><linearGradient id="paint18_linear_1282_9459" x1="180.623" y1="100.267" x2="180.623" y2="115.288" gradientUnits="userSpaceOnUse"><stop stop-color="#fff"/><stop offset="1" stop-color="#FFE5D9"/></linearGradient><linearGradient id="paint19_linear_1282_9459" x1="201.833" y1="100.267" x2="201.833" y2="115.287" gradientUnits="userSpaceOnUse"><stop stop-color="#fff"/><stop offset="1" stop-color="#FFE5D9"/></linearGradient><linearGradient id="paint20_linear_1282_9459" x1="222.96" y1="100.267" x2="222.96" y2="115.288" gradientUnits="userSpaceOnUse"><stop stop-color="#fff"/><stop offset="1" stop-color="#FFE5D9"/></linearGradient><clipPath id="clip0_1282_9459"><path fill="#fff" d="M0 0h290v238H0z"/></clipPath></defs></svg>