<svg width="33" height="32" viewBox="0 0 33 32" fill="none" xmlns="http://www.w3.org/2000/svg"><path d="M25.85 6.53c-5.13-5.13-13.47-5.13-18.6 0-5.13 5.13-5.13 13.47 0 18.6 5.13 5.13 13.47 5.13 18.6 0 5.13-5.13 5.13-13.47 0-18.6zm-2.87 10.99l-4.74 4.74c-.93.93-2.45.93-3.38 0l-4.74-4.74c-.93-.93-.93-2.45 0-3.38l4.74-4.74c.93-.93 2.45-.93 3.38 0l4.74 4.74c.93.93.93 2.45 0 3.38z" fill="#F9C73D"/><path d="M27.722 4.66c-6.16-6.16-16.18-6.16-22.34 0s-6.16 16.18 0 22.34 16.18 6.16 22.34 0 6.16-16.18 0-22.34zM7.262 25.13c-5.13-5.13-5.13-13.47 0-18.6 5.13-5.13 13.47-5.13 18.6 0 5.13 5.13 5.13 13.47 0 18.6-5.13 5.13-13.47 5.13-18.6 0z" fill="#58393E"/><path d="M16.557 11.46l-4.377 4.378 4.377 4.377 4.377-4.377-4.377-4.377z" fill="#fff"/><path d="M18.24 9.4c-.93-.93-2.45-.93-3.38 0l-4.74 4.74c-.93.93-.93 2.45 0 3.38l4.74 4.74c.93.93 2.45.93 3.38 0l4.74-4.74c.93-.93.93-2.45 0-3.38L18.24 9.4zm2.69 6.43l-4.38 4.38-4.38-4.38 4.38-4.38 4.38 4.38z" fill="#58393E"/></svg>