<svg width="47" height="47" viewBox="0 0 47 47" fill="none" xmlns="http://www.w3.org/2000/svg"><path d="M42.502 16.87c-1.3-3.28-5.09-5.13-8.99-4.39l-1.72.32.26-1.73c.06-.37.08-.68.08-.96 0-2-.86-3.89-2.45-5.33-1.62-1.47-3.8-2.28-6.12-2.29-4.74-.03-8.6 3.37-8.62 7.55 0 .28.02.59.07.96l.24 1.74-1.72-.34c-3.91-.76-7.7 1.06-9.02 4.33-1.55 3.81.59 8.27 4.86 10.14l1.32.58-.76 1.22c-2.34 3.77-1.73 8.38 1.42 10.73 3.27 2.44 8.25 1.44 11.08-2.21l.99-1.28.99 1.29c2.81 3.67 7.78 4.7 11.07 2.29 3.16-2.32 3.81-6.93 1.5-10.72l-.75-1.23 1.32-.57c4.29-1.84 6.46-6.28 4.94-10.1h.01zm-10.7 5.88c-.88 0-1.65-.42-2.16-1.05l-2.58 1.11c.06.25.09.52.09.79 0 .92-.36 1.75-.92 2.39l1.97 2.42c.47-.36 1.05-.58 1.69-.57 1.54 0 2.79 1.26 2.78 2.8 0 1.54-1.26 2.79-2.8 2.78-1.54 0-2.79-1.26-2.78-2.8 0-.51.15-.98.39-1.38l-2.07-2.54a3.607 3.607 0 01-4.02-.13l-2.22 2.2c.43.49.69 1.13.69 1.83 0 1.54-1.26 2.79-2.8 2.78-1.54 0-2.79-1.26-2.78-2.8 0-1.54 1.26-2.79 2.8-2.78.44 0 .86.12 1.23.3l2.31-2.29c-.47-.62-.77-1.39-.76-2.23 0-.31.05-.61.13-.9l-2.57-1.07a2.79 2.79 0 01-2.21 1.09c-1.54 0-2.79-1.26-2.78-2.8 0-1.54 1.26-2.79 2.8-2.78 1.54 0 2.79 1.26 2.78 2.8 0 .25-.05.49-.11.72l2.5 1.05c.54-.87 1.42-1.5 2.47-1.69l.08-2.99a2.8 2.8 0 01-2.21-2.74c0-1.54 1.26-2.79 2.8-2.78 1.54 0 2.79 1.26 2.78 2.8 0 1.37-.99 2.5-2.29 2.73l-.08 2.96c1.17.15 2.16.84 2.72 1.82l2.48-1.06a2.9 2.9 0 01-.12-.79c0-1.54 1.26-2.79 2.8-2.78 1.54 0 2.79 1.26 2.78 2.8 0 1.54-1.26 2.79-2.8 2.78h-.01z" fill="#F25252"/><path d="M44.822 15.95c-1.56-3.93-5.7-6.34-10.2-6.11-.07-2.61-1.22-5.06-3.27-6.91-2.08-1.88-4.85-2.92-7.78-2.93h-.04c-5.99 0-10.9 4.35-11.08 9.76-4.51-.26-8.66 2.12-10.25 6.04-1.9 4.69.27 10.06 4.97 12.76-2.21 4.64-1.16 9.98 2.71 12.86 4.06 3.02 9.76 2.29 13.56-1.55 2.21 2.27 5.09 3.47 7.92 3.47 1.98 0 3.94-.59 5.62-1.83 3.88-2.85 4.98-8.18 2.8-12.84 4.71-2.67 6.92-8.02 5.06-12.72h-.02zm-7.25 11.02l-1.32.57.75 1.23c2.31 3.79 1.67 8.4-1.5 10.72-3.29 2.41-8.26 1.39-11.07-2.29l-.99-1.29-.99 1.28c-2.84 3.65-7.81 4.65-11.08 2.21-3.15-2.34-3.76-6.95-1.42-10.73l.76-1.22-1.32-.58c-4.27-1.87-6.41-6.33-4.86-10.14 1.33-3.27 5.12-5.09 9.02-4.33l1.72.34-.24-1.74c-.05-.37-.08-.68-.07-.96.02-4.18 3.88-7.58 8.62-7.55 2.32 0 4.49.82 6.12 2.29 1.59 1.43 2.46 3.32 2.45 5.33 0 .28-.03.59-.08.96l-.26 1.73 1.72-.32c3.91-.73 7.69 1.11 8.99 4.39 1.52 3.82-.65 8.26-4.94 10.1h-.01z" fill="#58393E"/><path d="M31.822 17.16c-1.54 0-2.8 1.24-2.8 2.78 0 .27.05.54.12.79l-2.48 1.06a3.636 3.636 0 00-2.72-1.82l.08-2.96c1.3-.24 2.29-1.37 2.29-2.73 0-1.54-1.24-2.8-2.78-2.8a2.79 2.79 0 00-.59 5.52l-.08 2.99c-1.05.18-1.93.81-2.47 1.69l-2.5-1.05c.06-.23.11-.47.11-.72 0-1.54-1.24-2.8-2.78-2.8-1.54 0-2.8 1.24-2.8 2.78 0 1.54 1.24 2.8 2.78 2.8.9 0 1.69-.43 2.21-1.09l2.57 1.07c-.07.29-.13.58-.13.9 0 .84.29 1.61.76 2.23l-2.31 2.29c-.37-.18-.78-.3-1.23-.3-1.54 0-2.8 1.24-2.8 2.78 0 1.54 1.24 2.8 2.78 2.8 1.54 0 2.8-1.24 2.8-2.78 0-.7-.26-1.34-.69-1.83l2.22-2.2c.59.42 1.32.68 2.1.68.71 0 1.36-.21 1.92-.55l2.07 2.54c-.24.41-.38.88-.39 1.38 0 1.54 1.24 2.8 2.78 2.8 1.54 0 2.8-1.24 2.8-2.78 0-1.54-1.24-2.8-2.78-2.8-.64 0-1.22.22-1.69.57l-1.97-2.42c.56-.64.92-1.47.92-2.39 0-.27-.03-.53-.09-.79l2.58-1.11c.51.63 1.28 1.05 2.16 1.05 1.54 0 2.8-1.24 2.8-2.78 0-1.54-1.24-2.8-2.78-2.8h.01z" fill="#fff"/></svg>