<svg xmlns="http://www.w3.org/2000/svg" xmlns:xlink="http://www.w3.org/1999/xlink" width="376.25" height="98.344" viewBox="0 0 376.25 98.344">
  <defs>
    <clipPath id="clip-path">
      <rect id="Rectangle_292" data-name="Rectangle 292" width="376.25" height="63.806" fill="none"/>
    </clipPath>
    <clipPath id="clip-path-2">
      <rect id="Rectangle_274" data-name="Rectangle 274" width="136.899" height="93.344" fill="none"/>
    </clipPath>
  </defs>
  <g id="Group_1646" data-name="Group 1646" transform="translate(1.25 -699.956)">
    <g id="Group_1604" data-name="Group 1604" transform="translate(-1.25 699.956)">
      <g id="Group_1456" data-name="Group 1456" transform="translate(0 0)" clip-path="url(#clip-path)">
        <path id="Path_17880" data-name="Path 17880" d="M0,.128v45.9s29.365,38.6,188.125,2.056c0,0,60.356-15.957,129-1.841,0,0,48.319,8.587,59.129-4.929V0Z" transform="translate(0 0)" fill="#c3f090"/>
      </g>
    </g>
    <g id="Group_1605" data-name="Group 1605" transform="translate(232.101 704.955)">
      <g id="Group_1434" data-name="Group 1434" transform="translate(0 0)" clip-path="url(#clip-path-2)">
        <path id="Path_17685" data-name="Path 17685" d="M54.618,15.95l-5.808-1.878C34.448,25.293,29.984,21.031,14.888,42.345c-2.7,3.811-11.21,8-13.5,11.921-1.576,2.7-2.861,1.993,3.573,5.3,3.384,1.736,8.749,2.75,11.9,4.863l.342.229c3.38,2.269,21.178,7.169,23.678,10.306,4.947,3.768,4.565,3.995,10.662,7.275a95.479,95.479,0,0,0,8.542,4.27l.483.215c7.251,3.222,15.838,3.271,22.579,7.162.09-.041,4.811-7.691,5.552-8.735,1.636-2.306,2.049-4.053,4.357-6.484,4.551-4.794,8.985-15.359,14.349-21.369.693-.777,10.8-17.482,10.948-18.123-.468-.584-4.418-1.231-6.892-2.9-4.138-2.8-21.041-7.408-26.45-9.024-6.992-2.092-16.927-6.349-23.646-8.294-2.3-.666-5.688-2.6-7.231-3.091.338-.067.185-.108.483.093" transform="translate(-0.005 -0.652)" fill="#c15f58" fill-rule="evenodd"/>
        <path id="Path_17686" data-name="Path 17686" d="M54.618,15.95l-5.808-1.878C34.448,25.293,29.984,21.031,14.888,42.345c-2.7,3.811-11.21,8-13.5,11.921-1.576,2.7-2.861,1.993,3.573,5.3,3.384,1.736,8.749,2.75,11.9,4.863l.342.229c3.38,2.269,21.178,7.169,23.678,10.306,4.947,3.768,4.565,3.995,10.662,7.275a95.479,95.479,0,0,0,8.542,4.27l.483.215c7.251,3.222,15.838,3.271,22.579,7.162.09-.041,4.811-7.691,5.552-8.735,1.636-2.306,2.049-4.053,4.357-6.484,4.551-4.794,8.985-15.359,14.349-21.369.693-.777,10.8-17.482,10.948-18.123-.468-.584-4.418-1.231-6.892-2.9-4.138-2.8-21.041-7.408-26.45-9.024-6.992-2.092-16.927-6.349-23.646-8.294-2.3-.666-5.688-2.6-7.231-3.091C54.473,15.79,54.321,15.749,54.618,15.95Z" transform="translate(-0.005 -0.652)" fill="none" stroke="#607f8e" stroke-miterlimit="22.926" stroke-width="0.216"/>
        <path id="Path_17687" data-name="Path 17687" d="M42.393,18.922c2.744,1.366,6.044,2.649,13.027,4.478,9.39,2.458,21.318,6.883,33.155,11.276,9.639,3.576,19.221,7.129,27.235,9.556-.381.643-.788,1.323-1.205,2.02-7.988-2.446-17.377-5.929-26.824-9.434-11.82-4.385-23.731-8.8-32.932-11.213-8.343-2.185-11.6-3.621-14.775-5.312.748-.426,1.517-.877,2.319-1.371m66.039,37.4c.344-.538.78-1.233,1.274-2.03-10.392-2.689-21.136-5.523-24.078-6.5l-1.2-.395c-8.035-2.662-14.482-4.854-20.817-7.136s-12.8-4.739-20.874-7.927c-2.11-.833-4.949-2.259-8.163-3.875-1.452-.729-2.978-1.5-4.547-2.263-.657.475-1.325.989-2.006,1.552,1.914.928,3.782,1.866,5.535,2.747,3.305,1.661,6.226,3.127,8.342,3.963,7.926,3.131,14.4,5.586,20.946,7.946,6.565,2.364,13,4.555,20.87,7.162l1.2.395c2.924.969,13.31,3.713,23.518,6.357M19.9,36.209c-.474.587-.957,1.2-1.454,1.842a37.32,37.32,0,0,0,3.464,1.4l1.239.395c5.554,1.775,11.106,3.637,16.672,5.5C48.54,48.273,57.3,51.21,66.639,54c3.132.935,10.178,3.283,18.488,6.053,5.329,1.776,11.17,3.722,16.821,5.577q.608-1.006,1.226-1.989c-5.8-1.9-11.841-3.919-17.332-5.748C77.41,55.078,70.261,52.7,67.29,51.81c-9.412-2.809-18.1-5.722-26.752-8.626-5.478-1.837-10.946-3.672-16.708-5.514l-1.239-.395c-.683-.219-1.608-.59-2.7-1.067M94.2,77.838c.488-.592.976-1.244,1.464-1.943-5-1.483-9.758-2.98-14.5-4.614A275.15,275.15,0,0,1,50.033,58.349c-7.889-3.815-15.191-6.658-22.4-9.466-4.432-1.726-8.829-3.44-13.307-5.359a19.932,19.932,0,0,1-1.82,1.7c4.825,2.094,9.545,3.933,14.3,5.786,7.154,2.787,14.4,5.608,22.231,9.394a277,277,0,0,0,31.376,13.04c4.495,1.546,9.027,2.978,13.781,4.4M6.955,49.413c3.657,1.639,7.292,3.424,10.692,5.316,9.358,5.2,29.236,15.022,47.6,23.087C73.461,81.42,81.36,84.672,87.867,87c-.371.583-.8,1.265-1.246,1.973-6.48-2.336-14.239-5.534-22.279-9.063C45.913,71.812,25.949,61.951,16.54,56.72,12.852,54.667,8.885,52.745,4.914,51c.643-.527,1.332-1.056,2.041-1.585" transform="translate(-0.228 -0.877)" fill="#e4e5df"/>
        <path id="Path_17688" data-name="Path 17688" d="M27.975,8.723,32.6,6.275c2.158.6,2.28.832,2,3.083-.088.712-.915,3.894-.915,3.9.118,1.5-1.863,5.078-3.422,5.078-1.79,0-5.87-1.346-5.826-3.446.057-2.84.75-5.167,3.535-6.166" transform="translate(-1.133 -0.291)" fill="#faae82" fill-rule="evenodd"/>
        <path id="Path_17689" data-name="Path 17689" d="M23.206,16.086H24.82c-.753.569-.414.306-.421.36,1.958-1.252,1.292-4.22,1.676-6.456.731,0,.636-.354,1.225-.15.02.1.548,1.407.614,1.569.379-.082,0-.175.492-.343,1.328-5.16,4.749-2.8,8.094-4.013,1.6-2.665-1.617-3.4-1.755-3.567.04-.045,3.342-2.763,1.21-3.2-4.887-1-7.663.854-12.391,1.434-.412.051-1.871.648-1.973,1.092-3.353,1.162.238,8.26-.195,10.387,0,.007-.164,2.156-.164,2.168.484.167,1.335.771,1.973.716" transform="translate(-0.934 0)" fill="#f89455" fill-rule="evenodd"/>
        <path id="Path_17690" data-name="Path 17690" d="M52.926,44.838,55.158,43.6c.537-.113,4.065,1.3,6.724,1.411.912.039,1.231,1.508.761,1.688-3.48,1.327-9.329,1.881-9.092-.637.051-.544-.543-.578-.625-1.228" transform="translate(-2.453 -2.021)" fill="#5d3234" fill-rule="evenodd"/>
        <path id="Path_17691" data-name="Path 17691" d="M13.178,42.119c.289,4.74,5.845,8.818,9.788,7.773,2.186-.58,7.409-1.648,9.272-3.028,1.546-1.145,10.49-7.331,11.063-6.872,3.473,2.777,6.258,3.334,9.545,5.644a7.7,7.7,0,0,0,1.437.62c.143,0,.465.217.608.214,0-.007,1.424-2.164,1.767-2.912.153-.336.645-.673.643-1.018-.416-.319-3.591-3.343-3.975-3.776-2.168-2.462-5.039-6.317-7.711-7.021-3.5-.925-7.213.48-10.6,1.232-5.563,1.235-16.337,6.795-21.837,9.145" transform="translate(-0.611 -1.457)" fill="#4b606b" fill-rule="evenodd"/>
        <path id="Path_17692" data-name="Path 17692" d="M55.29,48.641l1.927-1.67c.5-.224,4.245.423,6.87-.015.9-.152,1.518,1.219,1.1,1.493-3.129,2.02-8.736,3.776-9.026,1.264-.062-.542-.651-.451-.867-1.072" transform="translate(-2.563 -2.175)" fill="#785559" fill-rule="evenodd"/>
        <path id="Path_17693" data-name="Path 17693" d="M36.3,32.308l1.246-4.815,2.941,2.58c1.985-.618,9.751,3.574,11.72,4.694,1.3.74,4.19,3.359,4.056,4.92-.018.22.091.176.091.545-1.457,0-.622-.014-1.631-.363-1.611-.558-1.539-3.306-3.454-3.619-3.045-.5-2.179-.152-5.387-.189-1.668-.02-5.341.516-6.756-.068-1.014-.418-3.089-1.707-2.925-3.682.007-.089.013.1.1,0" transform="translate(-1.678 -1.275)" fill="#faae82" fill-rule="evenodd"/>
        <path id="Path_17694" data-name="Path 17694" d="M28.986,15.993l-4.534-.816c-3.267,0-4.45.736-6.883,2.637-2.787,2.176-6.409,11.527-7.621,15-1.012,2.9-1.021,9.836-.635,13.061-.329,4.677,14.849-1.157,16.846-3.421,2.332-2.64,4.655-5.41,4.9-8.744a15.719,15.719,0,0,1,.552-2.66c1.38-.119,2.268,3.9,3.771,1.776a34.886,34.886,0,0,0,4.481-4.678C40,27.749,34.856,20.276,34,19.432l-.145-.142c-.952-.936-3.522-3.171-4.865-3.3" transform="translate(-0.421 -0.704)" fill="#feebe6" fill-rule="evenodd"/>
        <path id="Path_17695" data-name="Path 17695" d="M10.748,47.672c.535,4.717,6.438,8.5,10.427,7.254,2.211-.693,7.511-2.032,9.351-3.507,1.526-1.224,10.381-7.866,10.992-7.437,3.7,2.593,6.583,3,10.07,5.14a8,8,0,0,0,1.5.545c.147-.012.489.192.635.181,0-.007,1.35-2.235,1.663-3,.14-.343.628-.706.608-1.051-.442-.295-3.852-3.151-4.267-3.565-2.345-2.345-5.483-6.047-8.259-6.613-3.632-.739-7.37.855-10.806,1.783-5.64,1.522-16.4,7.635-21.92,10.27" transform="translate(-0.498 -1.642)" fill="#5e7d8c" fill-rule="evenodd"/>
        <path id="Path_17696" data-name="Path 17696" d="M60.1,68.663,35.87,59.67c-.591,1.9.309,9.775,1.292,11.616,1.29,2.417,3.145,6.024,5.208,7.943a20.493,20.493,0,0,0,1.619,2.3c2.11,3.088,2.768,4.012,6.994,1.917,2.137-1.059,7.472-3.4,7.735-5.54.147-1.192.746-8.469,1.384-9.243" transform="translate(-1.654 -2.766)" fill="#7a552e" fill-rule="evenodd"/>
        <path id="Path_17697" data-name="Path 17697" d="M40.552,62.247l-5.123-1.9c-.591,1.895.309,9.775,1.292,11.616,1.29,2.417,3.145,6.024,5.208,7.942a20.729,20.729,0,0,0,1.618,2.3c1.4,2.053,2.167,3.149,3.761,3.037l.009-.144c.24-4.107.008-7.265.008-11.251L43.67,67.652c-1.513-1.284-2.058-3.213-3.118-5.405" transform="translate(-1.634 -2.798)" fill="#a16d3d" fill-rule="evenodd"/>
        <path id="Path_17698" data-name="Path 17698" d="M47.056,53.011c-.872-.189-4.343,2.349-5.542,2.764-1.929,1.157-5.2,1.965-6.022,4.221-.051,2.039,6.34,11.929,7.985,13.333a7.112,7.112,0,0,0,2.216,2.759c1.9,1.393,4.049-.71,6.734-1.624,2.385-.811,9.265-3.884,6.538-6.984-3.854-4.384-7.586-9.665-11.909-14.468" transform="translate(-1.645 -2.457)" fill="#b58a57" fill-rule="evenodd"/>
        <path id="Path_17699" data-name="Path 17699" d="M40.565,69.27c0-5.4,1.487-10.868,2.395-11.931,1.457-1.71,8.072-4.713,10.65-4.187,1.469.295,1.548,5.448,1.548,6.522,0,.931.128,2.015.128,2.689-1.507.38-.818-5.414-1.793-7.172-.173-.313-.027-.09-.128-.385-2.1,0-8.841,1.987-9.39,4.676C43.727,60.7,42.468,72.2,42.569,72.571c.2-.061-1.7-2.451-2-3.3" transform="translate(-1.88 -2.461)" fill="#7a552e" fill-rule="evenodd"/>
        <path id="Path_17700" data-name="Path 17700" d="M125.593,35.512l-3.053.956c-.515-.363-.867-4.023-1.025-4.348.554-.4,2.171-.319,2.99-.909.186.213,1.2,4.455,1.213,4.474l-.125-.174" transform="translate(-5.633 -1.447)" fill="#faae82" fill-rule="evenodd"/>
        <path id="Path_17701" data-name="Path 17701" d="M135.526,41.436l-3.034-1.012c-.2-.6,1.651-3.768,1.712-4.124.684,0,1.947,1.012,2.957,1.012.027.281-1.637,4.313-1.635,4.338Z" transform="translate(-6.141 -1.683)" fill="#faae82" fill-rule="evenodd"/>
        <path id="Path_17702" data-name="Path 17702" d="M108.352,50.007l-7.315-9.026c-3.54.846,4.813-3.447,14.195,1.252,2.3,1.151,6.105,4.159,6.5,4.237.7-3.121-.778-5.6-1.451-8.214l-.039-.154c-.449-1.744.1-.877,2.561-2,.159-.072,3.037-1.257,3.048-1.259a38.644,38.644,0,0,0,2.121,8.087c.8,1.818,2.573,10.3-.027,11.023-5.67,1.572-6.514.248-12.274-1.628-3.154-1.026-3.889-3.014-7.314-2.314" transform="translate(-4.645 -1.615)" fill="#5090aa" fill-rule="evenodd"/>
        <path id="Path_17703" data-name="Path 17703" d="M94.2,51.285l6.483-10.013c.946,0,2.843-.465,4.83-.465a14.9,14.9,0,0,1,5.675,1.562,64.683,64.683,0,0,1,10.427,6.607c.16.134,1.382,1.145,1.458,1.161.049-.117.02-.09.02-.227.394-.015.23.024.5-.072.007-.022,1.5-3.2,1.653-3.514a34.493,34.493,0,0,1,3.3-5.6c.01-.013.684-1.209.693-1.246,2.185,0,4.265.875,6.3,1.4-1.547,2.248-3.092,12.2-3.911,15.357-.734,2.831-1.025,3.69-4.162,4.014-3.2.328-1.2.23-4.378,0a16.33,16.33,0,0,1-2.277-.389,66.68,66.68,0,0,1-12.326-2.3l-.259-.078c-2.7-.809-5.39-2.1-8-3.088-1.971-.744-3.427-1.03-5.336-2.651a3.693,3.693,0,0,0-.7-.46" transform="translate(-4.367 -1.83)" fill="#57b6db" fill-rule="evenodd"/>
        <path id="Path_17704" data-name="Path 17704" d="M78.2,40.217l-6.038,1.958c-1.176.9-4.349,5.662-5.279,7.082-.729,1.11-.89,3.848.525,4.753.73.371,11.941-7.594,12.58-9.309.731-1.706.255-1.358-1.24-3.463a2.538,2.538,0,0,1-.549-1.02" transform="translate(-3.075 -1.864)" fill="#faae82" fill-rule="evenodd"/>
        <path id="Path_17705" data-name="Path 17705" d="M85.209,20.67,81.45,17.424c-8.632,0-5.742,12.792-2.563,11.661.083-.03.459-.2.5-.13a50.025,50.025,0,0,1,.185,5.552c.822.076,5.853-2.191,5.978-2.22.88-2.544,1.4-9.094-.125-11.306Z" transform="translate(-3.511 -0.808)" fill="#faae82" fill-rule="evenodd"/>
        <path id="Path_17706" data-name="Path 17706" d="M86.38,29.322c-1.3.138-6.576,3.3-8.177,3.93-1.112.438-6.31,6.429-6.278,8.268.025,1.389,3.134,3.26,4.125,3.865.339.207,2.1,1.779,2.2,1.8.117.687,1.1-1.28,1.828-1.547A32.925,32.925,0,0,0,88.142,50.8c1.347.584,3.011,1.841,4.432,1.817,5.914-.1,8.319-7.885,7.982-11.15-.328-3.2-10.508-12.189-12.812-12.189-.433,0-.941-.006-1.363.039" transform="translate(-3.334 -1.358)" fill="#c4c4c4" fill-rule="evenodd"/>
        <path id="Path_17707" data-name="Path 17707" d="M71.963,41.778c.324-.1.662-.174,1-.25,1.112-.249,2.216-.5,2.3-1.732.319-4.459,2.661-4.7,4.762-4.925,1.276-.134,2.434-.256,2.553-1.93.054-.751.115-1.425.2-2.026.435-.227.863-.446,1.265-.646a21.066,21.066,0,0,0-.327,2.754c-.189,2.624-1.8,2.8-3.577,2.982-1.649.174-3.487.365-3.738,3.871-.149,2.079-1.663,2.419-3.191,2.764-.214.049-.428.1-.636.152a2.606,2.606,0,0,1-.614-1.014M89.631,30.1a8.338,8.338,0,0,0-1.124-.606c-1.439,1.389-1.215.682-1.721,4.076-.071,2.738-.576,3.531-3.283,3.621-1.347.044-2.644.087-3,1.013a12.752,12.752,0,0,0-1.1,3.472c-.107.469-.207.905-.291,1.229l-.156.067a16.343,16.343,0,0,1-2.653.889,5.748,5.748,0,0,0-1.63.663c.423.287.819.533,1.118.717a4.578,4.578,0,0,1,.793-.278,17.171,17.171,0,0,0,2.823-.942c1.115-.707.753-.762,1.108-2.09.658-2.877.2-3.508,3.016-3.6,3.625-.119,4.3-1.194,4.387-4.731.035-1.4.458-2.917,1.707-3.5M85.905,49.712q.586.325,1.175.613l-.01-.172c-.206-3.928-.526-4.418-.966-5.089h0a5.046,5.046,0,0,1-.726-1.749h0c-.385-1.927.828-1.534,2.744-1.722a16.656,16.656,0,0,0,3.281-.543l.323-.1.068-.332a14.248,14.248,0,0,0,.276-4.565,2.366,2.366,0,0,1-.026-.692,7.134,7.134,0,0,1,2.266-.431c.306-.041.643-.085,1.019-.137-.352-.341-.707-.678-1.064-1.006l-.1.013c-1.779.238-2.539.339-2.954.784-.376.4-.339.827-.273,1.569a13.023,13.023,0,0,1-.191,3.9,18.347,18.347,0,0,1-2.734.4,8.246,8.246,0,0,0-3.5.811l-.138.09-.068.149c-.5,1.082.266,3.293.851,4.182l0,0c.326.5.569.87.756,4.021M97.983,37.587l-.186,0c-1.559.021-1.846,1.15-1.83,2.377.007.483.057,1,.1,1.484.116,1.188.216,2.218-.346,2.7-.067.55-.478.787-1.106.871a7.533,7.533,0,0,1-1.251,0c-1.11-.051-2.523-.117-3.123.814-.419.65-.062,1.4.318,2.207.58,1.226,1.2,2.534.237,4.048-.365-.158-.731-.338-1.092-.516.722-1.148.257-2.128-.177-3.046-.519-1.1-1.006-2.129-.245-3.31.956-1.482,2.733-1.4,4.131-1.335,1.592.072,1.68-.688,1.52-2.326-.049-.5-.1-1.038-.109-1.578-.021-1.618.343-3.121,2.194-3.459.334.36.655.715.96,1.066M92.566,52.629c.027-.971-.036-1.931-.1-2.855.017-.641-.351-1.174.525-1.61.022,0,.542-.134,1.238-.3,1.057-.252,2.4-.572,2.925-.643.549-.074.462-.879.36-1.816-.045-.423-.093-.866-.1-1.328a3.032,3.032,0,0,1,2.791-3.446,3.846,3.846,0,0,1,.347.85c.019.081.038.163.055.247a2.1,2.1,0,0,0-2.056,2.339c0,.386.051.811.094,1.217.167,1.531.31,2.844-1.342,3.068-.436.057-1.769.374-2.813.624-.347.082-.665.158-.92.216l.033.511c.062.96.129,1.957.1,2.976a7.681,7.681,0,0,1-1.134-.049Z" transform="translate(-3.336 -1.367)" fill="#609896"/>
        <path id="Path_17708" data-name="Path 17708" d="M141.882,35.441l-6.509-2.6c-1.151.631-1.3.778-1.1,2.725.187,1.829,2.928,1.978,4.093,1.978a14.931,14.931,0,0,0,3.974-.031c1.1-.338,1.109-1.333-.459-2.067" transform="translate(-6.221 -1.522)" fill="#293352" fill-rule="evenodd"/>
        <path id="Path_17709" data-name="Path 17709" d="M76.58,18.061l-1.037,2.98,3.9,1.159c-.077.145-.457,8.583-.464,9.29,3.576.814,9.56-1.8,11.1-4.628.533-1.569-1.178-6.829-3.1-8.348-2.355-1.856-7.175-3.128-9.807-1.159-.281.21-.627.21-.591.706" transform="translate(-3.502 -0.759)" fill="#f0632c" fill-rule="evenodd"/>
        <path id="Path_17710" data-name="Path 17710" d="M87.189,20.3l-3.312-3.515c.128-1.908,3.346-2.641,4.8-1.316.645,1.648.537,3.913-1.49,4.831" transform="translate(-3.888 -0.686)" fill="#f0632c" fill-rule="evenodd"/>
        <path id="Path_17711" data-name="Path 17711" d="M127.121,27.6l-6.82,1.622c-.577,1.18-.611,1.382.671,2.859,1.206,1.389,3.532-.069,4.486-.741a14.949,14.949,0,0,0,3.229-2.317c.708-.909.137-1.726-1.567-1.423" transform="translate(-5.559 -1.277)" fill="#293352" fill-rule="evenodd"/>
        <path id="Path_17712" data-name="Path 17712" d="M94.074,73.624c1.764,1.436,1.258,3.714.727,4.981l-.082.194c-1.732,2.207-5,2.32-7.585,2.509a22.928,22.928,0,0,1-7.47-1.219,3.684,3.684,0,0,1,.08-6.513c3.7-2.006,11.16-2.535,14.33.049" transform="translate(-3.603 -3.332)" fill="#dcd5ca" fill-rule="evenodd"/>
        <path id="Path_17713" data-name="Path 17713" d="M87.818,73.93c-1.37,0-2.483.678-2.483,1.514s1.113,1.516,2.483,1.516,2.482-.68,2.482-1.516-1.112-1.514-2.482-1.514" transform="translate(-3.956 -3.427)" fill="#644336" fill-rule="evenodd"/>
        <path id="Path_17714" data-name="Path 17714" d="M90.758,75.754c-1.389,0-2.515.506-2.515,1.129s1.125,1.128,2.515,1.128,2.515-.5,2.515-1.128-1.126-1.129-2.515-1.129" transform="translate(-4.091 -3.512)" fill="#774736" fill-rule="evenodd"/>
        <path id="Path_17715" data-name="Path 17715" d="M88.324,77.174c-1.389,0-2.515.506-2.515,1.129s1.126,1.128,2.515,1.128,2.514-.5,2.514-1.128-1.126-1.129-2.514-1.129" transform="translate(-3.978 -3.578)" fill="#644336" fill-rule="evenodd"/>
        <path id="Path_17716" data-name="Path 17716" d="M86.295,76.77c-1.389,0-2.515.5-2.515,1.127s1.126,1.128,2.515,1.128,2.515-.5,2.515-1.128-1.126-1.127-2.515-1.127" transform="translate(-3.884 -3.559)" fill="#774736" fill-rule="evenodd"/>
        <path id="Path_17717" data-name="Path 17717" d="M84.6,75.485c-1.389,0-2.515.5-2.515,1.129S83.216,77.74,84.6,77.74s2.515-.5,2.515-1.126-1.126-1.129-2.515-1.129" transform="translate(-3.805 -3.499)" fill="#935d4d" fill-rule="evenodd"/>
        <path id="Path_17718" data-name="Path 17718" d="M76.593,66.481c-2.232-1.9-6.983-1.643-9.309-.8-1.8.654-1.908,2.891-1.167,4.6a8.7,8.7,0,0,0,1.825,3.036c1.213,1.194,3.028,1.374,4.59,1.393,2.542.028,3.413-2.47,4.164-4.391.376-.96,1.239-3.114-.1-3.838" transform="translate(-3.045 -3.015)" fill="#c7a898" fill-rule="evenodd"/>
        <path id="Path_17719" data-name="Path 17719" d="M68.593,65.6c-1.3.352-2.728.682-2.416,2.284.257,1.316,1.738.955,2.621,1.363a19.38,19.38,0,0,0,4.458.654c.848.012,3.038-.662,3.43-1.366.324-.581.442-1.671-.422-2.058-.955-.426-.688-.641-1.993-.764-.96-.09-1.9-.393-3.008-.4a9.64,9.64,0,0,0-2.67.287" transform="translate(-3.066 -3.028)" fill="#e0dfdf" fill-rule="evenodd"/>
        <path id="Path_17720" data-name="Path 17720" d="M66.161,68.132a2.892,2.892,0,0,0,1.6,1.186c.031.01.063.017.1.025a30.879,30.879,0,0,0,3.855.64c1.372.216,4.2.174,4.817-1.117a1.88,1.88,0,0,0-.216-1.807,6.531,6.531,0,0,0-1.929-.944l-.175-.037-1.955-.142c-.8-.106-5.179.516-5.945,1.379-.462.522-.3.452-.147.817" transform="translate(-3.06 -3.056)" fill="#c28552" fill-rule="evenodd"/>
        <path id="Path_17721" data-name="Path 17721" d="M72.435,67.992l-.239-.33c-.683.174-1.392-.383-1.279.773.1.981.277,1.49,1.38,1,.627-.275.6-.812.138-1.448" transform="translate(-3.287 -3.137)" fill="#285827" fill-rule="evenodd"/>
        <path id="Path_17722" data-name="Path 17722" d="M68.216,66.34a.627.627,0,0,0,0,.956c.669.7,1.182,1.847,2.026.319.127-.732.161-1.311-.156-1.583a1.687,1.687,0,0,0-1.867.309" transform="translate(-3.152 -3.054)" fill="#285827" fill-rule="evenodd"/>
        <path id="Path_17723" data-name="Path 17723" d="M74.9,66.912l-.329-.455c-.936.238-1.912-.528-1.758,1.062.132,1.348.381,2.047,1.9,1.38.859-.377.821-1.116.189-1.987" transform="translate(-3.375 -3.081)" fill="#285827" fill-rule="evenodd"/>
        <path id="Path_17724" data-name="Path 17724" d="M69.968,66.043c.294.393.732.667.993-.03-.076-.051-.031-.244-.108-.285a.57.57,0,0,0-.885.315" transform="translate(-3.243 -3.042)" fill="#eb442f" fill-rule="evenodd"/>
        <path id="Path_17725" data-name="Path 17725" d="M68.232,66.889l-.33.229c-1.727-.3-.184,3.15.717,1.1.183-.415.238-1.283-.387-1.331" transform="translate(-3.111 -3.101)" fill="#eb442f" fill-rule="evenodd"/>
        <path id="Path_17726" data-name="Path 17726" d="M76.132,68.041c-3.454,1.071,1.418,2.693.334.328-.055-.117-.192-.373-.334-.328" transform="translate(-3.471 -3.154)" fill="#eb442f" fill-rule="evenodd"/>
        <path id="Path_17727" data-name="Path 17727" d="M72.863,67.708l-.481-.216c-.94-.053.129,2.145.542.75.058-.191.12-.429-.061-.533" transform="translate(-3.338 -3.129)" fill="#eb442f" fill-rule="evenodd"/>
        <path id="Path_17728" data-name="Path 17728" d="M74.3,65.823c-.452-.106-.932-.072-.613.773.171.458.674.778.9.018.129-.436-.069-.447-.286-.792" transform="translate(-3.411 -3.049)" fill="#eb442f" fill-rule="evenodd"/>
        <path id="Path_17729" data-name="Path 17729" d="M104.82,64.47c-2.418-.08-13.794,2.857-11.143,9.9,1.4,3.729,20.213,8.4,21.52-2.929.388-3.376-7.514-7.111-10.377-6.973" transform="translate(-4.324 -2.988)" fill="#c18757" fill-rule="evenodd"/>
        <path id="Path_17730" data-name="Path 17730" d="M101.158,70.387,98.2,73.567c-.624.88-2.414,12.2-2.929,14.509l-.022.1c-.252,1.131-.552,1.642.13,2.511.094.116.433.411.618.38.085-.379,1.082-2.963,1.279-3.565.664-2.04,1.369-4.84,1.823-6.889l.026-.12c.369-1.665.74-6.041,1.373-7.512.044-.1.148-.454.263-.5-.815.737,3.928-.306,4.8.057l.152.065a8.021,8.021,0,0,0,1.98-.289c.038.862,1.18,4.465,1.384,6.008a40.441,40.441,0,0,1,.866,5.34,39.391,39.391,0,0,0,.633,5.933c.058.129.2.992.49.959.558.133,1.73-.008,1.749-.6.089-2.671-.769-5.217-1.076-7.624-.215-1.687-.123-3.8-.37-5.654a33.1,33.1,0,0,1-.482-4.035l-.008-.238c-.117-4.311-1.291-2.234-7.345-2.37a7.5,7.5,0,0,0-2.376.35" transform="translate(-4.402 -3.229)" fill="#c18757" fill-rule="evenodd"/>
        <path id="Path_17731" data-name="Path 17731" d="M106.8,53.363c-1.237,1.284-2.251,5.491-2.248,7.262a12.676,12.676,0,0,0,.014,2.3,3.782,3.782,0,0,0,.147.986c.185,0,2.516-.715,3.131-.846.172-.035.287-.01.294-.158.034-.015.067-2.2.154-2.621l0-.127c.017-.733.01-1.6-.037-2.492l0-.08a9.329,9.329,0,0,0-.584-3.418c-.131-.418-.642-1.038-.869-.8" transform="translate(-4.844 -2.471)" fill="#825330" fill-rule="evenodd"/>
        <path id="Path_17732" data-name="Path 17732" d="M107.23,56.429l-.184.078c-.989.421-1.028.967-1.315,1.882-.169.54,1.327-.987,1.346-1.008.167-.291.489-.732.214-1.011-.044.016,0,.035-.06.059" transform="translate(-4.901 -2.613)" fill="#f68a47" fill-rule="evenodd"/>
        <path id="Path_17733" data-name="Path 17733" d="M106.209,59.571l-.133.078a3.967,3.967,0,0,0-.852,1.168c-.08.126-.264.419-.166.559.706.13,1.721-1.084,1.965-1.649.106-.242.74-1.536-.165-.838l-.072.056c-.184.141-.456.553-.578.626" transform="translate(-4.869 -2.72)" fill="#f68a47" fill-rule="evenodd"/>
        <path id="Path_17734" data-name="Path 17734" d="M105.99,62.054a1.063,1.063,0,0,0-.624,1.058,6.3,6.3,0,0,0,2.162-1.413c.03-.028.8-1.374-.667-.586-.05.026-.856.938-.872.942" transform="translate(-4.884 -2.822)" fill="#f68a47" fill-rule="evenodd"/>
        <path id="Path_17735" data-name="Path 17735" d="M109.377,56.343a3.5,3.5,0,0,0-.771,1.231,22.475,22.475,0,0,0-1.213,5.187c-.049.7.309.641,1.059.607.452-.02,1.44-.1,1.595-.565l.03-.093a12.833,12.833,0,0,0,.4-2.935c.035-.7.254-1.416.254-2.349,0-1.418-.288-1.982-1.358-1.084" transform="translate(-4.978 -2.592)" fill="#825330" fill-rule="evenodd"/>
        <path id="Path_17736" data-name="Path 17736" d="M103.27,62.8l-3.035.838a10.775,10.775,0,0,1-.368-3.666,20.475,20.475,0,0,1,.082-3.526c.085-.42.372-1.172,1-.516a26.826,26.826,0,0,1,2.04,5.111c.092.459.6,1.776.412,2.046a1.3,1.3,0,0,1-.133-.287" transform="translate(-4.628 -2.581)" fill="#825330" fill-rule="evenodd"/>
        <path id="Path_17737" data-name="Path 17737" d="M101.313,59.3a2.9,2.9,0,0,0-1.045,1.956c.039.03.031.012.06.049.73.091,1.214-1.1,1.227-1.8,0-.218-.135-.3-.242-.209" transform="translate(-4.648 -2.747)" fill="#e6813c" fill-rule="evenodd"/>
        <path id="Path_17738" data-name="Path 17738" d="M102.377,61.429l-.209-.024c-.278.053-1.564,1.355-1.445,1.646a1.884,1.884,0,0,0,1.654-1.622" transform="translate(-4.669 -2.847)" fill="#e6813c" fill-rule="evenodd"/>
        <path id="Path_17739" data-name="Path 17739" d="M110.178,58.548c-1.131-.207-2.331,1.924-1.207,1.652.154-.037,1.553-1.587,1.207-1.652" transform="translate(-5.031 -2.714)" fill="#f68a47" fill-rule="evenodd"/>
        <path id="Path_17740" data-name="Path 17740" d="M109.984,60.467a4.162,4.162,0,0,0-1.43.737c-.684.971.721.729,1.219.281.25-.223.719-.954.212-1.018" transform="translate(-5.024 -2.803)" fill="#f68a47" fill-rule="evenodd"/>
        <path id="Path_17741" data-name="Path 17741" d="M109.534,62.267c-.588.067-1.227.174-1.6.174h-.073c-1.742,0-3.776-.031-5.575-.031a12.926,12.926,0,0,0-3.439.273c-.116.037-.1.122-.217.165-.126.481-.366,1.116.651,1.125.381,0,1.711.156,2.4.156,1.765,0,3.373-.015,5.137-.1a17.044,17.044,0,0,0,3.075-.114c1.265-.348,1.541-1.871-.363-1.652" transform="translate(-4.567 -2.886)" fill="#b1483b" fill-rule="evenodd"/>
        <path id="Path_17742" data-name="Path 17742" d="M110.2,63.459l.25.156a13.711,13.711,0,0,1-.586,4.688l-.016.071a13.88,13.88,0,0,1-1.711,3.806c-.846.81-3.268.9-4.407.813a10.365,10.365,0,0,1-2.595-.387c-.826-.41-1.242-2.567-1.453-3.461a37.666,37.666,0,0,1-.453-4.952c-.016-.75.534-.445,1.477-.589a14.77,14.77,0,0,0,1.992-.18,47.4,47.4,0,0,1,6.856.037c.167.011.463,0,.646,0" transform="translate(-4.6 -2.935)" fill="#b1483b" fill-rule="evenodd"/>
        <path id="Path_17743" data-name="Path 17743" d="M110.458,66l.5-.533c1.33,0,.758.113,1.472.875.362.39-.07,1.485-.442,1.907s-1.235.406-1.81.392c0-.032.062-.453.062-.455a3.584,3.584,0,0,1,.081-.4c.007-.08.645-.219.958-.559.894-.963.149-1.225-.82-1.225" transform="translate(-5.107 -3.035)" fill="#b1483b" fill-rule="evenodd"/>
        <path id="Path_17744" data-name="Path 17744" d="M99.372,65.334c-.156.246-.613-.078-1.184.626-.791.973-.708,1.6-.2,2.781a1.355,1.355,0,0,0,1.449.814c1.148-.1.437-.328.5-1.063-.584-.2-1.421.358-1.561-1.086-.113-1.178,1.243-.42,1.5-1.352.146-.529-.559-.624-.5-.719" transform="translate(-4.524 -3.029)" fill="#b1483b" fill-rule="evenodd"/>
        <path id="Path_17745" data-name="Path 17745" d="M102.473,64.411l-.135.233c.077.525.018,3.226.038,4.072.017.782.2,3.74.205,3.734a10.634,10.634,0,0,0,.077-2.686,40.456,40.456,0,0,1-.056-5.079c.02-.119-.036-.332-.129-.274" transform="translate(-4.744 -2.985)" fill="#813427" fill-rule="evenodd"/>
        <path id="Path_17746" data-name="Path 17746" d="M105.2,64.649c-.332-.655-.3,1.6-.3,1.749-.027,1.142-.04,2.328-.031,3.468.006.524-.089,1.21-.075,1.732a4.339,4.339,0,0,0,.02.816c.175.383.267-4.893.3-5.706.011-.26.1-2.025.085-2.06" transform="translate(-4.857 -2.991)" fill="#813427" fill-rule="evenodd"/>
        <path id="Path_17747" data-name="Path 17747" d="M107.637,64.913c.01-.281-.078-.391-.152-.328-.3.263-.439,7.171-.458,7.581.117.138.126-.03.173-.763a60.672,60.672,0,0,1,.437-6.49" transform="translate(-4.961 -2.993)" fill="#813427" fill-rule="evenodd"/>
        <path id="Path_17748" data-name="Path 17748" d="M100.217,64.824a.122.122,0,0,1,.237-.054l.041.177c.031.137.215.134.4.092a2.949,2.949,0,0,0,.592-.23l.009,0a.122.122,0,0,1,.109.217l-.007,0a3.141,3.141,0,0,1-.649.25c-.314.072-.621.05-.7-.274Z" transform="translate(-4.646 -2.998)" fill="#813427"/>
        <path id="Path_17749" data-name="Path 17749" d="M100.236,66.265a.123.123,0,0,1-.02-.172.121.121,0,0,1,.171-.018c.746.592.939.391,1.071.251.1-.108.187-.2.349-.128a.12.12,0,0,1,.068.158.123.123,0,0,1-.158.067c-.011,0-.043.03-.083.071-.195.207-.478.5-1.4-.229" transform="translate(-4.644 -3.062)" fill="#813427"/>
        <path id="Path_17750" data-name="Path 17750" d="M100.183,67.686a.122.122,0,0,1-.014-.172.125.125,0,0,1,.173-.014l.554.471c.318.268.507.086.746-.146.064-.061.129-.124.2-.186l0,0,.013-.01a.14.14,0,0,1,.032-.025.124.124,0,0,1,.165.052.121.121,0,0,1-.039.156l-.01.01,0,0c-.067.056-.13.118-.19.175-.327.317-.587.568-1.073.156Z" transform="translate(-4.642 -3.128)" fill="#813427"/>
        <path id="Path_17751" data-name="Path 17751" d="M100.6,69.576a.12.12,0,0,1,.042-.166.122.122,0,0,1,.168.041.458.458,0,0,0,.335.222.8.8,0,0,0,.366-.038.875.875,0,0,0,.317-.184.354.354,0,0,0,.136-.278.123.123,0,0,1,.111-.133.125.125,0,0,1,.133.113.594.594,0,0,1-.213.477,1.15,1.15,0,0,1-.406.237,1.022,1.022,0,0,1-.481.047.7.7,0,0,1-.507-.338" transform="translate(-4.663 -3.201)" fill="#813427"/>
        <path id="Path_17752" data-name="Path 17752" d="M100.789,70.924a.13.13,0,0,1-.046-.153c.019-.066.07-.1.113-.082.1.395,1.166.373,1.2.086a.158.158,0,0,1,0,.171c-.756.709-1.181.193-1.268-.022" transform="translate(-4.67 -3.277)" fill="#813427"/>
        <path id="Path_17753" data-name="Path 17753" d="M102.918,64.9a.122.122,0,1,1,.23.082c-.015.045-.013.069,0,.08l0,0a.361.361,0,0,0,.2.033,1.659,1.659,0,0,0,.378-.065,2.149,2.149,0,0,0,.406-.156.128.128,0,0,1,.01-.086l.007-.011.007-.01,0,0,.007-.007h0l0,0,0,0a.06.06,0,0,1,.017-.013h0l.083-.056a.111.111,0,0,1,.062-.022.121.121,0,0,1,.131.112c.014.186-.315.391-.672.494a2.012,2.012,0,0,1-.438.074.56.56,0,0,1-.36-.09l-.01-.01a.291.291,0,0,1-.067-.344" transform="translate(-4.77 -2.997)" fill="#813427"/>
        <path id="Path_17754" data-name="Path 17754" d="M102.745,66.436a.122.122,0,0,1,.186-.158l.243.287c.066.02.257-.082.535-.229.169-.09.367-.2.6-.3a.122.122,0,0,1,.1.222c-.219.1-.417.2-.586.292-.363.194-.61.326-.785.218a.086.086,0,0,1-.036-.029Z" transform="translate(-4.762 -3.061)" fill="#813427"/>
        <path id="Path_17755" data-name="Path 17755" d="M102.833,68.021a.122.122,0,1,1,.109-.217c.27.135.421.219.518.274a1.446,1.446,0,0,0,.143.074c.541.2.6-.326.724-.338a.122.122,0,0,1,.133.11.324.324,0,0,1-.044.187.406.406,0,0,1-.134.135c-.288.174-.212.343-.766.133l-.006,0a1.339,1.339,0,0,1-.169-.088c-.093-.051-.237-.132-.507-.268" transform="translate(-4.764 -3.143)" fill="#813427"/>
        <path id="Path_17756" data-name="Path 17756" d="M102.751,69.53a.122.122,0,0,1,.174-.172.711.711,0,0,0,.493.276c.556-.008.568-.244.773-.52a.121.121,0,0,1,.169-.026.123.123,0,0,1,.027.172.42.42,0,0,0-.044.1.358.358,0,0,1-.14.215,1.678,1.678,0,0,1-.781.3.916.916,0,0,1-.67-.346" transform="translate(-4.762 -3.202)" fill="#813427"/>
        <path id="Path_17757" data-name="Path 17757" d="M102.836,71.088a.122.122,0,0,1-.019-.17.123.123,0,0,1,.171-.021.876.876,0,0,0,.557.244.756.756,0,0,0,.532-.342c.013-.019.014-.015.014-.013a.166.166,0,0,1,.037-.055.121.121,0,1,1,.188.153h0v0a.269.269,0,0,1-.049.069.971.971,0,0,1-.711.436,1.1,1.1,0,0,1-.718-.3m1.48-.211,0,0v0c0-.006,0-.013,0-.008Z" transform="translate(-4.765 -3.277)" fill="#813427"/>
        <path id="Path_17758" data-name="Path 17758" d="M103,72.158a.121.121,0,0,1,0-.172.124.124,0,0,1,.173,0l.1.1c.305.294.784-.147.937-.289a.262.262,0,0,1,.106-.076.122.122,0,0,1,.148.088.12.12,0,0,1-.087.149c-.023.006.013,0,0,.017-.195.18-.8.741-1.271.286Z" transform="translate(-4.773 -3.325)" fill="#813427"/>
        <path id="Path_17759" data-name="Path 17759" d="M105.619,65.105a.123.123,0,0,1,.071-.158.125.125,0,0,1,.157.071.111.111,0,0,0,.049.054.483.483,0,0,0,.247.043,1.008,1.008,0,0,0,.321-.068.61.61,0,0,0,.1-.044l.009-.011.013-.019v0c.046-.065.1-.147.223-.119a.1.1,0,0,1,.034.013.123.123,0,0,1,.044.168.662.662,0,0,1-.334.244,1.252,1.252,0,0,1-.4.08.705.705,0,0,1-.379-.076.341.341,0,0,1-.154-.175" transform="translate(-4.896 -3.006)" fill="#813427"/>
        <path id="Path_17760" data-name="Path 17760" d="M105.528,66.5a.122.122,0,0,1,.114-.216l.408.22a.641.641,0,0,0,.264-.056.139.139,0,0,0,.086-.1.123.123,0,0,1,.141-.1.121.121,0,0,1,.1.14.369.369,0,0,1-.215.276.907.907,0,0,1-.4.084.122.122,0,0,1-.057-.015Z" transform="translate(-4.889 -3.071)" fill="#813427"/>
        <path id="Path_17761" data-name="Path 17761" d="M105.471,67.916a.122.122,0,0,1,.131-.207l.461.295c.106-.047.346-.154.36-.235a.122.122,0,1,1,.241.041c-.036.208-.361.354-.5.417-.019.008,0-.015-.018,0a.123.123,0,0,1-.154.019Z" transform="translate(-4.887 -3.137)" fill="#813427"/>
        <path id="Path_17762" data-name="Path 17762" d="M105.5,69.489a.122.122,0,0,1,.177-.168c.155.166.265.224.36.205a.881.881,0,0,0,.378-.278.121.121,0,0,1,.174,0,.125.125,0,0,1,0,.174,1.061,1.061,0,0,1-.508.344c-.182.031-.361-.045-.58-.278" transform="translate(-4.889 -3.209)" fill="#813427"/>
        <path id="Path_17763" data-name="Path 17763" d="M105.519,70.981a.12.12,0,0,1-.035-.168.122.122,0,0,1,.169-.035.55.55,0,0,0,.246.071.853.853,0,0,0,.208-.009c.031-.008.054-.013.064-.017a.12.12,0,0,1,.127-.088.122.122,0,0,1,.113.131.191.191,0,0,1-.031.088v0a.346.346,0,0,1-.222.125.981.981,0,0,1-.278.012.762.762,0,0,1-.359-.11" transform="translate(-4.889 -3.279)" fill="#813427"/>
        <path id="Path_17764" data-name="Path 17764" d="M105.56,72.291a.119.119,0,0,1-.143-.1.122.122,0,0,1,.094-.143l.8-.164a.122.122,0,1,1,.049.238Z" transform="translate(-4.887 -3.332)" fill="#813427"/>
        <path id="Path_17765" data-name="Path 17765" d="M108.265,65.168a.12.12,0,0,1,.087-.149.122.122,0,0,1,.149.088.122.122,0,0,0,.017.033h0a.273.273,0,0,0,.19.05,1.358,1.358,0,0,0,.344-.05c.078-.021.149-.043.209-.066a.106.106,0,0,1,.044-.043l.027-.016.008-.006a.148.148,0,0,1,.041-.02.263.263,0,0,1,.049-.011l.035-.006a.121.121,0,0,1,.11.207,1.4,1.4,0,0,1-.459.2,1.652,1.652,0,0,1-.409.057.5.5,0,0,1-.367-.128.335.335,0,0,1-.074-.138" transform="translate(-5.019 -3.012)" fill="#813427"/>
        <path id="Path_17766" data-name="Path 17766" d="M107.923,66.328a.122.122,0,0,1,.078-.153.119.119,0,0,1,.143.055l1.241-.11a.123.123,0,0,1,.022.244l-1.334.117v0a.12.12,0,0,1-.126-.082Z" transform="translate(-5.003 -3.065)" fill="#813427"/>
        <path id="Path_17767" data-name="Path 17767" d="M107.872,67.459a.12.12,0,0,1,.152-.08.122.122,0,0,1,.081.153c-.056.181-.039.287.019.341l.006,0a.374.374,0,0,0,.252.06,1.126,1.126,0,0,0,.372-.084c.137-.057.244-.117.238-.145a.122.122,0,0,1,.094-.144.124.124,0,0,1,.144.1c.031.156-.144.32-.384.419a1.409,1.409,0,0,1-.456.1.593.593,0,0,1-.423-.123l-.009-.008a.533.533,0,0,1-.086-.59" transform="translate(-4.998 -3.123)" fill="#813427"/>
        <path id="Path_17768" data-name="Path 17768" d="M107.772,69.059a.122.122,0,0,1-.03-.17.125.125,0,0,1,.17-.03c.392.186.678.5,1.117.117a.347.347,0,0,0,.073-.147.121.121,0,0,1,.241-.021.53.53,0,0,1-.115.308c-.682.536-1.105.156-1.456-.058" transform="translate(-4.994 -3.185)" fill="#813427"/>
        <path id="Path_17769" data-name="Path 17769" d="M107.646,70.637a.121.121,0,0,1-.061-.16.122.122,0,0,1,.161-.061,1.942,1.942,0,0,0,.692.206.532.532,0,0,0,.527-.356.122.122,0,1,1,.221.1.757.757,0,0,1-.753.5,2.123,2.123,0,0,1-.788-.229" transform="translate(-4.987 -3.254)" fill="#813427"/>
        <path id="Path_17770" data-name="Path 17770" d="M107.553,72.005a.124.124,0,0,1,.016-.174.12.12,0,0,1,.171.017.465.465,0,0,0,.11.1.313.313,0,0,0,.223.044.508.508,0,0,0,.238-.121.806.806,0,0,0,.169-.2.122.122,0,0,1,.167-.037.12.12,0,0,1,.038.168,1.059,1.059,0,0,1-.217.254.759.759,0,0,1-.354.173.549.549,0,0,1-.395-.08.7.7,0,0,1-.166-.145" transform="translate(-4.984 -3.32)" fill="#813427"/>
        <path id="Path_17771" data-name="Path 17771" d="M69.619,29.965c-1.166-1.741-3.65-1.507-4.866-.73-.94.6-1,2.651-.61,4.215a10.344,10.344,0,0,0,.954,2.783,2.55,2.55,0,0,0,2.4,1.278c1.329.026,1.785-2.265,2.177-4.025.2-.88.648-2.855-.054-3.52" transform="translate(-2.963 -1.328)" fill="#b7b9be" fill-rule="evenodd"/>
        <path id="Path_17772" data-name="Path 17772" d="M65.437,29.161a1.734,1.734,0,0,0-1.264,2.093c.134,1.207.909.877,1.37,1.252a6.232,6.232,0,0,0,2.331.6,2.474,2.474,0,0,0,1.793-1.252c.17-.532.232-1.531-.221-1.886-.5-.391-.359-.588-1.041-.7a9.4,9.4,0,0,0-1.573-.366,2.981,2.981,0,0,0-1.4.262" transform="translate(-2.974 -1.34)" fill="#e0dfdf" fill-rule="evenodd"/>
        <path id="Path_17773" data-name="Path 17773" d="M64.39,32c.3.436.819.32,1.166.6a6.222,6.222,0,0,0,2.33.6,2.636,2.636,0,0,0,1.694-1.039.681.681,0,0,0-.122-.129c-.5-.391-.359-.586-1.04-.7a9.7,9.7,0,0,0-1.574-.369,3.031,3.031,0,0,0-1.4.262A2.256,2.256,0,0,0,64.39,32" transform="translate(-2.985 -1.435)" fill="#833418" fill-rule="evenodd"/>
        <path id="Path_17774" data-name="Path 17774" d="M64.617,33.5a1.9,1.9,0,0,0-1.651.053.659.659,0,0,0-.287.367.522.522,0,0,0,.079.428c.247.379.932.725,2.224.825a.452.452,0,0,1,.384.175h0l.041.039-.484.373-.008.067c.023.01.031.017,0,.015h0l-.086-.008,0,0,0,0a3.542,3.542,0,0,1-2.747-1.161,1.1,1.1,0,0,1-.16-.905,1.343,1.343,0,0,1,.568-.746,2.774,2.774,0,0,1,2.437-.149Zm.3,2.263-.007.063v0l.008-.067Zm-.007.063.007-.063-.059.044a.528.528,0,0,1,.052.019" transform="translate(-2.868 -1.515)" fill="#b7b9be"/>
      </g>
    </g>
  </g>
</svg>
