<svg xmlns="http://www.w3.org/2000/svg" xmlns:xlink="http://www.w3.org/1999/xlink" width="194.5" height="132.618" viewBox="0 0 194.5 132.618">
  <defs>
    <clipPath id="clip-path">
      <rect id="Rectangle_274" data-name="Rectangle 274" width="194.5" height="132.618" fill="none"/>
    </clipPath>
  </defs>
  <g id="Group_1458" data-name="Group 1458" transform="translate(0 0)">
    <g id="Group_1434" data-name="Group 1434" transform="translate(0 0)" clip-path="url(#clip-path)">
      <path id="Path_17685" data-name="Path 17685" d="M77.554,16.74,69.3,14.072C48.9,30.014,42.554,23.959,21.106,54.24,17.272,59.655,5.179,65.605,1.929,71.177c-2.24,3.834-4.065,2.832,5.077,7.524,4.807,2.466,12.43,3.907,16.9,6.909l.486.325c4.8,3.223,30.088,10.186,33.641,14.642,7.028,5.353,6.486,5.676,15.148,10.336A135.653,135.653,0,0,0,85.32,116.98l.687.3c10.3,4.578,22.5,4.647,32.08,10.175.127-.058,6.835-10.927,7.888-12.411,2.325-3.276,2.912-5.758,6.19-9.212,6.466-6.811,12.766-21.822,20.387-30.36.985-1.1,15.347-24.838,15.554-25.748-.665-.829-6.277-1.749-9.792-4.126-5.879-3.975-29.894-10.525-37.579-12.821C110.8,29.809,96.686,23.761,87.141,21c-3.267-.946-8.081-3.692-10.273-4.391.48-.095.263-.153.686.133" transform="translate(0.038 4.994)" fill="#c15f58" fill-rule="evenodd"/>
      <path id="Path_17686" data-name="Path 17686" d="M77.554,16.74,69.3,14.072C48.9,30.014,42.554,23.959,21.106,54.24,17.272,59.655,5.179,65.605,1.929,71.177c-2.24,3.834-4.065,2.832,5.077,7.524,4.807,2.466,12.43,3.907,16.9,6.909l.486.325c4.8,3.223,30.088,10.186,33.641,14.642,7.028,5.353,6.486,5.676,15.148,10.336A135.653,135.653,0,0,0,85.32,116.98l.687.3c10.3,4.578,22.5,4.647,32.08,10.175.127-.058,6.835-10.927,7.888-12.411,2.325-3.276,2.912-5.758,6.19-9.212,6.466-6.811,12.766-21.822,20.387-30.36.985-1.1,15.347-24.838,15.554-25.748-.665-.829-6.277-1.749-9.792-4.126-5.879-3.975-29.894-10.525-37.579-12.821C110.8,29.809,96.686,23.761,87.141,21c-3.267-.946-8.081-3.692-10.273-4.391C77.348,16.512,77.131,16.454,77.554,16.74Z" transform="translate(0.038 4.994)" fill="none" stroke="#607f8e" stroke-miterlimit="22.926" stroke-width="0.216"/>
      <path id="Path_17687" data-name="Path 17687" d="M58.163,18.922c3.9,1.94,8.587,3.764,18.508,6.363,13.34,3.493,30.287,9.78,47.105,16.02,13.7,5.081,27.308,10.129,38.694,13.577-.542.913-1.119,1.879-1.713,2.87-11.349-3.475-24.689-8.423-38.11-13.4-16.794-6.23-33.716-12.508-46.788-15.931C64,25.313,59.381,23.273,54.867,20.87c1.062-.606,2.156-1.246,3.3-1.948m93.825,53.14c.489-.764,1.108-1.752,1.81-2.885-14.764-3.821-30.028-7.846-34.208-9.23l-1.7-.561c-11.416-3.782-20.575-6.9-29.576-10.139C79.293,46,70.125,42.516,58.657,37.987c-3-1.183-7.032-3.21-11.6-5.5C45,31.447,42.828,30.357,40.6,29.267c-.934.675-1.882,1.405-2.851,2.2,2.719,1.318,5.373,2.652,7.864,3.9,4.7,2.36,8.846,4.443,11.853,5.631,11.26,4.448,20.455,7.937,29.759,11.289,9.327,3.359,18.464,6.471,29.652,10.175l1.7.561c4.154,1.377,18.91,5.275,33.413,9.032M26.2,43.482c-.673.835-1.36,1.7-2.066,2.618a53.022,53.022,0,0,0,4.921,1.982l1.76.561C38.7,51.164,46.593,53.81,54.5,56.462,66.9,60.623,79.337,64.8,92.609,68.755c4.449,1.328,14.461,4.665,26.267,8.6,7.571,2.523,15.87,5.288,23.9,7.923q.864-1.429,1.742-2.826c-8.238-2.7-16.824-5.567-24.625-8.166-11.98-3.994-22.138-7.379-26.358-8.637-13.371-3.992-25.71-8.129-38.007-12.255-7.782-2.61-15.551-5.216-23.738-7.834L30.03,45c-.97-.312-2.284-.839-3.83-1.516m105.566,59.145c.694-.841,1.386-1.768,2.08-2.76-7.1-2.107-13.863-4.234-20.605-6.555A390.92,390.92,0,0,1,69.017,74.939c-11.208-5.42-21.582-9.46-31.825-13.449-6.3-2.452-12.544-4.887-18.906-7.613a28.32,28.32,0,0,1-2.585,2.41c6.856,2.975,13.561,5.588,20.323,8.22,10.164,3.959,20.456,7.968,31.585,13.347a393.55,393.55,0,0,0,44.577,18.527c6.386,2.2,12.825,4.231,19.58,6.246M7.813,62.242c5.2,2.329,10.359,4.864,15.191,7.552,13.3,7.394,41.537,21.342,67.635,32.8,11.663,5.121,22.885,9.742,32.13,13.044-.527.828-1.138,1.8-1.771,2.8-9.206-3.319-20.23-7.862-31.653-12.877C63.163,94.066,34.8,80.056,21.431,72.623c-5.239-2.916-10.876-5.647-16.517-8.129.913-.749,1.893-1.5,2.9-2.252" transform="translate(1.744 6.715)" fill="#e4e5df"/>
      <path id="Path_17688" data-name="Path 17688" d="M29.463,9.753l6.57-3.478c3.066.859,3.24,1.181,2.847,4.38-.125,1.012-1.3,5.532-1.3,5.539.168,2.124-2.647,7.215-4.861,7.215-2.543,0-8.339-1.912-8.277-4.9.081-4.035,1.065-7.341,5.023-8.761" transform="translate(8.673 2.227)" fill="#faae82" fill-rule="evenodd"/>
      <path id="Path_17689" data-name="Path 17689" d="M24.494,22.854h2.292c-1.07.809-.588.435-.6.511,2.782-1.779,1.836-6,2.381-9.173,1.039,0,.9-.5,1.741-.213.028.14.779,2,.873,2.229.538-.117.007-.248.7-.488,1.887-7.331,6.747-3.974,11.5-5.7,2.269-3.787-2.3-4.827-2.493-5.067.057-.064,4.748-3.925,1.719-4.542C35.663-1,31.719,1.623,25,2.448c-.585.072-2.658.92-2.8,1.551-4.764,1.65.339,11.736-.276,14.757,0,.009-.233,3.063-.233,3.08.688.237,1.9,1.1,2.8,1.018" transform="translate(7.15 0)" fill="#f89455" fill-rule="evenodd"/>
      <path id="Path_17690" data-name="Path 17690" d="M52.926,45.36l3.17-1.753c.763-.161,5.776,1.841,9.553,2.005,1.3.056,1.749,2.142,1.081,2.4-4.944,1.885-13.255,2.672-12.918-.905.073-.772-.771-.821-.887-1.745" transform="translate(18.783 15.472)" fill="#5d3234" fill-rule="evenodd"/>
      <path id="Path_17691" data-name="Path 17691" d="M13.178,46.613c.411,6.734,8.3,12.529,13.907,11.044,3.105-.824,10.526-2.341,13.174-4.3,2.2-1.627,14.9-10.415,15.718-9.763,4.935,3.945,8.891,4.737,13.561,8.018a10.934,10.934,0,0,0,2.042.881c.2,0,.661.309.864.3,0-.009,2.023-3.074,2.511-4.138.217-.477.916-.957.913-1.447-.591-.453-5.1-4.749-5.647-5.365-3.08-3.5-7.159-8.975-10.956-9.975-4.97-1.314-10.248.682-15.062,1.751-7.9,1.755-23.211,9.654-31.024,12.993" transform="translate(4.677 11.156)" fill="#4b606b" fill-rule="evenodd"/>
      <path id="Path_17692" data-name="Path 17692" d="M55.29,49.365l2.738-2.372c.713-.318,6.031.6,9.761-.022,1.279-.215,2.157,1.732,1.557,2.122-4.445,2.87-12.412,5.365-12.824,1.8-.088-.77-.925-.641-1.232-1.523" transform="translate(19.622 16.652)" fill="#785559" fill-rule="evenodd"/>
      <path id="Path_17693" data-name="Path 17693" d="M36.348,34.334l1.771-6.841L42.3,31.158c2.82-.878,13.854,5.078,16.652,6.669,1.849,1.051,5.953,4.772,5.762,6.99-.026.313.129.251.129.774-2.07,0-.883-.02-2.317-.516-2.288-.793-2.187-4.7-4.907-5.142-4.326-.707-3.1-.215-7.654-.268-2.37-.028-7.589.733-9.6-.1-1.44-.593-4.388-2.425-4.155-5.231.009-.126.019.141.14,0" transform="translate(12.845 9.757)" fill="#faae82" fill-rule="evenodd"/>
      <path id="Path_17694" data-name="Path 17694" d="M37.363,16.337l-6.441-1.16c-4.642,0-6.322,1.046-9.78,3.746-3.959,3.092-9.106,16.377-10.827,21.3-1.438,4.118-1.451,13.974-.9,18.557-.467,6.644,21.1-1.643,23.934-4.86,3.313-3.75,6.613-7.686,6.967-12.423a22.333,22.333,0,0,1,.784-3.779c1.961-.169,3.222,5.535,5.357,2.523.892-.623,6.085-5.834,6.367-6.646.194-.561-7.12-11.178-8.341-12.377l-.206-.2c-1.352-1.329-5-4.505-6.913-4.684" transform="translate(3.222 5.386)" fill="#feebe6" fill-rule="evenodd"/>
      <path id="Path_17695" data-name="Path 17695" d="M10.748,52.823c.76,6.7,9.147,12.079,14.814,10.307,3.141-.985,10.671-2.887,13.286-4.982C41.016,56.409,53.6,46.973,54.465,47.581c5.257,3.684,9.353,4.267,14.308,7.3a11.373,11.373,0,0,0,2.135.774c.209-.018.7.272.9.257,0-.009,1.919-3.176,2.363-4.264.2-.488.893-1,.864-1.493-.627-.419-5.472-4.477-6.062-5.065C65.644,41.762,61.185,36.5,57.242,35.7c-5.161-1.05-10.471,1.215-15.352,2.534-8.013,2.162-23.3,10.847-31.142,14.591" transform="translate(3.814 12.573)" fill="#5e7d8c" fill-rule="evenodd"/>
      <path id="Path_17696" data-name="Path 17696" d="M70.377,72.447,35.949,59.67c-.84,2.694.439,13.888,1.836,16.5,1.833,3.433,4.468,8.559,7.4,11.285a29.114,29.114,0,0,0,2.3,3.267c3,4.387,3.933,5.7,9.937,2.723,3.036-1.5,10.616-4.827,10.99-7.871.209-1.694,1.06-12.033,1.966-13.132" transform="translate(12.663 21.176)" fill="#7a552e" fill-rule="evenodd"/>
      <path id="Path_17697" data-name="Path 17697" d="M42.787,63.046l-7.278-2.7c-.84,2.692.439,13.888,1.836,16.5,1.833,3.433,4.468,8.559,7.4,11.284a29.454,29.454,0,0,0,2.3,3.268c2,2.917,3.078,4.474,5.344,4.315l.012-.2c.341-5.836.011-10.322.011-15.985l-5.192-8.8c-2.15-1.824-2.924-4.565-4.43-7.68" transform="translate(12.506 21.416)" fill="#a16d3d" fill-rule="evenodd"/>
      <path id="Path_17698" data-name="Path 17698" d="M51.922,53.015c-1.238-.268-6.17,3.337-7.873,3.926-2.741,1.643-7.381,2.792-8.556,6-.073,2.9,9.007,16.948,11.345,18.943a10.1,10.1,0,0,0,3.149,3.92c2.7,1.98,5.753-1.009,9.567-2.307,3.389-1.152,13.163-5.518,9.289-9.923-5.475-6.228-10.778-13.732-16.92-20.555" transform="translate(12.596 18.809)" fill="#b58a57" fill-rule="evenodd"/>
      <path id="Path_17699" data-name="Path 17699" d="M40.565,76.077c0-7.671,2.112-15.44,3.4-16.951,2.07-2.429,11.468-6.7,15.131-5.949,2.087.419,2.2,7.74,2.2,9.266,0,1.322.182,2.863.182,3.821-2.141.539-1.162-7.692-2.547-10.19-.245-.444-.038-.127-.182-.547-2.99,0-12.561,2.824-13.34,6.643-.352,1.734-2.141,18.074-2,18.6.287-.087-2.416-3.482-2.847-4.691" transform="translate(14.396 18.841)" fill="#7a552e" fill-rule="evenodd"/>
      <path id="Path_17700" data-name="Path 17700" d="M127.309,37.322l-4.337,1.358c-.732-.516-1.232-5.716-1.457-6.177.787-.566,3.085-.453,4.248-1.291.264.3,1.7,6.33,1.723,6.357l-.178-.247" transform="translate(43.125 11.076)" fill="#faae82" fill-rule="evenodd"/>
      <path id="Path_17701" data-name="Path 17701" d="M136.809,43.6,132.5,42.16c-.29-.847,2.345-5.353,2.432-5.859.971,0,2.767,1.438,4.2,1.438.038.4-2.326,6.128-2.322,6.163Z" transform="translate(47.014 12.883)" fill="#faae82" fill-rule="evenodd"/>
      <path id="Path_17702" data-name="Path 17702" d="M111.779,56.389,101.386,43.565c-5.029,1.2,6.838-4.9,20.168,1.779,3.261,1.635,8.674,5.909,9.231,6.02,1-4.435-1.106-7.949-2.062-11.67l-.056-.219c-.638-2.478.135-1.246,3.638-2.848.226-.1,4.315-1.786,4.33-1.788.691,3.691,1.5,8.049,3.013,11.489,1.137,2.582,3.655,14.637-.038,15.661-8.056,2.233-9.255.352-17.439-2.313-4.481-1.458-5.525-4.281-10.392-3.287" transform="translate(35.562 12.364)" fill="#5090aa" fill-rule="evenodd"/>
      <path id="Path_17703" data-name="Path 17703" d="M94.2,56.251l9.211-14.226c1.344,0,4.039-.661,6.863-.661,2.908,0,5.523,1.167,8.063,2.219,3.38,1.4,11.808,6.9,14.814,9.387.228.191,1.963,1.627,2.072,1.649.069-.167.028-.127.028-.322.56-.022.327.034.71-.1.01-.031,2.135-4.54,2.348-4.993A49.007,49.007,0,0,1,143,41.253c.015-.019.971-1.718.985-1.771,3.1,0,6.059,1.244,8.956,1.99-2.2,3.193-4.393,17.328-5.556,21.818-1.043,4.023-1.456,5.242-5.913,5.7-4.547.466-1.709.327-6.22,0a23.2,23.2,0,0,1-3.235-.553A94.737,94.737,0,0,1,114.5,65.169l-.369-.111c-3.84-1.149-7.658-2.988-11.359-4.387-2.8-1.057-4.869-1.463-7.581-3.767a5.246,5.246,0,0,0-.994-.653" transform="translate(33.43 14.012)" fill="#57b6db" fill-rule="evenodd"/>
      <path id="Path_17704" data-name="Path 17704" d="M83.2,40.217,74.617,43c-1.671,1.275-6.178,8.044-7.5,10.061-1.035,1.577-1.264,5.467.747,6.753,1.036.527,16.965-10.789,17.874-13.226,1.039-2.424.362-1.929-1.761-4.92a3.606,3.606,0,0,1-.78-1.45" transform="translate(23.543 14.273)" fill="#faae82" fill-rule="evenodd"/>
      <path id="Path_17705" data-name="Path 17705" d="M89.193,22.036l-5.34-4.612c-12.264,0-8.158,18.175-3.642,16.568.118-.042.652-.283.709-.184a71.075,71.075,0,0,1,.263,7.888c1.168.108,8.315-3.112,8.494-3.154,1.251-3.615,1.982-12.92-.177-16.064Z" transform="translate(26.879 6.183)" fill="#faae82" fill-rule="evenodd"/>
      <path id="Path_17706" data-name="Path 17706" d="M92.462,29.339c-1.843.2-9.343,4.687-11.617,5.584-1.58.622-8.965,9.135-8.919,11.747.035,1.974,4.452,4.631,5.86,5.491.482.294,2.981,2.527,3.124,2.551.167.976,1.558-1.818,2.6-2.2A46.779,46.779,0,0,0,94.965,59.86c1.914.829,4.277,2.615,6.3,2.581,8.4-.144,11.819-11.2,11.34-15.841-.466-4.546-14.93-17.317-18.2-17.317-.615,0-1.337-.008-1.936.056" transform="translate(25.526 10.392)" fill="#c4c4c4" fill-rule="evenodd"/>
      <path id="Path_17707" data-name="Path 17707" d="M71.963,46.947c.461-.137.94-.247,1.42-.355,1.58-.354,3.149-.709,3.272-2.46.454-6.335,3.78-6.682,6.765-7,1.813-.191,3.458-.363,3.627-2.742.077-1.066.164-2.024.286-2.879.618-.322,1.226-.634,1.8-.917a29.929,29.929,0,0,0-.465,3.913c-.268,3.729-2.558,3.973-5.082,4.237-2.343.247-4.953.519-5.311,5.5-.211,2.954-2.363,3.437-4.533,3.926-.3.069-.608.138-.9.215a3.7,3.7,0,0,1-.873-1.44m25.1-16.595a11.848,11.848,0,0,0-1.6-.86c-2.045,1.974-1.726.969-2.446,5.791-.1,3.89-.818,5.017-4.665,5.145-1.914.062-3.757.123-4.257,1.439A18.118,18.118,0,0,0,82.542,46.8c-.152.667-.294,1.286-.413,1.746l-.222.095A23.219,23.219,0,0,1,78.137,49.9a8.167,8.167,0,0,0-2.316.942c.6.408,1.164.757,1.588,1.019a6.5,6.5,0,0,1,1.127-.394,24.4,24.4,0,0,0,4.01-1.339c1.584-1,1.07-1.083,1.574-2.97.935-4.088.287-4.985,4.286-5.117,5.15-.169,6.1-1.7,6.233-6.722.05-1.982.65-4.145,2.425-4.97M91.772,58.22q.833.461,1.669.871l-.014-.244c-.293-5.581-.748-6.277-1.373-7.23h0a7.169,7.169,0,0,1-1.031-2.485h0c-.547-2.738,1.176-2.18,3.9-2.447a23.664,23.664,0,0,0,4.661-.771l.459-.14.1-.471a20.244,20.244,0,0,0,.392-6.486,3.36,3.36,0,0,1-.037-.984c.194-.21,1.1-.329,3.219-.612.435-.058.913-.121,1.448-.2-.5-.485-1-.963-1.512-1.429l-.145.019c-2.527.339-3.607.481-4.2,1.114-.534.572-.481,1.175-.387,2.229a18.5,18.5,0,0,1-.271,5.54,26.066,26.066,0,0,1-3.884.574c-1.974.2-3.8.374-4.978,1.152l-.2.127-.1.211c-.707,1.538.378,4.678,1.209,5.941l0,0c.463.706.809,1.236,1.074,5.712m17.16-17.226-.264,0c-2.215.03-2.623,1.634-2.6,3.378.009.687.081,1.42.149,2.108.165,1.688.308,3.151-.492,3.829-.095.782-.679,1.118-1.572,1.237a10.7,10.7,0,0,1-1.778.007c-1.577-.073-3.585-.167-4.437,1.157-.595.924-.088,2,.451,3.135.824,1.742,1.7,3.6.337,5.751-.519-.225-1.039-.48-1.551-.733,1.026-1.631.366-3.023-.252-4.328-.737-1.558-1.429-3.024-.348-4.7,1.358-2.106,3.883-1.989,5.869-1.9,2.261.1,2.387-.977,2.16-3.3-.069-.713-.144-1.474-.154-2.242-.03-2.3.488-4.435,3.118-4.914.474.511.931,1.016,1.364,1.515m-7.7,21.371c.038-1.379-.051-2.744-.138-4.057.024-.91-.5-1.668.747-2.287.031,0,.77-.19,1.759-.425,1.5-.358,3.416-.813,4.155-.913.78-.106.656-1.249.511-2.58-.064-.6-.133-1.23-.14-1.887-.023-2.2.606-4.268,3.966-4.9a5.466,5.466,0,0,1,.493,1.207c.027.115.054.232.079.351-2.473.429-2.935,1.837-2.921,3.324.005.549.073,1.152.134,1.729.237,2.175.44,4.04-1.906,4.359-.619.081-2.513.531-4,.886-.493.117-.944.225-1.307.306l.047.726c.088,1.364.183,2.78.142,4.229a10.914,10.914,0,0,1-1.611-.069Z" transform="translate(25.539 10.466)" fill="#609896"/>
      <path id="Path_17708" data-name="Path 17708" d="M145.114,36.537l-9.247-3.7c-1.635.9-1.843,1.106-1.562,3.871.266,2.6,4.16,2.81,5.815,2.81.7,0,4,.458,5.646-.045,1.568-.48,1.576-1.894-.652-2.937" transform="translate(47.626 11.654)" fill="#293352" fill-rule="evenodd"/>
      <path id="Path_17709" data-name="Path 17709" d="M77.016,18.774l-1.473,4.234,5.542,1.646c-.11.206-.649,12.194-.66,13.2C85.506,39.011,94.007,35.3,96.2,31.279c.757-2.229-1.673-9.7-4.41-11.861-3.347-2.637-10.194-4.444-13.934-1.646-.4.3-.89.3-.84,1" transform="translate(26.81 5.807)" fill="#f0632c" fill-rule="evenodd"/>
      <path id="Path_17710" data-name="Path 17710" d="M88.583,22.62l-4.706-4.994c.182-2.711,4.754-3.752,6.822-1.87.916,2.341.763,5.559-2.116,6.864" transform="translate(29.767 5.252)" fill="#f0632c" fill-rule="evenodd"/>
      <path id="Path_17711" data-name="Path 17711" d="M130.151,27.627l-9.689,2.3c-.82,1.676-.868,1.963.954,4.062,1.714,1.974,5.019-.1,6.373-1.053.572-.405,3.529-1.929,4.588-3.292,1.005-1.291.2-2.452-2.226-2.021" transform="translate(42.558 9.772)" fill="#293352" fill-rule="evenodd"/>
      <path id="Path_17712" data-name="Path 17712" d="M100.949,74.36c2.507,2.04,1.787,5.277,1.032,7.077l-.117.275c-2.46,3.135-7.105,3.3-10.777,3.565-2.2.161-8.51-.7-10.613-1.732a5.234,5.234,0,0,1,.114-9.254c5.26-2.849,15.856-3.6,20.36.069" transform="translate(27.587 25.507)" fill="#dcd5ca" fill-rule="evenodd"/>
      <path id="Path_17713" data-name="Path 17713" d="M88.863,73.93c-1.947,0-3.528.963-3.528,2.152s1.581,2.154,3.528,2.154,3.527-.966,3.527-2.154-1.58-2.152-3.527-2.152" transform="translate(30.285 26.237)" fill="#644336" fill-rule="evenodd"/>
      <path id="Path_17714" data-name="Path 17714" d="M91.816,75.754c-1.974,0-3.573.719-3.573,1.6s1.6,1.6,3.573,1.6,3.573-.717,3.573-1.6-1.6-1.6-3.573-1.6" transform="translate(31.317 26.884)" fill="#774736" fill-rule="evenodd"/>
      <path id="Path_17715" data-name="Path 17715" d="M89.382,77.174c-1.973,0-3.573.719-3.573,1.6s1.6,1.6,3.573,1.6,3.572-.717,3.572-1.6-1.6-1.6-3.572-1.6" transform="translate(30.453 27.388)" fill="#644336" fill-rule="evenodd"/>
      <path id="Path_17716" data-name="Path 17716" d="M87.353,76.77c-1.973,0-3.573.717-3.573,1.6s1.6,1.6,3.573,1.6,3.573-.717,3.573-1.6-1.6-1.6-3.573-1.6" transform="translate(29.733 27.245)" fill="#774736" fill-rule="evenodd"/>
      <path id="Path_17717" data-name="Path 17717" d="M85.663,75.485c-1.973,0-3.573.717-3.573,1.6s1.6,1.6,3.573,1.6,3.573-.717,3.573-1.6-1.6-1.6-3.573-1.6" transform="translate(29.133 26.789)" fill="#935d4d" fill-rule="evenodd"/>
      <path id="Path_17718" data-name="Path 17718" d="M81.182,67.086c-3.172-2.7-9.92-2.334-13.225-1.133-2.557.929-2.711,4.107-1.658,6.531A12.364,12.364,0,0,0,68.892,76.8c1.723,1.7,4.3,1.952,6.521,1.979,3.612.039,4.849-3.509,5.915-6.238.534-1.364,1.76-4.424-.146-5.453" transform="translate(23.311 23.083)" fill="#c7a898" fill-rule="evenodd"/>
      <path id="Path_17719" data-name="Path 17719" d="M69.628,65.725c-1.844.5-3.876.969-3.432,3.245.366,1.87,2.47,1.356,3.723,1.936a27.535,27.535,0,0,0,6.334.929c1.2.018,4.317-.94,4.874-1.94.461-.825.627-2.374-.6-2.924-1.356-.606-.977-.91-2.832-1.085-1.364-.127-2.7-.558-4.273-.569a13.7,13.7,0,0,0-3.794.408" transform="translate(23.47 23.18)" fill="#e0dfdf" fill-rule="evenodd"/>
      <path id="Path_17720" data-name="Path 17720" d="M66.228,69.061A4.109,4.109,0,0,0,68.5,70.746c.043.014.089.024.135.035a43.872,43.872,0,0,0,5.476.909c1.95.308,5.967.247,6.844-1.587a2.671,2.671,0,0,0-.308-2.568A9.28,9.28,0,0,0,77.909,66.2l-.249-.053-2.778-.2c-1.137-.15-7.358.733-8.446,1.959-.656.741-.427.642-.209,1.161" transform="translate(23.424 23.396)" fill="#c28552" fill-rule="evenodd"/>
      <path id="Path_17721" data-name="Path 17721" d="M73.078,68.131l-.34-.469c-.97.247-1.978-.545-1.817,1.1.135,1.394.393,2.116,1.961,1.427.89-.39.85-1.154.2-2.057" transform="translate(25.163 24.012)" fill="#285827" fill-rule="evenodd"/>
      <path id="Path_17722" data-name="Path 17722" d="M68.31,66.53a.891.891,0,0,0,0,1.358c.95.992,1.679,2.624,2.879.453.18-1.041.229-1.863-.222-2.249a2.4,2.4,0,0,0-2.653.439" transform="translate(24.13 23.383)" fill="#285827" fill-rule="evenodd"/>
      <path id="Path_17723" data-name="Path 17723" d="M75.789,67.1l-.467-.646c-1.331.339-2.717-.751-2.5,1.509.187,1.916.542,2.908,2.7,1.961,1.221-.535,1.167-1.585.268-2.824" transform="translate(25.836 23.585)" fill="#285827" fill-rule="evenodd"/>
      <path id="Path_17724" data-name="Path 17724" d="M69.968,66.218c.417.558,1.041.947,1.41-.042-.108-.072-.045-.347-.153-.405a.809.809,0,0,0-1.257.447" transform="translate(24.831 23.29)" fill="#eb442f" fill-rule="evenodd"/>
      <path id="Path_17725" data-name="Path 17725" d="M68.7,66.889l-.469.325c-2.454-.428-.261,4.475,1.019,1.566.26-.589.339-1.822-.55-1.891" transform="translate(23.82 23.738)" fill="#eb442f" fill-rule="evenodd"/>
      <path id="Path_17726" data-name="Path 17726" d="M76.661,68.043c-4.907,1.522,2.015,3.826.474.466-.079-.167-.272-.53-.474-.466" transform="translate(26.572 24.145)" fill="#eb442f" fill-rule="evenodd"/>
      <path id="Path_17727" data-name="Path 17727" d="M73.224,67.8l-.683-.308c-1.336-.076.183,3.047.77,1.065.083-.271.171-.61-.087-.757" transform="translate(25.554 23.952)" fill="#eb442f" fill-rule="evenodd"/>
      <path id="Path_17728" data-name="Path 17728" d="M74.6,65.841c-.642-.15-1.324-.1-.871,1.1.243.65.958,1.106,1.278.026.183-.619-.1-.635-.406-1.125" transform="translate(26.114 23.345)" fill="#eb442f" fill-rule="evenodd"/>
      <path id="Path_17729" data-name="Path 17729" d="M109.676,64.471c-3.436-.114-19.6,4.059-15.832,14.068,2,5.3,28.718,11.933,30.574-4.161.551-4.8-10.675-10.1-14.743-9.907" transform="translate(33.104 22.878)" fill="#c18757" fill-rule="evenodd"/>
      <path id="Path_17730" data-name="Path 17730" d="M103.765,70.7l-4.2,4.517c-.886,1.251-3.429,17.326-4.161,20.613l-.031.142c-.358,1.607-.784,2.333.184,3.567.134.165.615.584.878.539.121-.538,1.538-4.21,1.817-5.065.943-2.9,1.946-6.876,2.591-9.788l.037-.171c.524-2.366,1.051-8.583,1.951-10.672.062-.146.21-.645.374-.71-1.158,1.047,5.581-.435,6.818.081l.215.092a11.4,11.4,0,0,0,2.813-.411c.054,1.225,1.676,6.344,1.966,8.536.322,2.432,1.213,4.893,1.23,7.587.008,1.138.485,7.52.9,8.429.083.183.278,1.409.7,1.363.793.188,2.458-.011,2.485-.845.126-3.8-1.092-7.413-1.528-10.832-.3-2.4-.175-5.4-.526-8.033a47.02,47.02,0,0,1-.684-5.733l-.011-.339c-.167-6.125-1.835-3.175-10.435-3.367a10.662,10.662,0,0,0-3.376.5" transform="translate(33.701 24.72)" fill="#c18757" fill-rule="evenodd"/>
      <path id="Path_17731" data-name="Path 17731" d="M107.765,53.385c-1.757,1.824-3.2,7.8-3.193,10.317a18.01,18.01,0,0,0,.02,3.263,5.373,5.373,0,0,0,.209,1.4c.263,0,3.574-1.016,4.448-1.2.244-.05.408-.014.417-.225.049-.022.095-3.12.218-3.723l0-.18c.024-1.042.015-2.279-.053-3.54l-.005-.114A13.254,13.254,0,0,0,109,54.526c-.186-.593-.912-1.474-1.234-1.141" transform="translate(37.085 18.92)" fill="#825330" fill-rule="evenodd"/>
      <path id="Path_17732" data-name="Path 17732" d="M107.867,56.454l-.261.111c-1.405.6-1.461,1.374-1.868,2.673-.24.767,1.886-1.4,1.912-1.432.237-.413.7-1.041.3-1.436-.062.023-.005.05-.085.084" transform="translate(37.518 20.005)" fill="#f68a47" fill-rule="evenodd"/>
      <path id="Path_17733" data-name="Path 17733" d="M106.7,59.944l-.188.111a5.637,5.637,0,0,0-1.21,1.66c-.114.179-.375.595-.236.794,1,.184,2.446-1.541,2.792-2.343.15-.344,1.051-2.183-.234-1.191l-.1.08c-.261.2-.648.786-.821.889" transform="translate(37.274 20.827)" fill="#f68a47" fill-rule="evenodd"/>
      <path id="Path_17734" data-name="Path 17734" d="M106.258,62.555a1.51,1.51,0,0,0-.886,1.5,8.951,8.951,0,0,0,3.072-2.008c.042-.039,1.138-1.952-.947-.833-.07.037-1.217,1.333-1.238,1.339" transform="translate(37.389 21.6)" fill="#f68a47" fill-rule="evenodd"/>
      <path id="Path_17735" data-name="Path 17735" d="M110.214,56.525a4.967,4.967,0,0,0-1.095,1.749,31.93,31.93,0,0,0-1.723,7.369c-.069,1,.439.91,1.505.863.642-.028,2.046-.142,2.265-.8l.043-.131a18.234,18.234,0,0,0,.573-4.17c.05-1,.36-2.012.36-3.337,0-2.015-.409-2.815-1.929-1.541" transform="translate(38.112 19.842)" fill="#825330" fill-rule="evenodd"/>
      <path id="Path_17736" data-name="Path 17736" d="M104.717,65.8l-4.311,1.191c-.742-2.387-.409-3.078-.523-5.208A29.089,29.089,0,0,1,100,56.771c.121-.6.528-1.665,1.423-.733.645.669,2.7,6.266,2.9,7.261.13.652.856,2.523.585,2.906a1.849,1.849,0,0,1-.188-.408" transform="translate(35.429 19.757)" fill="#825330" fill-rule="evenodd"/>
      <path id="Path_17737" data-name="Path 17737" d="M101.753,59.316a4.122,4.122,0,0,0-1.485,2.779c.056.042.043.018.085.069,1.036.129,1.725-1.568,1.744-2.551.005-.31-.192-.424-.344-.3" transform="translate(35.584 21.033)" fill="#e6813c" fill-rule="evenodd"/>
      <path id="Path_17738" data-name="Path 17738" d="M103.076,61.439l-.3-.034c-.4.076-2.222,1.925-2.053,2.339a2.677,2.677,0,0,0,2.349-2.3" transform="translate(35.743 21.792)" fill="#e6813c" fill-rule="evenodd"/>
      <path id="Path_17739" data-name="Path 17739" d="M110.876,58.554c-1.607-.294-3.311,2.734-1.715,2.347.218-.053,2.207-2.255,1.715-2.347" transform="translate(38.513 20.773)" fill="#f68a47" fill-rule="evenodd"/>
      <path id="Path_17740" data-name="Path 17740" d="M110.663,60.467a5.913,5.913,0,0,0-2.032,1.047c-.971,1.379,1.024,1.035,1.732.4.355-.317,1.022-1.355.3-1.447" transform="translate(38.459 21.459)" fill="#f68a47" fill-rule="evenodd"/>
      <path id="Path_17741" data-name="Path 17741" d="M114.17,62.276c-.836.095-1.744.247-2.267.247h-.1c-2.475,0-5.365-.043-7.921-.043a18.365,18.365,0,0,0-4.886.387c-.165.053-.137.173-.309.234-.179.683-.52,1.585.925,1.6.541.005,2.431.222,3.41.222,2.508,0,4.792-.022,7.3-.137a24.216,24.216,0,0,0,4.368-.163c1.8-.495,2.19-2.658-.516-2.347" transform="translate(34.962 22.09)" fill="#b1483b" fill-rule="evenodd"/>
      <path id="Path_17742" data-name="Path 17742" d="M114.817,63.524l.355.222a19.481,19.481,0,0,1-.832,6.661l-.023.1c-.225.99-1.665,4.672-2.431,5.407-1.2,1.15-4.643,1.275-6.261,1.156a14.727,14.727,0,0,1-3.687-.55c-1.173-.583-1.764-3.647-2.065-4.917a53.516,53.516,0,0,1-.644-7.036c-.023-1.065.759-.633,2.1-.837a20.983,20.983,0,0,0,2.83-.256c1.608-.35,7.85-.069,9.74.053.237.016.658,0,.917,0" transform="translate(35.216 22.466)" fill="#b1483b" fill-rule="evenodd"/>
      <path id="Path_17743" data-name="Path 17743" d="M110.577,66.222l.709-.757c1.89,0,1.077.16,2.092,1.244.515.554-.1,2.11-.629,2.71-.512.58-1.755.577-2.572.557,0-.046.088-.644.088-.646a5.089,5.089,0,0,1,.115-.572c.009-.114.916-.312,1.362-.794,1.27-1.368.211-1.741-1.165-1.741" transform="translate(39.101 23.233)" fill="#b1483b" fill-rule="evenodd"/>
      <path id="Path_17744" data-name="Path 17744" d="M100.118,65.334c-.222.35-.871-.111-1.683.889-1.123,1.382-1.005,2.271-.286,3.951a1.924,1.924,0,0,0,2.058,1.157c1.631-.141.621-.466.711-1.511-.829-.286-2.019.508-2.218-1.543-.16-1.673,1.765-.6,2.127-1.921.207-.752-.794-.886-.71-1.022" transform="translate(34.637 23.186)" fill="#b1483b" fill-rule="evenodd"/>
      <path id="Path_17745" data-name="Path 17745" d="M102.53,64.415l-.192.331c.11.747.026,4.584.054,5.785.024,1.111.285,5.314.291,5.306a15.108,15.108,0,0,0,.11-3.817,57.476,57.476,0,0,1-.08-7.216c.028-.169-.051-.472-.183-.389" transform="translate(36.319 22.855)" fill="#813427" fill-rule="evenodd"/>
      <path id="Path_17746" data-name="Path 17746" d="M105.374,64.7c-.472-.931-.421,2.268-.425,2.485-.038,1.622-.057,3.307-.043,4.928.008.744-.126,1.719-.107,2.46a6.164,6.164,0,0,0,.028,1.16c.248.545.379-6.952.427-8.106.016-.37.146-2.876.121-2.927" transform="translate(37.187 22.901)" fill="#813427" fill-rule="evenodd"/>
      <path id="Path_17747" data-name="Path 17747" d="M107.894,65.058c.015-.4-.111-.556-.215-.466-.428.374-.623,10.189-.65,10.77.167.2.179-.042.245-1.084.165-2.588.226-8.085.621-9.22" transform="translate(37.983 22.914)" fill="#813427" fill-rule="evenodd"/>
      <path id="Path_17748" data-name="Path 17748" d="M100.218,64.886a.173.173,0,0,1,.337-.077l.058.252c.045.2.3.191.574.13a4.19,4.19,0,0,0,.841-.327l.012-.007a.173.173,0,0,1,.154.309l-.009.005a4.461,4.461,0,0,1-.923.355c-.446.1-.882.07-.988-.389Z" transform="translate(35.565 22.953)" fill="#813427"/>
      <path id="Path_17749" data-name="Path 17749" d="M100.255,66.357a.175.175,0,0,1-.028-.244.172.172,0,0,1,.243-.026c1.06.841,1.335.556,1.522.356.146-.153.266-.278.5-.182a.17.17,0,0,1,.1.225.174.174,0,0,1-.225.095c-.016-.005-.061.042-.118.1-.276.294-.679.715-1.985-.325" transform="translate(35.556 23.44)" fill="#813427"/>
      <path id="Path_17750" data-name="Path 17750" d="M100.2,67.776a.173.173,0,0,1-.02-.244.178.178,0,0,1,.245-.02l.787.669c.451.381.721.122,1.06-.207.091-.087.183-.176.286-.264l0,0,.019-.015a.2.2,0,0,1,.046-.035.176.176,0,0,1,.234.075.173.173,0,0,1-.056.222l-.015.014-.007.007c-.095.08-.184.168-.27.249-.465.45-.835.808-1.524.222Z" transform="translate(35.539 23.945)" fill="#813427"/>
      <path id="Path_17751" data-name="Path 17751" d="M100.606,69.8a.17.17,0,0,1,.06-.236.174.174,0,0,1,.238.058.651.651,0,0,0,.476.316,1.13,1.13,0,0,0,.52-.054,1.242,1.242,0,0,0,.45-.261.5.5,0,0,0,.194-.394.174.174,0,0,1,.157-.188.177.177,0,0,1,.188.16.844.844,0,0,1-.3.677,1.633,1.633,0,0,1-.577.336,1.452,1.452,0,0,1-.683.066.994.994,0,0,1-.721-.48" transform="translate(35.696 24.502)" fill="#813427"/>
      <path id="Path_17752" data-name="Path 17752" d="M100.812,71.025a.185.185,0,0,1-.065-.217c.027-.093.1-.146.161-.117.145.561,1.657.53,1.706.122a.224.224,0,0,1,0,.243c-1.074,1.007-1.677.274-1.8-.031" transform="translate(35.751 25.085)" fill="#813427"/>
      <path id="Path_17753" data-name="Path 17753" d="M102.929,65a.173.173,0,1,1,.327.117c-.022.064-.019.1,0,.114l.005.005a.512.512,0,0,0,.282.047,2.358,2.358,0,0,0,.537-.092,3.053,3.053,0,0,0,.577-.222.182.182,0,0,1,.014-.122l.009-.016.009-.014,0-.005.009-.009h0l.005-.005,0,0a.085.085,0,0,1,.024-.019h0l.118-.08a.158.158,0,0,1,.088-.031.171.171,0,0,1,.186.159c.02.264-.447.556-.955.7a2.859,2.859,0,0,1-.622.106.8.8,0,0,1-.512-.127l-.014-.014a.414.414,0,0,1-.095-.489" transform="translate(36.515 22.947)" fill="#813427"/>
      <path id="Path_17754" data-name="Path 17754" d="M102.757,66.609a.173.173,0,0,1,.264-.225l.345.408c.094.028.366-.117.76-.325.24-.127.522-.279.852-.427a.173.173,0,0,1,.142.316c-.312.14-.592.29-.832.415-.516.275-.867.463-1.115.31a.123.123,0,0,1-.051-.041Z" transform="translate(36.453 23.431)" fill="#813427"/>
      <path id="Path_17755" data-name="Path 17755" d="M102.861,68.118a.173.173,0,1,1,.154-.309c.383.192.6.312.736.389a2.056,2.056,0,0,0,.2.106c.768.283.848-.463,1.028-.48a.174.174,0,0,1,.188.156.46.46,0,0,1-.062.266.577.577,0,0,1-.191.192c-.409.247-.3.488-1.088.188l-.008,0a1.9,1.9,0,0,1-.24-.125c-.131-.073-.337-.187-.721-.381" transform="translate(36.47 24.058)" fill="#813427"/>
      <path id="Path_17756" data-name="Path 17756" d="M102.766,69.726a.173.173,0,0,1,.247-.244,1.011,1.011,0,0,0,.7.392c.79-.011.808-.347,1.1-.738a.172.172,0,0,1,.24-.037.175.175,0,0,1,.038.244.6.6,0,0,0-.062.142.509.509,0,0,1-.2.3,2.384,2.384,0,0,1-1.11.428,1.3,1.3,0,0,1-.952-.492" transform="translate(36.453 24.511)" fill="#813427"/>
      <path id="Path_17757" data-name="Path 17757" d="M102.855,71.258a.173.173,0,0,1-.027-.241.175.175,0,0,1,.243-.03,1.245,1.245,0,0,0,.791.347,1.074,1.074,0,0,0,.756-.486c.019-.027.02-.022.02-.019a.236.236,0,0,1,.053-.079.172.172,0,1,1,.267.217h0v0a.382.382,0,0,1-.069.1,1.38,1.38,0,0,1-1.011.619,1.569,1.569,0,0,1-1.02-.423m2.1-.3,0,.005v0c0-.008.005-.019,0-.011Z" transform="translate(36.48 25.085)" fill="#813427"/>
      <path id="Path_17758" data-name="Path 17758" d="M103.015,72.345a.172.172,0,0,1-.005-.244.176.176,0,0,1,.245-.005l.149.144c.434.417,1.114-.209,1.332-.411a.372.372,0,0,1,.15-.108.173.173,0,0,1,.21.125.171.171,0,0,1-.123.211c-.033.008.019.005,0,.024-.276.256-1.135,1.053-1.806.406Z" transform="translate(36.54 25.451)" fill="#813427"/>
      <path id="Path_17759" data-name="Path 17759" d="M105.622,65.214a.175.175,0,0,1,.1-.225.178.178,0,0,1,.224.1.157.157,0,0,0,.069.077.687.687,0,0,0,.351.061,1.432,1.432,0,0,0,.457-.1.867.867,0,0,0,.138-.062l.012-.016.019-.027v0c.065-.092.145-.209.317-.169a.141.141,0,0,1,.049.019.174.174,0,0,1,.062.238.94.94,0,0,1-.474.347,1.779,1.779,0,0,1-.568.114,1,1,0,0,1-.538-.108.484.484,0,0,1-.218-.249" transform="translate(37.48 23.013)" fill="#813427"/>
      <path id="Path_17760" data-name="Path 17760" d="M105.555,66.6a.174.174,0,0,1,.163-.308l.58.313a.911.911,0,0,0,.375-.08.2.2,0,0,0,.122-.142.175.175,0,0,1,.2-.141.172.172,0,0,1,.141.2.524.524,0,0,1-.3.392,1.288,1.288,0,0,1-.574.119.174.174,0,0,1-.081-.022Z" transform="translate(37.428 23.509)" fill="#813427"/>
      <path id="Path_17761" data-name="Path 17761" d="M105.495,68.021a.174.174,0,0,1,.186-.294l.654.419c.15-.066.492-.219.511-.333a.174.174,0,1,1,.343.058c-.051.3-.513.5-.714.592-.027.011-.005-.022-.026,0a.174.174,0,0,1-.218.027Z" transform="translate(37.411 24.014)" fill="#813427"/>
      <path id="Path_17762" data-name="Path 17762" d="M105.51,69.605a.173.173,0,0,1,.252-.238c.221.236.377.318.511.291a1.251,1.251,0,0,0,.537-.394.173.173,0,0,1,.247,0,.177.177,0,0,1,0,.247,1.507,1.507,0,0,1-.722.489c-.259.045-.513-.064-.824-.394" transform="translate(37.428 24.562)" fill="#813427"/>
      <path id="Path_17763" data-name="Path 17763" d="M105.543,71.085a.171.171,0,0,1-.05-.238.174.174,0,0,1,.24-.05.781.781,0,0,0,.35.1,1.213,1.213,0,0,0,.3-.012c.045-.011.077-.019.091-.024a.17.17,0,0,1,.18-.125.173.173,0,0,1,.16.186.272.272,0,0,1-.045.125v0a.491.491,0,0,1-.316.178,1.394,1.394,0,0,1-.4.018,1.083,1.083,0,0,1-.509-.156" transform="translate(37.428 25.103)" fill="#813427"/>
      <path id="Path_17764" data-name="Path 17764" d="M105.621,72.462a.169.169,0,0,1-.2-.135.174.174,0,0,1,.134-.2l1.13-.233a.173.173,0,1,1,.069.339Z" transform="translate(37.411 25.512)" fill="#813427"/>
      <path id="Path_17765" data-name="Path 17765" d="M108.267,65.252a.171.171,0,0,1,.123-.211.174.174,0,0,1,.211.125.174.174,0,0,0,.024.047h0a.388.388,0,0,0,.27.07,1.929,1.929,0,0,0,.489-.07c.111-.03.211-.061.3-.093a.15.15,0,0,1,.062-.061l.038-.023.011-.008a.211.211,0,0,1,.058-.028.374.374,0,0,1,.069-.016l.05-.008a.172.172,0,0,1,.156.294,1.986,1.986,0,0,1-.652.28,2.348,2.348,0,0,1-.581.081.709.709,0,0,1-.522-.182.476.476,0,0,1-.106-.2" transform="translate(38.421 23.057)" fill="#813427"/>
      <path id="Path_17766" data-name="Path 17766" d="M107.925,66.415a.173.173,0,0,1,.111-.217.17.17,0,0,1,.2.079L110,66.121a.174.174,0,0,1,.031.347l-1.9.167v0a.171.171,0,0,1-.179-.117Z" transform="translate(38.299 23.465)" fill="#813427"/>
      <path id="Path_17767" data-name="Path 17767" d="M107.891,67.495a.171.171,0,0,1,.215-.114.173.173,0,0,1,.115.217c-.08.257-.056.408.027.485l.008,0a.531.531,0,0,0,.358.085,1.6,1.6,0,0,0,.528-.119c.2-.081.347-.167.339-.206a.173.173,0,0,1,.134-.2.175.175,0,0,1,.2.135c.045.222-.2.455-.546.595a2,2,0,0,1-.648.146.843.843,0,0,1-.6-.175l-.012-.011a.757.757,0,0,1-.122-.839" transform="translate(38.267 23.91)" fill="#813427"/>
      <path id="Path_17768" data-name="Path 17768" d="M107.794,69.211a.173.173,0,0,1-.042-.241.178.178,0,0,1,.241-.042c.557.264.963.7,1.587.167a.493.493,0,0,0,.1-.209.172.172,0,0,1,.343-.03.754.754,0,0,1-.164.438c-.969.761-1.57.222-2.069-.083" transform="translate(38.229 24.381)" fill="#813427"/>
      <path id="Path_17769" data-name="Path 17769" d="M107.676,70.824a.173.173,0,1,1,.142-.314,2.759,2.759,0,0,0,.984.293.756.756,0,0,0,.749-.505.173.173,0,1,1,.314.144,1.076,1.076,0,0,1-1.07.709,3.017,3.017,0,0,1-1.119-.325" transform="translate(38.177 24.911)" fill="#813427"/>
      <path id="Path_17770" data-name="Path 17770" d="M107.564,72.168a.176.176,0,0,1,.023-.247.171.171,0,0,1,.243.024.661.661,0,0,0,.156.138.444.444,0,0,0,.317.062.722.722,0,0,0,.339-.172,1.145,1.145,0,0,0,.24-.278.174.174,0,0,1,.237-.053.171.171,0,0,1,.054.238,1.5,1.5,0,0,1-.309.36,1.079,1.079,0,0,1-.5.245.78.78,0,0,1-.561-.114,1,1,0,0,1-.236-.206" transform="translate(38.159 25.416)" fill="#813427"/>
      <path id="Path_17771" data-name="Path 17771" d="M72.018,30.52c-1.657-2.474-5.185-2.141-6.913-1.038-1.336.85-1.417,3.767-.867,5.989a14.7,14.7,0,0,0,1.355,3.954A3.623,3.623,0,0,0,69,41.24c1.889.037,2.536-3.218,3.093-5.719.279-1.251.92-4.057-.077-5" transform="translate(22.684 10.166)" fill="#b7b9be" fill-rule="evenodd"/>
      <path id="Path_17772" data-name="Path 17772" d="M65.979,29.272c-.965.458-2.027.889-1.8,2.974.191,1.715,1.291,1.247,1.947,1.779a8.854,8.854,0,0,0,3.311.85A3.515,3.515,0,0,0,71.989,33.1c.241-.756.329-2.175-.314-2.68-.707-.556-.509-.836-1.48-1a13.357,13.357,0,0,0-2.234-.52,4.235,4.235,0,0,0-1.982.373" transform="translate(22.767 10.255)" fill="#e0dfdf" fill-rule="evenodd"/>
      <path id="Path_17773" data-name="Path 17773" d="M64.39,32.437c.421.619,1.164.455,1.657.855a8.84,8.84,0,0,0,3.31.85,3.745,3.745,0,0,0,2.406-1.477.967.967,0,0,0-.173-.183c-.707-.556-.509-.833-1.478-.992a13.784,13.784,0,0,0-2.236-.524,4.307,4.307,0,0,0-1.982.373,3.205,3.205,0,0,0-1.5,1.1" transform="translate(22.851 10.989)" fill="#833418" fill-rule="evenodd"/>
      <path id="Path_17774" data-name="Path 17774" d="M65.771,33.851a2.7,2.7,0,0,0-2.345.076.936.936,0,0,0-.408.522.741.741,0,0,0,.112.608c.351.538,1.324,1.03,3.16,1.172a.642.642,0,0,1,.546.249h0l.058.056-.688.53-.011.095c.033.014.043.024,0,.022h0l-.122-.011-.007.005-.005-.005c-2.183-.194-3.406-.885-3.9-1.649a1.565,1.565,0,0,1-.228-1.286,1.908,1.908,0,0,1,.808-1.06,3.941,3.941,0,0,1,3.462-.211Zm.431,3.215-.009.089v0l.011-.095Zm-.009.089.009-.089-.084.062a.752.752,0,0,1,.075.027" transform="translate(21.958 11.595)" fill="#b7b9be"/>
    </g>
  </g>
</svg>
