<svg xmlns="http://www.w3.org/2000/svg" xmlns:xlink="http://www.w3.org/1999/xlink" width="321.964" height="116.763" viewBox="0 0 321.964 116.763">
  <defs>
    <clipPath id="clip-path">
      <rect id="Rectangle_188" data-name="Rectangle 188" width="242.131" height="40.941" fill="#fff"/>
    </clipPath>
    <clipPath id="clip-path-2">
      <rect id="Rectangle_320" data-name="Rectangle 320" width="321.964" height="106.968" fill="#fff"/>
    </clipPath>
  </defs>
  <g id="Group_1634" data-name="Group 1634" transform="translate(-27.036 -72.486)">
    <g id="Group_1601" data-name="Group 1601" transform="translate(92.497 148.307)">
      <g id="Group_1101" data-name="Group 1101" transform="translate(9 0)" clip-path="url(#clip-path)">
        <path id="Path_10663" data-name="Path 10663" d="M16.9,4.74A1.855,1.855,0,0,0,17.779,5a1.768,1.768,0,0,0,.615-.13,1.75,1.75,0,0,1,.554-.106l.032.032A6.265,6.265,0,0,1,18.731,6.5a6.78,6.78,0,0,0-.264,1.923c0,.33.023.9.069,1.685.065,1.117.567,1.351.977,1.351.623,0,.691-.4.691-.573v-.236c0-.065-.008-.232-.069-.952-.029-.331-.049-.577-.059-.73a1.222,1.222,0,0,0,1.172.5,4.538,4.538,0,0,0,1.438-.316c.655-.23.987-.6.987-1.1a.944.944,0,0,0-1.047-1.046,4.988,4.988,0,0,0-1.454.446,3.2,3.2,0,0,0-1.02.559c.069-.573.144-1.089.226-1.542a9.04,9.04,0,0,0,.072-2.276l.136-.074a9.154,9.154,0,0,1,.9-.278,4.216,4.216,0,0,0,.985-.362l.2-.172V2.987a.886.886,0,0,0-.524-.776,1.667,1.667,0,0,0-.758-.27,5.006,5.006,0,0,0-2.452.633,7.846,7.846,0,0,1-2.177.829l-.06.012-.319.372v.066a.96.96,0,0,0,.527.886" transform="translate(-8.562 -1.015)" fill="#fff"/>
        <path id="Path_10664" data-name="Path 10664" d="M19.189,21.073A15.052,15.052,0,0,0,22.2,20.7a2.688,2.688,0,0,0,2.264-1.85l.02-.07-.034-.064a1.327,1.327,0,0,0-1.163-.844,4.6,4.6,0,0,0-2.367.646,4.519,4.519,0,0,1-2.323.6c-.6,0-.982-.171-1.161-.523a4.435,4.435,0,0,1-.416-1.317q-.118-.752-.238-1.366a.858.858,0,0,0-.924-.756h-.066l-.239.2-.01.065q-.1.6-.165.916a4.094,4.094,0,0,0-.073.847,3.861,3.861,0,0,0,1.038,2.846,3.865,3.865,0,0,0,2.847,1.038" transform="translate(-8.001 -7.924)" fill="#fff"/>
        <path id="Path_10665" data-name="Path 10665" d="M17.611,17.079a4.7,4.7,0,0,0-.944-.122,7.734,7.734,0,0,0-1.726.192,7.4,7.4,0,0,1-1.645.183c-.239,0-.834-.063-1.77-.186a27.019,27.019,0,0,1-2.946-.568,22.522,22.522,0,0,1-2.757-.86c-.972-.381-1.118-.67-1.118-.809a4.132,4.132,0,0,1,.529-2.041,4.642,4.642,0,0,0,.575-2.294A1.589,1.589,0,0,0,4.2,8.763a2.855,2.855,0,0,1,.757-1.612,3.415,3.415,0,0,0,.852-2.294,1.423,1.423,0,0,0-.774-1.216A2.628,2.628,0,0,0,3.659,3.18,3.9,3.9,0,0,0,2.071,3.7C1.345,4.068.977,4.5.977,4.994a1.009,1.009,0,0,0,.367.679,1.011,1.011,0,0,0,.679.368A2.047,2.047,0,0,0,3.113,5.7c.244-.153.486-.291.721-.414A2.829,2.829,0,0,1,2.9,7.4,3.193,3.193,0,0,0,1.844,9.8a1.942,1.942,0,0,0,.212.764.864.864,0,0,0,.834.538h.067l.05-.043a2.723,2.723,0,0,1,.467-.282,1.232,1.232,0,0,1,.421-.167h.047a.7.7,0,0,0,.124.087,8.222,8.222,0,0,1-.284,1.422,3.1,3.1,0,0,1-.53,1.287,6.28,6.28,0,0,1-1.005-1.091,2,2,0,0,0-1.7-.821c-.1,0-.435.038-.435.534v.207l1.36,1.5v.029c0,.157.1.306.329.47a.637.637,0,0,1,.183.172v.168H2.1a.569.569,0,0,1,0,.058v.074l.117.117c-.057.16-.232.414-.875.448a1.391,1.391,0,0,0-1.316.665L0,16l.018.063a.961.961,0,0,0,.79.618,4.048,4.048,0,0,0,.841.143,2.027,2.027,0,0,0,1.1-.344,1.514,1.514,0,0,1,.771-.287,6.254,6.254,0,0,1,2.137.972,11.18,11.18,0,0,0,2.829,1.256,4.542,4.542,0,0,1,.5.066,1.237,1.237,0,0,1,.621.265l.051.043h.066a5.709,5.709,0,0,1,.883.126,6.231,6.231,0,0,0,.949.131h.394l.058,0v.1h2.781a14.678,14.678,0,0,0,2.194-.18c.873-.133,1.315-.458,1.315-.965a.84.84,0,0,0-.693-.924" transform="translate(0 -1.662)" fill="#fff"/>
        <path id="Path_10666" data-name="Path 10666" d="M49.916,6.979a1.8,1.8,0,0,0-1.313.846,11.343,11.343,0,0,0-1.192,1.883,21.182,21.182,0,0,0-.964,2.157,5.172,5.172,0,0,0-.416,1.679v.473l.022.085a.634.634,0,0,0,.611.31c.4,0,.778-.5,1.239-1.629q.021-.049.04-.1v1.606a6.638,6.638,0,0,0,.122,1.256,3.96,3.96,0,0,0,.423,1.176,1,1,0,0,0,.876.6c.125,0,.416-.052.416-.534,0-.215-.02-.611-.06-1.175s-.079-1.165-.118-1.8a9.368,9.368,0,0,0-.232-1.658c-.134-.534-.361-.806-.676-.806a.92.92,0,0,0-.162.013,7.63,7.63,0,0,1,.411-.743c.088-.138.366-.539.852-1.225a14.662,14.662,0,0,0,.855-1.281,1.269,1.269,0,0,0,.114-.527c0-.229-.11-.613-.849-.613" transform="translate(-24.065 -3.649)" fill="#fff"/>
        <path id="Path_10667" data-name="Path 10667" d="M62.388,17.95a24.739,24.739,0,0,0,.178-2.71l0-2.768L62.644,12a8.787,8.787,0,0,0,2.49-1.452,3.644,3.644,0,0,0,1.137-2.936,2,2,0,0,0-1.3-2.089,9.663,9.663,0,0,0-2.406-.565L62.514,4.9a.975.975,0,0,1-.3-.721V3.159a1.631,1.631,0,0,0-.258-.929,1.182,1.182,0,0,0-1.045-.413h-.335a.377.377,0,0,0-.416.4,4.038,4.038,0,0,0,.236,1.279,3.734,3.734,0,0,1,.217,1.184,1.546,1.546,0,0,1-.045.307c-.021.1-.036.175-.044.24a7.073,7.073,0,0,0-1.96,1.232A2.923,2.923,0,0,0,57.6,8.736a3.176,3.176,0,0,0,.238,1,.973.973,0,0,0,.947.738h.073l.244-.242L58.959,9.7V9.623A3.623,3.623,0,0,1,59.5,7.917a1.552,1.552,0,0,1,1.114-.9V8.164c0,.068,0,.275-.6.275a.918.918,0,0,0-.77.245.457.457,0,0,0-.064.416c.084.3.374.53.884.7a3.161,3.161,0,0,1,.548.221v.822c0,.126-.042.166-.057.178a.507.507,0,0,1-.358.057c-.313-.031-.746-.038-.9.25l-.059.108.08.094a3.051,3.051,0,0,0,1.3.919v1.212a27.219,27.219,0,0,1-.157,2.907A27.4,27.4,0,0,0,60.3,19.5v.179h.179a1.752,1.752,0,0,0,1.912-1.726m1.34-10.517H62.664V6.55h1.28c.2,0,.392.059.392.491a5.2,5.2,0,0,1-.158.855c0-.011-.006-.024-.009-.039h0a.443.443,0,0,0-.442-.423m.194,1.177a2.518,2.518,0,0,1-1.257,1.4v-.83c0-.005.056-.127.618-.348.3-.116.5-.184.641-.223" transform="translate(-30.111 -0.95)" fill="#fff"/>
        <path id="Path_10668" data-name="Path 10668" d="M89.743,8.96a3.057,3.057,0,0,0,1.352.679.367.367,0,0,0,.4-.4.94.94,0,0,0-.6-.912.583.583,0,0,1-.386-.585,1.443,1.443,0,0,1,.488-1.055,3.925,3.925,0,0,1,1.283-.819,12.39,12.39,0,0,1,1.632-.534c.542-.137.993-.24,1.341-.306q.425.1,1.085.257a11.124,11.124,0,0,1,1.358.427,3.852,3.852,0,0,1,1.13.659,1.176,1.176,0,0,1,.431.939A1.292,1.292,0,0,1,98.195,8.59a6.616,6.616,0,0,1-1.975.376H96.04v.179c0,.252.1.685.8.75.437.04.723.06.873.06a3.7,3.7,0,0,0,1.907-.617,1.935,1.935,0,0,0,1.051-1.69,2.359,2.359,0,0,0-.53-1.638,4.605,4.605,0,0,0-1.22-.944,10.378,10.378,0,0,0-1.464-.652,7.159,7.159,0,0,1-1.248-.565,1.2,1.2,0,0,1-.576-.9c-.06-.383-.306-.84-1.132-.84-.093,0-.4.037-.4.513a.911.911,0,0,0,.392.7.679.679,0,0,1,.243.339c-.408.131-.917.273-1.515.424a13.429,13.429,0,0,0-1.947.649,5.039,5.039,0,0,0-1.6,1.063,2.514,2.514,0,0,0-.692,1.851,1.686,1.686,0,0,0,.758,1.313" transform="translate(-46.521 -1.101)" fill="#fff"/>
        <path id="Path_10669" data-name="Path 10669" d="M97.483,22.016a8.592,8.592,0,0,0,.432-1.48q.122-.617.224-1.087a10.477,10.477,0,0,1,1.548.679,3.253,3.253,0,0,0,1.945.435.558.558,0,0,0,.612-.613.924.924,0,0,0-.643-.9,5.769,5.769,0,0,0-1.272-.336,13.125,13.125,0,0,1-1.322-.272,1.3,1.3,0,0,1-.628-.329,10.666,10.666,0,0,0,1.106-.575,1.417,1.417,0,0,0,.827-1.219c0-.722-.445-.829-.711-.829-.409,0-.78.282-1.1.838a1.155,1.155,0,0,1-.945.657,4.9,4.9,0,0,0-.821-.794,4.426,4.426,0,0,0-.7-.758,5.154,5.154,0,0,0-.518-.393,1.747,1.747,0,0,1,.142-.411,2.292,2.292,0,0,1,.241-.443l.042-.049v-.065s.005-.031.066-.091l.052-.052,0-.141c.034-.193.13-.387.547-.346a.862.862,0,0,0,.679-.149.5.5,0,0,0,.157-.384c0-.273-.121-.731-.928-.731-.282,0-.844.036-1.72.109-.625.052-1.455.184-1.455.72a.767.767,0,0,0,.481.745,2.063,2.063,0,0,0,.58.171,1.28,1.28,0,0,1-.469.715c-.346.314-.737.636-1.161.955s-.823.626-1.185.909c-.411.321-.611.609-.611.88s.123.731.948.731a2.394,2.394,0,0,0,1.632-1.027,13.246,13.246,0,0,1,1.189-1.238c.476.033.908.449,1.284,1.236q.2.429.343.785a.493.493,0,0,0-.161-.11,3.711,3.711,0,0,0-.685-.188.752.752,0,0,0-.165-.525.976.976,0,0,0-.776-.276c-.422,0-.87.361-1.371,1.1h0a3.376,3.376,0,0,0-.72,1.657c0,.261.114.7.869.711-.391.344-.454.545-.454.689a.638.638,0,0,0,.711.691,2.788,2.788,0,0,0,2-1.012,3.005,3.005,0,0,0,.956-2.045q0-.039,0-.077a2.13,2.13,0,0,1,.076.511,6.6,6.6,0,0,1-.52,2.183c-.329.864-.8,1.284-1.449,1.284a1.162,1.162,0,0,1-.781-.283,1.554,1.554,0,0,0-1.032-.367h-.179V22a1.445,1.445,0,0,0,1.081,1.4,4.744,4.744,0,0,0,1.561.376,1.859,1.859,0,0,0,1.368-.525,3.587,3.587,0,0,0,.79-1.234m-2.952-2.961a2.137,2.137,0,0,1,.385-.827A1.993,1.993,0,0,1,94.4,19.41a3.356,3.356,0,0,0,.126-.355" transform="translate(-47.558 -6.369)" fill="#fff"/>
        <path id="Path_10670" data-name="Path 10670" d="M148.1,19.885a.454.454,0,0,0,.07.006.435.435,0,0,0,.306-.13l.171-.171v-.074a3.887,3.887,0,0,0-.384-1.755,1.63,1.63,0,0,0-1.608-.828h-.179v.179a4.455,4.455,0,0,0,.68,1.7c.364.695.655,1.026.944,1.075" transform="translate(-76.577 -8.852)" fill="#fff"/>
        <path id="Path_10671" data-name="Path 10671" d="M139.648,18.368a8.732,8.732,0,0,0,1.419-2.082,15.654,15.654,0,0,0,.967-2.383,6.878,6.878,0,0,0,.363-1.915c0-3.245-1.576-4.922-4.684-4.986a2.122,2.122,0,0,1,.1-.5,2.167,2.167,0,0,0,.127-.668c0-.876-.494-1.007-.79-1.007-.471,0-.807.363-1,1.078a6.441,6.441,0,0,0-.262,1.623,1.538,1.538,0,0,0,.218.675c.167.316.354.47.573.47h1.394l.138-.137a2.231,2.231,0,0,1,1.946.827,4.005,4.005,0,0,1,.58,2.265,6.133,6.133,0,0,1-.3,1.683,13.922,13.922,0,0,1-.788,2.023,6.146,6.146,0,0,1-1.177,1.7,1.98,1.98,0,0,1-1.422.667,2.19,2.19,0,0,1-.547-.166q-.475-.178-.95-.346a3.241,3.241,0,0,1-.85-.458,4.037,4.037,0,0,1-.351-.292,3.985,3.985,0,0,1,.455-1.733,4.554,4.554,0,0,0,.491-2.01,6.045,6.045,0,0,0-1.115-3.471A4.251,4.251,0,0,0,131.268,7.4a4.591,4.591,0,0,1,.755-.551c.589-.36.874-.729.874-1.128,0-.332-.133-.889-1.026-.889a1.673,1.673,0,0,0-.8.323,5.725,5.725,0,0,0-.988.8c-.324.324-.611.632-.856.916a1.387,1.387,0,0,0-.408.876.652.652,0,0,0,.636.671c-.375.807-.731,1.625-1.057,2.435a7.834,7.834,0,0,0-.545,2.944c0,.242.02.609.06,1.089a5.556,5.556,0,0,0,.306,1.426,4.462,4.462,0,0,0,.688,1.252,1.541,1.541,0,0,0,1.274.611.39.39,0,0,0,.4-.349,2.618,2.618,0,0,1,.364.05,3.445,3.445,0,0,0,.7.063,1.8,1.8,0,0,0,1.28-.595,1.45,1.45,0,0,1,.995-.494,1.6,1.6,0,0,1,.367.316c.242.242.546.53.9.853a6.138,6.138,0,0,0,1.227.863,2.875,2.875,0,0,0,1.356.376,2.549,2.549,0,0,0,1.884-.894m-7.916-9.433a1.591,1.591,0,0,1,1.546,1.261,6.873,6.873,0,0,1,.483,2.147,5.607,5.607,0,0,1-.821,2.981,2.726,2.726,0,0,1-2.528,1.294.561.561,0,0,1-.592-.369,4.1,4.1,0,0,0-.411-.809V14.274a13.211,13.211,0,0,1,.117-1.427,9.143,9.143,0,0,1,.415-1.836,5.646,5.646,0,0,1,.754-1.5,1.237,1.237,0,0,1,1.037-.577" transform="translate(-66.839 -2.526)" fill="#fff"/>
        <path id="Path_10672" data-name="Path 10672" d="M131.855,19.163v.179a2.991,2.991,0,0,0,.569,1.555h0a1.641,1.641,0,0,0,1.3.93c.567,0,.652-.26.649-.382a1.623,1.623,0,0,0-.774-1.573,2.673,2.673,0,0,0-1.569-.709Z" transform="translate(-68.933 -10.018)" fill="#fff"/>
        <path id="Path_10673" data-name="Path 10673" d="M180.191,19.365a.622.622,0,0,1,.287-.069,2.509,2.509,0,0,1,.588.037,4.376,4.376,0,0,0,.761.062c.825,0,1.243-.226,1.243-.672,0-.266-.267-.522-.848-.818-.124-.084-.416-.28-.6-.1l-.066.066h-1.278a.771.771,0,0,1,.237-.385l.085-.085-.047-.111a1.35,1.35,0,0,0-.508-.641,17.891,17.891,0,0,1,2.373-.154h.523l.042-.025a.549.549,0,0,0,.284-.489c0-.317-.151-.729-.871-.885a6.39,6.39,0,0,0-1.318-.161h-.2a2.426,2.426,0,0,0,.657-1.753,1.081,1.081,0,0,0-.25-.8.472.472,0,0,1-.117-.188h1.173a.8.8,0,0,1,.18.033,1.144,1.144,0,0,0,.293.045,1.969,1.969,0,0,0,.633-.148c.326-.12.492-.289.492-.5a.614.614,0,0,0-.375-.574q-.269-.135-.461-.25l-.042-.026h-2.967a6.176,6.176,0,0,0-1.123.2,6.643,6.643,0,0,1-1.026.193q-.179,0-.78.04a17.274,17.274,0,0,0-2.2.142c-.38.087-.573.245-.573.47a.847.847,0,0,0,.676.841l1.139.009a8.828,8.828,0,0,0,.9-.041c.2-.021.423-.033.661-.037a7.763,7.763,0,0,0,.15,1.353,7.585,7.585,0,0,1,.144,1.351,4.791,4.791,0,0,1-1.093.188,12.358,12.358,0,0,0-1.28.14l-.065.011-.042.051a.774.774,0,0,0-.141.509c0,.739.483.849.771.849a17.1,17.1,0,0,0,2.867-.24,1.267,1.267,0,0,0-.322.552q-.078.329-.136.522a.507.507,0,0,1-.267.248h0a2.65,2.65,0,0,1-1.1.136h-1.223v.179a1.405,1.405,0,0,0,.239.984c.112.112.349.24,1.2.24a3.609,3.609,0,0,0,.612-.052,3.484,3.484,0,0,1,.475-.044c.007.207.027.493.056.857q.059.732.138,1.512a5.13,5.13,0,0,0,.327,1.409.96.96,0,0,0,.915.693c.517,0,.573-.332.573-.474a7.729,7.729,0,0,0-.262-1.978,7.43,7.43,0,0,1-.251-1.905v-.211Zm-.885-4.72V12.81c0-.254.076-.513.631-.53a2.338,2.338,0,0,0,.075.246,1.059,1.059,0,0,1,.079.284v.079a1.435,1.435,0,0,1-.125.4l-.287.721a2.246,2.246,0,0,1-.318.575c-.021.027-.041.048-.055.064" transform="translate(-91.173 -5.635)" fill="#fff"/>
        <path id="Path_10674" data-name="Path 10674" d="M180.667,3.733a.529.529,0,0,0,.63-.077.377.377,0,0,1,.247-.1,5.951,5.951,0,0,0,.041.783,2.025,2.025,0,0,0,.471.823l.053.067h.165c.535,0,.593-.345.591-.472l.173-1.395a1.775,1.775,0,0,1,.717-.281h.864l.049-.007a.541.541,0,0,0,.406-.566.7.7,0,0,0-.584-.746,4.324,4.324,0,0,0-.935-.1h-.314V1.618a1.712,1.712,0,0,1,.037-.34,2.174,2.174,0,0,0,.042-.409.727.727,0,0,0-.383-.7A1.44,1.44,0,0,0,182.274,0a.335.335,0,0,0-.374.327l-.255,1.549q-.4.066-.748.117a2.814,2.814,0,0,0-.852.273l-.064.053a.864.864,0,0,0-.094.5.854.854,0,0,0,.271.533,1.306,1.306,0,0,0,.508.381" transform="translate(-94.045 0)" fill="#fff"/>
        <path id="Path_10675" data-name="Path 10675" d="M226.74,6.665a4.785,4.785,0,0,0,1.177.134h1.458a7.21,7.21,0,0,0,.848-.051c.5-.059.572-.328.572-.483l-.016-.075c-.178-.386-.325-.569-.494-.612a3.843,3.843,0,0,0-1.151,0,4.568,4.568,0,0,1-.607.038h-.3q-.116,0-.778-.039c-.452-.026-.706-.04-.759-.04l-.034,0c-.271.052-.56.126-.56.353a.762.762,0,0,0,.638.775" transform="translate(-118.206 -2.893)" fill="#fff"/>
        <path id="Path_10676" data-name="Path 10676" d="M225.277,27.608l-.074-.053a1.769,1.769,0,0,1-.721-.9,4.1,4.1,0,0,1-.151-1.142,2.437,2.437,0,0,1,.083-.6.57.57,0,0,0,.407.411,2.333,2.333,0,0,0,1.108.053q.1-.019.206-.029c-.007.172-.021.438-.043.8a1.026,1.026,0,0,0,.209.8.724.724,0,0,0,.551.211c.258,0,.691-.129.691-1a3.456,3.456,0,0,1,.141-1.092h.173a3.6,3.6,0,0,1,.553.037,3.831,3.831,0,0,0,.61.042.522.522,0,0,0,.593-.553c0-.275-.173-.612-1-.661-.489-.029-.823-.046-1-.049a2.064,2.064,0,0,1-.151-.466c-.063-.254-.1-.421-.118-.531a3.05,3.05,0,0,1,1.988.889,2.649,2.649,0,0,1,.921,1.9,1.833,1.833,0,0,1-.8,1.645,3.541,3.541,0,0,1-2.018.561,2.158,2.158,0,0,1-.856-.163,2.275,2.275,0,0,0-.9-.191h-.28l.117.253a1.637,1.637,0,0,0,1.286.969,10.137,10.137,0,0,0,1.675.141,3.3,3.3,0,0,0,2.412-.87,3.006,3.006,0,0,0,.881-2.226,3.093,3.093,0,0,0-.5-1.6,4.124,4.124,0,0,0-1.255-1.318q-.12-.06-.639-.29a2.246,2.246,0,0,1-.576-.308l-.072-.044q-.616-.2-1.082-.327a4.316,4.316,0,0,0-1.141-.135,3.142,3.142,0,0,0-2.491,1.167,3.693,3.693,0,0,0-.979,2.4A4.978,4.978,0,0,0,223.413,27a1.4,1.4,0,0,0,1.35,1.073c.464,0,.514-.263.514-.376Zm.653-4.568a2.776,2.776,0,0,0,.057.412,2.418,2.418,0,0,1,.055.523v.059a3.48,3.48,0,0,1-1.279.215.405.405,0,0,0-.119.018q.079-.178.178-.366a1.435,1.435,0,0,1,1.108-.861" transform="translate(-116.608 -11.379)" fill="#fff"/>
        <path id="Path_10677" data-name="Path 10677" d="M214.308,14.35c.311-.211.626-.442.936-.686a7.241,7.241,0,0,0,.789-.708c.295-.314.354-.442.354-.546V12.36l-.024-.042A1.14,1.14,0,0,0,215.3,11.9a9.413,9.413,0,0,0-2.753.451q-1.437.444-2.382.719l-.129.037v.134c0,.586.357.909,1.006.909l.061-.011q.218-.078.987-.365a4.818,4.818,0,0,1,.813-.233,23.053,23.053,0,0,0-1.786,2.433,6.182,6.182,0,0,0-.964,3.377v.322l.022.041a.5.5,0,0,0,.452.269c.228,0,.427-.2.644-.653.178-.368.352-.785.519-1.238s.331-.884.5-1.317a2.406,2.406,0,0,1,.241-.472c-.008.333-.026.661-.053.983-.04.461-.06.938-.06,1.415v.71c0,.4.02.829.06,1.277a4.3,4.3,0,0,0,.279,1.234c.167.415.392.625.669.625.172,0,.381-.019.474-.169a.276.276,0,0,0,.021-.243v-.595c0-.468-.02-.959-.06-1.463-.039-.484-.059-.973-.059-1.454V17.009a2.479,2.479,0,0,0,.119-.718.718.718,0,0,1,.041-.239c.13.261.282.543.452.841a2.171,2.171,0,0,0,.881.878l.3.02a.344.344,0,0,0,.377-.357v-.2l-.015-.072q-.2-.452-.4-.943a2.631,2.631,0,0,0-.666-.932,1.319,1.319,0,0,0-.785-.281c-.22-.019-.285-.109-.3-.243a2.293,2.293,0,0,1,.5-.417" transform="translate(-109.807 -6.219)" fill="#fff"/>
        <path id="Path_10678" data-name="Path 10678" d="M215.239,8.9a5.974,5.974,0,0,0,1.4.183c.3,0,.474-.2.474-.534,0-.418-.381-.68-1.131-.778a12.308,12.308,0,0,0-1.432-.13h-.179v.179a1.031,1.031,0,0,0,.866,1.08" transform="translate(-112.074 -3.994)" fill="#fff"/>
        <path id="Path_10679" data-name="Path 10679" d="M229.4,10.862a1.93,1.93,0,0,0-1.716.869,2.943,2.943,0,0,0-.552,1.616,3.25,3.25,0,0,0,.383,1.44,1.412,1.412,0,0,0,1.352.828,2.273,2.273,0,0,0,1.885-.857,2.851,2.851,0,0,0,.659-1.786,2.187,2.187,0,0,0-.555-1.446,1.833,1.833,0,0,0-1.456-.664m.531,1.913a3.591,3.591,0,0,1-.341,1.174c-.3.741-.674.694-.771.684a.428.428,0,0,1-.345-.385,4.772,4.772,0,0,1-.057-.546,1.682,1.682,0,0,1,.816-1.555h.266c.281,0,.37.062.379.093a2.207,2.207,0,0,1,.053.536" transform="translate(-118.746 -5.679)" fill="#fff"/>
        <path id="Path_10680" data-name="Path 10680" d="M251.064,29.928q.434-.631,1.124-1.754c0-.263-.185-.46-.552-.591a2.758,2.758,0,0,0-.828-.2.636.636,0,0,0-.7.473,3.043,3.043,0,0,1-.384.867,11.035,11.035,0,0,0-.512,1.39q-.355,1.094-.473,1.35h1.084a16.458,16.458,0,0,0,1.242-1.537" transform="translate(-130.04 -14.317)" fill="#fff"/>
        <path id="Path_10681" data-name="Path 10681" d="M77.37,62.48a3.978,3.978,0,0,0-1.311-.227,12.22,12.22,0,0,0-3.5.54,11.841,11.841,0,0,1-3.4.525,5.342,5.342,0,0,1-1.526-.209,5.636,5.636,0,0,0-1.608-.224h-.179v.179a2.143,2.143,0,0,0,1.8,2.252,11.773,11.773,0,0,0,2.774.429c.287,0,.853-.037,1.681-.109s1.678-.179,2.517-.317a18.67,18.67,0,0,0,2.319-.528c.777-.234,1.172-.6,1.172-1.1a1.14,1.14,0,0,0-.741-1.214" transform="translate(-34.425 -32.546)" fill="#fff"/>
        <path id="Path_10682" data-name="Path 10682" d="M118.033,70.777h-.079l-.053.058a5.094,5.094,0,0,1-2.731,1.68,16.523,16.523,0,0,1-3.168.292c-.546,0-1.308-.04-2.262-.117a9.741,9.741,0,0,1-2.671-.59,8.018,8.018,0,0,1-2.188-1.233,2.267,2.267,0,0,1-.9-1.862,2.04,2.04,0,0,1,.171-.824,2.743,2.743,0,0,0,.2-1.107,4.8,4.8,0,0,0-.052-.606c-.028-.211-.132-.282-.214-.3-.2-.054-.376.135-.526.326a5.383,5.383,0,0,0-.736,1.386,11.476,11.476,0,0,0-.451,1.411,3.222,3.222,0,0,1-.282.844l-.028.043v.052c0,.089.042.3.435.3a.772.772,0,0,0,.524-.213.443.443,0,0,1,.3-.122s.127.042.26.574a2.269,2.269,0,0,0,.452,1.018,6.158,6.158,0,0,0,3.782,2.13,26.232,26.232,0,0,0,4.316.377h1.679l.023-.006a13.439,13.439,0,0,1,2.46-.458,3.426,3.426,0,0,0,2.246-1.466,2.063,2.063,0,0,0,.276-.93c0-.243-.1-.652-.79-.652" transform="translate(-53.361 -34.585)" fill="#fff"/>
        <path id="Path_10683" data-name="Path 10683" d="M107.958,53.174H106.8V51.9a2.435,2.435,0,0,1,.111-1.014h1.051c.125,0,.415-.053.415-.553a.665.665,0,0,0-.65-.71,1.567,1.567,0,0,1-.641-.174.467.467,0,0,1-.285-.427c0-.318-.241-.588-.716-.8l-.127-.058-.087.11a.94.94,0,0,0-.141.855.533.533,0,0,1-.045.468,5.06,5.06,0,0,1-1.01.207c-.819.116-.991.493-.991.788a.7.7,0,0,0,.79.77,3.556,3.556,0,0,0,.675-.063,3.168,3.168,0,0,1,.468-.052c.005.353.025.724.059,1.1a2.36,2.36,0,0,1-.181,1.16c-.051.112-.184.183-.395.213-.28.04-.591.1-.924.18s-.623.16-.87.241a.724.724,0,0,0-.488.781c0,.251.1.671.789.671a3.376,3.376,0,0,0,1.269-.26,8.72,8.72,0,0,1,.858-.3v.123a8.077,8.077,0,0,1-.126,1.418,9.081,9.081,0,0,0-.13,1.578c0,.255.023.609.069,1.053a.812.812,0,0,0,.858.821c.367,0,.4-.228.4-.3,0-.639.02-1.262.059-1.851s.059-1.223.059-1.854v-.82l-.049-.052a2.44,2.44,0,0,1-.264-.316,1.848,1.848,0,0,1,.829-.231c.258-.034,1.041-.139,1.041-.65a2.246,2.246,0,0,0-.052-.4.446.446,0,0,0-.461-.39" transform="translate(-53.75 -25.18)" fill="#fff"/>
        <path id="Path_10684" data-name="Path 10684" d="M121.818,61.139a4.174,4.174,0,0,0,1.423-.307,4.158,4.158,0,0,1,1.455-.284h.449l.715-.716v-.074a.73.73,0,0,0-.495-.77,2.154,2.154,0,0,0-.67-.138,5.135,5.135,0,0,0-1.736.316,5.144,5.144,0,0,1-1.752.295c-.542,0-.9-.127-1.052-.378q-.115-.588-.162-.819a3.613,3.613,0,0,1-.046-.673,2.923,2.923,0,0,1,.166-1.021,2.914,2.914,0,0,0,.189-1.029.927.927,0,0,0-.039-.294h2.02l.049-.1a.475.475,0,0,1,.046-.077c.107.032.275.016.441-.267l.024-.042v-.049a1.05,1.05,0,0,0-.082-.381.665.665,0,0,1-.056-.23,2.155,2.155,0,0,1,.282-1.065,2.459,2.459,0,0,0,.329-1.221,1.611,1.611,0,0,0-.882-1.611,4.321,4.321,0,0,0-1.84-.381h-.946a.875.875,0,0,0-.534.435.848.848,0,0,0,.8.886,7.288,7.288,0,0,0,1.294.121h.559a.606.606,0,0,1,.11.432,5.738,5.738,0,0,1-.3,1.456c-.177.589-.428.888-.744.888H119.3l-.185.26v.057a.453.453,0,0,0,.292.453.73.73,0,0,1,.165.088,2.956,2.956,0,0,1-.485.715,2.347,2.347,0,0,0-.582,1.5,5.568,5.568,0,0,0,.673,2.789,2.78,2.78,0,0,0,2.639,1.234" transform="translate(-61.955 -26.047)" fill="#fff"/>
        <path id="Path_10685" data-name="Path 10685" d="M112.982,64.732h-.07a2.108,2.108,0,0,0-.726.18c-.356.141-.537.339-.537.59,0,.152.071.365.411.518a1.528,1.528,0,0,0,.616.154,1.226,1.226,0,0,0,.578-.159.572.572,0,0,0,.351-.513c0-.107-.043-.236-.571-.722Z" transform="translate(-58.37 -33.842)" fill="#fff"/>
        <path id="Path_10686" data-name="Path 10686" d="M155.321,74.644c-.136,0-.231.048-.769,1.061-.4.756-.673,1.008-.829,1.086l-.046.033a1.389,1.389,0,0,1-.4.208,1.088,1.088,0,0,0-.539.338l-.1.217-.016.074c0,.262.154.573.889.573a2.387,2.387,0,0,0,1.753-1.019,3.038,3.038,0,0,0,.85-1.9c0-.2-.077-.672-.79-.672" transform="translate(-79.789 -39.024)" fill="#fff"/>
        <path id="Path_10687" data-name="Path 10687" d="M167.289,76.544c-.3,0-.3.415-.3.593a3.2,3.2,0,0,0,.588,1.5c.414.674.815,1,1.227,1,.606,0,.671-.415.671-.593s-.091-.5-.8-1.428c-.547-.725-1-1.077-1.394-1.077" transform="translate(-87.303 -40.017)" fill="#fff"/>
        <path id="Path_10688" data-name="Path 10688" d="M159.249,60.139a14.679,14.679,0,0,0-1.7-.1h-.2a4.586,4.586,0,0,0,1.113-1.048,4.026,4.026,0,0,0,.585-1.414c0-.945-.02-1.751-.059-2.4a8.145,8.145,0,0,0-.563-2.319l-.035-.057a2.886,2.886,0,0,0-.652-.5,1.728,1.728,0,0,0-.88-.272.445.445,0,0,0-.494.475c0,.284.243.555.743.827a1.136,1.136,0,0,1,.557,1.1v.018h-1.22c-.136,0-.3.082-.3.475a.575.575,0,0,0,.383.581,6.845,6.845,0,0,0,1.142.156c.111.021.111.052.111.071v1.039h0a.719.719,0,0,1-.381-.157,1.067,1.067,0,0,0-.661-.234.436.436,0,0,0-.475.475c0,.3.141.688.813.788a1.414,1.414,0,0,1,.507.14,1.157,1.157,0,0,1-.4.818,1.517,1.517,0,0,0-.505,1.073.361.361,0,0,0,.263.353h-1.69a.574.574,0,0,0,.031-.056l.03-.059-.016-.064a3.264,3.264,0,0,1,.048-1.635,6.845,6.845,0,0,0,.252-1.771v-.73a.894.894,0,0,0-.985-.848h-.492a.662.662,0,0,1-.4-.114c-.005,0-.111-.086-.13-.651h.311a5.8,5.8,0,0,0,.794-.051.517.517,0,0,0,.509-.523v-.3a.367.367,0,0,0-.4-.4h-1.128a2.859,2.859,0,0,0-.11-.631.707.707,0,0,0-.773-.492h-.049l-.327.2v.1c0,.36-.063.437-.069.443a.631.631,0,0,0-.227.562,5.408,5.408,0,0,0,.359,2.09c.252.6.874.911,1.849.927v.314a7.6,7.6,0,0,1-.154,1.55,7.764,7.764,0,0,0-.161,1.584.713.713,0,0,0,.386.712c-.211.034-.481.076-.824.126l-.17.024.059-.059V59.9a5.467,5.467,0,0,0-.1-1.049,5.124,5.124,0,0,1-.095-.981,1.283,1.283,0,0,1,.052-.355,1.659,1.659,0,0,0,.066-.453c0-.178-.069-.593-.711-.593-.427,0-.671.274-.671.751v.883l.041.461a4.767,4.767,0,0,0,.225.942,3.776,3.776,0,0,0,.374.8.776.776,0,0,0,.112.139q-1.044.147-2.163.3c-1.037.137-2.009.29-2.888.455-1.224.23-1.456.4-1.456.619,0,.295.116.79.889.79a1.031,1.031,0,0,0,.572-.112c1.534-.337,3.1-.642,4.661-.906a28.02,28.02,0,0,1,4.661-.4,5.115,5.115,0,0,1,1.285.152,5.354,5.354,0,0,0,1.356.164.531.531,0,0,0,.573-.593c0-.3-.174-.671-1.006-.769" transform="translate(-76.464 -27.04)" fill="#fff"/>
        <path id="Path_10689" data-name="Path 10689" d="M152.348,53.982h.342l.122-.335.01-.061a.64.64,0,0,0-.424-.671,1.981,1.981,0,0,0-.661-.119,1.708,1.708,0,0,0-1.74,1.5,9.581,9.581,0,0,0-.351,2.232c0,.268.013.626.04,1.065A4.381,4.381,0,0,0,150,58.964a4.955,4.955,0,0,0,.634,1.155,1.307,1.307,0,0,0,1.1.523h.074l.052-.052a.491.491,0,0,0,.139-.24l.131-.086v-.1c0-.128-.052-.344-.45-.877a3.365,3.365,0,0,1-.416-.669l.015-.008a1.617,1.617,0,0,1,.214.042,1.29,1.29,0,0,0,.739,0,.421.421,0,0,0,.39-.422.564.564,0,0,0-.359-.561,3.166,3.166,0,0,0-.638-.167,1.121,1.121,0,0,1-.528-.229.682.682,0,0,1-.182-.476,3.438,3.438,0,0,1,.4.042,3.95,3.95,0,0,0,.64.052c.532,0,.574-.363.574-.475a.852.852,0,0,0-.4-.763l-.044-.027h-.661a1.419,1.419,0,0,1-.355-.039c.126-.3.258-.645.4-1.034a.829.829,0,0,1,.886-.58" transform="translate(-78.235 -27.602)" fill="#fff"/>
        <path id="Path_10690" data-name="Path 10690" d="M202.034,65.491a5.77,5.77,0,0,0-1.272-.336,13,13,0,0,1-1.322-.272,1.306,1.306,0,0,1-.628-.329,10.684,10.684,0,0,0,1.106-.576,1.416,1.416,0,0,0,.828-1.219c0-.721-.446-.828-.711-.828-.409,0-.779.282-1.1.838a1.155,1.155,0,0,1-.946.656,4.918,4.918,0,0,0-.821-.794,4.387,4.387,0,0,0-.7-.758,4.963,4.963,0,0,0-.518-.393,1.784,1.784,0,0,1,.142-.411,2.217,2.217,0,0,1,.24-.442l.042-.05v-.065s.005-.031.066-.091l.052-.053,0-.141c.035-.193.126-.384.547-.346a.857.857,0,0,0,.68-.149.5.5,0,0,0,.157-.384c0-.272-.121-.73-.928-.73-.281,0-.843.035-1.719.109-.625.052-1.455.184-1.455.72a.768.768,0,0,0,.481.745,2.079,2.079,0,0,0,.58.171,1.282,1.282,0,0,1-.469.715c-.346.314-.736.635-1.16.955s-.824.626-1.185.909c-.411.321-.611.608-.611.88s.123.73.948.73a2.393,2.393,0,0,0,1.632-1.026,13.418,13.418,0,0,1,1.189-1.237c.476.033.908.449,1.284,1.236q.2.429.343.785a.5.5,0,0,0-.161-.111,3.754,3.754,0,0,0-.685-.188.753.753,0,0,0-.166-.526.975.975,0,0,0-.776-.276c-.422,0-.87.361-1.37,1.1a3.372,3.372,0,0,0-.721,1.657c0,.261.114.7.869.71-.391.345-.454.546-.454.689a.639.639,0,0,0,.711.691,2.788,2.788,0,0,0,2-1.011A3.007,3.007,0,0,0,197,65.007c0-.027,0-.054,0-.079a2.128,2.128,0,0,1,.077.513,6.61,6.61,0,0,1-.52,2.183c-.329.864-.8,1.284-1.449,1.284a1.16,1.16,0,0,1-.781-.283,1.555,1.555,0,0,0-1.032-.367h-.179v.179a1.445,1.445,0,0,0,1.081,1.4,4.744,4.744,0,0,0,1.561.376,1.859,1.859,0,0,0,1.368-.525,3.6,3.6,0,0,0,.789-1.234,8.607,8.607,0,0,0,.433-1.48q.122-.616.224-1.087a10.537,10.537,0,0,1,1.548.68,3.265,3.265,0,0,0,1.946.434.558.558,0,0,0,.612-.612.925.925,0,0,0-.643-.9m-7.07,0a2.147,2.147,0,0,1,.384-.826,2,2,0,0,1-.51,1.181,3.254,3.254,0,0,0,.126-.355" transform="translate(-100.064 -30.646)" fill="#fff"/>
        <path id="Path_10691" data-name="Path 10691" d="M191.925,55.679a.942.942,0,0,0-.6-.913.583.583,0,0,1-.386-.585,1.441,1.441,0,0,1,.488-1.055,3.915,3.915,0,0,1,1.282-.819,12.43,12.43,0,0,1,1.632-.534c.543-.137.994-.24,1.342-.306q.424.1,1.084.257a11.079,11.079,0,0,1,1.358.427,3.842,3.842,0,0,1,1.13.658,1.175,1.175,0,0,1,.431.939,1.291,1.291,0,0,1-1.059,1.278,6.6,6.6,0,0,1-1.975.376h-.179v.179c0,.252.1.685.8.75.438.04.723.06.874.06a3.69,3.69,0,0,0,1.906-.618,1.935,1.935,0,0,0,1.051-1.69,2.357,2.357,0,0,0-.53-1.637,4.6,4.6,0,0,0-1.22-.944,10.352,10.352,0,0,0-1.464-.652,7.113,7.113,0,0,1-1.248-.565,1.2,1.2,0,0,1-.577-.9c-.06-.384-.3-.841-1.132-.841-.119,0-.4.051-.4.514a.911.911,0,0,0,.391.7.674.674,0,0,1,.243.338c-.406.13-.914.272-1.514.424a13.411,13.411,0,0,0-1.947.649,5.009,5.009,0,0,0-1.6,1.063,2.511,2.511,0,0,0-.693,1.851,1.686,1.686,0,0,0,.759,1.314,3.092,3.092,0,0,0,1.352.679.367.367,0,0,0,.4-.4" transform="translate(-99.028 -25.378)" fill="#fff"/>
        <path id="Path_10692" data-name="Path 10692" d="M241.465,64.448c-1.34-.213-1.7-.435-1.792-.548l-.037-.045-.056-.014a8.7,8.7,0,0,1-3.02-1.259,4.858,4.858,0,0,1-1.383-2.784,1.984,1.984,0,0,0-.461-.787,1.229,1.229,0,0,1-.272-.4,6.8,6.8,0,0,1,.269-.71,3.825,3.825,0,0,0,.247-.762q.06-.259.17-.918c.117-.7-.272-.922-.521-.992a.891.891,0,0,0-.777.3,3.77,3.77,0,0,0-.871,1.458,4.981,4.981,0,0,1-.71,1.389c-.441.675-.906,1.318-1.38,1.907h0c-.465.579-1.008,1.189-1.617,1.812a1.52,1.52,0,0,1-.727.141.807.807,0,0,0-.852.623.877.877,0,0,0,.4,1.013,2.9,2.9,0,0,0,.886.453,1.761,1.761,0,0,0,1.319-.4,8.093,8.093,0,0,0,1.371-1.26c.448-.508.857-1.016,1.214-1.512.242-.337.441-.625.6-.869a8.488,8.488,0,0,0,2.177,3.864,11.4,11.4,0,0,0,4.958,2.091l.023.006h.024a2.712,2.712,0,0,0,1.936-.608.56.56,0,0,0,.184-.573c-.1-.3-.5-.485-1.3-.613" transform="translate(-119.008 -28.865)" fill="#fff"/>
        <path id="Path_10693" data-name="Path 10693" d="M290,65.227a1.393,1.393,0,0,0,1.038.54,12.1,12.1,0,0,0,1.5.22c.143,0,.475-.06.475-.612a1.065,1.065,0,0,0-.836-1.078,4.644,4.644,0,0,0-1.333-.224,2.449,2.449,0,0,0-.44.063.511.511,0,0,0-.427.515.673.673,0,0,0,.023.577" transform="translate(-151.569 -33.497)" fill="#fff"/>
        <path id="Path_10694" data-name="Path 10694" d="M275.8,53.715a11.529,11.529,0,0,0-.922-3.2,2.123,2.123,0,0,0-1.935-1.433c-.615,0-1.185.491-1.744,1.5a15.106,15.106,0,0,0-1.287,3.191,32.043,32.043,0,0,0-.783,3.518,18.172,18.172,0,0,0-.287,2.492,4.989,4.989,0,0,0,.224,1.452,1.076,1.076,0,0,0,1.1.836h.179v-.179a1.388,1.388,0,0,0-.275-1.039c-.059-.053-.158-.21-.158-.656a15.776,15.776,0,0,1,.283-2.127,30.782,30.782,0,0,1,.774-3.291,14.515,14.515,0,0,1,1.178-2.92c.4-.73.829-1.124,1.274-1.173a6.566,6.566,0,0,1,.855,2.6,23.736,23.736,0,0,1,.205,2.993c0,.23-.577.255-.826.255h-.966a2,2,0,0,1-.5-.138,2.061,2.061,0,0,0-.64-.157.549.549,0,0,0-.593.612,1.051,1.051,0,0,0,.752,1.076,3.823,3.823,0,0,0,1.241.227,4.013,4.013,0,0,0,.9-.143c.23-.056.382-.089.481-.108.009.312.034.806.076,1.473.053.857.078,1.359.078,1.535s-.025.631-.078,1.387A11.735,11.735,0,0,1,274.182,64c0,.178-.02.45-.058.808-.029.275-.17.392-.472.392a1.5,1.5,0,0,1-.634-.121l-.254-.119v.6c0,.264.257.513.81.782a2.1,2.1,0,0,0,.87.26.719.719,0,0,0,.314-.067,2.281,2.281,0,0,0,.771-1.3,12.868,12.868,0,0,0,.41-2.129c.091-.783.164-1.515.217-2.175s.079-1.135.079-1.443c0-.451-.027-1.226-.079-2.3a34.519,34.519,0,0,0-.356-3.467" transform="translate(-140.549 -25.658)" fill="#fff"/>
        <path id="Path_10695" data-name="Path 10695" d="M291.146,59.913a6.463,6.463,0,0,0,1.584.272c.143,0,.474-.056.474-.573,0-.457-.2-1.03-1.13-1.162a12.6,12.6,0,0,1-1.525-.291l-.069-.019-.063.034a.652.652,0,0,0-.39.591c0,.562.376.948,1.118,1.149" transform="translate(-151.626 -30.395)" fill="#fff"/>
        <path id="Path_10696" data-name="Path 10696" d="M276.691,60.371c.309,0,.494-.163.494-.435a1.176,1.176,0,0,0-.834-1.152,3.551,3.551,0,0,0-1.2-.288c-.893,0-1.026.458-1.026.731,0,.478.4.8,1.2.944a10.06,10.06,0,0,0,1.363.2" transform="translate(-143.313 -30.582)" fill="#fff"/>
        <path id="Path_10697" data-name="Path 10697" d="M293.263,52.435a9.1,9.1,0,0,0-1-2.5,2.241,2.241,0,0,0-2.045-1.141,2.167,2.167,0,0,0-1.839.83,4.658,4.658,0,0,0-.82,1.884,11.414,11.414,0,0,0-.22,2.293v3.035a11.241,11.241,0,0,0,.22,2.134,9.835,9.835,0,0,0,.593,2c.272.634.629.955,1.061.955.079,0,.337-.031.337-.435,0-.459-.3-.494-.387-.494s-.16-.1-.2-.171a6.755,6.755,0,0,1-.548-1.91,16.5,16.5,0,0,1-.126-2.1c0-.168.023-.632.069-1.379a21.947,21.947,0,0,1,.283-2.375,7.809,7.809,0,0,1,.693-2.187c.376-.744.717-.718.966-.625.781.168,1.245.787,1.418,1.893a18.792,18.792,0,0,1,.274,2.584V61.17a4.069,4.069,0,0,1-.328,1.746c-.195.406-.624.562-1.305.481l-.1-.012-.283.333.108.116a1.859,1.859,0,0,0,1,.467,5.336,5.336,0,0,0,.944.142,1.3,1.3,0,0,0,1.3-1.126,6.663,6.663,0,0,0,.283-1.714c0-.2.027-.88.079-2.032.054-1.2.079-1.844.079-2.028,0-.488-.025-1.21-.079-2.207a15.68,15.68,0,0,0-.429-2.9" transform="translate(-150.222 -25.508)" fill="#fff"/>
        <path id="Path_10698" data-name="Path 10698" d="M315.884,63.092c0-.394.017-1.045.05-1.935s.048-1.463.049-1.785a3.871,3.871,0,0,0,.344-2.252,2.536,2.536,0,0,1,.589-2.043l.047-.066a2.694,2.694,0,0,0,.521-.1h.822c.86-.091,1.653-.154,2.355-.187s1.5-.049,2.356-.049h.179V54.5c0-.913-.427-1.214-.785-1.307a5.206,5.206,0,0,0-1.286-.173c-.644,0-1.268.02-1.855.06-.519.035-1.065.054-1.624.058a2.162,2.162,0,0,1,.32-.919,2.412,2.412,0,0,0,.381-1.266v-.179h-.179a1.668,1.668,0,0,0-1.57,1.046,7.638,7.638,0,0,1-.977,1.536h-.863a2.9,2.9,0,0,1-.4-.047,3.333,3.333,0,0,0-.432-.051c-.567,0-.652.26-.652.415a1.105,1.105,0,0,0,.69,1.027,7.561,7.561,0,0,0,.947.4v.106a18.76,18.76,0,0,1-.342,3.436,19.648,19.648,0,0,0-.348,3.62c0,.648.04,1.452.118,2.39a1.489,1.489,0,0,0,1.578,1.573.5.5,0,0,0,.554-.534,3.6,3.6,0,0,0-.309-1.369,3.25,3.25,0,0,1-.282-1.232" transform="translate(-163.781 -26.544)" fill="#fff"/>
        <path id="Path_10699" data-name="Path 10699" d="M328.305,69.382a11.743,11.743,0,0,0-1.671-.12h-.375a1.879,1.879,0,0,1-.464-.042,1.517,1.517,0,0,0-.279-.049,2.712,2.712,0,0,1,.429-1.395,3.1,3.1,0,0,0,.492-1.745,2.388,2.388,0,0,0-.885-1.973,3.489,3.489,0,0,0-2.23-.69,3.225,3.225,0,0,0-1.7.753c-.727.521-1.08.991-1.08,1.437a.551.551,0,0,0,.316.517.494.494,0,0,0-.434.547,1.836,1.836,0,0,0,1.031,1.561c.571.351.861.741.861,1.159,0,.24-.2.461-.6.658a2.586,2.586,0,0,1-.995.326h-.179v.179a.9.9,0,0,0,.537.945,2.547,2.547,0,0,0,.942.18,1.478,1.478,0,0,0,1.27-.668,1.029,1.029,0,0,1,.859-.515,1.761,1.761,0,0,1,.765.231c.631.155,1.154.275,1.554.356a8.3,8.3,0,0,0,1.582.121h.71l.051-.007c.211-.062.464-.245.464-.763,0-.395-.168-.889-.972-1m-5.381-3.822a1.441,1.441,0,0,1,1.109-.532c.124,0,.413,0,.413.649a5.9,5.9,0,0,1-.356,1.531c-.231.708-.4.91-.482.967l-1.934-1.835a.683.683,0,0,0-.264-.125l-.012-.009c.054,0,.111,0,.172,0a1.784,1.784,0,0,0,1.355-.65" transform="translate(-167.517 -33.129)" fill="#fff"/>
        <path id="Path_10700" data-name="Path 10700" d="M420.85,62.29a6.017,6.017,0,0,0-2.226-.737.629.629,0,0,0-.691.691v.338l.038.049a5.788,5.788,0,0,0,1.739,1.347,4.309,4.309,0,0,0,1.91.673c.722,0,.829-.445.829-.711,0-.593-.523-1.132-1.6-1.649" transform="translate(-218.494 -32.18)" fill="#fff"/>
        <path id="Path_10701" data-name="Path 10701" d="M412.208,59.089a12.769,12.769,0,0,1,.321-2.828,13.153,13.153,0,0,0,.329-2.908,2.648,2.648,0,0,0-.137-.824.769.769,0,0,0-.83-.518c-.427,0-.742.3-.939.9a10.433,10.433,0,0,0-.4,1.785c-.092.646-.158,1.308-.2,1.965h0c-.04.66-.059,1.067-.059,1.243v1.508a18.553,18.553,0,0,0,.2,2.627,10.8,10.8,0,0,0,.592,2.386c.268.679.653.875,1.007.875a1.174,1.174,0,0,0,.384-.07.675.675,0,0,0,.522-.684,9.614,9.614,0,0,0-.4-2.791,9.187,9.187,0,0,1-.387-2.668" transform="translate(-214.5 -27.192)" fill="#fff"/>
        <path id="Path_10702" data-name="Path 10702" d="M395,53.393a1.475,1.475,0,0,0-1.093.348c.012-.015.025-.03.037-.042.164-.164.378-.356.637-.57a1.1,1.1,0,0,0,.46-.858c0-.944-.606-1.085-.967-1.085a1.888,1.888,0,0,0-1.3.778,6.94,6.94,0,0,0-1.133,1.739,18.879,18.879,0,0,0-.786,1.97,5.259,5.259,0,0,0-.334,1.426,2.659,2.659,0,0,0,.137.824c.076.237.3.518.949.518.191,0,.338-.2.56-.764q.256-.649.58-1.425l.65-1.557a6.1,6.1,0,0,1,.347-.72l.057.088a2.137,2.137,0,0,0,1.067.991q.45.128.841.254a1.019,1.019,0,0,1,.542.62,6.512,6.512,0,0,1,.241,2.2v.614l-.026.06a2.683,2.683,0,0,1-.993-1.193,1.625,1.625,0,0,0-1.522-1.079h-.5l-.189.35-.021.085a2.9,2.9,0,0,0,1.372,2.282,4.9,4.9,0,0,1,1.22,1.085,3.189,3.189,0,0,1-2.111,1.917,17.359,17.359,0,0,1-3.16.253h-.179v.455c0,.522.439.908,1.3,1.148a7.5,7.5,0,0,0,1.615.332,4.876,4.876,0,0,0,3.772-1.885,5.946,5.946,0,0,0,1.611-3.891,8.29,8.29,0,0,0-.795-3.465,2.944,2.944,0,0,0-2.893-1.8" transform="translate(-204.092 -26.76)" fill="#fff"/>
        <path id="Path_10703" data-name="Path 10703" d="M435.344,57.241h.253v-.165l.075.109a3.2,3.2,0,0,1,.422-.191,10.293,10.293,0,0,1,1.021-.25,8.592,8.592,0,0,0,1.062-.272c.157,0,.464-.021.933-.056a.92.92,0,0,0-.188.3,6.44,6.44,0,0,0-.285.922,4.4,4.4,0,0,0-.123,1v.532a5.392,5.392,0,0,0,.121.882,1.505,1.505,0,0,0,.5.956l.048.036h.06a.12.12,0,0,1,.09.046l.366.208.294-.252V59.773a9.47,9.47,0,0,0,1.287-.539c1.059-.5,1.276-.74,1.276-.95a.793.793,0,0,0-.3-.722l-.044-.028h-.052a4.505,4.505,0,0,0-2.166.557v-.644a2.571,2.571,0,0,0-.213-1.089c.33-.034.667-.075,1.005-.124.554-.079,1.06-.173,1.5-.279.529-.126.8-.351.8-.667a.656.656,0,0,0-.711-.731,5.548,5.548,0,0,0-1.274.162,5.531,5.531,0,0,1-1.11.15,11.876,11.876,0,0,0-.069-1.288,2.916,2.916,0,0,1,.172-1.235l.051-.112h.91a2.06,2.06,0,0,0,.7-.129c.366-.134.443-.347.443-.5a1.025,1.025,0,0,0-.283-.786,1.081,1.081,0,0,0-.845-.23,2.183,2.183,0,0,1-.744-.019V49.376c0-.22-.168-.408-.5-.557a1.784,1.784,0,0,0-.684-.193h-.179V49.76a4.208,4.208,0,0,1-.1.806,2.939,2.939,0,0,1-1.066.188H436.63l-.052.052a.8.8,0,0,0-.17.579.907.907,0,0,0,.248.692.93.93,0,0,0,.721.206,3.118,3.118,0,0,1,1.141.115c0,.256.02.666.048,1.223.03.59.046,1.011.049,1.252a.926.926,0,0,1-.449.178,4.846,4.846,0,0,1-.611.061q-1.009.218-1.463.326a7.214,7.214,0,0,0-1.25.472.51.51,0,0,0-.346.481.766.766,0,0,0,.849.849" transform="translate(-227.153 -25.421)" fill="#fff"/>
        <path id="Path_10704" data-name="Path 10704" d="M448.075,73.141a26.958,26.958,0,0,0-2.748-.328c-1.007-.072-1.987-.128-2.912-.167a8.783,8.783,0,0,1-1.815-.2,13.7,13.7,0,0,1-2.084-.632c-1.152-.413-1.541-.756-1.656-.984.025-.08.113-.316.419-1a4.311,4.311,0,0,0,.459-1.639,3.989,3.989,0,0,0-.052-.589c-.027-.178-.152-.477-.679-.477-.167,0-.514,0-.514.238a14.527,14.527,0,0,1-.311,1.791,2.864,2.864,0,0,1-.867,1.461q-.232.193-.553.426a1.269,1.269,0,0,0-.489.643l-.029.093.062.075a.582.582,0,0,0,.473.183,1.385,1.385,0,0,0,.711-.192A.987.987,0,0,1,436,71.7c.178,0,.575.139,1.449.8a7.322,7.322,0,0,0,1.835,1.1,27.124,27.124,0,0,0,4.554.794c1.595.144,3.161.218,4.657.218.629,0,.948-.179.948-.534,0-.7-1.031-.884-1.37-.944" transform="translate(-227.022 -35.094)" fill="#fff"/>
        <path id="Path_10705" data-name="Path 10705" d="M476.644,57.241h.253v-.165l.075.109a3.242,3.242,0,0,1,.422-.191,10.2,10.2,0,0,1,1.021-.25,8.589,8.589,0,0,0,1.062-.272c.158,0,.464-.021.933-.056a.92.92,0,0,0-.188.3,6.436,6.436,0,0,0-.285.922,4.4,4.4,0,0,0-.123,1v.532a5.392,5.392,0,0,0,.121.882,1.506,1.506,0,0,0,.5.956l.048.036h.06a.122.122,0,0,1,.091.046L481,61.3l.294-.252V59.773a9.468,9.468,0,0,0,1.287-.539c1.059-.5,1.276-.74,1.276-.95a.794.794,0,0,0-.3-.722l-.044-.028h-.052a4.506,4.506,0,0,0-2.167.557v-.644a2.565,2.565,0,0,0-.213-1.089c.33-.034.667-.075,1.005-.124.554-.079,1.06-.173,1.5-.279.53-.126.8-.351.8-.667a.656.656,0,0,0-.711-.731,5.549,5.549,0,0,0-1.274.162,5.535,5.535,0,0,1-1.11.15,11.792,11.792,0,0,0-.069-1.288,2.916,2.916,0,0,1,.173-1.235l.05-.112h.91a2.051,2.051,0,0,0,.7-.129c.366-.134.443-.347.443-.5a1.025,1.025,0,0,0-.283-.786,1.082,1.082,0,0,0-.845-.23,2.182,2.182,0,0,1-.744-.019V49.376c0-.22-.168-.408-.5-.557a1.784,1.784,0,0,0-.684-.193h-.179V49.76a4.215,4.215,0,0,1-.095.806,2.946,2.946,0,0,1-1.067.188H477.93l-.052.052a.8.8,0,0,0-.17.579.907.907,0,0,0,.248.692.927.927,0,0,0,.72.206,3.111,3.111,0,0,1,1.141.115c0,.255.02.666.048,1.223.03.59.046,1.011.049,1.252a.922.922,0,0,1-.449.178,4.828,4.828,0,0,1-.611.061q-1.009.218-1.463.326a7.214,7.214,0,0,0-1.25.472.51.51,0,0,0-.346.481.766.766,0,0,0,.849.849" transform="translate(-248.744 -25.421)" fill="#fff"/>
        <path id="Path_10706" data-name="Path 10706" d="M489.376,73.141a26.87,26.87,0,0,0-2.748-.328c-1.007-.072-1.987-.128-2.912-.167a8.783,8.783,0,0,1-1.815-.2,13.746,13.746,0,0,1-2.083-.632c-1.152-.413-1.542-.756-1.657-.984.025-.08.113-.316.419-1a4.3,4.3,0,0,0,.459-1.639,3.975,3.975,0,0,0-.052-.589c-.027-.178-.152-.477-.679-.477-.167,0-.514,0-.513.239a14.417,14.417,0,0,1-.311,1.79,2.864,2.864,0,0,1-.867,1.462q-.233.193-.553.426a1.269,1.269,0,0,0-.49.644l-.028.092.061.075a.58.58,0,0,0,.473.183,1.385,1.385,0,0,0,.712-.192.986.986,0,0,1,.511-.143c.178,0,.575.139,1.449.8a7.323,7.323,0,0,0,1.836,1.1,27.126,27.126,0,0,0,4.553.794c1.595.144,3.161.218,4.657.218.629,0,.948-.179.948-.534,0-.7-1.03-.884-1.369-.944" transform="translate(-248.614 -35.094)" fill="#fff"/>
        <path id="Path_10707" data-name="Path 10707" d="M367.358,51.2a5.4,5.4,0,0,0,.694.008,5.143,5.143,0,0,1,.541,0l.178.018.018-.178a1.323,1.323,0,0,0-.846-1.371,4.469,4.469,0,0,0-1.513-.5.383.383,0,0,0-.336.125.592.592,0,0,0-.126.342,1.262,1.262,0,0,0,.466,1.033,1.635,1.635,0,0,0,.926.524" transform="translate(-191.324 -25.707)" fill="#fff"/>
        <path id="Path_10708" data-name="Path 10708" d="M361.69,55.364a7.088,7.088,0,0,0-2.6-.758c-.987.03-1.842.069-2.542.118a18.821,18.821,0,0,0-2.478.367l-.028.009c-.086.033-.349.135-.372.362a.615.615,0,0,0,.521.73,6.627,6.627,0,0,0,.679.116,8.712,8.712,0,0,0,2.531-.09,7.853,7.853,0,0,1,2.3-.1,3.307,3.307,0,0,1,1.2.333.8.8,0,0,1,.365.882,1.859,1.859,0,0,1-1.071,1.531,7.336,7.336,0,0,1-2.434.746,16.531,16.531,0,0,1-2.823.156c-.932-.03-1.641-.068-2.082-.123a1.919,1.919,0,0,1,.709-1.272,2.291,2.291,0,0,0,.828-1.506.48.48,0,0,0-.123-.4.612.612,0,0,0-.4-.165,1.559,1.559,0,0,0-1.437.845A9.786,9.786,0,0,0,351.4,59.2a34.994,34.994,0,0,0-1.068,3.581,29.477,29.477,0,0,1-1.32,4.2,4.128,4.128,0,0,1-1.349,1.919l-.183.122.156.155a1.048,1.048,0,0,0,.747.278,1.392,1.392,0,0,0,.562-.118,2.41,2.41,0,0,0,.9-.808,11.776,11.776,0,0,0,1.836-4.505,22.621,22.621,0,0,1,.674-2.342,5.9,5.9,0,0,0,.307-1.225,1.328,1.328,0,0,1,.443.228,3.546,3.546,0,0,0,.732.436l.053.014c.749.075,1.625.121,2.6.139a11.7,11.7,0,0,0,2.844-.286,5.782,5.782,0,0,0,2.331-1.085,3.218,3.218,0,0,0,1.137-2.3,2.072,2.072,0,0,0-1.112-2.243" transform="translate(-181.661 -28.548)" fill="#fff"/>
      </g>
    </g>
    <g id="Group_1608" data-name="Group 1608" transform="translate(27.036 72.486)">
      <g id="Group_1539" data-name="Group 1539" clip-path="url(#clip-path-2)">
        <path id="Path_32103" data-name="Path 32103" d="M176.525,75.582a104.6,104.6,0,0,1-11.077-.612,23.3,23.3,0,0,1-14.736-7.177,8.661,8.661,0,0,1-1.956-3.774c-.6-1.92-1.069-2.076-1.073-2.077a1.632,1.632,0,0,0-1.087.516,2.956,2.956,0,0,1-1.951.932c-.088,0-.172.008-.25.008-1.333,0-1.485-.819-1.5-1.07l-.012-.208.1-.182a12.165,12.165,0,0,0,.873-3.229,43.214,43.214,0,0,1,1.384-5.425,20.423,20.423,0,0,1,2.47-5.4c.678-.97,1.2-1.384,1.749-1.384.267,0,.909.112,1.114,1.154a17.9,17.9,0,0,1,.328,2.276,10.4,10.4,0,0,1-.519,4.234,7.6,7.6,0,0,0-.462,3.129,8.512,8.512,0,0,0,3.786,6.782,30.127,30.127,0,0,0,8.51,4.155A36.778,36.778,0,0,0,172.4,69.856c1.449.032,2.792.049,3.99.049,1.8,0,3.328-.037,4.556-.109a62.337,62.337,0,0,0,11.867-1.807c3.574-.923,6.9-3.253,9.9-6.925l.2-.244.314-.019q.185-.011.358-.011c1.7,0,2.72.849,2.807,2.331a7.823,7.823,0,0,1-.837,3.585l-.032.071-.046.063c-2.639,3.576-5.361,5.566-8.09,5.915a50.685,50.685,0,0,0-9.158,2.271l-.089.03-6.333.374c-1.722.1-3.5.153-5.279.153m9.907-13.338c-4.868,0-8.232-1.574-10-4.678a21.063,21.063,0,0,1-2.549-10.548,8.887,8.887,0,0,1,2.209-5.7,11.418,11.418,0,0,0,1.813-2.658,2.755,2.755,0,0,0-.59-.312,1.743,1.743,0,0,1-1.126-1.746v-.229l.72-1.008h5.8c1.177,0,2.11-1.118,2.773-3.322a21.658,21.658,0,0,0,1.123-5.485,2.34,2.34,0,0,0-.389-1.59h-2.094a27.459,27.459,0,0,1-4.89-.458,3.283,3.283,0,0,1-3.043-3.383,1.193,1.193,0,0,1,1.011-1.185,1.184,1.184,0,0,1,1.045-.5h3.572a16.305,16.305,0,0,1,6.962,1.444c2.225,1.043,3.352,3.1,3.352,6.117a9.343,9.343,0,0,1-1.245,4.63,8.056,8.056,0,0,0-1.061,4,2.476,2.476,0,0,0,.211.856,4.062,4.062,0,0,1,.31,1.451v.194l-.1.168c-.154.264-.625,1.069-1.4,1.069a1.1,1.1,0,0,1-.279-.036,1.984,1.984,0,0,0-.155.265l-.2.4h-7.6a3.5,3.5,0,0,1,.134,1.069,11.057,11.057,0,0,1-.716,3.9,10.963,10.963,0,0,0-.623,3.84,13.652,13.652,0,0,0,.171,2.533q.181.873.611,3.088c.585.93,1.907,1.4,3.933,1.4a19.4,19.4,0,0,0,6.6-1.111,19.364,19.364,0,0,1,6.567-1.2,8.117,8.117,0,0,1,2.538.522,2.8,2.8,0,0,1,1.9,2.948v.3L199,60.012h-1.711a15.648,15.648,0,0,0-5.477,1.07,15.794,15.794,0,0,1-5.386,1.162m-25.8-1.849a3.1,3.1,0,0,1-3.28-3.135c-.175-1.67-.264-3.009-.264-3.98a34.184,34.184,0,0,1,.494-5.966,30.608,30.608,0,0,0,.472-5.343v-.409a32.519,32.519,0,0,0-3.182,1.111,12.835,12.835,0,0,1-4.807.982c-2.729,0-3.023-1.8-3.023-2.577a2.773,2.773,0,0,1,1.872-2.988c.927-.3,2.034-.606,3.29-.908s2.43-.531,3.489-.682c.781-.111,1.272-.374,1.459-.781a8.879,8.879,0,0,0,.681-4.361c-.127-1.413-.2-2.8-.22-4.13a11.841,11.841,0,0,0-1.72.194,13.522,13.522,0,0,1-2.555.236,2.719,2.719,0,0,1-3.023-2.949c0-1.133.655-2.575,3.778-3.016a19.471,19.471,0,0,0,3.79-.775,1.993,1.993,0,0,0,.154-1.724,3.59,3.59,0,0,1,.54-3.261l.347-.442.512.232c1.81.819,2.728,1.852,2.728,3.071a1.727,1.727,0,0,0,1.056,1.575,5.868,5.868,0,0,0,2.405.652,2.546,2.546,0,0,1,2.491,2.721c0,1.923-1.125,2.13-1.609,2.13h-3.943c-.118.22-.4,1.035-.4,3.785V34.41h4.343a1.722,1.722,0,0,1,1.782,1.505,8.381,8.381,0,0,1,.2,1.518c0,1.967-2.988,2.365-3.97,2.5a7.313,7.313,0,0,0-3.071.838,8.721,8.721,0,0,0,.967,1.158l.2.207v3.112c0,2.385-.075,4.741-.225,7-.147,2.228-.222,4.577-.222,6.984,0,.273-.111,1.163-1.535,1.163m6.25-9.524a5.785,5.785,0,0,1-2.342-.585c-1.3-.585-1.574-1.406-1.574-1.992,0-.965.691-1.728,2.053-2.266a7.961,7.961,0,0,1,2.756-.683h.28l.206.19c2,1.849,2.165,2.343,2.165,2.759a2.2,2.2,0,0,1-1.345,1.97,4.639,4.639,0,0,1-2.2.606" transform="translate(-74.633 -8.092)" fill="#fff"/>
        <path id="Path_32104" data-name="Path 32104" d="M158.349,15.409q2.306,1.043,2.307,2.418a2.465,2.465,0,0,0,1.413,2.195,6.711,6.711,0,0,0,2.679.744,1.848,1.848,0,0,1,1.86,2.009q0,1.414-.893,1.413h-4.092q-.968,0-.967,4.5V34.16h5.059a1.015,1.015,0,0,1,1.079.93,7.9,7.9,0,0,1,.186,1.376q0,1.34-3.348,1.786t-3.795,1.413q0,.447,1.265,1.786v2.828q0,3.571-.223,6.957t-.223,7.031q0,.446-.819.447-2.307,0-2.567-2.493t-.26-3.906a33.243,33.243,0,0,1,.484-5.841A31.174,31.174,0,0,0,157.977,41V39.665a30.141,30.141,0,0,0-4.167,1.377,12.06,12.06,0,0,1-4.538.93q-2.307,0-2.307-1.86a2.117,2.117,0,0,1,1.377-2.307q1.376-.446,3.237-.893t3.422-.67a2.374,2.374,0,0,0,2.009-1.19,9.556,9.556,0,0,0,.744-4.725q-.224-2.492-.223-4.8a13.563,13.563,0,0,0-2.567.223,12.739,12.739,0,0,1-2.418.224,2.007,2.007,0,0,1-2.307-2.233q0-1.859,3.163-2.306a18.11,18.11,0,0,0,4.129-.893,2.554,2.554,0,0,0,.409-2.493,2.9,2.9,0,0,1,.409-2.641m22.674,3.783a15.525,15.525,0,0,1,6.659,1.377q2.938,1.377,2.939,5.468a8.6,8.6,0,0,1-1.153,4.278,8.72,8.72,0,0,0-1.154,4.352,3.212,3.212,0,0,0,.26,1.116,3.347,3.347,0,0,1,.261,1.19q-.418.714-.786.714a.405.405,0,0,1-.182-.044.4.4,0,0,0-.178-.045q-.358,0-.715.715h-8.259a.829.829,0,0,0,.261.669q.259.224.26,1.116a10.313,10.313,0,0,1-.669,3.646,11.6,11.6,0,0,0-.67,4.092,14.2,14.2,0,0,0,.186,2.678q.185.893.632,3.2,1.041,1.861,4.613,1.86a20.025,20.025,0,0,0,6.845-1.153A18.562,18.562,0,0,1,196.5,53.27a7.51,7.51,0,0,1,2.306.483,2.124,2.124,0,0,1,1.413,2.269l-2.306,2.307H196.5a16.292,16.292,0,0,0-5.73,1.116,15.024,15.024,0,0,1-5.133,1.116q-6.92,0-9.375-4.316a20.267,20.267,0,0,1-2.455-10.193,8.156,8.156,0,0,1,2.046-5.245q2.046-2.492,2.046-3.386a3.2,3.2,0,0,0-1.116-.706,1.04,1.04,0,0,1-.669-1.079l.372-.521h5.432q2.3,0,3.459-3.832a22.145,22.145,0,0,0,1.154-5.692q0-1.859-.893-2.307H183.33a26.562,26.562,0,0,1-4.762-.447,2.562,2.562,0,0,1-2.455-2.678c0-.347.272-.521.818-.521q0-.446.521-.446h3.571M166.98,45.1q1.934,1.786,1.935,2.232a1.532,1.532,0,0,1-.968,1.339,3.916,3.916,0,0,1-1.86.521,5.064,5.064,0,0,1-2.046-.521q-1.154-.519-1.153-1.339,0-.966,1.6-1.6a7.4,7.4,0,0,1,2.492-.632M148.665,46.25q.3,0,.411.575a17.493,17.493,0,0,1,.315,2.181,9.651,9.651,0,0,1-.475,3.941,8.273,8.273,0,0,0-.506,3.422,9.268,9.268,0,0,0,4.085,7.324,30.718,30.718,0,0,0,8.711,4.255,37.337,37.337,0,0,0,10.384,1.659q2.192.049,4.006.049,2.726,0,4.6-.11a62.85,62.85,0,0,0,12-1.828q5.616-1.45,10.272-7.167.163-.009.315-.01,1.993,0,2.093,1.656a7.226,7.226,0,0,1-.777,3.251q-3.8,5.144-7.6,5.63a51.091,51.091,0,0,0-9.293,2.3l-6.239.369q-2.575.153-5.239.152a103.228,103.228,0,0,1-11-.608,22.5,22.5,0,0,1-14.313-6.979,8.052,8.052,0,0,1-1.771-3.473q-.81-2.579-1.752-2.578h-.041a2.336,2.336,0,0,0-1.559.726,2.251,2.251,0,0,1-1.486.721c-.073,0-.142.007-.207.007q-.762,0-.785-.4a13.263,13.263,0,0,0,.952-3.448,42.385,42.385,0,0,1,1.362-5.335,19.66,19.66,0,0,1,2.375-5.209q.754-1.078,1.162-1.078m9.251-32.609-.694.883a4.285,4.285,0,0,0-.671,3.882,1.777,1.777,0,0,1,.043.959,23.416,23.416,0,0,1-3.394.652c-1.641.232-4.4,1.024-4.4,3.725a3.4,3.4,0,0,0,3.74,3.666,14.235,14.235,0,0,0,2.69-.249q.418-.081.885-.129c.033,1.114.1,2.261.206,3.425a8.078,8.078,0,0,1-.622,4.005c-.082.156-.427.3-.907.364-1.081.155-2.277.388-3.554.7s-2.4.616-3.345.923a3.467,3.467,0,0,0-2.367,3.669c0,.772.27,3.293,3.74,3.293a13.549,13.549,0,0,0,5.075-1.034q1.153-.465,2.192-.8a29.945,29.945,0,0,1-.456,4.656,34.86,34.86,0,0,0-.506,6.092c0,1,.09,2.361.268,4.056a3.791,3.791,0,0,0,3.992,3.776,1.963,1.963,0,0,0,2.252-1.88c0-2.391.074-4.725.22-6.937q.064-.987.111-2a4.24,4.24,0,0,0,1.033.641,6.477,6.477,0,0,0,2.634.647,5.345,5.345,0,0,0,2.54-.693,2.9,2.9,0,0,0,1.721-2.6c0-.727-.358-1.4-2.4-3.285l-.412-.38h-.56a8.618,8.618,0,0,0-3.019.733,5.361,5.361,0,0,0-1.43.806q0-.461,0-.924v-3.4l-.392-.414c-.138-.146-.256-.275-.356-.389a12.945,12.945,0,0,1,2.034-.405c1.136-.152,4.592-.613,4.592-3.207a8.968,8.968,0,0,0-.214-1.656,2.446,2.446,0,0,0-2.485-2.084h-3.626V28.691a15.841,15.841,0,0,1,.206-3.069h3.42c.389,0,2.326-.137,2.326-2.846a3.268,3.268,0,0,0-3.122-3.432,5.293,5.293,0,0,1-2.079-.529l-.026-.017-.026-.015c-.7-.4-.7-.762-.7-.955,0-1.526-1.059-2.779-3.149-3.724Zm23.107,4.118h-3.571a1.974,1.974,0,0,0-1.46.59,1.868,1.868,0,0,0-1.313,1.81,3.985,3.985,0,0,0,3.632,4.088,28.175,28.175,0,0,0,5.018.47h1.677a3.387,3.387,0,0,1,.089.874A20.231,20.231,0,0,1,184,30.87c-.386,1.283-1.062,2.812-2.087,2.812h-6.17l-.428.6-.372.521-.267.374v.459A2.45,2.45,0,0,0,176.144,38a17.761,17.761,0,0,1-1.4,1.9,9.584,9.584,0,0,0-2.372,6.155,21.762,21.762,0,0,0,2.643,10.9c1.9,3.344,5.475,5.04,10.62,5.04a16.487,16.487,0,0,0,5.637-1.208,14.934,14.934,0,0,1,5.226-1.025h2.007l.42-.42,2.307-2.307.419-.419v-.594a3.5,3.5,0,0,0-2.381-3.625,8.8,8.8,0,0,0-2.771-.561,20.076,20.076,0,0,0-6.811,1.238,18.687,18.687,0,0,1-6.359,1.068c-1.172,0-2.653-.173-3.259-.968-.259-1.337-.46-2.353-.584-2.949a12.522,12.522,0,0,1-.156-2.388,10.24,10.24,0,0,1,.578-3.589,11.778,11.778,0,0,0,.76-4.149c0-.114,0-.232-.008-.353h7.2l.315-.629a2.453,2.453,0,0,0,1.9-1.42l.2-.335v-.388a4.7,4.7,0,0,0-.358-1.709,1.9,1.9,0,0,1-.163-.6,7.248,7.248,0,0,1,.969-3.649,10.049,10.049,0,0,0,1.338-4.982c0-4.134-2.047-5.961-3.764-6.766a17.024,17.024,0,0,0-7.267-1.512M148.665,44.817h0a3.148,3.148,0,0,0-2.336,1.69,20.846,20.846,0,0,0-2.566,5.593,44.011,44.011,0,0,0-1.406,5.512,11.574,11.574,0,0,1-.795,3.011l-.2.364.025.417a1.944,1.944,0,0,0,2.215,1.743q.138,0,.292-.009A3.649,3.649,0,0,0,146.309,62a1.058,1.058,0,0,1,.338-.24,6.512,6.512,0,0,1,.63,1.511,9.224,9.224,0,0,0,2.139,4.072,24,24,0,0,0,15.16,7.376,105.26,105.26,0,0,0,11.153.616c1.8,0,3.586-.052,5.323-.155l6.239-.369.188-.011.178-.059a49.992,49.992,0,0,1,9.023-2.24c2.932-.375,5.818-2.461,8.577-6.2l.093-.125.063-.142a8.5,8.5,0,0,0,.9-3.92c-.111-1.882-1.428-3-3.523-3-.128,0-.262,0-.4.012l-.629.037-.4.488c-2.894,3.552-6.1,5.8-9.519,6.684a61.683,61.683,0,0,1-11.73,1.785c-1.215.072-2.734.108-4.514.108-1.194,0-2.531-.016-3.974-.049a36.058,36.058,0,0,1-9.987-1.593,29.424,29.424,0,0,1-8.308-4.054,7.836,7.836,0,0,1-3.487-6.242,6.8,6.8,0,0,1,.418-2.835,11.111,11.111,0,0,0,.563-4.527,18.7,18.7,0,0,0-.34-2.37,1.878,1.878,0,0,0-1.818-1.734" transform="translate(-73.837 -7.125)" fill="#fff"/>
        <path id="Path_32105" data-name="Path 32105" d="M431.751,37.12c-1.887,0-3.166.632-3.8,1.88l-.1.2.1.2c1.177,2.308,2.288,3.623,3.393,4.019.982.354,1.9.71,2.742,1.056.728.3,1.357,1.216,1.867,2.715.538,1.583.811,4.7.811,9.259V59.08l-.171.509a11.04,11.04,0,0,1-3.392-5.127c-1.052-2.881-2.684-4.342-4.852-4.342h-1.581l-.6,1.42v.091c0,3.328,1.473,6.422,4.377,9.195,3.451,3.3,4.031,4.429,4.094,4.8-1.9,4.79-4.265,7.555-7.036,8.219a44.751,44.751,0,0,1-10.3,1.05h-.448v1.593c0,2,1.386,3.5,4.12,4.47a19.863,19.863,0,0,0,5.254,1.374c4.633,0,8.744-2.611,12.22-7.76a28.176,28.176,0,0,0,5.183-15.908,41.855,41.855,0,0,0-2.564-14.215c-1.755-4.862-4.889-7.327-9.315-7.327" transform="translate(-217.737 -19.389)" fill="#fff"/>
        <path id="Path_32106" data-name="Path 32106" d="M510.07,68.7c-2.8-1.911-4.782-2.84-6.058-2.84-.684,0-1.832.314-1.832,2.416v1.176l.056.1a17.858,17.858,0,0,0,4.668,5.13c2.214,1.745,3.916,2.593,5.2,2.593.823,0,2.2-.323,2.2-2.491,0-2.114-1.427-4.161-4.243-6.084" transform="translate(-262.306 -34.402)" fill="#fff"/>
        <path id="Path_32107" data-name="Path 32107" d="M421.2,47.462c.5,0,.928-.48,1.712-3.014.543-1.758,1.162-3.694,1.892-5.921l2.119-6.459a17.367,17.367,0,0,1,1.821-4.237c.549-.7,1.253-1.5,2.092-2.38a4.692,4.692,0,0,0,1.408-3.294c0-3.478-1.641-4.208-3.017-4.208-1.279,0-2.638,1.037-4.154,3.172a30.208,30.208,0,0,0-3.652,7.137c-.983,2.692-1.84,5.429-2.549,8.135a26.628,26.628,0,0,0-1.074,5.8,13.328,13.328,0,0,0,.431,3.3c.229.9.931,1.973,2.971,1.973" transform="translate(-218.229 -9.376)" fill="#fff"/>
        <path id="Path_32108" data-name="Path 32108" d="M487.626,50.437a67.331,67.331,0,0,1,1.053-11.818,68.249,68.249,0,0,0,1.066-11.975,13.408,13.408,0,0,0-.431-3.3,2.445,2.445,0,0,0-2.585-1.972c-1.339,0-2.327,1.2-2.938,3.565a52.851,52.851,0,0,0-1.3,7.339c-.3,2.691-.516,5.424-.645,8.123s-.193,4.416-.193,5.131v6.255a97.169,97.169,0,0,0,.645,10.843,54.349,54.349,0,0,0,1.912,9.812c.546,1.766,1.273,2.834,2.223,3.264a2.3,2.3,0,0,0,.96.207,3.013,3.013,0,0,0,1.225-.283,2.455,2.455,0,0,0,1.572-2.544,49.643,49.643,0,0,0-1.3-11.469,48.3,48.3,0,0,1-1.273-11.179" transform="translate(-251.586 -11.163)" fill="#fff"/>
        <path id="Path_32109" data-name="Path 32109" d="M571.668,74.412c-12.693-.046-22.456-5.059-29.022-14.9a4.476,4.476,0,0,0-1.408,2.606c-.553,2.308-1.882,2.792-2.9,2.792a1.686,1.686,0,0,1-1.2-.4,1.512,1.512,0,0,1-.433-1.156l0-.844.013-.054a22.936,22.936,0,0,1,1.741-5.006,23.653,23.653,0,0,0,1.721-5.026,11.019,11.019,0,0,1,.3-2.655,2.619,2.619,0,0,1,.436-1.631l0-1,.478,0a3.78,3.78,0,0,1,1.926.612,1.957,1.957,0,0,1,1.122,1.667l-.025,6.942A21.2,21.2,0,0,1,548.3,60.84a17.327,17.327,0,0,0,4.132,4.406,20.916,20.916,0,0,0,9.014,3.524,61.881,61.881,0,0,0,9.447.888h.225a55.911,55.911,0,0,0,9.862-.851,56.679,56.679,0,0,1,10.03-.866h.229a3.814,3.814,0,0,1,2.2.541,2.01,2.01,0,0,1,.843,1.739,1.723,1.723,0,0,1-1.72,1.829,20.3,20.3,0,0,1-2.1.139l-15.763,2.235Zm28.142-7.665-.032,0a25.441,25.441,0,0,1-10.9-4.632,50.656,50.656,0,0,1-8.456-7.207,11.9,11.9,0,0,1-2.633,2.269,6.9,6.9,0,0,1-3.75,1.173l-.856,0-1.408-.274a2.913,2.913,0,0,0-1.661,2.692c-.12,1.3-.856,2.857-3.68,2.857a2.963,2.963,0,0,1-1.316-.234,1.047,1.047,0,0,1-.619-.967,4.745,4.745,0,0,1,1.851-3.39,4.3,4.3,0,0,0,1.493-2.435l-9.581,3.272-.8,0c-2.526-.01-3.052-1.284-3.048-2.351.006-1.53,1.131-2.585,3.344-3.137a16.907,16.907,0,0,0,3.537-1.2,9.87,9.87,0,0,1-.718-2.111,14.163,14.163,0,0,1-.542-2.915l.039-10.6a9.362,9.362,0,0,1,1.22-4.485,8.416,8.416,0,0,0,1.081-3.275,11.481,11.481,0,0,1-2.489-.374c-.782-.208-1.714-.844-1.707-2.688.007-1.954,3.068-2.125,4.074-2.181,2.4-.134,3.929-.2,4.677-.2.772,0,2.381.138,4.961.414,2.8.3,4.219,1.346,4.213,3.1,0,1.139-.637,1.262-.909,1.262l-8.207-.03a6.825,6.825,0,0,1-.337,1.713,5.8,5.8,0,0,0-.277,1.317l.48-.19,1.166,0a4.983,4.983,0,0,1,4.747,2.855,11.226,11.226,0,0,1,1.359,5.093l-.035,9.687a4.561,4.561,0,0,1-.441,4.629q-.461.767-.746,1.347a6.091,6.091,0,0,0,3.173-2.085c1.323-1.425,2-2.687,2-3.752a20.293,20.293,0,0,0-.714-5.53,21.19,21.19,0,0,1-.749-5.791c0-.838.261-1.263.766-1.263,1.439.005,3.215.608,3.508,3.447a34.488,34.488,0,0,0,.63,4.149c.072-.066.5-.486,1.226-2.834a18.846,18.846,0,0,0,.961-3.832,1.2,1.2,0,0,0-.03-.311,17.532,17.532,0,0,1-2.589-.375c-1.857-.363-2.244-1.473-2.24-2.339,0-.464.19-1.545,1.9-1.545a12.33,12.33,0,0,1,4.967.953c1.542.684,2.319,2.171,2.311,4.42a11.02,11.02,0,0,1-2.374,6.615,9.738,9.738,0,0,0-2.182,5.759c-.006,1.566.835,2.9,2.569,4.09a45.341,45.341,0,0,0,6.33,3.566q3.608,1.7,6.4,2.995c2.034.948,3.063,2.182,3.057,3.668,0,.541-.343,1.187-1.962,1.187Zm-35.464-19c0,.485.052,1.2.151,2.12.184,1.226.479,1.649.654,1.795a20.039,20.039,0,0,0,2.607-.373c.755-.143,1.656-.43,1.657-.993l.01-2.531Zm5.075-3.446.254-2.029a.689.689,0,0,0-.065-.483c-.157-.181-.686-.189-1.112-.195-.139,0-.277,0-.409-.011-1.269-.061-2.556-.105-3.83-.132a6.236,6.236,0,0,0-.234,1.663,4.764,4.764,0,0,0,.106.843c.02.107.04.217.058.328Zm-.025-5.368a2.07,2.07,0,0,0,.063-.6c0-.884-.686-1.841-2.05-2.845a23.074,23.074,0,0,0-2.124-1.45l-.16.265a1.418,1.418,0,0,1-.221.7.408.408,0,0,0-.064.237v.43a7.078,7.078,0,0,1-.233,1.4,7.928,7.928,0,0,0-.2,1.113c.443.057,1,.139,1.667.246a18.814,18.814,0,0,0,1.931.145h.068l1.216.363ZM548.522,58.214a3.311,3.311,0,0,1-1.692-.359,1.406,1.406,0,0,1-.713-1.273l.045-12.414-2.364.89a1.444,1.444,0,0,1-.494.09,1.96,1.96,0,0,1-1.574-1.067,4.24,4.24,0,0,1-.783-1.651c-.413-1.029,1.19-2.074,2.83-2.965,1.91-1.013,2.842-2.769,2.851-5.372l0-1.337c-.237.081-.582.216-1.079.442a5.8,5.8,0,0,1-2.234.644h-.438c-.871,0-1.908-.562-1.9-3.206l0-1.062,5.821-1.893a3.226,3.226,0,0,0,.134-1.107,21.335,21.335,0,0,0-.687-4.4l-.067-.288.792-.655h.173a3.53,3.53,0,0,1,2.733.9,2.357,2.357,0,0,1,.525,1.891,2.377,2.377,0,0,0,.928,2.524l.951,0c.862,0,3.486.012,3.48,1.564a1.591,1.591,0,0,1-1.1,1.744,7.555,7.555,0,0,0-1.416.568,3.846,3.846,0,0,0-1.318,1.5c-.3.508-.653,1.667-.7,4.313a2.2,2.2,0,0,1,2.28,2.327,2.3,2.3,0,0,1-1.429,2.182,5.319,5.319,0,0,0-1.519,1.005l-.023,6.434a9.226,9.226,0,0,1,.956-.438,6.382,6.382,0,0,1,2.214-.564c.849,0,1.272.768,1.266,2.273,0,1.02-.493,2.355-2.807,2.924-2.075.511-2.079,1.362-2.08,1.642l-.012,3.467-.614.732Z" transform="translate(-280.342 -11.088)" fill="#fff"/>
        <path id="Path_32110" data-name="Path 32110" d="M546.628,21.183q3.009.011,2.785,2.266t1.278,3.048l1.075,0q3.008.011,3,1.085t-.757,1.287a7.99,7.99,0,0,0-1.506.6A4.251,4.251,0,0,0,551,31.155q-.757,1.286-.77,5.01,2.291.009,2.285,1.871a1.816,1.816,0,0,1-1.152,1.751,5.533,5.533,0,0,0-1.8,1.247l-.027,7.592a3.792,3.792,0,0,1,1.615-.961,6.012,6.012,0,0,1,2.036-.53h.007q.787,0,.781,1.794-.007,1.863-2.444,2.462t-2.443,2.1l-.012,3.294-.359.428-.716,0q-1.934-.007-1.93-1.153l.048-13.107-3.012,1.135a.957.957,0,0,1-.326.059q-.612,0-1.175-.852a3.539,3.539,0,0,1-.711-1.507q-.427-.789,2.587-2.426,3.085-1.635,3.1-5.79l.007-1.934h0a5.73,5.73,0,0,0-1.755.6,5.443,5.443,0,0,1-2.037.6h-.436q-1.433-.006-1.423-2.727l0-.716,5.665-1.842a2.647,2.647,0,0,0,.292-1.5,21.574,21.574,0,0,0-.7-4.514Zm19.786,3.12h.042q1.075,0,4.869.412t3.786,2.628c0,.525-.146.786-.431.786h0l-8.666-.032a6.419,6.419,0,0,1-.33,2.04,6.4,6.4,0,0,0-.33,2.04h.358l.717-.284,1.074,0a4.518,4.518,0,0,1,4.323,2.594,10.7,10.7,0,0,1,1.307,4.875L573.1,49.18a4.258,4.258,0,0,1,.422,2.15,4.556,4.556,0,0,1-.8,2.11,13.438,13.438,0,0,0-1.082,2.109h.3q1.857,0,3.972-2.278t2.127-4.074a20.626,20.626,0,0,0-.731-5.66,20.61,20.61,0,0,1-.731-5.661c0-.524.1-.787.289-.787h0q2.721.01,3.033,3.019a31.25,31.25,0,0,0,.736,4.586h.359q.715,0,1.694-3.181a20.328,20.328,0,0,0,.981-3.972q0-.787-.427-.789a16.284,16.284,0,0,1-2.577-.367q-1.862-.365-1.855-1.869,0-1.069,1.422-1.069h.014a11.785,11.785,0,0,1,4.76.912q2.037.9,2.026,3.982a10.5,10.5,0,0,1-2.279,6.33,10.152,10.152,0,0,0-2.278,6.043q-.009,2.579,2.777,4.487a45.641,45.641,0,0,0,6.4,3.6q3.609,1.7,6.4,3t2.781,3.233q0,.711-1.484.711h-.023A24.86,24.86,0,0,1,588.631,61.2a48.688,48.688,0,0,1-8.746-7.552,11.167,11.167,0,0,1-2.874,2.6,6.405,6.405,0,0,1-3.493,1.1H573.5l-.788,0-1.5-.292a3.346,3.346,0,0,0-2.089,3.144q-.223,2.424-3.2,2.423h-.027q-1.434-.005-1.43-.721a4.284,4.284,0,0,1,1.694-3.038,4.493,4.493,0,0,0,1.7-3.324h-.429l-9.753,3.331-.716,0q-2.579-.009-2.572-1.872.007-1.933,2.982-2.674a13.9,13.9,0,0,0,4.124-1.525,5.093,5.093,0,0,1-.958-2.367A14.013,14.013,0,0,1,560,47.628l.039-10.6a8.852,8.852,0,0,1,1.161-4.257,8.392,8.392,0,0,0,1.16-3.971,11.192,11.192,0,0,1-2.864-.368q-1.36-.363-1.353-2.225.006-1.5,3.623-1.706,3.548-.2,4.65-.2m2.568,14.579q.429,0,.433-1.072.006-1.574-2.245-3.231a10.553,10.553,0,0,0-2.608-1.657l-.432.715a1.019,1.019,0,0,1-.146.572.88.88,0,0,0-.145.5v.43a6.9,6.9,0,0,1-.22,1.288,6.823,6.823,0,0,0-.22,1.36v.287q.715.075,2.076.294a19.238,19.238,0,0,0,2,.151l1.216.362h.288m.045,5.369a.364.364,0,0,0,.219-.048.384.384,0,0,0,.114-.274l.073-.584q.1-.77.193-1.54c.172-1.37-1.074-1.179-2.038-1.226q-2.1-.1-4.2-.139a6.54,6.54,0,0,0-.367,2.146c0,.538.176,1.09.221,1.648l5.773.018h.011m-4.521,7.363a18.01,18.01,0,0,0,2.819-.384q2.043-.385,2.046-1.461l.011-3.008-6.016-.022a15.144,15.144,0,0,0,.134,2.651q.279,1.864.995,2.224h.012m-23.63-4.526a3.3,3.3,0,0,1,1.681.543,1.512,1.512,0,0,1,.891,1.257l-.026,7.162a20.627,20.627,0,0,1,3.958,4.526,17.7,17.7,0,0,0,4.245,4.527,21.285,21.285,0,0,0,9.226,3.614,62.1,62.1,0,0,0,9.522.894h.227a56.077,56.077,0,0,0,9.946-.859,55.958,55.958,0,0,1,9.945-.859h.227q2.579.009,2.572,1.8A1.258,1.258,0,0,1,592,71.052a20.111,20.111,0,0,1-2.046.136h-.032l-15.764,2.235-3.008-.011q-19.122-.069-28.88-15.074a4.373,4.373,0,0,0-2.016,3.144q-.581,2.427-2.434,2.427h-.011q-1.146,0-1.142-1.078l0-.788a22.363,22.363,0,0,1,1.7-4.9,24.138,24.138,0,0,0,1.774-5.186,10.441,10.441,0,0,1,.3-2.649,1.951,1.951,0,0,1,.435-1.5l0-.716m5.409-26.862-.267.22-.431.357-.456.377.135.576a20.884,20.884,0,0,1,.674,4.294,4.47,4.47,0,0,1-.051.734l-5.245,1.705-.658.214,0,.692,0,.716c0,1.373.3,3.678,2.374,3.686h.43a6.23,6.23,0,0,0,2.443-.687q.222-.1.4-.177l0,.635c-.009,2.41-.857,4.029-2.592,4.949-1.2.654-3.634,1.974-3.077,3.511a4.836,4.836,0,0,0,.851,1.793,2.4,2.4,0,0,0,1.972,1.281,1.913,1.913,0,0,0,.65-.116l1.728-.651-.042,11.72a2.351,2.351,0,0,0,.014.261q-.367-.36-.752-.7l.024-6.725a2.393,2.393,0,0,0-1.351-2.077,4.254,4.254,0,0,0-2.172-.681l-.955,0,0,.955v.369a3.225,3.225,0,0,0-.435,1.723,11.487,11.487,0,0,0-.3,2.66,23.089,23.089,0,0,1-1.668,4.867,23.409,23.409,0,0,0-1.78,5.112l-.026.109v.112l0,.788a1.917,1.917,0,0,0,2.094,2.037c.987,0,2.718-.41,3.377-3.159a4.937,4.937,0,0,1,.866-1.98c6.656,9.671,16.44,14.6,29.1,14.642l3.008.01h.069l.069-.01,15.7-2.225A21.119,21.119,0,0,0,592.1,72a2.206,2.206,0,0,0,2.148-2.3,2.457,2.457,0,0,0-1.047-2.131,4.26,4.26,0,0,0-2.476-.627h-.231a57.184,57.184,0,0,0-10.115.874,55.394,55.394,0,0,1-9.777.844h-.224A61.4,61.4,0,0,1,561,67.776a20.456,20.456,0,0,1-8.819-3.445,16.829,16.829,0,0,1-4-4.272,22.141,22.141,0,0,0-1.5-2.053,4.829,4.829,0,0,0,1.318.163l.717,0h.448l.288-.343.359-.428.222-.265v-.345l.012-3.294c0-.5.579-.9,1.716-1.18,2.613-.642,3.167-2.2,3.171-3.386.009-2.389-1.082-2.75-1.733-2.752a6.793,6.793,0,0,0-2.4.6c-.1.042-.2.083-.3.123l.02-5.467a5.165,5.165,0,0,1,1.243-.78,2.778,2.778,0,0,0,1.706-2.613A2.608,2.608,0,0,0,551.2,35.3a8.36,8.36,0,0,1,.623-3.658,3.31,3.31,0,0,1,1.128-1.315,7.083,7.083,0,0,1,1.325-.531,2.057,2.057,0,0,0,1.453-2.2c.007-2.03-2.976-2.041-3.956-2.044l-.817,0c-.3-.209-.717-.693-.588-2a2.815,2.815,0,0,0-.646-2.258,3.963,3.963,0,0,0-3.086-1.058Zm20.128,3.121c-.759,0-2.3.065-4.7.2-3,.168-4.519,1.061-4.525,2.656-.008,2.262,1.288,2.946,2.062,3.152a11.757,11.757,0,0,0,2.072.356,8.478,8.478,0,0,1-.961,2.6,9.835,9.835,0,0,0-1.278,4.712l-.039,10.6a12.975,12.975,0,0,0,.556,3.035,13.809,13.809,0,0,0,.55,1.765,19.2,19.2,0,0,1-3.021.963c-3.055.761-3.7,2.377-3.706,3.6,0,.847.334,2.819,3.524,2.831l.716,0h.161l.151-.052,8.593-2.935a4.715,4.715,0,0,1-1.057,1.318,5.192,5.192,0,0,0-2.007,3.742c0,.5.227,1.672,2.382,1.68h.03c3.353,0,4.043-2.062,4.156-3.291a2.448,2.448,0,0,1,1.244-2.237l1.214.236.088.017h.09l.788,0h.024a7.37,7.37,0,0,0,4.008-1.249,12.564,12.564,0,0,0,2.381-1.962,52.25,52.25,0,0,0,8.176,6.889,25.918,25.918,0,0,0,11.1,4.714l.064.009h.092c2.2,0,2.437-1.163,2.439-1.662.006-1.689-1.115-3.069-3.333-4.1q-2.786-1.3-6.4-2.994a44.857,44.857,0,0,1-6.264-3.528c-1.594-1.091-2.366-2.3-2.361-3.695a9.272,9.272,0,0,1,2.088-5.475,11.482,11.482,0,0,0,2.469-6.9c.011-3.059-1.4-4.331-2.594-4.859a12.783,12.783,0,0,0-5.144-.994c-1.765,0-2.391,1.044-2.395,2.021a2.618,2.618,0,0,0,.816,1.976,4.393,4.393,0,0,0-1.8-.357c-.376,0-1.242.17-1.248,1.739a21.677,21.677,0,0,0,.767,5.922,19.777,19.777,0,0,1,.7,5.4c0,.94-.633,2.094-1.872,3.428a8.166,8.166,0,0,1-1.787,1.509c.039-.065.078-.132.119-.2a5.363,5.363,0,0,0,.931-2.6,5.554,5.554,0,0,0-.421-2.387l.035-9.574a11.692,11.692,0,0,0-1.412-5.312,5.5,5.5,0,0,0-5.171-3.116l-1.058,0q.058-.254.14-.5a7.2,7.2,0,0,0,.318-1.387l7.769.028c.236,0,1.386-.084,1.392-1.738.005-1.406-.8-3.168-4.64-3.582-2.595-.278-4.219-.414-4.968-.417ZM564.8,34.716a1.755,1.755,0,0,0,.215-.489c.339.221.845.571,1.594,1.122,1.216.9,1.858,1.745,1.855,2.458v.009l-.708-.211-.132-.039h-.138a18.389,18.389,0,0,1-1.877-.142q-.663-.107-1.182-.181c.029-.158.069-.353.126-.6a7.343,7.343,0,0,0,.245-1.5Zm16.423,8.114c-.134-.794-.257-1.736-.369-2.819a4.433,4.433,0,0,0-1.344-2.984,4.561,4.561,0,0,0,.976.3c.947.186,1.681.3,2.222.355a24.322,24.322,0,0,1-.929,3.555c-.216.7-.4,1.217-.556,1.594m-17.153.452a4,4,0,0,1-.086-.692,5.753,5.753,0,0,1,.128-1.178c1.145.027,2.3.068,3.437.123.138.007.28.009.425.011a4.8,4.8,0,0,1,.719.045c0,.026,0,.057-.008.1l-.1.77-.1.77-.009.069Zm.383,5.988c-.074-.686-.113-1.194-.132-1.57l4.108.015-.008,2.053c0,.076-.3.343-1.268.525a22.962,22.962,0,0,1-2.31.352,3.943,3.943,0,0,1-.39-1.375" transform="translate(-279.82 -10.565)" fill="#fff"/>
        <path id="Path_32111" data-name="Path 32111" d="M73.046,106.923a4.7,4.7,0,0,1-2.923-.813L52,91.024c-2.886-2.419-6.022-5.224-9.323-8.338H42.6a8.766,8.766,0,0,0-5.256,1.748,9.7,9.7,0,0,1-5.818,1.931q-.143,0-.286,0A6.046,6.046,0,0,1,29.084,86a1.308,1.308,0,0,1-.929-1.256c.017-.638.7-1.564,5.524-4a51.876,51.876,0,0,0,6.155-3.432,12.024,12.024,0,0,0-1.023-2.114c-.783-1.395-1.591-2.867-2.4-4.377a37.261,37.261,0,0,0-4.139-5.745,51.458,51.458,0,0,0-5.823.8l-.156,5.693c-.025.915.158,1.3.316,1.464a.585.585,0,0,0,.46.165,1.739,1.739,0,0,0,.426-.061l2.72-.888,1.406.038c2.027.055,2.3,1.283,2.277,2.01a2.615,2.615,0,0,1-2.83,2.867c-.082,0-.166,0-.252-.006-.107-.005-.214-.008-.32-.008a6.049,6.049,0,0,0-3.9,1.407,7.11,7.11,0,0,0-2.675,5.215,25.555,25.555,0,0,1-1.131,5.2c-.177.6-.359,1.222-.535,1.882-1,3.763-2.106,6.877-5.433,6.877a8.627,8.627,0,0,1-3.376-.832l-.116-.05c-1.16-.5-3.1-1.336-3.473-2.741a2.117,2.117,0,0,1,.463-1.864,1.509,1.509,0,0,1,1.269-.65,3.7,3.7,0,0,1,.7.087,3.177,3.177,0,0,0,.574.076.925.925,0,0,0,.271-.037c2-.6,3.172-3.291,4.027-5.258l.169-.386a21.832,21.832,0,0,0,1.588-4.569h-.075a12.59,12.59,0,0,0-5.559,1.311A13.767,13.767,0,0,1,7.2,84.229c-.133,0-.266,0-.4-.006l-2.525-.069-.118-.083a5.457,5.457,0,0,0-1.925-.77,1.4,1.4,0,0,1-1.13-.8,1.273,1.273,0,0,1,.282-1.18c.144-.808,1.169-1.488,3.275-2.183a54.411,54.411,0,0,1,6.19-1.632,37.6,37.6,0,0,0,5.732-1.605,9.008,9.008,0,0,0,2.313-1.07l.234-8.556a38.067,38.067,0,0,0-6.153,1.549,20.5,20.5,0,0,1-6.509,1.158q-.221,0-.44-.006a7.6,7.6,0,0,1-3.689-.819A2.613,2.613,0,0,1,1,65.741c.021-.753.371-2.031,2.485-2.141a9.067,9.067,0,0,0,3.161-.656,49.184,49.184,0,0,1,5.627-1.4,17.461,17.461,0,0,0,5.141-1.661,7.079,7.079,0,0,0-.54-1.418,2.8,2.8,0,0,0-1.594-1.512q-.18,0-.359,0a15.115,15.115,0,0,0-2.072.141,15.959,15.959,0,0,1-2.2.15c-.155,0-.31,0-.466-.007a22.714,22.714,0,0,1-2.968-.3c-.909-.145-1.983-.755-1.925-2.835.025-.921,1.053-2.026,8.487-3.229a85.669,85.669,0,0,1,9.828-1.26l.16,0a18.742,18.742,0,0,1,2.981.35,2.115,2.115,0,0,1,1.927,2.256c-.045,1.671-1.594,2.672-4.6,2.973a24.77,24.77,0,0,0-4.833.874l.232.109,4.189,3.617,4.46.122c.066,0,.2,0,.2,0a17.01,17.01,0,0,0,4.5-.792,13.619,13.619,0,0,0-1.365-6.084,13.575,13.575,0,0,1-1.47-6.349,1.442,1.442,0,0,1,1.627-1.482H31.7c2.278.062,3.906.868,4.837,2.4A21.6,21.6,0,0,1,38.7,52.66q.847,2.857,1.455,4.866c.506,1.681,1.244,1.7,1.486,1.708h0a32.065,32.065,0,0,0,3.368-.425,30.182,30.182,0,0,1,4.113-.417l.221,0a4.423,4.423,0,0,1,2.073.911c.962.61,1.434,1.114,1.5,1.613a1.27,1.27,0,0,1,.1,1.1,1.979,1.979,0,0,1-1.482.992c-1.133.289-2.464.591-3.954.9-1.519.311-2.921.541-4.165.681-.54.062-1.449.234-1.462.694a13.067,13.067,0,0,0,.776,4.475,6.217,6.217,0,0,0,2.149,3.17,22.6,22.6,0,0,0,2.7-4.337,5.644,5.644,0,0,1,5.239-3.487c.062,0,.125,0,.187,0a4.5,4.5,0,0,1,2.854,1.239c1.08.954,1.334,1.422,1.373,1.748.869,2.041-.092,4.109-2.859,6.147a48.568,48.568,0,0,1-5.734,3.787c.086,1.814,1.481,3.947,4.149,6.346,2.89,2.6,6.061,5.258,9.425,7.9s6.522,5.036,9.39,7.122c4.081,2.968,4.526,4.293,4.506,5.031L76.037,107ZM59.548,58.16a33.13,33.13,0,0,1-8.426-2.036c-4.11-1.381-6.082-2.993-6.029-4.925.012-.445.206-1.479,1.743-1.479l2.185.059.091.043A44.541,44.541,0,0,0,55.97,51.5c4.165.832,6.164,2.191,6.11,4.155a2.264,2.264,0,0,1-2.42,2.51Zm-47.4-12.54q-.5,0-.985-.013a2.7,2.7,0,0,1-2.91-3.077l.005-.2L8.4,42.2a14.752,14.752,0,0,1,7.343-3.5c2.84-.58,5.492-1.178,7.889-1.78l.169-6.164a7.483,7.483,0,0,0-1.755.372,8.409,8.409,0,0,1-2.606.426l-.215,0c-4.112-.112-4.924-2.05-4.88-3.656s1.734-2.494,5.023-2.6c4.055-.124,4.1-1.681,4.112-2.192a2.583,2.583,0,0,0-.92-2.03,44.976,44.976,0,0,1-7.61.8q-.32,0-.624-.009a4.59,4.59,0,0,1-2.779-1.23,3.28,3.28,0,0,1-1.436-2.513c.035-1.292.748-1.481,1.1-1.5a40.048,40.048,0,0,1,5.537-.792,27.315,27.315,0,0,0,5.4-.872l.047-.014.638-.162a21.132,21.132,0,0,1-4.709-4.04c-2.163-2.377-3.19-4.419-3.141-6.243L15,4.024l.477.013a9.822,9.822,0,0,1,6.055,2.312A7.945,7.945,0,0,0,25.524,8.4l9.73-7.393.168,0C38.694,1.1,40.773,2.1,41.6,3.974l.153.347L38.2,6.98a27.837,27.837,0,0,1-5.679,2.744c-3.813,1.511-3.941,2.213-3.944,2.288l-.041,1.511h.207a18.267,18.267,0,0,0,3.715-.349,19.229,19.229,0,0,1,3.908-.369q.352,0,.714.01c3.3.09,4.953.967,4.909,2.606-.033,1.195-.92,2.1-2.636,2.685a32.555,32.555,0,0,1-4.939,1.251,45.956,45.956,0,0,1-4.9.609c-.48.032-1.519.147-1.778.547l2.749,2.3q.3.006.6.007a20.2,20.2,0,0,0,2.738-.171,19.521,19.521,0,0,1,2.607-.192q.2,0,.389.005a5.305,5.305,0,0,1,2.81.936,2.61,2.61,0,0,1,1.423,2.176c-.048,1.746-1.063,2.007-1.664,2.007h-.026l-7,.731-.942.785-.187,6.86,10.24.279c1.407.038,4.261.223,8.482.547,4.573.352,6.769,1.5,6.714,3.495-.031,1.123-.752,2.463-4.015,2.463-.12,0-.243,0-.369-.005l-3.837-.1a4.987,4.987,0,0,1-2.785-.706l-4.342-.118q-.906-.025-1.8-.025a53.2,53.2,0,0,0-14.4,1.871,48.248,48.248,0,0,1-12.98,1.963" transform="translate(-0.523 -0.527)" fill="#fff"/>
        <path id="Path_32112" data-name="Path 32112" d="M34.886.964q4.63.127,5.753,2.676L37.395,6.071a27.77,27.77,0,0,1-5.568,2.683q-4.217,1.671-4.245,2.718l-.054,1.993c.236.007.469.01.7.01a18.677,18.677,0,0,0,3.814-.359,18.646,18.646,0,0,1,3.811-.359q.345,0,.7.01,4.5.123,4.444,2.116-.04,1.47-2.312,2.246a31.905,31.905,0,0,1-4.866,1.232,45.233,45.233,0,0,1-4.849.6q-2.257.15-2.284,1.2l3.107,2.6c.263.007.522.011.775.011a20.674,20.674,0,0,0,2.8-.175,18.893,18.893,0,0,1,2.541-.188c.128,0,.253,0,.376.005a4.815,4.815,0,0,1,2.558.857,2.167,2.167,0,0,1,1.21,1.765q-.042,1.542-1.186,1.541h-.048l-7.17.749-1.219,1.016L30.225,35.9l10.717.293q2.115.057,8.459.546t6.273,3.005q-.054,2-3.538,2-.174,0-.357,0l-3.837-.1a4.313,4.313,0,0,1-2.629-.7l-4.5-.123Q39.9,40.782,39,40.782A53.411,53.411,0,0,0,24.479,42.67a47.567,47.567,0,0,1-12.85,1.945q-.49,0-.973-.013a2.224,2.224,0,0,1-2.445-2.586,14.225,14.225,0,0,1,7.11-3.375q4.525-.924,8.261-1.873l.192-7.028-.133,0a7.351,7.351,0,0,0-2.261.409,7.889,7.889,0,0,1-2.457.4l-.2,0q-4.5-.123-4.416-3.165.054-1.991,4.56-2.132t4.574-2.657a3.134,3.134,0,0,0-1.254-2.554,44.936,44.936,0,0,1-7.753.83q-.312,0-.611-.008a4.122,4.122,0,0,1-2.485-1.118,2.835,2.835,0,0,1-1.266-2.134c.019-.686.24-1.031.668-1.031h.022a38.746,38.746,0,0,1,5.517-.794,27.409,27.409,0,0,0,5.519-.9l1.866-.474a17.642,17.642,0,0,1-5.7-4.513q-3.085-3.39-3.016-5.908a9.313,9.313,0,0,1,5.766,2.2Q23.3,8.311,25.151,8.361Zm-3.793,44.2h.07q3.176.087,4.442,2.168a21.036,21.036,0,0,1,2.116,4.939q.847,2.858,1.456,4.869t1.93,2.047h.036q.584,0,3.419-.431a29.607,29.607,0,0,1,4.04-.412q.109,0,.208,0a4.636,4.636,0,0,1,1.831.837q1.3.823,1.287,1.347.632,1.068-1.034,1.494t-3.93.89q-2.266.465-4.123.675t-1.885,1.155a13.458,13.458,0,0,0,.8,4.641,6.424,6.424,0,0,0,2.681,3.642,20.827,20.827,0,0,0,3.043-4.746,5.177,5.177,0,0,1,4.812-3.226l.174,0a4.017,4.017,0,0,1,2.551,1.12q1.227,1.084,1.217,1.5,1.246,2.765-2.67,5.648a45.015,45.015,0,0,1-5.932,3.88q-.083,3.044,4.311,6.994t9.449,7.922q5.056,3.969,9.4,7.132t4.309,4.632l-.057,2.1-2.514-.068a4.31,4.31,0,0,1-2.629-.7L51.783,90.13q-4.4-3.69-9.435-8.446c-.091,0-.182,0-.273,0a9.194,9.194,0,0,0-5.537,1.839A9.192,9.192,0,0,1,31,85.36c-.091,0-.182,0-.273,0q-2.648-.072-2.617-1.122.026-.944,5.261-3.583A44.414,44.414,0,0,0,39.828,77a7.791,7.791,0,0,0-1.122-2.55q-1.136-2.024-2.4-4.369a38.172,38.172,0,0,0-4.338-6h-.107a50.518,50.518,0,0,0-6.405.874l-.08,2.937-.086,3.147q-.058,2.117,1.254,2.119a2.23,2.23,0,0,0,.544-.075l2.672-.872,1.323.036q1.851.051,1.812,1.519-.065,2.4-2.353,2.4c-.075,0-.15,0-.228-.006q-.173-.008-.344-.008a6.566,6.566,0,0,0-4.2,1.512,7.558,7.558,0,0,0-2.853,5.546,38.918,38.918,0,0,1-1.652,7c-.97,3.635-1.976,6.523-4.972,6.523a8.2,8.2,0,0,1-3.186-.793c-1.386-.6-4.5-1.862-2.934-3.929a1.038,1.038,0,0,1,.888-.46c.4,0,.834.163,1.274.163a1.414,1.414,0,0,0,.407-.056c2.359-.7,3.615-3.9,4.5-5.909.166-.378,2.265-5.212,1.435-5.235-.12,0-.24,0-.359,0a13,13,0,0,0-5.769,1.359,13.24,13.24,0,0,1-5.873,1.357c-.129,0-.258,0-.387-.005L3.91,83.154a5.909,5.909,0,0,0-2.1-.845q-1.318-.3-.493-1.326.026-.944,2.965-1.914a53.764,53.764,0,0,1,6.135-1.617,37.853,37.853,0,0,0,5.8-1.626q2.609-.977,2.62-1.4L19.1,65.2a37.522,37.522,0,0,0-6.8,1.652,19.934,19.934,0,0,1-6.357,1.133q-.214,0-.427-.006Q.883,67.85.957,65.228,1,63.654,2.989,63.551a9.469,9.469,0,0,0,3.329-.7,50.332,50.332,0,0,1,5.532-1.371q4.2-.882,5.547-1.9a5.115,5.115,0,0,0-.612-1.854,3.28,3.28,0,0,0-1.937-1.785q-.225-.006-.449-.006a15.59,15.59,0,0,0-2.137.145,15.317,15.317,0,0,1-2.132.146q-.226,0-.454-.006a22.192,22.192,0,0,1-2.905-.289q-1.581-.252-1.524-2.351.04-1.467,8.086-2.771a86.483,86.483,0,0,1,9.752-1.254l.147,0a18.119,18.119,0,0,1,2.9.342,1.637,1.637,0,0,1,1.54,1.774q-.057,2.1-4.173,2.511A19.46,19.46,0,0,0,17.508,55.5l1.176.557,4.269,3.686,4.63.127.215,0a18.086,18.086,0,0,0,4.973-.911,14.081,14.081,0,0,0-1.407-6.652,13.045,13.045,0,0,1-1.422-6.127q.027-1.016,1.149-1.017m15.219,4.51H46.4l1.985.054a44.132,44.132,0,0,0,6.971,1.712q5.794,1.157,5.726,3.673-.056,2.046-1.943,2.045h-.1a33.088,33.088,0,0,1-8.287-2.011q-5.774-1.942-5.7-4.46.027-1.012,1.265-1.014M34.576,0l-.267.2L24.864,7.379a7.975,7.975,0,0,1-3.551-1.925,10.289,10.289,0,0,0-6.344-2.42l-.955-.026-.026.955c-.053,1.953,1.015,4.1,3.264,6.577a23.815,23.815,0,0,0,3.9,3.546,31.714,31.714,0,0,1-4.973.746,41.358,41.358,0,0,0-5.575.8c-.418.039-1.449.3-1.494,1.955a3.723,3.723,0,0,0,1.608,2.893,5.045,5.045,0,0,0,3.072,1.34q.311.009.637.009a44.816,44.816,0,0,0,7.45-.761,2.029,2.029,0,0,1,.6,1.5c-.029,1.073-1.257,1.655-3.648,1.728-3.588.112-5.434,1.142-5.486,3.061-.1,3.478,3.307,4.091,5.344,4.146.076,0,.152,0,.228,0a8.875,8.875,0,0,0,2.753-.45,8,8,0,0,1,1.115-.283l-.143,5.246c-2.293.57-4.817,1.136-7.517,1.688a15.221,15.221,0,0,0-7.576,3.618l-.287.272-.011.4a3.161,3.161,0,0,0,3.374,3.567q.5.014,1,.013A48.724,48.724,0,0,0,24.738,43.59,52.707,52.707,0,0,1,39,41.737c.588,0,1.188.009,1.785.025l4.2.115a5.664,5.664,0,0,0,2.925.71l3.837.1c.13,0,.258.005.383.005,3.647,0,4.456-1.592,4.492-2.927.094-3.426-5.362-3.846-7.155-3.984-4.228-.325-7.09-.51-8.506-.548l-9.762-.267.169-6.166.665-.555,6.825-.713h0c.487,0,2.078-.178,2.141-2.471a3.046,3.046,0,0,0-1.636-2.587,5.775,5.775,0,0,0-3.061-1.016q-.2-.006-.4-.006a19.973,19.973,0,0,0-2.67.2,19.765,19.765,0,0,1-2.675.167c-.138,0-.278,0-.419,0l-2.1-1.758a5.2,5.2,0,0,1,.981-.143,46.388,46.388,0,0,0,4.951-.615,33,33,0,0,0,5.011-1.269c2.4-.82,2.931-2.151,2.958-3.124.053-1.956-1.754-3-5.373-3.1-.246-.007-.488-.01-.727-.01a19.674,19.674,0,0,0-4.007.379,17.5,17.5,0,0,1-3.334.337l.025-.931c.117-.16.729-.79,3.645-1.945a28.173,28.173,0,0,0,5.789-2.806l3.244-2.431.607-.455-.306-.694C40.607,1.2,38.386.1,34.912.009ZM31.094,44.206a1.916,1.916,0,0,0-2.1,1.947,14.054,14.054,0,0,0,1.518,6.572,13.092,13.092,0,0,1,1.314,5.514,15.774,15.774,0,0,1-4.021.675l-.189,0-3.165-.086-1.124-.031-3.537-3.053a29.29,29.29,0,0,1,3.815-.6c3.286-.329,4.979-1.485,5.032-3.435a2.582,2.582,0,0,0-2.313-2.738,19.156,19.156,0,0,0-3.059-.359l-.173,0a85.7,85.7,0,0,0-9.9,1.266c-5.45.882-8.837,1.807-8.888,3.688-.07,2.555,1.429,3.177,2.329,3.32a23.217,23.217,0,0,0,3.03.3q.241.006.48.007a16.4,16.4,0,0,0,2.264-.155,14.664,14.664,0,0,1,2-.136l.265,0a2.352,2.352,0,0,1,1.258,1.241,10.028,10.028,0,0,1,.41.984,19.292,19.292,0,0,1-4.678,1.423A50.3,50.3,0,0,0,5.99,61.958l-.03.011-.029.013a8.593,8.593,0,0,1-2.992.616C.349,62.731.022,64.463,0,65.2c-.045,1.632.871,3.6,5.487,3.73.15,0,.3.006.453.006A20.974,20.974,0,0,0,12.6,67.755a38.454,38.454,0,0,1,5.507-1.434L17.9,74.054a13.357,13.357,0,0,1-2.01.879,37.061,37.061,0,0,1-5.658,1.584,55.091,55.091,0,0,0-6.245,1.647C2.37,78.7.715,79.4.414,80.606a1.674,1.674,0,0,0-.286,1.532,1.833,1.833,0,0,0,1.476,1.1,5.017,5.017,0,0,1,1.756.694L3.6,84.1l.288.008,2.381.065c.139,0,.276.006.414.006a14.239,14.239,0,0,0,6.291-1.453,12.172,12.172,0,0,1,4.842-1.252,30.565,30.565,0,0,1-1.442,3.889l-.17.387c-.772,1.775-1.939,4.457-3.726,4.991a.474.474,0,0,1-.135.016,2.868,2.868,0,0,1-.484-.067,4.138,4.138,0,0,0-.79-.1,1.984,1.984,0,0,0-1.65.84,2.575,2.575,0,0,0-.544,2.274c.431,1.63,2.506,2.524,3.746,3.058l.116.05a9.088,9.088,0,0,0,3.565.872c3.965,0,5.08-4.18,5.894-7.232.174-.653.356-1.272.532-1.871a25.952,25.952,0,0,0,1.148-5.292,6.571,6.571,0,0,1,2.5-4.884,5.588,5.588,0,0,1,3.6-1.3q.148,0,.3.007c.092,0,.184.007.274.007a3.075,3.075,0,0,0,3.307-3.331c.042-1.518-.983-2.452-2.741-2.5l-1.323-.036-.165,0-.157.051-2.639.861a1.272,1.272,0,0,1-.28.039.24.24,0,0,1-.118-.021c-.008-.009-.2-.222-.181-1.117l.065-2.388.021-.759.059-2.155c2.49-.425,4.213-.665,5.14-.716a35.972,35.972,0,0,1,3.935,5.486c.816,1.52,1.625,3,2.405,4.384a17.266,17.266,0,0,1,.864,1.7A58.83,58.83,0,0,1,32.943,79.8c-5.306,2.675-5.765,3.613-5.787,4.41a1.78,1.78,0,0,0,1.218,1.709,6.5,6.5,0,0,0,2.328.394c.1,0,.2,0,.3,0a10.168,10.168,0,0,0,6.1-2.023,8.18,8.18,0,0,1,4.864-1.655c3.257,3.068,6.352,5.834,9.2,8.225L69.3,105.952a5.131,5.131,0,0,0,3.214.922l2.514.068.955.026.026-.955.057-2.1c.038-1.382-1.369-3.006-4.7-5.431-2.866-2.085-6.021-4.477-9.377-7.111s-6.516-5.286-9.4-7.88c-2.424-2.179-3.755-4.1-3.967-5.719A52.56,52.56,0,0,0,54.131,74.1c2.947-2.171,3.968-4.411,3.039-6.663-.1-.541-.543-1.112-1.519-1.974A4.962,4.962,0,0,0,52.493,64.1l-.2,0a6.09,6.09,0,0,0-5.665,3.749,24.581,24.581,0,0,1-2.342,3.886,6,6,0,0,1-1.624-2.654,12.646,12.646,0,0,1-.752-4.264,2.312,2.312,0,0,1,1.04-.279c1.258-.142,2.673-.374,4.206-.688,1.5-.305,2.834-.608,3.975-.9a2.4,2.4,0,0,0,1.806-1.272,1.709,1.709,0,0,0-.082-1.438,3.434,3.434,0,0,0-1.7-1.864,5.108,5.108,0,0,0-2.316-.985c-.075,0-.152,0-.234,0a30.235,30.235,0,0,0-4.184.422,32.28,32.28,0,0,1-3.275.42c-.431-.011-.781-.472-1.051-1.368C39.71,55.6,39.234,54.01,38.638,52a22.064,22.064,0,0,0-2.215-5.164c-1.021-1.677-2.781-2.56-5.232-2.627h-.1m15.219,4.51h0a1.97,1.97,0,0,0-2.22,1.944c-.059,2.17,2.02,3.934,6.355,5.391a33.46,33.46,0,0,0,8.565,2.061l.125,0a2.722,2.722,0,0,0,2.9-2.974c.091-3.321-4.865-4.311-6.493-4.636a41.034,41.034,0,0,1-6.748-1.639l-.182-.086-.2-.005-.464-.013-1.52-.042h-.113" transform="translate(0)" fill="#fff"/>
        <path id="Path_32113" data-name="Path 32113" d="M336.039,30.649a8.928,8.928,0,0,0-5.988-1.273c-4.357.525-8.87.541-13.137,1.191a59.761,59.761,0,0,0-5.974,1.263,22.231,22.231,0,0,0-2.791.928c-.546.22-2.276.51-2.552.913a.4.4,0,0,0-.046.246c.181,3.867,6.619,3.451,9.342,3.239A50.723,50.723,0,0,0,322.8,35.8c2.18-.524,4.71-2.175,6.793-.888a5.091,5.091,0,0,1,1.153.938c1.692,1.912,1.833,6.967-.2,8.762-1.786,1.576-5.822,2.34-8.112,2.854a59.121,59.121,0,0,1-8.357,1.266c-.513.04-1.032.073-1.544.1-1.66.086-3.337.2-5,.2-2.111-.011-1.645-.723-1.237-2.483a31.4,31.4,0,0,0,.675-6.765,13.851,13.851,0,0,1,1.835-6.194,2.806,2.806,0,0,1,.655-.952c1.651-1.39,4.234-1.916,6.151-2.913,3.385-1.76,6.719-3.932,8.11-7.64.756-2.013.785-6.057-2.31-5.818-1.674.129-2.615,2.095-3.589,3.131a41.161,41.161,0,0,1-5.594,4.785c-3.185,2.356-6.948,3.416-9.9,5.989a4.067,4.067,0,0,0-1.114,1.277c-.5,1.089-.119,2.656-.187,3.824-.084,1.434-.214,2.87-.33,4.306-.7,8.588-3.945,20.164-10.365,26.328-.959.921-2.776,1.668-2.454,3.283.453,2.271,4.427,2.666,6.194,2.3,7.448-1.558,8.81-9.6,10.286-15.925a.456.456,0,0,1,.176-.312.525.525,0,0,1,.23-.051c7.89-.505,16.243-.3,23.828-2.721,2.329-.747,5.642-1.958,7.26-3.83,1.664-1.924,2.025-5.661,2.729-8.1,1.154-3.995,1.462-7.319-2.546-9.888" transform="translate(-150.35 -8.486)" fill="#fff"/>
      </g>
    </g>
  </g>
</svg>
