<svg xmlns="http://www.w3.org/2000/svg" xmlns:xlink="http://www.w3.org/1999/xlink" width="242.131" height="40.941" viewBox="0 0 242.131 40.941">
  <defs>
    <clipPath id="clip-path">
      <rect id="Rectangle_188" data-name="Rectangle 188" width="242.131" height="40.941" fill="#fff"/>
    </clipPath>
  </defs>
  <g id="Group_1601" data-name="Group 1601" transform="translate(-9 0)">
    <g id="Group_1101" data-name="Group 1101" transform="translate(9 0)" clip-path="url(#clip-path)">
      <path id="Path_10663" data-name="Path 10663" d="M16.9,4.74A1.855,1.855,0,0,0,17.779,5a1.768,1.768,0,0,0,.615-.13,1.75,1.75,0,0,1,.554-.106l.032.032A6.265,6.265,0,0,1,18.731,6.5a6.78,6.78,0,0,0-.264,1.923c0,.33.023.9.069,1.685.065,1.117.567,1.351.977,1.351.623,0,.691-.4.691-.573v-.236c0-.065-.008-.232-.069-.952-.029-.331-.049-.577-.059-.73a1.222,1.222,0,0,0,1.172.5,4.538,4.538,0,0,0,1.438-.316c.655-.23.987-.6.987-1.1a.944.944,0,0,0-1.047-1.046,4.988,4.988,0,0,0-1.454.446,3.2,3.2,0,0,0-1.02.559c.069-.573.144-1.089.226-1.542a9.04,9.04,0,0,0,.072-2.276l.136-.074a9.154,9.154,0,0,1,.9-.278,4.216,4.216,0,0,0,.985-.362l.2-.172V2.987a.886.886,0,0,0-.524-.776,1.667,1.667,0,0,0-.758-.27,5.006,5.006,0,0,0-2.452.633,7.846,7.846,0,0,1-2.177.829l-.06.012-.319.372v.066a.96.96,0,0,0,.527.886" transform="translate(-8.562 -1.015)" fill="#fff"/>
      <path id="Path_10664" data-name="Path 10664" d="M19.189,21.073A15.052,15.052,0,0,0,22.2,20.7a2.688,2.688,0,0,0,2.264-1.85l.02-.07-.034-.064a1.327,1.327,0,0,0-1.163-.844,4.6,4.6,0,0,0-2.367.646,4.519,4.519,0,0,1-2.323.6c-.6,0-.982-.171-1.161-.523a4.435,4.435,0,0,1-.416-1.317q-.118-.752-.238-1.366a.858.858,0,0,0-.924-.756h-.066l-.239.2-.01.065q-.1.6-.165.916a4.094,4.094,0,0,0-.073.847,3.861,3.861,0,0,0,1.038,2.846,3.865,3.865,0,0,0,2.847,1.038" transform="translate(-8.001 -7.924)" fill="#fff"/>
      <path id="Path_10665" data-name="Path 10665" d="M17.611,17.079a4.7,4.7,0,0,0-.944-.122,7.734,7.734,0,0,0-1.726.192,7.4,7.4,0,0,1-1.645.183c-.239,0-.834-.063-1.77-.186a27.019,27.019,0,0,1-2.946-.568,22.522,22.522,0,0,1-2.757-.86c-.972-.381-1.118-.67-1.118-.809a4.132,4.132,0,0,1,.529-2.041,4.642,4.642,0,0,0,.575-2.294A1.589,1.589,0,0,0,4.2,8.763a2.855,2.855,0,0,1,.757-1.612,3.415,3.415,0,0,0,.852-2.294,1.423,1.423,0,0,0-.774-1.216A2.628,2.628,0,0,0,3.659,3.18,3.9,3.9,0,0,0,2.071,3.7C1.345,4.068.977,4.5.977,4.994a1.009,1.009,0,0,0,.367.679,1.011,1.011,0,0,0,.679.368A2.047,2.047,0,0,0,3.113,5.7c.244-.153.486-.291.721-.414A2.829,2.829,0,0,1,2.9,7.4,3.193,3.193,0,0,0,1.844,9.8a1.942,1.942,0,0,0,.212.764.864.864,0,0,0,.834.538h.067l.05-.043a2.723,2.723,0,0,1,.467-.282,1.232,1.232,0,0,1,.421-.167h.047a.7.7,0,0,0,.124.087,8.222,8.222,0,0,1-.284,1.422,3.1,3.1,0,0,1-.53,1.287,6.28,6.28,0,0,1-1.005-1.091,2,2,0,0,0-1.7-.821c-.1,0-.435.038-.435.534v.207l1.36,1.5v.029c0,.157.1.306.329.47a.637.637,0,0,1,.183.172v.168H2.1a.569.569,0,0,1,0,.058v.074l.117.117c-.057.16-.232.414-.875.448a1.391,1.391,0,0,0-1.316.665L0,16l.018.063a.961.961,0,0,0,.79.618,4.048,4.048,0,0,0,.841.143,2.027,2.027,0,0,0,1.1-.344,1.514,1.514,0,0,1,.771-.287,6.254,6.254,0,0,1,2.137.972,11.18,11.18,0,0,0,2.829,1.256,4.542,4.542,0,0,1,.5.066,1.237,1.237,0,0,1,.621.265l.051.043h.066a5.709,5.709,0,0,1,.883.126,6.231,6.231,0,0,0,.949.131h.394l.058,0v.1h2.781a14.678,14.678,0,0,0,2.194-.18c.873-.133,1.315-.458,1.315-.965a.84.84,0,0,0-.693-.924" transform="translate(0 -1.662)" fill="#fff"/>
      <path id="Path_10666" data-name="Path 10666" d="M49.916,6.979a1.8,1.8,0,0,0-1.313.846,11.343,11.343,0,0,0-1.192,1.883,21.182,21.182,0,0,0-.964,2.157,5.172,5.172,0,0,0-.416,1.679v.473l.022.085a.634.634,0,0,0,.611.31c.4,0,.778-.5,1.239-1.629q.021-.049.04-.1v1.606a6.638,6.638,0,0,0,.122,1.256,3.96,3.96,0,0,0,.423,1.176,1,1,0,0,0,.876.6c.125,0,.416-.052.416-.534,0-.215-.02-.611-.06-1.175s-.079-1.165-.118-1.8a9.368,9.368,0,0,0-.232-1.658c-.134-.534-.361-.806-.676-.806a.92.92,0,0,0-.162.013,7.63,7.63,0,0,1,.411-.743c.088-.138.366-.539.852-1.225a14.662,14.662,0,0,0,.855-1.281,1.269,1.269,0,0,0,.114-.527c0-.229-.11-.613-.849-.613" transform="translate(-24.065 -3.649)" fill="#fff"/>
      <path id="Path_10667" data-name="Path 10667" d="M62.388,17.95a24.739,24.739,0,0,0,.178-2.71l0-2.768L62.644,12a8.787,8.787,0,0,0,2.49-1.452,3.644,3.644,0,0,0,1.137-2.936,2,2,0,0,0-1.3-2.089,9.663,9.663,0,0,0-2.406-.565L62.514,4.9a.975.975,0,0,1-.3-.721V3.159a1.631,1.631,0,0,0-.258-.929,1.182,1.182,0,0,0-1.045-.413h-.335a.377.377,0,0,0-.416.4,4.038,4.038,0,0,0,.236,1.279,3.734,3.734,0,0,1,.217,1.184,1.546,1.546,0,0,1-.045.307c-.021.1-.036.175-.044.24a7.073,7.073,0,0,0-1.96,1.232A2.923,2.923,0,0,0,57.6,8.736a3.176,3.176,0,0,0,.238,1,.973.973,0,0,0,.947.738h.073l.244-.242L58.959,9.7V9.623A3.623,3.623,0,0,1,59.5,7.917a1.552,1.552,0,0,1,1.114-.9V8.164c0,.068,0,.275-.6.275a.918.918,0,0,0-.77.245.457.457,0,0,0-.064.416c.084.3.374.53.884.7a3.161,3.161,0,0,1,.548.221v.822c0,.126-.042.166-.057.178a.507.507,0,0,1-.358.057c-.313-.031-.746-.038-.9.25l-.059.108.08.094a3.051,3.051,0,0,0,1.3.919v1.212a27.219,27.219,0,0,1-.157,2.907A27.4,27.4,0,0,0,60.3,19.5v.179h.179a1.752,1.752,0,0,0,1.912-1.726m1.34-10.517H62.664V6.55h1.28c.2,0,.392.059.392.491a5.2,5.2,0,0,1-.158.855c0-.011-.006-.024-.009-.039h0a.443.443,0,0,0-.442-.423m.194,1.177a2.518,2.518,0,0,1-1.257,1.4v-.83c0-.005.056-.127.618-.348.3-.116.5-.184.641-.223" transform="translate(-30.111 -0.95)" fill="#fff"/>
      <path id="Path_10668" data-name="Path 10668" d="M89.743,8.96a3.057,3.057,0,0,0,1.352.679.367.367,0,0,0,.4-.4.94.94,0,0,0-.6-.912.583.583,0,0,1-.386-.585,1.443,1.443,0,0,1,.488-1.055,3.925,3.925,0,0,1,1.283-.819,12.39,12.39,0,0,1,1.632-.534c.542-.137.993-.24,1.341-.306q.425.1,1.085.257a11.124,11.124,0,0,1,1.358.427,3.852,3.852,0,0,1,1.13.659,1.176,1.176,0,0,1,.431.939A1.292,1.292,0,0,1,98.195,8.59a6.616,6.616,0,0,1-1.975.376H96.04v.179c0,.252.1.685.8.75.437.04.723.06.873.06a3.7,3.7,0,0,0,1.907-.617,1.935,1.935,0,0,0,1.051-1.69,2.359,2.359,0,0,0-.53-1.638,4.605,4.605,0,0,0-1.22-.944,10.378,10.378,0,0,0-1.464-.652,7.159,7.159,0,0,1-1.248-.565,1.2,1.2,0,0,1-.576-.9c-.06-.383-.306-.84-1.132-.84-.093,0-.4.037-.4.513a.911.911,0,0,0,.392.7.679.679,0,0,1,.243.339c-.408.131-.917.273-1.515.424a13.429,13.429,0,0,0-1.947.649,5.039,5.039,0,0,0-1.6,1.063,2.514,2.514,0,0,0-.692,1.851,1.686,1.686,0,0,0,.758,1.313" transform="translate(-46.521 -1.101)" fill="#fff"/>
      <path id="Path_10669" data-name="Path 10669" d="M97.483,22.016a8.592,8.592,0,0,0,.432-1.48q.122-.617.224-1.087a10.477,10.477,0,0,1,1.548.679,3.253,3.253,0,0,0,1.945.435.558.558,0,0,0,.612-.613.924.924,0,0,0-.643-.9,5.769,5.769,0,0,0-1.272-.336,13.125,13.125,0,0,1-1.322-.272,1.3,1.3,0,0,1-.628-.329,10.666,10.666,0,0,0,1.106-.575,1.417,1.417,0,0,0,.827-1.219c0-.722-.445-.829-.711-.829-.409,0-.78.282-1.1.838a1.155,1.155,0,0,1-.945.657,4.9,4.9,0,0,0-.821-.794,4.426,4.426,0,0,0-.7-.758,5.154,5.154,0,0,0-.518-.393,1.747,1.747,0,0,1,.142-.411,2.292,2.292,0,0,1,.241-.443l.042-.049v-.065s.005-.031.066-.091l.052-.052,0-.141c.034-.193.13-.387.547-.346a.862.862,0,0,0,.679-.149.5.5,0,0,0,.157-.384c0-.273-.121-.731-.928-.731-.282,0-.844.036-1.72.109-.625.052-1.455.184-1.455.72a.767.767,0,0,0,.481.745,2.063,2.063,0,0,0,.58.171,1.28,1.28,0,0,1-.469.715c-.346.314-.737.636-1.161.955s-.823.626-1.185.909c-.411.321-.611.609-.611.88s.123.731.948.731a2.394,2.394,0,0,0,1.632-1.027,13.246,13.246,0,0,1,1.189-1.238c.476.033.908.449,1.284,1.236q.2.429.343.785a.493.493,0,0,0-.161-.11,3.711,3.711,0,0,0-.685-.188.752.752,0,0,0-.165-.525.976.976,0,0,0-.776-.276c-.422,0-.87.361-1.371,1.1h0a3.376,3.376,0,0,0-.72,1.657c0,.261.114.7.869.711-.391.344-.454.545-.454.689a.638.638,0,0,0,.711.691,2.788,2.788,0,0,0,2-1.012,3.005,3.005,0,0,0,.956-2.045q0-.039,0-.077a2.13,2.13,0,0,1,.076.511,6.6,6.6,0,0,1-.52,2.183c-.329.864-.8,1.284-1.449,1.284a1.162,1.162,0,0,1-.781-.283,1.554,1.554,0,0,0-1.032-.367h-.179V22a1.445,1.445,0,0,0,1.081,1.4,4.744,4.744,0,0,0,1.561.376,1.859,1.859,0,0,0,1.368-.525,3.587,3.587,0,0,0,.79-1.234m-2.952-2.961a2.137,2.137,0,0,1,.385-.827A1.993,1.993,0,0,1,94.4,19.41a3.356,3.356,0,0,0,.126-.355" transform="translate(-47.558 -6.369)" fill="#fff"/>
      <path id="Path_10670" data-name="Path 10670" d="M148.1,19.885a.454.454,0,0,0,.07.006.435.435,0,0,0,.306-.13l.171-.171v-.074a3.887,3.887,0,0,0-.384-1.755,1.63,1.63,0,0,0-1.608-.828h-.179v.179a4.455,4.455,0,0,0,.68,1.7c.364.695.655,1.026.944,1.075" transform="translate(-76.577 -8.852)" fill="#fff"/>
      <path id="Path_10671" data-name="Path 10671" d="M139.648,18.368a8.732,8.732,0,0,0,1.419-2.082,15.654,15.654,0,0,0,.967-2.383,6.878,6.878,0,0,0,.363-1.915c0-3.245-1.576-4.922-4.684-4.986a2.122,2.122,0,0,1,.1-.5,2.167,2.167,0,0,0,.127-.668c0-.876-.494-1.007-.79-1.007-.471,0-.807.363-1,1.078a6.441,6.441,0,0,0-.262,1.623,1.538,1.538,0,0,0,.218.675c.167.316.354.47.573.47h1.394l.138-.137a2.231,2.231,0,0,1,1.946.827,4.005,4.005,0,0,1,.58,2.265,6.133,6.133,0,0,1-.3,1.683,13.922,13.922,0,0,1-.788,2.023,6.146,6.146,0,0,1-1.177,1.7,1.98,1.98,0,0,1-1.422.667,2.19,2.19,0,0,1-.547-.166q-.475-.178-.95-.346a3.241,3.241,0,0,1-.85-.458,4.037,4.037,0,0,1-.351-.292,3.985,3.985,0,0,1,.455-1.733,4.554,4.554,0,0,0,.491-2.01,6.045,6.045,0,0,0-1.115-3.471A4.251,4.251,0,0,0,131.268,7.4a4.591,4.591,0,0,1,.755-.551c.589-.36.874-.729.874-1.128,0-.332-.133-.889-1.026-.889a1.673,1.673,0,0,0-.8.323,5.725,5.725,0,0,0-.988.8c-.324.324-.611.632-.856.916a1.387,1.387,0,0,0-.408.876.652.652,0,0,0,.636.671c-.375.807-.731,1.625-1.057,2.435a7.834,7.834,0,0,0-.545,2.944c0,.242.02.609.06,1.089a5.556,5.556,0,0,0,.306,1.426,4.462,4.462,0,0,0,.688,1.252,1.541,1.541,0,0,0,1.274.611.39.39,0,0,0,.4-.349,2.618,2.618,0,0,1,.364.05,3.445,3.445,0,0,0,.7.063,1.8,1.8,0,0,0,1.28-.595,1.45,1.45,0,0,1,.995-.494,1.6,1.6,0,0,1,.367.316c.242.242.546.53.9.853a6.138,6.138,0,0,0,1.227.863,2.875,2.875,0,0,0,1.356.376,2.549,2.549,0,0,0,1.884-.894m-7.916-9.433a1.591,1.591,0,0,1,1.546,1.261,6.873,6.873,0,0,1,.483,2.147,5.607,5.607,0,0,1-.821,2.981,2.726,2.726,0,0,1-2.528,1.294.561.561,0,0,1-.592-.369,4.1,4.1,0,0,0-.411-.809V14.274a13.211,13.211,0,0,1,.117-1.427,9.143,9.143,0,0,1,.415-1.836,5.646,5.646,0,0,1,.754-1.5,1.237,1.237,0,0,1,1.037-.577" transform="translate(-66.839 -2.526)" fill="#fff"/>
      <path id="Path_10672" data-name="Path 10672" d="M131.855,19.163v.179a2.991,2.991,0,0,0,.569,1.555h0a1.641,1.641,0,0,0,1.3.93c.567,0,.652-.26.649-.382a1.623,1.623,0,0,0-.774-1.573,2.673,2.673,0,0,0-1.569-.709Z" transform="translate(-68.933 -10.018)" fill="#fff"/>
      <path id="Path_10673" data-name="Path 10673" d="M180.191,19.365a.622.622,0,0,1,.287-.069,2.509,2.509,0,0,1,.588.037,4.376,4.376,0,0,0,.761.062c.825,0,1.243-.226,1.243-.672,0-.266-.267-.522-.848-.818-.124-.084-.416-.28-.6-.1l-.066.066h-1.278a.771.771,0,0,1,.237-.385l.085-.085-.047-.111a1.35,1.35,0,0,0-.508-.641,17.891,17.891,0,0,1,2.373-.154h.523l.042-.025a.549.549,0,0,0,.284-.489c0-.317-.151-.729-.871-.885a6.39,6.39,0,0,0-1.318-.161h-.2a2.426,2.426,0,0,0,.657-1.753,1.081,1.081,0,0,0-.25-.8.472.472,0,0,1-.117-.188h1.173a.8.8,0,0,1,.18.033,1.144,1.144,0,0,0,.293.045,1.969,1.969,0,0,0,.633-.148c.326-.12.492-.289.492-.5a.614.614,0,0,0-.375-.574q-.269-.135-.461-.25l-.042-.026h-2.967a6.176,6.176,0,0,0-1.123.2,6.643,6.643,0,0,1-1.026.193q-.179,0-.78.04a17.274,17.274,0,0,0-2.2.142c-.38.087-.573.245-.573.47a.847.847,0,0,0,.676.841l1.139.009a8.828,8.828,0,0,0,.9-.041c.2-.021.423-.033.661-.037a7.763,7.763,0,0,0,.15,1.353,7.585,7.585,0,0,1,.144,1.351,4.791,4.791,0,0,1-1.093.188,12.358,12.358,0,0,0-1.28.14l-.065.011-.042.051a.774.774,0,0,0-.141.509c0,.739.483.849.771.849a17.1,17.1,0,0,0,2.867-.24,1.267,1.267,0,0,0-.322.552q-.078.329-.136.522a.507.507,0,0,1-.267.248h0a2.65,2.65,0,0,1-1.1.136h-1.223v.179a1.405,1.405,0,0,0,.239.984c.112.112.349.24,1.2.24a3.609,3.609,0,0,0,.612-.052,3.484,3.484,0,0,1,.475-.044c.007.207.027.493.056.857q.059.732.138,1.512a5.13,5.13,0,0,0,.327,1.409.96.96,0,0,0,.915.693c.517,0,.573-.332.573-.474a7.729,7.729,0,0,0-.262-1.978,7.43,7.43,0,0,1-.251-1.905v-.211Zm-.885-4.72V12.81c0-.254.076-.513.631-.53a2.338,2.338,0,0,0,.075.246,1.059,1.059,0,0,1,.079.284v.079a1.435,1.435,0,0,1-.125.4l-.287.721a2.246,2.246,0,0,1-.318.575c-.021.027-.041.048-.055.064" transform="translate(-91.173 -5.635)" fill="#fff"/>
      <path id="Path_10674" data-name="Path 10674" d="M180.667,3.733a.529.529,0,0,0,.63-.077.377.377,0,0,1,.247-.1,5.951,5.951,0,0,0,.041.783,2.025,2.025,0,0,0,.471.823l.053.067h.165c.535,0,.593-.345.591-.472l.173-1.395a1.775,1.775,0,0,1,.717-.281h.864l.049-.007a.541.541,0,0,0,.406-.566.7.7,0,0,0-.584-.746,4.324,4.324,0,0,0-.935-.1h-.314V1.618a1.712,1.712,0,0,1,.037-.34,2.174,2.174,0,0,0,.042-.409.727.727,0,0,0-.383-.7A1.44,1.44,0,0,0,182.274,0a.335.335,0,0,0-.374.327l-.255,1.549q-.4.066-.748.117a2.814,2.814,0,0,0-.852.273l-.064.053a.864.864,0,0,0-.094.5.854.854,0,0,0,.271.533,1.306,1.306,0,0,0,.508.381" transform="translate(-94.045 0)" fill="#fff"/>
      <path id="Path_10675" data-name="Path 10675" d="M226.74,6.665a4.785,4.785,0,0,0,1.177.134h1.458a7.21,7.21,0,0,0,.848-.051c.5-.059.572-.328.572-.483l-.016-.075c-.178-.386-.325-.569-.494-.612a3.843,3.843,0,0,0-1.151,0,4.568,4.568,0,0,1-.607.038h-.3q-.116,0-.778-.039c-.452-.026-.706-.04-.759-.04l-.034,0c-.271.052-.56.126-.56.353a.762.762,0,0,0,.638.775" transform="translate(-118.206 -2.893)" fill="#fff"/>
      <path id="Path_10676" data-name="Path 10676" d="M225.277,27.608l-.074-.053a1.769,1.769,0,0,1-.721-.9,4.1,4.1,0,0,1-.151-1.142,2.437,2.437,0,0,1,.083-.6.57.57,0,0,0,.407.411,2.333,2.333,0,0,0,1.108.053q.1-.019.206-.029c-.007.172-.021.438-.043.8a1.026,1.026,0,0,0,.209.8.724.724,0,0,0,.551.211c.258,0,.691-.129.691-1a3.456,3.456,0,0,1,.141-1.092h.173a3.6,3.6,0,0,1,.553.037,3.831,3.831,0,0,0,.61.042.522.522,0,0,0,.593-.553c0-.275-.173-.612-1-.661-.489-.029-.823-.046-1-.049a2.064,2.064,0,0,1-.151-.466c-.063-.254-.1-.421-.118-.531a3.05,3.05,0,0,1,1.988.889,2.649,2.649,0,0,1,.921,1.9,1.833,1.833,0,0,1-.8,1.645,3.541,3.541,0,0,1-2.018.561,2.158,2.158,0,0,1-.856-.163,2.275,2.275,0,0,0-.9-.191h-.28l.117.253a1.637,1.637,0,0,0,1.286.969,10.137,10.137,0,0,0,1.675.141,3.3,3.3,0,0,0,2.412-.87,3.006,3.006,0,0,0,.881-2.226,3.093,3.093,0,0,0-.5-1.6,4.124,4.124,0,0,0-1.255-1.318q-.12-.06-.639-.29a2.246,2.246,0,0,1-.576-.308l-.072-.044q-.616-.2-1.082-.327a4.316,4.316,0,0,0-1.141-.135,3.142,3.142,0,0,0-2.491,1.167,3.693,3.693,0,0,0-.979,2.4A4.978,4.978,0,0,0,223.413,27a1.4,1.4,0,0,0,1.35,1.073c.464,0,.514-.263.514-.376Zm.653-4.568a2.776,2.776,0,0,0,.057.412,2.418,2.418,0,0,1,.055.523v.059a3.48,3.48,0,0,1-1.279.215.405.405,0,0,0-.119.018q.079-.178.178-.366a1.435,1.435,0,0,1,1.108-.861" transform="translate(-116.608 -11.379)" fill="#fff"/>
      <path id="Path_10677" data-name="Path 10677" d="M214.308,14.35c.311-.211.626-.442.936-.686a7.241,7.241,0,0,0,.789-.708c.295-.314.354-.442.354-.546V12.36l-.024-.042A1.14,1.14,0,0,0,215.3,11.9a9.413,9.413,0,0,0-2.753.451q-1.437.444-2.382.719l-.129.037v.134c0,.586.357.909,1.006.909l.061-.011q.218-.078.987-.365a4.818,4.818,0,0,1,.813-.233,23.053,23.053,0,0,0-1.786,2.433,6.182,6.182,0,0,0-.964,3.377v.322l.022.041a.5.5,0,0,0,.452.269c.228,0,.427-.2.644-.653.178-.368.352-.785.519-1.238s.331-.884.5-1.317a2.406,2.406,0,0,1,.241-.472c-.008.333-.026.661-.053.983-.04.461-.06.938-.06,1.415v.71c0,.4.02.829.06,1.277a4.3,4.3,0,0,0,.279,1.234c.167.415.392.625.669.625.172,0,.381-.019.474-.169a.276.276,0,0,0,.021-.243v-.595c0-.468-.02-.959-.06-1.463-.039-.484-.059-.973-.059-1.454V17.009a2.479,2.479,0,0,0,.119-.718.718.718,0,0,1,.041-.239c.13.261.282.543.452.841a2.171,2.171,0,0,0,.881.878l.3.02a.344.344,0,0,0,.377-.357v-.2l-.015-.072q-.2-.452-.4-.943a2.631,2.631,0,0,0-.666-.932,1.319,1.319,0,0,0-.785-.281c-.22-.019-.285-.109-.3-.243a2.293,2.293,0,0,1,.5-.417" transform="translate(-109.807 -6.219)" fill="#fff"/>
      <path id="Path_10678" data-name="Path 10678" d="M215.239,8.9a5.974,5.974,0,0,0,1.4.183c.3,0,.474-.2.474-.534,0-.418-.381-.68-1.131-.778a12.308,12.308,0,0,0-1.432-.13h-.179v.179a1.031,1.031,0,0,0,.866,1.08" transform="translate(-112.074 -3.994)" fill="#fff"/>
      <path id="Path_10679" data-name="Path 10679" d="M229.4,10.862a1.93,1.93,0,0,0-1.716.869,2.943,2.943,0,0,0-.552,1.616,3.25,3.25,0,0,0,.383,1.44,1.412,1.412,0,0,0,1.352.828,2.273,2.273,0,0,0,1.885-.857,2.851,2.851,0,0,0,.659-1.786,2.187,2.187,0,0,0-.555-1.446,1.833,1.833,0,0,0-1.456-.664m.531,1.913a3.591,3.591,0,0,1-.341,1.174c-.3.741-.674.694-.771.684a.428.428,0,0,1-.345-.385,4.772,4.772,0,0,1-.057-.546,1.682,1.682,0,0,1,.816-1.555h.266c.281,0,.37.062.379.093a2.207,2.207,0,0,1,.053.536" transform="translate(-118.746 -5.679)" fill="#fff"/>
      <path id="Path_10680" data-name="Path 10680" d="M251.064,29.928q.434-.631,1.124-1.754c0-.263-.185-.46-.552-.591a2.758,2.758,0,0,0-.828-.2.636.636,0,0,0-.7.473,3.043,3.043,0,0,1-.384.867,11.035,11.035,0,0,0-.512,1.39q-.355,1.094-.473,1.35h1.084a16.458,16.458,0,0,0,1.242-1.537" transform="translate(-130.04 -14.317)" fill="#fff"/>
      <path id="Path_10681" data-name="Path 10681" d="M77.37,62.48a3.978,3.978,0,0,0-1.311-.227,12.22,12.22,0,0,0-3.5.54,11.841,11.841,0,0,1-3.4.525,5.342,5.342,0,0,1-1.526-.209,5.636,5.636,0,0,0-1.608-.224h-.179v.179a2.143,2.143,0,0,0,1.8,2.252,11.773,11.773,0,0,0,2.774.429c.287,0,.853-.037,1.681-.109s1.678-.179,2.517-.317a18.67,18.67,0,0,0,2.319-.528c.777-.234,1.172-.6,1.172-1.1a1.14,1.14,0,0,0-.741-1.214" transform="translate(-34.425 -32.546)" fill="#fff"/>
      <path id="Path_10682" data-name="Path 10682" d="M118.033,70.777h-.079l-.053.058a5.094,5.094,0,0,1-2.731,1.68,16.523,16.523,0,0,1-3.168.292c-.546,0-1.308-.04-2.262-.117a9.741,9.741,0,0,1-2.671-.59,8.018,8.018,0,0,1-2.188-1.233,2.267,2.267,0,0,1-.9-1.862,2.04,2.04,0,0,1,.171-.824,2.743,2.743,0,0,0,.2-1.107,4.8,4.8,0,0,0-.052-.606c-.028-.211-.132-.282-.214-.3-.2-.054-.376.135-.526.326a5.383,5.383,0,0,0-.736,1.386,11.476,11.476,0,0,0-.451,1.411,3.222,3.222,0,0,1-.282.844l-.028.043v.052c0,.089.042.3.435.3a.772.772,0,0,0,.524-.213.443.443,0,0,1,.3-.122s.127.042.26.574a2.269,2.269,0,0,0,.452,1.018,6.158,6.158,0,0,0,3.782,2.13,26.232,26.232,0,0,0,4.316.377h1.679l.023-.006a13.439,13.439,0,0,1,2.46-.458,3.426,3.426,0,0,0,2.246-1.466,2.063,2.063,0,0,0,.276-.93c0-.243-.1-.652-.79-.652" transform="translate(-53.361 -34.585)" fill="#fff"/>
      <path id="Path_10683" data-name="Path 10683" d="M107.958,53.174H106.8V51.9a2.435,2.435,0,0,1,.111-1.014h1.051c.125,0,.415-.053.415-.553a.665.665,0,0,0-.65-.71,1.567,1.567,0,0,1-.641-.174.467.467,0,0,1-.285-.427c0-.318-.241-.588-.716-.8l-.127-.058-.087.11a.94.94,0,0,0-.141.855.533.533,0,0,1-.045.468,5.06,5.06,0,0,1-1.01.207c-.819.116-.991.493-.991.788a.7.7,0,0,0,.79.77,3.556,3.556,0,0,0,.675-.063,3.168,3.168,0,0,1,.468-.052c.005.353.025.724.059,1.1a2.36,2.36,0,0,1-.181,1.16c-.051.112-.184.183-.395.213-.28.04-.591.1-.924.18s-.623.16-.87.241a.724.724,0,0,0-.488.781c0,.251.1.671.789.671a3.376,3.376,0,0,0,1.269-.26,8.72,8.72,0,0,1,.858-.3v.123a8.077,8.077,0,0,1-.126,1.418,9.081,9.081,0,0,0-.13,1.578c0,.255.023.609.069,1.053a.812.812,0,0,0,.858.821c.367,0,.4-.228.4-.3,0-.639.02-1.262.059-1.851s.059-1.223.059-1.854v-.82l-.049-.052a2.44,2.44,0,0,1-.264-.316,1.848,1.848,0,0,1,.829-.231c.258-.034,1.041-.139,1.041-.65a2.246,2.246,0,0,0-.052-.4.446.446,0,0,0-.461-.39" transform="translate(-53.75 -25.18)" fill="#fff"/>
      <path id="Path_10684" data-name="Path 10684" d="M121.818,61.139a4.174,4.174,0,0,0,1.423-.307,4.158,4.158,0,0,1,1.455-.284h.449l.715-.716v-.074a.73.73,0,0,0-.495-.77,2.154,2.154,0,0,0-.67-.138,5.135,5.135,0,0,0-1.736.316,5.144,5.144,0,0,1-1.752.295c-.542,0-.9-.127-1.052-.378q-.115-.588-.162-.819a3.613,3.613,0,0,1-.046-.673,2.923,2.923,0,0,1,.166-1.021,2.914,2.914,0,0,0,.189-1.029.927.927,0,0,0-.039-.294h2.02l.049-.1a.475.475,0,0,1,.046-.077c.107.032.275.016.441-.267l.024-.042v-.049a1.05,1.05,0,0,0-.082-.381.665.665,0,0,1-.056-.23,2.155,2.155,0,0,1,.282-1.065,2.459,2.459,0,0,0,.329-1.221,1.611,1.611,0,0,0-.882-1.611,4.321,4.321,0,0,0-1.84-.381h-.946a.875.875,0,0,0-.534.435.848.848,0,0,0,.8.886,7.288,7.288,0,0,0,1.294.121h.559a.606.606,0,0,1,.11.432,5.738,5.738,0,0,1-.3,1.456c-.177.589-.428.888-.744.888H119.3l-.185.26v.057a.453.453,0,0,0,.292.453.73.73,0,0,1,.165.088,2.956,2.956,0,0,1-.485.715,2.347,2.347,0,0,0-.582,1.5,5.568,5.568,0,0,0,.673,2.789,2.78,2.78,0,0,0,2.639,1.234" transform="translate(-61.955 -26.047)" fill="#fff"/>
      <path id="Path_10685" data-name="Path 10685" d="M112.982,64.732h-.07a2.108,2.108,0,0,0-.726.18c-.356.141-.537.339-.537.59,0,.152.071.365.411.518a1.528,1.528,0,0,0,.616.154,1.226,1.226,0,0,0,.578-.159.572.572,0,0,0,.351-.513c0-.107-.043-.236-.571-.722Z" transform="translate(-58.37 -33.842)" fill="#fff"/>
      <path id="Path_10686" data-name="Path 10686" d="M155.321,74.644c-.136,0-.231.048-.769,1.061-.4.756-.673,1.008-.829,1.086l-.046.033a1.389,1.389,0,0,1-.4.208,1.088,1.088,0,0,0-.539.338l-.1.217-.016.074c0,.262.154.573.889.573a2.387,2.387,0,0,0,1.753-1.019,3.038,3.038,0,0,0,.85-1.9c0-.2-.077-.672-.79-.672" transform="translate(-79.789 -39.024)" fill="#fff"/>
      <path id="Path_10687" data-name="Path 10687" d="M167.289,76.544c-.3,0-.3.415-.3.593a3.2,3.2,0,0,0,.588,1.5c.414.674.815,1,1.227,1,.606,0,.671-.415.671-.593s-.091-.5-.8-1.428c-.547-.725-1-1.077-1.394-1.077" transform="translate(-87.303 -40.017)" fill="#fff"/>
      <path id="Path_10688" data-name="Path 10688" d="M159.249,60.139a14.679,14.679,0,0,0-1.7-.1h-.2a4.586,4.586,0,0,0,1.113-1.048,4.026,4.026,0,0,0,.585-1.414c0-.945-.02-1.751-.059-2.4a8.145,8.145,0,0,0-.563-2.319l-.035-.057a2.886,2.886,0,0,0-.652-.5,1.728,1.728,0,0,0-.88-.272.445.445,0,0,0-.494.475c0,.284.243.555.743.827a1.136,1.136,0,0,1,.557,1.1v.018h-1.22c-.136,0-.3.082-.3.475a.575.575,0,0,0,.383.581,6.845,6.845,0,0,0,1.142.156c.111.021.111.052.111.071v1.039h0a.719.719,0,0,1-.381-.157,1.067,1.067,0,0,0-.661-.234.436.436,0,0,0-.475.475c0,.3.141.688.813.788a1.414,1.414,0,0,1,.507.14,1.157,1.157,0,0,1-.4.818,1.517,1.517,0,0,0-.505,1.073.361.361,0,0,0,.263.353h-1.69a.574.574,0,0,0,.031-.056l.03-.059-.016-.064a3.264,3.264,0,0,1,.048-1.635,6.845,6.845,0,0,0,.252-1.771v-.73a.894.894,0,0,0-.985-.848h-.492a.662.662,0,0,1-.4-.114c-.005,0-.111-.086-.13-.651h.311a5.8,5.8,0,0,0,.794-.051.517.517,0,0,0,.509-.523v-.3a.367.367,0,0,0-.4-.4h-1.128a2.859,2.859,0,0,0-.11-.631.707.707,0,0,0-.773-.492h-.049l-.327.2v.1c0,.36-.063.437-.069.443a.631.631,0,0,0-.227.562,5.408,5.408,0,0,0,.359,2.09c.252.6.874.911,1.849.927v.314a7.6,7.6,0,0,1-.154,1.55,7.764,7.764,0,0,0-.161,1.584.713.713,0,0,0,.386.712c-.211.034-.481.076-.824.126l-.17.024.059-.059V59.9a5.467,5.467,0,0,0-.1-1.049,5.124,5.124,0,0,1-.095-.981,1.283,1.283,0,0,1,.052-.355,1.659,1.659,0,0,0,.066-.453c0-.178-.069-.593-.711-.593-.427,0-.671.274-.671.751v.883l.041.461a4.767,4.767,0,0,0,.225.942,3.776,3.776,0,0,0,.374.8.776.776,0,0,0,.112.139q-1.044.147-2.163.3c-1.037.137-2.009.29-2.888.455-1.224.23-1.456.4-1.456.619,0,.295.116.79.889.79a1.031,1.031,0,0,0,.572-.112c1.534-.337,3.1-.642,4.661-.906a28.02,28.02,0,0,1,4.661-.4,5.115,5.115,0,0,1,1.285.152,5.354,5.354,0,0,0,1.356.164.531.531,0,0,0,.573-.593c0-.3-.174-.671-1.006-.769" transform="translate(-76.464 -27.04)" fill="#fff"/>
      <path id="Path_10689" data-name="Path 10689" d="M152.348,53.982h.342l.122-.335.01-.061a.64.64,0,0,0-.424-.671,1.981,1.981,0,0,0-.661-.119,1.708,1.708,0,0,0-1.74,1.5,9.581,9.581,0,0,0-.351,2.232c0,.268.013.626.04,1.065A4.381,4.381,0,0,0,150,58.964a4.955,4.955,0,0,0,.634,1.155,1.307,1.307,0,0,0,1.1.523h.074l.052-.052a.491.491,0,0,0,.139-.24l.131-.086v-.1c0-.128-.052-.344-.45-.877a3.365,3.365,0,0,1-.416-.669l.015-.008a1.617,1.617,0,0,1,.214.042,1.29,1.29,0,0,0,.739,0,.421.421,0,0,0,.39-.422.564.564,0,0,0-.359-.561,3.166,3.166,0,0,0-.638-.167,1.121,1.121,0,0,1-.528-.229.682.682,0,0,1-.182-.476,3.438,3.438,0,0,1,.4.042,3.95,3.95,0,0,0,.64.052c.532,0,.574-.363.574-.475a.852.852,0,0,0-.4-.763l-.044-.027h-.661a1.419,1.419,0,0,1-.355-.039c.126-.3.258-.645.4-1.034a.829.829,0,0,1,.886-.58" transform="translate(-78.235 -27.602)" fill="#fff"/>
      <path id="Path_10690" data-name="Path 10690" d="M202.034,65.491a5.77,5.77,0,0,0-1.272-.336,13,13,0,0,1-1.322-.272,1.306,1.306,0,0,1-.628-.329,10.684,10.684,0,0,0,1.106-.576,1.416,1.416,0,0,0,.828-1.219c0-.721-.446-.828-.711-.828-.409,0-.779.282-1.1.838a1.155,1.155,0,0,1-.946.656,4.918,4.918,0,0,0-.821-.794,4.387,4.387,0,0,0-.7-.758,4.963,4.963,0,0,0-.518-.393,1.784,1.784,0,0,1,.142-.411,2.217,2.217,0,0,1,.24-.442l.042-.05v-.065s.005-.031.066-.091l.052-.053,0-.141c.035-.193.126-.384.547-.346a.857.857,0,0,0,.68-.149.5.5,0,0,0,.157-.384c0-.272-.121-.73-.928-.73-.281,0-.843.035-1.719.109-.625.052-1.455.184-1.455.72a.768.768,0,0,0,.481.745,2.079,2.079,0,0,0,.58.171,1.282,1.282,0,0,1-.469.715c-.346.314-.736.635-1.16.955s-.824.626-1.185.909c-.411.321-.611.608-.611.88s.123.73.948.73a2.393,2.393,0,0,0,1.632-1.026,13.418,13.418,0,0,1,1.189-1.237c.476.033.908.449,1.284,1.236q.2.429.343.785a.5.5,0,0,0-.161-.111,3.754,3.754,0,0,0-.685-.188.753.753,0,0,0-.166-.526.975.975,0,0,0-.776-.276c-.422,0-.87.361-1.37,1.1a3.372,3.372,0,0,0-.721,1.657c0,.261.114.7.869.71-.391.345-.454.546-.454.689a.639.639,0,0,0,.711.691,2.788,2.788,0,0,0,2-1.011A3.007,3.007,0,0,0,197,65.007c0-.027,0-.054,0-.079a2.128,2.128,0,0,1,.077.513,6.61,6.61,0,0,1-.52,2.183c-.329.864-.8,1.284-1.449,1.284a1.16,1.16,0,0,1-.781-.283,1.555,1.555,0,0,0-1.032-.367h-.179v.179a1.445,1.445,0,0,0,1.081,1.4,4.744,4.744,0,0,0,1.561.376,1.859,1.859,0,0,0,1.368-.525,3.6,3.6,0,0,0,.789-1.234,8.607,8.607,0,0,0,.433-1.48q.122-.616.224-1.087a10.537,10.537,0,0,1,1.548.68,3.265,3.265,0,0,0,1.946.434.558.558,0,0,0,.612-.612.925.925,0,0,0-.643-.9m-7.07,0a2.147,2.147,0,0,1,.384-.826,2,2,0,0,1-.51,1.181,3.254,3.254,0,0,0,.126-.355" transform="translate(-100.064 -30.646)" fill="#fff"/>
      <path id="Path_10691" data-name="Path 10691" d="M191.925,55.679a.942.942,0,0,0-.6-.913.583.583,0,0,1-.386-.585,1.441,1.441,0,0,1,.488-1.055,3.915,3.915,0,0,1,1.282-.819,12.43,12.43,0,0,1,1.632-.534c.543-.137.994-.24,1.342-.306q.424.1,1.084.257a11.079,11.079,0,0,1,1.358.427,3.842,3.842,0,0,1,1.13.658,1.175,1.175,0,0,1,.431.939,1.291,1.291,0,0,1-1.059,1.278,6.6,6.6,0,0,1-1.975.376h-.179v.179c0,.252.1.685.8.75.438.04.723.06.874.06a3.69,3.69,0,0,0,1.906-.618,1.935,1.935,0,0,0,1.051-1.69,2.357,2.357,0,0,0-.53-1.637,4.6,4.6,0,0,0-1.22-.944,10.352,10.352,0,0,0-1.464-.652,7.113,7.113,0,0,1-1.248-.565,1.2,1.2,0,0,1-.577-.9c-.06-.384-.3-.841-1.132-.841-.119,0-.4.051-.4.514a.911.911,0,0,0,.391.7.674.674,0,0,1,.243.338c-.406.13-.914.272-1.514.424a13.411,13.411,0,0,0-1.947.649,5.009,5.009,0,0,0-1.6,1.063,2.511,2.511,0,0,0-.693,1.851,1.686,1.686,0,0,0,.759,1.314,3.092,3.092,0,0,0,1.352.679.367.367,0,0,0,.4-.4" transform="translate(-99.028 -25.378)" fill="#fff"/>
      <path id="Path_10692" data-name="Path 10692" d="M241.465,64.448c-1.34-.213-1.7-.435-1.792-.548l-.037-.045-.056-.014a8.7,8.7,0,0,1-3.02-1.259,4.858,4.858,0,0,1-1.383-2.784,1.984,1.984,0,0,0-.461-.787,1.229,1.229,0,0,1-.272-.4,6.8,6.8,0,0,1,.269-.71,3.825,3.825,0,0,0,.247-.762q.06-.259.17-.918c.117-.7-.272-.922-.521-.992a.891.891,0,0,0-.777.3,3.77,3.77,0,0,0-.871,1.458,4.981,4.981,0,0,1-.71,1.389c-.441.675-.906,1.318-1.38,1.907h0c-.465.579-1.008,1.189-1.617,1.812a1.52,1.52,0,0,1-.727.141.807.807,0,0,0-.852.623.877.877,0,0,0,.4,1.013,2.9,2.9,0,0,0,.886.453,1.761,1.761,0,0,0,1.319-.4,8.093,8.093,0,0,0,1.371-1.26c.448-.508.857-1.016,1.214-1.512.242-.337.441-.625.6-.869a8.488,8.488,0,0,0,2.177,3.864,11.4,11.4,0,0,0,4.958,2.091l.023.006h.024a2.712,2.712,0,0,0,1.936-.608.56.56,0,0,0,.184-.573c-.1-.3-.5-.485-1.3-.613" transform="translate(-119.008 -28.865)" fill="#fff"/>
      <path id="Path_10693" data-name="Path 10693" d="M290,65.227a1.393,1.393,0,0,0,1.038.54,12.1,12.1,0,0,0,1.5.22c.143,0,.475-.06.475-.612a1.065,1.065,0,0,0-.836-1.078,4.644,4.644,0,0,0-1.333-.224,2.449,2.449,0,0,0-.44.063.511.511,0,0,0-.427.515.673.673,0,0,0,.023.577" transform="translate(-151.569 -33.497)" fill="#fff"/>
      <path id="Path_10694" data-name="Path 10694" d="M275.8,53.715a11.529,11.529,0,0,0-.922-3.2,2.123,2.123,0,0,0-1.935-1.433c-.615,0-1.185.491-1.744,1.5a15.106,15.106,0,0,0-1.287,3.191,32.043,32.043,0,0,0-.783,3.518,18.172,18.172,0,0,0-.287,2.492,4.989,4.989,0,0,0,.224,1.452,1.076,1.076,0,0,0,1.1.836h.179v-.179a1.388,1.388,0,0,0-.275-1.039c-.059-.053-.158-.21-.158-.656a15.776,15.776,0,0,1,.283-2.127,30.782,30.782,0,0,1,.774-3.291,14.515,14.515,0,0,1,1.178-2.92c.4-.73.829-1.124,1.274-1.173a6.566,6.566,0,0,1,.855,2.6,23.736,23.736,0,0,1,.205,2.993c0,.23-.577.255-.826.255h-.966a2,2,0,0,1-.5-.138,2.061,2.061,0,0,0-.64-.157.549.549,0,0,0-.593.612,1.051,1.051,0,0,0,.752,1.076,3.823,3.823,0,0,0,1.241.227,4.013,4.013,0,0,0,.9-.143c.23-.056.382-.089.481-.108.009.312.034.806.076,1.473.053.857.078,1.359.078,1.535s-.025.631-.078,1.387A11.735,11.735,0,0,1,274.182,64c0,.178-.02.45-.058.808-.029.275-.17.392-.472.392a1.5,1.5,0,0,1-.634-.121l-.254-.119v.6c0,.264.257.513.81.782a2.1,2.1,0,0,0,.87.26.719.719,0,0,0,.314-.067,2.281,2.281,0,0,0,.771-1.3,12.868,12.868,0,0,0,.41-2.129c.091-.783.164-1.515.217-2.175s.079-1.135.079-1.443c0-.451-.027-1.226-.079-2.3a34.519,34.519,0,0,0-.356-3.467" transform="translate(-140.549 -25.658)" fill="#fff"/>
      <path id="Path_10695" data-name="Path 10695" d="M291.146,59.913a6.463,6.463,0,0,0,1.584.272c.143,0,.474-.056.474-.573,0-.457-.2-1.03-1.13-1.162a12.6,12.6,0,0,1-1.525-.291l-.069-.019-.063.034a.652.652,0,0,0-.39.591c0,.562.376.948,1.118,1.149" transform="translate(-151.626 -30.395)" fill="#fff"/>
      <path id="Path_10696" data-name="Path 10696" d="M276.691,60.371c.309,0,.494-.163.494-.435a1.176,1.176,0,0,0-.834-1.152,3.551,3.551,0,0,0-1.2-.288c-.893,0-1.026.458-1.026.731,0,.478.4.8,1.2.944a10.06,10.06,0,0,0,1.363.2" transform="translate(-143.313 -30.582)" fill="#fff"/>
      <path id="Path_10697" data-name="Path 10697" d="M293.263,52.435a9.1,9.1,0,0,0-1-2.5,2.241,2.241,0,0,0-2.045-1.141,2.167,2.167,0,0,0-1.839.83,4.658,4.658,0,0,0-.82,1.884,11.414,11.414,0,0,0-.22,2.293v3.035a11.241,11.241,0,0,0,.22,2.134,9.835,9.835,0,0,0,.593,2c.272.634.629.955,1.061.955.079,0,.337-.031.337-.435,0-.459-.3-.494-.387-.494s-.16-.1-.2-.171a6.755,6.755,0,0,1-.548-1.91,16.5,16.5,0,0,1-.126-2.1c0-.168.023-.632.069-1.379a21.947,21.947,0,0,1,.283-2.375,7.809,7.809,0,0,1,.693-2.187c.376-.744.717-.718.966-.625.781.168,1.245.787,1.418,1.893a18.792,18.792,0,0,1,.274,2.584V61.17a4.069,4.069,0,0,1-.328,1.746c-.195.406-.624.562-1.305.481l-.1-.012-.283.333.108.116a1.859,1.859,0,0,0,1,.467,5.336,5.336,0,0,0,.944.142,1.3,1.3,0,0,0,1.3-1.126,6.663,6.663,0,0,0,.283-1.714c0-.2.027-.88.079-2.032.054-1.2.079-1.844.079-2.028,0-.488-.025-1.21-.079-2.207a15.68,15.68,0,0,0-.429-2.9" transform="translate(-150.222 -25.508)" fill="#fff"/>
      <path id="Path_10698" data-name="Path 10698" d="M315.884,63.092c0-.394.017-1.045.05-1.935s.048-1.463.049-1.785a3.871,3.871,0,0,0,.344-2.252,2.536,2.536,0,0,1,.589-2.043l.047-.066a2.694,2.694,0,0,0,.521-.1h.822c.86-.091,1.653-.154,2.355-.187s1.5-.049,2.356-.049h.179V54.5c0-.913-.427-1.214-.785-1.307a5.206,5.206,0,0,0-1.286-.173c-.644,0-1.268.02-1.855.06-.519.035-1.065.054-1.624.058a2.162,2.162,0,0,1,.32-.919,2.412,2.412,0,0,0,.381-1.266v-.179h-.179a1.668,1.668,0,0,0-1.57,1.046,7.638,7.638,0,0,1-.977,1.536h-.863a2.9,2.9,0,0,1-.4-.047,3.333,3.333,0,0,0-.432-.051c-.567,0-.652.26-.652.415a1.105,1.105,0,0,0,.69,1.027,7.561,7.561,0,0,0,.947.4v.106a18.76,18.76,0,0,1-.342,3.436,19.648,19.648,0,0,0-.348,3.62c0,.648.04,1.452.118,2.39a1.489,1.489,0,0,0,1.578,1.573.5.5,0,0,0,.554-.534,3.6,3.6,0,0,0-.309-1.369,3.25,3.25,0,0,1-.282-1.232" transform="translate(-163.781 -26.544)" fill="#fff"/>
      <path id="Path_10699" data-name="Path 10699" d="M328.305,69.382a11.743,11.743,0,0,0-1.671-.12h-.375a1.879,1.879,0,0,1-.464-.042,1.517,1.517,0,0,0-.279-.049,2.712,2.712,0,0,1,.429-1.395,3.1,3.1,0,0,0,.492-1.745,2.388,2.388,0,0,0-.885-1.973,3.489,3.489,0,0,0-2.23-.69,3.225,3.225,0,0,0-1.7.753c-.727.521-1.08.991-1.08,1.437a.551.551,0,0,0,.316.517.494.494,0,0,0-.434.547,1.836,1.836,0,0,0,1.031,1.561c.571.351.861.741.861,1.159,0,.24-.2.461-.6.658a2.586,2.586,0,0,1-.995.326h-.179v.179a.9.9,0,0,0,.537.945,2.547,2.547,0,0,0,.942.18,1.478,1.478,0,0,0,1.27-.668,1.029,1.029,0,0,1,.859-.515,1.761,1.761,0,0,1,.765.231c.631.155,1.154.275,1.554.356a8.3,8.3,0,0,0,1.582.121h.71l.051-.007c.211-.062.464-.245.464-.763,0-.395-.168-.889-.972-1m-5.381-3.822a1.441,1.441,0,0,1,1.109-.532c.124,0,.413,0,.413.649a5.9,5.9,0,0,1-.356,1.531c-.231.708-.4.91-.482.967l-1.934-1.835a.683.683,0,0,0-.264-.125l-.012-.009c.054,0,.111,0,.172,0a1.784,1.784,0,0,0,1.355-.65" transform="translate(-167.517 -33.129)" fill="#fff"/>
      <path id="Path_10700" data-name="Path 10700" d="M420.85,62.29a6.017,6.017,0,0,0-2.226-.737.629.629,0,0,0-.691.691v.338l.038.049a5.788,5.788,0,0,0,1.739,1.347,4.309,4.309,0,0,0,1.91.673c.722,0,.829-.445.829-.711,0-.593-.523-1.132-1.6-1.649" transform="translate(-218.494 -32.18)" fill="#fff"/>
      <path id="Path_10701" data-name="Path 10701" d="M412.208,59.089a12.769,12.769,0,0,1,.321-2.828,13.153,13.153,0,0,0,.329-2.908,2.648,2.648,0,0,0-.137-.824.769.769,0,0,0-.83-.518c-.427,0-.742.3-.939.9a10.433,10.433,0,0,0-.4,1.785c-.092.646-.158,1.308-.2,1.965h0c-.04.66-.059,1.067-.059,1.243v1.508a18.553,18.553,0,0,0,.2,2.627,10.8,10.8,0,0,0,.592,2.386c.268.679.653.875,1.007.875a1.174,1.174,0,0,0,.384-.07.675.675,0,0,0,.522-.684,9.614,9.614,0,0,0-.4-2.791,9.187,9.187,0,0,1-.387-2.668" transform="translate(-214.5 -27.192)" fill="#fff"/>
      <path id="Path_10702" data-name="Path 10702" d="M395,53.393a1.475,1.475,0,0,0-1.093.348c.012-.015.025-.03.037-.042.164-.164.378-.356.637-.57a1.1,1.1,0,0,0,.46-.858c0-.944-.606-1.085-.967-1.085a1.888,1.888,0,0,0-1.3.778,6.94,6.94,0,0,0-1.133,1.739,18.879,18.879,0,0,0-.786,1.97,5.259,5.259,0,0,0-.334,1.426,2.659,2.659,0,0,0,.137.824c.076.237.3.518.949.518.191,0,.338-.2.56-.764q.256-.649.58-1.425l.65-1.557a6.1,6.1,0,0,1,.347-.72l.057.088a2.137,2.137,0,0,0,1.067.991q.45.128.841.254a1.019,1.019,0,0,1,.542.62,6.512,6.512,0,0,1,.241,2.2v.614l-.026.06a2.683,2.683,0,0,1-.993-1.193,1.625,1.625,0,0,0-1.522-1.079h-.5l-.189.35-.021.085a2.9,2.9,0,0,0,1.372,2.282,4.9,4.9,0,0,1,1.22,1.085,3.189,3.189,0,0,1-2.111,1.917,17.359,17.359,0,0,1-3.16.253h-.179v.455c0,.522.439.908,1.3,1.148a7.5,7.5,0,0,0,1.615.332,4.876,4.876,0,0,0,3.772-1.885,5.946,5.946,0,0,0,1.611-3.891,8.29,8.29,0,0,0-.795-3.465,2.944,2.944,0,0,0-2.893-1.8" transform="translate(-204.092 -26.76)" fill="#fff"/>
      <path id="Path_10703" data-name="Path 10703" d="M435.344,57.241h.253v-.165l.075.109a3.2,3.2,0,0,1,.422-.191,10.293,10.293,0,0,1,1.021-.25,8.592,8.592,0,0,0,1.062-.272c.157,0,.464-.021.933-.056a.92.92,0,0,0-.188.3,6.44,6.44,0,0,0-.285.922,4.4,4.4,0,0,0-.123,1v.532a5.392,5.392,0,0,0,.121.882,1.505,1.505,0,0,0,.5.956l.048.036h.06a.12.12,0,0,1,.09.046l.366.208.294-.252V59.773a9.47,9.47,0,0,0,1.287-.539c1.059-.5,1.276-.74,1.276-.95a.793.793,0,0,0-.3-.722l-.044-.028h-.052a4.505,4.505,0,0,0-2.166.557v-.644a2.571,2.571,0,0,0-.213-1.089c.33-.034.667-.075,1.005-.124.554-.079,1.06-.173,1.5-.279.529-.126.8-.351.8-.667a.656.656,0,0,0-.711-.731,5.548,5.548,0,0,0-1.274.162,5.531,5.531,0,0,1-1.11.15,11.876,11.876,0,0,0-.069-1.288,2.916,2.916,0,0,1,.172-1.235l.051-.112h.91a2.06,2.06,0,0,0,.7-.129c.366-.134.443-.347.443-.5a1.025,1.025,0,0,0-.283-.786,1.081,1.081,0,0,0-.845-.23,2.183,2.183,0,0,1-.744-.019V49.376c0-.22-.168-.408-.5-.557a1.784,1.784,0,0,0-.684-.193h-.179V49.76a4.208,4.208,0,0,1-.1.806,2.939,2.939,0,0,1-1.066.188H436.63l-.052.052a.8.8,0,0,0-.17.579.907.907,0,0,0,.248.692.93.93,0,0,0,.721.206,3.118,3.118,0,0,1,1.141.115c0,.256.02.666.048,1.223.03.59.046,1.011.049,1.252a.926.926,0,0,1-.449.178,4.846,4.846,0,0,1-.611.061q-1.009.218-1.463.326a7.214,7.214,0,0,0-1.25.472.51.51,0,0,0-.346.481.766.766,0,0,0,.849.849" transform="translate(-227.153 -25.421)" fill="#fff"/>
      <path id="Path_10704" data-name="Path 10704" d="M448.075,73.141a26.958,26.958,0,0,0-2.748-.328c-1.007-.072-1.987-.128-2.912-.167a8.783,8.783,0,0,1-1.815-.2,13.7,13.7,0,0,1-2.084-.632c-1.152-.413-1.541-.756-1.656-.984.025-.08.113-.316.419-1a4.311,4.311,0,0,0,.459-1.639,3.989,3.989,0,0,0-.052-.589c-.027-.178-.152-.477-.679-.477-.167,0-.514,0-.514.238a14.527,14.527,0,0,1-.311,1.791,2.864,2.864,0,0,1-.867,1.461q-.232.193-.553.426a1.269,1.269,0,0,0-.489.643l-.029.093.062.075a.582.582,0,0,0,.473.183,1.385,1.385,0,0,0,.711-.192A.987.987,0,0,1,436,71.7c.178,0,.575.139,1.449.8a7.322,7.322,0,0,0,1.835,1.1,27.124,27.124,0,0,0,4.554.794c1.595.144,3.161.218,4.657.218.629,0,.948-.179.948-.534,0-.7-1.031-.884-1.37-.944" transform="translate(-227.022 -35.094)" fill="#fff"/>
      <path id="Path_10705" data-name="Path 10705" d="M476.644,57.241h.253v-.165l.075.109a3.242,3.242,0,0,1,.422-.191,10.2,10.2,0,0,1,1.021-.25,8.589,8.589,0,0,0,1.062-.272c.158,0,.464-.021.933-.056a.92.92,0,0,0-.188.3,6.436,6.436,0,0,0-.285.922,4.4,4.4,0,0,0-.123,1v.532a5.392,5.392,0,0,0,.121.882,1.506,1.506,0,0,0,.5.956l.048.036h.06a.122.122,0,0,1,.091.046L481,61.3l.294-.252V59.773a9.468,9.468,0,0,0,1.287-.539c1.059-.5,1.276-.74,1.276-.95a.794.794,0,0,0-.3-.722l-.044-.028h-.052a4.506,4.506,0,0,0-2.167.557v-.644a2.565,2.565,0,0,0-.213-1.089c.33-.034.667-.075,1.005-.124.554-.079,1.06-.173,1.5-.279.53-.126.8-.351.8-.667a.656.656,0,0,0-.711-.731,5.549,5.549,0,0,0-1.274.162,5.535,5.535,0,0,1-1.11.15,11.792,11.792,0,0,0-.069-1.288,2.916,2.916,0,0,1,.173-1.235l.05-.112h.91a2.051,2.051,0,0,0,.7-.129c.366-.134.443-.347.443-.5a1.025,1.025,0,0,0-.283-.786,1.082,1.082,0,0,0-.845-.23,2.182,2.182,0,0,1-.744-.019V49.376c0-.22-.168-.408-.5-.557a1.784,1.784,0,0,0-.684-.193h-.179V49.76a4.215,4.215,0,0,1-.095.806,2.946,2.946,0,0,1-1.067.188H477.93l-.052.052a.8.8,0,0,0-.17.579.907.907,0,0,0,.248.692.927.927,0,0,0,.72.206,3.111,3.111,0,0,1,1.141.115c0,.255.02.666.048,1.223.03.59.046,1.011.049,1.252a.922.922,0,0,1-.449.178,4.828,4.828,0,0,1-.611.061q-1.009.218-1.463.326a7.214,7.214,0,0,0-1.25.472.51.51,0,0,0-.346.481.766.766,0,0,0,.849.849" transform="translate(-248.744 -25.421)" fill="#fff"/>
      <path id="Path_10706" data-name="Path 10706" d="M489.376,73.141a26.87,26.87,0,0,0-2.748-.328c-1.007-.072-1.987-.128-2.912-.167a8.783,8.783,0,0,1-1.815-.2,13.746,13.746,0,0,1-2.083-.632c-1.152-.413-1.542-.756-1.657-.984.025-.08.113-.316.419-1a4.3,4.3,0,0,0,.459-1.639,3.975,3.975,0,0,0-.052-.589c-.027-.178-.152-.477-.679-.477-.167,0-.514,0-.513.239a14.417,14.417,0,0,1-.311,1.79,2.864,2.864,0,0,1-.867,1.462q-.233.193-.553.426a1.269,1.269,0,0,0-.49.644l-.028.092.061.075a.58.58,0,0,0,.473.183,1.385,1.385,0,0,0,.712-.192.986.986,0,0,1,.511-.143c.178,0,.575.139,1.449.8a7.323,7.323,0,0,0,1.836,1.1,27.126,27.126,0,0,0,4.553.794c1.595.144,3.161.218,4.657.218.629,0,.948-.179.948-.534,0-.7-1.03-.884-1.369-.944" transform="translate(-248.614 -35.094)" fill="#fff"/>
      <path id="Path_10707" data-name="Path 10707" d="M367.358,51.2a5.4,5.4,0,0,0,.694.008,5.143,5.143,0,0,1,.541,0l.178.018.018-.178a1.323,1.323,0,0,0-.846-1.371,4.469,4.469,0,0,0-1.513-.5.383.383,0,0,0-.336.125.592.592,0,0,0-.126.342,1.262,1.262,0,0,0,.466,1.033,1.635,1.635,0,0,0,.926.524" transform="translate(-191.324 -25.707)" fill="#fff"/>
      <path id="Path_10708" data-name="Path 10708" d="M361.69,55.364a7.088,7.088,0,0,0-2.6-.758c-.987.03-1.842.069-2.542.118a18.821,18.821,0,0,0-2.478.367l-.028.009c-.086.033-.349.135-.372.362a.615.615,0,0,0,.521.73,6.627,6.627,0,0,0,.679.116,8.712,8.712,0,0,0,2.531-.09,7.853,7.853,0,0,1,2.3-.1,3.307,3.307,0,0,1,1.2.333.8.8,0,0,1,.365.882,1.859,1.859,0,0,1-1.071,1.531,7.336,7.336,0,0,1-2.434.746,16.531,16.531,0,0,1-2.823.156c-.932-.03-1.641-.068-2.082-.123a1.919,1.919,0,0,1,.709-1.272,2.291,2.291,0,0,0,.828-1.506.48.48,0,0,0-.123-.4.612.612,0,0,0-.4-.165,1.559,1.559,0,0,0-1.437.845A9.786,9.786,0,0,0,351.4,59.2a34.994,34.994,0,0,0-1.068,3.581,29.477,29.477,0,0,1-1.32,4.2,4.128,4.128,0,0,1-1.349,1.919l-.183.122.156.155a1.048,1.048,0,0,0,.747.278,1.392,1.392,0,0,0,.562-.118,2.41,2.41,0,0,0,.9-.808,11.776,11.776,0,0,0,1.836-4.505,22.621,22.621,0,0,1,.674-2.342,5.9,5.9,0,0,0,.307-1.225,1.328,1.328,0,0,1,.443.228,3.546,3.546,0,0,0,.732.436l.053.014c.749.075,1.625.121,2.6.139a11.7,11.7,0,0,0,2.844-.286,5.782,5.782,0,0,0,2.331-1.085,3.218,3.218,0,0,0,1.137-2.3,2.072,2.072,0,0,0-1.112-2.243" transform="translate(-181.661 -28.548)" fill="#fff"/>
    </g>
  </g>
</svg>
