<svg xmlns="http://www.w3.org/2000/svg" xmlns:xlink="http://www.w3.org/1999/xlink" width="173.074" height="71.568" viewBox="0 0 173.074 71.568">
  <defs>
    <clipPath id="clip-path">
      <rect id="Rectangle_357" data-name="Rectangle 357" width="171.903" height="68.578" fill="#6fc4de"/>
    </clipPath>
  </defs>
  <g id="Group_1645" data-name="Group 1645" transform="matrix(1, 0.017, -0.017, 1, 1.197, 0)" clip-path="url(#clip-path)">
    <path id="Path_33189" data-name="Path 33189" d="M.907,0C.6.162.3.327,0,.506A5.47,5.47,0,0,0,.907,0" transform="translate(10.988 15.789)" fill="#6fc4de"/>
    <path id="Path_33190" data-name="Path 33190" d="M.236.066,0,0A1.886,1.886,0,0,0,.236.066" transform="translate(149.19 5.568)" fill="#6fc4de"/>
    <path id="Path_33191" data-name="Path 33191" d="M.2.316.168.264,0,0C.069.105.13.216.2.316" transform="translate(3.57 56.15)" fill="#6fc4de"/>
    <path id="Path_33192" data-name="Path 33192" d="M23.007,8.926c-1.663.606-3.18,1.136-4.563,1.694-1.389.533-2.664,1.042-3.861,1.578a28.353,28.353,0,0,0-6.4,3.761,17.633,17.633,0,0,0-2.721,2.729,18,18,0,0,0-2.24,3.683A35.617,35.617,0,0,0,.63,32.652a54.637,54.637,0,0,0-.47,12.163,30.99,30.99,0,0,0,1.126,6.1,22.193,22.193,0,0,0,2.453,5.5,22.33,22.33,0,0,0,4.706,4.963,20.106,20.106,0,0,0,6.185,3.12l1.42.587,4.156.9L20.117,66c1.969.252,4.171.538,5.144.562l-.084.03c.792.069,1.583.114,2.373.162l-.41.024c3.409.11,6.869.257,9.941.467l-.248-.165c6.552.5,8.963.3,14.88.764l-.082.034c7.5-.089,11.833.751,19.568.553-.964.026.411.088.333.123,3.559.038,7.361.059,7.419-.243,2.593.027,2.11.112,2.448.231a25.958,25.958,0,0,1,4.263-.182l-.932.049,5.8-.069L89.39,68.1c3.076.047.784.3,3.73.2l-.04-.2c4.252-.021,6.762.191,10.869.244,8.541-.147,17.439-.366,26.166-1.267,4.364-.43,8.676-1.1,12.868-1.939l3.118-.686c1.03-.246,2.044-.545,3.056-.808.5-.139,1.011-.261,1.51-.411l1.482-.485,1.471-.478c.488-.157.977-.3,1.45-.506l.713-.135a10.637,10.637,0,0,0,2.253-1.007,18.63,18.63,0,0,1,2.4-1.271l1.671-.974c.479-.252,1.476-.822.673-.266,1.532-.942,1.554-1,2.621-1.741a9.277,9.277,0,0,0,.874-.549c.273-.225.57-.427.824-.682a13.593,13.593,0,0,0,2.964-4.949,27.9,27.9,0,0,0,1.305-5.4,66.747,66.747,0,0,0,.49-11.41c-.01-1.225-.053-2.57-.15-4.035a40.578,40.578,0,0,0-.574-4.676,27.8,27.8,0,0,0-1.383-4.981,19.881,19.881,0,0,0-2.555-4.71,25.29,25.29,0,0,0-7.539-6.515A41.282,41.282,0,0,0,152.169,4.9a69.625,69.625,0,0,0-9.922-2.68A105.382,105.382,0,0,0,131.73.766c-3.547-.322-7.1-.509-10.6-.629S114.179-.038,110.842.03a9.206,9.206,0,0,0-.941,0,3.916,3.916,0,0,0-.609.049Q103.187.03,97.079.137s-3.7.054-8.549.288-10.836.657-15.407,1.185S65.4,2.682,66.195,2.838a32.761,32.761,0,0,0,4.463-.013c2.684-.089,6.671-.243,12.279-.348l-.3.067c6.657-.274,10.847-.362,15.438-.7.73.283,5.474-.044,7.035.056l-.148.025c4.067-.243,8.371.231,12.293.106a3.615,3.615,0,0,1-1.139.087,57.666,57.666,0,0,1,6.97.247c3.408.08,7.478.265,11.222.6s7.159.828,9.306,1.161l-.3-.012a38.426,38.426,0,0,1,5.821,1.377,2.331,2.331,0,0,1,.29.145,29.27,29.27,0,0,1,4.93,1.819c.436.207.876.393,1.287.609l1.182.629c.759.378,1.389.786,1.876,1.053l.074.178a27.72,27.72,0,0,1,4.442,3.225c-.506-.468-1.029-.917-1.571-1.34a7.524,7.524,0,0,1,2.192,1.829,26.186,26.186,0,0,1,3.27,4.283,30.525,30.525,0,0,1,2.363,5.5,24.292,24.292,0,0,1,1.123,6.227c.279,2.028-.339-1.776-.028,1.263-.139.111-.186-1.416-.252-.621.134,1.492.151,2.723.149,4.036s-.026,2.707-.045,4.55l-.121.144a31.393,31.393,0,0,1-.7,6.618,33.5,33.5,0,0,1-1.54,5.085,9.535,9.535,0,0,1-1.247,2.134c-.177.216-.34.38-.481.533s-.293.259-.43.381c-.285.23-.572.461-1.015.771-.461.315-1.15.734-2.107,1.412-.542.263-1.073.549-1.621.792-1.777.878-1.186.845-3.18,1.772.1-.119-2.581,1-1.428.413a64.939,64.939,0,0,1-15.817,4.625,26.559,26.559,0,0,1-2.934.664c-1.112.171-2.182.323-2.695.476-.176-.013-6.512.716-2.879.131a3.278,3.278,0,0,1,.831-.063l.425-.173c-3.7.159-6.678.81-10.346.972,1.088-.016,2.531-.115,1.57.032l-3.4.172.7-.148c-1.689.087-3.384.107-5.076.16l.7.106a53.858,53.858,0,0,0-6.17.079c-1.269.134,2.362.127-.266.229-3.326-.017-8.332-.05-12.585.03.4.14-.742.164-1.917.225l-.138-.127c-4.5.271-1.656-.249-6.124-.041l.393-.095-1.179.282c-4.035.289-2.177-.252-6.661.1,1.773-.023.835.3-1.349.224l.554-.121c-1.209.016-1.613.066-2.417.032.72-.061.382-.18-1.395-.174l1.192-.147-3.361.19c-2.591-.168-6.7-.1-7.765-.3l-2.947-.1c-1.554-.042-3.268-.077-3.91,0,1.123-.084-1.949-.232-1.07-.345a61.1,61.1,0,0,1-7.422-.188l.324,0c-6.312-.417-10.811-.285-16.474-.751.252.165-2.739-.07-2.007.162-2.935-.059-5.615-.279-7.8-.472a27.566,27.566,0,0,0-4.962-.231,23.608,23.608,0,0,1-4.391-.992c.2.047.409.082.616.113A26.781,26.781,0,0,1,13.189,61.8l-.957-.448c-.314-.154-.614-.342-.933-.517l-.485-.276c-.163-.1-.32-.216-.487-.328-.326-.237-.7-.449-1.051-.751-.365-.283-.664-.492-.946-.682s-.514-.408-.8-.636l-.451-.383c-.159-.146-.312-.331-.494-.531l-.594-.691c-.207-.273-.415-.6-.658-.96.725.846-.144-.264-.757-1.427.215.358.361.587.354.535A1.991,1.991,0,0,0,4.8,54.4c-.089-.185-.238-.449-.4-.854-.13-.2-.307-.531-.472-.842,0-.016-.021-.084,0-.055l-.616-1.493c-.013-.022,0,.054.043.2l.213.586c-.033-.041-.019.048.072.359a32,32,0,0,1-1.128-4,11.36,11.36,0,0,1-.326-2.638,49.8,49.8,0,0,1-.146-9.235,61.476,61.476,0,0,1,1.1-8.352c.235-.6-.02.717-.275,2.37a38.972,38.972,0,0,1,.858-3.961,5.593,5.593,0,0,1-.255,1.307c-.17.709-.356,1.576-.455,2.2a35.867,35.867,0,0,1,2.142-7.028A13.912,13.912,0,0,1,9.9,17.174c.265-.25.542-.486.818-.725l.266-.155a7.889,7.889,0,0,1,1.571-1.14,2.221,2.221,0,0,1,.573-.108,14.494,14.494,0,0,0,1.765-.793c.936-.376,2.245-.976,3.656-1.564l2.118-.915,2-.807c-1.352.478-.937.253-.369,0,1.2-.46,1.938-.568,2.862-.938l.158.119c-.258.008.522-.308,1.427-.636.908-.313,1.936-.652,2.155-.754.725-.1-1.875.689-2.157.873,2.45-.766,3.062-.962,3.68-1.128l1.155-.327c.539-.155,1.308-.377,2.55-.683,2.626-.788-.511-.032.729-.492a66.485,66.485,0,0,1,7.357-1.621l-.881.019A63.252,63.252,0,0,1,51.518,3.987C59.877,2.92,64.561,2.873,66.811,2.721s2.091-.3.879-.484c-1.221-.16-3.508-.328-5.492-.359-.991-.039-1.906-.019-2.573-.017l-1.087.011a90.074,90.074,0,0,0-9.05.579c-1.385.136-2.721.357-4.049.545-1.325.216-2.637.452-3.965.711A130.594,130.594,0,0,0,23.007,8.926" transform="translate(0 0)" fill="#6fc4de"/>
  </g>
</svg>
