<svg xmlns="http://www.w3.org/2000/svg" xmlns:xlink="http://www.w3.org/1999/xlink" width="26.532" height="28.316" viewBox="0 0 26.532 28.316">
  <defs>
    <clipPath id="clip-path">
      <rect id="Rectangle_195" data-name="Rectangle 195" width="26.532" height="28.316" fill="#6fc4de"/>
    </clipPath>
  </defs>
  <g id="Group_1116" data-name="Group 1116" transform="translate(0 0)">
    <g id="Group_1115" data-name="Group 1115" transform="translate(0 0)" clip-path="url(#clip-path)">
      <path id="Path_10729" data-name="Path 10729" d="M10.169,5.189l-.012.131a.1.1,0,0,0,.012-.131" transform="translate(-4.79 -2.447)" fill="#6fc4de"/>
      <path id="Path_10730" data-name="Path 10730" d="M37.594,10.067a.284.284,0,0,0,0-.03c-.005.016,0,.024,0,.03" transform="translate(-17.728 -4.733)" fill="#6fc4de"/>
      <path id="Path_10731" data-name="Path 10731" d="M10,14.209l0,0c-.012,0-.022,0-.033,0Z" transform="translate(-4.697 -6.698)" fill="#6fc4de"/>
      <path id="Path_10732" data-name="Path 10732" d="M2.458,3.7c.71,1.031.59,1.56,1.55,2.443A13.521,13.521,0,0,0,5.3,7.508c.44.006.509.606.941.687l-.062.222c.148.029.286.092.282.248l-.048.03c.222.042.282.248.393.269l-.048.03.154.147-.084.023a1.269,1.269,0,0,1,.641.627l.163-.164c.179.618.683.479.788,1.084l-.048.03c.9.131.361,1.083,1.248,1.249-.111-.021-.068.1-.115.134.255.2.5.444.85.16.144.183.012.236-.1.371.152-.127.343-.025.47.108l-.113-.016.534.534c.045-.137.1-.272.149-.4.176.369-.229.441.094.651l.171-.27c.306.4.37,1.011.863,1.416l.05.038a2.3,2.3,0,0,0,1.828-.225,5.016,5.016,0,0,0,1.44-1.313,4.558,4.558,0,0,1,1.677-1.561l.21.118c.262.219-.081-.634.181-.452l.006-.227c.076.009.192-.015.188.1.117-.1.08-.142.085-.293l.266.031c.543-.317.615-.971,1.122-1.367.845-.244,1.577-1.55,2-2.3.459-1.189,2.377-1.208,2.8-2.468.062.006.055-.142.027-.169l.8-.747S28.92.141,24.082,1.038L24.048.967c-.549.3-.842.542-.867,1.1-.371-.274-.379.318-.583.314l-.017-.035c-.006.507-.737.332-.76.8-.016-.035-.1-.129-.049-.192-.139.224-.313.545-.516.372-.381.486-1.07,1.01-1.044,1.587l-.034-.071c.047.36-.173.236-.245.517-.034-.015-.06-.014-.068-.027.03.373-.468.538-.521.764l-.135-.115-.312.375.154-.1c.3.386-.474.048-.5.52-.275.192.249,1.185-.161,1.262.047.276-.162-.362-.209-.065-.185-.172-.033-.193-.221-.29-.083.255-.46.1-.546.429l-.149-.13c-.014.528-.7.337-.631.76-.163.4-.6-.221-.62.345l-.3-.072c-.155.1.144.32-.086.369-.111-.127-.27.083-.3-.111-.5.132-.368.905-1.1,1.01.143.32-.2.394-.094.634-.113-.089-.431.4-.419-.048,0-.038.041-.07.078-.029l-.11-.164a.318.318,0,0,0-.257.085c-.036.038-.03.042-.021.054l.029.052c.046.079.094.213.05.213.048.044.066,0,.121.136l-.08.035-.061-.166a.311.311,0,0,1-.106-.044l.073.207c-.094-.073-.142-.467-.144-.125-.019.2.086.3.021.392a.861.861,0,0,1-.162-.345c-.016-.071-.022-.132-.029-.169-.087.243-.1.219-.145.244l.091-.2c-.2.192.217-.415.071-.248l.089-.108c-.087.11-.179.215-.275.315-.16.114-.1.021-.045-.041.022-.04.067-.044.03-.08s-.115-.05-.282-.042c.127.1-.287.336-.346.129l.178-.083c-.1-.058-.185-.035-.2-.116.12-.016.235-.151.108-.253l.252-.07-.462-.008c.008-.31-.425-.431-.28-.676,0,0-.219-.47-.519-.371.205-.039.082-.3.3-.373-.242.032-.617-.155-.546-.414l.038.007c-.19-.581-.858-.552-.973-1.119-.161.164-.237-.123-.42.115-.56-.221-.156-1.12-.974-.689-.191-.154-.018-.355-.062-.48l.073.014a3.211,3.211,0,0,1-.631-.665c-.174-.072-.515.176-.627-.118.19-.032.088-.107.017-.192.066.038.127.016.12-.169a.282.282,0,0,1-.137.006c.01-.009.013-.02.029-.029-.164-.106-.184-.048-.146.033a.163.163,0,0,0-.061.09c.042-.287-.356-.406-.15-.608a10.53,10.53,0,0,0-1.278-.8.279.279,0,0,1,.381-.067l-.253-.22c.165-.133.216.069.313.12.013-.523-.783-.407-.836-.964l-.191.033,0-.039a.329.329,0,0,1-.293.021c.1-.169.331-.269.176-.438.022-.253-.4-.339-.626-.458.058.118-.048.152-.133.152-.078-.085.022-.253-.1-.271l.185-.168c-.153.185-.387-.068-.492-.035.1-.168.236.035.361-.032l-.467-.508c-.3-.068-.153.185-.4.235C3.413,1.235,3.144,1.185,3.1.9l-.12.2a.776.776,0,0,1-.529-.76C-.87-.837.146,1.424.146,1.424.53,2.654,1.419,2.714,2.458,3.7" transform="translate(0 0)" fill="#6fc4de"/>
      <path id="Path_10733" data-name="Path 10733" d="M11.672,33.108l-.012.123a.092.092,0,0,0,.012-.123" transform="translate(-5.499 -15.614)" fill="#6fc4de"/>
      <path id="Path_10734" data-name="Path 10734" d="M36.853,37.542a.17.17,0,0,0,0-.029c-.005.015,0,.023,0,.029" transform="translate(-17.379 -17.691)" fill="#6fc4de"/>
      <path id="Path_10735" data-name="Path 10735" d="M11.437,41.558l0,0c-.012,0-.02,0-.031,0Z" transform="translate(-5.378 -19.597)" fill="#6fc4de"/>
      <path id="Path_10736" data-name="Path 10736" d="M4.354,32.419c.666.889.548,1.4,1.453,2.122A10.647,10.647,0,0,0,7.02,35.688c.418-.04.479.514.889.544l-.061.214c.141.011.271.057.266.2l-.045.033c.211.016.266.2.37.21l-.045.033.145.122-.08.03a1.012,1.012,0,0,1,.6.52l.155-.171c.165.559.646.377.741.932l-.045.033c.851.029.334.974,1.175,1.037-.1-.008-.065.1-.11.137.24.164.47.364.806.061.135.156.01.22-.1.358a.253.253,0,0,1,.232-.067.4.4,0,0,1,.114.044,1.122,1.122,0,0,1,.139.117l-.132-.03.527.473q.061-.209.133-.407c.165.336-.206.454.088.626l.155-.285c.287.371.313,1.028.737,1.445a1.712,1.712,0,0,0,1.539-.073,4.788,4.788,0,0,0,1.267-1.148l.484-.539a4.484,4.484,0,0,1,.359-.363,2.548,2.548,0,0,1,.857-.521l.2.134c.248.234-.082-.607.166-.408l0-.214c.072.017.18.006.178.112.109-.082.075-.126.077-.268l.251.057c.508-.243.57-.853,1.043-1.174.793-.142,1.469-1.3,1.858-1.967.422-1.075,2.225-.892,2.616-2.037.058.012.051-.128.024-.156l.749-.621s3.563-3.087-.979-2.746l-.032-.07c-.514.226-.788.423-.806.946-.351-.3-.354.26-.546.235l-.016-.035c0,.478-.69.236-.708.68-.016-.035-.1-.132-.048-.186-.129.2-.29.481-.482.3-.354.419-1,.842-.968,1.39l-.032-.071c.046.346-.161.206-.227.463-.033-.017-.056-.02-.064-.033.032.355-.436.459-.483.666l-.127-.122-.29.321.144-.081c.287.4-.446,0-.464.439-.257.152.244,1.144-.141,1.175.046.265-.155-.359-.2-.083-.176-.182-.032-.185-.21-.3-.076.232-.432.045-.51.348l-.141-.138c-.009.5-.652.245-.588.653-.15.358-.57-.272-.58.26l-.285-.1c-.145.075.138.317-.078.34-.106-.131-.253.05-.285-.137-.468.073-.339.816-1.022.84.137.317-.187.35-.083.588-.183-.025-.174.129-.316-.161-.012-.024,0-.026.034.016l-.123-.151c-.135-.124-.1-.088-.068,0s.068.231.032.226c.038.052.055.013.1.156l-.069.027-.045-.181a.281.281,0,0,1-.084-.053l.053.226c-.073-.081-.1-.507-.115-.138-.024.209.064.328,0,.424a1.344,1.344,0,0,1-.143-.575c-.08.248-.092.225-.129.253l.082-.2c-.181.209.2-.429.064-.249l.08-.116c-.079.117-.162.23-.249.339-.145.131-.1.034-.042-.033.025-.035.048-.066.039-.067s-.018.006-.044.022-.1.006-.174.021c.12.081-.275.343-.33.157l.17-.1c-.095-.044-.175-.013-.19-.087.115-.027.225-.165.1-.248l.24-.091-.44.04c.011-.291-.4-.359-.26-.6,0,0-.2-.416-.49-.293.195-.058.08-.285.285-.379-.23.055-.585-.081-.515-.33l.036,0c-.176-.524-.811-.426-.916-.944-.154.17-.225-.09-.4.151-.53-.148-.139-1.031-.92-.543-.18-.124-.015-.33-.055-.442l.069.005a2.534,2.534,0,0,1-.594-.555c-.165-.049-.49.218-.595-.045.181-.05.085-.109.018-.182.062.029.12,0,.115-.17a.279.279,0,0,1-.131.021.16.16,0,0,1,.028-.031c-.155-.082-.174-.025-.139.047a.174.174,0,0,0-.059.09c.043-.272-.335-.342-.138-.552a8.625,8.625,0,0,0-1.207-.612.284.284,0,0,1,.362-.1l-.239-.18c.158-.142.2.041.3.079.016-.49-.741-.3-.786-.814l-.181.051,0-.037a.328.328,0,0,1-.278.05c.1-.168.317-.286.171-.428.023-.239-.375-.275-.59-.362.054.1-.046.147-.128.155-.073-.07.023-.239-.088-.243l.178-.176c-.146.189-.367-.023-.467.018.1-.168.224.008.343-.068l-.439-.426c-.285-.033-.147.189-.378.26-.166-.108-.421-.128-.459-.392l-.116.2c-.37-.148-.5-.324-.5-.655-3.147-.753-2.2,1.253-2.2,1.253.355,1.11,1.2,1.074,2.178,1.883" transform="translate(-0.963 -13.73)" fill="#6fc4de"/>
    </g>
  </g>
</svg>
