<?xml version="1.0" encoding="utf-8"?>
<!-- Generator: Adobe Illustrator 26.0.2, SVG Export Plug-In . SVG Version: 6.00 Build 0)  -->
<svg version="1.1" id="圖層_1" xmlns="http://www.w3.org/2000/svg" xmlns:xlink="http://www.w3.org/1999/xlink" x="0px" y="0px"
	 viewBox="0 0 87.6 20.9" style="enable-background:new 0 0 87.6 20.9;" xml:space="preserve">
<style type="text/css">
	.st0{fill:#FFFFFF;}
	.st1{fill:#009844;}
	.st2{fill:#E50012;}
	.st3{fill:url(#SVGID_1_);}
</style>
<g id="logo_00000029752618627625125410000009254722426588166315_">
	<g>
		<rect x="3" y="0.1" class="st0" width="82.4" height="20.8"/>
		<g>
			<rect x="4" y="1" class="st0" width="21.3" height="18.9"/>
			<path class="st1" d="M18.9,12.5v0.1c1,0.4,2.8,1,4.8,1.4c0.5,0.1,1,0.1,1.6,0.2v-0.4c-0.7-0.1-1.5-0.1-2-0.2
				C21.9,13.4,20,12.8,18.9,12.5z"/>
			<path class="st1" d="M22.5,12.9V13c0.7,0.2,1.7,0.4,2.7,0.5v-0.3C24.3,13.2,23.2,13,22.5,12.9z"/>
			<path class="st1" d="M19.7,13.5v0.1c0.6,0.2,1.7,0.6,3.1,0.8c0.4,0.1,1.2,0.2,1.9,0.3v0.1c-6.4-0.2-10-2.6-11.7-4.3V6.9
				c-0.9,1.8-3.6,5.1-9,6.1v7h21.3v-5.5c-0.9,0-1.7-0.1-2.4-0.2C21.8,14,20.5,13.7,19.7,13.5z"/>
			<path class="st2" d="M12.8,3.5H13v3.1c1.6,2.7,5.9,4.8,7.6,5.4c2.3,0.8,4.2,0.9,4.7,1V1H4v10.2C7.8,10.2,11.6,6.1,12.8,3.5z"/>
			<rect x="31.2" y="1" class="st1" width="53.2" height="18.9"/>
			<linearGradient id="SVGID_1_" gradientUnits="userSpaceOnUse" x1="25.0693" y1="10.4491" x2="31.1306" y2="10.4491">
				<stop  offset="0" style="stop-color:#FFFFFF"/>
				<stop  offset="0.6" style="stop-color:#009844"/>
				<stop  offset="1" style="stop-color:#009844"/>
			</linearGradient>
			<rect x="25.2" y="1" class="st3" width="6.1" height="18.9"/>
			<path class="st0" d="M39.8,12.6h2.1c0.1,0,0.1,0,0.1,0.1V14h-2.3v0.9h2.3v0.5H43v-3.4c0-0.1-0.1-0.2-0.2-0.2h-3V12.6L39.8,12.6z
				 M39.8,11v-0.9h2.9V11H39.8L39.8,11z M39.8,9.4V8.5h2.9v0.9H39.8L39.8,9.4z M39.8,7.9V7h3.6v0.9H39.8L39.8,7.9z M39.8,6.4V5.5
				h2.9v0.9H39.8z M37.5,14v-1.2c0-0.1,0-0.1,0.1-0.1h2.2v-0.9h-3.1c-0.1,0-0.1,0-0.1,0.1v3.4h0.9v-0.5h2.3V14H37.5L37.5,14z
				 M39.8,5.5v0.9h-3V5.5H39.8L39.8,5.5z M39.8,7v0.9h-3.7V7H39.8L39.8,7z M39.8,8.5v0.9h-3V8.5H39.8L39.8,8.5z M39.8,10.1V11h-3
				v-0.9H39.8L39.8,10.1z M34.3,9.8v5.6h0.9V7.8c0.2-0.7,0.4-1.4,0.6-2.3l-0.9-0.1C34.7,7,34.1,8.6,33.1,10l0.9,0.4
				C34.1,10.2,34.2,10,34.3,9.8z"/>
			<path class="st0" d="M53.8,6.3h1.4v0.8h-1.4V6.3L53.8,6.3z M53.8,7.7h0.8v0.8h-0.8V7.7L53.8,7.7z M53.8,9h1.8v0.8h-1.8V9L53.8,9z
				 M53.8,11.5h1.6v0.8h-1.6V11.5L53.8,11.5z M53.8,12.9c0.1-0.1,0.3-0.3,0.5-0.4l0.5,0.7c-0.4,0.3-0.7,0.6-1,0.8V12.9L53.8,12.9z
				 M53.8,14.1v1.1c0.1,0,0.1,0.1,0.2,0.1c0.4,0.2,0.7,0.3,1,0.2c0.3-0.1,0.6-0.7,0.7-1.8l-0.9-0.3c0,0.4,0,0.7-0.1,0.9
				c0,0.1-0.1,0.1-0.2,0.2c-0.1,0-0.3,0-0.6-0.2C54,14.2,53.9,14.1,53.8,14.1L53.8,14.1z M53.8,11.2v-0.9c0.4,0.2,0.7,0.3,0.9,0.5
				l-0.4,0.7C54.2,11.4,54.1,11.3,53.8,11.2z M51.6,12.4h-2.7V13c0.7-0.1,1.2-0.2,1.5-0.3l0.2,0.8c-0.4,0.1-0.9,0.2-1.7,0.3v0.6
				c0,0.4-0.1,0.7-0.5,0.8c-0.3,0.2-1,0.2-1.9,0v-0.9c0.8,0.2,1.3,0.2,1.4,0.1c0.1-0.1,0.1-0.1,0.1-0.3V14c-0.8,0.1-1.6,0.1-2.2,0.2
				l-0.1-0.8c0.7,0,1.4-0.1,2.3-0.2v-0.8h-2.2v-0.8H48V11c-0.7,0-1.3,0.1-1.8,0.1l-0.1-0.8c1.7,0,3-0.2,4-0.4l0.1,0.8
				c-0.3,0.1-0.8,0.1-1.4,0.2v0.6h2.4c-0.1-0.5-0.3-1-0.4-1.6h-5.3V9h4.5V8.5h-3.6V7.7h3.6V7.1H46V6.3h2.5c-0.1-0.2-0.3-0.4-0.4-0.5
				l0.6-0.6c0.3,0.2,0.5,0.5,0.8,0.9l0.1,0.2h2.1c0.4-0.4,0.7-0.8,0.9-1l0.7,0.6C53.2,6,53.1,6.1,53,6.3h0.8v0.8h-2.7v0.6h2.7v0.8
				h-2.7V9h2.7v0.8h-2c0.1,0.6,0.2,1.2,0.4,1.6h1.6v0.8h-1.3c0.2,0.4,0.4,0.7,0.6,1c0.2-0.1,0.4-0.3,0.7-0.5V14c0,0,0,0-0.1,0.1
				c0,0,0,0,0.1,0.1v1.1c-0.3-0.2-0.7-0.4-0.9-0.7c-0.9,0.4-2,0.7-3.2,0.9l-0.2-0.9c0.9-0.1,1.8-0.3,2.9-0.8
				C52,13.4,51.8,12.9,51.6,12.4L51.6,12.4z M53.8,10.2c-0.2-0.1-0.4-0.2-0.6-0.3l-0.4,0.8c0.4,0.2,0.7,0.3,0.9,0.4V10.2z"/>
			<path class="st0" d="M66.4,8.1C66.4,8.1,66.5,8.1,66.4,8.1l0.1,0.7c0,0,0,0.1-0.1,0.1h-3.5v2.4h4.6v-0.8h-3.9V9.7h3.5
				c0.2,0,0.3-0.1,0.3-0.3V7.6c0-0.2-0.1-0.3-0.3-0.3h-4.2v0.8H66.4L66.4,8.1z M62.9,12.9V12h4c0.1,0,0.1,0,0.2,0
				c0.1,0,0.2,0.2,0.2,0.5c0,1.4-0.1,2.2-0.4,2.5c-0.2,0.2-0.4,0.3-0.7,0.4c-0.7,0.2-1.6,0.1-2.9-0.2l0-1.1c1.3,0.4,2.3,0.5,2.8,0.2
				c0.1-0.1,0.2-0.2,0.2-0.4c0.1-0.5,0.1-0.8,0-0.9c0,0-0.1-0.1-0.1-0.1H62.9L62.9,12.9z M62.9,6.7v-1c1.3-0.1,2.5-0.2,3.7-0.4
				l0.3,1C65.6,6.5,64.3,6.6,62.9,6.7z M62.9,8.9h-3.5V8.1h3.5V7.3h-3.5V6.9c0-0.1,0-0.1,0.2-0.1c1.1,0,2.3,0,3.4-0.1v-1
				c-1.3,0.1-2.8,0.1-4.2,0c-0.2,0-0.3,0.1-0.2,0.4v4.7c0,1.5-0.3,2.8-0.8,4.1l0.9,0.5c0.5-1.4,0.7-2.9,0.8-4.6v-1h3.3v0.7h-2.9v0.8
				h1.8c-0.1,1.5-0.9,2.6-2.4,3.6l0.8,0.7c1-0.7,1.7-1.6,2.2-2.5c0,0,0-0.1,0.1-0.2h0.7V12h-0.5c0-0.2,0.1-0.5,0.1-0.7h0.4V8.9z"/>
			<path class="st0" d="M76.8,10.3c0.2,0.1,0.5,0.4,0.7,0.6L75.6,11v4.2h4.1v-0.9h-3.9v-0.8h3v-0.8h-3v-0.8l2.6-0.1
				c0.2,0.2,0.5,0.5,0.7,0.8l0.6-0.6c-0.8-0.9-1.5-1.6-2.1-2.1h2V8.9h-3.9v0.9h1.7L76.8,10.3L76.8,10.3z M75.6,8.2V7.3h2.7
				c0.1,0,0.1,0,0.1-0.1V6.7c0-0.1,0-0.2-0.1-0.2h-2.7V5.5H79c0.3,0,0.4,0.1,0.4,0.4v1.9c0,0.2-0.1,0.4-0.4,0.4H75.6z M75.6,11
				l-1.9,0.1l0.8-1.3h1.1V8.9h-4.2V8.2h4.2V7.3h-4.2V6.7c0-0.1,0-0.2,0.1-0.2h4.1V5.5h-4.8c-0.2,0-0.4,0.1-0.4,0.4v4
				c0,1.9-0.3,3.6-0.9,5l0.9,0.4c0.2-0.5,0.4-1.1,0.6-1.9c0.2-1,0.4-2.1,0.4-3.2V9.8h2c-0.3,0.5-0.6,0.9-0.9,1.3l-0.8,0l0,0.9
				l3.2-0.2v0.7h-3v0.8h3v0.8h-3.7v0.9h4.5V11z"/>
		</g>
	</g>
</g>
</svg>
