<svg width="393" height="319" viewBox="0 0 393 319" fill="none" xmlns="http://www.w3.org/2000/svg"><path d="M179.286 16.19L84.04 54.655c-10.71 83.174 8.736 167.521 76.041 197.491 73.433-45.268 107.088-135.375 109.836-217.7l-90.634-18.273.003.019z" fill="#9CCCFC"/><path d="M284.853 88.848c.113-.643.224-1.305.335-1.966.306-1.741.59-3.498.857-5.233.133-.794.245-1.604.357-2.413a75.2 75.2 0 00.311-2c.094-.642.166-1.298.241-1.937.231-1.712.442-3.422.653-5.132.13-1.127.277-2.273.387-3.397.187-1.744.355-3.485.523-5.227.095-1.085.213-2.154.308-3.239.149-1.887.279-3.771.406-5.674.059-.913.137-1.83.195-2.743.169-2.796.302-5.568.396-8.335l-19.883-7.11a299.733 299.733 0 01-.395 8.335c-.059.913-.137 1.83-.195 2.743-.13 1.885-.26 3.77-.406 5.674a188.84 188.84 0 01-.309 3.239c-.168 1.741-.335 3.483-.523 5.227-.129 1.126-.256 2.27-.386 3.397-.211 1.71-.423 3.42-.653 5.132-.184 1.319-.348 2.634-.551 3.955-.111.81-.244 1.603-.356 2.413a220.067 220.067 0 01-.857 5.233c-.111.661-.224 1.305-.335 1.966a284.932 284.932 0 01-1.345 7.09c-.084.418-.17.817-.253 1.235a296.083 296.083 0 01-1.192 5.535 356.005 356.005 0 01-1.848 7.914c-.078.306-.155.63-.233.936a348.33 348.33 0 01-2.349 8.755c-.326 1.133-.654 2.248-.981 3.363a277.395 277.395 0 01-1.336 4.426c-.36 1.175-.741 2.334-1.122 3.493a280.822 280.822 0 01-1.427 4.327 241.748 241.748 0 01-1.407 4.028c-.376 1.048-.75 2.113-1.146 3.163-.527 1.4-1.054 2.799-1.601 4.202-.38 1.01-.78 2.024-1.164 3.017-.785 1.988-1.614 3.944-2.443 5.901-.139.295-.237.604-.376.899a268.49 268.49 0 01-3.039 6.774c-.244.549-.51 1.083-.773 1.635-.77 1.653-1.561 3.29-2.394 4.914l-1.081 2.138a233.365 233.365 0 01-2.508 4.8c-.287.518-.555 1.033-.843 1.551a197.749 197.749 0 01-3.392 6.024 223.217 223.217 0 01-5.147 8.434c-.475.746-.954 1.455-1.428 2.201a232.392 232.392 0 01-4.194 6.22c-.629.914-1.259 1.828-1.91 2.726-.367.51-.737 1.002-1.084 1.509a245.716 245.716 0 01-3.777 5.039c-.17.207-.318.429-.469.634a202.528 202.528 0 01-4.397 5.415c-.393.457-.784.933-1.178 1.391a156.157 156.157 0 01-3.703 4.234c-.379.419-.738.836-1.117 1.255a243.994 243.994 0 01-4.776 5.075c-.398.422-.818.828-1.219 1.231a189.019 189.019 0 01-3.912 3.836c-.561.535-1.141 1.072-1.701 1.607-1.16 1.075-2.32 2.15-3.505 3.191-.742.651-1.482 1.321-2.244 1.974a179.628 179.628 0 01-3.658 3.063c-.711.592-1.403 1.181-2.138 1.738-.837.682-1.717 1.333-2.576 1.999-1.397 1.068-2.791 2.155-4.213 3.19-.936.677-1.874 1.334-2.832 1.995-1.37.973-2.762 1.93-4.158 2.851-1.758 1.171-3.499 2.321-5.305 3.424l19.882 7.111a193.117 193.117 0 004.076-2.582c.417-.276.812-.567 1.229-.843a245.773 245.773 0 004.158-2.851c.939-.658 1.897-1.318 2.833-1.995 1.421-1.035 2.816-2.121 4.213-3.19.662-.511 1.329-.986 1.972-1.495.196-.155.39-.328.606-.485.713-.574 1.405-1.163 2.116-1.754a303.722 303.722 0 003.658-3.063c.762-.654 1.502-1.323 2.244-1.974.673-.587 1.345-1.173 1.997-1.757.51-.473.998-.961 1.508-1.434.58-.538 1.14-1.073 1.701-1.608a147.15 147.15 0 003.891-3.851c.4-.404.82-.809 1.238-1.233.121-.127.262-.256.383-.383a255.074 255.074 0 004.392-4.693c.379-.419.739-.835 1.117-1.254.724-.797 1.448-1.593 2.169-2.408.512-.603 1.022-1.224 1.535-1.826.393-.458.784-.934 1.178-1.392a224.896 224.896 0 004.244-5.229c.051-.062.102-.124.151-.204.17-.207.32-.412.49-.619a242.946 242.946 0 003.777-5.038c.369-.492.736-1.002 1.086-1.491.316-.448.634-.877.953-1.307.333-.468.625-.95.958-1.418a234.065 234.065 0 004.194-6.221c.313-.466.629-.914.941-1.398.163-.262.323-.541.486-.803a244.188 244.188 0 005.145-8.452c.046-.098.112-.199.18-.282a271.526 271.526 0 003.213-5.742c.287-.518.552-1.052.839-1.57.524-.974 1.05-1.929 1.554-2.901.331-.634.623-1.264.957-1.881l1.081-2.137a301.29 301.29 0 002.375-4.912c.263-.552.529-1.086.772-1.635.076-.176.171-.355.246-.531a298.053 298.053 0 002.794-6.243c.139-.295.256-.606.375-.899a240.004 240.004 0 002.163-5.18c.108-.236.174-.485.281-.721.403-.995.783-2.006 1.183-3.02a372.542 372.542 0 001.604-4.183c.395-1.05.771-2.097 1.145-3.163.349-.951.701-1.884 1.028-2.851.146-.389.252-.791.398-1.18.484-1.431.966-2.88 1.428-4.327.381-1.159.76-2.336 1.122-3.492.459-1.465.897-2.946 1.335-4.426.26-.884.538-1.771.798-2.655.068-.231.115-.478.184-.708a350.64 350.64 0 002.349-8.755c.078-.306.154-.631.213-.934a363.33 363.33 0 001.868-7.916c.059-.303.157-.612.218-.897.332-1.541.664-3.082.974-4.638.083-.418.169-.817.253-1.235a280.39 280.39 0 001.325-7.087l-.002-.019z" fill="#1E8BFA"/><path d="M178.149 30.187L94.764 63.858c-3.78 38.1-.578 73.409 9.324 102.69 11.294 33.334 30.533 57.04 57.21 70.535 29.375-19.583 52.849-47.923 69.823-84.332 14.912-31.964 23.959-68.62 26.362-106.561l-79.332-15.985-.002-.018z" fill="#fff"/><path d="M208.674 37.76c-13.465 38.265-29.507 75.94-51.899 110.501-10.989 16.976-23.4 33.009-36.861 48.235 10.596 16.875 24.338 29.774 41.119 38.47 28.711-19.386 51.705-47.331 68.372-83.072 14.589-31.274 23.6-67.446 26.116-104.661l-46.864-9.453.017-.02z" fill="#fff"/><path d="M203.309 87.241l11.466 12.954-56.28 63.975-2.496-1.027-16.93-50.373 2.476 1.029 19.28 21.74 39.988-49.324 2.496 1.026z" fill="#CEE5FD"/><path d="M200.814 86.215l11.483 12.933L156 163.143l-30.745-34.694 13.815-15.679 19.261 21.743 42.483-48.298z" fill="#1E8BFA"/></svg>