<svg width="1847" height="688" viewBox="0 0 1847 688" fill="none" xmlns="http://www.w3.org/2000/svg">
<g clip-path="url(#clip0_40_331)">
<g opacity="0.24">
<path d="M303.991 53.4285H294.782V371.99H303.991V53.4285Z" fill="#E8F3FA"/>
<path d="M264.208 23.6493H264.288C267.118 23.6993 269.417 26.1293 269.417 29.0792C269.417 32.0291 267.118 34.469 264.288 34.509H264.208C261.339 34.509 258.999 32.0691 258.999 29.0792C258.999 26.0893 261.339 23.6493 264.208 23.6493ZM264.208 20.6494C259.699 20.6494 256 24.3993 256 29.0792C256 33.7591 259.689 37.509 264.208 37.509C264.248 37.509 264.298 37.509 264.338 37.509C268.828 37.439 272.417 33.6591 272.417 29.0792C272.417 24.4993 268.828 20.7194 264.338 20.6494C264.298 20.6494 264.248 20.6494 264.208 20.6494Z" fill="#E8F3FA"/>
<path d="M282.405 23.9394H282.475C285.004 23.9794 287.064 26.2893 287.064 29.0792C287.064 31.8692 285.004 34.1791 282.475 34.2191H282.405C279.835 34.2191 277.756 31.9092 277.756 29.0792C277.756 26.2493 279.845 23.9394 282.405 23.9394ZM282.405 20.9395C278.196 20.9395 274.756 24.5594 274.756 29.0792C274.756 33.5991 278.196 37.219 282.405 37.219C282.445 37.219 282.485 37.219 282.525 37.219C286.714 37.149 290.063 33.5091 290.063 29.0792C290.063 24.6494 286.714 20.9995 282.525 20.9395C282.485 20.9395 282.445 20.9395 282.405 20.9395Z" fill="#E8F3FA"/>
<path d="M299.392 24.2094H299.452C301.711 24.2494 303.551 26.4293 303.551 29.0793C303.551 31.7292 301.711 33.9191 299.452 33.9491H299.392C297.102 33.9491 295.242 31.7592 295.242 29.0793C295.242 26.3993 297.102 24.2094 299.392 24.2094ZM299.392 21.2095C295.462 21.2095 292.243 24.7094 292.243 29.0793C292.243 33.4491 295.462 36.9491 299.392 36.9491C299.432 36.9491 299.462 36.9491 299.502 36.9491C303.421 36.8891 306.55 33.3591 306.55 29.0793C306.55 24.7994 303.421 21.2695 299.502 21.2095C299.462 21.2095 299.432 21.2095 299.392 21.2095Z" fill="#E8F3FA"/>
<path d="M315.279 21.4695L315.329 24.4694C317.348 24.4994 318.988 26.5693 318.988 29.0893C318.988 31.6092 317.348 33.6792 315.289 33.7092C313.249 33.7092 311.589 31.6392 311.589 29.0893C311.589 26.5393 313.249 24.4694 315.289 24.4694V21.4695M315.289 21.4695C311.599 21.4695 308.59 24.8594 308.59 29.0893C308.59 33.3192 311.599 36.7091 315.289 36.7091C315.319 36.7091 315.349 36.7091 315.389 36.7091C319.058 36.6491 321.997 33.2392 321.997 29.0893C321.997 24.9394 319.058 21.5295 315.389 21.4695C315.359 21.4695 315.329 21.4695 315.289 21.4695Z" fill="#E8F3FA"/>
<path d="M330.176 21.6995L330.225 24.2994C332.235 24.3294 333.875 26.4793 333.875 29.0793C333.875 31.6792 332.235 33.8291 330.185 33.8591C328.156 33.8591 326.496 31.7092 326.496 29.0793C326.496 26.4493 328.156 24.2994 330.185 24.2994V21.6995M330.185 21.6995C326.726 21.6995 323.897 24.9794 323.897 29.0793C323.897 33.1792 326.726 36.4591 330.185 36.4591C330.215 36.4591 330.245 36.4591 330.275 36.4591C333.725 36.4091 336.484 33.0992 336.484 29.0793C336.484 25.0594 333.725 21.7495 330.275 21.6995C330.245 21.6995 330.215 21.6995 330.185 21.6995Z" fill="#E8F3FA"/>
<path d="M263.888 2.99991C263.978 2.99991 264.078 2.99991 264.168 2.99991C267.058 3.15991 269.417 5.73984 269.417 8.74975C269.417 11.7597 267.268 13.8696 264.518 13.8696H264.398C261.419 13.7996 258.989 11.2197 258.989 8.10977C258.989 5.23985 261.139 2.98991 263.878 2.98991M263.878 -0.0100098C259.519 -1.00347e-05 256 3.53989 256 8.11977C256 12.6996 259.759 16.7695 264.338 16.8795C264.398 16.8795 264.458 16.8795 264.528 16.8795C268.937 16.8795 272.427 13.2796 272.427 8.75975C272.427 4.23988 268.828 0.259983 264.338 0.0099897C264.188 0.0099897 264.038 -1.00347e-05 263.888 -1.00347e-05L263.878 -0.0100098Z" fill="#E8F3FA"/>
<path d="M282.115 3.99991C282.195 3.99991 282.275 3.99991 282.355 3.99991C284.944 4.13991 287.064 6.57984 287.064 9.43976C287.064 12.2997 285.144 14.2896 282.695 14.2896H282.595C279.975 14.2296 277.756 11.7297 277.756 8.83978C277.756 6.11985 279.675 3.98991 282.125 3.98991M282.125 0.98999C278.046 0.98999 274.756 4.4199 274.756 8.83978C274.756 13.2597 278.266 17.1896 282.525 17.2896C282.585 17.2896 282.635 17.2896 282.695 17.2896C286.804 17.2896 290.063 13.8096 290.063 9.43976C290.063 5.06988 286.704 1.23998 282.515 1.00999C282.375 1.00999 282.245 0.99999 282.115 0.99999L282.125 0.98999Z" fill="#E8F3FA"/>
<path d="M299.132 4.92984C299.202 4.92984 299.262 4.92984 299.332 4.92984C301.651 5.05984 303.551 7.36977 303.551 10.0797C303.551 12.7896 301.841 14.6796 299.651 14.6796H299.571C297.222 14.6296 295.242 12.2596 295.242 9.51972C295.242 6.93979 296.952 4.91984 299.142 4.91984M299.142 1.91992C295.322 1.91992 292.243 5.23983 292.243 9.51972C292.243 13.7996 295.522 17.5795 299.502 17.6795C299.551 17.6795 299.601 17.6795 299.651 17.6795C303.501 17.6795 306.55 14.3096 306.55 10.0797C306.55 5.84982 303.421 2.14992 299.502 1.92992C299.382 1.92992 299.262 1.91992 299.142 1.91992Z" fill="#E8F3FA"/>
<path d="M315.049 2.8098V5.80972C315.099 5.80972 315.159 5.80972 315.209 5.80972C317.258 5.91972 318.978 8.15966 318.978 10.6896C318.978 13.2195 317.418 15.0495 315.508 15.0495H315.438C313.339 14.9995 311.569 12.7595 311.569 10.1596C311.569 7.70967 313.089 5.79972 315.039 5.79972V2.7998M315.039 2.7998C311.459 2.7998 308.57 6.01972 308.57 10.1596C308.57 14.2995 311.639 17.9594 315.368 18.0494C315.418 18.0494 315.458 18.0494 315.508 18.0494C319.118 18.0494 321.977 14.7795 321.977 10.6896C321.977 6.5997 319.038 3.0098 315.368 2.8098C315.259 2.8098 315.149 2.8098 315.039 2.8098V2.7998Z" fill="#E8F3FA"/>
<path d="M329.966 6.6298C329.966 6.6298 330.056 6.6298 330.095 6.6298C331.925 6.7298 333.465 8.84974 333.465 11.2597C333.465 13.5396 332.085 15.3996 330.385 15.3996H330.325C328.456 15.3596 326.876 13.2296 326.876 10.7697C326.876 8.48975 328.256 6.6298 329.956 6.6298M329.956 3.62988C326.596 3.62988 323.877 6.7598 323.877 10.7697C323.877 14.7796 326.756 18.3195 330.255 18.3995C330.295 18.3995 330.335 18.3995 330.385 18.3995C333.775 18.3995 336.464 15.2296 336.464 11.2597C336.464 7.28978 333.705 3.81988 330.255 3.63988C330.155 3.63988 330.056 3.63988 329.956 3.63988V3.62988Z" fill="#E8F3FA"/>
<path d="M264.528 44.2887C267.268 44.2887 269.417 46.5387 269.417 49.4086C269.417 52.4185 267.068 54.9984 264.168 55.1584C264.078 55.1584 263.978 55.1584 263.888 55.1584C261.149 55.1584 258.999 52.9085 258.999 50.0386C258.999 46.9287 261.429 44.3487 264.408 44.2787H264.528M264.528 41.2788C264.468 41.2788 264.408 41.2788 264.338 41.2788C259.769 41.3888 256 45.3087 256 50.0386C256 54.7684 259.519 58.1584 263.888 58.1584C264.038 58.1584 264.188 58.1584 264.338 58.1484C268.828 57.8984 272.417 53.9885 272.417 49.3986C272.417 44.8087 268.927 41.2788 264.528 41.2788Z" fill="#E8F3FA"/>
<path d="M282.685 43.8688C285.134 43.8688 287.054 45.9987 287.054 48.7187C287.054 51.5786 284.944 54.0185 282.345 54.1585C282.265 54.1585 282.185 54.1585 282.105 54.1585C279.655 54.1585 277.736 52.0286 277.736 49.3087C277.736 46.4187 279.955 43.9188 282.575 43.8588H282.675M282.675 40.8589C282.615 40.8589 282.565 40.8589 282.505 40.8589C278.246 40.9589 274.736 44.7388 274.736 49.3087C274.736 53.8785 278.026 57.1584 282.105 57.1584C282.235 57.1584 282.375 57.1584 282.505 57.1484C286.694 56.9185 290.043 53.1386 290.043 48.7087C290.043 44.2788 286.784 40.8589 282.675 40.8589Z" fill="#E8F3FA"/>
<path d="M299.641 43.4787C301.831 43.4787 303.541 45.4986 303.541 48.0785C303.541 50.7885 301.651 53.1084 299.322 53.2284C299.252 53.2284 299.192 53.2284 299.122 53.2284C296.942 53.2284 295.232 51.2085 295.232 48.6285C295.232 45.8886 297.212 43.5287 299.561 43.4687H299.641M299.641 40.4688C299.591 40.4688 299.541 40.4688 299.491 40.4688C295.512 40.5587 292.233 44.2086 292.233 48.6285C292.233 53.0484 295.312 56.2283 299.122 56.2283C299.242 56.2283 299.362 56.2283 299.481 56.2183C303.401 55.9983 306.53 52.3584 306.53 48.0685C306.53 43.7787 303.481 40.4688 299.631 40.4688H299.641Z" fill="#E8F3FA"/>
<path d="M315.508 43.1088C317.418 43.1088 318.978 45.0687 318.978 47.4687C318.978 49.9986 317.248 52.2386 315.209 52.3485C315.149 52.3485 315.099 52.3485 315.039 52.3485C313.099 52.3485 311.569 50.4286 311.569 47.9887C311.569 45.3887 313.339 43.1488 315.438 43.0988H315.508M315.508 40.0989C315.508 40.0989 315.418 40.0989 315.368 40.0989C311.639 40.1889 308.57 43.7188 308.57 47.9887C308.57 52.2586 311.459 55.3485 315.039 55.3485C315.149 55.3485 315.259 55.3485 315.368 55.3485C319.038 55.1485 321.977 51.6186 321.977 47.4687C321.977 43.3188 319.118 40.1089 315.508 40.1089V40.0989Z" fill="#E8F3FA"/>
<path d="M330.395 42.7687C332.095 42.7687 333.475 44.6287 333.475 46.9086C333.475 49.3185 331.935 51.4385 330.106 51.5385C330.056 51.5385 330.016 51.5385 329.966 51.5385C328.266 51.5385 326.886 49.6785 326.886 47.3986C326.886 44.9287 328.466 42.8087 330.335 42.7687H330.395ZM330.395 39.7688C330.395 39.7688 330.315 39.7688 330.265 39.7688C326.766 39.8488 323.887 43.2687 323.887 47.3986C323.887 51.5285 326.596 54.5384 329.966 54.5384C330.066 54.5384 330.165 54.5384 330.265 54.5384C333.715 54.3484 336.474 50.9385 336.474 46.9186C336.474 42.8987 333.785 39.7788 330.395 39.7788V39.7688Z" fill="#E8F3FA"/>
</g>
<g opacity="0.24">
<path d="M1543.01 372H1552.22V53.4386H1543.01V372Z" fill="#E8F3FA"/>
<path d="M1582.79 23.6493C1585.66 23.6493 1588 26.0893 1588 29.0792C1588 32.0691 1585.66 34.509 1582.79 34.509H1582.71C1579.88 34.459 1577.58 32.0291 1577.58 29.0792C1577.58 26.1293 1579.88 23.6893 1582.71 23.6493H1582.79ZM1582.79 20.6494C1582.79 20.6494 1582.7 20.6494 1582.66 20.6494C1578.17 20.7194 1574.58 24.4993 1574.58 29.0792C1574.58 33.6591 1578.17 37.439 1582.66 37.509C1582.7 37.509 1582.75 37.509 1582.79 37.509C1587.3 37.509 1591 33.7591 1591 29.0792C1591 24.3993 1587.31 20.6494 1582.79 20.6494Z" fill="#E8F3FA"/>
<path d="M1564.6 23.9394C1567.17 23.9394 1569.25 26.2493 1569.25 29.0792C1569.25 31.9092 1567.16 34.2191 1564.6 34.2191H1564.53C1562.01 34.1791 1559.95 31.8692 1559.95 29.0792C1559.95 26.2893 1562.01 23.9794 1564.53 23.9394H1564.6ZM1564.6 20.9395C1564.6 20.9395 1564.52 20.9395 1564.48 20.9395C1560.3 21.0095 1556.95 24.6494 1556.95 29.0792C1556.95 33.5091 1560.3 37.159 1564.48 37.219C1564.52 37.219 1564.56 37.219 1564.6 37.219C1568.81 37.219 1572.25 33.5991 1572.25 29.0792C1572.25 24.5594 1568.81 20.9395 1564.6 20.9395Z" fill="#E8F3FA"/>
<path d="M1547.62 24.2094C1549.91 24.2094 1551.77 26.3993 1551.77 29.0793C1551.77 31.7592 1549.91 33.9491 1547.62 33.9491H1547.56C1545.3 33.9091 1543.46 31.7292 1543.46 29.0793C1543.46 26.4293 1545.3 24.2394 1547.56 24.2094H1547.62ZM1547.62 21.2095C1547.62 21.2095 1547.55 21.2095 1547.51 21.2095C1543.59 21.2695 1540.46 24.7994 1540.46 29.0793C1540.46 33.3591 1543.59 36.8891 1547.51 36.9491C1547.55 36.9491 1547.58 36.9491 1547.62 36.9491C1551.55 36.9491 1554.77 33.4491 1554.77 29.0793C1554.77 24.7094 1551.55 21.2095 1547.62 21.2095Z" fill="#E8F3FA"/>
<path d="M1531.72 24.4694C1533.76 24.4694 1535.42 26.5393 1535.42 29.0893C1535.42 31.6392 1533.76 33.7092 1531.67 33.7092C1529.65 33.6792 1528.01 31.6092 1528.01 29.0893C1528.01 26.5693 1529.65 24.4994 1531.67 24.4694H1531.72ZM1531.72 21.4695C1531.72 21.4695 1531.66 21.4695 1531.62 21.4695C1527.95 21.5295 1525.01 24.9394 1525.01 29.0893C1525.01 33.2392 1527.95 36.6491 1531.62 36.7091C1531.65 36.7091 1531.68 36.7091 1531.72 36.7091C1535.41 36.7091 1538.42 33.3192 1538.42 29.0893C1538.42 24.8594 1535.41 21.4695 1531.72 21.4695Z" fill="#E8F3FA"/>
<path d="M1516.82 24.2994C1518.85 24.2994 1520.51 26.4493 1520.51 29.0793C1520.51 31.7092 1518.86 33.8591 1516.78 33.8591C1514.77 33.8291 1513.14 31.6792 1513.14 29.0793C1513.14 26.4793 1514.77 24.3294 1516.78 24.2994H1516.83M1516.83 21.6995C1516.83 21.6995 1516.77 21.6995 1516.74 21.6995C1513.3 21.7495 1510.54 25.0594 1510.54 29.0793C1510.54 33.0992 1513.3 36.4091 1516.74 36.4591C1516.77 36.4591 1516.8 36.4591 1516.83 36.4591C1520.29 36.4591 1523.12 33.1792 1523.12 29.0793C1523.12 24.9794 1520.29 21.6995 1516.83 21.6995Z" fill="#E8F3FA"/>
<path d="M1583.11 2.99993C1585.85 2.99993 1588 5.24987 1588 8.11979C1588 11.2297 1585.57 13.8096 1582.59 13.8796H1582.47C1579.73 13.8796 1577.57 11.6297 1577.57 8.75977C1577.57 5.74986 1579.92 3.16992 1582.82 3.00993C1582.91 3.00993 1583.01 3.00993 1583.1 3.00993M1583.1 0.0100098C1582.95 0.0100098 1582.8 0.0100098 1582.65 0.0200095C1578.16 0.270003 1574.57 4.1799 1574.57 8.76977C1574.57 13.3597 1578.06 16.8896 1582.47 16.8896C1582.53 16.8896 1582.59 16.8896 1582.66 16.8896C1587.23 16.7796 1591 12.8597 1591 8.12979C1591 3.39992 1587.48 0.0100098 1583.11 0.0100098H1583.1Z" fill="#E8F3FA"/>
<path d="M1564.89 3.99993C1567.33 3.99993 1569.25 6.12987 1569.25 8.8498C1569.25 11.7397 1567.03 14.2397 1564.42 14.2997H1564.32C1561.87 14.2997 1559.95 12.1697 1559.95 9.44978C1559.95 6.58986 1562.06 4.14993 1564.66 4.00993C1564.74 4.00993 1564.82 4.00993 1564.9 4.00993M1564.9 1.01001C1564.77 1.01001 1564.63 1.01001 1564.5 1.02001C1560.31 1.25 1556.96 5.0299 1556.96 9.45978C1556.96 13.8897 1560.22 17.3096 1564.33 17.3096C1564.39 17.3096 1564.44 17.3096 1564.5 17.3096C1568.75 17.2096 1572.26 13.4297 1572.26 8.8598C1572.26 4.28992 1568.97 1.01001 1564.9 1.01001Z" fill="#E8F3FA"/>
<path d="M1547.87 4.92986C1550.05 4.92986 1551.77 6.94981 1551.77 9.52974C1551.77 12.2697 1549.79 14.6296 1547.44 14.6896H1547.36C1545.17 14.6896 1543.46 12.6697 1543.46 10.0897C1543.46 7.37979 1545.35 5.05986 1547.68 4.93986C1547.75 4.93986 1547.81 4.93986 1547.88 4.93986M1547.88 1.93994C1547.76 1.93994 1547.64 1.93994 1547.52 1.94994C1543.6 2.16994 1540.47 5.80984 1540.47 10.0997C1540.47 14.3896 1543.52 17.6995 1547.37 17.6995C1547.42 17.6995 1547.47 17.6995 1547.52 17.6995C1551.5 17.6095 1554.78 13.9596 1554.78 9.53974C1554.78 5.11986 1551.7 1.93994 1547.88 1.93994Z" fill="#E8F3FA"/>
<path d="M1531.95 5.80973C1533.89 5.80973 1535.42 7.72968 1535.42 10.1696C1535.42 12.7695 1533.65 15.0095 1531.55 15.0595H1531.48C1529.57 15.0595 1528.01 13.0995 1528.01 10.6996C1528.01 8.16967 1529.74 5.92973 1531.78 5.81973C1531.84 5.81973 1531.89 5.81973 1531.94 5.81973M1531.94 2.81981C1531.83 2.81981 1531.72 2.81981 1531.61 2.81981C1527.94 3.01981 1525 6.54971 1525 10.6996C1525 14.8495 1527.86 18.0594 1531.47 18.0594C1531.52 18.0594 1531.56 18.0594 1531.61 18.0594C1535.34 17.9694 1538.41 14.4395 1538.41 10.1696C1538.41 5.89973 1535.52 2.80981 1531.94 2.80981V2.81981Z" fill="#E8F3FA"/>
<path d="M1517.03 6.63004C1518.73 6.63004 1520.11 8.48999 1520.11 10.7699C1520.11 13.2399 1518.53 15.3598 1516.66 15.3998H1516.6C1514.9 15.3998 1513.52 13.5399 1513.52 11.2599C1513.52 8.84998 1515.06 6.73003 1516.89 6.63004C1516.94 6.63004 1516.98 6.63004 1517.03 6.63004ZM1517.03 3.63012C1516.93 3.63012 1516.83 3.63012 1516.73 3.63012C1513.28 3.82011 1510.53 7.23002 1510.53 11.2499C1510.53 15.2698 1513.21 18.3897 1516.6 18.3897C1516.64 18.3897 1516.68 18.3897 1516.73 18.3897C1520.23 18.3097 1523.11 14.8898 1523.11 10.7599C1523.11 6.63004 1520.4 3.62012 1517.03 3.62012V3.63012Z" fill="#E8F3FA"/>
<path d="M1582.48 44.289H1582.6C1585.58 44.359 1588.01 46.9389 1588.01 50.0488C1588.01 52.9188 1585.86 55.1687 1583.12 55.1687C1583.03 55.1687 1582.93 55.1687 1582.84 55.1687C1579.95 55.0087 1577.59 52.4288 1577.59 49.4189C1577.59 46.4089 1579.74 44.299 1582.48 44.299M1582.48 41.2991C1578.07 41.2991 1574.59 44.899 1574.59 49.4189C1574.59 53.9387 1578.18 57.9186 1582.67 58.1686C1582.82 58.1686 1582.97 58.1786 1583.12 58.1786C1587.49 58.1786 1591.01 54.6387 1591.01 50.0588C1591.01 45.479 1587.25 41.4091 1582.67 41.2991C1582.61 41.2991 1582.54 41.2991 1582.48 41.2991Z" fill="#E8F3FA"/>
<path d="M1564.31 43.8688H1564.41C1567.03 43.9288 1569.25 46.4288 1569.25 49.3187C1569.25 52.0386 1567.33 54.1685 1564.88 54.1685C1564.8 54.1685 1564.72 54.1685 1564.64 54.1685C1562.06 54.0285 1559.94 51.5886 1559.94 48.7287C1559.94 45.8688 1561.86 43.8788 1564.3 43.8788M1564.3 40.8789C1560.2 40.8789 1556.94 44.3588 1556.94 48.7287C1556.94 53.0986 1560.29 56.9385 1564.47 57.1685C1564.6 57.1685 1564.74 57.1785 1564.87 57.1785C1568.95 57.1785 1572.24 53.7486 1572.24 49.3287C1572.24 44.9088 1568.73 40.9789 1564.47 40.8789C1564.41 40.8789 1564.36 40.8789 1564.3 40.8789Z" fill="#E8F3FA"/>
<path d="M1547.36 43.4789H1547.44C1549.79 43.5389 1551.77 45.8989 1551.77 48.6388C1551.77 51.2187 1550.06 53.2387 1547.88 53.2387C1547.81 53.2387 1547.75 53.2387 1547.68 53.2387C1545.36 53.1087 1543.46 50.7987 1543.46 48.0888C1543.46 45.3789 1545.17 43.4889 1547.36 43.4889M1547.36 40.489C1543.51 40.489 1540.46 43.8589 1540.46 48.0888C1540.46 52.3187 1543.59 56.0186 1547.51 56.2386C1547.63 56.2386 1547.75 56.2486 1547.87 56.2486C1551.69 56.2486 1554.77 52.9287 1554.77 48.6488C1554.77 44.3689 1551.49 40.589 1547.51 40.489C1547.46 40.489 1547.41 40.489 1547.36 40.489Z" fill="#E8F3FA"/>
<path d="M1531.49 43.1091H1531.56C1533.66 43.159 1535.43 45.399 1535.43 47.9989C1535.43 50.4489 1533.91 52.3588 1531.96 52.3588C1531.91 52.3588 1531.85 52.3588 1531.8 52.3588C1529.75 52.2488 1528.03 50.0089 1528.03 47.4789C1528.03 44.949 1529.59 43.119 1531.5 43.119M1531.5 40.1191C1527.89 40.1191 1525.03 43.389 1525.03 47.4789C1525.03 51.5688 1527.97 55.1587 1531.64 55.3587C1531.75 55.3587 1531.86 55.3587 1531.97 55.3587C1535.55 55.3587 1538.44 52.1388 1538.44 47.9989C1538.44 43.859 1535.37 40.1991 1531.64 40.1091C1531.59 40.1091 1531.55 40.1091 1531.5 40.1091V40.1191Z" fill="#E8F3FA"/>
<path d="M1516.6 42.769H1516.66C1518.53 42.809 1520.11 44.9389 1520.11 47.3988C1520.11 49.6788 1518.73 51.5387 1517.03 51.5387C1516.99 51.5387 1516.94 51.5387 1516.89 51.5387C1515.06 51.4387 1513.52 49.3188 1513.52 46.9088C1513.52 44.6289 1514.9 42.769 1516.6 42.769ZM1516.6 39.769C1513.21 39.769 1510.53 42.9389 1510.53 46.9088C1510.53 50.8787 1513.28 54.3486 1516.73 54.5286C1516.83 54.5286 1516.93 54.5286 1517.03 54.5286C1520.39 54.5286 1523.11 51.3987 1523.11 47.3888C1523.11 43.3789 1520.23 39.839 1516.73 39.759C1516.69 39.759 1516.65 39.759 1516.6 39.759V39.769Z" fill="#E8F3FA"/>
</g>
</g>
<g clip-path="url(#clip1_40_331)">
<g opacity="0.5">
<path d="M924.985 387.496C924.925 387.496 924.875 387.496 924.815 387.496C924.755 387.496 924.705 387.496 924.645 387.496C384.8 387.536 81.2478 498.858 81.2478 498.858L734.32 658.887H1115.93L1768.63 498.858C1768.63 498.858 1464.83 387.536 924.985 387.496Z" stroke="white" stroke-width="2" stroke-miterlimit="10"/>
<path d="M923.095 537.378C877.886 537.378 840.637 546.796 839.887 558.603C839.127 570.63 876.366 580.537 923.085 580.537C969.804 580.537 1007.05 570.63 1006.3 558.603C1005.56 546.796 968.314 537.378 923.105 537.378H923.095ZM923.085 577.938C880.286 577.938 845.977 569.2 846.597 558.613C847.207 548.195 881.526 539.837 923.095 539.837C964.664 539.837 998.983 548.195 999.593 558.613C1000.2 569.03 965.894 577.938 923.085 577.938Z" fill="white"/>
<path d="M896.236 668.315H822.628L825.358 629.725H896.966L896.226 668.315H896.236ZM828.388 666.286H890.656L891.456 631.664H830.698L828.378 666.286H828.388Z" fill="white"/>
<path d="M1025.29 668.315H951.684L950.924 629.725H1022.54L1025.3 668.315H1025.29ZM957.254 666.286H1019.53L1017.19 631.664H956.434L957.254 666.286Z" fill="white"/>
<path d="M939.015 648.49C939.045 651.469 932.305 653.889 923.955 653.889C915.605 653.889 908.855 651.469 908.885 648.49C908.915 645.511 915.665 643.131 923.945 643.131C932.225 643.131 938.975 645.531 939.015 648.49Z" fill="white"/>
<path d="M413.009 528.53C528.176 486.221 717.041 459.218 923.125 459.218C1129.21 459.218 1318.78 486.321 1433.86 528.78L1438.02 527.79C1321.82 484.861 1131.12 457.478 923.125 457.478C715.131 457.478 525.076 484.771 408.799 527.56L413.009 528.53Z" fill="white"/>
<path d="M1847 430.575L1842.26 428.705L1313.16 556.393L936.035 475.764L923.605 473.064V473.044H923.565H923.525L919.675 473.884L533.835 556.373L4.73987 428.695L0 430.565L797.368 623.476C782.299 629.705 773.069 637.143 772.199 645.201C769.689 668.475 837.317 687.99 923.045 687.99C1008.77 687.99 1076.42 668.475 1073.92 645.201C1073.06 637.203 1063.95 629.815 1049.08 623.606L1847 430.555V430.575ZM1064.51 645.211C1066.64 666.336 1003.2 683.991 923.055 683.991C842.907 683.991 779.479 666.336 781.619 645.211C782.459 636.913 793.348 629.325 810.918 623.236L802.938 621.327L564.425 563.771L587.384 558.743L564.245 552.814L903.655 480.092L923.535 485.861V485.881L923.575 485.871H923.615V485.861L943.444 480.102L1282.79 552.814L1259.65 558.743L1282.61 563.771L1039.3 622.487L1039.37 622.527L1035.8 623.436C1053.04 629.495 1063.7 637.003 1064.53 645.211H1064.51Z" fill="white"/>
<path d="M1643.48 382.877C1455.63 354.744 1214.39 332.02 925.005 332C924.925 332 924.845 332 924.765 332C924.685 332 924.605 332 924.525 332C633.783 332.02 391.679 354.954 203.514 383.277" stroke="white" stroke-width="2" stroke-miterlimit="10"/>
</g>
</g>
<defs>
<clipPath id="clip0_40_331">
<rect width="1335" height="372" fill="white" transform="translate(256)"/>
</clipPath>
<clipPath id="clip1_40_331">
<rect width="1847" height="357" fill="white" transform="translate(0 331)"/>
</clipPath>
</defs>
</svg>
