<svg width="48" height="48" viewBox="0 0 48 48" fill="none" xmlns="http://www.w3.org/2000/svg">
<path fill-rule="evenodd" clip-rule="evenodd" d="M27.672 43.3411C27.3163 43.5193 26.9044 43.5489 26.5269 43.4234C26.1494 43.298 25.8372 43.0277 25.659 42.6721L16.659 24.6721C16.5545 24.4635 16.5 24.2334 16.5 24.0001C16.5 23.7667 16.5545 23.5366 16.659 23.3281L25.659 5.32806C25.7463 5.15039 25.8679 4.99177 26.0168 4.86133C26.1657 4.7309 26.339 4.63122 26.5266 4.56806C26.7142 4.5049 26.9125 4.47951 27.11 4.49333C27.3074 4.50716 27.5002 4.55994 27.6772 4.64863C27.8542 4.73732 28.0119 4.86016 28.1411 5.01008C28.2704 5.15999 28.3688 5.33402 28.4305 5.52212C28.4922 5.71022 28.516 5.90867 28.5007 6.10603C28.4853 6.3034 28.431 6.49577 28.341 6.67206L19.68 24.0001L28.341 41.3281C28.5192 41.6837 28.5488 42.0956 28.4234 42.4731C28.2979 42.8506 28.0276 43.1628 27.672 43.3411Z" fill="#005193"/>
</svg>
