<svg width="123" height="116" viewBox="0 0 123 116" fill="none" xmlns="http://www.w3.org/2000/svg">
<g clip-path="url(#clip0_39_488)">
<path d="M63.6239 102.044L58.5715 110.568C54.7822 116.956 40.2565 115.349 26.1077 106.988C11.9588 98.6265 3.54492 86.6644 7.32405 80.2765L12.3765 71.7524C8.58716 78.1404 59.8448 108.432 63.6239 102.044Z" fill="#B4E2FA"/>
<path fill-rule="evenodd" clip-rule="evenodd" d="M11.0862 70.9873C11.0862 70.9875 11.0863 70.9872 11.0862 70.9873L13.6667 72.5175C13.6722 72.5082 13.6757 72.5004 13.6779 72.4947C13.6737 72.5242 13.6719 72.6122 13.7248 72.792C13.824 73.1288 14.0722 73.6183 14.5451 74.2634C15.4858 75.5464 17.0846 77.138 19.2185 78.9304C23.4647 82.497 29.5592 86.6357 35.9251 90.3982C42.291 94.1606 48.8565 97.5044 54.0303 99.5056C56.6302 100.511 58.7967 101.145 60.3756 101.352C61.1696 101.455 61.719 101.437 62.063 101.362C62.2474 101.321 62.3239 101.277 62.3478 101.259C62.3438 101.264 62.3389 101.271 62.3334 101.28L64.9148 102.808C64.9139 102.81 64.9129 102.811 64.912 102.813L59.8617 111.333C57.4806 115.347 52.039 116.46 46.0597 115.8C39.9296 115.123 32.5584 112.543 25.3444 108.279C18.13 104.016 12.3139 98.8004 8.76577 93.7552C5.30553 88.8349 3.65666 83.5295 6.03292 79.5129L11.0862 70.9873ZM11.8298 75.6165L8.61491 81.0404C8.61482 81.0406 8.615 81.0403 8.61491 81.0404C7.21239 83.4118 7.88078 87.2817 11.2197 92.0294C14.471 96.6526 19.9362 101.599 26.8707 105.697C33.8054 109.795 40.7716 112.198 46.3889 112.818C52.1569 113.455 55.8731 112.177 57.2813 109.803L60.4943 104.383C60.3263 104.367 60.1571 104.348 59.987 104.326C58.0542 104.074 55.6258 103.339 52.9481 102.304C47.5666 100.222 40.846 96.7914 34.3987 92.9808C27.9514 89.1703 21.7059 84.9376 17.2889 81.2275C15.0912 79.3815 13.2777 77.6085 12.1257 76.0372C12.0235 75.8978 11.9246 75.7575 11.8298 75.6165ZM62.3566 101.251C62.357 101.251 62.3545 101.254 62.3478 101.259C62.3529 101.253 62.3562 101.251 62.3566 101.251ZM13.681 72.4828C13.6814 72.4831 13.6808 72.4873 13.6779 72.4947C13.6792 72.4862 13.6806 72.4825 13.681 72.4828Z" fill="#123B68"/>
<path d="M33.2175 50.1268C33.0341 50.1777 32.8304 50.1879 32.6267 50.1675C31.7506 50.0658 31.1191 49.2724 31.2311 48.3874C32.1887 40.3618 35.7029 19.3467 37.0475 14.332C37.2716 13.4776 38.1477 12.969 39.0033 13.2029C39.859 13.4267 40.3683 14.3015 40.134 15.1559C38.8505 19.9571 35.3362 41.0128 34.4093 48.7638C34.3278 49.4351 33.8388 49.9641 33.2175 50.1268Z" fill="#123B68"/>
<path d="M39.2683 49.7605C39.0442 49.8215 38.7997 49.8317 38.5451 49.7808C37.6792 49.6079 37.1292 48.7534 37.3023 47.899C38.9322 40.0158 43.9133 19.8552 45.6348 15.0947C45.9302 14.2606 46.8469 13.8334 47.6822 14.1284C48.5175 14.4234 48.9453 15.3389 48.6499 16.1729C46.9692 20.8418 42.0594 40.738 40.4397 48.5398C40.3073 49.1603 39.8387 49.6181 39.2683 49.7605Z" fill="#123B68"/>
<path d="M46.4394 45.3157C46.1134 45.397 45.7569 45.3767 45.4208 45.2445C44.6059 44.8986 44.229 43.9628 44.5651 43.149C45.5736 40.7587 46.8672 37.4935 48.2424 34.0452C51.3085 26.3146 54.4764 18.3297 56.2794 15.3392C56.7378 14.5864 57.7157 14.3321 58.4695 14.7899C59.2232 15.2476 59.4677 16.2241 59.0195 16.9768C57.3591 19.7436 54.0893 27.9624 51.2168 35.215C49.8416 38.6836 48.5378 41.9589 47.5191 44.3798C47.3154 44.8579 46.908 45.1834 46.4394 45.3055V45.3157Z" fill="#123B68"/>
<path d="M72.0583 22.3475C71.1925 22.5713 70.2655 22.5509 69.3589 22.2559C48.3445 15.2984 24.1316 23.1917 23.8973 23.2731C21.3813 24.097 18.6615 22.7543 17.8263 20.2419C16.991 17.7294 18.3356 15.0237 20.8516 14.1795C21.9619 13.8133 48.2834 5.17736 72.3843 13.1623C74.9003 13.9964 76.2653 16.7123 75.43 19.2247C74.9003 20.8319 73.5863 21.9711 72.0583 22.3576V22.3475Z" fill="#B4E2FA"/>
<path fill-rule="evenodd" clip-rule="evenodd" d="M21.3253 15.6027C19.5971 16.1846 18.6748 18.0401 19.2495 19.7687C19.8198 21.4842 21.6857 22.4189 23.4304 21.8476L23.4304 21.8476C23.909 21.6889 30.0328 19.7385 38.6452 18.637C47.4608 17.5096 59.0193 17.2536 69.8264 20.8307C70.4602 21.0362 71.0947 21.0472 71.6828 20.8952L71.9513 20.8258C72.8915 20.5033 73.674 19.7601 74.0052 18.7552L74.0065 18.7515C74.5796 17.0276 73.6433 15.16 71.9121 14.5861C60.1533 10.6902 47.7949 10.8358 38.1809 12.0278C28.6059 13.215 21.8596 15.4265 21.3253 15.6027ZM70.5582 23.9907C70.0028 23.963 69.4444 23.8612 68.8947 23.6823L68.8873 23.6799C58.6812 20.3008 47.6277 20.5127 39.0257 21.6128C34.7374 22.1612 31.0882 22.9264 28.5002 23.5586C27.2067 23.8746 26.1801 24.1569 25.4731 24.3615C24.8107 24.5533 24.4404 24.6735 24.3942 24.6885C24.3904 24.6898 24.3888 24.6903 24.3893 24.6901L24.3767 24.6945L24.364 24.6986C21.0766 25.7752 17.503 24.0245 16.4027 20.7151C15.3072 17.4199 17.0726 13.8653 20.3743 12.7574L20.3816 12.7549L20.3816 12.7549C20.9882 12.5549 27.9477 10.2737 37.8118 9.05061C47.6613 7.82937 60.5139 7.64934 72.8559 11.7384L72.8561 11.7385C76.1558 12.8323 77.9494 16.3942 76.8545 19.6943M70.5582 23.9907V24.2844L72.426 23.8118C74.4267 23.3057 76.1555 21.8129 76.8539 19.6961" fill="#123B68"/>
<path d="M65.6306 41.3178C64.7647 41.5416 63.8378 41.5213 62.9312 41.2263C42.0085 34.2992 23.6527 41.7959 23.4693 41.8773C21.0246 42.9046 18.2132 41.7552 17.1844 39.3038C16.1555 36.8626 17.3066 34.0551 19.7513 33.0278C20.6375 32.6616 41.6519 24.0765 65.9463 32.1225C68.4624 32.9566 69.8273 35.6724 68.9921 38.1849C68.4624 39.7921 67.1483 40.9313 65.6204 41.3178H65.6306Z" fill="#B4E2FA" stroke="#123B68" stroke-width="3" stroke-miterlimit="10"/>
<path d="M111.357 45.7021C113.272 42.8743 115.156 39.8939 117.02 36.761C119.72 32.204 118.212 26.3247 113.649 23.6291C110.359 21.6863 106.386 21.9304 103.411 23.9343C104.012 22.7747 103.911 22.9679 107.741 15.512C110.165 10.8024 108.321 5.02476 103.605 2.60385C98.8887 0.182948 93.1029 2.03423 90.6786 6.73363L87.1337 13.6403C88.0811 3.44812 74.5027 -0.844411 69.3178 7.89322C69.2873 7.95426 69.2465 8.00512 69.216 8.06615C68.0547 10.0191 66.9546 11.8908 65.8952 13.7014C57.2776 28.4201 52.0724 37.3103 41.3054 43.8711C33.1767 48.8248 27.564 44.4509 29.6217 33.7705C31.8627 22.1644 32.6572 18.4516 32.922 17.3022C32.922 17.2819 32.922 17.2717 32.9322 17.2513C34.8574 11.5958 31.0987 5.4418 25.1193 4.63823C20.8716 4.0686 17.6629 5.78765 15.5849 9.29694C11.4187 16.3155 7.13024 28.4099 2.83161 45.2342C-1.81336 63.4011 6.20328 82.7378 22.3181 92.2587L38.4736 101.8C48.7924 107.893 60.8122 109.286 71.8135 106.469C80.7876 104.17 89.0691 99.0739 95.1809 91.4551L119.373 61.265C122.684 57.1352 122.012 51.1033 117.876 47.7873C115.961 46.2513 113.639 45.5902 111.357 45.7122V45.7021Z" fill="#3278CD"/>
<path fill-rule="evenodd" clip-rule="evenodd" d="M89.3456 6.04616C92.1502 0.609647 98.8398 -1.52805 104.29 1.26963C109.746 4.0701 111.877 10.7533 109.075 16.1976C107.952 18.3841 107.167 19.9129 106.603 21.0111C109.186 20.4939 111.962 20.8915 114.412 22.3377C119.689 25.455 121.433 32.2553 118.311 37.5257L118.31 37.5282C116.896 39.9046 115.469 42.1959 114.025 44.4018C115.722 44.7294 117.368 45.4572 118.815 46.6174C123.594 50.4496 124.375 57.4247 120.544 62.2033C120.544 62.2033 120.544 62.2032 120.544 62.2033L96.3515 92.3934C90.0278 100.276 81.4607 105.546 72.1858 107.922C60.8177 110.834 48.3874 109.396 37.711 103.092L21.5554 93.5505C4.86525 83.6897 -3.43142 63.6747 1.37843 44.8628C5.68149 28.0213 10.0115 15.7486 14.2943 8.5329C15.4526 6.57684 16.9724 5.04517 18.8672 4.09685C20.766 3.1465 22.9403 2.83282 25.3188 3.15177C32.2091 4.07777 36.5401 11.126 34.3825 17.6449C34.1232 18.7711 33.3323 22.4655 31.0947 34.0545C30.0971 39.2323 31.0892 42.2638 32.6064 43.5335C34.0263 44.7217 36.6683 44.9407 40.5249 42.5905C50.9148 36.2594 55.9464 27.7253 64.6006 12.9441C65.6553 11.1415 66.7512 9.27705 67.9079 7.33137C67.9253 7.29953 67.9414 7.27201 67.9548 7.24961C67.971 7.22266 67.9867 7.19789 67.996 7.18315L68.0006 7.17402L68.0279 7.12799C73.0577 -1.34825 84.9774 0.77299 87.9841 8.69876L89.3441 6.04894L89.3456 6.04616ZM34.4221 17.3024C34.4221 17.2875 34.4227 17.2956 34.4221 17.3189V17.3024ZM92.0129 7.41919C92.0125 7.41998 92.0121 7.42078 92.0117 7.42157L84.9213 21.2363L85.6402 13.5017C86.4346 4.95563 75.0284 1.27096 70.6256 8.62921C70.6084 8.66074 70.5925 8.68801 70.5791 8.71024C70.5629 8.7372 70.5473 8.76198 70.5379 8.77672L70.533 8.78642L70.5053 8.833C69.3465 10.7819 68.2483 12.6503 67.19 14.4591L67.0663 14.6703C58.557 29.2042 53.1764 38.3943 42.0861 45.1523C37.8139 47.7557 33.5853 48.2646 30.6811 45.8342C27.8742 43.4852 27.0887 38.9895 28.1488 33.4869C30.3353 22.1634 31.1493 18.3298 31.4398 17.0555C31.4411 17.0471 31.4424 17.0386 31.4439 17.03C31.4631 16.9146 31.4932 16.8135 31.526 16.7278C33.1171 11.9718 29.9422 6.80037 24.92 6.12515M92.0129 7.41919C94.0577 3.45865 98.9386 1.89482 102.92 3.93855C106.897 5.9797 108.453 10.851 106.407 14.8257L106.407 14.8268C105.17 17.234 104.343 18.8437 103.771 19.9588C102.569 22.2992 102.486 22.4611 102.08 23.2443L99.3754 28.4623L104.25 25.1785C106.762 23.486 110.112 23.2829 112.886 24.921C116.735 27.1945 118.006 32.1517 115.731 35.995C113.88 39.1053 112.012 42.0604 110.115 44.8612L109.857 45.2422V47.2949L111.437 47.2103C113.375 47.1067 115.329 47.6672 116.938 48.9577C120.43 51.7575 120.994 56.8461 118.203 60.3271L94.011 90.5168C88.1111 97.8713 80.1147 102.794 71.4413 105.016C60.8069 107.74 49.1975 106.39 39.2364 100.509L23.0811 90.9675C7.54169 81.7865 -0.195152 63.1281 4.28493 45.606C8.57885 28.8002 12.8255 16.8845 16.8748 10.0628L16.8757 10.0615C17.7954 8.50823 18.9189 7.42572 20.2099 6.77961C21.4967 6.13556 23.051 5.87458 24.92 6.12515" fill="#123B68"/>
<path d="M89.9858 21.2492C89.7312 21.3102 89.4663 21.3204 89.2015 21.2492C86.5632 20.588 82.5498 21.4526 80.431 23.1412C79.7384 23.6904 78.7299 23.5786 78.1799 22.8869C77.6298 22.1952 77.7419 21.1983 78.4345 20.6389C81.3274 18.34 86.4002 17.2415 89.9858 18.1468C90.8415 18.3604 91.361 19.2352 91.1471 20.0896C90.9943 20.6796 90.5461 21.1068 89.996 21.2492H89.9858Z" fill="#B4E2FA"/>
<path d="M104.542 31.1056C104.287 31.1667 104.022 31.1768 103.758 31.1056C101.13 30.4445 97.106 31.3091 94.9872 32.9976C94.2945 33.5469 93.2861 33.435 92.736 32.7433C92.186 32.0516 92.298 31.0548 92.9907 30.4953C95.8836 28.1965 100.956 27.0979 104.542 28.0032C105.398 28.2168 105.917 29.0916 105.703 29.946C105.55 30.536 105.102 30.9632 104.552 31.1056H104.542Z" fill="#B4E2FA"/>
<path d="M112.019 52.6396C111.754 52.7108 111.469 52.7108 111.184 52.6294C108.576 51.8869 104.532 52.6294 102.362 54.2468C101.659 54.7757 100.651 54.6333 100.121 53.9314C99.5916 53.2296 99.7342 52.2226 100.447 51.6936C103.411 49.4762 108.515 48.5403 112.07 49.5575C112.915 49.8017 113.414 50.6866 113.17 51.5309C113.007 52.1005 112.559 52.4972 112.029 52.6396H112.019Z" fill="#B4E2FA"/>
<path d="M100.559 37.2799C100.559 37.2799 100.518 37.2901 100.498 37.2901C99.6321 37.4731 98.7866 36.9239 98.593 36.0694L96.403 25.9179C96.2196 25.0533 96.7799 24.1989 97.6253 24.0259C98.4912 23.8428 99.3366 24.3921 99.52 25.2466L101.71 35.3879C101.893 36.2322 101.374 37.0561 100.549 37.2697L100.559 37.2799Z" fill="#B4E2FA"/>
<path d="M107.853 58.6918C107.853 58.6918 107.782 58.7122 107.741 58.7122C106.875 58.8749 106.04 58.2951 105.877 57.4305L104.002 47.2179C103.839 46.3533 104.41 45.5091 105.286 45.3565C106.152 45.1937 106.987 45.7735 107.15 46.6381L109.024 56.8507C109.177 57.6848 108.658 58.4782 107.853 58.6816V58.6918Z" fill="#B4E2FA"/>
<path d="M86.0029 27.4234C86.0029 27.4234 85.9621 27.4336 85.9417 27.4336C85.0759 27.6167 84.2304 27.0674 84.0369 26.213L81.8468 16.0615C81.6635 15.1968 82.2237 14.3526 83.0692 14.1695C83.935 13.9864 84.7805 14.5357 84.9639 15.3901L87.1539 25.5315C87.3373 26.3757 86.8178 27.1997 85.9927 27.4133L86.0029 27.4234Z" fill="#B4E2FA"/>
<path d="M60.8634 54.1145C60.3235 54.2569 59.7225 54.1145 59.3151 53.6771C58.7039 53.0363 58.7243 52.0293 59.3558 51.4189C66.7002 44.3698 72.9444 36.3951 78.4246 27.037C78.8728 26.2741 79.8507 26.0198 80.6147 26.4674C81.3787 26.9149 81.6333 27.8914 81.1851 28.6543C75.5521 38.2667 69.1347 46.4754 61.5663 53.728C61.3625 53.9212 61.1181 54.0535 60.8532 54.1247L60.8634 54.1145Z" fill="#B4E2FA"/>
<path d="M75.9086 63.0044C75.3993 63.1367 74.839 63.0044 74.4316 62.6383C73.7796 62.0381 73.7389 61.0311 74.3297 60.3801C82.7946 51.1644 87.6229 44.6951 92.6549 37.2696C93.1439 36.5372 94.1421 36.344 94.8755 36.8424C95.609 37.3408 95.8025 38.3275 95.3034 39.0599C90.3324 46.404 85.2597 53.2089 76.6929 62.5467C76.479 62.7807 76.204 62.9434 75.9086 63.0146V63.0044Z" fill="#B4E2FA"/>
<path d="M89.7418 73.3393C89.2223 73.4715 88.6519 73.3393 88.2342 72.9425C87.6027 72.3322 87.5823 71.315 88.1935 70.6844C91.1068 67.6735 94.7535 63.4217 99.0419 58.0611C99.592 57.3694 100.6 57.2575 101.293 57.8068C101.986 58.3561 102.098 59.3631 101.548 60.0548C97.1982 65.4967 93.4802 69.8198 90.4956 72.9019C90.2817 73.1256 90.0168 73.268 89.7418 73.3393Z" fill="#B4E2FA"/>
<path d="M10.2068 43.912C9.97247 43.973 9.71781 43.9832 9.46316 43.9221C8.59732 43.7289 8.05744 42.8846 8.2408 42.02C10.7874 30.4647 14.4341 21.7678 16.614 16.57C16.9705 15.7155 17.2964 14.9425 17.5715 14.261C17.9076 13.4472 18.8346 13.0505 19.6495 13.376C20.4644 13.7117 20.8617 14.6373 20.5357 15.4511C20.2505 16.1428 19.9245 16.926 19.5578 17.8008C17.4187 22.8969 13.8331 31.4311 11.3578 42.7015C11.2254 43.3118 10.7568 43.7594 10.1966 43.9018L10.2068 43.912Z" fill="#B4E2FA"/>
<path d="M74.9407 77.6318C74.4416 77.7641 73.8813 77.642 73.4739 77.2758C69.6235 73.8174 62.8597 72.2407 56.2182 73.2579C49.5564 74.2751 44.0558 77.6929 41.1323 82.6364C40.6841 83.3891 39.696 83.6434 38.9422 83.1958C38.1782 82.7483 37.9338 81.7718 38.382 81.0089C41.8046 75.2414 48.1303 71.2642 55.7395 70.1046C63.3996 68.9349 71.0088 70.776 75.613 74.9058C76.2649 75.4957 76.3261 76.5027 75.7353 77.1639C75.5213 77.408 75.2361 77.5708 74.9407 77.642V77.6318Z" fill="#B4E2FA"/>
<path d="M67.4336 20.9541C74.5233 24.1379 79.6572 29.9867 82.2038 36.7714C84.7097 43.6069 84.6282 51.3985 81.3584 58.5697C78.1191 65.7002 72.2314 70.898 65.4269 73.502C58.5817 76.0755 50.7993 76.0653 43.6689 72.851C36.5792 69.6672 31.4453 63.8184 28.8987 57.0236C26.3929 50.1881 26.4744 42.3964 29.7442 35.2252C32.9834 28.0948 38.861 22.8969 45.6756 20.2929C52.5208 17.7195 60.3032 17.7296 67.4336 20.9439V20.9541ZM79.3109 37.8801C77.0495 31.7872 72.4759 26.6097 66.1196 23.7514C59.7939 20.8524 52.857 20.8524 46.7554 23.1817C40.6436 25.5009 35.4384 30.1291 32.5352 36.5272C29.5812 42.8948 29.5303 49.832 31.7916 55.9352C34.053 62.0281 38.6267 67.2056 44.9829 70.0639C51.3087 72.9629 58.2456 72.9629 64.3472 70.6437C70.4284 68.3652 75.6642 63.6963 78.5673 57.2982C81.5111 50.9408 81.5723 43.9934 79.3109 37.8903V37.8801Z" fill="#123B68"/>
<path fill-rule="evenodd" clip-rule="evenodd" d="M66.1196 23.7513C59.7939 20.8523 52.857 20.8523 46.7554 23.1816C40.6436 25.5008 35.4384 30.129 32.5352 36.5271C29.5812 42.8947 29.5303 49.8319 31.7916 55.9351C34.053 62.028 38.6267 67.2055 44.983 70.0638C51.3087 72.9628 58.2456 72.9628 64.3472 70.6436C70.4284 68.3651 75.6642 63.6962 78.5673 57.2981C81.5112 50.9407 81.5723 43.9933 79.3109 37.8902C77.0495 31.7972 72.4759 26.6197 66.1196 23.7614V23.7513Z" fill="white"/>
<g opacity="0.5">
<path d="M54.4564 35.3879C53.9369 35.1438 53.2748 34.9912 52.5923 34.9607C52.6228 34.208 52.6534 33.5366 52.6534 32.8246C53.1322 32.7839 53.5804 32.7737 53.9674 32.8551C54.5073 32.9873 55.0879 32.6211 55.1796 32.0515C55.312 31.5022 54.9759 31.0038 54.4258 30.8716C53.8554 30.78 53.2137 30.78 52.5515 30.8207C52.521 30.1596 52.4395 29.4577 52.3376 28.8067C52.8164 28.766 53.2646 28.7558 53.6517 28.8474C54.1915 28.9796 54.7314 28.5829 54.8638 28.0438C54.9555 27.464 54.6092 26.9656 54.0693 26.8334C53.3766 26.7316 52.6738 26.7418 51.9404 26.7927C51.8181 26.2536 51.6755 25.6432 51.5125 25.0736C51.9098 24.9719 52.3376 24.8905 52.7553 24.9312C53.3155 24.9516 53.7637 24.4938 53.7841 23.9344C53.8452 23.4054 53.4276 22.9172 52.8673 22.8968C52.2358 22.8968 51.5329 22.9782 50.8199 23.1715C50.6874 22.8256 50.5143 22.4391 50.3818 22.0933C49.6994 22.2458 49.0169 22.3984 48.3751 22.5917C48.5891 22.9986 48.7317 23.4258 48.9048 23.8021C47.9575 24.148 47.3056 24.5243 47.3056 24.5243C46.7963 24.799 46.6435 25.4602 46.9389 25.9281C47.1935 26.3654 47.8251 26.5587 48.2937 26.2536C48.2937 26.2536 48.803 25.9789 49.5058 25.7043C49.6892 26.1518 49.7707 26.6604 49.9337 27.1589C49.0373 27.3521 48.3955 27.5352 48.365 27.5759C47.8658 27.7387 47.5908 28.3083 47.713 28.8474C47.9066 29.3763 48.4464 29.6916 49.0169 29.5187C49.0169 29.5187 49.5466 29.3153 50.3004 29.1525C50.4124 29.8035 50.5143 30.4545 50.5448 31.1259C49.4956 31.3395 48.752 31.5836 48.752 31.5836C48.2223 31.7871 47.9066 32.3262 48.0696 32.8958C48.2631 33.4247 48.8335 33.6994 49.3327 33.5366C49.3327 33.5366 49.9031 33.3637 50.6161 33.1704C50.5958 33.7299 50.5754 34.2995 50.555 34.859C49.5466 34.8488 48.7826 34.9403 48.7826 34.9403C48.2325 35.0014 47.7945 35.5201 47.8455 36.0694C47.8964 36.6187 48.3751 37.0256 48.9252 36.9645C48.9659 36.9951 49.5466 36.8933 50.3309 36.873C50.2698 37.4019 50.1374 37.9512 50.0253 38.4496C49.0373 38.3174 48.3242 38.3276 48.3242 38.3276C47.7232 38.2869 47.275 38.7344 47.2139 39.2634C47.1935 39.8228 47.6112 40.3111 48.1409 40.3721C48.1409 40.3721 48.7011 40.3823 49.4956 40.4331C49.3632 40.9824 49.19 41.491 48.966 41.9793C47.9982 41.7351 47.2241 41.5724 47.2241 41.5724C46.6842 41.4402 46.1749 41.786 46.0425 42.3353C45.91 42.8846 46.2666 43.4542 46.837 43.5356C46.837 43.5356 47.3769 43.6678 48.1612 43.9018C47.8251 44.5528 47.4787 45.2139 47.1426 45.8649C46.5314 45.3055 46.124 44.8884 46.1545 44.8376C45.798 44.451 45.1155 44.4205 44.7284 44.7867C44.3108 45.1936 44.2599 45.8039 44.6368 46.2616C44.6368 46.2616 45.2174 46.8719 46.0425 47.584C45.7063 48.0519 45.3804 48.5198 45.034 48.9165C44.4432 48.235 44.0867 47.6653 44.0867 47.6653C43.7098 47.2076 43.0986 47.0957 42.6402 47.4721C42.2124 47.8077 42.0902 48.4282 42.4161 48.8555C42.4161 48.8555 42.9458 49.6183 43.7302 50.4931C43.282 50.9407 42.8643 51.3476 42.4773 51.7137C42.0189 50.9305 41.754 50.2388 41.754 50.2388C41.5299 49.7607 40.9595 49.4861 40.3992 49.7302C39.8696 49.9337 39.6353 50.5338 39.8696 51.0221C39.839 51.0627 40.2566 51.9986 40.878 53.0869C40.3891 53.504 39.8288 53.9414 39.2482 54.2974C38.8102 53.4023 38.4537 52.6394 38.4537 52.6394C38.2601 52.1105 37.6591 51.8867 37.1294 52.0901C36.5997 52.2935 36.3655 52.8937 36.559 53.4226C36.559 53.4226 36.9257 54.3279 37.5471 55.3451C37.3943 55.4367 37.2211 55.5282 37.0581 55.6197C36.7525 55.7723 36.4368 55.9147 36.1414 56.0673C35.7543 55.0908 35.5302 54.1652 35.5302 54.1652C35.4079 53.6261 34.8681 53.3107 34.2976 53.4837C33.7577 53.6159 33.442 54.155 33.5642 54.6941C33.5642 54.6941 33.7985 55.7011 34.2671 56.9217C33.6661 57.1354 33.0651 57.349 32.4233 57.5321C32.4539 57.5829 32.4743 57.6338 32.5048 57.6948V57.7152L32.5252 57.7355C32.5252 57.7355 32.5252 57.7558 32.5354 57.766V57.8169L32.5659 57.8372C32.5965 57.8881 32.6169 57.9491 32.6474 58V58.0305H32.6678C32.6678 58.0407 32.678 58.0508 32.6882 58.0712L32.6678 58.1017L32.7086 58.1322L32.7595 58.2339C32.7595 58.2339 32.7799 58.2644 32.7799 58.2848V58.3051L32.8002 58.3356V58.3967L32.8817 58.4984C32.8817 58.5187 32.9021 58.5289 32.9021 58.5492V58.6103L32.9428 58.6306C32.9428 58.6408 32.953 58.6611 32.9632 58.6713L33.0141 58.8137L33.0549 58.8442C33.0549 58.8442 33.0549 58.8442 33.0549 58.8544V58.9154L33.1058 58.9459C33.1262 58.9866 33.1466 59.0172 33.1669 59.0578V59.1189L33.2179 59.1494C33.2179 59.1494 33.2179 59.1494 33.2179 59.1596L33.279 59.3223L33.3197 59.3528C33.9309 59.2104 34.4912 58.9663 35.082 58.7527C35.3672 59.1494 35.6117 59.5156 35.9376 59.8716C36.2941 60.2581 36.9359 60.2581 37.3535 59.8512C37.7406 59.4851 37.7508 58.8544 37.3841 58.4679C37.2415 58.3051 37.1091 58.1424 36.9563 57.9084C37.5165 57.6643 38.0564 57.349 38.6064 57.0235C38.9833 57.4812 39.3399 57.8677 39.6862 58.1831C39.9816 58.3967 40.3279 58.4475 40.603 58.3255C40.603 58.3255 40.603 58.3255 40.5928 58.3255C40.7965 58.2644 40.9799 58.1627 41.1021 57.9898C41.479 57.5524 41.3669 56.9014 40.9391 56.525C40.7659 56.403 40.5419 56.1792 40.3687 55.9859C40.8984 55.5994 41.4382 55.2027 41.9985 54.7755C42.2837 55.1722 42.6504 55.5587 42.9866 55.7927C43.4551 56.1283 44.0765 56.0571 44.4025 55.5892C44.7794 55.1518 44.6673 54.5008 44.2089 54.1652C43.995 54.0126 43.7302 53.7583 43.5366 53.4938C44.0867 52.9852 44.5655 52.497 45.0748 51.9579C45.5128 52.3342 45.9712 52.6597 46.4092 52.8428C46.9389 53.087 47.5297 52.8733 47.7538 52.3851C47.9982 51.8562 47.7945 51.256 47.2648 51.0119C46.9796 50.8695 46.6842 50.666 46.4194 50.4118C46.8268 49.9337 47.2241 49.3742 47.6112 48.8249C48.1205 49.181 48.6807 49.4556 49.2002 49.6285C49.7096 49.8014 50.3309 49.4658 50.4633 48.9267C50.6365 48.4079 50.3615 47.8281 49.8114 47.6959C49.4549 47.5738 49.0882 47.3704 48.7113 47.1059C49.19 46.3532 49.6077 45.4987 50.0253 44.6443C50.4226 44.7969 50.83 45.0308 51.0949 45.2851C51.5329 45.6615 52.1543 45.5903 52.4904 45.1936C52.9081 44.7867 52.8775 44.1154 52.4395 43.7492C52.0015 43.3728 51.431 43.027 50.7893 42.7625C51.0541 42.1217 51.2477 41.491 51.4514 40.8604C51.9505 40.9621 52.3478 41.1147 52.7145 41.3181C53.1831 41.6436 53.8248 41.4605 54.0795 41.0129C54.3749 40.5145 54.2323 39.9042 53.7739 39.5685C53.2748 39.2837 52.6127 39.0599 51.9811 38.8667C52.1033 38.2462 52.2154 37.5647 52.3071 36.9849C52.796 37.0154 53.2238 37.1273 53.5804 37.2493C54.11 37.4935 54.6601 37.2493 54.9148 36.7204C55.1694 36.1915 54.8842 35.6015 54.3953 35.3879H54.4564Z" fill="#B4E2FA"/>
<path d="M76.2753 36.171C76.9476 35.9472 77.6199 35.7132 78.3024 35.5606C78.007 34.8995 77.681 34.2892 77.3245 33.7195C76.6828 33.9026 76.1124 34.0755 75.491 34.3298C75.1956 33.6687 74.7983 33.0685 74.401 32.6515C73.9936 32.2344 73.362 32.2344 72.975 32.6006C72.5573 33.0075 72.5471 33.6382 72.9138 34.0247C73.1889 34.3502 73.3926 34.6859 73.6473 35.052C73.087 35.2962 72.5777 35.5708 72.0276 35.8861C71.5896 35.2555 71.0905 34.7062 70.6117 34.2993C70.1432 33.9738 69.5218 34.045 69.1958 34.5028C68.8189 34.9402 68.9208 35.5912 69.3894 35.9268C69.6542 36.1811 70.0005 36.4965 70.2552 36.8626C69.6848 37.2187 69.1449 37.6154 68.5846 38.0426C68.1976 37.5136 67.7799 37.0254 67.3215 36.6897C66.853 36.3642 66.2316 36.4252 65.9056 36.8932C65.5695 37.3611 65.6306 37.9815 66.0992 38.3172C66.4353 38.5613 66.7104 38.8868 67.0058 39.2835C66.4863 39.7413 65.9668 40.2092 65.488 40.6974C64.9685 40.2702 64.4184 39.8735 63.8989 39.6294C63.41 39.3446 62.7784 39.5989 62.5543 40.0871C62.3099 40.6161 62.5136 41.2162 63.0433 41.4603C63.3692 41.6332 63.7461 41.8977 64.1027 42.213C63.6952 42.6911 63.2572 43.2201 62.9007 43.7287C62.2793 43.3523 61.6987 43.0064 61.1181 42.8437C60.6087 42.6708 60.0587 42.9861 59.855 43.5456C59.6818 44.0643 59.9568 44.6441 60.5476 44.8069C60.9041 44.9289 61.3116 45.1629 61.7191 45.3867C61.3625 45.9665 61.0162 46.5564 60.7004 47.1667C60.0892 46.8616 59.4679 46.6683 58.8567 46.6276C58.2863 46.5361 57.7566 46.9328 57.6853 47.4617C57.6343 48.072 58.0112 48.5298 58.5817 48.6111C58.928 48.662 59.3558 48.7739 59.7938 48.957C59.4169 49.8419 59.0401 50.7269 58.7345 51.6017C58.3066 51.4898 57.9094 51.3372 57.614 51.1236C57.125 50.8388 56.5138 50.9812 56.2184 51.4796C55.923 51.978 56.0656 52.5883 56.5546 52.8732C56.9722 53.1681 57.5732 53.4021 58.164 53.5648C58.0112 54.226 57.889 54.8363 57.7668 55.4568C57.3899 55.4568 57.0333 55.3246 56.7278 55.2229C56.249 55.0093 55.648 55.2229 55.3933 55.7518C55.1692 56.24 55.4239 56.8605 55.9027 57.0843C56.3814 57.2979 56.9315 57.4302 57.4612 57.4912C57.3899 58.2134 57.3695 58.9559 57.3695 59.668C56.9926 59.668 56.6666 59.6781 56.3916 59.6171C55.8517 59.4849 55.2711 59.8511 55.1794 60.4207C55.0776 60.9293 55.4239 61.4989 55.9332 61.6006C56.3916 61.6718 56.8805 61.7023 57.4 61.682C57.4306 62.3432 57.4714 63.0145 57.5427 63.7062C57.2371 63.6859 56.9824 63.696 56.7074 63.6248C56.2082 63.5231 55.6582 63.8486 55.5258 64.3877C55.4341 64.9573 55.7499 65.5066 56.3203 65.5982C56.7889 65.7406 57.3084 65.7202 57.8992 65.6999C57.9909 66.2797 58.1335 66.89 58.3066 67.5308C58.0418 67.5308 57.8584 67.5308 57.6445 67.5715C57.0741 67.48 56.5953 67.9784 56.575 68.5378C56.5138 69.0668 57.0028 69.5449 57.5325 69.6059C57.9807 69.6059 58.4594 69.555 58.9178 69.4431C59.203 70.2874 59.5188 71.091 59.9161 71.8844L60.0587 71.864H60.13V71.8437C60.1504 71.8437 60.1605 71.8437 60.1809 71.8335H60.1911L60.3337 71.8132L60.3541 71.7928C60.3541 71.7928 60.3745 71.7928 60.3846 71.7928L60.405 71.8132L60.4254 71.7928C60.4254 71.7928 60.4458 71.7928 60.4559 71.7928L60.4865 71.8132L60.5069 71.7827C60.5069 71.7827 60.5374 71.7827 60.5476 71.7827H60.6291L60.6495 71.7623C60.6495 71.7623 60.6495 71.7623 60.6597 71.7623L60.7004 71.7928L60.731 71.7521L60.7717 71.7827L60.8023 71.742L60.9449 71.7216H61.0162L61.0875 71.7013L61.1486 71.6708C61.1486 71.6708 61.1894 71.6708 61.2097 71.6606L61.2403 71.6809L61.2607 71.6504C61.2607 71.6504 61.2709 71.6504 61.281 71.6504L61.3116 71.6708L61.3422 71.6301C61.3422 71.6301 61.3829 71.6301 61.4033 71.6199H61.4135L61.5561 71.5894H61.6274L61.7292 71.5385C61.7598 71.5385 61.7802 71.5284 61.8107 71.5182L61.8413 71.5385L61.8719 71.4979C61.8719 71.4979 61.9228 71.4877 61.9533 71.4775C61.5255 70.6536 61.1588 69.8297 60.8736 68.9752C62.0959 68.5073 63.0229 68.0089 63.0229 68.0089C63.5322 67.7343 63.685 67.0731 63.3896 66.6052C63.135 66.1678 62.5034 65.9745 62.0348 66.2797C62.0348 66.2797 61.2403 66.6764 60.2624 67.0731C60.1402 66.534 59.9874 66.0356 59.855 65.4964C61.0468 65.2523 61.9635 64.9472 61.9635 64.9472C62.4627 64.7844 62.809 64.2046 62.6155 63.6757C62.4525 63.1061 61.882 62.8314 61.3523 63.0349C61.3523 63.0349 60.5374 63.2892 59.5596 63.4926C59.4475 62.8416 59.4169 62.1702 59.3864 61.5091C60.6495 61.2548 61.5663 60.9496 61.5968 60.8988C62.1367 60.7665 62.4117 60.1969 62.2487 59.6273C62.096 59.1289 61.5153 58.783 60.9856 58.9865C60.9856 58.9865 60.242 59.2306 59.3355 59.4238C59.3558 58.8644 59.4068 58.2541 59.4984 57.6845C60.6189 57.715 61.5357 57.5929 61.5357 57.5929C62.0858 57.5319 62.5238 57.0131 62.4728 56.4638C62.4219 55.9145 61.9432 55.5077 61.3931 55.5687C61.3931 55.5687 60.7004 55.6501 59.804 55.6501C59.8651 55.1211 59.9976 54.5719 60.1402 54.0226C61.1996 54.1345 61.9941 54.1853 62.0654 54.1752C62.5951 54.2362 63.084 53.809 63.1044 53.2495C63.1553 52.6494 62.7071 52.2018 62.1774 52.1408C62.1774 52.1408 61.5459 52.1408 60.7412 52.0187C60.9653 51.3474 61.2607 50.6659 61.5663 49.9742C62.1978 50.4217 62.7071 50.7879 62.7071 50.7879C63.1655 51.1134 63.8276 51.0015 64.1536 50.5336C64.4592 50.1064 64.3471 49.4554 63.8887 49.1197C63.8887 49.1197 63.3285 48.662 62.4219 48.1432C62.7173 47.6448 62.972 47.1871 63.2674 46.6887C63.8378 47.2278 64.2045 47.6041 64.2045 47.6041C64.5305 48.0314 65.213 48.0619 65.6306 47.655C66.0584 47.3193 66.0992 46.6378 65.6917 46.2309C65.6917 46.2309 65.1926 45.6816 64.449 45.0307C64.7546 44.6034 65.0806 44.1355 65.4269 43.7388C65.9362 44.3593 66.2825 44.8577 66.2825 44.8577C66.6085 45.2849 67.2604 45.3561 67.6882 45.0205C68.1568 44.7153 68.2383 44.0643 67.9123 43.6371C67.9123 43.6371 67.4743 43.0064 66.8224 42.2232C67.24 41.8163 67.6271 41.4502 68.0142 41.084C68.3809 41.7248 68.5745 42.2537 68.5745 42.2537C68.7986 42.7318 69.369 43.0166 69.9292 42.7623C70.4589 42.5589 70.6932 41.9587 70.4997 41.4298C70.4997 41.4298 70.1941 40.6974 69.6644 39.7413C70.1941 39.3547 70.7747 38.9886 71.3044 38.602C71.6813 39.3242 71.885 39.843 71.885 39.843C72.0786 40.3719 72.6796 40.5957 73.2092 40.3923C73.7389 40.1888 73.9732 39.5887 73.7797 39.0598C73.7797 39.0598 73.525 38.4291 73.0972 37.6154C73.5454 37.3509 73.9936 37.1576 74.401 36.944C74.6761 37.7171 74.8391 38.2867 74.8391 38.2867C74.9613 38.8258 75.5012 39.1411 76.041 39.0089C76.5809 38.8767 76.8967 38.3376 76.7745 37.7984C76.7745 37.7984 76.6319 37.1169 76.2855 36.171H76.2753Z" fill="#B4E2FA"/>
</g>
</g>
<defs>
<clipPath id="clip0_39_488">
<rect width="123" height="116" fill="white"/>
</clipPath>
</defs>
</svg>
