<svg width="203" height="203" viewBox="0 0 203 203" fill="none" xmlns="http://www.w3.org/2000/svg">
<g opacity="0.46">
<path d="M149.243 153.053C178.543 125.983 180.83 80.7637 154.35 52.0532C127.87 23.3428 82.6506 22.0132 53.3499 49.0835C24.0493 76.1538 21.7627 121.373 48.2428 150.084C74.7229 178.794 119.942 180.124 149.243 153.053Z" stroke="white" stroke-width="3.71" stroke-miterlimit="10"/>
<path d="M118.172 127.874C118.959 121.841 117.435 115.42 115.342 109.307C113.758 104.7 111.805 100.153 109.544 95.7261C112.901 92.5652 116.279 89.4241 119.666 86.2931C121.878 84.2589 124.09 82.2248 126.312 80.2006C131.104 84.4584 135.079 89.7333 137.53 95.3671C139.562 100.044 146.188 98.8272 144.574 93.9113C142.223 86.7618 138.038 80.1108 132.638 74.6465C134.262 73.2305 135.836 71.7548 137.112 70.0895C139.542 66.9286 135.557 61.3246 131.702 63.4486C129.34 64.7448 127.218 66.5597 125.166 68.4044C123.492 67.2676 121.759 66.2107 119.965 65.3032C109.514 59.9685 91.1622 56.7278 89.0002 70.7177C88.1534 76.1821 90.8334 81.8359 93.8622 86.8615C95.1574 89.0053 96.4725 91.1293 97.7378 93.2532C97.13 93.8315 96.5124 94.4198 95.9046 94.9982C90.2755 100.383 84.7162 105.847 79.2366 111.381C78.8779 111.75 78.5192 112.119 78.1605 112.488C75.331 108.19 73.0595 103.633 70.9473 98.907C68.347 93.1136 60.3069 94.5794 62.1799 100.712C64.1128 107.054 67.7293 113.425 71.8141 119.009C71.4654 119.368 71.1068 119.727 70.7581 120.096C69.4629 121.442 68.1776 122.799 66.8924 124.165C65.3183 125.84 63.6146 127.226 63.236 129.719C62.7777 132.69 65.7566 135.801 68.7156 135.183C71.0669 134.694 72.2127 133.169 73.747 131.553C75.1418 130.088 76.5365 128.612 77.9314 127.146C78.031 127.036 78.1307 126.937 78.2303 126.827C81.4782 130.347 85.0549 133.578 89.0002 136.14C94.7688 139.87 101.713 141.934 107.711 140.348C113.559 138.803 117.385 134.016 118.182 127.864L118.172 127.874ZM98.5548 75.2448C97.957 70.0098 104.622 69.9998 108.518 70.8075C111.835 71.4955 115.123 72.7818 118.252 74.5069C116.618 75.9328 114.974 77.3487 113.35 78.7946C110.351 81.457 107.392 84.1692 104.453 86.9113C102.002 83.2419 98.9932 79.1635 98.5548 75.2547V75.2448ZM101.046 131.025C94.6792 130.556 88.9305 125.391 84.3874 120.455C84.8257 120.007 85.2642 119.538 85.7025 119.089C91.2619 113.405 96.9009 107.811 102.62 102.297C102.958 103.015 103.287 103.733 103.596 104.461C106.744 111.84 114.406 132.002 101.046 131.025Z" fill="white"/>
<path d="M23.6233 62.222C41.2179 26.4046 83.8795 11.3477 118.909 28.5784C119.457 28.8476 119.995 29.1468 120.533 29.4359L131.792 34.9501L131.612 35.3091C131.542 35.2692 131.473 35.2293 131.403 35.1994C96.3631 17.9588 53.7116 33.0256 36.1169 68.843C19.6979 102.277 30.9362 141.964 61.0045 161.119L55.2061 158.277C20.1662 141.036 6.02868 98.0294 23.6233 62.222Z" stroke="white" stroke-width="3.71" stroke-linecap="round" stroke-linejoin="round"/>
</g>
</svg>
