<svg width="773" height="728" viewBox="0 0 773 728" fill="none" xmlns="http://www.w3.org/2000/svg">
<mask id="mask0_1_2432" style="mask-type:alpha" maskUnits="userSpaceOnUse" x="0" y="0" width="773" height="728">
<path fill-rule="evenodd" clip-rule="evenodd" d="M773 0H1V605.443H0V727.723L615.358 608H773V0Z" fill="url(#paint0_linear_1_2432)"/>
</mask>
<g mask="url(#mask0_1_2432)">
<path d="M186.24 916.056C181.45 915.376 167.11 913.635 144.85 913.635C132.03 913.635 118.54 914.205 104.72 915.326C100.29 865.646 106.64 801.999 123.11 731.107C134.98 680.017 152.23 625.205 169.67 582.98C171.87 596.288 180.3 627.846 194.82 681.028C208.15 729.836 221.92 780.296 222.7 792.353C215.5 802.349 194.79 834.898 190.9 852.549C190.89 852.599 190.88 852.649 190.87 852.709C186.86 888.079 186.31 909.912 186.24 916.056Z" fill="white"/>
<path d="M169.1 588.383C171.93 602.071 179.01 628.917 193.34 681.418C205.86 727.265 220 779.065 221.13 791.913C215.41 799.998 193.6 833.137 189.4 852.208C189.38 852.308 189.36 852.418 189.35 852.518C185.65 885.168 184.89 906.33 184.74 914.285C178.73 913.494 165.19 912.094 144.84 912.094C132.45 912.094 119.43 912.624 106.09 913.674C101.93 864.375 108.31 801.458 124.57 731.437C135.98 682.348 152.35 629.827 169.08 588.373M170.68 576.556C140.35 647.858 92.5902 802.959 103.32 916.956C119.26 915.616 133.16 915.145 144.83 915.145C172.61 915.145 187.73 917.817 187.73 917.817C187.73 917.817 187.55 895.264 192.36 852.869C196.32 834.898 217.81 801.599 224.22 792.803C223.41 770.08 167.26 584.581 170.67 576.556H170.68Z" fill="#123B68"/>
<path d="M195.75 665.558C195.75 665.558 182.89 731.457 175.15 758.363C167.4 785.269 155.33 802.389 151.49 820.86C147.65 839.331 146.82 890.911 144.63 914.735" stroke="#C9D1DC" stroke-width="3.04" stroke-linejoin="round"/>
<path d="M527.81 938.859C507.48 937.779 319.97 927.693 294.02 921.429C293.96 921.419 293.91 921.409 293.85 921.399C254.46 916.486 236.79 859.352 226.24 825.212C223.33 815.787 220.81 807.642 218.46 802.529C217.2 798.146 181.55 674.234 176.46 637.672C171.37 601.041 170.62 585.421 170.52 581.329L289.69 549.26C294.23 554.873 322.34 589.934 329.2 606.224C329.22 606.264 329.23 606.304 329.25 606.334C337.15 621.493 339.58 640.544 336.28 661.426C333.64 678.086 327.23 696.066 318.7 710.765C318.54 711.035 318.47 711.355 318.5 711.676C318.75 714.327 319.4 719.77 320.29 727.305C323.69 756.032 330.77 815.817 328.49 829.715C328.45 829.935 328.47 830.165 328.53 830.375C329.3 833.127 332.53 838.95 339.22 841.292L339.94 841.532C348.09 844.264 350.02 844.914 351.82 844.914C352.47 844.914 353.04 844.824 353.7 844.714C354.95 844.514 356.83 844.204 361.12 844.204C362.52 844.204 364.1 844.234 365.81 844.304C392.44 845.324 511.38 886.819 523.05 890.901L527.82 938.859H527.81Z" fill="white"/>
<path d="M289.13 550.981C295.14 558.445 321.28 591.325 327.79 606.814C327.82 606.894 327.86 606.964 327.9 607.044C335.65 621.913 338.03 640.634 334.77 661.196C332.16 677.676 325.82 695.476 317.37 710.015C317.05 710.565 316.91 711.205 316.97 711.836C317.22 714.507 317.87 719.95 318.76 727.495C322.15 756.152 329.21 815.797 326.97 829.485C326.9 829.925 326.92 830.375 327.04 830.806C327.14 831.166 329.6 839.561 338.73 842.753L339.43 842.993C347.97 845.855 349.75 846.455 351.79 846.455C352.56 846.455 353.22 846.345 353.92 846.235C355.12 846.035 356.93 845.744 361.1 845.744C362.48 845.744 364.04 845.775 365.73 845.845C391.57 846.835 505.73 886.488 521.61 892.042L526.11 937.268C498.56 935.797 319.56 926.052 294.36 919.968C294.25 919.938 294.14 919.918 294.02 919.908C277.26 917.817 263.14 906.14 250.83 884.217C240.18 865.246 233.25 842.813 227.67 824.782C224.76 815.377 222.24 807.232 219.87 802.019C218.15 796.035 182.99 673.683 177.95 637.482C173.27 603.822 172.27 587.953 172.06 582.51L289.11 551.011M290.23 547.559L168.96 580.188C168.96 580.188 168.79 593.726 174.94 637.902C180.16 675.474 217.01 803.079 217.01 803.079C227.9 826.643 242.37 916.536 293.64 922.93C321.4 929.634 529.48 940.5 529.48 940.5L524.44 889.81C524.44 889.81 394.27 843.893 365.84 842.803C364 842.733 362.43 842.703 361.09 842.703C354.5 842.703 353.38 843.413 351.78 843.413C350.18 843.413 348.12 842.703 339.68 839.871C332.68 837.42 330.29 831.156 329.96 829.985C332.85 812.365 321.25 724.793 319.99 711.556C335.26 685.27 348.58 640.164 330.58 605.643C322.98 587.583 290.23 547.539 290.23 547.539V547.559Z" fill="#123B68"/>
<path d="M242.69 560.326C242.69 560.326 266.96 732.468 285.93 817.318C304.91 902.168 331.19 897.425 364.46 900.827" stroke="#C9D1DC" stroke-width="3.03" stroke-linejoin="round"/>
<path d="M236.43 212.452C235.46 208.469 233.02 204.627 229.28 202.746C224.39 200.275 218.88 202.886 213.91 200.875C213.75 200.805 213.61 200.825 213.49 200.875C213.21 200.825 212.91 200.935 212.81 201.285C209.88 211.821 206.95 222.398 205.51 233.254C204.58 240.288 203.97 250.574 213.61 251.185C221.68 251.695 228.6 244.34 232.06 237.807C235.91 230.522 238.4 220.607 236.42 212.452H236.43Z" fill="#2874C5"/>
<path d="M332.97 193.271C324.06 162.452 280.44 165.844 256.85 166.865C230.48 170.647 221.09 194.972 215.9 218.916C214.24 226.58 213.01 234.205 211.79 241.109C209.9 254.867 207.71 266.404 218.09 277.81C228.14 288.847 270.51 289.047 284.56 285.755C287.17 286.165 302.35 276.53 304.93 271.377C311.66 257.959 316.36 241.779 322.34 227.981C327.39 216.314 336.84 205.688 332.97 193.261V193.271Z" fill="#F6D7B9" stroke="#013B83" stroke-width="2.41" stroke-miterlimit="10"/>
<path d="M436.08 386.254C431.63 386.704 427.24 388.325 423.36 390.587C419.82 392.658 416.68 395.239 414.25 397.991C413.67 398.651 413.08 399.302 412.5 399.962C400.08 413.91 388.94 425.367 382.63 435.473C381.03 438.034 379.75 440.516 378.81 442.927C378.79 442.997 378.75 443.087 378.72 443.157C377.53 446.319 376.22 449.711 375.78 453.093C375.54 455.104 376.12 457.096 378.43 457.846C381.13 458.737 384.43 457.666 386.9 456.585C387.18 456.475 387.43 456.355 387.69 456.235C390.02 455.155 393.47 452.773 396.34 450.592C397.74 449.531 398.99 448.521 399.91 447.75C408.78 440.136 416.48 432.091 424.03 423.386C426.29 420.774 427.2 416.542 429.81 414.2C430.95 413.18 432.17 412.179 433.37 411.169C437.88 407.366 442.36 403.374 443.54 397.491C444.49 392.688 442.75 385.574 436.08 386.264V386.254Z" fill="#123B68" stroke="#123B68" stroke-width="2.25" stroke-miterlimit="10"/>
<path d="M423.2 469.443C427.78 463.359 432.03 456.866 437.19 451.252C432.23 441.417 427.31 431.561 422.55 421.635C419.1 414.461 415.73 407.236 412.49 399.952C400.07 413.9 388.93 425.357 382.62 435.463C381.02 438.025 379.74 440.506 378.8 442.917C378.78 442.987 378.74 443.078 378.71 443.148C381.29 447.71 384.01 452.193 386.89 456.575C393.66 466.972 401.23 476.837 409.52 486.103C413.18 480.009 419.36 474.526 423.19 469.443H423.2Z" fill="#F6D7B9"/>
<path d="M171.07 578.157C169.8 573.804 165.94 560.166 164.09 549.15C160.63 528.538 160.48 507.105 160.34 486.383C160.19 464 160.03 440.856 155.71 418.583C155.69 418.463 155.65 418.343 155.59 418.233C155.43 417.893 155.28 417.553 155.12 417.222L154.79 416.492C154.75 416.402 154.7 416.322 154.65 416.252C142.99 399.822 140.87 372.886 140.94 368.263C141.01 363.18 141.2 357.747 142.06 352.554C142.4 350.433 142.84 348.492 143.4 346.591C144 344.55 144.8 342.458 145.78 340.367C150.53 330.171 158.83 321.276 165.53 314.662C175.54 304.796 186.09 298.102 196.91 294.78C199.72 293.92 202.77 293.459 205.72 293.009C209.88 292.389 214.18 291.738 218.15 289.957C222.83 287.846 226.75 284.564 230.54 281.392C232.02 280.152 233.54 278.881 235.07 277.71C245.54 269.695 254.72 268.875 267.42 267.734L267.97 267.684C269.31 268.925 272.35 272.837 272.39 274.008C270.02 280.272 267.66 286.545 265.29 292.809L263.62 297.252C263.44 297.732 263.51 298.282 263.82 298.693C264.11 299.083 264.56 299.313 265.04 299.313C265.07 299.313 265.11 299.313 265.14 299.313C265.14 299.313 266.13 299.233 266.34 299.223C273.09 298.803 279.95 298.592 286.72 298.592C300.19 298.592 313.77 299.433 327.09 301.074C327.15 301.074 327.21 301.084 327.28 301.084C327.61 301.084 327.94 300.974 328.2 300.774C328.29 300.704 328.39 300.654 328.49 300.614C328.87 300.484 329.41 300.424 330.16 300.424C330.66 300.424 331.17 300.454 331.66 300.474C332.09 300.494 332.51 300.514 332.89 300.524C334.78 300.544 336.71 300.654 338.64 300.844C341.9 301.154 345.16 301.694 348.34 302.435C350.64 302.975 353.12 303.395 355.74 303.846C361.6 304.846 367.65 305.887 372.15 308.288C385.45 315.382 393.55 325.618 399.47 333.083C401.49 335.634 403.24 337.836 404.82 339.417C411.49 346.09 419.36 350.813 429.6 354.295C431.4 354.906 433.2 355.486 435.01 356.076C441.63 358.218 448.47 360.419 454.55 363.991C452.35 376.258 444.18 386.444 428.88 395.99C428.81 396.04 428.74 396.09 428.68 396.14C409.53 413.13 390.59 434.603 376.58 455.175C366.36 447.51 356.27 434.753 348.13 424.457L346.46 422.345C343.56 418.693 341.55 415.111 339.96 412.089C339.7 411.599 339.2 411.289 338.65 411.279C338.64 411.279 338.62 411.279 338.61 411.279C338.08 411.279 337.58 411.559 337.3 412.019C332.91 419.354 327.9 426.518 323.06 433.442L322.43 434.342C310.91 450.822 301.03 465.941 296.87 484.012C294.52 494.218 289.18 519.062 287.51 530.229C286.17 539.194 285.13 546.458 284.76 549.04L171.06 578.157H171.07Z" fill="white"/>
<path d="M267.4 269.245C268.54 270.466 270.34 272.787 270.8 273.918C268.61 279.702 266.43 285.485 264.25 291.268L262.2 296.691C261.83 297.662 261.99 298.753 262.6 299.583C263.18 300.364 264.09 300.814 265.05 300.814C265.12 300.814 265.18 300.814 265.25 300.814C265.45 300.804 265.65 300.784 265.85 300.774C266.05 300.754 266.24 300.744 266.44 300.734C273.16 300.314 279.99 300.103 286.72 300.103C300.13 300.103 313.65 300.934 326.9 302.575C327.02 302.595 327.15 302.595 327.27 302.595C327.9 302.595 328.53 302.395 329.05 302.025C329.19 301.985 329.51 301.935 330.16 301.935C330.61 301.935 331.11 301.965 331.59 301.985C332.04 302.005 332.48 302.025 332.88 302.035C334.73 302.055 336.63 302.165 338.5 302.345C341.69 302.655 344.89 303.175 348 303.906C350.35 304.456 352.84 304.886 355.49 305.337C361.23 306.317 367.16 307.338 371.44 309.619C384.46 316.563 392.45 326.649 398.29 334.013C400.34 336.605 402.11 338.836 403.76 340.477C410.6 347.321 418.66 352.164 429.13 355.716C430.94 356.337 432.79 356.927 434.57 357.507C441.05 359.598 447.21 361.59 452.87 364.752C450.48 376.108 442.56 385.654 428.09 394.679C427.95 394.769 427.81 394.869 427.68 394.989C408.85 411.699 390.22 432.712 376.24 452.983C366.61 445.359 357.08 433.312 349.33 423.516L347.66 421.405C344.84 417.843 342.87 414.351 341.31 411.389C340.8 410.418 339.8 409.798 338.7 409.768C338.67 409.768 338.64 409.768 338.62 409.768C337.55 409.768 336.56 410.328 336.01 411.249C331.65 418.533 326.67 425.657 321.85 432.551L321.2 433.482C309.59 450.092 299.63 465.341 295.4 483.681C293.04 493.908 287.7 518.792 286.02 530.009C284.83 538.003 283.87 544.637 283.42 547.819L172.14 576.316C170.6 570.943 167.28 558.836 165.61 548.9C162.17 528.408 162.02 507.035 161.88 486.373C161.73 463.92 161.57 440.696 157.22 418.293C157.17 418.043 157.09 417.813 156.99 417.583C156.84 417.252 156.69 416.922 156.54 416.592L156.2 415.842C156.12 415.671 156.03 415.511 155.92 415.351C144.5 399.262 142.42 372.806 142.49 368.264C142.56 363.231 142.74 357.877 143.6 352.764C143.93 350.723 144.35 348.842 144.9 346.991C145.48 345.03 146.25 343.009 147.2 340.978C151.85 331.002 160.03 322.237 166.64 315.723C176.47 306.027 186.82 299.463 197.4 296.211C200.11 295.381 202.97 294.95 205.99 294.49C210.25 293.85 214.65 293.189 218.82 291.318C223.69 289.117 227.69 285.765 231.56 282.523C233.09 281.242 234.53 280.032 236.03 278.881C246.11 271.166 254.61 270.376 267.42 269.225M268.44 266.073C254.89 267.294 245.31 267.935 234.18 276.45C228.76 280.592 223.86 285.685 217.56 288.527C210.98 291.488 203.36 291.168 196.49 293.279C184.26 297.042 173.54 304.616 164.49 313.541C156.97 320.956 149.03 329.801 144.43 339.677C143.45 341.778 142.61 343.929 141.97 346.111C141.37 348.132 140.92 350.183 140.59 352.264C139.71 357.527 139.52 362.91 139.44 368.204C139.36 374.117 141.8 400.703 153.44 417.092C153.71 417.673 153.97 418.263 154.24 418.843C162.54 461.558 155.39 506.355 162.62 549.37C164.88 562.848 170.05 579.968 170.05 579.968L286.16 550.231C286.16 550.231 287.36 541.736 289.05 530.419C290.66 519.613 295.93 494.988 298.39 484.322C302.61 466.011 313.11 450.372 323.72 435.183C328.84 427.859 334.04 420.464 338.65 412.77C340.48 416.242 342.5 419.714 345.31 423.256C353.81 433.982 365.07 448.631 376.42 456.876C376.57 456.986 376.72 457.036 376.87 457.036C377.06 457.036 377.24 456.946 377.37 456.766C391.3 436.134 410.11 414.661 429.74 397.241C442.41 389.336 453.67 379.11 456.21 363.651C456.25 363.381 456.18 363.111 455.93 362.96C447.94 358.128 438.92 355.786 430.15 352.814C420.83 349.643 412.95 345.3 405.96 338.306C400 332.342 391.16 316.633 372.93 306.908C366.17 303.295 356.2 302.655 348.75 300.914C345.48 300.154 342.17 299.603 338.85 299.283C336.89 299.093 334.93 298.983 332.97 298.963C332.15 298.953 331.17 298.863 330.22 298.863C329.44 298.863 328.68 298.923 328.06 299.133C327.78 299.223 327.55 299.363 327.34 299.523C313.89 297.862 300.34 297.022 286.78 297.022C279.95 297.022 273.13 297.232 266.31 297.652C265.91 297.672 265.51 297.712 265.1 297.742C268.03 289.968 270.96 282.193 273.9 274.418C274.66 272.397 268.91 266.063 268.46 266.063L268.44 266.073Z" fill="#123B68"/>
<path d="M243.63 298.472C242.2 299.213 240.75 299.953 239.3 300.694C239.15 300.213 238.38 300.073 238.29 300.664C238.26 300.854 238.24 301.064 238.2 301.254C230.31 305.296 222.42 309.329 214.52 313.341C209.22 316.023 204.03 318.214 198.04 318.634C193.15 318.974 188.23 318.624 183.36 319.265C170.99 320.876 160.21 326.849 150.61 334.444C148.32 338.286 146.08 343.029 144.53 348.602C156.54 337.856 170.44 328.93 186.96 328.17C191.77 327.96 196.61 328.29 201.37 327.439C205.97 326.629 210.2 324.578 214.35 322.476C221.83 318.684 229.31 314.862 236.79 311.03C236.22 314.962 235.64 318.884 235.08 322.817C234.98 323.487 236.02 323.777 236.12 323.097C236.73 318.884 237.34 314.662 237.95 310.449C239.78 309.519 241.62 308.578 243.45 307.628C244.07 307.318 243.53 306.397 242.91 306.707C241.31 307.518 239.72 308.338 238.14 309.149C238.48 306.757 238.83 304.356 239.18 301.974C240.84 301.114 242.5 300.273 244.17 299.423C244.78 299.103 244.25 298.182 243.62 298.492L243.63 298.472Z" fill="#B4E2FA"/>
<path d="M282.61 276.109C282.44 275.599 282.25 275.099 282.03 274.598C281.76 273.968 281.45 273.288 281.09 272.617C280.37 270.376 278.88 268.495 276.24 267.294C266.7 262.932 255.81 270.346 248.97 276.46C244.27 280.642 240.22 285.485 236.62 290.638C233.74 294.76 231.15 299.093 228.73 303.455C222.74 314.282 217.78 325.749 214.6 337.726C212.28 346.491 209.92 356.837 211.1 366.202C211.28 367.663 211.55 369.094 211.91 370.495C214.33 379.69 222.37 384.183 231.57 382.232C241.6 380.101 249.51 372.186 255.33 364.181C261.55 355.616 266.64 346 271.31 336.455C271.94 335.144 272.57 333.833 273.21 332.522C279.14 320.165 283.88 306.977 284.48 293.169C284.72 287.586 284.53 281.462 282.61 276.099V276.109Z" fill="#123B68" stroke="#123B68" stroke-width="2.25" stroke-miterlimit="10"/>
<path d="M760.04 33.9567C755.7 24.301 753.37 22.1698 740.85 14.8255C736.07 12.0238 730.68 10.4629 725.89 13.2345C722.55 15.1757 719.67 17.6872 715.22 21.3293C706.86 28.2033 616.08 111.302 537.06 184.055C488.42 228.841 444.24 269.715 426.46 286.465C422.94 283.804 417.8 284.384 414.44 287.576C408.7 293.049 416.58 299.263 420.35 302.915C423.96 306.407 430.23 312.27 435.23 307.448C438.17 304.616 437.87 300.904 436.07 297.892C450.16 286.295 500.6 248.153 557.67 205.227C648.23 137.117 755.44 56.9302 760.41 51.5371C764.98 46.5541 762.83 40.1204 760.06 33.9567H760.04Z" fill="#F37E4C" stroke="#123B68" stroke-width="2.71" stroke-miterlimit="10"/>
<path d="M449.24 237.547C395.55 257.348 334.6 251.575 281.77 276.48C275.85 279.071 270.15 282.343 264.35 285.525C255.43 288.166 245.66 289.017 236.62 290.628C222.17 312.901 209.83 339.006 211.1 366.192C229.04 357.687 245.26 345.75 264.05 338.966C275.91 334.584 288.2 331.442 300.52 328.64C311.22 326.199 322.3 323.717 331.19 317.073C353.69 307.238 420.01 278.321 437.98 268.115C433.99 263.872 449.15 241.049 449.23 237.537L449.24 237.547Z" fill="#F6D7B9" stroke="#123B68" stroke-width="2.41" stroke-miterlimit="10"/>
<path d="M467.28 356.817C467.9 365.582 468.65 374.367 469.19 383.172C469.94 395.56 470.9 407.957 471.72 420.354C472.52 432.852 473.59 445.529 473 458.016C472.45 469.203 469.55 477.498 465.26 487.814C463.07 493.047 460.59 498.15 457.98 503.193C456.29 506.435 454.54 510.867 450.24 511.588C446 512.288 440.8 509.266 437.2 507.405C432.63 505.054 428.34 502.232 424.33 499.111C416.07 492.707 409.03 487.414 402.7 479.309C399.63 475.377 395.75 471.104 393.68 466.611C392.1 463.159 393.69 460.338 396.54 458.176C404.16 452.353 414.1 448.591 423.82 446.47C423.37 438.895 423.22 431.311 423.49 423.746C423.87 413.45 425 403.174 427.17 393.118C429.42 382.682 433.03 372.616 435.37 362.21C435.88 359.929 436.32 357.637 436.69 355.336" fill="#F6D7B9"/>
<path d="M333.1 239.648C332.37 235.055 326.92 234.295 323.2 234.895C316.5 235.986 309.95 238.197 303.48 240.188C301.72 240.728 299.96 241.209 298.11 241.269C296.56 241.319 295 240.999 293.44 241.189C291.82 241.389 290.51 242.019 289.57 243.27C289.38 243.27 289.18 243.34 289.06 243.55C287.65 245.991 287.49 248.983 289.25 251.325C290.02 252.345 291.12 253.146 292.31 253.596C294.46 254.396 294.07 253.836 294.39 256.398C294.99 261.25 300.55 266.073 304.52 262.191C305.6 265.833 309.68 267.764 313.44 266.674C317.36 265.533 319.21 261.36 318.29 257.608C322.65 258.229 326.93 258.629 329.9 254.446C332.06 251.395 331.65 247.432 329.07 245.041C331.57 244.591 333.57 242.549 333.11 239.638L333.1 239.648Z" fill="#123B68"/>
<path d="M296.16 195.702C295.58 192.88 294.4 190.119 291.55 189.008C289.03 188.027 286.31 188.588 284.31 190.299C284.16 190.039 283.84 189.889 283.52 190.099C281.21 191.57 278.45 193.571 278.93 196.703C279.07 197.593 279.44 198.323 280.1 198.924C281.1 199.844 281.4 199.384 281.89 200.895C282.42 202.546 281.6 202.766 280.97 204.237C280.07 206.358 280 209.11 281.58 210.941C283.62 213.312 288.53 213.612 291.4 213.733C294.61 213.863 295.18 210.751 295.75 208.139C296.64 204.067 297.01 199.814 296.17 195.692L296.16 195.702Z" fill="#123B68"/>
<path d="M494.49 211.751C488.49 211.751 484.14 213.132 479.53 215.224C470.49 219.316 453.99 231.443 445.08 235.836C440.54 238.067 436.02 240.348 431.52 242.66C428.53 244.201 425.04 245.501 424.21 249.113C423.43 252.535 425.11 255.787 427.37 258.239C430.99 262.171 438 268.125 438 268.125C438 268.125 480.54 236.666 486.27 227.811C488.71 225.62 491.16 223.398 493.23 220.957C494.49 219.476 496.71 211.761 494.48 211.761L494.49 211.751Z" fill="#123B68"/>
<path d="M334.21 185.936C329.92 176.06 321.94 168.416 313.06 163.823C302.61 158.41 290.9 156.899 279.48 156.789C268.37 156.679 252.19 158.02 241.93 163.233C230.96 168.806 222.25 178.352 216.65 189.839C216.54 189.859 216.44 189.879 216.33 189.899C215.56 190.049 215.89 191.339 216.65 191.199C235.59 187.607 253.61 184.996 271.9 186.967C275.7 187.977 279.9 188.978 282.9 191.229C286.97 194.301 287.77 199.654 287.52 204.437C287.34 207.939 286.83 211.431 286.46 214.923C285.63 218.786 284.97 222.388 284.74 225.059C284.06 232.694 284.47 241.819 289.63 247.633C294.88 253.546 303.58 254.076 310.33 251.565C317.83 248.773 329.04 242.82 332.55 235.095C336.72 225.91 338.39 215.864 338.13 205.718C338.38 199.074 336.92 192.24 334.2 185.956L334.21 185.936Z" fill="#2874C5"/>
<path d="M224.84 196.653C246.79 177.882 280.08 191.72 284.06 192.07C281.64 189.719 268.87 181.884 260.76 178.542C251 174.52 241.21 170.867 230.74 169.427C221.39 168.136 210.28 167.936 201.64 172.518C194.24 176.441 191.5 182.454 193.47 189.518C196.86 201.656 214.09 211.882 216.97 212.652C219.04 207.039 220.19 200.645 224.84 196.663V196.653Z" fill="#123B68"/>
<path d="M244.27 252.845C239.46 253.176 234.88 249.213 232.01 245.651C231.61 245.151 231.97 244.4 232.62 244.4C239.48 244.35 246.31 243.8 253.07 242.75C253.69 242.649 254.16 243.3 253.88 243.86C251.68 248.333 247.95 252.595 244.27 252.845Z" fill="#DC685F"/>
<path d="M322.87 220.226C321.69 215.123 313.64 215.954 308.48 219.146C305.88 220.747 302.62 222.738 301.5 225.279C300.59 227.341 300.35 230.042 302.18 231.683C304.23 233.534 307.55 232.994 309.98 232.393C315 231.143 324.29 226.33 322.88 220.226H322.87Z" fill="#B4E2FA"/>
<path d="M511.92 240.879C510.98 236.376 508.99 231.953 507.09 227.781C505.17 223.558 503.1 219.066 500.32 215.344C498.68 213.152 496.49 211.381 493.61 211.872C489.78 212.522 485.74 215.384 482.45 217.325C475.22 221.597 468.51 226.78 462.54 232.694C455.53 239.638 449.55 247.593 444.86 256.268C444.49 256.958 445.54 257.568 445.91 256.878C446.73 255.357 447.6 253.876 448.5 252.405C448.59 252.495 448.71 252.565 448.86 252.586C451.22 252.866 453.62 253.036 455.81 252.205C455.97 252.295 456.16 252.315 456.37 252.185C462.16 248.413 468.06 253.296 470.71 258.369C471.84 260.53 474.02 263.792 471.67 265.623C470.73 266.354 469.46 267.014 468.94 268.155C467.88 270.456 469.97 271.977 471.97 272.507C475.24 273.368 479.6 273.388 482.42 271.307C484.67 269.646 485.66 267.454 485.9 265.023C488.75 265.293 491.65 265.073 493.52 262.541C494.59 261.101 495.13 259.319 495.36 257.478C497.51 258.769 500.25 259.109 502.42 257.588C504.22 256.328 504.91 254.367 505.08 252.255C506.92 252.415 508.74 251.745 510.11 250.264C512.44 247.743 512.57 244.07 511.91 240.889L511.92 240.879Z" fill="#123B68"/>
<path d="M471.22 255.037C470.55 251.765 469.09 248.773 465.82 247.272C462.98 245.972 459.37 246.252 456.33 246.062C452.29 245.812 448.23 245.451 444.18 245.311C440.39 245.181 434.36 246.342 434.69 251.415C434.75 252.395 435.15 253.206 435.71 253.886C432.19 254.086 429.41 255.978 430.44 260.43C430.68 261.461 431.1 262.241 431.68 262.882C430.99 262.882 430.31 262.972 429.66 263.152C427.69 263.702 426.15 265.763 425.58 267.674C424.97 269.726 425.53 271.207 426.56 272.467C422.8 272.507 418.78 273.818 419.11 278.201C418.98 280.242 419.5 282.293 419.52 284.374C419.52 284.664 419.79 284.995 420.11 284.975C420.36 284.935 420.61 284.905 420.86 284.895C420.95 284.885 421.05 284.865 421.14 284.855C421.58 284.785 425.65 285.975 426.46 286.506C426.67 286.345 428.27 285.945 428.46 285.745C432.25 287.546 436.69 289.597 436.69 289.597C436.69 289.597 431.52 305.857 432.94 311.69C435.31 321.416 441.01 326.929 442.87 327.9C444.01 330.161 447.33 312.321 448.7 313.762C451.08 316.263 454.24 315.122 457.27 314.982C462.35 314.732 461.39 322.827 466.37 321.826C466.67 321.766 474.05 262.241 471.23 255.037H471.22Z" fill="#123B68"/>
<path d="M486.21 264.222C484.16 257.418 481.5 250.825 478.16 244.541C475.62 239.758 472.83 234.105 467.35 232.284C466.61 232.033 466.29 233.214 467.03 233.454C472.7 235.345 475.61 242.129 478.11 247.072C480.94 252.676 483.22 258.529 485.04 264.533C485.27 265.283 486.44 264.963 486.21 264.212V264.222Z" fill="white"/>
<path d="M494.7 256.107C492.37 249.243 489.83 242.369 486.69 235.836C484.37 231.013 481.46 225.469 475.62 224.699C474.85 224.599 474.85 225.81 475.62 225.92C481.88 226.74 484.81 234.435 487.02 239.488C489.45 245.031 491.58 250.714 493.53 256.438C493.78 257.178 494.95 256.858 494.7 256.117V256.107Z" fill="white"/>
<path d="M505.05 249.164C503.18 242.78 501.24 236.356 498.24 230.393C495.7 225.34 492.23 219.576 486.88 217.155C486.17 216.835 485.55 217.885 486.27 218.205C491.73 220.677 495.15 226.74 497.65 231.943C500.35 237.547 502.14 243.54 503.88 249.494C504.1 250.244 505.27 249.924 505.05 249.174V249.164Z" fill="white"/>
<path d="M435.69 296.321C433.38 291.828 429.41 286.485 424.53 284.614C420.26 282.973 414.89 284.274 413.15 288.877C412.18 291.438 412.55 293.97 413.57 296.321C415.14 300.454 418.62 304.206 421.84 306.807C425.5 309.769 430.73 312.11 434.96 308.828C439.02 305.687 437.72 300.253 435.69 296.311V296.321Z" fill="#F37E4C" stroke="#123B68" stroke-width="2.71" stroke-miterlimit="10"/>
<path d="M172.46 413.49C171.78 413.49 171.21 413 171.08 412.289C170.94 411.529 171.33 410.808 172.03 410.528C187.04 404.575 201.76 397.441 215.8 389.316C216.03 389.176 216.3 389.106 216.56 389.106C217.23 389.106 217.83 389.586 218.01 390.256C218.19 390.917 217.92 391.577 217.32 391.917C203.17 400.102 188.27 407.316 173.02 413.36C172.84 413.43 172.65 413.47 172.47 413.47L172.46 413.49Z" fill="#123B68"/>
<path d="M449.24 237.547C428.91 244.531 412.1 248.213 390.44 251.565C390.39 251.615 390.35 251.675 390.32 251.725C390.25 251.785 390.19 251.835 390.13 251.905C390.03 252.005 390 252.095 389.97 252.205C382.58 262.531 379.87 275.929 383.09 288.306C383.43 289.617 383.81 292.339 385.25 293.179H385.26C408.35 282.783 430.42 272.557 437.98 268.115C433.99 263.872 449.15 241.049 449.23 237.537L449.24 237.547Z" fill="#123B68"/>
<path d="M462.17 245.611C455.43 244.751 447.92 244.961 441.19 245.811C437 246.342 433.53 249.103 434.93 253.666C434.95 253.746 434.99 253.796 435.03 253.856C430.95 255.087 429.1 258.689 430.89 262.921C426.48 263.372 423.47 268.034 425.35 272.237C420.84 273.067 417.93 275.299 418.97 280.021C419.14 280.782 420.31 280.462 420.14 279.701C417.62 268.195 447.4 275.169 452.4 276.239C453.16 276.399 453.49 275.229 452.72 275.069C449.09 274.298 435.36 270.936 426.51 272.067C426.51 271.977 426.5 271.877 426.45 271.777C424.64 267.954 427.94 264.192 431.68 264.092C434.07 264.022 436.54 264.402 438.91 264.602C444.09 265.033 449.25 265.593 454.38 266.494C455.14 266.624 455.47 265.453 454.7 265.323C450.81 264.642 446.91 264.142 442.98 263.752C439.46 263.412 435.74 262.811 432.17 262.871C432.17 262.871 432.17 262.861 432.17 262.851C430.36 259.139 431.91 255.747 436 254.837C438.46 254.286 441.28 254.587 443.77 254.747C448.61 255.047 453.4 255.837 458.17 256.688C458.93 256.828 459.26 255.657 458.49 255.517C451.52 254.266 443.89 252.665 436.8 253.506C436.56 253.536 436.34 253.576 436.12 253.616C436.13 253.536 436.12 253.456 436.1 253.356C433.84 245.971 444.82 246.742 449.1 246.582C453.82 246.402 459.43 245.831 464 247.192C469.78 248.903 471.08 255.147 471.38 260.43C471.67 265.413 471.42 270.386 470.76 275.329C470.66 276.099 471.87 276.099 471.98 275.329C473.23 265.903 475.39 247.312 462.16 245.611H462.17Z" fill="white"/>
<path d="M467.98 305.106H440.21C438.75 322.036 439.38 338.716 436.69 355.316C441.7 356.717 447.08 357.247 451.83 357.517C457.01 357.807 462.18 357.567 467.28 356.817C466.06 339.517 465.37 322.267 467.98 305.116V305.106Z" fill="#123B68"/>
<path d="M461.31 339.457C461.22 341.388 461.84 347.621 460.13 348.782C459.21 349.412 456.08 348.932 454.88 348.942C453.32 348.962 451.77 348.962 450.21 348.942C446.77 348.882 443.26 348.812 439.84 348.412C438.88 348.302 437.78 348.252 436.92 347.781C435.55 347.031 434.92 344.57 435.01 343.009C435.1 341.448 435.7 339.757 436.02 338.226C436.25 337.125 436.28 334.884 436.92 333.973C438.38 331.882 441.23 332.432 443.38 332.452C449.44 332.493 455.49 332.543 461.55 332.583C461.48 334.874 461.41 337.175 461.3 339.467L461.31 339.457Z" fill="#123B68"/>
<path d="M417.85 244.24C412.77 245.271 407.11 245.771 402.21 247.482C399.17 248.543 398.12 251.105 397.11 253.936C393.77 263.292 392.09 273.147 391.93 283.063C391.92 283.844 393.13 283.844 393.15 283.063C393.15 283.043 393.15 283.023 393.15 283.003C397.29 281.693 401.43 280.362 405.4 278.601C407.98 277.46 411.16 276.509 411.58 273.388C412.23 268.555 412.26 263.792 413.43 258.999C414.6 254.186 416.34 249.564 418.53 245.131C418.77 244.641 418.38 244.13 417.84 244.24H417.85Z" fill="#123B68"/>
<path d="M417.06 248.143C413.84 252.185 412.17 256.978 411.53 262.071C411.1 265.473 411.43 268.865 411.15 272.247C410.94 274.709 409.35 274.699 407.21 275.449C405.55 276.029 403.89 276.63 402.24 277.24C400.59 277.85 398.94 278.471 397.3 279.111C396.57 279.391 395.84 279.681 395.12 279.972C393.97 280.432 393.34 281.252 392.64 280.092C391.37 277.98 392.33 273.118 392.57 270.736C393.26 263.952 395.21 257.438 398.81 251.615C399.22 250.945 398.17 250.334 397.76 251.005C392.79 259.049 390.91 268.445 391.08 277.82C391.1 278.891 390.71 281.332 391.98 281.993C393.04 282.543 394.47 281.543 395.45 281.152C400.9 278.991 406.42 276.98 411.98 275.109C412.23 275.029 412.43 274.799 412.43 274.518C412.22 265.703 412.16 256.258 417.94 249.003C418.42 248.393 417.57 247.533 417.08 248.143H417.06Z" fill="white"/>
<path d="M461.44 334.264C461.44 333.943 461.16 333.643 460.83 333.653C453.7 334.023 446.64 333.173 439.58 332.252C438.81 332.152 438.81 333.373 439.58 333.473C443.89 334.033 448.21 334.604 452.55 334.854C453.73 334.924 454.91 334.974 456.1 334.984C456.62 334.984 459.23 334.684 459.65 334.934C460.85 335.654 460.23 339.527 460.24 340.757C460.24 341.738 460.24 342.729 460.24 343.709C460.24 344.3 460.53 346.751 460.24 347.251C459.6 348.392 454.94 348.172 453.57 348.212C448.82 348.352 444.09 347.812 439.41 347.061C438.64 346.941 438.32 348.112 439.09 348.232C445.72 349.292 452.78 350.163 459.44 348.882C461.36 348.512 461.42 347.942 461.45 346.071C461.52 342.138 461.44 338.196 461.43 334.254L461.44 334.264Z" fill="white"/>
<path d="M760.04 33.9568C755.7 24.3011 754.15 21.2293 741.63 13.885C736.85 11.0833 730.68 10.463 725.89 13.2346C722.55 15.1757 719.67 17.6872 715.22 21.3294C706.86 28.2034 616.08 111.302 537.06 184.055C544.92 189.939 551.84 197.193 557.66 205.228C648.22 137.117 755.43 56.9303 760.4 51.5371C764.97 46.5542 762.82 40.1204 760.05 33.9568H760.04Z" fill="url(#paint1_linear_1_2432)" stroke="#123B68" stroke-width="2.71" stroke-miterlimit="10"/>
<path d="M331.2 375.468C330.86 375.758 330.51 376.058 330.17 376.358C309.95 393.799 292.77 414.681 279.3 437.774C261.83 467.732 250.82 501.212 246.22 535.562C246.05 536.863 245.88 538.153 245.74 539.464C245.68 539.905 245.62 540.345 245.58 540.785C248.49 539.905 251.39 539.004 254.3 538.103C254.36 537.663 254.43 537.223 254.48 536.773C256.53 522.084 259.74 507.555 264.16 493.377C273.91 462.129 289.62 432.751 310.56 407.577C317.29 399.492 324.55 391.857 332.3 384.763C332.63 384.453 332.97 384.143 333.31 383.843C332.57 381.061 331.87 378.269 331.2 375.478V375.468Z" fill="#B4E2FA"/>
<path d="M271.55 202.856C271.55 202.856 262.86 202.936 259.09 204.077C255.32 205.218 251.14 206.518 250.07 205.628C249 204.737 248.14 200.345 251.44 199.074C254.74 197.803 262.01 196.422 267.56 197.893C273.11 199.364 273.93 202.376 271.55 202.866V202.856Z" fill="#123B68"/>
<path d="M221.5 203.247C221.5 203.247 227.62 204.087 229.93 205.488C232.24 206.899 234.8 208.49 235.83 207.739C236.86 206.989 238.83 202.896 236.88 201.405C234.94 199.915 230.22 197.973 225.85 198.884C221.47 199.794 219.97 202.576 221.5 203.247Z" fill="#123B68"/>
<path d="M237.79 218.325C237.35 217.815 236.66 217.585 236.06 217.995C235.55 218.335 235.29 219.216 235.73 219.726C237.98 222.318 237.08 225.88 234.84 228.141C233.67 229.322 231.99 229.912 230.93 231.203C229.84 232.534 229.65 234.695 231.11 235.846C232.37 236.836 234.8 235.976 233.76 234.975C231.59 232.904 234.17 231.793 234.63 231.483C236.06 230.552 237.28 229.352 238.19 227.901C240.01 225.019 240.1 220.977 237.79 218.315V218.325Z" fill="#123B68"/>
<path d="M232.6 222.418C231.98 225.77 229.7 228.141 227.55 227.701C225.43 227.26 225.26 224.249 225.89 220.987C226.52 217.745 227.7 215.403 229.81 215.754C231.92 216.104 233.22 219.086 232.6 222.418Z" fill="#123B68"/>
<path d="M263.16 220.627C262.58 224.269 258.99 226.85 256.42 226.38C253.89 225.91 253.37 222.658 253.96 219.126C254.55 215.614 256.02 213.072 258.53 213.432C261.08 213.803 263.73 217.015 263.16 220.637V220.627Z" fill="#123B68"/>
<path d="M430.7 296.731C429.48 294.36 427.38 291.528 424.8 290.538C422.54 289.677 419.7 290.358 418.78 292.789C418.26 294.15 418.46 295.481 419 296.731C419.83 298.913 421.67 300.904 423.37 302.275C425.3 303.846 428.07 305.076 430.31 303.345C432.46 301.684 431.77 298.813 430.7 296.721V296.731Z" fill="#F6AB69"/>
<path d="M338.72 405.265C338.06 405.265 337.5 404.865 337.28 404.245C335.11 397.841 333.14 391.357 331.42 384.983C330.62 381.992 329.92 379.24 329.28 376.558C327.04 367.233 325.22 357.627 323.86 348.022C323.8 347.571 323.92 347.131 324.22 346.791C324.52 346.441 324.98 346.23 325.44 346.23C326.15 346.23 326.72 346.731 326.82 347.441C328.14 356.767 329.9 366.122 332.06 375.258C332.69 377.929 333.38 380.661 334.16 383.602C335.93 390.226 337.94 396.86 340.15 403.324C340.3 403.794 340.24 404.265 339.97 404.645C339.69 405.035 339.22 405.265 338.71 405.265H338.72Z" fill="#123B68"/>
<path d="M194.51 315.202C193.91 315.202 193.34 314.832 193.09 314.272C192.85 313.741 192.95 313.141 193.34 312.701C200.55 304.536 208.36 296.691 216.58 289.387C216.85 289.147 217.18 289.017 217.52 289.017C218.11 289.017 218.66 289.417 218.88 290.007C219.11 290.628 218.95 291.308 218.46 291.738C210.45 298.853 202.76 306.577 195.61 314.692C195.32 315.022 194.92 315.202 194.5 315.202H194.51Z" fill="#013B83"/>
<path d="M421.86 364.461C421.64 364.461 421.42 364.411 421.21 364.321C406.23 357.437 390.26 353.585 373.77 352.864C372.92 352.824 372.3 352.154 372.32 351.293C372.34 350.463 372.96 349.843 373.78 349.843C390.77 350.583 407.17 354.545 422.58 361.629C423.21 361.92 423.53 362.56 423.39 363.22C423.23 363.941 422.59 364.471 421.86 364.471V364.461Z" fill="#123B68"/>
<path d="M176.67 543.947C176.17 543.947 175.7 543.717 175.41 543.326C175.14 542.956 175.07 542.476 175.22 542.026C182.27 520.203 192.24 499.461 204.84 480.359C205.13 479.929 205.58 479.679 206.09 479.679C206.66 479.679 207.21 479.999 207.47 480.499C207.72 480.97 207.69 481.52 207.39 481.98C194.91 500.891 185.06 521.394 178.1 542.916C177.89 543.557 177.33 543.967 176.66 543.967L176.67 543.947Z" fill="#123B68"/>
<path d="M293.89 547.439C291.96 543.336 291.59 535.452 291.16 528.798C279.53 532.52 267.77 535.852 255.96 538.964C245.06 541.866 234.12 544.577 223.17 547.289C219.05 548.309 214.87 549.34 210.65 550.38C203.43 552.142 196.11 553.893 188.81 555.504C184.43 556.464 180.06 557.375 175.71 558.205C171.66 558.986 167.63 559.686 163.64 560.306C164.89 564.999 167.78 575.665 168.98 580.168C173.26 579.508 177.51 578.757 181.77 577.947C185.19 577.286 188.59 576.596 191.98 575.856C192.99 575.635 193.99 575.415 194.99 575.185C202.08 573.644 209.15 572.023 216.22 570.332C231.27 566.77 246.27 562.918 261.19 558.866C264.48 557.965 267.78 557.054 271.07 556.144C278.98 553.943 286.87 551.611 294.7 549.1C294.42 548.549 294.17 548.009 293.9 547.449L293.89 547.439Z" fill="#F37E4C" stroke="#123B68" stroke-width="2.71" stroke-linejoin="round"/>
<path d="M262.09 561.517C247.18 565.569 232.17 569.422 217.12 572.984C216.48 570.873 215.92 568.731 215.31 566.59C214.03 562.077 211.34 553.442 210.1 548.92C214.32 547.889 218.5 546.848 222.62 545.828C233.57 543.116 244.51 540.405 255.41 537.503C257.5 543.997 260.6 554.803 262.09 561.517Z" fill="#F6AB69" stroke="#123B68" stroke-width="2.71" stroke-miterlimit="10"/>
<path d="M195.75 577.437C194.74 577.667 193.74 577.887 192.74 578.107C189.35 578.847 185.95 579.538 182.53 580.198C180.83 575.475 177.84 566.66 176.58 561.807C176.02 560.016 175.47 558.215 174.95 556.424C179.3 555.594 183.68 554.683 188.05 553.723C189.96 560.327 193.56 570.913 195.75 577.437Z" fill="#F6AB69" stroke="#123B68" stroke-width="2.71" stroke-miterlimit="10"/>
<path d="M381.6 448.22C383.71 451.472 391.22 463.019 393.49 466.161C393.55 466.311 393.6 466.461 393.67 466.611C395.74 471.094 399.61 475.376 402.69 479.309C409.02 487.403 416.06 492.697 424.32 499.11C428.33 502.232 432.62 505.054 437.19 507.405C440.79 509.266 445.99 512.298 450.23 511.588C454.53 510.867 456.28 506.445 457.97 503.193C460.58 498.15 463.06 493.037 465.25 487.814C469.54 477.498 472.44 469.213 472.99 458.016C473.59 445.529 472.52 432.861 471.71 420.354C470.9 407.947 469.94 395.559 469.18 383.172C468.65 374.367 467.89 365.592 467.27 356.817C466.05 339.516 465.36 322.266 467.97 305.116H440.2C438.74 322.046 439.37 338.726 436.68 355.326C436.3 357.627 435.87 359.908 435.36 362.2C433.01 372.606 429.41 382.682 427.16 393.108C427.16 393.108 418.72 428.469 419.75 468.382" stroke="#123B68" stroke-width="2.41" stroke-linecap="round" stroke-linejoin="round"/>
<path d="M278.83 375.738L272.27 384.283C272.24 384.313 272.22 384.353 272.21 384.403C272.17 384.523 272.2 384.663 272.27 384.753C272.27 384.753 272.27 384.753 272.28 384.763C273.47 386.154 274.98 387.305 276.77 388.065C278.56 388.825 280.6 389.126 282.55 388.946C282.68 388.926 282.8 388.835 282.84 388.695C282.86 388.645 282.86 388.595 282.86 388.545C282.86 388.545 282.86 388.545 282.86 388.535L282.17 376.908C282.17 376.908 282.17 376.898 282.17 376.888C282.13 376.048 281.61 375.318 280.82 375.077C280.09 374.857 279.32 375.137 278.82 375.718M270.01 371.906C269.86 371.865 269.69 371.976 269.63 372.156C269.63 372.156 269.63 372.156 269.63 372.166C268.83 375.227 269.03 378.299 270.03 380.951C270.03 380.951 270.03 380.951 270.03 380.961C270.06 381.041 270.12 381.111 270.2 381.141C270.32 381.181 270.45 381.141 270.52 381.031L275.66 374.097C275.69 374.057 275.71 374.017 275.72 373.977C275.78 373.777 275.69 373.577 275.52 373.526L270 371.906H270.01ZM286.65 376.788C286.44 376.728 286.22 376.848 286.15 377.069C286.13 377.119 286.13 377.179 286.13 377.229L286.76 387.174C286.77 387.335 286.87 387.485 287.03 387.545C287.13 387.585 287.24 387.575 287.33 387.545C287.33 387.545 287.34 387.545 287.35 387.545C290.41 385.974 293.01 383.202 294.39 379.55C294.39 379.55 294.39 379.54 294.39 379.53C294.47 379.3 294.34 379.06 294.11 378.99L286.65 376.798V376.788ZM282.82 361.169C282.82 361.169 282.81 361.169 282.8 361.169C278.16 361.279 273.87 364.001 271.41 368.003C271.39 368.033 271.38 368.073 271.37 368.103C271.31 368.293 271.4 368.484 271.56 368.524L278.27 370.255H278.29C278.42 370.275 278.55 370.215 278.63 370.094L279.68 368.674C281.2 366.522 282.27 364.351 282.9 362.26L283.1 361.609C283.17 361.399 283.06 361.199 282.87 361.159C282.85 361.159 282.84 361.159 282.82 361.159M286.83 362.26L286.62 362.93C285.92 365.082 285.58 367.493 285.68 370.124L285.79 371.926C285.79 372.056 285.87 372.166 285.98 372.226C285.98 372.226 286 372.226 286.01 372.236C286.01 372.236 286.03 372.236 286.05 372.246L294.78 374.497C295.02 374.557 295.27 374.417 295.35 374.187C295.37 374.147 295.37 374.097 295.37 374.057C295.33 368.504 292.19 363.771 287.39 361.94C287.39 361.94 287.38 361.94 287.37 361.94C287.35 361.94 287.34 361.94 287.32 361.93C287.11 361.89 286.89 362.04 286.82 362.26" fill="url(#paint2_linear_1_2432)"/>
<mask id="mask1_1_2432" style="mask-type:luminance" maskUnits="userSpaceOnUse" x="269" y="361" width="27" height="28">
<path d="M278.83 375.738L272.27 384.283C272.24 384.313 272.22 384.353 272.21 384.403C272.17 384.523 272.2 384.663 272.27 384.753C272.27 384.753 272.27 384.753 272.28 384.763C273.47 386.154 274.98 387.305 276.77 388.065C278.56 388.825 280.6 389.126 282.55 388.946C282.68 388.926 282.8 388.835 282.84 388.695C282.86 388.645 282.86 388.595 282.86 388.545C282.86 388.545 282.86 388.545 282.86 388.535L282.17 376.908C282.17 376.908 282.17 376.898 282.17 376.888C282.13 376.048 281.61 375.318 280.82 375.077C280.09 374.857 279.32 375.137 278.82 375.718M270.01 371.906C269.86 371.865 269.69 371.976 269.63 372.156C269.63 372.156 269.63 372.156 269.63 372.166C268.83 375.227 269.03 378.299 270.03 380.951C270.03 380.951 270.03 380.951 270.03 380.961C270.06 381.041 270.12 381.111 270.2 381.141C270.32 381.181 270.45 381.141 270.52 381.031L275.66 374.097C275.69 374.057 275.71 374.017 275.72 373.977C275.78 373.777 275.69 373.577 275.52 373.526L270 371.906H270.01ZM286.65 376.788C286.44 376.728 286.22 376.848 286.15 377.069C286.13 377.119 286.13 377.179 286.13 377.229L286.76 387.174C286.77 387.335 286.87 387.485 287.03 387.545C287.13 387.585 287.24 387.575 287.33 387.545C287.33 387.545 287.34 387.545 287.35 387.545C290.41 385.974 293.01 383.202 294.39 379.55C294.39 379.55 294.39 379.54 294.39 379.53C294.47 379.3 294.34 379.06 294.11 378.99L286.65 376.798V376.788ZM282.82 361.169C282.82 361.169 282.81 361.169 282.8 361.169C278.16 361.279 273.87 364.001 271.41 368.003C271.39 368.033 271.38 368.073 271.37 368.103C271.31 368.293 271.4 368.484 271.56 368.524L278.27 370.255H278.29C278.42 370.275 278.55 370.215 278.63 370.094L279.68 368.674C281.2 366.522 282.27 364.351 282.9 362.26L283.1 361.609C283.17 361.399 283.06 361.199 282.87 361.159C282.85 361.159 282.84 361.159 282.82 361.159M286.83 362.26L286.62 362.93C285.92 365.082 285.58 367.493 285.68 370.124L285.79 371.926C285.79 372.056 285.87 372.166 285.98 372.226C285.98 372.226 286 372.226 286.01 372.236C286.01 372.236 286.03 372.236 286.05 372.246L294.78 374.497C295.02 374.557 295.27 374.417 295.35 374.187C295.37 374.147 295.37 374.097 295.37 374.057C295.33 368.504 292.19 363.771 287.39 361.94C287.39 361.94 287.38 361.94 287.37 361.94C287.35 361.94 287.34 361.94 287.32 361.93C287.11 361.89 286.89 362.04 286.82 362.26" fill="white"/>
</mask>
<g mask="url(#mask1_1_2432)">
<path d="M299.74 364.071L289.6 393.458L266.33 383.693L273.27 359.548L299.74 364.071Z" fill="url(#paint3_linear_1_2432)"/>
</g>
</g>
<defs>
<linearGradient id="paint0_linear_1_2432" x1="314.25" y1="727.723" x2="314.25" y2="591.201" gradientUnits="userSpaceOnUse">
<stop stop-color="#FAE4B7"/>
<stop offset="0.31" stop-color="#F8DA9F"/>
<stop offset="0.82" stop-color="#F6CD7D"/>
</linearGradient>
<linearGradient id="paint1_linear_1_2432" x1="650.05" y1="11.4435" x2="650.05" y2="205.238" gradientUnits="userSpaceOnUse">
<stop stop-color="#FAE4B7"/>
<stop offset="0.43" stop-color="#F7C48B"/>
<stop offset="0.82" stop-color="#F6AB69"/>
</linearGradient>
<linearGradient id="paint2_linear_1_2432" x1="269.14" y1="375.097" x2="295.39" y2="375.097" gradientUnits="userSpaceOnUse">
<stop stop-color="#004096"/>
<stop offset="1" stop-color="#009EE7"/>
</linearGradient>
<linearGradient id="paint3_linear_1_2432" x1="285.748" y1="360.16" x2="278.08" y2="390.03" gradientUnits="userSpaceOnUse">
<stop stop-color="#004096"/>
<stop offset="1" stop-color="#009EE7"/>
</linearGradient>
</defs>
</svg>
