<svg xmlns="http://www.w3.org/2000/svg" viewBox="0 0 35.07 35.17"><circle cx="17.61" cy="17.71" r="17.45" transform="rotate(-7.01 17.597 17.711)" fill="#ffc919"/><path d="M30.67 19.64a13.59 13.59 0 01-23.3 6.84A13.37 13.37 0 1130.7 14.91a13.67 13.67 0 01-.03 4.73z" fill="#feefaf"/><path d="M15.77 26.92a1 1 0 01-.9-1.27l.19-1a7.28 7.28 0 01-2.6-1.44 1.16 1.16 0 010-1.8 1.37 1.37 0 011.06-.47 1.72 1.72 0 011.09.51 4.18 4.18 0 001.6.69c1.1.21 1.73-.14 1.9-1a1.41 1.41 0 00-.45-1.19 9 9 0 00-1.34-1.15l-.55-.43a6.82 6.82 0 01-1.65-1.73 3.17 3.17 0 01-.46-2.38 3.88 3.88 0 014-3.38l.21-1.11a1 1 0 011.29-.87 1 1 0 01.84 1.21l-.2 1.08a5 5 0 012.12 1.38 1.1 1.1 0 01-.24 1.7 1.43 1.43 0 01-1 .35 1.54 1.54 0 01-1-.51 2.83 2.83 0 00-1.12-.47c-1-.19-1.58.14-1.73 1a1.2 1.2 0 00.41 1.06 11 11 0 001.26 1 10.65 10.65 0 012.11 1.84 3.5 3.5 0 01.7 2.86A4.26 4.26 0 0120 23.9a4.14 4.14 0 01-2.76 1L17 26.05a1 1 0 01-1.23.87z" fill="#ff9d00"/></svg>