<svg id="圖層_1" data-name="圖層 1" xmlns="http://www.w3.org/2000/svg" viewBox="0 0 33 66"><defs><style>.cls-1{fill:#fff;}.cls-2{fill:#898f9c;}</style></defs><title>socialmedia</title><path class="cls-1" d="M32.5,47.24c0-7.16-7.18-13-16-13s-16,5.83-16,13C.5,53.66,6.19,59,13.88,60.05c.52.11,1.23.34,1.41.79a3.19,3.19,0,0,1,.05,1.44l-.23,1.37c-.07.41-.32,1.59,1.39.87s9.21-5.43,12.57-9.29h0A11.57,11.57,0,0,0,32.5,47.24ZM10.85,51.06a.31.31,0,0,1-.31.31H6.06a.35.35,0,0,1-.22-.08h0a.29.29,0,0,1-.09-.22h0v-7a.31.31,0,0,1,.31-.31H7.18a.31.31,0,0,1,.31.31v5.54h3a.31.31,0,0,1,.31.31Zm2.71,0a.31.31,0,0,1-.31.31H12.13a.31.31,0,0,1-.32-.31v-7a.31.31,0,0,1,.32-.31h1.12a.31.31,0,0,1,.31.31Zm7.73,0a.31.31,0,0,1-.32.31H19.68l-.08-.08-3.2-4.32v4.14a.31.31,0,0,1-.31.31H15a.31.31,0,0,1-.31-.31v-7a.31.31,0,0,1,.31-.31H16.3l0,0h0l0,0,3.19,4.31V44.09a.31.31,0,0,1,.31-.31H21a.31.31,0,0,1,.32.31Zm6.19-5.85a.31.31,0,0,1-.31.32H24.12V46.7h3.05a.31.31,0,0,1,.31.32v1.12a.31.31,0,0,1-.31.31H24.12v1.18h3.05a.31.31,0,0,1,.31.31v1.12a.31.31,0,0,1-.31.31H22.69a.33.33,0,0,1-.22-.08h0a.33.33,0,0,1-.08-.22h0v-7h0a.3.3,0,0,1,.08-.21h0a.29.29,0,0,1,.22-.09h4.48a.31.31,0,0,1,.31.31Z"/><path class="cls-2" d="M32.5,14.24c0-7.16-7.18-13-16-13s-16,5.83-16,13C.5,20.66,6.19,26,13.88,27.05c.52.11,1.23.34,1.41.79a3.19,3.19,0,0,1,.05,1.44l-.23,1.37c-.07.41-.32,1.59,1.39.87s9.21-5.43,12.57-9.29h0A11.57,11.57,0,0,0,32.5,14.24ZM10.85,18.06a.31.31,0,0,1-.31.31H6.06a.35.35,0,0,1-.22-.08h0a.29.29,0,0,1-.09-.22h0v-7a.31.31,0,0,1,.31-.31H7.18a.31.31,0,0,1,.31.31v5.54h3a.31.31,0,0,1,.31.31Zm2.71,0a.31.31,0,0,1-.31.31H12.13a.31.31,0,0,1-.32-.31v-7a.31.31,0,0,1,.32-.31h1.12a.31.31,0,0,1,.31.31Zm7.73,0a.31.31,0,0,1-.32.31H19.68a.3.3,0,0,1-.08-.08l-3.2-4.32v4.14a.31.31,0,0,1-.31.31H15a.31.31,0,0,1-.31-.31v-7a.31.31,0,0,1,.31-.31H16.3l0,0h0l0,0,3.19,4.31V11.09a.31.31,0,0,1,.31-.31H21a.31.31,0,0,1,.32.31Zm6.19-5.85a.31.31,0,0,1-.31.32H24.12V13.7h3.05a.31.31,0,0,1,.31.32v1.12a.31.31,0,0,1-.31.31H24.12v1.18h3.05a.31.31,0,0,1,.31.31v1.12a.31.31,0,0,1-.31.31H22.69a.33.33,0,0,1-.22-.08h0a.33.33,0,0,1-.08-.22h0v-7h0a.3.3,0,0,1,.08-.21h0a.29.29,0,0,1,.22-.09h4.48a.31.31,0,0,1,.31.31Z"/></svg>