<svg id="圖層_1" data-name="圖層 1" xmlns="http://www.w3.org/2000/svg" viewBox="0 0 33 66"><defs><style>.cls-1{fill:#fff;}.cls-2{fill:#898f9c;}</style></defs><title>socialmedia</title><path class="cls-1" d="M29.84,34.5H3.15A1.65,1.65,0,0,0,1.5,36.16V62.85A1.65,1.65,0,0,0,3.16,64.5H17.53V52.9h-3.9V48.36h3.9V45c0-3.88,2.36-6,5.82-6a30.6,30.6,0,0,1,3.49.18v4H24.46c-1.88,0-2.25.89-2.25,2.21v2.89h4.5l-.59,4.54H22.21V64.5h7.63a1.66,1.66,0,0,0,1.66-1.66h0V36.15A1.65,1.65,0,0,0,29.84,34.5Z"/><path class="cls-2" d="M29.84,1.5H3.15A1.65,1.65,0,0,0,1.5,3.16V29.85A1.65,1.65,0,0,0,3.16,31.5H17.53V19.9h-3.9V15.36h3.9V12c0-3.88,2.36-6,5.82-6a30.6,30.6,0,0,1,3.49.18v4.05H24.46c-1.88,0-2.25.89-2.25,2.21v2.89h4.5l-.59,4.54H22.21V31.5h7.63a1.66,1.66,0,0,0,1.66-1.66h0V3.15A1.65,1.65,0,0,0,29.84,1.5Z"/></svg>