<svg id="圖層_1" data-name="圖層 1" xmlns="http://www.w3.org/2000/svg" viewBox="0 0 36 36"><defs><style>.cls-1{fill:#666;fill-rule:evenodd;}</style></defs><title>tabs_icon</title><path class="cls-1" d="M29.42,0H6.58A3.39,3.39,0,0,0,3.19,3.39V32.61A3.39,3.39,0,0,0,6.58,36H29.42a3.39,3.39,0,0,0,3.39-3.39V3.39A3.39,3.39,0,0,0,29.42,0Zm0,34.35H6.58a1.75,1.75,0,0,1-1.75-1.74V20.39l3.7-2.46a2.45,2.45,0,0,0,1.35.39H26.12a2.55,2.55,0,0,0,1.21-.3l3.84,2.39v12.2A1.75,1.75,0,0,1,29.42,34.35Zm-1-29L31,2.73a1.85,1.85,0,0,1,.13.66V18.47l-2.7-1.68a2.51,2.51,0,0,0,.23-1V6.47A2.47,2.47,0,0,0,28.43,5.34Zm-1.38,10.4a.93.93,0,0,1-.93.93H9.88A.93.93,0,0,1,9,15.74V6.47a.93.93,0,0,1,.93-.93H26.12a.93.93,0,0,1,.93.93Zm.22-11.57a2.53,2.53,0,0,0-1.15-.27H9.88a2.62,2.62,0,0,0-1.29.34L6.07,1.72a1.79,1.79,0,0,1,.51-.07H29.42a2,2,0,0,1,.34,0ZM4.83,3.39a1.69,1.69,0,0,1,.08-.5L7.5,5.48a2.57,2.57,0,0,0-.2,1v9.27a2.59,2.59,0,0,0,.17.92L4.83,18.42Z"/><path class="cls-1" d="M20.26,19.85H9A.83.83,0,0,0,9,21.5H20.26a.83.83,0,1,0,0-1.65Z"/><path class="cls-1" d="M27.05,19.85H23.14a.83.83,0,0,0,0,1.65h3.91a.83.83,0,0,0,0-1.65Z"/></svg>