<svg id="圖層_1" data-name="圖層 1" xmlns="http://www.w3.org/2000/svg" viewBox="0 0 36 36"><defs><style>.cls-1{fill:#ea6000;}</style></defs><title>tabs_icon</title><path class="cls-1" d="M30.35,12.93H22.19V8.51a2.65,2.65,0,0,0-2.65-2.64H18.8a6.28,6.28,0,0,0-12.41,0H5.65A2.65,2.65,0,0,0,3,8.51V32.78a2.65,2.65,0,0,0,2.65,2.65h24.7A2.65,2.65,0,0,0,33,32.78V15.57A2.65,2.65,0,0,0,30.35,12.93Zm0,20.73H22.19v-19h8.16a.89.89,0,0,1,.89.88V32.78A.88.88,0,0,1,30.35,33.66ZM4.76,8.51a.89.89,0,0,1,.89-.88h.71a6.28,6.28,0,0,0,12.47,0h.71a.89.89,0,0,1,.89.88V33.66H5.65a.88.88,0,0,1-.89-.88ZM12.6,2.34A4.52,4.52,0,1,1,8.07,6.86,4.53,4.53,0,0,1,12.6,2.34Z"/><path class="cls-1" d="M12,9.1l-.13.92h.57l.13-.92A4,4,0,0,0,13.25,9a1.9,1.9,0,0,0,.57-.28,1.15,1.15,0,0,0,.37-.42,1.21,1.21,0,0,0,.13-.58,1,1,0,0,0-.13-.53,1.19,1.19,0,0,0-.33-.38,2.09,2.09,0,0,0-.46-.28l-.51-.22.22-1.66.43.06.43.09V4.19l-.38-.08-.41-.05.1-.75h-.56l-.1.73a2.84,2.84,0,0,0-.77.15,1.56,1.56,0,0,0-.54.31,1,1,0,0,0-.31.42,1.18,1.18,0,0,0-.1.48,1,1,0,0,0,.12.5,1.12,1.12,0,0,0,.31.37,1.73,1.73,0,0,0,.43.27,5.32,5.32,0,0,0,.5.21L12,8.5a4,4,0,0,1-.64-.08,2.74,2.74,0,0,1-.53-.14v.65l.49.1ZM12.79,7a3.05,3.05,0,0,1,.35.15,1,1,0,0,1,.25.17.48.48,0,0,1,.15.2.49.49,0,0,1,.05.25.67.67,0,0,1-.23.53,1.53,1.53,0,0,1-.77.23Zm-1-1.21a.62.62,0,0,1,0-.91,1.32,1.32,0,0,1,.71-.23l-.2,1.46A1.73,1.73,0,0,1,11.8,5.76Z"/><rect class="cls-1" x="6.75" y="14.69" width="3.09" height="3.09" rx="0.37"/><rect class="cls-1" x="11.05" y="14.69" width="3.09" height="3.09" rx="0.37"/><rect class="cls-1" x="15.35" y="14.69" width="3.09" height="3.09" rx="0.37"/><rect class="cls-1" x="6.75" y="19.76" width="3.09" height="3.09" rx="0.37"/><rect class="cls-1" x="11.05" y="19.76" width="3.09" height="3.09" rx="0.37"/><rect class="cls-1" x="15.35" y="19.76" width="3.09" height="3.09" rx="0.37"/><rect class="cls-1" x="6.75" y="24.84" width="3.09" height="3.09" rx="0.37"/><rect class="cls-1" x="11.05" y="24.84" width="3.09" height="3.09" rx="0.37"/><rect class="cls-1" x="15.35" y="24.84" width="3.09" height="3.09" rx="0.37"/><rect class="cls-1" x="23.95" y="18.22" width="2.26" height="2.26" rx="0.37"/><rect class="cls-1" x="27.1" y="18.22" width="2.26" height="2.26" rx="0.37"/><rect class="cls-1" x="23.95" y="21.94" width="2.26" height="2.26" rx="0.37"/><rect class="cls-1" x="27.1" y="21.94" width="2.26" height="2.26" rx="0.37"/><rect class="cls-1" x="23.95" y="25.66" width="2.26" height="2.26" rx="0.37"/><rect class="cls-1" x="27.1" y="25.66" width="2.26" height="2.26" rx="0.37"/></svg>