<svg id="圖層_1" data-name="圖層 1" xmlns="http://www.w3.org/2000/svg" viewBox="0 0 36 36"><defs><style>.cls-1{fill:#666;}</style></defs><title>tabs_icon</title><path class="cls-1" d="M30.45,5.6H5.55A2.56,2.56,0,0,0,3,8.16V24.51a2.55,2.55,0,0,0,2.55,2.55H15l.16,1.46H12.69a.94.94,0,0,0,0,1.88H23.1a.94.94,0,1,0,0-1.88H20.85L21,27.06h9.44A2.55,2.55,0,0,0,33,24.51V8.16A2.56,2.56,0,0,0,30.45,5.6ZM16.83,28.52l-.14-1.25h2.62l-.14,1.25ZM5.55,7.27h24.9a.88.88,0,0,1,.88.89v13.9H4.67V8.16A.88.88,0,0,1,5.55,7.27ZM30.45,25.4H5.55a.88.88,0,0,1-.88-.89v-.78H31.33v.78A.88.88,0,0,1,30.45,25.4Z"/><path class="cls-1" d="M19.51,19.74a.87.87,0,0,0,.59-.24l8.25-8.25a.85.85,0,0,0,0-1.18.82.82,0,0,0-1.18,0l-8.25,8.25a.85.85,0,0,0,0,1.18A.87.87,0,0,0,19.51,19.74Z"/><path class="cls-1" d="M22.91,19.5a.82.82,0,0,0,0,1.17.82.82,0,0,0,1.18,0l5.3-5.3a.83.83,0,0,0-1.18-1.18Z"/></svg>