<?xml version="1.0" encoding="UTF-8"?>
<svg id="_圖層_1" data-name="圖層_1" xmlns="http://www.w3.org/2000/svg" version="1.1" xmlns:xlink="http://www.w3.org/1999/xlink" viewBox="0 0 22 22">
  <!-- Generator: Adobe Illustrator 29.1.0, SVG Export Plug-In . SVG Version: 2.1.0 Build 142)  -->
  <defs>
    <style>
      .st0 {
        fill: #fff;
      }

      .st1 {
        fill: none;
      }

      .st2 {
        clip-path: url(#clippath);
      }
    </style>
    <clipPath id="clippath">
      <rect class="st1" width="22" height="22"/>
    </clipPath>
  </defs>
  <g class="st2">
    <path class="st0" d="M11,0C4.9,0,0,4.9,0,11s4.9,11,11,11,11-4.9,11-11S17.1,0,11,0ZM11.1,9.8c1.9,0,3.4,1.5,3.4,3.4,0,1.5-.9,2.7-2.3,3.2v1.3c0,.6-.5,1.1-1.1,1.1-.6,0-1.1-.5-1.1-1.1,0,0,0,0,0,0v-1.1h-1.1c-.6,0-1.1-.5-1.1-1.1s.5-1.1,1.1-1.1h2.3c.6,0,1.1-.5,1.1-1.1,0-.6-.5-1.1-1.1-1.1,0,0,0,0,0,0-1.9,0-3.4-1.5-3.4-3.4,0-1.5.9-2.7,2.3-3.2v-1.3c0-.6.5-1.1,1.1-1.1s1.1.5,1.1,1.1v1.1h1.1c.6,0,1.1.5,1.1,1.1,0,.6-.5,1.1-1.1,1.1,0,0,0,0,0,0h-2.3c-.6,0-1.1.5-1.1,1.1s.5,1.1,1.1,1.1Z"/>
  </g>
</svg>