<svg width="40" height="38" viewBox="0 0 40 38" fill="none" xmlns="http://www.w3.org/2000/svg">
<g clip-path="url(#clip0_30265_2786)">
<path d="M0 18.9886C0 16.9549 2.41796 15.3325 3.0167 13.5045C3.63846 11.6079 2.67127 8.88875 3.82268 7.31208C4.99712 5.71256 7.89868 5.80397 9.51065 4.6386C11.0996 3.49609 11.9056 0.708355 13.8169 0.0913975C15.6592 -0.50271 17.962 1.25676 19.9885 1.25676C22.015 1.25676 24.3408 -0.479859 26.1831 0.114248C28.0944 0.731205 28.9004 3.51894 30.4893 4.66145C32.1013 5.82682 35.0029 5.73541 36.1773 7.33493C37.3287 8.9116 36.3615 11.6308 36.9833 13.5274C37.582 15.3554 40 16.9777 40 19.0114C40 21.0451 37.582 22.6675 36.9833 24.4955C36.3615 26.3921 37.3287 29.1112 36.1773 30.6879C35.0029 32.2874 32.1013 32.196 30.4893 33.3614C28.9004 34.5039 28.0944 37.2916 26.1831 37.9086C24.3408 38.5027 22.038 36.7432 20.0115 36.7432C17.985 36.7432 15.6822 38.5027 13.84 37.9086C11.9286 37.2916 11.1226 34.5039 9.53368 33.3614C7.9217 32.196 5.02015 32.2874 3.84571 30.6879C2.6943 29.1112 3.66149 26.3921 3.03972 24.4955C2.44099 22.6675 0.0230282 21.0451 0.0230282 19.0114L0 18.9886Z" fill="url(#paint0_linear_30265_2786)"/>
<path d="M16.9719 28.1059H16.9488C16.3271 28.1059 15.7514 27.8088 15.4059 27.3061L11.6984 22.3247C11.0536 21.4564 11.2378 20.2454 12.1129 19.6055C12.988 18.9657 14.2085 19.1485 14.8533 20.0169L17.0179 22.9188L25.9989 11.4937C26.6667 10.6482 27.9103 10.4883 28.7623 11.1509C29.6143 11.8136 29.7755 13.0475 29.1077 13.893L18.5378 27.3289C18.1693 27.8088 17.5936 28.083 16.9949 28.083L16.9719 28.1059Z" fill="white"/>
</g>
<defs>
<linearGradient id="paint0_linear_30265_2786" x1="11.2147" y1="3.90739" x2="30.0156" y2="36.7324" gradientUnits="userSpaceOnUse">
<stop stop-color="#FEA93A"/>
<stop offset="1" stop-color="#D36100"/>
</linearGradient>
<clipPath id="clip0_30265_2786">
<rect width="40" height="38" fill="white"/>
</clipPath>
</defs>
</svg>
