<svg width="91" height="81" viewBox="0 0 91 81" fill="none" xmlns="http://www.w3.org/2000/svg">
<path d="M8.78946 43.1514C18.3664 22.8048 43.628 6.43362 65.1671 6.54204C86.7063 6.65046 96.3917 23.2385 86.8147 43.585C77.2378 63.9316 51.9762 80.3028 30.4371 80.1944C8.8979 80.086 -0.787509 63.4979 8.78946 43.1514Z" fill="#F7B70E"/>
<path d="M3.69401 36.6099C13.271 16.2633 38.5325 -0.107883 60.0716 0.000535406C81.6108 0.108954 91.2962 16.697 81.7192 37.0435C72.1423 57.3901 46.9168 73.7613 25.3416 73.6529C3.8024 73.5445 -5.88296 56.9564 3.69401 36.6099Z" fill="#F8C930"/>
<path d="M14.3919 36.6459C21.3668 21.8648 39.6896 9.97492 55.338 10.0472C70.9864 10.1195 78.0336 22.1539 71.0587 36.935C64.0838 51.7161 45.761 63.606 30.1126 63.5337C14.4642 63.4614 7.41696 51.427 14.3919 36.6459Z" fill="#F7B70E"/>
<path d="M57.867 22.4436L55.2289 19.8416L53.0967 22.1906C51.0006 20.6366 48.9767 19.9138 47.0252 20.0945C45.0375 20.2391 43.1583 21.3233 41.3513 23.2748C40.1587 24.5758 39.3275 25.8046 38.8577 26.961C38.3879 28.1175 38.2072 29.4185 38.2794 30.7918C38.3879 32.1651 38.7493 33.6468 39.4359 35.2731C40.0503 36.6826 40.4839 37.839 40.8092 38.7425C41.0983 39.646 41.279 40.3327 41.279 40.8386C41.279 41.3446 41.1345 41.8144 40.7731 42.2119C40.2671 42.7901 39.6889 43.0431 39.1106 42.9708C38.5324 42.8986 37.8097 42.5372 37.0146 41.8505C36.0388 41.0193 35.0992 39.7906 34.2318 38.2004C33.3645 36.5742 32.6778 34.9117 32.208 33.2132L27.293 38.5257C26.7871 39.0678 26.5703 39.7183 26.7871 40.1881C27.799 42.6456 29.2445 44.7055 31.0877 46.4041L29.0277 48.6448C28.3411 49.4037 28.2688 50.2349 28.9193 50.7408L30.9431 52.3671L34.1957 48.7532C36.4363 50.0542 38.6047 50.4517 40.737 49.9819C42.833 49.5121 44.7846 48.2834 46.5554 46.2957C48.1094 44.5248 49.0129 42.7179 49.1936 40.9109C49.3743 39.0678 48.9406 36.8994 47.8564 34.3335C47.3143 33.0686 46.9168 32.0567 46.6638 31.2616C46.4109 30.4666 46.3024 29.8522 46.3385 29.3824C46.3385 28.9487 46.5554 28.515 46.8807 28.1175C47.2782 27.6838 47.748 27.467 48.2539 27.5031C48.7599 27.5393 49.3742 27.9007 50.0609 28.5512C51.5426 29.9245 52.6991 32.0206 53.5303 34.8033L57.7225 32.3097C58.7344 31.6953 59.2765 30.7918 58.9874 30.1052C58.1923 28.0091 57.1443 26.2382 55.8432 24.7565L57.9393 22.4436" fill="white"/>
</svg>
