<svg width="82" height="81" viewBox="0 0 82 81" fill="none" xmlns="http://www.w3.org/2000/svg">
<path d="M73.5294 43.8768C64.603 23.4218 41.6905 6.68921 22.392 6.43624C3.05735 6.18326 -5.36315 22.5906 3.56331 43.0094C12.4898 63.4644 35.3661 80.197 54.7007 80.45C74.0354 80.7029 82.4559 64.2956 73.5294 43.8768Z" fill="#F7B70E"/>
<path d="M78.0106 37.4434C69.0842 16.9885 46.1717 0.255863 26.8732 0.00288653C7.53856 -0.25009 -0.881953 16.1573 8.04451 36.5761C16.971 57.0311 39.8473 73.7636 59.1819 74.0166C78.5166 74.2696 86.9371 57.8623 78.0106 37.4434Z" fill="#F8C930"/>
<path d="M68.4338 37.3357C61.9648 22.4823 45.3406 10.3033 31.2824 10.1588C17.2241 10.0142 11.1527 21.868 17.6216 36.7213C24.0906 51.5747 40.7148 63.7537 54.7731 63.8982C68.7952 64.0789 74.9028 52.189 68.4338 37.3357Z" fill="#F7B70E"/>
<path d="M37.4988 19.5911H33.415L34.6799 22.4099C32.0417 22.6991 30.2709 23.458 29.4758 24.7229C28.6446 25.9878 28.7169 27.7947 29.7288 30.0715C30.3793 31.5894 31.1744 32.8181 32.0779 33.83C32.9814 34.8419 34.1378 35.7816 35.5111 36.5766C36.8844 37.4078 38.5468 38.1668 40.4984 38.8173C42.2331 39.3955 43.6425 39.9015 44.6906 40.3351C45.7386 40.7327 46.5337 41.1302 47.0396 41.4555C47.5456 41.7807 47.907 42.1783 48.1238 42.6481C48.4129 43.2986 48.3768 43.8045 47.9793 44.0575C47.5817 44.3466 46.8228 44.455 45.7025 44.455C44.3653 44.455 42.6668 44.1298 40.6429 43.5877C38.6191 43.0095 36.6676 42.3228 34.7883 41.4916L37.3904 47.4546C37.6434 48.069 38.1493 48.5749 38.7275 48.7918C41.5826 49.8398 44.3653 50.4181 47.0035 50.5987L48.0877 53.0924C48.4491 53.9597 49.2441 54.5018 50.0754 54.5018H52.7858L51.015 50.5265C53.5447 50.2012 55.171 49.3339 55.9661 47.8883C56.725 46.4427 56.6166 44.5634 55.5686 42.2144C54.6651 40.1544 53.3279 38.4559 51.5571 37.1187C49.7862 35.7816 47.2926 34.5889 44.1123 33.5409C42.5583 33.0349 41.2935 32.6013 40.39 32.2037C39.4503 31.8424 38.7998 31.481 38.33 31.1918C37.8963 30.9027 37.5711 30.5052 37.3542 30.0354C37.1374 29.4933 37.1735 29.0957 37.4627 28.8428C37.7879 28.5898 38.4384 28.4452 39.4865 28.4452C41.691 28.4452 44.4737 29.168 47.7624 30.5052L47.5817 26.313C47.5456 25.3011 46.8951 24.3615 45.9916 24.0362C43.3895 23.1327 40.9321 22.5906 38.6914 22.4461L37.4627 19.6272" fill="white"/>
</svg>
