<svg width="30" height="24" viewBox="0 0 30 24" fill="none" xmlns="http://www.w3.org/2000/svg">
<g clip-path="url(#clip0_30173_4148)">
<path d="M16.9926 4.49876C17.3567 4.12221 17.5995 3.64657 17.6804 3.1313C17.7815 2.61602 17.7006 2.10074 17.4983 1.60528C17.296 1.12964 16.9319 0.71346 16.4869 0.436003C16.0418 0.158547 15.5361 0 15.0101 0C14.4842 0 13.9582 0.158547 13.5132 0.436003C13.0681 0.71346 12.7242 1.12964 12.5017 1.60528C12.2994 2.08092 12.2185 2.61602 12.3196 3.1313C12.4208 3.64657 12.6635 4.12221 13.0277 4.49876L9.4673 8.87861C9.4673 8.87861 9.34593 8.9777 9.26501 8.99752C9.18409 8.99752 9.10318 8.99752 9.04249 8.97771L5.44168 7.21387C5.54283 6.6986 5.50237 6.1635 5.30008 5.68786C5.09778 5.21222 4.75389 4.79604 4.30884 4.49876C3.8638 4.20149 3.33784 4.04294 2.81188 4.04294C2.28591 4.04294 1.75995 4.18167 1.29468 4.47894C0.849637 4.7564 0.48551 5.17258 0.283217 5.64822C0.0606953 6.10405 7.46548e-06 6.63914 0.101154 7.15442C0.2023 7.66969 0.445051 8.14534 0.809178 8.52188C1.1733 8.89843 1.65881 9.15607 2.16454 9.27498L4.63251 22.0974C4.73366 22.6325 5.01687 23.1082 5.46191 23.4649C5.88672 23.8018 6.43291 24 6.9791 24H23.0209C23.0209 24 23.8705 24 24.6393 23.4451C25.2259 23.0289 25.4687 22.0776 25.4687 22.0776L27.8557 9.25516C28.3817 9.13625 28.8469 8.87861 29.2111 8.50206C29.5752 8.12552 29.8179 7.64988 29.9191 7.1346C30.0202 6.61932 29.9393 6.08423 29.737 5.60859C29.5145 5.13295 29.1706 4.71676 28.7256 4.43931C28.2805 4.16185 27.7546 4.0033 27.2084 4.0033C26.6824 4.0033 26.1564 4.16185 25.7114 4.45912C25.2664 4.7564 24.9225 5.17258 24.7202 5.64822C24.5179 6.12386 24.4572 6.65896 24.5786 7.17424L20.9778 8.93807C20.9778 8.93807 20.8362 8.9777 20.7552 8.95789C20.6743 8.95789 20.6136 8.89843 20.5529 8.83898L16.9926 4.47894V4.49876Z" fill="#FCCD56"/>
<path d="M2.75118 9.41366C4.27062 9.41366 5.50236 8.20693 5.50236 6.71836C5.50236 5.2298 4.27062 4.02307 2.75118 4.02307C1.23175 4.02307 0 5.2298 0 6.71836C0 8.20693 1.23175 9.41366 2.75118 9.41366Z" fill="#FFB000"/>
<path d="M14.9899 5.39059C16.5093 5.39059 17.7411 4.18386 17.7411 2.69529C17.7411 1.20672 16.5093 0 14.9899 0C13.4705 0 12.2387 1.20672 12.2387 2.69529C12.2387 4.18386 13.4705 5.39059 14.9899 5.39059Z" fill="#FFB000"/>
<path d="M27.2488 9.39388C28.7683 9.39388 30 8.18716 30 6.69859C30 5.21002 28.7683 4.0033 27.2488 4.0033C25.7294 4.0033 24.4977 5.21002 24.4977 6.69859C24.4977 8.18716 25.7294 9.39388 27.2488 9.39388Z" fill="#FFB000"/>
</g>
<defs>
<clipPath id="clip0_30173_4148">
<rect width="30" height="24" fill="white"/>
</clipPath>
</defs>
</svg>
