<?xml version="1.0" encoding="UTF-8"?>
<svg id="_圖層_1" data-name="圖層 1" xmlns="http://www.w3.org/2000/svg" viewBox="0 0 128.8 106.13">
  <defs>
    <style>
      .cls-1 {
        fill: #ffebab;
      }
    </style>
  </defs>
  <path class="cls-1" d="M127.94,53.79c1.4.6,1,2.6-.5,2.8-14.4,1.4-27,10.3-33.1,23.4-.6,1.4-2.6,1-2.8-.5-1.4-14.4-10.3-27-23.4-33.1-1.4-.6-1-2.6.5-2.8,14.4-1.4,27-10.3,33.1-23.4.6-1.4,2.6-1,2.8.5,1.4,14.4,10.3,27,23.4,33.1Z"/>
  <path class="cls-1" d="M45.69,10.65c.8,0,1,1,.4,1.4-6.4,3.8-10.3,10.7-10.3,18.1,0,.8-1,1-1.4.4-3.8-6.4-10.7-10.3-18.1-10.3-.8,0-1-1-.4-1.4,6.4-3.8,10.3-10.7,10.3-18.1,0-.8,1-1,1.4-.4,3.8,6.4,10.7,10.3,18.1,10.3Z"/>
  <path class="cls-1" d="M30.25,85.98c.8,0,1,1,.4,1.4-6.4,3.7-10.4,10.6-10.5,18,0,.8-1,1-1.4.4-3.7-6.5-10.6-10.4-18-10.5-.8,0-1-1-.4-1.4,6.5-3.7,10.4-10.6,10.5-18,0-.8,1-1,1.4-.4,3.7,6.5,10.6,10.4,18,10.5Z"/>
</svg>