<?xml version="1.0" encoding="UTF-8"?>
<svg id="_圖層_1" xmlns="http://www.w3.org/2000/svg" version="1.1" viewBox="0 0 834 860">
  <!-- Generator: Adobe Illustrator 29.6.1, SVG Export Plug-In . SVG Version: 2.1.1 Build 9)  -->
  <defs>
    <style>
      .st0 {
        fill: #ffc728;
      }

      .st1 {
        fill: #b2caef;
      }

      .st2 {
        fill: #fff;
        isolation: isolate;
        opacity: .9;
      }

      .st3 {
        fill: #04175b;
      }

      .st4 {
        fill: #d19262;
      }

      .st5 {
        fill: #90a6e8;
      }

      .st6 {
        fill: #fd9158;
      }

      .st7 {
        fill: #45458e;
      }

      .st8 {
        fill: #ff828b;
      }

      .st9 {
        fill: #e1e8ff;
      }

      .st10 {
        fill: #a75b14;
      }

      .st11 {
        fill: #b59161;
      }

      .st12 {
        fill: #ffddca;
      }

      .st13 {
        fill: #f7b70e;
      }

      .st14 {
        fill: #ffb000;
      }

      .st15 {
        fill: #6880c9;
      }

      .st16 {
        fill: #fccd56;
      }
    </style>
  </defs>
  <g>
    <path class="st9" d="M673.1,473.8c41.8-27.1,25.9-74.8,25.9-74.8-35.8,24.8-25.9,74.8-25.9,74.8Z"/>
    <path class="st9" d="M739.8,113.6c19.5-45.9-20.4-76.5-20.4-76.5-15.8,40.7,20.4,76.5,20.4,76.5Z"/>
    <path class="st9" d="M617.9,526.8c45.1-21.2,35.8-70.6,35.8-70.6-38.9,19.7-35.8,70.6-35.8,70.6Z"/>
    <path class="st9" d="M673.3,498.6c44.8,21.9,77.4-16.5,77.4-16.5-39.8-17.9-77.4,16.5-77.4,16.5Z"/>
    <path class="st9" d="M722,451.4c46.4,18.2,75.8-22.5,75.8-22.5-41.1-14.6-75.8,22.5-75.8,22.5Z"/>
    <path class="st9" d="M619.6,543.3c44.8,21.9,77.4-16.5,77.4-16.5-39.8-17.9-77.4,16.5-77.4,16.5Z"/>
    <path class="st9" d="M772.2,344c49.8-1.6,60.8-50.6,60.8-50.6-43.5,2.7-60.8,50.6-60.8,50.6Z"/>
    <path class="st9" d="M775.8,293c48.8-10.3,50.9-60.5,50.9-60.5-42.4,10.3-50.9,60.5-50.9,60.5Z"/>
    <path class="st9" d="M747.8,407c49.6,4.7,66.7-42.6,66.7-42.6-43.5-2.8-66.7,42.6-66.7,42.6Z"/>
    <path class="st9" d="M768.8,102.9c-25.3,35.5.9,79.2.9,79.2,30.2-39.6-.9-79.2-.9-79.2Z"/>
    <path class="st9" d="M801.7,171.1c-34.2,27.1-21,76.3-21,76.3,40-29.7,21-76.3,21-76.3Z"/>
    <path class="st9" d="M761.9,220.6c-8.4-49.2-58.5-53.3-58.5-53.3,8.7,42.7,58.5,53.3,58.5,53.3Z"/>
    <path class="st9" d="M726.8,418.7c22.8-44.4-14.9-77.8-14.9-77.8-18.7,39.4,14.9,77.8,14.9,77.8Z"/>
    <path class="st9" d="M760.3,293.5c8.7-49.1-37.1-69.9-37.1-69.9-6.3,43.2,37.1,69.9,37.1,69.9Z"/>
    <path class="st9" d="M755.9,368.4c12.5-48.3-31.5-72.6-31.5-72.6-9.6,42.5,31.5,72.6,31.5,72.6Z"/>
    <path class="st9" d="M672.7,108.2c13,41.6,63.6,47.1,63.6,47.1-13.3-48.1-63.6-47.1-63.6-47.1Z"/>
    <path class="st9" d="M643.8,55.3c16.5,40.4,67.3,41.5,67.3,41.5-17.4-46.8-67.3-41.5-67.3-41.5Z"/>
    <path class="st9" d="M160.9,473.8c-41.8-27.1-25.9-74.8-25.9-74.8,35.8,24.8,25.9,74.8,25.9,74.8Z"/>
    <path class="st9" d="M94.2,113.6c-19.5-45.9,20.4-76.5,20.4-76.5,15.8,40.7-20.4,76.5-20.4,76.5Z"/>
    <path class="st9" d="M216.1,526.8c-45.1-21.2-35.8-70.6-35.8-70.6,38.9,19.7,35.8,70.6,35.8,70.6Z"/>
    <path class="st9" d="M160.7,498.6c-44.8,21.9-77.4-16.5-77.4-16.5,39.8-17.9,77.4,16.5,77.4,16.5Z"/>
    <path class="st9" d="M112,451.4c-46.4,18.2-75.8-22.5-75.8-22.5,41.1-14.6,75.8,22.5,75.8,22.5Z"/>
    <path class="st9" d="M214.4,543.3c-44.8,21.9-77.4-16.5-77.4-16.5,39.8-17.9,77.4,16.5,77.4,16.5Z"/>
    <path class="st9" d="M61.8,344c-49.8-1.6-60.8-50.6-60.8-50.6,43.5,2.7,60.8,50.6,60.8,50.6Z"/>
    <path class="st9" d="M58.2,293c-48.8-10.3-50.9-60.5-50.9-60.5,42.4,10.3,50.9,60.5,50.9,60.5Z"/>
    <path class="st9" d="M86.2,407c-49.6,4.7-66.7-42.6-66.7-42.6,43.5-2.8,66.7,42.6,66.7,42.6Z"/>
    <path class="st9" d="M65.2,102.9c25.3,35.5-.9,79.2-.9,79.2-30.2-39.6.9-79.2.9-79.2Z"/>
    <path class="st9" d="M32.3,171.1c34.2,27.1,21,76.3,21,76.3-40-29.7-21-76.3-21-76.3Z"/>
    <path class="st9" d="M72.1,220.6c8.4-49.2,58.5-53.3,58.5-53.3-8.7,42.7-58.5,53.3-58.5,53.3Z"/>
    <path class="st9" d="M107.2,418.7c-22.8-44.4,14.9-77.8,14.9-77.8,18.7,39.4-14.9,77.8-14.9,77.8Z"/>
    <path class="st9" d="M73.8,293.5c-8.7-49.1,37.1-69.9,37.1-69.9,6.3,43.2-37.1,69.9-37.1,69.9Z"/>
    <path class="st9" d="M78.1,368.4c-12.5-48.3,31.5-72.6,31.5-72.6,9.6,42.5-31.5,72.6-31.5,72.6Z"/>
    <path class="st9" d="M161.3,108.2c-13,41.6-63.6,47.1-63.6,47.1,13.3-48.1,63.6-47.1,63.6-47.1Z"/>
    <path class="st9" d="M190.2,55.3c-16.5,40.4-67.3,41.5-67.3,41.5,17.4-46.8,67.3-41.5,67.3-41.5Z"/>
  </g>
  <path class="st3" d="M426.9,88.8s-17.1-13.1-12-35.5c5.1-22.4,30.2-17.2,40.2-9,0,0,59.2-13.1,72.7,30.3,0,0,36.5-25.9,64-6.5,27.5,19.3,2.4,63.4,2.4,63.4,0,0-10,18.6,12.1,45.5,22,26.9,12.1,92-44.4,91.3h-100.2l-34.8-179.5h0Z"/>
  <path class="st7" d="M307.3,550.2s-38.6,102.3-34.9,180c3.7,77.7,34.9,232.7,34.9,232.7h358.1s3.2-174.9-19.3-250.6c-24.8-83.6-59.7-117.9-67.9-162.1h-270.9Z"/>
  <path class="st15" d="M656,764.2h-.7c-82.3-25-115.8-155.7-117.1-161.3-.3-1.3.5-2.6,1.8-3,1.3-.3,2.6.5,3,1.8.3,1.3,34.1,133.5,113.8,157.8,1.3.4,2,1.7,1.6,3.1-.3,1-1.3,1.7-2.4,1.7h0Z"/>
  <path class="st12" d="M445.1,54.7s-24.3,22.5-30.3,48.3c0,0-27.1,4.7-29.9,26.7-4.1,33.3,39.5,43.2,39.5,43.2l-9.5,47.3s-48.9,17-97,29.9c-48.2,12.9-64.7,55.1-69.3,77.7-4.6,22.5-63.8,145.7-63.8,145.7l-70.6,7s-37.3,179.5,58.6,178.6c0,0,59.7,5.4,116.6-116.8l-3.7,35.2s33.5,19.6,59.7,22.3l3.2-46.4s40.9,4.6,91.4.5l-1.8,46.9s73.9,5,113.9-7.4l7.3,86.8s53.3-.9,98.7,0,74.4-62.5,67.5-130.5-70.3-243.1-70.3-243.1c0,0-11.5-19.7-41.8-29.9-30.3-10.1-124.9-50.6-124.9-50.6l15.6-89.2s-10.5-25.3-28.5-33.6c-17.9-8.3-33.1-29.9-30.7-48.7h0Z"/>
  <path class="st5" d="M361.5,326.3l-39,267.9c7.6,2.6,15.5,4.7,22.9,5.5l3.2-46.4s40.9,4.6,91.4.5l-1.8,46.9s28.8,2,60.1.4v-269.3c-90.9,9.2-136.8-5.5-136.8-5.5h0Z"/>
  <path class="st8" d="M172.8,659s59.7,5.4,116.6-116.8l-3.7,35.2s33.5,19.6,59.7,22.3l3.2-46.4c26.6-224.3,66.3-333.2,66.3-333.2,0,0-48.9,17-97,29.9-48.2,12.9-64.7,55.1-69.3,77.7-4.6,22.5-63.8,145.7-63.8,145.7l-70.6,7s-37.3,179.5,58.6,178.6h0Z"/>
  <path class="st8" d="M438.1,600.6s73.9,5,113.9-7.4l-3.2,86.9s63.8-.9,109.3,0c45.4.9,74.4-62.5,67.5-130.5s-70.3-243.1-70.3-243.1c0,0-11.5-19.7-41.8-29.9-30.3-10.1-124.9-50.6-124.9-50.6-22.5,79-48.7,327.6-48.7,327.6l-1.8,46.9h0Z"/>
  <path class="st12" d="M529.1,162.1c-6.4,11.1-19,15.9-28,10.6-9-5.2-11.2-18.5-4.8-29.6,6.4-11.1,19-15.9,28-10.6,9,5.2,11.2,18.5,4.8,29.6Z"/>
  <path class="st4" d="M501,175.2c-.4,0-.8,0-1.2-.3-2.2-1.3-4-2.9-5.6-5-.8-1.1-.6-2.6.5-3.4,1.1-.8,2.6-.6,3.4.5,1.1,1.5,2.5,2.7,4.1,3.7,1.2.7,1.6,2.2.9,3.3-.5.8-1.3,1.2-2.1,1.2h0Z"/>
  <path class="st4" d="M505.1,155.3c-1,0-2-.7-2.3-1.7-.4-1.3.3-2.7,1.6-3.1l20-6.5c1.3-.4,2.7.3,3.1,1.6s-.3,2.7-1.6,3.1l-20,6.5c-.2,0-.5.1-.8.1h0Z"/>
  <path class="st4" d="M509.9,165.4c-1,0-1.9-.6-2.3-1.6-.5-1.3.2-2.7,1.5-3.1,7.5-2.7,6.2-11,6.1-11.4-.2-1.3.7-2.6,2-2.8,1.4-.2,2.6.7,2.8,2,.8,4.4,0,13.6-9.3,16.9-.3,0-.6.1-.8.1h0Z"/>
  <path class="st3" d="M424.4,172.8s21.1,7.4,34.9,6.5c0,0-25.7,14.7-39,14.2l4.1-20.7Z"/>
  <path class="st4" d="M427,124.3c-4.2,0-9.4-2.8-11.3-6.4-1.2-2.3-1.1-4.6.3-6.6,3.7-4.9,13.8-3,15.8-2.5,1.3.3,2.2,1.6,1.8,2.9-.3,1.3-1.6,2.2-2.9,1.9-3.7-.8-9.5-1-10.8.7-.1.2-.3.4,0,1.2,1.1,2.1,4.9,4.1,7.4,3.8,1.4,0,2.5.8,2.6,2.2.1,1.4-.8,2.5-2.2,2.6h-.8v.2Z"/>
  <path class="st4" d="M436.5,137.8c-4.9,0-9.2-1.4-9.5-1.5-1.3-.4-2-1.8-1.5-3.1.4-1.3,1.8-2,3.1-1.6,0,0,9.7,3.2,15-.6,1.1-.8,2.6-.5,3.4.6s.5,2.6-.6,3.4c-3,2.1-6.6,2.8-9.9,2.8h0Z"/>
  <path class="st3" d="M464.2,112.5c-.6,2.1-2.4,3.5-3.9,3.1-1.6-.4-2.4-2.5-1.8-4.7.6-2.1,2.4-3.5,3.9-3.1,1.6.4,2.4,2.5,1.8,4.7Z"/>
  <path class="st3" d="M429.2,103.7c-.8,2.1-2.6,3.3-4.1,2.8-1.6-.6-2.2-2.7-1.5-4.8.8-2.1,2.6-3.3,4.1-2.8,1.6.6,2.2,2.7,1.5,4.8Z"/>
  <path class="st7" d="M531.8,118.7h-.2c-1.4,0-2.4-1.3-2.2-2.6,1.8-21.2-3.9-40.4-3.9-40.6-.4-1.3.3-2.6,1.6-3.1,1.3-.4,2.6.3,3.1,1.6.2.8,6,20.3,4.1,42.4,0,1.3-1.2,2.3-2.4,2.3h-.1Z"/>
  <path class="st3" d="M289.4,544.6h-.2c-1.4,0-2.4-1.3-2.2-2.6l7.7-83.3c-10.1-9.3-17.6-27.5-18.9-45.8-1.3-18.7,3.7-35.4,14.1-47.1,23.1-26,30.2-61.7,30.2-62,.2-1.3,1.6-2.2,2.9-1.9,1.3.2,2.2,1.6,1.9,2.9-.3,1.5-7.3,37.3-31.4,64.4-9.5,10.7-14.1,26.2-12.9,43.5,1.2,17.7,8.5,35.2,18.1,43.3.6.5.9,1.3.8,2.1l-7.8,84.5c0,1.3-1.2,2.2-2.4,2.2h0v-.2Z"/>
  <path class="st3" d="M564.4,344.4c-.3,0-.6,0-.8-.1-1.3-.5-1.9-1.9-1.5-3.2.9-2.5,22.9-61.5,60.4-63.3,1.3,0,2.5,1,2.5,2.3s-1,2.5-2.3,2.5c-34.3,1.6-55.8,59.5-56,60.1-.4,1-1.3,1.6-2.3,1.6h0Z"/>
  <path class="st1" d="M424.3,464.8c-.5,0-.9-.1-1.4-.4-30.7-20.5-15.5-67.9-14.8-69.9.4-1.3,1.8-2,3.1-1.6,1.3.4,2,1.8,1.6,3.1-.1.5-14.7,45.8,12.9,64.3,1.1.8,1.4,2.3.7,3.4-.5.7-1.2,1.1-2,1.1h-.1Z"/>
  <path class="st15" d="M482.7,965.3c-1.2,0-2.2-.8-2.4-2.1l-28.8-177.8c-46.4-28.7-73.3-94.3-74.4-97.1-.5-1.3,0-2.7,1.4-3.2,1.3-.5,2.7,0,3.2,1.4.3.7,27.8,67.8,73.4,95.3.6.4,1,1,1.1,1.7l28.9,179c.2,1.3-.7,2.6-2,2.8h-.4Z"/>
  <path class="st3" d="M548.8,680.2c6.6-.5,9.8-28.5,7.3-62.5s-9.9-61.2-16.5-60.7-9.8,28.5-7.3,62.5c2.6,34,9.9,61.2,16.5,60.7Z"/>
  <path class="st13" d="M275.2,397.2c-40.9,6.2-76.4-12.6-102.6-54.5-18.9-30.2-26.4-61.6-26.7-63-.7-3,0-6.1,1.6-8.7,1.7-2.5,4.4-4.2,7.4-4.7l70.1-10.7c6-.9,11.6,3.2,12.5,9.2s-3.2,11.6-9.2,12.5l-57.7,8.8c9.3,28.4,38.9,98.6,101.2,89.2,6-.9,11.6,3.2,12.5,9.2s-3.2,11.6-9.2,12.5h0v.2Z"/>
  <path class="st13" d="M372.7,382.3c40.9-6.2,69.1-34.8,81.7-82.7,9.1-34.4,6.8-66.7,6.7-68-.2-3.1-1.7-5.9-4.1-7.8-2.4-1.9-5.5-2.7-8.5-2.3l-70.1,10.7c-6,.9-10.1,6.5-9.2,12.5s6.5,10.1,12.5,9.2l57.7-8.8c-.5,29.8-7.8,105.8-70,115.3-6,.9-10.1,6.5-9.2,12.5.9,6,6.5,10.1,12.5,9.2h0v.2Z"/>
  <path class="st10" d="M271.8,551l4.4,28.8c.9,6.3,35.1,6.4,76.2,0,41.1-6.3,73.6-16.5,72.7-22.8l-4.4-28.8-148.9,22.7h0Z"/>
  <path class="st6" d="M348.1,551.1c41.1-6.3,73.6-16.5,72.7-22.8-1-6.3-35.1-6.4-76.2,0-41.1,6.3-73.6,16.5-72.7,22.8,1,6.3,35.1,6.4,76.2,0h0Z"/>
  <path class="st0" d="M395.8,510.2l-13.4-3.5c-21.7-14.1-30.1-58.1-30.1-58.1l2.4-.4c1.3-.2,2.3-1.5,2.1-2.8l-2.4-15.4c59.6-72.3,42.8-218.5,42.8-218.5,0,0-29.1-8.4-100.5,2.5-71.5,10.9-96.7,27.6-96.7,27.6,0,0,27.6,144.5,106,195.8l2.4,15.4c.2,1.3,1.5,2.3,2.8,2.1l2.4-.4s5,44.5-11.4,64.5l-11.7,7.4c-3.5,2.2-5.5,6.4-4.8,10.5l1.6,10.2s21.1,2.7,59.9-3.2,58.1-14.8,58.1-14.8l-1.6-10.2c-.6-4.1-3.7-7.5-7.7-8.6h-.2Z"/>
  <path class="st11" d="M305.6,439.8c-.8,0-1.6-.7-1.9-1.5-.5-1.2,0-2.7,1.3-3.2,1.1-.5,27.1-11.3,49.7-7.5,1.3.2,2.3,1.5,2,2.8-.2,1.3-1.6,2.3-2.8,2-21.2-3.4-46.8,7.1-47,7.2-.4.2-.8.2-1.3.2h0Z"/>
  <path class="st11" d="M313.1,456.9c-.8,0-1.6-.7-1.9-1.5-.5-1.3.1-2.7,1.4-3.2.8-.3,19.4-7.6,39.9-6.1,1.3,0,2.4,1.3,2.3,2.6,0,1.4-1.3,2.4-2.6,2.3-19.4-1.4-37.6,5.7-37.7,5.7-.4.1-.8.2-1.2.1h-.2Z"/>
  <path class="st11" d="M311.9,524.6c-8-1.1-10.9-3.3-11.5-3.7-1-.8-1.2-2.4-.3-3.4.8-1,2.4-1.2,3.4-.4.3.2,11.7,7.9,56.1-1.1,1.3-.3,2.6.6,2.9,1.9.3,1.3-.6,2.6-1.9,2.9-24.8,5-39.7,5-48.6,3.8h0Z"/>
  <path class="st2" d="M311,266.7l-.2-1.7c0-.6.3-1.1.9-1.2h.1c13.5.6,25.6,8.5,31.5,20.4v.3c0,.6-.3,1.1-.9,1.2-.3,0-18.5,2.5-22.3,3h-.2c-.3,0-.7-.2-.8-.5l-2.4-4.1c-3.2-6-5.2-11.9-5.9-17.5h.2ZM294.9,304.3v-.4c0-.6-.6-.9-1.2-.9l-19,2.6c-.6,0-.9.6-.9,1.1,1.5,9.2,6.3,17.1,13,22.5.2.1.5.2.8.2s.8-.4.8-.8l6.4-24.5h.1v.2ZM331.3,330l-15.3-26.4c-1.1-1.9-3.3-3.1-5.7-2.8-2.2.3-3.9,1.8-4.6,3.8l-7.8,30v.4c0,.4.3.7.6.8h0c5.2,1.7,10.9,2.4,16.7,1.6s11.1-2.9,15.7-6c.3-.2.5-.6.4-1,0-.1,0-.2-.1-.4h.1ZM347.1,296.8c0-.6-.6-.9-1.2-.9l-19,2.6c-.6,0-.9.6-.9,1.2s0,.3.1.4l12.7,21.9c.2.3.6.6,1,.5.3,0,.5-.2.7-.4,5-7.1,7.5-15.9,6.5-25.2h0ZM275.3,294.8c.3,0,18.5-2.5,22.3-3h0c.4,0,.7-.4.8-.8l1.2-4.5c1.6-6.7,1.8-12.9,1-18.4l-.2-1.7c0-.6-.6-.9-1.2-.9h-.1c-12.9,4.1-22.4,15-24.9,28.1v.3c0,.6.6.9,1.2.9h-.1Z"/>
  <path class="st12" d="M544.2,558.2l-93.6,3.8s-14.2-18.6-26.4-24.5c-12.2-5.8-28-11.7-33.5-33.1,0,0-6.9-9-11.3,5.5-4.5,14.5,6.5,34.1,6.5,34.1,0,0,.3,14.2-18.6,19.3-11,3-70.6,18.6-79.5,33.4-8.9,14.8,27.5,4.8,27.5,4.8,0,0,16.5,4.5,22.4,8.3,5.8,3.8,26.2,5.5,39.6,0s42.9-.7,42.9-.7l135.3,55.4s9.9-67.3-11.3-106.4h0Z"/>
  <path class="st4" d="M315.3,604.1c-1.1,0-2.2-.8-2.4-2-.2-1.3.6-2.6,1.9-2.9,1.8-.3,44.5-8.6,57.8-10,1.3,0,2.5.8,2.7,2.2.1,1.4-.8,2.5-2.2,2.7-13,1.4-57,9.8-57.4,9.9h-.5,0Z"/>
  <path class="st4" d="M333.1,610c-1.3,0-2.4-1.1-2.4-2.4s1.1-2.5,2.4-2.5,26.3-.3,41.2-5.2c1.3-.4,2.7.3,3.1,1.6s-.3,2.7-1.6,3.1c-15.6,5.1-41.5,5.4-42.6,5.4h-.1Z"/>
  <path class="st4" d="M440.8,613c-5.1,0-23.9-1.8-26.1-2-1.4,0-2.3-1.3-2.2-2.7.1-1.4,1.3-2.3,2.7-2.2,9.2.9,23.7,2.1,26,2,1.3,0,2.5.9,2.6,2.3,0,1.4-.9,2.5-2.3,2.6h-.8,0Z"/>
  <path class="st3" d="M540.5,560.7c-1.3,0-2.4-1-2.4-2.3s.9-2.5,2.3-2.6l99.2-8c1.4,0,2.5.9,2.6,2.3,0,1.4-.9,2.5-2.3,2.6l-99.2,8h-.2,0Z"/>
  <path class="st3" d="M582,557.3c-1.2,0-2.3-.9-2.4-2.2l-13.9-131.7c-.1-1.4.8-2.5,2.2-2.7,1.4,0,2.5.8,2.7,2.2l13.9,131.7c.1,1.4-.8,2.5-2.2,2.7h-.3Z"/>
  <path class="st3" d="M210.2,468.9s-50.4,29.1-96.1,11.5c-2.7-25.5,95.2-31,95.2-31l.9,19.4h0Z"/>
  <path class="st12" d="M146.6,371.8l-27.1,110.4s18.6,7.2,47.2,1.9c24.1-4.5,43.6-15.3,43.6-15.3l-4-83.3-59.7-13.8h0Z"/>
  <path class="st3" d="M206.5,389.7l-55.3,8s25.4,33.1,57.7,42.8l-2.4-50.8Z"/>
  <path class="st12" d="M144.2,333.5s9.7-22.4,7.6-35.5c-2.1-13.1,16.2-20.7,17.6,19.6,0,0,31-16.9,42.4-11.4s-25.1,18.6-41,37.9c0,0,52-30.4,63-28.3s1.4,10.4,1.4,10.4c0,0,8.9,7.9-.3,16.5l-5.3,6.2c2.1,3.5,6.5,9.3-1.1,20.7-12.1,18.1-30.4,56.9-58.7,44.1s-39.6-61.4-25.5-80.3h0Z"/>
  <path class="st4" d="M142,339.5c-.7,0-1.3-.3-1.8-.8-.9-1-.9-2.5,0-3.4.6-.6,14.5-13.5,27.9-19.8,1.2-.6,2.7,0,3.2,1.2.6,1.2,0,2.7-1.2,3.3-12.8,6.1-26.6,18.8-26.7,19-.5.4-1.1.7-1.7.7h0l.3-.2Z"/>
  <path class="st4" d="M172.4,374.2c-.8,0-1.5-.3-2-1-.8-1.1-.6-2.6.6-3.4l62.7-45.5c1.1-.8,2.6-.6,3.4.6.8,1.1.6,2.6-.6,3.4l-62.7,45.5c-.4.3-.9.5-1.4.5h0Z"/>
  <path class="st4" d="M191.7,395.6c-.6,0-1.1-.2-1.6-.6-1-.9-1.1-2.4-.3-3.4l43-50.3c.9-1,2.4-1.1,3.4-.3,1,.9,1.1,2.4.3,3.4l-43,50.3c-.5.6-1.2.8-1.8.8h0Z"/>
  <path class="st4" d="M161.7,354.4c-.7,0-1.4-.3-1.8-.8-.9-1-.8-2.6.3-3.4l8.9-7.7c1-.9,2.6-.8,3.4.3.9,1,.8,2.6-.3,3.4l-8.9,7.7c-.5.4-1,.6-1.6.6h0Z"/>
  <path class="st3" d="M227.4,564.1c-1.2,0-2.2-.8-2.4-2l-17.1-92.8c-.2-1.3.6-2.6,2-2.9,1.3-.2,2.6.6,2.9,2l17.1,92.8c.2,1.3-.6,2.6-2,2.9h-.5Z"/>
  <path class="st15" d="M423.6,794.7h-.7l-44.2-12.9c-1.3-.4-2-1.7-1.6-3s1.7-2,3-1.6l44.2,12.9c1.3.4,2,1.7,1.6,3-.3,1.1-1.3,1.7-2.4,1.7h.1Z"/>
  <path class="st16" d="M513,12c1.1-.6,2-1.5,2.5-2.6.6-1.1.8-2.3.7-3.5,0-1.2-.6-2.4-1.4-3.4s-1.8-1.7-3-2.1C510.6,0,509.4,0,508.2.4c-1.2.3-2.3,1-3.1,1.9-.8.9-1.4,2.1-1.6,3.3s0,2.5.5,3.6l-11.2,7.3s-.3.1-.5.1-.3,0-.5-.2l-6.6-6.6c.6-1.1.9-2.3.8-3.6,0-1.2-.5-2.5-1.3-3.4-.8-1-1.8-1.7-3-2.1-1.2-.4-2.4-.5-3.7-.1-1.2.3-2.3,1-3.1,1.9-.8.9-1.4,2.1-1.6,3.3s0,2.5.6,3.6c.5,1.1,1.4,2.1,2.4,2.7l-4.1,30.7c-.2,1.3,0,2.6.8,3.7.7,1.1,1.7,1.9,3,2.3l35.5,11.7s1.9.6,4,0c1.6-.5,2.9-2.5,2.9-2.5l14.8-27.2c1.2.1,2.5-.1,3.6-.7s2-1.5,2.6-2.6.8-2.4.8-3.6-.6-2.4-1.4-3.4-1.8-1.7-3-2.1-2.4-.4-3.7,0c-1.2.3-2.3,1-3.1,2-.8.9-1.3,2.1-1.5,3.3l-9.3,1.4h-.5c-.1,0-.3-.2-.3-.4l-4.6-12.5h0l.2-.2Z"/>
  <path class="st14" d="M479.9,13c3.5,0,6.4-2.9,6.4-6.4s-2.9-6.4-6.4-6.4-6.4,2.9-6.4,6.4,2.9,6.4,6.4,6.4Z"/>
  <path class="st14" d="M510,12.8c3.5,0,6.4-2.9,6.4-6.4s-2.9-6.4-6.4-6.4-6.4,2.9-6.4,6.4,2.9,6.4,6.4,6.4Z"/>
  <path class="st14" d="M534.1,30.8c3.5,0,6.4-2.9,6.4-6.4s-2.9-6.4-6.4-6.4-6.4,2.9-6.4,6.4,2.9,6.4,6.4,6.4Z"/>
</svg>