<svg width="58" height="58" viewBox="0 0 58 58" fill="none" xmlns="http://www.w3.org/2000/svg"><g clip-path="url(#clip0_35_8)"><g clip-path="url(#clip1_35_8)"><path d="M29 58c16.016 0 29-12.984 29-29S45.016 0 29 0 0 12.984 0 29s12.984 29 29 29z" fill="#91C9FC"/><path d="M14.427 38.5V26.16h-4.16v-2.48h11.32v2.48h-4.2V38.5h-2.96zm14.815.28c-3.92 0-6.62-2.94-6.62-7.74 0-4.82 2.7-7.62 6.62-7.62s6.62 2.82 6.62 7.62c0 4.8-2.7 7.74-6.62 7.74zm0-2.56c2.2 0 3.6-2.02 3.6-5.18 0-3.18-1.4-5.08-3.6-5.08s-3.6 1.9-3.6 5.08c0 3.16 1.4 5.18 3.6 5.18zm9.51 2.28V23.68h4.86c3.28 0 5.8 1.16 5.8 4.66 0 3.38-2.54 4.9-5.72 4.9h-1.98v5.26h-2.96zm2.96-7.6h1.78c2.04 0 3.02-.86 3.02-2.56 0-1.72-1.08-2.3-3.12-2.3h-1.68v4.86z" fill="#fff"/></g></g><rect x="1.16" y="1.16" width="55.68" height="55.68" rx="27.84" stroke="#fff" stroke-width="2.32"/><defs><clipPath id="clip0_35_8"><rect width="58" height="58" rx="29" fill="#fff"/></clipPath><clipPath id="clip1_35_8"><path fill="#fff" d="M0 0h58v58H0z"/></clipPath></defs></svg>