<svg width="40" height="41" viewBox="0 0 40 41" fill="none" xmlns="http://www.w3.org/2000/svg"><circle cx="20" cy="20.35" r="20" fill="#3B72C3"/><path d="M21.66 27.408l3.662 3.663h-2.324l-3.154-3.477c-2.253-.04-4.037-.762-5.352-2.168-1.315-1.413-1.973-3.232-1.973-5.459 0-2.409.684-4.34 2.051-5.791 1.367-1.458 3.242-2.188 5.625-2.188 2.181 0 3.94.704 5.274 2.11 1.34 1.4 2.011 3.23 2.011 5.488 0 2.097-.507 3.838-1.523 5.225-1.016 1.38-2.448 2.246-4.297 2.597zm-1.6-13.935c-1.706 0-3.1.586-4.18 1.758-1.08 1.165-1.621 2.692-1.621 4.58 0 1.894.524 3.418 1.572 4.57 1.055 1.152 2.419 1.729 4.092 1.729 1.732 0 3.135-.563 4.209-1.69 1.074-1.133 1.611-2.67 1.611-4.61 0-1.991-.508-3.544-1.523-4.657-1.01-1.12-2.396-1.68-4.16-1.68z" fill="#fff"/></svg>