<svg width="602" height="60" viewBox="0 0 602 60" fill="none" xmlns="http://www.w3.org/2000/svg"><path d="M123.443 29.02l3.638 1.35c.744.31.965.92.573 1.57-1.055 1.66-2.191 3.32-3.467 4.89-.131.17-.221.44-.221.7v20.31c0 .66-.443 1.09-1.096 1.09h-3.909c-.654 0-1.096-.44-1.096-1.09V45.7c0-1.05-.523-1.27-1.226-.57l-.091.09-.392.31c-.522.48-1.186.39-1.628-.22-.703-1-1.708-2.27-2.543-3.27-.482-.61-.391-1.27.171-1.7 3.639-2.79 7.418-6.81 9.92-10.87.312-.48.834-.66 1.357-.44l.01-.01zm-1.578-9.13l3.689 1.49c.794.35.964 1 .442 1.7-2.895 3.45-6.583 6.99-10.091 9.52-.573.44-1.186.26-1.578-.35a61.396 61.396 0 00-1.929-2.93c-.443-.61-.352-1.27.261-1.7 2.894-2.01 6.01-4.93 7.859-7.38.312-.39.835-.57 1.357-.35h-.01zm29.096 14.55v3.54c0 .65-.442 1.09-1.095 1.09h-3.297c-.653 0-1.095.44-1.095 1.09v12.01c0 3.1-.523 4.76-2.634 5.68-1.799.83-4.261.96-7.326.96-.613 0-1.056-.39-1.146-.96a28.371 28.371 0 00-.965-3.49c-.352-1.05.09-1.66 1.186-1.62 1.578.04 3.156.04 3.688.04.744 0 1.006-.17 1.006-.74V40.16c0-.66-.443-1.09-1.096-1.09h-9.256c-.664 0-1.096-.44-1.096-1.09v-3.54c0-.65.442-1.09 1.096-1.09h20.935c.663 0 1.095.44 1.095 1.09zm-1.045-11.53v3.54c0 .66-.442 1.09-1.096 1.09h-18.131c-.663 0-1.095-.44-1.095-1.09v-3.54c0-.66.442-1.09 1.095-1.09h18.131c.654 0 1.096.44 1.096 1.09zm35.117 5.85h6.01c.703 0 1.146.44 1.095 1.14v1.44c-.311 16.77-.613 23.01-1.929 24.94-1.056 1.62-2.111 2.1-3.558 2.45-1.096.22-2.633.26-4.262.22-.613 0-1.055-.39-1.145-.96-.131-.96-.443-2.01-.794-3.01-.392-1.09-.041-1.66 1.145-1.62.794.04 1.488.04 1.98.04.613 0 .965-.17 1.407-.74.744-1.05 1.146-5.63 1.317-17.29 0-.66-.442-1.09-1.095-1.09h-.392c-.614 0-1.056.44-1.096 1.05-.613 10.13-2.412 17.82-8.251 23.19-.573.52-1.227.39-1.669-.22a29.972 29.972 0 00-1.628-1.88 1.106 1.106 0 00-.874-.31c-5.749.57-11.548 1.05-16.151 1.48-.613.04-1.096-.35-1.186-.96l-.352-2.75c-.131-.7.311-1.22 1.005-1.27 1.799-.09 3.859-.22 6.101-.39.522 0 .874-.39.874-.92s-.352-.87-.874-.87h-5.046c-.653 0-1.095-.44-1.095-1.09v-2.01c0-.66.442-1.09 1.095-1.09h5.397c.312 0 .523-.22.523-.57a.5.5 0 00-.523-.52h-5.226c-.653 0-1.095-.44-1.095-1.09V33.05c0-.65.442-1.09 1.095-1.09h5.226a.5.5 0 00.523-.52c0-.3-.221-.52-.523-.52h-6.231c-.663 0-1.095-.44-1.095-1.09v-2.1c0-.66.442-1.09 1.095-1.09h6.282c.261 0 .482-.22.482-.52 0-.26-.221-.48-.442-.44h-.091c-1.759.09-3.467.13-5.135.17-.573.04-1.006-.35-1.146-.92a17.68 17.68 0 00-.523-1.79c-.311-.92.091-1.53 1.055-1.57 5.448-.31 11.368-.92 15.629-1.75.482-.09.965.13 1.186.57l1.407 2.4c.442.79.171 1.44-.704 1.62-1.628.26-3.286.48-5.095.7a.801.801 0 00-.704.79c0 .44.312.74.744.74h5.709c.653 0 1.095.44 1.095 1.09v2.1c0 .66-.442 1.09-1.095 1.09h-5.93a.5.5 0 00-.523.52c0 .3.221.52.523.52h5.397c.653 0 1.096.44 1.096 1.09v11.01c0 .65-.443 1.09-1.096 1.09h-5.357c-.352 0-.573.22-.573.52 0 .35.221.57.573.57h5.618c.664 0 1.096.44 1.096 1.09v1c0 1.27.482 1.4 1.005.26 1.708-3.58 2.412-7.95 2.673-13.19.04-.7-.392-1.13-1.095-1.13h-1.056c-.663 0-1.095-.44-1.095-1.09v-3.32c0-.66.442-1.09 1.095-1.09h1.227c.653 0 1.095-.44 1.095-1.09v-6.25c0-.66.442-1.09 1.096-1.09h3.598c.653 0 1.095.44 1.095 1.09 0 2.14 0 4.24-.04 6.25 0 .66.442 1.09 1.095 1.09l.031-.01zm-25.498 7.42c0 .39.261.66.653.66h.794c.352 0 .613-.26.613-.66 0-.35-.261-.61-.613-.61h-.794c-.392 0-.653.26-.653.61zm.613 5.29h.834c.352 0 .613-.26.613-.61s-.261-.61-.613-.61h-.834a.595.595 0 00-.613.61c0 .35.261.61.613.61zm8.342-5.9h-.794c-.392 0-.654.26-.654.61 0 .39.262.66.654.66h.794c.351 0 .613-.26.613-.66 0-.35-.262-.61-.613-.61zm.613 5.29c0-.35-.262-.61-.613-.61h-.835a.596.596 0 00-.613.61c0 .35.262.61.613.61h.835c.351 0 .613-.26.613-.61zm-2.061 10.21v.04c0 .44.262.66.704.66 1.889-.17 3.779-.31 5.658-.44.171-.04.392-.13.483-.31l.13-.17c.171-.26.091-.44-.221-.44h-6.1c-.392 0-.654.26-.654.65v.01zm59.077-16.63l3.155 1.75c.483.26.664.79.483 1.31-1.799 4.54-4.342 8.25-7.548 11.22-.794.74-.703 1.49.352 1.88 2.985 1 6.362 1.75 10.141 2.23 1.316.17 1.628.92.834 1.96a35.112 35.112 0 00-2.151 3.54c-.221.39-.653.65-1.146.57-5.97-.87-10.925-2.4-15.055-4.67-.312-.17-.744-.17-1.056-.04-4.432 2.23-9.437 3.67-14.874 4.59-.573.13-1.056-.17-1.277-.7-.442-1-1.095-2.27-1.758-3.32-.664-1.05-.352-1.75.834-1.92 3.819-.52 7.327-1.31 10.492-2.36.965-.35 1.096-1.09.392-1.83-1.578-1.66-3.025-3.58-4.301-5.68-.392-.66-.171-1.31.613-1.57l.965-.31c1.316-.44 1.276-.74-.131-.74h-5.045c-.664 0-1.096-.44-1.096-1.09v-3.71c0-.65.442-1.09 1.096-1.09h10.492c.654 0 1.096-.44 1.096-1.09v-1.75c0-.66-.442-1.09-1.096-1.09h-12.593c-.663 0-1.095-.44-1.095-1.09v-3.8c0-.65.442-1.09 1.095-1.09h12.593c.654 0 1.096-.44 1.096-1.09v-2.79c0-.65.442-1.09 1.095-1.09h4.131c.653 0 1.096.44 1.096 1.09v2.79c0 .66.442 1.09 1.095 1.09h12.774c.654 0 1.096.44 1.096 1.09v3.8c0 .66-.442 1.09-1.096 1.09h-12.774c-.653 0-1.095.44-1.095 1.09v1.75c0 .65.442 1.09 1.095 1.09h5.578l.221-.04.523-.09c.221-.04.523 0 .744.13l.01-.02zm-5.97 5.89h-10.011c-.703 0-.924.39-.522.96 1.316 2.01 3.025 3.76 5.095 5.24.221.17.483.17.744 0 2.02-1.44 3.819-3.19 5.226-5.24.392-.57.131-.96-.522-.96h-.01zm27.136-20.31l3.859 1.27c.653.22.925.79.704 1.4-.925 2.23-1.98 4.54-3.156 6.68-.041.04-.041.13-.041.17l-.13.35v27.86c0 .66-.442 1.09-1.096 1.09h-3.99c-.663 0-1.095-.44-1.095-1.09V40.72c0-1-.392-1.14-1.056-.39-.653.74-1.407.57-1.839-.31-.613-1.31-1.537-2.93-2.281-4.1-.312-.48-.262-1.05.13-1.44 3.377-3.49 6.584-8.56 8.604-13.76.261-.61.794-.87 1.407-.7h-.02zm29.226 9.44v3.93c0 .66-.442 1.09-1.095 1.09h-2.061c-.663 0-1.095.44-1.095 1.09v16.38c0 3.58-.794 5.15-3.025 6.03-2.111.87-5.176 1.05-9.397 1-.523 0-.965-.35-1.096-.92-.261-1-.703-2.18-1.186-3.28-.482-1.09-.09-1.75 1.096-1.7 2.542.09 5.045.09 5.879.04 1.005 0 1.447-.31 1.447-1.22V35.57c0-.66-.442-1.09-1.095-1.09h-13.216c-.664 0-1.096-.44-1.096-1.09v-3.93c0-.66.442-1.09 1.096-1.09h13.216c.653 0 1.095-.44 1.095-1.09v-6.2c0-.66.443-1.09 1.096-1.09h4.08c.664 0 1.096.44 1.096 1.09v6.2c0 .65.442 1.09 1.095 1.09h2.061c.653 0 1.095.44 1.095 1.09h.01zm-14.613 17.07l-3.729 1.88c-.663.31-1.276.09-1.578-.61-.965-2.18-2.593-5.11-3.95-7.64-.351-.61-.13-1.22.483-1.49l3.377-1.57c.573-.26 1.146-.09 1.447.44 1.447 2.4 3.297 5.37 4.432 7.56.312.57.091 1.14-.482 1.44v-.01zm24.895-26.68l3.467 1.05c.614.17.925.74.704 1.35a65.852 65.852 0 01-2.633 6.68c-.04.04-.04.13-.04.17l-.091.31V57.8c0 .66-.442 1.09-1.095 1.09h-3.558c-.664 0-1.096-.44-1.096-1.09V40.9c0-.83-.311-.92-.834-.26-.523.65-1.095.57-1.357-.26-.573-1.4-1.357-3.32-2.02-4.63-.221-.39-.131-.87.131-1.22 2.804-3.54 5.397-8.69 7.065-13.93.171-.61.744-.92 1.357-.74v-.01zm25.458 27.21h.09l2.151 1.18c.613.35.794.96.352 1.53-.573.74-1.226 1.44-1.93 2.1-1.316 1.09-1.146 1.88.573 2.05.925.09 1.89.17 2.854.22 1.407.09 1.709.83.925 1.96-.482.74-.965 1.53-1.357 2.23-.221.39-.653.61-1.055.61h-.091c-3.949-.39-7.507-1.05-10.623-2.14a.949.949 0 00-.703 0c-3.026 1-6.453 1.7-10.272 2.23-.482.09-.965-.17-1.186-.61-.311-.61-.744-1.27-1.186-1.88-.703-1.05-.392-1.75.834-1.88 1.759-.22 3.377-.44 4.915-.7.744-.13.834-.57.221-1.05l-.392-.31a1.236 1.236 0 00-1.276-.22c-.523.26-1.096.48-1.669.7-.522.17-1.005 0-1.356-.39l-.091-.09c-.261-.44-.613-.83-.965-1.27-.924-1-.794-1.79.573-2.23 2.724-.83 4.915-1.92 6.543-3.06.523-.35.482-.96.221-1.49-.311-.61-.613-.74-1.055-.22-.664.74-1.407 1.48-2.151 2.14-.392.31-.925.31-1.317 0l-1.929-1.53c-.573-.48-.523-1.09.09-1.49.613-.39.483-.74-.261-.74h-.653c-.664 0-1.096-.44-1.096-1.09v-3.93c0-.65.442-1.09 1.096-1.09h1.447c.663 0 1.095-.44 1.095-1.09v-8.08c0-.65.443-1.09 1.096-1.09h5.095c.312 0 .523-.22.654-.48v-.09c.04-.26-.131-.48-.443-.48h-7.377c-.653 0-1.095-.44-1.095-1.09v-2.01c0-.66.442-1.09 1.095-1.09h23.398c.653 0 1.095.44 1.095 1.09v2.01c0 .66-.442 1.09-1.095 1.09h-8.734c-.352 0-.613.22-.794.48v.09c-.171.26-.04.48.312.48h6.934c.654 0 1.096.44 1.096 1.09v8.08c0 .66.442 1.09 1.095 1.09h1.146c.663 0 1.096.44 1.096 1.09v3.93c0 .66-.523 1.09-1.186 1.09-.794 0-1.056.35-.573.96l.13.17c.392.52.222 1.13-.391 1.44l-1.89 1c-.573.26-1.186.09-1.538-.44l-.392-.57c-.613-.87-1.186-.7-1.889 0-.663.61-1.668.87-3.206.87h-2.191c-.262 0-.613.17-.794.35-.312.31-.312.57.09.57h6.543l.663-.13c.222-.04.483 0 .704.09l-.02.04zm-15.016-5.68c.392.22.664.04.664-.39v-.09c0-.39.261-.66.653-.66h3.337c.131 0 .171-.09.09-.22h-.04a.658.658 0 00-.442-.17h-6.141a.306.306 0 00-.312.31v.31l.131-.17 2.06 1.09v-.01zm11.548-12.23h-9.346c-.312 0-.483.17-.483.44 0 .31.171.48.483.48h9.346c.262 0 .443-.17.443-.48 0-.26-.171-.44-.443-.44zm.443 3.67a.5.5 0 00-.523-.52h-9.216a.5.5 0 00-.523.52c0 .3.221.52.523.52h9.216a.5.5 0 00.523-.52zm-10.272 3.28a.5.5 0 00.523.52h9.216a.5.5 0 00.523-.52c0-.3-.221-.52-.523-.52h-9.216a.5.5 0 00-.523.52zm6.533 14.23h-2.945c-1.095 0-1.226.39-.221.87l1.447.66c.171.04.352.04.523 0l1.407-.66c1.005-.48.874-.87-.221-.87h.01zm-2.895-8.95v.74c0 .87.221.96 1.186.96h.443c.261 0 .351-.13.17-.35-.351-.48-.794-1.05-1.276-1.57-.312-.31-.523-.22-.523.22zm3.247 1.7h.794c.442 0 .663-.04.834-.31.311-.44.573-.66 1.095-.48l1.096.39c.392.09.482 0 .221-.31-.312-.31-.261-.61.131-.79l2.633-1.31c.13-.04.171-.17.171-.26s-.091-.17-.171-.17h-4.473c-.572 0-.703.26-.351.7.04.04.13.13.17.22.222.31.131.65-.221.83l-2.06 1.09c-.392.22-.392.39.131.39v.01zm47.719 8.65h-1.98c-1.89 0-1.97.48-.261 1.18 2.06.83 4.08 1.7 5.749 2.45 1.407.66 1.316 1.44-.091 1.96l-4.261 1.57c-.312.09-.704.04-1.005-.13-1.84-1.14-4.784-2.62-7.86-3.97-1.226-.52-1.276-1.31-.09-1.96 1.186-.66 1.055-1.09-.262-1.09h-6.804c-1.226 0-1.276.35-.13.83 1.095.52 1.186 1.31.17 1.88-3.206 1.83-7.377 3.45-10.884 4.5-.392.09-.834 0-1.096-.31l-2.241-2.27c-1.055-1.05-.834-1.79.613-2.14 2.02-.44 3.99-.96 5.789-1.57 1.447-.48 1.357-.92-.171-.92h-1.487c-.663 0-1.096-.44-1.096-1.09V35.8c0-.66.443-1.09 1.096-1.09h11.196c1.226 0 1.628-.7.794-1.57-.392-.48-.874-.92-1.276-1.27-.443-.35-.443-.79-.041-1.09l.091-.04c.442-.31.261-.57-.261-.57-.664 0-1.186.44-1.186 1.09v1.62c0 .65-.443 1.09-1.096 1.09h-3.116c-.663 0-1.095-.44-1.095-1.09v-1.62c0-.66-.442-1.09-1.096-1.09h-1.055c-.522 0-.924.31-1.095.79-.613 1.7-1.488 3.41-2.895 4.89-.482.57-1.146.48-1.668-.09-.573-.66-1.277-1.31-1.98-1.88-.653-.57-.704-1.27-.131-1.92 2.191-2.58 2.543-5.55 2.543-7.99v-2.18c0-.83.523-1.27 1.357-1.09l1.98.52h.573c2.633-.39 5.306-.92 7.286-1.49.352-.09.794 0 1.096.31l1.799 1.7c.794.79.613 1.53-.483 1.79-2.462.57-5.226 1-7.899 1.27a.597.597 0 00-.483.48v.13c0 .22.171.44.483.44h9.256c.663 0 1.096.44 1.096 1.09v.39c0 .92.392 1.05.743.26.483-1.14.613-2.27.613-3.36v-2.49c0-.79.523-1.22 1.357-1.05l2.191.52h.483c2.944-.39 5.789-.87 7.899-1.49.352-.09.794 0 1.096.31l1.759 1.7c.834.79.663 1.53-.483 1.79-2.673.61-5.749 1.05-8.643 1.31-.312.04-.483.22-.483.48v.09c-.04.26.131.44.443.44h10.884c.654 0 1.096.44 1.096 1.09v2.14c0 .66-.442 1.09-1.096 1.09h-2.593c-.663 0-1.095.44-1.095 1.09v1.62c0 .65-.442 1.09-1.096 1.09h-3.156c-.653 0-1.095-.44-1.095-1.09v-1.62c0-.66-.442-1.09-1.096-1.09h-1.628c-.392 0-.834.26-1.005.66-.352.66-.744 1.31-1.276 1.92-1.096 1.31-.925 1.97.874 1.97h8.915c.663 0 1.095.44 1.095 1.09v14.85c0 .66-.442 1.09-1.095 1.09v-.01zM332.01 38.76c0 .39.221.61.613.61h15.317c.351 0 .573-.22.573-.61 0-.35-.222-.57-.573-.57h-15.317c-.392 0-.613.22-.613.57zm0 4.45c0 .35.221.57.573.57h15.357c.351 0 .573-.22.573-.57s-.222-.57-.573-.57h-15.357c-.352 0-.573.22-.573.57zm0 4.46c0 .39.221.61.613.61h15.317c.351 0 .573-.22.573-.61 0-.35-.222-.57-.573-.57h-15.317c-.392 0-.613.22-.613.57z" fill="#58393E"/><path d="M373.759 59.01c-6.05 0-9.075-3.44-9.075-7.57 0-3.27 1.387-5.93 4.231-8.34l15.649-13.59c4.321-3.87 6.653-6.62 6.653-10.75 0-3.78-3.196-6.97-8.04-6.97-4.845 0-8.985 3.44-11.066 7.91l-9.678-5.42C366.151 6.11 373.93 0 384.212 0c11.578 0 19.618 8 19.618 17.63 0 7.31-2.934 12.56-8.301 17.2l-14.352 12.56h24.201V59h-31.639l.02.01z" fill="#D93636"/><path d="M422.444 27.49l.261.04 2.462.35c.573.13.965.57.925 1.13-.442 6.77-1.317 12.27-2.945 16.77-.13.44 0 .96.352 1.27a27.879 27.879 0 013.246 3.14c.312.39.312.92.041 1.31l-2.282 3.01c-.523.7-1.226.7-1.799.04-.442-.57-.965-1.14-1.538-1.7-.573-.61-1.226-.52-1.708.13a22.38 22.38 0 01-5.618 5.46c-.573.39-1.186.22-1.578-.35a21.726 21.726 0 00-1.89-2.62c-.613-.74-.523-1.4.261-1.92 1.84-1.27 3.377-2.88 4.694-4.89.261-.39.171-.79-.131-1.09l-.09-.09-.131-.04-.09-.09c-.221-.13-.392-.04-.483.22-.09.31-.311.44-.613.26l-3.638-1.92a1.035 1.035 0 01-.573-1.22c.794-2.93 1.578-6.46 2.322-10.22.171-.79-.262-1.31-1.056-1.31h-.482c-.663 0-1.095-.44-1.095-1.09v-3.36c0-.65.442-1.09 1.095-1.09h1.93c.573 0 .965-.35 1.095-.92.352-2.1.664-4.15.965-6.11.091-.61.573-1 1.186-.96l3.467.35c.664.09 1.056.61.965 1.27l-.924 5.07c-.171.79.261 1.31 1.055 1.31h1.447l.704-.13h.171l.02-.01zm-3.076 5.68h-1.186a.609.609 0 00-.613.52c-.482 2.49-1.005 4.93-1.578 7.25-.04.26.091.52.312.7.352.22.663.44 1.005.7.442.35.874.22 1.055-.31.794-2.49 1.317-5.2 1.669-8.12.04-.44-.221-.74-.654-.74h-.01zm29.147 3.84v3.49c0 .66-.443 1.09-1.096 1.09h-6.543c-.663 0-1.095.44-1.095 1.09v9.83c0 2.84-.573 4.41-2.322 5.37-1.668.79-3.688 1.05-6.231 1.05-.573 0-.965-.35-1.096-.87-.311-1-.703-2.23-1.145-3.32-.443-1.05-.041-1.66 1.095-1.62 1.186 0 2.241.04 2.673 0h.091c.613 0 .834-.17.834-.7v-9.74c0-.65-.442-1.09-1.095-1.09h-6.061c-.663 0-1.095-.44-1.095-1.09v-3.49c0-.66.442-1.09 1.095-1.09h6.061c.663 0 1.095-.44 1.095-1.09v-2.49c0-.52.352-.87.925-.87h.392c.311 0 .573-.13.743-.35l.091-.09a38.07 38.07 0 001.668-2.23c.664-1 .262-1.66-.924-1.66h-8.644c-.663 0-1.095-.44-1.095-1.09v-3.36c0-.66.442-1.09 1.095-1.09h14.312l.221-.04.573-.13c.312-.09.704 0 .965.17l2.673 2.05c.483.35.613.96.262 1.48-1.97 2.84-4.433 6.16-6.845 8.73-.171.17-.311.48-.311.74v.44c0 .52.352.87.874.87h6.764c.663 0 1.096.44 1.096 1.09v.01zm3.085 1.23c0-.66.443-1.09 1.096-1.09h1.487c.654 0 1.096.44 1.096 1.09v3.89c0 3.67-.171 7.9-1.146 11.57-.311 1.05-1.055 1.22-1.93.57a8.707 8.707 0 00-1.095-.83h-.091c-.391-.35-.572-.83-.442-1.31.834-3.19 1.005-6.94 1.005-10.09v-3.8h.02zm-.492-3.85v-3.01c0-.66.442-1.09 1.095-1.09h12.865c.663 0 1.096.44 1.096 1.09v3.01c0 .66-.443 1.09-1.096 1.09h-2.633c-.653 0-1.096.44-1.096 1.09v21.27c0 .66-.442 1.09-1.095 1.09h-2.764c-.663 0-1.096-.44-1.096-1.09V36.57c0-.66-.442-1.09-1.095-1.09h-3.075c-.654 0-1.096-.44-1.096-1.09h-.01zm14.312-11.22v2.93c0 .66-.442 1.09-1.096 1.09h-11.146c-.663 0-1.095-.44-1.095-1.09v-2.93c0-.66.442-1.09 1.095-1.09h11.146c.654 0 1.096.44 1.096 1.09zm-2.935 28.34V38.19c0-.66.442-1.09 1.096-1.09h1.487c.663 0 1.096.44 1.096 1.09v13.32c0 .66-.443 1.09-1.096 1.09h-1.487c-.654 0-1.096-.44-1.096-1.09zm24.091 2.36h2.593c.653 0 1.096.44 1.096 1.09v2.18c0 .66-.443 1.09-1.096 1.09h-21.86c-.663 0-1.095-.44-1.095-1.09v-2.18c0-.66.442-1.09 1.095-1.09h3.156c.875 0 1.317-.57 1.005-1.31v-.09c-.171-.31-.311-.7-.482-1.05-.312-.61-.091-1.14.613-1.31.653-.17.613-.31-.04-.31h-1.709c-.663 0-1.095-.44-1.095-1.09v-6.03c0-.65.442-1.09 1.095-1.09h16.985c.664 0 1.096.44 1.096 1.09v6.03c0 .66-.442 1.09-1.096 1.09h-1.407c-.743 0-.743.13 0 .31.704.17.965.74.613 1.35v.09c-.171.22-.311.48-.442.7-.522.96-.131 1.62.965 1.62h.01zm3.075-16.6v2.23c0 .66-.442 1.09-1.095 1.09h-20.362c-.654 0-1.096-.44-1.096-1.09v-2.23c0-.66.442-1.09 1.096-1.09h20.362c.663 0 1.095.44 1.095 1.09zm-.532-14.1V34c0 .66-.442 1.09-1.096 1.09h-19.447c-.654 0-1.096-.44-1.096-1.09V23.17c0-.66.442-1.09 1.096-1.09h3.206c.663 0 1.095-.44 1.095-1.09v-.35c0-.65.442-1.09 1.096-1.09h2.191c.663 0 1.095.44 1.095 1.09v.57c0 .52.352.87.875.87.522 0 .874-.35.874-.87v-.57c0-.65.442-1.09 1.096-1.09h2.191c.663 0 1.095.44 1.095 1.09v.35c0 .66.442 1.09 1.096 1.09h3.507c.663 0 1.096.44 1.096 1.09h.03zm-16.895 3.1c0 .39.261.66.653.66h.262c.392 0 .653-.26.653-.66s-.261-.66-.653-.66h-.262c-.392 0-.653.26-.653.66zm0 4.59c0 .39.261.65.653.65h.312c.352 0 .613-.26.613-.65 0-.35-.261-.61-.613-.61h-.312c-.392 0-.653.26-.653.61zm1.498 14.8v.09c0 .39.261.65.653.65h7.729c.392 0 .663-.26.663-.65v-.09c0-.39-.261-.66-.663-.66h-7.729c-.392 0-.653.26-.653.66zm6.583 4.15h-3.689c-.704 0-.925.39-.613 1 .392.83.744 1.7.965 2.45.04.22-.091.44-.312.48-.261.09-.261.13 0 .13h3.337c.221 0 .221-.04 0-.09-.221-.05-.312-.22-.221-.44.352-.83.794-1.79 1.095-2.71.221-.48-.04-.83-.573-.83l.011.01zm-2.423-22.88h.483c.392 0 .653-.26.653-.66s-.261-.66-.653-.66h-.483c-.392 0-.653.26-.653.66s.261.66.653.66zm.533 3.31h-.523c-.392 0-.653.26-.653.61 0 .39.261.65.653.65h.523c.352 0 .613-.26.613-.65 0-.35-.261-.61-.613-.61zm5.699-3.97c0-.39-.262-.66-.654-.66h-.351c-.392 0-.654.26-.654.66s.262.66.654.66h.351c.392 0 .654-.26.654-.66zm0 4.59c0-.35-.262-.61-.613-.61h-.392c-.392 0-.654.26-.654.61 0 .39.262.65.654.65h.392c.351 0 .613-.26.613-.65z" fill="#58393E"/><path d="M2.215 40.79h81.459" stroke="#58393E" stroke-width="3" stroke-linecap="round" stroke-linejoin="round"/><path d="M93.433 39.379l-6.062-6.032a2.017 2.017 0 00-2.843 0l-6.062 6.032a1.993 1.993 0 000 2.828l6.062 6.032a2.017 2.017 0 002.843 0l6.062-6.032a1.993 1.993 0 000-2.828z" fill="#58393E"/><path d="M599.784 40.79h-81.459" stroke="#58393E" stroke-width="3" stroke-linecap="round" stroke-linejoin="round"/><path d="M508.577 42.203l6.062 6.031a2.018 2.018 0 002.843 0l6.062-6.031a1.993 1.993 0 000-2.829l-6.062-6.032a2.018 2.018 0 00-2.843 0l-6.062 6.032a1.993 1.993 0 000 2.829z" fill="#58393E"/></svg>