<svg width="598" height="60" viewBox="0 0 598 60" fill="none" xmlns="http://www.w3.org/2000/svg"><path d="M147.125 32.648c-.57 0-1.05.39-1.14.96-.61 5.37-1.66 9.96-3.41 13.84v.09c-.17.31-.13.7.04.96 1.22 1.97 2.75 3.67 4.59 4.98.74.52.79 1.22.17 1.92-.74.83-1.57 1.83-2.18 2.71-.39.61-1 .74-1.57.35a19.542 19.542 0 01-3.8-3.8c-.57-.66-1.22-.7-1.83-.04-1.31 1.44-2.84 2.75-4.63 3.93-.65.39-1.27.17-1.66-.48-.26-.52-.61-1.05-.96-1.62-.44-.61-1.09-.66-1.62-.13l-1.7 1.7c-.39.39-.96.44-1.4.13-.87-.57-1.92-1.18-3.06-1.79-.31-.17-.74-.17-1.05 0-2.31 1.18-5.24 2.01-8.91 2.62-.65.13-1.14-.22-1.31-.83-.22-.61-.48-1.27-.79-1.83-.52-1.09-.22-1.75 1-1.88 1.75-.22 3.23-.48 4.59-.83.31-.09.31-.22.04-.35l-.39-.17-.17.04-.09.04c-.09.04-.17.04-.26 0l-2.97-.66c-.96-.26-1.18-.92-.66-1.75l.17-.31c.66-1 .26-1.66-.92-1.66l-1.05.04c-.65 0-1.09-.44-1.14-1.05l-.04-2.1c-.04-.7.39-1.13 1.09-1.13 1.48 0 3.14 0 4.93-.04.35 0 .79-.26.96-.61.17-.35.04-.57-.35-.57h-3.97c-.65 0-1.09-.44-1.09-1.09v-5.98c0-.66.44-1.09 1.09-1.09h5.5c.31 0 .48-.17.48-.48 0-.31-.17-.48-.48-.48h-4.76c-.66 0-1.09-.44-1.09-1.09v-2.18c0-.66-.44-1.09-1.09-1.09h-.35c-.65 0-1.09-.44-1.09-1.09v-2.01c0-.66.44-1.09 1.09-1.09h.35c.65 0 1.09-.44 1.09-1.09v-2.1c0-.66.44-1.09 1.09-1.09h4.37c.52 0 .87-.35.87-.92 0-.52.35-.87.92-.87h3.32c.52 0 .87.35.87.87 0 .57.35.92.92.92h4.76c.66 0 1.09.44 1.09 1.09v2.1c0 .66.44 1.09 1.09 1.09h.44c.65 0 1.09.44 1.09 1.09v2.01c0 .66-.44 1.09-1.09 1.09h-.44c-.65 0-1.09.44-1.09 1.09v2.18c0 .66-.44 1.09-1.09 1.09h-5.2c-.31 0-.48.17-.48.48 0 .31.17.48.48.48h6.59c.26 0 .44.17.44.44s.09.26.17.04c1.97-4.11 3.14-9.43 3.8-14.98.09-.7.57-1.09 1.27-.96l3.54.48c.61.13 1 .61.92 1.27-.22 1.44-.44 2.88-.74 4.32-.13.79.26 1.31 1.09 1.31h6.77c.66 0 1.09.44 1.09 1.09v3.41c0 .61-.48 1.05-1.09 1.05l.03.01zm-31.61 6.64c0 .35.22.57.57.57h1.05c.35 0 .57-.22.57-.57s-.22-.57-.57-.57h-1.05c-.35 0-.57.22-.57.57zm1.7-14.28h-.44c-.31 0-.52.22-.52.48 0 .31.22.52.52.52h.44c.26 0 .48-.22.48-.52 0-.26-.22-.48-.48-.48zm-.44 5.54h.44c.26 0 .48-.22.48-.52 0-.26-.22-.48-.48-.48h-.44c-.31 0-.52.22-.52.48 0 .31.22.52.52.52zm1.84 18.48l-.04.04c-.13.22-.04.39.17.48.83.31 1.66.66 2.49.96.26.09.57.04.74-.17.17-.22.35-.44.48-.7.39-.57.13-.96-.52-.96l-2.79.04c-.22 0-.44.13-.52.31h-.01zm12.71-.57l-2.49.09c-.31 0-.52.17-.61.48-.39 1.14-.83 2.18-1.44 3.1-.26.39-.17.79.26 1 .61.31 1.22.66 1.79.96.17.09.44.13.61 0 2.75-1.48 4.85-3.41 6.46-5.76.09-.17.13-.44.04-.61-.65-1.62-1.18-3.32-1.66-5.15-.17-.65-.48-.7-.87-.09l-.13.17c-.31.48-.74.44-1.05.04l-.96-1.14c-.57-.61-.96-.44-.96.39v.74c0 .39-.26.65-.66.65h-8.12c-.17 0-.17.04 0 .04.17.04.22.17.13.31l-.13.26c-.17.31-.04.52.31.52 3.14-.04 6.38-.13 9.56-.17.44 0 .7.26.65.7l-.09 2.84c-.04.35-.31.61-.65.61l.01.02zm-7.43-23.45h-.57c-.31 0-.52.22-.52.48 0 .31.22.52.52.52h.57c.26 0 .48-.22.48-.52 0-.26-.22-.48-.48-.48zm-.57 5.54h.57c.26 0 .48-.22.48-.52 0-.26-.22-.48-.48-.48h-.57c-.31 0-.52.22-.52.48 0 .31.22.52.52.52zm1.23 8.17h-1.18c-.35 0-.57.22-.57.57s.22.57.57.57h1.18c.35 0 .57-.22.57-.57s-.22-.57-.57-.57zm15.28-6.03h-1.44c-.48.04-.7.35-.66.79.26 1.62.57 3.23.92 4.76.31 1.44.83 1.44 1.09 0 .31-1.53.57-3.14.74-4.85.04-.44-.22-.74-.66-.7h.01zm20.49-12.7l3.49 1.18c.7.22.96.79.7 1.44-.92 2.1-1.92 4.24-3.1 6.33-.04.04-.04.13-.04.17l-.13.39v28.25c0 .65-.44 1.09-1.09 1.09h-3.54c-.65 0-1.09-.44-1.09-1.09v-17.91c0-1.22-.52-1.4-1.35-.48l-.26.31c-.7.74-1.4.57-1.83-.35-.57-1.31-1.35-2.88-2.01-4.02-.26-.48-.17-1.05.22-1.4 3.36-3.36 6.59-8.25 8.65-13.28.26-.57.79-.83 1.4-.66l-.02.03zm23.49 31.66h4.98c.65 0 1.09.44 1.09 1.09v3.49c0 .66-.44 1.09-1.09 1.09h-24.54c-.66 0-1.09-.44-1.09-1.09v-3.49c0-.66.44-1.09 1.09-1.09h11.44c.48 0 .92-.31 1.05-.79 1.22-4.63 2.45-10.83 2.97-16.07.09-.7.61-1.09 1.27-1l4.32.7c.65.09 1 .61.92 1.27-.96 5.07-2.27 10.31-3.45 14.5-.26.83.13 1.4 1.05 1.4l-.01-.01zm-18.82-24.94h7.03c.65 0 1.09-.44 1.09-1.09v-4.37c0-.66.44-1.09 1.09-1.09h3.93c.66 0 1.09.44 1.09 1.09v4.37c0 .65.44 1.09 1.09 1.09h7.73c.66 0 1.09.44 1.09 1.09v3.49c0 .66-.44 1.09-1.09 1.09h-23.06c-.65 0-1.09-.44-1.09-1.09v-3.49c0-.66.44-1.09 1.09-1.09h.01zm8.69 22.97l-3.71.79c-.74.17-1.27-.26-1.31-1.05-.22-3.76-.96-9.04-1.92-13.54-.17-.7.22-1.22.87-1.31l3.32-.57c.61-.09 1.09.22 1.27.79 1.09 4.54 2.1 10 2.36 13.8.04.57-.31 1-.87 1.09h-.01zm34.47-21.48v16.38c0 1.75-.17 3.32-1.14 4.19-.7.66-1.4.87-2.27.96-.66.04-1.09-.39-1.18-1.05-.04-.26-.09-.57-.17-.92-.26-1.14-.57-1.09-.57.13v10c0 .66-.44 1.09-1.09 1.09h-2.79c-.66 0-1.09-.44-1.09-1.09v-25.02c0-.31-.22-.52-.52-.52-.35 0-.57.22-.57.52v16.38c0 .66-.44 1.09-1.09 1.09h-2.14c-.65 0-1.09-.44-1.09-1.09v-21.05c0-.66.44-1.09 1.09-1.09h3.23c.65 0 1.09-.44 1.09-1.09v-5.33c0-.65.44-1.09 1.09-1.09h2.79c.65 0 1.09.44 1.09 1.09v5.33c0 .66.44 1.09 1.09 1.09h3.14c.66 0 1.09.44 1.09 1.09h.01zm-5.33 4.71v11.44c0 .26.17.44.44.44h.39c.22 0 .31-.09.31-.39v-11.49c0-.35-.22-.57-.57-.57s-.57.22-.57.57zm25.98 11.01l1.79 1.66c.57.48.52 1.14-.04 1.62-.96.79-1.97 1.57-2.97 2.27-.57.44-.66 1.09-.13 1.57.83.79 1.75 1.44 2.79 2.01.92.52 1.09 1.22.39 2.05-.74.92-1.53 2.01-2.14 2.97-.35.57-.92.79-1.48.44-1.97-1.14-3.58-2.66-4.89-4.46-.66-.92-1-.83-.87.31l.04.96c.04.61-.31 1.09-.87 1.18l-11.31 2.01c-.66.09-1.14-.22-1.27-.83l-.7-3.1c-.17-.7.22-1.22.92-1.31.44-.09.87-.13 1.31-.17.57-.09.96-.52.96-1.09v-8.25c0-.52-.35-.87-.87-.87-.57 0-.92-.35-.92-.92v-3.06c0-.52.39-.92.96-.92.52 0 .92-.39.92-.96v-14.98c0-.66.44-1.09 1.09-1.09h16.81c.66 0 1.09.44 1.09 1.09v2.62c0 .66-.44 1.09-1.09 1.09h-11.75c-.35 0-.57.22-.57.57s.22.57.57.57h10.48c.66 0 1.09.44 1.09 1.09v2.18c0 .66-.44 1.09-1.09 1.09h-10.48c-.35 0-.57.22-.57.57s.22.57.57.57h10.48c.66 0 1.09.44 1.09 1.09v2.18c0 .66-.44 1.09-1.09 1.09h-10.44c-.35 0-.61.26-.61.61s.26.61.61.61h13.06c.65 0 1.09.44 1.09 1.09v2.71c0 .65-.44 1.09-1.09 1.09h-.44c-.96 0-1.14.44-.44 1.05h.01zm-12.14 8.12l3.01-.44c.52-.09.7-.44.48-.96-.96-2.14-1.7-4.58-2.27-7.25-.09-.31-.35-.52-.66-.52h-.65c-.39 0-.66.26-.66.66v7.9c0 .44.31.7.74.61h.01zm9.39-9.17h-2.31c-.57 0-.79.35-.61.87.17.52.35 1.09.57 1.57.22.48.61.57 1 .26l1.79-1.62c.65-.65.48-1.09-.44-1.09v.01zm56.92-22.97l3.45 1.05c.61.17.92.74.7 1.35-.74 2.23-1.62 4.5-2.62 6.68-.04.04-.04.13-.04.17l-.09.31v28.39c0 .66-.44 1.09-1.09 1.09h-3.54c-.66 0-1.09-.44-1.09-1.09v-16.9c0-.83-.31-.92-.83-.26-.52.65-1.09.57-1.35-.26-.57-1.4-1.35-3.32-2.01-4.63-.22-.39-.13-.87.13-1.22 2.79-3.54 5.37-8.69 7.03-13.93.17-.61.74-.92 1.35-.74v-.01zm25.33 27.21h.09l2.14 1.18c.61.35.79.96.35 1.53-.57.74-1.22 1.44-1.92 2.1-1.31 1.09-1.14 1.88.57 2.05.92.09 1.88.17 2.84.22 1.4.09 1.7.83.92 1.96-.48.74-.96 1.53-1.35 2.23-.22.39-.65.61-1.05.61h-.09c-3.93-.39-7.47-1.05-10.57-2.14a.941.941 0 00-.7 0c-3.01 1-6.42 1.7-10.22 2.23-.48.09-.96-.17-1.18-.61-.31-.61-.74-1.27-1.18-1.88-.7-1.05-.39-1.75.83-1.88 1.75-.22 3.36-.44 4.89-.7.74-.13.83-.57.22-1.05l-.39-.31c-.35-.31-.83-.39-1.27-.22-.52.26-1.09.48-1.66.7-.52.17-1 0-1.35-.39l-.09-.09c-.26-.44-.61-.83-.96-1.27-.92-1-.79-1.79.57-2.23 2.71-.83 4.89-1.92 6.51-3.06.52-.35.48-.96.22-1.49-.31-.61-.61-.74-1.05-.22-.66.74-1.4 1.48-2.14 2.14-.39.31-.92.31-1.31 0l-1.92-1.53c-.57-.48-.52-1.09.09-1.49.61-.39.48-.74-.26-.74h-.65c-.66 0-1.09-.44-1.09-1.09v-3.93c0-.65.44-1.09 1.09-1.09h1.44c.66 0 1.09-.44 1.09-1.09v-8.08c0-.65.44-1.09 1.09-1.09h5.07c.31 0 .52-.22.65-.48v-.09c.04-.26-.13-.48-.44-.48h-7.34c-.65 0-1.09-.44-1.09-1.09v-2.01c0-.66.44-1.09 1.09-1.09h23.28c.65 0 1.09.44 1.09 1.09v2.01c0 .66-.44 1.09-1.09 1.09h-8.69c-.35 0-.61.22-.79.48v.09c-.17.26-.04.48.31.48h6.9c.65 0 1.09.44 1.09 1.09v8.08c0 .66.44 1.09 1.09 1.09h1.14c.66 0 1.09.44 1.09 1.09v3.93c0 .66-.52 1.09-1.18 1.09-.79 0-1.05.35-.57.96l.13.17c.39.52.22 1.13-.39 1.44l-1.88 1c-.57.26-1.18.09-1.53-.44l-.39-.57c-.61-.87-1.18-.7-1.88 0-.65.61-1.66.87-3.19.87h-2.18c-.26 0-.61.17-.79.35-.31.31-.31.57.09.57h6.51l.66-.13c.22-.04.48 0 .7.09l-.02.04zm-14.94-5.68c.39.22.66.04.66-.39v-.09c0-.39.26-.66.66-.66h3.32c.13 0 .17-.09.09-.22h-.04a.655.655 0 00-.44-.17h-6.11c-.17 0-.31.13-.31.31v.31l.13-.17 2.05 1.09-.01-.01zm11.49-12.23h-9.3c-.31 0-.48.17-.48.44 0 .31.17.48.48.48h9.3c.26 0 .44-.17.44-.48 0-.26-.17-.44-.44-.44zm.43 3.67c0-.31-.22-.52-.52-.52h-9.17c-.31 0-.52.22-.52.52 0 .3.22.52.52.52h9.17c.31 0 .52-.22.52-.52zm-10.22 3.27c0 .31.22.52.52.52h9.17c.31 0 .52-.22.52-.52 0-.3-.22-.52-.52-.52h-9.17c-.31 0-.52.22-.52.52zm6.51 14.24h-2.93c-1.09 0-1.22.39-.22.87l1.44.66c.17.04.35.04.52 0l1.4-.66c1-.48.87-.87-.22-.87h.01zm-2.88-8.95v.74c0 .87.22.96 1.18.96h.44c.26 0 .35-.13.17-.35-.35-.48-.79-1.05-1.27-1.57-.31-.31-.52-.22-.52.22zm3.23 1.7h.79c.44 0 .66-.04.83-.31.31-.44.57-.66 1.09-.48l1.09.39c.39.09.48 0 .22-.31-.31-.31-.26-.61.13-.79l2.62-1.31c.13-.04.17-.17.17-.26s-.09-.17-.17-.17h-4.45c-.57 0-.7.26-.35.7.04.04.13.13.17.22.22.31.13.65-.22.83l-2.05 1.09c-.39.22-.39.39.13.39v.01zm47.48 8.65h-1.97c-1.88 0-1.96.48-.26 1.18 2.05.83 4.06 1.7 5.72 2.45 1.4.66 1.31 1.44-.09 1.96l-4.24 1.57c-.31.09-.7.04-1-.13-1.83-1.14-4.76-2.62-7.82-3.97-1.22-.52-1.27-1.31-.09-1.96 1.18-.66 1.05-1.09-.26-1.09h-6.77c-1.22 0-1.27.35-.13.83 1.09.52 1.18 1.31.17 1.88-3.19 1.83-7.34 3.45-10.83 4.5-.39.09-.83 0-1.09-.31l-2.23-2.27c-1.05-1.05-.83-1.79.61-2.14 2.01-.44 3.97-.96 5.76-1.57 1.44-.48 1.35-.92-.17-.92h-1.48c-.66 0-1.09-.44-1.09-1.09v-14.85c0-.66.44-1.09 1.09-1.09h11.14c1.22 0 1.62-.7.79-1.57-.39-.48-.87-.92-1.27-1.27-.44-.35-.44-.79-.04-1.09l.09-.04c.44-.31.26-.57-.26-.57-.66 0-1.18.44-1.18 1.09v1.62c0 .65-.44 1.09-1.09 1.09h-3.1c-.66 0-1.09-.44-1.09-1.09v-1.62c0-.66-.44-1.09-1.09-1.09h-1.05c-.52 0-.92.31-1.09.79-.61 1.7-1.48 3.41-2.88 4.89-.48.57-1.14.48-1.66-.09a15.99 15.99 0 00-1.97-1.88c-.65-.57-.7-1.27-.13-1.92 2.18-2.58 2.53-5.55 2.53-7.99v-2.18c0-.83.52-1.27 1.35-1.09l1.97.52h.57c2.62-.39 5.28-.92 7.25-1.49.35-.09.79 0 1.09.31l1.79 1.7c.79.79.61 1.53-.48 1.79-2.45.57-5.2 1-7.86 1.27-.26.04-.44.26-.48.48v.13c0 .22.17.44.48.44h9.21c.65 0 1.09.44 1.09 1.09v.39c0 .92.39 1.05.74.26.48-1.14.61-2.27.61-3.36v-2.49c0-.79.52-1.22 1.35-1.05l2.18.52h.48c2.93-.39 5.76-.87 7.86-1.49.35-.09.79 0 1.09.31l1.75 1.7c.83.79.66 1.53-.48 1.79-2.66.61-5.72 1.05-8.6 1.31-.31.04-.48.22-.48.48v.09c-.04.26.13.44.44.44h10.83c.66 0 1.09.44 1.09 1.09v2.14c0 .66-.44 1.09-1.09 1.09h-2.58c-.66 0-1.09.44-1.09 1.09v1.62c0 .65-.44 1.09-1.09 1.09h-3.14c-.65 0-1.09-.44-1.09-1.09v-1.62c0-.66-.44-1.09-1.09-1.09h-1.62c-.39 0-.83.26-1 .66-.35.66-.74 1.31-1.27 1.92-1.09 1.31-.92 1.97.87 1.97h8.87c.66 0 1.09.44 1.09 1.09v14.85c0 .66-.44 1.09-1.09 1.09v-.01zm-21.44-12.97c0 .39.22.61.61.61h15.24c.35 0 .57-.22.57-.61 0-.35-.22-.57-.57-.57h-15.24c-.39 0-.61.22-.61.57zm0 4.45c0 .35.22.57.57.57h15.28c.35 0 .57-.22.57-.57s-.22-.57-.57-.57h-15.28c-.35 0-.57.22-.57.57zm0 4.46c0 .39.22.61.61.61h15.24c.35 0 .57-.22.57-.61 0-.35-.22-.57-.57-.57h-15.24c-.39 0-.61.22-.61.57z" fill="#58393E"/><path d="M386.095 59.048v-9.2h-19.26c-6.11 0-9.46-3.27-9.46-7.57 0-2.15.86-4.56 2.67-6.97l22.27-30.01c2.49-3.35 4.9-5.25 8.94-5.25 4.04 0 7.05 2.49 7.05 7.31v32.16h8.51v10.32h-8.51v9.2h-12.21v.01zm-16.68-19.52h16.68v-22.96c-.09.09-.09.17-.17.34l-16.51 22.62z" fill="#D93636"/><path d="M421.725 27.538l.26.04 2.45.35c.57.13.96.57.92 1.13-.44 6.77-1.31 12.27-2.93 16.77-.13.44 0 .96.35 1.27 1.27 1.05 2.36 2.14 3.23 3.14.31.39.31.92.04 1.31l-2.27 3.01c-.52.7-1.22.7-1.79.04-.44-.57-.96-1.14-1.53-1.7-.57-.61-1.22-.52-1.7.13a22.315 22.315 0 01-5.59 5.46c-.57.39-1.18.22-1.57-.35-.52-.87-1.22-1.83-1.88-2.62-.61-.74-.52-1.4.26-1.92 1.83-1.27 3.36-2.88 4.67-4.89.26-.39.17-.79-.13-1.09l-.09-.09-.13-.04-.09-.09c-.22-.13-.39-.04-.48.22-.09.31-.31.44-.61.26l-3.62-1.92c-.48-.22-.7-.74-.57-1.22.79-2.93 1.57-6.46 2.31-10.22.17-.79-.26-1.31-1.05-1.31h-.48c-.66 0-1.09-.44-1.09-1.09v-3.36c0-.65.44-1.09 1.09-1.09h1.92c.57 0 .96-.35 1.09-.92.35-2.1.66-4.15.96-6.11.09-.61.57-1 1.18-.96l3.45.35c.66.09 1.05.61.96 1.27l-.92 5.07c-.17.79.26 1.31 1.05 1.31h1.44l.7-.13h.17l.02-.01zm-3.05 5.68h-1.18c-.31 0-.57.22-.61.52-.48 2.49-1 4.93-1.57 7.25-.04.26.09.52.31.7.35.22.66.44 1 .7.44.35.87.22 1.05-.31.79-2.49 1.31-5.2 1.66-8.12.04-.44-.22-.74-.65-.74h-.01zm28.99 3.84v3.49c0 .66-.44 1.09-1.09 1.09h-6.51c-.66 0-1.09.44-1.09 1.09v9.83c0 2.84-.57 4.41-2.31 5.37-1.66.79-3.67 1.05-6.2 1.05-.57 0-.96-.35-1.09-.87-.31-1-.7-2.23-1.14-3.32-.44-1.05-.04-1.66 1.09-1.62 1.18 0 2.23.04 2.66 0h.09c.61 0 .83-.17.83-.7v-9.74c0-.65-.44-1.09-1.09-1.09h-6.03c-.66 0-1.09-.44-1.09-1.09v-3.49c0-.66.44-1.09 1.09-1.09h6.03c.66 0 1.09-.44 1.09-1.09v-2.49c0-.52.35-.87.92-.87h.39c.31 0 .57-.13.74-.35l.09-.09c.52-.65 1.09-1.4 1.66-2.23.66-1 .26-1.66-.92-1.66h-8.6c-.66 0-1.09-.44-1.09-1.09v-3.36c0-.66.44-1.09 1.09-1.09h14.24l.22-.04.57-.13c.31-.09.7 0 .96.17l2.66 2.05c.48.35.61.96.26 1.48-1.96 2.84-4.41 6.16-6.81 8.73-.17.17-.31.48-.31.74v.44c0 .52.35.87.87.87h6.73c.66 0 1.09.44 1.09 1.09v.01zm3.07 1.22c0-.66.44-1.09 1.09-1.09h1.48c.65 0 1.09.44 1.09 1.09v3.89c0 3.67-.17 7.9-1.14 11.57-.31 1.05-1.05 1.22-1.92.57-.35-.31-.74-.61-1.09-.83h-.09c-.39-.35-.57-.83-.44-1.31.83-3.19 1-6.94 1-10.09v-3.8h.02zm-.48-3.84v-3.01c0-.66.44-1.09 1.09-1.09h12.8c.66 0 1.09.44 1.09 1.09v3.01c0 .66-.44 1.09-1.09 1.09h-2.62c-.65 0-1.09.44-1.09 1.09v21.27c0 .66-.44 1.09-1.09 1.09h-2.75c-.66 0-1.09-.44-1.09-1.09v-21.27c0-.66-.44-1.09-1.09-1.09h-3.06c-.65 0-1.09-.44-1.09-1.09h-.01zm14.23-11.22v2.93c0 .66-.44 1.09-1.09 1.09h-11.09c-.66 0-1.09-.44-1.09-1.09v-2.93c0-.66.44-1.09 1.09-1.09h11.09c.66 0 1.09.44 1.09 1.09zm-2.92 28.34v-13.32c0-.66.44-1.09 1.09-1.09h1.48c.66 0 1.09.44 1.09 1.09v13.32c0 .66-.44 1.09-1.09 1.09h-1.48c-.66 0-1.09-.44-1.09-1.09zm23.97 2.36h2.58c.65 0 1.09.44 1.09 1.09v2.18c0 .66-.44 1.09-1.09 1.09h-21.75c-.66 0-1.09-.44-1.09-1.09v-2.18c0-.66.44-1.09 1.09-1.09h3.14c.87 0 1.31-.57 1-1.31v-.09c-.17-.31-.31-.7-.48-1.05-.31-.61-.09-1.14.61-1.31.65-.17.61-.31-.04-.31h-1.7c-.65 0-1.09-.44-1.09-1.09v-6.03c0-.65.44-1.09 1.09-1.09h16.9c.66 0 1.09.44 1.09 1.09v6.03c0 .66-.44 1.09-1.09 1.09h-1.4c-.74 0-.74.13 0 .31.7.17.96.74.61 1.35v.09c-.17.22-.31.48-.44.7-.52.96-.13 1.62.96 1.62h.01zm3.06-16.6v2.23c0 .66-.44 1.09-1.09 1.09h-20.26c-.65 0-1.09-.44-1.09-1.09v-2.23c0-.66.44-1.09 1.09-1.09h20.26c.66 0 1.09.44 1.09 1.09zm-.52-14.1v10.83c0 .66-.44 1.09-1.09 1.09h-19.35c-.65 0-1.09-.44-1.09-1.09v-10.83c0-.66.44-1.09 1.09-1.09h3.19c.66 0 1.09-.44 1.09-1.09v-.35c0-.65.44-1.09 1.09-1.09h2.18c.66 0 1.09.44 1.09 1.09v.57c0 .52.35.87.87.87s.87-.35.87-.87v-.57c0-.65.44-1.09 1.09-1.09h2.18c.66 0 1.09.44 1.09 1.09v.35c0 .66.44 1.09 1.09 1.09h3.49c.66 0 1.09.44 1.09 1.09h.03zm-16.82 3.1c0 .39.26.66.65.66h.26c.39 0 .65-.26.65-.66s-.26-.66-.65-.66h-.26c-.39 0-.65.26-.65.66zm0 4.58c0 .39.26.65.65.65h.31c.35 0 .61-.26.61-.65 0-.35-.26-.61-.61-.61h-.31c-.39 0-.65.26-.65.61zm1.49 14.81v.09c0 .39.26.65.65.65h7.69c.39 0 .66-.26.66-.65v-.09c0-.39-.26-.66-.66-.66h-7.69c-.39 0-.65.26-.65.66zm6.55 4.15h-3.67c-.7 0-.92.39-.61 1 .39.83.74 1.7.96 2.45.04.22-.09.44-.31.48-.26.09-.26.13 0 .13h3.32c.22 0 .22-.04 0-.09-.22-.05-.31-.22-.22-.44.35-.83.79-1.79 1.09-2.71.22-.48-.04-.83-.57-.83l.01.01zm-2.4-22.89h.48c.39 0 .66-.26.66-.66s-.26-.66-.66-.66h-.48c-.39 0-.65.26-.65.66s.26.66.65.66zm.52 3.32h-.52c-.39 0-.65.26-.65.61 0 .39.26.65.65.65h.52c.35 0 .61-.26.61-.65 0-.35-.26-.61-.61-.61zm5.68-3.97c0-.39-.26-.66-.65-.66h-.35c-.39 0-.65.26-.65.66s.26.66.65.66h.35c.39 0 .65-.26.65-.66zm0 4.58c0-.35-.26-.61-.61-.61h-.39c-.39 0-.65.26-.65.61 0 .39.26.65.65.65h.39c.35 0 .61-.26.61-.65z" fill="#58393E"/><path d="M1.715 40.838h81.05" stroke="#58393E" stroke-width="3" stroke-linecap="round" stroke-linejoin="round"/><path d="M92.473 39.419l-6.031-6.032a2 2 0 00-2.829 0l-6.031 6.032a2 2 0 000 2.828l6.031 6.032a2 2 0 002.829 0l6.031-6.032a2 2 0 000-2.828z" fill="#58393E"/><path d="M596.284 40.838h-81.05" stroke="#58393E" stroke-width="3" stroke-linecap="round" stroke-linejoin="round"/><path d="M505.528 42.258l6.031 6.032a2 2 0 002.829 0l6.031-6.032a1.998 1.998 0 000-2.828l-6.031-6.032a2 2 0 00-2.829 0l-6.031 6.032a2 2 0 000 2.828zm-236.143-12.31h-23.57c-.15 0-.17-.13-.17-.13 0-.53.36-.87.88-.95 3.37-.79 16.1-3.28 19.26-4.55.88-.39 1.01-1.1.26-1.75l-2.01-2.76c-.35-.31-.83-.35-1.23-.18l-.15.07c-2.37 1.23-15.74 3.86-19.07 4.74h-.61s-.13 0-.18-.04l-1.49-.39c-.83-.22-1.4.18-1.4 1.05l.03 13.97c0 4.69-.39 10.74-4.6 15.17-.66.66-.61 1.36.13 1.93.92.75 1.97 1.71 2.76 2.54.48.48 1.1.57 1.62.09 3.07-3.11 4.69-7.28 5.52-11.35.13-.57.53-.92 1.1-.92h16.74c.66 0 1.1.44 1.1 1.1v.44c0 .66.44 1.1 1.1 1.1h3.99c.66 0 1.1-.44 1.1-1.1v-16.96c0-.66-.44-1.1-1.1-1.1l-.01-.02zm-5.08 10.25c0 .39-.26.66-.66.66h-16.88c-.44 0-.66-.26-.66-.7v-3.99c0-.39.26-.66.66-.66h16.88c.39 0 .66.26.66.66v4.03z" fill="#58393E"/></svg>