<svg width="1055" height="210" viewBox="0 0 1055 210" fill="none" xmlns="http://www.w3.org/2000/svg"><path d="M243.02 165.38h-90.76c-11.9 0-21.58-6.74-21.58-15.02s9.68-15.02 21.58-15.02h134.03a1.43 1.43 0 110 2.86H152.26c-10.15 0-18.73 5.57-18.73 12.16s8.58 12.16 18.73 12.16h90.76v2.86z" fill="#58393E"/><path d="M174.342 165.38c-11.9 0-21.58-6.74-21.58-15.02s9.68-15.02 21.58-15.02v2.86c-10.15 0-18.73 5.57-18.73 12.16s8.58 12.16 18.73 12.16v2.86zm65.848 27.18H82.43a1.43 1.43 0 110-2.86h157.76c10.15 0 18.73-5.57 18.73-12.16s-8.58-12.16-18.73-12.16v-2.86c11.9 0 21.58 6.74 21.58 15.02s-9.68 15.02-21.58 15.02zm571.401-27.18h90.76c11.9 0 21.58-6.74 21.58-15.02s-9.68-15.02-21.58-15.02h-134.03a1.43 1.43 0 100 2.86h134.03c10.15 0 18.73 5.57 18.73 12.16s-8.58 12.16-18.73 12.16h-90.76v2.86z" fill="#58393E"/><path d="M880.27 165.38c11.9 0 21.579-6.74 21.579-15.02s-9.679-15.02-21.579-15.02v2.86c10.15 0 18.73 5.57 18.73 12.16s-8.58 12.16-18.73 12.16v2.86zm-65.838 27.18h157.76a1.43 1.43 0 100-2.86h-157.76c-10.15 0-18.73-5.57-18.73-12.16s8.58-12.16 18.73-12.16v-2.86c-11.9 0-21.58 6.74-21.58 15.02s9.68 15.02 21.58 15.02z" fill="#58393E"/><path d="M363.6 146.65c7.02 7.02 7.02 18.4 0 25.42l-31.11 31.11c-7.02 7.02-18.4 7.02-25.42 0l-31.11-31.11c-7.02-7.02-7.02-18.4 0-25.42l31.11-31.11c7.02-7.02 18.4-7.02 25.42 0l31.11 31.11z" fill="#CF2027"/><path d="M319.768 209.74c-5.14 0-9.98-2-13.62-5.64l-31.11-31.11a19.12 19.12 0 01-5.64-13.62c0-5.15 2.01-9.98 5.64-13.62l31.11-31.11c3.64-3.64 8.48-5.64 13.62-5.64 5.14 0 9.98 2 13.62 5.64l31.11 31.11c7.51 7.51 7.51 19.73 0 27.24l-31.11 31.11a19.12 19.12 0 01-13.62 5.64zm0-98.18c-4.46 0-8.65 1.73-11.81 4.89l-31.11 31.11a16.604 16.604 0 00-4.89 11.81c0 4.46 1.73 8.65 4.89 11.8l31.11 31.11c3.15 3.15 7.35 4.89 11.8 4.89 4.45 0 8.65-1.74 11.8-4.89l31.11-31.11c6.51-6.51 6.51-17.1 0-23.61l-31.11-31.11a16.58 16.58 0 00-11.8-4.89h.01z" fill="#58393E"/><path d="M357.351 148.46c6.02 6.02 6.02 15.78 0 21.8l-26.68 26.68c-6.02 6.02-15.78 6.02-21.8 0l-26.68-26.68c-6.02-6.02-6.02-15.78 0-21.8l26.68-26.68c6.02-6.02 15.78-6.02 21.8 0l26.68 26.68z" fill="#F25252"/><path d="M319.77 202.1c-4.29 0-8.32-1.67-11.36-4.7l-26.68-26.68a15.977 15.977 0 01-4.71-11.36c0-4.29 1.67-8.32 4.71-11.36l26.68-26.68c3.03-3.03 7.07-4.7 11.36-4.7 4.29 0 8.32 1.67 11.36 4.7L357.81 148c6.26 6.26 6.26 16.45 0 22.71l-26.68 26.68c-3.03 3.03-7.06 4.7-11.35 4.7l-.01.01zm0-84.2a14.7 14.7 0 00-10.45 4.33l-26.68 26.68c-2.79 2.79-4.33 6.5-4.33 10.45 0 3.95 1.54 7.66 4.33 10.45l26.68 26.68c2.79 2.79 6.5 4.33 10.45 4.33 3.95 0 7.66-1.54 10.45-4.33l26.68-26.68c5.76-5.76 5.76-15.13 0-20.89l-26.68-26.68c-2.79-2.79-6.5-4.33-10.45-4.33v-.01z" fill="#FBD5A2"/><path d="M312.97 167.42v4.08c0 .58.34 1.02.87 1.16 2.23.49 4.76.58 7.76.58 3.64.05 12.57.05 18.15-.1 1.46-.05 1.89.73 1.31 2.04a25.11 25.11 0 00-1.21 3.54c-.15.58-.63.97-1.21.97h-17.08c-6.79 0-11.74-.68-15.38-3.74-1.17-1.02-1.99-.83-2.38.68-.19.97-.49 1.84-.78 2.72-.29.83-1.02 1.02-1.8.58-.87-.49-1.99-1.07-2.91-1.5-.68-.34-.92-.97-.68-1.7 1.65-4.37 1.99-10.72 2.04-17.32 0-.78.53-1.26 1.26-1.21l3.4.19c.73 0 1.16.49 1.16 1.21-.05 1.6-.1 3.2-.19 4.71v.19l.1.34c.19.63.44 1.21.68 1.7.53 1.12 1.02.97 1.02-.24v-8.78c0-.73-.49-1.21-1.21-1.21h-6.11c-.73 0-1.21-.49-1.21-1.21v-3.45c0-.73.48-1.21 1.21-1.21h5.09c.73 0 1.21-.49 1.21-1.21v-.97c0-.73-.49-1.21-1.21-1.21h-3.98c-.73 0-1.21-.49-1.21-1.21v-3.35c0-.73.49-1.21 1.21-1.21h3.98c.73 0 1.21-.49 1.21-1.21v-1.75c0-.73.48-1.21 1.21-1.21h3.69c.73 0 1.21.49 1.21 1.21v1.75c0 .73.49 1.21 1.21 1.21h3.79c.73 0 1.21.48 1.21 1.21v3.35c0 .73-.49 1.21-1.21 1.21h-3.79c-.73 0-1.21.49-1.21 1.21v.97c0 .73.49 1.21 1.21 1.21h5.43c.15 0 .29.15.29.29 0 .19.1.29.19.19l.1-.1c1.84-1.36 3.11-3.06 3.88-5.19.34-.87-.15-1.5-1.07-1.5h-1.31c-.73 0-1.21-.49-1.21-1.21v-3.11c0-.73.49-1.21 1.21-1.21h18.2c.68 0 1.12.44 1.12 1.12 0 .34-.05.78-.05 1.07-.29 7.42-.68 10.82-1.8 12.18-.97 1.17-2.09 1.6-3.4 1.8-.97.15-2.38.24-4.03.19-.68 0-1.12-.44-1.26-1.12-.1-.78-.29-1.6-.58-2.43-.39-1.26-1.26-1.21-1.99-.1-.97 1.5-2.18 2.77-3.54 3.83-.49.34-1.12.29-1.55-.1-.44-.34-.97-.78-1.5-1.17-.82-.63-1.41-.34-1.41.68v.53c0 .73-.49 1.21-1.21 1.21h-3.74c-.73 0-1.21.49-1.21 1.21v1.7c0 .73.49 1.21 1.21 1.21h3.06c.73 0 1.21.49 1.21 1.21v3.35c0 .73-.48 1.21-1.21 1.21h-3.06c-.73 0-1.21.49-1.21 1.21l.01.03zm7.76 2.43v-12.32c0-.73.49-1.21 1.21-1.21h15.96c.73 0 1.21.49 1.21 1.21v12.32c0 .73-.49 1.21-1.21 1.21h-15.96c-.73 0-1.21-.49-1.21-1.21zm6.22-7.52v2.72c0 .44.29.73.73.73h4.08c.44 0 .73-.29.73-.73v-2.72c0-.44-.29-.73-.73-.73h-4.08c-.44 0-.73.29-.73.73zm5.96-18.2h-2.28c-.34 0-.63.24-.73.58a21 21 0 01-1.21 3.69c-.24.58 0 1.02.63 1.07.92.05 1.75.05 2.23.05.53 0 .92-.1 1.26-.39.05 0 .1-.1.15-.15.29-.53.49-1.65.68-4.08.05-.49-.24-.78-.73-.78v.01z" fill="#fff"/><path d="M446.589 146.65c7.02 7.02 7.02 18.4 0 25.42l-31.11 31.11c-7.02 7.02-18.4 7.02-25.42 0l-31.11-31.11c-7.02-7.02-7.02-18.4 0-25.42l31.11-31.11c7.02-7.02 18.4-7.02 25.42 0l31.11 31.11z" fill="#CF2027"/><path d="M402.768 209.74c-5.14 0-9.98-2-13.62-5.64l-31.11-31.11a19.12 19.12 0 01-5.64-13.62c0-5.15 2.01-9.98 5.64-13.62l31.11-31.11c3.64-3.64 8.48-5.64 13.62-5.64 5.14 0 9.98 2 13.62 5.64l31.11 31.11c7.51 7.51 7.51 19.73 0 27.24l-31.11 31.11a19.12 19.12 0 01-13.62 5.64zm0-98.18c-4.46 0-8.65 1.73-11.81 4.89l-31.11 31.11a16.604 16.604 0 00-4.89 11.81c0 4.46 1.73 8.65 4.89 11.8l31.11 31.11c3.15 3.15 7.35 4.89 11.8 4.89 4.45 0 8.65-1.74 11.8-4.89l31.11-31.11c6.51-6.51 6.51-17.1 0-23.61l-31.11-31.11a16.58 16.58 0 00-11.8-4.89h.01z" fill="#58393E"/><path d="M440.351 148.46c6.02 6.02 6.02 15.78 0 21.8l-26.68 26.68c-6.02 6.02-15.78 6.02-21.8 0l-26.68-26.68c-6.02-6.02-6.02-15.78 0-21.8l26.68-26.68c6.02-6.02 15.78-6.02 21.8 0l26.68 26.68z" fill="#F25252"/><path d="M402.77 202.1c-4.29 0-8.32-1.67-11.36-4.7l-26.68-26.68a15.977 15.977 0 01-4.71-11.36c0-4.29 1.67-8.32 4.71-11.36l26.68-26.68c3.03-3.03 7.07-4.7 11.36-4.7 4.29 0 8.32 1.67 11.36 4.7L440.81 148c6.26 6.26 6.26 16.45 0 22.71l-26.68 26.68c-3.03 3.03-7.06 4.7-11.35 4.7l-.01.01zm0-84.2a14.7 14.7 0 00-10.45 4.33l-26.68 26.68c-2.79 2.79-4.33 6.5-4.33 10.45 0 3.95 1.54 7.66 4.33 10.45l26.68 26.68c2.79 2.79 6.5 4.33 10.45 4.33 3.95 0 7.66-1.54 10.45-4.33l26.68-26.68c5.76-5.76 5.76-15.13 0-20.89l-26.68-26.68c-2.79-2.79-6.5-4.33-10.45-4.33v-.01z" fill="#FBD5A2"/><path d="M529.589 146.65c7.02 7.02 7.02 18.4 0 25.42l-31.11 31.11c-7.02 7.02-18.4 7.02-25.42 0l-31.11-31.11c-7.02-7.02-7.02-18.4 0-25.42l31.11-31.11c7.02-7.02 18.4-7.02 25.42 0l31.11 31.11z" fill="#CF2027"/><path d="M485.757 209.74c-5.14 0-9.98-2-13.62-5.64l-31.11-31.11a19.12 19.12 0 01-5.64-13.62c0-5.15 2.01-9.98 5.64-13.62l31.11-31.11c3.64-3.64 8.48-5.64 13.62-5.64 5.14 0 9.98 2 13.62 5.64l31.11 31.11c7.51 7.51 7.51 19.73 0 27.24l-31.11 31.11a19.12 19.12 0 01-13.62 5.64zm0-98.18c-4.46 0-8.65 1.73-11.81 4.89l-31.11 31.11a16.604 16.604 0 00-4.89 11.81c0 4.46 1.73 8.65 4.89 11.8l31.11 31.11c3.15 3.15 7.35 4.89 11.8 4.89 4.45 0 8.65-1.74 11.8-4.89l31.11-31.11c6.51-6.51 6.51-17.1 0-23.61l-31.11-31.11a16.58 16.58 0 00-11.8-4.89h.01z" fill="#58393E"/><path d="M523.339 148.46c6.02 6.02 6.02 15.78 0 21.8l-26.68 26.68c-6.02 6.02-15.78 6.02-21.8 0l-26.68-26.68c-6.02-6.02-6.02-15.78 0-21.8l26.68-26.68c6.02-6.02 15.78-6.02 21.8 0l26.68 26.68z" fill="#F25252"/><path d="M485.758 202.1c-4.29 0-8.32-1.67-11.36-4.7l-26.68-26.68a15.977 15.977 0 01-4.71-11.36c0-4.29 1.67-8.32 4.71-11.36l26.68-26.68c3.03-3.03 7.07-4.7 11.36-4.7 4.29 0 8.32 1.67 11.36 4.7l26.68 26.68c6.26 6.26 6.26 16.45 0 22.71l-26.68 26.68c-3.03 3.03-7.06 4.7-11.35 4.7l-.01.01zm0-84.2a14.7 14.7 0 00-10.45 4.33l-26.68 26.68c-2.79 2.79-4.33 6.5-4.33 10.45 0 3.95 1.54 7.66 4.33 10.45l26.68 26.68c2.79 2.79 6.5 4.33 10.45 4.33 3.95 0 7.66-1.54 10.45-4.33l26.68-26.68c5.76-5.76 5.76-15.13 0-20.89l-26.68-26.68c-2.79-2.79-6.5-4.33-10.45-4.33v-.01z" fill="#FBD5A2"/><path d="M478.806 145.88l.29.05 2.72.39c.63.15 1.07.63 1.02 1.26-.49 7.52-1.46 13.63-3.25 18.63-.15.49 0 1.07.39 1.41 1.41 1.16 2.62 2.38 3.59 3.49.34.44.34 1.02.05 1.46l-2.52 3.35c-.58.78-1.36.78-1.99.05-.49-.63-1.07-1.26-1.7-1.89-.63-.68-1.36-.58-1.89.15-1.7 2.38-3.78 4.42-6.21 6.07-.63.44-1.31.24-1.75-.39-.58-.97-1.36-2.04-2.09-2.91-.68-.83-.58-1.55.29-2.14 2.04-1.41 3.74-3.2 5.19-5.43.29-.44.19-.87-.15-1.21l-.1-.1-.15-.05-.1-.1c-.24-.15-.44-.05-.53.24-.1.34-.34.49-.68.29l-4.03-2.13c-.53-.24-.78-.83-.63-1.36.87-3.25 1.75-7.18 2.57-11.35.19-.87-.29-1.46-1.16-1.46h-.53c-.73 0-1.21-.49-1.21-1.21v-3.74c0-.73.49-1.21 1.21-1.21h2.13c.63 0 1.07-.39 1.21-1.02.39-2.33.73-4.61 1.07-6.79.1-.68.63-1.12 1.31-1.07l3.83.39c.73.1 1.16.68 1.07 1.41l-1.02 5.63c-.19.87.29 1.46 1.16 1.46h1.6l.78-.15h.19l.02-.02zm-3.39 6.3h-1.31a.68.68 0 00-.68.58c-.53 2.77-1.12 5.48-1.75 8.06-.05.29.1.58.34.78.39.24.73.48 1.12.78.49.39.97.24 1.16-.34.87-2.77 1.46-5.77 1.84-9.03.05-.49-.24-.83-.73-.83h.01zm32.22 4.27v3.88c0 .73-.49 1.21-1.21 1.21h-7.23c-.73 0-1.21.49-1.21 1.21v10.92c0 3.15-.63 4.9-2.57 5.97-1.84.87-4.08 1.17-6.89 1.17-.63 0-1.07-.39-1.21-.97-.34-1.12-.78-2.47-1.26-3.69-.49-1.17-.05-1.84 1.21-1.8 1.31 0 2.47.05 2.96 0h.1c.68 0 .92-.19.92-.78v-10.82c0-.73-.49-1.21-1.21-1.21h-6.7c-.73 0-1.21-.49-1.21-1.21v-3.88c0-.73.49-1.21 1.21-1.21h6.7c.73 0 1.21-.49 1.21-1.21v-2.77c0-.58.39-.97 1.02-.97h.44c.34 0 .63-.15.82-.39l.1-.1c.58-.73 1.21-1.55 1.84-2.47.73-1.12.29-1.84-1.02-1.84h-9.56c-.73 0-1.21-.49-1.21-1.21v-3.74c0-.73.49-1.21 1.21-1.21h15.82l.24-.05.63-.15c.34-.1.78 0 1.07.19l2.96 2.28c.53.39.68 1.07.29 1.65-2.18 3.15-4.9 6.84-7.57 9.7-.19.19-.34.53-.34.83v.49c0 .58.39.97.97.97h7.47c.73 0 1.21.48 1.21 1.21z" fill="#fff"/><path d="M612.577 146.65c7.02 7.02 7.02 18.4 0 25.42l-31.11 31.11c-7.02 7.02-18.4 7.02-25.42 0l-31.11-31.11c-7.02-7.02-7.02-18.4 0-25.42l31.11-31.11c7.02-7.02 18.4-7.02 25.42 0l31.11 31.11z" fill="#CF2027"/><path d="M568.757 209.74c-5.14 0-9.98-2-13.62-5.64l-31.11-31.11a19.12 19.12 0 01-5.64-13.62c0-5.15 2.01-9.98 5.64-13.62l31.11-31.11c3.64-3.64 8.48-5.64 13.62-5.64 5.14 0 9.98 2 13.62 5.64l31.11 31.11c7.51 7.51 7.51 19.73 0 27.24l-31.11 31.11a19.12 19.12 0 01-13.62 5.64zm0-98.18c-4.46 0-8.65 1.73-11.81 4.89l-31.11 31.11a16.604 16.604 0 00-4.89 11.81c0 4.46 1.73 8.65 4.89 11.8l31.11 31.11c3.15 3.15 7.35 4.89 11.8 4.89 4.45 0 8.65-1.74 11.8-4.89l31.11-31.11c6.51-6.51 6.51-17.1 0-23.61l-31.11-31.11a16.58 16.58 0 00-11.8-4.89h.01z" fill="#58393E"/><path d="M606.339 148.46c6.02 6.02 6.02 15.78 0 21.8l-26.68 26.68c-6.02 6.02-15.78 6.02-21.8 0l-26.68-26.68c-6.02-6.02-6.02-15.78 0-21.8l26.68-26.68c6.02-6.02 15.78-6.02 21.8 0l26.68 26.68z" fill="#F25252"/><path d="M568.758 202.1c-4.29 0-8.32-1.67-11.36-4.7l-26.68-26.68a15.977 15.977 0 01-4.71-11.36c0-4.29 1.67-8.32 4.71-11.36l26.68-26.68c3.03-3.03 7.07-4.7 11.36-4.7 4.29 0 8.32 1.67 11.36 4.7l26.68 26.68c6.26 6.26 6.26 16.45 0 22.71l-26.68 26.68c-3.03 3.03-7.06 4.7-11.35 4.7l-.01.01zm-.01-84.2a14.7 14.7 0 00-10.45 4.33l-26.68 26.68c-2.79 2.79-4.33 6.5-4.33 10.45 0 3.95 1.54 7.66 4.33 10.45l26.68 26.68c2.79 2.79 6.5 4.33 10.45 4.33 3.95 0 7.66-1.54 10.45-4.33l26.68-26.68c5.76-5.76 5.76-15.13 0-20.89l-26.68-26.68c-2.79-2.79-6.5-4.33-10.45-4.33v-.01z" fill="#FBD5A2"/><path d="M547.927 157.81c0-.73.48-1.21 1.21-1.21h1.65c.73 0 1.21.49 1.21 1.21v4.32c0 4.08-.19 8.78-1.26 12.86-.34 1.17-1.16 1.36-2.13.63-.39-.34-.83-.68-1.21-.92h-.1c-.44-.39-.63-.92-.49-1.46.92-3.54 1.12-7.72 1.12-11.21v-4.22zm-.53-4.27v-3.35c0-.73.48-1.21 1.21-1.21h14.22c.73 0 1.21.49 1.21 1.21v3.35c0 .73-.49 1.21-1.21 1.21h-2.91c-.73 0-1.21.49-1.21 1.21v23.63c0 .73-.49 1.21-1.21 1.21h-3.06c-.73 0-1.21-.49-1.21-1.21v-23.63c0-.73-.48-1.21-1.21-1.21h-3.4c-.73 0-1.21-.49-1.21-1.21h-.01zm15.82-12.47v3.25c0 .73-.49 1.21-1.21 1.21h-12.32c-.73 0-1.21-.49-1.21-1.21v-3.25c0-.73.49-1.21 1.21-1.21h12.32c.73 0 1.21.48 1.21 1.21zm-3.25 31.49v-14.8c0-.73.48-1.21 1.21-1.21h1.65c.73 0 1.21.49 1.21 1.21v14.8c0 .73-.49 1.21-1.21 1.21h-1.65c-.73 0-1.21-.49-1.21-1.21zm26.63 2.62h2.86c.73 0 1.21.49 1.21 1.21v2.43c0 .73-.49 1.21-1.21 1.21h-24.16c-.73 0-1.21-.49-1.21-1.21v-2.43c0-.73.49-1.21 1.21-1.21h3.49c.97 0 1.46-.63 1.12-1.46v-.1c-.19-.34-.34-.78-.53-1.16-.34-.68-.1-1.26.68-1.46.73-.19.68-.34-.05-.34h-1.89c-.73 0-1.21-.49-1.21-1.21v-6.7c0-.73.49-1.21 1.21-1.21h18.78c.73 0 1.21.49 1.21 1.21v6.7c0 .73-.49 1.21-1.21 1.21h-1.55c-.83 0-.83.15 0 .34.78.19 1.07.83.68 1.5v.1c-.19.24-.34.53-.49.78-.58 1.07-.15 1.79 1.07 1.79l-.01.01zm3.4-18.43v2.47c0 .73-.49 1.21-1.21 1.21h-22.51c-.73 0-1.21-.49-1.21-1.21v-2.47c0-.73.49-1.21 1.21-1.21h22.51c.73 0 1.21.49 1.21 1.21zm-.58-15.68v12.03c0 .73-.49 1.21-1.21 1.21h-21.5c-.73 0-1.21-.48-1.21-1.21v-12.03c0-.73.49-1.21 1.21-1.21h3.54c.73 0 1.21-.49 1.21-1.21v-.39c0-.73.48-1.21 1.21-1.21h2.43c.73 0 1.21.49 1.21 1.21v.63c0 .58.39.97.97.97s.97-.39.97-.97v-.63c0-.73.49-1.21 1.21-1.21h2.43c.73 0 1.21.49 1.21 1.21v.39c0 .73.48 1.21 1.21 1.21h3.88c.73 0 1.21.48 1.21 1.21h.02zm-18.68 3.45c0 .44.29.73.73.73h.29c.44 0 .73-.29.73-.73s-.29-.73-.73-.73h-.29c-.44 0-.73.29-.73.73zm0 5.09c0 .44.29.73.73.73h.34c.39 0 .68-.29.68-.73 0-.39-.29-.68-.68-.68h-.34c-.44 0-.73.29-.73.68zm1.65 16.45v.1c0 .44.29.73.73.73h8.54c.44 0 .73-.29.73-.73v-.1c0-.44-.29-.73-.73-.73h-8.54c-.44 0-.73.29-.73.73zm7.28 4.61h-4.08c-.78 0-1.02.44-.68 1.12.44.92.82 1.89 1.07 2.72.05.24-.1.49-.34.53-.29.1-.29.15 0 .15h3.69c.24 0 .24-.05 0-.1s-.34-.24-.24-.49c.39-.92.87-1.99 1.21-3.01.24-.53-.05-.92-.63-.92zm-2.67-25.42h.53c.44 0 .73-.29.73-.73s-.29-.73-.73-.73h-.53c-.44 0-.73.29-.73.73s.29.73.73.73zm.58 3.68h-.58c-.44 0-.73.29-.73.68 0 .44.29.73.73.73h.58c.39 0 .68-.29.68-.73 0-.39-.29-.68-.68-.68zm6.31-4.41c0-.44-.29-.73-.73-.73h-.39c-.44 0-.73.29-.73.73s.29.73.73.73h.39c.44 0 .73-.29.73-.73zm0 5.09c0-.39-.29-.68-.68-.68h-.44c-.44 0-.73.29-.73.68 0 .44.29.73.73.73h.44c.39 0 .68-.29.68-.73z" fill="#fff"/><path d="M695.569 146.65c7.02 7.02 7.02 18.4 0 25.42l-31.11 31.11c-7.02 7.02-18.4 7.02-25.42 0l-31.11-31.11c-7.02-7.02-7.02-18.4 0-25.42l31.11-31.11c7.02-7.02 18.4-7.02 25.42 0l31.11 31.11z" fill="#CF2027"/><path d="M651.749 209.74c-5.14 0-9.98-2-13.62-5.64l-31.11-31.11a19.12 19.12 0 01-5.64-13.62c0-5.15 2.01-9.98 5.64-13.62l31.11-31.11c3.64-3.64 8.48-5.64 13.62-5.64 5.14 0 9.98 2 13.62 5.64l31.11 31.11c7.51 7.51 7.51 19.73 0 27.24l-31.11 31.11a19.12 19.12 0 01-13.62 5.64zm0-98.18c-4.46 0-8.65 1.73-11.81 4.89l-31.11 31.11a16.604 16.604 0 00-4.89 11.81c0 4.46 1.73 8.65 4.89 11.8l31.11 31.11c3.15 3.15 7.35 4.89 11.8 4.89 4.45 0 8.65-1.74 11.8-4.89l31.11-31.11c6.51-6.51 6.51-17.1 0-23.61l-31.11-31.11a16.58 16.58 0 00-11.8-4.89h.01z" fill="#58393E"/><path d="M689.331 148.46c6.02 6.02 6.02 15.78 0 21.8l-26.68 26.68c-6.02 6.02-15.78 6.02-21.8 0l-26.68-26.68c-6.02-6.02-6.02-15.78 0-21.8l26.68-26.68c6.02-6.02 15.78-6.02 21.8 0l26.68 26.68z" fill="#F25252"/><path d="M651.75 202.1c-4.29 0-8.32-1.67-11.36-4.7l-26.68-26.68a15.977 15.977 0 01-4.71-11.36c0-4.29 1.67-8.32 4.71-11.36l26.68-26.68c3.03-3.03 7.07-4.7 11.36-4.7 4.29 0 8.32 1.67 11.36 4.7L689.79 148c6.26 6.26 6.26 16.45 0 22.71l-26.68 26.68c-3.03 3.03-7.06 4.7-11.35 4.7l-.01.01zm0-84.2a14.7 14.7 0 00-10.45 4.33l-26.68 26.68c-2.79 2.79-4.33 6.5-4.33 10.45 0 3.95 1.54 7.66 4.33 10.45l26.68 26.68c2.79 2.79 6.5 4.33 10.45 4.33 3.95 0 7.66-1.54 10.45-4.33l26.68-26.68c5.76-5.76 5.76-15.13 0-20.89l-26.68-26.68c-2.79-2.79-6.5-4.33-10.45-4.33v-.01z" fill="#FBD5A2"/><path d="M672.948 167.32v2.81c0 .73-.48 1.21-1.21 1.21h-7.52c-.73 0-1.21.49-1.21 1.21v2.04c0 2.91-.58 4.46-2.67 5.34-1.89.73-4.27.87-7.18.87-.63 0-1.12-.44-1.26-1.02-.19-.97-.53-1.99-.87-2.91-.44-1.12 0-1.84 1.21-1.79h3.3c.73-.05.97-.15.97-.73v-1.79c0-.73-.48-1.21-1.21-1.21h-6.99c-1.46 0-1.65.58-.58 1.6l.97.92c.49.48.44 1.16-.15 1.65l-2.96 2.57c-.63.49-1.31.39-1.84-.19-1.31-1.46-3.2-3.15-5-4.56-.49-.39-.49-.92 0-1.31s.39-.68-.24-.68h-6.7c-.73 0-1.21-.49-1.21-1.21v-2.81c0-.73.49-1.21 1.21-1.21h24.12c.34 0 .58-.24.58-.63 0-.34-.24-.58-.58-.58-8.15.24-15.87.39-21.93.44-.68 0-1.16-.49-1.21-1.17l-.1-2.28c-.05-.73.49-1.26 1.21-1.26 3.88.05 8.69.05 13.88.05.39 0 .63-.24.63-.63 0-.34-.24-.58-.58-.58h-11.06c-.73 0-1.21-.49-1.21-1.21v-11.31c0-.73.49-1.21 1.21-1.21h11.11c.29 0 .53-.24.53-.58 0-.29-.24-.53-.53-.53h-14.8c-.73 0-1.21-.49-1.21-1.21v-2.52c0-.73.48-1.21 1.21-1.21h14.12c.73 0 1.21-.58 1.21-1.31 0-.73.48-1.31 1.21-1.31h4.17c.73 0 1.21.58 1.21 1.31 0 .73.48 1.31 1.21 1.31h14.07c.73 0 1.21.49 1.21 1.21v2.52c0 .73-.49 1.21-1.21 1.21h-14.7c-.34 0-.58.24-.58.53 0 .34.24.58.58.58h11.79c.73 0 1.21.49 1.21 1.21v11.4c0 .68-.44 1.12-1.07 1.12-.68 0-.73.24-.19.58 1.02.63 1.94 1.26 2.77 1.84.78.53.78 1.31.05 1.89l-2.04 1.7c-.49.39-1.12.34-1.6-.05l-.63-.49c-.19-.15-.49-.24-.78-.24l-1.41.05h-.1c-.34.05-.58.29-.58.68 0 .44.24.68.68.68h8.05c.73 0 1.21.48 1.21 1.21l.01-.01zm-31.15-17.13c0 .34.24.58.58.58h5.48c.29 0 .53-.24.53-.58 0-.29-.24-.53-.53-.53h-5.48c-.34 0-.58.24-.58.53zm.58 5.39h5.43c.34 0 .58-.24.58-.58 0-.34-.24-.58-.58-.58h-5.43c-.34 0-.58.24-.58.58 0 .34.24.58.58.58zm19.07-5.92h-5.87c-.34 0-.58.24-.58.53 0 .34.24.58.58.58h5.87c.29 0 .53-.24.53-.58 0-.29-.24-.53-.53-.53zm.53 5.34c0-.34-.24-.58-.58-.58h-5.82c-.34 0-.58.24-.58.58 0 .34.24.58.58.58h5.82c.34 0 .58-.24.58-.58zm-3.59 4.46h-2.77c-.39 0-.63.24-.63.58 0 .39.24.63.63.63h3.01c.39 0 .39-.15.05-.29l-.1-.05c-.29-.15-.34-.39-.05-.58.24-.15.19-.29-.15-.29h.01z" fill="#fff"/><path d="M778.749 146.65c7.02 7.02 7.02 18.4 0 25.42l-31.11 31.11c-7.02 7.02-18.4 7.02-25.42 0l-31.11-31.11c-7.02-7.02-7.02-18.4 0-25.42l31.11-31.11c7.02-7.02 18.4-7.02 25.42 0l31.11 31.11z" fill="#CF2027"/><path d="M734.917 209.74c-5.14 0-9.98-2-13.62-5.64l-31.11-31.11a19.12 19.12 0 01-5.64-13.62c0-5.15 2.01-9.98 5.64-13.62l31.11-31.11c3.64-3.64 8.48-5.64 13.62-5.64 5.14 0 9.98 2 13.62 5.64l31.11 31.11c7.51 7.51 7.51 19.73 0 27.24l-31.11 31.11a19.12 19.12 0 01-13.62 5.64zm0-98.18c-4.46 0-8.65 1.73-11.81 4.89l-31.11 31.11a16.604 16.604 0 00-4.89 11.81c0 4.46 1.73 8.65 4.89 11.8l31.11 31.11c3.15 3.15 7.35 4.89 11.8 4.89 4.45 0 8.65-1.74 11.8-4.89l31.11-31.11c6.51-6.51 6.51-17.1 0-23.61l-31.11-31.11a16.58 16.58 0 00-11.8-4.89h.01z" fill="#58393E"/><path d="M772.507 148.46c6.02 6.02 6.02 15.78 0 21.8l-26.68 26.68c-6.02 6.02-15.78 6.02-21.8 0l-26.68-26.68c-6.02-6.02-6.02-15.78 0-21.8l26.68-26.68c6.02-6.02 15.78-6.02 21.8 0l26.68 26.68z" fill="#F25252"/><path d="M734.918 202.1c-4.29 0-8.32-1.67-11.36-4.7l-26.68-26.68a15.977 15.977 0 01-4.71-11.36c0-4.29 1.67-8.32 4.71-11.36l26.68-26.68c3.03-3.03 7.07-4.7 11.36-4.7 4.29 0 8.32 1.67 11.36 4.7l26.68 26.68c6.26 6.26 6.26 16.45 0 22.71l-26.68 26.68c-3.03 3.03-7.06 4.7-11.35 4.7l-.01.01zm0-84.2a14.7 14.7 0 00-10.45 4.33l-26.68 26.68c-2.79 2.79-4.33 6.5-4.33 10.45 0 3.95 1.54 7.66 4.33 10.45l26.68 26.68c2.79 2.79 6.5 4.33 10.45 4.33 3.95 0 7.66-1.54 10.45-4.33l26.68-26.68c5.76-5.76 5.76-15.13 0-20.89l-26.68-26.68c-2.79-2.79-6.5-4.33-10.45-4.33v-.01z" fill="#FBD5A2"/><path d="M754.955 170.96h-5.77c-3.35 0-3.54.97-.39 1.89 1.99.58 4.08 1.07 6.16 1.46 1.55.29 1.8 1.07.87 2.28-.78.97-1.55 2.04-2.09 3.01-.29.44-.82.68-1.36.58-4.32-1.12-8.64-2.86-12.23-5.14-1.21-.78-1.99-.39-1.99 1.02v3.49c0 .73-.49 1.21-1.21 1.21h-4.32c-.73 0-1.21-.49-1.21-1.21v-3.2c0-1.46-.78-1.8-1.94-1.07-3.54 2.18-7.71 3.88-11.98 4.95-.53.15-1.07-.1-1.36-.53-.53-.87-1.21-1.89-1.94-2.81-.97-1.16-.68-1.99.83-2.28a57.23 57.23 0 006.74-1.7c2.86-.97 2.67-1.94-.44-1.94h-6.31c-.73 0-1.21-.49-1.21-1.21v-3.01c0-.73.49-1.21 1.21-1.21h15.33c.63 0 1.07-.44 1.07-1.12 0-.63-.44-.97-1.07-.87-3.15.53-6.84.97-11.21 1.26-.68.05-1.16-.34-1.36-.97-.24-.73-.58-1.5-.92-2.23-.53-1.12-.19-1.84 1.07-1.89 3.98-.24 7.23-.53 9.9-.92.68-.1.68-.29 0-.44l-.68-.19h-.19c-.15 0-.29.05-.39.15-.05 0-.05.05-.1.1-.15.1-.34.15-.53.1l-4.12-1.07c-1.12-.29-1.36-1.07-.63-1.99l.34-.39c.97-1.12.63-1.89-.87-1.89h-4.71c-.73 0-1.21-.49-1.21-1.21v-2.72c0-.73.49-1.21 1.21-1.21h10.53c.39 0 .78-.19.97-.49l.58-.82c.53-.78.29-1.31-.68-1.31h-5.29c-.58 0-.97.39-.97.92 0 .58-.39.97-.92.97h-4.03c-.73 0-1.21-.49-1.21-1.21v-4.9c0-.73.49-1.21 1.21-1.21h14.22c.73 0 1.21-.49 1.21-1.21v-.44c0-.73.48-1.21 1.21-1.21h4.27c.73 0 1.21.49 1.21 1.21v.44c0 .73.49 1.21 1.21 1.21h14.27c.73 0 1.21.49 1.21 1.21v4.9c0 .73-.48 1.21-1.21 1.21h-4.27c-.58 0-.97-.39-.97-.97 0-.53-.39-.92-.92-.92h-13.78c-1.21 0-1.21.19-.05.53l.97.29c.53.15.68.53.39 1.02-.34.49-.19.78.39.78h18.49c.73 0 1.21.49 1.21 1.21v2.72c0 .73-.48 1.21-1.21 1.21h-5.68c-.44 0-.92.29-1.12.73-.34.73-.78 1.41-1.21 2.09-.73.97-.53 1.75.63 2.13 1.89.53 3.64 1.12 5.14 1.65 1.02.34 1.21 1.12.53 1.89l-2.28 2.62c-.34.44-.92.53-1.41.34-2.43-.97-5.73-2.13-9.32-3.2-.29-.1-.58-.1-.82 0-.73.29-1.46.58-2.23.78-1.12.34-1.07.53.05.53h.68c.73 0 1.21.49 1.21 1.21v.39c0 .73.48 1.21 1.21 1.21h15.58c.73 0 1.21.49 1.21 1.21v3.01c0 .73-.49 1.21-1.21 1.21l.01-.02zm-24.51-17.56l-.1.15c-.19.29-.15.48.19.53 2.23.44 4.61.97 6.99 1.55.19.05.44.05.58-.1.58-.39 1.07-.87 1.46-1.36.49-.58.19-1.02-.53-1.02h-8.01c-.19 0-.44.1-.58.24v.01zm-337.138-15.96l-3.93-1.21c-.68-.19-1.26.1-1.5.78-2.13 5.58-5.48 11.11-8.93 14.85-.39.44-.49 1.02-.15 1.5v.1c.73 1.31 1.65 3.15 2.33 4.61.39.97 1.12 1.07 1.8.29.68-.78 1.12-.63 1.12.44v19.41c0 .73.49 1.21 1.21 1.21h3.93c.73 0 1.21-.49 1.21-1.21V147.3l.15-.39s0-.15.05-.19c1.31-2.47 2.47-5.14 3.49-7.67.29-.73 0-1.36-.78-1.6v-.01zm29.689 36.37h-3.74c0-.07.03-.13.03-.2v-25.5c0-.73-.38-1.21-.95-1.21h-7.35c-.3 0-.53-.29-.53-.68 0-.39.23-.68.53-.68h9.13c.57 0 .95-.49.95-1.21v-3.11c0-.73-.38-1.21-.95-1.21h-8.71c-.57 0-.95-.49-.95-1.21v-.58c0-.73-.38-1.21-.95-1.21h-3.63c-.57 0-.95.49-.95 1.21v.58c0 .73-.38 1.21-.95 1.21h-8.07c-.57 0-.95.49-.95 1.21v3.11c0 .73.38 1.21.95 1.21h8.48c.3 0 .53.29.53.68 0 .39-.23.68-.53.68h-6.59c-.57 0-.95.49-.95 1.21v25.5c0 .07.02.13.03.2h-4.27c-.57 0-.95.48-.95 1.21v3.01c0 .73.38 1.21.95 1.21h30.37c.57 0 .95-.49.95-1.21v-3.01c0-.73-.38-1.21-.95-1.21h.02zm-20.56-21.54h10.98c.3 0 .53.32.53.76s-.23.76-.53.76h-10.98c-.3 0-.53-.32-.53-.76s.23-.76.53-.76zm0 5.41h10.98c.3 0 .53.32.53.76s-.23.76-.53.76h-10.98c-.3 0-.53-.32-.53-.76s.23-.76.53-.76zm.04 5.5h10.9c.34 0 .57.32.57.81 0 .49-.23.81-.57.81h-10.9c-.34 0-.57-.32-.57-.81 0-.49.23-.81.57-.81zm0 5.35h10.9c.34 0 .57.32.57.81 0 .49-.23.81-.57.81h-10.9c-.34 0-.57-.32-.57-.81 0-.49.23-.81.57-.81z" fill="#fff"/><path d="M446.651 38.49c7.02 7.02 7.02 18.4 0 25.42l-31.11 31.11c-7.02 7.02-18.4 7.02-25.42 0l-31.11-31.11c-7.02-7.02-7.02-18.4 0-25.42l31.11-31.11c7.02-7.02 18.4-7.02 25.42 0l31.11 31.11z" fill="#CF2027"/><path d="M402.819 101.58c-5.14 0-9.98-2-13.62-5.64l-31.11-31.11a19.12 19.12 0 01-5.64-13.62c0-5.15 2.01-9.98 5.64-13.62l31.11-31.11c3.64-3.64 8.48-5.64 13.62-5.64 5.14 0 9.98 2 13.62 5.64l31.11 31.11c7.51 7.51 7.51 19.73 0 27.24l-31.11 31.11a19.12 19.12 0 01-13.62 5.64zm0-98.18c-4.46 0-8.65 1.73-11.81 4.89l-31.11 31.11a16.604 16.604 0 00-4.89 11.81c0 4.46 1.73 8.65 4.89 11.8l31.11 31.11c3.15 3.15 7.35 4.89 11.8 4.89 4.45 0 8.65-1.74 11.8-4.89l31.11-31.11c6.51-6.51 6.51-17.1 0-23.61l-31.11-31.11a16.58 16.58 0 00-11.8-4.89h.01z" fill="#58393E"/><path d="M440.402 40.3c6.02 6.02 6.02 15.78 0 21.8l-26.68 26.68c-6.02 6.02-15.78 6.02-21.8 0l-26.68-26.68c-6.02-6.02-6.02-15.78 0-21.8l26.68-26.68c6.02-6.02 15.78-6.02 21.8 0l26.68 26.68z" fill="#F25252"/><path d="M402.82 93.95c-4.29 0-8.32-1.67-11.36-4.7l-26.68-26.68a15.977 15.977 0 01-4.71-11.36c0-4.29 1.67-8.32 4.71-11.36l26.68-26.68c3.03-3.03 7.07-4.7 11.36-4.7 4.29 0 8.32 1.67 11.36 4.7l26.68 26.68c6.26 6.26 6.26 16.45 0 22.71l-26.68 26.68c-3.03 3.03-7.06 4.7-11.35 4.7l-.01.01zm0-84.2a14.7 14.7 0 00-10.45 4.33l-26.68 26.68c-2.79 2.79-4.33 6.5-4.33 10.45 0 3.95 1.54 7.66 4.33 10.45l26.68 26.68c2.79 2.79 6.5 4.33 10.45 4.33 3.95 0 7.66-1.54 10.45-4.33l26.68-26.68c5.76-5.76 5.76-15.13 0-20.89l-26.68-26.68c-2.79-2.79-6.5-4.33-10.45-4.33v-.01z" fill="#FBD5A2"/><path d="M416.59 30.25v19.94c0 .34.19.73.44.92 2.14 1.75 4.42 3.25 6.84 4.46 1.02.53 1.16 1.31.34 2.18-.97 1.07-2.04 2.38-2.81 3.54-.39.58-1.02.78-1.6.39h-.1c-.34-.19-.73-.44-1.16-.68-1.16-.73-1.94-.39-1.94 1.07v9.27c0 .73-.49 1.21-1.21 1.21h-4.56c-.73 0-1.21-.48-1.21-1.21V53.73c0-.24-.15-.58-.29-.78-1.12-1.26-2.18-2.62-3.2-4.03-.92-1.31-1.8-1.17-2.28.39-3.44 10.48-8.93 17.95-15.92 22.37-.53.34-1.16.19-1.6-.29-.82-.92-1.89-2.04-2.96-2.96-.97-.83-.92-1.65.19-2.33 3.74-2.23 6.84-5.29 9.46-9.17.34-.49.24-1.12-.19-1.5-1.21-1.07-2.72-2.18-4.17-3.2-.53-.39-1.21-.29-1.65.24l-.39.49c-.48.58-1.16.58-1.75.1-.97-.83-2.23-1.84-3.35-2.62-.78-.58-.82-1.36-.15-2.04 4.22-4.42 7.42-11.16 9.27-18.39.19-.73.78-1.07 1.46-.92l4.27.87c.73.15 1.12.73.92 1.5-.24.78-.44 1.55-.73 2.33-.29 1.02.15 1.65 1.21 1.65h3.35l.24-.05.58-.15h.19c.15 0 .39 0 .53.05l3.15 1.02c.58.19.92.73.78 1.31v.1c-.1.73-.24 1.46-.39 2.23-.1.53.19.78.73.58.54-.2 1.02 0 1.31.49l.39.73c.53.87.97.73.97-.34V30.25c0-.73.49-1.21 1.21-1.21h4.56c.73 0 1.21.49 1.21 1.21h.01zm-18.34 11.5h-4.22c-.29 0-.58.19-.68.44-.58 1.26-1.16 2.47-1.84 3.64-.19.39-.1.78.29 1.02 1.41.83 2.77 1.8 4.03 2.72.49.34.92.24 1.12-.34.78-2.04 1.46-4.27 1.99-6.6.15-.53-.15-.87-.68-.87l-.01-.01z" fill="#fff"/><path d="M529.639 38.49c7.02 7.02 7.02 18.4 0 25.42l-31.11 31.11c-7.02 7.02-18.4 7.02-25.42 0l-31.11-31.11c-7.02-7.02-7.02-18.4 0-25.42l31.11-31.11c7.02-7.02 18.4-7.02 25.42 0l31.11 31.11z" fill="#CF2027"/><path d="M485.819 101.58c-5.14 0-9.98-2-13.62-5.64l-31.11-31.11a19.12 19.12 0 01-5.64-13.62c0-5.15 2.01-9.98 5.64-13.62l31.11-31.11c3.64-3.64 8.48-5.64 13.62-5.64 5.14 0 9.98 2 13.62 5.64l31.11 31.11c7.51 7.51 7.51 19.73 0 27.24l-31.11 31.11a19.12 19.12 0 01-13.62 5.64zm0-98.18c-4.46 0-8.65 1.73-11.81 4.89l-31.11 31.11a16.604 16.604 0 00-4.89 11.81c0 4.46 1.73 8.65 4.89 11.8l31.11 31.11c3.15 3.15 7.35 4.89 11.8 4.89 4.45 0 8.65-1.74 11.8-4.89l31.11-31.11c6.51-6.51 6.51-17.1 0-23.61l-31.11-31.11a16.58 16.58 0 00-11.8-4.89h.01z" fill="#58393E"/><path d="M523.402 40.3c6.02 6.02 6.02 15.78 0 21.8l-26.68 26.68c-6.02 6.02-15.78 6.02-21.8 0l-26.68-26.68c-6.02-6.02-6.02-15.78 0-21.8l26.68-26.68c6.02-6.02 15.78-6.02 21.8 0l26.68 26.68z" fill="#F25252"/><path d="M485.82 93.95c-4.29 0-8.32-1.67-11.36-4.7l-26.68-26.68a15.977 15.977 0 01-4.71-11.36c0-4.29 1.67-8.32 4.71-11.36l26.68-26.68c3.03-3.03 7.07-4.7 11.36-4.7 4.29 0 8.32 1.67 11.36 4.7l26.68 26.68c6.26 6.26 6.26 16.45 0 22.71l-26.68 26.68c-3.03 3.03-7.06 4.7-11.35 4.7l-.01.01zm-.01-84.2a14.7 14.7 0 00-10.45 4.33l-26.68 26.68c-2.79 2.79-4.33 6.5-4.33 10.45 0 3.95 1.54 7.66 4.33 10.45l26.68 26.68c2.79 2.79 6.5 4.33 10.45 4.33 3.95 0 7.66-1.54 10.45-4.33l26.68-26.68c5.76-5.76 5.76-15.13 0-20.89l-26.68-26.68c-2.79-2.79-6.5-4.33-10.45-4.33v-.01z" fill="#FBD5A2"/><path d="M505.9 38.06c-.53 0-1.07.34-1.26.82-.78 2.09-1.75 3.98-2.91 5.63-.44.58-.34 1.26.24 1.7 1.21.78 2.52 1.5 3.93 2.09 1.21.49 1.41 1.31.58 2.33-.53.63-1.02 1.36-1.46 2.04-.34.53-.92.78-1.55.53-2.04-.92-3.93-1.99-5.58-3.35-.49-.34-1.07-.39-1.6-.05-1.55 1.07-3.3 2.04-5.24 2.81-.63.29-1.26 0-1.6-.63-.29-.58-.73-1.31-1.16-1.94-.58-.97-.97-.83-1.31.24-.24.63-.63 1.12-1.26 1.46-.97.53-2.14.68-3.59.73-.58 0-1.07-.39-1.21-1.02-.19-.68-.44-1.36-.68-2.04-.24-.63 0-1.02.73-1.02h1.12c.34 0 .48-.1.48-.49v-.58c0-.34-.24-.53-.53-.44l-.73.24c-.78.24-1.31-.15-1.41-.97a39.25 39.25 0 00-.68-3.69c-.15-.68.19-1.26.82-1.5h.1l.24-.05h.1c.63-.19 1.21.1 1.41.73v.1c.05.29.15.58.24.83v.1c.29 1.21.44 1.17.44-.1v-1.7c0-.73-.48-1.21-1.21-1.21h-1.41c-.73 0-1.21.49-1.21 1.21v10.48c0 .73-.49 1.21-1.21 1.21h-1.6c-.73 0-1.21-.49-1.21-1.21v-5.63c0-2.38-.1-2.38-.63-.05a13.25 13.25 0 01-.87 2.86c-.24.58-.78.68-1.31.34-.53-.29-.92-.05-.92.58v2.33c0 .73-.49 1.21-1.21 1.21h-2.23c-.73 0-1.21-.48-1.21-1.21V36.79c0-.53.39-.92.97-.92.53 0 .78-.34.58-.87-.29-.68-.63-1.36-.97-2.04-.44-.78-.24-1.5.58-1.84l2.28-.97c.58-.24 1.16-.05 1.46.44.68.97 1.31 2.09 1.75 3.01.24.58 0 1.21-.58 1.46l-.39.19c-.87.39-.78.63.1.63h.53c.73 0 1.21-.49 1.21-1.21v-4.51c0-.73.49-1.21 1.21-1.21h3.35c.73 0 1.21.49 1.21 1.21v4.51c0 .73.49 1.21 1.21 1.21h.87c.68 0 .68-.19.1-.44-.63-.24-.87-.83-.58-1.46.44-.97.92-2.09 1.26-3.06.24-.73.87-1.07 1.6-.83l2.57.87c.97.34 1.21 1.07.58 1.89l-1.5 2.13c-.39.53-.19.87.44.87h.34c.44 0 .73.29.73.73s.19.53.49.19c1.75-1.89 3.11-4.22 3.93-6.79.24-.63.78-.97 1.46-.83l3.15.63c.73.15 1.12.73.87 1.46l-.1.34c-.34.92.05 1.5 1.02 1.5h7.81c.73 0 1.21.48 1.21 1.21v2.67c0 .63-.53 1.07-1.16 1.07l-.03.03zm-2.58 18.15v8.49c0 2.81-.63 4.32-2.72 5.14-1.89.78-4.12.87-6.94.87-.58 0-1.07-.39-1.21-.87v-.1l-.97-2.57c-.53-1.16-.1-1.89 1.21-1.89 1.36.05 2.67.05 3.06.05.68-.05.97-.19.97-.73v-2.86c0-.73-.49-1.21-1.21-1.21h-5.34c-.73 0-1.21.49-1.21 1.21v9.71c0 .73-.49 1.21-1.21 1.21h-4.22c-.73 0-1.21-.49-1.21-1.21v-9.71c0-.73-.49-1.21-1.21-1.21h-4.42c-.73 0-1.21.49-1.21 1.21v7.67c0 .73-.49 1.21-1.21 1.21h-4.08c-.73 0-1.21-.49-1.21-1.21v-13.2c0-.73.49-1.21 1.21-1.21h11.01c.68 0 1.12-.44 1.12-1.12 0-.68.44-1.12 1.12-1.12h4.42c.68 0 1.12.44 1.12 1.12 0 .68.44 1.12 1.12 1.12h12.03c.73 0 1.21.48 1.21 1.21h-.02zM474.7 40.39c0-.44-.29-.73-.73-.73h-2.28c-.44 0-.73.29-.73.73v2.77c0 1.5.29 1.55.49.05l.15-1.7c.05-.48.39-.78.82-.68l1.55.24c.44.05.73-.19.73-.68zm12.51 1.55v5.05c0 .58.39.87.92.68 1.75-.63 3.25-1.36 4.66-2.23.34-.24.39-.68.15-1.02l-1.31-2.09c-.29-.53-.73-.58-1.21-.19-.05.05-.15.1-.19.19-.34.29-.78.24-1.07-.1-.24-.24-.44-.53-.68-.78-.78-.83-1.26-.63-1.26.49h-.01zm10.58-3.88h-1.7c-.68 0-.97.44-.63 1.02.34.53.63 1.07.97 1.55.34.49.82.49 1.12 0 .34-.53.63-1.07.87-1.6.29-.58 0-.97-.63-.97z" fill="#fff"/><path d="M612.628 38.49c7.02 7.02 7.02 18.4 0 25.42l-31.11 31.11c-7.02 7.02-18.4 7.02-25.42 0l-31.11-31.11c-7.02-7.02-7.02-18.4 0-25.42l31.11-31.11c7.02-7.02 18.4-7.02 25.42 0l31.11 31.11z" fill="#CF2027"/><path d="M568.807 101.58c-5.14 0-9.979-2-13.619-5.64l-31.111-31.11a19.12 19.12 0 01-5.639-13.62c0-5.15 2.009-9.98 5.639-13.62l31.111-31.11A19.135 19.135 0 01568.807.84c5.14 0 9.98 2 13.62 5.64l31.11 31.11c7.51 7.51 7.51 19.73 0 27.24l-31.11 31.11a19.12 19.12 0 01-13.62 5.64zm0-98.18c-4.46 0-8.65 1.73-11.81 4.89L525.888 39.4a16.605 16.605 0 00-4.891 11.81c0 4.46 1.731 8.65 4.891 11.8l31.109 31.11c3.15 3.15 7.35 4.89 11.8 4.89a16.6 16.6 0 0011.801-4.89l31.11-31.11c6.51-6.51 6.51-17.1 0-23.61l-31.11-31.11a16.583 16.583 0 00-11.801-4.89h.01z" fill="#58393E"/><path d="M606.39 40.3c6.02 6.02 6.02 15.78 0 21.8l-26.68 26.68c-6.02 6.02-15.78 6.02-21.8 0L531.23 62.1c-6.02-6.02-6.02-15.78 0-21.8l26.68-26.68c6.02-6.02 15.78-6.02 21.8 0l26.68 26.68z" fill="#F25252"/><path d="M568.809 93.95c-4.29 0-8.32-1.67-11.36-4.7l-26.68-26.68a15.977 15.977 0 01-4.71-11.36c0-4.29 1.67-8.32 4.71-11.36l26.68-26.68c3.03-3.03 7.07-4.7 11.36-4.7 4.29 0 8.32 1.67 11.36 4.7l26.68 26.68c6.26 6.26 6.26 16.45 0 22.71l-26.68 26.68c-3.03 3.03-7.06 4.7-11.35 4.7l-.01.01zm0-84.2a14.7 14.7 0 00-10.45 4.33l-26.68 26.68c-2.79 2.79-4.33 6.5-4.33 10.45 0 3.95 1.54 7.66 4.33 10.45l26.68 26.68c2.79 2.79 6.5 4.33 10.45 4.33 3.95 0 7.66-1.54 10.45-4.33l26.68-26.68c5.76-5.76 5.76-15.13 0-20.89l-26.68-26.68c-2.79-2.79-6.5-4.33-10.45-4.33v-.01z" fill="#FBD5A2"/><path d="M572.298 61.25v3.11c0 .63.44 1.12 1.07 1.17.97.05 1.94.1 2.96.1 2.38 0 7.86 0 11.74-.1 1.36 0 1.8.73 1.31 1.99-.49 1.21-.92 2.62-1.21 3.79-.15.63-.58 1.02-1.21 1.02h-11.01c-7.18 0-12.76-1.07-16.89-5.58-.82-.97-1.65-.92-2.23.24-1.12 1.99-2.43 3.74-3.98 5.24-.53.49-1.16.44-1.7-.05a37.3 37.3 0 00-3.25-2.72c-.83-.68-.87-1.46-.05-2.18 3.74-3.45 5.58-8.78 6.31-15.19.05-.73.58-1.16 1.31-1.12l4.56.48c.73.05 1.16.58 1.07 1.31a46.82 46.82 0 01-.73 4.12c-.05.24-.05.53.05.73.87 2.04 1.94 3.54 3.2 4.71.97.78 1.7.34 1.7-.92V50.29c0-.73-.49-1.21-1.21-1.21h-6.5c-.73 0-1.21-.49-1.21-1.21v-3.93c0-.73.49-1.21 1.21-1.21h22.27c.73 0 1.21.49 1.21 1.21v3.93c0 .73-.48 1.21-1.21 1.21h-6.36c-.73 0-1.21.49-1.21 1.21v2.28c0 .73.48 1.21 1.21 1.21h9.66c.73 0 1.21.49 1.21 1.21v3.83c0 .73-.49 1.21-1.21 1.21h-9.66c-.73 0-1.21.49-1.21 1.21l-.01.01zm-16.99-20.47v3.69c0 .73-.49 1.21-1.21 1.21h-4.17c-.73 0-1.21-.49-1.21-1.21v-10c0-.73.49-1.21 1.21-1.21h14.02c.73 0 1.21-.49 1.21-1.21v-1.84c0-.73.49-1.21 1.21-1.21h4.75c.73 0 1.21.49 1.21 1.21v1.84c0 .73.49 1.21 1.21 1.21h14.17c.73 0 1.21.48 1.21 1.21v10c0 .73-.49 1.21-1.21 1.21h-4.46c-.73 0-1.21-.49-1.21-1.21v-3.69c0-.73-.49-1.21-1.21-1.21h-24.31c-.73 0-1.21.49-1.21 1.21z" fill="#fff"/><path d="M695.632 38.49c7.02 7.02 7.02 18.4 0 25.42l-31.11 31.11c-7.02 7.02-18.4 7.02-25.42 0l-31.11-31.11c-7.02-7.02-7.02-18.4 0-25.42l31.11-31.11c7.02-7.02 18.4-7.02 25.42 0l31.11 31.11z" fill="#CF2027"/><path d="M651.8 101.58c-5.14 0-9.98-2-13.62-5.64l-31.11-31.11a19.12 19.12 0 01-5.64-13.62c0-5.15 2.01-9.98 5.64-13.62l31.11-31.11c3.64-3.64 8.48-5.64 13.62-5.64 5.14 0 9.98 2 13.62 5.64l31.11 31.11c7.51 7.51 7.51 19.73 0 27.24l-31.11 31.11a19.12 19.12 0 01-13.62 5.64zm0-98.18c-4.46 0-8.65 1.73-11.81 4.89L608.88 39.4a16.604 16.604 0 00-4.89 11.81c0 4.46 1.73 8.65 4.89 11.8l31.11 31.11c3.15 3.15 7.35 4.89 11.8 4.89 4.45 0 8.65-1.74 11.8-4.89l31.11-31.11c6.51-6.51 6.51-17.1 0-23.61L663.59 8.29a16.58 16.58 0 00-11.8-4.89h.01z" fill="#58393E"/><path d="M689.39 40.3c6.02 6.02 6.02 15.78 0 21.8l-26.68 26.68c-6.02 6.02-15.78 6.02-21.8 0L614.23 62.1c-6.02-6.02-6.02-15.78 0-21.8l26.68-26.68c6.02-6.02 15.78-6.02 21.8 0l26.68 26.68z" fill="#F25252"/><path d="M651.801 93.95c-4.29 0-8.32-1.67-11.36-4.7l-26.68-26.68a15.977 15.977 0 01-4.71-11.36c0-4.29 1.67-8.32 4.71-11.36l26.68-26.68c3.03-3.03 7.07-4.7 11.36-4.7 4.29 0 8.32 1.67 11.36 4.7l26.68 26.68c6.26 6.26 6.26 16.45 0 22.71l-26.68 26.68c-3.03 3.03-7.06 4.7-11.35 4.7l-.01.01zm0-84.2a14.7 14.7 0 00-10.45 4.33l-26.68 26.68c-2.79 2.79-4.33 6.5-4.33 10.45 0 3.95 1.54 7.66 4.33 10.45l26.68 26.68c2.79 2.79 6.5 4.33 10.45 4.33 3.95 0 7.66-1.54 10.45-4.33l26.68-26.68c5.76-5.76 5.76-15.13 0-20.89l-26.68-26.68c-2.79-2.79-6.5-4.33-10.45-4.33v-.01z" fill="#FBD5A2"/><path d="M671.401 41.26h-22.27c-.49 0-.92.29-1.12.68-1.46 2.96-3.11 5.73-4.9 8.39l-.1.1c-.1.15-.19.44-.19.63v20.33c0 .73-.49 1.21-1.21 1.21h-4.37c-.73 0-1.21-.49-1.21-1.21V60.04c0-1.26-.63-1.55-1.65-.78l-.44.34c-.73.53-1.46.29-1.84-.58-.58-1.36-1.41-2.91-2.09-4.17-.39-.63-.24-1.26.39-1.7 3.64-2.57 6.7-6.11 9.12-10.14.58-1.02.15-1.75-1.07-1.75h-6.16c-.73 0-1.21-.49-1.21-1.21v-3.98c0-.73.49-1.21 1.21-1.21h10.29c.49 0 .92-.29 1.12-.78.49-1.36.92-2.72 1.31-4.08.19-.68.78-1.07 1.46-.87l4.71 1.12c.78.19 1.12.78.87 1.55-.15.44-.29.92-.48 1.41-.34.97.1 1.65 1.16 1.65h18.68c.73 0 1.21.49 1.21 1.21v3.98c0 .73-.48 1.21-1.21 1.21h-.01zm1.8 15.34v3.79c0 .73-.49 1.21-1.21 1.21h-7.71c-.73 0-1.21.49-1.21 1.21v3.01c0 3.15-.53 4.85-2.72 5.82-1.94.87-4.42 1.02-7.47 1.02-.63 0-1.12-.44-1.21-1.07-.24-1.12-.58-2.38-.97-3.54-.34-1.12.1-1.8 1.31-1.75 1.46.05 2.81.05 3.3.05.73-.05.97-.19.97-.73v-2.81c0-.73-.49-1.21-1.21-1.21h-8.69c-.73 0-1.21-.49-1.21-1.21V56.6c0-.73.49-1.21 1.21-1.21h8.69c.73 0 1.21-.49 1.21-1.21v-1.36c0-.58.39-.97.97-.97h.49c.29 0 .63-.15.83-.34l.63-.58c.58-.58.44-.97-.39-.97h-8.98c-.73 0-1.21-.49-1.21-1.21v-3.59c0-.73.49-1.21 1.21-1.21h15.53l.24-.05.68-.15c.34-.1.78 0 1.07.24l2.67 2.18c.58.44.63 1.17.15 1.7-2.04 2.23-4.42 4.71-6.79 6.7l-.1.05c-.1.15-.19.29-.19.49s.1.29.29.29h8.64c.73 0 1.21.49 1.21 1.21l-.03-.01z" fill="#fff"/></svg>