<svg width="350" height="50" viewBox="0 0 350 50" fill="none" xmlns="http://www.w3.org/2000/svg"><mask id="mask0_1248_557" style="mask-type:luminance" maskUnits="userSpaceOnUse" x="20" y="0" width="310" height="50"><path d="M330 0H20v49.75h310V0z" fill="#fff"/></mask><g mask="url(#mask0_1248_557)"><path d="M55.563 27.85h-15.19c-5.875 0-10.655-3.328-10.655-7.417 0-4.088 4.78-7.416 10.656-7.416h36.555a.706.706 0 110 1.412H40.374c-5.012 0-9.249 2.75-9.249 6.004 0 3.254 4.237 6.005 9.249 6.005h15.189v1.412z" fill="#58393E"/><path d="M51.276 27.85c-5.876 0-10.656-3.328-10.656-7.417 0-4.088 4.78-7.416 10.656-7.416v1.412c-5.012 0-9.249 2.75-9.249 6.004 0 3.254 4.237 6.005 9.25 6.005v1.412z" fill="#58393E"/><path d="M54.165 41.27H20.706a.706.706 0 110-1.411h33.46c5.011 0 9.248-2.75 9.248-6.005 0-3.254-4.237-6.004-9.249-6.004v-1.413c5.876 0 10.656 3.329 10.656 7.417 0 4.089-4.78 7.417-10.656 7.417zm240.273-13.42h15.188c5.877 0 10.656-3.328 10.656-7.417 0-4.088-4.779-7.416-10.656-7.416h-36.555a.706.706 0 100 1.412h36.555c5.012 0 9.249 2.75 9.249 6.004 0 3.254-4.237 6.005-9.249 6.005h-15.188v1.412z" fill="#58393E"/><path d="M298.724 27.85c5.876 0 10.656-3.328 10.656-7.417 0-4.088-4.78-7.416-10.656-7.416v1.412c5.012 0 9.248 2.75 9.248 6.004 0 3.254-4.236 6.005-9.248 6.005v1.412z" fill="#58393E"/><path d="M295.84 41.27h33.459a.706.706 0 100-1.411H295.84c-5.012 0-9.249-2.75-9.249-6.005 0-3.254 4.237-6.004 9.249-6.004v-1.413c-5.876 0-10.656 3.329-10.656 7.417 0 4.089 4.78 7.417 10.656 7.417z" fill="#58393E"/><path d="M114.679 18.596a8.874 8.874 0 010 12.552L99.317 46.51a8.875 8.875 0 01-12.552 0L71.403 31.148a8.875 8.875 0 010-12.552L86.765 3.235a8.875 8.875 0 0112.552 0l15.362 15.361z" fill="#CF2027"/><path d="M93.041 49.749a9.45 9.45 0 01-6.725-2.785L70.954 31.602a9.442 9.442 0 01-2.785-6.725c0-2.543.992-4.928 2.785-6.726L86.316 2.79A9.45 9.45 0 0193.04.005a9.45 9.45 0 016.725 2.785l15.362 15.361c3.709 3.709 3.709 9.743 0 13.451L99.766 46.964a9.441 9.441 0 01-6.725 2.785zm0-48.48a8.187 8.187 0 00-5.832 2.415L71.848 19.045a8.199 8.199 0 00-2.415 5.832c0 2.202.854 4.271 2.415 5.827l15.361 15.361a8.196 8.196 0 005.827 2.415 8.2 8.2 0 005.827-2.415l15.362-15.361c3.214-3.215 3.214-8.444 0-11.659L98.863 3.684a8.187 8.187 0 00-5.827-2.415h.005z" fill="#58393E"/><path d="M111.597 19.49a7.61 7.61 0 010 10.764L98.423 43.428a7.612 7.612 0 01-10.764 0L74.484 30.255a7.612 7.612 0 010-10.764L87.66 6.315a7.612 7.612 0 0110.764 0l13.174 13.175z" fill="#F25252"/><path d="M93.041 45.981a7.893 7.893 0 01-5.61-2.32L74.258 30.486a7.889 7.889 0 01-2.325-5.61 7.88 7.88 0 012.325-5.609L87.432 6.093a7.885 7.885 0 015.609-2.32c2.118 0 4.108.824 5.61 2.32l13.174 13.174c3.091 3.092 3.091 8.123 0 11.214L98.65 43.656a7.873 7.873 0 01-5.604 2.32l-.005.005zm0-41.576c-1.945 0-3.782.76-5.16 2.138L74.707 19.717a7.25 7.25 0 00-2.138 5.16c0 1.95.76 3.782 2.138 5.16L87.88 43.211a7.25 7.25 0 005.16 2.138 7.25 7.25 0 005.16-2.138l13.174-13.174a7.3 7.3 0 000-10.315L98.201 6.548a7.25 7.25 0 00-5.16-2.139v-.004z" fill="#FBD5A2"/><path d="M99.124 22.028l1.724.958c.261.143.36.43.261.72-.982 2.494-2.37 4.529-4.123 6.158-.43.41-.385.815.193 1.032 1.63.553 3.476.958 5.535 1.22.721.093.889.503.454 1.076a19.463 19.463 0 00-1.175 1.94.589.589 0 01-.622.312c-3.259-.48-5.965-1.319-8.217-2.563a.703.703 0 00-.572-.025c-2.42 1.22-5.15 2.015-8.123 2.514-.311.074-.573-.094-.696-.385a14.467 14.467 0 00-.958-1.822c-.36-.578-.193-.958.454-1.052 2.084-.287 4-.721 5.728-1.294.528-.192.597-.598.217-1.007a17.929 17.929 0 01-2.345-3.116c-.218-.36-.094-.721.335-.864l.529-.168c.72-.242.696-.41-.074-.41h-2.756c-.36 0-.597-.242-.597-.597V22.62c0-.36.237-.597.597-.597h5.728c.36 0 .598-.242.598-.598v-.958c0-.36-.242-.597-.598-.597h-6.878c-.36 0-.598-.242-.598-.598V17.19c0-.361.237-.598.598-.598h6.878c.36 0 .598-.242.598-.598v-1.535c0-.36.242-.598.597-.598h2.252c.36 0 .597.242.597.598v1.535c0 .361.242.598.598.598h6.972c.361 0 .598.242.598.598v2.083c0 .36-.242.598-.598.598h-6.972c-.36 0-.598.242-.598.597v.958c0 .36.242.598.598.598h3.042l.118-.025.287-.05a.618.618 0 01.41.075l.004.005zm-3.259 3.234h-5.461c-.385 0-.504.217-.286.528.72 1.101 1.654 2.06 2.78 2.874.118.094.261.094.41 0 1.1-.79 2.083-1.748 2.849-2.874.217-.31.074-.528-.287-.528h-.005z" fill="#fff"/><path d="M155.663 18.596a8.874 8.874 0 010 12.552L140.302 46.51a8.875 8.875 0 01-12.552 0l-15.362-15.362a8.874 8.874 0 010-12.552L127.75 3.235a8.875 8.875 0 0112.552 0l15.361 15.361z" fill="#CF2027"/><path d="M134.021 49.749a9.452 9.452 0 01-6.726-2.785l-15.362-15.362a9.443 9.443 0 01-2.785-6.725c0-2.543.993-4.928 2.785-6.726L127.295 2.79a9.453 9.453 0 016.726-2.785c2.538 0 4.928.987 6.725 2.785l15.362 15.361c3.708 3.709 3.708 9.743 0 13.451l-15.362 15.362a9.44 9.44 0 01-6.725 2.785zm0-48.48a8.188 8.188 0 00-5.832 2.415l-15.362 15.361a8.2 8.2 0 00-2.414 5.832 8.17 8.17 0 002.414 5.827l15.362 15.361a8.197 8.197 0 005.827 2.415 8.2 8.2 0 005.827-2.415l15.361-15.361c3.215-3.215 3.215-8.444 0-11.659L139.843 3.684a8.19 8.19 0 00-5.827-2.415h.005z" fill="#58393E"/><path d="M152.582 19.49a7.61 7.61 0 010 10.764l-13.174 13.174a7.612 7.612 0 01-10.765 0l-13.174-13.174a7.61 7.61 0 010-10.764l13.174-13.175a7.612 7.612 0 0110.765 0l13.174 13.175z" fill="#F25252"/><path d="M134.021 45.981a7.893 7.893 0 01-5.61-2.32l-13.174-13.175a7.89 7.89 0 01-2.326-5.61c0-2.117.825-4.107 2.326-5.609l13.174-13.174a7.886 7.886 0 015.61-2.32c2.118 0 4.108.824 5.609 2.32l13.175 13.174c3.091 3.092 3.091 8.123 0 11.214L139.63 43.656a7.873 7.873 0 01-5.604 2.32l-.005.005zm0-41.576c-1.946 0-3.783.76-5.16 2.138l-13.175 13.174a7.253 7.253 0 00-2.138 5.16c0 1.95.761 3.782 2.138 5.16l13.175 13.174a7.248 7.248 0 005.16 2.138 7.25 7.25 0 005.16-2.138l13.174-13.174c2.844-2.844 2.844-7.471 0-10.315L139.181 6.548a7.251 7.251 0 00-5.16-2.139v-.004z" fill="#FBD5A2"/><path d="M128.89 14.117l2.109.696c.36.119.504.43.385.766-.504 1.22-1.076 2.493-1.723 3.664-.025.024-.025.074-.025.094l-.074.192v15.288c0 .36-.242.597-.597.597h-2.183c-.361 0-.598-.237-.598-.597v-9.343c0-.553-.217-.622-.572-.217-.361.41-.766.311-1.008-.168a22.731 22.731 0 00-1.244-2.252c-.168-.261-.143-.577.074-.79 1.847-1.916 3.595-4.695 4.696-7.55.143-.335.43-.479.765-.385l-.005.005zm15.96 5.175v2.158c0 .36-.242.597-.598.597h-1.126c-.36 0-.597.242-.597.598v8.987c0 1.965-.43 2.83-1.654 3.308-1.151.48-2.83.573-5.126.553-.286 0-.528-.192-.597-.503a12.71 12.71 0 00-.647-1.798c-.262-.597-.05-.958.597-.933 1.388.05 2.756.05 3.21.025.553 0 .79-.168.79-.672V22.65c0-.36-.242-.598-.598-.598h-7.214c-.36 0-.597-.242-.597-.597v-2.158c0-.36.242-.598.597-.598h7.214c.361 0 .598-.241.598-.597V14.7c0-.36.242-.598.597-.598h2.227c.361 0 .598.242.598.598v3.402c0 .36.237.598.597.598h1.126c.361 0 .598.242.598.597l.005-.005zm-7.98 9.372l-2.034 1.032c-.361.168-.697.05-.864-.336-.529-1.2-1.413-2.804-2.158-4.192-.193-.336-.074-.671.261-.815l1.847-.864c.311-.143.622-.05.79.242.79 1.319 1.798 2.948 2.42 4.143.168.311.049.622-.262.79z" fill="#fff"/><path d="M196.643 18.596a8.876 8.876 0 010 12.552L181.281 46.51a8.875 8.875 0 01-12.552 0l-15.362-15.362a8.876 8.876 0 010-12.552l15.362-15.361a8.875 8.875 0 0112.552 0l15.362 15.361z" fill="#CF2027"/><path d="M175.005 49.749a9.448 9.448 0 01-6.725-2.785l-15.362-15.362a9.443 9.443 0 01-2.785-6.725c0-2.543.993-4.928 2.785-6.726L168.28 2.79a9.449 9.449 0 016.725-2.785 9.45 9.45 0 016.726 2.785l15.361 15.361c3.709 3.709 3.709 9.743 0 13.451l-15.361 15.362a9.444 9.444 0 01-6.726 2.785zm0-48.48a8.185 8.185 0 00-5.831 2.415l-15.362 15.361a8.197 8.197 0 00-2.415 5.832c0 2.202.854 4.271 2.415 5.827l15.362 15.361A8.194 8.194 0 00175 48.48c2.198 0 4.271-.86 5.827-2.415l15.362-15.361c3.214-3.215 3.214-8.444 0-11.659L180.827 3.684A8.19 8.19 0 00175 1.269h.005z" fill="#58393E"/><path d="M193.561 19.49a7.613 7.613 0 010 10.764l-13.174 13.174a7.612 7.612 0 01-10.765 0l-13.173-13.174a7.61 7.61 0 010-10.764l13.173-13.175a7.612 7.612 0 0110.765 0l13.174 13.175z" fill="#F25252"/><path d="M175.005 45.981a7.893 7.893 0 01-5.609-2.32l-13.175-13.175a7.89 7.89 0 01-2.325-5.61 7.88 7.88 0 012.325-5.609l13.175-13.174a7.884 7.884 0 015.609-2.32c2.119 0 4.108.824 5.61 2.32l13.174 13.174c3.091 3.092 3.091 8.123 0 11.214l-13.174 13.175a7.877 7.877 0 01-5.605 2.32l-.005.005zm0-41.576a7.26 7.26 0 00-5.16 2.138l-13.174 13.174a7.249 7.249 0 00-2.138 5.16c0 1.95.76 3.782 2.138 5.16l13.174 13.174a7.251 7.251 0 005.16 2.138c1.951 0 3.783-.76 5.16-2.138l13.175-13.174c2.844-2.844 2.844-7.471 0-10.315L180.165 6.548a7.248 7.248 0 00-5.16-2.139v-.004z" fill="#FBD5A2"/><path d="M174.161 30.58l-1.032 1.294c-.287.336-.696.286-.983-.05-.336-.385-.622-.335-.622.193v2.83c0 .36-.242.597-.597.597h-2.015c-.361 0-.598-.242-.598-.598V33.41c0-1.032-.405-1.176-1.101-.41-.261.286-.503.553-.765.79-.287.242-.622.192-.864-.094-.336-.43-.766-.884-1.151-1.294-.336-.336-.336-.72.074-1.032a14.617 14.617 0 002.563-2.612c.385-.504.193-.884-.479-.884h-1.462c-.36 0-.597-.242-.597-.597V25.72c0-.36.237-.597.597-.597h2.588c.36 0 .597-.242.597-.598v-.192c0-.36-.242-.598-.597-.598h-2.662c-.36 0-.597-.242-.597-.597v-1.487c0-.36.237-.597.597-.597h.553c.405 0 .647-.262.553-.672a4.916 4.916 0 00-.217-.814c-.118-.336.025-.622.405-.721.361-.094.361-.143-.025-.143h-.982c-.361 0-.598-.242-.598-.598v-1.462c0-.36.242-.597.598-.597h2.37c.36 0 .597-.242.597-.597v-.741c0-.36.242-.598.598-.598h2.015c.36 0 .597.242.597.598v.74c0 .36.242.598.598.598h2.37c.36 0 .597.242.597.597v1.462c0 .36-.242.598-.597.598h-.741c-.311 0-.311.049 0 .093.286.05.405.262.262.529v.05c-.119.31-.242.552-.361.814-.242.528 0 .864.553.864h.43c.36 0 .597.242.597.597v1.487c0 .36-.242.597-.597.597h-2.513c-.361 0-.598.242-.598.598v.192c0 .36.242.598.598.598h2.276c.36 0 .597.242.597.597v1.556c0 .36-.237.597-.597.597h-1.126c-1.057 0-1.175.41-.336 1.008l1.101.839c.312.242.361.573.119.864l.01-.005zm-3.402-11.885h-1.822c-.312 0-.43.192-.336.503.143.43.286.884.36 1.27.025.192-.074.335-.261.384l-.193.05c-.311.094-.286.143.025.143h2.681c.41 0 .43-.05.025-.143l-.287-.05c-.242-.049-.36-.236-.261-.454.143-.405.286-.84.404-1.269.074-.262-.074-.43-.335-.43v-.004zm8.197.36v1.63c0 .36.241.597.597.597h5.629c.361 0 .598.242.598.598v1.871c0 .36-.237.598-.598.598h-.721c-.36 0-.597.241-.597.597v9.821c0 .36-.237.598-.598.598h-2.014c-.361 0-.598-.242-.598-.598v-9.821c0-.36-.242-.598-.597-.598h-.529c-.335 0-.572.242-.597.573-.119 3.091-.696 7.116-2.923 9.945-.287.385-.697.336-1.008-.024-.36-.41-.814-.84-1.244-1.176-.361-.286-.43-.671-.143-1.032 2.014-2.706 2.202-6.231 2.202-9.105v-7.14c0-.48.311-.697.765-.578l.815.217s.074.025.094.025h.336c1.822-.48 3.619-1.126 4.913-1.798h.049a.633.633 0 01.672.094l1.654 1.511c.405.36.336.741-.143.958-1.723.697-3.689 1.22-5.536 1.654a.57.57 0 00-.478.578v.005z" fill="#fff"/><path d="M237.627 18.596a8.874 8.874 0 010 12.552L222.266 46.51a8.876 8.876 0 01-12.553 0l-15.361-15.362a8.874 8.874 0 010-12.552l15.361-15.361a8.876 8.876 0 0112.553 0l15.361 15.361z" fill="#CF2027"/><path d="M215.984 49.749a9.452 9.452 0 01-6.726-2.785l-15.361-15.362a9.44 9.44 0 01-2.785-6.725 9.46 9.46 0 012.785-6.726L209.258 2.79a9.453 9.453 0 016.726-2.785c2.538 0 4.928.987 6.725 2.785l15.362 15.361c3.708 3.709 3.708 9.743 0 13.451l-15.362 15.362a9.44 9.44 0 01-6.725 2.785zm0-48.48a8.186 8.186 0 00-5.832 2.415L194.79 19.045a8.2 8.2 0 00-2.414 5.832 8.17 8.17 0 002.414 5.827l15.362 15.361a8.195 8.195 0 005.827 2.415c2.197 0 4.271-.86 5.826-2.415l15.362-15.361c3.215-3.215 3.215-8.444 0-11.659L221.805 3.684a8.186 8.186 0 00-5.826-2.415h.005z" fill="#58393E"/><path d="M234.541 19.49a7.61 7.61 0 010 10.764l-13.174 13.174a7.612 7.612 0 01-10.765 0l-13.174-13.174a7.613 7.613 0 010-10.764l13.174-13.175a7.612 7.612 0 0110.765 0l13.174 13.175z" fill="#F25252"/><path d="M215.985 45.981a7.893 7.893 0 01-5.61-2.32l-13.174-13.175a7.89 7.89 0 01-2.326-5.61c0-2.117.825-4.107 2.326-5.609l13.174-13.174a7.885 7.885 0 015.61-2.32c2.118 0 4.108.824 5.609 2.32l13.174 13.174c3.091 3.092 3.091 8.123 0 11.214l-13.174 13.175a7.873 7.873 0 01-5.604 2.32l-.005.005zm0-41.576c-1.946 0-3.783.76-5.16 2.138L197.65 19.717a7.253 7.253 0 00-2.138 5.16c0 1.95.761 3.782 2.138 5.16l13.175 13.174a7.248 7.248 0 005.16 2.138 7.25 7.25 0 005.16-2.138l13.174-13.174c2.844-2.844 2.844-7.471 0-10.315L221.145 6.548a7.251 7.251 0 00-5.16-2.139v-.004z" fill="#FBD5A2"/><path d="M225.831 15.317v16.414c0 1.51-.217 2.395-1.101 2.948-.79.479-1.822.597-3.185.622a.6.6 0 01-.622-.529 14.897 14.897 0 00-.479-1.723c-.193-.597.049-.933.671-.933.454.025.889.025 1.077 0h.049c.311 0 .41-.119.41-.43v-3.283c0-.36-.242-.598-.598-.598h-1.723a.594.594 0 00-.597.528c-.361 2.395-.983 4.815-2.158 6.686-.218.36-.573.386-.909.144a17.855 17.855 0 00-1.629-.983c-.193-.094-.41-.025-.578.118a1.612 1.612 0 01-.286.218l-.05.024c-.696.386-1.605.529-2.731.553-.311 0-.553-.217-.622-.528a9.488 9.488 0 00-.454-1.58c-.193-.504.025-.79.528-.766h.889c.287 0 .385-.093.385-.385v-3.427c0-.36-.242-.597-.597-.597h-1.269c-.336 0-.573.217-.598.528-.286 2.37-.79 4.746-1.772 6.612-.218.36-.573.405-.909.168a15.788 15.788 0 00-1.486-.889c-.361-.192-.479-.553-.262-.908 1.555-3.017 1.679-7.165 1.679-10.306v-7.693c0-.36.242-.597.597-.597h7.091c.361 0 .598.242.598.597v16.532l-.025.504c0 .286.074.31.193.05 1.511-3.117 1.629-7.092 1.629-10.114v-6.972c0-.36.242-.597.598-.597h7.668c.361 0 .598.242.598.597l-.02-.005zm-15.574 9.56h1.486c.217 0 .361-.143.361-.36v-1.462c0-.217-.144-.36-.361-.36h-1.699c-.093 0-.143.049-.143.143v.143c0 .479 0 .982-.024 1.51 0 .243.143.386.385.386h-.005zm1.486-7.19h-1.486c-.218 0-.361.144-.361.36v1.413c0 .217.143.36.361.36h1.486c.217 0 .361-.143.361-.36v-1.412c0-.217-.144-.36-.361-.36zm8.671 7.19h1.866c.218 0 .361-.143.361-.36v-1.462c0-.217-.143-.36-.361-.36h-1.822c-.217 0-.36.143-.36.36 0 .454-.025.933-.049 1.437-.025.242.118.385.36.385h.005zm1.871-7.19h-1.822c-.217 0-.36.144-.36.36v1.413c0 .217.143.36.36.36h1.822c.218 0 .361-.143.361-.36v-1.412c0-.217-.143-.36-.361-.36z" fill="#fff"/><path d="M278.607 18.596a8.876 8.876 0 010 12.552L263.245 46.51a8.875 8.875 0 01-12.552 0l-15.362-15.362a8.876 8.876 0 010-12.552l15.362-15.361a8.875 8.875 0 0112.552 0l15.362 15.361z" fill="#CF2027"/><path d="M256.969 49.749a9.448 9.448 0 01-6.725-2.785l-15.362-15.362a9.443 9.443 0 01-2.785-6.725 9.46 9.46 0 012.785-6.726L250.244 2.79a9.449 9.449 0 016.725-2.785c2.538 0 4.928.987 6.725 2.785l15.362 15.361c3.708 3.709 3.708 9.743 0 13.451l-15.362 15.362a9.44 9.44 0 01-6.725 2.785zm0-48.48a8.19 8.19 0 00-5.832 2.415l-15.361 15.361a8.197 8.197 0 00-2.415 5.832c0 2.202.854 4.271 2.415 5.827l15.361 15.361a8.198 8.198 0 005.827 2.415 8.2 8.2 0 005.827-2.415l15.362-15.361c3.214-3.215 3.214-8.444 0-11.659L262.791 3.684a8.19 8.19 0 00-5.827-2.415h.005z" fill="#58393E"/><path d="M275.525 19.49a7.613 7.613 0 010 10.764L262.35 43.428a7.61 7.61 0 01-10.764 0l-13.174-13.174a7.61 7.61 0 010-10.764l13.174-13.175a7.61 7.61 0 0110.764 0l13.175 13.175z" fill="#F25252"/><path d="M256.968 45.981a7.893 7.893 0 01-5.609-2.32l-13.175-13.175a7.89 7.89 0 01-2.325-5.61 7.88 7.88 0 012.325-5.609l13.175-13.174a7.884 7.884 0 015.609-2.32c2.118 0 4.108.824 5.609 2.32l13.175 13.174c3.091 3.092 3.091 8.123 0 11.214l-13.175 13.175a7.873 7.873 0 01-5.604 2.32l-.005.005zm-.005-41.576a7.26 7.26 0 00-5.16 2.138l-13.174 13.174a7.249 7.249 0 00-2.138 5.16c0 1.95.76 3.782 2.138 5.16l13.174 13.174a7.251 7.251 0 005.16 2.138c1.951 0 3.783-.76 5.16-2.138l13.174-13.174a7.3 7.3 0 000-10.315L262.123 6.548a7.248 7.248 0 00-5.16-2.139v-.004z" fill="#FBD5A2"/><path d="M263.191 22.146l1.629.697c.287.118.43.385.336.696-.741 2.469-1.773 4.552-3.141 6.231-.286.36-.217.721.193.909 1.244.597 2.637 1.057 4.217 1.412.696.143.815.553.385 1.101-.429.553-.864 1.22-1.175 1.773a.588.588 0 01-.672.286c-2.202-.553-4.098-1.318-5.728-2.35a.578.578 0 00-.671 0 20.63 20.63 0 01-4.77 2.35c-.311.094-.598-.024-.741-.286a13.491 13.491 0 00-.982-1.556c-.361-.503-.242-.888.335-1.076 1.2-.385 2.301-.889 3.309-1.486.36-.218.385-.573.118-.909a20.381 20.381 0 01-1.437-1.965c-.429-.672-.839-.647-1.15.094-.933 2.182-2.202 4.29-3.955 6.088-.287.286-.647.242-.909-.05a10.023 10.023 0 00-1.699-1.436c-.409-.287-.454-.672-.074-1.032 3.185-2.997 4.553-7.091 5.2-10.71.074-.41-.168-.697-.573-.697h-3.689c-.36 0-.597-.242-.597-.597v-2.015c0-.36.242-.597.597-.597h4.168c.336 0 .573-.218.573-.553.049-.79.074-1.487.094-2.06 0-.335.242-.553.572-.553h2.277c.385 0 .622.242.597.623 0 .553-.049 1.175-.094 1.89-.024.386.218.648.623.648h9.969c.361 0 .598.242.598.597v2.015c0 .36-.237.597-.598.597h-10.468c-.311 0-.553.193-.598.48-.024.261-.074.503-.118.765-.074.43.143.72.597.72h6.711l.385-.073a.593.593 0 01.361.024l-.005.005zm-2.924 3.235h-3.308c-.36 0-.504.217-.286.528a13.67 13.67 0 001.822 2.252c.168.143.36.143.503-.025a13.668 13.668 0 001.581-2.252c.167-.286.024-.503-.312-.503z" fill="#fff"/></g></svg>