<svg width="350" height="103" viewBox="0 0 350 103" fill="none" xmlns="http://www.w3.org/2000/svg"><path d="M55.557 80.972h-15.19c-5.88 0-10.66-3.33-10.66-7.42s4.78-7.42 10.66-7.42h36.55c.39 0 .71.32.71.71 0 .39-.32.71-.71.71h-36.55c-5.01 0-9.25 2.75-9.25 6s4.23 6 9.25 6h15.19v1.42z" fill="#58393E"/><path d="M51.277 80.972c-5.88 0-10.66-3.33-10.66-7.42s4.78-7.42 10.66-7.42v1.41c-5.01 0-9.25 2.75-9.25 6s4.23 6 9.25 6v1.43z" fill="#58393E"/><path d="M54.156 94.391h-33.45c-.39 0-.71-.32-.71-.71 0-.39.32-.71.71-.71h33.46c5.01 0 9.25-2.75 9.25-6s-4.23-6-9.25-6v-1.41c5.88 0 10.66 3.33 10.66 7.42s-4.78 7.42-10.66 7.42l-.01-.01zm240.281-13.419h15.19c5.88 0 10.66-3.33 10.66-7.42s-4.78-7.42-10.66-7.42h-36.55c-.39 0-.71.32-.71.71 0 .39.32.71.71.71h36.55c5.01 0 9.25 2.75 9.25 6s-4.23 6-9.25 6h-15.19v1.42z" fill="#58393E"/><path d="M298.719 80.972c5.88 0 10.66-3.33 10.66-7.42s-4.78-7.42-10.66-7.42v1.41c5.01 0 9.25 2.75 9.25 6s-4.23 6-9.25 6v1.43z" fill="#58393E"/><path d="M295.836 94.391h33.46c.39 0 .71-.32.71-.71 0-.39-.32-.71-.71-.71h-33.46c-5.01 0-9.25-2.75-9.25-6s4.23-6 9.25-6v-1.41c-5.88 0-10.66 3.33-10.66 7.42s4.78 7.42 10.66 7.42v-.01z" fill="#58393E"/><path d="M114.677 71.722c3.47 3.47 3.47 9.09 0 12.55l-15.36 15.36c-3.47 3.47-9.09 3.47-12.55 0l-15.36-15.36c-3.47-3.47-3.47-9.09 0-12.55l15.36-15.36c3.47-3.47 9.09-3.47 12.55 0l15.36 15.36z" fill="#CF2027"/><path d="M93.036 102.872c-2.54 0-4.93-.99-6.73-2.79l-15.36-15.36a9.433 9.433 0 01-2.79-6.72c0-2.54.99-4.93 2.79-6.73l15.36-15.36c1.8-1.8 4.19-2.79 6.73-2.79s4.93.99 6.72 2.79l15.36 15.36c3.71 3.71 3.71 9.74 0 13.45l-15.36 15.36a9.433 9.433 0 01-6.72 2.79zm0-48.48c-2.2 0-4.27.86-5.83 2.41l-15.36 15.36a8.183 8.183 0 00-2.41 5.83c0 2.2.86 4.27 2.41 5.83l15.36 15.36a8.184 8.184 0 005.83 2.41c2.2 0 4.27-.86 5.83-2.41l15.36-15.36c3.21-3.21 3.21-8.44 0-11.66l-15.36-15.36a8.183 8.183 0 00-5.83-2.41z" fill="#58393E"/><path d="M111.597 72.621c2.97 2.97 2.97 7.79 0 10.77l-13.18 13.18a7.61 7.61 0 01-10.76 0l-13.18-13.18c-2.97-2.97-2.97-7.79 0-10.77l13.18-13.18c2.97-2.97 7.79-2.97 10.77 0l13.181 13.18h-.011z" fill="#F25252"/><path d="M93.036 99.102c-2.12 0-4.11-.82-5.61-2.32l-13.18-13.18a7.873 7.873 0 01-2.32-5.61c0-2.12.83-4.11 2.32-5.61l13.18-13.18c1.5-1.5 3.49-2.32 5.61-2.32s4.11.82 5.61 2.32l13.18 13.18c3.09 3.09 3.09 8.12 0 11.21l-13.18 13.18a7.873 7.873 0 01-5.61 2.32v.01zm0-41.57c-1.95 0-3.78.76-5.16 2.14l-13.18 13.18a7.247 7.247 0 00-2.14 5.16c0 1.95.76 3.78 2.14 5.16l13.18 13.18a7.247 7.247 0 005.16 2.14c1.95 0 3.78-.76 5.16-2.14l13.18-13.18c2.84-2.84 2.84-7.47 0-10.32l-13.18-13.18a7.247 7.247 0 00-5.16-2.14z" fill="#FBD5A2"/><path d="M89.606 71.342l.14.02 1.34.19c.31.07.53.31.5.62-.24 3.71-.72 6.73-1.6 9.2-.07.24 0 .53.19.69.69.57 1.29 1.17 1.77 1.72.17.22.17.5.02.72l-1.25 1.65c-.29.38-.67.38-.98.02-.24-.31-.53-.62-.84-.93-.31-.34-.67-.29-.93.07a12.12 12.12 0 01-3.07 2.99c-.31.22-.65.12-.86-.19-.29-.48-.67-1.01-1.03-1.44-.34-.41-.29-.77.14-1.05 1.01-.69 1.84-1.58 2.56-2.68.14-.22.1-.43-.07-.6l-.05-.05-.07-.02-.05-.05c-.12-.07-.22-.02-.26.12-.05.17-.17.24-.34.14l-1.99-1.05a.574.574 0 01-.31-.67c.43-1.6.86-3.55 1.27-5.61.1-.43-.14-.72-.57-.72h-.26c-.36 0-.6-.24-.6-.6v-1.84c0-.36.24-.6.6-.6h1.05c.31 0 .53-.19.6-.5.19-1.15.36-2.28.53-3.35.05-.34.31-.55.65-.53l1.89.19c.36.05.57.34.53.69l-.5 2.78c-.1.43.14.72.57.72h.79l.38-.07h.1l.01.02zm-1.68 3.12h-.65c-.17 0-.31.12-.34.29-.26 1.37-.55 2.71-.86 3.98-.02.14.05.29.17.38.19.12.36.24.55.38.24.19.48.12.57-.17.43-1.37.72-2.85.91-4.46.02-.24-.12-.41-.36-.41l.01.01zm15.91 2.1v1.92c0 .36-.24.6-.6.6h-3.57c-.36 0-.6.24-.6.6v5.39c0 1.56-.31 2.42-1.27 2.95-.91.43-2.01.58-3.4.58-.31 0-.53-.19-.6-.48-.17-.55-.38-1.22-.62-1.82-.24-.58-.02-.91.6-.89.65 0 1.22.02 1.46 0h.05c.34 0 .46-.1.46-.38v-5.34c0-.36-.24-.6-.6-.6h-3.31c-.36 0-.6-.24-.6-.6v-1.92c0-.36.24-.6.6-.6h3.31c.36 0 .6-.24.6-.6v-1.37c0-.29.19-.48.5-.48h.22c.17 0 .31-.07.41-.19l.05-.05c.29-.36.6-.77.91-1.22.36-.55.14-.91-.5-.91h-4.72c-.36 0-.6-.24-.6-.6v-1.84c0-.36.24-.6.6-.6h7.81l.12-.02.31-.07c.17-.05.38 0 .53.1l1.46 1.13c.26.19.34.53.14.81-1.08 1.56-2.42 3.38-3.74 4.79-.1.1-.17.26-.17.41v.24c0 .29.19.48.48.48h3.69c.36 0 .6.24.6.6l-.01-.02z" fill="#fff"/><path d="M155.658 71.722c3.47 3.47 3.47 9.09 0 12.55l-15.36 15.36c-3.47 3.47-9.09 3.47-12.55 0l-15.36-15.36c-3.47-3.47-3.47-9.09 0-12.55l15.36-15.36c3.47-3.47 9.09-3.47 12.55 0l15.36 15.36z" fill="#CF2027"/><path d="M134.017 102.872c-2.54 0-4.93-.99-6.73-2.79l-15.36-15.36a9.433 9.433 0 01-2.79-6.72c0-2.54.99-4.93 2.79-6.73l15.36-15.36c1.8-1.8 4.19-2.79 6.73-2.79s4.93.99 6.72 2.79l15.36 15.36c3.71 3.71 3.71 9.74 0 13.45l-15.36 15.36a9.433 9.433 0 01-6.72 2.79zm0-48.48c-2.2 0-4.27.86-5.83 2.41l-15.36 15.36a8.183 8.183 0 00-2.41 5.83c0 2.2.86 4.27 2.41 5.83l15.36 15.36a8.184 8.184 0 005.83 2.41c2.2 0 4.27-.86 5.83-2.41l15.36-15.36c3.21-3.21 3.21-8.44 0-11.66l-15.36-15.36a8.183 8.183 0 00-5.83-2.41z" fill="#58393E"/><path d="M152.578 72.621c2.97 2.97 2.97 7.79 0 10.77l-13.18 13.18a7.61 7.61 0 01-10.76 0l-13.18-13.18c-2.97-2.97-2.97-7.79 0-10.77l13.18-13.18c2.97-2.97 7.79-2.97 10.77 0l13.18 13.18h-.01z" fill="#F25252"/><path d="M134.016 99.102c-2.12 0-4.11-.82-5.61-2.32l-13.18-13.18a7.873 7.873 0 01-2.32-5.61c0-2.12.83-4.11 2.32-5.61l13.18-13.18c1.5-1.5 3.49-2.32 5.61-2.32s4.11.82 5.61 2.32l13.18 13.18c3.09 3.09 3.09 8.12 0 11.21l-13.18 13.18a7.873 7.873 0 01-5.61 2.32v.01zm0-41.57c-1.95 0-3.78.76-5.16 2.14l-13.18 13.18a7.247 7.247 0 00-2.14 5.16c0 1.95.76 3.78 2.14 5.16l13.18 13.18a7.247 7.247 0 005.16 2.14c1.95 0 3.78-.76 5.16-2.14l13.18-13.18c2.84-2.84 2.84-7.47 0-10.32l-13.18-13.18a7.247 7.247 0 00-5.16-2.14z" fill="#FBD5A2"/><path d="M123.737 77.232c0-.36.24-.6.6-.6h.81c.36 0 .6.24.6.6v2.13c0 2.01-.1 4.34-.62 6.35-.17.58-.57.67-1.05.31-.19-.17-.41-.34-.6-.46h-.05a.701.701 0 01-.24-.72c.46-1.75.55-3.81.55-5.53v-2.08zm-.26-2.1v-1.65c0-.36.24-.6.6-.6h7.02c.36 0 .6.24.6.6v1.65c0 .36-.24.6-.6.6h-1.44c-.36 0-.6.24-.6.6v11.67c0 .36-.24.6-.6.6h-1.51c-.36 0-.6-.24-.6-.6v-11.67c0-.36-.24-.6-.6-.6h-1.68c-.36 0-.6-.24-.6-.6h.01zm7.8-6.16v1.61c0 .36-.24.6-.6.6h-6.08c-.36 0-.6-.24-.6-.6v-1.61c0-.36.24-.6.6-.6h6.08c.36 0 .6.24.6.6zm-1.6 15.55v-7.31c0-.36.24-.6.6-.6h.81c.36 0 .6.24.6.6v7.31c0 .36-.24.6-.6.6h-.81c-.36 0-.6-.24-.6-.6zm13.15 1.29h1.41c.36 0 .6.24.6.6v1.2c0 .36-.24.6-.6.6h-11.93c-.36 0-.6-.24-.6-.6v-1.2c0-.36.24-.6.6-.6h1.72c.48 0 .72-.31.55-.72v-.05c-.1-.17-.17-.38-.26-.57-.17-.34-.05-.62.34-.72.36-.1.34-.17-.02-.17h-.93c-.36 0-.6-.24-.6-.6v-3.31c0-.36.24-.6.6-.6h9.27c.36 0 .6.24.6.6v3.31c0 .36-.24.6-.6.6h-.77c-.41 0-.41.07 0 .17.38.1.53.41.34.74v.05c-.1.12-.17.26-.24.38-.29.53-.07.89.53.89h-.01zm1.68-9.1v1.22c0 .36-.24.6-.6.6h-11.12c-.36 0-.6-.24-.6-.6v-1.22c0-.36.24-.6.6-.6h11.12c.36 0 .6.24.6.6zm-.29-7.74v5.94c0 .36-.24.6-.6.6h-10.61c-.36 0-.6-.24-.6-.6v-5.94c0-.36.24-.6.6-.6h1.75c.36 0 .6-.24.6-.6v-.19c0-.36.24-.6.6-.6h1.2c.36 0 .6.24.6.6v.31c0 .29.19.48.48.48s.48-.19.48-.48v-.31c0-.36.24-.6.6-.6h1.2c.36 0 .6.24.6.6v.19c0 .36.24.6.6.6h1.92c.36 0 .6.24.6.6h-.02zm-9.22 1.7c0 .22.14.36.36.36h.14c.22 0 .36-.14.36-.36 0-.22-.14-.36-.36-.36h-.14c-.22 0-.36.14-.36.36zm0 2.52c0 .22.14.36.36.36h.17c.19 0 .34-.14.34-.36 0-.19-.14-.33-.34-.33h-.17c-.22 0-.36.14-.36.33zm.81 8.12v.05c0 .22.14.36.36.36h4.22c.22 0 .36-.14.36-.36v-.05c0-.22-.14-.36-.36-.36h-4.22c-.22 0-.36.14-.36.36zm3.6 2.27h-2.01c-.38 0-.5.22-.34.55.22.46.41.93.53 1.34.02.12-.05.24-.17.26-.14.05-.14.07 0 .07h1.82c.12 0 .12-.02 0-.05-.12-.02-.17-.12-.12-.24.19-.46.43-.98.6-1.49.12-.26-.02-.46-.31-.46v.02zm-1.32-12.55h.26c.22 0 .36-.14.36-.36 0-.22-.14-.36-.36-.36h-.26c-.22 0-.36.14-.36.36 0 .22.14.36.36.36zm.29 1.82h-.29c-.22 0-.36.14-.36.33 0 .22.14.36.36.36h.29c.19 0 .34-.14.34-.36 0-.19-.14-.33-.34-.33zm3.11-2.18c0-.22-.14-.36-.36-.36h-.19c-.22 0-.36.14-.36.36 0 .22.14.36.36.36h.19c.22 0 .36-.14.36-.36zm0 2.52c0-.19-.14-.33-.34-.33h-.22c-.22 0-.36.14-.36.33 0 .22.14.36.36.36h.22c.19 0 .34-.14.34-.36z" fill="#fff"/><path d="M196.638 71.722c3.47 3.47 3.47 9.09 0 12.55l-15.36 15.36c-3.47 3.47-9.09 3.47-12.55 0l-15.36-15.36c-3.47-3.47-3.47-9.09 0-12.55l15.36-15.36c3.47-3.47 9.09-3.47 12.55 0l15.36 15.36z" fill="#CF2027"/><path d="M174.997 102.872c-2.54 0-4.93-.99-6.73-2.79l-15.36-15.36a9.433 9.433 0 01-2.79-6.72c0-2.54.99-4.93 2.79-6.73l15.36-15.36c1.8-1.8 4.19-2.79 6.73-2.79s4.93.99 6.72 2.79l15.36 15.36c3.71 3.71 3.71 9.74 0 13.45l-15.36 15.36a9.433 9.433 0 01-6.72 2.79zm0-48.48c-2.2 0-4.27.86-5.83 2.41l-15.36 15.36a8.183 8.183 0 00-2.41 5.83c0 2.2.86 4.27 2.41 5.83l15.36 15.36a8.184 8.184 0 005.83 2.41c2.2 0 4.27-.86 5.83-2.41l15.36-15.36c3.21-3.21 3.21-8.44 0-11.66l-15.36-15.36a8.183 8.183 0 00-5.83-2.41z" fill="#58393E"/><path d="M193.558 72.621c2.97 2.97 2.97 7.79 0 10.77l-13.18 13.18a7.61 7.61 0 01-10.76 0l-13.18-13.18c-2.97-2.97-2.97-7.79 0-10.77l13.18-13.18c2.97-2.97 7.79-2.97 10.77 0l13.18 13.18h-.01z" fill="#F25252"/><path d="M174.997 99.102c-2.12 0-4.11-.82-5.61-2.32l-13.18-13.18a7.873 7.873 0 01-2.32-5.61c0-2.12.83-4.11 2.32-5.61l13.18-13.18c1.5-1.5 3.49-2.32 5.61-2.32s4.11.82 5.61 2.32l13.18 13.18c3.09 3.09 3.09 8.12 0 11.21l-13.18 13.18a7.873 7.873 0 01-5.61 2.32v.01zm0-41.57c-1.95 0-3.78.76-5.16 2.14l-13.18 13.18a7.247 7.247 0 00-2.14 5.16c0 1.95.76 3.78 2.14 5.16l13.18 13.18a7.247 7.247 0 005.16 2.14c1.95 0 3.78-.76 5.16-2.14l13.18-13.18c2.84-2.84 2.84-7.47 0-10.32l-13.18-13.18a7.247 7.247 0 00-5.16-2.14z" fill="#FBD5A2"/><path d="M184.628 76.302h-6.3c-.5 0-.72.31-.53.79 1.39 3.45 3.69 6.3 7.09 7.88.53.24.6.65.22 1.08-.53.6-1.08 1.34-1.49 1.96-.19.29-.48.38-.79.24-3.26-1.63-5.49-4.1-7.14-7.31-.38-.79-.81-.77-1.2.02-1.34 2.83-3.52 5.37-7.11 7.26-.31.17-.62.07-.81-.22-.36-.55-.89-1.15-1.41-1.68-.46-.41-.41-.81.14-1.1 4-2.08 5.94-5.01 6.88-8.19.12-.46-.12-.74-.57-.74h-6.18c-.36 0-.6-.24-.6-.6v-2.23c0-.36.24-.6.6-.6h6.95c.34 0 .57-.22.57-.55.1-1.63.1-3.21.12-4.74 0-.36.24-.6.6-.6h2.44c.36 0 .6.24.6.6-.02 1.51-.05 3.07-.17 4.65-.02.38.22.65.6.65h7.5c.36 0 .6.24.6.6v2.23c0 .36-.24.6-.6.6h-.01z" fill="#fff"/><path d="M237.619 71.722c3.47 3.47 3.47 9.09 0 12.55l-15.36 15.36c-3.47 3.47-9.09 3.47-12.55 0l-15.36-15.36c-3.47-3.47-3.47-9.09 0-12.55l15.36-15.36c3.47-3.47 9.09-3.47 12.55 0l15.36 15.36z" fill="#CF2027"/><path d="M215.978 102.872c-2.54 0-4.93-.99-6.73-2.79l-15.36-15.36a9.433 9.433 0 01-2.79-6.72c0-2.54.99-4.93 2.79-6.73l15.36-15.36c1.8-1.8 4.19-2.79 6.73-2.79s4.93.99 6.72 2.79l15.36 15.36c3.71 3.71 3.71 9.74 0 13.45l-15.36 15.36a9.433 9.433 0 01-6.72 2.79zm0-48.48c-2.2 0-4.27.86-5.83 2.41l-15.36 15.36a8.183 8.183 0 00-2.41 5.83c0 2.2.86 4.27 2.41 5.83l15.36 15.36a8.184 8.184 0 005.83 2.41c2.2 0 4.27-.86 5.83-2.41l15.36-15.36c3.21-3.21 3.21-8.44 0-11.66l-15.36-15.36a8.183 8.183 0 00-5.83-2.41z" fill="#58393E"/><path d="M234.539 72.621c2.97 2.97 2.97 7.79 0 10.77l-13.18 13.18a7.61 7.61 0 01-10.76 0l-13.18-13.18c-2.97-2.97-2.97-7.79 0-10.77l13.18-13.18c2.97-2.97 7.79-2.97 10.77 0l13.18 13.18h-.01z" fill="#F25252"/><path d="M215.977 99.102c-2.12 0-4.11-.82-5.61-2.32l-13.18-13.18a7.873 7.873 0 01-2.32-5.61c0-2.12.83-4.11 2.32-5.61l13.18-13.18c1.5-1.5 3.49-2.32 5.61-2.32s4.11.82 5.61 2.32l13.18 13.18c3.09 3.09 3.09 8.12 0 11.21l-13.18 13.18a7.873 7.873 0 01-5.61 2.32v.01zm0-41.57c-1.95 0-3.78.76-5.16 2.14l-13.18 13.18a7.247 7.247 0 00-2.14 5.16c0 1.95.76 3.78 2.14 5.16l13.18 13.18a7.247 7.247 0 005.16 2.14c1.95 0 3.78-.76 5.16-2.14l13.18-13.18c2.84-2.84 2.84-7.47 0-10.32l-13.18-13.18a7.247 7.247 0 00-5.16-2.14z" fill="#FBD5A2"/><path d="M225.726 83.612h-2.78c-1.56 0-1.65.48-.22 1.01 1.01.36 2.04.67 3.07.93.65.14.77.55.34 1.08-.36.46-.74.98-1.03 1.44a.61.61 0 01-.69.26c-2.01-.62-4.07-1.53-5.87-2.66-.6-.34-.96-.14-.96.53v1.77c0 .36-.24.6-.6.6h-2.11c-.36 0-.6-.24-.6-.6v-1.65c0-.67-.36-.86-.96-.53-1.84 1.1-3.98 2.01-6.04 2.59a.58.58 0 01-.67-.26c-.31-.46-.72-1.01-1.13-1.49-.41-.53-.29-.91.36-1.08 1.13-.24 2.28-.58 3.38-.96 1.49-.5 1.39-.98-.22-.98h-2.78c-.36 0-.6-.24-.6-.6v-1.39c0-.36.24-.6.6-.6h7.74c.19 0 .31-.12.31-.34 0-.19-.12-.31-.31-.31h-5.22c-.36 0-.6-.24-.6-.6v-4.82c0-.34-.17-.41-.43-.19-.26.22-.55.17-.77-.07-.36-.43-.84-.89-1.27-1.27-.41-.36-.41-.74.02-1.08 2.01-1.53 3.55-3.35 4.5-5.03.14-.22.38-.36.65-.29l2.16.41c.48.1.65.46.38.89l-.1.14c-.34.53-.17.86.46.86h1.15c.22 0 .43-.14.53-.34v-.05c.24-.5.43-1.01.6-1.49.12-.29.36-.46.67-.43l2.32.29c.53.05.72.41.46.86l-.12.22c-.34.57-.14.93.53.93h4.72c.36 0 .6.24.6.6v1.32c0 .36-.24.6-.6.6h-6.11c-.19 0-.31.12-.31.31s.12.31.31.31h4.86c.36 0 .6.24.6.6v.89c0 .36-.24.6-.6.6h-4.84c-.22 0-.34.12-.34.31 0 .22.12.34.34.34h4.84c.36 0 .6.24.6.6v.89c0 .36-.24.6-.6.6h-4.84c-.22 0-.34.12-.34.31 0 .22.12.34.34.34h6.61c.36 0 .6.24.6.6v1.25c0 .36-.24.6-.6.6h-7.21c-.22 0-.34.12-.34.31 0 .22.12.34.34.34h7.81c.36 0 .6.24.6.6v1.39c0 .36-.24.6-.6.6l.01-.01zm-10.71-11.45c0-.19-.12-.31-.31-.31h-3.14c-.19 0-.31.12-.31.31s.12.31.31.31h3.14c.19 0 .31-.12.31-.31zm0 2.7c0-.19-.12-.31-.31-.31h-3.11c-.22 0-.34.12-.34.31 0 .22.12.34.34.34h3.11c.19 0 .31-.12.31-.34zm-3.76 2.73c0 .22.12.34.34.34h3.11c.19 0 .31-.12.31-.34 0-.19-.12-.31-.31-.31h-3.11c-.22 0-.34.12-.34.31z" fill="#fff"/><path d="M278.607 71.722c3.47 3.47 3.47 9.09 0 12.55l-15.36 15.36c-3.47 3.47-9.09 3.47-12.55 0l-15.36-15.36c-3.47-3.47-3.47-9.09 0-12.55l15.36-15.36c3.47-3.47 9.09-3.47 12.55 0l15.36 15.36z" fill="#CF2027"/><path d="M256.966 102.872c-2.54 0-4.93-.99-6.73-2.79l-15.36-15.36a9.433 9.433 0 01-2.79-6.72c0-2.54.99-4.93 2.79-6.73l15.36-15.36c1.8-1.8 4.19-2.79 6.73-2.79s4.93.99 6.72 2.79l15.36 15.36c3.71 3.71 3.71 9.74 0 13.45l-15.36 15.36a9.433 9.433 0 01-6.72 2.79zm0-48.48c-2.2 0-4.27.86-5.83 2.41l-15.36 15.36a8.183 8.183 0 00-2.41 5.83c0 2.2.86 4.27 2.41 5.83l15.36 15.36a8.184 8.184 0 005.83 2.41c2.2 0 4.27-.86 5.83-2.41l15.36-15.36c3.21-3.21 3.21-8.44 0-11.66l-15.36-15.36a8.183 8.183 0 00-5.83-2.41z" fill="#58393E"/><path d="M275.515 72.621c2.97 2.97 2.97 7.79 0 10.77l-13.18 13.18a7.61 7.61 0 01-10.76 0l-13.18-13.18c-2.97-2.97-2.97-7.79 0-10.77l13.18-13.18c2.97-2.97 7.79-2.97 10.77 0l13.18 13.18h-.01z" fill="#F25252"/><path d="M256.965 99.102c-2.12 0-4.11-.82-5.61-2.32l-13.18-13.18a7.873 7.873 0 01-2.32-5.61c0-2.12.83-4.11 2.32-5.61l13.18-13.18c1.5-1.5 3.49-2.32 5.61-2.32s4.11.82 5.61 2.32l13.18 13.18c3.09 3.09 3.09 8.12 0 11.21l-13.18 13.18a7.873 7.873 0 01-5.61 2.32v.01zm-.01-41.57c-1.95 0-3.78.76-5.16 2.14l-13.18 13.18a7.247 7.247 0 00-2.14 5.16c0 1.95.76 3.78 2.14 5.16l13.18 13.18a7.247 7.247 0 005.16 2.14c1.95 0 3.78-.76 5.16-2.14l13.18-13.18c2.84-2.84 2.84-7.47 0-10.32l-13.18-13.18a7.247 7.247 0 00-5.16-2.14z" fill="#FBD5A2"/><path d="M255.327 67.002h2.83c.19 0 .38.1.5.26 2.25 3.14 5.34 5.63 8.6 7.07.5.24.6.62.24 1.05-.46.55-.89 1.17-1.27 1.77-.17.31-.5.41-.77.22h-.05c-.69-.38-1.41-.81-2.11-1.29-.38-.24-.62-.12-.62.34v.14c0 .36-.24.6-.6.6h-10.18c-.36 0-.6-.24-.6-.6v-.22c0-.48-.26-.6-.65-.34-.72.48-1.46.93-2.2 1.37-.29.17-.62.07-.81-.24-.31-.48-.77-1.05-1.17-1.56-.36-.38-.29-.77.17-1.01 3.47-1.84 6.59-4.82 8.19-7.28.1-.17.31-.29.5-.29v.01zm-5.68 21.04v-8.34c0-.36.24-.6.6-.6h13.63c.36 0 .6.24.6.6v8.34c0 .36-.24.6-.6.6h-2.4c-.24 0-.41-.17-.41-.38 0-.24-.17-.41-.38-.41h-7.38c-.24 0-.41.17-.41.41 0 .22-.17.38-.38.38h-2.28c-.36 0-.6-.24-.6-.6h.01zm11.07-6.04h-7.45c-.22 0-.36.14-.36.36v2.23c0 .22.14.36.36.36h7.45c.22 0 .36-.14.36-.36v-2.23c0-.22-.14-.36-.36-.36zm-6.75-7.71h5.87c.6 0 .69-.26.24-.65-1.13-.98-2.13-2.01-2.9-2.99-.19-.24-.43-.24-.6 0-.77.98-1.73 2.01-2.85 2.99-.43.41-.34.65.24.65z" fill="#fff"/><path d="M135.165 19.532c3.47 3.47 3.47 9.09 0 12.55l-15.36 15.36c-3.47 3.47-9.09 3.47-12.55 0l-15.36-15.36c-3.47-3.47-3.47-9.09 0-12.55l15.36-15.36c3.47-3.47 9.09-3.47 12.55 0l15.36 15.36z" fill="#CF2027"/><path d="M113.525 50.682c-2.54 0-4.93-.99-6.73-2.79l-15.36-15.36a9.433 9.433 0 01-2.79-6.72c0-2.54.99-4.93 2.79-6.73l15.36-15.36c1.8-1.8 4.19-2.79 6.73-2.79s4.93.99 6.72 2.79l15.36 15.36c3.71 3.71 3.71 9.74 0 13.45l-15.36 15.36a9.433 9.433 0 01-6.72 2.79zm0-48.48c-2.2 0-4.27.86-5.83 2.41l-15.36 15.36a8.183 8.183 0 00-2.41 5.83c0 2.2.86 4.27 2.41 5.83l15.36 15.36a8.183 8.183 0 005.83 2.41c2.2 0 4.27-.86 5.83-2.41l15.36-15.36c3.21-3.21 3.21-8.44 0-11.66l-15.36-15.36a8.183 8.183 0 00-5.83-2.41z" fill="#58393E"/><path d="M132.086 20.43c2.97 2.97 2.97 7.79 0 10.77l-13.18 13.18a7.61 7.61 0 01-10.76 0L94.966 31.2c-2.97-2.97-2.97-7.79 0-10.77l13.18-13.18c2.97-2.97 7.79-2.97 10.77 0l13.18 13.18h-.01z" fill="#F25252"/><path d="M113.524 46.911c-2.12 0-4.11-.82-5.61-2.32l-13.18-13.18a7.873 7.873 0 01-2.32-5.61c0-2.12.83-4.11 2.32-5.61l13.18-13.18c1.5-1.5 3.49-2.32 5.61-2.32s4.11.82 5.61 2.32l13.18 13.18c3.09 3.09 3.09 8.12 0 11.21l-13.18 13.18a7.873 7.873 0 01-5.61 2.32v.01zm0-41.57c-1.95 0-3.78.76-5.16 2.14l-13.18 13.18a7.247 7.247 0 00-2.14 5.16c0 1.95.76 3.78 2.14 5.16l13.18 13.18a7.247 7.247 0 005.16 2.14c1.95 0 3.78-.76 5.16-2.14l13.18-13.18c2.84-2.84 2.84-7.47 0-10.32l-13.18-13.18a7.247 7.247 0 00-5.16-2.14z" fill="#FBD5A2"/><path d="M109.083 19.991l1.99.74c.41.17.53.5.31.86-.57.91-1.2 1.82-1.89 2.68-.07.1-.12.24-.12.38v11.14c0 .36-.24.6-.6.6h-2.13c-.36 0-.6-.24-.6-.6v-6.66c0-.58-.29-.69-.67-.31l-.05.05-.22.17c-.29.26-.65.22-.89-.12-.38-.55-.93-1.25-1.39-1.8-.26-.33-.22-.69.1-.93 1.99-1.53 4.05-3.74 5.41-5.97.17-.26.46-.36.74-.24l.01.01zm-.86-5.01l2.01.81c.43.19.53.55.24.93-1.58 1.89-3.59 3.83-5.51 5.22-.31.24-.65.14-.86-.19-.31-.5-.69-1.1-1.05-1.6-.24-.34-.19-.69.14-.93 1.58-1.1 3.28-2.71 4.29-4.05.17-.22.46-.31.74-.19zm15.88 7.98v1.94c0 .36-.24.6-.6.6h-1.8c-.36 0-.6.24-.6.6v6.59c0 1.7-.29 2.61-1.44 3.11-.98.46-2.32.53-4 .53-.34 0-.57-.22-.62-.53-.12-.6-.31-1.29-.53-1.92-.19-.57.05-.91.65-.89.86.02 1.72.02 2.01.02.41 0 .55-.1.55-.41v-6.52c0-.36-.24-.6-.6-.6h-5.05c-.36 0-.6-.24-.6-.6v-1.94c0-.36.24-.6.6-.6h11.43c.36 0 .6.24.6.6v.02zm-.57-6.32v1.94c0 .36-.24.6-.6.6h-9.89c-.36 0-.6-.24-.6-.6v-1.94c0-.36.24-.6.6-.6h9.89c.36 0 .6.24.6.6z" fill="#fff"/><path d="M176.146 19.532c3.47 3.47 3.47 9.09 0 12.55l-15.36 15.36c-3.47 3.47-9.09 3.47-12.55 0l-15.36-15.36c-3.47-3.47-3.47-9.09 0-12.55l15.36-15.36c3.47-3.47 9.09-3.47 12.55 0l15.36 15.36z" fill="#CF2027"/><path d="M154.505 50.682c-2.54 0-4.93-.99-6.73-2.79l-15.36-15.36a9.433 9.433 0 01-2.79-6.72c0-2.54.99-4.93 2.79-6.73l15.36-15.36c1.8-1.8 4.19-2.79 6.73-2.79s4.93.99 6.72 2.79l15.36 15.36c3.71 3.71 3.71 9.74 0 13.45l-15.36 15.36a9.433 9.433 0 01-6.72 2.79zm0-48.48c-2.2 0-4.27.86-5.83 2.41l-15.36 15.36a8.183 8.183 0 00-2.41 5.83c0 2.2.86 4.27 2.41 5.83l15.36 15.36a8.183 8.183 0 005.83 2.41c2.2 0 4.27-.86 5.83-2.41l15.36-15.36c3.21-3.21 3.21-8.44 0-11.66l-15.36-15.36a8.183 8.183 0 00-5.83-2.41z" fill="#58393E"/><path d="M173.066 20.43c2.97 2.97 2.97 7.79 0 10.77l-13.18 13.18a7.61 7.61 0 01-10.76 0l-13.18-13.18c-2.97-2.97-2.97-7.79 0-10.77l13.18-13.18c2.97-2.97 7.79-2.97 10.77 0l13.18 13.18h-.01z" fill="#F25252"/><path d="M154.505 46.911c-2.12 0-4.11-.82-5.61-2.32l-13.18-13.18a7.873 7.873 0 01-2.32-5.61c0-2.12.83-4.11 2.32-5.61l13.18-13.18c1.5-1.5 3.49-2.32 5.61-2.32s4.11.82 5.61 2.32l13.18 13.18c3.09 3.09 3.09 8.12 0 11.21l-13.18 13.18a7.873 7.873 0 01-5.61 2.32v.01zm0-41.57c-1.95 0-3.78.76-5.16 2.14l-13.18 13.18a7.247 7.247 0 00-2.14 5.16c0 1.95.76 3.78 2.14 5.16l13.18 13.18a7.247 7.247 0 005.16 2.14c1.95 0 3.78-.76 5.16-2.14l13.18-13.18c2.84-2.84 2.84-7.47 0-10.32l-13.18-13.18a7.247 7.247 0 00-5.16-2.14z" fill="#FBD5A2"/><path d="M160.924 19.852h3.28c.38 0 .62.24.6.62v.79c-.17 9.2-.34 12.62-1.05 13.68-.57.89-1.15 1.15-1.94 1.34-.6.12-1.44.14-2.32.12-.34 0-.58-.22-.62-.53-.07-.53-.24-1.1-.43-1.65-.22-.6-.02-.91.62-.89.43.02.81.02 1.08.02.34 0 .53-.1.77-.41.41-.58.62-3.09.72-9.49 0-.36-.24-.6-.6-.6h-.22c-.34 0-.57.24-.6.58-.34 5.56-1.32 9.77-4.5 12.72-.31.29-.67.22-.91-.12-.26-.34-.57-.69-.89-1.03a.61.61 0 00-.48-.17c-3.14.31-6.3.57-8.82.81-.34.02-.6-.19-.65-.53l-.19-1.51c-.07-.38.17-.67.55-.69.98-.05 2.11-.12 3.33-.22.29 0 .48-.22.48-.5s-.19-.48-.48-.48h-2.76c-.36 0-.6-.24-.6-.6v-1.1c0-.36.24-.6.6-.6h2.95c.17 0 .29-.12.29-.31 0-.17-.12-.29-.29-.29h-2.85c-.36 0-.6-.24-.6-.6v-6.04c0-.36.24-.6.6-.6h2.85c.17 0 .29-.12.29-.29 0-.17-.12-.29-.29-.29h-3.4c-.36 0-.6-.24-.6-.6v-1.15c0-.36.24-.6.6-.6h3.43c.14 0 .26-.12.26-.29 0-.14-.12-.26-.24-.24h-.05c-.96.05-1.89.07-2.8.1-.31.02-.55-.19-.62-.5a8.24 8.24 0 00-.29-.98c-.17-.5.05-.84.57-.86 2.97-.17 6.2-.5 8.53-.96.26-.05.53.07.65.31l.77 1.32c.24.43.1.79-.38.89-.89.14-1.8.26-2.78.38-.22.02-.38.22-.38.43 0 .24.17.41.41.41h3.11c.36 0 .6.24.6.6v1.15c0 .36-.24.6-.6.6h-3.23c-.17 0-.29.12-.29.29 0 .17.12.29.29.29h2.95c.36 0 .6.24.6.6v6.04c0 .36-.24.6-.6.6h-2.92c-.19 0-.31.12-.31.29 0 .19.12.31.31.31h3.07c.36 0 .6.24.6.6v.55c0 .69.26.77.55.14.93-1.96 1.32-4.36 1.46-7.23.02-.38-.22-.62-.6-.62h-.57c-.36 0-.6-.24-.6-.6v-1.82c0-.36.24-.6.6-.6h.67c.36 0 .6-.24.6-.6v-3.43c0-.36.24-.6.6-.6h1.96c.36 0 .6.24.6.6 0 1.17 0 2.32-.02 3.43 0 .36.24.6.6.6l-.03.01zm-13.92 4.07c0 .22.14.36.36.36h.43c.19 0 .34-.14.34-.36 0-.19-.14-.34-.34-.34h-.43c-.22 0-.36.14-.36.34zm.33 2.9h.46c.19 0 .34-.14.34-.34s-.14-.34-.34-.34h-.46c-.19 0-.34.14-.34.34s.14.34.34.34zm4.56-3.24h-.43c-.22 0-.36.14-.36.34 0 .22.14.36.36.36h.43c.19 0 .34-.14.34-.36 0-.19-.14-.34-.34-.34zm.33 2.9c0-.19-.14-.34-.34-.34h-.46c-.19 0-.34.14-.34.34s.14.34.34.34h.46c.19 0 .34-.14.34-.34zm-1.13 5.61v.02c0 .24.14.36.38.36 1.03-.1 2.06-.17 3.09-.24.1-.02.22-.07.26-.17l.07-.1c.1-.14.05-.24-.12-.24h-3.33c-.22 0-.36.14-.36.36l.01.01z" fill="#fff"/><path d="M217.126 19.532c3.47 3.47 3.47 9.09 0 12.55l-15.36 15.36c-3.47 3.47-9.09 3.47-12.55 0l-15.36-15.36c-3.47-3.47-3.47-9.09 0-12.55l15.36-15.36c3.47-3.47 9.09-3.47 12.55 0l15.36 15.36z" fill="#CF2027"/><path d="M195.485 50.682c-2.54 0-4.93-.99-6.73-2.79l-15.36-15.36a9.433 9.433 0 01-2.79-6.72c0-2.54.99-4.93 2.79-6.73l15.36-15.36c1.8-1.8 4.19-2.79 6.73-2.79s4.93.99 6.72 2.79l15.36 15.36c3.71 3.71 3.71 9.74 0 13.45l-15.36 15.36a9.433 9.433 0 01-6.72 2.79zm0-48.48c-2.2 0-4.27.86-5.83 2.41l-15.36 15.36a8.183 8.183 0 00-2.41 5.83c0 2.2.86 4.27 2.41 5.83l15.36 15.36a8.183 8.183 0 005.83 2.41c2.2 0 4.27-.86 5.83-2.41l15.36-15.36c3.21-3.21 3.21-8.44 0-11.66l-15.36-15.36a8.183 8.183 0 00-5.83-2.41z" fill="#58393E"/><path d="M214.047 20.43c2.97 2.97 2.97 7.79 0 10.77l-13.18 13.18a7.61 7.61 0 01-10.76 0l-13.18-13.18c-2.97-2.97-2.97-7.79 0-10.77l13.18-13.18c2.97-2.97 7.79-2.97 10.77 0l13.18 13.18h-.01z" fill="#F25252"/><path d="M195.485 46.911c-2.12 0-4.11-.82-5.61-2.32l-13.18-13.18a7.873 7.873 0 01-2.32-5.61c0-2.12.83-4.11 2.32-5.61l13.18-13.18c1.5-1.5 3.49-2.32 5.61-2.32s4.11.82 5.61 2.32l13.18 13.18c3.09 3.09 3.09 8.12 0 11.21l-13.18 13.18a7.873 7.873 0 01-5.61 2.32v.01zm0-41.57c-1.95 0-3.78.76-5.16 2.14l-13.18 13.18a7.247 7.247 0 00-2.14 5.16c0 1.95.76 3.78 2.14 5.16l13.18 13.18a7.247 7.247 0 005.16 2.14c1.95 0 3.78-.76 5.16-2.14l13.18-13.18c2.84-2.84 2.84-7.47 0-10.32l-13.18-13.18a7.247 7.247 0 00-5.16-2.14z" fill="#FBD5A2"/><path d="M201.566 22.962l1.72.96c.26.14.36.43.26.72-.98 2.49-2.37 4.53-4.12 6.16-.43.41-.38.81.19 1.03 1.63.55 3.47.96 5.53 1.22.72.1.89.5.46 1.08-.43.62-.86 1.34-1.17 1.94-.12.22-.36.36-.62.31-3.26-.48-5.97-1.32-8.22-2.56-.17-.1-.41-.1-.57-.02-2.42 1.22-5.15 2.01-8.12 2.52-.31.07-.57-.1-.69-.38-.24-.55-.6-1.25-.96-1.82-.36-.58-.19-.96.46-1.05 2.08-.29 4-.72 5.73-1.29.53-.19.6-.6.22-1.01-.86-.91-1.65-1.96-2.35-3.11-.22-.36-.1-.72.34-.86l.53-.17c.72-.24.69-.41-.07-.41h-2.75c-.36 0-.6-.24-.6-.6v-2.04c0-.36.24-.6.6-.6h5.73c.36 0 .6-.24.6-.6v-.96c0-.36-.24-.6-.6-.6h-6.88c-.36 0-.6-.24-.6-.6v-2.08c0-.36.24-.6.6-.6h6.88c.36 0 .6-.24.6-.6v-1.53c0-.36.24-.6.6-.6h2.25c.36 0 .6.24.6.6v1.53c0 .36.24.6.6.6h6.97c.36 0 .6.24.6.6v2.08c0 .36-.24.6-.6.6h-6.97c-.36 0-.6.24-.6.6v.96c0 .36.24.6.6.6h3.04l.12-.02.29-.05c.12-.02.29 0 .41.07l-.04-.02zm-3.26 3.23h-5.46c-.38 0-.5.22-.29.53.72 1.1 1.65 2.06 2.78 2.88.12.1.26.1.41 0 1.1-.79 2.08-1.75 2.85-2.88.22-.31.07-.53-.29-.53z" fill="#fff"/><path d="M258.107 19.532c3.47 3.47 3.47 9.09 0 12.55l-15.36 15.36c-3.47 3.47-9.09 3.47-12.55 0l-15.36-15.36c-3.47-3.47-3.47-9.09 0-12.55l15.36-15.36c3.47-3.47 9.09-3.47 12.55 0l15.36 15.36z" fill="#CF2027"/><path d="M236.466 50.682c-2.54 0-4.93-.99-6.73-2.79l-15.36-15.36a9.433 9.433 0 01-2.79-6.72c0-2.54.99-4.93 2.79-6.73l15.36-15.36c1.8-1.8 4.19-2.79 6.73-2.79s4.93.99 6.72 2.79l15.36 15.36c3.71 3.71 3.71 9.74 0 13.45l-15.36 15.36a9.433 9.433 0 01-6.72 2.79zm0-48.48c-2.2 0-4.27.86-5.83 2.41l-15.36 15.36a8.183 8.183 0 00-2.41 5.83c0 2.2.86 4.27 2.41 5.83l15.36 15.36a8.183 8.183 0 005.83 2.41c2.2 0 4.27-.86 5.83-2.41l15.36-15.36c3.21-3.21 3.21-8.44 0-11.66l-15.36-15.36a8.183 8.183 0 00-5.83-2.41z" fill="#58393E"/><path d="M255.027 20.43c2.97 2.97 2.97 7.79 0 10.77l-13.18 13.18a7.61 7.61 0 01-10.76 0l-13.18-13.18c-2.97-2.97-2.97-7.79 0-10.77l13.18-13.18c2.97-2.97 7.79-2.97 10.77 0l13.18 13.18h-.01z" fill="#F25252"/><path d="M236.465 46.911c-2.12 0-4.11-.82-5.61-2.32l-13.18-13.18a7.873 7.873 0 01-2.32-5.61c0-2.12.83-4.11 2.32-5.61l13.18-13.18c1.5-1.5 3.49-2.32 5.61-2.32s4.11.82 5.61 2.32l13.18 13.18c3.09 3.09 3.09 8.12 0 11.21l-13.18 13.18a7.873 7.873 0 01-5.61 2.32v.01zm0-41.57c-1.95 0-3.78.76-5.16 2.14l-13.18 13.18a7.247 7.247 0 00-2.14 5.16c0 1.95.76 3.78 2.14 5.16l13.18 13.18a7.247 7.247 0 005.16 2.14c1.95 0 3.78-.76 5.16-2.14l13.18-13.18c2.84-2.84 2.84-7.47 0-10.32l-13.18-13.18a7.247 7.247 0 00-5.16-2.14z" fill="#FBD5A2"/><path d="M231.335 15.051l2.11.69c.36.12.5.43.38.77a38.12 38.12 0 01-1.72 3.67c-.02.02-.02.07-.02.1l-.07.19v15.28c0 .36-.24.6-.6.6h-2.18c-.36 0-.6-.24-.6-.6v-9.34c0-.55-.22-.62-.57-.22s-.77.31-1.01-.17c-.34-.72-.84-1.61-1.25-2.25a.62.62 0 01.07-.79c1.84-1.92 3.59-4.7 4.7-7.55.14-.34.43-.48.77-.38h-.01zm15.96 5.18v2.16c0 .36-.24.6-.6.6h-1.13c-.36 0-.6.24-.6.6v8.98c0 1.96-.43 2.83-1.65 3.31-1.15.48-2.83.58-5.13.55-.29 0-.53-.19-.6-.5a11.6 11.6 0 00-.65-1.8c-.26-.6-.05-.96.6-.93 1.39.05 2.76.05 3.21.02.55 0 .79-.17.79-.67v-8.96c0-.36-.24-.6-.6-.6h-7.21c-.36 0-.6-.24-.6-.6v-2.16c0-.36.24-.6.6-.6h7.21c.36 0 .6-.24.6-.6v-3.4c0-.36.24-.6.6-.6h2.23c.36 0 .6.24.6.6v3.4c0 .36.24.6.6.6h1.13c.36 0 .6.24.6.6zm-7.98 9.37l-2.04 1.03c-.36.17-.69.05-.86-.34-.53-1.2-1.41-2.8-2.16-4.19-.19-.34-.07-.67.26-.81l1.84-.86c.31-.14.62-.05.79.24.79 1.32 1.8 2.95 2.42 4.14.17.31.05.62-.26.79h.01z" fill="#fff"/></svg>