<svg width="350" height="89" viewBox="0 0 350 89" fill="none" xmlns="http://www.w3.org/2000/svg"><mask id="mask0_1278_9287" style="mask-type:luminance" maskUnits="userSpaceOnUse" x="10" y="0" width="330" height="89"><path d="M340 .31H10v88.2h330V.31z" fill="#fff"/></mask><g mask="url(#mask0_1278_9287)"><path d="M58.632 79.288l.193.02s.064 0 .084.02l1.234.455c.258.11.411.367.327.65-.456 1.49-1.08 2.75-1.863 3.83-.218.302-.154.629.174.802.54.283 1.169.54 1.793.734.585.173.694.54.327 1.015-.302.367-.604.803-.842 1.17-.129.237-.392.347-.63.257a10.692 10.692 0 01-2.834-1.343.626.626 0 00-.669 0c-.733.54-1.536.952-2.378 1.343-.282.13-.565 0-.713-.257l-.431-.714c-.328-.456-.565-.367-.565.193v.392c0 .327-.218.54-.54.54h-1.774c-.327 0-.54-.218-.54-.54v-.347c0-.347-.238-.56-.585-.54-1.838.129-3.677.257-5.213.391-.322.02-.565-.173-.584-.495l-.11-1.452c-.02-.347.174-.565.52-.585.194-.02.412-.02.63-.044h.045c.282 0 .475-.218.475-.52v-4.847a.512.512 0 00-.54-.54h-.43a.512.512 0 01-.54-.54v-1.253c0-.327.217-.54.54-.54h17.44c.328 0 .54.218.54.54v1.253c0 .327-.217.54-.54.54H52.39a.512.512 0 00-.54.54v5.823c0 .455.282.668.713.475.411-.193.823-.411 1.19-.649.301-.193.326-.495.128-.778-.391-.52-.714-1.08-1.04-1.665-.174-.347-.02-.649.346-.758l.174-.044c.456-.13.456-.218-.045-.218h-.565c-.327 0-.54-.218-.54-.54v-1.17c0-.327.218-.54.54-.54h5.54l.258-.064h.084zm.109-9.217v5.411c0 .322-.218.54-.54.54H45.586c-.328 0-.54-.218-.54-.54v-5.41c0-.328.217-.54.54-.54H58.2c.327 0 .54.217.54.54zm-9.994 8.805H47.12c-.153 0-.257.11-.257.238 0 .154.109.258.258.258h1.625c.129 0 .238-.11.238-.258a.241.241 0 00-.238-.238zm-1.883 2.795c0 .173.109.282.282.282h1.556c.174 0 .283-.109.283-.282s-.11-.283-.283-.283h-1.556c-.173 0-.282.11-.282.283zm.322 2.918l1.536-.064c.154-.02.258-.129.258-.302a.247.247 0 00-.258-.258h-1.536c-.193 0-.322.129-.322.327s.129.327.322.302v-.004zm8.572-12.937c0-.153-.084-.238-.238-.238h-7.378c-.153 0-.238.085-.238.238 0 .154.085.238.238.238h7.378c.154 0 .238-.084.238-.238zm0 2.25a.247.247 0 00-.258-.258h-7.333a.247.247 0 00-.258.258.25.25 0 00.258.257H55.5a.247.247 0 00.258-.257zm.733 7.705h-.887c-.327 0-.43.193-.257.475.153.218.302.431.475.65.154.193.367.173.496 0 .154-.219.302-.432.431-.65.173-.282.064-.475-.258-.475zm17.923-11.17h6.58c.327 0 .54.218.54.54v1.452c0 .327-.218.54-.54.54H63.919c-.327 0-.54-.218-.54-.54v-1.451c0-.328.218-.54.54-.54h6.318c.322 0 .54-.219.54-.54v-.521c0-.327.218-.54.54-.54h2.012c.327 0 .54.218.54.54v.52c0 .327.218.54.54.54h.005zm6.53 8.984v5.97c0 1.279-.238 2.076-1.105 2.513-.758.391-1.69.455-2.814.475-.283 0-.496-.193-.565-.456l-.173-.713v-.045c-.11-.193-.283-.347-.52-.347H71.48c-.282 0-.456.174-.456.456 0 .258-.173.431-.43.431h-1.581a.512.512 0 01-.54-.54v-4.563c0-.327.218-.54.54-.54h6.818c.327 0 .54.218.54.54v2.487c0 .302.218.52.52.54.258 0 .52 0 .669-.02h.045c.218 0 .346-.064.346-.282v-3.463c0-.328-.218-.54-.54-.54h-9.825a.512.512 0 00-.54.54v6.015c0 .327-.218.54-.54.54h-1.839a.512.512 0 01-.54-.54v-8.463c0-.322.218-.54.54-.54H80.4c.327 0 .54.218.54.54l.005.005zm-2.79-5.327v3.637c0 .327-.217.54-.54.54h-10.34c-.328 0-.54-.218-.54-.54v-3.637c0-.327.217-.54.54-.54h10.34c.323 0 .54.218.54.54zm-3.007 1.908v-.174c0-.193-.129-.327-.327-.327h-4.935c-.194 0-.327.13-.327.327v.174c0 .193.129.327.327.327h4.935c.193 0 .327-.129.327-.327zm-1.363 8.547v-.218c0-.193-.129-.327-.322-.327h-2.1c-.194 0-.323.129-.323.327v.218c0 .193.13.327.322.327h2.101c.194 0 .322-.129.322-.327zm14.846-7.184v5.778c0 .084.02.193.085.282.758 1.19 2.12 1.645 4.088 1.73 2.25.108 6.273.064 9.216-.154.565-.02.778.282.585.802a16.1 16.1 0 00-.52 1.755.573.573 0 01-.521.43c-2.596.13-6.407.174-8.83.045-2.23-.109-3.765-.52-5.063-1.793-.238-.238-.54-.258-.778-.045-.585.495-1.17 1.016-1.863 1.58-.322.258-.65.174-.823-.193l-.951-2.056c-.13-.282-.045-.565.218-.694.649-.391 1.343-.802 2.011-1.278a.53.53 0 00.219-.431v-2.988c0-.327-.219-.54-.54-.54h-1.041c-.327 0-.54-.218-.54-.54v-1.69c0-.327.218-.54.54-.54h3.959c.327 0 .54.218.54.54h.01zm.07-4.633l-1.516 1.254c-.282.238-.605.173-.822-.11-.585-.732-1.492-1.6-2.34-2.313-.302-.258-.302-.605.02-.867l1.363-1.08c.193-.154.456-.174.65-.02.95.713 2.03 1.625 2.724 2.423.194.218.174.52-.084.713h.005zm13.24 6.382h-3.246c-.565 0-.758.327-.41.758.777.972 1.862 1.754 3.264 2.23.585.193.694.56.283 1.04a14.54 14.54 0 00-.951 1.344.53.53 0 01-.65.257c-1.645-.63-2.878-1.58-3.83-2.879-.302-.43-.649-.43-.996-.02-.842 1.06-2.056 2.032-3.81 2.855-.258.128-.52.044-.694-.194a12.006 12.006 0 00-1.016-1.105c-.41-.43-.346-.802.194-1.015 1.774-.759 2.77-1.645 3.31-2.577.237-.392.02-.694-.456-.694H89.77a.512.512 0 01-.54-.54v-1.58c0-.328.218-.54.54-.54h3.746c.322 0 .54-.218.54-.54v-.412a.512.512 0 00-.54-.54H90.51c-.327 0-.54-.218-.54-.54v-1.536c0-.322.218-.54.54-.54h.391c.476 0 .67-.302.456-.734a9.86 9.86 0 00-.63-1.124c-.217-.347-.108-.67.258-.823l1.537-.604c.218-.085.475-.02.604.153.54.714 1.06 1.556 1.363 2.275.109.257-.02.52-.303.649-.302.128-.302.218 0 .218h3.008c.302 0 .302-.065.02-.174-.283-.084-.367-.327-.218-.584.43-.67.842-1.517 1.144-2.25.13-.282.392-.411.694-.322l1.883.56c.411.129.52.456.282.822l-.758 1.08c-.391.54-.218.868.431.868h.521c.327 0 .54.218.54.54v1.536c0 .327-.218.54-.54.54H97.58a.512.512 0 00-.54.54v.411c0 .327.217.54.54.54h4.35c.327 0 .54.218.54.54v1.581c0 .327-.218.54-.54.54l.01-.01z" fill="#58393E"/><path d="M106.684 88.434l9.504-22.882v-.044h-12.571v-5.753h13.805c3.493 0 5.326 1.66 5.326 4.261 0 .937-.257 2.046-.723 3.24l-8.567 21.178h-6.774z" fill="#D93636"/><path d="M128.872 78.619l1.08 1.665a.527.527 0 01-.02.629 64.44 64.44 0 01-3.765 4.177c-.258.282-.585.257-.803-.045l-1.254-1.729a.503.503 0 01.045-.694 99.086 99.086 0 003.85-4.068c.282-.302.629-.282.867.065zm.951-5.302l-1.491 1.625c-.283.283-.605.258-.867-.02-.669-.713-1.69-1.555-2.577-2.25-.302-.217-.327-.54-.064-.822l1.362-1.427a.5.5 0 01.669-.084c.996.669 2.185 1.536 2.944 2.27.218.193.218.495.019.713l.005-.005zm7.661 2.552v1.278c0 2.378 1.214 6.06 5.495 8.22.391.194.475.52.218.867a31.863 31.863 0 00-1.254 1.774c-.153.238-.431.303-.694.174-2.165-1.125-3.741-3.008-4.627-4.633-.541-1.016-.932-1.016-1.556-.045-.996 1.58-2.77 3.464-5.213 4.673-.282.129-.565.02-.738-.238a20.223 20.223 0 00-1.016-1.472c-.302-.366-.218-.713.218-.931 4.588-2.14 5.971-5.97 5.971-8.374v-1.298c0-.327-.218-.54-.54-.54h-.238a.57.57 0 00-.496.322c-.475 1.06-1.015 2.011-1.6 2.814-.174.238-.476.283-.733.129a16.727 16.727 0 00-1.71-.971c-.411-.218-.476-.565-.193-.932 1.427-1.774 2.467-4.415 3.008-7.184.064-.327.322-.496.649-.456l2.011.366c.347.065.521.327.431.65l-.391 1.58c-.109.411.084.694.52.694h5.624l.109-.02.283-.064h.044a.49.49 0 01.392.044l1.645.971a.545.545 0 01.257.63c-.565 1.773-1.362 3.528-2.076 4.89a.541.541 0 01-.733.238 22.84 22.84 0 00-1.516-.733c-.322-.154-.431-.456-.283-.778.193-.431.411-.932.629-1.472.154-.43-.044-.713-.495-.713h-.842a.512.512 0 00-.54.54h-.02zm22.877 9.696c.476 0 .63-.218.714-1.452.064-.629.391-.802.971-.54.431.218.952.392 1.383.52a.56.56 0 01.411.605c-.347 2.854-1.145 3.637-3.201 3.637h-2.274c-2.706 0-3.355-.887-3.355-3.508v-3.072c0-.327-.218-.54-.54-.54h-.778a.537.537 0 00-.54.475c-.476 3.053-1.709 5.322-6.838 6.62a.58.58 0 01-.669-.327c-.193-.456-.495-.951-.802-1.407-.367-.52-.258-.867.366-1.016 3.508-.803 4.351-2.056 4.698-3.72.084-.368-.154-.63-.521-.63h-2.274a.512.512 0 01-.54-.54v-4.286c0-.085-.045-.13-.129-.085s-.154.02-.193-.044v-.045a12.702 12.702 0 00-1.318-1.625c-.347-.367-.327-.713.129-.971 2.185-1.318 3.721-2.943 4.672-4.524.129-.218.347-.327.585-.258l2.467.476c.238.045.322.218.194.431-.129.213-.045.367.193.367h3.027l.109-.02.174-.045a.455.455 0 01.411.065h.045l1.471.951c.258.174.322.456.174.733a21.33 21.33 0 01-.803 1.17c-.367.52-.193.867.456.867h3.483c.322 0 .54.218.54.54v6.298c0 .327-.218.54-.54.54h-3.052c-.327 0-.54.218-.54.54v3.027c0 .694.084.778.738.778h1.492l.004.015zm-10.796-8.785v1.472c0 .193.128.322.322.322h2.512c.193 0 .327-.13.327-.322V76.78c0-.193-.129-.327-.327-.327h-2.512c-.194 0-.322.129-.322.327zm4.39-4.261h-2.854a.4.4 0 00-.258.109c-.173.218-.391.43-.604.649-.328.347-.238.565.237.565h2.988c.084 0 .193-.045.238-.13a5.71 5.71 0 00.52-.693c.194-.302.085-.495-.257-.495l-.01-.005zm5.128 5.733V76.78c0-.193-.129-.327-.327-.327h-2.814c-.194 0-.327.129-.327.327v1.472c0 .193.128.322.327.322h2.814c.193 0 .327-.13.327-.322zm24.759-5.084h-.931c-.56 0-.758.322-.431.778a8.225 8.225 0 001.754 1.858c.347.257.367.604.064.931-.431.431-.867.952-1.214 1.408-.128.173-.044.302.174.302.193 0 .347.154.347.347v1.491c0 .327-.218.54-.54.54h-4.544a.423.423 0 00-.411.303c-.045.173.044.302.237.302h4.242c.322 0 .52.218.495.54l-.064.54c-.283 2.899-.629 4.326-1.278 4.955-.541.54-1.15.733-1.968.822-.564.045-1.451.045-2.403.02-.302 0-.495-.193-.56-.495a6.713 6.713 0 00-.302-1.08c-.238-.605-.044-.952.605-.907.604.02 1.144.02 1.451.02.308 0 .565-.045.778-.174.02-.02.045-.044.065-.044.153-.218.327-.605.456-1.234.084-.367-.129-.605-.521-.605h-1.689a.477.477 0 00-.456.303v.044a.418.418 0 01-.476.238l-1.729-.258c-.392-.064-.56-.347-.431-.733.193-.565.411-1.214.604-1.863.109-.411-.084-.694-.52-.694h-.52c-.327 0-.54-.218-.54-.54v-1.69a.15.15 0 01.153-.153c.089 0 .129-.064.085-.129a9.179 9.179 0 00-1.041-1.407.501.501 0 00-.391-.174h-.868a.512.512 0 00-.54.54v.694c0 .327.218.54.54.54h.694c.327 0 .54.218.54.54v1.427c0 .322-.218.54-.54.54h-.694a.512.512 0 00-.54.54v1.492c0 .411.258.605.649.52l1.125-.237c.347-.085.605.109.649.475l.174 1.427a.55.55 0 01-.412.585c-2.442.604-5.044 1.214-7.14 1.71-.327.084-.584-.085-.649-.412l-.366-1.794c-.045-.237.064-.41.327-.475a.47.47 0 00.391-.476v-5.931c0-.327.218-.54.54-.54h1.189c.327 0 .54.218.54.54v5.624c0 .153.109.238.238.193h.045c.109-.044.218-.153.218-.302v-6.684c0-.327-.218-.54-.54-.54h-1.472c-.327 0-.54-.219-.54-.54v-6.06c0-.328.218-.54.54-.54h5.624c.322 0 .54.217.54.54v4.736c0 .585.347.778.803.392a9.245 9.245 0 001.278-1.298c.347-.456.154-.803-.431-.803h-.694a.512.512 0 01-.54-.54v-1.536c0-.327.218-.54.54-.54h2.339a.53.53 0 00.52-.412l.129-.733c.045-.327.283-.52.605-.495l1.774.173c.347.045.54.283.475.63l-.019.173c-.085.411.128.669.54.669h3.874c.327 0 .54.218.54.54v1.536c0 .327-.218.54-.54.54l-.005.01zm-15.449-.803v1.6c0 .194.129.328.327.328h1.016c.193 0 .322-.13.322-.327v-1.6c0-.194-.129-.328-.322-.328h-1.016c-.193 0-.327.129-.327.327zm6.64 6.08h6.773c.604 0 .669-.218.238-.63a15.28 15.28 0 01-.585-.56c-.153-.173-.258-.153-.258.085v.084c0 .193-.128.327-.327.327h-4.806c-.193 0-.327-.129-.327-.327v-.045c0-.193-.109-.237-.258-.109a14.72 14.72 0 01-.649.54c-.54.392-.475.63.194.63l.005.005zm3.745-5.277h-.128a.34.34 0 00-.303.193 15.52 15.52 0 01-.802 1.492c-.194.327-.085.52.282.52h1.665c.347 0 .456-.194.302-.496a16.748 16.748 0 01-.713-1.491c-.065-.129-.174-.218-.303-.218zm12.552.406l1.794.669c.366.153.475.456.282.778a25.63 25.63 0 01-1.709 2.423.597.597 0 00-.109.346v10.064c0 .327-.218.54-.54.54h-1.928c-.327 0-.54-.218-.54-.54V81.84c0-.52-.258-.63-.604-.283l-.045.045-.193.153c-.258.238-.585.194-.803-.109a27.226 27.226 0 00-1.254-1.62c-.237-.302-.193-.63.085-.842 1.793-1.383 3.656-3.374 4.89-5.386.154-.238.412-.327.669-.218l.005-.005zm-.778-4.519l1.819.738c.391.174.475.496.218.843-1.427 1.709-3.246 3.463-4.975 4.717-.283.218-.585.129-.778-.174a29.961 29.961 0 00-.951-1.451c-.218-.303-.174-.63.128-.843 1.427-.996 2.964-2.443 3.875-3.657a.559.559 0 01.669-.173h-.005zm14.35 7.204v1.754c0 .323-.218.54-.54.54h-1.626c-.327 0-.54.219-.54.54v5.952c0 1.536-.257 2.358-1.298 2.814-.887.411-2.101.476-3.612.476a.548.548 0 01-.565-.476c-.109-.54-.282-1.17-.476-1.73-.173-.52.045-.822.585-.802.778.02 1.556.02 1.819.02.366 0 .495-.084.495-.367v-5.886c0-.327-.218-.54-.54-.54h-4.564c-.327 0-.54-.218-.54-.54V76.26c0-.323.218-.54.54-.54h10.322c.327 0 .54.217.54.54zm-.521-5.713V72.3c0 .328-.218.54-.54.54h-8.938c-.327 0-.54-.218-.54-.54v-1.754c0-.327.218-.54.54-.54h8.938c.322 0 .54.218.54.54zm19.004 11.06c0 .193.129.327.327.327h1.362c.327 0 .54.218.54.54v1.08c0 .323-.218.54-.54.54h-1.144c-.327 0-.54.218-.54.54v1.279c0 1.214-.238 1.838-1.105 2.205-.758.302-1.71.367-2.899.367-.282 0-.495-.194-.565-.456a8.32 8.32 0 00-.327-1.04c-.109-.303-.391-.392-.669-.219-.277.174-.565.084-.713-.193a9.484 9.484 0 00-1.125-1.69c-.173-.218-.154-.43.084-.584.238-.13.218-.218-.064-.218h-.585a.512.512 0 00-.54.54v.153c0 .322-.218.54-.54.54h-1.947c-.327 0-.54.218-.54.54v1.968c0 .327-.218.54-.541.54h-1.555c-.327 0-.54-.218-.54-.54v-1.968c0-.327-.219-.54-.541-.54h-2.056c-.327 0-.54-.218-.54-.54v-1.516c0-.322.218-.54.54-.54h2.121c.282 0 .476-.193.476-.496a.453.453 0 00-.476-.475h-1.452c-.327 0-.54-.218-.54-.54v-6.556c0-.322.218-.54.54-.54h1.491c.258 0 .432-.173.432-.43a.41.41 0 00-.432-.432h-1.863c-.327 0-.54-.218-.54-.54V71.24c0-.327.218-.54.54-.54h1.754c.327 0 .541-.218.541-.54v-.713c0-.327.218-.54.54-.54h1.556c.327 0 .54.218.54.54v.713c0 .327.218.54.54.54h1.689c.327 0 .54.218.54.54v1.472c0 .322-.218.54-.54.54h-1.793c-.258 0-.431.174-.431.431 0 .258.173.431.431.431h1.645c.322 0 .54.218.54.54v6.556c0 .327-.218.54-.54.54h-1.581c-.302 0-.495.193-.495.475 0 .303.193.496.495.496h2.141c.237 0 .391-.154.391-.411 0-.238.154-.392.411-.392h5.02c.193 0 .327-.129.327-.327s.129-.327.322-.327h2.101c.193 0 .327.129.327.327l-.005.015zm-14.588-5.128v.173c0 .193.129.327.327.327h.129c.193 0 .327-.129.327-.327v-.173c0-.194-.129-.327-.327-.327h-.129c-.193 0-.327.129-.327.327zm0 2.725v.193c0 .193.129.322.327.322h.129c.193 0 .327-.129.327-.322v-.193c0-.193-.129-.327-.327-.327h-.129c-.193 0-.327.129-.327.327zm3.528-2.552v-.173c0-.194-.129-.327-.327-.327h-.193c-.193 0-.327.129-.327.327v.173c0 .193.129.327.327.327h.193c.193 0 .327-.129.327-.327zm0 2.745v-.193c0-.193-.129-.327-.327-.327h-.193c-.193 0-.327.129-.327.327v.193c0 .193.129.322.327.322h.193c.193 0 .327-.129.327-.322zm2.616 1.388l-.064-.952c-.02-.347.193-.584.54-.584.887 0 1.947-.02 3.052-.065.218 0 .347-.129.347-.347 0-.218-.129-.347-.347-.347h-2.641c-.327 0-.54-.218-.54-.54v-4.543c0-.327.218-.54.54-.54h2.726c.153 0 .257-.11.257-.283a.247.247 0 00-.257-.257h-2.988a.512.512 0 01-.54-.54v-1.061c0-.322.218-.54.54-.54h2.705c.327 0 .54-.218.54-.54v-.218c0-.322.218-.54.54-.54h1.452c.327 0 .54.218.54.54v.218c0 .322.218.54.54.54h2.879c.327 0 .54.218.54.54v1.06c0 .322-.218.54-.54.54h-3.136c-.174 0-.283.11-.283.258 0 .174.109.282.283.282h2.814c.327 0 .54.219.54.54v4.782a.294.294 0 01-.302.302c-.173 0-.238.085-.129.238.367.52.714 1.08.971 1.556a.502.502 0 01-.257.694l-1.254.604c-.218.11-.411.02-.495-.193a.492.492 0 00-.496-.302c-2.686.109-5.386.173-7.507.218-.327 0-.54-.193-.565-.52h-.005zm2.666-6.125c0 .174.109.283.283.283h.669c.153 0 .257-.11.257-.283a.247.247 0 00-.257-.257h-.669c-.174 0-.283.109-.283.257zm.278 2.294h.649c.173 0 .282-.109.282-.282 0-.174-.109-.283-.282-.283h-.649c-.174 0-.283.11-.283.283s.109.282.283.282zm2.75 7.463c0-.194-.129-.322-.327-.322h-1.254c-.431 0-.52.218-.258.56.194.282.392.584.521.842.084.153.044.327-.109.411l-.045.02c-.193.129-.173.193.045.193.475.02.906.02 1.04.02.302-.02.392-.084.392-.327v-1.407l-.005.01zm1.665-10.02h-.669c-.174 0-.283.11-.283.258 0 .174.109.283.283.283h.669c.153 0 .257-.11.257-.283a.247.247 0 00-.257-.257zm.262 2.275c0-.174-.109-.283-.282-.283h-.649c-.174 0-.283.11-.283.283s.109.282.283.282h.649c.173 0 .282-.109.282-.282zm-1.214 2.14c0 .194.129.327.327.327l.258-.02c.154 0 .193-.084.109-.217h-.02c-.084-.11-.064-.238.084-.303.149-.064.129-.109-.019-.109h-.412c-.193 0-.327.13-.327.322zm13.444-5.668v8.116c0 .867-.084 1.645-.565 2.076-.347.328-.694.431-1.125.476-.327.02-.54-.193-.584-.52a6.205 6.205 0 00-.085-.456c-.128-.565-.282-.54-.282.064v4.955c0 .327-.218.54-.54.54h-1.382c-.327 0-.541-.218-.541-.54V75.457a.247.247 0 00-.257-.258c-.174 0-.283.11-.283.258v8.116c0 .327-.218.54-.54.54h-1.06c-.327 0-.54-.218-.54-.54v-10.43c0-.327.218-.54.54-.54h1.6c.327 0 .54-.218.54-.54v-2.641c0-.322.218-.54.541-.54h1.382c.327 0 .54.218.54.54v2.64c0 .328.218.541.54.541h1.556c.327 0 .54.218.54.54h.005zm-2.641 2.339v5.668c0 .13.084.218.218.218h.193c.109 0 .154-.044.154-.193v-5.693c0-.174-.109-.283-.283-.283-.173 0-.282.11-.282.283zm12.873 5.45l.887.823c.282.238.258.565-.02.803-.476.391-.971.777-1.471 1.124-.283.218-.327.54-.065.778a6.49 6.49 0 001.383.996c.455.258.54.605.193 1.016-.367.456-.758.996-1.061 1.472-.173.282-.455.391-.738.218a7.904 7.904 0 01-2.423-2.21c-.327-.456-.495-.412-.431.153l.02.476c.02.302-.154.54-.431.585l-5.604.996c-.327.044-.565-.11-.63-.412l-.346-1.536c-.085-.347.109-.604.456-.649.218-.044.431-.064.649-.084a.537.537 0 00.475-.54v-4.088c0-.258-.173-.431-.431-.431-.282 0-.456-.173-.456-.456V78.45c0-.258.194-.456.476-.456.258 0 .456-.193.456-.476v-7.422c0-.327.218-.54.54-.54h8.329c.327 0 .54.218.54.54v1.298c0 .327-.218.54-.54.54h-5.822c-.173 0-.282.11-.282.282 0 .174.109.283.282.283h5.193c.327 0 .54.218.54.54v1.08c0 .327-.218.54-.54.54h-5.193c-.173 0-.282.11-.282.283s.109.282.282.282h5.193c.327 0 .54.218.54.54v1.08c0 .328-.218.54-.54.54h-5.173a.294.294 0 00-.302.303c0 .173.129.302.302.302h6.471c.327 0 .54.218.54.54v1.343c0 .322-.218.54-.54.54h-.218c-.476 0-.565.218-.218.52h.01zm-6.015 4.029l1.491-.218c.258-.045.347-.218.238-.476-.476-1.06-.842-2.27-1.125-3.592a.341.341 0 00-.327-.258h-.327c-.193 0-.322.129-.322.327v3.914c0 .218.154.347.367.303h.005zm4.652-4.549h-1.144c-.283 0-.392.173-.302.431.084.258.173.54.282.778.109.238.302.282.496.129l.886-.803c.323-.322.238-.54-.218-.54v.005zm22.919-.451V81.8c0 .327-.218.54-.54.54h-6.882c-.327 0-.54.218-.54.54V85c0 1.665-.392 2.443-1.492 2.9-1.04.41-2.487.495-4.325.495a.558.558 0 01-.54-.411 13.625 13.625 0 00-.649-1.69c-.258-.52-.065-.843.52-.823 1.169.02 2.339.02 2.705.02.476 0 .669-.129.669-.54v-2.076a.512.512 0 00-.54-.54h-6.922c-.327 0-.54-.218-.54-.54v-1.839c0-.322.218-.54.54-.54h6.922c.327 0 .54-.218.54-.54v-.822c0-.327-.218-.54-.54-.54h-5.475c-.327 0-.54-.218-.54-.54V75.2c0-.327.218-.54.54-.54h5.475c.327 0 .54-.218.54-.54v-.868c0-.346-.238-.564-.585-.54-1.709.13-3.399.218-5.019.283-.302.02-.52-.174-.585-.476a12.013 12.013 0 00-.366-1.382c-.174-.456.02-.758.52-.778 4.608-.194 9.523-.714 12.833-1.472h.045c.193-.064.391.02.52.174l1.363 1.555c.347.412.238.758-.283.868a52.273 52.273 0 01-4.846.802.537.537 0 00-.475.54v1.298c0 .328.218.54.54.54h5.624c.327 0 .54.219.54.54v1.775c0 .326-.218.54-.54.54h-5.624c-.327 0-.54.218-.54.54v.822c0 .327.218.54.54.54h6.882c.327 0 .54.218.54.54h-.01zm8.548 4.499l-.951.327c-.367.129-.649-.044-.714-.43-.044-.194-.109-.412-.153-.63-.193-.778-.347-.758-.347.044v4.088c0 .327-.218.54-.54.54h-1.383c-.327 0-.54-.218-.54-.54v-3.052c0-1.298-.084-1.318-.366-.02a9.71 9.71 0 01-.412 1.516c-.109.347-.431.456-.778.283-.302-.174-.668-.322-.995-.476-.303-.129-.432-.411-.328-.733.347-1.016.565-2.339.669-3.612.02-.367.283-.565.63-.496l.971.154c.367.064.604-.154.604-.54 0-.347-.237-.565-.584-.54l-1.383.109a.536.536 0 01-.584-.476l-.154-1.363c-.045-.347.173-.604.52-.604l.521-.02h.044a.578.578 0 00.392-.238c.128-.218.282-.43.431-.63v-.044c.109-.193.128-.411 0-.584-.476-.694-1.145-1.492-1.73-2.166a.56.56 0 01-.044-.693l1.08-1.517c.064-.064.154-.084.218-.044.02 0 .045.044.064.044.065.065.154.045.194-.044a31.58 31.58 0 001.04-2.641c.109-.303.392-.456.694-.347l1.407.431c.367.109.496.431.302.778-.604 1.145-1.253 2.359-1.838 3.335a.464.464 0 00.045.495c.109.154.257.129.346-.02.432-.758.823-1.536 1.145-2.23.129-.282.411-.39.714-.282l1.298.565c.366.129.475.456.257.778l-1.6 2.487c-.258.367-.129.52.282.367l.238-.084c.258-.084.54.02.649.302.521 1.19.996 2.596 1.17 3.657a.501.501 0 01-.327.565l-1.299.495c-.237.084-.391-.02-.431-.238v-.044l-.044-.11v-.044c-.045-.129-.154-.238-.283-.238h-.044c-.129.045-.238.13-.238.283v.456c0 .455.282.649.694.52l.475-.129c.303-.084.565.045.669.347.238.778.496 1.625.649 2.339a.494.494 0 01-.327.604l.005-.01zm-2.854-6.684l.218-.02c.238 0 .367-.173.283-.411l-.065-.193c-.129-.347-.347-.367-.565-.085-.044.085-.109.154-.153.238-.218.302-.109.496.282.476v-.005zm13.245 7.725h-.154c-.431 0-.456.128-.084.302l1.427.694c.52.257.54.629.045.931l-1.408.823a.527.527 0 01-.564 0 63.006 63.006 0 00-2.79-1.58c-.367-.174-.392-.477-.065-.734.303-.258.238-.431-.173-.431h-1.556c-.456 0-.52.173-.129.41.367.259.347.586-.044.804-1.125.584-2.552 1.189-3.746 1.555a.568.568 0 01-.54-.153c-.194-.193-.456-.456-.714-.694-.52-.456-.431-.822.218-1.04.54-.194 1.105-.412 1.625-.65.303-.128.258-.237-.084-.237-.327 0-.565-.218-.565-.54v-5.367c0-.327.218-.54.54-.54h8.766c.327 0 .54.218.54.54v5.367c0 .327-.218.54-.54.54h-.005zm-5.996-13.656c0-.154-.084-.238-.238-.238h-3.612a.512.512 0 01-.54-.54v-.669c0-.327.218-.54.54-.54h3.375c.282 0 .475-.193.475-.496 0-.282.194-.475.496-.475h1.947c.283 0 .476.193.476.475 0 .303.193.496.495.496h3.593c.327 0 .54.218.54.54v.669c0 .327-.218.54-.54.54h-3.85c-.154 0-.238.084-.238.238 0 .153.084.238.238.238h2.987c.327 0 .541.218.541.54v.56c0 .327-.218.54-.541.54h-9.003a.512.512 0 01-.54-.54v-.56c0-.327.218-.54.54-.54h2.617c.153 0 .237-.085.237-.238h.005zm-4.068 6.208v-3.29c0-.327.218-.54.54-.54h10.302c.327 0 .54.218.54.54v3.29c0 .327-.218.54-.54.54h-10.302c-.327 0-.54-.218-.54-.54zm2.944-2.462h-.392a.294.294 0 00-.302.302c0 .173.129.282.302.238.238-.045.411-.11.585-.193.302-.13.173-.347-.193-.347zm-.694 1.164v.129c0 .193.129.327.327.327h.064c.218 0 .283-.129.154-.302-.065-.11-.154-.193-.218-.283-.193-.218-.327-.153-.327.13zm1.08 3.9c0 .153.084.238.238.238h4.112c.154 0 .238-.085.238-.238 0-.154-.084-.238-.238-.238h-4.112c-.154 0-.238.084-.238.238zm0 1.62c0 .154.109.258.258.258h4.068a.247.247 0 00.257-.258.25.25 0 00-.257-.258h-4.068a.247.247 0 00-.258.258zm0 1.625c0 .174.109.283.282.283h4.049c.153 0 .257-.11.257-.283a.247.247 0 00-.257-.257h-4.049c-.173 0-.282.109-.282.257zm1.278-6.689h4.222c.084 0 .154-.064.154-.173a.152.152 0 00-.154-.154h-.932c-1.362 0-1.818-.218-1.927-.996a.33.33 0 00-.327-.302h-.084c-.154 0-.258.084-.327.238-.154.366-.392.649-.758.906-.694.431-.714.476.128.476l.005.005zm4.371-1.343v-.109c0-.109-.065-.173-.174-.173h-.584c-.154 0-.283.109-.218.238.044.084.084.109.218.109h.693c.045 0 .065-.02.065-.065zm20.325 9.35h-.669c-.734 0-.758.154-.065.411.868.303 1.73.63 2.468.932.694.282.694.694-.02.971l-1.967.803a.537.537 0 01-.476-.02c-.971-.52-2.551-1.234-4.177-1.838-.52-.193-.56-.496-.084-.778.476-.282.411-.476-.129-.476h-3.097c-.52 0-.54.154-.064.347.456.218.476.56.02.803-1.581.822-3.637 1.556-5.411 2.036a.554.554 0 01-.54-.173 54.321 54.321 0 00-.996-1.04c-.54-.521-.431-.907.327-1.061a27.166 27.166 0 002.532-.585c.629-.173.585-.327-.045-.327h-.52a.512.512 0 01-.54-.54v-4.737c0-.391-.258-.604-.649-.54l-.283.045c-.257.044-.495-.11-.604-.327a9.27 9.27 0 00-.629-1.08c-.347-.52-.218-.888.431-.972 1.427-.193 2.467-.456 3.201-.802.347-.154.302-.303-.065-.303h-.56l-.084.065-.044.02c-.045.02-.085.044-.129.044l-1.794-.109c-.476-.02-.649-.327-.495-.758.346-.887.693-1.927.971-2.879a.534.534 0 01.52-.391h3.117a.294.294 0 00.302-.303.294.294 0 00-.302-.302h-3.657a.512.512 0 01-.54-.54v-.604c0-.327.218-.54.54-.54h3.572c.238 0 .392-.154.392-.392 0-.238.153-.391.391-.391h1.903c.238 0 .391.153.391.391 0 .238.154.392.392.392h1.04c.238 0 .392-.154.392-.392 0-.238.153-.391.391-.391h2.037c.238 0 .391.153.391.391 0 .238.154.392.392.392h3.329c.327 0 .54.218.54.54v2.898c0 .322-.218.54-.54.54h-3.399c-.193 0-.327.13-.327.303 0 .193.129.322.327.322h4.911c.193 0 .346.153.346.347v.366c-.084 1.383-.218 2.185-.584 2.617-.327.366-.843.52-1.298.564h-.109l-.045.065a.229.229 0 00-.064.153v6.298c0 .327-.218.54-.54.54l-.025-.005zm-11.927-11.362l-.044.085c-.065.193.019.322.218.322h1.144a.3.3 0 00.302-.258v-.044c.045-.194-.084-.327-.282-.327h-1.041a.301.301 0 00-.302.218l.005.004zm9.132 4.956h-7.487c-.173 0-.282.109-.282.282s.109.282.282.282h7.487c.174 0 .283-.109.283-.282s-.109-.282-.283-.282zm0 2.08h-7.467c-.193 0-.302.11-.302.283 0 .193.109.302.302.302h7.467c.174 0 .283-.109.283-.302 0-.173-.109-.282-.283-.282zm-.02 2.097h-7.442a.294.294 0 00-.302.302c0 .173.129.302.302.302h7.442a.295.295 0 00.303-.302.295.295 0 00-.303-.302zm-3.27-7.032h-1.665c-.129 0-.238.085-.302.194a2.089 2.089 0 01-.258.475c-.238.347-.153.56.283.56h1.947c.193 0 .322-.129.322-.322v-.585c0-.193-.129-.326-.322-.326l-.005.004zm.327-2.011a.294.294 0 00-.302-.302h-1.189c-.194 0-.327.128-.327.302l-.02.02c0 .173.129.302.327.302h1.214c.173 0 .302-.129.302-.322h-.005zm-1.818-2.294c0 .173.128.302.302.302h1.214a.294.294 0 00.302-.302.294.294 0 00-.302-.303h-1.214a.294.294 0 00-.302.303zm5.886-.303h-.951a.295.295 0 00-.303.303c0 .173.129.302.303.302h.951a.294.294 0 00.302-.302.294.294 0 00-.302-.303zm1.234 4.608h-2.165c-.194 0-.327.13-.327.328v.584c0 .193.128.322.327.322h.733c.238 0 .367-.153.282-.391-.084-.218-.019-.347.238-.322.218.02.411.044.565.02h.045c.109 0 .218 0 .327-.085.044-.02.064-.064.084-.109l.044-.153c.045-.11-.019-.194-.153-.194z" fill="#58393E"/><path d="M336.116 30.466c1.496-1.764 2.289-3.775 2.289-5.817 0-2.041-.793-4.048-2.289-5.817l-9.642-11.376c-2.963-3.494-8.409-5.664-14.211-5.664H39.007c-5.485 0-10.599 1.898-13.676 5.074l-11.02 11.376c-1.843 1.903-2.819 4.118-2.819 6.402 0 2.285.976 4.5 2.82 6.402l11.02 11.377c3.081 3.18 8.195 5.073 13.675 5.073h273.251c5.802 0 11.248-2.17 14.211-5.663l9.642-11.377.005.01zm-12.883 10.396c-2.314 2.73-6.521 4.425-10.975 4.425H39.008c-4.208 0-8.152-1.477-10.55-3.954l-11.02-11.377c-3.077-3.176-3.077-7.437 0-10.614l11.02-11.376c2.398-2.478 6.342-3.954 10.55-3.954h273.25c4.454 0 8.661 1.694 10.975 4.425l9.642 11.376c2.528 2.983 2.528 6.69 0 9.672l-9.642 11.377z" fill="#D93636"/><path d="M337.25 17.876l-9.642-11.377c-3.236-3.815-9.117-6.188-15.346-6.188H39.006c-5.881 0-11.391 2.066-14.746 5.53L13.24 17.21C11.12 19.398 10 21.97 10 24.65c0 2.68 1.12 5.252 3.24 7.438l11.02 11.376c3.355 3.464 8.865 5.53 14.746 5.53h273.251c6.229 0 12.11-2.373 15.346-6.189l9.642-11.376c1.729-2.037 2.641-4.38 2.641-6.779 0-2.398-.912-4.737-2.641-6.778l.005.005zM312.257 47.5H39.007c-5.486 0-10.6-1.897-13.676-5.073L14.31 31.05c-1.843-1.903-2.82-4.117-2.82-6.402 0-2.284.977-4.499 2.82-6.402L25.33 6.871c3.077-3.181 8.19-5.074 13.675-5.074h273.251c5.802 0 11.248 2.17 14.211 5.664l9.642 11.376c1.497 1.764 2.29 3.776 2.29 5.817 0 2.042-.793 4.048-2.29 5.817l-9.642 11.377c-2.963 3.493-8.409 5.663-14.211 5.663v-.01z" fill="#58393E"/><path d="M139.354 25.512c-.019-.154-.153-.258-.322-.258h-.084c-.193 0-.327.129-.327.327v4.563c0 .238.154.367.392.303.411-.065.842-.174 1.278-.238.258-.065.347-.238.258-.456-.521-1.278-.887-2.686-1.19-4.241h-.005zm-4.088-6.144l-.54.649c-.065.044-.085.129-.085.193v1.967c0 .193-.129.327-.327.327h-1.471c-.194 0-.327.129-.327.327v.496c0 .193.128.327.327.327h1.863c.193 0 .327.129.327.327v1.838c0 .193-.129.327-.327.327h-1.863c-.194 0-.327.129-.327.322v1.625c0 .952.173.977.346.045.065-.431.129-.867.194-1.234.02-.218.193-.327.391-.282l1.516.347c.218.044.303.218.238.43-.322.952-.629 1.948-.887 2.662-.064.173-.218.257-.391.193l-.996-.283c-.238-.064-.411.065-.411.327v.065c0 .218.153.347.366.302l1.928-.282a.325.325 0 01.366.302v.173c.02.194.154.302.347.258h.045c.153-.02.258-.154.258-.327V19.58c0-.54-.238-.605-.565-.218l.005.005zm6.939-1.105h-3.261a.327.327 0 00-.327.327v.277c0 .18.147.327.327.327h3.261c.18 0 .327-.146.327-.327v-.277a.327.327 0 00-.327-.327zm-3.261 3.419h3.27c.179 0 .323.143.323.322v.302a.327.327 0 01-.327.327h-3.266a.327.327 0 01-.327-.327v-.302c0-.179.144-.327.327-.327v.005zm50.271-3.573h.282c.129 0 .238-.11.238-.258a.241.241 0 00-.238-.238h-.282c-.154 0-.258.11-.258.238 0 .154.109.258.258.258zm-56.048 1.427c-.391-.52-.822-1.06-1.278-1.536-.174-.174-.367-.154-.496.044-.322.476-.669.952-1.06 1.452-.258.327-.174.54.258.54h2.313c.367 0 .476-.218.258-.495l.005-.005zm56.048.823h.282c.129 0 .238-.11.238-.258a.241.241 0 00-.238-.238h-.282c-.154 0-.258.11-.258.238 0 .154.109.258.258.258zm-3.032-.496h-.218c-.154 0-.258.11-.258.238 0 .154.109.258.258.258h.218c.129 0 .238-.11.238-.258a.241.241 0 00-.238-.238zm-.04 4.543h-.521c-.173 0-.282.11-.282.283s.109.282.282.282h.521c.173 0 .282-.109.282-.282 0-.174-.109-.283-.282-.283zm-65.919 1.581a11.356 11.356 0 01-.976-.738.325.325 0 00-.431 0c-.327.282-.669.52-1.016.778-.584.391-.52.629.193.629h2.057c.758 0 .822-.238.173-.669zm-29.544.625l-.605.282c-.238.11-.411 0-.475-.258-.02-.128-.065-.257-.11-.41-.044-.154-.173-.239-.346-.239l-.065.02c-.173 0-.282.129-.282.327v.932c0 .282.173.41.431.327l1.19-.392c.173-.044.326.02.39.194l.13.302c.128.347.193.327.193-.045v-.733c0-.302-.174-.411-.456-.302l.005-.005zm-2.294-3.484c-.13-.258-.327-.282-.52-.045-.02.045-.045.065-.085.11-.193.282-.109.43.238.41h.11c.281-.02.39-.193.281-.43 0-.02-.02-.02-.02-.045h-.004zm-32.443-4.692H49.6c-.193 0-.327.128-.327.327v11.574c0 .194.13.327.327.327h6.343c.193 0 .327-.129.327-.327V18.763c0-.194-.129-.328-.327-.328zm-.02 3.85c0 .327-.218.54-.54.54h-1.016a.512.512 0 00-.54.54v.43c0 .328.218.54.54.54h.694c.327 0 .54.219.54.541v4.48c0 .326-.218.54-.54.54h-4.544a.512.512 0 01-.54-.54v-4.48c0-.327.218-.54.54-.54h.496c.322 0 .54-.218.54-.54v-.431c0-.327-.218-.54-.54-.54h-.843a.512.512 0 01-.54-.54v-1.041c0-.327.218-.54.54-.54h.843c.322 0 .54-.218.54-.54v-.907c0-.327.218-.54.54-.54h1.189c.327 0 .54.218.54.54v.907c0 .327.218.54.54.54h1.016c.322 0 .54.218.54.54v1.04h.005z" fill="#F25252"/><path d="M53.065 26.354h-.664a.327.327 0 00-.327.326v.902c0 .181.147.327.327.327h.664c.18 0 .327-.146.327-.327v-.902a.327.327 0 00-.327-.326zm64.645 2.79h2.487a.32.32 0 01.322.322v1.382a.326.326 0 01-.327.327h-2.487a.322.322 0 01-.322-.322v-1.387c0-.179.144-.322.322-.322h.005zm-8.806-10.971h1.407c.179 0 .322.144.322.322v1.407a.321.321 0 01-.322.322h-1.407a.322.322 0 01-.322-.322v-1.407c0-.178.144-.327.327-.327l-.005.005zm77.279-.56h-.218c-.154 0-.258.11-.258.238 0 .154.109.258.258.258h.218c.129 0 .238-.11.238-.258a.241.241 0 00-.238-.238zm-67.562 3.226c.153.193.366.193.495-.02.238-.347.456-.694.649-1.06.154-.258.02-.456-.282-.456h-1.472a.278.278 0 00-.218.109.227.227 0 00-.02.257c.258.392.521.778.843 1.17h.005zm-2.162 1.337c-.154-.237-.347-.237-.54-.044-.109.129-.193.257-.302.366-.154.154-.328.154-.476.02a20.273 20.273 0 00-1.234-1.08c-.302-.258-.52-.153-.52.238v.758c0 .193-.129.327-.327.327h-1.234c-.193 0-.322.129-.322.322v1.452c0 .193.129.322.322.322h1.536c.129 0 .218.084.218.218s.084.173.193.129a12.23 12.23 0 003.092-1.947c.154-.11.154-.283.045-.431l-.456-.65h.005zm145.183.942h-8.572a.315.315 0 00-.332.332v2.027c0 .223.109.357.332.357h8.572c.199 0 .332-.134.332-.332v-2.047c0-.198-.133-.332-.332-.332v-.005zm-30.59-1.873c-.173 0-.282.11-.282.282v5.669c0 .129.084.218.218.218h.193c.109 0 .153-.045.153-.193v-5.694c0-.173-.109-.282-.282-.282zm7.182 5.475a.342.342 0 00-.327-.257h-.322c-.193 0-.327.129-.327.327v3.914c0 .218.153.347.366.303l1.492-.218c.258-.045.347-.219.238-.476-.476-1.06-.843-2.27-1.125-3.592h.005zm36.726-5.43l-.258-.045c-.218-.044-.327-.218-.238-.411.129-.367.258-.758.367-1.15.064-.237-.064-.391-.302-.391h-1.645c-.283 0-.392.173-.303.456.129.391.258.803.328 1.144.019.174-.065.303-.238.347l-.174.045c-.282.084-.257.129.02.129h2.423c.367 0 .391-.045.02-.13v.006zm-32.682 5.173h-1.145c-.282 0-.391.173-.302.431.084.258.174.54.283.778.109.238.302.282.495.129l.887-.803c.322-.322.238-.54-.218-.54v.005zm-53.042-1.492h.584c.174 0 .283-.109.283-.282 0-.174-.109-.283-.283-.283h-.584c-.174 0-.283.11-.283.283s.109.282.283.282zm115.246-1.853h-8.572a.315.315 0 00-.332.332v2.027c0 .223.109.357.332.357h8.572a.315.315 0 00.332-.332v-2.047a.315.315 0 00-.332-.332v-.005z" fill="#F25252"/><path d="M332.12 28.846c2.195-2.586 2.195-5.802 0-8.389l-9.642-11.376c-2.131-2.512-6.045-4.073-10.217-4.073H39.005c-3.944 0-7.62 1.362-9.836 3.652L18.15 20.036c-2.72 2.805-2.72 6.432 0 9.236L29.17 40.65c2.215 2.284 5.892 3.652 9.836 3.652h273.251c4.172 0 8.086-1.561 10.217-4.073l9.642-11.377.005-.005zM26.94 26.948a2.107 2.107 0 01-2.106-2.105c0-1.165.941-2.106 2.106-2.106 1.164 0 2.105.941 2.105 2.106a2.104 2.104 0 01-2.105 2.105zm187.485-8.492c.322 0 .54-.218.54-.54V15.75c0-.327.218-.54.54-.54h1.948c.327 0 .54.218.54.54v2.166c0 .322.218.54.54.54h3.83c.327 0 .54.218.54.54v1.729c0 .327-.218.54-.54.54h-11.426a.512.512 0 01-.54-.54v-1.73c0-.326.218-.54.54-.54h3.488zm1.254 10.841a.49.49 0 01-.431.54l-1.839.392c-.366.084-.629-.13-.649-.52-.109-1.864-.475-4.48-.951-6.71-.084-.347.109-.604.431-.649l1.645-.282a.542.542 0 01.629.391c.541 2.25 1.041 4.955 1.17 6.838h-.005zm-58.558-12.7c0-.327.218-.54.54-.54h8.939c.322 0 .54.218.54.54v1.755c0 .326-.218.54-.54.54h-8.939c-.327 0-.54-.218-.54-.54v-1.755zm-8.354 2.334c1.427-.996 2.963-2.443 3.875-3.657a.559.559 0 01.669-.173l1.818.738c.392.174.476.496.218.843-1.427 1.71-3.245 3.463-4.974 4.717-.283.218-.585.129-.778-.174-.283-.456-.63-.996-.952-1.451-.218-.303-.173-.63.129-.843h-.005zM46.314 16.335c-.367 1.04-.778 2.165-1.299 3.2-.02.02-.02.065-.02.085l-.044.173v14.132c0 .327-.218.54-.54.54h-1.754c-.327 0-.54-.218-.54-.54v-8.592c0-.476-.174-.54-.476-.154-.302.367-.63.303-.803-.153a19.928 19.928 0 00-.906-2.185.596.596 0 01.064-.65c1.452-1.709 2.77-4.176 3.612-6.708.11-.303.392-.456.694-.367l1.665.52c.322.11.475.392.346.694v.005zm12.788 17.377c0 .327-.218.54-.54.54h-1.774c-.322 0-.52-.193-.52-.495 0-.328-.193-.52-.495-.52h-5.951a.512.512 0 00-.54.54v.108c0 .327-.218.54-.54.54h-1.646a.512.512 0 01-.54-.54V16.4c0-.327.218-.54.54-.54h11.471c.327 0 .54.218.54.54v17.313h-.005zm21.817-1.407a8.5 8.5 0 00-1.343 1.516c-.173.258-.475.367-.733.218-3.503-1.947-5.624-4.935-6.902-7.943-.367-.867-.758-.867-1.125.02-1.19 2.854-3.137 5.693-6.273 7.878-.258.194-.54.13-.758-.109-.392-.495-.932-1.015-1.536-1.491-.412-.322-.392-.694.044-.971 6.992-4.564 7.012-12.487 7.12-15.559 0-.327.219-.52.54-.52h2.379c.347 0 .54.218.54.565l-.044.758v.044c.153 2.88 1.124 10.797 7.982 14.608.476.257.495.629.109.996v-.01zm13.785-3.83v-.932a.247.247 0 00-.258-.258c-.174 0-.282-.109-.282-.282V25.62c0-.322.218-.54.54-.54h.282c.327 0 .54-.218.54-.54v-.238c0-.327-.218-.54-.54-.54h-.282c-.327 0-.54-.218-.54-.54V21.84c0-.154.108-.258.282-.258.154 0 .238-.109.218-.258-.064-.475-.218-1.04-.367-1.536-.084-.302.045-.584.347-.693l.758-.258c.283-.084.54.02.65.282a14 14 0 01.475 1.646.53.53 0 01-.347.584l-.129.045c-.327.109-.302.193.045.193h1.214c.282 0 .282-.064.02-.154-.258-.084-.367-.326-.302-.584.153-.52.282-1.105.39-1.645.065-.367.323-.565.695-.456l.996.258c.366.109.52.41.346.758-.237.54-.43 1.06-.629 1.516-.084.173 0 .302.218.302.193 0 .327.129.327.327v1.318c0 .322-.218.54-.54.54h-.258c-.327 0-.54.218-.54.54v.238c0 .322.218.54.54.54h.258c.322 0 .54.218.54.54v1.125c0 .327-.218.54-.54.54h-1.105c-.327 0-.54.218-.54.54v.67c0 .475.045.628.238.628h.803c.153 0 .322-.02.52-.044.282-.02.495.109.52.411.02.456.065.996.11 1.407.019.238-.085.456-.328.496-.238.064-.52.064-.803.064h-.802c-2.25 0-2.725-.802-2.725-2.988h-.015zm7.724 3.16c0 1.28-.218 1.928-.976 2.36-.693.366-1.6.455-2.854.475-.282 0-.495-.193-.565-.476a9.214 9.214 0 00-.322-1.144c-.193-.54 0-.843.585-.823h1.06c.283-.02.392-.129.392-.411V18.872c0-.327-.218-.54-.54-.54h-4.871a.512.512 0 00-.54.54v15.083c0 .327-.218.54-.54.54h-1.58c-.328 0-.54-.218-.54-.54V31.64c0-.456-.283-.67-.715-.52l-.237.084c-.392.129-.67-.065-.734-.456-.044-.302-.128-.65-.193-.976-.218-.971-.456-.932-.456.064v4.068c0 .327-.218.54-.54.54h-1.471c-.328 0-.54-.218-.54-.54V30.66c0-1.492-.085-1.492-.392-.045-.154.63-.302 1.214-.476 1.73-.109.39-.43.475-.778.302a20.802 20.802 0 00-1.08-.496c-.302-.129-.411-.411-.302-.733.347-.996.565-2.314.669-3.612.02-.367.282-.565.63-.496l1.104.174c.367.064.63-.154.63-.54v-.13c0-.346-.238-.564-.585-.54l-1.58.154a.537.537 0 01-.586-.476l-.173-1.471c-.045-.322.173-.585.52-.585l.694-.044h.045a.628.628 0 00.366-.218l.322-.456s.02-.02.02-.045a.525.525 0 00.02-.585 22.411 22.411 0 00-1.754-2.185.56.56 0 01-.045-.694l1.04-1.451c.085-.13.219-.154.323-.045h.044c.085.11.194.084.258-.064.367-.843.758-1.794 1.04-2.641.11-.303.392-.456.694-.347l1.452.495c.347.13.476.431.302.778-.629 1.17-1.278 2.404-1.863 3.375a.393.393 0 00.02.475v.045c.129.129.258.129.347-.045.476-.802.932-1.6 1.298-2.338.154-.283.431-.392.714-.258l1.343.604c.346.154.455.476.237.778a98.74 98.74 0 01-1.773 2.552c-.323.456-.218.585.302.367l.366-.154c.283-.109.54-.02.694.238.11.193.193.391.302.604.303.63.476.585.476-.108v-6.234c0-.322.218-.54.54-.54h10.212c.327 0 .54.218.54.54v15.34zm21.901-6.015c-.302.392-.629.803-.867 1.19a.672.672 0 00-.084.282v6.71c0 .326-.218.54-.54.54h-2.012a.294.294 0 01-.302-.303.294.294 0 00-.302-.302h-2.513c-.193 0-.322.128-.322.327 0 .198-.128.327-.327.327h-1.882c-.323 0-.541-.218-.541-.54v-5.907s0-.064-.019-.084l-.065-.193s0-.045-.02-.045c-.153-.257-.346-.604-.584-.907-.218-.282-.367-.218-.367.154 0 .327-.218.585-.54.585h-.996c-.327 0-.54.218-.54.54v.996c0 .391.258.604.669.52.327-.064.669-.129 1.016-.218.346-.064.604.11.649.476l.173 1.556a.55.55 0 01-.411.584c-2.616.63-5.366 1.254-7.596 1.774-.347.084-.605-.084-.669-.43l-.322-1.884c-.045-.238.109-.43.347-.495a.487.487 0 00.411-.476v-5.886c0-.328.218-.54.54-.54h1.318c.322 0 .54.217.54.54v5.495c0 .193.129.322.347.282a.417.417 0 00.347-.411V23.32c0-.327-.218-.54-.54-.54h-1.774c-.327 0-.54-.218-.54-.54v-6.035c0-.327.218-.54.54-.54h6.298c.327 0 .54.218.54.54v3.052c0 .778.366.932.867.327.931-1.189 1.709-2.64 2.23-4.152.084-.302.346-.456.649-.367l1.754.412c.347.084.495.366.366.713-.128.367.045.63.412.63h1.58l.109-.02.283-.045a.58.58 0 01.322.02l1.298.56c.258.109.391.347.302.629a15.274 15.274 0 01-2.249 4.653c-.194.282-.174.584.129.778.777.495 1.645.951 2.616 1.278.52.193.629.54.282.971l-.01-.025zm21.579 7.012a10.16 10.16 0 00-1.06 1.407c-.174.282-.476.367-.758.193-1.105-.694-1.967-1.58-2.661-2.66-.347-.585-.496-.566-.411.128l.084.67a.55.55 0 01-.411.584 310.3 310.3 0 01-5.064 1.17c-.303.063-.54-.085-.63-.392l-.084-.327c-.084-.283-.327-.431-.629-.392-2.141.392-4.37.739-6.209 1.016-.302.064-.54-.109-.604-.411l-.347-1.58c-.084-.348.109-.605.456-.65l1.883-.258a.561.561 0 00.475-.564c0-.283-.193-.432-.475-.347l-.803.237c-.392.11-.669-.084-.714-.475a30.981 30.981 0 00-.455-2.275c-.065-.302.084-.584.391-.649l.887-.237a.5.5 0 01.649.366c.064.302.154.605.218.932.218.842.302.842.302-.045v-1.407c0-.327-.218-.54-.54-.54h-1.516c-.327 0-.54-.218-.54-.54v-1.407c0-.327.218-.54.54-.54h1.516c.327 0 .54-.258.54-.585 0-.327-.218-.565-.54-.565h-.887a.35.35 0 01-.366-.367v-.153s0-.065-.02-.085l-.045-.193s-.044-.064-.044-.084a11.614 11.614 0 00-1.19-1.383c-.302-.282-.302-.629.02-.906a13.262 13.262 0 002.988-4.068.572.572 0 01.496-.327h1.838c.109 0 .238.044.322.109l.045.044a22.653 22.653 0 012.403 2.23c.54.565.867.456.867-.347v-.778c0-.327.218-.54.54-.54h8.463c.327 0 .54.218.54.54v8.528c0 .327-.218.54-.54.54h-2.205c-.391 0-.605.258-.495.649l.128.495c.129.456.456.54.823.258.258-.218.495-.431.733-.649.238-.218.54-.238.778 0l1.145 1.19c.282.282.238.604-.065.822-.54.391-1.124.758-1.665 1.105-.282.173-.366.475-.153.758a6.315 6.315 0 001.883 1.754c.431.257.495.604.173.996v.005zm8.552-9.132a.605.605 0 00-.109.347V33.91c0 .327-.218.54-.54.54h-1.927a.512.512 0 01-.54-.54v-6.015c0-.52-.258-.63-.605-.283l-.044.045-.194.154c-.257.237-.584.193-.802-.11a27.65 27.65 0 00-1.254-1.62c-.238-.302-.193-.629.084-.842 1.794-1.383 3.657-3.374 4.891-5.386.153-.238.411-.327.669-.218l1.793.669c.367.153.476.456.283.778a25.46 25.46 0 01-1.71 2.423l.005-.005zm13.2.56c0 .322-.218.54-.54.54h-1.625a.512.512 0 00-.54.54v5.95c0 1.537-.258 2.36-1.298 2.815-.887.411-2.101.476-3.612.476a.547.547 0 01-.565-.476 14.17 14.17 0 00-.476-1.73c-.173-.52.045-.822.585-.802.778.02 1.556.02 1.818.02.367 0 .496-.084.496-.367V25.14c0-.327-.218-.54-.54-.54h-4.564c-.327 0-.54-.218-.54-.54v-1.754c0-.323.218-.54.54-.54h10.321c.327 0 .54.218.54.54v1.754zm9.559-5.788l-3.142 14.191a.376.376 0 01-.381.317h-.937c-.302 0-.446-.188-.381-.475l3.141-14.191a.376.376 0 01.381-.317h.937c.302 0 .446.188.382.475zm24.328 2.607c0 .302-.238.52-.54.52a.562.562 0 00-.565.476c-.302 2.66-.822 4.935-1.689 6.857v.045a.476.476 0 00.02.475c.604.977 1.362 1.819 2.274 2.468.367.258.391.605.084.951-.367.412-.778.907-1.08 1.343-.193.302-.496.367-.778.173a9.665 9.665 0 01-1.883-1.882c-.282-.327-.604-.347-.907-.02a12 12 0 01-2.294 1.947c-.322.193-.629.084-.822-.238-.129-.257-.303-.52-.476-.802-.218-.303-.54-.327-.803-.065l-.842.842a.53.53 0 01-.694.065 20.318 20.318 0 00-1.516-.887.567.567 0 00-.52 0c-1.145.585-2.597.996-4.415 1.298-.322.065-.565-.109-.649-.411a6.374 6.374 0 00-.392-.907c-.257-.54-.109-.867.496-.931.867-.11 1.6-.238 2.269-.412.154-.044.154-.109.02-.173l-.193-.084-.084.02-.045.02a.148.148 0 01-.129 0l-1.471-.328c-.476-.129-.585-.456-.327-.867l.084-.153c.327-.496.129-.823-.456-.823l-.52.02a.544.544 0 01-.565-.52l-.02-1.04c-.02-.348.193-.56.54-.56.733 0 1.556 0 2.443-.02a.583.583 0 00.476-.303c.084-.173.019-.282-.174-.282h-1.967a.512.512 0 01-.54-.54v-2.963c0-.328.218-.54.54-.54h2.725c.154 0 .238-.085.238-.238 0-.154-.084-.238-.238-.238h-2.358c-.327 0-.54-.218-.54-.54v-1.08c0-.328-.218-.54-.541-.54h-.173a.512.512 0 01-.54-.54v-.997c0-.327.218-.54.54-.54h.173c.323 0 .541-.218.541-.54v-1.04c0-.327.218-.54.54-.54h2.165c.258 0 .431-.174.431-.456 0-.258.173-.431.456-.431h1.645c.258 0 .431.173.431.43 0 .283.173.457.456.457h2.358c.327 0 .541.218.541.54v1.04c0 .327.218.54.54.54h.218c.322 0 .54.218.54.54v.996c0 .327-.218.54-.54.54h-.218a.512.512 0 00-.54.54v1.08c0 .328-.219.54-.541.54h-2.576c-.154 0-.238.085-.238.239 0 .153.084.238.238.238h3.265c.129 0 .218.084.218.218 0 .133.045.128.084.02.977-2.037 1.556-4.673 1.883-7.423.045-.347.283-.54.63-.476l1.754.238c.302.064.495.302.455.63-.109.713-.218 1.426-.366 2.14-.065.391.129.649.54.649h3.354c.327 0 .541.218.541.54v1.69l.019.005zm7.596-1.234l-.064.193v13.998c0 .322-.218.54-.54.54h-1.754a.512.512 0 01-.54-.54V24.96c0-.604-.258-.693-.669-.237l-.129.153c-.347.367-.694.283-.907-.173a21.216 21.216 0 00-.996-1.992.562.562 0 01.109-.694c1.665-1.665 3.266-4.088 4.286-6.58.129-.282.392-.411.694-.327l1.729.585c.347.109.476.391.347.713-.456 1.04-.951 2.101-1.536 3.137-.02.02-.02.064-.02.084l-.01.015zm14.132 13.438c0 .327-.218.54-.54.54h-12.16c-.327 0-.54-.218-.54-.54v-1.73c0-.327.218-.54.54-.54h5.669a.534.534 0 00.52-.391c.605-2.294 1.214-5.366 1.472-7.963.044-.347.302-.54.629-.495l2.14.347c.323.044.496.302.456.629a87.329 87.329 0 01-1.709 7.184c-.129.412.064.694.52.694h2.468c.322 0 .54.218.54.54v1.73l-.005-.005zm8.443-3.221c-.327.02-.54-.193-.585-.52a5.675 5.675 0 00-.084-.456c-.129-.565-.282-.54-.282.064v4.955c0 .327-.218.54-.54.54h-1.383c-.327 0-.54-.218-.54-.54V21.508a.247.247 0 00-.258-.258c-.173 0-.282.11-.282.258v8.116c0 .327-.218.54-.54.54h-1.06c-.323 0-.541-.218-.541-.54v-10.43c0-.327.218-.54.541-.54h1.6c.322 0 .54-.218.54-.54v-2.641c0-.322.218-.54.54-.54h1.383c.322 0 .54.218.54.54v2.64c0 .328.218.54.54.54h1.556c.327 0 .54.219.54.54v8.117c0 .867-.084 1.645-.565 2.076-.347.327-.694.431-1.125.476h.005zm12.833 2.66a17.26 17.26 0 00-1.06 1.472c-.173.283-.456.392-.733.218a7.845 7.845 0 01-2.423-2.21c-.327-.455-.496-.41-.431.154l.019.476c.02.302-.153.54-.431.584l-5.604.996c-.327.045-.565-.109-.629-.41l-.347-1.537c-.084-.347.109-.605.456-.65a5.81 5.81 0 01.649-.083.537.537 0 00.476-.54v-4.088a.409.409 0 00-.431-.431c-.283 0-.456-.174-.456-.456V24.5c0-.258.193-.456.476-.456.257 0 .455-.194.455-.476v-7.422c0-.327.218-.54.541-.54h8.329c.327 0 .54.218.54.54v1.298c0 .327-.218.54-.54.54h-5.822c-.174 0-.283.109-.283.282 0 .174.109.283.283.283h5.193c.327 0 .54.218.54.54v1.08c0 .327-.218.54-.54.54h-5.193c-.174 0-.283.11-.283.282 0 .174.109.283.283.283h5.193c.327 0 .54.218.54.54v1.08c0 .327-.218.54-.54.54h-5.173a.295.295 0 00-.303.303c0 .173.129.302.303.302h6.471c.322 0 .54.218.54.54v1.343c0 .322-.218.54-.54.54h-.218c-.476 0-.565.218-.218.52l.887.823c.282.237.257.564-.02.802a24.05 24.05 0 01-1.472 1.125c-.282.218-.327.54-.064.778.411.391.867.713 1.382.996.456.258.54.604.193 1.016h.005zm20.563-3.056c0 .331-.223.554-.555.554h-2.026c-.332 0-.555-.223-.555-.555v-.223c0-.332-.223-.555-.555-.555h-8.508c-.287 0-.49.179-.555.466-.421 2.072-1.248 4.187-2.804 5.768-.268.243-.58.198-.823-.045a16.585 16.585 0 00-1.402-1.293c-.376-.287-.401-.644-.064-.981 2.135-2.25 2.338-5.322 2.338-7.705l-.014-7.1c0-.446.287-.645.713-.536l.758.199s.065.02.089.02h.313c1.694-.447 8.487-1.784 9.686-2.409l.075-.04a.59.59 0 01.624.09l1.021 1.402c.376.332.312.689-.134.892-1.605.644-8.067 1.908-9.786 2.309-.268.045-.446.218-.446.486 0 0 .01.069.089.069h11.976c.332 0 .555.223.555.555v8.617l-.01.014zm10.668 1.694c-.302-.347-.564-.302-.564.174v2.551c0 .327-.218.54-.541.54h-1.818c-.327 0-.54-.218-.54-.54v-1.298c0-.931-.367-1.06-.996-.367-.238.258-.456.496-.694.714-.257.218-.565.173-.778-.084-.302-.392-.693-.803-1.04-1.17-.302-.302-.302-.649.064-.931a13.241 13.241 0 002.314-2.359c.347-.456.174-.803-.431-.803h-1.318c-.327 0-.54-.218-.54-.54V25.64c0-.327.218-.54.54-.54h2.339c.322 0 .54-.218.54-.54v-.173a.512.512 0 00-.54-.54h-2.403a.512.512 0 01-.54-.54v-1.343c0-.327.218-.54.54-.54h.495c.367 0 .585-.238.496-.605a5.194 5.194 0 00-.194-.738c-.109-.302.02-.56.367-.65.322-.084.322-.128-.02-.128h-.887a.512.512 0 01-.54-.54v-1.318c0-.327.218-.54.54-.54h2.141c.322 0 .54-.218.54-.54v-.67c0-.326.218-.54.54-.54h1.819c.327 0 .54.219.54.54v.67c0 .327.218.54.54.54h2.14c.322 0 .54.218.54.54v1.318c0 .322-.218.54-.54.54h-.669c-.282 0-.282.044 0 .084.258.045.367.238.238.476v.044c-.109.283-.218.496-.327.734-.218.475 0 .778.496.778h.391c.327 0 .54.218.54.54v1.343c0 .322-.218.54-.54.54h-2.274a.512.512 0 00-.54.54v.173c0 .327.218.54.54.54h2.056c.322 0 .54.218.54.54v1.407c0 .327-.218.54-.54.54h-1.016c-.951 0-1.06.367-.302.907l.996.758c.282.218.327.52.109.778l-.932 1.17c-.257.302-.629.257-.886-.045l.009.01zm12.314-7.294c0 .327-.219.54-.541.54h-.649c-.327 0-.54.219-.54.54v8.875c0 .327-.218.54-.54.54h-1.818c-.327 0-.54-.218-.54-.54v-8.874c0-.328-.218-.54-.54-.54h-.476c-.302 0-.52.218-.54.52-.109 2.79-.63 6.426-2.641 8.978-.258.347-.63.302-.907-.02a8.73 8.73 0 00-1.125-1.06c-.327-.258-.391-.605-.129-.932 1.819-2.442 1.992-5.623 1.992-8.22v-6.446c0-.431.283-.63.694-.52l.733.193s.065.02.085.02h.302c1.645-.432 3.265-1.016 4.434-1.62h.045a.577.577 0 01.605.083l1.491 1.363c.367.327.302.669-.129.867-1.556.63-3.335 1.105-4.999 1.492a.514.514 0 00-.431.52v1.472c0 .327.218.54.54.54h5.083c.322 0 .541.218.541.54v1.69zm19.859 5.6c0 .331-.223.554-.555.554h-2.027c-.332 0-.555-.223-.555-.555v-.223c0-.332-.222-.555-.554-.555h-8.508c-.288 0-.491.179-.555.466-.421 2.072-1.249 4.187-2.805 5.768-.267.243-.579.198-.822-.045a16.74 16.74 0 00-1.402-1.293c-.377-.287-.402-.644-.065-.981 2.136-2.25 2.339-5.322 2.339-7.705l-.015-7.1c0-.446.287-.645.714-.536l.758.199s.064.02.089.02h.312c1.695-.447 8.488-1.784 9.687-2.409l.074-.04a.592.592 0 01.625.09l1.02 1.402c.377.332.313.689-.133.892-1.606.644-8.067 1.908-9.786 2.309-.268.045-.446.218-.446.486 0 0 .01.069.089.069h11.976c.332 0 .555.223.555.555v8.617l-.01.014zm13.913-4.623c0-1.16.942-2.106 2.106-2.106 1.165 0 2.106.941 2.106 2.106a2.104 2.104 0 01-2.106 2.105 2.105 2.105 0 01-2.106-2.105z" fill="#F25252"/><path d="M188.522 29.342l-1.383.02c-.109 0-.218.064-.257.153l-.02.02c-.064.109-.02.193.084.238.411.154.823.327 1.234.476.129.044.282.02.367-.085.084-.109.173-.218.238-.347.193-.282.064-.475-.258-.475h-.005zm6.124-3.032c-.084-.323-.237-.347-.431-.045l-.064.084c-.154.238-.367.218-.52.02l-.476-.565c-.283-.302-.476-.218-.476.193v.367c0 .193-.129.322-.327.322h-4.023c-.084 0-.084.02 0 .02.084.02.109.084.064.154l-.064.128c-.084.154-.02.258.153.258 1.556-.02 3.162-.064 4.737-.084.218 0 .347.129.322.347l-.044 1.407a.328.328 0 01-.322.302l-1.234.045c-.154 0-.258.084-.302.237-.194.565-.412 1.08-.714 1.537-.129.193-.084.39.129.495.302.154.605.327.887.476.084.044.218.064.302 0 1.363-.734 2.403-1.69 3.201-2.854.045-.085.065-.218.02-.303a21.44 21.44 0 01-.823-2.551l.005.01zm2.744-4.891h-.713c-.238.02-.347.173-.327.391.129.803.282 1.6.456 2.359.153.713.411.713.54 0 .153-.758.282-1.556.367-2.403.019-.218-.109-.367-.327-.347h.004z" fill="#F25252"/><path d="M332.879 19.813l-9.642-11.377c-2.314-2.73-6.521-4.424-10.976-4.424H39.006c-4.207 0-8.146 1.476-10.55 3.954l-11.02 11.376c-3.076 3.177-3.076 7.438 0 10.614l11.02 11.376c2.399 2.478 6.343 3.954 10.55 3.954h273.251c4.454 0 8.661-1.694 10.975-4.424l9.642-11.377c2.527-2.983 2.527-6.689 0-9.672h.005zm-20.622 24.482H39.006c-3.944 0-7.621-1.362-9.836-3.651L18.15 29.267c-2.72-2.804-2.72-6.431 0-9.236L29.17 8.655c2.215-2.285 5.892-3.652 9.836-3.652h273.251c4.172 0 8.086 1.56 10.217 4.073l9.642 11.376c2.195 2.587 2.195 5.802 0 8.389l-9.642 11.377c-2.131 2.512-6.045 4.073-10.217 4.073v.005z" fill="#FBD5A2"/><path d="M26.942 22.741c-1.16 0-2.106.942-2.106 2.106 0 1.165.941 2.106 2.106 2.106a2.104 2.104 0 002.106-2.106 2.104 2.104 0 00-2.106-2.106zm297.035 4.207a2.108 2.108 0 002.106-2.106 2.105 2.105 0 00-2.106-2.106 2.105 2.105 0 00-2.106 2.106c0 1.165.942 2.106 2.106 2.106z" fill="#FBD5A2"/><path d="M58.562 15.86H47.09a.512.512 0 00-.54.54v17.486c0 .326.218.54.54.54h1.645c.322 0 .54-.218.54-.54v-.11c0-.322.218-.54.54-.54h5.951c.302 0 .495.194.495.52 0 .303.194.496.52.496h1.775c.327 0 .54-.218.54-.54V16.4c0-.327-.218-.54-.54-.54h.005zm-2.294 14.478c0 .193-.13.327-.328.327h-6.342c-.193 0-.327-.129-.327-.327V18.763c0-.193.129-.327.327-.327h6.342c.194 0 .328.129.328.327v11.575zM45.967 15.641l-1.665-.52a.556.556 0 00-.693.367c-.843 2.532-2.166 5-3.613 6.709a.587.587 0 00-.064.649c.302.604.669 1.491.907 2.185.173.456.495.52.803.154.302-.392.475-.327.475.153v8.592c0 .327.218.54.54.54h1.754c.327 0 .54-.218.54-.54V19.799l.045-.174s0-.064.02-.084c.52-1.04.931-2.166 1.298-3.201.129-.302-.02-.585-.347-.694v-.005z" fill="#fff"/><path d="M55.38 20.705h-1.015a.512.512 0 01-.54-.54v-.907c0-.327-.218-.54-.54-.54h-1.19a.512.512 0 00-.54.54v.907c0 .327-.218.54-.54.54h-.842a.512.512 0 00-.54.54v1.04c0 .327.218.54.54.54h.842c.322 0 .54.218.54.54v.432c0 .327-.218.54-.54.54h-.495a.512.512 0 00-.54.54v4.48c0 .326.218.54.54.54h4.543c.328 0 .54-.219.54-.54v-4.48c0-.327-.218-.54-.54-.54h-.693a.512.512 0 01-.54-.54v-.431c0-.328.218-.54.54-.54h1.016c.322 0 .54-.219.54-.54v-1.041c0-.327-.218-.54-.54-.54h-.005zm-1.991 6.882c0 .193-.13.327-.327.327h-.67c-.193 0-.326-.129-.326-.327v-.907c0-.193.128-.327.327-.327h.669c.193 0 .327.13.327.327v.907zm27.423 3.722c-6.857-3.81-7.833-11.729-7.982-14.607v-.045l.045-.758c0-.347-.194-.565-.54-.565h-2.379c-.327 0-.54.193-.54.52-.109 3.072-.129 10.99-7.12 15.559-.431.282-.456.649-.045.971.605.476 1.145.996 1.536 1.491.218.238.496.303.758.11 3.137-2.186 5.084-5.02 6.273-7.879.367-.887.758-.887 1.125-.02 1.278 3.008 3.4 5.996 6.902 7.943.258.154.565.045.734-.218a8.682 8.682 0 011.342-1.516c.392-.367.367-.739-.109-.996v.01zm21.078-15.534H91.678c-.327 0-.54.218-.54.54v6.233c0 .694-.174.738-.476.11-.109-.219-.193-.412-.302-.605-.154-.258-.411-.347-.694-.238l-.366.153c-.52.218-.63.085-.303-.366a88.054 88.054 0 001.774-2.552c.218-.302.11-.63-.238-.778l-1.342-.604c-.283-.13-.565-.02-.714.257a38.622 38.622 0 01-1.298 2.339c-.084.173-.218.173-.347.044v-.044a.386.386 0 01-.02-.476c.585-.97 1.234-2.205 1.863-3.374.174-.347.045-.65-.302-.778l-1.452-.495c-.302-.11-.584.044-.693.346a33.092 33.092 0 01-1.041 2.641c-.064.154-.173.174-.258.065h-.044c-.11-.11-.238-.085-.322.044l-1.04 1.452a.553.553 0 00.044.694 24.022 24.022 0 011.754 2.185.525.525 0 01-.02.585l-.02.044-.322.456a.654.654 0 01-.367.218h-.044l-.694.045c-.347 0-.565.257-.52.584l.173 1.472a.536.536 0 00.585.476l1.58-.154c.347-.02.585.193.585.54v.129c0 .392-.257.604-.629.54l-1.105-.173c-.347-.065-.604.129-.63.495-.108 1.298-.321 2.616-.668 3.612-.11.327 0 .605.302.734.347.153.733.327 1.08.495.347.174.67.084.778-.302.174-.52.327-1.105.476-1.73.302-1.451.391-1.451.391.045v3.246c0 .327.218.54.54.54h1.472c.327 0 .54-.218.54-.54v-4.068c0-.996.238-1.04.456-.065.064.327.154.67.193.976.065.392.347.585.734.456l.237-.084c.431-.154.714.064.714.52v2.314c0 .327.218.54.54.54h1.58c.323 0 .54-.218.54-.54V18.891c0-.327.219-.54.54-.54h4.872c.322 0 .54.218.54.54v12.745c0 .282-.11.391-.392.41h-1.06c-.585-.019-.778.283-.585.823.129.392.258.803.322 1.145.065.282.283.476.565.476 1.254-.02 2.165-.11 2.854-.476.758-.431.976-1.08.976-2.359v-15.32a.512.512 0 00-.54-.54v-.02zm-13.76 7.833h-.109c-.347.02-.43-.128-.238-.41a.326.326 0 00.085-.11c.193-.238.391-.218.52.045 0 .02.02.02.02.044.109.238 0 .412-.283.431h.005zm3.008 4.044c0 .366-.065.391-.193.044l-.13-.302c-.064-.173-.217-.238-.39-.193l-1.19.391c-.257.085-.43-.044-.43-.327v-.931c0-.194.108-.327.282-.327l.064-.02c.173 0 .302.084.347.238.044.153.084.282.109.411.064.258.238.367.475.258l.605-.283c.282-.109.456 0 .456.302v.734l-.005.005z" fill="#fff"/><path d="M99.034 31.398c.238-.045.347-.258.327-.495a28.617 28.617 0 01-.109-1.408c-.02-.302-.238-.43-.52-.41-.194.019-.367.044-.52.044h-.803c-.193 0-.238-.154-.238-.63v-.668c0-.328.218-.54.54-.54h1.105c.322 0 .54-.219.54-.54v-1.126a.512.512 0 00-.54-.54h-.258c-.327 0-.54-.218-.54-.54v-.238c0-.326.218-.54.54-.54h.258c.322 0 .54-.218.54-.54V21.91c0-.193-.129-.327-.327-.327-.218 0-.302-.129-.218-.302.193-.456.391-.971.63-1.516.173-.347.02-.65-.347-.758l-.996-.258c-.367-.109-.63.084-.694.456-.11.54-.238 1.125-.392 1.645-.064.258.045.495.303.585.257.084.257.153-.02.153H96.08c-.347 0-.367-.084-.045-.193l.13-.045a.527.527 0 00.346-.584 14.285 14.285 0 00-.476-1.645c-.109-.258-.366-.367-.649-.283l-.758.258c-.302.109-.431.391-.347.694.154.495.303 1.06.367 1.536.02.153-.064.257-.218.257-.174 0-.283.11-.283.258v1.382c0 .322.219.54.54.54h.283c.327 0 .54.218.54.54v.238c0 .322-.218.54-.54.54h-.282c-.327 0-.54.219-.54.54v1.383c0 .173.108.282.282.282.154 0 .258.11.258.258v.932c0 2.185.475 2.987 2.725 2.987h.802c.283 0 .565 0 .803-.064h.015zm25.019-6.753a11.684 11.684 0 01-2.616-1.279c-.302-.193-.327-.495-.129-.778a15.254 15.254 0 002.25-4.652c.084-.283-.045-.52-.302-.63l-1.298-.56a.508.508 0 00-.323-.02l-.282.045-.109.02h-1.581c-.366 0-.54-.258-.411-.63.129-.346-.02-.629-.367-.713l-1.754-.411c-.302-.084-.564.064-.649.367-.52 1.516-1.298 2.963-2.229 4.152-.496.604-.868.456-.868-.327v-3.052c0-.327-.218-.54-.54-.54h-6.297c-.327 0-.54.218-.54.54v6.035c0 .322.218.54.54.54h1.774c.322 0 .54.218.54.54v6.555a.417.417 0 01-.347.412c-.218.044-.347-.085-.347-.283v-5.495c0-.327-.218-.54-.54-.54h-1.318c-.327 0-.54.218-.54.54v5.887a.488.488 0 01-.412.475c-.237.065-.391.258-.346.496l.322 1.883c.064.346.327.52.669.43 2.229-.52 4.974-1.144 7.596-1.773a.55.55 0 00.411-.585l-.174-1.556c-.044-.366-.302-.54-.649-.475-.347.084-.693.153-1.015.218-.412.084-.669-.13-.669-.52v-.996c0-.328.218-.54.54-.54h.996c.322 0 .54-.258.54-.585 0-.367.153-.431.366-.154.238.302.431.65.585.907.02 0 .02.044.02.044l.064.194s.02.064.02.084v5.906c0 .322.218.54.54.54h1.883c.193 0 .327-.128.327-.327 0-.198.129-.327.322-.327h2.512c.174 0 .303.13.303.303s.128.302.302.302h2.012c.327 0 .54-.218.54-.54v-6.71c0-.084.044-.193.084-.282.238-.391.565-.802.867-1.189.347-.431.238-.778-.282-.971l.009.025zm-13.418-4.737c0 .193-.128.322-.322.322h-1.407c-.193 0-.322-.129-.322-.322V18.5c0-.193.129-.326.322-.326h1.407c.194 0 .322.128.322.326v1.408zm6.234 3.354a12.336 12.336 0 01-3.092 1.947c-.109.045-.193 0-.193-.128 0-.13-.085-.218-.218-.218h-1.536c-.194 0-.322-.13-.322-.322v-1.452c0-.193.128-.322.322-.322h1.233c.194 0 .327-.13.327-.327v-.758c0-.392.218-.496.521-.238.431.347.887.758 1.233 1.08.154.129.328.129.476-.02.109-.109.193-.238.302-.367.194-.193.392-.193.541.045l.455.65c.109.153.109.326-.044.43h-.005zm.931-3.855a.27.27 0 01.218-.109h1.472c.302 0 .431.194.282.456-.193.367-.411.714-.649 1.06-.129.218-.347.218-.495.02a12.368 12.368 0 01-.843-1.17.227.227 0 01.02-.257h-.005zm2.726 11.446c0 .194-.129.327-.323.327h-2.487c-.193 0-.322-.129-.322-.327v-1.382c0-.193.129-.322.322-.322h2.487c.194 0 .323.129.323.322v1.382zm-.476-4.197h-2.056c-.714 0-.778-.237-.194-.629.347-.258.694-.495 1.016-.778a.325.325 0 01.431 0c.302.258.629.496.976.739.649.43.585.668-.173.668zm25.687 4.98a6.386 6.386 0 01-1.883-1.754c-.218-.283-.128-.585.154-.758.54-.347 1.125-.714 1.665-1.105.302-.218.347-.54.064-.823l-1.144-1.189c-.238-.238-.54-.218-.778 0s-.476.431-.733.65c-.367.282-.694.192-.823-.259l-.129-.495c-.109-.391.109-.65.496-.65h2.205c.327 0 .54-.217.54-.54v-8.527c0-.327-.218-.54-.54-.54h-8.463c-.327 0-.541.218-.541.54v.778c0 .803-.322.907-.867.347a22.597 22.597 0 00-2.403-2.23l-.044-.044a.587.587 0 00-.322-.11h-1.839a.563.563 0 00-.495.328 13.279 13.279 0 01-2.988 4.068c-.327.282-.327.63-.02.907.411.41.887.95 1.189 1.382 0 .02.02.064.045.084l.044.193s.02.065.02.085v.153c0 .218.154.367.367.367h.887c.327 0 .54.238.54.565 0 .327-.218.584-.54.584h-1.516c-.327 0-.54.218-.54.54v1.408c0 .327.218.54.54.54h1.516c.327 0 .54.218.54.54v1.407c0 .887-.084.887-.302.045-.065-.327-.154-.63-.218-.932-.085-.302-.347-.456-.649-.366l-.887.237c-.303.065-.456.347-.392.65.174.738.347 1.555.456 2.274.045.391.322.584.714.476l.802-.238c.283-.085.476.064.476.346 0 .283-.193.52-.476.565l-1.883.258c-.346.045-.54.302-.455.65l.346 1.58c.065.302.303.476.605.411 1.838-.282 4.068-.63 6.208-1.016a.543.543 0 01.63.392l.084.327c.084.302.327.456.629.391 1.556-.347 3.355-.758 5.064-1.17a.549.549 0 00.411-.584l-.084-.669c-.084-.693.065-.713.412-.129.693 1.08 1.555 1.968 2.66 2.661.283.174.585.084.758-.193.283-.456.669-.971 1.061-1.407.322-.392.257-.734-.174-.996v-.005zm-15.405-12.14c.392-.495.734-.971 1.061-1.452.129-.193.327-.218.495-.044.456.476.887 1.016 1.279 1.536.218.282.109.495-.258.495h-2.314c-.431 0-.52-.218-.258-.54l-.005.005zm5.495 11.293c0 .173-.109.302-.257.327h-.045c-.193.044-.327-.065-.347-.258v-.174c-.019-.193-.173-.326-.366-.302l-1.928.283c-.218.044-.366-.085-.366-.303v-.064c0-.258.173-.391.411-.327l.996.282c.173.065.322-.02.391-.193.258-.713.565-1.71.887-2.66.065-.219-.02-.392-.238-.432l-1.516-.347c-.193-.044-.367.065-.391.283-.065.366-.129.803-.194 1.234-.173.931-.346.906-.346-.045v-1.625c0-.193.128-.322.327-.322h1.863c.193 0 .327-.13.327-.327V23.98c0-.193-.129-.327-.327-.327h-1.863c-.194 0-.327-.128-.327-.327v-.495c0-.193.128-.327.327-.327h1.471c.193 0 .327-.129.327-.327V20.21c0-.065.02-.154.084-.194l.541-.649c.322-.391.564-.327.564.218v11.209l-.005-.006zm2.79-12.205c0-.193.129-.326.327-.326h3.265c.194 0 .327.128.327.326v.283c0 .193-.128.327-.327.327h-3.265c-.193 0-.327-.129-.327-.327v-.283zm1.67 11.62c-.431.064-.867.173-1.278.238-.238.064-.392-.065-.392-.303v-4.563c0-.193.129-.327.327-.327h.084c.174 0 .303.109.322.258.303 1.555.669 2.963 1.19 4.241.084.218 0 .391-.258.456h.005zm-1.343-7.571c-.193 0-.327-.13-.327-.327v-.303c0-.193.129-.322.327-.322h3.265c.194 0 .327.13.327.322v.303c0 .193-.128.327-.327.327h-3.265zm27.656-6.58h-8.939a.54.54 0 00-.54.54v1.754c0 .298.242.54.54.54h8.939a.54.54 0 00.54-.54v-1.754a.54.54 0 00-.54-.54zm-10.71 4.241l-1.794-.669a.522.522 0 00-.669.218c-1.233 2.012-3.092 4.004-4.89 5.386-.283.218-.322.54-.084.843.411.495.906 1.124 1.253 1.62.218.302.54.347.803.109l.193-.154.045-.044c.347-.347.604-.238.604.282V33.9c0 .327.218.54.54.54h1.928c.327 0 .54-.218.54-.54V23.837c0-.129.045-.258.109-.347a25.54 25.54 0 001.709-2.423c.194-.322.085-.63-.282-.778l-.005.005zm11.233 1.472h-10.321c-.327 0-.54.218-.54.54v1.754c0 .322.218.54.54.54h4.563c.322 0 .54.218.54.54v5.886c0 .283-.128.367-.495.367-.258 0-1.041 0-1.819-.02-.54-.02-.758.283-.584.803.193.565.366 1.19.475 1.73a.545.545 0 00.565.475c1.517 0 2.726-.065 3.612-.476 1.041-.456 1.299-1.278 1.299-2.814V25.14c0-.327.218-.54.54-.54h1.625c.327 0 .54-.218.54-.54v-1.754a.512.512 0 00-.54-.54zm-17.531-.541c.194.302.496.392.778.174 1.73-1.254 3.548-3.008 4.975-4.718.258-.346.174-.668-.218-.842l-1.818-.738a.557.557 0 00-.669.173c-.907 1.214-2.448 2.661-3.875 3.657-.302.218-.347.54-.129.842.322.456.669.996.951 1.452h.005zm27.246-3.428h-.937a.383.383 0 00-.381.317l-3.142 14.191c-.064.287.08.476.382.476h.936a.383.383 0 00.382-.317l3.141-14.191c.065-.288-.079-.476-.381-.476zm24.171.852h-3.355c-.411 0-.604-.258-.54-.65.154-.713.258-1.426.367-2.14.044-.327-.154-.56-.456-.63l-1.754-.237c-.347-.064-.585.129-.629.476-.327 2.75-.907 5.386-1.883 7.422-.045.11-.085.11-.085-.02 0-.128-.084-.218-.218-.218h-3.265c-.153 0-.238-.084-.238-.237 0-.154.085-.238.238-.238h2.577c.327 0 .54-.218.54-.54v-1.08c0-.327.218-.54.54-.54h.218c.322 0 .54-.219.54-.54v-.997c0-.327-.218-.54-.54-.54h-.218a.512.512 0 01-.54-.54v-1.04c0-.327-.218-.54-.54-.54h-2.359c-.282 0-.456-.174-.456-.456 0-.258-.173-.431-.431-.431h-1.645c-.282 0-.456.173-.456.43 0 .283-.173.457-.431.457h-2.165c-.327 0-.54.218-.54.54v1.04c0 .327-.218.54-.54.54h-.174a.512.512 0 00-.54.54v.996c0 .327.218.54.54.54h.174c.322 0 .54.218.54.54v1.08c0 .328.218.54.54.54h2.359c.153 0 .237.085.237.239 0 .153-.084.237-.237.237h-2.726a.512.512 0 00-.54.54v2.964c0 .327.218.54.54.54h1.967c.194 0 .258.109.174.282a.58.58 0 01-.476.302c-.887.02-1.709.02-2.443.02-.346 0-.565.218-.54.56l.02 1.04c.02.303.238.52.565.52l.52-.019c.585 0 .778.327.456.823l-.084.153c-.258.412-.154.733.327.867l1.471.327c.045.02.085.02.129 0l.045-.02.084-.02.193.085c.129.064.129.129-.019.173-.669.174-1.408.303-2.27.412-.604.064-.758.391-.495.931.153.283.282.605.391.907.084.302.327.476.649.411 1.819-.302 3.266-.713 4.415-1.298a.567.567 0 01.52 0c.565.302 1.081.605 1.517.887a.53.53 0 00.693-.065l.843-.842c.257-.258.584-.238.802.065.174.282.347.54.476.802.193.322.495.431.823.238a12.038 12.038 0 002.294-1.947c.302-.327.629-.302.906.02a9.72 9.72 0 001.883 1.883c.283.193.585.128.778-.174.302-.431.714-.931 1.08-1.343.303-.346.283-.693-.084-.951-.907-.65-1.665-1.492-2.274-2.468a.467.467 0 01-.02-.475v-.045c.867-1.927 1.382-4.197 1.69-6.857a.56.56 0 01.565-.476c.302 0 .54-.218.54-.52v-1.69c0-.327-.218-.54-.54-.54l-.02-.005zm-11.793-1.036h.282c.129 0 .238.11.238.238 0 .154-.109.258-.238.258h-.282a.247.247 0 01-.258-.258c0-.129.109-.238.258-.238zm0 2.25h.282c.129 0 .238.109.238.238 0 .153-.109.257-.238.257h-.282a.247.247 0 01-.258-.257c0-.13.109-.238.258-.238zm-3.072 5.108h-.52c-.174 0-.283-.109-.283-.282 0-.174.109-.282.283-.282h.52c.173 0 .282.108.282.282 0 .173-.109.282-.282.282zm.04-4.613h-.219a.247.247 0 01-.257-.257c0-.13.109-.238.257-.238h.219c.128 0 .237.109.237.238 0 .153-.109.257-.237.257zm0-2.25h-.219a.247.247 0 01-.257-.257c0-.129.109-.238.257-.238h.219c.128 0 .237.11.237.238 0 .154-.109.258-.237.258zm3.052 6.299h.584c.174 0 .283.108.283.282 0 .173-.109.282-.283.282h-.584c-.174 0-.283-.109-.283-.282 0-.174.109-.282.283-.282zm-.456 5.41c-.065.13-.154.238-.238.347-.084.11-.238.129-.367.084-.411-.153-.822-.327-1.233-.475-.109-.045-.154-.13-.085-.238l.02-.02a.312.312 0 01.258-.154l1.382-.02c.322 0 .456.194.258.476h.005zm6.664-.649c-.802 1.17-1.838 2.12-3.201 2.854-.084.065-.218.045-.302 0-.282-.153-.585-.327-.887-.475-.218-.11-.257-.303-.129-.496.303-.456.521-.971.714-1.536.044-.154.154-.238.302-.238l1.234-.044c.173 0 .302-.13.322-.303l.045-1.407c.019-.218-.109-.347-.322-.347-1.581.02-3.182.065-4.737.085-.174 0-.238-.11-.154-.258l.064-.129c.045-.064.02-.129-.064-.153-.084 0-.084-.02 0-.02h4.023c.194 0 .327-.13.327-.322v-.367c0-.411.194-.496.476-.193l.476.565c.153.193.366.218.52-.02l.064-.085c.194-.302.347-.282.432.045.237.907.495 1.754.822 2.552.045.084.02.218-.02.302l-.005-.01zm1.908-5c-.129.714-.391.714-.54 0a40.315 40.315 0 01-.456-2.358c-.02-.218.084-.367.327-.391h.714c.218-.02.346.128.327.346a25.935 25.935 0 01-.367 2.404h-.005zm25.384 6.645h-2.468c-.456 0-.649-.283-.52-.694a87.329 87.329 0 001.709-7.184c.045-.323-.128-.585-.455-.63l-2.141-.347c-.327-.044-.585.154-.629.496-.258 2.596-.867 5.668-1.472 7.962a.534.534 0 01-.52.392h-5.669c-.327 0-.54.218-.54.54v1.73c0 .326.218.54.54.54h12.16c.322 0 .54-.219.54-.54v-1.73c0-.327-.218-.54-.54-.54l.005.005zM210.36 15.706l-1.729-.585c-.303-.084-.565.045-.694.327-1.016 2.488-2.616 4.91-4.286 6.58a.562.562 0 00-.109.694c.322.565.713 1.343.996 1.992.218.456.565.54.907.173l.128-.153c.412-.456.669-.367.669.238v8.874c0 .322.218.54.54.54h1.754c.323 0 .541-.218.541-.54V19.848l.064-.193s0-.065.02-.084c.584-1.04 1.08-2.101 1.536-3.137.129-.327 0-.604-.347-.713l.01-.015z" fill="#fff"/><path d="M213.887 22.068l-1.645.282c-.327.045-.52.302-.431.65.475 2.23.842 4.845.951 6.708.02.392.283.605.649.52l1.839-.39c.282-.045.455-.258.431-.54-.129-1.884-.63-4.59-1.17-6.839-.084-.282-.327-.43-.629-.391h.005zm-3.485-3.073v1.73c0 .327.218.54.54.54h11.427c.327 0 .54-.218.54-.54v-1.73c0-.326-.218-.54-.54-.54h-3.831c-.327 0-.54-.218-.54-.54V15.75c0-.327-.218-.54-.54-.54h-1.947c-.327 0-.54.218-.54.54v2.165c0 .322-.218.54-.54.54h-3.484a.512.512 0 00-.54.54h-.005zm33.953 12.507a6.385 6.385 0 01-1.382-.996c-.258-.238-.218-.565.064-.778a24.05 24.05 0 001.472-1.125c.282-.238.302-.565.02-.802l-.887-.823c-.347-.302-.258-.52.218-.52h.218c.322 0 .54-.218.54-.54v-1.343c0-.327-.218-.54-.54-.54h-6.471a.295.295 0 01-.303-.302c0-.174.129-.303.303-.303h5.172c.328 0 .541-.218.541-.54v-1.08c0-.327-.218-.54-.541-.54h-5.192c-.174 0-.283-.109-.283-.282 0-.174.109-.283.283-.283h5.192c.328 0 .541-.218.541-.54v-1.08c0-.322-.218-.54-.541-.54h-5.192c-.174 0-.283-.11-.283-.283s.109-.282.283-.282h5.822c.327 0 .54-.218.54-.54v-1.298c0-.327-.218-.54-.54-.54h-8.33c-.327 0-.54.218-.54.54v7.422c0 .283-.193.476-.455.476-.283 0-.476.193-.476.456v1.516c0 .282.173.456.456.456.257 0 .431.173.431.43v4.089a.537.537 0 01-.476.54 7.2 7.2 0 00-.649.084c-.347.045-.54.302-.456.65l.347 1.535c.064.302.302.456.629.411l5.604-.995c.283-.045.456-.283.431-.585l-.019-.476c-.065-.56.109-.604.431-.154a7.953 7.953 0 002.423 2.21c.282.174.565.065.733-.218a17.26 17.26 0 011.06-1.471c.347-.412.258-.758-.193-1.016h-.005zm-5.232-.713l-1.492.217c-.218.045-.366-.084-.366-.302V26.79c0-.193.128-.327.327-.327h.322c.153 0 .282.109.327.258.282 1.317.649 2.532 1.125 3.592.109.258.019.43-.238.476h-.005zm3.374-3.786l-.887.803c-.193.153-.391.109-.495-.13-.104-.237-.194-.52-.283-.777-.084-.258.02-.431.302-.431h1.145c.456 0 .54.218.218.54v-.005z" fill="#fff"/><path d="M233.408 19.194c0-.327-.218-.54-.54-.54h-1.556c-.327 0-.54-.218-.54-.54v-2.641a.512.512 0 00-.54-.54h-1.382c-.327 0-.54.218-.54.54v2.64c0 .328-.218.54-.541.54h-1.6a.512.512 0 00-.54.54v10.431c0 .327.218.54.54.54h1.06c.322 0 .54-.218.54-.54v-8.116c0-.154.109-.258.283-.258.153 0 .258.11.258.258v12.397c0 .327.218.54.54.54h1.382c.322 0 .54-.218.54-.54V28.95c0-.604.154-.63.283-.064.044.173.064.327.084.456.044.327.257.54.585.52.431-.045.777-.154 1.124-.476.476-.43.565-1.214.565-2.076v-8.116h-.005zm-2.081 8.027c0 .154-.044.193-.154.193h-.193c-.129 0-.218-.084-.218-.218v-5.668c0-.174.109-.283.283-.283.173 0 .282.11.282.283v5.693zm56.23-5.584h-5.084c-.327 0-.54-.218-.54-.54v-1.472c0-.258.174-.476.431-.52 1.665-.392 3.439-.867 5-1.492.431-.193.495-.54.129-.867l-1.492-1.362a.555.555 0 00-.604-.085h-.045c-1.169.605-2.789 1.19-4.434 1.62h-.303s-.064 0-.084-.02l-.733-.193c-.412-.109-.694.085-.694.52v6.447c0 2.597-.173 5.778-1.992 8.22-.258.327-.193.67.129.932a8.5 8.5 0 011.125 1.06c.282.327.649.367.906.02 2.012-2.552 2.532-6.189 2.641-8.978.02-.302.238-.52.541-.52h.475c.327 0 .54.218.54.54v8.874c0 .327.218.54.54.54h1.819c.322 0 .54-.218.54-.54v-8.874c0-.328.218-.54.54-.54h.649c.322 0 .54-.219.54-.54v-1.69c0-.327-.218-.54-.54-.54z" fill="#fff"/><path d="M277.492 29.252l-.996-.758c-.758-.54-.649-.907.302-.907h1.016c.322 0 .54-.218.54-.54V25.64c0-.327-.218-.54-.54-.54h-2.056a.512.512 0 01-.54-.54v-.174c0-.322.218-.54.54-.54h2.274c.327 0 .54-.218.54-.54v-1.343c0-.327-.218-.54-.54-.54h-.391c-.496 0-.714-.302-.496-.778.109-.238.218-.456.327-.733v-.045c.129-.238.02-.43-.238-.475-.282-.045-.282-.084 0-.084h.669c.322 0 .54-.219.54-.54v-1.319c0-.327-.218-.54-.54-.54h-2.14a.512.512 0 01-.54-.54V15.7c0-.327-.218-.54-.541-.54h-1.818c-.327 0-.54.218-.54.54v.67c0 .326-.218.54-.54.54h-2.141a.512.512 0 00-.54.54v1.317c0 .322.218.54.54.54h.887c.347 0 .347.045.02.13-.347.083-.476.346-.367.648.085.238.154.496.194.739.084.366-.129.604-.496.604h-.495a.512.512 0 00-.54.54v1.343c0 .322.218.54.54.54h2.403c.322 0 .54.218.54.54v.174c0 .327-.218.54-.54.54h-2.339c-.327 0-.54.218-.54.54v1.407c0 .327.218.54.54.54h1.318c.605 0 .778.347.431.803a13.59 13.59 0 01-2.314 2.358c-.366.283-.366.63-.064.932.347.367.733.778 1.04 1.17.218.257.521.302.778.084.238-.218.456-.456.694-.714.629-.694.996-.565.996.367v1.298c0 .327.218.54.54.54h1.818c.327 0 .541-.218.541-.54v-2.552c0-.476.257-.52.564-.173.258.302.63.347.887.044l.932-1.17c.218-.257.173-.564-.109-.777l-.01-.01zm-2.552-7.834h-2.423c-.282 0-.302-.044-.02-.129l.174-.044c.173-.045.257-.174.238-.347a8.665 8.665 0 00-.327-1.145c-.085-.282.019-.456.302-.456h1.645c.238 0 .367.154.302.392a19.36 19.36 0 01-.367 1.15c-.084.193.02.366.238.41l.258.045c.367.085.347.13-.02.13v-.006zm-10.379-1.129h-11.977c-.074 0-.089-.07-.089-.07 0-.267.184-.44.446-.485 1.715-.401 8.181-1.665 9.786-2.309.446-.198.511-.555.134-.892l-1.021-1.402a.589.589 0 00-.624-.09l-.074.04c-1.204.625-7.998 1.963-9.687 2.409h-.312s-.065 0-.09-.02l-.758-.198c-.421-.114-.713.089-.713.535l.015 7.1c0 2.383-.199 5.455-2.339 7.705-.332.332-.312.689.064.981.466.377 1.001.867 1.403 1.293.242.243.555.288.822.045 1.561-1.58 2.383-3.696 2.805-5.768.064-.287.267-.465.555-.465h8.507c.332 0 .555.223.555.555v.223c0 .332.223.555.555.555h2.027c.332 0 .555-.223.555-.555v-8.617c0-.332-.223-.555-.555-.555l.01-.015zm-2.587 5.213a.315.315 0 01-.332.332h-8.572c-.223 0-.332-.134-.332-.357V23.45c0-.198.134-.332.332-.332h8.572c.198 0 .332.134.332.332v2.052zm45.423-5.213H295.42c-.074 0-.089-.07-.089-.07 0-.267.184-.44.446-.485 1.715-.401 8.181-1.665 9.786-2.309.446-.198.511-.555.134-.892l-1.021-1.402a.589.589 0 00-.624-.09l-.074.04c-1.204.625-7.998 1.963-9.687 2.409h-.313s-.064 0-.089-.02l-.758-.198c-.421-.114-.713.089-.713.535l.015 7.1c0 2.383-.199 5.455-2.339 7.705-.332.332-.312.689.064.981.466.377 1.001.867 1.402 1.293.243.243.555.288.823.045 1.561-1.58 2.383-3.696 2.805-5.768.064-.287.267-.465.554-.465h8.508c.332 0 .555.223.555.555v.223c0 .332.223.555.555.555h2.027c.332 0 .555-.223.555-.555v-8.617c0-.332-.223-.555-.555-.555l.01-.015zm-2.582 5.213a.315.315 0 01-.332.332h-8.572c-.223 0-.332-.134-.332-.357V23.45c0-.198.134-.332.332-.332h8.572c.198 0 .332.134.332.332v2.052z" fill="#fff"/></g></svg>