<svg width="352" height="103" viewBox="0 0 352 103" fill="none" xmlns="http://www.w3.org/2000/svg"><path d="M36.475 80.42h-15.19c-5.88 0-10.66-3.33-10.66-7.42s4.78-7.42 10.66-7.42h36.55c.39 0 .71.32.71.71 0 .39-.32.71-.71.71h-36.55c-5.01 0-9.25 2.75-9.25 6s4.23 6 9.25 6h15.19v1.42z" fill="#58393E"/><path d="M32.195 80.42c-5.88 0-10.66-3.33-10.66-7.42s4.78-7.42 10.66-7.42v1.41c-5.01 0-9.25 2.75-9.25 6s4.23 6 9.25 6v1.43z" fill="#58393E"/><path d="M35.075 93.839H1.625c-.39 0-.71-.32-.71-.71 0-.39.32-.71.71-.71h33.46c5.01 0 9.25-2.75 9.25-6s-4.23-6-9.25-6v-1.41c5.88 0 10.66 3.33 10.66 7.42s-4.78 7.42-10.66 7.42l-.01-.01zm281.1-13.419h15.19c5.88 0 10.66-3.33 10.66-7.42s-4.78-7.42-10.66-7.42h-36.55c-.39 0-.71.32-.71.71 0 .39.32.71.71.71h36.55c5.01 0 9.25 2.75 9.25 6s-4.23 6-9.25 6h-15.19v1.42z" fill="#58393E"/><path d="M320.455 80.42c5.88 0 10.66-3.33 10.66-7.42s-4.78-7.42-10.66-7.42v1.41c5.01 0 9.25 2.75 9.25 6s-4.23 6-9.25 6v1.43z" fill="#58393E"/><path d="M317.565 93.839h33.46c.39 0 .71-.32.71-.71 0-.39-.32-.71-.71-.71h-33.46c-5.01 0-9.25-2.75-9.25-6s4.23-6 9.25-6v-1.41c-5.88 0-10.66 3.33-10.66 7.42s4.78 7.42 10.66 7.42v-.01z" fill="#58393E"/><path d="M95.375 71.17c3.47 3.47 3.47 9.09 0 12.55l-15.36 15.36c-3.47 3.47-9.09 3.47-12.55 0l-15.36-15.36c-3.47-3.47-3.47-9.09 0-12.55l15.36-15.36c3.47-3.47 9.09-3.47 12.55 0l15.36 15.36z" fill="#CF2027"/><path d="M73.736 102.319c-2.54 0-4.93-.99-6.73-2.79l-15.36-15.36a9.433 9.433 0 01-2.79-6.72c0-2.54.99-4.93 2.79-6.73l15.36-15.36c1.8-1.8 4.19-2.79 6.73-2.79s4.93.99 6.72 2.79l15.36 15.36c3.71 3.71 3.71 9.74 0 13.45l-15.36 15.36a9.434 9.434 0 01-6.72 2.79zm0-48.48c-2.2 0-4.27.86-5.83 2.41l-15.36 15.36a8.183 8.183 0 00-2.41 5.83c0 2.2.86 4.27 2.41 5.83l15.36 15.36a8.184 8.184 0 005.83 2.41c2.2 0 4.27-.86 5.83-2.41l15.36-15.36c3.21-3.21 3.21-8.44 0-11.66l-15.36-15.36a8.183 8.183 0 00-5.83-2.41z" fill="#58393E"/><path d="M92.295 72.059c2.97 2.97 2.97 7.79 0 10.77l-13.18 13.18a7.61 7.61 0 01-10.76 0l-13.18-13.18c-2.97-2.97-2.97-7.79 0-10.77l13.18-13.18c2.97-2.97 7.79-2.97 10.77 0l13.18 13.18h-.01z" fill="#F25252"/><path d="M73.735 98.55c-2.12 0-4.11-.82-5.61-2.32l-13.18-13.18a7.873 7.873 0 01-2.32-5.61c0-2.12.83-4.11 2.32-5.61l13.18-13.18c1.5-1.5 3.49-2.32 5.61-2.32s4.11.82 5.61 2.32l13.18 13.18c3.09 3.09 3.09 8.12 0 11.21l-13.18 13.18a7.873 7.873 0 01-5.61 2.32v.01zm0-41.58c-1.95 0-3.78.76-5.16 2.14l-13.18 13.18a7.247 7.247 0 00-2.14 5.16c0 1.95.76 3.78 2.14 5.16l13.18 13.18a7.247 7.247 0 005.16 2.14c1.95 0 3.78-.76 5.16-2.14l13.18-13.18c2.84-2.84 2.84-7.47 0-10.32l-13.18-13.18a7.247 7.247 0 00-5.16-2.14z" fill="#FBD5A2"/><path d="M70.375 81.419v2.01c0 .29.17.5.43.57 1.1.24 2.35.29 3.83.29 1.8.02 6.2.02 8.96-.05.72-.02.93.36.65 1.01-.24.55-.46 1.2-.6 1.75-.07.29-.31.48-.6.48h-8.43c-3.35 0-5.8-.34-7.59-1.84-.57-.5-.98-.41-1.17.34-.1.48-.24.91-.38 1.34-.14.41-.5.5-.89.29-.43-.24-.98-.53-1.44-.74-.34-.17-.46-.48-.34-.84.81-2.16.98-5.29 1.01-8.55 0-.38.26-.62.62-.6l1.68.1c.36 0 .57.24.57.6-.02.79-.05 1.58-.1 2.32v.1l.05.17c.1.31.22.6.34.84.26.55.5.48.5-.12v-4.34c0-.36-.24-.6-.6-.6h-3.02c-.36 0-.6-.24-.6-.6v-1.7c0-.36.24-.6.6-.6h2.52c.36 0 .6-.24.6-.6v-.48c0-.36-.24-.6-.6-.6h-1.96c-.36 0-.6-.24-.6-.6v-1.65c0-.36.24-.6.6-.6h1.96c.36 0 .6-.24.6-.6v-.86c0-.36.24-.6.6-.6h1.82c.36 0 .6.24.6.6v.86c0 .36.24.6.6.6h1.87c.36 0 .6.24.6.6v1.65c0 .36-.24.6-.6.6h-1.87c-.36 0-.6.24-.6.6v.48c0 .36.24.6.6.6h2.68c.07 0 .14.07.14.14 0 .1.05.14.1.1l.05-.05a5.42 5.42 0 001.92-2.56c.17-.43-.07-.74-.53-.74h-.65c-.36 0-.6-.24-.6-.6v-1.53c0-.36.24-.6.6-.6h8.98c.34 0 .55.22.55.55 0 .17-.02.38-.02.53-.14 3.67-.34 5.34-.89 6.01-.48.57-1.03.79-1.68.89-.48.07-1.17.12-1.99.1-.34 0-.55-.22-.62-.55-.05-.38-.14-.79-.29-1.2-.19-.62-.62-.6-.98-.05-.48.74-1.08 1.37-1.75 1.89-.24.17-.55.14-.77-.05-.22-.17-.48-.38-.74-.57-.41-.31-.69-.17-.69.34v.26c0 .36-.24.6-.6.6h-1.84c-.36 0-.6.24-.6.6v.84c0 .36.24.6.6.6h1.51c.36 0 .6.24.6.6v1.65c0 .36-.24.6-.6.6h-1.51c-.36 0-.6.24-.6.6v-.03zm3.83 1.2v-6.08c0-.36.24-.6.6-.6h7.88c.36 0 .6.24.6.6v6.08c0 .36-.24.6-.6.6h-7.88c-.36 0-.6-.24-.6-.6zm3.07-3.71v1.34c0 .22.14.36.36.36h2.01c.22 0 .36-.14.36-.36v-1.34c0-.22-.14-.36-.36-.36h-2.01c-.22 0-.36.14-.36.36zm2.95-8.99h-1.13c-.17 0-.31.12-.36.29-.14.65-.36 1.27-.6 1.82-.12.29 0 .5.31.53.46.02.86.02 1.1.02.26 0 .46-.05.62-.19.02 0 .05-.05.07-.07.14-.26.24-.81.34-2.01.02-.24-.12-.38-.36-.38l.01-.01z" fill="#fff"/><path d="M136.415 71.17c3.47 3.47 3.47 9.09 0 12.55l-15.36 15.36c-3.47 3.47-9.09 3.47-12.55 0l-15.36-15.36c-3.47-3.47-3.47-9.09 0-12.55l15.36-15.36c3.47-3.47 9.09-3.47 12.55 0l15.36 15.36z" fill="#CF2027"/><path d="M114.776 102.319c-2.54 0-4.93-.99-6.73-2.79l-15.36-15.36a9.433 9.433 0 01-2.79-6.72c0-2.54.99-4.93 2.79-6.73l15.36-15.36c1.8-1.8 4.19-2.79 6.73-2.79s4.93.99 6.72 2.79l15.36 15.36c3.71 3.71 3.71 9.74 0 13.45l-15.36 15.36a9.434 9.434 0 01-6.72 2.79zm0-48.48c-2.2 0-4.27.86-5.83 2.41l-15.36 15.36a8.183 8.183 0 00-2.41 5.83c0 2.2.86 4.27 2.41 5.83l15.36 15.36a8.184 8.184 0 005.83 2.41c2.2 0 4.27-.86 5.83-2.41l15.36-15.36c3.21-3.21 3.21-8.44 0-11.66l-15.36-15.36a8.183 8.183 0 00-5.83-2.41z" fill="#58393E"/><path d="M133.325 72.059c2.97 2.97 2.97 7.79 0 10.77l-13.18 13.18a7.61 7.61 0 01-10.76 0l-13.18-13.18c-2.97-2.97-2.97-7.79 0-10.77l13.18-13.18c2.97-2.97 7.79-2.97 10.77 0l13.18 13.18h-.01z" fill="#F25252"/><path d="M114.775 98.55c-2.12 0-4.11-.82-5.61-2.32l-13.18-13.18a7.873 7.873 0 01-2.32-5.61c0-2.12.83-4.11 2.32-5.61l13.18-13.18c1.5-1.5 3.49-2.32 5.61-2.32s4.11.82 5.61 2.32l13.18 13.18c3.09 3.09 3.09 8.12 0 11.21l-13.18 13.18a7.873 7.873 0 01-5.61 2.32v.01zm0-41.58c-1.95 0-3.78.76-5.16 2.14l-13.18 13.18a7.247 7.247 0 00-2.14 5.16c0 1.95.76 3.78 2.14 5.16l13.18 13.18a7.247 7.247 0 005.16 2.14c1.95 0 3.78-.76 5.16-2.14l13.18-13.18c2.84-2.84 2.84-7.47 0-10.32l-13.18-13.18a7.247 7.247 0 00-5.16-2.14z" fill="#FBD5A2"/><path d="M110.176 66.54l-1.99-.62c-.34-.1-.64.05-.76.39-1.08 2.83-2.78 5.63-4.53 7.53-.2.22-.25.52-.07.76v.05c.37.66.84 1.6 1.18 2.34.2.49.57.54.91.15.34-.39.57-.32.57.22v9.84c0 .37.25.61.61.61h1.99c.37 0 .61-.25.61-.61V71.53l.07-.2s0-.07.02-.1c.66-1.25 1.25-2.61 1.77-3.89.15-.37 0-.69-.39-.81l.01.01zm15.05 18.439h-1.9s.01-.06.01-.1v-12.93c0-.37-.19-.62-.48-.62h-3.72c-.15 0-.27-.15-.27-.34 0-.19.12-.34.27-.34h4.63c.29 0 .48-.25.48-.61v-1.57c0-.37-.19-.61-.48-.61h-4.42c-.29 0-.48-.25-.48-.61v-.3c0-.37-.19-.61-.48-.61h-1.84c-.29 0-.48.25-.48.61v.3c0 .37-.19.61-.48.61h-4.09c-.29 0-.48.25-.48.61v1.57c0 .37.19.61.48.61h4.3c.15 0 .27.15.27.34 0 .19-.12.34-.27.34h-3.34c-.29 0-.48.25-.48.62v12.93s.01.07.01.1h-2.16c-.29 0-.48.25-.48.61v1.53c0 .37.19.62.48.62h15.4c.29 0 .48-.25.48-.62v-1.53c0-.37-.19-.61-.48-.61zm-10.42-10.92h5.57c.15 0 .27.16.27.38s-.12.38-.27.38h-5.57c-.15 0-.27-.16-.27-.38s.12-.38.27-.38zm0 2.74h5.57c.15 0 .27.16.27.38s-.12.38-.27.38h-5.57c-.15 0-.27-.16-.27-.38s.12-.38.27-.38zm.02 2.79h5.53c.17 0 .29.16.29.41 0 .25-.12.41-.29.41h-5.53c-.17 0-.29-.16-.29-.41 0-.25.12-.41.29-.41zm0 2.71h5.53c.17 0 .29.16.29.41 0 .25-.12.41-.29.41h-5.53c-.17 0-.29-.16-.29-.41 0-.25.12-.41.29-.41z" fill="#fff"/><path d="M177.446 71.17c3.47 3.47 3.47 9.09 0 12.55l-15.36 15.36c-3.47 3.47-9.09 3.47-12.55 0l-15.36-15.36c-3.47-3.47-3.47-9.09 0-12.55l15.36-15.36c3.47-3.47 9.09-3.47 12.55 0l15.36 15.36z" fill="#CF2027"/><path d="M155.806 102.319c-2.54 0-4.93-.99-6.73-2.79l-15.36-15.36a9.433 9.433 0 01-2.79-6.72c0-2.54.99-4.93 2.79-6.73l15.36-15.36c1.8-1.8 4.19-2.79 6.73-2.79s4.93.99 6.72 2.79l15.36 15.36c3.71 3.71 3.71 9.74 0 13.45l-15.36 15.36a9.434 9.434 0 01-6.72 2.79zm0-48.48c-2.2 0-4.27.86-5.83 2.41l-15.36 15.36a8.183 8.183 0 00-2.41 5.83c0 2.2.86 4.27 2.41 5.83l15.36 15.36a8.184 8.184 0 005.83 2.41c2.2 0 4.27-.86 5.83-2.41l15.36-15.36c3.21-3.21 3.21-8.44 0-11.66l-15.36-15.36a8.183 8.183 0 00-5.83-2.41z" fill="#58393E"/><path d="M174.365 72.059c2.97 2.97 2.97 7.79 0 10.77l-13.18 13.18a7.61 7.61 0 01-10.76 0l-13.18-13.18c-2.97-2.97-2.97-7.79 0-10.77l13.18-13.18c2.97-2.97 7.79-2.97 10.77 0l13.18 13.18h-.01z" fill="#F25252"/><path d="M155.805 98.55c-2.12 0-4.11-.82-5.61-2.32l-13.18-13.18a7.873 7.873 0 01-2.32-5.61c0-2.12.83-4.11 2.32-5.61l13.18-13.18c1.5-1.5 3.49-2.32 5.61-2.32s4.11.82 5.61 2.32l13.18 13.18c3.09 3.09 3.09 8.12 0 11.21l-13.18 13.18a7.873 7.873 0 01-5.61 2.32v.01zm0-41.58c-1.95 0-3.78.76-5.16 2.14l-13.18 13.18a7.247 7.247 0 00-2.14 5.16c0 1.95.76 3.78 2.14 5.16l13.18 13.18a7.247 7.247 0 005.16 2.14c1.95 0 3.78-.76 5.16-2.14l13.18-13.18c2.84-2.84 2.84-7.47 0-10.32l-13.18-13.18a7.247 7.247 0 00-5.16-2.14z" fill="#FBD5A2"/><path d="M152.376 70.79l.14.02 1.34.19c.31.07.53.31.5.62-.24 3.71-.72 6.73-1.6 9.2-.07.24 0 .53.19.69.69.57 1.29 1.17 1.77 1.72.17.22.17.5.02.72l-1.25 1.65c-.29.38-.67.38-.98.02-.24-.31-.53-.62-.84-.93-.31-.34-.67-.29-.93.07a12.12 12.12 0 01-3.07 2.99c-.31.22-.65.12-.86-.19-.29-.48-.67-1.01-1.03-1.44-.34-.41-.29-.77.14-1.05 1.01-.69 1.84-1.58 2.56-2.68.14-.22.1-.43-.07-.6l-.05-.05-.07-.02-.05-.05c-.12-.07-.22-.02-.26.12-.05.17-.17.24-.34.14l-1.99-1.05a.574.574 0 01-.31-.67c.43-1.6.86-3.55 1.27-5.61.1-.43-.14-.72-.57-.72h-.26c-.36 0-.6-.24-.6-.6v-1.84c0-.36.24-.6.6-.6h1.05c.31 0 .53-.19.6-.5.19-1.15.36-2.28.53-3.35.05-.34.31-.55.65-.53l1.89.19c.36.05.57.34.53.69l-.5 2.78c-.1.43.14.72.57.72h.79l.38-.07h.1l.01.02zm-1.67 3.11h-.65c-.17 0-.31.12-.34.29-.26 1.37-.55 2.71-.86 3.98-.02.14.05.29.17.38.19.12.36.24.55.38.24.19.48.12.57-.17.43-1.37.72-2.85.91-4.46.02-.24-.12-.41-.36-.41l.01.01zm15.9 2.11v1.92c0 .36-.24.6-.6.6h-3.57c-.36 0-.6.24-.6.6v5.39c0 1.56-.31 2.42-1.27 2.95-.91.43-2.01.58-3.4.58-.31 0-.53-.19-.6-.48-.17-.55-.38-1.22-.62-1.82-.24-.58-.02-.91.6-.89.65 0 1.22.02 1.46 0h.05c.34 0 .46-.1.46-.38v-5.34c0-.36-.24-.6-.6-.6h-3.31c-.36 0-.6-.24-.6-.6v-1.92c0-.36.24-.6.6-.6h3.31c.36 0 .6-.24.6-.6v-1.37c0-.29.19-.48.5-.48h.22c.17 0 .31-.07.41-.19l.05-.05c.29-.36.6-.77.91-1.22.36-.55.14-.91-.5-.91h-4.72c-.36 0-.6-.24-.6-.6v-1.84c0-.36.24-.6.6-.6h7.81l.12-.02.31-.07c.17-.05.38 0 .53.1l1.46 1.13c.26.19.34.53.14.81-1.08 1.56-2.42 3.38-3.74 4.79-.1.1-.17.26-.17.41v.24c0 .29.19.48.48.48h3.69c.36 0 .6.24.6.6l-.01-.02z" fill="#fff"/><path d="M218.486 71.17c3.47 3.47 3.47 9.09 0 12.55l-15.36 15.36c-3.47 3.47-9.09 3.47-12.55 0l-15.36-15.36c-3.47-3.47-3.47-9.09 0-12.55l15.36-15.36c3.47-3.47 9.09-3.47 12.55 0l15.36 15.36z" fill="#CF2027"/><path d="M196.846 102.319c-2.54 0-4.93-.99-6.73-2.79l-15.36-15.36a9.433 9.433 0 01-2.79-6.72c0-2.54.99-4.93 2.79-6.73l15.36-15.36c1.8-1.8 4.19-2.79 6.73-2.79s4.93.99 6.72 2.79l15.36 15.36c3.71 3.71 3.71 9.74 0 13.45l-15.36 15.36a9.434 9.434 0 01-6.72 2.79zm0-48.48c-2.2 0-4.27.86-5.83 2.41l-15.36 15.36a8.183 8.183 0 00-2.41 5.83c0 2.2.86 4.27 2.41 5.83l15.36 15.36a8.184 8.184 0 005.83 2.41c2.2 0 4.27-.86 5.83-2.41l15.36-15.36c3.21-3.21 3.21-8.44 0-11.66l-15.36-15.36a8.183 8.183 0 00-5.83-2.41z" fill="#58393E"/><path d="M215.405 72.059c2.97 2.97 2.97 7.79 0 10.77l-13.18 13.18a7.61 7.61 0 01-10.76 0l-13.18-13.18c-2.97-2.97-2.97-7.79 0-10.77l13.18-13.18c2.97-2.97 7.79-2.97 10.77 0l13.18 13.18h-.01z" fill="#F25252"/><path d="M196.845 98.55c-2.12 0-4.11-.82-5.61-2.32l-13.18-13.18a7.873 7.873 0 01-2.32-5.61c0-2.12.83-4.11 2.32-5.61l13.18-13.18c1.5-1.5 3.49-2.32 5.61-2.32s4.11.82 5.61 2.32l13.18 13.18c3.09 3.09 3.09 8.12 0 11.21l-13.18 13.18a7.873 7.873 0 01-5.61 2.32v.01zm0-41.58c-1.95 0-3.78.76-5.16 2.14l-13.18 13.18a7.247 7.247 0 00-2.14 5.16c0 1.95.76 3.78 2.14 5.16l13.18 13.18a7.247 7.247 0 005.16 2.14c1.95 0 3.78-.76 5.16-2.14l13.18-13.18c2.84-2.84 2.84-7.47 0-10.32l-13.18-13.18a7.247 7.247 0 00-5.16-2.14z" fill="#FBD5A2"/><path d="M186.565 76.68c0-.36.24-.6.6-.6h.81c.36 0 .6.24.6.6v2.13c0 2.01-.1 4.34-.62 6.35-.17.58-.58.67-1.05.31-.19-.17-.41-.34-.6-.46h-.05a.701.701 0 01-.24-.72c.46-1.75.55-3.81.55-5.53v-2.08zm-.27-2.11v-1.65c0-.36.24-.6.6-.6h7.02c.36 0 .6.24.6.6v1.65c0 .36-.24.6-.6.6h-1.44c-.36 0-.6.24-.6.6v11.67c0 .36-.24.6-.6.6h-1.51c-.36 0-.6-.24-.6-.6V75.77c0-.36-.24-.6-.6-.6h-1.68c-.36 0-.6-.24-.6-.6h.01zm7.81-6.15v1.61c0 .36-.24.6-.6.6h-6.08c-.36 0-.6-.24-.6-.6v-1.61c0-.36.24-.6.6-.6h6.08c.36 0 .6.24.6.6zm-1.6 15.54v-7.31c0-.36.24-.6.6-.6h.81c.36 0 .6.24.6.6v7.31c0 .36-.24.6-.6.6h-.81c-.36 0-.6-.24-.6-.6zm13.15 1.3h1.41c.36 0 .6.24.6.6v1.2c0 .36-.24.6-.6.6h-11.93c-.36 0-.6-.24-.6-.6v-1.2c0-.36.24-.6.6-.6h1.72c.48 0 .72-.31.55-.72v-.05c-.1-.17-.17-.38-.26-.57-.17-.34-.05-.62.34-.72.36-.1.34-.17-.02-.17h-.93c-.36 0-.6-.24-.6-.6v-3.31c0-.36.24-.6.6-.6h9.27c.36 0 .6.24.6.6v3.31c0 .36-.24.6-.6.6h-.77c-.41 0-.41.07 0 .17.38.1.53.41.34.74v.05c-.1.12-.17.26-.24.38-.29.53-.07.89.53.89h-.01zm1.68-9.11v1.22c0 .36-.24.6-.6.6h-11.12c-.36 0-.6-.24-.6-.6v-1.22c0-.36.24-.6.6-.6h11.12c.36 0 .6.24.6.6zm-.29-7.73v5.94c0 .36-.24.6-.6.6h-10.61c-.36 0-.6-.24-.6-.6v-5.94c0-.36.24-.6.6-.6h1.75c.36 0 .6-.24.6-.6v-.19c0-.36.24-.6.6-.6h1.2c.36 0 .6.24.6.6v.31c0 .29.19.48.48.48s.48-.19.48-.48v-.31c0-.36.24-.6.6-.6h1.2c.36 0 .6.24.6.6v.19c0 .36.24.6.6.6h1.92c.36 0 .6.24.6.6h-.02zm-9.22 1.7c0 .22.14.36.36.36h.14c.22 0 .36-.14.36-.36 0-.22-.14-.36-.36-.36h-.14c-.22 0-.36.14-.36.36zm0 2.51c0 .22.14.36.36.36h.17c.19 0 .34-.14.34-.36 0-.19-.14-.33-.34-.33h-.17c-.22 0-.36.14-.36.33zm.81 8.12v.05c0 .22.14.36.36.36h4.22c.22 0 .36-.14.36-.36v-.05c0-.22-.14-.36-.36-.36h-4.22c-.22 0-.36.14-.36.36zm3.59 2.28h-2.01c-.38 0-.5.22-.34.55.22.46.41.93.53 1.34.02.12-.05.24-.17.26-.14.05-.14.07 0 .07h1.82c.12 0 .12-.02 0-.05-.12-.02-.17-.12-.12-.24.19-.46.43-.98.6-1.49.12-.26-.02-.46-.31-.46v.02zm-1.31-12.55h.26c.22 0 .36-.14.36-.36 0-.22-.14-.36-.36-.36h-.26c-.22 0-.36.14-.36.36 0 .22.14.36.36.36zm.28 1.82h-.29c-.22 0-.36.14-.36.33 0 .22.14.36.36.36h.29c.19 0 .34-.14.34-.36 0-.19-.14-.33-.34-.33zm3.12-2.18c0-.22-.14-.36-.36-.36h-.19c-.22 0-.36.14-.36.36 0 .22.14.36.36.36h.19c.22 0 .36-.14.36-.36zm0 2.51c0-.19-.14-.33-.34-.33h-.22c-.22 0-.36.14-.36.33 0 .22.14.36.36.36h.22c.19 0 .34-.14.34-.36z" fill="#fff"/><path d="M259.526 71.17c3.47 3.47 3.47 9.09 0 12.55l-15.36 15.36c-3.47 3.47-9.09 3.47-12.55 0l-15.36-15.36c-3.47-3.47-3.47-9.09 0-12.55l15.36-15.36c3.47-3.47 9.09-3.47 12.55 0l15.36 15.36z" fill="#CF2027"/><path d="M237.886 102.319c-2.54 0-4.93-.99-6.73-2.79l-15.36-15.36a9.433 9.433 0 01-2.79-6.72c0-2.54.99-4.93 2.79-6.73l15.36-15.36c1.8-1.8 4.19-2.79 6.73-2.79s4.93.99 6.72 2.79l15.36 15.36c3.71 3.71 3.71 9.74 0 13.45l-15.36 15.36a9.434 9.434 0 01-6.72 2.79zm0-48.48c-2.2 0-4.27.86-5.83 2.41l-15.36 15.36a8.183 8.183 0 00-2.41 5.83c0 2.2.86 4.27 2.41 5.83l15.36 15.36a8.184 8.184 0 005.83 2.41c2.2 0 4.27-.86 5.83-2.41l15.36-15.36c3.21-3.21 3.21-8.44 0-11.66l-15.36-15.36a8.183 8.183 0 00-5.83-2.41z" fill="#58393E"/><path d="M256.445 72.059c2.97 2.97 2.97 7.79 0 10.77l-13.18 13.18a7.61 7.61 0 01-10.76 0l-13.18-13.18c-2.97-2.97-2.97-7.79 0-10.77l13.18-13.18c2.97-2.97 7.79-2.97 10.77 0l13.18 13.18h-.01z" fill="#F25252"/><path d="M237.885 98.55c-2.12 0-4.11-.82-5.61-2.32l-13.18-13.18a7.873 7.873 0 01-2.32-5.61c0-2.12.83-4.11 2.32-5.61l13.18-13.18c1.5-1.5 3.49-2.32 5.61-2.32s4.11.82 5.61 2.32l13.18 13.18c3.09 3.09 3.09 8.12 0 11.21l-13.18 13.18a7.873 7.873 0 01-5.61 2.32v.01zm0-41.58c-1.95 0-3.78.76-5.16 2.14l-13.18 13.18a7.247 7.247 0 00-2.14 5.16c0 1.95.76 3.78 2.14 5.16l13.18 13.18a7.247 7.247 0 005.16 2.14c1.95 0 3.78-.76 5.16-2.14l13.18-13.18c2.84-2.84 2.84-7.47 0-10.32l-13.18-13.18a7.247 7.247 0 00-5.16-2.14z" fill="#FBD5A2"/><path d="M248.346 81.38v1.39c0 .36-.24.6-.6.6h-3.71c-.36 0-.6.24-.6.6v1.01c0 1.44-.29 2.2-1.32 2.63-.93.36-2.11.43-3.55.43-.31 0-.55-.22-.62-.5-.1-.48-.26-.98-.43-1.44-.22-.55 0-.91.6-.89h1.63c.36-.02.48-.07.48-.36v-.89c0-.36-.24-.6-.6-.6h-3.45c-.72 0-.81.29-.29.79l.48.46c.24.24.22.57-.07.81l-1.46 1.27c-.31.24-.65.19-.91-.1-.65-.72-1.58-1.56-2.47-2.25-.24-.19-.24-.46 0-.65s.19-.34-.12-.34h-3.31c-.36 0-.6-.24-.6-.6v-1.39c0-.36.24-.6.6-.6h11.91c.17 0 .29-.12.29-.31 0-.17-.12-.29-.29-.29-4.02.12-7.83.19-10.83.22-.34 0-.57-.24-.6-.58l-.05-1.13c-.02-.36.24-.62.6-.62 1.92.02 4.29.02 6.85.02.19 0 .31-.12.31-.31 0-.17-.12-.29-.29-.29h-5.46c-.36 0-.6-.24-.6-.6v-5.58c0-.36.24-.6.6-.6h5.49c.14 0 .26-.12.26-.29 0-.14-.12-.26-.26-.26h-7.31c-.36 0-.6-.24-.6-.6v-1.25c0-.36.24-.6.6-.6h6.97c.36 0 .6-.29.6-.65 0-.36.24-.65.6-.65h2.06c.36 0 .6.29.6.65 0 .36.24.65.6.65h6.95c.36 0 .6.24.6.6v1.25c0 .36-.24.6-.6.6h-7.26c-.17 0-.29.12-.29.26 0 .17.12.29.29.29h5.82c.36 0 .6.24.6.6v5.63c0 .34-.22.55-.53.55-.34 0-.36.12-.1.29.5.31.96.62 1.37.91.38.26.38.65.02.93l-1.01.84c-.24.19-.55.17-.79-.02l-.31-.24a.686.686 0 00-.38-.12l-.69.02h-.05c-.17.02-.29.14-.29.34 0 .22.12.34.34.34h3.98c.36 0 .6.24.6.6v.02zm-15.38-8.46c0 .17.12.29.29.29h2.71c.14 0 .26-.12.26-.29 0-.14-.12-.26-.26-.26h-2.71c-.17 0-.29.12-.29.26zm.29 2.66h2.68c.17 0 .29-.12.29-.29 0-.17-.12-.29-.29-.29h-2.68c-.17 0-.29.12-.29.29 0 .17.12.29.29.29zm9.41-2.92h-2.9c-.17 0-.29.12-.29.26 0 .17.12.29.29.29h2.9c.14 0 .26-.12.26-.29 0-.14-.12-.26-.26-.26zm.27 2.63c0-.17-.12-.29-.29-.29h-2.87c-.17 0-.29.12-.29.29 0 .17.12.29.29.29h2.87c.17 0 .29-.12.29-.29zm-1.78 2.2h-1.37c-.19 0-.31.12-.31.29 0 .19.12.31.31.31h1.49c.19 0 .19-.07.02-.14l-.05-.02c-.14-.07-.17-.19-.02-.29.12-.07.1-.14-.07-.14v-.01z" fill="#fff"/><path d="M300.556 71.17c3.47 3.47 3.47 9.09 0 12.55l-15.36 15.36c-3.47 3.47-9.09 3.47-12.55 0l-15.36-15.36c-3.47-3.47-3.47-9.09 0-12.55l15.36-15.36c3.47-3.47 9.09-3.47 12.55 0l15.36 15.36z" fill="#CF2027"/><path d="M278.926 102.319c-2.54 0-4.93-.99-6.73-2.79l-15.36-15.36a9.433 9.433 0 01-2.79-6.72c0-2.54.99-4.93 2.79-6.73l15.36-15.36c1.8-1.8 4.19-2.79 6.73-2.79s4.93.99 6.72 2.79l15.36 15.36c3.71 3.71 3.71 9.74 0 13.45l-15.36 15.36a9.434 9.434 0 01-6.72 2.79zm0-48.48c-2.2 0-4.27.86-5.83 2.41l-15.36 15.36a8.183 8.183 0 00-2.41 5.83c0 2.2.86 4.27 2.41 5.83l15.36 15.36a8.184 8.184 0 005.83 2.41c2.2 0 4.27-.86 5.83-2.41l15.36-15.36c3.21-3.21 3.21-8.44 0-11.66l-15.36-15.36a8.183 8.183 0 00-5.83-2.41z" fill="#58393E"/><path d="M297.475 72.059c2.97 2.97 2.97 7.79 0 10.77l-13.18 13.18a7.61 7.61 0 01-10.76 0l-13.18-13.18c-2.97-2.97-2.97-7.79 0-10.77l13.18-13.18c2.97-2.97 7.79-2.97 10.77 0l13.18 13.18h-.01z" fill="#F25252"/><path d="M278.925 98.55c-2.12 0-4.11-.82-5.61-2.32l-13.18-13.18a7.873 7.873 0 01-2.32-5.61c0-2.12.83-4.11 2.32-5.61l13.18-13.18c1.5-1.5 3.49-2.32 5.61-2.32s4.11.82 5.61 2.32l13.18 13.18c3.09 3.09 3.09 8.12 0 11.21l-13.18 13.18a7.873 7.873 0 01-5.61 2.32v.01zm-.01-41.58c-1.95 0-3.78.76-5.16 2.14l-13.18 13.18a7.247 7.247 0 00-2.14 5.16c0 1.95.76 3.78 2.14 5.16l13.18 13.18a7.247 7.247 0 005.16 2.14c1.95 0 3.78-.76 5.16-2.14l13.18-13.18c2.84-2.84 2.84-7.47 0-10.32l-13.18-13.18a7.247 7.247 0 00-5.16-2.14z" fill="#FBD5A2"/><path d="M288.806 83.17h-2.85c-1.65 0-1.75.48-.19.93.98.29 2.01.53 3.04.72.77.14.89.53.43 1.13-.38.48-.77 1.01-1.03 1.49-.14.22-.41.34-.67.29-2.13-.55-4.26-1.41-6.04-2.54-.6-.38-.98-.19-.98.5v1.72c0 .36-.24.6-.6.6h-2.13c-.36 0-.6-.24-.6-.6v-1.58c0-.72-.38-.89-.96-.53-1.75 1.08-3.81 1.92-5.92 2.44a.623.623 0 01-.67-.26c-.26-.43-.6-.93-.96-1.39-.48-.58-.34-.98.41-1.13 1.15-.22 2.28-.5 3.33-.84 1.41-.48 1.32-.96-.22-.96h-3.11c-.36 0-.6-.24-.6-.6v-1.48c0-.36.24-.6.6-.6h7.57c.31 0 .53-.22.53-.55 0-.31-.22-.48-.53-.43-1.56.26-3.38.48-5.53.62-.34.02-.57-.17-.67-.48-.12-.36-.29-.74-.46-1.1-.26-.55-.1-.91.53-.93 1.96-.12 3.57-.26 4.89-.46.34-.05.34-.14 0-.22l-.34-.1h-.1c-.07 0-.14.02-.19.07-.02 0-.02.02-.05.05-.07.05-.17.07-.26.05l-2.04-.53c-.55-.14-.67-.53-.31-.98l.17-.19c.48-.55.31-.93-.43-.93h-2.32c-.36 0-.6-.24-.6-.6v-1.34c0-.36.24-.6.6-.6h5.2c.19 0 .38-.1.48-.24l.29-.41c.26-.38.14-.65-.34-.65h-2.61c-.29 0-.48.19-.48.46 0 .29-.19.48-.46.48h-1.99c-.36 0-.6-.24-.6-.6v-2.42c0-.36.24-.6.6-.6h7.02c.36 0 .6-.24.6-.6v-.22c0-.36.24-.6.6-.6h2.11c.36 0 .6.24.6.6v.22c0 .36.24.6.6.6h7.04c.36 0 .6.24.6.6v2.42c0 .36-.24.6-.6.6h-2.11c-.29 0-.48-.19-.48-.48 0-.26-.19-.46-.46-.46h-6.8c-.6 0-.6.1-.02.26l.48.14c.26.07.34.26.19.5-.17.24-.1.38.19.38h9.13c.36 0 .6.24.6.6v1.34c0 .36-.24.6-.6.6h-2.8c-.22 0-.46.14-.55.36a8.9 8.9 0 01-.6 1.03c-.36.48-.26.86.31 1.05.93.26 1.8.55 2.54.81.5.17.6.55.26.93l-1.13 1.29c-.17.22-.46.26-.69.17a56.8 56.8 0 00-4.6-1.58.578.578 0 00-.41 0c-.36.14-.72.29-1.1.38-.55.17-.53.26.02.26h.34c.36 0 .6.24.6.6v.19c0 .36.24.6.6.6h7.69c.36 0 .6.24.6.6v1.48c0 .36-.24.6-.6.6v.05zm-12.09-8.67l-.05.07c-.1.14-.07.24.1.26 1.1.22 2.28.48 3.45.77.1.02.22.02.29-.05.29-.19.53-.43.72-.67.24-.29.1-.5-.26-.5h-3.95c-.1 0-.22.05-.29.12h-.01z" fill="#fff"/><path d="M136.345 18.98c3.47 3.47 3.47 9.09 0 12.55l-15.36 15.36c-3.47 3.47-9.09 3.47-12.55 0l-15.36-15.36c-3.47-3.47-3.47-9.09 0-12.55l15.36-15.36c3.47-3.47 9.09-3.47 12.55 0l15.36 15.36z" fill="#CF2027"/><path d="M114.705 50.129c-2.54 0-4.93-.99-6.73-2.79l-15.36-15.36a9.433 9.433 0 01-2.79-6.72c0-2.54.99-4.93 2.79-6.73l15.36-15.36c1.8-1.8 4.19-2.79 6.73-2.79s4.93.99 6.72 2.79l15.36 15.36c3.71 3.71 3.71 9.74 0 13.45l-15.36 15.36a9.433 9.433 0 01-6.72 2.79zm0-48.48c-2.2 0-4.27.86-5.83 2.41l-15.36 15.36a8.183 8.183 0 00-2.41 5.83c0 2.2.86 4.27 2.41 5.83l15.36 15.36a8.183 8.183 0 005.83 2.41c2.2 0 4.27-.86 5.83-2.41l15.36-15.36c3.21-3.21 3.21-8.44 0-11.66l-15.36-15.36a8.183 8.183 0 00-5.83-2.41z" fill="#58393E"/><path d="M133.264 19.868c2.97 2.97 2.97 7.79 0 10.77l-13.18 13.18a7.61 7.61 0 01-10.76 0l-13.18-13.18c-2.97-2.97-2.97-7.79 0-10.77l13.18-13.18c2.97-2.97 7.79-2.97 10.77 0l13.18 13.18h-.01z" fill="#F25252"/><path d="M114.705 46.359c-2.12 0-4.11-.82-5.61-2.32l-13.18-13.18a7.873 7.873 0 01-2.32-5.61c0-2.12.83-4.11 2.32-5.61l13.18-13.18c1.5-1.5 3.49-2.32 5.61-2.32s4.11.82 5.61 2.32l13.18 13.18c3.09 3.09 3.09 8.12 0 11.21l-13.18 13.18a7.873 7.873 0 01-5.61 2.32v.01zm0-41.58c-1.95 0-3.78.76-5.16 2.14l-13.18 13.18a7.247 7.247 0 00-2.14 5.16c0 1.95.76 3.78 2.14 5.16l13.18 13.18a7.247 7.247 0 005.16 2.14c1.95 0 3.78-.76 5.16-2.14l13.18-13.18c2.84-2.84 2.84-7.47 0-10.32l-13.18-13.18a7.247 7.247 0 00-5.16-2.14z" fill="#FBD5A2"/><path d="M121.505 14.909v9.85c0 .17.1.36.22.46 1.05.86 2.18 1.6 3.38 2.2.5.26.57.65.17 1.08-.48.53-1.01 1.17-1.39 1.75-.19.29-.5.38-.79.19h-.05c-.17-.1-.36-.22-.57-.34-.57-.36-.96-.19-.96.53v4.58c0 .36-.24.6-.6.6h-2.25c-.36 0-.6-.24-.6-.6v-8.7c0-.12-.07-.29-.14-.38-.55-.62-1.08-1.29-1.58-1.99-.46-.65-.89-.57-1.13.19-1.7 5.17-4.41 8.86-7.86 11.04-.26.17-.57.1-.79-.14-.41-.46-.93-1.01-1.46-1.46-.48-.41-.46-.81.1-1.15 1.84-1.1 3.38-2.61 4.67-4.53.17-.24.12-.55-.1-.74-.6-.53-1.34-1.08-2.06-1.58-.26-.19-.6-.14-.81.12l-.19.24c-.24.29-.57.29-.86.05-.48-.41-1.1-.91-1.65-1.29-.38-.29-.41-.67-.07-1.01 2.08-2.18 3.67-5.51 4.58-9.08.1-.36.38-.53.72-.46l2.11.43c.36.07.55.36.46.74-.12.38-.22.77-.36 1.15-.14.5.07.81.6.81h1.65l.12-.02.29-.07h.1c.07 0 .19 0 .26.02l1.56.5c.29.1.46.36.38.65v.05c-.05.36-.12.72-.19 1.1-.05.26.1.38.36.29.26-.1.5 0 .65.24l.19.36c.26.43.48.36.48-.17v-5.51c0-.36.24-.6.6-.6h2.25c.36 0 .6.24.6.6h-.04zm-9.06 5.68h-2.08c-.14 0-.29.1-.34.22-.29.62-.57 1.22-.91 1.8-.1.19-.05.38.14.5.69.41 1.37.89 1.99 1.34.24.17.46.12.55-.17.38-1.01.72-2.11.98-3.26.07-.26-.07-.43-.34-.43h.01z" fill="#fff"/><path d="M177.425 18.98c3.47 3.47 3.47 9.09 0 12.55l-15.36 15.36c-3.47 3.47-9.09 3.47-12.55 0l-15.36-15.36c-3.47-3.47-3.47-9.09 0-12.55l15.36-15.36c3.47-3.47 9.09-3.47 12.55 0l15.36 15.36z" fill="#CF2027"/><path d="M155.785 50.129c-2.54 0-4.93-.99-6.73-2.79l-15.36-15.36a9.433 9.433 0 01-2.79-6.72c0-2.54.99-4.93 2.79-6.73l15.36-15.36c1.8-1.8 4.19-2.79 6.73-2.79s4.93.99 6.72 2.79l15.36 15.36c3.71 3.71 3.71 9.74 0 13.45l-15.36 15.36a9.433 9.433 0 01-6.72 2.79zm0-48.48c-2.2 0-4.27.86-5.83 2.41l-15.36 15.36a8.183 8.183 0 00-2.41 5.83c0 2.2.86 4.27 2.41 5.83l15.36 15.36a8.183 8.183 0 005.83 2.41c2.2 0 4.27-.86 5.83-2.41l15.36-15.36c3.21-3.21 3.21-8.44 0-11.66l-15.36-15.36a8.183 8.183 0 00-5.83-2.41z" fill="#58393E"/><path d="M174.345 19.868c2.97 2.97 2.97 7.79 0 10.77l-13.18 13.18a7.61 7.61 0 01-10.76 0l-13.18-13.18c-2.97-2.97-2.97-7.79 0-10.77l13.18-13.18c2.97-2.97 7.79-2.97 10.77 0l13.18 13.18h-.01z" fill="#F25252"/><path d="M155.785 46.359c-2.12 0-4.11-.82-5.61-2.32l-13.18-13.18a7.873 7.873 0 01-2.32-5.61c0-2.12.83-4.11 2.32-5.61l13.18-13.18c1.5-1.5 3.49-2.32 5.61-2.32s4.11.82 5.61 2.32l13.18 13.18c3.09 3.09 3.09 8.12 0 11.21l-13.18 13.18a7.873 7.873 0 01-5.61 2.32v.01zm0-41.58c-1.95 0-3.78.76-5.16 2.14l-13.18 13.18a7.247 7.247 0 00-2.14 5.16c0 1.95.76 3.78 2.14 5.16l13.18 13.18a7.247 7.247 0 005.16 2.14c1.95 0 3.78-.76 5.16-2.14l13.18-13.18c2.84-2.84 2.84-7.47 0-10.32l-13.18-13.18a7.247 7.247 0 00-5.16-2.14z" fill="#FBD5A2"/><path d="M165.695 18.77c-.26 0-.53.17-.62.41-.38 1.03-.86 1.96-1.44 2.78-.22.29-.17.62.12.84.6.38 1.25.74 1.94 1.03.6.24.69.65.29 1.15-.26.31-.5.67-.72 1.01-.17.26-.46.38-.77.26-1.01-.46-1.94-.98-2.75-1.65a.675.675 0 00-.79-.02c-.77.53-1.63 1.01-2.59 1.39-.31.14-.62 0-.79-.31-.14-.29-.36-.65-.58-.96-.29-.48-.48-.41-.65.12-.12.31-.31.55-.62.72-.48.26-1.05.34-1.77.36-.29 0-.53-.19-.6-.5-.1-.34-.22-.67-.34-1.01-.12-.31 0-.5.36-.5h.55c.17 0 .24-.05.24-.24v-.29c0-.17-.12-.26-.26-.22l-.36.12c-.38.12-.65-.07-.69-.48-.07-.55-.19-1.22-.33-1.82-.07-.34.1-.62.41-.74h.05l.12-.02h.05c.31-.1.6.05.69.36v.05c.02.14.07.29.12.41v.05c.14.6.22.57.22-.05v-.84c0-.36-.24-.6-.6-.6h-.69c-.36 0-.6.24-.6.6v5.17c0 .36-.24.6-.6.6h-.79c-.36 0-.6-.24-.6-.6v-2.78c0-1.17-.05-1.17-.31-.02-.1.5-.24.98-.43 1.41-.12.29-.38.33-.65.17-.26-.14-.46-.02-.46.29v1.15c0 .36-.24.6-.6.6h-1.1c-.36 0-.6-.24-.6-.6v-7.4c0-.26.19-.46.48-.46.26 0 .38-.17.29-.43-.14-.34-.31-.67-.48-1.01-.22-.38-.12-.74.29-.91l1.13-.48c.29-.12.58-.02.72.22.34.48.65 1.03.86 1.49.12.29 0 .6-.29.72l-.19.1c-.43.19-.38.31.05.31h.26c.36 0 .6-.24.6-.6v-2.23c0-.36.24-.6.6-.6h1.65c.36 0 .6.24.6.6v2.23c0 .36.24.6.6.6h.43c.34 0 .34-.1.05-.22-.31-.12-.43-.41-.29-.72.22-.48.46-1.03.62-1.51.12-.36.43-.53.79-.41l1.27.43c.48.17.6.53.29.93l-.74 1.05c-.19.26-.1.43.22.43h.17c.22 0 .36.14.36.36 0 .22.1.26.24.1.86-.93 1.53-2.08 1.94-3.35.12-.31.38-.48.72-.41l1.56.31c.36.07.55.36.43.72l-.05.17c-.17.46.02.74.5.74h3.86c.36 0 .6.24.6.6v1.32c0 .31-.26.53-.57.53l-.03-.02zm-1.27 8.95v4.19c0 1.39-.31 2.13-1.34 2.54-.93.38-2.04.43-3.43.43-.29 0-.53-.19-.6-.43v-.05l-.48-1.27c-.26-.58-.05-.93.6-.93.67.02 1.32.02 1.51.02.34-.02.48-.1.48-.36v-1.41c0-.36-.24-.6-.6-.6h-2.64c-.36 0-.6.24-.6.6v4.79c0 .36-.24.6-.6.6h-2.08c-.36 0-.6-.24-.6-.6v-4.79c0-.36-.24-.6-.6-.6h-2.18c-.36 0-.6.24-.6.6v3.78c0 .36-.24.6-.6.6h-2.01c-.36 0-.6-.24-.6-.6v-6.52c0-.36.24-.6.6-.6h5.44c.34 0 .55-.22.55-.55 0-.33.22-.55.55-.55h2.18c.34 0 .55.22.55.55 0 .33.22.55.55.55h5.94c.36 0 .6.24.6.6l.01.01zm-14.13-7.81c0-.22-.14-.36-.36-.36h-1.13c-.22 0-.36.14-.36.36v1.37c0 .74.14.77.24.02l.07-.84c.02-.24.19-.38.41-.34l.77.12c.22.02.36-.1.36-.34v.01zm6.18.77v2.49c0 .29.19.43.46.33.86-.31 1.6-.67 2.3-1.1.17-.12.19-.34.07-.5l-.65-1.03c-.14-.26-.36-.29-.6-.1-.02.02-.07.05-.1.1-.17.14-.38.12-.53-.05-.12-.12-.22-.26-.34-.38-.38-.41-.62-.31-.62.24h.01zm5.22-1.91h-.84c-.34 0-.48.22-.31.5.17.26.31.53.48.77.17.24.41.24.55 0 .17-.26.31-.53.43-.79.14-.29 0-.48-.31-.48z" fill="#fff"/><path d="M218.505 18.98c3.47 3.47 3.47 9.09 0 12.55l-15.36 15.36c-3.47 3.47-9.09 3.47-12.55 0l-15.36-15.36c-3.47-3.47-3.47-9.09 0-12.55l15.36-15.36c3.47-3.47 9.09-3.47 12.55 0l15.36 15.36z" fill="#CF2027"/><path d="M196.865 50.129c-2.54 0-4.93-.99-6.73-2.79l-15.36-15.36a9.433 9.433 0 01-2.79-6.72c0-2.54.99-4.93 2.79-6.73l15.36-15.36c1.8-1.8 4.19-2.79 6.73-2.79s4.93.99 6.72 2.79l15.36 15.36c3.71 3.71 3.71 9.74 0 13.45l-15.36 15.36a9.433 9.433 0 01-6.72 2.79zm0-48.48c-2.2 0-4.27.86-5.83 2.41l-15.36 15.36a8.183 8.183 0 00-2.41 5.83c0 2.2.86 4.27 2.41 5.83l15.36 15.36a8.183 8.183 0 005.83 2.41c2.2 0 4.27-.86 5.83-2.41l15.36-15.36c3.21-3.21 3.21-8.44 0-11.66l-15.36-15.36a8.183 8.183 0 00-5.83-2.41z" fill="#58393E"/><path d="M215.425 19.868c2.97 2.97 2.97 7.79 0 10.77l-13.18 13.18a7.61 7.61 0 01-10.76 0l-13.18-13.18c-2.97-2.97-2.97-7.79 0-10.77l13.18-13.18c2.97-2.97 7.79-2.97 10.77 0l13.18 13.18h-.01z" fill="#F25252"/><path d="M196.865 46.359c-2.12 0-4.11-.82-5.61-2.32l-13.18-13.18a7.873 7.873 0 01-2.32-5.61c0-2.12.83-4.11 2.32-5.61l13.18-13.18c1.5-1.5 3.49-2.32 5.61-2.32s4.11.82 5.61 2.32l13.18 13.18c3.09 3.09 3.09 8.12 0 11.21l-13.18 13.18a7.873 7.873 0 01-5.61 2.32v.01zm0-41.58c-1.95 0-3.78.76-5.16 2.14l-13.18 13.18a7.247 7.247 0 00-2.14 5.16c0 1.95.76 3.78 2.14 5.16l13.18 13.18a7.247 7.247 0 005.16 2.14c1.95 0 3.78-.76 5.16-2.14l13.18-13.18c2.84-2.84 2.84-7.47 0-10.32l-13.18-13.18a7.247 7.247 0 00-5.16-2.14z" fill="#FBD5A2"/><path d="M198.585 30.22v1.53c0 .31.22.55.53.57.48.02.96.05 1.46.05 1.17 0 3.88 0 5.8-.05.67 0 .89.36.65.98-.24.6-.46 1.29-.6 1.87-.07.31-.29.5-.6.5h-5.44c-3.55 0-6.3-.53-8.34-2.75-.41-.48-.81-.46-1.1.12-.55.98-1.2 1.84-1.96 2.59-.26.24-.57.22-.84-.02-.43-.41-1.05-.93-1.6-1.34-.41-.34-.43-.72-.02-1.08 1.84-1.7 2.75-4.34 3.11-7.5.02-.36.29-.57.65-.55l2.25.24c.36.02.57.29.53.65-.1.72-.22 1.39-.36 2.04a.72.72 0 00.02.36c.43 1.01.96 1.75 1.58 2.32.48.38.84.17.84-.46V24.8c0-.36-.24-.6-.6-.6h-3.21c-.36 0-.6-.24-.6-.6v-1.94c0-.36.24-.6.6-.6h11c.36 0 .6.24.6.6v1.94c0 .36-.24.6-.6.6h-3.14c-.36 0-.6.24-.6.6v1.13c0 .36.24.6.6.6h4.77c.36 0 .6.24.6.6v1.89c0 .36-.24.6-.6.6h-4.77c-.36 0-.6.24-.6.6h-.01zm-8.38-10.11v1.82c0 .36-.24.6-.6.6h-2.06c-.36 0-.6-.24-.6-.6v-4.94c0-.36.24-.6.6-.6h6.92c.36 0 .6-.24.6-.6v-.91c0-.36.24-.6.6-.6h2.35c.36 0 .6.24.6.6v.91c0 .36.24.6.6.6h7c.36 0 .6.24.6.6v4.94c0 .36-.24.6-.6.6h-2.2c-.36 0-.6-.24-.6-.6v-1.82c0-.36-.24-.6-.6-.6h-12c-.36 0-.6.24-.6.6h-.01z" fill="#fff"/><path d="M259.595 18.98c3.47 3.47 3.47 9.09 0 12.55l-15.36 15.36c-3.47 3.47-9.09 3.47-12.55 0l-15.36-15.36c-3.47-3.47-3.47-9.09 0-12.55l15.36-15.36c3.47-3.47 9.09-3.47 12.55 0l15.36 15.36z" fill="#CF2027"/><path d="M237.955 50.129c-2.54 0-4.93-.99-6.73-2.79l-15.36-15.36a9.433 9.433 0 01-2.79-6.72c0-2.54.99-4.93 2.79-6.73l15.36-15.36c1.8-1.8 4.19-2.79 6.73-2.79s4.93.99 6.72 2.79l15.36 15.36c3.71 3.71 3.71 9.74 0 13.45l-15.36 15.36a9.433 9.433 0 01-6.72 2.79zm0-48.48c-2.2 0-4.27.86-5.83 2.41l-15.36 15.36a8.183 8.183 0 00-2.41 5.83c0 2.2.86 4.27 2.41 5.83l15.36 15.36a8.183 8.183 0 005.83 2.41c2.2 0 4.27-.86 5.83-2.41l15.36-15.36c3.21-3.21 3.21-8.44 0-11.66l-15.36-15.36a8.183 8.183 0 00-5.83-2.41z" fill="#58393E"/><path d="M256.505 19.868c2.97 2.97 2.97 7.79 0 10.77l-13.18 13.18a7.61 7.61 0 01-10.76 0l-13.18-13.18c-2.97-2.97-2.97-7.79 0-10.77l13.18-13.18c2.97-2.97 7.79-2.97 10.77 0l13.18 13.18h-.01z" fill="#F25252"/><path d="M237.955 46.359c-2.12 0-4.11-.82-5.61-2.32l-13.18-13.18a7.873 7.873 0 01-2.32-5.61c0-2.12.83-4.11 2.32-5.61l13.18-13.18c1.5-1.5 3.49-2.32 5.61-2.32s4.11.82 5.61 2.32l13.18 13.18c3.09 3.09 3.09 8.12 0 11.21l-13.18 13.18a7.873 7.873 0 01-5.61 2.32v.01zm0-41.58c-1.95 0-3.78.76-5.16 2.14l-13.18 13.18a7.247 7.247 0 00-2.14 5.16c0 1.95.76 3.78 2.14 5.16l13.18 13.18a7.247 7.247 0 005.16 2.14c1.95 0 3.78-.76 5.16-2.14l13.18-13.18c2.84-2.84 2.84-7.47 0-10.32l-13.18-13.18a7.247 7.247 0 00-5.16-2.14z" fill="#FBD5A2"/><path d="M247.625 20.348h-11c-.24 0-.46.14-.55.34-.72 1.46-1.53 2.83-2.42 4.14l-.05.05c-.05.07-.1.22-.1.31v10.04c0 .36-.24.6-.6.6h-2.16c-.36 0-.6-.24-.6-.6v-5.61c0-.62-.31-.77-.81-.38l-.22.17c-.36.26-.72.14-.91-.29-.29-.67-.69-1.44-1.03-2.06-.19-.31-.12-.62.19-.84 1.8-1.27 3.31-3.02 4.5-5.01.29-.5.07-.86-.53-.86h-3.04c-.36 0-.6-.24-.6-.6v-1.96c0-.36.24-.6.6-.6h5.08c.24 0 .46-.14.55-.38.24-.67.46-1.34.65-2.01.1-.34.38-.53.72-.43l2.32.55c.38.1.55.38.43.77-.07.22-.14.46-.24.69-.17.48.05.81.58.81h9.22c.36 0 .6.24.6.6v1.96c0 .36-.24.6-.6.6h.02zm.89 7.57v1.87c0 .36-.24.6-.6.6h-3.81c-.36 0-.6.24-.6.6v1.49c0 1.56-.26 2.4-1.34 2.87-.96.43-2.18.5-3.69.5-.31 0-.55-.22-.6-.53-.12-.55-.29-1.17-.48-1.75-.17-.55.05-.89.65-.86.72.02 1.39.02 1.63.02.36-.02.48-.1.48-.36v-1.39c0-.36-.24-.6-.6-.6h-4.29c-.36 0-.6-.24-.6-.6v-1.87c0-.36.24-.6.6-.6h4.29c.36 0 .6-.24.6-.6v-.67c0-.29.19-.48.48-.48h.24c.14 0 .31-.07.41-.17l.31-.29c.29-.29.22-.48-.19-.48h-4.43c-.36 0-.6-.24-.6-.6v-1.77c0-.36.24-.6.6-.6h7.67l.12-.02.34-.07c.17-.05.38 0 .53.12l1.32 1.08c.29.22.31.57.07.84-1.01 1.1-2.18 2.32-3.35 3.31l-.05.02c-.05.07-.1.14-.1.24 0 .1.05.14.14.14h4.26c.36 0 .6.24.6.6l-.01.01z" fill="#fff"/></svg>