<svg width="281" height="74" viewBox="0 0 281 74" fill="none" xmlns="http://www.w3.org/2000/svg"><g clip-path="url(#clip0_1259_11712)"><path d="M1.338 36.98c0-3.78.89-7.42 2.57-10.53l9.34-17.3c2.72-5.05 7.22-8.06 12.04-8.06h231.59c5.1 0 9.9 3.45 12.52 9.02l8.17 17.3c1.37 2.89 2.09 6.2 2.09 9.58s-.72 6.69-2.09 9.58l-8.17 17.3c-2.63 5.56-7.43 9.02-12.52 9.02H25.288c-4.82 0-9.32-3.02-12.04-8.07l-9.35-17.31c-1.68-3.11-2.57-6.75-2.57-10.53h.01z" fill="#D93636"/><path d="M256.88 73.72H25.29c-5.13 0-9.91-3.18-12.78-8.51l-9.34-17.3C1.42 44.68.5 40.9.5 36.99s.92-7.69 2.67-10.92l9.34-17.31C15.38 3.43 20.16.25 25.29.25h231.59c5.43 0 10.51 3.64 13.28 9.49l8.17 17.3c1.42 3 2.17 6.44 2.17 9.94 0 3.5-.75 6.93-2.17 9.94l-8.17 17.3c-2.77 5.86-7.86 9.49-13.28 9.49v.01zM25.29 1.92c-4.5 0-8.73 2.85-11.31 7.63l-9.34 17.3c-1.61 2.99-2.47 6.49-2.47 10.13 0 3.64.85 7.14 2.47 10.13l9.34 17.3c2.58 4.78 6.81 7.63 11.31 7.63h231.59c4.77 0 9.28-3.27 11.77-8.54l8.17-17.3c1.31-2.78 2.01-5.97 2.01-9.22 0-3.25-.69-6.44-2.01-9.22l-8.17-17.3c-2.49-5.27-7-8.54-11.77-8.54H25.29z" fill="#58393E"/><path d="M16.65 61.84l-9.34-17.3c-2.45-4.55-2.45-10.55 0-15.1l9.34-17.3c1.95-3.62 5.18-5.78 8.64-5.78h231.59c3.68 0 7.09 2.45 8.98 6.46l8.17 17.3c2 4.23 2 9.51 0 13.74l-8.17 17.3c-1.89 4.01-5.3 6.46-8.98 6.46H25.29c-3.45 0-6.68-2.16-8.64-5.78z" fill="#F25252"/><path d="M256.878 68.18H25.288c-3.66 0-7.07-2.27-9.13-6.08l-9.34-17.3c-2.56-4.75-2.56-10.88 0-15.63l9.34-17.3c2.05-3.81 5.47-6.08 9.13-6.08h231.59c3.87 0 7.51 2.6 9.49 6.78l8.17 17.3c2.07 4.38 2.07 9.83 0 14.21l-8.17 17.3c-1.98 4.18-5.61 6.78-9.49 6.78v.02zm-239.74-6.61c1.86 3.44 4.9 5.49 8.15 5.49h231.59c3.44 0 6.69-2.35 8.48-6.14l8.17-17.3c1.93-4.09 1.93-9.17 0-13.26l-8.17-17.3c-1.79-3.79-5.04-6.15-8.48-6.15H25.288c-3.24 0-6.29 2.05-8.15 5.49l-9.34 17.3c-2.35 4.36-2.35 10.21 0 14.57l9.34 17.3z" fill="#FBD5A2"/><path d="M15.89 39.35a2.37 2.37 0 100-4.74 2.37 2.37 0 000 4.74zm249.39 0a2.37 2.37 0 100-4.74 2.37 2.37 0 000 4.74z" fill="#FBD5A2"/><path d="M36.922 55.11l3.59-2.26c.66 1.51 1.96 2.38 3.58 2.38s2.89-1.14 2.89-2.68c0-1.84-1.2-2.62-3.19-2.62h-2.86c-2.08 0-3.31-1.24-3.31-3.28V38.4h12.5v3.83l-8.65.03v3.92h3.04c4.22 0 6.78 1.96 6.78 6.12s-2.95 6.78-7.2 6.78c-3.25 0-5.9-1.45-7.17-3.95v-.02zm4.55-8.95v.09s.03-.06 0-.09z" fill="url(#paint0_linear_1259_11712)"/><path d="M53.91 48.54c0-6.12 3.46-10.54 8.62-10.54 5.16 0 8.62 4.43 8.62 10.54 0 6.11-3.43 10.54-8.62 10.54-5.19 0-8.62-4.64-8.62-10.54zm12.71 0c0-3.55-1.81-6.05-4.1-6.05-2.29 0-4.1 2.5-4.1 6.05 0 3.34 1.84 6.06 4.1 6.06s4.1-2.71 4.1-6.06z" fill="url(#paint1_linear_1259_11712)"/><path d="M77.412 54.43c-.02-.15.05-.22.19-.24l1.19-.15c.34-.05.61.15.66.49.15 1 .27 2.1.32 3 0 .32-.22.56-.54.61l-.85.1c-.41.05-.68-.22-.71-.66 0-.29 0-.61-.02-.93-.07-1-.27-1-.54-.05-.24.83-.54 1.61-.97 2.22-.17.22-.46.29-.71.17l-1.07-.54c-.41-.2-.49-.58-.24-.97.49-.78.83-1.75 1.07-2.75.07-.41.39-.61.78-.46l1.22.37c.15.05.22-.02.22-.15v-.06zm17.86-9.47h-3.02c-.37 0-.61.24-.61.61v1.92c0 .37.24.61.61.61h2.29c.37 0 .61.24.61.61v9.77c0 .37-.24.61-.61.61h-2.22c-.22 0-.37-.15-.37-.34 0-.22-.15-.37-.34-.37h-2.73c-.24 0-.39.15-.39.39 0 .24-.15.39-.39.39h-2.02c-.37 0-.61-.24-.61-.61v-.58c0-.54-.34-.78-.83-.56l-.41.15c-.39.17-.73 0-.85-.41-.24-.78-.61-1.68-1.02-2.51-.2-.39-.07-.73.34-.88l.29-.1c.56-.2.54-.32-.07-.29-2.85.15-5.7.27-7.97.34-.37.02-.61-.22-.63-.58l-.05-1.58c-.02-.37.22-.61.58-.61l3.09-.07c.19 0 .34-.15.34-.37 0-.2-.15-.34-.34-.34h-2.46c-.37 0-.61-.24-.61-.61v-1.29c0-.37.24-.61.61-.61h2.49c.2 0 .32-.12.32-.34 0-.2-.12-.32-.32-.32h-2.63c-.37 0-.61-.24-.61-.61v-7.94c0-.37.24-.61.61-.61h9.01c.37 0 .61.24.61.61v7.94c0 .37-.24.61-.61.61h-2.78c-.22 0-.34.12-.34.32 0 .22.12.34.34.34h2.58c.37 0 .61.24.61.61v1.29c0 .37-.24.61-.61.61h-2.61c-.19 0-.32.12-.32.29 0 .19.12.32.29.32l3-.07c.37-.02.63.24.63.61l-.05 1.39c0 .34-.22.58-.56.58-.34.02-.44.24-.27.54.2.32.39.66.56 1 .44.9.63.88.63-.15v-5.94c0-.37.24-.61.61-.61h1.71c.37 0 .61-.24.61-.61v-9.65c0-.37.24-.61.61-.61h2.02c.37 0 .61.24.61.61v3.41c0 .37.24.61.61.61h3.02c.37 0 .61.24.61.61v1.88c0 .37-.24.61-.61.61l.02-.02zm-16.86-4.93h-.85c-.22 0-.37.15-.37.37v.05c0 .24.15.37.39.29l.29-.1c.2-.05.39.02.46.24s.15.46.19.71c.17.61.24.61.24-.05V40.4c0-.22-.15-.37-.37-.37h.02zm-1.22 3.03v1.34c0 .22.15.37.37.37h.85c.22 0 .37-.15.37-.37v-.12c0-.29-.2-.41-.46-.32l-.29.1c-.27.1-.46-.02-.51-.32a6.71 6.71 0 00-.1-.71c-.12-.71-.22-.68-.22.02l-.01.01zm3.22 10.96l.76-.12c.32-.07.58.1.68.39.27.93.54 2 .68 2.85.05.34-.15.61-.46.68l-.8.15c-.44.1-.71-.15-.78-.56-.1-.8-.32-1.75-.56-2.61-.12-.39.07-.71.49-.78h-.01zm1.97-13.57v-.05c0-.22-.15-.37-.37-.37h-.9c-.22 0-.37.15-.37.37v1.29c0 .73.15.76.34.05.07-.27.12-.54.2-.78.05-.24.24-.37.46-.29l.22.07c.24.1.41-.02.41-.29h.01zm-1.26 4.31h.9c.22 0 .37-.15.37-.37v-1.02c0-.56-.15-.58-.34-.05-.1.2-.17.39-.24.58-.07.17-.27.24-.46.17l-.15-.07c-.27-.1-.44.02-.44.29v.1c0 .22.15.37.37.37h-.01zm10.84 10.23v-3.48c0-.22-.15-.37-.37-.37h-2.73c-.22 0-.37.15-.37.37v3.48c0 .22.15.37.37.37h2.73c.22 0 .37-.15.37-.37z" fill="url(#paint2_linear_1259_11712)"/><path d="M98.941 48.63c0-5.82 3.31-9.11 8.13-9.11s8.13 3.31 8.13 9.11c0 5.8-3.29 9.29-8.13 9.29-4.84 0-8.13-3.46-8.13-9.29zm11.93 0c0-3.44-1.46-5.47-3.79-5.47s-3.77 2.03-3.77 5.47 1.43 5.62 3.77 5.62 3.79-2.16 3.79-5.62z" fill="url(#paint3_linear_1259_11712)"/><path d="M118.801 56.96V40.47c0-.38.25-.63.63-.63h5.6c3.89 0 7.13 1.38 7.13 5.77s-3.26 6.08-7.03 6.08h-1.43c-.38 0-.63.25-.63.63v4.64c0 .38-.25.63-.63.63h-3.01c-.38 0-.63-.25-.63-.63zm4.65-8.63h1.48c2.08 0 3.06-.98 3.06-2.71s-1.13-2.41-3.19-2.41h-1.36c-.23 0-.38.15-.38.38v4.37c0 .23.15.38.38.38l.01-.01z" fill="url(#paint4_linear_1259_11712)"/><path d="M135.402 56.96V40.47c0-.38.25-.63.63-.63h9.99c.38 0 .63.25.63.63v2.28c0 .38-.25.63-.63.63h-5.72c-.38 0-.63.25-.63.63v2.03c0 .38.25.63.63.63h4.67c.38 0 .63.25.63.63v2.31c0 .38-.25.63-.63.63h-4.67c-.38 0-.63.25-.63.63v2.51c0 .38.25.63.63.63h6c.38 0 .63.25.63.63v2.33c0 .38-.25.63-.63.63h-10.27c-.38 0-.63-.25-.63-.63v-.01z" fill="url(#paint5_linear_1259_11712)"/><path d="M150.662 56.96V40.47c0-.38.25-.63.63-.63h3.34c.23 0 .45.13.55.35l4.22 8.13.9 1.96c.55 1.21.8 1.13.65-.18-.13-1.46-.25-3.01-.25-4.39v-5.25c0-.38.25-.63.63-.63h2.79c.38 0 .63.25.63.63v16.49c0 .38-.25.63-.63.63h-3.34c-.23 0-.45-.13-.55-.35l-4.22-8.21-1.73-3.89h-.13c.2 1.98.55 4.42.55 6.55v5.27c0 .38-.25.63-.63.63h-2.79c-.38 0-.63-.25-.63-.63l.01.01z" fill="url(#paint6_linear_1259_11712)"/><path d="M169.172 56.96V40.47c0-.38.25-.63.63-.63h5.6c3.89 0 7.13 1.38 7.13 5.77s-3.26 6.08-7.03 6.08h-1.43c-.38 0-.63.25-.63.63v4.64c0 .38-.25.63-.63.63h-3.01c-.38 0-.63-.25-.63-.63zm4.64-8.63h1.48c2.08 0 3.06-.98 3.06-2.71s-1.13-2.41-3.19-2.41h-1.36c-.23 0-.38.15-.38.38v4.37c0 .23.15.38.38.38l.01-.01z" fill="url(#paint7_linear_1259_11712)"/><path d="M185.031 48.63c0-5.82 3.31-9.11 8.13-9.11s8.13 3.31 8.13 9.11c0 5.8-3.29 9.29-8.13 9.29-4.84 0-8.13-3.46-8.13-9.29zm11.93 0c0-3.44-1.46-5.47-3.79-5.47s-3.77 2.03-3.77 5.47 1.43 5.62 3.77 5.62 3.79-2.16 3.79-5.62z" fill="url(#paint8_linear_1259_11712)"/><path d="M204.691 56.96V40.47c0-.38.25-.63.63-.63h3.01c.38 0 .63.25.63.63v16.49c0 .38-.25.63-.63.63h-3.01c-.38 0-.63-.25-.63-.63z" fill="url(#paint9_linear_1259_11712)"/><path d="M213.104 56.96V40.47c0-.38.25-.63.63-.63h3.34c.23 0 .45.13.55.35l4.22 8.13.9 1.96c.55 1.21.8 1.13.65-.18-.13-1.46-.25-3.01-.25-4.39v-5.25c0-.38.25-.63.63-.63h2.79c.38 0 .63.25.63.63v16.49c0 .38-.25.63-.63.63h-3.34c-.23 0-.45-.13-.55-.35l-4.22-8.21-1.73-3.89h-.13c.2 1.98.55 4.42.55 6.55v5.27c0 .38-.25.63-.63.63h-2.79c-.38 0-.63-.25-.63-.63l.01.01z" fill="url(#paint10_linear_1259_11712)"/><path d="M235.023 56.96V44.01c0-.38-.25-.63-.63-.63h-3.54c-.38 0-.63-.25-.63-.63v-2.28c0-.38.25-.63.63-.63h12.6c.38 0 .63.25.63.63v2.28c0 .38-.25.63-.63.63h-3.54c-.38 0-.63.25-.63.63v12.95c0 .38-.25.63-.63.63h-3.01c-.38 0-.63-.25-.63-.63h.01z" fill="url(#paint11_linear_1259_11712)"/><path d="M54.184 18.12c0-.91.71-1.55 1.73-1.55s1.71.64 1.71 1.55-.71 1.53-1.71 1.53-1.73-.64-1.73-1.53zm.22 12.08v-8.76c0-.27.18-.45.45-.45h2.12c.27 0 .45.18.45.45v8.76c0 .27-.18.45-.45.45h-2.12c-.27 0-.45-.18-.45-.45zm5.28-4.37c0-3.2 2.37-5.07 5.07-5.07 1.02 0 1.82.3 2.5.79.2.14.23.37.07.59l-.87 1.2c-.18.23-.43.27-.66.12a1.6 1.6 0 00-.86-.25c-1.34 0-2.16 1.02-2.16 2.62s.86 2.61 2.05 2.61c.45 0 .87-.16 1.25-.39.27-.16.54-.11.68.16l.73 1.23c.11.2.07.43-.11.55-.89.64-1.98.89-2.89.89-2.71 0-4.8-1.86-4.8-5.05zm9.75 2.12c0-1.95 1.46-3.05 4.93-3.5.25-.04.43-.23.34-.48-.16-.5-.59-.8-1.37-.8-.66 0-1.32.21-2.11.64-.25.12-.5.05-.62-.2l-.64-1.21c-.12-.23-.05-.46.18-.59 1.16-.62 2.41-1.05 3.77-1.05 2.5 0 3.91 1.39 3.91 4.41v5.03c0 .27-.18.45-.45.45h-1.68c-.2 0-.37-.12-.43-.34l-.04-.14c-.07-.29-.27-.34-.5-.16-.71.54-1.52.87-2.43.87-1.79 0-2.86-1.32-2.86-2.93zm5.28-.11s.07-.11.07-.18v-1.12c0-.18-.12-.29-.3-.27-1.66.27-2.2.8-2.2 1.45 0 .55.41.82 1.04.82.57 0 .96-.25 1.39-.7zm5.408 1.93c-.2-.14-.23-.37-.09-.59l.84-1.16c.16-.23.41-.25.64-.11.73.5 1.41.75 2.07.75.79 0 1.12-.29 1.12-.77 0-.57-.93-.84-1.91-1.23-1.16-.46-2.52-1.25-2.52-2.84 0-1.84 1.5-3.07 3.73-3.07 1.32 0 2.32.45 3.11.98.21.14.25.39.09.61l-.84 1.11c-.14.2-.39.23-.61.11-.55-.34-1.11-.57-1.64-.57-.68 0-1.02.23-1.02.7 0 .57.89.79 1.89 1.14 1.2.46 2.53 1.16 2.53 2.91 0 1.75-1.39 3.14-4.02 3.14-1.12 0-2.43-.43-3.39-1.11h.02zm9.663.43V17.54c0-.27.18-.45.45-.45h2.12c.27 0 .45.18.45.45v2.8l-.07.86c-.04.52.18.61.59.32.61-.43 1.36-.77 2.28-.77 2.11 0 3 1.52 3 3.93v5.52c0 .27-.18.45-.45.45h-2.12c-.27 0-.45-.18-.45-.45v-5.16c0-1.32-.36-1.7-1.11-1.7-.62 0-1.02.25-1.53.73-.09.07-.14.2-.14.32v5.8c0 .27-.18.45-.45.45h-2.12c-.27 0-.45-.18-.45-.45v.01zm17.038 0V18.47c0-.27.179-.45.449-.45h3.981c2.77 0 5.07.98 5.07 4.11 0 3.13-2.32 4.32-5 4.32h-1.02c-.27 0-.45.18-.45.45v3.3c0 .27-.18.45-.45.45h-2.14c-.27 0-.451-.18-.451-.45h.011zm3.3-6.14h1.05c1.48 0 2.18-.7 2.18-1.93s-.8-1.71-2.27-1.71h-.96c-.16 0-.27.11-.27.27v3.11c0 .16.11.27.27.27v-.01zm8.26 3.89c0-1.95 1.46-3.05 4.93-3.5.25-.04.43-.23.34-.48-.16-.5-.59-.8-1.37-.8-.66 0-1.32.21-2.11.64-.25.12-.5.05-.62-.2l-.64-1.21c-.12-.23-.05-.46.18-.59 1.16-.62 2.41-1.05 3.77-1.05 2.5 0 3.91 1.39 3.91 4.41v5.03c0 .27-.18.45-.45.45h-1.68c-.2 0-.37-.12-.43-.34l-.04-.14c-.07-.29-.27-.34-.5-.16-.71.54-1.52.87-2.43.87-1.79 0-2.86-1.32-2.86-2.93zm5.29-.11s.07-.11.07-.18v-1.12c0-.18-.12-.29-.3-.27-1.66.27-2.2.8-2.2 1.45 0 .55.41.82 1.04.82.57 0 .96-.25 1.39-.7zm6.162 6.43c-.27-.04-.39-.25-.32-.52l.36-1.55c.04-.2.2-.29.39-.25l.32.05h.04c.89 0 1.36-.48 1.59-1.16l.09-.34c.02-.09.02-.2-.02-.29l-3.41-8.62c-.14-.36.04-.61.43-.61h2.05c.2 0 .36.12.43.3l1.2 3.71c.29.87.48 1.77.73 2.73h.09c.2-.93.41-1.82.62-2.73l1.04-3.69c.05-.2.23-.32.43-.32h1.91c.38 0 .54.23.43.59l-3.12 9.09c-.95 2.48-1.98 3.69-4.27 3.69-.41 0-.73-.04-1-.09l-.01.01zm25.348-13.62h-5.53c-.16 0-.3.09-.37.21l-.02.04-.07.11s0 .02-.02.04c-.11.21-.02.36.25.36h4.05c.27 0 .45.18.45.45v9.96c0 .27-.18.45-.45.45h-1.77c-.21 0-.36-.14-.36-.34 0-.21-.14-.36-.34-.36h-6.53c-.21 0-.36.14-.36.36 0 .2-.14.34-.34.34h-1.68c-.27 0-.45-.18-.45-.45v-9.96c0-.27.18-.45.45-.45h3.75c.2 0 .39-.16.45-.34.05-.21-.09-.41-.32-.41h-5.39c-.27 0-.45-.18-.45-.45v-1.37c0-.27.18-.45.45-.45h2.3c.52 0 .66-.29.36-.68l-.21-.27c-.25-.29-.18-.57.16-.71l1.37-.61c.16-.07.36-.05.48.07.45.45.91.98 1.25 1.45.14.21.09.43-.14.55-.23.12-.21.2.05.2h2.87c.14 0 .3-.09.37-.21.32-.54.66-1.16.89-1.73.09-.2.29-.3.52-.27l1.84.37c.39.07.5.36.27.68l-.32.43c-.32.45-.18.73.36.73h2.18c.27 0 .45.18.45.45v1.37c0 .27-.18.45-.45.45v-.01zm-3.84 3.29v-.14c0-.16-.11-.27-.27-.27h-6.69c-.16 0-.27.11-.27.27v.14c0 .16.11.27.27.27h6.69c.16 0 .27-.11.27-.27zm-7.23 2.39v.2c0 .16.11.27.27.27h6.69c.16 0 .27-.11.27-.27v-.2c0-.16-.11-.27-.27-.27h-6.69c-.16 0-.27.11-.27.27zm.27 3.12h6.69c.16 0 .27-.11.27-.27v-.27c0-.16-.11-.27-.27-.27h-6.69c-.16 0-.27.11-.27.27v.27c0 .16.11.27.27.27zm35.381-6.44l-.91 1.2c-.2.25-.46.27-.7.05-.59-.5-1.43-1.07-2.21-1.52-.29-.16-.34-.43-.14-.68l.84-1.05c.13-.16.34-.21.54-.11.86.41 1.86 1 2.53 1.52.18.16.2.39.05.59zm-2.11 8.9l-1.41-1.02c-.2-.14-.25-.39-.11-.61.71-1.18 1.66-2.84 2.46-4.52.16-.3.43-.37.7-.16l1.11.91c.14.12.2.34.13.52-.68 1.59-1.45 3.2-2.23 4.71-.14.29-.39.34-.64.16l-.01.01zm-1.07-14.33l.86-1.05c.13-.16.34-.21.54-.11.84.41 1.82 1 2.48 1.52.18.16.2.39.04.59l-.95 1.16c-.2.25-.46.25-.7.05-.55-.48-1.39-1.04-2.14-1.48-.27-.16-.32-.43-.13-.68zm7.57 2.21l-1.39.64c-.3.14-.55.02-.66-.29-.23-.66-.61-1.46-1.02-2.16-.16-.27-.07-.54.21-.66l1.27-.57c.2-.09.43-.02.55.16.48.75.98 1.62 1.25 2.36.09.21-.02.43-.21.52zm6.59 1.49v8.44c0 1.11-.21 1.75-.91 2.12-.64.32-1.48.37-2.55.39-.23 0-.41-.16-.46-.37-.07-.39-.2-.82-.34-1.21-.16-.43 0-.7.48-.68.45.02.87.02 1.04.02.25-.02.34-.09.34-.3v-.29c0-.18-.11-.29-.29-.29h-3.82c-.27 0-.45.18-.45.45v2.21c0 .27-.18.45-.45.45h-1.52c-.27 0-.45-.18-.45-.45v-10.5c0-.27.18-.45.45-.45h2.61c.27 0 .45-.18.45-.45v-3.8c0-.27.18-.45.45-.45h1.61c.27 0 .45.18.45.45v3.8c0 .27.18.45.45.45h2.48c.27 0 .45.18.45.45l-.02.01zm-2.68 1.83h-4.02c-.16 0-.27.11-.27.27v.39c0 .16.11.27.27.27h4.02c.16 0 .27-.11.27-.27v-.39c0-.16-.11-.27-.27-.27zm-4.02 3.95h4.02c.16 0 .27-.11.27-.27v-.43c0-.16-.11-.27-.27-.27h-4.02c-.16 0-.27.11-.27.27v.43c0 .16.11.27.27.27zm5.52-10.43l1.5.52c.29.09.39.34.27.61-.41.91-.82 1.77-1.21 2.45-.11.2-.32.27-.52.2l-1.32-.48c-.29-.11-.39-.36-.25-.62.32-.7.7-1.57.95-2.36.09-.27.32-.39.59-.3l-.01-.02zm17.3 13h-.55c-.61 0-.62.13-.05.34.71.25 1.43.52 2.04.77.57.23.57.57-.02.8l-1.62.66c-.13.05-.27.05-.39-.02-.8-.43-2.11-1.02-3.45-1.52-.43-.16-.46-.41-.07-.64.39-.23.34-.39-.11-.39h-2.55c-.43 0-.45.13-.05.29.37.18.39.46.02.66-1.3.68-3 1.29-4.46 1.68a.473.473 0 01-.45-.14c-.23-.25-.52-.55-.82-.86-.45-.43-.36-.75.27-.87.71-.13 1.45-.3 2.09-.48.52-.14.48-.27-.04-.27h-.43c-.27 0-.45-.18-.45-.45v-3.91c0-.32-.21-.5-.54-.45l-.23.04c-.21.04-.41-.09-.5-.27-.14-.29-.32-.61-.52-.89-.29-.43-.18-.73.36-.8 1.18-.16 2.04-.37 2.64-.66.29-.12.25-.25-.05-.25h-.46l-.07.05-.04.02s-.07.04-.11.04l-1.48-.09c-.39-.02-.54-.27-.41-.62.29-.73.57-1.59.8-2.37.05-.2.23-.32.43-.32h2.57c.14 0 .25-.11.25-.25s-.11-.25-.25-.25h-3.02c-.27 0-.45-.18-.45-.45v-.5c0-.27.18-.45.45-.45h2.95c.2 0 .32-.12.32-.32s.13-.32.32-.32h1.57c.2 0 .32.13.32.32s.13.32.32.32h.86c.2 0 .32-.12.32-.32s.13-.32.32-.32h1.68c.2 0 .32.13.32.32s.13.32.32.32h2.75c.27 0 .45.18.45.45v2.39c0 .27-.18.45-.45.45h-2.8c-.16 0-.27.11-.27.25 0 .16.11.27.27.27h4.05c.16 0 .29.12.29.29v.3c-.07 1.14-.18 1.8-.48 2.16-.27.3-.7.43-1.07.46h-.09l-.04.05s-.05.09-.05.12v5.19c0 .27-.18.45-.45.45l-.01-.01zm-9.84-9.37l-.04.07c-.05.16.02.27.18.27h.95c.13 0 .23-.09.25-.21v-.04c.04-.16-.07-.27-.23-.27h-.86c-.13 0-.21.07-.25.18zm7.54 4.09h-6.18c-.14 0-.23.09-.23.23s.09.23.23.23h6.18c.14 0 .23-.09.23-.23s-.09-.23-.23-.23zm0 1.71h-6.16c-.16 0-.25.09-.25.23 0 .16.09.25.25.25h6.16c.14 0 .23-.09.23-.25 0-.14-.09-.23-.23-.23zm-.02 1.73h-6.14c-.14 0-.25.11-.25.25s.11.25.25.25h6.14c.14 0 .25-.11.25-.25s-.11-.25-.25-.25zm-2.7-5.8h-1.37c-.11 0-.2.07-.25.16-.05.14-.13.27-.21.39-.2.29-.13.46.23.46h1.61c.16 0 .27-.11.27-.27v-.48c0-.16-.11-.27-.27-.27l-.01.01zm.27-1.66c0-.14-.11-.25-.25-.25h-.98c-.16 0-.27.11-.27.25l-.02.02c0 .14.11.25.27.25h1c.14 0 .25-.11.25-.27zm-1.5-1.89c0 .14.11.25.25.25h1c.14 0 .25-.11.25-.25s-.11-.25-.25-.25h-1c-.14 0-.25.11-.25.25zm4.86-.25h-.79c-.14 0-.25.11-.25.25s.11.25.25.25h.79c.14 0 .25-.11.25-.25s-.11-.25-.25-.25zm1.01 3.8h-1.79c-.16 0-.27.11-.27.27v.48c0 .16.11.27.27.27h.61c.2 0 .3-.12.23-.32-.07-.18-.02-.29.2-.27.18.02.34.04.46.02h.04c.09 0 .18 0 .27-.07.04-.02.05-.05.07-.09l.04-.12c.04-.09-.02-.16-.13-.16v-.01zm10.478 5.94c-.25 0-.34.14-.2.36.41.68.82 1.43 1.09 2.05.11.21.02.45-.21.55l-1.04.48c-.29.14-.54.04-.64-.27-.18-.46-.43-1-.71-1.52-.27-.5-.59-.46-.8.07-.39.87-.86 1.7-1.36 2.32-.16.2-.39.21-.61.07-.29-.2-.64-.43-.96-.62-.32-.2-.36-.46-.13-.77.54-.66.98-1.5 1.27-2.36.09-.21-.04-.37-.27-.37-.25 0-.41-.16-.41-.41v-10.3c0-.27.18-.45.45-.45h4.52c.27 0 .45.18.45.45v10.28c0 .25-.18.43-.43.43l-.01.01zm-2.03.61l.7-.29c.45-.2.43-.32-.07-.32h-1.64c-.62 0-.64.11-.02.25l.95.23s.05.05.05.09c-.02.04 0 .05.04.04h-.01zm-.88-9.57v.7c0 .16.11.27.27.27h.66c.16 0 .27-.11.27-.27v-.7c0-.16-.11-.27-.27-.27h-.66c-.16 0-.27.11-.27.27zm0 3.02v.71c0 .16.11.27.27.27h.66c.16 0 .27-.11.27-.27v-.71c0-.16-.11-.27-.27-.27h-.66c-.16 0-.27.11-.27.27zm0 3.02v.73c0 .16.11.27.27.27h.66c.16 0 .27-.11.27-.27v-.73c0-.16-.11-.27-.27-.27h-.66c-.16 0-.27.11-.27.27zm12.05-6.16h.27c.27 0 .45.18.45.45v5.28c0 .27-.18.45-.45.45h-8.05c-.27 0-.45-.18-.45-.45V19.3c0-.27.18-.45.45-.45h.2c.39 0 .55-.23.41-.59-.13-.29-.27-.57-.41-.86-.14-.29-.05-.54.25-.64l1.21-.45c.2-.07.39-.02.52.16.32.54.66 1.16.86 1.68.09.21 0 .43-.23.52-.25.09-.25.18 0 .18h2.3c.25 0 .25-.05.04-.12-.23-.07-.3-.27-.2-.48.27-.52.55-1.14.77-1.7.09-.25.3-.36.55-.29l1.5.41c.32.11.43.36.27.64-.2.34-.39.64-.57.93-.23.37-.11.61.32.61h-.01zm-7.53 12.96v-5.77c0-.27.18-.45.45-.45h6.77c.27 0 .45.18.45.45v5.77c0 .27-.18.45-.45.45h-1.68c-.13 0-.21-.09-.21-.2 0-.12-.09-.21-.2-.21h-2.7c-.13 0-.21.09-.21.21a.2.2 0 01-.2.2h-1.57c-.27 0-.45-.18-.45-.45zm2.28-11.28h-.61c-.16 0-.27.11-.27.27v.11c0 .16.11.27.27.27h.61c.16 0 .27-.11.27-.27v-.11c0-.16-.11-.27-.27-.27zm-.87 2.41v.14c0 .16.11.27.27.27h.61c.16 0 .27-.11.27-.27v-.14c0-.16-.11-.27-.27-.27h-.61c-.16 0-.27.11-.27.27zm3.66 4.44h-2.61c-.14 0-.25.11-.25.25s.11.25.25.25h2.61c.14 0 .25-.11.25-.25s-.11-.25-.25-.25zm-2.59 2.73h2.57c.16 0 .27-.11.27-.27 0-.16-.11-.27-.27-.27h-2.57c-.16 0-.27.11-.27.27 0 .16.11.27.27.27zm3.55-9.21v-.11c0-.16-.11-.27-.27-.27h-.77c-.16 0-.27.11-.27.27v.11c0 .16.11.27.27.27h.77c.16 0 .27-.11.27-.27zm0 2.18v-.14c0-.16-.11-.27-.27-.27h-.77c-.16 0-.27.11-.27.27v.14c0 .16.11.27.27.27h.77c.16 0 .27-.11.27-.27zm-56.878 1.08h-.85c-.17 0-.29.18-.3.43 0 .13-.01.27-.01.4-.01.29.11.48.3.48h1.13c.18 0 .3.18.3.45v1.38c0 .27-.12.45-.3.45h-1.45c-.15 0-.27.14-.3.34-.29 1.63-.73 2.61-1.64 3.86-.12.18-.33.16-.5.08-.17-.08-.55-.33-.83-.65-.22-.23-.22-.52-.04-.79.5-.66.85-1.44 1.11-2.24.11-.36-.01-.59-.27-.59h-1.04c-.18 0-.3-.18-.3-.45v-1.38c0-.27.12-.45.3-.45h1.54c.16 0 .28-.16.29-.4l.04-.45c.01-.29-.11-.47-.3-.47h-1.15c-.18 0-.3-.18-.3-.45v-1.27c0-.27.12-.45.3-.45h1.18c.18 0 .3-.18.3-.45v-.36c0-.27-.12-.45-.3-.45h-1.38c-.18 0-.3-.18-.3-.45V18.9c0-.27.12-.45.3-.45h1.38c.18 0 .3-.18.3-.45v-1.11c0-.27.12-.45.3-.45h1.06c.18 0 .3.18.3.45V18c0 .27.12.45.3.45h1.04c.18 0 .3.18.3.45v1.38c0 .27-.12.45-.3.45h-1.04c-.18 0-.3.18-.3.45v.36c0 .27.12.45.3.45h.83c.18 0 .3.18.3.45v1.27c0 .27-.12.45-.3.45zm4.59-7.7l.92.84c.12.13.17.34.12.54-.38 1.49-.83 3.11-1.23 4.38-.05.18-.02.38.06.52.86 1.38 1 2.66 1 3.7 0 1.38-.23 2.26-.72 2.73-.26.27-.55.41-.89.48-.18.04-.43.05-.67.05-.18 0-.29-.16-.32-.41-.04-.5-.15-1.1-.28-1.58-.09-.27-.01-.41.17-.4.12 0 .22.02.32 0h.02c.16 0 .32-.04.45-.14.21-.14.28-.47.28-1.04 0-.81-.23-1.92-1.03-3.09-.1-.13-.12-.32-.09-.5.24-.93.52-2.15.77-3.23.07-.34-.05-.57-.29-.57h-.46c-.18 0-.3.18-.3.45v12.36c0 .27-.12.45-.3.45h-1.06c-.18 0-.3-.18-.3-.45V16.91c0-.27.12-.45.3-.45h3.13l.06-.02.1-.04c.07-.02.17 0 .23.05l.01.01zm-11.578 8.14c-.04-.2-.08-.38-.12-.53-.03-.14.03-.28.14-.32l.1-.04c.62-.21 1.03.07 1.22.82.18.61.33 1.36.45 2.25.02.12-.04.25-.14.29l-.9.37c-.12.05-.25-.05-.27-.2l-.04-.32c-.02-.14-.14-.24-.25-.21-1.71.44-2.82.78-3.33 1.02-.11.05-.24-.02-.28-.15l-.43-1.51c-.03-.1 0-.21.06-.28l1.03-1.09s.02-.03.03-.04l.6-1c.11-.19-.02-.45-.21-.4l-.95.23c-.1.03-.21-.05-.24-.17l-.46-1.59c-.03-.11 0-.24.09-.3.41-.27 2.35-4.86 2.58-4.96.19-.08.43-.02.69.12.32.16.62.37.69.65.08.33-.85 2.41-1.48 3.51-.1.17 0 .41.18.4l.34-.02c.07 0 .14-.06.18-.14.26-.59.56-1.39.89-1.84.14-.2.59.1.75.21.32.21.6.39.59.74 0 .21-.18.55-.29.82-.41 1-1.1 2.23-2.05 3.69-.12.18 0 .45.2.41l.47-.1c.12-.03.2-.17.17-.32h-.01zm-3.402 3.7l.99.25c.21.05.31.28.26.54-.24 1.14-.63 2.26-1.06 3.08-.09.18-.26.2-.39.06a8.27 8.27 0 00-.79-.65c-.25-.2-.28-.47-.12-.77.36-.63.63-1.41.78-2.2.05-.23.18-.35.34-.32l-.01.01zm1.721-.08l.9-.36c.19-.08.36.05.41.31.24 1.11.34 2.3.3 3.24 0 .21-.13.32-.29.28-.27-.05-.6-.09-.9-.1-.28-.03-.41-.24-.39-.58.05-.75-.02-1.57-.19-2.32-.05-.23.02-.4.16-.47zm2.049.14l.82-.48c.16-.11.33-.02.4.21.3.97.49 2.04.53 2.92.01.19-.09.32-.24.31-.25.01-.55.04-.81.09-.25.03-.39-.14-.4-.46a7.33 7.33 0 00-.36-2.09c-.06-.2-.05-.41.07-.49l-.01-.01z" fill="#fff"/></g><defs><linearGradient id="paint0_linear_1259_11712" x1="44.102" y1="36.78" x2="44.102" y2="57.48" gradientUnits="userSpaceOnUse"><stop stop-color="#fff"/><stop offset="1" stop-color="#FFF1B4"/></linearGradient><linearGradient id="paint1_linear_1259_11712" x1="62.52" y1="36.78" x2="62.52" y2="57.48" gradientUnits="userSpaceOnUse"><stop stop-color="#fff"/><stop offset="1" stop-color="#FFF1B4"/></linearGradient><linearGradient id="paint2_linear_1259_11712" x1="84.933" y1="36.78" x2="84.933" y2="57.48" gradientUnits="userSpaceOnUse"><stop stop-color="#fff"/><stop offset="1" stop-color="#FFF1B4"/></linearGradient><linearGradient id="paint3_linear_1259_11712" x1="107.081" y1="36.809" x2="107.081" y2="59.109" gradientUnits="userSpaceOnUse"><stop stop-color="#fff"/><stop offset="1" stop-color="#FFF1B4"/></linearGradient><linearGradient id="paint4_linear_1259_11712" x1="125.481" y1="36.81" x2="125.481" y2="59.11" gradientUnits="userSpaceOnUse"><stop stop-color="#fff"/><stop offset="1" stop-color="#FFF1B4"/></linearGradient><linearGradient id="paint5_linear_1259_11712" x1="141.162" y1="36.81" x2="141.162" y2="59.11" gradientUnits="userSpaceOnUse"><stop stop-color="#fff"/><stop offset="1" stop-color="#FFF1B4"/></linearGradient><linearGradient id="paint6_linear_1259_11712" x1="157.712" y1="36.81" x2="157.712" y2="59.11" gradientUnits="userSpaceOnUse"><stop stop-color="#fff"/><stop offset="1" stop-color="#FFF1B4"/></linearGradient><linearGradient id="paint7_linear_1259_11712" x1="175.842" y1="36.81" x2="175.842" y2="59.11" gradientUnits="userSpaceOnUse"><stop stop-color="#fff"/><stop offset="1" stop-color="#FFF1B4"/></linearGradient><linearGradient id="paint8_linear_1259_11712" x1="193.171" y1="36.809" x2="193.171" y2="59.109" gradientUnits="userSpaceOnUse"><stop stop-color="#fff"/><stop offset="1" stop-color="#FFF1B4"/></linearGradient><linearGradient id="paint9_linear_1259_11712" x1="206.831" y1="36.81" x2="206.831" y2="59.11" gradientUnits="userSpaceOnUse"><stop stop-color="#fff"/><stop offset="1" stop-color="#FFF1B4"/></linearGradient><linearGradient id="paint10_linear_1259_11712" x1="220.154" y1="36.81" x2="220.154" y2="59.11" gradientUnits="userSpaceOnUse"><stop stop-color="#fff"/><stop offset="1" stop-color="#FFF1B4"/></linearGradient><linearGradient id="paint11_linear_1259_11712" x1="237.153" y1="36.81" x2="237.153" y2="59.11" gradientUnits="userSpaceOnUse"><stop stop-color="#fff"/><stop offset="1" stop-color="#FFF1B4"/></linearGradient><clipPath id="clip0_1259_11712"><path fill="#fff" transform="translate(.5 .25)" d="M0 0h280v73.47H0z"/></clipPath></defs></svg>