<svg width="186" height="77" viewBox="0 0 186 77" fill="none" xmlns="http://www.w3.org/2000/svg"><path d="M147.29 2.5c-9.98 0-19.61 4.2-26.41 11.53l-.73.79-.73-.79C112.62 6.7 102.99 2.5 93.01 2.5S73.4 6.7 66.6 14.03l-.73.79-.73-.79C58.34 6.7 48.71 2.5 38.73 2.5 18.85 2.5 2.68 18.67 2.68 38.54c0 19.87 16.17 36.04 36.04 36.04 9.98 0 19.61-4.2 26.41-11.53l.73-.79.73.79c6.8 7.33 16.43 11.53 26.41 11.53s19.61-4.2 26.41-11.53l.73-.79.73.79c6.8 7.33 16.43 11.53 26.41 11.53 19.87 0 36.04-16.17 36.04-36.04 0-19.87-16.16-36.04-36.03-36.04zm.48 67.93c-11.5 0-21.58-6.05-27.25-15.14-5.67 9.09-15.75 15.14-27.25 15.14s-21.58-6.05-27.25-15.14c-5.67 9.09-15.75 15.14-27.25 15.14-17.72 0-32.09-14.37-32.09-32.09 0-17.72 14.37-32.09 32.1-32.09 11.5 0 21.58 6.05 27.25 15.14C71.7 12.3 81.78 6.25 93.28 6.25s21.58 6.05 27.25 15.14c5.67-9.09 15.75-15.14 27.25-15.14 17.72 0 32.09 14.37 32.09 32.09 0 17.72-14.37 32.09-32.09 32.09h-.01z" fill="#fff"/><path d="M147.29.5c-10.18 0-20.01 4.14-27.14 11.4C113.02 4.64 103.19.5 93.01.5S73 4.64 65.87 11.9C58.73 4.64 48.9.5 38.72.5 17.74.5.68 17.56.68 38.54s17.06 38.04 38.04 38.04c10.18 0 20.01-4.14 27.14-11.4 7.13 7.26 16.96 11.4 27.14 11.4s20.01-4.14 27.14-11.4c7.13 7.26 16.96 11.4 27.14 11.4 20.97 0 38.04-17.06 38.04-38.04S168.26.5 147.29.5zm0 74.08c-9.98 0-19.61-4.2-26.41-11.53l-.73-.79-.73.79c-6.8 7.33-16.43 11.53-26.41 11.53S73.4 70.38 66.6 63.05l-.73-.79-.73.79c-6.8 7.33-16.43 11.53-26.41 11.53-19.87 0-36.04-16.17-36.04-36.04C2.69 18.67 18.85 2.5 38.72 2.5c9.98 0 19.61 4.2 26.41 11.53l.73.79.73-.79C73.39 6.7 83.02 2.5 93 2.5s19.61 4.2 26.41 11.53l.73.79.73-.79C127.67 6.7 137.3 2.5 147.28 2.5c19.87 0 36.04 16.17 36.04 36.04 0 19.87-16.17 36.04-36.04 36.04h.01z" fill="#D93636"/><path d="M29.77 33.86h-1.13c-.29 0-.55.21-.59.5-.46 2.39-.97 4.75-1.51 6.97-.04.25.08.5.29.67.34.21.63.42.97.67.42.34.84.21 1.01-.29.76-2.39 1.26-5 1.6-7.81.04-.42-.21-.71-.63-.71h-.01zm67.02 11.39h7.39c.35 0 .63.28.63.63v.08c0 .35-.28.63-.63.63h-7.39c-.35 0-.63-.28-.63-.63v-.08c0-.35.28-.63.63-.63zm-1.43-17.39h.25c.38 0 .63-.25.63-.63s-.25-.63-.63-.63h-.25c-.38 0-.63.25-.63.63s.25.63.63.63zm9.79 0h.34c.38 0 .63-.25.63-.63s-.25-.63-.63-.63h-.34c-.38 0-.63.25-.63.63s.25.63.63.63zm-9.79 4.41h.29c.34 0 .59-.25.59-.63 0-.34-.25-.59-.59-.59h-.29c-.38 0-.63.25-.63.59 0 .38.25.63.63.63zm4.79-4.41h.46c.38 0 .63-.25.63-.63s-.25-.63-.63-.63h-.46c-.38 0-.63.25-.63.63s.25.63.63.63zm5 4.41h.38c.34 0 .59-.25.59-.63 0-.34-.25-.59-.59-.59h-.38c-.38 0-.63.25-.63.59 0 .38.25.63.63.63zm-2.69 17.6h-3.53c-.67 0-.88.38-.59.97.38.8.71 1.64.92 2.35.04.21-.08.42-.29.46-.25.08-.25.13 0 .13h3.19c.21 0 .21-.04 0-.08s-.29-.21-.21-.42c.34-.8.76-1.72 1.05-2.6.21-.46-.04-.8-.55-.8l.01-.01zm-2.31-17.6h.5c.34 0 .59-.25.59-.63 0-.34-.25-.59-.59-.59h-.5c-.38 0-.63.25-.63.59 0 .38.25.63.63.63z" fill="#D93636"/><path d="M147.77 6.25c-11.5 0-21.58 6.05-27.25 15.14-5.67-9.09-15.75-15.14-27.25-15.14S71.69 12.3 66.02 21.39C60.35 12.3 50.27 6.25 38.77 6.25c-17.72 0-32.08 14.36-32.08 32.09 0 17.73 14.37 32.09 32.09 32.09 11.5 0 21.58-6.05 27.25-15.14 5.67 9.09 15.75 15.14 27.25 15.14s21.58-6.05 27.25-15.14c5.67 9.09 15.75 15.14 27.25 15.14 17.72 0 32.09-14.37 32.09-32.09 0-17.72-14.37-32.09-32.09-32.09h-.01zM122.6 39.7c0 .94-.76 1.7-1.7 1.7s-1.7-.76-1.7-1.7.76-1.7 1.7-1.7 1.7.76 1.7 1.7zM90.19 24.24c0-.63.42-1.05 1.05-1.05h3.07c.63 0 1.05-.42 1.05-1.05v-.34c0-.63.42-1.05 1.05-1.05h2.1c.63 0 1.05.42 1.05 1.05v.55c0 .5.34.84.84.84.5 0 .84-.34.84-.84v-.55c0-.63.42-1.05 1.05-1.05h2.1c.63 0 1.05.42 1.05 1.05v.34c0 .63.42 1.05 1.05 1.05h3.36c.63 0 1.05.42 1.05 1.05v10.42c0 .63-.42 1.05-1.05 1.05H91.24c-.63 0-1.05-.42-1.05-1.05V24.24zm-.38 13.57c0-.63.42-1.05 1.05-1.05h19.49c.63 0 1.05.42 1.05 1.05v2.14c0 .63-.42 1.05-1.05 1.05H90.86c-.63 0-1.05-.42-1.05-1.05v-2.14zM75.45 24.24c0-.63.42-1.05 1.05-1.05h10.67c.63 0 1.05.42 1.05 1.05v2.81c0 .63-.42 1.05-1.05 1.05H76.5c-.63 0-1.05-.42-1.05-1.05v-2.81zM67.61 39.7c0 .94-.76 1.7-1.7 1.7s-1.7-.76-1.7-1.7.76-1.7 1.7-1.7 1.7.76 1.7 1.7zM36.87 51.51l-2.18 2.9c-.5.67-1.18.67-1.72.04-.42-.55-.92-1.09-1.47-1.64-.55-.59-1.18-.5-1.64.13a21.31 21.31 0 01-5.38 5.25c-.55.38-1.13.21-1.51-.34-.5-.84-1.18-1.76-1.81-2.52-.59-.71-.5-1.34.25-1.85 1.76-1.22 3.23-2.77 4.49-4.7.25-.38.17-.76-.13-1.05l-.08-.08-.13-.04-.08-.08c-.21-.13-.38-.04-.46.21-.08.29-.29.42-.59.25l-3.49-1.85c-.46-.21-.67-.71-.55-1.18.76-2.81 1.51-6.22 2.23-9.83.17-.76-.25-1.26-1.01-1.26h-.46c-.63 0-1.05-.42-1.05-1.05v-3.23c0-.63.42-1.05 1.05-1.05H23c.55 0 .92-.34 1.05-.88.34-2.02.63-3.99.92-5.88.08-.59.55-.97 1.13-.92l3.32.34c.63.08 1.01.59.92 1.22l-.88 4.87c-.17.76.25 1.26 1.01 1.26h1.39l.67-.13h.17l.25.04 2.35.34c.55.13.92.55.88 1.09-.42 6.51-1.26 11.8-2.81 16.13-.13.42 0 .92.34 1.22 1.22 1.01 2.27 2.06 3.11 3.02.29.38.29.88.04 1.26l.01-.01zm20.8-10.59c0 .63-.42 1.05-1.05 1.05h-6.26c-.63 0-1.05.42-1.05 1.05v9.45c0 2.73-.55 4.24-2.23 5.17-1.6.76-3.53 1.01-5.97 1.01-.55 0-.92-.34-1.05-.84-.29-.97-.67-2.14-1.09-3.19-.42-1.01-.04-1.6 1.05-1.55 1.13 0 2.14.04 2.56 0h.08c.59 0 .8-.17.8-.67v-9.37c0-.63-.42-1.05-1.05-1.05h-5.8c-.63 0-1.05-.42-1.05-1.05v-3.36c0-.63.42-1.05 1.05-1.05h5.8c.63 0 1.05-.42 1.05-1.05v-2.39c0-.5.34-.84.88-.84h.38c.29 0 .55-.13.71-.34l.08-.08c.5-.63 1.05-1.34 1.6-2.14.63-.97.25-1.6-.88-1.6h-8.28c-.63 0-1.05-.42-1.05-1.05v-3.24c0-.63.42-1.05 1.05-1.05h13.69l.21-.04.55-.13c.29-.08.67 0 .92.17l2.56 1.97c.46.34.59.92.25 1.43-1.89 2.73-4.24 5.92-6.55 8.4-.17.17-.29.46-.29.71v.42c0 .5.34.84.84.84h6.47c.63 0 1.05.42 1.05 1.05v3.36h.02zm20.84 1.55c0 3.53-.17 7.6-1.09 11.13-.29 1.01-1.01 1.18-1.85.55-.34-.29-.71-.59-1.05-.8h-.08c-.38-.34-.55-.8-.42-1.26.8-3.07.97-6.68.97-9.7v-3.65c0-.63.42-1.05 1.05-1.05h1.43c.63 0 1.05.42 1.05 1.05v3.74l-.01-.01zm10.42 9.04c0 .63-.42 1.05-1.05 1.05h-1.43c-.63 0-1.05-.42-1.05-1.05V38.7c0-.63.42-1.05 1.05-1.05h1.43c.63 0 1.05.42 1.05 1.05v12.81zm0-16.47c0 .63-.42 1.05-1.05 1.05h-2.52c-.63 0-1.05.42-1.05 1.05V57.6c0 .63-.42 1.05-1.05 1.05h-2.65c-.63 0-1.05-.42-1.05-1.05V37.14c0-.63-.42-1.05-1.05-1.05h-2.94c-.63 0-1.05-.42-1.05-1.05v-2.9c0-.63.42-1.05 1.05-1.05h12.31c.63 0 1.05.42 1.05 1.05v2.9zm23.06 21.88c0 .63-.42 1.05-1.05 1.05H90.02c-.63 0-1.05-.42-1.05-1.05v-2.1c0-.63.42-1.05 1.05-1.05h3.03c.84 0 1.26-.55.97-1.26v-.08c-.17-.29-.29-.67-.46-1.01-.29-.59-.08-1.09.59-1.26.63-.17.59-.29-.04-.29h-1.64c-.63 0-1.05-.42-1.05-1.05v-5.8c0-.63.42-1.05 1.05-1.05h16.26c.63 0 1.05.42 1.05 1.05v5.8c0 .63-.42 1.05-1.05 1.05h-1.34c-.71 0-.71.13 0 .29.67.17.92.71.59 1.3v.08c-.17.21-.29.46-.42.67-.5.92-.13 1.55.92 1.55h2.48c.63 0 1.05.42 1.05 1.05v2.1l-.02.01zm42.15-.35h-7.3v-25.1s-.1.05-.15.1l-7.6 4.05-3.35-6.95 9.3-4.9c1.6-.85 3.35-1.5 4.85-1.5 2.55 0 4.25 1.7 4.25 4.7v29.6z" fill="#D93636"/><path d="M56.62 36.51h-6.47c-.5 0-.84-.34-.84-.84v-.42c0-.25.13-.55.29-.71 2.31-2.48 4.66-5.67 6.55-8.4.34-.5.21-1.09-.25-1.43l-2.56-1.97c-.25-.17-.63-.25-.92-.17l-.55.13-.21.04H37.97c-.63 0-1.05.42-1.05 1.05v3.24c0 .63.42 1.05 1.05 1.05h8.28c1.13 0 1.51.63.88 1.6-.55.8-1.09 1.51-1.6 2.14l-.08.08c-.17.21-.42.34-.71.34h-.38c-.55 0-.88.34-.88.84v2.39c0 .63-.42 1.05-1.05 1.05h-5.8c-.63 0-1.05.42-1.05 1.05v3.36c0 .63.42 1.05 1.05 1.05h5.8c.63 0 1.05.42 1.05 1.05v9.37c0 .5-.21.67-.8.67h-.08c-.42.04-1.43 0-2.56 0-1.09-.04-1.47.55-1.05 1.55.42 1.05.8 2.23 1.09 3.19.13.5.5.84 1.05.84 2.44 0 4.37-.25 5.97-1.01 1.68-.92 2.23-2.44 2.23-5.17v-9.45c0-.63.42-1.05 1.05-1.05h6.26c.63 0 1.05-.42 1.05-1.05v-3.36c0-.63-.42-1.05-1.05-1.05h-.02z" fill="#fff"/><path d="M33.72 47.22c-.34-.29-.46-.8-.34-1.22 1.55-4.33 2.39-9.62 2.81-16.13.04-.55-.34-.97-.88-1.09l-2.35-.34-.25-.04h-.17l-.67.13h-1.39c-.76 0-1.18-.5-1.01-1.26l.88-4.87c.08-.63-.29-1.13-.92-1.22l-3.32-.34c-.59-.04-1.05.34-1.13.92-.29 1.89-.59 3.86-.92 5.88-.13.55-.5.88-1.05.88h-1.85c-.63 0-1.05.42-1.05 1.05v3.23c0 .63.42 1.05 1.05 1.05h.46c.76 0 1.18.5 1.01 1.26-.71 3.61-1.47 7.01-2.23 9.83-.13.46.08.97.55 1.18l3.49 1.85c.29.17.5.04.59-.25.08-.25.25-.34.46-.21l.08.08.13.04.08.08c.29.29.38.67.13 1.05-1.26 1.93-2.73 3.49-4.49 4.7-.76.5-.84 1.13-.25 1.85.63.76 1.3 1.68 1.81 2.52.38.55.97.71 1.51.34a21.31 21.31 0 005.38-5.25c.46-.63 1.09-.71 1.64-.13.55.55 1.05 1.09 1.47 1.64.55.63 1.22.63 1.72-.04l2.18-2.9c.25-.38.25-.88-.04-1.26-.84-.97-1.89-2.02-3.11-3.02l-.01.01zm-4.91-4.83c-.17.5-.59.63-1.01.29-.34-.25-.63-.46-.97-.67-.21-.17-.34-.42-.29-.67.55-2.23 1.05-4.58 1.51-6.97.04-.29.29-.5.59-.5h1.13c.42 0 .67.29.63.71-.34 2.82-.84 5.42-1.6 7.81h.01zm59.07-11.3H75.57c-.63 0-1.05.42-1.05 1.05v2.9c0 .63.42 1.05 1.05 1.05h2.94c.63 0 1.05.42 1.05 1.05V57.6c0 .63.42 1.05 1.05 1.05h2.65c.63 0 1.05-.42 1.05-1.05V37.14c0-.63.42-1.05 1.05-1.05h2.52c.63 0 1.05-.42 1.05-1.05v-2.9c0-.63-.42-1.05-1.05-1.05zm23.06 22.68h-2.48c-1.05 0-1.43-.63-.92-1.55.13-.21.25-.46.42-.67v-.08c.34-.59.08-1.13-.59-1.3-.71-.17-.71-.29 0-.29h1.34c.63 0 1.05-.42 1.05-1.05v-5.8c0-.63-.42-1.05-1.05-1.05H92.45c-.63 0-1.05.42-1.05 1.05v5.8c0 .63.42 1.05 1.05 1.05h1.64c.63 0 .67.13.04.29-.67.17-.88.67-.59 1.26.17.34.29.71.46 1.01v.08c.29.71-.13 1.26-.97 1.26H90c-.63 0-1.05.42-1.05 1.05v2.1c0 .63.42 1.05 1.05 1.05h20.92c.63 0 1.05-.42 1.05-1.05v-2.1c0-.63-.42-1.05-1.05-1.05l.02-.01zm-7.94-3.1c-.29.88-.71 1.81-1.05 2.6-.08.21 0 .38.21.42.21.04.21.08 0 .08h-3.19c-.25 0-.25-.04 0-.13.21-.04.34-.25.29-.46-.21-.71-.55-1.55-.92-2.35-.29-.59-.08-.97.59-.97h3.53c.5 0 .76.34.55.8l-.01.01zm1.81-4.71c0 .38-.25.63-.63.63h-7.39c-.38 0-.63-.25-.63-.63v-.08c0-.38.25-.63.63-.63h7.39c.38 0 .63.25.63.63v.08zm-13.95-9.2h19.49c.58 0 1.05.47 1.05 1.05v2.14c0 .58-.47 1.05-1.05 1.05H90.86c-.58 0-1.05-.47-1.05-1.05v-2.14c0-.58.47-1.05 1.05-1.05zm.38-1.05h18.61c.63 0 1.05-.42 1.05-1.05V24.24c0-.63-.42-1.05-1.05-1.05h-3.36c-.63 0-1.05-.42-1.05-1.05v-.34c0-.63-.42-1.05-1.05-1.05h-2.1c-.63 0-1.05.42-1.05 1.05v.55c0 .5-.34.84-.84.84-.5 0-.84-.34-.84-.84v-.55c0-.63-.42-1.05-1.05-1.05h-2.1c-.63 0-1.05.42-1.05 1.05v.34c0 .63-.42 1.05-1.05 1.05h-3.07c-.63 0-1.05.42-1.05 1.05v10.42c0 .63.42 1.05 1.05 1.05zm13.91-9.12h.34c.38 0 .63.25.63.63s-.25.63-.63.63h-.34c-.38 0-.63-.25-.63-.63s.25-.63.63-.63zm0 4.46h.38c.34 0 .59.25.59.59 0 .38-.25.63-.59.63h-.38c-.38 0-.63-.25-.63-.63 0-.34.25-.59.63-.59zm-5-4.46h.46c.38 0 .63.25.63.63s-.25.63-.63.63h-.46c-.38 0-.63-.25-.63-.63s.25-.63.63-.63zm0 4.46h.5c.34 0 .59.25.59.59 0 .38-.25.63-.59.63h-.5c-.38 0-.63-.25-.63-.63 0-.34.25-.59.63-.59zm-4.79-4.46h.25c.38 0 .63.25.63.63s-.25.63-.63.63h-.25c-.38 0-.63-.25-.63-.63s.25-.63.63-.63zm0 4.46h.29c.34 0 .59.25.59.59 0 .38-.25.63-.59.63h-.29c-.38 0-.63-.25-.63-.63 0-.34.25-.59.63-.59zM76.5 23.19h10.67c.58 0 1.05.47 1.05 1.05v2.81c0 .58-.47 1.05-1.05 1.05H76.5c-.58 0-1.05-.47-1.05-1.05v-2.82c0-.58.47-1.05 1.05-1.05v.01z" fill="#fff"/><path d="M87.88 37.64h-1.43c-.58 0-1.05.47-1.05 1.05V51.5c0 .58.47 1.05 1.05 1.05h1.43c.58 0 1.05-.47 1.05-1.05V38.69c0-.58-.47-1.05-1.05-1.05zm-10.42.05h-1.43c-.63 0-1.05.42-1.05 1.05v3.65c0 3.02-.17 6.64-.97 9.7-.13.46.04.92.42 1.26h.08c.34.21.71.5 1.05.8.84.63 1.55.46 1.85-.55.92-3.53 1.09-7.6 1.09-11.13v-3.74c0-.63-.42-1.05-1.05-1.05l.01.01zm72.43-15.42c-1.5 0-3.25.65-4.85 1.5l-9.3 4.9 3.35 6.95 7.6-4.05s.1-.1.15-.1v25.1h7.3v-29.6c0-3-1.7-4.7-4.25-4.7zM64.21 39.7c0 .94.76 1.7 1.7 1.7s1.7-.76 1.7-1.7-.76-1.7-1.7-1.7-1.7.76-1.7 1.7zm54.99 0c0 .94.76 1.7 1.7 1.7s1.7-.76 1.7-1.7-.76-1.7-1.7-1.7-1.7.76-1.7 1.7z" fill="#fff"/></svg>