<svg width="1055" height="199" viewBox="0 0 1055 199" fill="none" xmlns="http://www.w3.org/2000/svg"><path d="M284.289 154.55h-90.846c-11.911 0-21.6-6.74-21.6-15.02s9.689-15.02 21.6-15.02H327.6a1.43 1.43 0 110 2.86H193.443c-10.159 0-18.748 5.57-18.748 12.16s8.589 12.16 18.748 12.16h90.846v2.86z" fill="#58393E"/><path d="M215.545 154.55c-11.911 0-21.601-6.74-21.601-15.02s9.69-15.02 21.601-15.02v2.86c-10.16 0-18.748 5.57-18.748 12.16s8.588 12.16 18.748 12.16v2.86zm65.912 27.17H123.548a1.43 1.43 0 110-2.86h157.909c10.16 0 18.748-5.57 18.748-12.16s-8.588-12.16-18.748-12.16v-2.86c11.912 0 21.601 6.74 21.601 15.02s-9.689 15.02-21.601 15.02zm488.764-27.17h90.846c11.911 0 21.601-6.74 21.601-15.02s-9.69-15.02-21.601-15.02H726.91a1.43 1.43 0 100 2.86h134.157c10.16 0 18.748 5.57 18.748 12.16s-8.588 12.16-18.748 12.16h-90.846v2.86z" fill="#58393E"/><path d="M838.966 154.55c11.911 0 21.6-6.74 21.6-15.02s-9.689-15.02-21.6-15.02v2.86c10.159 0 18.748 5.57 18.748 12.16s-8.589 12.16-18.748 12.16v2.86zm-65.903 27.17h157.91a1.43 1.43 0 100-2.86h-157.91c-10.159 0-18.747-5.57-18.747-12.16s8.588-12.16 18.747-12.16v-2.86c-11.911 0-21.6 6.74-21.6 15.02s9.689 15.02 21.6 15.02z" fill="#58393E"/><path d="M404.984 135.811c7.027 7.02 7.027 18.4 0 25.42l-31.139 31.11c-7.027 7.02-18.418 7.02-25.444 0l-31.14-31.11c-7.026-7.02-7.026-18.4 0-25.42l31.14-31.11c7.026-7.02 18.417-7.02 25.444 0l31.139 31.11z" fill="#CF2027"/><path d="M361.123 198.9c-5.145 0-9.99-2-13.633-5.64l-31.14-31.11a19.113 19.113 0 01-5.645-13.62c0-5.15 2.012-9.98 5.645-13.62l31.14-31.11a19.164 19.164 0 0113.633-5.64c5.145 0 9.989 2 13.633 5.64l31.139 31.11c7.517 7.51 7.517 19.73 0 27.24l-31.139 31.11a19.149 19.149 0 01-13.633 5.64zm0-98.18c-4.464 0-8.658 1.73-11.821 4.89l-31.14 31.11a16.595 16.595 0 00-4.894 11.81c0 4.46 1.731 8.65 4.894 11.8l31.14 31.11a16.622 16.622 0 0011.811 4.89c4.454 0 8.658-1.74 11.811-4.89l31.14-31.11c6.516-6.51 6.516-17.1 0-23.61l-31.14-31.11a16.605 16.605 0 00-11.811-4.89h.01z" fill="#58393E"/><path d="M398.739 137.62c6.026 6.02 6.026 15.78 0 21.8l-26.705 26.68c-6.026 6.02-15.795 6.02-21.821 0l-26.705-26.68c-6.026-6.02-6.026-15.78 0-21.8l26.705-26.68c6.026-6.02 15.795-6.02 21.821 0l26.705 26.68z" fill="#F25252"/><path d="M361.123 191.27c-4.294 0-8.328-1.67-11.371-4.7l-26.706-26.68a15.973 15.973 0 01-4.714-11.36c0-4.29 1.672-8.32 4.714-11.36l26.706-26.68a15.992 15.992 0 0111.371-4.7c4.294 0 8.328 1.67 11.37 4.7l26.706 26.68c6.266 6.26 6.266 16.45 0 22.71l-26.706 26.68a15.964 15.964 0 01-11.36 4.7l-.01.01zm-.01-84.2c-3.944 0-7.668 1.54-10.46 4.33l-26.706 26.68a14.678 14.678 0 00-4.334 10.45c0 3.95 1.542 7.66 4.334 10.45l26.706 26.68a14.702 14.702 0 0010.46 4.33c3.953 0 7.667-1.54 10.459-4.33l26.706-26.68c5.765-5.76 5.765-15.13 0-20.89l-26.706-26.68a14.701 14.701 0 00-10.459-4.33v-.01z" fill="#FBD5A2"/><path d="M354.167 135.04l.29.05 2.722.39c.631.15 1.071.63 1.021 1.26-.49 7.52-1.461 13.63-3.253 18.63-.15.49 0 1.07.391 1.41a30.86 30.86 0 013.593 3.49c.34.44.34 1.02.05 1.46l-2.522 3.35c-.581.78-1.362.78-1.992.05a20.73 20.73 0 00-1.702-1.89c-.63-.68-1.361-.58-1.892.15a24.547 24.547 0 01-6.215 6.07c-.631.44-1.312.24-1.752-.39a23.798 23.798 0 00-2.092-2.91c-.681-.83-.581-1.55.29-2.14 2.042-1.41 3.744-3.2 5.195-5.43.29-.44.19-.87-.15-1.21l-.1-.1-.15-.05-.1-.1c-.241-.15-.441-.05-.531.24-.1.34-.34.49-.68.29l-4.034-2.13a1.151 1.151 0 01-.631-1.36c.871-3.25 1.752-7.18 2.573-11.35.19-.87-.291-1.46-1.162-1.46h-.53c-.731 0-1.211-.49-1.211-1.21v-3.74c0-.73.49-1.21 1.211-1.21h2.132c.631 0 1.071-.39 1.211-1.02.39-2.33.731-4.61 1.071-6.79.1-.68.631-1.12 1.311-1.07l3.834.39c.731.1 1.161.68 1.071 1.41l-1.021 5.63c-.19.87.29 1.46 1.161 1.46h1.602l.78-.15h.191l.02-.02zm-3.404 6.31h-1.311c-.34 0-.63.24-.681.58-.53 2.77-1.121 5.48-1.751 8.06-.05.29.1.58.34.78.391.24.731.48 1.121.78.491.39.971.24 1.161-.34.871-2.77 1.462-5.77 1.842-9.03.05-.49-.24-.83-.731-.83h.01zm32.251 4.27v3.88c0 .73-.491 1.21-1.211 1.21h-7.237c-.731 0-1.211.49-1.211 1.21v10.92c0 3.15-.631 4.9-2.573 5.97-1.841.87-4.084 1.17-6.896 1.17-.631 0-1.071-.39-1.211-.97a50.624 50.624 0 00-1.262-3.69c-.49-1.17-.05-1.84 1.212-1.8 1.311 0 2.472.05 2.962 0h.101c.68 0 .92-.19.92-.78v-10.82c0-.73-.49-1.21-1.211-1.21h-6.706c-.731 0-1.211-.49-1.211-1.21v-3.88c0-.73.49-1.21 1.211-1.21h6.706c.731 0 1.211-.49 1.211-1.21v-2.77c0-.58.391-.97 1.021-.97h.441c.34 0 .63-.15.821-.39l.1-.1c.58-.73 1.211-1.55 1.841-2.47.731-1.12.291-1.84-1.021-1.84h-9.569c-.73 0-1.211-.49-1.211-1.21v-3.74c0-.73.491-1.21 1.211-1.21h15.835l.241-.05.63-.15c.341-.1.781 0 1.071.19l2.963 2.28c.531.39.681 1.07.29 1.65-2.182 3.15-4.904 6.84-7.577 9.7-.19.19-.34.53-.34.83v.49c0 .58.39.97.971.97h7.477c.73 0 1.211.48 1.211 1.21z" fill="#fff"/><path d="M488.054 135.811c7.026 7.02 7.026 18.4 0 25.42l-31.14 31.11c-7.026 7.02-18.417 7.02-25.444 0l-31.139-31.11c-7.027-7.02-7.027-18.4 0-25.42l31.139-31.11c7.027-7.02 18.418-7.02 25.444 0l31.14 31.11z" fill="#CF2027"/><path d="M444.192 198.9c-5.145 0-9.989-2-13.633-5.64l-31.139-31.11a19.11 19.11 0 01-5.646-13.62c0-5.15 2.012-9.98 5.646-13.62l31.139-31.11a19.166 19.166 0 0113.633-5.64c5.145 0 9.99 2 13.633 5.64l31.14 31.11c7.517 7.51 7.517 19.73 0 27.24l-31.14 31.11a19.147 19.147 0 01-13.633 5.64zm0-98.18c-4.464 0-8.658 1.73-11.821 4.89l-31.14 31.11a16.6 16.6 0 00-4.894 11.81c0 4.46 1.731 8.65 4.894 11.8l31.14 31.11a16.622 16.622 0 0011.811 4.89c4.454 0 8.658-1.74 11.811-4.89l31.14-31.11c6.516-6.51 6.516-17.1 0-23.61l-31.14-31.11a16.605 16.605 0 00-11.811-4.89h.01z" fill="#58393E"/><path d="M481.808 137.62c6.026 6.02 6.026 15.78 0 21.8l-26.705 26.68c-6.026 6.02-15.795 6.02-21.821 0l-26.705-26.68c-6.026-6.02-6.026-15.78 0-21.8l26.705-26.68c6.026-6.02 15.795-6.02 21.821 0l26.705 26.68z" fill="#F25252"/><path d="M444.192 191.27c-4.294 0-8.328-1.67-11.371-4.7l-26.705-26.68a15.97 15.97 0 01-4.715-11.36c0-4.29 1.672-8.32 4.715-11.36l26.705-26.68a15.992 15.992 0 0111.371-4.7c4.294 0 8.328 1.67 11.371 4.7l26.705 26.68c6.266 6.26 6.266 16.45 0 22.71l-26.705 26.68a15.968 15.968 0 01-11.361 4.7l-.01.01zm0-84.2a14.72 14.72 0 00-10.46 4.33l-26.705 26.68a14.673 14.673 0 00-4.334 10.45c0 3.95 1.541 7.66 4.334 10.45l26.705 26.68a14.703 14.703 0 0010.46 4.33c3.954 0 7.667-1.54 10.46-4.33l26.705-26.68c5.766-5.76 5.766-15.13 0-20.89l-26.705-26.68a14.703 14.703 0 00-10.46-4.33v-.01z" fill="#FBD5A2"/><path d="M423.353 146.98c0-.73.48-1.21 1.211-1.21h1.652c.73 0 1.211.49 1.211 1.21v4.32c0 4.08-.19 8.78-1.261 12.86-.341 1.17-1.161 1.36-2.132.63-.391-.34-.831-.68-1.212-.92h-.1c-.44-.39-.63-.92-.49-1.46.921-3.54 1.121-7.72 1.121-11.21v-4.22zm-.541-4.27v-3.35c0-.73.481-1.21 1.212-1.21h14.233c.731 0 1.211.49 1.211 1.21v3.35c0 .73-.49 1.21-1.211 1.21h-2.913c-.73 0-1.211.49-1.211 1.21v23.63c0 .73-.49 1.21-1.211 1.21h-3.063c-.731 0-1.211-.49-1.211-1.21v-23.63c0-.73-.48-1.21-1.211-1.21h-3.403c-.731 0-1.212-.49-1.212-1.21h-.01zm15.835-12.47v3.25c0 .73-.49 1.21-1.211 1.21h-12.331c-.731 0-1.212-.49-1.212-1.21v-3.25c0-.73.491-1.21 1.212-1.21h12.331c.731 0 1.211.48 1.211 1.21zm-3.253 31.49v-14.8c0-.73.481-1.21 1.212-1.21h1.651c.731 0 1.211.49 1.211 1.21v14.8c0 .73-.49 1.21-1.211 1.21h-1.651c-.731 0-1.212-.49-1.212-1.21zm26.666 2.62h2.862c.731 0 1.212.49 1.212 1.21v2.43c0 .73-.491 1.21-1.212 1.21h-24.183c-.73 0-1.211-.49-1.211-1.21v-2.43c0-.73.491-1.21 1.211-1.21h3.494c.971 0 1.461-.63 1.121-1.46v-.1c-.19-.34-.341-.78-.531-1.16-.34-.68-.1-1.26.681-1.46.731-.19.681-.34-.05-.34h-1.892c-.731 0-1.211-.49-1.211-1.21v-6.7c0-.73.49-1.21 1.211-1.21h18.798c.731 0 1.211.49 1.211 1.21v6.7c0 .73-.49 1.21-1.211 1.21h-1.552c-.83 0-.83.15 0 .34.781.19 1.071.83.681 1.5v.1c-.19.24-.34.53-.49.78-.581 1.07-.151 1.79 1.071 1.79l-.01.01zm3.403-18.44v2.47c0 .73-.491 1.21-1.211 1.21H441.72c-.73 0-1.211-.49-1.211-1.21v-2.47c0-.73.491-1.21 1.211-1.21h22.532c.73 0 1.211.49 1.211 1.21zm-.591-15.67v12.03c0 .73-.49 1.21-1.211 1.21h-21.52c-.731 0-1.211-.48-1.211-1.21v-12.03c0-.73.49-1.21 1.211-1.21h3.543c.731 0 1.211-.49 1.211-1.21v-.39c0-.73.481-1.21 1.211-1.21h2.433c.73 0 1.211.49 1.211 1.21v.63c0 .58.39.97.971.97.58 0 .971-.39.971-.97v-.63c0-.73.49-1.21 1.211-1.21h2.432c.731 0 1.211.49 1.211 1.21v.39c0 .73.481 1.21 1.211 1.21h3.884c.731 0 1.211.48 1.211 1.21h.02zm-18.697 3.44c0 .44.29.73.73.73h.291c.44 0 .73-.29.73-.73s-.29-.73-.73-.73h-.291c-.44 0-.73.29-.73.73zm0 5.1c0 .44.29.73.73.73h.341c.39 0 .68-.29.68-.73 0-.39-.29-.68-.68-.68h-.341c-.44 0-.73.29-.73.68zm1.651 16.44v.1c0 .44.29.73.731.73h8.548c.44 0 .731-.29.731-.73v-.1c0-.44-.291-.73-.731-.73h-8.548c-.441 0-.731.29-.731.73zm7.287 4.61h-4.084c-.781 0-1.021.44-.68 1.12.44.92.82 1.89 1.071 2.72.05.24-.101.49-.341.53-.29.1-.29.15 0 .15h3.694c.24 0 .24-.05 0-.1s-.341-.24-.24-.49c.39-.92.87-1.99 1.211-3.01.24-.53-.05-.92-.631-.92zm-2.672-25.42h.53c.44 0 .731-.29.731-.73s-.291-.73-.731-.73h-.53c-.441 0-.731.29-.731.73s.29.73.731.73zm.58 3.69h-.58c-.441 0-.731.29-.731.68 0 .44.29.73.731.73h.58c.39 0 .681-.29.681-.73 0-.39-.291-.68-.681-.68zm6.316-4.42c0-.44-.29-.73-.731-.73h-.39c-.44 0-.731.29-.731.73s.291.73.731.73h.39c.441 0 .731-.29.731-.73zm0 5.1c0-.39-.29-.68-.681-.68h-.44c-.44 0-.731.29-.731.68 0 .44.291.73.731.73h.44c.391 0 .681-.29.681-.73z" fill="#fff"/><path d="M571.132 135.811c7.026 7.02 7.026 18.4 0 25.42l-31.14 31.11c-7.026 7.02-18.417 7.02-25.444 0l-31.139-31.11c-7.027-7.02-7.027-18.4 0-25.42l31.139-31.11c7.027-7.02 18.418-7.02 25.444 0l31.14 31.11z" fill="#CF2027"/><path d="M527.261 198.9c-5.145 0-9.99-2-13.633-5.64l-31.14-31.11a19.113 19.113 0 01-5.645-13.62c0-5.15 2.012-9.98 5.645-13.62l31.14-31.11a19.164 19.164 0 0113.633-5.64c5.144 0 9.989 2 13.632 5.64l31.14 31.11c7.517 7.51 7.517 19.73 0 27.24l-31.14 31.11a19.147 19.147 0 01-13.632 5.64zm0-98.18c-4.465 0-8.659 1.73-11.822 4.89L484.3 136.72a16.596 16.596 0 00-4.895 11.81c0 4.46 1.732 8.65 4.895 11.8l31.139 31.11a16.622 16.622 0 0011.812 4.89c4.454 0 8.658-1.74 11.811-4.89l31.139-31.11c6.516-6.51 6.516-17.1 0-23.61l-31.139-31.11a16.605 16.605 0 00-11.811-4.89h.01z" fill="#58393E"/><path d="M564.886 137.62c6.026 6.02 6.026 15.78 0 21.8l-26.705 26.68c-6.026 6.02-15.795 6.02-21.821 0l-26.705-26.68c-6.026-6.02-6.026-15.78 0-21.8l26.705-26.68c6.026-6.02 15.795-6.02 21.821 0l26.705 26.68z" fill="#F25252"/><path d="M527.26 191.27c-4.294 0-8.328-1.67-11.371-4.7l-26.705-26.68a15.969 15.969 0 01-4.714-11.36c0-4.29 1.671-8.32 4.714-11.36l26.705-26.68a15.992 15.992 0 0111.371-4.7c4.294 0 8.328 1.67 11.371 4.7l26.705 26.68c6.266 6.26 6.266 16.45 0 22.71l-26.705 26.68a15.968 15.968 0 01-11.361 4.7l-.01.01zm0-84.2c-3.943 0-7.667 1.54-10.46 4.33l-26.705 26.68a14.673 14.673 0 00-4.334 10.45c0 3.95 1.541 7.66 4.334 10.45l26.705 26.68a14.705 14.705 0 0010.46 4.33c3.954 0 7.668-1.54 10.46-4.33l26.706-26.68c5.765-5.76 5.765-15.13 0-20.89l-26.706-26.68a14.702 14.702 0 00-10.46-4.33v-.01z" fill="#FBD5A2"/><path d="M546.779 145.08h-12.772c-1.021 0-1.461.63-1.071 1.6 2.813 6.99 7.477 12.76 14.374 15.96 1.071.49 1.211 1.31.44 2.18-1.071 1.21-2.182 2.72-3.013 3.98-.39.58-.971.78-1.601.49-6.607-3.3-11.121-8.3-14.474-14.8-.781-1.6-1.652-1.55-2.432.05-2.723 5.73-7.137 10.87-14.424 14.7-.631.34-1.261.15-1.652-.44-.73-1.12-1.791-2.33-2.862-3.4-.921-.82-.821-1.65.29-2.23 8.108-4.22 12.041-10.14 13.943-16.6.24-.92-.24-1.5-1.161-1.5h-12.532c-.73 0-1.211-.49-1.211-1.21v-4.51c0-.73.491-1.21 1.211-1.21h14.084c.68 0 1.161-.44 1.161-1.12.19-3.3.19-6.5.24-9.61 0-.73.49-1.21 1.211-1.21h4.955c.73 0 1.211.49 1.211 1.21-.05 3.06-.1 6.21-.34 9.41-.05.78.44 1.31 1.211 1.31h15.204c.731 0 1.211.49 1.211 1.21v4.51c0 .73-.49 1.21-1.211 1.21l.01.02z" fill="#fff"/><path d="M654.201 135.811c7.027 7.02 7.027 18.4 0 25.42l-31.139 31.11c-7.027 7.02-18.418 7.02-25.444 0l-31.14-31.11c-7.027-7.02-7.027-18.4 0-25.42l31.14-31.11c7.026-7.02 18.417-7.02 25.444 0l31.139 31.11z" fill="#CF2027"/><path d="M610.34 198.9c-5.145 0-9.99-2-13.633-5.64l-31.14-31.11a19.113 19.113 0 01-5.645-13.62c0-5.15 2.012-9.98 5.645-13.62l31.14-31.11a19.164 19.164 0 0113.633-5.64c5.145 0 9.989 2 13.633 5.64l31.139 31.11c7.517 7.51 7.517 19.73 0 27.24l-31.139 31.11a19.149 19.149 0 01-13.633 5.64zm0-98.18c-4.465 0-8.659 1.73-11.822 4.89l-31.139 31.11a16.596 16.596 0 00-4.895 11.81c0 4.46 1.732 8.65 4.895 11.8l31.139 31.11a16.622 16.622 0 0011.812 4.89c4.454 0 8.658-1.74 11.811-4.89l31.139-31.11c6.517-6.51 6.517-17.1 0-23.61l-31.139-31.11a16.605 16.605 0 00-11.811-4.89h.01z" fill="#58393E"/><path d="M647.956 137.62c6.025 6.02 6.025 15.78 0 21.8L621.25 186.1c-6.025 6.02-15.795 6.02-21.82 0l-26.706-26.68c-6.025-6.02-6.025-15.78 0-21.8l26.706-26.68c6.025-6.02 15.795-6.02 21.82 0l26.706 26.68z" fill="#F25252"/><path d="M610.339 191.27c-4.294 0-8.327-1.67-11.37-4.7l-26.706-26.68a15.969 15.969 0 01-4.714-11.36c0-4.29 1.671-8.32 4.714-11.36l26.706-26.68a15.987 15.987 0 0111.37-4.7c4.294 0 8.328 1.67 11.371 4.7l26.705 26.68c6.266 6.26 6.266 16.45 0 22.71l-26.705 26.68a15.968 15.968 0 01-11.361 4.7l-.01.01zm0-84.2c-3.943 0-7.667 1.54-10.46 4.33l-26.705 26.68a14.678 14.678 0 00-4.334 10.45c0 3.95 1.542 7.66 4.334 10.45l26.705 26.68a14.705 14.705 0 0010.46 4.33c3.954 0 7.668-1.54 10.46-4.33l26.706-26.68c5.765-5.76 5.765-15.13 0-20.89l-26.706-26.68a14.702 14.702 0 00-10.46-4.33v-.01z" fill="#FBD5A2"/><path d="M630.099 159.88h-5.636c-3.153 0-3.353.97-.44 2.04 2.042.73 4.124 1.36 6.216 1.89 1.311.29 1.551 1.12.681 2.18-.731.92-1.502 1.99-2.092 2.91-.291.44-.821.68-1.412.53-4.084-1.26-8.258-3.11-11.901-5.39-1.211-.68-1.942-.29-1.942 1.07v3.59c0 .73-.49 1.21-1.211 1.21h-4.274c-.731 0-1.211-.49-1.211-1.21v-3.35c0-1.36-.731-1.75-1.942-1.07-3.744 2.23-8.058 4.08-12.242 5.24-.53.15-1.071-.05-1.361-.53a39.226 39.226 0 00-2.282-3.01c-.821-1.07-.581-1.84.731-2.18 2.282-.49 4.614-1.17 6.846-1.94 3.013-1.02 2.813-1.99-.44-1.99h-5.636c-.73 0-1.211-.49-1.211-1.21v-2.81c0-.73.491-1.21 1.211-1.21h15.685c.39 0 .631-.24.631-.68 0-.39-.241-.63-.631-.63h-10.59c-.731 0-1.211-.49-1.211-1.21v-9.75c0-.68-.34-.83-.871-.39-.53.44-1.121.34-1.551-.15-.731-.87-1.702-1.79-2.573-2.57-.821-.73-.821-1.5.05-2.18 4.084-3.11 7.187-6.79 9.129-10.19.29-.44.781-.73 1.311-.58l4.374.83c.971.19 1.312.92.781 1.79l-.19.29c-.681 1.07-.34 1.75.921 1.75h2.332c.44 0 .871-.29 1.071-.68v-.1c.49-1.02.871-2.04 1.211-3.01.24-.58.731-.92 1.361-.87l4.715.58c1.071.1 1.461.83.921 1.75l-.241.44c-.68 1.17-.29 1.89 1.072 1.89h9.569c.73 0 1.211.49 1.211 1.21v2.67c0 .73-.491 1.21-1.211 1.21h-12.382c-.391 0-.631.24-.631.63s.24.63.631.63h9.859c.731 0 1.211.49 1.211 1.21v1.8c0 .73-.48 1.21-1.211 1.21h-9.809c-.441 0-.681.24-.681.63 0 .44.24.68.681.68h9.809c.731 0 1.211.48 1.211 1.21v1.79c0 .73-.48 1.21-1.211 1.21h-9.809c-.441 0-.681.24-.681.63 0 .44.24.68.681.68h13.403c.73 0 1.211.49 1.211 1.21v2.52c0 .73-.491 1.21-1.211 1.21h-14.624c-.441 0-.681.24-.681.63 0 .44.24.68.681.68h15.835c.73 0 1.211.49 1.211 1.21v2.81c0 .73-.481 1.21-1.211 1.21l-.01.03zm-21.711-23.19c0-.39-.24-.63-.63-.63h-6.366c-.391 0-.631.24-.631.63s.24.63.631.63h6.366c.39 0 .63-.24.63-.63zm0 5.48c0-.39-.24-.63-.63-.63h-6.316c-.441 0-.681.24-.681.63 0 .44.24.68.681.68h6.316c.39 0 .63-.24.63-.68zm-7.627 5.53c0 .44.24.68.681.68h6.316c.39 0 .63-.24.63-.68 0-.39-.24-.63-.63-.63h-6.316c-.441 0-.681.24-.681.63z" fill="#fff"/><path d="M737.279 135.811c7.027 7.02 7.027 18.4 0 25.42l-31.139 31.11c-7.027 7.02-18.418 7.02-25.444 0l-31.14-31.11c-7.027-7.02-7.027-18.4 0-25.42l31.14-31.11c7.026-7.02 18.417-7.02 25.444 0l31.139 31.11z" fill="#CF2027"/><path d="M693.408 198.9c-5.145 0-9.989-2-13.633-5.64l-31.139-31.11a19.11 19.11 0 01-5.646-13.62c0-5.15 2.012-9.98 5.646-13.62l31.139-31.11a19.166 19.166 0 0113.633-5.64c5.145 0 9.989 2 13.633 5.64l31.139 31.11c7.518 7.51 7.518 19.73 0 27.24l-31.139 31.11a19.149 19.149 0 01-13.633 5.64zm0-98.18c-4.464 0-8.658 1.73-11.821 4.89l-31.14 31.11a16.595 16.595 0 00-4.894 11.81c0 4.46 1.731 8.65 4.894 11.8l31.14 31.11a16.622 16.622 0 0011.811 4.89c4.454 0 8.658-1.74 11.811-4.89l31.14-31.11c6.516-6.51 6.516-17.1 0-23.61l-31.14-31.11a16.605 16.605 0 00-11.811-4.89h.01z" fill="#58393E"/><path d="M731.034 137.62c6.026 6.02 6.026 15.78 0 21.8l-26.706 26.68c-6.025 6.02-15.794 6.02-21.82 0l-26.706-26.68c-6.025-6.02-6.025-15.78 0-21.8l26.706-26.68c6.026-6.02 15.795-6.02 21.82 0l26.706 26.68z" fill="#F25252"/><path d="M693.408 191.27c-4.294 0-8.328-1.67-11.371-4.7l-26.705-26.68a15.97 15.97 0 01-4.715-11.36c0-4.29 1.672-8.32 4.715-11.36l26.705-26.68a15.992 15.992 0 0111.371-4.7c4.294 0 8.328 1.67 11.371 4.7l26.705 26.68c6.266 6.26 6.266 16.45 0 22.71l-26.705 26.68a15.968 15.968 0 01-11.361 4.7l-.01.01zm0-84.2c-3.944 0-7.668 1.54-10.46 4.33l-26.705 26.68a14.674 14.674 0 00-4.335 10.45c0 3.95 1.542 7.66 4.335 10.45l26.705 26.68a14.702 14.702 0 0010.46 4.33c3.953 0 7.667-1.54 10.46-4.33l26.705-26.68c5.765-5.76 5.765-15.13 0-20.89l-26.705-26.68a14.705 14.705 0 00-10.46-4.33v-.01z" fill="#FBD5A2"/><path d="M690.105 126.26h5.736c.39 0 .78.19 1.021.53 4.564 6.36 10.83 11.4 17.436 14.31 1.021.49 1.211 1.26.49 2.13-.92 1.12-1.801 2.38-2.572 3.59-.34.63-1.021.83-1.551.44h-.1a51.748 51.748 0 01-4.275-2.62c-.78-.49-1.261-.24-1.261.68v.29c0 .73-.49 1.21-1.211 1.21h-20.639c-.731 0-1.212-.49-1.212-1.21v-.44c0-.97-.53-1.21-1.311-.68a94.316 94.316 0 01-4.464 2.77c-.581.34-1.261.15-1.652-.49-.63-.97-1.551-2.13-2.382-3.15-.731-.78-.58-1.55.34-2.04 7.047-3.74 13.353-9.75 16.606-14.75.19-.34.631-.58 1.021-.58l-.02.01zm-11.511 42.6v-16.89c0-.73.491-1.21 1.211-1.21h27.637c.73 0 1.211.48 1.211 1.21v16.89c0 .73-.491 1.21-1.211 1.21h-4.855c-.481 0-.821-.34-.821-.78 0-.49-.34-.82-.781-.82h-14.954c-.49 0-.831.34-.831.82 0 .44-.34.78-.78.78h-4.615c-.73 0-1.211-.49-1.211-1.21zm22.431-12.23h-15.104c-.44 0-.731.29-.731.73v4.51c0 .44.291.73.731.73h15.104c.441 0 .731-.29.731-.73v-4.51c0-.44-.29-.73-.731-.73zm-13.693-15.62h11.902c1.211 0 1.411-.53.48-1.31-2.282-1.99-4.324-4.08-5.875-6.07-.391-.49-.871-.49-1.211 0a44.262 44.262 0 01-5.776 6.07c-.871.83-.681 1.31.49 1.31h-.01z" fill="#fff"/><path d="M446.523 37.65c7.027 7.02 7.027 18.4 0 25.42l-31.139 31.11c-7.027 7.02-18.418 7.02-25.444 0L358.8 63.07c-7.026-7.02-7.026-18.4 0-25.42l31.14-31.11c7.026-7.02 18.417-7.02 25.444 0l31.139 31.11z" fill="#CF2027"/><path d="M402.652 100.74c-5.145 0-9.989-2-13.633-5.64L357.88 63.99a19.11 19.11 0 01-5.646-13.62c0-5.15 2.012-9.98 5.646-13.62l31.139-31.11A19.166 19.166 0 01402.652 0c5.145 0 9.99 2 13.633 5.64l31.14 31.11c7.517 7.51 7.517 19.73 0 27.24l-31.14 31.11a19.147 19.147 0 01-13.633 5.64zm0-98.18c-4.464 0-8.658 1.73-11.821 4.89l-31.14 31.11a16.595 16.595 0 00-4.894 11.81c0 4.46 1.731 8.65 4.894 11.8l31.14 31.11a16.622 16.622 0 0011.811 4.89c4.454 0 8.658-1.74 11.811-4.89l31.14-31.11c6.516-6.51 6.516-17.1 0-23.61l-31.14-31.11a16.605 16.605 0 00-11.811-4.89h.01z" fill="#58393E"/><path d="M440.268 39.47c6.026 6.02 6.026 15.78 0 21.8l-26.705 26.68c-6.026 6.02-15.795 6.02-21.821 0l-26.705-26.68c-6.026-6.02-6.026-15.78 0-21.8l26.705-26.68c6.026-6.02 15.795-6.02 21.821 0l26.705 26.68z" fill="#F25252"/><path d="M402.652 93.11c-4.294 0-8.328-1.67-11.371-4.7l-26.705-26.68a15.97 15.97 0 01-4.715-11.36c0-4.29 1.672-8.32 4.715-11.36l26.705-26.68a15.991 15.991 0 0111.371-4.7c4.294 0 8.328 1.67 11.371 4.7l26.705 26.68c6.266 6.26 6.266 16.45 0 22.71L414.023 88.4a15.968 15.968 0 01-11.361 4.7l-.01.01zm0-84.2a14.72 14.72 0 00-10.46 4.33l-26.705 26.68a14.673 14.673 0 00-4.334 10.45c0 3.95 1.541 7.66 4.334 10.45l26.705 26.68a14.703 14.703 0 0010.46 4.33c3.954 0 7.667-1.54 10.46-4.33l26.705-26.68c5.766-5.76 5.766-15.13 0-20.89l-26.705-26.68a14.703 14.703 0 00-10.46-4.33v-.01z" fill="#FBD5A2"/><path d="M393.664 38.58l4.034 1.5c.831.34 1.071 1.02.631 1.75-1.162 1.84-2.433 3.69-3.834 5.43-.15.19-.24.49-.24.78V70.6c0 .73-.491 1.21-1.211 1.21h-4.325c-.73 0-1.211-.49-1.211-1.21V57.11c0-1.17-.58-1.41-1.361-.63l-.1.1-.44.34c-.581.53-1.312.44-1.802-.24-.781-1.12-1.892-2.52-2.813-3.64-.53-.68-.44-1.41.19-1.89 4.034-3.11 8.208-7.57 10.981-12.08.34-.53.921-.73 1.501-.49zm-1.751-10.14l4.083 1.65c.871.39 1.071 1.12.491 1.89-3.203 3.83-7.287 7.76-11.171 10.58-.63.49-1.311.29-1.751-.39a67.68 67.68 0 00-2.132-3.25c-.491-.68-.391-1.41.29-1.89 3.203-2.23 6.656-5.48 8.698-8.2.34-.44.921-.63 1.501-.39h-.009zm32.2 16.16v3.93c0 .73-.49 1.21-1.211 1.21h-3.644c-.73 0-1.211.49-1.211 1.21v13.34c0 3.45-.58 5.29-2.912 6.31-1.992.92-4.715 1.07-8.108 1.07-.681 0-1.161-.44-1.261-1.07a30.274 30.274 0 00-1.071-3.88c-.391-1.17.1-1.84 1.311-1.8 1.752.05 3.493.05 4.084.05.821 0 1.121-.19 1.121-.83v-13.2c0-.73-.481-1.21-1.211-1.21h-10.25c-.731 0-1.211-.49-1.211-1.21v-3.93c0-.73.48-1.21 1.211-1.21h23.172c.731 0 1.211.49 1.211 1.21l-.02.01zm-1.161-12.81v3.93c0 .73-.481 1.21-1.211 1.21h-20.059c-.731 0-1.211-.49-1.211-1.21v-3.93c0-.73.48-1.21 1.211-1.21h20.059c.73 0 1.211.48 1.211 1.21z" fill="#fff"/><path d="M529.593 37.65c7.026 7.02 7.026 18.4 0 25.42l-31.14 31.11c-7.026 7.02-18.417 7.02-25.444 0L441.87 63.07c-7.027-7.02-7.027-18.4 0-25.42l31.139-31.11c7.027-7.02 18.418-7.02 25.444 0l31.14 31.11z" fill="#CF2027"/><path d="M485.731 100.74c-5.145 0-9.989-2-13.633-5.64l-31.139-31.11a19.11 19.11 0 01-5.646-13.62c0-5.15 2.012-9.98 5.646-13.62l31.139-31.11A19.166 19.166 0 01485.731 0c5.145 0 9.99 2 13.633 5.64l31.14 31.11c7.517 7.51 7.517 19.73 0 27.24l-31.14 31.11a19.147 19.147 0 01-13.633 5.64zm0-98.18c-4.464 0-8.658 1.73-11.821 4.89l-31.139 31.11a16.596 16.596 0 00-4.895 11.81c0 4.46 1.732 8.65 4.895 11.8l31.139 31.11a16.622 16.622 0 0011.811 4.89c4.454 0 8.658-1.74 11.811-4.89l31.14-31.11c6.516-6.51 6.516-17.1 0-23.61l-31.14-31.11a16.603 16.603 0 00-11.811-4.89h.01z" fill="#58393E"/><path d="M523.347 39.47c6.026 6.02 6.026 15.78 0 21.8l-26.705 26.68c-6.026 6.02-15.795 6.02-21.821 0l-26.705-26.68c-6.026-6.02-6.026-15.78 0-21.8l26.705-26.68c6.026-6.02 15.795-6.02 21.821 0l26.705 26.68z" fill="#F25252"/><path d="M485.731 93.11c-4.294 0-8.328-1.67-11.371-4.7l-26.705-26.68a15.97 15.97 0 01-4.715-11.36c0-4.29 1.672-8.32 4.715-11.36l26.705-26.68a15.991 15.991 0 0111.371-4.7c4.294 0 8.328 1.67 11.371 4.7l26.705 26.68c6.266 6.26 6.266 16.45 0 22.71L497.102 88.4a15.968 15.968 0 01-11.361 4.7l-.01.01zm0-84.2a14.72 14.72 0 00-10.46 4.33l-26.705 26.68a14.673 14.673 0 00-4.334 10.45c0 3.95 1.541 7.66 4.334 10.45l26.705 26.68a14.703 14.703 0 0010.46 4.33c3.954 0 7.667-1.54 10.46-4.33l26.705-26.68c5.766-5.76 5.766-15.13 0-20.89l-26.705-26.68a14.703 14.703 0 00-10.46-4.33v-.01z" fill="#FBD5A2"/><path d="M498.734 38.29h6.656c.781 0 1.261.49 1.211 1.26v1.6c-.34 18.63-.68 25.57-2.142 27.71-1.161 1.79-2.332 2.33-3.934 2.72-1.211.24-2.912.29-4.714.24-.681 0-1.161-.44-1.261-1.07-.15-1.07-.491-2.23-.871-3.35-.44-1.21-.05-1.84 1.261-1.79.871.05 1.652.05 2.182.05.681 0 1.071-.19 1.552-.83.821-1.17 1.261-6.26 1.461-19.21 0-.73-.49-1.21-1.211-1.21h-.44c-.681 0-1.162.49-1.212 1.17-.68 11.26-2.672 19.8-9.128 25.77-.631.58-1.362.44-1.842-.24a30.474 30.474 0 00-1.802-2.09c-.24-.24-.63-.39-.971-.34-6.366.63-12.772 1.17-17.877 1.65-.68.05-1.211-.39-1.311-1.07l-.39-3.06c-.15-.78.34-1.36 1.121-1.41 1.992-.1 4.274-.24 6.746-.44.581 0 .971-.44.971-1.02 0-.58-.39-.97-.971-.97h-5.585c-.731 0-1.211-.49-1.211-1.21v-2.23c0-.73.48-1.21 1.211-1.21h5.976c.34 0 .58-.24.58-.63 0-.34-.24-.58-.58-.58h-5.776c-.731 0-1.211-.49-1.211-1.21V43.06c0-.73.49-1.21 1.211-1.21h5.776c.34 0 .58-.24.58-.58 0-.34-.24-.58-.58-.58h-6.897c-.731 0-1.211-.48-1.211-1.21v-2.33c0-.73.48-1.21 1.211-1.21h6.947c.29 0 .53-.24.53-.58 0-.29-.24-.53-.49-.49h-.1c-1.942.1-3.834.15-5.686.19-.63.05-1.121-.39-1.261-1.02-.14-.63-.34-1.31-.581-1.99-.34-1.02.101-1.7 1.162-1.75 6.025-.34 12.582-1.02 17.286-1.94.53-.1 1.071.15 1.311.63l1.552 2.67c.48.87.19 1.6-.781 1.79-1.802.29-3.643.53-5.635.78a.892.892 0 00-.781.87c0 .49.34.83.831.83h6.316c.73 0 1.211.49 1.211 1.21v2.33c0 .73-.491 1.21-1.211 1.21h-6.557c-.34 0-.58.24-.58.58 0 .34.24.58.58.58h5.976c.731 0 1.211.49 1.211 1.21v12.23c0 .73-.48 1.21-1.211 1.21h-5.926c-.39 0-.63.24-.63.58 0 .39.24.63.63.63h6.216c.731 0 1.212.49 1.212 1.21v1.12c0 1.41.53 1.55 1.121.29 1.891-3.98 2.672-8.83 2.962-14.65.05-.78-.44-1.26-1.211-1.26h-1.161c-.731 0-1.211-.48-1.211-1.21v-3.69c0-.73.49-1.21 1.211-1.21h1.361c.731 0 1.212-.49 1.212-1.21v-6.94c0-.73.49-1.21 1.211-1.21h3.984c.73 0 1.211.49 1.211 1.21 0 2.38 0 4.71-.05 6.94 0 .73.48 1.21 1.211 1.21l.03-.01zm-28.217 8.25c0 .44.29.73.731.73h.871c.39 0 .68-.29.68-.73 0-.39-.29-.68-.68-.68h-.871c-.441 0-.731.29-.731.68zm.681 5.87h.921c.39 0 .68-.29.68-.68 0-.39-.29-.68-.68-.68h-.921a.663.663 0 00-.681.68c0 .39.29.68.681.68zm9.228-6.55h-.87c-.441 0-.731.29-.731.68 0 .44.29.73.731.73h.87c.391 0 .681-.29.681-.73 0-.39-.29-.68-.681-.68zm.681 5.87c0-.39-.29-.68-.681-.68h-.92a.663.663 0 00-.681.68c0 .39.29.68.681.68h.92c.391 0 .681-.29.681-.68zm-2.282 11.36v.05c0 .49.29.73.781.73 2.092-.19 4.174-.34 6.266-.49.19-.05.44-.15.53-.34l.15-.19c.19-.29.1-.49-.24-.49h-6.746c-.441 0-.731.29-.731.73h-.01z" fill="#fff"/><path d="M612.671 37.65c7.027 7.02 7.027 18.4 0 25.42l-31.14 31.11c-7.026 7.02-18.417 7.02-25.444 0l-31.139-31.11c-7.027-7.02-7.027-18.4 0-25.42l31.139-31.11c7.027-7.02 18.418-7.02 25.444 0l31.14 31.11z" fill="#CF2027"/><path d="M568.8 100.74c-5.145 0-9.99-2-13.633-5.64l-31.14-31.11a19.113 19.113 0 01-5.645-13.62c0-5.15 2.012-9.98 5.645-13.62l31.14-31.11A19.164 19.164 0 01568.8 0c5.144 0 9.989 2 13.633 5.64l31.139 31.11c7.517 7.51 7.517 19.73 0 27.24L582.433 95.1a19.149 19.149 0 01-13.633 5.64zm0-98.18c-4.465 0-8.659 1.73-11.822 4.89l-31.139 31.11a16.596 16.596 0 00-4.895 11.81c0 4.46 1.732 8.65 4.895 11.8l31.139 31.11a16.622 16.622 0 0011.812 4.89c4.454 0 8.658-1.74 11.811-4.89l31.139-31.11c6.516-6.51 6.516-17.1 0-23.61L580.601 7.45a16.605 16.605 0 00-11.811-4.89h.01z" fill="#58393E"/><path d="M606.416 39.47c6.025 6.02 6.025 15.78 0 21.8L579.71 87.95c-6.025 6.02-15.795 6.02-21.82 0l-26.706-26.68c-6.025-6.02-6.025-15.78 0-21.8l26.706-26.68c6.025-6.02 15.795-6.02 21.82 0l26.706 26.68z" fill="#F25252"/><path d="M568.799 93.11c-4.294 0-8.328-1.67-11.37-4.7l-26.706-26.68a15.969 15.969 0 01-4.714-11.36c0-4.29 1.671-8.32 4.714-11.36l26.706-26.68a15.987 15.987 0 0111.37-4.7c4.294 0 8.328 1.67 11.371 4.7l26.705 26.68c6.266 6.26 6.266 16.45 0 22.71L580.17 88.4a15.968 15.968 0 01-11.361 4.7l-.01.01zm0-84.2c-3.943 0-7.667 1.54-10.46 4.33l-26.705 26.68a14.673 14.673 0 00-4.334 10.45c0 3.95 1.541 7.66 4.334 10.45l26.705 26.68a14.705 14.705 0 0010.46 4.33c3.954 0 7.668-1.54 10.46-4.33l26.706-26.68c5.765-5.76 5.765-15.13 0-20.89l-26.706-26.68a14.702 14.702 0 00-10.46-4.33v-.01z" fill="#FBD5A2"/><path d="M581.131 44.6l3.493 1.94c.531.29.731.87.531 1.46-1.992 5.05-4.805 9.17-8.358 12.47-.871.83-.781 1.65.39 2.09 3.304 1.12 7.047 1.94 11.221 2.47 1.461.19 1.802 1.02.921 2.18a39.074 39.074 0 00-2.382 3.93c-.241.44-.731.73-1.262.63-6.606-.97-12.091-2.67-16.655-5.19-.341-.19-.821-.19-1.161-.05-4.905 2.47-10.44 4.08-16.466 5.09-.631.15-1.161-.19-1.411-.78a29.293 29.293 0 00-1.942-3.69c-.731-1.17-.391-1.94.921-2.13 4.224-.58 8.107-1.46 11.611-2.62 1.071-.39 1.211-1.21.44-2.04-1.752-1.84-3.353-3.98-4.754-6.31-.441-.73-.191-1.46.68-1.75l1.071-.34c1.462-.49 1.412-.83-.15-.83h-5.585c-.731 0-1.211-.49-1.211-1.21V45.8c0-.73.48-1.21 1.211-1.21h11.611c.731 0 1.211-.49 1.211-1.21v-1.94c0-.73-.49-1.21-1.211-1.21h-13.943c-.731 0-1.212-.49-1.212-1.21V34.8c0-.73.481-1.21 1.212-1.21h13.943c.731 0 1.211-.49 1.211-1.21v-3.11c0-.73.49-1.21 1.211-1.21h4.564c.731 0 1.212.49 1.212 1.21v3.11c0 .73.49 1.21 1.211 1.21h14.133c.731 0 1.211.49 1.211 1.21v4.22c0 .73-.49 1.21-1.211 1.21h-14.133c-.731 0-1.211.49-1.211 1.21v1.94c0 .73.49 1.21 1.211 1.21h6.166l.24-.05.58-.1c.241-.05.581 0 .831.15l.01.01zm-6.606 6.55h-11.071c-.78 0-1.021.44-.58 1.07 1.461 2.23 3.353 4.17 5.635 5.82.24.19.531.19.831 0 2.232-1.6 4.224-3.54 5.775-5.82.441-.63.151-1.07-.58-1.07h-.01z" fill="#fff"/><path d="M695.74 37.65c7.027 7.02 7.027 18.4 0 25.42l-31.139 31.11c-7.027 7.02-18.418 7.02-25.444 0l-31.14-31.11c-7.027-7.02-7.027-18.4 0-25.42l31.14-31.11c7.026-7.02 18.417-7.02 25.444 0l31.139 31.11z" fill="#CF2027"/><path d="M651.879 100.74c-5.145 0-9.99-2-13.633-5.64l-31.14-31.11a19.113 19.113 0 01-5.645-13.62c0-5.15 2.012-9.98 5.645-13.62l31.14-31.11A19.164 19.164 0 01651.879 0c5.145 0 9.989 2 13.633 5.64l31.139 31.11c7.517 7.51 7.517 19.73 0 27.24L665.512 95.1a19.149 19.149 0 01-13.633 5.64zm0-98.18c-4.465 0-8.658 1.73-11.821 4.89l-31.14 31.11a16.596 16.596 0 00-4.895 11.81c0 4.46 1.732 8.65 4.895 11.8l31.14 31.11a16.62 16.62 0 0011.811 4.89c4.454 0 8.658-1.74 11.811-4.89l31.139-31.11c6.517-6.51 6.517-17.1 0-23.61L663.68 7.45a16.605 16.605 0 00-11.811-4.89h.01z" fill="#58393E"/><path d="M689.495 39.47c6.025 6.02 6.025 15.78 0 21.8l-26.706 26.68c-6.025 6.02-15.795 6.02-21.82 0l-26.706-26.68c-6.025-6.02-6.025-15.78 0-21.8l26.706-26.68c6.025-6.02 15.795-6.02 21.82 0l26.706 26.68z" fill="#F25252"/><path d="M651.878 93.11c-4.294 0-8.327-1.67-11.37-4.7l-26.706-26.68a15.973 15.973 0 01-4.714-11.36c0-4.29 1.671-8.32 4.714-11.36l26.706-26.68a15.99 15.99 0 0111.37-4.7c4.295 0 8.328 1.67 11.371 4.7l26.706 26.68c6.265 6.26 6.265 16.45 0 22.71L663.249 88.4a15.967 15.967 0 01-11.361 4.7l-.01.01zm-.01-84.2c-3.943 0-7.667 1.54-10.459 4.33l-26.706 26.68a14.678 14.678 0 00-4.334 10.45c0 3.95 1.542 7.66 4.334 10.45l26.706 26.68a14.701 14.701 0 0010.459 4.33c3.954 0 7.668-1.54 10.46-4.33l26.706-26.68c5.765-5.76 5.765-15.13 0-20.89l-26.706-26.68a14.702 14.702 0 00-10.46-4.33v-.01z" fill="#FBD5A2"/><path d="M641.469 28.59l4.274 1.41c.731.24 1.021.87.781 1.55-1.021 2.47-2.182 5.05-3.493 7.42-.05.05-.05.15-.05.19l-.15.39v30.96c0 .73-.491 1.21-1.212 1.21h-4.424c-.73 0-1.211-.48-1.211-1.21V51.59c0-1.12-.44-1.26-1.161-.44-.731.83-1.551.63-2.042-.34-.681-1.46-1.702-3.25-2.522-4.56-.341-.53-.291-1.17.15-1.6 3.743-3.88 7.287-9.51 9.519-15.29.29-.68.871-.97 1.551-.78l-.01.01zm32.351 10.48v4.37c0 .73-.49 1.21-1.211 1.21h-2.282c-.731 0-1.212.49-1.212 1.21v18.2c0 3.98-.87 5.73-3.353 6.7-2.332.97-5.735 1.16-10.39 1.12-.58 0-1.071-.39-1.211-1.02-.29-1.12-.78-2.43-1.311-3.64-.53-1.21-.1-1.94 1.211-1.89 2.813.1 5.586.1 6.506.05 1.121 0 1.602-.34 1.602-1.36V45.87c0-.73-.491-1.21-1.211-1.21h-14.624c-.731 0-1.211-.49-1.211-1.21v-4.37c0-.73.49-1.21 1.211-1.21h14.624c.73 0 1.211-.49 1.211-1.21v-6.89c0-.73.49-1.21 1.211-1.21h4.514c.731 0 1.212.49 1.212 1.21v6.89c0 .73.48 1.21 1.211 1.21h2.282c.731 0 1.211.49 1.211 1.21l.01-.01zm-16.175 18.97l-4.124 2.09c-.731.34-1.412.1-1.752-.68-1.071-2.43-2.863-5.68-4.374-8.49-.39-.68-.15-1.36.53-1.65l3.744-1.75c.631-.29 1.261-.1 1.602.49 1.601 2.67 3.643 5.97 4.904 8.39.34.63.1 1.26-.53 1.6z" fill="#fff"/></svg>