<svg width="1055" height="101" viewBox="0 0 1055 101" fill="none" xmlns="http://www.w3.org/2000/svg"><path d="M284.289 56.4h-90.846c-11.911 0-21.6-6.74-21.6-15.02s9.689-15.02 21.6-15.02H327.6a1.43 1.43 0 110 2.86H193.443c-10.159 0-18.748 5.57-18.748 12.16s8.589 12.16 18.748 12.16h90.846v2.86z" fill="#58393E"/><path d="M215.544 56.4c-11.911 0-21.601-6.74-21.601-15.02s9.69-15.02 21.601-15.02v2.86c-10.16 0-18.748 5.57-18.748 12.16s8.588 12.16 18.748 12.16v2.86zm65.913 27.18H123.548a1.43 1.43 0 110-2.86h157.909c10.16 0 18.748-5.57 18.748-12.16s-8.588-12.16-18.748-12.16v-2.86c11.912 0 21.601 6.74 21.601 15.02s-9.689 15.02-21.601 15.02zM770.22 56.4h90.846c11.911 0 21.601-6.74 21.601-15.02s-9.69-15.02-21.601-15.02H726.909a1.43 1.43 0 100 2.86h134.157c10.16 0 18.748 5.57 18.748 12.16s-8.588 12.16-18.748 12.16H770.22v2.86z" fill="#58393E"/><path d="M838.965 56.4c11.911 0 21.6-6.74 21.6-15.02s-9.689-15.02-21.6-15.02v2.86c10.159 0 18.748 5.57 18.748 12.16s-8.589 12.16-18.748 12.16v2.86zm-65.912 27.18h157.909a1.43 1.43 0 100-2.86H773.053c-10.16 0-18.748-5.57-18.748-12.16s8.588-12.16 18.748-12.16v-2.86c-11.912 0-21.601 6.74-21.601 15.02s9.689 15.02 21.601 15.02z" fill="#58393E"/><path d="M404.984 37.66c7.027 7.02 7.027 18.4 0 25.42l-31.139 31.11c-7.027 7.02-18.418 7.02-25.444 0l-31.14-31.11c-7.026-7.02-7.026-18.4 0-25.42l31.14-31.11c7.026-7.02 18.417-7.02 25.444 0l31.139 31.11z" fill="#CF2027"/><path d="M361.113 100.75c-5.145 0-9.989-2-13.633-5.64L316.341 64a19.11 19.11 0 01-5.646-13.62c0-5.15 2.012-9.98 5.646-13.62L347.48 5.65A19.166 19.166 0 01361.113.01c5.145 0 9.99 2 13.633 5.64l31.14 31.11c7.517 7.51 7.517 19.73 0 27.24l-31.14 31.11a19.147 19.147 0 01-13.633 5.64zm0-98.18c-4.464 0-8.658 1.73-11.821 4.89l-31.14 31.11a16.595 16.595 0 00-4.894 11.81c0 4.46 1.731 8.65 4.894 11.8l31.14 31.11a16.622 16.622 0 0011.811 4.89c4.454 0 8.658-1.74 11.811-4.89l31.14-31.11c6.516-6.51 6.516-17.1 0-23.61l-31.14-31.11a16.605 16.605 0 00-11.811-4.89h.01z" fill="#58393E"/><path d="M398.728 39.47c6.026 6.02 6.026 15.78 0 21.8l-26.705 26.68c-6.026 6.02-15.795 6.02-21.821 0l-26.705-26.68c-6.026-6.02-6.026-15.78 0-21.8l26.705-26.68c6.026-6.02 15.795-6.02 21.821 0l26.705 26.68z" fill="#F25252"/><path d="M361.112 93.12c-4.294 0-8.328-1.67-11.371-4.7l-26.705-26.68a15.97 15.97 0 01-4.715-11.36c0-4.29 1.672-8.32 4.715-11.36l26.705-26.68a15.992 15.992 0 0111.371-4.7c4.294 0 8.328 1.67 11.371 4.7l26.705 26.68c6.266 6.26 6.266 16.45 0 22.71l-26.705 26.68a15.968 15.968 0 01-11.361 4.7l-.01.01zm0-84.2a14.72 14.72 0 00-10.46 4.33l-26.705 26.68a14.673 14.673 0 00-4.334 10.45c0 3.95 1.541 7.66 4.334 10.45l26.705 26.68a14.703 14.703 0 0010.46 4.33c3.954 0 7.667-1.54 10.46-4.33l26.705-26.68c5.766-5.76 5.766-15.13 0-20.89l-26.705-26.68a14.703 14.703 0 00-10.46-4.33v-.01z" fill="#FBD5A2"/><path d="M381.792 42.57c-.631 0-1.161.44-1.261 1.07-.681 5.97-1.842 11.06-3.784 15.38v.1c-.19.34-.15.78.05 1.07 1.362 2.18 3.063 4.08 5.095 5.53.821.58.871 1.36.19 2.14-.82.92-1.751 2.04-2.432 3.01-.44.68-1.121.83-1.752.39a21.65 21.65 0 01-4.224-4.22c-.63-.73-1.361-.78-2.042-.05a27.008 27.008 0 01-5.144 4.37c-.731.44-1.412.19-1.842-.53-.29-.58-.681-1.16-1.071-1.79-.491-.68-1.211-.73-1.802-.15l-1.892 1.89c-.44.44-1.071.49-1.551.15a47.722 47.722 0 00-3.403-1.99c-.341-.19-.831-.19-1.162 0-2.572 1.31-5.825 2.23-9.909 2.91-.731.15-1.261-.24-1.461-.92-.241-.68-.531-1.41-.871-2.04-.581-1.21-.24-1.94 1.121-2.09 1.942-.24 3.593-.53 5.095-.92.34-.1.34-.24.05-.39l-.441-.19-.19.05-.1.05a.3.3 0 01-.29 0l-3.303-.73c-1.071-.29-1.312-1.02-.731-1.94l.19-.34c.731-1.12.29-1.84-1.021-1.84l-1.161.05c-.731 0-1.211-.48-1.261-1.16l-.05-2.33c-.05-.78.44-1.26 1.211-1.26 1.652 0 3.493 0 5.485-.05.391 0 .871-.29 1.071-.68.2-.39.05-.63-.39-.63h-4.424c-.731 0-1.211-.49-1.211-1.21v-6.65c0-.73.48-1.21 1.211-1.21h6.115c.341 0 .531-.19.531-.53s-.19-.53-.531-.53h-5.295c-.73 0-1.211-.49-1.211-1.21v-2.43c0-.73-.49-1.21-1.211-1.21h-.39c-.731 0-1.211-.49-1.211-1.21v-2.23c0-.73.49-1.21 1.211-1.21h.39c.731 0 1.211-.49 1.211-1.21v-2.33c0-.73.491-1.21 1.211-1.21h4.855c.581 0 .971-.39.971-1.02 0-.58.39-.97 1.021-.97h3.693c.581 0 .971.39.971.97 0 .63.391 1.02 1.021 1.02h5.295c.731 0 1.211.49 1.211 1.21v2.33c0 .73.481 1.21 1.212 1.21h.49c.731 0 1.211.49 1.211 1.21v2.23c0 .73-.49 1.21-1.211 1.21h-.49c-.731 0-1.212.49-1.212 1.21v2.43c0 .73-.49 1.21-1.211 1.21h-5.775c-.34 0-.531.19-.531.53s.191.53.531.53h7.337c.29 0 .49.19.49.49s.1.29.19.05c2.183-4.56 3.494-10.48 4.224-16.64.101-.78.631-1.21 1.412-1.07l3.934.53c.68.15 1.121.68 1.021 1.41-.241 1.6-.491 3.2-.821 4.8-.15.87.29 1.46 1.211 1.46h7.527c.731 0 1.211.49 1.211 1.21v3.79c0 .68-.53 1.16-1.211 1.16l.01-.04zm-35.163 7.37c0 .39.24.63.63.63h1.161c.391 0 .631-.24.631-.63s-.24-.63-.631-.63h-1.161c-.39 0-.63.24-.63.63zm1.901-15.86h-.48c-.34 0-.581.24-.581.53 0 .34.241.58.581.58h.48c.291 0 .531-.24.531-.58 0-.29-.24-.53-.531-.53zm-.49 6.16h.48c.291 0 .531-.24.531-.58 0-.29-.24-.53-.531-.53h-.48c-.34 0-.581.24-.581.53 0 .34.241.58.581.58zm2.042 20.52l-.05.05c-.15.24-.05.44.19.53.921.34 1.842.73 2.773 1.07.29.1.63.05.821-.19.19-.24.39-.49.53-.78.44-.63.15-1.07-.581-1.07l-3.112.05c-.241 0-.491.15-.581.34h.01zm14.133-.63l-2.772.1c-.341 0-.581.19-.681.53-.44 1.26-.921 2.43-1.601 3.45-.291.44-.191.87.29 1.12.68.34 1.361.73 1.992 1.07.19.1.49.15.68 0 3.063-1.65 5.396-3.79 7.187-6.41.1-.19.15-.49.05-.68-.73-1.79-1.311-3.69-1.842-5.73-.19-.73-.53-.78-.97-.1l-.151.19c-.34.53-.82.49-1.161.05l-1.071-1.26c-.63-.68-1.071-.49-1.071.44v.82c0 .44-.29.73-.73.73h-9.039c-.19 0-.19.05 0 .05.19.05.24.19.15.34l-.15.29c-.19.34-.05.58.34.58 3.494-.05 7.087-.15 10.64-.19.491 0 .781.29.731.78l-.1 3.15c-.05.39-.34.68-.731.68h.01zm-8.257-26.05h-.631c-.34 0-.581.24-.581.53 0 .34.241.58.581.58h.631c.29 0 .53-.24.53-.58 0-.29-.24-.53-.53-.53zm-.631 6.16h.631c.29 0 .53-.24.53-.58 0-.29-.24-.53-.53-.53h-.631c-.34 0-.581.24-.581.53 0 .34.241.58.581.58zm1.361 9.07h-1.311c-.39 0-.631.24-.631.63s.241.63.631.63h1.311c.391 0 .631-.24.631-.63s-.24-.63-.631-.63zm16.996-6.69h-1.601c-.531.05-.781.39-.731.87.29 1.8.631 3.59 1.021 5.29.34 1.6.921 1.6 1.211 0 .341-1.7.631-3.49.821-5.39.05-.49-.24-.83-.731-.78l.01.01z" fill="#fff"/><path d="M488.052 37.66c7.026 7.02 7.026 18.4 0 25.42l-31.14 31.11c-7.026 7.02-18.417 7.02-25.444 0l-31.139-31.11c-7.027-7.02-7.027-18.4 0-25.42l31.139-31.11c7.027-7.02 18.418-7.02 25.444 0l31.14 31.11z" fill="#CF2027"/><path d="M444.191 100.75c-5.145 0-9.989-2-13.633-5.64L399.419 64a19.11 19.11 0 01-5.646-13.62c0-5.15 2.012-9.98 5.646-13.62l31.139-31.11A19.166 19.166 0 01444.191.01c5.145 0 9.99 2 13.633 5.64l31.14 31.11c7.517 7.51 7.517 19.73 0 27.24l-31.14 31.11a19.147 19.147 0 01-13.633 5.64zm0-98.18c-4.464 0-8.658 1.73-11.821 4.89l-31.139 31.11a16.596 16.596 0 00-4.895 11.81c0 4.46 1.732 8.65 4.895 11.8l31.139 31.11a16.622 16.622 0 0011.811 4.89c4.454 0 8.658-1.74 11.811-4.89l31.14-31.11c6.516-6.51 6.516-17.1 0-23.61l-31.14-31.11a16.605 16.605 0 00-11.811-4.89h.01z" fill="#58393E"/><path d="M481.806 39.47c6.026 6.02 6.026 15.78 0 21.8l-26.705 26.68c-6.026 6.02-15.795 6.02-21.821 0l-26.705-26.68c-6.026-6.02-6.026-15.78 0-21.8l26.705-26.68c6.026-6.02 15.795-6.02 21.821 0l26.705 26.68z" fill="#F25252"/><path d="M444.191 93.12c-4.294 0-8.328-1.67-11.371-4.7l-26.705-26.68a15.97 15.97 0 01-4.715-11.36c0-4.29 1.672-8.32 4.715-11.36l26.705-26.68a15.992 15.992 0 0111.371-4.7c4.294 0 8.328 1.67 11.371 4.7l26.705 26.68c6.266 6.26 6.266 16.45 0 22.71l-26.705 26.68a15.968 15.968 0 01-11.361 4.7l-.01.01zm0-84.2a14.72 14.72 0 00-10.46 4.33l-26.705 26.68a14.673 14.673 0 00-4.334 10.45c0 3.95 1.541 7.66 4.334 10.45l26.705 26.68a14.703 14.703 0 0010.46 4.33c3.954 0 7.667-1.54 10.46-4.33l26.705-26.68c5.766-5.76 5.766-15.13 0-20.89l-26.705-26.68a14.703 14.703 0 00-10.46-4.33v-.01z" fill="#FBD5A2"/><path d="M463.8 40.43h-22.291c-.491 0-.921.29-1.121.68-1.462 2.96-3.113 5.73-4.905 8.39l-.1.1c-.1.15-.19.44-.19.63v20.33c0 .73-.491 1.21-1.211 1.21h-4.375c-.73 0-1.211-.49-1.211-1.21V59.21c0-1.26-.63-1.55-1.651-.78l-.441.34c-.73.53-1.461.29-1.841-.58-.581-1.36-1.412-2.91-2.092-4.17-.391-.63-.241-1.26.39-1.7 3.643-2.57 6.706-6.11 9.129-10.14.58-1.02.15-1.75-1.071-1.75h-6.166c-.731 0-1.211-.49-1.211-1.21v-3.98c0-.73.49-1.21 1.211-1.21h10.3c.49 0 .92-.29 1.121-.78.49-1.36.92-2.72 1.311-4.08.19-.68.781-1.07 1.461-.87l4.715 1.12c.78.19 1.121.78.871 1.55-.151.44-.291.92-.481 1.41-.34.97.1 1.65 1.161 1.65h18.698c.731 0 1.211.49 1.211 1.21v3.98c0 .73-.48 1.21-1.211 1.21h-.01zm1.802 15.34v3.79c0 .73-.491 1.21-1.212 1.21h-7.717c-.731 0-1.211.49-1.211 1.21v3.01c0 3.15-.531 4.85-2.723 5.82-1.941.87-4.424 1.02-7.477 1.02-.63 0-1.121-.44-1.211-1.07-.24-1.12-.58-2.38-.971-3.54-.34-1.12.1-1.8 1.311-1.75 1.462.05 2.813.05 3.304.05.73-.05.971-.19.971-.73v-2.81c0-.73-.491-1.21-1.212-1.21h-8.698c-.731 0-1.211-.49-1.211-1.21v-3.79c0-.73.49-1.21 1.211-1.21h8.698c.731 0 1.212-.49 1.212-1.21v-1.36c0-.58.39-.97.97-.97h.491c.29 0 .631-.15.831-.34l.63-.58c.581-.58.441-.97-.39-.97h-8.989c-.73 0-1.211-.49-1.211-1.21v-3.59c0-.73.491-1.21 1.211-1.21h15.545l.24-.05.681-.15c.34-.1.781 0 1.071.24l2.673 2.18c.58.44.63 1.17.15 1.7-2.042 2.23-4.424 4.71-6.797 6.7l-.1.05c-.1.15-.19.29-.19.49s.1.29.29.29h8.648c.731 0 1.212.49 1.212 1.21l-.03-.01z" fill="#fff"/><path d="M571.131 37.66c7.026 7.02 7.026 18.4 0 25.42l-31.14 31.11c-7.026 7.02-18.417 7.02-25.444 0l-31.139-31.11c-7.027-7.02-7.027-18.4 0-25.42l31.139-31.11c7.027-7.02 18.418-7.02 25.444 0l31.14 31.11z" fill="#CF2027"/><path d="M527.26 100.75c-5.145 0-9.99-2-13.633-5.64L482.487 64a19.113 19.113 0 01-5.645-13.62c0-5.15 2.012-9.98 5.645-13.62l31.14-31.11A19.164 19.164 0 01527.26.01c5.144 0 9.989 2 13.632 5.64l31.14 31.11c7.517 7.51 7.517 19.73 0 27.24l-31.14 31.11a19.147 19.147 0 01-13.632 5.64zm0-98.18c-4.465 0-8.659 1.73-11.822 4.89l-31.139 31.11a16.596 16.596 0 00-4.895 11.81c0 4.46 1.732 8.65 4.895 11.8l31.139 31.11a16.622 16.622 0 0011.812 4.89c4.454 0 8.658-1.74 11.811-4.89L570.2 62.18c6.516-6.51 6.516-17.1 0-23.61L539.061 7.46a16.605 16.605 0 00-11.811-4.89h.01z" fill="#58393E"/><path d="M564.876 39.47c6.025 6.02 6.025 15.78 0 21.8L538.17 87.95c-6.025 6.02-15.795 6.02-21.82 0l-26.706-26.68c-6.025-6.02-6.025-15.78 0-21.8l26.706-26.68c6.025-6.02 15.795-6.02 21.82 0l26.706 26.68z" fill="#F25252"/><path d="M527.259 93.12c-4.294 0-8.328-1.67-11.37-4.7l-26.706-26.68a15.969 15.969 0 01-4.714-11.36c0-4.29 1.671-8.32 4.714-11.36l26.706-26.68a15.988 15.988 0 0111.37-4.7c4.294 0 8.328 1.67 11.371 4.7l26.705 26.68c6.266 6.26 6.266 16.45 0 22.71L538.63 88.41a15.968 15.968 0 01-11.361 4.7l-.01.01zm0-84.2c-3.943 0-7.667 1.54-10.46 4.33l-26.705 26.68a14.673 14.673 0 00-4.334 10.45c0 3.95 1.541 7.66 4.334 10.45l26.705 26.68a14.705 14.705 0 0010.46 4.33c3.954 0 7.668-1.54 10.46-4.33l26.706-26.68c5.765-5.76 5.765-15.13 0-20.89l-26.706-26.68a14.702 14.702 0 00-10.46-4.33v-.01z" fill="#FBD5A2"/><path d="M525.548 61.93l-2.092 2.62c-.581.68-1.412.58-1.992-.1-.681-.78-1.261-.68-1.261.39v5.73c0 .73-.491 1.21-1.211 1.21h-4.084c-.731 0-1.212-.49-1.212-1.21v-2.91c0-2.09-.82-2.38-2.232-.83-.53.58-1.021 1.12-1.551 1.6-.581.49-1.261.39-1.752-.19-.68-.87-1.551-1.79-2.332-2.62-.681-.68-.681-1.46.15-2.09a29.625 29.625 0 005.195-5.29c.781-1.02.39-1.79-.971-1.79h-2.963c-.73 0-1.211-.49-1.211-1.21v-3.15c0-.73.481-1.21 1.211-1.21h5.245c.731 0 1.211-.49 1.211-1.21v-.39c0-.73-.49-1.21-1.211-1.21h-5.395c-.73 0-1.211-.49-1.211-1.21v-3.01c0-.73.481-1.21 1.211-1.21h1.121c.821 0 1.312-.53 1.121-1.36-.1-.53-.24-1.12-.44-1.65-.24-.68.05-1.26.821-1.46.73-.19.73-.29-.05-.29h-1.992c-.731 0-1.211-.49-1.211-1.21v-2.96c0-.73.49-1.21 1.211-1.21h4.804c.731 0 1.212-.49 1.212-1.21v-1.5c0-.73.49-1.21 1.211-1.21h4.084c.73 0 1.211.49 1.211 1.21v1.5c0 .73.49 1.21 1.211 1.21h4.804c.731 0 1.212.49 1.212 1.21v2.96c0 .73-.491 1.21-1.212 1.21h-1.501c-.631 0-.631.1 0 .19.58.1.821.53.53 1.07v.1c-.24.63-.49 1.12-.73 1.65-.491 1.07 0 1.75 1.121 1.75h.871c.73 0 1.211.49 1.211 1.21v3.01c0 .73-.491 1.21-1.211 1.21h-5.095c-.731 0-1.211.49-1.211 1.21v.39c0 .73.49 1.21 1.211 1.21h4.614c.731 0 1.211.49 1.211 1.21v3.15c0 .73-.48 1.21-1.211 1.21h-2.282c-2.142 0-2.382.83-.681 2.04l2.233 1.7c.63.49.73 1.16.24 1.75l.02-.01zm-6.897-24.07h-3.693c-.631 0-.871.39-.681 1.02.29.87.581 1.79.731 2.57.05.39-.15.68-.531.78l-.39.1c-.631.19-.581.29.05.29h5.435c.831 0 .871-.1.05-.29l-.58-.1c-.491-.1-.731-.48-.531-.92.29-.82.581-1.7.821-2.57.15-.53-.15-.87-.681-.87v-.01zm16.616.73v3.3c0 .73.49 1.21 1.211 1.21h11.411c.731 0 1.211.49 1.211 1.21v3.79c0 .73-.48 1.21-1.211 1.21h-1.461c-.731 0-1.212.49-1.212 1.21v19.89c0 .73-.48 1.21-1.211 1.21h-4.084c-.73 0-1.211-.49-1.211-1.21V50.52c0-.73-.49-1.21-1.211-1.21h-1.071c-.681 0-1.161.49-1.211 1.16-.24 6.26-1.411 14.41-5.926 20.14-.58.78-1.411.68-2.042-.05-.73-.83-1.651-1.7-2.522-2.38-.731-.58-.871-1.36-.29-2.09 4.084-5.48 4.464-12.62 4.464-18.44V33.19c0-.97.631-1.41 1.551-1.17l1.652.44s.15.05.19.05h.681c3.693-.97 7.337-2.28 9.959-3.64h.1c.441-.19.971-.15 1.362.19l3.353 3.06c.821.73.68 1.5-.29 1.94-3.494 1.41-7.478 2.47-11.221 3.35-.581.1-.971.58-.971 1.17v.01z" fill="#fff"/><path d="M654.2 37.66c7.027 7.02 7.027 18.4 0 25.42l-31.139 31.11c-7.027 7.02-18.418 7.02-25.444 0l-31.14-31.11c-7.027-7.02-7.027-18.4 0-25.42l31.14-31.11c7.026-7.02 18.417-7.02 25.444 0L654.2 37.66z" fill="#CF2027"/><path d="M610.338 100.75c-5.145 0-9.99-2-13.633-5.64L565.565 64a19.113 19.113 0 01-5.645-13.62c0-5.15 2.012-9.98 5.645-13.62l31.14-31.11A19.164 19.164 0 01610.338.01c5.145 0 9.989 2 13.633 5.64l31.139 31.11c7.517 7.51 7.517 19.73 0 27.24l-31.139 31.11a19.149 19.149 0 01-13.633 5.64zm0-98.18c-4.465 0-8.658 1.73-11.821 4.89l-31.14 31.11a16.596 16.596 0 00-4.895 11.81c0 4.46 1.732 8.65 4.895 11.8l31.14 31.11a16.618 16.618 0 0011.811 4.89c4.454 0 8.658-1.74 11.811-4.89l31.139-31.11c6.517-6.51 6.517-17.1 0-23.61L622.139 7.46a16.605 16.605 0 00-11.811-4.89h.01z" fill="#58393E"/><path d="M647.954 39.47c6.025 6.02 6.025 15.78 0 21.8l-26.706 26.68c-6.025 6.02-15.795 6.02-21.82 0l-26.706-26.68c-6.025-6.02-6.025-15.78 0-21.8l26.706-26.68c6.025-6.02 15.795-6.02 21.82 0l26.706 26.68z" fill="#F25252"/><path d="M610.338 93.12c-4.294 0-8.327-1.67-11.37-4.7l-26.706-26.68a15.969 15.969 0 01-4.714-11.36c0-4.29 1.671-8.32 4.714-11.36l26.706-26.68a15.988 15.988 0 0111.37-4.7c4.294 0 8.328 1.67 11.371 4.7l26.705 26.68c6.266 6.26 6.266 16.45 0 22.71l-26.705 26.68a15.968 15.968 0 01-11.361 4.7l-.01.01zm-.01-84.2c-3.943 0-7.667 1.54-10.46 4.33l-26.705 26.68a14.678 14.678 0 00-4.334 10.45c0 3.95 1.542 7.66 4.334 10.45l26.705 26.68a14.705 14.705 0 0010.46 4.33c3.954 0 7.668-1.54 10.46-4.33l26.706-26.68c5.765-5.76 5.765-15.13 0-20.89l-26.706-26.68a14.702 14.702 0 00-10.46-4.33v-.01z" fill="#FBD5A2"/><path d="M630.287 31.02v33.24c0 3.06-.44 4.85-2.232 5.97-1.602.97-3.693 1.21-6.456 1.26-.681 0-1.171-.44-1.261-1.07a29.94 29.94 0 00-.971-3.49c-.391-1.21.1-1.89 1.361-1.89.921.05 1.802.05 2.182 0h.1c.631 0 .831-.24.831-.87v-6.65c0-.73-.49-1.21-1.211-1.21h-3.493c-.631 0-1.122.44-1.212 1.07-.73 4.85-1.991 9.75-4.374 13.54-.44.73-1.161.78-1.841.29-.971-.68-2.233-1.41-3.304-1.99-.39-.19-.83-.05-1.171.24-.15.15-.34.29-.58.44l-.1.05c-1.412.78-3.253 1.07-5.536 1.12-.63 0-1.121-.44-1.261-1.07-.19-1.02-.53-2.18-.921-3.2-.39-1.02.05-1.6 1.071-1.55h1.802c.581 0 .781-.19.781-.78v-6.94c0-.73-.491-1.21-1.211-1.21h-2.573c-.68 0-1.161.44-1.211 1.07-.581 4.8-1.601 9.61-3.593 13.39-.441.73-1.161.82-1.842.34a31.963 31.963 0 00-3.013-1.8c-.731-.39-.971-1.12-.53-1.84 3.153-6.11 3.403-14.51 3.403-20.87V31.03c0-.73.49-1.21 1.211-1.21h14.374c.73 0 1.211.49 1.211 1.21v33.48l-.05 1.02c0 .58.15.63.39.1 3.063-6.31 3.303-14.36 3.303-20.48V31.03c0-.73.491-1.21 1.211-1.21h15.545c.731 0 1.211.49 1.211 1.21l-.04-.01zm-31.57 19.36h3.013c.44 0 .731-.29.731-.73v-2.96c0-.44-.291-.73-.731-.73h-3.443c-.19 0-.29.1-.29.29v.29c0 .97 0 1.99-.051 3.06 0 .49.291.78.781.78h-.01zm3.013-14.56h-3.013c-.44 0-.73.29-.73.73v2.86c0 .44.29.73.73.73h3.013c.44 0 .731-.29.731-.73v-2.86c0-.44-.291-.73-.731-.73zm17.577 14.56h3.783c.441 0 .731-.29.731-.73v-2.96c0-.44-.29-.73-.731-.73h-3.693c-.441 0-.731.29-.731.73 0 .92-.05 1.89-.1 2.91-.05.49.24.78.731.78h.01zm3.793-14.56h-3.693c-.441 0-.731.29-.731.73v2.86c0 .44.29.73.731.73h3.693c.441 0 .731-.29.731-.73v-2.86c0-.44-.29-.73-.731-.73z" fill="#fff"/><path d="M737.269 37.66c7.026 7.02 7.026 18.4 0 25.42l-31.14 31.11c-7.027 7.02-18.417 7.02-25.444 0l-31.14-31.11c-7.026-7.02-7.026-18.4 0-25.42l31.14-31.11c7.027-7.02 18.417-7.02 25.444 0l31.14 31.11z" fill="#CF2027"/><path d="M693.407 100.75c-5.145 0-9.989-2-13.633-5.64L648.635 64a19.11 19.11 0 01-5.646-13.62c0-5.15 2.012-9.98 5.646-13.62l31.139-31.11A19.166 19.166 0 01693.407.01c5.145 0 9.99 2 13.633 5.64l31.139 31.11c7.518 7.51 7.518 19.73 0 27.24L707.04 95.11a19.147 19.147 0 01-13.633 5.64zm0-98.18c-4.464 0-8.658 1.73-11.821 4.89l-31.14 31.11a16.595 16.595 0 00-4.894 11.81c0 4.46 1.731 8.65 4.894 11.8l31.14 31.11a16.622 16.622 0 0011.811 4.89c4.454 0 8.658-1.74 11.811-4.89l31.14-31.11c6.516-6.51 6.516-17.1 0-23.61l-31.14-31.11a16.605 16.605 0 00-11.811-4.89h.01z" fill="#58393E"/><path d="M731.023 39.47c6.026 6.02 6.026 15.78 0 21.8l-26.705 26.68c-6.026 6.02-15.795 6.02-21.821 0l-26.705-26.68c-6.026-6.02-6.026-15.78 0-21.8l26.705-26.68c6.026-6.02 15.795-6.02 21.821 0l26.705 26.68z" fill="#F25252"/><path d="M693.408 93.12c-4.294 0-8.328-1.67-11.371-4.7l-26.705-26.68a15.97 15.97 0 01-4.715-11.36c0-4.29 1.672-8.32 4.715-11.36l26.705-26.68a15.992 15.992 0 0111.371-4.7c4.294 0 8.328 1.67 11.371 4.7l26.705 26.68c6.266 6.26 6.266 16.45 0 22.71l-26.705 26.68a15.968 15.968 0 01-11.361 4.7l-.01.01zm0-84.2c-3.944 0-7.668 1.54-10.46 4.33l-26.705 26.68a14.674 14.674 0 00-4.335 10.45c0 3.95 1.542 7.66 4.335 10.45l26.705 26.68a14.702 14.702 0 0010.46 4.33c3.953 0 7.667-1.54 10.46-4.33l26.705-26.68c5.765-5.76 5.765-15.13 0-20.89l-26.705-26.68a14.705 14.705 0 00-10.46-4.33v-.01z" fill="#FBD5A2"/><path d="M706.029 44.85l3.303 1.41c.581.24.871.78.681 1.41-1.501 5-3.593 9.22-6.366 12.62-.58.73-.44 1.46.39 1.84 2.523 1.21 5.346 2.14 8.549 2.86 1.411.29 1.651 1.12.78 2.23a31.09 31.09 0 00-2.382 3.59c-.29.49-.821.73-1.361.58-4.464-1.12-8.308-2.67-11.611-4.76a1.175 1.175 0 00-1.362 0 41.812 41.812 0 01-9.669 4.76c-.63.19-1.211-.05-1.501-.58-.531-1.02-1.261-2.13-1.992-3.15-.731-1.02-.49-1.8.681-2.18a32.72 32.72 0 006.706-3.01c.731-.44.781-1.16.24-1.84-1.021-1.21-1.992-2.57-2.913-3.98-.87-1.36-1.701-1.31-2.332.19-1.892 4.42-4.464 8.69-8.017 12.33-.581.58-1.312.49-1.842-.1a20.327 20.327 0 00-3.443-2.91c-.831-.58-.921-1.36-.15-2.09 6.456-6.07 9.228-14.36 10.54-21.69.15-.83-.341-1.41-1.162-1.41h-7.477c-.73 0-1.211-.49-1.211-1.21v-4.08c0-.73.491-1.21 1.211-1.21h8.448c.681 0 1.161-.44 1.161-1.12.101-1.6.151-3.01.191-4.17 0-.68.49-1.12 1.161-1.12h4.614c.781 0 1.261.49 1.211 1.26 0 1.12-.1 2.38-.19 3.83-.05.78.44 1.31 1.261 1.31h20.209c.731 0 1.212.49 1.212 1.21v4.08c0 .73-.481 1.21-1.212 1.21h-21.22c-.63 0-1.121.39-1.211.97-.05.53-.15 1.02-.24 1.55-.15.87.29 1.46 1.211 1.46h13.603l.781-.15c.24-.05.53-.05.73.05l-.01.01zm-5.925 6.55h-6.707c-.73 0-1.021.44-.58 1.07a27.716 27.716 0 003.693 4.56c.341.29.731.29 1.021-.05a27.594 27.594 0 003.203-4.56c.341-.58.05-1.02-.63-1.02z" fill="#fff"/></svg>