<svg width="1055" height="178" viewBox="0 0 1055 178" fill="none" xmlns="http://www.w3.org/2000/svg"><path d="M292.427 159.39l.39.04s.13 0 .17.04l2.493.92c.52.22.831.74.66 1.31-.92 3.01-2.182 5.55-3.763 7.73-.441.61-.31 1.27.35 1.62 1.091.57 2.362 1.09 3.624 1.48 1.181.35 1.401 1.09.66 2.05-.61.74-1.221 1.62-1.701 2.36-.261.48-.791.7-1.272.52a21.602 21.602 0 01-5.725-2.71c-.44-.26-.961-.26-1.351 0-1.482 1.09-3.103 1.92-4.805 2.71-.57.26-1.141 0-1.441-.52l-.871-1.44c-.661-.92-1.141-.74-1.141.39v.79c0 .66-.44 1.09-1.091 1.09h-3.583c-.661 0-1.092-.44-1.092-1.09v-.7c0-.7-.48-1.13-1.181-1.09-3.713.26-7.427.52-10.53.79-.65.04-1.141-.35-1.181-1l-.22-2.93c-.04-.7.35-1.14 1.051-1.18.39-.04.831-.04 1.271-.09h.09c.571 0 .961-.44.961-1.05v-9.78c0-.65-.44-1.09-1.091-1.09h-.871c-.65 0-1.091-.44-1.091-1.09v-2.53c0-.66.441-1.09 1.091-1.09h35.234c.66 0 1.091.44 1.091 1.09v2.53c0 .66-.441 1.09-1.091 1.09h-16.656c-.651 0-1.091.44-1.091 1.09v11.75c0 .92.571 1.35 1.441.96a20.47 20.47 0 002.403-1.31c.61-.39.66-1 .26-1.57-.791-1.05-1.442-2.18-2.102-3.36-.35-.7-.04-1.31.701-1.53l.35-.09c.921-.26.921-.44-.09-.44h-1.141c-.661 0-1.091-.44-1.091-1.09v-2.36c0-.66.44-1.09 1.091-1.09h11.19l.521-.13h.17zm.22-18.6v10.92c0 .65-.44 1.09-1.091 1.09h-25.484c-.661 0-1.091-.44-1.091-1.09v-10.92c0-.66.44-1.09 1.091-1.09h25.484c.661 0 1.091.44 1.091 1.09zm-20.189 17.77h-3.283c-.31 0-.521.22-.521.48a.5.5 0 00.521.52h3.283c.26 0 .48-.22.48-.52 0-.26-.22-.48-.48-.48zm-3.804 5.64c0 .35.221.57.571.57h3.143c.35 0 .57-.22.57-.57s-.22-.57-.57-.57h-3.143c-.35 0-.571.22-.571.57zm.651 5.89l3.103-.13c.31-.04.52-.26.52-.61 0-.31-.22-.52-.52-.52h-3.103c-.39 0-.651.26-.651.66s.261.66.651.61v-.01zm17.316-26.11c0-.31-.17-.48-.48-.48h-14.904c-.31 0-.481.17-.481.48 0 .31.171.48.481.48h14.904c.31 0 .48-.17.48-.48zm0 4.54c0-.31-.22-.52-.52-.52h-14.814a.5.5 0 00-.521.52c0 .3.221.52.521.52h14.814c.31 0 .52-.22.52-.52zm1.482 15.55h-1.792c-.66 0-.871.39-.52.96.31.44.61.87.961 1.31.31.39.74.35 1.001 0 .31-.44.61-.87.87-1.31.351-.57.13-.96-.52-.96zm36.204-22.54h13.292c.661 0 1.091.44 1.091 1.09v2.93c0 .66-.44 1.09-1.091 1.09h-34.492c-.661 0-1.091-.44-1.091-1.09v-2.93c0-.66.44-1.09 1.091-1.09h12.762c.65 0 1.091-.44 1.091-1.09v-1.05c0-.66.44-1.09 1.091-1.09h4.064c.66 0 1.091.44 1.091 1.09v1.05c0 .66.44 1.09 1.091 1.09h.01zm13.192 18.13v12.05c0 2.58-.48 4.19-2.232 5.07-1.531.79-3.413.92-5.685.96-.571 0-1.001-.39-1.141-.92l-.351-1.44v-.09c-.22-.39-.57-.7-1.051-.7h-8.658c-.57 0-.921.35-.921.92 0 .52-.35.87-.871.87h-3.193c-.65 0-1.091-.44-1.091-1.09v-9.21c0-.66.441-1.09 1.091-1.09h13.773c.661 0 1.091.44 1.091 1.09v5.02c0 .61.441 1.05 1.051 1.09.521 0 1.051 0 1.352-.04h.09c.44 0 .701-.13.701-.57v-6.99c0-.66-.441-1.09-1.092-1.09h-19.848c-.651 0-1.091.44-1.091 1.09v12.14c0 .66-.441 1.09-1.091 1.09h-3.714c-.651 0-1.091-.44-1.091-1.09v-17.08c0-.65.44-1.09 1.091-1.09h31.78c.661 0 1.091.44 1.091 1.09l.01.01zm-5.635-10.75v7.34c0 .66-.44 1.09-1.091 1.09h-20.89c-.661 0-1.091-.44-1.091-1.09v-7.34c0-.66.44-1.09 1.091-1.09h20.89c.651 0 1.091.44 1.091 1.09zm-6.076 3.85v-.35c0-.39-.26-.66-.66-.66h-9.97c-.39 0-.661.26-.661.66v.35c0 .39.261.66.661.66h9.97c.39 0 .66-.26.66-.66zm-2.752 17.25v-.44c0-.39-.261-.66-.651-.66h-4.244c-.39 0-.651.26-.651.66v.44c0 .39.261.66.651.66h4.244c.39 0 .651-.26.651-.66zm29.988-14.501v11.66c0 .17.04.39.17.57 1.532 2.4 4.284 3.32 8.258 3.49 4.545.22 12.672.13 18.618-.31 1.141-.04 1.571.57 1.181 1.62a32.76 32.76 0 00-1.051 3.54c-.13.48-.52.83-1.051.87-5.245.26-12.942.35-17.837.09-4.504-.22-7.607-1.05-10.23-3.62-.48-.48-1.091-.52-1.571-.09-1.181 1-2.362 2.05-3.764 3.19-.65.52-1.311.35-1.661-.39l-1.922-4.15c-.26-.57-.09-1.14.44-1.4 1.312-.79 2.713-1.62 4.064-2.58.26-.17.441-.52.441-.87v-6.03c0-.66-.441-1.09-1.091-1.09h-2.102c-.661 0-1.091-.44-1.091-1.09v-3.41c0-.66.44-1.09 1.091-1.09h7.997c.661 0 1.091.44 1.091 1.09h.02zm.14-9.35l-3.062 2.53c-.571.48-1.222.35-1.662-.22-1.181-1.48-3.013-3.23-4.725-4.67-.61-.52-.61-1.22.04-1.75l2.753-2.18c.39-.31.921-.35 1.311-.04 1.922 1.44 4.104 3.28 5.506 4.89.39.44.35 1.05-.171 1.44h.01zm26.746 12.88h-6.556c-1.142 0-1.532.66-.831 1.53 1.571 1.96 3.763 3.54 6.596 4.5 1.181.39 1.401 1.13.571 2.1-.701.87-1.402 1.88-1.922 2.71-.261.48-.791.7-1.312.52-3.323-1.27-5.815-3.19-7.737-5.81-.61-.87-1.311-.87-2.012-.04-1.701 2.14-4.154 4.1-7.697 5.76-.521.26-1.051.09-1.401-.39-.571-.7-1.312-1.53-2.052-2.23-.831-.87-.701-1.62.39-2.05 3.583-1.53 5.595-3.32 6.686-5.2.481-.79.04-1.4-.92-1.4h-6.387c-.65 0-1.091-.44-1.091-1.09v-3.19c0-.66.441-1.09 1.091-1.09h7.568c.65 0 1.091-.44 1.091-1.09v-.83c0-.65-.441-1.09-1.091-1.09h-6.076c-.661 0-1.091-.44-1.091-1.09v-3.1c0-.65.44-1.09 1.091-1.09h.791c.961 0 1.351-.61.92-1.48-.35-.74-.79-1.53-1.271-2.27-.44-.7-.22-1.35.521-1.66l3.103-1.22c.44-.17.961-.04 1.221.31 1.091 1.44 2.142 3.14 2.752 4.59.221.52-.04 1.05-.61 1.31-.611.26-.611.44 0 .44h6.076c.61 0 .61-.13.04-.35-.571-.17-.741-.66-.441-1.18.871-1.35 1.702-3.06 2.312-4.54.261-.57.791-.83 1.402-.65l3.803 1.13c.831.26 1.051.92.571 1.66l-1.532 2.18c-.79 1.09-.44 1.75.871 1.75h1.051c.661 0 1.091.44 1.091 1.09v3.1c0 .66-.44 1.09-1.091 1.09h-7.297c-.65 0-1.091.44-1.091 1.09v.83c0 .66.441 1.09 1.091 1.09h8.789c.66 0 1.091.44 1.091 1.09v3.19c0 .66-.441 1.09-1.091 1.09l.02-.02z" fill="#58393E"/><path d="M389.5 177.85l19.198-46.18v-.09h-25.394v-11.61h27.886c7.057 0 10.76 3.35 10.76 8.6 0 1.89-.52 4.13-1.461 6.54l-17.306 42.74H389.5z" fill="#D93636"/><path d="M434.322 158.04l2.182 3.36c.26.39.26.92-.04 1.27-2.363 2.88-5.115 5.9-7.608 8.43-.52.57-1.181.52-1.621-.09l-2.533-3.49c-.35-.44-.31-1 .091-1.4 2.051-2.05 4.984-5.07 7.777-8.21.57-.61 1.271-.57 1.752.13zm1.921-10.7l-3.012 3.28c-.571.57-1.222.52-1.752-.04-1.351-1.44-3.413-3.14-5.205-4.54-.611-.44-.661-1.09-.13-1.66l2.752-2.88c.351-.39.921-.48 1.352-.17 2.012 1.35 4.414 3.1 5.945 4.58.441.39.441 1 .04 1.44l.01-.01zm15.475 5.15v2.58c0 4.8 2.452 12.23 11.101 16.59.79.39.96 1.05.44 1.75a63.35 63.35 0 00-2.532 3.58c-.311.48-.871.61-1.402.35-4.374-2.27-7.557-6.07-9.349-9.35-1.091-2.05-1.881-2.05-3.143-.09-2.011 3.19-5.595 6.99-10.53 9.43-.57.26-1.141.04-1.491-.48a40.624 40.624 0 00-2.052-2.97c-.61-.74-.44-1.44.441-1.88 9.268-4.32 12.061-12.05 12.061-16.9v-2.62c0-.66-.44-1.09-1.091-1.09h-.481c-.39 0-.83.26-1 .65-.961 2.14-2.052 4.06-3.234 5.68-.35.48-.96.57-1.481.26a33.692 33.692 0 00-3.453-1.96c-.831-.44-.961-1.14-.391-1.88 2.883-3.58 4.985-8.91 6.076-14.5.13-.66.651-1 1.311-.92l4.064.74c.701.13 1.051.66.871 1.31l-.791 3.19c-.22.83.17 1.4 1.051 1.4h11.361l.22-.04.571-.13h.09c.26-.09.57-.04.791.09l3.323 1.96c.44.26.66.74.52 1.27-1.141 3.58-2.752 7.12-4.194 9.87-.31.57-.921.74-1.481.48-.921-.48-2.052-1.05-3.063-1.48-.651-.31-.871-.92-.571-1.57.391-.87.831-1.88 1.272-2.97.31-.87-.09-1.44-1.001-1.44h-1.702c-.65 0-1.091.44-1.091 1.09h-.04zm46.214 19.57c.961 0 1.271-.44 1.441-2.93.13-1.27.791-1.62 1.962-1.09.871.44 1.922.79 2.793 1.05.57.17.87.65.83 1.22-.7 5.76-2.312 7.34-6.466 7.34h-4.594c-5.465 0-6.777-1.79-6.777-7.08v-6.2c0-.66-.44-1.09-1.091-1.09h-1.571c-.571 0-1.001.39-1.091.96-.961 6.16-3.453 10.74-13.813 13.36-.571.13-1.091-.13-1.352-.66-.39-.92-1-1.92-1.621-2.84-.741-1.05-.521-1.75.741-2.05 7.086-1.62 8.788-4.15 9.489-7.51.17-.74-.311-1.27-1.051-1.27h-4.595c-.65 0-1.091-.44-1.091-1.09v-8.65c0-.17-.09-.26-.26-.17s-.31.04-.39-.09v-.09c-.661-1-1.662-2.23-2.663-3.28-.701-.74-.661-1.44.26-1.96 4.415-2.66 7.517-5.94 9.439-9.13.261-.44.701-.66 1.181-.52l4.985.96c.481.09.651.44.391.87-.261.43-.091.74.39.74h6.116l.22-.04.35-.09c.311-.09.611-.04.831.13h.09l2.973 1.92c.52.35.651.92.35 1.48-.48.74-1.001 1.53-1.621 2.36-.741 1.05-.391 1.75.921 1.75h7.036c.651 0 1.091.44 1.091 1.09v12.71c0 .66-.44 1.09-1.091 1.09h-6.166c-.66 0-1.091.44-1.091 1.09v6.11c0 1.4.171 1.57 1.492 1.57h3.013l.01.03zm-21.811-17.73v2.97c0 .39.26.65.651.65h5.074c.391 0 .661-.26.661-.65v-2.97c0-.39-.26-.66-.661-.66h-5.074c-.391 0-.651.26-.651.66zm8.868-8.6h-5.765c-.17 0-.39.09-.521.22-.35.44-.79.87-1.221 1.31-.66.7-.48 1.14.481 1.14h6.035c.171 0 .391-.09.481-.26.39-.44.741-.92 1.051-1.4.39-.61.17-1-.521-1l-.02-.01zm10.36 11.57v-2.97c0-.39-.26-.66-.66-.66h-5.686c-.39 0-.66.26-.66.66v2.97c0 .39.26.65.66.65h5.686c.39 0 .66-.26.66-.65zm50.017-10.261h-1.882c-1.131 0-1.531.65-.87 1.57 1.001 1.44 2.182 2.71 3.543 3.75.701.52.741 1.22.13 1.88-.871.87-1.752 1.92-2.452 2.84-.26.35-.09.61.35.61.39 0 .701.31.701.7v3.01c0 .66-.441 1.09-1.091 1.09h-9.179c-.39 0-.741.26-.831.61-.09.35.09.61.481.61h8.568c.65 0 1.051.44 1.001 1.09l-.13 1.09c-.571 5.85-1.272 8.73-2.583 10-1.091 1.09-2.322 1.48-3.974 1.66-1.141.09-2.932.09-4.854.04-.611 0-1.001-.39-1.131-1-.13-.7-.351-1.48-.611-2.18-.48-1.22-.09-1.92 1.221-1.83 1.221.04 2.313.04 2.933.04.621 0 1.141-.09 1.572-.35.04-.04.09-.09.13-.09.31-.44.66-1.22.921-2.49.17-.74-.261-1.22-1.051-1.22h-3.414c-.44 0-.79.26-.921.61v.09c-.17.35-.52.57-.96.48l-3.494-.52c-.79-.13-1.131-.7-.871-1.48.391-1.14.831-2.45 1.222-3.76.22-.83-.171-1.4-1.051-1.4h-1.051c-.661 0-1.091-.44-1.091-1.09v-3.41c0-.17.13-.31.31-.31s.26-.13.17-.26c-.48-.83-1.311-1.97-2.102-2.84-.17-.22-.48-.35-.791-.35h-1.751c-.651 0-1.091.44-1.091 1.09v1.4c0 .66.44 1.09 1.091 1.09h1.401c.661 0 1.091.44 1.091 1.09v2.88c0 .65-.44 1.09-1.091 1.09h-1.401c-.651 0-1.091.44-1.091 1.09v3.01c0 .83.52 1.22 1.311 1.05l2.272-.48c.701-.17 1.221.22 1.311.96l.351 2.88c.04.57-.311 1.05-.831 1.18-4.935 1.22-10.19 2.45-14.424 3.45-.661.17-1.181-.17-1.311-.83l-.741-3.62c-.09-.48.13-.83.661-.96a.95.95 0 00.791-.96v-11.97c0-.66.44-1.09 1.091-1.09h2.402c.66 0 1.091.44 1.091 1.09v11.35c0 .31.22.48.48.39h.09c.221-.09.441-.31.441-.61v-13.49c0-.66-.441-1.09-1.091-1.09h-2.973c-.661 0-1.091-.44-1.091-1.09v-12.23c0-.66.44-1.09 1.091-1.09h11.361c.65 0 1.091.44 1.091 1.09v9.56c0 1.18.7 1.57 1.621.79a18.78 18.78 0 002.583-2.62c.7-.92.31-1.62-.871-1.62h-1.401c-.651 0-1.091-.44-1.091-1.09v-3.1c0-.66.44-1.09 1.091-1.09h4.724c.481 0 .921-.31 1.051-.83l.26-1.48c.09-.66.571-1.05 1.222-1l3.583.35c.701.09 1.091.57.961 1.27l-.04.35c-.17.83.26 1.35 1.091 1.35h7.827c.661 0 1.091.44 1.091 1.09v3.1c0 .66-.44 1.09-1.091 1.09l-.01.02zm-31.209-1.62v3.23c0 .39.26.66.66.66h2.052c.391 0 .651-.26.651-.66v-3.23c0-.39-.26-.66-.651-.66h-2.052c-.39 0-.66.26-.66.66zm13.412 12.27h13.683c1.221 0 1.352-.44.481-1.27-.391-.35-.791-.74-1.181-1.13-.311-.35-.521-.31-.521.17v.17c0 .39-.26.66-.66.66h-9.71c-.39 0-.66-.26-.66-.66v-.09c0-.39-.221-.48-.521-.22-.44.39-.871.74-1.311 1.09-1.091.79-.961 1.27.39 1.27l.01.01zm7.568-10.65h-.261c-.26 0-.52.17-.61.39-.481 1-1.001 2.01-1.622 3.01-.39.66-.17 1.05.571 1.05h3.363c.701 0 .921-.39.61-1-.52-.96-1.001-1.96-1.441-3.01-.13-.26-.35-.44-.61-.44zm25.354.821l3.623 1.35c.741.31.961.92.571 1.57-1.051 1.66-2.182 3.32-3.454 4.89-.13.17-.22.44-.22.7v20.31c0 .66-.44 1.09-1.091 1.09h-3.893c-.661 0-1.092-.44-1.092-1.09v-12.14c0-1.05-.52-1.27-1.221-.57l-.09.09-.39.31c-.521.48-1.181.39-1.622-.22-.7-1-1.701-2.27-2.532-3.27-.481-.61-.39-1.27.17-1.7 3.624-2.79 7.387-6.81 9.879-10.87.311-.48.831-.66 1.352-.44l.01-.01zm-1.572-9.12l3.674 1.49c.79.35.961 1 .44 1.7-2.883 3.45-6.556 6.99-10.049 9.52-.571.44-1.181.26-1.572-.35a60.44 60.44 0 00-1.922-2.93c-.44-.61-.35-1.27.261-1.7 2.882-2.01 5.985-4.93 7.827-7.38.31-.39.831-.57 1.351-.35h-.01zm28.988 14.54v3.54c0 .65-.441 1.09-1.091 1.09h-3.283c-.661 0-1.091.44-1.091 1.09v12.01c0 3.1-.521 4.76-2.623 5.68-1.792.83-4.244.96-7.297.96-.61 0-1.051-.39-1.141-.96-.22-1.09-.57-2.36-.961-3.49-.35-1.05.09-1.66 1.181-1.62 1.572.04 3.143.04 3.674.04.74 0 1.001-.17 1.001-.74V159c0-.66-.441-1.09-1.091-1.09h-9.219c-.661 0-1.091-.44-1.091-1.09v-3.54c0-.65.44-1.09 1.091-1.09h20.85c.66 0 1.091.44 1.091 1.09zm-1.051-11.53v3.54c0 .66-.441 1.09-1.091 1.09h-18.057c-.661 0-1.091-.44-1.091-1.09v-3.54c0-.66.44-1.09 1.091-1.09h18.057c.65 0 1.091.44 1.091 1.09zm38.386 22.319c0 .39.26.66.661.66h2.752c.661 0 1.091.44 1.091 1.09v2.18c0 .65-.44 1.09-1.091 1.09h-2.312c-.66 0-1.091.44-1.091 1.09v2.58c0 2.45-.48 3.71-2.232 4.45-1.531.61-3.453.74-5.855.74-.571 0-1.001-.39-1.142-.92-.17-.7-.39-1.4-.66-2.1-.22-.61-.791-.79-1.351-.44-.561.35-1.142.17-1.442-.39-.57-1.13-1.401-2.36-2.272-3.41-.35-.44-.31-.87.17-1.18.481-.26.441-.44-.13-.44h-1.181c-.651 0-1.091.44-1.091 1.09v.31c0 .65-.441 1.09-1.091 1.09h-3.934c-.66 0-1.091.44-1.091 1.09v3.97c0 .66-.44 1.09-1.091 1.09h-3.143c-.661 0-1.091-.44-1.091-1.09v-3.97c0-.66-.44-1.09-1.091-1.09h-4.154c-.661 0-1.091-.44-1.091-1.09v-3.06c0-.65.44-1.09 1.091-1.09h4.284c.571 0 .961-.39.961-1 0-.57-.39-.96-.961-.96h-2.933c-.66 0-1.091-.44-1.091-1.09v-13.23c0-.65.441-1.09 1.091-1.09h3.013c.521 0 .871-.35.871-.87s-.35-.87-.871-.87h-3.763c-.661 0-1.091-.44-1.091-1.09v-2.97c0-.66.44-1.09 1.091-1.09h3.543c.661 0 1.091-.44 1.091-1.09v-1.44c0-.66.44-1.09 1.091-1.09h3.143c.661 0 1.091.44 1.091 1.09v1.44c0 .66.441 1.09 1.091 1.09h3.413c.661 0 1.091.44 1.091 1.09v2.97c0 .65-.44 1.09-1.091 1.09h-3.623c-.521 0-.871.35-.871.87s.35.87.871.87h3.323c.651 0 1.091.44 1.091 1.09v13.23c0 .66-.44 1.09-1.091 1.09h-3.193c-.611 0-1.001.39-1.001.96 0 .61.39 1 1.001 1h4.324c.481 0 .791-.31.791-.83 0-.48.31-.79.831-.79h10.139c.391 0 .661-.26.661-.66s.26-.66.651-.66h4.244c.39 0 .66.26.66.66l-.01.03zm-29.468-10.35v.35c0 .39.26.66.661.66h.26c.39 0 .661-.26.661-.66v-.35c0-.39-.26-.66-.661-.66h-.26c-.39 0-.661.26-.661.66zm0 5.5v.39c0 .39.26.65.661.65h.26c.39 0 .661-.26.661-.65v-.39c0-.39-.26-.66-.661-.66h-.26c-.39 0-.661.26-.661.66zm7.127-5.15v-.35c0-.39-.26-.66-.661-.66h-.39c-.39 0-.661.26-.661.66v.35c0 .39.261.66.661.66h.39c.391 0 .661-.26.661-.66zm0 5.54v-.39c0-.39-.26-.66-.661-.66h-.39c-.39 0-.661.26-.661.66v.39c0 .39.261.65.661.65h.39c.391 0 .661-.26.661-.65zm5.285 2.8l-.13-1.92c-.04-.7.39-1.18 1.091-1.18 1.792 0 3.934-.04 6.166-.13.44 0 .7-.26.7-.7 0-.44-.26-.7-.7-.7h-5.335c-.661 0-1.091-.44-1.091-1.09v-9.17c0-.66.44-1.09 1.091-1.09h5.505c.31 0 .52-.22.52-.57 0-.31-.22-.52-.52-.52h-6.036c-.65 0-1.091-.44-1.091-1.09v-2.14c0-.65.441-1.09 1.091-1.09h5.465c.661 0 1.091-.44 1.091-1.09v-.44c0-.65.441-1.09 1.091-1.09h2.933c.661 0 1.091.44 1.091 1.09v.44c0 .65.441 1.09 1.091 1.09h5.816c.66 0 1.091.44 1.091 1.09v2.14c0 .65-.441 1.09-1.091 1.09h-6.336c-.351 0-.571.22-.571.52 0 .35.22.57.571.57h5.685c.661 0 1.091.44 1.091 1.09v9.65c0 .35-.26.61-.61.61-.351 0-.481.17-.261.48a32.68 32.68 0 011.962 3.14c.261.57.04 1.14-.52 1.4l-2.533 1.22c-.44.22-.83.04-1.001-.39-.17-.39-.57-.66-1.001-.61-5.425.22-10.88.35-15.164.44-.661 0-1.091-.39-1.141-1.05h-.01zm5.385-12.36c0 .35.22.57.571.57h1.351c.31 0 .52-.22.52-.57 0-.31-.22-.52-.52-.52h-1.351c-.351 0-.571.22-.571.52zm.561 4.63h1.311c.35 0 .57-.22.57-.57s-.22-.57-.57-.57h-1.311c-.351 0-.571.22-.571.57s.22.57.571.57zm5.555 15.06c0-.39-.26-.65-.661-.65h-2.532c-.871 0-1.051.44-.521 1.13.391.57.791 1.18 1.051 1.7.171.31.09.66-.22.83l-.09.04c-.39.26-.35.39.09.39.961.04 1.832.04 2.102.04.611-.04.791-.17.791-.66v-2.84l-.01.02zm3.363-20.22h-1.351c-.351 0-.571.22-.571.52 0 .35.22.57.571.57h1.351c.31 0 .521-.22.521-.57a.5.5 0 00-.521-.52zm.531 4.59c0-.35-.221-.57-.571-.57h-1.311c-.351 0-.571.22-.571.57s.22.57.571.57h1.311c.35 0 .571-.22.571-.57zm-2.453 4.32c0 .39.261.66.661.66l.52-.04c.311 0 .391-.17.221-.44h-.04c-.171-.22-.131-.48.17-.61.3-.13.26-.22-.04-.22h-.831c-.39 0-.661.26-.661.65zm27.156-11.439v16.38c0 1.75-.17 3.32-1.141 4.19-.7.66-1.401.87-2.272.96-.66.04-1.091-.39-1.181-1.05-.04-.26-.09-.57-.17-.92-.26-1.14-.571-1.09-.571.13v10c0 .66-.44 1.09-1.091 1.09h-2.792c-.661 0-1.091-.44-1.091-1.09v-25.02c0-.31-.22-.52-.521-.52-.35 0-.57.22-.57.52v16.38c0 .66-.441 1.09-1.091 1.09h-2.142c-.661 0-1.091-.44-1.091-1.09v-21.05c0-.66.44-1.09 1.091-1.09h3.233c.66 0 1.091-.44 1.091-1.09v-5.33c0-.65.44-1.09 1.091-1.09h2.792c.661 0 1.091.44 1.091 1.09v5.33c0 .66.441 1.09 1.091 1.09h3.143c.661 0 1.091.44 1.091 1.09h.01zm-5.335 4.72v11.44c0 .26.171.44.441.44h.39c.22 0 .311-.09.311-.39v-11.49c0-.35-.221-.57-.571-.57s-.571.22-.571.57zm26.005 11l1.792 1.66c.57.48.52 1.14-.04 1.62-.961.79-1.962 1.57-2.973 2.27-.571.44-.661 1.09-.13 1.57.831.79 1.751 1.44 2.792 2.01.921.52 1.091 1.22.391 2.05-.741.92-1.532 2.01-2.142 2.97-.351.57-.921.79-1.492.44-1.962-1.14-3.583-2.66-4.894-4.46-.661-.92-1.001-.83-.871.31l.04.96c.04.61-.31 1.09-.871 1.18l-11.321 2.01c-.66.09-1.141-.22-1.271-.83l-.7-3.1c-.171-.7.22-1.22.92-1.31.441-.09.871-.13 1.312-.17.57-.09.961-.52.961-1.09v-8.25c0-.52-.351-.87-.871-.87-.571 0-.921-.35-.921-.92v-3.06c0-.52.39-.92.961-.92.52 0 .921-.39.921-.96v-14.98c0-.66.44-1.09 1.091-1.09h16.826c.66 0 1.091.44 1.091 1.09v2.62c0 .66-.441 1.09-1.091 1.09h-11.762c-.35 0-.57.22-.57.57s.22.57.57.57h10.49c.661 0 1.091.44 1.091 1.09v2.18c0 .66-.44 1.09-1.091 1.09h-10.49c-.35 0-.57.22-.57.57s.22.57.57.57h10.49c.661 0 1.091.44 1.091 1.09v2.18c0 .66-.44 1.09-1.091 1.09h-10.45c-.35 0-.61.26-.61.61s.26.61.61.61h13.073c.661 0 1.091.44 1.091 1.09v2.71c0 .65-.441 1.09-1.091 1.09h-.441c-.96 0-1.141.44-.44 1.05h.02zm-12.151 8.13l3.012-.44c.521-.09.701-.44.481-.96-.961-2.14-1.702-4.58-2.272-7.25-.09-.31-.351-.52-.661-.52h-.661c-.39 0-.65.26-.65.66v7.9c0 .44.31.7.741.61h.01zm9.398-9.18h-2.312c-.57 0-.79.35-.61.87.17.52.35 1.09.57 1.57.22.48.611.57 1.001.26l1.792-1.62c.651-.65.48-1.09-.441-1.09v.01zm46.304-.91v3.71c0 .66-.44 1.09-1.091 1.09h-13.903c-.661 0-1.091.44-1.091 1.09v4.28c0 3.36-.791 4.93-3.013 5.85-2.102.83-5.025 1-8.738 1-.521 0-.961-.35-1.091-.83-.31-1.05-.791-2.27-1.311-3.41-.521-1.05-.13-1.7 1.051-1.66 2.362.04 4.724.04 5.465.04.961 0 1.351-.26 1.351-1.09v-4.19c0-.65-.44-1.09-1.091-1.09H675.06c-.661 0-1.091-.44-1.091-1.09v-3.71c0-.65.44-1.09 1.091-1.09h13.983c.661 0 1.091-.44 1.091-1.09v-1.66c0-.66-.44-1.09-1.091-1.09h-11.06c-.661 0-1.091-.44-1.091-1.09v-3.58c0-.66.44-1.09 1.091-1.09h11.06c.661 0 1.091-.44 1.091-1.09v-1.75c0-.7-.48-1.14-1.181-1.09-3.453.26-6.867.44-10.14.57-.61.04-1.051-.35-1.181-.96-.17-.87-.44-1.88-.74-2.79-.351-.92.04-1.53 1.051-1.57 9.308-.39 19.238-1.44 25.924-2.97h.09c.391-.13.791.04 1.051.35l2.753 3.14c.7.83.48 1.53-.571 1.75-3.063.65-6.336 1.22-9.789 1.62-.571.09-.961.52-.961 1.09v2.62c0 .66.44 1.09 1.091 1.09h11.361c.66 0 1.091.44 1.091 1.09v3.58c0 .66-.441 1.09-1.091 1.09h-11.361c-.661 0-1.091.44-1.091 1.09v1.66c0 .66.44 1.09 1.091 1.09h13.903c.661 0 1.091.44 1.091 1.09h-.02zm17.266 9.079l-1.921.66c-.741.26-1.312-.09-1.442-.87-.09-.39-.22-.83-.31-1.27-.391-1.57-.701-1.53-.701.09v8.25c0 .66-.44 1.09-1.091 1.09h-2.792c-.661 0-1.091-.44-1.091-1.09v-6.16c0-2.62-.171-2.66-.741-.04-.22 1.09-.481 2.14-.831 3.06-.22.7-.871.92-1.571.57-.611-.35-1.352-.65-2.012-.96-.611-.26-.871-.83-.661-1.48.701-2.05 1.141-4.72 1.351-7.29.04-.74.571-1.14 1.271-1l1.962.31c.741.13 1.221-.31 1.221-1.09 0-.7-.48-1.14-1.181-1.09l-2.792.22c-.611.04-1.091-.35-1.181-.96l-.311-2.75c-.09-.7.351-1.22 1.051-1.22l1.051-.04h.09c.311-.04.611-.22.791-.48.26-.44.571-.87.871-1.27v-.09c.22-.39.26-.83 0-1.18-.961-1.4-2.312-3.01-3.493-4.37a1.126 1.126 0 01-.09-1.4l2.182-3.06c.13-.13.31-.17.44-.09.04 0 .09.09.13.09.13.13.31.09.391-.09.79-1.75 1.531-3.67 2.102-5.33.22-.61.79-.92 1.401-.7l2.843.87c.74.22 1.001.87.61 1.57-1.221 2.31-2.532 4.76-3.713 6.73-.171.31-.13.7.09 1 .22.31.52.26.7-.04.871-1.53 1.662-3.1 2.313-4.5.26-.57.83-.79 1.441-.57l2.622 1.14c.741.26.961.92.521 1.57l-3.233 5.02c-.521.74-.26 1.05.57.74l.481-.17c.52-.17 1.091.04 1.311.61 1.051 2.4 2.012 5.24 2.362 7.38.09.48-.17.96-.66 1.14l-2.623 1c-.48.17-.791-.04-.871-.48v-.09l-.09-.22v-.09c-.09-.26-.31-.48-.57-.48h-.09c-.261.09-.481.26-.481.57v.92c0 .92.571 1.31 1.402 1.05l.96-.26c.611-.17 1.142.09 1.352.7.48 1.57 1.001 3.28 1.311 4.72.13.52-.13 1.05-.661 1.22l.01-.02zm-5.765-13.49l.44-.04c.481 0 .741-.35.571-.83l-.13-.39c-.26-.7-.701-.74-1.141-.17-.09.17-.221.31-.311.48-.44.61-.22 1 .571.96v-.01zm26.755 15.59h-.31c-.871 0-.921.26-.17.61l2.883 1.4c1.051.52 1.091 1.27.09 1.88l-2.843 1.66c-.35.22-.791.22-1.141 0-1.442-.87-3.584-2.1-5.635-3.19-.741-.35-.791-.96-.131-1.48.611-.52.481-.87-.35-.87h-3.143c-.921 0-1.051.35-.26.83.741.52.701 1.18-.09 1.62-2.272 1.18-5.155 2.4-7.567 3.14-.351.09-.791 0-1.091-.31-.391-.39-.921-.92-1.442-1.4-1.051-.92-.871-1.66.441-2.1 1.091-.39 2.232-.83 3.283-1.31.61-.26.52-.48-.17-.48-.661 0-1.142-.44-1.142-1.09v-10.83c0-.66.441-1.09 1.091-1.09h17.707c.661 0 1.091.44 1.091 1.09v10.83c0 .66-.44 1.09-1.091 1.09h-.01zm-12.111-27.56c0-.31-.17-.48-.481-.48h-7.297c-.65 0-1.091-.44-1.091-1.09v-1.35c0-.66.441-1.09 1.091-1.09h6.817c.57 0 .961-.39.961-1 0-.57.39-.96 1.001-.96h3.933c.571 0 .961.39.961.96 0 .61.391 1 1.001 1h7.257c.661 0 1.091.44 1.091 1.09v1.35c0 .66-.44 1.09-1.091 1.09h-7.777c-.31 0-.481.17-.481.48 0 .31.171.48.481.48h6.036c.66 0 1.091.44 1.091 1.09v1.13c0 .66-.441 1.09-1.091 1.09h-18.188c-.65 0-1.091-.44-1.091-1.09v-1.13c0-.66.441-1.09 1.091-1.09h5.285c.311 0 .481-.17.481-.48h.01zm-8.218 12.53v-6.64c0-.66.44-1.09 1.091-1.09h20.81c.66 0 1.091.44 1.091 1.09v6.64c0 .66-.441 1.09-1.091 1.09h-20.81c-.661 0-1.091-.44-1.091-1.09zm5.946-4.97h-.791c-.35 0-.611.26-.611.61s.261.57.611.48c.48-.09.831-.22 1.181-.39.611-.26.35-.7-.39-.7zm-1.402 2.35v.26c0 .39.261.66.661.66h.13c.44 0 .571-.26.31-.61-.13-.22-.31-.39-.44-.57-.39-.44-.661-.31-.661.26zm2.182 7.87c0 .31.171.48.481.48h8.308c.31 0 .48-.17.48-.48 0-.31-.17-.48-.48-.48h-8.308c-.31 0-.481.17-.481.48zm0 3.27a.5.5 0 00.521.52h8.218c.31 0 .52-.22.52-.52 0-.3-.22-.52-.52-.52h-8.218a.5.5 0 00-.521.52zm0 3.28c0 .35.221.57.571.57h8.178c.31 0 .52-.22.52-.57 0-.31-.22-.52-.52-.52h-8.178c-.35 0-.571.22-.571.52zm2.583-13.5h8.528c.17 0 .31-.13.31-.35 0-.17-.13-.31-.31-.31h-1.882c-2.752 0-3.673-.44-3.894-2.01-.04-.35-.31-.61-.66-.61h-.17c-.311 0-.521.17-.661.48-.31.74-.791 1.31-1.531 1.83-1.402.87-1.442.96.26.96l.01.01zm8.828-2.71v-.22c0-.22-.13-.35-.35-.35h-1.181c-.311 0-.571.22-.441.48.09.17.17.22.441.22h1.401c.09 0 .13-.04.13-.13zm41.059 18.87h-1.351c-1.482 0-1.532.31-.13.83 1.751.61 3.493 1.27 4.984 1.88 1.402.57 1.402 1.4-.04 1.96l-3.973 1.62c-.311.13-.661.13-.961-.04-1.962-1.05-5.155-2.49-8.438-3.71-1.051-.39-1.131-1-.17-1.57.96-.57.83-.96-.261-.96h-6.256c-1.051 0-1.091.31-.13.7.921.44.961 1.13.04 1.62-3.193 1.66-7.347 3.14-10.93 4.11-.391.09-.831-.04-1.091-.35-.571-.61-1.271-1.35-2.012-2.1-1.091-1.05-.871-1.83.661-2.14 1.751-.31 3.543-.74 5.114-1.18 1.272-.35 1.182-.66-.09-.66h-1.051c-.65 0-1.091-.44-1.091-1.09v-9.56c0-.79-.52-1.22-1.311-1.09l-.571.09c-.52.09-1-.22-1.221-.66-.35-.7-.79-1.48-1.271-2.18-.701-1.05-.44-1.79.871-1.96 2.883-.39 4.985-.92 6.466-1.62.701-.31.611-.61-.13-.61h-1.131l-.17.13-.09.04c-.09.04-.171.09-.261.09l-3.623-.22c-.961-.04-1.311-.66-1.001-1.53a71.97 71.97 0 001.962-5.81c.13-.48.57-.79 1.051-.79h6.296c.35 0 .61-.26.61-.61s-.26-.61-.61-.61h-7.387c-.651 0-1.091-.44-1.091-1.09v-1.22c0-.66.44-1.09 1.091-1.09h7.217c.48 0 .79-.31.79-.79 0-.48.311-.79.791-.79h3.844c.48 0 .791.31.791.79 0 .48.31.79.79.79h2.102c.481 0 .791-.31.791-.79 0-.48.31-.79.791-.79h4.114c.48 0 .79.31.79.79 0 .48.311.79.791.79h6.727c.66 0 1.091.44 1.091 1.09v5.85c0 .65-.441 1.09-1.091 1.09h-6.867c-.39 0-.661.26-.661.61 0 .39.261.65.661.65h9.919c.391 0 .701.31.701.7v.74c-.17 2.79-.44 4.41-1.181 5.28-.661.74-1.702 1.05-2.622 1.14h-.221l-.09.13c-.09.09-.13.22-.13.31v12.71c0 .66-.44 1.09-1.091 1.09l-.05-.01zm-24.093-22.93l-.09.17c-.13.39.04.65.441.65h2.312c.31 0 .57-.22.61-.52v-.09c.09-.39-.17-.66-.57-.66h-2.102a.608.608 0 00-.611.44l.01.01zm18.448 10h-15.125c-.35 0-.57.22-.57.57s.22.57.57.57h15.125c.35 0 .57-.22.57-.57s-.22-.57-.57-.57zm0 4.2h-15.085c-.39 0-.61.22-.61.57 0 .39.22.61.61.61h15.085c.35 0 .57-.22.57-.61 0-.35-.22-.57-.57-.57zm-.04 4.23h-15.035c-.35 0-.61.26-.61.61s.26.61.61.61h15.035c.35 0 .61-.26.61-.61s-.26-.61-.61-.61zm-6.607-14.19h-3.363c-.26 0-.48.17-.61.39-.13.35-.311.66-.521.96-.48.7-.31 1.13.571 1.13h3.933c.391 0 .651-.26.651-.65v-1.18c0-.39-.26-.66-.651-.66l-.01.01zm.661-4.06c0-.35-.26-.61-.611-.61h-2.402c-.39 0-.66.26-.66.61l-.04.04c0 .35.26.61.66.61h2.452c.351 0 .611-.26.611-.65h-.01zm-3.673-4.63c0 .35.26.61.61.61h2.452c.351 0 .611-.26.611-.61s-.26-.61-.611-.61h-2.452c-.35 0-.61.26-.61.61zm11.891-.61h-1.922c-.35 0-.611.26-.611.61s.261.61.611.61h1.922c.35 0 .61-.26.61-.61s-.26-.61-.61-.61zm2.492 9.3h-4.374c-.39 0-.661.26-.661.66v1.18c0 .39.261.65.661.65h1.481c.481 0 .741-.31.571-.79-.17-.44-.04-.7.48-.65.441.04.831.09 1.142.04h.09c.22 0 .44 0 .66-.17.09-.04.13-.13.17-.22l.091-.31c.09-.22-.041-.39-.311-.39z" fill="#58393E"/><path d="M852.968 60.86c3.023-3.56 4.624-7.62 4.624-11.74s-1.601-8.17-4.624-11.74l-19.479-22.96c-5.985-7.05-16.986-11.43-28.707-11.43H252.779c-11.081 0-21.41 3.83-27.626 10.24l-22.261 22.96c-3.724 3.84-5.696 8.31-5.696 12.92 0 4.61 1.972 9.08 5.696 12.92l22.261 22.96c6.226 6.42 16.555 10.24 27.626 10.24h551.993c11.721 0 22.722-4.38 28.707-11.43l19.479-22.96.01.02zm-26.025 20.98c-4.674 5.51-13.172 8.93-22.171 8.93H252.779c-8.498 0-16.466-2.98-21.31-7.98l-22.261-22.96c-6.216-6.41-6.216-15.01 0-21.42l22.261-22.96c4.844-5 12.812-7.98 21.31-7.98h551.993c8.999 0 17.497 3.42 22.171 8.93l19.479 22.96c5.105 6.02 5.105 13.5 0 19.52l-19.479 22.96z" fill="#D93636"/><path d="M855.26 35.45l-19.478-22.96c-6.536-7.7-18.418-12.49-31-12.49H252.779c-11.881 0-23.012 4.17-29.788 11.16L200.73 34.11c-4.284 4.41-6.546 9.6-6.546 15.01s2.262 10.6 6.546 15.01l22.261 22.96c6.776 6.99 17.907 11.16 29.788 11.16h551.993c12.582 0 24.464-4.79 31-12.49L855.25 62.8c3.494-4.11 5.335-8.84 5.335-13.68s-1.841-9.56-5.335-13.68l.01.01zm-50.488 59.79H252.779c-11.08 0-21.41-3.83-27.626-10.24l-22.261-22.96c-3.724-3.84-5.696-8.31-5.696-12.92 0-4.61 1.972-9.08 5.696-12.92l22.261-22.96C231.369 6.82 241.699 3 252.779 3h551.993c11.721 0 22.722 4.38 28.708 11.43l19.478 22.96c3.023 3.56 4.624 7.62 4.624 11.74s-1.601 8.17-4.624 11.74L833.48 83.83c-5.986 7.05-16.987 11.43-28.708 11.43v-.02z" fill="#58393E"/><path d="M455.491 50.86c-.04-.31-.31-.52-.65-.52h-.171c-.39 0-.66.26-.66.66v9.21c0 .48.31.74.791.61.83-.13 1.701-.35 2.582-.48.52-.13.701-.48.52-.92-1.051-2.58-1.791-5.42-2.402-8.56h-.01zm-8.258-12.4l-1.091 1.31c-.13.09-.17.26-.17.39v3.97c0 .39-.26.66-.661.66h-2.973c-.39 0-.66.26-.66.66v1c0 .39.26.66.66.66h3.764c.39 0 .661.26.661.66v3.71c0 .39-.261.66-.661.66h-3.764c-.39 0-.66.26-.66.65v3.28c0 1.92.35 1.97.7.09.131-.87.261-1.75.391-2.49.04-.44.39-.66.791-.57l3.062.7c.441.09.611.44.481.87-.651 1.92-1.271 3.93-1.792 5.37-.13.35-.44.52-.791.39l-2.011-.57c-.481-.13-.831.13-.831.66v.13c0 .44.31.7.74.61l3.894-.57c.391-.04.701.22.741.61v.35c.04.39.31.61.701.52h.09c.31-.04.52-.31.52-.66V38.89c0-1.09-.48-1.22-1.141-.44l.01.01zm14.014-2.23h-6.586a.66.66 0 00-.661.66v.56c0 .365.296.66.661.66h6.586a.66.66 0 00.66-.66v-.56a.66.66 0 00-.66-.66zm-6.586 6.9h6.606c.36 0 .651.29.651.65v.61a.66.66 0 01-.661.66h-6.596a.66.66 0 01-.661-.66v-.61c0-.36.29-.66.661-.66v.01zm101.556-7.21h.57c.261 0 .481-.22.481-.52 0-.26-.22-.48-.481-.48h-.57c-.311 0-.521.22-.521.48 0 .31.22.52.521.52zM442.99 38.8c-.791-1.05-1.662-2.14-2.583-3.1-.35-.35-.74-.31-1.001.09-.65.96-1.351 1.92-2.142 2.93-.52.66-.35 1.09.521 1.09h4.674c.741 0 .961-.44.521-1l.01-.01zm113.227 1.66h.57c.261 0 .481-.22.481-.52 0-.26-.22-.48-.481-.48h-.57c-.311 0-.521.22-.521.48 0 .31.22.52.521.52zm-6.125-1h-.441c-.31 0-.52.22-.52.48 0 .31.22.52.52.52h.441c.26 0 .48-.22.48-.52 0-.26-.22-.48-.48-.48zm-.081 9.17h-1.051c-.35 0-.57.22-.57.57s.22.57.57.57h1.051c.351 0 .571-.22.571-.57s-.22-.57-.571-.57zm-133.166 3.19c-.701-.48-1.351-.96-1.972-1.49a.657.657 0 00-.871 0c-.66.57-1.351 1.05-2.052 1.57-1.181.79-1.051 1.27.391 1.27h4.154c1.531 0 1.661-.48.35-1.35zm-59.676 1.26l-1.221.57c-.481.22-.831 0-.961-.52-.04-.26-.13-.52-.22-.83-.091-.31-.351-.48-.701-.48l-.13.04c-.351 0-.571.26-.571.66v1.88c0 .57.351.83.871.66l2.402-.79c.351-.09.661.04.791.39l.26.61c.261.7.391.66.391-.09V53.7c0-.61-.351-.83-.921-.61l.01-.01zm-4.635-7.03c-.26-.52-.661-.57-1.051-.09-.04.09-.09.13-.17.22-.391.57-.221.87.48.83h.22c.571-.04.791-.39.571-.87 0-.04-.04-.04-.04-.09h-.01zm-65.543-9.47h-12.812c-.39 0-.66.26-.66.66V60.6c0 .39.26.66.66.66h12.812c.391 0 .661-.26.661-.66V37.24c0-.39-.26-.66-.661-.66zm-.04 7.77c0 .66-.44 1.09-1.091 1.09h-2.052c-.65 0-1.091.44-1.091 1.09v.87c0 .66.441 1.09 1.091 1.09h1.402c.66 0 1.091.44 1.091 1.09v9.04c0 .66-.441 1.09-1.091 1.09h-9.179c-.651 0-1.091-.44-1.091-1.09v-9.04c0-.66.44-1.09 1.091-1.09h1.001c.65 0 1.091-.44 1.091-1.09v-.87c0-.66-.441-1.09-1.091-1.09h-1.702c-.65 0-1.091-.44-1.091-1.09v-2.1c0-.66.441-1.09 1.091-1.09h1.702c.65 0 1.091-.44 1.091-1.09v-1.83c0-.66.44-1.09 1.091-1.09h2.402c.661 0 1.091.44 1.091 1.09v1.83c0 .66.441 1.09 1.091 1.09h2.052c.651 0 1.091.44 1.091 1.09v2.1h.01z" fill="#F25252"/><path d="M281.176 52.56h-1.342a.66.66 0 00-.66.66v1.82c0 .364.296.66.66.66h1.342a.66.66 0 00.66-.66v-1.82a.66.66 0 00-.66-.66zm130.594 5.63h5.025c.36 0 .65.29.65.65v2.79c0 .36-.29.66-.66.66h-5.025a.65.65 0 01-.651-.65v-2.8c0-.36.291-.65.651-.65h.01zm-17.787-22.14h2.842c.361 0 .651.29.651.65v2.84c0 .36-.29.65-.651.65h-2.842a.649.649 0 01-.651-.65V36.7c0-.36.29-.66.661-.66l-.01.01zm156.109-1.13h-.441c-.31 0-.52.22-.52.48 0 .31.22.52.52.52h.441c.26 0 .48-.22.48-.52 0-.26-.22-.48-.48-.48zm-136.48 6.51c.31.39.74.39 1.001-.04.48-.7.921-1.4 1.311-2.14.31-.52.04-.92-.571-.92h-2.972a.56.56 0 00-.441.22c-.13.17-.13.35-.04.52.521.79 1.051 1.57 1.702 2.36h.01zm-4.375 2.7c-.31-.48-.701-.48-1.091-.09-.22.26-.39.52-.611.74-.31.31-.66.31-.961.04-.7-.66-1.621-1.49-2.492-2.18-.61-.52-1.051-.31-1.051.48v1.53c0 .39-.26.66-.66.66h-2.493c-.39 0-.65.26-.65.65v2.93c0 .39.26.65.65.65h3.103c.26 0 .441.17.441.44s.17.35.39.26c2.272-1 4.374-2.31 6.246-3.93.31-.22.31-.57.09-.87l-.921-1.31h.01zm293.288 1.9h-17.316c-.401 0-.671.27-.671.67v4.09c0 .45.22.72.671.72h17.316c.4 0 .671-.27.671-.67v-4.13c0-.4-.271-.67-.671-.67v-.01zm-61.798-3.78c-.351 0-.571.22-.571.57v11.44c0 .26.17.44.441.44h.39c.22 0 .31-.09.31-.39V42.82c0-.35-.22-.57-.57-.57zm14.514 11.05c-.09-.31-.35-.52-.66-.52h-.651c-.39 0-.66.26-.66.66v7.9c0 .44.31.7.74.61l3.013-.44c.521-.09.701-.44.481-.96-.961-2.14-1.702-4.58-2.273-7.25h.01zm74.189-10.96l-.52-.09c-.441-.09-.661-.44-.481-.83.261-.74.521-1.53.741-2.32.13-.48-.13-.79-.611-.79h-3.323c-.57 0-.79.35-.61.92.26.79.52 1.62.66 2.31.04.35-.13.61-.48.7l-.35.09c-.571.17-.521.26.04.26h4.894c.741 0 .791-.09.04-.26v.01zm-66.021 10.44h-2.312c-.571 0-.791.35-.611.87.17.52.351 1.09.571 1.57.22.48.61.57 1.001.26l1.791-1.62c.651-.65.481-1.09-.44-1.09v.01zm-107.152-3.01h1.181c.351 0 .571-.22.571-.57s-.22-.57-.571-.57h-1.181c-.35 0-.57.22-.57.57s.22.57.57.57zm232.81-3.74h-17.316c-.401 0-.671.27-.671.67v4.09c0 .45.22.72.671.72h17.316c.401 0 .671-.27.671-.67v-4.13c0-.4-.27-.67-.671-.67v-.01z" fill="#F25252"/><path d="M844.9 57.59c4.434-5.22 4.434-11.71 0-16.93L825.421 17.7c-4.304-5.07-12.211-8.22-20.639-8.22H252.779c-7.968 0-15.395 2.75-19.869 7.37l-22.261 22.96c-5.495 5.66-5.495 12.98 0 18.64l22.261 22.96c4.474 4.61 11.901 7.37 19.869 7.37h551.993c8.428 0 16.335-3.15 20.639-8.22L844.89 57.6l.01-.01zm-616.494-3.83a4.254 4.254 0 01-4.254-4.25c0-2.35 1.901-4.25 4.254-4.25 2.352 0 4.254 1.9 4.254 4.25s-1.902 4.25-4.254 4.25zm378.739-17.14c.65 0 1.091-.44 1.091-1.09v-4.37c0-.66.44-1.09 1.091-1.09h3.933c.661 0 1.091.44 1.091 1.09v4.37c0 .65.441 1.09 1.091 1.09h7.738c.66 0 1.091.44 1.091 1.09v3.49c0 .66-.441 1.09-1.091 1.09h-23.082c-.651 0-1.091-.44-1.091-1.09v-3.49c0-.66.44-1.09 1.091-1.09h7.047zm2.532 21.88c.04.57-.31 1-.871 1.09l-3.713.79c-.741.17-1.272-.26-1.312-1.05-.22-3.76-.961-9.04-1.921-13.54-.171-.7.22-1.22.87-1.31l3.324-.57c.61-.09 1.091.22 1.271.79 1.091 4.54 2.102 10 2.362 13.8h-.01zM491.385 32.87c0-.66.44-1.09 1.091-1.09h18.057c.651 0 1.091.44 1.091 1.09v3.54c0 .66-.44 1.09-1.091 1.09h-18.057c-.661 0-1.091-.44-1.091-1.09v-3.54zm-16.876 4.71c2.883-2.01 5.986-4.93 7.827-7.38a1.13 1.13 0 011.352-.35l3.673 1.49c.791.35.961 1 .44 1.7-2.882 3.45-6.556 6.99-10.049 9.52-.571.44-1.181.26-1.572-.35-.57-.92-1.271-2.01-1.921-2.93-.441-.61-.351-1.27.26-1.7h-.01zm-206.966-5.24c-.741 2.1-1.572 4.37-2.623 6.46-.04.04-.04.13-.04.17l-.09.35v28.52c0 .66-.44 1.09-1.091 1.09h-3.543c-.661 0-1.091-.44-1.091-1.09V50.5c0-.96-.351-1.09-.961-.31-.611.74-1.271.61-1.622-.31-.48-1.4-1.221-3.19-1.832-4.41-.22-.44-.17-.92.131-1.31 2.932-3.45 5.595-8.43 7.296-13.54.221-.61.791-.92 1.402-.74l3.363 1.05c.651.22.961.79.701 1.4v.01zm25.834 35.07c0 .66-.44 1.09-1.091 1.09h-3.583c-.651 0-1.051-.39-1.051-1 0-.66-.391-1.05-1.001-1.05h-12.022c-.65 0-1.091.44-1.091 1.09v.22c0 .66-.44 1.09-1.091 1.09h-3.323c-.65 0-1.091-.44-1.091-1.09V32.47c0-.66.441-1.09 1.091-1.09h23.172c.661 0 1.091.44 1.091 1.09v34.94h-.01zm44.072-2.84a17.186 17.186 0 00-2.713 3.06c-.35.52-.961.74-1.481.44-7.077-3.93-11.361-9.96-13.943-16.03-.741-1.75-1.532-1.75-2.272.04-2.403 5.76-6.336 11.49-12.672 15.9-.521.39-1.091.26-1.532-.22-.791-1-1.882-2.05-3.103-3.01-.831-.65-.791-1.4.09-1.96 14.124-9.21 14.164-25.2 14.384-31.4 0-.66.44-1.05 1.091-1.05h4.804c.701 0 1.092.44 1.092 1.14l-.091 1.53v.09c.311 5.81 2.273 21.79 16.126 29.48.961.52 1.001 1.27.22 2.01v-.02zm27.846-7.73v-1.88c0-.31-.22-.52-.52-.52-.351 0-.571-.22-.571-.57v-2.79c0-.65.441-1.09 1.091-1.09h.571c.66 0 1.091-.44 1.091-1.09v-.48c0-.66-.441-1.09-1.091-1.09h-.571c-.66 0-1.091-.44-1.091-1.09v-2.79c0-.31.22-.52.571-.52.31 0 .48-.22.44-.52-.13-.96-.44-2.1-.74-3.1-.171-.61.09-1.18.7-1.4l1.532-.52c.57-.17 1.091.04 1.311.57.39 1.09.741 2.31.961 3.32.09.52-.22 1-.701 1.18l-.26.09c-.661.22-.611.39.09.39h2.452c.571 0 .571-.13.04-.31-.52-.17-.74-.66-.61-1.18.31-1.05.57-2.23.791-3.32.13-.74.65-1.14 1.401-.92l2.012.52c.74.22 1.051.83.7 1.53-.48 1.09-.87 2.14-1.271 3.06-.17.35 0 .61.441.61.39 0 .66.26.66.66v2.66c0 .65-.44 1.09-1.091 1.09h-.52c-.661 0-1.091.44-1.091 1.09v.48c0 .65.44 1.09 1.091 1.09h.52c.651 0 1.091.44 1.091 1.09v2.27c0 .66-.44 1.09-1.091 1.09h-2.232c-.661 0-1.091.44-1.091 1.09v1.35c0 .96.09 1.27.481 1.27h1.621c.31 0 .651-.04 1.051-.09.571-.04 1.001.22 1.051.83.04.92.13 2.01.22 2.84.04.48-.17.92-.66 1-.481.13-1.051.13-1.622.13h-1.621c-4.545 0-5.506-1.62-5.506-6.03h-.03zm15.605 6.38c0 2.58-.44 3.89-1.972 4.76-1.401.74-3.233.92-5.765.96-.571 0-1.001-.39-1.141-.96-.13-.7-.391-1.53-.651-2.31-.39-1.09 0-1.7 1.181-1.66h2.142c.571-.04.791-.26.791-.83V37.46c0-.66-.44-1.09-1.091-1.09h-9.839c-.651 0-1.091.44-1.091 1.09V67.9c0 .66-.441 1.09-1.091 1.09h-3.193c-.661 0-1.092-.44-1.092-1.09v-4.67c0-.92-.57-1.35-1.441-1.05l-.48.17c-.791.26-1.352-.13-1.482-.92-.09-.61-.26-1.31-.39-1.97-.441-1.96-.921-1.88-.921.13v8.21c0 .66-.44 1.09-1.091 1.09h-2.973c-.66 0-1.091-.44-1.091-1.09v-6.55c0-3.01-.17-3.01-.791-.09-.31 1.27-.61 2.45-.961 3.49-.22.79-.87.96-1.571.61s-1.481-.7-2.182-1c-.611-.26-.831-.83-.611-1.48.701-2.01 1.141-4.67 1.352-7.29.04-.74.57-1.14 1.271-1l2.232.35c.741.13 1.271-.31 1.271-1.09v-.26c0-.7-.48-1.14-1.181-1.09l-3.193.31c-.611.04-1.091-.35-1.181-.96l-.35-2.97c-.091-.65.35-1.18 1.051-1.18l1.401-.09h.09c.26-.04.57-.22.741-.44l.65-.92s.04-.04.04-.09c.261-.39.261-.83.04-1.18-1.001-1.44-2.312-3.06-3.543-4.41-.35-.39-.39-.96-.09-1.4l2.102-2.93c.17-.26.44-.31.651-.09h.09c.17.22.39.17.52-.13.741-1.7 1.532-3.62 2.102-5.33.22-.61.791-.92 1.401-.7l2.933 1c.701.26.961.87.611 1.57-1.271 2.36-2.583 4.85-3.764 6.81-.22.31-.17.7.04.96v.09c.26.26.521.26.701-.09.961-1.62 1.882-3.23 2.622-4.72.311-.57.871-.79 1.442-.52l2.712 1.22c.701.31.921.96.481 1.57-1.141 1.7-2.362 3.45-3.584 5.15-.65.92-.44 1.18.611.74l.741-.31c.57-.22 1.091-.04 1.401.48.22.39.39.79.611 1.22.61 1.27.96 1.18.96-.22V32.26c0-.65.441-1.09 1.092-1.09h20.629c.661 0 1.091.44 1.091 1.09v30.96zm44.242-12.14c-.611.79-1.271 1.62-1.752 2.4-.09.17-.17.39-.17.57v13.54c0 .66-.44 1.09-1.091 1.09h-4.064c-.35 0-.61-.26-.61-.61s-.26-.61-.611-.61h-5.075c-.39 0-.65.26-.65.66s-.26.66-.661.66h-3.803c-.651 0-1.092-.44-1.092-1.09V55.77s0-.13-.04-.17l-.13-.39s0-.09-.04-.09c-.31-.52-.7-1.22-1.181-1.83-.44-.57-.741-.44-.741.31 0 .66-.44 1.18-1.091 1.18h-2.011c-.661 0-1.092.44-1.092 1.09v2.01c0 .79.521 1.22 1.352 1.05.66-.13 1.351-.26 2.052-.44.7-.13 1.221.22 1.311.96l.35 3.14c.04.57-.31 1.05-.831 1.18-5.285 1.27-10.84 2.53-15.344 3.58-.701.17-1.221-.17-1.351-.87l-.651-3.8c-.09-.48.22-.87.701-1 .48-.09.831-.48.831-.96V48.84c0-.66.44-1.09 1.091-1.09h2.662c.651 0 1.091.44 1.091 1.09v11.09c0 .39.26.65.701.57.44-.09.7-.44.7-.83V46.44c0-.66-.44-1.09-1.091-1.09h-3.583c-.661 0-1.091-.44-1.091-1.09V32.08c0-.66.44-1.09 1.091-1.09h12.722c.661 0 1.091.44 1.091 1.09v6.16c0 1.57.741 1.88 1.752.66 1.882-2.4 3.453-5.33 4.504-8.38.17-.61.701-.92 1.311-.74l3.544.83c.7.17 1.001.74.74 1.44-.26.74.09 1.27.831 1.27h3.193l.22-.04.571-.09c.22-.04.48-.04.651.04l2.622 1.13c.52.22.791.7.611 1.27-1.051 3.58-2.623 6.73-4.545 9.39-.39.57-.35 1.18.261 1.57 1.571 1 3.323 1.92 5.285 2.58 1.051.39 1.271 1.09.57 1.96l-.02-.05zm43.591 14.15a20.61 20.61 0 00-2.142 2.84c-.35.57-.961.74-1.531.39-2.232-1.4-3.974-3.19-5.375-5.37-.701-1.18-1.001-1.14-.831.26l.17 1.35c.04.57-.31 1.05-.831 1.18-3.453.83-7.076 1.66-10.229 2.36-.611.13-1.091-.17-1.272-.79l-.17-.66c-.17-.57-.66-.87-1.271-.79-4.324.79-8.828 1.49-12.542 2.05-.61.13-1.091-.22-1.221-.83l-.701-3.19c-.17-.7.221-1.22.921-1.31l3.804-.52c.57-.09.961-.57.961-1.14s-.391-.87-.961-.7l-1.622.48c-.79.22-1.351-.17-1.441-.96-.22-1.44-.571-3.1-.921-4.59-.13-.61.17-1.18.791-1.31l1.792-.48c.61-.17 1.141.13 1.311.74.13.61.31 1.22.44 1.88.441 1.7.611 1.7.611-.09v-2.84c0-.66-.441-1.09-1.091-1.09h-3.063c-.661 0-1.091-.44-1.091-1.09v-2.84c0-.66.44-1.09 1.091-1.09h3.063c.66 0 1.091-.52 1.091-1.18 0-.66-.441-1.14-1.091-1.14h-1.792c-.44 0-.741-.31-.741-.74v-.31s0-.13-.04-.17l-.09-.39s-.09-.13-.09-.17c-.61-.87-1.571-1.96-2.402-2.79-.611-.57-.611-1.27.04-1.83a26.796 26.796 0 006.036-8.21c.17-.39.61-.66 1.001-.66h3.713c.22 0 .481.09.651.22l.09.09c1.531 1.22 3.363 2.88 4.854 4.5 1.091 1.14 1.752.92 1.752-.7v-1.57c0-.66.44-1.09 1.091-1.09h17.096c.661 0 1.091.44 1.091 1.09v17.21c0 .66-.44 1.09-1.091 1.09h-4.454c-.791 0-1.221.52-1.001 1.31l.26 1c.261.92.921 1.09 1.662.52.52-.44 1.001-.87 1.481-1.31.481-.44 1.091-.48 1.572 0l2.312 2.4c.571.57.48 1.22-.13 1.66-1.091.79-2.272 1.53-3.363 2.23-.571.35-.741.96-.311 1.53a12.766 12.766 0 003.804 3.54c.871.52 1.001 1.22.35 2.01v.01zM486.01 46.8c-.13.17-.22.44-.22.7v20.31c0 .66-.441 1.09-1.092 1.09h-3.893c-.651 0-1.091-.44-1.091-1.09V55.67c0-1.05-.521-1.27-1.221-.57l-.09.09-.391.31c-.52.48-1.181.39-1.621-.22-.701-1-1.702-2.27-2.533-3.27-.48-.61-.39-1.27.17-1.7 3.624-2.79 7.387-6.81 9.88-10.87.31-.48.831-.66 1.351-.44l3.623 1.35c.741.31.961.92.571 1.57-1.051 1.66-2.182 3.32-3.453 4.89l.01-.01zm26.665 1.13c0 .65-.44 1.09-1.091 1.09h-3.283c-.651 0-1.091.44-1.091 1.09v12.01c0 3.1-.521 4.76-2.623 5.68-1.791.83-4.244.96-7.297.96-.61 0-1.051-.39-1.141-.96-.22-1.09-.57-2.36-.961-3.49-.35-1.05.091-1.66 1.182-1.62 1.571.04 3.143.04 3.673.04.741 0 1.001-.17 1.001-.74V50.11c0-.66-.44-1.09-1.091-1.09h-9.219c-.66 0-1.091-.44-1.091-1.09v-3.54c0-.65.441-1.09 1.091-1.09h20.85c.661 0 1.091.44 1.091 1.09v3.54zm19.308-11.68l-6.346 28.64c-.06.38-.38.64-.77.64h-1.892c-.611 0-.901-.38-.771-.96l6.346-28.64c.06-.38.38-.64.771-.64h1.892c.61 0 .9.38.77.96zm49.147 5.26c0 .61-.481 1.05-1.091 1.05-.571 0-1.051.39-1.141.96-.611 5.37-1.662 9.96-3.413 13.84v.09c-.171.31-.131.7.04.96 1.221 1.97 2.752 3.67 4.594 4.98.741.52.791 1.22.17 1.92-.741.83-1.571 1.83-2.182 2.71-.39.61-1.001.74-1.571.35a19.534 19.534 0 01-3.804-3.8c-.571-.66-1.221-.7-1.832-.04-1.311 1.44-2.842 2.75-4.634 3.93-.651.39-1.271.17-1.662-.48-.26-.52-.61-1.05-.961-1.62-.44-.61-1.091-.66-1.621-.13l-1.702 1.7c-.39.39-.961.44-1.401.13a41.155 41.155 0 00-3.063-1.79c-.31-.17-.741-.17-1.051 0-2.312 1.18-5.245 2.01-8.919 2.62-.65.13-1.141-.22-1.311-.83-.22-.61-.48-1.27-.791-1.83-.52-1.09-.22-1.75 1.001-1.88 1.752-.22 3.234-.48 4.585-.83.31-.09.31-.22.04-.35l-.391-.17-.17.04-.09.04c-.09.04-.17.04-.26 0l-2.973-.66c-.961-.26-1.181-.92-.66-1.75l.17-.31c.66-1 .26-1.66-.921-1.66l-1.051.04c-.651 0-1.091-.44-1.141-1.05l-.04-2.1c-.04-.7.39-1.13 1.091-1.13 1.481 0 3.143 0 4.934-.04.351 0 .791-.26.961-.61.17-.35.04-.57-.35-.57h-3.974c-.65 0-1.091-.44-1.091-1.09v-5.98c0-.66.441-1.09 1.091-1.09h5.505c.311 0 .481-.17.481-.48 0-.31-.17-.48-.481-.48h-4.764c-.661 0-1.091-.44-1.091-1.09v-2.18c0-.66-.441-1.09-1.091-1.09h-.35c-.651 0-1.092-.44-1.092-1.09v-2.01c0-.66.441-1.09 1.092-1.09h.35c.65 0 1.091-.44 1.091-1.09v-2.1c0-.66.44-1.09 1.091-1.09h4.374c.521 0 .871-.35.871-.92 0-.52.35-.87.921-.87h3.323c.52 0 .871.35.871.87 0 .57.35.92.921.92h4.764c.661 0 1.091.44 1.091 1.09v2.1c0 .66.441 1.09 1.091 1.09h.441c.65 0 1.091.44 1.091 1.09v2.01c0 .66-.441 1.09-1.091 1.09h-.441c-.65 0-1.091.44-1.091 1.09v2.18c0 .66-.44 1.09-1.091 1.09h-5.205c-.31 0-.48.17-.48.48 0 .31.17.48.48.48h6.596c.261 0 .441.17.441.44s.09.26.17.04c1.972-4.11 3.143-9.43 3.804-14.98.09-.7.57-1.09 1.271-.96l3.543.48c.611.13 1.001.61.921 1.27-.22 1.44-.44 2.88-.741 4.32-.13.79.261 1.31 1.091 1.31h6.777c.66 0 1.091.44 1.091 1.09v3.41l.04.01zm15.344-2.49l-.13.39v28.25c0 .65-.44 1.09-1.091 1.09h-3.543c-.651 0-1.091-.44-1.091-1.09V49.75c0-1.22-.521-1.4-1.351-.48l-.261.31c-.7.74-1.401.57-1.831-.35a43.285 43.285 0 00-2.012-4.02c-.261-.48-.17-1.05.22-1.4 3.363-3.36 6.596-8.25 8.658-13.28.26-.57.791-.83 1.401-.66l3.494 1.18c.7.22.961.79.7 1.44-.92 2.1-1.921 4.24-3.103 6.33-.04.04-.04.13-.04.17l-.02.03zm28.547 27.12c0 .66-.44 1.09-1.091 1.09h-24.563c-.66 0-1.091-.44-1.091-1.09v-3.49c0-.66.441-1.09 1.091-1.09h11.451c.48 0 .921-.31 1.051-.79 1.221-4.63 2.452-10.83 2.973-16.07.09-.7.61-1.09 1.271-1l4.324.7c.651.09 1.001.61.921 1.27-.961 5.07-2.272 10.31-3.453 14.5-.26.83.13 1.4 1.051 1.4h4.984c.651 0 1.092.44 1.092 1.09v3.49l-.011-.01zm17.057-6.5c-.661.04-1.091-.39-1.181-1.05-.04-.26-.091-.57-.171-.92-.26-1.14-.57-1.09-.57.13v10c0 .66-.441 1.09-1.091 1.09h-2.793c-.66 0-1.091-.44-1.091-1.09V42.78c0-.31-.22-.52-.52-.52-.351 0-.571.22-.571.52v16.38c0 .66-.44 1.09-1.091 1.09h-2.142c-.651 0-1.091-.44-1.091-1.09V38.11c0-.66.44-1.09 1.091-1.09h3.233c.651 0 1.091-.44 1.091-1.09V30.6c0-.65.441-1.09 1.091-1.09h2.793c.65 0 1.091.44 1.091 1.09v5.33c0 .66.44 1.09 1.091 1.09h3.143c.66 0 1.091.44 1.091 1.09v16.38c0 1.75-.17 3.32-1.141 4.19-.701.66-1.402.87-2.272.96h.01zm25.924 5.37c-.74.92-1.531 2.01-2.142 2.97-.35.57-.921.79-1.481.44-1.972-1.14-3.584-2.66-4.895-4.46-.66-.92-1.001-.83-.871.31l.04.96c.04.61-.31 1.09-.87 1.18l-11.321 2.01c-.661.09-1.141-.22-1.271-.83l-.701-3.1c-.17-.7.22-1.22.921-1.31.44-.09.871-.13 1.311-.17.571-.09.961-.52.961-1.09v-8.25c0-.52-.35-.87-.871-.87-.57 0-.921-.35-.921-.92v-3.06c0-.52.391-.92.961-.92.521 0 .921-.39.921-.96V31.96c0-.66.44-1.09 1.091-1.09h16.826c.661 0 1.091.44 1.091 1.09v2.62c0 .66-.44 1.09-1.091 1.09h-11.761c-.35 0-.571.22-.571.57s.221.57.571.57h10.49c.66 0 1.091.44 1.091 1.09v2.18c0 .66-.441 1.09-1.091 1.09h-10.49c-.35 0-.571.22-.571.57s.221.57.571.57h10.49c.66 0 1.091.44 1.091 1.09v2.18c0 .66-.441 1.09-1.091 1.09h-10.45c-.35 0-.611.26-.611.61s.261.61.611.61h13.072c.651 0 1.091.44 1.091 1.09v2.71c0 .65-.44 1.09-1.091 1.09h-.44c-.961 0-1.141.44-.441 1.05l1.792 1.66c.571.48.521 1.14-.04 1.62-.961.79-1.972 1.57-2.973 2.27-.57.44-.66 1.09-.13 1.57.831.79 1.752 1.44 2.793 2.01.921.52 1.091 1.22.39 2.05h.01zm41.54-6.17c0 .67-.451 1.12-1.121 1.12h-4.094c-.671 0-1.121-.45-1.121-1.12v-.45c0-.67-.451-1.12-1.121-1.12h-17.187c-.58 0-.991.36-1.121.94-.851 4.18-2.522 8.45-5.665 11.64-.541.49-1.171.4-1.662-.09a33.831 33.831 0 00-2.832-2.61c-.761-.58-.811-1.3-.131-1.98 4.315-4.54 4.725-10.74 4.725-15.55l-.03-14.33c0-.9.58-1.3 1.441-1.08l1.532.4s.13.04.18.04h.63c3.424-.9 17.147-3.6 19.569-4.86l.15-.08c.401-.18.901-.13 1.261.18l2.062 2.83c.761.67.631 1.39-.27 1.8-3.243 1.3-16.295 3.85-19.769 4.66-.54.09-.901.44-.901.98 0 0 .02.14.181.14h24.193c.67 0 1.121.45 1.121 1.12v17.39l-.02.03zm21.55 3.42c-.611-.7-1.141-.61-1.141.35v5.15c0 .66-.441 1.09-1.091 1.09h-3.674c-.66 0-1.091-.44-1.091-1.09v-2.62c0-1.88-.74-2.14-2.012-.74-.48.52-.92 1-1.401 1.44-.52.44-1.141.35-1.571-.17-.611-.79-1.402-1.62-2.102-2.36-.611-.61-.611-1.31.13-1.88a26.744 26.744 0 004.674-4.76c.701-.92.351-1.62-.871-1.62h-2.662c-.661 0-1.091-.44-1.091-1.09v-2.84c0-.66.44-1.09 1.091-1.09h4.724c.651 0 1.091-.44 1.091-1.09v-.35c0-.65-.44-1.09-1.091-1.09h-4.854c-.651 0-1.091-.44-1.091-1.09V43.7c0-.66.44-1.09 1.091-1.09h1.001c.74 0 1.181-.48 1.001-1.22-.09-.48-.221-1-.391-1.49-.22-.61.04-1.13.741-1.31.651-.17.651-.26-.04-.26h-1.792c-.65 0-1.091-.44-1.091-1.09v-2.66c0-.66.441-1.09 1.091-1.09h4.324c.651 0 1.091-.44 1.091-1.09v-1.35c0-.66.441-1.09 1.091-1.09h3.674c.66 0 1.091.44 1.091 1.09v1.35c0 .66.44 1.09 1.091 1.09h4.324c.651 0 1.091.44 1.091 1.09v2.66c0 .65-.44 1.09-1.091 1.09h-1.351c-.571 0-.571.09 0 .17.52.09.74.48.48.96v.09c-.22.57-.44 1-.66 1.48-.441.96 0 1.57 1.001 1.57h.79c.661 0 1.091.44 1.091 1.09v2.71c0 .65-.44 1.09-1.091 1.09h-4.594c-.651 0-1.091.44-1.091 1.09v.35c0 .66.44 1.09 1.091 1.09h4.154c.65 0 1.091.44 1.091 1.09v2.84c0 .66-.441 1.09-1.091 1.09h-2.052c-1.922 0-2.142.74-.611 1.83l2.012 1.53c.571.44.661 1.05.22 1.57l-1.881 2.36c-.521.61-1.272.52-1.792-.09l.02.02zm24.874-14.72c0 .66-.441 1.09-1.091 1.09h-1.312c-.66 0-1.091.44-1.091 1.09v17.91c0 .66-.44 1.09-1.091 1.09h-3.673c-.661 0-1.091-.44-1.091-1.09V49.72c0-.66-.441-1.09-1.091-1.09h-.961c-.611 0-1.051.44-1.091 1.05-.22 5.63-1.271 12.97-5.335 18.12-.521.7-1.272.61-1.832-.04a17.705 17.705 0 00-2.272-2.14c-.661-.52-.791-1.22-.26-1.88 3.673-4.93 4.023-11.35 4.023-16.59V34.14c0-.87.571-1.27 1.402-1.05l1.481.39s.13.04.17.04h.611c3.323-.87 6.596-2.05 8.958-3.27h.09c.391-.17.871-.13 1.222.17l3.012 2.75c.741.66.611 1.35-.26 1.75-3.143 1.27-6.736 2.23-10.099 3.01-.521.09-.871.52-.871 1.05v2.97c0 .66.44 1.09 1.091 1.09h10.27c.65 0 1.091.44 1.091 1.09v3.41zm40.118 11.3c0 .67-.451 1.12-1.121 1.12h-4.094c-.671 0-1.121-.45-1.121-1.12v-.45c0-.67-.451-1.12-1.121-1.12H771.44c-.58 0-.991.36-1.121.94-.851 4.18-2.522 8.45-5.665 11.64-.541.49-1.171.4-1.662-.09a33.831 33.831 0 00-2.832-2.61c-.761-.58-.811-1.3-.131-1.98 4.315-4.54 4.725-10.74 4.725-15.55l-.03-14.33c0-.9.58-1.3 1.441-1.08l1.532.4s.13.04.18.04h.63c3.424-.9 17.147-3.6 19.569-4.86l.15-.08c.4-.18.901-.13 1.261.18l2.062 2.83c.761.67.631 1.39-.27 1.8-3.243 1.3-16.295 3.85-19.769 4.66-.54.09-.901.44-.901.98 0 0 .02.14.181.14h24.193c.67 0 1.121.45 1.121 1.12v17.39l-.02.03zm28.106-9.33a4.255 4.255 0 018.508 0c0 2.35-1.902 4.25-4.254 4.25a4.249 4.249 0 01-4.254-4.25z" fill="#F25252"/><path d="M554.816 58.59l-2.793.04c-.22 0-.44.13-.52.31l-.04.04c-.13.22-.04.39.17.48.831.31 1.662.66 2.492.96.261.09.571.04.741-.17.17-.22.35-.44.481-.7.39-.57.13-.96-.521-.96h-.01zm12.372-6.12c-.171-.65-.481-.7-.871-.09l-.13.17c-.311.48-.741.44-1.051.04l-.961-1.14c-.571-.61-.961-.44-.961.39v.74c0 .39-.26.65-.661.65h-8.128c-.17 0-.17.04 0 .04.171.04.221.17.131.31l-.131.26c-.17.31-.04.52.311.52 3.143-.04 6.386-.13 9.569-.17.44 0 .701.26.65.7l-.09 2.84c-.04.35-.31.61-.65.61l-2.493.09c-.31 0-.52.17-.61.48-.391 1.14-.831 2.18-1.442 3.1-.26.39-.17.79.261 1 .61.31 1.221.66 1.791.96.171.09.441.13.611 0 2.753-1.48 4.855-3.41 6.466-5.76.09-.17.13-.44.04-.61-.65-1.62-1.181-3.32-1.661-5.15l.01.02zm5.544-9.87h-1.442c-.48.04-.7.35-.66.79.26 1.62.57 3.23.921 4.76.31 1.44.83 1.44 1.091 0 .31-1.53.57-3.14.74-4.85.04-.44-.22-.74-.66-.7h.01z" fill="#F25252"/><path d="M846.432 39.36L826.953 16.4c-4.674-5.51-13.172-8.93-22.171-8.93H252.779c-8.498 0-16.455 2.98-21.31 7.98l-22.261 22.96c-6.216 6.41-6.216 15.01 0 21.42l22.261 22.96c4.845 5 12.812 7.98 21.31 7.98h551.993c8.999 0 17.497-3.42 22.171-8.93l19.479-22.96c5.105-6.02 5.105-13.5 0-19.52h.01zm-41.66 49.41H252.779c-7.967 0-15.394-2.75-19.869-7.37l-22.261-22.96c-5.495-5.66-5.495-12.98 0-18.64l22.261-22.96c4.475-4.61 11.902-7.37 19.869-7.37h551.993c8.428 0 16.336 3.15 20.64 8.22l19.478 22.96c4.435 5.22 4.435 11.71 0 16.93l-19.478 22.96c-4.304 5.07-12.212 8.22-20.64 8.22v.01z" fill="#FBD5A2"/><path d="M228.406 45.27a4.255 4.255 0 00-4.254 4.25c0 2.35 1.902 4.25 4.254 4.25 2.353 0 4.254-1.9 4.254-4.25s-1.901-4.25-4.254-4.25zm600.038 8.49c2.343 0 4.254-1.9 4.254-4.25s-1.901-4.25-4.254-4.25a4.249 4.249 0 00-4.254 4.25c0 2.35 1.902 4.25 4.254 4.25z" fill="#FBD5A2"/><path d="M292.286 31.38h-23.172c-.65 0-1.091.44-1.091 1.09v35.29c0 .66.441 1.09 1.091 1.09h3.324c.65 0 1.091-.44 1.091-1.09v-.22c0-.65.44-1.09 1.091-1.09h12.021c.611 0 1.001.39 1.001 1.05 0 .61.39 1 1.051 1h3.583c.661 0 1.091-.44 1.091-1.09V32.47c0-.66-.44-1.09-1.091-1.09h.01zm-4.634 29.22c0 .39-.26.66-.661.66h-12.812c-.39 0-.66-.26-.66-.66V37.24c0-.39.26-.66.66-.66h12.812c.391 0 .661.26.661.66V60.6zm-20.809-29.66l-3.363-1.05c-.611-.17-1.181.13-1.401.74-1.702 5.11-4.374 10.09-7.297 13.54-.31.39-.351.87-.13 1.31.61 1.22 1.351 3.01 1.831 4.41.351.92 1.001 1.05 1.622.31.611-.79.961-.66.961.31v17.34c0 .66.44 1.09 1.091 1.09h3.543c.661 0 1.091-.44 1.091-1.09V39.33l.09-.35s0-.13.04-.17c1.051-2.1 1.882-4.37 2.623-6.46.26-.61-.04-1.18-.701-1.4v-.01z" fill="#fff"/><path d="M285.861 41.16h-2.052c-.651 0-1.091-.44-1.091-1.09v-1.83c0-.66-.44-1.09-1.091-1.09h-2.402c-.651 0-1.091.44-1.091 1.09v1.83c0 .66-.441 1.09-1.091 1.09h-1.702c-.651 0-1.091.44-1.091 1.09v2.1c0 .66.44 1.09 1.091 1.09h1.702c.65 0 1.091.44 1.091 1.09v.87c0 .66-.441 1.09-1.091 1.09h-1.001c-.651 0-1.091.44-1.091 1.09v9.04c0 .66.44 1.09 1.091 1.09h9.178c.661 0 1.091-.44 1.091-1.09v-9.04c0-.66-.44-1.09-1.091-1.09h-1.401c-.651 0-1.091-.44-1.091-1.09v-.87c0-.66.44-1.09 1.091-1.09h2.052c.651 0 1.091-.44 1.091-1.09v-2.1c0-.66-.44-1.09-1.091-1.09h-.01zm-4.024 13.89c0 .39-.26.66-.66.66h-1.352c-.39 0-.66-.26-.66-.66v-1.83c0-.39.26-.66.66-.66h1.352c.39 0 .66.26.66.66v1.83zm55.392 7.51c-13.853-7.69-15.825-23.67-16.125-29.48v-.09l.09-1.53c0-.7-.39-1.14-1.091-1.14h-4.804c-.661 0-1.091.39-1.091 1.05-.221 6.2-.261 22.18-14.384 31.4-.871.57-.921 1.31-.09 1.96 1.221.96 2.312 2.01 3.103 3.01.44.48 1.001.61 1.531.22 6.336-4.41 10.27-10.13 12.672-15.9.741-1.79 1.532-1.79 2.272-.04 2.583 6.07 6.867 12.1 13.944 16.03.52.31 1.141.09 1.481-.44.701-1 1.622-2.1 2.713-3.06.79-.74.74-1.49-.221-2.01v.02zm42.58-31.35h-20.63c-.661 0-1.091.44-1.091 1.09v12.58c0 1.4-.35 1.49-.961.22-.22-.44-.39-.83-.61-1.22-.311-.52-.831-.7-1.402-.48l-.74.31c-1.051.44-1.272.17-.611-.74 1.221-1.7 2.452-3.45 3.583-5.15.441-.61.221-1.27-.48-1.57l-2.713-1.22c-.57-.26-1.141-.04-1.441.52-.741 1.48-1.662 3.1-2.623 4.72-.17.35-.44.35-.7.09v-.09a.78.78 0 01-.04-.96c1.181-1.96 2.492-4.45 3.763-6.81.351-.7.09-1.31-.61-1.57l-2.933-1c-.611-.22-1.181.09-1.401.7-.571 1.7-1.352 3.62-2.102 5.33-.13.31-.351.35-.521.13h-.09c-.22-.22-.48-.17-.651.09l-2.102 2.93c-.31.44-.26 1 .091 1.4a48.507 48.507 0 013.543 4.41c.22.35.22.79-.04 1.18l-.04.09-.651.92c-.17.22-.48.39-.74.44h-.091l-1.401.09c-.701 0-1.141.52-1.051 1.18l.35 2.97c.091.61.571 1 1.182.96l3.193-.31c.7-.04 1.181.39 1.181 1.09v.26c0 .79-.521 1.22-1.271 1.09l-2.233-.35c-.7-.13-1.221.26-1.271 1-.22 2.62-.65 5.28-1.351 7.29-.22.66 0 1.22.61 1.48.701.31 1.482.66 2.183 1 .7.35 1.351.17 1.571-.61.35-1.05.661-2.23.961-3.49.611-2.93.791-2.93.791.09v6.55c0 .66.44 1.09 1.091 1.09h2.973c.66 0 1.091-.44 1.091-1.09v-8.21c0-2.01.48-2.1.92-.13.131.66.311 1.35.391 1.97.13.79.701 1.18 1.481.92l.481-.17c.871-.31 1.441.13 1.441 1.05v4.67c0 .66.44 1.09 1.091 1.09h3.193c.651 0 1.091-.44 1.091-1.09V37.5c0-.66.441-1.09 1.091-1.09h9.84c.65 0 1.091.44 1.091 1.09v25.72c0 .57-.221.79-.791.83h-2.142c-1.181-.04-1.572.57-1.181 1.66.26.79.52 1.62.65 2.31.13.57.571.96 1.141.96 2.533-.04 4.375-.22 5.766-.96 1.531-.87 1.972-2.18 1.972-4.76V32.34c0-.65-.441-1.09-1.091-1.09v-.04zm-27.797 15.81h-.22c-.701.04-.871-.26-.48-.83.09-.09.13-.13.17-.22.39-.48.791-.44 1.051.09 0 .04.04.04.04.09.22.48 0 .83-.571.87h.01zm6.076 8.16c0 .74-.13.79-.39.09l-.261-.61c-.13-.35-.44-.48-.79-.39l-2.403.79c-.52.17-.87-.09-.87-.66v-1.88c0-.39.22-.66.57-.66l.13-.04c.351 0 .611.17.701.48.09.31.17.57.22.83.13.52.481.74.961.52l1.221-.57c.571-.22.921 0 .921.61v1.48l-.01.01z" fill="#fff"/><path d="M374.044 62.74c.481-.09.701-.52.661-1-.09-.83-.17-1.92-.22-2.84-.04-.61-.481-.87-1.051-.83-.391.04-.741.09-1.051.09h-1.622c-.39 0-.48-.31-.48-1.27v-1.35c0-.66.44-1.09 1.091-1.09h2.232c.65 0 1.091-.44 1.091-1.09v-2.27c0-.65-.441-1.09-1.091-1.09h-.521c-.66 0-1.091-.44-1.091-1.09v-.48c0-.66.441-1.09 1.091-1.09h.521c.65 0 1.091-.44 1.091-1.09v-2.66c0-.39-.26-.66-.661-.66-.44 0-.61-.26-.44-.61.39-.92.79-1.96 1.271-3.06.35-.7.04-1.31-.701-1.53l-2.012-.52c-.74-.22-1.271.17-1.401.92-.22 1.09-.48 2.27-.791 3.32-.13.52.09 1 .611 1.18.52.17.52.31-.04.31h-2.453c-.7 0-.74-.17-.09-.39l.261-.09c.48-.17.79-.66.7-1.18-.22-1-.57-2.23-.961-3.32-.22-.52-.74-.74-1.311-.57l-1.531.52c-.611.22-.871.79-.701 1.4.31 1 .611 2.14.741 3.1.04.31-.13.52-.441.52-.35 0-.57.22-.57.52v2.79c0 .65.44 1.09 1.091 1.09h.57c.661 0 1.091.44 1.091 1.09v.48c0 .65-.44 1.09-1.091 1.09h-.57c-.661 0-1.091.44-1.091 1.09v2.79c0 .35.22.57.57.57.311 0 .521.22.521.52v1.88c0 4.41.961 6.03 5.505 6.03h1.622c.57 0 1.141 0 1.621-.13h.03zm50.538-13.63c-1.972-.66-3.714-1.57-5.285-2.58-.611-.39-.661-1-.261-1.57 1.922-2.66 3.494-5.81 4.545-9.39.17-.57-.09-1.05-.611-1.27l-2.622-1.13c-.171-.09-.441-.09-.651-.04l-.571.09-.22.04h-3.193c-.74 0-1.091-.52-.831-1.27.261-.7-.04-1.27-.74-1.44l-3.544-.83c-.61-.17-1.141.13-1.311.74-1.051 3.06-2.622 5.98-4.504 8.38-1.001 1.22-1.752.92-1.752-.66v-6.16c0-.66-.44-1.09-1.091-1.09h-12.722c-.661 0-1.091.44-1.091 1.09V44.2c0 .65.44 1.09 1.091 1.09h3.583c.651 0 1.092.44 1.092 1.09v13.23c0 .39-.261.74-.701.83-.441.09-.701-.17-.701-.57V48.78c0-.66-.44-1.09-1.091-1.09h-2.662c-.661 0-1.091.44-1.091 1.09v11.88c0 .48-.351.87-.831.96-.481.13-.791.52-.701 1l.651 3.8c.13.7.66 1.05 1.351.87 4.504-1.05 10.05-2.31 15.345-3.58.52-.13.87-.61.83-1.18l-.35-3.14c-.09-.74-.611-1.09-1.311-.96-.701.17-1.402.31-2.052.44-.831.17-1.351-.26-1.351-1.05v-2.01c0-.66.44-1.09 1.091-1.09h2.012c.65 0 1.091-.52 1.091-1.18 0-.74.31-.87.74-.31.481.61.871 1.31 1.181 1.83.04 0 .04.09.04.09l.131.39s.04.13.04.17v11.92c0 .65.44 1.09 1.091 1.09h3.803c.391 0 .661-.26.661-.66s.26-.66.65-.66h5.075c.351 0 .611.26.611.61s.26.61.61.61h4.064c.661 0 1.091-.44 1.091-1.09V53.99c0-.17.09-.39.17-.57.481-.79 1.142-1.62 1.752-2.4.701-.87.481-1.57-.57-1.96l.02.05zm-27.106-9.56c0 .39-.26.65-.651.65h-2.842c-.391 0-.651-.26-.651-.65v-2.84c0-.39.26-.66.651-.66h2.842c.391 0 .651.26.651.66v2.84zm12.592 6.77a24.92 24.92 0 01-6.246 3.93c-.22.09-.39 0-.39-.26s-.171-.44-.441-.44h-3.103c-.39 0-.65-.26-.65-.65v-2.93c0-.39.26-.65.65-.65h2.493c.39 0 .66-.26.66-.66v-1.53c0-.79.441-1 1.051-.48.871.7 1.792 1.53 2.493 2.18.31.26.66.26.96-.04.221-.22.391-.48.611-.74.39-.39.791-.39 1.091.09l.921 1.31c.22.31.22.66-.09.87h-.01zm1.882-7.78c.09-.13.26-.22.44-.22h2.973c.61 0 .871.39.57.92-.39.74-.83 1.44-1.311 2.14-.26.44-.7.44-1.001.04-.66-.79-1.181-1.57-1.701-2.36a.454.454 0 01.04-.52h-.01zm5.505 23.1c0 .39-.26.66-.651.66h-5.025c-.39 0-.65-.26-.65-.66v-2.79c0-.39.26-.65.65-.65h5.025c.391 0 .651.26.651.65v2.79zm-.961-8.47h-4.154c-1.441 0-1.571-.48-.39-1.27.7-.52 1.401-1 2.052-1.57.26-.22.61-.22.87 0 .611.52 1.272 1 1.972 1.49 1.312.87 1.181 1.35-.35 1.35zm51.89 10.05c-1.531-.92-2.792-2.14-3.803-3.54-.441-.57-.261-1.18.31-1.53 1.091-.7 2.272-1.44 3.363-2.23.611-.44.701-1.09.13-1.66l-2.312-2.4c-.48-.48-1.091-.44-1.571 0-.481.44-.961.87-1.482 1.31-.741.57-1.401.39-1.661-.52l-.261-1c-.22-.79.221-1.31 1.001-1.31h4.455c.66 0 1.091-.44 1.091-1.09V32.04c0-.66-.441-1.09-1.091-1.09h-17.097c-.66 0-1.091.44-1.091 1.09v1.57c0 1.62-.65 1.83-1.751.7-1.482-1.62-3.323-3.27-4.855-4.5l-.09-.09a1.18 1.18 0 00-.651-.22h-3.713c-.391 0-.831.26-1.001.66a26.78 26.78 0 01-6.036 8.21c-.66.57-.66 1.27-.04 1.83.831.83 1.792 1.92 2.402 2.79 0 .04.04.13.09.17l.091.39s.04.13.04.17v.31c0 .44.31.74.74.74h1.792c.661 0 1.091.48 1.091 1.14 0 .66-.44 1.18-1.091 1.18h-3.063c-.661 0-1.091.44-1.091 1.09v2.84c0 .66.44 1.09 1.091 1.09h3.063c.661 0 1.091.44 1.091 1.09v2.84c0 1.79-.17 1.79-.611.09-.13-.66-.31-1.27-.44-1.88-.17-.61-.701-.92-1.311-.74l-1.792.48c-.61.13-.921.7-.791 1.31.351 1.49.701 3.14.921 4.59.09.79.651 1.18 1.442.96l1.621-.48c.571-.17.961.13.961.7s-.39 1.05-.961 1.14l-3.803.52c-.701.09-1.091.61-.921 1.31l.7 3.19c.13.61.611.96 1.221.83 3.714-.57 8.218-1.27 12.542-2.05.611-.09 1.091.22 1.272.79l.17.66c.17.61.66.92 1.271.79 3.143-.7 6.776-1.53 10.23-2.36.52-.13.87-.61.83-1.18l-.17-1.35c-.17-1.4.13-1.44.831-.26 1.401 2.18 3.143 3.97 5.375 5.37.571.35 1.181.17 1.532-.39.57-.92 1.351-1.96 2.142-2.84.65-.79.52-1.48-.351-2.01v-.01zm-31.119-24.5c.791-1 1.481-1.96 2.142-2.93.26-.39.66-.44 1.001-.09.921.96 1.791 2.05 2.582 3.1.441.57.22 1-.52 1h-4.675c-.871 0-1.051-.44-.52-1.09l-.01.01zm11.1 22.79c0 .35-.22.61-.52.66h-.09c-.391.09-.661-.13-.701-.52v-.35c-.04-.39-.35-.66-.741-.61l-3.893.57c-.441.09-.741-.17-.741-.61v-.13c0-.52.35-.79.831-.66l2.012.57c.35.13.65-.04.79-.39.521-1.44 1.142-3.45 1.792-5.37.13-.44-.04-.79-.48-.87l-3.063-.7c-.391-.09-.741.13-.791.57-.13.74-.26 1.62-.39 2.49-.351 1.88-.701 1.83-.701-.09v-3.28c0-.39.26-.65.661-.65h3.763c.391 0 .661-.26.661-.66v-3.71c0-.39-.26-.66-.661-.66h-3.763c-.391 0-.661-.26-.661-.66v-1c0-.39.26-.66.661-.66h2.972c.391 0 .661-.26.661-.66v-3.97c0-.13.04-.31.17-.39l1.091-1.31c.651-.79 1.141-.66 1.141.44v22.62l-.01-.01zm5.636-24.63c0-.39.26-.66.66-.66h6.597c.39 0 .66.26.66.66v.57c0 .39-.26.66-.66.66h-6.597c-.39 0-.66-.26-.66-.66v-.57zm3.373 23.45c-.871.13-1.752.35-2.583.48-.48.13-.79-.13-.79-.61v-9.21c0-.39.26-.66.66-.66h.17c.351 0 .611.22.651.52.611 3.14 1.351 5.98 2.402 8.56.171.44 0 .79-.52.92h.01zm-2.713-15.28c-.39 0-.66-.26-.66-.66v-.61c0-.39.26-.65.66-.65h6.597c.39 0 .66.26.66.65v.61c0 .39-.26.66-.66.66h-6.597zm55.872-13.28h-18.057a1.09 1.09 0 00-1.091 1.09v3.54c0 .602.488 1.09 1.091 1.09h18.057a1.09 1.09 0 001.091-1.09v-3.54a1.09 1.09 0 00-1.091-1.09zm-21.64 8.56l-3.624-1.35c-.52-.22-1.051-.04-1.351.44-2.493 4.06-6.246 8.08-9.88 10.87-.57.44-.65 1.09-.17 1.7.831 1 1.832 2.27 2.533 3.27.44.61 1.091.7 1.621.22l.391-.31.09-.09c.7-.7 1.221-.48 1.221.57v12.14c0 .66.44 1.09 1.091 1.09h3.894c.66 0 1.091-.44 1.091-1.09V47.48c0-.26.09-.52.22-.7 1.271-1.57 2.402-3.23 3.453-4.89.39-.65.17-1.27-.57-1.57l-.01.01zm22.691 2.97h-20.849c-.661 0-1.091.44-1.091 1.09v3.54c0 .65.44 1.09 1.091 1.09h9.218c.651 0 1.091.44 1.091 1.09v11.88c0 .57-.26.74-1.001.74-.52 0-2.102 0-3.673-.04-1.091-.04-1.532.57-1.181 1.62.39 1.14.741 2.4.961 3.49.09.57.52.96 1.141.96 3.063 0 5.505-.13 7.297-.96 2.102-.92 2.622-2.58 2.622-5.68V50.11c0-.66.441-1.09 1.091-1.09h3.283c.661 0 1.091-.44 1.091-1.09v-3.54c0-.65-.44-1.09-1.091-1.09zm-35.412-1.09c.39.61 1.001.79 1.571.35 3.493-2.53 7.167-6.07 10.05-9.52.52-.7.35-1.35-.441-1.7l-3.673-1.49a1.127 1.127 0 00-1.352.35c-1.831 2.45-4.944 5.37-7.827 7.38-.611.44-.701 1.09-.26 1.7.65.92 1.351 2.01 1.922 2.93h.01zm55.041-6.92h-1.892c-.38 0-.701.26-.771.64l-6.346 28.64c-.13.58.161.96.771.96h1.892c.38 0 .701-.26.771-.64l6.346-28.64c.13-.58-.16-.96-.771-.96zm48.826 1.72h-6.776c-.831 0-1.221-.52-1.091-1.31.31-1.44.52-2.88.741-4.32.09-.66-.311-1.13-.921-1.27l-3.544-.48c-.7-.13-1.181.26-1.271.96-.66 5.55-1.831 10.87-3.803 14.98-.09.22-.17.22-.17-.04s-.171-.44-.441-.44h-6.596c-.31 0-.481-.17-.481-.48 0-.31.171-.48.481-.48h5.205c.66 0 1.091-.44 1.091-1.09v-2.18c0-.66.44-1.09 1.091-1.09h.44c.651 0 1.091-.44 1.091-1.09v-2.01c0-.66-.44-1.09-1.091-1.09h-.44c-.651 0-1.091-.44-1.091-1.09v-2.1c0-.66-.441-1.09-1.091-1.09h-4.765c-.57 0-.921-.35-.921-.92 0-.52-.35-.87-.87-.87h-3.324c-.57 0-.92.35-.92.87 0 .57-.351.92-.871.92h-4.374c-.661 0-1.091.44-1.091 1.09v2.1c0 .66-.441 1.09-1.092 1.09h-.35c-.65 0-1.091.44-1.091 1.09v2.01c0 .66.441 1.09 1.091 1.09h.35c.651 0 1.092.44 1.092 1.09v2.18c0 .66.44 1.09 1.091 1.09h4.764c.31 0 .481.17.481.48 0 .31-.171.48-.481.48h-5.505c-.651 0-1.091.44-1.091 1.09v5.98c0 .66.44 1.09 1.091 1.09h3.974c.39 0 .52.22.35.57-.17.35-.611.61-.961.61-1.792.04-3.453.04-4.935.04-.7 0-1.141.44-1.091 1.13l.04 2.1c.04.61.481 1.05 1.141 1.05l1.051-.04c1.182 0 1.572.66.921 1.66l-.17.31c-.52.83-.31 1.48.661 1.75l2.973.66c.09.04.17.04.26 0l.09-.04.17-.04.39.17c.261.13.261.26-.04.35-1.351.35-2.842.61-4.584.83-1.221.13-1.531.79-1.001 1.88.31.57.571 1.22.791 1.83.17.61.661.96 1.311.83 3.674-.61 6.596-1.44 8.919-2.62.31-.17.74-.17 1.051 0 1.141.61 2.182 1.22 3.062 1.79.441.31 1.001.26 1.402-.13l1.701-1.7c.521-.52 1.182-.48 1.622.13.35.57.701 1.09.961 1.62.39.65 1.001.87 1.661.48 1.792-1.18 3.324-2.49 4.635-3.93.61-.66 1.271-.61 1.832.04a19.557 19.557 0 003.803 3.8c.571.39 1.181.26 1.572-.35.61-.87 1.441-1.88 2.182-2.71.61-.7.57-1.4-.17-1.92-1.832-1.31-3.364-3.01-4.595-4.98-.17-.26-.22-.66-.04-.96v-.09c1.752-3.89 2.793-8.47 3.413-13.84.091-.57.571-.96 1.141-.96.611 0 1.092-.44 1.092-1.05v-3.41c0-.66-.441-1.09-1.092-1.09l-.04-.01zm-23.822-2.09h.57c.261 0 .481.22.481.48 0 .31-.22.52-.481.52h-.57a.5.5 0 01-.521-.52c0-.26.221-.48.521-.48zm0 4.54h.57c.261 0 .481.22.481.48 0 .31-.22.52-.481.52h-.57a.5.5 0 01-.521-.52c0-.26.221-.48.521-.48zm-6.206 10.31h-1.051c-.35 0-.571-.22-.571-.57s.221-.57.571-.57h1.051c.35 0 .571.22.571.57s-.221.57-.571.57zm.08-9.31h-.44a.499.499 0 01-.521-.52c0-.26.22-.48.521-.48h.44c.26 0 .481.22.481.48 0 .31-.221.52-.481.52zm0-4.54h-.44a.499.499 0 01-.521-.52c0-.26.22-.48.521-.48h.44c.26 0 .481.22.481.48 0 .31-.221.52-.481.52zm6.166 12.71h1.181c.35 0 .571.22.571.57s-.221.57-.571.57h-1.181c-.35 0-.571-.22-.571-.57s.221-.57.571-.57zm-.921 10.92c-.13.26-.31.48-.48.7-.171.22-.481.26-.741.17-.831-.31-1.662-.66-2.492-.96-.221-.09-.311-.26-.171-.48l.04-.04a.63.63 0 01.521-.31l2.793-.04c.65 0 .92.39.52.96h.01zm13.463-1.31c-1.622 2.36-3.714 4.28-6.466 5.76-.17.13-.441.09-.611 0-.57-.31-1.181-.66-1.792-.96-.44-.22-.52-.61-.26-1 .611-.92 1.051-1.96 1.442-3.1.09-.31.31-.48.61-.48l2.492-.09c.351 0 .611-.26.651-.61l.09-2.84c.04-.44-.22-.7-.65-.7-3.193.04-6.427.13-9.57.17-.35 0-.48-.22-.31-.52l.13-.26c.09-.13.04-.26-.13-.31-.17 0-.17-.04 0-.04h8.128c.39 0 .661-.26.661-.65v-.74c0-.83.39-1 .96-.39l.961 1.14c.311.39.741.44 1.051-.04l.13-.17c.391-.61.701-.57.871.09.481 1.83 1.001 3.54 1.662 5.15.09.17.04.44-.04.61l-.01-.02zm3.853-10.09c-.26 1.44-.79 1.44-1.091 0-.35-1.53-.65-3.14-.92-4.76-.04-.44.17-.74.66-.79h1.442c.44-.04.7.26.66.7-.17 1.7-.44 3.32-.741 4.85h-.01zm51.279 13.41h-4.985c-.921 0-1.311-.57-1.051-1.4 1.181-4.19 2.493-9.43 3.453-14.5.091-.65-.26-1.18-.92-1.27l-4.325-.7c-.66-.09-1.181.31-1.271 1-.52 5.24-1.751 11.44-2.973 16.07-.13.48-.57.79-1.051.79h-11.45c-.661 0-1.091.44-1.091 1.09v3.49c0 .66.44 1.09 1.091 1.09h24.563c.651 0 1.091-.44 1.091-1.09v-3.49c0-.66-.44-1.09-1.091-1.09l.01.01zm-25.004-30.49l-3.494-1.18c-.61-.17-1.141.09-1.401.66-2.052 5.02-5.285 9.91-8.658 13.28-.391.35-.481.92-.22 1.4.65 1.14 1.441 2.71 2.011 4.02.441.92 1.142 1.09 1.832.35l.26-.31c.831-.92 1.352-.74 1.352.48v17.91c0 .65.44 1.09 1.091 1.09h3.543c.651 0 1.091-.44 1.091-1.09V39.43l.13-.39s0-.13.04-.17c1.181-2.1 2.182-4.24 3.103-6.33.26-.66 0-1.22-.7-1.44l.02-.03z" fill="#fff"/><path d="M606.054 43.91l-3.323.57c-.66.09-1.051.61-.871 1.31.961 4.5 1.702 9.78 1.922 13.54.04.79.571 1.22 1.311 1.05l3.714-.79c.57-.09.921-.52.871-1.09-.26-3.8-1.271-9.26-2.363-13.8-.17-.57-.66-.87-1.271-.79h.01zm-7.036-6.2v3.49c0 .66.44 1.09 1.091 1.09h23.081c.661 0 1.092-.44 1.092-1.09v-3.49c0-.66-.441-1.09-1.092-1.09h-7.737c-.66 0-1.091-.44-1.091-1.09v-4.37c0-.66-.44-1.09-1.091-1.09h-3.934c-.66 0-1.091.44-1.091 1.09v4.37c0 .65-.44 1.09-1.091 1.09h-7.036c-.651 0-1.091.44-1.091 1.09h-.01zm68.585 25.24a12.91 12.91 0 01-2.793-2.01c-.52-.48-.44-1.14.13-1.57 1.001-.7 2.012-1.48 2.973-2.27.571-.48.611-1.14.04-1.62l-1.792-1.66c-.7-.61-.52-1.05.441-1.05h.44c.651 0 1.091-.44 1.091-1.09v-2.71c0-.66-.44-1.09-1.091-1.09H653.97a.594.594 0 01-.611-.61c0-.35.26-.61.611-.61h10.45c.66 0 1.091-.44 1.091-1.09v-2.18c0-.66-.441-1.09-1.091-1.09h-10.49c-.351 0-.571-.22-.571-.57s.22-.57.571-.57h10.49c.66 0 1.091-.44 1.091-1.09v-2.18c0-.65-.441-1.09-1.091-1.09h-10.49c-.351 0-.571-.22-.571-.57s.22-.57.571-.57h11.761c.661 0 1.091-.44 1.091-1.09v-2.62c0-.66-.44-1.09-1.091-1.09h-16.826c-.661 0-1.091.44-1.091 1.09v14.98c0 .57-.39.96-.921.96-.57 0-.961.39-.961.92v3.06c0 .57.351.92.921.92.521 0 .871.35.871.87v8.25c0 .57-.391 1-.961 1.09-.44.04-.871.09-1.311.17-.701.09-1.091.61-.921 1.31l.7 3.1c.131.61.611.92 1.272.83l11.32-2.01c.571-.09.921-.57.871-1.18l-.04-.96c-.13-1.13.22-1.22.871-.31 1.311 1.79 2.933 3.32 4.895 4.46.57.35 1.141.13 1.481-.44.611-.96 1.401-2.05 2.142-2.97.701-.83.521-1.53-.39-2.05h-.01zm-10.57-1.44l-3.013.44c-.441.09-.741-.17-.741-.61v-7.9c0-.39.26-.66.661-.66h.65c.311 0 .571.22.661.52.571 2.66 1.311 5.11 2.272 7.25.22.52.04.87-.48.96h-.01zm6.816-7.64l-1.792 1.62c-.39.31-.79.22-1-.26-.211-.48-.391-1.05-.571-1.57-.17-.52.04-.87.611-.87h2.312c.921 0 1.091.44.44 1.09v-.01z" fill="#fff"/><path d="M645.491 38.11c0-.66-.44-1.09-1.091-1.09h-3.143c-.66 0-1.091-.44-1.091-1.09V30.6c0-.65-.44-1.09-1.091-1.09h-2.792c-.661 0-1.091.44-1.091 1.09v5.33c0 .66-.441 1.09-1.092 1.09h-3.233c-.65 0-1.091.44-1.091 1.09v21.05c0 .66.441 1.09 1.091 1.09h2.142c.651 0 1.091-.44 1.091-1.09V42.78c0-.31.221-.52.571-.52a.5.5 0 01.521.52V67.8c0 .66.44 1.09 1.091 1.09h2.792c.651 0 1.091-.44 1.091-1.09v-10c0-1.22.311-1.27.571-.13.09.35.13.66.17.92.09.66.52 1.09 1.181 1.05.871-.09 1.572-.31 2.272-.96.961-.87 1.141-2.45 1.141-4.19V38.11h-.01zm-4.204 16.2c0 .31-.09.39-.31.39h-.39c-.261 0-.441-.17-.441-.44V42.82c0-.35.22-.57.571-.57.35 0 .57.22.57.57v11.49zm113.587-11.27h-10.269c-.661 0-1.091-.44-1.091-1.09v-2.97c0-.52.35-.96.87-1.05 3.364-.79 6.947-1.75 10.1-3.01.871-.39 1.001-1.09.26-1.75l-3.013-2.75c-.35-.31-.831-.35-1.221-.17h-.09c-2.362 1.22-5.635 2.4-8.958 3.27h-.611s-.13 0-.17-.04l-1.482-.39c-.83-.22-1.401.17-1.401 1.05v13.01c0 5.24-.35 11.66-4.024 16.59-.52.66-.39 1.35.261 1.88.79.61 1.621 1.4 2.272 2.14.57.66 1.311.74 1.831.04 4.064-5.15 5.115-12.49 5.335-18.12.041-.61.481-1.05 1.091-1.05h.961c.661 0 1.091.44 1.091 1.09v17.91c0 .66.441 1.09 1.091 1.09h3.674c.651 0 1.091-.44 1.091-1.09V49.72c0-.66.44-1.09 1.091-1.09h1.311c.651 0 1.091-.44 1.091-1.09v-3.41c0-.66-.44-1.09-1.091-1.09z" fill="#fff"/><path d="M734.545 58.41l-2.011-1.53c-1.532-1.09-1.312-1.83.61-1.83h2.052c.651 0 1.091-.44 1.091-1.09v-2.84c0-.66-.44-1.09-1.091-1.09h-4.154c-.651 0-1.091-.44-1.091-1.09v-.35c0-.65.44-1.09 1.091-1.09h4.594c.661 0 1.092-.44 1.092-1.09V43.7c0-.66-.441-1.09-1.092-1.09h-.79c-1.001 0-1.442-.61-1.001-1.57.22-.48.44-.92.66-1.48v-.09c.261-.48.04-.87-.48-.96-.571-.09-.571-.17 0-.17h1.351c.651 0 1.091-.44 1.091-1.09v-2.66c0-.66-.44-1.09-1.091-1.09h-4.324c-.651 0-1.091-.44-1.091-1.09v-1.35c0-.66-.44-1.09-1.091-1.09h-3.673c-.661 0-1.092.44-1.092 1.09v1.35c0 .66-.44 1.09-1.091 1.09h-4.324c-.65 0-1.091.44-1.091 1.09v2.66c0 .65.441 1.09 1.091 1.09h1.792c.701 0 .701.09.04.26-.701.17-.961.7-.741 1.31.171.48.311 1 .391 1.49.17.74-.26 1.22-1.001 1.22h-1.001c-.651 0-1.091.44-1.091 1.09v2.71c0 .65.44 1.09 1.091 1.09h4.855c.65 0 1.091.44 1.091 1.09v.35c0 .66-.441 1.09-1.091 1.09H718.3c-.661 0-1.091.44-1.091 1.09v2.84c0 .66.44 1.09 1.091 1.09h2.663c1.221 0 1.571.7.87 1.62a27.44 27.44 0 01-4.674 4.76c-.741.57-.741 1.27-.13 1.88.7.74 1.481 1.57 2.102 2.36.44.52 1.051.61 1.571.17.481-.44.921-.92 1.402-1.44 1.271-1.4 2.012-1.14 2.012.74v2.62c0 .66.44 1.09 1.091 1.09h3.673c.661 0 1.091-.44 1.091-1.09v-5.15c0-.96.521-1.05 1.141-.35.521.61 1.271.7 1.792.09l1.882-2.36c.44-.52.35-1.14-.221-1.57l-.02-.02zm-5.154-15.81h-4.895c-.571 0-.611-.09-.04-.26l.35-.09c.351-.09.521-.35.481-.7-.131-.7-.391-1.53-.661-2.31-.17-.57.04-.92.611-.92h3.323c.48 0 .74.31.61.79-.22.79-.48 1.57-.74 2.32-.171.39.04.74.48.83l.521.09c.74.17.7.26-.04.26v-.01zm-20.97-2.28h-24.193c-.15 0-.18-.14-.18-.14 0-.54.37-.89.901-.98 3.463-.81 16.525-3.36 19.768-4.66.901-.4 1.031-1.12.271-1.8l-2.062-2.83a1.193 1.193 0 00-1.262-.18l-.15.08c-2.432 1.26-16.155 3.96-19.568 4.86h-.631s-.13 0-.18-.04l-1.531-.4c-.851-.23-1.442.18-1.442 1.08l.03 14.33c0 4.81-.4 11.01-4.724 15.55-.671.67-.631 1.39.13 1.98a30.63 30.63 0 012.833 2.61c.49.49 1.121.58 1.661.09 3.153-3.19 4.815-7.46 5.665-11.64.131-.58.541-.94 1.122-.94h17.186c.67 0 1.121.45 1.121 1.12v.45c0 .67.45 1.12 1.121 1.12h4.094c.67 0 1.121-.45 1.121-1.12V41.47c0-.67-.451-1.12-1.121-1.12l.02-.03zm-5.225 10.52c0 .4-.27.67-.671.67h-17.316c-.451 0-.671-.27-.671-.72V46.7c0-.4.27-.67.671-.67h17.316c.401 0 .671.27.671.67v4.14zm91.757-10.52H770.76c-.15 0-.18-.14-.18-.14 0-.54.37-.89.901-.98 3.463-.81 16.526-3.36 19.769-4.66.9-.4 1.031-1.12.27-1.8l-2.062-2.83c-.36-.31-.851-.36-1.261-.18l-.15.08c-2.433 1.26-16.156 3.96-19.569 4.86h-.631s-.13 0-.18-.04l-1.531-.4c-.851-.23-1.442.18-1.442 1.08l.03 14.33c0 4.81-.4 11.01-4.724 15.55-.671.67-.631 1.39.13 1.98a30.63 30.63 0 012.833 2.61c.49.49 1.121.58 1.661.09 3.153-3.19 4.815-7.46 5.666-11.64.13-.58.54-.94 1.121-.94h17.186c.671 0 1.121.45 1.121 1.12v.45c0 .67.451 1.12 1.121 1.12h4.094c.671 0 1.121-.45 1.121-1.12V41.47c0-.67-.45-1.12-1.121-1.12l.02-.03zm-5.215 10.52c0 .4-.27.67-.67.67h-17.317c-.45 0-.671-.27-.671-.72V46.7c0-.4.271-.67.671-.67h17.317c.4 0 .67.27.67.67v4.14z" fill="#fff"/></svg>