<svg width="1055" height="101" viewBox="0 0 1055 101" fill="none" xmlns="http://www.w3.org/2000/svg"><path d="M284.53 56.39h-90.847c-11.911 0-21.6-6.74-21.6-15.02s9.689-15.02 21.6-15.02h134.158a1.43 1.43 0 110 2.86H193.683c-10.159 0-18.747 5.57-18.747 12.16s8.588 12.16 18.747 12.16h90.847v2.86z" fill="#58393E"/><path d="M215.784 56.39c-11.911 0-21.6-6.74-21.6-15.02s9.689-15.02 21.6-15.02v2.86c-10.16 0-18.748 5.57-18.748 12.16s8.588 12.16 18.748 12.16v2.86zm65.913 27.18H123.788a1.43 1.43 0 110-2.86h157.909c10.16 0 18.748-5.57 18.748-12.16s-8.588-12.16-18.748-12.16v-2.86c11.912 0 21.601 6.74 21.601 15.02s-9.689 15.02-21.601 15.02zM770.46 56.39h90.846c11.912 0 21.601-6.74 21.601-15.02s-9.689-15.02-21.601-15.02H727.149a1.43 1.43 0 100 2.86h134.157c10.16 0 18.748 5.57 18.748 12.16s-8.588 12.16-18.748 12.16H770.46v2.86z" fill="#58393E"/><path d="M839.206 56.39c11.911 0 21.601-6.74 21.601-15.02s-9.69-15.02-21.601-15.02v2.86c10.16 0 18.748 5.57 18.748 12.16s-8.588 12.16-18.748 12.16v2.86zm-65.902 27.18h157.909a1.43 1.43 0 100-2.86H773.304c-10.16 0-18.748-5.57-18.748-12.16s8.588-12.16 18.748-12.16v-2.86c-11.912 0-21.601 6.74-21.601 15.02s9.689 15.02 21.601 15.02z" fill="#58393E"/><path d="M405.224 37.65c7.026 7.02 7.026 18.4 0 25.42l-31.14 31.11c-7.027 7.02-18.417 7.02-25.444 0L317.5 63.07c-7.026-7.02-7.026-18.4 0-25.42l31.14-31.11c7.027-7.02 18.417-7.02 25.444 0l31.14 31.11z" fill="#CF2027"/><path d="M361.363 100.74c-5.145 0-9.989-2-13.633-5.64l-31.139-31.11a19.11 19.11 0 01-5.646-13.62c0-5.15 2.012-9.98 5.646-13.62L347.73 5.64A19.166 19.166 0 01361.363 0c5.145 0 9.99 2 13.633 5.64l31.14 31.11c7.517 7.51 7.517 19.73 0 27.24l-31.14 31.11a19.147 19.147 0 01-13.633 5.64zm0-98.18c-4.464 0-8.658 1.73-11.821 4.89l-31.14 31.11a16.595 16.595 0 00-4.894 11.81c0 4.46 1.731 8.65 4.894 11.8l31.14 31.11a16.622 16.622 0 0011.811 4.89c4.454 0 8.658-1.74 11.811-4.89l31.14-31.11c6.516-6.51 6.516-17.1 0-23.61l-31.14-31.11a16.605 16.605 0 00-11.811-4.89h.01z" fill="#58393E"/><path d="M398.978 39.46c6.026 6.02 6.026 15.78 0 21.8l-26.705 26.68c-6.026 6.02-15.795 6.02-21.821 0l-26.705-26.68c-6.026-6.02-6.026-15.78 0-21.8l26.705-26.68c6.026-6.02 15.795-6.02 21.821 0l26.705 26.68z" fill="#F25252"/><path d="M361.362 93.11c-4.294 0-8.328-1.67-11.371-4.7l-26.705-26.68a15.97 15.97 0 01-4.715-11.36c0-4.29 1.672-8.32 4.715-11.36l26.705-26.68a15.991 15.991 0 0111.371-4.7c4.294 0 8.328 1.67 11.371 4.7l26.705 26.68c6.266 6.26 6.266 16.45 0 22.71L372.733 88.4a15.968 15.968 0 01-11.361 4.7l-.01.01zm-.01-84.2a14.72 14.72 0 00-10.46 4.33l-26.705 26.68a14.673 14.673 0 00-4.334 10.45c0 3.95 1.541 7.66 4.334 10.45l26.705 26.68a14.703 14.703 0 0010.46 4.33c3.954 0 7.667-1.54 10.46-4.33l26.705-26.68c5.766-5.76 5.766-15.13 0-20.89l-26.705-26.68a14.703 14.703 0 00-10.46-4.33v-.01z" fill="#FBD5A2"/><path d="M373.684 44.59l3.493 1.94c.531.29.731.87.531 1.46-1.992 5.05-4.805 9.17-8.358 12.47-.871.83-.781 1.65.39 2.09 3.303 1.12 7.047 1.94 11.221 2.47 1.461.19 1.802 1.02.921 2.18a39.276 39.276 0 00-2.383 3.93c-.24.44-.73.73-1.261.63-6.606-.97-12.091-2.67-16.656-5.19-.34-.19-.82-.19-1.161-.05-4.904 2.47-10.44 4.08-16.465 5.09-.631.15-1.161-.19-1.412-.78a29.281 29.281 0 00-1.941-3.69c-.731-1.17-.391-1.94.92-2.13 4.224-.58 8.108-1.46 11.611-2.62 1.071-.39 1.212-1.21.441-2.04-1.752-1.84-3.353-3.98-4.755-6.31-.44-.73-.19-1.46.681-1.75l1.071-.34c1.461-.49 1.411-.83-.15-.83h-5.585c-.731 0-1.212-.49-1.212-1.21v-4.12c0-.73.481-1.21 1.212-1.21h11.611c.73 0 1.211-.49 1.211-1.21v-1.94c0-.73-.491-1.21-1.211-1.21h-13.944c-.73 0-1.211-.49-1.211-1.21v-4.22c0-.73.481-1.21 1.211-1.21h13.944c.73 0 1.211-.49 1.211-1.21v-3.11c0-.73.49-1.21 1.211-1.21h4.564c.731 0 1.211.49 1.211 1.21v3.11c0 .73.491 1.21 1.211 1.21h14.134c.731 0 1.211.49 1.211 1.21v4.22c0 .73-.49 1.21-1.211 1.21h-14.134c-.73 0-1.211.49-1.211 1.21v1.94c0 .73.491 1.21 1.211 1.21h6.166l.241-.05.58-.1c.24-.05.581 0 .831.15l.01.01zm-6.606 6.56h-11.071c-.781 0-1.021.44-.58 1.07 1.461 2.23 3.353 4.17 5.635 5.82.24.19.53.19.831 0 2.232-1.6 4.224-3.54 5.775-5.82.441-.63.15-1.07-.58-1.07h-.01z" fill="#fff"/><path d="M488.293 37.65c7.027 7.02 7.027 18.4 0 25.42l-31.14 31.11c-7.026 7.02-18.417 7.02-25.444 0L400.57 63.07c-7.027-7.02-7.027-18.4 0-25.42l31.139-31.11c7.027-7.02 18.418-7.02 25.444 0l31.14 31.11z" fill="#CF2027"/><path d="M444.43 100.74c-5.144 0-9.989-2-13.632-5.64l-31.14-31.11a19.113 19.113 0 01-5.645-13.62c0-5.15 2.012-9.98 5.645-13.62l31.14-31.11A19.164 19.164 0 01444.43 0c5.145 0 9.99 2 13.633 5.64l31.14 31.11c7.517 7.51 7.517 19.73 0 27.24l-31.14 31.11a19.147 19.147 0 01-13.633 5.64zm0-98.18c-4.464 0-8.658 1.73-11.821 4.89L401.47 38.56a16.596 16.596 0 00-4.895 11.81c0 4.46 1.732 8.65 4.895 11.8l31.139 31.11a16.622 16.622 0 0011.811 4.89c4.455 0 8.659-1.74 11.812-4.89l31.139-31.11c6.516-6.51 6.516-17.1 0-23.61L456.232 7.45a16.605 16.605 0 00-11.812-4.89h.01z" fill="#58393E"/><path d="M482.046 39.46c6.026 6.02 6.026 15.78 0 21.8l-26.705 26.68c-6.026 6.02-15.795 6.02-21.821 0l-26.705-26.68c-6.026-6.02-6.026-15.78 0-21.8l26.705-26.68c6.026-6.02 15.795-6.02 21.821 0l26.705 26.68z" fill="#F25252"/><path d="M444.431 93.11c-4.294 0-8.328-1.67-11.371-4.7l-26.705-26.68a15.969 15.969 0 01-4.714-11.36c0-4.29 1.671-8.32 4.714-11.36l26.705-26.68a15.991 15.991 0 0111.371-4.7c4.294 0 8.328 1.67 11.371 4.7l26.705 26.68c6.266 6.26 6.266 16.45 0 22.71L455.802 88.4a15.968 15.968 0 01-11.361 4.7l-.01.01zm0-84.2a14.72 14.72 0 00-10.46 4.33l-26.705 26.68a14.673 14.673 0 00-4.334 10.45c0 3.95 1.541 7.66 4.334 10.45l26.705 26.68a14.703 14.703 0 0010.46 4.33c3.954 0 7.667-1.54 10.46-4.33l26.705-26.68c5.766-5.76 5.766-15.13 0-20.89l-26.705-26.68a14.703 14.703 0 00-10.46-4.33v-.01z" fill="#FBD5A2"/><path d="M434.031 28.58l4.274 1.41c.731.24 1.021.87.781 1.55-1.021 2.47-2.182 5.05-3.494 7.42-.05.05-.05.15-.05.19l-.15.39V70.5c0 .73-.49 1.21-1.211 1.21h-4.424c-.731 0-1.211-.48-1.211-1.21V51.58c0-1.12-.441-1.26-1.161-.44-.731.83-1.552.63-2.042-.34-.681-1.46-1.702-3.25-2.523-4.56-.34-.53-.29-1.17.15-1.6 3.744-3.88 7.287-9.51 9.519-15.29.291-.68.871-.97 1.552-.78l-.01.01zm32.34 10.48v4.37c0 .73-.49 1.21-1.211 1.21h-2.282c-.731 0-1.211.49-1.211 1.21v18.2c0 3.98-.871 5.73-3.353 6.7-2.332.97-5.736 1.16-10.39 1.12-.581 0-1.071-.39-1.211-1.02-.29-1.12-.781-2.43-1.311-3.64-.531-1.21-.101-1.94 1.211-1.89 2.812.1 5.585.1 6.506.05 1.121 0 1.601-.34 1.601-1.36V45.86c0-.73-.49-1.21-1.211-1.21h-14.624c-.73 0-1.211-.49-1.211-1.21v-4.37c0-.73.491-1.21 1.211-1.21h14.624c.731 0 1.211-.49 1.211-1.21v-6.89c0-.73.491-1.21 1.212-1.21h4.514c.731 0 1.211.49 1.211 1.21v6.89c0 .73.48 1.21 1.211 1.21h2.282c.731 0 1.211.49 1.211 1.21l.01-.01zm-16.165 18.98l-4.124 2.09c-.73.34-1.411.1-1.751-.68-1.071-2.43-2.863-5.68-4.375-8.49-.39-.68-.15-1.36.531-1.65l3.743-1.75c.631-.29 1.262-.1 1.602.49 1.601 2.67 3.643 5.97 4.905 8.39.34.63.1 1.26-.531 1.6z" fill="#fff"/><path d="M571.371 37.65c7.027 7.02 7.027 18.4 0 25.42l-31.139 31.11c-7.027 7.02-18.418 7.02-25.445 0l-31.139-31.11c-7.027-7.02-7.027-18.4 0-25.42l31.139-31.11c7.027-7.02 18.418-7.02 25.445 0l31.139 31.11z" fill="#CF2027"/><path d="M527.5 100.74c-5.145 0-9.99-2-13.633-5.64l-31.14-31.11a19.113 19.113 0 01-5.645-13.62c0-5.15 2.012-9.98 5.645-13.62l31.14-31.11A19.164 19.164 0 01527.5 0c5.145 0 9.989 2 13.633 5.64l31.139 31.11c7.517 7.51 7.517 19.73 0 27.24L541.133 95.1a19.149 19.149 0 01-13.633 5.64zm0-98.18c-4.464 0-8.658 1.73-11.821 4.89l-31.14 31.11a16.596 16.596 0 00-4.895 11.81c0 4.46 1.732 8.65 4.895 11.8l31.14 31.11a16.622 16.622 0 0011.811 4.89c4.454 0 8.658-1.74 11.811-4.89l31.14-31.11c6.516-6.51 6.516-17.1 0-23.61l-31.14-31.11a16.605 16.605 0 00-11.811-4.89h.01z" fill="#58393E"/><path d="M565.126 39.46c6.025 6.02 6.025 15.78 0 21.8L538.42 87.94c-6.025 6.02-15.795 6.02-21.82 0l-26.706-26.68c-6.025-6.02-6.025-15.78 0-21.8L516.6 12.78c6.025-6.02 15.795-6.02 21.82 0l26.706 26.68z" fill="#F25252"/><path d="M527.5 93.11c-4.295 0-8.328-1.67-11.371-4.7l-26.706-26.68a15.973 15.973 0 01-4.714-11.36c0-4.29 1.672-8.32 4.714-11.36l26.706-26.68a15.99 15.99 0 0111.371-4.7c4.294 0 8.327 1.67 11.37 4.7l26.706 26.68c6.266 6.26 6.266 16.45 0 22.71L538.87 88.4a15.966 15.966 0 01-11.36 4.7l-.01.01zm0-84.2c-3.944 0-7.668 1.54-10.46 4.33l-26.706 26.68A14.678 14.678 0 00486 50.37c0 3.95 1.542 7.66 4.334 10.45L517.04 87.5a14.702 14.702 0 0010.46 4.33c3.953 0 7.667-1.54 10.459-4.33l26.706-26.68c5.765-5.76 5.765-15.13 0-20.89l-26.706-26.68A14.701 14.701 0 00527.5 8.92v-.01z" fill="#FBD5A2"/><path d="M525.799 61.92l-2.092 2.62c-.581.68-1.412.58-1.992-.1-.681-.78-1.261-.68-1.261.39v5.73c0 .73-.491 1.21-1.211 1.21h-4.084c-.731 0-1.212-.49-1.212-1.21v-2.91c0-2.09-.82-2.38-2.232-.83-.53.58-1.021 1.12-1.551 1.6-.581.49-1.261.39-1.752-.19-.68-.87-1.551-1.79-2.332-2.62-.681-.68-.681-1.46.15-2.09a29.625 29.625 0 005.195-5.29c.781-1.02.39-1.79-.971-1.79h-2.963c-.73 0-1.211-.49-1.211-1.21v-3.15c0-.73.481-1.21 1.211-1.21h5.245c.731 0 1.211-.49 1.211-1.21v-.39c0-.73-.49-1.21-1.211-1.21h-5.395c-.73 0-1.211-.49-1.211-1.21v-3.01c0-.73.481-1.21 1.211-1.21h1.121c.821 0 1.312-.53 1.121-1.36-.1-.53-.24-1.12-.44-1.65-.24-.68.05-1.26.821-1.46.73-.19.73-.29-.05-.29h-1.992c-.731 0-1.211-.49-1.211-1.21V33.7c0-.73.49-1.21 1.211-1.21h4.804c.731 0 1.211-.49 1.211-1.21v-1.5c0-.73.491-1.21 1.212-1.21h4.083c.731 0 1.212.49 1.212 1.21v1.5c0 .73.49 1.21 1.211 1.21h4.804c.731 0 1.212.49 1.212 1.21v2.96c0 .73-.491 1.21-1.212 1.21h-1.501c-.631 0-.631.1 0 .19.58.1.821.53.53 1.07v.1c-.24.63-.49 1.12-.73 1.65-.491 1.07 0 1.75 1.121 1.75h.871c.73 0 1.211.49 1.211 1.21v3.01c0 .73-.491 1.21-1.211 1.21h-5.095c-.731 0-1.211.49-1.211 1.21v.39c0 .73.49 1.21 1.211 1.21h4.614c.731 0 1.211.49 1.211 1.21v3.15c0 .73-.48 1.21-1.211 1.21h-2.282c-2.142 0-2.382.83-.681 2.04l2.232 1.7c.631.49.731 1.16.241 1.75l.02-.01zm-6.897-24.07h-3.693c-.631 0-.871.39-.681 1.02.29.87.581 1.79.731 2.57.05.39-.15.68-.531.78l-.39.1c-.631.19-.581.29.05.29h5.435c.831 0 .871-.1.05-.29l-.58-.1c-.491-.1-.731-.48-.531-.92.29-.82.581-1.7.821-2.57.15-.53-.15-.87-.681-.87v-.01zm16.606.73v3.3c0 .73.49 1.21 1.211 1.21h11.411c.731 0 1.211.49 1.211 1.21v3.79c0 .73-.48 1.21-1.211 1.21h-1.462c-.73 0-1.211.49-1.211 1.21V70.4c0 .73-.48 1.21-1.211 1.21h-4.084c-.73 0-1.211-.49-1.211-1.21V50.51c0-.73-.49-1.21-1.211-1.21h-1.071c-.681 0-1.161.49-1.211 1.16-.24 6.26-1.411 14.41-5.926 20.14-.58.78-1.411.68-2.042-.05-.73-.83-1.651-1.7-2.522-2.38-.731-.58-.871-1.36-.29-2.09 4.084-5.48 4.464-12.62 4.464-18.44V33.18c0-.97.63-1.41 1.551-1.17l1.652.44s.15.05.19.05h.681c3.693-.97 7.337-2.28 9.959-3.64h.1c.441-.19.971-.15 1.362.19l3.353 3.06c.821.73.68 1.5-.291 1.94-3.493 1.41-7.477 2.47-11.22 3.35-.581.1-.971.58-.971 1.17v.01z" fill="#fff"/><path d="M654.44 37.65c7.027 7.02 7.027 18.4 0 25.42l-31.139 31.11c-7.027 7.02-18.418 7.02-25.444 0l-31.14-31.11c-7.026-7.02-7.026-18.4 0-25.42l31.14-31.11c7.026-7.02 18.417-7.02 25.444 0l31.139 31.11z" fill="#CF2027"/><path d="M610.579 100.74c-5.145 0-9.99-2-13.633-5.64l-31.14-31.11a19.113 19.113 0 01-5.645-13.62c0-5.15 2.012-9.98 5.645-13.62l31.14-31.11A19.164 19.164 0 01610.579 0c5.145 0 9.989 2 13.633 5.64l31.139 31.11c7.517 7.51 7.517 19.73 0 27.24L624.212 95.1a19.149 19.149 0 01-13.633 5.64zm0-98.18c-4.464 0-8.658 1.73-11.821 4.89l-31.14 31.11a16.595 16.595 0 00-4.894 11.81c0 4.46 1.731 8.65 4.894 11.8l31.14 31.11a16.622 16.622 0 0011.811 4.89c4.454 0 8.658-1.74 11.811-4.89l31.14-31.11c6.516-6.51 6.516-17.1 0-23.61L622.38 7.45a16.605 16.605 0 00-11.811-4.89h.01z" fill="#58393E"/><path d="M648.195 39.46c6.026 6.02 6.026 15.78 0 21.8L621.49 87.94c-6.026 6.02-15.795 6.02-21.821 0l-26.705-26.68c-6.026-6.02-6.026-15.78 0-21.8l26.705-26.68c6.026-6.02 15.795-6.02 21.821 0l26.705 26.68z" fill="#F25252"/><path d="M610.579 93.11c-4.294 0-8.328-1.67-11.371-4.7l-26.705-26.68a15.97 15.97 0 01-4.715-11.36c0-4.29 1.672-8.32 4.715-11.36l26.705-26.68a15.991 15.991 0 0111.371-4.7c4.294 0 8.328 1.67 11.37 4.7l26.706 26.68c6.266 6.26 6.266 16.45 0 22.71L621.949 88.4a15.964 15.964 0 01-11.36 4.7l-.01.01zm0-84.2c-3.944 0-7.668 1.54-10.46 4.33l-26.706 26.68a14.678 14.678 0 00-4.334 10.45c0 3.95 1.542 7.66 4.334 10.45l26.706 26.68a14.702 14.702 0 0010.46 4.33c3.953 0 7.667-1.54 10.46-4.33l26.705-26.68c5.765-5.76 5.765-15.13 0-20.89l-26.705-26.68a14.705 14.705 0 00-10.46-4.33v-.01z" fill="#FBD5A2"/><path d="M630.527 31.01v33.24c0 3.06-.44 4.85-2.232 5.97-1.601.97-3.693 1.21-6.456 1.26-.681 0-1.171-.44-1.261-1.07-.24-1.12-.581-2.38-.971-3.49-.39-1.21.1-1.89 1.361-1.89.921.05 1.802.05 2.182 0h.1c.631 0 .831-.24.831-.87v-6.65c0-.73-.49-1.21-1.211-1.21h-3.493c-.631 0-1.121.44-1.211 1.07-.731 4.85-1.992 9.75-4.375 13.54-.44.73-1.161.78-1.841.29-.971-.68-2.232-1.41-3.303-1.99-.391-.19-.831-.05-1.172.24-.15.15-.34.29-.58.44l-.1.05c-1.411.78-3.253 1.07-5.535 1.12-.631 0-1.121-.44-1.262-1.07-.19-1.02-.53-2.18-.92-3.2-.391-1.02.05-1.6 1.071-1.55h1.801c.581 0 .781-.19.781-.78v-6.94c0-.73-.49-1.21-1.211-1.21h-2.573c-.68 0-1.161.44-1.211 1.07-.58 4.8-1.601 9.61-3.593 13.39-.441.73-1.161.82-1.842.34a31.963 31.963 0 00-3.013-1.8c-.73-.39-.971-1.12-.53-1.84 3.153-6.11 3.403-14.51 3.403-20.87V31.02c0-.73.49-1.21 1.211-1.21h14.374c.73 0 1.211.49 1.211 1.21V64.5l-.05 1.02c0 .58.15.63.39.1 3.063-6.31 3.303-14.36 3.303-20.48V31.02c0-.73.491-1.21 1.212-1.21h15.544c.731 0 1.211.49 1.211 1.21l-.04-.01zm-31.57 19.36h3.013c.441 0 .731-.29.731-.73v-2.96c0-.44-.29-.73-.731-.73h-3.443c-.19 0-.29.1-.29.29v.29c0 .97 0 1.99-.05 3.06 0 .49.29.78.78.78h-.01zm3.013-14.56h-3.013c-.44 0-.73.29-.73.73v2.86c0 .44.29.73.73.73h3.013c.441 0 .731-.29.731-.73v-2.86c0-.44-.29-.73-.731-.73zm17.587 14.56h3.784c.44 0 .73-.29.73-.73v-2.96c0-.44-.29-.73-.73-.73h-3.694c-.44 0-.731.29-.731.73 0 .92-.05 1.89-.1 2.91-.05.49.24.78.731.78h.01zm3.784-14.56h-3.694c-.44 0-.731.29-.731.73v2.86c0 .44.291.73.731.73h3.694c.44 0 .73-.29.73-.73v-2.86c0-.44-.29-.73-.73-.73z" fill="#fff"/><path d="M737.52 37.65c7.026 7.02 7.026 18.4 0 25.42l-31.14 31.11c-7.027 7.02-18.417 7.02-25.444 0l-31.14-31.11c-7.026-7.02-7.026-18.4 0-25.42l31.14-31.11c7.027-7.02 18.417-7.02 25.444 0l31.14 31.11z" fill="#CF2027"/><path d="M693.647 100.74c-5.145 0-9.989-2-13.633-5.64l-31.139-31.11a19.11 19.11 0 01-5.646-13.62c0-5.15 2.012-9.98 5.646-13.62l31.139-31.11A19.166 19.166 0 01693.647 0c5.145 0 9.99 2 13.633 5.64l31.14 31.11c7.517 7.51 7.517 19.73 0 27.24L707.28 95.1a19.147 19.147 0 01-13.633 5.64zm0-98.18c-4.464 0-8.658 1.73-11.821 4.89l-31.139 31.11a16.596 16.596 0 00-4.895 11.81c0 4.46 1.732 8.65 4.895 11.8l31.139 31.11a16.622 16.622 0 0011.811 4.89c4.454 0 8.659-1.74 11.812-4.89l31.139-31.11c6.516-6.51 6.516-17.1 0-23.61L705.449 7.45a16.607 16.607 0 00-11.812-4.89h.01z" fill="#58393E"/><path d="M731.273 39.46c6.026 6.02 6.026 15.78 0 21.8l-26.705 26.68c-6.026 6.02-15.795 6.02-21.821 0l-26.705-26.68c-6.026-6.02-6.026-15.78 0-21.8l26.705-26.68c6.026-6.02 15.795-6.02 21.821 0l26.705 26.68z" fill="#F25252"/><path d="M693.648 93.11c-4.294 0-8.328-1.67-11.371-4.7l-26.705-26.68a15.97 15.97 0 01-4.715-11.36c0-4.29 1.672-8.32 4.715-11.36l26.705-26.68a15.991 15.991 0 0111.371-4.7c4.294 0 8.328 1.67 11.371 4.7l26.705 26.68c6.266 6.26 6.266 16.45 0 22.71L705.019 88.4a15.968 15.968 0 01-11.361 4.7l-.01.01zm0-84.2a14.72 14.72 0 00-10.46 4.33l-26.705 26.68a14.673 14.673 0 00-4.334 10.45c0 3.95 1.541 7.66 4.334 10.45l26.705 26.68a14.703 14.703 0 0010.46 4.33c3.954 0 7.667-1.54 10.46-4.33l26.705-26.68c5.766-5.76 5.766-15.13 0-20.89l-26.705-26.68a14.703 14.703 0 00-10.46-4.33v-.01z" fill="#FBD5A2"/><path d="M706.269 44.84l3.303 1.41c.58.24.871.78.68 1.41-1.501 5-3.593 9.22-6.366 12.62-.58.73-.44 1.46.391 1.84 2.522 1.21 5.345 2.14 8.548 2.86 1.411.29 1.651 1.12.781 2.23a30.972 30.972 0 00-2.383 3.59c-.29.49-.82.73-1.361.58-4.464-1.12-8.308-2.67-11.611-4.76-.39-.29-.971-.29-1.361 0a41.852 41.852 0 01-9.669 4.76c-.631.19-1.212-.05-1.502-.58-.53-1.02-1.261-2.13-1.992-3.15-.73-1.02-.49-1.8.681-2.18a32.72 32.72 0 006.706-3.01c.731-.44.781-1.16.241-1.84-1.021-1.21-1.992-2.57-2.913-3.98-.871-1.36-1.702-1.31-2.332.19-1.892 4.42-4.465 8.69-8.018 12.33-.581.58-1.311.49-1.842-.1a20.327 20.327 0 00-3.443-2.91c-.831-.58-.921-1.36-.15-2.09 6.456-6.07 9.229-14.36 10.54-21.69.15-.83-.341-1.41-1.161-1.41h-7.477c-.731 0-1.212-.49-1.212-1.21v-4.08c0-.73.491-1.21 1.212-1.21h8.448c.68 0 1.161-.44 1.161-1.12.1-1.6.15-3.01.19-4.17 0-.68.49-1.12 1.161-1.12h4.614c.781 0 1.262.49 1.212 1.26 0 1.12-.101 2.38-.191 3.83-.05.78.441 1.31 1.262 1.31h20.209c.73 0 1.211.49 1.211 1.21v4.08c0 .73-.481 1.21-1.211 1.21h-21.22c-.631 0-1.122.39-1.212.97-.05.53-.15 1.02-.24 1.55-.15.87.29 1.46 1.211 1.46h13.603l.781-.15c.24-.05.53-.05.731.05l-.01.01zm-5.926 6.55h-6.706c-.731 0-1.021.44-.581 1.07a27.67 27.67 0 003.694 4.56c.34.29.73.29 1.021-.05a27.654 27.654 0 003.203-4.56c.34-.58.05-1.02-.631-1.02z" fill="#fff"/></svg>