<svg width="350" height="50" viewBox="0 0 350 50" fill="none" xmlns="http://www.w3.org/2000/svg"><path d="M55.56 27.85H40.37c-5.88 0-10.66-3.33-10.66-7.42s4.78-7.42 10.66-7.42h36.548c.39 0 .71.32.71.71 0 .39-.32.71-.71.71H40.38c-5.01 0-9.25 2.75-9.25 6s4.23 6 9.25 6h15.19v1.41l-.01.01z" fill="#58393E"/><path d="M51.279 27.85c-5.88 0-10.66-3.33-10.66-7.42s4.78-7.42 10.66-7.42v1.41c-5.01 0-9.25 2.75-9.25 6s4.23 6 9.25 6v1.43z" fill="#58393E"/><path d="M54.169 41.269H20.71c-.39 0-.71-.32-.71-.71 0-.39.32-.71.71-.71h33.459c5.01 0 9.25-2.75 9.25-6s-4.23-6-9.25-6v-1.41c5.88 0 10.66 3.33 10.66 7.42s-4.78 7.42-10.66 7.42v-.01zM294.432 27.85h15.189c5.88 0 10.66-3.33 10.66-7.42s-4.78-7.42-10.66-7.42h-36.549c-.39 0-.71.32-.71.71 0 .39.32.71.71.71h36.549c5.01 0 9.25 2.75 9.25 6s-4.23 6-9.25 6h-15.189v1.42z" fill="#58393E"/><path d="M298.722 27.85c5.879 0 10.659-3.33 10.659-7.42s-4.78-7.42-10.659-7.42v1.41c5.01 0 9.249 2.75 9.249 6s-4.229 6-9.249 6v1.43z" fill="#58393E"/><path d="M295.832 41.269h33.458c.39 0 .71-.32.71-.71 0-.39-.32-.71-.71-.71h-33.458c-5.01 0-9.25-2.75-9.25-6s4.23-6 9.25-6v-1.41c-5.88 0-10.66 3.33-10.66 7.42s4.78 7.42 10.66 7.42v-.01z" fill="#58393E"/><path d="M114.677 18.6c3.47 3.47 3.47 9.09 0 12.55l-15.36 15.359c-3.47 3.47-9.09 3.47-12.55 0l-15.359-15.36c-3.47-3.47-3.47-9.09 0-12.55L86.768 3.24c3.47-3.47 9.09-3.47 12.55 0l15.359 15.36z" fill="#CF2027"/><path d="M93.037 49.748c-2.54 0-4.93-.99-6.73-2.79L70.949 31.6a9.433 9.433 0 01-2.79-6.72c0-2.54.99-4.93 2.79-6.73l15.36-15.36C88.108.99 90.498 0 93.038 0s4.93.99 6.72 2.79l15.359 15.36c3.71 3.71 3.71 9.74 0 13.449l-15.36 15.36a9.433 9.433 0 01-6.72 2.79zm0-48.478c-2.2 0-4.27.86-5.83 2.41L71.849 19.04a8.183 8.183 0 00-2.41 5.83c0 2.2.86 4.27 2.41 5.829l15.36 15.36a8.183 8.183 0 005.83 2.41c2.2 0 4.27-.86 5.83-2.41l15.359-15.36c3.21-3.21 3.21-8.44 0-11.66L98.867 3.68a8.183 8.183 0 00-5.83-2.409z" fill="#58393E"/><path d="M111.596 19.489c2.97 2.97 2.97 7.79 0 10.77l-13.18 13.18a7.61 7.61 0 01-10.759 0l-13.18-13.18c-2.97-2.97-2.97-7.79 0-10.77l13.18-13.18c2.97-2.97 7.79-2.97 10.77 0l13.179 13.18h-.01z" fill="#F25252"/><path d="M93.037 45.978c-2.12 0-4.11-.82-5.61-2.32l-13.18-13.18a7.873 7.873 0 01-2.32-5.609c0-2.12.83-4.11 2.32-5.61l13.18-13.18c1.5-1.5 3.49-2.32 5.61-2.32s4.11.82 5.61 2.32l13.179 13.18c3.09 3.09 3.09 8.12 0 11.21l-13.18 13.18a7.873 7.873 0 01-5.609 2.32v.01zm0-41.578c-1.95 0-3.78.76-5.16 2.14l-13.18 13.18a7.246 7.246 0 00-2.14 5.16c0 1.949.76 3.779 2.14 5.159l13.18 13.18a7.246 7.246 0 005.16 2.14c1.95 0 3.78-.76 5.16-2.14l13.179-13.18c2.84-2.84 2.84-7.47 0-10.32L98.196 6.54a7.246 7.246 0 00-5.159-2.14z" fill="#FBD5A2"/><path d="M103.237 21.02c-.31 0-.57.22-.62.53-.34 2.95-.91 5.46-1.87 7.59v.05c-.1.17-.07.38.02.53.67 1.08 1.51 2.009 2.52 2.729.41.29.43.67.1 1.05-.41.46-.86 1.01-1.2 1.49-.22.34-.55.41-.86.19-.79-.6-1.49-1.29-2.08-2.08-.31-.36-.67-.38-1.01-.02-.72.79-1.56 1.51-2.54 2.16-.36.22-.69.1-.91-.26-.14-.29-.34-.57-.53-.89-.24-.34-.6-.36-.89-.07l-.93.93c-.22.22-.53.24-.77.07-.48-.31-1.05-.65-1.68-.98-.17-.1-.41-.1-.57 0-1.27.65-2.87 1.1-4.889 1.44-.36.07-.62-.12-.72-.46-.12-.33-.26-.69-.43-1.01-.29-.6-.12-.96.55-1.03.96-.12 1.77-.26 2.52-.46.17-.05.17-.12.02-.19l-.22-.1-.1.02-.05.02s-.1.02-.14 0l-1.63-.36c-.53-.14-.65-.5-.36-.96l.1-.17c.36-.55.14-.91-.5-.91l-.57.02c-.36 0-.6-.24-.62-.57l-.02-1.15c-.02-.38.22-.62.6-.62.81 0 1.72 0 2.71-.02.19 0 .43-.14.53-.34.1-.2.02-.31-.19-.31h-2.18c-.36 0-.6-.24-.6-.6V23c0-.36.24-.6.6-.6h3.02c.17 0 .26-.1.26-.26s-.1-.26-.26-.26h-2.61c-.36 0-.6-.24-.6-.6v-1.2c0-.36-.24-.6-.6-.6h-.19c-.36 0-.6-.24-.6-.6v-1.1c0-.36.24-.6.6-.6h.19c.36 0 .6-.24.6-.6v-1.15c0-.36.24-.6.6-.6h2.4c.29 0 .48-.19.48-.5 0-.29.19-.48.5-.48h1.82c.29 0 .48.19.48.48 0 .31.19.5.5.5h2.61c.36 0 .6.24.6.6v1.15c0 .36.24.6.6.6h.24c.36 0 .6.24.6.6v1.1c0 .36-.24.6-.6.6h-.24c-.36 0-.6.24-.6.6v1.2c0 .36-.24.6-.6.6h-2.85c-.17 0-.26.1-.26.26s.1.26.26.26h3.62c.14 0 .24.1.24.24 0 .14.05.14.1.02 1.08-2.25 1.72-5.17 2.08-8.22.05-.38.31-.6.69-.53l1.94.26c.34.07.55.34.5.69-.12.79-.24 1.58-.41 2.37-.07.43.14.72.6.72h3.709c.36 0 .6.24.6.6v1.87c0 .34-.26.58-.6.58l-.01.02zm-17.34 3.64c0 .19.12.31.31.31h.57c.19 0 .31-.12.31-.31s-.12-.31-.31-.31h-.57c-.19 0-.31.12-.31.31zm.93-7.83h-.24c-.17 0-.29.12-.29.26 0 .17.12.29.29.29h.24c.14 0 .26-.12.26-.29 0-.14-.12-.26-.26-.26zm-.24 3.04h.24c.14 0 .26-.12.26-.29 0-.14-.12-.26-.26-.26h-.24c-.17 0-.29.12-.29.26 0 .17.12.29.29.29zM87.598 30l-.02.02c-.07.12-.02.22.1.26.46.17.91.36 1.37.53.14.05.31.02.41-.1.1-.12.19-.24.26-.38.22-.31.07-.53-.29-.53l-1.53.02c-.12 0-.24.07-.29.17l-.01.01zm6.97-.31l-1.37.05c-.17 0-.29.1-.34.26-.22.62-.46 1.2-.79 1.699-.14.22-.1.43.14.55.34.17.67.36.98.53.1.05.24.07.34 0a9.909 9.909 0 003.55-3.16c.05-.1.07-.24.02-.33-.36-.89-.65-1.82-.91-2.83-.1-.36-.26-.38-.48-.05l-.07.1c-.17.26-.41.24-.57.02l-.53-.62c-.31-.34-.53-.24-.53.22v.41c0 .22-.14.36-.36.36h-4.46c-.1 0-.1.02 0 .02.1.02.12.1.07.17l-.07.14c-.1.17-.02.29.17.29 1.72-.02 3.5-.07 5.25-.1.24 0 .38.14.36.38l-.05 1.56c-.02.19-.17.34-.36.34l.01-.01zm-4.07-12.86h-.31c-.17 0-.29.12-.29.26 0 .17.12.29.29.29h.31c.14 0 .26-.12.26-.29 0-.14-.12-.26-.26-.26zm-.31 3.04h.31c.14 0 .26-.12.26-.29 0-.14-.12-.26-.26-.26h-.31c-.17 0-.29.12-.29.26 0 .17.12.29.29.29zm.67 4.48h-.65c-.19 0-.31.12-.31.31s.12.31.31.31h.65c.19 0 .31-.12.31-.31s-.12-.31-.31-.31zm8.38-3.31h-.79c-.26.02-.38.19-.36.43.14.89.31 1.77.5 2.61.17.79.46.79.6 0 .17-.84.31-1.73.41-2.66.02-.24-.12-.41-.36-.38z" fill="#fff"/><path d="M155.655 18.6c3.47 3.47 3.47 9.09 0 12.55l-15.359 15.359c-3.47 3.47-9.09 3.47-12.55 0l-15.359-15.36c-3.47-3.47-3.47-9.09 0-12.55L127.746 3.24c3.47-3.47 9.09-3.47 12.55 0l15.359 15.36z" fill="#CF2027"/><path d="M134.016 49.748c-2.54 0-4.93-.99-6.73-2.79L111.927 31.6a9.432 9.432 0 01-2.79-6.72c0-2.54.99-4.93 2.79-6.73l15.359-15.36c1.8-1.8 4.19-2.79 6.73-2.79s4.93.99 6.72 2.79l15.359 15.36c3.71 3.71 3.71 9.74 0 13.449l-15.359 15.36a9.433 9.433 0 01-6.72 2.79zm0-48.478c-2.2 0-4.27.86-5.83 2.41l-15.359 15.36a8.183 8.183 0 00-2.41 5.83c0 2.2.86 4.27 2.41 5.829l15.359 15.36a8.183 8.183 0 005.83 2.41c2.2 0 4.27-.86 5.83-2.41l15.359-15.36c3.21-3.21 3.21-8.44 0-11.66L139.846 3.68a8.184 8.184 0 00-5.83-2.409z" fill="#58393E"/><path d="M152.575 19.489c2.97 2.97 2.97 7.79 0 10.77l-13.18 13.18a7.61 7.61 0 01-10.759 0l-13.18-13.18c-2.97-2.97-2.97-7.79 0-10.77l13.18-13.18c2.969-2.97 7.789-2.97 10.769 0l13.18 13.18h-.01z" fill="#F25252"/><path d="M134.016 45.978c-2.12 0-4.11-.82-5.61-2.32l-13.18-13.18a7.873 7.873 0 01-2.32-5.609c0-2.12.83-4.11 2.32-5.61l13.18-13.18c1.5-1.5 3.49-2.32 5.61-2.32s4.109.82 5.609 2.32l13.18 13.18c3.09 3.09 3.09 8.12 0 11.21l-13.18 13.18a7.871 7.871 0 01-5.609 2.32v.01zm0-41.578c-1.95 0-3.78.76-5.16 2.14l-13.18 13.18a7.246 7.246 0 00-2.14 5.16c0 1.949.76 3.779 2.14 5.159l13.18 13.18a7.246 7.246 0 005.16 2.14c1.95 0 3.779-.76 5.159-2.14l13.18-13.18c2.84-2.84 2.84-7.47 0-10.32l-13.18-13.18a7.244 7.244 0 00-5.159-2.14z" fill="#FBD5A2"/><path d="M143.696 19.97h-11c-.24 0-.46.14-.55.34-.72 1.46-1.53 2.83-2.419 4.14l-.05.05c-.05.07-.1.22-.1.31v10.039c0 .36-.24.6-.6.6h-2.16c-.36 0-.6-.24-.6-.6v-5.61c0-.62-.31-.77-.81-.38l-.22.17c-.36.26-.72.14-.91-.29-.29-.67-.69-1.44-1.03-2.06-.19-.31-.12-.62.19-.84 1.8-1.27 3.31-3.02 4.5-5.01.29-.5.07-.86-.53-.86h-3.04c-.36 0-.6-.24-.6-.6v-1.96c0-.36.24-.6.6-.6h5.08c.24 0 .46-.14.55-.38.24-.67.46-1.34.649-2.01.1-.34.38-.53.72-.43l2.32.55c.38.1.55.38.43.77-.07.22-.14.46-.24.69-.17.48.05.81.57.81h9.22c.36 0 .6.24.6.6v1.96c0 .36-.24.6-.6.6h.03zm.88 7.57v1.869c0 .36-.24.6-.6.6h-3.81c-.36 0-.6.24-.6.6v1.49c0 1.56-.26 2.4-1.34 2.87-.96.43-2.18.5-3.69.5-.31 0-.55-.22-.6-.53-.12-.55-.29-1.17-.48-1.75-.17-.55.05-.89.65-.86.72.02 1.39.02 1.63.02.36-.02.48-.1.48-.36v-1.39c0-.36-.24-.6-.6-.6h-4.29c-.36 0-.6-.24-.6-.6v-1.87c0-.36.24-.6.6-.6h4.29c.36 0 .6-.24.6-.6v-.67c0-.29.19-.48.48-.48h.24c.14 0 .31-.07.41-.17l.31-.29c.29-.29.22-.48-.19-.48h-4.43c-.36 0-.6-.24-.6-.6v-1.77c0-.36.24-.6.6-.6h7.67l.12-.02.34-.07c.17-.05.38 0 .53.12l1.32 1.08c.29.22.31.57.07.84-1.01 1.1-2.18 2.32-3.35 3.31l-.05.02c-.05.07-.1.14-.1.24 0 .1.05.14.14.14h4.26c.36 0 .6.24.6.6l-.01.01z" fill="#fff"/><path d="M196.634 18.6c3.47 3.47 3.47 9.09 0 12.55l-15.36 15.359c-3.47 3.47-9.09 3.47-12.549 0l-15.36-15.36c-3.47-3.47-3.47-9.09 0-12.55l15.36-15.359c3.469-3.47 9.089-3.47 12.549 0l15.36 15.36z" fill="#CF2027"/><path d="M174.994 49.748a9.455 9.455 0 01-6.729-2.79L152.905 31.6a9.432 9.432 0 01-2.79-6.72c0-2.54.99-4.93 2.79-6.73l15.36-15.36c1.8-1.8 4.19-2.79 6.729-2.79 2.54 0 4.93.99 6.72 2.79l15.36 15.36c3.71 3.71 3.71 9.74 0 13.449l-15.36 15.36a9.433 9.433 0 01-6.72 2.79zm0-48.478c-2.2 0-4.269.86-5.829 2.41l-15.36 15.36a8.183 8.183 0 00-2.41 5.83c0 2.2.86 4.27 2.41 5.829l15.36 15.36a8.181 8.181 0 005.829 2.41c2.2 0 4.27-.86 5.83-2.41l15.36-15.36c3.21-3.21 3.21-8.44 0-11.66l-15.36-15.36a8.184 8.184 0 00-5.83-2.409z" fill="#58393E"/><path d="M193.553 19.489c2.97 2.97 2.97 7.79 0 10.77l-13.179 13.18a7.611 7.611 0 01-10.76 0l-13.18-13.18c-2.969-2.97-2.969-7.79 0-10.77l13.18-13.18c2.97-2.97 7.79-2.97 10.77 0l13.179 13.18h-.01z" fill="#F25252"/><path d="M174.994 45.978c-2.12 0-4.11-.82-5.61-2.32l-13.179-13.18a7.873 7.873 0 01-2.32-5.609c0-2.12.83-4.11 2.32-5.61l13.179-13.18c1.5-1.5 3.49-2.32 5.61-2.32s4.11.82 5.61 2.32l13.179 13.18c3.09 3.09 3.09 8.12 0 11.21l-13.179 13.18a7.873 7.873 0 01-5.61 2.32v.01zm0-41.578c-1.95 0-3.78.76-5.16 2.14l-13.179 13.18a7.246 7.246 0 00-2.14 5.16c0 1.949.76 3.779 2.14 5.159l13.179 13.18a7.246 7.246 0 005.16 2.14c1.95 0 3.78-.76 5.16-2.14l13.179-13.18c2.84-2.84 2.84-7.47 0-10.32L180.154 6.54a7.247 7.247 0 00-5.16-2.14z" fill="#FBD5A2"/><path d="M174.154 30.58l-1.03 1.29c-.29.34-.69.29-.98-.05-.34-.38-.62-.34-.62.19v2.83c0 .36-.24.6-.6.6h-2.01c-.36 0-.6-.24-.6-.6V33.4c0-1.03-.41-1.17-1.1-.41-.26.29-.5.55-.77.79-.29.24-.62.19-.86-.1-.34-.43-.77-.89-1.15-1.29-.34-.34-.34-.72.07-1.03.89-.69 1.8-1.6 2.56-2.61.38-.5.19-.89-.48-.89h-1.46c-.36 0-.6-.24-.6-.6V25.7c0-.36.24-.6.6-.6h2.59c.36 0 .6-.24.6-.6v-.19c0-.36-.24-.6-.6-.6h-2.66c-.36 0-.6-.24-.6-.6v-1.48c0-.36.24-.6.6-.6h.55c.41 0 .65-.26.55-.67-.05-.26-.12-.55-.22-.81-.12-.34.02-.62.41-.72.36-.1.36-.14-.02-.14h-.98c-.36 0-.6-.24-.6-.6v-1.46c0-.36.24-.6.6-.6h2.37c.36 0 .6-.24.6-.6v-.74c0-.36.24-.6.6-.6h2.01c.36 0 .6.24.6.6v.74c0 .36.24.6.6.6h2.37c.36 0 .6.24.6.6v1.46c0 .36-.24.6-.6.6h-.74c-.31 0-.31.05 0 .1.29.05.41.26.26.53v.05c-.12.31-.24.55-.36.81-.24.53 0 .86.55.86h.43c.36 0 .6.24.6.6v1.48c0 .36-.24.6-.6.6h-2.52c-.36 0-.6.24-.6.6v.19c0 .36.24.6.6.6h2.28c.36 0 .6.24.6.6v1.56c0 .36-.24.6-.6.6h-1.13c-1.05 0-1.17.41-.34 1.01l1.1.84c.31.24.36.57.12.86h.01zm-3.4-11.88h-1.82c-.31 0-.43.19-.34.5.14.43.29.89.36 1.27.02.19-.07.34-.26.38l-.19.05c-.31.1-.29.14.02.14h2.68c.41 0 .43-.05.02-.14l-.29-.05c-.24-.05-.36-.24-.26-.46.14-.41.29-.84.41-1.27.07-.26-.07-.43-.34-.43l.01.01zm8.19.36v1.63c0 .36.24.6.6.6h5.63c.36 0 .6.24.6.6v1.87c0 .36-.24.6-.6.6h-.72c-.36 0-.6.24-.6.6v9.82c0 .36-.24.6-.6.6h-2.01c-.36 0-.6-.24-.6-.6v-9.82c0-.36-.24-.6-.6-.6h-.53c-.34 0-.57.24-.6.57-.12 3.09-.69 7.12-2.92 9.94-.29.38-.69.34-1.01-.02-.36-.41-.81-.84-1.25-1.17-.36-.29-.43-.67-.14-1.03 2.01-2.71 2.2-6.23 2.2-9.1v-7.14c0-.48.31-.69.77-.58l.81.22s.07.02.1.02h.34c1.82-.48 3.62-1.13 4.91-1.8h.05c.22-.1.48-.07.67.1l1.65 1.51c.41.36.34.74-.14.96-1.73.69-3.69 1.22-5.53 1.65-.29.05-.48.29-.48.58v-.01z" fill="#fff"/><path d="M237.623 18.6c3.47 3.47 3.47 9.09 0 12.55l-15.36 15.359c-3.469 3.47-9.089 3.47-12.549 0l-15.36-15.36c-3.47-3.47-3.47-9.09 0-12.55l15.36-15.359c3.47-3.47 9.09-3.47 12.549 0l15.36 15.36z" fill="#CF2027"/><path d="M215.984 49.748c-2.54 0-4.93-.99-6.73-2.79L193.894 31.6a9.432 9.432 0 01-2.79-6.72c0-2.54.99-4.93 2.79-6.73l15.36-15.36c1.8-1.8 4.19-2.79 6.73-2.79s4.93.99 6.719 2.79l15.36 15.36c3.71 3.71 3.71 9.74 0 13.449l-15.36 15.36a9.429 9.429 0 01-6.719 2.79zm0-48.478c-2.2 0-4.27.86-5.83 2.41l-15.36 15.36a8.183 8.183 0 00-2.41 5.83c0 2.2.86 4.27 2.41 5.829l15.36 15.36a8.183 8.183 0 005.83 2.41c2.2 0 4.27-.86 5.83-2.41l15.359-15.36c3.21-3.21 3.21-8.44 0-11.66L221.814 3.68a8.184 8.184 0 00-5.83-2.409z" fill="#58393E"/><path d="M234.533 19.489c2.97 2.97 2.97 7.79 0 10.77l-13.18 13.18a7.61 7.61 0 01-10.759 0l-13.18-13.18c-2.97-2.97-2.97-7.79 0-10.77l13.18-13.18c2.969-2.97 7.789-2.97 10.769 0l13.18 13.18h-.01z" fill="#F25252"/><path d="M215.983 45.978a7.87 7.87 0 01-5.609-2.32l-13.18-13.18a7.873 7.873 0 01-2.32-5.609c0-2.12.83-4.11 2.32-5.61l13.18-13.18a7.87 7.87 0 015.609-2.32c2.12 0 4.11.82 5.61 2.32l13.18 13.18c3.09 3.09 3.09 8.12 0 11.21l-13.18 13.18a7.873 7.873 0 01-5.61 2.32v.01zm0-41.578c-1.95 0-3.78.76-5.159 2.14l-13.18 13.18a7.246 7.246 0 00-2.14 5.16c0 1.949.76 3.779 2.14 5.159l13.18 13.18a7.242 7.242 0 005.159 2.14c1.95 0 3.78-.76 5.16-2.14l13.18-13.18c2.84-2.84 2.84-7.47 0-10.32l-13.18-13.18a7.247 7.247 0 00-5.16-2.14z" fill="#FBD5A2"/><path d="M225.824 15.32v16.41c0 1.51-.22 2.4-1.1 2.95-.79.48-1.82.6-3.19.62-.34 0-.58-.22-.62-.53-.12-.55-.29-1.17-.48-1.73-.19-.6.05-.93.67-.93.46.02.89.02 1.08 0h.05c.31 0 .41-.12.41-.43V28.4c0-.36-.24-.6-.6-.6h-1.72c-.31 0-.55.22-.6.53-.36 2.4-.98 4.82-2.16 6.68-.22.36-.57.38-.91.14-.48-.34-1.1-.69-1.63-.98-.19-.1-.41-.02-.58.12-.07.07-.17.14-.29.22l-.05.02c-.69.38-1.61.53-2.73.55-.31 0-.55-.22-.62-.53-.1-.5-.26-1.08-.46-1.58s.02-.79.53-.77h.89c.29 0 .38-.1.38-.38v-3.43c0-.36-.24-.6-.6-.6h-1.27c-.34 0-.57.22-.6.53-.29 2.37-.79 4.74-1.77 6.61-.22.36-.57.41-.91.17-.46-.31-.98-.62-1.49-.89-.36-.19-.48-.55-.26-.91 1.56-3.02 1.68-7.16 1.68-10.3v-7.69c0-.36.24-.6.6-.6h7.09c.36 0 .6.24.6.6v16.53l-.02.5c0 .29.07.31.19.05 1.51-3.11 1.63-7.09 1.63-10.11v-6.97c0-.36.24-.6.6-.6h7.67c.36 0 .6.24.6.6l-.01.01zm-15.58 9.56h1.49c.22 0 .36-.14.36-.36v-1.46c0-.22-.14-.36-.36-.36h-1.7c-.1 0-.14.05-.14.14v.14c0 .48 0 .98-.02 1.51 0 .24.14.38.38.38l-.01.01zm1.49-7.19h-1.49c-.22 0-.36.14-.36.36v1.41c0 .22.14.36.36.36h1.49c.22 0 .36-.14.36-.36v-1.41c0-.22-.14-.36-.36-.36zm8.67 7.19h1.87c.22 0 .36-.14.36-.36v-1.46c0-.22-.14-.36-.36-.36h-1.82c-.22 0-.36.14-.36.36 0 .46-.02.93-.05 1.44-.02.24.12.38.36.38zm1.87-7.19h-1.82c-.22 0-.36.14-.36.36v1.41c0 .22.14.36.36.36h1.82c.22 0 .36-.14.36-.36v-1.41c0-.22-.14-.36-.36-.36z" fill="#fff"/><path d="M278.602 18.6c3.469 3.47 3.469 9.09 0 12.55l-15.36 15.359c-3.47 3.47-9.09 3.47-12.55 0l-15.359-15.36c-3.47-3.47-3.47-9.09 0-12.55L250.692 3.24c3.47-3.47 9.09-3.47 12.55 0l15.36 15.36z" fill="#CF2027"/><path d="M256.962 49.748c-2.54 0-4.93-.99-6.73-2.79L234.873 31.6a9.432 9.432 0 01-2.79-6.72c0-2.54.99-4.93 2.79-6.73l15.359-15.36c1.8-1.8 4.19-2.79 6.73-2.79s4.93.99 6.72 2.79l15.36 15.36c3.709 3.71 3.709 9.74 0 13.449l-15.36 15.36a9.433 9.433 0 01-6.72 2.79zm0-48.478c-2.2 0-4.27.86-5.83 2.41l-15.359 15.36a8.183 8.183 0 00-2.41 5.83c0 2.2.86 4.27 2.41 5.829l15.359 15.36a8.183 8.183 0 005.83 2.41c2.2 0 4.27-.86 5.83-2.41l15.36-15.36c3.209-3.21 3.209-8.44 0-11.66l-15.36-15.36a8.184 8.184 0 00-5.83-2.409z" fill="#58393E"/><path d="M275.511 19.489c2.97 2.97 2.97 7.79 0 10.77l-13.179 13.18a7.611 7.611 0 01-10.76 0l-13.18-13.18c-2.969-2.97-2.969-7.79 0-10.77l13.18-13.18c2.97-2.97 7.79-2.97 10.77 0l13.179 13.18h-.01z" fill="#F25252"/><path d="M256.962 45.978c-2.12 0-4.11-.82-5.61-2.32l-13.18-13.18a7.876 7.876 0 01-2.319-5.609c0-2.12.83-4.11 2.319-5.61l13.18-13.18c1.5-1.5 3.49-2.32 5.61-2.32s4.11.82 5.61 2.32l13.179 13.18c3.09 3.09 3.09 8.12 0 11.21l-13.179 13.18a7.873 7.873 0 01-5.61 2.32v.01zm0-41.578c-1.95 0-3.78.76-5.16 2.14l-13.18 13.18a7.245 7.245 0 00-2.139 5.16c0 1.949.759 3.779 2.139 5.159l13.18 13.18a7.246 7.246 0 005.16 2.14c1.95 0 3.78-.76 5.16-2.14l13.179-13.18c2.84-2.84 2.84-7.47 0-10.32L262.122 6.54a7.247 7.247 0 00-5.16-2.14z" fill="#FBD5A2"/><path d="M263.182 22.15l1.63.69c.29.12.43.38.34.69-.74 2.47-1.77 4.55-3.14 6.23-.29.36-.22.72.19.91 1.25.599 2.64 1.049 4.22 1.409.689.14.809.55.379 1.1-.429.55-.859 1.22-1.169 1.77-.14.24-.41.36-.67.29-2.2-.55-4.1-1.32-5.73-2.35a.587.587 0 00-.67 0c-1.44.96-3.02 1.75-4.77 2.35-.31.1-.6-.02-.74-.29-.26-.5-.62-1.05-.98-1.56-.36-.5-.24-.89.34-1.08 1.2-.38 2.3-.89 3.31-1.48.36-.22.38-.58.12-.91-.5-.6-.98-1.27-1.44-1.96-.43-.67-.84-.65-1.15.1-.93 2.18-2.2 4.29-3.95 6.08-.29.29-.65.24-.91-.05-.48-.5-1.05-1.01-1.7-1.44-.41-.29-.46-.67-.07-1.03 3.19-2.99 4.55-7.09 5.2-10.71.07-.41-.17-.69-.57-.69h-3.69c-.36 0-.6-.24-.6-.6v-2.01c0-.36.24-.6.6-.6h4.17c.34 0 .57-.22.57-.55.05-.79.07-1.49.1-2.06 0-.34.24-.55.57-.55h2.28c.38 0 .62.24.6.62 0 .55-.05 1.17-.1 1.89-.02.38.22.65.62.65h9.97c.36 0 .599.24.599.6v2.01c0 .36-.239.6-.599.6h-10.47c-.31 0-.55.19-.6.48-.02.26-.07.5-.12.77-.07.43.14.72.6.72h6.71l.38-.07a.72.72 0 01.36.02l-.02.01zm-2.92 3.23h-3.31c-.36 0-.5.22-.29.53a14 14 0 001.82 2.25c.17.14.36.14.5-.02.6-.69 1.13-1.44 1.58-2.25.17-.29.02-.5-.31-.5l.01-.01z" fill="#fff"/></svg>