<svg width="736" height="100" viewBox="0 0 736 100" fill="none" xmlns="http://www.w3.org/2000/svg"><g clip-path="url(#clip0_1259_5925)"><path d="M1.5 50.56c0-5.01 2.11-9.84 6.11-13.97l22.25-22.95c6.49-6.7 17.21-10.7 28.68-10.7h621.47c12.14 0 23.57 4.58 29.82 11.96l19.46 22.96c3.25 3.84 4.97 8.23 4.97 12.71s-1.72 8.87-4.97 12.71l-19.46 22.96c-6.26 7.38-17.68 11.96-29.82 11.96H58.54c-11.47 0-22.19-4-28.68-10.7L7.61 64.53c-4-4.13-6.11-8.96-6.11-13.97z" fill="#D93636"/><path d="M680.02 99.68H58.54c-11.87 0-22.99-4.17-29.76-11.16L6.54 65.56C2.26 61.15 0 55.96 0 50.55s2.26-10.6 6.54-15.01L28.78 12.6c6.77-6.99 17.9-11.16 29.76-11.16h621.47c12.57 0 24.44 4.79 30.97 12.49l19.46 22.96c3.49 4.11 5.33 8.84 5.33 13.68s-1.84 9.57-5.33 13.68l-19.46 22.96c-6.53 7.7-18.4 12.49-30.97 12.49l.01-.02zM58.54 4.44c-11.07 0-21.39 3.83-27.6 10.24L8.7 37.64c-3.72 3.84-5.69 8.31-5.69 12.92 0 4.61 1.97 9.08 5.69 12.92l22.24 22.96c6.22 6.42 16.54 10.24 27.6 10.24h621.47c11.71 0 22.7-4.38 28.68-11.43l19.46-22.96c3.02-3.56 4.62-7.62 4.62-11.74s-1.6-8.17-4.62-11.74l-19.46-22.96c-5.98-7.05-16.97-11.43-28.68-11.43H58.54v.02z" fill="#58393E"/><path d="M37.97 83.53L15.73 60.57c-5.85-6.03-5.85-14 0-20.03l22.24-22.96c4.65-4.8 12.35-7.67 20.57-7.67h621.469c8.76 0 16.87 3.25 21.39 8.58l19.46 22.96c4.75 5.61 4.75 12.62 0 18.22l-19.46 22.96c-4.51 5.32-12.63 8.58-21.39 8.58H58.539c-8.22 0-15.91-2.87-20.57-7.67v-.01z" fill="#F25252"/><path d="M680.019 92.21H58.539c-8.49 0-16.45-2.98-21.29-7.98L15.01 61.27c-6.21-6.41-6.21-15.01 0-21.42l22.24-22.96c4.84-4.99 12.8-7.98 21.29-7.98h621.47c8.99 0 17.48 3.42 22.15 8.93l19.46 22.96c5.1 6.02 5.1 13.5 0 19.52l-19.46 22.96c-4.67 5.51-13.16 8.93-22.15 8.93h.01zM58.539 10.92c-7.96 0-15.38 2.75-19.85 7.37L16.45 41.25c-5.49 5.66-5.49 12.98 0 18.64l22.24 22.96c4.47 4.62 11.89 7.37 19.85 7.37h621.47c8.42 0 16.32-3.15 20.62-8.22l19.46-22.96c4.43-5.22 4.43-11.71 0-16.93l-19.46-22.96c-4.3-5.07-12.2-8.22-20.62-8.22H58.539v-.01z" fill="#FBD5A2"/><path d="M34.19 55.2a4.25 4.25 0 100-8.5 4.25 4.25 0 000 8.5zm669.47 0a4.25 4.25 0 100-8.5 4.25 4.25 0 000 8.5z" fill="#FBD5A2"/><path d="M62.78 41.11c0-1.63 1.28-2.78 3.1-2.78s3.07 1.15 3.07 2.78-1.28 2.75-3.07 2.75c-1.79 0-3.1-1.15-3.1-2.75zm.38 21.67V47.07c0-.48.32-.8.8-.8h3.81c.48 0 .8.32.8.8v15.71c0 .48-.32.8-.8.8h-3.81c-.48 0-.8-.32-.8-.8zm9.479-7.84c0-5.73 4.26-9.09 9.09-9.09 1.82 0 3.26.54 4.48 1.41.35.26.42.67.13 1.06l-1.57 2.14c-.32.42-.77.48-1.18.22-.54-.32-1.02-.45-1.54-.45-2.4 0-3.87 1.82-3.87 4.7s1.54 4.67 3.68 4.67c.8 0 1.57-.29 2.24-.7.48-.29.96-.19 1.22.29l1.31 2.21c.19.35.13.77-.19.99-1.6 1.15-3.55 1.6-5.18 1.6-4.86 0-8.61-3.33-8.61-9.06l-.01.01zm17.471 3.8c0-3.49 2.62-5.47 8.83-6.27.45-.06.77-.42.61-.86-.29-.9-1.06-1.44-2.46-1.44-1.18 0-2.37.38-3.78 1.15-.45.22-.9.1-1.12-.35l-1.15-2.18c-.22-.42-.1-.83.32-1.06 2.08-1.12 4.32-1.89 6.75-1.89 4.479 0 7.009 2.5 7.009 7.9v9.02c0 .48-.32.8-.8.8h-3.01c-.35 0-.67-.22-.77-.61l-.06-.26c-.13-.51-.48-.61-.9-.29-1.28.96-2.72 1.57-4.35 1.57-3.2 0-5.12-2.37-5.12-5.25v.02zm9.47-.19c.06-.06.13-.19.13-.32v-2.02c0-.32-.22-.51-.54-.48-2.98.48-3.94 1.44-3.94 2.59 0 .99.74 1.47 1.86 1.47 1.02 0 1.73-.45 2.5-1.25l-.01.01zm9.7 3.46c-.35-.26-.42-.67-.16-1.06l1.5-2.08c.29-.42.74-.45 1.15-.19 1.31.9 2.53 1.34 3.71 1.34 1.41 0 2.02-.51 2.02-1.38 0-1.02-1.66-1.5-3.42-2.21-2.08-.83-4.51-2.24-4.51-5.09 0-3.3 2.69-5.5 6.69-5.5 2.37 0 4.16.8 5.57 1.76.38.26.45.7.16 1.09l-1.5 1.98c-.26.35-.7.42-1.09.19-.99-.61-1.98-1.02-2.94-1.02-1.22 0-1.82.42-1.82 1.25 0 1.02 1.6 1.41 3.39 2.05 2.14.83 4.54 2.08 4.54 5.22 0 3.14-2.5 5.63-7.2 5.63-2.02 0-4.35-.77-6.08-1.98h-.01zm17.31.77V40.09c0-.48.32-.8.8-.8h3.81c.48 0 .8.32.8.8v5.02l-.13 1.54c-.06.93.32 1.09 1.06.58 1.09-.77 2.43-1.38 4.1-1.38 3.78 0 5.38 2.72 5.38 7.04v9.89c0 .48-.32.8-.8.8h-3.81c-.48 0-.8-.32-.8-.8v-9.25c0-2.37-.64-3.04-1.98-3.04-1.12 0-1.82.45-2.75 1.31-.16.13-.26.35-.26.58v10.4c0 .48-.32.8-.8.8h-3.81c-.48 0-.8-.32-.8-.8h-.01zm30.529 0V41.76c0-.48.32-.8.8-.8h7.14c4.96 0 9.09 1.76 9.09 7.36 0 5.6-4.16 7.74-8.96 7.74h-1.82c-.48 0-.8.32-.8.8v5.92c0 .48-.32.8-.8.8h-3.84c-.48 0-.8-.32-.8-.8h-.01zm5.92-11.01h1.89c2.66 0 3.9-1.25 3.9-3.46s-1.44-3.07-4.06-3.07h-1.73c-.29 0-.48.19-.48.48v5.57c0 .29.19.48.48.48zm14.82 6.97c0-3.49 2.62-5.47 8.83-6.27.45-.06.77-.42.61-.86-.29-.9-1.06-1.44-2.46-1.44-1.18 0-2.37.38-3.78 1.15-.45.22-.9.1-1.12-.35l-1.15-2.18c-.22-.42-.1-.83.32-1.06 2.08-1.12 4.32-1.89 6.75-1.89 4.48 0 7.01 2.5 7.01 7.9v9.02c0 .48-.32.8-.8.8h-3.01c-.35 0-.67-.22-.77-.61l-.06-.26c-.13-.51-.48-.61-.9-.29-1.28.96-2.72 1.57-4.35 1.57-3.2 0-5.12-2.37-5.12-5.25v.02zm9.47-.19c.06-.06.13-.19.13-.32v-2.02c0-.32-.22-.51-.54-.48-2.98.48-3.94 1.44-3.94 2.59 0 .99.74 1.47 1.86 1.47 1.02 0 1.73-.45 2.5-1.25l-.01.01zm11.04 11.52c-.48-.06-.7-.45-.58-.93l.64-2.78c.06-.35.35-.51.7-.45l.58.1h.06c1.6 0 2.43-.86 2.85-2.08l.16-.61c.03-.16.03-.35-.03-.51l-6.11-15.46c-.26-.64.06-1.09.77-1.09h3.68c.35 0 .64.22.77.54l2.14 6.66c.51 1.57.86 3.17 1.31 4.9h.16c.35-1.66.74-3.26 1.12-4.9l1.86-6.62c.1-.35.42-.58.77-.58h3.42c.67 0 .96.42.77 1.06l-5.6 16.29c-1.7 4.45-3.55 6.62-7.65 6.62-.74 0-1.31-.06-1.79-.16zm45.441-24.41h-9.92c-.29 0-.54.16-.67.38l-.03.06-.13.19s0 .03-.03.06c-.19.38-.03.64.45.64h7.26c.48 0 .8.32.8.8v17.85c0 .48-.32.8-.8.8h-3.17c-.38 0-.64-.26-.64-.61 0-.38-.26-.64-.61-.64h-11.71c-.38 0-.64.26-.64.64 0 .35-.26.61-.61.61h-3.01c-.48 0-.8-.32-.8-.8V47.79c0-.48.32-.8.8-.8h6.72c.35 0 .7-.29.8-.61.1-.38-.16-.74-.58-.74h-9.66c-.48 0-.8-.32-.8-.8v-2.46c0-.48.32-.8.8-.8h4.13c.93 0 1.18-.51.64-1.22l-.38-.48c-.45-.51-.32-1.02.29-1.28l2.46-1.09c.29-.13.64-.1.86.13.8.8 1.63 1.76 2.24 2.59.26.38.16.77-.26.99-.42.22-.38.35.1.35h5.15c.26 0 .54-.16.67-.38.58-.96 1.18-2.08 1.6-3.1.16-.35.51-.54.93-.48l3.3.67c.7.13.9.64.48 1.22l-.58.77c-.58.8-.32 1.31.64 1.31h3.9c.48 0 .8.32.8.8v2.46c0 .48-.32.8-.8.8l.01.02zm-6.88 5.88v-.26c0-.29-.19-.48-.48-.48h-12c-.29 0-.48.19-.48.48v.26c0 .29.19.48.48.48h12c.29 0 .48-.19.48-.48zm-12.96 4.29v.35c0 .29.19.48.48.48h12c.29 0 .48-.19.48-.48v-.35c0-.29-.19-.48-.48-.48h-12c-.29 0-.48.19-.48.48zm.48 5.6h12c.29 0 .48-.19.48-.48v-.48c0-.29-.19-.48-.48-.48h-12c-.29 0-.48.19-.48.48v.48c0 .29.19.48.48.48zm63.429-11.55l-1.63 2.14c-.35.45-.83.48-1.25.1-1.06-.9-2.56-1.92-3.97-2.72-.51-.29-.61-.77-.26-1.22l1.5-1.89c.22-.29.61-.38.96-.19 1.54.74 3.33 1.79 4.54 2.72.32.29.35.7.1 1.06h.01zm-3.78 15.97l-2.53-1.82c-.35-.26-.45-.7-.19-1.09 1.28-2.11 2.98-5.09 4.42-8.1.29-.54.77-.67 1.25-.29l1.98 1.63c.26.22.35.61.22.93a128.19 128.19 0 01-4 8.45c-.26.51-.7.61-1.15.29zm-1.92-25.7l1.54-1.89c.22-.29.61-.38.96-.19 1.5.74 3.26 1.79 4.45 2.72.32.29.35.7.06 1.06l-1.7 2.08c-.35.45-.83.45-1.25.1-.99-.86-2.5-1.86-3.84-2.66-.48-.29-.58-.77-.22-1.22zm13.57 3.97l-2.5 1.15c-.54.26-.99.03-1.18-.51-.42-1.18-1.09-2.62-1.82-3.87-.29-.48-.13-.96.38-1.18l2.27-1.02c.35-.16.77-.03.99.29.86 1.34 1.76 2.91 2.24 4.22.16.38-.03.77-.38.93v-.01zm11.8 2.66v15.13c0 1.98-.38 3.14-1.63 3.81-1.15.58-2.66.67-4.58.7-.42 0-.74-.29-.83-.67-.13-.7-.35-1.47-.61-2.18-.29-.77 0-1.25.86-1.22.8.03 1.57.03 1.86.03.45-.03.61-.16.61-.54v-.51c0-.32-.19-.51-.51-.51h-6.85c-.48 0-.8.32-.8.8v3.97c0 .48-.32.8-.8.8h-2.72c-.48 0-.8-.32-.8-.8V46.78c0-.48.32-.8.8-.8h4.67c.48 0 .8-.32.8-.8v-6.82c0-.48.32-.8.8-.8h2.88c.48 0 .8.32.8.8v6.82c0 .48.32.8.8.8h4.45c.48 0 .8.32.8.8zm-4.8 3.29h-7.2c-.29 0-.48.19-.48.48v.7c0 .29.19.48.48.48h7.2c.29 0 .48-.19.48-.48v-.7c0-.29-.19-.48-.48-.48zm-7.19 7.07h7.2c.29 0 .48-.19.48-.48v-.77c0-.29-.19-.48-.48-.48h-7.2c-.29 0-.48.19-.48.48v.77c0 .29.19.48.48.48zm9.88-18.68l2.69.93c.51.16.7.61.48 1.09-.74 1.63-1.47 3.17-2.18 4.38-.19.35-.58.48-.93.35l-2.37-.86c-.51-.19-.7-.64-.45-1.12.58-1.25 1.25-2.82 1.7-4.22.16-.48.58-.7 1.06-.54v-.01zm31.011 23.29h-.99c-1.09 0-1.12.22-.1.61 1.28.45 2.56.93 3.65 1.38 1.02.42 1.02 1.02-.03 1.44l-2.91 1.18c-.22.1-.48.1-.7-.03-1.44-.77-3.78-1.82-6.18-2.72-.77-.29-.83-.74-.13-1.15.7-.42.61-.7-.19-.7h-4.58c-.77 0-.8.22-.1.51.67.32.7.83.03 1.18-2.34 1.22-5.38 2.3-8 3.01-.29.06-.61-.03-.8-.26-.42-.45-.93-.99-1.47-1.54-.8-.77-.64-1.34.48-1.57 1.28-.22 2.59-.54 3.74-.86.93-.26.86-.48-.06-.48h-.77c-.48 0-.8-.32-.8-.8v-7.01c0-.58-.38-.9-.96-.8l-.42.06a.872.872 0 01-.9-.48c-.26-.51-.58-1.09-.93-1.6-.51-.77-.32-1.31.64-1.44 2.11-.29 3.65-.67 4.74-1.18.51-.22.45-.45-.1-.45h-.83l-.13.1-.06.03c-.06.03-.13.06-.19.06l-2.66-.16c-.7-.03-.96-.48-.74-1.12.51-1.31 1.02-2.85 1.44-4.26.1-.35.42-.58.77-.58h4.61c.26 0 .45-.19.45-.45s-.19-.45-.45-.45h-5.41c-.48 0-.8-.32-.8-.8v-.9c0-.48.32-.8.8-.8h5.28c.35 0 .58-.22.58-.58s.22-.58.58-.58h2.82c.35 0 .58.22.58.58s.22.58.58.58h1.54c.35 0 .58-.22.58-.58s.22-.58.58-.58h3.01c.35 0 .58.22.58.58s.22.58.58.58h4.93c.48 0 .8.32.8.8v4.29c0 .48-.32.8-.8.8h-5.02c-.29 0-.48.19-.48.45 0 .29.19.48.48.48h7.26a.5.5 0 01.51.51v.54c-.13 2.05-.32 3.23-.86 3.87-.48.54-1.25.77-1.92.83h-.16l-.06.1c-.06.06-.1.16-.1.22v9.31c0 .48-.32.8-.8.8l-.03.03zm-17.63-16.8l-.06.13c-.1.29.03.48.32.48h1.7c.22 0 .42-.16.45-.38v-.06c.06-.29-.13-.48-.42-.48h-1.54c-.22 0-.38.13-.45.32v-.01zm13.5 7.33h-11.07c-.26 0-.42.16-.42.42s.16.42.42.42h11.07c.26 0 .42-.16.42-.42s-.16-.42-.42-.42zm0 3.07h-11.04c-.29 0-.45.16-.45.42 0 .29.16.45.45.45h11.04c.26 0 .42-.16.42-.45 0-.26-.16-.42-.42-.42zm-.03 3.11h-11.01c-.26 0-.45.19-.45.45s.19.45.45.45h11.01c.26 0 .45-.19.45-.45s-.19-.45-.45-.45zm-4.83-10.4H325c-.19 0-.35.13-.45.29-.1.26-.22.48-.38.7-.35.51-.22.83.42.83h2.88c.29 0 .48-.19.48-.48v-.86c0-.29-.19-.48-.48-.48h-.01zm.48-2.98c0-.26-.19-.45-.45-.45h-1.76c-.29 0-.48.19-.48.45l-.03.03c0 .26.19.45.48.45h1.79c.26 0 .45-.19.45-.48zm-2.69-3.39c0 .26.19.45.45.45h1.79c.26 0 .45-.19.45-.45s-.19-.45-.45-.45h-1.79c-.26 0-.45.19-.45.45zm8.71-.45h-1.41c-.26 0-.45.19-.45.45s.19.45.45.45h1.41c.26 0 .45-.19.45-.45s-.19-.45-.45-.45zm1.82 6.82h-3.2c-.29 0-.48.19-.48.48v.86c0 .29.19.48.48.48h1.09c.35 0 .54-.22.42-.58-.13-.32-.03-.51.35-.48.32.03.61.06.83.03h.06c.16 0 .32 0 .48-.13.06-.03.1-.1.13-.16l.06-.22c.06-.16-.03-.29-.22-.29v.01zm18.779 10.65c-.45 0-.61.26-.35.64.74 1.22 1.47 2.56 1.95 3.68.19.38.03.8-.38.99l-1.86.86c-.51.26-.96.06-1.15-.48-.32-.83-.77-1.79-1.28-2.72-.48-.9-1.06-.83-1.44.13-.7 1.57-1.54 3.04-2.43 4.16-.29.35-.7.38-1.09.13-.51-.35-1.15-.77-1.73-1.12-.58-.35-.64-.83-.22-1.38.96-1.18 1.76-2.69 2.27-4.22.16-.38-.06-.67-.48-.67-.45 0-.74-.29-.74-.74V39.51c0-.48.32-.8.8-.8h8.1c.48 0 .8.32.8.8v18.43c0 .45-.32.77-.77.77zm-3.64 1.09l1.25-.51c.8-.35.77-.58-.13-.58h-2.94c-1.12 0-1.15.19-.03.45l1.7.42c.06.03.1.1.1.16-.03.06 0 .1.06.06h-.01zm-1.57-17.15v1.25c0 .29.19.48.48.48h1.18c.29 0 .48-.19.48-.48v-1.25c0-.29-.19-.48-.48-.48h-1.18c-.29 0-.48.19-.48.48zm0 5.41v1.28c0 .29.19.48.48.48h1.18c.29 0 .48-.19.48-.48v-1.28c0-.29-.19-.48-.48-.48h-1.18c-.29 0-.48.19-.48.48zm0 5.4v1.31c0 .29.19.48.48.48h1.18c.29 0 .48-.19.48-.48v-1.31c0-.29-.19-.48-.48-.48h-1.18c-.29 0-.48.19-.48.48zm21.6-11.03h.48c.48 0 .8.32.8.8v9.47c0 .48-.32.8-.8.8h-14.43c-.48 0-.8-.32-.8-.8v-9.47c0-.48.32-.8.8-.8h.35c.7 0 .99-.42.74-1.06-.22-.51-.48-1.02-.74-1.54s-.1-.96.45-1.15l2.18-.8c.35-.13.7-.03.93.29.58.96 1.18 2.08 1.54 3.01.16.38 0 .77-.42.93-.45.16-.45.32 0 .32h4.13c.45 0 .45-.1.06-.22-.42-.13-.54-.48-.35-.86.48-.93.99-2.05 1.38-3.04.16-.45.54-.64.99-.51l2.69.74c.58.19.77.64.48 1.15-.35.61-.7 1.15-1.02 1.66-.42.67-.19 1.09.58 1.09l-.02-.01zm-13.51 23.23V55.32c0-.48.32-.8.8-.8h12.13c.48 0 .8.32.8.8v10.34c0 .48-.32.8-.8.8h-3.01c-.22 0-.38-.16-.38-.35 0-.22-.16-.38-.35-.38h-4.83c-.22 0-.38.16-.38.38 0 .19-.16.35-.35.35h-2.82c-.48 0-.8-.32-.8-.8h-.01zm4.1-20.23h-1.09c-.29 0-.48.19-.48.48v.19c0 .29.19.48.48.48h1.09c.29 0 .48-.19.48-.48v-.19c0-.29-.19-.48-.48-.48zm-1.57 4.32v.26c0 .29.19.48.48.48h1.09c.29 0 .48-.19.48-.48v-.26c0-.29-.19-.48-.48-.48h-1.09c-.29 0-.48.19-.48.48zm6.56 7.97h-4.67c-.26 0-.45.19-.45.45s.19.45.45.45h4.67c.26 0 .45-.19.45-.45s-.19-.45-.45-.45zm-4.64 4.9h4.61c.29 0 .48-.19.48-.48s-.19-.48-.48-.48h-4.61c-.29 0-.48.19-.48.48s.19.48.48.48zm6.37-16.51v-.19c0-.29-.19-.48-.48-.48h-1.38c-.29 0-.48.19-.48.48v.19c0 .29.19.48.48.48h1.38c.29 0 .48-.19.48-.48zm0 3.9v-.26c0-.29-.19-.48-.48-.48h-1.38c-.29 0-.48.19-.48.48v.26c0 .29.19.48.48.48h1.38c.29 0 .48-.19.48-.48z" fill="#fff"/><path d="M377.459 63.2l6.43-4.05c1.19 2.7 3.51 4.27 6.43 4.27s5.18-2.05 5.18-4.81c0-3.29-2.16-4.7-5.72-4.7h-5.13c-3.73 0-5.94-2.21-5.94-5.89v-14.8h22.41v6.86l-15.5.05v7.02h5.45c7.56 0 12.15 3.51 12.15 10.96 0 7.45-5.29 12.15-12.91 12.15-5.83 0-10.58-2.59-12.85-7.07v.01zm8.15-16.03v.16c0-.05.05-.11 0-.16z" fill="url(#paint0_linear_1259_5925)"/><path d="M407.91 51.43c0-10.96 6.21-18.9 15.44-18.9s15.44 7.94 15.44 18.9c0 10.96-6.16 18.9-15.44 18.9s-15.44-8.32-15.44-18.9zm22.79 0c0-6.37-3.24-10.85-7.34-10.85s-7.34 4.48-7.34 10.85c0 5.99 3.29 10.85 7.34 10.85s7.34-4.86 7.34-10.85z" fill="url(#paint1_linear_1259_5925)"/><path d="M450.049 61.99c-.04-.26.09-.39.35-.44l2.14-.26c.61-.09 1.09.26 1.18.87.26 1.79.48 3.76.57 5.37 0 .57-.39 1-.96 1.09l-1.53.17c-.74.09-1.22-.39-1.27-1.18 0-.52 0-1.09-.04-1.66-.13-1.79-.48-1.79-.96-.09-.44 1.49-.96 2.88-1.75 3.97-.31.39-.83.52-1.27.31l-1.92-.96c-.74-.35-.87-1.05-.44-1.75.87-1.4 1.48-3.14 1.92-4.93.13-.74.7-1.09 1.4-.83l2.18.65c.26.09.39-.04.39-.26v-.09l.01.02zM482.059 45h-5.42c-.65 0-1.09.44-1.09 1.09v3.45c0 .65.44 1.09 1.09 1.09h4.11c.65 0 1.09.44 1.09 1.09v17.51c0 .66-.44 1.09-1.09 1.09h-3.97c-.39 0-.66-.26-.66-.61 0-.39-.26-.66-.61-.66h-4.89c-.44 0-.7.26-.7.7 0 .44-.26.7-.7.7h-3.62c-.66 0-1.09-.44-1.09-1.09v-1.05c0-.96-.61-1.4-1.48-1l-.74.26c-.7.31-1.31 0-1.53-.74-.44-1.4-1.09-3.01-1.83-4.5-.35-.7-.13-1.31.61-1.57l.52-.17c1-.35.96-.57-.13-.52-5.11.26-10.22.48-14.28.61-.66.04-1.09-.39-1.14-1.05l-.09-2.84c-.04-.66.39-1.09 1.05-1.09l5.55-.13c.35 0 .61-.26.61-.66 0-.35-.26-.61-.61-.61h-4.41c-.65 0-1.09-.44-1.09-1.09V50.9c0-.66.44-1.09 1.09-1.09h4.45c.35 0 .57-.22.57-.61 0-.35-.22-.57-.57-.57h-4.72c-.66 0-1.09-.44-1.09-1.09V33.3c0-.65.44-1.09 1.09-1.09h16.16c.65 0 1.09.44 1.09 1.09v14.24c0 .65-.44 1.09-1.09 1.09h-4.98c-.39 0-.61.22-.61.57 0 .39.22.61.61.61h4.63c.66 0 1.09.44 1.09 1.09v2.31c0 .66-.44 1.09-1.09 1.09h-4.67c-.35 0-.57.22-.57.52 0 .35.22.57.52.57l5.37-.13c.65-.04 1.14.44 1.14 1.09l-.09 2.49c0 .61-.39 1.05-1 1.05-.61.04-.79.44-.48.96.35.57.7 1.18 1 1.79.79 1.62 1.14 1.57 1.14-.26V51.72c0-.66.44-1.09 1.09-1.09h3.06c.66 0 1.09-.44 1.09-1.09V32.25c0-.66.44-1.09 1.09-1.09h3.62c.65 0 1.09.44 1.09 1.09v6.11c0 .65.44 1.09 1.09 1.09h5.42c.65 0 1.09.44 1.09 1.09v3.36c0 .66-.44 1.09-1.09 1.09V45zm-30.22-8.82h-1.53c-.39 0-.66.26-.66.66v.09c0 .44.26.66.7.52l.52-.17c.35-.09.7.04.83.44.13.39.26.83.35 1.27.31 1.09.44 1.09.44-.09v-2.05c0-.39-.26-.66-.66-.66l.01-.01zm-2.18 5.42V44c0 .39.26.66.66.66h1.53c.39 0 .66-.26.66-.66v-.22c0-.52-.35-.74-.83-.57l-.52.17c-.48.17-.83-.04-.92-.57-.04-.39-.09-.83-.17-1.27-.22-1.27-.39-1.22-.39.04l-.02.02zm5.76 19.65l1.35-.22c.57-.13 1.05.17 1.22.7.48 1.66.96 3.58 1.22 5.11.09.61-.26 1.09-.83 1.22l-1.44.26c-.79.17-1.27-.26-1.4-1-.17-1.44-.57-3.14-1-4.67-.22-.7.13-1.27.87-1.4h.01zm3.54-24.33v-.09c0-.39-.26-.66-.65-.66h-1.62c-.39 0-.66.26-.66.66v2.31c0 1.31.26 1.35.61.09.13-.48.22-.96.35-1.4.09-.44.44-.66.83-.52l.39.13c.44.17.74-.04.74-.52h.01zm-2.27 7.73h1.62c.39 0 .65-.26.65-.66v-1.83c0-1-.26-1.05-.61-.09-.17.35-.31.7-.44 1.05-.13.31-.48.44-.83.31l-.26-.13c-.48-.17-.79.04-.79.52v.17c0 .39.26.66.66.66zm19.43 18.34v-6.25c0-.39-.26-.65-.65-.65h-4.89c-.39 0-.66.26-.66.65v6.25c0 .39.26.66.66.66h4.89c.39 0 .65-.26.65-.66z" fill="url(#paint2_linear_1259_5925)"/><path d="M488.639 52.15c0-7.42 4.22-11.62 10.37-11.62 6.15 0 10.37 4.22 10.37 11.62 0 7.4-4.19 11.84-10.37 11.84-6.18 0-10.37-4.42-10.37-11.84zm15.2 0c0-4.38-1.86-6.98-4.83-6.98-2.97 0-4.8 2.59-4.8 6.98 0 4.39 1.82 7.17 4.8 7.17 2.98 0 4.83-2.75 4.83-7.17zm10.11 10.63V41.76c0-.48.32-.8.8-.8h7.14c4.96 0 9.09 1.76 9.09 7.36 0 5.6-4.16 7.74-8.96 7.74h-1.82c-.48 0-.8.32-.8.8v5.92c0 .48-.32.8-.8.8h-3.84c-.48 0-.8-.32-.8-.8h-.01zm5.92-11.01h1.89c2.66 0 3.9-1.25 3.9-3.46s-1.44-3.07-4.06-3.07h-1.73c-.29 0-.48.19-.48.48v5.57c0 .29.19.48.48.48zm15.24 11.01V41.76c0-.48.32-.8.8-.8h12.74c.48 0 .8.32.8.8v2.91c0 .48-.32.8-.8.8h-7.3c-.48 0-.8.32-.8.8v2.59c0 .48.32.8.8.8h5.95c.48 0 .8.32.8.8v2.94c0 .48-.32.8-.8.8h-5.95c-.48 0-.8.32-.8.8v3.2c0 .48.32.8.8.8h7.65c.48 0 .8.32.8.8v2.98c0 .48-.32.8-.8.8h-13.09c-.48 0-.8-.32-.8-.8zm19.45 0V41.76c0-.48.32-.8.8-.8h4.26c.29 0 .58.16.7.45l5.38 10.37 1.15 2.5c.7 1.54 1.02 1.44.83-.22-.16-1.86-.32-3.84-.32-5.6v-6.69c0-.48.32-.8.8-.8h3.55c.48 0 .8.32.8.8v21.02c0 .48-.32.8-.8.8h-4.26a.75.75 0 01-.7-.45l-5.38-10.46-2.21-4.96h-.16c.26 2.53.7 5.63.7 8.35v6.72c0 .48-.32.8-.8.8h-3.55c-.48 0-.8-.32-.8-.8l.01-.01zm23.589 0V41.76c0-.48.32-.8.8-.8h7.14c4.96 0 9.09 1.76 9.09 7.36 0 5.6-4.16 7.74-8.96 7.74h-1.82c-.48 0-.8.32-.8.8v5.92c0 .48-.32.8-.8.8h-3.84c-.48 0-.8-.32-.8-.8h-.01zm5.92-11.01h1.89c2.66 0 3.9-1.25 3.9-3.46s-1.44-3.07-4.06-3.07h-1.73c-.29 0-.48.19-.48.48v5.57c0 .29.19.48.48.48zm14.301.38c0-7.42 4.22-11.62 10.37-11.62 6.15 0 10.37 4.22 10.37 11.62 0 7.4-4.19 11.84-10.37 11.84-6.18 0-10.37-4.42-10.37-11.84zm15.2 0c0-4.38-1.86-6.98-4.83-6.98-2.97 0-4.8 2.59-4.8 6.98 0 4.39 1.82 7.17 4.8 7.17 2.98 0 4.83-2.75 4.83-7.17zm9.861 10.63V41.76c0-.48.32-.8.8-.8h3.84c.48 0 .8.32.8.8v21.02c0 .48-.32.8-.8.8h-3.84c-.48 0-.8-.32-.8-.8zm10.719 0V41.76c0-.48.32-.8.8-.8h4.26c.29 0 .58.16.7.45l5.38 10.37 1.15 2.5c.7 1.54 1.02 1.44.83-.22-.16-1.86-.32-3.84-.32-5.6v-6.69c0-.48.32-.8.8-.8h3.55c.48 0 .8.32.8.8v21.02c0 .48-.32.8-.8.8h-4.26a.75.75 0 01-.7-.45l-5.38-10.46-2.21-4.96h-.16c.26 2.53.7 5.63.7 8.35v6.72c0 .48-.32.8-.8.8h-3.55c-.48 0-.8-.32-.8-.8l.01-.01zm27.93 0V46.27c0-.48-.32-.8-.8-.8h-4.51c-.48 0-.8-.32-.8-.8v-2.91c0-.48.32-.8.8-.8h16.06c.48 0 .8.32.8.8v2.91c0 .48-.32.8-.8.8h-4.51c-.48 0-.8.32-.8.8v16.51c0 .48-.32.8-.8.8h-3.84c-.48 0-.8-.32-.8-.8zM266.29 51.96h-1.52c-.3 0-.52.32-.54.77 0 .23-.02.48-.02.71-.02.52.2.87.54.87h2.02c.33 0 .54.32.54.8v2.48c0 .48-.22.8-.54.8h-2.59c-.26 0-.48.26-.54.61-.52 2.93-1.3 4.67-2.93 6.93-.22.32-.59.29-.9.14-.31-.15-.98-.59-1.48-1.17-.39-.42-.39-.93-.07-1.42.89-1.19 1.52-2.58 1.98-4.02.2-.64-.02-1.06-.48-1.06h-1.87c-.33 0-.54-.32-.54-.8v-2.48c0-.48.22-.8.54-.8h2.76c.28 0 .5-.29.52-.71l.07-.8c.02-.52-.2-.84-.54-.84h-2.07c-.33 0-.54-.32-.54-.8v-2.29c0-.48.22-.8.54-.8h2.11c.33 0 .54-.32.54-.8v-.64c0-.48-.22-.8-.54-.8h-2.48c-.33 0-.54-.32-.54-.8v-2.48c0-.48.22-.8.54-.8h2.48c.33 0 .54-.32.54-.8v-2c0-.48.22-.8.54-.8h1.89c.33 0 .54.32.54.8v2c0 .48.22.8.54.8h1.87c.33 0 .54.32.54.8v2.48c0 .48-.22.8-.54.8h-1.87c-.33 0-.54.32-.54.8v.64c0 .48.22.8.54.8h1.48c.33 0 .54.32.54.8v2.29c0 .48-.22.8-.54.8l.02-.01zm8.22-13.82l1.65 1.51c.22.23.3.61.22.97a144.3 144.3 0 01-2.2 7.85c-.09.32-.04.68.11.93 1.55 2.48 1.78 4.76 1.78 6.63 0 2.48-.41 4.06-1.28 4.89-.46.48-.98.74-1.59.87-.33.06-.76.1-1.2.1-.33 0-.52-.29-.57-.74-.07-.9-.26-1.96-.5-2.83-.15-.48-.02-.74.3-.71.22 0 .39.03.57 0h.04c.28 0 .57-.06.81-.26.37-.26.5-.84.5-1.87 0-1.45-.41-3.44-1.85-5.54-.17-.23-.22-.58-.15-.9.44-1.67.94-3.86 1.37-5.79.13-.61-.09-1.03-.52-1.03h-.83c-.33 0-.54.32-.54.8v22.16c0 .48-.22.8-.54.8h-1.89c-.33 0-.54-.32-.54-.8V38.93c0-.48.22-.8.54-.8h5.62l.11-.03.17-.06c.13-.03.3 0 .41.1zm-20.741 14.59c-.08-.36-.15-.67-.22-.95-.06-.24.05-.5.25-.57l.17-.06c1.11-.37 1.84.12 2.18 1.47.32 1.09.59 2.44.81 4.03.03.22-.08.44-.25.51l-1.62.66c-.22.09-.45-.08-.49-.36l-.08-.57c-.04-.26-.24-.43-.45-.37-3.06.79-5.05 1.4-5.97 1.83-.2.1-.42-.03-.49-.28l-.78-2.71c-.05-.18 0-.37.11-.5l1.85-1.96s.04-.05.06-.08l1.08-1.79c.2-.34-.04-.8-.38-.72l-1.69.41c-.18.04-.37-.08-.43-.3l-.82-2.85c-.06-.2 0-.44.16-.54.73-.49 4.22-8.71 4.62-8.89.34-.15.77-.03 1.24.21.57.28 1.11.66 1.23 1.17.14.58-1.53 4.31-2.65 6.29-.18.31.02.74.33.72l.61-.04c.13 0 .25-.1.31-.24.47-1.06 1.01-2.49 1.59-3.29.25-.35 1.06.18 1.35.38.57.38 1.07.69 1.07 1.32 0 .38-.32.99-.53 1.46-.74 1.79-1.96 4-3.68 6.61-.22.33.02.81.36.74l.84-.18c.22-.05.35-.31.3-.57l.01.01zm-6.1 6.64l1.78.45c.37.08.56.49.46.97-.42 2.04-1.13 4.06-1.91 5.52-.16.33-.46.37-.7.11-.42-.39-.94-.82-1.42-1.17-.44-.35-.51-.84-.22-1.38.64-1.13 1.13-2.53 1.4-3.94.09-.42.32-.63.61-.57v.01zm3.08-.15l1.62-.65c.33-.15.65.1.74.56.43 1.99.61 4.12.53 5.82 0 .38-.24.58-.53.5-.49-.08-1.08-.16-1.6-.18-.49-.04-.74-.42-.7-1.05.09-1.34-.04-2.81-.35-4.17-.08-.41.03-.73.28-.84l.01.01zm3.681.26l1.46-.86c.29-.2.59-.04.71.37.54 1.74.88 3.66.94 5.23.02.35-.17.58-.43.56-.45.02-.98.07-1.46.16-.45.06-.7-.24-.71-.82-.02-1.25-.26-2.57-.65-3.75-.11-.36-.09-.73.13-.89h.01z" fill="#fff"/></g><defs><linearGradient id="paint0_linear_1259_5925" x1="390.339" y1="30.35" x2="390.339" y2="67.45" gradientUnits="userSpaceOnUse"><stop stop-color="#fff"/><stop offset="1" stop-color="#FFF1B4"/></linearGradient><linearGradient id="paint1_linear_1259_5925" x1="423.36" y1="30.35" x2="423.36" y2="67.45" gradientUnits="userSpaceOnUse"><stop stop-color="#fff"/><stop offset="1" stop-color="#FFF1B4"/></linearGradient><linearGradient id="paint2_linear_1259_5925" x1="463.529" y1="30.35" x2="463.529" y2="67.45" gradientUnits="userSpaceOnUse"><stop stop-color="#fff"/><stop offset="1" stop-color="#FFF1B4"/></linearGradient><clipPath id="clip0_1259_5925"><path fill="#fff" transform="translate(0 .9)" d="M0 0h736v99H0z"/></clipPath></defs></svg>